<?xml version="1.0" encoding="utf-8" standalone="no"?>
<!DOCTYPE svg PUBLIC "-//W3C//DTD SVG 1.1//EN"
  "http://www.w3.org/Graphics/SVG/1.1/DTD/svg11.dtd">
<!-- Created with matplotlib (http://matplotlib.org/) -->
<svg height="345.6pt" version="1.1" viewBox="0 0 460.8 345.6" width="460.8pt" xmlns="http://www.w3.org/2000/svg" xmlns:xlink="http://www.w3.org/1999/xlink">
 <defs>
  <style type="text/css">
*{stroke-linecap:butt;stroke-linejoin:round;}
  </style>
 </defs>
 <g id="figure_1">
  <g id="patch_1">
   <path d="M 0 345.6 
L 460.8 345.6 
L 460.8 0 
L 0 0 
z
" style="fill:#ffffff;"/>
  </g>
  <g id="axes_1">
   <g id="patch_2">
    <path d="M 56.12 294.88 
L 333.168 294.88 
L 333.168 6.845228 
L 56.12 6.845228 
z
" style="fill:#ffffff;"/>
   </g>
   <g id="matplotlib.axis_1">
    <g id="xtick_1">
     <g id="line2d_1">
      <path clip-path="url(#p2a0d94da87)" d="M 56.12 294.88 
L 56.12 6.845228 
" style="fill:none;stroke:#b0b0b0;stroke-linecap:square;stroke-width:0.8;"/>
     </g>
     <g id="line2d_2">
      <defs>
       <path d="M 0 0 
L 0 3.5 
" id="mfc3254d58d" style="stroke:#000000;stroke-width:0.8;"/>
      </defs>
      <g>
       <use style="stroke:#000000;stroke-width:0.8;" x="56.12" xlink:href="#mfc3254d58d" y="294.88"/>
      </g>
     </g>
     <g id="text_1">
      <!-- 0 -->
      <defs>
       <path d="M 31.78125 66.40625 
Q 24.171875 66.40625 20.328125 58.90625 
Q 16.5 51.421875 16.5 36.375 
Q 16.5 21.390625 20.328125 13.890625 
Q 24.171875 6.390625 31.78125 6.390625 
Q 39.453125 6.390625 43.28125 13.890625 
Q 47.125 21.390625 47.125 36.375 
Q 47.125 51.421875 43.28125 58.90625 
Q 39.453125 66.40625 31.78125 66.40625 
z
M 31.78125 74.21875 
Q 44.046875 74.21875 50.515625 64.515625 
Q 56.984375 54.828125 56.984375 36.375 
Q 56.984375 17.96875 50.515625 8.265625 
Q 44.046875 -1.421875 31.78125 -1.421875 
Q 19.53125 -1.421875 13.0625 8.265625 
Q 6.59375 17.96875 6.59375 36.375 
Q 6.59375 54.828125 13.0625 64.515625 
Q 19.53125 74.21875 31.78125 74.21875 
z
" id="DejaVuSans-30"/>
      </defs>
      <g transform="translate(49.7575 317.076875)scale(0.2 -0.2)">
       <use xlink:href="#DejaVuSans-30"/>
      </g>
     </g>
    </g>
    <g id="xtick_2">
     <g id="line2d_3">
      <path clip-path="url(#p2a0d94da87)" d="M 135.276571 294.88 
L 135.276571 6.845228 
" style="fill:none;stroke:#b0b0b0;stroke-linecap:square;stroke-width:0.8;"/>
     </g>
     <g id="line2d_4">
      <g>
       <use style="stroke:#000000;stroke-width:0.8;" x="135.276571" xlink:href="#mfc3254d58d" y="294.88"/>
      </g>
     </g>
     <g id="text_2">
      <!-- 2 -->
      <defs>
       <path d="M 19.1875 8.296875 
L 53.609375 8.296875 
L 53.609375 0 
L 7.328125 0 
L 7.328125 8.296875 
Q 12.9375 14.109375 22.625 23.890625 
Q 32.328125 33.6875 34.8125 36.53125 
Q 39.546875 41.84375 41.421875 45.53125 
Q 43.3125 49.21875 43.3125 52.78125 
Q 43.3125 58.59375 39.234375 62.25 
Q 35.15625 65.921875 28.609375 65.921875 
Q 23.96875 65.921875 18.8125 64.3125 
Q 13.671875 62.703125 7.8125 59.421875 
L 7.8125 69.390625 
Q 13.765625 71.78125 18.9375 73 
Q 24.125 74.21875 28.421875 74.21875 
Q 39.75 74.21875 46.484375 68.546875 
Q 53.21875 62.890625 53.21875 53.421875 
Q 53.21875 48.921875 51.53125 44.890625 
Q 49.859375 40.875 45.40625 35.40625 
Q 44.1875 33.984375 37.640625 27.21875 
Q 31.109375 20.453125 19.1875 8.296875 
z
" id="DejaVuSans-32"/>
      </defs>
      <g transform="translate(128.914071 317.076875)scale(0.2 -0.2)">
       <use xlink:href="#DejaVuSans-32"/>
      </g>
     </g>
    </g>
    <g id="xtick_3">
     <g id="line2d_5">
      <path clip-path="url(#p2a0d94da87)" d="M 214.433143 294.88 
L 214.433143 6.845228 
" style="fill:none;stroke:#b0b0b0;stroke-linecap:square;stroke-width:0.8;"/>
     </g>
     <g id="line2d_6">
      <g>
       <use style="stroke:#000000;stroke-width:0.8;" x="214.433143" xlink:href="#mfc3254d58d" y="294.88"/>
      </g>
     </g>
     <g id="text_3">
      <!-- 4 -->
      <defs>
       <path d="M 37.796875 64.3125 
L 12.890625 25.390625 
L 37.796875 25.390625 
z
M 35.203125 72.90625 
L 47.609375 72.90625 
L 47.609375 25.390625 
L 58.015625 25.390625 
L 58.015625 17.1875 
L 47.609375 17.1875 
L 47.609375 0 
L 37.796875 0 
L 37.796875 17.1875 
L 4.890625 17.1875 
L 4.890625 26.703125 
z
" id="DejaVuSans-34"/>
      </defs>
      <g transform="translate(208.070643 317.076875)scale(0.2 -0.2)">
       <use xlink:href="#DejaVuSans-34"/>
      </g>
     </g>
    </g>
    <g id="xtick_4">
     <g id="line2d_7">
      <path clip-path="url(#p2a0d94da87)" d="M 293.589714 294.88 
L 293.589714 6.845228 
" style="fill:none;stroke:#b0b0b0;stroke-linecap:square;stroke-width:0.8;"/>
     </g>
     <g id="line2d_8">
      <g>
       <use style="stroke:#000000;stroke-width:0.8;" x="293.589714" xlink:href="#mfc3254d58d" y="294.88"/>
      </g>
     </g>
     <g id="text_4">
      <!-- 6 -->
      <defs>
       <path d="M 33.015625 40.375 
Q 26.375 40.375 22.484375 35.828125 
Q 18.609375 31.296875 18.609375 23.390625 
Q 18.609375 15.53125 22.484375 10.953125 
Q 26.375 6.390625 33.015625 6.390625 
Q 39.65625 6.390625 43.53125 10.953125 
Q 47.40625 15.53125 47.40625 23.390625 
Q 47.40625 31.296875 43.53125 35.828125 
Q 39.65625 40.375 33.015625 40.375 
z
M 52.59375 71.296875 
L 52.59375 62.3125 
Q 48.875 64.0625 45.09375 64.984375 
Q 41.3125 65.921875 37.59375 65.921875 
Q 27.828125 65.921875 22.671875 59.328125 
Q 17.53125 52.734375 16.796875 39.40625 
Q 19.671875 43.65625 24.015625 45.921875 
Q 28.375 48.1875 33.59375 48.1875 
Q 44.578125 48.1875 50.953125 41.515625 
Q 57.328125 34.859375 57.328125 23.390625 
Q 57.328125 12.15625 50.6875 5.359375 
Q 44.046875 -1.421875 33.015625 -1.421875 
Q 20.359375 -1.421875 13.671875 8.265625 
Q 6.984375 17.96875 6.984375 36.375 
Q 6.984375 53.65625 15.1875 63.9375 
Q 23.390625 74.21875 37.203125 74.21875 
Q 40.921875 74.21875 44.703125 73.484375 
Q 48.484375 72.75 52.59375 71.296875 
z
" id="DejaVuSans-36"/>
      </defs>
      <g transform="translate(287.227214 317.076875)scale(0.2 -0.2)">
       <use xlink:href="#DejaVuSans-36"/>
      </g>
     </g>
    </g>
    <g id="xtick_5">
     <g id="line2d_9">
      <path clip-path="url(#p2a0d94da87)" d="M 56.12 294.88 
L 56.12 6.845228 
" style="fill:none;stroke:#b0b0b0;stroke-linecap:square;stroke-width:0.8;"/>
     </g>
     <g id="line2d_10">
      <defs>
       <path d="M 0 0 
L 0 2 
" id="m632d003d33" style="stroke:#000000;stroke-width:0.6;"/>
      </defs>
      <g>
       <use style="stroke:#000000;stroke-width:0.6;" x="56.12" xlink:href="#m632d003d33" y="294.88"/>
      </g>
     </g>
    </g>
    <g id="xtick_6">
     <g id="line2d_11">
      <path clip-path="url(#p2a0d94da87)" d="M 95.698286 294.88 
L 95.698286 6.845228 
" style="fill:none;stroke:#b0b0b0;stroke-linecap:square;stroke-width:0.8;"/>
     </g>
     <g id="line2d_12">
      <g>
       <use style="stroke:#000000;stroke-width:0.6;" x="95.698286" xlink:href="#m632d003d33" y="294.88"/>
      </g>
     </g>
    </g>
    <g id="xtick_7">
     <g id="line2d_13">
      <path clip-path="url(#p2a0d94da87)" d="M 135.276571 294.88 
L 135.276571 6.845228 
" style="fill:none;stroke:#b0b0b0;stroke-linecap:square;stroke-width:0.8;"/>
     </g>
     <g id="line2d_14">
      <g>
       <use style="stroke:#000000;stroke-width:0.6;" x="135.276571" xlink:href="#m632d003d33" y="294.88"/>
      </g>
     </g>
    </g>
    <g id="xtick_8">
     <g id="line2d_15">
      <path clip-path="url(#p2a0d94da87)" d="M 174.854857 294.88 
L 174.854857 6.845228 
" style="fill:none;stroke:#b0b0b0;stroke-linecap:square;stroke-width:0.8;"/>
     </g>
     <g id="line2d_16">
      <g>
       <use style="stroke:#000000;stroke-width:0.6;" x="174.854857" xlink:href="#m632d003d33" y="294.88"/>
      </g>
     </g>
    </g>
    <g id="xtick_9">
     <g id="line2d_17">
      <path clip-path="url(#p2a0d94da87)" d="M 214.433143 294.88 
L 214.433143 6.845228 
" style="fill:none;stroke:#b0b0b0;stroke-linecap:square;stroke-width:0.8;"/>
     </g>
     <g id="line2d_18">
      <g>
       <use style="stroke:#000000;stroke-width:0.6;" x="214.433143" xlink:href="#m632d003d33" y="294.88"/>
      </g>
     </g>
    </g>
    <g id="xtick_10">
     <g id="line2d_19">
      <path clip-path="url(#p2a0d94da87)" d="M 254.011429 294.88 
L 254.011429 6.845228 
" style="fill:none;stroke:#b0b0b0;stroke-linecap:square;stroke-width:0.8;"/>
     </g>
     <g id="line2d_20">
      <g>
       <use style="stroke:#000000;stroke-width:0.6;" x="254.011429" xlink:href="#m632d003d33" y="294.88"/>
      </g>
     </g>
    </g>
    <g id="xtick_11">
     <g id="line2d_21">
      <path clip-path="url(#p2a0d94da87)" d="M 293.589714 294.88 
L 293.589714 6.845228 
" style="fill:none;stroke:#b0b0b0;stroke-linecap:square;stroke-width:0.8;"/>
     </g>
     <g id="line2d_22">
      <g>
       <use style="stroke:#000000;stroke-width:0.6;" x="293.589714" xlink:href="#m632d003d33" y="294.88"/>
      </g>
     </g>
    </g>
    <g id="xtick_12">
     <g id="line2d_23">
      <path clip-path="url(#p2a0d94da87)" d="M 333.168 294.88 
L 333.168 6.845228 
" style="fill:none;stroke:#b0b0b0;stroke-linecap:square;stroke-width:0.8;"/>
     </g>
     <g id="line2d_24">
      <g>
       <use style="stroke:#000000;stroke-width:0.6;" x="333.168" xlink:href="#m632d003d33" y="294.88"/>
      </g>
     </g>
    </g>
    <g id="text_5">
     <!-- log10(# f-evals / dimension) -->
     <defs>
      <path d="M 9.421875 75.984375 
L 18.40625 75.984375 
L 18.40625 0 
L 9.421875 0 
z
" id="DejaVuSans-6c"/>
      <path d="M 30.609375 48.390625 
Q 23.390625 48.390625 19.1875 42.75 
Q 14.984375 37.109375 14.984375 27.296875 
Q 14.984375 17.484375 19.15625 11.84375 
Q 23.34375 6.203125 30.609375 6.203125 
Q 37.796875 6.203125 41.984375 11.859375 
Q 46.1875 17.53125 46.1875 27.296875 
Q 46.1875 37.015625 41.984375 42.703125 
Q 37.796875 48.390625 30.609375 48.390625 
z
M 30.609375 56 
Q 42.328125 56 49.015625 48.375 
Q 55.71875 40.765625 55.71875 27.296875 
Q 55.71875 13.875 49.015625 6.21875 
Q 42.328125 -1.421875 30.609375 -1.421875 
Q 18.84375 -1.421875 12.171875 6.21875 
Q 5.515625 13.875 5.515625 27.296875 
Q 5.515625 40.765625 12.171875 48.375 
Q 18.84375 56 30.609375 56 
z
" id="DejaVuSans-6f"/>
      <path d="M 45.40625 27.984375 
Q 45.40625 37.75 41.375 43.109375 
Q 37.359375 48.484375 30.078125 48.484375 
Q 22.859375 48.484375 18.828125 43.109375 
Q 14.796875 37.75 14.796875 27.984375 
Q 14.796875 18.265625 18.828125 12.890625 
Q 22.859375 7.515625 30.078125 7.515625 
Q 37.359375 7.515625 41.375 12.890625 
Q 45.40625 18.265625 45.40625 27.984375 
z
M 54.390625 6.78125 
Q 54.390625 -7.171875 48.1875 -13.984375 
Q 42 -20.796875 29.203125 -20.796875 
Q 24.46875 -20.796875 20.265625 -20.09375 
Q 16.0625 -19.390625 12.109375 -17.921875 
L 12.109375 -9.1875 
Q 16.0625 -11.328125 19.921875 -12.34375 
Q 23.78125 -13.375 27.78125 -13.375 
Q 36.625 -13.375 41.015625 -8.765625 
Q 45.40625 -4.15625 45.40625 5.171875 
L 45.40625 9.625 
Q 42.625 4.78125 38.28125 2.390625 
Q 33.9375 0 27.875 0 
Q 17.828125 0 11.671875 7.65625 
Q 5.515625 15.328125 5.515625 27.984375 
Q 5.515625 40.671875 11.671875 48.328125 
Q 17.828125 56 27.875 56 
Q 33.9375 56 38.28125 53.609375 
Q 42.625 51.21875 45.40625 46.390625 
L 45.40625 54.6875 
L 54.390625 54.6875 
z
" id="DejaVuSans-67"/>
      <path d="M 12.40625 8.296875 
L 28.515625 8.296875 
L 28.515625 63.921875 
L 10.984375 60.40625 
L 10.984375 69.390625 
L 28.421875 72.90625 
L 38.28125 72.90625 
L 38.28125 8.296875 
L 54.390625 8.296875 
L 54.390625 0 
L 12.40625 0 
z
" id="DejaVuSans-31"/>
      <path d="M 31 75.875 
Q 24.46875 64.65625 21.28125 53.65625 
Q 18.109375 42.671875 18.109375 31.390625 
Q 18.109375 20.125 21.3125 9.0625 
Q 24.515625 -2 31 -13.1875 
L 23.1875 -13.1875 
Q 15.875 -1.703125 12.234375 9.375 
Q 8.59375 20.453125 8.59375 31.390625 
Q 8.59375 42.28125 12.203125 53.3125 
Q 15.828125 64.359375 23.1875 75.875 
z
" id="DejaVuSans-28"/>
      <path d="M 51.125 44 
L 36.921875 44 
L 32.8125 27.6875 
L 47.125 27.6875 
z
M 43.796875 71.78125 
L 38.71875 51.515625 
L 52.984375 51.515625 
L 58.109375 71.78125 
L 65.921875 71.78125 
L 60.890625 51.515625 
L 76.125 51.515625 
L 76.125 44 
L 58.984375 44 
L 54.984375 27.6875 
L 70.515625 27.6875 
L 70.515625 20.21875 
L 53.078125 20.21875 
L 48 0 
L 40.1875 0 
L 45.21875 20.21875 
L 30.90625 20.21875 
L 25.875 0 
L 18.015625 0 
L 23.09375 20.21875 
L 7.71875 20.21875 
L 7.71875 27.6875 
L 24.90625 27.6875 
L 29 44 
L 13.28125 44 
L 13.28125 51.515625 
L 30.90625 51.515625 
L 35.890625 71.78125 
z
" id="DejaVuSans-23"/>
      <path id="DejaVuSans-20"/>
      <path d="M 37.109375 75.984375 
L 37.109375 68.5 
L 28.515625 68.5 
Q 23.6875 68.5 21.796875 66.546875 
Q 19.921875 64.59375 19.921875 59.515625 
L 19.921875 54.6875 
L 34.71875 54.6875 
L 34.71875 47.703125 
L 19.921875 47.703125 
L 19.921875 0 
L 10.890625 0 
L 10.890625 47.703125 
L 2.296875 47.703125 
L 2.296875 54.6875 
L 10.890625 54.6875 
L 10.890625 58.5 
Q 10.890625 67.625 15.140625 71.796875 
Q 19.390625 75.984375 28.609375 75.984375 
z
" id="DejaVuSans-66"/>
      <path d="M 4.890625 31.390625 
L 31.203125 31.390625 
L 31.203125 23.390625 
L 4.890625 23.390625 
z
" id="DejaVuSans-2d"/>
      <path d="M 56.203125 29.59375 
L 56.203125 25.203125 
L 14.890625 25.203125 
Q 15.484375 15.921875 20.484375 11.0625 
Q 25.484375 6.203125 34.421875 6.203125 
Q 39.59375 6.203125 44.453125 7.46875 
Q 49.3125 8.734375 54.109375 11.28125 
L 54.109375 2.78125 
Q 49.265625 0.734375 44.1875 -0.34375 
Q 39.109375 -1.421875 33.890625 -1.421875 
Q 20.796875 -1.421875 13.15625 6.1875 
Q 5.515625 13.8125 5.515625 26.8125 
Q 5.515625 40.234375 12.765625 48.109375 
Q 20.015625 56 32.328125 56 
Q 43.359375 56 49.78125 48.890625 
Q 56.203125 41.796875 56.203125 29.59375 
z
M 47.21875 32.234375 
Q 47.125 39.59375 43.09375 43.984375 
Q 39.0625 48.390625 32.421875 48.390625 
Q 24.90625 48.390625 20.390625 44.140625 
Q 15.875 39.890625 15.1875 32.171875 
z
" id="DejaVuSans-65"/>
      <path d="M 2.984375 54.6875 
L 12.5 54.6875 
L 29.59375 8.796875 
L 46.6875 54.6875 
L 56.203125 54.6875 
L 35.6875 0 
L 23.484375 0 
z
" id="DejaVuSans-76"/>
      <path d="M 34.28125 27.484375 
Q 23.390625 27.484375 19.1875 25 
Q 14.984375 22.515625 14.984375 16.5 
Q 14.984375 11.71875 18.140625 8.90625 
Q 21.296875 6.109375 26.703125 6.109375 
Q 34.1875 6.109375 38.703125 11.40625 
Q 43.21875 16.703125 43.21875 25.484375 
L 43.21875 27.484375 
z
M 52.203125 31.203125 
L 52.203125 0 
L 43.21875 0 
L 43.21875 8.296875 
Q 40.140625 3.328125 35.546875 0.953125 
Q 30.953125 -1.421875 24.3125 -1.421875 
Q 15.921875 -1.421875 10.953125 3.296875 
Q 6 8.015625 6 15.921875 
Q 6 25.140625 12.171875 29.828125 
Q 18.359375 34.515625 30.609375 34.515625 
L 43.21875 34.515625 
L 43.21875 35.40625 
Q 43.21875 41.609375 39.140625 45 
Q 35.0625 48.390625 27.6875 48.390625 
Q 23 48.390625 18.546875 47.265625 
Q 14.109375 46.140625 10.015625 43.890625 
L 10.015625 52.203125 
Q 14.9375 54.109375 19.578125 55.046875 
Q 24.21875 56 28.609375 56 
Q 40.484375 56 46.34375 49.84375 
Q 52.203125 43.703125 52.203125 31.203125 
z
" id="DejaVuSans-61"/>
      <path d="M 44.28125 53.078125 
L 44.28125 44.578125 
Q 40.484375 46.53125 36.375 47.5 
Q 32.28125 48.484375 27.875 48.484375 
Q 21.1875 48.484375 17.84375 46.4375 
Q 14.5 44.390625 14.5 40.28125 
Q 14.5 37.15625 16.890625 35.375 
Q 19.28125 33.59375 26.515625 31.984375 
L 29.59375 31.296875 
Q 39.15625 29.25 43.1875 25.515625 
Q 47.21875 21.78125 47.21875 15.09375 
Q 47.21875 7.46875 41.1875 3.015625 
Q 35.15625 -1.421875 24.609375 -1.421875 
Q 20.21875 -1.421875 15.453125 -0.5625 
Q 10.6875 0.296875 5.421875 2 
L 5.421875 11.28125 
Q 10.40625 8.6875 15.234375 7.390625 
Q 20.0625 6.109375 24.8125 6.109375 
Q 31.15625 6.109375 34.5625 8.28125 
Q 37.984375 10.453125 37.984375 14.40625 
Q 37.984375 18.0625 35.515625 20.015625 
Q 33.0625 21.96875 24.703125 23.78125 
L 21.578125 24.515625 
Q 13.234375 26.265625 9.515625 29.90625 
Q 5.8125 33.546875 5.8125 39.890625 
Q 5.8125 47.609375 11.28125 51.796875 
Q 16.75 56 26.8125 56 
Q 31.78125 56 36.171875 55.265625 
Q 40.578125 54.546875 44.28125 53.078125 
z
" id="DejaVuSans-73"/>
      <path d="M 25.390625 72.90625 
L 33.6875 72.90625 
L 8.296875 -9.28125 
L 0 -9.28125 
z
" id="DejaVuSans-2f"/>
      <path d="M 45.40625 46.390625 
L 45.40625 75.984375 
L 54.390625 75.984375 
L 54.390625 0 
L 45.40625 0 
L 45.40625 8.203125 
Q 42.578125 3.328125 38.25 0.953125 
Q 33.9375 -1.421875 27.875 -1.421875 
Q 17.96875 -1.421875 11.734375 6.484375 
Q 5.515625 14.40625 5.515625 27.296875 
Q 5.515625 40.1875 11.734375 48.09375 
Q 17.96875 56 27.875 56 
Q 33.9375 56 38.25 53.625 
Q 42.578125 51.265625 45.40625 46.390625 
z
M 14.796875 27.296875 
Q 14.796875 17.390625 18.875 11.75 
Q 22.953125 6.109375 30.078125 6.109375 
Q 37.203125 6.109375 41.296875 11.75 
Q 45.40625 17.390625 45.40625 27.296875 
Q 45.40625 37.203125 41.296875 42.84375 
Q 37.203125 48.484375 30.078125 48.484375 
Q 22.953125 48.484375 18.875 42.84375 
Q 14.796875 37.203125 14.796875 27.296875 
z
" id="DejaVuSans-64"/>
      <path d="M 9.421875 54.6875 
L 18.40625 54.6875 
L 18.40625 0 
L 9.421875 0 
z
M 9.421875 75.984375 
L 18.40625 75.984375 
L 18.40625 64.59375 
L 9.421875 64.59375 
z
" id="DejaVuSans-69"/>
      <path d="M 52 44.1875 
Q 55.375 50.25 60.0625 53.125 
Q 64.75 56 71.09375 56 
Q 79.640625 56 84.28125 50.015625 
Q 88.921875 44.046875 88.921875 33.015625 
L 88.921875 0 
L 79.890625 0 
L 79.890625 32.71875 
Q 79.890625 40.578125 77.09375 44.375 
Q 74.3125 48.1875 68.609375 48.1875 
Q 61.625 48.1875 57.5625 43.546875 
Q 53.515625 38.921875 53.515625 30.90625 
L 53.515625 0 
L 44.484375 0 
L 44.484375 32.71875 
Q 44.484375 40.625 41.703125 44.40625 
Q 38.921875 48.1875 33.109375 48.1875 
Q 26.21875 48.1875 22.15625 43.53125 
Q 18.109375 38.875 18.109375 30.90625 
L 18.109375 0 
L 9.078125 0 
L 9.078125 54.6875 
L 18.109375 54.6875 
L 18.109375 46.1875 
Q 21.1875 51.21875 25.484375 53.609375 
Q 29.78125 56 35.6875 56 
Q 41.65625 56 45.828125 52.96875 
Q 50 49.953125 52 44.1875 
z
" id="DejaVuSans-6d"/>
      <path d="M 54.890625 33.015625 
L 54.890625 0 
L 45.90625 0 
L 45.90625 32.71875 
Q 45.90625 40.484375 42.875 44.328125 
Q 39.84375 48.1875 33.796875 48.1875 
Q 26.515625 48.1875 22.3125 43.546875 
Q 18.109375 38.921875 18.109375 30.90625 
L 18.109375 0 
L 9.078125 0 
L 9.078125 54.6875 
L 18.109375 54.6875 
L 18.109375 46.1875 
Q 21.34375 51.125 25.703125 53.5625 
Q 30.078125 56 35.796875 56 
Q 45.21875 56 50.046875 50.171875 
Q 54.890625 44.34375 54.890625 33.015625 
z
" id="DejaVuSans-6e"/>
      <path d="M 8.015625 75.875 
L 15.828125 75.875 
Q 23.140625 64.359375 26.78125 53.3125 
Q 30.421875 42.28125 30.421875 31.390625 
Q 30.421875 20.453125 26.78125 9.375 
Q 23.140625 -1.703125 15.828125 -13.1875 
L 8.015625 -13.1875 
Q 14.5 -2 17.703125 9.0625 
Q 20.90625 20.125 20.90625 31.390625 
Q 20.90625 42.671875 17.703125 53.65625 
Q 14.5 64.65625 8.015625 75.875 
z
" id="DejaVuSans-29"/>
     </defs>
     <g transform="translate(73.803219 338.153594)scale(0.17 -0.17)">
      <use xlink:href="#DejaVuSans-6c"/>
      <use x="27.783203" xlink:href="#DejaVuSans-6f"/>
      <use x="88.964844" xlink:href="#DejaVuSans-67"/>
      <use x="152.441406" xlink:href="#DejaVuSans-31"/>
      <use x="216.064453" xlink:href="#DejaVuSans-30"/>
      <use x="279.6875" xlink:href="#DejaVuSans-28"/>
      <use x="318.701172" xlink:href="#DejaVuSans-23"/>
      <use x="402.490234" xlink:href="#DejaVuSans-20"/>
      <use x="434.277344" xlink:href="#DejaVuSans-66"/>
      <use x="469.404297" xlink:href="#DejaVuSans-2d"/>
      <use x="505.488281" xlink:href="#DejaVuSans-65"/>
      <use x="567.011719" xlink:href="#DejaVuSans-76"/>
      <use x="626.191406" xlink:href="#DejaVuSans-61"/>
      <use x="687.470703" xlink:href="#DejaVuSans-6c"/>
      <use x="715.253906" xlink:href="#DejaVuSans-73"/>
      <use x="767.353516" xlink:href="#DejaVuSans-20"/>
      <use x="799.140625" xlink:href="#DejaVuSans-2f"/>
      <use x="832.832031" xlink:href="#DejaVuSans-20"/>
      <use x="864.619141" xlink:href="#DejaVuSans-64"/>
      <use x="928.095703" xlink:href="#DejaVuSans-69"/>
      <use x="955.878906" xlink:href="#DejaVuSans-6d"/>
      <use x="1053.291016" xlink:href="#DejaVuSans-65"/>
      <use x="1114.814453" xlink:href="#DejaVuSans-6e"/>
      <use x="1178.193359" xlink:href="#DejaVuSans-73"/>
      <use x="1230.292969" xlink:href="#DejaVuSans-69"/>
      <use x="1258.076172" xlink:href="#DejaVuSans-6f"/>
      <use x="1319.257812" xlink:href="#DejaVuSans-6e"/>
      <use x="1382.636719" xlink:href="#DejaVuSans-29"/>
     </g>
    </g>
   </g>
   <g id="matplotlib.axis_2">
    <g id="ytick_1">
     <g id="line2d_25">
      <path clip-path="url(#p2a0d94da87)" d="M 56.12 294.88 
L 333.168 294.88 
" style="fill:none;stroke:#b0b0b0;stroke-linecap:square;stroke-width:0.8;"/>
     </g>
     <g id="line2d_26">
      <defs>
       <path d="M 0 0 
L -3.5 0 
" id="m0b03e4c17c" style="stroke:#000000;stroke-width:0.8;"/>
      </defs>
      <g>
       <use style="stroke:#000000;stroke-width:0.8;" x="56.12" xlink:href="#m0b03e4c17c" y="294.88"/>
      </g>
     </g>
     <g id="text_6">
      <!-- 0.0 -->
      <defs>
       <path d="M 10.6875 12.40625 
L 21 12.40625 
L 21 0 
L 10.6875 0 
z
" id="DejaVuSans-2e"/>
      </defs>
      <g transform="translate(23.675 300.95875)scale(0.16 -0.16)">
       <use xlink:href="#DejaVuSans-30"/>
       <use x="63.623047" xlink:href="#DejaVuSans-2e"/>
       <use x="95.410156" xlink:href="#DejaVuSans-30"/>
      </g>
     </g>
    </g>
    <g id="ytick_2">
     <g id="line2d_27">
      <path clip-path="url(#p2a0d94da87)" d="M 56.12 237.843411 
L 333.168 237.843411 
" style="fill:none;stroke:#b0b0b0;stroke-linecap:square;stroke-width:0.8;"/>
     </g>
     <g id="line2d_28">
      <g>
       <use style="stroke:#000000;stroke-width:0.8;" x="56.12" xlink:href="#m0b03e4c17c" y="237.843411"/>
      </g>
     </g>
     <g id="text_7">
      <!-- 0.2 -->
      <g transform="translate(23.675 243.922161)scale(0.16 -0.16)">
       <use xlink:href="#DejaVuSans-30"/>
       <use x="63.623047" xlink:href="#DejaVuSans-2e"/>
       <use x="95.410156" xlink:href="#DejaVuSans-32"/>
      </g>
     </g>
    </g>
    <g id="ytick_3">
     <g id="line2d_29">
      <path clip-path="url(#p2a0d94da87)" d="M 56.12 180.806823 
L 333.168 180.806823 
" style="fill:none;stroke:#b0b0b0;stroke-linecap:square;stroke-width:0.8;"/>
     </g>
     <g id="line2d_30">
      <g>
       <use style="stroke:#000000;stroke-width:0.8;" x="56.12" xlink:href="#m0b03e4c17c" y="180.806823"/>
      </g>
     </g>
     <g id="text_8">
      <!-- 0.4 -->
      <g transform="translate(23.675 186.885573)scale(0.16 -0.16)">
       <use xlink:href="#DejaVuSans-30"/>
       <use x="63.623047" xlink:href="#DejaVuSans-2e"/>
       <use x="95.410156" xlink:href="#DejaVuSans-34"/>
      </g>
     </g>
    </g>
    <g id="ytick_4">
     <g id="line2d_31">
      <path clip-path="url(#p2a0d94da87)" d="M 56.12 123.770234 
L 333.168 123.770234 
" style="fill:none;stroke:#b0b0b0;stroke-linecap:square;stroke-width:0.8;"/>
     </g>
     <g id="line2d_32">
      <g>
       <use style="stroke:#000000;stroke-width:0.8;" x="56.12" xlink:href="#m0b03e4c17c" y="123.770234"/>
      </g>
     </g>
     <g id="text_9">
      <!-- 0.6 -->
      <g transform="translate(23.675 129.848984)scale(0.16 -0.16)">
       <use xlink:href="#DejaVuSans-30"/>
       <use x="63.623047" xlink:href="#DejaVuSans-2e"/>
       <use x="95.410156" xlink:href="#DejaVuSans-36"/>
      </g>
     </g>
    </g>
    <g id="ytick_5">
     <g id="line2d_33">
      <path clip-path="url(#p2a0d94da87)" d="M 56.12 66.733646 
L 333.168 66.733646 
" style="fill:none;stroke:#b0b0b0;stroke-linecap:square;stroke-width:0.8;"/>
     </g>
     <g id="line2d_34">
      <g>
       <use style="stroke:#000000;stroke-width:0.8;" x="56.12" xlink:href="#m0b03e4c17c" y="66.733646"/>
      </g>
     </g>
     <g id="text_10">
      <!-- 0.8 -->
      <defs>
       <path d="M 31.78125 34.625 
Q 24.75 34.625 20.71875 30.859375 
Q 16.703125 27.09375 16.703125 20.515625 
Q 16.703125 13.921875 20.71875 10.15625 
Q 24.75 6.390625 31.78125 6.390625 
Q 38.8125 6.390625 42.859375 10.171875 
Q 46.921875 13.96875 46.921875 20.515625 
Q 46.921875 27.09375 42.890625 30.859375 
Q 38.875 34.625 31.78125 34.625 
z
M 21.921875 38.8125 
Q 15.578125 40.375 12.03125 44.71875 
Q 8.5 49.078125 8.5 55.328125 
Q 8.5 64.0625 14.71875 69.140625 
Q 20.953125 74.21875 31.78125 74.21875 
Q 42.671875 74.21875 48.875 69.140625 
Q 55.078125 64.0625 55.078125 55.328125 
Q 55.078125 49.078125 51.53125 44.71875 
Q 48 40.375 41.703125 38.8125 
Q 48.828125 37.15625 52.796875 32.3125 
Q 56.78125 27.484375 56.78125 20.515625 
Q 56.78125 9.90625 50.3125 4.234375 
Q 43.84375 -1.421875 31.78125 -1.421875 
Q 19.734375 -1.421875 13.25 4.234375 
Q 6.78125 9.90625 6.78125 20.515625 
Q 6.78125 27.484375 10.78125 32.3125 
Q 14.796875 37.15625 21.921875 38.8125 
z
M 18.3125 54.390625 
Q 18.3125 48.734375 21.84375 45.5625 
Q 25.390625 42.390625 31.78125 42.390625 
Q 38.140625 42.390625 41.71875 45.5625 
Q 45.3125 48.734375 45.3125 54.390625 
Q 45.3125 60.0625 41.71875 63.234375 
Q 38.140625 66.40625 31.78125 66.40625 
Q 25.390625 66.40625 21.84375 63.234375 
Q 18.3125 60.0625 18.3125 54.390625 
z
" id="DejaVuSans-38"/>
      </defs>
      <g transform="translate(23.675 72.812396)scale(0.16 -0.16)">
       <use xlink:href="#DejaVuSans-30"/>
       <use x="63.623047" xlink:href="#DejaVuSans-2e"/>
       <use x="95.410156" xlink:href="#DejaVuSans-38"/>
      </g>
     </g>
    </g>
    <g id="ytick_6">
     <g id="line2d_35">
      <path clip-path="url(#p2a0d94da87)" d="M 56.12 9.697057 
L 333.168 9.697057 
" style="fill:none;stroke:#b0b0b0;stroke-linecap:square;stroke-width:0.8;"/>
     </g>
     <g id="line2d_36">
      <g>
       <use style="stroke:#000000;stroke-width:0.8;" x="56.12" xlink:href="#m0b03e4c17c" y="9.697057"/>
      </g>
     </g>
     <g id="text_11">
      <!-- 1.0 -->
      <g transform="translate(23.675 15.775807)scale(0.16 -0.16)">
       <use xlink:href="#DejaVuSans-31"/>
       <use x="63.623047" xlink:href="#DejaVuSans-2e"/>
       <use x="95.410156" xlink:href="#DejaVuSans-30"/>
      </g>
     </g>
    </g>
    <g id="text_12">
     <!-- Fraction of function,target pairs -->
     <defs>
      <path d="M 9.8125 72.90625 
L 51.703125 72.90625 
L 51.703125 64.59375 
L 19.671875 64.59375 
L 19.671875 43.109375 
L 48.578125 43.109375 
L 48.578125 34.8125 
L 19.671875 34.8125 
L 19.671875 0 
L 9.8125 0 
z
" id="DejaVuSans-46"/>
      <path d="M 41.109375 46.296875 
Q 39.59375 47.171875 37.8125 47.578125 
Q 36.03125 48 33.890625 48 
Q 26.265625 48 22.1875 43.046875 
Q 18.109375 38.09375 18.109375 28.8125 
L 18.109375 0 
L 9.078125 0 
L 9.078125 54.6875 
L 18.109375 54.6875 
L 18.109375 46.1875 
Q 20.953125 51.171875 25.484375 53.578125 
Q 30.03125 56 36.53125 56 
Q 37.453125 56 38.578125 55.875 
Q 39.703125 55.765625 41.0625 55.515625 
z
" id="DejaVuSans-72"/>
      <path d="M 48.78125 52.59375 
L 48.78125 44.1875 
Q 44.96875 46.296875 41.140625 47.34375 
Q 37.3125 48.390625 33.40625 48.390625 
Q 24.65625 48.390625 19.8125 42.84375 
Q 14.984375 37.3125 14.984375 27.296875 
Q 14.984375 17.28125 19.8125 11.734375 
Q 24.65625 6.203125 33.40625 6.203125 
Q 37.3125 6.203125 41.140625 7.25 
Q 44.96875 8.296875 48.78125 10.40625 
L 48.78125 2.09375 
Q 45.015625 0.34375 40.984375 -0.53125 
Q 36.96875 -1.421875 32.421875 -1.421875 
Q 20.0625 -1.421875 12.78125 6.34375 
Q 5.515625 14.109375 5.515625 27.296875 
Q 5.515625 40.671875 12.859375 48.328125 
Q 20.21875 56 33.015625 56 
Q 37.15625 56 41.109375 55.140625 
Q 45.0625 54.296875 48.78125 52.59375 
z
" id="DejaVuSans-63"/>
      <path d="M 18.3125 70.21875 
L 18.3125 54.6875 
L 36.8125 54.6875 
L 36.8125 47.703125 
L 18.3125 47.703125 
L 18.3125 18.015625 
Q 18.3125 11.328125 20.140625 9.421875 
Q 21.96875 7.515625 27.59375 7.515625 
L 36.8125 7.515625 
L 36.8125 0 
L 27.59375 0 
Q 17.1875 0 13.234375 3.875 
Q 9.28125 7.765625 9.28125 18.015625 
L 9.28125 47.703125 
L 2.6875 47.703125 
L 2.6875 54.6875 
L 9.28125 54.6875 
L 9.28125 70.21875 
z
" id="DejaVuSans-74"/>
      <path d="M 8.5 21.578125 
L 8.5 54.6875 
L 17.484375 54.6875 
L 17.484375 21.921875 
Q 17.484375 14.15625 20.5 10.265625 
Q 23.53125 6.390625 29.59375 6.390625 
Q 36.859375 6.390625 41.078125 11.03125 
Q 45.3125 15.671875 45.3125 23.6875 
L 45.3125 54.6875 
L 54.296875 54.6875 
L 54.296875 0 
L 45.3125 0 
L 45.3125 8.40625 
Q 42.046875 3.421875 37.71875 1 
Q 33.40625 -1.421875 27.6875 -1.421875 
Q 18.265625 -1.421875 13.375 4.4375 
Q 8.5 10.296875 8.5 21.578125 
z
M 31.109375 56 
z
" id="DejaVuSans-75"/>
      <path d="M 11.71875 12.40625 
L 22.015625 12.40625 
L 22.015625 4 
L 14.015625 -11.625 
L 7.71875 -11.625 
L 11.71875 4 
z
" id="DejaVuSans-2c"/>
      <path d="M 18.109375 8.203125 
L 18.109375 -20.796875 
L 9.078125 -20.796875 
L 9.078125 54.6875 
L 18.109375 54.6875 
L 18.109375 46.390625 
Q 20.953125 51.265625 25.265625 53.625 
Q 29.59375 56 35.59375 56 
Q 45.5625 56 51.78125 48.09375 
Q 58.015625 40.1875 58.015625 27.296875 
Q 58.015625 14.40625 51.78125 6.484375 
Q 45.5625 -1.421875 35.59375 -1.421875 
Q 29.59375 -1.421875 25.265625 0.953125 
Q 20.953125 3.328125 18.109375 8.203125 
z
M 48.6875 27.296875 
Q 48.6875 37.203125 44.609375 42.84375 
Q 40.53125 48.484375 33.40625 48.484375 
Q 26.265625 48.484375 22.1875 42.84375 
Q 18.109375 37.203125 18.109375 27.296875 
Q 18.109375 17.390625 22.1875 11.75 
Q 26.265625 6.109375 33.40625 6.109375 
Q 40.53125 6.109375 44.609375 11.75 
Q 48.6875 17.390625 48.6875 27.296875 
z
" id="DejaVuSans-70"/>
     </defs>
     <g transform="translate(16.139531 286.001989)rotate(-90)scale(0.17 -0.17)">
      <use xlink:href="#DejaVuSans-46"/>
      <use x="57.410156" xlink:href="#DejaVuSans-72"/>
      <use x="98.523438" xlink:href="#DejaVuSans-61"/>
      <use x="159.802734" xlink:href="#DejaVuSans-63"/>
      <use x="214.783203" xlink:href="#DejaVuSans-74"/>
      <use x="253.992188" xlink:href="#DejaVuSans-69"/>
      <use x="281.775391" xlink:href="#DejaVuSans-6f"/>
      <use x="342.957031" xlink:href="#DejaVuSans-6e"/>
      <use x="406.335938" xlink:href="#DejaVuSans-20"/>
      <use x="438.123047" xlink:href="#DejaVuSans-6f"/>
      <use x="499.304688" xlink:href="#DejaVuSans-66"/>
      <use x="534.509766" xlink:href="#DejaVuSans-20"/>
      <use x="566.296875" xlink:href="#DejaVuSans-66"/>
      <use x="601.501953" xlink:href="#DejaVuSans-75"/>
      <use x="664.880859" xlink:href="#DejaVuSans-6e"/>
      <use x="728.259766" xlink:href="#DejaVuSans-63"/>
      <use x="783.240234" xlink:href="#DejaVuSans-74"/>
      <use x="822.449219" xlink:href="#DejaVuSans-69"/>
      <use x="850.232422" xlink:href="#DejaVuSans-6f"/>
      <use x="911.414062" xlink:href="#DejaVuSans-6e"/>
      <use x="974.792969" xlink:href="#DejaVuSans-2c"/>
      <use x="1006.580078" xlink:href="#DejaVuSans-74"/>
      <use x="1045.789062" xlink:href="#DejaVuSans-61"/>
      <use x="1107.068359" xlink:href="#DejaVuSans-72"/>
      <use x="1148.166016" xlink:href="#DejaVuSans-67"/>
      <use x="1211.642578" xlink:href="#DejaVuSans-65"/>
      <use x="1273.166016" xlink:href="#DejaVuSans-74"/>
      <use x="1312.375" xlink:href="#DejaVuSans-20"/>
      <use x="1344.162109" xlink:href="#DejaVuSans-70"/>
      <use x="1407.638672" xlink:href="#DejaVuSans-61"/>
      <use x="1468.917969" xlink:href="#DejaVuSans-69"/>
      <use x="1496.701172" xlink:href="#DejaVuSans-72"/>
      <use x="1537.814453" xlink:href="#DejaVuSans-73"/>
     </g>
    </g>
   </g>
   <g id="line2d_37">
    <defs>
     <path d="M 0 1.5 
C 0.397805 1.5 0.77937 1.341951 1.06066 1.06066 
C 1.341951 0.77937 1.5 0.397805 1.5 0 
C 1.5 -0.397805 1.341951 -0.77937 1.06066 -1.06066 
C 0.77937 -1.341951 0.397805 -1.5 0 -1.5 
C -0.397805 -1.5 -0.77937 -1.341951 -1.06066 -1.06066 
C -1.341951 -0.77937 -1.5 -0.397805 -1.5 0 
C -1.5 0.397805 -1.341951 0.77937 -1.06066 1.06066 
C -0.77937 1.341951 -0.397805 1.5 0 1.5 
z
" id="m14e3f45935" style="stroke:#000080;"/>
    </defs>
    <g>
     <use style="fill:#000080;stroke:#000080;" x="358.696218" xlink:href="#m14e3f45935" y="71.207104"/>
     <use style="fill:#000080;stroke:#000080;" x="358.696218" xlink:href="#m14e3f45935" y="71.207104"/>
    </g>
   </g>
   <g id="line2d_38">
    <path d="M 4.627463 294.88 
L 4.627463 294.320818 
L 16.541714 294.320818 
L 16.541714 293.761636 
L 28.455965 293.761636 
L 28.455965 293.202453 
L 32.291498 293.202453 
L 32.291498 292.643271 
L 38.074995 292.643271 
L 38.074995 292.084089 
L 42.394746 292.084089 
L 42.394746 290.965724 
L 44.205749 290.965724 
L 44.205749 289.84736 
L 47.339607 289.84736 
L 47.339607 288.169813 
L 56.12 288.169813 
L 56.12 287.610631 
L 59.253858 287.610631 
L 59.253858 287.051449 
L 66.223248 287.051449 
L 66.223248 286.492266 
L 73.192638 286.492266 
L 73.192638 285.933084 
L 83.08236 285.933084 
L 83.08236 285.373902 
L 84.458185 285.373902 
L 84.458185 284.81472 
L 88.293717 284.81472 
L 88.293717 284.255537 
L 89.931969 284.255537 
L 89.931969 283.696355 
L 91.205783 283.696355 
L 91.205783 283.137173 
L 95.263107 283.137173 
L 95.263107 282.577991 
L 96.206361 282.577991 
L 96.206361 282.018808 
L 97.100534 282.018808 
L 97.179562 280.900444 
L 98.760375 280.900444 
L 98.760375 280.341262 
L 100.273952 280.341262 
L 100.273952 279.782079 
L 100.728876 279.782079 
L 100.728876 279.222897 
L 103.120034 279.222897 
L 103.120034 278.663715 
L 103.884099 278.663715 
L 103.884099 278.104533 
L 108.935392 278.104533 
L 108.935392 277.545351 
L 109.902386 277.545351 
L 109.902386 276.986168 
L 110.746395 276.986168 
L 110.746395 276.426986 
L 111.788449 276.426986 
L 111.788449 275.867804 
L 112.384646 275.867804 
L 112.41717 274.190257 
L 113.548823 274.190257 
L 113.548823 273.631075 
L 113.969545 273.631075 
L 113.969545 273.071893 
L 117.058815 273.071893 
L 117.058815 272.51271 
L 118.256279 272.51271 
L 118.256279 271.953528 
L 118.958878 271.953528 
L 118.958878 271.394346 
L 121.301226 271.394346 
L 121.301226 270.835164 
L 122.1887 270.835164 
L 122.1887 270.275981 
L 122.660646 270.275981 
L 122.660646 269.716799 
L 122.909503 269.716799 
L 122.909503 269.157617 
L 124.843597 269.157617 
L 124.843597 268.598435 
L 125.156126 268.598435 
L 125.156126 268.039252 
L 125.689741 268.039252 
L 125.689741 267.48007 
L 126.134299 267.48007 
L 126.134299 266.920888 
L 126.381204 266.920888 
L 126.381204 266.361706 
L 126.948537 266.361706 
L 126.948537 265.802523 
L 128.811084 265.802523 
L 128.811084 265.243341 
L 129.413824 265.243341 
L 129.413824 264.684159 
L 130.112597 264.684159 
L 130.112597 264.124977 
L 132.951858 264.124977 
L 132.951858 263.565795 
L 133.108565 263.565795 
L 133.108565 263.006612 
L 134.139719 263.006612 
L 134.222158 261.888248 
L 134.583847 261.888248 
L 134.583847 261.329066 
L 134.938082 261.329066 
L 134.938082 260.769883 
L 135.583215 260.769883 
L 135.583215 260.210701 
L 136.09883 260.210701 
L 136.09883 259.651519 
L 136.765731 259.651519 
L 136.765731 259.092337 
L 138.645163 259.092337 
L 138.645163 258.533154 
L 138.994822 258.533154 
L 138.994822 257.973972 
L 139.746542 257.973972 
L 139.746542 257.41479 
L 140.51752 257.41479 
L 140.51752 256.855608 
L 140.750355 256.855608 
L 140.750355 256.296425 
L 141.454529 256.296425 
L 141.454529 255.737243 
L 141.986179 255.737243 
L 141.986179 255.178061 
L 142.692738 255.178061 
L 142.692738 254.618879 
L 144.019108 254.618879 
L 144.075862 253.500514 
L 145.02769 253.500514 
L 145.02769 252.941332 
L 145.550852 252.941332 
L 145.555579 251.822967 
L 146.254795 251.822967 
L 146.254795 251.263785 
L 146.39489 251.263785 
L 146.43535 250.145421 
L 146.556161 250.145421 
L 146.556161 249.586238 
L 147.404349 249.586238 
L 147.421317 248.467874 
L 148.293436 248.467874 
L 148.293436 247.908692 
L 149.450556 247.908692 
L 149.536998 246.231145 
L 149.708587 246.231145 
L 149.778964 244.553598 
L 150.24212 244.553598 
L 150.24212 243.994416 
L 151.25176 243.994416 
L 151.353248 242.876052 
L 151.380211 242.876052 
L 151.380211 242.316869 
L 152.186101 242.316869 
L 152.186101 241.757687 
L 152.670856 241.757687 
L 152.773642 240.639323 
L 152.857285 240.639323 
L 152.857285 240.08014 
L 153.323725 240.08014 
L 153.323725 239.520958 
L 154.085567 239.520958 
L 154.171668 237.843411 
L 154.393533 237.843411 
L 154.393533 237.284229 
L 154.609781 237.284229 
L 154.609781 236.725047 
L 154.971544 236.725047 
L 154.971544 236.165865 
L 156.123518 236.165865 
L 156.182195 235.0475 
L 156.684162 235.0475 
L 156.684162 234.488318 
L 157.106845 234.488318 
L 157.106845 233.929136 
L 157.589924 233.929136 
L 157.618059 232.810771 
L 158.207573 232.810771 
L 158.207573 232.251589 
L 158.574875 232.251589 
L 158.623556 231.133225 
L 158.869269 231.133225 
L 158.869269 230.574042 
L 158.986494 230.574042 
L 159.079271 229.455678 
L 159.333448 229.455678 
L 159.333448 228.896496 
L 160.439861 228.896496 
L 160.439861 228.337313 
L 160.929822 228.337313 
L 160.929822 227.778131 
L 161.707995 227.778131 
L 161.707995 227.218949 
L 162.123957 227.218949 
L 162.123957 226.659767 
L 162.455994 226.659767 
L 162.455994 226.100584 
L 162.574045 226.100584 
L 162.574045 225.541402 
L 163.007511 225.541402 
L 163.065627 223.304673 
L 164.261869 223.304673 
L 164.261869 222.745491 
L 164.633462 222.745491 
L 164.633462 222.186309 
L 165.476919 222.186309 
L 165.476919 221.627126 
L 166.021384 221.627126 
L 166.052965 220.508762 
L 166.275253 220.508762 
L 166.275253 219.94958 
L 166.725184 219.94958 
L 166.725184 219.390397 
L 167.464827 219.390397 
L 167.464827 218.831215 
L 167.806217 218.831215 
L 167.806217 218.272033 
L 168.316606 218.272033 
L 168.375593 216.594486 
L 169.759223 216.594486 
L 169.759223 216.035304 
L 170.005984 216.035304 
L 170.005984 215.476122 
L 170.208759 215.476122 
L 170.208759 214.91694 
L 170.811814 214.91694 
L 170.922366 213.798575 
L 171.132824 213.798575 
L 171.132824 213.239393 
L 172.405724 213.239393 
L 172.405724 212.680211 
L 173.494352 212.680211 
L 173.494352 212.121028 
L 173.720759 212.121028 
L 173.720759 211.561846 
L 173.978623 211.561846 
L 173.978623 211.002664 
L 174.240693 211.002664 
L 174.240693 210.443482 
L 174.735845 210.443482 
L 174.735845 209.884299 
L 175.115005 209.884299 
L 175.115005 209.325117 
L 177.516033 209.325117 
L 177.516033 208.765935 
L 177.791349 208.765935 
L 177.791349 208.206753 
L 181.180963 208.206753 
L 181.180963 207.64757 
L 184.524886 207.64757 
L 184.524886 207.088388 
L 210.37302 207.088388 
L 210.37302 206.529206 
L 210.951256 206.529206 
L 210.951256 205.970024 
L 212.753512 205.970024 
L 212.753512 205.410841 
L 212.959524 205.410841 
L 212.959524 204.851659 
L 213.360901 204.851659 
L 213.360901 204.292477 
L 213.666081 204.292477 
L 213.666081 203.733295 
L 213.907021 203.733295 
L 213.909236 202.61493 
L 214.248668 202.61493 
L 214.358554 200.937384 
L 214.508521 200.937384 
L 214.605962 199.819019 
L 215.253435 199.819019 
L 215.266212 198.700655 
L 217.292815 198.700655 
L 217.292815 198.141472 
L 222.576359 198.141472 
L 222.576359 197.58229 
L 222.858718 197.58229 
L 222.858718 197.023108 
L 223.150441 197.023108 
L 223.150441 196.463926 
L 223.520264 196.463926 
L 223.520264 195.904743 
L 224.65302 195.904743 
L 224.65302 195.345561 
L 228.237557 195.345561 
L 228.328285 194.227197 
L 228.365123 194.227197 
L 228.418689 193.108832 
L 228.504603 193.108832 
L 228.581714 191.990468 
L 229.517382 191.990468 
L 229.517382 191.431285 
L 229.631211 191.431285 
L 229.631211 190.872103 
L 229.746408 190.872103 
L 229.746408 190.312921 
L 229.885374 190.312921 
L 229.885374 189.753739 
L 230.465036 189.753739 
L 230.465036 189.194556 
L 235.771508 189.194556 
L 235.861326 188.076192 
L 237.044285 188.076192 
L 237.0837 186.957828 
L 237.19448 186.957828 
L 237.19448 186.398645 
L 241.220545 186.398645 
L 241.309075 185.280281 
L 245.225291 185.280281 
L 245.225291 184.721099 
L 245.351008 184.721099 
L 245.351008 184.161916 
L 246.016879 184.161916 
L 246.091008 182.48437 
L 246.16205 182.48437 
L 246.16205 181.925187 
L 250.596702 181.925187 
L 250.596702 181.366005 
L 250.913499 181.366005 
L 250.913499 180.806823 
L 253.706022 180.806823 
L 253.706022 180.247641 
L 255.234235 180.247641 
L 255.324278 178.570094 
L 255.535521 178.570094 
L 255.591947 176.892547 
L 256.519376 176.892547 
L 256.591621 175.215 
L 256.758748 175.215 
L 256.758748 174.655818 
L 257.181345 174.655818 
L 257.204585 173.537454 
L 258.770564 173.537454 
L 258.837584 172.419089 
L 261.747845 172.419089 
L 261.78957 170.18236 
L 261.866215 170.18236 
L 261.967695 167.945631 
L 262.025219 167.945631 
L 262.025219 167.386449 
L 267.56179 167.386449 
L 267.621962 165.14972 
L 272.233215 165.14972 
L 272.233215 164.590538 
L 277.591352 164.590538 
L 277.622742 162.912991 
L 278.957047 162.912991 
L 279.049281 160.676262 
L 281.204988 160.676262 
L 281.246278 158.439533 
L 290.046898 158.439533 
L 290.046898 157.880351 
L 291.673348 157.880351 
L 291.676342 156.761987 
L 292.371016 156.761987 
L 292.376007 155.08444 
L 292.514437 155.08444 
L 292.529446 153.966075 
L 293.750884 153.966075 
L 293.750884 153.406893 
L 293.976856 153.406893 
L 293.976856 152.847711 
L 294.634574 152.847711 
L 294.645381 151.729346 
L 295.342842 151.729346 
L 295.355084 148.933435 
L 295.474481 148.933435 
L 295.479215 147.815071 
L 295.722184 147.815071 
L 295.722226 146.696706 
L 296.098897 146.696706 
L 296.131943 143.341613 
L 299.302564 143.341613 
L 299.302564 142.78243 
L 299.708534 142.78243 
L 299.727544 140.545702 
L 300.405595 140.545702 
L 300.411831 139.427337 
L 304.572511 139.427337 
L 304.580838 138.308973 
L 306.207104 138.308973 
L 306.214205 137.190608 
L 306.403805 137.190608 
L 306.403805 136.631426 
L 306.801105 136.631426 
L 306.822091 132.157968 
L 308.597965 132.157968 
L 308.597965 131.598786 
L 308.82821 131.598786 
L 308.834268 128.802874 
L 311.863482 128.802874 
L 311.863482 128.243692 
L 312.127176 128.243692 
L 312.127179 127.125328 
L 312.835506 127.125328 
L 312.835506 126.566145 
L 313.21401 126.566145 
L 313.21401 126.006963 
L 313.349346 126.006963 
L 313.363285 118.737594 
L 314.59662 118.737594 
L 314.59662 118.178412 
L 314.759383 118.178412 
L 314.76006 116.500865 
L 317.978053 116.500865 
L 318.087744 110.909043 
L 318.616009 110.909043 
L 318.616009 110.349861 
L 319.16062 110.349861 
L 319.16062 109.790678 
L 321.784418 109.790678 
L 321.793213 105.31722 
L 322.220722 105.31722 
L 322.220722 104.758038 
L 322.661928 104.758038 
L 322.663251 102.521309 
L 324.831214 102.521309 
L 324.838324 98.607033 
L 325.195354 98.607033 
L 325.195354 98.047851 
L 325.483485 98.047851 
L 325.568616 96.929487 
L 325.729592 96.929487 
L 325.729592 96.370304 
L 327.192116 96.370304 
L 327.192116 95.811122 
L 327.303385 95.811122 
L 327.303385 95.25194 
L 327.418601 95.25194 
L 327.421998 93.015211 
L 328.05442 93.015211 
L 328.057735 91.337664 
L 329.667238 91.337664 
L 329.670512 89.100935 
L 331.656501 89.100935 
L 331.656501 87.982571 
L 331.90093 87.982571 
L 331.90093 87.423389 
L 332.154001 87.423389 
L 332.154001 86.864206 
L 333.168 86.864206 
L 333.168 86.864206 
" style="fill:none;stroke:#000080;stroke-linecap:square;stroke-width:1.5;"/>
   </g>
   <g id="line2d_39">
    <defs>
     <path d="M 0 6 
C 1.591219 6 3.117479 5.367802 4.242641 4.242641 
C 5.367802 3.117479 6 1.591219 6 0 
C 6 -1.591219 5.367802 -3.117479 4.242641 -4.242641 
C 3.117479 -5.367802 1.591219 -6 0 -6 
C -1.591219 -6 -3.117479 -5.367802 -4.242641 -4.242641 
C -5.367802 -3.117479 -6 -1.591219 -6 0 
C -6 1.591219 -5.367802 3.117479 -4.242641 4.242641 
C -3.117479 5.367802 -1.591219 6 0 6 
z
" id="m5a985e9117" style="stroke:#000080;stroke-width:1.5;"/>
    </defs>
    <g>
     <use style="fill-opacity:0;stroke:#000080;stroke-width:1.5;" x="91.205783" xlink:href="#m5a985e9117" y="283.696355"/>
     <use style="fill-opacity:0;stroke:#000080;stroke-width:1.5;" x="154.971544" xlink:href="#m5a985e9117" y="236.165865"/>
     <use style="fill-opacity:0;stroke:#000080;stroke-width:1.5;" x="223.150441" xlink:href="#m5a985e9117" y="197.023108"/>
     <use style="fill-opacity:0;stroke:#000080;stroke-width:1.5;" x="300.411831" xlink:href="#m5a985e9117" y="139.986519"/>
     <use style="fill-opacity:0;stroke:#000080;stroke-width:1.5;" x="332.154001" xlink:href="#m5a985e9117" y="86.864206"/>
     <use style="fill-opacity:0;stroke:#000080;stroke-width:1.5;" x="333.168" xlink:href="#m5a985e9117" y="86.864206"/>
    </g>
   </g>
   <g id="line2d_40">
    <path style="fill:none;stroke:#000080;stroke-linecap:square;stroke-width:1.5;"/>
    <g/>
   </g>
   <g id="line2d_41">
    <path clip-path="url(#p2a0d94da87)" d="M 293.589765 153.966075 
" style="fill:none;stroke:#000080;stroke-linecap:square;stroke-width:1.5;"/>
    <defs>
     <path d="M -12 12 
L 12 -12 
M -12 -12 
L 12 12 
" id="m9a4b7af229" style="stroke:#000080;"/>
    </defs>
    <g clip-path="url(#p2a0d94da87)">
     <use style="fill:#000080;stroke:#000080;" x="293.589765" xlink:href="#m9a4b7af229" y="153.966075"/>
    </g>
   </g>
   <g id="line2d_42">
    <defs>
     <path d="M 0 1.5 
C 0.397805 1.5 0.77937 1.341951 1.06066 1.06066 
C 1.341951 0.77937 1.5 0.397805 1.5 0 
C 1.5 -0.397805 1.341951 -0.77937 1.06066 -1.06066 
C 0.77937 -1.341951 0.397805 -1.5 0 -1.5 
C -0.397805 -1.5 -0.77937 -1.341951 -1.06066 -1.06066 
C -1.341951 -0.77937 -1.5 -0.397805 -1.5 0 
C -1.5 0.397805 -1.341951 0.77937 -1.06066 1.06066 
C -0.77937 1.341951 -0.397805 1.5 0 1.5 
z
" id="mcd080a71ee" style="stroke:#ff00ff;"/>
    </defs>
    <g>
     <use style="fill:#ff00ff;stroke:#ff00ff;" x="357.02666" xlink:href="#mcd080a71ee" y="205.410841"/>
     <use style="fill:#ff00ff;stroke:#ff00ff;" x="357.02666" xlink:href="#mcd080a71ee" y="205.410841"/>
    </g>
   </g>
   <g id="line2d_43">
    <path d="M 4.627463 294.88 
L 4.627463 287.610631 
L 16.541714 287.610631 
L 16.541714 285.373902 
L 23.511104 285.373902 
L 23.511104 282.018808 
L 28.455965 282.018808 
L 28.455965 279.782079 
L 32.291498 279.782079 
L 32.291498 279.222897 
L 40.370217 279.222897 
L 40.370217 278.663715 
L 42.394746 278.663715 
L 42.394746 278.104533 
L 45.844 278.104533 
L 45.844 277.545351 
L 48.715431 277.545351 
L 48.715431 276.986168 
L 51.175139 276.986168 
L 51.175139 276.426986 
L 53.326522 276.426986 
L 53.326522 275.867804 
L 62.506669 275.867804 
L 62.506669 275.308622 
L 63.08939 275.308622 
L 63.08939 274.749439 
L 77.653281 274.749439 
L 77.653281 274.190257 
L 79.73229 274.190257 
L 79.73229 273.631075 
L 80.372935 273.631075 
L 80.372935 273.071893 
L 80.581284 273.071893 
L 80.581284 271.953528 
L 81.973032 271.953528 
L 81.973032 271.394346 
L 82.350819 271.394346 
L 82.350819 270.835164 
L 82.902373 270.835164 
L 82.902373 270.275981 
L 83.260482 270.275981 
L 83.260482 269.716799 
L 83.436778 269.716799 
L 83.436778 269.157617 
L 83.784035 269.157617 
L 83.784035 268.598435 
L 85.57784 268.598435 
L 85.57784 268.039252 
L 87.060538 268.039252 
L 87.060538 267.48007 
L 88.68587 267.48007 
L 88.68587 266.920888 
L 89.931969 266.920888 
L 89.931969 266.361706 
L 91.427575 266.361706 
L 91.427575 265.802523 
L 91.862754 265.802523 
L 91.862754 265.243341 
L 93.105847 265.243341 
L 93.105847 264.684159 
L 93.403064 264.684159 
L 93.403064 264.124977 
L 94.725919 264.124977 
L 94.725919 263.565795 
L 96.861245 263.565795 
L 96.861245 263.006612 
L 97.258229 263.006612 
L 97.258229 262.44743 
L 100.008485 262.44743 
L 100.008485 261.888248 
L 100.273952 261.888248 
L 100.273952 261.329066 
L 111.989488 261.329066 
L 111.989488 260.769883 
L 114.117341 260.769883 
L 114.117341 260.210701 
L 115.283601 260.210701 
L 115.283601 259.651519 
L 115.82502 259.651519 
L 115.82502 259.092337 
L 120.64954 259.092337 
L 120.709816 257.973972 
L 122.243822 257.973972 
L 122.243822 257.41479 
L 122.803291 257.41479 
L 122.803291 256.855608 
L 126.948537 256.855608 
L 126.948537 256.296425 
L 131.279136 256.296425 
L 131.279136 255.737243 
L 153.275535 255.737243 
L 153.275535 255.178061 
L 173.074385 255.178061 
L 173.074385 254.618879 
L 175.066686 254.618879 
L 175.066686 254.059696 
L 176.502482 254.059696 
L 176.502482 253.500514 
L 179.33344 253.500514 
L 179.33344 252.941332 
L 181.237377 252.941332 
L 181.237377 252.38215 
L 181.475821 252.38215 
L 181.475821 251.822967 
L 182.735848 251.822967 
L 182.735848 251.263785 
L 184.53076 251.263785 
L 184.53076 250.704603 
L 185.462472 250.704603 
L 185.462472 250.145421 
L 185.771713 250.145421 
L 185.771713 249.586238 
L 187.389875 249.586238 
L 187.389875 249.027056 
L 188.232241 249.027056 
L 188.232241 248.467874 
L 191.533729 248.467874 
L 191.533729 247.908692 
L 198.089225 247.908692 
L 198.089225 247.34951 
L 198.535115 247.34951 
L 198.535115 246.790327 
L 199.519335 246.790327 
L 199.519335 246.231145 
L 199.718132 246.231145 
L 199.718132 245.671963 
L 200.080855 245.671963 
L 200.080855 245.112781 
L 200.211683 245.112781 
L 200.211683 244.553598 
L 200.505403 244.553598 
L 200.505403 243.994416 
L 204.105813 243.994416 
L 204.105813 243.435234 
L 204.606102 243.435234 
L 204.673561 242.316869 
L 205.294088 242.316869 
L 205.399073 241.198505 
L 206.009131 241.198505 
L 206.009131 240.639323 
L 206.191531 240.639323 
L 206.191531 240.08014 
L 206.426602 240.08014 
L 206.448634 238.961776 
L 206.760601 238.961776 
L 206.843531 237.843411 
L 207.350797 237.843411 
L 207.350797 237.284229 
L 207.663522 237.284229 
L 207.663522 236.725047 
L 207.804006 236.725047 
L 207.804006 236.165865 
L 207.952376 236.165865 
L 207.952376 235.606682 
L 208.377119 235.606682 
L 208.377119 235.0475 
L 208.511185 235.0475 
L 208.511185 234.488318 
L 208.983031 234.488318 
L 208.989284 233.369954 
L 209.405347 233.369954 
L 209.405347 232.810771 
L 209.965958 232.810771 
L 209.965958 232.251589 
L 210.557062 232.251589 
L 210.605881 231.133225 
L 211.335069 231.133225 
L 211.427139 230.01486 
L 211.830508 230.01486 
L 211.830508 229.455678 
L 211.986586 229.455678 
L 212.085687 228.337313 
L 212.342277 228.337313 
L 212.342277 227.778131 
L 213.091232 227.778131 
L 213.102194 226.659767 
L 213.207917 226.659767 
L 213.207917 226.100584 
L 213.391427 226.100584 
L 213.458866 224.98222 
L 213.79304 224.98222 
L 213.79304 224.423038 
L 215.736251 224.423038 
L 215.736251 223.863855 
L 217.32771 223.863855 
L 217.32771 223.304673 
L 217.567574 223.304673 
L 217.662846 222.186309 
L 219.195744 222.186309 
L 219.195744 221.627126 
L 221.115157 221.627126 
L 221.115157 221.067944 
L 225.044698 221.067944 
L 225.044698 220.508762 
L 236.188193 220.508762 
L 236.188193 219.94958 
L 236.807866 219.94958 
L 236.807866 219.390397 
L 243.21571 219.390397 
L 243.21571 218.831215 
L 247.474107 218.831215 
L 247.474107 218.272033 
L 247.884738 218.272033 
L 247.884738 217.712851 
L 262.210038 217.712851 
L 262.210038 217.153669 
L 267.866054 217.153669 
L 267.866054 216.594486 
L 284.491234 216.594486 
L 284.491234 216.035304 
L 293.825697 216.035304 
L 293.857364 214.91694 
L 294.753096 214.91694 
L 294.753096 214.357757 
L 296.157523 214.357757 
L 296.157523 213.798575 
L 305.583434 213.798575 
L 305.583434 213.239393 
L 306.095555 213.239393 
L 306.095555 212.680211 
L 312.498569 212.680211 
L 312.563105 210.443482 
L 313.372649 210.443482 
L 313.372649 209.884299 
L 327.20839 209.884299 
L 327.20839 209.325117 
L 329.364255 209.325117 
L 329.364255 208.765935 
L 329.48237 208.765935 
L 329.48237 208.206753 
L 333.168 208.206753 
L 333.168 208.206753 
" style="fill:none;stroke:#ff00ff;stroke-linecap:square;stroke-width:1.5;"/>
   </g>
   <g id="line2d_44">
    <defs>
     <path d="M -0 8.485281 
L 5.091169 0 
L 0 -8.485281 
L -5.091169 -0 
z
" id="ma8b80f9b6c" style="stroke:#ff00ff;stroke-linejoin:miter;stroke-width:1.5;"/>
    </defs>
    <g>
     <use style="fill-opacity:0;stroke:#ff00ff;stroke-linejoin:miter;stroke-width:1.5;" x="122.803291" xlink:href="#ma8b80f9b6c" y="257.41479"/>
     <use style="fill-opacity:0;stroke:#ff00ff;stroke-linejoin:miter;stroke-width:1.5;" x="191.533729" xlink:href="#ma8b80f9b6c" y="247.908692"/>
     <use style="fill-opacity:0;stroke:#ff00ff;stroke-linejoin:miter;stroke-width:1.5;" x="247.884738" xlink:href="#ma8b80f9b6c" y="217.712851"/>
     <use style="fill-opacity:0;stroke:#ff00ff;stroke-linejoin:miter;stroke-width:1.5;" x="329.48237" xlink:href="#ma8b80f9b6c" y="208.206753"/>
     <use style="fill-opacity:0;stroke:#ff00ff;stroke-linejoin:miter;stroke-width:1.5;" x="333.168" xlink:href="#ma8b80f9b6c" y="208.206753"/>
    </g>
   </g>
   <g id="line2d_45">
    <path style="fill:none;stroke:#ff00ff;stroke-linecap:square;stroke-width:1.5;"/>
    <g/>
   </g>
   <g id="line2d_46">
    <path clip-path="url(#p2a0d94da87)" d="M 293.589806 216.035304 
" style="fill:none;stroke:#ff00ff;stroke-linecap:square;stroke-width:1.5;"/>
    <defs>
     <path d="M -12 12 
L 12 -12 
M -12 -12 
L 12 12 
" id="md877cc6266" style="stroke:#ff00ff;"/>
    </defs>
    <g clip-path="url(#p2a0d94da87)">
     <use style="fill:#ff00ff;stroke:#ff00ff;" x="293.589806" xlink:href="#md877cc6266" y="216.035304"/>
    </g>
   </g>
   <g id="line2d_47">
    <defs>
     <path d="M 0 1.5 
C 0.397805 1.5 0.77937 1.341951 1.06066 1.06066 
C 1.341951 0.77937 1.5 0.397805 1.5 0 
C 1.5 -0.397805 1.341951 -0.77937 1.06066 -1.06066 
C 0.77937 -1.341951 0.397805 -1.5 0 -1.5 
C -0.397805 -1.5 -0.77937 -1.341951 -1.06066 -1.06066 
C -1.341951 -0.77937 -1.5 -0.397805 -1.5 0 
C -1.5 0.397805 -1.341951 0.77937 -1.06066 1.06066 
C -0.77937 1.341951 -0.397805 1.5 0 1.5 
z
" id="m46151d8e3e" style="stroke:#ff7500;"/>
    </defs>
    <g>
     <use style="fill:#ff7500;stroke:#ff7500;" x="359.401143" xlink:href="#m46151d8e3e" y="211.002664"/>
     <use style="fill:#ff7500;stroke:#ff7500;" x="359.401143" xlink:href="#m46151d8e3e" y="211.002664"/>
    </g>
   </g>
   <g id="line2d_48">
    <path d="M 4.627463 294.88 
L 4.627463 289.288178 
L 16.541714 289.288178 
L 16.541714 288.169813 
L 28.455965 288.169813 
L 28.455965 286.492266 
L 32.291498 286.492266 
L 32.291498 285.373902 
L 40.370217 285.373902 
L 40.370217 284.81472 
L 44.205749 284.81472 
L 44.205749 283.696355 
L 49.989246 283.696355 
L 49.989246 283.137173 
L 53.326522 283.137173 
L 53.326522 282.577991 
L 61.278387 282.577991 
L 61.278387 282.018808 
L 66.694199 282.018808 
L 66.694199 281.459626 
L 74.42092 281.459626 
L 74.42092 280.900444 
L 77.653281 280.900444 
L 77.653281 280.341262 
L 81.39031 280.341262 
L 81.39031 279.782079 
L 86.036231 279.782079 
L 86.036231 279.222897 
L 95.784015 279.222897 
L 95.784015 278.663715 
L 102.084955 278.663715 
L 102.084955 278.104533 
L 103.175751 278.104533 
L 103.175751 277.545351 
L 133.010791 277.545351 
L 133.010791 276.986168 
L 139.898275 276.986168 
L 139.898275 276.426986 
L 144.618359 276.426986 
L 144.618359 275.867804 
L 145.124883 275.867804 
L 145.124883 275.308622 
L 148.501737 275.308622 
L 148.501737 274.749439 
L 148.891465 274.749439 
L 148.891465 274.190257 
L 149.690019 274.190257 
L 149.690019 273.631075 
L 151.091548 273.631075 
L 151.091548 273.071893 
L 156.487633 273.071893 
L 156.487633 272.51271 
L 158.570443 272.51271 
L 158.570443 271.953528 
L 160.108663 271.953528 
L 160.108663 271.394346 
L 161.383636 271.394346 
L 161.383636 270.835164 
L 162.645887 270.835164 
L 162.645887 270.275981 
L 162.93201 270.275981 
L 162.93201 269.716799 
L 167.921096 269.716799 
L 167.921096 269.157617 
L 168.693382 269.157617 
L 168.693382 268.598435 
L 168.851318 268.598435 
L 168.851318 268.039252 
L 169.651377 268.039252 
L 169.651377 267.48007 
L 169.986601 267.48007 
L 169.986601 266.920888 
L 172.265416 266.920888 
L 172.265416 266.361706 
L 174.364941 266.361706 
L 174.364941 265.802523 
L 175.036098 265.802523 
L 175.038649 264.684159 
L 180.174189 264.684159 
L 180.174189 264.124977 
L 181.054999 264.124977 
L 181.054999 263.565795 
L 182.645413 263.565795 
L 182.645413 263.006612 
L 185.970475 263.006612 
L 185.970475 262.44743 
L 186.757072 262.44743 
L 186.757072 261.888248 
L 187.159969 261.888248 
L 187.159969 261.329066 
L 189.877523 261.329066 
L 189.877523 260.769883 
L 192.101049 260.769883 
L 192.101049 260.210701 
L 193.027272 260.210701 
L 193.027272 259.651519 
L 194.299061 259.651519 
L 194.299061 259.092337 
L 195.797879 259.092337 
L 195.797879 258.533154 
L 196.714067 258.533154 
L 196.714067 257.973972 
L 197.526524 257.973972 
L 197.576093 256.855608 
L 197.738935 256.855608 
L 197.738935 256.296425 
L 198.354728 256.296425 
L 198.354728 255.737243 
L 199.432546 255.737243 
L 199.432546 255.178061 
L 200.776316 255.178061 
L 200.776316 254.618879 
L 202.200726 254.618879 
L 202.200726 254.059696 
L 204.491548 254.059696 
L 204.491548 253.500514 
L 204.980891 253.500514 
L 204.980891 252.941332 
L 205.130231 252.941332 
L 205.130231 252.38215 
L 205.362839 252.38215 
L 205.462482 251.263785 
L 205.61274 251.263785 
L 205.61274 250.704603 
L 205.741899 250.704603 
L 205.741899 250.145421 
L 205.941233 250.145421 
L 206.052149 248.467874 
L 206.426739 248.467874 
L 206.426739 247.908692 
L 207.885082 247.908692 
L 207.885082 247.34951 
L 208.317729 247.34951 
L 208.317729 246.790327 
L 208.900344 246.790327 
L 208.900344 246.231145 
L 210.631525 246.231145 
L 210.631525 245.671963 
L 212.763933 245.671963 
L 212.763933 245.112781 
L 213.778762 245.112781 
L 213.778762 244.553598 
L 237.907678 244.553598 
L 237.907678 243.994416 
L 239.337861 243.994416 
L 239.38633 242.876052 
L 290.398954 242.876052 
L 290.398954 242.316869 
L 293.693103 242.316869 
L 293.709802 241.198505 
L 294.250459 241.198505 
L 294.305258 240.08014 
L 305.553991 240.08014 
L 305.564159 235.606682 
L 305.867134 235.606682 
L 305.867138 234.488318 
L 312.502996 234.488318 
L 312.507447 232.810771 
L 312.646678 232.810771 
L 312.715718 231.133225 
L 317.444645 231.133225 
L 317.448427 229.455678 
L 317.600287 229.455678 
L 317.60084 228.337313 
L 321.274073 228.337313 
L 321.274549 227.218949 
L 324.404809 227.218949 
L 324.40566 224.98222 
L 327.051979 224.98222 
L 327.052124 223.863855 
L 329.345706 223.863855 
L 329.345706 223.304673 
L 331.369059 223.304673 
L 331.438067 222.186309 
L 333.168 222.186309 
L 333.168 222.186309 
" style="fill:none;stroke:#ff7500;stroke-linecap:square;stroke-width:1.5;"/>
   </g>
   <g id="line2d_49">
    <defs>
     <path d="M 0 -6 
L -1.347084 -1.854102 
L -5.706339 -1.854102 
L -2.179628 0.708204 
L -3.526712 4.854102 
L -0 2.291796 
L 3.526712 4.854102 
L 2.179628 0.708204 
L 5.706339 -1.854102 
L 1.347084 -1.854102 
z
" id="m78fe674a6b" style="stroke:#ff7500;stroke-linejoin:bevel;stroke-width:1.5;"/>
    </defs>
    <g>
     <use style="fill-opacity:0;stroke:#ff7500;stroke-linejoin:bevel;stroke-width:1.5;" x="81.39031" xlink:href="#m78fe674a6b" y="280.341262"/>
     <use style="fill-opacity:0;stroke:#ff7500;stroke-linejoin:bevel;stroke-width:1.5;" x="175.038649" xlink:href="#m78fe674a6b" y="264.684159"/>
     <use style="fill-opacity:0;stroke:#ff7500;stroke-linejoin:bevel;stroke-width:1.5;" x="213.778762" xlink:href="#m78fe674a6b" y="244.553598"/>
     <use style="fill-opacity:0;stroke:#ff7500;stroke-linejoin:bevel;stroke-width:1.5;" x="324.40566" xlink:href="#m78fe674a6b" y="224.98222"/>
     <use style="fill-opacity:0;stroke:#ff7500;stroke-linejoin:bevel;stroke-width:1.5;" x="331.438067" xlink:href="#m78fe674a6b" y="222.186309"/>
     <use style="fill-opacity:0;stroke:#ff7500;stroke-linejoin:bevel;stroke-width:1.5;" x="333.168" xlink:href="#m78fe674a6b" y="222.186309"/>
    </g>
   </g>
   <g id="line2d_50">
    <path style="fill:none;stroke:#ff7500;stroke-linecap:square;stroke-width:1.5;"/>
    <g/>
   </g>
   <g id="line2d_51">
    <path clip-path="url(#p2a0d94da87)" d="M 293.589784 242.316869 
" style="fill:none;stroke:#ff7500;stroke-linecap:square;stroke-width:1.5;"/>
    <defs>
     <path d="M -12 12 
L 12 -12 
M -12 -12 
L 12 12 
" id="m4b14187301" style="stroke:#ff7500;"/>
    </defs>
    <g clip-path="url(#p2a0d94da87)">
     <use style="fill:#ff7500;stroke:#ff7500;" x="293.589784" xlink:href="#m4b14187301" y="242.316869"/>
    </g>
   </g>
   <g id="line2d_52">
    <defs>
     <path d="M 0 1.5 
C 0.397805 1.5 0.77937 1.341951 1.06066 1.06066 
C 1.341951 0.77937 1.5 0.397805 1.5 0 
C 1.5 -0.397805 1.341951 -0.77937 1.06066 -1.06066 
C 0.77937 -1.341951 0.397805 -1.5 0 -1.5 
C -0.397805 -1.5 -0.77937 -1.341951 -1.06066 -1.06066 
C -1.341951 -0.77937 -1.5 -0.397805 -1.5 0 
C -1.5 0.397805 -1.341951 0.77937 -1.06066 1.06066 
C -0.77937 1.341951 -0.397805 1.5 0 1.5 
z
" id="mbdb2cbd98c" style="stroke:#6495ed;"/>
    </defs>
    <g>
     <use style="fill:#6495ed;stroke:#6495ed;" x="305.920105" xlink:href="#mbdb2cbd98c" y="9.697057"/>
     <use style="fill:#6495ed;stroke:#6495ed;" x="305.920105" xlink:href="#mbdb2cbd98c" y="9.697057"/>
    </g>
   </g>
   <g id="line2d_53">
    <path d="M 4.627463 294.88 
L 4.627463 281.459626 
L 16.541714 281.459626 
L 16.541714 278.104533 
L 23.511104 278.104533 
L 23.511104 276.426986 
L 28.455965 276.426986 
L 28.455965 275.867804 
L 32.291498 275.867804 
L 32.291498 275.308622 
L 35.425356 275.308622 
L 35.425356 274.749439 
L 38.074995 274.749439 
L 38.074995 274.190257 
L 42.394746 274.190257 
L 42.394746 273.631075 
L 44.205749 273.631075 
L 44.205749 273.071893 
L 54.308997 273.071893 
L 54.308997 272.51271 
L 56.12 272.51271 
L 56.12 271.953528 
L 59.955532 271.953528 
L 59.955532 271.394346 
L 70.05878 271.394346 
L 70.05878 270.835164 
L 71.522526 270.835164 
L 71.522526 270.275981 
L 75.287757 270.275981 
L 75.287757 269.716799 
L 78.374588 269.716799 
L 78.374588 269.157617 
L 83.611283 269.157617 
L 83.611283 268.598435 
L 85.106889 268.598435 
L 85.106889 268.039252 
L 87.481505 268.039252 
L 87.481505 267.48007 
L 88.293717 267.48007 
L 88.293717 266.920888 
L 90.170703 266.920888 
L 90.170703 266.361706 
L 93.105847 266.361706 
L 93.105847 265.802523 
L 95.351029 265.802523 
L 95.438503 264.684159 
L 100.664619 264.684159 
L 100.664619 264.124977 
L 101.109451 264.124977 
L 101.109451 263.565795 
L 101.296625 263.565795 
L 101.358566 262.44743 
L 101.664967 262.44743 
L 101.664967 261.888248 
L 110.602556 261.888248 
L 110.602556 261.329066 
L 112.022767 261.329066 
L 112.022767 260.769883 
L 112.770924 260.769883 
L 112.770924 260.210701 
L 113.969545 260.210701 
L 113.969545 259.651519 
L 114.553255 259.651519 
L 114.553255 259.092337 
L 115.283601 259.092337 
L 115.283601 258.533154 
L 115.420563 258.533154 
L 115.420563 257.973972 
L 115.664378 257.973972 
L 115.664378 257.41479 
L 115.82502 257.41479 
L 115.82502 256.855608 
L 118.186736 256.855608 
L 118.186736 256.296425 
L 118.712843 256.296425 
L 118.712843 255.737243 
L 119.310576 255.737243 
L 119.310576 255.178061 
L 119.803858 255.178061 
L 119.803858 254.618879 
L 122.003676 254.618879 
L 122.059393 253.500514 
L 122.856479 253.500514 
L 122.909503 252.38215 
L 123.719544 252.38215 
L 123.719544 251.822967 
L 125.356265 251.822967 
L 125.356265 251.263785 
L 126.948537 251.263785 
L 126.948537 250.704603 
L 127.470694 250.704603 
L 127.470694 249.586238 
L 128.571561 249.586238 
L 128.571561 249.027056 
L 129.52227 249.027056 
L 129.606147 247.908692 
L 129.665809 247.908692 
L 129.665809 247.34951 
L 131.311639 247.34951 
L 131.387241 246.231145 
L 131.537454 246.231145 
L 131.537454 245.671963 
L 132.187346 245.671963 
L 132.187346 245.112781 
L 134.376807 245.112781 
L 134.376807 244.553598 
L 134.717542 244.553598 
L 134.806098 243.435234 
L 135.726139 243.435234 
L 135.726139 242.876052 
L 138.136099 242.876052 
L 138.136099 242.316869 
L 138.994822 242.316869 
L 138.994822 241.757687 
L 139.95074 241.757687 
L 139.95074 241.198505 
L 140.422222 241.198505 
L 140.479464 240.08014 
L 140.555492 240.08014 
L 140.555492 239.520958 
L 140.794052 239.520958 
L 140.794052 238.961776 
L 141.376358 238.961776 
L 141.376358 238.402594 
L 141.568144 238.402594 
L 141.603867 237.284229 
L 142.07321 237.284229 
L 142.07321 236.725047 
L 142.620012 236.725047 
L 142.726201 235.606682 
L 143.296103 235.606682 
L 143.339169 234.488318 
L 144.008769 234.488318 
L 144.008769 233.929136 
L 144.147824 233.929136 
L 144.147824 233.369954 
L 144.880861 233.369954 
L 144.880861 232.810771 
L 146.466753 232.810771 
L 146.466753 232.251589 
L 146.804057 232.251589 
L 146.804057 231.692407 
L 147.225166 231.692407 
L 147.225166 231.133225 
L 147.581683 231.133225 
L 147.581683 230.574042 
L 147.869104 230.574042 
L 147.877364 229.455678 
L 148.013081 229.455678 
L 148.013081 228.896496 
L 148.473843 228.896496 
L 148.581185 227.778131 
L 149.302981 227.778131 
L 149.321972 226.659767 
L 150.22412 226.659767 
L 150.22412 226.100584 
L 150.808402 226.100584 
L 150.808402 225.541402 
L 151.081271 225.541402 
L 151.142842 224.423038 
L 151.346501 224.423038 
L 151.454141 223.304673 
L 152.295012 223.304673 
L 152.295012 222.745491 
L 152.630195 222.745491 
L 152.683347 221.627126 
L 153.906246 221.627126 
L 153.906246 221.067944 
L 154.604198 221.067944 
L 154.604198 220.508762 
L 155.194176 220.508762 
L 155.223824 218.831215 
L 155.371297 218.831215 
L 155.371297 218.272033 
L 155.48572 218.272033 
L 155.48572 217.712851 
L 155.933359 217.712851 
L 155.933359 217.153669 
L 156.33433 217.153669 
L 156.384744 216.035304 
L 156.530114 216.035304 
L 156.530114 215.476122 
L 156.824579 215.476122 
L 156.824579 214.91694 
L 157.053666 214.91694 
L 157.053666 214.357757 
L 157.265399 214.357757 
L 157.265399 213.798575 
L 158.150886 213.798575 
L 158.2121 212.680211 
L 158.279861 212.680211 
L 158.322638 211.561846 
L 158.59038 211.561846 
L 158.59038 211.002664 
L 158.854014 211.002664 
L 158.854014 210.443482 
L 159.040495 210.443482 
L 159.05774 209.325117 
L 159.322843 209.325117 
L 159.390599 208.206753 
L 159.602716 208.206753 
L 159.602716 207.64757 
L 160.163298 207.64757 
L 160.163298 207.088388 
L 160.79014 207.088388 
L 160.852361 205.410841 
L 161.024239 205.410841 
L 161.024239 204.851659 
L 161.15632 204.851659 
L 161.15632 204.292477 
L 161.454997 204.292477 
L 161.520464 203.174112 
L 162.006394 203.174112 
L 162.006394 202.61493 
L 162.385128 202.61493 
L 162.385128 202.055748 
L 162.572289 202.055748 
L 162.572289 201.496566 
L 163.198214 201.496566 
L 163.257378 200.378201 
L 163.50699 200.378201 
L 163.556812 198.700655 
L 164.019828 198.700655 
L 164.019828 198.141472 
L 164.46598 198.141472 
L 164.574169 197.023108 
L 165.479884 197.023108 
L 165.479884 196.463926 
L 165.765167 196.463926 
L 165.868403 195.345561 
L 165.894477 195.345561 
L 165.894477 194.786379 
L 166.300718 194.786379 
L 166.300718 194.227197 
L 167.138075 194.227197 
L 167.138075 193.668014 
L 167.745239 193.668014 
L 167.839857 192.54965 
L 167.963498 192.54965 
L 167.963498 191.990468 
L 168.134607 191.990468 
L 168.156193 190.872103 
L 169.100556 190.872103 
L 169.100556 190.312921 
L 169.278604 190.312921 
L 169.278604 189.753739 
L 169.433633 189.753739 
L 169.504175 188.635374 
L 169.588444 188.635374 
L 169.588444 188.076192 
L 169.736087 188.076192 
L 169.768468 186.957828 
L 169.903119 186.957828 
L 169.988883 185.839463 
L 170.408056 185.839463 
L 170.440308 184.721099 
L 170.931007 184.721099 
L 170.931007 184.161916 
L 171.094361 184.161916 
L 171.094361 183.602734 
L 172.379937 183.602734 
L 172.456193 182.48437 
L 172.661483 182.48437 
L 172.661483 181.925187 
L 173.029524 181.925187 
L 173.029524 181.366005 
L 173.805926 181.366005 
L 173.8834 180.247641 
L 174.877188 180.247641 
L 174.877188 179.688458 
L 175.149678 179.688458 
L 175.17669 178.010912 
L 175.740085 178.010912 
L 175.740085 177.451729 
L 176.055526 177.451729 
L 176.055526 176.892547 
L 176.761335 176.892547 
L 176.819696 175.774183 
L 177.347364 175.774183 
L 177.347364 175.215 
L 177.458517 175.215 
L 177.554271 174.096636 
L 177.612933 174.096636 
L 177.612933 173.537454 
L 178.043774 173.537454 
L 178.043774 172.978271 
L 178.170381 172.978271 
L 178.170381 172.419089 
L 178.739136 172.419089 
L 178.739136 171.859907 
L 179.957131 171.859907 
L 179.957131 171.300725 
L 180.427736 171.300725 
L 180.427736 170.741543 
L 180.635285 170.741543 
L 180.635285 170.18236 
L 181.389069 170.18236 
L 181.389069 169.623178 
L 182.912615 169.623178 
L 182.931427 168.504814 
L 183.063609 168.504814 
L 183.063609 167.945631 
L 192.669458 167.945631 
L 192.669458 167.386449 
L 197.961082 167.386449 
L 197.961082 166.827267 
L 198.370708 166.827267 
L 198.370708 166.268085 
L 198.59828 166.268085 
L 198.59828 165.708902 
L 198.977124 165.708902 
L 198.977124 165.14972 
L 200.20952 165.14972 
L 200.315946 164.031356 
L 200.405785 164.031356 
L 200.405785 163.472173 
L 201.26614 163.472173 
L 201.26614 162.912991 
L 201.724579 162.912991 
L 201.724579 162.353809 
L 202.115241 162.353809 
L 202.115241 161.794627 
L 203.036643 161.794627 
L 203.036643 161.235444 
L 203.337053 161.235444 
L 203.337053 160.676262 
L 211.272174 160.676262 
L 211.272174 160.11708 
L 211.4086 160.11708 
L 211.4086 159.557898 
L 211.529406 159.557898 
L 211.606266 158.439533 
L 211.695185 158.439533 
L 211.738267 157.321169 
L 211.840504 157.321169 
L 211.840504 156.761987 
L 212.012825 156.761987 
L 212.025583 155.643622 
L 212.130455 155.643622 
L 212.130455 155.08444 
L 212.285696 155.08444 
L 212.285696 154.525258 
L 212.411342 154.525258 
L 212.510337 153.406893 
L 212.68191 153.406893 
L 212.68191 152.847711 
L 212.800451 152.847711 
L 212.849901 151.729346 
L 212.933567 151.729346 
L 212.933567 151.170164 
L 213.147358 151.170164 
L 213.223323 149.492617 
L 213.293627 149.492617 
L 213.293627 148.933435 
L 213.508093 148.933435 
L 213.583025 147.255888 
L 213.697685 147.255888 
L 213.801334 146.137524 
L 213.915969 146.137524 
L 213.950741 145.019159 
L 214.039871 145.019159 
L 214.039871 144.459977 
L 214.204742 144.459977 
L 214.204742 143.900795 
L 214.46517 143.900795 
L 214.46517 143.341613 
L 214.598048 143.341613 
L 214.598048 142.78243 
L 214.723485 142.78243 
L 214.822323 141.104884 
L 215.025951 141.104884 
L 215.025951 140.545702 
L 215.138502 140.545702 
L 215.179203 139.427337 
L 215.262282 139.427337 
L 215.329713 137.74979 
L 215.407685 137.74979 
L 215.407685 137.190608 
L 215.625876 137.190608 
L 215.66336 136.072244 
L 215.782238 136.072244 
L 215.782238 135.513061 
L 215.918204 135.513061 
L 215.918204 134.953879 
L 216.050834 134.953879 
L 216.050834 134.394697 
L 216.273651 134.394697 
L 216.273651 133.835515 
L 216.728934 133.835515 
L 216.728934 133.276332 
L 216.88039 133.276332 
L 216.88039 132.71715 
L 217.259527 132.71715 
L 217.370577 131.039603 
L 217.486743 131.039603 
L 217.503501 129.921239 
L 218.002539 129.921239 
L 218.002539 129.362057 
L 219.279835 129.362057 
L 219.279835 128.802874 
L 219.510105 128.802874 
L 219.600631 127.68451 
L 219.773652 127.68451 
L 219.865374 126.006963 
L 220.023848 126.006963 
L 220.100409 124.329417 
L 220.239216 124.329417 
L 220.245713 123.211052 
L 220.406626 123.211052 
L 220.406626 122.65187 
L 220.700739 122.65187 
L 220.700739 122.092688 
L 220.830418 122.092688 
L 220.934886 120.974323 
L 220.982157 120.974323 
L 220.982157 120.415141 
L 221.172623 120.415141 
L 221.172623 119.855959 
L 221.351234 119.855959 
L 221.351234 119.296776 
L 221.473034 119.296776 
L 221.473034 118.737594 
L 221.726728 118.737594 
L 221.726728 118.178412 
L 222.304296 118.178412 
L 222.304296 117.61923 
L 222.499073 117.61923 
L 222.573576 116.500865 
L 222.702508 116.500865 
L 222.702773 115.382501 
L 222.880182 115.382501 
L 222.925233 114.264136 
L 223.079286 114.264136 
L 223.079286 113.704954 
L 223.361595 113.704954 
L 223.361595 113.145772 
L 223.817749 113.145772 
L 223.817749 112.586589 
L 226.289543 112.586589 
L 226.289543 112.027407 
L 226.477576 112.027407 
L 226.477576 111.468225 
L 226.861685 111.468225 
L 226.861685 110.909043 
L 227.027659 110.909043 
L 227.070767 109.790678 
L 227.186235 109.790678 
L 227.186235 109.231496 
L 227.485557 109.231496 
L 227.485557 108.672314 
L 228.418384 108.672314 
L 228.418384 108.113132 
L 229.350733 108.113132 
L 229.41786 106.994767 
L 229.475414 106.994767 
L 229.475414 106.435585 
L 229.738896 106.435585 
L 229.813099 105.31722 
L 230.477544 105.31722 
L 230.557481 104.198856 
L 230.594441 104.198856 
L 230.697409 102.521309 
L 230.723945 102.521309 
L 230.723945 101.962127 
L 231.011606 101.962127 
L 231.078567 100.843762 
L 231.176477 100.843762 
L 231.269831 99.166216 
L 231.289408 99.166216 
L 231.379523 97.488669 
L 231.883257 97.488669 
L 231.978993 95.811122 
L 232.093804 95.811122 
L 232.179228 94.133576 
L 232.217231 94.133576 
L 232.217231 93.574393 
L 233.144727 93.574393 
L 233.229128 91.896847 
L 233.259853 91.896847 
L 233.35147 90.2193 
L 233.439615 90.2193 
L 233.534667 88.541753 
L 233.561236 88.541753 
L 233.658372 85.18666 
L 233.717024 85.18666 
L 233.791423 83.509113 
L 233.83851 83.509113 
L 233.931553 80.15402 
L 234.011857 80.15402 
L 234.110945 79.035655 
L 234.250486 79.035655 
L 234.308561 77.917291 
L 234.401333 77.917291 
L 234.495881 76.798926 
L 234.515449 76.798926 
L 234.515449 76.239744 
L 234.681922 76.239744 
L 234.780495 75.121379 
L 234.89592 75.121379 
L 234.922372 74.003015 
L 235.053018 74.003015 
L 235.053018 73.443833 
L 235.203611 73.443833 
L 235.285736 71.766286 
L 235.35572 71.766286 
L 235.458433 70.088739 
L 235.48964 70.088739 
L 235.591532 68.411192 
L 235.736828 68.411192 
L 235.736828 67.85201 
L 238.550804 67.85201 
L 238.631007 66.733646 
L 238.693496 66.733646 
L 238.776811 64.496917 
L 238.807623 64.496917 
L 238.864912 63.378552 
L 238.930651 63.378552 
L 239.007211 61.141823 
L 239.043752 61.141823 
L 239.134032 59.464277 
L 239.232086 59.464277 
L 239.232086 58.905094 
L 239.824492 58.905094 
L 239.824492 58.345912 
L 240.850674 58.345912 
L 240.850674 57.78673 
L 240.996482 57.78673 
L 241.081174 56.109183 
L 241.12019 56.109183 
L 241.188536 54.990819 
L 241.24258 54.990819 
L 241.24258 54.431636 
L 241.708689 54.431636 
L 241.815428 52.194907 
L 242.326043 52.194907 
L 242.371558 51.076543 
L 242.458929 51.076543 
L 242.545004 49.398996 
L 242.598476 49.398996 
L 242.703597 47.72145 
L 242.761838 47.72145 
L 242.805011 46.603085 
L 243.697306 46.603085 
L 243.759195 44.366356 
L 243.827578 44.366356 
L 243.827578 43.807174 
L 243.968467 43.807174 
L 244.021261 42.688809 
L 244.10116 42.688809 
L 244.10116 42.129627 
L 244.545841 42.129627 
L 244.569555 41.011263 
L 244.99449 41.011263 
L 245.071517 38.774534 
L 245.656725 38.774534 
L 245.723194 37.096987 
L 252.394031 37.096987 
L 252.448511 35.41944 
L 252.546487 35.41944 
L 252.546487 34.860258 
L 252.680656 34.860258 
L 252.680656 34.301076 
L 257.193233 34.301076 
L 257.293755 27.590889 
L 275.504519 27.590889 
L 275.559375 22.558249 
L 276.136478 22.558249 
L 276.180421 18.084791 
L 293.687363 18.084791 
L 293.785129 15.848062 
L 293.865655 15.848062 
L 293.865655 15.28888 
L 294.097952 15.28888 
L 294.178374 12.492968 
L 294.441594 12.492968 
L 294.519109 11.374604 
L 298.911557 11.374604 
L 298.914654 10.256239 
L 305.920105 10.256239 
L 305.920105 9.697057 
L 333.168 9.697057 
L 333.168 9.697057 
" style="fill:none;stroke:#6495ed;stroke-linecap:square;stroke-width:1.5;"/>
   </g>
   <g id="line2d_54">
    <defs>
     <path d="M -0 6 
L 6 -6 
L -6 -6 
z
" id="mc9b743c117" style="stroke:#6495ed;stroke-linejoin:miter;stroke-width:1.5;"/>
    </defs>
    <g>
     <use style="fill-opacity:0;stroke:#6495ed;stroke-linejoin:miter;stroke-width:1.5;" x="59.955532" xlink:href="#mc9b743c117" y="271.953528"/>
     <use style="fill-opacity:0;stroke:#6495ed;stroke-linejoin:miter;stroke-width:1.5;" x="156.530114" xlink:href="#mc9b743c117" y="215.476122"/>
     <use style="fill-opacity:0;stroke:#6495ed;stroke-linejoin:miter;stroke-width:1.5;" x="214.46517" xlink:href="#mc9b743c117" y="143.900795"/>
     <use style="fill-opacity:0;stroke:#6495ed;stroke-linejoin:miter;stroke-width:1.5;" x="252.546487" xlink:href="#mc9b743c117" y="35.41944"/>
     <use style="fill-opacity:0;stroke:#6495ed;stroke-linejoin:miter;stroke-width:1.5;" x="305.920105" xlink:href="#mc9b743c117" y="9.697057"/>
     <use style="fill-opacity:0;stroke:#6495ed;stroke-linejoin:miter;stroke-width:1.5;" x="333.168" xlink:href="#mc9b743c117" y="9.697057"/>
    </g>
   </g>
   <g id="line2d_55">
    <path style="fill:none;stroke:#6495ed;stroke-linecap:square;stroke-width:1.5;"/>
    <g/>
   </g>
   <g id="line2d_56">
    <path clip-path="url(#p2a0d94da87)" d="M 293.589796 18.084791 
" style="fill:none;stroke:#6495ed;stroke-linecap:square;stroke-width:1.5;"/>
    <defs>
     <path d="M -12 12 
L 12 -12 
M -12 -12 
L 12 12 
" id="mb9ce94264e" style="stroke:#6495ed;"/>
    </defs>
    <g clip-path="url(#p2a0d94da87)">
     <use style="fill:#6495ed;stroke:#6495ed;" x="293.589796" xlink:href="#mb9ce94264e" y="18.084791"/>
    </g>
   </g>
   <g id="line2d_57">
    <defs>
     <path d="M 0 1.5 
C 0.397805 1.5 0.77937 1.341951 1.06066 1.06066 
C 1.341951 0.77937 1.5 0.397805 1.5 0 
C 1.5 -0.397805 1.341951 -0.77937 1.06066 -1.06066 
C 0.77937 -1.341951 0.397805 -1.5 0 -1.5 
C -0.397805 -1.5 -0.77937 -1.341951 -1.06066 -1.06066 
C -1.341951 -0.77937 -1.5 -0.397805 -1.5 0 
C -1.5 0.397805 -1.341951 0.77937 -1.06066 1.06066 
C -0.77937 1.341951 -0.397805 1.5 0 1.5 
z
" id="m7352e32b64" style="stroke:#ff0000;"/>
    </defs>
    <g>
     <use style="fill:#ff0000;stroke:#ff0000;" x="358.305095" xlink:href="#m7352e32b64" y="233.369954"/>
     <use style="fill:#ff0000;stroke:#ff0000;" x="358.305095" xlink:href="#m7352e32b64" y="233.369954"/>
    </g>
   </g>
   <g id="line2d_58">
    <path d="M 157.215108 294.88 
L 157.296458 293.761636 
L 158.225674 293.761636 
L 158.225674 293.202453 
L 158.797235 293.202453 
L 158.797235 292.643271 
L 159.474919 292.643271 
L 159.474919 292.084089 
L 160.31015 292.084089 
L 160.31015 291.524907 
L 160.489491 291.524907 
L 160.489491 290.965724 
L 163.718566 290.965724 
L 163.718566 290.406542 
L 164.338101 290.406542 
L 164.338101 289.84736 
L 166.560274 289.84736 
L 166.560274 289.288178 
L 167.964781 289.288178 
L 167.964781 288.728995 
L 170.090103 288.728995 
L 170.111635 287.610631 
L 173.463628 287.610631 
L 173.485048 286.492266 
L 175.298563 286.492266 
L 175.298563 285.933084 
L 178.109328 285.933084 
L 178.11075 284.81472 
L 178.694514 284.81472 
L 178.694514 284.255537 
L 180.262258 284.255537 
L 180.262258 283.696355 
L 182.059829 283.696355 
L 182.059829 283.137173 
L 182.874927 283.137173 
L 182.874927 282.577991 
L 183.263421 282.577991 
L 183.263421 282.018808 
L 183.660842 282.018808 
L 183.660842 281.459626 
L 185.180118 281.459626 
L 185.180118 280.900444 
L 185.523566 280.900444 
L 185.523566 280.341262 
L 186.107226 280.341262 
L 186.107226 279.782079 
L 187.423828 279.782079 
L 187.423828 279.222897 
L 189.424762 279.222897 
L 189.424762 278.663715 
L 190.259839 278.663715 
L 190.259839 278.104533 
L 192.01069 278.104533 
L 192.014808 276.986168 
L 192.182783 276.986168 
L 192.182783 276.426986 
L 192.871607 276.426986 
L 192.871607 275.867804 
L 194.07326 275.867804 
L 194.07326 275.308622 
L 195.776773 275.308622 
L 195.776773 274.749439 
L 196.929795 274.749439 
L 196.929795 274.190257 
L 197.237528 274.190257 
L 197.237528 273.631075 
L 198.415941 273.631075 
L 198.415941 273.071893 
L 198.955566 273.071893 
L 198.955566 272.51271 
L 200.949309 272.51271 
L 200.949309 271.953528 
L 201.250788 271.953528 
L 201.250788 271.394346 
L 201.528508 271.394346 
L 201.573787 270.275981 
L 202.305812 270.275981 
L 202.305812 269.716799 
L 203.330988 269.716799 
L 203.330988 269.157617 
L 205.144696 269.157617 
L 205.144696 268.598435 
L 206.519056 268.598435 
L 206.519056 268.039252 
L 206.881713 268.039252 
L 206.881713 267.48007 
L 210.582349 267.48007 
L 210.582349 266.920888 
L 213.296474 266.920888 
L 213.296474 266.361706 
L 216.893802 266.361706 
L 216.893802 265.802523 
L 218.425611 265.802523 
L 218.425611 265.243341 
L 218.560116 265.243341 
L 218.560116 264.684159 
L 218.704306 264.684159 
L 218.704306 264.124977 
L 220.030738 264.124977 
L 220.030738 263.565795 
L 224.471573 263.565795 
L 224.471573 263.006612 
L 230.370629 263.006612 
L 230.370629 262.44743 
L 232.26298 262.44743 
L 232.26298 261.888248 
L 236.496298 261.888248 
L 236.496298 261.329066 
L 236.656103 261.329066 
L 236.656103 260.769883 
L 241.605757 260.769883 
L 241.605757 260.210701 
L 244.75722 260.210701 
L 244.75722 259.651519 
L 246.901459 259.651519 
L 246.988205 257.973972 
L 249.033809 257.973972 
L 249.033809 257.41479 
L 251.669508 257.41479 
L 251.669508 256.855608 
L 255.298078 256.855608 
L 255.298078 256.296425 
L 259.020584 256.296425 
L 259.020584 255.737243 
L 259.356876 255.737243 
L 259.356876 255.178061 
L 260.766452 255.178061 
L 260.774891 254.059696 
L 262.503042 254.059696 
L 262.518326 252.941332 
L 262.739572 252.941332 
L 262.739572 252.38215 
L 265.793071 252.38215 
L 265.793071 251.822967 
L 273.500787 251.822967 
L 273.500787 251.263785 
L 274.439987 251.263785 
L 274.439987 250.704603 
L 284.469943 250.704603 
L 284.469943 250.145421 
L 285.189848 250.145421 
L 285.189848 249.586238 
L 288.349906 249.586238 
L 288.349906 249.027056 
L 289.117481 249.027056 
L 289.117481 248.467874 
L 290.150607 248.467874 
L 290.150607 247.908692 
L 293.537417 247.908692 
L 293.537417 247.34951 
L 296.200669 247.34951 
L 296.203495 246.231145 
L 298.468455 246.231145 
L 298.468545 244.553598 
L 306.860565 244.553598 
L 306.860565 243.994416 
L 311.401726 243.994416 
L 311.401726 243.435234 
L 313.389573 243.435234 
L 313.389573 242.876052 
L 318.109838 242.876052 
L 318.109838 242.316869 
L 320.447684 242.316869 
L 320.447684 241.757687 
L 326.58616 241.757687 
L 326.58616 241.198505 
L 327.435461 241.198505 
L 327.435933 240.08014 
L 329.681458 240.08014 
L 329.681458 239.520958 
L 331.667538 239.520958 
L 331.667538 238.961776 
L 333.168 238.961776 
L 333.168 238.961776 
" style="fill:none;stroke:#ff0000;stroke-linecap:square;stroke-width:1.5;"/>
   </g>
   <g id="line2d_59">
    <defs>
     <path d="M 0 -6 
L -5.196152 -3 
L -5.196152 3 
L -0 6 
L 5.196152 3 
L 5.196152 -3 
z
" id="m3ddc940b46" style="stroke:#ff0000;stroke-linejoin:miter;stroke-width:1.5;"/>
    </defs>
    <g>
     <use style="fill-opacity:0;stroke:#ff0000;stroke-linejoin:miter;stroke-width:1.5;" x="241.605757" xlink:href="#m3ddc940b46" y="260.769883"/>
     <use style="fill-opacity:0;stroke:#ff0000;stroke-linejoin:miter;stroke-width:1.5;" x="313.389573" xlink:href="#m3ddc940b46" y="242.876052"/>
     <use style="fill-opacity:0;stroke:#ff0000;stroke-linejoin:miter;stroke-width:1.5;" x="331.667538" xlink:href="#m3ddc940b46" y="238.961776"/>
     <use style="fill-opacity:0;stroke:#ff0000;stroke-linejoin:miter;stroke-width:1.5;" x="333.168" xlink:href="#m3ddc940b46" y="238.961776"/>
    </g>
   </g>
   <g id="line2d_60">
    <path style="fill:none;stroke:#ff0000;stroke-linecap:square;stroke-width:1.5;"/>
    <g/>
   </g>
   <g id="line2d_61">
    <path clip-path="url(#p2a0d94da87)" d="M 293.589806 247.34951 
" style="fill:none;stroke:#ff0000;stroke-linecap:square;stroke-width:1.5;"/>
    <defs>
     <path d="M -12 12 
L 12 -12 
M -12 -12 
L 12 12 
" id="m2cd5f75d80" style="stroke:#ff0000;"/>
    </defs>
    <g clip-path="url(#p2a0d94da87)">
     <use style="fill:#ff0000;stroke:#ff0000;" x="293.589806" xlink:href="#m2cd5f75d80" y="247.34951"/>
    </g>
   </g>
   <g id="line2d_62">
    <path d="M 333.168 238.961776 
L 363.64328 289.176341 
" style="fill:none;stroke:#ff0000;stroke-linecap:square;stroke-width:1.5;"/>
    <g>
     <use style="fill-opacity:0;stroke:#ff0000;stroke-linejoin:miter;stroke-width:1.5;" x="333.168" xlink:href="#m3ddc940b46" y="238.961776"/>
     <use style="fill-opacity:0;stroke:#ff0000;stroke-linejoin:miter;stroke-width:1.5;" x="363.64328" xlink:href="#m3ddc940b46" y="289.176341"/>
    </g>
   </g>
   <g id="line2d_63">
    <path d="M 333.168 222.186309 
L 363.64328 220.732435 
" style="fill:none;stroke:#ff7500;stroke-linecap:square;stroke-width:1.5;"/>
    <g>
     <use style="fill-opacity:0;stroke:#ff7500;stroke-linejoin:bevel;stroke-width:1.5;" x="333.168" xlink:href="#m78fe674a6b" y="222.186309"/>
     <use style="fill-opacity:0;stroke:#ff7500;stroke-linejoin:bevel;stroke-width:1.5;" x="363.64328" xlink:href="#m78fe674a6b" y="220.732435"/>
    </g>
   </g>
   <g id="line2d_64">
    <path d="M 333.168 208.206753 
L 363.64328 152.288529 
" style="fill:none;stroke:#ff00ff;stroke-linecap:square;stroke-width:1.5;"/>
    <g>
     <use style="fill-opacity:0;stroke:#ff00ff;stroke-linejoin:miter;stroke-width:1.5;" x="333.168" xlink:href="#ma8b80f9b6c" y="208.206753"/>
     <use style="fill-opacity:0;stroke:#ff00ff;stroke-linejoin:miter;stroke-width:1.5;" x="363.64328" xlink:href="#ma8b80f9b6c" y="152.288529"/>
    </g>
   </g>
   <g id="line2d_65">
    <path d="M 333.168 86.864206 
L 363.64328 83.844622 
" style="fill:none;stroke:#000080;stroke-linecap:square;stroke-width:1.5;"/>
    <g>
     <use style="fill-opacity:0;stroke:#000080;stroke-width:1.5;" x="333.168" xlink:href="#m5a985e9117" y="86.864206"/>
     <use style="fill-opacity:0;stroke:#000080;stroke-width:1.5;" x="363.64328" xlink:href="#m5a985e9117" y="83.844622"/>
    </g>
   </g>
   <g id="line2d_66">
    <path d="M 333.168 9.697057 
L 363.64328 15.400716 
" style="fill:none;stroke:#6495ed;stroke-linecap:square;stroke-width:1.5;"/>
    <g>
     <use style="fill-opacity:0;stroke:#6495ed;stroke-linejoin:miter;stroke-width:1.5;" x="333.168" xlink:href="#mc9b743c117" y="9.697057"/>
     <use style="fill-opacity:0;stroke:#6495ed;stroke-linejoin:miter;stroke-width:1.5;" x="363.64328" xlink:href="#mc9b743c117" y="15.400716"/>
    </g>
   </g>
   <g id="line2d_67">
    <path d="M 333.168 294.88 
L 333.168 9.697057 
" style="fill:none;stroke:#000000;stroke-linecap:square;stroke-width:1.5;"/>
   </g>
   <g id="patch_3">
    <path d="M 56.12 294.88 
L 56.12 6.845228 
" style="fill:none;stroke:#000000;stroke-linecap:square;stroke-linejoin:miter;stroke-width:0.8;"/>
   </g>
   <g id="patch_4">
    <path d="M 333.168 294.88 
L 333.168 6.845228 
" style="fill:none;stroke:#000000;stroke-linecap:square;stroke-linejoin:miter;stroke-width:0.8;"/>
   </g>
   <g id="patch_5">
    <path d="M 56.12 294.88 
L 333.168 294.88 
" style="fill:none;stroke:#000000;stroke-linecap:square;stroke-linejoin:miter;stroke-width:0.8;"/>
   </g>
   <g id="patch_6">
    <path d="M 56.12 6.845228 
L 333.168 6.845228 
" style="fill:none;stroke:#000000;stroke-linecap:square;stroke-linejoin:miter;stroke-width:0.8;"/>
   </g>
   <g id="text_13">
    <!-- f15 -->
    <defs>
     <path d="M 10.796875 72.90625 
L 49.515625 72.90625 
L 49.515625 64.59375 
L 19.828125 64.59375 
L 19.828125 46.734375 
Q 21.96875 47.46875 24.109375 47.828125 
Q 26.265625 48.1875 28.421875 48.1875 
Q 40.625 48.1875 47.75 41.5 
Q 54.890625 34.8125 54.890625 23.390625 
Q 54.890625 11.625 47.5625 5.09375 
Q 40.234375 -1.421875 26.90625 -1.421875 
Q 22.3125 -1.421875 17.546875 -0.640625 
Q 12.796875 0.140625 7.71875 1.703125 
L 7.71875 11.625 
Q 12.109375 9.234375 16.796875 8.0625 
Q 21.484375 6.890625 26.703125 6.890625 
Q 35.15625 6.890625 40.078125 11.328125 
Q 45.015625 15.765625 45.015625 23.390625 
Q 45.015625 31 40.078125 35.4375 
Q 35.15625 39.890625 26.703125 39.890625 
Q 22.75 39.890625 18.8125 39.015625 
Q 14.890625 38.140625 10.796875 36.28125 
z
" id="DejaVuSans-35"/>
    </defs>
    <g transform="translate(369.18424 293.867279)scale(0.17 -0.17)">
     <use xlink:href="#DejaVuSans-66"/>
     <use x="35.205078" xlink:href="#DejaVuSans-31"/>
     <use x="98.828125" xlink:href="#DejaVuSans-35"/>
    </g>
   </g>
   <g id="text_14">
    <!-- f16 -->
    <g transform="translate(369.18424 225.423372)scale(0.17 -0.17)">
     <use xlink:href="#DejaVuSans-66"/>
     <use x="35.205078" xlink:href="#DejaVuSans-31"/>
     <use x="98.828125" xlink:href="#DejaVuSans-36"/>
    </g>
   </g>
   <g id="text_15">
    <!-- f19 -->
    <defs>
     <path d="M 10.984375 1.515625 
L 10.984375 10.5 
Q 14.703125 8.734375 18.5 7.8125 
Q 22.3125 6.890625 25.984375 6.890625 
Q 35.75 6.890625 40.890625 13.453125 
Q 46.046875 20.015625 46.78125 33.40625 
Q 43.953125 29.203125 39.59375 26.953125 
Q 35.25 24.703125 29.984375 24.703125 
Q 19.046875 24.703125 12.671875 31.3125 
Q 6.296875 37.9375 6.296875 49.421875 
Q 6.296875 60.640625 12.9375 67.421875 
Q 19.578125 74.21875 30.609375 74.21875 
Q 43.265625 74.21875 49.921875 64.515625 
Q 56.59375 54.828125 56.59375 36.375 
Q 56.59375 19.140625 48.40625 8.859375 
Q 40.234375 -1.421875 26.421875 -1.421875 
Q 22.703125 -1.421875 18.890625 -0.6875 
Q 15.09375 0.046875 10.984375 1.515625 
z
M 30.609375 32.421875 
Q 37.25 32.421875 41.125 36.953125 
Q 45.015625 41.5 45.015625 49.421875 
Q 45.015625 57.28125 41.125 61.84375 
Q 37.25 66.40625 30.609375 66.40625 
Q 23.96875 66.40625 20.09375 61.84375 
Q 16.21875 57.28125 16.21875 49.421875 
Q 16.21875 41.5 20.09375 36.953125 
Q 23.96875 32.421875 30.609375 32.421875 
z
" id="DejaVuSans-39"/>
    </defs>
    <g transform="translate(369.18424 156.979466)scale(0.17 -0.17)">
     <use xlink:href="#DejaVuSans-66"/>
     <use x="35.205078" xlink:href="#DejaVuSans-31"/>
     <use x="98.828125" xlink:href="#DejaVuSans-39"/>
    </g>
   </g>
   <g id="text_16">
    <!-- f18 -->
    <g transform="translate(369.18424 88.53556)scale(0.17 -0.17)">
     <use xlink:href="#DejaVuSans-66"/>
     <use x="35.205078" xlink:href="#DejaVuSans-31"/>
     <use x="98.828125" xlink:href="#DejaVuSans-38"/>
    </g>
   </g>
   <g id="text_17">
    <!-- f17 -->
    <defs>
     <path d="M 8.203125 72.90625 
L 55.078125 72.90625 
L 55.078125 68.703125 
L 28.609375 0 
L 18.3125 0 
L 43.21875 64.59375 
L 8.203125 64.59375 
z
" id="DejaVuSans-37"/>
    </defs>
    <g transform="translate(369.18424 20.091654)scale(0.17 -0.17)">
     <use xlink:href="#DejaVuSans-66"/>
     <use x="35.205078" xlink:href="#DejaVuSans-31"/>
     <use x="98.828125" xlink:href="#DejaVuSans-37"/>
    </g>
   </g>
   <g id="text_18">
    <!-- bbob -->
    <defs>
     <path d="M 48.6875 27.296875 
Q 48.6875 37.203125 44.609375 42.84375 
Q 40.53125 48.484375 33.40625 48.484375 
Q 26.265625 48.484375 22.1875 42.84375 
Q 18.109375 37.203125 18.109375 27.296875 
Q 18.109375 17.390625 22.1875 11.75 
Q 26.265625 6.109375 33.40625 6.109375 
Q 40.53125 6.109375 44.609375 11.75 
Q 48.6875 17.390625 48.6875 27.296875 
z
M 18.109375 46.390625 
Q 20.953125 51.265625 25.265625 53.625 
Q 29.59375 56 35.59375 56 
Q 45.5625 56 51.78125 48.09375 
Q 58.015625 40.1875 58.015625 27.296875 
Q 58.015625 14.40625 51.78125 6.484375 
Q 45.5625 -1.421875 35.59375 -1.421875 
Q 29.59375 -1.421875 25.265625 0.953125 
Q 20.953125 3.328125 18.109375 8.203125 
L 18.109375 0 
L 9.078125 0 
L 9.078125 75.984375 
L 18.109375 75.984375 
z
" id="DejaVuSans-62"/>
    </defs>
    <g transform="translate(58.89048 17.475982)scale(0.102 -0.102)">
     <use xlink:href="#DejaVuSans-62"/>
     <use x="63.476562" xlink:href="#DejaVuSans-62"/>
     <use x="126.953125" xlink:href="#DejaVuSans-6f"/>
     <use x="188.134766" xlink:href="#DejaVuSans-62"/>
    </g>
    <!-- Multi-modal functions, 20-D -->
    <defs>
     <path d="M 9.8125 72.90625 
L 24.515625 72.90625 
L 43.109375 23.296875 
L 61.8125 72.90625 
L 76.515625 72.90625 
L 76.515625 0 
L 66.890625 0 
L 66.890625 64.015625 
L 48.09375 14.015625 
L 38.1875 14.015625 
L 19.390625 64.015625 
L 19.390625 0 
L 9.8125 0 
z
" id="DejaVuSans-4d"/>
     <path d="M 19.671875 64.796875 
L 19.671875 8.109375 
L 31.59375 8.109375 
Q 46.6875 8.109375 53.6875 14.9375 
Q 60.6875 21.78125 60.6875 36.53125 
Q 60.6875 51.171875 53.6875 57.984375 
Q 46.6875 64.796875 31.59375 64.796875 
z
M 9.8125 72.90625 
L 30.078125 72.90625 
Q 51.265625 72.90625 61.171875 64.09375 
Q 71.09375 55.28125 71.09375 36.53125 
Q 71.09375 17.671875 61.125 8.828125 
Q 51.171875 0 30.078125 0 
L 9.8125 0 
z
" id="DejaVuSans-44"/>
    </defs>
    <g transform="translate(58.89048 28.89775)scale(0.102 -0.102)">
     <use xlink:href="#DejaVuSans-4d"/>
     <use x="86.279297" xlink:href="#DejaVuSans-75"/>
     <use x="149.658203" xlink:href="#DejaVuSans-6c"/>
     <use x="177.441406" xlink:href="#DejaVuSans-74"/>
     <use x="216.650391" xlink:href="#DejaVuSans-69"/>
     <use x="244.433594" xlink:href="#DejaVuSans-2d"/>
     <use x="280.517578" xlink:href="#DejaVuSans-6d"/>
     <use x="377.929688" xlink:href="#DejaVuSans-6f"/>
     <use x="439.111328" xlink:href="#DejaVuSans-64"/>
     <use x="502.587891" xlink:href="#DejaVuSans-61"/>
     <use x="563.867188" xlink:href="#DejaVuSans-6c"/>
     <use x="591.650391" xlink:href="#DejaVuSans-20"/>
     <use x="623.4375" xlink:href="#DejaVuSans-66"/>
     <use x="658.642578" xlink:href="#DejaVuSans-75"/>
     <use x="722.021484" xlink:href="#DejaVuSans-6e"/>
     <use x="785.400391" xlink:href="#DejaVuSans-63"/>
     <use x="840.380859" xlink:href="#DejaVuSans-74"/>
     <use x="879.589844" xlink:href="#DejaVuSans-69"/>
     <use x="907.373047" xlink:href="#DejaVuSans-6f"/>
     <use x="968.554688" xlink:href="#DejaVuSans-6e"/>
     <use x="1031.933594" xlink:href="#DejaVuSans-73"/>
     <use x="1084.033203" xlink:href="#DejaVuSans-2c"/>
     <use x="1115.820312" xlink:href="#DejaVuSans-20"/>
     <use x="1147.607422" xlink:href="#DejaVuSans-32"/>
     <use x="1211.230469" xlink:href="#DejaVuSans-30"/>
     <use x="1274.853516" xlink:href="#DejaVuSans-2d"/>
     <use x="1310.9375" xlink:href="#DejaVuSans-44"/>
    </g>
    <!-- 51 targets: 100..1e-08 -->
    <defs>
     <path d="M 11.71875 12.40625 
L 22.015625 12.40625 
L 22.015625 0 
L 11.71875 0 
z
M 11.71875 51.703125 
L 22.015625 51.703125 
L 22.015625 39.3125 
L 11.71875 39.3125 
z
" id="DejaVuSans-3a"/>
    </defs>
    <g transform="translate(58.89048 40.319519)scale(0.102 -0.102)">
     <use xlink:href="#DejaVuSans-35"/>
     <use x="63.623047" xlink:href="#DejaVuSans-31"/>
     <use x="127.246094" xlink:href="#DejaVuSans-20"/>
     <use x="159.033203" xlink:href="#DejaVuSans-74"/>
     <use x="198.242188" xlink:href="#DejaVuSans-61"/>
     <use x="259.521484" xlink:href="#DejaVuSans-72"/>
     <use x="300.619141" xlink:href="#DejaVuSans-67"/>
     <use x="364.095703" xlink:href="#DejaVuSans-65"/>
     <use x="425.619141" xlink:href="#DejaVuSans-74"/>
     <use x="464.828125" xlink:href="#DejaVuSans-73"/>
     <use x="516.927734" xlink:href="#DejaVuSans-3a"/>
     <use x="550.619141" xlink:href="#DejaVuSans-20"/>
     <use x="582.40625" xlink:href="#DejaVuSans-31"/>
     <use x="646.029297" xlink:href="#DejaVuSans-30"/>
     <use x="709.652344" xlink:href="#DejaVuSans-30"/>
     <use x="773.275391" xlink:href="#DejaVuSans-2e"/>
     <use x="805.0625" xlink:href="#DejaVuSans-2e"/>
     <use x="836.849609" xlink:href="#DejaVuSans-31"/>
     <use x="900.472656" xlink:href="#DejaVuSans-65"/>
     <use x="961.996094" xlink:href="#DejaVuSans-2d"/>
     <use x="998.080078" xlink:href="#DejaVuSans-30"/>
     <use x="1061.703125" xlink:href="#DejaVuSans-38"/>
    </g>
    <!-- 15 instances -->
    <g transform="translate(58.89048 51.741288)scale(0.102 -0.102)">
     <use xlink:href="#DejaVuSans-31"/>
     <use x="63.623047" xlink:href="#DejaVuSans-35"/>
     <use x="127.246094" xlink:href="#DejaVuSans-20"/>
     <use x="159.033203" xlink:href="#DejaVuSans-69"/>
     <use x="186.816406" xlink:href="#DejaVuSans-6e"/>
     <use x="250.195312" xlink:href="#DejaVuSans-73"/>
     <use x="302.294922" xlink:href="#DejaVuSans-74"/>
     <use x="341.503906" xlink:href="#DejaVuSans-61"/>
     <use x="402.783203" xlink:href="#DejaVuSans-6e"/>
     <use x="466.162109" xlink:href="#DejaVuSans-63"/>
     <use x="521.142578" xlink:href="#DejaVuSans-65"/>
     <use x="582.666016" xlink:href="#DejaVuSans-73"/>
    </g>
   </g>
   <g id="text_19">
    <!-- v2.4 -->
    <g style="fill:#808080;" transform="translate(183.733063 289.919965)scale(0.1 -0.1)">
     <use xlink:href="#DejaVuSans-76"/>
     <use x="59.179688" xlink:href="#DejaVuSans-32"/>
     <use x="122.802734" xlink:href="#DejaVuSans-2e"/>
     <use x="154.589844" xlink:href="#DejaVuSans-34"/>
    </g>
   </g>
  </g>
 </g>
 <defs>
  <clipPath id="p2a0d94da87">
   <rect height="288.034772" width="277.048" x="56.12" y="6.845228"/>
  </clipPath>
 </defs>
</svg>
