<?xml version="1.0" encoding="utf-8" standalone="no"?>
<!DOCTYPE svg PUBLIC "-//W3C//DTD SVG 1.1//EN"
  "http://www.w3.org/Graphics/SVG/1.1/DTD/svg11.dtd">
<!-- Created with matplotlib (http://matplotlib.org/) -->
<svg height="345.6pt" version="1.1" viewBox="0 0 460.8 345.6" width="460.8pt" xmlns="http://www.w3.org/2000/svg" xmlns:xlink="http://www.w3.org/1999/xlink">
 <defs>
  <style type="text/css">
*{stroke-linecap:butt;stroke-linejoin:round;}
  </style>
 </defs>
 <g id="figure_1">
  <g id="patch_1">
   <path d="M 0 345.6 
L 460.8 345.6 
L 460.8 0 
L 0 0 
z
" style="fill:#ffffff;"/>
  </g>
  <g id="axes_1">
   <g id="patch_2">
    <path d="M 56.12 294.88 
L 333.168 294.88 
L 333.168 24.84 
L 56.12 24.84 
z
" style="fill:#ffffff;"/>
   </g>
   <g id="matplotlib.axis_1">
    <g id="xtick_1">
     <g id="line2d_1">
      <path clip-path="url(#pe8d561967f)" d="M 56.12 294.88 
L 56.12 24.84 
" style="fill:none;stroke:#b0b0b0;stroke-linecap:square;stroke-width:0.8;"/>
     </g>
     <g id="line2d_2">
      <defs>
       <path d="M 0 0 
L 0 3.5 
" id="m11d984e686" style="stroke:#000000;stroke-width:0.8;"/>
      </defs>
      <g>
       <use style="stroke:#000000;stroke-width:0.8;" x="56.12" xlink:href="#m11d984e686" y="294.88"/>
      </g>
     </g>
     <g id="text_1">
      <!-- 0 -->
      <defs>
       <path d="M 31.78125 66.40625 
Q 24.171875 66.40625 20.328125 58.90625 
Q 16.5 51.421875 16.5 36.375 
Q 16.5 21.390625 20.328125 13.890625 
Q 24.171875 6.390625 31.78125 6.390625 
Q 39.453125 6.390625 43.28125 13.890625 
Q 47.125 21.390625 47.125 36.375 
Q 47.125 51.421875 43.28125 58.90625 
Q 39.453125 66.40625 31.78125 66.40625 
z
M 31.78125 74.21875 
Q 44.046875 74.21875 50.515625 64.515625 
Q 56.984375 54.828125 56.984375 36.375 
Q 56.984375 17.96875 50.515625 8.265625 
Q 44.046875 -1.421875 31.78125 -1.421875 
Q 19.53125 -1.421875 13.0625 8.265625 
Q 6.59375 17.96875 6.59375 36.375 
Q 6.59375 54.828125 13.0625 64.515625 
Q 19.53125 74.21875 31.78125 74.21875 
z
" id="DejaVuSans-30"/>
      </defs>
      <g transform="translate(49.7575 317.076875)scale(0.2 -0.2)">
       <use xlink:href="#DejaVuSans-30"/>
      </g>
     </g>
    </g>
    <g id="xtick_2">
     <g id="line2d_3">
      <path clip-path="url(#pe8d561967f)" d="M 135.276571 294.88 
L 135.276571 24.84 
" style="fill:none;stroke:#b0b0b0;stroke-linecap:square;stroke-width:0.8;"/>
     </g>
     <g id="line2d_4">
      <g>
       <use style="stroke:#000000;stroke-width:0.8;" x="135.276571" xlink:href="#m11d984e686" y="294.88"/>
      </g>
     </g>
     <g id="text_2">
      <!-- 2 -->
      <defs>
       <path d="M 19.1875 8.296875 
L 53.609375 8.296875 
L 53.609375 0 
L 7.328125 0 
L 7.328125 8.296875 
Q 12.9375 14.109375 22.625 23.890625 
Q 32.328125 33.6875 34.8125 36.53125 
Q 39.546875 41.84375 41.421875 45.53125 
Q 43.3125 49.21875 43.3125 52.78125 
Q 43.3125 58.59375 39.234375 62.25 
Q 35.15625 65.921875 28.609375 65.921875 
Q 23.96875 65.921875 18.8125 64.3125 
Q 13.671875 62.703125 7.8125 59.421875 
L 7.8125 69.390625 
Q 13.765625 71.78125 18.9375 73 
Q 24.125 74.21875 28.421875 74.21875 
Q 39.75 74.21875 46.484375 68.546875 
Q 53.21875 62.890625 53.21875 53.421875 
Q 53.21875 48.921875 51.53125 44.890625 
Q 49.859375 40.875 45.40625 35.40625 
Q 44.1875 33.984375 37.640625 27.21875 
Q 31.109375 20.453125 19.1875 8.296875 
z
" id="DejaVuSans-32"/>
      </defs>
      <g transform="translate(128.914071 317.076875)scale(0.2 -0.2)">
       <use xlink:href="#DejaVuSans-32"/>
      </g>
     </g>
    </g>
    <g id="xtick_3">
     <g id="line2d_5">
      <path clip-path="url(#pe8d561967f)" d="M 214.433143 294.88 
L 214.433143 24.84 
" style="fill:none;stroke:#b0b0b0;stroke-linecap:square;stroke-width:0.8;"/>
     </g>
     <g id="line2d_6">
      <g>
       <use style="stroke:#000000;stroke-width:0.8;" x="214.433143" xlink:href="#m11d984e686" y="294.88"/>
      </g>
     </g>
     <g id="text_3">
      <!-- 4 -->
      <defs>
       <path d="M 37.796875 64.3125 
L 12.890625 25.390625 
L 37.796875 25.390625 
z
M 35.203125 72.90625 
L 47.609375 72.90625 
L 47.609375 25.390625 
L 58.015625 25.390625 
L 58.015625 17.1875 
L 47.609375 17.1875 
L 47.609375 0 
L 37.796875 0 
L 37.796875 17.1875 
L 4.890625 17.1875 
L 4.890625 26.703125 
z
" id="DejaVuSans-34"/>
      </defs>
      <g transform="translate(208.070643 317.076875)scale(0.2 -0.2)">
       <use xlink:href="#DejaVuSans-34"/>
      </g>
     </g>
    </g>
    <g id="xtick_4">
     <g id="line2d_7">
      <path clip-path="url(#pe8d561967f)" d="M 293.589714 294.88 
L 293.589714 24.84 
" style="fill:none;stroke:#b0b0b0;stroke-linecap:square;stroke-width:0.8;"/>
     </g>
     <g id="line2d_8">
      <g>
       <use style="stroke:#000000;stroke-width:0.8;" x="293.589714" xlink:href="#m11d984e686" y="294.88"/>
      </g>
     </g>
     <g id="text_4">
      <!-- 6 -->
      <defs>
       <path d="M 33.015625 40.375 
Q 26.375 40.375 22.484375 35.828125 
Q 18.609375 31.296875 18.609375 23.390625 
Q 18.609375 15.53125 22.484375 10.953125 
Q 26.375 6.390625 33.015625 6.390625 
Q 39.65625 6.390625 43.53125 10.953125 
Q 47.40625 15.53125 47.40625 23.390625 
Q 47.40625 31.296875 43.53125 35.828125 
Q 39.65625 40.375 33.015625 40.375 
z
M 52.59375 71.296875 
L 52.59375 62.3125 
Q 48.875 64.0625 45.09375 64.984375 
Q 41.3125 65.921875 37.59375 65.921875 
Q 27.828125 65.921875 22.671875 59.328125 
Q 17.53125 52.734375 16.796875 39.40625 
Q 19.671875 43.65625 24.015625 45.921875 
Q 28.375 48.1875 33.59375 48.1875 
Q 44.578125 48.1875 50.953125 41.515625 
Q 57.328125 34.859375 57.328125 23.390625 
Q 57.328125 12.15625 50.6875 5.359375 
Q 44.046875 -1.421875 33.015625 -1.421875 
Q 20.359375 -1.421875 13.671875 8.265625 
Q 6.984375 17.96875 6.984375 36.375 
Q 6.984375 53.65625 15.1875 63.9375 
Q 23.390625 74.21875 37.203125 74.21875 
Q 40.921875 74.21875 44.703125 73.484375 
Q 48.484375 72.75 52.59375 71.296875 
z
" id="DejaVuSans-36"/>
      </defs>
      <g transform="translate(287.227214 317.076875)scale(0.2 -0.2)">
       <use xlink:href="#DejaVuSans-36"/>
      </g>
     </g>
    </g>
    <g id="xtick_5">
     <g id="line2d_9">
      <path clip-path="url(#pe8d561967f)" d="M 56.12 294.88 
L 56.12 24.84 
" style="fill:none;stroke:#b0b0b0;stroke-linecap:square;stroke-width:0.8;"/>
     </g>
     <g id="line2d_10">
      <defs>
       <path d="M 0 0 
L 0 2 
" id="m5b8b2afed2" style="stroke:#000000;stroke-width:0.6;"/>
      </defs>
      <g>
       <use style="stroke:#000000;stroke-width:0.6;" x="56.12" xlink:href="#m5b8b2afed2" y="294.88"/>
      </g>
     </g>
    </g>
    <g id="xtick_6">
     <g id="line2d_11">
      <path clip-path="url(#pe8d561967f)" d="M 95.698286 294.88 
L 95.698286 24.84 
" style="fill:none;stroke:#b0b0b0;stroke-linecap:square;stroke-width:0.8;"/>
     </g>
     <g id="line2d_12">
      <g>
       <use style="stroke:#000000;stroke-width:0.6;" x="95.698286" xlink:href="#m5b8b2afed2" y="294.88"/>
      </g>
     </g>
    </g>
    <g id="xtick_7">
     <g id="line2d_13">
      <path clip-path="url(#pe8d561967f)" d="M 135.276571 294.88 
L 135.276571 24.84 
" style="fill:none;stroke:#b0b0b0;stroke-linecap:square;stroke-width:0.8;"/>
     </g>
     <g id="line2d_14">
      <g>
       <use style="stroke:#000000;stroke-width:0.6;" x="135.276571" xlink:href="#m5b8b2afed2" y="294.88"/>
      </g>
     </g>
    </g>
    <g id="xtick_8">
     <g id="line2d_15">
      <path clip-path="url(#pe8d561967f)" d="M 174.854857 294.88 
L 174.854857 24.84 
" style="fill:none;stroke:#b0b0b0;stroke-linecap:square;stroke-width:0.8;"/>
     </g>
     <g id="line2d_16">
      <g>
       <use style="stroke:#000000;stroke-width:0.6;" x="174.854857" xlink:href="#m5b8b2afed2" y="294.88"/>
      </g>
     </g>
    </g>
    <g id="xtick_9">
     <g id="line2d_17">
      <path clip-path="url(#pe8d561967f)" d="M 214.433143 294.88 
L 214.433143 24.84 
" style="fill:none;stroke:#b0b0b0;stroke-linecap:square;stroke-width:0.8;"/>
     </g>
     <g id="line2d_18">
      <g>
       <use style="stroke:#000000;stroke-width:0.6;" x="214.433143" xlink:href="#m5b8b2afed2" y="294.88"/>
      </g>
     </g>
    </g>
    <g id="xtick_10">
     <g id="line2d_19">
      <path clip-path="url(#pe8d561967f)" d="M 254.011429 294.88 
L 254.011429 24.84 
" style="fill:none;stroke:#b0b0b0;stroke-linecap:square;stroke-width:0.8;"/>
     </g>
     <g id="line2d_20">
      <g>
       <use style="stroke:#000000;stroke-width:0.6;" x="254.011429" xlink:href="#m5b8b2afed2" y="294.88"/>
      </g>
     </g>
    </g>
    <g id="xtick_11">
     <g id="line2d_21">
      <path clip-path="url(#pe8d561967f)" d="M 293.589714 294.88 
L 293.589714 24.84 
" style="fill:none;stroke:#b0b0b0;stroke-linecap:square;stroke-width:0.8;"/>
     </g>
     <g id="line2d_22">
      <g>
       <use style="stroke:#000000;stroke-width:0.6;" x="293.589714" xlink:href="#m5b8b2afed2" y="294.88"/>
      </g>
     </g>
    </g>
    <g id="xtick_12">
     <g id="line2d_23">
      <path clip-path="url(#pe8d561967f)" d="M 333.168 294.88 
L 333.168 24.84 
" style="fill:none;stroke:#b0b0b0;stroke-linecap:square;stroke-width:0.8;"/>
     </g>
     <g id="line2d_24">
      <g>
       <use style="stroke:#000000;stroke-width:0.6;" x="333.168" xlink:href="#m5b8b2afed2" y="294.88"/>
      </g>
     </g>
    </g>
    <g id="text_5">
     <!-- log10(# f-evals / dimension) -->
     <defs>
      <path d="M 9.421875 75.984375 
L 18.40625 75.984375 
L 18.40625 0 
L 9.421875 0 
z
" id="DejaVuSans-6c"/>
      <path d="M 30.609375 48.390625 
Q 23.390625 48.390625 19.1875 42.75 
Q 14.984375 37.109375 14.984375 27.296875 
Q 14.984375 17.484375 19.15625 11.84375 
Q 23.34375 6.203125 30.609375 6.203125 
Q 37.796875 6.203125 41.984375 11.859375 
Q 46.1875 17.53125 46.1875 27.296875 
Q 46.1875 37.015625 41.984375 42.703125 
Q 37.796875 48.390625 30.609375 48.390625 
z
M 30.609375 56 
Q 42.328125 56 49.015625 48.375 
Q 55.71875 40.765625 55.71875 27.296875 
Q 55.71875 13.875 49.015625 6.21875 
Q 42.328125 -1.421875 30.609375 -1.421875 
Q 18.84375 -1.421875 12.171875 6.21875 
Q 5.515625 13.875 5.515625 27.296875 
Q 5.515625 40.765625 12.171875 48.375 
Q 18.84375 56 30.609375 56 
z
" id="DejaVuSans-6f"/>
      <path d="M 45.40625 27.984375 
Q 45.40625 37.75 41.375 43.109375 
Q 37.359375 48.484375 30.078125 48.484375 
Q 22.859375 48.484375 18.828125 43.109375 
Q 14.796875 37.75 14.796875 27.984375 
Q 14.796875 18.265625 18.828125 12.890625 
Q 22.859375 7.515625 30.078125 7.515625 
Q 37.359375 7.515625 41.375 12.890625 
Q 45.40625 18.265625 45.40625 27.984375 
z
M 54.390625 6.78125 
Q 54.390625 -7.171875 48.1875 -13.984375 
Q 42 -20.796875 29.203125 -20.796875 
Q 24.46875 -20.796875 20.265625 -20.09375 
Q 16.0625 -19.390625 12.109375 -17.921875 
L 12.109375 -9.1875 
Q 16.0625 -11.328125 19.921875 -12.34375 
Q 23.78125 -13.375 27.78125 -13.375 
Q 36.625 -13.375 41.015625 -8.765625 
Q 45.40625 -4.15625 45.40625 5.171875 
L 45.40625 9.625 
Q 42.625 4.78125 38.28125 2.390625 
Q 33.9375 0 27.875 0 
Q 17.828125 0 11.671875 7.65625 
Q 5.515625 15.328125 5.515625 27.984375 
Q 5.515625 40.671875 11.671875 48.328125 
Q 17.828125 56 27.875 56 
Q 33.9375 56 38.28125 53.609375 
Q 42.625 51.21875 45.40625 46.390625 
L 45.40625 54.6875 
L 54.390625 54.6875 
z
" id="DejaVuSans-67"/>
      <path d="M 12.40625 8.296875 
L 28.515625 8.296875 
L 28.515625 63.921875 
L 10.984375 60.40625 
L 10.984375 69.390625 
L 28.421875 72.90625 
L 38.28125 72.90625 
L 38.28125 8.296875 
L 54.390625 8.296875 
L 54.390625 0 
L 12.40625 0 
z
" id="DejaVuSans-31"/>
      <path d="M 31 75.875 
Q 24.46875 64.65625 21.28125 53.65625 
Q 18.109375 42.671875 18.109375 31.390625 
Q 18.109375 20.125 21.3125 9.0625 
Q 24.515625 -2 31 -13.1875 
L 23.1875 -13.1875 
Q 15.875 -1.703125 12.234375 9.375 
Q 8.59375 20.453125 8.59375 31.390625 
Q 8.59375 42.28125 12.203125 53.3125 
Q 15.828125 64.359375 23.1875 75.875 
z
" id="DejaVuSans-28"/>
      <path d="M 51.125 44 
L 36.921875 44 
L 32.8125 27.6875 
L 47.125 27.6875 
z
M 43.796875 71.78125 
L 38.71875 51.515625 
L 52.984375 51.515625 
L 58.109375 71.78125 
L 65.921875 71.78125 
L 60.890625 51.515625 
L 76.125 51.515625 
L 76.125 44 
L 58.984375 44 
L 54.984375 27.6875 
L 70.515625 27.6875 
L 70.515625 20.21875 
L 53.078125 20.21875 
L 48 0 
L 40.1875 0 
L 45.21875 20.21875 
L 30.90625 20.21875 
L 25.875 0 
L 18.015625 0 
L 23.09375 20.21875 
L 7.71875 20.21875 
L 7.71875 27.6875 
L 24.90625 27.6875 
L 29 44 
L 13.28125 44 
L 13.28125 51.515625 
L 30.90625 51.515625 
L 35.890625 71.78125 
z
" id="DejaVuSans-23"/>
      <path id="DejaVuSans-20"/>
      <path d="M 37.109375 75.984375 
L 37.109375 68.5 
L 28.515625 68.5 
Q 23.6875 68.5 21.796875 66.546875 
Q 19.921875 64.59375 19.921875 59.515625 
L 19.921875 54.6875 
L 34.71875 54.6875 
L 34.71875 47.703125 
L 19.921875 47.703125 
L 19.921875 0 
L 10.890625 0 
L 10.890625 47.703125 
L 2.296875 47.703125 
L 2.296875 54.6875 
L 10.890625 54.6875 
L 10.890625 58.5 
Q 10.890625 67.625 15.140625 71.796875 
Q 19.390625 75.984375 28.609375 75.984375 
z
" id="DejaVuSans-66"/>
      <path d="M 4.890625 31.390625 
L 31.203125 31.390625 
L 31.203125 23.390625 
L 4.890625 23.390625 
z
" id="DejaVuSans-2d"/>
      <path d="M 56.203125 29.59375 
L 56.203125 25.203125 
L 14.890625 25.203125 
Q 15.484375 15.921875 20.484375 11.0625 
Q 25.484375 6.203125 34.421875 6.203125 
Q 39.59375 6.203125 44.453125 7.46875 
Q 49.3125 8.734375 54.109375 11.28125 
L 54.109375 2.78125 
Q 49.265625 0.734375 44.1875 -0.34375 
Q 39.109375 -1.421875 33.890625 -1.421875 
Q 20.796875 -1.421875 13.15625 6.1875 
Q 5.515625 13.8125 5.515625 26.8125 
Q 5.515625 40.234375 12.765625 48.109375 
Q 20.015625 56 32.328125 56 
Q 43.359375 56 49.78125 48.890625 
Q 56.203125 41.796875 56.203125 29.59375 
z
M 47.21875 32.234375 
Q 47.125 39.59375 43.09375 43.984375 
Q 39.0625 48.390625 32.421875 48.390625 
Q 24.90625 48.390625 20.390625 44.140625 
Q 15.875 39.890625 15.1875 32.171875 
z
" id="DejaVuSans-65"/>
      <path d="M 2.984375 54.6875 
L 12.5 54.6875 
L 29.59375 8.796875 
L 46.6875 54.6875 
L 56.203125 54.6875 
L 35.6875 0 
L 23.484375 0 
z
" id="DejaVuSans-76"/>
      <path d="M 34.28125 27.484375 
Q 23.390625 27.484375 19.1875 25 
Q 14.984375 22.515625 14.984375 16.5 
Q 14.984375 11.71875 18.140625 8.90625 
Q 21.296875 6.109375 26.703125 6.109375 
Q 34.1875 6.109375 38.703125 11.40625 
Q 43.21875 16.703125 43.21875 25.484375 
L 43.21875 27.484375 
z
M 52.203125 31.203125 
L 52.203125 0 
L 43.21875 0 
L 43.21875 8.296875 
Q 40.140625 3.328125 35.546875 0.953125 
Q 30.953125 -1.421875 24.3125 -1.421875 
Q 15.921875 -1.421875 10.953125 3.296875 
Q 6 8.015625 6 15.921875 
Q 6 25.140625 12.171875 29.828125 
Q 18.359375 34.515625 30.609375 34.515625 
L 43.21875 34.515625 
L 43.21875 35.40625 
Q 43.21875 41.609375 39.140625 45 
Q 35.0625 48.390625 27.6875 48.390625 
Q 23 48.390625 18.546875 47.265625 
Q 14.109375 46.140625 10.015625 43.890625 
L 10.015625 52.203125 
Q 14.9375 54.109375 19.578125 55.046875 
Q 24.21875 56 28.609375 56 
Q 40.484375 56 46.34375 49.84375 
Q 52.203125 43.703125 52.203125 31.203125 
z
" id="DejaVuSans-61"/>
      <path d="M 44.28125 53.078125 
L 44.28125 44.578125 
Q 40.484375 46.53125 36.375 47.5 
Q 32.28125 48.484375 27.875 48.484375 
Q 21.1875 48.484375 17.84375 46.4375 
Q 14.5 44.390625 14.5 40.28125 
Q 14.5 37.15625 16.890625 35.375 
Q 19.28125 33.59375 26.515625 31.984375 
L 29.59375 31.296875 
Q 39.15625 29.25 43.1875 25.515625 
Q 47.21875 21.78125 47.21875 15.09375 
Q 47.21875 7.46875 41.1875 3.015625 
Q 35.15625 -1.421875 24.609375 -1.421875 
Q 20.21875 -1.421875 15.453125 -0.5625 
Q 10.6875 0.296875 5.421875 2 
L 5.421875 11.28125 
Q 10.40625 8.6875 15.234375 7.390625 
Q 20.0625 6.109375 24.8125 6.109375 
Q 31.15625 6.109375 34.5625 8.28125 
Q 37.984375 10.453125 37.984375 14.40625 
Q 37.984375 18.0625 35.515625 20.015625 
Q 33.0625 21.96875 24.703125 23.78125 
L 21.578125 24.515625 
Q 13.234375 26.265625 9.515625 29.90625 
Q 5.8125 33.546875 5.8125 39.890625 
Q 5.8125 47.609375 11.28125 51.796875 
Q 16.75 56 26.8125 56 
Q 31.78125 56 36.171875 55.265625 
Q 40.578125 54.546875 44.28125 53.078125 
z
" id="DejaVuSans-73"/>
      <path d="M 25.390625 72.90625 
L 33.6875 72.90625 
L 8.296875 -9.28125 
L 0 -9.28125 
z
" id="DejaVuSans-2f"/>
      <path d="M 45.40625 46.390625 
L 45.40625 75.984375 
L 54.390625 75.984375 
L 54.390625 0 
L 45.40625 0 
L 45.40625 8.203125 
Q 42.578125 3.328125 38.25 0.953125 
Q 33.9375 -1.421875 27.875 -1.421875 
Q 17.96875 -1.421875 11.734375 6.484375 
Q 5.515625 14.40625 5.515625 27.296875 
Q 5.515625 40.1875 11.734375 48.09375 
Q 17.96875 56 27.875 56 
Q 33.9375 56 38.25 53.625 
Q 42.578125 51.265625 45.40625 46.390625 
z
M 14.796875 27.296875 
Q 14.796875 17.390625 18.875 11.75 
Q 22.953125 6.109375 30.078125 6.109375 
Q 37.203125 6.109375 41.296875 11.75 
Q 45.40625 17.390625 45.40625 27.296875 
Q 45.40625 37.203125 41.296875 42.84375 
Q 37.203125 48.484375 30.078125 48.484375 
Q 22.953125 48.484375 18.875 42.84375 
Q 14.796875 37.203125 14.796875 27.296875 
z
" id="DejaVuSans-64"/>
      <path d="M 9.421875 54.6875 
L 18.40625 54.6875 
L 18.40625 0 
L 9.421875 0 
z
M 9.421875 75.984375 
L 18.40625 75.984375 
L 18.40625 64.59375 
L 9.421875 64.59375 
z
" id="DejaVuSans-69"/>
      <path d="M 52 44.1875 
Q 55.375 50.25 60.0625 53.125 
Q 64.75 56 71.09375 56 
Q 79.640625 56 84.28125 50.015625 
Q 88.921875 44.046875 88.921875 33.015625 
L 88.921875 0 
L 79.890625 0 
L 79.890625 32.71875 
Q 79.890625 40.578125 77.09375 44.375 
Q 74.3125 48.1875 68.609375 48.1875 
Q 61.625 48.1875 57.5625 43.546875 
Q 53.515625 38.921875 53.515625 30.90625 
L 53.515625 0 
L 44.484375 0 
L 44.484375 32.71875 
Q 44.484375 40.625 41.703125 44.40625 
Q 38.921875 48.1875 33.109375 48.1875 
Q 26.21875 48.1875 22.15625 43.53125 
Q 18.109375 38.875 18.109375 30.90625 
L 18.109375 0 
L 9.078125 0 
L 9.078125 54.6875 
L 18.109375 54.6875 
L 18.109375 46.1875 
Q 21.1875 51.21875 25.484375 53.609375 
Q 29.78125 56 35.6875 56 
Q 41.65625 56 45.828125 52.96875 
Q 50 49.953125 52 44.1875 
z
" id="DejaVuSans-6d"/>
      <path d="M 54.890625 33.015625 
L 54.890625 0 
L 45.90625 0 
L 45.90625 32.71875 
Q 45.90625 40.484375 42.875 44.328125 
Q 39.84375 48.1875 33.796875 48.1875 
Q 26.515625 48.1875 22.3125 43.546875 
Q 18.109375 38.921875 18.109375 30.90625 
L 18.109375 0 
L 9.078125 0 
L 9.078125 54.6875 
L 18.109375 54.6875 
L 18.109375 46.1875 
Q 21.34375 51.125 25.703125 53.5625 
Q 30.078125 56 35.796875 56 
Q 45.21875 56 50.046875 50.171875 
Q 54.890625 44.34375 54.890625 33.015625 
z
" id="DejaVuSans-6e"/>
      <path d="M 8.015625 75.875 
L 15.828125 75.875 
Q 23.140625 64.359375 26.78125 53.3125 
Q 30.421875 42.28125 30.421875 31.390625 
Q 30.421875 20.453125 26.78125 9.375 
Q 23.140625 -1.703125 15.828125 -13.1875 
L 8.015625 -13.1875 
Q 14.5 -2 17.703125 9.0625 
Q 20.90625 20.125 20.90625 31.390625 
Q 20.90625 42.671875 17.703125 53.65625 
Q 14.5 64.65625 8.015625 75.875 
z
" id="DejaVuSans-29"/>
     </defs>
     <g transform="translate(73.803219 338.153594)scale(0.17 -0.17)">
      <use xlink:href="#DejaVuSans-6c"/>
      <use x="27.783203" xlink:href="#DejaVuSans-6f"/>
      <use x="88.964844" xlink:href="#DejaVuSans-67"/>
      <use x="152.441406" xlink:href="#DejaVuSans-31"/>
      <use x="216.064453" xlink:href="#DejaVuSans-30"/>
      <use x="279.6875" xlink:href="#DejaVuSans-28"/>
      <use x="318.701172" xlink:href="#DejaVuSans-23"/>
      <use x="402.490234" xlink:href="#DejaVuSans-20"/>
      <use x="434.277344" xlink:href="#DejaVuSans-66"/>
      <use x="469.404297" xlink:href="#DejaVuSans-2d"/>
      <use x="505.488281" xlink:href="#DejaVuSans-65"/>
      <use x="567.011719" xlink:href="#DejaVuSans-76"/>
      <use x="626.191406" xlink:href="#DejaVuSans-61"/>
      <use x="687.470703" xlink:href="#DejaVuSans-6c"/>
      <use x="715.253906" xlink:href="#DejaVuSans-73"/>
      <use x="767.353516" xlink:href="#DejaVuSans-20"/>
      <use x="799.140625" xlink:href="#DejaVuSans-2f"/>
      <use x="832.832031" xlink:href="#DejaVuSans-20"/>
      <use x="864.619141" xlink:href="#DejaVuSans-64"/>
      <use x="928.095703" xlink:href="#DejaVuSans-69"/>
      <use x="955.878906" xlink:href="#DejaVuSans-6d"/>
      <use x="1053.291016" xlink:href="#DejaVuSans-65"/>
      <use x="1114.814453" xlink:href="#DejaVuSans-6e"/>
      <use x="1178.193359" xlink:href="#DejaVuSans-73"/>
      <use x="1230.292969" xlink:href="#DejaVuSans-69"/>
      <use x="1258.076172" xlink:href="#DejaVuSans-6f"/>
      <use x="1319.257812" xlink:href="#DejaVuSans-6e"/>
      <use x="1382.636719" xlink:href="#DejaVuSans-29"/>
     </g>
    </g>
   </g>
   <g id="matplotlib.axis_2">
    <g id="ytick_1">
     <g id="line2d_25">
      <path clip-path="url(#pe8d561967f)" d="M 56.12 294.88 
L 333.168 294.88 
" style="fill:none;stroke:#b0b0b0;stroke-linecap:square;stroke-width:0.8;"/>
     </g>
     <g id="line2d_26">
      <defs>
       <path d="M 0 0 
L -3.5 0 
" id="mbe5e0e5d2a" style="stroke:#000000;stroke-width:0.8;"/>
      </defs>
      <g>
       <use style="stroke:#000000;stroke-width:0.8;" x="56.12" xlink:href="#mbe5e0e5d2a" y="294.88"/>
      </g>
     </g>
     <g id="text_6">
      <!-- 0.0 -->
      <defs>
       <path d="M 10.6875 12.40625 
L 21 12.40625 
L 21 0 
L 10.6875 0 
z
" id="DejaVuSans-2e"/>
      </defs>
      <g transform="translate(23.675 300.95875)scale(0.16 -0.16)">
       <use xlink:href="#DejaVuSans-30"/>
       <use x="63.623047" xlink:href="#DejaVuSans-2e"/>
       <use x="95.410156" xlink:href="#DejaVuSans-30"/>
      </g>
     </g>
    </g>
    <g id="ytick_2">
     <g id="line2d_27">
      <path clip-path="url(#pe8d561967f)" d="M 56.12 241.406733 
L 333.168 241.406733 
" style="fill:none;stroke:#b0b0b0;stroke-linecap:square;stroke-width:0.8;"/>
     </g>
     <g id="line2d_28">
      <g>
       <use style="stroke:#000000;stroke-width:0.8;" x="56.12" xlink:href="#mbe5e0e5d2a" y="241.406733"/>
      </g>
     </g>
     <g id="text_7">
      <!-- 0.2 -->
      <g transform="translate(23.675 247.485483)scale(0.16 -0.16)">
       <use xlink:href="#DejaVuSans-30"/>
       <use x="63.623047" xlink:href="#DejaVuSans-2e"/>
       <use x="95.410156" xlink:href="#DejaVuSans-32"/>
      </g>
     </g>
    </g>
    <g id="ytick_3">
     <g id="line2d_29">
      <path clip-path="url(#pe8d561967f)" d="M 56.12 187.933465 
L 333.168 187.933465 
" style="fill:none;stroke:#b0b0b0;stroke-linecap:square;stroke-width:0.8;"/>
     </g>
     <g id="line2d_30">
      <g>
       <use style="stroke:#000000;stroke-width:0.8;" x="56.12" xlink:href="#mbe5e0e5d2a" y="187.933465"/>
      </g>
     </g>
     <g id="text_8">
      <!-- 0.4 -->
      <g transform="translate(23.675 194.012215)scale(0.16 -0.16)">
       <use xlink:href="#DejaVuSans-30"/>
       <use x="63.623047" xlink:href="#DejaVuSans-2e"/>
       <use x="95.410156" xlink:href="#DejaVuSans-34"/>
      </g>
     </g>
    </g>
    <g id="ytick_4">
     <g id="line2d_31">
      <path clip-path="url(#pe8d561967f)" d="M 56.12 134.460198 
L 333.168 134.460198 
" style="fill:none;stroke:#b0b0b0;stroke-linecap:square;stroke-width:0.8;"/>
     </g>
     <g id="line2d_32">
      <g>
       <use style="stroke:#000000;stroke-width:0.8;" x="56.12" xlink:href="#mbe5e0e5d2a" y="134.460198"/>
      </g>
     </g>
     <g id="text_9">
      <!-- 0.6 -->
      <g transform="translate(23.675 140.538948)scale(0.16 -0.16)">
       <use xlink:href="#DejaVuSans-30"/>
       <use x="63.623047" xlink:href="#DejaVuSans-2e"/>
       <use x="95.410156" xlink:href="#DejaVuSans-36"/>
      </g>
     </g>
    </g>
    <g id="ytick_5">
     <g id="line2d_33">
      <path clip-path="url(#pe8d561967f)" d="M 56.12 80.986931 
L 333.168 80.986931 
" style="fill:none;stroke:#b0b0b0;stroke-linecap:square;stroke-width:0.8;"/>
     </g>
     <g id="line2d_34">
      <g>
       <use style="stroke:#000000;stroke-width:0.8;" x="56.12" xlink:href="#mbe5e0e5d2a" y="80.986931"/>
      </g>
     </g>
     <g id="text_10">
      <!-- 0.8 -->
      <defs>
       <path d="M 31.78125 34.625 
Q 24.75 34.625 20.71875 30.859375 
Q 16.703125 27.09375 16.703125 20.515625 
Q 16.703125 13.921875 20.71875 10.15625 
Q 24.75 6.390625 31.78125 6.390625 
Q 38.8125 6.390625 42.859375 10.171875 
Q 46.921875 13.96875 46.921875 20.515625 
Q 46.921875 27.09375 42.890625 30.859375 
Q 38.875 34.625 31.78125 34.625 
z
M 21.921875 38.8125 
Q 15.578125 40.375 12.03125 44.71875 
Q 8.5 49.078125 8.5 55.328125 
Q 8.5 64.0625 14.71875 69.140625 
Q 20.953125 74.21875 31.78125 74.21875 
Q 42.671875 74.21875 48.875 69.140625 
Q 55.078125 64.0625 55.078125 55.328125 
Q 55.078125 49.078125 51.53125 44.71875 
Q 48 40.375 41.703125 38.8125 
Q 48.828125 37.15625 52.796875 32.3125 
Q 56.78125 27.484375 56.78125 20.515625 
Q 56.78125 9.90625 50.3125 4.234375 
Q 43.84375 -1.421875 31.78125 -1.421875 
Q 19.734375 -1.421875 13.25 4.234375 
Q 6.78125 9.90625 6.78125 20.515625 
Q 6.78125 27.484375 10.78125 32.3125 
Q 14.796875 37.15625 21.921875 38.8125 
z
M 18.3125 54.390625 
Q 18.3125 48.734375 21.84375 45.5625 
Q 25.390625 42.390625 31.78125 42.390625 
Q 38.140625 42.390625 41.71875 45.5625 
Q 45.3125 48.734375 45.3125 54.390625 
Q 45.3125 60.0625 41.71875 63.234375 
Q 38.140625 66.40625 31.78125 66.40625 
Q 25.390625 66.40625 21.84375 63.234375 
Q 18.3125 60.0625 18.3125 54.390625 
z
" id="DejaVuSans-38"/>
      </defs>
      <g transform="translate(23.675 87.065681)scale(0.16 -0.16)">
       <use xlink:href="#DejaVuSans-30"/>
       <use x="63.623047" xlink:href="#DejaVuSans-2e"/>
       <use x="95.410156" xlink:href="#DejaVuSans-38"/>
      </g>
     </g>
    </g>
    <g id="ytick_6">
     <g id="line2d_35">
      <path clip-path="url(#pe8d561967f)" d="M 56.12 27.513663 
L 333.168 27.513663 
" style="fill:none;stroke:#b0b0b0;stroke-linecap:square;stroke-width:0.8;"/>
     </g>
     <g id="line2d_36">
      <g>
       <use style="stroke:#000000;stroke-width:0.8;" x="56.12" xlink:href="#mbe5e0e5d2a" y="27.513663"/>
      </g>
     </g>
     <g id="text_11">
      <!-- 1.0 -->
      <g transform="translate(23.675 33.592413)scale(0.16 -0.16)">
       <use xlink:href="#DejaVuSans-31"/>
       <use x="63.623047" xlink:href="#DejaVuSans-2e"/>
       <use x="95.410156" xlink:href="#DejaVuSans-30"/>
      </g>
     </g>
    </g>
    <g id="text_12">
     <!-- Fraction of function,target pairs -->
     <defs>
      <path d="M 9.8125 72.90625 
L 51.703125 72.90625 
L 51.703125 64.59375 
L 19.671875 64.59375 
L 19.671875 43.109375 
L 48.578125 43.109375 
L 48.578125 34.8125 
L 19.671875 34.8125 
L 19.671875 0 
L 9.8125 0 
z
" id="DejaVuSans-46"/>
      <path d="M 41.109375 46.296875 
Q 39.59375 47.171875 37.8125 47.578125 
Q 36.03125 48 33.890625 48 
Q 26.265625 48 22.1875 43.046875 
Q 18.109375 38.09375 18.109375 28.8125 
L 18.109375 0 
L 9.078125 0 
L 9.078125 54.6875 
L 18.109375 54.6875 
L 18.109375 46.1875 
Q 20.953125 51.171875 25.484375 53.578125 
Q 30.03125 56 36.53125 56 
Q 37.453125 56 38.578125 55.875 
Q 39.703125 55.765625 41.0625 55.515625 
z
" id="DejaVuSans-72"/>
      <path d="M 48.78125 52.59375 
L 48.78125 44.1875 
Q 44.96875 46.296875 41.140625 47.34375 
Q 37.3125 48.390625 33.40625 48.390625 
Q 24.65625 48.390625 19.8125 42.84375 
Q 14.984375 37.3125 14.984375 27.296875 
Q 14.984375 17.28125 19.8125 11.734375 
Q 24.65625 6.203125 33.40625 6.203125 
Q 37.3125 6.203125 41.140625 7.25 
Q 44.96875 8.296875 48.78125 10.40625 
L 48.78125 2.09375 
Q 45.015625 0.34375 40.984375 -0.53125 
Q 36.96875 -1.421875 32.421875 -1.421875 
Q 20.0625 -1.421875 12.78125 6.34375 
Q 5.515625 14.109375 5.515625 27.296875 
Q 5.515625 40.671875 12.859375 48.328125 
Q 20.21875 56 33.015625 56 
Q 37.15625 56 41.109375 55.140625 
Q 45.0625 54.296875 48.78125 52.59375 
z
" id="DejaVuSans-63"/>
      <path d="M 18.3125 70.21875 
L 18.3125 54.6875 
L 36.8125 54.6875 
L 36.8125 47.703125 
L 18.3125 47.703125 
L 18.3125 18.015625 
Q 18.3125 11.328125 20.140625 9.421875 
Q 21.96875 7.515625 27.59375 7.515625 
L 36.8125 7.515625 
L 36.8125 0 
L 27.59375 0 
Q 17.1875 0 13.234375 3.875 
Q 9.28125 7.765625 9.28125 18.015625 
L 9.28125 47.703125 
L 2.6875 47.703125 
L 2.6875 54.6875 
L 9.28125 54.6875 
L 9.28125 70.21875 
z
" id="DejaVuSans-74"/>
      <path d="M 8.5 21.578125 
L 8.5 54.6875 
L 17.484375 54.6875 
L 17.484375 21.921875 
Q 17.484375 14.15625 20.5 10.265625 
Q 23.53125 6.390625 29.59375 6.390625 
Q 36.859375 6.390625 41.078125 11.03125 
Q 45.3125 15.671875 45.3125 23.6875 
L 45.3125 54.6875 
L 54.296875 54.6875 
L 54.296875 0 
L 45.3125 0 
L 45.3125 8.40625 
Q 42.046875 3.421875 37.71875 1 
Q 33.40625 -1.421875 27.6875 -1.421875 
Q 18.265625 -1.421875 13.375 4.4375 
Q 8.5 10.296875 8.5 21.578125 
z
M 31.109375 56 
z
" id="DejaVuSans-75"/>
      <path d="M 11.71875 12.40625 
L 22.015625 12.40625 
L 22.015625 4 
L 14.015625 -11.625 
L 7.71875 -11.625 
L 11.71875 4 
z
" id="DejaVuSans-2c"/>
      <path d="M 18.109375 8.203125 
L 18.109375 -20.796875 
L 9.078125 -20.796875 
L 9.078125 54.6875 
L 18.109375 54.6875 
L 18.109375 46.390625 
Q 20.953125 51.265625 25.265625 53.625 
Q 29.59375 56 35.59375 56 
Q 45.5625 56 51.78125 48.09375 
Q 58.015625 40.1875 58.015625 27.296875 
Q 58.015625 14.40625 51.78125 6.484375 
Q 45.5625 -1.421875 35.59375 -1.421875 
Q 29.59375 -1.421875 25.265625 0.953125 
Q 20.953125 3.328125 18.109375 8.203125 
z
M 48.6875 27.296875 
Q 48.6875 37.203125 44.609375 42.84375 
Q 40.53125 48.484375 33.40625 48.484375 
Q 26.265625 48.484375 22.1875 42.84375 
Q 18.109375 37.203125 18.109375 27.296875 
Q 18.109375 17.390625 22.1875 11.75 
Q 26.265625 6.109375 33.40625 6.109375 
Q 40.53125 6.109375 44.609375 11.75 
Q 48.6875 17.390625 48.6875 27.296875 
z
" id="DejaVuSans-70"/>
     </defs>
     <g transform="translate(16.139531 294.999375)rotate(-90)scale(0.17 -0.17)">
      <use xlink:href="#DejaVuSans-46"/>
      <use x="57.410156" xlink:href="#DejaVuSans-72"/>
      <use x="98.523438" xlink:href="#DejaVuSans-61"/>
      <use x="159.802734" xlink:href="#DejaVuSans-63"/>
      <use x="214.783203" xlink:href="#DejaVuSans-74"/>
      <use x="253.992188" xlink:href="#DejaVuSans-69"/>
      <use x="281.775391" xlink:href="#DejaVuSans-6f"/>
      <use x="342.957031" xlink:href="#DejaVuSans-6e"/>
      <use x="406.335938" xlink:href="#DejaVuSans-20"/>
      <use x="438.123047" xlink:href="#DejaVuSans-6f"/>
      <use x="499.304688" xlink:href="#DejaVuSans-66"/>
      <use x="534.509766" xlink:href="#DejaVuSans-20"/>
      <use x="566.296875" xlink:href="#DejaVuSans-66"/>
      <use x="601.501953" xlink:href="#DejaVuSans-75"/>
      <use x="664.880859" xlink:href="#DejaVuSans-6e"/>
      <use x="728.259766" xlink:href="#DejaVuSans-63"/>
      <use x="783.240234" xlink:href="#DejaVuSans-74"/>
      <use x="822.449219" xlink:href="#DejaVuSans-69"/>
      <use x="850.232422" xlink:href="#DejaVuSans-6f"/>
      <use x="911.414062" xlink:href="#DejaVuSans-6e"/>
      <use x="974.792969" xlink:href="#DejaVuSans-2c"/>
      <use x="1006.580078" xlink:href="#DejaVuSans-74"/>
      <use x="1045.789062" xlink:href="#DejaVuSans-61"/>
      <use x="1107.068359" xlink:href="#DejaVuSans-72"/>
      <use x="1148.166016" xlink:href="#DejaVuSans-67"/>
      <use x="1211.642578" xlink:href="#DejaVuSans-65"/>
      <use x="1273.166016" xlink:href="#DejaVuSans-74"/>
      <use x="1312.375" xlink:href="#DejaVuSans-20"/>
      <use x="1344.162109" xlink:href="#DejaVuSans-70"/>
      <use x="1407.638672" xlink:href="#DejaVuSans-61"/>
      <use x="1468.917969" xlink:href="#DejaVuSans-69"/>
      <use x="1496.701172" xlink:href="#DejaVuSans-72"/>
      <use x="1537.814453" xlink:href="#DejaVuSans-73"/>
     </g>
    </g>
   </g>
   <g id="line2d_37">
    <defs>
     <path d="M 0 1.5 
C 0.397805 1.5 0.77937 1.341951 1.06066 1.06066 
C 1.341951 0.77937 1.5 0.397805 1.5 0 
C 1.5 -0.397805 1.341951 -0.77937 1.06066 -1.06066 
C 0.77937 -1.341951 0.397805 -1.5 0 -1.5 
C -0.397805 -1.5 -0.77937 -1.341951 -1.06066 -1.06066 
C -1.341951 -0.77937 -1.5 -0.397805 -1.5 0 
C -1.5 0.397805 -1.341951 0.77937 -1.06066 1.06066 
C -0.77937 1.341951 -0.397805 1.5 0 1.5 
z
" id="mbf56f68daf" style="stroke:#00bfbf;"/>
    </defs>
    <g>
     <use style="fill:#00bfbf;stroke:#00bfbf;" x="169.398253" xlink:href="#mbf56f68daf" y="27.513663"/>
     <use style="fill:#00bfbf;stroke:#00bfbf;" x="169.398253" xlink:href="#mbf56f68daf" y="27.513663"/>
    </g>
   </g>
   <g id="line2d_38">
    <path d="M 44.205749 294.88 
L 44.205749 288.06478 
L 63.08939 288.06478 
L 63.08939 287.540532 
L 68.034251 287.540532 
L 68.034251 287.016284 
L 75.003641 287.016284 
L 75.003641 286.492036 
L 77.653281 286.492036 
L 77.653281 285.967789 
L 79.948502 285.967789 
L 79.948502 284.919293 
L 81.973032 284.919293 
L 81.973032 281.773807 
L 88.293717 281.773807 
L 88.293717 280.201064 
L 89.567532 280.201064 
L 89.567532 278.628321 
L 90.753425 278.628321 
L 90.753425 277.055578 
L 91.862754 277.055578 
L 91.862754 273.910091 
L 92.904808 273.910091 
L 92.904808 271.8131 
L 93.887283 271.8131 
L 93.887283 269.716109 
L 94.816624 269.716109 
L 94.816624 269.191862 
L 97.336537 269.191862 
L 97.336537 268.667614 
L 98.100602 268.667614 
L 98.100602 264.99788 
L 98.832144 264.99788 
L 98.832144 261.852394 
L 99.533818 261.852394 
L 99.533818 261.328146 
L 100.207968 261.328146 
L 100.207968 259.755403 
L 100.856673 259.755403 
L 100.856673 258.706907 
L 102.084955 258.706907 
L 102.084955 257.658412 
L 103.231288 257.658412 
L 103.231288 257.134164 
L 103.777005 257.134164 
L 103.777005 252.415935 
L 105.317315 252.415935 
L 105.317315 249.270448 
L 106.272485 249.270448 
L 106.272485 248.746201 
L 108.451173 248.746201 
L 108.451173 247.697705 
L 109.250788 247.697705 
L 109.250788 246.64921 
L 110.014853 246.64921 
L 110.014853 246.124962 
L 111.100812 246.124962 
L 111.100812 244.027971 
L 111.788449 244.027971 
L 111.788449 243.503724 
L 112.449632 243.503724 
L 112.449632 242.979476 
L 112.770924 242.979476 
L 112.770924 242.455228 
L 113.086321 242.455228 
L 113.086321 240.358237 
L 113.396034 240.358237 
L 113.396034 239.309742 
L 113.700266 239.309742 
L 113.700266 237.736999 
L 113.999206 237.736999 
L 113.999206 234.591512 
L 114.293036 234.591512 
L 114.293036 234.067265 
L 116.220179 234.067265 
L 116.220179 233.543017 
L 116.478659 233.543017 
L 116.478659 232.494521 
L 116.73331 232.494521 
L 116.73331 231.970274 
L 116.984244 231.970274 
L 116.984244 231.446026 
L 117.231566 231.446026 
L 117.231566 230.397531 
L 117.475381 230.397531 
L 117.475381 228.824787 
L 117.952873 228.824787 
L 117.952873 226.727797 
L 119.09161 226.727797 
L 119.09161 226.203549 
L 121.16504 226.203549 
L 121.16504 225.155053 
L 121.929105 225.155053 
L 121.929105 224.106558 
L 123.189569 224.106558 
L 123.189569 223.58231 
L 123.36232 223.58231 
L 123.36232 223.058063 
L 124.200956 223.058063 
L 124.200956 222.533815 
L 124.363883 222.533815 
L 124.363883 222.009567 
L 124.52528 222.009567 
L 124.52528 221.485319 
L 125.156126 221.485319 
L 125.156126 220.436824 
L 127.334814 220.436824 
L 127.334814 219.388328 
L 127.872003 219.388328 
L 127.872003 218.864081 
L 128.264156 218.864081 
L 128.264156 218.339833 
L 128.647561 218.339833 
L 128.647561 217.815585 
L 129.022601 217.815585 
L 129.022601 217.291338 
L 130.33171 217.291338 
L 130.33171 216.242842 
L 130.445921 216.242842 
L 130.445921 215.718594 
L 130.67209 215.718594 
L 130.67209 215.194347 
L 130.895323 215.194347 
L 131.005861 214.145851 
L 131.224827 214.145851 
L 131.224827 211.524613 
L 131.969962 211.524613 
L 131.969962 211.000365 
L 132.279675 211.000365 
L 132.381685 205.757888 
L 132.684132 205.757888 
L 132.684132 202.612401 
L 132.882847 202.612401 
L 132.882847 201.039658 
L 133.176677 201.039658 
L 133.273515 199.991163 
L 133.560797 199.991163 
L 133.560797 199.466915 
L 134.39491 199.466915 
L 134.39491 198.942667 
L 134.753019 198.942667 
L 134.841393 195.272933 
L 135.016789 195.272933 
L 135.016789 194.748686 
L 135.190413 194.748686 
L 135.190413 194.224438 
L 135.3623 194.224438 
L 135.3623 193.70019 
L 136.196864 193.70019 
L 136.196864 193.175943 
L 136.757848 193.175943 
L 136.836515 190.554704 
L 137.301101 190.554704 
L 137.301101 187.409218 
L 137.528768 187.409218 
L 137.528768 185.836474 
L 137.678888 185.836474 
L 137.678888 184.263731 
L 137.827708 184.263731 
L 137.901638 183.215236 
L 138.33866 183.215236 
L 138.33866 180.593997 
L 138.694545 180.593997 
L 138.694545 180.06975 
L 138.974042 180.06975 
L 139.043211 177.448511 
L 139.112104 177.448511 
L 139.180721 174.827272 
L 139.519758 174.827272 
L 139.519758 174.303025 
L 139.983449 174.303025 
L 139.983449 169.584795 
L 140.242905 169.584795 
L 140.242905 168.5363 
L 140.434959 168.5363 
L 140.498503 166.963557 
L 140.561812 166.963557 
L 140.561812 166.439309 
L 140.874911 166.439309 
L 140.874911 165.915061 
L 141.060069 165.915061 
L 141.060069 164.866566 
L 141.603867 164.866566 
L 141.603867 164.342318 
L 141.72241 164.342318 
L 141.72241 163.293823 
L 141.84014 163.293823 
L 141.84014 162.245327 
L 142.07321 162.245327 
L 142.07321 161.196832 
L 142.303162 161.196832 
L 142.303162 160.148336 
L 142.416994 160.148336 
L 142.473629 159.099841 
L 142.754037 159.099841 
L 142.754037 158.575593 
L 142.975116 158.575593 
L 143.084598 152.28462 
L 143.193387 152.28462 
L 143.247524 151.236125 
L 143.408921 151.236125 
L 143.462385 150.18763 
L 143.674593 150.18763 
L 143.674593 149.139134 
L 144.039767 149.139134 
L 144.142694 147.042143 
L 144.193927 147.042143 
L 144.193927 146.517896 
L 144.346715 146.517896 
L 144.346715 145.993648 
L 144.698028 145.993648 
L 144.747635 144.420905 
L 144.944641 144.420905 
L 144.944641 143.896657 
L 145.139415 143.896657 
L 145.139415 142.323914 
L 145.332007 142.323914 
L 145.332007 140.751171 
L 145.663936 140.751171 
L 145.710835 139.178427 
L 145.85077 139.178427 
L 145.85077 138.129932 
L 145.989576 138.129932 
L 146.081494 133.93595 
L 146.127269 133.93595 
L 146.127269 133.411703 
L 146.309161 133.411703 
L 146.354335 132.363207 
L 146.444328 132.363207 
L 146.444328 129.741969 
L 146.57844 129.741969 
L 146.622913 126.596482 
L 146.843566 126.596482 
L 146.843566 125.023739 
L 147.061422 125.023739 
L 147.061422 121.354005 
L 147.319256 121.354005 
L 147.404349 119.257014 
L 147.657127 119.257014 
L 147.657127 118.732766 
L 148.029459 118.732766 
L 148.070335 117.684271 
L 148.273273 117.684271 
L 148.273273 117.160023 
L 148.711478 117.160023 
L 148.711478 116.635776 
L 148.868095 116.635776 
L 148.868095 116.111528 
L 149.061881 116.111528 
L 149.061881 115.58728 
L 149.215352 115.58728 
L 149.215352 115.063032 
L 149.443019 115.063032 
L 149.480672 114.014537 
L 149.593139 114.014537 
L 149.593139 111.917546 
L 149.815889 111.917546 
L 149.926191 110.869051 
L 150.252912 110.869051 
L 150.360453 109.820555 
L 150.467326 109.820555 
L 150.467326 108.247812 
L 150.749113 108.247812 
L 150.853603 104.578078 
L 150.991943 104.578078 
L 150.991943 104.05383 
L 151.231391 104.05383 
L 151.231391 103.529583 
L 151.467548 103.529583 
L 151.53443 101.956839 
L 151.634268 101.956839 
L 151.634268 100.908344 
L 151.799385 100.908344 
L 151.799385 96.190115 
L 152.28543 96.190115 
L 152.317349 95.141619 
L 152.444438 95.141619 
L 152.444438 94.093124 
L 152.570594 94.093124 
L 152.570594 91.471885 
L 152.820161 91.471885 
L 152.820161 90.947637 
L 152.943598 90.947637 
L 153.035598 87.277903 
L 153.54783 87.277903 
L 153.636661 86.229408 
L 153.783699 86.229408 
L 153.783699 85.70516 
L 153.9585 85.70516 
L 153.987461 84.656665 
L 154.188837 84.656665 
L 154.274423 82.559674 
L 154.331245 82.559674 
L 154.416128 78.365692 
L 154.528656 78.365692 
L 154.528656 74.17171 
L 154.751526 74.17171 
L 154.751526 73.123215 
L 154.944195 73.123215 
L 154.944195 70.501976 
L 155.215743 70.501976 
L 155.215743 69.977729 
L 155.509573 69.977729 
L 155.536037 66.832242 
L 155.798464 66.832242 
L 155.798464 65.783747 
L 155.979808 65.783747 
L 155.979808 65.259499 
L 156.210188 65.259499 
L 156.210188 64.735251 
L 156.362076 64.735251 
L 156.362076 61.065517 
L 156.686635 61.065517 
L 156.686635 60.54127 
L 156.809852 60.54127 
L 156.809852 58.444279 
L 157.294071 58.444279 
L 157.294071 57.920031 
L 160.625729 57.920031 
L 160.625729 57.395783 
L 161.300635 57.395783 
L 161.300635 56.871536 
L 162.363811 56.871536 
L 162.363811 56.347288 
L 163.145642 56.347288 
L 163.145642 55.82304 
L 163.465361 55.82304 
L 163.565102 54.250297 
L 163.762864 54.250297 
L 163.828282 53.201802 
L 163.893453 53.201802 
L 163.990747 48.483572 
L 164.516239 48.483572 
L 164.531915 46.386581 
L 164.734412 46.386581 
L 164.780805 45.338086 
L 164.919238 45.338086 
L 164.919238 44.813838 
L 165.207874 44.813838 
L 165.207874 44.28959 
L 165.387704 44.28959 
L 165.417494 39.571361 
L 165.565672 39.571361 
L 165.565672 39.047113 
L 165.887238 39.047113 
L 165.887238 38.522865 
L 166.400795 38.522865 
L 166.400795 37.998618 
L 167.062508 37.998618 
L 167.062508 37.47437 
L 168.098993 37.47437 
L 168.098993 36.950122 
L 168.301512 36.950122 
L 168.38937 35.901627 
L 168.451851 35.901627 
L 168.451851 35.377379 
L 168.687231 35.377379 
L 168.687231 34.328884 
L 168.822044 34.328884 
L 168.846443 30.134902 
L 168.99211 30.134902 
L 169.004193 28.562159 
L 169.398253 28.562159 
L 169.398253 27.513663 
L 333.168 27.513663 
L 333.168 27.513663 
" style="fill:none;stroke:#00bfbf;stroke-linecap:square;stroke-width:1.5;"/>
   </g>
   <g id="line2d_39">
    <defs>
     <path d="M -6 0 
L 6 0 
M 0 6 
L 0 -6 
" id="m7f06b05800" style="stroke:#00bfbf;stroke-width:1.5;"/>
    </defs>
    <g>
     <use style="fill-opacity:0;stroke:#00bfbf;stroke-width:1.5;" x="131.005861" xlink:href="#m7f06b05800" y="214.670099"/>
     <use style="fill-opacity:0;stroke:#00bfbf;stroke-width:1.5;" x="149.443019" xlink:href="#m7f06b05800" y="115.063032"/>
     <use style="fill-opacity:0;stroke:#00bfbf;stroke-width:1.5;" x="169.398253" xlink:href="#m7f06b05800" y="28.562159"/>
     <use style="fill-opacity:0;stroke:#00bfbf;stroke-width:1.5;" x="169.398253" xlink:href="#m7f06b05800" y="27.513663"/>
     <use style="fill-opacity:0;stroke:#00bfbf;stroke-width:1.5;" x="169.398253" xlink:href="#m7f06b05800" y="27.513663"/>
     <use style="fill-opacity:0;stroke:#00bfbf;stroke-width:1.5;" x="333.168" xlink:href="#m7f06b05800" y="27.513663"/>
    </g>
   </g>
   <g id="line2d_40">
    <path style="fill:none;stroke:#00bfbf;stroke-linecap:square;stroke-width:1.5;"/>
    <g/>
   </g>
   <g id="line2d_41">
    <defs>
     <path d="M 0 1.5 
C 0.397805 1.5 0.77937 1.341951 1.06066 1.06066 
C 1.341951 0.77937 1.5 0.397805 1.5 0 
C 1.5 -0.397805 1.341951 -0.77937 1.06066 -1.06066 
C 0.77937 -1.341951 0.397805 -1.5 0 -1.5 
C -0.397805 -1.5 -0.77937 -1.341951 -1.06066 -1.06066 
C -1.341951 -0.77937 -1.5 -0.397805 -1.5 0 
C -1.5 0.397805 -1.341951 0.77937 -1.06066 1.06066 
C -0.77937 1.341951 -0.397805 1.5 0 1.5 
z
" id="m2c1c14241e" style="stroke:#008000;"/>
    </defs>
    <g>
     <use style="fill:#008000;stroke:#008000;" x="163.515304" xlink:href="#m2c1c14241e" y="27.513663"/>
     <use style="fill:#008000;stroke:#008000;" x="163.515304" xlink:href="#m2c1c14241e" y="27.513663"/>
    </g>
   </g>
   <g id="line2d_42">
    <path d="M 79.948502 294.88 
L 79.948502 294.355752 
L 81.324327 294.355752 
L 81.324327 293.307257 
L 90.367147 293.307257 
L 90.367147 292.783009 
L 91.862754 292.783009 
L 91.862754 291.210266 
L 92.564428 291.210266 
L 92.564428 290.686018 
L 93.238578 290.686018 
L 93.238578 290.161771 
L 95.115564 290.161771 
L 95.115564 289.113275 
L 97.336537 289.113275 
L 97.336537 287.540532 
L 98.347925 287.540532 
L 98.347925 285.967789 
L 98.832144 285.967789 
L 98.832144 285.443541 
L 100.207968 285.443541 
L 100.207968 284.919293 
L 101.481783 284.919293 
L 101.481783 284.395046 
L 101.88624 284.395046 
L 101.88624 283.34655 
L 103.045463 283.34655 
L 103.045463 282.822302 
L 103.415125 282.822302 
L 103.415125 282.298055 
L 104.131422 282.298055 
L 104.131422 280.201064 
L 104.478679 280.201064 
L 104.478679 278.628321 
L 105.480242 278.628321 
L 105.480242 276.53133 
L 106.730875 276.53133 
L 106.730875 276.007082 
L 107.029816 276.007082 
L 107.029816 273.910091 
L 107.896653 273.910091 
L 107.896653 270.764605 
L 109.250788 270.764605 
L 109.250788 269.716109 
L 110.262176 269.716109 
L 110.262176 269.191862 
L 110.505991 269.191862 
L 110.505991 267.619119 
L 110.746395 267.619119 
L 110.746395 267.094871 
L 110.983483 267.094871 
L 110.983483 263.949385 
L 111.217346 263.949385 
L 111.217346 261.328146 
L 111.448069 261.328146 
L 111.448069 260.279651 
L 111.675736 260.279651 
L 111.675736 259.755403 
L 112.122219 259.755403 
L 112.122219 259.231155 
L 112.557398 259.231155 
L 112.557398 257.658412 
L 112.98183 257.658412 
L 112.98183 257.134164 
L 113.999206 257.134164 
L 113.999206 256.609917 
L 117.715785 256.609917 
L 117.715785 256.085669 
L 118.944067 256.085669 
L 118.944067 255.037173 
L 119.09161 255.037173 
L 119.09161 254.512926 
L 119.382949 254.512926 
L 119.382949 252.940182 
L 120.501303 252.940182 
L 120.501303 252.415935 
L 120.769881 252.415935 
L 120.769881 251.891687 
L 121.294766 251.891687 
L 121.294766 251.367439 
L 121.551317 251.367439 
L 121.551317 250.843192 
L 122.540864 250.843192 
L 122.540864 250.318944 
L 122.660646 250.318944 
L 122.660646 247.697705 
L 122.779599 247.697705 
L 122.779599 247.173458 
L 123.015063 247.173458 
L 123.015063 246.64921 
L 123.247346 246.64921 
L 123.247346 246.124962 
L 123.476531 246.124962 
L 123.476531 245.600714 
L 123.925932 245.600714 
L 124.036471 243.503724 
L 124.471649 243.503724 
L 124.471649 242.979476 
L 125.207666 242.979476 
L 125.207666 242.455228 
L 125.412295 242.455228 
L 125.412295 241.406733 
L 125.814387 241.406733 
L 125.913457 240.358237 
L 126.591406 240.358237 
L 126.591406 239.83399 
L 127.42552 239.83399 
L 127.42552 238.785494 
L 127.783629 238.785494 
L 127.783629 238.261246 
L 128.981332 238.261246 
L 129.063771 237.212751 
L 130.407935 237.212751 
L 130.407935 236.688503 
L 131.36927 236.688503 
L 131.36927 235.640008 
L 131.583684 235.640008 
L 131.583684 235.11576 
L 132.142713 235.11576 
L 132.142713 234.591512 
L 132.550368 234.591512 
L 132.550368 234.067265 
L 133.079291 234.067265 
L 133.079291 233.018769 
L 133.529112 233.018769 
L 133.529112 231.970274 
L 133.780965 231.970274 
L 133.780965 231.446026 
L 134.811986 231.446026 
L 134.811986 230.921778 
L 134.98768 230.921778 
L 135.045848 229.873283 
L 135.21918 229.873283 
L 135.21918 228.824787 
L 135.560688 228.824787 
L 135.560688 228.30054 
L 135.950722 228.30054 
L 135.950722 227.776292 
L 136.169688 227.776292 
L 136.223997 226.727797 
L 136.492995 226.727797 
L 136.492995 226.203549 
L 136.757848 226.203549 
L 136.757848 225.679301 
L 137.87703 225.679301 
L 137.87703 225.155053 
L 138.362617 225.155053 
L 138.362617 224.630806 
L 139.112104 224.630806 
L 139.112104 224.106558 
L 139.249066 224.106558 
L 139.249066 223.58231 
L 139.519758 223.58231 
L 139.519758 223.058063 
L 139.742124 223.058063 
L 139.742124 222.533815 
L 139.874176 222.533815 
L 139.874176 222.009567 
L 140.221432 222.009567 
L 140.221432 221.485319 
L 140.60389 221.485319 
L 140.687737 220.436824 
L 140.936852 220.436824 
L 140.936852 219.388328 
L 141.100945 219.388328 
L 141.100945 218.864081 
L 141.464526 218.864081 
L 141.464526 217.291338 
L 141.58403 217.291338 
L 141.58403 216.76709 
L 141.781376 216.76709 
L 141.781376 216.242842 
L 141.937637 216.242842 
L 142.015238 212.573108 
L 142.053908 212.573108 
L 142.053908 212.04886 
L 142.473629 212.04886 
L 142.511282 210.476117 
L 142.735485 210.476117 
L 142.846499 202.088154 
L 143.029944 202.088154 
L 143.139078 197.894172 
L 143.175303 197.894172 
L 143.247524 196.845677 
L 143.426761 196.845677 
L 143.426761 196.321429 
L 143.568817 196.321429 
L 143.674593 193.175943 
L 143.744751 193.175943 
L 143.744751 192.127447 
L 143.884213 192.127447 
L 143.988072 189.506209 
L 144.022553 189.506209 
L 144.022553 188.457713 
L 144.193927 188.457713 
L 144.193927 186.360722 
L 144.431015 186.360722 
L 144.498158 185.312227 
L 144.56504 185.312227 
L 144.664877 184.263731 
L 144.993542 184.263731 
L 144.993542 183.739484 
L 145.123268 183.739484 
L 145.219924 179.545502 
L 145.252022 179.545502 
L 145.347959 177.448511 
L 145.411621 177.448511 
L 145.443364 176.400016 
L 145.72644 176.400016 
L 145.788718 168.012052 
L 145.85077 168.012052 
L 145.85077 167.487804 
L 146.127269 167.487804 
L 146.218456 165.915061 
L 146.33929 165.915061 
L 146.429362 158.051345 
L 146.548728 158.051345 
L 146.548728 157.527098 
L 146.696779 157.527098 
L 146.696779 157.00285 
L 146.843566 157.00285 
L 146.93104 154.381611 
L 147.133431 154.381611 
L 147.133431 153.333116 
L 147.248023 153.333116 
L 147.248023 152.808868 
L 147.41849 152.808868 
L 147.503094 149.139134 
L 147.531203 149.139134 
L 147.531203 148.090639 
L 147.726689 148.090639 
L 147.837405 140.751171 
L 147.947413 140.751171 
L 148.002154 139.702675 
L 148.111115 139.702675 
L 148.165338 133.93595 
L 148.460544 133.93595 
L 148.513678 130.266216 
L 148.672099 130.266216 
L 148.750766 126.596482 
L 148.803011 126.596482 
L 148.907027 118.732766 
L 149.215352 118.732766 
L 149.31691 117.684271 
L 149.342206 117.684271 
L 149.342206 116.111528 
L 149.66771 116.111528 
L 149.717245 115.063032 
L 149.889502 115.063032 
L 149.938403 112.441794 
L 150.132627 112.441794 
L 150.132627 111.917546 
L 150.324681 111.917546 
L 150.324681 108.247812 
L 150.538207 108.247812 
L 150.538207 107.199317 
L 150.818844 107.199317 
L 150.818844 106.675069 
L 150.934437 106.675069 
L 151.003421 105.626573 
L 151.478713 105.626573 
L 151.567774 102.481087 
L 152.454986 102.481087 
L 152.497115 101.432592 
L 152.768465 101.432592 
L 152.830481 98.287105 
L 153.197948 98.287105 
L 153.197948 96.714362 
L 153.458539 96.714362 
L 153.458539 96.190115 
L 153.636661 96.190115 
L 153.675994 94.617371 
L 153.754391 94.617371 
L 153.851888 92.520381 
L 153.890733 92.520381 
L 153.890733 91.471885 
L 154.026001 91.471885 
L 154.064454 88.850646 
L 154.236437 88.850646 
L 154.236437 88.326399 
L 154.444329 88.326399 
L 154.500593 87.277903 
L 154.742297 87.277903 
L 154.742297 83.608169 
L 154.998849 83.608169 
L 155.071451 80.986931 
L 155.125703 80.986931 
L 155.125703 80.462683 
L 155.323172 80.462683 
L 155.323172 79.938435 
L 155.465375 79.938435 
L 155.465375 79.414188 
L 155.606411 79.414188 
L 155.711433 75.220206 
L 155.919572 75.220206 
L 155.919572 74.695958 
L 156.429154 74.695958 
L 156.445883 73.647463 
L 156.579129 73.647463 
L 156.645366 72.598967 
L 157.102017 72.598967 
L 157.102017 72.074719 
L 157.609467 72.074719 
L 157.718503 70.501976 
L 157.857683 70.501976 
L 157.919181 68.929233 
L 158.04152 68.929233 
L 158.132707 67.880738 
L 158.208328 67.880738 
L 158.313642 66.307995 
L 158.4034 66.307995 
L 158.477842 64.735251 
L 158.713912 64.735251 
L 158.787024 63.162508 
L 158.859827 63.162508 
L 158.946785 57.395783 
L 159.018915 57.395783 
L 159.018915 54.774545 
L 159.375095 54.774545 
L 159.38919 53.726049 
L 159.571378 53.726049 
L 159.571378 53.201802 
L 159.792992 53.201802 
L 159.792992 52.677554 
L 159.930063 52.677554 
L 160.038938 49.00782 
L 160.187524 49.00782 
L 160.254641 47.435077 
L 160.388094 47.435077 
L 160.441186 46.386581 
L 160.533705 46.386581 
L 160.533705 45.338086 
L 160.756342 45.338086 
L 160.756342 44.28959 
L 161.027441 44.28959 
L 161.027441 41.668352 
L 161.306937 41.668352 
L 161.306937 39.571361 
L 161.41998 39.571361 
L 161.41998 39.047113 
L 161.791506 39.047113 
L 161.901416 36.425875 
L 162.071002 36.425875 
L 162.11915 33.280388 
L 162.405236 33.280388 
L 162.405236 31.707645 
L 162.917672 31.707645 
L 163.009223 28.562159 
L 163.168273 28.562159 
L 163.168273 28.037911 
L 163.515304 28.037911 
L 163.515304 27.513663 
L 333.168 27.513663 
L 333.168 27.513663 
" style="fill:none;stroke:#008000;stroke-linecap:square;stroke-width:1.5;"/>
   </g>
   <g id="line2d_43">
    <defs>
     <path d="M -0 6 
L 6 -6 
L -6 -6 
z
" id="m268cff18b4" style="stroke:#008000;stroke-linejoin:miter;stroke-width:1.5;"/>
    </defs>
    <g>
     <use style="fill-opacity:0;stroke:#008000;stroke-linejoin:miter;stroke-width:1.5;" x="144.498158" xlink:href="#m268cff18b4" y="185.312227"/>
     <use style="fill-opacity:0;stroke:#008000;stroke-linejoin:miter;stroke-width:1.5;" x="163.515304" xlink:href="#m268cff18b4" y="28.037911"/>
     <use style="fill-opacity:0;stroke:#008000;stroke-linejoin:miter;stroke-width:1.5;" x="163.515304" xlink:href="#m268cff18b4" y="27.513663"/>
     <use style="fill-opacity:0;stroke:#008000;stroke-linejoin:miter;stroke-width:1.5;" x="163.515304" xlink:href="#m268cff18b4" y="27.513663"/>
     <use style="fill-opacity:0;stroke:#008000;stroke-linejoin:miter;stroke-width:1.5;" x="333.168" xlink:href="#m268cff18b4" y="27.513663"/>
    </g>
   </g>
   <g id="line2d_44">
    <path style="fill:none;stroke:#008000;stroke-linecap:square;stroke-width:1.5;"/>
    <g/>
   </g>
   <g id="line2d_45">
    <defs>
     <path d="M 0 1.5 
C 0.397805 1.5 0.77937 1.341951 1.06066 1.06066 
C 1.341951 0.77937 1.5 0.397805 1.5 0 
C 1.5 -0.397805 1.341951 -0.77937 1.06066 -1.06066 
C 0.77937 -1.341951 0.397805 -1.5 0 -1.5 
C -0.397805 -1.5 -0.77937 -1.341951 -1.06066 -1.06066 
C -1.341951 -0.77937 -1.5 -0.397805 -1.5 0 
C -1.5 0.397805 -1.341951 0.77937 -1.06066 1.06066 
C -0.77937 1.341951 -0.397805 1.5 0 1.5 
z
" id="mb55acaecb9" style="stroke:#0000ff;"/>
    </defs>
    <g>
     <use style="fill:#0000ff;stroke:#0000ff;" x="177.737655" xlink:href="#mb55acaecb9" y="27.513663"/>
     <use style="fill:#0000ff;stroke:#0000ff;" x="177.737655" xlink:href="#mb55acaecb9" y="27.513663"/>
    </g>
   </g>
   <g id="line2d_46">
    <path d="M 99.941473 294.88 
L 99.941473 294.355752 
L 103.341826 294.355752 
L 103.341826 293.831505 
L 105.991465 293.831505 
L 105.991465 293.307257 
L 107.26528 293.307257 
L 107.26528 292.258761 
L 108.451173 292.258761 
L 108.451173 291.210266 
L 109.093814 291.210266 
L 109.093814 290.686018 
L 110.163674 290.686018 
L 110.163674 290.161771 
L 111.030511 290.161771 
L 111.030511 289.113275 
L 111.448069 289.113275 
L 111.448069 287.540532 
L 112.122219 287.540532 
L 112.122219 286.492036 
L 112.643127 286.492036 
L 112.643127 285.967789 
L 112.897778 285.967789 
L 112.897778 285.443541 
L 113.148711 285.443541 
L 113.148711 284.919293 
L 114.117341 284.919293 
L 114.117341 283.870798 
L 114.466953 283.870798 
L 114.466953 283.34655 
L 115.58349 283.34655 
L 115.58349 282.822302 
L 115.798351 282.822302 
L 115.798351 282.298055 
L 116.115688 282.298055 
L 116.115688 281.773807 
L 116.427273 281.773807 
L 116.427273 281.249559 
L 118.645127 281.249559 
L 118.645127 280.725312 
L 119.267005 280.725312 
L 119.267005 280.201064 
L 119.782703 280.201064 
L 119.867168 279.152568 
L 120.034863 279.152568 
L 120.118102 278.104073 
L 120.283378 278.104073 
L 120.365424 277.055578 
L 120.528351 277.055578 
L 120.609239 276.007082 
L 121.242993 276.007082 
L 121.242993 275.482834 
L 121.70343 275.482834 
L 121.70343 274.958587 
L 121.854208 274.958587 
L 121.929105 273.910091 
L 122.077925 273.910091 
L 122.077925 273.385844 
L 122.298767 273.385844 
L 122.298767 272.861596 
L 122.874172 272.861596 
L 122.874172 272.337348 
L 123.015063 272.337348 
L 123.015063 271.8131 
L 123.499282 271.8131 
L 123.499282 270.764605 
L 123.836987 270.764605 
L 123.836987 270.240357 
L 123.970233 270.240357 
L 123.970233 269.716109 
L 124.168185 269.716109 
L 124.168185 269.191862 
L 124.621395 269.191862 
L 124.621395 268.667614 
L 124.748719 268.667614 
L 124.812029 267.094871 
L 124.937954 267.094871 
L 125.000572 266.046375 
L 125.062963 266.046375 
L 125.062963 265.522128 
L 125.5541 265.522128 
L 125.5541 264.473632 
L 126.438787 264.473632 
L 126.438787 263.949385 
L 126.892639 263.949385 
L 126.892639 263.425137 
L 127.115148 263.425137 
L 127.115148 262.376641 
L 127.28016 262.376641 
L 127.28016 261.852394 
L 127.605507 261.852394 
L 127.605507 261.328146 
L 127.7659 261.328146 
L 127.7659 260.279651 
L 128.186438 260.279651 
L 128.186438 259.755403 
L 128.39291 259.755403 
L 128.39291 258.18266 
L 129.047315 258.18266 
L 129.047315 257.658412 
L 129.194858 257.658412 
L 129.194858 257.134164 
L 129.341145 257.134164 
L 129.341145 256.609917 
L 129.486197 256.609917 
L 129.486197 256.085669 
L 129.725264 256.085669 
L 129.725264 255.561421 
L 130.649607 255.561421 
L 130.649607 255.037173 
L 131.181257 255.037173 
L 131.224827 253.988678 
L 132.279675 253.988678 
L 132.279675 253.46443 
L 132.402015 253.46443 
L 132.402015 252.940182 
L 132.684132 252.940182 
L 132.684132 252.415935 
L 133.880682 252.415935 
L 133.880682 251.891687 
L 134.431058 251.891687 
L 134.431058 251.367439 
L 134.999329 251.367439 
L 135.03423 249.270448 
L 135.276571 249.270448 
L 135.276571 248.746201 
L 135.650622 248.746201 
L 135.650622 248.221953 
L 137.558897 248.221953 
L 137.558897 247.697705 
L 138.09238 247.697705 
L 138.09238 247.173458 
L 138.266591 247.173458 
L 138.266591 246.64921 
L 138.52464 246.64921 
L 138.581462 245.076467 
L 138.862788 245.076467 
L 138.862788 244.552219 
L 139.438997 244.552219 
L 139.438997 244.027971 
L 139.996515 244.027971 
L 140.074705 242.979476 
L 141.96872 242.979476 
L 141.991995 241.93098 
L 142.541345 241.93098 
L 142.563858 240.882485 
L 142.898061 240.882485 
L 142.898061 240.358237 
L 144.091308 240.358237 
L 144.091308 239.83399 
L 144.295937 239.83399 
L 144.295937 239.309742 
L 144.77733 239.309742 
L 144.77733 238.785494 
L 145.090928 238.785494 
L 145.090928 238.261246 
L 145.34158 238.261246 
L 145.34158 237.736999 
L 146.035596 237.736999 
L 146.108974 235.640008 
L 146.291058 235.640008 
L 146.381382 234.591512 
L 146.738006 234.591512 
L 146.738006 234.067265 
L 147.12193 234.067265 
L 147.173625 232.494521 
L 147.429795 232.494521 
L 147.429795 231.970274 
L 147.798735 231.970274 
L 147.798735 230.921778 
L 148.577222 230.921778 
L 148.640531 229.349035 
L 149.046458 229.349035 
L 149.154128 227.776292 
L 149.291576 227.776292 
L 149.321972 226.727797 
L 149.518243 226.727797 
L 149.518243 225.679301 
L 149.741959 225.679301 
L 149.741959 225.155053 
L 150.353304 225.155053 
L 150.438891 223.058063 
L 150.763082 223.058063 
L 150.818844 222.009567 
L 151.353248 222.009567 
L 151.460846 220.961072 
L 151.936869 220.961072 
L 152.027918 219.912576 
L 152.208581 219.912576 
L 152.298205 218.864081 
L 152.374656 218.864081 
L 152.374656 218.339833 
L 152.589437 218.339833 
L 152.589437 217.815585 
L 152.764323 217.815585 
L 152.764323 217.291338 
L 152.97432 217.291338 
L 153.072261 215.718594 
L 153.38677 215.718594 
L 153.482395 213.621604 
L 153.64847 213.621604 
L 153.707396 212.04886 
L 153.929489 212.04886 
L 153.929489 211.524613 
L 154.05677 211.524613 
L 154.05677 211.000365 
L 154.183116 211.000365 
L 154.183116 210.476117 
L 154.701632 210.476117 
L 154.801276 208.903374 
L 154.834363 208.903374 
L 154.944195 206.806383 
L 154.95514 206.806383 
L 154.977008 205.757888 
L 155.140141 205.757888 
L 155.140141 205.23364 
L 155.333878 205.23364 
L 155.387309 204.185145 
L 155.514869 204.185145 
L 155.536037 203.136649 
L 155.651999 203.136649 
L 155.704451 202.088154 
L 155.767184 202.088154 
L 155.767184 201.563906 
L 155.912675 201.563906 
L 155.943692 199.466915 
L 156.189834 199.466915 
L 156.271104 197.894172 
L 156.422458 197.894172 
L 156.442538 196.321429 
L 156.632139 196.321429 
L 156.661886 195.272933 
L 157.005179 195.272933 
L 157.073023 193.175943 
L 157.322695 193.175943 
L 157.417765 190.554704 
L 157.446184 190.554704 
L 157.446184 190.030456 
L 157.568792 190.030456 
L 157.568792 189.506209 
L 157.690531 189.506209 
L 157.765022 187.933465 
L 157.811415 187.933465 
L 157.894608 186.88497 
L 158.169046 186.88497 
L 158.214363 185.836474 
L 158.340618 185.836474 
L 158.41235 182.690988 
L 158.47487 182.690988 
L 158.537164 180.06975 
L 158.616926 180.06975 
L 158.6346 179.021254 
L 158.845291 179.021254 
L 158.845291 178.497006 
L 158.958346 178.497006 
L 159.001631 177.448511 
L 159.190803 177.448511 
L 159.207897 176.400016 
L 159.327086 176.400016 
L 159.420158 174.303025 
L 159.445454 174.303025 
L 159.479124 171.157538 
L 159.579741 171.157538 
L 159.679772 165.915061 
L 159.770958 165.915061 
L 159.869886 164.342318 
L 159.984587 164.342318 
L 160.033511 162.245327 
L 160.187524 162.245327 
L 160.276064 158.051345 
L 160.308147 158.051345 
L 160.316158 157.00285 
L 160.443837 157.00285 
L 160.499399 155.954354 
L 160.56268 155.954354 
L 160.657167 153.333116 
L 160.836827 153.333116 
L 160.922092 151.236125 
L 161.091363 151.236125 
L 161.121962 150.18763 
L 161.221032 150.18763 
L 161.319534 145.4694 
L 161.334639 145.4694 
L 161.432494 142.848162 
L 161.477471 142.848162 
L 161.52233 141.275418 
L 161.641386 141.275418 
L 161.6488 138.65418 
L 161.781702 138.65418 
L 161.877052 136.032941 
L 161.913585 136.032941 
L 161.928177 133.93595 
L 162.080643 133.93595 
L 162.174353 131.838959 
L 162.224602 131.838959 
L 162.303269 130.266216 
L 162.438305 130.266216 
L 162.494847 126.072235 
L 162.614384 126.072235 
L 162.614384 125.547987 
L 162.726134 125.547987 
L 162.795612 123.975244 
L 162.857902 123.975244 
L 162.940606 122.4025 
L 162.995522 122.4025 
L 162.995522 121.878253 
L 163.111639 121.878253 
L 163.220213 119.257014 
L 163.240495 119.257014 
L 163.321382 117.684271 
L 163.495344 117.684271 
L 163.555154 114.538785 
L 163.64778 114.538785 
L 163.68074 112.966042 
L 163.759587 112.966042 
L 163.825017 110.869051 
L 163.877183 110.869051 
L 163.948654 108.77206 
L 164.052083 108.77206 
L 164.161299 103.529583 
L 164.231601 103.529583 
L 164.339686 101.432592 
L 164.421883 101.432592 
L 164.503688 95.665867 
L 164.572606 95.665867 
L 164.666141 94.093124 
L 164.746796 94.093124 
L 164.833233 90.42339 
L 164.931489 90.42339 
L 164.931489 89.899142 
L 165.053524 89.899142 
L 165.150533 85.180912 
L 165.228951 85.180912 
L 165.295027 84.132417 
L 165.450203 84.132417 
L 165.545004 80.986931 
L 165.562721 80.986931 
L 165.58042 79.938435 
L 165.686233 79.938435 
L 165.71551 78.88994 
L 165.803044 78.88994 
L 165.803044 78.365692 
L 165.976785 78.365692 
L 166.05153 76.268701 
L 166.211426 76.268701 
L 166.245497 74.17171 
L 166.35858 74.17171 
L 166.409226 72.598967 
L 166.493305 72.598967 
L 166.493305 72.074719 
L 166.759629 72.074719 
L 166.847495 71.026224 
L 166.973019 71.026224 
L 167.081431 68.404985 
L 167.140767 68.404985 
L 167.194532 66.832242 
L 167.306894 66.832242 
L 167.306894 66.307995 
L 167.539964 66.307995 
L 167.613465 63.686756 
L 167.728334 63.686756 
L 167.801036 62.638261 
L 167.909514 62.638261 
L 168.017312 61.065517 
L 168.078609 61.065517 
L 168.119353 60.017022 
L 168.491721 60.017022 
L 168.491721 58.968526 
L 168.73883 58.968526 
L 168.831808 57.395783 
L 169.674627 57.395783 
L 169.674627 56.871536 
L 170.317651 56.871536 
L 170.317651 56.347288 
L 170.915883 56.347288 
L 170.915883 55.82304 
L 172.2784 55.82304 
L 172.2784 55.298792 
L 172.890383 55.298792 
L 172.890383 54.774545 
L 173.184605 54.774545 
L 173.184605 54.250297 
L 173.677556 54.250297 
L 173.677556 53.726049 
L 174.228219 53.726049 
L 174.228219 53.201802 
L 174.588093 53.201802 
L 174.588093 52.677554 
L 175.205345 52.677554 
L 175.205345 52.153306 
L 175.339553 52.153306 
L 175.406267 50.580563 
L 175.495921 50.580563 
L 175.495921 50.056315 
L 175.862905 50.056315 
L 175.927621 49.00782 
L 175.979219 49.00782 
L 175.979219 48.483572 
L 176.199979 48.483572 
L 176.307725 45.862334 
L 176.4493 45.862334 
L 176.4493 45.338086 
L 176.614562 45.338086 
L 176.716663 41.668352 
L 176.778249 41.668352 
L 176.864101 40.619856 
L 176.912967 40.619856 
L 176.912967 40.095609 
L 177.107054 40.095609 
L 177.107054 39.047113 
L 177.236236 39.047113 
L 177.34662 35.901627 
L 177.488774 35.901627 
L 177.597554 28.562159 
L 177.714384 28.562159 
L 177.737655 27.513663 
L 333.168 27.513663 
L 333.168 27.513663 
" style="fill:none;stroke:#0000ff;stroke-linecap:square;stroke-width:1.5;"/>
   </g>
   <g id="line2d_47">
    <defs>
     <path d="M 0 -6 
L -1.347084 -1.854102 
L -5.706339 -1.854102 
L -2.179628 0.708204 
L -3.526712 4.854102 
L -0 2.291796 
L 3.526712 4.854102 
L 2.179628 0.708204 
L 5.706339 -1.854102 
L 1.347084 -1.854102 
z
" id="m2ce53b7600" style="stroke:#0000ff;stroke-linejoin:bevel;stroke-width:1.5;"/>
    </defs>
    <g>
     <use style="fill-opacity:0;stroke:#0000ff;stroke-linejoin:bevel;stroke-width:1.5;" x="155.140141" xlink:href="#m2ce53b7600" y="205.757888"/>
     <use style="fill-opacity:0;stroke:#0000ff;stroke-linejoin:bevel;stroke-width:1.5;" x="166.759629" xlink:href="#m2ce53b7600" y="71.550472"/>
     <use style="fill-opacity:0;stroke:#0000ff;stroke-linejoin:bevel;stroke-width:1.5;" x="177.737655" xlink:href="#m2ce53b7600" y="27.513663"/>
     <use style="fill-opacity:0;stroke:#0000ff;stroke-linejoin:bevel;stroke-width:1.5;" x="177.737655" xlink:href="#m2ce53b7600" y="27.513663"/>
     <use style="fill-opacity:0;stroke:#0000ff;stroke-linejoin:bevel;stroke-width:1.5;" x="333.168" xlink:href="#m2ce53b7600" y="27.513663"/>
    </g>
   </g>
   <g id="line2d_48">
    <path style="fill:none;stroke:#0000ff;stroke-linecap:square;stroke-width:1.5;"/>
    <g/>
   </g>
   <g id="line2d_49">
    <defs>
     <path d="M 0 1.5 
C 0.397805 1.5 0.77937 1.341951 1.06066 1.06066 
C 1.341951 0.77937 1.5 0.397805 1.5 0 
C 1.5 -0.397805 1.341951 -0.77937 1.06066 -1.06066 
C 0.77937 -1.341951 0.397805 -1.5 0 -1.5 
C -0.397805 -1.5 -0.77937 -1.341951 -1.06066 -1.06066 
C -1.341951 -0.77937 -1.5 -0.397805 -1.5 0 
C -1.5 0.397805 -1.341951 0.77937 -1.06066 1.06066 
C -0.77937 1.341951 -0.397805 1.5 0 1.5 
z
" id="m7f2452fb7d" style="stroke:#000000;"/>
    </defs>
    <g>
     <use style="stroke:#000000;" x="192.710261" xlink:href="#m7f2452fb7d" y="27.513663"/>
     <use style="stroke:#000000;" x="192.710261" xlink:href="#m7f2452fb7d" y="27.513663"/>
    </g>
   </g>
   <g id="line2d_50">
    <path d="M 121.741249 294.88 
L 121.741249 294.355752 
L 122.298767 294.355752 
L 122.298767 293.831505 
L 123.085078 293.831505 
L 123.085078 293.307257 
L 123.327909 293.307257 
L 123.430938 291.734514 
L 123.769975 291.734514 
L 123.769975 291.210266 
L 124.003384 291.210266 
L 124.036471 289.113275 
L 124.168185 289.113275 
L 124.168185 288.06478 
L 124.875107 288.06478 
L 124.937954 287.016284 
L 126.467507 287.016284 
L 126.496178 285.443541 
L 127.470694 285.443541 
L 127.497741 284.395046 
L 127.819033 284.395046 
L 127.819033 283.870798 
L 128.160453 283.870798 
L 128.160453 282.822302 
L 128.495224 282.822302 
L 128.495224 282.298055 
L 129.047315 282.298055 
L 129.047315 281.773807 
L 129.268157 281.773807 
L 129.341145 280.725312 
L 129.653893 280.725312 
L 129.653893 280.201064 
L 130.14738 280.201064 
L 130.14738 279.676816 
L 130.694545 279.676816 
L 130.694545 279.152568 
L 130.806377 279.152568 
L 130.806377 278.628321 
L 130.939623 278.628321 
L 130.939623 278.104073 
L 131.590786 278.104073 
L 131.612072 277.055578 
L 131.949115 277.055578 
L 132.032353 276.007082 
L 132.563791 276.007082 
L 132.603999 274.958587 
L 132.763894 274.958587 
L 132.763894 274.434339 
L 133.040181 274.434339 
L 133.040181 273.910091 
L 133.196088 273.910091 
L 133.196088 273.385844 
L 133.36981 273.385844 
L 133.36981 272.861596 
L 133.522769 272.861596 
L 133.560797 271.288853 
L 134.503128 271.288853 
L 134.503128 270.764605 
L 135.051654 270.764605 
L 135.051654 270.240357 
L 135.24216 270.240357 
L 135.24216 269.716109 
L 135.413533 269.716109 
L 135.515543 268.143366 
L 135.583215 268.143366 
L 135.583215 267.619119 
L 136.016705 267.619119 
L 136.016705 267.094871 
L 136.261911 267.094871 
L 136.261911 266.570623 
L 136.471629 266.570623 
L 136.471629 266.046375 
L 136.67882 266.046375 
L 136.67882 265.522128 
L 136.867881 265.522128 
L 136.867881 264.99788 
L 137.513684 264.99788 
L 137.513684 264.473632 
L 139.546595 264.473632 
L 139.546595 263.949385 
L 140.204235 263.949385 
L 140.204235 263.425137 
L 146.209359 263.425137 
L 146.209359 262.900889 
L 147.199415 262.900889 
L 147.199415 262.376641 
L 148.899248 262.376641 
L 148.899248 261.852394 
L 149.420388 261.852394 
L 149.420388 261.328146 
L 149.889502 261.328146 
L 149.889502 260.803898 
L 150.714141 260.803898 
L 150.714141 260.279651 
L 151.587749 260.279651 
L 151.587749 259.755403 
L 152.112033 259.755403 
L 152.112033 259.231155 
L 152.361937 259.231155 
L 152.361937 258.706907 
L 155.609922 258.706907 
L 155.609922 258.18266 
L 156.174553 258.18266 
L 156.174553 257.658412 
L 156.30654 257.658412 
L 156.326756 256.609917 
L 156.602341 256.609917 
L 156.602341 256.085669 
L 156.819671 256.085669 
L 156.819671 255.561421 
L 157.564092 255.561421 
L 157.564092 255.037173 
L 158.354091 255.037173 
L 158.385485 253.988678 
L 158.923639 253.988678 
L 158.923639 253.46443 
L 159.853438 253.46443 
L 159.853438 252.940182 
L 160.255981 252.940182 
L 160.255981 252.415935 
L 160.751137 252.415935 
L 160.832941 250.843192 
L 160.90662 250.843192 
L 160.90662 250.318944 
L 161.770666 250.318944 
L 161.770666 249.794696 
L 162.363811 249.794696 
L 162.363811 249.270448 
L 162.621389 249.270448 
L 162.722653 248.221953 
L 162.795612 248.221953 
L 162.857902 246.64921 
L 163.005799 246.64921 
L 163.005799 246.124962 
L 163.260752 246.124962 
L 163.260752 245.600714 
L 163.462027 245.600714 
L 163.462027 245.076467 
L 163.584981 245.076467 
L 163.584981 244.552219 
L 163.769417 244.552219 
L 163.769417 244.027971 
L 164.026284 244.027971 
L 164.074626 242.979476 
L 164.301615 242.979476 
L 164.358689 241.93098 
L 164.481702 241.93098 
L 164.481702 241.406733 
L 164.715819 241.406733 
L 164.715819 240.882485 
L 165.189787 240.882485 
L 165.189787 240.358237 
L 165.304017 240.358237 
L 165.357863 239.309742 
L 165.447232 239.309742 
L 165.453173 238.261246 
L 165.562721 238.261246 
L 165.639285 237.212751 
L 165.718435 237.212751 
L 165.791398 236.164255 
L 166.120239 236.164255 
L 166.120239 235.640008 
L 166.428881 235.640008 
L 166.470924 233.543017 
L 166.732079 233.543017 
L 166.732079 233.018769 
L 166.869391 233.018769 
L 166.899453 231.970274 
L 167.067917 231.970274 
L 167.111125 230.397531 
L 167.245454 230.397531 
L 167.25348 229.349035 
L 167.600363 229.349035 
L 167.694475 227.252044 
L 167.795853 227.252044 
L 167.834686 225.679301 
L 168.027544 225.679301 
L 168.065857 224.106558 
L 168.386866 224.106558 
L 168.484252 221.485319 
L 168.538946 221.485319 
L 168.598413 220.436824 
L 168.650279 220.436824 
L 168.748641 218.864081 
L 168.814718 218.864081 
L 168.921858 216.76709 
L 168.929139 216.76709 
L 168.929139 216.242842 
L 169.141347 216.242842 
L 169.165297 214.670099 
L 169.388807 214.670099 
L 169.485392 212.573108 
L 169.508867 212.573108 
L 169.586109 211.000365 
L 169.672303 211.000365 
L 169.774244 208.903374 
L 169.875584 208.903374 
L 169.98546 205.23364 
L 169.999145 205.23364 
L 170.049232 204.185145 
L 170.171555 204.185145 
L 170.281804 202.088154 
L 170.290773 202.088154 
L 170.400262 199.466915 
L 170.559889 199.466915 
L 170.628164 196.845677 
L 170.796584 196.845677 
L 170.796584 196.321429 
L 170.939643 196.321429 
L 171.049379 193.70019 
L 171.053668 193.70019 
L 171.122149 189.506209 
L 171.18823 189.506209 
L 171.281589 188.457713 
L 171.313301 188.457713 
L 171.420684 185.836474 
L 171.437467 185.836474 
L 171.548248 182.690988 
L 171.577392 182.690988 
L 171.654178 179.545502 
L 171.712059 179.545502 
L 171.755342 177.448511 
L 171.866144 177.448511 
L 171.953868 172.730281 
L 171.986395 172.730281 
L 172.095722 169.584795 
L 172.123953 169.584795 
L 172.194328 167.487804 
L 172.266415 167.487804 
L 172.344169 165.390813 
L 172.383907 165.390813 
L 172.429492 163.81807 
L 172.516364 163.81807 
L 172.614551 160.148336 
L 172.630209 160.148336 
L 172.733585 158.575593 
L 172.780193 158.575593 
L 172.873032 155.954354 
L 172.92888 155.954354 
L 173.019008 153.857364 
L 173.102958 153.857364 
L 173.211104 151.760373 
L 173.231897 151.760373 
L 173.331727 148.614886 
L 173.344869 148.614886 
L 173.451509 144.945152 
L 173.472012 144.945152 
L 173.570462 141.799666 
L 173.603769 141.799666 
L 173.659139 140.751171 
L 173.765684 140.751171 
L 173.867933 134.460198 
L 173.90067 134.460198 
L 173.980431 132.887455 
L 174.023782 132.887455 
L 174.11913 129.217721 
L 174.172867 129.217721 
L 174.262057 126.072235 
L 174.295828 126.072235 
L 174.405569 123.450996 
L 174.435538 123.450996 
L 174.544394 119.781262 
L 174.582855 119.781262 
L 174.680369 116.635776 
L 174.711596 116.635776 
L 174.784239 115.58728 
L 174.860013 115.58728 
L 174.967929 112.441794 
L 174.974758 112.441794 
L 175.064988 107.723564 
L 175.122622 107.723564 
L 175.230589 104.578078 
L 175.259154 104.578078 
L 175.367938 100.384096 
L 175.424567 100.384096 
L 175.525702 95.665867 
L 175.538921 95.665867 
L 175.631174 90.947637 
L 175.732737 90.947637 
L 175.820708 89.374894 
L 175.851555 89.374894 
L 175.946989 86.753656 
L 175.969557 86.753656 
L 176.078752 82.035426 
L 176.099549 82.035426 
L 176.180895 77.317197 
L 176.22063 77.317197 
L 176.280852 75.220206 
L 176.43833 75.220206 
L 176.543039 71.550472 
L 176.561726 71.550472 
L 176.650211 69.977729 
L 176.674968 69.977729 
L 176.781323 66.307995 
L 176.796682 66.307995 
L 176.871745 64.211004 
L 176.937348 64.211004 
L 176.992079 62.638261 
L 177.098005 62.638261 
L 177.168761 60.017022 
L 177.227254 60.017022 
L 177.261657 58.444279 
L 177.374848 58.444279 
L 177.429686 56.871536 
L 177.510879 56.871536 
L 177.597554 55.298792 
L 177.651687 55.298792 
L 177.755088 53.201802 
L 177.768151 53.201802 
L 177.768151 52.677554 
L 177.916946 52.677554 
L 177.938508 51.629058 
L 178.03449 51.629058 
L 178.141301 50.056315 
L 178.192335 50.056315 
L 178.251685 47.435077 
L 178.316452 47.435077 
L 178.359962 46.386581 
L 178.502352 46.386581 
L 178.541234 44.813838 
L 178.639436 44.813838 
L 178.719242 43.241095 
L 178.804145 43.241095 
L 178.804145 42.716847 
L 179.017283 42.716847 
L 179.065785 41.668352 
L 179.225145 41.668352 
L 179.331453 40.619856 
L 185.887447 40.619856 
L 185.887447 40.095609 
L 187.395262 40.095609 
L 187.395262 39.571361 
L 188.125353 39.571361 
L 188.125353 39.047113 
L 188.699415 39.047113 
L 188.777587 37.998618 
L 188.831792 37.998618 
L 188.831792 37.47437 
L 189.541087 37.47437 
L 189.541087 36.950122 
L 189.86353 36.950122 
L 189.930875 35.901627 
L 190.425637 35.901627 
L 190.425637 35.377379 
L 190.647901 35.377379 
L 190.647901 34.853131 
L 190.764097 34.853131 
L 190.764097 34.328884 
L 191.130063 34.328884 
L 191.190639 33.280388 
L 191.405256 33.280388 
L 191.470103 32.231893 
L 191.596471 32.231893 
L 191.656722 31.183397 
L 191.857964 31.183397 
L 191.857964 30.65915 
L 192.296562 30.65915 
L 192.395968 29.086407 
L 192.512657 29.086407 
L 192.512657 28.562159 
L 192.710261 28.562159 
L 192.710261 27.513663 
L 333.168 27.513663 
L 333.168 27.513663 
" style="fill:none;stroke:#000000;stroke-linecap:square;stroke-width:1.5;"/>
   </g>
   <g id="line2d_51">
    <defs>
     <path d="M 0 6 
C 1.591219 6 3.117479 5.367802 4.242641 4.242641 
C 5.367802 3.117479 6 1.591219 6 0 
C 6 -1.591219 5.367802 -3.117479 4.242641 -4.242641 
C 3.117479 -5.367802 1.591219 -6 0 -6 
C -1.591219 -6 -3.117479 -5.367802 -4.242641 -4.242641 
C -5.367802 -3.117479 -6 -1.591219 -6 0 
C -6 1.591219 -5.367802 3.117479 -4.242641 4.242641 
C -3.117479 5.367802 -1.591219 6 0 6 
z
" id="m742ebf1836" style="stroke:#000000;stroke-width:1.5;"/>
    </defs>
    <g>
     <use style="fill-opacity:0;stroke:#000000;stroke-width:1.5;" x="169.426563" xlink:href="#m742ebf1836" y="213.097356"/>
     <use style="fill-opacity:0;stroke:#000000;stroke-width:1.5;" x="192.296562" xlink:href="#m742ebf1836" y="30.134902"/>
     <use style="fill-opacity:0;stroke:#000000;stroke-width:1.5;" x="192.710261" xlink:href="#m742ebf1836" y="27.513663"/>
     <use style="fill-opacity:0;stroke:#000000;stroke-width:1.5;" x="192.710261" xlink:href="#m742ebf1836" y="27.513663"/>
     <use style="fill-opacity:0;stroke:#000000;stroke-width:1.5;" x="333.168" xlink:href="#m742ebf1836" y="27.513663"/>
    </g>
   </g>
   <g id="line2d_52">
    <path style="fill:none;stroke:#000000;stroke-linecap:square;stroke-width:1.5;"/>
    <g/>
   </g>
   <g id="line2d_53">
    <defs>
     <path d="M 0 1.5 
C 0.397805 1.5 0.77937 1.341951 1.06066 1.06066 
C 1.341951 0.77937 1.5 0.397805 1.5 0 
C 1.5 -0.397805 1.341951 -0.77937 1.06066 -1.06066 
C 0.77937 -1.341951 0.397805 -1.5 0 -1.5 
C -0.397805 -1.5 -0.77937 -1.341951 -1.06066 -1.06066 
C -1.341951 -0.77937 -1.5 -0.397805 -1.5 0 
C -1.5 0.397805 -1.341951 0.77937 -1.06066 1.06066 
C -0.77937 1.341951 -0.397805 1.5 0 1.5 
z
" id="md25c5085b6" style="stroke:#ff0000;"/>
    </defs>
    <g>
     <use style="fill:#ff0000;stroke:#ff0000;" x="192.342298" xlink:href="#md25c5085b6" y="27.513663"/>
     <use style="fill:#ff0000;stroke:#ff0000;" x="192.342298" xlink:href="#md25c5085b6" y="27.513663"/>
    </g>
   </g>
   <g id="line2d_54">
    <path d="M 129.255962 294.88 
L 129.255962 294.355752 
L 130.388911 294.355752 
L 130.468672 293.307257 
L 131.170347 293.307257 
L 131.170347 292.783009 
L 132.381685 292.783009 
L 132.381685 292.258761 
L 132.52349 292.258761 
L 132.52349 291.734514 
L 133.787214 291.734514 
L 133.787214 291.210266 
L 135.016789 291.210266 
L 135.016789 290.686018 
L 135.379395 290.686018 
L 135.379395 290.161771 
L 135.709386 290.161771 
L 135.709386 289.637523 
L 136.09883 289.637523 
L 136.09883 289.113275 
L 136.46361 289.113275 
L 136.495664 288.06478 
L 136.946047 288.06478 
L 136.946047 287.540532 
L 137.790624 287.540532 
L 137.790624 287.016284 
L 137.909013 287.016284 
L 137.909013 286.492036 
L 138.208716 286.492036 
L 138.208716 285.967789 
L 138.41759 285.967789 
L 138.453347 284.919293 
L 138.79989 284.919293 
L 138.79989 284.395046 
L 138.953236 284.395046 
L 138.953236 283.870798 
L 139.686802 283.870798 
L 139.739914 282.822302 
L 139.832469 282.822302 
L 139.832469 282.298055 
L 140.275063 282.298055 
L 140.275063 281.773807 
L 141.194594 281.773807 
L 141.194594 281.249559 
L 141.609813 281.249559 
L 141.609813 280.725312 
L 142.29745 280.725312 
L 142.29745 280.201064 
L 142.68157 280.201064 
L 142.68157 279.676816 
L 143.062757 279.676816 
L 143.171684 278.628321 
L 143.505037 278.628321 
L 143.505037 278.104073 
L 144.787217 278.104073 
L 144.787217 277.579825 
L 145.173275 277.579825 
L 145.173275 277.055578 
L 145.322428 277.055578 
L 145.336794 276.007082 
L 145.878621 276.007082 
L 145.878621 275.482834 
L 147.615255 275.482834 
L 147.694725 274.434339 
L 151.108663 274.434339 
L 151.108663 273.910091 
L 154.525852 273.910091 
L 154.525852 273.385844 
L 154.842625 273.385844 
L 154.859137 272.337348 
L 155.405971 272.337348 
L 155.405971 271.8131 
L 156.298953 271.8131 
L 156.298953 271.288853 
L 156.429991 271.288853 
L 156.429991 270.764605 
L 157.836878 270.764605 
L 157.836878 270.240357 
L 169.254812 270.240357 
L 169.254812 269.716109 
L 169.795022 269.716109 
L 169.795022 269.191862 
L 169.958057 269.191862 
L 169.992304 268.143366 
L 170.495773 268.143366 
L 170.495773 267.619119 
L 170.731162 267.619119 
L 170.787876 266.570623 
L 171.071885 266.570623 
L 171.136025 265.522128 
L 171.42698 265.522128 
L 171.42698 264.99788 
L 171.634495 264.99788 
L 171.634495 264.473632 
L 172.495673 264.473632 
L 172.495673 263.949385 
L 174.232675 263.949385 
L 174.232675 263.425137 
L 174.818723 263.425137 
L 174.872896 262.376641 
L 175.522395 262.376641 
L 175.522395 261.852394 
L 175.800385 261.852394 
L 175.800385 261.328146 
L 175.951021 261.328146 
L 175.988877 260.279651 
L 176.497015 260.279651 
L 176.546934 259.231155 
L 176.782091 259.231155 
L 176.782091 258.706907 
L 176.907629 258.706907 
L 176.907629 258.18266 
L 177.191282 258.18266 
L 177.191282 257.658412 
L 177.587293 257.658412 
L 177.587293 257.134164 
L 177.735475 257.134164 
L 177.735475 256.609917 
L 178.077294 256.609917 
L 178.077294 256.085669 
L 178.341028 256.085669 
L 178.448048 254.512926 
L 178.797313 254.512926 
L 178.797313 253.988678 
L 178.944949 253.988678 
L 179.005136 252.940182 
L 179.235805 252.940182 
L 179.235805 252.415935 
L 179.48838 252.415935 
L 179.562388 249.794696 
L 179.635429 249.794696 
L 179.746351 248.746201 
L 179.83792 248.746201 
L 179.83792 248.221953 
L 180.213247 248.221953 
L 180.240912 247.173458 
L 180.435813 247.173458 
L 180.491626 246.124962 
L 180.5824 246.124962 
L 180.5824 245.600714 
L 180.808171 245.600714 
L 180.808171 245.076467 
L 181.079548 245.076467 
L 181.079548 244.552219 
L 181.233819 244.552219 
L 181.341993 241.93098 
L 181.366724 241.93098 
L 181.421946 240.882485 
L 181.619635 240.882485 
L 181.717923 239.309742 
L 181.861449 239.309742 
L 181.934473 238.261246 
L 181.97371 238.261246 
L 182.074516 236.164255 
L 182.173613 236.164255 
L 182.215668 235.11576 
L 182.392849 235.11576 
L 182.472485 233.543017 
L 182.529771 233.543017 
L 182.568771 232.494521 
L 182.647052 232.494521 
L 182.696137 230.921778 
L 182.762995 230.921778 
L 182.871154 229.349035 
L 182.973279 229.349035 
L 183.035866 228.30054 
L 183.214874 228.30054 
L 183.319185 225.155053 
L 183.423389 225.155053 
L 183.532673 224.106558 
L 183.538378 224.106558 
L 183.595843 223.058063 
L 183.673195 223.058063 
L 183.773235 220.961072 
L 183.799815 220.961072 
L 183.892012 219.912576 
L 183.913843 219.912576 
L 184.015522 217.291338 
L 184.026615 217.291338 
L 184.046765 216.242842 
L 184.14416 216.242842 
L 184.238517 215.194347 
L 184.28575 215.194347 
L 184.386741 212.573108 
L 184.470448 212.573108 
L 184.572804 208.379126 
L 184.6862 208.379126 
L 184.769431 206.282136 
L 184.823893 206.282136 
L 184.924172 203.136649 
L 184.940908 203.136649 
L 185.033379 200.515411 
L 185.063776 200.515411 
L 185.162669 196.845677 
L 185.194252 196.845677 
L 185.297549 194.224438 
L 185.314393 194.224438 
L 185.405347 190.030456 
L 185.455979 190.030456 
L 185.54019 187.933465 
L 185.577075 187.933465 
L 185.684056 184.263731 
L 185.704183 184.263731 
L 185.783549 180.06975 
L 185.872061 180.06975 
L 185.981725 176.924263 
L 185.992069 176.924263 
L 186.08533 173.778777 
L 186.120172 173.778777 
L 186.226496 169.584795 
L 186.254414 169.584795 
L 186.356393 165.915061 
L 186.416589 165.915061 
L 186.481382 163.81807 
L 186.540272 163.81807 
L 186.610241 160.148336 
L 186.652692 160.148336 
L 186.760082 158.051345 
L 186.768249 158.051345 
L 186.874068 153.857364 
L 186.924817 153.857364 
L 187.009775 149.663382 
L 187.036027 149.663382 
L 187.139374 146.517896 
L 187.155348 146.517896 
L 187.229139 143.372409 
L 187.276349 143.372409 
L 187.362913 139.702675 
L 187.399819 139.702675 
L 187.480818 134.460198 
L 187.534332 134.460198 
L 187.644129 127.644978 
L 187.685327 127.644978 
L 187.784449 122.926748 
L 187.870109 122.926748 
L 187.968976 117.160023 
L 188.000605 117.160023 
L 188.099124 114.538785 
L 188.124956 114.538785 
L 188.223161 110.869051 
L 188.236187 110.869051 
L 188.312561 107.723564 
L 188.350622 107.723564 
L 188.460796 104.05383 
L 188.484146 104.05383 
L 188.580326 99.859849 
L 188.603901 99.859849 
L 188.714771 95.665867 
L 188.72973 95.665867 
L 188.824168 91.471885 
L 188.865298 91.471885 
L 188.974122 87.277903 
L 188.979413 87.277903 
L 189.063847 85.180912 
L 189.091649 85.180912 
L 189.175161 80.986931 
L 189.258269 80.986931 
L 189.346157 76.792949 
L 189.37166 76.792949 
L 189.478803 73.647463 
L 189.506309 73.647463 
L 189.561555 72.074719 
L 189.624633 72.074719 
L 189.729853 68.929233 
L 189.740701 68.929233 
L 189.848809 66.307995 
L 189.858864 66.307995 
L 189.969087 62.114013 
L 189.97408 62.114013 
L 190.072581 60.017022 
L 190.0903 60.017022 
L 190.181446 57.920031 
L 190.220511 57.920031 
L 190.296977 56.347288 
L 190.332638 56.347288 
L 190.383902 52.677554 
L 190.494626 52.677554 
L 190.567128 51.629058 
L 190.611858 51.629058 
L 190.703705 49.532068 
L 190.723859 49.532068 
L 190.817827 46.910829 
L 190.848697 46.910829 
L 190.919725 44.28959 
L 190.979027 44.28959 
L 191.078973 40.619856 
L 191.095352 40.619856 
L 191.187648 39.047113 
L 191.223168 39.047113 
L 191.333575 36.950122 
L 191.361559 36.950122 
L 191.466507 35.377379 
L 191.487093 35.377379 
L 191.505697 34.328884 
L 191.604906 34.328884 
L 191.655105 32.756141 
L 191.71934 32.756141 
L 191.804829 30.134902 
L 191.86723 30.134902 
L 191.921447 29.086407 
L 192.004354 29.086407 
L 192.004354 28.562159 
L 192.134418 28.562159 
L 192.134418 28.037911 
L 192.342298 28.037911 
L 192.342298 27.513663 
L 333.168 27.513663 
L 333.168 27.513663 
" style="fill:none;stroke:#ff0000;stroke-linecap:square;stroke-width:1.5;"/>
   </g>
   <g id="line2d_55">
    <defs>
     <path d="M -6 6 
L 6 6 
L 6 -6 
L -6 -6 
z
" id="m6b74357ceb" style="stroke:#ff0000;stroke-linejoin:miter;stroke-width:1.5;"/>
    </defs>
    <g>
     <use style="fill-opacity:0;stroke:#ff0000;stroke-linejoin:miter;stroke-width:1.5;" x="169.795022" xlink:href="#m6b74357ceb" y="269.716109"/>
     <use style="fill-opacity:0;stroke:#ff0000;stroke-linejoin:miter;stroke-width:1.5;" x="188.580326" xlink:href="#m6b74357ceb" y="99.859849"/>
     <use style="fill-opacity:0;stroke:#ff0000;stroke-linejoin:miter;stroke-width:1.5;" x="192.342298" xlink:href="#m6b74357ceb" y="28.037911"/>
     <use style="fill-opacity:0;stroke:#ff0000;stroke-linejoin:miter;stroke-width:1.5;" x="192.342298" xlink:href="#m6b74357ceb" y="27.513663"/>
     <use style="fill-opacity:0;stroke:#ff0000;stroke-linejoin:miter;stroke-width:1.5;" x="333.168" xlink:href="#m6b74357ceb" y="27.513663"/>
    </g>
   </g>
   <g id="line2d_56">
    <path style="fill:none;stroke:#ff0000;stroke-linecap:square;stroke-width:1.5;"/>
    <g/>
   </g>
   <g id="line2d_57">
    <path d="M 333.168 27.513663 
L 363.64328 289.532673 
" style="fill:none;stroke:#000000;stroke-linecap:square;stroke-width:1.5;"/>
    <g>
     <use style="fill-opacity:0;stroke:#000000;stroke-width:1.5;" x="333.168" xlink:href="#m742ebf1836" y="27.513663"/>
     <use style="fill-opacity:0;stroke:#000000;stroke-width:1.5;" x="363.64328" xlink:href="#m742ebf1836" y="289.532673"/>
    </g>
   </g>
   <g id="line2d_58">
    <path d="M 333.168 27.513663 
L 363.64328 225.364752 
" style="fill:none;stroke:#ff0000;stroke-linecap:square;stroke-width:1.5;"/>
    <g>
     <use style="fill-opacity:0;stroke:#ff0000;stroke-linejoin:miter;stroke-width:1.5;" x="333.168" xlink:href="#m6b74357ceb" y="27.513663"/>
     <use style="fill-opacity:0;stroke:#ff0000;stroke-linejoin:miter;stroke-width:1.5;" x="363.64328" xlink:href="#m6b74357ceb" y="225.364752"/>
    </g>
   </g>
   <g id="line2d_59">
    <path d="M 333.168 27.513663 
L 363.64328 161.196832 
" style="fill:none;stroke:#0000ff;stroke-linecap:square;stroke-width:1.5;"/>
    <g>
     <use style="fill-opacity:0;stroke:#0000ff;stroke-linejoin:bevel;stroke-width:1.5;" x="333.168" xlink:href="#m2ce53b7600" y="27.513663"/>
     <use style="fill-opacity:0;stroke:#0000ff;stroke-linejoin:bevel;stroke-width:1.5;" x="363.64328" xlink:href="#m2ce53b7600" y="161.196832"/>
    </g>
   </g>
   <g id="line2d_60">
    <path d="M 333.168 27.513663 
L 363.64328 97.028911 
" style="fill:none;stroke:#00bfbf;stroke-linecap:square;stroke-width:1.5;"/>
    <g>
     <use style="fill-opacity:0;stroke:#00bfbf;stroke-width:1.5;" x="333.168" xlink:href="#m7f06b05800" y="27.513663"/>
     <use style="fill-opacity:0;stroke:#00bfbf;stroke-width:1.5;" x="363.64328" xlink:href="#m7f06b05800" y="97.028911"/>
    </g>
   </g>
   <g id="line2d_61">
    <path d="M 333.168 27.513663 
L 363.64328 32.86099 
" style="fill:none;stroke:#008000;stroke-linecap:square;stroke-width:1.5;"/>
    <g>
     <use style="fill-opacity:0;stroke:#008000;stroke-linejoin:miter;stroke-width:1.5;" x="333.168" xlink:href="#m268cff18b4" y="27.513663"/>
     <use style="fill-opacity:0;stroke:#008000;stroke-linejoin:miter;stroke-width:1.5;" x="363.64328" xlink:href="#m268cff18b4" y="32.86099"/>
    </g>
   </g>
   <g id="line2d_62">
    <path d="M 333.168 294.88 
L 333.168 27.513663 
" style="fill:none;stroke:#000000;stroke-linecap:square;stroke-width:1.5;"/>
   </g>
   <g id="patch_3">
    <path d="M 56.12 294.88 
L 56.12 24.84 
" style="fill:none;stroke:#000000;stroke-linecap:square;stroke-linejoin:miter;stroke-width:0.8;"/>
   </g>
   <g id="patch_4">
    <path d="M 333.168 294.88 
L 333.168 24.84 
" style="fill:none;stroke:#000000;stroke-linecap:square;stroke-linejoin:miter;stroke-width:0.8;"/>
   </g>
   <g id="patch_5">
    <path d="M 56.12 294.88 
L 333.168 294.88 
" style="fill:none;stroke:#000000;stroke-linecap:square;stroke-linejoin:miter;stroke-width:0.8;"/>
   </g>
   <g id="patch_6">
    <path d="M 56.12 24.84 
L 333.168 24.84 
" style="fill:none;stroke:#000000;stroke-linecap:square;stroke-linejoin:miter;stroke-width:0.8;"/>
   </g>
   <g id="text_13">
    <!-- 10-D -->
    <defs>
     <path d="M 19.671875 64.796875 
L 19.671875 8.109375 
L 31.59375 8.109375 
Q 46.6875 8.109375 53.6875 14.9375 
Q 60.6875 21.78125 60.6875 36.53125 
Q 60.6875 51.171875 53.6875 57.984375 
Q 46.6875 64.796875 31.59375 64.796875 
z
M 9.8125 72.90625 
L 30.078125 72.90625 
Q 51.265625 72.90625 61.171875 64.09375 
Q 71.09375 55.28125 71.09375 36.53125 
Q 71.09375 17.671875 61.125 8.828125 
Q 51.171875 0 30.078125 0 
L 9.8125 0 
z
" id="DejaVuSans-44"/>
    </defs>
    <g transform="translate(369.18424 294.223611)scale(0.17 -0.17)">
     <use xlink:href="#DejaVuSans-31"/>
     <use x="63.623047" xlink:href="#DejaVuSans-30"/>
     <use x="127.246094" xlink:href="#DejaVuSans-2d"/>
     <use x="163.330078" xlink:href="#DejaVuSans-44"/>
    </g>
   </g>
   <g id="text_14">
    <!-- 20-D -->
    <g transform="translate(369.18424 230.05569)scale(0.17 -0.17)">
     <use xlink:href="#DejaVuSans-32"/>
     <use x="63.623047" xlink:href="#DejaVuSans-30"/>
     <use x="127.246094" xlink:href="#DejaVuSans-2d"/>
     <use x="163.330078" xlink:href="#DejaVuSans-44"/>
    </g>
   </g>
   <g id="text_15">
    <!-- 5-D -->
    <defs>
     <path d="M 10.796875 72.90625 
L 49.515625 72.90625 
L 49.515625 64.59375 
L 19.828125 64.59375 
L 19.828125 46.734375 
Q 21.96875 47.46875 24.109375 47.828125 
Q 26.265625 48.1875 28.421875 48.1875 
Q 40.625 48.1875 47.75 41.5 
Q 54.890625 34.8125 54.890625 23.390625 
Q 54.890625 11.625 47.5625 5.09375 
Q 40.234375 -1.421875 26.90625 -1.421875 
Q 22.3125 -1.421875 17.546875 -0.640625 
Q 12.796875 0.140625 7.71875 1.703125 
L 7.71875 11.625 
Q 12.109375 9.234375 16.796875 8.0625 
Q 21.484375 6.890625 26.703125 6.890625 
Q 35.15625 6.890625 40.078125 11.328125 
Q 45.015625 15.765625 45.015625 23.390625 
Q 45.015625 31 40.078125 35.4375 
Q 35.15625 39.890625 26.703125 39.890625 
Q 22.75 39.890625 18.8125 39.015625 
Q 14.890625 38.140625 10.796875 36.28125 
z
" id="DejaVuSans-35"/>
    </defs>
    <g transform="translate(369.18424 165.887769)scale(0.17 -0.17)">
     <use xlink:href="#DejaVuSans-35"/>
     <use x="63.623047" xlink:href="#DejaVuSans-2d"/>
     <use x="99.707031" xlink:href="#DejaVuSans-44"/>
    </g>
   </g>
   <g id="text_16">
    <!-- 2-D -->
    <g transform="translate(369.18424 101.719848)scale(0.17 -0.17)">
     <use xlink:href="#DejaVuSans-32"/>
     <use x="63.623047" xlink:href="#DejaVuSans-2d"/>
     <use x="99.707031" xlink:href="#DejaVuSans-44"/>
    </g>
   </g>
   <g id="text_17">
    <!-- 3-D -->
    <defs>
     <path d="M 40.578125 39.3125 
Q 47.65625 37.796875 51.625 33 
Q 55.609375 28.21875 55.609375 21.1875 
Q 55.609375 10.40625 48.1875 4.484375 
Q 40.765625 -1.421875 27.09375 -1.421875 
Q 22.515625 -1.421875 17.65625 -0.515625 
Q 12.796875 0.390625 7.625 2.203125 
L 7.625 11.71875 
Q 11.71875 9.328125 16.59375 8.109375 
Q 21.484375 6.890625 26.8125 6.890625 
Q 36.078125 6.890625 40.9375 10.546875 
Q 45.796875 14.203125 45.796875 21.1875 
Q 45.796875 27.640625 41.28125 31.265625 
Q 36.765625 34.90625 28.71875 34.90625 
L 20.21875 34.90625 
L 20.21875 43.015625 
L 29.109375 43.015625 
Q 36.375 43.015625 40.234375 45.921875 
Q 44.09375 48.828125 44.09375 54.296875 
Q 44.09375 59.90625 40.109375 62.90625 
Q 36.140625 65.921875 28.71875 65.921875 
Q 24.65625 65.921875 20.015625 65.03125 
Q 15.375 64.15625 9.8125 62.3125 
L 9.8125 71.09375 
Q 15.4375 72.65625 20.34375 73.4375 
Q 25.25 74.21875 29.59375 74.21875 
Q 40.828125 74.21875 47.359375 69.109375 
Q 53.90625 64.015625 53.90625 55.328125 
Q 53.90625 49.265625 50.4375 45.09375 
Q 46.96875 40.921875 40.578125 39.3125 
z
" id="DejaVuSans-33"/>
    </defs>
    <g transform="translate(369.18424 37.551928)scale(0.17 -0.17)">
     <use xlink:href="#DejaVuSans-33"/>
     <use x="63.623047" xlink:href="#DejaVuSans-2d"/>
     <use x="99.707031" xlink:href="#DejaVuSans-44"/>
    </g>
   </g>
   <g id="text_18">
    <!-- bbob f8 -->
    <defs>
     <path d="M 48.6875 27.296875 
Q 48.6875 37.203125 44.609375 42.84375 
Q 40.53125 48.484375 33.40625 48.484375 
Q 26.265625 48.484375 22.1875 42.84375 
Q 18.109375 37.203125 18.109375 27.296875 
Q 18.109375 17.390625 22.1875 11.75 
Q 26.265625 6.109375 33.40625 6.109375 
Q 40.53125 6.109375 44.609375 11.75 
Q 48.6875 17.390625 48.6875 27.296875 
z
M 18.109375 46.390625 
Q 20.953125 51.265625 25.265625 53.625 
Q 29.59375 56 35.59375 56 
Q 45.5625 56 51.78125 48.09375 
Q 58.015625 40.1875 58.015625 27.296875 
Q 58.015625 14.40625 51.78125 6.484375 
Q 45.5625 -1.421875 35.59375 -1.421875 
Q 29.59375 -1.421875 25.265625 0.953125 
Q 20.953125 3.328125 18.109375 8.203125 
L 18.109375 0 
L 9.078125 0 
L 9.078125 75.984375 
L 18.109375 75.984375 
z
" id="DejaVuSans-62"/>
    </defs>
    <g transform="translate(58.89048 35.290806)scale(0.102 -0.102)">
     <use xlink:href="#DejaVuSans-62"/>
     <use x="63.476562" xlink:href="#DejaVuSans-62"/>
     <use x="126.953125" xlink:href="#DejaVuSans-6f"/>
     <use x="188.134766" xlink:href="#DejaVuSans-62"/>
     <use x="251.611328" xlink:href="#DejaVuSans-20"/>
     <use x="283.398438" xlink:href="#DejaVuSans-66"/>
     <use x="318.603516" xlink:href="#DejaVuSans-38"/>
    </g>
    <!-- 51 targets: 100..1e-08 -->
    <defs>
     <path d="M 11.71875 12.40625 
L 22.015625 12.40625 
L 22.015625 0 
L 11.71875 0 
z
M 11.71875 51.703125 
L 22.015625 51.703125 
L 22.015625 39.3125 
L 11.71875 39.3125 
z
" id="DejaVuSans-3a"/>
    </defs>
    <g transform="translate(58.89048 46.712575)scale(0.102 -0.102)">
     <use xlink:href="#DejaVuSans-35"/>
     <use x="63.623047" xlink:href="#DejaVuSans-31"/>
     <use x="127.246094" xlink:href="#DejaVuSans-20"/>
     <use x="159.033203" xlink:href="#DejaVuSans-74"/>
     <use x="198.242188" xlink:href="#DejaVuSans-61"/>
     <use x="259.521484" xlink:href="#DejaVuSans-72"/>
     <use x="300.619141" xlink:href="#DejaVuSans-67"/>
     <use x="364.095703" xlink:href="#DejaVuSans-65"/>
     <use x="425.619141" xlink:href="#DejaVuSans-74"/>
     <use x="464.828125" xlink:href="#DejaVuSans-73"/>
     <use x="516.927734" xlink:href="#DejaVuSans-3a"/>
     <use x="550.619141" xlink:href="#DejaVuSans-20"/>
     <use x="582.40625" xlink:href="#DejaVuSans-31"/>
     <use x="646.029297" xlink:href="#DejaVuSans-30"/>
     <use x="709.652344" xlink:href="#DejaVuSans-30"/>
     <use x="773.275391" xlink:href="#DejaVuSans-2e"/>
     <use x="805.0625" xlink:href="#DejaVuSans-2e"/>
     <use x="836.849609" xlink:href="#DejaVuSans-31"/>
     <use x="900.472656" xlink:href="#DejaVuSans-65"/>
     <use x="961.996094" xlink:href="#DejaVuSans-2d"/>
     <use x="998.080078" xlink:href="#DejaVuSans-30"/>
     <use x="1061.703125" xlink:href="#DejaVuSans-38"/>
    </g>
    <!-- 15 instances -->
    <g transform="translate(58.89048 58.134344)scale(0.102 -0.102)">
     <use xlink:href="#DejaVuSans-31"/>
     <use x="63.623047" xlink:href="#DejaVuSans-35"/>
     <use x="127.246094" xlink:href="#DejaVuSans-20"/>
     <use x="159.033203" xlink:href="#DejaVuSans-69"/>
     <use x="186.816406" xlink:href="#DejaVuSans-6e"/>
     <use x="250.195312" xlink:href="#DejaVuSans-73"/>
     <use x="302.294922" xlink:href="#DejaVuSans-74"/>
     <use x="341.503906" xlink:href="#DejaVuSans-61"/>
     <use x="402.783203" xlink:href="#DejaVuSans-6e"/>
     <use x="466.162109" xlink:href="#DejaVuSans-63"/>
     <use x="521.142578" xlink:href="#DejaVuSans-65"/>
     <use x="582.666016" xlink:href="#DejaVuSans-73"/>
    </g>
   </g>
   <g id="text_19">
    <!-- v2.4 -->
    <g style="fill:#808080;" transform="translate(183.733063 290.099912)scale(0.1 -0.1)">
     <use xlink:href="#DejaVuSans-76"/>
     <use x="59.179688" xlink:href="#DejaVuSans-32"/>
     <use x="122.802734" xlink:href="#DejaVuSans-2e"/>
     <use x="154.589844" xlink:href="#DejaVuSans-34"/>
    </g>
   </g>
   <g id="text_20">
    <!-- 8 Rosenbrock original -->
    <defs>
     <path d="M 44.390625 34.1875 
Q 47.5625 33.109375 50.5625 29.59375 
Q 53.5625 26.078125 56.59375 19.921875 
L 66.609375 0 
L 56 0 
L 46.6875 18.703125 
Q 43.0625 26.03125 39.671875 28.421875 
Q 36.28125 30.8125 30.421875 30.8125 
L 19.671875 30.8125 
L 19.671875 0 
L 9.8125 0 
L 9.8125 72.90625 
L 32.078125 72.90625 
Q 44.578125 72.90625 50.734375 67.671875 
Q 56.890625 62.453125 56.890625 51.90625 
Q 56.890625 45.015625 53.6875 40.46875 
Q 50.484375 35.9375 44.390625 34.1875 
z
M 19.671875 64.796875 
L 19.671875 38.921875 
L 32.078125 38.921875 
Q 39.203125 38.921875 42.84375 42.21875 
Q 46.484375 45.515625 46.484375 51.90625 
Q 46.484375 58.296875 42.84375 61.546875 
Q 39.203125 64.796875 32.078125 64.796875 
z
" id="DejaVuSans-52"/>
     <path d="M 9.078125 75.984375 
L 18.109375 75.984375 
L 18.109375 31.109375 
L 44.921875 54.6875 
L 56.390625 54.6875 
L 27.390625 29.109375 
L 57.625 0 
L 45.90625 0 
L 18.109375 26.703125 
L 18.109375 0 
L 9.078125 0 
z
" id="DejaVuSans-6b"/>
    </defs>
    <g transform="translate(85.922125 18.84)scale(0.2 -0.2)">
     <use xlink:href="#DejaVuSans-38"/>
     <use x="63.623047" xlink:href="#DejaVuSans-20"/>
     <use x="95.410156" xlink:href="#DejaVuSans-52"/>
     <use x="164.830078" xlink:href="#DejaVuSans-6f"/>
     <use x="226.011719" xlink:href="#DejaVuSans-73"/>
     <use x="278.111328" xlink:href="#DejaVuSans-65"/>
     <use x="339.634766" xlink:href="#DejaVuSans-6e"/>
     <use x="403.013672" xlink:href="#DejaVuSans-62"/>
     <use x="466.490234" xlink:href="#DejaVuSans-72"/>
     <use x="507.572266" xlink:href="#DejaVuSans-6f"/>
     <use x="568.753906" xlink:href="#DejaVuSans-63"/>
     <use x="623.734375" xlink:href="#DejaVuSans-6b"/>
     <use x="681.644531" xlink:href="#DejaVuSans-20"/>
     <use x="713.431641" xlink:href="#DejaVuSans-6f"/>
     <use x="774.613281" xlink:href="#DejaVuSans-72"/>
     <use x="815.726562" xlink:href="#DejaVuSans-69"/>
     <use x="843.509766" xlink:href="#DejaVuSans-67"/>
     <use x="906.986328" xlink:href="#DejaVuSans-69"/>
     <use x="934.769531" xlink:href="#DejaVuSans-6e"/>
     <use x="998.148438" xlink:href="#DejaVuSans-61"/>
     <use x="1059.427734" xlink:href="#DejaVuSans-6c"/>
    </g>
   </g>
  </g>
 </g>
 <defs>
  <clipPath id="pe8d561967f">
   <rect height="270.04" width="277.048" x="56.12" y="24.84"/>
  </clipPath>
 </defs>
</svg>
