<?xml version="1.0" encoding="utf-8" standalone="no"?>
<!DOCTYPE svg PUBLIC "-//W3C//DTD SVG 1.1//EN"
  "http://www.w3.org/Graphics/SVG/1.1/DTD/svg11.dtd">
<!-- Created with matplotlib (http://matplotlib.org/) -->
<svg height="345.6pt" version="1.1" viewBox="0 0 460.8 345.6" width="460.8pt" xmlns="http://www.w3.org/2000/svg" xmlns:xlink="http://www.w3.org/1999/xlink">
 <defs>
  <style type="text/css">
*{stroke-linecap:butt;stroke-linejoin:round;}
  </style>
 </defs>
 <g id="figure_1">
  <g id="patch_1">
   <path d="M 0 345.6 
L 460.8 345.6 
L 460.8 0 
L 0 0 
z
" style="fill:#ffffff;"/>
  </g>
  <g id="axes_1">
   <g id="patch_2">
    <path d="M 56.12 294.88 
L 333.168 294.88 
L 333.168 24.84 
L 56.12 24.84 
z
" style="fill:#ffffff;"/>
   </g>
   <g id="matplotlib.axis_1">
    <g id="xtick_1">
     <g id="line2d_1">
      <path clip-path="url(#p44914e749d)" d="M 56.12 294.88 
L 56.12 24.84 
" style="fill:none;stroke:#b0b0b0;stroke-linecap:square;stroke-width:0.8;"/>
     </g>
     <g id="line2d_2">
      <defs>
       <path d="M 0 0 
L 0 3.5 
" id="m9a74d1037e" style="stroke:#000000;stroke-width:0.8;"/>
      </defs>
      <g>
       <use style="stroke:#000000;stroke-width:0.8;" x="56.12" xlink:href="#m9a74d1037e" y="294.88"/>
      </g>
     </g>
     <g id="text_1">
      <!-- 0 -->
      <defs>
       <path d="M 31.78125 66.40625 
Q 24.171875 66.40625 20.328125 58.90625 
Q 16.5 51.421875 16.5 36.375 
Q 16.5 21.390625 20.328125 13.890625 
Q 24.171875 6.390625 31.78125 6.390625 
Q 39.453125 6.390625 43.28125 13.890625 
Q 47.125 21.390625 47.125 36.375 
Q 47.125 51.421875 43.28125 58.90625 
Q 39.453125 66.40625 31.78125 66.40625 
z
M 31.78125 74.21875 
Q 44.046875 74.21875 50.515625 64.515625 
Q 56.984375 54.828125 56.984375 36.375 
Q 56.984375 17.96875 50.515625 8.265625 
Q 44.046875 -1.421875 31.78125 -1.421875 
Q 19.53125 -1.421875 13.0625 8.265625 
Q 6.59375 17.96875 6.59375 36.375 
Q 6.59375 54.828125 13.0625 64.515625 
Q 19.53125 74.21875 31.78125 74.21875 
z
" id="DejaVuSans-30"/>
      </defs>
      <g transform="translate(49.7575 317.076875)scale(0.2 -0.2)">
       <use xlink:href="#DejaVuSans-30"/>
      </g>
     </g>
    </g>
    <g id="xtick_2">
     <g id="line2d_3">
      <path clip-path="url(#p44914e749d)" d="M 135.276571 294.88 
L 135.276571 24.84 
" style="fill:none;stroke:#b0b0b0;stroke-linecap:square;stroke-width:0.8;"/>
     </g>
     <g id="line2d_4">
      <g>
       <use style="stroke:#000000;stroke-width:0.8;" x="135.276571" xlink:href="#m9a74d1037e" y="294.88"/>
      </g>
     </g>
     <g id="text_2">
      <!-- 2 -->
      <defs>
       <path d="M 19.1875 8.296875 
L 53.609375 8.296875 
L 53.609375 0 
L 7.328125 0 
L 7.328125 8.296875 
Q 12.9375 14.109375 22.625 23.890625 
Q 32.328125 33.6875 34.8125 36.53125 
Q 39.546875 41.84375 41.421875 45.53125 
Q 43.3125 49.21875 43.3125 52.78125 
Q 43.3125 58.59375 39.234375 62.25 
Q 35.15625 65.921875 28.609375 65.921875 
Q 23.96875 65.921875 18.8125 64.3125 
Q 13.671875 62.703125 7.8125 59.421875 
L 7.8125 69.390625 
Q 13.765625 71.78125 18.9375 73 
Q 24.125 74.21875 28.421875 74.21875 
Q 39.75 74.21875 46.484375 68.546875 
Q 53.21875 62.890625 53.21875 53.421875 
Q 53.21875 48.921875 51.53125 44.890625 
Q 49.859375 40.875 45.40625 35.40625 
Q 44.1875 33.984375 37.640625 27.21875 
Q 31.109375 20.453125 19.1875 8.296875 
z
" id="DejaVuSans-32"/>
      </defs>
      <g transform="translate(128.914071 317.076875)scale(0.2 -0.2)">
       <use xlink:href="#DejaVuSans-32"/>
      </g>
     </g>
    </g>
    <g id="xtick_3">
     <g id="line2d_5">
      <path clip-path="url(#p44914e749d)" d="M 214.433143 294.88 
L 214.433143 24.84 
" style="fill:none;stroke:#b0b0b0;stroke-linecap:square;stroke-width:0.8;"/>
     </g>
     <g id="line2d_6">
      <g>
       <use style="stroke:#000000;stroke-width:0.8;" x="214.433143" xlink:href="#m9a74d1037e" y="294.88"/>
      </g>
     </g>
     <g id="text_3">
      <!-- 4 -->
      <defs>
       <path d="M 37.796875 64.3125 
L 12.890625 25.390625 
L 37.796875 25.390625 
z
M 35.203125 72.90625 
L 47.609375 72.90625 
L 47.609375 25.390625 
L 58.015625 25.390625 
L 58.015625 17.1875 
L 47.609375 17.1875 
L 47.609375 0 
L 37.796875 0 
L 37.796875 17.1875 
L 4.890625 17.1875 
L 4.890625 26.703125 
z
" id="DejaVuSans-34"/>
      </defs>
      <g transform="translate(208.070643 317.076875)scale(0.2 -0.2)">
       <use xlink:href="#DejaVuSans-34"/>
      </g>
     </g>
    </g>
    <g id="xtick_4">
     <g id="line2d_7">
      <path clip-path="url(#p44914e749d)" d="M 293.589714 294.88 
L 293.589714 24.84 
" style="fill:none;stroke:#b0b0b0;stroke-linecap:square;stroke-width:0.8;"/>
     </g>
     <g id="line2d_8">
      <g>
       <use style="stroke:#000000;stroke-width:0.8;" x="293.589714" xlink:href="#m9a74d1037e" y="294.88"/>
      </g>
     </g>
     <g id="text_4">
      <!-- 6 -->
      <defs>
       <path d="M 33.015625 40.375 
Q 26.375 40.375 22.484375 35.828125 
Q 18.609375 31.296875 18.609375 23.390625 
Q 18.609375 15.53125 22.484375 10.953125 
Q 26.375 6.390625 33.015625 6.390625 
Q 39.65625 6.390625 43.53125 10.953125 
Q 47.40625 15.53125 47.40625 23.390625 
Q 47.40625 31.296875 43.53125 35.828125 
Q 39.65625 40.375 33.015625 40.375 
z
M 52.59375 71.296875 
L 52.59375 62.3125 
Q 48.875 64.0625 45.09375 64.984375 
Q 41.3125 65.921875 37.59375 65.921875 
Q 27.828125 65.921875 22.671875 59.328125 
Q 17.53125 52.734375 16.796875 39.40625 
Q 19.671875 43.65625 24.015625 45.921875 
Q 28.375 48.1875 33.59375 48.1875 
Q 44.578125 48.1875 50.953125 41.515625 
Q 57.328125 34.859375 57.328125 23.390625 
Q 57.328125 12.15625 50.6875 5.359375 
Q 44.046875 -1.421875 33.015625 -1.421875 
Q 20.359375 -1.421875 13.671875 8.265625 
Q 6.984375 17.96875 6.984375 36.375 
Q 6.984375 53.65625 15.1875 63.9375 
Q 23.390625 74.21875 37.203125 74.21875 
Q 40.921875 74.21875 44.703125 73.484375 
Q 48.484375 72.75 52.59375 71.296875 
z
" id="DejaVuSans-36"/>
      </defs>
      <g transform="translate(287.227214 317.076875)scale(0.2 -0.2)">
       <use xlink:href="#DejaVuSans-36"/>
      </g>
     </g>
    </g>
    <g id="xtick_5">
     <g id="line2d_9">
      <path clip-path="url(#p44914e749d)" d="M 56.12 294.88 
L 56.12 24.84 
" style="fill:none;stroke:#b0b0b0;stroke-linecap:square;stroke-width:0.8;"/>
     </g>
     <g id="line2d_10">
      <defs>
       <path d="M 0 0 
L 0 2 
" id="mee55856cd6" style="stroke:#000000;stroke-width:0.6;"/>
      </defs>
      <g>
       <use style="stroke:#000000;stroke-width:0.6;" x="56.12" xlink:href="#mee55856cd6" y="294.88"/>
      </g>
     </g>
    </g>
    <g id="xtick_6">
     <g id="line2d_11">
      <path clip-path="url(#p44914e749d)" d="M 95.698286 294.88 
L 95.698286 24.84 
" style="fill:none;stroke:#b0b0b0;stroke-linecap:square;stroke-width:0.8;"/>
     </g>
     <g id="line2d_12">
      <g>
       <use style="stroke:#000000;stroke-width:0.6;" x="95.698286" xlink:href="#mee55856cd6" y="294.88"/>
      </g>
     </g>
    </g>
    <g id="xtick_7">
     <g id="line2d_13">
      <path clip-path="url(#p44914e749d)" d="M 135.276571 294.88 
L 135.276571 24.84 
" style="fill:none;stroke:#b0b0b0;stroke-linecap:square;stroke-width:0.8;"/>
     </g>
     <g id="line2d_14">
      <g>
       <use style="stroke:#000000;stroke-width:0.6;" x="135.276571" xlink:href="#mee55856cd6" y="294.88"/>
      </g>
     </g>
    </g>
    <g id="xtick_8">
     <g id="line2d_15">
      <path clip-path="url(#p44914e749d)" d="M 174.854857 294.88 
L 174.854857 24.84 
" style="fill:none;stroke:#b0b0b0;stroke-linecap:square;stroke-width:0.8;"/>
     </g>
     <g id="line2d_16">
      <g>
       <use style="stroke:#000000;stroke-width:0.6;" x="174.854857" xlink:href="#mee55856cd6" y="294.88"/>
      </g>
     </g>
    </g>
    <g id="xtick_9">
     <g id="line2d_17">
      <path clip-path="url(#p44914e749d)" d="M 214.433143 294.88 
L 214.433143 24.84 
" style="fill:none;stroke:#b0b0b0;stroke-linecap:square;stroke-width:0.8;"/>
     </g>
     <g id="line2d_18">
      <g>
       <use style="stroke:#000000;stroke-width:0.6;" x="214.433143" xlink:href="#mee55856cd6" y="294.88"/>
      </g>
     </g>
    </g>
    <g id="xtick_10">
     <g id="line2d_19">
      <path clip-path="url(#p44914e749d)" d="M 254.011429 294.88 
L 254.011429 24.84 
" style="fill:none;stroke:#b0b0b0;stroke-linecap:square;stroke-width:0.8;"/>
     </g>
     <g id="line2d_20">
      <g>
       <use style="stroke:#000000;stroke-width:0.6;" x="254.011429" xlink:href="#mee55856cd6" y="294.88"/>
      </g>
     </g>
    </g>
    <g id="xtick_11">
     <g id="line2d_21">
      <path clip-path="url(#p44914e749d)" d="M 293.589714 294.88 
L 293.589714 24.84 
" style="fill:none;stroke:#b0b0b0;stroke-linecap:square;stroke-width:0.8;"/>
     </g>
     <g id="line2d_22">
      <g>
       <use style="stroke:#000000;stroke-width:0.6;" x="293.589714" xlink:href="#mee55856cd6" y="294.88"/>
      </g>
     </g>
    </g>
    <g id="xtick_12">
     <g id="line2d_23">
      <path clip-path="url(#p44914e749d)" d="M 333.168 294.88 
L 333.168 24.84 
" style="fill:none;stroke:#b0b0b0;stroke-linecap:square;stroke-width:0.8;"/>
     </g>
     <g id="line2d_24">
      <g>
       <use style="stroke:#000000;stroke-width:0.6;" x="333.168" xlink:href="#mee55856cd6" y="294.88"/>
      </g>
     </g>
    </g>
    <g id="text_5">
     <!-- log10(# f-evals / dimension) -->
     <defs>
      <path d="M 9.421875 75.984375 
L 18.40625 75.984375 
L 18.40625 0 
L 9.421875 0 
z
" id="DejaVuSans-6c"/>
      <path d="M 30.609375 48.390625 
Q 23.390625 48.390625 19.1875 42.75 
Q 14.984375 37.109375 14.984375 27.296875 
Q 14.984375 17.484375 19.15625 11.84375 
Q 23.34375 6.203125 30.609375 6.203125 
Q 37.796875 6.203125 41.984375 11.859375 
Q 46.1875 17.53125 46.1875 27.296875 
Q 46.1875 37.015625 41.984375 42.703125 
Q 37.796875 48.390625 30.609375 48.390625 
z
M 30.609375 56 
Q 42.328125 56 49.015625 48.375 
Q 55.71875 40.765625 55.71875 27.296875 
Q 55.71875 13.875 49.015625 6.21875 
Q 42.328125 -1.421875 30.609375 -1.421875 
Q 18.84375 -1.421875 12.171875 6.21875 
Q 5.515625 13.875 5.515625 27.296875 
Q 5.515625 40.765625 12.171875 48.375 
Q 18.84375 56 30.609375 56 
z
" id="DejaVuSans-6f"/>
      <path d="M 45.40625 27.984375 
Q 45.40625 37.75 41.375 43.109375 
Q 37.359375 48.484375 30.078125 48.484375 
Q 22.859375 48.484375 18.828125 43.109375 
Q 14.796875 37.75 14.796875 27.984375 
Q 14.796875 18.265625 18.828125 12.890625 
Q 22.859375 7.515625 30.078125 7.515625 
Q 37.359375 7.515625 41.375 12.890625 
Q 45.40625 18.265625 45.40625 27.984375 
z
M 54.390625 6.78125 
Q 54.390625 -7.171875 48.1875 -13.984375 
Q 42 -20.796875 29.203125 -20.796875 
Q 24.46875 -20.796875 20.265625 -20.09375 
Q 16.0625 -19.390625 12.109375 -17.921875 
L 12.109375 -9.1875 
Q 16.0625 -11.328125 19.921875 -12.34375 
Q 23.78125 -13.375 27.78125 -13.375 
Q 36.625 -13.375 41.015625 -8.765625 
Q 45.40625 -4.15625 45.40625 5.171875 
L 45.40625 9.625 
Q 42.625 4.78125 38.28125 2.390625 
Q 33.9375 0 27.875 0 
Q 17.828125 0 11.671875 7.65625 
Q 5.515625 15.328125 5.515625 27.984375 
Q 5.515625 40.671875 11.671875 48.328125 
Q 17.828125 56 27.875 56 
Q 33.9375 56 38.28125 53.609375 
Q 42.625 51.21875 45.40625 46.390625 
L 45.40625 54.6875 
L 54.390625 54.6875 
z
" id="DejaVuSans-67"/>
      <path d="M 12.40625 8.296875 
L 28.515625 8.296875 
L 28.515625 63.921875 
L 10.984375 60.40625 
L 10.984375 69.390625 
L 28.421875 72.90625 
L 38.28125 72.90625 
L 38.28125 8.296875 
L 54.390625 8.296875 
L 54.390625 0 
L 12.40625 0 
z
" id="DejaVuSans-31"/>
      <path d="M 31 75.875 
Q 24.46875 64.65625 21.28125 53.65625 
Q 18.109375 42.671875 18.109375 31.390625 
Q 18.109375 20.125 21.3125 9.0625 
Q 24.515625 -2 31 -13.1875 
L 23.1875 -13.1875 
Q 15.875 -1.703125 12.234375 9.375 
Q 8.59375 20.453125 8.59375 31.390625 
Q 8.59375 42.28125 12.203125 53.3125 
Q 15.828125 64.359375 23.1875 75.875 
z
" id="DejaVuSans-28"/>
      <path d="M 51.125 44 
L 36.921875 44 
L 32.8125 27.6875 
L 47.125 27.6875 
z
M 43.796875 71.78125 
L 38.71875 51.515625 
L 52.984375 51.515625 
L 58.109375 71.78125 
L 65.921875 71.78125 
L 60.890625 51.515625 
L 76.125 51.515625 
L 76.125 44 
L 58.984375 44 
L 54.984375 27.6875 
L 70.515625 27.6875 
L 70.515625 20.21875 
L 53.078125 20.21875 
L 48 0 
L 40.1875 0 
L 45.21875 20.21875 
L 30.90625 20.21875 
L 25.875 0 
L 18.015625 0 
L 23.09375 20.21875 
L 7.71875 20.21875 
L 7.71875 27.6875 
L 24.90625 27.6875 
L 29 44 
L 13.28125 44 
L 13.28125 51.515625 
L 30.90625 51.515625 
L 35.890625 71.78125 
z
" id="DejaVuSans-23"/>
      <path id="DejaVuSans-20"/>
      <path d="M 37.109375 75.984375 
L 37.109375 68.5 
L 28.515625 68.5 
Q 23.6875 68.5 21.796875 66.546875 
Q 19.921875 64.59375 19.921875 59.515625 
L 19.921875 54.6875 
L 34.71875 54.6875 
L 34.71875 47.703125 
L 19.921875 47.703125 
L 19.921875 0 
L 10.890625 0 
L 10.890625 47.703125 
L 2.296875 47.703125 
L 2.296875 54.6875 
L 10.890625 54.6875 
L 10.890625 58.5 
Q 10.890625 67.625 15.140625 71.796875 
Q 19.390625 75.984375 28.609375 75.984375 
z
" id="DejaVuSans-66"/>
      <path d="M 4.890625 31.390625 
L 31.203125 31.390625 
L 31.203125 23.390625 
L 4.890625 23.390625 
z
" id="DejaVuSans-2d"/>
      <path d="M 56.203125 29.59375 
L 56.203125 25.203125 
L 14.890625 25.203125 
Q 15.484375 15.921875 20.484375 11.0625 
Q 25.484375 6.203125 34.421875 6.203125 
Q 39.59375 6.203125 44.453125 7.46875 
Q 49.3125 8.734375 54.109375 11.28125 
L 54.109375 2.78125 
Q 49.265625 0.734375 44.1875 -0.34375 
Q 39.109375 -1.421875 33.890625 -1.421875 
Q 20.796875 -1.421875 13.15625 6.1875 
Q 5.515625 13.8125 5.515625 26.8125 
Q 5.515625 40.234375 12.765625 48.109375 
Q 20.015625 56 32.328125 56 
Q 43.359375 56 49.78125 48.890625 
Q 56.203125 41.796875 56.203125 29.59375 
z
M 47.21875 32.234375 
Q 47.125 39.59375 43.09375 43.984375 
Q 39.0625 48.390625 32.421875 48.390625 
Q 24.90625 48.390625 20.390625 44.140625 
Q 15.875 39.890625 15.1875 32.171875 
z
" id="DejaVuSans-65"/>
      <path d="M 2.984375 54.6875 
L 12.5 54.6875 
L 29.59375 8.796875 
L 46.6875 54.6875 
L 56.203125 54.6875 
L 35.6875 0 
L 23.484375 0 
z
" id="DejaVuSans-76"/>
      <path d="M 34.28125 27.484375 
Q 23.390625 27.484375 19.1875 25 
Q 14.984375 22.515625 14.984375 16.5 
Q 14.984375 11.71875 18.140625 8.90625 
Q 21.296875 6.109375 26.703125 6.109375 
Q 34.1875 6.109375 38.703125 11.40625 
Q 43.21875 16.703125 43.21875 25.484375 
L 43.21875 27.484375 
z
M 52.203125 31.203125 
L 52.203125 0 
L 43.21875 0 
L 43.21875 8.296875 
Q 40.140625 3.328125 35.546875 0.953125 
Q 30.953125 -1.421875 24.3125 -1.421875 
Q 15.921875 -1.421875 10.953125 3.296875 
Q 6 8.015625 6 15.921875 
Q 6 25.140625 12.171875 29.828125 
Q 18.359375 34.515625 30.609375 34.515625 
L 43.21875 34.515625 
L 43.21875 35.40625 
Q 43.21875 41.609375 39.140625 45 
Q 35.0625 48.390625 27.6875 48.390625 
Q 23 48.390625 18.546875 47.265625 
Q 14.109375 46.140625 10.015625 43.890625 
L 10.015625 52.203125 
Q 14.9375 54.109375 19.578125 55.046875 
Q 24.21875 56 28.609375 56 
Q 40.484375 56 46.34375 49.84375 
Q 52.203125 43.703125 52.203125 31.203125 
z
" id="DejaVuSans-61"/>
      <path d="M 44.28125 53.078125 
L 44.28125 44.578125 
Q 40.484375 46.53125 36.375 47.5 
Q 32.28125 48.484375 27.875 48.484375 
Q 21.1875 48.484375 17.84375 46.4375 
Q 14.5 44.390625 14.5 40.28125 
Q 14.5 37.15625 16.890625 35.375 
Q 19.28125 33.59375 26.515625 31.984375 
L 29.59375 31.296875 
Q 39.15625 29.25 43.1875 25.515625 
Q 47.21875 21.78125 47.21875 15.09375 
Q 47.21875 7.46875 41.1875 3.015625 
Q 35.15625 -1.421875 24.609375 -1.421875 
Q 20.21875 -1.421875 15.453125 -0.5625 
Q 10.6875 0.296875 5.421875 2 
L 5.421875 11.28125 
Q 10.40625 8.6875 15.234375 7.390625 
Q 20.0625 6.109375 24.8125 6.109375 
Q 31.15625 6.109375 34.5625 8.28125 
Q 37.984375 10.453125 37.984375 14.40625 
Q 37.984375 18.0625 35.515625 20.015625 
Q 33.0625 21.96875 24.703125 23.78125 
L 21.578125 24.515625 
Q 13.234375 26.265625 9.515625 29.90625 
Q 5.8125 33.546875 5.8125 39.890625 
Q 5.8125 47.609375 11.28125 51.796875 
Q 16.75 56 26.8125 56 
Q 31.78125 56 36.171875 55.265625 
Q 40.578125 54.546875 44.28125 53.078125 
z
" id="DejaVuSans-73"/>
      <path d="M 25.390625 72.90625 
L 33.6875 72.90625 
L 8.296875 -9.28125 
L 0 -9.28125 
z
" id="DejaVuSans-2f"/>
      <path d="M 45.40625 46.390625 
L 45.40625 75.984375 
L 54.390625 75.984375 
L 54.390625 0 
L 45.40625 0 
L 45.40625 8.203125 
Q 42.578125 3.328125 38.25 0.953125 
Q 33.9375 -1.421875 27.875 -1.421875 
Q 17.96875 -1.421875 11.734375 6.484375 
Q 5.515625 14.40625 5.515625 27.296875 
Q 5.515625 40.1875 11.734375 48.09375 
Q 17.96875 56 27.875 56 
Q 33.9375 56 38.25 53.625 
Q 42.578125 51.265625 45.40625 46.390625 
z
M 14.796875 27.296875 
Q 14.796875 17.390625 18.875 11.75 
Q 22.953125 6.109375 30.078125 6.109375 
Q 37.203125 6.109375 41.296875 11.75 
Q 45.40625 17.390625 45.40625 27.296875 
Q 45.40625 37.203125 41.296875 42.84375 
Q 37.203125 48.484375 30.078125 48.484375 
Q 22.953125 48.484375 18.875 42.84375 
Q 14.796875 37.203125 14.796875 27.296875 
z
" id="DejaVuSans-64"/>
      <path d="M 9.421875 54.6875 
L 18.40625 54.6875 
L 18.40625 0 
L 9.421875 0 
z
M 9.421875 75.984375 
L 18.40625 75.984375 
L 18.40625 64.59375 
L 9.421875 64.59375 
z
" id="DejaVuSans-69"/>
      <path d="M 52 44.1875 
Q 55.375 50.25 60.0625 53.125 
Q 64.75 56 71.09375 56 
Q 79.640625 56 84.28125 50.015625 
Q 88.921875 44.046875 88.921875 33.015625 
L 88.921875 0 
L 79.890625 0 
L 79.890625 32.71875 
Q 79.890625 40.578125 77.09375 44.375 
Q 74.3125 48.1875 68.609375 48.1875 
Q 61.625 48.1875 57.5625 43.546875 
Q 53.515625 38.921875 53.515625 30.90625 
L 53.515625 0 
L 44.484375 0 
L 44.484375 32.71875 
Q 44.484375 40.625 41.703125 44.40625 
Q 38.921875 48.1875 33.109375 48.1875 
Q 26.21875 48.1875 22.15625 43.53125 
Q 18.109375 38.875 18.109375 30.90625 
L 18.109375 0 
L 9.078125 0 
L 9.078125 54.6875 
L 18.109375 54.6875 
L 18.109375 46.1875 
Q 21.1875 51.21875 25.484375 53.609375 
Q 29.78125 56 35.6875 56 
Q 41.65625 56 45.828125 52.96875 
Q 50 49.953125 52 44.1875 
z
" id="DejaVuSans-6d"/>
      <path d="M 54.890625 33.015625 
L 54.890625 0 
L 45.90625 0 
L 45.90625 32.71875 
Q 45.90625 40.484375 42.875 44.328125 
Q 39.84375 48.1875 33.796875 48.1875 
Q 26.515625 48.1875 22.3125 43.546875 
Q 18.109375 38.921875 18.109375 30.90625 
L 18.109375 0 
L 9.078125 0 
L 9.078125 54.6875 
L 18.109375 54.6875 
L 18.109375 46.1875 
Q 21.34375 51.125 25.703125 53.5625 
Q 30.078125 56 35.796875 56 
Q 45.21875 56 50.046875 50.171875 
Q 54.890625 44.34375 54.890625 33.015625 
z
" id="DejaVuSans-6e"/>
      <path d="M 8.015625 75.875 
L 15.828125 75.875 
Q 23.140625 64.359375 26.78125 53.3125 
Q 30.421875 42.28125 30.421875 31.390625 
Q 30.421875 20.453125 26.78125 9.375 
Q 23.140625 -1.703125 15.828125 -13.1875 
L 8.015625 -13.1875 
Q 14.5 -2 17.703125 9.0625 
Q 20.90625 20.125 20.90625 31.390625 
Q 20.90625 42.671875 17.703125 53.65625 
Q 14.5 64.65625 8.015625 75.875 
z
" id="DejaVuSans-29"/>
     </defs>
     <g transform="translate(73.803219 338.153594)scale(0.17 -0.17)">
      <use xlink:href="#DejaVuSans-6c"/>
      <use x="27.783203" xlink:href="#DejaVuSans-6f"/>
      <use x="88.964844" xlink:href="#DejaVuSans-67"/>
      <use x="152.441406" xlink:href="#DejaVuSans-31"/>
      <use x="216.064453" xlink:href="#DejaVuSans-30"/>
      <use x="279.6875" xlink:href="#DejaVuSans-28"/>
      <use x="318.701172" xlink:href="#DejaVuSans-23"/>
      <use x="402.490234" xlink:href="#DejaVuSans-20"/>
      <use x="434.277344" xlink:href="#DejaVuSans-66"/>
      <use x="469.404297" xlink:href="#DejaVuSans-2d"/>
      <use x="505.488281" xlink:href="#DejaVuSans-65"/>
      <use x="567.011719" xlink:href="#DejaVuSans-76"/>
      <use x="626.191406" xlink:href="#DejaVuSans-61"/>
      <use x="687.470703" xlink:href="#DejaVuSans-6c"/>
      <use x="715.253906" xlink:href="#DejaVuSans-73"/>
      <use x="767.353516" xlink:href="#DejaVuSans-20"/>
      <use x="799.140625" xlink:href="#DejaVuSans-2f"/>
      <use x="832.832031" xlink:href="#DejaVuSans-20"/>
      <use x="864.619141" xlink:href="#DejaVuSans-64"/>
      <use x="928.095703" xlink:href="#DejaVuSans-69"/>
      <use x="955.878906" xlink:href="#DejaVuSans-6d"/>
      <use x="1053.291016" xlink:href="#DejaVuSans-65"/>
      <use x="1114.814453" xlink:href="#DejaVuSans-6e"/>
      <use x="1178.193359" xlink:href="#DejaVuSans-73"/>
      <use x="1230.292969" xlink:href="#DejaVuSans-69"/>
      <use x="1258.076172" xlink:href="#DejaVuSans-6f"/>
      <use x="1319.257812" xlink:href="#DejaVuSans-6e"/>
      <use x="1382.636719" xlink:href="#DejaVuSans-29"/>
     </g>
    </g>
   </g>
   <g id="matplotlib.axis_2">
    <g id="ytick_1">
     <g id="line2d_25">
      <path clip-path="url(#p44914e749d)" d="M 56.12 294.88 
L 333.168 294.88 
" style="fill:none;stroke:#b0b0b0;stroke-linecap:square;stroke-width:0.8;"/>
     </g>
     <g id="line2d_26">
      <defs>
       <path d="M 0 0 
L -3.5 0 
" id="m31065a1576" style="stroke:#000000;stroke-width:0.8;"/>
      </defs>
      <g>
       <use style="stroke:#000000;stroke-width:0.8;" x="56.12" xlink:href="#m31065a1576" y="294.88"/>
      </g>
     </g>
     <g id="text_6">
      <!-- 0.0 -->
      <defs>
       <path d="M 10.6875 12.40625 
L 21 12.40625 
L 21 0 
L 10.6875 0 
z
" id="DejaVuSans-2e"/>
      </defs>
      <g transform="translate(23.675 300.95875)scale(0.16 -0.16)">
       <use xlink:href="#DejaVuSans-30"/>
       <use x="63.623047" xlink:href="#DejaVuSans-2e"/>
       <use x="95.410156" xlink:href="#DejaVuSans-30"/>
      </g>
     </g>
    </g>
    <g id="ytick_2">
     <g id="line2d_27">
      <path clip-path="url(#p44914e749d)" d="M 56.12 241.406733 
L 333.168 241.406733 
" style="fill:none;stroke:#b0b0b0;stroke-linecap:square;stroke-width:0.8;"/>
     </g>
     <g id="line2d_28">
      <g>
       <use style="stroke:#000000;stroke-width:0.8;" x="56.12" xlink:href="#m31065a1576" y="241.406733"/>
      </g>
     </g>
     <g id="text_7">
      <!-- 0.2 -->
      <g transform="translate(23.675 247.485483)scale(0.16 -0.16)">
       <use xlink:href="#DejaVuSans-30"/>
       <use x="63.623047" xlink:href="#DejaVuSans-2e"/>
       <use x="95.410156" xlink:href="#DejaVuSans-32"/>
      </g>
     </g>
    </g>
    <g id="ytick_3">
     <g id="line2d_29">
      <path clip-path="url(#p44914e749d)" d="M 56.12 187.933465 
L 333.168 187.933465 
" style="fill:none;stroke:#b0b0b0;stroke-linecap:square;stroke-width:0.8;"/>
     </g>
     <g id="line2d_30">
      <g>
       <use style="stroke:#000000;stroke-width:0.8;" x="56.12" xlink:href="#m31065a1576" y="187.933465"/>
      </g>
     </g>
     <g id="text_8">
      <!-- 0.4 -->
      <g transform="translate(23.675 194.012215)scale(0.16 -0.16)">
       <use xlink:href="#DejaVuSans-30"/>
       <use x="63.623047" xlink:href="#DejaVuSans-2e"/>
       <use x="95.410156" xlink:href="#DejaVuSans-34"/>
      </g>
     </g>
    </g>
    <g id="ytick_4">
     <g id="line2d_31">
      <path clip-path="url(#p44914e749d)" d="M 56.12 134.460198 
L 333.168 134.460198 
" style="fill:none;stroke:#b0b0b0;stroke-linecap:square;stroke-width:0.8;"/>
     </g>
     <g id="line2d_32">
      <g>
       <use style="stroke:#000000;stroke-width:0.8;" x="56.12" xlink:href="#m31065a1576" y="134.460198"/>
      </g>
     </g>
     <g id="text_9">
      <!-- 0.6 -->
      <g transform="translate(23.675 140.538948)scale(0.16 -0.16)">
       <use xlink:href="#DejaVuSans-30"/>
       <use x="63.623047" xlink:href="#DejaVuSans-2e"/>
       <use x="95.410156" xlink:href="#DejaVuSans-36"/>
      </g>
     </g>
    </g>
    <g id="ytick_5">
     <g id="line2d_33">
      <path clip-path="url(#p44914e749d)" d="M 56.12 80.986931 
L 333.168 80.986931 
" style="fill:none;stroke:#b0b0b0;stroke-linecap:square;stroke-width:0.8;"/>
     </g>
     <g id="line2d_34">
      <g>
       <use style="stroke:#000000;stroke-width:0.8;" x="56.12" xlink:href="#m31065a1576" y="80.986931"/>
      </g>
     </g>
     <g id="text_10">
      <!-- 0.8 -->
      <defs>
       <path d="M 31.78125 34.625 
Q 24.75 34.625 20.71875 30.859375 
Q 16.703125 27.09375 16.703125 20.515625 
Q 16.703125 13.921875 20.71875 10.15625 
Q 24.75 6.390625 31.78125 6.390625 
Q 38.8125 6.390625 42.859375 10.171875 
Q 46.921875 13.96875 46.921875 20.515625 
Q 46.921875 27.09375 42.890625 30.859375 
Q 38.875 34.625 31.78125 34.625 
z
M 21.921875 38.8125 
Q 15.578125 40.375 12.03125 44.71875 
Q 8.5 49.078125 8.5 55.328125 
Q 8.5 64.0625 14.71875 69.140625 
Q 20.953125 74.21875 31.78125 74.21875 
Q 42.671875 74.21875 48.875 69.140625 
Q 55.078125 64.0625 55.078125 55.328125 
Q 55.078125 49.078125 51.53125 44.71875 
Q 48 40.375 41.703125 38.8125 
Q 48.828125 37.15625 52.796875 32.3125 
Q 56.78125 27.484375 56.78125 20.515625 
Q 56.78125 9.90625 50.3125 4.234375 
Q 43.84375 -1.421875 31.78125 -1.421875 
Q 19.734375 -1.421875 13.25 4.234375 
Q 6.78125 9.90625 6.78125 20.515625 
Q 6.78125 27.484375 10.78125 32.3125 
Q 14.796875 37.15625 21.921875 38.8125 
z
M 18.3125 54.390625 
Q 18.3125 48.734375 21.84375 45.5625 
Q 25.390625 42.390625 31.78125 42.390625 
Q 38.140625 42.390625 41.71875 45.5625 
Q 45.3125 48.734375 45.3125 54.390625 
Q 45.3125 60.0625 41.71875 63.234375 
Q 38.140625 66.40625 31.78125 66.40625 
Q 25.390625 66.40625 21.84375 63.234375 
Q 18.3125 60.0625 18.3125 54.390625 
z
" id="DejaVuSans-38"/>
      </defs>
      <g transform="translate(23.675 87.065681)scale(0.16 -0.16)">
       <use xlink:href="#DejaVuSans-30"/>
       <use x="63.623047" xlink:href="#DejaVuSans-2e"/>
       <use x="95.410156" xlink:href="#DejaVuSans-38"/>
      </g>
     </g>
    </g>
    <g id="ytick_6">
     <g id="line2d_35">
      <path clip-path="url(#p44914e749d)" d="M 56.12 27.513663 
L 333.168 27.513663 
" style="fill:none;stroke:#b0b0b0;stroke-linecap:square;stroke-width:0.8;"/>
     </g>
     <g id="line2d_36">
      <g>
       <use style="stroke:#000000;stroke-width:0.8;" x="56.12" xlink:href="#m31065a1576" y="27.513663"/>
      </g>
     </g>
     <g id="text_11">
      <!-- 1.0 -->
      <g transform="translate(23.675 33.592413)scale(0.16 -0.16)">
       <use xlink:href="#DejaVuSans-31"/>
       <use x="63.623047" xlink:href="#DejaVuSans-2e"/>
       <use x="95.410156" xlink:href="#DejaVuSans-30"/>
      </g>
     </g>
    </g>
    <g id="text_12">
     <!-- Fraction of function,target pairs -->
     <defs>
      <path d="M 9.8125 72.90625 
L 51.703125 72.90625 
L 51.703125 64.59375 
L 19.671875 64.59375 
L 19.671875 43.109375 
L 48.578125 43.109375 
L 48.578125 34.8125 
L 19.671875 34.8125 
L 19.671875 0 
L 9.8125 0 
z
" id="DejaVuSans-46"/>
      <path d="M 41.109375 46.296875 
Q 39.59375 47.171875 37.8125 47.578125 
Q 36.03125 48 33.890625 48 
Q 26.265625 48 22.1875 43.046875 
Q 18.109375 38.09375 18.109375 28.8125 
L 18.109375 0 
L 9.078125 0 
L 9.078125 54.6875 
L 18.109375 54.6875 
L 18.109375 46.1875 
Q 20.953125 51.171875 25.484375 53.578125 
Q 30.03125 56 36.53125 56 
Q 37.453125 56 38.578125 55.875 
Q 39.703125 55.765625 41.0625 55.515625 
z
" id="DejaVuSans-72"/>
      <path d="M 48.78125 52.59375 
L 48.78125 44.1875 
Q 44.96875 46.296875 41.140625 47.34375 
Q 37.3125 48.390625 33.40625 48.390625 
Q 24.65625 48.390625 19.8125 42.84375 
Q 14.984375 37.3125 14.984375 27.296875 
Q 14.984375 17.28125 19.8125 11.734375 
Q 24.65625 6.203125 33.40625 6.203125 
Q 37.3125 6.203125 41.140625 7.25 
Q 44.96875 8.296875 48.78125 10.40625 
L 48.78125 2.09375 
Q 45.015625 0.34375 40.984375 -0.53125 
Q 36.96875 -1.421875 32.421875 -1.421875 
Q 20.0625 -1.421875 12.78125 6.34375 
Q 5.515625 14.109375 5.515625 27.296875 
Q 5.515625 40.671875 12.859375 48.328125 
Q 20.21875 56 33.015625 56 
Q 37.15625 56 41.109375 55.140625 
Q 45.0625 54.296875 48.78125 52.59375 
z
" id="DejaVuSans-63"/>
      <path d="M 18.3125 70.21875 
L 18.3125 54.6875 
L 36.8125 54.6875 
L 36.8125 47.703125 
L 18.3125 47.703125 
L 18.3125 18.015625 
Q 18.3125 11.328125 20.140625 9.421875 
Q 21.96875 7.515625 27.59375 7.515625 
L 36.8125 7.515625 
L 36.8125 0 
L 27.59375 0 
Q 17.1875 0 13.234375 3.875 
Q 9.28125 7.765625 9.28125 18.015625 
L 9.28125 47.703125 
L 2.6875 47.703125 
L 2.6875 54.6875 
L 9.28125 54.6875 
L 9.28125 70.21875 
z
" id="DejaVuSans-74"/>
      <path d="M 8.5 21.578125 
L 8.5 54.6875 
L 17.484375 54.6875 
L 17.484375 21.921875 
Q 17.484375 14.15625 20.5 10.265625 
Q 23.53125 6.390625 29.59375 6.390625 
Q 36.859375 6.390625 41.078125 11.03125 
Q 45.3125 15.671875 45.3125 23.6875 
L 45.3125 54.6875 
L 54.296875 54.6875 
L 54.296875 0 
L 45.3125 0 
L 45.3125 8.40625 
Q 42.046875 3.421875 37.71875 1 
Q 33.40625 -1.421875 27.6875 -1.421875 
Q 18.265625 -1.421875 13.375 4.4375 
Q 8.5 10.296875 8.5 21.578125 
z
M 31.109375 56 
z
" id="DejaVuSans-75"/>
      <path d="M 11.71875 12.40625 
L 22.015625 12.40625 
L 22.015625 4 
L 14.015625 -11.625 
L 7.71875 -11.625 
L 11.71875 4 
z
" id="DejaVuSans-2c"/>
      <path d="M 18.109375 8.203125 
L 18.109375 -20.796875 
L 9.078125 -20.796875 
L 9.078125 54.6875 
L 18.109375 54.6875 
L 18.109375 46.390625 
Q 20.953125 51.265625 25.265625 53.625 
Q 29.59375 56 35.59375 56 
Q 45.5625 56 51.78125 48.09375 
Q 58.015625 40.1875 58.015625 27.296875 
Q 58.015625 14.40625 51.78125 6.484375 
Q 45.5625 -1.421875 35.59375 -1.421875 
Q 29.59375 -1.421875 25.265625 0.953125 
Q 20.953125 3.328125 18.109375 8.203125 
z
M 48.6875 27.296875 
Q 48.6875 37.203125 44.609375 42.84375 
Q 40.53125 48.484375 33.40625 48.484375 
Q 26.265625 48.484375 22.1875 42.84375 
Q 18.109375 37.203125 18.109375 27.296875 
Q 18.109375 17.390625 22.1875 11.75 
Q 26.265625 6.109375 33.40625 6.109375 
Q 40.53125 6.109375 44.609375 11.75 
Q 48.6875 17.390625 48.6875 27.296875 
z
" id="DejaVuSans-70"/>
     </defs>
     <g transform="translate(16.139531 294.999375)rotate(-90)scale(0.17 -0.17)">
      <use xlink:href="#DejaVuSans-46"/>
      <use x="57.410156" xlink:href="#DejaVuSans-72"/>
      <use x="98.523438" xlink:href="#DejaVuSans-61"/>
      <use x="159.802734" xlink:href="#DejaVuSans-63"/>
      <use x="214.783203" xlink:href="#DejaVuSans-74"/>
      <use x="253.992188" xlink:href="#DejaVuSans-69"/>
      <use x="281.775391" xlink:href="#DejaVuSans-6f"/>
      <use x="342.957031" xlink:href="#DejaVuSans-6e"/>
      <use x="406.335938" xlink:href="#DejaVuSans-20"/>
      <use x="438.123047" xlink:href="#DejaVuSans-6f"/>
      <use x="499.304688" xlink:href="#DejaVuSans-66"/>
      <use x="534.509766" xlink:href="#DejaVuSans-20"/>
      <use x="566.296875" xlink:href="#DejaVuSans-66"/>
      <use x="601.501953" xlink:href="#DejaVuSans-75"/>
      <use x="664.880859" xlink:href="#DejaVuSans-6e"/>
      <use x="728.259766" xlink:href="#DejaVuSans-63"/>
      <use x="783.240234" xlink:href="#DejaVuSans-74"/>
      <use x="822.449219" xlink:href="#DejaVuSans-69"/>
      <use x="850.232422" xlink:href="#DejaVuSans-6f"/>
      <use x="911.414062" xlink:href="#DejaVuSans-6e"/>
      <use x="974.792969" xlink:href="#DejaVuSans-2c"/>
      <use x="1006.580078" xlink:href="#DejaVuSans-74"/>
      <use x="1045.789062" xlink:href="#DejaVuSans-61"/>
      <use x="1107.068359" xlink:href="#DejaVuSans-72"/>
      <use x="1148.166016" xlink:href="#DejaVuSans-67"/>
      <use x="1211.642578" xlink:href="#DejaVuSans-65"/>
      <use x="1273.166016" xlink:href="#DejaVuSans-74"/>
      <use x="1312.375" xlink:href="#DejaVuSans-20"/>
      <use x="1344.162109" xlink:href="#DejaVuSans-70"/>
      <use x="1407.638672" xlink:href="#DejaVuSans-61"/>
      <use x="1468.917969" xlink:href="#DejaVuSans-69"/>
      <use x="1496.701172" xlink:href="#DejaVuSans-72"/>
      <use x="1537.814453" xlink:href="#DejaVuSans-73"/>
     </g>
    </g>
   </g>
   <g id="line2d_37">
    <defs>
     <path d="M 0 1.5 
C 0.397805 1.5 0.77937 1.341951 1.06066 1.06066 
C 1.341951 0.77937 1.5 0.397805 1.5 0 
C 1.5 -0.397805 1.341951 -0.77937 1.06066 -1.06066 
C 0.77937 -1.341951 0.397805 -1.5 0 -1.5 
C -0.397805 -1.5 -0.77937 -1.341951 -1.06066 -1.06066 
C -1.341951 -0.77937 -1.5 -0.397805 -1.5 0 
C -1.5 0.397805 -1.341951 0.77937 -1.06066 1.06066 
C -0.77937 1.341951 -0.397805 1.5 0 1.5 
z
" id="m7f3bef27b5" style="stroke:#00bfbf;"/>
    </defs>
    <g>
     <use style="fill:#00bfbf;stroke:#00bfbf;" x="204.63181" xlink:href="#m7f3bef27b5" y="27.513663"/>
     <use style="fill:#00bfbf;stroke:#00bfbf;" x="204.63181" xlink:href="#m7f3bef27b5" y="27.513663"/>
    </g>
   </g>
   <g id="line2d_38">
    <path d="M 44.205749 294.88 
L 44.205749 276.007082 
L 56.12 276.007082 
L 56.12 266.570623 
L 63.08939 266.570623 
L 63.08939 263.425137 
L 71.869783 263.425137 
L 71.869783 260.279651 
L 75.003641 260.279651 
L 75.003641 259.755403 
L 77.653281 259.755403 
L 77.653281 257.134164 
L 79.948502 257.134164 
L 79.948502 253.988678 
L 83.784035 253.988678 
L 83.784035 253.46443 
L 88.293717 253.46443 
L 88.293717 252.940182 
L 89.567532 252.940182 
L 89.567532 247.697705 
L 90.753425 247.697705 
L 90.753425 243.503724 
L 92.904808 243.503724 
L 92.904808 241.93098 
L 93.887283 241.93098 
L 93.887283 239.83399 
L 95.698286 239.83399 
L 95.698286 236.688503 
L 96.536922 236.688503 
L 96.536922 235.11576 
L 97.336537 235.11576 
L 97.336537 233.018769 
L 100.856673 233.018769 
L 100.856673 229.873283 
L 102.084955 229.873283 
L 102.084955 229.349035 
L 103.777005 229.349035 
L 103.777005 227.776292 
L 104.819059 227.776292 
L 104.819059 226.203549 
L 105.317315 226.203549 
L 105.317315 225.679301 
L 106.272485 225.679301 
L 106.272485 224.630806 
L 108.036969 224.630806 
L 108.036969 223.58231 
L 108.85563 223.58231 
L 108.85563 222.533815 
L 110.746395 222.533815 
L 110.746395 221.485319 
L 111.448069 221.485319 
L 111.448069 218.864081 
L 111.788449 218.864081 
L 111.788449 218.339833 
L 115.145539 218.339833 
L 115.145539 217.291338 
L 115.691256 217.291338 
L 115.691256 216.76709 
L 115.957752 216.76709 
L 115.957752 215.718594 
L 116.478659 215.718594 
L 116.478659 212.573108 
L 118.869818 212.573108 
L 118.869818 211.524613 
L 119.09161 211.524613 
L 119.09161 205.757888 
L 123.015063 205.757888 
L 123.015063 205.23364 
L 128.264156 205.23364 
L 128.264156 204.709392 
L 129.268157 204.709392 
L 129.268157 204.185145 
L 129.389632 204.185145 
L 129.389632 202.612401 
L 129.630036 202.612401 
L 129.630036 202.088154 
L 131.005861 202.088154 
L 131.005861 201.563906 
L 131.760342 201.563906 
L 131.760342 198.41842 
L 132.583907 198.41842 
L 132.583907 197.894172 
L 135.3623 197.894172 
L 135.3623 196.845677 
L 135.701004 196.845677 
L 135.701004 196.321429 
L 136.519665 196.321429 
L 136.519665 195.797181 
L 137.070377 195.797181 
L 137.070377 194.224438 
L 137.901638 194.224438 
L 137.901638 193.70019 
L 138.410429 193.70019 
L 138.410429 193.175943 
L 139.112104 193.175943 
L 139.112104 192.127447 
L 139.720016 192.127447 
L 139.720016 191.603199 
L 139.983449 191.603199 
L 139.983449 191.078952 
L 140.750355 191.078952 
L 140.750355 189.506209 
L 142.18857 189.506209 
L 142.18857 188.981961 
L 142.809574 188.981961 
L 142.809574 187.933465 
L 142.975116 187.933465 
L 142.975116 184.263731 
L 143.621786 184.263731 
L 143.621786 183.739484 
L 143.779723 183.739484 
L 143.779723 183.215236 
L 144.747635 183.215236 
L 144.747635 182.690988 
L 145.139415 182.690988 
L 145.139415 177.972759 
L 145.85077 177.972759 
L 145.85077 176.924263 
L 146.172923 176.924263 
L 146.172923 175.875768 
L 147.782136 175.875768 
L 147.782136 173.778777 
L 148.192385 173.778777 
L 148.192385 173.254529 
L 148.353782 173.254529 
L 148.353782 170.633291 
L 148.55342 170.633291 
L 148.55342 169.584795 
L 148.868095 169.584795 
L 148.868095 169.060547 
L 149.023298 169.060547 
L 149.023298 165.915061 
L 149.177112 165.915061 
L 149.177112 165.390813 
L 149.329562 165.390813 
L 149.329562 163.81807 
L 149.555732 163.81807 
L 149.555732 160.672584 
L 149.704875 160.672584 
L 149.778964 152.808868 
L 150.144693 152.808868 
L 150.144693 152.28462 
L 150.467326 152.28462 
L 150.502803 145.993648 
L 150.608797 145.993648 
L 150.608797 145.4694 
L 150.888293 145.4694 
L 150.991943 141.799666 
L 151.265327 141.799666 
L 151.265327 141.275418 
L 151.962932 141.275418 
L 151.962932 140.751171 
L 152.092658 140.751171 
L 152.092658 136.557189 
L 152.34921 136.557189 
L 152.34921 134.984446 
L 152.601988 134.984446 
L 152.69583 133.411703 
L 152.820161 133.411703 
L 152.820161 132.887455 
L 152.943598 132.887455 
L 152.943598 131.314712 
L 153.187846 131.314712 
L 153.187846 130.790464 
L 153.695627 130.790464 
L 153.695627 128.693473 
L 154.131541 128.693473 
L 154.131541 127.12073 
L 154.889367 127.12073 
L 154.998849 126.072235 
L 155.107638 126.072235 
L 155.161776 123.975244 
L 155.824488 123.975244 
L 155.850472 122.926748 
L 156.031271 122.926748 
L 156.133737 120.30551 
L 156.210188 120.30551 
L 156.210188 119.257014 
L 156.462595 119.257014 
L 156.462595 118.732766 
L 156.858892 118.732766 
L 156.858892 117.160023 
L 157.625086 117.160023 
L 157.625086 114.014537 
L 160.704216 114.014537 
L 160.704216 112.441794 
L 160.860123 112.441794 
L 160.860123 111.917546 
L 161.319534 111.917546 
L 161.319534 111.393298 
L 161.488697 111.393298 
L 161.488697 109.820555 
L 161.674723 109.820555 
L 161.674723 108.77206 
L 161.895329 108.77206 
L 161.895329 108.247812 
L 162.274704 108.247812 
L 162.274704 107.723564 
L 162.54065 107.723564 
L 162.54065 104.578078 
L 162.940606 104.578078 
L 162.992095 103.529583 
L 163.111639 103.529583 
L 163.213447 99.859849 
L 163.314656 99.859849 
L 163.365038 95.141619 
L 163.762864 95.141619 
L 163.860898 93.568876 
L 164.71892 93.568876 
L 164.71892 93.044628 
L 165.901712 93.044628 
L 166.002695 91.996133 
L 166.045792 91.996133 
L 166.045792 91.471885 
L 167.725732 91.471885 
L 167.790669 90.42339 
L 169.064483 90.42339 
L 169.064483 88.850646 
L 169.539337 88.850646 
L 169.539337 88.326399 
L 169.795022 88.326399 
L 169.795022 87.802151 
L 169.909996 87.802151 
L 170.001425 84.656665 
L 170.451415 84.656665 
L 170.451415 83.608169 
L 174.472486 83.608169 
L 174.533889 82.559674 
L 174.991819 82.559674 
L 174.991819 82.035426 
L 176.43833 82.035426 
L 176.477476 80.986931 
L 176.940393 80.986931 
L 176.940393 79.938435 
L 177.091969 79.938435 
L 177.091969 79.414188 
L 177.272114 79.414188 
L 177.272114 77.841444 
L 177.494671 77.841444 
L 177.51677 74.695958 
L 177.714384 74.695958 
L 177.765249 71.550472 
L 177.837653 71.550472 
L 177.852097 69.453481 
L 177.995876 69.453481 
L 178.024488 66.307995 
L 178.350147 66.307995 
L 178.350147 65.783747 
L 178.482878 65.783747 
L 178.586947 64.735251 
L 178.662865 64.735251 
L 178.717869 61.589765 
L 178.793213 61.589765 
L 178.793213 60.017022 
L 179.037509 60.017022 
L 179.037509 59.492774 
L 179.231808 59.492774 
L 179.231808 58.444279 
L 179.443689 58.444279 
L 179.529025 53.726049 
L 179.594382 53.726049 
L 179.594382 53.201802 
L 179.75023 53.201802 
L 179.75023 52.153306 
L 179.866195 52.153306 
L 179.866195 50.056315 
L 180.140098 50.056315 
L 180.140098 48.483572 
L 180.366102 48.483572 
L 180.397258 46.910829 
L 180.77897 46.910829 
L 180.803308 45.862334 
L 180.924483 45.862334 
L 180.972715 44.813838 
L 181.068775 44.813838 
L 181.170253 41.668352 
L 181.211865 41.668352 
L 181.253376 39.571361 
L 181.459442 39.571361 
L 181.459442 39.047113 
L 203.450585 39.047113 
L 203.450585 37.47437 
L 204.033252 37.47437 
L 204.033252 36.425875 
L 204.164954 36.425875 
L 204.164954 34.853131 
L 204.369898 34.853131 
L 204.454575 28.562159 
L 204.593767 28.562159 
L 204.63181 27.513663 
L 333.168 27.513663 
L 333.168 27.513663 
" style="fill:none;stroke:#00bfbf;stroke-linecap:square;stroke-width:1.5;"/>
   </g>
   <g id="line2d_39">
    <defs>
     <path d="M -6 0 
L 6 0 
M 0 6 
L 0 -6 
" id="me91cdfa1c6" style="stroke:#00bfbf;stroke-width:1.5;"/>
    </defs>
    <g>
     <use style="fill-opacity:0;stroke:#00bfbf;stroke-width:1.5;" x="90.753425" xlink:href="#me91cdfa1c6" y="243.503724"/>
     <use style="fill-opacity:0;stroke:#00bfbf;stroke-width:1.5;" x="149.329562" xlink:href="#me91cdfa1c6" y="163.81807"/>
     <use style="fill-opacity:0;stroke:#00bfbf;stroke-width:1.5;" x="179.75023" xlink:href="#me91cdfa1c6" y="52.153306"/>
     <use style="fill-opacity:0;stroke:#00bfbf;stroke-width:1.5;" x="204.63181" xlink:href="#me91cdfa1c6" y="27.513663"/>
     <use style="fill-opacity:0;stroke:#00bfbf;stroke-width:1.5;" x="204.63181" xlink:href="#me91cdfa1c6" y="27.513663"/>
     <use style="fill-opacity:0;stroke:#00bfbf;stroke-width:1.5;" x="333.168" xlink:href="#me91cdfa1c6" y="27.513663"/>
    </g>
   </g>
   <g id="line2d_40">
    <path style="fill:none;stroke:#00bfbf;stroke-linecap:square;stroke-width:1.5;"/>
    <g/>
   </g>
   <g id="line2d_41">
    <defs>
     <path d="M 0 1.5 
C 0.397805 1.5 0.77937 1.341951 1.06066 1.06066 
C 1.341951 0.77937 1.5 0.397805 1.5 0 
C 1.5 -0.397805 1.341951 -0.77937 1.06066 -1.06066 
C 0.77937 -1.341951 0.397805 -1.5 0 -1.5 
C -0.397805 -1.5 -0.77937 -1.341951 -1.06066 -1.06066 
C -1.341951 -0.77937 -1.5 -0.397805 -1.5 0 
C -1.5 0.397805 -1.341951 0.77937 -1.06066 1.06066 
C -0.77937 1.341951 -0.397805 1.5 0 1.5 
z
" id="m8368481eb2" style="stroke:#008000;"/>
    </defs>
    <g>
     <use style="fill:#008000;stroke:#008000;" x="236.136321" xlink:href="#m8368481eb2" y="27.513663"/>
     <use style="fill:#008000;stroke:#008000;" x="236.136321" xlink:href="#m8368481eb2" y="27.513663"/>
    </g>
   </g>
   <g id="line2d_42">
    <path d="M 37.236359 294.88 
L 37.236359 276.007082 
L 49.15061 276.007082 
L 49.15061 272.337348 
L 56.12 272.337348 
L 56.12 271.288853 
L 61.064861 271.288853 
L 61.064861 264.99788 
L 68.034251 264.99788 
L 68.034251 264.473632 
L 75.003641 264.473632 
L 75.003641 261.852394 
L 78.452896 261.852394 
L 78.452896 260.279651 
L 81.324327 260.279651 
L 81.324327 259.755403 
L 82.598142 259.755403 
L 82.598142 258.706907 
L 83.784035 258.706907 
L 83.784035 258.18266 
L 84.893363 258.18266 
L 84.893363 255.037173 
L 89.567532 255.037173 
L 89.567532 253.988678 
L 90.367147 253.988678 
L 90.367147 253.46443 
L 92.564428 253.46443 
L 92.564428 252.940182 
L 93.238578 252.940182 
L 93.238578 252.415935 
L 93.887283 252.415935 
L 93.887283 251.891687 
L 97.849669 251.891687 
L 97.849669 251.367439 
L 99.303095 251.367439 
L 99.303095 249.794696 
L 101.481783 249.794696 
L 101.481783 249.270448 
L 102.281398 249.270448 
L 102.281398 248.746201 
L 104.478679 248.746201 
L 104.478679 248.221953 
L 105.801534 248.221953 
L 105.801534 247.697705 
L 106.11693 247.697705 
L 106.11693 246.64921 
L 108.451173 246.64921 
L 108.451173 246.124962 
L 109.76392 246.124962 
L 109.76392 244.552219 
L 111.675736 244.552219 
L 111.675736 243.503724 
L 112.122219 243.503724 
L 112.122219 240.358237 
L 113.19018 240.358237 
L 113.19018 239.83399 
L 113.599452 239.83399 
L 113.599452 239.309742 
L 113.999206 239.309742 
L 113.999206 238.785494 
L 115.145539 238.785494 
L 115.145539 238.261246 
L 115.511269 238.261246 
L 115.511269 237.736999 
L 116.220179 237.736999 
L 116.220179 237.212751 
L 116.73331 237.212751 
L 116.73331 236.688503 
L 119.669433 236.688503 
L 119.669433 236.164255 
L 120.228462 236.164255 
L 120.228462 235.640008 
L 120.501303 235.640008 
L 120.501303 234.591512 
L 121.804096 234.591512 
L 121.804096 233.018769 
L 123.925932 233.018769 
L 123.925932 231.446026 
L 124.255437 231.446026 
L 124.255437 229.873283 
L 131.583684 229.873283 
L 131.583684 228.30054 
L 131.935202 228.30054 
L 131.935202 227.776292 
L 132.279675 227.776292 
L 132.279675 227.252044 
L 133.529112 227.252044 
L 133.529112 226.727797 
L 134.515111 226.727797 
L 134.515111 226.203549 
L 136.3859 226.203549 
L 136.3859 225.679301 
L 137.173303 225.679301 
L 137.173303 225.155053 
L 139.786254 225.155053 
L 139.786254 224.630806 
L 140.771177 224.630806 
L 140.771177 224.106558 
L 142.809574 224.106558 
L 142.809574 223.058063 
L 146.429362 223.058063 
L 146.429362 222.009567 
L 148.300151 222.009567 
L 148.300151 220.436824 
L 149.593139 220.436824 
L 149.593139 218.864081 
L 149.962801 218.864081 
L 149.962801 218.339833 
L 151.094972 218.339833 
L 151.094972 217.815585 
L 152.28543 217.815585 
L 152.28543 216.76709 
L 155.885057 216.76709 
L 155.885057 216.242842 
L 157.420925 216.242842 
L 157.420925 215.718594 
L 157.765022 215.718594 
L 157.795964 214.145851 
L 160.599487 214.145851 
L 160.599487 213.097356 
L 161.482461 213.097356 
L 161.482461 212.04886 
L 163.931355 212.04886 
L 163.97457 211.000365 
L 164.369237 211.000365 
L 164.369237 210.476117 
L 164.734412 210.476117 
L 164.775656 207.854879 
L 165.263022 207.854879 
L 165.263022 206.806383 
L 165.452183 206.806383 
L 165.452183 205.23364 
L 165.804984 205.23364 
L 165.804984 203.136649 
L 166.931279 203.136649 
L 166.931279 202.612401 
L 167.65184 202.612401 
L 167.65184 202.088154 
L 168.509963 202.088154 
L 168.509963 201.563906 
L 168.919431 201.563906 
L 168.919431 201.039658 
L 169.833432 201.039658 
L 169.833432 200.515411 
L 169.978614 200.515411 
L 169.978614 199.991163 
L 170.302724 199.991163 
L 170.302724 198.942667 
L 170.672068 198.942667 
L 170.672068 198.41842 
L 170.803113 198.41842 
L 170.911559 196.845677 
L 172.362063 196.845677 
L 172.362063 196.321429 
L 173.037487 196.321429 
L 173.037487 194.224438 
L 173.208582 194.224438 
L 173.302905 192.127447 
L 173.693502 192.127447 
L 173.736359 191.078952 
L 173.815667 191.078952 
L 173.815667 190.030456 
L 174.051422 190.030456 
L 174.051422 189.506209 
L 174.182998 189.506209 
L 174.182998 188.981961 
L 174.307662 188.981961 
L 174.307662 188.457713 
L 174.454901 188.457713 
L 174.536808 186.360722 
L 174.583437 186.360722 
L 174.65894 183.739484 
L 174.906346 183.739484 
L 174.906346 183.215236 
L 176.617665 183.215236 
L 176.617665 182.690988 
L 177.470085 182.690988 
L 177.470085 181.642493 
L 177.844876 181.642493 
L 177.844876 181.118245 
L 178.15029 181.118245 
L 178.15029 180.593997 
L 178.593862 180.593997 
L 178.593862 180.06975 
L 178.777259 180.06975 
L 178.777259 179.545502 
L 178.999284 179.545502 
L 178.999284 179.021254 
L 179.648656 179.021254 
L 179.648656 178.497006 
L 179.79542 178.497006 
L 179.79542 177.972759 
L 180.671063 177.972759 
L 180.683313 176.924263 
L 180.954644 176.924263 
L 180.954644 176.400016 
L 181.37143 176.400016 
L 181.37143 175.875768 
L 181.523699 175.875768 
L 181.523699 175.35152 
L 181.786008 175.35152 
L 181.797489 174.303025 
L 183.517968 174.303025 
L 183.517968 173.778777 
L 183.700443 173.778777 
L 183.806283 172.206034 
L 183.860656 172.206034 
L 183.938517 166.963557 
L 184.109917 166.963557 
L 184.170006 164.866566 
L 184.766052 164.866566 
L 184.766052 164.342318 
L 185.176346 164.342318 
L 185.270376 161.196832 
L 185.422861 161.196832 
L 185.512474 159.099841 
L 185.564789 159.099841 
L 185.675051 154.905859 
L 185.69031 154.905859 
L 185.705555 151.760373 
L 185.947652 151.760373 
L 186.007648 149.139134 
L 186.62238 149.139134 
L 186.62238 148.614886 
L 190.438832 148.614886 
L 190.438832 148.090639 
L 193.159728 148.090639 
L 193.159728 147.566391 
L 194.568038 147.566391 
L 194.568038 145.993648 
L 195.086093 145.993648 
L 195.086093 144.945152 
L 196.152436 144.945152 
L 196.152436 144.420905 
L 197.569446 144.420905 
L 197.569446 143.896657 
L 198.005542 143.896657 
L 198.005542 142.323914 
L 198.623094 142.323914 
L 198.623094 141.799666 
L 198.894056 141.799666 
L 198.894056 140.751171 
L 199.360264 140.751171 
L 199.360264 140.226923 
L 199.475551 140.226923 
L 199.481022 139.178427 
L 199.653814 139.178427 
L 199.653814 136.032941 
L 199.779254 136.032941 
L 199.863713 130.790464 
L 199.947759 130.790464 
L 200.007541 128.169225 
L 200.177772 128.169225 
L 200.177772 126.596482 
L 200.289026 126.596482 
L 200.289026 125.547987 
L 200.412522 125.547987 
L 200.511972 124.499491 
L 200.565976 124.499491 
L 200.663268 117.684271 
L 200.698974 117.684271 
L 200.698974 116.111528 
L 200.953138 116.111528 
L 200.985742 113.490289 
L 202.866011 113.490289 
L 202.866011 112.966042 
L 203.038089 112.966042 
L 203.038089 112.441794 
L 203.468486 112.441794 
L 203.468486 111.393298 
L 204.136296 111.393298 
L 204.136296 110.869051 
L 204.427934 110.869051 
L 204.427934 110.344803 
L 204.756004 110.344803 
L 204.780132 109.296308 
L 204.933161 109.296308 
L 204.933161 108.247812 
L 205.214633 108.247812 
L 205.310364 104.578078 
L 206.028669 104.578078 
L 206.129274 101.956839 
L 206.158043 101.956839 
L 206.158043 101.432592 
L 206.279087 101.432592 
L 206.390139 95.141619 
L 206.412994 95.141619 
L 206.51229 89.899142 
L 206.525003 89.899142 
L 206.525003 89.374894 
L 207.362039 89.374894 
L 207.362039 88.850646 
L 208.310572 88.850646 
L 208.310572 85.180912 
L 209.336352 85.180912 
L 209.336352 84.656665 
L 209.525674 84.656665 
L 209.628275 80.462683 
L 214.476632 80.462683 
L 214.476632 79.938435 
L 215.964808 79.938435 
L 215.964808 79.414188 
L 216.295977 79.414188 
L 216.295977 78.88994 
L 221.074364 78.88994 
L 221.105482 77.317197 
L 221.360082 77.317197 
L 221.360082 76.792949 
L 221.528502 76.792949 
L 221.629069 74.695958 
L 222.014501 74.695958 
L 222.03108 70.501976 
L 222.17045 70.501976 
L 222.247352 67.35649 
L 223.060566 67.35649 
L 223.113552 64.211004 
L 223.215599 64.211004 
L 223.221441 61.065517 
L 223.339922 61.065517 
L 223.412796 53.726049 
L 225.56346 53.726049 
L 225.659441 46.386581 
L 227.465047 46.386581 
L 227.555541 39.047113 
L 234.518076 39.047113 
L 234.518076 37.998618 
L 234.79368 37.998618 
L 234.810497 36.425875 
L 234.906875 36.425875 
L 234.906875 35.377379 
L 235.987201 35.377379 
L 235.987201 34.328884 
L 236.100137 34.328884 
L 236.136321 27.513663 
L 333.168 27.513663 
L 333.168 27.513663 
" style="fill:none;stroke:#008000;stroke-linecap:square;stroke-width:1.5;"/>
   </g>
   <g id="line2d_43">
    <defs>
     <path d="M -0 6 
L 6 -6 
L -6 -6 
z
" id="m83ff9cf24d" style="stroke:#008000;stroke-linejoin:miter;stroke-width:1.5;"/>
    </defs>
    <g>
     <use style="fill-opacity:0;stroke:#008000;stroke-linejoin:miter;stroke-width:1.5;" x="124.255437" xlink:href="#m83ff9cf24d" y="231.446026"/>
     <use style="fill-opacity:0;stroke:#008000;stroke-linejoin:miter;stroke-width:1.5;" x="184.766052" xlink:href="#m83ff9cf24d" y="164.342318"/>
     <use style="fill-opacity:0;stroke:#008000;stroke-linejoin:miter;stroke-width:1.5;" x="223.412796" xlink:href="#m83ff9cf24d" y="53.726049"/>
     <use style="fill-opacity:0;stroke:#008000;stroke-linejoin:miter;stroke-width:1.5;" x="236.136321" xlink:href="#m83ff9cf24d" y="27.513663"/>
     <use style="fill-opacity:0;stroke:#008000;stroke-linejoin:miter;stroke-width:1.5;" x="236.136321" xlink:href="#m83ff9cf24d" y="27.513663"/>
     <use style="fill-opacity:0;stroke:#008000;stroke-linejoin:miter;stroke-width:1.5;" x="333.168" xlink:href="#m83ff9cf24d" y="27.513663"/>
    </g>
   </g>
   <g id="line2d_44">
    <path style="fill:none;stroke:#008000;stroke-linecap:square;stroke-width:1.5;"/>
    <g/>
   </g>
   <g id="line2d_45">
    <defs>
     <path d="M 0 1.5 
C 0.397805 1.5 0.77937 1.341951 1.06066 1.06066 
C 1.341951 0.77937 1.5 0.397805 1.5 0 
C 1.5 -0.397805 1.341951 -0.77937 1.06066 -1.06066 
C 0.77937 -1.341951 0.397805 -1.5 0 -1.5 
C -0.397805 -1.5 -0.77937 -1.341951 -1.06066 -1.06066 
C -1.341951 -0.77937 -1.5 -0.397805 -1.5 0 
C -1.5 0.397805 -1.341951 0.77937 -1.06066 1.06066 
C -0.77937 1.341951 -0.397805 1.5 0 1.5 
z
" id="m634b67c585" style="stroke:#0000ff;"/>
    </defs>
    <g>
     <use style="fill:#0000ff;stroke:#0000ff;" x="313.963752" xlink:href="#m634b67c585" y="27.513663"/>
     <use style="fill:#0000ff;stroke:#0000ff;" x="313.963752" xlink:href="#m634b67c585" y="27.513663"/>
    </g>
   </g>
   <g id="line2d_46">
    <path d="M 28.455965 294.88 
L 28.455965 277.055578 
L 40.370217 277.055578 
L 40.370217 276.53133 
L 47.339607 276.53133 
L 47.339607 274.434339 
L 52.284468 274.434339 
L 52.284468 273.385844 
L 56.12 273.385844 
L 56.12 272.337348 
L 59.253858 272.337348 
L 59.253858 269.716109 
L 66.223248 269.716109 
L 66.223248 269.191862 
L 68.034251 269.191862 
L 68.034251 268.667614 
L 71.168109 268.667614 
L 71.168109 267.619119 
L 72.543934 267.619119 
L 72.543934 266.570623 
L 76.11297 266.570623 
L 76.11297 265.522128 
L 80.787138 265.522128 
L 80.787138 264.99788 
L 82.350819 264.99788 
L 82.350819 263.949385 
L 83.08236 263.949385 
L 83.08236 263.425137 
L 88.556144 263.425137 
L 88.556144 262.900889 
L 90.05175 262.900889 
L 90.05175 262.376641 
L 93.501005 262.376641 
L 93.501005 261.852394 
L 97.021141 261.852394 
L 97.021141 261.328146 
L 98.832144 261.328146 
L 98.832144 260.803898 
L 99.395756 260.803898 
L 99.395756 259.755403 
L 100.470395 259.755403 
L 100.470395 259.231155 
L 100.983527 259.231155 
L 100.983527 258.18266 
L 103.777005 258.18266 
L 103.777005 257.658412 
L 106.365146 257.658412 
L 106.365146 257.134164 
L 106.548983 257.134164 
L 106.548983 255.561421 
L 107.26528 255.561421 
L 107.26528 255.037173 
L 107.952917 255.037173 
L 107.952917 253.988678 
L 109.713291 253.988678 
L 109.713291 253.46443 
L 112.897778 253.46443 
L 112.897778 252.940182 
L 113.518374 252.940182 
L 113.518374 251.367439 
L 115.58349 251.367439 
L 115.58349 250.318944 
L 117.426894 250.318944 
L 117.426894 249.794696 
L 118.914406 249.794696 
L 118.914406 248.746201 
L 121.320594 248.746201 
L 121.320594 247.173458 
L 123.7027 247.173458 
L 123.7027 246.64921 
L 133.917927 246.64921 
L 133.917927 246.124962 
L 136.946047 246.124962 
L 136.946047 245.600714 
L 139.519758 245.600714 
L 139.519758 245.076467 
L 140.204235 245.076467 
L 140.204235 244.027971 
L 141.686932 244.027971 
L 141.686932 243.503724 
L 145.207068 243.503724 
L 145.207068 242.979476 
L 145.588629 242.979476 
L 145.588629 242.455228 
L 146.826017 242.455228 
L 146.826017 241.93098 
L 151.660793 241.93098 
L 151.660793 240.882485 
L 153.422692 240.882485 
L 153.422692 240.358237 
L 154.24024 240.358237 
L 154.24024 239.83399 
L 155.248042 239.83399 
L 155.248042 239.309742 
L 156.056945 239.309742 
L 156.056945 238.785494 
L 157.913041 238.785494 
L 157.913041 237.736999 
L 162.260404 237.736999 
L 162.260404 237.212751 
L 162.628392 237.212751 
L 162.628392 236.688503 
L 165.709659 236.688503 
L 165.709659 236.164255 
L 166.403606 236.164255 
L 166.403606 235.640008 
L 169.511213 235.640008 
L 169.511213 234.591512 
L 170.446973 234.591512 
L 170.446973 234.067265 
L 173.95147 234.067265 
L 173.95147 233.543017 
L 174.792866 233.543017 
L 174.792866 233.018769 
L 176.088354 233.018769 
L 176.088354 232.494521 
L 176.395953 232.494521 
L 176.395953 231.970274 
L 176.667235 231.970274 
L 176.667235 231.446026 
L 179.022679 231.446026 
L 179.022679 230.397531 
L 180.89185 230.397531 
L 180.89185 229.873283 
L 181.867737 229.873283 
L 181.867737 229.349035 
L 183.518661 229.349035 
L 183.518661 228.824787 
L 184.216596 228.824787 
L 184.28426 227.252044 
L 186.662207 227.252044 
L 186.662207 226.727797 
L 187.075752 226.727797 
L 187.075752 226.203549 
L 187.403547 226.203549 
L 187.403547 225.679301 
L 188.833316 225.679301 
L 188.833316 225.155053 
L 189.441323 225.155053 
L 189.441323 224.630806 
L 189.991546 224.630806 
L 189.991546 224.106558 
L 190.625254 224.106558 
L 190.625254 223.58231 
L 190.986762 223.58231 
L 190.986762 223.058063 
L 192.098528 223.058063 
L 192.098528 222.533815 
L 192.394729 222.533815 
L 192.394729 222.009567 
L 193.737353 222.009567 
L 193.737353 221.485319 
L 194.103576 221.485319 
L 194.103576 220.961072 
L 195.206103 220.961072 
L 195.206103 220.436824 
L 195.712023 220.436824 
L 195.712023 219.912576 
L 196.317273 219.912576 
L 196.317273 219.388328 
L 196.49389 219.388328 
L 196.534841 218.339833 
L 196.610635 218.339833 
L 196.610635 217.815585 
L 197.104735 217.815585 
L 197.104735 217.291338 
L 200.310669 217.291338 
L 200.310669 216.76709 
L 201.447291 216.76709 
L 201.48165 215.718594 
L 201.629267 215.718594 
L 201.629267 215.194347 
L 203.301779 215.194347 
L 203.301779 214.670099 
L 203.724849 214.670099 
L 203.724849 214.145851 
L 204.548309 214.145851 
L 204.548309 213.621604 
L 205.294381 213.621604 
L 205.294381 213.097356 
L 206.250151 213.097356 
L 206.250151 212.573108 
L 207.101932 212.573108 
L 207.101932 212.04886 
L 209.030288 212.04886 
L 209.030288 211.524613 
L 210.541226 211.524613 
L 210.541226 211.000365 
L 210.724338 211.000365 
L 210.724338 210.476117 
L 213.11686 210.476117 
L 213.11686 209.95187 
L 214.507922 209.95187 
L 214.507922 209.427622 
L 215.088772 209.427622 
L 215.088772 208.903374 
L 215.994028 208.903374 
L 215.994028 208.379126 
L 218.269775 208.379126 
L 218.269775 207.854879 
L 218.80583 207.854879 
L 218.80583 207.330631 
L 219.005384 207.330631 
L 219.005384 206.282136 
L 220.51315 206.282136 
L 220.51315 205.757888 
L 220.725669 205.757888 
L 220.725669 205.23364 
L 221.232791 205.23364 
L 221.232791 204.709392 
L 222.041388 204.709392 
L 222.041388 204.185145 
L 222.262546 204.185145 
L 222.262546 203.660897 
L 222.521528 203.660897 
L 222.521528 203.136649 
L 223.639444 203.136649 
L 223.639444 202.612401 
L 224.480533 202.612401 
L 224.480533 202.088154 
L 225.604489 202.088154 
L 225.604489 201.563906 
L 226.162832 201.563906 
L 226.162832 201.039658 
L 226.48572 201.039658 
L 226.587722 199.991163 
L 227.383138 199.991163 
L 227.383138 199.466915 
L 228.513735 199.466915 
L 228.532212 198.41842 
L 228.759572 198.41842 
L 228.759572 197.894172 
L 229.366998 197.894172 
L 229.366998 197.369924 
L 230.162976 197.369924 
L 230.162976 196.845677 
L 230.314703 196.845677 
L 230.403038 195.272933 
L 230.568947 195.272933 
L 230.679116 187.933465 
L 230.690601 187.933465 
L 230.705414 184.787979 
L 231.126794 184.787979 
L 231.126794 184.263731 
L 231.35976 184.263731 
L 231.35976 183.739484 
L 234.251842 183.739484 
L 234.251842 183.215236 
L 234.729696 183.215236 
L 234.729696 182.690988 
L 235.227774 182.690988 
L 235.273444 175.35152 
L 236.624889 175.35152 
L 236.67633 174.303025 
L 237.015086 174.303025 
L 237.015086 173.778777 
L 237.450133 173.778777 
L 237.480379 172.730281 
L 237.663329 172.730281 
L 237.663329 172.206034 
L 240.401371 172.206034 
L 240.401371 171.681786 
L 241.588575 171.681786 
L 241.588575 171.157538 
L 241.755322 171.157538 
L 241.855673 169.060547 
L 243.174785 169.060547 
L 243.174785 168.5363 
L 243.48586 168.5363 
L 243.48586 166.963557 
L 243.603415 166.963557 
L 243.639531 160.672584 
L 244.422016 160.672584 
L 244.515629 158.575593 
L 244.659987 158.575593 
L 244.659987 158.051345 
L 244.827736 158.051345 
L 244.827736 157.527098 
L 245.123846 157.527098 
L 245.123846 157.00285 
L 245.350538 157.00285 
L 245.367088 155.954354 
L 247.498052 155.954354 
L 247.498052 155.430107 
L 250.632747 155.430107 
L 250.701652 152.808868 
L 251.219932 152.808868 
L 251.219932 152.28462 
L 251.37392 152.28462 
L 251.399511 151.236125 
L 252.624858 151.236125 
L 252.701973 150.18763 
L 252.736588 150.18763 
L 252.736588 149.139134 
L 253.196871 149.139134 
L 253.196871 148.614886 
L 255.063445 148.614886 
L 255.119941 145.993648 
L 255.177858 145.993648 
L 255.177858 144.945152 
L 256.090112 144.945152 
L 256.108379 136.557189 
L 258.579111 136.557189 
L 258.579111 136.032941 
L 261.8188 136.032941 
L 261.84238 124.499491 
L 264.84308 124.499491 
L 264.858048 112.966042 
L 265.542254 112.966042 
L 265.626414 109.820555 
L 265.691878 109.820555 
L 265.709294 108.77206 
L 266.201735 108.77206 
L 266.234248 99.859849 
L 266.78287 99.859849 
L 266.78287 99.335601 
L 267.62763 99.335601 
L 267.62763 98.811353 
L 268.350163 98.811353 
L 268.350163 98.287105 
L 269.160382 98.287105 
L 269.170063 90.42339 
L 270.454484 90.42339 
L 270.454484 89.374894 
L 270.569661 89.374894 
L 270.569661 88.326399 
L 270.682286 88.326399 
L 270.784088 83.608169 
L 270.805453 83.608169 
L 270.842978 81.511178 
L 271.01318 81.511178 
L 271.075267 79.414188 
L 271.129766 79.414188 
L 271.192572 72.598967 
L 272.23835 72.598967 
L 272.333602 69.977729 
L 272.366922 69.977729 
L 272.37525 65.783747 
L 278.842264 65.783747 
L 278.842264 64.735251 
L 279.044567 64.735251 
L 279.062185 63.686756 
L 279.30495 63.686756 
L 279.310868 55.82304 
L 280.094223 55.82304 
L 280.147659 54.774545 
L 283.010104 54.774545 
L 283.012833 49.00782 
L 287.148232 49.00782 
L 287.148232 48.483572 
L 287.280488 48.483572 
L 287.280488 47.959324 
L 287.437077 47.959324 
L 287.483728 46.386581 
L 291.926061 46.386581 
L 291.926061 44.813838 
L 292.050206 44.813838 
L 292.06167 43.241095 
L 294.157313 43.241095 
L 294.157313 42.716847 
L 294.503544 42.716847 
L 294.503661 41.144104 
L 295.428857 41.144104 
L 295.429385 40.095609 
L 296.106187 40.095609 
L 296.106653 38.522865 
L 296.548798 38.522865 
L 296.55006 37.47437 
L 296.774275 37.47437 
L 296.775398 35.901627 
L 297.307051 35.901627 
L 297.308734 34.328884 
L 297.566287 34.328884 
L 297.566287 33.804636 
L 297.721321 33.804636 
L 297.721321 33.280388 
L 297.965445 33.280388 
L 297.97991 32.231893 
L 305.724087 32.231893 
L 305.724087 31.707645 
L 305.944077 31.707645 
L 305.944077 31.183397 
L 306.447923 31.183397 
L 306.447998 30.134902 
L 307.047854 30.134902 
L 307.047854 29.610654 
L 308.89186 29.610654 
L 308.89186 29.086407 
L 309.615407 29.086407 
L 309.615407 28.562159 
L 313.518003 28.562159 
L 313.518003 28.037911 
L 313.963752 28.037911 
L 313.963752 27.513663 
L 333.168 27.513663 
L 333.168 27.513663 
" style="fill:none;stroke:#0000ff;stroke-linecap:square;stroke-width:1.5;"/>
   </g>
   <g id="line2d_47">
    <defs>
     <path d="M 0 -6 
L -1.347084 -1.854102 
L -5.706339 -1.854102 
L -2.179628 0.708204 
L -3.526712 4.854102 
L -0 2.291796 
L 3.526712 4.854102 
L 2.179628 0.708204 
L 5.706339 -1.854102 
L 1.347084 -1.854102 
z
" id="m53ee903cba" style="stroke:#0000ff;stroke-linejoin:bevel;stroke-width:1.5;"/>
    </defs>
    <g>
     <use style="fill-opacity:0;stroke:#0000ff;stroke-linejoin:bevel;stroke-width:1.5;" x="93.501005" xlink:href="#m53ee903cba" y="262.376641"/>
     <use style="fill-opacity:0;stroke:#0000ff;stroke-linejoin:bevel;stroke-width:1.5;" x="169.511213" xlink:href="#m53ee903cba" y="234.591512"/>
     <use style="fill-opacity:0;stroke:#0000ff;stroke-linejoin:bevel;stroke-width:1.5;" x="235.256665" xlink:href="#m53ee903cba" y="179.021254"/>
     <use style="fill-opacity:0;stroke:#0000ff;stroke-linejoin:bevel;stroke-width:1.5;" x="283.010104" xlink:href="#m53ee903cba" y="54.774545"/>
     <use style="fill-opacity:0;stroke:#0000ff;stroke-linejoin:bevel;stroke-width:1.5;" x="313.963752" xlink:href="#m53ee903cba" y="27.513663"/>
     <use style="fill-opacity:0;stroke:#0000ff;stroke-linejoin:bevel;stroke-width:1.5;" x="333.168" xlink:href="#m53ee903cba" y="27.513663"/>
    </g>
   </g>
   <g id="line2d_48">
    <path style="fill:none;stroke:#0000ff;stroke-linecap:square;stroke-width:1.5;"/>
    <g/>
   </g>
   <g id="line2d_49">
    <path clip-path="url(#p44914e749d)" d="M 293.589852 43.241095 
" style="fill:none;stroke:#0000ff;stroke-linecap:square;stroke-width:1.5;"/>
    <defs>
     <path d="M -12 12 
L 12 -12 
M -12 -12 
L 12 12 
" id="m541e6dbf51" style="stroke:#0000ff;"/>
    </defs>
    <g clip-path="url(#p44914e749d)">
     <use style="fill:#0000ff;stroke:#0000ff;" x="293.589852" xlink:href="#m541e6dbf51" y="43.241095"/>
    </g>
   </g>
   <g id="line2d_50">
    <defs>
     <path d="M 0 1.5 
C 0.397805 1.5 0.77937 1.341951 1.06066 1.06066 
C 1.341951 0.77937 1.5 0.397805 1.5 0 
C 1.5 -0.397805 1.341951 -0.77937 1.06066 -1.06066 
C 0.77937 -1.341951 0.397805 -1.5 0 -1.5 
C -0.397805 -1.5 -0.77937 -1.341951 -1.06066 -1.06066 
C -1.341951 -0.77937 -1.5 -0.397805 -1.5 0 
C -1.5 0.397805 -1.341951 0.77937 -1.06066 1.06066 
C -0.77937 1.341951 -0.397805 1.5 0 1.5 
z
" id="m97b5d9a371" style="stroke:#000000;"/>
    </defs>
    <g>
     <use style="stroke:#000000;" x="349.703508" xlink:href="#m97b5d9a371" y="195.272933"/>
     <use style="stroke:#000000;" x="349.703508" xlink:href="#m97b5d9a371" y="195.272933"/>
    </g>
   </g>
   <g id="line2d_51">
    <path d="M 16.541714 294.88 
L 16.541714 282.822302 
L 28.455965 282.822302 
L 28.455965 280.201064 
L 35.425356 280.201064 
L 35.425356 279.152568 
L 40.370217 279.152568 
L 40.370217 276.53133 
L 47.339607 276.53133 
L 47.339607 274.434339 
L 49.989246 274.434339 
L 49.989246 273.910091 
L 54.308997 273.910091 
L 54.308997 273.385844 
L 63.08939 273.385844 
L 63.08939 272.861596 
L 70.436568 272.861596 
L 70.436568 271.8131 
L 75.003641 271.8131 
L 75.003641 270.764605 
L 75.567254 270.764605 
L 75.567254 270.240357 
L 78.137499 270.240357 
L 78.137499 269.716109 
L 80.787138 269.716109 
L 80.787138 269.191862 
L 81.973032 269.191862 
L 81.973032 268.667614 
L 82.350819 268.667614 
L 82.350819 268.143366 
L 88.293717 268.143366 
L 88.293717 267.619119 
L 88.814625 267.619119 
L 88.814625 267.094871 
L 89.567532 267.094871 
L 89.567532 266.570623 
L 90.522701 266.570623 
L 90.522701 266.046375 
L 93.304561 266.046375 
L 93.304561 265.522128 
L 93.887283 265.522128 
L 93.887283 264.99788 
L 96.536922 264.99788 
L 96.536922 264.473632 
L 97.79904 264.473632 
L 97.79904 263.949385 
L 98.249422 263.949385 
L 98.249422 263.425137 
L 98.543252 263.425137 
L 98.543252 262.900889 
L 101.23446 262.900889 
L 101.23446 262.376641 
L 101.481783 262.376641 
L 101.481783 261.852394 
L 101.725597 261.852394 
L 101.725597 261.328146 
L 110.746395 261.328146 
L 110.746395 260.803898 
L 113.518374 260.803898 
L 113.579218 259.755403 
L 113.880253 259.755403 
L 113.880253 259.231155 
L 115.744887 259.231155 
L 115.744887 258.706907 
L 115.957752 258.706907 
L 115.957752 258.18266 
L 118.325541 258.18266 
L 118.325541 257.658412 
L 119.782703 257.658412 
L 119.782703 257.134164 
L 124.621395 257.134164 
L 124.621395 256.609917 
L 128.238289 256.609917 
L 128.238289 255.561421 
L 129.937618 255.561421 
L 129.937618 255.037173 
L 130.054468 255.037173 
L 130.054468 254.512926 
L 133.350594 254.512926 
L 133.350594 253.988678 
L 134.503128 253.988678 
L 134.53905 252.940182 
L 134.717542 252.940182 
L 134.717542 252.415935 
L 137.753459 252.415935 
L 137.753459 251.891687 
L 146.852333 251.891687 
L 146.852333 251.367439 
L 149.623006 251.367439 
L 149.623006 250.843192 
L 155.129314 250.843192 
L 155.129314 250.318944 
L 163.667563 250.318944 
L 163.667563 249.794696 
L 168.950963 249.794696 
L 168.950963 249.270448 
L 170.005984 249.270448 
L 170.005984 248.746201 
L 171.405985 248.746201 
L 171.405985 248.221953 
L 172.15616 248.221953 
L 172.15616 247.697705 
L 173.971386 247.697705 
L 173.971386 247.173458 
L 176.422647 247.173458 
L 176.422647 246.64921 
L 177.916946 246.64921 
L 177.916946 246.124962 
L 179.009186 246.124962 
L 179.009186 245.600714 
L 181.281783 245.600714 
L 181.281783 245.076467 
L 183.16831 245.076467 
L 183.16831 244.552219 
L 185.189542 244.552219 
L 185.189542 244.027971 
L 186.268577 244.027971 
L 186.312762 242.455228 
L 187.040258 242.455228 
L 187.040258 241.93098 
L 187.655152 241.93098 
L 187.655152 241.406733 
L 187.858014 241.406733 
L 187.858014 240.882485 
L 188.761522 240.882485 
L 188.761522 240.358237 
L 190.867328 240.358237 
L 190.867328 239.83399 
L 192.266003 239.83399 
L 192.266003 239.309742 
L 192.685304 239.309742 
L 192.685304 238.785494 
L 192.93146 238.785494 
L 192.974043 237.736999 
L 194.452819 237.736999 
L 194.452819 237.212751 
L 194.610933 237.212751 
L 194.610933 236.688503 
L 195.098449 236.688503 
L 195.180833 235.640008 
L 196.128853 235.640008 
L 196.128853 235.11576 
L 196.656628 235.11576 
L 196.733813 234.067265 
L 196.809216 234.067265 
L 196.809216 233.543017 
L 196.99368 233.543017 
L 196.99368 233.018769 
L 197.622092 233.018769 
L 197.622092 232.494521 
L 198.085221 232.494521 
L 198.085221 231.970274 
L 199.610982 231.970274 
L 199.632547 230.921778 
L 200.16503 230.921778 
L 200.16503 230.397531 
L 201.283325 230.397531 
L 201.300678 229.349035 
L 201.632887 229.349035 
L 201.632887 228.824787 
L 202.33572 228.824787 
L 202.344057 227.776292 
L 203.125809 227.776292 
L 203.185768 226.727797 
L 203.33525 226.727797 
L 203.352616 225.679301 
L 203.763264 225.679301 
L 203.763264 225.155053 
L 204.7735 225.155053 
L 204.839405 224.106558 
L 204.969567 224.106558 
L 204.977912 223.058063 
L 205.129788 223.058063 
L 205.129788 222.533815 
L 205.437118 222.533815 
L 205.535179 221.485319 
L 205.594784 221.485319 
L 205.594784 220.961072 
L 205.940247 220.961072 
L 205.940247 220.436824 
L 208.718914 220.436824 
L 208.718914 219.912576 
L 209.732225 219.912576 
L 209.732225 219.388328 
L 212.349555 219.388328 
L 212.349555 218.864081 
L 212.505627 218.864081 
L 212.505627 218.339833 
L 220.854746 218.339833 
L 220.91073 217.291338 
L 224.188355 217.291338 
L 224.188355 216.76709 
L 225.027956 216.76709 
L 225.027956 216.242842 
L 225.502152 216.242842 
L 225.502152 215.718594 
L 237.99104 215.718594 
L 237.99104 215.194347 
L 241.254914 215.194347 
L 241.254914 214.670099 
L 252.768196 214.670099 
L 252.861551 213.621604 
L 260.330455 213.621604 
L 260.330455 213.097356 
L 263.008139 213.097356 
L 263.048594 211.000365 
L 265.248142 211.000365 
L 265.248142 210.476117 
L 270.76149 210.476117 
L 270.76149 209.95187 
L 275.51991 209.95187 
L 275.522536 208.903374 
L 275.927618 208.903374 
L 275.927618 208.379126 
L 293.692326 208.379126 
L 293.720083 207.330631 
L 296.270947 207.330631 
L 296.276365 205.23364 
L 297.632081 205.23364 
L 297.632081 204.709392 
L 305.628895 204.709392 
L 305.628895 204.185145 
L 305.753994 204.185145 
L 305.754033 203.136649 
L 306.897285 203.136649 
L 306.897285 202.612401 
L 308.276877 202.612401 
L 308.282324 201.039658 
L 312.744076 201.039658 
L 312.744076 200.515411 
L 313.414564 200.515411 
L 313.414576 199.466915 
L 313.928293 199.466915 
L 313.928293 198.942667 
L 318.863518 198.942667 
L 318.863554 197.894172 
L 321.824648 197.894172 
L 321.824648 197.369924 
L 329.691608 197.369924 
L 329.691608 196.845677 
L 333.168 196.845677 
L 333.168 196.845677 
" style="fill:none;stroke:#000000;stroke-linecap:square;stroke-width:1.5;"/>
   </g>
   <g id="line2d_52">
    <defs>
     <path d="M 0 6 
C 1.591219 6 3.117479 5.367802 4.242641 4.242641 
C 5.367802 3.117479 6 1.591219 6 0 
C 6 -1.591219 5.367802 -3.117479 4.242641 -4.242641 
C 3.117479 -5.367802 1.591219 -6 0 -6 
C -1.591219 -6 -3.117479 -5.367802 -4.242641 -4.242641 
C -5.367802 -3.117479 -6 -1.591219 -6 0 
C -6 1.591219 -5.367802 3.117479 -4.242641 4.242641 
C -3.117479 5.367802 -1.591219 6 0 6 
z
" id="mf921658eb2" style="stroke:#000000;stroke-width:1.5;"/>
    </defs>
    <g>
     <use style="fill-opacity:0;stroke:#000000;stroke-width:1.5;" x="78.137499" xlink:href="#mf921658eb2" y="270.240357"/>
     <use style="fill-opacity:0;stroke:#000000;stroke-width:1.5;" x="130.054468" xlink:href="#mf921658eb2" y="255.037173"/>
     <use style="fill-opacity:0;stroke:#000000;stroke-width:1.5;" x="205.940247" xlink:href="#mf921658eb2" y="220.961072"/>
     <use style="fill-opacity:0;stroke:#000000;stroke-width:1.5;" x="293.720083" xlink:href="#mf921658eb2" y="207.330631"/>
     <use style="fill-opacity:0;stroke:#000000;stroke-width:1.5;" x="329.691608" xlink:href="#mf921658eb2" y="196.845677"/>
     <use style="fill-opacity:0;stroke:#000000;stroke-width:1.5;" x="333.168" xlink:href="#mf921658eb2" y="196.845677"/>
    </g>
   </g>
   <g id="line2d_53">
    <path style="fill:none;stroke:#000000;stroke-linecap:square;stroke-width:1.5;"/>
    <g/>
   </g>
   <g id="line2d_54">
    <path clip-path="url(#p44914e749d)" d="M 293.5898 208.379126 
" style="fill:none;stroke:#000000;stroke-linecap:square;stroke-width:1.5;"/>
    <defs>
     <path d="M -12 12 
L 12 -12 
M -12 -12 
L 12 12 
" id="ma62ef87d86" style="stroke:#000000;"/>
    </defs>
    <g clip-path="url(#p44914e749d)">
     <use style="stroke:#000000;" x="293.5898" xlink:href="#ma62ef87d86" y="208.379126"/>
    </g>
   </g>
   <g id="line2d_55">
    <defs>
     <path d="M 0 1.5 
C 0.397805 1.5 0.77937 1.341951 1.06066 1.06066 
C 1.341951 0.77937 1.5 0.397805 1.5 0 
C 1.5 -0.397805 1.341951 -0.77937 1.06066 -1.06066 
C 0.77937 -1.341951 0.397805 -1.5 0 -1.5 
C -0.397805 -1.5 -0.77937 -1.341951 -1.06066 -1.06066 
C -1.341951 -0.77937 -1.5 -0.397805 -1.5 0 
C -1.5 0.397805 -1.341951 0.77937 -1.06066 1.06066 
C -0.77937 1.341951 -0.397805 1.5 0 1.5 
z
" id="mb24c1afe64" style="stroke:#ff0000;"/>
    </defs>
    <g>
     <use style="fill:#ff0000;stroke:#ff0000;" x="359.794166" xlink:href="#mb24c1afe64" y="211.000365"/>
     <use style="fill:#ff0000;stroke:#ff0000;" x="359.794166" xlink:href="#mb24c1afe64" y="211.000365"/>
    </g>
   </g>
   <g id="line2d_56">
    <path d="M 4.627463 294.88 
L 4.627463 286.492036 
L 16.541714 286.492036 
L 16.541714 284.919293 
L 23.511104 284.919293 
L 23.511104 282.822302 
L 28.455965 282.822302 
L 28.455965 281.249559 
L 32.291498 281.249559 
L 32.291498 280.725312 
L 35.425356 280.725312 
L 35.425356 280.201064 
L 38.074995 280.201064 
L 38.074995 279.676816 
L 40.370217 279.676816 
L 40.370217 279.152568 
L 42.394746 279.152568 
L 42.394746 278.628321 
L 45.844 278.628321 
L 45.844 278.104073 
L 48.715431 278.104073 
L 48.715431 277.579825 
L 53.326522 277.579825 
L 53.326522 277.055578 
L 62.506669 277.055578 
L 62.506669 276.53133 
L 63.08939 276.53133 
L 63.08939 276.007082 
L 75.567254 276.007082 
L 75.567254 275.482834 
L 77.653281 275.482834 
L 77.653281 274.958587 
L 79.73229 274.958587 
L 79.73229 274.434339 
L 80.581284 274.434339 
L 80.581284 273.910091 
L 80.990557 273.910091 
L 80.990557 273.385844 
L 81.973032 273.385844 
L 81.973032 272.861596 
L 82.162963 272.861596 
L 82.162963 272.337348 
L 82.902373 272.337348 
L 82.902373 271.8131 
L 83.260482 271.8131 
L 83.260482 271.288853 
L 83.784035 271.288853 
L 83.784035 270.240357 
L 85.57784 270.240357 
L 85.57784 269.716109 
L 87.060538 269.716109 
L 87.060538 269.191862 
L 88.68587 269.191862 
L 88.68587 268.667614 
L 91.093805 268.667614 
L 91.093805 268.143366 
L 91.427575 268.143366 
L 91.427575 267.619119 
L 91.862754 267.619119 
L 91.862754 266.570623 
L 93.105847 266.570623 
L 93.105847 266.046375 
L 93.403064 266.046375 
L 93.403064 265.522128 
L 94.725919 265.522128 
L 94.816624 264.473632 
L 97.258229 264.473632 
L 97.258229 263.949385 
L 98.396965 263.949385 
L 98.396965 263.425137 
L 111.989488 263.425137 
L 111.989488 262.900889 
L 114.117341 262.900889 
L 114.117341 262.376641 
L 115.82502 262.376641 
L 115.82502 261.852394 
L 120.64954 261.852394 
L 120.64954 261.328146 
L 121.12593 261.328146 
L 121.12593 260.803898 
L 122.243822 260.803898 
L 122.243822 260.279651 
L 122.803291 260.279651 
L 122.803291 259.755403 
L 123.413809 259.755403 
L 123.413809 259.231155 
L 126.948537 259.231155 
L 126.948537 258.706907 
L 131.279136 258.706907 
L 131.279136 258.18266 
L 153.275535 258.18266 
L 153.275535 257.658412 
L 171.834413 257.658412 
L 171.834413 257.134164 
L 172.845039 257.134164 
L 172.845039 256.609917 
L 175.066686 256.609917 
L 175.066686 256.085669 
L 176.502482 256.085669 
L 176.502482 255.561421 
L 181.083735 255.561421 
L 181.083735 255.037173 
L 181.237377 255.037173 
L 181.237377 254.512926 
L 181.475821 254.512926 
L 181.475821 253.988678 
L 182.735848 253.988678 
L 182.735848 253.46443 
L 184.53076 253.46443 
L 184.53076 252.940182 
L 185.771713 252.940182 
L 185.771713 252.415935 
L 187.389875 252.415935 
L 187.389875 251.891687 
L 188.232241 251.891687 
L 188.232241 251.367439 
L 190.284023 251.367439 
L 190.284023 250.843192 
L 193.685993 250.843192 
L 193.685993 250.318944 
L 198.089225 250.318944 
L 198.089225 249.794696 
L 198.578404 249.794696 
L 198.578404 249.270448 
L 199.718132 249.270448 
L 199.718132 248.746201 
L 200.080855 248.746201 
L 200.080855 248.221953 
L 200.279369 248.221953 
L 200.279369 247.697705 
L 200.505403 247.697705 
L 200.505403 247.173458 
L 202.386893 247.173458 
L 202.386893 246.64921 
L 204.673561 246.64921 
L 204.673561 246.124962 
L 205.294088 246.124962 
L 205.399073 245.076467 
L 206.760601 245.076467 
L 206.760601 244.552219 
L 206.951051 244.552219 
L 206.951051 244.027971 
L 207.295298 244.027971 
L 207.350797 242.979476 
L 207.663522 242.979476 
L 207.663522 242.455228 
L 207.952376 242.455228 
L 207.952376 241.93098 
L 208.377119 241.93098 
L 208.377119 241.406733 
L 208.511185 241.406733 
L 208.511185 240.882485 
L 208.983031 240.882485 
L 208.989284 239.83399 
L 209.405347 239.83399 
L 209.405347 239.309742 
L 209.516906 239.309742 
L 209.516906 238.785494 
L 210.326591 238.785494 
L 210.326591 238.261246 
L 210.557062 238.261246 
L 210.605881 237.212751 
L 210.888735 237.212751 
L 210.888735 236.688503 
L 211.335069 236.688503 
L 211.427139 235.640008 
L 211.517089 235.640008 
L 211.517089 235.11576 
L 211.830508 235.11576 
L 211.830508 234.591512 
L 211.960506 234.591512 
L 211.960506 234.067265 
L 212.085687 234.067265 
L 212.085687 233.543017 
L 212.342277 233.543017 
L 212.342277 233.018769 
L 213.091232 233.018769 
L 213.102194 231.970274 
L 213.207917 231.970274 
L 213.207917 231.446026 
L 213.391427 231.446026 
L 213.458866 230.397531 
L 213.79304 230.397531 
L 213.79304 229.873283 
L 214.822323 229.873283 
L 214.822323 229.349035 
L 215.806217 229.349035 
L 215.806217 228.824787 
L 217.171076 228.824787 
L 217.171076 228.30054 
L 217.32771 228.30054 
L 217.32771 227.776292 
L 217.567574 227.776292 
L 217.662846 226.727797 
L 218.52188 226.727797 
L 218.52188 226.203549 
L 219.195744 226.203549 
L 219.195744 225.679301 
L 219.992158 225.679301 
L 219.992158 225.155053 
L 222.168606 225.155053 
L 222.168606 224.630806 
L 225.044698 224.630806 
L 225.044698 224.106558 
L 236.188193 224.106558 
L 236.188193 223.58231 
L 236.807866 223.58231 
L 236.807866 223.058063 
L 247.474107 223.058063 
L 247.474107 222.533815 
L 262.210038 222.533815 
L 262.210038 222.009567 
L 284.491234 222.009567 
L 284.491234 221.485319 
L 293.721916 221.485319 
L 293.80648 218.864081 
L 293.857364 218.864081 
L 293.857364 218.339833 
L 294.753026 218.339833 
L 294.753026 217.815585 
L 296.157504 217.815585 
L 296.157523 216.76709 
L 305.63038 216.76709 
L 305.63038 216.242842 
L 305.817144 216.242842 
L 305.817144 215.718594 
L 312.870011 215.718594 
L 312.870033 214.670099 
L 321.492845 214.670099 
L 321.492845 214.145851 
L 329.482333 214.145851 
L 329.482333 213.621604 
L 333.168 213.621604 
L 333.168 213.621604 
" style="fill:none;stroke:#ff0000;stroke-linecap:square;stroke-width:1.5;"/>
   </g>
   <g id="line2d_57">
    <defs>
     <path d="M -6 6 
L 6 6 
L 6 -6 
L -6 -6 
z
" id="m2314b52d67" style="stroke:#ff0000;stroke-linejoin:miter;stroke-width:1.5;"/>
    </defs>
    <g>
     <use style="fill-opacity:0;stroke:#ff0000;stroke-linejoin:miter;stroke-width:1.5;" x="126.948537" xlink:href="#m2314b52d67" y="259.231155"/>
     <use style="fill-opacity:0;stroke:#ff0000;stroke-linejoin:miter;stroke-width:1.5;" x="204.673561" xlink:href="#m2314b52d67" y="246.64921"/>
     <use style="fill-opacity:0;stroke:#ff0000;stroke-linejoin:miter;stroke-width:1.5;" x="247.474107" xlink:href="#m2314b52d67" y="222.533815"/>
     <use style="fill-opacity:0;stroke:#ff0000;stroke-linejoin:miter;stroke-width:1.5;" x="329.482333" xlink:href="#m2314b52d67" y="213.621604"/>
     <use style="fill-opacity:0;stroke:#ff0000;stroke-linejoin:miter;stroke-width:1.5;" x="333.168" xlink:href="#m2314b52d67" y="213.621604"/>
    </g>
   </g>
   <g id="line2d_58">
    <path style="fill:none;stroke:#ff0000;stroke-linecap:square;stroke-width:1.5;"/>
    <g/>
   </g>
   <g id="line2d_59">
    <path clip-path="url(#p44914e749d)" d="M 293.589806 221.485319 
" style="fill:none;stroke:#ff0000;stroke-linecap:square;stroke-width:1.5;"/>
    <defs>
     <path d="M -12 12 
L 12 -12 
M -12 -12 
L 12 12 
" id="me700ba142f" style="stroke:#ff0000;"/>
    </defs>
    <g clip-path="url(#p44914e749d)">
     <use style="fill:#ff0000;stroke:#ff0000;" x="293.589806" xlink:href="#me700ba142f" y="221.485319"/>
    </g>
   </g>
   <g id="line2d_60">
    <path d="M 333.168 213.621604 
L 363.64328 289.532673 
" style="fill:none;stroke:#ff0000;stroke-linecap:square;stroke-width:1.5;"/>
    <g>
     <use style="fill-opacity:0;stroke:#ff0000;stroke-linejoin:miter;stroke-width:1.5;" x="333.168" xlink:href="#m2314b52d67" y="213.621604"/>
     <use style="fill-opacity:0;stroke:#ff0000;stroke-linejoin:miter;stroke-width:1.5;" x="363.64328" xlink:href="#m2314b52d67" y="289.532673"/>
    </g>
   </g>
   <g id="line2d_61">
    <path d="M 333.168 196.845677 
L 363.64328 225.364752 
" style="fill:none;stroke:#000000;stroke-linecap:square;stroke-width:1.5;"/>
    <g>
     <use style="fill-opacity:0;stroke:#000000;stroke-width:1.5;" x="333.168" xlink:href="#mf921658eb2" y="196.845677"/>
     <use style="fill-opacity:0;stroke:#000000;stroke-width:1.5;" x="363.64328" xlink:href="#mf921658eb2" y="225.364752"/>
    </g>
   </g>
   <g id="line2d_62">
    <path d="M 333.168 27.513663 
L 363.64328 161.196832 
" style="fill:none;stroke:#0000ff;stroke-linecap:square;stroke-width:1.5;"/>
    <g>
     <use style="fill-opacity:0;stroke:#0000ff;stroke-linejoin:bevel;stroke-width:1.5;" x="333.168" xlink:href="#m53ee903cba" y="27.513663"/>
     <use style="fill-opacity:0;stroke:#0000ff;stroke-linejoin:bevel;stroke-width:1.5;" x="363.64328" xlink:href="#m53ee903cba" y="161.196832"/>
    </g>
   </g>
   <g id="line2d_63">
    <path d="M 333.168 27.513663 
L 363.64328 97.028911 
" style="fill:none;stroke:#008000;stroke-linecap:square;stroke-width:1.5;"/>
    <g>
     <use style="fill-opacity:0;stroke:#008000;stroke-linejoin:miter;stroke-width:1.5;" x="333.168" xlink:href="#m83ff9cf24d" y="27.513663"/>
     <use style="fill-opacity:0;stroke:#008000;stroke-linejoin:miter;stroke-width:1.5;" x="363.64328" xlink:href="#m83ff9cf24d" y="97.028911"/>
    </g>
   </g>
   <g id="line2d_64">
    <path d="M 333.168 27.513663 
L 363.64328 32.86099 
" style="fill:none;stroke:#00bfbf;stroke-linecap:square;stroke-width:1.5;"/>
    <g>
     <use style="fill-opacity:0;stroke:#00bfbf;stroke-width:1.5;" x="333.168" xlink:href="#me91cdfa1c6" y="27.513663"/>
     <use style="fill-opacity:0;stroke:#00bfbf;stroke-width:1.5;" x="363.64328" xlink:href="#me91cdfa1c6" y="32.86099"/>
    </g>
   </g>
   <g id="line2d_65">
    <path d="M 333.168 294.88 
L 333.168 27.513663 
" style="fill:none;stroke:#000000;stroke-linecap:square;stroke-width:1.5;"/>
   </g>
   <g id="patch_3">
    <path d="M 56.12 294.88 
L 56.12 24.84 
" style="fill:none;stroke:#000000;stroke-linecap:square;stroke-linejoin:miter;stroke-width:0.8;"/>
   </g>
   <g id="patch_4">
    <path d="M 333.168 294.88 
L 333.168 24.84 
" style="fill:none;stroke:#000000;stroke-linecap:square;stroke-linejoin:miter;stroke-width:0.8;"/>
   </g>
   <g id="patch_5">
    <path d="M 56.12 294.88 
L 333.168 294.88 
" style="fill:none;stroke:#000000;stroke-linecap:square;stroke-linejoin:miter;stroke-width:0.8;"/>
   </g>
   <g id="patch_6">
    <path d="M 56.12 24.84 
L 333.168 24.84 
" style="fill:none;stroke:#000000;stroke-linecap:square;stroke-linejoin:miter;stroke-width:0.8;"/>
   </g>
   <g id="text_13">
    <!-- 20-D -->
    <defs>
     <path d="M 19.671875 64.796875 
L 19.671875 8.109375 
L 31.59375 8.109375 
Q 46.6875 8.109375 53.6875 14.9375 
Q 60.6875 21.78125 60.6875 36.53125 
Q 60.6875 51.171875 53.6875 57.984375 
Q 46.6875 64.796875 31.59375 64.796875 
z
M 9.8125 72.90625 
L 30.078125 72.90625 
Q 51.265625 72.90625 61.171875 64.09375 
Q 71.09375 55.28125 71.09375 36.53125 
Q 71.09375 17.671875 61.125 8.828125 
Q 51.171875 0 30.078125 0 
L 9.8125 0 
z
" id="DejaVuSans-44"/>
    </defs>
    <g transform="translate(369.18424 294.223611)scale(0.17 -0.17)">
     <use xlink:href="#DejaVuSans-32"/>
     <use x="63.623047" xlink:href="#DejaVuSans-30"/>
     <use x="127.246094" xlink:href="#DejaVuSans-2d"/>
     <use x="163.330078" xlink:href="#DejaVuSans-44"/>
    </g>
   </g>
   <g id="text_14">
    <!-- 10-D -->
    <g transform="translate(369.18424 230.05569)scale(0.17 -0.17)">
     <use xlink:href="#DejaVuSans-31"/>
     <use x="63.623047" xlink:href="#DejaVuSans-30"/>
     <use x="127.246094" xlink:href="#DejaVuSans-2d"/>
     <use x="163.330078" xlink:href="#DejaVuSans-44"/>
    </g>
   </g>
   <g id="text_15">
    <!-- 5-D -->
    <defs>
     <path d="M 10.796875 72.90625 
L 49.515625 72.90625 
L 49.515625 64.59375 
L 19.828125 64.59375 
L 19.828125 46.734375 
Q 21.96875 47.46875 24.109375 47.828125 
Q 26.265625 48.1875 28.421875 48.1875 
Q 40.625 48.1875 47.75 41.5 
Q 54.890625 34.8125 54.890625 23.390625 
Q 54.890625 11.625 47.5625 5.09375 
Q 40.234375 -1.421875 26.90625 -1.421875 
Q 22.3125 -1.421875 17.546875 -0.640625 
Q 12.796875 0.140625 7.71875 1.703125 
L 7.71875 11.625 
Q 12.109375 9.234375 16.796875 8.0625 
Q 21.484375 6.890625 26.703125 6.890625 
Q 35.15625 6.890625 40.078125 11.328125 
Q 45.015625 15.765625 45.015625 23.390625 
Q 45.015625 31 40.078125 35.4375 
Q 35.15625 39.890625 26.703125 39.890625 
Q 22.75 39.890625 18.8125 39.015625 
Q 14.890625 38.140625 10.796875 36.28125 
z
" id="DejaVuSans-35"/>
    </defs>
    <g transform="translate(369.18424 165.887769)scale(0.17 -0.17)">
     <use xlink:href="#DejaVuSans-35"/>
     <use x="63.623047" xlink:href="#DejaVuSans-2d"/>
     <use x="99.707031" xlink:href="#DejaVuSans-44"/>
    </g>
   </g>
   <g id="text_16">
    <!-- 3-D -->
    <defs>
     <path d="M 40.578125 39.3125 
Q 47.65625 37.796875 51.625 33 
Q 55.609375 28.21875 55.609375 21.1875 
Q 55.609375 10.40625 48.1875 4.484375 
Q 40.765625 -1.421875 27.09375 -1.421875 
Q 22.515625 -1.421875 17.65625 -0.515625 
Q 12.796875 0.390625 7.625 2.203125 
L 7.625 11.71875 
Q 11.71875 9.328125 16.59375 8.109375 
Q 21.484375 6.890625 26.8125 6.890625 
Q 36.078125 6.890625 40.9375 10.546875 
Q 45.796875 14.203125 45.796875 21.1875 
Q 45.796875 27.640625 41.28125 31.265625 
Q 36.765625 34.90625 28.71875 34.90625 
L 20.21875 34.90625 
L 20.21875 43.015625 
L 29.109375 43.015625 
Q 36.375 43.015625 40.234375 45.921875 
Q 44.09375 48.828125 44.09375 54.296875 
Q 44.09375 59.90625 40.109375 62.90625 
Q 36.140625 65.921875 28.71875 65.921875 
Q 24.65625 65.921875 20.015625 65.03125 
Q 15.375 64.15625 9.8125 62.3125 
L 9.8125 71.09375 
Q 15.4375 72.65625 20.34375 73.4375 
Q 25.25 74.21875 29.59375 74.21875 
Q 40.828125 74.21875 47.359375 69.109375 
Q 53.90625 64.015625 53.90625 55.328125 
Q 53.90625 49.265625 50.4375 45.09375 
Q 46.96875 40.921875 40.578125 39.3125 
z
" id="DejaVuSans-33"/>
    </defs>
    <g transform="translate(369.18424 101.719848)scale(0.17 -0.17)">
     <use xlink:href="#DejaVuSans-33"/>
     <use x="63.623047" xlink:href="#DejaVuSans-2d"/>
     <use x="99.707031" xlink:href="#DejaVuSans-44"/>
    </g>
   </g>
   <g id="text_17">
    <!-- 2-D -->
    <g transform="translate(369.18424 37.551928)scale(0.17 -0.17)">
     <use xlink:href="#DejaVuSans-32"/>
     <use x="63.623047" xlink:href="#DejaVuSans-2d"/>
     <use x="99.707031" xlink:href="#DejaVuSans-44"/>
    </g>
   </g>
   <g id="text_18">
    <!-- bbob f19 -->
    <defs>
     <path d="M 48.6875 27.296875 
Q 48.6875 37.203125 44.609375 42.84375 
Q 40.53125 48.484375 33.40625 48.484375 
Q 26.265625 48.484375 22.1875 42.84375 
Q 18.109375 37.203125 18.109375 27.296875 
Q 18.109375 17.390625 22.1875 11.75 
Q 26.265625 6.109375 33.40625 6.109375 
Q 40.53125 6.109375 44.609375 11.75 
Q 48.6875 17.390625 48.6875 27.296875 
z
M 18.109375 46.390625 
Q 20.953125 51.265625 25.265625 53.625 
Q 29.59375 56 35.59375 56 
Q 45.5625 56 51.78125 48.09375 
Q 58.015625 40.1875 58.015625 27.296875 
Q 58.015625 14.40625 51.78125 6.484375 
Q 45.5625 -1.421875 35.59375 -1.421875 
Q 29.59375 -1.421875 25.265625 0.953125 
Q 20.953125 3.328125 18.109375 8.203125 
L 18.109375 0 
L 9.078125 0 
L 9.078125 75.984375 
L 18.109375 75.984375 
z
" id="DejaVuSans-62"/>
     <path d="M 10.984375 1.515625 
L 10.984375 10.5 
Q 14.703125 8.734375 18.5 7.8125 
Q 22.3125 6.890625 25.984375 6.890625 
Q 35.75 6.890625 40.890625 13.453125 
Q 46.046875 20.015625 46.78125 33.40625 
Q 43.953125 29.203125 39.59375 26.953125 
Q 35.25 24.703125 29.984375 24.703125 
Q 19.046875 24.703125 12.671875 31.3125 
Q 6.296875 37.9375 6.296875 49.421875 
Q 6.296875 60.640625 12.9375 67.421875 
Q 19.578125 74.21875 30.609375 74.21875 
Q 43.265625 74.21875 49.921875 64.515625 
Q 56.59375 54.828125 56.59375 36.375 
Q 56.59375 19.140625 48.40625 8.859375 
Q 40.234375 -1.421875 26.421875 -1.421875 
Q 22.703125 -1.421875 18.890625 -0.6875 
Q 15.09375 0.046875 10.984375 1.515625 
z
M 30.609375 32.421875 
Q 37.25 32.421875 41.125 36.953125 
Q 45.015625 41.5 45.015625 49.421875 
Q 45.015625 57.28125 41.125 61.84375 
Q 37.25 66.40625 30.609375 66.40625 
Q 23.96875 66.40625 20.09375 61.84375 
Q 16.21875 57.28125 16.21875 49.421875 
Q 16.21875 41.5 20.09375 36.953125 
Q 23.96875 32.421875 30.609375 32.421875 
z
" id="DejaVuSans-39"/>
    </defs>
    <g transform="translate(58.89048 35.290806)scale(0.102 -0.102)">
     <use xlink:href="#DejaVuSans-62"/>
     <use x="63.476562" xlink:href="#DejaVuSans-62"/>
     <use x="126.953125" xlink:href="#DejaVuSans-6f"/>
     <use x="188.134766" xlink:href="#DejaVuSans-62"/>
     <use x="251.611328" xlink:href="#DejaVuSans-20"/>
     <use x="283.398438" xlink:href="#DejaVuSans-66"/>
     <use x="318.603516" xlink:href="#DejaVuSans-31"/>
     <use x="382.226562" xlink:href="#DejaVuSans-39"/>
    </g>
    <!-- 51 targets: 100..1e-08 -->
    <defs>
     <path d="M 11.71875 12.40625 
L 22.015625 12.40625 
L 22.015625 0 
L 11.71875 0 
z
M 11.71875 51.703125 
L 22.015625 51.703125 
L 22.015625 39.3125 
L 11.71875 39.3125 
z
" id="DejaVuSans-3a"/>
    </defs>
    <g transform="translate(58.89048 46.712575)scale(0.102 -0.102)">
     <use xlink:href="#DejaVuSans-35"/>
     <use x="63.623047" xlink:href="#DejaVuSans-31"/>
     <use x="127.246094" xlink:href="#DejaVuSans-20"/>
     <use x="159.033203" xlink:href="#DejaVuSans-74"/>
     <use x="198.242188" xlink:href="#DejaVuSans-61"/>
     <use x="259.521484" xlink:href="#DejaVuSans-72"/>
     <use x="300.619141" xlink:href="#DejaVuSans-67"/>
     <use x="364.095703" xlink:href="#DejaVuSans-65"/>
     <use x="425.619141" xlink:href="#DejaVuSans-74"/>
     <use x="464.828125" xlink:href="#DejaVuSans-73"/>
     <use x="516.927734" xlink:href="#DejaVuSans-3a"/>
     <use x="550.619141" xlink:href="#DejaVuSans-20"/>
     <use x="582.40625" xlink:href="#DejaVuSans-31"/>
     <use x="646.029297" xlink:href="#DejaVuSans-30"/>
     <use x="709.652344" xlink:href="#DejaVuSans-30"/>
     <use x="773.275391" xlink:href="#DejaVuSans-2e"/>
     <use x="805.0625" xlink:href="#DejaVuSans-2e"/>
     <use x="836.849609" xlink:href="#DejaVuSans-31"/>
     <use x="900.472656" xlink:href="#DejaVuSans-65"/>
     <use x="961.996094" xlink:href="#DejaVuSans-2d"/>
     <use x="998.080078" xlink:href="#DejaVuSans-30"/>
     <use x="1061.703125" xlink:href="#DejaVuSans-38"/>
    </g>
    <!-- 15 instances -->
    <g transform="translate(58.89048 58.134344)scale(0.102 -0.102)">
     <use xlink:href="#DejaVuSans-31"/>
     <use x="63.623047" xlink:href="#DejaVuSans-35"/>
     <use x="127.246094" xlink:href="#DejaVuSans-20"/>
     <use x="159.033203" xlink:href="#DejaVuSans-69"/>
     <use x="186.816406" xlink:href="#DejaVuSans-6e"/>
     <use x="250.195312" xlink:href="#DejaVuSans-73"/>
     <use x="302.294922" xlink:href="#DejaVuSans-74"/>
     <use x="341.503906" xlink:href="#DejaVuSans-61"/>
     <use x="402.783203" xlink:href="#DejaVuSans-6e"/>
     <use x="466.162109" xlink:href="#DejaVuSans-63"/>
     <use x="521.142578" xlink:href="#DejaVuSans-65"/>
     <use x="582.666016" xlink:href="#DejaVuSans-73"/>
    </g>
   </g>
   <g id="text_19">
    <!-- v2.4 -->
    <g style="fill:#808080;" transform="translate(183.733063 290.099912)scale(0.1 -0.1)">
     <use xlink:href="#DejaVuSans-76"/>
     <use x="59.179688" xlink:href="#DejaVuSans-32"/>
     <use x="122.802734" xlink:href="#DejaVuSans-2e"/>
     <use x="154.589844" xlink:href="#DejaVuSans-34"/>
    </g>
   </g>
   <g id="text_20">
    <!-- 19 Griewank-Rosenbrock F8F2 -->
    <defs>
     <path d="M 59.515625 10.40625 
L 59.515625 29.984375 
L 43.40625 29.984375 
L 43.40625 38.09375 
L 69.28125 38.09375 
L 69.28125 6.78125 
Q 63.578125 2.734375 56.6875 0.65625 
Q 49.8125 -1.421875 42 -1.421875 
Q 24.90625 -1.421875 15.25 8.5625 
Q 5.609375 18.5625 5.609375 36.375 
Q 5.609375 54.25 15.25 64.234375 
Q 24.90625 74.21875 42 74.21875 
Q 49.125 74.21875 55.546875 72.453125 
Q 61.96875 70.703125 67.390625 67.28125 
L 67.390625 56.78125 
Q 61.921875 61.421875 55.765625 63.765625 
Q 49.609375 66.109375 42.828125 66.109375 
Q 29.4375 66.109375 22.71875 58.640625 
Q 16.015625 51.171875 16.015625 36.375 
Q 16.015625 21.625 22.71875 14.15625 
Q 29.4375 6.6875 42.828125 6.6875 
Q 48.046875 6.6875 52.140625 7.59375 
Q 56.25 8.5 59.515625 10.40625 
z
" id="DejaVuSans-47"/>
     <path d="M 4.203125 54.6875 
L 13.1875 54.6875 
L 24.421875 12.015625 
L 35.59375 54.6875 
L 46.1875 54.6875 
L 57.421875 12.015625 
L 68.609375 54.6875 
L 77.59375 54.6875 
L 63.28125 0 
L 52.6875 0 
L 40.921875 44.828125 
L 29.109375 0 
L 18.5 0 
z
" id="DejaVuSans-77"/>
     <path d="M 9.078125 75.984375 
L 18.109375 75.984375 
L 18.109375 31.109375 
L 44.921875 54.6875 
L 56.390625 54.6875 
L 27.390625 29.109375 
L 57.625 0 
L 45.90625 0 
L 18.109375 26.703125 
L 18.109375 0 
L 9.078125 0 
z
" id="DejaVuSans-6b"/>
     <path d="M 44.390625 34.1875 
Q 47.5625 33.109375 50.5625 29.59375 
Q 53.5625 26.078125 56.59375 19.921875 
L 66.609375 0 
L 56 0 
L 46.6875 18.703125 
Q 43.0625 26.03125 39.671875 28.421875 
Q 36.28125 30.8125 30.421875 30.8125 
L 19.671875 30.8125 
L 19.671875 0 
L 9.8125 0 
L 9.8125 72.90625 
L 32.078125 72.90625 
Q 44.578125 72.90625 50.734375 67.671875 
Q 56.890625 62.453125 56.890625 51.90625 
Q 56.890625 45.015625 53.6875 40.46875 
Q 50.484375 35.9375 44.390625 34.1875 
z
M 19.671875 64.796875 
L 19.671875 38.921875 
L 32.078125 38.921875 
Q 39.203125 38.921875 42.84375 42.21875 
Q 46.484375 45.515625 46.484375 51.90625 
Q 46.484375 58.296875 42.84375 61.546875 
Q 39.203125 64.796875 32.078125 64.796875 
z
" id="DejaVuSans-52"/>
    </defs>
    <g transform="translate(41.876812 18.84)scale(0.2 -0.2)">
     <use xlink:href="#DejaVuSans-31"/>
     <use x="63.623047" xlink:href="#DejaVuSans-39"/>
     <use x="127.246094" xlink:href="#DejaVuSans-20"/>
     <use x="159.033203" xlink:href="#DejaVuSans-47"/>
     <use x="236.523438" xlink:href="#DejaVuSans-72"/>
     <use x="277.636719" xlink:href="#DejaVuSans-69"/>
     <use x="305.419922" xlink:href="#DejaVuSans-65"/>
     <use x="366.943359" xlink:href="#DejaVuSans-77"/>
     <use x="448.730469" xlink:href="#DejaVuSans-61"/>
     <use x="510.009766" xlink:href="#DejaVuSans-6e"/>
     <use x="573.388672" xlink:href="#DejaVuSans-6b"/>
     <use x="631.298828" xlink:href="#DejaVuSans-2d"/>
     <use x="667.382812" xlink:href="#DejaVuSans-52"/>
     <use x="736.802734" xlink:href="#DejaVuSans-6f"/>
     <use x="797.984375" xlink:href="#DejaVuSans-73"/>
     <use x="850.083984" xlink:href="#DejaVuSans-65"/>
     <use x="911.607422" xlink:href="#DejaVuSans-6e"/>
     <use x="974.986328" xlink:href="#DejaVuSans-62"/>
     <use x="1038.462891" xlink:href="#DejaVuSans-72"/>
     <use x="1079.544922" xlink:href="#DejaVuSans-6f"/>
     <use x="1140.726562" xlink:href="#DejaVuSans-63"/>
     <use x="1195.707031" xlink:href="#DejaVuSans-6b"/>
     <use x="1253.617188" xlink:href="#DejaVuSans-20"/>
     <use x="1285.404297" xlink:href="#DejaVuSans-46"/>
     <use x="1342.923828" xlink:href="#DejaVuSans-38"/>
     <use x="1406.546875" xlink:href="#DejaVuSans-46"/>
     <use x="1464.066406" xlink:href="#DejaVuSans-32"/>
    </g>
   </g>
  </g>
 </g>
 <defs>
  <clipPath id="p44914e749d">
   <rect height="270.04" width="277.048" x="56.12" y="24.84"/>
  </clipPath>
 </defs>
</svg>
