<?xml version="1.0" encoding="utf-8" standalone="no"?>
<!DOCTYPE svg PUBLIC "-//W3C//DTD SVG 1.1//EN"
  "http://www.w3.org/Graphics/SVG/1.1/DTD/svg11.dtd">
<!-- Created with matplotlib (http://matplotlib.org/) -->
<svg height="345.6pt" version="1.1" viewBox="0 0 460.8 345.6" width="460.8pt" xmlns="http://www.w3.org/2000/svg" xmlns:xlink="http://www.w3.org/1999/xlink">
 <defs>
  <style type="text/css">
*{stroke-linecap:butt;stroke-linejoin:round;}
  </style>
 </defs>
 <g id="figure_1">
  <g id="patch_1">
   <path d="M 0 345.6 
L 460.8 345.6 
L 460.8 0 
L 0 0 
z
" style="fill:#ffffff;"/>
  </g>
  <g id="axes_1">
   <g id="patch_2">
    <path d="M 56.12 294.88 
L 333.168 294.88 
L 333.168 6.845228 
L 56.12 6.845228 
z
" style="fill:#ffffff;"/>
   </g>
   <g id="matplotlib.axis_1">
    <g id="xtick_1">
     <g id="line2d_1">
      <path clip-path="url(#p498eb2d78a)" d="M 56.12 294.88 
L 56.12 6.845228 
" style="fill:none;stroke:#b0b0b0;stroke-linecap:square;stroke-width:0.8;"/>
     </g>
     <g id="line2d_2">
      <defs>
       <path d="M 0 0 
L 0 3.5 
" id="m73bf882e9b" style="stroke:#000000;stroke-width:0.8;"/>
      </defs>
      <g>
       <use style="stroke:#000000;stroke-width:0.8;" x="56.12" xlink:href="#m73bf882e9b" y="294.88"/>
      </g>
     </g>
     <g id="text_1">
      <!-- 0 -->
      <defs>
       <path d="M 31.78125 66.40625 
Q 24.171875 66.40625 20.328125 58.90625 
Q 16.5 51.421875 16.5 36.375 
Q 16.5 21.390625 20.328125 13.890625 
Q 24.171875 6.390625 31.78125 6.390625 
Q 39.453125 6.390625 43.28125 13.890625 
Q 47.125 21.390625 47.125 36.375 
Q 47.125 51.421875 43.28125 58.90625 
Q 39.453125 66.40625 31.78125 66.40625 
z
M 31.78125 74.21875 
Q 44.046875 74.21875 50.515625 64.515625 
Q 56.984375 54.828125 56.984375 36.375 
Q 56.984375 17.96875 50.515625 8.265625 
Q 44.046875 -1.421875 31.78125 -1.421875 
Q 19.53125 -1.421875 13.0625 8.265625 
Q 6.59375 17.96875 6.59375 36.375 
Q 6.59375 54.828125 13.0625 64.515625 
Q 19.53125 74.21875 31.78125 74.21875 
z
" id="DejaVuSans-30"/>
      </defs>
      <g transform="translate(49.7575 317.076875)scale(0.2 -0.2)">
       <use xlink:href="#DejaVuSans-30"/>
      </g>
     </g>
    </g>
    <g id="xtick_2">
     <g id="line2d_3">
      <path clip-path="url(#p498eb2d78a)" d="M 135.276571 294.88 
L 135.276571 6.845228 
" style="fill:none;stroke:#b0b0b0;stroke-linecap:square;stroke-width:0.8;"/>
     </g>
     <g id="line2d_4">
      <g>
       <use style="stroke:#000000;stroke-width:0.8;" x="135.276571" xlink:href="#m73bf882e9b" y="294.88"/>
      </g>
     </g>
     <g id="text_2">
      <!-- 2 -->
      <defs>
       <path d="M 19.1875 8.296875 
L 53.609375 8.296875 
L 53.609375 0 
L 7.328125 0 
L 7.328125 8.296875 
Q 12.9375 14.109375 22.625 23.890625 
Q 32.328125 33.6875 34.8125 36.53125 
Q 39.546875 41.84375 41.421875 45.53125 
Q 43.3125 49.21875 43.3125 52.78125 
Q 43.3125 58.59375 39.234375 62.25 
Q 35.15625 65.921875 28.609375 65.921875 
Q 23.96875 65.921875 18.8125 64.3125 
Q 13.671875 62.703125 7.8125 59.421875 
L 7.8125 69.390625 
Q 13.765625 71.78125 18.9375 73 
Q 24.125 74.21875 28.421875 74.21875 
Q 39.75 74.21875 46.484375 68.546875 
Q 53.21875 62.890625 53.21875 53.421875 
Q 53.21875 48.921875 51.53125 44.890625 
Q 49.859375 40.875 45.40625 35.40625 
Q 44.1875 33.984375 37.640625 27.21875 
Q 31.109375 20.453125 19.1875 8.296875 
z
" id="DejaVuSans-32"/>
      </defs>
      <g transform="translate(128.914071 317.076875)scale(0.2 -0.2)">
       <use xlink:href="#DejaVuSans-32"/>
      </g>
     </g>
    </g>
    <g id="xtick_3">
     <g id="line2d_5">
      <path clip-path="url(#p498eb2d78a)" d="M 214.433143 294.88 
L 214.433143 6.845228 
" style="fill:none;stroke:#b0b0b0;stroke-linecap:square;stroke-width:0.8;"/>
     </g>
     <g id="line2d_6">
      <g>
       <use style="stroke:#000000;stroke-width:0.8;" x="214.433143" xlink:href="#m73bf882e9b" y="294.88"/>
      </g>
     </g>
     <g id="text_3">
      <!-- 4 -->
      <defs>
       <path d="M 37.796875 64.3125 
L 12.890625 25.390625 
L 37.796875 25.390625 
z
M 35.203125 72.90625 
L 47.609375 72.90625 
L 47.609375 25.390625 
L 58.015625 25.390625 
L 58.015625 17.1875 
L 47.609375 17.1875 
L 47.609375 0 
L 37.796875 0 
L 37.796875 17.1875 
L 4.890625 17.1875 
L 4.890625 26.703125 
z
" id="DejaVuSans-34"/>
      </defs>
      <g transform="translate(208.070643 317.076875)scale(0.2 -0.2)">
       <use xlink:href="#DejaVuSans-34"/>
      </g>
     </g>
    </g>
    <g id="xtick_4">
     <g id="line2d_7">
      <path clip-path="url(#p498eb2d78a)" d="M 293.589714 294.88 
L 293.589714 6.845228 
" style="fill:none;stroke:#b0b0b0;stroke-linecap:square;stroke-width:0.8;"/>
     </g>
     <g id="line2d_8">
      <g>
       <use style="stroke:#000000;stroke-width:0.8;" x="293.589714" xlink:href="#m73bf882e9b" y="294.88"/>
      </g>
     </g>
     <g id="text_4">
      <!-- 6 -->
      <defs>
       <path d="M 33.015625 40.375 
Q 26.375 40.375 22.484375 35.828125 
Q 18.609375 31.296875 18.609375 23.390625 
Q 18.609375 15.53125 22.484375 10.953125 
Q 26.375 6.390625 33.015625 6.390625 
Q 39.65625 6.390625 43.53125 10.953125 
Q 47.40625 15.53125 47.40625 23.390625 
Q 47.40625 31.296875 43.53125 35.828125 
Q 39.65625 40.375 33.015625 40.375 
z
M 52.59375 71.296875 
L 52.59375 62.3125 
Q 48.875 64.0625 45.09375 64.984375 
Q 41.3125 65.921875 37.59375 65.921875 
Q 27.828125 65.921875 22.671875 59.328125 
Q 17.53125 52.734375 16.796875 39.40625 
Q 19.671875 43.65625 24.015625 45.921875 
Q 28.375 48.1875 33.59375 48.1875 
Q 44.578125 48.1875 50.953125 41.515625 
Q 57.328125 34.859375 57.328125 23.390625 
Q 57.328125 12.15625 50.6875 5.359375 
Q 44.046875 -1.421875 33.015625 -1.421875 
Q 20.359375 -1.421875 13.671875 8.265625 
Q 6.984375 17.96875 6.984375 36.375 
Q 6.984375 53.65625 15.1875 63.9375 
Q 23.390625 74.21875 37.203125 74.21875 
Q 40.921875 74.21875 44.703125 73.484375 
Q 48.484375 72.75 52.59375 71.296875 
z
" id="DejaVuSans-36"/>
      </defs>
      <g transform="translate(287.227214 317.076875)scale(0.2 -0.2)">
       <use xlink:href="#DejaVuSans-36"/>
      </g>
     </g>
    </g>
    <g id="xtick_5">
     <g id="line2d_9">
      <path clip-path="url(#p498eb2d78a)" d="M 56.12 294.88 
L 56.12 6.845228 
" style="fill:none;stroke:#b0b0b0;stroke-linecap:square;stroke-width:0.8;"/>
     </g>
     <g id="line2d_10">
      <defs>
       <path d="M 0 0 
L 0 2 
" id="me104d6e534" style="stroke:#000000;stroke-width:0.6;"/>
      </defs>
      <g>
       <use style="stroke:#000000;stroke-width:0.6;" x="56.12" xlink:href="#me104d6e534" y="294.88"/>
      </g>
     </g>
    </g>
    <g id="xtick_6">
     <g id="line2d_11">
      <path clip-path="url(#p498eb2d78a)" d="M 95.698286 294.88 
L 95.698286 6.845228 
" style="fill:none;stroke:#b0b0b0;stroke-linecap:square;stroke-width:0.8;"/>
     </g>
     <g id="line2d_12">
      <g>
       <use style="stroke:#000000;stroke-width:0.6;" x="95.698286" xlink:href="#me104d6e534" y="294.88"/>
      </g>
     </g>
    </g>
    <g id="xtick_7">
     <g id="line2d_13">
      <path clip-path="url(#p498eb2d78a)" d="M 135.276571 294.88 
L 135.276571 6.845228 
" style="fill:none;stroke:#b0b0b0;stroke-linecap:square;stroke-width:0.8;"/>
     </g>
     <g id="line2d_14">
      <g>
       <use style="stroke:#000000;stroke-width:0.6;" x="135.276571" xlink:href="#me104d6e534" y="294.88"/>
      </g>
     </g>
    </g>
    <g id="xtick_8">
     <g id="line2d_15">
      <path clip-path="url(#p498eb2d78a)" d="M 174.854857 294.88 
L 174.854857 6.845228 
" style="fill:none;stroke:#b0b0b0;stroke-linecap:square;stroke-width:0.8;"/>
     </g>
     <g id="line2d_16">
      <g>
       <use style="stroke:#000000;stroke-width:0.6;" x="174.854857" xlink:href="#me104d6e534" y="294.88"/>
      </g>
     </g>
    </g>
    <g id="xtick_9">
     <g id="line2d_17">
      <path clip-path="url(#p498eb2d78a)" d="M 214.433143 294.88 
L 214.433143 6.845228 
" style="fill:none;stroke:#b0b0b0;stroke-linecap:square;stroke-width:0.8;"/>
     </g>
     <g id="line2d_18">
      <g>
       <use style="stroke:#000000;stroke-width:0.6;" x="214.433143" xlink:href="#me104d6e534" y="294.88"/>
      </g>
     </g>
    </g>
    <g id="xtick_10">
     <g id="line2d_19">
      <path clip-path="url(#p498eb2d78a)" d="M 254.011429 294.88 
L 254.011429 6.845228 
" style="fill:none;stroke:#b0b0b0;stroke-linecap:square;stroke-width:0.8;"/>
     </g>
     <g id="line2d_20">
      <g>
       <use style="stroke:#000000;stroke-width:0.6;" x="254.011429" xlink:href="#me104d6e534" y="294.88"/>
      </g>
     </g>
    </g>
    <g id="xtick_11">
     <g id="line2d_21">
      <path clip-path="url(#p498eb2d78a)" d="M 293.589714 294.88 
L 293.589714 6.845228 
" style="fill:none;stroke:#b0b0b0;stroke-linecap:square;stroke-width:0.8;"/>
     </g>
     <g id="line2d_22">
      <g>
       <use style="stroke:#000000;stroke-width:0.6;" x="293.589714" xlink:href="#me104d6e534" y="294.88"/>
      </g>
     </g>
    </g>
    <g id="xtick_12">
     <g id="line2d_23">
      <path clip-path="url(#p498eb2d78a)" d="M 333.168 294.88 
L 333.168 6.845228 
" style="fill:none;stroke:#b0b0b0;stroke-linecap:square;stroke-width:0.8;"/>
     </g>
     <g id="line2d_24">
      <g>
       <use style="stroke:#000000;stroke-width:0.6;" x="333.168" xlink:href="#me104d6e534" y="294.88"/>
      </g>
     </g>
    </g>
    <g id="text_5">
     <!-- log10(# f-evals / dimension) -->
     <defs>
      <path d="M 9.421875 75.984375 
L 18.40625 75.984375 
L 18.40625 0 
L 9.421875 0 
z
" id="DejaVuSans-6c"/>
      <path d="M 30.609375 48.390625 
Q 23.390625 48.390625 19.1875 42.75 
Q 14.984375 37.109375 14.984375 27.296875 
Q 14.984375 17.484375 19.15625 11.84375 
Q 23.34375 6.203125 30.609375 6.203125 
Q 37.796875 6.203125 41.984375 11.859375 
Q 46.1875 17.53125 46.1875 27.296875 
Q 46.1875 37.015625 41.984375 42.703125 
Q 37.796875 48.390625 30.609375 48.390625 
z
M 30.609375 56 
Q 42.328125 56 49.015625 48.375 
Q 55.71875 40.765625 55.71875 27.296875 
Q 55.71875 13.875 49.015625 6.21875 
Q 42.328125 -1.421875 30.609375 -1.421875 
Q 18.84375 -1.421875 12.171875 6.21875 
Q 5.515625 13.875 5.515625 27.296875 
Q 5.515625 40.765625 12.171875 48.375 
Q 18.84375 56 30.609375 56 
z
" id="DejaVuSans-6f"/>
      <path d="M 45.40625 27.984375 
Q 45.40625 37.75 41.375 43.109375 
Q 37.359375 48.484375 30.078125 48.484375 
Q 22.859375 48.484375 18.828125 43.109375 
Q 14.796875 37.75 14.796875 27.984375 
Q 14.796875 18.265625 18.828125 12.890625 
Q 22.859375 7.515625 30.078125 7.515625 
Q 37.359375 7.515625 41.375 12.890625 
Q 45.40625 18.265625 45.40625 27.984375 
z
M 54.390625 6.78125 
Q 54.390625 -7.171875 48.1875 -13.984375 
Q 42 -20.796875 29.203125 -20.796875 
Q 24.46875 -20.796875 20.265625 -20.09375 
Q 16.0625 -19.390625 12.109375 -17.921875 
L 12.109375 -9.1875 
Q 16.0625 -11.328125 19.921875 -12.34375 
Q 23.78125 -13.375 27.78125 -13.375 
Q 36.625 -13.375 41.015625 -8.765625 
Q 45.40625 -4.15625 45.40625 5.171875 
L 45.40625 9.625 
Q 42.625 4.78125 38.28125 2.390625 
Q 33.9375 0 27.875 0 
Q 17.828125 0 11.671875 7.65625 
Q 5.515625 15.328125 5.515625 27.984375 
Q 5.515625 40.671875 11.671875 48.328125 
Q 17.828125 56 27.875 56 
Q 33.9375 56 38.28125 53.609375 
Q 42.625 51.21875 45.40625 46.390625 
L 45.40625 54.6875 
L 54.390625 54.6875 
z
" id="DejaVuSans-67"/>
      <path d="M 12.40625 8.296875 
L 28.515625 8.296875 
L 28.515625 63.921875 
L 10.984375 60.40625 
L 10.984375 69.390625 
L 28.421875 72.90625 
L 38.28125 72.90625 
L 38.28125 8.296875 
L 54.390625 8.296875 
L 54.390625 0 
L 12.40625 0 
z
" id="DejaVuSans-31"/>
      <path d="M 31 75.875 
Q 24.46875 64.65625 21.28125 53.65625 
Q 18.109375 42.671875 18.109375 31.390625 
Q 18.109375 20.125 21.3125 9.0625 
Q 24.515625 -2 31 -13.1875 
L 23.1875 -13.1875 
Q 15.875 -1.703125 12.234375 9.375 
Q 8.59375 20.453125 8.59375 31.390625 
Q 8.59375 42.28125 12.203125 53.3125 
Q 15.828125 64.359375 23.1875 75.875 
z
" id="DejaVuSans-28"/>
      <path d="M 51.125 44 
L 36.921875 44 
L 32.8125 27.6875 
L 47.125 27.6875 
z
M 43.796875 71.78125 
L 38.71875 51.515625 
L 52.984375 51.515625 
L 58.109375 71.78125 
L 65.921875 71.78125 
L 60.890625 51.515625 
L 76.125 51.515625 
L 76.125 44 
L 58.984375 44 
L 54.984375 27.6875 
L 70.515625 27.6875 
L 70.515625 20.21875 
L 53.078125 20.21875 
L 48 0 
L 40.1875 0 
L 45.21875 20.21875 
L 30.90625 20.21875 
L 25.875 0 
L 18.015625 0 
L 23.09375 20.21875 
L 7.71875 20.21875 
L 7.71875 27.6875 
L 24.90625 27.6875 
L 29 44 
L 13.28125 44 
L 13.28125 51.515625 
L 30.90625 51.515625 
L 35.890625 71.78125 
z
" id="DejaVuSans-23"/>
      <path id="DejaVuSans-20"/>
      <path d="M 37.109375 75.984375 
L 37.109375 68.5 
L 28.515625 68.5 
Q 23.6875 68.5 21.796875 66.546875 
Q 19.921875 64.59375 19.921875 59.515625 
L 19.921875 54.6875 
L 34.71875 54.6875 
L 34.71875 47.703125 
L 19.921875 47.703125 
L 19.921875 0 
L 10.890625 0 
L 10.890625 47.703125 
L 2.296875 47.703125 
L 2.296875 54.6875 
L 10.890625 54.6875 
L 10.890625 58.5 
Q 10.890625 67.625 15.140625 71.796875 
Q 19.390625 75.984375 28.609375 75.984375 
z
" id="DejaVuSans-66"/>
      <path d="M 4.890625 31.390625 
L 31.203125 31.390625 
L 31.203125 23.390625 
L 4.890625 23.390625 
z
" id="DejaVuSans-2d"/>
      <path d="M 56.203125 29.59375 
L 56.203125 25.203125 
L 14.890625 25.203125 
Q 15.484375 15.921875 20.484375 11.0625 
Q 25.484375 6.203125 34.421875 6.203125 
Q 39.59375 6.203125 44.453125 7.46875 
Q 49.3125 8.734375 54.109375 11.28125 
L 54.109375 2.78125 
Q 49.265625 0.734375 44.1875 -0.34375 
Q 39.109375 -1.421875 33.890625 -1.421875 
Q 20.796875 -1.421875 13.15625 6.1875 
Q 5.515625 13.8125 5.515625 26.8125 
Q 5.515625 40.234375 12.765625 48.109375 
Q 20.015625 56 32.328125 56 
Q 43.359375 56 49.78125 48.890625 
Q 56.203125 41.796875 56.203125 29.59375 
z
M 47.21875 32.234375 
Q 47.125 39.59375 43.09375 43.984375 
Q 39.0625 48.390625 32.421875 48.390625 
Q 24.90625 48.390625 20.390625 44.140625 
Q 15.875 39.890625 15.1875 32.171875 
z
" id="DejaVuSans-65"/>
      <path d="M 2.984375 54.6875 
L 12.5 54.6875 
L 29.59375 8.796875 
L 46.6875 54.6875 
L 56.203125 54.6875 
L 35.6875 0 
L 23.484375 0 
z
" id="DejaVuSans-76"/>
      <path d="M 34.28125 27.484375 
Q 23.390625 27.484375 19.1875 25 
Q 14.984375 22.515625 14.984375 16.5 
Q 14.984375 11.71875 18.140625 8.90625 
Q 21.296875 6.109375 26.703125 6.109375 
Q 34.1875 6.109375 38.703125 11.40625 
Q 43.21875 16.703125 43.21875 25.484375 
L 43.21875 27.484375 
z
M 52.203125 31.203125 
L 52.203125 0 
L 43.21875 0 
L 43.21875 8.296875 
Q 40.140625 3.328125 35.546875 0.953125 
Q 30.953125 -1.421875 24.3125 -1.421875 
Q 15.921875 -1.421875 10.953125 3.296875 
Q 6 8.015625 6 15.921875 
Q 6 25.140625 12.171875 29.828125 
Q 18.359375 34.515625 30.609375 34.515625 
L 43.21875 34.515625 
L 43.21875 35.40625 
Q 43.21875 41.609375 39.140625 45 
Q 35.0625 48.390625 27.6875 48.390625 
Q 23 48.390625 18.546875 47.265625 
Q 14.109375 46.140625 10.015625 43.890625 
L 10.015625 52.203125 
Q 14.9375 54.109375 19.578125 55.046875 
Q 24.21875 56 28.609375 56 
Q 40.484375 56 46.34375 49.84375 
Q 52.203125 43.703125 52.203125 31.203125 
z
" id="DejaVuSans-61"/>
      <path d="M 44.28125 53.078125 
L 44.28125 44.578125 
Q 40.484375 46.53125 36.375 47.5 
Q 32.28125 48.484375 27.875 48.484375 
Q 21.1875 48.484375 17.84375 46.4375 
Q 14.5 44.390625 14.5 40.28125 
Q 14.5 37.15625 16.890625 35.375 
Q 19.28125 33.59375 26.515625 31.984375 
L 29.59375 31.296875 
Q 39.15625 29.25 43.1875 25.515625 
Q 47.21875 21.78125 47.21875 15.09375 
Q 47.21875 7.46875 41.1875 3.015625 
Q 35.15625 -1.421875 24.609375 -1.421875 
Q 20.21875 -1.421875 15.453125 -0.5625 
Q 10.6875 0.296875 5.421875 2 
L 5.421875 11.28125 
Q 10.40625 8.6875 15.234375 7.390625 
Q 20.0625 6.109375 24.8125 6.109375 
Q 31.15625 6.109375 34.5625 8.28125 
Q 37.984375 10.453125 37.984375 14.40625 
Q 37.984375 18.0625 35.515625 20.015625 
Q 33.0625 21.96875 24.703125 23.78125 
L 21.578125 24.515625 
Q 13.234375 26.265625 9.515625 29.90625 
Q 5.8125 33.546875 5.8125 39.890625 
Q 5.8125 47.609375 11.28125 51.796875 
Q 16.75 56 26.8125 56 
Q 31.78125 56 36.171875 55.265625 
Q 40.578125 54.546875 44.28125 53.078125 
z
" id="DejaVuSans-73"/>
      <path d="M 25.390625 72.90625 
L 33.6875 72.90625 
L 8.296875 -9.28125 
L 0 -9.28125 
z
" id="DejaVuSans-2f"/>
      <path d="M 45.40625 46.390625 
L 45.40625 75.984375 
L 54.390625 75.984375 
L 54.390625 0 
L 45.40625 0 
L 45.40625 8.203125 
Q 42.578125 3.328125 38.25 0.953125 
Q 33.9375 -1.421875 27.875 -1.421875 
Q 17.96875 -1.421875 11.734375 6.484375 
Q 5.515625 14.40625 5.515625 27.296875 
Q 5.515625 40.1875 11.734375 48.09375 
Q 17.96875 56 27.875 56 
Q 33.9375 56 38.25 53.625 
Q 42.578125 51.265625 45.40625 46.390625 
z
M 14.796875 27.296875 
Q 14.796875 17.390625 18.875 11.75 
Q 22.953125 6.109375 30.078125 6.109375 
Q 37.203125 6.109375 41.296875 11.75 
Q 45.40625 17.390625 45.40625 27.296875 
Q 45.40625 37.203125 41.296875 42.84375 
Q 37.203125 48.484375 30.078125 48.484375 
Q 22.953125 48.484375 18.875 42.84375 
Q 14.796875 37.203125 14.796875 27.296875 
z
" id="DejaVuSans-64"/>
      <path d="M 9.421875 54.6875 
L 18.40625 54.6875 
L 18.40625 0 
L 9.421875 0 
z
M 9.421875 75.984375 
L 18.40625 75.984375 
L 18.40625 64.59375 
L 9.421875 64.59375 
z
" id="DejaVuSans-69"/>
      <path d="M 52 44.1875 
Q 55.375 50.25 60.0625 53.125 
Q 64.75 56 71.09375 56 
Q 79.640625 56 84.28125 50.015625 
Q 88.921875 44.046875 88.921875 33.015625 
L 88.921875 0 
L 79.890625 0 
L 79.890625 32.71875 
Q 79.890625 40.578125 77.09375 44.375 
Q 74.3125 48.1875 68.609375 48.1875 
Q 61.625 48.1875 57.5625 43.546875 
Q 53.515625 38.921875 53.515625 30.90625 
L 53.515625 0 
L 44.484375 0 
L 44.484375 32.71875 
Q 44.484375 40.625 41.703125 44.40625 
Q 38.921875 48.1875 33.109375 48.1875 
Q 26.21875 48.1875 22.15625 43.53125 
Q 18.109375 38.875 18.109375 30.90625 
L 18.109375 0 
L 9.078125 0 
L 9.078125 54.6875 
L 18.109375 54.6875 
L 18.109375 46.1875 
Q 21.1875 51.21875 25.484375 53.609375 
Q 29.78125 56 35.6875 56 
Q 41.65625 56 45.828125 52.96875 
Q 50 49.953125 52 44.1875 
z
" id="DejaVuSans-6d"/>
      <path d="M 54.890625 33.015625 
L 54.890625 0 
L 45.90625 0 
L 45.90625 32.71875 
Q 45.90625 40.484375 42.875 44.328125 
Q 39.84375 48.1875 33.796875 48.1875 
Q 26.515625 48.1875 22.3125 43.546875 
Q 18.109375 38.921875 18.109375 30.90625 
L 18.109375 0 
L 9.078125 0 
L 9.078125 54.6875 
L 18.109375 54.6875 
L 18.109375 46.1875 
Q 21.34375 51.125 25.703125 53.5625 
Q 30.078125 56 35.796875 56 
Q 45.21875 56 50.046875 50.171875 
Q 54.890625 44.34375 54.890625 33.015625 
z
" id="DejaVuSans-6e"/>
      <path d="M 8.015625 75.875 
L 15.828125 75.875 
Q 23.140625 64.359375 26.78125 53.3125 
Q 30.421875 42.28125 30.421875 31.390625 
Q 30.421875 20.453125 26.78125 9.375 
Q 23.140625 -1.703125 15.828125 -13.1875 
L 8.015625 -13.1875 
Q 14.5 -2 17.703125 9.0625 
Q 20.90625 20.125 20.90625 31.390625 
Q 20.90625 42.671875 17.703125 53.65625 
Q 14.5 64.65625 8.015625 75.875 
z
" id="DejaVuSans-29"/>
     </defs>
     <g transform="translate(73.803219 338.153594)scale(0.17 -0.17)">
      <use xlink:href="#DejaVuSans-6c"/>
      <use x="27.783203" xlink:href="#DejaVuSans-6f"/>
      <use x="88.964844" xlink:href="#DejaVuSans-67"/>
      <use x="152.441406" xlink:href="#DejaVuSans-31"/>
      <use x="216.064453" xlink:href="#DejaVuSans-30"/>
      <use x="279.6875" xlink:href="#DejaVuSans-28"/>
      <use x="318.701172" xlink:href="#DejaVuSans-23"/>
      <use x="402.490234" xlink:href="#DejaVuSans-20"/>
      <use x="434.277344" xlink:href="#DejaVuSans-66"/>
      <use x="469.404297" xlink:href="#DejaVuSans-2d"/>
      <use x="505.488281" xlink:href="#DejaVuSans-65"/>
      <use x="567.011719" xlink:href="#DejaVuSans-76"/>
      <use x="626.191406" xlink:href="#DejaVuSans-61"/>
      <use x="687.470703" xlink:href="#DejaVuSans-6c"/>
      <use x="715.253906" xlink:href="#DejaVuSans-73"/>
      <use x="767.353516" xlink:href="#DejaVuSans-20"/>
      <use x="799.140625" xlink:href="#DejaVuSans-2f"/>
      <use x="832.832031" xlink:href="#DejaVuSans-20"/>
      <use x="864.619141" xlink:href="#DejaVuSans-64"/>
      <use x="928.095703" xlink:href="#DejaVuSans-69"/>
      <use x="955.878906" xlink:href="#DejaVuSans-6d"/>
      <use x="1053.291016" xlink:href="#DejaVuSans-65"/>
      <use x="1114.814453" xlink:href="#DejaVuSans-6e"/>
      <use x="1178.193359" xlink:href="#DejaVuSans-73"/>
      <use x="1230.292969" xlink:href="#DejaVuSans-69"/>
      <use x="1258.076172" xlink:href="#DejaVuSans-6f"/>
      <use x="1319.257812" xlink:href="#DejaVuSans-6e"/>
      <use x="1382.636719" xlink:href="#DejaVuSans-29"/>
     </g>
    </g>
   </g>
   <g id="matplotlib.axis_2">
    <g id="ytick_1">
     <g id="line2d_25">
      <path clip-path="url(#p498eb2d78a)" d="M 56.12 294.88 
L 333.168 294.88 
" style="fill:none;stroke:#b0b0b0;stroke-linecap:square;stroke-width:0.8;"/>
     </g>
     <g id="line2d_26">
      <defs>
       <path d="M 0 0 
L -3.5 0 
" id="m9fd2469199" style="stroke:#000000;stroke-width:0.8;"/>
      </defs>
      <g>
       <use style="stroke:#000000;stroke-width:0.8;" x="56.12" xlink:href="#m9fd2469199" y="294.88"/>
      </g>
     </g>
     <g id="text_6">
      <!-- 0.0 -->
      <defs>
       <path d="M 10.6875 12.40625 
L 21 12.40625 
L 21 0 
L 10.6875 0 
z
" id="DejaVuSans-2e"/>
      </defs>
      <g transform="translate(23.675 300.95875)scale(0.16 -0.16)">
       <use xlink:href="#DejaVuSans-30"/>
       <use x="63.623047" xlink:href="#DejaVuSans-2e"/>
       <use x="95.410156" xlink:href="#DejaVuSans-30"/>
      </g>
     </g>
    </g>
    <g id="ytick_2">
     <g id="line2d_27">
      <path clip-path="url(#p498eb2d78a)" d="M 56.12 237.843411 
L 333.168 237.843411 
" style="fill:none;stroke:#b0b0b0;stroke-linecap:square;stroke-width:0.8;"/>
     </g>
     <g id="line2d_28">
      <g>
       <use style="stroke:#000000;stroke-width:0.8;" x="56.12" xlink:href="#m9fd2469199" y="237.843411"/>
      </g>
     </g>
     <g id="text_7">
      <!-- 0.2 -->
      <g transform="translate(23.675 243.922161)scale(0.16 -0.16)">
       <use xlink:href="#DejaVuSans-30"/>
       <use x="63.623047" xlink:href="#DejaVuSans-2e"/>
       <use x="95.410156" xlink:href="#DejaVuSans-32"/>
      </g>
     </g>
    </g>
    <g id="ytick_3">
     <g id="line2d_29">
      <path clip-path="url(#p498eb2d78a)" d="M 56.12 180.806823 
L 333.168 180.806823 
" style="fill:none;stroke:#b0b0b0;stroke-linecap:square;stroke-width:0.8;"/>
     </g>
     <g id="line2d_30">
      <g>
       <use style="stroke:#000000;stroke-width:0.8;" x="56.12" xlink:href="#m9fd2469199" y="180.806823"/>
      </g>
     </g>
     <g id="text_8">
      <!-- 0.4 -->
      <g transform="translate(23.675 186.885573)scale(0.16 -0.16)">
       <use xlink:href="#DejaVuSans-30"/>
       <use x="63.623047" xlink:href="#DejaVuSans-2e"/>
       <use x="95.410156" xlink:href="#DejaVuSans-34"/>
      </g>
     </g>
    </g>
    <g id="ytick_4">
     <g id="line2d_31">
      <path clip-path="url(#p498eb2d78a)" d="M 56.12 123.770234 
L 333.168 123.770234 
" style="fill:none;stroke:#b0b0b0;stroke-linecap:square;stroke-width:0.8;"/>
     </g>
     <g id="line2d_32">
      <g>
       <use style="stroke:#000000;stroke-width:0.8;" x="56.12" xlink:href="#m9fd2469199" y="123.770234"/>
      </g>
     </g>
     <g id="text_9">
      <!-- 0.6 -->
      <g transform="translate(23.675 129.848984)scale(0.16 -0.16)">
       <use xlink:href="#DejaVuSans-30"/>
       <use x="63.623047" xlink:href="#DejaVuSans-2e"/>
       <use x="95.410156" xlink:href="#DejaVuSans-36"/>
      </g>
     </g>
    </g>
    <g id="ytick_5">
     <g id="line2d_33">
      <path clip-path="url(#p498eb2d78a)" d="M 56.12 66.733646 
L 333.168 66.733646 
" style="fill:none;stroke:#b0b0b0;stroke-linecap:square;stroke-width:0.8;"/>
     </g>
     <g id="line2d_34">
      <g>
       <use style="stroke:#000000;stroke-width:0.8;" x="56.12" xlink:href="#m9fd2469199" y="66.733646"/>
      </g>
     </g>
     <g id="text_10">
      <!-- 0.8 -->
      <defs>
       <path d="M 31.78125 34.625 
Q 24.75 34.625 20.71875 30.859375 
Q 16.703125 27.09375 16.703125 20.515625 
Q 16.703125 13.921875 20.71875 10.15625 
Q 24.75 6.390625 31.78125 6.390625 
Q 38.8125 6.390625 42.859375 10.171875 
Q 46.921875 13.96875 46.921875 20.515625 
Q 46.921875 27.09375 42.890625 30.859375 
Q 38.875 34.625 31.78125 34.625 
z
M 21.921875 38.8125 
Q 15.578125 40.375 12.03125 44.71875 
Q 8.5 49.078125 8.5 55.328125 
Q 8.5 64.0625 14.71875 69.140625 
Q 20.953125 74.21875 31.78125 74.21875 
Q 42.671875 74.21875 48.875 69.140625 
Q 55.078125 64.0625 55.078125 55.328125 
Q 55.078125 49.078125 51.53125 44.71875 
Q 48 40.375 41.703125 38.8125 
Q 48.828125 37.15625 52.796875 32.3125 
Q 56.78125 27.484375 56.78125 20.515625 
Q 56.78125 9.90625 50.3125 4.234375 
Q 43.84375 -1.421875 31.78125 -1.421875 
Q 19.734375 -1.421875 13.25 4.234375 
Q 6.78125 9.90625 6.78125 20.515625 
Q 6.78125 27.484375 10.78125 32.3125 
Q 14.796875 37.15625 21.921875 38.8125 
z
M 18.3125 54.390625 
Q 18.3125 48.734375 21.84375 45.5625 
Q 25.390625 42.390625 31.78125 42.390625 
Q 38.140625 42.390625 41.71875 45.5625 
Q 45.3125 48.734375 45.3125 54.390625 
Q 45.3125 60.0625 41.71875 63.234375 
Q 38.140625 66.40625 31.78125 66.40625 
Q 25.390625 66.40625 21.84375 63.234375 
Q 18.3125 60.0625 18.3125 54.390625 
z
" id="DejaVuSans-38"/>
      </defs>
      <g transform="translate(23.675 72.812396)scale(0.16 -0.16)">
       <use xlink:href="#DejaVuSans-30"/>
       <use x="63.623047" xlink:href="#DejaVuSans-2e"/>
       <use x="95.410156" xlink:href="#DejaVuSans-38"/>
      </g>
     </g>
    </g>
    <g id="ytick_6">
     <g id="line2d_35">
      <path clip-path="url(#p498eb2d78a)" d="M 56.12 9.697057 
L 333.168 9.697057 
" style="fill:none;stroke:#b0b0b0;stroke-linecap:square;stroke-width:0.8;"/>
     </g>
     <g id="line2d_36">
      <g>
       <use style="stroke:#000000;stroke-width:0.8;" x="56.12" xlink:href="#m9fd2469199" y="9.697057"/>
      </g>
     </g>
     <g id="text_11">
      <!-- 1.0 -->
      <g transform="translate(23.675 15.775807)scale(0.16 -0.16)">
       <use xlink:href="#DejaVuSans-31"/>
       <use x="63.623047" xlink:href="#DejaVuSans-2e"/>
       <use x="95.410156" xlink:href="#DejaVuSans-30"/>
      </g>
     </g>
    </g>
    <g id="text_12">
     <!-- Fraction of function,target pairs -->
     <defs>
      <path d="M 9.8125 72.90625 
L 51.703125 72.90625 
L 51.703125 64.59375 
L 19.671875 64.59375 
L 19.671875 43.109375 
L 48.578125 43.109375 
L 48.578125 34.8125 
L 19.671875 34.8125 
L 19.671875 0 
L 9.8125 0 
z
" id="DejaVuSans-46"/>
      <path d="M 41.109375 46.296875 
Q 39.59375 47.171875 37.8125 47.578125 
Q 36.03125 48 33.890625 48 
Q 26.265625 48 22.1875 43.046875 
Q 18.109375 38.09375 18.109375 28.8125 
L 18.109375 0 
L 9.078125 0 
L 9.078125 54.6875 
L 18.109375 54.6875 
L 18.109375 46.1875 
Q 20.953125 51.171875 25.484375 53.578125 
Q 30.03125 56 36.53125 56 
Q 37.453125 56 38.578125 55.875 
Q 39.703125 55.765625 41.0625 55.515625 
z
" id="DejaVuSans-72"/>
      <path d="M 48.78125 52.59375 
L 48.78125 44.1875 
Q 44.96875 46.296875 41.140625 47.34375 
Q 37.3125 48.390625 33.40625 48.390625 
Q 24.65625 48.390625 19.8125 42.84375 
Q 14.984375 37.3125 14.984375 27.296875 
Q 14.984375 17.28125 19.8125 11.734375 
Q 24.65625 6.203125 33.40625 6.203125 
Q 37.3125 6.203125 41.140625 7.25 
Q 44.96875 8.296875 48.78125 10.40625 
L 48.78125 2.09375 
Q 45.015625 0.34375 40.984375 -0.53125 
Q 36.96875 -1.421875 32.421875 -1.421875 
Q 20.0625 -1.421875 12.78125 6.34375 
Q 5.515625 14.109375 5.515625 27.296875 
Q 5.515625 40.671875 12.859375 48.328125 
Q 20.21875 56 33.015625 56 
Q 37.15625 56 41.109375 55.140625 
Q 45.0625 54.296875 48.78125 52.59375 
z
" id="DejaVuSans-63"/>
      <path d="M 18.3125 70.21875 
L 18.3125 54.6875 
L 36.8125 54.6875 
L 36.8125 47.703125 
L 18.3125 47.703125 
L 18.3125 18.015625 
Q 18.3125 11.328125 20.140625 9.421875 
Q 21.96875 7.515625 27.59375 7.515625 
L 36.8125 7.515625 
L 36.8125 0 
L 27.59375 0 
Q 17.1875 0 13.234375 3.875 
Q 9.28125 7.765625 9.28125 18.015625 
L 9.28125 47.703125 
L 2.6875 47.703125 
L 2.6875 54.6875 
L 9.28125 54.6875 
L 9.28125 70.21875 
z
" id="DejaVuSans-74"/>
      <path d="M 8.5 21.578125 
L 8.5 54.6875 
L 17.484375 54.6875 
L 17.484375 21.921875 
Q 17.484375 14.15625 20.5 10.265625 
Q 23.53125 6.390625 29.59375 6.390625 
Q 36.859375 6.390625 41.078125 11.03125 
Q 45.3125 15.671875 45.3125 23.6875 
L 45.3125 54.6875 
L 54.296875 54.6875 
L 54.296875 0 
L 45.3125 0 
L 45.3125 8.40625 
Q 42.046875 3.421875 37.71875 1 
Q 33.40625 -1.421875 27.6875 -1.421875 
Q 18.265625 -1.421875 13.375 4.4375 
Q 8.5 10.296875 8.5 21.578125 
z
M 31.109375 56 
z
" id="DejaVuSans-75"/>
      <path d="M 11.71875 12.40625 
L 22.015625 12.40625 
L 22.015625 4 
L 14.015625 -11.625 
L 7.71875 -11.625 
L 11.71875 4 
z
" id="DejaVuSans-2c"/>
      <path d="M 18.109375 8.203125 
L 18.109375 -20.796875 
L 9.078125 -20.796875 
L 9.078125 54.6875 
L 18.109375 54.6875 
L 18.109375 46.390625 
Q 20.953125 51.265625 25.265625 53.625 
Q 29.59375 56 35.59375 56 
Q 45.5625 56 51.78125 48.09375 
Q 58.015625 40.1875 58.015625 27.296875 
Q 58.015625 14.40625 51.78125 6.484375 
Q 45.5625 -1.421875 35.59375 -1.421875 
Q 29.59375 -1.421875 25.265625 0.953125 
Q 20.953125 3.328125 18.109375 8.203125 
z
M 48.6875 27.296875 
Q 48.6875 37.203125 44.609375 42.84375 
Q 40.53125 48.484375 33.40625 48.484375 
Q 26.265625 48.484375 22.1875 42.84375 
Q 18.109375 37.203125 18.109375 27.296875 
Q 18.109375 17.390625 22.1875 11.75 
Q 26.265625 6.109375 33.40625 6.109375 
Q 40.53125 6.109375 44.609375 11.75 
Q 48.6875 17.390625 48.6875 27.296875 
z
" id="DejaVuSans-70"/>
     </defs>
     <g transform="translate(16.139531 286.001989)rotate(-90)scale(0.17 -0.17)">
      <use xlink:href="#DejaVuSans-46"/>
      <use x="57.410156" xlink:href="#DejaVuSans-72"/>
      <use x="98.523438" xlink:href="#DejaVuSans-61"/>
      <use x="159.802734" xlink:href="#DejaVuSans-63"/>
      <use x="214.783203" xlink:href="#DejaVuSans-74"/>
      <use x="253.992188" xlink:href="#DejaVuSans-69"/>
      <use x="281.775391" xlink:href="#DejaVuSans-6f"/>
      <use x="342.957031" xlink:href="#DejaVuSans-6e"/>
      <use x="406.335938" xlink:href="#DejaVuSans-20"/>
      <use x="438.123047" xlink:href="#DejaVuSans-6f"/>
      <use x="499.304688" xlink:href="#DejaVuSans-66"/>
      <use x="534.509766" xlink:href="#DejaVuSans-20"/>
      <use x="566.296875" xlink:href="#DejaVuSans-66"/>
      <use x="601.501953" xlink:href="#DejaVuSans-75"/>
      <use x="664.880859" xlink:href="#DejaVuSans-6e"/>
      <use x="728.259766" xlink:href="#DejaVuSans-63"/>
      <use x="783.240234" xlink:href="#DejaVuSans-74"/>
      <use x="822.449219" xlink:href="#DejaVuSans-69"/>
      <use x="850.232422" xlink:href="#DejaVuSans-6f"/>
      <use x="911.414062" xlink:href="#DejaVuSans-6e"/>
      <use x="974.792969" xlink:href="#DejaVuSans-2c"/>
      <use x="1006.580078" xlink:href="#DejaVuSans-74"/>
      <use x="1045.789062" xlink:href="#DejaVuSans-61"/>
      <use x="1107.068359" xlink:href="#DejaVuSans-72"/>
      <use x="1148.166016" xlink:href="#DejaVuSans-67"/>
      <use x="1211.642578" xlink:href="#DejaVuSans-65"/>
      <use x="1273.166016" xlink:href="#DejaVuSans-74"/>
      <use x="1312.375" xlink:href="#DejaVuSans-20"/>
      <use x="1344.162109" xlink:href="#DejaVuSans-70"/>
      <use x="1407.638672" xlink:href="#DejaVuSans-61"/>
      <use x="1468.917969" xlink:href="#DejaVuSans-69"/>
      <use x="1496.701172" xlink:href="#DejaVuSans-72"/>
      <use x="1537.814453" xlink:href="#DejaVuSans-73"/>
     </g>
    </g>
   </g>
   <g id="line2d_37">
    <defs>
     <path d="M 0 1.5 
C 0.397805 1.5 0.77937 1.341951 1.06066 1.06066 
C 1.341951 0.77937 1.5 0.397805 1.5 0 
C 1.5 -0.397805 1.341951 -0.77937 1.06066 -1.06066 
C 0.77937 -1.341951 0.397805 -1.5 0 -1.5 
C -0.397805 -1.5 -0.77937 -1.341951 -1.06066 -1.06066 
C -1.341951 -0.77937 -1.5 -0.397805 -1.5 0 
C -1.5 0.397805 -1.341951 0.77937 -1.06066 1.06066 
C -0.77937 1.341951 -0.397805 1.5 0 1.5 
z
" id="m7cc50aa94c" style="stroke:#000080;"/>
    </defs>
    <g>
     <use style="fill:#000080;stroke:#000080;" x="69.672503" xlink:href="#m7cc50aa94c" y="9.697057"/>
     <use style="fill:#000080;stroke:#000080;" x="69.672503" xlink:href="#m7cc50aa94c" y="9.697057"/>
    </g>
   </g>
   <g id="line2d_38">
    <path d="M 16.541714 294.88 
L 16.541714 292.643271 
L 28.455965 292.643271 
L 28.455965 290.965724 
L 35.425356 290.965724 
L 35.425356 290.406542 
L 40.370217 290.406542 
L 40.370217 289.84736 
L 47.339607 289.84736 
L 47.339607 289.288178 
L 49.989246 289.288178 
L 49.989246 288.728995 
L 60.629683 288.728995 
L 60.629683 287.610631 
L 64.198719 287.610631 
L 64.198719 287.051449 
L 66.223248 287.051449 
L 66.223248 286.492266 
L 67.15259 286.492266 
L 67.15259 285.933084 
L 68.034251 285.933084 
L 68.034251 285.373902 
L 68.872887 285.373902 
L 68.872887 284.81472 
L 69.672503 284.81472 
L 69.672503 9.697057 
L 333.168 9.697057 
" style="fill:none;stroke:#000080;stroke-linecap:square;stroke-width:1.5;"/>
   </g>
   <g id="line2d_39">
    <defs>
     <path d="M 0 6 
C 1.591219 6 3.117479 5.367802 4.242641 4.242641 
C 5.367802 3.117479 6 1.591219 6 0 
C 6 -1.591219 5.367802 -3.117479 4.242641 -4.242641 
C 3.117479 -5.367802 1.591219 -6 0 -6 
C -1.591219 -6 -3.117479 -5.367802 -4.242641 -4.242641 
C -5.367802 -3.117479 -6 -1.591219 -6 0 
C -6 1.591219 -5.367802 3.117479 -4.242641 4.242641 
C -3.117479 5.367802 -1.591219 6 0 6 
z
" id="m36d3a0b5e7" style="stroke:#000080;stroke-width:1.5;"/>
    </defs>
    <g>
     <use style="fill-opacity:0;stroke:#000080;stroke-width:1.5;" x="68.872887" xlink:href="#m36d3a0b5e7" y="284.81472"/>
     <use style="fill-opacity:0;stroke:#000080;stroke-width:1.5;" x="69.672503" xlink:href="#m36d3a0b5e7" y="284.81472"/>
     <use style="fill-opacity:0;stroke:#000080;stroke-width:1.5;" x="69.672503" xlink:href="#m36d3a0b5e7" y="284.81472"/>
     <use style="fill-opacity:0;stroke:#000080;stroke-width:1.5;" x="69.672503" xlink:href="#m36d3a0b5e7" y="9.697057"/>
     <use style="fill-opacity:0;stroke:#000080;stroke-width:1.5;" x="69.672503" xlink:href="#m36d3a0b5e7" y="9.697057"/>
     <use style="fill-opacity:0;stroke:#000080;stroke-width:1.5;" x="333.168" xlink:href="#m36d3a0b5e7" y="9.697057"/>
    </g>
   </g>
   <g id="line2d_40">
    <path style="fill:none;stroke:#000080;stroke-linecap:square;stroke-width:1.5;"/>
    <g/>
   </g>
   <g id="line2d_41">
    <defs>
     <path d="M 0 1.5 
C 0.397805 1.5 0.77937 1.341951 1.06066 1.06066 
C 1.341951 0.77937 1.5 0.397805 1.5 0 
C 1.5 -0.397805 1.341951 -0.77937 1.06066 -1.06066 
C 0.77937 -1.341951 0.397805 -1.5 0 -1.5 
C -0.397805 -1.5 -0.77937 -1.341951 -1.06066 -1.06066 
C -1.341951 -0.77937 -1.5 -0.397805 -1.5 0 
C -1.5 0.397805 -1.341951 0.77937 -1.06066 1.06066 
C -0.77937 1.341951 -0.397805 1.5 0 1.5 
z
" id="m272b882134" style="stroke:#ff00ff;"/>
    </defs>
    <g>
     <use style="fill:#ff00ff;stroke:#ff00ff;" x="152.163592" xlink:href="#m272b882134" y="9.697057"/>
     <use style="fill:#ff00ff;stroke:#ff00ff;" x="152.163592" xlink:href="#m272b882134" y="9.697057"/>
    </g>
   </g>
   <g id="line2d_42">
    <path d="M 124.168185 294.88 
L 124.168185 294.320818 
L 125.943067 294.320818 
L 125.943067 293.761636 
L 126.410019 293.761636 
L 126.410019 293.202453 
L 126.892639 293.202453 
L 126.948537 290.406542 
L 127.05979 290.406542 
L 127.170329 288.728995 
L 127.307509 288.728995 
L 127.307509 288.169813 
L 127.739271 288.169813 
L 127.739271 287.051449 
L 128.289984 287.051449 
L 128.289984 285.373902 
L 128.520707 285.373902 
L 128.520707 284.81472 
L 128.647561 284.81472 
L 128.647561 284.255537 
L 128.898495 284.255537 
L 128.923388 283.137173 
L 129.047315 283.137173 
L 129.047315 281.459626 
L 129.194858 281.459626 
L 129.268157 279.782079 
L 129.31685 279.782079 
L 129.31685 279.222897 
L 129.534278 279.222897 
L 129.534278 278.663715 
L 129.937618 278.663715 
L 130.007824 276.426986 
L 130.285813 276.426986 
L 130.354613 275.308622 
L 130.716969 275.308622 
L 130.761732 274.190257 
L 130.98381 274.190257 
L 131.093782 270.835164 
L 131.15943 270.835164 
L 131.181257 269.157617 
L 131.333273 269.157617 
L 131.333273 268.598435 
L 131.526768 268.598435 
L 131.526768 267.48007 
L 131.844497 267.48007 
L 131.949115 264.124977 
L 132.011581 264.124977 
L 132.073821 261.888248 
L 132.177056 261.888248 
L 132.177056 260.769883 
L 132.300126 260.769883 
L 132.381685 259.092337 
L 132.442602 259.092337 
L 132.442602 258.533154 
L 132.684132 258.533154 
L 132.743988 256.855608 
L 132.803637 256.855608 
L 132.882847 254.618879 
L 132.942016 254.618879 
L 133.020593 250.145421 
L 133.059747 250.145421 
L 133.137789 246.790327 
L 133.541793 246.790327 
L 133.541793 245.671963 
L 133.674378 245.671963 
L 133.674378 245.112781 
L 133.805948 245.112781 
L 133.843356 242.876052 
L 134.029181 242.876052 
L 134.139719 240.08014 
L 134.176407 240.08014 
L 134.213018 235.0475 
L 134.340544 235.0475 
L 134.431058 232.810771 
L 134.485139 232.810771 
L 134.574897 231.692407 
L 134.77073 231.692407 
L 134.841393 229.455678 
L 134.946845 229.455678 
L 135.016789 227.778131 
L 135.086449 227.778131 
L 135.086449 227.218949 
L 135.207679 227.218949 
L 135.259374 226.100584 
L 135.32806 226.100584 
L 135.32806 225.541402 
L 135.447604 225.541402 
L 135.447604 224.98222 
L 135.600092 224.98222 
L 135.684226 223.304673 
L 135.834638 223.304673 
L 135.867885 221.067944 
L 136.000233 221.067944 
L 136.000233 219.390397 
L 136.115208 219.390397 
L 136.164248 218.272033 
L 136.391271 218.272033 
L 136.391271 217.153669 
L 136.583504 217.153669 
L 136.615334 216.035304 
L 136.805091 216.035304 
L 136.883542 214.357757 
L 137.209183 214.357757 
L 137.255203 212.680211 
L 137.39253 212.680211 
L 137.468351 210.443482 
L 137.618997 210.443482 
L 137.663935 207.64757 
L 137.886877 207.64757 
L 137.916386 206.529206 
L 138.033915 206.529206 
L 138.063173 204.851659 
L 138.150647 204.851659 
L 138.150647 204.292477 
L 138.324271 204.292477 
L 138.324271 202.055748 
L 138.453347 202.055748 
L 138.52464 198.141472 
L 138.609803 198.141472 
L 138.652226 194.227197 
L 138.7227 194.227197 
L 138.820881 190.312921 
L 138.876734 190.312921 
L 138.918505 185.839463 
L 139.112104 185.839463 
L 139.194412 180.247641 
L 139.249066 180.247641 
L 139.249066 179.688458 
L 139.411992 179.688458 
L 139.4255 178.570094 
L 139.613502 178.570094 
L 139.613502 178.010912 
L 139.773027 178.010912 
L 139.852237 175.215 
L 139.970373 175.215 
L 140.074705 173.537454 
L 140.087702 173.537454 
L 140.113666 171.859907 
L 140.434959 171.859907 
L 140.523855 168.504814 
L 140.612293 168.504814 
L 140.612293 167.945631 
L 140.862496 167.945631 
L 140.936852 165.708902 
L 141.023196 165.708902 
L 141.072342 161.794627 
L 141.194594 161.794627 
L 141.303883 157.880351 
L 141.615758 157.880351 
L 141.72241 155.08444 
L 141.781376 155.08444 
L 141.781376 154.525258 
L 141.910394 154.525258 
L 142.015238 149.492617 
L 142.03845 149.492617 
L 142.084781 148.374253 
L 142.360172 148.374253 
L 142.405645 144.459977 
L 142.642422 144.459977 
L 142.69832 141.664066 
L 142.798481 141.664066 
L 142.898061 137.74979 
L 143.040889 137.74979 
L 143.128196 135.513061 
L 143.204228 135.513061 
L 143.290712 132.71715 
L 143.344544 132.71715 
L 143.36603 131.598786 
L 143.558203 131.598786 
L 143.600618 127.125328 
L 143.674593 127.125328 
L 143.779723 124.329417 
L 143.811137 124.329417 
L 143.852933 123.211052 
L 143.967351 123.211052 
L 143.998424 120.974323 
L 144.173452 120.974323 
L 144.275583 115.382501 
L 144.336572 115.382501 
L 144.397345 113.704954 
L 144.488103 113.704954 
L 144.588387 108.672314 
L 144.737725 108.672314 
L 144.747635 106.435585 
L 144.875945 106.435585 
L 144.954432 104.198856 
L 145.071495 104.198856 
L 145.158772 100.28458 
L 145.274456 100.28458 
L 145.37982 98.607033 
L 145.389366 98.607033 
L 145.484542 96.929487 
L 145.512992 96.929487 
L 145.598061 94.133576 
L 145.64514 94.133576 
L 145.748263 91.896847 
L 145.794933 91.896847 
L 145.794933 91.337664 
L 145.915686 91.337664 
L 146.026402 88.541753 
L 146.035596 88.541753 
L 146.063149 87.423389 
L 146.154676 87.423389 
L 146.236635 82.390748 
L 146.300112 82.390748 
L 146.381382 79.594837 
L 146.43535 79.594837 
L 146.46227 78.476473 
L 146.551701 78.476473 
L 146.560619 77.358108 
L 146.711514 77.358108 
L 146.817236 74.003015 
L 146.834794 74.003015 
L 146.904844 68.970375 
L 146.992008 68.970375 
L 147.018071 65.056099 
L 147.173625 65.056099 
L 147.242311 62.81937 
L 147.319256 62.81937 
L 147.361855 60.582641 
L 147.606868 60.582641 
L 147.70724 58.905094 
L 147.740567 58.905094 
L 147.77383 55.550001 
L 147.864973 55.550001 
L 147.947413 52.194907 
L 148.029459 52.194907 
L 148.119259 47.72145 
L 148.168045 47.72145 
L 148.232877 43.247992 
L 148.297466 43.247992 
L 148.329669 41.011263 
L 148.481817 41.011263 
L 148.561358 36.537805 
L 148.593071 36.537805 
L 148.687861 33.741894 
L 148.711478 33.741894 
L 148.782132 30.945982 
L 148.852497 30.945982 
L 148.95363 29.268436 
L 148.984628 29.268436 
L 149.023298 27.590889 
L 149.108066 27.590889 
L 149.192418 25.35416 
L 149.222989 25.35416 
L 149.238255 23.117431 
L 149.359891 23.117431 
L 149.435479 19.203155 
L 149.548241 19.203155 
L 149.630465 15.848062 
L 149.741959 15.848062 
L 149.845372 13.052151 
L 149.926191 13.052151 
L 149.926191 12.492968 
L 150.093957 12.492968 
L 150.188062 11.374604 
L 150.252912 11.374604 
L 150.252912 10.815422 
L 150.389017 10.815422 
L 150.389017 10.256239 
L 152.163592 10.256239 
L 152.163592 9.697057 
L 333.168 9.697057 
L 333.168 9.697057 
" style="fill:none;stroke:#ff00ff;stroke-linecap:square;stroke-width:1.5;"/>
   </g>
   <g id="line2d_43">
    <defs>
     <path d="M -0 8.485281 
L 5.091169 0 
L 0 -8.485281 
L -5.091169 -0 
z
" id="m6c12de199a" style="stroke:#ff00ff;stroke-linejoin:miter;stroke-width:1.5;"/>
    </defs>
    <g>
     <use style="fill-opacity:0;stroke:#ff00ff;stroke-linejoin:miter;stroke-width:1.5;" x="143.344544" xlink:href="#m6c12de199a" y="132.71715"/>
     <use style="fill-opacity:0;stroke:#ff00ff;stroke-linejoin:miter;stroke-width:1.5;" x="152.163592" xlink:href="#m6c12de199a" y="10.256239"/>
     <use style="fill-opacity:0;stroke:#ff00ff;stroke-linejoin:miter;stroke-width:1.5;" x="152.163592" xlink:href="#m6c12de199a" y="9.697057"/>
     <use style="fill-opacity:0;stroke:#ff00ff;stroke-linejoin:miter;stroke-width:1.5;" x="152.163592" xlink:href="#m6c12de199a" y="9.697057"/>
     <use style="fill-opacity:0;stroke:#ff00ff;stroke-linejoin:miter;stroke-width:1.5;" x="333.168" xlink:href="#m6c12de199a" y="9.697057"/>
    </g>
   </g>
   <g id="line2d_44">
    <path style="fill:none;stroke:#ff00ff;stroke-linecap:square;stroke-width:1.5;"/>
    <g/>
   </g>
   <g id="line2d_45">
    <defs>
     <path d="M 0 1.5 
C 0.397805 1.5 0.77937 1.341951 1.06066 1.06066 
C 1.341951 0.77937 1.5 0.397805 1.5 0 
C 1.5 -0.397805 1.341951 -0.77937 1.06066 -1.06066 
C 0.77937 -1.341951 0.397805 -1.5 0 -1.5 
C -0.397805 -1.5 -0.77937 -1.341951 -1.06066 -1.06066 
C -1.341951 -0.77937 -1.5 -0.397805 -1.5 0 
C -1.5 0.397805 -1.341951 0.77937 -1.06066 1.06066 
C -0.77937 1.341951 -0.397805 1.5 0 1.5 
z
" id="m36c394887c" style="stroke:#ff7500;"/>
    </defs>
    <g>
     <use style="fill:#ff7500;stroke:#ff7500;" x="188.361985" xlink:href="#m36c394887c" y="9.697057"/>
     <use style="fill:#ff7500;stroke:#ff7500;" x="188.361985" xlink:href="#m36c394887c" y="9.697057"/>
    </g>
   </g>
   <g id="line2d_46">
    <path d="M 101.966002 294.88 
L 101.966002 294.320818 
L 104.305927 294.320818 
L 104.305927 293.761636 
L 105.119742 293.761636 
L 105.119742 293.202453 
L 105.512642 293.202453 
L 105.512642 292.643271 
L 107.698266 292.643271 
L 107.698266 292.084089 
L 107.868452 292.084089 
L 107.868452 291.524907 
L 109.939957 291.524907 
L 109.939957 290.965724 
L 110.88904 290.965724 
L 110.88904 290.406542 
L 112.253934 290.406542 
L 112.253934 289.84736 
L 114.696138 289.84736 
L 114.696138 289.288178 
L 116.324038 289.288178 
L 116.324038 288.728995 
L 121.320594 288.728995 
L 121.320594 288.169813 
L 122.1887 288.169813 
L 122.1887 287.610631 
L 123.499282 287.610631 
L 123.499282 287.051449 
L 125.125128 287.051449 
L 125.125128 286.492266 
L 125.854083 286.492266 
L 125.854083 285.933084 
L 127.087492 285.933084 
L 127.087492 285.373902 
L 127.497741 285.373902 
L 127.497741 284.81472 
L 130.536746 284.81472 
L 130.536746 284.255537 
L 132.053099 284.255537 
L 132.053099 283.696355 
L 137.377325 283.696355 
L 137.377325 283.137173 
L 140.074705 283.137173 
L 140.074705 282.577991 
L 141.651382 282.577991 
L 141.651382 282.018808 
L 145.274456 282.018808 
L 145.274456 281.459626 
L 145.64514 281.459626 
L 145.64514 280.900444 
L 145.878621 280.900444 
L 145.878621 280.341262 
L 146.64067 280.341262 
L 146.64067 279.782079 
L 147.12193 279.782079 
L 147.12193 279.222897 
L 149.533248 279.222897 
L 149.533248 278.663715 
L 152.770536 278.663715 
L 152.770536 278.104533 
L 152.97432 278.104533 
L 152.97432 277.545351 
L 153.114935 277.545351 
L 153.114935 276.986168 
L 154.478109 276.986168 
L 154.478109 276.426986 
L 156.971157 276.426986 
L 156.971157 275.867804 
L 157.843816 275.867804 
L 157.843816 275.308622 
L 159.504333 275.308622 
L 159.504333 274.749439 
L 160.00091 274.749439 
L 160.00091 274.190257 
L 161.175378 274.190257 
L 161.175378 273.071893 
L 161.406203 273.071893 
L 161.492437 271.953528 
L 161.792731 271.953528 
L 161.792731 271.394346 
L 162.040842 271.394346 
L 162.040842 270.835164 
L 162.399325 270.835164 
L 162.399325 270.275981 
L 162.684313 270.275981 
L 162.733095 269.157617 
L 163.637879 269.157617 
L 163.637879 268.598435 
L 164.937611 268.598435 
L 164.937611 268.039252 
L 165.750577 268.039252 
L 165.823404 266.920888 
L 166.060134 266.920888 
L 166.060134 266.361706 
L 166.820085 266.361706 
L 166.820085 265.802523 
L 167.207947 265.802523 
L 167.207947 265.243341 
L 167.626557 265.243341 
L 167.626557 264.684159 
L 167.863107 264.684159 
L 167.863107 264.124977 
L 168.637944 264.124977 
L 168.637944 263.565795 
L 169.052442 263.565795 
L 169.052442 263.006612 
L 169.346231 263.006612 
L 169.346231 262.44743 
L 169.667655 262.44743 
L 169.681595 261.329066 
L 169.880177 261.329066 
L 169.880177 260.769883 
L 171.192485 260.769883 
L 171.192485 260.210701 
L 171.579471 260.210701 
L 171.579471 259.651519 
L 171.747106 259.651519 
L 171.79441 258.533154 
L 172.236416 258.533154 
L 172.314305 257.41479 
L 172.480879 257.41479 
L 172.480879 256.855608 
L 172.923111 256.855608 
L 172.994126 254.618879 
L 173.040034 254.618879 
L 173.072478 253.500514 
L 173.284709 253.500514 
L 173.284709 252.941332 
L 173.769347 252.941332 
L 173.769347 252.38215 
L 173.909752 252.38215 
L 173.909752 251.822967 
L 174.034603 251.822967 
L 174.076019 250.704603 
L 174.32067 250.704603 
L 174.32067 250.145421 
L 174.523378 250.145421 
L 174.523378 249.586238 
L 174.730651 249.586238 
L 174.754873 247.908692 
L 174.880621 247.908692 
L 174.880621 247.34951 
L 175.003751 247.34951 
L 175.003751 246.790327 
L 175.124314 246.790327 
L 175.124314 246.231145 
L 175.367938 246.231145 
L 175.367938 245.671963 
L 175.570277 245.671963 
L 175.570277 245.112781 
L 175.900147 245.112781 
L 175.900147 244.553598 
L 176.056327 244.553598 
L 176.131495 243.435234 
L 176.214279 243.435234 
L 176.23967 242.316869 
L 176.361346 242.316869 
L 176.361346 241.757687 
L 176.564839 241.757687 
L 176.564839 241.198505 
L 176.911442 241.198505 
L 176.911442 240.639323 
L 177.040583 240.639323 
L 177.040583 240.08014 
L 177.257174 240.08014 
L 177.266139 238.961776 
L 177.488774 238.961776 
L 177.488774 238.402594 
L 177.620983 238.402594 
L 177.724569 236.165865 
L 177.797144 236.165865 
L 177.82175 235.0475 
L 177.927012 235.0475 
L 177.927012 234.488318 
L 178.038776 234.488318 
L 178.047343 233.369954 
L 178.161166 233.369954 
L 178.262966 231.692407 
L 178.278466 231.692407 
L 178.278466 231.133225 
L 178.394971 231.133225 
L 178.500962 228.337313 
L 178.557871 228.337313 
L 178.66562 223.863855 
L 178.672504 223.863855 
L 178.774066 221.067944 
L 178.783642 221.067944 
L 178.831443 218.831215 
L 178.917152 218.831215 
L 178.972702 208.765935 
L 179.040204 208.765935 
L 179.077889 204.292477 
L 179.185109 204.292477 
L 179.265087 198.700655 
L 179.310244 198.700655 
L 179.413392 193.108832 
L 179.462105 193.108832 
L 179.549966 185.280281 
L 179.589162 185.280281 
L 179.68806 181.366005 
L 179.70492 181.366005 
L 179.80831 175.215 
L 179.819903 175.215 
L 179.920046 164.590538 
L 179.939238 164.590538 
L 180.048858 153.406893 
L 180.060289 153.406893 
L 180.165357 145.578342 
L 180.181755 145.578342 
L 180.269786 138.868155 
L 180.337389 138.868155 
L 180.400993 132.157968 
L 180.449473 132.157968 
L 180.550962 129.362057 
L 180.594098 129.362057 
L 180.70208 121.533505 
L 180.714307 121.533505 
L 180.822753 110.909043 
L 180.842177 110.909043 
L 180.946204 101.962127 
L 181.011203 101.962127 
L 181.120186 93.574393 
L 181.177394 93.574393 
L 181.268769 87.982571 
L 181.297151 87.982571 
L 181.397294 81.831566 
L 181.457101 81.831566 
L 181.538852 79.594837 
L 181.578419 79.594837 
L 181.607455 77.358108 
L 181.704658 77.358108 
L 181.789836 65.615281 
L 181.88259 65.615281 
L 181.98393 61.141823 
L 182.040603 61.141823 
L 182.040603 60.023459 
L 182.274373 60.023459 
L 182.371217 54.990819 
L 182.414454 54.990819 
L 182.509412 51.635725 
L 182.553401 51.635725 
L 182.631205 49.398996 
L 182.670521 49.398996 
L 182.739108 47.72145 
L 182.795514 47.72145 
L 182.848497 44.925538 
L 183.03106 44.925538 
L 183.134365 40.45208 
L 183.345427 40.45208 
L 183.345427 39.892898 
L 183.609792 39.892898 
L 183.609792 39.333716 
L 183.761978 39.333716 
L 183.773235 35.41944 
L 184.151668 35.41944 
L 184.226564 33.741894 
L 184.302127 33.741894 
L 184.390195 32.623529 
L 184.461113 32.623529 
L 184.461113 32.064347 
L 184.577686 32.064347 
L 184.678922 30.945982 
L 184.716733 30.945982 
L 184.744794 29.827618 
L 184.8364 29.827618 
L 184.894964 27.590889 
L 184.950464 27.590889 
L 184.950464 26.472524 
L 185.092225 26.472524 
L 185.092225 25.35416 
L 185.387195 25.35416 
L 185.387195 23.676613 
L 186.223392 23.676613 
L 186.223392 23.117431 
L 186.934183 23.117431 
L 186.95205 21.999066 
L 187.201923 21.999066 
L 187.289695 18.084791 
L 187.320518 18.084791 
L 187.320518 17.525609 
L 187.489474 17.525609 
L 187.583991 15.848062 
L 187.789309 15.848062 
L 187.886224 12.492968 
L 188.077633 12.492968 
L 188.077633 11.933786 
L 188.240921 11.933786 
L 188.240921 11.374604 
L 188.361985 11.374604 
L 188.361985 9.697057 
L 333.168 9.697057 
L 333.168 9.697057 
" style="fill:none;stroke:#ff7500;stroke-linecap:square;stroke-width:1.5;"/>
   </g>
   <g id="line2d_47">
    <defs>
     <path d="M 0 -6 
L -1.347084 -1.854102 
L -5.706339 -1.854102 
L -2.179628 0.708204 
L -3.526712 4.854102 
L -0 2.291796 
L 3.526712 4.854102 
L 2.179628 0.708204 
L 5.706339 -1.854102 
L 1.347084 -1.854102 
z
" id="m2d2e328a68" style="stroke:#ff7500;stroke-linejoin:bevel;stroke-width:1.5;"/>
    </defs>
    <g>
     <use style="fill-opacity:0;stroke:#ff7500;stroke-linejoin:bevel;stroke-width:1.5;" x="173.769347" xlink:href="#m2d2e328a68" y="252.941332"/>
     <use style="fill-opacity:0;stroke:#ff7500;stroke-linejoin:bevel;stroke-width:1.5;" x="180.866425" xlink:href="#m2d2e328a68" y="106.435585"/>
     <use style="fill-opacity:0;stroke:#ff7500;stroke-linejoin:bevel;stroke-width:1.5;" x="188.361985" xlink:href="#m2d2e328a68" y="11.374604"/>
     <use style="fill-opacity:0;stroke:#ff7500;stroke-linejoin:bevel;stroke-width:1.5;" x="188.361985" xlink:href="#m2d2e328a68" y="9.697057"/>
     <use style="fill-opacity:0;stroke:#ff7500;stroke-linejoin:bevel;stroke-width:1.5;" x="333.168" xlink:href="#m2d2e328a68" y="9.697057"/>
    </g>
   </g>
   <g id="line2d_48">
    <path style="fill:none;stroke:#ff7500;stroke-linecap:square;stroke-width:1.5;"/>
    <g/>
   </g>
   <g id="line2d_49">
    <defs>
     <path d="M 0 1.5 
C 0.397805 1.5 0.77937 1.341951 1.06066 1.06066 
C 1.341951 0.77937 1.5 0.397805 1.5 0 
C 1.5 -0.397805 1.341951 -0.77937 1.06066 -1.06066 
C 0.77937 -1.341951 0.397805 -1.5 0 -1.5 
C -0.397805 -1.5 -0.77937 -1.341951 -1.06066 -1.06066 
C -1.341951 -0.77937 -1.5 -0.397805 -1.5 0 
C -1.5 0.397805 -1.341951 0.77937 -1.06066 1.06066 
C -0.77937 1.341951 -0.397805 1.5 0 1.5 
z
" id="mf93d52c851" style="stroke:#6495ed;"/>
    </defs>
    <g>
     <use style="fill:#6495ed;stroke:#6495ed;" x="293.718912" xlink:href="#mf93d52c851" y="9.697057"/>
     <use style="fill:#6495ed;stroke:#6495ed;" x="293.718912" xlink:href="#mf93d52c851" y="9.697057"/>
    </g>
   </g>
   <g id="line2d_50">
    <path d="M 118.914406 294.88 
L 118.958878 293.761636 
L 119.782703 293.761636 
L 119.782703 292.643271 
L 120.64954 292.643271 
L 120.64954 292.084089 
L 121.281837 292.084089 
L 121.281837 291.524907 
L 123.430938 291.524907 
L 123.430938 290.965724 
L 123.601292 290.965724 
L 123.601292 290.406542 
L 123.769975 290.406542 
L 123.769975 289.84736 
L 124.396284 289.84736 
L 124.396284 289.288178 
L 127.170329 289.288178 
L 127.170329 288.728995 
L 128.264156 288.728995 
L 128.264156 288.169813 
L 129.558267 288.169813 
L 129.558267 287.610631 
L 130.031162 287.610631 
L 130.031162 287.051449 
L 131.333273 287.051449 
L 131.333273 286.492266 
L 131.739239 286.492266 
L 131.739239 285.933084 
L 132.42232 285.933084 
L 132.42232 285.373902 
L 135.155828 285.373902 
L 135.155828 284.81472 
L 137.84252 284.81472 
L 137.84252 284.255537 
L 138.764847 284.255537 
L 138.764847 283.696355 
L 141.023196 283.696355 
L 141.023196 283.137173 
L 147.823604 283.137173 
L 147.823604 282.577991 
L 148.004886 282.577991 
L 148.004886 282.018808 
L 149.261127 282.018808 
L 149.261127 281.459626 
L 150.403282 281.459626 
L 150.403282 280.900444 
L 151.019478 280.900444 
L 151.019478 280.341262 
L 152.801568 280.341262 
L 152.801568 279.782079 
L 153.777841 279.782079 
L 153.777841 279.222897 
L 155.504275 279.222897 
L 155.504275 278.104533 
L 155.829688 278.104533 
L 155.829688 277.545351 
L 157.01974 277.545351 
L 157.01974 276.986168 
L 158.888862 276.986168 
L 158.888862 276.426986 
L 159.596453 276.426986 
L 159.617321 275.308622 
L 161.014628 275.308622 
L 161.014628 274.749439 
L 161.205828 274.749439 
L 161.205828 274.190257 
L 161.394923 274.190257 
L 161.394923 273.631075 
L 161.814768 273.631075 
L 161.814768 273.071893 
L 162.044464 273.071893 
L 162.044464 272.51271 
L 163.223595 272.51271 
L 163.223595 271.953528 
L 164.323833 271.953528 
L 164.323833 271.394346 
L 165.621647 271.394346 
L 165.645161 270.275981 
L 166.512865 270.275981 
L 166.512865 269.716799 
L 167.945522 269.716799 
L 167.945522 269.157617 
L 168.063306 269.157617 
L 168.063306 268.039252 
L 168.588516 268.039252 
L 168.588516 267.48007 
L 168.909717 267.48007 
L 168.909717 266.920888 
L 169.308298 266.920888 
L 169.308298 266.361706 
L 169.852605 266.361706 
L 169.852605 265.802523 
L 169.96948 265.802523 
L 170.024207 264.684159 
L 171.147759 264.684159 
L 171.147759 264.124977 
L 171.550331 264.124977 
L 171.550331 263.565795 
L 171.962005 263.565795 
L 171.978269 262.44743 
L 172.706339 262.44743 
L 172.706339 261.888248 
L 173.358001 261.888248 
L 173.358001 261.329066 
L 173.884309 261.329066 
L 173.884309 260.769883 
L 174.279839 260.769883 
L 174.33662 259.651519 
L 174.5076 259.651519 
L 174.5076 259.092337 
L 174.902918 259.092337 
L 174.902918 258.533154 
L 175.235634 258.533154 
L 175.301076 256.855608 
L 175.762111 256.855608 
L 175.762111 256.296425 
L 175.883964 256.296425 
L 175.883964 255.737243 
L 176.030663 255.737243 
L 176.030663 255.178061 
L 176.585056 255.178061 
L 176.644017 254.059696 
L 176.877858 254.059696 
L 176.906866 252.941332 
L 177.101021 252.941332 
L 177.101021 252.38215 
L 177.212275 252.38215 
L 177.279579 251.263785 
L 177.364454 251.263785 
L 177.364454 250.704603 
L 177.577026 250.704603 
L 177.577026 250.145421 
L 177.880949 250.145421 
L 177.912631 249.027056 
L 178.003033 249.027056 
L 178.107194 247.34951 
L 178.241807 247.34951 
L 178.282691 246.231145 
L 178.429909 246.231145 
L 178.524581 245.112781 
L 178.805511 245.112781 
L 178.830079 243.994416 
L 179.076545 243.994416 
L 179.123539 242.316869 
L 179.380399 242.316869 
L 179.380399 241.757687 
L 179.590467 241.757687 
L 179.590467 241.198505 
L 179.769612 241.198505 
L 179.864911 239.520958 
L 180.013244 239.520958 
L 180.10214 238.402594 
L 180.136306 238.402594 
L 180.136306 237.843411 
L 180.287339 237.843411 
L 180.36735 235.606682 
L 180.410949 235.606682 
L 180.499055 232.810771 
L 180.525028 232.810771 
L 180.565763 231.692407 
L 180.822753 231.692407 
L 180.822753 231.133225 
L 180.96067 231.133225 
L 181.023213 229.455678 
L 181.108243 229.455678 
L 181.147622 227.778131 
L 181.224922 227.778131 
L 181.331383 224.423038 
L 181.405515 224.423038 
L 181.481667 222.186309 
L 181.527197 222.186309 
L 181.563301 217.712851 
L 181.686185 217.712851 
L 181.772604 214.91694 
L 181.88259 214.91694 
L 181.964619 213.239393 
L 182.058698 213.239393 
L 182.148892 211.561846 
L 182.245325 211.561846 
L 182.32342 207.64757 
L 182.368997 207.64757 
L 182.442112 204.851659 
L 182.540217 204.851659 
L 182.590704 203.733295 
L 182.663975 203.733295 
L 182.773841 199.259837 
L 182.795514 199.259837 
L 182.88301 194.227197 
L 182.940021 194.227197 
L 183.035332 191.990468 
L 183.09929 191.990468 
L 183.16513 189.194556 
L 183.214874 189.194556 
L 183.304473 186.398645 
L 183.335984 186.398645 
L 183.431218 185.280281 
L 183.458331 185.280281 
L 183.565322 180.806823 
L 183.606694 180.806823 
L 183.690166 178.570094 
L 183.718927 178.570094 
L 183.800836 174.655818 
L 183.847758 174.655818 
L 183.952359 171.859907 
L 184.001899 171.859907 
L 184.10858 168.504814 
L 184.161673 168.504814 
L 184.267369 164.590538 
L 184.298158 164.590538 
L 184.354627 162.353809 
L 184.435538 162.353809 
L 184.51607 158.439533 
L 184.551306 158.439533 
L 184.649781 153.406893 
L 184.734155 153.406893 
L 184.734155 152.288529 
L 184.905504 152.288529 
L 184.976239 150.610982 
L 185.027674 150.610982 
L 185.126301 148.933435 
L 185.163141 148.933435 
L 185.254428 145.019159 
L 185.327483 145.019159 
L 185.374151 143.900795 
L 185.479155 143.900795 
L 185.56694 142.78243 
L 185.621234 142.78243 
L 185.700983 140.545702 
L 185.77399 140.545702 
L 185.846689 139.427337 
L 185.926303 139.427337 
L 185.926303 138.868155 
L 186.0737 138.868155 
L 186.179866 137.74979 
L 186.238467 137.74979 
L 186.337455 136.072244 
L 186.490993 136.072244 
L 186.581593 134.394697 
L 186.63711 134.394697 
L 186.740724 132.71715 
L 186.818883 132.71715 
L 186.818883 132.157968 
L 187.019095 132.157968 
L 187.058014 130.480421 
L 187.202761 130.480421 
L 187.29303 129.362057 
L 187.449868 129.362057 
L 187.533099 127.125328 
L 195.351209 127.125328 
L 195.351209 126.566145 
L 196.267394 126.566145 
L 196.335509 125.447781 
L 196.455777 125.447781 
L 196.455777 124.888599 
L 196.780438 124.888599 
L 196.780438 124.329417 
L 196.906223 124.329417 
L 196.968534 122.65187 
L 197.031567 122.65187 
L 197.031567 121.533505 
L 197.432272 121.533505 
L 197.432272 120.974323 
L 197.574031 120.974323 
L 197.661356 118.737594 
L 197.699621 118.737594 
L 197.76094 117.61923 
L 197.813003 117.61923 
L 197.831074 116.500865 
L 197.94539 116.500865 
L 198.037101 113.145772 
L 198.059395 113.145772 
L 198.059395 112.586589 
L 198.249062 112.586589 
L 198.287801 110.349861 
L 198.424449 110.349861 
L 198.467583 108.672314 
L 198.563481 108.672314 
L 198.607994 107.553949 
L 198.754117 107.553949 
L 198.754117 106.994767 
L 198.870552 106.994767 
L 198.962121 104.758038 
L 199.021212 104.758038 
L 199.021212 104.198856 
L 199.143808 104.198856 
L 199.188097 101.962127 
L 199.281315 101.962127 
L 199.367424 99.166216 
L 199.423082 99.166216 
L 199.50316 96.929487 
L 199.560014 96.929487 
L 199.607725 93.574393 
L 199.704775 93.574393 
L 199.803696 91.337664 
L 199.876413 91.337664 
L 199.907255 89.660118 
L 200.006214 89.660118 
L 200.068569 87.423389 
L 200.194965 87.423389 
L 200.240556 84.627477 
L 200.36375 84.627477 
L 200.36375 84.068295 
L 200.50463 84.068295 
L 200.541309 81.272384 
L 200.753283 81.272384 
L 200.863409 79.594837 
L 200.924244 79.594837 
L 200.924244 79.035655 
L 205.452776 79.035655 
L 205.452776 77.917291 
L 205.831155 77.917291 
L 205.874196 76.798926 
L 205.966146 76.798926 
L 206.056767 75.121379 
L 206.144964 75.121379 
L 206.239357 74.003015 
L 206.299056 74.003015 
L 206.381629 71.766286 
L 206.498751 71.766286 
L 206.607764 69.529557 
L 206.6121 69.529557 
L 206.6121 68.970375 
L 206.799638 68.970375 
L 206.87451 67.292828 
L 207.039677 67.292828 
L 207.148475 63.937735 
L 207.943853 63.937735 
L 207.943853 63.378552 
L 208.360486 63.378552 
L 208.448118 61.701006 
L 208.500387 61.701006 
L 208.500387 61.141823 
L 208.641324 61.141823 
L 208.750282 58.345912 
L 208.824048 58.345912 
L 208.909828 56.109183 
L 208.93943 56.109183 
L 209.02864 54.431636 
L 209.094424 54.431636 
L 209.193097 49.398996 
L 209.267544 49.398996 
L 209.330108 47.72145 
L 209.391985 47.72145 
L 209.489886 43.807174 
L 209.510498 43.807174 
L 209.606818 41.570445 
L 209.628199 41.570445 
L 209.734711 36.537805 
L 209.74239 36.537805 
L 209.852238 30.945982 
L 209.862556 30.945982 
L 209.948228 28.709253 
L 209.984783 28.709253 
L 210.079374 25.913342 
L 210.099734 25.913342 
L 210.164856 23.676613 
L 210.232805 23.676613 
L 210.301143 22.558249 
L 210.346551 22.558249 
L 210.346551 21.999066 
L 293.613554 21.999066 
L 293.718912 9.697057 
L 333.168 9.697057 
L 333.168 9.697057 
" style="fill:none;stroke:#6495ed;stroke-linecap:square;stroke-width:1.5;"/>
   </g>
   <g id="line2d_51">
    <defs>
     <path d="M -0 6 
L 6 -6 
L -6 -6 
z
" id="m8e256c8c5a" style="stroke:#6495ed;stroke-linejoin:miter;stroke-width:1.5;"/>
    </defs>
    <g>
     <use style="fill-opacity:0;stroke:#6495ed;stroke-linejoin:miter;stroke-width:1.5;" x="168.063306" xlink:href="#m8e256c8c5a" y="269.157617"/>
     <use style="fill-opacity:0;stroke:#6495ed;stroke-linejoin:miter;stroke-width:1.5;" x="196.906223" xlink:href="#m8e256c8c5a" y="124.329417"/>
     <use style="fill-opacity:0;stroke:#6495ed;stroke-linejoin:miter;stroke-width:1.5;" x="210.346551" xlink:href="#m8e256c8c5a" y="21.999066"/>
     <use style="fill-opacity:0;stroke:#6495ed;stroke-linejoin:miter;stroke-width:1.5;" x="293.718912" xlink:href="#m8e256c8c5a" y="9.697057"/>
     <use style="fill-opacity:0;stroke:#6495ed;stroke-linejoin:miter;stroke-width:1.5;" x="333.168" xlink:href="#m8e256c8c5a" y="9.697057"/>
    </g>
   </g>
   <g id="line2d_52">
    <path style="fill:none;stroke:#6495ed;stroke-linecap:square;stroke-width:1.5;"/>
    <g/>
   </g>
   <g id="line2d_53">
    <path clip-path="url(#p498eb2d78a)" d="M 293.589883 21.999066 
" style="fill:none;stroke:#6495ed;stroke-linecap:square;stroke-width:1.5;"/>
    <defs>
     <path d="M -12 12 
L 12 -12 
M -12 -12 
L 12 12 
" id="m02fd74e1c6" style="stroke:#6495ed;"/>
    </defs>
    <g clip-path="url(#p498eb2d78a)">
     <use style="fill:#6495ed;stroke:#6495ed;" x="293.589883" xlink:href="#m02fd74e1c6" y="21.999066"/>
    </g>
   </g>
   <g id="line2d_54">
    <defs>
     <path d="M 0 1.5 
C 0.397805 1.5 0.77937 1.341951 1.06066 1.06066 
C 1.341951 0.77937 1.5 0.397805 1.5 0 
C 1.5 -0.397805 1.341951 -0.77937 1.06066 -1.06066 
C 0.77937 -1.341951 0.397805 -1.5 0 -1.5 
C -0.397805 -1.5 -0.77937 -1.341951 -1.06066 -1.06066 
C -1.341951 -0.77937 -1.5 -0.397805 -1.5 0 
C -1.5 0.397805 -1.341951 0.77937 -1.06066 1.06066 
C -0.77937 1.341951 -0.397805 1.5 0 1.5 
z
" id="m78617178ac" style="stroke:#ff0000;"/>
    </defs>
    <g>
     <use style="fill:#ff0000;stroke:#ff0000;" x="59.253858" xlink:href="#m78617178ac" y="9.697057"/>
     <use style="fill:#ff0000;stroke:#ff0000;" x="59.253858" xlink:href="#m78617178ac" y="9.697057"/>
    </g>
   </g>
   <g id="line2d_55">
    <path d="M 28.455965 294.88 
L 28.455965 294.320818 
L 59.253858 294.320818 
L 59.253858 9.697057 
L 333.168 9.697057 
" style="fill:none;stroke:#ff0000;stroke-linecap:square;stroke-width:1.5;"/>
   </g>
   <g id="line2d_56">
    <defs>
     <path d="M 0 -6 
L -5.196152 -3 
L -5.196152 3 
L -0 6 
L 5.196152 3 
L 5.196152 -3 
z
" id="mb7f265ba54" style="stroke:#ff0000;stroke-linejoin:miter;stroke-width:1.5;"/>
    </defs>
    <g>
     <use style="fill-opacity:0;stroke:#ff0000;stroke-linejoin:miter;stroke-width:1.5;" x="59.253858" xlink:href="#mb7f265ba54" y="294.320818"/>
     <use style="fill-opacity:0;stroke:#ff0000;stroke-linejoin:miter;stroke-width:1.5;" x="59.253858" xlink:href="#mb7f265ba54" y="294.320818"/>
     <use style="fill-opacity:0;stroke:#ff0000;stroke-linejoin:miter;stroke-width:1.5;" x="59.253858" xlink:href="#mb7f265ba54" y="9.697057"/>
     <use style="fill-opacity:0;stroke:#ff0000;stroke-linejoin:miter;stroke-width:1.5;" x="59.253858" xlink:href="#mb7f265ba54" y="9.697057"/>
     <use style="fill-opacity:0;stroke:#ff0000;stroke-linejoin:miter;stroke-width:1.5;" x="59.253858" xlink:href="#mb7f265ba54" y="9.697057"/>
     <use style="fill-opacity:0;stroke:#ff0000;stroke-linejoin:miter;stroke-width:1.5;" x="333.168" xlink:href="#mb7f265ba54" y="9.697057"/>
    </g>
   </g>
   <g id="line2d_57">
    <path style="fill:none;stroke:#ff0000;stroke-linecap:square;stroke-width:1.5;"/>
    <g/>
   </g>
   <g id="line2d_58">
    <path d="M 333.168 9.697057 
L 363.64328 289.176341 
" style="fill:none;stroke:#6495ed;stroke-linecap:square;stroke-width:1.5;"/>
    <g>
     <use style="fill-opacity:0;stroke:#6495ed;stroke-linejoin:miter;stroke-width:1.5;" x="333.168" xlink:href="#m8e256c8c5a" y="9.697057"/>
     <use style="fill-opacity:0;stroke:#6495ed;stroke-linejoin:miter;stroke-width:1.5;" x="363.64328" xlink:href="#m8e256c8c5a" y="289.176341"/>
    </g>
   </g>
   <g id="line2d_59">
    <path d="M 333.168 9.697057 
L 363.64328 220.732435 
" style="fill:none;stroke:#ff7500;stroke-linecap:square;stroke-width:1.5;"/>
    <g>
     <use style="fill-opacity:0;stroke:#ff7500;stroke-linejoin:bevel;stroke-width:1.5;" x="333.168" xlink:href="#m2d2e328a68" y="9.697057"/>
     <use style="fill-opacity:0;stroke:#ff7500;stroke-linejoin:bevel;stroke-width:1.5;" x="363.64328" xlink:href="#m2d2e328a68" y="220.732435"/>
    </g>
   </g>
   <g id="line2d_60">
    <path d="M 333.168 9.697057 
L 363.64328 152.288529 
" style="fill:none;stroke:#ff00ff;stroke-linecap:square;stroke-width:1.5;"/>
    <g>
     <use style="fill-opacity:0;stroke:#ff00ff;stroke-linejoin:miter;stroke-width:1.5;" x="333.168" xlink:href="#m6c12de199a" y="9.697057"/>
     <use style="fill-opacity:0;stroke:#ff00ff;stroke-linejoin:miter;stroke-width:1.5;" x="363.64328" xlink:href="#m6c12de199a" y="152.288529"/>
    </g>
   </g>
   <g id="line2d_61">
    <path d="M 333.168 9.697057 
L 363.64328 83.844622 
" style="fill:none;stroke:#000080;stroke-linecap:square;stroke-width:1.5;"/>
    <g>
     <use style="fill-opacity:0;stroke:#000080;stroke-width:1.5;" x="333.168" xlink:href="#m36d3a0b5e7" y="9.697057"/>
     <use style="fill-opacity:0;stroke:#000080;stroke-width:1.5;" x="363.64328" xlink:href="#m36d3a0b5e7" y="83.844622"/>
    </g>
   </g>
   <g id="line2d_62">
    <path d="M 333.168 9.697057 
L 363.64328 15.400716 
" style="fill:none;stroke:#ff0000;stroke-linecap:square;stroke-width:1.5;"/>
    <g>
     <use style="fill-opacity:0;stroke:#ff0000;stroke-linejoin:miter;stroke-width:1.5;" x="333.168" xlink:href="#mb7f265ba54" y="9.697057"/>
     <use style="fill-opacity:0;stroke:#ff0000;stroke-linejoin:miter;stroke-width:1.5;" x="363.64328" xlink:href="#mb7f265ba54" y="15.400716"/>
    </g>
   </g>
   <g id="line2d_63">
    <path d="M 333.168 294.88 
L 333.168 9.697057 
" style="fill:none;stroke:#000000;stroke-linecap:square;stroke-width:1.5;"/>
   </g>
   <g id="patch_3">
    <path d="M 56.12 294.88 
L 56.12 6.845228 
" style="fill:none;stroke:#000000;stroke-linecap:square;stroke-linejoin:miter;stroke-width:0.8;"/>
   </g>
   <g id="patch_4">
    <path d="M 333.168 294.88 
L 333.168 6.845228 
" style="fill:none;stroke:#000000;stroke-linecap:square;stroke-linejoin:miter;stroke-width:0.8;"/>
   </g>
   <g id="patch_5">
    <path d="M 56.12 294.88 
L 333.168 294.88 
" style="fill:none;stroke:#000000;stroke-linecap:square;stroke-linejoin:miter;stroke-width:0.8;"/>
   </g>
   <g id="patch_6">
    <path d="M 56.12 6.845228 
L 333.168 6.845228 
" style="fill:none;stroke:#000000;stroke-linecap:square;stroke-linejoin:miter;stroke-width:0.8;"/>
   </g>
   <g id="text_13">
    <!-- f4 -->
    <g transform="translate(369.18424 293.867279)scale(0.17 -0.17)">
     <use xlink:href="#DejaVuSans-66"/>
     <use x="35.205078" xlink:href="#DejaVuSans-34"/>
    </g>
   </g>
   <g id="text_14">
    <!-- f3 -->
    <defs>
     <path d="M 40.578125 39.3125 
Q 47.65625 37.796875 51.625 33 
Q 55.609375 28.21875 55.609375 21.1875 
Q 55.609375 10.40625 48.1875 4.484375 
Q 40.765625 -1.421875 27.09375 -1.421875 
Q 22.515625 -1.421875 17.65625 -0.515625 
Q 12.796875 0.390625 7.625 2.203125 
L 7.625 11.71875 
Q 11.71875 9.328125 16.59375 8.109375 
Q 21.484375 6.890625 26.8125 6.890625 
Q 36.078125 6.890625 40.9375 10.546875 
Q 45.796875 14.203125 45.796875 21.1875 
Q 45.796875 27.640625 41.28125 31.265625 
Q 36.765625 34.90625 28.71875 34.90625 
L 20.21875 34.90625 
L 20.21875 43.015625 
L 29.109375 43.015625 
Q 36.375 43.015625 40.234375 45.921875 
Q 44.09375 48.828125 44.09375 54.296875 
Q 44.09375 59.90625 40.109375 62.90625 
Q 36.140625 65.921875 28.71875 65.921875 
Q 24.65625 65.921875 20.015625 65.03125 
Q 15.375 64.15625 9.8125 62.3125 
L 9.8125 71.09375 
Q 15.4375 72.65625 20.34375 73.4375 
Q 25.25 74.21875 29.59375 74.21875 
Q 40.828125 74.21875 47.359375 69.109375 
Q 53.90625 64.015625 53.90625 55.328125 
Q 53.90625 49.265625 50.4375 45.09375 
Q 46.96875 40.921875 40.578125 39.3125 
z
" id="DejaVuSans-33"/>
    </defs>
    <g transform="translate(369.18424 225.423372)scale(0.17 -0.17)">
     <use xlink:href="#DejaVuSans-66"/>
     <use x="35.205078" xlink:href="#DejaVuSans-33"/>
    </g>
   </g>
   <g id="text_15">
    <!-- f2 -->
    <g transform="translate(369.18424 156.979466)scale(0.17 -0.17)">
     <use xlink:href="#DejaVuSans-66"/>
     <use x="35.205078" xlink:href="#DejaVuSans-32"/>
    </g>
   </g>
   <g id="text_16">
    <!-- f1 -->
    <g transform="translate(369.18424 88.53556)scale(0.17 -0.17)">
     <use xlink:href="#DejaVuSans-66"/>
     <use x="35.205078" xlink:href="#DejaVuSans-31"/>
    </g>
   </g>
   <g id="text_17">
    <!-- f5 -->
    <defs>
     <path d="M 10.796875 72.90625 
L 49.515625 72.90625 
L 49.515625 64.59375 
L 19.828125 64.59375 
L 19.828125 46.734375 
Q 21.96875 47.46875 24.109375 47.828125 
Q 26.265625 48.1875 28.421875 48.1875 
Q 40.625 48.1875 47.75 41.5 
Q 54.890625 34.8125 54.890625 23.390625 
Q 54.890625 11.625 47.5625 5.09375 
Q 40.234375 -1.421875 26.90625 -1.421875 
Q 22.3125 -1.421875 17.546875 -0.640625 
Q 12.796875 0.140625 7.71875 1.703125 
L 7.71875 11.625 
Q 12.109375 9.234375 16.796875 8.0625 
Q 21.484375 6.890625 26.703125 6.890625 
Q 35.15625 6.890625 40.078125 11.328125 
Q 45.015625 15.765625 45.015625 23.390625 
Q 45.015625 31 40.078125 35.4375 
Q 35.15625 39.890625 26.703125 39.890625 
Q 22.75 39.890625 18.8125 39.015625 
Q 14.890625 38.140625 10.796875 36.28125 
z
" id="DejaVuSans-35"/>
    </defs>
    <g transform="translate(369.18424 20.091654)scale(0.17 -0.17)">
     <use xlink:href="#DejaVuSans-66"/>
     <use x="35.205078" xlink:href="#DejaVuSans-35"/>
    </g>
   </g>
   <g id="text_18">
    <!-- bbob -->
    <defs>
     <path d="M 48.6875 27.296875 
Q 48.6875 37.203125 44.609375 42.84375 
Q 40.53125 48.484375 33.40625 48.484375 
Q 26.265625 48.484375 22.1875 42.84375 
Q 18.109375 37.203125 18.109375 27.296875 
Q 18.109375 17.390625 22.1875 11.75 
Q 26.265625 6.109375 33.40625 6.109375 
Q 40.53125 6.109375 44.609375 11.75 
Q 48.6875 17.390625 48.6875 27.296875 
z
M 18.109375 46.390625 
Q 20.953125 51.265625 25.265625 53.625 
Q 29.59375 56 35.59375 56 
Q 45.5625 56 51.78125 48.09375 
Q 58.015625 40.1875 58.015625 27.296875 
Q 58.015625 14.40625 51.78125 6.484375 
Q 45.5625 -1.421875 35.59375 -1.421875 
Q 29.59375 -1.421875 25.265625 0.953125 
Q 20.953125 3.328125 18.109375 8.203125 
L 18.109375 0 
L 9.078125 0 
L 9.078125 75.984375 
L 18.109375 75.984375 
z
" id="DejaVuSans-62"/>
    </defs>
    <g transform="translate(58.89048 17.475982)scale(0.102 -0.102)">
     <use xlink:href="#DejaVuSans-62"/>
     <use x="63.476562" xlink:href="#DejaVuSans-62"/>
     <use x="126.953125" xlink:href="#DejaVuSans-6f"/>
     <use x="188.134766" xlink:href="#DejaVuSans-62"/>
    </g>
    <!-- Separable functions, 10-D -->
    <defs>
     <path d="M 53.515625 70.515625 
L 53.515625 60.890625 
Q 47.90625 63.578125 42.921875 64.890625 
Q 37.9375 66.21875 33.296875 66.21875 
Q 25.25 66.21875 20.875 63.09375 
Q 16.5 59.96875 16.5 54.203125 
Q 16.5 49.359375 19.40625 46.890625 
Q 22.3125 44.4375 30.421875 42.921875 
L 36.375 41.703125 
Q 47.40625 39.59375 52.65625 34.296875 
Q 57.90625 29 57.90625 20.125 
Q 57.90625 9.515625 50.796875 4.046875 
Q 43.703125 -1.421875 29.984375 -1.421875 
Q 24.8125 -1.421875 18.96875 -0.25 
Q 13.140625 0.921875 6.890625 3.21875 
L 6.890625 13.375 
Q 12.890625 10.015625 18.65625 8.296875 
Q 24.421875 6.59375 29.984375 6.59375 
Q 38.421875 6.59375 43.015625 9.90625 
Q 47.609375 13.234375 47.609375 19.390625 
Q 47.609375 24.75 44.3125 27.78125 
Q 41.015625 30.8125 33.5 32.328125 
L 27.484375 33.5 
Q 16.453125 35.6875 11.515625 40.375 
Q 6.59375 45.0625 6.59375 53.421875 
Q 6.59375 63.09375 13.40625 68.65625 
Q 20.21875 74.21875 32.171875 74.21875 
Q 37.3125 74.21875 42.625 73.28125 
Q 47.953125 72.359375 53.515625 70.515625 
z
" id="DejaVuSans-53"/>
     <path d="M 19.671875 64.796875 
L 19.671875 8.109375 
L 31.59375 8.109375 
Q 46.6875 8.109375 53.6875 14.9375 
Q 60.6875 21.78125 60.6875 36.53125 
Q 60.6875 51.171875 53.6875 57.984375 
Q 46.6875 64.796875 31.59375 64.796875 
z
M 9.8125 72.90625 
L 30.078125 72.90625 
Q 51.265625 72.90625 61.171875 64.09375 
Q 71.09375 55.28125 71.09375 36.53125 
Q 71.09375 17.671875 61.125 8.828125 
Q 51.171875 0 30.078125 0 
L 9.8125 0 
z
" id="DejaVuSans-44"/>
    </defs>
    <g transform="translate(58.89048 28.89775)scale(0.102 -0.102)">
     <use xlink:href="#DejaVuSans-53"/>
     <use x="63.476562" xlink:href="#DejaVuSans-65"/>
     <use x="125" xlink:href="#DejaVuSans-70"/>
     <use x="188.476562" xlink:href="#DejaVuSans-61"/>
     <use x="249.755859" xlink:href="#DejaVuSans-72"/>
     <use x="290.869141" xlink:href="#DejaVuSans-61"/>
     <use x="352.148438" xlink:href="#DejaVuSans-62"/>
     <use x="415.625" xlink:href="#DejaVuSans-6c"/>
     <use x="443.408203" xlink:href="#DejaVuSans-65"/>
     <use x="504.931641" xlink:href="#DejaVuSans-20"/>
     <use x="536.71875" xlink:href="#DejaVuSans-66"/>
     <use x="571.923828" xlink:href="#DejaVuSans-75"/>
     <use x="635.302734" xlink:href="#DejaVuSans-6e"/>
     <use x="698.681641" xlink:href="#DejaVuSans-63"/>
     <use x="753.662109" xlink:href="#DejaVuSans-74"/>
     <use x="792.871094" xlink:href="#DejaVuSans-69"/>
     <use x="820.654297" xlink:href="#DejaVuSans-6f"/>
     <use x="881.835938" xlink:href="#DejaVuSans-6e"/>
     <use x="945.214844" xlink:href="#DejaVuSans-73"/>
     <use x="997.314453" xlink:href="#DejaVuSans-2c"/>
     <use x="1029.101562" xlink:href="#DejaVuSans-20"/>
     <use x="1060.888672" xlink:href="#DejaVuSans-31"/>
     <use x="1124.511719" xlink:href="#DejaVuSans-30"/>
     <use x="1188.134766" xlink:href="#DejaVuSans-2d"/>
     <use x="1224.21875" xlink:href="#DejaVuSans-44"/>
    </g>
    <!-- 51 targets: 100..1e-08 -->
    <defs>
     <path d="M 11.71875 12.40625 
L 22.015625 12.40625 
L 22.015625 0 
L 11.71875 0 
z
M 11.71875 51.703125 
L 22.015625 51.703125 
L 22.015625 39.3125 
L 11.71875 39.3125 
z
" id="DejaVuSans-3a"/>
    </defs>
    <g transform="translate(58.89048 40.319519)scale(0.102 -0.102)">
     <use xlink:href="#DejaVuSans-35"/>
     <use x="63.623047" xlink:href="#DejaVuSans-31"/>
     <use x="127.246094" xlink:href="#DejaVuSans-20"/>
     <use x="159.033203" xlink:href="#DejaVuSans-74"/>
     <use x="198.242188" xlink:href="#DejaVuSans-61"/>
     <use x="259.521484" xlink:href="#DejaVuSans-72"/>
     <use x="300.619141" xlink:href="#DejaVuSans-67"/>
     <use x="364.095703" xlink:href="#DejaVuSans-65"/>
     <use x="425.619141" xlink:href="#DejaVuSans-74"/>
     <use x="464.828125" xlink:href="#DejaVuSans-73"/>
     <use x="516.927734" xlink:href="#DejaVuSans-3a"/>
     <use x="550.619141" xlink:href="#DejaVuSans-20"/>
     <use x="582.40625" xlink:href="#DejaVuSans-31"/>
     <use x="646.029297" xlink:href="#DejaVuSans-30"/>
     <use x="709.652344" xlink:href="#DejaVuSans-30"/>
     <use x="773.275391" xlink:href="#DejaVuSans-2e"/>
     <use x="805.0625" xlink:href="#DejaVuSans-2e"/>
     <use x="836.849609" xlink:href="#DejaVuSans-31"/>
     <use x="900.472656" xlink:href="#DejaVuSans-65"/>
     <use x="961.996094" xlink:href="#DejaVuSans-2d"/>
     <use x="998.080078" xlink:href="#DejaVuSans-30"/>
     <use x="1061.703125" xlink:href="#DejaVuSans-38"/>
    </g>
    <!-- 15 instances -->
    <g transform="translate(58.89048 51.741288)scale(0.102 -0.102)">
     <use xlink:href="#DejaVuSans-31"/>
     <use x="63.623047" xlink:href="#DejaVuSans-35"/>
     <use x="127.246094" xlink:href="#DejaVuSans-20"/>
     <use x="159.033203" xlink:href="#DejaVuSans-69"/>
     <use x="186.816406" xlink:href="#DejaVuSans-6e"/>
     <use x="250.195312" xlink:href="#DejaVuSans-73"/>
     <use x="302.294922" xlink:href="#DejaVuSans-74"/>
     <use x="341.503906" xlink:href="#DejaVuSans-61"/>
     <use x="402.783203" xlink:href="#DejaVuSans-6e"/>
     <use x="466.162109" xlink:href="#DejaVuSans-63"/>
     <use x="521.142578" xlink:href="#DejaVuSans-65"/>
     <use x="582.666016" xlink:href="#DejaVuSans-73"/>
    </g>
   </g>
   <g id="text_19">
    <!-- v2.4 -->
    <g style="fill:#808080;" transform="translate(183.733063 289.919965)scale(0.1 -0.1)">
     <use xlink:href="#DejaVuSans-76"/>
     <use x="59.179688" xlink:href="#DejaVuSans-32"/>
     <use x="122.802734" xlink:href="#DejaVuSans-2e"/>
     <use x="154.589844" xlink:href="#DejaVuSans-34"/>
    </g>
   </g>
  </g>
 </g>
 <defs>
  <clipPath id="p498eb2d78a">
   <rect height="288.034772" width="277.048" x="56.12" y="6.845228"/>
  </clipPath>
 </defs>
</svg>
