<?xml version="1.0" encoding="utf-8" standalone="no"?>
<!DOCTYPE svg PUBLIC "-//W3C//DTD SVG 1.1//EN"
  "http://www.w3.org/Graphics/SVG/1.1/DTD/svg11.dtd">
<!-- Created with matplotlib (http://matplotlib.org/) -->
<svg height="345.6pt" version="1.1" viewBox="0 0 460.8 345.6" width="460.8pt" xmlns="http://www.w3.org/2000/svg" xmlns:xlink="http://www.w3.org/1999/xlink">
 <defs>
  <style type="text/css">
*{stroke-linecap:butt;stroke-linejoin:round;}
  </style>
 </defs>
 <g id="figure_1">
  <g id="patch_1">
   <path d="M 0 345.6 
L 460.8 345.6 
L 460.8 0 
L 0 0 
z
" style="fill:#ffffff;"/>
  </g>
  <g id="axes_1">
   <g id="patch_2">
    <path d="M 56.12 294.88 
L 333.168 294.88 
L 333.168 6.845228 
L 56.12 6.845228 
z
" style="fill:#ffffff;"/>
   </g>
   <g id="matplotlib.axis_1">
    <g id="xtick_1">
     <g id="line2d_1">
      <path clip-path="url(#pde74c77ef8)" d="M 56.12 294.88 
L 56.12 6.845228 
" style="fill:none;stroke:#b0b0b0;stroke-linecap:square;stroke-width:0.8;"/>
     </g>
     <g id="line2d_2">
      <defs>
       <path d="M 0 0 
L 0 3.5 
" id="m7070f6c8ed" style="stroke:#000000;stroke-width:0.8;"/>
      </defs>
      <g>
       <use style="stroke:#000000;stroke-width:0.8;" x="56.12" xlink:href="#m7070f6c8ed" y="294.88"/>
      </g>
     </g>
     <g id="text_1">
      <!-- 0 -->
      <defs>
       <path d="M 31.78125 66.40625 
Q 24.171875 66.40625 20.328125 58.90625 
Q 16.5 51.421875 16.5 36.375 
Q 16.5 21.390625 20.328125 13.890625 
Q 24.171875 6.390625 31.78125 6.390625 
Q 39.453125 6.390625 43.28125 13.890625 
Q 47.125 21.390625 47.125 36.375 
Q 47.125 51.421875 43.28125 58.90625 
Q 39.453125 66.40625 31.78125 66.40625 
z
M 31.78125 74.21875 
Q 44.046875 74.21875 50.515625 64.515625 
Q 56.984375 54.828125 56.984375 36.375 
Q 56.984375 17.96875 50.515625 8.265625 
Q 44.046875 -1.421875 31.78125 -1.421875 
Q 19.53125 -1.421875 13.0625 8.265625 
Q 6.59375 17.96875 6.59375 36.375 
Q 6.59375 54.828125 13.0625 64.515625 
Q 19.53125 74.21875 31.78125 74.21875 
z
" id="DejaVuSans-30"/>
      </defs>
      <g transform="translate(49.7575 317.076875)scale(0.2 -0.2)">
       <use xlink:href="#DejaVuSans-30"/>
      </g>
     </g>
    </g>
    <g id="xtick_2">
     <g id="line2d_3">
      <path clip-path="url(#pde74c77ef8)" d="M 135.276571 294.88 
L 135.276571 6.845228 
" style="fill:none;stroke:#b0b0b0;stroke-linecap:square;stroke-width:0.8;"/>
     </g>
     <g id="line2d_4">
      <g>
       <use style="stroke:#000000;stroke-width:0.8;" x="135.276571" xlink:href="#m7070f6c8ed" y="294.88"/>
      </g>
     </g>
     <g id="text_2">
      <!-- 2 -->
      <defs>
       <path d="M 19.1875 8.296875 
L 53.609375 8.296875 
L 53.609375 0 
L 7.328125 0 
L 7.328125 8.296875 
Q 12.9375 14.109375 22.625 23.890625 
Q 32.328125 33.6875 34.8125 36.53125 
Q 39.546875 41.84375 41.421875 45.53125 
Q 43.3125 49.21875 43.3125 52.78125 
Q 43.3125 58.59375 39.234375 62.25 
Q 35.15625 65.921875 28.609375 65.921875 
Q 23.96875 65.921875 18.8125 64.3125 
Q 13.671875 62.703125 7.8125 59.421875 
L 7.8125 69.390625 
Q 13.765625 71.78125 18.9375 73 
Q 24.125 74.21875 28.421875 74.21875 
Q 39.75 74.21875 46.484375 68.546875 
Q 53.21875 62.890625 53.21875 53.421875 
Q 53.21875 48.921875 51.53125 44.890625 
Q 49.859375 40.875 45.40625 35.40625 
Q 44.1875 33.984375 37.640625 27.21875 
Q 31.109375 20.453125 19.1875 8.296875 
z
" id="DejaVuSans-32"/>
      </defs>
      <g transform="translate(128.914071 317.076875)scale(0.2 -0.2)">
       <use xlink:href="#DejaVuSans-32"/>
      </g>
     </g>
    </g>
    <g id="xtick_3">
     <g id="line2d_5">
      <path clip-path="url(#pde74c77ef8)" d="M 214.433143 294.88 
L 214.433143 6.845228 
" style="fill:none;stroke:#b0b0b0;stroke-linecap:square;stroke-width:0.8;"/>
     </g>
     <g id="line2d_6">
      <g>
       <use style="stroke:#000000;stroke-width:0.8;" x="214.433143" xlink:href="#m7070f6c8ed" y="294.88"/>
      </g>
     </g>
     <g id="text_3">
      <!-- 4 -->
      <defs>
       <path d="M 37.796875 64.3125 
L 12.890625 25.390625 
L 37.796875 25.390625 
z
M 35.203125 72.90625 
L 47.609375 72.90625 
L 47.609375 25.390625 
L 58.015625 25.390625 
L 58.015625 17.1875 
L 47.609375 17.1875 
L 47.609375 0 
L 37.796875 0 
L 37.796875 17.1875 
L 4.890625 17.1875 
L 4.890625 26.703125 
z
" id="DejaVuSans-34"/>
      </defs>
      <g transform="translate(208.070643 317.076875)scale(0.2 -0.2)">
       <use xlink:href="#DejaVuSans-34"/>
      </g>
     </g>
    </g>
    <g id="xtick_4">
     <g id="line2d_7">
      <path clip-path="url(#pde74c77ef8)" d="M 293.589714 294.88 
L 293.589714 6.845228 
" style="fill:none;stroke:#b0b0b0;stroke-linecap:square;stroke-width:0.8;"/>
     </g>
     <g id="line2d_8">
      <g>
       <use style="stroke:#000000;stroke-width:0.8;" x="293.589714" xlink:href="#m7070f6c8ed" y="294.88"/>
      </g>
     </g>
     <g id="text_4">
      <!-- 6 -->
      <defs>
       <path d="M 33.015625 40.375 
Q 26.375 40.375 22.484375 35.828125 
Q 18.609375 31.296875 18.609375 23.390625 
Q 18.609375 15.53125 22.484375 10.953125 
Q 26.375 6.390625 33.015625 6.390625 
Q 39.65625 6.390625 43.53125 10.953125 
Q 47.40625 15.53125 47.40625 23.390625 
Q 47.40625 31.296875 43.53125 35.828125 
Q 39.65625 40.375 33.015625 40.375 
z
M 52.59375 71.296875 
L 52.59375 62.3125 
Q 48.875 64.0625 45.09375 64.984375 
Q 41.3125 65.921875 37.59375 65.921875 
Q 27.828125 65.921875 22.671875 59.328125 
Q 17.53125 52.734375 16.796875 39.40625 
Q 19.671875 43.65625 24.015625 45.921875 
Q 28.375 48.1875 33.59375 48.1875 
Q 44.578125 48.1875 50.953125 41.515625 
Q 57.328125 34.859375 57.328125 23.390625 
Q 57.328125 12.15625 50.6875 5.359375 
Q 44.046875 -1.421875 33.015625 -1.421875 
Q 20.359375 -1.421875 13.671875 8.265625 
Q 6.984375 17.96875 6.984375 36.375 
Q 6.984375 53.65625 15.1875 63.9375 
Q 23.390625 74.21875 37.203125 74.21875 
Q 40.921875 74.21875 44.703125 73.484375 
Q 48.484375 72.75 52.59375 71.296875 
z
" id="DejaVuSans-36"/>
      </defs>
      <g transform="translate(287.227214 317.076875)scale(0.2 -0.2)">
       <use xlink:href="#DejaVuSans-36"/>
      </g>
     </g>
    </g>
    <g id="xtick_5">
     <g id="line2d_9">
      <path clip-path="url(#pde74c77ef8)" d="M 56.12 294.88 
L 56.12 6.845228 
" style="fill:none;stroke:#b0b0b0;stroke-linecap:square;stroke-width:0.8;"/>
     </g>
     <g id="line2d_10">
      <defs>
       <path d="M 0 0 
L 0 2 
" id="m532064fede" style="stroke:#000000;stroke-width:0.6;"/>
      </defs>
      <g>
       <use style="stroke:#000000;stroke-width:0.6;" x="56.12" xlink:href="#m532064fede" y="294.88"/>
      </g>
     </g>
    </g>
    <g id="xtick_6">
     <g id="line2d_11">
      <path clip-path="url(#pde74c77ef8)" d="M 95.698286 294.88 
L 95.698286 6.845228 
" style="fill:none;stroke:#b0b0b0;stroke-linecap:square;stroke-width:0.8;"/>
     </g>
     <g id="line2d_12">
      <g>
       <use style="stroke:#000000;stroke-width:0.6;" x="95.698286" xlink:href="#m532064fede" y="294.88"/>
      </g>
     </g>
    </g>
    <g id="xtick_7">
     <g id="line2d_13">
      <path clip-path="url(#pde74c77ef8)" d="M 135.276571 294.88 
L 135.276571 6.845228 
" style="fill:none;stroke:#b0b0b0;stroke-linecap:square;stroke-width:0.8;"/>
     </g>
     <g id="line2d_14">
      <g>
       <use style="stroke:#000000;stroke-width:0.6;" x="135.276571" xlink:href="#m532064fede" y="294.88"/>
      </g>
     </g>
    </g>
    <g id="xtick_8">
     <g id="line2d_15">
      <path clip-path="url(#pde74c77ef8)" d="M 174.854857 294.88 
L 174.854857 6.845228 
" style="fill:none;stroke:#b0b0b0;stroke-linecap:square;stroke-width:0.8;"/>
     </g>
     <g id="line2d_16">
      <g>
       <use style="stroke:#000000;stroke-width:0.6;" x="174.854857" xlink:href="#m532064fede" y="294.88"/>
      </g>
     </g>
    </g>
    <g id="xtick_9">
     <g id="line2d_17">
      <path clip-path="url(#pde74c77ef8)" d="M 214.433143 294.88 
L 214.433143 6.845228 
" style="fill:none;stroke:#b0b0b0;stroke-linecap:square;stroke-width:0.8;"/>
     </g>
     <g id="line2d_18">
      <g>
       <use style="stroke:#000000;stroke-width:0.6;" x="214.433143" xlink:href="#m532064fede" y="294.88"/>
      </g>
     </g>
    </g>
    <g id="xtick_10">
     <g id="line2d_19">
      <path clip-path="url(#pde74c77ef8)" d="M 254.011429 294.88 
L 254.011429 6.845228 
" style="fill:none;stroke:#b0b0b0;stroke-linecap:square;stroke-width:0.8;"/>
     </g>
     <g id="line2d_20">
      <g>
       <use style="stroke:#000000;stroke-width:0.6;" x="254.011429" xlink:href="#m532064fede" y="294.88"/>
      </g>
     </g>
    </g>
    <g id="xtick_11">
     <g id="line2d_21">
      <path clip-path="url(#pde74c77ef8)" d="M 293.589714 294.88 
L 293.589714 6.845228 
" style="fill:none;stroke:#b0b0b0;stroke-linecap:square;stroke-width:0.8;"/>
     </g>
     <g id="line2d_22">
      <g>
       <use style="stroke:#000000;stroke-width:0.6;" x="293.589714" xlink:href="#m532064fede" y="294.88"/>
      </g>
     </g>
    </g>
    <g id="xtick_12">
     <g id="line2d_23">
      <path clip-path="url(#pde74c77ef8)" d="M 333.168 294.88 
L 333.168 6.845228 
" style="fill:none;stroke:#b0b0b0;stroke-linecap:square;stroke-width:0.8;"/>
     </g>
     <g id="line2d_24">
      <g>
       <use style="stroke:#000000;stroke-width:0.6;" x="333.168" xlink:href="#m532064fede" y="294.88"/>
      </g>
     </g>
    </g>
    <g id="text_5">
     <!-- log10(# f-evals / dimension) -->
     <defs>
      <path d="M 9.421875 75.984375 
L 18.40625 75.984375 
L 18.40625 0 
L 9.421875 0 
z
" id="DejaVuSans-6c"/>
      <path d="M 30.609375 48.390625 
Q 23.390625 48.390625 19.1875 42.75 
Q 14.984375 37.109375 14.984375 27.296875 
Q 14.984375 17.484375 19.15625 11.84375 
Q 23.34375 6.203125 30.609375 6.203125 
Q 37.796875 6.203125 41.984375 11.859375 
Q 46.1875 17.53125 46.1875 27.296875 
Q 46.1875 37.015625 41.984375 42.703125 
Q 37.796875 48.390625 30.609375 48.390625 
z
M 30.609375 56 
Q 42.328125 56 49.015625 48.375 
Q 55.71875 40.765625 55.71875 27.296875 
Q 55.71875 13.875 49.015625 6.21875 
Q 42.328125 -1.421875 30.609375 -1.421875 
Q 18.84375 -1.421875 12.171875 6.21875 
Q 5.515625 13.875 5.515625 27.296875 
Q 5.515625 40.765625 12.171875 48.375 
Q 18.84375 56 30.609375 56 
z
" id="DejaVuSans-6f"/>
      <path d="M 45.40625 27.984375 
Q 45.40625 37.75 41.375 43.109375 
Q 37.359375 48.484375 30.078125 48.484375 
Q 22.859375 48.484375 18.828125 43.109375 
Q 14.796875 37.75 14.796875 27.984375 
Q 14.796875 18.265625 18.828125 12.890625 
Q 22.859375 7.515625 30.078125 7.515625 
Q 37.359375 7.515625 41.375 12.890625 
Q 45.40625 18.265625 45.40625 27.984375 
z
M 54.390625 6.78125 
Q 54.390625 -7.171875 48.1875 -13.984375 
Q 42 -20.796875 29.203125 -20.796875 
Q 24.46875 -20.796875 20.265625 -20.09375 
Q 16.0625 -19.390625 12.109375 -17.921875 
L 12.109375 -9.1875 
Q 16.0625 -11.328125 19.921875 -12.34375 
Q 23.78125 -13.375 27.78125 -13.375 
Q 36.625 -13.375 41.015625 -8.765625 
Q 45.40625 -4.15625 45.40625 5.171875 
L 45.40625 9.625 
Q 42.625 4.78125 38.28125 2.390625 
Q 33.9375 0 27.875 0 
Q 17.828125 0 11.671875 7.65625 
Q 5.515625 15.328125 5.515625 27.984375 
Q 5.515625 40.671875 11.671875 48.328125 
Q 17.828125 56 27.875 56 
Q 33.9375 56 38.28125 53.609375 
Q 42.625 51.21875 45.40625 46.390625 
L 45.40625 54.6875 
L 54.390625 54.6875 
z
" id="DejaVuSans-67"/>
      <path d="M 12.40625 8.296875 
L 28.515625 8.296875 
L 28.515625 63.921875 
L 10.984375 60.40625 
L 10.984375 69.390625 
L 28.421875 72.90625 
L 38.28125 72.90625 
L 38.28125 8.296875 
L 54.390625 8.296875 
L 54.390625 0 
L 12.40625 0 
z
" id="DejaVuSans-31"/>
      <path d="M 31 75.875 
Q 24.46875 64.65625 21.28125 53.65625 
Q 18.109375 42.671875 18.109375 31.390625 
Q 18.109375 20.125 21.3125 9.0625 
Q 24.515625 -2 31 -13.1875 
L 23.1875 -13.1875 
Q 15.875 -1.703125 12.234375 9.375 
Q 8.59375 20.453125 8.59375 31.390625 
Q 8.59375 42.28125 12.203125 53.3125 
Q 15.828125 64.359375 23.1875 75.875 
z
" id="DejaVuSans-28"/>
      <path d="M 51.125 44 
L 36.921875 44 
L 32.8125 27.6875 
L 47.125 27.6875 
z
M 43.796875 71.78125 
L 38.71875 51.515625 
L 52.984375 51.515625 
L 58.109375 71.78125 
L 65.921875 71.78125 
L 60.890625 51.515625 
L 76.125 51.515625 
L 76.125 44 
L 58.984375 44 
L 54.984375 27.6875 
L 70.515625 27.6875 
L 70.515625 20.21875 
L 53.078125 20.21875 
L 48 0 
L 40.1875 0 
L 45.21875 20.21875 
L 30.90625 20.21875 
L 25.875 0 
L 18.015625 0 
L 23.09375 20.21875 
L 7.71875 20.21875 
L 7.71875 27.6875 
L 24.90625 27.6875 
L 29 44 
L 13.28125 44 
L 13.28125 51.515625 
L 30.90625 51.515625 
L 35.890625 71.78125 
z
" id="DejaVuSans-23"/>
      <path id="DejaVuSans-20"/>
      <path d="M 37.109375 75.984375 
L 37.109375 68.5 
L 28.515625 68.5 
Q 23.6875 68.5 21.796875 66.546875 
Q 19.921875 64.59375 19.921875 59.515625 
L 19.921875 54.6875 
L 34.71875 54.6875 
L 34.71875 47.703125 
L 19.921875 47.703125 
L 19.921875 0 
L 10.890625 0 
L 10.890625 47.703125 
L 2.296875 47.703125 
L 2.296875 54.6875 
L 10.890625 54.6875 
L 10.890625 58.5 
Q 10.890625 67.625 15.140625 71.796875 
Q 19.390625 75.984375 28.609375 75.984375 
z
" id="DejaVuSans-66"/>
      <path d="M 4.890625 31.390625 
L 31.203125 31.390625 
L 31.203125 23.390625 
L 4.890625 23.390625 
z
" id="DejaVuSans-2d"/>
      <path d="M 56.203125 29.59375 
L 56.203125 25.203125 
L 14.890625 25.203125 
Q 15.484375 15.921875 20.484375 11.0625 
Q 25.484375 6.203125 34.421875 6.203125 
Q 39.59375 6.203125 44.453125 7.46875 
Q 49.3125 8.734375 54.109375 11.28125 
L 54.109375 2.78125 
Q 49.265625 0.734375 44.1875 -0.34375 
Q 39.109375 -1.421875 33.890625 -1.421875 
Q 20.796875 -1.421875 13.15625 6.1875 
Q 5.515625 13.8125 5.515625 26.8125 
Q 5.515625 40.234375 12.765625 48.109375 
Q 20.015625 56 32.328125 56 
Q 43.359375 56 49.78125 48.890625 
Q 56.203125 41.796875 56.203125 29.59375 
z
M 47.21875 32.234375 
Q 47.125 39.59375 43.09375 43.984375 
Q 39.0625 48.390625 32.421875 48.390625 
Q 24.90625 48.390625 20.390625 44.140625 
Q 15.875 39.890625 15.1875 32.171875 
z
" id="DejaVuSans-65"/>
      <path d="M 2.984375 54.6875 
L 12.5 54.6875 
L 29.59375 8.796875 
L 46.6875 54.6875 
L 56.203125 54.6875 
L 35.6875 0 
L 23.484375 0 
z
" id="DejaVuSans-76"/>
      <path d="M 34.28125 27.484375 
Q 23.390625 27.484375 19.1875 25 
Q 14.984375 22.515625 14.984375 16.5 
Q 14.984375 11.71875 18.140625 8.90625 
Q 21.296875 6.109375 26.703125 6.109375 
Q 34.1875 6.109375 38.703125 11.40625 
Q 43.21875 16.703125 43.21875 25.484375 
L 43.21875 27.484375 
z
M 52.203125 31.203125 
L 52.203125 0 
L 43.21875 0 
L 43.21875 8.296875 
Q 40.140625 3.328125 35.546875 0.953125 
Q 30.953125 -1.421875 24.3125 -1.421875 
Q 15.921875 -1.421875 10.953125 3.296875 
Q 6 8.015625 6 15.921875 
Q 6 25.140625 12.171875 29.828125 
Q 18.359375 34.515625 30.609375 34.515625 
L 43.21875 34.515625 
L 43.21875 35.40625 
Q 43.21875 41.609375 39.140625 45 
Q 35.0625 48.390625 27.6875 48.390625 
Q 23 48.390625 18.546875 47.265625 
Q 14.109375 46.140625 10.015625 43.890625 
L 10.015625 52.203125 
Q 14.9375 54.109375 19.578125 55.046875 
Q 24.21875 56 28.609375 56 
Q 40.484375 56 46.34375 49.84375 
Q 52.203125 43.703125 52.203125 31.203125 
z
" id="DejaVuSans-61"/>
      <path d="M 44.28125 53.078125 
L 44.28125 44.578125 
Q 40.484375 46.53125 36.375 47.5 
Q 32.28125 48.484375 27.875 48.484375 
Q 21.1875 48.484375 17.84375 46.4375 
Q 14.5 44.390625 14.5 40.28125 
Q 14.5 37.15625 16.890625 35.375 
Q 19.28125 33.59375 26.515625 31.984375 
L 29.59375 31.296875 
Q 39.15625 29.25 43.1875 25.515625 
Q 47.21875 21.78125 47.21875 15.09375 
Q 47.21875 7.46875 41.1875 3.015625 
Q 35.15625 -1.421875 24.609375 -1.421875 
Q 20.21875 -1.421875 15.453125 -0.5625 
Q 10.6875 0.296875 5.421875 2 
L 5.421875 11.28125 
Q 10.40625 8.6875 15.234375 7.390625 
Q 20.0625 6.109375 24.8125 6.109375 
Q 31.15625 6.109375 34.5625 8.28125 
Q 37.984375 10.453125 37.984375 14.40625 
Q 37.984375 18.0625 35.515625 20.015625 
Q 33.0625 21.96875 24.703125 23.78125 
L 21.578125 24.515625 
Q 13.234375 26.265625 9.515625 29.90625 
Q 5.8125 33.546875 5.8125 39.890625 
Q 5.8125 47.609375 11.28125 51.796875 
Q 16.75 56 26.8125 56 
Q 31.78125 56 36.171875 55.265625 
Q 40.578125 54.546875 44.28125 53.078125 
z
" id="DejaVuSans-73"/>
      <path d="M 25.390625 72.90625 
L 33.6875 72.90625 
L 8.296875 -9.28125 
L 0 -9.28125 
z
" id="DejaVuSans-2f"/>
      <path d="M 45.40625 46.390625 
L 45.40625 75.984375 
L 54.390625 75.984375 
L 54.390625 0 
L 45.40625 0 
L 45.40625 8.203125 
Q 42.578125 3.328125 38.25 0.953125 
Q 33.9375 -1.421875 27.875 -1.421875 
Q 17.96875 -1.421875 11.734375 6.484375 
Q 5.515625 14.40625 5.515625 27.296875 
Q 5.515625 40.1875 11.734375 48.09375 
Q 17.96875 56 27.875 56 
Q 33.9375 56 38.25 53.625 
Q 42.578125 51.265625 45.40625 46.390625 
z
M 14.796875 27.296875 
Q 14.796875 17.390625 18.875 11.75 
Q 22.953125 6.109375 30.078125 6.109375 
Q 37.203125 6.109375 41.296875 11.75 
Q 45.40625 17.390625 45.40625 27.296875 
Q 45.40625 37.203125 41.296875 42.84375 
Q 37.203125 48.484375 30.078125 48.484375 
Q 22.953125 48.484375 18.875 42.84375 
Q 14.796875 37.203125 14.796875 27.296875 
z
" id="DejaVuSans-64"/>
      <path d="M 9.421875 54.6875 
L 18.40625 54.6875 
L 18.40625 0 
L 9.421875 0 
z
M 9.421875 75.984375 
L 18.40625 75.984375 
L 18.40625 64.59375 
L 9.421875 64.59375 
z
" id="DejaVuSans-69"/>
      <path d="M 52 44.1875 
Q 55.375 50.25 60.0625 53.125 
Q 64.75 56 71.09375 56 
Q 79.640625 56 84.28125 50.015625 
Q 88.921875 44.046875 88.921875 33.015625 
L 88.921875 0 
L 79.890625 0 
L 79.890625 32.71875 
Q 79.890625 40.578125 77.09375 44.375 
Q 74.3125 48.1875 68.609375 48.1875 
Q 61.625 48.1875 57.5625 43.546875 
Q 53.515625 38.921875 53.515625 30.90625 
L 53.515625 0 
L 44.484375 0 
L 44.484375 32.71875 
Q 44.484375 40.625 41.703125 44.40625 
Q 38.921875 48.1875 33.109375 48.1875 
Q 26.21875 48.1875 22.15625 43.53125 
Q 18.109375 38.875 18.109375 30.90625 
L 18.109375 0 
L 9.078125 0 
L 9.078125 54.6875 
L 18.109375 54.6875 
L 18.109375 46.1875 
Q 21.1875 51.21875 25.484375 53.609375 
Q 29.78125 56 35.6875 56 
Q 41.65625 56 45.828125 52.96875 
Q 50 49.953125 52 44.1875 
z
" id="DejaVuSans-6d"/>
      <path d="M 54.890625 33.015625 
L 54.890625 0 
L 45.90625 0 
L 45.90625 32.71875 
Q 45.90625 40.484375 42.875 44.328125 
Q 39.84375 48.1875 33.796875 48.1875 
Q 26.515625 48.1875 22.3125 43.546875 
Q 18.109375 38.921875 18.109375 30.90625 
L 18.109375 0 
L 9.078125 0 
L 9.078125 54.6875 
L 18.109375 54.6875 
L 18.109375 46.1875 
Q 21.34375 51.125 25.703125 53.5625 
Q 30.078125 56 35.796875 56 
Q 45.21875 56 50.046875 50.171875 
Q 54.890625 44.34375 54.890625 33.015625 
z
" id="DejaVuSans-6e"/>
      <path d="M 8.015625 75.875 
L 15.828125 75.875 
Q 23.140625 64.359375 26.78125 53.3125 
Q 30.421875 42.28125 30.421875 31.390625 
Q 30.421875 20.453125 26.78125 9.375 
Q 23.140625 -1.703125 15.828125 -13.1875 
L 8.015625 -13.1875 
Q 14.5 -2 17.703125 9.0625 
Q 20.90625 20.125 20.90625 31.390625 
Q 20.90625 42.671875 17.703125 53.65625 
Q 14.5 64.65625 8.015625 75.875 
z
" id="DejaVuSans-29"/>
     </defs>
     <g transform="translate(73.803219 338.153594)scale(0.17 -0.17)">
      <use xlink:href="#DejaVuSans-6c"/>
      <use x="27.783203" xlink:href="#DejaVuSans-6f"/>
      <use x="88.964844" xlink:href="#DejaVuSans-67"/>
      <use x="152.441406" xlink:href="#DejaVuSans-31"/>
      <use x="216.064453" xlink:href="#DejaVuSans-30"/>
      <use x="279.6875" xlink:href="#DejaVuSans-28"/>
      <use x="318.701172" xlink:href="#DejaVuSans-23"/>
      <use x="402.490234" xlink:href="#DejaVuSans-20"/>
      <use x="434.277344" xlink:href="#DejaVuSans-66"/>
      <use x="469.404297" xlink:href="#DejaVuSans-2d"/>
      <use x="505.488281" xlink:href="#DejaVuSans-65"/>
      <use x="567.011719" xlink:href="#DejaVuSans-76"/>
      <use x="626.191406" xlink:href="#DejaVuSans-61"/>
      <use x="687.470703" xlink:href="#DejaVuSans-6c"/>
      <use x="715.253906" xlink:href="#DejaVuSans-73"/>
      <use x="767.353516" xlink:href="#DejaVuSans-20"/>
      <use x="799.140625" xlink:href="#DejaVuSans-2f"/>
      <use x="832.832031" xlink:href="#DejaVuSans-20"/>
      <use x="864.619141" xlink:href="#DejaVuSans-64"/>
      <use x="928.095703" xlink:href="#DejaVuSans-69"/>
      <use x="955.878906" xlink:href="#DejaVuSans-6d"/>
      <use x="1053.291016" xlink:href="#DejaVuSans-65"/>
      <use x="1114.814453" xlink:href="#DejaVuSans-6e"/>
      <use x="1178.193359" xlink:href="#DejaVuSans-73"/>
      <use x="1230.292969" xlink:href="#DejaVuSans-69"/>
      <use x="1258.076172" xlink:href="#DejaVuSans-6f"/>
      <use x="1319.257812" xlink:href="#DejaVuSans-6e"/>
      <use x="1382.636719" xlink:href="#DejaVuSans-29"/>
     </g>
    </g>
   </g>
   <g id="matplotlib.axis_2">
    <g id="ytick_1">
     <g id="line2d_25">
      <path clip-path="url(#pde74c77ef8)" d="M 56.12 294.88 
L 333.168 294.88 
" style="fill:none;stroke:#b0b0b0;stroke-linecap:square;stroke-width:0.8;"/>
     </g>
     <g id="line2d_26">
      <defs>
       <path d="M 0 0 
L -3.5 0 
" id="m88cd4df6a3" style="stroke:#000000;stroke-width:0.8;"/>
      </defs>
      <g>
       <use style="stroke:#000000;stroke-width:0.8;" x="56.12" xlink:href="#m88cd4df6a3" y="294.88"/>
      </g>
     </g>
     <g id="text_6">
      <!-- 0.0 -->
      <defs>
       <path d="M 10.6875 12.40625 
L 21 12.40625 
L 21 0 
L 10.6875 0 
z
" id="DejaVuSans-2e"/>
      </defs>
      <g transform="translate(23.675 300.95875)scale(0.16 -0.16)">
       <use xlink:href="#DejaVuSans-30"/>
       <use x="63.623047" xlink:href="#DejaVuSans-2e"/>
       <use x="95.410156" xlink:href="#DejaVuSans-30"/>
      </g>
     </g>
    </g>
    <g id="ytick_2">
     <g id="line2d_27">
      <path clip-path="url(#pde74c77ef8)" d="M 56.12 237.843411 
L 333.168 237.843411 
" style="fill:none;stroke:#b0b0b0;stroke-linecap:square;stroke-width:0.8;"/>
     </g>
     <g id="line2d_28">
      <g>
       <use style="stroke:#000000;stroke-width:0.8;" x="56.12" xlink:href="#m88cd4df6a3" y="237.843411"/>
      </g>
     </g>
     <g id="text_7">
      <!-- 0.2 -->
      <g transform="translate(23.675 243.922161)scale(0.16 -0.16)">
       <use xlink:href="#DejaVuSans-30"/>
       <use x="63.623047" xlink:href="#DejaVuSans-2e"/>
       <use x="95.410156" xlink:href="#DejaVuSans-32"/>
      </g>
     </g>
    </g>
    <g id="ytick_3">
     <g id="line2d_29">
      <path clip-path="url(#pde74c77ef8)" d="M 56.12 180.806823 
L 333.168 180.806823 
" style="fill:none;stroke:#b0b0b0;stroke-linecap:square;stroke-width:0.8;"/>
     </g>
     <g id="line2d_30">
      <g>
       <use style="stroke:#000000;stroke-width:0.8;" x="56.12" xlink:href="#m88cd4df6a3" y="180.806823"/>
      </g>
     </g>
     <g id="text_8">
      <!-- 0.4 -->
      <g transform="translate(23.675 186.885573)scale(0.16 -0.16)">
       <use xlink:href="#DejaVuSans-30"/>
       <use x="63.623047" xlink:href="#DejaVuSans-2e"/>
       <use x="95.410156" xlink:href="#DejaVuSans-34"/>
      </g>
     </g>
    </g>
    <g id="ytick_4">
     <g id="line2d_31">
      <path clip-path="url(#pde74c77ef8)" d="M 56.12 123.770234 
L 333.168 123.770234 
" style="fill:none;stroke:#b0b0b0;stroke-linecap:square;stroke-width:0.8;"/>
     </g>
     <g id="line2d_32">
      <g>
       <use style="stroke:#000000;stroke-width:0.8;" x="56.12" xlink:href="#m88cd4df6a3" y="123.770234"/>
      </g>
     </g>
     <g id="text_9">
      <!-- 0.6 -->
      <g transform="translate(23.675 129.848984)scale(0.16 -0.16)">
       <use xlink:href="#DejaVuSans-30"/>
       <use x="63.623047" xlink:href="#DejaVuSans-2e"/>
       <use x="95.410156" xlink:href="#DejaVuSans-36"/>
      </g>
     </g>
    </g>
    <g id="ytick_5">
     <g id="line2d_33">
      <path clip-path="url(#pde74c77ef8)" d="M 56.12 66.733646 
L 333.168 66.733646 
" style="fill:none;stroke:#b0b0b0;stroke-linecap:square;stroke-width:0.8;"/>
     </g>
     <g id="line2d_34">
      <g>
       <use style="stroke:#000000;stroke-width:0.8;" x="56.12" xlink:href="#m88cd4df6a3" y="66.733646"/>
      </g>
     </g>
     <g id="text_10">
      <!-- 0.8 -->
      <defs>
       <path d="M 31.78125 34.625 
Q 24.75 34.625 20.71875 30.859375 
Q 16.703125 27.09375 16.703125 20.515625 
Q 16.703125 13.921875 20.71875 10.15625 
Q 24.75 6.390625 31.78125 6.390625 
Q 38.8125 6.390625 42.859375 10.171875 
Q 46.921875 13.96875 46.921875 20.515625 
Q 46.921875 27.09375 42.890625 30.859375 
Q 38.875 34.625 31.78125 34.625 
z
M 21.921875 38.8125 
Q 15.578125 40.375 12.03125 44.71875 
Q 8.5 49.078125 8.5 55.328125 
Q 8.5 64.0625 14.71875 69.140625 
Q 20.953125 74.21875 31.78125 74.21875 
Q 42.671875 74.21875 48.875 69.140625 
Q 55.078125 64.0625 55.078125 55.328125 
Q 55.078125 49.078125 51.53125 44.71875 
Q 48 40.375 41.703125 38.8125 
Q 48.828125 37.15625 52.796875 32.3125 
Q 56.78125 27.484375 56.78125 20.515625 
Q 56.78125 9.90625 50.3125 4.234375 
Q 43.84375 -1.421875 31.78125 -1.421875 
Q 19.734375 -1.421875 13.25 4.234375 
Q 6.78125 9.90625 6.78125 20.515625 
Q 6.78125 27.484375 10.78125 32.3125 
Q 14.796875 37.15625 21.921875 38.8125 
z
M 18.3125 54.390625 
Q 18.3125 48.734375 21.84375 45.5625 
Q 25.390625 42.390625 31.78125 42.390625 
Q 38.140625 42.390625 41.71875 45.5625 
Q 45.3125 48.734375 45.3125 54.390625 
Q 45.3125 60.0625 41.71875 63.234375 
Q 38.140625 66.40625 31.78125 66.40625 
Q 25.390625 66.40625 21.84375 63.234375 
Q 18.3125 60.0625 18.3125 54.390625 
z
" id="DejaVuSans-38"/>
      </defs>
      <g transform="translate(23.675 72.812396)scale(0.16 -0.16)">
       <use xlink:href="#DejaVuSans-30"/>
       <use x="63.623047" xlink:href="#DejaVuSans-2e"/>
       <use x="95.410156" xlink:href="#DejaVuSans-38"/>
      </g>
     </g>
    </g>
    <g id="ytick_6">
     <g id="line2d_35">
      <path clip-path="url(#pde74c77ef8)" d="M 56.12 9.697057 
L 333.168 9.697057 
" style="fill:none;stroke:#b0b0b0;stroke-linecap:square;stroke-width:0.8;"/>
     </g>
     <g id="line2d_36">
      <g>
       <use style="stroke:#000000;stroke-width:0.8;" x="56.12" xlink:href="#m88cd4df6a3" y="9.697057"/>
      </g>
     </g>
     <g id="text_11">
      <!-- 1.0 -->
      <g transform="translate(23.675 15.775807)scale(0.16 -0.16)">
       <use xlink:href="#DejaVuSans-31"/>
       <use x="63.623047" xlink:href="#DejaVuSans-2e"/>
       <use x="95.410156" xlink:href="#DejaVuSans-30"/>
      </g>
     </g>
    </g>
    <g id="text_12">
     <!-- Fraction of function,target pairs -->
     <defs>
      <path d="M 9.8125 72.90625 
L 51.703125 72.90625 
L 51.703125 64.59375 
L 19.671875 64.59375 
L 19.671875 43.109375 
L 48.578125 43.109375 
L 48.578125 34.8125 
L 19.671875 34.8125 
L 19.671875 0 
L 9.8125 0 
z
" id="DejaVuSans-46"/>
      <path d="M 41.109375 46.296875 
Q 39.59375 47.171875 37.8125 47.578125 
Q 36.03125 48 33.890625 48 
Q 26.265625 48 22.1875 43.046875 
Q 18.109375 38.09375 18.109375 28.8125 
L 18.109375 0 
L 9.078125 0 
L 9.078125 54.6875 
L 18.109375 54.6875 
L 18.109375 46.1875 
Q 20.953125 51.171875 25.484375 53.578125 
Q 30.03125 56 36.53125 56 
Q 37.453125 56 38.578125 55.875 
Q 39.703125 55.765625 41.0625 55.515625 
z
" id="DejaVuSans-72"/>
      <path d="M 48.78125 52.59375 
L 48.78125 44.1875 
Q 44.96875 46.296875 41.140625 47.34375 
Q 37.3125 48.390625 33.40625 48.390625 
Q 24.65625 48.390625 19.8125 42.84375 
Q 14.984375 37.3125 14.984375 27.296875 
Q 14.984375 17.28125 19.8125 11.734375 
Q 24.65625 6.203125 33.40625 6.203125 
Q 37.3125 6.203125 41.140625 7.25 
Q 44.96875 8.296875 48.78125 10.40625 
L 48.78125 2.09375 
Q 45.015625 0.34375 40.984375 -0.53125 
Q 36.96875 -1.421875 32.421875 -1.421875 
Q 20.0625 -1.421875 12.78125 6.34375 
Q 5.515625 14.109375 5.515625 27.296875 
Q 5.515625 40.671875 12.859375 48.328125 
Q 20.21875 56 33.015625 56 
Q 37.15625 56 41.109375 55.140625 
Q 45.0625 54.296875 48.78125 52.59375 
z
" id="DejaVuSans-63"/>
      <path d="M 18.3125 70.21875 
L 18.3125 54.6875 
L 36.8125 54.6875 
L 36.8125 47.703125 
L 18.3125 47.703125 
L 18.3125 18.015625 
Q 18.3125 11.328125 20.140625 9.421875 
Q 21.96875 7.515625 27.59375 7.515625 
L 36.8125 7.515625 
L 36.8125 0 
L 27.59375 0 
Q 17.1875 0 13.234375 3.875 
Q 9.28125 7.765625 9.28125 18.015625 
L 9.28125 47.703125 
L 2.6875 47.703125 
L 2.6875 54.6875 
L 9.28125 54.6875 
L 9.28125 70.21875 
z
" id="DejaVuSans-74"/>
      <path d="M 8.5 21.578125 
L 8.5 54.6875 
L 17.484375 54.6875 
L 17.484375 21.921875 
Q 17.484375 14.15625 20.5 10.265625 
Q 23.53125 6.390625 29.59375 6.390625 
Q 36.859375 6.390625 41.078125 11.03125 
Q 45.3125 15.671875 45.3125 23.6875 
L 45.3125 54.6875 
L 54.296875 54.6875 
L 54.296875 0 
L 45.3125 0 
L 45.3125 8.40625 
Q 42.046875 3.421875 37.71875 1 
Q 33.40625 -1.421875 27.6875 -1.421875 
Q 18.265625 -1.421875 13.375 4.4375 
Q 8.5 10.296875 8.5 21.578125 
z
M 31.109375 56 
z
" id="DejaVuSans-75"/>
      <path d="M 11.71875 12.40625 
L 22.015625 12.40625 
L 22.015625 4 
L 14.015625 -11.625 
L 7.71875 -11.625 
L 11.71875 4 
z
" id="DejaVuSans-2c"/>
      <path d="M 18.109375 8.203125 
L 18.109375 -20.796875 
L 9.078125 -20.796875 
L 9.078125 54.6875 
L 18.109375 54.6875 
L 18.109375 46.390625 
Q 20.953125 51.265625 25.265625 53.625 
Q 29.59375 56 35.59375 56 
Q 45.5625 56 51.78125 48.09375 
Q 58.015625 40.1875 58.015625 27.296875 
Q 58.015625 14.40625 51.78125 6.484375 
Q 45.5625 -1.421875 35.59375 -1.421875 
Q 29.59375 -1.421875 25.265625 0.953125 
Q 20.953125 3.328125 18.109375 8.203125 
z
M 48.6875 27.296875 
Q 48.6875 37.203125 44.609375 42.84375 
Q 40.53125 48.484375 33.40625 48.484375 
Q 26.265625 48.484375 22.1875 42.84375 
Q 18.109375 37.203125 18.109375 27.296875 
Q 18.109375 17.390625 22.1875 11.75 
Q 26.265625 6.109375 33.40625 6.109375 
Q 40.53125 6.109375 44.609375 11.75 
Q 48.6875 17.390625 48.6875 27.296875 
z
" id="DejaVuSans-70"/>
     </defs>
     <g transform="translate(16.139531 286.001989)rotate(-90)scale(0.17 -0.17)">
      <use xlink:href="#DejaVuSans-46"/>
      <use x="57.410156" xlink:href="#DejaVuSans-72"/>
      <use x="98.523438" xlink:href="#DejaVuSans-61"/>
      <use x="159.802734" xlink:href="#DejaVuSans-63"/>
      <use x="214.783203" xlink:href="#DejaVuSans-74"/>
      <use x="253.992188" xlink:href="#DejaVuSans-69"/>
      <use x="281.775391" xlink:href="#DejaVuSans-6f"/>
      <use x="342.957031" xlink:href="#DejaVuSans-6e"/>
      <use x="406.335938" xlink:href="#DejaVuSans-20"/>
      <use x="438.123047" xlink:href="#DejaVuSans-6f"/>
      <use x="499.304688" xlink:href="#DejaVuSans-66"/>
      <use x="534.509766" xlink:href="#DejaVuSans-20"/>
      <use x="566.296875" xlink:href="#DejaVuSans-66"/>
      <use x="601.501953" xlink:href="#DejaVuSans-75"/>
      <use x="664.880859" xlink:href="#DejaVuSans-6e"/>
      <use x="728.259766" xlink:href="#DejaVuSans-63"/>
      <use x="783.240234" xlink:href="#DejaVuSans-74"/>
      <use x="822.449219" xlink:href="#DejaVuSans-69"/>
      <use x="850.232422" xlink:href="#DejaVuSans-6f"/>
      <use x="911.414062" xlink:href="#DejaVuSans-6e"/>
      <use x="974.792969" xlink:href="#DejaVuSans-2c"/>
      <use x="1006.580078" xlink:href="#DejaVuSans-74"/>
      <use x="1045.789062" xlink:href="#DejaVuSans-61"/>
      <use x="1107.068359" xlink:href="#DejaVuSans-72"/>
      <use x="1148.166016" xlink:href="#DejaVuSans-67"/>
      <use x="1211.642578" xlink:href="#DejaVuSans-65"/>
      <use x="1273.166016" xlink:href="#DejaVuSans-74"/>
      <use x="1312.375" xlink:href="#DejaVuSans-20"/>
      <use x="1344.162109" xlink:href="#DejaVuSans-70"/>
      <use x="1407.638672" xlink:href="#DejaVuSans-61"/>
      <use x="1468.917969" xlink:href="#DejaVuSans-69"/>
      <use x="1496.701172" xlink:href="#DejaVuSans-72"/>
      <use x="1537.814453" xlink:href="#DejaVuSans-73"/>
     </g>
    </g>
   </g>
   <g id="line2d_37">
    <defs>
     <path d="M 0 1.5 
C 0.397805 1.5 0.77937 1.341951 1.06066 1.06066 
C 1.341951 0.77937 1.5 0.397805 1.5 0 
C 1.5 -0.397805 1.341951 -0.77937 1.06066 -1.06066 
C 0.77937 -1.341951 0.397805 -1.5 0 -1.5 
C -0.397805 -1.5 -0.77937 -1.341951 -1.06066 -1.06066 
C -1.341951 -0.77937 -1.5 -0.397805 -1.5 0 
C -1.5 0.397805 -1.341951 0.77937 -1.06066 1.06066 
C -0.77937 1.341951 -0.397805 1.5 0 1.5 
z
" id="m7758e6cb7b" style="stroke:#000080;"/>
    </defs>
    <g>
     <use style="fill:#000080;stroke:#000080;" x="283.553312" xlink:href="#m7758e6cb7b" y="9.697057"/>
     <use style="fill:#000080;stroke:#000080;" x="283.553312" xlink:href="#m7758e6cb7b" y="9.697057"/>
    </g>
   </g>
   <g id="line2d_38">
    <path d="M 16.541714 294.88 
L 16.541714 270.835164 
L 28.455965 270.835164 
L 28.455965 265.802523 
L 35.425356 265.802523 
L 35.425356 264.684159 
L 40.370217 264.684159 
L 40.370217 263.006612 
L 49.989246 263.006612 
L 49.989246 262.44743 
L 52.284468 262.44743 
L 52.284468 261.888248 
L 54.308997 261.888248 
L 54.308997 260.769883 
L 63.08939 260.769883 
L 63.08939 259.651519 
L 64.198719 259.651519 
L 64.198719 259.092337 
L 65.240773 259.092337 
L 65.240773 258.533154 
L 68.034251 258.533154 
L 68.034251 257.41479 
L 73.817748 257.41479 
L 73.817748 256.296425 
L 75.003641 256.296425 
L 75.003641 255.737243 
L 80.372935 255.737243 
L 80.372935 255.178061 
L 84.124415 255.178061 
L 84.124415 254.618879 
L 86.917893 254.618879 
L 86.917893 253.500514 
L 88.293717 253.500514 
L 88.293717 252.941332 
L 98.100602 252.941332 
L 98.100602 252.38215 
L 98.688305 252.38215 
L 98.688305 251.822967 
L 98.974789 251.822967 
L 98.974789 250.704603 
L 99.941473 250.704603 
L 99.941473 250.145421 
L 108.20385 250.145421 
L 108.20385 249.586238 
L 133.079291 249.586238 
L 133.118312 248.467874 
L 144.964218 248.467874 
L 144.964218 247.908692 
L 145.663936 247.908692 
L 145.663936 247.34951 
L 147.815319 247.34951 
L 147.815319 246.790327 
L 152.40641 246.790327 
L 152.40641 246.231145 
L 153.470471 246.231145 
L 153.470471 245.671963 
L 159.650656 245.671963 
L 159.650656 245.112781 
L 162.406418 245.112781 
L 162.406418 244.553598 
L 163.584981 244.553598 
L 163.584981 243.994416 
L 168.533981 243.994416 
L 168.533981 243.435234 
L 169.700165 243.435234 
L 169.700165 242.876052 
L 175.718031 242.876052 
L 175.718031 242.316869 
L 176.736703 242.316869 
L 176.736703 241.757687 
L 177.284057 241.757687 
L 177.284057 241.198505 
L 179.300957 241.198505 
L 179.385682 240.08014 
L 180.268532 240.08014 
L 180.268532 239.520958 
L 180.844603 239.520958 
L 180.844603 238.961776 
L 182.396729 238.961776 
L 182.396729 238.402594 
L 182.567674 238.402594 
L 182.567674 237.843411 
L 182.979709 237.843411 
L 183.024649 236.725047 
L 183.425999 236.725047 
L 183.442694 235.606682 
L 183.810027 235.606682 
L 183.810027 235.0475 
L 184.216596 235.0475 
L 184.216596 234.488318 
L 184.334834 234.488318 
L 184.424706 233.369954 
L 184.890172 233.369954 
L 184.890172 232.810771 
L 185.213079 232.810771 
L 185.213079 232.251589 
L 185.403952 232.251589 
L 185.403952 231.692407 
L 185.747561 231.692407 
L 185.747561 231.133225 
L 186.147818 231.133225 
L 186.147818 230.574042 
L 186.48313 230.574042 
L 186.48313 230.01486 
L 186.797446 230.01486 
L 186.797446 229.455678 
L 187.369553 229.455678 
L 187.431686 228.337313 
L 188.288977 228.337313 
L 188.288977 227.778131 
L 188.667123 227.778131 
L 188.667123 227.218949 
L 189.5747 227.218949 
L 189.5747 226.659767 
L 190.103755 226.659767 
L 190.103755 226.100584 
L 190.469351 226.100584 
L 190.469351 225.541402 
L 190.958497 225.541402 
L 190.958497 224.98222 
L 191.145393 224.98222 
L 191.145393 224.423038 
L 191.379643 224.423038 
L 191.464218 223.304673 
L 192.013224 223.304673 
L 192.013224 222.745491 
L 192.356275 222.745491 
L 192.356275 222.186309 
L 193.356713 222.186309 
L 193.356713 221.627126 
L 195.00343 221.627126 
L 195.00343 221.067944 
L 196.600936 221.067944 
L 196.600936 220.508762 
L 198.472804 220.508762 
L 198.472804 219.94958 
L 205.457702 219.94958 
L 205.457702 219.390397 
L 207.068986 219.390397 
L 207.068986 218.831215 
L 208.304353 218.831215 
L 208.304353 218.272033 
L 209.451344 218.272033 
L 209.451344 217.712851 
L 210.969979 217.712851 
L 210.969979 217.153669 
L 213.007586 217.153669 
L 213.117231 216.035304 
L 213.247373 216.035304 
L 213.348182 214.91694 
L 213.548224 214.91694 
L 213.548224 214.357757 
L 214.103241 214.357757 
L 214.103241 213.798575 
L 214.2715 213.798575 
L 214.2715 213.239393 
L 215.368255 213.239393 
L 215.368255 212.680211 
L 215.53108 212.680211 
L 215.53108 212.121028 
L 215.947976 212.121028 
L 215.947976 211.561846 
L 216.453241 211.561846 
L 216.453241 211.002664 
L 216.755458 211.002664 
L 216.755458 210.443482 
L 216.940511 210.443482 
L 216.940511 209.884299 
L 218.092451 209.884299 
L 218.092451 209.325117 
L 222.41339 209.325117 
L 222.41339 208.765935 
L 224.357465 208.765935 
L 224.357465 208.206753 
L 224.473346 208.206753 
L 224.473346 207.64757 
L 224.925291 207.64757 
L 224.925291 207.088388 
L 227.491629 207.088388 
L 227.491629 206.529206 
L 227.741799 206.529206 
L 227.741799 205.970024 
L 227.952095 205.970024 
L 227.994784 204.851659 
L 228.153584 204.851659 
L 228.23209 203.733295 
L 228.329166 203.733295 
L 228.41145 202.055748 
L 228.502973 202.055748 
L 228.543712 200.937384 
L 228.621289 200.937384 
L 228.718219 197.58229 
L 228.782711 197.58229 
L 228.782711 197.023108 
L 228.992146 197.023108 
L 229.095072 195.345561 
L 229.123103 195.345561 
L 229.212087 194.227197 
L 229.276858 194.227197 
L 229.276858 193.668014 
L 229.714643 193.668014 
L 229.714643 193.108832 
L 231.463203 193.108832 
L 231.547493 191.990468 
L 231.587392 191.990468 
L 231.691179 190.312921 
L 231.714276 190.312921 
L 231.781504 188.076192 
L 231.829051 188.076192 
L 231.916668 186.398645 
L 231.979581 186.398645 
L 232.077955 182.48437 
L 232.121128 182.48437 
L 232.121128 181.925187 
L 232.245732 181.925187 
L 232.341082 179.688458 
L 232.400832 179.688458 
L 232.44278 178.010912 
L 232.529551 178.010912 
L 232.529551 177.451729 
L 234.122321 177.451729 
L 234.122321 176.892547 
L 235.759558 176.892547 
L 235.850279 175.774183 
L 235.877895 175.774183 
L 235.955911 174.096636 
L 236.033378 174.096636 
L 236.106162 170.741543 
L 236.150336 170.741543 
L 236.234769 168.504814 
L 236.263464 168.504814 
L 236.370289 164.590538 
L 236.393059 164.590538 
L 236.499179 161.235444 
L 236.514694 161.235444 
L 236.616427 155.643622 
L 236.630985 155.643622 
L 236.710649 153.406893 
L 236.75358 153.406893 
L 236.848456 151.170164 
L 239.768528 151.170164 
L 239.768528 150.610982 
L 239.903647 150.610982 
L 239.971043 149.492617 
L 241.537296 149.492617 
L 241.537296 148.933435 
L 241.673771 148.933435 
L 241.673771 148.374253 
L 241.794378 148.374253 
L 241.904239 146.137524 
L 241.933695 146.137524 
L 242.028389 143.341613 
L 242.056013 143.341613 
L 242.147981 141.664066 
L 242.172025 141.664066 
L 242.247367 138.868155 
L 242.34957 138.868155 
L 242.432063 137.190608 
L 242.527646 137.190608 
L 242.633099 134.953879 
L 242.680451 134.953879 
L 242.780052 131.039603 
L 242.799435 131.039603 
L 242.894019 128.243692 
L 242.912519 128.243692 
L 242.976625 126.006963 
L 247.767719 126.006963 
L 247.767719 125.447781 
L 249.408723 125.447781 
L 249.479257 123.770234 
L 249.530485 123.770234 
L 249.630291 119.296776 
L 249.656663 119.296776 
L 249.75825 115.941683 
L 249.783108 115.941683 
L 249.792624 114.823318 
L 252.128139 114.823318 
L 252.128139 114.264136 
L 253.517674 114.264136 
L 253.624768 106.994767 
L 253.630375 106.994767 
L 253.731357 100.843762 
L 254.983096 100.843762 
L 255.026834 99.725398 
L 255.244541 99.725398 
L 255.336384 93.574393 
L 255.371866 93.574393 
L 255.472714 87.982571 
L 255.483777 87.982571 
L 255.502322 86.305024 
L 255.866725 86.305024 
L 255.866725 85.745842 
L 257.405054 85.745842 
L 257.511206 81.831566 
L 257.52235 81.831566 
L 257.632809 74.562197 
L 257.637543 74.562197 
L 257.648341 72.88465 
L 260.678906 72.88465 
L 260.788773 63.378552 
L 260.800519 63.378552 
L 260.847411 58.905094 
L 262.417326 58.905094 
L 262.516592 50.517361 
L 262.535278 50.517361 
L 262.554884 48.280632 
L 264.963632 48.280632 
L 265.072636 38.215351 
L 265.077756 38.215351 
L 265.077756 37.656169 
L 271.128407 37.656169 
L 271.207913 23.117431 
L 273.574949 23.117431 
L 273.574949 22.558249 
L 283.516335 22.558249 
L 283.553312 9.697057 
L 333.168 9.697057 
L 333.168 9.697057 
" style="fill:none;stroke:#000080;stroke-linecap:square;stroke-width:1.5;"/>
   </g>
   <g id="line2d_39">
    <defs>
     <path d="M 0 6 
C 1.591219 6 3.117479 5.367802 4.242641 4.242641 
C 5.367802 3.117479 6 1.591219 6 0 
C 6 -1.591219 5.367802 -3.117479 4.242641 -4.242641 
C 3.117479 -5.367802 1.591219 -6 0 -6 
C -1.591219 -6 -3.117479 -5.367802 -4.242641 -4.242641 
C -5.367802 -3.117479 -6 -1.591219 -6 0 
C -6 1.591219 -5.367802 3.117479 -4.242641 4.242641 
C -3.117479 5.367802 -1.591219 6 0 6 
z
" id="m18aac02c8b" style="stroke:#000080;stroke-width:1.5;"/>
    </defs>
    <g>
     <use style="fill-opacity:0;stroke:#000080;stroke-width:1.5;" x="108.20385" xlink:href="#m18aac02c8b" y="250.145421"/>
     <use style="fill-opacity:0;stroke:#000080;stroke-width:1.5;" x="218.092451" xlink:href="#m18aac02c8b" y="209.884299"/>
     <use style="fill-opacity:0;stroke:#000080;stroke-width:1.5;" x="255.280102" xlink:href="#m18aac02c8b" y="97.488669"/>
     <use style="fill-opacity:0;stroke:#000080;stroke-width:1.5;" x="283.553312" xlink:href="#m18aac02c8b" y="9.697057"/>
     <use style="fill-opacity:0;stroke:#000080;stroke-width:1.5;" x="283.553312" xlink:href="#m18aac02c8b" y="9.697057"/>
     <use style="fill-opacity:0;stroke:#000080;stroke-width:1.5;" x="333.168" xlink:href="#m18aac02c8b" y="9.697057"/>
    </g>
   </g>
   <g id="line2d_40">
    <path style="fill:none;stroke:#000080;stroke-linecap:square;stroke-width:1.5;"/>
    <g/>
   </g>
   <g id="line2d_41">
    <defs>
     <path d="M 0 1.5 
C 0.397805 1.5 0.77937 1.341951 1.06066 1.06066 
C 1.341951 0.77937 1.5 0.397805 1.5 0 
C 1.5 -0.397805 1.341951 -0.77937 1.06066 -1.06066 
C 0.77937 -1.341951 0.397805 -1.5 0 -1.5 
C -0.397805 -1.5 -0.77937 -1.341951 -1.06066 -1.06066 
C -1.341951 -0.77937 -1.5 -0.397805 -1.5 0 
C -1.5 0.397805 -1.341951 0.77937 -1.06066 1.06066 
C -0.77937 1.341951 -0.397805 1.5 0 1.5 
z
" id="mdcbfc2d450" style="stroke:#ff00ff;"/>
    </defs>
    <g>
     <use style="fill:#ff00ff;stroke:#ff00ff;" x="265.317269" xlink:href="#mdcbfc2d450" y="9.697057"/>
     <use style="fill:#ff00ff;stroke:#ff00ff;" x="265.317269" xlink:href="#mdcbfc2d450" y="9.697057"/>
    </g>
   </g>
   <g id="line2d_42">
    <path d="M 16.541714 294.88 
L 16.541714 289.288178 
L 47.339607 289.288178 
L 47.339607 288.728995 
L 64.198719 288.728995 
L 64.198719 288.169813 
L 80.372935 288.169813 
L 80.372935 287.610631 
L 88.027221 287.610631 
L 88.027221 287.051449 
L 88.556144 287.051449 
L 88.556144 286.492266 
L 88.814625 286.492266 
L 88.814625 285.933084 
L 89.320209 285.933084 
L 89.320209 285.373902 
L 94.996612 285.373902 
L 94.996612 284.81472 
L 98.543252 284.81472 
L 98.543252 284.255537 
L 104.409787 284.255537 
L 104.409787 283.696355 
L 107.000154 283.696355 
L 107.000154 283.137173 
L 108.532829 283.137173 
L 108.532829 282.577991 
L 108.694987 282.577991 
L 108.694987 282.018808 
L 109.789179 282.018808 
L 109.789179 281.459626 
L 111.030511 281.459626 
L 111.100812 280.341262 
L 111.788449 280.341262 
L 111.788449 279.782079 
L 111.989488 279.782079 
L 111.989488 279.222897 
L 112.188203 279.222897 
L 112.188203 278.663715 
L 113.639848 278.663715 
L 113.639848 278.104533 
L 113.760471 278.104533 
L 113.760471 277.545351 
L 114.809594 277.545351 
L 114.866043 276.426986 
L 114.922307 276.426986 
L 114.922307 275.308622 
L 116.478659 275.308622 
L 116.478659 274.749439 
L 116.682681 274.749439 
L 116.682681 273.631075 
L 117.329507 273.631075 
L 117.329507 272.51271 
L 117.571946 272.51271 
L 117.571946 271.953528 
L 118.508888 271.953528 
L 118.508888 271.394346 
L 118.825114 271.394346 
L 118.825114 270.835164 
L 120.769881 270.835164 
L 120.769881 270.275981 
L 121.20406 270.275981 
L 121.20406 269.716799 
L 121.320594 269.716799 
L 121.320594 268.598435 
L 121.627542 268.598435 
L 121.627542 268.039252 
L 122.55288 268.039252 
L 122.55288 267.48007 
L 122.874172 267.48007 
L 122.874172 266.920888 
L 123.668964 266.920888 
L 123.668964 266.361706 
L 124.460903 266.361706 
L 124.460903 265.802523 
L 125.584335 265.802523 
L 125.584335 265.243341 
L 126.352339 265.243341 
L 126.438787 264.124977 
L 126.780294 264.124977 
L 126.836558 263.006612 
L 128.39291 263.006612 
L 128.39291 262.44743 
L 128.546153 262.44743 
L 128.546153 261.888248 
L 129.365405 261.888248 
L 129.365405 261.329066 
L 129.937618 261.329066 
L 129.937618 260.769883 
L 130.17053 260.769883 
L 130.17053 260.210701 
L 130.739365 260.210701 
L 130.739365 259.651519 
L 131.548134 259.651519 
L 131.654565 258.533154 
L 131.781419 258.533154 
L 131.781419 257.41479 
L 131.990784 257.41479 
L 131.990784 256.296425 
L 133.312097 256.296425 
L 133.312097 255.737243 
L 134.029181 255.737243 
L 134.029181 255.178061 
L 136.67882 255.178061 
L 136.67882 254.618879 
L 138.52464 254.618879 
L 138.52464 254.059696 
L 139.043211 254.059696 
L 139.043211 253.500514 
L 140.825197 253.500514 
L 140.825197 252.38215 
L 144.638311 252.38215 
L 144.638311 251.822967 
L 146.69383 251.822967 
L 146.69383 251.263785 
L 147.640391 251.263785 
L 147.640391 250.704603 
L 147.972068 250.704603 
L 147.972068 250.145421 
L 150.453114 250.145421 
L 150.453114 249.586238 
L 152.124937 249.586238 
L 152.124937 249.027056 
L 152.317349 249.027056 
L 152.317349 248.467874 
L 152.60826 248.467874 
L 152.60826 247.908692 
L 154.894858 247.908692 
L 154.894858 247.34951 
L 156.04668 247.34951 
L 156.04668 246.790327 
L 156.656932 246.790327 
L 156.656932 246.231145 
L 157.231888 246.231145 
L 157.231888 245.671963 
L 157.829937 245.671963 
L 157.829937 245.112781 
L 157.945251 245.112781 
L 157.945251 244.553598 
L 158.128159 244.553598 
L 158.128159 243.994416 
L 158.805983 243.994416 
L 158.805983 243.435234 
L 161.129603 243.435234 
L 161.129603 242.876052 
L 161.898981 242.876052 
L 161.898981 241.757687 
L 162.385128 241.757687 
L 162.385128 241.198505 
L 162.554719 241.198505 
L 162.586332 240.08014 
L 162.708721 240.08014 
L 162.708721 238.961776 
L 162.882065 238.961776 
L 162.882065 238.402594 
L 163.121847 238.402594 
L 163.121847 237.843411 
L 163.62467 237.843411 
L 163.62467 237.284229 
L 163.825017 237.284229 
L 163.825017 236.725047 
L 164.34919 236.725047 
L 164.34919 236.165865 
L 164.566352 236.165865 
L 164.566352 235.606682 
L 164.706516 235.606682 
L 164.706516 235.0475 
L 164.894709 235.0475 
L 164.894709 234.488318 
L 168.331686 234.488318 
L 168.331686 233.369954 
L 168.73883 233.369954 
L 168.73883 232.810771 
L 168.960653 232.810771 
L 168.996944 231.133225 
L 169.618774 231.133225 
L 169.618774 230.574042 
L 171.38917 230.574042 
L 171.38917 230.01486 
L 171.629312 230.01486 
L 171.629312 229.455678 
L 174.005733 229.455678 
L 174.005733 228.337313 
L 178.13136 228.337313 
L 178.13136 227.778131 
L 179.565655 227.778131 
L 179.565655 227.218949 
L 179.702327 227.218949 
L 179.702327 226.659767 
L 183.925001 226.659767 
L 183.925001 226.100584 
L 184.976239 226.100584 
L 185.053333 224.98222 
L 185.616639 224.98222 
L 185.616639 224.423038 
L 185.783094 224.423038 
L 185.783094 223.863855 
L 186.019023 223.863855 
L 186.019023 222.745491 
L 186.352431 222.745491 
L 186.456019 220.508762 
L 187.088411 220.508762 
L 187.114543 219.390397 
L 187.202761 219.390397 
L 187.291363 218.272033 
L 187.331334 218.272033 
L 187.331334 216.594486 
L 187.764995 216.594486 
L 187.764995 214.357757 
L 188.019395 214.357757 
L 188.019395 213.798575 
L 188.236976 213.798575 
L 188.236976 213.239393 
L 188.389381 213.239393 
L 188.473642 212.121028 
L 188.600039 212.121028 
L 188.637854 211.002664 
L 189.092025 211.002664 
L 189.137013 209.884299 
L 189.234831 209.884299 
L 189.253435 207.64757 
L 189.369813 207.64757 
L 189.421448 206.529206 
L 189.620629 206.529206 
L 189.71574 205.410841 
L 189.751181 205.410841 
L 189.840544 203.733295 
L 190.064069 203.733295 
L 190.151824 200.378201 
L 190.317614 200.378201 
L 190.317614 199.819019 
L 190.598451 199.819019 
L 190.682158 198.141472 
L 190.72659 198.141472 
L 190.72659 197.023108 
L 194.961326 197.023108 
L 194.961326 196.463926 
L 195.629072 196.463926 
L 195.693113 195.345561 
L 195.772192 195.345561 
L 195.772192 193.108832 
L 196.025339 193.108832 
L 196.025339 192.54965 
L 196.194042 192.54965 
L 196.196525 190.872103 
L 196.479241 190.872103 
L 196.479241 189.753739 
L 196.636309 189.753739 
L 196.698158 188.076192 
L 196.825501 188.076192 
L 196.924321 186.957828 
L 196.999842 186.957828 
L 197.06276 184.721099 
L 197.20665 184.721099 
L 197.20665 183.602734 
L 197.347952 183.602734 
L 197.371622 181.366005 
L 197.464131 181.366005 
L 197.526754 178.570094 
L 197.727809 178.570094 
L 197.727809 178.010912 
L 197.909467 178.010912 
L 197.909467 177.451729 
L 198.271084 177.451729 
L 198.271084 176.333365 
L 198.486284 176.333365 
L 198.486284 175.774183 
L 198.647656 175.774183 
L 198.756684 171.859907 
L 199.05783 171.859907 
L 199.058671 169.623178 
L 199.494144 169.623178 
L 199.591836 166.827267 
L 199.733501 166.827267 
L 199.733501 165.708902 
L 199.981528 165.708902 
L 200.024905 164.590538 
L 200.145702 164.590538 
L 200.205194 163.472173 
L 204.053701 163.472173 
L 204.053701 162.912991 
L 204.31951 162.912991 
L 204.343331 161.794627 
L 204.468084 161.794627 
L 204.540365 159.557898 
L 204.602296 159.557898 
L 204.653988 157.321169 
L 204.870014 157.321169 
L 204.870014 155.643622 
L 205.005301 155.643622 
L 205.071214 153.966075 
L 205.166959 153.966075 
L 205.27155 150.0518 
L 205.377837 150.0518 
L 205.377837 147.815071 
L 205.653036 147.815071 
L 205.730495 146.137524 
L 207.137443 146.137524 
L 207.14296 144.459977 
L 207.289439 144.459977 
L 207.36688 141.664066 
L 207.414006 141.664066 
L 207.503498 139.986519 
L 207.692805 139.986519 
L 207.692805 139.427337 
L 207.80666 139.427337 
L 207.82005 134.394697 
L 208.146247 134.394697 
L 208.224125 131.039603 
L 208.414485 131.039603 
L 208.473908 128.802874 
L 212.122985 128.802874 
L 212.206538 125.447781 
L 212.250701 125.447781 
L 212.250701 124.888599 
L 212.393158 124.888599 
L 212.463851 122.65187 
L 212.507165 122.65187 
L 212.560724 120.415141 
L 212.664867 120.415141 
L 212.716988 118.178412 
L 212.847168 118.178412 
L 212.948659 112.586589 
L 213.015241 112.586589 
L 213.015241 112.027407 
L 214.52725 112.027407 
L 214.581015 110.349861 
L 214.674149 110.349861 
L 214.747889 108.672314 
L 214.798109 108.672314 
L 214.897273 105.876403 
L 214.996533 105.876403 
L 215.102334 103.080491 
L 215.125299 103.080491 
L 215.133717 100.843762 
L 215.24819 100.843762 
L 215.281107 98.607033 
L 215.37265 98.607033 
L 215.420105 96.929487 
L 215.506068 96.929487 
L 215.605899 94.133576 
L 215.677995 94.133576 
L 215.781126 87.423389 
L 215.906691 87.423389 
L 215.906691 84.627477 
L 216.04074 84.627477 
L 216.111351 82.390748 
L 231.523152 82.390748 
L 231.627642 77.358108 
L 231.665906 77.358108 
L 231.731061 70.647921 
L 231.80104 70.647921 
L 231.832362 66.174463 
L 232.752901 66.174463 
L 232.825394 61.141823 
L 232.892767 61.141823 
L 233.003345 53.872454 
L 233.006612 53.872454 
L 233.060607 52.194907 
L 240.857917 52.194907 
L 240.924662 48.280632 
L 240.971046 48.280632 
L 241.041631 39.892898 
L 244.426939 39.892898 
L 244.532375 28.150071 
L 244.544663 28.150071 
L 244.574928 24.235795 
L 265.275708 24.235795 
L 265.317269 9.697057 
L 333.168 9.697057 
L 333.168 9.697057 
" style="fill:none;stroke:#ff00ff;stroke-linecap:square;stroke-width:1.5;"/>
   </g>
   <g id="line2d_43">
    <defs>
     <path d="M -0 8.485281 
L 5.091169 0 
L 0 -8.485281 
L -5.091169 -0 
z
" id="m6167ca72eb" style="stroke:#ff00ff;stroke-linejoin:miter;stroke-width:1.5;"/>
    </defs>
    <g>
     <use style="fill-opacity:0;stroke:#ff00ff;stroke-linejoin:miter;stroke-width:1.5;" x="120.769881" xlink:href="#m6167ca72eb" y="270.835164"/>
     <use style="fill-opacity:0;stroke:#ff00ff;stroke-linejoin:miter;stroke-width:1.5;" x="198.486284" xlink:href="#m6167ca72eb" y="175.774183"/>
     <use style="fill-opacity:0;stroke:#ff00ff;stroke-linejoin:miter;stroke-width:1.5;" x="240.906876" xlink:href="#m6167ca72eb" y="49.958178"/>
     <use style="fill-opacity:0;stroke:#ff00ff;stroke-linejoin:miter;stroke-width:1.5;" x="265.317269" xlink:href="#m6167ca72eb" y="9.697057"/>
     <use style="fill-opacity:0;stroke:#ff00ff;stroke-linejoin:miter;stroke-width:1.5;" x="265.317269" xlink:href="#m6167ca72eb" y="9.697057"/>
     <use style="fill-opacity:0;stroke:#ff00ff;stroke-linejoin:miter;stroke-width:1.5;" x="333.168" xlink:href="#m6167ca72eb" y="9.697057"/>
    </g>
   </g>
   <g id="line2d_44">
    <path style="fill:none;stroke:#ff00ff;stroke-linecap:square;stroke-width:1.5;"/>
    <g/>
   </g>
   <g id="line2d_45">
    <defs>
     <path d="M 0 1.5 
C 0.397805 1.5 0.77937 1.341951 1.06066 1.06066 
C 1.341951 0.77937 1.5 0.397805 1.5 0 
C 1.5 -0.397805 1.341951 -0.77937 1.06066 -1.06066 
C 0.77937 -1.341951 0.397805 -1.5 0 -1.5 
C -0.397805 -1.5 -0.77937 -1.341951 -1.06066 -1.06066 
C -1.341951 -0.77937 -1.5 -0.397805 -1.5 0 
C -1.5 0.397805 -1.341951 0.77937 -1.06066 1.06066 
C -0.77937 1.341951 -0.397805 1.5 0 1.5 
z
" id="m891f7c2aab" style="stroke:#ff7500;"/>
    </defs>
    <g>
     <use style="fill:#ff7500;stroke:#ff7500;" x="207.987674" xlink:href="#m891f7c2aab" y="9.697057"/>
     <use style="fill:#ff7500;stroke:#ff7500;" x="207.987674" xlink:href="#m891f7c2aab" y="9.697057"/>
    </g>
   </g>
   <g id="line2d_46">
    <path d="M 16.541714 294.88 
L 16.541714 289.288178 
L 49.989246 289.288178 
L 49.989246 288.728995 
L 54.308997 288.728995 
L 54.308997 288.169813 
L 63.08939 288.169813 
L 63.08939 287.051449 
L 73.192638 287.051449 
L 73.192638 286.492266 
L 76.641893 286.492266 
L 76.641893 285.933084 
L 80.372935 285.933084 
L 80.372935 285.373902 
L 86.036231 285.373902 
L 86.036231 284.81472 
L 86.335171 284.81472 
L 86.335171 284.255537 
L 95.525534 284.255537 
L 95.525534 283.137173 
L 95.698286 283.137173 
L 95.698286 282.577991 
L 99.806659 282.577991 
L 99.806659 282.018808 
L 100.856673 282.018808 
L 100.856673 281.459626 
L 104.819059 281.459626 
L 104.819059 280.900444 
L 105.119742 280.900444 
L 105.119742 280.341262 
L 105.317315 280.341262 
L 105.317315 279.782079 
L 107.952917 279.782079 
L 107.952917 278.663715 
L 108.451173 278.663715 
L 108.451173 278.104533 
L 110.163674 278.104533 
L 110.163674 277.545351 
L 111.100812 277.545351 
L 111.100812 276.986168 
L 111.448069 276.986168 
L 111.448069 276.426986 
L 111.989488 276.426986 
L 111.989488 275.308622 
L 113.639848 275.308622 
L 113.639848 274.190257 
L 114.978388 274.190257 
L 114.978388 273.631075 
L 116.220179 273.631075 
L 116.220179 273.071893 
L 116.375733 273.071893 
L 116.375733 272.51271 
L 119.697821 272.51271 
L 119.697821 271.953528 
L 120.729861 271.953528 
L 120.729861 271.394346 
L 120.968596 271.394346 
L 120.968596 270.835164 
L 121.359263 270.835164 
L 121.359263 269.716799 
L 122.04084 269.716799 
L 122.04084 269.157617 
L 122.55288 269.157617 
L 122.55288 268.598435 
L 123.499282 268.598435 
L 123.499282 268.039252 
L 125.187069 268.039252 
L 125.248787 265.802523 
L 125.340952 265.802523 
L 125.340952 265.243341 
L 127.087492 265.243341 
L 127.087492 264.684159 
L 127.225332 264.684159 
L 127.225332 264.124977 
L 127.739271 264.124977 
L 127.739271 263.006612 
L 128.13443 263.006612 
L 128.13443 261.888248 
L 129.867125 261.888248 
L 129.867125 261.329066 
L 130.445921 261.329066 
L 130.445921 260.769883 
L 130.67209 260.769883 
L 130.67209 259.651519 
L 130.917487 259.651519 
L 130.917487 258.533154 
L 131.049878 258.533154 
L 131.115693 257.41479 
L 131.760342 257.41479 
L 131.760342 256.855608 
L 131.990784 256.855608 
L 131.990784 255.737243 
L 132.177056 255.737243 
L 132.177056 255.178061 
L 133.059747 255.178061 
L 133.098812 252.941332 
L 133.465568 252.941332 
L 133.465568 252.38215 
L 133.6555 252.38215 
L 133.6555 251.822967 
L 133.824662 251.822967 
L 133.824662 251.263785 
L 134.194722 251.263785 
L 134.194722 250.704603 
L 134.964358 250.704603 
L 134.964358 250.145421 
L 135.138509 250.145421 
L 135.138509 249.586238 
L 135.32806 249.586238 
L 135.32806 248.467874 
L 135.515543 248.467874 
L 135.515543 247.908692 
L 135.751238 247.908692 
L 135.767951 246.790327 
L 136.066027 246.790327 
L 136.13157 245.671963 
L 136.326713 245.671963 
L 136.326713 245.112781 
L 136.757848 245.112781 
L 136.82081 243.994416 
L 137.11677 243.994416 
L 137.11677 243.435234 
L 137.301101 243.435234 
L 137.301101 242.876052 
L 137.468351 242.876052 
L 137.468351 242.316869 
L 137.603992 242.316869 
L 137.603992 239.520958 
L 138.04855 239.520958 
L 138.04855 238.961776 
L 138.510405 238.961776 
L 138.510405 238.402594 
L 138.623956 238.402594 
L 138.623956 237.843411 
L 139.125849 237.843411 
L 139.139583 236.165865 
L 139.289942 236.165865 
L 139.289942 235.606682 
L 139.411992 235.606682 
L 139.411992 235.0475 
L 140.268636 235.0475 
L 140.294329 232.810771 
L 141.121347 232.810771 
L 141.170213 231.692407 
L 141.686932 231.692407 
L 141.686932 231.133225 
L 141.828403 231.133225 
L 141.828403 230.574042 
L 141.96872 230.574042 
L 142.07321 228.896496 
L 142.154044 228.896496 
L 142.154044 228.337313 
L 142.518803 228.337313 
L 142.518803 227.218949 
L 142.675983 227.218949 
L 142.675983 226.659767 
L 143.008034 226.659767 
L 143.008034 226.100584 
L 143.22589 226.100584 
L 143.312265 221.627126 
L 144.457904 221.627126 
L 144.568377 219.94958 
L 144.588387 219.94958 
L 144.638311 218.831215 
L 144.747635 218.831215 
L 144.747635 218.272033 
L 145.4275 218.272033 
L 145.4275 217.712851 
L 145.635734 217.712851 
L 145.692091 215.476122 
L 145.822874 215.476122 
L 145.822874 214.91694 
L 146.254795 214.91694 
L 146.363355 212.680211 
L 146.799661 212.680211 
L 146.799661 212.121028 
L 147.035425 212.121028 
L 147.061422 211.002664 
L 147.657127 211.002664 
L 147.765521 207.64757 
L 147.807029 207.64757 
L 147.807029 207.088388 
L 147.922722 207.088388 
L 147.930956 204.851659 
L 148.119259 204.851659 
L 148.119259 204.292477 
L 148.265202 204.292477 
L 148.265202 203.733295 
L 148.561358 203.733295 
L 148.561358 202.61493 
L 148.742915 202.61493 
L 148.742915 202.055748 
L 148.922576 202.055748 
L 148.922576 201.496566 
L 149.046458 201.496566 
L 149.131112 200.378201 
L 149.314378 200.378201 
L 149.314378 199.819019 
L 149.503224 199.819019 
L 149.533248 198.700655 
L 149.645373 198.700655 
L 149.690019 197.58229 
L 150.028504 197.58229 
L 150.122968 196.463926 
L 150.281655 196.463926 
L 150.288834 195.345561 
L 150.474427 195.345561 
L 150.516973 193.108832 
L 150.58765 193.108832 
L 150.608797 191.990468 
L 150.714141 191.990468 
L 150.714141 191.431285 
L 150.936741 191.431285 
L 150.936741 189.753739 
L 151.467548 189.753739 
L 151.467548 189.194556 
L 151.832219 189.194556 
L 151.923823 187.51701 
L 152.040885 187.51701 
L 152.144276 184.721099 
L 152.176458 184.721099 
L 152.176458 184.161916 
L 152.425434 184.161916 
L 152.425434 182.48437 
L 152.68959 182.48437 
L 152.739448 180.247641 
L 152.931294 180.247641 
L 152.931294 179.129276 
L 153.248369 179.129276 
L 153.296635 178.010912 
L 153.488354 178.010912 
L 153.488354 177.451729 
L 153.618931 177.451729 
L 153.677958 175.774183 
L 153.859664 175.774183 
L 153.859664 175.215 
L 153.975883 175.215 
L 153.987461 173.537454 
L 154.217413 173.537454 
L 154.302858 171.859907 
L 154.342587 171.859907 
L 154.382225 170.18236 
L 154.483733 170.18236 
L 154.483733 169.623178 
L 154.657159 169.623178 
L 154.657159 168.504814 
L 154.790233 168.504814 
L 154.790233 167.945631 
L 155.06964 167.945631 
L 155.16718 166.827267 
L 155.328526 166.827267 
L 155.408635 165.14972 
L 155.541325 165.14972 
L 155.583571 164.031356 
L 156.067204 164.031356 
L 156.067204 163.472173 
L 156.225437 163.472173 
L 156.271104 162.353809 
L 156.417434 162.353809 
L 156.417434 161.235444 
L 156.696525 161.235444 
L 156.696525 160.676262 
L 156.849095 160.676262 
L 156.849095 160.11708 
L 157.231888 160.11708 
L 157.231888 159.557898 
L 157.365541 159.557898 
L 157.427243 158.439533 
L 157.981989 158.439533 
L 157.981989 157.880351 
L 158.372038 157.880351 
L 158.416823 156.761987 
L 158.687516 156.761987 
L 158.687516 156.202804 
L 158.880156 156.202804 
L 158.880156 155.643622 
L 159.169411 155.643622 
L 159.169411 155.08444 
L 159.360989 155.08444 
L 159.360989 154.525258 
L 159.563012 154.525258 
L 159.563012 153.966075 
L 159.865775 153.966075 
L 159.878104 152.847711 
L 160.247941 152.847711 
L 160.247941 152.288529 
L 160.5192 152.288529 
L 160.523157 151.170164 
L 161.593119 151.170164 
L 161.593119 150.610982 
L 162.000948 150.610982 
L 162.098704 149.492617 
L 162.367365 149.492617 
L 162.367365 148.374253 
L 162.551203 148.374253 
L 162.551203 147.255888 
L 162.830245 147.255888 
L 162.830245 146.696706 
L 162.94748 146.696706 
L 162.94748 146.137524 
L 163.733345 146.137524 
L 163.733345 145.019159 
L 163.968094 145.019159 
L 163.968094 144.459977 
L 165.138437 144.459977 
L 165.138437 143.341613 
L 165.384722 143.341613 
L 165.494706 142.223248 
L 165.835028 142.223248 
L 165.835028 141.664066 
L 166.028566 141.664066 
L 166.028566 140.545702 
L 166.248333 140.545702 
L 166.248333 139.986519 
L 166.397984 139.986519 
L 166.397984 139.427337 
L 166.828312 139.427337 
L 166.828312 137.74979 
L 167.186478 137.74979 
L 167.186478 136.631426 
L 167.579378 136.631426 
L 167.579378 135.513061 
L 167.826926 135.513061 
L 167.826926 134.953879 
L 168.200551 134.953879 
L 168.200551 133.835515 
L 168.31912 133.835515 
L 168.31912 132.157968 
L 168.758446 132.157968 
L 168.814718 131.039603 
L 168.878109 131.039603 
L 168.895136 129.921239 
L 169.114964 129.921239 
L 169.114964 129.362057 
L 169.355701 129.362057 
L 169.450119 127.68451 
L 170.573125 127.68451 
L 170.573125 127.125328 
L 170.737715 127.125328 
L 170.737715 126.566145 
L 171.152023 126.566145 
L 171.152023 126.006963 
L 171.277357 126.006963 
L 171.277357 124.329417 
L 171.558662 124.329417 
L 171.558662 123.770234 
L 171.855915 123.770234 
L 171.855915 122.092688 
L 172.459157 122.092688 
L 172.480879 120.974323 
L 172.68295 120.974323 
L 172.776314 119.855959 
L 172.907717 119.855959 
L 172.907717 119.296776 
L 173.314815 119.296776 
L 173.314815 118.178412 
L 173.48877 118.178412 
L 173.494352 117.060047 
L 173.76019 117.060047 
L 173.798616 115.941683 
L 176.647114 115.941683 
L 176.749024 114.264136 
L 177.457778 114.264136 
L 177.487299 112.586589 
L 178.417339 112.586589 
L 178.417339 112.027407 
L 178.537073 112.027407 
L 178.537073 111.468225 
L 178.774066 111.468225 
L 178.774066 110.909043 
L 179.040204 110.909043 
L 179.055019 109.790678 
L 179.397563 109.790678 
L 179.441057 108.672314 
L 179.586552 108.672314 
L 179.586552 108.113132 
L 179.717878 108.113132 
L 179.777358 106.994767 
L 179.841779 106.994767 
L 179.925166 105.31722 
L 180.05902 105.31722 
L 180.150206 103.639674 
L 180.353624 103.639674 
L 180.353624 101.962127 
L 180.518847 101.962127 
L 180.611322 100.843762 
L 180.692291 100.843762 
L 180.760694 99.725398 
L 181.035215 99.725398 
L 181.035215 98.047851 
L 181.152389 98.047851 
L 181.245082 95.25194 
L 181.471143 95.25194 
L 181.491016 92.456029 
L 181.626012 92.456029 
L 181.720805 89.100935 
L 181.815078 89.100935 
L 181.815078 88.541753 
L 182.073387 88.541753 
L 182.073387 87.982571 
L 182.197176 87.982571 
L 182.238615 86.864206 
L 182.408917 86.864206 
L 182.496194 85.18666 
L 182.7141 85.18666 
L 182.7141 84.068295 
L 183.047075 84.068295 
L 183.047075 82.949931 
L 183.24866 82.949931 
L 183.24866 82.390748 
L 183.469789 82.390748 
L 183.469789 80.713202 
L 183.771189 80.713202 
L 183.771189 80.15402 
L 184.133644 80.15402 
L 184.133644 79.594837 
L 184.259415 79.594837 
L 184.259415 79.035655 
L 184.415838 79.035655 
L 184.443411 77.917291 
L 184.79114 77.917291 
L 184.79114 77.358108 
L 185.119681 77.358108 
L 185.119681 75.680562 
L 185.372286 75.680562 
L 185.372286 74.562197 
L 185.69092 74.562197 
L 185.69092 73.443833 
L 185.833989 73.443833 
L 185.847595 71.766286 
L 186.045039 71.766286 
L 186.154054 70.647921 
L 186.290684 70.647921 
L 186.312762 69.529557 
L 186.485751 69.529557 
L 186.485751 68.970375 
L 186.676902 68.970375 
L 186.676902 67.85201 
L 186.799162 67.85201 
L 186.88901 65.056099 
L 192.944666 65.056099 
L 192.944666 62.81937 
L 193.243275 62.81937 
L 193.243275 60.582641 
L 193.498481 60.582641 
L 193.498481 60.023459 
L 193.696622 60.023459 
L 193.771698 58.345912 
L 193.904992 58.345912 
L 193.904992 57.78673 
L 194.036135 57.78673 
L 194.088425 53.872454 
L 194.171313 53.872454 
L 194.171313 53.313272 
L 194.291572 53.313272 
L 194.366309 49.958178 
L 194.581499 49.958178 
L 194.687008 47.162267 
L 194.721133 47.162267 
L 194.743844 45.484721 
L 194.855883 45.484721 
L 194.855883 44.925538 
L 195.092096 44.925538 
L 195.101096 43.247992 
L 195.219775 43.247992 
L 195.307335 41.570445 
L 195.386123 41.570445 
L 195.386123 41.011263 
L 195.534885 41.011263 
L 195.596191 38.774534 
L 195.973598 38.774534 
L 195.973598 38.215351 
L 196.100412 38.215351 
L 196.135832 37.096987 
L 199.198526 37.096987 
L 199.200194 32.064347 
L 199.507256 32.064347 
L 199.598356 28.150071 
L 200.041987 28.150071 
L 200.089172 24.794978 
L 200.533208 24.794978 
L 200.632859 22.558249 
L 207.024078 22.558249 
L 207.080854 21.439884 
L 207.176027 21.439884 
L 207.269372 19.203155 
L 207.377508 19.203155 
L 207.484453 16.407244 
L 207.518668 16.407244 
L 207.518668 15.848062 
L 207.64848 15.848062 
L 207.749447 12.492968 
L 207.848059 12.492968 
L 207.848059 11.374604 
L 207.987674 11.374604 
L 207.987674 9.697057 
L 333.168 9.697057 
L 333.168 9.697057 
" style="fill:none;stroke:#ff7500;stroke-linecap:square;stroke-width:1.5;"/>
   </g>
   <g id="line2d_47">
    <defs>
     <path d="M 0 -6 
L -1.347084 -1.854102 
L -5.706339 -1.854102 
L -2.179628 0.708204 
L -3.526712 4.854102 
L -0 2.291796 
L 3.526712 4.854102 
L 2.179628 0.708204 
L 5.706339 -1.854102 
L 1.347084 -1.854102 
z
" id="mb3f8e0e11e" style="stroke:#ff7500;stroke-linejoin:bevel;stroke-width:1.5;"/>
    </defs>
    <g>
     <use style="fill-opacity:0;stroke:#ff7500;stroke-linejoin:bevel;stroke-width:1.5;" x="86.335171" xlink:href="#mb3f8e0e11e" y="284.255537"/>
     <use style="fill-opacity:0;stroke:#ff7500;stroke-linejoin:bevel;stroke-width:1.5;" x="147.930956" xlink:href="#mb3f8e0e11e" y="205.410841"/>
     <use style="fill-opacity:0;stroke:#ff7500;stroke-linejoin:bevel;stroke-width:1.5;" x="186.88901" xlink:href="#mb3f8e0e11e" y="65.056099"/>
     <use style="fill-opacity:0;stroke:#ff7500;stroke-linejoin:bevel;stroke-width:1.5;" x="207.987674" xlink:href="#mb3f8e0e11e" y="11.374604"/>
     <use style="fill-opacity:0;stroke:#ff7500;stroke-linejoin:bevel;stroke-width:1.5;" x="207.987674" xlink:href="#mb3f8e0e11e" y="9.697057"/>
     <use style="fill-opacity:0;stroke:#ff7500;stroke-linejoin:bevel;stroke-width:1.5;" x="333.168" xlink:href="#mb3f8e0e11e" y="9.697057"/>
    </g>
   </g>
   <g id="line2d_48">
    <path style="fill:none;stroke:#ff7500;stroke-linecap:square;stroke-width:1.5;"/>
    <g/>
   </g>
   <g id="line2d_49">
    <defs>
     <path d="M 0 1.5 
C 0.397805 1.5 0.77937 1.341951 1.06066 1.06066 
C 1.341951 0.77937 1.5 0.397805 1.5 0 
C 1.5 -0.397805 1.341951 -0.77937 1.06066 -1.06066 
C 0.77937 -1.341951 0.397805 -1.5 0 -1.5 
C -0.397805 -1.5 -0.77937 -1.341951 -1.06066 -1.06066 
C -1.341951 -0.77937 -1.5 -0.397805 -1.5 0 
C -1.5 0.397805 -1.341951 0.77937 -1.06066 1.06066 
C -0.77937 1.341951 -0.397805 1.5 0 1.5 
z
" id="m58af635de8" style="stroke:#6495ed;"/>
    </defs>
    <g>
     <use style="fill:#6495ed;stroke:#6495ed;" x="293.533917" xlink:href="#m58af635de8" y="9.697057"/>
     <use style="fill:#6495ed;stroke:#6495ed;" x="293.533917" xlink:href="#m58af635de8" y="9.697057"/>
    </g>
   </g>
   <g id="line2d_50">
    <path d="M 88.293717 294.88 
L 88.293717 291.524907 
L 90.522701 291.524907 
L 90.522701 288.169813 
L 93.501005 288.169813 
L 93.501005 284.81472 
L 94.26507 284.81472 
L 94.26507 281.459626 
L 99.806659 281.459626 
L 99.806659 278.663715 
L 101.604122 278.663715 
L 101.604122 273.071893 
L 103.884099 273.071893 
L 103.884099 270.275981 
L 104.513022 270.275981 
L 104.513022 268.039252 
L 107.352754 268.039252 
L 107.352754 267.48007 
L 107.868452 267.48007 
L 107.868452 264.684159 
L 108.369127 264.684159 
L 108.369127 261.888248 
L 108.694987 261.888248 
L 108.775496 256.855608 
L 109.637066 256.855608 
L 109.637066 256.296425 
L 109.939957 256.296425 
L 109.939957 254.618879 
L 110.746395 254.618879 
L 110.817865 253.500514 
L 111.855724 253.500514 
L 111.855724 252.941332 
L 111.989488 252.941332 
L 111.989488 252.38215 
L 112.319414 252.38215 
L 112.319414 251.822967 
L 112.960856 251.822967 
L 112.960856 251.263785 
L 113.518374 251.263785 
L 113.518374 250.704603 
L 116.984244 250.704603 
L 116.984244 250.145421 
L 128.39291 250.145421 
L 128.39291 249.586238 
L 130.917487 249.586238 
L 130.917487 249.027056 
L 131.462512 249.027056 
L 131.462512 248.467874 
L 132.340954 248.467874 
L 132.340954 247.908692 
L 132.503304 247.908692 
L 132.503304 247.34951 
L 138.623956 247.34951 
L 138.623956 246.790327 
L 139.786254 246.790327 
L 139.786254 246.231145 
L 142.416994 246.231145 
L 142.416994 245.671963 
L 146.939763 245.671963 
L 146.939763 245.112781 
L 148.93811 245.112781 
L 148.93811 244.553598 
L 161.049202 244.553598 
L 161.049202 243.994416 
L 162.378025 243.994416 
L 162.378025 243.435234 
L 162.533611 243.435234 
L 162.533611 242.876052 
L 163.159224 242.876052 
L 163.159224 242.316869 
L 163.912956 242.316869 
L 163.912956 241.757687 
L 164.279369 241.757687 
L 164.355523 240.639323 
L 164.894709 240.639323 
L 164.894709 240.08014 
L 169.912288 240.08014 
L 169.912288 239.520958 
L 170.290773 239.520958 
L 170.290773 238.961776 
L 171.171201 238.961776 
L 171.171201 238.402594 
L 171.340737 238.402594 
L 171.340737 237.843411 
L 172.934647 237.843411 
L 172.934647 237.284229 
L 174.955972 237.284229 
L 174.955972 236.725047 
L 176.969296 236.725047 
L 176.969296 236.165865 
L 177.474021 236.165865 
L 177.474021 235.606682 
L 177.616593 235.606682 
L 177.616593 235.0475 
L 178.091539 235.0475 
L 178.104349 233.929136 
L 179.269077 233.929136 
L 179.269077 233.369954 
L 181.450076 233.369954 
L 181.450076 232.810771 
L 181.947562 232.810771 
L 181.947562 232.251589 
L 182.860369 232.251589 
L 182.860369 231.692407 
L 183.227552 231.692407 
L 183.227552 231.133225 
L 183.540452 231.133225 
L 183.540452 230.574042 
L 183.85285 230.574042 
L 183.902677 229.455678 
L 184.228557 229.455678 
L 184.228557 228.896496 
L 184.525865 228.896496 
L 184.568898 227.778131 
L 185.357365 227.778131 
L 185.357365 227.218949 
L 185.881113 227.218949 
L 185.881113 226.659767 
L 186.636244 226.659767 
L 186.636244 226.100584 
L 187.068997 226.100584 
L 187.068997 225.541402 
L 187.462255 225.541402 
L 187.510065 223.863855 
L 187.588908 223.863855 
L 187.588908 222.745491 
L 187.75039 222.745491 
L 187.75039 221.627126 
L 187.862046 221.627126 
L 187.902323 219.94958 
L 188.020194 219.94958 
L 188.083208 218.831215 
L 188.149163 218.831215 
L 188.238554 217.153669 
L 188.326697 217.153669 
L 188.411266 215.476122 
L 188.494644 215.476122 
L 188.494644 214.91694 
L 189.896519 214.91694 
L 189.896519 214.357757 
L 190.527462 214.357757 
L 190.527462 213.798575 
L 190.818506 213.798575 
L 190.818506 213.239393 
L 191.367809 213.239393 
L 191.367809 212.680211 
L 192.181529 212.680211 
L 192.181529 212.121028 
L 193.622947 212.121028 
L 193.622947 211.002664 
L 194.162372 211.002664 
L 194.162372 210.443482 
L 194.650099 210.443482 
L 194.650099 209.884299 
L 194.866081 209.884299 
L 194.866081 209.325117 
L 195.233436 209.325117 
L 195.313609 207.64757 
L 195.459369 207.64757 
L 195.459369 207.088388 
L 195.957995 207.088388 
L 195.957995 206.529206 
L 196.217866 206.529206 
L 196.217866 205.970024 
L 196.414637 205.970024 
L 196.514378 202.61493 
L 196.602876 202.61493 
L 196.655661 201.496566 
L 196.733813 201.496566 
L 196.841772 198.700655 
L 198.643349 198.700655 
L 198.643349 198.141472 
L 199.016155 198.141472 
L 199.016155 197.58229 
L 199.347177 197.58229 
L 199.347177 197.023108 
L 200.174095 197.023108 
L 200.174095 196.463926 
L 204.457032 196.463926 
L 204.457032 195.904743 
L 206.724706 195.904743 
L 206.724706 195.345561 
L 207.569224 195.345561 
L 207.569224 194.786379 
L 208.13782 194.786379 
L 208.13782 194.227197 
L 208.848804 194.227197 
L 208.848804 191.990468 
L 209.343981 191.990468 
L 209.343981 191.431285 
L 209.516219 191.431285 
L 209.516219 190.872103 
L 209.645467 190.872103 
L 209.748938 189.194556 
L 209.762702 189.194556 
L 209.869507 183.602734 
L 209.901755 183.602734 
L 209.989013 177.451729 
L 210.015704 177.451729 
L 210.094425 171.859907 
L 211.709289 171.859907 
L 211.709289 171.300725 
L 212.043962 171.300725 
L 212.131634 170.18236 
L 212.222575 170.18236 
L 212.321591 166.268085 
L 212.339074 166.268085 
L 212.416948 159.557898 
L 212.486773 159.557898 
L 212.519082 156.202804 
L 215.936167 156.202804 
L 216.013951 153.966075 
L 216.119144 153.966075 
L 216.180741 152.288529 
L 216.308671 152.288529 
L 216.385251 147.815071 
L 216.422954 147.815071 
L 216.47676 143.900795 
L 221.517313 143.900795 
L 221.517313 143.341613 
L 224.934438 143.341613 
L 224.934438 142.78243 
L 225.247138 142.78243 
L 225.247138 142.223248 
L 232.939919 142.223248 
L 232.939919 141.664066 
L 233.919664 141.664066 
L 233.919664 141.104884 
L 234.832141 141.104884 
L 234.832141 140.545702 
L 237.076566 140.545702 
L 237.076566 139.986519 
L 238.351051 139.986519 
L 238.351051 139.427337 
L 243.734648 139.427337 
L 243.734648 138.868155 
L 245.585004 138.868155 
L 245.585004 138.308973 
L 249.076305 138.308973 
L 249.076305 137.74979 
L 250.332691 137.74979 
L 250.332691 137.190608 
L 250.583047 137.190608 
L 250.583047 136.631426 
L 259.103646 136.631426 
L 259.134906 122.65187 
L 260.540362 122.65187 
L 260.540362 122.092688 
L 261.188357 122.092688 
L 261.211618 104.758038 
L 271.236678 104.758038 
L 271.252748 93.574393 
L 275.607769 93.574393 
L 275.61159 80.15402 
L 280.63729 80.15402 
L 280.640751 65.056099 
L 283.155027 65.056099 
L 283.160697 51.635725 
L 285.536309 51.635725 
L 285.540858 39.333716 
L 286.987356 39.333716 
L 286.992166 21.999066 
L 293.528688 21.999066 
L 293.533917 9.697057 
L 333.168 9.697057 
L 333.168 9.697057 
" style="fill:none;stroke:#6495ed;stroke-linecap:square;stroke-width:1.5;"/>
   </g>
   <g id="line2d_51">
    <defs>
     <path d="M -0 6 
L 6 -6 
L -6 -6 
z
" id="m8e5dacb750" style="stroke:#6495ed;stroke-linejoin:miter;stroke-width:1.5;"/>
    </defs>
    <g>
     <use style="fill-opacity:0;stroke:#6495ed;stroke-linejoin:miter;stroke-width:1.5;" x="196.440606" xlink:href="#m8e5dacb750" y="204.851659"/>
     <use style="fill-opacity:0;stroke:#6495ed;stroke-linejoin:miter;stroke-width:1.5;" x="243.734648" xlink:href="#m8e5dacb750" y="139.427337"/>
     <use style="fill-opacity:0;stroke:#6495ed;stroke-linejoin:miter;stroke-width:1.5;" x="293.533917" xlink:href="#m8e5dacb750" y="9.697057"/>
     <use style="fill-opacity:0;stroke:#6495ed;stroke-linejoin:miter;stroke-width:1.5;" x="293.533917" xlink:href="#m8e5dacb750" y="9.697057"/>
     <use style="fill-opacity:0;stroke:#6495ed;stroke-linejoin:miter;stroke-width:1.5;" x="333.168" xlink:href="#m8e5dacb750" y="9.697057"/>
    </g>
   </g>
   <g id="line2d_52">
    <path style="fill:none;stroke:#6495ed;stroke-linecap:square;stroke-width:1.5;"/>
    <g/>
   </g>
   <g id="line2d_53">
    <defs>
     <path d="M 0 1.5 
C 0.397805 1.5 0.77937 1.341951 1.06066 1.06066 
C 1.341951 0.77937 1.5 0.397805 1.5 0 
C 1.5 -0.397805 1.341951 -0.77937 1.06066 -1.06066 
C 0.77937 -1.341951 0.397805 -1.5 0 -1.5 
C -0.397805 -1.5 -0.77937 -1.341951 -1.06066 -1.06066 
C -1.341951 -0.77937 -1.5 -0.397805 -1.5 0 
C -1.5 0.397805 -1.341951 0.77937 -1.06066 1.06066 
C -0.77937 1.341951 -0.397805 1.5 0 1.5 
z
" id="m8f751a5f18" style="stroke:#ff0000;"/>
    </defs>
    <g>
     <use style="fill:#ff0000;stroke:#ff0000;" x="354.34017" xlink:href="#m8f751a5f18" y="227.778131"/>
     <use style="fill:#ff0000;stroke:#ff0000;" x="354.34017" xlink:href="#m8f751a5f18" y="227.778131"/>
    </g>
   </g>
   <g id="line2d_54">
    <path d="M 89.320209 294.88 
L 89.320209 294.320818 
L 102.781886 294.320818 
L 102.781886 293.761636 
L 103.669239 293.761636 
L 103.669239 293.202453 
L 108.532829 293.202453 
L 108.532829 292.643271 
L 109.014785 292.643271 
L 109.014785 292.084089 
L 109.939957 292.084089 
L 109.939957 291.524907 
L 113.023703 291.524907 
L 113.086321 290.406542 
L 113.457313 290.406542 
L 113.457313 289.84736 
L 115.256077 289.84736 
L 115.256077 289.288178 
L 121.359263 289.288178 
L 121.359263 288.728995 
L 124.266312 288.728995 
L 124.266312 288.169813 
L 127.951152 288.169813 
L 127.951152 287.610631 
L 131.049878 287.610631 
L 131.049878 287.051449 
L 134.53905 287.051449 
L 134.53905 286.492266 
L 136.694654 286.492266 
L 136.694654 285.933084 
L 137.346876 285.933084 
L 137.346876 285.373902 
L 138.496158 285.373902 
L 138.496158 284.81472 
L 150.950558 284.81472 
L 150.950558 284.255537 
L 153.524065 284.255537 
L 153.524065 283.696355 
L 157.116496 283.696355 
L 157.116496 283.137173 
L 158.749045 283.137173 
L 158.749045 282.577991 
L 160.211717 282.577991 
L 160.211717 282.018808 
L 166.137374 282.018808 
L 166.137374 281.459626 
L 169.410055 281.459626 
L 169.410055 280.900444 
L 169.808859 280.900444 
L 169.808859 280.341262 
L 169.93061 280.341262 
L 169.93061 279.782079 
L 170.458076 279.782079 
L 170.458076 279.222897 
L 171.370234 279.222897 
L 171.370234 278.663715 
L 172.884601 278.663715 
L 172.884601 278.104533 
L 173.572314 278.104533 
L 173.572314 277.545351 
L 175.054797 277.545351 
L 175.054797 276.986168 
L 175.362932 276.986168 
L 175.362932 276.426986 
L 178.639436 276.426986 
L 178.639436 275.867804 
L 179.68806 275.867804 
L 179.68806 275.308622 
L 181.196421 275.308622 
L 181.203551 274.190257 
L 183.021443 274.190257 
L 183.021443 273.631075 
L 185.988472 273.631075 
L 185.988472 273.071893 
L 187.30553 273.071893 
L 187.30553 272.51271 
L 189.040895 272.51271 
L 189.040895 271.953528 
L 191.48644 271.953528 
L 191.48644 271.394346 
L 191.705158 271.394346 
L 191.705158 270.835164 
L 192.674335 270.835164 
L 192.674335 270.275981 
L 194.164049 270.275981 
L 194.164049 269.716799 
L 195.186627 269.716799 
L 195.186627 269.157617 
L 197.165393 269.157617 
L 197.165393 268.598435 
L 203.353271 268.598435 
L 203.353271 268.039252 
L 204.721259 268.039252 
L 204.721259 267.48007 
L 206.229387 267.48007 
L 206.229387 266.920888 
L 209.303025 266.920888 
L 209.303025 266.361706 
L 213.391701 266.361706 
L 213.391701 265.802523 
L 216.235463 265.802523 
L 216.235463 265.243341 
L 216.3656 265.243341 
L 216.3656 264.684159 
L 217.374995 264.684159 
L 217.385276 263.565795 
L 217.948198 263.565795 
L 217.948198 263.006612 
L 218.439571 263.006612 
L 218.49598 261.888248 
L 219.748438 261.888248 
L 219.771889 260.769883 
L 219.866376 260.769883 
L 219.913801 259.651519 
L 220.010123 259.651519 
L 220.010123 259.092337 
L 220.717085 259.092337 
L 220.746396 257.973972 
L 225.656907 257.973972 
L 225.656907 257.41479 
L 225.973281 257.41479 
L 225.973281 256.855608 
L 226.183582 256.855608 
L 226.183582 256.296425 
L 226.371441 256.296425 
L 226.371441 255.737243 
L 227.08975 255.737243 
L 227.08975 255.178061 
L 229.606487 255.178061 
L 229.606487 254.618879 
L 229.89506 254.618879 
L 229.89506 254.059696 
L 234.22007 254.059696 
L 234.26242 252.38215 
L 236.286473 252.38215 
L 236.340522 250.704603 
L 236.792146 250.704603 
L 236.792146 250.145421 
L 256.99158 250.145421 
L 257.01704 249.027056 
L 259.892427 249.027056 
L 259.892549 247.908692 
L 262.799362 247.908692 
L 262.872706 246.790327 
L 263.234302 246.790327 
L 263.234302 246.231145 
L 271.223473 246.231145 
L 271.223473 245.671963 
L 271.766179 245.671963 
L 271.791937 243.435234 
L 272.939177 243.435234 
L 272.939177 242.876052 
L 273.169405 242.876052 
L 273.169405 242.316869 
L 274.314625 242.316869 
L 274.314625 241.757687 
L 275.25541 241.757687 
L 275.257972 240.639323 
L 281.943908 240.639323 
L 281.943908 240.08014 
L 286.450554 240.08014 
L 286.450554 239.520958 
L 286.921872 239.520958 
L 286.921872 238.961776 
L 297.727936 238.961776 
L 297.727936 238.402594 
L 297.850203 238.402594 
L 297.850203 237.843411 
L 298.10971 237.843411 
L 298.10971 237.284229 
L 307.69733 237.284229 
L 307.766407 235.606682 
L 307.912759 235.606682 
L 307.912759 235.0475 
L 314.116212 235.0475 
L 314.116212 234.488318 
L 318.54989 234.488318 
L 318.549923 233.369954 
L 322.165013 233.369954 
L 322.194827 232.251589 
L 322.398735 232.251589 
L 322.398735 231.692407 
L 325.228694 231.692407 
L 325.228694 231.133225 
L 325.346961 231.133225 
L 325.346961 230.574042 
L 333.168 230.574042 
L 333.168 230.574042 
" style="fill:none;stroke:#ff0000;stroke-linecap:square;stroke-width:1.5;"/>
   </g>
   <g id="line2d_55">
    <defs>
     <path d="M 0 -6 
L -5.196152 -3 
L -5.196152 3 
L -0 6 
L 5.196152 3 
L 5.196152 -3 
z
" id="m51663fd4e5" style="stroke:#ff0000;stroke-linejoin:miter;stroke-width:1.5;"/>
    </defs>
    <g>
     <use style="fill-opacity:0;stroke:#ff0000;stroke-linejoin:miter;stroke-width:1.5;" x="166.137374" xlink:href="#m51663fd4e5" y="282.018808"/>
     <use style="fill-opacity:0;stroke:#ff0000;stroke-linejoin:miter;stroke-width:1.5;" x="236.792146" xlink:href="#m51663fd4e5" y="250.704603"/>
     <use style="fill-opacity:0;stroke:#ff0000;stroke-linejoin:miter;stroke-width:1.5;" x="307.912759" xlink:href="#m51663fd4e5" y="235.0475"/>
     <use style="fill-opacity:0;stroke:#ff0000;stroke-linejoin:miter;stroke-width:1.5;" x="325.346961" xlink:href="#m51663fd4e5" y="230.574042"/>
     <use style="fill-opacity:0;stroke:#ff0000;stroke-linejoin:miter;stroke-width:1.5;" x="333.168" xlink:href="#m51663fd4e5" y="230.574042"/>
    </g>
   </g>
   <g id="line2d_56">
    <path style="fill:none;stroke:#ff0000;stroke-linecap:square;stroke-width:1.5;"/>
    <g/>
   </g>
   <g id="line2d_57">
    <path clip-path="url(#pde74c77ef8)" d="M 293.589828 238.961776 
" style="fill:none;stroke:#ff0000;stroke-linecap:square;stroke-width:1.5;"/>
    <defs>
     <path d="M -12 12 
L 12 -12 
M -12 -12 
L 12 12 
" id="mee29bb293f" style="stroke:#ff0000;"/>
    </defs>
    <g clip-path="url(#pde74c77ef8)">
     <use style="fill:#ff0000;stroke:#ff0000;" x="293.589828" xlink:href="#mee29bb293f" y="238.961776"/>
    </g>
   </g>
   <g id="line2d_58">
    <path d="M 333.168 230.574042 
L 363.64328 289.176341 
" style="fill:none;stroke:#ff0000;stroke-linecap:square;stroke-width:1.5;"/>
    <g>
     <use style="fill-opacity:0;stroke:#ff0000;stroke-linejoin:miter;stroke-width:1.5;" x="333.168" xlink:href="#m51663fd4e5" y="230.574042"/>
     <use style="fill-opacity:0;stroke:#ff0000;stroke-linejoin:miter;stroke-width:1.5;" x="363.64328" xlink:href="#m51663fd4e5" y="289.176341"/>
    </g>
   </g>
   <g id="line2d_59">
    <path d="M 333.168 9.697057 
L 363.64328 220.732435 
" style="fill:none;stroke:#6495ed;stroke-linecap:square;stroke-width:1.5;"/>
    <g>
     <use style="fill-opacity:0;stroke:#6495ed;stroke-linejoin:miter;stroke-width:1.5;" x="333.168" xlink:href="#m8e5dacb750" y="9.697057"/>
     <use style="fill-opacity:0;stroke:#6495ed;stroke-linejoin:miter;stroke-width:1.5;" x="363.64328" xlink:href="#m8e5dacb750" y="220.732435"/>
    </g>
   </g>
   <g id="line2d_60">
    <path d="M 333.168 9.697057 
L 363.64328 152.288529 
" style="fill:none;stroke:#000080;stroke-linecap:square;stroke-width:1.5;"/>
    <g>
     <use style="fill-opacity:0;stroke:#000080;stroke-width:1.5;" x="333.168" xlink:href="#m18aac02c8b" y="9.697057"/>
     <use style="fill-opacity:0;stroke:#000080;stroke-width:1.5;" x="363.64328" xlink:href="#m18aac02c8b" y="152.288529"/>
    </g>
   </g>
   <g id="line2d_61">
    <path d="M 333.168 9.697057 
L 363.64328 83.844622 
" style="fill:none;stroke:#ff00ff;stroke-linecap:square;stroke-width:1.5;"/>
    <g>
     <use style="fill-opacity:0;stroke:#ff00ff;stroke-linejoin:miter;stroke-width:1.5;" x="333.168" xlink:href="#m6167ca72eb" y="9.697057"/>
     <use style="fill-opacity:0;stroke:#ff00ff;stroke-linejoin:miter;stroke-width:1.5;" x="363.64328" xlink:href="#m6167ca72eb" y="83.844622"/>
    </g>
   </g>
   <g id="line2d_62">
    <path d="M 333.168 9.697057 
L 363.64328 15.400716 
" style="fill:none;stroke:#ff7500;stroke-linecap:square;stroke-width:1.5;"/>
    <g>
     <use style="fill-opacity:0;stroke:#ff7500;stroke-linejoin:bevel;stroke-width:1.5;" x="333.168" xlink:href="#mb3f8e0e11e" y="9.697057"/>
     <use style="fill-opacity:0;stroke:#ff7500;stroke-linejoin:bevel;stroke-width:1.5;" x="363.64328" xlink:href="#mb3f8e0e11e" y="15.400716"/>
    </g>
   </g>
   <g id="line2d_63">
    <path d="M 333.168 294.88 
L 333.168 9.697057 
" style="fill:none;stroke:#000000;stroke-linecap:square;stroke-width:1.5;"/>
   </g>
   <g id="patch_3">
    <path d="M 56.12 294.88 
L 56.12 6.845228 
" style="fill:none;stroke:#000000;stroke-linecap:square;stroke-linejoin:miter;stroke-width:0.8;"/>
   </g>
   <g id="patch_4">
    <path d="M 333.168 294.88 
L 333.168 6.845228 
" style="fill:none;stroke:#000000;stroke-linecap:square;stroke-linejoin:miter;stroke-width:0.8;"/>
   </g>
   <g id="patch_5">
    <path d="M 56.12 294.88 
L 333.168 294.88 
" style="fill:none;stroke:#000000;stroke-linecap:square;stroke-linejoin:miter;stroke-width:0.8;"/>
   </g>
   <g id="patch_6">
    <path d="M 56.12 6.845228 
L 333.168 6.845228 
" style="fill:none;stroke:#000000;stroke-linecap:square;stroke-linejoin:miter;stroke-width:0.8;"/>
   </g>
   <g id="text_13">
    <!-- f24 -->
    <g transform="translate(369.18424 293.867279)scale(0.17 -0.17)">
     <use xlink:href="#DejaVuSans-66"/>
     <use x="35.205078" xlink:href="#DejaVuSans-32"/>
     <use x="98.828125" xlink:href="#DejaVuSans-34"/>
    </g>
   </g>
   <g id="text_14">
    <!-- f20 -->
    <g transform="translate(369.18424 225.423372)scale(0.17 -0.17)">
     <use xlink:href="#DejaVuSans-66"/>
     <use x="35.205078" xlink:href="#DejaVuSans-32"/>
     <use x="98.828125" xlink:href="#DejaVuSans-30"/>
    </g>
   </g>
   <g id="text_15">
    <!-- f23 -->
    <defs>
     <path d="M 40.578125 39.3125 
Q 47.65625 37.796875 51.625 33 
Q 55.609375 28.21875 55.609375 21.1875 
Q 55.609375 10.40625 48.1875 4.484375 
Q 40.765625 -1.421875 27.09375 -1.421875 
Q 22.515625 -1.421875 17.65625 -0.515625 
Q 12.796875 0.390625 7.625 2.203125 
L 7.625 11.71875 
Q 11.71875 9.328125 16.59375 8.109375 
Q 21.484375 6.890625 26.8125 6.890625 
Q 36.078125 6.890625 40.9375 10.546875 
Q 45.796875 14.203125 45.796875 21.1875 
Q 45.796875 27.640625 41.28125 31.265625 
Q 36.765625 34.90625 28.71875 34.90625 
L 20.21875 34.90625 
L 20.21875 43.015625 
L 29.109375 43.015625 
Q 36.375 43.015625 40.234375 45.921875 
Q 44.09375 48.828125 44.09375 54.296875 
Q 44.09375 59.90625 40.109375 62.90625 
Q 36.140625 65.921875 28.71875 65.921875 
Q 24.65625 65.921875 20.015625 65.03125 
Q 15.375 64.15625 9.8125 62.3125 
L 9.8125 71.09375 
Q 15.4375 72.65625 20.34375 73.4375 
Q 25.25 74.21875 29.59375 74.21875 
Q 40.828125 74.21875 47.359375 69.109375 
Q 53.90625 64.015625 53.90625 55.328125 
Q 53.90625 49.265625 50.4375 45.09375 
Q 46.96875 40.921875 40.578125 39.3125 
z
" id="DejaVuSans-33"/>
    </defs>
    <g transform="translate(369.18424 156.979466)scale(0.17 -0.17)">
     <use xlink:href="#DejaVuSans-66"/>
     <use x="35.205078" xlink:href="#DejaVuSans-32"/>
     <use x="98.828125" xlink:href="#DejaVuSans-33"/>
    </g>
   </g>
   <g id="text_16">
    <!-- f22 -->
    <g transform="translate(369.18424 88.53556)scale(0.17 -0.17)">
     <use xlink:href="#DejaVuSans-66"/>
     <use x="35.205078" xlink:href="#DejaVuSans-32"/>
     <use x="98.828125" xlink:href="#DejaVuSans-32"/>
    </g>
   </g>
   <g id="text_17">
    <!-- f21 -->
    <g transform="translate(369.18424 20.091654)scale(0.17 -0.17)">
     <use xlink:href="#DejaVuSans-66"/>
     <use x="35.205078" xlink:href="#DejaVuSans-32"/>
     <use x="98.828125" xlink:href="#DejaVuSans-31"/>
    </g>
   </g>
   <g id="text_18">
    <!-- bbob -->
    <defs>
     <path d="M 48.6875 27.296875 
Q 48.6875 37.203125 44.609375 42.84375 
Q 40.53125 48.484375 33.40625 48.484375 
Q 26.265625 48.484375 22.1875 42.84375 
Q 18.109375 37.203125 18.109375 27.296875 
Q 18.109375 17.390625 22.1875 11.75 
Q 26.265625 6.109375 33.40625 6.109375 
Q 40.53125 6.109375 44.609375 11.75 
Q 48.6875 17.390625 48.6875 27.296875 
z
M 18.109375 46.390625 
Q 20.953125 51.265625 25.265625 53.625 
Q 29.59375 56 35.59375 56 
Q 45.5625 56 51.78125 48.09375 
Q 58.015625 40.1875 58.015625 27.296875 
Q 58.015625 14.40625 51.78125 6.484375 
Q 45.5625 -1.421875 35.59375 -1.421875 
Q 29.59375 -1.421875 25.265625 0.953125 
Q 20.953125 3.328125 18.109375 8.203125 
L 18.109375 0 
L 9.078125 0 
L 9.078125 75.984375 
L 18.109375 75.984375 
z
" id="DejaVuSans-62"/>
    </defs>
    <g transform="translate(58.89048 17.475982)scale(0.102 -0.102)">
     <use xlink:href="#DejaVuSans-62"/>
     <use x="63.476562" xlink:href="#DejaVuSans-62"/>
     <use x="126.953125" xlink:href="#DejaVuSans-6f"/>
     <use x="188.134766" xlink:href="#DejaVuSans-62"/>
    </g>
    <!-- Weak structure functions, 10-D -->
    <defs>
     <path d="M 3.328125 72.90625 
L 13.28125 72.90625 
L 28.609375 11.28125 
L 43.890625 72.90625 
L 54.984375 72.90625 
L 70.3125 11.28125 
L 85.59375 72.90625 
L 95.609375 72.90625 
L 77.296875 0 
L 64.890625 0 
L 49.515625 63.28125 
L 33.984375 0 
L 21.578125 0 
z
" id="DejaVuSans-57"/>
     <path d="M 9.078125 75.984375 
L 18.109375 75.984375 
L 18.109375 31.109375 
L 44.921875 54.6875 
L 56.390625 54.6875 
L 27.390625 29.109375 
L 57.625 0 
L 45.90625 0 
L 18.109375 26.703125 
L 18.109375 0 
L 9.078125 0 
z
" id="DejaVuSans-6b"/>
     <path d="M 19.671875 64.796875 
L 19.671875 8.109375 
L 31.59375 8.109375 
Q 46.6875 8.109375 53.6875 14.9375 
Q 60.6875 21.78125 60.6875 36.53125 
Q 60.6875 51.171875 53.6875 57.984375 
Q 46.6875 64.796875 31.59375 64.796875 
z
M 9.8125 72.90625 
L 30.078125 72.90625 
Q 51.265625 72.90625 61.171875 64.09375 
Q 71.09375 55.28125 71.09375 36.53125 
Q 71.09375 17.671875 61.125 8.828125 
Q 51.171875 0 30.078125 0 
L 9.8125 0 
z
" id="DejaVuSans-44"/>
    </defs>
    <g transform="translate(58.89048 28.89775)scale(0.102 -0.102)">
     <use xlink:href="#DejaVuSans-57"/>
     <use x="98.798828" xlink:href="#DejaVuSans-65"/>
     <use x="160.322266" xlink:href="#DejaVuSans-61"/>
     <use x="221.601562" xlink:href="#DejaVuSans-6b"/>
     <use x="279.511719" xlink:href="#DejaVuSans-20"/>
     <use x="311.298828" xlink:href="#DejaVuSans-73"/>
     <use x="363.398438" xlink:href="#DejaVuSans-74"/>
     <use x="402.607422" xlink:href="#DejaVuSans-72"/>
     <use x="443.720703" xlink:href="#DejaVuSans-75"/>
     <use x="507.099609" xlink:href="#DejaVuSans-63"/>
     <use x="562.080078" xlink:href="#DejaVuSans-74"/>
     <use x="601.289062" xlink:href="#DejaVuSans-75"/>
     <use x="664.667969" xlink:href="#DejaVuSans-72"/>
     <use x="705.75" xlink:href="#DejaVuSans-65"/>
     <use x="767.273438" xlink:href="#DejaVuSans-20"/>
     <use x="799.060547" xlink:href="#DejaVuSans-66"/>
     <use x="834.265625" xlink:href="#DejaVuSans-75"/>
     <use x="897.644531" xlink:href="#DejaVuSans-6e"/>
     <use x="961.023438" xlink:href="#DejaVuSans-63"/>
     <use x="1016.003906" xlink:href="#DejaVuSans-74"/>
     <use x="1055.212891" xlink:href="#DejaVuSans-69"/>
     <use x="1082.996094" xlink:href="#DejaVuSans-6f"/>
     <use x="1144.177734" xlink:href="#DejaVuSans-6e"/>
     <use x="1207.556641" xlink:href="#DejaVuSans-73"/>
     <use x="1259.65625" xlink:href="#DejaVuSans-2c"/>
     <use x="1291.443359" xlink:href="#DejaVuSans-20"/>
     <use x="1323.230469" xlink:href="#DejaVuSans-31"/>
     <use x="1386.853516" xlink:href="#DejaVuSans-30"/>
     <use x="1450.476562" xlink:href="#DejaVuSans-2d"/>
     <use x="1486.560547" xlink:href="#DejaVuSans-44"/>
    </g>
    <!-- 51 targets: 100..1e-08 -->
    <defs>
     <path d="M 10.796875 72.90625 
L 49.515625 72.90625 
L 49.515625 64.59375 
L 19.828125 64.59375 
L 19.828125 46.734375 
Q 21.96875 47.46875 24.109375 47.828125 
Q 26.265625 48.1875 28.421875 48.1875 
Q 40.625 48.1875 47.75 41.5 
Q 54.890625 34.8125 54.890625 23.390625 
Q 54.890625 11.625 47.5625 5.09375 
Q 40.234375 -1.421875 26.90625 -1.421875 
Q 22.3125 -1.421875 17.546875 -0.640625 
Q 12.796875 0.140625 7.71875 1.703125 
L 7.71875 11.625 
Q 12.109375 9.234375 16.796875 8.0625 
Q 21.484375 6.890625 26.703125 6.890625 
Q 35.15625 6.890625 40.078125 11.328125 
Q 45.015625 15.765625 45.015625 23.390625 
Q 45.015625 31 40.078125 35.4375 
Q 35.15625 39.890625 26.703125 39.890625 
Q 22.75 39.890625 18.8125 39.015625 
Q 14.890625 38.140625 10.796875 36.28125 
z
" id="DejaVuSans-35"/>
     <path d="M 11.71875 12.40625 
L 22.015625 12.40625 
L 22.015625 0 
L 11.71875 0 
z
M 11.71875 51.703125 
L 22.015625 51.703125 
L 22.015625 39.3125 
L 11.71875 39.3125 
z
" id="DejaVuSans-3a"/>
    </defs>
    <g transform="translate(58.89048 40.319519)scale(0.102 -0.102)">
     <use xlink:href="#DejaVuSans-35"/>
     <use x="63.623047" xlink:href="#DejaVuSans-31"/>
     <use x="127.246094" xlink:href="#DejaVuSans-20"/>
     <use x="159.033203" xlink:href="#DejaVuSans-74"/>
     <use x="198.242188" xlink:href="#DejaVuSans-61"/>
     <use x="259.521484" xlink:href="#DejaVuSans-72"/>
     <use x="300.619141" xlink:href="#DejaVuSans-67"/>
     <use x="364.095703" xlink:href="#DejaVuSans-65"/>
     <use x="425.619141" xlink:href="#DejaVuSans-74"/>
     <use x="464.828125" xlink:href="#DejaVuSans-73"/>
     <use x="516.927734" xlink:href="#DejaVuSans-3a"/>
     <use x="550.619141" xlink:href="#DejaVuSans-20"/>
     <use x="582.40625" xlink:href="#DejaVuSans-31"/>
     <use x="646.029297" xlink:href="#DejaVuSans-30"/>
     <use x="709.652344" xlink:href="#DejaVuSans-30"/>
     <use x="773.275391" xlink:href="#DejaVuSans-2e"/>
     <use x="805.0625" xlink:href="#DejaVuSans-2e"/>
     <use x="836.849609" xlink:href="#DejaVuSans-31"/>
     <use x="900.472656" xlink:href="#DejaVuSans-65"/>
     <use x="961.996094" xlink:href="#DejaVuSans-2d"/>
     <use x="998.080078" xlink:href="#DejaVuSans-30"/>
     <use x="1061.703125" xlink:href="#DejaVuSans-38"/>
    </g>
    <!-- 15 instances -->
    <g transform="translate(58.89048 51.741288)scale(0.102 -0.102)">
     <use xlink:href="#DejaVuSans-31"/>
     <use x="63.623047" xlink:href="#DejaVuSans-35"/>
     <use x="127.246094" xlink:href="#DejaVuSans-20"/>
     <use x="159.033203" xlink:href="#DejaVuSans-69"/>
     <use x="186.816406" xlink:href="#DejaVuSans-6e"/>
     <use x="250.195312" xlink:href="#DejaVuSans-73"/>
     <use x="302.294922" xlink:href="#DejaVuSans-74"/>
     <use x="341.503906" xlink:href="#DejaVuSans-61"/>
     <use x="402.783203" xlink:href="#DejaVuSans-6e"/>
     <use x="466.162109" xlink:href="#DejaVuSans-63"/>
     <use x="521.142578" xlink:href="#DejaVuSans-65"/>
     <use x="582.666016" xlink:href="#DejaVuSans-73"/>
    </g>
   </g>
   <g id="text_19">
    <!-- v2.4 -->
    <g style="fill:#808080;" transform="translate(183.733063 289.919965)scale(0.1 -0.1)">
     <use xlink:href="#DejaVuSans-76"/>
     <use x="59.179688" xlink:href="#DejaVuSans-32"/>
     <use x="122.802734" xlink:href="#DejaVuSans-2e"/>
     <use x="154.589844" xlink:href="#DejaVuSans-34"/>
    </g>
   </g>
  </g>
 </g>
 <defs>
  <clipPath id="pde74c77ef8">
   <rect height="288.034772" width="277.048" x="56.12" y="6.845228"/>
  </clipPath>
 </defs>
</svg>
