<?xml version="1.0" encoding="utf-8" standalone="no"?>
<!DOCTYPE svg PUBLIC "-//W3C//DTD SVG 1.1//EN"
  "http://www.w3.org/Graphics/SVG/1.1/DTD/svg11.dtd">
<!-- Created with matplotlib (http://matplotlib.org/) -->
<svg height="345.6pt" version="1.1" viewBox="0 0 460.8 345.6" width="460.8pt" xmlns="http://www.w3.org/2000/svg" xmlns:xlink="http://www.w3.org/1999/xlink">
 <defs>
  <style type="text/css">
*{stroke-linecap:butt;stroke-linejoin:round;}
  </style>
 </defs>
 <g id="figure_1">
  <g id="patch_1">
   <path d="M 0 345.6 
L 460.8 345.6 
L 460.8 0 
L 0 0 
z
" style="fill:#ffffff;"/>
  </g>
  <g id="axes_1">
   <g id="patch_2">
    <path d="M 56.12 294.88 
L 333.168 294.88 
L 333.168 6.845228 
L 56.12 6.845228 
z
" style="fill:#ffffff;"/>
   </g>
   <g id="matplotlib.axis_1">
    <g id="xtick_1">
     <g id="line2d_1">
      <path clip-path="url(#p6a2fccaff2)" d="M 56.12 294.88 
L 56.12 6.845228 
" style="fill:none;stroke:#b0b0b0;stroke-linecap:square;stroke-width:0.8;"/>
     </g>
     <g id="line2d_2">
      <defs>
       <path d="M 0 0 
L 0 3.5 
" id="m92ea740cec" style="stroke:#000000;stroke-width:0.8;"/>
      </defs>
      <g>
       <use style="stroke:#000000;stroke-width:0.8;" x="56.12" xlink:href="#m92ea740cec" y="294.88"/>
      </g>
     </g>
     <g id="text_1">
      <!-- 0 -->
      <defs>
       <path d="M 31.78125 66.40625 
Q 24.171875 66.40625 20.328125 58.90625 
Q 16.5 51.421875 16.5 36.375 
Q 16.5 21.390625 20.328125 13.890625 
Q 24.171875 6.390625 31.78125 6.390625 
Q 39.453125 6.390625 43.28125 13.890625 
Q 47.125 21.390625 47.125 36.375 
Q 47.125 51.421875 43.28125 58.90625 
Q 39.453125 66.40625 31.78125 66.40625 
z
M 31.78125 74.21875 
Q 44.046875 74.21875 50.515625 64.515625 
Q 56.984375 54.828125 56.984375 36.375 
Q 56.984375 17.96875 50.515625 8.265625 
Q 44.046875 -1.421875 31.78125 -1.421875 
Q 19.53125 -1.421875 13.0625 8.265625 
Q 6.59375 17.96875 6.59375 36.375 
Q 6.59375 54.828125 13.0625 64.515625 
Q 19.53125 74.21875 31.78125 74.21875 
z
" id="DejaVuSans-30"/>
      </defs>
      <g transform="translate(49.7575 317.076875)scale(0.2 -0.2)">
       <use xlink:href="#DejaVuSans-30"/>
      </g>
     </g>
    </g>
    <g id="xtick_2">
     <g id="line2d_3">
      <path clip-path="url(#p6a2fccaff2)" d="M 135.276571 294.88 
L 135.276571 6.845228 
" style="fill:none;stroke:#b0b0b0;stroke-linecap:square;stroke-width:0.8;"/>
     </g>
     <g id="line2d_4">
      <g>
       <use style="stroke:#000000;stroke-width:0.8;" x="135.276571" xlink:href="#m92ea740cec" y="294.88"/>
      </g>
     </g>
     <g id="text_2">
      <!-- 2 -->
      <defs>
       <path d="M 19.1875 8.296875 
L 53.609375 8.296875 
L 53.609375 0 
L 7.328125 0 
L 7.328125 8.296875 
Q 12.9375 14.109375 22.625 23.890625 
Q 32.328125 33.6875 34.8125 36.53125 
Q 39.546875 41.84375 41.421875 45.53125 
Q 43.3125 49.21875 43.3125 52.78125 
Q 43.3125 58.59375 39.234375 62.25 
Q 35.15625 65.921875 28.609375 65.921875 
Q 23.96875 65.921875 18.8125 64.3125 
Q 13.671875 62.703125 7.8125 59.421875 
L 7.8125 69.390625 
Q 13.765625 71.78125 18.9375 73 
Q 24.125 74.21875 28.421875 74.21875 
Q 39.75 74.21875 46.484375 68.546875 
Q 53.21875 62.890625 53.21875 53.421875 
Q 53.21875 48.921875 51.53125 44.890625 
Q 49.859375 40.875 45.40625 35.40625 
Q 44.1875 33.984375 37.640625 27.21875 
Q 31.109375 20.453125 19.1875 8.296875 
z
" id="DejaVuSans-32"/>
      </defs>
      <g transform="translate(128.914071 317.076875)scale(0.2 -0.2)">
       <use xlink:href="#DejaVuSans-32"/>
      </g>
     </g>
    </g>
    <g id="xtick_3">
     <g id="line2d_5">
      <path clip-path="url(#p6a2fccaff2)" d="M 214.433143 294.88 
L 214.433143 6.845228 
" style="fill:none;stroke:#b0b0b0;stroke-linecap:square;stroke-width:0.8;"/>
     </g>
     <g id="line2d_6">
      <g>
       <use style="stroke:#000000;stroke-width:0.8;" x="214.433143" xlink:href="#m92ea740cec" y="294.88"/>
      </g>
     </g>
     <g id="text_3">
      <!-- 4 -->
      <defs>
       <path d="M 37.796875 64.3125 
L 12.890625 25.390625 
L 37.796875 25.390625 
z
M 35.203125 72.90625 
L 47.609375 72.90625 
L 47.609375 25.390625 
L 58.015625 25.390625 
L 58.015625 17.1875 
L 47.609375 17.1875 
L 47.609375 0 
L 37.796875 0 
L 37.796875 17.1875 
L 4.890625 17.1875 
L 4.890625 26.703125 
z
" id="DejaVuSans-34"/>
      </defs>
      <g transform="translate(208.070643 317.076875)scale(0.2 -0.2)">
       <use xlink:href="#DejaVuSans-34"/>
      </g>
     </g>
    </g>
    <g id="xtick_4">
     <g id="line2d_7">
      <path clip-path="url(#p6a2fccaff2)" d="M 293.589714 294.88 
L 293.589714 6.845228 
" style="fill:none;stroke:#b0b0b0;stroke-linecap:square;stroke-width:0.8;"/>
     </g>
     <g id="line2d_8">
      <g>
       <use style="stroke:#000000;stroke-width:0.8;" x="293.589714" xlink:href="#m92ea740cec" y="294.88"/>
      </g>
     </g>
     <g id="text_4">
      <!-- 6 -->
      <defs>
       <path d="M 33.015625 40.375 
Q 26.375 40.375 22.484375 35.828125 
Q 18.609375 31.296875 18.609375 23.390625 
Q 18.609375 15.53125 22.484375 10.953125 
Q 26.375 6.390625 33.015625 6.390625 
Q 39.65625 6.390625 43.53125 10.953125 
Q 47.40625 15.53125 47.40625 23.390625 
Q 47.40625 31.296875 43.53125 35.828125 
Q 39.65625 40.375 33.015625 40.375 
z
M 52.59375 71.296875 
L 52.59375 62.3125 
Q 48.875 64.0625 45.09375 64.984375 
Q 41.3125 65.921875 37.59375 65.921875 
Q 27.828125 65.921875 22.671875 59.328125 
Q 17.53125 52.734375 16.796875 39.40625 
Q 19.671875 43.65625 24.015625 45.921875 
Q 28.375 48.1875 33.59375 48.1875 
Q 44.578125 48.1875 50.953125 41.515625 
Q 57.328125 34.859375 57.328125 23.390625 
Q 57.328125 12.15625 50.6875 5.359375 
Q 44.046875 -1.421875 33.015625 -1.421875 
Q 20.359375 -1.421875 13.671875 8.265625 
Q 6.984375 17.96875 6.984375 36.375 
Q 6.984375 53.65625 15.1875 63.9375 
Q 23.390625 74.21875 37.203125 74.21875 
Q 40.921875 74.21875 44.703125 73.484375 
Q 48.484375 72.75 52.59375 71.296875 
z
" id="DejaVuSans-36"/>
      </defs>
      <g transform="translate(287.227214 317.076875)scale(0.2 -0.2)">
       <use xlink:href="#DejaVuSans-36"/>
      </g>
     </g>
    </g>
    <g id="xtick_5">
     <g id="line2d_9">
      <path clip-path="url(#p6a2fccaff2)" d="M 56.12 294.88 
L 56.12 6.845228 
" style="fill:none;stroke:#b0b0b0;stroke-linecap:square;stroke-width:0.8;"/>
     </g>
     <g id="line2d_10">
      <defs>
       <path d="M 0 0 
L 0 2 
" id="m6da2af0195" style="stroke:#000000;stroke-width:0.6;"/>
      </defs>
      <g>
       <use style="stroke:#000000;stroke-width:0.6;" x="56.12" xlink:href="#m6da2af0195" y="294.88"/>
      </g>
     </g>
    </g>
    <g id="xtick_6">
     <g id="line2d_11">
      <path clip-path="url(#p6a2fccaff2)" d="M 95.698286 294.88 
L 95.698286 6.845228 
" style="fill:none;stroke:#b0b0b0;stroke-linecap:square;stroke-width:0.8;"/>
     </g>
     <g id="line2d_12">
      <g>
       <use style="stroke:#000000;stroke-width:0.6;" x="95.698286" xlink:href="#m6da2af0195" y="294.88"/>
      </g>
     </g>
    </g>
    <g id="xtick_7">
     <g id="line2d_13">
      <path clip-path="url(#p6a2fccaff2)" d="M 135.276571 294.88 
L 135.276571 6.845228 
" style="fill:none;stroke:#b0b0b0;stroke-linecap:square;stroke-width:0.8;"/>
     </g>
     <g id="line2d_14">
      <g>
       <use style="stroke:#000000;stroke-width:0.6;" x="135.276571" xlink:href="#m6da2af0195" y="294.88"/>
      </g>
     </g>
    </g>
    <g id="xtick_8">
     <g id="line2d_15">
      <path clip-path="url(#p6a2fccaff2)" d="M 174.854857 294.88 
L 174.854857 6.845228 
" style="fill:none;stroke:#b0b0b0;stroke-linecap:square;stroke-width:0.8;"/>
     </g>
     <g id="line2d_16">
      <g>
       <use style="stroke:#000000;stroke-width:0.6;" x="174.854857" xlink:href="#m6da2af0195" y="294.88"/>
      </g>
     </g>
    </g>
    <g id="xtick_9">
     <g id="line2d_17">
      <path clip-path="url(#p6a2fccaff2)" d="M 214.433143 294.88 
L 214.433143 6.845228 
" style="fill:none;stroke:#b0b0b0;stroke-linecap:square;stroke-width:0.8;"/>
     </g>
     <g id="line2d_18">
      <g>
       <use style="stroke:#000000;stroke-width:0.6;" x="214.433143" xlink:href="#m6da2af0195" y="294.88"/>
      </g>
     </g>
    </g>
    <g id="xtick_10">
     <g id="line2d_19">
      <path clip-path="url(#p6a2fccaff2)" d="M 254.011429 294.88 
L 254.011429 6.845228 
" style="fill:none;stroke:#b0b0b0;stroke-linecap:square;stroke-width:0.8;"/>
     </g>
     <g id="line2d_20">
      <g>
       <use style="stroke:#000000;stroke-width:0.6;" x="254.011429" xlink:href="#m6da2af0195" y="294.88"/>
      </g>
     </g>
    </g>
    <g id="xtick_11">
     <g id="line2d_21">
      <path clip-path="url(#p6a2fccaff2)" d="M 293.589714 294.88 
L 293.589714 6.845228 
" style="fill:none;stroke:#b0b0b0;stroke-linecap:square;stroke-width:0.8;"/>
     </g>
     <g id="line2d_22">
      <g>
       <use style="stroke:#000000;stroke-width:0.6;" x="293.589714" xlink:href="#m6da2af0195" y="294.88"/>
      </g>
     </g>
    </g>
    <g id="xtick_12">
     <g id="line2d_23">
      <path clip-path="url(#p6a2fccaff2)" d="M 333.168 294.88 
L 333.168 6.845228 
" style="fill:none;stroke:#b0b0b0;stroke-linecap:square;stroke-width:0.8;"/>
     </g>
     <g id="line2d_24">
      <g>
       <use style="stroke:#000000;stroke-width:0.6;" x="333.168" xlink:href="#m6da2af0195" y="294.88"/>
      </g>
     </g>
    </g>
    <g id="text_5">
     <!-- log10(# f-evals / dimension) -->
     <defs>
      <path d="M 9.421875 75.984375 
L 18.40625 75.984375 
L 18.40625 0 
L 9.421875 0 
z
" id="DejaVuSans-6c"/>
      <path d="M 30.609375 48.390625 
Q 23.390625 48.390625 19.1875 42.75 
Q 14.984375 37.109375 14.984375 27.296875 
Q 14.984375 17.484375 19.15625 11.84375 
Q 23.34375 6.203125 30.609375 6.203125 
Q 37.796875 6.203125 41.984375 11.859375 
Q 46.1875 17.53125 46.1875 27.296875 
Q 46.1875 37.015625 41.984375 42.703125 
Q 37.796875 48.390625 30.609375 48.390625 
z
M 30.609375 56 
Q 42.328125 56 49.015625 48.375 
Q 55.71875 40.765625 55.71875 27.296875 
Q 55.71875 13.875 49.015625 6.21875 
Q 42.328125 -1.421875 30.609375 -1.421875 
Q 18.84375 -1.421875 12.171875 6.21875 
Q 5.515625 13.875 5.515625 27.296875 
Q 5.515625 40.765625 12.171875 48.375 
Q 18.84375 56 30.609375 56 
z
" id="DejaVuSans-6f"/>
      <path d="M 45.40625 27.984375 
Q 45.40625 37.75 41.375 43.109375 
Q 37.359375 48.484375 30.078125 48.484375 
Q 22.859375 48.484375 18.828125 43.109375 
Q 14.796875 37.75 14.796875 27.984375 
Q 14.796875 18.265625 18.828125 12.890625 
Q 22.859375 7.515625 30.078125 7.515625 
Q 37.359375 7.515625 41.375 12.890625 
Q 45.40625 18.265625 45.40625 27.984375 
z
M 54.390625 6.78125 
Q 54.390625 -7.171875 48.1875 -13.984375 
Q 42 -20.796875 29.203125 -20.796875 
Q 24.46875 -20.796875 20.265625 -20.09375 
Q 16.0625 -19.390625 12.109375 -17.921875 
L 12.109375 -9.1875 
Q 16.0625 -11.328125 19.921875 -12.34375 
Q 23.78125 -13.375 27.78125 -13.375 
Q 36.625 -13.375 41.015625 -8.765625 
Q 45.40625 -4.15625 45.40625 5.171875 
L 45.40625 9.625 
Q 42.625 4.78125 38.28125 2.390625 
Q 33.9375 0 27.875 0 
Q 17.828125 0 11.671875 7.65625 
Q 5.515625 15.328125 5.515625 27.984375 
Q 5.515625 40.671875 11.671875 48.328125 
Q 17.828125 56 27.875 56 
Q 33.9375 56 38.28125 53.609375 
Q 42.625 51.21875 45.40625 46.390625 
L 45.40625 54.6875 
L 54.390625 54.6875 
z
" id="DejaVuSans-67"/>
      <path d="M 12.40625 8.296875 
L 28.515625 8.296875 
L 28.515625 63.921875 
L 10.984375 60.40625 
L 10.984375 69.390625 
L 28.421875 72.90625 
L 38.28125 72.90625 
L 38.28125 8.296875 
L 54.390625 8.296875 
L 54.390625 0 
L 12.40625 0 
z
" id="DejaVuSans-31"/>
      <path d="M 31 75.875 
Q 24.46875 64.65625 21.28125 53.65625 
Q 18.109375 42.671875 18.109375 31.390625 
Q 18.109375 20.125 21.3125 9.0625 
Q 24.515625 -2 31 -13.1875 
L 23.1875 -13.1875 
Q 15.875 -1.703125 12.234375 9.375 
Q 8.59375 20.453125 8.59375 31.390625 
Q 8.59375 42.28125 12.203125 53.3125 
Q 15.828125 64.359375 23.1875 75.875 
z
" id="DejaVuSans-28"/>
      <path d="M 51.125 44 
L 36.921875 44 
L 32.8125 27.6875 
L 47.125 27.6875 
z
M 43.796875 71.78125 
L 38.71875 51.515625 
L 52.984375 51.515625 
L 58.109375 71.78125 
L 65.921875 71.78125 
L 60.890625 51.515625 
L 76.125 51.515625 
L 76.125 44 
L 58.984375 44 
L 54.984375 27.6875 
L 70.515625 27.6875 
L 70.515625 20.21875 
L 53.078125 20.21875 
L 48 0 
L 40.1875 0 
L 45.21875 20.21875 
L 30.90625 20.21875 
L 25.875 0 
L 18.015625 0 
L 23.09375 20.21875 
L 7.71875 20.21875 
L 7.71875 27.6875 
L 24.90625 27.6875 
L 29 44 
L 13.28125 44 
L 13.28125 51.515625 
L 30.90625 51.515625 
L 35.890625 71.78125 
z
" id="DejaVuSans-23"/>
      <path id="DejaVuSans-20"/>
      <path d="M 37.109375 75.984375 
L 37.109375 68.5 
L 28.515625 68.5 
Q 23.6875 68.5 21.796875 66.546875 
Q 19.921875 64.59375 19.921875 59.515625 
L 19.921875 54.6875 
L 34.71875 54.6875 
L 34.71875 47.703125 
L 19.921875 47.703125 
L 19.921875 0 
L 10.890625 0 
L 10.890625 47.703125 
L 2.296875 47.703125 
L 2.296875 54.6875 
L 10.890625 54.6875 
L 10.890625 58.5 
Q 10.890625 67.625 15.140625 71.796875 
Q 19.390625 75.984375 28.609375 75.984375 
z
" id="DejaVuSans-66"/>
      <path d="M 4.890625 31.390625 
L 31.203125 31.390625 
L 31.203125 23.390625 
L 4.890625 23.390625 
z
" id="DejaVuSans-2d"/>
      <path d="M 56.203125 29.59375 
L 56.203125 25.203125 
L 14.890625 25.203125 
Q 15.484375 15.921875 20.484375 11.0625 
Q 25.484375 6.203125 34.421875 6.203125 
Q 39.59375 6.203125 44.453125 7.46875 
Q 49.3125 8.734375 54.109375 11.28125 
L 54.109375 2.78125 
Q 49.265625 0.734375 44.1875 -0.34375 
Q 39.109375 -1.421875 33.890625 -1.421875 
Q 20.796875 -1.421875 13.15625 6.1875 
Q 5.515625 13.8125 5.515625 26.8125 
Q 5.515625 40.234375 12.765625 48.109375 
Q 20.015625 56 32.328125 56 
Q 43.359375 56 49.78125 48.890625 
Q 56.203125 41.796875 56.203125 29.59375 
z
M 47.21875 32.234375 
Q 47.125 39.59375 43.09375 43.984375 
Q 39.0625 48.390625 32.421875 48.390625 
Q 24.90625 48.390625 20.390625 44.140625 
Q 15.875 39.890625 15.1875 32.171875 
z
" id="DejaVuSans-65"/>
      <path d="M 2.984375 54.6875 
L 12.5 54.6875 
L 29.59375 8.796875 
L 46.6875 54.6875 
L 56.203125 54.6875 
L 35.6875 0 
L 23.484375 0 
z
" id="DejaVuSans-76"/>
      <path d="M 34.28125 27.484375 
Q 23.390625 27.484375 19.1875 25 
Q 14.984375 22.515625 14.984375 16.5 
Q 14.984375 11.71875 18.140625 8.90625 
Q 21.296875 6.109375 26.703125 6.109375 
Q 34.1875 6.109375 38.703125 11.40625 
Q 43.21875 16.703125 43.21875 25.484375 
L 43.21875 27.484375 
z
M 52.203125 31.203125 
L 52.203125 0 
L 43.21875 0 
L 43.21875 8.296875 
Q 40.140625 3.328125 35.546875 0.953125 
Q 30.953125 -1.421875 24.3125 -1.421875 
Q 15.921875 -1.421875 10.953125 3.296875 
Q 6 8.015625 6 15.921875 
Q 6 25.140625 12.171875 29.828125 
Q 18.359375 34.515625 30.609375 34.515625 
L 43.21875 34.515625 
L 43.21875 35.40625 
Q 43.21875 41.609375 39.140625 45 
Q 35.0625 48.390625 27.6875 48.390625 
Q 23 48.390625 18.546875 47.265625 
Q 14.109375 46.140625 10.015625 43.890625 
L 10.015625 52.203125 
Q 14.9375 54.109375 19.578125 55.046875 
Q 24.21875 56 28.609375 56 
Q 40.484375 56 46.34375 49.84375 
Q 52.203125 43.703125 52.203125 31.203125 
z
" id="DejaVuSans-61"/>
      <path d="M 44.28125 53.078125 
L 44.28125 44.578125 
Q 40.484375 46.53125 36.375 47.5 
Q 32.28125 48.484375 27.875 48.484375 
Q 21.1875 48.484375 17.84375 46.4375 
Q 14.5 44.390625 14.5 40.28125 
Q 14.5 37.15625 16.890625 35.375 
Q 19.28125 33.59375 26.515625 31.984375 
L 29.59375 31.296875 
Q 39.15625 29.25 43.1875 25.515625 
Q 47.21875 21.78125 47.21875 15.09375 
Q 47.21875 7.46875 41.1875 3.015625 
Q 35.15625 -1.421875 24.609375 -1.421875 
Q 20.21875 -1.421875 15.453125 -0.5625 
Q 10.6875 0.296875 5.421875 2 
L 5.421875 11.28125 
Q 10.40625 8.6875 15.234375 7.390625 
Q 20.0625 6.109375 24.8125 6.109375 
Q 31.15625 6.109375 34.5625 8.28125 
Q 37.984375 10.453125 37.984375 14.40625 
Q 37.984375 18.0625 35.515625 20.015625 
Q 33.0625 21.96875 24.703125 23.78125 
L 21.578125 24.515625 
Q 13.234375 26.265625 9.515625 29.90625 
Q 5.8125 33.546875 5.8125 39.890625 
Q 5.8125 47.609375 11.28125 51.796875 
Q 16.75 56 26.8125 56 
Q 31.78125 56 36.171875 55.265625 
Q 40.578125 54.546875 44.28125 53.078125 
z
" id="DejaVuSans-73"/>
      <path d="M 25.390625 72.90625 
L 33.6875 72.90625 
L 8.296875 -9.28125 
L 0 -9.28125 
z
" id="DejaVuSans-2f"/>
      <path d="M 45.40625 46.390625 
L 45.40625 75.984375 
L 54.390625 75.984375 
L 54.390625 0 
L 45.40625 0 
L 45.40625 8.203125 
Q 42.578125 3.328125 38.25 0.953125 
Q 33.9375 -1.421875 27.875 -1.421875 
Q 17.96875 -1.421875 11.734375 6.484375 
Q 5.515625 14.40625 5.515625 27.296875 
Q 5.515625 40.1875 11.734375 48.09375 
Q 17.96875 56 27.875 56 
Q 33.9375 56 38.25 53.625 
Q 42.578125 51.265625 45.40625 46.390625 
z
M 14.796875 27.296875 
Q 14.796875 17.390625 18.875 11.75 
Q 22.953125 6.109375 30.078125 6.109375 
Q 37.203125 6.109375 41.296875 11.75 
Q 45.40625 17.390625 45.40625 27.296875 
Q 45.40625 37.203125 41.296875 42.84375 
Q 37.203125 48.484375 30.078125 48.484375 
Q 22.953125 48.484375 18.875 42.84375 
Q 14.796875 37.203125 14.796875 27.296875 
z
" id="DejaVuSans-64"/>
      <path d="M 9.421875 54.6875 
L 18.40625 54.6875 
L 18.40625 0 
L 9.421875 0 
z
M 9.421875 75.984375 
L 18.40625 75.984375 
L 18.40625 64.59375 
L 9.421875 64.59375 
z
" id="DejaVuSans-69"/>
      <path d="M 52 44.1875 
Q 55.375 50.25 60.0625 53.125 
Q 64.75 56 71.09375 56 
Q 79.640625 56 84.28125 50.015625 
Q 88.921875 44.046875 88.921875 33.015625 
L 88.921875 0 
L 79.890625 0 
L 79.890625 32.71875 
Q 79.890625 40.578125 77.09375 44.375 
Q 74.3125 48.1875 68.609375 48.1875 
Q 61.625 48.1875 57.5625 43.546875 
Q 53.515625 38.921875 53.515625 30.90625 
L 53.515625 0 
L 44.484375 0 
L 44.484375 32.71875 
Q 44.484375 40.625 41.703125 44.40625 
Q 38.921875 48.1875 33.109375 48.1875 
Q 26.21875 48.1875 22.15625 43.53125 
Q 18.109375 38.875 18.109375 30.90625 
L 18.109375 0 
L 9.078125 0 
L 9.078125 54.6875 
L 18.109375 54.6875 
L 18.109375 46.1875 
Q 21.1875 51.21875 25.484375 53.609375 
Q 29.78125 56 35.6875 56 
Q 41.65625 56 45.828125 52.96875 
Q 50 49.953125 52 44.1875 
z
" id="DejaVuSans-6d"/>
      <path d="M 54.890625 33.015625 
L 54.890625 0 
L 45.90625 0 
L 45.90625 32.71875 
Q 45.90625 40.484375 42.875 44.328125 
Q 39.84375 48.1875 33.796875 48.1875 
Q 26.515625 48.1875 22.3125 43.546875 
Q 18.109375 38.921875 18.109375 30.90625 
L 18.109375 0 
L 9.078125 0 
L 9.078125 54.6875 
L 18.109375 54.6875 
L 18.109375 46.1875 
Q 21.34375 51.125 25.703125 53.5625 
Q 30.078125 56 35.796875 56 
Q 45.21875 56 50.046875 50.171875 
Q 54.890625 44.34375 54.890625 33.015625 
z
" id="DejaVuSans-6e"/>
      <path d="M 8.015625 75.875 
L 15.828125 75.875 
Q 23.140625 64.359375 26.78125 53.3125 
Q 30.421875 42.28125 30.421875 31.390625 
Q 30.421875 20.453125 26.78125 9.375 
Q 23.140625 -1.703125 15.828125 -13.1875 
L 8.015625 -13.1875 
Q 14.5 -2 17.703125 9.0625 
Q 20.90625 20.125 20.90625 31.390625 
Q 20.90625 42.671875 17.703125 53.65625 
Q 14.5 64.65625 8.015625 75.875 
z
" id="DejaVuSans-29"/>
     </defs>
     <g transform="translate(73.803219 338.153594)scale(0.17 -0.17)">
      <use xlink:href="#DejaVuSans-6c"/>
      <use x="27.783203" xlink:href="#DejaVuSans-6f"/>
      <use x="88.964844" xlink:href="#DejaVuSans-67"/>
      <use x="152.441406" xlink:href="#DejaVuSans-31"/>
      <use x="216.064453" xlink:href="#DejaVuSans-30"/>
      <use x="279.6875" xlink:href="#DejaVuSans-28"/>
      <use x="318.701172" xlink:href="#DejaVuSans-23"/>
      <use x="402.490234" xlink:href="#DejaVuSans-20"/>
      <use x="434.277344" xlink:href="#DejaVuSans-66"/>
      <use x="469.404297" xlink:href="#DejaVuSans-2d"/>
      <use x="505.488281" xlink:href="#DejaVuSans-65"/>
      <use x="567.011719" xlink:href="#DejaVuSans-76"/>
      <use x="626.191406" xlink:href="#DejaVuSans-61"/>
      <use x="687.470703" xlink:href="#DejaVuSans-6c"/>
      <use x="715.253906" xlink:href="#DejaVuSans-73"/>
      <use x="767.353516" xlink:href="#DejaVuSans-20"/>
      <use x="799.140625" xlink:href="#DejaVuSans-2f"/>
      <use x="832.832031" xlink:href="#DejaVuSans-20"/>
      <use x="864.619141" xlink:href="#DejaVuSans-64"/>
      <use x="928.095703" xlink:href="#DejaVuSans-69"/>
      <use x="955.878906" xlink:href="#DejaVuSans-6d"/>
      <use x="1053.291016" xlink:href="#DejaVuSans-65"/>
      <use x="1114.814453" xlink:href="#DejaVuSans-6e"/>
      <use x="1178.193359" xlink:href="#DejaVuSans-73"/>
      <use x="1230.292969" xlink:href="#DejaVuSans-69"/>
      <use x="1258.076172" xlink:href="#DejaVuSans-6f"/>
      <use x="1319.257812" xlink:href="#DejaVuSans-6e"/>
      <use x="1382.636719" xlink:href="#DejaVuSans-29"/>
     </g>
    </g>
   </g>
   <g id="matplotlib.axis_2">
    <g id="ytick_1">
     <g id="line2d_25">
      <path clip-path="url(#p6a2fccaff2)" d="M 56.12 294.88 
L 333.168 294.88 
" style="fill:none;stroke:#b0b0b0;stroke-linecap:square;stroke-width:0.8;"/>
     </g>
     <g id="line2d_26">
      <defs>
       <path d="M 0 0 
L -3.5 0 
" id="m82fdd2a4ac" style="stroke:#000000;stroke-width:0.8;"/>
      </defs>
      <g>
       <use style="stroke:#000000;stroke-width:0.8;" x="56.12" xlink:href="#m82fdd2a4ac" y="294.88"/>
      </g>
     </g>
     <g id="text_6">
      <!-- 0.0 -->
      <defs>
       <path d="M 10.6875 12.40625 
L 21 12.40625 
L 21 0 
L 10.6875 0 
z
" id="DejaVuSans-2e"/>
      </defs>
      <g transform="translate(23.675 300.95875)scale(0.16 -0.16)">
       <use xlink:href="#DejaVuSans-30"/>
       <use x="63.623047" xlink:href="#DejaVuSans-2e"/>
       <use x="95.410156" xlink:href="#DejaVuSans-30"/>
      </g>
     </g>
    </g>
    <g id="ytick_2">
     <g id="line2d_27">
      <path clip-path="url(#p6a2fccaff2)" d="M 56.12 237.843411 
L 333.168 237.843411 
" style="fill:none;stroke:#b0b0b0;stroke-linecap:square;stroke-width:0.8;"/>
     </g>
     <g id="line2d_28">
      <g>
       <use style="stroke:#000000;stroke-width:0.8;" x="56.12" xlink:href="#m82fdd2a4ac" y="237.843411"/>
      </g>
     </g>
     <g id="text_7">
      <!-- 0.2 -->
      <g transform="translate(23.675 243.922161)scale(0.16 -0.16)">
       <use xlink:href="#DejaVuSans-30"/>
       <use x="63.623047" xlink:href="#DejaVuSans-2e"/>
       <use x="95.410156" xlink:href="#DejaVuSans-32"/>
      </g>
     </g>
    </g>
    <g id="ytick_3">
     <g id="line2d_29">
      <path clip-path="url(#p6a2fccaff2)" d="M 56.12 180.806823 
L 333.168 180.806823 
" style="fill:none;stroke:#b0b0b0;stroke-linecap:square;stroke-width:0.8;"/>
     </g>
     <g id="line2d_30">
      <g>
       <use style="stroke:#000000;stroke-width:0.8;" x="56.12" xlink:href="#m82fdd2a4ac" y="180.806823"/>
      </g>
     </g>
     <g id="text_8">
      <!-- 0.4 -->
      <g transform="translate(23.675 186.885573)scale(0.16 -0.16)">
       <use xlink:href="#DejaVuSans-30"/>
       <use x="63.623047" xlink:href="#DejaVuSans-2e"/>
       <use x="95.410156" xlink:href="#DejaVuSans-34"/>
      </g>
     </g>
    </g>
    <g id="ytick_4">
     <g id="line2d_31">
      <path clip-path="url(#p6a2fccaff2)" d="M 56.12 123.770234 
L 333.168 123.770234 
" style="fill:none;stroke:#b0b0b0;stroke-linecap:square;stroke-width:0.8;"/>
     </g>
     <g id="line2d_32">
      <g>
       <use style="stroke:#000000;stroke-width:0.8;" x="56.12" xlink:href="#m82fdd2a4ac" y="123.770234"/>
      </g>
     </g>
     <g id="text_9">
      <!-- 0.6 -->
      <g transform="translate(23.675 129.848984)scale(0.16 -0.16)">
       <use xlink:href="#DejaVuSans-30"/>
       <use x="63.623047" xlink:href="#DejaVuSans-2e"/>
       <use x="95.410156" xlink:href="#DejaVuSans-36"/>
      </g>
     </g>
    </g>
    <g id="ytick_5">
     <g id="line2d_33">
      <path clip-path="url(#p6a2fccaff2)" d="M 56.12 66.733646 
L 333.168 66.733646 
" style="fill:none;stroke:#b0b0b0;stroke-linecap:square;stroke-width:0.8;"/>
     </g>
     <g id="line2d_34">
      <g>
       <use style="stroke:#000000;stroke-width:0.8;" x="56.12" xlink:href="#m82fdd2a4ac" y="66.733646"/>
      </g>
     </g>
     <g id="text_10">
      <!-- 0.8 -->
      <defs>
       <path d="M 31.78125 34.625 
Q 24.75 34.625 20.71875 30.859375 
Q 16.703125 27.09375 16.703125 20.515625 
Q 16.703125 13.921875 20.71875 10.15625 
Q 24.75 6.390625 31.78125 6.390625 
Q 38.8125 6.390625 42.859375 10.171875 
Q 46.921875 13.96875 46.921875 20.515625 
Q 46.921875 27.09375 42.890625 30.859375 
Q 38.875 34.625 31.78125 34.625 
z
M 21.921875 38.8125 
Q 15.578125 40.375 12.03125 44.71875 
Q 8.5 49.078125 8.5 55.328125 
Q 8.5 64.0625 14.71875 69.140625 
Q 20.953125 74.21875 31.78125 74.21875 
Q 42.671875 74.21875 48.875 69.140625 
Q 55.078125 64.0625 55.078125 55.328125 
Q 55.078125 49.078125 51.53125 44.71875 
Q 48 40.375 41.703125 38.8125 
Q 48.828125 37.15625 52.796875 32.3125 
Q 56.78125 27.484375 56.78125 20.515625 
Q 56.78125 9.90625 50.3125 4.234375 
Q 43.84375 -1.421875 31.78125 -1.421875 
Q 19.734375 -1.421875 13.25 4.234375 
Q 6.78125 9.90625 6.78125 20.515625 
Q 6.78125 27.484375 10.78125 32.3125 
Q 14.796875 37.15625 21.921875 38.8125 
z
M 18.3125 54.390625 
Q 18.3125 48.734375 21.84375 45.5625 
Q 25.390625 42.390625 31.78125 42.390625 
Q 38.140625 42.390625 41.71875 45.5625 
Q 45.3125 48.734375 45.3125 54.390625 
Q 45.3125 60.0625 41.71875 63.234375 
Q 38.140625 66.40625 31.78125 66.40625 
Q 25.390625 66.40625 21.84375 63.234375 
Q 18.3125 60.0625 18.3125 54.390625 
z
" id="DejaVuSans-38"/>
      </defs>
      <g transform="translate(23.675 72.812396)scale(0.16 -0.16)">
       <use xlink:href="#DejaVuSans-30"/>
       <use x="63.623047" xlink:href="#DejaVuSans-2e"/>
       <use x="95.410156" xlink:href="#DejaVuSans-38"/>
      </g>
     </g>
    </g>
    <g id="ytick_6">
     <g id="line2d_35">
      <path clip-path="url(#p6a2fccaff2)" d="M 56.12 9.697057 
L 333.168 9.697057 
" style="fill:none;stroke:#b0b0b0;stroke-linecap:square;stroke-width:0.8;"/>
     </g>
     <g id="line2d_36">
      <g>
       <use style="stroke:#000000;stroke-width:0.8;" x="56.12" xlink:href="#m82fdd2a4ac" y="9.697057"/>
      </g>
     </g>
     <g id="text_11">
      <!-- 1.0 -->
      <g transform="translate(23.675 15.775807)scale(0.16 -0.16)">
       <use xlink:href="#DejaVuSans-31"/>
       <use x="63.623047" xlink:href="#DejaVuSans-2e"/>
       <use x="95.410156" xlink:href="#DejaVuSans-30"/>
      </g>
     </g>
    </g>
    <g id="text_12">
     <!-- Fraction of function,target pairs -->
     <defs>
      <path d="M 9.8125 72.90625 
L 51.703125 72.90625 
L 51.703125 64.59375 
L 19.671875 64.59375 
L 19.671875 43.109375 
L 48.578125 43.109375 
L 48.578125 34.8125 
L 19.671875 34.8125 
L 19.671875 0 
L 9.8125 0 
z
" id="DejaVuSans-46"/>
      <path d="M 41.109375 46.296875 
Q 39.59375 47.171875 37.8125 47.578125 
Q 36.03125 48 33.890625 48 
Q 26.265625 48 22.1875 43.046875 
Q 18.109375 38.09375 18.109375 28.8125 
L 18.109375 0 
L 9.078125 0 
L 9.078125 54.6875 
L 18.109375 54.6875 
L 18.109375 46.1875 
Q 20.953125 51.171875 25.484375 53.578125 
Q 30.03125 56 36.53125 56 
Q 37.453125 56 38.578125 55.875 
Q 39.703125 55.765625 41.0625 55.515625 
z
" id="DejaVuSans-72"/>
      <path d="M 48.78125 52.59375 
L 48.78125 44.1875 
Q 44.96875 46.296875 41.140625 47.34375 
Q 37.3125 48.390625 33.40625 48.390625 
Q 24.65625 48.390625 19.8125 42.84375 
Q 14.984375 37.3125 14.984375 27.296875 
Q 14.984375 17.28125 19.8125 11.734375 
Q 24.65625 6.203125 33.40625 6.203125 
Q 37.3125 6.203125 41.140625 7.25 
Q 44.96875 8.296875 48.78125 10.40625 
L 48.78125 2.09375 
Q 45.015625 0.34375 40.984375 -0.53125 
Q 36.96875 -1.421875 32.421875 -1.421875 
Q 20.0625 -1.421875 12.78125 6.34375 
Q 5.515625 14.109375 5.515625 27.296875 
Q 5.515625 40.671875 12.859375 48.328125 
Q 20.21875 56 33.015625 56 
Q 37.15625 56 41.109375 55.140625 
Q 45.0625 54.296875 48.78125 52.59375 
z
" id="DejaVuSans-63"/>
      <path d="M 18.3125 70.21875 
L 18.3125 54.6875 
L 36.8125 54.6875 
L 36.8125 47.703125 
L 18.3125 47.703125 
L 18.3125 18.015625 
Q 18.3125 11.328125 20.140625 9.421875 
Q 21.96875 7.515625 27.59375 7.515625 
L 36.8125 7.515625 
L 36.8125 0 
L 27.59375 0 
Q 17.1875 0 13.234375 3.875 
Q 9.28125 7.765625 9.28125 18.015625 
L 9.28125 47.703125 
L 2.6875 47.703125 
L 2.6875 54.6875 
L 9.28125 54.6875 
L 9.28125 70.21875 
z
" id="DejaVuSans-74"/>
      <path d="M 8.5 21.578125 
L 8.5 54.6875 
L 17.484375 54.6875 
L 17.484375 21.921875 
Q 17.484375 14.15625 20.5 10.265625 
Q 23.53125 6.390625 29.59375 6.390625 
Q 36.859375 6.390625 41.078125 11.03125 
Q 45.3125 15.671875 45.3125 23.6875 
L 45.3125 54.6875 
L 54.296875 54.6875 
L 54.296875 0 
L 45.3125 0 
L 45.3125 8.40625 
Q 42.046875 3.421875 37.71875 1 
Q 33.40625 -1.421875 27.6875 -1.421875 
Q 18.265625 -1.421875 13.375 4.4375 
Q 8.5 10.296875 8.5 21.578125 
z
M 31.109375 56 
z
" id="DejaVuSans-75"/>
      <path d="M 11.71875 12.40625 
L 22.015625 12.40625 
L 22.015625 4 
L 14.015625 -11.625 
L 7.71875 -11.625 
L 11.71875 4 
z
" id="DejaVuSans-2c"/>
      <path d="M 18.109375 8.203125 
L 18.109375 -20.796875 
L 9.078125 -20.796875 
L 9.078125 54.6875 
L 18.109375 54.6875 
L 18.109375 46.390625 
Q 20.953125 51.265625 25.265625 53.625 
Q 29.59375 56 35.59375 56 
Q 45.5625 56 51.78125 48.09375 
Q 58.015625 40.1875 58.015625 27.296875 
Q 58.015625 14.40625 51.78125 6.484375 
Q 45.5625 -1.421875 35.59375 -1.421875 
Q 29.59375 -1.421875 25.265625 0.953125 
Q 20.953125 3.328125 18.109375 8.203125 
z
M 48.6875 27.296875 
Q 48.6875 37.203125 44.609375 42.84375 
Q 40.53125 48.484375 33.40625 48.484375 
Q 26.265625 48.484375 22.1875 42.84375 
Q 18.109375 37.203125 18.109375 27.296875 
Q 18.109375 17.390625 22.1875 11.75 
Q 26.265625 6.109375 33.40625 6.109375 
Q 40.53125 6.109375 44.609375 11.75 
Q 48.6875 17.390625 48.6875 27.296875 
z
" id="DejaVuSans-70"/>
     </defs>
     <g transform="translate(16.139531 286.001989)rotate(-90)scale(0.17 -0.17)">
      <use xlink:href="#DejaVuSans-46"/>
      <use x="57.410156" xlink:href="#DejaVuSans-72"/>
      <use x="98.523438" xlink:href="#DejaVuSans-61"/>
      <use x="159.802734" xlink:href="#DejaVuSans-63"/>
      <use x="214.783203" xlink:href="#DejaVuSans-74"/>
      <use x="253.992188" xlink:href="#DejaVuSans-69"/>
      <use x="281.775391" xlink:href="#DejaVuSans-6f"/>
      <use x="342.957031" xlink:href="#DejaVuSans-6e"/>
      <use x="406.335938" xlink:href="#DejaVuSans-20"/>
      <use x="438.123047" xlink:href="#DejaVuSans-6f"/>
      <use x="499.304688" xlink:href="#DejaVuSans-66"/>
      <use x="534.509766" xlink:href="#DejaVuSans-20"/>
      <use x="566.296875" xlink:href="#DejaVuSans-66"/>
      <use x="601.501953" xlink:href="#DejaVuSans-75"/>
      <use x="664.880859" xlink:href="#DejaVuSans-6e"/>
      <use x="728.259766" xlink:href="#DejaVuSans-63"/>
      <use x="783.240234" xlink:href="#DejaVuSans-74"/>
      <use x="822.449219" xlink:href="#DejaVuSans-69"/>
      <use x="850.232422" xlink:href="#DejaVuSans-6f"/>
      <use x="911.414062" xlink:href="#DejaVuSans-6e"/>
      <use x="974.792969" xlink:href="#DejaVuSans-2c"/>
      <use x="1006.580078" xlink:href="#DejaVuSans-74"/>
      <use x="1045.789062" xlink:href="#DejaVuSans-61"/>
      <use x="1107.068359" xlink:href="#DejaVuSans-72"/>
      <use x="1148.166016" xlink:href="#DejaVuSans-67"/>
      <use x="1211.642578" xlink:href="#DejaVuSans-65"/>
      <use x="1273.166016" xlink:href="#DejaVuSans-74"/>
      <use x="1312.375" xlink:href="#DejaVuSans-20"/>
      <use x="1344.162109" xlink:href="#DejaVuSans-70"/>
      <use x="1407.638672" xlink:href="#DejaVuSans-61"/>
      <use x="1468.917969" xlink:href="#DejaVuSans-69"/>
      <use x="1496.701172" xlink:href="#DejaVuSans-72"/>
      <use x="1537.814453" xlink:href="#DejaVuSans-73"/>
     </g>
    </g>
   </g>
   <g id="line2d_37">
    <defs>
     <path d="M 0 1.5 
C 0.397805 1.5 0.77937 1.341951 1.06066 1.06066 
C 1.341951 0.77937 1.5 0.397805 1.5 0 
C 1.5 -0.397805 1.341951 -0.77937 1.06066 -1.06066 
C 0.77937 -1.341951 0.397805 -1.5 0 -1.5 
C -0.397805 -1.5 -0.77937 -1.341951 -1.06066 -1.06066 
C -1.341951 -0.77937 -1.5 -0.397805 -1.5 0 
C -1.5 0.397805 -1.341951 0.77937 -1.06066 1.06066 
C -0.77937 1.341951 -0.397805 1.5 0 1.5 
z
" id="m97aae66cc6" style="stroke:#000080;"/>
    </defs>
    <g>
     <use style="fill:#000080;stroke:#000080;" x="71.168109" xlink:href="#m97aae66cc6" y="9.697057"/>
     <use style="fill:#000080;stroke:#000080;" x="71.168109" xlink:href="#m97aae66cc6" y="9.697057"/>
    </g>
   </g>
   <g id="line2d_38">
    <path d="M 28.455965 294.88 
L 28.455965 289.288178 
L 40.370217 289.288178 
L 40.370217 282.577991 
L 47.339607 282.577991 
L 47.339607 279.222897 
L 52.284468 279.222897 
L 52.284468 277.545351 
L 56.12 277.545351 
L 56.12 276.986168 
L 61.903497 276.986168 
L 61.903497 276.426986 
L 64.198719 276.426986 
L 64.198719 275.308622 
L 66.223248 275.308622 
L 66.223248 273.071893 
L 71.168109 273.071893 
L 71.168109 9.697057 
L 333.168 9.697057 
" style="fill:none;stroke:#000080;stroke-linecap:square;stroke-width:1.5;"/>
   </g>
   <g id="line2d_39">
    <defs>
     <path d="M 0 6 
C 1.591219 6 3.117479 5.367802 4.242641 4.242641 
C 5.367802 3.117479 6 1.591219 6 0 
C 6 -1.591219 5.367802 -3.117479 4.242641 -4.242641 
C 3.117479 -5.367802 1.591219 -6 0 -6 
C -1.591219 -6 -3.117479 -5.367802 -4.242641 -4.242641 
C -5.367802 -3.117479 -6 -1.591219 -6 0 
C -6 1.591219 -5.367802 3.117479 -4.242641 4.242641 
C -3.117479 5.367802 -1.591219 6 0 6 
z
" id="m940780d879" style="stroke:#000080;stroke-width:1.5;"/>
    </defs>
    <g>
     <use style="fill-opacity:0;stroke:#000080;stroke-width:1.5;" x="66.223248" xlink:href="#m940780d879" y="273.071893"/>
     <use style="fill-opacity:0;stroke:#000080;stroke-width:1.5;" x="71.168109" xlink:href="#m940780d879" y="273.071893"/>
     <use style="fill-opacity:0;stroke:#000080;stroke-width:1.5;" x="71.168109" xlink:href="#m940780d879" y="273.071893"/>
     <use style="fill-opacity:0;stroke:#000080;stroke-width:1.5;" x="71.168109" xlink:href="#m940780d879" y="9.697057"/>
     <use style="fill-opacity:0;stroke:#000080;stroke-width:1.5;" x="71.168109" xlink:href="#m940780d879" y="9.697057"/>
     <use style="fill-opacity:0;stroke:#000080;stroke-width:1.5;" x="333.168" xlink:href="#m940780d879" y="9.697057"/>
    </g>
   </g>
   <g id="line2d_40">
    <path style="fill:none;stroke:#000080;stroke-linecap:square;stroke-width:1.5;"/>
    <g/>
   </g>
   <g id="line2d_41">
    <defs>
     <path d="M 0 1.5 
C 0.397805 1.5 0.77937 1.341951 1.06066 1.06066 
C 1.341951 0.77937 1.5 0.397805 1.5 0 
C 1.5 -0.397805 1.341951 -0.77937 1.06066 -1.06066 
C 0.77937 -1.341951 0.397805 -1.5 0 -1.5 
C -0.397805 -1.5 -0.77937 -1.341951 -1.06066 -1.06066 
C -1.341951 -0.77937 -1.5 -0.397805 -1.5 0 
C -1.5 0.397805 -1.341951 0.77937 -1.06066 1.06066 
C -0.77937 1.341951 -0.397805 1.5 0 1.5 
z
" id="me211308a5d" style="stroke:#ff00ff;"/>
    </defs>
    <g>
     <use style="fill:#ff00ff;stroke:#ff00ff;" x="147.293646" xlink:href="#me211308a5d" y="9.697057"/>
     <use style="fill:#ff00ff;stroke:#ff00ff;" x="147.293646" xlink:href="#me211308a5d" y="9.697057"/>
    </g>
   </g>
   <g id="line2d_42">
    <path d="M 118.914406 294.88 
L 118.914406 294.320818 
L 120.447081 294.320818 
L 120.528351 293.202453 
L 120.849643 293.202453 
L 120.849643 291.524907 
L 121.242993 291.524907 
L 121.242993 290.406542 
L 121.474753 290.406542 
L 121.474753 287.051449 
L 122.371755 287.051449 
L 122.371755 286.492266 
L 122.660646 286.492266 
L 122.660646 285.933084 
L 122.874172 285.933084 
L 122.874172 285.373902 
L 123.085078 285.373902 
L 123.085078 284.255537 
L 123.224258 284.255537 
L 123.224258 282.577991 
L 123.567356 282.577991 
L 123.567356 281.459626 
L 123.7027 281.459626 
L 123.7027 280.341262 
L 123.903739 280.341262 
L 123.903739 279.222897 
L 124.168185 279.222897 
L 124.168185 278.663715 
L 124.428624 278.663715 
L 124.428624 278.104533 
L 124.557378 278.104533 
L 124.557378 276.986168 
L 124.748719 276.986168 
L 124.748719 276.426986 
L 124.937954 276.426986 
L 124.937954 275.867804 
L 125.5541 275.867804 
L 125.5541 274.749439 
L 125.734717 274.749439 
L 125.794504 273.631075 
L 126.031592 273.631075 
L 126.031592 273.071893 
L 126.148921 273.071893 
L 126.148921 270.835164 
L 126.381204 270.835164 
L 126.381204 269.716799 
L 126.892639 269.716799 
L 126.892639 266.920888 
L 127.05979 266.920888 
L 127.170329 264.684159 
L 127.225332 264.684159 
L 127.225332 263.565795 
L 127.389295 263.565795 
L 127.389295 261.329066 
L 127.551708 261.329066 
L 127.551708 259.092337 
L 127.712602 259.092337 
L 127.819033 257.973972 
L 128.186438 257.973972 
L 128.186438 256.855608 
L 128.341524 256.855608 
L 128.341524 256.296425 
L 128.546153 256.296425 
L 128.546153 255.178061 
L 128.748375 255.178061 
L 128.798561 252.941332 
L 128.997851 252.941332 
L 129.096637 251.263785 
L 129.243759 251.263785 
L 129.341145 249.586238 
L 129.582224 249.586238 
L 129.582224 248.467874 
L 129.867125 248.467874 
L 129.914152 245.112781 
L 130.285813 245.112781 
L 130.377486 241.198505 
L 130.468672 241.198505 
L 130.559378 233.369954 
L 130.694545 233.369954 
L 130.694545 232.251589 
L 131.005861 232.251589 
L 131.093782 230.01486 
L 131.311639 230.01486 
L 131.398014 221.627126 
L 131.612072 221.627126 
L 131.612072 219.390397 
L 131.949115 219.390397 
L 131.949115 218.831215 
L 132.156459 218.831215 
L 132.156459 216.594486 
L 132.361332 216.594486 
L 132.361332 216.035304 
L 132.603999 216.035304 
L 132.684132 211.561846 
L 132.843288 211.561846 
L 132.882847 209.884299 
L 133.000983 209.884299 
L 133.079291 203.174112 
L 133.196088 203.174112 
L 133.273515 202.055748 
L 133.389004 202.055748 
L 133.389004 201.496566 
L 133.880682 201.496566 
L 133.880682 200.937384 
L 134.029181 200.937384 
L 134.102952 198.700655 
L 134.358685 198.700655 
L 134.39491 189.753739 
L 134.503128 189.753739 
L 134.503128 188.635374 
L 134.646368 188.635374 
L 134.681992 186.398645 
L 134.823755 186.398645 
L 134.8942 184.161916 
L 134.999329 184.161916 
L 135.10382 182.48437 
L 135.379395 182.48437 
L 135.447604 180.247641 
L 135.616951 180.247641 
L 135.616951 178.570094 
L 135.851269 178.570094 
L 135.917635 176.333365 
L 135.983745 176.333365 
L 136.082436 172.978271 
L 136.245672 172.978271 
L 136.245672 171.859907 
L 136.407373 171.859907 
L 136.471629 169.623178 
L 136.694654 169.623178 
L 136.757848 165.708902 
L 136.82081 165.708902 
L 136.852205 162.353809 
L 137.163039 162.353809 
L 137.224536 157.321169 
L 137.285815 157.321169 
L 137.316373 155.643622 
L 137.438063 155.643622 
L 137.468351 151.729346 
L 137.558897 151.729346 
L 137.588973 147.255888 
L 138.237678 147.255888 
L 138.295455 145.578342 
L 138.410429 145.578342 
L 138.496158 143.341613 
L 138.581462 143.341613 
L 138.666344 137.74979 
L 138.778873 137.74979 
L 138.778873 137.190608 
L 138.946296 137.190608 
L 139.057012 133.835515 
L 139.194412 133.835515 
L 139.276327 131.598786 
L 139.384945 131.598786 
L 139.438997 129.921239 
L 139.546595 129.921239 
L 139.546595 129.362057 
L 139.680151 129.362057 
L 139.786254 125.447781 
L 139.891706 125.447781 
L 139.996515 122.092688 
L 140.048681 122.092688 
L 140.126634 120.974323 
L 140.230025 120.974323 
L 140.255775 119.855959 
L 140.383954 119.855959 
L 140.434959 117.61923 
L 140.536516 117.61923 
L 140.536516 117.060047 
L 140.712812 117.060047 
L 140.787817 113.704954 
L 140.936852 113.704954 
L 141.035496 106.994767 
L 141.133577 106.994767 
L 141.133577 106.435585 
L 141.328075 106.435585 
L 141.424506 98.607033 
L 141.472518 98.607033 
L 141.568144 96.370304 
L 141.851869 96.370304 
L 141.922075 94.133576 
L 141.96872 94.133576 
L 141.96872 93.574393 
L 142.1079 93.574393 
L 142.200064 90.2193 
L 142.382924 90.2193 
L 142.428336 85.18666 
L 142.496231 85.18666 
L 142.496231 84.627477 
L 142.675983 84.627477 
L 142.742908 81.272384 
L 142.853874 81.272384 
L 142.942135 77.358108 
L 143.008034 77.358108 
L 143.008034 76.798926 
L 143.139078 76.798926 
L 143.139078 75.680562 
L 143.376763 75.680562 
L 143.483724 72.325468 
L 143.505037 72.325468 
L 143.526323 69.529557 
L 143.65349 69.529557 
L 143.69567 67.85201 
L 143.821595 67.85201 
L 143.884213 61.141823 
L 143.946604 61.141823 
L 144.008769 59.464277 
L 144.091308 59.464277 
L 144.193927 54.431636 
L 144.316266 54.431636 
L 144.336572 49.958178 
L 144.598384 49.958178 
L 144.65824 46.603085 
L 144.737725 46.603085 
L 144.737725 46.043903 
L 144.875945 46.043903 
L 144.915234 41.011263 
L 145.013063 41.011263 
L 145.013063 39.892898 
L 145.207068 39.892898 
L 145.303255 33.182711 
L 145.43702 33.182711 
L 145.512992 31.505165 
L 145.588629 31.505165 
L 145.682711 22.558249 
L 145.869343 22.558249 
L 145.869343 21.999066 
L 146.035596 21.999066 
L 146.145545 19.203155 
L 146.381382 19.203155 
L 146.489148 16.966426 
L 146.631793 16.966426 
L 146.684982 15.28888 
L 146.965905 15.28888 
L 147.070079 13.052151 
L 147.190823 13.052151 
L 147.293646 9.697057 
L 333.168 9.697057 
L 333.168 9.697057 
" style="fill:none;stroke:#ff00ff;stroke-linecap:square;stroke-width:1.5;"/>
   </g>
   <g id="line2d_43">
    <defs>
     <path d="M -0 8.485281 
L 5.091169 0 
L 0 -8.485281 
L -5.091169 -0 
z
" id="m4c1250fed3" style="stroke:#ff00ff;stroke-linejoin:miter;stroke-width:1.5;"/>
    </defs>
    <g>
     <use style="fill-opacity:0;stroke:#ff00ff;stroke-linejoin:miter;stroke-width:1.5;" x="143.008034" xlink:href="#m4c1250fed3" y="77.358108"/>
     <use style="fill-opacity:0;stroke:#ff00ff;stroke-linejoin:miter;stroke-width:1.5;" x="147.293646" xlink:href="#m4c1250fed3" y="10.256239"/>
     <use style="fill-opacity:0;stroke:#ff00ff;stroke-linejoin:miter;stroke-width:1.5;" x="147.293646" xlink:href="#m4c1250fed3" y="9.697057"/>
     <use style="fill-opacity:0;stroke:#ff00ff;stroke-linejoin:miter;stroke-width:1.5;" x="147.293646" xlink:href="#m4c1250fed3" y="9.697057"/>
     <use style="fill-opacity:0;stroke:#ff00ff;stroke-linejoin:miter;stroke-width:1.5;" x="333.168" xlink:href="#m4c1250fed3" y="9.697057"/>
    </g>
   </g>
   <g id="line2d_44">
    <path style="fill:none;stroke:#ff00ff;stroke-linecap:square;stroke-width:1.5;"/>
    <g/>
   </g>
   <g id="line2d_45">
    <defs>
     <path d="M 0 1.5 
C 0.397805 1.5 0.77937 1.341951 1.06066 1.06066 
C 1.341951 0.77937 1.5 0.397805 1.5 0 
C 1.5 -0.397805 1.341951 -0.77937 1.06066 -1.06066 
C 0.77937 -1.341951 0.397805 -1.5 0 -1.5 
C -0.397805 -1.5 -0.77937 -1.341951 -1.06066 -1.06066 
C -1.341951 -0.77937 -1.5 -0.397805 -1.5 0 
C -1.5 0.397805 -1.341951 0.77937 -1.06066 1.06066 
C -0.77937 1.341951 -0.397805 1.5 0 1.5 
z
" id="mb9a2739c76" style="stroke:#ff7500;"/>
    </defs>
    <g>
     <use style="fill:#ff7500;stroke:#ff7500;" x="190.362299" xlink:href="#mb9a2739c76" y="9.697057"/>
     <use style="fill:#ff7500;stroke:#ff7500;" x="190.362299" xlink:href="#mb9a2739c76" y="9.697057"/>
    </g>
   </g>
   <g id="line2d_46">
    <path d="M 47.339607 294.88 
L 47.339607 294.320818 
L 52.284468 294.320818 
L 52.284468 293.202453 
L 59.253858 293.202453 
L 59.253858 292.643271 
L 71.168109 292.643271 
L 71.168109 292.084089 
L 72.543934 292.084089 
L 72.543934 291.524907 
L 73.817748 291.524907 
L 73.817748 290.965724 
L 83.784035 290.965724 
L 83.784035 289.84736 
L 88.027221 289.84736 
L 88.027221 289.288178 
L 89.069276 289.288178 
L 89.069276 288.728995 
L 91.427575 288.728995 
L 91.427575 288.169813 
L 92.287186 288.169813 
L 92.287186 287.610631 
L 95.351029 287.610631 
L 95.351029 287.051449 
L 95.698286 287.051449 
L 95.698286 286.492266 
L 96.038666 286.492266 
L 96.038666 285.933084 
L 97.021141 285.933084 
L 97.021141 285.373902 
L 99.67078 285.373902 
L 99.67078 284.81472 
L 100.983527 284.81472 
L 100.983527 284.255537 
L 102.436953 284.255537 
L 102.436953 283.696355 
L 102.895343 283.696355 
L 102.895343 283.137173 
L 103.120034 283.137173 
L 103.120034 282.577991 
L 104.615641 282.577991 
L 104.615641 282.018808 
L 104.819059 282.018808 
L 104.819059 280.900444 
L 105.218813 280.900444 
L 105.218813 280.341262 
L 107.088985 280.341262 
L 107.088985 279.782079 
L 110.014853 279.782079 
L 110.014853 279.222897 
L 110.746395 279.222897 
L 110.746395 278.663715 
L 111.310007 278.663715 
L 111.310007 278.104533 
L 112.384646 278.104533 
L 112.384646 277.545351 
L 113.518374 277.545351 
L 113.518374 276.986168 
L 114.581927 276.986168 
L 114.581927 276.426986 
L 115.256077 276.426986 
L 115.256077 275.867804 
L 116.115688 275.867804 
L 116.115688 275.308622 
L 116.529892 275.308622 
L 116.529892 274.749439 
L 118.735356 274.749439 
L 118.735356 274.190257 
L 119.867168 274.190257 
L 119.867168 273.631075 
L 120.365424 273.631075 
L 120.365424 273.071893 
L 122.003676 273.071893 
L 122.003676 272.51271 
L 122.444434 272.51271 
L 122.444434 271.953528 
L 122.944762 271.953528 
L 122.944762 271.394346 
L 123.430938 271.394346 
L 123.430938 270.835164 
L 124.937954 270.835164 
L 124.937954 270.275981 
L 125.854083 270.275981 
L 125.854083 269.716799 
L 130.559378 269.716799 
L 130.649607 268.598435 
L 130.784069 268.598435 
L 130.784069 268.039252 
L 133.617681 268.039252 
L 133.617681 266.920888 
L 135.616951 266.920888 
L 135.616951 266.361706 
L 136.471629 266.361706 
L 136.471629 265.802523 
L 139.194412 265.802523 
L 139.194412 265.243341 
L 140.434959 265.243341 
L 140.434959 264.684159 
L 142.314579 264.684159 
L 142.382924 263.565795 
L 144.397345 263.565795 
L 144.397345 263.006612 
L 144.618359 263.006612 
L 144.618359 262.44743 
L 144.915234 262.44743 
L 144.915234 261.888248 
L 145.071495 261.888248 
L 145.071495 261.329066 
L 146.327245 261.329066 
L 146.327245 260.769883 
L 146.489148 260.769883 
L 146.489148 259.651519 
L 146.878609 259.651519 
L 146.878609 259.092337 
L 148.159923 259.092337 
L 148.159923 258.533154 
L 148.844693 258.533154 
L 148.844693 257.41479 
L 149.061881 257.41479 
L 149.061881 256.855608 
L 149.771569 256.855608 
L 149.771569 256.296425 
L 150.538207 256.296425 
L 150.538207 255.737243 
L 150.957462 255.737243 
L 150.957462 255.178061 
L 151.108663 255.178061 
L 151.108663 254.618879 
L 152.476064 254.618879 
L 152.476064 254.059696 
L 152.739448 254.059696 
L 152.739448 253.500514 
L 153.446598 253.500514 
L 153.446598 252.941332 
L 154.455596 252.941332 
L 154.455596 252.38215 
L 154.63488 252.38215 
L 154.63488 251.822967 
L 155.291014 251.822967 
L 155.333878 250.704603 
L 155.609922 250.704603 
L 155.609922 250.145421 
L 157.217507 250.145421 
L 157.217507 249.586238 
L 157.92225 249.586238 
L 157.92225 249.027056 
L 158.132707 249.027056 
L 158.132707 248.467874 
L 158.376521 248.467874 
L 158.376521 247.34951 
L 158.625765 247.34951 
L 158.625765 246.790327 
L 158.766584 246.790327 
L 158.766584 246.231145 
L 159.737856 246.231145 
L 159.737856 244.553598 
L 159.968248 244.553598 
L 159.968248 243.435234 
L 160.155215 243.435234 
L 160.24392 241.757687 
L 160.308147 241.757687 
L 160.308147 241.198505 
L 160.594233 241.198505 
L 160.594233 240.639323 
L 160.751137 240.639323 
L 160.79014 233.929136 
L 160.945273 233.929136 
L 161.053039 232.251589 
L 161.19061 232.251589 
L 161.19061 231.692407 
L 161.304417 231.692407 
L 161.304417 230.01486 
L 161.454997 230.01486 
L 161.544716 228.337313 
L 161.567073 228.337313 
L 161.6488 224.98222 
L 161.840442 224.98222 
L 161.840442 223.863855 
L 162.037219 223.863855 
L 162.037219 222.186309 
L 162.195906 222.186309 
L 162.195906 221.627126 
L 162.338907 221.627126 
L 162.374473 219.94958 
L 162.516002 219.94958 
L 162.558234 218.272033 
L 162.663364 218.272033 
L 162.753959 213.798575 
L 163.04343 213.798575 
L 163.145642 206.529206 
L 163.172796 206.529206 
L 163.274244 202.61493 
L 163.381799 202.61493 
L 163.408583 199.259837 
L 163.561787 199.259837 
L 163.561787 198.141472 
L 163.739909 198.141472 
L 163.739909 197.58229 
L 163.909707 197.58229 
L 163.929191 194.227197 
L 164.039189 194.227197 
L 164.129249 189.753739 
L 164.212456 189.753739 
L 164.320661 185.280281 
L 164.339686 185.280281 
L 164.415574 183.602734 
L 164.491128 183.602734 
L 164.572606 180.806823 
L 164.622555 180.806823 
L 164.659921 178.010912 
L 164.746796 178.010912 
L 164.746796 177.451729 
L 164.888571 177.451729 
L 164.94985 174.096636 
L 165.029187 174.096636 
L 165.120276 171.300725 
L 165.240984 171.300725 
L 165.283032 169.623178 
L 165.390685 169.623178 
L 165.432369 166.268085 
L 165.609878 166.268085 
L 165.680372 161.235444 
L 165.826311 161.235444 
L 165.919066 158.439533 
L 165.994063 158.439533 
L 165.994063 157.321169 
L 166.143081 157.321169 
L 166.245497 151.170164 
L 166.268173 151.170164 
L 166.375479 147.255888 
L 166.504485 147.255888 
L 166.61033 143.341613 
L 166.732079 143.341613 
L 166.836536 141.104884 
L 166.847495 141.104884 
L 166.847495 140.545702 
L 167.016466 140.545702 
L 167.016466 139.986519 
L 167.381396 139.986519 
L 167.434415 136.072244 
L 167.534702 136.072244 
L 167.613465 130.480421 
L 167.66055 130.480421 
L 167.676216 128.243692 
L 167.806217 128.243692 
L 167.888904 122.65187 
L 167.940383 122.65187 
L 168.027544 118.178412 
L 168.063306 118.178412 
L 168.078609 113.145772 
L 168.195487 113.145772 
L 168.301512 105.31722 
L 168.316606 105.31722 
L 168.391873 99.725398 
L 168.47678 99.725398 
L 168.47678 99.166216 
L 168.59594 99.166216 
L 168.59594 98.607033 
L 168.714278 98.607033 
L 168.797611 95.811122 
L 169.025922 95.811122 
L 169.025922 95.25194 
L 169.165297 95.25194 
L 169.246477 87.423389 
L 169.308298 87.423389 
L 169.317789 85.745842 
L 169.431277 85.745842 
L 169.511213 81.272384 
L 169.54402 81.272384 
L 169.646723 80.15402 
L 169.702485 80.15402 
L 169.702485 76.798926 
L 169.836501 76.798926 
L 169.942052 75.680562 
L 169.955771 75.680562 
L 170.019653 72.88465 
L 170.07422 72.88465 
L 170.110502 70.647921 
L 170.196366 70.647921 
L 170.196366 68.970375 
L 170.317651 68.970375 
L 170.380204 65.615281 
L 170.495773 65.615281 
L 170.557682 61.141823 
L 170.737715 61.141823 
L 170.772625 59.464277 
L 170.881263 59.464277 
L 170.954746 54.431636 
L 171.07938 54.431636 
L 171.186102 49.958178 
L 171.506528 49.958178 
L 171.573231 48.280632 
L 171.67694 48.280632 
L 171.701737 44.925538 
L 171.821089 44.925538 
L 171.90292 43.247992 
L 172.142077 43.247992 
L 172.178268 41.570445 
L 172.441364 41.570445 
L 172.441364 40.45208 
L 172.73553 40.45208 
L 172.73553 39.333716 
L 173.563051 39.333716 
L 173.563051 38.774534 
L 183.305524 38.774534 
L 183.305524 37.656169 
L 183.642812 37.656169 
L 183.642812 37.096987 
L 183.898615 37.096987 
L 183.898615 35.978622 
L 184.224571 35.978622 
L 184.300143 34.860258 
L 184.347702 34.860258 
L 184.38526 33.741894 
L 184.657557 33.741894 
L 184.713827 30.945982 
L 185.070419 30.945982 
L 185.070419 28.150071 
L 185.202727 28.150071 
L 185.234706 27.031707 
L 185.388126 27.031707 
L 185.388126 25.35416 
L 185.654278 25.35416 
L 185.723831 23.676613 
L 187.648621 23.676613 
L 187.648621 23.117431 
L 188.352582 23.117431 
L 188.352582 22.558249 
L 188.596948 22.558249 
L 188.596948 21.999066 
L 188.915435 21.999066 
L 188.915435 19.762337 
L 189.090523 19.762337 
L 189.131021 18.084791 
L 189.360207 18.084791 
L 189.360207 16.407244 
L 189.785108 16.407244 
L 189.877164 13.052151 
L 189.93588 13.052151 
L 189.998669 11.933786 
L 190.232108 11.933786 
L 190.232108 11.374604 
L 190.362299 11.374604 
L 190.362299 9.697057 
L 333.168 9.697057 
L 333.168 9.697057 
" style="fill:none;stroke:#ff7500;stroke-linecap:square;stroke-width:1.5;"/>
   </g>
   <g id="line2d_47">
    <defs>
     <path d="M 0 -6 
L -1.347084 -1.854102 
L -5.706339 -1.854102 
L -2.179628 0.708204 
L -3.526712 4.854102 
L -0 2.291796 
L 3.526712 4.854102 
L 2.179628 0.708204 
L 5.706339 -1.854102 
L 1.347084 -1.854102 
z
" id="m4be3c773cb" style="stroke:#ff7500;stroke-linejoin:bevel;stroke-width:1.5;"/>
    </defs>
    <g>
     <use style="fill-opacity:0;stroke:#ff7500;stroke-linejoin:bevel;stroke-width:1.5;" x="146.878609" xlink:href="#m4be3c773cb" y="259.651519"/>
     <use style="fill-opacity:0;stroke:#ff7500;stroke-linejoin:bevel;stroke-width:1.5;" x="168.027544" xlink:href="#m4be3c773cb" y="118.737594"/>
     <use style="fill-opacity:0;stroke:#ff7500;stroke-linejoin:bevel;stroke-width:1.5;" x="190.362299" xlink:href="#m4be3c773cb" y="11.374604"/>
     <use style="fill-opacity:0;stroke:#ff7500;stroke-linejoin:bevel;stroke-width:1.5;" x="190.362299" xlink:href="#m4be3c773cb" y="9.697057"/>
     <use style="fill-opacity:0;stroke:#ff7500;stroke-linejoin:bevel;stroke-width:1.5;" x="190.362299" xlink:href="#m4be3c773cb" y="9.697057"/>
     <use style="fill-opacity:0;stroke:#ff7500;stroke-linejoin:bevel;stroke-width:1.5;" x="333.168" xlink:href="#m4be3c773cb" y="9.697057"/>
    </g>
   </g>
   <g id="line2d_48">
    <path style="fill:none;stroke:#ff7500;stroke-linecap:square;stroke-width:1.5;"/>
    <g/>
   </g>
   <g id="line2d_49">
    <defs>
     <path d="M 0 1.5 
C 0.397805 1.5 0.77937 1.341951 1.06066 1.06066 
C 1.341951 0.77937 1.5 0.397805 1.5 0 
C 1.5 -0.397805 1.341951 -0.77937 1.06066 -1.06066 
C 0.77937 -1.341951 0.397805 -1.5 0 -1.5 
C -0.397805 -1.5 -0.77937 -1.341951 -1.06066 -1.06066 
C -1.341951 -0.77937 -1.5 -0.397805 -1.5 0 
C -1.5 0.397805 -1.341951 0.77937 -1.06066 1.06066 
C -0.77937 1.341951 -0.397805 1.5 0 1.5 
z
" id="m03e31229ea" style="stroke:#6495ed;"/>
    </defs>
    <g>
     <use style="fill:#6495ed;stroke:#6495ed;" x="203.24519" xlink:href="#m03e31229ea" y="9.697057"/>
     <use style="fill:#6495ed;stroke:#6495ed;" x="203.24519" xlink:href="#m03e31229ea" y="9.697057"/>
    </g>
   </g>
   <g id="line2d_50">
    <path d="M 28.455965 294.88 
L 28.455965 294.320818 
L 64.198719 294.320818 
L 64.198719 293.761636 
L 78.137499 293.761636 
L 78.137499 293.202453 
L 79.066841 293.202453 
L 79.066841 292.084089 
L 79.948502 292.084089 
L 79.948502 291.524907 
L 94.26507 291.524907 
L 94.26507 290.965724 
L 96.038666 290.965724 
L 96.038666 290.406542 
L 98.249422 290.406542 
L 98.249422 289.84736 
L 98.832144 289.84736 
L 98.832144 289.288178 
L 100.207968 289.288178 
L 100.207968 288.728995 
L 100.470395 288.728995 
L 100.470395 287.610631 
L 101.725597 287.610631 
L 101.725597 287.051449 
L 104.201437 287.051449 
L 104.201437 286.492266 
L 104.615641 286.492266 
L 104.615641 285.933084 
L 108.935392 285.933084 
L 108.935392 285.373902 
L 110.457504 285.373902 
L 110.457504 284.81472 
L 110.602556 284.81472 
L 110.602556 284.255537 
L 110.88904 284.255537 
L 110.88904 283.696355 
L 112.770924 283.696355 
L 112.770924 283.137173 
L 113.880253 283.137173 
L 113.880253 282.577991 
L 114.23467 282.577991 
L 114.23467 281.459626 
L 115.256077 281.459626 
L 115.256077 280.900444 
L 116.115688 280.900444 
L 116.115688 280.341262 
L 119.003236 280.341262 
L 119.003236 278.663715 
L 119.267005 278.663715 
L 119.267005 278.104533 
L 119.867168 278.104533 
L 119.867168 277.545351 
L 121.854208 277.545351 
L 121.854208 276.986168 
L 122.444434 276.986168 
L 122.444434 276.426986 
L 127.004254 276.426986 
L 127.004254 275.867804 
L 127.7659 275.867804 
L 127.819033 274.749439 
L 128.341524 274.749439 
L 128.341524 274.190257 
L 130.007824 274.190257 
L 130.007824 273.631075 
L 130.33171 273.631075 
L 130.33171 273.071893 
L 130.739365 273.071893 
L 130.739365 272.51271 
L 133.040181 272.51271 
L 133.040181 271.953528 
L 133.273515 271.953528 
L 133.273515 271.394346 
L 134.286006 271.394346 
L 134.286006 270.835164 
L 135.81799 270.835164 
L 135.81799 270.275981 
L 135.950722 270.275981 
L 135.983745 269.157617 
L 138.179706 269.157617 
L 138.237678 268.039252 
L 141.734219 268.039252 
L 141.734219 267.48007 
L 142.942135 267.48007 
L 142.942135 266.920888 
L 144.397345 266.920888 
L 144.397345 266.361706 
L 145.37982 266.361706 
L 145.37982 265.802523 
L 146.163802 265.802523 
L 146.218456 264.684159 
L 147.156411 264.684159 
L 147.156411 264.124977 
L 148.369839 264.124977 
L 148.369839 263.565795 
L 149.184767 263.565795 
L 149.184767 263.006612 
L 149.771569 263.006612 
L 149.771569 262.44743 
L 150.353304 262.44743 
L 150.353304 261.888248 
L 150.467326 261.888248 
L 150.467326 261.329066 
L 151.393676 261.329066 
L 151.393676 260.769883 
L 152.234235 260.769883 
L 152.234235 260.210701 
L 152.576877 260.210701 
L 152.639586 258.533154 
L 153.193908 258.533154 
L 153.193908 257.973972 
L 153.601184 257.973972 
L 153.601184 257.41479 
L 155.788044 257.41479 
L 155.829688 256.296425 
L 156.026132 256.296425 
L 156.026132 255.737243 
L 157.313159 255.737243 
L 157.313159 255.178061 
L 157.792872 255.178061 
L 157.894608 254.059696 
L 158.358579 254.059696 
L 158.358579 253.500514 
L 159.233507 253.500514 
L 159.267595 251.822967 
L 159.386372 251.822967 
L 159.386372 251.263785 
L 159.554642 251.263785 
L 159.571378 250.145421 
L 160.602113 250.145421 
L 160.602113 249.586238 
L 160.805716 249.586238 
L 160.805716 249.027056 
L 161.221032 249.027056 
L 161.221032 248.467874 
L 161.372341 248.467874 
L 161.372341 247.908692 
L 161.626549 247.908692 
L 161.626549 247.34951 
L 162.317533 247.34951 
L 162.317533 246.790327 
L 162.586332 246.790327 
L 162.586332 246.231145 
L 163.10483 246.231145 
L 163.186357 245.112781 
L 163.328106 245.112781 
L 163.328106 243.435234 
L 163.75303 243.435234 
L 163.838074 242.316869 
L 164.339686 242.316869 
L 164.440795 241.198505 
L 164.503688 241.198505 
L 164.578857 239.520958 
L 164.722019 239.520958 
L 164.722019 238.961776 
L 164.876289 238.961776 
L 164.955965 236.725047 
L 165.089967 236.725047 
L 165.156578 233.929136 
L 165.265024 233.929136 
L 165.36682 231.133225 
L 165.432369 231.133225 
L 165.432369 230.01486 
L 165.901712 230.01486 
L 165.924847 228.337313 
L 166.097367 228.337313 
L 166.097367 226.100584 
L 166.296476 226.100584 
L 166.324733 224.98222 
L 166.64362 224.98222 
L 166.69896 223.304673 
L 166.776138 223.304673 
L 166.776138 222.186309 
L 166.951255 222.186309 
L 166.96214 221.067944 
L 167.146151 221.067944 
L 167.221352 218.272033 
L 167.349506 218.272033 
L 167.397319 216.594486 
L 167.503095 216.594486 
L 167.613465 213.798575 
L 167.697082 213.798575 
L 167.780295 212.121028 
L 167.971196 212.121028 
L 168.07351 208.206753 
L 168.225847 208.206753 
L 168.321634 204.851659 
L 168.356789 204.851659 
L 168.45684 203.174112 
L 168.556312 203.174112 
L 168.576137 199.259837 
L 168.826927 199.259837 
L 168.904858 196.463926 
L 168.996944 196.463926 
L 169.040393 195.345561 
L 169.150931 195.345561 
L 169.256002 192.54965 
L 169.289299 192.54965 
L 169.393531 190.312921 
L 169.450119 190.312921 
L 169.483043 188.635374 
L 169.614111 188.635374 
L 169.679273 186.957828 
L 169.758067 186.957828 
L 169.868694 181.925187 
L 169.887063 181.925187 
L 169.996865 179.129276 
L 170.092371 179.129276 
L 170.092371 178.570094 
L 170.232392 178.570094 
L 170.27283 174.655818 
L 170.362355 174.655818 
L 170.43364 171.859907 
L 170.48691 171.859907 
L 170.584146 170.18236 
L 170.601767 170.18236 
L 170.685218 165.708902 
L 170.833547 165.708902 
L 170.941802 164.031356 
L 171.019325 164.031356 
L 171.070814 161.794627 
L 171.147759 161.794627 
L 171.164811 158.998715 
L 171.30485 158.998715 
L 171.38917 157.880351 
L 171.573231 157.880351 
L 171.627238 156.202804 
L 171.718249 156.202804 
L 171.792356 153.406893 
L 171.841583 153.406893 
L 171.841583 151.729346 
L 171.972172 151.729346 
L 172.081589 146.696706 
L 172.174251 146.696706 
L 172.24242 144.459977 
L 172.286386 144.459977 
L 172.286386 143.900795 
L 172.405724 143.900795 
L 172.476931 141.664066 
L 172.567491 141.664066 
L 172.657576 138.868155 
L 172.704391 138.868155 
L 172.797639 136.072244 
L 172.905792 136.072244 
L 173.013269 134.394697 
L 173.089629 134.394697 
L 173.089629 133.835515 
L 173.35425 133.835515 
L 173.414166 132.71715 
L 173.588974 132.71715 
L 173.651767 129.921239 
L 173.714331 129.921239 
L 173.714331 129.362057 
L 173.842428 129.362057 
L 173.929717 124.888599 
L 174.363172 124.888599 
L 174.391449 121.533505 
L 174.619488 121.533505 
L 174.619488 120.974323 
L 174.844541 120.974323 
L 174.937165 118.178412 
L 175.002047 118.178412 
L 175.100608 117.060047 
L 179.218479 117.060047 
L 179.218479 116.500865 
L 180.261004 116.500865 
L 180.261004 115.941683 
L 181.324306 115.941683 
L 181.324306 115.382501 
L 181.77835 115.382501 
L 181.77835 114.823318 
L 182.441007 114.823318 
L 182.441007 114.264136 
L 183.174667 114.264136 
L 183.193724 113.145772 
L 183.368486 113.145772 
L 183.368486 112.586589 
L 184.114598 112.586589 
L 184.206623 110.349861 
L 184.228557 110.349861 
L 184.282274 109.231496 
L 184.848898 109.231496 
L 184.94282 106.435585 
L 185.197077 106.435585 
L 185.270376 105.31722 
L 185.410464 105.31722 
L 185.477302 103.080491 
L 185.553109 103.080491 
L 185.654278 101.402945 
L 185.818554 101.402945 
L 185.818554 100.28458 
L 186.18698 100.28458 
L 186.295101 98.607033 
L 186.335693 98.607033 
L 186.342742 97.488669 
L 186.599829 97.488669 
L 186.688131 94.133576 
L 186.72436 94.133576 
L 186.741584 93.015211 
L 186.88901 93.015211 
L 186.902659 91.896847 
L 187.058859 91.896847 
L 187.156608 87.423389 
L 187.333829 87.423389 
L 187.441606 85.18666 
L 187.46308 85.18666 
L 187.46308 84.627477 
L 187.663313 84.627477 
L 187.694288 83.509113 
L 187.932068 83.509113 
L 188.0138 81.831566 
L 188.158678 81.831566 
L 188.253539 80.15402 
L 188.360418 80.15402 
L 188.412047 79.035655 
L 188.567559 79.035655 
L 188.567559 77.917291 
L 188.875946 77.917291 
L 188.875946 76.798926 
L 189.019797 76.798926 
L 189.019797 76.239744 
L 189.1998 76.239744 
L 189.1998 75.121379 
L 189.380891 75.121379 
L 189.414818 72.88465 
L 189.854196 72.88465 
L 189.854196 72.325468 
L 191.682571 72.325468 
L 191.682571 71.207104 
L 192.018925 71.207104 
L 192.018925 70.647921 
L 192.259135 70.647921 
L 192.259135 70.088739 
L 192.475082 70.088739 
L 192.493572 67.292828 
L 192.763706 67.292828 
L 192.763706 66.174463 
L 192.997388 66.174463 
L 192.997388 65.056099 
L 193.401762 65.056099 
L 193.401762 64.496917 
L 193.648884 64.496917 
L 193.674208 62.81937 
L 193.856124 62.81937 
L 193.902722 60.023459 
L 194.033882 60.023459 
L 194.136079 58.905094 
L 194.15734 58.905094 
L 194.262142 57.78673 
L 194.393907 57.78673 
L 194.495088 55.550001 
L 194.736818 55.550001 
L 194.778935 53.872454 
L 194.868227 53.872454 
L 194.939969 51.635725 
L 194.993313 51.635725 
L 195.022051 49.398996 
L 195.300535 49.398996 
L 195.300535 48.280632 
L 195.490961 48.280632 
L 195.490961 47.162267 
L 195.715087 47.162267 
L 195.818959 46.043903 
L 196.051902 46.043903 
L 196.051902 45.484721 
L 196.193545 45.484721 
L 196.287659 42.688809 
L 196.451863 42.688809 
L 196.451863 42.129627 
L 196.644536 42.129627 
L 196.726592 39.892898 
L 200.431423 39.892898 
L 200.431423 39.333716 
L 200.550563 39.333716 
L 200.620578 37.656169 
L 200.887239 37.656169 
L 200.887239 37.096987 
L 201.099123 37.096987 
L 201.099123 36.537805 
L 201.261887 36.537805 
L 201.285542 34.860258 
L 201.442167 34.860258 
L 201.451681 33.182711 
L 201.624922 33.182711 
L 201.627819 32.064347 
L 201.806471 32.064347 
L 201.899383 29.268436 
L 201.959863 29.268436 
L 202.030744 27.590889 
L 202.177948 27.590889 
L 202.226271 25.35416 
L 202.375284 25.35416 
L 202.456211 23.117431 
L 202.501006 23.117431 
L 202.584085 21.439884 
L 202.628548 21.439884 
L 202.688563 17.525609 
L 202.750403 17.525609 
L 202.837013 16.407244 
L 202.868706 16.407244 
L 202.962765 14.170515 
L 202.995565 14.170515 
L 203.00693 13.052151 
L 203.129459 13.052151 
L 203.163929 10.256239 
L 203.24519 10.256239 
L 203.24519 9.697057 
L 333.168 9.697057 
L 333.168 9.697057 
" style="fill:none;stroke:#6495ed;stroke-linecap:square;stroke-width:1.5;"/>
   </g>
   <g id="line2d_51">
    <defs>
     <path d="M -0 6 
L 6 -6 
L -6 -6 
z
" id="m14e69418c1" style="stroke:#6495ed;stroke-linejoin:miter;stroke-width:1.5;"/>
    </defs>
    <g>
     <use style="fill-opacity:0;stroke:#6495ed;stroke-linejoin:miter;stroke-width:1.5;" x="79.948502" xlink:href="#m14e69418c1" y="291.524907"/>
     <use style="fill-opacity:0;stroke:#6495ed;stroke-linejoin:miter;stroke-width:1.5;" x="148.369839" xlink:href="#m14e69418c1" y="264.124977"/>
     <use style="fill-opacity:0;stroke:#6495ed;stroke-linejoin:miter;stroke-width:1.5;" x="185.270376" xlink:href="#m14e69418c1" y="105.31722"/>
     <use style="fill-opacity:0;stroke:#6495ed;stroke-linejoin:miter;stroke-width:1.5;" x="203.24519" xlink:href="#m14e69418c1" y="10.256239"/>
     <use style="fill-opacity:0;stroke:#6495ed;stroke-linejoin:miter;stroke-width:1.5;" x="203.24519" xlink:href="#m14e69418c1" y="9.697057"/>
     <use style="fill-opacity:0;stroke:#6495ed;stroke-linejoin:miter;stroke-width:1.5;" x="333.168" xlink:href="#m14e69418c1" y="9.697057"/>
    </g>
   </g>
   <g id="line2d_52">
    <path style="fill:none;stroke:#6495ed;stroke-linecap:square;stroke-width:1.5;"/>
    <g/>
   </g>
   <g id="line2d_53">
    <defs>
     <path d="M 0 1.5 
C 0.397805 1.5 0.77937 1.341951 1.06066 1.06066 
C 1.341951 0.77937 1.5 0.397805 1.5 0 
C 1.5 -0.397805 1.341951 -0.77937 1.06066 -1.06066 
C 0.77937 -1.341951 0.397805 -1.5 0 -1.5 
C -0.397805 -1.5 -0.77937 -1.341951 -1.06066 -1.06066 
C -1.341951 -0.77937 -1.5 -0.397805 -1.5 0 
C -1.5 0.397805 -1.341951 0.77937 -1.06066 1.06066 
C -0.77937 1.341951 -0.397805 1.5 0 1.5 
z
" id="m2f9cfbb65e" style="stroke:#ff0000;"/>
    </defs>
    <g>
     <use style="fill:#ff0000;stroke:#ff0000;" x="61.903497" xlink:href="#m2f9cfbb65e" y="9.697057"/>
     <use style="fill:#ff0000;stroke:#ff0000;" x="61.903497" xlink:href="#m2f9cfbb65e" y="9.697057"/>
    </g>
   </g>
   <g id="line2d_54">
    <path d="M 28.455965 294.88 
L 28.455965 290.965724 
L 40.370217 290.965724 
L 40.370217 288.728995 
L 47.339607 288.728995 
L 47.339607 287.051449 
L 52.284468 287.051449 
L 52.284468 285.373902 
L 56.12 285.373902 
L 56.12 284.81472 
L 59.253858 284.81472 
L 59.253858 284.255537 
L 61.903497 284.255537 
L 61.903497 9.697057 
L 333.168 9.697057 
" style="fill:none;stroke:#ff0000;stroke-linecap:square;stroke-width:1.5;"/>
   </g>
   <g id="line2d_55">
    <defs>
     <path d="M 0 -6 
L -5.196152 -3 
L -5.196152 3 
L -0 6 
L 5.196152 3 
L 5.196152 -3 
z
" id="med5d174071" style="stroke:#ff0000;stroke-linejoin:miter;stroke-width:1.5;"/>
    </defs>
    <g>
     <use style="fill-opacity:0;stroke:#ff0000;stroke-linejoin:miter;stroke-width:1.5;" x="59.253858" xlink:href="#med5d174071" y="284.255537"/>
     <use style="fill-opacity:0;stroke:#ff0000;stroke-linejoin:miter;stroke-width:1.5;" x="61.903497" xlink:href="#med5d174071" y="284.255537"/>
     <use style="fill-opacity:0;stroke:#ff0000;stroke-linejoin:miter;stroke-width:1.5;" x="61.903497" xlink:href="#med5d174071" y="284.255537"/>
     <use style="fill-opacity:0;stroke:#ff0000;stroke-linejoin:miter;stroke-width:1.5;" x="61.903497" xlink:href="#med5d174071" y="9.697057"/>
     <use style="fill-opacity:0;stroke:#ff0000;stroke-linejoin:miter;stroke-width:1.5;" x="61.903497" xlink:href="#med5d174071" y="9.697057"/>
     <use style="fill-opacity:0;stroke:#ff0000;stroke-linejoin:miter;stroke-width:1.5;" x="333.168" xlink:href="#med5d174071" y="9.697057"/>
    </g>
   </g>
   <g id="line2d_56">
    <path style="fill:none;stroke:#ff0000;stroke-linecap:square;stroke-width:1.5;"/>
    <g/>
   </g>
   <g id="line2d_57">
    <path d="M 333.168 9.697057 
L 363.64328 289.176341 
" style="fill:none;stroke:#6495ed;stroke-linecap:square;stroke-width:1.5;"/>
    <g>
     <use style="fill-opacity:0;stroke:#6495ed;stroke-linejoin:miter;stroke-width:1.5;" x="333.168" xlink:href="#m14e69418c1" y="9.697057"/>
     <use style="fill-opacity:0;stroke:#6495ed;stroke-linejoin:miter;stroke-width:1.5;" x="363.64328" xlink:href="#m14e69418c1" y="289.176341"/>
    </g>
   </g>
   <g id="line2d_58">
    <path d="M 333.168 9.697057 
L 363.64328 220.732435 
" style="fill:none;stroke:#ff7500;stroke-linecap:square;stroke-width:1.5;"/>
    <g>
     <use style="fill-opacity:0;stroke:#ff7500;stroke-linejoin:bevel;stroke-width:1.5;" x="333.168" xlink:href="#m4be3c773cb" y="9.697057"/>
     <use style="fill-opacity:0;stroke:#ff7500;stroke-linejoin:bevel;stroke-width:1.5;" x="363.64328" xlink:href="#m4be3c773cb" y="220.732435"/>
    </g>
   </g>
   <g id="line2d_59">
    <path d="M 333.168 9.697057 
L 363.64328 152.288529 
" style="fill:none;stroke:#ff00ff;stroke-linecap:square;stroke-width:1.5;"/>
    <g>
     <use style="fill-opacity:0;stroke:#ff00ff;stroke-linejoin:miter;stroke-width:1.5;" x="333.168" xlink:href="#m4c1250fed3" y="9.697057"/>
     <use style="fill-opacity:0;stroke:#ff00ff;stroke-linejoin:miter;stroke-width:1.5;" x="363.64328" xlink:href="#m4c1250fed3" y="152.288529"/>
    </g>
   </g>
   <g id="line2d_60">
    <path d="M 333.168 9.697057 
L 363.64328 83.844622 
" style="fill:none;stroke:#000080;stroke-linecap:square;stroke-width:1.5;"/>
    <g>
     <use style="fill-opacity:0;stroke:#000080;stroke-width:1.5;" x="333.168" xlink:href="#m940780d879" y="9.697057"/>
     <use style="fill-opacity:0;stroke:#000080;stroke-width:1.5;" x="363.64328" xlink:href="#m940780d879" y="83.844622"/>
    </g>
   </g>
   <g id="line2d_61">
    <path d="M 333.168 9.697057 
L 363.64328 15.400716 
" style="fill:none;stroke:#ff0000;stroke-linecap:square;stroke-width:1.5;"/>
    <g>
     <use style="fill-opacity:0;stroke:#ff0000;stroke-linejoin:miter;stroke-width:1.5;" x="333.168" xlink:href="#med5d174071" y="9.697057"/>
     <use style="fill-opacity:0;stroke:#ff0000;stroke-linejoin:miter;stroke-width:1.5;" x="363.64328" xlink:href="#med5d174071" y="15.400716"/>
    </g>
   </g>
   <g id="line2d_62">
    <path d="M 333.168 294.88 
L 333.168 9.697057 
" style="fill:none;stroke:#000000;stroke-linecap:square;stroke-width:1.5;"/>
   </g>
   <g id="patch_3">
    <path d="M 56.12 294.88 
L 56.12 6.845228 
" style="fill:none;stroke:#000000;stroke-linecap:square;stroke-linejoin:miter;stroke-width:0.8;"/>
   </g>
   <g id="patch_4">
    <path d="M 333.168 294.88 
L 333.168 6.845228 
" style="fill:none;stroke:#000000;stroke-linecap:square;stroke-linejoin:miter;stroke-width:0.8;"/>
   </g>
   <g id="patch_5">
    <path d="M 56.12 294.88 
L 333.168 294.88 
" style="fill:none;stroke:#000000;stroke-linecap:square;stroke-linejoin:miter;stroke-width:0.8;"/>
   </g>
   <g id="patch_6">
    <path d="M 56.12 6.845228 
L 333.168 6.845228 
" style="fill:none;stroke:#000000;stroke-linecap:square;stroke-linejoin:miter;stroke-width:0.8;"/>
   </g>
   <g id="text_13">
    <!-- f4 -->
    <g transform="translate(369.18424 293.867279)scale(0.17 -0.17)">
     <use xlink:href="#DejaVuSans-66"/>
     <use x="35.205078" xlink:href="#DejaVuSans-34"/>
    </g>
   </g>
   <g id="text_14">
    <!-- f3 -->
    <defs>
     <path d="M 40.578125 39.3125 
Q 47.65625 37.796875 51.625 33 
Q 55.609375 28.21875 55.609375 21.1875 
Q 55.609375 10.40625 48.1875 4.484375 
Q 40.765625 -1.421875 27.09375 -1.421875 
Q 22.515625 -1.421875 17.65625 -0.515625 
Q 12.796875 0.390625 7.625 2.203125 
L 7.625 11.71875 
Q 11.71875 9.328125 16.59375 8.109375 
Q 21.484375 6.890625 26.8125 6.890625 
Q 36.078125 6.890625 40.9375 10.546875 
Q 45.796875 14.203125 45.796875 21.1875 
Q 45.796875 27.640625 41.28125 31.265625 
Q 36.765625 34.90625 28.71875 34.90625 
L 20.21875 34.90625 
L 20.21875 43.015625 
L 29.109375 43.015625 
Q 36.375 43.015625 40.234375 45.921875 
Q 44.09375 48.828125 44.09375 54.296875 
Q 44.09375 59.90625 40.109375 62.90625 
Q 36.140625 65.921875 28.71875 65.921875 
Q 24.65625 65.921875 20.015625 65.03125 
Q 15.375 64.15625 9.8125 62.3125 
L 9.8125 71.09375 
Q 15.4375 72.65625 20.34375 73.4375 
Q 25.25 74.21875 29.59375 74.21875 
Q 40.828125 74.21875 47.359375 69.109375 
Q 53.90625 64.015625 53.90625 55.328125 
Q 53.90625 49.265625 50.4375 45.09375 
Q 46.96875 40.921875 40.578125 39.3125 
z
" id="DejaVuSans-33"/>
    </defs>
    <g transform="translate(369.18424 225.423372)scale(0.17 -0.17)">
     <use xlink:href="#DejaVuSans-66"/>
     <use x="35.205078" xlink:href="#DejaVuSans-33"/>
    </g>
   </g>
   <g id="text_15">
    <!-- f2 -->
    <g transform="translate(369.18424 156.979466)scale(0.17 -0.17)">
     <use xlink:href="#DejaVuSans-66"/>
     <use x="35.205078" xlink:href="#DejaVuSans-32"/>
    </g>
   </g>
   <g id="text_16">
    <!-- f1 -->
    <g transform="translate(369.18424 88.53556)scale(0.17 -0.17)">
     <use xlink:href="#DejaVuSans-66"/>
     <use x="35.205078" xlink:href="#DejaVuSans-31"/>
    </g>
   </g>
   <g id="text_17">
    <!-- f5 -->
    <defs>
     <path d="M 10.796875 72.90625 
L 49.515625 72.90625 
L 49.515625 64.59375 
L 19.828125 64.59375 
L 19.828125 46.734375 
Q 21.96875 47.46875 24.109375 47.828125 
Q 26.265625 48.1875 28.421875 48.1875 
Q 40.625 48.1875 47.75 41.5 
Q 54.890625 34.8125 54.890625 23.390625 
Q 54.890625 11.625 47.5625 5.09375 
Q 40.234375 -1.421875 26.90625 -1.421875 
Q 22.3125 -1.421875 17.546875 -0.640625 
Q 12.796875 0.140625 7.71875 1.703125 
L 7.71875 11.625 
Q 12.109375 9.234375 16.796875 8.0625 
Q 21.484375 6.890625 26.703125 6.890625 
Q 35.15625 6.890625 40.078125 11.328125 
Q 45.015625 15.765625 45.015625 23.390625 
Q 45.015625 31 40.078125 35.4375 
Q 35.15625 39.890625 26.703125 39.890625 
Q 22.75 39.890625 18.8125 39.015625 
Q 14.890625 38.140625 10.796875 36.28125 
z
" id="DejaVuSans-35"/>
    </defs>
    <g transform="translate(369.18424 20.091654)scale(0.17 -0.17)">
     <use xlink:href="#DejaVuSans-66"/>
     <use x="35.205078" xlink:href="#DejaVuSans-35"/>
    </g>
   </g>
   <g id="text_18">
    <!-- bbob -->
    <defs>
     <path d="M 48.6875 27.296875 
Q 48.6875 37.203125 44.609375 42.84375 
Q 40.53125 48.484375 33.40625 48.484375 
Q 26.265625 48.484375 22.1875 42.84375 
Q 18.109375 37.203125 18.109375 27.296875 
Q 18.109375 17.390625 22.1875 11.75 
Q 26.265625 6.109375 33.40625 6.109375 
Q 40.53125 6.109375 44.609375 11.75 
Q 48.6875 17.390625 48.6875 27.296875 
z
M 18.109375 46.390625 
Q 20.953125 51.265625 25.265625 53.625 
Q 29.59375 56 35.59375 56 
Q 45.5625 56 51.78125 48.09375 
Q 58.015625 40.1875 58.015625 27.296875 
Q 58.015625 14.40625 51.78125 6.484375 
Q 45.5625 -1.421875 35.59375 -1.421875 
Q 29.59375 -1.421875 25.265625 0.953125 
Q 20.953125 3.328125 18.109375 8.203125 
L 18.109375 0 
L 9.078125 0 
L 9.078125 75.984375 
L 18.109375 75.984375 
z
" id="DejaVuSans-62"/>
    </defs>
    <g transform="translate(58.89048 17.475982)scale(0.102 -0.102)">
     <use xlink:href="#DejaVuSans-62"/>
     <use x="63.476562" xlink:href="#DejaVuSans-62"/>
     <use x="126.953125" xlink:href="#DejaVuSans-6f"/>
     <use x="188.134766" xlink:href="#DejaVuSans-62"/>
    </g>
    <!-- Separable functions, 5-D -->
    <defs>
     <path d="M 53.515625 70.515625 
L 53.515625 60.890625 
Q 47.90625 63.578125 42.921875 64.890625 
Q 37.9375 66.21875 33.296875 66.21875 
Q 25.25 66.21875 20.875 63.09375 
Q 16.5 59.96875 16.5 54.203125 
Q 16.5 49.359375 19.40625 46.890625 
Q 22.3125 44.4375 30.421875 42.921875 
L 36.375 41.703125 
Q 47.40625 39.59375 52.65625 34.296875 
Q 57.90625 29 57.90625 20.125 
Q 57.90625 9.515625 50.796875 4.046875 
Q 43.703125 -1.421875 29.984375 -1.421875 
Q 24.8125 -1.421875 18.96875 -0.25 
Q 13.140625 0.921875 6.890625 3.21875 
L 6.890625 13.375 
Q 12.890625 10.015625 18.65625 8.296875 
Q 24.421875 6.59375 29.984375 6.59375 
Q 38.421875 6.59375 43.015625 9.90625 
Q 47.609375 13.234375 47.609375 19.390625 
Q 47.609375 24.75 44.3125 27.78125 
Q 41.015625 30.8125 33.5 32.328125 
L 27.484375 33.5 
Q 16.453125 35.6875 11.515625 40.375 
Q 6.59375 45.0625 6.59375 53.421875 
Q 6.59375 63.09375 13.40625 68.65625 
Q 20.21875 74.21875 32.171875 74.21875 
Q 37.3125 74.21875 42.625 73.28125 
Q 47.953125 72.359375 53.515625 70.515625 
z
" id="DejaVuSans-53"/>
     <path d="M 19.671875 64.796875 
L 19.671875 8.109375 
L 31.59375 8.109375 
Q 46.6875 8.109375 53.6875 14.9375 
Q 60.6875 21.78125 60.6875 36.53125 
Q 60.6875 51.171875 53.6875 57.984375 
Q 46.6875 64.796875 31.59375 64.796875 
z
M 9.8125 72.90625 
L 30.078125 72.90625 
Q 51.265625 72.90625 61.171875 64.09375 
Q 71.09375 55.28125 71.09375 36.53125 
Q 71.09375 17.671875 61.125 8.828125 
Q 51.171875 0 30.078125 0 
L 9.8125 0 
z
" id="DejaVuSans-44"/>
    </defs>
    <g transform="translate(58.89048 28.89775)scale(0.102 -0.102)">
     <use xlink:href="#DejaVuSans-53"/>
     <use x="63.476562" xlink:href="#DejaVuSans-65"/>
     <use x="125" xlink:href="#DejaVuSans-70"/>
     <use x="188.476562" xlink:href="#DejaVuSans-61"/>
     <use x="249.755859" xlink:href="#DejaVuSans-72"/>
     <use x="290.869141" xlink:href="#DejaVuSans-61"/>
     <use x="352.148438" xlink:href="#DejaVuSans-62"/>
     <use x="415.625" xlink:href="#DejaVuSans-6c"/>
     <use x="443.408203" xlink:href="#DejaVuSans-65"/>
     <use x="504.931641" xlink:href="#DejaVuSans-20"/>
     <use x="536.71875" xlink:href="#DejaVuSans-66"/>
     <use x="571.923828" xlink:href="#DejaVuSans-75"/>
     <use x="635.302734" xlink:href="#DejaVuSans-6e"/>
     <use x="698.681641" xlink:href="#DejaVuSans-63"/>
     <use x="753.662109" xlink:href="#DejaVuSans-74"/>
     <use x="792.871094" xlink:href="#DejaVuSans-69"/>
     <use x="820.654297" xlink:href="#DejaVuSans-6f"/>
     <use x="881.835938" xlink:href="#DejaVuSans-6e"/>
     <use x="945.214844" xlink:href="#DejaVuSans-73"/>
     <use x="997.314453" xlink:href="#DejaVuSans-2c"/>
     <use x="1029.101562" xlink:href="#DejaVuSans-20"/>
     <use x="1060.888672" xlink:href="#DejaVuSans-35"/>
     <use x="1124.511719" xlink:href="#DejaVuSans-2d"/>
     <use x="1160.595703" xlink:href="#DejaVuSans-44"/>
    </g>
    <!-- 51 targets: 100..1e-08 -->
    <defs>
     <path d="M 11.71875 12.40625 
L 22.015625 12.40625 
L 22.015625 0 
L 11.71875 0 
z
M 11.71875 51.703125 
L 22.015625 51.703125 
L 22.015625 39.3125 
L 11.71875 39.3125 
z
" id="DejaVuSans-3a"/>
    </defs>
    <g transform="translate(58.89048 40.319519)scale(0.102 -0.102)">
     <use xlink:href="#DejaVuSans-35"/>
     <use x="63.623047" xlink:href="#DejaVuSans-31"/>
     <use x="127.246094" xlink:href="#DejaVuSans-20"/>
     <use x="159.033203" xlink:href="#DejaVuSans-74"/>
     <use x="198.242188" xlink:href="#DejaVuSans-61"/>
     <use x="259.521484" xlink:href="#DejaVuSans-72"/>
     <use x="300.619141" xlink:href="#DejaVuSans-67"/>
     <use x="364.095703" xlink:href="#DejaVuSans-65"/>
     <use x="425.619141" xlink:href="#DejaVuSans-74"/>
     <use x="464.828125" xlink:href="#DejaVuSans-73"/>
     <use x="516.927734" xlink:href="#DejaVuSans-3a"/>
     <use x="550.619141" xlink:href="#DejaVuSans-20"/>
     <use x="582.40625" xlink:href="#DejaVuSans-31"/>
     <use x="646.029297" xlink:href="#DejaVuSans-30"/>
     <use x="709.652344" xlink:href="#DejaVuSans-30"/>
     <use x="773.275391" xlink:href="#DejaVuSans-2e"/>
     <use x="805.0625" xlink:href="#DejaVuSans-2e"/>
     <use x="836.849609" xlink:href="#DejaVuSans-31"/>
     <use x="900.472656" xlink:href="#DejaVuSans-65"/>
     <use x="961.996094" xlink:href="#DejaVuSans-2d"/>
     <use x="998.080078" xlink:href="#DejaVuSans-30"/>
     <use x="1061.703125" xlink:href="#DejaVuSans-38"/>
    </g>
    <!-- 15 instances -->
    <g transform="translate(58.89048 51.741288)scale(0.102 -0.102)">
     <use xlink:href="#DejaVuSans-31"/>
     <use x="63.623047" xlink:href="#DejaVuSans-35"/>
     <use x="127.246094" xlink:href="#DejaVuSans-20"/>
     <use x="159.033203" xlink:href="#DejaVuSans-69"/>
     <use x="186.816406" xlink:href="#DejaVuSans-6e"/>
     <use x="250.195312" xlink:href="#DejaVuSans-73"/>
     <use x="302.294922" xlink:href="#DejaVuSans-74"/>
     <use x="341.503906" xlink:href="#DejaVuSans-61"/>
     <use x="402.783203" xlink:href="#DejaVuSans-6e"/>
     <use x="466.162109" xlink:href="#DejaVuSans-63"/>
     <use x="521.142578" xlink:href="#DejaVuSans-65"/>
     <use x="582.666016" xlink:href="#DejaVuSans-73"/>
    </g>
   </g>
   <g id="text_19">
    <!-- v2.4 -->
    <g style="fill:#808080;" transform="translate(183.733063 289.919965)scale(0.1 -0.1)">
     <use xlink:href="#DejaVuSans-76"/>
     <use x="59.179688" xlink:href="#DejaVuSans-32"/>
     <use x="122.802734" xlink:href="#DejaVuSans-2e"/>
     <use x="154.589844" xlink:href="#DejaVuSans-34"/>
    </g>
   </g>
  </g>
 </g>
 <defs>
  <clipPath id="p6a2fccaff2">
   <rect height="288.034772" width="277.048" x="56.12" y="6.845228"/>
  </clipPath>
 </defs>
</svg>
