<?xml version="1.0" encoding="utf-8" standalone="no"?>
<!DOCTYPE svg PUBLIC "-//W3C//DTD SVG 1.1//EN"
  "http://www.w3.org/Graphics/SVG/1.1/DTD/svg11.dtd">
<!-- Created with matplotlib (http://matplotlib.org/) -->
<svg height="345.6pt" version="1.1" viewBox="0 0 460.8 345.6" width="460.8pt" xmlns="http://www.w3.org/2000/svg" xmlns:xlink="http://www.w3.org/1999/xlink">
 <defs>
  <style type="text/css">
*{stroke-linecap:butt;stroke-linejoin:round;}
  </style>
 </defs>
 <g id="figure_1">
  <g id="patch_1">
   <path d="M 0 345.6 
L 460.8 345.6 
L 460.8 0 
L 0 0 
z
" style="fill:#ffffff;"/>
  </g>
  <g id="axes_1">
   <g id="patch_2">
    <path d="M 56.12 294.88 
L 333.168 294.88 
L 333.168 6.845228 
L 56.12 6.845228 
z
" style="fill:#ffffff;"/>
   </g>
   <g id="matplotlib.axis_1">
    <g id="xtick_1">
     <g id="line2d_1">
      <path clip-path="url(#p4579c8a6ca)" d="M 56.12 294.88 
L 56.12 6.845228 
" style="fill:none;stroke:#b0b0b0;stroke-linecap:square;stroke-width:0.8;"/>
     </g>
     <g id="line2d_2">
      <defs>
       <path d="M 0 0 
L 0 3.5 
" id="m3bc3dad9bd" style="stroke:#000000;stroke-width:0.8;"/>
      </defs>
      <g>
       <use style="stroke:#000000;stroke-width:0.8;" x="56.12" xlink:href="#m3bc3dad9bd" y="294.88"/>
      </g>
     </g>
     <g id="text_1">
      <!-- 0 -->
      <defs>
       <path d="M 31.78125 66.40625 
Q 24.171875 66.40625 20.328125 58.90625 
Q 16.5 51.421875 16.5 36.375 
Q 16.5 21.390625 20.328125 13.890625 
Q 24.171875 6.390625 31.78125 6.390625 
Q 39.453125 6.390625 43.28125 13.890625 
Q 47.125 21.390625 47.125 36.375 
Q 47.125 51.421875 43.28125 58.90625 
Q 39.453125 66.40625 31.78125 66.40625 
z
M 31.78125 74.21875 
Q 44.046875 74.21875 50.515625 64.515625 
Q 56.984375 54.828125 56.984375 36.375 
Q 56.984375 17.96875 50.515625 8.265625 
Q 44.046875 -1.421875 31.78125 -1.421875 
Q 19.53125 -1.421875 13.0625 8.265625 
Q 6.59375 17.96875 6.59375 36.375 
Q 6.59375 54.828125 13.0625 64.515625 
Q 19.53125 74.21875 31.78125 74.21875 
z
" id="DejaVuSans-30"/>
      </defs>
      <g transform="translate(49.7575 317.076875)scale(0.2 -0.2)">
       <use xlink:href="#DejaVuSans-30"/>
      </g>
     </g>
    </g>
    <g id="xtick_2">
     <g id="line2d_3">
      <path clip-path="url(#p4579c8a6ca)" d="M 135.276571 294.88 
L 135.276571 6.845228 
" style="fill:none;stroke:#b0b0b0;stroke-linecap:square;stroke-width:0.8;"/>
     </g>
     <g id="line2d_4">
      <g>
       <use style="stroke:#000000;stroke-width:0.8;" x="135.276571" xlink:href="#m3bc3dad9bd" y="294.88"/>
      </g>
     </g>
     <g id="text_2">
      <!-- 2 -->
      <defs>
       <path d="M 19.1875 8.296875 
L 53.609375 8.296875 
L 53.609375 0 
L 7.328125 0 
L 7.328125 8.296875 
Q 12.9375 14.109375 22.625 23.890625 
Q 32.328125 33.6875 34.8125 36.53125 
Q 39.546875 41.84375 41.421875 45.53125 
Q 43.3125 49.21875 43.3125 52.78125 
Q 43.3125 58.59375 39.234375 62.25 
Q 35.15625 65.921875 28.609375 65.921875 
Q 23.96875 65.921875 18.8125 64.3125 
Q 13.671875 62.703125 7.8125 59.421875 
L 7.8125 69.390625 
Q 13.765625 71.78125 18.9375 73 
Q 24.125 74.21875 28.421875 74.21875 
Q 39.75 74.21875 46.484375 68.546875 
Q 53.21875 62.890625 53.21875 53.421875 
Q 53.21875 48.921875 51.53125 44.890625 
Q 49.859375 40.875 45.40625 35.40625 
Q 44.1875 33.984375 37.640625 27.21875 
Q 31.109375 20.453125 19.1875 8.296875 
z
" id="DejaVuSans-32"/>
      </defs>
      <g transform="translate(128.914071 317.076875)scale(0.2 -0.2)">
       <use xlink:href="#DejaVuSans-32"/>
      </g>
     </g>
    </g>
    <g id="xtick_3">
     <g id="line2d_5">
      <path clip-path="url(#p4579c8a6ca)" d="M 214.433143 294.88 
L 214.433143 6.845228 
" style="fill:none;stroke:#b0b0b0;stroke-linecap:square;stroke-width:0.8;"/>
     </g>
     <g id="line2d_6">
      <g>
       <use style="stroke:#000000;stroke-width:0.8;" x="214.433143" xlink:href="#m3bc3dad9bd" y="294.88"/>
      </g>
     </g>
     <g id="text_3">
      <!-- 4 -->
      <defs>
       <path d="M 37.796875 64.3125 
L 12.890625 25.390625 
L 37.796875 25.390625 
z
M 35.203125 72.90625 
L 47.609375 72.90625 
L 47.609375 25.390625 
L 58.015625 25.390625 
L 58.015625 17.1875 
L 47.609375 17.1875 
L 47.609375 0 
L 37.796875 0 
L 37.796875 17.1875 
L 4.890625 17.1875 
L 4.890625 26.703125 
z
" id="DejaVuSans-34"/>
      </defs>
      <g transform="translate(208.070643 317.076875)scale(0.2 -0.2)">
       <use xlink:href="#DejaVuSans-34"/>
      </g>
     </g>
    </g>
    <g id="xtick_4">
     <g id="line2d_7">
      <path clip-path="url(#p4579c8a6ca)" d="M 293.589714 294.88 
L 293.589714 6.845228 
" style="fill:none;stroke:#b0b0b0;stroke-linecap:square;stroke-width:0.8;"/>
     </g>
     <g id="line2d_8">
      <g>
       <use style="stroke:#000000;stroke-width:0.8;" x="293.589714" xlink:href="#m3bc3dad9bd" y="294.88"/>
      </g>
     </g>
     <g id="text_4">
      <!-- 6 -->
      <defs>
       <path d="M 33.015625 40.375 
Q 26.375 40.375 22.484375 35.828125 
Q 18.609375 31.296875 18.609375 23.390625 
Q 18.609375 15.53125 22.484375 10.953125 
Q 26.375 6.390625 33.015625 6.390625 
Q 39.65625 6.390625 43.53125 10.953125 
Q 47.40625 15.53125 47.40625 23.390625 
Q 47.40625 31.296875 43.53125 35.828125 
Q 39.65625 40.375 33.015625 40.375 
z
M 52.59375 71.296875 
L 52.59375 62.3125 
Q 48.875 64.0625 45.09375 64.984375 
Q 41.3125 65.921875 37.59375 65.921875 
Q 27.828125 65.921875 22.671875 59.328125 
Q 17.53125 52.734375 16.796875 39.40625 
Q 19.671875 43.65625 24.015625 45.921875 
Q 28.375 48.1875 33.59375 48.1875 
Q 44.578125 48.1875 50.953125 41.515625 
Q 57.328125 34.859375 57.328125 23.390625 
Q 57.328125 12.15625 50.6875 5.359375 
Q 44.046875 -1.421875 33.015625 -1.421875 
Q 20.359375 -1.421875 13.671875 8.265625 
Q 6.984375 17.96875 6.984375 36.375 
Q 6.984375 53.65625 15.1875 63.9375 
Q 23.390625 74.21875 37.203125 74.21875 
Q 40.921875 74.21875 44.703125 73.484375 
Q 48.484375 72.75 52.59375 71.296875 
z
" id="DejaVuSans-36"/>
      </defs>
      <g transform="translate(287.227214 317.076875)scale(0.2 -0.2)">
       <use xlink:href="#DejaVuSans-36"/>
      </g>
     </g>
    </g>
    <g id="xtick_5">
     <g id="line2d_9">
      <path clip-path="url(#p4579c8a6ca)" d="M 56.12 294.88 
L 56.12 6.845228 
" style="fill:none;stroke:#b0b0b0;stroke-linecap:square;stroke-width:0.8;"/>
     </g>
     <g id="line2d_10">
      <defs>
       <path d="M 0 0 
L 0 2 
" id="ma501d5892f" style="stroke:#000000;stroke-width:0.6;"/>
      </defs>
      <g>
       <use style="stroke:#000000;stroke-width:0.6;" x="56.12" xlink:href="#ma501d5892f" y="294.88"/>
      </g>
     </g>
    </g>
    <g id="xtick_6">
     <g id="line2d_11">
      <path clip-path="url(#p4579c8a6ca)" d="M 95.698286 294.88 
L 95.698286 6.845228 
" style="fill:none;stroke:#b0b0b0;stroke-linecap:square;stroke-width:0.8;"/>
     </g>
     <g id="line2d_12">
      <g>
       <use style="stroke:#000000;stroke-width:0.6;" x="95.698286" xlink:href="#ma501d5892f" y="294.88"/>
      </g>
     </g>
    </g>
    <g id="xtick_7">
     <g id="line2d_13">
      <path clip-path="url(#p4579c8a6ca)" d="M 135.276571 294.88 
L 135.276571 6.845228 
" style="fill:none;stroke:#b0b0b0;stroke-linecap:square;stroke-width:0.8;"/>
     </g>
     <g id="line2d_14">
      <g>
       <use style="stroke:#000000;stroke-width:0.6;" x="135.276571" xlink:href="#ma501d5892f" y="294.88"/>
      </g>
     </g>
    </g>
    <g id="xtick_8">
     <g id="line2d_15">
      <path clip-path="url(#p4579c8a6ca)" d="M 174.854857 294.88 
L 174.854857 6.845228 
" style="fill:none;stroke:#b0b0b0;stroke-linecap:square;stroke-width:0.8;"/>
     </g>
     <g id="line2d_16">
      <g>
       <use style="stroke:#000000;stroke-width:0.6;" x="174.854857" xlink:href="#ma501d5892f" y="294.88"/>
      </g>
     </g>
    </g>
    <g id="xtick_9">
     <g id="line2d_17">
      <path clip-path="url(#p4579c8a6ca)" d="M 214.433143 294.88 
L 214.433143 6.845228 
" style="fill:none;stroke:#b0b0b0;stroke-linecap:square;stroke-width:0.8;"/>
     </g>
     <g id="line2d_18">
      <g>
       <use style="stroke:#000000;stroke-width:0.6;" x="214.433143" xlink:href="#ma501d5892f" y="294.88"/>
      </g>
     </g>
    </g>
    <g id="xtick_10">
     <g id="line2d_19">
      <path clip-path="url(#p4579c8a6ca)" d="M 254.011429 294.88 
L 254.011429 6.845228 
" style="fill:none;stroke:#b0b0b0;stroke-linecap:square;stroke-width:0.8;"/>
     </g>
     <g id="line2d_20">
      <g>
       <use style="stroke:#000000;stroke-width:0.6;" x="254.011429" xlink:href="#ma501d5892f" y="294.88"/>
      </g>
     </g>
    </g>
    <g id="xtick_11">
     <g id="line2d_21">
      <path clip-path="url(#p4579c8a6ca)" d="M 293.589714 294.88 
L 293.589714 6.845228 
" style="fill:none;stroke:#b0b0b0;stroke-linecap:square;stroke-width:0.8;"/>
     </g>
     <g id="line2d_22">
      <g>
       <use style="stroke:#000000;stroke-width:0.6;" x="293.589714" xlink:href="#ma501d5892f" y="294.88"/>
      </g>
     </g>
    </g>
    <g id="xtick_12">
     <g id="line2d_23">
      <path clip-path="url(#p4579c8a6ca)" d="M 333.168 294.88 
L 333.168 6.845228 
" style="fill:none;stroke:#b0b0b0;stroke-linecap:square;stroke-width:0.8;"/>
     </g>
     <g id="line2d_24">
      <g>
       <use style="stroke:#000000;stroke-width:0.6;" x="333.168" xlink:href="#ma501d5892f" y="294.88"/>
      </g>
     </g>
    </g>
    <g id="text_5">
     <!-- log10(# f-evals / dimension) -->
     <defs>
      <path d="M 9.421875 75.984375 
L 18.40625 75.984375 
L 18.40625 0 
L 9.421875 0 
z
" id="DejaVuSans-6c"/>
      <path d="M 30.609375 48.390625 
Q 23.390625 48.390625 19.1875 42.75 
Q 14.984375 37.109375 14.984375 27.296875 
Q 14.984375 17.484375 19.15625 11.84375 
Q 23.34375 6.203125 30.609375 6.203125 
Q 37.796875 6.203125 41.984375 11.859375 
Q 46.1875 17.53125 46.1875 27.296875 
Q 46.1875 37.015625 41.984375 42.703125 
Q 37.796875 48.390625 30.609375 48.390625 
z
M 30.609375 56 
Q 42.328125 56 49.015625 48.375 
Q 55.71875 40.765625 55.71875 27.296875 
Q 55.71875 13.875 49.015625 6.21875 
Q 42.328125 -1.421875 30.609375 -1.421875 
Q 18.84375 -1.421875 12.171875 6.21875 
Q 5.515625 13.875 5.515625 27.296875 
Q 5.515625 40.765625 12.171875 48.375 
Q 18.84375 56 30.609375 56 
z
" id="DejaVuSans-6f"/>
      <path d="M 45.40625 27.984375 
Q 45.40625 37.75 41.375 43.109375 
Q 37.359375 48.484375 30.078125 48.484375 
Q 22.859375 48.484375 18.828125 43.109375 
Q 14.796875 37.75 14.796875 27.984375 
Q 14.796875 18.265625 18.828125 12.890625 
Q 22.859375 7.515625 30.078125 7.515625 
Q 37.359375 7.515625 41.375 12.890625 
Q 45.40625 18.265625 45.40625 27.984375 
z
M 54.390625 6.78125 
Q 54.390625 -7.171875 48.1875 -13.984375 
Q 42 -20.796875 29.203125 -20.796875 
Q 24.46875 -20.796875 20.265625 -20.09375 
Q 16.0625 -19.390625 12.109375 -17.921875 
L 12.109375 -9.1875 
Q 16.0625 -11.328125 19.921875 -12.34375 
Q 23.78125 -13.375 27.78125 -13.375 
Q 36.625 -13.375 41.015625 -8.765625 
Q 45.40625 -4.15625 45.40625 5.171875 
L 45.40625 9.625 
Q 42.625 4.78125 38.28125 2.390625 
Q 33.9375 0 27.875 0 
Q 17.828125 0 11.671875 7.65625 
Q 5.515625 15.328125 5.515625 27.984375 
Q 5.515625 40.671875 11.671875 48.328125 
Q 17.828125 56 27.875 56 
Q 33.9375 56 38.28125 53.609375 
Q 42.625 51.21875 45.40625 46.390625 
L 45.40625 54.6875 
L 54.390625 54.6875 
z
" id="DejaVuSans-67"/>
      <path d="M 12.40625 8.296875 
L 28.515625 8.296875 
L 28.515625 63.921875 
L 10.984375 60.40625 
L 10.984375 69.390625 
L 28.421875 72.90625 
L 38.28125 72.90625 
L 38.28125 8.296875 
L 54.390625 8.296875 
L 54.390625 0 
L 12.40625 0 
z
" id="DejaVuSans-31"/>
      <path d="M 31 75.875 
Q 24.46875 64.65625 21.28125 53.65625 
Q 18.109375 42.671875 18.109375 31.390625 
Q 18.109375 20.125 21.3125 9.0625 
Q 24.515625 -2 31 -13.1875 
L 23.1875 -13.1875 
Q 15.875 -1.703125 12.234375 9.375 
Q 8.59375 20.453125 8.59375 31.390625 
Q 8.59375 42.28125 12.203125 53.3125 
Q 15.828125 64.359375 23.1875 75.875 
z
" id="DejaVuSans-28"/>
      <path d="M 51.125 44 
L 36.921875 44 
L 32.8125 27.6875 
L 47.125 27.6875 
z
M 43.796875 71.78125 
L 38.71875 51.515625 
L 52.984375 51.515625 
L 58.109375 71.78125 
L 65.921875 71.78125 
L 60.890625 51.515625 
L 76.125 51.515625 
L 76.125 44 
L 58.984375 44 
L 54.984375 27.6875 
L 70.515625 27.6875 
L 70.515625 20.21875 
L 53.078125 20.21875 
L 48 0 
L 40.1875 0 
L 45.21875 20.21875 
L 30.90625 20.21875 
L 25.875 0 
L 18.015625 0 
L 23.09375 20.21875 
L 7.71875 20.21875 
L 7.71875 27.6875 
L 24.90625 27.6875 
L 29 44 
L 13.28125 44 
L 13.28125 51.515625 
L 30.90625 51.515625 
L 35.890625 71.78125 
z
" id="DejaVuSans-23"/>
      <path id="DejaVuSans-20"/>
      <path d="M 37.109375 75.984375 
L 37.109375 68.5 
L 28.515625 68.5 
Q 23.6875 68.5 21.796875 66.546875 
Q 19.921875 64.59375 19.921875 59.515625 
L 19.921875 54.6875 
L 34.71875 54.6875 
L 34.71875 47.703125 
L 19.921875 47.703125 
L 19.921875 0 
L 10.890625 0 
L 10.890625 47.703125 
L 2.296875 47.703125 
L 2.296875 54.6875 
L 10.890625 54.6875 
L 10.890625 58.5 
Q 10.890625 67.625 15.140625 71.796875 
Q 19.390625 75.984375 28.609375 75.984375 
z
" id="DejaVuSans-66"/>
      <path d="M 4.890625 31.390625 
L 31.203125 31.390625 
L 31.203125 23.390625 
L 4.890625 23.390625 
z
" id="DejaVuSans-2d"/>
      <path d="M 56.203125 29.59375 
L 56.203125 25.203125 
L 14.890625 25.203125 
Q 15.484375 15.921875 20.484375 11.0625 
Q 25.484375 6.203125 34.421875 6.203125 
Q 39.59375 6.203125 44.453125 7.46875 
Q 49.3125 8.734375 54.109375 11.28125 
L 54.109375 2.78125 
Q 49.265625 0.734375 44.1875 -0.34375 
Q 39.109375 -1.421875 33.890625 -1.421875 
Q 20.796875 -1.421875 13.15625 6.1875 
Q 5.515625 13.8125 5.515625 26.8125 
Q 5.515625 40.234375 12.765625 48.109375 
Q 20.015625 56 32.328125 56 
Q 43.359375 56 49.78125 48.890625 
Q 56.203125 41.796875 56.203125 29.59375 
z
M 47.21875 32.234375 
Q 47.125 39.59375 43.09375 43.984375 
Q 39.0625 48.390625 32.421875 48.390625 
Q 24.90625 48.390625 20.390625 44.140625 
Q 15.875 39.890625 15.1875 32.171875 
z
" id="DejaVuSans-65"/>
      <path d="M 2.984375 54.6875 
L 12.5 54.6875 
L 29.59375 8.796875 
L 46.6875 54.6875 
L 56.203125 54.6875 
L 35.6875 0 
L 23.484375 0 
z
" id="DejaVuSans-76"/>
      <path d="M 34.28125 27.484375 
Q 23.390625 27.484375 19.1875 25 
Q 14.984375 22.515625 14.984375 16.5 
Q 14.984375 11.71875 18.140625 8.90625 
Q 21.296875 6.109375 26.703125 6.109375 
Q 34.1875 6.109375 38.703125 11.40625 
Q 43.21875 16.703125 43.21875 25.484375 
L 43.21875 27.484375 
z
M 52.203125 31.203125 
L 52.203125 0 
L 43.21875 0 
L 43.21875 8.296875 
Q 40.140625 3.328125 35.546875 0.953125 
Q 30.953125 -1.421875 24.3125 -1.421875 
Q 15.921875 -1.421875 10.953125 3.296875 
Q 6 8.015625 6 15.921875 
Q 6 25.140625 12.171875 29.828125 
Q 18.359375 34.515625 30.609375 34.515625 
L 43.21875 34.515625 
L 43.21875 35.40625 
Q 43.21875 41.609375 39.140625 45 
Q 35.0625 48.390625 27.6875 48.390625 
Q 23 48.390625 18.546875 47.265625 
Q 14.109375 46.140625 10.015625 43.890625 
L 10.015625 52.203125 
Q 14.9375 54.109375 19.578125 55.046875 
Q 24.21875 56 28.609375 56 
Q 40.484375 56 46.34375 49.84375 
Q 52.203125 43.703125 52.203125 31.203125 
z
" id="DejaVuSans-61"/>
      <path d="M 44.28125 53.078125 
L 44.28125 44.578125 
Q 40.484375 46.53125 36.375 47.5 
Q 32.28125 48.484375 27.875 48.484375 
Q 21.1875 48.484375 17.84375 46.4375 
Q 14.5 44.390625 14.5 40.28125 
Q 14.5 37.15625 16.890625 35.375 
Q 19.28125 33.59375 26.515625 31.984375 
L 29.59375 31.296875 
Q 39.15625 29.25 43.1875 25.515625 
Q 47.21875 21.78125 47.21875 15.09375 
Q 47.21875 7.46875 41.1875 3.015625 
Q 35.15625 -1.421875 24.609375 -1.421875 
Q 20.21875 -1.421875 15.453125 -0.5625 
Q 10.6875 0.296875 5.421875 2 
L 5.421875 11.28125 
Q 10.40625 8.6875 15.234375 7.390625 
Q 20.0625 6.109375 24.8125 6.109375 
Q 31.15625 6.109375 34.5625 8.28125 
Q 37.984375 10.453125 37.984375 14.40625 
Q 37.984375 18.0625 35.515625 20.015625 
Q 33.0625 21.96875 24.703125 23.78125 
L 21.578125 24.515625 
Q 13.234375 26.265625 9.515625 29.90625 
Q 5.8125 33.546875 5.8125 39.890625 
Q 5.8125 47.609375 11.28125 51.796875 
Q 16.75 56 26.8125 56 
Q 31.78125 56 36.171875 55.265625 
Q 40.578125 54.546875 44.28125 53.078125 
z
" id="DejaVuSans-73"/>
      <path d="M 25.390625 72.90625 
L 33.6875 72.90625 
L 8.296875 -9.28125 
L 0 -9.28125 
z
" id="DejaVuSans-2f"/>
      <path d="M 45.40625 46.390625 
L 45.40625 75.984375 
L 54.390625 75.984375 
L 54.390625 0 
L 45.40625 0 
L 45.40625 8.203125 
Q 42.578125 3.328125 38.25 0.953125 
Q 33.9375 -1.421875 27.875 -1.421875 
Q 17.96875 -1.421875 11.734375 6.484375 
Q 5.515625 14.40625 5.515625 27.296875 
Q 5.515625 40.1875 11.734375 48.09375 
Q 17.96875 56 27.875 56 
Q 33.9375 56 38.25 53.625 
Q 42.578125 51.265625 45.40625 46.390625 
z
M 14.796875 27.296875 
Q 14.796875 17.390625 18.875 11.75 
Q 22.953125 6.109375 30.078125 6.109375 
Q 37.203125 6.109375 41.296875 11.75 
Q 45.40625 17.390625 45.40625 27.296875 
Q 45.40625 37.203125 41.296875 42.84375 
Q 37.203125 48.484375 30.078125 48.484375 
Q 22.953125 48.484375 18.875 42.84375 
Q 14.796875 37.203125 14.796875 27.296875 
z
" id="DejaVuSans-64"/>
      <path d="M 9.421875 54.6875 
L 18.40625 54.6875 
L 18.40625 0 
L 9.421875 0 
z
M 9.421875 75.984375 
L 18.40625 75.984375 
L 18.40625 64.59375 
L 9.421875 64.59375 
z
" id="DejaVuSans-69"/>
      <path d="M 52 44.1875 
Q 55.375 50.25 60.0625 53.125 
Q 64.75 56 71.09375 56 
Q 79.640625 56 84.28125 50.015625 
Q 88.921875 44.046875 88.921875 33.015625 
L 88.921875 0 
L 79.890625 0 
L 79.890625 32.71875 
Q 79.890625 40.578125 77.09375 44.375 
Q 74.3125 48.1875 68.609375 48.1875 
Q 61.625 48.1875 57.5625 43.546875 
Q 53.515625 38.921875 53.515625 30.90625 
L 53.515625 0 
L 44.484375 0 
L 44.484375 32.71875 
Q 44.484375 40.625 41.703125 44.40625 
Q 38.921875 48.1875 33.109375 48.1875 
Q 26.21875 48.1875 22.15625 43.53125 
Q 18.109375 38.875 18.109375 30.90625 
L 18.109375 0 
L 9.078125 0 
L 9.078125 54.6875 
L 18.109375 54.6875 
L 18.109375 46.1875 
Q 21.1875 51.21875 25.484375 53.609375 
Q 29.78125 56 35.6875 56 
Q 41.65625 56 45.828125 52.96875 
Q 50 49.953125 52 44.1875 
z
" id="DejaVuSans-6d"/>
      <path d="M 54.890625 33.015625 
L 54.890625 0 
L 45.90625 0 
L 45.90625 32.71875 
Q 45.90625 40.484375 42.875 44.328125 
Q 39.84375 48.1875 33.796875 48.1875 
Q 26.515625 48.1875 22.3125 43.546875 
Q 18.109375 38.921875 18.109375 30.90625 
L 18.109375 0 
L 9.078125 0 
L 9.078125 54.6875 
L 18.109375 54.6875 
L 18.109375 46.1875 
Q 21.34375 51.125 25.703125 53.5625 
Q 30.078125 56 35.796875 56 
Q 45.21875 56 50.046875 50.171875 
Q 54.890625 44.34375 54.890625 33.015625 
z
" id="DejaVuSans-6e"/>
      <path d="M 8.015625 75.875 
L 15.828125 75.875 
Q 23.140625 64.359375 26.78125 53.3125 
Q 30.421875 42.28125 30.421875 31.390625 
Q 30.421875 20.453125 26.78125 9.375 
Q 23.140625 -1.703125 15.828125 -13.1875 
L 8.015625 -13.1875 
Q 14.5 -2 17.703125 9.0625 
Q 20.90625 20.125 20.90625 31.390625 
Q 20.90625 42.671875 17.703125 53.65625 
Q 14.5 64.65625 8.015625 75.875 
z
" id="DejaVuSans-29"/>
     </defs>
     <g transform="translate(73.803219 338.153594)scale(0.17 -0.17)">
      <use xlink:href="#DejaVuSans-6c"/>
      <use x="27.783203" xlink:href="#DejaVuSans-6f"/>
      <use x="88.964844" xlink:href="#DejaVuSans-67"/>
      <use x="152.441406" xlink:href="#DejaVuSans-31"/>
      <use x="216.064453" xlink:href="#DejaVuSans-30"/>
      <use x="279.6875" xlink:href="#DejaVuSans-28"/>
      <use x="318.701172" xlink:href="#DejaVuSans-23"/>
      <use x="402.490234" xlink:href="#DejaVuSans-20"/>
      <use x="434.277344" xlink:href="#DejaVuSans-66"/>
      <use x="469.404297" xlink:href="#DejaVuSans-2d"/>
      <use x="505.488281" xlink:href="#DejaVuSans-65"/>
      <use x="567.011719" xlink:href="#DejaVuSans-76"/>
      <use x="626.191406" xlink:href="#DejaVuSans-61"/>
      <use x="687.470703" xlink:href="#DejaVuSans-6c"/>
      <use x="715.253906" xlink:href="#DejaVuSans-73"/>
      <use x="767.353516" xlink:href="#DejaVuSans-20"/>
      <use x="799.140625" xlink:href="#DejaVuSans-2f"/>
      <use x="832.832031" xlink:href="#DejaVuSans-20"/>
      <use x="864.619141" xlink:href="#DejaVuSans-64"/>
      <use x="928.095703" xlink:href="#DejaVuSans-69"/>
      <use x="955.878906" xlink:href="#DejaVuSans-6d"/>
      <use x="1053.291016" xlink:href="#DejaVuSans-65"/>
      <use x="1114.814453" xlink:href="#DejaVuSans-6e"/>
      <use x="1178.193359" xlink:href="#DejaVuSans-73"/>
      <use x="1230.292969" xlink:href="#DejaVuSans-69"/>
      <use x="1258.076172" xlink:href="#DejaVuSans-6f"/>
      <use x="1319.257812" xlink:href="#DejaVuSans-6e"/>
      <use x="1382.636719" xlink:href="#DejaVuSans-29"/>
     </g>
    </g>
   </g>
   <g id="matplotlib.axis_2">
    <g id="ytick_1">
     <g id="line2d_25">
      <path clip-path="url(#p4579c8a6ca)" d="M 56.12 294.88 
L 333.168 294.88 
" style="fill:none;stroke:#b0b0b0;stroke-linecap:square;stroke-width:0.8;"/>
     </g>
     <g id="line2d_26">
      <defs>
       <path d="M 0 0 
L -3.5 0 
" id="m100af3fcb4" style="stroke:#000000;stroke-width:0.8;"/>
      </defs>
      <g>
       <use style="stroke:#000000;stroke-width:0.8;" x="56.12" xlink:href="#m100af3fcb4" y="294.88"/>
      </g>
     </g>
     <g id="text_6">
      <!-- 0.0 -->
      <defs>
       <path d="M 10.6875 12.40625 
L 21 12.40625 
L 21 0 
L 10.6875 0 
z
" id="DejaVuSans-2e"/>
      </defs>
      <g transform="translate(23.675 300.95875)scale(0.16 -0.16)">
       <use xlink:href="#DejaVuSans-30"/>
       <use x="63.623047" xlink:href="#DejaVuSans-2e"/>
       <use x="95.410156" xlink:href="#DejaVuSans-30"/>
      </g>
     </g>
    </g>
    <g id="ytick_2">
     <g id="line2d_27">
      <path clip-path="url(#p4579c8a6ca)" d="M 56.12 237.843411 
L 333.168 237.843411 
" style="fill:none;stroke:#b0b0b0;stroke-linecap:square;stroke-width:0.8;"/>
     </g>
     <g id="line2d_28">
      <g>
       <use style="stroke:#000000;stroke-width:0.8;" x="56.12" xlink:href="#m100af3fcb4" y="237.843411"/>
      </g>
     </g>
     <g id="text_7">
      <!-- 0.2 -->
      <g transform="translate(23.675 243.922161)scale(0.16 -0.16)">
       <use xlink:href="#DejaVuSans-30"/>
       <use x="63.623047" xlink:href="#DejaVuSans-2e"/>
       <use x="95.410156" xlink:href="#DejaVuSans-32"/>
      </g>
     </g>
    </g>
    <g id="ytick_3">
     <g id="line2d_29">
      <path clip-path="url(#p4579c8a6ca)" d="M 56.12 180.806823 
L 333.168 180.806823 
" style="fill:none;stroke:#b0b0b0;stroke-linecap:square;stroke-width:0.8;"/>
     </g>
     <g id="line2d_30">
      <g>
       <use style="stroke:#000000;stroke-width:0.8;" x="56.12" xlink:href="#m100af3fcb4" y="180.806823"/>
      </g>
     </g>
     <g id="text_8">
      <!-- 0.4 -->
      <g transform="translate(23.675 186.885573)scale(0.16 -0.16)">
       <use xlink:href="#DejaVuSans-30"/>
       <use x="63.623047" xlink:href="#DejaVuSans-2e"/>
       <use x="95.410156" xlink:href="#DejaVuSans-34"/>
      </g>
     </g>
    </g>
    <g id="ytick_4">
     <g id="line2d_31">
      <path clip-path="url(#p4579c8a6ca)" d="M 56.12 123.770234 
L 333.168 123.770234 
" style="fill:none;stroke:#b0b0b0;stroke-linecap:square;stroke-width:0.8;"/>
     </g>
     <g id="line2d_32">
      <g>
       <use style="stroke:#000000;stroke-width:0.8;" x="56.12" xlink:href="#m100af3fcb4" y="123.770234"/>
      </g>
     </g>
     <g id="text_9">
      <!-- 0.6 -->
      <g transform="translate(23.675 129.848984)scale(0.16 -0.16)">
       <use xlink:href="#DejaVuSans-30"/>
       <use x="63.623047" xlink:href="#DejaVuSans-2e"/>
       <use x="95.410156" xlink:href="#DejaVuSans-36"/>
      </g>
     </g>
    </g>
    <g id="ytick_5">
     <g id="line2d_33">
      <path clip-path="url(#p4579c8a6ca)" d="M 56.12 66.733646 
L 333.168 66.733646 
" style="fill:none;stroke:#b0b0b0;stroke-linecap:square;stroke-width:0.8;"/>
     </g>
     <g id="line2d_34">
      <g>
       <use style="stroke:#000000;stroke-width:0.8;" x="56.12" xlink:href="#m100af3fcb4" y="66.733646"/>
      </g>
     </g>
     <g id="text_10">
      <!-- 0.8 -->
      <defs>
       <path d="M 31.78125 34.625 
Q 24.75 34.625 20.71875 30.859375 
Q 16.703125 27.09375 16.703125 20.515625 
Q 16.703125 13.921875 20.71875 10.15625 
Q 24.75 6.390625 31.78125 6.390625 
Q 38.8125 6.390625 42.859375 10.171875 
Q 46.921875 13.96875 46.921875 20.515625 
Q 46.921875 27.09375 42.890625 30.859375 
Q 38.875 34.625 31.78125 34.625 
z
M 21.921875 38.8125 
Q 15.578125 40.375 12.03125 44.71875 
Q 8.5 49.078125 8.5 55.328125 
Q 8.5 64.0625 14.71875 69.140625 
Q 20.953125 74.21875 31.78125 74.21875 
Q 42.671875 74.21875 48.875 69.140625 
Q 55.078125 64.0625 55.078125 55.328125 
Q 55.078125 49.078125 51.53125 44.71875 
Q 48 40.375 41.703125 38.8125 
Q 48.828125 37.15625 52.796875 32.3125 
Q 56.78125 27.484375 56.78125 20.515625 
Q 56.78125 9.90625 50.3125 4.234375 
Q 43.84375 -1.421875 31.78125 -1.421875 
Q 19.734375 -1.421875 13.25 4.234375 
Q 6.78125 9.90625 6.78125 20.515625 
Q 6.78125 27.484375 10.78125 32.3125 
Q 14.796875 37.15625 21.921875 38.8125 
z
M 18.3125 54.390625 
Q 18.3125 48.734375 21.84375 45.5625 
Q 25.390625 42.390625 31.78125 42.390625 
Q 38.140625 42.390625 41.71875 45.5625 
Q 45.3125 48.734375 45.3125 54.390625 
Q 45.3125 60.0625 41.71875 63.234375 
Q 38.140625 66.40625 31.78125 66.40625 
Q 25.390625 66.40625 21.84375 63.234375 
Q 18.3125 60.0625 18.3125 54.390625 
z
" id="DejaVuSans-38"/>
      </defs>
      <g transform="translate(23.675 72.812396)scale(0.16 -0.16)">
       <use xlink:href="#DejaVuSans-30"/>
       <use x="63.623047" xlink:href="#DejaVuSans-2e"/>
       <use x="95.410156" xlink:href="#DejaVuSans-38"/>
      </g>
     </g>
    </g>
    <g id="ytick_6">
     <g id="line2d_35">
      <path clip-path="url(#p4579c8a6ca)" d="M 56.12 9.697057 
L 333.168 9.697057 
" style="fill:none;stroke:#b0b0b0;stroke-linecap:square;stroke-width:0.8;"/>
     </g>
     <g id="line2d_36">
      <g>
       <use style="stroke:#000000;stroke-width:0.8;" x="56.12" xlink:href="#m100af3fcb4" y="9.697057"/>
      </g>
     </g>
     <g id="text_11">
      <!-- 1.0 -->
      <g transform="translate(23.675 15.775807)scale(0.16 -0.16)">
       <use xlink:href="#DejaVuSans-31"/>
       <use x="63.623047" xlink:href="#DejaVuSans-2e"/>
       <use x="95.410156" xlink:href="#DejaVuSans-30"/>
      </g>
     </g>
    </g>
    <g id="text_12">
     <!-- Fraction of function,target pairs -->
     <defs>
      <path d="M 9.8125 72.90625 
L 51.703125 72.90625 
L 51.703125 64.59375 
L 19.671875 64.59375 
L 19.671875 43.109375 
L 48.578125 43.109375 
L 48.578125 34.8125 
L 19.671875 34.8125 
L 19.671875 0 
L 9.8125 0 
z
" id="DejaVuSans-46"/>
      <path d="M 41.109375 46.296875 
Q 39.59375 47.171875 37.8125 47.578125 
Q 36.03125 48 33.890625 48 
Q 26.265625 48 22.1875 43.046875 
Q 18.109375 38.09375 18.109375 28.8125 
L 18.109375 0 
L 9.078125 0 
L 9.078125 54.6875 
L 18.109375 54.6875 
L 18.109375 46.1875 
Q 20.953125 51.171875 25.484375 53.578125 
Q 30.03125 56 36.53125 56 
Q 37.453125 56 38.578125 55.875 
Q 39.703125 55.765625 41.0625 55.515625 
z
" id="DejaVuSans-72"/>
      <path d="M 48.78125 52.59375 
L 48.78125 44.1875 
Q 44.96875 46.296875 41.140625 47.34375 
Q 37.3125 48.390625 33.40625 48.390625 
Q 24.65625 48.390625 19.8125 42.84375 
Q 14.984375 37.3125 14.984375 27.296875 
Q 14.984375 17.28125 19.8125 11.734375 
Q 24.65625 6.203125 33.40625 6.203125 
Q 37.3125 6.203125 41.140625 7.25 
Q 44.96875 8.296875 48.78125 10.40625 
L 48.78125 2.09375 
Q 45.015625 0.34375 40.984375 -0.53125 
Q 36.96875 -1.421875 32.421875 -1.421875 
Q 20.0625 -1.421875 12.78125 6.34375 
Q 5.515625 14.109375 5.515625 27.296875 
Q 5.515625 40.671875 12.859375 48.328125 
Q 20.21875 56 33.015625 56 
Q 37.15625 56 41.109375 55.140625 
Q 45.0625 54.296875 48.78125 52.59375 
z
" id="DejaVuSans-63"/>
      <path d="M 18.3125 70.21875 
L 18.3125 54.6875 
L 36.8125 54.6875 
L 36.8125 47.703125 
L 18.3125 47.703125 
L 18.3125 18.015625 
Q 18.3125 11.328125 20.140625 9.421875 
Q 21.96875 7.515625 27.59375 7.515625 
L 36.8125 7.515625 
L 36.8125 0 
L 27.59375 0 
Q 17.1875 0 13.234375 3.875 
Q 9.28125 7.765625 9.28125 18.015625 
L 9.28125 47.703125 
L 2.6875 47.703125 
L 2.6875 54.6875 
L 9.28125 54.6875 
L 9.28125 70.21875 
z
" id="DejaVuSans-74"/>
      <path d="M 8.5 21.578125 
L 8.5 54.6875 
L 17.484375 54.6875 
L 17.484375 21.921875 
Q 17.484375 14.15625 20.5 10.265625 
Q 23.53125 6.390625 29.59375 6.390625 
Q 36.859375 6.390625 41.078125 11.03125 
Q 45.3125 15.671875 45.3125 23.6875 
L 45.3125 54.6875 
L 54.296875 54.6875 
L 54.296875 0 
L 45.3125 0 
L 45.3125 8.40625 
Q 42.046875 3.421875 37.71875 1 
Q 33.40625 -1.421875 27.6875 -1.421875 
Q 18.265625 -1.421875 13.375 4.4375 
Q 8.5 10.296875 8.5 21.578125 
z
M 31.109375 56 
z
" id="DejaVuSans-75"/>
      <path d="M 11.71875 12.40625 
L 22.015625 12.40625 
L 22.015625 4 
L 14.015625 -11.625 
L 7.71875 -11.625 
L 11.71875 4 
z
" id="DejaVuSans-2c"/>
      <path d="M 18.109375 8.203125 
L 18.109375 -20.796875 
L 9.078125 -20.796875 
L 9.078125 54.6875 
L 18.109375 54.6875 
L 18.109375 46.390625 
Q 20.953125 51.265625 25.265625 53.625 
Q 29.59375 56 35.59375 56 
Q 45.5625 56 51.78125 48.09375 
Q 58.015625 40.1875 58.015625 27.296875 
Q 58.015625 14.40625 51.78125 6.484375 
Q 45.5625 -1.421875 35.59375 -1.421875 
Q 29.59375 -1.421875 25.265625 0.953125 
Q 20.953125 3.328125 18.109375 8.203125 
z
M 48.6875 27.296875 
Q 48.6875 37.203125 44.609375 42.84375 
Q 40.53125 48.484375 33.40625 48.484375 
Q 26.265625 48.484375 22.1875 42.84375 
Q 18.109375 37.203125 18.109375 27.296875 
Q 18.109375 17.390625 22.1875 11.75 
Q 26.265625 6.109375 33.40625 6.109375 
Q 40.53125 6.109375 44.609375 11.75 
Q 48.6875 17.390625 48.6875 27.296875 
z
" id="DejaVuSans-70"/>
     </defs>
     <g transform="translate(16.139531 286.001989)rotate(-90)scale(0.17 -0.17)">
      <use xlink:href="#DejaVuSans-46"/>
      <use x="57.410156" xlink:href="#DejaVuSans-72"/>
      <use x="98.523438" xlink:href="#DejaVuSans-61"/>
      <use x="159.802734" xlink:href="#DejaVuSans-63"/>
      <use x="214.783203" xlink:href="#DejaVuSans-74"/>
      <use x="253.992188" xlink:href="#DejaVuSans-69"/>
      <use x="281.775391" xlink:href="#DejaVuSans-6f"/>
      <use x="342.957031" xlink:href="#DejaVuSans-6e"/>
      <use x="406.335938" xlink:href="#DejaVuSans-20"/>
      <use x="438.123047" xlink:href="#DejaVuSans-6f"/>
      <use x="499.304688" xlink:href="#DejaVuSans-66"/>
      <use x="534.509766" xlink:href="#DejaVuSans-20"/>
      <use x="566.296875" xlink:href="#DejaVuSans-66"/>
      <use x="601.501953" xlink:href="#DejaVuSans-75"/>
      <use x="664.880859" xlink:href="#DejaVuSans-6e"/>
      <use x="728.259766" xlink:href="#DejaVuSans-63"/>
      <use x="783.240234" xlink:href="#DejaVuSans-74"/>
      <use x="822.449219" xlink:href="#DejaVuSans-69"/>
      <use x="850.232422" xlink:href="#DejaVuSans-6f"/>
      <use x="911.414062" xlink:href="#DejaVuSans-6e"/>
      <use x="974.792969" xlink:href="#DejaVuSans-2c"/>
      <use x="1006.580078" xlink:href="#DejaVuSans-74"/>
      <use x="1045.789062" xlink:href="#DejaVuSans-61"/>
      <use x="1107.068359" xlink:href="#DejaVuSans-72"/>
      <use x="1148.166016" xlink:href="#DejaVuSans-67"/>
      <use x="1211.642578" xlink:href="#DejaVuSans-65"/>
      <use x="1273.166016" xlink:href="#DejaVuSans-74"/>
      <use x="1312.375" xlink:href="#DejaVuSans-20"/>
      <use x="1344.162109" xlink:href="#DejaVuSans-70"/>
      <use x="1407.638672" xlink:href="#DejaVuSans-61"/>
      <use x="1468.917969" xlink:href="#DejaVuSans-69"/>
      <use x="1496.701172" xlink:href="#DejaVuSans-72"/>
      <use x="1537.814453" xlink:href="#DejaVuSans-73"/>
     </g>
    </g>
   </g>
   <g id="line2d_37">
    <defs>
     <path d="M 0 1.5 
C 0.397805 1.5 0.77937 1.341951 1.06066 1.06066 
C 1.341951 0.77937 1.5 0.397805 1.5 0 
C 1.5 -0.397805 1.341951 -0.77937 1.06066 -1.06066 
C 0.77937 -1.341951 0.397805 -1.5 0 -1.5 
C -0.397805 -1.5 -0.77937 -1.341951 -1.06066 -1.06066 
C -1.341951 -0.77937 -1.5 -0.397805 -1.5 0 
C -1.5 0.397805 -1.341951 0.77937 -1.06066 1.06066 
C -0.77937 1.341951 -0.397805 1.5 0 1.5 
z
" id="m2be8dd99c8" style="stroke:#000080;"/>
    </defs>
    <g>
     <use style="fill:#000080;stroke:#000080;" x="229.077924" xlink:href="#m2be8dd99c8" y="9.697057"/>
     <use style="fill:#000080;stroke:#000080;" x="229.077924" xlink:href="#m2be8dd99c8" y="9.697057"/>
    </g>
   </g>
   <g id="line2d_38">
    <path d="M 28.455965 294.88 
L 28.455965 269.716799 
L 40.370217 269.716799 
L 40.370217 267.48007 
L 47.339607 267.48007 
L 47.339607 264.124977 
L 52.284468 264.124977 
L 52.284468 263.565795 
L 56.12 263.565795 
L 56.12 263.006612 
L 61.903497 263.006612 
L 61.903497 261.329066 
L 64.198719 261.329066 
L 64.198719 260.769883 
L 66.223248 260.769883 
L 66.223248 260.210701 
L 68.034251 260.210701 
L 68.034251 258.533154 
L 71.168109 258.533154 
L 71.168109 257.973972 
L 76.11297 257.973972 
L 76.11297 257.41479 
L 79.066841 257.41479 
L 79.066841 255.737243 
L 89.069276 255.737243 
L 89.069276 255.178061 
L 90.981092 255.178061 
L 90.981092 254.618879 
L 93.105847 254.618879 
L 93.105847 254.059696 
L 98.832144 254.059696 
L 98.832144 252.941332 
L 102.895343 252.941332 
L 102.895343 252.38215 
L 104.819059 252.38215 
L 104.819059 251.822967 
L 109.250788 251.822967 
L 109.250788 250.704603 
L 110.163674 250.704603 
L 110.163674 250.145421 
L 117.811013 250.145421 
L 117.811013 249.586238 
L 118.825114 249.586238 
L 118.825114 249.027056 
L 120.365424 249.027056 
L 120.365424 248.467874 
L 131.781419 248.467874 
L 131.781419 247.908692 
L 136.375154 247.908692 
L 136.375154 247.34951 
L 136.535647 247.34951 
L 136.535647 246.790327 
L 139.573389 246.790327 
L 139.573389 246.231145 
L 141.376358 246.231145 
L 141.376358 245.671963 
L 143.22589 245.671963 
L 143.22589 245.112781 
L 146.524921 245.112781 
L 146.524921 244.553598 
L 149.712298 244.553598 
L 149.712298 243.994416 
L 151.949905 243.994416 
L 151.949905 243.435234 
L 153.181782 243.435234 
L 153.181782 242.316869 
L 153.68385 242.316869 
L 153.68385 241.757687 
L 156.790197 241.757687 
L 156.790197 241.198505 
L 157.727817 241.198505 
L 157.727817 240.639323 
L 157.903827 240.639323 
L 157.903827 240.08014 
L 160.203656 240.08014 
L 160.203656 239.520958 
L 160.404039 239.520958 
L 160.404039 237.843411 
L 160.766748 237.843411 
L 160.766748 237.284229 
L 162.94748 237.284229 
L 162.94748 236.725047 
L 163.462027 236.725047 
L 163.462027 236.165865 
L 165.06568 236.165865 
L 165.06568 235.606682 
L 165.545004 235.606682 
L 165.545004 235.0475 
L 166.660241 235.0475 
L 166.660241 234.488318 
L 167.444999 234.488318 
L 167.444999 233.929136 
L 167.909514 233.929136 
L 167.909514 233.369954 
L 168.346752 233.369954 
L 168.346752 232.810771 
L 169.688561 232.810771 
L 169.707124 231.692407 
L 170.829202 231.692407 
L 170.829202 231.133225 
L 171.535742 231.133225 
L 171.535742 230.574042 
L 172.037096 230.574042 
L 172.037096 230.01486 
L 172.198341 230.01486 
L 172.198341 229.455678 
L 172.92888 229.455678 
L 173.020921 228.337313 
L 173.48877 228.337313 
L 173.588974 227.218949 
L 173.725348 227.218949 
L 173.783988 226.100584 
L 174.366709 226.100584 
L 174.437299 224.98222 
L 174.650825 224.98222 
L 174.650825 224.423038 
L 175.029293 224.423038 
L 175.029293 223.863855 
L 175.624601 223.863855 
L 175.624601 223.304673 
L 175.985658 223.304673 
L 175.985658 222.745491 
L 177.515297 222.745491 
L 177.620983 221.627126 
L 177.717295 221.627126 
L 177.717295 221.067944 
L 177.977252 221.067944 
L 178.03449 219.94958 
L 178.345939 219.94958 
L 178.42153 218.831215 
L 178.717869 218.831215 
L 178.717869 218.272033 
L 179.030769 218.272033 
L 179.030769 217.712851 
L 179.367184 217.712851 
L 179.367184 217.153669 
L 179.681571 217.153669 
L 179.681571 216.594486 
L 180.72164 216.594486 
L 180.72164 216.035304 
L 181.378488 216.035304 
L 181.404341 214.91694 
L 182.092576 214.91694 
L 182.092576 214.357757 
L 182.376766 214.357757 
L 182.376766 213.798575 
L 182.641043 213.798575 
L 182.721715 212.680211 
L 182.935725 212.680211 
L 182.935725 212.121028 
L 183.497881 212.121028 
L 183.497881 211.561846 
L 183.68194 211.561846 
L 183.68194 211.002664 
L 184.076444 211.002664 
L 184.076444 210.443482 
L 184.327902 210.443482 
L 184.327902 209.884299 
L 184.860426 209.884299 
L 184.860426 209.325117 
L 185.074213 209.325117 
L 185.087487 208.206753 
L 185.187657 208.206753 
L 185.187657 207.64757 
L 185.378811 207.64757 
L 185.378811 207.088388 
L 185.720177 207.088388 
L 185.816738 205.410841 
L 186.027998 205.410841 
L 186.087118 204.292477 
L 186.273885 204.292477 
L 186.273885 203.733295 
L 186.441134 203.733295 
L 186.441134 203.174112 
L 187.146522 203.174112 
L 187.247119 202.055748 
L 187.780398 202.055748 
L 187.81278 200.937384 
L 188.058508 200.937384 
L 188.058508 200.378201 
L 188.262996 200.378201 
L 188.371382 199.259837 
L 188.857689 199.259837 
L 188.909366 197.58229 
L 189.289099 197.58229 
L 189.318763 195.904743 
L 189.508874 195.904743 
L 189.508874 195.345561 
L 189.802406 195.345561 
L 189.91299 193.108832 
L 190.089592 193.108832 
L 190.089592 192.54965 
L 190.222269 192.54965 
L 190.222269 191.990468 
L 190.508114 191.990468 
L 190.618386 190.312921 
L 190.838187 190.312921 
L 190.838187 189.753739 
L 190.982727 189.753739 
L 190.982727 189.194556 
L 191.154052 189.194556 
L 191.262917 188.076192 
L 191.347408 188.076192 
L 191.401318 186.957828 
L 191.581538 186.957828 
L 191.581538 186.398645 
L 191.707093 186.398645 
L 191.813803 184.161916 
L 191.848373 184.161916 
L 191.930042 182.48437 
L 192.02399 182.48437 
L 192.02399 181.925187 
L 192.161444 181.925187 
L 192.161444 181.366005 
L 192.317734 181.366005 
L 192.417019 179.688458 
L 192.769769 179.688458 
L 192.769769 179.129276 
L 193.244455 179.129276 
L 193.32681 178.010912 
L 193.499643 178.010912 
L 193.499643 177.451729 
L 193.62237 177.451729 
L 193.62237 176.892547 
L 194.327597 176.892547 
L 194.351941 175.215 
L 194.672905 175.215 
L 194.672905 174.655818 
L 194.996509 174.655818 
L 195.049678 173.537454 
L 195.250236 173.537454 
L 195.275403 172.419089 
L 195.378833 172.419089 
L 195.378833 171.859907 
L 195.726319 171.859907 
L 195.726319 171.300725 
L 197.328435 171.300725 
L 197.328435 170.741543 
L 197.545589 170.741543 
L 197.545589 170.18236 
L 197.822493 170.18236 
L 197.822493 169.623178 
L 198.120779 169.623178 
L 198.144739 168.504814 
L 198.264921 168.504814 
L 198.356261 167.386449 
L 198.499319 167.386449 
L 198.499319 166.827267 
L 198.623956 166.827267 
L 198.71856 165.14972 
L 198.784474 165.14972 
L 198.784474 164.031356 
L 198.982403 164.031356 
L 199.050681 162.353809 
L 199.349244 162.353809 
L 199.349244 161.794627 
L 199.464604 161.794627 
L 199.464604 161.235444 
L 199.598764 161.235444 
L 199.598764 160.676262 
L 199.804501 160.676262 
L 199.804501 159.557898 
L 199.960796 159.557898 
L 199.960796 158.998715 
L 200.291113 158.998715 
L 200.381666 157.880351 
L 200.453922 157.880351 
L 200.453922 157.321169 
L 200.575986 157.321169 
L 200.680365 156.202804 
L 200.778028 156.202804 
L 200.798558 155.08444 
L 200.949874 155.08444 
L 201.023535 153.966075 
L 201.242644 153.966075 
L 201.350424 152.288529 
L 201.487491 152.288529 
L 201.542159 150.0518 
L 201.644466 150.0518 
L 201.644466 149.492617 
L 201.766292 149.492617 
L 201.766292 148.933435 
L 201.895819 148.933435 
L 202.00526 147.815071 
L 202.148467 147.815071 
L 202.231166 146.696706 
L 202.397456 146.696706 
L 202.397456 145.578342 
L 202.534011 145.578342 
L 202.534011 143.900795 
L 202.758542 143.900795 
L 202.821483 142.78243 
L 202.93997 142.78243 
L 202.93997 141.104884 
L 203.096914 141.104884 
L 203.148691 139.986519 
L 203.239257 139.986519 
L 203.349668 138.868155 
L 203.36931 138.868155 
L 203.36931 138.308973 
L 203.50553 138.308973 
L 203.608442 137.190608 
L 203.674782 137.190608 
L 203.728695 136.072244 
L 203.851929 136.072244 
L 203.851929 135.513061 
L 204.012149 135.513061 
L 204.105813 132.157968 
L 204.397964 132.157968 
L 204.468698 129.921239 
L 204.693716 129.921239 
L 204.693716 129.362057 
L 204.857117 129.362057 
L 204.857117 128.802874 
L 204.991612 128.802874 
L 204.991612 127.68451 
L 205.225209 127.68451 
L 205.225209 126.006963 
L 205.478262 126.006963 
L 205.478262 125.447781 
L 205.663632 125.447781 
L 205.737909 123.770234 
L 205.92841 123.770234 
L 206.003238 120.974323 
L 206.100643 120.974323 
L 206.185283 118.737594 
L 206.275036 118.737594 
L 206.300987 117.61923 
L 206.502841 117.61923 
L 206.526818 115.382501 
L 206.641876 115.382501 
L 206.641876 114.823318 
L 206.856891 114.823318 
L 206.856891 114.264136 
L 207.12351 114.264136 
L 207.152939 112.586589 
L 207.252414 112.586589 
L 207.330542 111.468225 
L 207.402107 111.468225 
L 207.402107 110.909043 
L 207.554099 110.909043 
L 207.554099 109.790678 
L 207.729656 109.790678 
L 207.754518 108.672314 
L 208.039614 108.672314 
L 208.074486 107.553949 
L 208.261579 107.553949 
L 208.304844 106.435585 
L 208.440325 106.435585 
L 208.440325 105.876403 
L 210.142146 105.876403 
L 210.142146 105.31722 
L 210.892431 105.31722 
L 210.892431 104.758038 
L 211.250262 104.758038 
L 211.320036 102.521309 
L 211.429288 102.521309 
L 211.429288 101.962127 
L 211.603227 101.962127 
L 211.684902 99.166216 
L 211.749322 99.166216 
L 211.812299 96.929487 
L 211.886612 96.929487 
L 211.942335 94.133576 
L 212.002631 94.133576 
L 212.110397 89.100935 
L 212.121805 89.100935 
L 212.219447 87.423389 
L 212.239768 87.423389 
L 212.334025 84.068295 
L 212.355763 84.068295 
L 212.434721 81.831566 
L 212.499858 81.831566 
L 212.568964 79.594837 
L 212.611059 79.594837 
L 212.671343 77.358108 
L 212.788634 77.358108 
L 212.888212 74.562197 
L 212.916022 74.562197 
L 213.019347 72.325468 
L 213.052533 72.325468 
L 213.163189 68.970375 
L 213.217512 68.970375 
L 213.217512 68.411192 
L 213.32968 68.411192 
L 213.376537 67.292828 
L 213.505463 67.292828 
L 213.615052 66.174463 
L 213.624423 66.174463 
L 213.725022 64.496917 
L 213.792594 64.496917 
L 213.792594 63.378552 
L 213.995849 63.378552 
L 214.037409 61.701006 
L 214.178246 61.701006 
L 214.178246 61.141823 
L 216.279209 61.141823 
L 216.349771 60.023459 
L 216.456144 60.023459 
L 216.456144 59.464277 
L 216.620382 59.464277 
L 216.656064 58.345912 
L 216.832171 58.345912 
L 216.832171 57.78673 
L 216.975387 57.78673 
L 217.0402 56.109183 
L 217.116831 56.109183 
L 217.151791 54.990819 
L 217.322335 54.990819 
L 217.322335 54.431636 
L 217.705668 54.431636 
L 217.705668 53.872454 
L 217.869704 53.872454 
L 217.897548 52.75409 
L 217.990036 52.75409 
L 218.015731 51.635725 
L 220.6473 51.635725 
L 220.6473 51.076543 
L 220.783262 51.076543 
L 220.875673 48.280632 
L 221.081682 48.280632 
L 221.081682 47.162267 
L 221.200588 47.162267 
L 221.305776 44.366356 
L 221.327197 44.366356 
L 221.335941 43.247992 
L 221.514695 43.247992 
L 221.544951 42.129627 
L 221.685296 42.129627 
L 221.708276 41.011263 
L 221.848863 41.011263 
L 221.955052 39.333716 
L 221.977896 39.333716 
L 221.977896 38.774534 
L 222.151226 38.774534 
L 222.151226 38.215351 
L 225.652701 38.215351 
L 225.752103 35.978622 
L 225.811256 35.978622 
L 225.90481 33.741894 
L 225.975916 33.741894 
L 226.062989 30.945982 
L 226.197719 30.945982 
L 226.265035 29.268436 
L 226.320042 29.268436 
L 226.419777 27.031707 
L 226.473098 27.031707 
L 226.564994 25.35416 
L 226.648972 25.35416 
L 226.648972 24.794978 
L 228.177706 24.794978 
L 228.177706 24.235795 
L 228.296587 24.235795 
L 228.363365 21.439884 
L 228.430951 21.439884 
L 228.525702 17.525609 
L 228.591145 17.525609 
L 228.616017 15.848062 
L 228.717096 15.848062 
L 228.815052 14.170515 
L 228.8509 14.170515 
L 228.911417 11.933786 
L 228.964049 11.933786 
L 229.022993 10.256239 
L 229.077924 10.256239 
L 229.077924 9.697057 
L 333.168 9.697057 
L 333.168 9.697057 
" style="fill:none;stroke:#000080;stroke-linecap:square;stroke-width:1.5;"/>
   </g>
   <g id="line2d_39">
    <defs>
     <path d="M 0 6 
C 1.591219 6 3.117479 5.367802 4.242641 4.242641 
C 5.367802 3.117479 6 1.591219 6 0 
C 6 -1.591219 5.367802 -3.117479 4.242641 -4.242641 
C 3.117479 -5.367802 1.591219 -6 0 -6 
C -1.591219 -6 -3.117479 -5.367802 -4.242641 -4.242641 
C -5.367802 -3.117479 -6 -1.591219 -6 0 
C -6 1.591219 -5.367802 3.117479 -4.242641 4.242641 
C -3.117479 5.367802 -1.591219 6 0 6 
z
" id="m526d4a207b" style="stroke:#000080;stroke-width:1.5;"/>
    </defs>
    <g>
     <use style="fill-opacity:0;stroke:#000080;stroke-width:1.5;" x="68.034251" xlink:href="#m526d4a207b" y="260.210701"/>
     <use style="fill-opacity:0;stroke:#000080;stroke-width:1.5;" x="175.029293" xlink:href="#m526d4a207b" y="223.863855"/>
     <use style="fill-opacity:0;stroke:#000080;stroke-width:1.5;" x="204.012149" xlink:href="#m526d4a207b" y="134.953879"/>
     <use style="fill-opacity:0;stroke:#000080;stroke-width:1.5;" x="228.477936" xlink:href="#m526d4a207b" y="19.762337"/>
     <use style="fill-opacity:0;stroke:#000080;stroke-width:1.5;" x="229.077924" xlink:href="#m526d4a207b" y="9.697057"/>
     <use style="fill-opacity:0;stroke:#000080;stroke-width:1.5;" x="333.168" xlink:href="#m526d4a207b" y="9.697057"/>
    </g>
   </g>
   <g id="line2d_40">
    <path style="fill:none;stroke:#000080;stroke-linecap:square;stroke-width:1.5;"/>
    <g/>
   </g>
   <g id="line2d_41">
    <defs>
     <path d="M 0 1.5 
C 0.397805 1.5 0.77937 1.341951 1.06066 1.06066 
C 1.341951 0.77937 1.5 0.397805 1.5 0 
C 1.5 -0.397805 1.341951 -0.77937 1.06066 -1.06066 
C 0.77937 -1.341951 0.397805 -1.5 0 -1.5 
C -0.397805 -1.5 -0.77937 -1.341951 -1.06066 -1.06066 
C -1.341951 -0.77937 -1.5 -0.397805 -1.5 0 
C -1.5 0.397805 -1.341951 0.77937 -1.06066 1.06066 
C -0.77937 1.341951 -0.397805 1.5 0 1.5 
z
" id="mac30921d12" style="stroke:#ff00ff;"/>
    </defs>
    <g>
     <use style="fill:#ff00ff;stroke:#ff00ff;" x="190.286825" xlink:href="#mac30921d12" y="9.697057"/>
     <use style="fill:#ff00ff;stroke:#ff00ff;" x="190.286825" xlink:href="#mac30921d12" y="9.697057"/>
    </g>
   </g>
   <g id="line2d_42">
    <path d="M 28.455965 294.88 
L 28.455965 289.288178 
L 40.370217 289.288178 
L 40.370217 287.610631 
L 56.12 287.610631 
L 56.12 286.492266 
L 59.253858 286.492266 
L 59.253858 285.373902 
L 64.198719 285.373902 
L 64.198719 284.81472 
L 69.672503 284.81472 
L 69.672503 283.696355 
L 77.155024 283.696355 
L 77.155024 283.137173 
L 79.948502 283.137173 
L 79.948502 282.018808 
L 80.787138 282.018808 
L 80.787138 281.459626 
L 83.784035 281.459626 
L 83.784035 279.782079 
L 84.458185 279.782079 
L 84.458185 279.222897 
L 87.481505 279.222897 
L 87.481505 278.104533 
L 88.556144 278.104533 
L 88.556144 277.545351 
L 90.981092 277.545351 
L 90.981092 276.986168 
L 91.862754 276.986168 
L 91.862754 276.426986 
L 93.887283 276.426986 
L 93.887283 271.953528 
L 95.351029 271.953528 
L 95.351029 271.394346 
L 96.038666 271.394346 
L 96.038666 270.835164 
L 97.950482 270.835164 
L 97.950482 270.275981 
L 98.832144 270.275981 
L 98.832144 269.716799 
L 99.11626 269.716799 
L 99.11626 269.157617 
L 101.23446 269.157617 
L 101.23446 268.598435 
L 101.481783 268.598435 
L 101.481783 267.48007 
L 101.966002 267.48007 
L 101.966002 265.243341 
L 102.895343 265.243341 
L 102.895343 264.684159 
L 104.819059 264.684159 
L 104.819059 264.124977 
L 105.801534 264.124977 
L 105.801534 263.006612 
L 105.991465 263.006612 
L 105.991465 262.44743 
L 108.120612 262.44743 
L 108.120612 261.329066 
L 108.286687 261.329066 
L 108.286687 259.092337 
L 112.253934 259.092337 
L 112.253934 258.533154 
L 113.272818 258.533154 
L 113.272818 256.855608 
L 114.351204 256.855608 
L 114.351204 254.618879 
L 114.696138 254.618879 
L 114.696138 252.38215 
L 117.620026 252.38215 
L 117.620026 250.704603 
L 117.811013 250.704603 
L 117.811013 250.145421 
L 118.645127 250.145421 
L 118.645127 249.586238 
L 119.782703 249.586238 
L 119.782703 249.027056 
L 120.609239 249.027056 
L 120.609239 247.908692 
L 121.242993 247.908692 
L 121.242993 247.34951 
L 121.778985 247.34951 
L 121.778985 246.790327 
L 122.151854 246.790327 
L 122.151854 245.671963 
L 125.972626 245.671963 
L 125.972626 243.435234 
L 128.13443 243.435234 
L 128.13443 242.876052 
L 128.444143 242.876052 
L 128.444143 242.316869 
L 129.096637 242.316869 
L 129.096637 241.757687 
L 129.582224 241.757687 
L 129.677716 240.08014 
L 130.100987 240.08014 
L 130.14738 238.961776 
L 130.33171 238.961776 
L 130.33171 236.725047 
L 130.739365 236.725047 
L 130.739365 236.165865 
L 132.402015 236.165865 
L 132.402015 235.0475 
L 133.000983 235.0475 
L 133.000983 234.488318 
L 133.196088 234.488318 
L 133.196088 233.929136 
L 133.312097 233.929136 
L 133.389004 232.810771 
L 133.6555 232.810771 
L 133.6555 231.133225 
L 133.880682 231.133225 
L 133.880682 230.574042 
L 134.139719 230.574042 
L 134.139719 230.01486 
L 134.717542 230.01486 
L 134.717542 229.455678 
L 135.276571 229.455678 
L 135.379395 227.218949 
L 135.784647 227.218949 
L 135.784647 226.659767 
L 136.016705 226.659767 
L 136.016705 226.100584 
L 137.008324 226.100584 
L 137.008324 225.541402 
L 137.285815 225.541402 
L 137.285815 224.98222 
L 137.618997 224.98222 
L 137.618997 224.423038 
L 137.886877 224.423038 
L 137.886877 223.863855 
L 138.179706 223.863855 
L 138.179706 223.304673 
L 138.324271 223.304673 
L 138.353038 222.186309 
L 138.52464 222.186309 
L 138.52464 221.067944 
L 138.862788 221.067944 
L 138.946296 218.272033 
L 139.0294 218.272033 
L 139.0294 217.712851 
L 139.330722 217.712851 
L 139.357855 214.91694 
L 139.94419 214.91694 
L 139.94419 214.357757 
L 140.255775 214.357757 
L 140.255775 213.798575 
L 140.712812 213.798575 
L 140.712812 212.121028 
L 140.862496 212.121028 
L 140.862496 210.443482 
L 141.206772 210.443482 
L 141.206772 209.884299 
L 141.472518 209.884299 
L 141.472518 208.765935 
L 141.591967 208.765935 
L 141.591967 208.206753 
L 141.781376 208.206753 
L 141.875303 207.088388 
L 142.496231 207.088388 
L 142.586342 205.970024 
L 142.720629 205.970024 
L 142.831738 204.292477 
L 143.095508 204.292477 
L 143.095508 203.733295 
L 143.290712 203.733295 
L 143.290712 203.174112 
L 143.441019 203.174112 
L 143.483724 200.937384 
L 143.65349 200.937384 
L 143.674593 199.819019 
L 143.842493 199.819019 
L 143.884213 198.700655 
L 143.967351 198.700655 
L 143.967351 197.58229 
L 144.214377 197.58229 
L 144.214377 197.023108 
L 144.377111 197.023108 
L 144.377111 195.904743 
L 144.51825 195.904743 
L 144.51825 194.786379 
L 144.65824 194.786379 
L 144.65824 193.668014 
L 144.77733 193.668014 
L 144.816844 191.990468 
L 144.993542 191.990468 
L 145.032563 190.872103 
L 145.149096 190.872103 
L 145.245608 188.635374 
L 145.36071 188.635374 
L 145.36071 186.398645 
L 145.757607 186.398645 
L 145.794933 185.280281 
L 145.924939 185.280281 
L 146.017203 181.366005 
L 146.05397 181.366005 
L 146.108974 179.129276 
L 146.524921 179.129276 
L 146.524921 178.570094 
L 146.843566 178.570094 
L 146.948481 176.892547 
L 147.395858 176.892547 
L 147.497466 175.774183 
L 147.581683 175.774183 
L 147.648761 173.537454 
L 147.798735 173.537454 
L 147.848437 171.300725 
L 147.947413 171.300725 
L 147.947413 170.741543 
L 148.192385 170.741543 
L 148.192385 169.063996 
L 148.417919 169.063996 
L 148.417919 168.504814 
L 148.672099 168.504814 
L 148.672099 167.945631 
L 149.07729 167.945631 
L 149.169454 165.14972 
L 149.291576 165.14972 
L 149.291576 164.590538 
L 149.488193 164.590538 
L 149.593139 162.912991 
L 149.637921 162.912991 
L 149.637921 161.235444 
L 149.786355 161.235444 
L 149.786355 158.998715 
L 150.296009 158.998715 
L 150.324681 156.202804 
L 150.552348 156.202804 
L 150.566477 155.08444 
L 151.0401 155.08444 
L 151.0401 154.525258 
L 151.299196 154.525258 
L 151.299196 152.847711 
L 151.420576 152.847711 
L 151.420576 151.170164 
L 151.975949 151.170164 
L 151.975949 150.0518 
L 152.182887 150.0518 
L 152.182887 149.492617 
L 152.46342 149.492617 
L 152.46342 148.933435 
L 152.652101 148.933435 
L 152.652101 148.374253 
L 153.181782 148.374253 
L 153.181782 147.255888 
L 153.350772 147.255888 
L 153.374779 144.459977 
L 153.987461 144.459977 
L 153.987461 143.900795 
L 154.14875 143.900795 
L 154.14875 143.341613 
L 154.466857 143.341613 
L 154.466857 142.223248 
L 154.889367 142.223248 
L 154.889367 141.664066 
L 155.020662 141.664066 
L 155.020662 141.104884 
L 155.387309 141.104884 
L 155.461834 139.427337 
L 155.829688 139.427337 
L 155.933359 136.631426 
L 156.402354 136.631426 
L 156.402354 136.072244 
L 156.522625 136.072244 
L 156.522625 135.513061 
L 161.855096 135.513061 
L 161.855096 134.953879 
L 162.095093 134.953879 
L 162.145574 132.71715 
L 162.954351 132.71715 
L 162.954351 132.157968 
L 163.084387 132.157968 
L 163.084387 131.598786 
L 163.627973 131.598786 
L 163.627973 129.921239 
L 163.759587 129.921239 
L 163.759587 129.362057 
L 163.903207 129.362057 
L 163.903207 126.566145 
L 164.478559 126.566145 
L 164.566352 121.533505 
L 164.882431 121.533505 
L 164.937611 119.855959 
L 165.1747 119.855959 
L 165.1747 118.178412 
L 165.550912 118.178412 
L 165.656906 115.382501 
L 165.709659 115.382501 
L 165.820497 107.553949 
L 165.95372 107.553949 
L 166.05153 101.402945 
L 166.217109 101.402945 
L 166.251168 99.725398 
L 166.414844 99.725398 
L 166.465325 95.811122 
L 166.638076 95.811122 
L 166.732079 91.337664 
L 166.759629 91.337664 
L 166.858446 90.2193 
L 166.951255 90.2193 
L 166.994756 88.541753 
L 167.124605 88.541753 
L 167.205265 85.18666 
L 167.242777 85.18666 
L 167.290887 79.594837 
L 167.407926 79.594837 
L 167.423824 76.798926 
L 167.545224 76.798926 
L 167.545224 75.680562 
L 167.780295 75.680562 
L 167.816575 74.003015 
L 168.114265 74.003015 
L 168.139688 68.970375 
L 168.246057 68.970375 
L 168.321634 66.733646 
L 168.39688 66.733646 
L 168.39688 65.615281 
L 168.610776 65.615281 
L 168.610776 64.496917 
L 168.807389 64.496917 
L 168.807389 63.937735 
L 168.987274 63.937735 
L 169.045213 62.81937 
L 169.102958 62.81937 
L 169.189213 60.582641 
L 169.341494 60.582641 
L 169.450119 56.668365 
L 169.454826 56.668365 
L 169.54402 53.872454 
L 169.623435 53.872454 
L 169.702485 51.635725 
L 169.795022 51.635725 
L 169.804248 50.517361 
L 170.078759 50.517361 
L 170.119561 49.398996 
L 178.917152 49.398996 
L 178.917152 48.280632 
L 180.482956 48.280632 
L 180.482956 46.603085 
L 180.606403 46.603085 
L 180.606403 44.925538 
L 181.029215 44.925538 
L 181.029215 44.366356 
L 181.229668 44.366356 
L 181.229668 38.215351 
L 181.706965 38.215351 
L 181.706965 35.978622 
L 182.038339 35.978622 
L 182.038339 34.860258 
L 182.227425 34.860258 
L 182.227425 34.301076 
L 182.660701 34.301076 
L 182.660701 32.623529 
L 182.907774 32.623529 
L 182.907774 32.064347 
L 187.454824 32.064347 
L 187.454824 31.505165 
L 187.970579 31.505165 
L 187.976989 28.709253 
L 188.253539 28.709253 
L 188.253539 27.590889 
L 188.372948 27.590889 
L 188.372948 27.031707 
L 188.575298 27.031707 
L 188.575298 25.35416 
L 188.862255 25.35416 
L 188.862255 24.235795 
L 189.015273 24.235795 
L 189.09803 20.880702 
L 189.141505 20.880702 
L 189.141505 20.32152 
L 189.298004 20.32152 
L 189.408923 14.729697 
L 189.508874 14.729697 
L 189.508874 13.611333 
L 189.908695 13.611333 
L 189.978716 10.256239 
L 190.286825 10.256239 
L 190.286825 9.697057 
L 333.168 9.697057 
L 333.168 9.697057 
" style="fill:none;stroke:#ff00ff;stroke-linecap:square;stroke-width:1.5;"/>
   </g>
   <g id="line2d_43">
    <defs>
     <path d="M -0 8.485281 
L 5.091169 0 
L 0 -8.485281 
L -5.091169 -0 
z
" id="m755d994cdf" style="stroke:#ff00ff;stroke-linejoin:miter;stroke-width:1.5;"/>
    </defs>
    <g>
     <use style="fill-opacity:0;stroke:#ff00ff;stroke-linejoin:miter;stroke-width:1.5;" x="128.444143" xlink:href="#m755d994cdf" y="242.316869"/>
     <use style="fill-opacity:0;stroke:#ff00ff;stroke-linejoin:miter;stroke-width:1.5;" x="169.454826" xlink:href="#m755d994cdf" y="55.550001"/>
     <use style="fill-opacity:0;stroke:#ff00ff;stroke-linejoin:miter;stroke-width:1.5;" x="190.286825" xlink:href="#m755d994cdf" y="10.256239"/>
     <use style="fill-opacity:0;stroke:#ff00ff;stroke-linejoin:miter;stroke-width:1.5;" x="190.286825" xlink:href="#m755d994cdf" y="9.697057"/>
     <use style="fill-opacity:0;stroke:#ff00ff;stroke-linejoin:miter;stroke-width:1.5;" x="190.286825" xlink:href="#m755d994cdf" y="9.697057"/>
     <use style="fill-opacity:0;stroke:#ff00ff;stroke-linejoin:miter;stroke-width:1.5;" x="333.168" xlink:href="#m755d994cdf" y="9.697057"/>
    </g>
   </g>
   <g id="line2d_44">
    <path style="fill:none;stroke:#ff00ff;stroke-linecap:square;stroke-width:1.5;"/>
    <g/>
   </g>
   <g id="line2d_45">
    <defs>
     <path d="M 0 1.5 
C 0.397805 1.5 0.77937 1.341951 1.06066 1.06066 
C 1.341951 0.77937 1.5 0.397805 1.5 0 
C 1.5 -0.397805 1.341951 -0.77937 1.06066 -1.06066 
C 0.77937 -1.341951 0.397805 -1.5 0 -1.5 
C -0.397805 -1.5 -0.77937 -1.341951 -1.06066 -1.06066 
C -1.341951 -0.77937 -1.5 -0.397805 -1.5 0 
C -1.5 0.397805 -1.341951 0.77937 -1.06066 1.06066 
C -0.77937 1.341951 -0.397805 1.5 0 1.5 
z
" id="m09ff47027f" style="stroke:#ff7500;"/>
    </defs>
    <g>
     <use style="fill:#ff7500;stroke:#ff7500;" x="195.047555" xlink:href="#m09ff47027f" y="9.697057"/>
     <use style="fill:#ff7500;stroke:#ff7500;" x="195.047555" xlink:href="#m09ff47027f" y="9.697057"/>
    </g>
   </g>
   <g id="line2d_46">
    <path d="M 28.455965 294.88 
L 28.455965 288.169813 
L 40.370217 288.169813 
L 40.370217 285.373902 
L 47.339607 285.373902 
L 47.339607 284.255537 
L 52.284468 284.255537 
L 52.284468 280.900444 
L 59.253858 280.900444 
L 59.253858 279.222897 
L 64.198719 279.222897 
L 64.198719 278.104533 
L 66.223248 278.104533 
L 66.223248 276.986168 
L 68.034251 276.986168 
L 68.034251 275.867804 
L 69.672503 275.867804 
L 69.672503 275.308622 
L 73.817748 275.308622 
L 73.817748 274.190257 
L 77.155024 274.190257 
L 77.155024 273.631075 
L 79.066841 273.631075 
L 79.066841 273.071893 
L 79.948502 273.071893 
L 79.948502 271.953528 
L 80.787138 271.953528 
L 80.787138 271.394346 
L 82.350819 271.394346 
L 82.350819 270.835164 
L 88.027221 270.835164 
L 88.027221 270.275981 
L 89.069276 270.275981 
L 89.069276 268.598435 
L 91.427575 268.598435 
L 91.427575 268.039252 
L 93.105847 268.039252 
L 93.105847 266.920888 
L 93.887283 266.920888 
L 93.887283 266.361706 
L 96.038666 266.361706 
L 96.038666 264.684159 
L 97.021141 264.684159 
L 97.021141 264.124977 
L 100.207968 264.124977 
L 100.207968 263.565795 
L 101.481783 263.565795 
L 101.481783 262.44743 
L 104.819059 262.44743 
L 104.819059 261.888248 
L 110.311216 261.888248 
L 110.311216 260.769883 
L 111.310007 260.769883 
L 111.310007 258.533154 
L 111.585031 258.533154 
L 111.585031 257.41479 
L 111.855724 257.41479 
L 111.855724 256.855608 
L 113.880253 256.855608 
L 113.880253 256.296425 
L 114.466953 256.296425 
L 114.466953 255.737243 
L 114.581927 255.737243 
L 114.581927 254.059696 
L 114.696138 254.059696 
L 114.696138 253.500514 
L 115.691256 253.500514 
L 115.691256 252.38215 
L 116.529892 252.38215 
L 116.529892 251.263785 
L 117.329507 251.263785 
L 117.329507 250.145421 
L 117.523731 250.145421 
L 117.523731 249.586238 
L 119.267005 249.586238 
L 119.267005 249.027056 
L 119.867168 249.027056 
L 119.867168 247.908692 
L 121.627542 247.908692 
L 121.627542 246.231145 
L 122.444434 246.231145 
L 122.444434 245.112781 
L 126.723846 245.112781 
L 126.723846 243.994416 
L 127.497741 243.994416 
L 127.497741 243.435234 
L 127.819033 243.435234 
L 127.92481 241.757687 
L 128.341524 241.757687 
L 128.341524 240.639323 
L 129.194858 240.639323 
L 129.194858 240.08014 
L 129.677716 240.08014 
L 129.677716 239.520958 
L 129.819968 239.520958 
L 129.819968 238.961776 
L 132.361332 238.961776 
L 132.361332 237.284229 
L 132.603999 237.284229 
L 132.603999 236.165865 
L 133.079291 236.165865 
L 133.157244 235.0475 
L 133.955092 235.0475 
L 133.992176 232.810771 
L 134.574897 232.810771 
L 134.574897 231.692407 
L 135.10382 231.692407 
L 135.173129 229.455678 
L 135.481607 229.455678 
L 135.481607 228.896496 
L 136.278134 228.896496 
L 136.278134 228.337313 
L 136.407373 228.337313 
L 136.407373 227.778131 
L 136.914823 227.778131 
L 136.914823 227.218949 
L 137.377325 227.218949 
L 137.377325 226.100584 
L 137.558897 226.100584 
L 137.558897 225.541402 
L 138.004608 225.541402 
L 138.09238 221.627126 
L 138.295455 221.627126 
L 138.295455 220.508762 
L 138.52464 220.508762 
L 138.52464 219.94958 
L 138.80689 219.94958 
L 138.80689 219.390397 
L 139.411992 219.390397 
L 139.411992 218.831215 
L 139.706738 218.831215 
L 139.706738 218.272033 
L 140.204235 218.272033 
L 140.230025 216.035304 
L 140.561812 216.035304 
L 140.561812 214.91694 
L 140.687737 214.91694 
L 140.687737 214.357757 
L 141.875303 214.357757 
L 141.875303 213.239393 
L 142.015238 213.239393 
L 142.015238 211.002664 
L 142.245962 211.002664 
L 142.245962 210.443482 
L 142.473629 210.443482 
L 142.473629 207.64757 
L 143.376763 207.64757 
L 143.376763 206.529206 
L 144.417555 206.529206 
L 144.417555 205.970024 
L 145.245608 205.970024 
L 145.245608 204.851659 
L 145.64514 204.851659 
L 145.64514 203.174112 
L 146.200257 203.174112 
L 146.200257 202.055748 
L 146.507044 202.055748 
L 146.507044 198.700655 
L 147.497466 198.700655 
L 147.497466 198.141472 
L 149.200066 198.141472 
L 149.200066 197.023108 
L 159.386372 197.023108 
L 159.386372 194.786379 
L 162.906194 194.786379 
L 162.906194 194.227197 
L 163.375097 194.227197 
L 163.455355 190.312921 
L 164.142076 190.312921 
L 164.167702 186.957828 
L 164.497409 186.957828 
L 164.497409 183.602734 
L 165.023097 183.602734 
L 165.023097 183.043552 
L 165.307013 183.043552 
L 165.307013 182.48437 
L 165.639285 182.48437 
L 165.72136 179.688458 
L 165.768084 179.688458 
L 165.826311 178.010912 
L 165.971022 178.010912 
L 165.982546 172.419089 
L 166.200054 172.419089 
L 166.200054 171.859907 
L 166.336023 171.859907 
L 166.364215 170.741543 
L 166.470924 170.741543 
L 166.470924 167.386449 
L 166.765134 167.386449 
L 166.765134 166.827267 
L 166.902183 166.827267 
L 166.902183 166.268085 
L 167.232068 166.268085 
L 167.328213 164.590538 
L 167.639639 164.590538 
L 167.728334 162.353809 
L 167.821751 162.353809 
L 167.930099 158.998715 
L 168.165074 158.998715 
L 168.175218 155.643622 
L 168.496698 155.643622 
L 168.496698 155.08444 
L 168.640412 155.08444 
L 168.640412 154.525258 
L 168.802501 154.525258 
L 168.802501 153.966075 
L 169.54402 153.966075 
L 169.54402 152.847711 
L 169.66533 152.847711 
L 169.76269 151.170164 
L 169.781173 151.170164 
L 169.873288 150.0518 
L 170.160265 150.0518 
L 170.160265 147.815071 
L 170.438085 147.815071 
L 170.438085 146.696706 
L 170.759542 146.696706 
L 170.811814 144.459977 
L 171.177589 144.459977 
L 171.177589 143.900795 
L 171.321747 143.900795 
L 171.321747 143.341613 
L 171.882499 143.341613 
L 171.882499 142.78243 
L 172.085628 142.78243 
L 172.085628 142.223248 
L 172.492715 142.223248 
L 172.492715 141.664066 
L 172.951936 141.664066 
L 172.951936 141.104884 
L 173.085819 141.104884 
L 173.177026 138.868155 
L 173.455239 138.868155 
L 173.522236 137.190608 
L 173.592674 137.190608 
L 173.640702 134.953879 
L 173.813233 134.953879 
L 173.907936 131.598786 
L 174.016565 131.598786 
L 174.016565 131.039603 
L 174.281617 131.039603 
L 174.281617 130.480421 
L 174.409098 130.480421 
L 174.504092 127.68451 
L 174.602053 127.68451 
L 174.699459 123.211052 
L 174.820445 123.211052 
L 174.820445 122.65187 
L 174.947426 122.65187 
L 174.967929 120.974323 
L 175.131082 120.974323 
L 175.225543 119.855959 
L 175.252437 119.855959 
L 175.339553 117.61923 
L 175.442849 117.61923 
L 175.55213 111.468225 
L 175.801198 111.468225 
L 175.801198 110.349861 
L 176.008176 110.349861 
L 176.008176 109.231496 
L 176.225392 109.231496 
L 176.301406 106.435585 
L 176.395953 106.435585 
L 176.489983 104.198856 
L 176.53057 104.198856 
L 176.630071 101.402945 
L 176.732081 101.402945 
L 176.732081 100.843762 
L 177.104038 100.843762 
L 177.104038 99.725398 
L 177.752184 99.725398 
L 177.755088 98.047851 
L 177.960044 98.047851 
L 178.063038 96.370304 
L 178.071593 96.370304 
L 178.071593 95.25194 
L 178.238984 95.25194 
L 178.28973 90.778482 
L 178.424323 90.778482 
L 178.424323 89.660118 
L 178.591097 89.660118 
L 178.591097 85.745842 
L 178.879112 85.745842 
L 178.879112 83.509113 
L 179.178427 83.509113 
L 179.178427 80.713202 
L 179.535572 80.713202 
L 179.535572 80.15402 
L 179.699734 80.15402 
L 179.787682 76.798926 
L 179.931564 76.798926 
L 180.008151 73.443833 
L 180.338639 73.443833 
L 180.338639 72.325468 
L 180.569462 72.325468 
L 180.601482 71.207104 
L 181.979389 71.207104 
L 181.979389 70.647921 
L 182.274373 70.647921 
L 182.274373 69.529557 
L 182.443217 69.529557 
L 182.485171 65.615281 
L 182.592895 65.615281 
L 182.592895 64.496917 
L 182.713012 64.496917 
L 182.732588 62.260188 
L 182.838778 62.260188 
L 182.853894 59.464277 
L 182.957194 59.464277 
L 182.978637 53.872454 
L 183.085452 53.872454 
L 183.106736 48.839814 
L 183.328637 48.839814 
L 183.328637 47.72145 
L 183.549783 47.72145 
L 183.549783 46.603085 
L 183.880324 46.603085 
L 183.983717 35.978622 
L 184.220584 35.978622 
L 184.321957 28.709253 
L 184.694444 28.709253 
L 184.694444 27.031707 
L 193.430952 27.031707 
L 193.430952 25.35416 
L 193.682257 25.35416 
L 193.682257 24.794978 
L 194.001186 24.794978 
L 194.069889 23.676613 
L 194.200899 23.676613 
L 194.267699 15.848062 
L 194.659877 15.848062 
L 194.743304 10.256239 
L 195.047555 10.256239 
L 195.047555 9.697057 
L 333.168 9.697057 
L 333.168 9.697057 
" style="fill:none;stroke:#ff7500;stroke-linecap:square;stroke-width:1.5;"/>
   </g>
   <g id="line2d_47">
    <defs>
     <path d="M 0 -6 
L -1.347084 -1.854102 
L -5.706339 -1.854102 
L -2.179628 0.708204 
L -3.526712 4.854102 
L -0 2.291796 
L 3.526712 4.854102 
L 2.179628 0.708204 
L 5.706339 -1.854102 
L 1.347084 -1.854102 
z
" id="m81bad4df0e" style="stroke:#ff7500;stroke-linejoin:bevel;stroke-width:1.5;"/>
    </defs>
    <g>
     <use style="fill-opacity:0;stroke:#ff7500;stroke-linejoin:bevel;stroke-width:1.5;" x="119.867168" xlink:href="#m81bad4df0e" y="249.027056"/>
     <use style="fill-opacity:0;stroke:#ff7500;stroke-linejoin:bevel;stroke-width:1.5;" x="176.301406" xlink:href="#m81bad4df0e" y="108.672314"/>
     <use style="fill-opacity:0;stroke:#ff7500;stroke-linejoin:bevel;stroke-width:1.5;" x="195.047555" xlink:href="#m81bad4df0e" y="10.256239"/>
     <use style="fill-opacity:0;stroke:#ff7500;stroke-linejoin:bevel;stroke-width:1.5;" x="195.047555" xlink:href="#m81bad4df0e" y="9.697057"/>
     <use style="fill-opacity:0;stroke:#ff7500;stroke-linejoin:bevel;stroke-width:1.5;" x="195.047555" xlink:href="#m81bad4df0e" y="9.697057"/>
     <use style="fill-opacity:0;stroke:#ff7500;stroke-linejoin:bevel;stroke-width:1.5;" x="333.168" xlink:href="#m81bad4df0e" y="9.697057"/>
    </g>
   </g>
   <g id="line2d_48">
    <path style="fill:none;stroke:#ff7500;stroke-linecap:square;stroke-width:1.5;"/>
    <g/>
   </g>
   <g id="line2d_49">
    <defs>
     <path d="M 0 1.5 
C 0.397805 1.5 0.77937 1.341951 1.06066 1.06066 
C 1.341951 0.77937 1.5 0.397805 1.5 0 
C 1.5 -0.397805 1.341951 -0.77937 1.06066 -1.06066 
C 0.77937 -1.341951 0.397805 -1.5 0 -1.5 
C -0.397805 -1.5 -0.77937 -1.341951 -1.06066 -1.06066 
C -1.341951 -0.77937 -1.5 -0.397805 -1.5 0 
C -1.5 0.397805 -1.341951 0.77937 -1.06066 1.06066 
C -0.77937 1.341951 -0.397805 1.5 0 1.5 
z
" id="mbc8a52a438" style="stroke:#6495ed;"/>
    </defs>
    <g>
     <use style="fill:#6495ed;stroke:#6495ed;" x="208.857603" xlink:href="#mbc8a52a438" y="9.697057"/>
     <use style="fill:#6495ed;stroke:#6495ed;" x="208.857603" xlink:href="#mbc8a52a438" y="9.697057"/>
    </g>
   </g>
   <g id="line2d_50">
    <path d="M 72.543934 294.88 
L 72.543934 292.643271 
L 83.08236 292.643271 
L 83.08236 288.169813 
L 84.458185 288.169813 
L 84.458185 284.81472 
L 85.732 284.81472 
L 85.732 282.577991 
L 90.05175 282.577991 
L 90.05175 282.018808 
L 90.981092 282.018808 
L 90.981092 279.222897 
L 92.70139 279.222897 
L 92.70139 277.545351 
L 94.996612 277.545351 
L 94.996612 273.071893 
L 95.351029 273.071893 
L 95.351029 270.835164 
L 95.698286 270.835164 
L 95.698286 266.920888 
L 99.941473 266.920888 
L 99.941473 264.124977 
L 103.990531 264.124977 
L 103.990531 263.006612 
L 104.409787 263.006612 
L 104.409787 262.44743 
L 104.819059 262.44743 
L 104.819059 259.651519 
L 105.020098 259.651519 
L 105.020098 256.855608 
L 105.60948 256.855608 
L 105.60948 255.737243 
L 105.991465 255.737243 
L 105.991465 255.178061 
L 106.365146 255.178061 
L 106.365146 254.618879 
L 109.560502 254.618879 
L 109.560502 253.500514 
L 110.457504 253.500514 
L 110.457504 252.941332 
L 112.514373 252.941332 
L 112.514373 252.38215 
L 112.643127 252.38215 
L 112.643127 249.027056 
L 112.770924 249.027056 
L 112.770924 248.467874 
L 114.581927 248.467874 
L 114.581927 247.908692 
L 114.922307 247.908692 
L 114.922307 247.34951 
L 117.523731 247.34951 
L 117.523731 246.790327 
L 117.811013 246.790327 
L 117.811013 246.231145 
L 118.914406 246.231145 
L 118.914406 245.671963 
L 121.008065 245.671963 
L 121.008065 245.112781 
L 126.723846 245.112781 
L 126.723846 244.553598 
L 129.677716 244.553598 
L 129.677716 243.994416 
L 134.029181 243.994416 
L 134.029181 243.435234 
L 134.431058 243.435234 
L 134.431058 242.316869 
L 135.447604 242.316869 
L 135.447604 241.757687 
L 137.588973 241.757687 
L 137.588973 240.639323 
L 138.208716 240.639323 
L 138.208716 240.08014 
L 141.084606 240.08014 
L 141.15801 238.961776 
L 144.797098 238.961776 
L 144.797098 238.402594 
L 145.757607 238.402594 
L 145.757607 237.843411 
L 146.05397 237.843411 
L 146.05397 237.284229 
L 146.614027 237.284229 
L 146.614027 236.725047 
L 148.029459 236.725047 
L 148.029459 236.165865 
L 149.07729 236.165865 
L 149.07729 235.606682 
L 149.488193 235.606682 
L 149.488193 235.0475 
L 149.977424 235.0475 
L 149.977424 233.929136 
L 151.434009 233.929136 
L 151.434009 233.369954 
L 151.726929 233.369954 
L 151.726929 232.810771 
L 152.639586 232.810771 
L 152.639586 232.251589 
L 153.290609 232.251589 
L 153.290609 231.692407 
L 153.695627 231.692407 
L 153.695627 231.133225 
L 153.999032 231.133225 
L 153.999032 230.574042 
L 154.137279 230.574042 
L 154.137279 230.01486 
L 154.455596 230.01486 
L 154.489355 228.896496 
L 154.922285 228.896496 
L 154.922285 228.337313 
L 158.141799 228.337313 
L 158.141799 227.778131 
L 158.259561 227.778131 
L 158.259561 226.659767 
L 160.187524 226.659767 
L 160.187524 226.100584 
L 160.388094 226.100584 
L 160.388094 225.541402 
L 160.735511 225.541402 
L 160.735511 224.423038 
L 161.045364 224.423038 
L 161.045364 223.863855 
L 161.394923 223.863855 
L 161.394923 223.304673 
L 161.589401 223.304673 
L 161.589401 222.745491 
L 161.722762 222.745491 
L 161.722762 222.186309 
L 161.979149 222.186309 
L 161.979149 221.627126 
L 162.346026 221.627126 
L 162.346026 220.508762 
L 162.572289 220.508762 
L 162.572289 219.390397 
L 163.240495 219.390397 
L 163.240495 218.831215 
L 163.495344 218.831215 
L 163.495344 217.712851 
L 163.877183 217.712851 
L 163.877183 216.594486 
L 164.333346 216.594486 
L 164.333346 216.035304 
L 164.541314 216.035304 
L 164.541314 215.476122 
L 164.666141 215.476122 
L 164.715819 214.357757 
L 164.796241 214.357757 
L 164.796241 212.121028 
L 164.962079 212.121028 
L 165.029187 210.443482 
L 165.083898 210.443482 
L 165.083898 209.884299 
L 165.539094 209.884299 
L 165.592209 206.529206 
L 165.976785 206.529206 
L 166.057267 203.733295 
L 166.137374 203.733295 
L 166.137374 203.174112 
L 166.273837 203.174112 
L 166.273837 202.055748 
L 166.470924 202.055748 
L 166.470924 201.496566 
L 166.776138 201.496566 
L 166.776138 200.378201 
L 166.896722 200.378201 
L 166.896722 199.259837 
L 167.103032 199.259837 
L 167.183793 198.141472 
L 167.434415 198.141472 
L 167.471431 195.345561 
L 167.560996 195.345561 
L 167.560996 194.227197 
L 167.806217 194.227197 
L 167.806217 193.668014 
L 171.156287 193.668014 
L 171.156287 193.108832 
L 174.549643 193.108832 
L 174.619488 191.431285 
L 175.032696 191.431285 
L 175.032696 190.872103 
L 176.900763 190.872103 
L 176.900763 190.312921 
L 178.306612 190.312921 
L 178.306612 189.753739 
L 178.585563 189.753739 
L 178.585563 189.194556 
L 179.003786 189.194556 
L 179.003786 188.635374 
L 179.681571 188.635374 
L 179.681571 188.076192 
L 180.010698 188.076192 
L 180.010698 186.957828 
L 180.351128 186.957828 
L 180.351128 185.839463 
L 180.697186 185.839463 
L 180.787492 184.161916 
L 180.816679 184.161916 
L 180.816679 183.602734 
L 181.73924 183.602734 
L 181.792132 181.925187 
L 182.836617 181.925187 
L 182.899164 180.247641 
L 183.102481 180.247641 
L 183.21276 178.570094 
L 183.297112 178.570094 
L 183.37477 176.892547 
L 183.422867 176.892547 
L 183.422867 175.774183 
L 183.64075 175.774183 
L 183.733289 173.537454 
L 183.761978 173.537454 
L 183.870153 171.859907 
L 183.957421 171.859907 
L 184.046262 170.18236 
L 184.124625 170.18236 
L 184.192651 160.676262 
L 184.268363 160.676262 
L 184.268363 160.11708 
L 185.347099 160.11708 
L 185.347099 158.998715 
L 187.253805 158.998715 
L 187.253805 158.439533 
L 187.37868 158.439533 
L 187.37868 157.880351 
L 188.677125 157.880351 
L 188.677125 157.321169 
L 189.162454 157.321169 
L 189.162454 156.761987 
L 189.611161 156.761987 
L 189.611161 155.643622 
L 189.832636 155.643622 
L 189.832636 154.525258 
L 190.374846 154.525258 
L 190.374846 153.966075 
L 190.555066 153.966075 
L 190.645844 151.170164 
L 190.682842 151.170164 
L 190.738874 144.459977 
L 190.815111 144.459977 
L 190.853103 137.74979 
L 190.970616 137.74979 
L 190.970616 137.190608 
L 191.217862 137.190608 
L 191.217862 136.631426 
L 191.42231 136.631426 
L 191.533403 134.394697 
L 191.641194 134.394697 
L 191.641194 132.157968 
L 191.859881 132.157968 
L 191.928769 130.480421 
L 192.073297 130.480421 
L 192.073297 129.921239 
L 192.190308 129.921239 
L 192.207854 127.68451 
L 192.407116 127.68451 
L 192.407116 127.125328 
L 192.593074 127.125328 
L 192.593074 126.566145 
L 192.836319 126.566145 
L 192.836319 126.006963 
L 192.972246 126.006963 
L 192.972246 125.447781 
L 193.536785 125.447781 
L 193.630444 119.855959 
L 193.690303 119.855959 
L 193.755679 112.586589 
L 193.895911 112.586589 
L 193.946931 110.349861 
L 194.339773 110.349861 
L 194.339773 109.790678 
L 194.667478 109.790678 
L 194.726002 107.553949 
L 194.910023 107.553949 
L 194.910023 106.994767 
L 195.037995 106.994767 
L 195.127012 98.607033 
L 195.151305 98.607033 
L 195.151305 98.047851 
L 195.292162 98.047851 
L 195.380916 96.370304 
L 195.508544 96.370304 
L 195.543656 89.100935 
L 198.051373 89.100935 
L 198.051373 88.541753 
L 198.212886 88.541753 
L 198.212886 87.982571 
L 198.434916 87.982571 
L 198.515816 80.15402 
L 198.556556 80.15402 
L 198.628268 76.798926 
L 199.07758 76.798926 
L 199.07758 76.239744 
L 199.202279 76.239744 
L 199.202279 75.680562 
L 199.327735 75.680562 
L 199.359989 74.562197 
L 199.540811 74.562197 
L 199.540811 73.443833 
L 199.72784 73.443833 
L 199.78033 63.378552 
L 199.889638 63.378552 
L 199.889638 62.260188 
L 200.489549 62.260188 
L 200.549021 59.464277 
L 201.715936 59.464277 
L 201.715936 58.905094 
L 201.915057 58.905094 
L 201.915057 49.398996 
L 204.671286 49.398996 
L 204.671286 48.839814 
L 205.35395 48.839814 
L 205.444079 47.72145 
L 205.479998 47.72145 
L 205.488099 46.043903 
L 205.820946 46.043903 
L 205.820946 45.484721 
L 206.424685 45.484721 
L 206.521372 43.807174 
L 206.581729 43.807174 
L 206.581729 43.247992 
L 206.70828 43.247992 
L 206.70828 42.688809 
L 207.04866 42.688809 
L 207.12088 40.45208 
L 207.225246 40.45208 
L 207.332101 30.3868 
L 207.455844 30.3868 
L 207.521238 28.709253 
L 207.689497 28.709253 
L 207.725594 27.590889 
L 208.157394 27.590889 
L 208.253701 25.913342 
L 208.2847 25.913342 
L 208.381275 24.235795 
L 208.409605 24.235795 
L 208.505483 13.611333 
L 208.601312 13.611333 
L 208.601312 13.052151 
L 208.725384 13.052151 
L 208.814278 10.815422 
L 208.857603 10.815422 
L 208.857603 9.697057 
L 333.168 9.697057 
L 333.168 9.697057 
" style="fill:none;stroke:#6495ed;stroke-linecap:square;stroke-width:1.5;"/>
   </g>
   <g id="line2d_51">
    <defs>
     <path d="M -0 6 
L 6 -6 
L -6 -6 
z
" id="m43983a2524" style="stroke:#6495ed;stroke-linejoin:miter;stroke-width:1.5;"/>
    </defs>
    <g>
     <use style="fill-opacity:0;stroke:#6495ed;stroke-linejoin:miter;stroke-width:1.5;" x="152.639586" xlink:href="#m43983a2524" y="232.251589"/>
     <use style="fill-opacity:0;stroke:#6495ed;stroke-linejoin:miter;stroke-width:1.5;" x="192.407116" xlink:href="#m43983a2524" y="127.68451"/>
     <use style="fill-opacity:0;stroke:#6495ed;stroke-linejoin:miter;stroke-width:1.5;" x="208.857603" xlink:href="#m43983a2524" y="10.815422"/>
     <use style="fill-opacity:0;stroke:#6495ed;stroke-linejoin:miter;stroke-width:1.5;" x="208.857603" xlink:href="#m43983a2524" y="9.697057"/>
     <use style="fill-opacity:0;stroke:#6495ed;stroke-linejoin:miter;stroke-width:1.5;" x="333.168" xlink:href="#m43983a2524" y="9.697057"/>
    </g>
   </g>
   <g id="line2d_52">
    <path style="fill:none;stroke:#6495ed;stroke-linecap:square;stroke-width:1.5;"/>
    <g/>
   </g>
   <g id="line2d_53">
    <defs>
     <path d="M 0 1.5 
C 0.397805 1.5 0.77937 1.341951 1.06066 1.06066 
C 1.341951 0.77937 1.5 0.397805 1.5 0 
C 1.5 -0.397805 1.341951 -0.77937 1.06066 -1.06066 
C 0.77937 -1.341951 0.397805 -1.5 0 -1.5 
C -0.397805 -1.5 -0.77937 -1.341951 -1.06066 -1.06066 
C -1.341951 -0.77937 -1.5 -0.397805 -1.5 0 
C -1.5 0.397805 -1.341951 0.77937 -1.06066 1.06066 
C -0.77937 1.341951 -0.397805 1.5 0 1.5 
z
" id="m437dbcd752" style="stroke:#ff0000;"/>
    </defs>
    <g>
     <use style="fill:#ff0000;stroke:#ff0000;" x="347.629106" xlink:href="#m437dbcd752" y="194.227197"/>
     <use style="fill:#ff0000;stroke:#ff0000;" x="347.629106" xlink:href="#m437dbcd752" y="194.227197"/>
    </g>
   </g>
   <g id="line2d_54">
    <path d="M 40.370217 294.88 
L 40.370217 293.202453 
L 47.339607 293.202453 
L 47.339607 291.524907 
L 52.284468 291.524907 
L 52.284468 289.84736 
L 59.253858 289.84736 
L 59.253858 288.728995 
L 64.198719 288.728995 
L 64.198719 288.169813 
L 66.223248 288.169813 
L 66.223248 287.610631 
L 72.543934 287.610631 
L 72.543934 287.051449 
L 75.003641 287.051449 
L 75.003641 286.492266 
L 78.137499 286.492266 
L 78.137499 285.933084 
L 83.784035 285.933084 
L 83.784035 285.373902 
L 85.106889 285.373902 
L 85.106889 284.81472 
L 86.335171 284.81472 
L 86.335171 284.255537 
L 93.501005 284.255537 
L 93.501005 283.696355 
L 95.351029 283.696355 
L 95.351029 283.137173 
L 97.646251 283.137173 
L 97.646251 282.577991 
L 98.543252 282.577991 
L 98.543252 282.018808 
L 98.832144 282.018808 
L 98.832144 281.459626 
L 105.801534 281.459626 
L 105.801534 280.900444 
L 107.612537 280.900444 
L 107.612537 280.341262 
L 115.034286 280.341262 
L 115.034286 279.782079 
L 115.365909 279.782079 
L 115.365909 279.222897 
L 116.010559 279.222897 
L 116.010559 278.663715 
L 117.905717 278.663715 
L 117.905717 277.545351 
L 120.200938 277.545351 
L 120.200938 276.986168 
L 121.008065 276.986168 
L 121.008065 276.426986 
L 125.614517 276.426986 
L 125.614517 275.867804 
L 130.873129 275.867804 
L 130.873129 275.308622 
L 135.481607 275.308622 
L 135.481607 274.749439 
L 137.377325 274.749439 
L 137.377325 273.631075 
L 138.862788 273.631075 
L 138.862788 273.071893 
L 139.626853 273.071893 
L 139.626853 272.51271 
L 142.69832 272.51271 
L 142.69832 271.953528 
L 145.090928 271.953528 
L 145.090928 271.394346 
L 146.878609 271.394346 
L 146.878609 270.835164 
L 149.169454 270.835164 
L 149.169454 270.275981 
L 150.636952 270.275981 
L 150.636952 269.157617 
L 151.420576 269.157617 
L 151.420576 268.598435 
L 151.634268 268.598435 
L 151.634268 268.039252 
L 152.28543 268.039252 
L 152.28543 267.48007 
L 156.731095 267.48007 
L 156.731095 266.920888 
L 156.868684 266.920888 
L 156.868684 266.361706 
L 160.782346 266.361706 
L 160.782346 265.802523 
L 162.353142 265.802523 
L 162.353142 265.243341 
L 162.516002 265.243341 
L 162.516002 264.684159 
L 162.871714 264.684159 
L 162.871714 264.124977 
L 163.294462 264.124977 
L 163.294462 263.565795 
L 164.122832 263.565795 
L 164.122832 263.006612 
L 165.878547 263.006612 
L 165.878547 262.44743 
L 168.291443 262.44743 
L 168.291443 261.888248 
L 169.4407 261.888248 
L 169.4407 261.329066 
L 170.557682 261.329066 
L 170.557682 260.769883 
L 171.771802 260.769883 
L 171.771802 260.210701 
L 172.206364 260.210701 
L 172.206364 259.651519 
L 173.395465 259.651519 
L 173.395465 259.092337 
L 185.19331 259.092337 
L 185.19331 258.533154 
L 186.632779 258.533154 
L 186.632779 257.973972 
L 186.986029 257.973972 
L 186.986029 257.41479 
L 187.203599 257.41479 
L 187.203599 256.855608 
L 194.125998 256.855608 
L 194.125998 256.296425 
L 194.506051 256.296425 
L 194.506051 255.737243 
L 195.549845 255.737243 
L 195.549845 255.178061 
L 195.94137 255.178061 
L 195.94137 254.618879 
L 197.208991 254.618879 
L 197.208991 254.059696 
L 197.474738 254.059696 
L 197.474738 253.500514 
L 197.609746 253.500514 
L 197.609746 252.941332 
L 199.141298 252.941332 
L 199.141298 252.38215 
L 199.686544 252.38215 
L 199.686544 251.822967 
L 202.759898 251.822967 
L 202.759898 251.263785 
L 204.807237 251.263785 
L 204.807237 250.704603 
L 205.099638 250.704603 
L 205.099638 250.145421 
L 206.002676 250.145421 
L 206.002676 249.586238 
L 207.234133 249.586238 
L 207.234133 249.027056 
L 211.22915 249.027056 
L 211.22915 248.467874 
L 222.122679 248.467874 
L 222.122679 247.908692 
L 222.730268 247.908692 
L 222.837912 246.790327 
L 227.376501 246.790327 
L 227.42145 245.671963 
L 227.623713 245.671963 
L 227.623713 245.112781 
L 227.860495 245.112781 
L 227.860495 244.553598 
L 230.119555 244.553598 
L 230.119555 243.994416 
L 230.324117 243.994416 
L 230.324117 243.435234 
L 230.638722 243.435234 
L 230.638722 242.876052 
L 230.929776 242.876052 
L 231.032298 241.198505 
L 231.116508 241.198505 
L 231.116508 240.639323 
L 231.334058 240.639323 
L 231.334058 240.08014 
L 231.447496 240.08014 
L 231.533134 238.961776 
L 233.460338 238.961776 
L 233.503693 237.284229 
L 234.916344 237.284229 
L 235.011924 233.369954 
L 236.836275 233.369954 
L 236.836275 232.810771 
L 239.58076 232.810771 
L 239.58076 232.251589 
L 240.57953 232.251589 
L 240.57953 231.692407 
L 241.420123 231.692407 
L 241.420123 231.133225 
L 245.648759 231.133225 
L 245.648759 230.574042 
L 249.466924 230.574042 
L 249.466924 230.01486 
L 250.940791 230.01486 
L 250.940791 229.455678 
L 255.657772 229.455678 
L 255.657772 228.896496 
L 256.090874 228.896496 
L 256.093584 227.778131 
L 260.711471 227.778131 
L 260.711471 227.218949 
L 265.356189 227.218949 
L 265.418405 224.98222 
L 270.152046 224.98222 
L 270.152046 224.423038 
L 272.025804 224.423038 
L 272.028142 222.745491 
L 272.66178 222.745491 
L 272.66178 222.186309 
L 272.823957 222.186309 
L 272.82459 221.067944 
L 279.534329 221.067944 
L 279.534477 219.94958 
L 285.895903 219.94958 
L 285.896806 218.831215 
L 286.708382 218.831215 
L 286.708382 218.272033 
L 287.223556 218.272033 
L 287.223556 217.712851 
L 288.153649 217.712851 
L 288.158228 216.594486 
L 289.978362 216.594486 
L 289.983726 214.91694 
L 290.578804 214.91694 
L 290.578914 213.798575 
L 296.63883 213.798575 
L 296.640125 211.561846 
L 297.902778 211.561846 
L 297.902778 211.002664 
L 302.084418 211.002664 
L 302.084418 210.443482 
L 303.001529 210.443482 
L 303.001924 209.325117 
L 305.763174 209.325117 
L 305.763174 208.765935 
L 307.094762 208.765935 
L 307.094762 208.206753 
L 307.795467 208.206753 
L 307.795729 206.529206 
L 311.527174 206.529206 
L 311.527248 205.410841 
L 313.551019 205.410841 
L 313.551463 204.292477 
L 314.034654 204.292477 
L 314.034654 203.733295 
L 316.713528 203.733295 
L 316.713528 203.174112 
L 318.232743 203.174112 
L 318.232743 202.61493 
L 318.602326 202.61493 
L 318.602326 202.055748 
L 321.90848 202.055748 
L 321.90848 201.496566 
L 322.207465 201.496566 
L 322.207465 200.937384 
L 325.186012 200.937384 
L 325.186012 200.378201 
L 326.358811 200.378201 
L 326.358811 199.819019 
L 327.507486 199.819019 
L 327.507486 199.259837 
L 329.7446 199.259837 
L 329.744612 198.141472 
L 331.723852 198.141472 
L 331.723852 197.58229 
L 333.168 197.58229 
L 333.168 197.58229 
" style="fill:none;stroke:#ff0000;stroke-linecap:square;stroke-width:1.5;"/>
   </g>
   <g id="line2d_55">
    <defs>
     <path d="M 0 -6 
L -5.196152 -3 
L -5.196152 3 
L -0 6 
L 5.196152 3 
L 5.196152 -3 
z
" id="m3f23446048" style="stroke:#ff0000;stroke-linejoin:miter;stroke-width:1.5;"/>
    </defs>
    <g>
     <use style="fill-opacity:0;stroke:#ff0000;stroke-linejoin:miter;stroke-width:1.5;" x="95.351029" xlink:href="#m3f23446048" y="283.696355"/>
     <use style="fill-opacity:0;stroke:#ff0000;stroke-linejoin:miter;stroke-width:1.5;" x="150.636952" xlink:href="#m3f23446048" y="270.275981"/>
     <use style="fill-opacity:0;stroke:#ff0000;stroke-linejoin:miter;stroke-width:1.5;" x="211.22915" xlink:href="#m3f23446048" y="249.027056"/>
     <use style="fill-opacity:0;stroke:#ff0000;stroke-linejoin:miter;stroke-width:1.5;" x="297.902778" xlink:href="#m3f23446048" y="211.561846"/>
     <use style="fill-opacity:0;stroke:#ff0000;stroke-linejoin:miter;stroke-width:1.5;" x="331.723852" xlink:href="#m3f23446048" y="197.58229"/>
     <use style="fill-opacity:0;stroke:#ff0000;stroke-linejoin:miter;stroke-width:1.5;" x="333.168" xlink:href="#m3f23446048" y="197.58229"/>
    </g>
   </g>
   <g id="line2d_56">
    <path style="fill:none;stroke:#ff0000;stroke-linecap:square;stroke-width:1.5;"/>
    <g/>
   </g>
   <g id="line2d_57">
    <path clip-path="url(#p4579c8a6ca)" d="M 293.589811 213.798575 
" style="fill:none;stroke:#ff0000;stroke-linecap:square;stroke-width:1.5;"/>
    <defs>
     <path d="M -12 12 
L 12 -12 
M -12 -12 
L 12 12 
" id="mfbca312b40" style="stroke:#ff0000;"/>
    </defs>
    <g clip-path="url(#p4579c8a6ca)">
     <use style="fill:#ff0000;stroke:#ff0000;" x="293.589811" xlink:href="#mfbca312b40" y="213.798575"/>
    </g>
   </g>
   <g id="line2d_58">
    <path d="M 333.168 197.58229 
L 363.64328 289.176341 
" style="fill:none;stroke:#ff0000;stroke-linecap:square;stroke-width:1.5;"/>
    <g>
     <use style="fill-opacity:0;stroke:#ff0000;stroke-linejoin:miter;stroke-width:1.5;" x="333.168" xlink:href="#m3f23446048" y="197.58229"/>
     <use style="fill-opacity:0;stroke:#ff0000;stroke-linejoin:miter;stroke-width:1.5;" x="363.64328" xlink:href="#m3f23446048" y="289.176341"/>
    </g>
   </g>
   <g id="line2d_59">
    <path d="M 333.168 9.697057 
L 363.64328 220.732435 
" style="fill:none;stroke:#000080;stroke-linecap:square;stroke-width:1.5;"/>
    <g>
     <use style="fill-opacity:0;stroke:#000080;stroke-width:1.5;" x="333.168" xlink:href="#m526d4a207b" y="9.697057"/>
     <use style="fill-opacity:0;stroke:#000080;stroke-width:1.5;" x="363.64328" xlink:href="#m526d4a207b" y="220.732435"/>
    </g>
   </g>
   <g id="line2d_60">
    <path d="M 333.168 9.697057 
L 363.64328 152.288529 
" style="fill:none;stroke:#6495ed;stroke-linecap:square;stroke-width:1.5;"/>
    <g>
     <use style="fill-opacity:0;stroke:#6495ed;stroke-linejoin:miter;stroke-width:1.5;" x="333.168" xlink:href="#m43983a2524" y="9.697057"/>
     <use style="fill-opacity:0;stroke:#6495ed;stroke-linejoin:miter;stroke-width:1.5;" x="363.64328" xlink:href="#m43983a2524" y="152.288529"/>
    </g>
   </g>
   <g id="line2d_61">
    <path d="M 333.168 9.697057 
L 363.64328 83.844622 
" style="fill:none;stroke:#ff7500;stroke-linecap:square;stroke-width:1.5;"/>
    <g>
     <use style="fill-opacity:0;stroke:#ff7500;stroke-linejoin:bevel;stroke-width:1.5;" x="333.168" xlink:href="#m81bad4df0e" y="9.697057"/>
     <use style="fill-opacity:0;stroke:#ff7500;stroke-linejoin:bevel;stroke-width:1.5;" x="363.64328" xlink:href="#m81bad4df0e" y="83.844622"/>
    </g>
   </g>
   <g id="line2d_62">
    <path d="M 333.168 9.697057 
L 363.64328 15.400716 
" style="fill:none;stroke:#ff00ff;stroke-linecap:square;stroke-width:1.5;"/>
    <g>
     <use style="fill-opacity:0;stroke:#ff00ff;stroke-linejoin:miter;stroke-width:1.5;" x="333.168" xlink:href="#m755d994cdf" y="9.697057"/>
     <use style="fill-opacity:0;stroke:#ff00ff;stroke-linejoin:miter;stroke-width:1.5;" x="363.64328" xlink:href="#m755d994cdf" y="15.400716"/>
    </g>
   </g>
   <g id="line2d_63">
    <path d="M 333.168 294.88 
L 333.168 9.697057 
" style="fill:none;stroke:#000000;stroke-linecap:square;stroke-width:1.5;"/>
   </g>
   <g id="patch_3">
    <path d="M 56.12 294.88 
L 56.12 6.845228 
" style="fill:none;stroke:#000000;stroke-linecap:square;stroke-linejoin:miter;stroke-width:0.8;"/>
   </g>
   <g id="patch_4">
    <path d="M 333.168 294.88 
L 333.168 6.845228 
" style="fill:none;stroke:#000000;stroke-linecap:square;stroke-linejoin:miter;stroke-width:0.8;"/>
   </g>
   <g id="patch_5">
    <path d="M 56.12 294.88 
L 333.168 294.88 
" style="fill:none;stroke:#000000;stroke-linecap:square;stroke-linejoin:miter;stroke-width:0.8;"/>
   </g>
   <g id="patch_6">
    <path d="M 56.12 6.845228 
L 333.168 6.845228 
" style="fill:none;stroke:#000000;stroke-linecap:square;stroke-linejoin:miter;stroke-width:0.8;"/>
   </g>
   <g id="text_13">
    <!-- f24 -->
    <g transform="translate(369.18424 293.867279)scale(0.17 -0.17)">
     <use xlink:href="#DejaVuSans-66"/>
     <use x="35.205078" xlink:href="#DejaVuSans-32"/>
     <use x="98.828125" xlink:href="#DejaVuSans-34"/>
    </g>
   </g>
   <g id="text_14">
    <!-- f23 -->
    <defs>
     <path d="M 40.578125 39.3125 
Q 47.65625 37.796875 51.625 33 
Q 55.609375 28.21875 55.609375 21.1875 
Q 55.609375 10.40625 48.1875 4.484375 
Q 40.765625 -1.421875 27.09375 -1.421875 
Q 22.515625 -1.421875 17.65625 -0.515625 
Q 12.796875 0.390625 7.625 2.203125 
L 7.625 11.71875 
Q 11.71875 9.328125 16.59375 8.109375 
Q 21.484375 6.890625 26.8125 6.890625 
Q 36.078125 6.890625 40.9375 10.546875 
Q 45.796875 14.203125 45.796875 21.1875 
Q 45.796875 27.640625 41.28125 31.265625 
Q 36.765625 34.90625 28.71875 34.90625 
L 20.21875 34.90625 
L 20.21875 43.015625 
L 29.109375 43.015625 
Q 36.375 43.015625 40.234375 45.921875 
Q 44.09375 48.828125 44.09375 54.296875 
Q 44.09375 59.90625 40.109375 62.90625 
Q 36.140625 65.921875 28.71875 65.921875 
Q 24.65625 65.921875 20.015625 65.03125 
Q 15.375 64.15625 9.8125 62.3125 
L 9.8125 71.09375 
Q 15.4375 72.65625 20.34375 73.4375 
Q 25.25 74.21875 29.59375 74.21875 
Q 40.828125 74.21875 47.359375 69.109375 
Q 53.90625 64.015625 53.90625 55.328125 
Q 53.90625 49.265625 50.4375 45.09375 
Q 46.96875 40.921875 40.578125 39.3125 
z
" id="DejaVuSans-33"/>
    </defs>
    <g transform="translate(369.18424 225.423372)scale(0.17 -0.17)">
     <use xlink:href="#DejaVuSans-66"/>
     <use x="35.205078" xlink:href="#DejaVuSans-32"/>
     <use x="98.828125" xlink:href="#DejaVuSans-33"/>
    </g>
   </g>
   <g id="text_15">
    <!-- f20 -->
    <g transform="translate(369.18424 156.979466)scale(0.17 -0.17)">
     <use xlink:href="#DejaVuSans-66"/>
     <use x="35.205078" xlink:href="#DejaVuSans-32"/>
     <use x="98.828125" xlink:href="#DejaVuSans-30"/>
    </g>
   </g>
   <g id="text_16">
    <!-- f21 -->
    <g transform="translate(369.18424 88.53556)scale(0.17 -0.17)">
     <use xlink:href="#DejaVuSans-66"/>
     <use x="35.205078" xlink:href="#DejaVuSans-32"/>
     <use x="98.828125" xlink:href="#DejaVuSans-31"/>
    </g>
   </g>
   <g id="text_17">
    <!-- f22 -->
    <g transform="translate(369.18424 20.091654)scale(0.17 -0.17)">
     <use xlink:href="#DejaVuSans-66"/>
     <use x="35.205078" xlink:href="#DejaVuSans-32"/>
     <use x="98.828125" xlink:href="#DejaVuSans-32"/>
    </g>
   </g>
   <g id="text_18">
    <!-- bbob -->
    <defs>
     <path d="M 48.6875 27.296875 
Q 48.6875 37.203125 44.609375 42.84375 
Q 40.53125 48.484375 33.40625 48.484375 
Q 26.265625 48.484375 22.1875 42.84375 
Q 18.109375 37.203125 18.109375 27.296875 
Q 18.109375 17.390625 22.1875 11.75 
Q 26.265625 6.109375 33.40625 6.109375 
Q 40.53125 6.109375 44.609375 11.75 
Q 48.6875 17.390625 48.6875 27.296875 
z
M 18.109375 46.390625 
Q 20.953125 51.265625 25.265625 53.625 
Q 29.59375 56 35.59375 56 
Q 45.5625 56 51.78125 48.09375 
Q 58.015625 40.1875 58.015625 27.296875 
Q 58.015625 14.40625 51.78125 6.484375 
Q 45.5625 -1.421875 35.59375 -1.421875 
Q 29.59375 -1.421875 25.265625 0.953125 
Q 20.953125 3.328125 18.109375 8.203125 
L 18.109375 0 
L 9.078125 0 
L 9.078125 75.984375 
L 18.109375 75.984375 
z
" id="DejaVuSans-62"/>
    </defs>
    <g transform="translate(58.89048 17.475982)scale(0.102 -0.102)">
     <use xlink:href="#DejaVuSans-62"/>
     <use x="63.476562" xlink:href="#DejaVuSans-62"/>
     <use x="126.953125" xlink:href="#DejaVuSans-6f"/>
     <use x="188.134766" xlink:href="#DejaVuSans-62"/>
    </g>
    <!-- Weak structure functions, 5-D -->
    <defs>
     <path d="M 3.328125 72.90625 
L 13.28125 72.90625 
L 28.609375 11.28125 
L 43.890625 72.90625 
L 54.984375 72.90625 
L 70.3125 11.28125 
L 85.59375 72.90625 
L 95.609375 72.90625 
L 77.296875 0 
L 64.890625 0 
L 49.515625 63.28125 
L 33.984375 0 
L 21.578125 0 
z
" id="DejaVuSans-57"/>
     <path d="M 9.078125 75.984375 
L 18.109375 75.984375 
L 18.109375 31.109375 
L 44.921875 54.6875 
L 56.390625 54.6875 
L 27.390625 29.109375 
L 57.625 0 
L 45.90625 0 
L 18.109375 26.703125 
L 18.109375 0 
L 9.078125 0 
z
" id="DejaVuSans-6b"/>
     <path d="M 10.796875 72.90625 
L 49.515625 72.90625 
L 49.515625 64.59375 
L 19.828125 64.59375 
L 19.828125 46.734375 
Q 21.96875 47.46875 24.109375 47.828125 
Q 26.265625 48.1875 28.421875 48.1875 
Q 40.625 48.1875 47.75 41.5 
Q 54.890625 34.8125 54.890625 23.390625 
Q 54.890625 11.625 47.5625 5.09375 
Q 40.234375 -1.421875 26.90625 -1.421875 
Q 22.3125 -1.421875 17.546875 -0.640625 
Q 12.796875 0.140625 7.71875 1.703125 
L 7.71875 11.625 
Q 12.109375 9.234375 16.796875 8.0625 
Q 21.484375 6.890625 26.703125 6.890625 
Q 35.15625 6.890625 40.078125 11.328125 
Q 45.015625 15.765625 45.015625 23.390625 
Q 45.015625 31 40.078125 35.4375 
Q 35.15625 39.890625 26.703125 39.890625 
Q 22.75 39.890625 18.8125 39.015625 
Q 14.890625 38.140625 10.796875 36.28125 
z
" id="DejaVuSans-35"/>
     <path d="M 19.671875 64.796875 
L 19.671875 8.109375 
L 31.59375 8.109375 
Q 46.6875 8.109375 53.6875 14.9375 
Q 60.6875 21.78125 60.6875 36.53125 
Q 60.6875 51.171875 53.6875 57.984375 
Q 46.6875 64.796875 31.59375 64.796875 
z
M 9.8125 72.90625 
L 30.078125 72.90625 
Q 51.265625 72.90625 61.171875 64.09375 
Q 71.09375 55.28125 71.09375 36.53125 
Q 71.09375 17.671875 61.125 8.828125 
Q 51.171875 0 30.078125 0 
L 9.8125 0 
z
" id="DejaVuSans-44"/>
    </defs>
    <g transform="translate(58.89048 28.89775)scale(0.102 -0.102)">
     <use xlink:href="#DejaVuSans-57"/>
     <use x="98.798828" xlink:href="#DejaVuSans-65"/>
     <use x="160.322266" xlink:href="#DejaVuSans-61"/>
     <use x="221.601562" xlink:href="#DejaVuSans-6b"/>
     <use x="279.511719" xlink:href="#DejaVuSans-20"/>
     <use x="311.298828" xlink:href="#DejaVuSans-73"/>
     <use x="363.398438" xlink:href="#DejaVuSans-74"/>
     <use x="402.607422" xlink:href="#DejaVuSans-72"/>
     <use x="443.720703" xlink:href="#DejaVuSans-75"/>
     <use x="507.099609" xlink:href="#DejaVuSans-63"/>
     <use x="562.080078" xlink:href="#DejaVuSans-74"/>
     <use x="601.289062" xlink:href="#DejaVuSans-75"/>
     <use x="664.667969" xlink:href="#DejaVuSans-72"/>
     <use x="705.75" xlink:href="#DejaVuSans-65"/>
     <use x="767.273438" xlink:href="#DejaVuSans-20"/>
     <use x="799.060547" xlink:href="#DejaVuSans-66"/>
     <use x="834.265625" xlink:href="#DejaVuSans-75"/>
     <use x="897.644531" xlink:href="#DejaVuSans-6e"/>
     <use x="961.023438" xlink:href="#DejaVuSans-63"/>
     <use x="1016.003906" xlink:href="#DejaVuSans-74"/>
     <use x="1055.212891" xlink:href="#DejaVuSans-69"/>
     <use x="1082.996094" xlink:href="#DejaVuSans-6f"/>
     <use x="1144.177734" xlink:href="#DejaVuSans-6e"/>
     <use x="1207.556641" xlink:href="#DejaVuSans-73"/>
     <use x="1259.65625" xlink:href="#DejaVuSans-2c"/>
     <use x="1291.443359" xlink:href="#DejaVuSans-20"/>
     <use x="1323.230469" xlink:href="#DejaVuSans-35"/>
     <use x="1386.853516" xlink:href="#DejaVuSans-2d"/>
     <use x="1422.9375" xlink:href="#DejaVuSans-44"/>
    </g>
    <!-- 51 targets: 100..1e-08 -->
    <defs>
     <path d="M 11.71875 12.40625 
L 22.015625 12.40625 
L 22.015625 0 
L 11.71875 0 
z
M 11.71875 51.703125 
L 22.015625 51.703125 
L 22.015625 39.3125 
L 11.71875 39.3125 
z
" id="DejaVuSans-3a"/>
    </defs>
    <g transform="translate(58.89048 40.319519)scale(0.102 -0.102)">
     <use xlink:href="#DejaVuSans-35"/>
     <use x="63.623047" xlink:href="#DejaVuSans-31"/>
     <use x="127.246094" xlink:href="#DejaVuSans-20"/>
     <use x="159.033203" xlink:href="#DejaVuSans-74"/>
     <use x="198.242188" xlink:href="#DejaVuSans-61"/>
     <use x="259.521484" xlink:href="#DejaVuSans-72"/>
     <use x="300.619141" xlink:href="#DejaVuSans-67"/>
     <use x="364.095703" xlink:href="#DejaVuSans-65"/>
     <use x="425.619141" xlink:href="#DejaVuSans-74"/>
     <use x="464.828125" xlink:href="#DejaVuSans-73"/>
     <use x="516.927734" xlink:href="#DejaVuSans-3a"/>
     <use x="550.619141" xlink:href="#DejaVuSans-20"/>
     <use x="582.40625" xlink:href="#DejaVuSans-31"/>
     <use x="646.029297" xlink:href="#DejaVuSans-30"/>
     <use x="709.652344" xlink:href="#DejaVuSans-30"/>
     <use x="773.275391" xlink:href="#DejaVuSans-2e"/>
     <use x="805.0625" xlink:href="#DejaVuSans-2e"/>
     <use x="836.849609" xlink:href="#DejaVuSans-31"/>
     <use x="900.472656" xlink:href="#DejaVuSans-65"/>
     <use x="961.996094" xlink:href="#DejaVuSans-2d"/>
     <use x="998.080078" xlink:href="#DejaVuSans-30"/>
     <use x="1061.703125" xlink:href="#DejaVuSans-38"/>
    </g>
    <!-- 15 instances -->
    <g transform="translate(58.89048 51.741288)scale(0.102 -0.102)">
     <use xlink:href="#DejaVuSans-31"/>
     <use x="63.623047" xlink:href="#DejaVuSans-35"/>
     <use x="127.246094" xlink:href="#DejaVuSans-20"/>
     <use x="159.033203" xlink:href="#DejaVuSans-69"/>
     <use x="186.816406" xlink:href="#DejaVuSans-6e"/>
     <use x="250.195312" xlink:href="#DejaVuSans-73"/>
     <use x="302.294922" xlink:href="#DejaVuSans-74"/>
     <use x="341.503906" xlink:href="#DejaVuSans-61"/>
     <use x="402.783203" xlink:href="#DejaVuSans-6e"/>
     <use x="466.162109" xlink:href="#DejaVuSans-63"/>
     <use x="521.142578" xlink:href="#DejaVuSans-65"/>
     <use x="582.666016" xlink:href="#DejaVuSans-73"/>
    </g>
   </g>
   <g id="text_19">
    <!-- v2.4 -->
    <g style="fill:#808080;" transform="translate(183.733063 289.919965)scale(0.1 -0.1)">
     <use xlink:href="#DejaVuSans-76"/>
     <use x="59.179688" xlink:href="#DejaVuSans-32"/>
     <use x="122.802734" xlink:href="#DejaVuSans-2e"/>
     <use x="154.589844" xlink:href="#DejaVuSans-34"/>
    </g>
   </g>
  </g>
 </g>
 <defs>
  <clipPath id="p4579c8a6ca">
   <rect height="288.034772" width="277.048" x="56.12" y="6.845228"/>
  </clipPath>
 </defs>
</svg>
