<?xml version="1.0" encoding="utf-8" standalone="no"?>
<!DOCTYPE svg PUBLIC "-//W3C//DTD SVG 1.1//EN"
  "http://www.w3.org/Graphics/SVG/1.1/DTD/svg11.dtd">
<!-- Created with matplotlib (http://matplotlib.org/) -->
<svg height="345.6pt" version="1.1" viewBox="0 0 460.8 345.6" width="460.8pt" xmlns="http://www.w3.org/2000/svg" xmlns:xlink="http://www.w3.org/1999/xlink">
 <defs>
  <style type="text/css">
*{stroke-linecap:butt;stroke-linejoin:round;}
  </style>
 </defs>
 <g id="figure_1">
  <g id="patch_1">
   <path d="M 0 345.6 
L 460.8 345.6 
L 460.8 0 
L 0 0 
z
" style="fill:#ffffff;"/>
  </g>
  <g id="axes_1">
   <g id="patch_2">
    <path d="M 56.12 294.88 
L 333.168 294.88 
L 333.168 6.845228 
L 56.12 6.845228 
z
" style="fill:#ffffff;"/>
   </g>
   <g id="matplotlib.axis_1">
    <g id="xtick_1">
     <g id="line2d_1">
      <path clip-path="url(#p9bdd0fd4dc)" d="M 56.12 294.88 
L 56.12 6.845228 
" style="fill:none;stroke:#b0b0b0;stroke-linecap:square;stroke-width:0.8;"/>
     </g>
     <g id="line2d_2">
      <defs>
       <path d="M 0 0 
L 0 3.5 
" id="m3ab66a583c" style="stroke:#000000;stroke-width:0.8;"/>
      </defs>
      <g>
       <use style="stroke:#000000;stroke-width:0.8;" x="56.12" xlink:href="#m3ab66a583c" y="294.88"/>
      </g>
     </g>
     <g id="text_1">
      <!-- 0 -->
      <defs>
       <path d="M 31.78125 66.40625 
Q 24.171875 66.40625 20.328125 58.90625 
Q 16.5 51.421875 16.5 36.375 
Q 16.5 21.390625 20.328125 13.890625 
Q 24.171875 6.390625 31.78125 6.390625 
Q 39.453125 6.390625 43.28125 13.890625 
Q 47.125 21.390625 47.125 36.375 
Q 47.125 51.421875 43.28125 58.90625 
Q 39.453125 66.40625 31.78125 66.40625 
z
M 31.78125 74.21875 
Q 44.046875 74.21875 50.515625 64.515625 
Q 56.984375 54.828125 56.984375 36.375 
Q 56.984375 17.96875 50.515625 8.265625 
Q 44.046875 -1.421875 31.78125 -1.421875 
Q 19.53125 -1.421875 13.0625 8.265625 
Q 6.59375 17.96875 6.59375 36.375 
Q 6.59375 54.828125 13.0625 64.515625 
Q 19.53125 74.21875 31.78125 74.21875 
z
" id="DejaVuSans-30"/>
      </defs>
      <g transform="translate(49.7575 317.076875)scale(0.2 -0.2)">
       <use xlink:href="#DejaVuSans-30"/>
      </g>
     </g>
    </g>
    <g id="xtick_2">
     <g id="line2d_3">
      <path clip-path="url(#p9bdd0fd4dc)" d="M 135.276571 294.88 
L 135.276571 6.845228 
" style="fill:none;stroke:#b0b0b0;stroke-linecap:square;stroke-width:0.8;"/>
     </g>
     <g id="line2d_4">
      <g>
       <use style="stroke:#000000;stroke-width:0.8;" x="135.276571" xlink:href="#m3ab66a583c" y="294.88"/>
      </g>
     </g>
     <g id="text_2">
      <!-- 2 -->
      <defs>
       <path d="M 19.1875 8.296875 
L 53.609375 8.296875 
L 53.609375 0 
L 7.328125 0 
L 7.328125 8.296875 
Q 12.9375 14.109375 22.625 23.890625 
Q 32.328125 33.6875 34.8125 36.53125 
Q 39.546875 41.84375 41.421875 45.53125 
Q 43.3125 49.21875 43.3125 52.78125 
Q 43.3125 58.59375 39.234375 62.25 
Q 35.15625 65.921875 28.609375 65.921875 
Q 23.96875 65.921875 18.8125 64.3125 
Q 13.671875 62.703125 7.8125 59.421875 
L 7.8125 69.390625 
Q 13.765625 71.78125 18.9375 73 
Q 24.125 74.21875 28.421875 74.21875 
Q 39.75 74.21875 46.484375 68.546875 
Q 53.21875 62.890625 53.21875 53.421875 
Q 53.21875 48.921875 51.53125 44.890625 
Q 49.859375 40.875 45.40625 35.40625 
Q 44.1875 33.984375 37.640625 27.21875 
Q 31.109375 20.453125 19.1875 8.296875 
z
" id="DejaVuSans-32"/>
      </defs>
      <g transform="translate(128.914071 317.076875)scale(0.2 -0.2)">
       <use xlink:href="#DejaVuSans-32"/>
      </g>
     </g>
    </g>
    <g id="xtick_3">
     <g id="line2d_5">
      <path clip-path="url(#p9bdd0fd4dc)" d="M 214.433143 294.88 
L 214.433143 6.845228 
" style="fill:none;stroke:#b0b0b0;stroke-linecap:square;stroke-width:0.8;"/>
     </g>
     <g id="line2d_6">
      <g>
       <use style="stroke:#000000;stroke-width:0.8;" x="214.433143" xlink:href="#m3ab66a583c" y="294.88"/>
      </g>
     </g>
     <g id="text_3">
      <!-- 4 -->
      <defs>
       <path d="M 37.796875 64.3125 
L 12.890625 25.390625 
L 37.796875 25.390625 
z
M 35.203125 72.90625 
L 47.609375 72.90625 
L 47.609375 25.390625 
L 58.015625 25.390625 
L 58.015625 17.1875 
L 47.609375 17.1875 
L 47.609375 0 
L 37.796875 0 
L 37.796875 17.1875 
L 4.890625 17.1875 
L 4.890625 26.703125 
z
" id="DejaVuSans-34"/>
      </defs>
      <g transform="translate(208.070643 317.076875)scale(0.2 -0.2)">
       <use xlink:href="#DejaVuSans-34"/>
      </g>
     </g>
    </g>
    <g id="xtick_4">
     <g id="line2d_7">
      <path clip-path="url(#p9bdd0fd4dc)" d="M 293.589714 294.88 
L 293.589714 6.845228 
" style="fill:none;stroke:#b0b0b0;stroke-linecap:square;stroke-width:0.8;"/>
     </g>
     <g id="line2d_8">
      <g>
       <use style="stroke:#000000;stroke-width:0.8;" x="293.589714" xlink:href="#m3ab66a583c" y="294.88"/>
      </g>
     </g>
     <g id="text_4">
      <!-- 6 -->
      <defs>
       <path d="M 33.015625 40.375 
Q 26.375 40.375 22.484375 35.828125 
Q 18.609375 31.296875 18.609375 23.390625 
Q 18.609375 15.53125 22.484375 10.953125 
Q 26.375 6.390625 33.015625 6.390625 
Q 39.65625 6.390625 43.53125 10.953125 
Q 47.40625 15.53125 47.40625 23.390625 
Q 47.40625 31.296875 43.53125 35.828125 
Q 39.65625 40.375 33.015625 40.375 
z
M 52.59375 71.296875 
L 52.59375 62.3125 
Q 48.875 64.0625 45.09375 64.984375 
Q 41.3125 65.921875 37.59375 65.921875 
Q 27.828125 65.921875 22.671875 59.328125 
Q 17.53125 52.734375 16.796875 39.40625 
Q 19.671875 43.65625 24.015625 45.921875 
Q 28.375 48.1875 33.59375 48.1875 
Q 44.578125 48.1875 50.953125 41.515625 
Q 57.328125 34.859375 57.328125 23.390625 
Q 57.328125 12.15625 50.6875 5.359375 
Q 44.046875 -1.421875 33.015625 -1.421875 
Q 20.359375 -1.421875 13.671875 8.265625 
Q 6.984375 17.96875 6.984375 36.375 
Q 6.984375 53.65625 15.1875 63.9375 
Q 23.390625 74.21875 37.203125 74.21875 
Q 40.921875 74.21875 44.703125 73.484375 
Q 48.484375 72.75 52.59375 71.296875 
z
" id="DejaVuSans-36"/>
      </defs>
      <g transform="translate(287.227214 317.076875)scale(0.2 -0.2)">
       <use xlink:href="#DejaVuSans-36"/>
      </g>
     </g>
    </g>
    <g id="xtick_5">
     <g id="line2d_9">
      <path clip-path="url(#p9bdd0fd4dc)" d="M 56.12 294.88 
L 56.12 6.845228 
" style="fill:none;stroke:#b0b0b0;stroke-linecap:square;stroke-width:0.8;"/>
     </g>
     <g id="line2d_10">
      <defs>
       <path d="M 0 0 
L 0 2 
" id="m22d169dbfd" style="stroke:#000000;stroke-width:0.6;"/>
      </defs>
      <g>
       <use style="stroke:#000000;stroke-width:0.6;" x="56.12" xlink:href="#m22d169dbfd" y="294.88"/>
      </g>
     </g>
    </g>
    <g id="xtick_6">
     <g id="line2d_11">
      <path clip-path="url(#p9bdd0fd4dc)" d="M 95.698286 294.88 
L 95.698286 6.845228 
" style="fill:none;stroke:#b0b0b0;stroke-linecap:square;stroke-width:0.8;"/>
     </g>
     <g id="line2d_12">
      <g>
       <use style="stroke:#000000;stroke-width:0.6;" x="95.698286" xlink:href="#m22d169dbfd" y="294.88"/>
      </g>
     </g>
    </g>
    <g id="xtick_7">
     <g id="line2d_13">
      <path clip-path="url(#p9bdd0fd4dc)" d="M 135.276571 294.88 
L 135.276571 6.845228 
" style="fill:none;stroke:#b0b0b0;stroke-linecap:square;stroke-width:0.8;"/>
     </g>
     <g id="line2d_14">
      <g>
       <use style="stroke:#000000;stroke-width:0.6;" x="135.276571" xlink:href="#m22d169dbfd" y="294.88"/>
      </g>
     </g>
    </g>
    <g id="xtick_8">
     <g id="line2d_15">
      <path clip-path="url(#p9bdd0fd4dc)" d="M 174.854857 294.88 
L 174.854857 6.845228 
" style="fill:none;stroke:#b0b0b0;stroke-linecap:square;stroke-width:0.8;"/>
     </g>
     <g id="line2d_16">
      <g>
       <use style="stroke:#000000;stroke-width:0.6;" x="174.854857" xlink:href="#m22d169dbfd" y="294.88"/>
      </g>
     </g>
    </g>
    <g id="xtick_9">
     <g id="line2d_17">
      <path clip-path="url(#p9bdd0fd4dc)" d="M 214.433143 294.88 
L 214.433143 6.845228 
" style="fill:none;stroke:#b0b0b0;stroke-linecap:square;stroke-width:0.8;"/>
     </g>
     <g id="line2d_18">
      <g>
       <use style="stroke:#000000;stroke-width:0.6;" x="214.433143" xlink:href="#m22d169dbfd" y="294.88"/>
      </g>
     </g>
    </g>
    <g id="xtick_10">
     <g id="line2d_19">
      <path clip-path="url(#p9bdd0fd4dc)" d="M 254.011429 294.88 
L 254.011429 6.845228 
" style="fill:none;stroke:#b0b0b0;stroke-linecap:square;stroke-width:0.8;"/>
     </g>
     <g id="line2d_20">
      <g>
       <use style="stroke:#000000;stroke-width:0.6;" x="254.011429" xlink:href="#m22d169dbfd" y="294.88"/>
      </g>
     </g>
    </g>
    <g id="xtick_11">
     <g id="line2d_21">
      <path clip-path="url(#p9bdd0fd4dc)" d="M 293.589714 294.88 
L 293.589714 6.845228 
" style="fill:none;stroke:#b0b0b0;stroke-linecap:square;stroke-width:0.8;"/>
     </g>
     <g id="line2d_22">
      <g>
       <use style="stroke:#000000;stroke-width:0.6;" x="293.589714" xlink:href="#m22d169dbfd" y="294.88"/>
      </g>
     </g>
    </g>
    <g id="xtick_12">
     <g id="line2d_23">
      <path clip-path="url(#p9bdd0fd4dc)" d="M 333.168 294.88 
L 333.168 6.845228 
" style="fill:none;stroke:#b0b0b0;stroke-linecap:square;stroke-width:0.8;"/>
     </g>
     <g id="line2d_24">
      <g>
       <use style="stroke:#000000;stroke-width:0.6;" x="333.168" xlink:href="#m22d169dbfd" y="294.88"/>
      </g>
     </g>
    </g>
    <g id="text_5">
     <!-- log10(# f-evals / dimension) -->
     <defs>
      <path d="M 9.421875 75.984375 
L 18.40625 75.984375 
L 18.40625 0 
L 9.421875 0 
z
" id="DejaVuSans-6c"/>
      <path d="M 30.609375 48.390625 
Q 23.390625 48.390625 19.1875 42.75 
Q 14.984375 37.109375 14.984375 27.296875 
Q 14.984375 17.484375 19.15625 11.84375 
Q 23.34375 6.203125 30.609375 6.203125 
Q 37.796875 6.203125 41.984375 11.859375 
Q 46.1875 17.53125 46.1875 27.296875 
Q 46.1875 37.015625 41.984375 42.703125 
Q 37.796875 48.390625 30.609375 48.390625 
z
M 30.609375 56 
Q 42.328125 56 49.015625 48.375 
Q 55.71875 40.765625 55.71875 27.296875 
Q 55.71875 13.875 49.015625 6.21875 
Q 42.328125 -1.421875 30.609375 -1.421875 
Q 18.84375 -1.421875 12.171875 6.21875 
Q 5.515625 13.875 5.515625 27.296875 
Q 5.515625 40.765625 12.171875 48.375 
Q 18.84375 56 30.609375 56 
z
" id="DejaVuSans-6f"/>
      <path d="M 45.40625 27.984375 
Q 45.40625 37.75 41.375 43.109375 
Q 37.359375 48.484375 30.078125 48.484375 
Q 22.859375 48.484375 18.828125 43.109375 
Q 14.796875 37.75 14.796875 27.984375 
Q 14.796875 18.265625 18.828125 12.890625 
Q 22.859375 7.515625 30.078125 7.515625 
Q 37.359375 7.515625 41.375 12.890625 
Q 45.40625 18.265625 45.40625 27.984375 
z
M 54.390625 6.78125 
Q 54.390625 -7.171875 48.1875 -13.984375 
Q 42 -20.796875 29.203125 -20.796875 
Q 24.46875 -20.796875 20.265625 -20.09375 
Q 16.0625 -19.390625 12.109375 -17.921875 
L 12.109375 -9.1875 
Q 16.0625 -11.328125 19.921875 -12.34375 
Q 23.78125 -13.375 27.78125 -13.375 
Q 36.625 -13.375 41.015625 -8.765625 
Q 45.40625 -4.15625 45.40625 5.171875 
L 45.40625 9.625 
Q 42.625 4.78125 38.28125 2.390625 
Q 33.9375 0 27.875 0 
Q 17.828125 0 11.671875 7.65625 
Q 5.515625 15.328125 5.515625 27.984375 
Q 5.515625 40.671875 11.671875 48.328125 
Q 17.828125 56 27.875 56 
Q 33.9375 56 38.28125 53.609375 
Q 42.625 51.21875 45.40625 46.390625 
L 45.40625 54.6875 
L 54.390625 54.6875 
z
" id="DejaVuSans-67"/>
      <path d="M 12.40625 8.296875 
L 28.515625 8.296875 
L 28.515625 63.921875 
L 10.984375 60.40625 
L 10.984375 69.390625 
L 28.421875 72.90625 
L 38.28125 72.90625 
L 38.28125 8.296875 
L 54.390625 8.296875 
L 54.390625 0 
L 12.40625 0 
z
" id="DejaVuSans-31"/>
      <path d="M 31 75.875 
Q 24.46875 64.65625 21.28125 53.65625 
Q 18.109375 42.671875 18.109375 31.390625 
Q 18.109375 20.125 21.3125 9.0625 
Q 24.515625 -2 31 -13.1875 
L 23.1875 -13.1875 
Q 15.875 -1.703125 12.234375 9.375 
Q 8.59375 20.453125 8.59375 31.390625 
Q 8.59375 42.28125 12.203125 53.3125 
Q 15.828125 64.359375 23.1875 75.875 
z
" id="DejaVuSans-28"/>
      <path d="M 51.125 44 
L 36.921875 44 
L 32.8125 27.6875 
L 47.125 27.6875 
z
M 43.796875 71.78125 
L 38.71875 51.515625 
L 52.984375 51.515625 
L 58.109375 71.78125 
L 65.921875 71.78125 
L 60.890625 51.515625 
L 76.125 51.515625 
L 76.125 44 
L 58.984375 44 
L 54.984375 27.6875 
L 70.515625 27.6875 
L 70.515625 20.21875 
L 53.078125 20.21875 
L 48 0 
L 40.1875 0 
L 45.21875 20.21875 
L 30.90625 20.21875 
L 25.875 0 
L 18.015625 0 
L 23.09375 20.21875 
L 7.71875 20.21875 
L 7.71875 27.6875 
L 24.90625 27.6875 
L 29 44 
L 13.28125 44 
L 13.28125 51.515625 
L 30.90625 51.515625 
L 35.890625 71.78125 
z
" id="DejaVuSans-23"/>
      <path id="DejaVuSans-20"/>
      <path d="M 37.109375 75.984375 
L 37.109375 68.5 
L 28.515625 68.5 
Q 23.6875 68.5 21.796875 66.546875 
Q 19.921875 64.59375 19.921875 59.515625 
L 19.921875 54.6875 
L 34.71875 54.6875 
L 34.71875 47.703125 
L 19.921875 47.703125 
L 19.921875 0 
L 10.890625 0 
L 10.890625 47.703125 
L 2.296875 47.703125 
L 2.296875 54.6875 
L 10.890625 54.6875 
L 10.890625 58.5 
Q 10.890625 67.625 15.140625 71.796875 
Q 19.390625 75.984375 28.609375 75.984375 
z
" id="DejaVuSans-66"/>
      <path d="M 4.890625 31.390625 
L 31.203125 31.390625 
L 31.203125 23.390625 
L 4.890625 23.390625 
z
" id="DejaVuSans-2d"/>
      <path d="M 56.203125 29.59375 
L 56.203125 25.203125 
L 14.890625 25.203125 
Q 15.484375 15.921875 20.484375 11.0625 
Q 25.484375 6.203125 34.421875 6.203125 
Q 39.59375 6.203125 44.453125 7.46875 
Q 49.3125 8.734375 54.109375 11.28125 
L 54.109375 2.78125 
Q 49.265625 0.734375 44.1875 -0.34375 
Q 39.109375 -1.421875 33.890625 -1.421875 
Q 20.796875 -1.421875 13.15625 6.1875 
Q 5.515625 13.8125 5.515625 26.8125 
Q 5.515625 40.234375 12.765625 48.109375 
Q 20.015625 56 32.328125 56 
Q 43.359375 56 49.78125 48.890625 
Q 56.203125 41.796875 56.203125 29.59375 
z
M 47.21875 32.234375 
Q 47.125 39.59375 43.09375 43.984375 
Q 39.0625 48.390625 32.421875 48.390625 
Q 24.90625 48.390625 20.390625 44.140625 
Q 15.875 39.890625 15.1875 32.171875 
z
" id="DejaVuSans-65"/>
      <path d="M 2.984375 54.6875 
L 12.5 54.6875 
L 29.59375 8.796875 
L 46.6875 54.6875 
L 56.203125 54.6875 
L 35.6875 0 
L 23.484375 0 
z
" id="DejaVuSans-76"/>
      <path d="M 34.28125 27.484375 
Q 23.390625 27.484375 19.1875 25 
Q 14.984375 22.515625 14.984375 16.5 
Q 14.984375 11.71875 18.140625 8.90625 
Q 21.296875 6.109375 26.703125 6.109375 
Q 34.1875 6.109375 38.703125 11.40625 
Q 43.21875 16.703125 43.21875 25.484375 
L 43.21875 27.484375 
z
M 52.203125 31.203125 
L 52.203125 0 
L 43.21875 0 
L 43.21875 8.296875 
Q 40.140625 3.328125 35.546875 0.953125 
Q 30.953125 -1.421875 24.3125 -1.421875 
Q 15.921875 -1.421875 10.953125 3.296875 
Q 6 8.015625 6 15.921875 
Q 6 25.140625 12.171875 29.828125 
Q 18.359375 34.515625 30.609375 34.515625 
L 43.21875 34.515625 
L 43.21875 35.40625 
Q 43.21875 41.609375 39.140625 45 
Q 35.0625 48.390625 27.6875 48.390625 
Q 23 48.390625 18.546875 47.265625 
Q 14.109375 46.140625 10.015625 43.890625 
L 10.015625 52.203125 
Q 14.9375 54.109375 19.578125 55.046875 
Q 24.21875 56 28.609375 56 
Q 40.484375 56 46.34375 49.84375 
Q 52.203125 43.703125 52.203125 31.203125 
z
" id="DejaVuSans-61"/>
      <path d="M 44.28125 53.078125 
L 44.28125 44.578125 
Q 40.484375 46.53125 36.375 47.5 
Q 32.28125 48.484375 27.875 48.484375 
Q 21.1875 48.484375 17.84375 46.4375 
Q 14.5 44.390625 14.5 40.28125 
Q 14.5 37.15625 16.890625 35.375 
Q 19.28125 33.59375 26.515625 31.984375 
L 29.59375 31.296875 
Q 39.15625 29.25 43.1875 25.515625 
Q 47.21875 21.78125 47.21875 15.09375 
Q 47.21875 7.46875 41.1875 3.015625 
Q 35.15625 -1.421875 24.609375 -1.421875 
Q 20.21875 -1.421875 15.453125 -0.5625 
Q 10.6875 0.296875 5.421875 2 
L 5.421875 11.28125 
Q 10.40625 8.6875 15.234375 7.390625 
Q 20.0625 6.109375 24.8125 6.109375 
Q 31.15625 6.109375 34.5625 8.28125 
Q 37.984375 10.453125 37.984375 14.40625 
Q 37.984375 18.0625 35.515625 20.015625 
Q 33.0625 21.96875 24.703125 23.78125 
L 21.578125 24.515625 
Q 13.234375 26.265625 9.515625 29.90625 
Q 5.8125 33.546875 5.8125 39.890625 
Q 5.8125 47.609375 11.28125 51.796875 
Q 16.75 56 26.8125 56 
Q 31.78125 56 36.171875 55.265625 
Q 40.578125 54.546875 44.28125 53.078125 
z
" id="DejaVuSans-73"/>
      <path d="M 25.390625 72.90625 
L 33.6875 72.90625 
L 8.296875 -9.28125 
L 0 -9.28125 
z
" id="DejaVuSans-2f"/>
      <path d="M 45.40625 46.390625 
L 45.40625 75.984375 
L 54.390625 75.984375 
L 54.390625 0 
L 45.40625 0 
L 45.40625 8.203125 
Q 42.578125 3.328125 38.25 0.953125 
Q 33.9375 -1.421875 27.875 -1.421875 
Q 17.96875 -1.421875 11.734375 6.484375 
Q 5.515625 14.40625 5.515625 27.296875 
Q 5.515625 40.1875 11.734375 48.09375 
Q 17.96875 56 27.875 56 
Q 33.9375 56 38.25 53.625 
Q 42.578125 51.265625 45.40625 46.390625 
z
M 14.796875 27.296875 
Q 14.796875 17.390625 18.875 11.75 
Q 22.953125 6.109375 30.078125 6.109375 
Q 37.203125 6.109375 41.296875 11.75 
Q 45.40625 17.390625 45.40625 27.296875 
Q 45.40625 37.203125 41.296875 42.84375 
Q 37.203125 48.484375 30.078125 48.484375 
Q 22.953125 48.484375 18.875 42.84375 
Q 14.796875 37.203125 14.796875 27.296875 
z
" id="DejaVuSans-64"/>
      <path d="M 9.421875 54.6875 
L 18.40625 54.6875 
L 18.40625 0 
L 9.421875 0 
z
M 9.421875 75.984375 
L 18.40625 75.984375 
L 18.40625 64.59375 
L 9.421875 64.59375 
z
" id="DejaVuSans-69"/>
      <path d="M 52 44.1875 
Q 55.375 50.25 60.0625 53.125 
Q 64.75 56 71.09375 56 
Q 79.640625 56 84.28125 50.015625 
Q 88.921875 44.046875 88.921875 33.015625 
L 88.921875 0 
L 79.890625 0 
L 79.890625 32.71875 
Q 79.890625 40.578125 77.09375 44.375 
Q 74.3125 48.1875 68.609375 48.1875 
Q 61.625 48.1875 57.5625 43.546875 
Q 53.515625 38.921875 53.515625 30.90625 
L 53.515625 0 
L 44.484375 0 
L 44.484375 32.71875 
Q 44.484375 40.625 41.703125 44.40625 
Q 38.921875 48.1875 33.109375 48.1875 
Q 26.21875 48.1875 22.15625 43.53125 
Q 18.109375 38.875 18.109375 30.90625 
L 18.109375 0 
L 9.078125 0 
L 9.078125 54.6875 
L 18.109375 54.6875 
L 18.109375 46.1875 
Q 21.1875 51.21875 25.484375 53.609375 
Q 29.78125 56 35.6875 56 
Q 41.65625 56 45.828125 52.96875 
Q 50 49.953125 52 44.1875 
z
" id="DejaVuSans-6d"/>
      <path d="M 54.890625 33.015625 
L 54.890625 0 
L 45.90625 0 
L 45.90625 32.71875 
Q 45.90625 40.484375 42.875 44.328125 
Q 39.84375 48.1875 33.796875 48.1875 
Q 26.515625 48.1875 22.3125 43.546875 
Q 18.109375 38.921875 18.109375 30.90625 
L 18.109375 0 
L 9.078125 0 
L 9.078125 54.6875 
L 18.109375 54.6875 
L 18.109375 46.1875 
Q 21.34375 51.125 25.703125 53.5625 
Q 30.078125 56 35.796875 56 
Q 45.21875 56 50.046875 50.171875 
Q 54.890625 44.34375 54.890625 33.015625 
z
" id="DejaVuSans-6e"/>
      <path d="M 8.015625 75.875 
L 15.828125 75.875 
Q 23.140625 64.359375 26.78125 53.3125 
Q 30.421875 42.28125 30.421875 31.390625 
Q 30.421875 20.453125 26.78125 9.375 
Q 23.140625 -1.703125 15.828125 -13.1875 
L 8.015625 -13.1875 
Q 14.5 -2 17.703125 9.0625 
Q 20.90625 20.125 20.90625 31.390625 
Q 20.90625 42.671875 17.703125 53.65625 
Q 14.5 64.65625 8.015625 75.875 
z
" id="DejaVuSans-29"/>
     </defs>
     <g transform="translate(73.803219 338.153594)scale(0.17 -0.17)">
      <use xlink:href="#DejaVuSans-6c"/>
      <use x="27.783203" xlink:href="#DejaVuSans-6f"/>
      <use x="88.964844" xlink:href="#DejaVuSans-67"/>
      <use x="152.441406" xlink:href="#DejaVuSans-31"/>
      <use x="216.064453" xlink:href="#DejaVuSans-30"/>
      <use x="279.6875" xlink:href="#DejaVuSans-28"/>
      <use x="318.701172" xlink:href="#DejaVuSans-23"/>
      <use x="402.490234" xlink:href="#DejaVuSans-20"/>
      <use x="434.277344" xlink:href="#DejaVuSans-66"/>
      <use x="469.404297" xlink:href="#DejaVuSans-2d"/>
      <use x="505.488281" xlink:href="#DejaVuSans-65"/>
      <use x="567.011719" xlink:href="#DejaVuSans-76"/>
      <use x="626.191406" xlink:href="#DejaVuSans-61"/>
      <use x="687.470703" xlink:href="#DejaVuSans-6c"/>
      <use x="715.253906" xlink:href="#DejaVuSans-73"/>
      <use x="767.353516" xlink:href="#DejaVuSans-20"/>
      <use x="799.140625" xlink:href="#DejaVuSans-2f"/>
      <use x="832.832031" xlink:href="#DejaVuSans-20"/>
      <use x="864.619141" xlink:href="#DejaVuSans-64"/>
      <use x="928.095703" xlink:href="#DejaVuSans-69"/>
      <use x="955.878906" xlink:href="#DejaVuSans-6d"/>
      <use x="1053.291016" xlink:href="#DejaVuSans-65"/>
      <use x="1114.814453" xlink:href="#DejaVuSans-6e"/>
      <use x="1178.193359" xlink:href="#DejaVuSans-73"/>
      <use x="1230.292969" xlink:href="#DejaVuSans-69"/>
      <use x="1258.076172" xlink:href="#DejaVuSans-6f"/>
      <use x="1319.257812" xlink:href="#DejaVuSans-6e"/>
      <use x="1382.636719" xlink:href="#DejaVuSans-29"/>
     </g>
    </g>
   </g>
   <g id="matplotlib.axis_2">
    <g id="ytick_1">
     <g id="line2d_25">
      <path clip-path="url(#p9bdd0fd4dc)" d="M 56.12 294.88 
L 333.168 294.88 
" style="fill:none;stroke:#b0b0b0;stroke-linecap:square;stroke-width:0.8;"/>
     </g>
     <g id="line2d_26">
      <defs>
       <path d="M 0 0 
L -3.5 0 
" id="mf92f8bb1e7" style="stroke:#000000;stroke-width:0.8;"/>
      </defs>
      <g>
       <use style="stroke:#000000;stroke-width:0.8;" x="56.12" xlink:href="#mf92f8bb1e7" y="294.88"/>
      </g>
     </g>
     <g id="text_6">
      <!-- 0.0 -->
      <defs>
       <path d="M 10.6875 12.40625 
L 21 12.40625 
L 21 0 
L 10.6875 0 
z
" id="DejaVuSans-2e"/>
      </defs>
      <g transform="translate(23.675 300.95875)scale(0.16 -0.16)">
       <use xlink:href="#DejaVuSans-30"/>
       <use x="63.623047" xlink:href="#DejaVuSans-2e"/>
       <use x="95.410156" xlink:href="#DejaVuSans-30"/>
      </g>
     </g>
    </g>
    <g id="ytick_2">
     <g id="line2d_27">
      <path clip-path="url(#p9bdd0fd4dc)" d="M 56.12 237.843411 
L 333.168 237.843411 
" style="fill:none;stroke:#b0b0b0;stroke-linecap:square;stroke-width:0.8;"/>
     </g>
     <g id="line2d_28">
      <g>
       <use style="stroke:#000000;stroke-width:0.8;" x="56.12" xlink:href="#mf92f8bb1e7" y="237.843411"/>
      </g>
     </g>
     <g id="text_7">
      <!-- 0.2 -->
      <g transform="translate(23.675 243.922161)scale(0.16 -0.16)">
       <use xlink:href="#DejaVuSans-30"/>
       <use x="63.623047" xlink:href="#DejaVuSans-2e"/>
       <use x="95.410156" xlink:href="#DejaVuSans-32"/>
      </g>
     </g>
    </g>
    <g id="ytick_3">
     <g id="line2d_29">
      <path clip-path="url(#p9bdd0fd4dc)" d="M 56.12 180.806823 
L 333.168 180.806823 
" style="fill:none;stroke:#b0b0b0;stroke-linecap:square;stroke-width:0.8;"/>
     </g>
     <g id="line2d_30">
      <g>
       <use style="stroke:#000000;stroke-width:0.8;" x="56.12" xlink:href="#mf92f8bb1e7" y="180.806823"/>
      </g>
     </g>
     <g id="text_8">
      <!-- 0.4 -->
      <g transform="translate(23.675 186.885573)scale(0.16 -0.16)">
       <use xlink:href="#DejaVuSans-30"/>
       <use x="63.623047" xlink:href="#DejaVuSans-2e"/>
       <use x="95.410156" xlink:href="#DejaVuSans-34"/>
      </g>
     </g>
    </g>
    <g id="ytick_4">
     <g id="line2d_31">
      <path clip-path="url(#p9bdd0fd4dc)" d="M 56.12 123.770234 
L 333.168 123.770234 
" style="fill:none;stroke:#b0b0b0;stroke-linecap:square;stroke-width:0.8;"/>
     </g>
     <g id="line2d_32">
      <g>
       <use style="stroke:#000000;stroke-width:0.8;" x="56.12" xlink:href="#mf92f8bb1e7" y="123.770234"/>
      </g>
     </g>
     <g id="text_9">
      <!-- 0.6 -->
      <g transform="translate(23.675 129.848984)scale(0.16 -0.16)">
       <use xlink:href="#DejaVuSans-30"/>
       <use x="63.623047" xlink:href="#DejaVuSans-2e"/>
       <use x="95.410156" xlink:href="#DejaVuSans-36"/>
      </g>
     </g>
    </g>
    <g id="ytick_5">
     <g id="line2d_33">
      <path clip-path="url(#p9bdd0fd4dc)" d="M 56.12 66.733646 
L 333.168 66.733646 
" style="fill:none;stroke:#b0b0b0;stroke-linecap:square;stroke-width:0.8;"/>
     </g>
     <g id="line2d_34">
      <g>
       <use style="stroke:#000000;stroke-width:0.8;" x="56.12" xlink:href="#mf92f8bb1e7" y="66.733646"/>
      </g>
     </g>
     <g id="text_10">
      <!-- 0.8 -->
      <defs>
       <path d="M 31.78125 34.625 
Q 24.75 34.625 20.71875 30.859375 
Q 16.703125 27.09375 16.703125 20.515625 
Q 16.703125 13.921875 20.71875 10.15625 
Q 24.75 6.390625 31.78125 6.390625 
Q 38.8125 6.390625 42.859375 10.171875 
Q 46.921875 13.96875 46.921875 20.515625 
Q 46.921875 27.09375 42.890625 30.859375 
Q 38.875 34.625 31.78125 34.625 
z
M 21.921875 38.8125 
Q 15.578125 40.375 12.03125 44.71875 
Q 8.5 49.078125 8.5 55.328125 
Q 8.5 64.0625 14.71875 69.140625 
Q 20.953125 74.21875 31.78125 74.21875 
Q 42.671875 74.21875 48.875 69.140625 
Q 55.078125 64.0625 55.078125 55.328125 
Q 55.078125 49.078125 51.53125 44.71875 
Q 48 40.375 41.703125 38.8125 
Q 48.828125 37.15625 52.796875 32.3125 
Q 56.78125 27.484375 56.78125 20.515625 
Q 56.78125 9.90625 50.3125 4.234375 
Q 43.84375 -1.421875 31.78125 -1.421875 
Q 19.734375 -1.421875 13.25 4.234375 
Q 6.78125 9.90625 6.78125 20.515625 
Q 6.78125 27.484375 10.78125 32.3125 
Q 14.796875 37.15625 21.921875 38.8125 
z
M 18.3125 54.390625 
Q 18.3125 48.734375 21.84375 45.5625 
Q 25.390625 42.390625 31.78125 42.390625 
Q 38.140625 42.390625 41.71875 45.5625 
Q 45.3125 48.734375 45.3125 54.390625 
Q 45.3125 60.0625 41.71875 63.234375 
Q 38.140625 66.40625 31.78125 66.40625 
Q 25.390625 66.40625 21.84375 63.234375 
Q 18.3125 60.0625 18.3125 54.390625 
z
" id="DejaVuSans-38"/>
      </defs>
      <g transform="translate(23.675 72.812396)scale(0.16 -0.16)">
       <use xlink:href="#DejaVuSans-30"/>
       <use x="63.623047" xlink:href="#DejaVuSans-2e"/>
       <use x="95.410156" xlink:href="#DejaVuSans-38"/>
      </g>
     </g>
    </g>
    <g id="ytick_6">
     <g id="line2d_35">
      <path clip-path="url(#p9bdd0fd4dc)" d="M 56.12 9.697057 
L 333.168 9.697057 
" style="fill:none;stroke:#b0b0b0;stroke-linecap:square;stroke-width:0.8;"/>
     </g>
     <g id="line2d_36">
      <g>
       <use style="stroke:#000000;stroke-width:0.8;" x="56.12" xlink:href="#mf92f8bb1e7" y="9.697057"/>
      </g>
     </g>
     <g id="text_11">
      <!-- 1.0 -->
      <g transform="translate(23.675 15.775807)scale(0.16 -0.16)">
       <use xlink:href="#DejaVuSans-31"/>
       <use x="63.623047" xlink:href="#DejaVuSans-2e"/>
       <use x="95.410156" xlink:href="#DejaVuSans-30"/>
      </g>
     </g>
    </g>
    <g id="text_12">
     <!-- Fraction of function,target pairs -->
     <defs>
      <path d="M 9.8125 72.90625 
L 51.703125 72.90625 
L 51.703125 64.59375 
L 19.671875 64.59375 
L 19.671875 43.109375 
L 48.578125 43.109375 
L 48.578125 34.8125 
L 19.671875 34.8125 
L 19.671875 0 
L 9.8125 0 
z
" id="DejaVuSans-46"/>
      <path d="M 41.109375 46.296875 
Q 39.59375 47.171875 37.8125 47.578125 
Q 36.03125 48 33.890625 48 
Q 26.265625 48 22.1875 43.046875 
Q 18.109375 38.09375 18.109375 28.8125 
L 18.109375 0 
L 9.078125 0 
L 9.078125 54.6875 
L 18.109375 54.6875 
L 18.109375 46.1875 
Q 20.953125 51.171875 25.484375 53.578125 
Q 30.03125 56 36.53125 56 
Q 37.453125 56 38.578125 55.875 
Q 39.703125 55.765625 41.0625 55.515625 
z
" id="DejaVuSans-72"/>
      <path d="M 48.78125 52.59375 
L 48.78125 44.1875 
Q 44.96875 46.296875 41.140625 47.34375 
Q 37.3125 48.390625 33.40625 48.390625 
Q 24.65625 48.390625 19.8125 42.84375 
Q 14.984375 37.3125 14.984375 27.296875 
Q 14.984375 17.28125 19.8125 11.734375 
Q 24.65625 6.203125 33.40625 6.203125 
Q 37.3125 6.203125 41.140625 7.25 
Q 44.96875 8.296875 48.78125 10.40625 
L 48.78125 2.09375 
Q 45.015625 0.34375 40.984375 -0.53125 
Q 36.96875 -1.421875 32.421875 -1.421875 
Q 20.0625 -1.421875 12.78125 6.34375 
Q 5.515625 14.109375 5.515625 27.296875 
Q 5.515625 40.671875 12.859375 48.328125 
Q 20.21875 56 33.015625 56 
Q 37.15625 56 41.109375 55.140625 
Q 45.0625 54.296875 48.78125 52.59375 
z
" id="DejaVuSans-63"/>
      <path d="M 18.3125 70.21875 
L 18.3125 54.6875 
L 36.8125 54.6875 
L 36.8125 47.703125 
L 18.3125 47.703125 
L 18.3125 18.015625 
Q 18.3125 11.328125 20.140625 9.421875 
Q 21.96875 7.515625 27.59375 7.515625 
L 36.8125 7.515625 
L 36.8125 0 
L 27.59375 0 
Q 17.1875 0 13.234375 3.875 
Q 9.28125 7.765625 9.28125 18.015625 
L 9.28125 47.703125 
L 2.6875 47.703125 
L 2.6875 54.6875 
L 9.28125 54.6875 
L 9.28125 70.21875 
z
" id="DejaVuSans-74"/>
      <path d="M 8.5 21.578125 
L 8.5 54.6875 
L 17.484375 54.6875 
L 17.484375 21.921875 
Q 17.484375 14.15625 20.5 10.265625 
Q 23.53125 6.390625 29.59375 6.390625 
Q 36.859375 6.390625 41.078125 11.03125 
Q 45.3125 15.671875 45.3125 23.6875 
L 45.3125 54.6875 
L 54.296875 54.6875 
L 54.296875 0 
L 45.3125 0 
L 45.3125 8.40625 
Q 42.046875 3.421875 37.71875 1 
Q 33.40625 -1.421875 27.6875 -1.421875 
Q 18.265625 -1.421875 13.375 4.4375 
Q 8.5 10.296875 8.5 21.578125 
z
M 31.109375 56 
z
" id="DejaVuSans-75"/>
      <path d="M 11.71875 12.40625 
L 22.015625 12.40625 
L 22.015625 4 
L 14.015625 -11.625 
L 7.71875 -11.625 
L 11.71875 4 
z
" id="DejaVuSans-2c"/>
      <path d="M 18.109375 8.203125 
L 18.109375 -20.796875 
L 9.078125 -20.796875 
L 9.078125 54.6875 
L 18.109375 54.6875 
L 18.109375 46.390625 
Q 20.953125 51.265625 25.265625 53.625 
Q 29.59375 56 35.59375 56 
Q 45.5625 56 51.78125 48.09375 
Q 58.015625 40.1875 58.015625 27.296875 
Q 58.015625 14.40625 51.78125 6.484375 
Q 45.5625 -1.421875 35.59375 -1.421875 
Q 29.59375 -1.421875 25.265625 0.953125 
Q 20.953125 3.328125 18.109375 8.203125 
z
M 48.6875 27.296875 
Q 48.6875 37.203125 44.609375 42.84375 
Q 40.53125 48.484375 33.40625 48.484375 
Q 26.265625 48.484375 22.1875 42.84375 
Q 18.109375 37.203125 18.109375 27.296875 
Q 18.109375 17.390625 22.1875 11.75 
Q 26.265625 6.109375 33.40625 6.109375 
Q 40.53125 6.109375 44.609375 11.75 
Q 48.6875 17.390625 48.6875 27.296875 
z
" id="DejaVuSans-70"/>
     </defs>
     <g transform="translate(16.139531 286.001989)rotate(-90)scale(0.17 -0.17)">
      <use xlink:href="#DejaVuSans-46"/>
      <use x="57.410156" xlink:href="#DejaVuSans-72"/>
      <use x="98.523438" xlink:href="#DejaVuSans-61"/>
      <use x="159.802734" xlink:href="#DejaVuSans-63"/>
      <use x="214.783203" xlink:href="#DejaVuSans-74"/>
      <use x="253.992188" xlink:href="#DejaVuSans-69"/>
      <use x="281.775391" xlink:href="#DejaVuSans-6f"/>
      <use x="342.957031" xlink:href="#DejaVuSans-6e"/>
      <use x="406.335938" xlink:href="#DejaVuSans-20"/>
      <use x="438.123047" xlink:href="#DejaVuSans-6f"/>
      <use x="499.304688" xlink:href="#DejaVuSans-66"/>
      <use x="534.509766" xlink:href="#DejaVuSans-20"/>
      <use x="566.296875" xlink:href="#DejaVuSans-66"/>
      <use x="601.501953" xlink:href="#DejaVuSans-75"/>
      <use x="664.880859" xlink:href="#DejaVuSans-6e"/>
      <use x="728.259766" xlink:href="#DejaVuSans-63"/>
      <use x="783.240234" xlink:href="#DejaVuSans-74"/>
      <use x="822.449219" xlink:href="#DejaVuSans-69"/>
      <use x="850.232422" xlink:href="#DejaVuSans-6f"/>
      <use x="911.414062" xlink:href="#DejaVuSans-6e"/>
      <use x="974.792969" xlink:href="#DejaVuSans-2c"/>
      <use x="1006.580078" xlink:href="#DejaVuSans-74"/>
      <use x="1045.789062" xlink:href="#DejaVuSans-61"/>
      <use x="1107.068359" xlink:href="#DejaVuSans-72"/>
      <use x="1148.166016" xlink:href="#DejaVuSans-67"/>
      <use x="1211.642578" xlink:href="#DejaVuSans-65"/>
      <use x="1273.166016" xlink:href="#DejaVuSans-74"/>
      <use x="1312.375" xlink:href="#DejaVuSans-20"/>
      <use x="1344.162109" xlink:href="#DejaVuSans-70"/>
      <use x="1407.638672" xlink:href="#DejaVuSans-61"/>
      <use x="1468.917969" xlink:href="#DejaVuSans-69"/>
      <use x="1496.701172" xlink:href="#DejaVuSans-72"/>
      <use x="1537.814453" xlink:href="#DejaVuSans-73"/>
     </g>
    </g>
   </g>
   <g id="line2d_37">
    <defs>
     <path d="M 0 1.5 
C 0.397805 1.5 0.77937 1.341951 1.06066 1.06066 
C 1.341951 0.77937 1.5 0.397805 1.5 0 
C 1.5 -0.397805 1.341951 -0.77937 1.06066 -1.06066 
C 0.77937 -1.341951 0.397805 -1.5 0 -1.5 
C -0.397805 -1.5 -0.77937 -1.341951 -1.06066 -1.06066 
C -1.341951 -0.77937 -1.5 -0.397805 -1.5 0 
C -1.5 0.397805 -1.341951 0.77937 -1.06066 1.06066 
C -0.77937 1.341951 -0.397805 1.5 0 1.5 
z
" id="m7e6faf73c7" style="stroke:#000080;"/>
    </defs>
    <g>
     <use style="fill:#000080;stroke:#000080;" x="375.446391" xlink:href="#m7e6faf73c7" y="199.819019"/>
     <use style="fill:#000080;stroke:#000080;" x="375.446391" xlink:href="#m7e6faf73c7" y="199.819019"/>
    </g>
   </g>
   <g id="line2d_38">
    <path d="M 4.627463 294.88 
L 4.627463 266.361706 
L 16.541714 266.361706 
L 16.541714 264.124977 
L 23.511104 264.124977 
L 23.511104 261.888248 
L 28.455965 261.888248 
L 28.455965 261.329066 
L 42.394746 261.329066 
L 42.394746 260.769883 
L 48.715431 260.769883 
L 48.715431 260.210701 
L 49.989246 260.210701 
L 49.989246 259.651519 
L 53.326522 259.651519 
L 53.326522 259.092337 
L 58.522316 259.092337 
L 58.522316 258.533154 
L 61.278387 258.533154 
L 61.278387 257.973972 
L 63.08939 257.973972 
L 63.08939 257.41479 
L 73.192638 257.41479 
L 73.192638 256.296425 
L 76.379466 256.296425 
L 76.379466 255.737243 
L 79.513324 255.737243 
L 79.513324 255.178061 
L 81.586754 255.178061 
L 81.586754 254.618879 
L 94.996612 254.618879 
L 94.996612 254.059696 
L 119.88822 254.059696 
L 119.972169 252.941332 
L 120.789856 252.941332 
L 120.789856 252.38215 
L 121.891697 252.38215 
L 121.891697 251.822967 
L 127.911623 251.822967 
L 127.911623 251.263785 
L 129.57025 251.263785 
L 129.57025 250.704603 
L 129.71339 250.704603 
L 129.71339 250.145421 
L 143.558203 250.145421 
L 143.558203 249.586238 
L 152.897413 249.586238 
L 152.897413 249.027056 
L 154.809554 249.027056 
L 154.809554 248.467874 
L 157.320311 248.467874 
L 157.320311 247.908692 
L 167.308227 247.908692 
L 167.308227 247.34951 
L 179.632175 247.34951 
L 179.632175 246.790327 
L 180.157152 246.790327 
L 180.157152 246.231145 
L 181.136295 246.231145 
L 181.136295 245.671963 
L 181.428396 245.671963 
L 181.428396 245.112781 
L 183.893536 245.112781 
L 183.893536 244.553598 
L 184.024095 244.553598 
L 184.024095 243.994416 
L 185.397437 243.994416 
L 185.397437 243.435234 
L 187.377021 243.435234 
L 187.377021 242.876052 
L 193.161111 242.876052 
L 193.163481 241.757687 
L 194.911629 241.757687 
L 194.911629 241.198505 
L 195.914636 241.198505 
L 195.914636 240.639323 
L 197.286072 240.639323 
L 197.286072 240.08014 
L 198.401313 240.08014 
L 198.401313 239.520958 
L 199.908255 239.520958 
L 199.922655 238.402594 
L 200.05806 238.402594 
L 200.05806 237.843411 
L 200.70617 237.843411 
L 200.70617 237.284229 
L 200.869464 237.284229 
L 200.869464 236.725047 
L 201.148151 236.725047 
L 201.148151 236.165865 
L 201.640848 236.165865 
L 201.640848 235.606682 
L 202.029329 235.606682 
L 202.093407 234.488318 
L 203.032306 234.488318 
L 203.032306 233.929136 
L 203.319343 233.929136 
L 203.319343 233.369954 
L 203.603118 233.369954 
L 203.603118 232.810771 
L 205.804484 232.810771 
L 205.804484 232.251589 
L 209.51885 232.251589 
L 209.548908 231.133225 
L 209.768002 231.133225 
L 209.768002 230.574042 
L 209.927576 230.574042 
L 210.02337 229.455678 
L 210.064199 229.455678 
L 210.064199 228.896496 
L 212.202723 228.896496 
L 212.202723 228.337313 
L 212.745549 228.337313 
L 212.745549 227.778131 
L 213.500655 227.778131 
L 213.500655 227.218949 
L 213.655114 227.218949 
L 213.655114 226.659767 
L 213.86088 226.659767 
L 213.86088 226.100584 
L 230.175086 226.100584 
L 230.175086 225.541402 
L 230.325276 225.541402 
L 230.325276 224.98222 
L 230.866032 224.98222 
L 230.866032 224.423038 
L 231.239372 224.423038 
L 231.239372 223.863855 
L 236.385417 223.863855 
L 236.385417 223.304673 
L 245.666043 223.304673 
L 245.761569 222.186309 
L 257.418121 222.186309 
L 257.418121 221.627126 
L 258.390578 221.627126 
L 258.390578 221.067944 
L 268.11587 221.067944 
L 268.11587 220.508762 
L 272.064182 220.508762 
L 272.076042 219.390397 
L 276.530002 219.390397 
L 276.625578 218.272033 
L 276.922029 218.272033 
L 276.95591 217.153669 
L 277.373052 217.153669 
L 277.373052 216.594486 
L 278.896511 216.594486 
L 278.903728 215.476122 
L 283.435875 215.476122 
L 283.435875 214.91694 
L 293.579579 214.91694 
L 293.58638 213.798575 
L 293.722626 213.798575 
L 293.727146 212.680211 
L 297.911208 212.680211 
L 297.911208 212.121028 
L 305.498925 212.121028 
L 305.581816 210.443482 
L 305.614225 210.443482 
L 305.614225 209.884299 
L 305.809582 209.884299 
L 305.809582 209.325117 
L 310.525659 209.325117 
L 310.525659 208.765935 
L 314.038843 208.765935 
L 314.038843 208.206753 
L 314.753437 208.206753 
L 314.753437 207.64757 
L 316.135829 207.64757 
L 316.135829 207.088388 
L 320.235689 207.088388 
L 320.235689 206.529206 
L 322.017594 206.529206 
L 322.017594 205.970024 
L 324.410658 205.970024 
L 324.410658 205.410841 
L 325.564984 205.410841 
L 325.564984 204.851659 
L 326.316235 204.851659 
L 326.316235 204.292477 
L 331.372399 204.292477 
L 331.3744 203.174112 
L 333.168 203.174112 
L 333.168 203.174112 
" style="fill:none;stroke:#000080;stroke-linecap:square;stroke-width:1.5;"/>
   </g>
   <g id="line2d_39">
    <defs>
     <path d="M 0 6 
C 1.591219 6 3.117479 5.367802 4.242641 4.242641 
C 5.367802 3.117479 6 1.591219 6 0 
C 6 -1.591219 5.367802 -3.117479 4.242641 -4.242641 
C 3.117479 -5.367802 1.591219 -6 0 -6 
C -1.591219 -6 -3.117479 -5.367802 -4.242641 -4.242641 
C -5.367802 -3.117479 -6 -1.591219 -6 0 
C -6 1.591219 -5.367802 3.117479 -4.242641 4.242641 
C -3.117479 5.367802 -1.591219 6 0 6 
z
" id="m2b8683c072" style="stroke:#000080;stroke-width:1.5;"/>
    </defs>
    <g>
     <use style="fill-opacity:0;stroke:#000080;stroke-width:1.5;" x="120.789856" xlink:href="#m2b8683c072" y="252.941332"/>
     <use style="fill-opacity:0;stroke:#000080;stroke-width:1.5;" x="203.603118" xlink:href="#m2b8683c072" y="232.810771"/>
     <use style="fill-opacity:0;stroke:#000080;stroke-width:1.5;" x="305.614225" xlink:href="#m2b8683c072" y="209.884299"/>
     <use style="fill-opacity:0;stroke:#000080;stroke-width:1.5;" x="331.3744" xlink:href="#m2b8683c072" y="203.174112"/>
     <use style="fill-opacity:0;stroke:#000080;stroke-width:1.5;" x="333.168" xlink:href="#m2b8683c072" y="203.174112"/>
    </g>
   </g>
   <g id="line2d_40">
    <path style="fill:none;stroke:#000080;stroke-linecap:square;stroke-width:1.5;"/>
    <g/>
   </g>
   <g id="line2d_41">
    <path clip-path="url(#p9bdd0fd4dc)" d="M 293.589797 213.798575 
" style="fill:none;stroke:#000080;stroke-linecap:square;stroke-width:1.5;"/>
    <defs>
     <path d="M -12 12 
L 12 -12 
M -12 -12 
L 12 12 
" id="m3000b296fa" style="stroke:#000080;"/>
    </defs>
    <g clip-path="url(#p9bdd0fd4dc)">
     <use style="fill:#000080;stroke:#000080;" x="293.589797" xlink:href="#m3000b296fa" y="213.798575"/>
    </g>
   </g>
   <g id="line2d_42">
    <defs>
     <path d="M 0 1.5 
C 0.397805 1.5 0.77937 1.341951 1.06066 1.06066 
C 1.341951 0.77937 1.5 0.397805 1.5 0 
C 1.5 -0.397805 1.341951 -0.77937 1.06066 -1.06066 
C 0.77937 -1.341951 0.397805 -1.5 0 -1.5 
C -0.397805 -1.5 -0.77937 -1.341951 -1.06066 -1.06066 
C -1.341951 -0.77937 -1.5 -0.397805 -1.5 0 
C -1.5 0.397805 -1.341951 0.77937 -1.06066 1.06066 
C -0.77937 1.341951 -0.397805 1.5 0 1.5 
z
" id="mc07c98de2e" style="stroke:#ff00ff;"/>
    </defs>
    <g>
     <use style="fill:#ff00ff;stroke:#ff00ff;" x="358.811027" xlink:href="#mc07c98de2e" y="9.697057"/>
     <use style="fill:#ff00ff;stroke:#ff00ff;" x="358.811027" xlink:href="#mc07c98de2e" y="9.697057"/>
    </g>
   </g>
   <g id="line2d_43">
    <path d="M 4.627463 294.88 
L 4.627463 289.288178 
L 102.951792 289.288178 
L 102.951792 288.728995 
L 106.64017 288.728995 
L 106.64017 288.169813 
L 106.955567 288.169813 
L 106.955567 287.610631 
L 107.439785 287.610631 
L 107.439785 287.051449 
L 107.655455 287.051449 
L 107.655455 286.492266 
L 108.327957 286.492266 
L 108.327957 285.933084 
L 108.935392 285.933084 
L 108.935392 285.373902 
L 109.289809 285.373902 
L 109.289809 284.81472 
L 111.72091 284.81472 
L 111.72091 284.255537 
L 113.426701 284.255537 
L 113.426701 283.696355 
L 114.146749 283.696355 
L 114.146749 283.137173 
L 114.263878 283.137173 
L 114.263878 282.577991 
L 114.581927 282.577991 
L 114.581927 282.018808 
L 116.758569 282.018808 
L 116.758569 281.459626 
L 116.984244 281.459626 
L 116.984244 280.900444 
L 117.305074 280.900444 
L 117.305074 280.341262 
L 117.596003 280.341262 
L 117.596003 279.782079 
L 118.279397 279.782079 
L 118.348567 278.663715 
L 118.394526 278.663715 
L 118.394526 278.104533 
L 119.04748 278.104533 
L 119.04748 277.545351 
L 120.303926 277.545351 
L 120.303926 275.867804 
L 120.487764 275.867804 
L 120.508069 274.749439 
L 120.829737 274.749439 
L 120.849643 273.631075 
L 121.008065 273.631075 
L 121.008065 273.071893 
L 121.551317 273.071893 
L 121.551317 272.51271 
L 121.891697 272.51271 
L 121.985063 271.394346 
L 122.498743 271.394346 
L 122.606847 269.716799 
L 123.172198 269.716799 
L 123.276162 268.598435 
L 123.567356 268.598435 
L 123.601292 267.48007 
L 123.769975 267.48007 
L 123.769975 266.361706 
L 124.135351 266.361706 
L 124.135351 265.802523 
L 124.444771 265.802523 
L 124.444771 265.243341 
L 124.573405 265.243341 
L 124.573405 264.684159 
L 124.701083 264.684159 
L 124.701083 264.124977 
L 125.41738 264.124977 
L 125.41738 263.565795 
L 126.002135 263.565795 
L 126.002135 263.006612 
L 126.265455 263.006612 
L 126.265455 261.888248 
L 126.424409 261.888248 
L 126.424409 261.329066 
L 126.752093 261.329066 
L 126.752093 260.769883 
L 127.911623 260.769883 
L 127.911623 260.210701 
L 128.328654 260.210701 
L 128.328654 259.651519 
L 128.469703 259.651519 
L 128.469703 259.092337 
L 128.609603 259.092337 
L 128.609603 258.533154 
L 128.786028 258.533154 
L 128.786028 257.973972 
L 129.194858 257.973972 
L 129.292521 256.855608 
L 129.450049 256.855608 
L 129.450049 256.296425 
L 130.366053 256.296425 
L 130.366053 255.737243 
L 131.823497 255.737243 
L 131.823497 255.178061 
L 132.902593 255.178061 
L 132.902593 254.618879 
L 134.240425 254.618879 
L 134.240425 254.059696 
L 135.24216 254.059696 
L 135.24216 253.500514 
L 135.600092 253.500514 
L 135.608524 252.38215 
L 136.455588 252.38215 
L 136.455588 251.822967 
L 140.113666 251.822967 
L 140.113666 251.263785 
L 141.133577 251.263785 
L 141.133577 250.704603 
L 160.762847 250.704603 
L 160.762847 250.145421 
L 162.087869 250.145421 
L 162.087869 249.586238 
L 162.950916 249.586238 
L 162.950916 249.027056 
L 163.316338 249.027056 
L 163.316338 248.467874 
L 177.880228 248.467874 
L 177.880228 247.908692 
L 178.055906 247.908692 
L 178.055906 247.34951 
L 178.445259 247.34951 
L 178.445259 246.790327 
L 182.473588 246.790327 
L 182.473588 246.231145 
L 182.588512 246.231145 
L 182.588512 245.671963 
L 182.718452 245.671963 
L 182.718452 244.553598 
L 224.512406 244.553598 
L 224.516182 243.435234 
L 233.680544 243.435234 
L 233.703108 242.316869 
L 252.535543 242.316869 
L 252.543595 241.198505 
L 259.861635 241.198505 
L 259.866031 240.08014 
L 260.16164 240.08014 
L 260.26457 222.745491 
L 262.477453 222.745491 
L 262.477453 222.186309 
L 279.95713 222.186309 
L 279.993216 205.410841 
L 293.590511 205.410841 
L 293.597338 202.61493 
L 293.842553 202.61493 
L 293.842553 202.055748 
L 294.093156 202.055748 
L 294.10927 200.937384 
L 295.889021 200.937384 
L 295.900294 187.51701 
L 300.005197 187.51701 
L 300.016093 174.096636 
L 305.507878 174.096636 
L 305.507878 173.537454 
L 306.692165 173.537454 
L 306.698177 160.676262 
L 309.009629 160.676262 
L 309.015802 147.815071 
L 313.27391 147.815071 
L 313.278508 137.74979 
L 314.888211 137.74979 
L 314.892301 129.921239 
L 317.418541 129.921239 
L 317.418541 129.362057 
L 317.549658 129.362057 
L 317.549658 128.802874 
L 318.023025 128.802874 
L 318.025143 123.211052 
L 319.26017 123.211052 
L 319.263843 117.060047 
L 321.738965 117.060047 
L 321.741443 109.231496 
L 322.742998 109.231496 
L 322.745599 101.402945 
L 324.79372 101.402945 
L 324.795017 98.047851 
L 325.6373 98.047851 
L 325.639488 91.896847 
L 327.385215 91.896847 
L 327.386834 87.982571 
L 328.113879 87.982571 
L 328.115705 82.390748 
L 329.637348 82.390748 
L 329.638468 76.798926 
L 330.278241 76.798926 
L 330.279974 68.970375 
L 331.628266 68.970375 
L 331.629493 66.174463 
L 332.200563 66.174463 
L 332.201426 62.260188 
L 333.168 62.260188 
L 333.168 62.260188 
" style="fill:none;stroke:#ff00ff;stroke-linecap:square;stroke-width:1.5;"/>
   </g>
   <g id="line2d_44">
    <defs>
     <path d="M -0 8.485281 
L 5.091169 0 
L 0 -8.485281 
L -5.091169 -0 
z
" id="m002bc1e47e" style="stroke:#ff00ff;stroke-linejoin:miter;stroke-width:1.5;"/>
    </defs>
    <g>
     <use style="fill-opacity:0;stroke:#ff00ff;stroke-linejoin:miter;stroke-width:1.5;" x="141.133577" xlink:href="#m002bc1e47e" y="251.263785"/>
     <use style="fill-opacity:0;stroke:#ff00ff;stroke-linejoin:miter;stroke-width:1.5;" x="233.703108" xlink:href="#m002bc1e47e" y="242.316869"/>
     <use style="fill-opacity:0;stroke:#ff00ff;stroke-linejoin:miter;stroke-width:1.5;" x="309.015802" xlink:href="#m002bc1e47e" y="148.374253"/>
     <use style="fill-opacity:0;stroke:#ff00ff;stroke-linejoin:miter;stroke-width:1.5;" x="332.201426" xlink:href="#m002bc1e47e" y="62.260188"/>
     <use style="fill-opacity:0;stroke:#ff00ff;stroke-linejoin:miter;stroke-width:1.5;" x="333.168" xlink:href="#m002bc1e47e" y="62.260188"/>
    </g>
   </g>
   <g id="line2d_45">
    <path style="fill:none;stroke:#ff00ff;stroke-linecap:square;stroke-width:1.5;"/>
    <g/>
   </g>
   <g id="line2d_46">
    <path clip-path="url(#p9bdd0fd4dc)" d="M 293.589822 205.410841 
" style="fill:none;stroke:#ff00ff;stroke-linecap:square;stroke-width:1.5;"/>
    <defs>
     <path d="M -12 12 
L 12 -12 
M -12 -12 
L 12 12 
" id="mf7299ad780" style="stroke:#ff00ff;"/>
    </defs>
    <g clip-path="url(#p9bdd0fd4dc)">
     <use style="fill:#ff00ff;stroke:#ff00ff;" x="293.589822" xlink:href="#mf7299ad780" y="205.410841"/>
    </g>
   </g>
   <g id="line2d_47">
    <defs>
     <path d="M 0 1.5 
C 0.397805 1.5 0.77937 1.341951 1.06066 1.06066 
C 1.341951 0.77937 1.5 0.397805 1.5 0 
C 1.5 -0.397805 1.341951 -0.77937 1.06066 -1.06066 
C 0.77937 -1.341951 0.397805 -1.5 0 -1.5 
C -0.397805 -1.5 -0.77937 -1.341951 -1.06066 -1.06066 
C -1.341951 -0.77937 -1.5 -0.397805 -1.5 0 
C -1.5 0.397805 -1.341951 0.77937 -1.06066 1.06066 
C -0.77937 1.341951 -0.397805 1.5 0 1.5 
z
" id="m9d19e1fd01" style="stroke:#ff7500;"/>
    </defs>
    <g>
     <use style="fill:#ff7500;stroke:#ff7500;" x="281.258023" xlink:href="#m9d19e1fd01" y="9.697057"/>
     <use style="fill:#ff7500;stroke:#ff7500;" x="281.258023" xlink:href="#m9d19e1fd01" y="9.697057"/>
    </g>
   </g>
   <g id="line2d_48">
    <path d="M 4.627463 294.88 
L 4.627463 289.288178 
L 98.760375 289.288178 
L 98.760375 288.728995 
L 105.069992 288.728995 
L 105.069992 288.169813 
L 105.991465 288.169813 
L 105.991465 287.610631 
L 107.352754 287.610631 
L 107.352754 287.051449 
L 109.133192 287.051449 
L 109.133192 286.492266 
L 109.789179 286.492266 
L 109.789179 285.933084 
L 110.995252 285.933084 
L 110.995252 285.373902 
L 111.135855 285.373902 
L 111.135855 284.81472 
L 111.687041 284.81472 
L 111.687041 284.255537 
L 113.579218 284.255537 
L 113.579218 283.696355 
L 113.760471 283.696355 
L 113.760471 283.137173 
L 114.438088 283.137173 
L 114.438088 282.018808 
L 114.610551 282.018808 
L 114.610551 281.459626 
L 115.117793 281.459626 
L 115.117793 280.900444 
L 115.904782 280.900444 
L 115.904782 280.341262 
L 116.504295 280.341262 
L 116.504295 279.782079 
L 118.440362 279.782079 
L 118.440362 279.222897 
L 118.802718 279.222897 
L 118.802718 278.663715 
L 119.719081 278.663715 
L 119.761522 277.545351 
L 120.118102 277.545351 
L 120.118102 276.986168 
L 120.508069 276.986168 
L 120.508069 276.426986 
L 121.570405 276.426986 
L 121.570405 275.867804 
L 121.797821 275.867804 
L 121.854208 274.749439 
L 122.280471 274.749439 
L 122.280471 274.190257 
L 123.154809 274.190257 
L 123.154809 273.631075 
L 123.310677 273.631075 
L 123.310677 273.071893 
L 123.533353 273.071893 
L 123.533353 272.51271 
L 123.920387 272.51271 
L 123.986816 271.394346 
L 124.380091 271.394346 
L 124.380091 270.835164 
L 124.493121 270.835164 
L 124.493121 269.716799 
L 124.716977 269.716799 
L 124.716977 269.157617 
L 125.109607 269.157617 
L 125.109607 268.598435 
L 125.264182 268.598435 
L 125.264182 268.039252 
L 125.614517 268.039252 
L 125.614517 267.48007 
L 125.839208 267.48007 
L 125.839208 266.920888 
L 126.134299 266.920888 
L 126.163531 264.684159 
L 126.638823 264.684159 
L 126.695551 263.565795 
L 127.142761 263.565795 
L 127.142761 263.006612 
L 127.645746 263.006612 
L 127.645746 262.44743 
L 128.09532 262.44743 
L 128.09532 261.888248 
L 128.264156 261.888248 
L 128.264156 261.329066 
L 128.634918 261.329066 
L 128.634918 260.769883 
L 130.660852 260.769883 
L 130.761732 259.651519 
L 130.972774 259.651519 
L 130.972774 259.092337 
L 131.246571 259.092337 
L 131.268288 257.973972 
L 131.430293 257.973972 
L 131.430293 257.41479 
L 131.739239 257.41479 
L 131.781419 256.296425 
L 132.042729 256.296425 
L 132.042729 255.737243 
L 132.156459 255.737243 
L 132.228442 254.059696 
L 132.310342 254.059696 
L 132.310342 253.500514 
L 133.398593 253.500514 
L 133.398593 252.941332 
L 133.721483 252.941332 
L 133.721483 252.38215 
L 133.871358 252.38215 
L 133.871358 251.822967 
L 135.310914 251.822967 
L 135.310914 251.263785 
L 135.901068 251.263785 
L 135.901068 250.704603 
L 136.180564 250.704603 
L 136.180564 250.145421 
L 136.72628 250.145421 
L 136.72628 249.586238 
L 137.10132 249.586238 
L 137.10132 249.027056 
L 137.278167 249.027056 
L 137.278167 248.467874 
L 137.422898 248.467874 
L 137.475915 247.34951 
L 138.595638 247.34951 
L 138.595638 246.790327 
L 139.187568 246.790327 
L 139.187568 246.231145 
L 139.364631 246.231145 
L 139.364631 245.671963 
L 139.580081 245.671963 
L 139.580081 244.553598 
L 140.146067 244.553598 
L 140.146067 243.994416 
L 140.511183 243.994416 
L 140.523855 242.876052 
L 141.145798 242.876052 
L 141.145798 242.316869 
L 142.194318 242.316869 
L 142.194318 241.757687 
L 142.325989 241.757687 
L 142.325989 241.198505 
L 143.029944 241.198505 
L 143.029944 240.08014 
L 144.050088 240.08014 
L 144.050088 239.520958 
L 144.583387 239.520958 
L 144.623349 238.402594 
L 144.910328 238.402594 
L 144.910328 237.843411 
L 145.298459 237.843411 
L 145.298459 237.284229 
L 145.957288 237.284229 
L 145.957288 236.725047 
L 146.07691 236.725047 
L 146.07691 236.165865 
L 146.272936 236.165865 
L 146.272936 235.606682 
L 146.869855 235.606682 
L 146.869855 235.0475 
L 147.078732 235.0475 
L 147.186525 233.369954 
L 147.548046 233.369954 
L 147.548046 232.810771 
L 147.827746 232.810771 
L 147.827746 232.251589 
L 148.004886 232.251589 
L 148.004886 231.692407 
L 148.541507 231.692407 
L 148.648429 230.01486 
L 148.719342 230.01486 
L 148.719342 229.455678 
L 148.899248 229.455678 
L 148.899248 228.896496 
L 149.8122 228.896496 
L 149.8122 228.337313 
L 149.966458 228.337313 
L 149.966458 227.778131 
L 150.260102 227.778131 
L 150.260102 227.218949 
L 150.940196 227.218949 
L 150.940196 226.100584 
L 151.261936 226.100584 
L 151.278882 224.98222 
L 151.930347 224.98222 
L 151.930347 224.423038 
L 152.31416 224.423038 
L 152.31416 223.863855 
L 152.567451 223.863855 
L 152.642716 221.627126 
L 153.461522 221.627126 
L 153.461522 221.067944 
L 153.695627 221.067944 
L 153.695627 220.508762 
L 153.929489 220.508762 
L 153.929489 219.94958 
L 154.09132 219.94958 
L 154.09132 219.390397 
L 154.336917 219.390397 
L 154.336917 218.831215 
L 154.646023 218.831215 
L 154.646023 218.272033 
L 155.424612 218.272033 
L 155.528102 216.594486 
L 155.580934 216.594486 
L 155.580934 216.035304 
L 155.997838 216.035304 
L 156.10562 214.91694 
L 156.550069 214.91694 
L 156.550069 214.357757 
L 157.195911 214.357757 
L 157.195911 213.798575 
L 157.320311 213.798575 
L 157.398793 212.680211 
L 157.690531 212.680211 
L 157.690531 211.561846 
L 158.023225 211.561846 
L 158.023225 211.002664 
L 158.239237 211.002664 
L 158.248273 209.884299 
L 159.107222 209.884299 
L 159.107222 209.325117 
L 159.422267 209.325117 
L 159.422267 208.765935 
L 159.533698 208.765935 
L 159.619406 207.088388 
L 159.775092 207.088388 
L 159.775092 206.529206 
L 159.923235 206.529206 
L 159.923235 205.970024 
L 160.134991 205.970024 
L 160.134991 205.410841 
L 160.455758 205.410841 
L 160.455758 204.851659 
L 161.196318 204.851659 
L 161.196318 204.292477 
L 162.031783 204.292477 
L 162.104118 202.61493 
L 162.434765 202.61493 
L 162.434765 202.055748 
L 162.631893 202.055748 
L 162.631893 201.496566 
L 163.210063 201.496566 
L 163.210063 200.937384 
L 164.040801 200.937384 
L 164.076235 199.819019 
L 164.325419 199.819019 
L 164.325419 199.259837 
L 164.900844 199.259837 
L 164.900844 198.700655 
L 165.257515 198.700655 
L 165.257515 198.141472 
L 166.273837 198.141472 
L 166.273837 197.58229 
L 166.669929 197.58229 
L 166.669929 197.023108 
L 167.063861 197.023108 
L 167.063861 196.463926 
L 167.557055 196.463926 
L 167.599052 195.345561 
L 167.68926 195.345561 
L 167.68926 194.227197 
L 167.859234 194.227197 
L 167.859234 193.108832 
L 168.105358 193.108832 
L 168.130794 191.990468 
L 168.44187 191.990468 
L 168.44187 191.431285 
L 168.966707 191.431285 
L 168.966707 190.312921 
L 169.259573 190.312921 
L 169.259573 189.753739 
L 169.598949 189.753739 
L 169.623435 188.076192 
L 169.72914 188.076192 
L 169.746502 186.957828 
L 169.952343 186.957828 
L 169.952343 186.398645 
L 170.119561 186.398645 
L 170.119561 185.839463 
L 170.342252 185.839463 
L 170.418071 182.48437 
L 170.465844 182.48437 
L 170.465844 181.925187 
L 170.838976 181.925187 
L 170.945039 180.247641 
L 170.965526 180.247641 
L 170.992447 179.129276 
L 171.299566 179.129276 
L 171.403884 178.010912 
L 171.467846 178.010912 
L 171.503395 176.892547 
L 171.591945 176.892547 
L 171.591945 176.333365 
L 171.714122 176.333365 
L 171.770774 175.215 
L 171.882499 175.215 
L 171.882499 174.655818 
L 172.083609 174.655818 
L 172.083609 174.096636 
L 172.232412 174.096636 
L 172.232412 172.978271 
L 172.430482 172.978271 
L 172.497645 171.300725 
L 172.614551 171.300725 
L 172.614551 170.741543 
L 172.801513 170.741543 
L 172.801513 170.18236 
L 172.932724 170.18236 
L 172.932724 169.623178 
L 173.382362 169.623178 
L 173.382362 168.504814 
L 173.634245 168.504814 
L 173.634245 167.945631 
L 173.83331 167.945631 
L 173.83331 167.386449 
L 174.00483 167.386449 
L 174.012052 166.268085 
L 174.368477 166.268085 
L 174.368477 165.708902 
L 174.538267 165.708902 
L 174.538267 165.14972 
L 174.702928 165.14972 
L 174.804076 162.912991 
L 175.162345 162.912991 
L 175.162345 162.353809 
L 175.28851 162.353809 
L 175.28851 161.794627 
L 175.719666 161.794627 
L 175.751509 160.676262 
L 175.945376 160.676262 
L 176.017817 159.557898 
L 176.07475 159.557898 
L 176.079553 158.439533 
L 176.58117 158.439533 
L 176.58117 157.880351 
L 176.988284 157.880351 
L 176.988284 157.321169 
L 177.284803 157.321169 
L 177.284803 156.761987 
L 177.524865 156.761987 
L 177.524865 155.643622 
L 177.742742 155.643622 
L 177.742742 155.08444 
L 178.082994 155.08444 
L 178.123545 152.847711 
L 178.591788 152.847711 
L 178.591788 151.729346 
L 178.846439 151.729346 
L 178.846439 151.170164 
L 179.030769 151.170164 
L 179.030769 150.610982 
L 179.261097 150.610982 
L 179.261097 150.0518 
L 191.016659 150.0518 
L 191.016659 149.492617 
L 191.429848 149.492617 
L 191.429848 148.933435 
L 191.659309 148.933435 
L 191.716118 147.255888 
L 191.772419 147.255888 
L 191.772419 146.696706 
L 191.976445 146.696706 
L 192.030003 145.019159 
L 192.409902 145.019159 
L 192.409902 144.459977 
L 192.673116 144.459977 
L 192.673116 143.900795 
L 192.98961 143.900795 
L 193.063958 142.223248 
L 193.140063 142.223248 
L 193.140063 141.664066 
L 193.29803 141.664066 
L 193.316243 140.545702 
L 193.439407 140.545702 
L 193.455433 137.74979 
L 193.586569 137.74979 
L 193.586569 136.631426 
L 194.015005 136.631426 
L 194.043172 134.953879 
L 194.155103 134.953879 
L 194.155103 134.394697 
L 194.281583 134.394697 
L 194.338667 131.598786 
L 194.508516 131.598786 
L 194.617195 130.480421 
L 194.624543 130.480421 
L 194.691345 129.362057 
L 194.763828 129.362057 
L 194.807763 127.68451 
L 194.895299 127.68451 
L 194.895299 127.125328 
L 195.025241 127.125328 
L 195.117232 126.006963 
L 195.150777 126.006963 
L 195.150777 125.447781 
L 195.279333 125.447781 
L 195.289283 124.329417 
L 195.412652 124.329417 
L 195.491219 122.65187 
L 195.628816 122.65187 
L 195.628816 121.533505 
L 199.352138 121.533505 
L 199.352138 120.974323 
L 199.520563 120.974323 
L 199.520563 119.855959 
L 199.809332 119.855959 
L 199.809332 119.296776 
L 200.149254 119.296776 
L 200.182564 118.178412 
L 200.329617 118.178412 
L 200.392174 115.941683 
L 200.626912 115.941683 
L 200.626912 115.382501 
L 200.833479 115.382501 
L 200.833479 114.264136 
L 201.168802 114.264136 
L 201.168802 113.704954 
L 201.344904 113.704954 
L 201.417262 112.586589 
L 201.559071 112.586589 
L 201.559071 112.027407 
L 201.767909 112.027407 
L 201.816859 108.113132 
L 201.98098 108.113132 
L 202.015529 104.758038 
L 202.205628 104.758038 
L 202.265739 103.639674 
L 202.444649 103.639674 
L 202.550318 101.402945 
L 202.842918 101.402945 
L 202.852698 100.28458 
L 203.046148 100.28458 
L 203.046148 99.725398 
L 203.232168 99.725398 
L 203.232168 99.166216 
L 203.354581 99.166216 
L 203.371927 98.047851 
L 203.502283 98.047851 
L 203.513805 95.811122 
L 203.637135 95.811122 
L 203.66594 93.574393 
L 204.010573 93.574393 
L 204.010573 93.015211 
L 204.131497 93.015211 
L 204.131497 91.337664 
L 205.257192 91.337664 
L 205.344036 90.2193 
L 205.393258 90.2193 
L 205.393258 89.660118 
L 205.57537 89.660118 
L 205.677941 87.423389 
L 205.984561 87.423389 
L 206.030864 86.305024 
L 206.143711 86.305024 
L 206.219411 85.18666 
L 206.30278 85.18666 
L 206.32015 84.068295 
L 206.422356 84.068295 
L 206.44412 82.949931 
L 206.541786 82.949931 
L 206.541786 82.390748 
L 206.654177 82.390748 
L 206.731434 80.15402 
L 206.856223 80.15402 
L 206.856223 79.035655 
L 206.983295 79.035655 
L 207.011509 77.358108 
L 207.11825 77.358108 
L 207.229167 76.239744 
L 207.25137 76.239744 
L 207.361175 74.562197 
L 222.563404 74.562197 
L 222.623066 71.766286 
L 222.674543 71.766286 
L 222.753853 70.088739 
L 222.853716 70.088739 
L 222.943053 66.733646 
L 222.969068 66.733646 
L 223.052969 62.81937 
L 223.094558 62.81937 
L 223.150389 60.023459 
L 223.271638 60.023459 
L 223.271638 59.464277 
L 226.446629 59.464277 
L 226.542023 56.668365 
L 226.631228 56.668365 
L 226.72506 53.872454 
L 226.744722 53.872454 
L 226.839692 50.517361 
L 226.881316 50.517361 
L 226.983075 46.043903 
L 226.998225 46.043903 
L 227.094194 42.129627 
L 255.086001 42.129627 
L 255.194673 27.031707 
L 255.203271 27.031707 
L 255.203271 26.472524 
L 281.232515 26.472524 
L 281.258023 9.697057 
L 333.168 9.697057 
L 333.168 9.697057 
" style="fill:none;stroke:#ff7500;stroke-linecap:square;stroke-width:1.5;"/>
   </g>
   <g id="line2d_49">
    <defs>
     <path d="M 0 -6 
L -1.347084 -1.854102 
L -5.706339 -1.854102 
L -2.179628 0.708204 
L -3.526712 4.854102 
L -0 2.291796 
L 3.526712 4.854102 
L 2.179628 0.708204 
L 5.706339 -1.854102 
L 1.347084 -1.854102 
z
" id="m634b153969" style="stroke:#ff7500;stroke-linejoin:bevel;stroke-width:1.5;"/>
    </defs>
    <g>
     <use style="fill-opacity:0;stroke:#ff7500;stroke-linejoin:bevel;stroke-width:1.5;" x="123.986816" xlink:href="#m634b153969" y="271.953528"/>
     <use style="fill-opacity:0;stroke:#ff7500;stroke-linejoin:bevel;stroke-width:1.5;" x="177.742742" xlink:href="#m634b153969" y="155.643622"/>
     <use style="fill-opacity:0;stroke:#ff7500;stroke-linejoin:bevel;stroke-width:1.5;" x="255.113429" xlink:href="#m634b153969" y="38.774534"/>
     <use style="fill-opacity:0;stroke:#ff7500;stroke-linejoin:bevel;stroke-width:1.5;" x="281.258023" xlink:href="#m634b153969" y="9.697057"/>
     <use style="fill-opacity:0;stroke:#ff7500;stroke-linejoin:bevel;stroke-width:1.5;" x="281.258023" xlink:href="#m634b153969" y="9.697057"/>
     <use style="fill-opacity:0;stroke:#ff7500;stroke-linejoin:bevel;stroke-width:1.5;" x="333.168" xlink:href="#m634b153969" y="9.697057"/>
    </g>
   </g>
   <g id="line2d_50">
    <path style="fill:none;stroke:#ff7500;stroke-linecap:square;stroke-width:1.5;"/>
    <g/>
   </g>
   <g id="line2d_51">
    <defs>
     <path d="M 0 1.5 
C 0.397805 1.5 0.77937 1.341951 1.06066 1.06066 
C 1.341951 0.77937 1.5 0.397805 1.5 0 
C 1.5 -0.397805 1.341951 -0.77937 1.06066 -1.06066 
C 0.77937 -1.341951 0.397805 -1.5 0 -1.5 
C -0.397805 -1.5 -0.77937 -1.341951 -1.06066 -1.06066 
C -1.341951 -0.77937 -1.5 -0.397805 -1.5 0 
C -1.5 0.397805 -1.341951 0.77937 -1.06066 1.06066 
C -0.77937 1.341951 -0.397805 1.5 0 1.5 
z
" id="mc532ff5032" style="stroke:#6495ed;"/>
    </defs>
    <g>
     <use style="fill:#6495ed;stroke:#6495ed;" x="352.762918" xlink:href="#mc532ff5032" y="216.594486"/>
     <use style="fill:#6495ed;stroke:#6495ed;" x="352.762918" xlink:href="#mc532ff5032" y="216.594486"/>
    </g>
   </g>
   <g id="line2d_52">
    <path d="M 88.293717 294.88 
L 88.293717 292.084089 
L 95.784015 292.084089 
L 95.784015 291.524907 
L 96.372436 291.524907 
L 96.372436 290.965724 
L 97.336537 290.965724 
L 97.336537 289.288178 
L 97.646251 289.288178 
L 97.646251 286.492266 
L 100.470395 286.492266 
L 100.470395 285.373902 
L 100.792893 285.373902 
L 100.792893 282.577991 
L 104.919872 282.577991 
L 104.919872 280.900444 
L 107.526378 280.900444 
L 107.526378 277.545351 
L 108.327957 277.545351 
L 108.327957 276.986168 
L 109.367586 276.986168 
L 109.367586 275.308622 
L 109.522091 275.308622 
L 109.560502 271.394346 
L 109.977446 271.394346 
L 109.977446 269.716799 
L 110.674626 269.716799 
L 110.674626 269.157617 
L 111.448069 269.157617 
L 111.448069 268.039252 
L 112.514373 268.039252 
L 112.514373 266.920888 
L 112.929346 266.920888 
L 112.929346 266.361706 
L 113.365313 266.361706 
L 113.365313 265.243341 
L 113.790495 265.243341 
L 113.790495 263.565795 
L 114.146749 263.565795 
L 114.146749 262.44743 
L 114.610551 262.44743 
L 114.610551 261.888248 
L 114.724572 261.888248 
L 114.724572 259.092337 
L 115.006359 259.092337 
L 115.006359 255.737243 
L 115.744887 255.737243 
L 115.771639 254.618879 
L 116.220179 254.618879 
L 116.324038 253.500514 
L 117.305074 253.500514 
L 117.37827 251.822967 
L 117.715785 251.822967 
L 117.715785 251.263785 
L 119.223324 251.263785 
L 119.223324 250.704603 
L 120.013991 250.704603 
L 120.013991 250.145421 
L 150.442448 250.145421 
L 150.442448 249.586238 
L 153.792481 249.586238 
L 153.792481 249.027056 
L 157.229492 249.027056 
L 157.229492 248.467874 
L 161.477471 248.467874 
L 161.477471 247.908692 
L 164.314315 247.908692 
L 164.314315 247.34951 
L 164.85785 247.34951 
L 164.85785 246.790327 
L 165.096033 246.790327 
L 165.096033 246.231145 
L 168.536463 246.231145 
L 168.536463 245.671963 
L 174.102078 245.671963 
L 174.102078 245.112781 
L 174.763515 245.112781 
L 174.763515 244.553598 
L 178.027346 244.553598 
L 178.027346 243.994416 
L 178.684888 243.994416 
L 178.684888 243.435234 
L 179.862985 243.435234 
L 179.862985 242.876052 
L 180.187428 242.876052 
L 180.187428 242.316869 
L 180.456299 242.316869 
L 180.456299 241.757687 
L 183.687082 241.757687 
L 183.766584 240.639323 
L 184.269854 240.639323 
L 184.269854 240.08014 
L 186.21363 240.08014 
L 186.21363 239.520958 
L 187.96577 239.520958 
L 187.96577 238.961776 
L 194.201178 238.961776 
L 194.201178 238.402594 
L 194.92527 238.402594 
L 194.92527 237.843411 
L 195.541593 237.843411 
L 195.541593 237.284229 
L 195.816928 237.284229 
L 195.816928 236.725047 
L 200.617315 236.725047 
L 200.677495 235.606682 
L 201.58722 235.606682 
L 201.58722 235.0475 
L 203.208901 235.0475 
L 203.300465 233.929136 
L 206.582272 233.929136 
L 206.582272 233.369954 
L 209.669409 233.369954 
L 209.669409 232.810771 
L 229.625886 232.810771 
L 229.625886 232.251589 
L 250.103034 232.251589 
L 250.103034 231.692407 
L 253.611121 231.692407 
L 253.611121 231.133225 
L 254.297689 231.133225 
L 254.297689 230.574042 
L 259.32596 230.574042 
L 259.384209 229.455678 
L 262.57711 229.455678 
L 262.57711 228.896496 
L 268.574978 228.896496 
L 268.574978 228.337313 
L 270.906521 228.337313 
L 270.911405 227.218949 
L 274.501738 227.218949 
L 274.501738 226.659767 
L 276.938484 226.659767 
L 276.938484 226.100584 
L 283.897971 226.100584 
L 283.897971 225.541402 
L 287.548597 225.541402 
L 287.548597 224.98222 
L 290.762831 224.98222 
L 290.762831 224.423038 
L 291.80006 224.423038 
L 291.80006 223.863855 
L 293.716858 223.863855 
L 293.716858 223.304673 
L 295.455741 223.304673 
L 295.455741 222.745491 
L 297.661581 222.745491 
L 297.661595 221.627126 
L 301.33236 221.627126 
L 301.33236 221.067944 
L 304.148582 221.067944 
L 304.148582 220.508762 
L 307.660211 220.508762 
L 307.660211 219.94958 
L 318.530173 219.94958 
L 318.530173 219.390397 
L 327.68147 219.390397 
L 327.68147 218.831215 
L 333.168 218.831215 
L 333.168 218.831215 
" style="fill:none;stroke:#6495ed;stroke-linecap:square;stroke-width:1.5;"/>
   </g>
   <g id="line2d_53">
    <defs>
     <path d="M -0 6 
L 6 -6 
L -6 -6 
z
" id="ma71cbefccf" style="stroke:#6495ed;stroke-linejoin:miter;stroke-width:1.5;"/>
    </defs>
    <g>
     <use style="fill-opacity:0;stroke:#6495ed;stroke-linejoin:miter;stroke-width:1.5;" x="108.327957" xlink:href="#ma71cbefccf" y="276.986168"/>
     <use style="fill-opacity:0;stroke:#6495ed;stroke-linejoin:miter;stroke-width:1.5;" x="195.816928" xlink:href="#ma71cbefccf" y="237.284229"/>
     <use style="fill-opacity:0;stroke:#6495ed;stroke-linejoin:miter;stroke-width:1.5;" x="274.501738" xlink:href="#ma71cbefccf" y="226.659767"/>
     <use style="fill-opacity:0;stroke:#6495ed;stroke-linejoin:miter;stroke-width:1.5;" x="327.68147" xlink:href="#ma71cbefccf" y="218.831215"/>
     <use style="fill-opacity:0;stroke:#6495ed;stroke-linejoin:miter;stroke-width:1.5;" x="333.168" xlink:href="#ma71cbefccf" y="218.831215"/>
    </g>
   </g>
   <g id="line2d_54">
    <path style="fill:none;stroke:#6495ed;stroke-linecap:square;stroke-width:1.5;"/>
    <g/>
   </g>
   <g id="line2d_55">
    <path clip-path="url(#p9bdd0fd4dc)" d="M 293.589795 223.863855 
" style="fill:none;stroke:#6495ed;stroke-linecap:square;stroke-width:1.5;"/>
    <defs>
     <path d="M -12 12 
L 12 -12 
M -12 -12 
L 12 12 
" id="m79a5db6082" style="stroke:#6495ed;"/>
    </defs>
    <g clip-path="url(#p9bdd0fd4dc)">
     <use style="fill:#6495ed;stroke:#6495ed;" x="293.589795" xlink:href="#m79a5db6082" y="223.863855"/>
    </g>
   </g>
   <g id="line2d_56">
    <defs>
     <path d="M 0 1.5 
C 0.397805 1.5 0.77937 1.341951 1.06066 1.06066 
C 1.341951 0.77937 1.5 0.397805 1.5 0 
C 1.5 -0.397805 1.341951 -0.77937 1.06066 -1.06066 
C 0.77937 -1.341951 0.397805 -1.5 0 -1.5 
C -0.397805 -1.5 -0.77937 -1.341951 -1.06066 -1.06066 
C -1.341951 -0.77937 -1.5 -0.397805 -1.5 0 
C -1.5 0.397805 -1.341951 0.77937 -1.06066 1.06066 
C -0.77937 1.341951 -0.397805 1.5 0 1.5 
z
" id="m616ad5377a" style="stroke:#ff0000;"/>
    </defs>
    <g>
     <use style="fill:#ff0000;stroke:#ff0000;" x="346.893245" xlink:href="#m616ad5377a" y="255.737243"/>
     <use style="fill:#ff0000;stroke:#ff0000;" x="346.893245" xlink:href="#m616ad5377a" y="255.737243"/>
    </g>
   </g>
   <g id="line2d_57">
    <path d="M 173.727184 294.88 
L 173.727184 294.320818 
L 174.872896 294.320818 
L 174.872896 293.761636 
L 175.959082 293.761636 
L 175.959082 293.202453 
L 176.214279 293.202453 
L 176.214279 292.643271 
L 177.744195 292.643271 
L 177.744195 292.084089 
L 178.023058 292.084089 
L 178.023058 291.524907 
L 180.242796 291.524907 
L 180.242796 290.965724 
L 180.737516 290.965724 
L 180.737516 290.406542 
L 182.528122 290.406542 
L 182.561637 289.288178 
L 190.925462 289.288178 
L 190.925462 288.728995 
L 191.048514 288.728995 
L 191.048514 288.169813 
L 191.996113 288.169813 
L 191.996113 287.610631 
L 193.07081 287.610631 
L 193.07081 287.051449 
L 194.676975 287.051449 
L 194.676975 286.492266 
L 195.070635 286.492266 
L 195.070635 285.933084 
L 195.621115 285.933084 
L 195.621115 285.373902 
L 196.10815 285.373902 
L 196.10815 284.81472 
L 196.892637 284.81472 
L 196.892637 284.255537 
L 198.160693 284.255537 
L 198.168222 283.137173 
L 198.444069 283.137173 
L 198.444069 282.577991 
L 199.881423 282.577991 
L 199.881423 282.018808 
L 205.858352 282.018808 
L 205.858352 281.459626 
L 206.838318 281.459626 
L 206.876378 280.341262 
L 207.497581 280.341262 
L 207.497581 279.782079 
L 209.673377 279.782079 
L 209.703619 278.663715 
L 259.689371 278.663715 
L 259.689371 278.104533 
L 267.680597 278.104533 
L 267.72824 275.867804 
L 271.266882 275.867804 
L 271.266882 275.308622 
L 279.912502 275.308622 
L 279.912502 274.749439 
L 280.817115 274.749439 
L 280.817115 274.190257 
L 283.517401 274.190257 
L 283.517401 273.631075 
L 285.222292 273.631075 
L 285.235058 272.51271 
L 285.694501 272.51271 
L 285.709559 270.835164 
L 289.514422 270.835164 
L 289.514422 270.275981 
L 293.003216 270.275981 
L 293.003216 269.716799 
L 293.901323 269.716799 
L 293.901323 269.157617 
L 297.028812 269.157617 
L 297.034145 267.48007 
L 297.737187 267.48007 
L 297.737187 266.920888 
L 301.829362 266.920888 
L 301.829362 266.361706 
L 302.011609 266.361706 
L 302.011609 265.802523 
L 307.312344 265.802523 
L 307.314224 263.565795 
L 310.112861 263.565795 
L 310.112861 263.006612 
L 310.22423 263.006612 
L 310.22423 262.44743 
L 312.788969 262.44743 
L 312.788969 261.888248 
L 313.70113 261.888248 
L 313.70113 261.329066 
L 317.655502 261.329066 
L 317.655502 260.769883 
L 321.138083 260.769883 
L 321.138083 260.210701 
L 322.000898 260.210701 
L 322.000898 259.651519 
L 328.167286 259.651519 
L 328.167286 259.092337 
L 331.77612 259.092337 
L 331.77612 258.533154 
L 333.168 258.533154 
L 333.168 258.533154 
" style="fill:none;stroke:#ff0000;stroke-linecap:square;stroke-width:1.5;"/>
   </g>
   <g id="line2d_58">
    <defs>
     <path d="M 0 -6 
L -5.196152 -3 
L -5.196152 3 
L -0 6 
L 5.196152 3 
L 5.196152 -3 
z
" id="m4ac45c22dc" style="stroke:#ff0000;stroke-linejoin:miter;stroke-width:1.5;"/>
    </defs>
    <g>
     <use style="fill-opacity:0;stroke:#ff0000;stroke-linejoin:miter;stroke-width:1.5;" x="206.876378" xlink:href="#m4ac45c22dc" y="280.341262"/>
     <use style="fill-opacity:0;stroke:#ff0000;stroke-linejoin:miter;stroke-width:1.5;" x="279.912502" xlink:href="#m4ac45c22dc" y="274.749439"/>
     <use style="fill-opacity:0;stroke:#ff0000;stroke-linejoin:miter;stroke-width:1.5;" x="331.77612" xlink:href="#m4ac45c22dc" y="258.533154"/>
     <use style="fill-opacity:0;stroke:#ff0000;stroke-linejoin:miter;stroke-width:1.5;" x="333.168" xlink:href="#m4ac45c22dc" y="258.533154"/>
    </g>
   </g>
   <g id="line2d_59">
    <path style="fill:none;stroke:#ff0000;stroke-linecap:square;stroke-width:1.5;"/>
    <g/>
   </g>
   <g id="line2d_60">
    <path clip-path="url(#p9bdd0fd4dc)" d="M 293.58978 269.716799 
" style="fill:none;stroke:#ff0000;stroke-linecap:square;stroke-width:1.5;"/>
    <defs>
     <path d="M -12 12 
L 12 -12 
M -12 -12 
L 12 12 
" id="m23cdb7ef27" style="stroke:#ff0000;"/>
    </defs>
    <g clip-path="url(#p9bdd0fd4dc)">
     <use style="fill:#ff0000;stroke:#ff0000;" x="293.58978" xlink:href="#m23cdb7ef27" y="269.716799"/>
    </g>
   </g>
   <g id="line2d_61">
    <path d="M 333.168 258.533154 
L 363.64328 289.176341 
" style="fill:none;stroke:#ff0000;stroke-linecap:square;stroke-width:1.5;"/>
    <g>
     <use style="fill-opacity:0;stroke:#ff0000;stroke-linejoin:miter;stroke-width:1.5;" x="333.168" xlink:href="#m4ac45c22dc" y="258.533154"/>
     <use style="fill-opacity:0;stroke:#ff0000;stroke-linejoin:miter;stroke-width:1.5;" x="363.64328" xlink:href="#m4ac45c22dc" y="289.176341"/>
    </g>
   </g>
   <g id="line2d_62">
    <path d="M 333.168 218.831215 
L 363.64328 220.732435 
" style="fill:none;stroke:#6495ed;stroke-linecap:square;stroke-width:1.5;"/>
    <g>
     <use style="fill-opacity:0;stroke:#6495ed;stroke-linejoin:miter;stroke-width:1.5;" x="333.168" xlink:href="#ma71cbefccf" y="218.831215"/>
     <use style="fill-opacity:0;stroke:#6495ed;stroke-linejoin:miter;stroke-width:1.5;" x="363.64328" xlink:href="#ma71cbefccf" y="220.732435"/>
    </g>
   </g>
   <g id="line2d_63">
    <path d="M 333.168 203.174112 
L 363.64328 152.288529 
" style="fill:none;stroke:#000080;stroke-linecap:square;stroke-width:1.5;"/>
    <g>
     <use style="fill-opacity:0;stroke:#000080;stroke-width:1.5;" x="333.168" xlink:href="#m2b8683c072" y="203.174112"/>
     <use style="fill-opacity:0;stroke:#000080;stroke-width:1.5;" x="363.64328" xlink:href="#m2b8683c072" y="152.288529"/>
    </g>
   </g>
   <g id="line2d_64">
    <path d="M 333.168 62.260188 
L 363.64328 83.844622 
" style="fill:none;stroke:#ff00ff;stroke-linecap:square;stroke-width:1.5;"/>
    <g>
     <use style="fill-opacity:0;stroke:#ff00ff;stroke-linejoin:miter;stroke-width:1.5;" x="333.168" xlink:href="#m002bc1e47e" y="62.260188"/>
     <use style="fill-opacity:0;stroke:#ff00ff;stroke-linejoin:miter;stroke-width:1.5;" x="363.64328" xlink:href="#m002bc1e47e" y="83.844622"/>
    </g>
   </g>
   <g id="line2d_65">
    <path d="M 333.168 9.697057 
L 363.64328 15.400716 
" style="fill:none;stroke:#ff7500;stroke-linecap:square;stroke-width:1.5;"/>
    <g>
     <use style="fill-opacity:0;stroke:#ff7500;stroke-linejoin:bevel;stroke-width:1.5;" x="333.168" xlink:href="#m634b153969" y="9.697057"/>
     <use style="fill-opacity:0;stroke:#ff7500;stroke-linejoin:bevel;stroke-width:1.5;" x="363.64328" xlink:href="#m634b153969" y="15.400716"/>
    </g>
   </g>
   <g id="line2d_66">
    <path d="M 333.168 294.88 
L 333.168 9.697057 
" style="fill:none;stroke:#000000;stroke-linecap:square;stroke-width:1.5;"/>
   </g>
   <g id="patch_3">
    <path d="M 56.12 294.88 
L 56.12 6.845228 
" style="fill:none;stroke:#000000;stroke-linecap:square;stroke-linejoin:miter;stroke-width:0.8;"/>
   </g>
   <g id="patch_4">
    <path d="M 333.168 294.88 
L 333.168 6.845228 
" style="fill:none;stroke:#000000;stroke-linecap:square;stroke-linejoin:miter;stroke-width:0.8;"/>
   </g>
   <g id="patch_5">
    <path d="M 56.12 294.88 
L 333.168 294.88 
" style="fill:none;stroke:#000000;stroke-linecap:square;stroke-linejoin:miter;stroke-width:0.8;"/>
   </g>
   <g id="patch_6">
    <path d="M 56.12 6.845228 
L 333.168 6.845228 
" style="fill:none;stroke:#000000;stroke-linecap:square;stroke-linejoin:miter;stroke-width:0.8;"/>
   </g>
   <g id="text_13">
    <!-- f24 -->
    <g transform="translate(369.18424 293.867279)scale(0.17 -0.17)">
     <use xlink:href="#DejaVuSans-66"/>
     <use x="35.205078" xlink:href="#DejaVuSans-32"/>
     <use x="98.828125" xlink:href="#DejaVuSans-34"/>
    </g>
   </g>
   <g id="text_14">
    <!-- f20 -->
    <g transform="translate(369.18424 225.423372)scale(0.17 -0.17)">
     <use xlink:href="#DejaVuSans-66"/>
     <use x="35.205078" xlink:href="#DejaVuSans-32"/>
     <use x="98.828125" xlink:href="#DejaVuSans-30"/>
    </g>
   </g>
   <g id="text_15">
    <!-- f23 -->
    <defs>
     <path d="M 40.578125 39.3125 
Q 47.65625 37.796875 51.625 33 
Q 55.609375 28.21875 55.609375 21.1875 
Q 55.609375 10.40625 48.1875 4.484375 
Q 40.765625 -1.421875 27.09375 -1.421875 
Q 22.515625 -1.421875 17.65625 -0.515625 
Q 12.796875 0.390625 7.625 2.203125 
L 7.625 11.71875 
Q 11.71875 9.328125 16.59375 8.109375 
Q 21.484375 6.890625 26.8125 6.890625 
Q 36.078125 6.890625 40.9375 10.546875 
Q 45.796875 14.203125 45.796875 21.1875 
Q 45.796875 27.640625 41.28125 31.265625 
Q 36.765625 34.90625 28.71875 34.90625 
L 20.21875 34.90625 
L 20.21875 43.015625 
L 29.109375 43.015625 
Q 36.375 43.015625 40.234375 45.921875 
Q 44.09375 48.828125 44.09375 54.296875 
Q 44.09375 59.90625 40.109375 62.90625 
Q 36.140625 65.921875 28.71875 65.921875 
Q 24.65625 65.921875 20.015625 65.03125 
Q 15.375 64.15625 9.8125 62.3125 
L 9.8125 71.09375 
Q 15.4375 72.65625 20.34375 73.4375 
Q 25.25 74.21875 29.59375 74.21875 
Q 40.828125 74.21875 47.359375 69.109375 
Q 53.90625 64.015625 53.90625 55.328125 
Q 53.90625 49.265625 50.4375 45.09375 
Q 46.96875 40.921875 40.578125 39.3125 
z
" id="DejaVuSans-33"/>
    </defs>
    <g transform="translate(369.18424 156.979466)scale(0.17 -0.17)">
     <use xlink:href="#DejaVuSans-66"/>
     <use x="35.205078" xlink:href="#DejaVuSans-32"/>
     <use x="98.828125" xlink:href="#DejaVuSans-33"/>
    </g>
   </g>
   <g id="text_16">
    <!-- f22 -->
    <g transform="translate(369.18424 88.53556)scale(0.17 -0.17)">
     <use xlink:href="#DejaVuSans-66"/>
     <use x="35.205078" xlink:href="#DejaVuSans-32"/>
     <use x="98.828125" xlink:href="#DejaVuSans-32"/>
    </g>
   </g>
   <g id="text_17">
    <!-- f21 -->
    <g transform="translate(369.18424 20.091654)scale(0.17 -0.17)">
     <use xlink:href="#DejaVuSans-66"/>
     <use x="35.205078" xlink:href="#DejaVuSans-32"/>
     <use x="98.828125" xlink:href="#DejaVuSans-31"/>
    </g>
   </g>
   <g id="text_18">
    <!-- bbob -->
    <defs>
     <path d="M 48.6875 27.296875 
Q 48.6875 37.203125 44.609375 42.84375 
Q 40.53125 48.484375 33.40625 48.484375 
Q 26.265625 48.484375 22.1875 42.84375 
Q 18.109375 37.203125 18.109375 27.296875 
Q 18.109375 17.390625 22.1875 11.75 
Q 26.265625 6.109375 33.40625 6.109375 
Q 40.53125 6.109375 44.609375 11.75 
Q 48.6875 17.390625 48.6875 27.296875 
z
M 18.109375 46.390625 
Q 20.953125 51.265625 25.265625 53.625 
Q 29.59375 56 35.59375 56 
Q 45.5625 56 51.78125 48.09375 
Q 58.015625 40.1875 58.015625 27.296875 
Q 58.015625 14.40625 51.78125 6.484375 
Q 45.5625 -1.421875 35.59375 -1.421875 
Q 29.59375 -1.421875 25.265625 0.953125 
Q 20.953125 3.328125 18.109375 8.203125 
L 18.109375 0 
L 9.078125 0 
L 9.078125 75.984375 
L 18.109375 75.984375 
z
" id="DejaVuSans-62"/>
    </defs>
    <g transform="translate(58.89048 17.475982)scale(0.102 -0.102)">
     <use xlink:href="#DejaVuSans-62"/>
     <use x="63.476562" xlink:href="#DejaVuSans-62"/>
     <use x="126.953125" xlink:href="#DejaVuSans-6f"/>
     <use x="188.134766" xlink:href="#DejaVuSans-62"/>
    </g>
    <!-- Weak structure functions, 20-D -->
    <defs>
     <path d="M 3.328125 72.90625 
L 13.28125 72.90625 
L 28.609375 11.28125 
L 43.890625 72.90625 
L 54.984375 72.90625 
L 70.3125 11.28125 
L 85.59375 72.90625 
L 95.609375 72.90625 
L 77.296875 0 
L 64.890625 0 
L 49.515625 63.28125 
L 33.984375 0 
L 21.578125 0 
z
" id="DejaVuSans-57"/>
     <path d="M 9.078125 75.984375 
L 18.109375 75.984375 
L 18.109375 31.109375 
L 44.921875 54.6875 
L 56.390625 54.6875 
L 27.390625 29.109375 
L 57.625 0 
L 45.90625 0 
L 18.109375 26.703125 
L 18.109375 0 
L 9.078125 0 
z
" id="DejaVuSans-6b"/>
     <path d="M 19.671875 64.796875 
L 19.671875 8.109375 
L 31.59375 8.109375 
Q 46.6875 8.109375 53.6875 14.9375 
Q 60.6875 21.78125 60.6875 36.53125 
Q 60.6875 51.171875 53.6875 57.984375 
Q 46.6875 64.796875 31.59375 64.796875 
z
M 9.8125 72.90625 
L 30.078125 72.90625 
Q 51.265625 72.90625 61.171875 64.09375 
Q 71.09375 55.28125 71.09375 36.53125 
Q 71.09375 17.671875 61.125 8.828125 
Q 51.171875 0 30.078125 0 
L 9.8125 0 
z
" id="DejaVuSans-44"/>
    </defs>
    <g transform="translate(58.89048 28.89775)scale(0.102 -0.102)">
     <use xlink:href="#DejaVuSans-57"/>
     <use x="98.798828" xlink:href="#DejaVuSans-65"/>
     <use x="160.322266" xlink:href="#DejaVuSans-61"/>
     <use x="221.601562" xlink:href="#DejaVuSans-6b"/>
     <use x="279.511719" xlink:href="#DejaVuSans-20"/>
     <use x="311.298828" xlink:href="#DejaVuSans-73"/>
     <use x="363.398438" xlink:href="#DejaVuSans-74"/>
     <use x="402.607422" xlink:href="#DejaVuSans-72"/>
     <use x="443.720703" xlink:href="#DejaVuSans-75"/>
     <use x="507.099609" xlink:href="#DejaVuSans-63"/>
     <use x="562.080078" xlink:href="#DejaVuSans-74"/>
     <use x="601.289062" xlink:href="#DejaVuSans-75"/>
     <use x="664.667969" xlink:href="#DejaVuSans-72"/>
     <use x="705.75" xlink:href="#DejaVuSans-65"/>
     <use x="767.273438" xlink:href="#DejaVuSans-20"/>
     <use x="799.060547" xlink:href="#DejaVuSans-66"/>
     <use x="834.265625" xlink:href="#DejaVuSans-75"/>
     <use x="897.644531" xlink:href="#DejaVuSans-6e"/>
     <use x="961.023438" xlink:href="#DejaVuSans-63"/>
     <use x="1016.003906" xlink:href="#DejaVuSans-74"/>
     <use x="1055.212891" xlink:href="#DejaVuSans-69"/>
     <use x="1082.996094" xlink:href="#DejaVuSans-6f"/>
     <use x="1144.177734" xlink:href="#DejaVuSans-6e"/>
     <use x="1207.556641" xlink:href="#DejaVuSans-73"/>
     <use x="1259.65625" xlink:href="#DejaVuSans-2c"/>
     <use x="1291.443359" xlink:href="#DejaVuSans-20"/>
     <use x="1323.230469" xlink:href="#DejaVuSans-32"/>
     <use x="1386.853516" xlink:href="#DejaVuSans-30"/>
     <use x="1450.476562" xlink:href="#DejaVuSans-2d"/>
     <use x="1486.560547" xlink:href="#DejaVuSans-44"/>
    </g>
    <!-- 51 targets: 100..1e-08 -->
    <defs>
     <path d="M 10.796875 72.90625 
L 49.515625 72.90625 
L 49.515625 64.59375 
L 19.828125 64.59375 
L 19.828125 46.734375 
Q 21.96875 47.46875 24.109375 47.828125 
Q 26.265625 48.1875 28.421875 48.1875 
Q 40.625 48.1875 47.75 41.5 
Q 54.890625 34.8125 54.890625 23.390625 
Q 54.890625 11.625 47.5625 5.09375 
Q 40.234375 -1.421875 26.90625 -1.421875 
Q 22.3125 -1.421875 17.546875 -0.640625 
Q 12.796875 0.140625 7.71875 1.703125 
L 7.71875 11.625 
Q 12.109375 9.234375 16.796875 8.0625 
Q 21.484375 6.890625 26.703125 6.890625 
Q 35.15625 6.890625 40.078125 11.328125 
Q 45.015625 15.765625 45.015625 23.390625 
Q 45.015625 31 40.078125 35.4375 
Q 35.15625 39.890625 26.703125 39.890625 
Q 22.75 39.890625 18.8125 39.015625 
Q 14.890625 38.140625 10.796875 36.28125 
z
" id="DejaVuSans-35"/>
     <path d="M 11.71875 12.40625 
L 22.015625 12.40625 
L 22.015625 0 
L 11.71875 0 
z
M 11.71875 51.703125 
L 22.015625 51.703125 
L 22.015625 39.3125 
L 11.71875 39.3125 
z
" id="DejaVuSans-3a"/>
    </defs>
    <g transform="translate(58.89048 40.319519)scale(0.102 -0.102)">
     <use xlink:href="#DejaVuSans-35"/>
     <use x="63.623047" xlink:href="#DejaVuSans-31"/>
     <use x="127.246094" xlink:href="#DejaVuSans-20"/>
     <use x="159.033203" xlink:href="#DejaVuSans-74"/>
     <use x="198.242188" xlink:href="#DejaVuSans-61"/>
     <use x="259.521484" xlink:href="#DejaVuSans-72"/>
     <use x="300.619141" xlink:href="#DejaVuSans-67"/>
     <use x="364.095703" xlink:href="#DejaVuSans-65"/>
     <use x="425.619141" xlink:href="#DejaVuSans-74"/>
     <use x="464.828125" xlink:href="#DejaVuSans-73"/>
     <use x="516.927734" xlink:href="#DejaVuSans-3a"/>
     <use x="550.619141" xlink:href="#DejaVuSans-20"/>
     <use x="582.40625" xlink:href="#DejaVuSans-31"/>
     <use x="646.029297" xlink:href="#DejaVuSans-30"/>
     <use x="709.652344" xlink:href="#DejaVuSans-30"/>
     <use x="773.275391" xlink:href="#DejaVuSans-2e"/>
     <use x="805.0625" xlink:href="#DejaVuSans-2e"/>
     <use x="836.849609" xlink:href="#DejaVuSans-31"/>
     <use x="900.472656" xlink:href="#DejaVuSans-65"/>
     <use x="961.996094" xlink:href="#DejaVuSans-2d"/>
     <use x="998.080078" xlink:href="#DejaVuSans-30"/>
     <use x="1061.703125" xlink:href="#DejaVuSans-38"/>
    </g>
    <!-- 15 instances -->
    <g transform="translate(58.89048 51.741288)scale(0.102 -0.102)">
     <use xlink:href="#DejaVuSans-31"/>
     <use x="63.623047" xlink:href="#DejaVuSans-35"/>
     <use x="127.246094" xlink:href="#DejaVuSans-20"/>
     <use x="159.033203" xlink:href="#DejaVuSans-69"/>
     <use x="186.816406" xlink:href="#DejaVuSans-6e"/>
     <use x="250.195312" xlink:href="#DejaVuSans-73"/>
     <use x="302.294922" xlink:href="#DejaVuSans-74"/>
     <use x="341.503906" xlink:href="#DejaVuSans-61"/>
     <use x="402.783203" xlink:href="#DejaVuSans-6e"/>
     <use x="466.162109" xlink:href="#DejaVuSans-63"/>
     <use x="521.142578" xlink:href="#DejaVuSans-65"/>
     <use x="582.666016" xlink:href="#DejaVuSans-73"/>
    </g>
   </g>
   <g id="text_19">
    <!-- v2.4 -->
    <g style="fill:#808080;" transform="translate(183.733063 289.919965)scale(0.1 -0.1)">
     <use xlink:href="#DejaVuSans-76"/>
     <use x="59.179688" xlink:href="#DejaVuSans-32"/>
     <use x="122.802734" xlink:href="#DejaVuSans-2e"/>
     <use x="154.589844" xlink:href="#DejaVuSans-34"/>
    </g>
   </g>
  </g>
 </g>
 <defs>
  <clipPath id="p9bdd0fd4dc">
   <rect height="288.034772" width="277.048" x="56.12" y="6.845228"/>
  </clipPath>
 </defs>
</svg>
