<?xml version="1.0" encoding="utf-8" standalone="no"?>
<!DOCTYPE svg PUBLIC "-//W3C//DTD SVG 1.1//EN"
  "http://www.w3.org/Graphics/SVG/1.1/DTD/svg11.dtd">
<!-- Created with matplotlib (http://matplotlib.org/) -->
<svg height="345.6pt" version="1.1" viewBox="0 0 460.8 345.6" width="460.8pt" xmlns="http://www.w3.org/2000/svg" xmlns:xlink="http://www.w3.org/1999/xlink">
 <defs>
  <style type="text/css">
*{stroke-linecap:butt;stroke-linejoin:round;}
  </style>
 </defs>
 <g id="figure_1">
  <g id="patch_1">
   <path d="M 0 345.6 
L 460.8 345.6 
L 460.8 0 
L 0 0 
z
" style="fill:#ffffff;"/>
  </g>
  <g id="axes_1">
   <g id="patch_2">
    <path d="M 56.12 294.88 
L 333.168 294.88 
L 333.168 6.845228 
L 56.12 6.845228 
z
" style="fill:#ffffff;"/>
   </g>
   <g id="matplotlib.axis_1">
    <g id="xtick_1">
     <g id="line2d_1">
      <path clip-path="url(#pdf6a437bcc)" d="M 56.12 294.88 
L 56.12 6.845228 
" style="fill:none;stroke:#b0b0b0;stroke-linecap:square;stroke-width:0.8;"/>
     </g>
     <g id="line2d_2">
      <defs>
       <path d="M 0 0 
L 0 3.5 
" id="m10f1d3c721" style="stroke:#000000;stroke-width:0.8;"/>
      </defs>
      <g>
       <use style="stroke:#000000;stroke-width:0.8;" x="56.12" xlink:href="#m10f1d3c721" y="294.88"/>
      </g>
     </g>
     <g id="text_1">
      <!-- 0 -->
      <defs>
       <path d="M 31.78125 66.40625 
Q 24.171875 66.40625 20.328125 58.90625 
Q 16.5 51.421875 16.5 36.375 
Q 16.5 21.390625 20.328125 13.890625 
Q 24.171875 6.390625 31.78125 6.390625 
Q 39.453125 6.390625 43.28125 13.890625 
Q 47.125 21.390625 47.125 36.375 
Q 47.125 51.421875 43.28125 58.90625 
Q 39.453125 66.40625 31.78125 66.40625 
z
M 31.78125 74.21875 
Q 44.046875 74.21875 50.515625 64.515625 
Q 56.984375 54.828125 56.984375 36.375 
Q 56.984375 17.96875 50.515625 8.265625 
Q 44.046875 -1.421875 31.78125 -1.421875 
Q 19.53125 -1.421875 13.0625 8.265625 
Q 6.59375 17.96875 6.59375 36.375 
Q 6.59375 54.828125 13.0625 64.515625 
Q 19.53125 74.21875 31.78125 74.21875 
z
" id="DejaVuSans-30"/>
      </defs>
      <g transform="translate(49.7575 317.076875)scale(0.2 -0.2)">
       <use xlink:href="#DejaVuSans-30"/>
      </g>
     </g>
    </g>
    <g id="xtick_2">
     <g id="line2d_3">
      <path clip-path="url(#pdf6a437bcc)" d="M 135.276571 294.88 
L 135.276571 6.845228 
" style="fill:none;stroke:#b0b0b0;stroke-linecap:square;stroke-width:0.8;"/>
     </g>
     <g id="line2d_4">
      <g>
       <use style="stroke:#000000;stroke-width:0.8;" x="135.276571" xlink:href="#m10f1d3c721" y="294.88"/>
      </g>
     </g>
     <g id="text_2">
      <!-- 2 -->
      <defs>
       <path d="M 19.1875 8.296875 
L 53.609375 8.296875 
L 53.609375 0 
L 7.328125 0 
L 7.328125 8.296875 
Q 12.9375 14.109375 22.625 23.890625 
Q 32.328125 33.6875 34.8125 36.53125 
Q 39.546875 41.84375 41.421875 45.53125 
Q 43.3125 49.21875 43.3125 52.78125 
Q 43.3125 58.59375 39.234375 62.25 
Q 35.15625 65.921875 28.609375 65.921875 
Q 23.96875 65.921875 18.8125 64.3125 
Q 13.671875 62.703125 7.8125 59.421875 
L 7.8125 69.390625 
Q 13.765625 71.78125 18.9375 73 
Q 24.125 74.21875 28.421875 74.21875 
Q 39.75 74.21875 46.484375 68.546875 
Q 53.21875 62.890625 53.21875 53.421875 
Q 53.21875 48.921875 51.53125 44.890625 
Q 49.859375 40.875 45.40625 35.40625 
Q 44.1875 33.984375 37.640625 27.21875 
Q 31.109375 20.453125 19.1875 8.296875 
z
" id="DejaVuSans-32"/>
      </defs>
      <g transform="translate(128.914071 317.076875)scale(0.2 -0.2)">
       <use xlink:href="#DejaVuSans-32"/>
      </g>
     </g>
    </g>
    <g id="xtick_3">
     <g id="line2d_5">
      <path clip-path="url(#pdf6a437bcc)" d="M 214.433143 294.88 
L 214.433143 6.845228 
" style="fill:none;stroke:#b0b0b0;stroke-linecap:square;stroke-width:0.8;"/>
     </g>
     <g id="line2d_6">
      <g>
       <use style="stroke:#000000;stroke-width:0.8;" x="214.433143" xlink:href="#m10f1d3c721" y="294.88"/>
      </g>
     </g>
     <g id="text_3">
      <!-- 4 -->
      <defs>
       <path d="M 37.796875 64.3125 
L 12.890625 25.390625 
L 37.796875 25.390625 
z
M 35.203125 72.90625 
L 47.609375 72.90625 
L 47.609375 25.390625 
L 58.015625 25.390625 
L 58.015625 17.1875 
L 47.609375 17.1875 
L 47.609375 0 
L 37.796875 0 
L 37.796875 17.1875 
L 4.890625 17.1875 
L 4.890625 26.703125 
z
" id="DejaVuSans-34"/>
      </defs>
      <g transform="translate(208.070643 317.076875)scale(0.2 -0.2)">
       <use xlink:href="#DejaVuSans-34"/>
      </g>
     </g>
    </g>
    <g id="xtick_4">
     <g id="line2d_7">
      <path clip-path="url(#pdf6a437bcc)" d="M 293.589714 294.88 
L 293.589714 6.845228 
" style="fill:none;stroke:#b0b0b0;stroke-linecap:square;stroke-width:0.8;"/>
     </g>
     <g id="line2d_8">
      <g>
       <use style="stroke:#000000;stroke-width:0.8;" x="293.589714" xlink:href="#m10f1d3c721" y="294.88"/>
      </g>
     </g>
     <g id="text_4">
      <!-- 6 -->
      <defs>
       <path d="M 33.015625 40.375 
Q 26.375 40.375 22.484375 35.828125 
Q 18.609375 31.296875 18.609375 23.390625 
Q 18.609375 15.53125 22.484375 10.953125 
Q 26.375 6.390625 33.015625 6.390625 
Q 39.65625 6.390625 43.53125 10.953125 
Q 47.40625 15.53125 47.40625 23.390625 
Q 47.40625 31.296875 43.53125 35.828125 
Q 39.65625 40.375 33.015625 40.375 
z
M 52.59375 71.296875 
L 52.59375 62.3125 
Q 48.875 64.0625 45.09375 64.984375 
Q 41.3125 65.921875 37.59375 65.921875 
Q 27.828125 65.921875 22.671875 59.328125 
Q 17.53125 52.734375 16.796875 39.40625 
Q 19.671875 43.65625 24.015625 45.921875 
Q 28.375 48.1875 33.59375 48.1875 
Q 44.578125 48.1875 50.953125 41.515625 
Q 57.328125 34.859375 57.328125 23.390625 
Q 57.328125 12.15625 50.6875 5.359375 
Q 44.046875 -1.421875 33.015625 -1.421875 
Q 20.359375 -1.421875 13.671875 8.265625 
Q 6.984375 17.96875 6.984375 36.375 
Q 6.984375 53.65625 15.1875 63.9375 
Q 23.390625 74.21875 37.203125 74.21875 
Q 40.921875 74.21875 44.703125 73.484375 
Q 48.484375 72.75 52.59375 71.296875 
z
" id="DejaVuSans-36"/>
      </defs>
      <g transform="translate(287.227214 317.076875)scale(0.2 -0.2)">
       <use xlink:href="#DejaVuSans-36"/>
      </g>
     </g>
    </g>
    <g id="xtick_5">
     <g id="line2d_9">
      <path clip-path="url(#pdf6a437bcc)" d="M 56.12 294.88 
L 56.12 6.845228 
" style="fill:none;stroke:#b0b0b0;stroke-linecap:square;stroke-width:0.8;"/>
     </g>
     <g id="line2d_10">
      <defs>
       <path d="M 0 0 
L 0 2 
" id="m19b48c6121" style="stroke:#000000;stroke-width:0.6;"/>
      </defs>
      <g>
       <use style="stroke:#000000;stroke-width:0.6;" x="56.12" xlink:href="#m19b48c6121" y="294.88"/>
      </g>
     </g>
    </g>
    <g id="xtick_6">
     <g id="line2d_11">
      <path clip-path="url(#pdf6a437bcc)" d="M 95.698286 294.88 
L 95.698286 6.845228 
" style="fill:none;stroke:#b0b0b0;stroke-linecap:square;stroke-width:0.8;"/>
     </g>
     <g id="line2d_12">
      <g>
       <use style="stroke:#000000;stroke-width:0.6;" x="95.698286" xlink:href="#m19b48c6121" y="294.88"/>
      </g>
     </g>
    </g>
    <g id="xtick_7">
     <g id="line2d_13">
      <path clip-path="url(#pdf6a437bcc)" d="M 135.276571 294.88 
L 135.276571 6.845228 
" style="fill:none;stroke:#b0b0b0;stroke-linecap:square;stroke-width:0.8;"/>
     </g>
     <g id="line2d_14">
      <g>
       <use style="stroke:#000000;stroke-width:0.6;" x="135.276571" xlink:href="#m19b48c6121" y="294.88"/>
      </g>
     </g>
    </g>
    <g id="xtick_8">
     <g id="line2d_15">
      <path clip-path="url(#pdf6a437bcc)" d="M 174.854857 294.88 
L 174.854857 6.845228 
" style="fill:none;stroke:#b0b0b0;stroke-linecap:square;stroke-width:0.8;"/>
     </g>
     <g id="line2d_16">
      <g>
       <use style="stroke:#000000;stroke-width:0.6;" x="174.854857" xlink:href="#m19b48c6121" y="294.88"/>
      </g>
     </g>
    </g>
    <g id="xtick_9">
     <g id="line2d_17">
      <path clip-path="url(#pdf6a437bcc)" d="M 214.433143 294.88 
L 214.433143 6.845228 
" style="fill:none;stroke:#b0b0b0;stroke-linecap:square;stroke-width:0.8;"/>
     </g>
     <g id="line2d_18">
      <g>
       <use style="stroke:#000000;stroke-width:0.6;" x="214.433143" xlink:href="#m19b48c6121" y="294.88"/>
      </g>
     </g>
    </g>
    <g id="xtick_10">
     <g id="line2d_19">
      <path clip-path="url(#pdf6a437bcc)" d="M 254.011429 294.88 
L 254.011429 6.845228 
" style="fill:none;stroke:#b0b0b0;stroke-linecap:square;stroke-width:0.8;"/>
     </g>
     <g id="line2d_20">
      <g>
       <use style="stroke:#000000;stroke-width:0.6;" x="254.011429" xlink:href="#m19b48c6121" y="294.88"/>
      </g>
     </g>
    </g>
    <g id="xtick_11">
     <g id="line2d_21">
      <path clip-path="url(#pdf6a437bcc)" d="M 293.589714 294.88 
L 293.589714 6.845228 
" style="fill:none;stroke:#b0b0b0;stroke-linecap:square;stroke-width:0.8;"/>
     </g>
     <g id="line2d_22">
      <g>
       <use style="stroke:#000000;stroke-width:0.6;" x="293.589714" xlink:href="#m19b48c6121" y="294.88"/>
      </g>
     </g>
    </g>
    <g id="xtick_12">
     <g id="line2d_23">
      <path clip-path="url(#pdf6a437bcc)" d="M 333.168 294.88 
L 333.168 6.845228 
" style="fill:none;stroke:#b0b0b0;stroke-linecap:square;stroke-width:0.8;"/>
     </g>
     <g id="line2d_24">
      <g>
       <use style="stroke:#000000;stroke-width:0.6;" x="333.168" xlink:href="#m19b48c6121" y="294.88"/>
      </g>
     </g>
    </g>
    <g id="text_5">
     <!-- log10(# f-evals / dimension) -->
     <defs>
      <path d="M 9.421875 75.984375 
L 18.40625 75.984375 
L 18.40625 0 
L 9.421875 0 
z
" id="DejaVuSans-6c"/>
      <path d="M 30.609375 48.390625 
Q 23.390625 48.390625 19.1875 42.75 
Q 14.984375 37.109375 14.984375 27.296875 
Q 14.984375 17.484375 19.15625 11.84375 
Q 23.34375 6.203125 30.609375 6.203125 
Q 37.796875 6.203125 41.984375 11.859375 
Q 46.1875 17.53125 46.1875 27.296875 
Q 46.1875 37.015625 41.984375 42.703125 
Q 37.796875 48.390625 30.609375 48.390625 
z
M 30.609375 56 
Q 42.328125 56 49.015625 48.375 
Q 55.71875 40.765625 55.71875 27.296875 
Q 55.71875 13.875 49.015625 6.21875 
Q 42.328125 -1.421875 30.609375 -1.421875 
Q 18.84375 -1.421875 12.171875 6.21875 
Q 5.515625 13.875 5.515625 27.296875 
Q 5.515625 40.765625 12.171875 48.375 
Q 18.84375 56 30.609375 56 
z
" id="DejaVuSans-6f"/>
      <path d="M 45.40625 27.984375 
Q 45.40625 37.75 41.375 43.109375 
Q 37.359375 48.484375 30.078125 48.484375 
Q 22.859375 48.484375 18.828125 43.109375 
Q 14.796875 37.75 14.796875 27.984375 
Q 14.796875 18.265625 18.828125 12.890625 
Q 22.859375 7.515625 30.078125 7.515625 
Q 37.359375 7.515625 41.375 12.890625 
Q 45.40625 18.265625 45.40625 27.984375 
z
M 54.390625 6.78125 
Q 54.390625 -7.171875 48.1875 -13.984375 
Q 42 -20.796875 29.203125 -20.796875 
Q 24.46875 -20.796875 20.265625 -20.09375 
Q 16.0625 -19.390625 12.109375 -17.921875 
L 12.109375 -9.1875 
Q 16.0625 -11.328125 19.921875 -12.34375 
Q 23.78125 -13.375 27.78125 -13.375 
Q 36.625 -13.375 41.015625 -8.765625 
Q 45.40625 -4.15625 45.40625 5.171875 
L 45.40625 9.625 
Q 42.625 4.78125 38.28125 2.390625 
Q 33.9375 0 27.875 0 
Q 17.828125 0 11.671875 7.65625 
Q 5.515625 15.328125 5.515625 27.984375 
Q 5.515625 40.671875 11.671875 48.328125 
Q 17.828125 56 27.875 56 
Q 33.9375 56 38.28125 53.609375 
Q 42.625 51.21875 45.40625 46.390625 
L 45.40625 54.6875 
L 54.390625 54.6875 
z
" id="DejaVuSans-67"/>
      <path d="M 12.40625 8.296875 
L 28.515625 8.296875 
L 28.515625 63.921875 
L 10.984375 60.40625 
L 10.984375 69.390625 
L 28.421875 72.90625 
L 38.28125 72.90625 
L 38.28125 8.296875 
L 54.390625 8.296875 
L 54.390625 0 
L 12.40625 0 
z
" id="DejaVuSans-31"/>
      <path d="M 31 75.875 
Q 24.46875 64.65625 21.28125 53.65625 
Q 18.109375 42.671875 18.109375 31.390625 
Q 18.109375 20.125 21.3125 9.0625 
Q 24.515625 -2 31 -13.1875 
L 23.1875 -13.1875 
Q 15.875 -1.703125 12.234375 9.375 
Q 8.59375 20.453125 8.59375 31.390625 
Q 8.59375 42.28125 12.203125 53.3125 
Q 15.828125 64.359375 23.1875 75.875 
z
" id="DejaVuSans-28"/>
      <path d="M 51.125 44 
L 36.921875 44 
L 32.8125 27.6875 
L 47.125 27.6875 
z
M 43.796875 71.78125 
L 38.71875 51.515625 
L 52.984375 51.515625 
L 58.109375 71.78125 
L 65.921875 71.78125 
L 60.890625 51.515625 
L 76.125 51.515625 
L 76.125 44 
L 58.984375 44 
L 54.984375 27.6875 
L 70.515625 27.6875 
L 70.515625 20.21875 
L 53.078125 20.21875 
L 48 0 
L 40.1875 0 
L 45.21875 20.21875 
L 30.90625 20.21875 
L 25.875 0 
L 18.015625 0 
L 23.09375 20.21875 
L 7.71875 20.21875 
L 7.71875 27.6875 
L 24.90625 27.6875 
L 29 44 
L 13.28125 44 
L 13.28125 51.515625 
L 30.90625 51.515625 
L 35.890625 71.78125 
z
" id="DejaVuSans-23"/>
      <path id="DejaVuSans-20"/>
      <path d="M 37.109375 75.984375 
L 37.109375 68.5 
L 28.515625 68.5 
Q 23.6875 68.5 21.796875 66.546875 
Q 19.921875 64.59375 19.921875 59.515625 
L 19.921875 54.6875 
L 34.71875 54.6875 
L 34.71875 47.703125 
L 19.921875 47.703125 
L 19.921875 0 
L 10.890625 0 
L 10.890625 47.703125 
L 2.296875 47.703125 
L 2.296875 54.6875 
L 10.890625 54.6875 
L 10.890625 58.5 
Q 10.890625 67.625 15.140625 71.796875 
Q 19.390625 75.984375 28.609375 75.984375 
z
" id="DejaVuSans-66"/>
      <path d="M 4.890625 31.390625 
L 31.203125 31.390625 
L 31.203125 23.390625 
L 4.890625 23.390625 
z
" id="DejaVuSans-2d"/>
      <path d="M 56.203125 29.59375 
L 56.203125 25.203125 
L 14.890625 25.203125 
Q 15.484375 15.921875 20.484375 11.0625 
Q 25.484375 6.203125 34.421875 6.203125 
Q 39.59375 6.203125 44.453125 7.46875 
Q 49.3125 8.734375 54.109375 11.28125 
L 54.109375 2.78125 
Q 49.265625 0.734375 44.1875 -0.34375 
Q 39.109375 -1.421875 33.890625 -1.421875 
Q 20.796875 -1.421875 13.15625 6.1875 
Q 5.515625 13.8125 5.515625 26.8125 
Q 5.515625 40.234375 12.765625 48.109375 
Q 20.015625 56 32.328125 56 
Q 43.359375 56 49.78125 48.890625 
Q 56.203125 41.796875 56.203125 29.59375 
z
M 47.21875 32.234375 
Q 47.125 39.59375 43.09375 43.984375 
Q 39.0625 48.390625 32.421875 48.390625 
Q 24.90625 48.390625 20.390625 44.140625 
Q 15.875 39.890625 15.1875 32.171875 
z
" id="DejaVuSans-65"/>
      <path d="M 2.984375 54.6875 
L 12.5 54.6875 
L 29.59375 8.796875 
L 46.6875 54.6875 
L 56.203125 54.6875 
L 35.6875 0 
L 23.484375 0 
z
" id="DejaVuSans-76"/>
      <path d="M 34.28125 27.484375 
Q 23.390625 27.484375 19.1875 25 
Q 14.984375 22.515625 14.984375 16.5 
Q 14.984375 11.71875 18.140625 8.90625 
Q 21.296875 6.109375 26.703125 6.109375 
Q 34.1875 6.109375 38.703125 11.40625 
Q 43.21875 16.703125 43.21875 25.484375 
L 43.21875 27.484375 
z
M 52.203125 31.203125 
L 52.203125 0 
L 43.21875 0 
L 43.21875 8.296875 
Q 40.140625 3.328125 35.546875 0.953125 
Q 30.953125 -1.421875 24.3125 -1.421875 
Q 15.921875 -1.421875 10.953125 3.296875 
Q 6 8.015625 6 15.921875 
Q 6 25.140625 12.171875 29.828125 
Q 18.359375 34.515625 30.609375 34.515625 
L 43.21875 34.515625 
L 43.21875 35.40625 
Q 43.21875 41.609375 39.140625 45 
Q 35.0625 48.390625 27.6875 48.390625 
Q 23 48.390625 18.546875 47.265625 
Q 14.109375 46.140625 10.015625 43.890625 
L 10.015625 52.203125 
Q 14.9375 54.109375 19.578125 55.046875 
Q 24.21875 56 28.609375 56 
Q 40.484375 56 46.34375 49.84375 
Q 52.203125 43.703125 52.203125 31.203125 
z
" id="DejaVuSans-61"/>
      <path d="M 44.28125 53.078125 
L 44.28125 44.578125 
Q 40.484375 46.53125 36.375 47.5 
Q 32.28125 48.484375 27.875 48.484375 
Q 21.1875 48.484375 17.84375 46.4375 
Q 14.5 44.390625 14.5 40.28125 
Q 14.5 37.15625 16.890625 35.375 
Q 19.28125 33.59375 26.515625 31.984375 
L 29.59375 31.296875 
Q 39.15625 29.25 43.1875 25.515625 
Q 47.21875 21.78125 47.21875 15.09375 
Q 47.21875 7.46875 41.1875 3.015625 
Q 35.15625 -1.421875 24.609375 -1.421875 
Q 20.21875 -1.421875 15.453125 -0.5625 
Q 10.6875 0.296875 5.421875 2 
L 5.421875 11.28125 
Q 10.40625 8.6875 15.234375 7.390625 
Q 20.0625 6.109375 24.8125 6.109375 
Q 31.15625 6.109375 34.5625 8.28125 
Q 37.984375 10.453125 37.984375 14.40625 
Q 37.984375 18.0625 35.515625 20.015625 
Q 33.0625 21.96875 24.703125 23.78125 
L 21.578125 24.515625 
Q 13.234375 26.265625 9.515625 29.90625 
Q 5.8125 33.546875 5.8125 39.890625 
Q 5.8125 47.609375 11.28125 51.796875 
Q 16.75 56 26.8125 56 
Q 31.78125 56 36.171875 55.265625 
Q 40.578125 54.546875 44.28125 53.078125 
z
" id="DejaVuSans-73"/>
      <path d="M 25.390625 72.90625 
L 33.6875 72.90625 
L 8.296875 -9.28125 
L 0 -9.28125 
z
" id="DejaVuSans-2f"/>
      <path d="M 45.40625 46.390625 
L 45.40625 75.984375 
L 54.390625 75.984375 
L 54.390625 0 
L 45.40625 0 
L 45.40625 8.203125 
Q 42.578125 3.328125 38.25 0.953125 
Q 33.9375 -1.421875 27.875 -1.421875 
Q 17.96875 -1.421875 11.734375 6.484375 
Q 5.515625 14.40625 5.515625 27.296875 
Q 5.515625 40.1875 11.734375 48.09375 
Q 17.96875 56 27.875 56 
Q 33.9375 56 38.25 53.625 
Q 42.578125 51.265625 45.40625 46.390625 
z
M 14.796875 27.296875 
Q 14.796875 17.390625 18.875 11.75 
Q 22.953125 6.109375 30.078125 6.109375 
Q 37.203125 6.109375 41.296875 11.75 
Q 45.40625 17.390625 45.40625 27.296875 
Q 45.40625 37.203125 41.296875 42.84375 
Q 37.203125 48.484375 30.078125 48.484375 
Q 22.953125 48.484375 18.875 42.84375 
Q 14.796875 37.203125 14.796875 27.296875 
z
" id="DejaVuSans-64"/>
      <path d="M 9.421875 54.6875 
L 18.40625 54.6875 
L 18.40625 0 
L 9.421875 0 
z
M 9.421875 75.984375 
L 18.40625 75.984375 
L 18.40625 64.59375 
L 9.421875 64.59375 
z
" id="DejaVuSans-69"/>
      <path d="M 52 44.1875 
Q 55.375 50.25 60.0625 53.125 
Q 64.75 56 71.09375 56 
Q 79.640625 56 84.28125 50.015625 
Q 88.921875 44.046875 88.921875 33.015625 
L 88.921875 0 
L 79.890625 0 
L 79.890625 32.71875 
Q 79.890625 40.578125 77.09375 44.375 
Q 74.3125 48.1875 68.609375 48.1875 
Q 61.625 48.1875 57.5625 43.546875 
Q 53.515625 38.921875 53.515625 30.90625 
L 53.515625 0 
L 44.484375 0 
L 44.484375 32.71875 
Q 44.484375 40.625 41.703125 44.40625 
Q 38.921875 48.1875 33.109375 48.1875 
Q 26.21875 48.1875 22.15625 43.53125 
Q 18.109375 38.875 18.109375 30.90625 
L 18.109375 0 
L 9.078125 0 
L 9.078125 54.6875 
L 18.109375 54.6875 
L 18.109375 46.1875 
Q 21.1875 51.21875 25.484375 53.609375 
Q 29.78125 56 35.6875 56 
Q 41.65625 56 45.828125 52.96875 
Q 50 49.953125 52 44.1875 
z
" id="DejaVuSans-6d"/>
      <path d="M 54.890625 33.015625 
L 54.890625 0 
L 45.90625 0 
L 45.90625 32.71875 
Q 45.90625 40.484375 42.875 44.328125 
Q 39.84375 48.1875 33.796875 48.1875 
Q 26.515625 48.1875 22.3125 43.546875 
Q 18.109375 38.921875 18.109375 30.90625 
L 18.109375 0 
L 9.078125 0 
L 9.078125 54.6875 
L 18.109375 54.6875 
L 18.109375 46.1875 
Q 21.34375 51.125 25.703125 53.5625 
Q 30.078125 56 35.796875 56 
Q 45.21875 56 50.046875 50.171875 
Q 54.890625 44.34375 54.890625 33.015625 
z
" id="DejaVuSans-6e"/>
      <path d="M 8.015625 75.875 
L 15.828125 75.875 
Q 23.140625 64.359375 26.78125 53.3125 
Q 30.421875 42.28125 30.421875 31.390625 
Q 30.421875 20.453125 26.78125 9.375 
Q 23.140625 -1.703125 15.828125 -13.1875 
L 8.015625 -13.1875 
Q 14.5 -2 17.703125 9.0625 
Q 20.90625 20.125 20.90625 31.390625 
Q 20.90625 42.671875 17.703125 53.65625 
Q 14.5 64.65625 8.015625 75.875 
z
" id="DejaVuSans-29"/>
     </defs>
     <g transform="translate(73.803219 338.153594)scale(0.17 -0.17)">
      <use xlink:href="#DejaVuSans-6c"/>
      <use x="27.783203" xlink:href="#DejaVuSans-6f"/>
      <use x="88.964844" xlink:href="#DejaVuSans-67"/>
      <use x="152.441406" xlink:href="#DejaVuSans-31"/>
      <use x="216.064453" xlink:href="#DejaVuSans-30"/>
      <use x="279.6875" xlink:href="#DejaVuSans-28"/>
      <use x="318.701172" xlink:href="#DejaVuSans-23"/>
      <use x="402.490234" xlink:href="#DejaVuSans-20"/>
      <use x="434.277344" xlink:href="#DejaVuSans-66"/>
      <use x="469.404297" xlink:href="#DejaVuSans-2d"/>
      <use x="505.488281" xlink:href="#DejaVuSans-65"/>
      <use x="567.011719" xlink:href="#DejaVuSans-76"/>
      <use x="626.191406" xlink:href="#DejaVuSans-61"/>
      <use x="687.470703" xlink:href="#DejaVuSans-6c"/>
      <use x="715.253906" xlink:href="#DejaVuSans-73"/>
      <use x="767.353516" xlink:href="#DejaVuSans-20"/>
      <use x="799.140625" xlink:href="#DejaVuSans-2f"/>
      <use x="832.832031" xlink:href="#DejaVuSans-20"/>
      <use x="864.619141" xlink:href="#DejaVuSans-64"/>
      <use x="928.095703" xlink:href="#DejaVuSans-69"/>
      <use x="955.878906" xlink:href="#DejaVuSans-6d"/>
      <use x="1053.291016" xlink:href="#DejaVuSans-65"/>
      <use x="1114.814453" xlink:href="#DejaVuSans-6e"/>
      <use x="1178.193359" xlink:href="#DejaVuSans-73"/>
      <use x="1230.292969" xlink:href="#DejaVuSans-69"/>
      <use x="1258.076172" xlink:href="#DejaVuSans-6f"/>
      <use x="1319.257812" xlink:href="#DejaVuSans-6e"/>
      <use x="1382.636719" xlink:href="#DejaVuSans-29"/>
     </g>
    </g>
   </g>
   <g id="matplotlib.axis_2">
    <g id="ytick_1">
     <g id="line2d_25">
      <path clip-path="url(#pdf6a437bcc)" d="M 56.12 294.88 
L 333.168 294.88 
" style="fill:none;stroke:#b0b0b0;stroke-linecap:square;stroke-width:0.8;"/>
     </g>
     <g id="line2d_26">
      <defs>
       <path d="M 0 0 
L -3.5 0 
" id="m7e7daf0e66" style="stroke:#000000;stroke-width:0.8;"/>
      </defs>
      <g>
       <use style="stroke:#000000;stroke-width:0.8;" x="56.12" xlink:href="#m7e7daf0e66" y="294.88"/>
      </g>
     </g>
     <g id="text_6">
      <!-- 0.0 -->
      <defs>
       <path d="M 10.6875 12.40625 
L 21 12.40625 
L 21 0 
L 10.6875 0 
z
" id="DejaVuSans-2e"/>
      </defs>
      <g transform="translate(23.675 300.95875)scale(0.16 -0.16)">
       <use xlink:href="#DejaVuSans-30"/>
       <use x="63.623047" xlink:href="#DejaVuSans-2e"/>
       <use x="95.410156" xlink:href="#DejaVuSans-30"/>
      </g>
     </g>
    </g>
    <g id="ytick_2">
     <g id="line2d_27">
      <path clip-path="url(#pdf6a437bcc)" d="M 56.12 237.843411 
L 333.168 237.843411 
" style="fill:none;stroke:#b0b0b0;stroke-linecap:square;stroke-width:0.8;"/>
     </g>
     <g id="line2d_28">
      <g>
       <use style="stroke:#000000;stroke-width:0.8;" x="56.12" xlink:href="#m7e7daf0e66" y="237.843411"/>
      </g>
     </g>
     <g id="text_7">
      <!-- 0.2 -->
      <g transform="translate(23.675 243.922161)scale(0.16 -0.16)">
       <use xlink:href="#DejaVuSans-30"/>
       <use x="63.623047" xlink:href="#DejaVuSans-2e"/>
       <use x="95.410156" xlink:href="#DejaVuSans-32"/>
      </g>
     </g>
    </g>
    <g id="ytick_3">
     <g id="line2d_29">
      <path clip-path="url(#pdf6a437bcc)" d="M 56.12 180.806823 
L 333.168 180.806823 
" style="fill:none;stroke:#b0b0b0;stroke-linecap:square;stroke-width:0.8;"/>
     </g>
     <g id="line2d_30">
      <g>
       <use style="stroke:#000000;stroke-width:0.8;" x="56.12" xlink:href="#m7e7daf0e66" y="180.806823"/>
      </g>
     </g>
     <g id="text_8">
      <!-- 0.4 -->
      <g transform="translate(23.675 186.885573)scale(0.16 -0.16)">
       <use xlink:href="#DejaVuSans-30"/>
       <use x="63.623047" xlink:href="#DejaVuSans-2e"/>
       <use x="95.410156" xlink:href="#DejaVuSans-34"/>
      </g>
     </g>
    </g>
    <g id="ytick_4">
     <g id="line2d_31">
      <path clip-path="url(#pdf6a437bcc)" d="M 56.12 123.770234 
L 333.168 123.770234 
" style="fill:none;stroke:#b0b0b0;stroke-linecap:square;stroke-width:0.8;"/>
     </g>
     <g id="line2d_32">
      <g>
       <use style="stroke:#000000;stroke-width:0.8;" x="56.12" xlink:href="#m7e7daf0e66" y="123.770234"/>
      </g>
     </g>
     <g id="text_9">
      <!-- 0.6 -->
      <g transform="translate(23.675 129.848984)scale(0.16 -0.16)">
       <use xlink:href="#DejaVuSans-30"/>
       <use x="63.623047" xlink:href="#DejaVuSans-2e"/>
       <use x="95.410156" xlink:href="#DejaVuSans-36"/>
      </g>
     </g>
    </g>
    <g id="ytick_5">
     <g id="line2d_33">
      <path clip-path="url(#pdf6a437bcc)" d="M 56.12 66.733646 
L 333.168 66.733646 
" style="fill:none;stroke:#b0b0b0;stroke-linecap:square;stroke-width:0.8;"/>
     </g>
     <g id="line2d_34">
      <g>
       <use style="stroke:#000000;stroke-width:0.8;" x="56.12" xlink:href="#m7e7daf0e66" y="66.733646"/>
      </g>
     </g>
     <g id="text_10">
      <!-- 0.8 -->
      <defs>
       <path d="M 31.78125 34.625 
Q 24.75 34.625 20.71875 30.859375 
Q 16.703125 27.09375 16.703125 20.515625 
Q 16.703125 13.921875 20.71875 10.15625 
Q 24.75 6.390625 31.78125 6.390625 
Q 38.8125 6.390625 42.859375 10.171875 
Q 46.921875 13.96875 46.921875 20.515625 
Q 46.921875 27.09375 42.890625 30.859375 
Q 38.875 34.625 31.78125 34.625 
z
M 21.921875 38.8125 
Q 15.578125 40.375 12.03125 44.71875 
Q 8.5 49.078125 8.5 55.328125 
Q 8.5 64.0625 14.71875 69.140625 
Q 20.953125 74.21875 31.78125 74.21875 
Q 42.671875 74.21875 48.875 69.140625 
Q 55.078125 64.0625 55.078125 55.328125 
Q 55.078125 49.078125 51.53125 44.71875 
Q 48 40.375 41.703125 38.8125 
Q 48.828125 37.15625 52.796875 32.3125 
Q 56.78125 27.484375 56.78125 20.515625 
Q 56.78125 9.90625 50.3125 4.234375 
Q 43.84375 -1.421875 31.78125 -1.421875 
Q 19.734375 -1.421875 13.25 4.234375 
Q 6.78125 9.90625 6.78125 20.515625 
Q 6.78125 27.484375 10.78125 32.3125 
Q 14.796875 37.15625 21.921875 38.8125 
z
M 18.3125 54.390625 
Q 18.3125 48.734375 21.84375 45.5625 
Q 25.390625 42.390625 31.78125 42.390625 
Q 38.140625 42.390625 41.71875 45.5625 
Q 45.3125 48.734375 45.3125 54.390625 
Q 45.3125 60.0625 41.71875 63.234375 
Q 38.140625 66.40625 31.78125 66.40625 
Q 25.390625 66.40625 21.84375 63.234375 
Q 18.3125 60.0625 18.3125 54.390625 
z
" id="DejaVuSans-38"/>
      </defs>
      <g transform="translate(23.675 72.812396)scale(0.16 -0.16)">
       <use xlink:href="#DejaVuSans-30"/>
       <use x="63.623047" xlink:href="#DejaVuSans-2e"/>
       <use x="95.410156" xlink:href="#DejaVuSans-38"/>
      </g>
     </g>
    </g>
    <g id="ytick_6">
     <g id="line2d_35">
      <path clip-path="url(#pdf6a437bcc)" d="M 56.12 9.697057 
L 333.168 9.697057 
" style="fill:none;stroke:#b0b0b0;stroke-linecap:square;stroke-width:0.8;"/>
     </g>
     <g id="line2d_36">
      <g>
       <use style="stroke:#000000;stroke-width:0.8;" x="56.12" xlink:href="#m7e7daf0e66" y="9.697057"/>
      </g>
     </g>
     <g id="text_11">
      <!-- 1.0 -->
      <g transform="translate(23.675 15.775807)scale(0.16 -0.16)">
       <use xlink:href="#DejaVuSans-31"/>
       <use x="63.623047" xlink:href="#DejaVuSans-2e"/>
       <use x="95.410156" xlink:href="#DejaVuSans-30"/>
      </g>
     </g>
    </g>
    <g id="text_12">
     <!-- Fraction of function,target pairs -->
     <defs>
      <path d="M 9.8125 72.90625 
L 51.703125 72.90625 
L 51.703125 64.59375 
L 19.671875 64.59375 
L 19.671875 43.109375 
L 48.578125 43.109375 
L 48.578125 34.8125 
L 19.671875 34.8125 
L 19.671875 0 
L 9.8125 0 
z
" id="DejaVuSans-46"/>
      <path d="M 41.109375 46.296875 
Q 39.59375 47.171875 37.8125 47.578125 
Q 36.03125 48 33.890625 48 
Q 26.265625 48 22.1875 43.046875 
Q 18.109375 38.09375 18.109375 28.8125 
L 18.109375 0 
L 9.078125 0 
L 9.078125 54.6875 
L 18.109375 54.6875 
L 18.109375 46.1875 
Q 20.953125 51.171875 25.484375 53.578125 
Q 30.03125 56 36.53125 56 
Q 37.453125 56 38.578125 55.875 
Q 39.703125 55.765625 41.0625 55.515625 
z
" id="DejaVuSans-72"/>
      <path d="M 48.78125 52.59375 
L 48.78125 44.1875 
Q 44.96875 46.296875 41.140625 47.34375 
Q 37.3125 48.390625 33.40625 48.390625 
Q 24.65625 48.390625 19.8125 42.84375 
Q 14.984375 37.3125 14.984375 27.296875 
Q 14.984375 17.28125 19.8125 11.734375 
Q 24.65625 6.203125 33.40625 6.203125 
Q 37.3125 6.203125 41.140625 7.25 
Q 44.96875 8.296875 48.78125 10.40625 
L 48.78125 2.09375 
Q 45.015625 0.34375 40.984375 -0.53125 
Q 36.96875 -1.421875 32.421875 -1.421875 
Q 20.0625 -1.421875 12.78125 6.34375 
Q 5.515625 14.109375 5.515625 27.296875 
Q 5.515625 40.671875 12.859375 48.328125 
Q 20.21875 56 33.015625 56 
Q 37.15625 56 41.109375 55.140625 
Q 45.0625 54.296875 48.78125 52.59375 
z
" id="DejaVuSans-63"/>
      <path d="M 18.3125 70.21875 
L 18.3125 54.6875 
L 36.8125 54.6875 
L 36.8125 47.703125 
L 18.3125 47.703125 
L 18.3125 18.015625 
Q 18.3125 11.328125 20.140625 9.421875 
Q 21.96875 7.515625 27.59375 7.515625 
L 36.8125 7.515625 
L 36.8125 0 
L 27.59375 0 
Q 17.1875 0 13.234375 3.875 
Q 9.28125 7.765625 9.28125 18.015625 
L 9.28125 47.703125 
L 2.6875 47.703125 
L 2.6875 54.6875 
L 9.28125 54.6875 
L 9.28125 70.21875 
z
" id="DejaVuSans-74"/>
      <path d="M 8.5 21.578125 
L 8.5 54.6875 
L 17.484375 54.6875 
L 17.484375 21.921875 
Q 17.484375 14.15625 20.5 10.265625 
Q 23.53125 6.390625 29.59375 6.390625 
Q 36.859375 6.390625 41.078125 11.03125 
Q 45.3125 15.671875 45.3125 23.6875 
L 45.3125 54.6875 
L 54.296875 54.6875 
L 54.296875 0 
L 45.3125 0 
L 45.3125 8.40625 
Q 42.046875 3.421875 37.71875 1 
Q 33.40625 -1.421875 27.6875 -1.421875 
Q 18.265625 -1.421875 13.375 4.4375 
Q 8.5 10.296875 8.5 21.578125 
z
M 31.109375 56 
z
" id="DejaVuSans-75"/>
      <path d="M 11.71875 12.40625 
L 22.015625 12.40625 
L 22.015625 4 
L 14.015625 -11.625 
L 7.71875 -11.625 
L 11.71875 4 
z
" id="DejaVuSans-2c"/>
      <path d="M 18.109375 8.203125 
L 18.109375 -20.796875 
L 9.078125 -20.796875 
L 9.078125 54.6875 
L 18.109375 54.6875 
L 18.109375 46.390625 
Q 20.953125 51.265625 25.265625 53.625 
Q 29.59375 56 35.59375 56 
Q 45.5625 56 51.78125 48.09375 
Q 58.015625 40.1875 58.015625 27.296875 
Q 58.015625 14.40625 51.78125 6.484375 
Q 45.5625 -1.421875 35.59375 -1.421875 
Q 29.59375 -1.421875 25.265625 0.953125 
Q 20.953125 3.328125 18.109375 8.203125 
z
M 48.6875 27.296875 
Q 48.6875 37.203125 44.609375 42.84375 
Q 40.53125 48.484375 33.40625 48.484375 
Q 26.265625 48.484375 22.1875 42.84375 
Q 18.109375 37.203125 18.109375 27.296875 
Q 18.109375 17.390625 22.1875 11.75 
Q 26.265625 6.109375 33.40625 6.109375 
Q 40.53125 6.109375 44.609375 11.75 
Q 48.6875 17.390625 48.6875 27.296875 
z
" id="DejaVuSans-70"/>
     </defs>
     <g transform="translate(16.139531 286.001989)rotate(-90)scale(0.17 -0.17)">
      <use xlink:href="#DejaVuSans-46"/>
      <use x="57.410156" xlink:href="#DejaVuSans-72"/>
      <use x="98.523438" xlink:href="#DejaVuSans-61"/>
      <use x="159.802734" xlink:href="#DejaVuSans-63"/>
      <use x="214.783203" xlink:href="#DejaVuSans-74"/>
      <use x="253.992188" xlink:href="#DejaVuSans-69"/>
      <use x="281.775391" xlink:href="#DejaVuSans-6f"/>
      <use x="342.957031" xlink:href="#DejaVuSans-6e"/>
      <use x="406.335938" xlink:href="#DejaVuSans-20"/>
      <use x="438.123047" xlink:href="#DejaVuSans-6f"/>
      <use x="499.304688" xlink:href="#DejaVuSans-66"/>
      <use x="534.509766" xlink:href="#DejaVuSans-20"/>
      <use x="566.296875" xlink:href="#DejaVuSans-66"/>
      <use x="601.501953" xlink:href="#DejaVuSans-75"/>
      <use x="664.880859" xlink:href="#DejaVuSans-6e"/>
      <use x="728.259766" xlink:href="#DejaVuSans-63"/>
      <use x="783.240234" xlink:href="#DejaVuSans-74"/>
      <use x="822.449219" xlink:href="#DejaVuSans-69"/>
      <use x="850.232422" xlink:href="#DejaVuSans-6f"/>
      <use x="911.414062" xlink:href="#DejaVuSans-6e"/>
      <use x="974.792969" xlink:href="#DejaVuSans-2c"/>
      <use x="1006.580078" xlink:href="#DejaVuSans-74"/>
      <use x="1045.789062" xlink:href="#DejaVuSans-61"/>
      <use x="1107.068359" xlink:href="#DejaVuSans-72"/>
      <use x="1148.166016" xlink:href="#DejaVuSans-67"/>
      <use x="1211.642578" xlink:href="#DejaVuSans-65"/>
      <use x="1273.166016" xlink:href="#DejaVuSans-74"/>
      <use x="1312.375" xlink:href="#DejaVuSans-20"/>
      <use x="1344.162109" xlink:href="#DejaVuSans-70"/>
      <use x="1407.638672" xlink:href="#DejaVuSans-61"/>
      <use x="1468.917969" xlink:href="#DejaVuSans-69"/>
      <use x="1496.701172" xlink:href="#DejaVuSans-72"/>
      <use x="1537.814453" xlink:href="#DejaVuSans-73"/>
     </g>
    </g>
   </g>
   <g id="line2d_37">
    <defs>
     <path d="M 0 1.5 
C 0.397805 1.5 0.77937 1.341951 1.06066 1.06066 
C 1.341951 0.77937 1.5 0.397805 1.5 0 
C 1.5 -0.397805 1.341951 -0.77937 1.06066 -1.06066 
C 0.77937 -1.341951 0.397805 -1.5 0 -1.5 
C -0.397805 -1.5 -0.77937 -1.341951 -1.06066 -1.06066 
C -1.341951 -0.77937 -1.5 -0.397805 -1.5 0 
C -1.5 0.397805 -1.341951 0.77937 -1.06066 1.06066 
C -0.77937 1.341951 -0.397805 1.5 0 1.5 
z
" id="m3ba3600d5e" style="stroke:#000080;"/>
    </defs>
    <g>
     <use style="fill:#000080;stroke:#000080;" x="177.836208" xlink:href="#m3ba3600d5e" y="9.697057"/>
     <use style="fill:#000080;stroke:#000080;" x="177.836208" xlink:href="#m3ba3600d5e" y="9.697057"/>
    </g>
   </g>
   <g id="line2d_38">
    <path d="M 99.941473 294.88 
L 99.941473 294.320818 
L 103.341826 294.320818 
L 103.341826 293.761636 
L 105.991465 293.761636 
L 105.991465 293.202453 
L 107.26528 293.202453 
L 107.26528 292.084089 
L 108.120612 292.084089 
L 108.120612 291.524907 
L 108.451173 291.524907 
L 108.451173 290.406542 
L 109.093814 290.406542 
L 109.093814 289.84736 
L 110.163674 289.84736 
L 110.163674 289.288178 
L 110.311216 289.288178 
L 110.311216 288.728995 
L 111.030511 288.728995 
L 111.030511 287.610631 
L 111.448069 287.610631 
L 111.448069 286.492266 
L 112.514373 286.492266 
L 112.514373 285.933084 
L 112.643127 285.933084 
L 112.643127 285.373902 
L 113.148711 285.373902 
L 113.148711 284.255537 
L 114.117341 284.255537 
L 114.117341 283.137173 
L 114.466953 283.137173 
L 114.466953 282.577991 
L 115.798351 282.577991 
L 115.904782 281.459626 
L 116.115688 281.459626 
L 116.115688 280.900444 
L 116.324038 280.900444 
L 116.324038 280.341262 
L 118.914406 280.341262 
L 118.914406 279.782079 
L 119.267005 279.782079 
L 119.354037 278.104533 
L 119.612517 278.104533 
L 119.612517 277.545351 
L 119.782703 277.545351 
L 119.782703 276.986168 
L 120.034863 276.986168 
L 120.118102 275.308622 
L 120.528351 275.308622 
L 120.528351 274.749439 
L 120.689748 274.749439 
L 120.689748 274.190257 
L 121.16504 274.190257 
L 121.16504 273.631075 
L 121.70343 273.631075 
L 121.70343 273.071893 
L 121.854208 273.071893 
L 121.929105 271.953528 
L 122.077925 271.953528 
L 122.077925 270.835164 
L 122.298767 270.835164 
L 122.371755 269.716799 
L 122.874172 269.716799 
L 122.874172 269.157617 
L 123.015063 269.157617 
L 123.085078 268.039252 
L 123.499282 268.039252 
L 123.499282 267.48007 
L 123.836987 267.48007 
L 123.836987 266.920888 
L 123.970233 266.920888 
L 123.970233 266.361706 
L 124.621395 266.361706 
L 124.621395 265.243341 
L 124.748719 265.243341 
L 124.812029 264.124977 
L 124.937954 264.124977 
L 124.937954 263.565795 
L 125.062963 263.565795 
L 125.062963 263.006612 
L 125.310285 263.006612 
L 125.310285 262.44743 
L 125.5541 262.44743 
L 125.5541 261.329066 
L 126.207287 261.329066 
L 126.207287 260.769883 
L 126.438787 260.769883 
L 126.438787 260.210701 
L 126.610389 260.210701 
L 126.610389 259.651519 
L 126.836558 259.651519 
L 126.892639 258.533154 
L 127.115148 258.533154 
L 127.115148 257.973972 
L 127.28016 257.973972 
L 127.28016 257.41479 
L 127.605507 257.41479 
L 127.605507 256.855608 
L 128.186438 256.855608 
L 128.186438 256.296425 
L 128.39291 256.296425 
L 128.39291 255.178061 
L 129.194858 255.178061 
L 129.194858 254.618879 
L 129.486197 254.618879 
L 129.486197 254.059696 
L 129.725264 254.059696 
L 129.725264 253.500514 
L 130.33171 253.500514 
L 130.33171 252.941332 
L 130.649607 252.941332 
L 130.649607 252.38215 
L 131.224827 252.38215 
L 131.224827 251.822967 
L 132.279675 251.822967 
L 132.320552 250.704603 
L 132.684132 250.704603 
L 132.684132 250.145421 
L 132.882847 250.145421 
L 132.882847 249.586238 
L 133.880682 249.586238 
L 133.880682 249.027056 
L 134.431058 249.027056 
L 134.431058 248.467874 
L 134.999329 248.467874 
L 135.03423 246.231145 
L 135.276571 246.231145 
L 135.276571 245.671963 
L 135.616951 245.671963 
L 135.650622 244.553598 
L 137.558897 244.553598 
L 137.558897 243.994416 
L 138.09238 243.994416 
L 138.09238 243.435234 
L 138.52464 243.435234 
L 138.581462 242.316869 
L 138.862788 242.316869 
L 138.862788 241.757687 
L 139.249066 241.757687 
L 139.357855 240.639323 
L 139.438997 240.639323 
L 139.46596 238.402594 
L 141.96872 238.402594 
L 141.991995 237.284229 
L 142.541345 237.284229 
L 142.563858 236.165865 
L 142.809574 236.165865 
L 142.898061 234.488318 
L 144.091308 234.488318 
L 144.091308 233.929136 
L 144.638311 233.929136 
L 144.638311 233.369954 
L 144.77733 233.369954 
L 144.77733 232.810771 
L 145.090928 232.810771 
L 145.090928 232.251589 
L 145.34158 232.251589 
L 145.34158 231.692407 
L 146.035596 231.692407 
L 146.108974 230.01486 
L 146.291058 230.01486 
L 146.381382 228.896496 
L 146.738006 228.896496 
L 146.738006 228.337313 
L 147.156411 228.337313 
L 147.156411 227.778131 
L 147.429795 227.778131 
L 147.429795 227.218949 
L 147.782136 227.218949 
L 147.798735 226.100584 
L 148.257126 226.100584 
L 148.257126 225.541402 
L 148.577222 225.541402 
L 148.640531 223.863855 
L 149.046458 223.863855 
L 149.046458 223.304673 
L 149.291576 223.304673 
L 149.321972 222.186309 
L 149.518243 222.186309 
L 149.623006 220.508762 
L 149.741959 220.508762 
L 149.741959 219.94958 
L 150.281655 219.94958 
L 150.353304 218.831215 
L 150.396151 218.831215 
L 150.438891 217.153669 
L 150.693124 217.153669 
L 150.763082 215.476122 
L 151.353248 215.476122 
L 151.460846 214.357757 
L 151.674041 214.357757 
L 151.726929 212.680211 
L 151.871538 212.680211 
L 151.936869 211.561846 
L 152.208581 211.561846 
L 152.298205 210.443482 
L 152.374656 210.443482 
L 152.374656 209.325117 
L 152.488698 209.325117 
L 152.526544 207.64757 
L 152.764323 207.64757 
L 152.764323 207.088388 
L 152.875817 207.088388 
L 152.97432 205.410841 
L 153.072261 205.410841 
L 153.072261 204.851659 
L 153.482395 204.851659 
L 153.482395 204.292477 
L 153.613017 204.292477 
L 153.695627 202.61493 
L 153.789554 202.61493 
L 153.789554 202.055748 
L 154.05677 202.055748 
L 154.05677 201.496566 
L 154.183116 201.496566 
L 154.183116 200.937384 
L 154.331245 200.937384 
L 154.331245 199.819019 
L 154.567867 199.819019 
L 154.567867 199.259837 
L 154.757061 199.259837 
L 154.812312 198.141472 
L 154.911319 198.141472 
L 154.911319 197.58229 
L 155.140141 197.58229 
L 155.140141 197.023108 
L 155.258795 197.023108 
L 155.333878 194.786379 
L 155.387309 194.786379 
L 155.461834 193.668014 
L 155.514869 193.668014 
L 155.536037 191.990468 
L 155.756744 191.990468 
L 155.860855 190.872103 
L 155.912675 190.872103 
L 155.943692 188.635374 
L 156.026132 188.635374 
L 156.026132 188.076192 
L 156.189834 188.076192 
L 156.271104 186.398645 
L 156.442538 186.398645 
L 156.442538 185.280281 
L 156.562529 185.280281 
L 156.632139 184.161916 
L 156.721225 184.161916 
L 156.721225 183.602734 
L 156.956555 183.602734 
L 157.063347 181.366005 
L 157.073023 181.366005 
L 157.073023 180.806823 
L 157.217507 180.806823 
L 157.217507 180.247641 
L 157.351271 180.247641 
L 157.446184 178.010912 
L 157.568792 178.010912 
L 157.653165 175.774183 
L 157.811415 175.774183 
L 157.894608 174.655818 
L 157.959037 174.655818 
L 157.959037 173.537454 
L 158.169046 173.537454 
L 158.232457 171.859907 
L 158.340618 171.859907 
L 158.41235 168.504814 
L 158.47487 168.504814 
L 158.537164 165.14972 
L 158.616926 165.14972 
L 158.661078 163.472173 
L 158.862733 163.472173 
L 158.862733 162.912991 
L 158.975673 162.912991 
L 159.05343 161.794627 
L 159.113666 161.794627 
L 159.207897 160.11708 
L 159.327086 160.11708 
L 159.327086 158.998715 
L 159.453878 158.998715 
L 159.479124 156.761987 
L 159.588099 156.761987 
L 159.679772 152.847711 
L 159.762689 152.847711 
L 159.836973 150.610982 
L 159.919137 150.610982 
L 159.94371 149.492617 
L 160.033511 149.492617 
L 160.033511 148.933435 
L 160.187524 148.933435 
L 160.276064 143.900795 
L 160.308147 143.900795 
L 160.388094 142.223248 
L 160.427929 142.223248 
L 160.531069 140.545702 
L 160.56268 140.545702 
L 160.657167 137.74979 
L 160.836827 137.74979 
L 160.922092 135.513061 
L 161.030003 135.513061 
L 161.121962 132.71715 
L 161.160133 132.71715 
L 161.243814 130.480421 
L 161.304417 130.480421 
L 161.34973 125.447781 
L 161.432494 125.447781 
L 161.477471 123.770234 
L 161.567073 123.770234 
L 161.671022 120.974323 
L 161.781702 120.974323 
L 161.855096 119.296776 
L 161.913585 119.296776 
L 162.02272 116.500865 
L 162.080643 116.500865 
L 162.159969 113.704954 
L 162.246092 113.704954 
L 162.303269 112.586589 
L 162.438305 112.586589 
L 162.494847 108.113132 
L 162.551203 108.113132 
L 162.614384 106.994767 
L 162.726134 106.994767 
L 162.795612 105.31722 
L 162.857902 105.31722 
L 162.940606 103.639674 
L 163.111639 103.639674 
L 163.186357 100.843762 
L 163.240495 100.843762 
L 163.240495 99.166216 
L 163.428644 99.166216 
L 163.495344 97.488669 
L 163.555154 97.488669 
L 163.64778 95.811122 
L 163.805414 95.811122 
L 163.805414 95.25194 
L 163.935681 95.25194 
L 163.987513 93.574393 
L 164.129249 93.574393 
L 164.154894 91.337664 
L 164.339686 91.337664 
L 164.447095 88.541753 
L 164.472271 88.541753 
L 164.572606 84.068295 
L 164.666141 84.068295 
L 164.771536 81.831566 
L 164.796241 81.831566 
L 164.820911 79.594837 
L 164.937611 79.594837 
L 164.980407 78.476473 
L 165.096033 78.476473 
L 165.156578 74.562197 
L 165.342922 74.562197 
L 165.450203 72.325468 
L 165.515435 72.325468 
L 165.609878 68.411192 
L 165.686233 68.411192 
L 165.686233 67.85201 
L 165.803044 67.85201 
L 165.872751 66.733646 
L 165.988305 66.733646 
L 166.05153 63.937735 
L 166.211426 63.937735 
L 166.319085 61.701006 
L 166.386735 61.701006 
L 166.493305 59.464277 
L 166.759629 59.464277 
L 166.847495 58.345912 
L 166.989325 58.345912 
L 167.081431 55.550001 
L 167.146151 55.550001 
L 167.194532 54.431636 
L 167.386705 54.431636 
L 167.386705 53.872454 
L 167.539964 53.872454 
L 167.644869 51.076543 
L 167.728334 51.076543 
L 167.728334 50.517361 
L 167.904364 50.517361 
L 168.012195 48.839814 
L 168.017312 48.839814 
L 168.119353 47.162267 
L 168.381857 47.162267 
L 168.491721 45.484721 
L 168.73883 45.484721 
L 168.831808 44.366356 
L 169.674627 44.366356 
L 169.674627 43.807174 
L 170.915883 43.807174 
L 170.915883 43.247992 
L 172.890383 43.247992 
L 172.890383 42.688809 
L 174.228219 42.688809 
L 174.228219 42.129627 
L 174.588093 42.129627 
L 174.588093 41.570445 
L 174.799765 41.570445 
L 174.799765 41.011263 
L 175.175003 41.011263 
L 175.205345 39.892898 
L 175.406267 39.892898 
L 175.495921 38.774534 
L 175.693493 38.774534 
L 175.693493 38.215351 
L 175.862905 38.215351 
L 175.927621 37.096987 
L 175.979219 37.096987 
L 175.979219 36.537805 
L 176.199979 36.537805 
L 176.307725 34.860258 
L 176.4493 34.860258 
L 176.4493 34.301076 
L 176.614562 34.301076 
L 176.716663 28.709253 
L 176.778249 28.709253 
L 176.864101 27.031707 
L 176.912967 27.031707 
L 176.912967 25.35416 
L 177.107054 25.35416 
L 177.107054 24.794978 
L 177.236236 24.794978 
L 177.34662 20.32152 
L 177.488774 20.32152 
L 177.597554 12.492968 
L 177.714384 12.492968 
L 177.737655 10.815422 
L 177.836208 10.815422 
L 177.836208 9.697057 
L 333.168 9.697057 
L 333.168 9.697057 
" style="fill:none;stroke:#000080;stroke-linecap:square;stroke-width:1.5;"/>
   </g>
   <g id="line2d_39">
    <defs>
     <path d="M 0 6 
C 1.591219 6 3.117479 5.367802 4.242641 4.242641 
C 5.367802 3.117479 6 1.591219 6 0 
C 6 -1.591219 5.367802 -3.117479 4.242641 -4.242641 
C 3.117479 -5.367802 1.591219 -6 0 -6 
C -1.591219 -6 -3.117479 -5.367802 -4.242641 -4.242641 
C -5.367802 -3.117479 -6 -1.591219 -6 0 
C -6 1.591219 -5.367802 3.117479 -4.242641 4.242641 
C -3.117479 5.367802 -1.591219 6 0 6 
z
" id="m6bab368bed" style="stroke:#000080;stroke-width:1.5;"/>
    </defs>
    <g>
     <use style="fill-opacity:0;stroke:#000080;stroke-width:1.5;" x="154.183116" xlink:href="#m6bab368bed" y="200.937384"/>
     <use style="fill-opacity:0;stroke:#000080;stroke-width:1.5;" x="164.771536" xlink:href="#m6bab368bed" y="81.831566"/>
     <use style="fill-opacity:0;stroke:#000080;stroke-width:1.5;" x="177.836208" xlink:href="#m6bab368bed" y="9.697057"/>
     <use style="fill-opacity:0;stroke:#000080;stroke-width:1.5;" x="177.836208" xlink:href="#m6bab368bed" y="9.697057"/>
     <use style="fill-opacity:0;stroke:#000080;stroke-width:1.5;" x="333.168" xlink:href="#m6bab368bed" y="9.697057"/>
    </g>
   </g>
   <g id="line2d_40">
    <path style="fill:none;stroke:#000080;stroke-linecap:square;stroke-width:1.5;"/>
    <g/>
   </g>
   <g id="line2d_41">
    <defs>
     <path d="M 0 1.5 
C 0.397805 1.5 0.77937 1.341951 1.06066 1.06066 
C 1.341951 0.77937 1.5 0.397805 1.5 0 
C 1.5 -0.397805 1.341951 -0.77937 1.06066 -1.06066 
C 0.77937 -1.341951 0.397805 -1.5 0 -1.5 
C -0.397805 -1.5 -0.77937 -1.341951 -1.06066 -1.06066 
C -1.341951 -0.77937 -1.5 -0.397805 -1.5 0 
C -1.5 0.397805 -1.341951 0.77937 -1.06066 1.06066 
C -0.77937 1.341951 -0.397805 1.5 0 1.5 
z
" id="mecff36fbda" style="stroke:#ff00ff;"/>
    </defs>
    <g>
     <use style="fill:#ff00ff;stroke:#ff00ff;" x="170.57533" xlink:href="#mecff36fbda" y="9.697057"/>
     <use style="fill:#ff00ff;stroke:#ff00ff;" x="170.57533" xlink:href="#mecff36fbda" y="9.697057"/>
    </g>
   </g>
   <g id="line2d_42">
    <path d="M 86.335171 294.88 
L 86.335171 294.320818 
L 100.728876 294.320818 
L 100.728876 293.202453 
L 101.23446 293.202453 
L 101.23446 292.643271 
L 103.341826 292.643271 
L 103.341826 291.524907 
L 104.615641 291.524907 
L 104.615641 290.965724 
L 106.730875 290.965724 
L 106.730875 290.406542 
L 108.935392 290.406542 
L 108.935392 289.84736 
L 109.093814 289.84736 
L 109.093814 289.288178 
L 109.406343 289.288178 
L 109.406343 287.610631 
L 110.457504 287.610631 
L 110.457504 287.051449 
L 111.72091 287.051449 
L 111.72091 285.373902 
L 112.770924 285.373902 
L 112.770924 284.81472 
L 113.518374 284.81472 
L 113.518374 283.696355 
L 114.466953 283.696355 
L 114.466953 283.137173 
L 114.696138 283.137173 
L 114.696138 282.577991 
L 116.115688 282.577991 
L 116.115688 282.018808 
L 116.324038 282.018808 
L 116.324038 281.459626 
L 117.811013 281.459626 
L 117.905717 280.341262 
L 118.371562 280.341262 
L 118.463235 278.663715 
L 118.735356 278.663715 
L 118.735356 278.104533 
L 119.612517 278.104533 
L 119.697821 276.986168 
L 119.867168 276.986168 
L 119.867168 276.426986 
L 120.283378 276.426986 
L 120.283378 274.190257 
L 120.447081 274.190257 
L 120.447081 273.631075 
L 121.551317 273.631075 
L 121.551317 273.071893 
L 122.003676 273.071893 
L 122.003676 271.394346 
L 122.444434 271.394346 
L 122.444434 270.835164 
L 122.588877 270.835164 
L 122.588877 269.716799 
L 122.732117 269.716799 
L 122.732117 269.157617 
L 123.224258 269.157617 
L 123.224258 268.598435 
L 123.836987 268.598435 
L 123.836987 268.039252 
L 124.621395 268.039252 
L 124.621395 267.48007 
L 124.748719 267.48007 
L 124.748719 266.920888 
L 125.062963 266.920888 
L 125.125128 265.243341 
L 125.913457 265.243341 
L 125.913457 264.684159 
L 126.323427 264.684159 
L 126.323427 264.124977 
L 126.438787 264.124977 
L 126.438787 263.006612 
L 127.004254 263.006612 
L 127.004254 262.44743 
L 127.170329 262.44743 
L 127.170329 261.888248 
L 127.389295 261.888248 
L 127.443604 259.092337 
L 127.551708 259.092337 
L 127.659138 257.973972 
L 127.712602 257.973972 
L 127.712602 257.41479 
L 127.92481 257.41479 
L 127.92481 255.737243 
L 128.444143 255.737243 
L 128.444143 255.178061 
L 128.698042 255.178061 
L 128.698042 254.618879 
L 129.437982 254.618879 
L 129.437982 253.500514 
L 131.398014 253.500514 
L 131.483957 252.38215 
L 132.320552 252.38215 
L 132.320552 251.822967 
L 132.684132 251.822967 
L 132.684132 251.263785 
L 133.040181 251.263785 
L 133.079291 250.145421 
L 133.955092 250.145421 
L 133.955092 249.586238 
L 134.39491 249.586238 
L 134.431058 248.467874 
L 134.574897 248.467874 
L 134.574897 247.908692 
L 135.276571 247.908692 
L 135.276571 247.34951 
L 135.717765 247.34951 
L 135.717765 246.790327 
L 136.180564 246.790327 
L 136.180564 246.231145 
L 136.503668 246.231145 
L 136.503668 245.671963 
L 137.377325 245.671963 
L 137.377325 245.112781 
L 138.946296 245.112781 
L 138.946296 244.553598 
L 140.662626 244.553598 
L 140.73785 243.435234 
L 140.837639 243.435234 
L 140.837639 242.876052 
L 141.182408 242.876052 
L 141.182408 242.316869 
L 141.686932 242.316869 
L 141.686932 241.757687 
L 142.720629 241.757687 
L 142.720629 241.198505 
L 143.988072 241.198505 
L 143.988072 240.639323 
L 144.234803 240.639323 
L 144.234803 240.08014 
L 144.356853 240.08014 
L 144.356853 239.520958 
L 145.187766 239.520958 
L 145.187766 238.961776 
L 145.34158 238.961776 
L 145.34158 238.402594 
L 145.475048 238.402594 
L 145.475048 237.843411 
L 146.127269 237.843411 
L 146.236635 236.725047 
L 146.649541 236.725047 
L 146.649541 236.165865 
L 146.878609 236.165865 
L 146.913581 235.0475 
L 147.0007 235.0475 
L 147.0007 234.488318 
L 147.293646 234.488318 
L 147.293646 233.929136 
L 147.429795 233.929136 
L 147.531203 232.251589 
L 147.782136 232.251589 
L 147.782136 231.692407 
L 148.143669 231.692407 
L 148.143669 231.133225 
L 148.353782 231.133225 
L 148.353782 230.574042 
L 148.513678 230.574042 
L 148.513678 230.01486 
L 148.766456 230.01486 
L 148.766456 229.455678 
L 149.015571 229.455678 
L 149.031022 228.337313 
L 149.337149 228.337313 
L 149.337149 227.778131 
L 149.578186 227.778131 
L 149.578186 227.218949 
L 149.889502 227.218949 
L 149.889502 226.659767 
L 150.064898 226.659767 
L 150.064898 226.100584 
L 150.180842 226.100584 
L 150.180842 225.541402 
L 150.338998 225.541402 
L 150.424656 224.423038 
L 150.665061 224.423038 
L 150.665061 223.863855 
L 150.80492 223.863855 
L 150.80492 223.304673 
L 151.067558 223.304673 
L 151.163317 220.508762 
L 151.326243 220.508762 
L 151.326243 219.94958 
L 151.634268 219.94958 
L 151.634268 219.390397 
L 151.792811 219.390397 
L 151.884624 218.272033 
L 151.975949 218.272033 
L 152.07973 216.594486 
L 152.31097 216.594486 
L 152.412754 215.476122 
L 152.476064 215.476122 
L 152.501323 214.357757 
L 152.863465 214.357757 
L 152.925139 212.680211 
L 153.181782 212.680211 
L 153.181782 212.121028 
L 153.506219 212.121028 
L 153.506219 211.561846 
L 153.68385 211.561846 
L 153.742655 210.443482 
L 153.824645 210.443482 
L 153.824645 209.884299 
L 154.022151 209.884299 
L 154.05677 208.765935 
L 154.342587 208.765935 
L 154.433054 205.970024 
L 154.478109 205.970024 
L 154.478109 205.410841 
L 154.690524 205.410841 
L 154.757061 204.292477 
L 155.031558 204.292477 
L 155.031558 203.733295 
L 155.183383 203.733295 
L 155.258795 200.378201 
L 155.323172 200.378201 
L 155.419288 199.259837 
L 155.651999 199.259837 
L 155.651999 198.700655 
L 155.798464 198.700655 
L 155.902323 195.904743 
L 155.92302 195.904743 
L 155.954019 194.786379 
L 156.087703 194.786379 
L 156.087703 194.227197 
L 156.200014 194.227197 
L 156.200014 193.668014 
L 156.331806 193.668014 
L 156.362076 192.54965 
L 156.512635 192.54965 
L 156.622212 190.872103 
L 156.67179 190.872103 
L 156.750818 189.753739 
L 156.849095 189.753739 
L 156.956555 188.076192 
L 156.966291 188.076192 
L 156.985746 186.957828 
L 157.265399 186.957828 
L 157.341751 185.280281 
L 157.446184 185.280281 
L 157.465103 183.602734 
L 157.625086 183.602734 
L 157.662514 180.806823 
L 157.755728 180.806823 
L 157.857683 178.010912 
L 157.92225 178.010912 
L 157.986575 176.333365 
L 158.050661 176.333365 
L 158.050661 175.774183 
L 158.196251 175.774183 
L 158.196251 175.215 
L 158.331631 175.215 
L 158.41235 173.537454 
L 158.47487 173.537454 
L 158.581522 170.741543 
L 158.599233 170.741543 
L 158.696319 168.504814 
L 158.906259 168.504814 
L 158.906259 166.268085 
L 159.087877 166.268085 
L 159.156562 164.590538 
L 159.207897 164.590538 
L 159.284613 162.912991 
L 159.428594 162.912991 
L 159.504333 161.235444 
L 159.638163 161.235444 
L 159.746137 158.998715 
L 159.795744 158.998715 
L 159.886319 155.643622 
L 160.017218 155.643622 
L 160.114742 153.406893 
L 160.163298 153.406893 
L 160.171377 152.288529 
L 160.276064 152.288529 
L 160.380116 149.492617 
L 160.396068 149.492617 
L 160.396068 148.374253 
L 160.507322 148.374253 
L 160.58635 145.019159 
L 160.633594 145.019159 
L 160.712045 142.78243 
L 160.766748 142.78243 
L 160.867881 141.104884 
L 160.968422 141.104884 
L 161.068379 137.74979 
L 161.106669 137.74979 
L 161.144875 136.072244 
L 161.342186 136.072244 
L 161.447499 134.953879 
L 161.462492 134.953879 
L 161.52233 129.921239 
L 161.6117 129.921239 
L 161.700606 127.68451 
L 161.73014 127.68451 
L 161.840442 124.329417 
L 161.855096 124.329417 
L 161.913585 122.65187 
L 161.979149 122.65187 
L 162.051706 120.974323 
L 162.116746 120.974323 
L 162.123957 119.296776 
L 162.274704 119.296776 
L 162.381577 115.941683 
L 162.409964 115.941683 
L 162.501901 113.145772 
L 162.579312 113.145772 
L 162.600363 112.027407 
L 162.747007 112.027407 
L 162.857902 109.790678 
L 162.878615 109.790678 
L 162.94748 108.672314 
L 163.029755 108.672314 
L 163.125248 106.435585 
L 163.145642 106.435585 
L 163.145642 105.876403 
L 163.267499 105.876403 
L 163.354974 99.166216 
L 163.381799 99.166216 
L 163.415273 98.047851 
L 163.594912 98.047851 
L 163.654377 94.133576 
L 163.746471 94.133576 
L 163.85112 91.337664 
L 163.877183 91.337664 
L 163.981042 89.100935 
L 164.000446 89.100935 
L 164.097139 85.18666 
L 164.116412 85.18666 
L 164.180501 83.509113 
L 164.339686 83.509113 
L 164.421883 80.15402 
L 164.472271 80.15402 
L 164.572606 77.917291 
L 164.641248 77.917291 
L 164.728217 74.003015 
L 164.820911 74.003015 
L 164.888571 71.207104 
L 164.94985 71.207104 
L 165.035274 67.85201 
L 165.114219 67.85201 
L 165.222932 65.615281 
L 165.313003 65.615281 
L 165.378757 63.937735 
L 165.42642 63.937735 
L 165.527269 61.141823 
L 165.562721 61.141823 
L 165.662775 58.345912 
L 165.71551 58.345912 
L 165.808863 55.550001 
L 165.849547 55.550001 
L 165.959489 52.75409 
L 165.988305 52.75409 
L 166.097367 50.517361 
L 166.131664 50.517361 
L 166.22847 46.603085 
L 166.336023 46.603085 
L 166.336023 46.043903 
L 166.582539 46.043903 
L 166.654702 42.129627 
L 166.792631 42.129627 
L 166.847495 40.45208 
L 166.907643 40.45208 
L 167.016466 38.774534 
L 167.038148 38.774534 
L 167.140767 37.656169 
L 167.1999 37.656169 
L 167.306894 34.301076 
L 167.312226 34.301076 
L 167.312226 33.741894 
L 167.42912 33.741894 
L 167.529438 29.827618 
L 167.560996 29.827618 
L 167.665773 27.590889 
L 167.769916 27.590889 
L 167.87859 25.35416 
L 168.022429 25.35416 
L 168.119353 24.235795 
L 168.311576 24.235795 
L 168.32666 23.117431 
L 168.491721 23.117431 
L 168.566227 19.762337 
L 168.650279 19.762337 
L 168.669997 17.525609 
L 168.909717 17.525609 
L 168.967918 14.729697 
L 169.581438 14.729697 
L 169.679273 13.611333 
L 169.868694 13.611333 
L 169.942052 11.933786 
L 170.250376 11.933786 
L 170.335546 10.815422 
L 170.482478 10.815422 
L 170.57533 9.697057 
L 333.168 9.697057 
L 333.168 9.697057 
" style="fill:none;stroke:#ff00ff;stroke-linecap:square;stroke-width:1.5;"/>
   </g>
   <g id="line2d_43">
    <defs>
     <path d="M -0 8.485281 
L 5.091169 0 
L 0 -8.485281 
L -5.091169 -0 
z
" id="mfead2804a9" style="stroke:#ff00ff;stroke-linejoin:miter;stroke-width:1.5;"/>
    </defs>
    <g>
     <use style="fill-opacity:0;stroke:#ff00ff;stroke-linejoin:miter;stroke-width:1.5;" x="145.475048" xlink:href="#mfead2804a9" y="237.843411"/>
     <use style="fill-opacity:0;stroke:#ff00ff;stroke-linejoin:miter;stroke-width:1.5;" x="165.855351" xlink:href="#mfead2804a9" y="54.990819"/>
     <use style="fill-opacity:0;stroke:#ff00ff;stroke-linejoin:miter;stroke-width:1.5;" x="170.57533" xlink:href="#mfead2804a9" y="10.256239"/>
     <use style="fill-opacity:0;stroke:#ff00ff;stroke-linejoin:miter;stroke-width:1.5;" x="170.57533" xlink:href="#mfead2804a9" y="9.697057"/>
     <use style="fill-opacity:0;stroke:#ff00ff;stroke-linejoin:miter;stroke-width:1.5;" x="333.168" xlink:href="#mfead2804a9" y="9.697057"/>
    </g>
   </g>
   <g id="line2d_44">
    <path style="fill:none;stroke:#ff00ff;stroke-linecap:square;stroke-width:1.5;"/>
    <g/>
   </g>
   <g id="line2d_45">
    <defs>
     <path d="M 0 1.5 
C 0.397805 1.5 0.77937 1.341951 1.06066 1.06066 
C 1.341951 0.77937 1.5 0.397805 1.5 0 
C 1.5 -0.397805 1.341951 -0.77937 1.06066 -1.06066 
C 0.77937 -1.341951 0.397805 -1.5 0 -1.5 
C -0.397805 -1.5 -0.77937 -1.341951 -1.06066 -1.06066 
C -1.341951 -0.77937 -1.5 -0.397805 -1.5 0 
C -1.5 0.397805 -1.341951 0.77937 -1.06066 1.06066 
C -0.77937 1.341951 -0.397805 1.5 0 1.5 
z
" id="md60a9c7a16" style="stroke:#ff7500;"/>
    </defs>
    <g>
     <use style="fill:#ff7500;stroke:#ff7500;" x="166.737592" xlink:href="#md60a9c7a16" y="9.697057"/>
     <use style="fill:#ff7500;stroke:#ff7500;" x="166.737592" xlink:href="#md60a9c7a16" y="9.697057"/>
    </g>
   </g>
   <g id="line2d_46">
    <path d="M 71.168109 294.88 
L 71.168109 294.320818 
L 72.543934 294.320818 
L 72.543934 293.761636 
L 87.481505 293.761636 
L 87.481505 293.202453 
L 96.038666 293.202453 
L 96.038666 292.643271 
L 96.699848 292.643271 
L 96.699848 291.524907 
L 97.021141 291.524907 
L 97.021141 290.406542 
L 97.336537 290.406542 
L 97.336537 289.84736 
L 97.646251 289.84736 
L 97.646251 289.288178 
L 98.249422 289.288178 
L 98.249422 288.169813 
L 99.11626 288.169813 
L 99.11626 286.492266 
L 100.207968 286.492266 
L 100.207968 285.933084 
L 100.983527 285.933084 
L 100.983527 283.137173 
L 102.20309 283.137173 
L 102.20309 282.577991 
L 103.120034 282.577991 
L 103.120034 281.459626 
L 104.409787 281.459626 
L 104.409787 279.782079 
L 105.415256 279.782079 
L 105.415256 278.663715 
L 108.6141 278.663715 
L 108.6141 278.104533 
L 109.406343 278.104533 
L 109.406343 276.426986 
L 110.311216 276.426986 
L 110.311216 274.749439 
L 110.88904 274.749439 
L 110.88904 274.190257 
L 113.148711 274.190257 
L 113.148711 272.51271 
L 113.760471 272.51271 
L 113.760471 271.394346 
L 114.581927 271.394346 
L 114.581927 270.835164 
L 114.922307 270.835164 
L 114.922307 270.275981 
L 116.010559 270.275981 
L 116.010559 269.716799 
L 116.324038 269.716799 
L 116.324038 269.157617 
L 116.529892 269.157617 
L 116.529892 268.598435 
L 117.033994 268.598435 
L 117.033994 268.039252 
L 117.329507 268.039252 
L 117.329507 267.48007 
L 117.715785 267.48007 
L 117.715785 265.802523 
L 118.645127 265.802523 
L 118.645127 265.243341 
L 119.95122 265.243341 
L 119.95122 264.684159 
L 120.769881 264.684159 
L 120.769881 264.124977 
L 121.008065 264.124977 
L 121.008065 263.006612 
L 121.474753 263.006612 
L 121.474753 262.44743 
L 121.70343 262.44743 
L 121.70343 261.888248 
L 121.929105 261.888248 
L 121.929105 261.329066 
L 123.769975 261.329066 
L 123.769975 260.769883 
L 124.233665 260.769883 
L 124.233665 260.210701 
L 124.363883 260.210701 
L 124.363883 259.651519 
L 124.812029 259.651519 
L 124.812029 259.092337 
L 124.937954 259.092337 
L 124.937954 258.533154 
L 125.125128 258.533154 
L 125.125128 257.41479 
L 125.49347 257.41479 
L 125.49347 256.855608 
L 126.265455 256.855608 
L 126.265455 255.737243 
L 126.892639 255.737243 
L 126.892639 255.178061 
L 127.170329 255.178061 
L 127.170329 254.059696 
L 127.497741 254.059696 
L 127.497741 253.500514 
L 127.977455 253.500514 
L 127.977455 252.941332 
L 128.444143 252.941332 
L 128.444143 252.38215 
L 129.243759 252.38215 
L 129.292521 251.263785 
L 129.437982 251.263785 
L 129.437982 250.704603 
L 130.239792 250.704603 
L 130.239792 250.145421 
L 130.514085 250.145421 
L 130.514085 249.586238 
L 130.961731 249.586238 
L 131.049878 247.908692 
L 131.181257 247.908692 
L 131.181257 247.34951 
L 131.483957 247.34951 
L 131.483957 246.231145 
L 131.739239 246.231145 
L 131.781419 245.112781 
L 132.563791 245.112781 
L 132.563791 244.553598 
L 132.843288 244.553598 
L 132.843288 243.435234 
L 133.000983 243.435234 
L 133.000983 242.876052 
L 133.118312 242.876052 
L 133.118312 242.316869 
L 133.312097 242.316869 
L 133.312097 241.757687 
L 133.693236 241.757687 
L 133.693236 241.198505 
L 134.102952 241.198505 
L 134.139719 240.08014 
L 134.286006 240.08014 
L 134.358685 238.961776 
L 134.431058 238.961776 
L 134.431058 238.402594 
L 134.646368 238.402594 
L 134.753019 236.725047 
L 134.964358 236.725047 
L 134.964358 235.606682 
L 135.173129 235.606682 
L 135.173129 235.0475 
L 135.413533 235.0475 
L 135.481607 233.369954 
L 135.549413 233.369954 
L 135.549413 232.810771 
L 135.784647 232.810771 
L 135.784647 232.251589 
L 136.180564 232.251589 
L 136.180564 231.692407 
L 136.599426 231.692407 
L 136.599426 231.133225 
L 136.72628 231.133225 
L 136.757848 229.455678 
L 137.070377 229.455678 
L 137.070377 228.896496 
L 137.285815 228.896496 
L 137.285815 228.337313 
L 137.648969 228.337313 
L 137.738571 226.100584 
L 137.798047 226.100584 
L 137.798047 225.541402 
L 137.916386 225.541402 
L 137.916386 224.98222 
L 138.179706 224.98222 
L 138.266591 223.863855 
L 138.295455 223.863855 
L 138.353038 222.745491 
L 138.52464 222.745491 
L 138.609803 221.067944 
L 138.890669 221.067944 
L 138.890669 220.508762 
L 139.0294 220.508762 
L 139.057012 219.390397 
L 139.519758 219.390397 
L 139.626853 216.594486 
L 139.653523 216.594486 
L 139.653523 216.035304 
L 140.178407 216.035304 
L 140.178407 215.476122 
L 140.460404 215.476122 
L 140.460404 214.91694 
L 140.812746 214.91694 
L 140.837639 213.798575 
L 140.961566 213.798575 
L 140.961566 213.239393 
L 141.255396 213.239393 
L 141.255396 212.680211 
L 141.400449 212.680211 
L 141.400449 212.121028 
L 141.591967 212.121028 
L 141.591967 211.561846 
L 141.781376 211.561846 
L 141.851869 210.443482 
L 141.898705 210.443482 
L 141.945413 208.765935 
L 142.061631 208.765935 
L 142.1079 207.64757 
L 142.337391 207.64757 
L 142.337391 207.088388 
L 142.631221 207.088388 
L 142.631221 206.529206 
L 142.765159 206.529206 
L 142.831738 205.410841 
L 143.008034 205.410841 
L 143.008034 204.851659 
L 143.139078 204.851659 
L 143.247524 203.174112 
L 143.398208 203.174112 
L 143.398208 202.61493 
L 143.526323 202.61493 
L 143.526323 201.496566 
L 143.863366 201.496566 
L 143.863366 200.937384 
L 144.008769 200.937384 
L 144.11188 199.819019 
L 144.234803 199.819019 
L 144.316266 197.58229 
L 144.558363 197.58229 
L 144.558363 197.023108 
L 144.698028 197.023108 
L 144.698028 196.463926 
L 144.816844 196.463926 
L 144.816844 195.904743 
L 145.168442 195.904743 
L 145.207068 194.227197 
L 145.322428 194.227197 
L 145.417974 193.108832 
L 145.531932 193.108832 
L 145.531932 192.54965 
L 145.64514 192.54965 
L 145.7202 190.872103 
L 145.85077 190.872103 
L 145.943432 188.076192 
L 146.291058 188.076192 
L 146.363355 186.398645 
L 146.471234 186.398645 
L 146.471234 185.839463 
L 146.667271 185.839463 
L 146.738006 183.602734 
L 147.018071 183.602734 
L 147.08738 180.806823 
L 147.139179 180.806823 
L 147.139179 180.247641 
L 147.25944 180.247641 
L 147.327785 179.129276 
L 147.378865 179.129276 
L 147.378865 178.570094 
L 147.615255 178.570094 
L 147.632016 177.451729 
L 148.273273 177.451729 
L 148.337711 175.215 
L 148.481817 175.215 
L 148.481817 174.096636 
L 148.719342 174.096636 
L 148.782132 172.419089 
L 148.95363 172.419089 
L 148.95363 171.859907 
L 149.07729 171.859907 
L 149.108066 170.741543 
L 149.215352 170.741543 
L 149.321972 169.063996 
L 149.473148 169.063996 
L 149.578186 167.386449 
L 149.66771 167.386449 
L 149.741959 165.14972 
L 149.830637 165.14972 
L 149.904187 163.472173 
L 149.948166 163.472173 
L 150.05035 161.794627 
L 150.108469 161.794627 
L 150.108469 161.235444 
L 150.594702 161.235444 
L 150.636952 160.11708 
L 150.735133 160.11708 
L 150.80492 158.998715 
L 150.860547 158.998715 
L 150.860547 158.439533 
L 150.998831 158.439533 
L 151.094972 156.202804 
L 151.299196 156.202804 
L 151.312725 154.525258 
L 151.554444 154.525258 
L 151.554444 153.966075 
L 151.766488 153.966075 
L 151.805957 152.288529 
L 151.8977 152.288529 
L 151.910766 150.0518 
L 152.066791 150.0518 
L 152.157156 148.933435 
L 152.195739 148.933435 
L 152.259852 147.815071 
L 152.336473 147.815071 
L 152.336473 147.255888 
L 152.589437 147.255888 
L 152.601988 146.137524 
L 152.75189 146.137524 
L 152.813965 145.019159 
L 152.863465 145.019159 
L 152.863465 144.459977 
L 153.266485 144.459977 
L 153.36278 142.78243 
L 153.506219 142.78243 
L 153.613017 141.664066 
L 153.624843 141.664066 
L 153.707396 139.427337 
L 153.754391 139.427337 
L 153.847999 137.190608 
L 153.871321 137.190608 
L 153.975883 134.394697 
L 154.068295 134.394697 
L 154.102822 133.276332 
L 154.183116 133.276332 
L 154.263036 131.598786 
L 154.308539 131.598786 
L 154.308539 130.480421 
L 154.489355 130.480421 
L 154.579054 127.125328 
L 154.87838 127.125328 
L 154.966077 125.447781 
L 155.042447 125.447781 
L 155.140141 123.770234 
L 155.237283 123.770234 
L 155.237283 123.211052 
L 155.408635 123.211052 
L 155.408635 122.65187 
L 155.588844 122.65187 
L 155.620451 120.974323 
L 155.746298 120.974323 
L 155.746298 120.415141 
L 155.860855 120.415141 
L 155.860855 119.296776 
L 155.984961 119.296776 
L 155.984961 118.737594 
L 156.128628 118.737594 
L 156.189834 116.500865 
L 156.271104 116.500865 
L 156.331806 115.382501 
L 156.402354 115.382501 
L 156.512635 112.586589 
L 156.572491 112.586589 
L 156.572491 112.027407 
L 156.691581 112.027407 
L 156.711349 110.909043 
L 156.829485 110.909043 
L 156.937067 109.790678 
L 156.966291 109.790678 
L 157.005179 108.113132 
L 157.159859 108.113132 
L 157.227096 104.758038 
L 157.322695 104.758038 
L 157.322695 104.198856 
L 157.446184 104.198856 
L 157.540575 101.962127 
L 157.634451 101.962127 
L 157.727817 100.843762 
L 157.848439 100.843762 
L 157.848439 100.28458 
L 157.977401 100.28458 
L 158.050661 98.607033 
L 158.178119 98.607033 
L 158.178119 98.047851 
L 158.30464 98.047851 
L 158.340618 96.370304 
L 158.439172 96.370304 
L 158.519389 94.133576 
L 158.599233 94.133576 
L 158.696319 90.778482 
L 158.740269 90.778482 
L 158.775347 89.100935 
L 158.854014 89.100935 
L 158.958346 87.423389 
L 159.02755 87.423389 
L 159.096477 84.068295 
L 159.293116 84.068295 
L 159.352519 81.831566 
L 159.529506 81.831566 
L 159.621491 80.15402 
L 159.696387 80.15402 
L 159.787486 78.476473 
L 159.836973 78.476473 
L 159.869886 76.239744 
L 160.139037 76.239744 
L 160.195592 73.443833 
L 160.308147 73.443833 
L 160.308147 72.325468 
L 160.443837 72.325468 
L 160.483543 70.088739 
L 160.578464 70.088739 
L 160.657167 68.411192 
L 160.774549 68.411192 
L 160.829054 65.615281 
L 160.891135 65.615281 
L 160.99924 63.937735 
L 161.068379 63.937735 
L 161.099018 62.81937 
L 161.228629 62.81937 
L 161.296853 60.582641 
L 161.424987 60.582641 
L 161.50739 57.78673 
L 161.537258 57.78673 
L 161.552172 56.668365 
L 161.6488 56.668365 
L 161.6488 56.109183 
L 161.766986 56.109183 
L 161.869737 53.313272 
L 161.898981 53.313272 
L 161.906285 51.635725 
L 162.02272 51.635725 
L 162.06618 49.398996 
L 162.138371 49.398996 
L 162.145574 48.280632 
L 162.338907 48.280632 
L 162.445383 47.162267 
L 162.45953 47.162267 
L 162.565263 44.925538 
L 162.67035 44.925538 
L 162.733095 42.688809 
L 162.823324 42.688809 
L 162.844079 41.570445 
L 162.988667 41.570445 
L 163.084387 39.892898 
L 163.118445 39.892898 
L 163.206679 38.215351 
L 163.233737 38.215351 
L 163.321382 35.978622 
L 163.368392 35.978622 
L 163.42196 34.860258 
L 163.521952 34.860258 
L 163.614756 32.623529 
L 163.707062 32.623529 
L 163.759587 30.945982 
L 163.831547 30.945982 
L 163.935681 28.150071 
L 164.019828 28.150071 
L 164.10999 26.472524 
L 164.135664 26.472524 
L 164.19329 24.235795 
L 164.257094 24.235795 
L 164.307966 23.117431 
L 164.459688 23.117431 
L 164.560096 20.880702 
L 164.572606 20.880702 
L 164.572606 19.762337 
L 164.746796 19.762337 
L 164.765354 18.643973 
L 164.876289 18.643973 
L 164.876289 18.084791 
L 165.017005 18.084791 
L 165.047443 16.966426 
L 165.138437 16.966426 
L 165.21691 15.848062 
L 165.408562 15.848062 
L 165.509515 14.729697 
L 165.568623 14.729697 
L 165.568623 14.170515 
L 165.680372 14.170515 
L 165.680372 13.611333 
L 165.797222 13.611333 
L 165.884341 12.492968 
L 166.188675 12.492968 
L 166.188675 11.933786 
L 166.364215 11.933786 
L 166.375479 10.815422 
L 166.671312 10.815422 
L 166.737592 9.697057 
L 333.168 9.697057 
L 333.168 9.697057 
" style="fill:none;stroke:#ff7500;stroke-linecap:square;stroke-width:1.5;"/>
   </g>
   <g id="line2d_47">
    <defs>
     <path d="M 0 -6 
L -1.347084 -1.854102 
L -5.706339 -1.854102 
L -2.179628 0.708204 
L -3.526712 4.854102 
L -0 2.291796 
L 3.526712 4.854102 
L 2.179628 0.708204 
L 5.706339 -1.854102 
L 1.347084 -1.854102 
z
" id="md655c24d55" style="stroke:#ff7500;stroke-linejoin:bevel;stroke-width:1.5;"/>
    </defs>
    <g>
     <use style="fill-opacity:0;stroke:#ff7500;stroke-linejoin:bevel;stroke-width:1.5;" x="152.336473" xlink:href="#md655c24d55" y="147.255888"/>
     <use style="fill-opacity:0;stroke:#ff7500;stroke-linejoin:bevel;stroke-width:1.5;" x="166.737592" xlink:href="#md655c24d55" y="10.256239"/>
     <use style="fill-opacity:0;stroke:#ff7500;stroke-linejoin:bevel;stroke-width:1.5;" x="166.737592" xlink:href="#md655c24d55" y="9.697057"/>
     <use style="fill-opacity:0;stroke:#ff7500;stroke-linejoin:bevel;stroke-width:1.5;" x="166.737592" xlink:href="#md655c24d55" y="9.697057"/>
     <use style="fill-opacity:0;stroke:#ff7500;stroke-linejoin:bevel;stroke-width:1.5;" x="333.168" xlink:href="#md655c24d55" y="9.697057"/>
    </g>
   </g>
   <g id="line2d_48">
    <path style="fill:none;stroke:#ff7500;stroke-linecap:square;stroke-width:1.5;"/>
    <g/>
   </g>
   <g id="line2d_49">
    <defs>
     <path d="M 0 1.5 
C 0.397805 1.5 0.77937 1.341951 1.06066 1.06066 
C 1.341951 0.77937 1.5 0.397805 1.5 0 
C 1.5 -0.397805 1.341951 -0.77937 1.06066 -1.06066 
C 0.77937 -1.341951 0.397805 -1.5 0 -1.5 
C -0.397805 -1.5 -0.77937 -1.341951 -1.06066 -1.06066 
C -1.341951 -0.77937 -1.5 -0.397805 -1.5 0 
C -1.5 0.397805 -1.341951 0.77937 -1.06066 1.06066 
C -0.77937 1.341951 -0.397805 1.5 0 1.5 
z
" id="m3f9f3ef6d9" style="stroke:#6495ed;"/>
    </defs>
    <g>
     <use style="fill:#6495ed;stroke:#6495ed;" x="163.588292" xlink:href="#m3f9f3ef6d9" y="9.697057"/>
     <use style="fill:#6495ed;stroke:#6495ed;" x="163.588292" xlink:href="#m3f9f3ef6d9" y="9.697057"/>
    </g>
   </g>
   <g id="line2d_50">
    <path d="M 28.455965 294.88 
L 28.455965 293.761636 
L 40.370217 293.761636 
L 40.370217 293.202453 
L 52.284468 293.202453 
L 52.284468 292.643271 
L 56.12 292.643271 
L 56.12 291.524907 
L 61.903497 291.524907 
L 61.903497 290.965724 
L 68.034251 290.965724 
L 68.034251 289.84736 
L 69.672503 289.84736 
L 69.672503 289.288178 
L 73.817748 289.288178 
L 73.817748 288.169813 
L 76.11297 288.169813 
L 76.11297 287.610631 
L 77.155024 287.610631 
L 77.155024 286.492266 
L 78.137499 286.492266 
L 78.137499 284.81472 
L 79.066841 284.81472 
L 79.066841 284.255537 
L 80.787138 284.255537 
L 80.787138 283.137173 
L 82.350819 283.137173 
L 82.350819 282.577991 
L 83.08236 282.577991 
L 83.08236 282.018808 
L 85.732 282.018808 
L 85.732 281.459626 
L 86.917893 281.459626 
L 86.917893 278.663715 
L 87.481505 278.663715 
L 87.481505 278.104533 
L 88.027221 278.104533 
L 88.027221 277.545351 
L 90.981092 277.545351 
L 90.981092 276.986168 
L 93.105847 276.986168 
L 93.105847 275.308622 
L 96.372436 275.308622 
L 96.372436 274.749439 
L 97.021141 274.749439 
L 97.021141 274.190257 
L 98.249422 274.190257 
L 98.249422 273.071893 
L 99.67078 273.071893 
L 99.67078 271.953528 
L 99.941473 271.953528 
L 99.941473 270.835164 
L 100.207968 270.835164 
L 100.207968 270.275981 
L 100.983527 270.275981 
L 100.983527 269.157617 
L 101.481783 269.157617 
L 101.481783 268.598435 
L 101.725597 268.598435 
L 101.725597 266.361706 
L 101.966002 266.361706 
L 101.966002 265.243341 
L 102.436953 265.243341 
L 102.436953 264.124977 
L 102.895343 264.124977 
L 102.895343 263.006612 
L 103.341826 263.006612 
L 103.341826 262.44743 
L 106.730875 262.44743 
L 106.730875 261.888248 
L 106.910863 261.888248 
L 106.910863 261.329066 
L 107.952917 261.329066 
L 107.952917 260.769883 
L 108.286687 260.769883 
L 108.286687 259.651519 
L 108.935392 259.651519 
L 108.935392 259.092337 
L 112.122219 259.092337 
L 112.122219 258.533154 
L 113.148711 258.533154 
L 113.148711 257.973972 
L 113.518374 257.973972 
L 113.518374 257.41479 
L 113.760471 257.41479 
L 113.760471 256.855608 
L 113.880253 256.855608 
L 113.880253 256.296425 
L 113.999206 256.296425 
L 113.999206 255.737243 
L 114.581927 255.737243 
L 114.581927 255.178061 
L 115.145539 255.178061 
L 115.145539 254.618879 
L 115.475044 254.618879 
L 115.475044 252.941332 
L 115.798351 252.941332 
L 115.904782 251.822967 
L 116.427273 251.822967 
L 116.427273 251.263785 
L 117.329507 251.263785 
L 117.329507 250.704603 
L 117.905717 250.704603 
L 117.905717 249.586238 
L 118.186736 249.586238 
L 118.186736 249.027056 
L 118.371562 249.027056 
L 118.371562 248.467874 
L 118.914406 248.467874 
L 118.914406 247.908692 
L 119.267005 247.908692 
L 119.267005 247.34951 
L 119.697821 247.34951 
L 119.782703 243.435234 
L 120.034863 243.435234 
L 120.034863 242.876052 
L 120.283378 242.876052 
L 120.283378 242.316869 
L 120.447081 242.316869 
L 120.447081 241.198505 
L 120.609239 241.198505 
L 120.689748 240.08014 
L 121.008065 240.08014 
L 121.008065 239.520958 
L 121.242993 239.520958 
L 121.242993 238.961776 
L 121.397846 238.961776 
L 121.397846 238.402594 
L 121.627542 238.402594 
L 121.627542 237.843411 
L 122.371755 237.843411 
L 122.371755 237.284229 
L 122.588877 237.284229 
L 122.660646 236.165865 
L 123.970233 236.165865 
L 123.970233 235.0475 
L 124.557378 235.0475 
L 124.557378 234.488318 
L 124.685175 234.488318 
L 124.685175 233.929136 
L 125.310285 233.929136 
L 125.310285 233.369954 
L 125.432625 233.369954 
L 125.432625 232.810771 
L 125.614517 232.810771 
L 125.614517 231.692407 
L 126.090357 231.692407 
L 126.090357 231.133225 
L 126.381204 231.133225 
L 126.438787 228.337313 
L 126.496178 228.337313 
L 126.496178 227.778131 
L 126.780294 227.778131 
L 126.780294 227.218949 
L 127.05979 227.218949 
L 127.05979 226.659767 
L 128.997851 226.659767 
L 128.997851 226.100584 
L 129.292521 226.100584 
L 129.292521 225.541402 
L 129.534278 225.541402 
L 129.534278 223.863855 
L 129.772681 223.863855 
L 129.819968 222.745491 
L 129.961052 222.745491 
L 129.961052 221.627126 
L 130.377486 221.627126 
L 130.468672 219.94958 
L 131.224827 219.94958 
L 131.224827 219.390397 
L 131.907344 219.390397 
L 131.990784 217.712851 
L 132.156459 217.712851 
L 132.156459 216.594486 
L 132.644112 216.594486 
L 132.644112 216.035304 
L 132.843288 216.035304 
L 132.843288 215.476122 
L 133.000983 215.476122 
L 133.079291 212.680211 
L 133.118312 212.680211 
L 133.118312 211.561846 
L 133.76846 211.561846 
L 133.76846 211.002664 
L 133.880682 211.002664 
L 133.880682 210.443482 
L 134.213018 210.443482 
L 134.213018 209.884299 
L 134.467131 209.884299 
L 134.467131 208.765935 
L 135.276571 208.765935 
L 135.345189 205.970024 
L 135.447604 205.970024 
L 135.447604 204.851659 
L 135.717765 204.851659 
L 135.717765 204.292477 
L 135.917635 204.292477 
L 135.917635 203.174112 
L 136.631228 203.174112 
L 136.631228 202.055748 
L 136.789358 202.055748 
L 136.789358 200.937384 
L 137.10132 200.937384 
L 137.163039 191.990468 
L 137.975251 191.990468 
L 137.975251 190.872103 
L 138.353038 190.872103 
L 138.410429 189.194556 
L 138.609803 189.194556 
L 138.666344 180.247641 
L 138.80689 180.247641 
L 138.80689 172.419089 
L 138.974042 172.419089 
L 139.001743 171.300725 
L 139.46596 171.300725 
L 139.546595 169.623178 
L 139.653523 169.623178 
L 139.733284 167.386449 
L 139.865404 167.386449 
L 139.865404 166.827267 
L 140.074705 166.827267 
L 140.074705 166.268085 
L 140.307161 166.268085 
L 140.307161 158.439533 
L 140.862496 158.439533 
L 140.961566 155.643622 
L 141.206772 155.643622 
L 141.206772 153.966075 
L 141.376358 153.966075 
L 141.472518 139.986519 
L 142.154044 139.986519 
L 142.223028 138.308973 
L 142.337391 138.308973 
L 142.428336 136.072244 
L 142.742908 136.072244 
L 142.765159 134.953879 
L 143.008034 134.953879 
L 143.029944 133.835515 
L 143.22589 133.835515 
L 143.22589 133.276332 
L 143.568817 133.276332 
L 143.65349 132.157968 
L 143.884213 132.157968 
L 143.884213 131.039603 
L 144.029441 131.039603 
L 144.050088 112.586589 
L 144.498158 112.586589 
L 144.498158 111.468225 
L 144.797098 111.468225 
L 144.797098 110.349861 
L 145.149096 110.349861 
L 145.226349 100.843762 
L 145.475048 100.843762 
L 145.475048 99.725398 
L 145.626324 99.725398 
L 145.626324 99.166216 
L 146.218456 99.166216 
L 146.218456 90.778482 
L 146.381382 90.778482 
L 146.381382 89.660118 
L 146.542779 89.660118 
L 146.596243 87.982571 
L 147.018071 87.982571 
L 147.12193 77.917291 
L 147.412835 77.917291 
L 147.412835 77.358108 
L 147.648761 77.358108 
L 147.648761 76.798926 
L 148.561358 76.798926 
L 148.561358 76.239744 
L 148.969136 76.239744 
L 148.969136 63.937735 
L 149.230624 63.937735 
L 149.261127 62.81937 
L 149.427935 62.81937 
L 149.427935 61.701006 
L 149.741959 61.701006 
L 149.741959 52.75409 
L 150.006631 52.75409 
L 150.006631 51.635725 
L 150.267289 51.635725 
L 150.324681 49.958178 
L 150.915994 49.958178 
L 150.915994 49.398996 
L 151.366735 49.398996 
L 151.407131 47.72145 
L 153.398752 47.72145 
L 153.398752 47.162267 
L 157.014888 47.162267 
L 157.014888 45.484721 
L 158.169046 45.484721 
L 158.169046 44.925538 
L 159.803998 44.925538 
L 159.902736 35.41944 
L 160.009066 35.41944 
L 160.009066 27.590889 
L 160.396068 27.590889 
L 160.396068 27.031707 
L 161.319534 27.031707 
L 161.34973 23.117431 
L 161.469983 23.117431 
L 161.469983 11.933786 
L 163.152434 11.933786 
L 163.152434 10.256239 
L 163.588292 10.256239 
L 163.588292 9.697057 
L 333.168 9.697057 
L 333.168 9.697057 
" style="fill:none;stroke:#6495ed;stroke-linecap:square;stroke-width:1.5;"/>
   </g>
   <g id="line2d_51">
    <defs>
     <path d="M -0 6 
L 6 -6 
L -6 -6 
z
" id="m5a018db65f" style="stroke:#6495ed;stroke-linejoin:miter;stroke-width:1.5;"/>
    </defs>
    <g>
     <use style="fill-opacity:0;stroke:#6495ed;stroke-linejoin:miter;stroke-width:1.5;" x="69.672503" xlink:href="#m5a018db65f" y="289.288178"/>
     <use style="fill-opacity:0;stroke:#6495ed;stroke-linejoin:miter;stroke-width:1.5;" x="137.10132" xlink:href="#m5a018db65f" y="200.937384"/>
     <use style="fill-opacity:0;stroke:#6495ed;stroke-linejoin:miter;stroke-width:1.5;" x="163.588292" xlink:href="#m5a018db65f" y="10.256239"/>
     <use style="fill-opacity:0;stroke:#6495ed;stroke-linejoin:miter;stroke-width:1.5;" x="163.588292" xlink:href="#m5a018db65f" y="9.697057"/>
     <use style="fill-opacity:0;stroke:#6495ed;stroke-linejoin:miter;stroke-width:1.5;" x="163.588292" xlink:href="#m5a018db65f" y="9.697057"/>
     <use style="fill-opacity:0;stroke:#6495ed;stroke-linejoin:miter;stroke-width:1.5;" x="333.168" xlink:href="#m5a018db65f" y="9.697057"/>
    </g>
   </g>
   <g id="line2d_52">
    <path style="fill:none;stroke:#6495ed;stroke-linecap:square;stroke-width:1.5;"/>
    <g/>
   </g>
   <g id="line2d_53">
    <path d="M 333.168 9.697057 
L 363.64328 289.176341 
" style="fill:none;stroke:#000080;stroke-linecap:square;stroke-width:1.5;"/>
    <g>
     <use style="fill-opacity:0;stroke:#000080;stroke-width:1.5;" x="333.168" xlink:href="#m6bab368bed" y="9.697057"/>
     <use style="fill-opacity:0;stroke:#000080;stroke-width:1.5;" x="363.64328" xlink:href="#m6bab368bed" y="289.176341"/>
    </g>
   </g>
   <g id="line2d_54">
    <path d="M 333.168 9.697057 
L 363.64328 197.917799 
" style="fill:none;stroke:#ff00ff;stroke-linecap:square;stroke-width:1.5;"/>
    <g>
     <use style="fill-opacity:0;stroke:#ff00ff;stroke-linejoin:miter;stroke-width:1.5;" x="333.168" xlink:href="#mfead2804a9" y="9.697057"/>
     <use style="fill-opacity:0;stroke:#ff00ff;stroke-linejoin:miter;stroke-width:1.5;" x="363.64328" xlink:href="#mfead2804a9" y="197.917799"/>
    </g>
   </g>
   <g id="line2d_55">
    <path d="M 333.168 9.697057 
L 363.64328 106.659258 
" style="fill:none;stroke:#ff7500;stroke-linecap:square;stroke-width:1.5;"/>
    <g>
     <use style="fill-opacity:0;stroke:#ff7500;stroke-linejoin:bevel;stroke-width:1.5;" x="333.168" xlink:href="#md655c24d55" y="9.697057"/>
     <use style="fill-opacity:0;stroke:#ff7500;stroke-linejoin:bevel;stroke-width:1.5;" x="363.64328" xlink:href="#md655c24d55" y="106.659258"/>
    </g>
   </g>
   <g id="line2d_56">
    <path d="M 333.168 9.697057 
L 363.64328 15.400716 
" style="fill:none;stroke:#6495ed;stroke-linecap:square;stroke-width:1.5;"/>
    <g>
     <use style="fill-opacity:0;stroke:#6495ed;stroke-linejoin:miter;stroke-width:1.5;" x="333.168" xlink:href="#m5a018db65f" y="9.697057"/>
     <use style="fill-opacity:0;stroke:#6495ed;stroke-linejoin:miter;stroke-width:1.5;" x="363.64328" xlink:href="#m5a018db65f" y="15.400716"/>
    </g>
   </g>
   <g id="line2d_57">
    <path d="M 333.168 294.88 
L 333.168 9.697057 
" style="fill:none;stroke:#000000;stroke-linecap:square;stroke-width:1.5;"/>
   </g>
   <g id="patch_3">
    <path d="M 56.12 294.88 
L 56.12 6.845228 
" style="fill:none;stroke:#000000;stroke-linecap:square;stroke-linejoin:miter;stroke-width:0.8;"/>
   </g>
   <g id="patch_4">
    <path d="M 333.168 294.88 
L 333.168 6.845228 
" style="fill:none;stroke:#000000;stroke-linecap:square;stroke-linejoin:miter;stroke-width:0.8;"/>
   </g>
   <g id="patch_5">
    <path d="M 56.12 294.88 
L 333.168 294.88 
" style="fill:none;stroke:#000000;stroke-linecap:square;stroke-linejoin:miter;stroke-width:0.8;"/>
   </g>
   <g id="patch_6">
    <path d="M 56.12 6.845228 
L 333.168 6.845228 
" style="fill:none;stroke:#000000;stroke-linecap:square;stroke-linejoin:miter;stroke-width:0.8;"/>
   </g>
   <g id="text_13">
    <!-- f8 -->
    <g transform="translate(369.18424 293.867279)scale(0.17 -0.17)">
     <use xlink:href="#DejaVuSans-66"/>
     <use x="35.205078" xlink:href="#DejaVuSans-38"/>
    </g>
   </g>
   <g id="text_14">
    <!-- f9 -->
    <defs>
     <path d="M 10.984375 1.515625 
L 10.984375 10.5 
Q 14.703125 8.734375 18.5 7.8125 
Q 22.3125 6.890625 25.984375 6.890625 
Q 35.75 6.890625 40.890625 13.453125 
Q 46.046875 20.015625 46.78125 33.40625 
Q 43.953125 29.203125 39.59375 26.953125 
Q 35.25 24.703125 29.984375 24.703125 
Q 19.046875 24.703125 12.671875 31.3125 
Q 6.296875 37.9375 6.296875 49.421875 
Q 6.296875 60.640625 12.9375 67.421875 
Q 19.578125 74.21875 30.609375 74.21875 
Q 43.265625 74.21875 49.921875 64.515625 
Q 56.59375 54.828125 56.59375 36.375 
Q 56.59375 19.140625 48.40625 8.859375 
Q 40.234375 -1.421875 26.421875 -1.421875 
Q 22.703125 -1.421875 18.890625 -0.6875 
Q 15.09375 0.046875 10.984375 1.515625 
z
M 30.609375 32.421875 
Q 37.25 32.421875 41.125 36.953125 
Q 45.015625 41.5 45.015625 49.421875 
Q 45.015625 57.28125 41.125 61.84375 
Q 37.25 66.40625 30.609375 66.40625 
Q 23.96875 66.40625 20.09375 61.84375 
Q 16.21875 57.28125 16.21875 49.421875 
Q 16.21875 41.5 20.09375 36.953125 
Q 23.96875 32.421875 30.609375 32.421875 
z
" id="DejaVuSans-39"/>
    </defs>
    <g transform="translate(369.18424 202.608737)scale(0.17 -0.17)">
     <use xlink:href="#DejaVuSans-66"/>
     <use x="35.205078" xlink:href="#DejaVuSans-39"/>
    </g>
   </g>
   <g id="text_15">
    <!-- f6 -->
    <g transform="translate(369.18424 111.350195)scale(0.17 -0.17)">
     <use xlink:href="#DejaVuSans-66"/>
     <use x="35.205078" xlink:href="#DejaVuSans-36"/>
    </g>
   </g>
   <g id="text_16">
    <!-- f7 -->
    <defs>
     <path d="M 8.203125 72.90625 
L 55.078125 72.90625 
L 55.078125 68.703125 
L 28.609375 0 
L 18.3125 0 
L 43.21875 64.59375 
L 8.203125 64.59375 
z
" id="DejaVuSans-37"/>
    </defs>
    <g transform="translate(369.18424 20.091654)scale(0.17 -0.17)">
     <use xlink:href="#DejaVuSans-66"/>
     <use x="35.205078" xlink:href="#DejaVuSans-37"/>
    </g>
   </g>
   <g id="text_17">
    <!-- bbob -->
    <defs>
     <path d="M 48.6875 27.296875 
Q 48.6875 37.203125 44.609375 42.84375 
Q 40.53125 48.484375 33.40625 48.484375 
Q 26.265625 48.484375 22.1875 42.84375 
Q 18.109375 37.203125 18.109375 27.296875 
Q 18.109375 17.390625 22.1875 11.75 
Q 26.265625 6.109375 33.40625 6.109375 
Q 40.53125 6.109375 44.609375 11.75 
Q 48.6875 17.390625 48.6875 27.296875 
z
M 18.109375 46.390625 
Q 20.953125 51.265625 25.265625 53.625 
Q 29.59375 56 35.59375 56 
Q 45.5625 56 51.78125 48.09375 
Q 58.015625 40.1875 58.015625 27.296875 
Q 58.015625 14.40625 51.78125 6.484375 
Q 45.5625 -1.421875 35.59375 -1.421875 
Q 29.59375 -1.421875 25.265625 0.953125 
Q 20.953125 3.328125 18.109375 8.203125 
L 18.109375 0 
L 9.078125 0 
L 9.078125 75.984375 
L 18.109375 75.984375 
z
" id="DejaVuSans-62"/>
    </defs>
    <g transform="translate(58.89048 17.475982)scale(0.102 -0.102)">
     <use xlink:href="#DejaVuSans-62"/>
     <use x="63.476562" xlink:href="#DejaVuSans-62"/>
     <use x="126.953125" xlink:href="#DejaVuSans-6f"/>
     <use x="188.134766" xlink:href="#DejaVuSans-62"/>
    </g>
    <!-- Misc. moderate functions, 5-D -->
    <defs>
     <path d="M 9.8125 72.90625 
L 24.515625 72.90625 
L 43.109375 23.296875 
L 61.8125 72.90625 
L 76.515625 72.90625 
L 76.515625 0 
L 66.890625 0 
L 66.890625 64.015625 
L 48.09375 14.015625 
L 38.1875 14.015625 
L 19.390625 64.015625 
L 19.390625 0 
L 9.8125 0 
z
" id="DejaVuSans-4d"/>
     <path d="M 10.796875 72.90625 
L 49.515625 72.90625 
L 49.515625 64.59375 
L 19.828125 64.59375 
L 19.828125 46.734375 
Q 21.96875 47.46875 24.109375 47.828125 
Q 26.265625 48.1875 28.421875 48.1875 
Q 40.625 48.1875 47.75 41.5 
Q 54.890625 34.8125 54.890625 23.390625 
Q 54.890625 11.625 47.5625 5.09375 
Q 40.234375 -1.421875 26.90625 -1.421875 
Q 22.3125 -1.421875 17.546875 -0.640625 
Q 12.796875 0.140625 7.71875 1.703125 
L 7.71875 11.625 
Q 12.109375 9.234375 16.796875 8.0625 
Q 21.484375 6.890625 26.703125 6.890625 
Q 35.15625 6.890625 40.078125 11.328125 
Q 45.015625 15.765625 45.015625 23.390625 
Q 45.015625 31 40.078125 35.4375 
Q 35.15625 39.890625 26.703125 39.890625 
Q 22.75 39.890625 18.8125 39.015625 
Q 14.890625 38.140625 10.796875 36.28125 
z
" id="DejaVuSans-35"/>
     <path d="M 19.671875 64.796875 
L 19.671875 8.109375 
L 31.59375 8.109375 
Q 46.6875 8.109375 53.6875 14.9375 
Q 60.6875 21.78125 60.6875 36.53125 
Q 60.6875 51.171875 53.6875 57.984375 
Q 46.6875 64.796875 31.59375 64.796875 
z
M 9.8125 72.90625 
L 30.078125 72.90625 
Q 51.265625 72.90625 61.171875 64.09375 
Q 71.09375 55.28125 71.09375 36.53125 
Q 71.09375 17.671875 61.125 8.828125 
Q 51.171875 0 30.078125 0 
L 9.8125 0 
z
" id="DejaVuSans-44"/>
    </defs>
    <g transform="translate(58.89048 28.89775)scale(0.102 -0.102)">
     <use xlink:href="#DejaVuSans-4d"/>
     <use x="86.279297" xlink:href="#DejaVuSans-69"/>
     <use x="114.0625" xlink:href="#DejaVuSans-73"/>
     <use x="166.162109" xlink:href="#DejaVuSans-63"/>
     <use x="221.142578" xlink:href="#DejaVuSans-2e"/>
     <use x="252.929688" xlink:href="#DejaVuSans-20"/>
     <use x="284.716797" xlink:href="#DejaVuSans-6d"/>
     <use x="382.128906" xlink:href="#DejaVuSans-6f"/>
     <use x="443.310547" xlink:href="#DejaVuSans-64"/>
     <use x="506.787109" xlink:href="#DejaVuSans-65"/>
     <use x="568.310547" xlink:href="#DejaVuSans-72"/>
     <use x="609.423828" xlink:href="#DejaVuSans-61"/>
     <use x="670.703125" xlink:href="#DejaVuSans-74"/>
     <use x="709.912109" xlink:href="#DejaVuSans-65"/>
     <use x="771.435547" xlink:href="#DejaVuSans-20"/>
     <use x="803.222656" xlink:href="#DejaVuSans-66"/>
     <use x="838.427734" xlink:href="#DejaVuSans-75"/>
     <use x="901.806641" xlink:href="#DejaVuSans-6e"/>
     <use x="965.185547" xlink:href="#DejaVuSans-63"/>
     <use x="1020.166016" xlink:href="#DejaVuSans-74"/>
     <use x="1059.375" xlink:href="#DejaVuSans-69"/>
     <use x="1087.158203" xlink:href="#DejaVuSans-6f"/>
     <use x="1148.339844" xlink:href="#DejaVuSans-6e"/>
     <use x="1211.71875" xlink:href="#DejaVuSans-73"/>
     <use x="1263.818359" xlink:href="#DejaVuSans-2c"/>
     <use x="1295.605469" xlink:href="#DejaVuSans-20"/>
     <use x="1327.392578" xlink:href="#DejaVuSans-35"/>
     <use x="1391.015625" xlink:href="#DejaVuSans-2d"/>
     <use x="1427.099609" xlink:href="#DejaVuSans-44"/>
    </g>
    <!-- 51 targets: 100..1e-08 -->
    <defs>
     <path d="M 11.71875 12.40625 
L 22.015625 12.40625 
L 22.015625 0 
L 11.71875 0 
z
M 11.71875 51.703125 
L 22.015625 51.703125 
L 22.015625 39.3125 
L 11.71875 39.3125 
z
" id="DejaVuSans-3a"/>
    </defs>
    <g transform="translate(58.89048 40.319519)scale(0.102 -0.102)">
     <use xlink:href="#DejaVuSans-35"/>
     <use x="63.623047" xlink:href="#DejaVuSans-31"/>
     <use x="127.246094" xlink:href="#DejaVuSans-20"/>
     <use x="159.033203" xlink:href="#DejaVuSans-74"/>
     <use x="198.242188" xlink:href="#DejaVuSans-61"/>
     <use x="259.521484" xlink:href="#DejaVuSans-72"/>
     <use x="300.619141" xlink:href="#DejaVuSans-67"/>
     <use x="364.095703" xlink:href="#DejaVuSans-65"/>
     <use x="425.619141" xlink:href="#DejaVuSans-74"/>
     <use x="464.828125" xlink:href="#DejaVuSans-73"/>
     <use x="516.927734" xlink:href="#DejaVuSans-3a"/>
     <use x="550.619141" xlink:href="#DejaVuSans-20"/>
     <use x="582.40625" xlink:href="#DejaVuSans-31"/>
     <use x="646.029297" xlink:href="#DejaVuSans-30"/>
     <use x="709.652344" xlink:href="#DejaVuSans-30"/>
     <use x="773.275391" xlink:href="#DejaVuSans-2e"/>
     <use x="805.0625" xlink:href="#DejaVuSans-2e"/>
     <use x="836.849609" xlink:href="#DejaVuSans-31"/>
     <use x="900.472656" xlink:href="#DejaVuSans-65"/>
     <use x="961.996094" xlink:href="#DejaVuSans-2d"/>
     <use x="998.080078" xlink:href="#DejaVuSans-30"/>
     <use x="1061.703125" xlink:href="#DejaVuSans-38"/>
    </g>
    <!-- 15 instances -->
    <g transform="translate(58.89048 51.741288)scale(0.102 -0.102)">
     <use xlink:href="#DejaVuSans-31"/>
     <use x="63.623047" xlink:href="#DejaVuSans-35"/>
     <use x="127.246094" xlink:href="#DejaVuSans-20"/>
     <use x="159.033203" xlink:href="#DejaVuSans-69"/>
     <use x="186.816406" xlink:href="#DejaVuSans-6e"/>
     <use x="250.195312" xlink:href="#DejaVuSans-73"/>
     <use x="302.294922" xlink:href="#DejaVuSans-74"/>
     <use x="341.503906" xlink:href="#DejaVuSans-61"/>
     <use x="402.783203" xlink:href="#DejaVuSans-6e"/>
     <use x="466.162109" xlink:href="#DejaVuSans-63"/>
     <use x="521.142578" xlink:href="#DejaVuSans-65"/>
     <use x="582.666016" xlink:href="#DejaVuSans-73"/>
    </g>
   </g>
   <g id="text_18">
    <!-- v2.4 -->
    <g style="fill:#808080;" transform="translate(183.733063 289.919965)scale(0.1 -0.1)">
     <use xlink:href="#DejaVuSans-76"/>
     <use x="59.179688" xlink:href="#DejaVuSans-32"/>
     <use x="122.802734" xlink:href="#DejaVuSans-2e"/>
     <use x="154.589844" xlink:href="#DejaVuSans-34"/>
    </g>
   </g>
  </g>
 </g>
 <defs>
  <clipPath id="pdf6a437bcc">
   <rect height="288.034772" width="277.048" x="56.12" y="6.845228"/>
  </clipPath>
 </defs>
</svg>
