<?xml version="1.0" encoding="utf-8" standalone="no"?>
<!DOCTYPE svg PUBLIC "-//W3C//DTD SVG 1.1//EN"
  "http://www.w3.org/Graphics/SVG/1.1/DTD/svg11.dtd">
<!-- Created with matplotlib (http://matplotlib.org/) -->
<svg height="345.6pt" version="1.1" viewBox="0 0 460.8 345.6" width="460.8pt" xmlns="http://www.w3.org/2000/svg" xmlns:xlink="http://www.w3.org/1999/xlink">
 <defs>
  <style type="text/css">
*{stroke-linecap:butt;stroke-linejoin:round;}
  </style>
 </defs>
 <g id="figure_1">
  <g id="patch_1">
   <path d="M 0 345.6 
L 460.8 345.6 
L 460.8 0 
L 0 0 
z
" style="fill:#ffffff;"/>
  </g>
  <g id="axes_1">
   <g id="patch_2">
    <path d="M 56.12 294.88 
L 333.168 294.88 
L 333.168 6.845228 
L 56.12 6.845228 
z
" style="fill:#ffffff;"/>
   </g>
   <g id="matplotlib.axis_1">
    <g id="xtick_1">
     <g id="line2d_1">
      <path clip-path="url(#p7ec79e51bb)" d="M 56.12 294.88 
L 56.12 6.845228 
" style="fill:none;stroke:#b0b0b0;stroke-linecap:square;stroke-width:0.8;"/>
     </g>
     <g id="line2d_2">
      <defs>
       <path d="M 0 0 
L 0 3.5 
" id="mc8897fad88" style="stroke:#000000;stroke-width:0.8;"/>
      </defs>
      <g>
       <use style="stroke:#000000;stroke-width:0.8;" x="56.12" xlink:href="#mc8897fad88" y="294.88"/>
      </g>
     </g>
     <g id="text_1">
      <!-- 0 -->
      <defs>
       <path d="M 31.78125 66.40625 
Q 24.171875 66.40625 20.328125 58.90625 
Q 16.5 51.421875 16.5 36.375 
Q 16.5 21.390625 20.328125 13.890625 
Q 24.171875 6.390625 31.78125 6.390625 
Q 39.453125 6.390625 43.28125 13.890625 
Q 47.125 21.390625 47.125 36.375 
Q 47.125 51.421875 43.28125 58.90625 
Q 39.453125 66.40625 31.78125 66.40625 
z
M 31.78125 74.21875 
Q 44.046875 74.21875 50.515625 64.515625 
Q 56.984375 54.828125 56.984375 36.375 
Q 56.984375 17.96875 50.515625 8.265625 
Q 44.046875 -1.421875 31.78125 -1.421875 
Q 19.53125 -1.421875 13.0625 8.265625 
Q 6.59375 17.96875 6.59375 36.375 
Q 6.59375 54.828125 13.0625 64.515625 
Q 19.53125 74.21875 31.78125 74.21875 
z
" id="DejaVuSans-30"/>
      </defs>
      <g transform="translate(49.7575 317.076875)scale(0.2 -0.2)">
       <use xlink:href="#DejaVuSans-30"/>
      </g>
     </g>
    </g>
    <g id="xtick_2">
     <g id="line2d_3">
      <path clip-path="url(#p7ec79e51bb)" d="M 135.276571 294.88 
L 135.276571 6.845228 
" style="fill:none;stroke:#b0b0b0;stroke-linecap:square;stroke-width:0.8;"/>
     </g>
     <g id="line2d_4">
      <g>
       <use style="stroke:#000000;stroke-width:0.8;" x="135.276571" xlink:href="#mc8897fad88" y="294.88"/>
      </g>
     </g>
     <g id="text_2">
      <!-- 2 -->
      <defs>
       <path d="M 19.1875 8.296875 
L 53.609375 8.296875 
L 53.609375 0 
L 7.328125 0 
L 7.328125 8.296875 
Q 12.9375 14.109375 22.625 23.890625 
Q 32.328125 33.6875 34.8125 36.53125 
Q 39.546875 41.84375 41.421875 45.53125 
Q 43.3125 49.21875 43.3125 52.78125 
Q 43.3125 58.59375 39.234375 62.25 
Q 35.15625 65.921875 28.609375 65.921875 
Q 23.96875 65.921875 18.8125 64.3125 
Q 13.671875 62.703125 7.8125 59.421875 
L 7.8125 69.390625 
Q 13.765625 71.78125 18.9375 73 
Q 24.125 74.21875 28.421875 74.21875 
Q 39.75 74.21875 46.484375 68.546875 
Q 53.21875 62.890625 53.21875 53.421875 
Q 53.21875 48.921875 51.53125 44.890625 
Q 49.859375 40.875 45.40625 35.40625 
Q 44.1875 33.984375 37.640625 27.21875 
Q 31.109375 20.453125 19.1875 8.296875 
z
" id="DejaVuSans-32"/>
      </defs>
      <g transform="translate(128.914071 317.076875)scale(0.2 -0.2)">
       <use xlink:href="#DejaVuSans-32"/>
      </g>
     </g>
    </g>
    <g id="xtick_3">
     <g id="line2d_5">
      <path clip-path="url(#p7ec79e51bb)" d="M 214.433143 294.88 
L 214.433143 6.845228 
" style="fill:none;stroke:#b0b0b0;stroke-linecap:square;stroke-width:0.8;"/>
     </g>
     <g id="line2d_6">
      <g>
       <use style="stroke:#000000;stroke-width:0.8;" x="214.433143" xlink:href="#mc8897fad88" y="294.88"/>
      </g>
     </g>
     <g id="text_3">
      <!-- 4 -->
      <defs>
       <path d="M 37.796875 64.3125 
L 12.890625 25.390625 
L 37.796875 25.390625 
z
M 35.203125 72.90625 
L 47.609375 72.90625 
L 47.609375 25.390625 
L 58.015625 25.390625 
L 58.015625 17.1875 
L 47.609375 17.1875 
L 47.609375 0 
L 37.796875 0 
L 37.796875 17.1875 
L 4.890625 17.1875 
L 4.890625 26.703125 
z
" id="DejaVuSans-34"/>
      </defs>
      <g transform="translate(208.070643 317.076875)scale(0.2 -0.2)">
       <use xlink:href="#DejaVuSans-34"/>
      </g>
     </g>
    </g>
    <g id="xtick_4">
     <g id="line2d_7">
      <path clip-path="url(#p7ec79e51bb)" d="M 293.589714 294.88 
L 293.589714 6.845228 
" style="fill:none;stroke:#b0b0b0;stroke-linecap:square;stroke-width:0.8;"/>
     </g>
     <g id="line2d_8">
      <g>
       <use style="stroke:#000000;stroke-width:0.8;" x="293.589714" xlink:href="#mc8897fad88" y="294.88"/>
      </g>
     </g>
     <g id="text_4">
      <!-- 6 -->
      <defs>
       <path d="M 33.015625 40.375 
Q 26.375 40.375 22.484375 35.828125 
Q 18.609375 31.296875 18.609375 23.390625 
Q 18.609375 15.53125 22.484375 10.953125 
Q 26.375 6.390625 33.015625 6.390625 
Q 39.65625 6.390625 43.53125 10.953125 
Q 47.40625 15.53125 47.40625 23.390625 
Q 47.40625 31.296875 43.53125 35.828125 
Q 39.65625 40.375 33.015625 40.375 
z
M 52.59375 71.296875 
L 52.59375 62.3125 
Q 48.875 64.0625 45.09375 64.984375 
Q 41.3125 65.921875 37.59375 65.921875 
Q 27.828125 65.921875 22.671875 59.328125 
Q 17.53125 52.734375 16.796875 39.40625 
Q 19.671875 43.65625 24.015625 45.921875 
Q 28.375 48.1875 33.59375 48.1875 
Q 44.578125 48.1875 50.953125 41.515625 
Q 57.328125 34.859375 57.328125 23.390625 
Q 57.328125 12.15625 50.6875 5.359375 
Q 44.046875 -1.421875 33.015625 -1.421875 
Q 20.359375 -1.421875 13.671875 8.265625 
Q 6.984375 17.96875 6.984375 36.375 
Q 6.984375 53.65625 15.1875 63.9375 
Q 23.390625 74.21875 37.203125 74.21875 
Q 40.921875 74.21875 44.703125 73.484375 
Q 48.484375 72.75 52.59375 71.296875 
z
" id="DejaVuSans-36"/>
      </defs>
      <g transform="translate(287.227214 317.076875)scale(0.2 -0.2)">
       <use xlink:href="#DejaVuSans-36"/>
      </g>
     </g>
    </g>
    <g id="xtick_5">
     <g id="line2d_9">
      <path clip-path="url(#p7ec79e51bb)" d="M 56.12 294.88 
L 56.12 6.845228 
" style="fill:none;stroke:#b0b0b0;stroke-linecap:square;stroke-width:0.8;"/>
     </g>
     <g id="line2d_10">
      <defs>
       <path d="M 0 0 
L 0 2 
" id="m6b6d22ebb9" style="stroke:#000000;stroke-width:0.6;"/>
      </defs>
      <g>
       <use style="stroke:#000000;stroke-width:0.6;" x="56.12" xlink:href="#m6b6d22ebb9" y="294.88"/>
      </g>
     </g>
    </g>
    <g id="xtick_6">
     <g id="line2d_11">
      <path clip-path="url(#p7ec79e51bb)" d="M 95.698286 294.88 
L 95.698286 6.845228 
" style="fill:none;stroke:#b0b0b0;stroke-linecap:square;stroke-width:0.8;"/>
     </g>
     <g id="line2d_12">
      <g>
       <use style="stroke:#000000;stroke-width:0.6;" x="95.698286" xlink:href="#m6b6d22ebb9" y="294.88"/>
      </g>
     </g>
    </g>
    <g id="xtick_7">
     <g id="line2d_13">
      <path clip-path="url(#p7ec79e51bb)" d="M 135.276571 294.88 
L 135.276571 6.845228 
" style="fill:none;stroke:#b0b0b0;stroke-linecap:square;stroke-width:0.8;"/>
     </g>
     <g id="line2d_14">
      <g>
       <use style="stroke:#000000;stroke-width:0.6;" x="135.276571" xlink:href="#m6b6d22ebb9" y="294.88"/>
      </g>
     </g>
    </g>
    <g id="xtick_8">
     <g id="line2d_15">
      <path clip-path="url(#p7ec79e51bb)" d="M 174.854857 294.88 
L 174.854857 6.845228 
" style="fill:none;stroke:#b0b0b0;stroke-linecap:square;stroke-width:0.8;"/>
     </g>
     <g id="line2d_16">
      <g>
       <use style="stroke:#000000;stroke-width:0.6;" x="174.854857" xlink:href="#m6b6d22ebb9" y="294.88"/>
      </g>
     </g>
    </g>
    <g id="xtick_9">
     <g id="line2d_17">
      <path clip-path="url(#p7ec79e51bb)" d="M 214.433143 294.88 
L 214.433143 6.845228 
" style="fill:none;stroke:#b0b0b0;stroke-linecap:square;stroke-width:0.8;"/>
     </g>
     <g id="line2d_18">
      <g>
       <use style="stroke:#000000;stroke-width:0.6;" x="214.433143" xlink:href="#m6b6d22ebb9" y="294.88"/>
      </g>
     </g>
    </g>
    <g id="xtick_10">
     <g id="line2d_19">
      <path clip-path="url(#p7ec79e51bb)" d="M 254.011429 294.88 
L 254.011429 6.845228 
" style="fill:none;stroke:#b0b0b0;stroke-linecap:square;stroke-width:0.8;"/>
     </g>
     <g id="line2d_20">
      <g>
       <use style="stroke:#000000;stroke-width:0.6;" x="254.011429" xlink:href="#m6b6d22ebb9" y="294.88"/>
      </g>
     </g>
    </g>
    <g id="xtick_11">
     <g id="line2d_21">
      <path clip-path="url(#p7ec79e51bb)" d="M 293.589714 294.88 
L 293.589714 6.845228 
" style="fill:none;stroke:#b0b0b0;stroke-linecap:square;stroke-width:0.8;"/>
     </g>
     <g id="line2d_22">
      <g>
       <use style="stroke:#000000;stroke-width:0.6;" x="293.589714" xlink:href="#m6b6d22ebb9" y="294.88"/>
      </g>
     </g>
    </g>
    <g id="xtick_12">
     <g id="line2d_23">
      <path clip-path="url(#p7ec79e51bb)" d="M 333.168 294.88 
L 333.168 6.845228 
" style="fill:none;stroke:#b0b0b0;stroke-linecap:square;stroke-width:0.8;"/>
     </g>
     <g id="line2d_24">
      <g>
       <use style="stroke:#000000;stroke-width:0.6;" x="333.168" xlink:href="#m6b6d22ebb9" y="294.88"/>
      </g>
     </g>
    </g>
    <g id="text_5">
     <!-- log10(# f-evals / dimension) -->
     <defs>
      <path d="M 9.421875 75.984375 
L 18.40625 75.984375 
L 18.40625 0 
L 9.421875 0 
z
" id="DejaVuSans-6c"/>
      <path d="M 30.609375 48.390625 
Q 23.390625 48.390625 19.1875 42.75 
Q 14.984375 37.109375 14.984375 27.296875 
Q 14.984375 17.484375 19.15625 11.84375 
Q 23.34375 6.203125 30.609375 6.203125 
Q 37.796875 6.203125 41.984375 11.859375 
Q 46.1875 17.53125 46.1875 27.296875 
Q 46.1875 37.015625 41.984375 42.703125 
Q 37.796875 48.390625 30.609375 48.390625 
z
M 30.609375 56 
Q 42.328125 56 49.015625 48.375 
Q 55.71875 40.765625 55.71875 27.296875 
Q 55.71875 13.875 49.015625 6.21875 
Q 42.328125 -1.421875 30.609375 -1.421875 
Q 18.84375 -1.421875 12.171875 6.21875 
Q 5.515625 13.875 5.515625 27.296875 
Q 5.515625 40.765625 12.171875 48.375 
Q 18.84375 56 30.609375 56 
z
" id="DejaVuSans-6f"/>
      <path d="M 45.40625 27.984375 
Q 45.40625 37.75 41.375 43.109375 
Q 37.359375 48.484375 30.078125 48.484375 
Q 22.859375 48.484375 18.828125 43.109375 
Q 14.796875 37.75 14.796875 27.984375 
Q 14.796875 18.265625 18.828125 12.890625 
Q 22.859375 7.515625 30.078125 7.515625 
Q 37.359375 7.515625 41.375 12.890625 
Q 45.40625 18.265625 45.40625 27.984375 
z
M 54.390625 6.78125 
Q 54.390625 -7.171875 48.1875 -13.984375 
Q 42 -20.796875 29.203125 -20.796875 
Q 24.46875 -20.796875 20.265625 -20.09375 
Q 16.0625 -19.390625 12.109375 -17.921875 
L 12.109375 -9.1875 
Q 16.0625 -11.328125 19.921875 -12.34375 
Q 23.78125 -13.375 27.78125 -13.375 
Q 36.625 -13.375 41.015625 -8.765625 
Q 45.40625 -4.15625 45.40625 5.171875 
L 45.40625 9.625 
Q 42.625 4.78125 38.28125 2.390625 
Q 33.9375 0 27.875 0 
Q 17.828125 0 11.671875 7.65625 
Q 5.515625 15.328125 5.515625 27.984375 
Q 5.515625 40.671875 11.671875 48.328125 
Q 17.828125 56 27.875 56 
Q 33.9375 56 38.28125 53.609375 
Q 42.625 51.21875 45.40625 46.390625 
L 45.40625 54.6875 
L 54.390625 54.6875 
z
" id="DejaVuSans-67"/>
      <path d="M 12.40625 8.296875 
L 28.515625 8.296875 
L 28.515625 63.921875 
L 10.984375 60.40625 
L 10.984375 69.390625 
L 28.421875 72.90625 
L 38.28125 72.90625 
L 38.28125 8.296875 
L 54.390625 8.296875 
L 54.390625 0 
L 12.40625 0 
z
" id="DejaVuSans-31"/>
      <path d="M 31 75.875 
Q 24.46875 64.65625 21.28125 53.65625 
Q 18.109375 42.671875 18.109375 31.390625 
Q 18.109375 20.125 21.3125 9.0625 
Q 24.515625 -2 31 -13.1875 
L 23.1875 -13.1875 
Q 15.875 -1.703125 12.234375 9.375 
Q 8.59375 20.453125 8.59375 31.390625 
Q 8.59375 42.28125 12.203125 53.3125 
Q 15.828125 64.359375 23.1875 75.875 
z
" id="DejaVuSans-28"/>
      <path d="M 51.125 44 
L 36.921875 44 
L 32.8125 27.6875 
L 47.125 27.6875 
z
M 43.796875 71.78125 
L 38.71875 51.515625 
L 52.984375 51.515625 
L 58.109375 71.78125 
L 65.921875 71.78125 
L 60.890625 51.515625 
L 76.125 51.515625 
L 76.125 44 
L 58.984375 44 
L 54.984375 27.6875 
L 70.515625 27.6875 
L 70.515625 20.21875 
L 53.078125 20.21875 
L 48 0 
L 40.1875 0 
L 45.21875 20.21875 
L 30.90625 20.21875 
L 25.875 0 
L 18.015625 0 
L 23.09375 20.21875 
L 7.71875 20.21875 
L 7.71875 27.6875 
L 24.90625 27.6875 
L 29 44 
L 13.28125 44 
L 13.28125 51.515625 
L 30.90625 51.515625 
L 35.890625 71.78125 
z
" id="DejaVuSans-23"/>
      <path id="DejaVuSans-20"/>
      <path d="M 37.109375 75.984375 
L 37.109375 68.5 
L 28.515625 68.5 
Q 23.6875 68.5 21.796875 66.546875 
Q 19.921875 64.59375 19.921875 59.515625 
L 19.921875 54.6875 
L 34.71875 54.6875 
L 34.71875 47.703125 
L 19.921875 47.703125 
L 19.921875 0 
L 10.890625 0 
L 10.890625 47.703125 
L 2.296875 47.703125 
L 2.296875 54.6875 
L 10.890625 54.6875 
L 10.890625 58.5 
Q 10.890625 67.625 15.140625 71.796875 
Q 19.390625 75.984375 28.609375 75.984375 
z
" id="DejaVuSans-66"/>
      <path d="M 4.890625 31.390625 
L 31.203125 31.390625 
L 31.203125 23.390625 
L 4.890625 23.390625 
z
" id="DejaVuSans-2d"/>
      <path d="M 56.203125 29.59375 
L 56.203125 25.203125 
L 14.890625 25.203125 
Q 15.484375 15.921875 20.484375 11.0625 
Q 25.484375 6.203125 34.421875 6.203125 
Q 39.59375 6.203125 44.453125 7.46875 
Q 49.3125 8.734375 54.109375 11.28125 
L 54.109375 2.78125 
Q 49.265625 0.734375 44.1875 -0.34375 
Q 39.109375 -1.421875 33.890625 -1.421875 
Q 20.796875 -1.421875 13.15625 6.1875 
Q 5.515625 13.8125 5.515625 26.8125 
Q 5.515625 40.234375 12.765625 48.109375 
Q 20.015625 56 32.328125 56 
Q 43.359375 56 49.78125 48.890625 
Q 56.203125 41.796875 56.203125 29.59375 
z
M 47.21875 32.234375 
Q 47.125 39.59375 43.09375 43.984375 
Q 39.0625 48.390625 32.421875 48.390625 
Q 24.90625 48.390625 20.390625 44.140625 
Q 15.875 39.890625 15.1875 32.171875 
z
" id="DejaVuSans-65"/>
      <path d="M 2.984375 54.6875 
L 12.5 54.6875 
L 29.59375 8.796875 
L 46.6875 54.6875 
L 56.203125 54.6875 
L 35.6875 0 
L 23.484375 0 
z
" id="DejaVuSans-76"/>
      <path d="M 34.28125 27.484375 
Q 23.390625 27.484375 19.1875 25 
Q 14.984375 22.515625 14.984375 16.5 
Q 14.984375 11.71875 18.140625 8.90625 
Q 21.296875 6.109375 26.703125 6.109375 
Q 34.1875 6.109375 38.703125 11.40625 
Q 43.21875 16.703125 43.21875 25.484375 
L 43.21875 27.484375 
z
M 52.203125 31.203125 
L 52.203125 0 
L 43.21875 0 
L 43.21875 8.296875 
Q 40.140625 3.328125 35.546875 0.953125 
Q 30.953125 -1.421875 24.3125 -1.421875 
Q 15.921875 -1.421875 10.953125 3.296875 
Q 6 8.015625 6 15.921875 
Q 6 25.140625 12.171875 29.828125 
Q 18.359375 34.515625 30.609375 34.515625 
L 43.21875 34.515625 
L 43.21875 35.40625 
Q 43.21875 41.609375 39.140625 45 
Q 35.0625 48.390625 27.6875 48.390625 
Q 23 48.390625 18.546875 47.265625 
Q 14.109375 46.140625 10.015625 43.890625 
L 10.015625 52.203125 
Q 14.9375 54.109375 19.578125 55.046875 
Q 24.21875 56 28.609375 56 
Q 40.484375 56 46.34375 49.84375 
Q 52.203125 43.703125 52.203125 31.203125 
z
" id="DejaVuSans-61"/>
      <path d="M 44.28125 53.078125 
L 44.28125 44.578125 
Q 40.484375 46.53125 36.375 47.5 
Q 32.28125 48.484375 27.875 48.484375 
Q 21.1875 48.484375 17.84375 46.4375 
Q 14.5 44.390625 14.5 40.28125 
Q 14.5 37.15625 16.890625 35.375 
Q 19.28125 33.59375 26.515625 31.984375 
L 29.59375 31.296875 
Q 39.15625 29.25 43.1875 25.515625 
Q 47.21875 21.78125 47.21875 15.09375 
Q 47.21875 7.46875 41.1875 3.015625 
Q 35.15625 -1.421875 24.609375 -1.421875 
Q 20.21875 -1.421875 15.453125 -0.5625 
Q 10.6875 0.296875 5.421875 2 
L 5.421875 11.28125 
Q 10.40625 8.6875 15.234375 7.390625 
Q 20.0625 6.109375 24.8125 6.109375 
Q 31.15625 6.109375 34.5625 8.28125 
Q 37.984375 10.453125 37.984375 14.40625 
Q 37.984375 18.0625 35.515625 20.015625 
Q 33.0625 21.96875 24.703125 23.78125 
L 21.578125 24.515625 
Q 13.234375 26.265625 9.515625 29.90625 
Q 5.8125 33.546875 5.8125 39.890625 
Q 5.8125 47.609375 11.28125 51.796875 
Q 16.75 56 26.8125 56 
Q 31.78125 56 36.171875 55.265625 
Q 40.578125 54.546875 44.28125 53.078125 
z
" id="DejaVuSans-73"/>
      <path d="M 25.390625 72.90625 
L 33.6875 72.90625 
L 8.296875 -9.28125 
L 0 -9.28125 
z
" id="DejaVuSans-2f"/>
      <path d="M 45.40625 46.390625 
L 45.40625 75.984375 
L 54.390625 75.984375 
L 54.390625 0 
L 45.40625 0 
L 45.40625 8.203125 
Q 42.578125 3.328125 38.25 0.953125 
Q 33.9375 -1.421875 27.875 -1.421875 
Q 17.96875 -1.421875 11.734375 6.484375 
Q 5.515625 14.40625 5.515625 27.296875 
Q 5.515625 40.1875 11.734375 48.09375 
Q 17.96875 56 27.875 56 
Q 33.9375 56 38.25 53.625 
Q 42.578125 51.265625 45.40625 46.390625 
z
M 14.796875 27.296875 
Q 14.796875 17.390625 18.875 11.75 
Q 22.953125 6.109375 30.078125 6.109375 
Q 37.203125 6.109375 41.296875 11.75 
Q 45.40625 17.390625 45.40625 27.296875 
Q 45.40625 37.203125 41.296875 42.84375 
Q 37.203125 48.484375 30.078125 48.484375 
Q 22.953125 48.484375 18.875 42.84375 
Q 14.796875 37.203125 14.796875 27.296875 
z
" id="DejaVuSans-64"/>
      <path d="M 9.421875 54.6875 
L 18.40625 54.6875 
L 18.40625 0 
L 9.421875 0 
z
M 9.421875 75.984375 
L 18.40625 75.984375 
L 18.40625 64.59375 
L 9.421875 64.59375 
z
" id="DejaVuSans-69"/>
      <path d="M 52 44.1875 
Q 55.375 50.25 60.0625 53.125 
Q 64.75 56 71.09375 56 
Q 79.640625 56 84.28125 50.015625 
Q 88.921875 44.046875 88.921875 33.015625 
L 88.921875 0 
L 79.890625 0 
L 79.890625 32.71875 
Q 79.890625 40.578125 77.09375 44.375 
Q 74.3125 48.1875 68.609375 48.1875 
Q 61.625 48.1875 57.5625 43.546875 
Q 53.515625 38.921875 53.515625 30.90625 
L 53.515625 0 
L 44.484375 0 
L 44.484375 32.71875 
Q 44.484375 40.625 41.703125 44.40625 
Q 38.921875 48.1875 33.109375 48.1875 
Q 26.21875 48.1875 22.15625 43.53125 
Q 18.109375 38.875 18.109375 30.90625 
L 18.109375 0 
L 9.078125 0 
L 9.078125 54.6875 
L 18.109375 54.6875 
L 18.109375 46.1875 
Q 21.1875 51.21875 25.484375 53.609375 
Q 29.78125 56 35.6875 56 
Q 41.65625 56 45.828125 52.96875 
Q 50 49.953125 52 44.1875 
z
" id="DejaVuSans-6d"/>
      <path d="M 54.890625 33.015625 
L 54.890625 0 
L 45.90625 0 
L 45.90625 32.71875 
Q 45.90625 40.484375 42.875 44.328125 
Q 39.84375 48.1875 33.796875 48.1875 
Q 26.515625 48.1875 22.3125 43.546875 
Q 18.109375 38.921875 18.109375 30.90625 
L 18.109375 0 
L 9.078125 0 
L 9.078125 54.6875 
L 18.109375 54.6875 
L 18.109375 46.1875 
Q 21.34375 51.125 25.703125 53.5625 
Q 30.078125 56 35.796875 56 
Q 45.21875 56 50.046875 50.171875 
Q 54.890625 44.34375 54.890625 33.015625 
z
" id="DejaVuSans-6e"/>
      <path d="M 8.015625 75.875 
L 15.828125 75.875 
Q 23.140625 64.359375 26.78125 53.3125 
Q 30.421875 42.28125 30.421875 31.390625 
Q 30.421875 20.453125 26.78125 9.375 
Q 23.140625 -1.703125 15.828125 -13.1875 
L 8.015625 -13.1875 
Q 14.5 -2 17.703125 9.0625 
Q 20.90625 20.125 20.90625 31.390625 
Q 20.90625 42.671875 17.703125 53.65625 
Q 14.5 64.65625 8.015625 75.875 
z
" id="DejaVuSans-29"/>
     </defs>
     <g transform="translate(73.803219 338.153594)scale(0.17 -0.17)">
      <use xlink:href="#DejaVuSans-6c"/>
      <use x="27.783203" xlink:href="#DejaVuSans-6f"/>
      <use x="88.964844" xlink:href="#DejaVuSans-67"/>
      <use x="152.441406" xlink:href="#DejaVuSans-31"/>
      <use x="216.064453" xlink:href="#DejaVuSans-30"/>
      <use x="279.6875" xlink:href="#DejaVuSans-28"/>
      <use x="318.701172" xlink:href="#DejaVuSans-23"/>
      <use x="402.490234" xlink:href="#DejaVuSans-20"/>
      <use x="434.277344" xlink:href="#DejaVuSans-66"/>
      <use x="469.404297" xlink:href="#DejaVuSans-2d"/>
      <use x="505.488281" xlink:href="#DejaVuSans-65"/>
      <use x="567.011719" xlink:href="#DejaVuSans-76"/>
      <use x="626.191406" xlink:href="#DejaVuSans-61"/>
      <use x="687.470703" xlink:href="#DejaVuSans-6c"/>
      <use x="715.253906" xlink:href="#DejaVuSans-73"/>
      <use x="767.353516" xlink:href="#DejaVuSans-20"/>
      <use x="799.140625" xlink:href="#DejaVuSans-2f"/>
      <use x="832.832031" xlink:href="#DejaVuSans-20"/>
      <use x="864.619141" xlink:href="#DejaVuSans-64"/>
      <use x="928.095703" xlink:href="#DejaVuSans-69"/>
      <use x="955.878906" xlink:href="#DejaVuSans-6d"/>
      <use x="1053.291016" xlink:href="#DejaVuSans-65"/>
      <use x="1114.814453" xlink:href="#DejaVuSans-6e"/>
      <use x="1178.193359" xlink:href="#DejaVuSans-73"/>
      <use x="1230.292969" xlink:href="#DejaVuSans-69"/>
      <use x="1258.076172" xlink:href="#DejaVuSans-6f"/>
      <use x="1319.257812" xlink:href="#DejaVuSans-6e"/>
      <use x="1382.636719" xlink:href="#DejaVuSans-29"/>
     </g>
    </g>
   </g>
   <g id="matplotlib.axis_2">
    <g id="ytick_1">
     <g id="line2d_25">
      <path clip-path="url(#p7ec79e51bb)" d="M 56.12 294.88 
L 333.168 294.88 
" style="fill:none;stroke:#b0b0b0;stroke-linecap:square;stroke-width:0.8;"/>
     </g>
     <g id="line2d_26">
      <defs>
       <path d="M 0 0 
L -3.5 0 
" id="m19325222fe" style="stroke:#000000;stroke-width:0.8;"/>
      </defs>
      <g>
       <use style="stroke:#000000;stroke-width:0.8;" x="56.12" xlink:href="#m19325222fe" y="294.88"/>
      </g>
     </g>
     <g id="text_6">
      <!-- 0.0 -->
      <defs>
       <path d="M 10.6875 12.40625 
L 21 12.40625 
L 21 0 
L 10.6875 0 
z
" id="DejaVuSans-2e"/>
      </defs>
      <g transform="translate(23.675 300.95875)scale(0.16 -0.16)">
       <use xlink:href="#DejaVuSans-30"/>
       <use x="63.623047" xlink:href="#DejaVuSans-2e"/>
       <use x="95.410156" xlink:href="#DejaVuSans-30"/>
      </g>
     </g>
    </g>
    <g id="ytick_2">
     <g id="line2d_27">
      <path clip-path="url(#p7ec79e51bb)" d="M 56.12 237.843411 
L 333.168 237.843411 
" style="fill:none;stroke:#b0b0b0;stroke-linecap:square;stroke-width:0.8;"/>
     </g>
     <g id="line2d_28">
      <g>
       <use style="stroke:#000000;stroke-width:0.8;" x="56.12" xlink:href="#m19325222fe" y="237.843411"/>
      </g>
     </g>
     <g id="text_7">
      <!-- 0.2 -->
      <g transform="translate(23.675 243.922161)scale(0.16 -0.16)">
       <use xlink:href="#DejaVuSans-30"/>
       <use x="63.623047" xlink:href="#DejaVuSans-2e"/>
       <use x="95.410156" xlink:href="#DejaVuSans-32"/>
      </g>
     </g>
    </g>
    <g id="ytick_3">
     <g id="line2d_29">
      <path clip-path="url(#p7ec79e51bb)" d="M 56.12 180.806823 
L 333.168 180.806823 
" style="fill:none;stroke:#b0b0b0;stroke-linecap:square;stroke-width:0.8;"/>
     </g>
     <g id="line2d_30">
      <g>
       <use style="stroke:#000000;stroke-width:0.8;" x="56.12" xlink:href="#m19325222fe" y="180.806823"/>
      </g>
     </g>
     <g id="text_8">
      <!-- 0.4 -->
      <g transform="translate(23.675 186.885573)scale(0.16 -0.16)">
       <use xlink:href="#DejaVuSans-30"/>
       <use x="63.623047" xlink:href="#DejaVuSans-2e"/>
       <use x="95.410156" xlink:href="#DejaVuSans-34"/>
      </g>
     </g>
    </g>
    <g id="ytick_4">
     <g id="line2d_31">
      <path clip-path="url(#p7ec79e51bb)" d="M 56.12 123.770234 
L 333.168 123.770234 
" style="fill:none;stroke:#b0b0b0;stroke-linecap:square;stroke-width:0.8;"/>
     </g>
     <g id="line2d_32">
      <g>
       <use style="stroke:#000000;stroke-width:0.8;" x="56.12" xlink:href="#m19325222fe" y="123.770234"/>
      </g>
     </g>
     <g id="text_9">
      <!-- 0.6 -->
      <g transform="translate(23.675 129.848984)scale(0.16 -0.16)">
       <use xlink:href="#DejaVuSans-30"/>
       <use x="63.623047" xlink:href="#DejaVuSans-2e"/>
       <use x="95.410156" xlink:href="#DejaVuSans-36"/>
      </g>
     </g>
    </g>
    <g id="ytick_5">
     <g id="line2d_33">
      <path clip-path="url(#p7ec79e51bb)" d="M 56.12 66.733646 
L 333.168 66.733646 
" style="fill:none;stroke:#b0b0b0;stroke-linecap:square;stroke-width:0.8;"/>
     </g>
     <g id="line2d_34">
      <g>
       <use style="stroke:#000000;stroke-width:0.8;" x="56.12" xlink:href="#m19325222fe" y="66.733646"/>
      </g>
     </g>
     <g id="text_10">
      <!-- 0.8 -->
      <defs>
       <path d="M 31.78125 34.625 
Q 24.75 34.625 20.71875 30.859375 
Q 16.703125 27.09375 16.703125 20.515625 
Q 16.703125 13.921875 20.71875 10.15625 
Q 24.75 6.390625 31.78125 6.390625 
Q 38.8125 6.390625 42.859375 10.171875 
Q 46.921875 13.96875 46.921875 20.515625 
Q 46.921875 27.09375 42.890625 30.859375 
Q 38.875 34.625 31.78125 34.625 
z
M 21.921875 38.8125 
Q 15.578125 40.375 12.03125 44.71875 
Q 8.5 49.078125 8.5 55.328125 
Q 8.5 64.0625 14.71875 69.140625 
Q 20.953125 74.21875 31.78125 74.21875 
Q 42.671875 74.21875 48.875 69.140625 
Q 55.078125 64.0625 55.078125 55.328125 
Q 55.078125 49.078125 51.53125 44.71875 
Q 48 40.375 41.703125 38.8125 
Q 48.828125 37.15625 52.796875 32.3125 
Q 56.78125 27.484375 56.78125 20.515625 
Q 56.78125 9.90625 50.3125 4.234375 
Q 43.84375 -1.421875 31.78125 -1.421875 
Q 19.734375 -1.421875 13.25 4.234375 
Q 6.78125 9.90625 6.78125 20.515625 
Q 6.78125 27.484375 10.78125 32.3125 
Q 14.796875 37.15625 21.921875 38.8125 
z
M 18.3125 54.390625 
Q 18.3125 48.734375 21.84375 45.5625 
Q 25.390625 42.390625 31.78125 42.390625 
Q 38.140625 42.390625 41.71875 45.5625 
Q 45.3125 48.734375 45.3125 54.390625 
Q 45.3125 60.0625 41.71875 63.234375 
Q 38.140625 66.40625 31.78125 66.40625 
Q 25.390625 66.40625 21.84375 63.234375 
Q 18.3125 60.0625 18.3125 54.390625 
z
" id="DejaVuSans-38"/>
      </defs>
      <g transform="translate(23.675 72.812396)scale(0.16 -0.16)">
       <use xlink:href="#DejaVuSans-30"/>
       <use x="63.623047" xlink:href="#DejaVuSans-2e"/>
       <use x="95.410156" xlink:href="#DejaVuSans-38"/>
      </g>
     </g>
    </g>
    <g id="ytick_6">
     <g id="line2d_35">
      <path clip-path="url(#p7ec79e51bb)" d="M 56.12 9.697057 
L 333.168 9.697057 
" style="fill:none;stroke:#b0b0b0;stroke-linecap:square;stroke-width:0.8;"/>
     </g>
     <g id="line2d_36">
      <g>
       <use style="stroke:#000000;stroke-width:0.8;" x="56.12" xlink:href="#m19325222fe" y="9.697057"/>
      </g>
     </g>
     <g id="text_11">
      <!-- 1.0 -->
      <g transform="translate(23.675 15.775807)scale(0.16 -0.16)">
       <use xlink:href="#DejaVuSans-31"/>
       <use x="63.623047" xlink:href="#DejaVuSans-2e"/>
       <use x="95.410156" xlink:href="#DejaVuSans-30"/>
      </g>
     </g>
    </g>
    <g id="text_12">
     <!-- Fraction of function,target pairs -->
     <defs>
      <path d="M 9.8125 72.90625 
L 51.703125 72.90625 
L 51.703125 64.59375 
L 19.671875 64.59375 
L 19.671875 43.109375 
L 48.578125 43.109375 
L 48.578125 34.8125 
L 19.671875 34.8125 
L 19.671875 0 
L 9.8125 0 
z
" id="DejaVuSans-46"/>
      <path d="M 41.109375 46.296875 
Q 39.59375 47.171875 37.8125 47.578125 
Q 36.03125 48 33.890625 48 
Q 26.265625 48 22.1875 43.046875 
Q 18.109375 38.09375 18.109375 28.8125 
L 18.109375 0 
L 9.078125 0 
L 9.078125 54.6875 
L 18.109375 54.6875 
L 18.109375 46.1875 
Q 20.953125 51.171875 25.484375 53.578125 
Q 30.03125 56 36.53125 56 
Q 37.453125 56 38.578125 55.875 
Q 39.703125 55.765625 41.0625 55.515625 
z
" id="DejaVuSans-72"/>
      <path d="M 48.78125 52.59375 
L 48.78125 44.1875 
Q 44.96875 46.296875 41.140625 47.34375 
Q 37.3125 48.390625 33.40625 48.390625 
Q 24.65625 48.390625 19.8125 42.84375 
Q 14.984375 37.3125 14.984375 27.296875 
Q 14.984375 17.28125 19.8125 11.734375 
Q 24.65625 6.203125 33.40625 6.203125 
Q 37.3125 6.203125 41.140625 7.25 
Q 44.96875 8.296875 48.78125 10.40625 
L 48.78125 2.09375 
Q 45.015625 0.34375 40.984375 -0.53125 
Q 36.96875 -1.421875 32.421875 -1.421875 
Q 20.0625 -1.421875 12.78125 6.34375 
Q 5.515625 14.109375 5.515625 27.296875 
Q 5.515625 40.671875 12.859375 48.328125 
Q 20.21875 56 33.015625 56 
Q 37.15625 56 41.109375 55.140625 
Q 45.0625 54.296875 48.78125 52.59375 
z
" id="DejaVuSans-63"/>
      <path d="M 18.3125 70.21875 
L 18.3125 54.6875 
L 36.8125 54.6875 
L 36.8125 47.703125 
L 18.3125 47.703125 
L 18.3125 18.015625 
Q 18.3125 11.328125 20.140625 9.421875 
Q 21.96875 7.515625 27.59375 7.515625 
L 36.8125 7.515625 
L 36.8125 0 
L 27.59375 0 
Q 17.1875 0 13.234375 3.875 
Q 9.28125 7.765625 9.28125 18.015625 
L 9.28125 47.703125 
L 2.6875 47.703125 
L 2.6875 54.6875 
L 9.28125 54.6875 
L 9.28125 70.21875 
z
" id="DejaVuSans-74"/>
      <path d="M 8.5 21.578125 
L 8.5 54.6875 
L 17.484375 54.6875 
L 17.484375 21.921875 
Q 17.484375 14.15625 20.5 10.265625 
Q 23.53125 6.390625 29.59375 6.390625 
Q 36.859375 6.390625 41.078125 11.03125 
Q 45.3125 15.671875 45.3125 23.6875 
L 45.3125 54.6875 
L 54.296875 54.6875 
L 54.296875 0 
L 45.3125 0 
L 45.3125 8.40625 
Q 42.046875 3.421875 37.71875 1 
Q 33.40625 -1.421875 27.6875 -1.421875 
Q 18.265625 -1.421875 13.375 4.4375 
Q 8.5 10.296875 8.5 21.578125 
z
M 31.109375 56 
z
" id="DejaVuSans-75"/>
      <path d="M 11.71875 12.40625 
L 22.015625 12.40625 
L 22.015625 4 
L 14.015625 -11.625 
L 7.71875 -11.625 
L 11.71875 4 
z
" id="DejaVuSans-2c"/>
      <path d="M 18.109375 8.203125 
L 18.109375 -20.796875 
L 9.078125 -20.796875 
L 9.078125 54.6875 
L 18.109375 54.6875 
L 18.109375 46.390625 
Q 20.953125 51.265625 25.265625 53.625 
Q 29.59375 56 35.59375 56 
Q 45.5625 56 51.78125 48.09375 
Q 58.015625 40.1875 58.015625 27.296875 
Q 58.015625 14.40625 51.78125 6.484375 
Q 45.5625 -1.421875 35.59375 -1.421875 
Q 29.59375 -1.421875 25.265625 0.953125 
Q 20.953125 3.328125 18.109375 8.203125 
z
M 48.6875 27.296875 
Q 48.6875 37.203125 44.609375 42.84375 
Q 40.53125 48.484375 33.40625 48.484375 
Q 26.265625 48.484375 22.1875 42.84375 
Q 18.109375 37.203125 18.109375 27.296875 
Q 18.109375 17.390625 22.1875 11.75 
Q 26.265625 6.109375 33.40625 6.109375 
Q 40.53125 6.109375 44.609375 11.75 
Q 48.6875 17.390625 48.6875 27.296875 
z
" id="DejaVuSans-70"/>
     </defs>
     <g transform="translate(16.139531 286.001989)rotate(-90)scale(0.17 -0.17)">
      <use xlink:href="#DejaVuSans-46"/>
      <use x="57.410156" xlink:href="#DejaVuSans-72"/>
      <use x="98.523438" xlink:href="#DejaVuSans-61"/>
      <use x="159.802734" xlink:href="#DejaVuSans-63"/>
      <use x="214.783203" xlink:href="#DejaVuSans-74"/>
      <use x="253.992188" xlink:href="#DejaVuSans-69"/>
      <use x="281.775391" xlink:href="#DejaVuSans-6f"/>
      <use x="342.957031" xlink:href="#DejaVuSans-6e"/>
      <use x="406.335938" xlink:href="#DejaVuSans-20"/>
      <use x="438.123047" xlink:href="#DejaVuSans-6f"/>
      <use x="499.304688" xlink:href="#DejaVuSans-66"/>
      <use x="534.509766" xlink:href="#DejaVuSans-20"/>
      <use x="566.296875" xlink:href="#DejaVuSans-66"/>
      <use x="601.501953" xlink:href="#DejaVuSans-75"/>
      <use x="664.880859" xlink:href="#DejaVuSans-6e"/>
      <use x="728.259766" xlink:href="#DejaVuSans-63"/>
      <use x="783.240234" xlink:href="#DejaVuSans-74"/>
      <use x="822.449219" xlink:href="#DejaVuSans-69"/>
      <use x="850.232422" xlink:href="#DejaVuSans-6f"/>
      <use x="911.414062" xlink:href="#DejaVuSans-6e"/>
      <use x="974.792969" xlink:href="#DejaVuSans-2c"/>
      <use x="1006.580078" xlink:href="#DejaVuSans-74"/>
      <use x="1045.789062" xlink:href="#DejaVuSans-61"/>
      <use x="1107.068359" xlink:href="#DejaVuSans-72"/>
      <use x="1148.166016" xlink:href="#DejaVuSans-67"/>
      <use x="1211.642578" xlink:href="#DejaVuSans-65"/>
      <use x="1273.166016" xlink:href="#DejaVuSans-74"/>
      <use x="1312.375" xlink:href="#DejaVuSans-20"/>
      <use x="1344.162109" xlink:href="#DejaVuSans-70"/>
      <use x="1407.638672" xlink:href="#DejaVuSans-61"/>
      <use x="1468.917969" xlink:href="#DejaVuSans-69"/>
      <use x="1496.701172" xlink:href="#DejaVuSans-72"/>
      <use x="1537.814453" xlink:href="#DejaVuSans-73"/>
     </g>
    </g>
   </g>
   <g id="line2d_37">
    <defs>
     <path d="M 0 1.5 
C 0.397805 1.5 0.77937 1.341951 1.06066 1.06066 
C 1.341951 0.77937 1.5 0.397805 1.5 0 
C 1.5 -0.397805 1.341951 -0.77937 1.06066 -1.06066 
C 0.77937 -1.341951 0.397805 -1.5 0 -1.5 
C -0.397805 -1.5 -0.77937 -1.341951 -1.06066 -1.06066 
C -1.341951 -0.77937 -1.5 -0.397805 -1.5 0 
C -1.5 0.397805 -1.341951 0.77937 -1.06066 1.06066 
C -0.77937 1.341951 -0.397805 1.5 0 1.5 
z
" id="m5966930e7c" style="stroke:#000080;"/>
    </defs>
    <g>
     <use style="fill:#000080;stroke:#000080;" x="68.872887" xlink:href="#m5966930e7c" y="9.697057"/>
     <use style="fill:#000080;stroke:#000080;" x="68.872887" xlink:href="#m5966930e7c" y="9.697057"/>
    </g>
   </g>
   <g id="line2d_38">
    <path d="M 68.872887 294.88 
L 68.872887 9.697057 
L 333.168 9.697057 
" style="fill:none;stroke:#000080;stroke-linecap:square;stroke-width:1.5;"/>
   </g>
   <g id="line2d_39">
    <defs>
     <path d="M 0 6 
C 1.591219 6 3.117479 5.367802 4.242641 4.242641 
C 5.367802 3.117479 6 1.591219 6 0 
C 6 -1.591219 5.367802 -3.117479 4.242641 -4.242641 
C 3.117479 -5.367802 1.591219 -6 0 -6 
C -1.591219 -6 -3.117479 -5.367802 -4.242641 -4.242641 
C -5.367802 -3.117479 -6 -1.591219 -6 0 
C -6 1.591219 -5.367802 3.117479 -4.242641 4.242641 
C -3.117479 5.367802 -1.591219 6 0 6 
z
" id="m2848fc35ff" style="stroke:#000080;stroke-width:1.5;"/>
    </defs>
    <g>
     <use style="fill-opacity:0;stroke:#000080;stroke-width:1.5;" x="68.872887" xlink:href="#m2848fc35ff" y="294.88"/>
     <use style="fill-opacity:0;stroke:#000080;stroke-width:1.5;" x="68.872887" xlink:href="#m2848fc35ff" y="294.88"/>
     <use style="fill-opacity:0;stroke:#000080;stroke-width:1.5;" x="68.872887" xlink:href="#m2848fc35ff" y="9.697057"/>
     <use style="fill-opacity:0;stroke:#000080;stroke-width:1.5;" x="68.872887" xlink:href="#m2848fc35ff" y="9.697057"/>
     <use style="fill-opacity:0;stroke:#000080;stroke-width:1.5;" x="333.168" xlink:href="#m2848fc35ff" y="9.697057"/>
    </g>
   </g>
   <g id="line2d_40">
    <path style="fill:none;stroke:#000080;stroke-linecap:square;stroke-width:1.5;"/>
    <g/>
   </g>
   <g id="line2d_41">
    <defs>
     <path d="M 0 1.5 
C 0.397805 1.5 0.77937 1.341951 1.06066 1.06066 
C 1.341951 0.77937 1.5 0.397805 1.5 0 
C 1.5 -0.397805 1.341951 -0.77937 1.06066 -1.06066 
C 0.77937 -1.341951 0.397805 -1.5 0 -1.5 
C -0.397805 -1.5 -0.77937 -1.341951 -1.06066 -1.06066 
C -1.341951 -0.77937 -1.5 -0.397805 -1.5 0 
C -1.5 0.397805 -1.341951 0.77937 -1.06066 1.06066 
C -0.77937 1.341951 -0.397805 1.5 0 1.5 
z
" id="m5eb8ce77d4" style="stroke:#ff00ff;"/>
    </defs>
    <g>
     <use style="fill:#ff00ff;stroke:#ff00ff;" x="153.43166" xlink:href="#m5eb8ce77d4" y="9.697057"/>
     <use style="fill:#ff00ff;stroke:#ff00ff;" x="153.43166" xlink:href="#m5eb8ce77d4" y="9.697057"/>
    </g>
   </g>
   <g id="line2d_42">
    <path d="M 130.14738 294.88 
L 130.14738 294.320818 
L 131.279136 294.320818 
L 131.279136 293.761636 
L 131.558807 293.761636 
L 131.558807 293.202453 
L 131.875949 293.202453 
L 131.875949 292.643271 
L 132.073821 292.643271 
L 132.073821 292.084089 
L 132.583907 292.084089 
L 132.644112 289.84736 
L 132.813558 289.84736 
L 132.813558 289.288178 
L 133.069522 289.288178 
L 133.176677 287.610631 
L 133.283168 287.610631 
L 133.283168 287.051449 
L 133.513248 287.051449 
L 133.617681 284.81472 
L 133.636601 284.81472 
L 133.636601 284.255537 
L 133.759075 284.255537 
L 133.777839 283.137173 
L 133.936519 283.137173 
L 133.936519 282.577991 
L 134.056882 282.577991 
L 134.130534 279.222897 
L 134.213018 279.222897 
L 134.322384 275.867804 
L 134.412994 275.867804 
L 134.440084 274.190257 
L 134.530077 274.190257 
L 134.628528 270.275981 
L 134.664189 270.275981 
L 134.744157 269.157617 
L 134.806098 269.157617 
L 134.88541 268.039252 
L 134.973107 268.039252 
L 135.06906 266.361706 
L 135.233546 266.361706 
L 135.233546 265.802523 
L 135.447604 265.802523 
L 135.549413 263.006612 
L 135.625375 263.006612 
L 135.692617 260.769883 
L 135.925913 260.769883 
L 136.033161 258.533154 
L 136.066027 258.533154 
L 136.147917 256.855608 
L 136.188716 256.855608 
L 136.245672 254.618879 
L 136.35095 254.618879 
L 136.447561 252.38215 
L 136.495664 252.38215 
L 136.495664 251.263785 
L 136.623283 251.263785 
L 136.734178 249.027056 
L 136.860045 249.027056 
L 136.922634 247.908692 
L 137.12449 247.908692 
L 137.12449 246.790327 
L 137.285815 246.790327 
L 137.346876 243.994416 
L 137.438063 243.994416 
L 137.543839 242.316869 
L 137.618997 242.316869 
L 137.656453 240.639323 
L 137.938484 240.639323 
L 138.04855 238.961776 
L 138.063173 238.961776 
L 138.143374 237.843411 
L 138.295455 237.843411 
L 138.38893 236.725047 
L 138.517524 236.725047 
L 138.517524 235.0475 
L 138.652226 235.0475 
L 138.743787 233.369954 
L 138.925457 233.369954 
L 138.994822 230.01486 
L 139.098347 230.01486 
L 139.125849 227.218949 
L 139.22176 227.218949 
L 139.262702 225.541402 
L 139.4255 225.541402 
L 139.519758 223.863855 
L 139.566694 223.863855 
L 139.586771 222.186309 
L 139.680151 222.186309 
L 139.713379 219.94958 
L 139.825874 219.94958 
L 139.871983 218.831215 
L 140.003044 218.831215 
L 140.003044 218.272033 
L 140.139592 218.272033 
L 140.204235 215.476122 
L 140.268636 215.476122 
L 140.313574 214.357757 
L 140.599687 214.357757 
L 140.706546 211.002664 
L 140.843857 211.002664 
L 140.893517 209.325117 
L 140.980078 209.325117 
L 141.060069 205.410841 
L 141.182408 205.410841 
L 141.273595 202.055748 
L 141.358268 202.055748 
L 141.460528 198.141472 
L 141.490489 198.141472 
L 141.490489 197.58229 
L 141.657312 197.58229 
L 141.734219 195.904743 
L 141.804906 195.904743 
L 141.910394 190.872103 
L 142.113674 190.872103 
L 142.142519 189.753739 
L 142.257417 189.753739 
L 142.291737 187.51701 
L 142.569482 187.51701 
L 142.675983 183.602734 
L 142.709478 183.602734 
L 142.815118 181.366005 
L 142.870458 181.366005 
L 142.969623 179.688458 
L 143.051826 179.688458 
L 143.090054 178.010912 
L 143.242118 178.010912 
L 143.274529 176.892547 
L 143.36603 176.892547 
L 143.403566 175.215 
L 143.499711 175.215 
L 143.595322 172.978271 
L 143.627074 172.978271 
L 143.727238 169.623178 
L 143.758748 169.623178 
L 143.758748 169.063996 
L 143.931027 169.063996 
L 143.962166 167.945631 
L 144.055246 167.945631 
L 144.163205 165.14972 
L 144.239906 165.14972 
L 144.346715 162.353809 
L 144.366985 162.353809 
L 144.407453 158.998715 
L 144.523269 158.998715 
L 144.553354 157.321169 
L 144.648278 157.321169 
L 144.702995 156.202804 
L 144.806974 156.202804 
L 144.90542 152.847711 
L 144.973998 152.847711 
L 145.056906 149.492617 
L 145.115189 149.492617 
L 145.139415 147.255888 
L 145.231165 147.255888 
L 145.322428 145.019159 
L 145.351148 145.019159 
L 145.43226 143.341613 
L 145.503514 143.341613 
L 145.579193 140.545702 
L 145.678019 140.545702 
L 145.771614 137.74979 
L 145.827527 137.74979 
L 145.827527 137.190608 
L 146.012601 137.190608 
L 146.05397 134.953879 
L 146.163802 134.953879 
L 146.254795 131.598786 
L 146.390389 131.598786 
L 146.489148 127.125328 
L 146.542779 127.125328 
L 146.636232 124.888599 
L 146.702675 124.888599 
L 146.812844 122.65187 
L 146.922312 122.65187 
L 147.005044 119.855959 
L 147.035425 119.855959 
L 147.070079 117.61923 
L 147.177926 117.61923 
L 147.267998 115.941683 
L 147.314991 115.941683 
L 147.340569 114.264136 
L 147.531203 114.264136 
L 147.619447 109.790678 
L 147.70724 109.790678 
L 147.744729 105.31722 
L 147.877364 105.31722 
L 147.972068 101.962127 
L 147.988485 101.962127 
L 148.082579 100.843762 
L 148.111115 100.843762 
L 148.212643 97.488669 
L 148.257126 97.488669 
L 148.365826 94.133576 
L 148.401907 94.133576 
L 148.509698 89.660118 
L 148.573257 89.660118 
L 148.683922 86.305024 
L 148.6918 86.305024 
L 148.797794 82.390748 
L 148.83298 82.390748 
L 148.871992 80.713202 
L 149.100377 80.713202 
L 149.192418 76.798926 
L 149.226807 76.798926 
L 149.314378 75.121379 
L 149.409061 75.121379 
L 149.49571 71.207104 
L 149.521996 71.207104 
L 149.604345 69.529557 
L 149.634193 69.529557 
L 149.708587 67.85201 
L 149.856415 67.85201 
L 149.966458 63.937735 
L 149.977424 63.937735 
L 150.061262 62.81937 
L 150.104842 62.81937 
L 150.209706 59.464277 
L 150.24212 59.464277 
L 150.342576 53.872454 
L 150.389017 53.872454 
L 150.428216 52.194907 
L 150.584123 52.194907 
L 150.689618 48.280632 
L 150.696628 48.280632 
L 150.790985 45.484721 
L 150.864017 45.484721 
L 150.964364 40.45208 
L 151.009158 40.45208 
L 151.108663 38.774534 
L 151.159906 38.774534 
L 151.261936 35.41944 
L 151.305962 35.41944 
L 151.403768 32.623529 
L 151.444078 32.623529 
L 151.55111 29.268436 
L 151.607701 29.268436 
L 151.693893 28.150071 
L 151.753312 28.150071 
L 151.858442 24.794978 
L 151.8977 24.794978 
L 151.985705 21.439884 
L 152.053843 21.439884 
L 152.066791 20.32152 
L 152.170027 20.32152 
L 152.279039 18.643973 
L 152.282235 18.643973 
L 152.365118 15.848062 
L 152.438106 15.848062 
L 152.491855 14.729697 
L 152.573736 14.729697 
L 152.633326 13.611333 
L 152.705186 13.611333 
L 152.742559 12.492968 
L 153.014176 12.492968 
L 153.075313 11.374604 
L 153.160541 11.374604 
L 153.160541 10.815422 
L 153.338757 10.815422 
L 153.43166 9.697057 
L 333.168 9.697057 
L 333.168 9.697057 
" style="fill:none;stroke:#ff00ff;stroke-linecap:square;stroke-width:1.5;"/>
   </g>
   <g id="line2d_43">
    <defs>
     <path d="M -0 8.485281 
L 5.091169 0 
L 0 -8.485281 
L -5.091169 -0 
z
" id="m86f700b334" style="stroke:#ff00ff;stroke-linejoin:miter;stroke-width:1.5;"/>
    </defs>
    <g>
     <use style="fill-opacity:0;stroke:#ff00ff;stroke-linejoin:miter;stroke-width:1.5;" x="145.678019" xlink:href="#m86f700b334" y="139.986519"/>
     <use style="fill-opacity:0;stroke:#ff00ff;stroke-linejoin:miter;stroke-width:1.5;" x="153.43166" xlink:href="#m86f700b334" y="10.256239"/>
     <use style="fill-opacity:0;stroke:#ff00ff;stroke-linejoin:miter;stroke-width:1.5;" x="153.43166" xlink:href="#m86f700b334" y="9.697057"/>
     <use style="fill-opacity:0;stroke:#ff00ff;stroke-linejoin:miter;stroke-width:1.5;" x="153.43166" xlink:href="#m86f700b334" y="9.697057"/>
     <use style="fill-opacity:0;stroke:#ff00ff;stroke-linejoin:miter;stroke-width:1.5;" x="333.168" xlink:href="#m86f700b334" y="9.697057"/>
    </g>
   </g>
   <g id="line2d_44">
    <path style="fill:none;stroke:#ff00ff;stroke-linecap:square;stroke-width:1.5;"/>
    <g/>
   </g>
   <g id="line2d_45">
    <defs>
     <path d="M 0 1.5 
C 0.397805 1.5 0.77937 1.341951 1.06066 1.06066 
C 1.341951 0.77937 1.5 0.397805 1.5 0 
C 1.5 -0.397805 1.341951 -0.77937 1.06066 -1.06066 
C 0.77937 -1.341951 0.397805 -1.5 0 -1.5 
C -0.397805 -1.5 -0.77937 -1.341951 -1.06066 -1.06066 
C -1.341951 -0.77937 -1.5 -0.397805 -1.5 0 
C -1.5 0.397805 -1.341951 0.77937 -1.06066 1.06066 
C -0.77937 1.341951 -0.397805 1.5 0 1.5 
z
" id="m3d4b751af4" style="stroke:#ff7500;"/>
    </defs>
    <g>
     <use style="fill:#ff7500;stroke:#ff7500;" x="196.737423" xlink:href="#m3d4b751af4" y="9.697057"/>
     <use style="fill:#ff7500;stroke:#ff7500;" x="196.737423" xlink:href="#m3d4b751af4" y="9.697057"/>
    </g>
   </g>
   <g id="line2d_46">
    <path d="M 141.997809 294.88 
L 141.997809 294.320818 
L 148.821259 294.320818 
L 148.821259 293.761636 
L 151.484293 293.761636 
L 151.484293 293.202453 
L 155.411299 293.202453 
L 155.411299 292.643271 
L 157.183902 292.643271 
L 157.183902 292.084089 
L 157.375048 292.084089 
L 157.375048 291.524907 
L 158.795048 291.524907 
L 158.795048 290.965724 
L 160.082296 290.965724 
L 160.082296 290.406542 
L 160.394075 290.406542 
L 160.394075 289.84736 
L 162.141973 289.84736 
L 162.141973 289.288178 
L 162.942325 289.288178 
L 162.942325 288.728995 
L 164.198084 288.728995 
L 164.198084 288.169813 
L 165.972462 288.169813 
L 165.972462 287.610631 
L 166.756876 287.610631 
L 166.756876 287.051449 
L 167.431768 287.051449 
L 167.431768 286.492266 
L 167.998112 286.492266 
L 167.998112 285.933084 
L 168.16 285.933084 
L 168.16 285.373902 
L 169.309484 285.373902 
L 169.309484 284.81472 
L 169.731456 284.81472 
L 169.731456 284.255537 
L 170.177197 284.255537 
L 170.177197 283.696355 
L 170.348956 283.696355 
L 170.348956 283.137173 
L 171.914141 283.137173 
L 171.914141 282.577991 
L 173.402948 282.577991 
L 173.402948 282.018808 
L 173.56583 282.018808 
L 173.56583 281.459626 
L 174.117336 281.459626 
L 174.117336 280.900444 
L 174.885769 280.900444 
L 174.885769 280.341262 
L 175.382946 280.341262 
L 175.382946 279.782079 
L 175.662362 279.782079 
L 175.662362 279.222897 
L 176.031466 279.222897 
L 176.031466 278.663715 
L 176.51263 278.663715 
L 176.51263 278.104533 
L 176.894658 278.104533 
L 176.894658 277.545351 
L 177.113084 277.545351 
L 177.113084 276.986168 
L 177.962196 276.986168 
L 177.962196 276.426986 
L 179.369828 276.426986 
L 179.369828 275.867804 
L 179.778649 275.867804 
L 179.778649 275.308622 
L 179.936041 275.308622 
L 179.936041 274.749439 
L 180.211359 274.749439 
L 180.211359 274.190257 
L 180.615626 274.190257 
L 180.615626 273.631075 
L 180.785666 273.631075 
L 180.785666 273.071893 
L 181.974846 273.071893 
L 181.974846 272.51271 
L 182.479656 272.51271 
L 182.562186 271.394346 
L 182.822567 271.394346 
L 182.822567 270.835164 
L 183.057211 270.835164 
L 183.057211 270.275981 
L 183.27343 270.275981 
L 183.27343 269.716799 
L 183.629921 269.716799 
L 183.629921 269.157617 
L 183.819722 269.157617 
L 183.819722 268.598435 
L 183.979674 268.598435 
L 183.979674 268.039252 
L 184.697838 268.039252 
L 184.697838 267.48007 
L 185.053333 267.48007 
L 185.053333 266.920888 
L 185.799015 266.920888 
L 185.876587 265.802523 
L 186.265922 265.802523 
L 186.265922 265.243341 
L 186.522844 265.243341 
L 186.631479 263.565795 
L 187.049561 263.565795 
L 187.049561 263.006612 
L 187.602014 263.006612 
L 187.602014 262.44743 
L 187.859223 262.44743 
L 187.859223 261.888248 
L 187.9878 261.888248 
L 188.080421 260.769883 
L 188.203407 260.769883 
L 188.203407 260.210701 
L 188.410485 260.210701 
L 188.410485 259.651519 
L 188.619728 259.651519 
L 188.709398 258.533154 
L 189.198681 258.533154 
L 189.198681 257.973972 
L 189.62536 257.973972 
L 189.718274 256.296425 
L 189.885052 256.296425 
L 189.986201 254.618879 
L 189.998669 254.618879 
L 189.998669 254.059696 
L 190.494626 254.059696 
L 190.568851 252.38215 
L 190.698919 252.38215 
L 190.793703 251.263785 
L 190.919725 251.263785 
L 190.97499 250.145421 
L 191.146393 250.145421 
L 191.146393 249.586238 
L 191.364849 249.586238 
L 191.461928 247.908692 
L 191.554885 247.908692 
L 191.554885 247.34951 
L 191.688059 247.34951 
L 191.739304 246.231145 
L 191.91444 246.231145 
L 191.982792 242.876052 
L 192.060352 242.876052 
L 192.15045 241.198505 
L 192.172117 241.198505 
L 192.243517 240.08014 
L 192.345716 240.08014 
L 192.397207 238.961776 
L 192.527111 238.961776 
L 192.604706 236.165865 
L 192.65909 236.165865 
L 192.747326 232.251589 
L 192.776436 232.251589 
L 192.822123 223.863855 
L 192.8981 223.863855 
L 193.006957 218.272033 
L 193.017715 218.272033 
L 193.114534 211.561846 
L 193.154295 211.561846 
L 193.248287 200.937384 
L 193.292739 200.937384 
L 193.395334 193.668014 
L 193.43416 193.668014 
L 193.530117 185.839463 
L 193.550403 185.839463 
L 193.654643 177.451729 
L 193.669031 177.451729 
L 193.773699 162.353809 
L 193.801408 162.353809 
L 193.902439 153.966075 
L 193.924274 153.966075 
L 194.021487 148.933435 
L 194.037261 148.933435 
L 194.146433 138.308973 
L 194.168799 138.308973 
L 194.244349 133.276332 
L 194.287133 133.276332 
L 194.38646 117.060047 
L 194.41017 117.060047 
L 194.506051 105.31722 
L 194.52768 105.31722 
L 194.614472 101.962127 
L 194.638957 101.962127 
L 194.743304 94.692758 
L 194.771653 94.692758 
L 194.872518 79.594837 
L 194.88619 79.594837 
L 194.99571 71.766286 
L 195.006624 71.766286 
L 195.116174 60.023459 
L 195.128597 60.023459 
L 195.226607 53.872454 
L 195.24315 53.872454 
L 195.341033 43.247992 
L 195.366329 43.247992 
L 195.464811 37.656169 
L 195.486562 37.656169 
L 195.575094 31.505165 
L 195.607501 31.505165 
L 195.663171 28.150071 
L 195.738309 28.150071 
L 195.837731 23.676613 
L 195.867623 23.676613 
L 195.921449 21.439884 
L 196.115886 21.439884 
L 196.141811 16.966426 
L 196.282225 16.966426 
L 196.320971 15.848062 
L 196.420275 15.848062 
L 196.521932 13.052151 
L 196.55455 13.052151 
L 196.595357 10.815422 
L 196.691163 10.815422 
L 196.737423 9.697057 
L 333.168 9.697057 
L 333.168 9.697057 
" style="fill:none;stroke:#ff7500;stroke-linecap:square;stroke-width:1.5;"/>
   </g>
   <g id="line2d_47">
    <defs>
     <path d="M 0 -6 
L -1.347084 -1.854102 
L -5.706339 -1.854102 
L -2.179628 0.708204 
L -3.526712 4.854102 
L -0 2.291796 
L 3.526712 4.854102 
L 2.179628 0.708204 
L 5.706339 -1.854102 
L 1.347084 -1.854102 
z
" id="m2fdae8127b" style="stroke:#ff7500;stroke-linejoin:bevel;stroke-width:1.5;"/>
    </defs>
    <g>
     <use style="fill-opacity:0;stroke:#ff7500;stroke-linejoin:bevel;stroke-width:1.5;" x="189.62536" xlink:href="#m2fdae8127b" y="257.41479"/>
     <use style="fill-opacity:0;stroke:#ff7500;stroke-linejoin:bevel;stroke-width:1.5;" x="194.358574" xlink:href="#m2fdae8127b" y="119.855959"/>
     <use style="fill-opacity:0;stroke:#ff7500;stroke-linejoin:bevel;stroke-width:1.5;" x="196.737423" xlink:href="#m2fdae8127b" y="10.256239"/>
     <use style="fill-opacity:0;stroke:#ff7500;stroke-linejoin:bevel;stroke-width:1.5;" x="196.737423" xlink:href="#m2fdae8127b" y="9.697057"/>
     <use style="fill-opacity:0;stroke:#ff7500;stroke-linejoin:bevel;stroke-width:1.5;" x="333.168" xlink:href="#m2fdae8127b" y="9.697057"/>
    </g>
   </g>
   <g id="line2d_48">
    <path style="fill:none;stroke:#ff7500;stroke-linecap:square;stroke-width:1.5;"/>
    <g/>
   </g>
   <g id="line2d_49">
    <defs>
     <path d="M 0 1.5 
C 0.397805 1.5 0.77937 1.341951 1.06066 1.06066 
C 1.341951 0.77937 1.5 0.397805 1.5 0 
C 1.5 -0.397805 1.341951 -0.77937 1.06066 -1.06066 
C 0.77937 -1.341951 0.397805 -1.5 0 -1.5 
C -0.397805 -1.5 -0.77937 -1.341951 -1.06066 -1.06066 
C -1.341951 -0.77937 -1.5 -0.397805 -1.5 0 
C -1.5 0.397805 -1.341951 0.77937 -1.06066 1.06066 
C -0.77937 1.341951 -0.397805 1.5 0 1.5 
z
" id="mdadaebb528" style="stroke:#6495ed;"/>
    </defs>
    <g>
     <use style="fill:#6495ed;stroke:#6495ed;" x="213.043125" xlink:href="#mdadaebb528" y="9.697057"/>
     <use style="fill:#6495ed;stroke:#6495ed;" x="213.043125" xlink:href="#mdadaebb528" y="9.697057"/>
    </g>
   </g>
   <g id="line2d_50">
    <path d="M 157.697528 294.88 
L 157.762699 293.761636 
L 158.318141 293.761636 
L 158.318141 293.202453 
L 159.096477 293.202453 
L 159.169411 292.084089 
L 160.274056 292.084089 
L 160.274056 291.524907 
L 161.428741 291.524907 
L 161.428741 290.965724 
L 161.578241 290.965724 
L 161.578241 290.406542 
L 162.764382 290.406542 
L 162.764382 289.84736 
L 164.380833 289.84736 
L 164.380833 289.288178 
L 166.207162 289.288178 
L 166.207162 288.728995 
L 169.283358 288.728995 
L 169.283358 288.169813 
L 169.5604 288.169813 
L 169.5604 287.610631 
L 169.931755 287.610631 
L 169.931755 287.051449 
L 170.386892 287.051449 
L 170.386892 286.492266 
L 171.013953 286.492266 
L 171.013953 285.933084 
L 171.371287 285.933084 
L 171.371287 285.373902 
L 172.329244 285.373902 
L 172.329244 284.81472 
L 173.42351 284.81472 
L 173.42351 284.255537 
L 173.606542 284.255537 
L 173.606542 283.696355 
L 174.221979 283.696355 
L 174.221979 283.137173 
L 174.738441 283.137173 
L 174.738441 282.577991 
L 175.12516 282.577991 
L 175.12516 282.018808 
L 175.524875 282.018808 
L 175.524875 281.459626 
L 176.606802 281.459626 
L 176.606802 280.900444 
L 176.718977 280.900444 
L 176.718977 280.341262 
L 176.952568 280.341262 
L 176.952568 279.782079 
L 177.569689 279.782079 
L 177.569689 279.222897 
L 177.986566 279.222897 
L 178.09581 278.104533 
L 178.317857 278.104533 
L 178.317857 277.545351 
L 179.014584 277.545351 
L 179.014584 276.986168 
L 179.357266 276.986168 
L 179.357266 276.426986 
L 181.245082 276.426986 
L 181.245082 275.867804 
L 181.641654 275.867804 
L 181.641654 275.308622 
L 182.403378 275.308622 
L 182.50005 274.190257 
L 182.549008 274.190257 
L 182.549008 273.631075 
L 182.798763 273.631075 
L 182.798763 273.071893 
L 182.970063 273.071893 
L 182.970063 272.51271 
L 183.460415 272.51271 
L 183.460415 271.953528 
L 184.213605 271.953528 
L 184.213605 271.394346 
L 184.568898 271.394346 
L 184.568898 270.835164 
L 184.827743 270.835164 
L 184.827743 270.275981 
L 185.104065 270.275981 
L 185.104065 269.716799 
L 185.350366 269.716799 
L 185.350366 269.157617 
L 186.210967 269.157617 
L 186.210967 268.598435 
L 186.522408 268.598435 
L 186.522408 268.039252 
L 187.587679 268.039252 
L 187.587679 267.48007 
L 187.796597 267.48007 
L 187.852366 266.361706 
L 188.001005 266.361706 
L 188.001005 265.802523 
L 188.796311 265.802523 
L 188.796311 265.243341 
L 188.946129 265.243341 
L 189.014896 264.124977 
L 189.400813 264.124977 
L 189.400813 263.565795 
L 189.553882 263.565795 
L 189.650453 262.44743 
L 190.181093 262.44743 
L 190.181093 261.888248 
L 190.389125 261.888248 
L 190.420079 260.769883 
L 190.559547 260.769883 
L 190.589508 259.651519 
L 190.698919 259.651519 
L 190.737168 258.533154 
L 191.386871 258.533154 
L 191.422638 257.41479 
L 191.660602 257.41479 
L 191.660602 256.855608 
L 191.791038 256.855608 
L 191.862118 255.737243 
L 191.910617 255.737243 
L 191.910617 255.178061 
L 192.068562 255.178061 
L 192.068562 254.618879 
L 192.241642 254.618879 
L 192.241642 254.059696 
L 192.679211 254.059696 
L 192.724246 252.941332 
L 193.046371 252.941332 
L 193.09105 251.822967 
L 193.166443 251.822967 
L 193.275973 250.145421 
L 193.40147 250.145421 
L 193.486857 247.34951 
L 193.516193 247.34951 
L 193.597548 245.112781 
L 193.642548 245.112781 
L 193.705809 243.994416 
L 193.854416 243.994416 
L 193.854416 243.435234 
L 194.026841 243.435234 
L 194.109465 241.198505 
L 194.146992 241.198505 
L 194.162372 240.08014 
L 194.263532 240.08014 
L 194.305992 237.843411 
L 194.376802 237.843411 
L 194.483296 236.165865 
L 194.490976 236.165865 
L 194.572496 233.929136 
L 194.620733 233.929136 
L 194.700016 231.692407 
L 194.789718 231.692407 
L 194.876272 229.455678 
L 194.907882 229.455678 
L 194.933022 228.337313 
L 195.027367 228.337313 
L 195.122254 225.541402 
L 195.138898 225.541402 
L 195.248924 221.627126 
L 195.272784 221.627126 
L 195.335291 219.390397 
L 195.399653 219.390397 
L 195.437065 217.153669 
L 195.52017 217.153669 
L 195.617263 213.798575 
L 195.647284 213.798575 
L 195.731422 209.884299 
L 195.765829 209.884299 
L 195.873696 205.410841 
L 195.922459 205.410841 
L 196.021577 200.937384 
L 196.064918 200.937384 
L 196.174661 197.023108 
L 196.19578 197.023108 
L 196.305187 192.54965 
L 196.324422 192.54965 
L 196.433995 189.194556 
L 196.475088 189.194556 
L 196.56549 185.280281 
L 196.597783 185.280281 
L 196.69864 179.129276 
L 196.717681 179.129276 
L 196.773717 176.333365 
L 196.832442 176.333365 
L 196.934553 164.590538 
L 196.94763 164.590538 
L 197.056857 154.525258 
L 197.071022 154.525258 
L 197.17079 148.374253 
L 197.190487 148.374253 
L 197.269517 138.308973 
L 197.30843 138.308973 
L 197.403594 128.802874 
L 197.421408 128.802874 
L 197.527673 118.737594 
L 197.54467 118.737594 
L 197.654742 110.349861 
L 197.66432 110.349861 
L 197.773404 103.080491 
L 197.790612 103.080491 
L 197.900025 94.692758 
L 197.902948 94.692758 
L 197.993319 87.423389 
L 198.018351 87.423389 
L 198.121445 76.798926 
L 198.150723 76.798926 
L 198.251707 65.615281 
L 198.262279 65.615281 
L 198.350567 58.905094 
L 198.38077 58.905094 
L 198.48737 50.517361 
L 198.528395 50.517361 
L 198.622231 46.043903 
L 198.646579 46.043903 
L 198.744485 42.688809 
L 198.780202 42.688809 
L 198.806034 40.45208 
L 211.030845 40.45208 
L 211.077189 39.333716 
L 211.202931 39.333716 
L 211.311381 38.215351 
L 211.320036 38.215351 
L 211.36982 36.537805 
L 211.475082 36.537805 
L 211.580008 34.301076 
L 211.610014 34.301076 
L 211.716639 32.064347 
L 211.73696 32.064347 
L 211.832607 29.827618 
L 211.870458 29.827618 
L 211.963979 27.031707 
L 212.002136 27.031707 
L 212.108331 23.676613 
L 212.119052 23.676613 
L 212.2215 19.203155 
L 212.241135 19.203155 
L 212.260261 16.966426 
L 212.361388 16.966426 
L 212.383769 15.848062 
L 212.517833 15.848062 
L 212.616123 13.611333 
L 212.710529 13.611333 
L 212.787688 11.933786 
L 212.860735 11.933786 
L 212.9672 10.256239 
L 213.043125 10.256239 
L 213.043125 9.697057 
L 333.168 9.697057 
L 333.168 9.697057 
" style="fill:none;stroke:#6495ed;stroke-linecap:square;stroke-width:1.5;"/>
   </g>
   <g id="line2d_51">
    <defs>
     <path d="M -0 6 
L 6 -6 
L -6 -6 
z
" id="ma24175fb8e" style="stroke:#6495ed;stroke-linejoin:miter;stroke-width:1.5;"/>
    </defs>
    <g>
     <use style="fill-opacity:0;stroke:#6495ed;stroke-linejoin:miter;stroke-width:1.5;" x="213.043125" xlink:href="#ma24175fb8e" y="10.256239"/>
     <use style="fill-opacity:0;stroke:#6495ed;stroke-linejoin:miter;stroke-width:1.5;" x="213.043125" xlink:href="#ma24175fb8e" y="9.697057"/>
     <use style="fill-opacity:0;stroke:#6495ed;stroke-linejoin:miter;stroke-width:1.5;" x="213.043125" xlink:href="#ma24175fb8e" y="9.697057"/>
     <use style="fill-opacity:0;stroke:#6495ed;stroke-linejoin:miter;stroke-width:1.5;" x="333.168" xlink:href="#ma24175fb8e" y="9.697057"/>
    </g>
   </g>
   <g id="line2d_52">
    <path style="fill:none;stroke:#6495ed;stroke-linecap:square;stroke-width:1.5;"/>
    <g/>
   </g>
   <g id="line2d_53">
    <defs>
     <path d="M 0 1.5 
C 0.397805 1.5 0.77937 1.341951 1.06066 1.06066 
C 1.341951 0.77937 1.5 0.397805 1.5 0 
C 1.5 -0.397805 1.341951 -0.77937 1.06066 -1.06066 
C 0.77937 -1.341951 0.397805 -1.5 0 -1.5 
C -0.397805 -1.5 -0.77937 -1.341951 -1.06066 -1.06066 
C -1.341951 -0.77937 -1.5 -0.397805 -1.5 0 
C -1.5 0.397805 -1.341951 0.77937 -1.06066 1.06066 
C -0.77937 1.341951 -0.397805 1.5 0 1.5 
z
" id="mc8cceabbfa" style="stroke:#ff0000;"/>
    </defs>
    <g>
     <use style="fill:#ff0000;stroke:#ff0000;" x="57.758252" xlink:href="#mc8cceabbfa" y="9.697057"/>
     <use style="fill:#ff0000;stroke:#ff0000;" x="57.758252" xlink:href="#mc8cceabbfa" y="9.697057"/>
    </g>
   </g>
   <g id="line2d_54">
    <path d="M 57.758252 294.88 
L 57.758252 9.697057 
L 333.168 9.697057 
" style="fill:none;stroke:#ff0000;stroke-linecap:square;stroke-width:1.5;"/>
   </g>
   <g id="line2d_55">
    <defs>
     <path d="M 0 -6 
L -5.196152 -3 
L -5.196152 3 
L -0 6 
L 5.196152 3 
L 5.196152 -3 
z
" id="me7ef99a75c" style="stroke:#ff0000;stroke-linejoin:miter;stroke-width:1.5;"/>
    </defs>
    <g>
     <use style="fill-opacity:0;stroke:#ff0000;stroke-linejoin:miter;stroke-width:1.5;" x="333.168" xlink:href="#me7ef99a75c" y="9.697057"/>
    </g>
   </g>
   <g id="line2d_56">
    <path style="fill:none;stroke:#ff0000;stroke-linecap:square;stroke-width:1.5;"/>
    <g/>
   </g>
   <g id="line2d_57">
    <path d="M 333.168 9.697057 
L 363.64328 289.176341 
" style="fill:none;stroke:#6495ed;stroke-linecap:square;stroke-width:1.5;"/>
    <g>
     <use style="fill-opacity:0;stroke:#6495ed;stroke-linejoin:miter;stroke-width:1.5;" x="333.168" xlink:href="#ma24175fb8e" y="9.697057"/>
     <use style="fill-opacity:0;stroke:#6495ed;stroke-linejoin:miter;stroke-width:1.5;" x="363.64328" xlink:href="#ma24175fb8e" y="289.176341"/>
    </g>
   </g>
   <g id="line2d_58">
    <path d="M 333.168 9.697057 
L 363.64328 220.732435 
" style="fill:none;stroke:#ff7500;stroke-linecap:square;stroke-width:1.5;"/>
    <g>
     <use style="fill-opacity:0;stroke:#ff7500;stroke-linejoin:bevel;stroke-width:1.5;" x="333.168" xlink:href="#m2fdae8127b" y="9.697057"/>
     <use style="fill-opacity:0;stroke:#ff7500;stroke-linejoin:bevel;stroke-width:1.5;" x="363.64328" xlink:href="#m2fdae8127b" y="220.732435"/>
    </g>
   </g>
   <g id="line2d_59">
    <path d="M 333.168 9.697057 
L 363.64328 152.288529 
" style="fill:none;stroke:#ff00ff;stroke-linecap:square;stroke-width:1.5;"/>
    <g>
     <use style="fill-opacity:0;stroke:#ff00ff;stroke-linejoin:miter;stroke-width:1.5;" x="333.168" xlink:href="#m86f700b334" y="9.697057"/>
     <use style="fill-opacity:0;stroke:#ff00ff;stroke-linejoin:miter;stroke-width:1.5;" x="363.64328" xlink:href="#m86f700b334" y="152.288529"/>
    </g>
   </g>
   <g id="line2d_60">
    <path d="M 333.168 9.697057 
L 363.64328 83.844622 
" style="fill:none;stroke:#000080;stroke-linecap:square;stroke-width:1.5;"/>
    <g>
     <use style="fill-opacity:0;stroke:#000080;stroke-width:1.5;" x="333.168" xlink:href="#m2848fc35ff" y="9.697057"/>
     <use style="fill-opacity:0;stroke:#000080;stroke-width:1.5;" x="363.64328" xlink:href="#m2848fc35ff" y="83.844622"/>
    </g>
   </g>
   <g id="line2d_61">
    <path d="M 333.168 9.697057 
L 363.64328 15.400716 
" style="fill:none;stroke:#ff0000;stroke-linecap:square;stroke-width:1.5;"/>
    <g>
     <use style="fill-opacity:0;stroke:#ff0000;stroke-linejoin:miter;stroke-width:1.5;" x="333.168" xlink:href="#me7ef99a75c" y="9.697057"/>
     <use style="fill-opacity:0;stroke:#ff0000;stroke-linejoin:miter;stroke-width:1.5;" x="363.64328" xlink:href="#me7ef99a75c" y="15.400716"/>
    </g>
   </g>
   <g id="line2d_62">
    <path d="M 333.168 294.88 
L 333.168 9.697057 
" style="fill:none;stroke:#000000;stroke-linecap:square;stroke-width:1.5;"/>
   </g>
   <g id="patch_3">
    <path d="M 56.12 294.88 
L 56.12 6.845228 
" style="fill:none;stroke:#000000;stroke-linecap:square;stroke-linejoin:miter;stroke-width:0.8;"/>
   </g>
   <g id="patch_4">
    <path d="M 333.168 294.88 
L 333.168 6.845228 
" style="fill:none;stroke:#000000;stroke-linecap:square;stroke-linejoin:miter;stroke-width:0.8;"/>
   </g>
   <g id="patch_5">
    <path d="M 56.12 294.88 
L 333.168 294.88 
" style="fill:none;stroke:#000000;stroke-linecap:square;stroke-linejoin:miter;stroke-width:0.8;"/>
   </g>
   <g id="patch_6">
    <path d="M 56.12 6.845228 
L 333.168 6.845228 
" style="fill:none;stroke:#000000;stroke-linecap:square;stroke-linejoin:miter;stroke-width:0.8;"/>
   </g>
   <g id="text_13">
    <!-- f4 -->
    <g transform="translate(369.18424 293.867279)scale(0.17 -0.17)">
     <use xlink:href="#DejaVuSans-66"/>
     <use x="35.205078" xlink:href="#DejaVuSans-34"/>
    </g>
   </g>
   <g id="text_14">
    <!-- f3 -->
    <defs>
     <path d="M 40.578125 39.3125 
Q 47.65625 37.796875 51.625 33 
Q 55.609375 28.21875 55.609375 21.1875 
Q 55.609375 10.40625 48.1875 4.484375 
Q 40.765625 -1.421875 27.09375 -1.421875 
Q 22.515625 -1.421875 17.65625 -0.515625 
Q 12.796875 0.390625 7.625 2.203125 
L 7.625 11.71875 
Q 11.71875 9.328125 16.59375 8.109375 
Q 21.484375 6.890625 26.8125 6.890625 
Q 36.078125 6.890625 40.9375 10.546875 
Q 45.796875 14.203125 45.796875 21.1875 
Q 45.796875 27.640625 41.28125 31.265625 
Q 36.765625 34.90625 28.71875 34.90625 
L 20.21875 34.90625 
L 20.21875 43.015625 
L 29.109375 43.015625 
Q 36.375 43.015625 40.234375 45.921875 
Q 44.09375 48.828125 44.09375 54.296875 
Q 44.09375 59.90625 40.109375 62.90625 
Q 36.140625 65.921875 28.71875 65.921875 
Q 24.65625 65.921875 20.015625 65.03125 
Q 15.375 64.15625 9.8125 62.3125 
L 9.8125 71.09375 
Q 15.4375 72.65625 20.34375 73.4375 
Q 25.25 74.21875 29.59375 74.21875 
Q 40.828125 74.21875 47.359375 69.109375 
Q 53.90625 64.015625 53.90625 55.328125 
Q 53.90625 49.265625 50.4375 45.09375 
Q 46.96875 40.921875 40.578125 39.3125 
z
" id="DejaVuSans-33"/>
    </defs>
    <g transform="translate(369.18424 225.423372)scale(0.17 -0.17)">
     <use xlink:href="#DejaVuSans-66"/>
     <use x="35.205078" xlink:href="#DejaVuSans-33"/>
    </g>
   </g>
   <g id="text_15">
    <!-- f2 -->
    <g transform="translate(369.18424 156.979466)scale(0.17 -0.17)">
     <use xlink:href="#DejaVuSans-66"/>
     <use x="35.205078" xlink:href="#DejaVuSans-32"/>
    </g>
   </g>
   <g id="text_16">
    <!-- f1 -->
    <g transform="translate(369.18424 88.53556)scale(0.17 -0.17)">
     <use xlink:href="#DejaVuSans-66"/>
     <use x="35.205078" xlink:href="#DejaVuSans-31"/>
    </g>
   </g>
   <g id="text_17">
    <!-- f5 -->
    <defs>
     <path d="M 10.796875 72.90625 
L 49.515625 72.90625 
L 49.515625 64.59375 
L 19.828125 64.59375 
L 19.828125 46.734375 
Q 21.96875 47.46875 24.109375 47.828125 
Q 26.265625 48.1875 28.421875 48.1875 
Q 40.625 48.1875 47.75 41.5 
Q 54.890625 34.8125 54.890625 23.390625 
Q 54.890625 11.625 47.5625 5.09375 
Q 40.234375 -1.421875 26.90625 -1.421875 
Q 22.3125 -1.421875 17.546875 -0.640625 
Q 12.796875 0.140625 7.71875 1.703125 
L 7.71875 11.625 
Q 12.109375 9.234375 16.796875 8.0625 
Q 21.484375 6.890625 26.703125 6.890625 
Q 35.15625 6.890625 40.078125 11.328125 
Q 45.015625 15.765625 45.015625 23.390625 
Q 45.015625 31 40.078125 35.4375 
Q 35.15625 39.890625 26.703125 39.890625 
Q 22.75 39.890625 18.8125 39.015625 
Q 14.890625 38.140625 10.796875 36.28125 
z
" id="DejaVuSans-35"/>
    </defs>
    <g transform="translate(369.18424 20.091654)scale(0.17 -0.17)">
     <use xlink:href="#DejaVuSans-66"/>
     <use x="35.205078" xlink:href="#DejaVuSans-35"/>
    </g>
   </g>
   <g id="text_18">
    <!-- bbob -->
    <defs>
     <path d="M 48.6875 27.296875 
Q 48.6875 37.203125 44.609375 42.84375 
Q 40.53125 48.484375 33.40625 48.484375 
Q 26.265625 48.484375 22.1875 42.84375 
Q 18.109375 37.203125 18.109375 27.296875 
Q 18.109375 17.390625 22.1875 11.75 
Q 26.265625 6.109375 33.40625 6.109375 
Q 40.53125 6.109375 44.609375 11.75 
Q 48.6875 17.390625 48.6875 27.296875 
z
M 18.109375 46.390625 
Q 20.953125 51.265625 25.265625 53.625 
Q 29.59375 56 35.59375 56 
Q 45.5625 56 51.78125 48.09375 
Q 58.015625 40.1875 58.015625 27.296875 
Q 58.015625 14.40625 51.78125 6.484375 
Q 45.5625 -1.421875 35.59375 -1.421875 
Q 29.59375 -1.421875 25.265625 0.953125 
Q 20.953125 3.328125 18.109375 8.203125 
L 18.109375 0 
L 9.078125 0 
L 9.078125 75.984375 
L 18.109375 75.984375 
z
" id="DejaVuSans-62"/>
    </defs>
    <g transform="translate(58.89048 17.475982)scale(0.102 -0.102)">
     <use xlink:href="#DejaVuSans-62"/>
     <use x="63.476562" xlink:href="#DejaVuSans-62"/>
     <use x="126.953125" xlink:href="#DejaVuSans-6f"/>
     <use x="188.134766" xlink:href="#DejaVuSans-62"/>
    </g>
    <!-- Separable functions, 20-D -->
    <defs>
     <path d="M 53.515625 70.515625 
L 53.515625 60.890625 
Q 47.90625 63.578125 42.921875 64.890625 
Q 37.9375 66.21875 33.296875 66.21875 
Q 25.25 66.21875 20.875 63.09375 
Q 16.5 59.96875 16.5 54.203125 
Q 16.5 49.359375 19.40625 46.890625 
Q 22.3125 44.4375 30.421875 42.921875 
L 36.375 41.703125 
Q 47.40625 39.59375 52.65625 34.296875 
Q 57.90625 29 57.90625 20.125 
Q 57.90625 9.515625 50.796875 4.046875 
Q 43.703125 -1.421875 29.984375 -1.421875 
Q 24.8125 -1.421875 18.96875 -0.25 
Q 13.140625 0.921875 6.890625 3.21875 
L 6.890625 13.375 
Q 12.890625 10.015625 18.65625 8.296875 
Q 24.421875 6.59375 29.984375 6.59375 
Q 38.421875 6.59375 43.015625 9.90625 
Q 47.609375 13.234375 47.609375 19.390625 
Q 47.609375 24.75 44.3125 27.78125 
Q 41.015625 30.8125 33.5 32.328125 
L 27.484375 33.5 
Q 16.453125 35.6875 11.515625 40.375 
Q 6.59375 45.0625 6.59375 53.421875 
Q 6.59375 63.09375 13.40625 68.65625 
Q 20.21875 74.21875 32.171875 74.21875 
Q 37.3125 74.21875 42.625 73.28125 
Q 47.953125 72.359375 53.515625 70.515625 
z
" id="DejaVuSans-53"/>
     <path d="M 19.671875 64.796875 
L 19.671875 8.109375 
L 31.59375 8.109375 
Q 46.6875 8.109375 53.6875 14.9375 
Q 60.6875 21.78125 60.6875 36.53125 
Q 60.6875 51.171875 53.6875 57.984375 
Q 46.6875 64.796875 31.59375 64.796875 
z
M 9.8125 72.90625 
L 30.078125 72.90625 
Q 51.265625 72.90625 61.171875 64.09375 
Q 71.09375 55.28125 71.09375 36.53125 
Q 71.09375 17.671875 61.125 8.828125 
Q 51.171875 0 30.078125 0 
L 9.8125 0 
z
" id="DejaVuSans-44"/>
    </defs>
    <g transform="translate(58.89048 28.89775)scale(0.102 -0.102)">
     <use xlink:href="#DejaVuSans-53"/>
     <use x="63.476562" xlink:href="#DejaVuSans-65"/>
     <use x="125" xlink:href="#DejaVuSans-70"/>
     <use x="188.476562" xlink:href="#DejaVuSans-61"/>
     <use x="249.755859" xlink:href="#DejaVuSans-72"/>
     <use x="290.869141" xlink:href="#DejaVuSans-61"/>
     <use x="352.148438" xlink:href="#DejaVuSans-62"/>
     <use x="415.625" xlink:href="#DejaVuSans-6c"/>
     <use x="443.408203" xlink:href="#DejaVuSans-65"/>
     <use x="504.931641" xlink:href="#DejaVuSans-20"/>
     <use x="536.71875" xlink:href="#DejaVuSans-66"/>
     <use x="571.923828" xlink:href="#DejaVuSans-75"/>
     <use x="635.302734" xlink:href="#DejaVuSans-6e"/>
     <use x="698.681641" xlink:href="#DejaVuSans-63"/>
     <use x="753.662109" xlink:href="#DejaVuSans-74"/>
     <use x="792.871094" xlink:href="#DejaVuSans-69"/>
     <use x="820.654297" xlink:href="#DejaVuSans-6f"/>
     <use x="881.835938" xlink:href="#DejaVuSans-6e"/>
     <use x="945.214844" xlink:href="#DejaVuSans-73"/>
     <use x="997.314453" xlink:href="#DejaVuSans-2c"/>
     <use x="1029.101562" xlink:href="#DejaVuSans-20"/>
     <use x="1060.888672" xlink:href="#DejaVuSans-32"/>
     <use x="1124.511719" xlink:href="#DejaVuSans-30"/>
     <use x="1188.134766" xlink:href="#DejaVuSans-2d"/>
     <use x="1224.21875" xlink:href="#DejaVuSans-44"/>
    </g>
    <!-- 51 targets: 100..1e-08 -->
    <defs>
     <path d="M 11.71875 12.40625 
L 22.015625 12.40625 
L 22.015625 0 
L 11.71875 0 
z
M 11.71875 51.703125 
L 22.015625 51.703125 
L 22.015625 39.3125 
L 11.71875 39.3125 
z
" id="DejaVuSans-3a"/>
    </defs>
    <g transform="translate(58.89048 40.319519)scale(0.102 -0.102)">
     <use xlink:href="#DejaVuSans-35"/>
     <use x="63.623047" xlink:href="#DejaVuSans-31"/>
     <use x="127.246094" xlink:href="#DejaVuSans-20"/>
     <use x="159.033203" xlink:href="#DejaVuSans-74"/>
     <use x="198.242188" xlink:href="#DejaVuSans-61"/>
     <use x="259.521484" xlink:href="#DejaVuSans-72"/>
     <use x="300.619141" xlink:href="#DejaVuSans-67"/>
     <use x="364.095703" xlink:href="#DejaVuSans-65"/>
     <use x="425.619141" xlink:href="#DejaVuSans-74"/>
     <use x="464.828125" xlink:href="#DejaVuSans-73"/>
     <use x="516.927734" xlink:href="#DejaVuSans-3a"/>
     <use x="550.619141" xlink:href="#DejaVuSans-20"/>
     <use x="582.40625" xlink:href="#DejaVuSans-31"/>
     <use x="646.029297" xlink:href="#DejaVuSans-30"/>
     <use x="709.652344" xlink:href="#DejaVuSans-30"/>
     <use x="773.275391" xlink:href="#DejaVuSans-2e"/>
     <use x="805.0625" xlink:href="#DejaVuSans-2e"/>
     <use x="836.849609" xlink:href="#DejaVuSans-31"/>
     <use x="900.472656" xlink:href="#DejaVuSans-65"/>
     <use x="961.996094" xlink:href="#DejaVuSans-2d"/>
     <use x="998.080078" xlink:href="#DejaVuSans-30"/>
     <use x="1061.703125" xlink:href="#DejaVuSans-38"/>
    </g>
    <!-- 15 instances -->
    <g transform="translate(58.89048 51.741288)scale(0.102 -0.102)">
     <use xlink:href="#DejaVuSans-31"/>
     <use x="63.623047" xlink:href="#DejaVuSans-35"/>
     <use x="127.246094" xlink:href="#DejaVuSans-20"/>
     <use x="159.033203" xlink:href="#DejaVuSans-69"/>
     <use x="186.816406" xlink:href="#DejaVuSans-6e"/>
     <use x="250.195312" xlink:href="#DejaVuSans-73"/>
     <use x="302.294922" xlink:href="#DejaVuSans-74"/>
     <use x="341.503906" xlink:href="#DejaVuSans-61"/>
     <use x="402.783203" xlink:href="#DejaVuSans-6e"/>
     <use x="466.162109" xlink:href="#DejaVuSans-63"/>
     <use x="521.142578" xlink:href="#DejaVuSans-65"/>
     <use x="582.666016" xlink:href="#DejaVuSans-73"/>
    </g>
   </g>
   <g id="text_19">
    <!-- v2.4 -->
    <g style="fill:#808080;" transform="translate(183.733063 289.919965)scale(0.1 -0.1)">
     <use xlink:href="#DejaVuSans-76"/>
     <use x="59.179688" xlink:href="#DejaVuSans-32"/>
     <use x="122.802734" xlink:href="#DejaVuSans-2e"/>
     <use x="154.589844" xlink:href="#DejaVuSans-34"/>
    </g>
   </g>
  </g>
 </g>
 <defs>
  <clipPath id="p7ec79e51bb">
   <rect height="288.034772" width="277.048" x="56.12" y="6.845228"/>
  </clipPath>
 </defs>
</svg>
