<?xml version="1.0" encoding="utf-8" standalone="no"?>
<!DOCTYPE svg PUBLIC "-//W3C//DTD SVG 1.1//EN"
  "http://www.w3.org/Graphics/SVG/1.1/DTD/svg11.dtd">
<!-- Created with matplotlib (http://matplotlib.org/) -->
<svg height="345.6pt" version="1.1" viewBox="0 0 460.8 345.6" width="460.8pt" xmlns="http://www.w3.org/2000/svg" xmlns:xlink="http://www.w3.org/1999/xlink">
 <defs>
  <style type="text/css">
*{stroke-linecap:butt;stroke-linejoin:round;}
  </style>
 </defs>
 <g id="figure_1">
  <g id="patch_1">
   <path d="M 0 345.6 
L 460.8 345.6 
L 460.8 0 
L 0 0 
z
" style="fill:#ffffff;"/>
  </g>
  <g id="axes_1">
   <g id="patch_2">
    <path d="M 56.12 294.88 
L 333.168 294.88 
L 333.168 6.845228 
L 56.12 6.845228 
z
" style="fill:#ffffff;"/>
   </g>
   <g id="matplotlib.axis_1">
    <g id="xtick_1">
     <g id="line2d_1">
      <path clip-path="url(#p8ce26dd198)" d="M 56.12 294.88 
L 56.12 6.845228 
" style="fill:none;stroke:#b0b0b0;stroke-linecap:square;stroke-width:0.8;"/>
     </g>
     <g id="line2d_2">
      <defs>
       <path d="M 0 0 
L 0 3.5 
" id="m852e2abebc" style="stroke:#000000;stroke-width:0.8;"/>
      </defs>
      <g>
       <use style="stroke:#000000;stroke-width:0.8;" x="56.12" xlink:href="#m852e2abebc" y="294.88"/>
      </g>
     </g>
     <g id="text_1">
      <!-- 0 -->
      <defs>
       <path d="M 31.78125 66.40625 
Q 24.171875 66.40625 20.328125 58.90625 
Q 16.5 51.421875 16.5 36.375 
Q 16.5 21.390625 20.328125 13.890625 
Q 24.171875 6.390625 31.78125 6.390625 
Q 39.453125 6.390625 43.28125 13.890625 
Q 47.125 21.390625 47.125 36.375 
Q 47.125 51.421875 43.28125 58.90625 
Q 39.453125 66.40625 31.78125 66.40625 
z
M 31.78125 74.21875 
Q 44.046875 74.21875 50.515625 64.515625 
Q 56.984375 54.828125 56.984375 36.375 
Q 56.984375 17.96875 50.515625 8.265625 
Q 44.046875 -1.421875 31.78125 -1.421875 
Q 19.53125 -1.421875 13.0625 8.265625 
Q 6.59375 17.96875 6.59375 36.375 
Q 6.59375 54.828125 13.0625 64.515625 
Q 19.53125 74.21875 31.78125 74.21875 
z
" id="DejaVuSans-30"/>
      </defs>
      <g transform="translate(49.7575 317.076875)scale(0.2 -0.2)">
       <use xlink:href="#DejaVuSans-30"/>
      </g>
     </g>
    </g>
    <g id="xtick_2">
     <g id="line2d_3">
      <path clip-path="url(#p8ce26dd198)" d="M 135.276571 294.88 
L 135.276571 6.845228 
" style="fill:none;stroke:#b0b0b0;stroke-linecap:square;stroke-width:0.8;"/>
     </g>
     <g id="line2d_4">
      <g>
       <use style="stroke:#000000;stroke-width:0.8;" x="135.276571" xlink:href="#m852e2abebc" y="294.88"/>
      </g>
     </g>
     <g id="text_2">
      <!-- 2 -->
      <defs>
       <path d="M 19.1875 8.296875 
L 53.609375 8.296875 
L 53.609375 0 
L 7.328125 0 
L 7.328125 8.296875 
Q 12.9375 14.109375 22.625 23.890625 
Q 32.328125 33.6875 34.8125 36.53125 
Q 39.546875 41.84375 41.421875 45.53125 
Q 43.3125 49.21875 43.3125 52.78125 
Q 43.3125 58.59375 39.234375 62.25 
Q 35.15625 65.921875 28.609375 65.921875 
Q 23.96875 65.921875 18.8125 64.3125 
Q 13.671875 62.703125 7.8125 59.421875 
L 7.8125 69.390625 
Q 13.765625 71.78125 18.9375 73 
Q 24.125 74.21875 28.421875 74.21875 
Q 39.75 74.21875 46.484375 68.546875 
Q 53.21875 62.890625 53.21875 53.421875 
Q 53.21875 48.921875 51.53125 44.890625 
Q 49.859375 40.875 45.40625 35.40625 
Q 44.1875 33.984375 37.640625 27.21875 
Q 31.109375 20.453125 19.1875 8.296875 
z
" id="DejaVuSans-32"/>
      </defs>
      <g transform="translate(128.914071 317.076875)scale(0.2 -0.2)">
       <use xlink:href="#DejaVuSans-32"/>
      </g>
     </g>
    </g>
    <g id="xtick_3">
     <g id="line2d_5">
      <path clip-path="url(#p8ce26dd198)" d="M 214.433143 294.88 
L 214.433143 6.845228 
" style="fill:none;stroke:#b0b0b0;stroke-linecap:square;stroke-width:0.8;"/>
     </g>
     <g id="line2d_6">
      <g>
       <use style="stroke:#000000;stroke-width:0.8;" x="214.433143" xlink:href="#m852e2abebc" y="294.88"/>
      </g>
     </g>
     <g id="text_3">
      <!-- 4 -->
      <defs>
       <path d="M 37.796875 64.3125 
L 12.890625 25.390625 
L 37.796875 25.390625 
z
M 35.203125 72.90625 
L 47.609375 72.90625 
L 47.609375 25.390625 
L 58.015625 25.390625 
L 58.015625 17.1875 
L 47.609375 17.1875 
L 47.609375 0 
L 37.796875 0 
L 37.796875 17.1875 
L 4.890625 17.1875 
L 4.890625 26.703125 
z
" id="DejaVuSans-34"/>
      </defs>
      <g transform="translate(208.070643 317.076875)scale(0.2 -0.2)">
       <use xlink:href="#DejaVuSans-34"/>
      </g>
     </g>
    </g>
    <g id="xtick_4">
     <g id="line2d_7">
      <path clip-path="url(#p8ce26dd198)" d="M 293.589714 294.88 
L 293.589714 6.845228 
" style="fill:none;stroke:#b0b0b0;stroke-linecap:square;stroke-width:0.8;"/>
     </g>
     <g id="line2d_8">
      <g>
       <use style="stroke:#000000;stroke-width:0.8;" x="293.589714" xlink:href="#m852e2abebc" y="294.88"/>
      </g>
     </g>
     <g id="text_4">
      <!-- 6 -->
      <defs>
       <path d="M 33.015625 40.375 
Q 26.375 40.375 22.484375 35.828125 
Q 18.609375 31.296875 18.609375 23.390625 
Q 18.609375 15.53125 22.484375 10.953125 
Q 26.375 6.390625 33.015625 6.390625 
Q 39.65625 6.390625 43.53125 10.953125 
Q 47.40625 15.53125 47.40625 23.390625 
Q 47.40625 31.296875 43.53125 35.828125 
Q 39.65625 40.375 33.015625 40.375 
z
M 52.59375 71.296875 
L 52.59375 62.3125 
Q 48.875 64.0625 45.09375 64.984375 
Q 41.3125 65.921875 37.59375 65.921875 
Q 27.828125 65.921875 22.671875 59.328125 
Q 17.53125 52.734375 16.796875 39.40625 
Q 19.671875 43.65625 24.015625 45.921875 
Q 28.375 48.1875 33.59375 48.1875 
Q 44.578125 48.1875 50.953125 41.515625 
Q 57.328125 34.859375 57.328125 23.390625 
Q 57.328125 12.15625 50.6875 5.359375 
Q 44.046875 -1.421875 33.015625 -1.421875 
Q 20.359375 -1.421875 13.671875 8.265625 
Q 6.984375 17.96875 6.984375 36.375 
Q 6.984375 53.65625 15.1875 63.9375 
Q 23.390625 74.21875 37.203125 74.21875 
Q 40.921875 74.21875 44.703125 73.484375 
Q 48.484375 72.75 52.59375 71.296875 
z
" id="DejaVuSans-36"/>
      </defs>
      <g transform="translate(287.227214 317.076875)scale(0.2 -0.2)">
       <use xlink:href="#DejaVuSans-36"/>
      </g>
     </g>
    </g>
    <g id="xtick_5">
     <g id="line2d_9">
      <path clip-path="url(#p8ce26dd198)" d="M 56.12 294.88 
L 56.12 6.845228 
" style="fill:none;stroke:#b0b0b0;stroke-linecap:square;stroke-width:0.8;"/>
     </g>
     <g id="line2d_10">
      <defs>
       <path d="M 0 0 
L 0 2 
" id="m77aac62109" style="stroke:#000000;stroke-width:0.6;"/>
      </defs>
      <g>
       <use style="stroke:#000000;stroke-width:0.6;" x="56.12" xlink:href="#m77aac62109" y="294.88"/>
      </g>
     </g>
    </g>
    <g id="xtick_6">
     <g id="line2d_11">
      <path clip-path="url(#p8ce26dd198)" d="M 95.698286 294.88 
L 95.698286 6.845228 
" style="fill:none;stroke:#b0b0b0;stroke-linecap:square;stroke-width:0.8;"/>
     </g>
     <g id="line2d_12">
      <g>
       <use style="stroke:#000000;stroke-width:0.6;" x="95.698286" xlink:href="#m77aac62109" y="294.88"/>
      </g>
     </g>
    </g>
    <g id="xtick_7">
     <g id="line2d_13">
      <path clip-path="url(#p8ce26dd198)" d="M 135.276571 294.88 
L 135.276571 6.845228 
" style="fill:none;stroke:#b0b0b0;stroke-linecap:square;stroke-width:0.8;"/>
     </g>
     <g id="line2d_14">
      <g>
       <use style="stroke:#000000;stroke-width:0.6;" x="135.276571" xlink:href="#m77aac62109" y="294.88"/>
      </g>
     </g>
    </g>
    <g id="xtick_8">
     <g id="line2d_15">
      <path clip-path="url(#p8ce26dd198)" d="M 174.854857 294.88 
L 174.854857 6.845228 
" style="fill:none;stroke:#b0b0b0;stroke-linecap:square;stroke-width:0.8;"/>
     </g>
     <g id="line2d_16">
      <g>
       <use style="stroke:#000000;stroke-width:0.6;" x="174.854857" xlink:href="#m77aac62109" y="294.88"/>
      </g>
     </g>
    </g>
    <g id="xtick_9">
     <g id="line2d_17">
      <path clip-path="url(#p8ce26dd198)" d="M 214.433143 294.88 
L 214.433143 6.845228 
" style="fill:none;stroke:#b0b0b0;stroke-linecap:square;stroke-width:0.8;"/>
     </g>
     <g id="line2d_18">
      <g>
       <use style="stroke:#000000;stroke-width:0.6;" x="214.433143" xlink:href="#m77aac62109" y="294.88"/>
      </g>
     </g>
    </g>
    <g id="xtick_10">
     <g id="line2d_19">
      <path clip-path="url(#p8ce26dd198)" d="M 254.011429 294.88 
L 254.011429 6.845228 
" style="fill:none;stroke:#b0b0b0;stroke-linecap:square;stroke-width:0.8;"/>
     </g>
     <g id="line2d_20">
      <g>
       <use style="stroke:#000000;stroke-width:0.6;" x="254.011429" xlink:href="#m77aac62109" y="294.88"/>
      </g>
     </g>
    </g>
    <g id="xtick_11">
     <g id="line2d_21">
      <path clip-path="url(#p8ce26dd198)" d="M 293.589714 294.88 
L 293.589714 6.845228 
" style="fill:none;stroke:#b0b0b0;stroke-linecap:square;stroke-width:0.8;"/>
     </g>
     <g id="line2d_22">
      <g>
       <use style="stroke:#000000;stroke-width:0.6;" x="293.589714" xlink:href="#m77aac62109" y="294.88"/>
      </g>
     </g>
    </g>
    <g id="xtick_12">
     <g id="line2d_23">
      <path clip-path="url(#p8ce26dd198)" d="M 333.168 294.88 
L 333.168 6.845228 
" style="fill:none;stroke:#b0b0b0;stroke-linecap:square;stroke-width:0.8;"/>
     </g>
     <g id="line2d_24">
      <g>
       <use style="stroke:#000000;stroke-width:0.6;" x="333.168" xlink:href="#m77aac62109" y="294.88"/>
      </g>
     </g>
    </g>
    <g id="text_5">
     <!-- log10(# f-evals / dimension) -->
     <defs>
      <path d="M 9.421875 75.984375 
L 18.40625 75.984375 
L 18.40625 0 
L 9.421875 0 
z
" id="DejaVuSans-6c"/>
      <path d="M 30.609375 48.390625 
Q 23.390625 48.390625 19.1875 42.75 
Q 14.984375 37.109375 14.984375 27.296875 
Q 14.984375 17.484375 19.15625 11.84375 
Q 23.34375 6.203125 30.609375 6.203125 
Q 37.796875 6.203125 41.984375 11.859375 
Q 46.1875 17.53125 46.1875 27.296875 
Q 46.1875 37.015625 41.984375 42.703125 
Q 37.796875 48.390625 30.609375 48.390625 
z
M 30.609375 56 
Q 42.328125 56 49.015625 48.375 
Q 55.71875 40.765625 55.71875 27.296875 
Q 55.71875 13.875 49.015625 6.21875 
Q 42.328125 -1.421875 30.609375 -1.421875 
Q 18.84375 -1.421875 12.171875 6.21875 
Q 5.515625 13.875 5.515625 27.296875 
Q 5.515625 40.765625 12.171875 48.375 
Q 18.84375 56 30.609375 56 
z
" id="DejaVuSans-6f"/>
      <path d="M 45.40625 27.984375 
Q 45.40625 37.75 41.375 43.109375 
Q 37.359375 48.484375 30.078125 48.484375 
Q 22.859375 48.484375 18.828125 43.109375 
Q 14.796875 37.75 14.796875 27.984375 
Q 14.796875 18.265625 18.828125 12.890625 
Q 22.859375 7.515625 30.078125 7.515625 
Q 37.359375 7.515625 41.375 12.890625 
Q 45.40625 18.265625 45.40625 27.984375 
z
M 54.390625 6.78125 
Q 54.390625 -7.171875 48.1875 -13.984375 
Q 42 -20.796875 29.203125 -20.796875 
Q 24.46875 -20.796875 20.265625 -20.09375 
Q 16.0625 -19.390625 12.109375 -17.921875 
L 12.109375 -9.1875 
Q 16.0625 -11.328125 19.921875 -12.34375 
Q 23.78125 -13.375 27.78125 -13.375 
Q 36.625 -13.375 41.015625 -8.765625 
Q 45.40625 -4.15625 45.40625 5.171875 
L 45.40625 9.625 
Q 42.625 4.78125 38.28125 2.390625 
Q 33.9375 0 27.875 0 
Q 17.828125 0 11.671875 7.65625 
Q 5.515625 15.328125 5.515625 27.984375 
Q 5.515625 40.671875 11.671875 48.328125 
Q 17.828125 56 27.875 56 
Q 33.9375 56 38.28125 53.609375 
Q 42.625 51.21875 45.40625 46.390625 
L 45.40625 54.6875 
L 54.390625 54.6875 
z
" id="DejaVuSans-67"/>
      <path d="M 12.40625 8.296875 
L 28.515625 8.296875 
L 28.515625 63.921875 
L 10.984375 60.40625 
L 10.984375 69.390625 
L 28.421875 72.90625 
L 38.28125 72.90625 
L 38.28125 8.296875 
L 54.390625 8.296875 
L 54.390625 0 
L 12.40625 0 
z
" id="DejaVuSans-31"/>
      <path d="M 31 75.875 
Q 24.46875 64.65625 21.28125 53.65625 
Q 18.109375 42.671875 18.109375 31.390625 
Q 18.109375 20.125 21.3125 9.0625 
Q 24.515625 -2 31 -13.1875 
L 23.1875 -13.1875 
Q 15.875 -1.703125 12.234375 9.375 
Q 8.59375 20.453125 8.59375 31.390625 
Q 8.59375 42.28125 12.203125 53.3125 
Q 15.828125 64.359375 23.1875 75.875 
z
" id="DejaVuSans-28"/>
      <path d="M 51.125 44 
L 36.921875 44 
L 32.8125 27.6875 
L 47.125 27.6875 
z
M 43.796875 71.78125 
L 38.71875 51.515625 
L 52.984375 51.515625 
L 58.109375 71.78125 
L 65.921875 71.78125 
L 60.890625 51.515625 
L 76.125 51.515625 
L 76.125 44 
L 58.984375 44 
L 54.984375 27.6875 
L 70.515625 27.6875 
L 70.515625 20.21875 
L 53.078125 20.21875 
L 48 0 
L 40.1875 0 
L 45.21875 20.21875 
L 30.90625 20.21875 
L 25.875 0 
L 18.015625 0 
L 23.09375 20.21875 
L 7.71875 20.21875 
L 7.71875 27.6875 
L 24.90625 27.6875 
L 29 44 
L 13.28125 44 
L 13.28125 51.515625 
L 30.90625 51.515625 
L 35.890625 71.78125 
z
" id="DejaVuSans-23"/>
      <path id="DejaVuSans-20"/>
      <path d="M 37.109375 75.984375 
L 37.109375 68.5 
L 28.515625 68.5 
Q 23.6875 68.5 21.796875 66.546875 
Q 19.921875 64.59375 19.921875 59.515625 
L 19.921875 54.6875 
L 34.71875 54.6875 
L 34.71875 47.703125 
L 19.921875 47.703125 
L 19.921875 0 
L 10.890625 0 
L 10.890625 47.703125 
L 2.296875 47.703125 
L 2.296875 54.6875 
L 10.890625 54.6875 
L 10.890625 58.5 
Q 10.890625 67.625 15.140625 71.796875 
Q 19.390625 75.984375 28.609375 75.984375 
z
" id="DejaVuSans-66"/>
      <path d="M 4.890625 31.390625 
L 31.203125 31.390625 
L 31.203125 23.390625 
L 4.890625 23.390625 
z
" id="DejaVuSans-2d"/>
      <path d="M 56.203125 29.59375 
L 56.203125 25.203125 
L 14.890625 25.203125 
Q 15.484375 15.921875 20.484375 11.0625 
Q 25.484375 6.203125 34.421875 6.203125 
Q 39.59375 6.203125 44.453125 7.46875 
Q 49.3125 8.734375 54.109375 11.28125 
L 54.109375 2.78125 
Q 49.265625 0.734375 44.1875 -0.34375 
Q 39.109375 -1.421875 33.890625 -1.421875 
Q 20.796875 -1.421875 13.15625 6.1875 
Q 5.515625 13.8125 5.515625 26.8125 
Q 5.515625 40.234375 12.765625 48.109375 
Q 20.015625 56 32.328125 56 
Q 43.359375 56 49.78125 48.890625 
Q 56.203125 41.796875 56.203125 29.59375 
z
M 47.21875 32.234375 
Q 47.125 39.59375 43.09375 43.984375 
Q 39.0625 48.390625 32.421875 48.390625 
Q 24.90625 48.390625 20.390625 44.140625 
Q 15.875 39.890625 15.1875 32.171875 
z
" id="DejaVuSans-65"/>
      <path d="M 2.984375 54.6875 
L 12.5 54.6875 
L 29.59375 8.796875 
L 46.6875 54.6875 
L 56.203125 54.6875 
L 35.6875 0 
L 23.484375 0 
z
" id="DejaVuSans-76"/>
      <path d="M 34.28125 27.484375 
Q 23.390625 27.484375 19.1875 25 
Q 14.984375 22.515625 14.984375 16.5 
Q 14.984375 11.71875 18.140625 8.90625 
Q 21.296875 6.109375 26.703125 6.109375 
Q 34.1875 6.109375 38.703125 11.40625 
Q 43.21875 16.703125 43.21875 25.484375 
L 43.21875 27.484375 
z
M 52.203125 31.203125 
L 52.203125 0 
L 43.21875 0 
L 43.21875 8.296875 
Q 40.140625 3.328125 35.546875 0.953125 
Q 30.953125 -1.421875 24.3125 -1.421875 
Q 15.921875 -1.421875 10.953125 3.296875 
Q 6 8.015625 6 15.921875 
Q 6 25.140625 12.171875 29.828125 
Q 18.359375 34.515625 30.609375 34.515625 
L 43.21875 34.515625 
L 43.21875 35.40625 
Q 43.21875 41.609375 39.140625 45 
Q 35.0625 48.390625 27.6875 48.390625 
Q 23 48.390625 18.546875 47.265625 
Q 14.109375 46.140625 10.015625 43.890625 
L 10.015625 52.203125 
Q 14.9375 54.109375 19.578125 55.046875 
Q 24.21875 56 28.609375 56 
Q 40.484375 56 46.34375 49.84375 
Q 52.203125 43.703125 52.203125 31.203125 
z
" id="DejaVuSans-61"/>
      <path d="M 44.28125 53.078125 
L 44.28125 44.578125 
Q 40.484375 46.53125 36.375 47.5 
Q 32.28125 48.484375 27.875 48.484375 
Q 21.1875 48.484375 17.84375 46.4375 
Q 14.5 44.390625 14.5 40.28125 
Q 14.5 37.15625 16.890625 35.375 
Q 19.28125 33.59375 26.515625 31.984375 
L 29.59375 31.296875 
Q 39.15625 29.25 43.1875 25.515625 
Q 47.21875 21.78125 47.21875 15.09375 
Q 47.21875 7.46875 41.1875 3.015625 
Q 35.15625 -1.421875 24.609375 -1.421875 
Q 20.21875 -1.421875 15.453125 -0.5625 
Q 10.6875 0.296875 5.421875 2 
L 5.421875 11.28125 
Q 10.40625 8.6875 15.234375 7.390625 
Q 20.0625 6.109375 24.8125 6.109375 
Q 31.15625 6.109375 34.5625 8.28125 
Q 37.984375 10.453125 37.984375 14.40625 
Q 37.984375 18.0625 35.515625 20.015625 
Q 33.0625 21.96875 24.703125 23.78125 
L 21.578125 24.515625 
Q 13.234375 26.265625 9.515625 29.90625 
Q 5.8125 33.546875 5.8125 39.890625 
Q 5.8125 47.609375 11.28125 51.796875 
Q 16.75 56 26.8125 56 
Q 31.78125 56 36.171875 55.265625 
Q 40.578125 54.546875 44.28125 53.078125 
z
" id="DejaVuSans-73"/>
      <path d="M 25.390625 72.90625 
L 33.6875 72.90625 
L 8.296875 -9.28125 
L 0 -9.28125 
z
" id="DejaVuSans-2f"/>
      <path d="M 45.40625 46.390625 
L 45.40625 75.984375 
L 54.390625 75.984375 
L 54.390625 0 
L 45.40625 0 
L 45.40625 8.203125 
Q 42.578125 3.328125 38.25 0.953125 
Q 33.9375 -1.421875 27.875 -1.421875 
Q 17.96875 -1.421875 11.734375 6.484375 
Q 5.515625 14.40625 5.515625 27.296875 
Q 5.515625 40.1875 11.734375 48.09375 
Q 17.96875 56 27.875 56 
Q 33.9375 56 38.25 53.625 
Q 42.578125 51.265625 45.40625 46.390625 
z
M 14.796875 27.296875 
Q 14.796875 17.390625 18.875 11.75 
Q 22.953125 6.109375 30.078125 6.109375 
Q 37.203125 6.109375 41.296875 11.75 
Q 45.40625 17.390625 45.40625 27.296875 
Q 45.40625 37.203125 41.296875 42.84375 
Q 37.203125 48.484375 30.078125 48.484375 
Q 22.953125 48.484375 18.875 42.84375 
Q 14.796875 37.203125 14.796875 27.296875 
z
" id="DejaVuSans-64"/>
      <path d="M 9.421875 54.6875 
L 18.40625 54.6875 
L 18.40625 0 
L 9.421875 0 
z
M 9.421875 75.984375 
L 18.40625 75.984375 
L 18.40625 64.59375 
L 9.421875 64.59375 
z
" id="DejaVuSans-69"/>
      <path d="M 52 44.1875 
Q 55.375 50.25 60.0625 53.125 
Q 64.75 56 71.09375 56 
Q 79.640625 56 84.28125 50.015625 
Q 88.921875 44.046875 88.921875 33.015625 
L 88.921875 0 
L 79.890625 0 
L 79.890625 32.71875 
Q 79.890625 40.578125 77.09375 44.375 
Q 74.3125 48.1875 68.609375 48.1875 
Q 61.625 48.1875 57.5625 43.546875 
Q 53.515625 38.921875 53.515625 30.90625 
L 53.515625 0 
L 44.484375 0 
L 44.484375 32.71875 
Q 44.484375 40.625 41.703125 44.40625 
Q 38.921875 48.1875 33.109375 48.1875 
Q 26.21875 48.1875 22.15625 43.53125 
Q 18.109375 38.875 18.109375 30.90625 
L 18.109375 0 
L 9.078125 0 
L 9.078125 54.6875 
L 18.109375 54.6875 
L 18.109375 46.1875 
Q 21.1875 51.21875 25.484375 53.609375 
Q 29.78125 56 35.6875 56 
Q 41.65625 56 45.828125 52.96875 
Q 50 49.953125 52 44.1875 
z
" id="DejaVuSans-6d"/>
      <path d="M 54.890625 33.015625 
L 54.890625 0 
L 45.90625 0 
L 45.90625 32.71875 
Q 45.90625 40.484375 42.875 44.328125 
Q 39.84375 48.1875 33.796875 48.1875 
Q 26.515625 48.1875 22.3125 43.546875 
Q 18.109375 38.921875 18.109375 30.90625 
L 18.109375 0 
L 9.078125 0 
L 9.078125 54.6875 
L 18.109375 54.6875 
L 18.109375 46.1875 
Q 21.34375 51.125 25.703125 53.5625 
Q 30.078125 56 35.796875 56 
Q 45.21875 56 50.046875 50.171875 
Q 54.890625 44.34375 54.890625 33.015625 
z
" id="DejaVuSans-6e"/>
      <path d="M 8.015625 75.875 
L 15.828125 75.875 
Q 23.140625 64.359375 26.78125 53.3125 
Q 30.421875 42.28125 30.421875 31.390625 
Q 30.421875 20.453125 26.78125 9.375 
Q 23.140625 -1.703125 15.828125 -13.1875 
L 8.015625 -13.1875 
Q 14.5 -2 17.703125 9.0625 
Q 20.90625 20.125 20.90625 31.390625 
Q 20.90625 42.671875 17.703125 53.65625 
Q 14.5 64.65625 8.015625 75.875 
z
" id="DejaVuSans-29"/>
     </defs>
     <g transform="translate(73.803219 338.153594)scale(0.17 -0.17)">
      <use xlink:href="#DejaVuSans-6c"/>
      <use x="27.783203" xlink:href="#DejaVuSans-6f"/>
      <use x="88.964844" xlink:href="#DejaVuSans-67"/>
      <use x="152.441406" xlink:href="#DejaVuSans-31"/>
      <use x="216.064453" xlink:href="#DejaVuSans-30"/>
      <use x="279.6875" xlink:href="#DejaVuSans-28"/>
      <use x="318.701172" xlink:href="#DejaVuSans-23"/>
      <use x="402.490234" xlink:href="#DejaVuSans-20"/>
      <use x="434.277344" xlink:href="#DejaVuSans-66"/>
      <use x="469.404297" xlink:href="#DejaVuSans-2d"/>
      <use x="505.488281" xlink:href="#DejaVuSans-65"/>
      <use x="567.011719" xlink:href="#DejaVuSans-76"/>
      <use x="626.191406" xlink:href="#DejaVuSans-61"/>
      <use x="687.470703" xlink:href="#DejaVuSans-6c"/>
      <use x="715.253906" xlink:href="#DejaVuSans-73"/>
      <use x="767.353516" xlink:href="#DejaVuSans-20"/>
      <use x="799.140625" xlink:href="#DejaVuSans-2f"/>
      <use x="832.832031" xlink:href="#DejaVuSans-20"/>
      <use x="864.619141" xlink:href="#DejaVuSans-64"/>
      <use x="928.095703" xlink:href="#DejaVuSans-69"/>
      <use x="955.878906" xlink:href="#DejaVuSans-6d"/>
      <use x="1053.291016" xlink:href="#DejaVuSans-65"/>
      <use x="1114.814453" xlink:href="#DejaVuSans-6e"/>
      <use x="1178.193359" xlink:href="#DejaVuSans-73"/>
      <use x="1230.292969" xlink:href="#DejaVuSans-69"/>
      <use x="1258.076172" xlink:href="#DejaVuSans-6f"/>
      <use x="1319.257812" xlink:href="#DejaVuSans-6e"/>
      <use x="1382.636719" xlink:href="#DejaVuSans-29"/>
     </g>
    </g>
   </g>
   <g id="matplotlib.axis_2">
    <g id="ytick_1">
     <g id="line2d_25">
      <path clip-path="url(#p8ce26dd198)" d="M 56.12 294.88 
L 333.168 294.88 
" style="fill:none;stroke:#b0b0b0;stroke-linecap:square;stroke-width:0.8;"/>
     </g>
     <g id="line2d_26">
      <defs>
       <path d="M 0 0 
L -3.5 0 
" id="mb83f9f1ea3" style="stroke:#000000;stroke-width:0.8;"/>
      </defs>
      <g>
       <use style="stroke:#000000;stroke-width:0.8;" x="56.12" xlink:href="#mb83f9f1ea3" y="294.88"/>
      </g>
     </g>
     <g id="text_6">
      <!-- 0.0 -->
      <defs>
       <path d="M 10.6875 12.40625 
L 21 12.40625 
L 21 0 
L 10.6875 0 
z
" id="DejaVuSans-2e"/>
      </defs>
      <g transform="translate(23.675 300.95875)scale(0.16 -0.16)">
       <use xlink:href="#DejaVuSans-30"/>
       <use x="63.623047" xlink:href="#DejaVuSans-2e"/>
       <use x="95.410156" xlink:href="#DejaVuSans-30"/>
      </g>
     </g>
    </g>
    <g id="ytick_2">
     <g id="line2d_27">
      <path clip-path="url(#p8ce26dd198)" d="M 56.12 237.843411 
L 333.168 237.843411 
" style="fill:none;stroke:#b0b0b0;stroke-linecap:square;stroke-width:0.8;"/>
     </g>
     <g id="line2d_28">
      <g>
       <use style="stroke:#000000;stroke-width:0.8;" x="56.12" xlink:href="#mb83f9f1ea3" y="237.843411"/>
      </g>
     </g>
     <g id="text_7">
      <!-- 0.2 -->
      <g transform="translate(23.675 243.922161)scale(0.16 -0.16)">
       <use xlink:href="#DejaVuSans-30"/>
       <use x="63.623047" xlink:href="#DejaVuSans-2e"/>
       <use x="95.410156" xlink:href="#DejaVuSans-32"/>
      </g>
     </g>
    </g>
    <g id="ytick_3">
     <g id="line2d_29">
      <path clip-path="url(#p8ce26dd198)" d="M 56.12 180.806823 
L 333.168 180.806823 
" style="fill:none;stroke:#b0b0b0;stroke-linecap:square;stroke-width:0.8;"/>
     </g>
     <g id="line2d_30">
      <g>
       <use style="stroke:#000000;stroke-width:0.8;" x="56.12" xlink:href="#mb83f9f1ea3" y="180.806823"/>
      </g>
     </g>
     <g id="text_8">
      <!-- 0.4 -->
      <g transform="translate(23.675 186.885573)scale(0.16 -0.16)">
       <use xlink:href="#DejaVuSans-30"/>
       <use x="63.623047" xlink:href="#DejaVuSans-2e"/>
       <use x="95.410156" xlink:href="#DejaVuSans-34"/>
      </g>
     </g>
    </g>
    <g id="ytick_4">
     <g id="line2d_31">
      <path clip-path="url(#p8ce26dd198)" d="M 56.12 123.770234 
L 333.168 123.770234 
" style="fill:none;stroke:#b0b0b0;stroke-linecap:square;stroke-width:0.8;"/>
     </g>
     <g id="line2d_32">
      <g>
       <use style="stroke:#000000;stroke-width:0.8;" x="56.12" xlink:href="#mb83f9f1ea3" y="123.770234"/>
      </g>
     </g>
     <g id="text_9">
      <!-- 0.6 -->
      <g transform="translate(23.675 129.848984)scale(0.16 -0.16)">
       <use xlink:href="#DejaVuSans-30"/>
       <use x="63.623047" xlink:href="#DejaVuSans-2e"/>
       <use x="95.410156" xlink:href="#DejaVuSans-36"/>
      </g>
     </g>
    </g>
    <g id="ytick_5">
     <g id="line2d_33">
      <path clip-path="url(#p8ce26dd198)" d="M 56.12 66.733646 
L 333.168 66.733646 
" style="fill:none;stroke:#b0b0b0;stroke-linecap:square;stroke-width:0.8;"/>
     </g>
     <g id="line2d_34">
      <g>
       <use style="stroke:#000000;stroke-width:0.8;" x="56.12" xlink:href="#mb83f9f1ea3" y="66.733646"/>
      </g>
     </g>
     <g id="text_10">
      <!-- 0.8 -->
      <defs>
       <path d="M 31.78125 34.625 
Q 24.75 34.625 20.71875 30.859375 
Q 16.703125 27.09375 16.703125 20.515625 
Q 16.703125 13.921875 20.71875 10.15625 
Q 24.75 6.390625 31.78125 6.390625 
Q 38.8125 6.390625 42.859375 10.171875 
Q 46.921875 13.96875 46.921875 20.515625 
Q 46.921875 27.09375 42.890625 30.859375 
Q 38.875 34.625 31.78125 34.625 
z
M 21.921875 38.8125 
Q 15.578125 40.375 12.03125 44.71875 
Q 8.5 49.078125 8.5 55.328125 
Q 8.5 64.0625 14.71875 69.140625 
Q 20.953125 74.21875 31.78125 74.21875 
Q 42.671875 74.21875 48.875 69.140625 
Q 55.078125 64.0625 55.078125 55.328125 
Q 55.078125 49.078125 51.53125 44.71875 
Q 48 40.375 41.703125 38.8125 
Q 48.828125 37.15625 52.796875 32.3125 
Q 56.78125 27.484375 56.78125 20.515625 
Q 56.78125 9.90625 50.3125 4.234375 
Q 43.84375 -1.421875 31.78125 -1.421875 
Q 19.734375 -1.421875 13.25 4.234375 
Q 6.78125 9.90625 6.78125 20.515625 
Q 6.78125 27.484375 10.78125 32.3125 
Q 14.796875 37.15625 21.921875 38.8125 
z
M 18.3125 54.390625 
Q 18.3125 48.734375 21.84375 45.5625 
Q 25.390625 42.390625 31.78125 42.390625 
Q 38.140625 42.390625 41.71875 45.5625 
Q 45.3125 48.734375 45.3125 54.390625 
Q 45.3125 60.0625 41.71875 63.234375 
Q 38.140625 66.40625 31.78125 66.40625 
Q 25.390625 66.40625 21.84375 63.234375 
Q 18.3125 60.0625 18.3125 54.390625 
z
" id="DejaVuSans-38"/>
      </defs>
      <g transform="translate(23.675 72.812396)scale(0.16 -0.16)">
       <use xlink:href="#DejaVuSans-30"/>
       <use x="63.623047" xlink:href="#DejaVuSans-2e"/>
       <use x="95.410156" xlink:href="#DejaVuSans-38"/>
      </g>
     </g>
    </g>
    <g id="ytick_6">
     <g id="line2d_35">
      <path clip-path="url(#p8ce26dd198)" d="M 56.12 9.697057 
L 333.168 9.697057 
" style="fill:none;stroke:#b0b0b0;stroke-linecap:square;stroke-width:0.8;"/>
     </g>
     <g id="line2d_36">
      <g>
       <use style="stroke:#000000;stroke-width:0.8;" x="56.12" xlink:href="#mb83f9f1ea3" y="9.697057"/>
      </g>
     </g>
     <g id="text_11">
      <!-- 1.0 -->
      <g transform="translate(23.675 15.775807)scale(0.16 -0.16)">
       <use xlink:href="#DejaVuSans-31"/>
       <use x="63.623047" xlink:href="#DejaVuSans-2e"/>
       <use x="95.410156" xlink:href="#DejaVuSans-30"/>
      </g>
     </g>
    </g>
    <g id="text_12">
     <!-- Fraction of function,target pairs -->
     <defs>
      <path d="M 9.8125 72.90625 
L 51.703125 72.90625 
L 51.703125 64.59375 
L 19.671875 64.59375 
L 19.671875 43.109375 
L 48.578125 43.109375 
L 48.578125 34.8125 
L 19.671875 34.8125 
L 19.671875 0 
L 9.8125 0 
z
" id="DejaVuSans-46"/>
      <path d="M 41.109375 46.296875 
Q 39.59375 47.171875 37.8125 47.578125 
Q 36.03125 48 33.890625 48 
Q 26.265625 48 22.1875 43.046875 
Q 18.109375 38.09375 18.109375 28.8125 
L 18.109375 0 
L 9.078125 0 
L 9.078125 54.6875 
L 18.109375 54.6875 
L 18.109375 46.1875 
Q 20.953125 51.171875 25.484375 53.578125 
Q 30.03125 56 36.53125 56 
Q 37.453125 56 38.578125 55.875 
Q 39.703125 55.765625 41.0625 55.515625 
z
" id="DejaVuSans-72"/>
      <path d="M 48.78125 52.59375 
L 48.78125 44.1875 
Q 44.96875 46.296875 41.140625 47.34375 
Q 37.3125 48.390625 33.40625 48.390625 
Q 24.65625 48.390625 19.8125 42.84375 
Q 14.984375 37.3125 14.984375 27.296875 
Q 14.984375 17.28125 19.8125 11.734375 
Q 24.65625 6.203125 33.40625 6.203125 
Q 37.3125 6.203125 41.140625 7.25 
Q 44.96875 8.296875 48.78125 10.40625 
L 48.78125 2.09375 
Q 45.015625 0.34375 40.984375 -0.53125 
Q 36.96875 -1.421875 32.421875 -1.421875 
Q 20.0625 -1.421875 12.78125 6.34375 
Q 5.515625 14.109375 5.515625 27.296875 
Q 5.515625 40.671875 12.859375 48.328125 
Q 20.21875 56 33.015625 56 
Q 37.15625 56 41.109375 55.140625 
Q 45.0625 54.296875 48.78125 52.59375 
z
" id="DejaVuSans-63"/>
      <path d="M 18.3125 70.21875 
L 18.3125 54.6875 
L 36.8125 54.6875 
L 36.8125 47.703125 
L 18.3125 47.703125 
L 18.3125 18.015625 
Q 18.3125 11.328125 20.140625 9.421875 
Q 21.96875 7.515625 27.59375 7.515625 
L 36.8125 7.515625 
L 36.8125 0 
L 27.59375 0 
Q 17.1875 0 13.234375 3.875 
Q 9.28125 7.765625 9.28125 18.015625 
L 9.28125 47.703125 
L 2.6875 47.703125 
L 2.6875 54.6875 
L 9.28125 54.6875 
L 9.28125 70.21875 
z
" id="DejaVuSans-74"/>
      <path d="M 8.5 21.578125 
L 8.5 54.6875 
L 17.484375 54.6875 
L 17.484375 21.921875 
Q 17.484375 14.15625 20.5 10.265625 
Q 23.53125 6.390625 29.59375 6.390625 
Q 36.859375 6.390625 41.078125 11.03125 
Q 45.3125 15.671875 45.3125 23.6875 
L 45.3125 54.6875 
L 54.296875 54.6875 
L 54.296875 0 
L 45.3125 0 
L 45.3125 8.40625 
Q 42.046875 3.421875 37.71875 1 
Q 33.40625 -1.421875 27.6875 -1.421875 
Q 18.265625 -1.421875 13.375 4.4375 
Q 8.5 10.296875 8.5 21.578125 
z
M 31.109375 56 
z
" id="DejaVuSans-75"/>
      <path d="M 11.71875 12.40625 
L 22.015625 12.40625 
L 22.015625 4 
L 14.015625 -11.625 
L 7.71875 -11.625 
L 11.71875 4 
z
" id="DejaVuSans-2c"/>
      <path d="M 18.109375 8.203125 
L 18.109375 -20.796875 
L 9.078125 -20.796875 
L 9.078125 54.6875 
L 18.109375 54.6875 
L 18.109375 46.390625 
Q 20.953125 51.265625 25.265625 53.625 
Q 29.59375 56 35.59375 56 
Q 45.5625 56 51.78125 48.09375 
Q 58.015625 40.1875 58.015625 27.296875 
Q 58.015625 14.40625 51.78125 6.484375 
Q 45.5625 -1.421875 35.59375 -1.421875 
Q 29.59375 -1.421875 25.265625 0.953125 
Q 20.953125 3.328125 18.109375 8.203125 
z
M 48.6875 27.296875 
Q 48.6875 37.203125 44.609375 42.84375 
Q 40.53125 48.484375 33.40625 48.484375 
Q 26.265625 48.484375 22.1875 42.84375 
Q 18.109375 37.203125 18.109375 27.296875 
Q 18.109375 17.390625 22.1875 11.75 
Q 26.265625 6.109375 33.40625 6.109375 
Q 40.53125 6.109375 44.609375 11.75 
Q 48.6875 17.390625 48.6875 27.296875 
z
" id="DejaVuSans-70"/>
     </defs>
     <g transform="translate(16.139531 286.001989)rotate(-90)scale(0.17 -0.17)">
      <use xlink:href="#DejaVuSans-46"/>
      <use x="57.410156" xlink:href="#DejaVuSans-72"/>
      <use x="98.523438" xlink:href="#DejaVuSans-61"/>
      <use x="159.802734" xlink:href="#DejaVuSans-63"/>
      <use x="214.783203" xlink:href="#DejaVuSans-74"/>
      <use x="253.992188" xlink:href="#DejaVuSans-69"/>
      <use x="281.775391" xlink:href="#DejaVuSans-6f"/>
      <use x="342.957031" xlink:href="#DejaVuSans-6e"/>
      <use x="406.335938" xlink:href="#DejaVuSans-20"/>
      <use x="438.123047" xlink:href="#DejaVuSans-6f"/>
      <use x="499.304688" xlink:href="#DejaVuSans-66"/>
      <use x="534.509766" xlink:href="#DejaVuSans-20"/>
      <use x="566.296875" xlink:href="#DejaVuSans-66"/>
      <use x="601.501953" xlink:href="#DejaVuSans-75"/>
      <use x="664.880859" xlink:href="#DejaVuSans-6e"/>
      <use x="728.259766" xlink:href="#DejaVuSans-63"/>
      <use x="783.240234" xlink:href="#DejaVuSans-74"/>
      <use x="822.449219" xlink:href="#DejaVuSans-69"/>
      <use x="850.232422" xlink:href="#DejaVuSans-6f"/>
      <use x="911.414062" xlink:href="#DejaVuSans-6e"/>
      <use x="974.792969" xlink:href="#DejaVuSans-2c"/>
      <use x="1006.580078" xlink:href="#DejaVuSans-74"/>
      <use x="1045.789062" xlink:href="#DejaVuSans-61"/>
      <use x="1107.068359" xlink:href="#DejaVuSans-72"/>
      <use x="1148.166016" xlink:href="#DejaVuSans-67"/>
      <use x="1211.642578" xlink:href="#DejaVuSans-65"/>
      <use x="1273.166016" xlink:href="#DejaVuSans-74"/>
      <use x="1312.375" xlink:href="#DejaVuSans-20"/>
      <use x="1344.162109" xlink:href="#DejaVuSans-70"/>
      <use x="1407.638672" xlink:href="#DejaVuSans-61"/>
      <use x="1468.917969" xlink:href="#DejaVuSans-69"/>
      <use x="1496.701172" xlink:href="#DejaVuSans-72"/>
      <use x="1537.814453" xlink:href="#DejaVuSans-73"/>
     </g>
    </g>
   </g>
   <g id="line2d_37">
    <defs>
     <path d="M 0 1.5 
C 0.397805 1.5 0.77937 1.341951 1.06066 1.06066 
C 1.341951 0.77937 1.5 0.397805 1.5 0 
C 1.5 -0.397805 1.341951 -0.77937 1.06066 -1.06066 
C 0.77937 -1.341951 0.397805 -1.5 0 -1.5 
C -0.397805 -1.5 -0.77937 -1.341951 -1.06066 -1.06066 
C -1.341951 -0.77937 -1.5 -0.397805 -1.5 0 
C -1.5 0.397805 -1.341951 0.77937 -1.06066 1.06066 
C -0.77937 1.341951 -0.397805 1.5 0 1.5 
z
" id="mc245b7c295" style="stroke:#000080;"/>
    </defs>
    <g>
     <use style="fill:#000080;stroke:#000080;" x="196.694781" xlink:href="#mc245b7c295" y="9.697057"/>
     <use style="fill:#000080;stroke:#000080;" x="196.694781" xlink:href="#mc245b7c295" y="9.697057"/>
    </g>
   </g>
   <g id="line2d_38">
    <path d="M 75.003641 294.88 
L 75.003641 275.308622 
L 89.567532 275.308622 
L 89.567532 272.51271 
L 96.536922 272.51271 
L 96.536922 254.059696 
L 97.336537 254.059696 
L 97.336537 248.467874 
L 103.231288 248.467874 
L 103.231288 246.790327 
L 103.777005 246.790327 
L 103.777005 243.994416 
L 105.801534 243.994416 
L 105.801534 242.876052 
L 106.272485 242.876052 
L 106.272485 241.757687 
L 106.730875 241.757687 
L 106.730875 241.198505 
L 108.85563 241.198505 
L 108.85563 240.639323 
L 110.746395 240.639323 
L 110.746395 240.08014 
L 111.100812 240.08014 
L 111.100812 237.843411 
L 111.448069 237.843411 
L 111.448069 230.01486 
L 112.449632 230.01486 
L 112.449632 228.337313 
L 112.770924 228.337313 
L 112.770924 227.778131 
L 113.396034 227.778131 
L 113.396034 226.659767 
L 113.700266 226.659767 
L 113.700266 223.863855 
L 114.581927 223.863855 
L 114.581927 223.304673 
L 114.866043 223.304673 
L 114.866043 222.745491 
L 115.957752 222.745491 
L 115.957752 219.94958 
L 117.475381 219.94958 
L 117.475381 219.390397 
L 117.952873 219.390397 
L 117.952873 217.712851 
L 120.15957 217.712851 
L 120.15957 216.594486 
L 120.365424 216.594486 
L 120.365424 216.035304 
L 120.769881 216.035304 
L 120.769881 213.798575 
L 120.968596 213.798575 
L 120.968596 212.680211 
L 121.929105 212.680211 
L 121.929105 210.443482 
L 122.838768 210.443482 
L 122.838768 209.325117 
L 123.189569 209.325117 
L 123.189569 208.765935 
L 123.36232 208.765935 
L 123.36232 208.206753 
L 124.200956 208.206753 
L 124.200956 207.64757 
L 124.52528 207.64757 
L 124.52528 205.410841 
L 125.310285 205.410841 
L 125.310285 203.174112 
L 125.764637 203.174112 
L 125.764637 202.055748 
L 126.638823 202.055748 
L 126.638823 201.496566 
L 126.92061 201.496566 
L 126.92061 200.378201 
L 127.05979 200.378201 
L 127.05979 199.819019 
L 127.197852 199.819019 
L 127.197852 195.904743 
L 127.334814 195.904743 
L 127.334814 194.786379 
L 127.739271 194.786379 
L 127.739271 193.668014 
L 128.003717 193.668014 
L 128.003717 191.990468 
L 128.264156 191.990468 
L 128.264156 189.194556 
L 128.39291 189.194556 
L 128.39291 186.398645 
L 129.389632 186.398645 
L 129.389632 185.839463 
L 129.748989 185.839463 
L 129.748989 184.721099 
L 129.867125 184.721099 
L 129.867125 182.48437 
L 129.984454 182.48437 
L 129.984454 181.925187 
L 131.115693 181.925187 
L 131.115693 176.892547 
L 131.548134 176.892547 
L 131.654565 174.655818 
L 131.760342 174.655818 
L 131.760342 172.419089 
L 132.684132 172.419089 
L 132.684132 171.859907 
L 133.560797 171.859907 
L 133.560797 171.300725 
L 133.936519 171.300725 
L 133.936519 170.18236 
L 134.304205 170.18236 
L 134.304205 167.945631 
L 134.574897 167.945631 
L 134.664189 161.794627 
L 134.753019 161.794627 
L 134.753019 161.235444 
L 135.190413 161.235444 
L 135.190413 159.557898 
L 135.447604 159.557898 
L 135.532486 154.525258 
L 135.867885 154.525258 
L 135.867885 153.966075 
L 136.359022 153.966075 
L 136.359022 153.406893 
L 136.519665 153.406893 
L 136.519665 150.610982 
L 136.757848 150.610982 
L 136.757848 150.0518 
L 136.914823 150.0518 
L 136.992776 147.815071 
L 137.224536 147.815071 
L 137.224536 146.696706 
L 138.04855 146.696706 
L 138.04855 146.137524 
L 139.519758 146.137524 
L 139.586771 144.459977 
L 140.048681 144.459977 
L 140.048681 143.900795 
L 140.371179 143.900795 
L 140.371179 143.341613 
L 141.303883 143.341613 
L 141.303883 142.78243 
L 142.245962 142.78243 
L 142.245962 142.223248 
L 143.247524 142.223248 
L 143.301492 140.545702 
L 145.332007 140.545702 
L 145.332007 139.986519 
L 145.804252 139.986519 
L 145.804252 139.427337 
L 145.943432 139.427337 
L 145.943432 138.868155 
L 147.57328 138.868155 
L 147.615255 137.74979 
L 149.329562 137.74979 
L 149.329562 137.190608 
L 149.778964 137.190608 
L 149.815889 134.394697 
L 150.957462 134.394697 
L 150.957462 133.835515 
L 151.832219 133.835515 
L 151.832219 133.276332 
L 152.28543 133.276332 
L 152.381011 132.157968 
L 152.789162 132.157968 
L 152.789162 131.039603 
L 153.066156 131.039603 
L 153.066156 130.480421 
L 153.488354 130.480421 
L 153.518118 129.362057 
L 154.331245 129.362057 
L 154.416128 128.243692 
L 154.472484 128.243692 
L 154.472484 126.566145 
L 155.080505 126.566145 
L 155.080505 124.888599 
L 155.269542 124.888599 
L 155.269542 123.211052 
L 155.850472 123.211052 
L 155.850472 122.65187 
L 156.031271 122.65187 
L 156.031271 121.533505 
L 156.412409 121.533505 
L 156.412409 120.415141 
L 156.587422 120.415141 
L 156.587422 119.855959 
L 156.711349 119.855959 
L 156.711349 119.296776 
L 157.005179 119.296776 
L 157.005179 118.737594 
L 157.246258 118.737594 
L 157.246258 118.178412 
L 157.389299 118.178412 
L 157.460375 115.941683 
L 157.531159 115.941683 
L 157.531159 113.704954 
L 157.926853 113.704954 
L 158.018648 112.586589 
L 158.04152 112.586589 
L 158.087174 110.909043 
L 158.178119 110.909043 
L 158.200781 106.994767 
L 158.757817 106.994767 
L 158.757817 106.435585 
L 158.954011 106.435585 
L 158.954011 105.876403 
L 159.25482 105.876403 
L 159.25482 105.31722 
L 159.758552 105.31722 
L 159.758552 104.758038 
L 159.94371 104.758038 
L 159.94371 104.198856 
L 160.348167 104.198856 
L 160.348167 103.639674 
L 160.723782 103.639674 
L 160.723782 103.080491 
L 161.072212 103.080491 
L 161.072212 102.521309 
L 161.186803 102.521309 
L 161.281716 100.28458 
L 161.394923 100.28458 
L 161.469983 99.166216 
L 162.221018 99.166216 
L 162.221018 98.607033 
L 162.363811 98.607033 
L 162.417054 97.488669 
L 162.819862 97.488669 
L 162.819862 96.929487 
L 163.24725 96.929487 
L 163.24725 96.370304 
L 163.795604 96.370304 
L 163.811951 95.25194 
L 164.279369 95.25194 
L 164.279369 94.692758 
L 164.453392 94.692758 
L 164.453392 94.133576 
L 165.14751 94.133576 
L 165.14751 93.574393 
L 166.981174 93.574393 
L 166.981174 93.015211 
L 167.476712 93.015211 
L 167.476712 92.456029 
L 167.634407 92.456029 
L 167.634407 91.896847 
L 167.932671 91.896847 
L 167.984019 90.778482 
L 168.339221 90.778482 
L 168.439373 89.660118 
L 168.809832 89.660118 
L 168.895136 88.541753 
L 169.076516 88.541753 
L 169.076516 87.982571 
L 169.527625 87.982571 
L 169.539337 86.864206 
L 169.737245 86.864206 
L 169.737245 86.305024 
L 170.035586 86.305024 
L 170.069679 84.627477 
L 170.20538 84.627477 
L 170.20538 84.068295 
L 170.328838 84.068295 
L 170.429193 81.272384 
L 170.517909 81.272384 
L 170.573125 80.15402 
L 170.781341 80.15402 
L 170.781341 79.594837 
L 170.933166 79.594837 
L 170.933166 79.035655 
L 171.190358 79.035655 
L 171.190358 78.476473 
L 171.641749 78.476473 
L 171.641749 77.917291 
L 172.252422 77.917291 
L 172.252422 77.358108 
L 172.832476 77.358108 
L 172.92888 76.239744 
L 173.129583 76.239744 
L 173.129583 75.680562 
L 173.318575 75.680562 
L 173.318575 75.121379 
L 173.65361 75.121379 
L 173.70882 73.443833 
L 173.855185 73.443833 
L 173.855185 72.88465 
L 175.059893 72.88465 
L 175.059893 72.325468 
L 175.195237 72.325468 
L 175.195237 71.766286 
L 175.321162 71.766286 
L 175.321162 71.207104 
L 175.685306 71.207104 
L 175.767001 70.088739 
L 176.121918 70.088739 
L 176.121918 69.529557 
L 176.602144 69.529557 
L 176.640919 68.411192 
L 176.887024 68.411192 
L 176.940393 67.292828 
L 177.494671 67.292828 
L 177.494671 66.733646 
L 177.663369 66.733646 
L 177.663369 66.174463 
L 178.017339 66.174463 
L 178.017339 63.378552 
L 178.399167 63.378552 
L 178.45502 61.701006 
L 178.607685 61.701006 
L 178.607685 60.582641 
L 178.731593 60.582641 
L 178.731593 60.023459 
L 178.868228 60.023459 
L 178.868228 59.464277 
L 178.997033 59.464277 
L 178.997033 58.905094 
L 179.111467 58.905094 
L 179.111467 58.345912 
L 179.251783 58.345912 
L 179.344695 57.227548 
L 179.620455 57.227548 
L 179.70492 55.550001 
L 179.763153 55.550001 
L 179.776068 54.431636 
L 179.89186 54.431636 
L 179.89186 53.872454 
L 180.05775 53.872454 
L 180.133778 49.398996 
L 180.240912 49.398996 
L 180.240912 46.043903 
L 180.546025 46.043903 
L 180.638354 43.807174 
L 180.705749 43.807174 
L 180.760694 42.688809 
L 180.894269 42.688809 
L 181.002791 41.570445 
L 181.199986 41.570445 
L 181.294787 40.45208 
L 181.341993 40.45208 
L 181.341993 39.892898 
L 181.50036 39.892898 
L 181.50036 39.333716 
L 181.89857 39.333716 
L 181.89857 38.774534 
L 182.170244 38.774534 
L 182.170244 38.215351 
L 182.92283 38.215351 
L 182.92283 37.656169 
L 183.152407 37.656169 
L 183.210646 36.537805 
L 183.488522 36.537805 
L 183.488522 35.978622 
L 184.136649 35.978622 
L 184.136649 35.41944 
L 184.51313 35.41944 
L 184.57671 34.301076 
L 184.857545 34.301076 
L 184.929434 33.182711 
L 185.162197 33.182711 
L 185.162197 32.623529 
L 185.558643 32.623529 
L 185.558643 32.064347 
L 185.910049 32.064347 
L 185.910049 31.505165 
L 186.076384 31.505165 
L 186.138905 30.3868 
L 186.39113 30.3868 
L 186.39113 29.827618 
L 187.00808 29.827618 
L 187.00808 29.268436 
L 187.264663 29.268436 
L 187.264663 28.709253 
L 187.603651 28.709253 
L 187.701616 27.590889 
L 188.084004 27.590889 
L 188.084004 27.031707 
L 188.3565 27.031707 
L 188.3565 26.472524 
L 188.551296 26.472524 
L 188.551296 25.913342 
L 189.141505 25.913342 
L 189.141505 25.35416 
L 190.295927 25.35416 
L 190.295927 24.794978 
L 190.51157 24.794978 
L 190.51157 24.235795 
L 190.880865 24.235795 
L 190.880865 23.676613 
L 191.085994 23.676613 
L 191.085994 23.117431 
L 191.199275 23.117431 
L 191.199275 21.999066 
L 191.498845 21.999066 
L 191.498845 21.439884 
L 191.61593 21.439884 
L 191.680634 19.762337 
L 192.280354 19.762337 
L 192.280354 19.203155 
L 192.534179 19.203155 
L 192.534179 18.643973 
L 192.729715 18.643973 
L 192.729715 18.084791 
L 193.024884 18.084791 
L 193.024884 17.525609 
L 193.749954 17.525609 
L 193.841322 16.407244 
L 194.005699 16.407244 
L 194.098528 15.28888 
L 194.120956 15.28888 
L 194.120956 14.729697 
L 194.252136 14.729697 
L 194.252136 14.170515 
L 194.426416 14.170515 
L 194.445672 13.052151 
L 194.639772 13.052151 
L 194.639772 12.492968 
L 195.130182 12.492968 
L 195.130182 11.933786 
L 195.340251 11.933786 
L 195.340251 11.374604 
L 195.968063 11.374604 
L 195.968063 10.815422 
L 196.158244 10.815422 
L 196.158244 10.256239 
L 196.694781 10.256239 
L 196.694781 9.697057 
L 333.168 9.697057 
L 333.168 9.697057 
" style="fill:none;stroke:#000080;stroke-linecap:square;stroke-width:1.5;"/>
   </g>
   <g id="line2d_39">
    <defs>
     <path d="M 0 6 
C 1.591219 6 3.117479 5.367802 4.242641 4.242641 
C 5.367802 3.117479 6 1.591219 6 0 
C 6 -1.591219 5.367802 -3.117479 4.242641 -4.242641 
C 3.117479 -5.367802 1.591219 -6 0 -6 
C -1.591219 -6 -3.117479 -5.367802 -4.242641 -4.242641 
C -5.367802 -3.117479 -6 -1.591219 -6 0 
C -6 1.591219 -5.367802 3.117479 -4.242641 4.242641 
C -3.117479 5.367802 -1.591219 6 0 6 
z
" id="m76a82e936d" style="stroke:#000080;stroke-width:1.5;"/>
    </defs>
    <g>
     <use style="fill-opacity:0;stroke:#000080;stroke-width:1.5;" x="113.396034" xlink:href="#m76a82e936d" y="226.659767"/>
     <use style="fill-opacity:0;stroke:#000080;stroke-width:1.5;" x="164.279369" xlink:href="#m76a82e936d" y="94.692758"/>
     <use style="fill-opacity:0;stroke:#000080;stroke-width:1.5;" x="196.694781" xlink:href="#m76a82e936d" y="10.256239"/>
     <use style="fill-opacity:0;stroke:#000080;stroke-width:1.5;" x="196.694781" xlink:href="#m76a82e936d" y="9.697057"/>
     <use style="fill-opacity:0;stroke:#000080;stroke-width:1.5;" x="333.168" xlink:href="#m76a82e936d" y="9.697057"/>
    </g>
   </g>
   <g id="line2d_40">
    <path style="fill:none;stroke:#000080;stroke-linecap:square;stroke-width:1.5;"/>
    <g/>
   </g>
   <g id="line2d_41">
    <defs>
     <path d="M 0 1.5 
C 0.397805 1.5 0.77937 1.341951 1.06066 1.06066 
C 1.341951 0.77937 1.5 0.397805 1.5 0 
C 1.5 -0.397805 1.341951 -0.77937 1.06066 -1.06066 
C 0.77937 -1.341951 0.397805 -1.5 0 -1.5 
C -0.397805 -1.5 -0.77937 -1.341951 -1.06066 -1.06066 
C -1.341951 -0.77937 -1.5 -0.397805 -1.5 0 
C -1.5 0.397805 -1.341951 0.77937 -1.06066 1.06066 
C -0.77937 1.341951 -0.397805 1.5 0 1.5 
z
" id="mc099bc6f21" style="stroke:#ff00ff;"/>
    </defs>
    <g>
     <use style="fill:#ff00ff;stroke:#ff00ff;" x="163.264126" xlink:href="#mc099bc6f21" y="9.697057"/>
     <use style="fill:#ff00ff;stroke:#ff00ff;" x="163.264126" xlink:href="#mc099bc6f21" y="9.697057"/>
    </g>
   </g>
   <g id="line2d_42">
    <path d="M 44.205749 294.88 
L 44.205749 292.084089 
L 75.003641 292.084089 
L 75.003641 291.524907 
L 77.653281 291.524907 
L 77.653281 288.169813 
L 79.948502 288.169813 
L 79.948502 284.255537 
L 81.973032 284.255537 
L 81.973032 283.696355 
L 83.784035 283.696355 
L 83.784035 282.018808 
L 89.567532 282.018808 
L 89.567532 280.900444 
L 90.753425 280.900444 
L 90.753425 278.663715 
L 93.887283 278.663715 
L 93.887283 278.104533 
L 94.816624 278.104533 
L 94.816624 277.545351 
L 95.698286 277.545351 
L 95.698286 275.867804 
L 97.336537 275.867804 
L 97.336537 273.631075 
L 98.832144 273.631075 
L 98.832144 271.953528 
L 99.533818 271.953528 
L 99.533818 271.394346 
L 100.856673 271.394346 
L 100.856673 270.835164 
L 101.481783 270.835164 
L 101.481783 269.157617 
L 102.667676 269.157617 
L 102.667676 268.598435 
L 104.305927 268.598435 
L 104.305927 265.243341 
L 107.177358 265.243341 
L 107.177358 261.888248 
L 107.612537 261.888248 
L 107.612537 260.769883 
L 108.036969 260.769883 
L 108.036969 258.533154 
L 108.85563 258.533154 
L 108.85563 257.973972 
L 110.014853 257.973972 
L 110.014853 257.41479 
L 110.384516 257.41479 
L 110.384516 256.296425 
L 111.100812 256.296425 
L 111.100812 255.737243 
L 112.449632 255.737243 
L 112.449632 254.618879 
L 113.700266 254.618879 
L 113.700266 251.822967 
L 113.999206 251.822967 
L 113.999206 250.704603 
L 114.293036 250.704603 
L 114.293036 249.586238 
L 115.145539 249.586238 
L 115.145539 247.908692 
L 115.420563 247.908692 
L 115.420563 247.34951 
L 115.957752 247.34951 
L 115.957752 246.231145 
L 116.220179 246.231145 
L 116.220179 243.994416 
L 116.73331 243.994416 
L 116.73331 242.876052 
L 116.984244 242.876052 
L 116.984244 239.520958 
L 117.231566 239.520958 
L 117.231566 238.961776 
L 117.715785 238.961776 
L 117.715785 238.402594 
L 118.186736 238.402594 
L 118.186736 235.606682 
L 118.417459 235.606682 
L 118.417459 233.929136 
L 120.365424 233.929136 
L 120.365424 232.810771 
L 120.769881 232.810771 
L 120.769881 232.251589 
L 120.968596 232.251589 
L 120.968596 230.574042 
L 122.480659 230.574042 
L 122.480659 230.01486 
L 122.660646 230.01486 
L 122.660646 229.455678 
L 123.015063 229.455678 
L 123.015063 228.896496 
L 123.189569 228.896496 
L 123.189569 226.659767 
L 123.7027 226.659767 
L 123.7027 226.100584 
L 123.870396 226.100584 
L 123.870396 224.98222 
L 124.200956 224.98222 
L 124.200956 224.423038 
L 124.363883 224.423038 
L 124.363883 223.304673 
L 124.52528 223.304673 
L 124.52528 221.067944 
L 124.685175 221.067944 
L 124.685175 219.390397 
L 125.000572 219.390397 
L 125.000572 214.357757 
L 125.764637 214.357757 
L 125.764637 211.002664 
L 125.913457 211.002664 
L 125.913457 210.443482 
L 126.496178 210.443482 
L 126.496178 209.325117 
L 127.05979 209.325117 
L 127.05979 208.765935 
L 127.197852 208.765935 
L 127.197852 208.206753 
L 127.334814 208.206753 
L 127.334814 207.64757 
L 127.872003 207.64757 
L 127.872003 206.529206 
L 128.264156 206.529206 
L 128.264156 204.292477 
L 128.647561 204.292477 
L 128.647561 203.733295 
L 128.773486 203.733295 
L 128.773486 200.378201 
L 129.022601 200.378201 
L 129.022601 195.904743 
L 129.389632 195.904743 
L 129.389632 195.345561 
L 129.748989 195.345561 
L 129.748989 194.786379 
L 129.867125 194.786379 
L 129.867125 193.108832 
L 129.984454 193.108832 
L 129.984454 192.54965 
L 130.559378 192.54965 
L 130.559378 191.990468 
L 130.67209 191.990468 
L 130.67209 191.431285 
L 130.895323 191.431285 
L 131.005861 189.753739 
L 131.224827 189.753739 
L 131.224827 187.51701 
L 131.654565 187.51701 
L 131.654565 186.957828 
L 131.865471 186.957828 
L 131.969962 184.721099 
L 132.177056 184.721099 
L 132.177056 183.602734 
L 132.583907 183.602734 
L 132.684132 178.010912 
L 132.783777 178.010912 
L 132.783777 177.451729 
L 133.079291 177.451729 
L 133.176677 174.655818 
L 133.465568 174.655818 
L 133.465568 174.096636 
L 133.6555 174.096636 
L 133.6555 172.978271 
L 133.936519 172.978271 
L 133.936519 172.419089 
L 134.121345 172.419089 
L 134.213018 170.18236 
L 134.304205 170.18236 
L 134.304205 169.623178 
L 134.485139 169.623178 
L 134.485139 169.063996 
L 134.753019 169.063996 
L 134.841393 167.386449 
L 134.929315 167.386449 
L 135.016789 166.268085 
L 135.276571 166.268085 
L 135.276571 164.031356 
L 135.532486 164.031356 
L 135.532486 162.353809 
L 135.867885 162.353809 
L 135.950722 160.11708 
L 136.033161 160.11708 
L 136.033161 157.321169 
L 136.278134 157.321169 
L 136.359022 156.202804 
L 136.439531 156.202804 
L 136.519665 152.288529 
L 136.914823 152.288529 
L 136.992776 150.610982 
L 137.377325 150.610982 
L 137.453213 149.492617 
L 137.528768 149.492617 
L 137.528768 147.815071 
L 137.753459 147.815071 
L 137.827708 145.578342 
L 137.975251 145.578342 
L 137.975251 145.019159 
L 138.121538 145.019159 
L 138.121538 143.341613 
L 138.266591 143.341613 
L 138.266591 142.223248 
L 138.410429 142.223248 
L 138.410429 141.104884 
L 138.694545 141.104884 
L 138.764847 138.868155 
L 139.249066 138.868155 
L 139.249066 136.631426 
L 139.452484 136.631426 
L 139.519758 133.276332 
L 139.586771 133.276332 
L 139.586771 131.039603 
L 139.720016 131.039603 
L 139.786254 129.921239 
L 139.852237 129.921239 
L 139.917968 127.125328 
L 140.113666 127.125328 
L 140.113666 126.566145 
L 140.371179 126.566145 
L 140.434959 123.211052 
L 140.498503 123.211052 
L 140.561812 116.500865 
L 140.998571 116.500865 
L 141.060069 113.704954 
L 141.121347 113.704954 
L 141.121347 112.027407 
L 141.243253 112.027407 
L 141.243253 111.468225 
L 141.3643 111.468225 
L 141.3643 110.909043 
L 141.484501 110.909043 
L 141.484501 109.231496 
L 141.603867 109.231496 
L 141.66324 106.435585 
L 141.72241 106.435585 
L 141.781376 103.080491 
L 141.898705 103.080491 
L 141.95707 100.843762 
L 142.303162 100.843762 
L 142.360172 96.370304 
L 142.754037 96.370304 
L 142.809574 90.2193 
L 142.975116 90.2193 
L 143.084598 89.100935 
L 143.247524 89.100935 
L 143.301492 87.982571 
L 143.462385 87.982571 
L 143.462385 86.305024 
L 143.621786 86.305024 
L 143.727238 84.627477 
L 143.884213 84.627477 
L 143.884213 82.949931 
L 144.039767 82.949931 
L 144.039767 81.831566 
L 144.193927 81.831566 
L 144.245007 79.594837 
L 144.447825 79.594837 
L 144.447825 77.917291 
L 144.648278 77.917291 
L 144.648278 74.562197 
L 144.797098 74.562197 
L 144.895601 72.88465 
L 144.993542 72.88465 
L 145.090928 70.088739 
L 145.139415 70.088739 
L 145.235981 67.292828 
L 145.332007 67.292828 
L 145.4275 64.496917 
L 145.710835 64.496917 
L 145.710835 63.937735 
L 145.943432 63.937735 
L 145.943432 63.378552 
L 146.081494 63.378552 
L 146.081494 62.81937 
L 146.218456 62.81937 
L 146.309161 61.701006 
L 146.354335 61.701006 
L 146.354335 60.023459 
L 146.622913 60.023459 
L 146.711514 57.78673 
L 146.799661 57.78673 
L 146.799661 56.668365 
L 146.974611 56.668365 
L 146.974611 55.550001 
L 147.104664 55.550001 
L 147.190823 52.194907 
L 147.233741 52.194907 
L 147.319256 49.398996 
L 147.446737 49.398996 
L 147.489022 47.162267 
L 148.029459 47.162267 
L 148.070335 46.043903 
L 148.273273 46.043903 
L 148.273273 44.366356 
L 148.433916 44.366356 
L 148.513678 43.247992 
L 148.789965 43.247992 
L 148.868095 41.011263 
L 149.138788 41.011263 
L 149.138788 40.45208 
L 149.555732 40.45208 
L 149.630465 38.774534 
L 149.852735 38.774534 
L 149.926191 37.096987 
L 150.360453 37.096987 
L 150.396151 35.978622 
L 150.714141 35.978622 
L 150.784014 34.860258 
L 150.888293 34.860258 
L 150.888293 30.945982 
L 151.163317 30.945982 
L 151.197387 29.827618 
L 151.434009 29.827618 
L 151.434009 28.709253 
L 151.864991 28.709253 
L 151.864991 27.590889 
L 152.027918 27.590889 
L 152.027918 27.031707 
L 152.221413 27.031707 
L 152.221413 26.472524 
L 152.34921 26.472524 
L 152.34921 25.913342 
L 152.539141 25.913342 
L 152.539141 25.35416 
L 152.69583 25.35416 
L 152.69583 21.999066 
L 153.218134 21.999066 
L 153.218134 21.439884 
L 153.754391 21.439884 
L 153.754391 20.880702 
L 154.217413 20.880702 
L 154.217413 20.32152 
L 154.416128 20.32152 
L 154.416128 19.203155 
L 154.528656 19.203155 
L 154.528656 18.643973 
L 154.779183 18.643973 
L 154.779183 18.084791 
L 155.483068 18.084791 
L 155.483068 16.966426 
L 155.746298 16.966426 
L 155.746298 16.407244 
L 160.645384 16.407244 
L 160.645384 15.848062 
L 161.544716 15.848062 
L 161.544716 15.28888 
L 161.711688 15.28888 
L 161.73014 14.170515 
L 161.968239 14.170515 
L 161.968239 13.611333 
L 162.399325 13.611333 
L 162.399325 13.052151 
L 162.698265 13.052151 
L 162.698265 12.492968 
L 162.871714 12.492968 
L 162.923409 11.374604 
L 163.077568 11.374604 
L 163.077568 10.815422 
L 163.264126 10.815422 
L 163.264126 9.697057 
L 333.168 9.697057 
L 333.168 9.697057 
" style="fill:none;stroke:#ff00ff;stroke-linecap:square;stroke-width:1.5;"/>
   </g>
   <g id="line2d_43">
    <defs>
     <path d="M -0 8.485281 
L 5.091169 0 
L 0 -8.485281 
L -5.091169 -0 
z
" id="m4cc1b8cb2b" style="stroke:#ff00ff;stroke-linejoin:miter;stroke-width:1.5;"/>
    </defs>
    <g>
     <use style="fill-opacity:0;stroke:#ff00ff;stroke-linejoin:miter;stroke-width:1.5;" x="116.220179" xlink:href="#m4cc1b8cb2b" y="246.231145"/>
     <use style="fill-opacity:0;stroke:#ff00ff;stroke-linejoin:miter;stroke-width:1.5;" x="143.301492" xlink:href="#m4cc1b8cb2b" y="87.982571"/>
     <use style="fill-opacity:0;stroke:#ff00ff;stroke-linejoin:miter;stroke-width:1.5;" x="163.264126" xlink:href="#m4cc1b8cb2b" y="10.815422"/>
     <use style="fill-opacity:0;stroke:#ff00ff;stroke-linejoin:miter;stroke-width:1.5;" x="163.264126" xlink:href="#m4cc1b8cb2b" y="9.697057"/>
     <use style="fill-opacity:0;stroke:#ff00ff;stroke-linejoin:miter;stroke-width:1.5;" x="163.264126" xlink:href="#m4cc1b8cb2b" y="9.697057"/>
     <use style="fill-opacity:0;stroke:#ff00ff;stroke-linejoin:miter;stroke-width:1.5;" x="333.168" xlink:href="#m4cc1b8cb2b" y="9.697057"/>
    </g>
   </g>
   <g id="line2d_44">
    <path style="fill:none;stroke:#ff00ff;stroke-linecap:square;stroke-width:1.5;"/>
    <g/>
   </g>
   <g id="line2d_45">
    <defs>
     <path d="M 0 1.5 
C 0.397805 1.5 0.77937 1.341951 1.06066 1.06066 
C 1.341951 0.77937 1.5 0.397805 1.5 0 
C 1.5 -0.397805 1.341951 -0.77937 1.06066 -1.06066 
C 0.77937 -1.341951 0.397805 -1.5 0 -1.5 
C -0.397805 -1.5 -0.77937 -1.341951 -1.06066 -1.06066 
C -1.341951 -0.77937 -1.5 -0.397805 -1.5 0 
C -1.5 0.397805 -1.341951 0.77937 -1.06066 1.06066 
C -0.77937 1.341951 -0.397805 1.5 0 1.5 
z
" id="meaa144abe4" style="stroke:#ff7500;"/>
    </defs>
    <g>
     <use style="fill:#ff7500;stroke:#ff7500;" x="172.706339" xlink:href="#meaa144abe4" y="9.697057"/>
     <use style="fill:#ff7500;stroke:#ff7500;" x="172.706339" xlink:href="#meaa144abe4" y="9.697057"/>
    </g>
   </g>
   <g id="line2d_46">
    <path d="M 77.653281 294.88 
L 77.653281 293.202453 
L 93.887283 293.202453 
L 93.887283 292.643271 
L 94.816624 292.643271 
L 94.816624 290.965724 
L 99.533818 290.965724 
L 99.533818 290.406542 
L 101.481783 290.406542 
L 101.481783 289.288178 
L 102.667676 289.288178 
L 102.667676 285.373902 
L 104.305927 285.373902 
L 104.305927 284.81472 
L 105.801534 284.81472 
L 105.801534 282.577991 
L 106.730875 282.577991 
L 106.730875 282.018808 
L 107.177358 282.018808 
L 107.177358 281.459626 
L 108.451173 281.459626 
L 108.451173 278.104533 
L 108.85563 278.104533 
L 108.85563 275.867804 
L 109.637066 275.867804 
L 109.637066 272.51271 
L 110.014853 272.51271 
L 110.014853 271.394346 
L 110.384516 271.394346 
L 110.384516 266.920888 
L 111.100812 266.920888 
L 111.100812 265.802523 
L 111.448069 265.802523 
L 111.448069 265.243341 
L 112.449632 265.243341 
L 112.449632 264.124977 
L 113.086321 264.124977 
L 113.086321 263.565795 
L 113.700266 263.565795 
L 113.700266 263.006612 
L 113.999206 263.006612 
L 113.999206 261.888248 
L 115.691256 261.888248 
L 115.691256 259.651519 
L 116.220179 259.651519 
L 116.220179 256.296425 
L 117.231566 256.296425 
L 117.231566 255.737243 
L 117.475381 255.737243 
L 117.475381 255.178061 
L 117.715785 255.178061 
L 117.715785 253.500514 
L 118.186736 253.500514 
L 118.186736 252.941332 
L 118.417459 252.941332 
L 118.417459 252.38215 
L 118.645127 252.38215 
L 118.645127 251.263785 
L 119.740314 251.263785 
L 119.740314 250.704603 
L 119.95122 250.704603 
L 119.95122 249.586238 
L 120.15957 249.586238 
L 120.15957 247.908692 
L 120.365424 247.908692 
L 120.365424 244.553598 
L 120.769881 244.553598 
L 120.769881 243.994416 
L 120.968596 243.994416 
L 120.968596 242.876052 
L 121.359263 242.876052 
L 121.359263 241.198505 
L 121.551317 241.198505 
L 121.551317 240.639323 
L 121.929105 240.639323 
L 121.929105 238.402594 
L 122.114929 238.402594 
L 122.114929 237.843411 
L 122.298767 237.843411 
L 122.298767 236.725047 
L 122.480659 236.725047 
L 122.480659 236.165865 
L 122.660646 236.165865 
L 122.660646 235.0475 
L 123.36232 235.0475 
L 123.36232 233.369954 
L 123.533353 233.369954 
L 123.533353 231.133225 
L 123.7027 231.133225 
L 123.7027 230.01486 
L 123.870396 230.01486 
L 123.870396 229.455678 
L 124.52528 229.455678 
L 124.52528 224.423038 
L 125.156126 224.423038 
L 125.156126 222.745491 
L 125.463074 222.745491 
L 125.463074 220.508762 
L 126.207287 220.508762 
L 126.207287 216.035304 
L 127.05979 216.035304 
L 127.05979 215.476122 
L 127.872003 215.476122 
L 127.872003 213.798575 
L 128.13443 213.798575 
L 128.13443 212.680211 
L 128.39291 212.680211 
L 128.39291 212.121028 
L 128.647561 212.121028 
L 128.647561 211.002664 
L 128.898495 211.002664 
L 128.898495 207.088388 
L 130.100987 207.088388 
L 130.100987 205.970024 
L 130.216736 205.970024 
L 130.216736 204.851659 
L 130.33171 204.851659 
L 130.33171 204.292477 
L 130.67209 204.292477 
L 130.67209 200.378201 
L 130.784069 200.378201 
L 130.784069 199.819019 
L 130.895323 199.819019 
L 130.895323 199.259837 
L 131.548134 199.259837 
L 131.654565 190.872103 
L 131.865471 190.872103 
L 131.865471 188.635374 
L 132.073821 188.635374 
L 132.177056 187.51701 
L 132.882847 187.51701 
L 132.98135 182.48437 
L 133.079291 182.48437 
L 133.079291 181.925187 
L 133.6555 181.925187 
L 133.749684 180.247641 
L 133.843356 180.247641 
L 133.843356 178.010912 
L 134.213018 178.010912 
L 134.213018 177.451729 
L 134.485139 177.451729 
L 134.485139 176.892547 
L 134.753019 176.892547 
L 134.753019 174.655818 
L 134.929315 174.655818 
L 134.929315 174.096636 
L 135.190413 174.096636 
L 135.190413 171.859907 
L 135.447604 171.859907 
L 135.532486 170.18236 
L 135.784647 170.18236 
L 135.784647 169.623178 
L 135.950722 169.623178 
L 136.033161 167.945631 
L 136.359022 167.945631 
L 136.439531 161.235444 
L 136.67882 161.235444 
L 136.67882 160.11708 
L 136.992776 160.11708 
L 136.992776 155.643622 
L 137.301101 155.643622 
L 137.377325 152.288529 
L 137.901638 152.288529 
L 137.901638 151.729346 
L 138.4819 151.729346 
L 138.4819 150.610982 
L 138.623956 150.610982 
L 138.694545 148.933435 
L 138.904592 148.933435 
L 138.904592 147.815071 
L 139.317139 147.815071 
L 139.317139 143.341613 
L 139.452484 143.341613 
L 139.452484 142.78243 
L 139.917968 142.78243 
L 139.917968 139.986519 
L 140.048681 139.986519 
L 140.048681 139.427337 
L 140.434959 139.427337 
L 140.434959 138.308973 
L 140.998571 138.308973 
L 140.998571 136.072244 
L 141.424506 136.072244 
L 141.424506 135.513061 
L 141.544287 135.513061 
L 141.544287 134.953879 
L 141.72241 134.953879 
L 141.781376 131.039603 
L 141.898705 131.039603 
L 141.898705 129.921239 
L 142.303162 129.921239 
L 142.303162 127.68451 
L 142.864932 127.68451 
L 142.864932 127.125328 
L 143.029944 127.125328 
L 143.029944 126.566145 
L 143.408921 126.566145 
L 143.408921 125.447781 
L 145.332007 125.447781 
L 145.332007 124.888599 
L 145.663936 124.888599 
L 145.757607 122.65187 
L 146.081494 122.65187 
L 146.172923 120.415141 
L 146.489148 120.415141 
L 146.57844 118.178412 
L 146.843566 118.178412 
L 146.843566 117.61923 
L 147.104664 117.61923 
L 147.147797 115.941683 
L 147.276552 115.941683 
L 147.276552 114.823318 
L 147.404349 114.823318 
L 147.446737 110.349861 
L 147.531203 110.349861 
L 147.531203 109.790678 
L 147.657127 109.790678 
L 147.698898 106.994767 
L 147.906242 106.994767 
L 147.906242 105.876403 
L 148.070335 105.876403 
L 148.070335 101.962127 
L 148.473843 101.962127 
L 148.513678 97.488669 
L 148.593071 97.488669 
L 148.593071 95.25194 
L 148.907027 95.25194 
L 148.907027 94.692758 
L 149.061881 94.692758 
L 149.061881 94.133576 
L 149.630465 94.133576 
L 149.630465 92.456029 
L 149.815889 92.456029 
L 149.926191 85.745842 
L 150.288834 85.745842 
L 150.288834 84.068295 
L 151.129178 84.068295 
L 151.129178 82.949931 
L 153.218134 82.949931 
L 153.248369 81.831566 
L 155.850472 81.831566 
L 155.850472 81.272384 
L 156.686635 81.272384 
L 156.686635 80.713202 
L 157.053666 80.713202 
L 157.126141 79.594837 
L 157.811415 79.594837 
L 157.811415 79.035655 
L 158.132707 79.035655 
L 158.223412 77.358108 
L 158.246014 77.358108 
L 158.268586 75.680562 
L 158.4034 75.680562 
L 158.4034 74.562197 
L 158.559357 74.562197 
L 158.625765 72.325468 
L 158.823464 72.325468 
L 158.910606 68.411192 
L 159.018915 68.411192 
L 159.126546 66.733646 
L 159.212168 66.733646 
L 159.297366 59.464277 
L 159.571378 59.464277 
L 159.571378 57.227548 
L 159.758552 57.227548 
L 159.758552 56.109183 
L 159.923235 56.109183 
L 160.004989 54.431636 
L 160.086355 54.431636 
L 160.167338 52.75409 
L 160.645384 52.75409 
L 160.645384 52.194907 
L 160.89888 52.194907 
L 160.89888 48.280632 
L 161.281716 48.280632 
L 161.281716 47.72145 
L 161.600554 47.72145 
L 161.600554 47.162267 
L 162.02272 47.162267 
L 162.02272 43.807174 
L 163.860898 43.807174 
L 163.860898 43.247992 
L 165.447232 43.247992 
L 165.447232 42.688809 
L 167.450289 42.688809 
L 167.450289 42.129627 
L 169.944339 42.129627 
L 169.944339 41.570445 
L 170.540016 41.570445 
L 170.65013 36.537805 
L 170.672068 36.537805 
L 170.672068 35.41944 
L 170.911559 35.41944 
L 170.911559 34.301076 
L 171.040797 34.301076 
L 171.147759 31.505165 
L 171.211617 31.505165 
L 171.285821 29.268436 
L 171.370234 29.268436 
L 171.422783 25.913342 
L 171.48563 25.913342 
L 171.48563 25.35416 
L 171.610638 25.35416 
L 171.610638 24.794978 
L 171.857961 24.794978 
L 171.959971 21.999066 
L 171.980301 21.999066 
L 171.980301 19.762337 
L 172.121938 19.762337 
L 172.121938 17.525609 
L 172.312313 17.525609 
L 172.421573 12.492968 
L 172.480879 12.492968 
L 172.559635 10.256239 
L 172.706339 10.256239 
L 172.706339 9.697057 
L 333.168 9.697057 
L 333.168 9.697057 
" style="fill:none;stroke:#ff7500;stroke-linecap:square;stroke-width:1.5;"/>
   </g>
   <g id="line2d_47">
    <defs>
     <path d="M 0 -6 
L -1.347084 -1.854102 
L -5.706339 -1.854102 
L -2.179628 0.708204 
L -3.526712 4.854102 
L -0 2.291796 
L 3.526712 4.854102 
L 2.179628 0.708204 
L 5.706339 -1.854102 
L 1.347084 -1.854102 
z
" id="m060096ac52" style="stroke:#ff7500;stroke-linejoin:bevel;stroke-width:1.5;"/>
    </defs>
    <g>
     <use style="fill-opacity:0;stroke:#ff7500;stroke-linejoin:bevel;stroke-width:1.5;" x="113.700266" xlink:href="#m060096ac52" y="263.565795"/>
     <use style="fill-opacity:0;stroke:#ff7500;stroke-linejoin:bevel;stroke-width:1.5;" x="153.248369" xlink:href="#m060096ac52" y="82.390748"/>
     <use style="fill-opacity:0;stroke:#ff7500;stroke-linejoin:bevel;stroke-width:1.5;" x="172.706339" xlink:href="#m060096ac52" y="10.256239"/>
     <use style="fill-opacity:0;stroke:#ff7500;stroke-linejoin:bevel;stroke-width:1.5;" x="172.706339" xlink:href="#m060096ac52" y="9.697057"/>
     <use style="fill-opacity:0;stroke:#ff7500;stroke-linejoin:bevel;stroke-width:1.5;" x="333.168" xlink:href="#m060096ac52" y="9.697057"/>
    </g>
   </g>
   <g id="line2d_48">
    <path style="fill:none;stroke:#ff7500;stroke-linecap:square;stroke-width:1.5;"/>
    <g/>
   </g>
   <g id="line2d_49">
    <defs>
     <path d="M 0 1.5 
C 0.397805 1.5 0.77937 1.341951 1.06066 1.06066 
C 1.341951 0.77937 1.5 0.397805 1.5 0 
C 1.5 -0.397805 1.341951 -0.77937 1.06066 -1.06066 
C 0.77937 -1.341951 0.397805 -1.5 0 -1.5 
C -0.397805 -1.5 -0.77937 -1.341951 -1.06066 -1.06066 
C -1.341951 -0.77937 -1.5 -0.397805 -1.5 0 
C -1.5 0.397805 -1.341951 0.77937 -1.06066 1.06066 
C -0.77937 1.341951 -0.397805 1.5 0 1.5 
z
" id="mbf1b77345b" style="stroke:#6495ed;"/>
    </defs>
    <g>
     <use style="fill:#6495ed;stroke:#6495ed;" x="171.454235" xlink:href="#mbf1b77345b" y="9.697057"/>
     <use style="fill:#6495ed;stroke:#6495ed;" x="171.454235" xlink:href="#mbf1b77345b" y="9.697057"/>
    </g>
   </g>
   <g id="line2d_50">
    <path d="M 79.948502 294.88 
L 79.948502 294.320818 
L 81.973032 294.320818 
L 81.973032 293.761636 
L 85.422286 293.761636 
L 85.422286 292.084089 
L 91.862754 292.084089 
L 91.862754 288.728995 
L 103.231288 288.728995 
L 103.231288 287.610631 
L 104.305927 287.610631 
L 104.305927 287.051449 
L 104.819059 287.051449 
L 104.819059 284.255537 
L 106.272485 284.255537 
L 106.272485 283.696355 
L 107.177358 283.696355 
L 107.177358 280.900444 
L 107.612537 280.900444 
L 107.612537 280.341262 
L 108.036969 280.341262 
L 108.036969 279.222897 
L 109.250788 279.222897 
L 109.250788 278.663715 
L 110.746395 278.663715 
L 110.746395 275.867804 
L 111.100812 275.867804 
L 111.100812 272.51271 
L 112.122219 272.51271 
L 112.122219 271.953528 
L 112.449632 271.953528 
L 112.449632 271.394346 
L 113.086321 271.394346 
L 113.086321 270.835164 
L 113.396034 270.835164 
L 113.396034 266.361706 
L 113.700266 266.361706 
L 113.700266 265.802523 
L 114.866043 265.802523 
L 114.866043 262.44743 
L 116.220179 262.44743 
L 116.220179 260.210701 
L 116.478659 260.210701 
L 116.478659 259.651519 
L 116.984244 259.651519 
L 116.984244 258.533154 
L 117.475381 258.533154 
L 117.475381 256.855608 
L 118.186736 256.855608 
L 118.186736 249.586238 
L 118.417459 249.586238 
L 118.417459 249.027056 
L 119.09161 249.027056 
L 119.09161 248.467874 
L 120.365424 248.467874 
L 120.365424 247.908692 
L 120.568842 247.908692 
L 120.568842 246.231145 
L 121.741249 246.231145 
L 121.741249 245.671963 
L 122.480659 245.671963 
L 122.480659 243.435234 
L 123.36232 243.435234 
L 123.36232 242.876052 
L 123.533353 242.876052 
L 123.533353 237.284229 
L 124.363883 237.284229 
L 124.363883 232.251589 
L 124.685175 232.251589 
L 124.685175 231.692407 
L 124.843597 231.692407 
L 124.843597 231.133225 
L 125.156126 231.133225 
L 125.156126 230.574042 
L 125.764637 230.574042 
L 125.764637 230.01486 
L 126.061 230.01486 
L 126.061 228.337313 
L 126.207287 228.337313 
L 126.207287 227.778131 
L 126.352339 227.778131 
L 126.352339 224.98222 
L 126.496178 224.98222 
L 126.496178 222.745491 
L 126.638823 222.745491 
L 126.638823 219.94958 
L 127.197852 219.94958 
L 127.197852 219.390397 
L 127.605507 219.390397 
L 127.605507 218.831215 
L 128.264156 218.831215 
L 128.264156 217.153669 
L 128.520707 217.153669 
L 128.520707 212.680211 
L 128.773486 212.680211 
L 128.773486 212.121028 
L 129.145817 212.121028 
L 129.145817 209.325117 
L 129.268157 209.325117 
L 129.268157 205.410841 
L 129.389632 205.410841 
L 129.389632 198.700655 
L 129.748989 198.700655 
L 129.748989 197.023108 
L 129.867125 197.023108 
L 129.867125 196.463926 
L 130.216736 196.463926 
L 130.216736 195.345561 
L 130.559378 195.345561 
L 130.559378 194.227197 
L 131.224827 194.227197 
L 131.333273 190.872103 
L 131.760342 190.872103 
L 131.760342 189.753739 
L 132.279675 189.753739 
L 132.381685 185.839463 
L 132.583907 185.839463 
L 132.583907 180.247641 
L 132.98135 180.247641 
L 133.079291 175.774183 
L 133.176677 175.774183 
L 133.273515 174.096636 
L 133.560797 174.096636 
L 133.560797 173.537454 
L 133.843356 173.537454 
L 133.843356 171.859907 
L 134.029181 171.859907 
L 134.121345 165.14972 
L 134.213018 165.14972 
L 134.213018 164.590538 
L 134.39491 164.590538 
L 134.39491 164.031356 
L 134.664189 164.031356 
L 134.664189 161.235444 
L 135.016789 161.235444 
L 135.10382 158.439533 
L 135.701004 158.439533 
L 135.701004 152.847711 
L 135.950722 152.847711 
L 135.950722 149.492617 
L 136.519665 149.492617 
L 136.519665 148.933435 
L 137.14763 148.933435 
L 137.14763 147.815071 
L 137.377325 147.815071 
L 137.453213 145.578342 
L 137.528768 145.578342 
L 137.603992 139.427337 
L 137.678888 139.427337 
L 137.753459 135.513061 
L 137.901638 135.513061 
L 137.901638 132.157968 
L 138.121538 132.157968 
L 138.121538 131.039603 
L 138.623956 131.039603 
L 138.623956 128.802874 
L 138.904592 128.802874 
L 138.904592 128.243692 
L 139.317139 128.243692 
L 139.317139 127.68451 
L 139.653523 127.68451 
L 139.653523 125.447781 
L 139.852237 125.447781 
L 139.852237 122.65187 
L 139.983449 122.65187 
L 139.983449 122.092688 
L 140.307161 122.092688 
L 140.307161 121.533505 
L 140.750355 121.533505 
L 140.750355 120.415141 
L 141.424506 120.415141 
L 141.424506 119.855959 
L 142.245962 119.855959 
L 142.245962 117.61923 
L 142.975116 117.61923 
L 143.029944 114.823318 
L 143.621786 114.823318 
L 143.621786 113.145772 
L 143.936221 113.145772 
L 143.936221 111.468225 
L 144.648278 111.468225 
L 144.747635 109.231496 
L 145.569751 109.231496 
L 145.616908 108.113132 
L 146.39939 108.113132 
L 146.489148 106.994767 
L 146.622913 106.994767 
L 146.622913 106.435585 
L 146.799661 106.435585 
L 146.887358 103.080491 
L 147.489022 103.080491 
L 147.531203 101.402945 
L 147.615255 101.402945 
L 147.657127 100.28458 
L 147.988485 100.28458 
L 147.988485 99.725398 
L 148.111115 99.725398 
L 148.111115 99.166216 
L 148.473843 99.166216 
L 148.473843 98.607033 
L 148.593071 98.607033 
L 148.672099 95.811122 
L 148.984628 95.811122 
L 148.984628 94.692758 
L 149.329562 94.692758 
L 149.329562 94.133576 
L 149.778964 94.133576 
L 149.778964 90.2193 
L 149.926191 90.2193 
L 149.999334 87.982571 
L 150.072167 87.982571 
L 150.072167 86.864206 
L 150.216915 86.864206 
L 150.324681 85.745842 
L 150.360453 85.745842 
L 150.467326 82.390748 
L 150.573538 82.390748 
L 150.573538 81.831566 
L 150.888293 81.831566 
L 150.888293 81.272384 
L 151.060698 81.272384 
L 151.094972 76.798926 
L 151.567774 76.798926 
L 151.601053 72.88465 
L 151.766488 72.88465 
L 151.766488 71.766286 
L 152.189314 71.766286 
L 152.221413 70.088739 
L 152.476064 70.088739 
L 152.476064 68.411192 
L 152.69583 68.411192 
L 152.69583 67.292828 
L 152.943598 67.292828 
L 153.004986 65.056099 
L 153.187846 65.056099 
L 153.187846 63.378552 
L 153.398752 63.378552 
L 153.398752 61.141823 
L 153.695627 61.141823 
L 153.695627 60.582641 
L 153.842163 60.582641 
L 153.929489 53.872454 
L 154.331245 53.872454 
L 154.331245 53.313272 
L 154.444329 53.313272 
L 154.444329 52.75409 
L 154.612571 52.75409 
L 154.612571 52.194907 
L 154.806795 52.194907 
L 154.806795 51.635725 
L 155.588844 51.635725 
L 155.588844 51.076543 
L 156.210188 51.076543 
L 156.210188 50.517361 
L 156.956555 50.517361 
L 156.956555 49.958178 
L 157.741778 49.958178 
L 157.741778 49.398996 
L 158.268586 49.398996 
L 158.291129 48.280632 
L 158.625765 48.280632 
L 158.713912 47.162267 
L 159.550455 47.162267 
L 159.550455 46.603085 
L 160.167338 46.603085 
L 160.167338 46.043903 
L 160.308147 46.043903 
L 160.308147 45.484721 
L 160.467671 45.484721 
L 160.467671 44.925538 
L 160.860123 44.925538 
L 160.860123 44.366356 
L 161.262775 44.366356 
L 161.319534 41.011263 
L 161.376107 41.011263 
L 161.451249 39.333716 
L 161.711688 39.333716 
L 161.711688 38.774534 
L 161.858757 38.774534 
L 161.858757 37.656169 
L 162.040842 37.656169 
L 162.040842 35.978622 
L 162.203085 35.978622 
L 162.203085 35.41944 
L 162.505428 35.41944 
L 162.505428 34.860258 
L 162.663364 34.860258 
L 162.663364 34.301076 
L 162.923409 34.301076 
L 163.026335 32.064347 
L 163.04343 32.064347 
L 163.04343 31.505165 
L 164.006909 31.505165 
L 164.006909 30.945982 
L 164.342854 30.945982 
L 164.342854 30.3868 
L 164.516239 30.3868 
L 164.563224 29.268436 
L 164.672359 29.268436 
L 164.765354 24.794978 
L 165.132385 24.794978 
L 165.132385 21.999066 
L 165.298024 21.999066 
L 165.298024 18.643973 
L 165.491743 18.643973 
L 165.491743 17.525609 
L 166.002695 17.525609 
L 166.045792 14.170515 
L 171.051523 14.170515 
L 171.051523 13.611333 
L 171.34917 13.611333 
L 171.454235 9.697057 
L 333.168 9.697057 
L 333.168 9.697057 
" style="fill:none;stroke:#6495ed;stroke-linecap:square;stroke-width:1.5;"/>
   </g>
   <g id="line2d_51">
    <defs>
     <path d="M -0 6 
L 6 -6 
L -6 -6 
z
" id="ma4c7d460f2" style="stroke:#6495ed;stroke-linejoin:miter;stroke-width:1.5;"/>
    </defs>
    <g>
     <use style="fill-opacity:0;stroke:#6495ed;stroke-linejoin:miter;stroke-width:1.5;" x="140.307161" xlink:href="#ma4c7d460f2" y="121.533505"/>
     <use style="fill-opacity:0;stroke:#6495ed;stroke-linejoin:miter;stroke-width:1.5;" x="171.454235" xlink:href="#ma4c7d460f2" y="10.815422"/>
     <use style="fill-opacity:0;stroke:#6495ed;stroke-linejoin:miter;stroke-width:1.5;" x="171.454235" xlink:href="#ma4c7d460f2" y="9.697057"/>
     <use style="fill-opacity:0;stroke:#6495ed;stroke-linejoin:miter;stroke-width:1.5;" x="171.454235" xlink:href="#ma4c7d460f2" y="9.697057"/>
     <use style="fill-opacity:0;stroke:#6495ed;stroke-linejoin:miter;stroke-width:1.5;" x="333.168" xlink:href="#ma4c7d460f2" y="9.697057"/>
    </g>
   </g>
   <g id="line2d_52">
    <path style="fill:none;stroke:#6495ed;stroke-linecap:square;stroke-width:1.5;"/>
    <g/>
   </g>
   <g id="line2d_53">
    <defs>
     <path d="M 0 1.5 
C 0.397805 1.5 0.77937 1.341951 1.06066 1.06066 
C 1.341951 0.77937 1.5 0.397805 1.5 0 
C 1.5 -0.397805 1.341951 -0.77937 1.06066 -1.06066 
C 0.77937 -1.341951 0.397805 -1.5 0 -1.5 
C -0.397805 -1.5 -0.77937 -1.341951 -1.06066 -1.06066 
C -1.341951 -0.77937 -1.5 -0.397805 -1.5 0 
C -1.5 0.397805 -1.341951 0.77937 -1.06066 1.06066 
C -0.77937 1.341951 -0.397805 1.5 0 1.5 
z
" id="m5eebe0a04f" style="stroke:#ff0000;"/>
    </defs>
    <g>
     <use style="fill:#ff0000;stroke:#ff0000;" x="168.489231" xlink:href="#m5eebe0a04f" y="9.697057"/>
     <use style="fill:#ff0000;stroke:#ff0000;" x="168.489231" xlink:href="#m5eebe0a04f" y="9.697057"/>
    </g>
   </g>
   <g id="line2d_54">
    <path d="M 44.205749 294.88 
L 44.205749 271.394346 
L 56.12 271.394346 
L 56.12 255.178061 
L 63.08939 255.178061 
L 63.08939 252.941332 
L 68.034251 252.941332 
L 68.034251 251.822967 
L 71.869783 251.822967 
L 71.869783 247.908692 
L 75.003641 247.908692 
L 75.003641 243.994416 
L 77.653281 243.994416 
L 77.653281 238.402594 
L 83.784035 238.402594 
L 83.784035 237.843411 
L 85.422286 237.843411 
L 85.422286 237.284229 
L 86.917893 237.284229 
L 86.917893 235.0475 
L 88.293717 235.0475 
L 88.293717 233.369954 
L 91.862754 233.369954 
L 91.862754 232.810771 
L 92.904808 232.810771 
L 92.904808 232.251589 
L 93.887283 232.251589 
L 93.887283 226.659767 
L 95.698286 226.659767 
L 95.698286 223.863855 
L 96.536922 223.863855 
L 96.536922 222.745491 
L 97.336537 222.745491 
L 97.336537 222.186309 
L 98.832144 222.186309 
L 98.832144 221.627126 
L 99.533818 221.627126 
L 99.533818 221.067944 
L 100.856673 221.067944 
L 100.856673 220.508762 
L 103.777005 220.508762 
L 103.777005 219.390397 
L 104.305927 219.390397 
L 104.305927 216.594486 
L 104.819059 216.594486 
L 104.819059 216.035304 
L 105.317315 216.035304 
L 105.317315 214.357757 
L 106.730875 214.357757 
L 106.730875 211.002664 
L 107.177358 211.002664 
L 107.177358 209.884299 
L 108.85563 209.884299 
L 108.85563 208.765935 
L 109.250788 208.765935 
L 109.250788 205.970024 
L 109.637066 205.970024 
L 109.637066 204.292477 
L 110.014853 204.292477 
L 110.014853 203.733295 
L 110.384516 203.733295 
L 110.384516 203.174112 
L 110.746395 203.174112 
L 110.746395 202.055748 
L 111.100812 202.055748 
L 111.100812 200.937384 
L 111.788449 200.937384 
L 111.788449 199.819019 
L 113.086321 199.819019 
L 113.086321 198.141472 
L 113.396034 198.141472 
L 113.396034 197.58229 
L 113.700266 197.58229 
L 113.700266 196.463926 
L 113.999206 196.463926 
L 113.999206 195.904743 
L 114.293036 195.904743 
L 114.293036 194.227197 
L 115.145539 194.227197 
L 115.145539 193.668014 
L 115.957752 193.668014 
L 115.957752 191.990468 
L 116.73331 191.990468 
L 116.73331 189.194556 
L 116.984244 189.194556 
L 116.984244 188.076192 
L 117.231566 188.076192 
L 117.231566 185.839463 
L 117.475381 185.839463 
L 117.475381 184.161916 
L 117.952873 184.161916 
L 117.952873 183.043552 
L 119.95122 183.043552 
L 119.95122 182.48437 
L 120.15957 182.48437 
L 120.15957 181.925187 
L 120.365424 181.925187 
L 120.365424 181.366005 
L 120.769881 181.366005 
L 120.769881 180.806823 
L 121.359263 180.806823 
L 121.359263 177.451729 
L 121.551317 177.451729 
L 121.551317 176.892547 
L 121.741249 176.892547 
L 121.741249 174.655818 
L 121.929105 174.655818 
L 121.929105 174.096636 
L 122.114929 174.096636 
L 122.114929 173.537454 
L 122.660646 173.537454 
L 122.660646 170.18236 
L 122.838768 170.18236 
L 122.838768 169.063996 
L 123.189569 169.063996 
L 123.189569 168.504814 
L 123.7027 168.504814 
L 123.7027 167.386449 
L 124.036471 167.386449 
L 124.036471 165.708902 
L 124.200956 165.708902 
L 124.200956 164.031356 
L 124.52528 164.031356 
L 124.52528 163.472173 
L 124.685175 163.472173 
L 124.685175 161.794627 
L 125.000572 161.794627 
L 125.000572 161.235444 
L 125.156126 161.235444 
L 125.156126 158.439533 
L 125.764637 158.439533 
L 125.764637 155.08444 
L 125.913457 155.08444 
L 125.913457 152.847711 
L 126.061 152.847711 
L 126.061 151.729346 
L 126.638823 151.729346 
L 126.638823 150.610982 
L 126.780294 150.610982 
L 126.780294 149.492617 
L 126.92061 149.492617 
L 126.92061 148.374253 
L 127.334814 148.374253 
L 127.334814 147.815071 
L 127.470694 147.815071 
L 127.470694 147.255888 
L 127.739271 147.255888 
L 127.739271 146.696706 
L 128.003717 146.696706 
L 128.003717 146.137524 
L 128.520707 146.137524 
L 128.520707 144.459977 
L 128.647561 144.459977 
L 128.647561 142.78243 
L 129.022601 142.78243 
L 129.022601 141.664066 
L 129.389632 141.664066 
L 129.389632 138.868155 
L 129.748989 138.868155 
L 129.748989 137.74979 
L 129.867125 137.74979 
L 129.867125 136.072244 
L 129.984454 136.072244 
L 129.984454 135.513061 
L 130.216736 135.513061 
L 130.216736 134.953879 
L 130.33171 134.953879 
L 130.33171 134.394697 
L 130.67209 134.394697 
L 130.67209 133.835515 
L 130.784069 133.835515 
L 130.784069 130.480421 
L 131.224827 130.480421 
L 131.224827 127.125328 
L 131.654565 127.125328 
L 131.760342 124.329417 
L 132.073821 124.329417 
L 132.177056 122.092688 
L 132.279675 122.092688 
L 132.381685 118.737594 
L 132.483094 118.737594 
L 132.583907 115.941683 
L 132.684132 115.941683 
L 132.684132 113.145772 
L 133.36981 113.145772 
L 133.36981 111.468225 
L 133.560797 111.468225 
L 133.6555 108.113132 
L 134.029181 108.113132 
L 134.029181 106.435585 
L 134.213018 106.435585 
L 134.213018 104.198856 
L 134.39491 104.198856 
L 134.39491 103.639674 
L 134.574897 103.639674 
L 134.574897 103.080491 
L 135.016789 103.080491 
L 135.10382 99.166216 
L 135.616951 99.166216 
L 135.616951 98.607033 
L 136.033161 98.607033 
L 136.115208 95.25194 
L 136.439531 95.25194 
L 136.519665 94.133576 
L 136.599426 94.133576 
L 136.599426 91.896847 
L 136.992776 91.896847 
L 136.992776 86.864206 
L 137.377325 86.864206 
L 137.377325 85.745842 
L 137.827708 85.745842 
L 137.901638 83.509113 
L 138.04855 83.509113 
L 138.04855 82.390748 
L 138.33866 82.390748 
L 138.410429 80.713202 
L 138.694545 80.713202 
L 138.694545 79.035655 
L 138.974042 79.035655 
L 138.974042 77.917291 
L 139.112104 77.917291 
L 139.180721 76.239744 
L 139.249066 76.239744 
L 139.249066 74.003015 
L 139.384945 74.003015 
L 139.384945 73.443833 
L 139.519758 73.443833 
L 139.519758 70.647921 
L 139.720016 70.647921 
L 139.720016 70.088739 
L 140.048681 70.088739 
L 140.113666 67.85201 
L 140.371179 67.85201 
L 140.371179 67.292828 
L 140.498503 67.292828 
L 140.561812 65.615281 
L 140.750355 65.615281 
L 140.750355 64.496917 
L 140.936852 64.496917 
L 140.936852 63.937735 
L 141.182408 63.937735 
L 141.182408 63.378552 
L 141.424506 63.378552 
L 141.484501 61.701006 
L 141.544287 61.701006 
L 141.544287 60.582641 
L 141.66324 60.582641 
L 141.72241 59.464277 
L 142.18857 59.464277 
L 142.18857 58.905094 
L 142.360172 58.905094 
L 142.360172 58.345912 
L 142.473629 58.345912 
L 142.473629 57.227548 
L 142.642422 57.227548 
L 142.642422 56.668365 
L 143.029944 56.668365 
L 143.029944 56.109183 
L 143.247524 56.109183 
L 143.247524 54.990819 
L 143.462385 54.990819 
L 143.568817 53.313272 
L 143.779723 53.313272 
L 143.884213 51.076543 
L 143.988072 51.076543 
L 144.039767 48.280632 
L 144.245007 48.280632 
L 144.245007 45.484721 
L 144.698028 45.484721 
L 144.747635 44.366356 
L 144.895601 44.366356 
L 144.895601 43.807174 
L 145.090928 43.807174 
L 145.090928 43.247992 
L 145.332007 43.247992 
L 145.332007 42.129627 
L 145.616908 42.129627 
L 145.616908 41.570445 
L 146.711514 41.570445 
L 146.711514 39.892898 
L 146.887358 39.892898 
L 146.887358 39.333716 
L 147.361855 39.333716 
L 147.361855 38.774534 
L 147.947413 38.774534 
L 147.947413 38.215351 
L 148.829074 38.215351 
L 148.829074 37.096987 
L 148.945872 37.096987 
L 148.945872 36.537805 
L 149.443019 36.537805 
L 149.443019 35.978622 
L 150.072167 35.978622 
L 150.072167 35.41944 
L 150.818844 35.41944 
L 150.888293 33.741894 
L 151.265327 33.741894 
L 151.332999 32.623529 
L 151.53443 32.623529 
L 151.53443 32.064347 
L 151.832219 32.064347 
L 151.832219 30.945982 
L 152.124937 30.945982 
L 152.124937 29.268436 
L 153.278551 29.268436 
L 153.30868 28.150071 
L 153.398752 28.150071 
L 153.428671 27.031707 
L 153.812956 27.031707 
L 153.812956 26.472524 
L 156.159258 26.472524 
L 156.159258 25.913342 
L 156.336855 25.913342 
L 156.412409 24.794978 
L 156.809852 24.794978 
L 156.809852 24.235795 
L 157.222302 24.235795 
L 157.222302 23.117431 
L 158.064362 23.117431 
L 158.064362 22.558249 
L 158.336125 22.558249 
L 158.336125 21.999066 
L 158.603658 21.999066 
L 158.603658 21.439884 
L 158.779727 21.439884 
L 158.779727 20.880702 
L 160.147128 20.880702 
L 160.147128 20.32152 
L 160.956851 20.32152 
L 160.956851 19.762337 
L 161.167758 19.762337 
L 161.205828 18.643973 
L 161.858757 18.643973 
L 161.931822 16.966426 
L 162.077028 16.966426 
L 162.077028 15.848062 
L 162.363811 15.848062 
L 162.363811 14.729697 
L 162.802544 14.729697 
L 162.802544 14.170515 
L 163.077568 14.170515 
L 163.077568 13.611333 
L 164.311141 13.611333 
L 164.311141 13.052151 
L 165.402605 13.052151 
L 165.402605 12.492968 
L 167.317557 12.492968 
L 167.423824 11.374604 
L 168.364314 11.374604 
L 168.364314 10.815422 
L 168.489231 10.815422 
L 168.489231 9.697057 
L 333.168 9.697057 
L 333.168 9.697057 
" style="fill:none;stroke:#ff0000;stroke-linecap:square;stroke-width:1.5;"/>
   </g>
   <g id="line2d_55">
    <defs>
     <path d="M 0 -6 
L -5.196152 -3 
L -5.196152 3 
L -0 6 
L 5.196152 3 
L 5.196152 -3 
z
" id="m98c762972c" style="stroke:#ff0000;stroke-linejoin:miter;stroke-width:1.5;"/>
    </defs>
    <g>
     <use style="fill-opacity:0;stroke:#ff0000;stroke-linejoin:miter;stroke-width:1.5;" x="121.741249" xlink:href="#m98c762972c" y="174.655818"/>
     <use style="fill-opacity:0;stroke:#ff0000;stroke-linejoin:miter;stroke-width:1.5;" x="150.888293" xlink:href="#m98c762972c" y="33.741894"/>
     <use style="fill-opacity:0;stroke:#ff0000;stroke-linejoin:miter;stroke-width:1.5;" x="168.489231" xlink:href="#m98c762972c" y="10.815422"/>
     <use style="fill-opacity:0;stroke:#ff0000;stroke-linejoin:miter;stroke-width:1.5;" x="168.489231" xlink:href="#m98c762972c" y="9.697057"/>
     <use style="fill-opacity:0;stroke:#ff0000;stroke-linejoin:miter;stroke-width:1.5;" x="168.489231" xlink:href="#m98c762972c" y="9.697057"/>
     <use style="fill-opacity:0;stroke:#ff0000;stroke-linejoin:miter;stroke-width:1.5;" x="333.168" xlink:href="#m98c762972c" y="9.697057"/>
    </g>
   </g>
   <g id="line2d_56">
    <path style="fill:none;stroke:#ff0000;stroke-linecap:square;stroke-width:1.5;"/>
    <g/>
   </g>
   <g id="line2d_57">
    <path d="M 333.168 9.697057 
L 363.64328 289.176341 
" style="fill:none;stroke:#000080;stroke-linecap:square;stroke-width:1.5;"/>
    <g>
     <use style="fill-opacity:0;stroke:#000080;stroke-width:1.5;" x="333.168" xlink:href="#m76a82e936d" y="9.697057"/>
     <use style="fill-opacity:0;stroke:#000080;stroke-width:1.5;" x="363.64328" xlink:href="#m76a82e936d" y="289.176341"/>
    </g>
   </g>
   <g id="line2d_58">
    <path d="M 333.168 9.697057 
L 363.64328 220.732435 
" style="fill:none;stroke:#ff7500;stroke-linecap:square;stroke-width:1.5;"/>
    <g>
     <use style="fill-opacity:0;stroke:#ff7500;stroke-linejoin:bevel;stroke-width:1.5;" x="333.168" xlink:href="#m060096ac52" y="9.697057"/>
     <use style="fill-opacity:0;stroke:#ff7500;stroke-linejoin:bevel;stroke-width:1.5;" x="363.64328" xlink:href="#m060096ac52" y="220.732435"/>
    </g>
   </g>
   <g id="line2d_59">
    <path d="M 333.168 9.697057 
L 363.64328 152.288529 
" style="fill:none;stroke:#6495ed;stroke-linecap:square;stroke-width:1.5;"/>
    <g>
     <use style="fill-opacity:0;stroke:#6495ed;stroke-linejoin:miter;stroke-width:1.5;" x="333.168" xlink:href="#ma4c7d460f2" y="9.697057"/>
     <use style="fill-opacity:0;stroke:#6495ed;stroke-linejoin:miter;stroke-width:1.5;" x="363.64328" xlink:href="#ma4c7d460f2" y="152.288529"/>
    </g>
   </g>
   <g id="line2d_60">
    <path d="M 333.168 9.697057 
L 363.64328 83.844622 
" style="fill:none;stroke:#ff0000;stroke-linecap:square;stroke-width:1.5;"/>
    <g>
     <use style="fill-opacity:0;stroke:#ff0000;stroke-linejoin:miter;stroke-width:1.5;" x="333.168" xlink:href="#m98c762972c" y="9.697057"/>
     <use style="fill-opacity:0;stroke:#ff0000;stroke-linejoin:miter;stroke-width:1.5;" x="363.64328" xlink:href="#m98c762972c" y="83.844622"/>
    </g>
   </g>
   <g id="line2d_61">
    <path d="M 333.168 9.697057 
L 363.64328 15.400716 
" style="fill:none;stroke:#ff00ff;stroke-linecap:square;stroke-width:1.5;"/>
    <g>
     <use style="fill-opacity:0;stroke:#ff00ff;stroke-linejoin:miter;stroke-width:1.5;" x="333.168" xlink:href="#m4cc1b8cb2b" y="9.697057"/>
     <use style="fill-opacity:0;stroke:#ff00ff;stroke-linejoin:miter;stroke-width:1.5;" x="363.64328" xlink:href="#m4cc1b8cb2b" y="15.400716"/>
    </g>
   </g>
   <g id="line2d_62">
    <path d="M 333.168 294.88 
L 333.168 9.697057 
" style="fill:none;stroke:#000000;stroke-linecap:square;stroke-width:1.5;"/>
   </g>
   <g id="patch_3">
    <path d="M 56.12 294.88 
L 56.12 6.845228 
" style="fill:none;stroke:#000000;stroke-linecap:square;stroke-linejoin:miter;stroke-width:0.8;"/>
   </g>
   <g id="patch_4">
    <path d="M 333.168 294.88 
L 333.168 6.845228 
" style="fill:none;stroke:#000000;stroke-linecap:square;stroke-linejoin:miter;stroke-width:0.8;"/>
   </g>
   <g id="patch_5">
    <path d="M 56.12 294.88 
L 333.168 294.88 
" style="fill:none;stroke:#000000;stroke-linecap:square;stroke-linejoin:miter;stroke-width:0.8;"/>
   </g>
   <g id="patch_6">
    <path d="M 56.12 6.845228 
L 333.168 6.845228 
" style="fill:none;stroke:#000000;stroke-linecap:square;stroke-linejoin:miter;stroke-width:0.8;"/>
   </g>
   <g id="text_13">
    <!-- f12 -->
    <g transform="translate(369.18424 293.867279)scale(0.17 -0.17)">
     <use xlink:href="#DejaVuSans-66"/>
     <use x="35.205078" xlink:href="#DejaVuSans-31"/>
     <use x="98.828125" xlink:href="#DejaVuSans-32"/>
    </g>
   </g>
   <g id="text_14">
    <!-- f10 -->
    <g transform="translate(369.18424 225.423372)scale(0.17 -0.17)">
     <use xlink:href="#DejaVuSans-66"/>
     <use x="35.205078" xlink:href="#DejaVuSans-31"/>
     <use x="98.828125" xlink:href="#DejaVuSans-30"/>
    </g>
   </g>
   <g id="text_15">
    <!-- f11 -->
    <g transform="translate(369.18424 156.979466)scale(0.17 -0.17)">
     <use xlink:href="#DejaVuSans-66"/>
     <use x="35.205078" xlink:href="#DejaVuSans-31"/>
     <use x="98.828125" xlink:href="#DejaVuSans-31"/>
    </g>
   </g>
   <g id="text_16">
    <!-- f14 -->
    <g transform="translate(369.18424 88.53556)scale(0.17 -0.17)">
     <use xlink:href="#DejaVuSans-66"/>
     <use x="35.205078" xlink:href="#DejaVuSans-31"/>
     <use x="98.828125" xlink:href="#DejaVuSans-34"/>
    </g>
   </g>
   <g id="text_17">
    <!-- f13 -->
    <defs>
     <path d="M 40.578125 39.3125 
Q 47.65625 37.796875 51.625 33 
Q 55.609375 28.21875 55.609375 21.1875 
Q 55.609375 10.40625 48.1875 4.484375 
Q 40.765625 -1.421875 27.09375 -1.421875 
Q 22.515625 -1.421875 17.65625 -0.515625 
Q 12.796875 0.390625 7.625 2.203125 
L 7.625 11.71875 
Q 11.71875 9.328125 16.59375 8.109375 
Q 21.484375 6.890625 26.8125 6.890625 
Q 36.078125 6.890625 40.9375 10.546875 
Q 45.796875 14.203125 45.796875 21.1875 
Q 45.796875 27.640625 41.28125 31.265625 
Q 36.765625 34.90625 28.71875 34.90625 
L 20.21875 34.90625 
L 20.21875 43.015625 
L 29.109375 43.015625 
Q 36.375 43.015625 40.234375 45.921875 
Q 44.09375 48.828125 44.09375 54.296875 
Q 44.09375 59.90625 40.109375 62.90625 
Q 36.140625 65.921875 28.71875 65.921875 
Q 24.65625 65.921875 20.015625 65.03125 
Q 15.375 64.15625 9.8125 62.3125 
L 9.8125 71.09375 
Q 15.4375 72.65625 20.34375 73.4375 
Q 25.25 74.21875 29.59375 74.21875 
Q 40.828125 74.21875 47.359375 69.109375 
Q 53.90625 64.015625 53.90625 55.328125 
Q 53.90625 49.265625 50.4375 45.09375 
Q 46.96875 40.921875 40.578125 39.3125 
z
" id="DejaVuSans-33"/>
    </defs>
    <g transform="translate(369.18424 20.091654)scale(0.17 -0.17)">
     <use xlink:href="#DejaVuSans-66"/>
     <use x="35.205078" xlink:href="#DejaVuSans-31"/>
     <use x="98.828125" xlink:href="#DejaVuSans-33"/>
    </g>
   </g>
   <g id="text_18">
    <!-- bbob -->
    <defs>
     <path d="M 48.6875 27.296875 
Q 48.6875 37.203125 44.609375 42.84375 
Q 40.53125 48.484375 33.40625 48.484375 
Q 26.265625 48.484375 22.1875 42.84375 
Q 18.109375 37.203125 18.109375 27.296875 
Q 18.109375 17.390625 22.1875 11.75 
Q 26.265625 6.109375 33.40625 6.109375 
Q 40.53125 6.109375 44.609375 11.75 
Q 48.6875 17.390625 48.6875 27.296875 
z
M 18.109375 46.390625 
Q 20.953125 51.265625 25.265625 53.625 
Q 29.59375 56 35.59375 56 
Q 45.5625 56 51.78125 48.09375 
Q 58.015625 40.1875 58.015625 27.296875 
Q 58.015625 14.40625 51.78125 6.484375 
Q 45.5625 -1.421875 35.59375 -1.421875 
Q 29.59375 -1.421875 25.265625 0.953125 
Q 20.953125 3.328125 18.109375 8.203125 
L 18.109375 0 
L 9.078125 0 
L 9.078125 75.984375 
L 18.109375 75.984375 
z
" id="DejaVuSans-62"/>
    </defs>
    <g transform="translate(58.89048 17.475982)scale(0.102 -0.102)">
     <use xlink:href="#DejaVuSans-62"/>
     <use x="63.476562" xlink:href="#DejaVuSans-62"/>
     <use x="126.953125" xlink:href="#DejaVuSans-6f"/>
     <use x="188.134766" xlink:href="#DejaVuSans-62"/>
    </g>
    <!-- Ill-conditioned functions, 2-D -->
    <defs>
     <path d="M 9.8125 72.90625 
L 19.671875 72.90625 
L 19.671875 0 
L 9.8125 0 
z
" id="DejaVuSans-49"/>
     <path d="M 19.671875 64.796875 
L 19.671875 8.109375 
L 31.59375 8.109375 
Q 46.6875 8.109375 53.6875 14.9375 
Q 60.6875 21.78125 60.6875 36.53125 
Q 60.6875 51.171875 53.6875 57.984375 
Q 46.6875 64.796875 31.59375 64.796875 
z
M 9.8125 72.90625 
L 30.078125 72.90625 
Q 51.265625 72.90625 61.171875 64.09375 
Q 71.09375 55.28125 71.09375 36.53125 
Q 71.09375 17.671875 61.125 8.828125 
Q 51.171875 0 30.078125 0 
L 9.8125 0 
z
" id="DejaVuSans-44"/>
    </defs>
    <g transform="translate(58.89048 28.89775)scale(0.102 -0.102)">
     <use xlink:href="#DejaVuSans-49"/>
     <use x="29.492188" xlink:href="#DejaVuSans-6c"/>
     <use x="57.275391" xlink:href="#DejaVuSans-6c"/>
     <use x="85.058594" xlink:href="#DejaVuSans-2d"/>
     <use x="121.142578" xlink:href="#DejaVuSans-63"/>
     <use x="176.123047" xlink:href="#DejaVuSans-6f"/>
     <use x="237.304688" xlink:href="#DejaVuSans-6e"/>
     <use x="300.683594" xlink:href="#DejaVuSans-64"/>
     <use x="364.160156" xlink:href="#DejaVuSans-69"/>
     <use x="391.943359" xlink:href="#DejaVuSans-74"/>
     <use x="431.152344" xlink:href="#DejaVuSans-69"/>
     <use x="458.935547" xlink:href="#DejaVuSans-6f"/>
     <use x="520.117188" xlink:href="#DejaVuSans-6e"/>
     <use x="583.496094" xlink:href="#DejaVuSans-65"/>
     <use x="645.019531" xlink:href="#DejaVuSans-64"/>
     <use x="708.496094" xlink:href="#DejaVuSans-20"/>
     <use x="740.283203" xlink:href="#DejaVuSans-66"/>
     <use x="775.488281" xlink:href="#DejaVuSans-75"/>
     <use x="838.867188" xlink:href="#DejaVuSans-6e"/>
     <use x="902.246094" xlink:href="#DejaVuSans-63"/>
     <use x="957.226562" xlink:href="#DejaVuSans-74"/>
     <use x="996.435547" xlink:href="#DejaVuSans-69"/>
     <use x="1024.21875" xlink:href="#DejaVuSans-6f"/>
     <use x="1085.400391" xlink:href="#DejaVuSans-6e"/>
     <use x="1148.779297" xlink:href="#DejaVuSans-73"/>
     <use x="1200.878906" xlink:href="#DejaVuSans-2c"/>
     <use x="1232.666016" xlink:href="#DejaVuSans-20"/>
     <use x="1264.453125" xlink:href="#DejaVuSans-32"/>
     <use x="1328.076172" xlink:href="#DejaVuSans-2d"/>
     <use x="1364.160156" xlink:href="#DejaVuSans-44"/>
    </g>
    <!-- 51 targets: 100..1e-08 -->
    <defs>
     <path d="M 10.796875 72.90625 
L 49.515625 72.90625 
L 49.515625 64.59375 
L 19.828125 64.59375 
L 19.828125 46.734375 
Q 21.96875 47.46875 24.109375 47.828125 
Q 26.265625 48.1875 28.421875 48.1875 
Q 40.625 48.1875 47.75 41.5 
Q 54.890625 34.8125 54.890625 23.390625 
Q 54.890625 11.625 47.5625 5.09375 
Q 40.234375 -1.421875 26.90625 -1.421875 
Q 22.3125 -1.421875 17.546875 -0.640625 
Q 12.796875 0.140625 7.71875 1.703125 
L 7.71875 11.625 
Q 12.109375 9.234375 16.796875 8.0625 
Q 21.484375 6.890625 26.703125 6.890625 
Q 35.15625 6.890625 40.078125 11.328125 
Q 45.015625 15.765625 45.015625 23.390625 
Q 45.015625 31 40.078125 35.4375 
Q 35.15625 39.890625 26.703125 39.890625 
Q 22.75 39.890625 18.8125 39.015625 
Q 14.890625 38.140625 10.796875 36.28125 
z
" id="DejaVuSans-35"/>
     <path d="M 11.71875 12.40625 
L 22.015625 12.40625 
L 22.015625 0 
L 11.71875 0 
z
M 11.71875 51.703125 
L 22.015625 51.703125 
L 22.015625 39.3125 
L 11.71875 39.3125 
z
" id="DejaVuSans-3a"/>
    </defs>
    <g transform="translate(58.89048 40.319519)scale(0.102 -0.102)">
     <use xlink:href="#DejaVuSans-35"/>
     <use x="63.623047" xlink:href="#DejaVuSans-31"/>
     <use x="127.246094" xlink:href="#DejaVuSans-20"/>
     <use x="159.033203" xlink:href="#DejaVuSans-74"/>
     <use x="198.242188" xlink:href="#DejaVuSans-61"/>
     <use x="259.521484" xlink:href="#DejaVuSans-72"/>
     <use x="300.619141" xlink:href="#DejaVuSans-67"/>
     <use x="364.095703" xlink:href="#DejaVuSans-65"/>
     <use x="425.619141" xlink:href="#DejaVuSans-74"/>
     <use x="464.828125" xlink:href="#DejaVuSans-73"/>
     <use x="516.927734" xlink:href="#DejaVuSans-3a"/>
     <use x="550.619141" xlink:href="#DejaVuSans-20"/>
     <use x="582.40625" xlink:href="#DejaVuSans-31"/>
     <use x="646.029297" xlink:href="#DejaVuSans-30"/>
     <use x="709.652344" xlink:href="#DejaVuSans-30"/>
     <use x="773.275391" xlink:href="#DejaVuSans-2e"/>
     <use x="805.0625" xlink:href="#DejaVuSans-2e"/>
     <use x="836.849609" xlink:href="#DejaVuSans-31"/>
     <use x="900.472656" xlink:href="#DejaVuSans-65"/>
     <use x="961.996094" xlink:href="#DejaVuSans-2d"/>
     <use x="998.080078" xlink:href="#DejaVuSans-30"/>
     <use x="1061.703125" xlink:href="#DejaVuSans-38"/>
    </g>
    <!-- 15 instances -->
    <g transform="translate(58.89048 51.741288)scale(0.102 -0.102)">
     <use xlink:href="#DejaVuSans-31"/>
     <use x="63.623047" xlink:href="#DejaVuSans-35"/>
     <use x="127.246094" xlink:href="#DejaVuSans-20"/>
     <use x="159.033203" xlink:href="#DejaVuSans-69"/>
     <use x="186.816406" xlink:href="#DejaVuSans-6e"/>
     <use x="250.195312" xlink:href="#DejaVuSans-73"/>
     <use x="302.294922" xlink:href="#DejaVuSans-74"/>
     <use x="341.503906" xlink:href="#DejaVuSans-61"/>
     <use x="402.783203" xlink:href="#DejaVuSans-6e"/>
     <use x="466.162109" xlink:href="#DejaVuSans-63"/>
     <use x="521.142578" xlink:href="#DejaVuSans-65"/>
     <use x="582.666016" xlink:href="#DejaVuSans-73"/>
    </g>
   </g>
   <g id="text_19">
    <!-- v2.4 -->
    <g style="fill:#808080;" transform="translate(183.733063 289.919965)scale(0.1 -0.1)">
     <use xlink:href="#DejaVuSans-76"/>
     <use x="59.179688" xlink:href="#DejaVuSans-32"/>
     <use x="122.802734" xlink:href="#DejaVuSans-2e"/>
     <use x="154.589844" xlink:href="#DejaVuSans-34"/>
    </g>
   </g>
  </g>
 </g>
 <defs>
  <clipPath id="p8ce26dd198">
   <rect height="288.034772" width="277.048" x="56.12" y="6.845228"/>
  </clipPath>
 </defs>
</svg>
