<?xml version="1.0" encoding="utf-8" standalone="no"?>
<!DOCTYPE svg PUBLIC "-//W3C//DTD SVG 1.1//EN"
  "http://www.w3.org/Graphics/SVG/1.1/DTD/svg11.dtd">
<!-- Created with matplotlib (http://matplotlib.org/) -->
<svg height="345.6pt" version="1.1" viewBox="0 0 460.8 345.6" width="460.8pt" xmlns="http://www.w3.org/2000/svg" xmlns:xlink="http://www.w3.org/1999/xlink">
 <defs>
  <style type="text/css">
*{stroke-linecap:butt;stroke-linejoin:round;}
  </style>
 </defs>
 <g id="figure_1">
  <g id="patch_1">
   <path d="M 0 345.6 
L 460.8 345.6 
L 460.8 0 
L 0 0 
z
" style="fill:#ffffff;"/>
  </g>
  <g id="axes_1">
   <g id="patch_2">
    <path d="M 56.12 294.88 
L 333.168 294.88 
L 333.168 24.84 
L 56.12 24.84 
z
" style="fill:#ffffff;"/>
   </g>
   <g id="matplotlib.axis_1">
    <g id="xtick_1">
     <g id="line2d_1">
      <path clip-path="url(#p5f4a31c947)" d="M 56.12 294.88 
L 56.12 24.84 
" style="fill:none;stroke:#b0b0b0;stroke-linecap:square;stroke-width:0.8;"/>
     </g>
     <g id="line2d_2">
      <defs>
       <path d="M 0 0 
L 0 3.5 
" id="m55f65b7888" style="stroke:#000000;stroke-width:0.8;"/>
      </defs>
      <g>
       <use style="stroke:#000000;stroke-width:0.8;" x="56.12" xlink:href="#m55f65b7888" y="294.88"/>
      </g>
     </g>
     <g id="text_1">
      <!-- 0 -->
      <defs>
       <path d="M 31.78125 66.40625 
Q 24.171875 66.40625 20.328125 58.90625 
Q 16.5 51.421875 16.5 36.375 
Q 16.5 21.390625 20.328125 13.890625 
Q 24.171875 6.390625 31.78125 6.390625 
Q 39.453125 6.390625 43.28125 13.890625 
Q 47.125 21.390625 47.125 36.375 
Q 47.125 51.421875 43.28125 58.90625 
Q 39.453125 66.40625 31.78125 66.40625 
z
M 31.78125 74.21875 
Q 44.046875 74.21875 50.515625 64.515625 
Q 56.984375 54.828125 56.984375 36.375 
Q 56.984375 17.96875 50.515625 8.265625 
Q 44.046875 -1.421875 31.78125 -1.421875 
Q 19.53125 -1.421875 13.0625 8.265625 
Q 6.59375 17.96875 6.59375 36.375 
Q 6.59375 54.828125 13.0625 64.515625 
Q 19.53125 74.21875 31.78125 74.21875 
z
" id="DejaVuSans-30"/>
      </defs>
      <g transform="translate(49.7575 317.076875)scale(0.2 -0.2)">
       <use xlink:href="#DejaVuSans-30"/>
      </g>
     </g>
    </g>
    <g id="xtick_2">
     <g id="line2d_3">
      <path clip-path="url(#p5f4a31c947)" d="M 135.276571 294.88 
L 135.276571 24.84 
" style="fill:none;stroke:#b0b0b0;stroke-linecap:square;stroke-width:0.8;"/>
     </g>
     <g id="line2d_4">
      <g>
       <use style="stroke:#000000;stroke-width:0.8;" x="135.276571" xlink:href="#m55f65b7888" y="294.88"/>
      </g>
     </g>
     <g id="text_2">
      <!-- 2 -->
      <defs>
       <path d="M 19.1875 8.296875 
L 53.609375 8.296875 
L 53.609375 0 
L 7.328125 0 
L 7.328125 8.296875 
Q 12.9375 14.109375 22.625 23.890625 
Q 32.328125 33.6875 34.8125 36.53125 
Q 39.546875 41.84375 41.421875 45.53125 
Q 43.3125 49.21875 43.3125 52.78125 
Q 43.3125 58.59375 39.234375 62.25 
Q 35.15625 65.921875 28.609375 65.921875 
Q 23.96875 65.921875 18.8125 64.3125 
Q 13.671875 62.703125 7.8125 59.421875 
L 7.8125 69.390625 
Q 13.765625 71.78125 18.9375 73 
Q 24.125 74.21875 28.421875 74.21875 
Q 39.75 74.21875 46.484375 68.546875 
Q 53.21875 62.890625 53.21875 53.421875 
Q 53.21875 48.921875 51.53125 44.890625 
Q 49.859375 40.875 45.40625 35.40625 
Q 44.1875 33.984375 37.640625 27.21875 
Q 31.109375 20.453125 19.1875 8.296875 
z
" id="DejaVuSans-32"/>
      </defs>
      <g transform="translate(128.914071 317.076875)scale(0.2 -0.2)">
       <use xlink:href="#DejaVuSans-32"/>
      </g>
     </g>
    </g>
    <g id="xtick_3">
     <g id="line2d_5">
      <path clip-path="url(#p5f4a31c947)" d="M 214.433143 294.88 
L 214.433143 24.84 
" style="fill:none;stroke:#b0b0b0;stroke-linecap:square;stroke-width:0.8;"/>
     </g>
     <g id="line2d_6">
      <g>
       <use style="stroke:#000000;stroke-width:0.8;" x="214.433143" xlink:href="#m55f65b7888" y="294.88"/>
      </g>
     </g>
     <g id="text_3">
      <!-- 4 -->
      <defs>
       <path d="M 37.796875 64.3125 
L 12.890625 25.390625 
L 37.796875 25.390625 
z
M 35.203125 72.90625 
L 47.609375 72.90625 
L 47.609375 25.390625 
L 58.015625 25.390625 
L 58.015625 17.1875 
L 47.609375 17.1875 
L 47.609375 0 
L 37.796875 0 
L 37.796875 17.1875 
L 4.890625 17.1875 
L 4.890625 26.703125 
z
" id="DejaVuSans-34"/>
      </defs>
      <g transform="translate(208.070643 317.076875)scale(0.2 -0.2)">
       <use xlink:href="#DejaVuSans-34"/>
      </g>
     </g>
    </g>
    <g id="xtick_4">
     <g id="line2d_7">
      <path clip-path="url(#p5f4a31c947)" d="M 293.589714 294.88 
L 293.589714 24.84 
" style="fill:none;stroke:#b0b0b0;stroke-linecap:square;stroke-width:0.8;"/>
     </g>
     <g id="line2d_8">
      <g>
       <use style="stroke:#000000;stroke-width:0.8;" x="293.589714" xlink:href="#m55f65b7888" y="294.88"/>
      </g>
     </g>
     <g id="text_4">
      <!-- 6 -->
      <defs>
       <path d="M 33.015625 40.375 
Q 26.375 40.375 22.484375 35.828125 
Q 18.609375 31.296875 18.609375 23.390625 
Q 18.609375 15.53125 22.484375 10.953125 
Q 26.375 6.390625 33.015625 6.390625 
Q 39.65625 6.390625 43.53125 10.953125 
Q 47.40625 15.53125 47.40625 23.390625 
Q 47.40625 31.296875 43.53125 35.828125 
Q 39.65625 40.375 33.015625 40.375 
z
M 52.59375 71.296875 
L 52.59375 62.3125 
Q 48.875 64.0625 45.09375 64.984375 
Q 41.3125 65.921875 37.59375 65.921875 
Q 27.828125 65.921875 22.671875 59.328125 
Q 17.53125 52.734375 16.796875 39.40625 
Q 19.671875 43.65625 24.015625 45.921875 
Q 28.375 48.1875 33.59375 48.1875 
Q 44.578125 48.1875 50.953125 41.515625 
Q 57.328125 34.859375 57.328125 23.390625 
Q 57.328125 12.15625 50.6875 5.359375 
Q 44.046875 -1.421875 33.015625 -1.421875 
Q 20.359375 -1.421875 13.671875 8.265625 
Q 6.984375 17.96875 6.984375 36.375 
Q 6.984375 53.65625 15.1875 63.9375 
Q 23.390625 74.21875 37.203125 74.21875 
Q 40.921875 74.21875 44.703125 73.484375 
Q 48.484375 72.75 52.59375 71.296875 
z
" id="DejaVuSans-36"/>
      </defs>
      <g transform="translate(287.227214 317.076875)scale(0.2 -0.2)">
       <use xlink:href="#DejaVuSans-36"/>
      </g>
     </g>
    </g>
    <g id="xtick_5">
     <g id="line2d_9">
      <path clip-path="url(#p5f4a31c947)" d="M 56.12 294.88 
L 56.12 24.84 
" style="fill:none;stroke:#b0b0b0;stroke-linecap:square;stroke-width:0.8;"/>
     </g>
     <g id="line2d_10">
      <defs>
       <path d="M 0 0 
L 0 2 
" id="m3ac04ca0e6" style="stroke:#000000;stroke-width:0.6;"/>
      </defs>
      <g>
       <use style="stroke:#000000;stroke-width:0.6;" x="56.12" xlink:href="#m3ac04ca0e6" y="294.88"/>
      </g>
     </g>
    </g>
    <g id="xtick_6">
     <g id="line2d_11">
      <path clip-path="url(#p5f4a31c947)" d="M 95.698286 294.88 
L 95.698286 24.84 
" style="fill:none;stroke:#b0b0b0;stroke-linecap:square;stroke-width:0.8;"/>
     </g>
     <g id="line2d_12">
      <g>
       <use style="stroke:#000000;stroke-width:0.6;" x="95.698286" xlink:href="#m3ac04ca0e6" y="294.88"/>
      </g>
     </g>
    </g>
    <g id="xtick_7">
     <g id="line2d_13">
      <path clip-path="url(#p5f4a31c947)" d="M 135.276571 294.88 
L 135.276571 24.84 
" style="fill:none;stroke:#b0b0b0;stroke-linecap:square;stroke-width:0.8;"/>
     </g>
     <g id="line2d_14">
      <g>
       <use style="stroke:#000000;stroke-width:0.6;" x="135.276571" xlink:href="#m3ac04ca0e6" y="294.88"/>
      </g>
     </g>
    </g>
    <g id="xtick_8">
     <g id="line2d_15">
      <path clip-path="url(#p5f4a31c947)" d="M 174.854857 294.88 
L 174.854857 24.84 
" style="fill:none;stroke:#b0b0b0;stroke-linecap:square;stroke-width:0.8;"/>
     </g>
     <g id="line2d_16">
      <g>
       <use style="stroke:#000000;stroke-width:0.6;" x="174.854857" xlink:href="#m3ac04ca0e6" y="294.88"/>
      </g>
     </g>
    </g>
    <g id="xtick_9">
     <g id="line2d_17">
      <path clip-path="url(#p5f4a31c947)" d="M 214.433143 294.88 
L 214.433143 24.84 
" style="fill:none;stroke:#b0b0b0;stroke-linecap:square;stroke-width:0.8;"/>
     </g>
     <g id="line2d_18">
      <g>
       <use style="stroke:#000000;stroke-width:0.6;" x="214.433143" xlink:href="#m3ac04ca0e6" y="294.88"/>
      </g>
     </g>
    </g>
    <g id="xtick_10">
     <g id="line2d_19">
      <path clip-path="url(#p5f4a31c947)" d="M 254.011429 294.88 
L 254.011429 24.84 
" style="fill:none;stroke:#b0b0b0;stroke-linecap:square;stroke-width:0.8;"/>
     </g>
     <g id="line2d_20">
      <g>
       <use style="stroke:#000000;stroke-width:0.6;" x="254.011429" xlink:href="#m3ac04ca0e6" y="294.88"/>
      </g>
     </g>
    </g>
    <g id="xtick_11">
     <g id="line2d_21">
      <path clip-path="url(#p5f4a31c947)" d="M 293.589714 294.88 
L 293.589714 24.84 
" style="fill:none;stroke:#b0b0b0;stroke-linecap:square;stroke-width:0.8;"/>
     </g>
     <g id="line2d_22">
      <g>
       <use style="stroke:#000000;stroke-width:0.6;" x="293.589714" xlink:href="#m3ac04ca0e6" y="294.88"/>
      </g>
     </g>
    </g>
    <g id="xtick_12">
     <g id="line2d_23">
      <path clip-path="url(#p5f4a31c947)" d="M 333.168 294.88 
L 333.168 24.84 
" style="fill:none;stroke:#b0b0b0;stroke-linecap:square;stroke-width:0.8;"/>
     </g>
     <g id="line2d_24">
      <g>
       <use style="stroke:#000000;stroke-width:0.6;" x="333.168" xlink:href="#m3ac04ca0e6" y="294.88"/>
      </g>
     </g>
    </g>
    <g id="text_5">
     <!-- log10(# f-evals / dimension) -->
     <defs>
      <path d="M 9.421875 75.984375 
L 18.40625 75.984375 
L 18.40625 0 
L 9.421875 0 
z
" id="DejaVuSans-6c"/>
      <path d="M 30.609375 48.390625 
Q 23.390625 48.390625 19.1875 42.75 
Q 14.984375 37.109375 14.984375 27.296875 
Q 14.984375 17.484375 19.15625 11.84375 
Q 23.34375 6.203125 30.609375 6.203125 
Q 37.796875 6.203125 41.984375 11.859375 
Q 46.1875 17.53125 46.1875 27.296875 
Q 46.1875 37.015625 41.984375 42.703125 
Q 37.796875 48.390625 30.609375 48.390625 
z
M 30.609375 56 
Q 42.328125 56 49.015625 48.375 
Q 55.71875 40.765625 55.71875 27.296875 
Q 55.71875 13.875 49.015625 6.21875 
Q 42.328125 -1.421875 30.609375 -1.421875 
Q 18.84375 -1.421875 12.171875 6.21875 
Q 5.515625 13.875 5.515625 27.296875 
Q 5.515625 40.765625 12.171875 48.375 
Q 18.84375 56 30.609375 56 
z
" id="DejaVuSans-6f"/>
      <path d="M 45.40625 27.984375 
Q 45.40625 37.75 41.375 43.109375 
Q 37.359375 48.484375 30.078125 48.484375 
Q 22.859375 48.484375 18.828125 43.109375 
Q 14.796875 37.75 14.796875 27.984375 
Q 14.796875 18.265625 18.828125 12.890625 
Q 22.859375 7.515625 30.078125 7.515625 
Q 37.359375 7.515625 41.375 12.890625 
Q 45.40625 18.265625 45.40625 27.984375 
z
M 54.390625 6.78125 
Q 54.390625 -7.171875 48.1875 -13.984375 
Q 42 -20.796875 29.203125 -20.796875 
Q 24.46875 -20.796875 20.265625 -20.09375 
Q 16.0625 -19.390625 12.109375 -17.921875 
L 12.109375 -9.1875 
Q 16.0625 -11.328125 19.921875 -12.34375 
Q 23.78125 -13.375 27.78125 -13.375 
Q 36.625 -13.375 41.015625 -8.765625 
Q 45.40625 -4.15625 45.40625 5.171875 
L 45.40625 9.625 
Q 42.625 4.78125 38.28125 2.390625 
Q 33.9375 0 27.875 0 
Q 17.828125 0 11.671875 7.65625 
Q 5.515625 15.328125 5.515625 27.984375 
Q 5.515625 40.671875 11.671875 48.328125 
Q 17.828125 56 27.875 56 
Q 33.9375 56 38.28125 53.609375 
Q 42.625 51.21875 45.40625 46.390625 
L 45.40625 54.6875 
L 54.390625 54.6875 
z
" id="DejaVuSans-67"/>
      <path d="M 12.40625 8.296875 
L 28.515625 8.296875 
L 28.515625 63.921875 
L 10.984375 60.40625 
L 10.984375 69.390625 
L 28.421875 72.90625 
L 38.28125 72.90625 
L 38.28125 8.296875 
L 54.390625 8.296875 
L 54.390625 0 
L 12.40625 0 
z
" id="DejaVuSans-31"/>
      <path d="M 31 75.875 
Q 24.46875 64.65625 21.28125 53.65625 
Q 18.109375 42.671875 18.109375 31.390625 
Q 18.109375 20.125 21.3125 9.0625 
Q 24.515625 -2 31 -13.1875 
L 23.1875 -13.1875 
Q 15.875 -1.703125 12.234375 9.375 
Q 8.59375 20.453125 8.59375 31.390625 
Q 8.59375 42.28125 12.203125 53.3125 
Q 15.828125 64.359375 23.1875 75.875 
z
" id="DejaVuSans-28"/>
      <path d="M 51.125 44 
L 36.921875 44 
L 32.8125 27.6875 
L 47.125 27.6875 
z
M 43.796875 71.78125 
L 38.71875 51.515625 
L 52.984375 51.515625 
L 58.109375 71.78125 
L 65.921875 71.78125 
L 60.890625 51.515625 
L 76.125 51.515625 
L 76.125 44 
L 58.984375 44 
L 54.984375 27.6875 
L 70.515625 27.6875 
L 70.515625 20.21875 
L 53.078125 20.21875 
L 48 0 
L 40.1875 0 
L 45.21875 20.21875 
L 30.90625 20.21875 
L 25.875 0 
L 18.015625 0 
L 23.09375 20.21875 
L 7.71875 20.21875 
L 7.71875 27.6875 
L 24.90625 27.6875 
L 29 44 
L 13.28125 44 
L 13.28125 51.515625 
L 30.90625 51.515625 
L 35.890625 71.78125 
z
" id="DejaVuSans-23"/>
      <path id="DejaVuSans-20"/>
      <path d="M 37.109375 75.984375 
L 37.109375 68.5 
L 28.515625 68.5 
Q 23.6875 68.5 21.796875 66.546875 
Q 19.921875 64.59375 19.921875 59.515625 
L 19.921875 54.6875 
L 34.71875 54.6875 
L 34.71875 47.703125 
L 19.921875 47.703125 
L 19.921875 0 
L 10.890625 0 
L 10.890625 47.703125 
L 2.296875 47.703125 
L 2.296875 54.6875 
L 10.890625 54.6875 
L 10.890625 58.5 
Q 10.890625 67.625 15.140625 71.796875 
Q 19.390625 75.984375 28.609375 75.984375 
z
" id="DejaVuSans-66"/>
      <path d="M 4.890625 31.390625 
L 31.203125 31.390625 
L 31.203125 23.390625 
L 4.890625 23.390625 
z
" id="DejaVuSans-2d"/>
      <path d="M 56.203125 29.59375 
L 56.203125 25.203125 
L 14.890625 25.203125 
Q 15.484375 15.921875 20.484375 11.0625 
Q 25.484375 6.203125 34.421875 6.203125 
Q 39.59375 6.203125 44.453125 7.46875 
Q 49.3125 8.734375 54.109375 11.28125 
L 54.109375 2.78125 
Q 49.265625 0.734375 44.1875 -0.34375 
Q 39.109375 -1.421875 33.890625 -1.421875 
Q 20.796875 -1.421875 13.15625 6.1875 
Q 5.515625 13.8125 5.515625 26.8125 
Q 5.515625 40.234375 12.765625 48.109375 
Q 20.015625 56 32.328125 56 
Q 43.359375 56 49.78125 48.890625 
Q 56.203125 41.796875 56.203125 29.59375 
z
M 47.21875 32.234375 
Q 47.125 39.59375 43.09375 43.984375 
Q 39.0625 48.390625 32.421875 48.390625 
Q 24.90625 48.390625 20.390625 44.140625 
Q 15.875 39.890625 15.1875 32.171875 
z
" id="DejaVuSans-65"/>
      <path d="M 2.984375 54.6875 
L 12.5 54.6875 
L 29.59375 8.796875 
L 46.6875 54.6875 
L 56.203125 54.6875 
L 35.6875 0 
L 23.484375 0 
z
" id="DejaVuSans-76"/>
      <path d="M 34.28125 27.484375 
Q 23.390625 27.484375 19.1875 25 
Q 14.984375 22.515625 14.984375 16.5 
Q 14.984375 11.71875 18.140625 8.90625 
Q 21.296875 6.109375 26.703125 6.109375 
Q 34.1875 6.109375 38.703125 11.40625 
Q 43.21875 16.703125 43.21875 25.484375 
L 43.21875 27.484375 
z
M 52.203125 31.203125 
L 52.203125 0 
L 43.21875 0 
L 43.21875 8.296875 
Q 40.140625 3.328125 35.546875 0.953125 
Q 30.953125 -1.421875 24.3125 -1.421875 
Q 15.921875 -1.421875 10.953125 3.296875 
Q 6 8.015625 6 15.921875 
Q 6 25.140625 12.171875 29.828125 
Q 18.359375 34.515625 30.609375 34.515625 
L 43.21875 34.515625 
L 43.21875 35.40625 
Q 43.21875 41.609375 39.140625 45 
Q 35.0625 48.390625 27.6875 48.390625 
Q 23 48.390625 18.546875 47.265625 
Q 14.109375 46.140625 10.015625 43.890625 
L 10.015625 52.203125 
Q 14.9375 54.109375 19.578125 55.046875 
Q 24.21875 56 28.609375 56 
Q 40.484375 56 46.34375 49.84375 
Q 52.203125 43.703125 52.203125 31.203125 
z
" id="DejaVuSans-61"/>
      <path d="M 44.28125 53.078125 
L 44.28125 44.578125 
Q 40.484375 46.53125 36.375 47.5 
Q 32.28125 48.484375 27.875 48.484375 
Q 21.1875 48.484375 17.84375 46.4375 
Q 14.5 44.390625 14.5 40.28125 
Q 14.5 37.15625 16.890625 35.375 
Q 19.28125 33.59375 26.515625 31.984375 
L 29.59375 31.296875 
Q 39.15625 29.25 43.1875 25.515625 
Q 47.21875 21.78125 47.21875 15.09375 
Q 47.21875 7.46875 41.1875 3.015625 
Q 35.15625 -1.421875 24.609375 -1.421875 
Q 20.21875 -1.421875 15.453125 -0.5625 
Q 10.6875 0.296875 5.421875 2 
L 5.421875 11.28125 
Q 10.40625 8.6875 15.234375 7.390625 
Q 20.0625 6.109375 24.8125 6.109375 
Q 31.15625 6.109375 34.5625 8.28125 
Q 37.984375 10.453125 37.984375 14.40625 
Q 37.984375 18.0625 35.515625 20.015625 
Q 33.0625 21.96875 24.703125 23.78125 
L 21.578125 24.515625 
Q 13.234375 26.265625 9.515625 29.90625 
Q 5.8125 33.546875 5.8125 39.890625 
Q 5.8125 47.609375 11.28125 51.796875 
Q 16.75 56 26.8125 56 
Q 31.78125 56 36.171875 55.265625 
Q 40.578125 54.546875 44.28125 53.078125 
z
" id="DejaVuSans-73"/>
      <path d="M 25.390625 72.90625 
L 33.6875 72.90625 
L 8.296875 -9.28125 
L 0 -9.28125 
z
" id="DejaVuSans-2f"/>
      <path d="M 45.40625 46.390625 
L 45.40625 75.984375 
L 54.390625 75.984375 
L 54.390625 0 
L 45.40625 0 
L 45.40625 8.203125 
Q 42.578125 3.328125 38.25 0.953125 
Q 33.9375 -1.421875 27.875 -1.421875 
Q 17.96875 -1.421875 11.734375 6.484375 
Q 5.515625 14.40625 5.515625 27.296875 
Q 5.515625 40.1875 11.734375 48.09375 
Q 17.96875 56 27.875 56 
Q 33.9375 56 38.25 53.625 
Q 42.578125 51.265625 45.40625 46.390625 
z
M 14.796875 27.296875 
Q 14.796875 17.390625 18.875 11.75 
Q 22.953125 6.109375 30.078125 6.109375 
Q 37.203125 6.109375 41.296875 11.75 
Q 45.40625 17.390625 45.40625 27.296875 
Q 45.40625 37.203125 41.296875 42.84375 
Q 37.203125 48.484375 30.078125 48.484375 
Q 22.953125 48.484375 18.875 42.84375 
Q 14.796875 37.203125 14.796875 27.296875 
z
" id="DejaVuSans-64"/>
      <path d="M 9.421875 54.6875 
L 18.40625 54.6875 
L 18.40625 0 
L 9.421875 0 
z
M 9.421875 75.984375 
L 18.40625 75.984375 
L 18.40625 64.59375 
L 9.421875 64.59375 
z
" id="DejaVuSans-69"/>
      <path d="M 52 44.1875 
Q 55.375 50.25 60.0625 53.125 
Q 64.75 56 71.09375 56 
Q 79.640625 56 84.28125 50.015625 
Q 88.921875 44.046875 88.921875 33.015625 
L 88.921875 0 
L 79.890625 0 
L 79.890625 32.71875 
Q 79.890625 40.578125 77.09375 44.375 
Q 74.3125 48.1875 68.609375 48.1875 
Q 61.625 48.1875 57.5625 43.546875 
Q 53.515625 38.921875 53.515625 30.90625 
L 53.515625 0 
L 44.484375 0 
L 44.484375 32.71875 
Q 44.484375 40.625 41.703125 44.40625 
Q 38.921875 48.1875 33.109375 48.1875 
Q 26.21875 48.1875 22.15625 43.53125 
Q 18.109375 38.875 18.109375 30.90625 
L 18.109375 0 
L 9.078125 0 
L 9.078125 54.6875 
L 18.109375 54.6875 
L 18.109375 46.1875 
Q 21.1875 51.21875 25.484375 53.609375 
Q 29.78125 56 35.6875 56 
Q 41.65625 56 45.828125 52.96875 
Q 50 49.953125 52 44.1875 
z
" id="DejaVuSans-6d"/>
      <path d="M 54.890625 33.015625 
L 54.890625 0 
L 45.90625 0 
L 45.90625 32.71875 
Q 45.90625 40.484375 42.875 44.328125 
Q 39.84375 48.1875 33.796875 48.1875 
Q 26.515625 48.1875 22.3125 43.546875 
Q 18.109375 38.921875 18.109375 30.90625 
L 18.109375 0 
L 9.078125 0 
L 9.078125 54.6875 
L 18.109375 54.6875 
L 18.109375 46.1875 
Q 21.34375 51.125 25.703125 53.5625 
Q 30.078125 56 35.796875 56 
Q 45.21875 56 50.046875 50.171875 
Q 54.890625 44.34375 54.890625 33.015625 
z
" id="DejaVuSans-6e"/>
      <path d="M 8.015625 75.875 
L 15.828125 75.875 
Q 23.140625 64.359375 26.78125 53.3125 
Q 30.421875 42.28125 30.421875 31.390625 
Q 30.421875 20.453125 26.78125 9.375 
Q 23.140625 -1.703125 15.828125 -13.1875 
L 8.015625 -13.1875 
Q 14.5 -2 17.703125 9.0625 
Q 20.90625 20.125 20.90625 31.390625 
Q 20.90625 42.671875 17.703125 53.65625 
Q 14.5 64.65625 8.015625 75.875 
z
" id="DejaVuSans-29"/>
     </defs>
     <g transform="translate(73.803219 338.153594)scale(0.17 -0.17)">
      <use xlink:href="#DejaVuSans-6c"/>
      <use x="27.783203" xlink:href="#DejaVuSans-6f"/>
      <use x="88.964844" xlink:href="#DejaVuSans-67"/>
      <use x="152.441406" xlink:href="#DejaVuSans-31"/>
      <use x="216.064453" xlink:href="#DejaVuSans-30"/>
      <use x="279.6875" xlink:href="#DejaVuSans-28"/>
      <use x="318.701172" xlink:href="#DejaVuSans-23"/>
      <use x="402.490234" xlink:href="#DejaVuSans-20"/>
      <use x="434.277344" xlink:href="#DejaVuSans-66"/>
      <use x="469.404297" xlink:href="#DejaVuSans-2d"/>
      <use x="505.488281" xlink:href="#DejaVuSans-65"/>
      <use x="567.011719" xlink:href="#DejaVuSans-76"/>
      <use x="626.191406" xlink:href="#DejaVuSans-61"/>
      <use x="687.470703" xlink:href="#DejaVuSans-6c"/>
      <use x="715.253906" xlink:href="#DejaVuSans-73"/>
      <use x="767.353516" xlink:href="#DejaVuSans-20"/>
      <use x="799.140625" xlink:href="#DejaVuSans-2f"/>
      <use x="832.832031" xlink:href="#DejaVuSans-20"/>
      <use x="864.619141" xlink:href="#DejaVuSans-64"/>
      <use x="928.095703" xlink:href="#DejaVuSans-69"/>
      <use x="955.878906" xlink:href="#DejaVuSans-6d"/>
      <use x="1053.291016" xlink:href="#DejaVuSans-65"/>
      <use x="1114.814453" xlink:href="#DejaVuSans-6e"/>
      <use x="1178.193359" xlink:href="#DejaVuSans-73"/>
      <use x="1230.292969" xlink:href="#DejaVuSans-69"/>
      <use x="1258.076172" xlink:href="#DejaVuSans-6f"/>
      <use x="1319.257812" xlink:href="#DejaVuSans-6e"/>
      <use x="1382.636719" xlink:href="#DejaVuSans-29"/>
     </g>
    </g>
   </g>
   <g id="matplotlib.axis_2">
    <g id="ytick_1">
     <g id="line2d_25">
      <path clip-path="url(#p5f4a31c947)" d="M 56.12 294.88 
L 333.168 294.88 
" style="fill:none;stroke:#b0b0b0;stroke-linecap:square;stroke-width:0.8;"/>
     </g>
     <g id="line2d_26">
      <defs>
       <path d="M 0 0 
L -3.5 0 
" id="m35e0023e63" style="stroke:#000000;stroke-width:0.8;"/>
      </defs>
      <g>
       <use style="stroke:#000000;stroke-width:0.8;" x="56.12" xlink:href="#m35e0023e63" y="294.88"/>
      </g>
     </g>
     <g id="text_6">
      <!-- 0.0 -->
      <defs>
       <path d="M 10.6875 12.40625 
L 21 12.40625 
L 21 0 
L 10.6875 0 
z
" id="DejaVuSans-2e"/>
      </defs>
      <g transform="translate(23.675 300.95875)scale(0.16 -0.16)">
       <use xlink:href="#DejaVuSans-30"/>
       <use x="63.623047" xlink:href="#DejaVuSans-2e"/>
       <use x="95.410156" xlink:href="#DejaVuSans-30"/>
      </g>
     </g>
    </g>
    <g id="ytick_2">
     <g id="line2d_27">
      <path clip-path="url(#p5f4a31c947)" d="M 56.12 241.406733 
L 333.168 241.406733 
" style="fill:none;stroke:#b0b0b0;stroke-linecap:square;stroke-width:0.8;"/>
     </g>
     <g id="line2d_28">
      <g>
       <use style="stroke:#000000;stroke-width:0.8;" x="56.12" xlink:href="#m35e0023e63" y="241.406733"/>
      </g>
     </g>
     <g id="text_7">
      <!-- 0.2 -->
      <g transform="translate(23.675 247.485483)scale(0.16 -0.16)">
       <use xlink:href="#DejaVuSans-30"/>
       <use x="63.623047" xlink:href="#DejaVuSans-2e"/>
       <use x="95.410156" xlink:href="#DejaVuSans-32"/>
      </g>
     </g>
    </g>
    <g id="ytick_3">
     <g id="line2d_29">
      <path clip-path="url(#p5f4a31c947)" d="M 56.12 187.933465 
L 333.168 187.933465 
" style="fill:none;stroke:#b0b0b0;stroke-linecap:square;stroke-width:0.8;"/>
     </g>
     <g id="line2d_30">
      <g>
       <use style="stroke:#000000;stroke-width:0.8;" x="56.12" xlink:href="#m35e0023e63" y="187.933465"/>
      </g>
     </g>
     <g id="text_8">
      <!-- 0.4 -->
      <g transform="translate(23.675 194.012215)scale(0.16 -0.16)">
       <use xlink:href="#DejaVuSans-30"/>
       <use x="63.623047" xlink:href="#DejaVuSans-2e"/>
       <use x="95.410156" xlink:href="#DejaVuSans-34"/>
      </g>
     </g>
    </g>
    <g id="ytick_4">
     <g id="line2d_31">
      <path clip-path="url(#p5f4a31c947)" d="M 56.12 134.460198 
L 333.168 134.460198 
" style="fill:none;stroke:#b0b0b0;stroke-linecap:square;stroke-width:0.8;"/>
     </g>
     <g id="line2d_32">
      <g>
       <use style="stroke:#000000;stroke-width:0.8;" x="56.12" xlink:href="#m35e0023e63" y="134.460198"/>
      </g>
     </g>
     <g id="text_9">
      <!-- 0.6 -->
      <g transform="translate(23.675 140.538948)scale(0.16 -0.16)">
       <use xlink:href="#DejaVuSans-30"/>
       <use x="63.623047" xlink:href="#DejaVuSans-2e"/>
       <use x="95.410156" xlink:href="#DejaVuSans-36"/>
      </g>
     </g>
    </g>
    <g id="ytick_5">
     <g id="line2d_33">
      <path clip-path="url(#p5f4a31c947)" d="M 56.12 80.986931 
L 333.168 80.986931 
" style="fill:none;stroke:#b0b0b0;stroke-linecap:square;stroke-width:0.8;"/>
     </g>
     <g id="line2d_34">
      <g>
       <use style="stroke:#000000;stroke-width:0.8;" x="56.12" xlink:href="#m35e0023e63" y="80.986931"/>
      </g>
     </g>
     <g id="text_10">
      <!-- 0.8 -->
      <defs>
       <path d="M 31.78125 34.625 
Q 24.75 34.625 20.71875 30.859375 
Q 16.703125 27.09375 16.703125 20.515625 
Q 16.703125 13.921875 20.71875 10.15625 
Q 24.75 6.390625 31.78125 6.390625 
Q 38.8125 6.390625 42.859375 10.171875 
Q 46.921875 13.96875 46.921875 20.515625 
Q 46.921875 27.09375 42.890625 30.859375 
Q 38.875 34.625 31.78125 34.625 
z
M 21.921875 38.8125 
Q 15.578125 40.375 12.03125 44.71875 
Q 8.5 49.078125 8.5 55.328125 
Q 8.5 64.0625 14.71875 69.140625 
Q 20.953125 74.21875 31.78125 74.21875 
Q 42.671875 74.21875 48.875 69.140625 
Q 55.078125 64.0625 55.078125 55.328125 
Q 55.078125 49.078125 51.53125 44.71875 
Q 48 40.375 41.703125 38.8125 
Q 48.828125 37.15625 52.796875 32.3125 
Q 56.78125 27.484375 56.78125 20.515625 
Q 56.78125 9.90625 50.3125 4.234375 
Q 43.84375 -1.421875 31.78125 -1.421875 
Q 19.734375 -1.421875 13.25 4.234375 
Q 6.78125 9.90625 6.78125 20.515625 
Q 6.78125 27.484375 10.78125 32.3125 
Q 14.796875 37.15625 21.921875 38.8125 
z
M 18.3125 54.390625 
Q 18.3125 48.734375 21.84375 45.5625 
Q 25.390625 42.390625 31.78125 42.390625 
Q 38.140625 42.390625 41.71875 45.5625 
Q 45.3125 48.734375 45.3125 54.390625 
Q 45.3125 60.0625 41.71875 63.234375 
Q 38.140625 66.40625 31.78125 66.40625 
Q 25.390625 66.40625 21.84375 63.234375 
Q 18.3125 60.0625 18.3125 54.390625 
z
" id="DejaVuSans-38"/>
      </defs>
      <g transform="translate(23.675 87.065681)scale(0.16 -0.16)">
       <use xlink:href="#DejaVuSans-30"/>
       <use x="63.623047" xlink:href="#DejaVuSans-2e"/>
       <use x="95.410156" xlink:href="#DejaVuSans-38"/>
      </g>
     </g>
    </g>
    <g id="ytick_6">
     <g id="line2d_35">
      <path clip-path="url(#p5f4a31c947)" d="M 56.12 27.513663 
L 333.168 27.513663 
" style="fill:none;stroke:#b0b0b0;stroke-linecap:square;stroke-width:0.8;"/>
     </g>
     <g id="line2d_36">
      <g>
       <use style="stroke:#000000;stroke-width:0.8;" x="56.12" xlink:href="#m35e0023e63" y="27.513663"/>
      </g>
     </g>
     <g id="text_11">
      <!-- 1.0 -->
      <g transform="translate(23.675 33.592413)scale(0.16 -0.16)">
       <use xlink:href="#DejaVuSans-31"/>
       <use x="63.623047" xlink:href="#DejaVuSans-2e"/>
       <use x="95.410156" xlink:href="#DejaVuSans-30"/>
      </g>
     </g>
    </g>
    <g id="text_12">
     <!-- Fraction of function,target pairs -->
     <defs>
      <path d="M 9.8125 72.90625 
L 51.703125 72.90625 
L 51.703125 64.59375 
L 19.671875 64.59375 
L 19.671875 43.109375 
L 48.578125 43.109375 
L 48.578125 34.8125 
L 19.671875 34.8125 
L 19.671875 0 
L 9.8125 0 
z
" id="DejaVuSans-46"/>
      <path d="M 41.109375 46.296875 
Q 39.59375 47.171875 37.8125 47.578125 
Q 36.03125 48 33.890625 48 
Q 26.265625 48 22.1875 43.046875 
Q 18.109375 38.09375 18.109375 28.8125 
L 18.109375 0 
L 9.078125 0 
L 9.078125 54.6875 
L 18.109375 54.6875 
L 18.109375 46.1875 
Q 20.953125 51.171875 25.484375 53.578125 
Q 30.03125 56 36.53125 56 
Q 37.453125 56 38.578125 55.875 
Q 39.703125 55.765625 41.0625 55.515625 
z
" id="DejaVuSans-72"/>
      <path d="M 48.78125 52.59375 
L 48.78125 44.1875 
Q 44.96875 46.296875 41.140625 47.34375 
Q 37.3125 48.390625 33.40625 48.390625 
Q 24.65625 48.390625 19.8125 42.84375 
Q 14.984375 37.3125 14.984375 27.296875 
Q 14.984375 17.28125 19.8125 11.734375 
Q 24.65625 6.203125 33.40625 6.203125 
Q 37.3125 6.203125 41.140625 7.25 
Q 44.96875 8.296875 48.78125 10.40625 
L 48.78125 2.09375 
Q 45.015625 0.34375 40.984375 -0.53125 
Q 36.96875 -1.421875 32.421875 -1.421875 
Q 20.0625 -1.421875 12.78125 6.34375 
Q 5.515625 14.109375 5.515625 27.296875 
Q 5.515625 40.671875 12.859375 48.328125 
Q 20.21875 56 33.015625 56 
Q 37.15625 56 41.109375 55.140625 
Q 45.0625 54.296875 48.78125 52.59375 
z
" id="DejaVuSans-63"/>
      <path d="M 18.3125 70.21875 
L 18.3125 54.6875 
L 36.8125 54.6875 
L 36.8125 47.703125 
L 18.3125 47.703125 
L 18.3125 18.015625 
Q 18.3125 11.328125 20.140625 9.421875 
Q 21.96875 7.515625 27.59375 7.515625 
L 36.8125 7.515625 
L 36.8125 0 
L 27.59375 0 
Q 17.1875 0 13.234375 3.875 
Q 9.28125 7.765625 9.28125 18.015625 
L 9.28125 47.703125 
L 2.6875 47.703125 
L 2.6875 54.6875 
L 9.28125 54.6875 
L 9.28125 70.21875 
z
" id="DejaVuSans-74"/>
      <path d="M 8.5 21.578125 
L 8.5 54.6875 
L 17.484375 54.6875 
L 17.484375 21.921875 
Q 17.484375 14.15625 20.5 10.265625 
Q 23.53125 6.390625 29.59375 6.390625 
Q 36.859375 6.390625 41.078125 11.03125 
Q 45.3125 15.671875 45.3125 23.6875 
L 45.3125 54.6875 
L 54.296875 54.6875 
L 54.296875 0 
L 45.3125 0 
L 45.3125 8.40625 
Q 42.046875 3.421875 37.71875 1 
Q 33.40625 -1.421875 27.6875 -1.421875 
Q 18.265625 -1.421875 13.375 4.4375 
Q 8.5 10.296875 8.5 21.578125 
z
M 31.109375 56 
z
" id="DejaVuSans-75"/>
      <path d="M 11.71875 12.40625 
L 22.015625 12.40625 
L 22.015625 4 
L 14.015625 -11.625 
L 7.71875 -11.625 
L 11.71875 4 
z
" id="DejaVuSans-2c"/>
      <path d="M 18.109375 8.203125 
L 18.109375 -20.796875 
L 9.078125 -20.796875 
L 9.078125 54.6875 
L 18.109375 54.6875 
L 18.109375 46.390625 
Q 20.953125 51.265625 25.265625 53.625 
Q 29.59375 56 35.59375 56 
Q 45.5625 56 51.78125 48.09375 
Q 58.015625 40.1875 58.015625 27.296875 
Q 58.015625 14.40625 51.78125 6.484375 
Q 45.5625 -1.421875 35.59375 -1.421875 
Q 29.59375 -1.421875 25.265625 0.953125 
Q 20.953125 3.328125 18.109375 8.203125 
z
M 48.6875 27.296875 
Q 48.6875 37.203125 44.609375 42.84375 
Q 40.53125 48.484375 33.40625 48.484375 
Q 26.265625 48.484375 22.1875 42.84375 
Q 18.109375 37.203125 18.109375 27.296875 
Q 18.109375 17.390625 22.1875 11.75 
Q 26.265625 6.109375 33.40625 6.109375 
Q 40.53125 6.109375 44.609375 11.75 
Q 48.6875 17.390625 48.6875 27.296875 
z
" id="DejaVuSans-70"/>
     </defs>
     <g transform="translate(16.139531 294.999375)rotate(-90)scale(0.17 -0.17)">
      <use xlink:href="#DejaVuSans-46"/>
      <use x="57.410156" xlink:href="#DejaVuSans-72"/>
      <use x="98.523438" xlink:href="#DejaVuSans-61"/>
      <use x="159.802734" xlink:href="#DejaVuSans-63"/>
      <use x="214.783203" xlink:href="#DejaVuSans-74"/>
      <use x="253.992188" xlink:href="#DejaVuSans-69"/>
      <use x="281.775391" xlink:href="#DejaVuSans-6f"/>
      <use x="342.957031" xlink:href="#DejaVuSans-6e"/>
      <use x="406.335938" xlink:href="#DejaVuSans-20"/>
      <use x="438.123047" xlink:href="#DejaVuSans-6f"/>
      <use x="499.304688" xlink:href="#DejaVuSans-66"/>
      <use x="534.509766" xlink:href="#DejaVuSans-20"/>
      <use x="566.296875" xlink:href="#DejaVuSans-66"/>
      <use x="601.501953" xlink:href="#DejaVuSans-75"/>
      <use x="664.880859" xlink:href="#DejaVuSans-6e"/>
      <use x="728.259766" xlink:href="#DejaVuSans-63"/>
      <use x="783.240234" xlink:href="#DejaVuSans-74"/>
      <use x="822.449219" xlink:href="#DejaVuSans-69"/>
      <use x="850.232422" xlink:href="#DejaVuSans-6f"/>
      <use x="911.414062" xlink:href="#DejaVuSans-6e"/>
      <use x="974.792969" xlink:href="#DejaVuSans-2c"/>
      <use x="1006.580078" xlink:href="#DejaVuSans-74"/>
      <use x="1045.789062" xlink:href="#DejaVuSans-61"/>
      <use x="1107.068359" xlink:href="#DejaVuSans-72"/>
      <use x="1148.166016" xlink:href="#DejaVuSans-67"/>
      <use x="1211.642578" xlink:href="#DejaVuSans-65"/>
      <use x="1273.166016" xlink:href="#DejaVuSans-74"/>
      <use x="1312.375" xlink:href="#DejaVuSans-20"/>
      <use x="1344.162109" xlink:href="#DejaVuSans-70"/>
      <use x="1407.638672" xlink:href="#DejaVuSans-61"/>
      <use x="1468.917969" xlink:href="#DejaVuSans-69"/>
      <use x="1496.701172" xlink:href="#DejaVuSans-72"/>
      <use x="1537.814453" xlink:href="#DejaVuSans-73"/>
     </g>
    </g>
   </g>
   <g id="line2d_37">
    <defs>
     <path d="M 0 1.5 
C 0.397805 1.5 0.77937 1.341951 1.06066 1.06066 
C 1.341951 0.77937 1.5 0.397805 1.5 0 
C 1.5 -0.397805 1.341951 -0.77937 1.06066 -1.06066 
C 0.77937 -1.341951 0.397805 -1.5 0 -1.5 
C -0.397805 -1.5 -0.77937 -1.341951 -1.06066 -1.06066 
C -1.341951 -0.77937 -1.5 -0.397805 -1.5 0 
C -1.5 0.397805 -1.341951 0.77937 -1.06066 1.06066 
C -0.77937 1.341951 -0.397805 1.5 0 1.5 
z
" id="mbc30267229" style="stroke:#00bfbf;"/>
    </defs>
    <g>
     <use style="fill:#00bfbf;stroke:#00bfbf;" x="204.63181" xlink:href="#mbc30267229" y="27.513663"/>
     <use style="fill:#00bfbf;stroke:#00bfbf;" x="204.63181" xlink:href="#mbc30267229" y="27.513663"/>
    </g>
   </g>
   <g id="line2d_38">
    <path d="M 44.205749 294.88 
L 44.205749 274.434339 
L 56.12 274.434339 
L 56.12 264.99788 
L 63.08939 264.99788 
L 63.08939 262.376641 
L 71.869783 262.376641 
L 71.869783 260.803898 
L 75.003641 260.803898 
L 75.003641 260.279651 
L 77.653281 260.279651 
L 77.653281 257.134164 
L 79.948502 257.134164 
L 79.948502 255.561421 
L 81.973032 255.561421 
L 81.973032 255.037173 
L 83.784035 255.037173 
L 83.784035 254.512926 
L 89.567532 254.512926 
L 89.567532 248.746201 
L 90.753425 248.746201 
L 90.753425 244.552219 
L 92.904808 244.552219 
L 92.904808 243.503724 
L 93.887283 243.503724 
L 93.887283 240.358237 
L 95.698286 240.358237 
L 95.698286 236.688503 
L 96.536922 236.688503 
L 96.536922 234.067265 
L 97.336537 234.067265 
L 97.336537 230.921778 
L 100.856673 230.921778 
L 100.856673 229.349035 
L 102.084955 229.349035 
L 102.084955 228.824787 
L 103.777005 228.824787 
L 103.777005 226.727797 
L 104.819059 226.727797 
L 104.819059 224.630806 
L 105.317315 224.630806 
L 105.317315 224.106558 
L 106.272485 224.106558 
L 106.272485 223.58231 
L 108.036969 223.58231 
L 108.036969 222.533815 
L 108.85563 222.533815 
L 108.85563 222.009567 
L 110.746395 222.009567 
L 110.746395 221.485319 
L 111.448069 221.485319 
L 111.448069 219.388328 
L 112.449632 219.388328 
L 112.449632 218.864081 
L 115.145539 218.864081 
L 115.145539 217.291338 
L 115.691256 217.291338 
L 115.691256 216.76709 
L 116.478659 216.76709 
L 116.478659 214.145851 
L 117.475381 214.145851 
L 117.475381 213.621604 
L 118.869818 213.621604 
L 118.869818 213.097356 
L 119.09161 213.097356 
L 119.09161 206.806383 
L 120.769881 206.806383 
L 120.769881 206.282136 
L 122.660646 206.282136 
L 122.660646 205.757888 
L 123.015063 205.757888 
L 123.015063 204.709392 
L 129.268157 204.709392 
L 129.268157 204.185145 
L 129.389632 204.185145 
L 129.389632 202.612401 
L 129.630036 202.612401 
L 129.630036 202.088154 
L 131.005861 202.088154 
L 131.005861 201.563906 
L 131.760342 201.563906 
L 131.760342 197.894172 
L 132.583907 197.894172 
L 132.583907 196.845677 
L 135.3623 196.845677 
L 135.3623 196.321429 
L 135.701004 196.321429 
L 135.701004 195.797181 
L 136.519665 195.797181 
L 136.519665 195.272933 
L 137.070377 195.272933 
L 137.070377 193.70019 
L 138.33866 193.70019 
L 138.410429 192.651695 
L 139.112104 192.651695 
L 139.112104 192.127447 
L 139.720016 192.127447 
L 139.720016 190.554704 
L 139.983449 190.554704 
L 139.983449 190.030456 
L 140.750355 190.030456 
L 140.750355 188.981961 
L 142.809574 188.981961 
L 142.809574 187.933465 
L 142.975116 187.933465 
L 142.975116 183.739484 
L 144.747635 183.739484 
L 144.747635 183.215236 
L 145.139415 183.215236 
L 145.139415 176.924263 
L 145.85077 176.924263 
L 145.85077 175.875768 
L 146.172923 175.875768 
L 146.172923 174.303025 
L 147.782136 174.303025 
L 147.782136 171.681786 
L 148.192385 171.681786 
L 148.192385 171.157538 
L 148.353782 171.157538 
L 148.353782 168.012052 
L 148.55342 168.012052 
L 148.593071 166.439309 
L 148.868095 166.439309 
L 148.868095 165.915061 
L 149.023298 165.915061 
L 149.023298 161.196832 
L 149.177112 161.196832 
L 149.177112 160.148336 
L 149.329562 160.148336 
L 149.329562 159.099841 
L 149.555732 159.099841 
L 149.555732 154.905859 
L 149.704875 154.905859 
L 149.778964 147.042143 
L 150.467326 147.042143 
L 150.502803 142.323914 
L 150.608797 142.323914 
L 150.608797 141.799666 
L 150.888293 141.799666 
L 150.991943 139.702675 
L 151.265327 139.702675 
L 151.265327 138.129932 
L 151.962932 138.129932 
L 151.962932 137.605684 
L 152.092658 137.605684 
L 152.092658 133.93595 
L 152.34921 133.93595 
L 152.34921 132.363207 
L 152.601988 132.363207 
L 152.69583 130.790464 
L 152.820161 130.790464 
L 152.820161 130.266216 
L 152.943598 130.266216 
L 152.943598 127.12073 
L 153.695627 127.12073 
L 153.695627 125.023739 
L 154.131541 125.023739 
L 154.131541 122.4025 
L 154.889367 122.4025 
L 154.889367 121.878253 
L 155.107638 121.878253 
L 155.161776 120.30551 
L 155.824488 120.30551 
L 155.824488 119.781262 
L 156.031271 119.781262 
L 156.133737 116.111528 
L 156.210188 116.111528 
L 156.210188 114.538785 
L 156.858892 114.538785 
L 156.858892 113.490289 
L 157.625086 113.490289 
L 157.625086 109.820555 
L 160.704216 109.820555 
L 160.704216 108.77206 
L 160.860123 108.77206 
L 160.860123 108.247812 
L 161.319534 108.247812 
L 161.319534 107.723564 
L 161.488697 107.723564 
L 161.488697 106.150821 
L 161.674723 106.150821 
L 161.674723 105.626573 
L 161.895329 105.626573 
L 161.895329 105.102326 
L 162.274704 105.102326 
L 162.274704 104.05383 
L 162.54065 104.05383 
L 162.54065 100.384096 
L 162.940606 100.384096 
L 162.940606 99.859849 
L 163.111639 99.859849 
L 163.213447 96.190115 
L 163.314656 96.190115 
L 163.365038 94.093124 
L 163.762864 94.093124 
L 163.860898 92.520381 
L 164.71892 92.520381 
L 164.765354 91.471885 
L 165.901712 91.471885 
L 166.002695 88.850646 
L 166.045792 88.850646 
L 166.045792 88.326399 
L 167.725732 88.326399 
L 167.725732 87.802151 
L 168.32666 87.802151 
L 168.32666 87.277903 
L 169.064483 87.277903 
L 169.064483 86.229408 
L 169.350967 86.229408 
L 169.350967 85.70516 
L 169.539337 85.70516 
L 169.539337 84.132417 
L 170.001425 84.132417 
L 170.001425 81.511178 
L 170.451415 81.511178 
L 170.451415 80.462683 
L 174.472486 80.462683 
L 174.533889 79.414188 
L 176.477476 79.414188 
L 176.477476 78.88994 
L 176.733622 78.88994 
L 176.733622 78.365692 
L 176.940393 78.365692 
L 176.940393 77.317197 
L 177.091969 77.317197 
L 177.091969 76.268701 
L 177.272114 76.268701 
L 177.272114 75.220206 
L 177.51677 75.220206 
L 177.51677 74.17171 
L 177.670666 74.17171 
L 177.765249 72.598967 
L 177.837653 72.598967 
L 177.852097 71.550472 
L 177.995876 71.550472 
L 178.024488 68.404985 
L 178.350147 68.404985 
L 178.350147 67.35649 
L 178.482878 67.35649 
L 178.586947 66.307995 
L 178.662865 66.307995 
L 178.717869 62.114013 
L 178.793213 62.114013 
L 178.793213 60.54127 
L 178.915795 60.54127 
L 178.915795 60.017022 
L 179.037509 60.017022 
L 179.037509 59.492774 
L 179.231808 59.492774 
L 179.231808 58.968526 
L 179.443689 58.968526 
L 179.529025 55.298792 
L 179.594382 55.298792 
L 179.594382 54.774545 
L 179.75023 54.774545 
L 179.75023 53.726049 
L 179.866195 53.726049 
L 179.866195 52.153306 
L 180.140098 52.153306 
L 180.140098 50.056315 
L 180.328641 50.056315 
L 180.366102 48.483572 
L 180.619928 48.483572 
L 180.619928 47.959324 
L 180.809387 47.959324 
L 180.912404 46.910829 
L 180.924483 46.910829 
L 180.978734 45.862334 
L 181.068775 45.862334 
L 181.170253 41.144104 
L 181.211865 41.144104 
L 181.253376 39.047113 
L 181.459442 39.047113 
L 181.459442 37.47437 
L 203.450585 37.47437 
L 203.450585 35.901627 
L 204.164954 35.901627 
L 204.164954 35.377379 
L 204.369898 35.377379 
L 204.454575 28.562159 
L 204.593767 28.562159 
L 204.63181 27.513663 
L 333.168 27.513663 
L 333.168 27.513663 
" style="fill:none;stroke:#00bfbf;stroke-linecap:square;stroke-width:1.5;"/>
   </g>
   <g id="line2d_39">
    <defs>
     <path d="M -6 0 
L 6 0 
M 0 6 
L 0 -6 
" id="m86892d56e4" style="stroke:#00bfbf;stroke-width:1.5;"/>
    </defs>
    <g>
     <use style="fill-opacity:0;stroke:#00bfbf;stroke-width:1.5;" x="131.005861" xlink:href="#m86892d56e4" y="201.563906"/>
     <use style="fill-opacity:0;stroke:#00bfbf;stroke-width:1.5;" x="162.54065" xlink:href="#m86892d56e4" y="104.05383"/>
     <use style="fill-opacity:0;stroke:#00bfbf;stroke-width:1.5;" x="181.459442" xlink:href="#m86892d56e4" y="37.47437"/>
     <use style="fill-opacity:0;stroke:#00bfbf;stroke-width:1.5;" x="204.63181" xlink:href="#m86892d56e4" y="27.513663"/>
     <use style="fill-opacity:0;stroke:#00bfbf;stroke-width:1.5;" x="204.63181" xlink:href="#m86892d56e4" y="27.513663"/>
     <use style="fill-opacity:0;stroke:#00bfbf;stroke-width:1.5;" x="333.168" xlink:href="#m86892d56e4" y="27.513663"/>
    </g>
   </g>
   <g id="line2d_40">
    <path style="fill:none;stroke:#00bfbf;stroke-linecap:square;stroke-width:1.5;"/>
    <g/>
   </g>
   <g id="line2d_41">
    <defs>
     <path d="M 0 1.5 
C 0.397805 1.5 0.77937 1.341951 1.06066 1.06066 
C 1.341951 0.77937 1.5 0.397805 1.5 0 
C 1.5 -0.397805 1.341951 -0.77937 1.06066 -1.06066 
C 0.77937 -1.341951 0.397805 -1.5 0 -1.5 
C -0.397805 -1.5 -0.77937 -1.341951 -1.06066 -1.06066 
C -1.341951 -0.77937 -1.5 -0.397805 -1.5 0 
C -1.5 0.397805 -1.341951 0.77937 -1.06066 1.06066 
C -0.77937 1.341951 -0.397805 1.5 0 1.5 
z
" id="m7cce1e3d88" style="stroke:#008000;"/>
    </defs>
    <g>
     <use style="fill:#008000;stroke:#008000;" x="236.136321" xlink:href="#m7cce1e3d88" y="27.513663"/>
     <use style="fill:#008000;stroke:#008000;" x="236.136321" xlink:href="#m7cce1e3d88" y="27.513663"/>
    </g>
   </g>
   <g id="line2d_42">
    <path d="M 37.236359 294.88 
L 37.236359 276.007082 
L 49.15061 276.007082 
L 49.15061 272.337348 
L 56.12 272.337348 
L 56.12 271.8131 
L 61.064861 271.8131 
L 61.064861 265.522128 
L 68.034251 265.522128 
L 68.034251 264.99788 
L 75.003641 264.99788 
L 75.003641 261.328146 
L 78.452896 261.328146 
L 78.452896 258.18266 
L 79.948502 258.18266 
L 79.948502 257.658412 
L 81.324327 257.658412 
L 81.324327 256.609917 
L 82.598142 256.609917 
L 82.598142 256.085669 
L 83.784035 256.085669 
L 83.784035 255.561421 
L 84.893363 255.561421 
L 84.893363 253.46443 
L 89.567532 253.46443 
L 89.567532 252.940182 
L 92.564428 252.940182 
L 92.564428 251.367439 
L 93.238578 251.367439 
L 93.238578 250.843192 
L 93.887283 250.843192 
L 93.887283 249.794696 
L 94.512393 249.794696 
L 94.512393 249.270448 
L 99.303095 249.270448 
L 99.303095 247.173458 
L 102.281398 247.173458 
L 102.281398 246.64921 
L 105.801534 246.64921 
L 105.801534 246.124962 
L 106.11693 246.124962 
L 106.11693 245.076467 
L 107.029816 245.076467 
L 107.029816 244.552219 
L 107.896653 244.552219 
L 107.896653 244.027971 
L 109.76392 244.027971 
L 109.76392 242.979476 
L 111.675736 242.979476 
L 111.675736 242.455228 
L 112.122219 242.455228 
L 112.122219 239.83399 
L 113.19018 239.83399 
L 113.19018 239.309742 
L 113.999206 239.309742 
L 113.999206 237.736999 
L 115.145539 237.736999 
L 115.145539 237.212751 
L 116.73331 237.212751 
L 116.73331 236.688503 
L 119.669433 236.688503 
L 119.669433 235.640008 
L 120.228462 235.640008 
L 120.228462 235.11576 
L 120.501303 235.11576 
L 120.501303 234.591512 
L 121.804096 234.591512 
L 121.804096 233.018769 
L 123.925932 233.018769 
L 123.925932 231.970274 
L 124.255437 231.970274 
L 124.255437 230.921778 
L 126.873966 230.921778 
L 126.873966 230.397531 
L 131.583684 230.397531 
L 131.583684 229.873283 
L 132.279675 229.873283 
L 132.279675 229.349035 
L 132.684132 229.349035 
L 132.684132 228.824787 
L 133.529112 228.824787 
L 133.529112 228.30054 
L 134.515111 228.30054 
L 134.515111 227.776292 
L 135.161597 227.776292 
L 135.161597 227.252044 
L 137.173303 227.252044 
L 137.173303 226.727797 
L 139.786254 226.727797 
L 139.786254 226.203549 
L 140.771177 226.203549 
L 140.771177 225.679301 
L 142.809574 225.679301 
L 142.809574 224.630806 
L 146.429362 224.630806 
L 146.429362 224.106558 
L 146.696779 224.106558 
L 146.696779 223.58231 
L 147.018071 223.58231 
L 147.018071 223.058063 
L 147.219446 223.058063 
L 147.219446 222.533815 
L 147.837405 222.533815 
L 147.947413 221.485319 
L 148.300151 221.485319 
L 148.300151 219.912576 
L 149.593139 219.912576 
L 149.593139 219.388328 
L 149.962801 219.388328 
L 149.962801 218.864081 
L 151.094972 218.864081 
L 151.094972 217.815585 
L 152.28543 217.815585 
L 152.28543 216.76709 
L 155.885057 216.76709 
L 155.885057 216.242842 
L 157.765022 216.242842 
L 157.795964 213.621604 
L 160.599487 213.621604 
L 160.599487 213.097356 
L 161.482461 213.097356 
L 161.482461 212.573108 
L 163.931355 212.573108 
L 163.931355 212.04886 
L 164.092853 212.04886 
L 164.092853 211.524613 
L 164.734412 211.524613 
L 164.775656 208.903374 
L 164.847597 208.903374 
L 164.847597 207.854879 
L 165.263022 207.854879 
L 165.263022 206.806383 
L 165.452183 206.806383 
L 165.452183 205.757888 
L 165.804984 205.757888 
L 165.804984 204.185145 
L 166.931279 204.185145 
L 166.931279 202.612401 
L 167.65184 202.612401 
L 167.65184 202.088154 
L 168.509963 202.088154 
L 168.509963 201.563906 
L 168.919431 201.563906 
L 168.919431 201.039658 
L 169.978614 201.039658 
L 169.978614 200.515411 
L 170.130123 200.515411 
L 170.130123 199.991163 
L 170.302724 199.991163 
L 170.354912 198.41842 
L 170.672068 198.41842 
L 170.672068 197.894172 
L 170.897139 197.894172 
L 170.911559 196.845677 
L 172.362063 196.845677 
L 172.362063 195.797181 
L 173.037487 195.797181 
L 173.037487 193.175943 
L 173.208582 193.175943 
L 173.208582 191.603199 
L 173.693502 191.603199 
L 173.736359 190.554704 
L 173.815667 190.554704 
L 173.815667 189.506209 
L 174.051422 189.506209 
L 174.117336 188.457713 
L 174.182998 188.457713 
L 174.182998 187.409218 
L 174.307662 187.409218 
L 174.307662 186.88497 
L 174.454901 186.88497 
L 174.536808 183.215236 
L 174.583437 183.215236 
L 174.65894 180.06975 
L 176.581429 180.06975 
L 176.617665 179.021254 
L 176.920082 179.021254 
L 176.920082 178.497006 
L 177.470085 178.497006 
L 177.470085 177.972759 
L 177.844876 177.972759 
L 177.844876 177.448511 
L 179.147212 177.448511 
L 179.147212 176.924263 
L 179.648656 176.924263 
L 179.648656 176.400016 
L 179.79542 176.400016 
L 179.79542 175.875768 
L 180.671063 175.875768 
L 180.683313 174.827272 
L 180.825587 174.827272 
L 180.825587 174.303025 
L 181.355737 174.303025 
L 181.37143 173.254529 
L 181.523699 173.254529 
L 181.523699 172.730281 
L 181.786008 172.730281 
L 181.786008 171.681786 
L 182.074516 171.681786 
L 182.074516 171.157538 
L 183.420779 171.157538 
L 183.517968 170.109043 
L 183.806283 170.109043 
L 183.86744 168.5363 
L 183.938517 168.5363 
L 183.938517 166.963557 
L 184.109917 166.963557 
L 184.170006 164.866566 
L 185.144888 164.866566 
L 185.248482 161.721079 
L 185.314082 161.721079 
L 185.422861 160.148336 
L 185.425959 160.148336 
L 185.512474 158.575593 
L 185.564789 158.575593 
L 185.623071 155.430107 
L 185.69031 155.430107 
L 185.705555 150.711877 
L 185.947652 150.711877 
L 186.007648 148.614886 
L 187.599557 148.614886 
L 187.599557 148.090639 
L 190.438832 148.090639 
L 190.438832 147.566391 
L 191.216977 147.566391 
L 191.216977 147.042143 
L 193.159728 147.042143 
L 193.159728 146.517896 
L 194.568038 146.517896 
L 194.568038 143.372409 
L 195.086093 143.372409 
L 195.086093 142.323914 
L 196.529971 142.323914 
L 196.529971 141.799666 
L 198.005542 141.799666 
L 198.005542 141.275418 
L 198.894056 141.275418 
L 198.894056 140.226923 
L 199.360264 140.226923 
L 199.360264 139.702675 
L 199.475551 139.702675 
L 199.475551 139.178427 
L 199.653814 139.178427 
L 199.653814 136.557189 
L 199.779254 136.557189 
L 199.863713 130.790464 
L 199.947759 130.790464 
L 200.007541 128.693473 
L 200.177772 128.693473 
L 200.177772 127.644978 
L 200.289026 127.644978 
L 200.399564 125.547987 
L 200.412522 125.547987 
L 200.412522 125.023739 
L 200.565976 125.023739 
L 200.663268 118.732766 
L 200.698974 118.732766 
L 200.698974 117.160023 
L 200.949372 117.160023 
L 200.985742 113.490289 
L 202.866011 113.490289 
L 202.866011 112.966042 
L 203.169888 112.966042 
L 203.169888 112.441794 
L 203.468486 112.441794 
L 203.468486 111.393298 
L 204.136296 111.393298 
L 204.136296 110.869051 
L 204.427934 110.869051 
L 204.427934 110.344803 
L 204.933161 110.344803 
L 204.933161 109.296308 
L 205.214633 109.296308 
L 205.310364 106.675069 
L 205.983765 106.675069 
L 206.028669 105.102326 
L 206.122771 105.102326 
L 206.189541 103.529583 
L 206.279087 103.529583 
L 206.390139 95.665867 
L 206.412994 95.665867 
L 206.480469 90.947637 
L 206.525003 90.947637 
L 206.525003 90.42339 
L 207.362039 90.42339 
L 207.362039 89.899142 
L 208.310572 89.899142 
L 208.310572 86.753656 
L 208.531672 86.753656 
L 208.531672 86.229408 
L 209.336352 86.229408 
L 209.336352 85.70516 
L 209.525674 85.70516 
L 209.628275 82.035426 
L 214.476632 82.035426 
L 214.476632 81.511178 
L 216.295977 81.511178 
L 216.295977 80.986931 
L 221.074364 80.986931 
L 221.074364 80.462683 
L 221.393745 80.462683 
L 221.393745 79.938435 
L 221.629069 79.938435 
L 221.629069 78.88994 
L 222.014501 78.88994 
L 222.03108 73.647463 
L 222.17045 73.647463 
L 222.247352 71.026224 
L 223.060566 71.026224 
L 223.113552 66.832242 
L 223.215599 66.832242 
L 223.242732 63.686756 
L 223.355954 63.686756 
L 223.412796 60.017022 
L 225.56346 60.017022 
L 225.659441 51.629058 
L 227.465047 51.629058 
L 227.564084 41.144104 
L 227.585157 41.144104 
L 227.585157 40.619856 
L 234.518076 40.619856 
L 234.518076 39.571361 
L 234.79368 39.571361 
L 234.810497 37.998618 
L 234.906875 37.998618 
L 234.906875 35.901627 
L 235.987201 35.901627 
L 235.987201 34.853131 
L 236.100137 34.853131 
L 236.136321 27.513663 
L 333.168 27.513663 
L 333.168 27.513663 
" style="fill:none;stroke:#008000;stroke-linecap:square;stroke-width:1.5;"/>
   </g>
   <g id="line2d_43">
    <defs>
     <path d="M -0 6 
L 6 -6 
L -6 -6 
z
" id="m118214ac3d" style="stroke:#008000;stroke-linejoin:miter;stroke-width:1.5;"/>
    </defs>
    <g>
     <use style="fill-opacity:0;stroke:#008000;stroke-linejoin:miter;stroke-width:1.5;" x="109.76392" xlink:href="#m118214ac3d" y="244.027971"/>
     <use style="fill-opacity:0;stroke:#008000;stroke-linejoin:miter;stroke-width:1.5;" x="168.509963" xlink:href="#m118214ac3d" y="201.563906"/>
     <use style="fill-opacity:0;stroke:#008000;stroke-linejoin:miter;stroke-width:1.5;" x="209.628275" xlink:href="#m118214ac3d" y="82.035426"/>
     <use style="fill-opacity:0;stroke:#008000;stroke-linejoin:miter;stroke-width:1.5;" x="236.136321" xlink:href="#m118214ac3d" y="27.513663"/>
     <use style="fill-opacity:0;stroke:#008000;stroke-linejoin:miter;stroke-width:1.5;" x="236.136321" xlink:href="#m118214ac3d" y="27.513663"/>
     <use style="fill-opacity:0;stroke:#008000;stroke-linejoin:miter;stroke-width:1.5;" x="333.168" xlink:href="#m118214ac3d" y="27.513663"/>
    </g>
   </g>
   <g id="line2d_44">
    <path style="fill:none;stroke:#008000;stroke-linecap:square;stroke-width:1.5;"/>
    <g/>
   </g>
   <g id="line2d_45">
    <defs>
     <path d="M 0 1.5 
C 0.397805 1.5 0.77937 1.341951 1.06066 1.06066 
C 1.341951 0.77937 1.5 0.397805 1.5 0 
C 1.5 -0.397805 1.341951 -0.77937 1.06066 -1.06066 
C 0.77937 -1.341951 0.397805 -1.5 0 -1.5 
C -0.397805 -1.5 -0.77937 -1.341951 -1.06066 -1.06066 
C -1.341951 -0.77937 -1.5 -0.397805 -1.5 0 
C -1.5 0.397805 -1.341951 0.77937 -1.06066 1.06066 
C -0.77937 1.341951 -0.397805 1.5 0 1.5 
z
" id="m84b05fc870" style="stroke:#0000ff;"/>
    </defs>
    <g>
     <use style="fill:#0000ff;stroke:#0000ff;" x="313.963715" xlink:href="#m84b05fc870" y="27.513663"/>
     <use style="fill:#0000ff;stroke:#0000ff;" x="313.963715" xlink:href="#m84b05fc870" y="27.513663"/>
    </g>
   </g>
   <g id="line2d_46">
    <path d="M 28.455965 294.88 
L 28.455965 277.055578 
L 40.370217 277.055578 
L 40.370217 274.958587 
L 47.339607 274.958587 
L 47.339607 272.337348 
L 52.284468 272.337348 
L 52.284468 271.8131 
L 56.12 271.8131 
L 56.12 271.288853 
L 59.253858 271.288853 
L 59.253858 269.716109 
L 66.223248 269.716109 
L 66.223248 268.143366 
L 71.168109 268.143366 
L 71.168109 267.619119 
L 72.543934 267.619119 
L 72.543934 266.570623 
L 76.11297 266.570623 
L 76.11297 264.99788 
L 77.155024 264.99788 
L 77.155024 264.473632 
L 80.787138 264.473632 
L 80.787138 263.949385 
L 82.350819 263.949385 
L 82.350819 262.900889 
L 83.08236 262.900889 
L 83.08236 262.376641 
L 85.106889 262.376641 
L 85.106889 261.852394 
L 88.556144 261.852394 
L 88.556144 261.328146 
L 93.501005 261.328146 
L 93.501005 260.803898 
L 97.021141 260.803898 
L 97.021141 260.279651 
L 99.395756 260.279651 
L 99.395756 259.231155 
L 100.983527 259.231155 
L 100.983527 258.18266 
L 101.481783 258.18266 
L 101.481783 257.658412 
L 103.777005 257.658412 
L 103.777005 257.134164 
L 106.365146 257.134164 
L 106.365146 256.609917 
L 106.548983 256.609917 
L 106.548983 254.512926 
L 107.26528 254.512926 
L 107.26528 253.988678 
L 107.439785 253.988678 
L 107.439785 253.46443 
L 107.952917 253.46443 
L 107.952917 252.940182 
L 113.518374 252.940182 
L 113.518374 251.891687 
L 114.922307 251.891687 
L 114.922307 251.367439 
L 115.58349 251.367439 
L 115.58349 250.843192 
L 117.426894 250.843192 
L 117.426894 250.318944 
L 117.620026 250.318944 
L 117.620026 249.794696 
L 118.914406 249.794696 
L 118.914406 249.270448 
L 119.440629 249.270448 
L 119.440629 248.746201 
L 121.320594 248.746201 
L 121.320594 247.173458 
L 123.7027 247.173458 
L 123.7027 246.124962 
L 124.298898 246.124962 
L 124.298898 245.600714 
L 133.917927 245.600714 
L 133.917927 245.076467 
L 136.946047 245.076467 
L 136.946047 244.552219 
L 139.08458 244.552219 
L 139.08458 244.027971 
L 139.330722 244.027971 
L 139.330722 243.503724 
L 140.961566 243.503724 
L 140.961566 242.979476 
L 145.207068 242.979476 
L 145.207068 242.455228 
L 145.588629 242.455228 
L 145.588629 241.406733 
L 146.826017 241.406733 
L 146.826017 240.882485 
L 151.660793 240.882485 
L 151.660793 240.358237 
L 154.24024 240.358237 
L 154.24024 239.83399 
L 154.95514 239.83399 
L 154.95514 239.309742 
L 155.248042 239.309742 
L 155.248042 238.785494 
L 156.056945 238.785494 
L 156.056945 238.261246 
L 157.913041 238.261246 
L 157.913041 237.736999 
L 158.599233 237.736999 
L 158.599233 237.212751 
L 162.260404 237.212751 
L 162.260404 236.688503 
L 165.709659 236.688503 
L 165.709659 236.164255 
L 168.768246 236.164255 
L 168.768246 235.640008 
L 169.511213 235.640008 
L 169.511213 234.591512 
L 170.446973 234.591512 
L 170.446973 234.067265 
L 173.95147 234.067265 
L 173.95147 233.543017 
L 174.605541 233.543017 
L 174.605541 232.494521 
L 174.792866 232.494521 
L 174.792866 231.970274 
L 176.088354 231.970274 
L 176.088354 231.446026 
L 176.395953 231.446026 
L 176.395953 230.921778 
L 176.667235 230.921778 
L 176.667235 230.397531 
L 179.022679 230.397531 
L 179.022679 229.349035 
L 180.180495 229.349035 
L 180.180495 228.824787 
L 180.89185 228.824787 
L 180.89185 228.30054 
L 183.518661 228.30054 
L 183.518661 227.252044 
L 184.216596 227.252044 
L 184.216596 226.727797 
L 186.662207 226.727797 
L 186.662207 226.203549 
L 188.833316 226.203549 
L 188.833316 225.679301 
L 189.441323 225.679301 
L 189.441323 225.155053 
L 189.991546 225.155053 
L 189.991546 224.630806 
L 190.279819 224.630806 
L 190.279819 224.106558 
L 190.625254 224.106558 
L 190.625254 223.58231 
L 191.936406 223.58231 
L 191.936406 223.058063 
L 192.230387 223.058063 
L 192.230387 222.533815 
L 192.394729 222.533815 
L 192.394729 222.009567 
L 193.737353 222.009567 
L 193.737353 220.961072 
L 194.103576 220.961072 
L 194.103576 220.436824 
L 194.769225 220.436824 
L 194.769225 219.912576 
L 195.206103 219.912576 
L 195.206103 219.388328 
L 195.712023 219.388328 
L 195.712023 218.864081 
L 196.317273 218.864081 
L 196.317273 218.339833 
L 196.49389 218.339833 
L 196.534841 217.291338 
L 196.610635 217.291338 
L 196.610635 216.76709 
L 197.104735 216.76709 
L 197.104735 216.242842 
L 200.310669 216.242842 
L 200.310669 215.718594 
L 201.197412 215.718594 
L 201.197412 215.194347 
L 201.447291 215.194347 
L 201.516669 214.145851 
L 203.301779 214.145851 
L 203.301779 213.621604 
L 203.724849 213.621604 
L 203.724849 213.097356 
L 206.250151 213.097356 
L 206.250151 212.573108 
L 207.101932 212.573108 
L 207.101932 212.04886 
L 207.827877 212.04886 
L 207.827877 211.524613 
L 208.607585 211.524613 
L 208.607585 211.000365 
L 210.541226 211.000365 
L 210.541226 210.476117 
L 210.913117 210.476117 
L 210.913117 209.95187 
L 213.11686 209.95187 
L 213.11686 209.427622 
L 213.399552 209.427622 
L 213.399552 208.903374 
L 214.507922 208.903374 
L 214.507922 208.379126 
L 215.088772 208.379126 
L 215.088772 207.854879 
L 215.994028 207.854879 
L 215.994028 207.330631 
L 219.005384 207.330631 
L 219.005384 206.806383 
L 220.725669 206.806383 
L 220.725669 206.282136 
L 221.232791 206.282136 
L 221.232791 205.757888 
L 222.041388 205.757888 
L 222.041388 205.23364 
L 222.521528 205.23364 
L 222.521528 204.709392 
L 224.480533 204.709392 
L 224.480533 204.185145 
L 225.604489 204.185145 
L 225.604489 203.660897 
L 226.162832 203.660897 
L 226.162832 203.136649 
L 226.587722 203.136649 
L 226.587722 202.612401 
L 226.713706 202.612401 
L 226.713706 202.088154 
L 228.294438 202.088154 
L 228.294438 201.563906 
L 228.513735 201.563906 
L 228.513735 201.039658 
L 228.759572 201.039658 
L 228.759572 200.515411 
L 229.366998 200.515411 
L 229.366998 199.991163 
L 230.162976 199.991163 
L 230.162976 199.466915 
L 230.314703 199.466915 
L 230.403038 197.894172 
L 230.568947 197.894172 
L 230.668826 191.603199 
L 230.684459 191.603199 
L 230.697409 188.981961 
L 233.199272 188.981961 
L 233.199272 188.457713 
L 234.251842 188.457713 
L 234.251842 187.933465 
L 235.227774 187.933465 
L 235.273444 181.118245 
L 236.67633 181.118245 
L 236.67633 180.593997 
L 237.397344 180.593997 
L 237.480379 179.545502 
L 237.663329 179.545502 
L 237.663329 179.021254 
L 239.797869 179.021254 
L 239.797869 178.497006 
L 240.401371 178.497006 
L 240.401371 177.972759 
L 241.588575 177.972759 
L 241.588575 177.448511 
L 241.755322 177.448511 
L 241.855673 174.303025 
L 242.377664 174.303025 
L 242.377664 173.778777 
L 242.69812 173.778777 
L 242.722204 172.730281 
L 242.956101 172.730281 
L 242.956101 172.206034 
L 243.174785 172.206034 
L 243.186083 171.157538 
L 243.48586 171.157538 
L 243.48586 170.109043 
L 243.603415 170.109043 
L 243.640033 163.81807 
L 244.165226 163.81807 
L 244.165226 163.293823 
L 244.422016 163.293823 
L 244.422016 162.245327 
L 244.659987 162.245327 
L 244.659987 161.196832 
L 244.827736 161.196832 
L 244.827736 160.672584 
L 245.123846 160.672584 
L 245.123846 160.148336 
L 245.350538 160.148336 
L 245.367088 159.099841 
L 247.498052 159.099841 
L 247.498052 158.575593 
L 249.00913 158.575593 
L 249.00913 158.051345 
L 250.163301 158.051345 
L 250.163301 157.527098 
L 250.632747 157.527098 
L 250.736334 154.381611 
L 251.37392 154.381611 
L 251.484461 152.808868 
L 252.034926 152.808868 
L 252.034926 152.28462 
L 252.624858 152.28462 
L 252.701973 151.236125 
L 252.736588 151.236125 
L 252.736588 150.18763 
L 253.322068 150.18763 
L 253.322068 149.663382 
L 253.695223 149.663382 
L 253.695223 149.139134 
L 255.063445 149.139134 
L 255.119941 146.517896 
L 256.090112 146.517896 
L 256.108379 137.081437 
L 261.823711 137.081437 
L 261.84238 126.072235 
L 264.84308 126.072235 
L 264.858048 115.063032 
L 265.542254 115.063032 
L 265.565965 114.014537 
L 265.691878 114.014537 
L 265.691878 113.490289 
L 266.201735 113.490289 
L 266.234248 103.005335 
L 266.78287 103.005335 
L 266.78287 102.481087 
L 267.035288 102.481087 
L 267.035288 101.956839 
L 267.62763 101.956839 
L 267.62763 101.432592 
L 269.024896 101.432592 
L 269.024896 100.908344 
L 269.160382 100.908344 
L 269.170063 93.044628 
L 270.4492 93.044628 
L 270.454484 91.471885 
L 270.569661 91.471885 
L 270.569661 90.42339 
L 270.682286 90.42339 
L 270.784088 86.229408 
L 270.805453 86.229408 
L 270.856531 83.083922 
L 270.954307 83.083922 
L 270.954307 82.559674 
L 271.075267 82.559674 
L 271.159138 79.938435 
L 271.188472 79.938435 
L 271.192572 76.268701 
L 271.401451 76.268701 
L 271.401451 75.744454 
L 272.106745 75.744454 
L 272.106745 75.220206 
L 272.306349 75.220206 
L 272.37525 66.307995 
L 278.842264 66.307995 
L 278.842264 65.259499 
L 279.036151 65.259499 
L 279.044567 64.211004 
L 279.303947 64.211004 
L 279.310868 54.774545 
L 280.0897 54.774545 
L 280.123972 53.201802 
L 283.01081 53.201802 
L 283.012833 48.483572 
L 287.148232 48.483572 
L 287.210626 47.435077 
L 287.280488 47.435077 
L 287.350562 46.386581 
L 287.437077 46.386581 
L 287.483728 45.338086 
L 291.926061 45.338086 
L 291.926061 44.28959 
L 292.050206 44.28959 
L 292.050206 43.241095 
L 294.0263 43.241095 
L 294.027098 41.668352 
L 294.157309 41.668352 
L 294.157659 40.619856 
L 294.457605 40.619856 
L 294.457605 40.095609 
L 295.428267 40.095609 
L 295.428267 39.571361 
L 296.106059 39.571361 
L 296.106059 39.047113 
L 296.549235 39.047113 
L 296.549359 37.47437 
L 296.774264 37.47437 
L 296.775469 36.425875 
L 297.30823 36.425875 
L 297.30823 35.901627 
L 297.707943 35.901627 
L 297.721321 33.280388 
L 297.979886 33.280388 
L 297.979886 32.756141 
L 299.805411 32.756141 
L 299.806287 31.707645 
L 301.016565 31.707645 
L 301.016661 30.134902 
L 305.724014 30.134902 
L 305.724014 29.610654 
L 306.808368 29.610654 
L 306.808674 28.562159 
L 307.463875 28.562159 
L 307.463875 28.037911 
L 313.963715 28.037911 
L 313.963715 27.513663 
L 333.168 27.513663 
L 333.168 27.513663 
" style="fill:none;stroke:#0000ff;stroke-linecap:square;stroke-width:1.5;"/>
   </g>
   <g id="line2d_47">
    <defs>
     <path d="M 0 -6 
L -1.347084 -1.854102 
L -5.706339 -1.854102 
L -2.179628 0.708204 
L -3.526712 4.854102 
L -0 2.291796 
L 3.526712 4.854102 
L 2.179628 0.708204 
L 5.706339 -1.854102 
L 1.347084 -1.854102 
z
" id="m1046ad0106" style="stroke:#0000ff;stroke-linejoin:bevel;stroke-width:1.5;"/>
    </defs>
    <g>
     <use style="fill-opacity:0;stroke:#0000ff;stroke-linejoin:bevel;stroke-width:1.5;" x="101.481783" xlink:href="#m1046ad0106" y="257.658412"/>
     <use style="fill-opacity:0;stroke:#0000ff;stroke-linejoin:bevel;stroke-width:1.5;" x="165.709659" xlink:href="#m1046ad0106" y="236.164255"/>
     <use style="fill-opacity:0;stroke:#0000ff;stroke-linejoin:bevel;stroke-width:1.5;" x="234.251842" xlink:href="#m1046ad0106" y="187.933465"/>
     <use style="fill-opacity:0;stroke:#0000ff;stroke-linejoin:bevel;stroke-width:1.5;" x="279.303947" xlink:href="#m1046ad0106" y="63.686756"/>
     <use style="fill-opacity:0;stroke:#0000ff;stroke-linejoin:bevel;stroke-width:1.5;" x="313.963715" xlink:href="#m1046ad0106" y="27.513663"/>
     <use style="fill-opacity:0;stroke:#0000ff;stroke-linejoin:bevel;stroke-width:1.5;" x="333.168" xlink:href="#m1046ad0106" y="27.513663"/>
    </g>
   </g>
   <g id="line2d_48">
    <path style="fill:none;stroke:#0000ff;stroke-linecap:square;stroke-width:1.5;"/>
    <g/>
   </g>
   <g id="line2d_49">
    <path clip-path="url(#p5f4a31c947)" d="M 293.589852 43.241095 
" style="fill:none;stroke:#0000ff;stroke-linecap:square;stroke-width:1.5;"/>
    <defs>
     <path d="M -12 12 
L 12 -12 
M -12 -12 
L 12 12 
" id="m586983c5b9" style="stroke:#0000ff;"/>
    </defs>
    <g clip-path="url(#p5f4a31c947)">
     <use style="fill:#0000ff;stroke:#0000ff;" x="293.589852" xlink:href="#m586983c5b9" y="43.241095"/>
    </g>
   </g>
   <g id="line2d_50">
    <defs>
     <path d="M 0 1.5 
C 0.397805 1.5 0.77937 1.341951 1.06066 1.06066 
C 1.341951 0.77937 1.5 0.397805 1.5 0 
C 1.5 -0.397805 1.341951 -0.77937 1.06066 -1.06066 
C 0.77937 -1.341951 0.397805 -1.5 0 -1.5 
C -0.397805 -1.5 -0.77937 -1.341951 -1.06066 -1.06066 
C -1.341951 -0.77937 -1.5 -0.397805 -1.5 0 
C -1.5 0.397805 -1.341951 0.77937 -1.06066 1.06066 
C -0.77937 1.341951 -0.397805 1.5 0 1.5 
z
" id="m2b56748103" style="stroke:#000000;"/>
    </defs>
    <g>
     <use style="stroke:#000000;" x="353.348503" xlink:href="#m2b56748103" y="195.272933"/>
     <use style="stroke:#000000;" x="353.348503" xlink:href="#m2b56748103" y="195.272933"/>
    </g>
   </g>
   <g id="line2d_51">
    <path d="M 16.541714 294.88 
L 16.541714 282.822302 
L 28.455965 282.822302 
L 28.455965 280.201064 
L 35.425356 280.201064 
L 35.425356 278.628321 
L 40.370217 278.628321 
L 40.370217 277.055578 
L 47.339607 277.055578 
L 47.339607 276.007082 
L 49.989246 276.007082 
L 49.989246 275.482834 
L 61.903497 275.482834 
L 61.903497 274.434339 
L 63.08939 274.434339 
L 63.08939 273.910091 
L 70.436568 273.910091 
L 70.436568 272.861596 
L 71.168109 272.861596 
L 71.168109 272.337348 
L 71.869783 272.337348 
L 71.869783 271.8131 
L 75.003641 271.8131 
L 75.003641 271.288853 
L 77.155024 271.288853 
L 77.155024 270.764605 
L 80.787138 270.764605 
L 80.787138 270.240357 
L 81.191596 270.240357 
L 81.191596 269.716109 
L 81.973032 269.716109 
L 81.973032 269.191862 
L 85.106889 269.191862 
L 85.106889 268.667614 
L 88.293717 268.667614 
L 88.293717 268.143366 
L 89.567532 268.143366 
L 89.567532 267.094871 
L 90.522701 267.094871 
L 90.522701 266.570623 
L 93.304561 266.570623 
L 93.304561 266.046375 
L 93.887283 266.046375 
L 93.887283 265.522128 
L 94.450895 265.522128 
L 94.450895 264.99788 
L 96.372436 264.99788 
L 96.372436 264.473632 
L 96.861245 264.473632 
L 96.861245 263.949385 
L 98.249422 263.949385 
L 98.249422 263.425137 
L 101.23446 263.425137 
L 101.23446 262.900889 
L 101.481783 262.900889 
L 101.481783 262.376641 
L 104.819059 262.376641 
L 104.819059 261.852394 
L 105.512642 261.852394 
L 105.512642 261.328146 
L 108.036969 261.328146 
L 108.036969 260.803898 
L 113.579218 260.803898 
L 113.579218 260.279651 
L 113.880253 260.279651 
L 113.880253 259.755403 
L 115.744887 259.755403 
L 115.744887 259.231155 
L 115.957752 259.231155 
L 115.957752 258.706907 
L 118.325541 258.706907 
L 118.325541 258.18266 
L 119.135627 258.18266 
L 119.135627 257.658412 
L 119.782703 257.658412 
L 119.782703 257.134164 
L 124.621395 257.134164 
L 124.621395 256.609917 
L 130.784069 256.609917 
L 130.784069 256.085669 
L 133.350594 256.085669 
L 133.350594 255.561421 
L 134.53905 255.561421 
L 134.53905 255.037173 
L 134.717542 255.037173 
L 134.717542 254.512926 
L 134.876616 254.512926 
L 134.876616 253.988678 
L 137.753459 253.988678 
L 137.753459 253.46443 
L 139.533182 253.46443 
L 139.533182 252.940182 
L 149.623006 252.940182 
L 149.623006 252.415935 
L 152.501323 252.415935 
L 152.501323 251.891687 
L 155.129314 251.891687 
L 155.129314 251.367439 
L 163.667563 251.367439 
L 163.667563 250.843192 
L 164.090709 250.843192 
L 164.090709 250.318944 
L 168.950963 250.318944 
L 168.950963 249.794696 
L 169.616443 249.794696 
L 169.616443 249.270448 
L 170.005984 249.270448 
L 170.005984 248.746201 
L 170.709299 248.746201 
L 170.709299 248.221953 
L 173.971386 248.221953 
L 173.971386 247.697705 
L 176.422647 247.697705 
L 176.422647 247.173458 
L 176.80896 247.173458 
L 176.80896 246.64921 
L 177.916946 246.64921 
L 177.916946 246.124962 
L 179.009186 246.124962 
L 179.009186 245.600714 
L 179.275723 245.600714 
L 179.275723 245.076467 
L 181.281783 245.076467 
L 181.281783 244.552219 
L 182.758654 244.552219 
L 182.758654 244.027971 
L 183.16831 244.027971 
L 183.16831 243.503724 
L 186.268577 243.503724 
L 186.268577 242.979476 
L 187.040258 242.979476 
L 187.086724 241.93098 
L 187.273011 241.93098 
L 187.273011 241.406733 
L 187.655152 241.406733 
L 187.655152 240.358237 
L 188.761522 240.358237 
L 188.761522 239.83399 
L 191.053204 239.83399 
L 191.053204 239.309742 
L 191.239079 239.309742 
L 191.239079 238.785494 
L 191.48644 238.785494 
L 191.48644 238.261246 
L 191.862438 238.261246 
L 191.862438 237.736999 
L 192.266003 237.736999 
L 192.266003 237.212751 
L 192.685304 237.212751 
L 192.685304 236.688503 
L 192.93146 236.688503 
L 192.93146 236.164255 
L 194.085618 236.164255 
L 194.085618 235.640008 
L 195.098449 235.640008 
L 195.180833 234.591512 
L 196.809216 234.591512 
L 196.809216 234.067265 
L 197.622092 234.067265 
L 197.713266 233.018769 
L 198.085221 233.018769 
L 198.085221 232.494521 
L 199.610982 232.494521 
L 199.610982 231.970274 
L 199.790405 231.970274 
L 199.790405 231.446026 
L 201.283325 231.446026 
L 201.300678 230.397531 
L 201.632887 230.397531 
L 201.632887 229.873283 
L 202.140035 229.873283 
L 202.140035 229.349035 
L 202.33572 229.349035 
L 202.344057 228.30054 
L 202.704894 228.30054 
L 202.793086 227.252044 
L 203.176176 227.252044 
L 203.176176 226.727797 
L 203.33525 226.727797 
L 203.352616 225.679301 
L 203.763264 225.679301 
L 203.763264 225.155053 
L 204.280768 225.155053 
L 204.280768 224.630806 
L 204.7735 224.630806 
L 204.848414 223.58231 
L 204.969567 223.58231 
L 204.969567 223.058063 
L 205.128312 223.058063 
L 205.129788 222.009567 
L 205.437118 222.009567 
L 205.535179 220.961072 
L 205.594784 220.961072 
L 205.594784 220.436824 
L 205.940247 220.436824 
L 205.940247 219.912576 
L 208.494317 219.912576 
L 208.494317 219.388328 
L 209.732225 219.388328 
L 209.732225 218.864081 
L 212.349555 218.864081 
L 212.349555 218.339833 
L 212.505627 218.339833 
L 212.505627 217.815585 
L 220.854746 217.815585 
L 220.91073 216.76709 
L 225.316632 216.76709 
L 225.316632 216.242842 
L 225.502152 216.242842 
L 225.502152 215.718594 
L 232.908088 215.718594 
L 232.908088 215.194347 
L 237.99104 215.194347 
L 237.99104 214.670099 
L 241.254914 214.670099 
L 241.254914 214.145851 
L 243.021119 214.145851 
L 243.021119 213.621604 
L 252.768196 213.621604 
L 252.861551 212.573108 
L 260.111288 212.573108 
L 260.111288 212.04886 
L 260.330455 212.04886 
L 260.330455 211.524613 
L 263.008139 211.524613 
L 263.048594 209.95187 
L 275.521671 209.95187 
L 275.522536 208.903374 
L 275.927618 208.903374 
L 275.927618 208.379126 
L 293.692268 208.379126 
L 293.692268 207.854879 
L 294.389263 207.854879 
L 294.389263 207.330631 
L 295.881168 207.330631 
L 295.881168 206.806383 
L 296.276335 206.806383 
L 296.276335 206.282136 
L 297.63207 206.282136 
L 297.63207 205.757888 
L 298.759211 205.757888 
L 298.759211 205.23364 
L 305.555203 205.23364 
L 305.654983 204.185145 
L 306.89708 204.185145 
L 306.897273 202.612401 
L 307.642613 202.612401 
L 307.642613 202.088154 
L 308.276855 202.088154 
L 308.276855 201.563906 
L 312.507565 201.563906 
L 312.507565 201.039658 
L 312.74409 201.039658 
L 312.74409 200.515411 
L 313.414546 200.515411 
L 313.416399 199.466915 
L 314.374603 199.466915 
L 314.374622 198.41842 
L 318.86352 198.41842 
L 318.86352 197.894172 
L 321.271648 197.894172 
L 321.271648 197.369924 
L 329.892969 197.369924 
L 329.892969 196.845677 
L 333.168 196.845677 
L 333.168 196.845677 
" style="fill:none;stroke:#000000;stroke-linecap:square;stroke-width:1.5;"/>
   </g>
   <g id="line2d_52">
    <defs>
     <path d="M 0 6 
C 1.591219 6 3.117479 5.367802 4.242641 4.242641 
C 5.367802 3.117479 6 1.591219 6 0 
C 6 -1.591219 5.367802 -3.117479 4.242641 -4.242641 
C 3.117479 -5.367802 1.591219 -6 0 -6 
C -1.591219 -6 -3.117479 -5.367802 -4.242641 -4.242641 
C -5.367802 -3.117479 -6 -1.591219 -6 0 
C -6 1.591219 -5.367802 3.117479 -4.242641 4.242641 
C -3.117479 5.367802 -1.591219 6 0 6 
z
" id="ma52bfaf530" style="stroke:#000000;stroke-width:1.5;"/>
    </defs>
    <g>
     <use style="fill-opacity:0;stroke:#000000;stroke-width:1.5;" x="108.036969" xlink:href="#ma52bfaf530" y="261.328146"/>
     <use style="fill-opacity:0;stroke:#000000;stroke-width:1.5;" x="183.16831" xlink:href="#ma52bfaf530" y="243.503724"/>
     <use style="fill-opacity:0;stroke:#000000;stroke-width:1.5;" x="243.021119" xlink:href="#ma52bfaf530" y="213.621604"/>
     <use style="fill-opacity:0;stroke:#000000;stroke-width:1.5;" x="308.276855" xlink:href="#ma52bfaf530" y="202.088154"/>
     <use style="fill-opacity:0;stroke:#000000;stroke-width:1.5;" x="329.892969" xlink:href="#ma52bfaf530" y="196.845677"/>
     <use style="fill-opacity:0;stroke:#000000;stroke-width:1.5;" x="333.168" xlink:href="#ma52bfaf530" y="196.845677"/>
    </g>
   </g>
   <g id="line2d_53">
    <path style="fill:none;stroke:#000000;stroke-linecap:square;stroke-width:1.5;"/>
    <g/>
   </g>
   <g id="line2d_54">
    <path clip-path="url(#p5f4a31c947)" d="M 293.5898 208.379126 
" style="fill:none;stroke:#000000;stroke-linecap:square;stroke-width:1.5;"/>
    <defs>
     <path d="M -12 12 
L 12 -12 
M -12 -12 
L 12 12 
" id="m28cda83828" style="stroke:#000000;"/>
    </defs>
    <g clip-path="url(#p5f4a31c947)">
     <use style="stroke:#000000;" x="293.5898" xlink:href="#m28cda83828" y="208.379126"/>
    </g>
   </g>
   <g id="line2d_55">
    <defs>
     <path d="M 0 1.5 
C 0.397805 1.5 0.77937 1.341951 1.06066 1.06066 
C 1.341951 0.77937 1.5 0.397805 1.5 0 
C 1.5 -0.397805 1.341951 -0.77937 1.06066 -1.06066 
C 0.77937 -1.341951 0.397805 -1.5 0 -1.5 
C -0.397805 -1.5 -0.77937 -1.341951 -1.06066 -1.06066 
C -1.341951 -0.77937 -1.5 -0.397805 -1.5 0 
C -1.5 0.397805 -1.341951 0.77937 -1.06066 1.06066 
C -0.77937 1.341951 -0.397805 1.5 0 1.5 
z
" id="m40794a3fc5" style="stroke:#ff0000;"/>
    </defs>
    <g>
     <use style="fill:#ff0000;stroke:#ff0000;" x="348.266294" xlink:href="#m40794a3fc5" y="211.000365"/>
     <use style="fill:#ff0000;stroke:#ff0000;" x="348.266294" xlink:href="#m40794a3fc5" y="211.000365"/>
    </g>
   </g>
   <g id="line2d_56">
    <path d="M 4.627463 294.88 
L 4.627463 287.540532 
L 16.541714 287.540532 
L 16.541714 285.443541 
L 23.511104 285.443541 
L 23.511104 282.822302 
L 28.455965 282.822302 
L 28.455965 281.249559 
L 32.291498 281.249559 
L 32.291498 280.725312 
L 38.074995 280.725312 
L 38.074995 280.201064 
L 40.370217 280.201064 
L 40.370217 279.676816 
L 42.394746 279.676816 
L 42.394746 278.628321 
L 45.844 278.628321 
L 45.844 278.104073 
L 48.715431 278.104073 
L 48.715431 277.579825 
L 51.175139 277.579825 
L 51.175139 277.055578 
L 62.506669 277.055578 
L 62.506669 276.53133 
L 63.08939 276.53133 
L 63.08939 276.007082 
L 77.653281 276.007082 
L 77.653281 275.482834 
L 80.372935 275.482834 
L 80.372935 274.958587 
L 80.581284 274.958587 
L 80.581284 274.434339 
L 80.990557 274.434339 
L 80.990557 273.910091 
L 81.780978 273.910091 
L 81.780978 273.385844 
L 81.973032 273.385844 
L 81.973032 272.861596 
L 82.162963 272.861596 
L 82.162963 272.337348 
L 82.350819 272.337348 
L 82.350819 271.8131 
L 83.260482 271.8131 
L 83.260482 271.288853 
L 83.436778 271.288853 
L 83.436778 270.764605 
L 83.784035 270.764605 
L 83.784035 269.716109 
L 89.931969 269.716109 
L 89.931969 269.191862 
L 91.093805 269.191862 
L 91.093805 268.667614 
L 91.862754 268.667614 
L 91.862754 267.619119 
L 93.105847 267.619119 
L 93.105847 267.094871 
L 93.403064 267.094871 
L 93.403064 266.570623 
L 94.725919 266.570623 
L 94.725919 266.046375 
L 95.612127 266.046375 
L 95.612127 265.522128 
L 96.861245 265.522128 
L 96.861245 264.99788 
L 97.258229 264.99788 
L 97.258229 264.473632 
L 98.396965 264.473632 
L 98.396965 263.949385 
L 100.273952 263.949385 
L 100.273952 263.425137 
L 111.989488 263.425137 
L 111.989488 262.900889 
L 114.117341 262.900889 
L 114.117341 262.376641 
L 115.82502 262.376641 
L 115.82502 261.852394 
L 117.811013 261.852394 
L 117.811013 261.328146 
L 120.64954 261.328146 
L 120.64954 260.803898 
L 121.12593 260.803898 
L 121.12593 260.279651 
L 122.243822 260.279651 
L 122.243822 259.755403 
L 126.948537 259.755403 
L 126.948537 259.231155 
L 127.685891 259.231155 
L 127.685891 258.706907 
L 131.279136 258.706907 
L 131.279136 258.18266 
L 153.275535 258.18266 
L 153.275535 257.658412 
L 159.224975 257.658412 
L 159.224975 257.134164 
L 171.834413 257.134164 
L 171.834413 256.609917 
L 172.845039 256.609917 
L 172.845039 256.085669 
L 175.066686 256.085669 
L 175.066686 255.561421 
L 176.502482 255.561421 
L 176.502482 255.037173 
L 181.083735 255.037173 
L 181.083735 254.512926 
L 181.237377 254.512926 
L 181.237377 253.988678 
L 184.53076 253.988678 
L 184.53076 253.46443 
L 185.462472 253.46443 
L 185.462472 252.940182 
L 185.771713 252.940182 
L 185.771713 252.415935 
L 187.389875 252.415935 
L 187.389875 251.891687 
L 188.232241 251.891687 
L 188.232241 251.367439 
L 190.284023 251.367439 
L 190.284023 250.843192 
L 191.533729 250.843192 
L 191.533729 250.318944 
L 193.685993 250.318944 
L 193.685993 249.794696 
L 198.089225 249.794696 
L 198.089225 249.270448 
L 198.535115 249.270448 
L 198.578404 248.221953 
L 199.519335 248.221953 
L 199.519335 247.697705 
L 199.718132 247.697705 
L 199.718132 247.173458 
L 200.279369 247.173458 
L 200.296982 246.124962 
L 200.956464 246.124962 
L 200.956464 245.600714 
L 202.386893 245.600714 
L 202.386893 245.076467 
L 203.492216 245.076467 
L 203.492216 244.552219 
L 204.048355 244.552219 
L 204.105813 243.503724 
L 204.606102 243.503724 
L 204.606102 242.979476 
L 205.399073 242.979476 
L 205.399073 242.455228 
L 206.448634 242.455228 
L 206.448634 241.93098 
L 206.760601 241.93098 
L 206.843531 240.882485 
L 206.951051 240.882485 
L 206.951051 240.358237 
L 207.350797 240.358237 
L 207.350797 239.83399 
L 207.663522 239.83399 
L 207.663522 239.309742 
L 207.804006 239.309742 
L 207.804006 238.785494 
L 207.952376 238.785494 
L 207.952376 238.261246 
L 208.37015 238.261246 
L 208.37015 237.736999 
L 208.511185 237.736999 
L 208.511185 237.212751 
L 208.983031 237.212751 
L 209.016277 235.640008 
L 209.405347 235.640008 
L 209.405347 235.11576 
L 210.326591 235.11576 
L 210.326591 234.591512 
L 210.557062 234.591512 
L 210.605881 233.543017 
L 210.888735 233.543017 
L 210.888735 233.018769 
L 211.830508 233.018769 
L 211.830508 232.494521 
L 211.960506 232.494521 
L 211.986586 231.446026 
L 212.085687 231.446026 
L 212.085687 230.921778 
L 212.342277 230.921778 
L 212.342277 230.397531 
L 213.102194 230.397531 
L 213.207917 229.349035 
L 213.391427 229.349035 
L 213.391427 228.824787 
L 213.79304 228.824787 
L 213.79304 228.30054 
L 214.822323 228.30054 
L 214.822323 227.776292 
L 215.806217 227.776292 
L 215.806217 227.252044 
L 217.171076 227.252044 
L 217.171076 226.727797 
L 217.567574 226.727797 
L 217.567574 226.203549 
L 218.478398 226.203549 
L 218.52188 225.155053 
L 219.992158 225.155053 
L 219.992158 224.630806 
L 221.115157 224.630806 
L 221.115157 224.106558 
L 222.168606 224.106558 
L 222.168606 223.58231 
L 225.044698 223.58231 
L 225.044698 223.058063 
L 236.188193 223.058063 
L 236.188193 222.533815 
L 243.21571 222.533815 
L 243.21571 222.009567 
L 247.474107 222.009567 
L 247.474107 221.485319 
L 262.210038 221.485319 
L 262.210038 220.961072 
L 293.665128 220.961072 
L 293.76877 219.388328 
L 293.806007 219.388328 
L 293.841564 217.815585 
L 294.18863 217.815585 
L 294.18863 217.291338 
L 306.095551 217.291338 
L 306.095551 216.76709 
L 312.869981 216.76709 
L 312.869981 216.242842 
L 317.716554 216.242842 
L 317.716554 215.718594 
L 321.487314 215.718594 
L 321.492895 214.670099 
L 324.843174 214.670099 
L 324.843174 214.145851 
L 327.208404 214.145851 
L 327.208404 213.621604 
L 331.490276 213.621604 
L 331.490276 213.097356 
L 333.168 213.097356 
L 333.168 213.097356 
" style="fill:none;stroke:#ff0000;stroke-linecap:square;stroke-width:1.5;"/>
   </g>
   <g id="line2d_57">
    <defs>
     <path d="M -6 6 
L 6 6 
L 6 -6 
L -6 -6 
z
" id="m6ffcc49eb8" style="stroke:#ff0000;stroke-linejoin:miter;stroke-width:1.5;"/>
    </defs>
    <g>
     <use style="fill-opacity:0;stroke:#ff0000;stroke-linejoin:miter;stroke-width:1.5;" x="63.08939" xlink:href="#m6ffcc49eb8" y="276.53133"/>
     <use style="fill-opacity:0;stroke:#ff0000;stroke-linejoin:miter;stroke-width:1.5;" x="131.279136" xlink:href="#m6ffcc49eb8" y="258.18266"/>
     <use style="fill-opacity:0;stroke:#ff0000;stroke-linejoin:miter;stroke-width:1.5;" x="193.685993" xlink:href="#m6ffcc49eb8" y="249.794696"/>
     <use style="fill-opacity:0;stroke:#ff0000;stroke-linejoin:miter;stroke-width:1.5;" x="262.210038" xlink:href="#m6ffcc49eb8" y="221.485319"/>
     <use style="fill-opacity:0;stroke:#ff0000;stroke-linejoin:miter;stroke-width:1.5;" x="331.490276" xlink:href="#m6ffcc49eb8" y="213.097356"/>
     <use style="fill-opacity:0;stroke:#ff0000;stroke-linejoin:miter;stroke-width:1.5;" x="333.168" xlink:href="#m6ffcc49eb8" y="213.097356"/>
    </g>
   </g>
   <g id="line2d_58">
    <path style="fill:none;stroke:#ff0000;stroke-linecap:square;stroke-width:1.5;"/>
    <g/>
   </g>
   <g id="line2d_59">
    <path clip-path="url(#p5f4a31c947)" d="M 293.589806 220.961072 
" style="fill:none;stroke:#ff0000;stroke-linecap:square;stroke-width:1.5;"/>
    <defs>
     <path d="M -12 12 
L 12 -12 
M -12 -12 
L 12 12 
" id="m973677e464" style="stroke:#ff0000;"/>
    </defs>
    <g clip-path="url(#p5f4a31c947)">
     <use style="fill:#ff0000;stroke:#ff0000;" x="293.589806" xlink:href="#m973677e464" y="220.961072"/>
    </g>
   </g>
   <g id="line2d_60">
    <path d="M 333.168 213.097356 
L 363.64328 289.532673 
" style="fill:none;stroke:#ff0000;stroke-linecap:square;stroke-width:1.5;"/>
    <g>
     <use style="fill-opacity:0;stroke:#ff0000;stroke-linejoin:miter;stroke-width:1.5;" x="333.168" xlink:href="#m6ffcc49eb8" y="213.097356"/>
     <use style="fill-opacity:0;stroke:#ff0000;stroke-linejoin:miter;stroke-width:1.5;" x="363.64328" xlink:href="#m6ffcc49eb8" y="289.532673"/>
    </g>
   </g>
   <g id="line2d_61">
    <path d="M 333.168 196.845677 
L 363.64328 225.364752 
" style="fill:none;stroke:#000000;stroke-linecap:square;stroke-width:1.5;"/>
    <g>
     <use style="fill-opacity:0;stroke:#000000;stroke-width:1.5;" x="333.168" xlink:href="#ma52bfaf530" y="196.845677"/>
     <use style="fill-opacity:0;stroke:#000000;stroke-width:1.5;" x="363.64328" xlink:href="#ma52bfaf530" y="225.364752"/>
    </g>
   </g>
   <g id="line2d_62">
    <path d="M 333.168 27.513663 
L 363.64328 161.196832 
" style="fill:none;stroke:#0000ff;stroke-linecap:square;stroke-width:1.5;"/>
    <g>
     <use style="fill-opacity:0;stroke:#0000ff;stroke-linejoin:bevel;stroke-width:1.5;" x="333.168" xlink:href="#m1046ad0106" y="27.513663"/>
     <use style="fill-opacity:0;stroke:#0000ff;stroke-linejoin:bevel;stroke-width:1.5;" x="363.64328" xlink:href="#m1046ad0106" y="161.196832"/>
    </g>
   </g>
   <g id="line2d_63">
    <path d="M 333.168 27.513663 
L 363.64328 97.028911 
" style="fill:none;stroke:#008000;stroke-linecap:square;stroke-width:1.5;"/>
    <g>
     <use style="fill-opacity:0;stroke:#008000;stroke-linejoin:miter;stroke-width:1.5;" x="333.168" xlink:href="#m118214ac3d" y="27.513663"/>
     <use style="fill-opacity:0;stroke:#008000;stroke-linejoin:miter;stroke-width:1.5;" x="363.64328" xlink:href="#m118214ac3d" y="97.028911"/>
    </g>
   </g>
   <g id="line2d_64">
    <path d="M 333.168 27.513663 
L 363.64328 32.86099 
" style="fill:none;stroke:#00bfbf;stroke-linecap:square;stroke-width:1.5;"/>
    <g>
     <use style="fill-opacity:0;stroke:#00bfbf;stroke-width:1.5;" x="333.168" xlink:href="#m86892d56e4" y="27.513663"/>
     <use style="fill-opacity:0;stroke:#00bfbf;stroke-width:1.5;" x="363.64328" xlink:href="#m86892d56e4" y="32.86099"/>
    </g>
   </g>
   <g id="line2d_65">
    <path d="M 333.168 294.88 
L 333.168 27.513663 
" style="fill:none;stroke:#000000;stroke-linecap:square;stroke-width:1.5;"/>
   </g>
   <g id="patch_3">
    <path d="M 56.12 294.88 
L 56.12 24.84 
" style="fill:none;stroke:#000000;stroke-linecap:square;stroke-linejoin:miter;stroke-width:0.8;"/>
   </g>
   <g id="patch_4">
    <path d="M 333.168 294.88 
L 333.168 24.84 
" style="fill:none;stroke:#000000;stroke-linecap:square;stroke-linejoin:miter;stroke-width:0.8;"/>
   </g>
   <g id="patch_5">
    <path d="M 56.12 294.88 
L 333.168 294.88 
" style="fill:none;stroke:#000000;stroke-linecap:square;stroke-linejoin:miter;stroke-width:0.8;"/>
   </g>
   <g id="patch_6">
    <path d="M 56.12 24.84 
L 333.168 24.84 
" style="fill:none;stroke:#000000;stroke-linecap:square;stroke-linejoin:miter;stroke-width:0.8;"/>
   </g>
   <g id="text_13">
    <!-- 20-D -->
    <defs>
     <path d="M 19.671875 64.796875 
L 19.671875 8.109375 
L 31.59375 8.109375 
Q 46.6875 8.109375 53.6875 14.9375 
Q 60.6875 21.78125 60.6875 36.53125 
Q 60.6875 51.171875 53.6875 57.984375 
Q 46.6875 64.796875 31.59375 64.796875 
z
M 9.8125 72.90625 
L 30.078125 72.90625 
Q 51.265625 72.90625 61.171875 64.09375 
Q 71.09375 55.28125 71.09375 36.53125 
Q 71.09375 17.671875 61.125 8.828125 
Q 51.171875 0 30.078125 0 
L 9.8125 0 
z
" id="DejaVuSans-44"/>
    </defs>
    <g transform="translate(369.18424 294.223611)scale(0.17 -0.17)">
     <use xlink:href="#DejaVuSans-32"/>
     <use x="63.623047" xlink:href="#DejaVuSans-30"/>
     <use x="127.246094" xlink:href="#DejaVuSans-2d"/>
     <use x="163.330078" xlink:href="#DejaVuSans-44"/>
    </g>
   </g>
   <g id="text_14">
    <!-- 10-D -->
    <g transform="translate(369.18424 230.05569)scale(0.17 -0.17)">
     <use xlink:href="#DejaVuSans-31"/>
     <use x="63.623047" xlink:href="#DejaVuSans-30"/>
     <use x="127.246094" xlink:href="#DejaVuSans-2d"/>
     <use x="163.330078" xlink:href="#DejaVuSans-44"/>
    </g>
   </g>
   <g id="text_15">
    <!-- 5-D -->
    <defs>
     <path d="M 10.796875 72.90625 
L 49.515625 72.90625 
L 49.515625 64.59375 
L 19.828125 64.59375 
L 19.828125 46.734375 
Q 21.96875 47.46875 24.109375 47.828125 
Q 26.265625 48.1875 28.421875 48.1875 
Q 40.625 48.1875 47.75 41.5 
Q 54.890625 34.8125 54.890625 23.390625 
Q 54.890625 11.625 47.5625 5.09375 
Q 40.234375 -1.421875 26.90625 -1.421875 
Q 22.3125 -1.421875 17.546875 -0.640625 
Q 12.796875 0.140625 7.71875 1.703125 
L 7.71875 11.625 
Q 12.109375 9.234375 16.796875 8.0625 
Q 21.484375 6.890625 26.703125 6.890625 
Q 35.15625 6.890625 40.078125 11.328125 
Q 45.015625 15.765625 45.015625 23.390625 
Q 45.015625 31 40.078125 35.4375 
Q 35.15625 39.890625 26.703125 39.890625 
Q 22.75 39.890625 18.8125 39.015625 
Q 14.890625 38.140625 10.796875 36.28125 
z
" id="DejaVuSans-35"/>
    </defs>
    <g transform="translate(369.18424 165.887769)scale(0.17 -0.17)">
     <use xlink:href="#DejaVuSans-35"/>
     <use x="63.623047" xlink:href="#DejaVuSans-2d"/>
     <use x="99.707031" xlink:href="#DejaVuSans-44"/>
    </g>
   </g>
   <g id="text_16">
    <!-- 3-D -->
    <defs>
     <path d="M 40.578125 39.3125 
Q 47.65625 37.796875 51.625 33 
Q 55.609375 28.21875 55.609375 21.1875 
Q 55.609375 10.40625 48.1875 4.484375 
Q 40.765625 -1.421875 27.09375 -1.421875 
Q 22.515625 -1.421875 17.65625 -0.515625 
Q 12.796875 0.390625 7.625 2.203125 
L 7.625 11.71875 
Q 11.71875 9.328125 16.59375 8.109375 
Q 21.484375 6.890625 26.8125 6.890625 
Q 36.078125 6.890625 40.9375 10.546875 
Q 45.796875 14.203125 45.796875 21.1875 
Q 45.796875 27.640625 41.28125 31.265625 
Q 36.765625 34.90625 28.71875 34.90625 
L 20.21875 34.90625 
L 20.21875 43.015625 
L 29.109375 43.015625 
Q 36.375 43.015625 40.234375 45.921875 
Q 44.09375 48.828125 44.09375 54.296875 
Q 44.09375 59.90625 40.109375 62.90625 
Q 36.140625 65.921875 28.71875 65.921875 
Q 24.65625 65.921875 20.015625 65.03125 
Q 15.375 64.15625 9.8125 62.3125 
L 9.8125 71.09375 
Q 15.4375 72.65625 20.34375 73.4375 
Q 25.25 74.21875 29.59375 74.21875 
Q 40.828125 74.21875 47.359375 69.109375 
Q 53.90625 64.015625 53.90625 55.328125 
Q 53.90625 49.265625 50.4375 45.09375 
Q 46.96875 40.921875 40.578125 39.3125 
z
" id="DejaVuSans-33"/>
    </defs>
    <g transform="translate(369.18424 101.719848)scale(0.17 -0.17)">
     <use xlink:href="#DejaVuSans-33"/>
     <use x="63.623047" xlink:href="#DejaVuSans-2d"/>
     <use x="99.707031" xlink:href="#DejaVuSans-44"/>
    </g>
   </g>
   <g id="text_17">
    <!-- 2-D -->
    <g transform="translate(369.18424 37.551928)scale(0.17 -0.17)">
     <use xlink:href="#DejaVuSans-32"/>
     <use x="63.623047" xlink:href="#DejaVuSans-2d"/>
     <use x="99.707031" xlink:href="#DejaVuSans-44"/>
    </g>
   </g>
   <g id="text_18">
    <!-- bbob f19 -->
    <defs>
     <path d="M 48.6875 27.296875 
Q 48.6875 37.203125 44.609375 42.84375 
Q 40.53125 48.484375 33.40625 48.484375 
Q 26.265625 48.484375 22.1875 42.84375 
Q 18.109375 37.203125 18.109375 27.296875 
Q 18.109375 17.390625 22.1875 11.75 
Q 26.265625 6.109375 33.40625 6.109375 
Q 40.53125 6.109375 44.609375 11.75 
Q 48.6875 17.390625 48.6875 27.296875 
z
M 18.109375 46.390625 
Q 20.953125 51.265625 25.265625 53.625 
Q 29.59375 56 35.59375 56 
Q 45.5625 56 51.78125 48.09375 
Q 58.015625 40.1875 58.015625 27.296875 
Q 58.015625 14.40625 51.78125 6.484375 
Q 45.5625 -1.421875 35.59375 -1.421875 
Q 29.59375 -1.421875 25.265625 0.953125 
Q 20.953125 3.328125 18.109375 8.203125 
L 18.109375 0 
L 9.078125 0 
L 9.078125 75.984375 
L 18.109375 75.984375 
z
" id="DejaVuSans-62"/>
     <path d="M 10.984375 1.515625 
L 10.984375 10.5 
Q 14.703125 8.734375 18.5 7.8125 
Q 22.3125 6.890625 25.984375 6.890625 
Q 35.75 6.890625 40.890625 13.453125 
Q 46.046875 20.015625 46.78125 33.40625 
Q 43.953125 29.203125 39.59375 26.953125 
Q 35.25 24.703125 29.984375 24.703125 
Q 19.046875 24.703125 12.671875 31.3125 
Q 6.296875 37.9375 6.296875 49.421875 
Q 6.296875 60.640625 12.9375 67.421875 
Q 19.578125 74.21875 30.609375 74.21875 
Q 43.265625 74.21875 49.921875 64.515625 
Q 56.59375 54.828125 56.59375 36.375 
Q 56.59375 19.140625 48.40625 8.859375 
Q 40.234375 -1.421875 26.421875 -1.421875 
Q 22.703125 -1.421875 18.890625 -0.6875 
Q 15.09375 0.046875 10.984375 1.515625 
z
M 30.609375 32.421875 
Q 37.25 32.421875 41.125 36.953125 
Q 45.015625 41.5 45.015625 49.421875 
Q 45.015625 57.28125 41.125 61.84375 
Q 37.25 66.40625 30.609375 66.40625 
Q 23.96875 66.40625 20.09375 61.84375 
Q 16.21875 57.28125 16.21875 49.421875 
Q 16.21875 41.5 20.09375 36.953125 
Q 23.96875 32.421875 30.609375 32.421875 
z
" id="DejaVuSans-39"/>
    </defs>
    <g transform="translate(58.89048 35.290806)scale(0.102 -0.102)">
     <use xlink:href="#DejaVuSans-62"/>
     <use x="63.476562" xlink:href="#DejaVuSans-62"/>
     <use x="126.953125" xlink:href="#DejaVuSans-6f"/>
     <use x="188.134766" xlink:href="#DejaVuSans-62"/>
     <use x="251.611328" xlink:href="#DejaVuSans-20"/>
     <use x="283.398438" xlink:href="#DejaVuSans-66"/>
     <use x="318.603516" xlink:href="#DejaVuSans-31"/>
     <use x="382.226562" xlink:href="#DejaVuSans-39"/>
    </g>
    <!-- 51 targets: 100..1e-08 -->
    <defs>
     <path d="M 11.71875 12.40625 
L 22.015625 12.40625 
L 22.015625 0 
L 11.71875 0 
z
M 11.71875 51.703125 
L 22.015625 51.703125 
L 22.015625 39.3125 
L 11.71875 39.3125 
z
" id="DejaVuSans-3a"/>
    </defs>
    <g transform="translate(58.89048 46.712575)scale(0.102 -0.102)">
     <use xlink:href="#DejaVuSans-35"/>
     <use x="63.623047" xlink:href="#DejaVuSans-31"/>
     <use x="127.246094" xlink:href="#DejaVuSans-20"/>
     <use x="159.033203" xlink:href="#DejaVuSans-74"/>
     <use x="198.242188" xlink:href="#DejaVuSans-61"/>
     <use x="259.521484" xlink:href="#DejaVuSans-72"/>
     <use x="300.619141" xlink:href="#DejaVuSans-67"/>
     <use x="364.095703" xlink:href="#DejaVuSans-65"/>
     <use x="425.619141" xlink:href="#DejaVuSans-74"/>
     <use x="464.828125" xlink:href="#DejaVuSans-73"/>
     <use x="516.927734" xlink:href="#DejaVuSans-3a"/>
     <use x="550.619141" xlink:href="#DejaVuSans-20"/>
     <use x="582.40625" xlink:href="#DejaVuSans-31"/>
     <use x="646.029297" xlink:href="#DejaVuSans-30"/>
     <use x="709.652344" xlink:href="#DejaVuSans-30"/>
     <use x="773.275391" xlink:href="#DejaVuSans-2e"/>
     <use x="805.0625" xlink:href="#DejaVuSans-2e"/>
     <use x="836.849609" xlink:href="#DejaVuSans-31"/>
     <use x="900.472656" xlink:href="#DejaVuSans-65"/>
     <use x="961.996094" xlink:href="#DejaVuSans-2d"/>
     <use x="998.080078" xlink:href="#DejaVuSans-30"/>
     <use x="1061.703125" xlink:href="#DejaVuSans-38"/>
    </g>
    <!-- 15 instances -->
    <g transform="translate(58.89048 58.134344)scale(0.102 -0.102)">
     <use xlink:href="#DejaVuSans-31"/>
     <use x="63.623047" xlink:href="#DejaVuSans-35"/>
     <use x="127.246094" xlink:href="#DejaVuSans-20"/>
     <use x="159.033203" xlink:href="#DejaVuSans-69"/>
     <use x="186.816406" xlink:href="#DejaVuSans-6e"/>
     <use x="250.195312" xlink:href="#DejaVuSans-73"/>
     <use x="302.294922" xlink:href="#DejaVuSans-74"/>
     <use x="341.503906" xlink:href="#DejaVuSans-61"/>
     <use x="402.783203" xlink:href="#DejaVuSans-6e"/>
     <use x="466.162109" xlink:href="#DejaVuSans-63"/>
     <use x="521.142578" xlink:href="#DejaVuSans-65"/>
     <use x="582.666016" xlink:href="#DejaVuSans-73"/>
    </g>
   </g>
   <g id="text_19">
    <!-- v2.4 -->
    <g style="fill:#808080;" transform="translate(183.733063 290.099912)scale(0.1 -0.1)">
     <use xlink:href="#DejaVuSans-76"/>
     <use x="59.179688" xlink:href="#DejaVuSans-32"/>
     <use x="122.802734" xlink:href="#DejaVuSans-2e"/>
     <use x="154.589844" xlink:href="#DejaVuSans-34"/>
    </g>
   </g>
   <g id="text_20">
    <!-- 19 Griewank-Rosenbrock F8F2 -->
    <defs>
     <path d="M 59.515625 10.40625 
L 59.515625 29.984375 
L 43.40625 29.984375 
L 43.40625 38.09375 
L 69.28125 38.09375 
L 69.28125 6.78125 
Q 63.578125 2.734375 56.6875 0.65625 
Q 49.8125 -1.421875 42 -1.421875 
Q 24.90625 -1.421875 15.25 8.5625 
Q 5.609375 18.5625 5.609375 36.375 
Q 5.609375 54.25 15.25 64.234375 
Q 24.90625 74.21875 42 74.21875 
Q 49.125 74.21875 55.546875 72.453125 
Q 61.96875 70.703125 67.390625 67.28125 
L 67.390625 56.78125 
Q 61.921875 61.421875 55.765625 63.765625 
Q 49.609375 66.109375 42.828125 66.109375 
Q 29.4375 66.109375 22.71875 58.640625 
Q 16.015625 51.171875 16.015625 36.375 
Q 16.015625 21.625 22.71875 14.15625 
Q 29.4375 6.6875 42.828125 6.6875 
Q 48.046875 6.6875 52.140625 7.59375 
Q 56.25 8.5 59.515625 10.40625 
z
" id="DejaVuSans-47"/>
     <path d="M 4.203125 54.6875 
L 13.1875 54.6875 
L 24.421875 12.015625 
L 35.59375 54.6875 
L 46.1875 54.6875 
L 57.421875 12.015625 
L 68.609375 54.6875 
L 77.59375 54.6875 
L 63.28125 0 
L 52.6875 0 
L 40.921875 44.828125 
L 29.109375 0 
L 18.5 0 
z
" id="DejaVuSans-77"/>
     <path d="M 9.078125 75.984375 
L 18.109375 75.984375 
L 18.109375 31.109375 
L 44.921875 54.6875 
L 56.390625 54.6875 
L 27.390625 29.109375 
L 57.625 0 
L 45.90625 0 
L 18.109375 26.703125 
L 18.109375 0 
L 9.078125 0 
z
" id="DejaVuSans-6b"/>
     <path d="M 44.390625 34.1875 
Q 47.5625 33.109375 50.5625 29.59375 
Q 53.5625 26.078125 56.59375 19.921875 
L 66.609375 0 
L 56 0 
L 46.6875 18.703125 
Q 43.0625 26.03125 39.671875 28.421875 
Q 36.28125 30.8125 30.421875 30.8125 
L 19.671875 30.8125 
L 19.671875 0 
L 9.8125 0 
L 9.8125 72.90625 
L 32.078125 72.90625 
Q 44.578125 72.90625 50.734375 67.671875 
Q 56.890625 62.453125 56.890625 51.90625 
Q 56.890625 45.015625 53.6875 40.46875 
Q 50.484375 35.9375 44.390625 34.1875 
z
M 19.671875 64.796875 
L 19.671875 38.921875 
L 32.078125 38.921875 
Q 39.203125 38.921875 42.84375 42.21875 
Q 46.484375 45.515625 46.484375 51.90625 
Q 46.484375 58.296875 42.84375 61.546875 
Q 39.203125 64.796875 32.078125 64.796875 
z
" id="DejaVuSans-52"/>
    </defs>
    <g transform="translate(41.876812 18.84)scale(0.2 -0.2)">
     <use xlink:href="#DejaVuSans-31"/>
     <use x="63.623047" xlink:href="#DejaVuSans-39"/>
     <use x="127.246094" xlink:href="#DejaVuSans-20"/>
     <use x="159.033203" xlink:href="#DejaVuSans-47"/>
     <use x="236.523438" xlink:href="#DejaVuSans-72"/>
     <use x="277.636719" xlink:href="#DejaVuSans-69"/>
     <use x="305.419922" xlink:href="#DejaVuSans-65"/>
     <use x="366.943359" xlink:href="#DejaVuSans-77"/>
     <use x="448.730469" xlink:href="#DejaVuSans-61"/>
     <use x="510.009766" xlink:href="#DejaVuSans-6e"/>
     <use x="573.388672" xlink:href="#DejaVuSans-6b"/>
     <use x="631.298828" xlink:href="#DejaVuSans-2d"/>
     <use x="667.382812" xlink:href="#DejaVuSans-52"/>
     <use x="736.802734" xlink:href="#DejaVuSans-6f"/>
     <use x="797.984375" xlink:href="#DejaVuSans-73"/>
     <use x="850.083984" xlink:href="#DejaVuSans-65"/>
     <use x="911.607422" xlink:href="#DejaVuSans-6e"/>
     <use x="974.986328" xlink:href="#DejaVuSans-62"/>
     <use x="1038.462891" xlink:href="#DejaVuSans-72"/>
     <use x="1079.544922" xlink:href="#DejaVuSans-6f"/>
     <use x="1140.726562" xlink:href="#DejaVuSans-63"/>
     <use x="1195.707031" xlink:href="#DejaVuSans-6b"/>
     <use x="1253.617188" xlink:href="#DejaVuSans-20"/>
     <use x="1285.404297" xlink:href="#DejaVuSans-46"/>
     <use x="1342.923828" xlink:href="#DejaVuSans-38"/>
     <use x="1406.546875" xlink:href="#DejaVuSans-46"/>
     <use x="1464.066406" xlink:href="#DejaVuSans-32"/>
    </g>
   </g>
  </g>
 </g>
 <defs>
  <clipPath id="p5f4a31c947">
   <rect height="270.04" width="277.048" x="56.12" y="24.84"/>
  </clipPath>
 </defs>
</svg>
