<?xml version="1.0" encoding="utf-8" standalone="no"?>
<!DOCTYPE svg PUBLIC "-//W3C//DTD SVG 1.1//EN"
  "http://www.w3.org/Graphics/SVG/1.1/DTD/svg11.dtd">
<!-- Created with matplotlib (http://matplotlib.org/) -->
<svg height="345.6pt" version="1.1" viewBox="0 0 460.8 345.6" width="460.8pt" xmlns="http://www.w3.org/2000/svg" xmlns:xlink="http://www.w3.org/1999/xlink">
 <defs>
  <style type="text/css">
*{stroke-linecap:butt;stroke-linejoin:round;}
  </style>
 </defs>
 <g id="figure_1">
  <g id="patch_1">
   <path d="M 0 345.6 
L 460.8 345.6 
L 460.8 0 
L 0 0 
z
" style="fill:#ffffff;"/>
  </g>
  <g id="axes_1">
   <g id="patch_2">
    <path d="M 56.12 294.88 
L 333.168 294.88 
L 333.168 24.84 
L 56.12 24.84 
z
" style="fill:#ffffff;"/>
   </g>
   <g id="line2d_1">
    <path d="M 37.236359 294.88 
L 37.236359 268.667614 
L 56.12 268.667614 
L 56.12 263.425137 
L 84.893363 263.425137 
L 84.893363 258.18266 
L 102.281398 258.18266 
L 102.281398 252.940182 
L 112.341186 252.940182 
L 112.341186 247.697705 
L 128.13443 247.697705 
L 128.13443 242.455228 
L 140.519632 242.455228 
L 140.519632 237.212751 
L 148.326988 237.212751 
L 148.326988 231.970274 
L 149.593139 231.970274 
L 149.593139 226.727797 
L 152.027918 226.727797 
L 152.027918 221.485319 
L 152.933346 221.485319 
L 152.933346 216.242842 
L 154.274423 216.242842 
L 154.274423 211.000365 
L 155.05333 211.000365 
L 155.05333 205.757888 
L 155.500742 205.757888 
L 155.500742 200.515411 
L 157.765022 200.515411 
L 157.765022 195.272933 
L 158.132707 195.272933 
L 158.132707 190.030456 
L 159.3186 190.030456 
L 159.3186 184.787979 
L 159.417345 184.787979 
L 159.417345 179.545502 
L 161.332122 179.545502 
L 161.332122 174.303025 
L 161.41998 174.303025 
L 161.41998 169.060547 
L 169.593892 169.060547 
L 169.593892 163.81807 
L 169.632754 163.81807 
L 169.632754 158.575593 
L 169.694751 158.575593 
L 169.694751 153.333116 
L 169.779633 153.333116 
L 169.779633 148.090639 
L 169.856437 148.090639 
L 169.856437 142.848162 
L 169.894711 142.848162 
L 169.894711 137.605684 
L 169.932899 137.605684 
L 169.932899 132.363207 
L 169.978614 132.363207 
L 169.978614 127.12073 
L 170.046958 127.12073 
L 170.046958 121.878253 
L 170.069679 121.878253 
L 170.069679 116.635776 
L 170.190355 116.635776 
L 170.190355 111.393298 
L 170.23539 111.393298 
L 170.23539 106.150821 
L 170.280309 106.150821 
L 170.280309 100.908344 
L 170.317651 100.908344 
L 170.317651 95.665867 
L 170.436604 95.665867 
L 170.436604 90.42339 
L 170.495773 90.42339 
L 170.495773 85.180912 
L 170.547379 85.180912 
L 170.547379 79.938435 
L 170.584146 79.938435 
L 170.584146 74.695958 
L 170.620835 74.695958 
L 170.620835 69.453481 
L 170.868263 69.453481 
L 170.868263 64.211004 
L 170.940363 64.211004 
L 170.940363 58.968526 
L 170.969118 58.968526 
L 170.969118 53.726049 
L 171.012162 53.726049 
L 171.012162 48.483572 
L 171.055097 48.483572 
L 171.055097 43.241095 
L 171.097926 43.241095 
L 171.097926 37.998618 
L 171.147759 37.998618 
L 171.147759 32.756141 
L 171.204534 32.756141 
L 171.204534 27.513663 
L 333.168 27.513663 
" style="fill:none;stroke:#f5deb3;stroke-linecap:square;stroke-width:4;"/>
   </g>
   <g id="line2d_2">
    <defs>
     <path d="M -0 7.778175 
L 7.778175 0 
L 0 -7.778175 
L -7.778175 -0 
z
" id="m70fcc3ea88" style="stroke:#f5deb3;stroke-linejoin:miter;stroke-width:1.5;"/>
    </defs>
    <g>
     <use style="fill:#f5deb3;stroke:#f5deb3;stroke-linejoin:miter;stroke-width:1.5;" x="128.13443" xlink:href="#m70fcc3ea88" y="242.455228"/>
     <use style="fill:#f5deb3;stroke:#f5deb3;stroke-linejoin:miter;stroke-width:1.5;" x="169.978614" xlink:href="#m70fcc3ea88" y="132.363207"/>
     <use style="fill:#f5deb3;stroke:#f5deb3;stroke-linejoin:miter;stroke-width:1.5;" x="171.204534" xlink:href="#m70fcc3ea88" y="32.756141"/>
     <use style="fill:#f5deb3;stroke:#f5deb3;stroke-linejoin:miter;stroke-width:1.5;" x="171.204534" xlink:href="#m70fcc3ea88" y="27.513663"/>
     <use style="fill:#f5deb3;stroke:#f5deb3;stroke-linejoin:miter;stroke-width:1.5;" x="171.204534" xlink:href="#m70fcc3ea88" y="27.513663"/>
     <use style="fill:#f5deb3;stroke:#f5deb3;stroke-linejoin:miter;stroke-width:1.5;" x="333.168" xlink:href="#m70fcc3ea88" y="27.513663"/>
    </g>
   </g>
   <g id="line2d_3">
    <path style="fill:none;stroke:#f5deb3;stroke-linecap:square;stroke-width:4;"/>
    <g/>
   </g>
   <g id="line2d_4">
    <path d="M 333.168 27.513663 
L 363.64328 32.86099 
" style="fill:none;stroke:#f5deb3;stroke-linecap:square;stroke-width:4;"/>
    <g>
     <use style="fill:#f5deb3;stroke:#f5deb3;stroke-linejoin:miter;stroke-width:1.5;" x="333.168" xlink:href="#m70fcc3ea88" y="27.513663"/>
     <use style="fill:#f5deb3;stroke:#f5deb3;stroke-linejoin:miter;stroke-width:1.5;" x="363.64328" xlink:href="#m70fcc3ea88" y="32.86099"/>
    </g>
   </g>
   <g id="matplotlib.axis_1">
    <g id="xtick_1">
     <g id="line2d_5">
      <path clip-path="url(#p78a05c95f2)" d="M 56.12 294.88 
L 56.12 24.84 
" style="fill:none;stroke:#b0b0b0;stroke-linecap:square;stroke-width:0.8;"/>
     </g>
     <g id="line2d_6">
      <defs>
       <path d="M 0 0 
L 0 3.5 
" id="m4c9a1c1034" style="stroke:#000000;stroke-width:0.8;"/>
      </defs>
      <g>
       <use style="stroke:#000000;stroke-width:0.8;" x="56.12" xlink:href="#m4c9a1c1034" y="294.88"/>
      </g>
     </g>
     <g id="text_1">
      <!-- 0 -->
      <defs>
       <path d="M 31.78125 66.40625 
Q 24.171875 66.40625 20.328125 58.90625 
Q 16.5 51.421875 16.5 36.375 
Q 16.5 21.390625 20.328125 13.890625 
Q 24.171875 6.390625 31.78125 6.390625 
Q 39.453125 6.390625 43.28125 13.890625 
Q 47.125 21.390625 47.125 36.375 
Q 47.125 51.421875 43.28125 58.90625 
Q 39.453125 66.40625 31.78125 66.40625 
z
M 31.78125 74.21875 
Q 44.046875 74.21875 50.515625 64.515625 
Q 56.984375 54.828125 56.984375 36.375 
Q 56.984375 17.96875 50.515625 8.265625 
Q 44.046875 -1.421875 31.78125 -1.421875 
Q 19.53125 -1.421875 13.0625 8.265625 
Q 6.59375 17.96875 6.59375 36.375 
Q 6.59375 54.828125 13.0625 64.515625 
Q 19.53125 74.21875 31.78125 74.21875 
z
" id="DejaVuSans-30"/>
      </defs>
      <g transform="translate(49.7575 317.076875)scale(0.2 -0.2)">
       <use xlink:href="#DejaVuSans-30"/>
      </g>
     </g>
    </g>
    <g id="xtick_2">
     <g id="line2d_7">
      <path clip-path="url(#p78a05c95f2)" d="M 135.276571 294.88 
L 135.276571 24.84 
" style="fill:none;stroke:#b0b0b0;stroke-linecap:square;stroke-width:0.8;"/>
     </g>
     <g id="line2d_8">
      <g>
       <use style="stroke:#000000;stroke-width:0.8;" x="135.276571" xlink:href="#m4c9a1c1034" y="294.88"/>
      </g>
     </g>
     <g id="text_2">
      <!-- 2 -->
      <defs>
       <path d="M 19.1875 8.296875 
L 53.609375 8.296875 
L 53.609375 0 
L 7.328125 0 
L 7.328125 8.296875 
Q 12.9375 14.109375 22.625 23.890625 
Q 32.328125 33.6875 34.8125 36.53125 
Q 39.546875 41.84375 41.421875 45.53125 
Q 43.3125 49.21875 43.3125 52.78125 
Q 43.3125 58.59375 39.234375 62.25 
Q 35.15625 65.921875 28.609375 65.921875 
Q 23.96875 65.921875 18.8125 64.3125 
Q 13.671875 62.703125 7.8125 59.421875 
L 7.8125 69.390625 
Q 13.765625 71.78125 18.9375 73 
Q 24.125 74.21875 28.421875 74.21875 
Q 39.75 74.21875 46.484375 68.546875 
Q 53.21875 62.890625 53.21875 53.421875 
Q 53.21875 48.921875 51.53125 44.890625 
Q 49.859375 40.875 45.40625 35.40625 
Q 44.1875 33.984375 37.640625 27.21875 
Q 31.109375 20.453125 19.1875 8.296875 
z
" id="DejaVuSans-32"/>
      </defs>
      <g transform="translate(128.914071 317.076875)scale(0.2 -0.2)">
       <use xlink:href="#DejaVuSans-32"/>
      </g>
     </g>
    </g>
    <g id="xtick_3">
     <g id="line2d_9">
      <path clip-path="url(#p78a05c95f2)" d="M 214.433143 294.88 
L 214.433143 24.84 
" style="fill:none;stroke:#b0b0b0;stroke-linecap:square;stroke-width:0.8;"/>
     </g>
     <g id="line2d_10">
      <g>
       <use style="stroke:#000000;stroke-width:0.8;" x="214.433143" xlink:href="#m4c9a1c1034" y="294.88"/>
      </g>
     </g>
     <g id="text_3">
      <!-- 4 -->
      <defs>
       <path d="M 37.796875 64.3125 
L 12.890625 25.390625 
L 37.796875 25.390625 
z
M 35.203125 72.90625 
L 47.609375 72.90625 
L 47.609375 25.390625 
L 58.015625 25.390625 
L 58.015625 17.1875 
L 47.609375 17.1875 
L 47.609375 0 
L 37.796875 0 
L 37.796875 17.1875 
L 4.890625 17.1875 
L 4.890625 26.703125 
z
" id="DejaVuSans-34"/>
      </defs>
      <g transform="translate(208.070643 317.076875)scale(0.2 -0.2)">
       <use xlink:href="#DejaVuSans-34"/>
      </g>
     </g>
    </g>
    <g id="xtick_4">
     <g id="line2d_11">
      <path clip-path="url(#p78a05c95f2)" d="M 293.589714 294.88 
L 293.589714 24.84 
" style="fill:none;stroke:#b0b0b0;stroke-linecap:square;stroke-width:0.8;"/>
     </g>
     <g id="line2d_12">
      <g>
       <use style="stroke:#000000;stroke-width:0.8;" x="293.589714" xlink:href="#m4c9a1c1034" y="294.88"/>
      </g>
     </g>
     <g id="text_4">
      <!-- 6 -->
      <defs>
       <path d="M 33.015625 40.375 
Q 26.375 40.375 22.484375 35.828125 
Q 18.609375 31.296875 18.609375 23.390625 
Q 18.609375 15.53125 22.484375 10.953125 
Q 26.375 6.390625 33.015625 6.390625 
Q 39.65625 6.390625 43.53125 10.953125 
Q 47.40625 15.53125 47.40625 23.390625 
Q 47.40625 31.296875 43.53125 35.828125 
Q 39.65625 40.375 33.015625 40.375 
z
M 52.59375 71.296875 
L 52.59375 62.3125 
Q 48.875 64.0625 45.09375 64.984375 
Q 41.3125 65.921875 37.59375 65.921875 
Q 27.828125 65.921875 22.671875 59.328125 
Q 17.53125 52.734375 16.796875 39.40625 
Q 19.671875 43.65625 24.015625 45.921875 
Q 28.375 48.1875 33.59375 48.1875 
Q 44.578125 48.1875 50.953125 41.515625 
Q 57.328125 34.859375 57.328125 23.390625 
Q 57.328125 12.15625 50.6875 5.359375 
Q 44.046875 -1.421875 33.015625 -1.421875 
Q 20.359375 -1.421875 13.671875 8.265625 
Q 6.984375 17.96875 6.984375 36.375 
Q 6.984375 53.65625 15.1875 63.9375 
Q 23.390625 74.21875 37.203125 74.21875 
Q 40.921875 74.21875 44.703125 73.484375 
Q 48.484375 72.75 52.59375 71.296875 
z
" id="DejaVuSans-36"/>
      </defs>
      <g transform="translate(287.227214 317.076875)scale(0.2 -0.2)">
       <use xlink:href="#DejaVuSans-36"/>
      </g>
     </g>
    </g>
    <g id="xtick_5">
     <g id="line2d_13">
      <path clip-path="url(#p78a05c95f2)" d="M 56.12 294.88 
L 56.12 24.84 
" style="fill:none;stroke:#b0b0b0;stroke-linecap:square;stroke-width:0.8;"/>
     </g>
     <g id="line2d_14">
      <defs>
       <path d="M 0 0 
L 0 2 
" id="m1788d64c1d" style="stroke:#000000;stroke-width:0.6;"/>
      </defs>
      <g>
       <use style="stroke:#000000;stroke-width:0.6;" x="56.12" xlink:href="#m1788d64c1d" y="294.88"/>
      </g>
     </g>
    </g>
    <g id="xtick_6">
     <g id="line2d_15">
      <path clip-path="url(#p78a05c95f2)" d="M 95.698286 294.88 
L 95.698286 24.84 
" style="fill:none;stroke:#b0b0b0;stroke-linecap:square;stroke-width:0.8;"/>
     </g>
     <g id="line2d_16">
      <g>
       <use style="stroke:#000000;stroke-width:0.6;" x="95.698286" xlink:href="#m1788d64c1d" y="294.88"/>
      </g>
     </g>
    </g>
    <g id="xtick_7">
     <g id="line2d_17">
      <path clip-path="url(#p78a05c95f2)" d="M 135.276571 294.88 
L 135.276571 24.84 
" style="fill:none;stroke:#b0b0b0;stroke-linecap:square;stroke-width:0.8;"/>
     </g>
     <g id="line2d_18">
      <g>
       <use style="stroke:#000000;stroke-width:0.6;" x="135.276571" xlink:href="#m1788d64c1d" y="294.88"/>
      </g>
     </g>
    </g>
    <g id="xtick_8">
     <g id="line2d_19">
      <path clip-path="url(#p78a05c95f2)" d="M 174.854857 294.88 
L 174.854857 24.84 
" style="fill:none;stroke:#b0b0b0;stroke-linecap:square;stroke-width:0.8;"/>
     </g>
     <g id="line2d_20">
      <g>
       <use style="stroke:#000000;stroke-width:0.6;" x="174.854857" xlink:href="#m1788d64c1d" y="294.88"/>
      </g>
     </g>
    </g>
    <g id="xtick_9">
     <g id="line2d_21">
      <path clip-path="url(#p78a05c95f2)" d="M 214.433143 294.88 
L 214.433143 24.84 
" style="fill:none;stroke:#b0b0b0;stroke-linecap:square;stroke-width:0.8;"/>
     </g>
     <g id="line2d_22">
      <g>
       <use style="stroke:#000000;stroke-width:0.6;" x="214.433143" xlink:href="#m1788d64c1d" y="294.88"/>
      </g>
     </g>
    </g>
    <g id="xtick_10">
     <g id="line2d_23">
      <path clip-path="url(#p78a05c95f2)" d="M 254.011429 294.88 
L 254.011429 24.84 
" style="fill:none;stroke:#b0b0b0;stroke-linecap:square;stroke-width:0.8;"/>
     </g>
     <g id="line2d_24">
      <g>
       <use style="stroke:#000000;stroke-width:0.6;" x="254.011429" xlink:href="#m1788d64c1d" y="294.88"/>
      </g>
     </g>
    </g>
    <g id="xtick_11">
     <g id="line2d_25">
      <path clip-path="url(#p78a05c95f2)" d="M 293.589714 294.88 
L 293.589714 24.84 
" style="fill:none;stroke:#b0b0b0;stroke-linecap:square;stroke-width:0.8;"/>
     </g>
     <g id="line2d_26">
      <g>
       <use style="stroke:#000000;stroke-width:0.6;" x="293.589714" xlink:href="#m1788d64c1d" y="294.88"/>
      </g>
     </g>
    </g>
    <g id="xtick_12">
     <g id="line2d_27">
      <path clip-path="url(#p78a05c95f2)" d="M 333.168 294.88 
L 333.168 24.84 
" style="fill:none;stroke:#b0b0b0;stroke-linecap:square;stroke-width:0.8;"/>
     </g>
     <g id="line2d_28">
      <g>
       <use style="stroke:#000000;stroke-width:0.6;" x="333.168" xlink:href="#m1788d64c1d" y="294.88"/>
      </g>
     </g>
    </g>
    <g id="text_5">
     <!-- log10(# f-evals / dimension) -->
     <defs>
      <path d="M 9.421875 75.984375 
L 18.40625 75.984375 
L 18.40625 0 
L 9.421875 0 
z
" id="DejaVuSans-6c"/>
      <path d="M 30.609375 48.390625 
Q 23.390625 48.390625 19.1875 42.75 
Q 14.984375 37.109375 14.984375 27.296875 
Q 14.984375 17.484375 19.15625 11.84375 
Q 23.34375 6.203125 30.609375 6.203125 
Q 37.796875 6.203125 41.984375 11.859375 
Q 46.1875 17.53125 46.1875 27.296875 
Q 46.1875 37.015625 41.984375 42.703125 
Q 37.796875 48.390625 30.609375 48.390625 
z
M 30.609375 56 
Q 42.328125 56 49.015625 48.375 
Q 55.71875 40.765625 55.71875 27.296875 
Q 55.71875 13.875 49.015625 6.21875 
Q 42.328125 -1.421875 30.609375 -1.421875 
Q 18.84375 -1.421875 12.171875 6.21875 
Q 5.515625 13.875 5.515625 27.296875 
Q 5.515625 40.765625 12.171875 48.375 
Q 18.84375 56 30.609375 56 
z
" id="DejaVuSans-6f"/>
      <path d="M 45.40625 27.984375 
Q 45.40625 37.75 41.375 43.109375 
Q 37.359375 48.484375 30.078125 48.484375 
Q 22.859375 48.484375 18.828125 43.109375 
Q 14.796875 37.75 14.796875 27.984375 
Q 14.796875 18.265625 18.828125 12.890625 
Q 22.859375 7.515625 30.078125 7.515625 
Q 37.359375 7.515625 41.375 12.890625 
Q 45.40625 18.265625 45.40625 27.984375 
z
M 54.390625 6.78125 
Q 54.390625 -7.171875 48.1875 -13.984375 
Q 42 -20.796875 29.203125 -20.796875 
Q 24.46875 -20.796875 20.265625 -20.09375 
Q 16.0625 -19.390625 12.109375 -17.921875 
L 12.109375 -9.1875 
Q 16.0625 -11.328125 19.921875 -12.34375 
Q 23.78125 -13.375 27.78125 -13.375 
Q 36.625 -13.375 41.015625 -8.765625 
Q 45.40625 -4.15625 45.40625 5.171875 
L 45.40625 9.625 
Q 42.625 4.78125 38.28125 2.390625 
Q 33.9375 0 27.875 0 
Q 17.828125 0 11.671875 7.65625 
Q 5.515625 15.328125 5.515625 27.984375 
Q 5.515625 40.671875 11.671875 48.328125 
Q 17.828125 56 27.875 56 
Q 33.9375 56 38.28125 53.609375 
Q 42.625 51.21875 45.40625 46.390625 
L 45.40625 54.6875 
L 54.390625 54.6875 
z
" id="DejaVuSans-67"/>
      <path d="M 12.40625 8.296875 
L 28.515625 8.296875 
L 28.515625 63.921875 
L 10.984375 60.40625 
L 10.984375 69.390625 
L 28.421875 72.90625 
L 38.28125 72.90625 
L 38.28125 8.296875 
L 54.390625 8.296875 
L 54.390625 0 
L 12.40625 0 
z
" id="DejaVuSans-31"/>
      <path d="M 31 75.875 
Q 24.46875 64.65625 21.28125 53.65625 
Q 18.109375 42.671875 18.109375 31.390625 
Q 18.109375 20.125 21.3125 9.0625 
Q 24.515625 -2 31 -13.1875 
L 23.1875 -13.1875 
Q 15.875 -1.703125 12.234375 9.375 
Q 8.59375 20.453125 8.59375 31.390625 
Q 8.59375 42.28125 12.203125 53.3125 
Q 15.828125 64.359375 23.1875 75.875 
z
" id="DejaVuSans-28"/>
      <path d="M 51.125 44 
L 36.921875 44 
L 32.8125 27.6875 
L 47.125 27.6875 
z
M 43.796875 71.78125 
L 38.71875 51.515625 
L 52.984375 51.515625 
L 58.109375 71.78125 
L 65.921875 71.78125 
L 60.890625 51.515625 
L 76.125 51.515625 
L 76.125 44 
L 58.984375 44 
L 54.984375 27.6875 
L 70.515625 27.6875 
L 70.515625 20.21875 
L 53.078125 20.21875 
L 48 0 
L 40.1875 0 
L 45.21875 20.21875 
L 30.90625 20.21875 
L 25.875 0 
L 18.015625 0 
L 23.09375 20.21875 
L 7.71875 20.21875 
L 7.71875 27.6875 
L 24.90625 27.6875 
L 29 44 
L 13.28125 44 
L 13.28125 51.515625 
L 30.90625 51.515625 
L 35.890625 71.78125 
z
" id="DejaVuSans-23"/>
      <path id="DejaVuSans-20"/>
      <path d="M 37.109375 75.984375 
L 37.109375 68.5 
L 28.515625 68.5 
Q 23.6875 68.5 21.796875 66.546875 
Q 19.921875 64.59375 19.921875 59.515625 
L 19.921875 54.6875 
L 34.71875 54.6875 
L 34.71875 47.703125 
L 19.921875 47.703125 
L 19.921875 0 
L 10.890625 0 
L 10.890625 47.703125 
L 2.296875 47.703125 
L 2.296875 54.6875 
L 10.890625 54.6875 
L 10.890625 58.5 
Q 10.890625 67.625 15.140625 71.796875 
Q 19.390625 75.984375 28.609375 75.984375 
z
" id="DejaVuSans-66"/>
      <path d="M 4.890625 31.390625 
L 31.203125 31.390625 
L 31.203125 23.390625 
L 4.890625 23.390625 
z
" id="DejaVuSans-2d"/>
      <path d="M 56.203125 29.59375 
L 56.203125 25.203125 
L 14.890625 25.203125 
Q 15.484375 15.921875 20.484375 11.0625 
Q 25.484375 6.203125 34.421875 6.203125 
Q 39.59375 6.203125 44.453125 7.46875 
Q 49.3125 8.734375 54.109375 11.28125 
L 54.109375 2.78125 
Q 49.265625 0.734375 44.1875 -0.34375 
Q 39.109375 -1.421875 33.890625 -1.421875 
Q 20.796875 -1.421875 13.15625 6.1875 
Q 5.515625 13.8125 5.515625 26.8125 
Q 5.515625 40.234375 12.765625 48.109375 
Q 20.015625 56 32.328125 56 
Q 43.359375 56 49.78125 48.890625 
Q 56.203125 41.796875 56.203125 29.59375 
z
M 47.21875 32.234375 
Q 47.125 39.59375 43.09375 43.984375 
Q 39.0625 48.390625 32.421875 48.390625 
Q 24.90625 48.390625 20.390625 44.140625 
Q 15.875 39.890625 15.1875 32.171875 
z
" id="DejaVuSans-65"/>
      <path d="M 2.984375 54.6875 
L 12.5 54.6875 
L 29.59375 8.796875 
L 46.6875 54.6875 
L 56.203125 54.6875 
L 35.6875 0 
L 23.484375 0 
z
" id="DejaVuSans-76"/>
      <path d="M 34.28125 27.484375 
Q 23.390625 27.484375 19.1875 25 
Q 14.984375 22.515625 14.984375 16.5 
Q 14.984375 11.71875 18.140625 8.90625 
Q 21.296875 6.109375 26.703125 6.109375 
Q 34.1875 6.109375 38.703125 11.40625 
Q 43.21875 16.703125 43.21875 25.484375 
L 43.21875 27.484375 
z
M 52.203125 31.203125 
L 52.203125 0 
L 43.21875 0 
L 43.21875 8.296875 
Q 40.140625 3.328125 35.546875 0.953125 
Q 30.953125 -1.421875 24.3125 -1.421875 
Q 15.921875 -1.421875 10.953125 3.296875 
Q 6 8.015625 6 15.921875 
Q 6 25.140625 12.171875 29.828125 
Q 18.359375 34.515625 30.609375 34.515625 
L 43.21875 34.515625 
L 43.21875 35.40625 
Q 43.21875 41.609375 39.140625 45 
Q 35.0625 48.390625 27.6875 48.390625 
Q 23 48.390625 18.546875 47.265625 
Q 14.109375 46.140625 10.015625 43.890625 
L 10.015625 52.203125 
Q 14.9375 54.109375 19.578125 55.046875 
Q 24.21875 56 28.609375 56 
Q 40.484375 56 46.34375 49.84375 
Q 52.203125 43.703125 52.203125 31.203125 
z
" id="DejaVuSans-61"/>
      <path d="M 44.28125 53.078125 
L 44.28125 44.578125 
Q 40.484375 46.53125 36.375 47.5 
Q 32.28125 48.484375 27.875 48.484375 
Q 21.1875 48.484375 17.84375 46.4375 
Q 14.5 44.390625 14.5 40.28125 
Q 14.5 37.15625 16.890625 35.375 
Q 19.28125 33.59375 26.515625 31.984375 
L 29.59375 31.296875 
Q 39.15625 29.25 43.1875 25.515625 
Q 47.21875 21.78125 47.21875 15.09375 
Q 47.21875 7.46875 41.1875 3.015625 
Q 35.15625 -1.421875 24.609375 -1.421875 
Q 20.21875 -1.421875 15.453125 -0.5625 
Q 10.6875 0.296875 5.421875 2 
L 5.421875 11.28125 
Q 10.40625 8.6875 15.234375 7.390625 
Q 20.0625 6.109375 24.8125 6.109375 
Q 31.15625 6.109375 34.5625 8.28125 
Q 37.984375 10.453125 37.984375 14.40625 
Q 37.984375 18.0625 35.515625 20.015625 
Q 33.0625 21.96875 24.703125 23.78125 
L 21.578125 24.515625 
Q 13.234375 26.265625 9.515625 29.90625 
Q 5.8125 33.546875 5.8125 39.890625 
Q 5.8125 47.609375 11.28125 51.796875 
Q 16.75 56 26.8125 56 
Q 31.78125 56 36.171875 55.265625 
Q 40.578125 54.546875 44.28125 53.078125 
z
" id="DejaVuSans-73"/>
      <path d="M 25.390625 72.90625 
L 33.6875 72.90625 
L 8.296875 -9.28125 
L 0 -9.28125 
z
" id="DejaVuSans-2f"/>
      <path d="M 45.40625 46.390625 
L 45.40625 75.984375 
L 54.390625 75.984375 
L 54.390625 0 
L 45.40625 0 
L 45.40625 8.203125 
Q 42.578125 3.328125 38.25 0.953125 
Q 33.9375 -1.421875 27.875 -1.421875 
Q 17.96875 -1.421875 11.734375 6.484375 
Q 5.515625 14.40625 5.515625 27.296875 
Q 5.515625 40.1875 11.734375 48.09375 
Q 17.96875 56 27.875 56 
Q 33.9375 56 38.25 53.625 
Q 42.578125 51.265625 45.40625 46.390625 
z
M 14.796875 27.296875 
Q 14.796875 17.390625 18.875 11.75 
Q 22.953125 6.109375 30.078125 6.109375 
Q 37.203125 6.109375 41.296875 11.75 
Q 45.40625 17.390625 45.40625 27.296875 
Q 45.40625 37.203125 41.296875 42.84375 
Q 37.203125 48.484375 30.078125 48.484375 
Q 22.953125 48.484375 18.875 42.84375 
Q 14.796875 37.203125 14.796875 27.296875 
z
" id="DejaVuSans-64"/>
      <path d="M 9.421875 54.6875 
L 18.40625 54.6875 
L 18.40625 0 
L 9.421875 0 
z
M 9.421875 75.984375 
L 18.40625 75.984375 
L 18.40625 64.59375 
L 9.421875 64.59375 
z
" id="DejaVuSans-69"/>
      <path d="M 52 44.1875 
Q 55.375 50.25 60.0625 53.125 
Q 64.75 56 71.09375 56 
Q 79.640625 56 84.28125 50.015625 
Q 88.921875 44.046875 88.921875 33.015625 
L 88.921875 0 
L 79.890625 0 
L 79.890625 32.71875 
Q 79.890625 40.578125 77.09375 44.375 
Q 74.3125 48.1875 68.609375 48.1875 
Q 61.625 48.1875 57.5625 43.546875 
Q 53.515625 38.921875 53.515625 30.90625 
L 53.515625 0 
L 44.484375 0 
L 44.484375 32.71875 
Q 44.484375 40.625 41.703125 44.40625 
Q 38.921875 48.1875 33.109375 48.1875 
Q 26.21875 48.1875 22.15625 43.53125 
Q 18.109375 38.875 18.109375 30.90625 
L 18.109375 0 
L 9.078125 0 
L 9.078125 54.6875 
L 18.109375 54.6875 
L 18.109375 46.1875 
Q 21.1875 51.21875 25.484375 53.609375 
Q 29.78125 56 35.6875 56 
Q 41.65625 56 45.828125 52.96875 
Q 50 49.953125 52 44.1875 
z
" id="DejaVuSans-6d"/>
      <path d="M 54.890625 33.015625 
L 54.890625 0 
L 45.90625 0 
L 45.90625 32.71875 
Q 45.90625 40.484375 42.875 44.328125 
Q 39.84375 48.1875 33.796875 48.1875 
Q 26.515625 48.1875 22.3125 43.546875 
Q 18.109375 38.921875 18.109375 30.90625 
L 18.109375 0 
L 9.078125 0 
L 9.078125 54.6875 
L 18.109375 54.6875 
L 18.109375 46.1875 
Q 21.34375 51.125 25.703125 53.5625 
Q 30.078125 56 35.796875 56 
Q 45.21875 56 50.046875 50.171875 
Q 54.890625 44.34375 54.890625 33.015625 
z
" id="DejaVuSans-6e"/>
      <path d="M 8.015625 75.875 
L 15.828125 75.875 
Q 23.140625 64.359375 26.78125 53.3125 
Q 30.421875 42.28125 30.421875 31.390625 
Q 30.421875 20.453125 26.78125 9.375 
Q 23.140625 -1.703125 15.828125 -13.1875 
L 8.015625 -13.1875 
Q 14.5 -2 17.703125 9.0625 
Q 20.90625 20.125 20.90625 31.390625 
Q 20.90625 42.671875 17.703125 53.65625 
Q 14.5 64.65625 8.015625 75.875 
z
" id="DejaVuSans-29"/>
     </defs>
     <g transform="translate(73.803219 338.153594)scale(0.17 -0.17)">
      <use xlink:href="#DejaVuSans-6c"/>
      <use x="27.783203" xlink:href="#DejaVuSans-6f"/>
      <use x="88.964844" xlink:href="#DejaVuSans-67"/>
      <use x="152.441406" xlink:href="#DejaVuSans-31"/>
      <use x="216.064453" xlink:href="#DejaVuSans-30"/>
      <use x="279.6875" xlink:href="#DejaVuSans-28"/>
      <use x="318.701172" xlink:href="#DejaVuSans-23"/>
      <use x="402.490234" xlink:href="#DejaVuSans-20"/>
      <use x="434.277344" xlink:href="#DejaVuSans-66"/>
      <use x="469.404297" xlink:href="#DejaVuSans-2d"/>
      <use x="505.488281" xlink:href="#DejaVuSans-65"/>
      <use x="567.011719" xlink:href="#DejaVuSans-76"/>
      <use x="626.191406" xlink:href="#DejaVuSans-61"/>
      <use x="687.470703" xlink:href="#DejaVuSans-6c"/>
      <use x="715.253906" xlink:href="#DejaVuSans-73"/>
      <use x="767.353516" xlink:href="#DejaVuSans-20"/>
      <use x="799.140625" xlink:href="#DejaVuSans-2f"/>
      <use x="832.832031" xlink:href="#DejaVuSans-20"/>
      <use x="864.619141" xlink:href="#DejaVuSans-64"/>
      <use x="928.095703" xlink:href="#DejaVuSans-69"/>
      <use x="955.878906" xlink:href="#DejaVuSans-6d"/>
      <use x="1053.291016" xlink:href="#DejaVuSans-65"/>
      <use x="1114.814453" xlink:href="#DejaVuSans-6e"/>
      <use x="1178.193359" xlink:href="#DejaVuSans-73"/>
      <use x="1230.292969" xlink:href="#DejaVuSans-69"/>
      <use x="1258.076172" xlink:href="#DejaVuSans-6f"/>
      <use x="1319.257812" xlink:href="#DejaVuSans-6e"/>
      <use x="1382.636719" xlink:href="#DejaVuSans-29"/>
     </g>
    </g>
   </g>
   <g id="matplotlib.axis_2">
    <g id="ytick_1">
     <g id="line2d_29">
      <path clip-path="url(#p78a05c95f2)" d="M 56.12 294.88 
L 333.168 294.88 
" style="fill:none;stroke:#b0b0b0;stroke-linecap:square;stroke-width:0.8;"/>
     </g>
     <g id="line2d_30">
      <defs>
       <path d="M 0 0 
L -3.5 0 
" id="mabe0e26af8" style="stroke:#000000;stroke-width:0.8;"/>
      </defs>
      <g>
       <use style="stroke:#000000;stroke-width:0.8;" x="56.12" xlink:href="#mabe0e26af8" y="294.88"/>
      </g>
     </g>
     <g id="text_6">
      <!-- 0.0 -->
      <defs>
       <path d="M 10.6875 12.40625 
L 21 12.40625 
L 21 0 
L 10.6875 0 
z
" id="DejaVuSans-2e"/>
      </defs>
      <g transform="translate(23.675 300.95875)scale(0.16 -0.16)">
       <use xlink:href="#DejaVuSans-30"/>
       <use x="63.623047" xlink:href="#DejaVuSans-2e"/>
       <use x="95.410156" xlink:href="#DejaVuSans-30"/>
      </g>
     </g>
    </g>
    <g id="ytick_2">
     <g id="line2d_31">
      <path clip-path="url(#p78a05c95f2)" d="M 56.12 241.406733 
L 333.168 241.406733 
" style="fill:none;stroke:#b0b0b0;stroke-linecap:square;stroke-width:0.8;"/>
     </g>
     <g id="line2d_32">
      <g>
       <use style="stroke:#000000;stroke-width:0.8;" x="56.12" xlink:href="#mabe0e26af8" y="241.406733"/>
      </g>
     </g>
     <g id="text_7">
      <!-- 0.2 -->
      <g transform="translate(23.675 247.485483)scale(0.16 -0.16)">
       <use xlink:href="#DejaVuSans-30"/>
       <use x="63.623047" xlink:href="#DejaVuSans-2e"/>
       <use x="95.410156" xlink:href="#DejaVuSans-32"/>
      </g>
     </g>
    </g>
    <g id="ytick_3">
     <g id="line2d_33">
      <path clip-path="url(#p78a05c95f2)" d="M 56.12 187.933465 
L 333.168 187.933465 
" style="fill:none;stroke:#b0b0b0;stroke-linecap:square;stroke-width:0.8;"/>
     </g>
     <g id="line2d_34">
      <g>
       <use style="stroke:#000000;stroke-width:0.8;" x="56.12" xlink:href="#mabe0e26af8" y="187.933465"/>
      </g>
     </g>
     <g id="text_8">
      <!-- 0.4 -->
      <g transform="translate(23.675 194.012215)scale(0.16 -0.16)">
       <use xlink:href="#DejaVuSans-30"/>
       <use x="63.623047" xlink:href="#DejaVuSans-2e"/>
       <use x="95.410156" xlink:href="#DejaVuSans-34"/>
      </g>
     </g>
    </g>
    <g id="ytick_4">
     <g id="line2d_35">
      <path clip-path="url(#p78a05c95f2)" d="M 56.12 134.460198 
L 333.168 134.460198 
" style="fill:none;stroke:#b0b0b0;stroke-linecap:square;stroke-width:0.8;"/>
     </g>
     <g id="line2d_36">
      <g>
       <use style="stroke:#000000;stroke-width:0.8;" x="56.12" xlink:href="#mabe0e26af8" y="134.460198"/>
      </g>
     </g>
     <g id="text_9">
      <!-- 0.6 -->
      <g transform="translate(23.675 140.538948)scale(0.16 -0.16)">
       <use xlink:href="#DejaVuSans-30"/>
       <use x="63.623047" xlink:href="#DejaVuSans-2e"/>
       <use x="95.410156" xlink:href="#DejaVuSans-36"/>
      </g>
     </g>
    </g>
    <g id="ytick_5">
     <g id="line2d_37">
      <path clip-path="url(#p78a05c95f2)" d="M 56.12 80.986931 
L 333.168 80.986931 
" style="fill:none;stroke:#b0b0b0;stroke-linecap:square;stroke-width:0.8;"/>
     </g>
     <g id="line2d_38">
      <g>
       <use style="stroke:#000000;stroke-width:0.8;" x="56.12" xlink:href="#mabe0e26af8" y="80.986931"/>
      </g>
     </g>
     <g id="text_10">
      <!-- 0.8 -->
      <defs>
       <path d="M 31.78125 34.625 
Q 24.75 34.625 20.71875 30.859375 
Q 16.703125 27.09375 16.703125 20.515625 
Q 16.703125 13.921875 20.71875 10.15625 
Q 24.75 6.390625 31.78125 6.390625 
Q 38.8125 6.390625 42.859375 10.171875 
Q 46.921875 13.96875 46.921875 20.515625 
Q 46.921875 27.09375 42.890625 30.859375 
Q 38.875 34.625 31.78125 34.625 
z
M 21.921875 38.8125 
Q 15.578125 40.375 12.03125 44.71875 
Q 8.5 49.078125 8.5 55.328125 
Q 8.5 64.0625 14.71875 69.140625 
Q 20.953125 74.21875 31.78125 74.21875 
Q 42.671875 74.21875 48.875 69.140625 
Q 55.078125 64.0625 55.078125 55.328125 
Q 55.078125 49.078125 51.53125 44.71875 
Q 48 40.375 41.703125 38.8125 
Q 48.828125 37.15625 52.796875 32.3125 
Q 56.78125 27.484375 56.78125 20.515625 
Q 56.78125 9.90625 50.3125 4.234375 
Q 43.84375 -1.421875 31.78125 -1.421875 
Q 19.734375 -1.421875 13.25 4.234375 
Q 6.78125 9.90625 6.78125 20.515625 
Q 6.78125 27.484375 10.78125 32.3125 
Q 14.796875 37.15625 21.921875 38.8125 
z
M 18.3125 54.390625 
Q 18.3125 48.734375 21.84375 45.5625 
Q 25.390625 42.390625 31.78125 42.390625 
Q 38.140625 42.390625 41.71875 45.5625 
Q 45.3125 48.734375 45.3125 54.390625 
Q 45.3125 60.0625 41.71875 63.234375 
Q 38.140625 66.40625 31.78125 66.40625 
Q 25.390625 66.40625 21.84375 63.234375 
Q 18.3125 60.0625 18.3125 54.390625 
z
" id="DejaVuSans-38"/>
      </defs>
      <g transform="translate(23.675 87.065681)scale(0.16 -0.16)">
       <use xlink:href="#DejaVuSans-30"/>
       <use x="63.623047" xlink:href="#DejaVuSans-2e"/>
       <use x="95.410156" xlink:href="#DejaVuSans-38"/>
      </g>
     </g>
    </g>
    <g id="ytick_6">
     <g id="line2d_39">
      <path clip-path="url(#p78a05c95f2)" d="M 56.12 27.513663 
L 333.168 27.513663 
" style="fill:none;stroke:#b0b0b0;stroke-linecap:square;stroke-width:0.8;"/>
     </g>
     <g id="line2d_40">
      <g>
       <use style="stroke:#000000;stroke-width:0.8;" x="56.12" xlink:href="#mabe0e26af8" y="27.513663"/>
      </g>
     </g>
     <g id="text_11">
      <!-- 1.0 -->
      <g transform="translate(23.675 33.592413)scale(0.16 -0.16)">
       <use xlink:href="#DejaVuSans-31"/>
       <use x="63.623047" xlink:href="#DejaVuSans-2e"/>
       <use x="95.410156" xlink:href="#DejaVuSans-30"/>
      </g>
     </g>
    </g>
    <g id="text_12">
     <!-- Fraction of function,target pairs -->
     <defs>
      <path d="M 9.8125 72.90625 
L 51.703125 72.90625 
L 51.703125 64.59375 
L 19.671875 64.59375 
L 19.671875 43.109375 
L 48.578125 43.109375 
L 48.578125 34.8125 
L 19.671875 34.8125 
L 19.671875 0 
L 9.8125 0 
z
" id="DejaVuSans-46"/>
      <path d="M 41.109375 46.296875 
Q 39.59375 47.171875 37.8125 47.578125 
Q 36.03125 48 33.890625 48 
Q 26.265625 48 22.1875 43.046875 
Q 18.109375 38.09375 18.109375 28.8125 
L 18.109375 0 
L 9.078125 0 
L 9.078125 54.6875 
L 18.109375 54.6875 
L 18.109375 46.1875 
Q 20.953125 51.171875 25.484375 53.578125 
Q 30.03125 56 36.53125 56 
Q 37.453125 56 38.578125 55.875 
Q 39.703125 55.765625 41.0625 55.515625 
z
" id="DejaVuSans-72"/>
      <path d="M 48.78125 52.59375 
L 48.78125 44.1875 
Q 44.96875 46.296875 41.140625 47.34375 
Q 37.3125 48.390625 33.40625 48.390625 
Q 24.65625 48.390625 19.8125 42.84375 
Q 14.984375 37.3125 14.984375 27.296875 
Q 14.984375 17.28125 19.8125 11.734375 
Q 24.65625 6.203125 33.40625 6.203125 
Q 37.3125 6.203125 41.140625 7.25 
Q 44.96875 8.296875 48.78125 10.40625 
L 48.78125 2.09375 
Q 45.015625 0.34375 40.984375 -0.53125 
Q 36.96875 -1.421875 32.421875 -1.421875 
Q 20.0625 -1.421875 12.78125 6.34375 
Q 5.515625 14.109375 5.515625 27.296875 
Q 5.515625 40.671875 12.859375 48.328125 
Q 20.21875 56 33.015625 56 
Q 37.15625 56 41.109375 55.140625 
Q 45.0625 54.296875 48.78125 52.59375 
z
" id="DejaVuSans-63"/>
      <path d="M 18.3125 70.21875 
L 18.3125 54.6875 
L 36.8125 54.6875 
L 36.8125 47.703125 
L 18.3125 47.703125 
L 18.3125 18.015625 
Q 18.3125 11.328125 20.140625 9.421875 
Q 21.96875 7.515625 27.59375 7.515625 
L 36.8125 7.515625 
L 36.8125 0 
L 27.59375 0 
Q 17.1875 0 13.234375 3.875 
Q 9.28125 7.765625 9.28125 18.015625 
L 9.28125 47.703125 
L 2.6875 47.703125 
L 2.6875 54.6875 
L 9.28125 54.6875 
L 9.28125 70.21875 
z
" id="DejaVuSans-74"/>
      <path d="M 8.5 21.578125 
L 8.5 54.6875 
L 17.484375 54.6875 
L 17.484375 21.921875 
Q 17.484375 14.15625 20.5 10.265625 
Q 23.53125 6.390625 29.59375 6.390625 
Q 36.859375 6.390625 41.078125 11.03125 
Q 45.3125 15.671875 45.3125 23.6875 
L 45.3125 54.6875 
L 54.296875 54.6875 
L 54.296875 0 
L 45.3125 0 
L 45.3125 8.40625 
Q 42.046875 3.421875 37.71875 1 
Q 33.40625 -1.421875 27.6875 -1.421875 
Q 18.265625 -1.421875 13.375 4.4375 
Q 8.5 10.296875 8.5 21.578125 
z
M 31.109375 56 
z
" id="DejaVuSans-75"/>
      <path d="M 11.71875 12.40625 
L 22.015625 12.40625 
L 22.015625 4 
L 14.015625 -11.625 
L 7.71875 -11.625 
L 11.71875 4 
z
" id="DejaVuSans-2c"/>
      <path d="M 18.109375 8.203125 
L 18.109375 -20.796875 
L 9.078125 -20.796875 
L 9.078125 54.6875 
L 18.109375 54.6875 
L 18.109375 46.390625 
Q 20.953125 51.265625 25.265625 53.625 
Q 29.59375 56 35.59375 56 
Q 45.5625 56 51.78125 48.09375 
Q 58.015625 40.1875 58.015625 27.296875 
Q 58.015625 14.40625 51.78125 6.484375 
Q 45.5625 -1.421875 35.59375 -1.421875 
Q 29.59375 -1.421875 25.265625 0.953125 
Q 20.953125 3.328125 18.109375 8.203125 
z
M 48.6875 27.296875 
Q 48.6875 37.203125 44.609375 42.84375 
Q 40.53125 48.484375 33.40625 48.484375 
Q 26.265625 48.484375 22.1875 42.84375 
Q 18.109375 37.203125 18.109375 27.296875 
Q 18.109375 17.390625 22.1875 11.75 
Q 26.265625 6.109375 33.40625 6.109375 
Q 40.53125 6.109375 44.609375 11.75 
Q 48.6875 17.390625 48.6875 27.296875 
z
" id="DejaVuSans-70"/>
     </defs>
     <g transform="translate(16.139531 294.999375)rotate(-90)scale(0.17 -0.17)">
      <use xlink:href="#DejaVuSans-46"/>
      <use x="57.410156" xlink:href="#DejaVuSans-72"/>
      <use x="98.523438" xlink:href="#DejaVuSans-61"/>
      <use x="159.802734" xlink:href="#DejaVuSans-63"/>
      <use x="214.783203" xlink:href="#DejaVuSans-74"/>
      <use x="253.992188" xlink:href="#DejaVuSans-69"/>
      <use x="281.775391" xlink:href="#DejaVuSans-6f"/>
      <use x="342.957031" xlink:href="#DejaVuSans-6e"/>
      <use x="406.335938" xlink:href="#DejaVuSans-20"/>
      <use x="438.123047" xlink:href="#DejaVuSans-6f"/>
      <use x="499.304688" xlink:href="#DejaVuSans-66"/>
      <use x="534.509766" xlink:href="#DejaVuSans-20"/>
      <use x="566.296875" xlink:href="#DejaVuSans-66"/>
      <use x="601.501953" xlink:href="#DejaVuSans-75"/>
      <use x="664.880859" xlink:href="#DejaVuSans-6e"/>
      <use x="728.259766" xlink:href="#DejaVuSans-63"/>
      <use x="783.240234" xlink:href="#DejaVuSans-74"/>
      <use x="822.449219" xlink:href="#DejaVuSans-69"/>
      <use x="850.232422" xlink:href="#DejaVuSans-6f"/>
      <use x="911.414062" xlink:href="#DejaVuSans-6e"/>
      <use x="974.792969" xlink:href="#DejaVuSans-2c"/>
      <use x="1006.580078" xlink:href="#DejaVuSans-74"/>
      <use x="1045.789062" xlink:href="#DejaVuSans-61"/>
      <use x="1107.068359" xlink:href="#DejaVuSans-72"/>
      <use x="1148.166016" xlink:href="#DejaVuSans-67"/>
      <use x="1211.642578" xlink:href="#DejaVuSans-65"/>
      <use x="1273.166016" xlink:href="#DejaVuSans-74"/>
      <use x="1312.375" xlink:href="#DejaVuSans-20"/>
      <use x="1344.162109" xlink:href="#DejaVuSans-70"/>
      <use x="1407.638672" xlink:href="#DejaVuSans-61"/>
      <use x="1468.917969" xlink:href="#DejaVuSans-69"/>
      <use x="1496.701172" xlink:href="#DejaVuSans-72"/>
      <use x="1537.814453" xlink:href="#DejaVuSans-73"/>
     </g>
    </g>
   </g>
   <g id="line2d_41">
    <defs>
     <path d="M 0 1.5 
C 0.397805 1.5 0.77937 1.341951 1.06066 1.06066 
C 1.341951 0.77937 1.5 0.397805 1.5 0 
C 1.5 -0.397805 1.341951 -0.77937 1.06066 -1.06066 
C 0.77937 -1.341951 0.397805 -1.5 0 -1.5 
C -0.397805 -1.5 -0.77937 -1.341951 -1.06066 -1.06066 
C -1.341951 -0.77937 -1.5 -0.397805 -1.5 0 
C -1.5 0.397805 -1.341951 0.77937 -1.06066 1.06066 
C -0.77937 1.341951 -0.397805 1.5 0 1.5 
z
" id="mc71239807b" style="stroke:#f5deb3;"/>
    </defs>
    <g>
     <use style="fill:#f5deb3;stroke:#f5deb3;" x="171.204534" xlink:href="#mc71239807b" y="27.513663"/>
     <use style="fill:#f5deb3;stroke:#f5deb3;" x="171.204534" xlink:href="#mc71239807b" y="27.513663"/>
    </g>
   </g>
   <g id="line2d_42">
    <defs>
     <path d="M 0 1.5 
C 0.397805 1.5 0.77937 1.341951 1.06066 1.06066 
C 1.341951 0.77937 1.5 0.397805 1.5 0 
C 1.5 -0.397805 1.341951 -0.77937 1.06066 -1.06066 
C 0.77937 -1.341951 0.397805 -1.5 0 -1.5 
C -0.397805 -1.5 -0.77937 -1.341951 -1.06066 -1.06066 
C -1.341951 -0.77937 -1.5 -0.397805 -1.5 0 
C -1.5 0.397805 -1.341951 0.77937 -1.06066 1.06066 
C -0.77937 1.341951 -0.397805 1.5 0 1.5 
z
" id="m2374af1827" style="stroke:#000080;"/>
    </defs>
    <g>
     <use style="fill:#000080;stroke:#000080;" x="204.451503" xlink:href="#m2374af1827" y="27.513663"/>
     <use style="fill:#000080;stroke:#000080;" x="204.451503" xlink:href="#m2374af1827" y="27.513663"/>
    </g>
   </g>
   <g id="line2d_43">
    <path d="M 37.236359 294.88 
L 37.236359 277.055578 
L 49.15061 277.055578 
L 49.15061 271.288853 
L 56.12 271.288853 
L 56.12 268.143366 
L 61.064861 268.143366 
L 61.064861 267.094871 
L 64.900393 267.094871 
L 64.900393 266.046375 
L 70.68389 266.046375 
L 70.68389 265.522128 
L 72.979112 265.522128 
L 72.979112 262.900889 
L 82.598142 262.900889 
L 82.598142 262.376641 
L 84.893363 262.376641 
L 84.893363 261.328146 
L 91.131212 261.328146 
L 91.131212 260.803898 
L 94.512393 260.803898 
L 94.512393 259.755403 
L 96.807615 259.755403 
L 96.807615 259.231155 
L 100.643147 259.231155 
L 100.643147 258.706907 
L 101.067579 258.706907 
L 101.067579 257.658412 
L 101.481783 257.658412 
L 101.481783 257.134164 
L 101.88624 257.134164 
L 101.88624 256.085669 
L 105.480242 256.085669 
L 105.480242 255.561421 
L 112.98183 255.561421 
L 112.98183 254.512926 
L 118.186736 254.512926 
L 118.186736 253.988678 
L 120.501303 253.988678 
L 120.501303 253.46443 
L 121.678171 253.46443 
L 121.678171 252.940182 
L 123.131597 252.940182 
L 123.131597 252.415935 
L 124.685175 252.415935 
L 124.685175 251.891687 
L 134.98768 251.891687 
L 134.98768 251.367439 
L 136.546293 251.367439 
L 136.546293 250.843192 
L 138.647518 250.843192 
L 138.647518 250.318944 
L 138.88138 250.318944 
L 138.88138 249.794696 
L 140.812746 249.794696 
L 140.812746 249.270448 
L 141.344185 249.270448 
L 141.344185 248.746201 
L 141.820574 248.746201 
L 141.820574 248.221953 
L 142.623749 248.221953 
L 142.623749 247.173458 
L 144.125582 247.173458 
L 144.125582 246.124962 
L 148.540183 246.124962 
L 148.540183 245.600714 
L 151.276624 245.600714 
L 151.276624 244.552219 
L 151.411614 244.552219 
L 151.411614 244.027971 
L 155.988396 244.027971 
L 155.988396 241.93098 
L 157.468255 241.93098 
L 157.468255 241.406733 
L 160.821278 241.406733 
L 160.821278 240.358237 
L 162.511303 240.358237 
L 162.511303 239.309742 
L 163.877183 239.309742 
L 163.877183 238.785494 
L 169.741102 238.785494 
L 169.741102 237.212751 
L 170.039378 237.212751 
L 170.039378 236.688503 
L 170.444011 236.688503 
L 170.444011 236.164255 
L 170.672068 236.164255 
L 170.672068 235.640008 
L 171.289346 235.640008 
L 171.289346 235.11576 
L 171.816987 235.11576 
L 171.816987 234.591512 
L 172.24242 234.591512 
L 172.24242 234.067265 
L 173.08836 234.067265 
L 173.08836 233.543017 
L 174.135269 233.543017 
L 174.135269 233.018769 
L 174.472486 233.018769 
L 174.472486 231.446026 
L 174.80896 231.446026 
L 174.80896 230.921778 
L 174.969068 230.921778 
L 174.969068 230.397531 
L 176.183016 230.397531 
L 176.183016 229.873283 
L 176.838595 229.873283 
L 176.838595 229.349035 
L 177.0214 229.349035 
L 177.117103 228.30054 
L 177.78217 228.30054 
L 177.854503 227.252044 
L 178.282221 227.252044 
L 178.282221 226.727797 
L 178.895425 226.727797 
L 178.895425 226.203549 
L 179.187336 226.203549 
L 179.298302 224.630806 
L 179.665987 224.630806 
L 179.752384 222.533815 
L 179.957982 222.533815 
L 179.996259 220.436824 
L 180.506892 220.436824 
L 180.506892 219.912576 
L 180.662892 219.912576 
L 180.724083 217.291338 
L 180.978734 217.291338 
L 181.07875 215.718594 
L 181.10665 215.718594 
L 181.10665 215.194347 
L 181.265218 215.194347 
L 181.308569 214.145851 
L 181.422337 214.145851 
L 181.504252 212.573108 
L 181.578032 212.573108 
L 181.682334 209.95187 
L 181.705427 209.95187 
L 181.797489 208.379126 
L 181.85859 208.379126 
L 181.961209 206.282136 
L 182.021733 206.282136 
L 182.100848 204.185145 
L 182.228171 204.185145 
L 182.228171 203.660897 
L 182.395251 203.660897 
L 182.505742 202.088154 
L 182.535086 202.088154 
L 182.546078 201.039658 
L 182.659245 201.039658 
L 182.760825 198.942667 
L 182.818602 198.942667 
L 182.858211 197.894172 
L 182.940737 197.894172 
L 182.997913 195.797181 
L 183.090421 195.797181 
L 183.097516 194.748686 
L 183.361502 194.748686 
L 183.382446 193.70019 
L 183.476383 193.70019 
L 183.535266 191.603199 
L 183.607727 191.603199 
L 183.648996 189.506209 
L 183.785849 189.506209 
L 183.891165 188.457713 
L 183.918239 188.457713 
L 184.002572 186.360722 
L 184.056328 186.360722 
L 184.089841 185.312227 
L 184.170006 185.312227 
L 184.170006 184.787979 
L 184.289556 184.787979 
L 184.296174 182.690988 
L 184.588097 182.690988 
L 184.698323 179.021254 
L 184.778922 179.021254 
L 184.862347 176.400016 
L 184.951738 176.400016 
L 184.999436 175.35152 
L 185.072316 175.35152 
L 185.170059 172.730281 
L 185.25474 172.730281 
L 185.289121 171.681786 
L 185.385643 171.681786 
L 185.435249 168.012052 
L 185.570933 168.012052 
L 185.65061 166.439309 
L 185.723831 166.439309 
L 185.830056 164.866566 
L 185.887447 164.866566 
L 185.956665 162.769575 
L 186.013636 162.769575 
L 186.121065 160.672584 
L 186.135933 160.672584 
L 186.239648 159.099841 
L 186.266217 159.099841 
L 186.36622 155.954354 
L 186.436461 155.954354 
L 186.532577 153.857364 
L 186.558697 153.857364 
L 186.659901 151.760373 
L 186.711717 151.760373 
L 186.783426 148.614886 
L 186.897542 148.614886 
L 186.954317 146.517896 
L 187.010905 146.517896 
L 187.010905 145.993648 
L 187.137551 145.993648 
L 187.240988 143.372409 
L 187.313303 143.372409 
L 187.421208 140.751171 
L 187.42948 140.751171 
L 187.459778 138.65418 
L 187.596828 138.65418 
L 187.673101 134.984446 
L 187.740917 134.984446 
L 187.792278 133.93595 
L 187.961494 133.93595 
L 188.04681 130.790464 
L 188.166075 130.790464 
L 188.205647 129.217721 
L 188.310728 129.217721 
L 188.344742 128.169225 
L 188.425581 128.169225 
L 188.526744 127.12073 
L 188.537086 127.12073 
L 188.647873 123.975244 
L 188.658142 123.975244 
L 188.714515 121.878253 
L 188.839413 121.878253 
L 188.839413 121.354005 
L 188.986087 121.354005 
L 189.091524 119.257014 
L 189.231108 119.257014 
L 189.322714 118.208519 
L 189.406466 118.208519 
L 189.504476 117.160023 
L 189.638336 117.160023 
L 189.638336 116.635776 
L 189.85276 116.635776 
L 189.893414 114.014537 
L 190.088175 114.014537 
L 190.088175 112.966042 
L 190.336712 112.966042 
L 190.387848 111.393298 
L 190.457335 111.393298 
L 190.551848 107.723564 
L 190.859426 107.723564 
L 190.859426 106.675069 
L 190.996621 106.675069 
L 190.996621 106.150821 
L 191.128284 106.150821 
L 191.194847 105.102326 
L 191.346969 105.102326 
L 191.346969 104.05383 
L 191.508633 104.05383 
L 191.517328 103.005335 
L 191.645077 103.005335 
L 191.645077 101.956839 
L 192.242892 101.956839 
L 192.288667 100.384096 
L 192.379854 100.384096 
L 192.379854 99.335601 
L 192.925054 99.335601 
L 192.925054 98.811353 
L 193.05472 98.811353 
L 193.141942 96.714362 
L 193.344406 96.714362 
L 193.391242 95.141619 
L 193.656178 95.141619 
L 193.656178 94.617371 
L 193.881144 94.617371 
L 193.937872 92.520381 
L 194.226165 92.520381 
L 194.226165 91.996133 
L 194.408976 91.996133 
L 194.408976 91.471885 
L 194.537072 91.471885 
L 194.537072 90.947637 
L 194.676884 90.947637 
L 194.705794 89.899142 
L 194.790436 89.899142 
L 194.885386 87.802151 
L 194.946023 87.802151 
L 194.946023 87.277903 
L 195.177672 87.277903 
L 195.18294 86.229408 
L 195.314132 86.229408 
L 195.37675 84.132417 
L 195.425296 84.132417 
L 195.468525 83.083922 
L 195.604417 83.083922 
L 195.669403 82.035426 
L 195.827417 82.035426 
L 195.827417 81.511178 
L 196.117549 81.511178 
L 196.210425 78.365692 
L 196.271515 78.365692 
L 196.284695 76.792949 
L 196.401229 76.792949 
L 196.489334 74.695958 
L 196.534841 74.695958 
L 196.62711 72.598967 
L 196.770195 72.598967 
L 196.843685 71.550472 
L 196.899391 71.550472 
L 197.00237 69.453481 
L 197.096882 69.453481 
L 197.140811 67.35649 
L 197.2408 67.35649 
L 197.312309 64.211004 
L 197.378887 64.211004 
L 197.46367 62.114013 
L 197.500536 62.114013 
L 197.500536 61.589765 
L 197.768495 61.589765 
L 197.872418 59.492774 
L 197.900924 59.492774 
L 198.002562 57.395783 
L 198.027877 57.395783 
L 198.08878 55.82304 
L 198.195211 55.82304 
L 198.302452 53.726049 
L 198.433753 53.726049 
L 198.433753 52.153306 
L 198.57271 52.153306 
L 198.57271 51.629058 
L 198.706262 51.629058 
L 198.771939 50.580563 
L 198.927981 50.580563 
L 198.997037 48.483572 
L 199.201167 48.483572 
L 199.209504 47.435077 
L 199.316141 47.435077 
L 199.363018 45.862334 
L 199.472815 45.862334 
L 199.579196 44.813838 
L 199.642981 44.813838 
L 199.647044 43.765343 
L 199.822206 43.765343 
L 199.822206 42.716847 
L 199.941103 42.716847 
L 199.941103 41.668352 
L 200.173832 41.668352 
L 200.235452 40.619856 
L 200.386596 40.619856 
L 200.386596 40.095609 
L 200.609569 40.095609 
L 200.609569 39.571361 
L 200.819569 39.571361 
L 200.872617 38.522865 
L 201.627578 38.522865 
L 201.733458 36.425875 
L 201.893442 36.425875 
L 201.949205 35.377379 
L 202.130661 35.377379 
L 202.238156 34.328884 
L 202.517746 34.328884 
L 202.517746 33.804636 
L 202.935496 33.804636 
L 202.935496 32.756141 
L 203.288635 32.756141 
L 203.376071 31.707645 
L 203.660419 31.707645 
L 203.660419 31.183397 
L 203.772641 31.183397 
L 203.772641 30.134902 
L 203.943305 30.134902 
L 203.943305 29.610654 
L 204.095571 29.610654 
L 204.126906 28.562159 
L 204.385839 28.562159 
L 204.451503 27.513663 
L 333.168 27.513663 
L 333.168 27.513663 
" style="fill:none;stroke:#000080;stroke-linecap:square;stroke-width:1.5;"/>
   </g>
   <g id="line2d_44">
    <defs>
     <path d="M 0 6 
C 1.591219 6 3.117479 5.367802 4.242641 4.242641 
C 5.367802 3.117479 6 1.591219 6 0 
C 6 -1.591219 5.367802 -3.117479 4.242641 -4.242641 
C 3.117479 -5.367802 1.591219 -6 0 -6 
C -1.591219 -6 -3.117479 -5.367802 -4.242641 -4.242641 
C -5.367802 -3.117479 -6 -1.591219 -6 0 
C -6 1.591219 -5.367802 3.117479 -4.242641 4.242641 
C -3.117479 5.367802 -1.591219 6 0 6 
z
" id="m428552779f" style="stroke:#000080;stroke-width:1.5;"/>
    </defs>
    <g>
     <use style="fill-opacity:0;stroke:#000080;stroke-width:1.5;" x="123.131597" xlink:href="#m428552779f" y="252.940182"/>
     <use style="fill-opacity:0;stroke:#000080;stroke-width:1.5;" x="186.720338" xlink:href="#m428552779f" y="150.711877"/>
     <use style="fill-opacity:0;stroke:#000080;stroke-width:1.5;" x="204.451503" xlink:href="#m428552779f" y="28.037911"/>
     <use style="fill-opacity:0;stroke:#000080;stroke-width:1.5;" x="204.451503" xlink:href="#m428552779f" y="27.513663"/>
     <use style="fill-opacity:0;stroke:#000080;stroke-width:1.5;" x="204.451503" xlink:href="#m428552779f" y="27.513663"/>
     <use style="fill-opacity:0;stroke:#000080;stroke-width:1.5;" x="333.168" xlink:href="#m428552779f" y="27.513663"/>
    </g>
   </g>
   <g id="line2d_45">
    <path style="fill:none;stroke:#000080;stroke-linecap:square;stroke-width:1.5;"/>
    <g/>
   </g>
   <g id="line2d_46">
    <defs>
     <path d="M 0 1.5 
C 0.397805 1.5 0.77937 1.341951 1.06066 1.06066 
C 1.341951 0.77937 1.5 0.397805 1.5 0 
C 1.5 -0.397805 1.341951 -0.77937 1.06066 -1.06066 
C 0.77937 -1.341951 0.397805 -1.5 0 -1.5 
C -0.397805 -1.5 -0.77937 -1.341951 -1.06066 -1.06066 
C -1.341951 -0.77937 -1.5 -0.397805 -1.5 0 
C -1.5 0.397805 -1.341951 0.77937 -1.06066 1.06066 
C -0.77937 1.341951 -0.397805 1.5 0 1.5 
z
" id="mc52e5df31e" style="stroke:#ff00ff;"/>
    </defs>
    <g>
     <use style="fill:#ff00ff;stroke:#ff00ff;" x="216.054197" xlink:href="#mc52e5df31e" y="27.513663"/>
     <use style="fill:#ff00ff;stroke:#ff00ff;" x="216.054197" xlink:href="#mc52e5df31e" y="27.513663"/>
    </g>
   </g>
   <g id="line2d_47">
    <path d="M 37.236359 294.88 
L 37.236359 273.385844 
L 49.15061 273.385844 
L 49.15061 269.191862 
L 56.12 269.191862 
L 56.12 266.570623 
L 61.064861 266.570623 
L 61.064861 266.046375 
L 64.900393 266.046375 
L 64.900393 264.99788 
L 68.034251 264.99788 
L 68.034251 264.473632 
L 72.979112 264.473632 
L 72.979112 263.425137 
L 76.814644 263.425137 
L 76.814644 262.900889 
L 78.452896 262.900889 
L 78.452896 262.376641 
L 81.324327 262.376641 
L 81.324327 261.852394 
L 90.367147 261.852394 
L 90.367147 260.803898 
L 93.887283 260.803898 
L 93.887283 259.755403 
L 96.261898 259.755403 
L 96.261898 259.231155 
L 98.347925 259.231155 
L 98.347925 258.18266 
L 102.667676 258.18266 
L 102.667676 257.134164 
L 103.045463 257.134164 
L 103.045463 256.085669 
L 104.478679 256.085669 
L 104.478679 255.037173 
L 105.480242 255.037173 
L 105.480242 254.512926 
L 108.721866 254.512926 
L 108.721866 253.46443 
L 110.983483 253.46443 
L 110.983483 252.415935 
L 114.581927 252.415935 
L 114.581927 251.891687 
L 119.382949 251.891687 
L 119.382949 251.367439 
L 120.365424 251.367439 
L 120.365424 250.843192 
L 121.16504 250.843192 
L 121.16504 249.794696 
L 121.678171 249.794696 
L 121.678171 248.221953 
L 127.05979 248.221953 
L 127.05979 247.173458 
L 132.61738 247.173458 
L 132.61738 246.64921 
L 132.750626 246.64921 
L 132.750626 246.124962 
L 136.652396 246.124962 
L 136.652396 245.076467 
L 140.307161 245.076467 
L 140.307161 244.552219 
L 142.435893 244.552219 
L 142.435893 244.027971 
L 146.489148 244.027971 
L 146.489148 243.503724 
L 147.782136 243.503724 
L 147.782136 242.979476 
L 148.9588 242.979476 
L 148.9588 242.455228 
L 149.692496 242.455228 
L 149.692496 241.93098 
L 149.987165 241.93098 
L 149.987165 241.406733 
L 150.324681 241.406733 
L 150.324681 240.882485 
L 150.725806 240.882485 
L 150.725806 240.358237 
L 152.830481 240.358237 
L 152.830481 239.83399 
L 154.198367 239.83399 
L 154.255441 238.785494 
L 154.925938 238.785494 
L 154.925938 237.736999 
L 156.595712 237.736999 
L 156.595712 237.212751 
L 157.085915 237.212751 
L 157.085915 236.164255 
L 157.499736 236.164255 
L 157.499736 235.640008 
L 159.765446 235.640008 
L 159.765446 235.11576 
L 160.533705 235.11576 
L 160.533705 234.591512 
L 161.432494 234.591512 
L 161.532283 231.970274 
L 162.952061 231.970274 
L 162.952061 231.446026 
L 163.30344 231.446026 
L 163.30344 230.921778 
L 164.453392 230.921778 
L 164.526692 229.349035 
L 164.672359 229.349035 
L 164.672359 228.30054 
L 165.37279 228.30054 
L 165.37279 227.776292 
L 165.550912 227.776292 
L 165.550912 227.252044 
L 165.678417 227.252044 
L 165.678417 226.727797 
L 166.433558 226.727797 
L 166.433558 226.203549 
L 166.785303 226.203549 
L 166.858446 225.155053 
L 167.003805 225.155053 
L 167.003805 224.630806 
L 167.677956 224.630806 
L 167.677956 224.106558 
L 167.954084 224.106558 
L 168.039473 223.058063 
L 168.360134 223.058063 
L 168.460165 222.009567 
L 168.49338 222.009567 
L 168.534808 220.436824 
L 168.642057 220.436824 
L 168.642057 219.912576 
L 168.789459 219.912576 
L 168.854568 218.864081 
L 168.975985 218.864081 
L 168.975985 217.815585 
L 169.263936 217.815585 
L 169.263936 217.291338 
L 169.484609 217.291338 
L 169.484609 216.76709 
L 169.932899 216.76709 
L 169.932899 215.718594 
L 170.069679 215.718594 
L 170.069679 215.194347 
L 170.42178 215.194347 
L 170.436604 214.145851 
L 170.59149 214.145851 
L 170.65013 212.573108 
L 170.861036 212.573108 
L 170.861036 212.04886 
L 171.183265 212.04886 
L 171.282294 210.476117 
L 171.548248 210.476117 
L 171.659008 208.379126 
L 171.871597 208.379126 
L 171.871597 207.854879 
L 172.108499 207.854879 
L 172.17559 205.23364 
L 172.73553 205.23364 
L 172.754963 204.185145 
L 173.126416 204.185145 
L 173.126416 203.660897 
L 173.570462 203.660897 
L 173.662824 202.088154 
L 174.248411 202.088154 
L 174.248411 201.563906 
L 174.612516 201.563906 
L 174.612516 201.039658 
L 175.195237 201.039658 
L 175.296051 198.942667 
L 175.368494 198.942667 
L 175.401827 196.845677 
L 175.517986 196.845677 
L 175.517986 196.321429 
L 175.818542 196.321429 
L 175.818542 195.797181 
L 176.172406 195.797181 
L 176.188319 194.748686 
L 176.336134 194.748686 
L 176.435718 193.175943 
L 176.607319 193.175943 
L 176.684757 192.127447 
L 177.296985 192.127447 
L 177.326783 190.554704 
L 177.988715 190.554704 
L 178.036395 189.506209 
L 178.510692 189.506209 
L 178.561566 188.457713 
L 178.685805 188.457713 
L 178.685805 187.933465 
L 179.147212 187.933465 
L 179.147212 187.409218 
L 179.324828 187.409218 
L 179.324828 186.360722 
L 179.618283 186.360722 
L 179.618283 185.836474 
L 179.739452 185.836474 
L 179.739452 184.787979 
L 180.576856 184.787979 
L 180.576856 184.263731 
L 180.982746 184.263731 
L 180.982746 183.739484 
L 181.17422 183.739484 
L 181.17422 183.215236 
L 181.558647 183.215236 
L 181.558647 182.690988 
L 181.900472 182.690988 
L 181.968786 181.642493 
L 182.059452 181.642493 
L 182.059452 181.118245 
L 182.395251 181.118245 
L 182.457949 180.06975 
L 182.937157 180.06975 
L 182.937157 179.545502 
L 183.200072 179.545502 
L 183.24233 178.497006 
L 183.697018 178.497006 
L 183.697018 177.448511 
L 183.952022 177.448511 
L 183.952022 176.400016 
L 184.839926 176.400016 
L 184.923056 175.35152 
L 185.22656 175.35152 
L 185.22656 174.827272 
L 188.451577 174.827272 
L 188.451577 174.303025 
L 190.081088 174.303025 
L 190.081088 173.778777 
L 190.480435 173.778777 
L 190.480435 173.254529 
L 192.396381 173.254529 
L 192.46439 172.206034 
L 192.595523 172.206034 
L 192.685101 171.157538 
L 192.935063 171.157538 
L 192.935063 170.109043 
L 193.548376 170.109043 
L 193.548376 169.584795 
L 193.759494 169.584795 
L 193.759494 168.5363 
L 194.016978 168.5363 
L 194.082623 166.963557 
L 194.326121 166.963557 
L 194.385081 165.390813 
L 194.504224 165.390813 
L 194.504224 163.81807 
L 194.696765 163.81807 
L 194.696765 163.293823 
L 194.846037 163.293823 
L 194.896102 161.721079 
L 195.013541 161.721079 
L 195.066658 159.099841 
L 195.135465 159.099841 
L 195.170645 157.00285 
L 195.430489 157.00285 
L 195.525421 155.954354 
L 195.681347 155.954354 
L 195.72734 152.28462 
L 195.840942 152.28462 
L 195.937001 150.711877 
L 195.973934 150.711877 
L 195.978964 149.663382 
L 196.10424 149.663382 
L 196.205462 147.042143 
L 196.220346 147.042143 
L 196.317602 145.4694 
L 196.366843 145.4694 
L 196.420847 143.372409 
L 196.5251 143.372409 
L 196.557549 142.323914 
L 196.681912 142.323914 
L 196.765391 139.702675 
L 196.862805 139.702675 
L 196.862805 138.129932 
L 197.178375 138.129932 
L 197.254814 136.032941 
L 197.355691 136.032941 
L 197.398964 134.460198 
L 197.535791 134.460198 
L 197.543446 132.887455 
L 197.654818 132.887455 
L 197.738255 131.838959 
L 197.852886 131.838959 
L 197.957796 130.266216 
L 197.968251 130.266216 
L 198.005542 128.693473 
L 198.11841 128.693473 
L 198.193738 126.596482 
L 198.246712 126.596482 
L 198.246712 126.072235 
L 198.403206 126.072235 
L 198.403206 125.547987 
L 198.727706 125.547987 
L 198.756256 124.499491 
L 198.903958 124.499491 
L 198.997037 122.926748 
L 199.100803 122.926748 
L 199.100803 121.354005 
L 199.231717 121.354005 
L 199.342353 119.781262 
L 199.490591 119.781262 
L 199.576476 117.160023 
L 199.730805 117.160023 
L 199.787316 115.58728 
L 199.853011 115.58728 
L 199.957072 111.917546 
L 199.984981 111.917546 
L 200.090888 109.820555 
L 200.131752 109.820555 
L 200.193522 107.723564 
L 200.328121 107.723564 
L 200.396971 106.675069 
L 200.453922 106.675069 
L 200.453922 106.150821 
L 200.591632 106.150821 
L 200.698974 103.005335 
L 200.720616 103.005335 
L 200.811978 100.384096 
L 200.933043 100.384096 
L 200.955648 99.335601 
L 201.049517 99.335601 
L 201.105593 97.23861 
L 201.162727 97.23861 
L 201.257942 95.141619 
L 201.324402 95.141619 
L 201.422392 94.093124 
L 201.575603 94.093124 
L 201.575603 93.568876 
L 201.783763 93.568876 
L 201.807666 92.520381 
L 202.00833 92.520381 
L 202.060191 91.471885 
L 202.284684 91.471885 
L 202.284684 90.947637 
L 202.474143 90.947637 
L 202.474143 90.42339 
L 204.008577 90.42339 
L 204.090343 87.277903 
L 204.193565 87.277903 
L 204.266179 86.229408 
L 204.374527 86.229408 
L 204.43306 85.180912 
L 204.561746 85.180912 
L 204.561746 84.656665 
L 204.696543 84.656665 
L 204.767067 82.559674 
L 204.812251 82.559674 
L 204.899272 80.462683 
L 204.935153 80.462683 
L 204.935153 79.414188 
L 205.113439 79.414188 
L 205.113439 78.365692 
L 205.266472 78.365692 
L 205.344425 75.744454 
L 205.548347 75.744454 
L 205.615467 73.647463 
L 205.728974 73.647463 
L 205.831344 72.074719 
L 205.869105 72.074719 
L 205.944378 71.026224 
L 205.995002 71.026224 
L 206.069727 68.404985 
L 206.125559 68.404985 
L 206.207118 66.307995 
L 206.267113 66.307995 
L 206.32139 64.735251 
L 206.380073 64.735251 
L 206.43217 62.638261 
L 206.742372 62.638261 
L 206.831766 60.54127 
L 206.918036 60.54127 
L 207.023285 57.395783 
L 207.091045 57.395783 
L 207.129645 56.347288 
L 207.264938 56.347288 
L 207.351662 55.298792 
L 207.427619 55.298792 
L 207.502384 50.580563 
L 207.685765 50.580563 
L 207.776305 47.959324 
L 207.883992 47.959324 
L 207.986007 45.338086 
L 208.088249 45.338086 
L 208.143687 43.765343 
L 208.211294 43.765343 
L 208.225277 41.668352 
L 208.353878 41.668352 
L 208.433666 40.619856 
L 208.489622 40.619856 
L 208.491241 39.571361 
L 208.686047 39.571361 
L 208.686047 39.047113 
L 214.358497 39.047113 
L 214.358497 38.522865 
L 214.78756 38.522865 
L 214.866516 36.950122 
L 214.951784 36.950122 
L 214.951784 36.425875 
L 215.080829 36.425875 
L 215.124914 34.853131 
L 215.220409 34.853131 
L 215.293592 33.280388 
L 215.437408 33.280388 
L 215.437408 32.231893 
L 215.643693 32.231893 
L 215.667706 30.65915 
L 215.84331 30.65915 
L 215.872316 28.562159 
L 216.016616 28.562159 
L 216.054197 27.513663 
L 333.168 27.513663 
L 333.168 27.513663 
" style="fill:none;stroke:#ff00ff;stroke-linecap:square;stroke-width:1.5;"/>
   </g>
   <g id="line2d_48">
    <defs>
     <path d="M -0 8.485281 
L 5.091169 0 
L 0 -8.485281 
L -5.091169 -0 
z
" id="m3fded10f0b" style="stroke:#ff00ff;stroke-linejoin:miter;stroke-width:1.5;"/>
    </defs>
    <g>
     <use style="fill-opacity:0;stroke:#ff00ff;stroke-linejoin:miter;stroke-width:1.5;" x="72.979112" xlink:href="#m3fded10f0b" y="264.473632"/>
     <use style="fill-opacity:0;stroke:#ff00ff;stroke-linejoin:miter;stroke-width:1.5;" x="168.642057" xlink:href="#m3fded10f0b" y="219.912576"/>
     <use style="fill-opacity:0;stroke:#ff00ff;stroke-linejoin:miter;stroke-width:1.5;" x="198.756256" xlink:href="#m3fded10f0b" y="124.499491"/>
     <use style="fill-opacity:0;stroke:#ff00ff;stroke-linejoin:miter;stroke-width:1.5;" x="216.054197" xlink:href="#m3fded10f0b" y="27.513663"/>
     <use style="fill-opacity:0;stroke:#ff00ff;stroke-linejoin:miter;stroke-width:1.5;" x="216.054197" xlink:href="#m3fded10f0b" y="27.513663"/>
     <use style="fill-opacity:0;stroke:#ff00ff;stroke-linejoin:miter;stroke-width:1.5;" x="333.168" xlink:href="#m3fded10f0b" y="27.513663"/>
    </g>
   </g>
   <g id="line2d_49">
    <path style="fill:none;stroke:#ff00ff;stroke-linecap:square;stroke-width:1.5;"/>
    <g/>
   </g>
   <g id="line2d_50">
    <defs>
     <path d="M 0 1.5 
C 0.397805 1.5 0.77937 1.341951 1.06066 1.06066 
C 1.341951 0.77937 1.5 0.397805 1.5 0 
C 1.5 -0.397805 1.341951 -0.77937 1.06066 -1.06066 
C 0.77937 -1.341951 0.397805 -1.5 0 -1.5 
C -0.397805 -1.5 -0.77937 -1.341951 -1.06066 -1.06066 
C -1.341951 -0.77937 -1.5 -0.397805 -1.5 0 
C -1.5 0.397805 -1.341951 0.77937 -1.06066 1.06066 
C -0.77937 1.341951 -0.397805 1.5 0 1.5 
z
" id="mc628ffe7aa" style="stroke:#ff7500;"/>
    </defs>
    <g>
     <use style="fill:#ff7500;stroke:#ff7500;" x="211.696193" xlink:href="#mc628ffe7aa" y="27.513663"/>
     <use style="fill:#ff7500;stroke:#ff7500;" x="211.696193" xlink:href="#mc628ffe7aa" y="27.513663"/>
    </g>
   </g>
   <g id="line2d_51">
    <path d="M 37.236359 294.88 
L 37.236359 274.434339 
L 49.15061 274.434339 
L 49.15061 270.764605 
L 56.12 270.764605 
L 56.12 268.667614 
L 64.900393 268.667614 
L 64.900393 268.143366 
L 68.034251 268.143366 
L 68.034251 267.094871 
L 70.68389 267.094871 
L 70.68389 266.046375 
L 75.003641 266.046375 
L 75.003641 264.99788 
L 76.814644 264.99788 
L 76.814644 263.425137 
L 78.452896 263.425137 
L 78.452896 261.328146 
L 87.847234 261.328146 
L 87.847234 260.279651 
L 90.367147 260.279651 
L 90.367147 259.231155 
L 93.238578 259.231155 
L 93.238578 258.706907 
L 95.115564 258.706907 
L 95.115564 257.658412 
L 95.698286 257.658412 
L 95.698286 256.609917 
L 101.067579 256.609917 
L 101.067579 255.561421 
L 102.281398 255.561421 
L 102.281398 254.512926 
L 107.323646 254.512926 
L 107.323646 253.988678 
L 111.217346 253.988678 
L 111.217346 253.46443 
L 117.874207 253.46443 
L 117.874207 252.940182 
L 119.09161 252.940182 
L 119.09161 252.415935 
L 121.16504 252.415935 
L 121.16504 251.891687 
L 122.660646 251.891687 
L 122.660646 251.367439 
L 128.478214 251.367439 
L 128.563096 249.794696 
L 131.441039 249.794696 
L 131.441039 249.270448 
L 133.718347 249.270448 
L 133.718347 248.746201 
L 135.21918 248.746201 
L 135.21918 248.221953 
L 140.687737 248.221953 
L 140.687737 247.697705 
L 140.812746 247.697705 
L 140.812746 247.173458 
L 142.435893 247.173458 
L 142.435893 245.076467 
L 145.443364 245.076467 
L 145.443364 244.552219 
L 149.087555 244.552219 
L 149.087555 244.027971 
L 150.980457 244.027971 
L 151.07213 241.406733 
L 153.910122 241.406733 
L 153.910122 240.882485 
L 156.244057 240.882485 
L 156.244057 240.358237 
L 157.021357 240.358237 
L 157.021357 239.83399 
L 159.792992 239.83399 
L 159.792992 239.309742 
L 161.469983 239.309742 
L 161.469983 238.785494 
L 164.071407 238.785494 
L 164.071407 238.261246 
L 164.220967 238.261246 
L 164.220967 237.212751 
L 164.474367 237.212751 
L 164.474367 236.688503 
L 165.452183 236.688503 
L 165.452183 236.164255 
L 165.766139 236.164255 
L 165.795281 235.11576 
L 166.766968 235.11576 
L 166.766968 234.591512 
L 167.085033 234.591512 
L 167.085033 234.067265 
L 167.201688 234.067265 
L 167.201688 233.543017 
L 167.441472 233.543017 
L 167.441472 233.018769 
L 167.582003 233.018769 
L 167.625684 231.446026 
L 168.435212 231.446026 
L 168.451851 230.397531 
L 168.617367 230.397531 
L 168.617367 229.349035 
L 169.136553 229.349035 
L 169.176462 228.30054 
L 169.30355 228.30054 
L 169.30355 227.776292 
L 169.484609 227.776292 
L 169.484609 226.727797 
L 169.640516 226.727797 
L 169.640516 226.203549 
L 170.384663 226.203549 
L 170.384663 225.679301 
L 170.53265 225.679301 
L 170.59149 224.106558 
L 170.795859 224.106558 
L 170.795859 223.58231 
L 171.062243 223.58231 
L 171.062243 222.533815 
L 171.373742 222.533815 
L 171.401782 221.485319 
L 171.513488 221.485319 
L 171.548248 220.436824 
L 171.912442 220.436824 
L 171.912442 219.912576 
L 172.047893 219.912576 
L 172.047893 219.388328 
L 172.17559 219.388328 
L 172.209037 218.339833 
L 172.566182 218.339833 
L 172.566182 217.291338 
L 172.6836 217.291338 
L 172.78084 215.718594 
L 173.043854 215.718594 
L 173.043854 215.194347 
L 173.340489 215.194347 
L 173.396712 213.621604 
L 173.545748 213.621604 
L 173.576635 212.573108 
L 173.906725 212.573108 
L 173.906725 212.04886 
L 174.02739 212.04886 
L 174.135269 210.476117 
L 174.319488 210.476117 
L 174.319488 209.95187 
L 174.542643 209.95187 
L 174.653144 207.854879 
L 175.110772 207.854879 
L 175.110772 207.330631 
L 175.446171 207.330631 
L 175.446171 205.757888 
L 176.864101 205.757888 
L 176.879386 204.709392 
L 177.172267 204.709392 
L 177.172267 204.185145 
L 177.494671 204.185145 
L 177.529034 203.136649 
L 178.060186 203.136649 
L 178.164474 202.088154 
L 178.380509 202.088154 
L 178.436422 199.991163 
L 179.285024 199.991163 
L 179.31157 198.41842 
L 179.596556 198.41842 
L 179.596556 197.894172 
L 180.051399 197.894172 
L 180.114802 196.845677 
L 180.403483 196.845677 
L 180.453197 194.748686 
L 180.556308 194.748686 
L 180.626072 192.127447 
L 180.789115 192.127447 
L 180.789115 191.603199 
L 181.066779 191.603199 
L 181.086726 190.030456 
L 181.209886 190.030456 
L 181.209886 189.506209 
L 181.332169 189.506209 
L 181.379272 186.88497 
L 181.523699 186.88497 
L 181.632194 185.312227 
L 181.643778 185.312227 
L 181.740008 184.263731 
L 181.835703 184.263731 
L 181.919475 183.215236 
L 181.964998 183.215236 
L 182.002842 182.16674 
L 182.134643 182.16674 
L 182.160882 181.118245 
L 182.324904 181.118245 
L 182.324904 180.06975 
L 182.491051 180.06975 
L 182.571697 177.972759 
L 182.622821 177.972759 
L 182.681063 175.35152 
L 182.840218 175.35152 
L 182.944316 172.730281 
L 182.951472 172.730281 
L 182.990776 171.681786 
L 183.136489 171.681786 
L 183.157709 170.633291 
L 183.347524 170.633291 
L 183.347524 170.109043 
L 183.486789 170.109043 
L 183.514507 169.060547 
L 183.618053 169.060547 
L 183.618053 168.5363 
L 183.738074 168.5363 
L 183.843683 166.439309 
L 183.864048 166.439309 
L 183.968888 164.342318 
L 184.019389 164.342318 
L 184.12663 162.769575 
L 184.199971 162.769575 
L 184.256431 161.196832 
L 184.31601 161.196832 
L 184.375384 160.148336 
L 184.457509 160.148336 
L 184.532718 156.478602 
L 184.698323 156.478602 
L 184.791783 154.905859 
L 184.827101 154.905859 
L 184.916675 153.857364 
L 185.110218 153.857364 
L 185.21402 152.808868 
L 185.248482 152.808868 
L 185.342119 151.760373 
L 185.360786 151.760373 
L 185.360786 151.236125 
L 185.481626 151.236125 
L 185.481626 150.711877 
L 185.681156 150.711877 
L 185.681156 150.18763 
L 185.941641 150.18763 
L 186.022614 148.614886 
L 186.076384 148.614886 
L 186.076384 148.090639 
L 186.192313 148.090639 
L 186.254414 147.042143 
L 186.491866 147.042143 
L 186.526767 145.4694 
L 186.662784 145.4694 
L 186.662784 144.945152 
L 186.993948 144.945152 
L 187.058859 143.372409 
L 187.213094 143.372409 
L 187.249348 142.323914 
L 187.374256 142.323914 
L 187.418449 140.751171 
L 187.697545 140.751171 
L 187.74633 139.702675 
L 187.830026 139.702675 
L 187.830026 138.65418 
L 188.054787 138.65418 
L 188.091963 137.605684 
L 188.216184 137.605684 
L 188.216184 136.557189 
L 188.37347 136.557189 
L 188.412568 135.508693 
L 188.668406 135.508693 
L 188.668406 134.984446 
L 188.902788 134.984446 
L 188.902788 134.460198 
L 189.275734 134.460198 
L 189.275734 133.411703 
L 189.504476 133.411703 
L 189.504476 132.887455 
L 189.883857 132.887455 
L 189.883857 132.363207 
L 190.107058 132.363207 
L 190.191778 131.314712 
L 190.23164 131.314712 
L 190.23164 130.266216 
L 190.572525 130.266216 
L 190.572525 129.741969 
L 190.782479 129.741969 
L 190.857168 128.693473 
L 190.956251 128.693473 
L 191.056999 126.072235 
L 191.070388 126.072235 
L 191.070388 125.023739 
L 191.223611 125.023739 
L 191.322808 122.4025 
L 191.366712 122.4025 
L 191.41925 121.354005 
L 191.567241 121.354005 
L 191.567241 120.829757 
L 191.716118 120.829757 
L 191.731149 118.732766 
L 191.870104 118.732766 
L 191.870104 118.208519 
L 192.007945 118.208519 
L 192.073297 117.160023 
L 192.163537 117.160023 
L 192.232472 115.58728 
L 192.30113 115.58728 
L 192.30113 115.063032 
L 192.44381 115.063032 
L 192.513682 112.441794 
L 192.585315 112.441794 
L 192.605726 111.393298 
L 192.79642 111.393298 
L 192.907023 109.296308 
L 192.927056 109.296308 
L 192.927056 108.77206 
L 193.112257 108.77206 
L 193.191303 107.199317 
L 193.234624 107.199317 
L 193.301361 105.102326 
L 193.373693 105.102326 
L 193.373693 104.578078 
L 193.490345 104.578078 
L 193.550307 103.005335 
L 193.606211 103.005335 
L 193.671523 100.908344 
L 193.723213 100.908344 
L 193.723213 100.384096 
L 193.892504 100.384096 
L 193.998176 98.811353 
L 194.048894 98.811353 
L 194.048894 98.287105 
L 194.246574 98.287105 
L 194.246574 97.762858 
L 194.963816 97.762858 
L 194.963816 97.23861 
L 195.174159 97.23861 
L 195.27226 95.665867 
L 195.549502 95.665867 
L 195.604417 94.617371 
L 195.754537 94.617371 
L 195.77321 93.044628 
L 195.928597 93.044628 
L 195.968902 91.471885 
L 196.198843 91.471885 
L 196.269867 90.42339 
L 196.391411 90.42339 
L 196.500722 87.802151 
L 196.510477 87.802151 
L 196.551064 86.753656 
L 196.625495 86.753656 
L 196.720491 84.656665 
L 196.846873 84.656665 
L 196.950166 83.083922 
L 196.97075 83.083922 
L 196.99447 80.462683 
L 197.090598 80.462683 
L 197.142378 79.414188 
L 197.203372 79.414188 
L 197.310757 76.268701 
L 197.440589 76.268701 
L 197.508206 74.695958 
L 197.587776 74.695958 
L 197.587776 73.647463 
L 197.786614 73.647463 
L 197.890427 72.598967 
L 198.069493 72.598967 
L 198.10212 71.550472 
L 198.186367 71.550472 
L 198.268736 69.453481 
L 198.369687 69.453481 
L 198.445376 67.35649 
L 198.500477 67.35649 
L 198.553959 66.307995 
L 198.689088 66.307995 
L 198.736276 65.259499 
L 198.8473 65.259499 
L 198.918093 63.162508 
L 199.084019 63.162508 
L 199.176131 61.589765 
L 199.305093 61.589765 
L 199.396031 60.54127 
L 199.423493 60.54127 
L 199.430352 58.968526 
L 199.628073 58.968526 
L 199.73889 57.920031 
L 199.771189 57.920031 
L 199.771189 56.871536 
L 200.748584 56.871536 
L 200.806915 55.82304 
L 200.907891 55.82304 
L 201.005775 53.201802 
L 201.048269 53.201802 
L 201.048269 52.677554 
L 201.181317 52.677554 
L 201.275197 51.629058 
L 201.351405 51.629058 
L 201.397947 49.532068 
L 201.478485 49.532068 
L 201.584074 47.959324 
L 201.611881 47.959324 
L 201.713055 46.910829 
L 201.91482 46.910829 
L 202.017771 44.28959 
L 202.049596 44.28959 
L 202.049596 43.241095 
L 202.204344 43.241095 
L 202.216011 42.192599 
L 210.870452 42.192599 
L 210.975865 39.571361 
L 211.01016 39.571361 
L 211.100818 37.998618 
L 211.157757 37.998618 
L 211.183387 36.425875 
L 211.292408 36.425875 
L 211.390486 33.804636 
L 211.428742 33.804636 
L 211.530118 31.183397 
L 211.582274 31.183397 
L 211.679389 28.037911 
L 211.696193 28.037911 
L 211.696193 27.513663 
L 333.168 27.513663 
L 333.168 27.513663 
" style="fill:none;stroke:#ff7500;stroke-linecap:square;stroke-width:1.5;"/>
   </g>
   <g id="line2d_52">
    <defs>
     <path d="M 0 -6 
L -1.347084 -1.854102 
L -5.706339 -1.854102 
L -2.179628 0.708204 
L -3.526712 4.854102 
L -0 2.291796 
L 3.526712 4.854102 
L 2.179628 0.708204 
L 5.706339 -1.854102 
L 1.347084 -1.854102 
z
" id="m40ffb22fef" style="stroke:#ff7500;stroke-linejoin:bevel;stroke-width:1.5;"/>
    </defs>
    <g>
     <use style="fill-opacity:0;stroke:#ff7500;stroke-linejoin:bevel;stroke-width:1.5;" x="78.452896" xlink:href="#m40ffb22fef" y="261.328146"/>
     <use style="fill-opacity:0;stroke:#ff7500;stroke-linejoin:bevel;stroke-width:1.5;" x="168.617367" xlink:href="#m40ffb22fef" y="230.397531"/>
     <use style="fill-opacity:0;stroke:#ff7500;stroke-linejoin:bevel;stroke-width:1.5;" x="199.098007" xlink:href="#m40ffb22fef" y="62.114013"/>
     <use style="fill-opacity:0;stroke:#ff7500;stroke-linejoin:bevel;stroke-width:1.5;" x="211.696193" xlink:href="#m40ffb22fef" y="27.513663"/>
     <use style="fill-opacity:0;stroke:#ff7500;stroke-linejoin:bevel;stroke-width:1.5;" x="211.696193" xlink:href="#m40ffb22fef" y="27.513663"/>
     <use style="fill-opacity:0;stroke:#ff7500;stroke-linejoin:bevel;stroke-width:1.5;" x="333.168" xlink:href="#m40ffb22fef" y="27.513663"/>
    </g>
   </g>
   <g id="line2d_53">
    <path style="fill:none;stroke:#ff7500;stroke-linecap:square;stroke-width:1.5;"/>
    <g/>
   </g>
   <g id="line2d_54">
    <path d="M 333.168 27.513663 
L 363.64328 289.532673 
" style="fill:none;stroke:#ff00ff;stroke-linecap:square;stroke-width:1.5;"/>
    <g>
     <use style="fill-opacity:0;stroke:#ff00ff;stroke-linejoin:miter;stroke-width:1.5;" x="333.168" xlink:href="#m3fded10f0b" y="27.513663"/>
     <use style="fill-opacity:0;stroke:#ff00ff;stroke-linejoin:miter;stroke-width:1.5;" x="363.64328" xlink:href="#m3fded10f0b" y="289.532673"/>
    </g>
   </g>
   <g id="line2d_55">
    <path d="M 333.168 27.513663 
L 363.64328 203.975446 
" style="fill:none;stroke:#ff7500;stroke-linecap:square;stroke-width:1.5;"/>
    <g>
     <use style="fill-opacity:0;stroke:#ff7500;stroke-linejoin:bevel;stroke-width:1.5;" x="333.168" xlink:href="#m40ffb22fef" y="27.513663"/>
     <use style="fill-opacity:0;stroke:#ff7500;stroke-linejoin:bevel;stroke-width:1.5;" x="363.64328" xlink:href="#m40ffb22fef" y="203.975446"/>
    </g>
   </g>
   <g id="line2d_56">
    <path d="M 333.168 27.513663 
L 363.64328 118.418218 
" style="fill:none;stroke:#000080;stroke-linecap:square;stroke-width:1.5;"/>
    <g>
     <use style="fill-opacity:0;stroke:#000080;stroke-width:1.5;" x="333.168" xlink:href="#m428552779f" y="27.513663"/>
     <use style="fill-opacity:0;stroke:#000080;stroke-width:1.5;" x="363.64328" xlink:href="#m428552779f" y="118.418218"/>
    </g>
   </g>
   <g id="line2d_57">
    <path d="M 333.168 294.88 
L 333.168 27.513663 
" style="fill:none;stroke:#000000;stroke-linecap:square;stroke-width:1.5;"/>
   </g>
   <g id="patch_3">
    <path d="M 56.12 294.88 
L 56.12 24.84 
" style="fill:none;stroke:#000000;stroke-linecap:square;stroke-linejoin:miter;stroke-width:0.8;"/>
   </g>
   <g id="patch_4">
    <path d="M 333.168 294.88 
L 333.168 24.84 
" style="fill:none;stroke:#000000;stroke-linecap:square;stroke-linejoin:miter;stroke-width:0.8;"/>
   </g>
   <g id="patch_5">
    <path d="M 56.12 294.88 
L 333.168 294.88 
" style="fill:none;stroke:#000000;stroke-linecap:square;stroke-linejoin:miter;stroke-width:0.8;"/>
   </g>
   <g id="patch_6">
    <path d="M 56.12 24.84 
L 333.168 24.84 
" style="fill:none;stroke:#000000;stroke-linecap:square;stroke-linejoin:miter;stroke-width:0.8;"/>
   </g>
   <g id="text_13">
    <!-- SL-4-10 -->
    <defs>
     <path d="M 53.515625 70.515625 
L 53.515625 60.890625 
Q 47.90625 63.578125 42.921875 64.890625 
Q 37.9375 66.21875 33.296875 66.21875 
Q 25.25 66.21875 20.875 63.09375 
Q 16.5 59.96875 16.5 54.203125 
Q 16.5 49.359375 19.40625 46.890625 
Q 22.3125 44.4375 30.421875 42.921875 
L 36.375 41.703125 
Q 47.40625 39.59375 52.65625 34.296875 
Q 57.90625 29 57.90625 20.125 
Q 57.90625 9.515625 50.796875 4.046875 
Q 43.703125 -1.421875 29.984375 -1.421875 
Q 24.8125 -1.421875 18.96875 -0.25 
Q 13.140625 0.921875 6.890625 3.21875 
L 6.890625 13.375 
Q 12.890625 10.015625 18.65625 8.296875 
Q 24.421875 6.59375 29.984375 6.59375 
Q 38.421875 6.59375 43.015625 9.90625 
Q 47.609375 13.234375 47.609375 19.390625 
Q 47.609375 24.75 44.3125 27.78125 
Q 41.015625 30.8125 33.5 32.328125 
L 27.484375 33.5 
Q 16.453125 35.6875 11.515625 40.375 
Q 6.59375 45.0625 6.59375 53.421875 
Q 6.59375 63.09375 13.40625 68.65625 
Q 20.21875 74.21875 32.171875 74.21875 
Q 37.3125 74.21875 42.625 73.28125 
Q 47.953125 72.359375 53.515625 70.515625 
z
" id="DejaVuSans-53"/>
     <path d="M 9.8125 72.90625 
L 19.671875 72.90625 
L 19.671875 8.296875 
L 55.171875 8.296875 
L 55.171875 0 
L 9.8125 0 
z
" id="DejaVuSans-4c"/>
    </defs>
    <g transform="translate(369.18424 294.223611)scale(0.17 -0.17)">
     <use xlink:href="#DejaVuSans-53"/>
     <use x="63.476562" xlink:href="#DejaVuSans-4c"/>
     <use x="119.173828" xlink:href="#DejaVuSans-2d"/>
     <use x="155.257812" xlink:href="#DejaVuSans-34"/>
     <use x="218.880859" xlink:href="#DejaVuSans-2d"/>
     <use x="254.964844" xlink:href="#DejaVuSans-31"/>
     <use x="318.587891" xlink:href="#DejaVuSans-30"/>
    </g>
   </g>
   <g id="text_14">
    <!-- R-SHADE-T -->
    <defs>
     <path d="M 44.390625 34.1875 
Q 47.5625 33.109375 50.5625 29.59375 
Q 53.5625 26.078125 56.59375 19.921875 
L 66.609375 0 
L 56 0 
L 46.6875 18.703125 
Q 43.0625 26.03125 39.671875 28.421875 
Q 36.28125 30.8125 30.421875 30.8125 
L 19.671875 30.8125 
L 19.671875 0 
L 9.8125 0 
L 9.8125 72.90625 
L 32.078125 72.90625 
Q 44.578125 72.90625 50.734375 67.671875 
Q 56.890625 62.453125 56.890625 51.90625 
Q 56.890625 45.015625 53.6875 40.46875 
Q 50.484375 35.9375 44.390625 34.1875 
z
M 19.671875 64.796875 
L 19.671875 38.921875 
L 32.078125 38.921875 
Q 39.203125 38.921875 42.84375 42.21875 
Q 46.484375 45.515625 46.484375 51.90625 
Q 46.484375 58.296875 42.84375 61.546875 
Q 39.203125 64.796875 32.078125 64.796875 
z
" id="DejaVuSans-52"/>
     <path d="M 9.8125 72.90625 
L 19.671875 72.90625 
L 19.671875 43.015625 
L 55.515625 43.015625 
L 55.515625 72.90625 
L 65.375 72.90625 
L 65.375 0 
L 55.515625 0 
L 55.515625 34.71875 
L 19.671875 34.71875 
L 19.671875 0 
L 9.8125 0 
z
" id="DejaVuSans-48"/>
     <path d="M 34.1875 63.1875 
L 20.796875 26.90625 
L 47.609375 26.90625 
z
M 28.609375 72.90625 
L 39.796875 72.90625 
L 67.578125 0 
L 57.328125 0 
L 50.6875 18.703125 
L 17.828125 18.703125 
L 11.1875 0 
L 0.78125 0 
z
" id="DejaVuSans-41"/>
     <path d="M 19.671875 64.796875 
L 19.671875 8.109375 
L 31.59375 8.109375 
Q 46.6875 8.109375 53.6875 14.9375 
Q 60.6875 21.78125 60.6875 36.53125 
Q 60.6875 51.171875 53.6875 57.984375 
Q 46.6875 64.796875 31.59375 64.796875 
z
M 9.8125 72.90625 
L 30.078125 72.90625 
Q 51.265625 72.90625 61.171875 64.09375 
Q 71.09375 55.28125 71.09375 36.53125 
Q 71.09375 17.671875 61.125 8.828125 
Q 51.171875 0 30.078125 0 
L 9.8125 0 
z
" id="DejaVuSans-44"/>
     <path d="M 9.8125 72.90625 
L 55.90625 72.90625 
L 55.90625 64.59375 
L 19.671875 64.59375 
L 19.671875 43.015625 
L 54.390625 43.015625 
L 54.390625 34.71875 
L 19.671875 34.71875 
L 19.671875 8.296875 
L 56.78125 8.296875 
L 56.78125 0 
L 9.8125 0 
z
" id="DejaVuSans-45"/>
     <path d="M -0.296875 72.90625 
L 61.375 72.90625 
L 61.375 64.59375 
L 35.5 64.59375 
L 35.5 0 
L 25.59375 0 
L 25.59375 64.59375 
L -0.296875 64.59375 
z
" id="DejaVuSans-54"/>
    </defs>
    <g transform="translate(369.18424 208.666383)scale(0.17 -0.17)">
     <use xlink:href="#DejaVuSans-52"/>
     <use x="69.419922" xlink:href="#DejaVuSans-2d"/>
     <use x="105.503906" xlink:href="#DejaVuSans-53"/>
     <use x="168.980469" xlink:href="#DejaVuSans-48"/>
     <use x="244.175781" xlink:href="#DejaVuSans-41"/>
     <use x="312.583984" xlink:href="#DejaVuSans-44"/>
     <use x="389.585938" xlink:href="#DejaVuSans-45"/>
     <use x="452.769531" xlink:href="#DejaVuSans-2d"/>
     <use x="488.712891" xlink:href="#DejaVuSans-54"/>
    </g>
   </g>
   <g id="text_15">
    <!-- SL-10 -->
    <g transform="translate(369.18424 123.109155)scale(0.17 -0.17)">
     <use xlink:href="#DejaVuSans-53"/>
     <use x="63.476562" xlink:href="#DejaVuSans-4c"/>
     <use x="119.173828" xlink:href="#DejaVuSans-2d"/>
     <use x="155.257812" xlink:href="#DejaVuSans-31"/>
     <use x="218.880859" xlink:href="#DejaVuSans-30"/>
    </g>
   </g>
   <g id="text_16">
    <!-- best 2009 -->
    <defs>
     <path d="M 48.6875 27.296875 
Q 48.6875 37.203125 44.609375 42.84375 
Q 40.53125 48.484375 33.40625 48.484375 
Q 26.265625 48.484375 22.1875 42.84375 
Q 18.109375 37.203125 18.109375 27.296875 
Q 18.109375 17.390625 22.1875 11.75 
Q 26.265625 6.109375 33.40625 6.109375 
Q 40.53125 6.109375 44.609375 11.75 
Q 48.6875 17.390625 48.6875 27.296875 
z
M 18.109375 46.390625 
Q 20.953125 51.265625 25.265625 53.625 
Q 29.59375 56 35.59375 56 
Q 45.5625 56 51.78125 48.09375 
Q 58.015625 40.1875 58.015625 27.296875 
Q 58.015625 14.40625 51.78125 6.484375 
Q 45.5625 -1.421875 35.59375 -1.421875 
Q 29.59375 -1.421875 25.265625 0.953125 
Q 20.953125 3.328125 18.109375 8.203125 
L 18.109375 0 
L 9.078125 0 
L 9.078125 75.984375 
L 18.109375 75.984375 
z
" id="DejaVuSans-62"/>
     <path d="M 10.984375 1.515625 
L 10.984375 10.5 
Q 14.703125 8.734375 18.5 7.8125 
Q 22.3125 6.890625 25.984375 6.890625 
Q 35.75 6.890625 40.890625 13.453125 
Q 46.046875 20.015625 46.78125 33.40625 
Q 43.953125 29.203125 39.59375 26.953125 
Q 35.25 24.703125 29.984375 24.703125 
Q 19.046875 24.703125 12.671875 31.3125 
Q 6.296875 37.9375 6.296875 49.421875 
Q 6.296875 60.640625 12.9375 67.421875 
Q 19.578125 74.21875 30.609375 74.21875 
Q 43.265625 74.21875 49.921875 64.515625 
Q 56.59375 54.828125 56.59375 36.375 
Q 56.59375 19.140625 48.40625 8.859375 
Q 40.234375 -1.421875 26.421875 -1.421875 
Q 22.703125 -1.421875 18.890625 -0.6875 
Q 15.09375 0.046875 10.984375 1.515625 
z
M 30.609375 32.421875 
Q 37.25 32.421875 41.125 36.953125 
Q 45.015625 41.5 45.015625 49.421875 
Q 45.015625 57.28125 41.125 61.84375 
Q 37.25 66.40625 30.609375 66.40625 
Q 23.96875 66.40625 20.09375 61.84375 
Q 16.21875 57.28125 16.21875 49.421875 
Q 16.21875 41.5 20.09375 36.953125 
Q 23.96875 32.421875 30.609375 32.421875 
z
" id="DejaVuSans-39"/>
    </defs>
    <g transform="translate(369.18424 37.551928)scale(0.17 -0.17)">
     <use xlink:href="#DejaVuSans-62"/>
     <use x="63.476562" xlink:href="#DejaVuSans-65"/>
     <use x="125" xlink:href="#DejaVuSans-73"/>
     <use x="177.099609" xlink:href="#DejaVuSans-74"/>
     <use x="216.308594" xlink:href="#DejaVuSans-20"/>
     <use x="248.095703" xlink:href="#DejaVuSans-32"/>
     <use x="311.71875" xlink:href="#DejaVuSans-30"/>
     <use x="375.341797" xlink:href="#DejaVuSans-30"/>
     <use x="438.964844" xlink:href="#DejaVuSans-39"/>
    </g>
   </g>
   <g id="text_17">
    <!-- bbob f23, 3-D -->
    <defs>
     <path d="M 40.578125 39.3125 
Q 47.65625 37.796875 51.625 33 
Q 55.609375 28.21875 55.609375 21.1875 
Q 55.609375 10.40625 48.1875 4.484375 
Q 40.765625 -1.421875 27.09375 -1.421875 
Q 22.515625 -1.421875 17.65625 -0.515625 
Q 12.796875 0.390625 7.625 2.203125 
L 7.625 11.71875 
Q 11.71875 9.328125 16.59375 8.109375 
Q 21.484375 6.890625 26.8125 6.890625 
Q 36.078125 6.890625 40.9375 10.546875 
Q 45.796875 14.203125 45.796875 21.1875 
Q 45.796875 27.640625 41.28125 31.265625 
Q 36.765625 34.90625 28.71875 34.90625 
L 20.21875 34.90625 
L 20.21875 43.015625 
L 29.109375 43.015625 
Q 36.375 43.015625 40.234375 45.921875 
Q 44.09375 48.828125 44.09375 54.296875 
Q 44.09375 59.90625 40.109375 62.90625 
Q 36.140625 65.921875 28.71875 65.921875 
Q 24.65625 65.921875 20.015625 65.03125 
Q 15.375 64.15625 9.8125 62.3125 
L 9.8125 71.09375 
Q 15.4375 72.65625 20.34375 73.4375 
Q 25.25 74.21875 29.59375 74.21875 
Q 40.828125 74.21875 47.359375 69.109375 
Q 53.90625 64.015625 53.90625 55.328125 
Q 53.90625 49.265625 50.4375 45.09375 
Q 46.96875 40.921875 40.578125 39.3125 
z
" id="DejaVuSans-33"/>
    </defs>
    <g transform="translate(58.89048 35.290806)scale(0.102 -0.102)">
     <use xlink:href="#DejaVuSans-62"/>
     <use x="63.476562" xlink:href="#DejaVuSans-62"/>
     <use x="126.953125" xlink:href="#DejaVuSans-6f"/>
     <use x="188.134766" xlink:href="#DejaVuSans-62"/>
     <use x="251.611328" xlink:href="#DejaVuSans-20"/>
     <use x="283.398438" xlink:href="#DejaVuSans-66"/>
     <use x="318.603516" xlink:href="#DejaVuSans-32"/>
     <use x="382.226562" xlink:href="#DejaVuSans-33"/>
     <use x="445.849609" xlink:href="#DejaVuSans-2c"/>
     <use x="477.636719" xlink:href="#DejaVuSans-20"/>
     <use x="509.423828" xlink:href="#DejaVuSans-33"/>
     <use x="573.046875" xlink:href="#DejaVuSans-2d"/>
     <use x="609.130859" xlink:href="#DejaVuSans-44"/>
    </g>
    <!-- 51 targets: 100..1e-08 -->
    <defs>
     <path d="M 10.796875 72.90625 
L 49.515625 72.90625 
L 49.515625 64.59375 
L 19.828125 64.59375 
L 19.828125 46.734375 
Q 21.96875 47.46875 24.109375 47.828125 
Q 26.265625 48.1875 28.421875 48.1875 
Q 40.625 48.1875 47.75 41.5 
Q 54.890625 34.8125 54.890625 23.390625 
Q 54.890625 11.625 47.5625 5.09375 
Q 40.234375 -1.421875 26.90625 -1.421875 
Q 22.3125 -1.421875 17.546875 -0.640625 
Q 12.796875 0.140625 7.71875 1.703125 
L 7.71875 11.625 
Q 12.109375 9.234375 16.796875 8.0625 
Q 21.484375 6.890625 26.703125 6.890625 
Q 35.15625 6.890625 40.078125 11.328125 
Q 45.015625 15.765625 45.015625 23.390625 
Q 45.015625 31 40.078125 35.4375 
Q 35.15625 39.890625 26.703125 39.890625 
Q 22.75 39.890625 18.8125 39.015625 
Q 14.890625 38.140625 10.796875 36.28125 
z
" id="DejaVuSans-35"/>
     <path d="M 11.71875 12.40625 
L 22.015625 12.40625 
L 22.015625 0 
L 11.71875 0 
z
M 11.71875 51.703125 
L 22.015625 51.703125 
L 22.015625 39.3125 
L 11.71875 39.3125 
z
" id="DejaVuSans-3a"/>
    </defs>
    <g transform="translate(58.89048 46.712575)scale(0.102 -0.102)">
     <use xlink:href="#DejaVuSans-35"/>
     <use x="63.623047" xlink:href="#DejaVuSans-31"/>
     <use x="127.246094" xlink:href="#DejaVuSans-20"/>
     <use x="159.033203" xlink:href="#DejaVuSans-74"/>
     <use x="198.242188" xlink:href="#DejaVuSans-61"/>
     <use x="259.521484" xlink:href="#DejaVuSans-72"/>
     <use x="300.619141" xlink:href="#DejaVuSans-67"/>
     <use x="364.095703" xlink:href="#DejaVuSans-65"/>
     <use x="425.619141" xlink:href="#DejaVuSans-74"/>
     <use x="464.828125" xlink:href="#DejaVuSans-73"/>
     <use x="516.927734" xlink:href="#DejaVuSans-3a"/>
     <use x="550.619141" xlink:href="#DejaVuSans-20"/>
     <use x="582.40625" xlink:href="#DejaVuSans-31"/>
     <use x="646.029297" xlink:href="#DejaVuSans-30"/>
     <use x="709.652344" xlink:href="#DejaVuSans-30"/>
     <use x="773.275391" xlink:href="#DejaVuSans-2e"/>
     <use x="805.0625" xlink:href="#DejaVuSans-2e"/>
     <use x="836.849609" xlink:href="#DejaVuSans-31"/>
     <use x="900.472656" xlink:href="#DejaVuSans-65"/>
     <use x="961.996094" xlink:href="#DejaVuSans-2d"/>
     <use x="998.080078" xlink:href="#DejaVuSans-30"/>
     <use x="1061.703125" xlink:href="#DejaVuSans-38"/>
    </g>
    <!-- 15 instances -->
    <g transform="translate(58.89048 58.134344)scale(0.102 -0.102)">
     <use xlink:href="#DejaVuSans-31"/>
     <use x="63.623047" xlink:href="#DejaVuSans-35"/>
     <use x="127.246094" xlink:href="#DejaVuSans-20"/>
     <use x="159.033203" xlink:href="#DejaVuSans-69"/>
     <use x="186.816406" xlink:href="#DejaVuSans-6e"/>
     <use x="250.195312" xlink:href="#DejaVuSans-73"/>
     <use x="302.294922" xlink:href="#DejaVuSans-74"/>
     <use x="341.503906" xlink:href="#DejaVuSans-61"/>
     <use x="402.783203" xlink:href="#DejaVuSans-6e"/>
     <use x="466.162109" xlink:href="#DejaVuSans-63"/>
     <use x="521.142578" xlink:href="#DejaVuSans-65"/>
     <use x="582.666016" xlink:href="#DejaVuSans-73"/>
    </g>
   </g>
   <g id="text_18">
    <!-- v2.4 -->
    <g style="fill:#808080;" transform="translate(183.733063 290.099912)scale(0.1 -0.1)">
     <use xlink:href="#DejaVuSans-76"/>
     <use x="59.179688" xlink:href="#DejaVuSans-32"/>
     <use x="122.802734" xlink:href="#DejaVuSans-2e"/>
     <use x="154.589844" xlink:href="#DejaVuSans-34"/>
    </g>
   </g>
   <g id="text_19">
    <!-- 23 Katsuuras -->
    <defs>
     <path d="M 9.8125 72.90625 
L 19.671875 72.90625 
L 19.671875 42.09375 
L 52.390625 72.90625 
L 65.09375 72.90625 
L 28.90625 38.921875 
L 67.671875 0 
L 54.6875 0 
L 19.671875 35.109375 
L 19.671875 0 
L 9.8125 0 
z
" id="DejaVuSans-4b"/>
    </defs>
    <g transform="translate(128.803375 18.84)scale(0.2 -0.2)">
     <use xlink:href="#DejaVuSans-32"/>
     <use x="63.623047" xlink:href="#DejaVuSans-33"/>
     <use x="127.246094" xlink:href="#DejaVuSans-20"/>
     <use x="159.033203" xlink:href="#DejaVuSans-4b"/>
     <use x="224.59375" xlink:href="#DejaVuSans-61"/>
     <use x="285.873047" xlink:href="#DejaVuSans-74"/>
     <use x="325.082031" xlink:href="#DejaVuSans-73"/>
     <use x="377.181641" xlink:href="#DejaVuSans-75"/>
     <use x="440.560547" xlink:href="#DejaVuSans-75"/>
     <use x="503.939453" xlink:href="#DejaVuSans-72"/>
     <use x="545.052734" xlink:href="#DejaVuSans-61"/>
     <use x="606.332031" xlink:href="#DejaVuSans-73"/>
    </g>
   </g>
  </g>
 </g>
 <defs>
  <clipPath id="p78a05c95f2">
   <rect height="270.04" width="277.048" x="56.12" y="24.84"/>
  </clipPath>
 </defs>
</svg>
