<?xml version="1.0" encoding="utf-8" standalone="no"?>
<!DOCTYPE svg PUBLIC "-//W3C//DTD SVG 1.1//EN"
  "http://www.w3.org/Graphics/SVG/1.1/DTD/svg11.dtd">
<!-- Created with matplotlib (http://matplotlib.org/) -->
<svg height="345.6pt" version="1.1" viewBox="0 0 460.8 345.6" width="460.8pt" xmlns="http://www.w3.org/2000/svg" xmlns:xlink="http://www.w3.org/1999/xlink">
 <defs>
  <style type="text/css">
*{stroke-linecap:butt;stroke-linejoin:round;}
  </style>
 </defs>
 <g id="figure_1">
  <g id="patch_1">
   <path d="M 0 345.6 
L 460.8 345.6 
L 460.8 0 
L 0 0 
z
" style="fill:#ffffff;"/>
  </g>
  <g id="axes_1">
   <g id="patch_2">
    <path d="M 56.12 294.88 
L 333.168 294.88 
L 333.168 24.84 
L 56.12 24.84 
z
" style="fill:#ffffff;"/>
   </g>
   <g id="line2d_1">
    <path d="M 72.543934 294.88 
L 72.543934 289.637523 
L 83.08236 289.637523 
L 83.08236 284.395046 
L 97.336537 284.395046 
L 97.336537 279.152568 
L 118.735356 279.152568 
L 118.735356 273.910091 
L 125.854083 273.910091 
L 125.854083 268.667614 
L 135.650622 268.667614 
L 135.650622 263.425137 
L 150.035789 263.425137 
L 150.035789 258.18266 
L 161.137241 258.18266 
L 161.137241 252.940182 
L 173.108667 252.940182 
L 173.108667 247.697705 
L 184.992448 247.697705 
L 184.992448 242.455228 
L 185.54019 242.455228 
L 185.54019 237.212751 
L 197.776349 237.212751 
L 197.776349 231.970274 
L 197.903622 231.970274 
L 197.903622 226.727797 
L 198.001369 226.727797 
L 198.001369 221.485319 
L 198.066523 221.485319 
L 198.066523 216.242842 
L 198.132319 216.242842 
L 198.132319 211.000365 
L 198.213769 211.000365 
L 198.213769 205.757888 
L 198.300109 205.757888 
L 198.300109 200.515411 
L 198.377271 200.515411 
L 198.377271 195.272933 
L 198.414849 195.272933 
L 198.414849 190.030456 
L 198.461054 190.030456 
L 198.461054 184.787979 
L 198.56175 184.787979 
L 198.56175 179.545502 
L 198.602382 179.545502 
L 198.602382 174.303025 
L 198.659279 174.303025 
L 198.659279 169.060547 
L 198.685938 169.060547 
L 198.685938 163.81807 
L 198.745984 163.81807 
L 198.745984 158.575593 
L 198.810087 158.575593 
L 198.810087 153.333116 
L 198.877352 153.333116 
L 198.877352 148.090639 
L 198.934193 148.090639 
L 198.934193 142.848162 
L 198.990003 142.848162 
L 198.990003 137.605684 
L 199.038899 137.605684 
L 199.038899 132.363207 
L 199.063295 132.363207 
L 199.063295 127.12073 
L 199.15301 127.12073 
L 199.15301 121.878253 
L 199.228109 121.878253 
L 199.228109 116.635776 
L 199.282975 116.635776 
L 199.282975 111.393298 
L 199.331873 111.393298 
L 199.331873 106.150821 
L 199.369901 106.150821 
L 199.369901 100.908344 
L 199.4309 100.908344 
L 199.4309 95.665867 
L 199.506437 95.665867 
L 199.506437 90.42339 
L 199.520359 90.42339 
L 199.520359 85.180912 
L 199.575932 85.180912 
L 199.575932 79.938435 
L 199.64271 79.938435 
L 199.64271 74.695958 
L 199.69708 74.695958 
L 199.69708 69.453481 
L 199.715704 69.453481 
L 199.715704 64.211004 
L 199.772265 64.211004 
L 199.772265 58.968526 
L 199.813356 58.968526 
L 199.813356 53.726049 
L 199.892041 53.726049 
L 199.892041 48.483572 
L 199.956806 48.483572 
L 199.956806 43.241095 
L 199.971962 43.241095 
L 199.971962 37.998618 
L 200.038016 37.998618 
L 200.038016 32.756141 
L 200.09511 32.756141 
L 200.09511 27.513663 
L 333.168 27.513663 
" style="fill:none;stroke:#f5deb3;stroke-linecap:square;stroke-width:4;"/>
   </g>
   <g id="line2d_2">
    <defs>
     <path d="M -0 7.778175 
L 7.778175 0 
L 0 -7.778175 
L -7.778175 -0 
z
" id="m002e19ce45" style="stroke:#f5deb3;stroke-linejoin:miter;stroke-width:1.5;"/>
    </defs>
    <g>
     <use style="fill:#f5deb3;stroke:#f5deb3;stroke-linejoin:miter;stroke-width:1.5;" x="173.108667" xlink:href="#m002e19ce45" y="252.940182"/>
     <use style="fill:#f5deb3;stroke:#f5deb3;stroke-linejoin:miter;stroke-width:1.5;" x="199.228109" xlink:href="#m002e19ce45" y="121.878253"/>
     <use style="fill:#f5deb3;stroke:#f5deb3;stroke-linejoin:miter;stroke-width:1.5;" x="200.09511" xlink:href="#m002e19ce45" y="32.756141"/>
     <use style="fill:#f5deb3;stroke:#f5deb3;stroke-linejoin:miter;stroke-width:1.5;" x="200.09511" xlink:href="#m002e19ce45" y="27.513663"/>
     <use style="fill:#f5deb3;stroke:#f5deb3;stroke-linejoin:miter;stroke-width:1.5;" x="333.168" xlink:href="#m002e19ce45" y="27.513663"/>
    </g>
   </g>
   <g id="line2d_3">
    <path style="fill:none;stroke:#f5deb3;stroke-linecap:square;stroke-width:4;"/>
    <g/>
   </g>
   <g id="line2d_4">
    <path d="M 333.168 27.513663 
L 363.64328 32.86099 
" style="fill:none;stroke:#f5deb3;stroke-linecap:square;stroke-width:4;"/>
    <g>
     <use style="fill:#f5deb3;stroke:#f5deb3;stroke-linejoin:miter;stroke-width:1.5;" x="333.168" xlink:href="#m002e19ce45" y="27.513663"/>
     <use style="fill:#f5deb3;stroke:#f5deb3;stroke-linejoin:miter;stroke-width:1.5;" x="363.64328" xlink:href="#m002e19ce45" y="32.86099"/>
    </g>
   </g>
   <g id="matplotlib.axis_1">
    <g id="xtick_1">
     <g id="line2d_5">
      <path clip-path="url(#pcd9bc8a403)" d="M 56.12 294.88 
L 56.12 24.84 
" style="fill:none;stroke:#b0b0b0;stroke-linecap:square;stroke-width:0.8;"/>
     </g>
     <g id="line2d_6">
      <defs>
       <path d="M 0 0 
L 0 3.5 
" id="m25ee2d5f72" style="stroke:#000000;stroke-width:0.8;"/>
      </defs>
      <g>
       <use style="stroke:#000000;stroke-width:0.8;" x="56.12" xlink:href="#m25ee2d5f72" y="294.88"/>
      </g>
     </g>
     <g id="text_1">
      <!-- 0 -->
      <defs>
       <path d="M 31.78125 66.40625 
Q 24.171875 66.40625 20.328125 58.90625 
Q 16.5 51.421875 16.5 36.375 
Q 16.5 21.390625 20.328125 13.890625 
Q 24.171875 6.390625 31.78125 6.390625 
Q 39.453125 6.390625 43.28125 13.890625 
Q 47.125 21.390625 47.125 36.375 
Q 47.125 51.421875 43.28125 58.90625 
Q 39.453125 66.40625 31.78125 66.40625 
z
M 31.78125 74.21875 
Q 44.046875 74.21875 50.515625 64.515625 
Q 56.984375 54.828125 56.984375 36.375 
Q 56.984375 17.96875 50.515625 8.265625 
Q 44.046875 -1.421875 31.78125 -1.421875 
Q 19.53125 -1.421875 13.0625 8.265625 
Q 6.59375 17.96875 6.59375 36.375 
Q 6.59375 54.828125 13.0625 64.515625 
Q 19.53125 74.21875 31.78125 74.21875 
z
" id="DejaVuSans-30"/>
      </defs>
      <g transform="translate(49.7575 317.076875)scale(0.2 -0.2)">
       <use xlink:href="#DejaVuSans-30"/>
      </g>
     </g>
    </g>
    <g id="xtick_2">
     <g id="line2d_7">
      <path clip-path="url(#pcd9bc8a403)" d="M 135.276571 294.88 
L 135.276571 24.84 
" style="fill:none;stroke:#b0b0b0;stroke-linecap:square;stroke-width:0.8;"/>
     </g>
     <g id="line2d_8">
      <g>
       <use style="stroke:#000000;stroke-width:0.8;" x="135.276571" xlink:href="#m25ee2d5f72" y="294.88"/>
      </g>
     </g>
     <g id="text_2">
      <!-- 2 -->
      <defs>
       <path d="M 19.1875 8.296875 
L 53.609375 8.296875 
L 53.609375 0 
L 7.328125 0 
L 7.328125 8.296875 
Q 12.9375 14.109375 22.625 23.890625 
Q 32.328125 33.6875 34.8125 36.53125 
Q 39.546875 41.84375 41.421875 45.53125 
Q 43.3125 49.21875 43.3125 52.78125 
Q 43.3125 58.59375 39.234375 62.25 
Q 35.15625 65.921875 28.609375 65.921875 
Q 23.96875 65.921875 18.8125 64.3125 
Q 13.671875 62.703125 7.8125 59.421875 
L 7.8125 69.390625 
Q 13.765625 71.78125 18.9375 73 
Q 24.125 74.21875 28.421875 74.21875 
Q 39.75 74.21875 46.484375 68.546875 
Q 53.21875 62.890625 53.21875 53.421875 
Q 53.21875 48.921875 51.53125 44.890625 
Q 49.859375 40.875 45.40625 35.40625 
Q 44.1875 33.984375 37.640625 27.21875 
Q 31.109375 20.453125 19.1875 8.296875 
z
" id="DejaVuSans-32"/>
      </defs>
      <g transform="translate(128.914071 317.076875)scale(0.2 -0.2)">
       <use xlink:href="#DejaVuSans-32"/>
      </g>
     </g>
    </g>
    <g id="xtick_3">
     <g id="line2d_9">
      <path clip-path="url(#pcd9bc8a403)" d="M 214.433143 294.88 
L 214.433143 24.84 
" style="fill:none;stroke:#b0b0b0;stroke-linecap:square;stroke-width:0.8;"/>
     </g>
     <g id="line2d_10">
      <g>
       <use style="stroke:#000000;stroke-width:0.8;" x="214.433143" xlink:href="#m25ee2d5f72" y="294.88"/>
      </g>
     </g>
     <g id="text_3">
      <!-- 4 -->
      <defs>
       <path d="M 37.796875 64.3125 
L 12.890625 25.390625 
L 37.796875 25.390625 
z
M 35.203125 72.90625 
L 47.609375 72.90625 
L 47.609375 25.390625 
L 58.015625 25.390625 
L 58.015625 17.1875 
L 47.609375 17.1875 
L 47.609375 0 
L 37.796875 0 
L 37.796875 17.1875 
L 4.890625 17.1875 
L 4.890625 26.703125 
z
" id="DejaVuSans-34"/>
      </defs>
      <g transform="translate(208.070643 317.076875)scale(0.2 -0.2)">
       <use xlink:href="#DejaVuSans-34"/>
      </g>
     </g>
    </g>
    <g id="xtick_4">
     <g id="line2d_11">
      <path clip-path="url(#pcd9bc8a403)" d="M 293.589714 294.88 
L 293.589714 24.84 
" style="fill:none;stroke:#b0b0b0;stroke-linecap:square;stroke-width:0.8;"/>
     </g>
     <g id="line2d_12">
      <g>
       <use style="stroke:#000000;stroke-width:0.8;" x="293.589714" xlink:href="#m25ee2d5f72" y="294.88"/>
      </g>
     </g>
     <g id="text_4">
      <!-- 6 -->
      <defs>
       <path d="M 33.015625 40.375 
Q 26.375 40.375 22.484375 35.828125 
Q 18.609375 31.296875 18.609375 23.390625 
Q 18.609375 15.53125 22.484375 10.953125 
Q 26.375 6.390625 33.015625 6.390625 
Q 39.65625 6.390625 43.53125 10.953125 
Q 47.40625 15.53125 47.40625 23.390625 
Q 47.40625 31.296875 43.53125 35.828125 
Q 39.65625 40.375 33.015625 40.375 
z
M 52.59375 71.296875 
L 52.59375 62.3125 
Q 48.875 64.0625 45.09375 64.984375 
Q 41.3125 65.921875 37.59375 65.921875 
Q 27.828125 65.921875 22.671875 59.328125 
Q 17.53125 52.734375 16.796875 39.40625 
Q 19.671875 43.65625 24.015625 45.921875 
Q 28.375 48.1875 33.59375 48.1875 
Q 44.578125 48.1875 50.953125 41.515625 
Q 57.328125 34.859375 57.328125 23.390625 
Q 57.328125 12.15625 50.6875 5.359375 
Q 44.046875 -1.421875 33.015625 -1.421875 
Q 20.359375 -1.421875 13.671875 8.265625 
Q 6.984375 17.96875 6.984375 36.375 
Q 6.984375 53.65625 15.1875 63.9375 
Q 23.390625 74.21875 37.203125 74.21875 
Q 40.921875 74.21875 44.703125 73.484375 
Q 48.484375 72.75 52.59375 71.296875 
z
" id="DejaVuSans-36"/>
      </defs>
      <g transform="translate(287.227214 317.076875)scale(0.2 -0.2)">
       <use xlink:href="#DejaVuSans-36"/>
      </g>
     </g>
    </g>
    <g id="xtick_5">
     <g id="line2d_13">
      <path clip-path="url(#pcd9bc8a403)" d="M 56.12 294.88 
L 56.12 24.84 
" style="fill:none;stroke:#b0b0b0;stroke-linecap:square;stroke-width:0.8;"/>
     </g>
     <g id="line2d_14">
      <defs>
       <path d="M 0 0 
L 0 2 
" id="m7dfff762c1" style="stroke:#000000;stroke-width:0.6;"/>
      </defs>
      <g>
       <use style="stroke:#000000;stroke-width:0.6;" x="56.12" xlink:href="#m7dfff762c1" y="294.88"/>
      </g>
     </g>
    </g>
    <g id="xtick_6">
     <g id="line2d_15">
      <path clip-path="url(#pcd9bc8a403)" d="M 95.698286 294.88 
L 95.698286 24.84 
" style="fill:none;stroke:#b0b0b0;stroke-linecap:square;stroke-width:0.8;"/>
     </g>
     <g id="line2d_16">
      <g>
       <use style="stroke:#000000;stroke-width:0.6;" x="95.698286" xlink:href="#m7dfff762c1" y="294.88"/>
      </g>
     </g>
    </g>
    <g id="xtick_7">
     <g id="line2d_17">
      <path clip-path="url(#pcd9bc8a403)" d="M 135.276571 294.88 
L 135.276571 24.84 
" style="fill:none;stroke:#b0b0b0;stroke-linecap:square;stroke-width:0.8;"/>
     </g>
     <g id="line2d_18">
      <g>
       <use style="stroke:#000000;stroke-width:0.6;" x="135.276571" xlink:href="#m7dfff762c1" y="294.88"/>
      </g>
     </g>
    </g>
    <g id="xtick_8">
     <g id="line2d_19">
      <path clip-path="url(#pcd9bc8a403)" d="M 174.854857 294.88 
L 174.854857 24.84 
" style="fill:none;stroke:#b0b0b0;stroke-linecap:square;stroke-width:0.8;"/>
     </g>
     <g id="line2d_20">
      <g>
       <use style="stroke:#000000;stroke-width:0.6;" x="174.854857" xlink:href="#m7dfff762c1" y="294.88"/>
      </g>
     </g>
    </g>
    <g id="xtick_9">
     <g id="line2d_21">
      <path clip-path="url(#pcd9bc8a403)" d="M 214.433143 294.88 
L 214.433143 24.84 
" style="fill:none;stroke:#b0b0b0;stroke-linecap:square;stroke-width:0.8;"/>
     </g>
     <g id="line2d_22">
      <g>
       <use style="stroke:#000000;stroke-width:0.6;" x="214.433143" xlink:href="#m7dfff762c1" y="294.88"/>
      </g>
     </g>
    </g>
    <g id="xtick_10">
     <g id="line2d_23">
      <path clip-path="url(#pcd9bc8a403)" d="M 254.011429 294.88 
L 254.011429 24.84 
" style="fill:none;stroke:#b0b0b0;stroke-linecap:square;stroke-width:0.8;"/>
     </g>
     <g id="line2d_24">
      <g>
       <use style="stroke:#000000;stroke-width:0.6;" x="254.011429" xlink:href="#m7dfff762c1" y="294.88"/>
      </g>
     </g>
    </g>
    <g id="xtick_11">
     <g id="line2d_25">
      <path clip-path="url(#pcd9bc8a403)" d="M 293.589714 294.88 
L 293.589714 24.84 
" style="fill:none;stroke:#b0b0b0;stroke-linecap:square;stroke-width:0.8;"/>
     </g>
     <g id="line2d_26">
      <g>
       <use style="stroke:#000000;stroke-width:0.6;" x="293.589714" xlink:href="#m7dfff762c1" y="294.88"/>
      </g>
     </g>
    </g>
    <g id="xtick_12">
     <g id="line2d_27">
      <path clip-path="url(#pcd9bc8a403)" d="M 333.168 294.88 
L 333.168 24.84 
" style="fill:none;stroke:#b0b0b0;stroke-linecap:square;stroke-width:0.8;"/>
     </g>
     <g id="line2d_28">
      <g>
       <use style="stroke:#000000;stroke-width:0.6;" x="333.168" xlink:href="#m7dfff762c1" y="294.88"/>
      </g>
     </g>
    </g>
    <g id="text_5">
     <!-- log10(# f-evals / dimension) -->
     <defs>
      <path d="M 9.421875 75.984375 
L 18.40625 75.984375 
L 18.40625 0 
L 9.421875 0 
z
" id="DejaVuSans-6c"/>
      <path d="M 30.609375 48.390625 
Q 23.390625 48.390625 19.1875 42.75 
Q 14.984375 37.109375 14.984375 27.296875 
Q 14.984375 17.484375 19.15625 11.84375 
Q 23.34375 6.203125 30.609375 6.203125 
Q 37.796875 6.203125 41.984375 11.859375 
Q 46.1875 17.53125 46.1875 27.296875 
Q 46.1875 37.015625 41.984375 42.703125 
Q 37.796875 48.390625 30.609375 48.390625 
z
M 30.609375 56 
Q 42.328125 56 49.015625 48.375 
Q 55.71875 40.765625 55.71875 27.296875 
Q 55.71875 13.875 49.015625 6.21875 
Q 42.328125 -1.421875 30.609375 -1.421875 
Q 18.84375 -1.421875 12.171875 6.21875 
Q 5.515625 13.875 5.515625 27.296875 
Q 5.515625 40.765625 12.171875 48.375 
Q 18.84375 56 30.609375 56 
z
" id="DejaVuSans-6f"/>
      <path d="M 45.40625 27.984375 
Q 45.40625 37.75 41.375 43.109375 
Q 37.359375 48.484375 30.078125 48.484375 
Q 22.859375 48.484375 18.828125 43.109375 
Q 14.796875 37.75 14.796875 27.984375 
Q 14.796875 18.265625 18.828125 12.890625 
Q 22.859375 7.515625 30.078125 7.515625 
Q 37.359375 7.515625 41.375 12.890625 
Q 45.40625 18.265625 45.40625 27.984375 
z
M 54.390625 6.78125 
Q 54.390625 -7.171875 48.1875 -13.984375 
Q 42 -20.796875 29.203125 -20.796875 
Q 24.46875 -20.796875 20.265625 -20.09375 
Q 16.0625 -19.390625 12.109375 -17.921875 
L 12.109375 -9.1875 
Q 16.0625 -11.328125 19.921875 -12.34375 
Q 23.78125 -13.375 27.78125 -13.375 
Q 36.625 -13.375 41.015625 -8.765625 
Q 45.40625 -4.15625 45.40625 5.171875 
L 45.40625 9.625 
Q 42.625 4.78125 38.28125 2.390625 
Q 33.9375 0 27.875 0 
Q 17.828125 0 11.671875 7.65625 
Q 5.515625 15.328125 5.515625 27.984375 
Q 5.515625 40.671875 11.671875 48.328125 
Q 17.828125 56 27.875 56 
Q 33.9375 56 38.28125 53.609375 
Q 42.625 51.21875 45.40625 46.390625 
L 45.40625 54.6875 
L 54.390625 54.6875 
z
" id="DejaVuSans-67"/>
      <path d="M 12.40625 8.296875 
L 28.515625 8.296875 
L 28.515625 63.921875 
L 10.984375 60.40625 
L 10.984375 69.390625 
L 28.421875 72.90625 
L 38.28125 72.90625 
L 38.28125 8.296875 
L 54.390625 8.296875 
L 54.390625 0 
L 12.40625 0 
z
" id="DejaVuSans-31"/>
      <path d="M 31 75.875 
Q 24.46875 64.65625 21.28125 53.65625 
Q 18.109375 42.671875 18.109375 31.390625 
Q 18.109375 20.125 21.3125 9.0625 
Q 24.515625 -2 31 -13.1875 
L 23.1875 -13.1875 
Q 15.875 -1.703125 12.234375 9.375 
Q 8.59375 20.453125 8.59375 31.390625 
Q 8.59375 42.28125 12.203125 53.3125 
Q 15.828125 64.359375 23.1875 75.875 
z
" id="DejaVuSans-28"/>
      <path d="M 51.125 44 
L 36.921875 44 
L 32.8125 27.6875 
L 47.125 27.6875 
z
M 43.796875 71.78125 
L 38.71875 51.515625 
L 52.984375 51.515625 
L 58.109375 71.78125 
L 65.921875 71.78125 
L 60.890625 51.515625 
L 76.125 51.515625 
L 76.125 44 
L 58.984375 44 
L 54.984375 27.6875 
L 70.515625 27.6875 
L 70.515625 20.21875 
L 53.078125 20.21875 
L 48 0 
L 40.1875 0 
L 45.21875 20.21875 
L 30.90625 20.21875 
L 25.875 0 
L 18.015625 0 
L 23.09375 20.21875 
L 7.71875 20.21875 
L 7.71875 27.6875 
L 24.90625 27.6875 
L 29 44 
L 13.28125 44 
L 13.28125 51.515625 
L 30.90625 51.515625 
L 35.890625 71.78125 
z
" id="DejaVuSans-23"/>
      <path id="DejaVuSans-20"/>
      <path d="M 37.109375 75.984375 
L 37.109375 68.5 
L 28.515625 68.5 
Q 23.6875 68.5 21.796875 66.546875 
Q 19.921875 64.59375 19.921875 59.515625 
L 19.921875 54.6875 
L 34.71875 54.6875 
L 34.71875 47.703125 
L 19.921875 47.703125 
L 19.921875 0 
L 10.890625 0 
L 10.890625 47.703125 
L 2.296875 47.703125 
L 2.296875 54.6875 
L 10.890625 54.6875 
L 10.890625 58.5 
Q 10.890625 67.625 15.140625 71.796875 
Q 19.390625 75.984375 28.609375 75.984375 
z
" id="DejaVuSans-66"/>
      <path d="M 4.890625 31.390625 
L 31.203125 31.390625 
L 31.203125 23.390625 
L 4.890625 23.390625 
z
" id="DejaVuSans-2d"/>
      <path d="M 56.203125 29.59375 
L 56.203125 25.203125 
L 14.890625 25.203125 
Q 15.484375 15.921875 20.484375 11.0625 
Q 25.484375 6.203125 34.421875 6.203125 
Q 39.59375 6.203125 44.453125 7.46875 
Q 49.3125 8.734375 54.109375 11.28125 
L 54.109375 2.78125 
Q 49.265625 0.734375 44.1875 -0.34375 
Q 39.109375 -1.421875 33.890625 -1.421875 
Q 20.796875 -1.421875 13.15625 6.1875 
Q 5.515625 13.8125 5.515625 26.8125 
Q 5.515625 40.234375 12.765625 48.109375 
Q 20.015625 56 32.328125 56 
Q 43.359375 56 49.78125 48.890625 
Q 56.203125 41.796875 56.203125 29.59375 
z
M 47.21875 32.234375 
Q 47.125 39.59375 43.09375 43.984375 
Q 39.0625 48.390625 32.421875 48.390625 
Q 24.90625 48.390625 20.390625 44.140625 
Q 15.875 39.890625 15.1875 32.171875 
z
" id="DejaVuSans-65"/>
      <path d="M 2.984375 54.6875 
L 12.5 54.6875 
L 29.59375 8.796875 
L 46.6875 54.6875 
L 56.203125 54.6875 
L 35.6875 0 
L 23.484375 0 
z
" id="DejaVuSans-76"/>
      <path d="M 34.28125 27.484375 
Q 23.390625 27.484375 19.1875 25 
Q 14.984375 22.515625 14.984375 16.5 
Q 14.984375 11.71875 18.140625 8.90625 
Q 21.296875 6.109375 26.703125 6.109375 
Q 34.1875 6.109375 38.703125 11.40625 
Q 43.21875 16.703125 43.21875 25.484375 
L 43.21875 27.484375 
z
M 52.203125 31.203125 
L 52.203125 0 
L 43.21875 0 
L 43.21875 8.296875 
Q 40.140625 3.328125 35.546875 0.953125 
Q 30.953125 -1.421875 24.3125 -1.421875 
Q 15.921875 -1.421875 10.953125 3.296875 
Q 6 8.015625 6 15.921875 
Q 6 25.140625 12.171875 29.828125 
Q 18.359375 34.515625 30.609375 34.515625 
L 43.21875 34.515625 
L 43.21875 35.40625 
Q 43.21875 41.609375 39.140625 45 
Q 35.0625 48.390625 27.6875 48.390625 
Q 23 48.390625 18.546875 47.265625 
Q 14.109375 46.140625 10.015625 43.890625 
L 10.015625 52.203125 
Q 14.9375 54.109375 19.578125 55.046875 
Q 24.21875 56 28.609375 56 
Q 40.484375 56 46.34375 49.84375 
Q 52.203125 43.703125 52.203125 31.203125 
z
" id="DejaVuSans-61"/>
      <path d="M 44.28125 53.078125 
L 44.28125 44.578125 
Q 40.484375 46.53125 36.375 47.5 
Q 32.28125 48.484375 27.875 48.484375 
Q 21.1875 48.484375 17.84375 46.4375 
Q 14.5 44.390625 14.5 40.28125 
Q 14.5 37.15625 16.890625 35.375 
Q 19.28125 33.59375 26.515625 31.984375 
L 29.59375 31.296875 
Q 39.15625 29.25 43.1875 25.515625 
Q 47.21875 21.78125 47.21875 15.09375 
Q 47.21875 7.46875 41.1875 3.015625 
Q 35.15625 -1.421875 24.609375 -1.421875 
Q 20.21875 -1.421875 15.453125 -0.5625 
Q 10.6875 0.296875 5.421875 2 
L 5.421875 11.28125 
Q 10.40625 8.6875 15.234375 7.390625 
Q 20.0625 6.109375 24.8125 6.109375 
Q 31.15625 6.109375 34.5625 8.28125 
Q 37.984375 10.453125 37.984375 14.40625 
Q 37.984375 18.0625 35.515625 20.015625 
Q 33.0625 21.96875 24.703125 23.78125 
L 21.578125 24.515625 
Q 13.234375 26.265625 9.515625 29.90625 
Q 5.8125 33.546875 5.8125 39.890625 
Q 5.8125 47.609375 11.28125 51.796875 
Q 16.75 56 26.8125 56 
Q 31.78125 56 36.171875 55.265625 
Q 40.578125 54.546875 44.28125 53.078125 
z
" id="DejaVuSans-73"/>
      <path d="M 25.390625 72.90625 
L 33.6875 72.90625 
L 8.296875 -9.28125 
L 0 -9.28125 
z
" id="DejaVuSans-2f"/>
      <path d="M 45.40625 46.390625 
L 45.40625 75.984375 
L 54.390625 75.984375 
L 54.390625 0 
L 45.40625 0 
L 45.40625 8.203125 
Q 42.578125 3.328125 38.25 0.953125 
Q 33.9375 -1.421875 27.875 -1.421875 
Q 17.96875 -1.421875 11.734375 6.484375 
Q 5.515625 14.40625 5.515625 27.296875 
Q 5.515625 40.1875 11.734375 48.09375 
Q 17.96875 56 27.875 56 
Q 33.9375 56 38.25 53.625 
Q 42.578125 51.265625 45.40625 46.390625 
z
M 14.796875 27.296875 
Q 14.796875 17.390625 18.875 11.75 
Q 22.953125 6.109375 30.078125 6.109375 
Q 37.203125 6.109375 41.296875 11.75 
Q 45.40625 17.390625 45.40625 27.296875 
Q 45.40625 37.203125 41.296875 42.84375 
Q 37.203125 48.484375 30.078125 48.484375 
Q 22.953125 48.484375 18.875 42.84375 
Q 14.796875 37.203125 14.796875 27.296875 
z
" id="DejaVuSans-64"/>
      <path d="M 9.421875 54.6875 
L 18.40625 54.6875 
L 18.40625 0 
L 9.421875 0 
z
M 9.421875 75.984375 
L 18.40625 75.984375 
L 18.40625 64.59375 
L 9.421875 64.59375 
z
" id="DejaVuSans-69"/>
      <path d="M 52 44.1875 
Q 55.375 50.25 60.0625 53.125 
Q 64.75 56 71.09375 56 
Q 79.640625 56 84.28125 50.015625 
Q 88.921875 44.046875 88.921875 33.015625 
L 88.921875 0 
L 79.890625 0 
L 79.890625 32.71875 
Q 79.890625 40.578125 77.09375 44.375 
Q 74.3125 48.1875 68.609375 48.1875 
Q 61.625 48.1875 57.5625 43.546875 
Q 53.515625 38.921875 53.515625 30.90625 
L 53.515625 0 
L 44.484375 0 
L 44.484375 32.71875 
Q 44.484375 40.625 41.703125 44.40625 
Q 38.921875 48.1875 33.109375 48.1875 
Q 26.21875 48.1875 22.15625 43.53125 
Q 18.109375 38.875 18.109375 30.90625 
L 18.109375 0 
L 9.078125 0 
L 9.078125 54.6875 
L 18.109375 54.6875 
L 18.109375 46.1875 
Q 21.1875 51.21875 25.484375 53.609375 
Q 29.78125 56 35.6875 56 
Q 41.65625 56 45.828125 52.96875 
Q 50 49.953125 52 44.1875 
z
" id="DejaVuSans-6d"/>
      <path d="M 54.890625 33.015625 
L 54.890625 0 
L 45.90625 0 
L 45.90625 32.71875 
Q 45.90625 40.484375 42.875 44.328125 
Q 39.84375 48.1875 33.796875 48.1875 
Q 26.515625 48.1875 22.3125 43.546875 
Q 18.109375 38.921875 18.109375 30.90625 
L 18.109375 0 
L 9.078125 0 
L 9.078125 54.6875 
L 18.109375 54.6875 
L 18.109375 46.1875 
Q 21.34375 51.125 25.703125 53.5625 
Q 30.078125 56 35.796875 56 
Q 45.21875 56 50.046875 50.171875 
Q 54.890625 44.34375 54.890625 33.015625 
z
" id="DejaVuSans-6e"/>
      <path d="M 8.015625 75.875 
L 15.828125 75.875 
Q 23.140625 64.359375 26.78125 53.3125 
Q 30.421875 42.28125 30.421875 31.390625 
Q 30.421875 20.453125 26.78125 9.375 
Q 23.140625 -1.703125 15.828125 -13.1875 
L 8.015625 -13.1875 
Q 14.5 -2 17.703125 9.0625 
Q 20.90625 20.125 20.90625 31.390625 
Q 20.90625 42.671875 17.703125 53.65625 
Q 14.5 64.65625 8.015625 75.875 
z
" id="DejaVuSans-29"/>
     </defs>
     <g transform="translate(73.803219 338.153594)scale(0.17 -0.17)">
      <use xlink:href="#DejaVuSans-6c"/>
      <use x="27.783203" xlink:href="#DejaVuSans-6f"/>
      <use x="88.964844" xlink:href="#DejaVuSans-67"/>
      <use x="152.441406" xlink:href="#DejaVuSans-31"/>
      <use x="216.064453" xlink:href="#DejaVuSans-30"/>
      <use x="279.6875" xlink:href="#DejaVuSans-28"/>
      <use x="318.701172" xlink:href="#DejaVuSans-23"/>
      <use x="402.490234" xlink:href="#DejaVuSans-20"/>
      <use x="434.277344" xlink:href="#DejaVuSans-66"/>
      <use x="469.404297" xlink:href="#DejaVuSans-2d"/>
      <use x="505.488281" xlink:href="#DejaVuSans-65"/>
      <use x="567.011719" xlink:href="#DejaVuSans-76"/>
      <use x="626.191406" xlink:href="#DejaVuSans-61"/>
      <use x="687.470703" xlink:href="#DejaVuSans-6c"/>
      <use x="715.253906" xlink:href="#DejaVuSans-73"/>
      <use x="767.353516" xlink:href="#DejaVuSans-20"/>
      <use x="799.140625" xlink:href="#DejaVuSans-2f"/>
      <use x="832.832031" xlink:href="#DejaVuSans-20"/>
      <use x="864.619141" xlink:href="#DejaVuSans-64"/>
      <use x="928.095703" xlink:href="#DejaVuSans-69"/>
      <use x="955.878906" xlink:href="#DejaVuSans-6d"/>
      <use x="1053.291016" xlink:href="#DejaVuSans-65"/>
      <use x="1114.814453" xlink:href="#DejaVuSans-6e"/>
      <use x="1178.193359" xlink:href="#DejaVuSans-73"/>
      <use x="1230.292969" xlink:href="#DejaVuSans-69"/>
      <use x="1258.076172" xlink:href="#DejaVuSans-6f"/>
      <use x="1319.257812" xlink:href="#DejaVuSans-6e"/>
      <use x="1382.636719" xlink:href="#DejaVuSans-29"/>
     </g>
    </g>
   </g>
   <g id="matplotlib.axis_2">
    <g id="ytick_1">
     <g id="line2d_29">
      <path clip-path="url(#pcd9bc8a403)" d="M 56.12 294.88 
L 333.168 294.88 
" style="fill:none;stroke:#b0b0b0;stroke-linecap:square;stroke-width:0.8;"/>
     </g>
     <g id="line2d_30">
      <defs>
       <path d="M 0 0 
L -3.5 0 
" id="mfa0fbc8a7a" style="stroke:#000000;stroke-width:0.8;"/>
      </defs>
      <g>
       <use style="stroke:#000000;stroke-width:0.8;" x="56.12" xlink:href="#mfa0fbc8a7a" y="294.88"/>
      </g>
     </g>
     <g id="text_6">
      <!-- 0.0 -->
      <defs>
       <path d="M 10.6875 12.40625 
L 21 12.40625 
L 21 0 
L 10.6875 0 
z
" id="DejaVuSans-2e"/>
      </defs>
      <g transform="translate(23.675 300.95875)scale(0.16 -0.16)">
       <use xlink:href="#DejaVuSans-30"/>
       <use x="63.623047" xlink:href="#DejaVuSans-2e"/>
       <use x="95.410156" xlink:href="#DejaVuSans-30"/>
      </g>
     </g>
    </g>
    <g id="ytick_2">
     <g id="line2d_31">
      <path clip-path="url(#pcd9bc8a403)" d="M 56.12 241.406733 
L 333.168 241.406733 
" style="fill:none;stroke:#b0b0b0;stroke-linecap:square;stroke-width:0.8;"/>
     </g>
     <g id="line2d_32">
      <g>
       <use style="stroke:#000000;stroke-width:0.8;" x="56.12" xlink:href="#mfa0fbc8a7a" y="241.406733"/>
      </g>
     </g>
     <g id="text_7">
      <!-- 0.2 -->
      <g transform="translate(23.675 247.485483)scale(0.16 -0.16)">
       <use xlink:href="#DejaVuSans-30"/>
       <use x="63.623047" xlink:href="#DejaVuSans-2e"/>
       <use x="95.410156" xlink:href="#DejaVuSans-32"/>
      </g>
     </g>
    </g>
    <g id="ytick_3">
     <g id="line2d_33">
      <path clip-path="url(#pcd9bc8a403)" d="M 56.12 187.933465 
L 333.168 187.933465 
" style="fill:none;stroke:#b0b0b0;stroke-linecap:square;stroke-width:0.8;"/>
     </g>
     <g id="line2d_34">
      <g>
       <use style="stroke:#000000;stroke-width:0.8;" x="56.12" xlink:href="#mfa0fbc8a7a" y="187.933465"/>
      </g>
     </g>
     <g id="text_8">
      <!-- 0.4 -->
      <g transform="translate(23.675 194.012215)scale(0.16 -0.16)">
       <use xlink:href="#DejaVuSans-30"/>
       <use x="63.623047" xlink:href="#DejaVuSans-2e"/>
       <use x="95.410156" xlink:href="#DejaVuSans-34"/>
      </g>
     </g>
    </g>
    <g id="ytick_4">
     <g id="line2d_35">
      <path clip-path="url(#pcd9bc8a403)" d="M 56.12 134.460198 
L 333.168 134.460198 
" style="fill:none;stroke:#b0b0b0;stroke-linecap:square;stroke-width:0.8;"/>
     </g>
     <g id="line2d_36">
      <g>
       <use style="stroke:#000000;stroke-width:0.8;" x="56.12" xlink:href="#mfa0fbc8a7a" y="134.460198"/>
      </g>
     </g>
     <g id="text_9">
      <!-- 0.6 -->
      <g transform="translate(23.675 140.538948)scale(0.16 -0.16)">
       <use xlink:href="#DejaVuSans-30"/>
       <use x="63.623047" xlink:href="#DejaVuSans-2e"/>
       <use x="95.410156" xlink:href="#DejaVuSans-36"/>
      </g>
     </g>
    </g>
    <g id="ytick_5">
     <g id="line2d_37">
      <path clip-path="url(#pcd9bc8a403)" d="M 56.12 80.986931 
L 333.168 80.986931 
" style="fill:none;stroke:#b0b0b0;stroke-linecap:square;stroke-width:0.8;"/>
     </g>
     <g id="line2d_38">
      <g>
       <use style="stroke:#000000;stroke-width:0.8;" x="56.12" xlink:href="#mfa0fbc8a7a" y="80.986931"/>
      </g>
     </g>
     <g id="text_10">
      <!-- 0.8 -->
      <defs>
       <path d="M 31.78125 34.625 
Q 24.75 34.625 20.71875 30.859375 
Q 16.703125 27.09375 16.703125 20.515625 
Q 16.703125 13.921875 20.71875 10.15625 
Q 24.75 6.390625 31.78125 6.390625 
Q 38.8125 6.390625 42.859375 10.171875 
Q 46.921875 13.96875 46.921875 20.515625 
Q 46.921875 27.09375 42.890625 30.859375 
Q 38.875 34.625 31.78125 34.625 
z
M 21.921875 38.8125 
Q 15.578125 40.375 12.03125 44.71875 
Q 8.5 49.078125 8.5 55.328125 
Q 8.5 64.0625 14.71875 69.140625 
Q 20.953125 74.21875 31.78125 74.21875 
Q 42.671875 74.21875 48.875 69.140625 
Q 55.078125 64.0625 55.078125 55.328125 
Q 55.078125 49.078125 51.53125 44.71875 
Q 48 40.375 41.703125 38.8125 
Q 48.828125 37.15625 52.796875 32.3125 
Q 56.78125 27.484375 56.78125 20.515625 
Q 56.78125 9.90625 50.3125 4.234375 
Q 43.84375 -1.421875 31.78125 -1.421875 
Q 19.734375 -1.421875 13.25 4.234375 
Q 6.78125 9.90625 6.78125 20.515625 
Q 6.78125 27.484375 10.78125 32.3125 
Q 14.796875 37.15625 21.921875 38.8125 
z
M 18.3125 54.390625 
Q 18.3125 48.734375 21.84375 45.5625 
Q 25.390625 42.390625 31.78125 42.390625 
Q 38.140625 42.390625 41.71875 45.5625 
Q 45.3125 48.734375 45.3125 54.390625 
Q 45.3125 60.0625 41.71875 63.234375 
Q 38.140625 66.40625 31.78125 66.40625 
Q 25.390625 66.40625 21.84375 63.234375 
Q 18.3125 60.0625 18.3125 54.390625 
z
" id="DejaVuSans-38"/>
      </defs>
      <g transform="translate(23.675 87.065681)scale(0.16 -0.16)">
       <use xlink:href="#DejaVuSans-30"/>
       <use x="63.623047" xlink:href="#DejaVuSans-2e"/>
       <use x="95.410156" xlink:href="#DejaVuSans-38"/>
      </g>
     </g>
    </g>
    <g id="ytick_6">
     <g id="line2d_39">
      <path clip-path="url(#pcd9bc8a403)" d="M 56.12 27.513663 
L 333.168 27.513663 
" style="fill:none;stroke:#b0b0b0;stroke-linecap:square;stroke-width:0.8;"/>
     </g>
     <g id="line2d_40">
      <g>
       <use style="stroke:#000000;stroke-width:0.8;" x="56.12" xlink:href="#mfa0fbc8a7a" y="27.513663"/>
      </g>
     </g>
     <g id="text_11">
      <!-- 1.0 -->
      <g transform="translate(23.675 33.592413)scale(0.16 -0.16)">
       <use xlink:href="#DejaVuSans-31"/>
       <use x="63.623047" xlink:href="#DejaVuSans-2e"/>
       <use x="95.410156" xlink:href="#DejaVuSans-30"/>
      </g>
     </g>
    </g>
    <g id="text_12">
     <!-- Fraction of function,target pairs -->
     <defs>
      <path d="M 9.8125 72.90625 
L 51.703125 72.90625 
L 51.703125 64.59375 
L 19.671875 64.59375 
L 19.671875 43.109375 
L 48.578125 43.109375 
L 48.578125 34.8125 
L 19.671875 34.8125 
L 19.671875 0 
L 9.8125 0 
z
" id="DejaVuSans-46"/>
      <path d="M 41.109375 46.296875 
Q 39.59375 47.171875 37.8125 47.578125 
Q 36.03125 48 33.890625 48 
Q 26.265625 48 22.1875 43.046875 
Q 18.109375 38.09375 18.109375 28.8125 
L 18.109375 0 
L 9.078125 0 
L 9.078125 54.6875 
L 18.109375 54.6875 
L 18.109375 46.1875 
Q 20.953125 51.171875 25.484375 53.578125 
Q 30.03125 56 36.53125 56 
Q 37.453125 56 38.578125 55.875 
Q 39.703125 55.765625 41.0625 55.515625 
z
" id="DejaVuSans-72"/>
      <path d="M 48.78125 52.59375 
L 48.78125 44.1875 
Q 44.96875 46.296875 41.140625 47.34375 
Q 37.3125 48.390625 33.40625 48.390625 
Q 24.65625 48.390625 19.8125 42.84375 
Q 14.984375 37.3125 14.984375 27.296875 
Q 14.984375 17.28125 19.8125 11.734375 
Q 24.65625 6.203125 33.40625 6.203125 
Q 37.3125 6.203125 41.140625 7.25 
Q 44.96875 8.296875 48.78125 10.40625 
L 48.78125 2.09375 
Q 45.015625 0.34375 40.984375 -0.53125 
Q 36.96875 -1.421875 32.421875 -1.421875 
Q 20.0625 -1.421875 12.78125 6.34375 
Q 5.515625 14.109375 5.515625 27.296875 
Q 5.515625 40.671875 12.859375 48.328125 
Q 20.21875 56 33.015625 56 
Q 37.15625 56 41.109375 55.140625 
Q 45.0625 54.296875 48.78125 52.59375 
z
" id="DejaVuSans-63"/>
      <path d="M 18.3125 70.21875 
L 18.3125 54.6875 
L 36.8125 54.6875 
L 36.8125 47.703125 
L 18.3125 47.703125 
L 18.3125 18.015625 
Q 18.3125 11.328125 20.140625 9.421875 
Q 21.96875 7.515625 27.59375 7.515625 
L 36.8125 7.515625 
L 36.8125 0 
L 27.59375 0 
Q 17.1875 0 13.234375 3.875 
Q 9.28125 7.765625 9.28125 18.015625 
L 9.28125 47.703125 
L 2.6875 47.703125 
L 2.6875 54.6875 
L 9.28125 54.6875 
L 9.28125 70.21875 
z
" id="DejaVuSans-74"/>
      <path d="M 8.5 21.578125 
L 8.5 54.6875 
L 17.484375 54.6875 
L 17.484375 21.921875 
Q 17.484375 14.15625 20.5 10.265625 
Q 23.53125 6.390625 29.59375 6.390625 
Q 36.859375 6.390625 41.078125 11.03125 
Q 45.3125 15.671875 45.3125 23.6875 
L 45.3125 54.6875 
L 54.296875 54.6875 
L 54.296875 0 
L 45.3125 0 
L 45.3125 8.40625 
Q 42.046875 3.421875 37.71875 1 
Q 33.40625 -1.421875 27.6875 -1.421875 
Q 18.265625 -1.421875 13.375 4.4375 
Q 8.5 10.296875 8.5 21.578125 
z
M 31.109375 56 
z
" id="DejaVuSans-75"/>
      <path d="M 11.71875 12.40625 
L 22.015625 12.40625 
L 22.015625 4 
L 14.015625 -11.625 
L 7.71875 -11.625 
L 11.71875 4 
z
" id="DejaVuSans-2c"/>
      <path d="M 18.109375 8.203125 
L 18.109375 -20.796875 
L 9.078125 -20.796875 
L 9.078125 54.6875 
L 18.109375 54.6875 
L 18.109375 46.390625 
Q 20.953125 51.265625 25.265625 53.625 
Q 29.59375 56 35.59375 56 
Q 45.5625 56 51.78125 48.09375 
Q 58.015625 40.1875 58.015625 27.296875 
Q 58.015625 14.40625 51.78125 6.484375 
Q 45.5625 -1.421875 35.59375 -1.421875 
Q 29.59375 -1.421875 25.265625 0.953125 
Q 20.953125 3.328125 18.109375 8.203125 
z
M 48.6875 27.296875 
Q 48.6875 37.203125 44.609375 42.84375 
Q 40.53125 48.484375 33.40625 48.484375 
Q 26.265625 48.484375 22.1875 42.84375 
Q 18.109375 37.203125 18.109375 27.296875 
Q 18.109375 17.390625 22.1875 11.75 
Q 26.265625 6.109375 33.40625 6.109375 
Q 40.53125 6.109375 44.609375 11.75 
Q 48.6875 17.390625 48.6875 27.296875 
z
" id="DejaVuSans-70"/>
     </defs>
     <g transform="translate(16.139531 294.999375)rotate(-90)scale(0.17 -0.17)">
      <use xlink:href="#DejaVuSans-46"/>
      <use x="57.410156" xlink:href="#DejaVuSans-72"/>
      <use x="98.523438" xlink:href="#DejaVuSans-61"/>
      <use x="159.802734" xlink:href="#DejaVuSans-63"/>
      <use x="214.783203" xlink:href="#DejaVuSans-74"/>
      <use x="253.992188" xlink:href="#DejaVuSans-69"/>
      <use x="281.775391" xlink:href="#DejaVuSans-6f"/>
      <use x="342.957031" xlink:href="#DejaVuSans-6e"/>
      <use x="406.335938" xlink:href="#DejaVuSans-20"/>
      <use x="438.123047" xlink:href="#DejaVuSans-6f"/>
      <use x="499.304688" xlink:href="#DejaVuSans-66"/>
      <use x="534.509766" xlink:href="#DejaVuSans-20"/>
      <use x="566.296875" xlink:href="#DejaVuSans-66"/>
      <use x="601.501953" xlink:href="#DejaVuSans-75"/>
      <use x="664.880859" xlink:href="#DejaVuSans-6e"/>
      <use x="728.259766" xlink:href="#DejaVuSans-63"/>
      <use x="783.240234" xlink:href="#DejaVuSans-74"/>
      <use x="822.449219" xlink:href="#DejaVuSans-69"/>
      <use x="850.232422" xlink:href="#DejaVuSans-6f"/>
      <use x="911.414062" xlink:href="#DejaVuSans-6e"/>
      <use x="974.792969" xlink:href="#DejaVuSans-2c"/>
      <use x="1006.580078" xlink:href="#DejaVuSans-74"/>
      <use x="1045.789062" xlink:href="#DejaVuSans-61"/>
      <use x="1107.068359" xlink:href="#DejaVuSans-72"/>
      <use x="1148.166016" xlink:href="#DejaVuSans-67"/>
      <use x="1211.642578" xlink:href="#DejaVuSans-65"/>
      <use x="1273.166016" xlink:href="#DejaVuSans-74"/>
      <use x="1312.375" xlink:href="#DejaVuSans-20"/>
      <use x="1344.162109" xlink:href="#DejaVuSans-70"/>
      <use x="1407.638672" xlink:href="#DejaVuSans-61"/>
      <use x="1468.917969" xlink:href="#DejaVuSans-69"/>
      <use x="1496.701172" xlink:href="#DejaVuSans-72"/>
      <use x="1537.814453" xlink:href="#DejaVuSans-73"/>
     </g>
    </g>
   </g>
   <g id="line2d_41">
    <defs>
     <path d="M 0 1.5 
C 0.397805 1.5 0.77937 1.341951 1.06066 1.06066 
C 1.341951 0.77937 1.5 0.397805 1.5 0 
C 1.5 -0.397805 1.341951 -0.77937 1.06066 -1.06066 
C 0.77937 -1.341951 0.397805 -1.5 0 -1.5 
C -0.397805 -1.5 -0.77937 -1.341951 -1.06066 -1.06066 
C -1.341951 -0.77937 -1.5 -0.397805 -1.5 0 
C -1.5 0.397805 -1.341951 0.77937 -1.06066 1.06066 
C -0.77937 1.341951 -0.397805 1.5 0 1.5 
z
" id="me3af5e0718" style="stroke:#f5deb3;"/>
    </defs>
    <g>
     <use style="fill:#f5deb3;stroke:#f5deb3;" x="200.09511" xlink:href="#me3af5e0718" y="27.513663"/>
     <use style="fill:#f5deb3;stroke:#f5deb3;" x="200.09511" xlink:href="#me3af5e0718" y="27.513663"/>
    </g>
   </g>
   <g id="line2d_42">
    <defs>
     <path d="M 0 1.5 
C 0.397805 1.5 0.77937 1.341951 1.06066 1.06066 
C 1.341951 0.77937 1.5 0.397805 1.5 0 
C 1.5 -0.397805 1.341951 -0.77937 1.06066 -1.06066 
C 0.77937 -1.341951 0.397805 -1.5 0 -1.5 
C -0.397805 -1.5 -0.77937 -1.341951 -1.06066 -1.06066 
C -1.341951 -0.77937 -1.5 -0.397805 -1.5 0 
C -1.5 0.397805 -1.341951 0.77937 -1.06066 1.06066 
C -0.77937 1.341951 -0.397805 1.5 0 1.5 
z
" id="me4b602f8d6" style="stroke:#000080;"/>
    </defs>
    <g>
     <use style="fill:#000080;stroke:#000080;" x="211.155677" xlink:href="#me4b602f8d6" y="27.513663"/>
     <use style="fill:#000080;stroke:#000080;" x="211.155677" xlink:href="#me4b602f8d6" y="27.513663"/>
    </g>
   </g>
   <g id="line2d_43">
    <path d="M 52.284468 294.88 
L 52.284468 294.355752 
L 66.223248 294.355752 
L 66.223248 293.831505 
L 76.11297 293.831505 
L 76.11297 292.783009 
L 78.137499 292.783009 
L 78.137499 291.210266 
L 80.787138 291.210266 
L 80.787138 290.686018 
L 82.350819 290.686018 
L 82.350819 290.161771 
L 93.105847 290.161771 
L 93.105847 289.637523 
L 94.634732 289.637523 
L 94.634732 289.113275 
L 98.249422 289.113275 
L 98.249422 288.589027 
L 102.667676 288.589027 
L 102.667676 288.06478 
L 104.409787 288.06478 
L 104.409787 287.016284 
L 108.935392 287.016284 
L 108.935392 286.492036 
L 110.163674 286.492036 
L 110.163674 285.967789 
L 110.311216 285.967789 
L 110.311216 285.443541 
L 112.122219 285.443541 
L 112.122219 284.919293 
L 112.897778 284.919293 
L 112.897778 284.395046 
L 113.760471 284.395046 
L 113.760471 283.870798 
L 114.809594 283.870798 
L 114.809594 283.34655 
L 117.329507 283.34655 
L 117.329507 282.822302 
L 119.003236 282.822302 
L 119.003236 282.298055 
L 119.612517 282.298055 
L 119.612517 280.725312 
L 122.516807 280.725312 
L 122.588877 279.676816 
L 122.660646 279.676816 
L 122.660646 278.628321 
L 127.28016 278.628321 
L 127.28016 278.104073 
L 130.42314 278.104073 
L 130.42314 277.579825 
L 130.961731 277.579825 
L 130.961731 277.055578 
L 131.865471 277.055578 
L 131.949115 276.007082 
L 134.213018 276.007082 
L 134.213018 275.482834 
L 134.788423 275.482834 
L 134.788423 274.958587 
L 135.884484 274.958587 
L 135.884484 274.434339 
L 137.827708 274.434339 
L 137.827708 273.385844 
L 138.834862 273.385844 
L 138.834862 272.861596 
L 139.303546 272.861596 
L 139.303546 272.337348 
L 141.035496 272.337348 
L 141.035496 271.8131 
L 144.478043 271.8131 
L 144.478043 271.288853 
L 144.717888 271.288853 
L 144.717888 270.764605 
L 146.200257 270.764605 
L 146.200257 270.240357 
L 147.190823 270.240357 
L 147.276552 269.191862 
L 150.552348 269.191862 
L 150.552348 268.667614 
L 154.690524 268.667614 
L 154.690524 267.619119 
L 155.333878 267.619119 
L 155.333878 267.094871 
L 158.465953 267.094871 
L 158.465953 266.570623 
L 160.633594 266.570623 
L 160.633594 266.046375 
L 162.402872 266.046375 
L 162.402872 265.522128 
L 163.166011 265.522128 
L 163.166011 264.99788 
L 163.301196 264.99788 
L 163.301196 263.949385 
L 164.135664 263.949385 
L 164.135664 263.425137 
L 165.271028 263.425137 
L 165.271028 262.900889 
L 167.232068 262.900889 
L 167.232068 262.376641 
L 167.460863 262.376641 
L 167.460863 261.852394 
L 169.093347 261.852394 
L 169.093347 261.328146 
L 169.822686 261.328146 
L 169.822686 260.279651 
L 170.362355 260.279651 
L 170.362355 259.755403 
L 171.117877 259.755403 
L 171.117877 259.231155 
L 171.959971 259.231155 
L 171.959971 258.706907 
L 172.142077 258.706907 
L 172.142077 257.134164 
L 172.286386 257.134164 
L 172.286386 256.609917 
L 172.76273 256.609917 
L 172.76273 256.085669 
L 173.043854 256.085669 
L 173.043854 255.561421 
L 173.998508 255.561421 
L 173.998508 255.037173 
L 174.331305 255.037173 
L 174.423204 253.988678 
L 174.844541 253.988678 
L 174.844541 253.46443 
L 175.161501 253.46443 
L 175.262512 252.415935 
L 176.09795 252.415935 
L 176.09795 251.891687 
L 176.27927 251.891687 
L 176.27927 251.367439 
L 176.639369 251.367439 
L 176.639369 250.843192 
L 178.418736 250.843192 
L 178.418736 250.318944 
L 178.555099 250.318944 
L 178.555099 249.794696 
L 178.693139 249.794696 
L 178.693139 249.270448 
L 179.030769 249.270448 
L 179.030769 248.746201 
L 180.17545 248.746201 
L 180.17545 248.221953 
L 180.495341 248.221953 
L 180.495341 247.697705 
L 181.267586 247.697705 
L 181.267586 247.173458 
L 181.537686 247.173458 
L 181.537686 246.64921 
L 181.856303 246.64921 
L 181.856303 246.124962 
L 182.157885 246.124962 
L 182.157885 245.600714 
L 182.634485 245.600714 
L 182.634485 245.076467 
L 182.916379 245.076467 
L 182.916379 242.979476 
L 183.257096 242.979476 
L 183.257096 242.455228 
L 183.671652 242.455228 
L 183.671652 241.93098 
L 184.078454 241.93098 
L 184.078454 240.882485 
L 184.190654 240.882485 
L 184.190654 240.358237 
L 184.665329 240.358237 
L 184.665329 239.83399 
L 185.227186 239.83399 
L 185.247856 238.785494 
L 185.824003 238.785494 
L 185.914565 236.688503 
L 186.056688 236.688503 
L 186.08533 235.640008 
L 186.282729 235.640008 
L 186.316291 234.067265 
L 186.465644 234.067265 
L 186.465644 233.543017 
L 186.731252 233.543017 
L 186.757072 231.446026 
L 186.89413 231.446026 
L 186.89413 230.921778 
L 187.089255 230.921778 
L 187.148203 229.349035 
L 187.318853 229.349035 
L 187.3571 225.679301 
L 187.477932 225.679301 
L 187.505949 224.106558 
L 187.660049 224.106558 
L 187.715449 222.533815 
L 187.777156 222.533815 
L 187.777156 222.009567 
L 187.972181 222.009567 
L 188.069667 219.912576 
L 188.193521 219.912576 
L 188.303917 217.815585 
L 188.530364 217.815585 
L 188.530364 217.291338 
L 188.643249 217.291338 
L 188.729346 215.194347 
L 188.770704 215.194347 
L 188.871383 213.097356 
L 189.080008 213.097356 
L 189.117533 211.000365 
L 189.300971 211.000365 
L 189.300971 210.476117 
L 189.57616 210.476117 
L 189.657719 207.330631 
L 189.689655 207.330631 
L 189.689655 206.282136 
L 189.800965 206.282136 
L 189.868555 204.185145 
L 189.982993 204.185145 
L 190.081088 202.612401 
L 190.13346 202.612401 
L 190.165936 201.039658 
L 190.250366 201.039658 
L 190.250366 199.991163 
L 190.365088 199.991163 
L 190.426332 196.321429 
L 190.61976 196.321429 
L 190.61976 194.748686 
L 190.768864 194.748686 
L 190.768864 193.70019 
L 190.909933 193.70019 
L 190.909933 192.651695 
L 191.073956 192.651695 
L 191.175348 189.506209 
L 191.836857 189.506209 
L 191.859881 188.457713 
L 192.089701 188.457713 
L 192.089701 187.409218 
L 192.279106 187.409218 
L 192.301546 185.836474 
L 192.515733 185.836474 
L 192.515733 185.312227 
L 192.638334 185.312227 
L 192.651767 183.215236 
L 192.948266 183.215236 
L 193.033243 181.642493 
L 193.201947 181.642493 
L 193.309195 179.021254 
L 193.378375 179.021254 
L 193.451938 176.924263 
L 193.510098 176.924263 
L 193.592348 174.303025 
L 193.645428 174.303025 
L 193.645428 173.254529 
L 193.833347 173.254529 
L 193.833347 172.206034 
L 194.027122 172.206034 
L 194.027122 171.681786 
L 194.472045 171.681786 
L 194.472045 170.633291 
L 195.250236 170.633291 
L 195.34547 166.439309 
L 195.391328 166.439309 
L 195.434988 165.390813 
L 195.517845 165.390813 
L 195.583844 164.342318 
L 195.652667 164.342318 
L 195.652667 163.81807 
L 195.81185 163.81807 
L 195.905041 162.245327 
L 195.950441 162.245327 
L 196.040881 154.381611 
L 196.128853 154.381611 
L 196.169688 151.760373 
L 196.461646 151.760373 
L 196.557225 149.139134 
L 196.621297 149.139134 
L 196.720812 147.042143 
L 196.742956 147.042143 
L 196.845598 142.848162 
L 196.860894 142.848162 
L 196.895259 140.226923 
L 197.087769 140.226923 
L 197.19119 137.605684 
L 197.270683 137.605684 
L 197.373941 136.032941 
L 197.38414 136.032941 
L 197.38414 135.508693 
L 197.500536 135.508693 
L 197.582279 132.887455 
L 197.673665 132.887455 
L 197.752777 131.838959 
L 197.99153 131.838959 
L 198.08967 129.217721 
L 198.239364 129.217721 
L 198.266682 124.499491 
L 198.356261 124.499491 
L 198.356261 123.975244 
L 198.471498 123.975244 
L 198.572999 120.829757 
L 198.788746 120.829757 
L 198.884998 118.732766 
L 199.025425 118.732766 
L 199.135439 112.966042 
L 199.191435 112.966042 
L 199.268029 111.393298 
L 199.35751 111.393298 
L 199.383934 109.296308 
L 199.51954 109.296308 
L 199.593059 106.675069 
L 199.818184 106.675069 
L 199.920056 105.102326 
L 200.570597 105.102326 
L 200.570597 104.578078 
L 202.688563 104.578078 
L 202.688563 104.05383 
L 204.04867 104.05383 
L 204.04867 103.529583 
L 204.190862 103.529583 
L 204.213928 102.481087 
L 204.345495 102.481087 
L 204.443513 98.811353 
L 204.665825 98.811353 
L 204.770485 92.520381 
L 204.833096 92.520381 
L 204.935551 86.229408 
L 205.001136 86.229408 
L 205.111468 85.180912 
L 205.164602 85.180912 
L 205.275064 77.841444 
L 205.332949 77.841444 
L 205.420284 74.17171 
L 205.460889 74.17171 
L 205.570046 71.026224 
L 205.606278 71.026224 
L 205.715089 68.404985 
L 205.721938 68.404985 
L 205.830588 66.832242 
L 205.88607 66.832242 
L 205.98133 64.211004 
L 206.082771 64.211004 
L 206.082771 63.162508 
L 208.216724 63.162508 
L 208.279783 61.065517 
L 208.442761 61.065517 
L 208.442761 60.017022 
L 208.97465 60.017022 
L 209.045345 58.444279 
L 209.351606 58.444279 
L 209.351606 57.920031 
L 209.605679 57.920031 
L 209.605679 56.871536 
L 209.811127 56.871536 
L 209.890564 51.629058 
L 209.962057 51.629058 
L 210.040357 47.959324 
L 210.09531 47.959324 
L 210.127137 44.28959 
L 210.314254 44.28959 
L 210.371387 40.095609 
L 210.469942 40.095609 
L 210.551139 35.901627 
L 210.604914 35.901627 
L 210.684622 31.183397 
L 210.777576 31.183397 
L 210.853949 29.610654 
L 210.993931 29.610654 
L 211.039642 28.037911 
L 211.155677 28.037911 
L 211.155677 27.513663 
L 333.168 27.513663 
L 333.168 27.513663 
" style="fill:none;stroke:#000080;stroke-linecap:square;stroke-width:1.5;"/>
   </g>
   <g id="line2d_44">
    <defs>
     <path d="M 0 6 
C 1.591219 6 3.117479 5.367802 4.242641 4.242641 
C 5.367802 3.117479 6 1.591219 6 0 
C 6 -1.591219 5.367802 -3.117479 4.242641 -4.242641 
C 3.117479 -5.367802 1.591219 -6 0 -6 
C -1.591219 -6 -3.117479 -5.367802 -4.242641 -4.242641 
C -5.367802 -3.117479 -6 -1.591219 -6 0 
C -6 1.591219 -5.367802 3.117479 -4.242641 4.242641 
C -3.117479 5.367802 -1.591219 6 0 6 
z
" id="m44ba62ef1e" style="stroke:#000080;stroke-width:1.5;"/>
    </defs>
    <g>
     <use style="fill-opacity:0;stroke:#000080;stroke-width:1.5;" x="154.690524" xlink:href="#m44ba62ef1e" y="268.667614"/>
     <use style="fill-opacity:0;stroke:#000080;stroke-width:1.5;" x="193.645428" xlink:href="#m44ba62ef1e" y="174.303025"/>
     <use style="fill-opacity:0;stroke:#000080;stroke-width:1.5;" x="211.155677" xlink:href="#m44ba62ef1e" y="28.037911"/>
     <use style="fill-opacity:0;stroke:#000080;stroke-width:1.5;" x="211.155677" xlink:href="#m44ba62ef1e" y="27.513663"/>
     <use style="fill-opacity:0;stroke:#000080;stroke-width:1.5;" x="211.155677" xlink:href="#m44ba62ef1e" y="27.513663"/>
     <use style="fill-opacity:0;stroke:#000080;stroke-width:1.5;" x="333.168" xlink:href="#m44ba62ef1e" y="27.513663"/>
    </g>
   </g>
   <g id="line2d_45">
    <path style="fill:none;stroke:#000080;stroke-linecap:square;stroke-width:1.5;"/>
    <g/>
   </g>
   <g id="line2d_46">
    <defs>
     <path d="M 0 1.5 
C 0.397805 1.5 0.77937 1.341951 1.06066 1.06066 
C 1.341951 0.77937 1.5 0.397805 1.5 0 
C 1.5 -0.397805 1.341951 -0.77937 1.06066 -1.06066 
C 0.77937 -1.341951 0.397805 -1.5 0 -1.5 
C -0.397805 -1.5 -0.77937 -1.341951 -1.06066 -1.06066 
C -1.341951 -0.77937 -1.5 -0.397805 -1.5 0 
C -1.5 0.397805 -1.341951 0.77937 -1.06066 1.06066 
C -0.77937 1.341951 -0.397805 1.5 0 1.5 
z
" id="m17f36ebaaf" style="stroke:#ff00ff;"/>
    </defs>
    <g>
     <use style="fill:#ff00ff;stroke:#ff00ff;" x="222.568705" xlink:href="#m17f36ebaaf" y="27.513663"/>
     <use style="fill:#ff00ff;stroke:#ff00ff;" x="222.568705" xlink:href="#m17f36ebaaf" y="27.513663"/>
    </g>
   </g>
   <g id="line2d_47">
    <path d="M 28.455965 294.88 
L 28.455965 294.355752 
L 40.370217 294.355752 
L 40.370217 293.307257 
L 47.339607 293.307257 
L 47.339607 292.783009 
L 66.223248 292.783009 
L 66.223248 292.258761 
L 72.543934 292.258761 
L 72.543934 291.734514 
L 75.003641 291.734514 
L 75.003641 291.210266 
L 78.137499 291.210266 
L 78.137499 290.686018 
L 79.066841 290.686018 
L 79.066841 290.161771 
L 83.784035 290.161771 
L 83.784035 289.637523 
L 87.481505 289.637523 
L 87.481505 289.113275 
L 88.027221 289.113275 
L 88.027221 288.589027 
L 88.556144 288.589027 
L 88.556144 288.06478 
L 92.70139 288.06478 
L 92.70139 287.016284 
L 94.26507 287.016284 
L 94.26507 285.967789 
L 102.667676 285.967789 
L 102.667676 284.919293 
L 103.120034 284.919293 
L 103.120034 284.395046 
L 105.991465 284.395046 
L 105.991465 283.870798 
L 107.26528 283.870798 
L 107.26528 283.34655 
L 110.88904 283.34655 
L 110.88904 282.822302 
L 111.030511 282.822302 
L 111.030511 282.298055 
L 112.897778 282.298055 
L 112.897778 281.773807 
L 113.272818 281.773807 
L 113.272818 281.249559 
L 113.518374 281.249559 
L 113.518374 280.725312 
L 113.880253 280.725312 
L 113.880253 280.201064 
L 114.23467 280.201064 
L 114.23467 279.676816 
L 116.115688 279.676816 
L 116.115688 279.152568 
L 116.631902 279.152568 
L 116.631902 278.628321 
L 119.354037 278.628321 
L 119.354037 278.104073 
L 120.689748 278.104073 
L 120.689748 277.579825 
L 121.16504 277.579825 
L 121.16504 277.055578 
L 123.7027 277.055578 
L 123.7027 276.53133 
L 124.685175 276.53133 
L 124.685175 276.007082 
L 126.148921 276.007082 
L 126.148921 275.482834 
L 129.243759 275.482834 
L 129.243759 274.958587 
L 129.486197 274.958587 
L 129.486197 274.434339 
L 129.630036 274.434339 
L 129.630036 273.910091 
L 130.285813 273.910091 
L 130.285813 273.385844 
L 132.52349 273.385844 
L 132.52349 272.861596 
L 133.579779 272.861596 
L 133.579779 272.337348 
L 134.717542 272.337348 
L 134.717542 271.8131 
L 135.10382 271.8131 
L 135.10382 271.288853 
L 136.016705 271.288853 
L 136.016705 270.764605 
L 136.66297 270.764605 
L 136.66297 270.240357 
L 137.648969 270.240357 
L 137.648969 269.191862 
L 137.827708 269.191862 
L 137.827708 268.667614 
L 139.653523 268.667614 
L 139.653523 268.143366 
L 141.544287 268.143366 
L 141.544287 267.619119 
L 142.405645 267.619119 
L 142.405645 267.094871 
L 142.69832 267.094871 
L 142.69832 266.046375 
L 147.225166 266.046375 
L 147.225166 265.522128 
L 147.765521 265.522128 
L 147.765521 264.99788 
L 149.66771 264.99788 
L 149.66771 264.473632 
L 150.252912 264.473632 
L 150.252912 263.949385 
L 152.208581 263.949385 
L 152.208581 263.425137 
L 152.46342 263.425137 
L 152.46342 262.376641 
L 152.776747 262.376641 
L 152.776747 261.852394 
L 153.565633 261.852394 
L 153.565633 261.328146 
L 154.889367 261.328146 
L 154.889367 260.803898 
L 155.172583 260.803898 
L 155.172583 260.279651 
L 155.344578 260.279651 
L 155.387309 259.231155 
L 156.240673 259.231155 
L 156.240673 258.706907 
L 156.382227 258.706907 
L 156.382227 258.18266 
L 157.246258 258.18266 
L 157.246258 257.658412 
L 157.995745 257.658412 
L 157.995745 257.134164 
L 158.187188 257.134164 
L 158.187188 256.609917 
L 158.581522 256.609917 
L 158.581522 256.085669 
L 158.975673 256.085669 
L 158.975673 255.561421 
L 160.195592 255.561421 
L 160.195592 255.037173 
L 160.412006 255.037173 
L 160.412006 254.512926 
L 160.743325 254.512926 
L 160.743325 253.988678 
L 161.304417 253.988678 
L 161.304417 253.46443 
L 161.693215 253.46443 
L 161.693215 252.940182 
L 161.957322 252.940182 
L 161.957322 252.415935 
L 162.388678 252.415935 
L 162.388678 251.891687 
L 162.579312 251.891687 
L 162.579312 250.843192 
L 163.179578 250.843192 
L 163.287725 249.270448 
L 163.561787 249.270448 
L 163.561787 248.746201 
L 163.903207 248.746201 
L 163.903207 247.697705 
L 164.058527 247.697705 
L 164.058527 246.64921 
L 164.295262 246.64921 
L 164.383994 245.600714 
L 164.421883 245.600714 
L 164.421883 244.552219 
L 164.894709 244.552219 
L 164.894709 244.027971 
L 165.059603 244.027971 
L 165.06568 242.979476 
L 165.473952 242.979476 
L 165.473952 242.455228 
L 165.72136 242.455228 
L 165.72136 241.93098 
L 165.94795 241.93098 
L 165.94795 240.882485 
L 166.068733 240.882485 
L 166.068733 240.358237 
L 166.182982 240.358237 
L 166.182982 239.309742 
L 166.397984 239.309742 
L 166.465325 238.261246 
L 166.599219 238.261246 
L 166.599219 237.736999 
L 167.027311 237.736999 
L 167.113822 235.11576 
L 167.194532 235.11576 
L 167.194532 234.591512 
L 167.539964 234.591512 
L 167.539964 233.543017 
L 167.75953 233.543017 
L 167.75953 232.494521 
L 167.899212 232.494521 
L 167.899212 231.970274 
L 168.200551 231.970274 
L 168.200551 231.446026 
L 168.386866 231.446026 
L 168.386866 229.873283 
L 168.68477 229.873283 
L 168.77804 228.824787 
L 168.919431 228.824787 
L 168.919431 228.30054 
L 169.030747 228.30054 
L 169.069297 227.252044 
L 169.265522 227.252044 
L 169.369897 226.203549 
L 169.379354 226.203549 
L 169.379354 225.679301 
L 169.548702 225.679301 
L 169.656029 224.106558 
L 169.89624 224.106558 
L 169.987742 223.058063 
L 170.142186 223.058063 
L 170.142186 222.533815 
L 170.473608 222.533815 
L 170.473608 221.485319 
L 170.672068 221.485319 
L 170.672068 220.961072 
L 170.984913 220.961072 
L 171.036505 219.912576 
L 171.410186 219.912576 
L 171.410186 218.864081 
L 171.94369 218.864081 
L 171.94369 218.339833 
L 172.182285 218.339833 
L 172.194328 216.242842 
L 172.606717 216.242842 
L 172.606717 215.718594 
L 172.8518 215.718594 
L 172.8518 215.194347 
L 175.110772 215.194347 
L 175.110772 214.670099 
L 175.265869 214.670099 
L 175.265869 214.145851 
L 175.512472 214.145851 
L 175.555431 212.04886 
L 175.859663 212.04886 
L 175.859663 211.524613 
L 176.104345 211.524613 
L 176.21269 208.903374 
L 176.402238 208.903374 
L 176.471218 207.330631 
L 176.691967 207.330631 
L 176.793611 204.709392 
L 177.146211 204.709392 
L 177.146211 204.185145 
L 177.2751 204.185145 
L 177.295991 203.136649 
L 177.556475 203.136649 
L 177.656068 201.039658 
L 177.737655 201.039658 
L 177.737655 199.991163 
L 177.88239 199.991163 
L 177.88239 199.466915 
L 177.997307 199.466915 
L 178.017339 198.41842 
L 178.331904 198.41842 
L 178.432701 194.748686 
L 178.452231 194.748686 
L 178.557871 193.175943 
L 178.64633 193.175943 
L 178.64633 192.127447 
L 178.802779 192.127447 
L 178.802779 190.030456 
L 179.076545 190.030456 
L 179.143641 188.457713 
L 181.072366 188.457713 
L 181.072366 187.933465 
L 181.189288 187.933465 
L 181.189288 186.88497 
L 181.780648 186.88497 
L 181.780648 186.360722 
L 182.509412 186.360722 
L 182.509412 185.836474 
L 182.71954 185.836474 
L 182.784681 183.739484 
L 182.847417 183.739484 
L 182.847417 183.215236 
L 182.985065 183.215236 
L 183.079062 181.118245 
L 183.24022 181.118245 
L 183.24022 180.593997 
L 183.353815 180.593997 
L 183.445823 177.972759 
L 183.487482 177.972759 
L 183.487482 176.924263 
L 183.708661 176.924263 
L 183.813089 174.303025 
L 183.872188 174.303025 
L 183.971586 171.681786 
L 184.094528 171.681786 
L 184.124625 170.633291 
L 184.252452 170.633291 
L 184.363526 168.012052 
L 184.469957 168.012052 
L 184.571828 163.293823 
L 184.719638 163.293823 
L 184.719638 162.245327 
L 184.868107 162.245327 
L 184.956195 161.196832 
L 185.028625 161.196832 
L 185.121572 159.624089 
L 185.176346 159.624089 
L 185.176346 159.099841 
L 185.363895 159.099841 
L 185.443916 155.954354 
L 185.549419 155.954354 
L 185.549419 154.905859 
L 185.975876 154.905859 
L 185.975876 154.381611 
L 192.269124 154.381611 
L 192.269124 153.857364 
L 192.386054 153.857364 
L 192.489875 152.808868 
L 192.652988 152.808868 
L 192.7285 151.760373 
L 192.773406 151.760373 
L 192.8701 148.614886 
L 193.088075 148.614886 
L 193.088075 147.042143 
L 193.214946 147.042143 
L 193.246813 145.993648 
L 193.366669 145.993648 
L 193.404099 143.896657 
L 193.504291 143.896657 
L 193.504291 143.372409 
L 193.625831 143.372409 
L 193.625831 141.799666 
L 193.808257 141.799666 
L 193.808257 141.275418 
L 195.504408 141.275418 
L 195.504408 140.751171 
L 197.39989 140.751171 
L 197.39989 140.226923 
L 198.262279 140.226923 
L 198.262279 139.702675 
L 198.699681 139.702675 
L 198.797286 137.081437 
L 198.919789 137.081437 
L 198.958738 134.984446 
L 199.092693 134.984446 
L 199.121202 131.838959 
L 199.29459 131.838959 
L 199.382283 129.741969 
L 199.459676 129.741969 
L 199.459676 129.217721 
L 199.614239 129.217721 
L 199.614239 128.693473 
L 199.937642 128.693473 
L 199.937642 128.169225 
L 200.667352 128.169225 
L 200.689544 127.12073 
L 201.75192 127.12073 
L 201.75192 126.596482 
L 202.006677 126.596482 
L 202.006677 126.072235 
L 202.337804 126.072235 
L 202.337804 125.547987 
L 202.991552 125.547987 
L 202.991552 125.023739 
L 203.272192 125.023739 
L 203.295209 123.450996 
L 203.3837 123.450996 
L 203.3837 122.926748 
L 203.50488 122.926748 
L 203.596177 118.732766 
L 203.740225 118.732766 
L 203.848748 114.014537 
L 203.858291 114.014537 
L 203.94014 111.393298 
L 204.493846 111.393298 
L 204.493846 110.869051 
L 206.055927 110.869051 
L 206.055927 110.344803 
L 206.204159 110.344803 
L 206.303194 104.05383 
L 206.406598 104.05383 
L 206.506113 101.956839 
L 206.53825 101.956839 
L 206.642958 98.811353 
L 207.966153 98.811353 
L 207.966153 98.287105 
L 208.992587 98.287105 
L 208.992587 97.762858 
L 209.384378 97.762858 
L 209.424451 95.665867 
L 210.647386 95.665867 
L 210.752468 92.520381 
L 210.883136 92.520381 
L 210.977126 89.374894 
L 210.994771 89.374894 
L 211.076457 83.083922 
L 211.111109 83.083922 
L 211.218377 74.695958 
L 211.255226 74.695958 
L 211.341037 69.977729 
L 212.534445 69.977729 
L 212.642372 64.211004 
L 212.650001 64.211004 
L 212.75228 60.54127 
L 212.768951 60.54127 
L 212.834345 58.968526 
L 218.542599 58.968526 
L 218.542599 58.444279 
L 218.902848 58.444279 
L 218.967929 56.347288 
L 219.051168 56.347288 
L 219.11857 49.532068 
L 219.172145 49.532068 
L 219.245572 43.241095 
L 219.303157 43.241095 
L 219.30471 41.668352 
L 222.183669 41.668352 
L 222.291298 40.095609 
L 222.302176 40.095609 
L 222.376832 34.853131 
L 222.440812 34.853131 
L 222.546419 28.562159 
L 222.560994 28.562159 
L 222.568705 27.513663 
L 333.168 27.513663 
L 333.168 27.513663 
" style="fill:none;stroke:#ff00ff;stroke-linecap:square;stroke-width:1.5;"/>
   </g>
   <g id="line2d_48">
    <defs>
     <path d="M -0 8.485281 
L 5.091169 0 
L 0 -8.485281 
L -5.091169 -0 
z
" id="m64fbd55397" style="stroke:#ff00ff;stroke-linejoin:miter;stroke-width:1.5;"/>
    </defs>
    <g>
     <use style="fill-opacity:0;stroke:#ff00ff;stroke-linejoin:miter;stroke-width:1.5;" x="79.066841" xlink:href="#m64fbd55397" y="290.686018"/>
     <use style="fill-opacity:0;stroke:#ff00ff;stroke-linejoin:miter;stroke-width:1.5;" x="147.765521" xlink:href="#m64fbd55397" y="264.99788"/>
     <use style="fill-opacity:0;stroke:#ff00ff;stroke-linejoin:miter;stroke-width:1.5;" x="185.975876" xlink:href="#m64fbd55397" y="154.381611"/>
     <use style="fill-opacity:0;stroke:#ff00ff;stroke-linejoin:miter;stroke-width:1.5;" x="222.568705" xlink:href="#m64fbd55397" y="28.037911"/>
     <use style="fill-opacity:0;stroke:#ff00ff;stroke-linejoin:miter;stroke-width:1.5;" x="222.568705" xlink:href="#m64fbd55397" y="27.513663"/>
     <use style="fill-opacity:0;stroke:#ff00ff;stroke-linejoin:miter;stroke-width:1.5;" x="333.168" xlink:href="#m64fbd55397" y="27.513663"/>
    </g>
   </g>
   <g id="line2d_49">
    <path style="fill:none;stroke:#ff00ff;stroke-linecap:square;stroke-width:1.5;"/>
    <g/>
   </g>
   <g id="line2d_50">
    <defs>
     <path d="M 0 1.5 
C 0.397805 1.5 0.77937 1.341951 1.06066 1.06066 
C 1.341951 0.77937 1.5 0.397805 1.5 0 
C 1.5 -0.397805 1.341951 -0.77937 1.06066 -1.06066 
C 0.77937 -1.341951 0.397805 -1.5 0 -1.5 
C -0.397805 -1.5 -0.77937 -1.341951 -1.06066 -1.06066 
C -1.341951 -0.77937 -1.5 -0.397805 -1.5 0 
C -1.5 0.397805 -1.341951 0.77937 -1.06066 1.06066 
C -0.77937 1.341951 -0.397805 1.5 0 1.5 
z
" id="mc65340815f" style="stroke:#ff7500;"/>
    </defs>
    <g>
     <use style="fill:#ff7500;stroke:#ff7500;" x="268.226193" xlink:href="#mc65340815f" y="27.513663"/>
     <use style="fill:#ff7500;stroke:#ff7500;" x="268.226193" xlink:href="#mc65340815f" y="27.513663"/>
    </g>
   </g>
   <g id="line2d_51">
    <path d="M 47.339607 294.88 
L 47.339607 294.355752 
L 59.253858 294.355752 
L 59.253858 293.831505 
L 66.223248 293.831505 
L 66.223248 291.734514 
L 71.168109 291.734514 
L 71.168109 291.210266 
L 78.137499 291.210266 
L 78.137499 290.686018 
L 79.066841 290.686018 
L 79.066841 290.161771 
L 83.784035 290.161771 
L 83.784035 289.637523 
L 84.458185 289.637523 
L 84.458185 289.113275 
L 88.027221 289.113275 
L 88.027221 288.589027 
L 91.427575 288.589027 
L 91.427575 288.06478 
L 92.287186 288.06478 
L 92.287186 287.016284 
L 92.70139 287.016284 
L 92.70139 286.492036 
L 96.372436 286.492036 
L 96.372436 285.967789 
L 97.021141 285.967789 
L 97.021141 285.443541 
L 99.67078 285.443541 
L 99.67078 284.919293 
L 101.23446 284.919293 
L 101.23446 284.395046 
L 101.966002 284.395046 
L 101.966002 283.870798 
L 104.409787 283.870798 
L 104.409787 283.34655 
L 105.020098 283.34655 
L 105.020098 282.822302 
L 110.311216 282.822302 
L 110.311216 282.298055 
L 112.253934 282.298055 
L 112.253934 281.773807 
L 112.897778 281.773807 
L 112.897778 281.249559 
L 113.518374 281.249559 
L 113.518374 280.725312 
L 114.351204 280.725312 
L 114.351204 279.676816 
L 114.922307 279.676816 
L 114.922307 279.152568 
L 117.999901 279.152568 
L 117.999901 278.628321 
L 119.09161 278.628321 
L 119.09161 278.104073 
L 119.526788 278.104073 
L 119.526788 277.579825 
L 120.118102 277.579825 
L 120.118102 277.055578 
L 121.008065 277.055578 
L 121.008065 276.53133 
L 122.516807 276.53133 
L 122.516807 276.007082 
L 123.015063 276.007082 
L 123.015063 275.482834 
L 124.748719 275.482834 
L 124.748719 274.958587 
L 127.28016 274.958587 
L 127.28016 274.434339 
L 128.13443 274.434339 
L 128.186438 273.385844 
L 131.398014 273.385844 
L 131.398014 272.861596 
L 133.312097 272.861596 
L 133.312097 271.8131 
L 134.213018 271.8131 
L 134.213018 270.764605 
L 135.06906 270.764605 
L 135.06906 270.240357 
L 135.616951 270.240357 
L 135.616951 268.667614 
L 135.851269 268.667614 
L 135.851269 268.143366 
L 136.278134 268.143366 
L 136.278134 267.619119 
L 138.295455 267.619119 
L 138.381758 266.570623 
L 138.694545 266.570623 
L 138.694545 266.046375 
L 141.945413 266.046375 
L 141.945413 265.522128 
L 143.65349 265.522128 
L 143.65349 264.99788 
L 143.988072 264.99788 
L 143.988072 264.473632 
L 144.836567 264.473632 
L 144.836567 263.949385 
L 145.456044 263.949385 
L 145.456044 263.425137 
L 148.321624 263.425137 
L 148.321624 262.376641 
L 149.623006 262.376641 
L 149.623006 261.852394 
L 150.137454 261.852394 
L 150.137454 261.328146 
L 151.081271 261.328146 
L 151.081271 260.803898 
L 151.713722 260.803898 
L 151.713722 260.279651 
L 152.234235 260.279651 
L 152.234235 259.755403 
L 153.3147 259.755403 
L 153.3147 258.706907 
L 154.590234 258.706907 
L 154.590234 258.18266 
L 154.998849 258.18266 
L 154.998849 257.658412 
L 155.662502 257.658412 
L 155.662502 257.134164 
L 157.188707 257.134164 
L 157.188707 256.609917 
L 157.446184 256.609917 
L 157.446184 256.085669 
L 158.178119 256.085669 
L 158.178119 255.561421 
L 158.483783 255.561421 
L 158.483783 255.037173 
L 158.827832 255.037173 
L 158.827832 254.512926 
L 159.66314 254.512926 
L 159.66314 253.988678 
L 160.187524 253.988678 
L 160.187524 253.46443 
L 160.483543 253.46443 
L 160.546882 251.891687 
L 160.813499 251.891687 
L 160.813499 251.367439 
L 161.236223 251.367439 
L 161.236223 250.843192 
L 164.097139 250.843192 
L 164.097139 250.318944 
L 164.566352 250.318944 
L 164.566352 249.794696 
L 165.029187 249.794696 
L 165.029187 249.270448 
L 165.633408 249.270448 
L 165.72136 247.697705 
L 166.040052 247.697705 
L 166.040052 247.173458 
L 166.330379 247.173458 
L 166.330379 246.64921 
L 166.693434 246.64921 
L 166.693434 245.600714 
L 166.852971 245.600714 
L 166.852971 245.076467 
L 167.054392 245.076467 
L 167.054392 244.552219 
L 167.42912 244.552219 
L 167.42912 244.027971 
L 167.749138 244.027971 
L 167.749138 242.979476 
L 168.351772 242.979476 
L 168.351772 242.455228 
L 168.73883 242.455228 
L 168.73883 241.93098 
L 168.899997 241.93098 
L 168.953386 240.882485 
L 169.614111 240.882485 
L 169.614111 239.309742 
L 170.146708 239.309742 
L 170.182837 236.688503 
L 170.881263 236.688503 
L 170.881263 236.164255 
L 171.006429 236.164255 
L 171.006429 234.591512 
L 171.38917 234.591512 
L 171.38917 234.067265 
L 171.585709 234.067265 
L 171.585709 233.543017 
L 171.968106 233.543017 
L 171.968106 233.018769 
L 172.230409 233.018769 
L 172.230409 232.494521 
L 175.022486 232.494521 
L 175.022486 231.970274 
L 177.974385 231.970274 
L 177.974385 231.446026 
L 181.151197 231.446026 
L 181.151197 230.397531 
L 181.495689 230.397531 
L 181.495689 229.873283 
L 184.783425 229.873283 
L 184.783425 229.349035 
L 185.064725 229.349035 
L 185.115896 228.30054 
L 185.21402 228.30054 
L 185.21402 226.727797 
L 185.842154 226.727797 
L 185.842154 226.203549 
L 185.968674 226.203549 
L 185.983075 224.630806 
L 186.295101 224.630806 
L 186.379705 223.58231 
L 186.432372 223.58231 
L 186.472641 222.009567 
L 186.686404 222.009567 
L 186.707118 220.961072 
L 186.818883 220.961072 
L 186.882181 219.388328 
L 187.063929 219.388328 
L 187.159969 217.815585 
L 187.285526 217.815585 
L 187.285526 216.76709 
L 187.459778 216.76709 
L 187.547068 214.145851 
L 187.674731 214.145851 
L 187.772293 213.097356 
L 188.002605 213.097356 
L 188.02339 212.04886 
L 189.117533 212.04886 
L 189.117533 211.524613 
L 189.688205 211.524613 
L 189.688205 211.000365 
L 190.666408 211.000365 
L 190.666408 210.476117 
L 191.952941 210.476117 
L 191.952941 209.95187 
L 192.189054 209.95187 
L 192.189054 209.427622 
L 192.332663 209.427622 
L 192.332663 208.903374 
L 192.483713 208.903374 
L 192.556288 205.757888 
L 192.793999 205.757888 
L 192.793999 205.23364 
L 192.92185 205.23364 
L 193.008153 204.185145 
L 193.098783 204.185145 
L 193.098783 202.612401 
L 193.249171 202.612401 
L 193.32094 200.515411 
L 193.453103 200.515411 
L 193.453103 199.466915 
L 193.658097 199.466915 
L 193.719007 197.369924 
L 198.148285 197.369924 
L 198.148285 196.845677 
L 207.600715 196.845677 
L 207.600715 196.321429 
L 209.807078 196.321429 
L 209.807078 195.797181 
L 210.011481 195.797181 
L 210.011481 195.272933 
L 215.820176 195.272933 
L 215.903693 192.127447 
L 215.952224 192.127447 
L 216.052633 187.933465 
L 216.090135 187.933465 
L 216.197812 183.215236 
L 216.235309 183.215236 
L 216.235309 181.642493 
L 218.267575 181.642493 
L 218.267575 181.118245 
L 218.518763 181.118245 
L 218.518763 180.593997 
L 218.718176 180.593997 
L 218.718176 180.06975 
L 219.115429 180.06975 
L 219.115429 179.545502 
L 219.299272 179.545502 
L 219.299272 178.497006 
L 219.530817 178.497006 
L 219.530817 177.972759 
L 219.969816 177.972759 
L 219.969816 176.924263 
L 220.619978 176.924263 
L 220.619978 176.400016 
L 221.260312 176.400016 
L 221.260312 175.875768 
L 223.226045 175.875768 
L 223.330843 171.681786 
L 223.370948 171.681786 
L 223.471212 165.390813 
L 223.491519 165.390813 
L 223.570692 161.196832 
L 225.094458 161.196832 
L 225.120322 160.148336 
L 225.564959 160.148336 
L 225.564959 159.624089 
L 225.751035 159.624089 
L 225.751035 159.099841 
L 225.945679 159.099841 
L 225.945679 158.575593 
L 226.085866 158.575593 
L 226.085866 158.051345 
L 226.331917 158.051345 
L 226.331917 157.527098 
L 227.418705 157.527098 
L 227.520632 156.478602 
L 229.07939 156.478602 
L 229.184639 149.663382 
L 229.21376 149.663382 
L 229.295908 142.848162 
L 229.348099 142.848162 
L 229.418255 141.275418 
L 229.766636 141.275418 
L 229.856283 132.363207 
L 229.879392 132.363207 
L 229.947138 128.169225 
L 231.412967 128.169225 
L 231.412967 127.644978 
L 231.570974 127.644978 
L 231.669248 125.547987 
L 231.683746 125.547987 
L 231.785138 119.257014 
L 231.796158 119.257014 
L 231.862755 115.063032 
L 232.085773 115.063032 
L 232.085773 114.538785 
L 232.400348 114.538785 
L 232.508905 108.247812 
L 232.519111 108.247812 
L 232.626207 97.762858 
L 232.636225 97.762858 
L 232.657194 96.714362 
L 240.793434 96.714362 
L 240.878373 85.70516 
L 240.998186 85.70516 
L 241.106175 72.598967 
L 241.109816 72.598967 
L 241.112146 70.501976 
L 241.81085 70.501976 
L 241.909488 56.347288 
L 247.411766 56.347288 
L 247.449576 50.056315 
L 248.247083 50.056315 
L 248.322347 35.901627 
L 254.128769 35.901627 
L 254.128769 35.377379 
L 254.344257 35.377379 
L 254.344257 34.853131 
L 255.799659 34.853131 
L 255.799659 34.328884 
L 256.694734 34.328884 
L 256.709755 32.756141 
L 257.795152 32.756141 
L 257.795152 32.231893 
L 260.561593 32.231893 
L 260.655601 29.086407 
L 263.314683 29.086407 
L 263.314683 28.562159 
L 267.859428 28.562159 
L 267.859428 28.037911 
L 268.226193 28.037911 
L 268.226193 27.513663 
L 333.168 27.513663 
L 333.168 27.513663 
" style="fill:none;stroke:#ff7500;stroke-linecap:square;stroke-width:1.5;"/>
   </g>
   <g id="line2d_52">
    <defs>
     <path d="M 0 -6 
L -1.347084 -1.854102 
L -5.706339 -1.854102 
L -2.179628 0.708204 
L -3.526712 4.854102 
L -0 2.291796 
L 3.526712 4.854102 
L 2.179628 0.708204 
L 5.706339 -1.854102 
L 1.347084 -1.854102 
z
" id="m2633988354" style="stroke:#ff7500;stroke-linejoin:bevel;stroke-width:1.5;"/>
    </defs>
    <g>
     <use style="fill-opacity:0;stroke:#ff7500;stroke-linejoin:bevel;stroke-width:1.5;" x="135.06906" xlink:href="#m2633988354" y="270.240357"/>
     <use style="fill-opacity:0;stroke:#ff7500;stroke-linejoin:bevel;stroke-width:1.5;" x="210.011481" xlink:href="#m2633988354" y="195.272933"/>
     <use style="fill-opacity:0;stroke:#ff7500;stroke-linejoin:bevel;stroke-width:1.5;" x="241.909488" xlink:href="#m2633988354" y="56.347288"/>
     <use style="fill-opacity:0;stroke:#ff7500;stroke-linejoin:bevel;stroke-width:1.5;" x="268.226193" xlink:href="#m2633988354" y="27.513663"/>
     <use style="fill-opacity:0;stroke:#ff7500;stroke-linejoin:bevel;stroke-width:1.5;" x="268.226193" xlink:href="#m2633988354" y="27.513663"/>
     <use style="fill-opacity:0;stroke:#ff7500;stroke-linejoin:bevel;stroke-width:1.5;" x="333.168" xlink:href="#m2633988354" y="27.513663"/>
    </g>
   </g>
   <g id="line2d_53">
    <path style="fill:none;stroke:#ff7500;stroke-linecap:square;stroke-width:1.5;"/>
    <g/>
   </g>
   <g id="line2d_54">
    <path clip-path="url(#pcd9bc8a403)" d="M 254.011429 35.901627 
" style="fill:none;stroke:#ff7500;stroke-linecap:square;stroke-width:1.5;"/>
    <defs>
     <path d="M -12 12 
L 12 -12 
M -12 -12 
L 12 12 
" id="meab77f0cdd" style="stroke:#ff7500;"/>
    </defs>
    <g clip-path="url(#pcd9bc8a403)">
     <use style="fill:#ff7500;stroke:#ff7500;" x="254.011429" xlink:href="#meab77f0cdd" y="35.901627"/>
    </g>
   </g>
   <g id="line2d_55">
    <path d="M 333.168 27.513663 
L 363.64328 289.532673 
" style="fill:none;stroke:#ff7500;stroke-linecap:square;stroke-width:1.5;"/>
    <g>
     <use style="fill-opacity:0;stroke:#ff7500;stroke-linejoin:bevel;stroke-width:1.5;" x="333.168" xlink:href="#m2633988354" y="27.513663"/>
     <use style="fill-opacity:0;stroke:#ff7500;stroke-linejoin:bevel;stroke-width:1.5;" x="363.64328" xlink:href="#m2633988354" y="289.532673"/>
    </g>
   </g>
   <g id="line2d_56">
    <path d="M 333.168 27.513663 
L 363.64328 203.975446 
" style="fill:none;stroke:#ff00ff;stroke-linecap:square;stroke-width:1.5;"/>
    <g>
     <use style="fill-opacity:0;stroke:#ff00ff;stroke-linejoin:miter;stroke-width:1.5;" x="333.168" xlink:href="#m64fbd55397" y="27.513663"/>
     <use style="fill-opacity:0;stroke:#ff00ff;stroke-linejoin:miter;stroke-width:1.5;" x="363.64328" xlink:href="#m64fbd55397" y="203.975446"/>
    </g>
   </g>
   <g id="line2d_57">
    <path d="M 333.168 27.513663 
L 363.64328 118.418218 
" style="fill:none;stroke:#000080;stroke-linecap:square;stroke-width:1.5;"/>
    <g>
     <use style="fill-opacity:0;stroke:#000080;stroke-width:1.5;" x="333.168" xlink:href="#m44ba62ef1e" y="27.513663"/>
     <use style="fill-opacity:0;stroke:#000080;stroke-width:1.5;" x="363.64328" xlink:href="#m44ba62ef1e" y="118.418218"/>
    </g>
   </g>
   <g id="line2d_58">
    <path d="M 333.168 294.88 
L 333.168 27.513663 
" style="fill:none;stroke:#000000;stroke-linecap:square;stroke-width:1.5;"/>
   </g>
   <g id="patch_3">
    <path d="M 56.12 294.88 
L 56.12 24.84 
" style="fill:none;stroke:#000000;stroke-linecap:square;stroke-linejoin:miter;stroke-width:0.8;"/>
   </g>
   <g id="patch_4">
    <path d="M 333.168 294.88 
L 333.168 24.84 
" style="fill:none;stroke:#000000;stroke-linecap:square;stroke-linejoin:miter;stroke-width:0.8;"/>
   </g>
   <g id="patch_5">
    <path d="M 56.12 294.88 
L 333.168 294.88 
" style="fill:none;stroke:#000000;stroke-linecap:square;stroke-linejoin:miter;stroke-width:0.8;"/>
   </g>
   <g id="patch_6">
    <path d="M 56.12 24.84 
L 333.168 24.84 
" style="fill:none;stroke:#000000;stroke-linecap:square;stroke-linejoin:miter;stroke-width:0.8;"/>
   </g>
   <g id="text_13">
    <!-- R-SHADE-T -->
    <defs>
     <path d="M 44.390625 34.1875 
Q 47.5625 33.109375 50.5625 29.59375 
Q 53.5625 26.078125 56.59375 19.921875 
L 66.609375 0 
L 56 0 
L 46.6875 18.703125 
Q 43.0625 26.03125 39.671875 28.421875 
Q 36.28125 30.8125 30.421875 30.8125 
L 19.671875 30.8125 
L 19.671875 0 
L 9.8125 0 
L 9.8125 72.90625 
L 32.078125 72.90625 
Q 44.578125 72.90625 50.734375 67.671875 
Q 56.890625 62.453125 56.890625 51.90625 
Q 56.890625 45.015625 53.6875 40.46875 
Q 50.484375 35.9375 44.390625 34.1875 
z
M 19.671875 64.796875 
L 19.671875 38.921875 
L 32.078125 38.921875 
Q 39.203125 38.921875 42.84375 42.21875 
Q 46.484375 45.515625 46.484375 51.90625 
Q 46.484375 58.296875 42.84375 61.546875 
Q 39.203125 64.796875 32.078125 64.796875 
z
" id="DejaVuSans-52"/>
     <path d="M 53.515625 70.515625 
L 53.515625 60.890625 
Q 47.90625 63.578125 42.921875 64.890625 
Q 37.9375 66.21875 33.296875 66.21875 
Q 25.25 66.21875 20.875 63.09375 
Q 16.5 59.96875 16.5 54.203125 
Q 16.5 49.359375 19.40625 46.890625 
Q 22.3125 44.4375 30.421875 42.921875 
L 36.375 41.703125 
Q 47.40625 39.59375 52.65625 34.296875 
Q 57.90625 29 57.90625 20.125 
Q 57.90625 9.515625 50.796875 4.046875 
Q 43.703125 -1.421875 29.984375 -1.421875 
Q 24.8125 -1.421875 18.96875 -0.25 
Q 13.140625 0.921875 6.890625 3.21875 
L 6.890625 13.375 
Q 12.890625 10.015625 18.65625 8.296875 
Q 24.421875 6.59375 29.984375 6.59375 
Q 38.421875 6.59375 43.015625 9.90625 
Q 47.609375 13.234375 47.609375 19.390625 
Q 47.609375 24.75 44.3125 27.78125 
Q 41.015625 30.8125 33.5 32.328125 
L 27.484375 33.5 
Q 16.453125 35.6875 11.515625 40.375 
Q 6.59375 45.0625 6.59375 53.421875 
Q 6.59375 63.09375 13.40625 68.65625 
Q 20.21875 74.21875 32.171875 74.21875 
Q 37.3125 74.21875 42.625 73.28125 
Q 47.953125 72.359375 53.515625 70.515625 
z
" id="DejaVuSans-53"/>
     <path d="M 9.8125 72.90625 
L 19.671875 72.90625 
L 19.671875 43.015625 
L 55.515625 43.015625 
L 55.515625 72.90625 
L 65.375 72.90625 
L 65.375 0 
L 55.515625 0 
L 55.515625 34.71875 
L 19.671875 34.71875 
L 19.671875 0 
L 9.8125 0 
z
" id="DejaVuSans-48"/>
     <path d="M 34.1875 63.1875 
L 20.796875 26.90625 
L 47.609375 26.90625 
z
M 28.609375 72.90625 
L 39.796875 72.90625 
L 67.578125 0 
L 57.328125 0 
L 50.6875 18.703125 
L 17.828125 18.703125 
L 11.1875 0 
L 0.78125 0 
z
" id="DejaVuSans-41"/>
     <path d="M 19.671875 64.796875 
L 19.671875 8.109375 
L 31.59375 8.109375 
Q 46.6875 8.109375 53.6875 14.9375 
Q 60.6875 21.78125 60.6875 36.53125 
Q 60.6875 51.171875 53.6875 57.984375 
Q 46.6875 64.796875 31.59375 64.796875 
z
M 9.8125 72.90625 
L 30.078125 72.90625 
Q 51.265625 72.90625 61.171875 64.09375 
Q 71.09375 55.28125 71.09375 36.53125 
Q 71.09375 17.671875 61.125 8.828125 
Q 51.171875 0 30.078125 0 
L 9.8125 0 
z
" id="DejaVuSans-44"/>
     <path d="M 9.8125 72.90625 
L 55.90625 72.90625 
L 55.90625 64.59375 
L 19.671875 64.59375 
L 19.671875 43.015625 
L 54.390625 43.015625 
L 54.390625 34.71875 
L 19.671875 34.71875 
L 19.671875 8.296875 
L 56.78125 8.296875 
L 56.78125 0 
L 9.8125 0 
z
" id="DejaVuSans-45"/>
     <path d="M -0.296875 72.90625 
L 61.375 72.90625 
L 61.375 64.59375 
L 35.5 64.59375 
L 35.5 0 
L 25.59375 0 
L 25.59375 64.59375 
L -0.296875 64.59375 
z
" id="DejaVuSans-54"/>
    </defs>
    <g transform="translate(369.18424 294.223611)scale(0.17 -0.17)">
     <use xlink:href="#DejaVuSans-52"/>
     <use x="69.419922" xlink:href="#DejaVuSans-2d"/>
     <use x="105.503906" xlink:href="#DejaVuSans-53"/>
     <use x="168.980469" xlink:href="#DejaVuSans-48"/>
     <use x="244.175781" xlink:href="#DejaVuSans-41"/>
     <use x="312.583984" xlink:href="#DejaVuSans-44"/>
     <use x="389.585938" xlink:href="#DejaVuSans-45"/>
     <use x="452.769531" xlink:href="#DejaVuSans-2d"/>
     <use x="488.712891" xlink:href="#DejaVuSans-54"/>
    </g>
   </g>
   <g id="text_14">
    <!-- SL-4-10 -->
    <defs>
     <path d="M 9.8125 72.90625 
L 19.671875 72.90625 
L 19.671875 8.296875 
L 55.171875 8.296875 
L 55.171875 0 
L 9.8125 0 
z
" id="DejaVuSans-4c"/>
    </defs>
    <g transform="translate(369.18424 208.666383)scale(0.17 -0.17)">
     <use xlink:href="#DejaVuSans-53"/>
     <use x="63.476562" xlink:href="#DejaVuSans-4c"/>
     <use x="119.173828" xlink:href="#DejaVuSans-2d"/>
     <use x="155.257812" xlink:href="#DejaVuSans-34"/>
     <use x="218.880859" xlink:href="#DejaVuSans-2d"/>
     <use x="254.964844" xlink:href="#DejaVuSans-31"/>
     <use x="318.587891" xlink:href="#DejaVuSans-30"/>
    </g>
   </g>
   <g id="text_15">
    <!-- SL-10 -->
    <g transform="translate(369.18424 123.109155)scale(0.17 -0.17)">
     <use xlink:href="#DejaVuSans-53"/>
     <use x="63.476562" xlink:href="#DejaVuSans-4c"/>
     <use x="119.173828" xlink:href="#DejaVuSans-2d"/>
     <use x="155.257812" xlink:href="#DejaVuSans-31"/>
     <use x="218.880859" xlink:href="#DejaVuSans-30"/>
    </g>
   </g>
   <g id="text_16">
    <!-- best 2009 -->
    <defs>
     <path d="M 48.6875 27.296875 
Q 48.6875 37.203125 44.609375 42.84375 
Q 40.53125 48.484375 33.40625 48.484375 
Q 26.265625 48.484375 22.1875 42.84375 
Q 18.109375 37.203125 18.109375 27.296875 
Q 18.109375 17.390625 22.1875 11.75 
Q 26.265625 6.109375 33.40625 6.109375 
Q 40.53125 6.109375 44.609375 11.75 
Q 48.6875 17.390625 48.6875 27.296875 
z
M 18.109375 46.390625 
Q 20.953125 51.265625 25.265625 53.625 
Q 29.59375 56 35.59375 56 
Q 45.5625 56 51.78125 48.09375 
Q 58.015625 40.1875 58.015625 27.296875 
Q 58.015625 14.40625 51.78125 6.484375 
Q 45.5625 -1.421875 35.59375 -1.421875 
Q 29.59375 -1.421875 25.265625 0.953125 
Q 20.953125 3.328125 18.109375 8.203125 
L 18.109375 0 
L 9.078125 0 
L 9.078125 75.984375 
L 18.109375 75.984375 
z
" id="DejaVuSans-62"/>
     <path d="M 10.984375 1.515625 
L 10.984375 10.5 
Q 14.703125 8.734375 18.5 7.8125 
Q 22.3125 6.890625 25.984375 6.890625 
Q 35.75 6.890625 40.890625 13.453125 
Q 46.046875 20.015625 46.78125 33.40625 
Q 43.953125 29.203125 39.59375 26.953125 
Q 35.25 24.703125 29.984375 24.703125 
Q 19.046875 24.703125 12.671875 31.3125 
Q 6.296875 37.9375 6.296875 49.421875 
Q 6.296875 60.640625 12.9375 67.421875 
Q 19.578125 74.21875 30.609375 74.21875 
Q 43.265625 74.21875 49.921875 64.515625 
Q 56.59375 54.828125 56.59375 36.375 
Q 56.59375 19.140625 48.40625 8.859375 
Q 40.234375 -1.421875 26.421875 -1.421875 
Q 22.703125 -1.421875 18.890625 -0.6875 
Q 15.09375 0.046875 10.984375 1.515625 
z
M 30.609375 32.421875 
Q 37.25 32.421875 41.125 36.953125 
Q 45.015625 41.5 45.015625 49.421875 
Q 45.015625 57.28125 41.125 61.84375 
Q 37.25 66.40625 30.609375 66.40625 
Q 23.96875 66.40625 20.09375 61.84375 
Q 16.21875 57.28125 16.21875 49.421875 
Q 16.21875 41.5 20.09375 36.953125 
Q 23.96875 32.421875 30.609375 32.421875 
z
" id="DejaVuSans-39"/>
    </defs>
    <g transform="translate(369.18424 37.551928)scale(0.17 -0.17)">
     <use xlink:href="#DejaVuSans-62"/>
     <use x="63.476562" xlink:href="#DejaVuSans-65"/>
     <use x="125" xlink:href="#DejaVuSans-73"/>
     <use x="177.099609" xlink:href="#DejaVuSans-74"/>
     <use x="216.308594" xlink:href="#DejaVuSans-20"/>
     <use x="248.095703" xlink:href="#DejaVuSans-32"/>
     <use x="311.71875" xlink:href="#DejaVuSans-30"/>
     <use x="375.341797" xlink:href="#DejaVuSans-30"/>
     <use x="438.964844" xlink:href="#DejaVuSans-39"/>
    </g>
   </g>
   <g id="text_17">
    <!-- bbob f15, 5-D -->
    <defs>
     <path d="M 10.796875 72.90625 
L 49.515625 72.90625 
L 49.515625 64.59375 
L 19.828125 64.59375 
L 19.828125 46.734375 
Q 21.96875 47.46875 24.109375 47.828125 
Q 26.265625 48.1875 28.421875 48.1875 
Q 40.625 48.1875 47.75 41.5 
Q 54.890625 34.8125 54.890625 23.390625 
Q 54.890625 11.625 47.5625 5.09375 
Q 40.234375 -1.421875 26.90625 -1.421875 
Q 22.3125 -1.421875 17.546875 -0.640625 
Q 12.796875 0.140625 7.71875 1.703125 
L 7.71875 11.625 
Q 12.109375 9.234375 16.796875 8.0625 
Q 21.484375 6.890625 26.703125 6.890625 
Q 35.15625 6.890625 40.078125 11.328125 
Q 45.015625 15.765625 45.015625 23.390625 
Q 45.015625 31 40.078125 35.4375 
Q 35.15625 39.890625 26.703125 39.890625 
Q 22.75 39.890625 18.8125 39.015625 
Q 14.890625 38.140625 10.796875 36.28125 
z
" id="DejaVuSans-35"/>
    </defs>
    <g transform="translate(58.89048 35.290806)scale(0.102 -0.102)">
     <use xlink:href="#DejaVuSans-62"/>
     <use x="63.476562" xlink:href="#DejaVuSans-62"/>
     <use x="126.953125" xlink:href="#DejaVuSans-6f"/>
     <use x="188.134766" xlink:href="#DejaVuSans-62"/>
     <use x="251.611328" xlink:href="#DejaVuSans-20"/>
     <use x="283.398438" xlink:href="#DejaVuSans-66"/>
     <use x="318.603516" xlink:href="#DejaVuSans-31"/>
     <use x="382.226562" xlink:href="#DejaVuSans-35"/>
     <use x="445.849609" xlink:href="#DejaVuSans-2c"/>
     <use x="477.636719" xlink:href="#DejaVuSans-20"/>
     <use x="509.423828" xlink:href="#DejaVuSans-35"/>
     <use x="573.046875" xlink:href="#DejaVuSans-2d"/>
     <use x="609.130859" xlink:href="#DejaVuSans-44"/>
    </g>
    <!-- 51 targets: 100..1e-08 -->
    <defs>
     <path d="M 11.71875 12.40625 
L 22.015625 12.40625 
L 22.015625 0 
L 11.71875 0 
z
M 11.71875 51.703125 
L 22.015625 51.703125 
L 22.015625 39.3125 
L 11.71875 39.3125 
z
" id="DejaVuSans-3a"/>
    </defs>
    <g transform="translate(58.89048 46.712575)scale(0.102 -0.102)">
     <use xlink:href="#DejaVuSans-35"/>
     <use x="63.623047" xlink:href="#DejaVuSans-31"/>
     <use x="127.246094" xlink:href="#DejaVuSans-20"/>
     <use x="159.033203" xlink:href="#DejaVuSans-74"/>
     <use x="198.242188" xlink:href="#DejaVuSans-61"/>
     <use x="259.521484" xlink:href="#DejaVuSans-72"/>
     <use x="300.619141" xlink:href="#DejaVuSans-67"/>
     <use x="364.095703" xlink:href="#DejaVuSans-65"/>
     <use x="425.619141" xlink:href="#DejaVuSans-74"/>
     <use x="464.828125" xlink:href="#DejaVuSans-73"/>
     <use x="516.927734" xlink:href="#DejaVuSans-3a"/>
     <use x="550.619141" xlink:href="#DejaVuSans-20"/>
     <use x="582.40625" xlink:href="#DejaVuSans-31"/>
     <use x="646.029297" xlink:href="#DejaVuSans-30"/>
     <use x="709.652344" xlink:href="#DejaVuSans-30"/>
     <use x="773.275391" xlink:href="#DejaVuSans-2e"/>
     <use x="805.0625" xlink:href="#DejaVuSans-2e"/>
     <use x="836.849609" xlink:href="#DejaVuSans-31"/>
     <use x="900.472656" xlink:href="#DejaVuSans-65"/>
     <use x="961.996094" xlink:href="#DejaVuSans-2d"/>
     <use x="998.080078" xlink:href="#DejaVuSans-30"/>
     <use x="1061.703125" xlink:href="#DejaVuSans-38"/>
    </g>
    <!-- 15 instances -->
    <g transform="translate(58.89048 58.134344)scale(0.102 -0.102)">
     <use xlink:href="#DejaVuSans-31"/>
     <use x="63.623047" xlink:href="#DejaVuSans-35"/>
     <use x="127.246094" xlink:href="#DejaVuSans-20"/>
     <use x="159.033203" xlink:href="#DejaVuSans-69"/>
     <use x="186.816406" xlink:href="#DejaVuSans-6e"/>
     <use x="250.195312" xlink:href="#DejaVuSans-73"/>
     <use x="302.294922" xlink:href="#DejaVuSans-74"/>
     <use x="341.503906" xlink:href="#DejaVuSans-61"/>
     <use x="402.783203" xlink:href="#DejaVuSans-6e"/>
     <use x="466.162109" xlink:href="#DejaVuSans-63"/>
     <use x="521.142578" xlink:href="#DejaVuSans-65"/>
     <use x="582.666016" xlink:href="#DejaVuSans-73"/>
    </g>
   </g>
   <g id="text_18">
    <!-- v2.4 -->
    <g style="fill:#808080;" transform="translate(183.733063 290.099912)scale(0.1 -0.1)">
     <use xlink:href="#DejaVuSans-76"/>
     <use x="59.179688" xlink:href="#DejaVuSans-32"/>
     <use x="122.802734" xlink:href="#DejaVuSans-2e"/>
     <use x="154.589844" xlink:href="#DejaVuSans-34"/>
    </g>
   </g>
   <g id="text_19">
    <!-- 15 Rastrigin -->
    <g transform="translate(134.184625 18.84)scale(0.2 -0.2)">
     <use xlink:href="#DejaVuSans-31"/>
     <use x="63.623047" xlink:href="#DejaVuSans-35"/>
     <use x="127.246094" xlink:href="#DejaVuSans-20"/>
     <use x="159.033203" xlink:href="#DejaVuSans-52"/>
     <use x="228.484375" xlink:href="#DejaVuSans-61"/>
     <use x="289.763672" xlink:href="#DejaVuSans-73"/>
     <use x="341.863281" xlink:href="#DejaVuSans-74"/>
     <use x="381.072266" xlink:href="#DejaVuSans-72"/>
     <use x="422.185547" xlink:href="#DejaVuSans-69"/>
     <use x="449.96875" xlink:href="#DejaVuSans-67"/>
     <use x="513.445312" xlink:href="#DejaVuSans-69"/>
     <use x="541.228516" xlink:href="#DejaVuSans-6e"/>
    </g>
   </g>
  </g>
 </g>
 <defs>
  <clipPath id="pcd9bc8a403">
   <rect height="270.04" width="277.048" x="56.12" y="24.84"/>
  </clipPath>
 </defs>
</svg>
