<?xml version="1.0" encoding="utf-8" standalone="no"?>
<!DOCTYPE svg PUBLIC "-//W3C//DTD SVG 1.1//EN"
  "http://www.w3.org/Graphics/SVG/1.1/DTD/svg11.dtd">
<!-- Created with matplotlib (http://matplotlib.org/) -->
<svg height="345.6pt" version="1.1" viewBox="0 0 460.8 345.6" width="460.8pt" xmlns="http://www.w3.org/2000/svg" xmlns:xlink="http://www.w3.org/1999/xlink">
 <defs>
  <style type="text/css">
*{stroke-linecap:butt;stroke-linejoin:round;}
  </style>
 </defs>
 <g id="figure_1">
  <g id="patch_1">
   <path d="M 0 345.6 
L 460.8 345.6 
L 460.8 0 
L 0 0 
z
" style="fill:#ffffff;"/>
  </g>
  <g id="axes_1">
   <g id="patch_2">
    <path d="M 56.12 294.88 
L 333.168 294.88 
L 333.168 24.84 
L 56.12 24.84 
z
" style="fill:#ffffff;"/>
   </g>
   <g id="line2d_1">
    <path d="M 105.801534 294.88 
L 105.801534 289.637523 
L 106.730875 289.637523 
L 106.730875 284.395046 
L 107.612537 284.395046 
L 107.612537 279.152568 
L 111.900428 279.152568 
L 111.900428 273.910091 
L 114.771859 273.910091 
L 114.771859 268.667614 
L 118.645127 268.667614 
L 118.645127 263.425137 
L 120.0904 263.425137 
L 120.0904 258.18266 
L 121.294766 258.18266 
L 121.294766 252.940182 
L 121.678171 252.940182 
L 121.678171 247.697705 
L 123.131597 247.697705 
L 123.131597 242.455228 
L 123.589988 242.455228 
L 123.589988 237.212751 
L 123.925932 237.212751 
L 123.925932 231.970274 
L 124.255437 231.970274 
L 124.255437 226.727797 
L 124.471649 226.727797 
L 124.471649 221.485319 
L 125.000572 221.485319 
L 125.000572 216.242842 
L 125.310285 216.242842 
L 125.310285 211.000365 
L 125.714742 211.000365 
L 125.714742 205.757888 
L 125.913457 205.757888 
L 125.913457 200.515411 
L 126.109901 200.515411 
L 126.109901 195.272933 
L 126.304124 195.272933 
L 126.304124 190.030456 
L 126.496178 190.030456 
L 126.496178 184.787979 
L 126.967129 184.787979 
L 126.967129 179.545502 
L 127.151955 179.545502 
L 127.151955 174.303025 
L 127.42552 174.303025 
L 127.42552 169.060547 
L 127.605507 169.060547 
L 127.605507 163.81807 
L 127.783629 163.81807 
L 127.783629 158.575593 
L 127.959924 158.575593 
L 127.959924 153.333116 
L 128.221023 153.333116 
L 128.221023 148.090639 
L 128.478214 148.090639 
L 128.478214 142.848162 
L 128.647561 142.848162 
L 128.647561 137.605684 
L 128.898495 137.605684 
L 128.898495 132.363207 
L 129.063771 132.363207 
L 129.063771 127.12073 
L 129.308744 127.12073 
L 129.308744 121.878253 
L 129.470141 121.878253 
L 129.470141 116.635776 
L 129.630036 116.635776 
L 129.630036 111.393298 
L 129.788458 111.393298 
L 129.788458 106.150821 
L 129.945433 106.150821 
L 129.945433 100.908344 
L 130.255146 100.908344 
L 130.255146 95.665867 
L 130.407935 95.665867 
L 130.407935 90.42339 
L 130.559378 90.42339 
L 130.559378 85.180912 
L 130.709498 85.180912 
L 130.709498 79.938435 
L 130.858318 79.938435 
L 130.858318 74.695958 
L 131.07916 74.695958 
L 131.07916 69.453481 
L 131.224827 69.453481 
L 131.224827 64.211004 
L 131.441039 64.211004 
L 131.441039 58.968526 
L 131.583684 58.968526 
L 131.583684 53.726049 
L 131.725155 53.726049 
L 131.725155 48.483572 
L 131.865471 48.483572 
L 131.865471 43.241095 
L 132.073821 43.241095 
L 132.073821 37.998618 
L 132.279675 37.998618 
L 132.279675 32.756141 
L 132.415555 32.756141 
L 132.415555 27.513663 
L 333.168 27.513663 
" style="fill:none;stroke:#f5deb3;stroke-linecap:square;stroke-width:4;"/>
   </g>
   <g id="line2d_2">
    <defs>
     <path d="M -0 7.778175 
L 7.778175 0 
L 0 -7.778175 
L -7.778175 -0 
z
" id="m5f03032d31" style="stroke:#f5deb3;stroke-linejoin:miter;stroke-width:1.5;"/>
    </defs>
    <g>
     <use style="fill:#f5deb3;stroke:#f5deb3;stroke-linejoin:miter;stroke-width:1.5;" x="126.967129" xlink:href="#m5f03032d31" y="179.545502"/>
     <use style="fill:#f5deb3;stroke:#f5deb3;stroke-linejoin:miter;stroke-width:1.5;" x="131.865471" xlink:href="#m5f03032d31" y="43.241095"/>
     <use style="fill:#f5deb3;stroke:#f5deb3;stroke-linejoin:miter;stroke-width:1.5;" x="132.415555" xlink:href="#m5f03032d31" y="27.513663"/>
     <use style="fill:#f5deb3;stroke:#f5deb3;stroke-linejoin:miter;stroke-width:1.5;" x="132.415555" xlink:href="#m5f03032d31" y="27.513663"/>
     <use style="fill:#f5deb3;stroke:#f5deb3;stroke-linejoin:miter;stroke-width:1.5;" x="333.168" xlink:href="#m5f03032d31" y="27.513663"/>
    </g>
   </g>
   <g id="line2d_3">
    <path style="fill:none;stroke:#f5deb3;stroke-linecap:square;stroke-width:4;"/>
    <g/>
   </g>
   <g id="line2d_4">
    <path d="M 333.168 27.513663 
L 363.64328 32.86099 
" style="fill:none;stroke:#f5deb3;stroke-linecap:square;stroke-width:4;"/>
    <g>
     <use style="fill:#f5deb3;stroke:#f5deb3;stroke-linejoin:miter;stroke-width:1.5;" x="333.168" xlink:href="#m5f03032d31" y="27.513663"/>
     <use style="fill:#f5deb3;stroke:#f5deb3;stroke-linejoin:miter;stroke-width:1.5;" x="363.64328" xlink:href="#m5f03032d31" y="32.86099"/>
    </g>
   </g>
   <g id="matplotlib.axis_1">
    <g id="xtick_1">
     <g id="line2d_5">
      <path clip-path="url(#p34d7e48ec1)" d="M 56.12 294.88 
L 56.12 24.84 
" style="fill:none;stroke:#b0b0b0;stroke-linecap:square;stroke-width:0.8;"/>
     </g>
     <g id="line2d_6">
      <defs>
       <path d="M 0 0 
L 0 3.5 
" id="m33b1de9591" style="stroke:#000000;stroke-width:0.8;"/>
      </defs>
      <g>
       <use style="stroke:#000000;stroke-width:0.8;" x="56.12" xlink:href="#m33b1de9591" y="294.88"/>
      </g>
     </g>
     <g id="text_1">
      <!-- 0 -->
      <defs>
       <path d="M 31.78125 66.40625 
Q 24.171875 66.40625 20.328125 58.90625 
Q 16.5 51.421875 16.5 36.375 
Q 16.5 21.390625 20.328125 13.890625 
Q 24.171875 6.390625 31.78125 6.390625 
Q 39.453125 6.390625 43.28125 13.890625 
Q 47.125 21.390625 47.125 36.375 
Q 47.125 51.421875 43.28125 58.90625 
Q 39.453125 66.40625 31.78125 66.40625 
z
M 31.78125 74.21875 
Q 44.046875 74.21875 50.515625 64.515625 
Q 56.984375 54.828125 56.984375 36.375 
Q 56.984375 17.96875 50.515625 8.265625 
Q 44.046875 -1.421875 31.78125 -1.421875 
Q 19.53125 -1.421875 13.0625 8.265625 
Q 6.59375 17.96875 6.59375 36.375 
Q 6.59375 54.828125 13.0625 64.515625 
Q 19.53125 74.21875 31.78125 74.21875 
z
" id="DejaVuSans-30"/>
      </defs>
      <g transform="translate(49.7575 317.076875)scale(0.2 -0.2)">
       <use xlink:href="#DejaVuSans-30"/>
      </g>
     </g>
    </g>
    <g id="xtick_2">
     <g id="line2d_7">
      <path clip-path="url(#p34d7e48ec1)" d="M 135.276571 294.88 
L 135.276571 24.84 
" style="fill:none;stroke:#b0b0b0;stroke-linecap:square;stroke-width:0.8;"/>
     </g>
     <g id="line2d_8">
      <g>
       <use style="stroke:#000000;stroke-width:0.8;" x="135.276571" xlink:href="#m33b1de9591" y="294.88"/>
      </g>
     </g>
     <g id="text_2">
      <!-- 2 -->
      <defs>
       <path d="M 19.1875 8.296875 
L 53.609375 8.296875 
L 53.609375 0 
L 7.328125 0 
L 7.328125 8.296875 
Q 12.9375 14.109375 22.625 23.890625 
Q 32.328125 33.6875 34.8125 36.53125 
Q 39.546875 41.84375 41.421875 45.53125 
Q 43.3125 49.21875 43.3125 52.78125 
Q 43.3125 58.59375 39.234375 62.25 
Q 35.15625 65.921875 28.609375 65.921875 
Q 23.96875 65.921875 18.8125 64.3125 
Q 13.671875 62.703125 7.8125 59.421875 
L 7.8125 69.390625 
Q 13.765625 71.78125 18.9375 73 
Q 24.125 74.21875 28.421875 74.21875 
Q 39.75 74.21875 46.484375 68.546875 
Q 53.21875 62.890625 53.21875 53.421875 
Q 53.21875 48.921875 51.53125 44.890625 
Q 49.859375 40.875 45.40625 35.40625 
Q 44.1875 33.984375 37.640625 27.21875 
Q 31.109375 20.453125 19.1875 8.296875 
z
" id="DejaVuSans-32"/>
      </defs>
      <g transform="translate(128.914071 317.076875)scale(0.2 -0.2)">
       <use xlink:href="#DejaVuSans-32"/>
      </g>
     </g>
    </g>
    <g id="xtick_3">
     <g id="line2d_9">
      <path clip-path="url(#p34d7e48ec1)" d="M 214.433143 294.88 
L 214.433143 24.84 
" style="fill:none;stroke:#b0b0b0;stroke-linecap:square;stroke-width:0.8;"/>
     </g>
     <g id="line2d_10">
      <g>
       <use style="stroke:#000000;stroke-width:0.8;" x="214.433143" xlink:href="#m33b1de9591" y="294.88"/>
      </g>
     </g>
     <g id="text_3">
      <!-- 4 -->
      <defs>
       <path d="M 37.796875 64.3125 
L 12.890625 25.390625 
L 37.796875 25.390625 
z
M 35.203125 72.90625 
L 47.609375 72.90625 
L 47.609375 25.390625 
L 58.015625 25.390625 
L 58.015625 17.1875 
L 47.609375 17.1875 
L 47.609375 0 
L 37.796875 0 
L 37.796875 17.1875 
L 4.890625 17.1875 
L 4.890625 26.703125 
z
" id="DejaVuSans-34"/>
      </defs>
      <g transform="translate(208.070643 317.076875)scale(0.2 -0.2)">
       <use xlink:href="#DejaVuSans-34"/>
      </g>
     </g>
    </g>
    <g id="xtick_4">
     <g id="line2d_11">
      <path clip-path="url(#p34d7e48ec1)" d="M 293.589714 294.88 
L 293.589714 24.84 
" style="fill:none;stroke:#b0b0b0;stroke-linecap:square;stroke-width:0.8;"/>
     </g>
     <g id="line2d_12">
      <g>
       <use style="stroke:#000000;stroke-width:0.8;" x="293.589714" xlink:href="#m33b1de9591" y="294.88"/>
      </g>
     </g>
     <g id="text_4">
      <!-- 6 -->
      <defs>
       <path d="M 33.015625 40.375 
Q 26.375 40.375 22.484375 35.828125 
Q 18.609375 31.296875 18.609375 23.390625 
Q 18.609375 15.53125 22.484375 10.953125 
Q 26.375 6.390625 33.015625 6.390625 
Q 39.65625 6.390625 43.53125 10.953125 
Q 47.40625 15.53125 47.40625 23.390625 
Q 47.40625 31.296875 43.53125 35.828125 
Q 39.65625 40.375 33.015625 40.375 
z
M 52.59375 71.296875 
L 52.59375 62.3125 
Q 48.875 64.0625 45.09375 64.984375 
Q 41.3125 65.921875 37.59375 65.921875 
Q 27.828125 65.921875 22.671875 59.328125 
Q 17.53125 52.734375 16.796875 39.40625 
Q 19.671875 43.65625 24.015625 45.921875 
Q 28.375 48.1875 33.59375 48.1875 
Q 44.578125 48.1875 50.953125 41.515625 
Q 57.328125 34.859375 57.328125 23.390625 
Q 57.328125 12.15625 50.6875 5.359375 
Q 44.046875 -1.421875 33.015625 -1.421875 
Q 20.359375 -1.421875 13.671875 8.265625 
Q 6.984375 17.96875 6.984375 36.375 
Q 6.984375 53.65625 15.1875 63.9375 
Q 23.390625 74.21875 37.203125 74.21875 
Q 40.921875 74.21875 44.703125 73.484375 
Q 48.484375 72.75 52.59375 71.296875 
z
" id="DejaVuSans-36"/>
      </defs>
      <g transform="translate(287.227214 317.076875)scale(0.2 -0.2)">
       <use xlink:href="#DejaVuSans-36"/>
      </g>
     </g>
    </g>
    <g id="xtick_5">
     <g id="line2d_13">
      <path clip-path="url(#p34d7e48ec1)" d="M 56.12 294.88 
L 56.12 24.84 
" style="fill:none;stroke:#b0b0b0;stroke-linecap:square;stroke-width:0.8;"/>
     </g>
     <g id="line2d_14">
      <defs>
       <path d="M 0 0 
L 0 2 
" id="mde03875a03" style="stroke:#000000;stroke-width:0.6;"/>
      </defs>
      <g>
       <use style="stroke:#000000;stroke-width:0.6;" x="56.12" xlink:href="#mde03875a03" y="294.88"/>
      </g>
     </g>
    </g>
    <g id="xtick_6">
     <g id="line2d_15">
      <path clip-path="url(#p34d7e48ec1)" d="M 95.698286 294.88 
L 95.698286 24.84 
" style="fill:none;stroke:#b0b0b0;stroke-linecap:square;stroke-width:0.8;"/>
     </g>
     <g id="line2d_16">
      <g>
       <use style="stroke:#000000;stroke-width:0.6;" x="95.698286" xlink:href="#mde03875a03" y="294.88"/>
      </g>
     </g>
    </g>
    <g id="xtick_7">
     <g id="line2d_17">
      <path clip-path="url(#p34d7e48ec1)" d="M 135.276571 294.88 
L 135.276571 24.84 
" style="fill:none;stroke:#b0b0b0;stroke-linecap:square;stroke-width:0.8;"/>
     </g>
     <g id="line2d_18">
      <g>
       <use style="stroke:#000000;stroke-width:0.6;" x="135.276571" xlink:href="#mde03875a03" y="294.88"/>
      </g>
     </g>
    </g>
    <g id="xtick_8">
     <g id="line2d_19">
      <path clip-path="url(#p34d7e48ec1)" d="M 174.854857 294.88 
L 174.854857 24.84 
" style="fill:none;stroke:#b0b0b0;stroke-linecap:square;stroke-width:0.8;"/>
     </g>
     <g id="line2d_20">
      <g>
       <use style="stroke:#000000;stroke-width:0.6;" x="174.854857" xlink:href="#mde03875a03" y="294.88"/>
      </g>
     </g>
    </g>
    <g id="xtick_9">
     <g id="line2d_21">
      <path clip-path="url(#p34d7e48ec1)" d="M 214.433143 294.88 
L 214.433143 24.84 
" style="fill:none;stroke:#b0b0b0;stroke-linecap:square;stroke-width:0.8;"/>
     </g>
     <g id="line2d_22">
      <g>
       <use style="stroke:#000000;stroke-width:0.6;" x="214.433143" xlink:href="#mde03875a03" y="294.88"/>
      </g>
     </g>
    </g>
    <g id="xtick_10">
     <g id="line2d_23">
      <path clip-path="url(#p34d7e48ec1)" d="M 254.011429 294.88 
L 254.011429 24.84 
" style="fill:none;stroke:#b0b0b0;stroke-linecap:square;stroke-width:0.8;"/>
     </g>
     <g id="line2d_24">
      <g>
       <use style="stroke:#000000;stroke-width:0.6;" x="254.011429" xlink:href="#mde03875a03" y="294.88"/>
      </g>
     </g>
    </g>
    <g id="xtick_11">
     <g id="line2d_25">
      <path clip-path="url(#p34d7e48ec1)" d="M 293.589714 294.88 
L 293.589714 24.84 
" style="fill:none;stroke:#b0b0b0;stroke-linecap:square;stroke-width:0.8;"/>
     </g>
     <g id="line2d_26">
      <g>
       <use style="stroke:#000000;stroke-width:0.6;" x="293.589714" xlink:href="#mde03875a03" y="294.88"/>
      </g>
     </g>
    </g>
    <g id="xtick_12">
     <g id="line2d_27">
      <path clip-path="url(#p34d7e48ec1)" d="M 333.168 294.88 
L 333.168 24.84 
" style="fill:none;stroke:#b0b0b0;stroke-linecap:square;stroke-width:0.8;"/>
     </g>
     <g id="line2d_28">
      <g>
       <use style="stroke:#000000;stroke-width:0.6;" x="333.168" xlink:href="#mde03875a03" y="294.88"/>
      </g>
     </g>
    </g>
    <g id="text_5">
     <!-- log10(# f-evals / dimension) -->
     <defs>
      <path d="M 9.421875 75.984375 
L 18.40625 75.984375 
L 18.40625 0 
L 9.421875 0 
z
" id="DejaVuSans-6c"/>
      <path d="M 30.609375 48.390625 
Q 23.390625 48.390625 19.1875 42.75 
Q 14.984375 37.109375 14.984375 27.296875 
Q 14.984375 17.484375 19.15625 11.84375 
Q 23.34375 6.203125 30.609375 6.203125 
Q 37.796875 6.203125 41.984375 11.859375 
Q 46.1875 17.53125 46.1875 27.296875 
Q 46.1875 37.015625 41.984375 42.703125 
Q 37.796875 48.390625 30.609375 48.390625 
z
M 30.609375 56 
Q 42.328125 56 49.015625 48.375 
Q 55.71875 40.765625 55.71875 27.296875 
Q 55.71875 13.875 49.015625 6.21875 
Q 42.328125 -1.421875 30.609375 -1.421875 
Q 18.84375 -1.421875 12.171875 6.21875 
Q 5.515625 13.875 5.515625 27.296875 
Q 5.515625 40.765625 12.171875 48.375 
Q 18.84375 56 30.609375 56 
z
" id="DejaVuSans-6f"/>
      <path d="M 45.40625 27.984375 
Q 45.40625 37.75 41.375 43.109375 
Q 37.359375 48.484375 30.078125 48.484375 
Q 22.859375 48.484375 18.828125 43.109375 
Q 14.796875 37.75 14.796875 27.984375 
Q 14.796875 18.265625 18.828125 12.890625 
Q 22.859375 7.515625 30.078125 7.515625 
Q 37.359375 7.515625 41.375 12.890625 
Q 45.40625 18.265625 45.40625 27.984375 
z
M 54.390625 6.78125 
Q 54.390625 -7.171875 48.1875 -13.984375 
Q 42 -20.796875 29.203125 -20.796875 
Q 24.46875 -20.796875 20.265625 -20.09375 
Q 16.0625 -19.390625 12.109375 -17.921875 
L 12.109375 -9.1875 
Q 16.0625 -11.328125 19.921875 -12.34375 
Q 23.78125 -13.375 27.78125 -13.375 
Q 36.625 -13.375 41.015625 -8.765625 
Q 45.40625 -4.15625 45.40625 5.171875 
L 45.40625 9.625 
Q 42.625 4.78125 38.28125 2.390625 
Q 33.9375 0 27.875 0 
Q 17.828125 0 11.671875 7.65625 
Q 5.515625 15.328125 5.515625 27.984375 
Q 5.515625 40.671875 11.671875 48.328125 
Q 17.828125 56 27.875 56 
Q 33.9375 56 38.28125 53.609375 
Q 42.625 51.21875 45.40625 46.390625 
L 45.40625 54.6875 
L 54.390625 54.6875 
z
" id="DejaVuSans-67"/>
      <path d="M 12.40625 8.296875 
L 28.515625 8.296875 
L 28.515625 63.921875 
L 10.984375 60.40625 
L 10.984375 69.390625 
L 28.421875 72.90625 
L 38.28125 72.90625 
L 38.28125 8.296875 
L 54.390625 8.296875 
L 54.390625 0 
L 12.40625 0 
z
" id="DejaVuSans-31"/>
      <path d="M 31 75.875 
Q 24.46875 64.65625 21.28125 53.65625 
Q 18.109375 42.671875 18.109375 31.390625 
Q 18.109375 20.125 21.3125 9.0625 
Q 24.515625 -2 31 -13.1875 
L 23.1875 -13.1875 
Q 15.875 -1.703125 12.234375 9.375 
Q 8.59375 20.453125 8.59375 31.390625 
Q 8.59375 42.28125 12.203125 53.3125 
Q 15.828125 64.359375 23.1875 75.875 
z
" id="DejaVuSans-28"/>
      <path d="M 51.125 44 
L 36.921875 44 
L 32.8125 27.6875 
L 47.125 27.6875 
z
M 43.796875 71.78125 
L 38.71875 51.515625 
L 52.984375 51.515625 
L 58.109375 71.78125 
L 65.921875 71.78125 
L 60.890625 51.515625 
L 76.125 51.515625 
L 76.125 44 
L 58.984375 44 
L 54.984375 27.6875 
L 70.515625 27.6875 
L 70.515625 20.21875 
L 53.078125 20.21875 
L 48 0 
L 40.1875 0 
L 45.21875 20.21875 
L 30.90625 20.21875 
L 25.875 0 
L 18.015625 0 
L 23.09375 20.21875 
L 7.71875 20.21875 
L 7.71875 27.6875 
L 24.90625 27.6875 
L 29 44 
L 13.28125 44 
L 13.28125 51.515625 
L 30.90625 51.515625 
L 35.890625 71.78125 
z
" id="DejaVuSans-23"/>
      <path id="DejaVuSans-20"/>
      <path d="M 37.109375 75.984375 
L 37.109375 68.5 
L 28.515625 68.5 
Q 23.6875 68.5 21.796875 66.546875 
Q 19.921875 64.59375 19.921875 59.515625 
L 19.921875 54.6875 
L 34.71875 54.6875 
L 34.71875 47.703125 
L 19.921875 47.703125 
L 19.921875 0 
L 10.890625 0 
L 10.890625 47.703125 
L 2.296875 47.703125 
L 2.296875 54.6875 
L 10.890625 54.6875 
L 10.890625 58.5 
Q 10.890625 67.625 15.140625 71.796875 
Q 19.390625 75.984375 28.609375 75.984375 
z
" id="DejaVuSans-66"/>
      <path d="M 4.890625 31.390625 
L 31.203125 31.390625 
L 31.203125 23.390625 
L 4.890625 23.390625 
z
" id="DejaVuSans-2d"/>
      <path d="M 56.203125 29.59375 
L 56.203125 25.203125 
L 14.890625 25.203125 
Q 15.484375 15.921875 20.484375 11.0625 
Q 25.484375 6.203125 34.421875 6.203125 
Q 39.59375 6.203125 44.453125 7.46875 
Q 49.3125 8.734375 54.109375 11.28125 
L 54.109375 2.78125 
Q 49.265625 0.734375 44.1875 -0.34375 
Q 39.109375 -1.421875 33.890625 -1.421875 
Q 20.796875 -1.421875 13.15625 6.1875 
Q 5.515625 13.8125 5.515625 26.8125 
Q 5.515625 40.234375 12.765625 48.109375 
Q 20.015625 56 32.328125 56 
Q 43.359375 56 49.78125 48.890625 
Q 56.203125 41.796875 56.203125 29.59375 
z
M 47.21875 32.234375 
Q 47.125 39.59375 43.09375 43.984375 
Q 39.0625 48.390625 32.421875 48.390625 
Q 24.90625 48.390625 20.390625 44.140625 
Q 15.875 39.890625 15.1875 32.171875 
z
" id="DejaVuSans-65"/>
      <path d="M 2.984375 54.6875 
L 12.5 54.6875 
L 29.59375 8.796875 
L 46.6875 54.6875 
L 56.203125 54.6875 
L 35.6875 0 
L 23.484375 0 
z
" id="DejaVuSans-76"/>
      <path d="M 34.28125 27.484375 
Q 23.390625 27.484375 19.1875 25 
Q 14.984375 22.515625 14.984375 16.5 
Q 14.984375 11.71875 18.140625 8.90625 
Q 21.296875 6.109375 26.703125 6.109375 
Q 34.1875 6.109375 38.703125 11.40625 
Q 43.21875 16.703125 43.21875 25.484375 
L 43.21875 27.484375 
z
M 52.203125 31.203125 
L 52.203125 0 
L 43.21875 0 
L 43.21875 8.296875 
Q 40.140625 3.328125 35.546875 0.953125 
Q 30.953125 -1.421875 24.3125 -1.421875 
Q 15.921875 -1.421875 10.953125 3.296875 
Q 6 8.015625 6 15.921875 
Q 6 25.140625 12.171875 29.828125 
Q 18.359375 34.515625 30.609375 34.515625 
L 43.21875 34.515625 
L 43.21875 35.40625 
Q 43.21875 41.609375 39.140625 45 
Q 35.0625 48.390625 27.6875 48.390625 
Q 23 48.390625 18.546875 47.265625 
Q 14.109375 46.140625 10.015625 43.890625 
L 10.015625 52.203125 
Q 14.9375 54.109375 19.578125 55.046875 
Q 24.21875 56 28.609375 56 
Q 40.484375 56 46.34375 49.84375 
Q 52.203125 43.703125 52.203125 31.203125 
z
" id="DejaVuSans-61"/>
      <path d="M 44.28125 53.078125 
L 44.28125 44.578125 
Q 40.484375 46.53125 36.375 47.5 
Q 32.28125 48.484375 27.875 48.484375 
Q 21.1875 48.484375 17.84375 46.4375 
Q 14.5 44.390625 14.5 40.28125 
Q 14.5 37.15625 16.890625 35.375 
Q 19.28125 33.59375 26.515625 31.984375 
L 29.59375 31.296875 
Q 39.15625 29.25 43.1875 25.515625 
Q 47.21875 21.78125 47.21875 15.09375 
Q 47.21875 7.46875 41.1875 3.015625 
Q 35.15625 -1.421875 24.609375 -1.421875 
Q 20.21875 -1.421875 15.453125 -0.5625 
Q 10.6875 0.296875 5.421875 2 
L 5.421875 11.28125 
Q 10.40625 8.6875 15.234375 7.390625 
Q 20.0625 6.109375 24.8125 6.109375 
Q 31.15625 6.109375 34.5625 8.28125 
Q 37.984375 10.453125 37.984375 14.40625 
Q 37.984375 18.0625 35.515625 20.015625 
Q 33.0625 21.96875 24.703125 23.78125 
L 21.578125 24.515625 
Q 13.234375 26.265625 9.515625 29.90625 
Q 5.8125 33.546875 5.8125 39.890625 
Q 5.8125 47.609375 11.28125 51.796875 
Q 16.75 56 26.8125 56 
Q 31.78125 56 36.171875 55.265625 
Q 40.578125 54.546875 44.28125 53.078125 
z
" id="DejaVuSans-73"/>
      <path d="M 25.390625 72.90625 
L 33.6875 72.90625 
L 8.296875 -9.28125 
L 0 -9.28125 
z
" id="DejaVuSans-2f"/>
      <path d="M 45.40625 46.390625 
L 45.40625 75.984375 
L 54.390625 75.984375 
L 54.390625 0 
L 45.40625 0 
L 45.40625 8.203125 
Q 42.578125 3.328125 38.25 0.953125 
Q 33.9375 -1.421875 27.875 -1.421875 
Q 17.96875 -1.421875 11.734375 6.484375 
Q 5.515625 14.40625 5.515625 27.296875 
Q 5.515625 40.1875 11.734375 48.09375 
Q 17.96875 56 27.875 56 
Q 33.9375 56 38.25 53.625 
Q 42.578125 51.265625 45.40625 46.390625 
z
M 14.796875 27.296875 
Q 14.796875 17.390625 18.875 11.75 
Q 22.953125 6.109375 30.078125 6.109375 
Q 37.203125 6.109375 41.296875 11.75 
Q 45.40625 17.390625 45.40625 27.296875 
Q 45.40625 37.203125 41.296875 42.84375 
Q 37.203125 48.484375 30.078125 48.484375 
Q 22.953125 48.484375 18.875 42.84375 
Q 14.796875 37.203125 14.796875 27.296875 
z
" id="DejaVuSans-64"/>
      <path d="M 9.421875 54.6875 
L 18.40625 54.6875 
L 18.40625 0 
L 9.421875 0 
z
M 9.421875 75.984375 
L 18.40625 75.984375 
L 18.40625 64.59375 
L 9.421875 64.59375 
z
" id="DejaVuSans-69"/>
      <path d="M 52 44.1875 
Q 55.375 50.25 60.0625 53.125 
Q 64.75 56 71.09375 56 
Q 79.640625 56 84.28125 50.015625 
Q 88.921875 44.046875 88.921875 33.015625 
L 88.921875 0 
L 79.890625 0 
L 79.890625 32.71875 
Q 79.890625 40.578125 77.09375 44.375 
Q 74.3125 48.1875 68.609375 48.1875 
Q 61.625 48.1875 57.5625 43.546875 
Q 53.515625 38.921875 53.515625 30.90625 
L 53.515625 0 
L 44.484375 0 
L 44.484375 32.71875 
Q 44.484375 40.625 41.703125 44.40625 
Q 38.921875 48.1875 33.109375 48.1875 
Q 26.21875 48.1875 22.15625 43.53125 
Q 18.109375 38.875 18.109375 30.90625 
L 18.109375 0 
L 9.078125 0 
L 9.078125 54.6875 
L 18.109375 54.6875 
L 18.109375 46.1875 
Q 21.1875 51.21875 25.484375 53.609375 
Q 29.78125 56 35.6875 56 
Q 41.65625 56 45.828125 52.96875 
Q 50 49.953125 52 44.1875 
z
" id="DejaVuSans-6d"/>
      <path d="M 54.890625 33.015625 
L 54.890625 0 
L 45.90625 0 
L 45.90625 32.71875 
Q 45.90625 40.484375 42.875 44.328125 
Q 39.84375 48.1875 33.796875 48.1875 
Q 26.515625 48.1875 22.3125 43.546875 
Q 18.109375 38.921875 18.109375 30.90625 
L 18.109375 0 
L 9.078125 0 
L 9.078125 54.6875 
L 18.109375 54.6875 
L 18.109375 46.1875 
Q 21.34375 51.125 25.703125 53.5625 
Q 30.078125 56 35.796875 56 
Q 45.21875 56 50.046875 50.171875 
Q 54.890625 44.34375 54.890625 33.015625 
z
" id="DejaVuSans-6e"/>
      <path d="M 8.015625 75.875 
L 15.828125 75.875 
Q 23.140625 64.359375 26.78125 53.3125 
Q 30.421875 42.28125 30.421875 31.390625 
Q 30.421875 20.453125 26.78125 9.375 
Q 23.140625 -1.703125 15.828125 -13.1875 
L 8.015625 -13.1875 
Q 14.5 -2 17.703125 9.0625 
Q 20.90625 20.125 20.90625 31.390625 
Q 20.90625 42.671875 17.703125 53.65625 
Q 14.5 64.65625 8.015625 75.875 
z
" id="DejaVuSans-29"/>
     </defs>
     <g transform="translate(73.803219 338.153594)scale(0.17 -0.17)">
      <use xlink:href="#DejaVuSans-6c"/>
      <use x="27.783203" xlink:href="#DejaVuSans-6f"/>
      <use x="88.964844" xlink:href="#DejaVuSans-67"/>
      <use x="152.441406" xlink:href="#DejaVuSans-31"/>
      <use x="216.064453" xlink:href="#DejaVuSans-30"/>
      <use x="279.6875" xlink:href="#DejaVuSans-28"/>
      <use x="318.701172" xlink:href="#DejaVuSans-23"/>
      <use x="402.490234" xlink:href="#DejaVuSans-20"/>
      <use x="434.277344" xlink:href="#DejaVuSans-66"/>
      <use x="469.404297" xlink:href="#DejaVuSans-2d"/>
      <use x="505.488281" xlink:href="#DejaVuSans-65"/>
      <use x="567.011719" xlink:href="#DejaVuSans-76"/>
      <use x="626.191406" xlink:href="#DejaVuSans-61"/>
      <use x="687.470703" xlink:href="#DejaVuSans-6c"/>
      <use x="715.253906" xlink:href="#DejaVuSans-73"/>
      <use x="767.353516" xlink:href="#DejaVuSans-20"/>
      <use x="799.140625" xlink:href="#DejaVuSans-2f"/>
      <use x="832.832031" xlink:href="#DejaVuSans-20"/>
      <use x="864.619141" xlink:href="#DejaVuSans-64"/>
      <use x="928.095703" xlink:href="#DejaVuSans-69"/>
      <use x="955.878906" xlink:href="#DejaVuSans-6d"/>
      <use x="1053.291016" xlink:href="#DejaVuSans-65"/>
      <use x="1114.814453" xlink:href="#DejaVuSans-6e"/>
      <use x="1178.193359" xlink:href="#DejaVuSans-73"/>
      <use x="1230.292969" xlink:href="#DejaVuSans-69"/>
      <use x="1258.076172" xlink:href="#DejaVuSans-6f"/>
      <use x="1319.257812" xlink:href="#DejaVuSans-6e"/>
      <use x="1382.636719" xlink:href="#DejaVuSans-29"/>
     </g>
    </g>
   </g>
   <g id="matplotlib.axis_2">
    <g id="ytick_1">
     <g id="line2d_29">
      <path clip-path="url(#p34d7e48ec1)" d="M 56.12 294.88 
L 333.168 294.88 
" style="fill:none;stroke:#b0b0b0;stroke-linecap:square;stroke-width:0.8;"/>
     </g>
     <g id="line2d_30">
      <defs>
       <path d="M 0 0 
L -3.5 0 
" id="maf5fcf8752" style="stroke:#000000;stroke-width:0.8;"/>
      </defs>
      <g>
       <use style="stroke:#000000;stroke-width:0.8;" x="56.12" xlink:href="#maf5fcf8752" y="294.88"/>
      </g>
     </g>
     <g id="text_6">
      <!-- 0.0 -->
      <defs>
       <path d="M 10.6875 12.40625 
L 21 12.40625 
L 21 0 
L 10.6875 0 
z
" id="DejaVuSans-2e"/>
      </defs>
      <g transform="translate(23.675 300.95875)scale(0.16 -0.16)">
       <use xlink:href="#DejaVuSans-30"/>
       <use x="63.623047" xlink:href="#DejaVuSans-2e"/>
       <use x="95.410156" xlink:href="#DejaVuSans-30"/>
      </g>
     </g>
    </g>
    <g id="ytick_2">
     <g id="line2d_31">
      <path clip-path="url(#p34d7e48ec1)" d="M 56.12 241.406733 
L 333.168 241.406733 
" style="fill:none;stroke:#b0b0b0;stroke-linecap:square;stroke-width:0.8;"/>
     </g>
     <g id="line2d_32">
      <g>
       <use style="stroke:#000000;stroke-width:0.8;" x="56.12" xlink:href="#maf5fcf8752" y="241.406733"/>
      </g>
     </g>
     <g id="text_7">
      <!-- 0.2 -->
      <g transform="translate(23.675 247.485483)scale(0.16 -0.16)">
       <use xlink:href="#DejaVuSans-30"/>
       <use x="63.623047" xlink:href="#DejaVuSans-2e"/>
       <use x="95.410156" xlink:href="#DejaVuSans-32"/>
      </g>
     </g>
    </g>
    <g id="ytick_3">
     <g id="line2d_33">
      <path clip-path="url(#p34d7e48ec1)" d="M 56.12 187.933465 
L 333.168 187.933465 
" style="fill:none;stroke:#b0b0b0;stroke-linecap:square;stroke-width:0.8;"/>
     </g>
     <g id="line2d_34">
      <g>
       <use style="stroke:#000000;stroke-width:0.8;" x="56.12" xlink:href="#maf5fcf8752" y="187.933465"/>
      </g>
     </g>
     <g id="text_8">
      <!-- 0.4 -->
      <g transform="translate(23.675 194.012215)scale(0.16 -0.16)">
       <use xlink:href="#DejaVuSans-30"/>
       <use x="63.623047" xlink:href="#DejaVuSans-2e"/>
       <use x="95.410156" xlink:href="#DejaVuSans-34"/>
      </g>
     </g>
    </g>
    <g id="ytick_4">
     <g id="line2d_35">
      <path clip-path="url(#p34d7e48ec1)" d="M 56.12 134.460198 
L 333.168 134.460198 
" style="fill:none;stroke:#b0b0b0;stroke-linecap:square;stroke-width:0.8;"/>
     </g>
     <g id="line2d_36">
      <g>
       <use style="stroke:#000000;stroke-width:0.8;" x="56.12" xlink:href="#maf5fcf8752" y="134.460198"/>
      </g>
     </g>
     <g id="text_9">
      <!-- 0.6 -->
      <g transform="translate(23.675 140.538948)scale(0.16 -0.16)">
       <use xlink:href="#DejaVuSans-30"/>
       <use x="63.623047" xlink:href="#DejaVuSans-2e"/>
       <use x="95.410156" xlink:href="#DejaVuSans-36"/>
      </g>
     </g>
    </g>
    <g id="ytick_5">
     <g id="line2d_37">
      <path clip-path="url(#p34d7e48ec1)" d="M 56.12 80.986931 
L 333.168 80.986931 
" style="fill:none;stroke:#b0b0b0;stroke-linecap:square;stroke-width:0.8;"/>
     </g>
     <g id="line2d_38">
      <g>
       <use style="stroke:#000000;stroke-width:0.8;" x="56.12" xlink:href="#maf5fcf8752" y="80.986931"/>
      </g>
     </g>
     <g id="text_10">
      <!-- 0.8 -->
      <defs>
       <path d="M 31.78125 34.625 
Q 24.75 34.625 20.71875 30.859375 
Q 16.703125 27.09375 16.703125 20.515625 
Q 16.703125 13.921875 20.71875 10.15625 
Q 24.75 6.390625 31.78125 6.390625 
Q 38.8125 6.390625 42.859375 10.171875 
Q 46.921875 13.96875 46.921875 20.515625 
Q 46.921875 27.09375 42.890625 30.859375 
Q 38.875 34.625 31.78125 34.625 
z
M 21.921875 38.8125 
Q 15.578125 40.375 12.03125 44.71875 
Q 8.5 49.078125 8.5 55.328125 
Q 8.5 64.0625 14.71875 69.140625 
Q 20.953125 74.21875 31.78125 74.21875 
Q 42.671875 74.21875 48.875 69.140625 
Q 55.078125 64.0625 55.078125 55.328125 
Q 55.078125 49.078125 51.53125 44.71875 
Q 48 40.375 41.703125 38.8125 
Q 48.828125 37.15625 52.796875 32.3125 
Q 56.78125 27.484375 56.78125 20.515625 
Q 56.78125 9.90625 50.3125 4.234375 
Q 43.84375 -1.421875 31.78125 -1.421875 
Q 19.734375 -1.421875 13.25 4.234375 
Q 6.78125 9.90625 6.78125 20.515625 
Q 6.78125 27.484375 10.78125 32.3125 
Q 14.796875 37.15625 21.921875 38.8125 
z
M 18.3125 54.390625 
Q 18.3125 48.734375 21.84375 45.5625 
Q 25.390625 42.390625 31.78125 42.390625 
Q 38.140625 42.390625 41.71875 45.5625 
Q 45.3125 48.734375 45.3125 54.390625 
Q 45.3125 60.0625 41.71875 63.234375 
Q 38.140625 66.40625 31.78125 66.40625 
Q 25.390625 66.40625 21.84375 63.234375 
Q 18.3125 60.0625 18.3125 54.390625 
z
" id="DejaVuSans-38"/>
      </defs>
      <g transform="translate(23.675 87.065681)scale(0.16 -0.16)">
       <use xlink:href="#DejaVuSans-30"/>
       <use x="63.623047" xlink:href="#DejaVuSans-2e"/>
       <use x="95.410156" xlink:href="#DejaVuSans-38"/>
      </g>
     </g>
    </g>
    <g id="ytick_6">
     <g id="line2d_39">
      <path clip-path="url(#p34d7e48ec1)" d="M 56.12 27.513663 
L 333.168 27.513663 
" style="fill:none;stroke:#b0b0b0;stroke-linecap:square;stroke-width:0.8;"/>
     </g>
     <g id="line2d_40">
      <g>
       <use style="stroke:#000000;stroke-width:0.8;" x="56.12" xlink:href="#maf5fcf8752" y="27.513663"/>
      </g>
     </g>
     <g id="text_11">
      <!-- 1.0 -->
      <g transform="translate(23.675 33.592413)scale(0.16 -0.16)">
       <use xlink:href="#DejaVuSans-31"/>
       <use x="63.623047" xlink:href="#DejaVuSans-2e"/>
       <use x="95.410156" xlink:href="#DejaVuSans-30"/>
      </g>
     </g>
    </g>
    <g id="text_12">
     <!-- Fraction of function,target pairs -->
     <defs>
      <path d="M 9.8125 72.90625 
L 51.703125 72.90625 
L 51.703125 64.59375 
L 19.671875 64.59375 
L 19.671875 43.109375 
L 48.578125 43.109375 
L 48.578125 34.8125 
L 19.671875 34.8125 
L 19.671875 0 
L 9.8125 0 
z
" id="DejaVuSans-46"/>
      <path d="M 41.109375 46.296875 
Q 39.59375 47.171875 37.8125 47.578125 
Q 36.03125 48 33.890625 48 
Q 26.265625 48 22.1875 43.046875 
Q 18.109375 38.09375 18.109375 28.8125 
L 18.109375 0 
L 9.078125 0 
L 9.078125 54.6875 
L 18.109375 54.6875 
L 18.109375 46.1875 
Q 20.953125 51.171875 25.484375 53.578125 
Q 30.03125 56 36.53125 56 
Q 37.453125 56 38.578125 55.875 
Q 39.703125 55.765625 41.0625 55.515625 
z
" id="DejaVuSans-72"/>
      <path d="M 48.78125 52.59375 
L 48.78125 44.1875 
Q 44.96875 46.296875 41.140625 47.34375 
Q 37.3125 48.390625 33.40625 48.390625 
Q 24.65625 48.390625 19.8125 42.84375 
Q 14.984375 37.3125 14.984375 27.296875 
Q 14.984375 17.28125 19.8125 11.734375 
Q 24.65625 6.203125 33.40625 6.203125 
Q 37.3125 6.203125 41.140625 7.25 
Q 44.96875 8.296875 48.78125 10.40625 
L 48.78125 2.09375 
Q 45.015625 0.34375 40.984375 -0.53125 
Q 36.96875 -1.421875 32.421875 -1.421875 
Q 20.0625 -1.421875 12.78125 6.34375 
Q 5.515625 14.109375 5.515625 27.296875 
Q 5.515625 40.671875 12.859375 48.328125 
Q 20.21875 56 33.015625 56 
Q 37.15625 56 41.109375 55.140625 
Q 45.0625 54.296875 48.78125 52.59375 
z
" id="DejaVuSans-63"/>
      <path d="M 18.3125 70.21875 
L 18.3125 54.6875 
L 36.8125 54.6875 
L 36.8125 47.703125 
L 18.3125 47.703125 
L 18.3125 18.015625 
Q 18.3125 11.328125 20.140625 9.421875 
Q 21.96875 7.515625 27.59375 7.515625 
L 36.8125 7.515625 
L 36.8125 0 
L 27.59375 0 
Q 17.1875 0 13.234375 3.875 
Q 9.28125 7.765625 9.28125 18.015625 
L 9.28125 47.703125 
L 2.6875 47.703125 
L 2.6875 54.6875 
L 9.28125 54.6875 
L 9.28125 70.21875 
z
" id="DejaVuSans-74"/>
      <path d="M 8.5 21.578125 
L 8.5 54.6875 
L 17.484375 54.6875 
L 17.484375 21.921875 
Q 17.484375 14.15625 20.5 10.265625 
Q 23.53125 6.390625 29.59375 6.390625 
Q 36.859375 6.390625 41.078125 11.03125 
Q 45.3125 15.671875 45.3125 23.6875 
L 45.3125 54.6875 
L 54.296875 54.6875 
L 54.296875 0 
L 45.3125 0 
L 45.3125 8.40625 
Q 42.046875 3.421875 37.71875 1 
Q 33.40625 -1.421875 27.6875 -1.421875 
Q 18.265625 -1.421875 13.375 4.4375 
Q 8.5 10.296875 8.5 21.578125 
z
M 31.109375 56 
z
" id="DejaVuSans-75"/>
      <path d="M 11.71875 12.40625 
L 22.015625 12.40625 
L 22.015625 4 
L 14.015625 -11.625 
L 7.71875 -11.625 
L 11.71875 4 
z
" id="DejaVuSans-2c"/>
      <path d="M 18.109375 8.203125 
L 18.109375 -20.796875 
L 9.078125 -20.796875 
L 9.078125 54.6875 
L 18.109375 54.6875 
L 18.109375 46.390625 
Q 20.953125 51.265625 25.265625 53.625 
Q 29.59375 56 35.59375 56 
Q 45.5625 56 51.78125 48.09375 
Q 58.015625 40.1875 58.015625 27.296875 
Q 58.015625 14.40625 51.78125 6.484375 
Q 45.5625 -1.421875 35.59375 -1.421875 
Q 29.59375 -1.421875 25.265625 0.953125 
Q 20.953125 3.328125 18.109375 8.203125 
z
M 48.6875 27.296875 
Q 48.6875 37.203125 44.609375 42.84375 
Q 40.53125 48.484375 33.40625 48.484375 
Q 26.265625 48.484375 22.1875 42.84375 
Q 18.109375 37.203125 18.109375 27.296875 
Q 18.109375 17.390625 22.1875 11.75 
Q 26.265625 6.109375 33.40625 6.109375 
Q 40.53125 6.109375 44.609375 11.75 
Q 48.6875 17.390625 48.6875 27.296875 
z
" id="DejaVuSans-70"/>
     </defs>
     <g transform="translate(16.139531 294.999375)rotate(-90)scale(0.17 -0.17)">
      <use xlink:href="#DejaVuSans-46"/>
      <use x="57.410156" xlink:href="#DejaVuSans-72"/>
      <use x="98.523438" xlink:href="#DejaVuSans-61"/>
      <use x="159.802734" xlink:href="#DejaVuSans-63"/>
      <use x="214.783203" xlink:href="#DejaVuSans-74"/>
      <use x="253.992188" xlink:href="#DejaVuSans-69"/>
      <use x="281.775391" xlink:href="#DejaVuSans-6f"/>
      <use x="342.957031" xlink:href="#DejaVuSans-6e"/>
      <use x="406.335938" xlink:href="#DejaVuSans-20"/>
      <use x="438.123047" xlink:href="#DejaVuSans-6f"/>
      <use x="499.304688" xlink:href="#DejaVuSans-66"/>
      <use x="534.509766" xlink:href="#DejaVuSans-20"/>
      <use x="566.296875" xlink:href="#DejaVuSans-66"/>
      <use x="601.501953" xlink:href="#DejaVuSans-75"/>
      <use x="664.880859" xlink:href="#DejaVuSans-6e"/>
      <use x="728.259766" xlink:href="#DejaVuSans-63"/>
      <use x="783.240234" xlink:href="#DejaVuSans-74"/>
      <use x="822.449219" xlink:href="#DejaVuSans-69"/>
      <use x="850.232422" xlink:href="#DejaVuSans-6f"/>
      <use x="911.414062" xlink:href="#DejaVuSans-6e"/>
      <use x="974.792969" xlink:href="#DejaVuSans-2c"/>
      <use x="1006.580078" xlink:href="#DejaVuSans-74"/>
      <use x="1045.789062" xlink:href="#DejaVuSans-61"/>
      <use x="1107.068359" xlink:href="#DejaVuSans-72"/>
      <use x="1148.166016" xlink:href="#DejaVuSans-67"/>
      <use x="1211.642578" xlink:href="#DejaVuSans-65"/>
      <use x="1273.166016" xlink:href="#DejaVuSans-74"/>
      <use x="1312.375" xlink:href="#DejaVuSans-20"/>
      <use x="1344.162109" xlink:href="#DejaVuSans-70"/>
      <use x="1407.638672" xlink:href="#DejaVuSans-61"/>
      <use x="1468.917969" xlink:href="#DejaVuSans-69"/>
      <use x="1496.701172" xlink:href="#DejaVuSans-72"/>
      <use x="1537.814453" xlink:href="#DejaVuSans-73"/>
     </g>
    </g>
   </g>
   <g id="line2d_41">
    <defs>
     <path d="M 0 1.5 
C 0.397805 1.5 0.77937 1.341951 1.06066 1.06066 
C 1.341951 0.77937 1.5 0.397805 1.5 0 
C 1.5 -0.397805 1.341951 -0.77937 1.06066 -1.06066 
C 0.77937 -1.341951 0.397805 -1.5 0 -1.5 
C -0.397805 -1.5 -0.77937 -1.341951 -1.06066 -1.06066 
C -1.341951 -0.77937 -1.5 -0.397805 -1.5 0 
C -1.5 0.397805 -1.341951 0.77937 -1.06066 1.06066 
C -0.77937 1.341951 -0.397805 1.5 0 1.5 
z
" id="m9ec6c77e9f" style="stroke:#f5deb3;"/>
    </defs>
    <g>
     <use style="fill:#f5deb3;stroke:#f5deb3;" x="132.415555" xlink:href="#m9ec6c77e9f" y="27.513663"/>
     <use style="fill:#f5deb3;stroke:#f5deb3;" x="132.415555" xlink:href="#m9ec6c77e9f" y="27.513663"/>
    </g>
   </g>
   <g id="line2d_42">
    <defs>
     <path d="M 0 1.5 
C 0.397805 1.5 0.77937 1.341951 1.06066 1.06066 
C 1.341951 0.77937 1.5 0.397805 1.5 0 
C 1.5 -0.397805 1.341951 -0.77937 1.06066 -1.06066 
C 0.77937 -1.341951 0.397805 -1.5 0 -1.5 
C -0.397805 -1.5 -0.77937 -1.341951 -1.06066 -1.06066 
C -1.341951 -0.77937 -1.5 -0.397805 -1.5 0 
C -1.5 0.397805 -1.341951 0.77937 -1.06066 1.06066 
C -0.77937 1.341951 -0.397805 1.5 0 1.5 
z
" id="m3aa248a450" style="stroke:#000080;"/>
    </defs>
    <g>
     <use style="fill:#000080;stroke:#000080;" x="163.66976" xlink:href="#m3aa248a450" y="27.513663"/>
     <use style="fill:#000080;stroke:#000080;" x="163.66976" xlink:href="#m3aa248a450" y="27.513663"/>
    </g>
   </g>
   <g id="line2d_43">
    <path d="M 106.730875 294.88 
L 106.730875 293.831505 
L 124.896081 293.831505 
L 124.896081 293.307257 
L 128.478214 293.307257 
L 128.478214 290.686018 
L 129.945433 290.686018 
L 129.945433 289.113275 
L 130.634602 289.113275 
L 130.634602 286.492036 
L 131.005861 286.492036 
L 131.07916 282.822302 
L 131.51251 282.822302 
L 131.51251 282.298055 
L 132.073821 282.298055 
L 132.073821 280.725312 
L 132.483094 280.725312 
L 132.550368 277.579825 
L 132.684132 277.579825 
L 132.684132 277.055578 
L 133.273515 277.055578 
L 133.273515 276.007082 
L 134.87075 276.007082 
L 134.87075 274.958587 
L 135.161597 274.958587 
L 135.21918 273.910091 
L 135.447604 273.910091 
L 135.447604 273.385844 
L 136.599426 273.385844 
L 136.705203 270.764605 
L 136.810332 270.764605 
L 136.914823 268.667614 
L 137.427955 268.667614 
L 137.528768 266.570623 
L 137.678888 266.570623 
L 137.728638 265.522128 
L 138.024152 265.522128 
L 138.024152 264.473632 
L 138.170025 264.473632 
L 138.170025 262.376641 
L 138.694545 262.376641 
L 138.694545 261.328146 
L 139.203533 261.328146 
L 139.203533 260.279651 
L 140.092032 260.279651 
L 140.092032 257.658412 
L 140.561812 257.658412 
L 140.561812 256.609917 
L 140.729508 256.609917 
L 140.729508 255.037173 
L 141.141725 255.037173 
L 141.141725 254.512926 
L 141.781376 254.512926 
L 141.820574 253.46443 
L 142.015238 253.46443 
L 142.015238 252.940182 
L 142.130987 252.940182 
L 142.130987 249.270448 
L 142.586342 249.270448 
L 142.661075 245.600714 
L 142.993411 245.600714 
L 143.029944 241.93098 
L 143.283522 241.93098 
L 143.283522 240.358237 
L 143.497935 240.358237 
L 143.497935 239.83399 
L 143.849453 239.83399 
L 143.884213 238.261246 
L 144.193927 238.261246 
L 144.295937 235.640008 
L 144.531632 235.640008 
L 144.631663 233.543017 
L 144.829995 233.543017 
L 144.895601 231.970274 
L 144.960957 231.970274 
L 145.058527 228.824787 
L 145.090928 228.824787 
L 145.155547 226.203549 
L 145.31604 226.203549 
L 145.31604 225.679301 
L 145.538241 225.679301 
L 145.538241 223.058063 
L 145.819772 223.058063 
L 145.9126 219.912576 
L 145.974208 219.912576 
L 146.066208 214.145851 
L 146.218456 214.145851 
L 146.278979 211.000365 
L 146.459281 211.000365 
L 146.459281 207.854879 
L 146.726237 207.854879 
L 146.726237 207.330631 
L 146.901931 207.330631 
L 146.901931 205.23364 
L 147.018071 205.23364 
L 147.018071 203.660897 
L 147.190823 203.660897 
L 147.190823 200.515411 
L 147.390196 200.515411 
L 147.390196 198.41842 
L 147.643181 198.41842 
L 147.643181 197.894172 
L 147.837405 197.894172 
L 147.837405 197.369924 
L 148.029459 197.369924 
L 148.029459 195.272933 
L 148.165338 195.272933 
L 148.165338 194.748686 
L 148.326988 194.748686 
L 148.326988 192.651695 
L 148.487131 192.651695 
L 148.487131 191.603199 
L 148.645797 191.603199 
L 148.645797 190.554704 
L 148.881082 190.554704 
L 148.984628 187.409218 
L 149.266206 187.409218 
L 149.266206 185.836474 
L 149.46813 185.836474 
L 149.543245 179.545502 
L 149.717245 179.545502 
L 149.815889 178.497006 
L 149.864999 178.497006 
L 149.864999 175.875768 
L 150.011494 175.875768 
L 150.108469 172.730281 
L 150.204899 172.730281 
L 150.204899 171.157538 
L 150.348537 171.157538 
L 150.396151 169.060547 
L 150.561769 169.060547 
L 150.608797 168.012052 
L 150.679098 168.012052 
L 150.772388 161.721079 
L 151.208729 161.721079 
L 151.208729 160.148336 
L 151.411614 160.148336 
L 151.456376 157.527098 
L 151.545552 157.527098 
L 151.634268 155.430107 
L 151.788427 155.430107 
L 151.854074 150.18763 
L 151.984621 150.18763 
L 152.071105 148.090639 
L 152.178602 148.090639 
L 152.28543 141.799666 
L 152.433883 141.799666 
L 152.433883 141.275418 
L 152.581065 141.275418 
L 152.581065 138.65418 
L 152.851103 138.65418 
L 152.851103 137.605684 
L 152.97432 137.605684 
L 153.055976 134.460198 
L 153.218134 134.460198 
L 153.238297 130.790464 
L 153.734826 130.790464 
L 153.734826 127.644978 
L 153.910122 127.644978 
L 153.910122 127.12073 
L 154.083649 127.12073 
L 154.121973 126.072235 
L 154.38788 126.072235 
L 154.38788 121.354005 
L 154.538 121.354005 
L 154.538 120.829757 
L 154.649736 120.829757 
L 154.723825 119.257014 
L 154.889367 119.257014 
L 154.889367 118.732766 
L 155.017028 118.732766 
L 155.107638 114.538785 
L 155.215743 114.538785 
L 155.215743 114.014537 
L 155.358833 114.014537 
L 155.394421 108.247812 
L 155.57126 108.247812 
L 155.606411 107.199317 
L 155.746298 107.199317 
L 155.798464 105.626573 
L 156.005559 105.626573 
L 156.039833 102.481087 
L 156.125221 102.481087 
L 156.159258 101.432592 
L 156.27786 101.432592 
L 156.311596 98.287105 
L 156.645366 98.287105 
L 156.744246 91.471885 
L 156.77708 91.471885 
L 156.77708 90.42339 
L 156.956555 90.42339 
L 157.037519 83.083922 
L 157.069798 83.083922 
L 157.134175 79.414188 
L 157.405119 79.414188 
L 157.405119 77.841444 
L 157.531159 77.841444 
L 157.531159 75.220206 
L 157.702969 75.220206 
L 157.795964 72.074719 
L 157.857683 72.074719 
L 157.949847 70.501976 
L 157.980459 70.501976 
L 158.087174 65.783747 
L 158.313642 65.783747 
L 158.343613 63.162508 
L 158.537164 63.162508 
L 158.61103 60.017022 
L 158.655198 60.017022 
L 158.669895 57.395783 
L 158.830743 57.395783 
L 158.87435 56.347288 
L 158.946785 56.347288 
L 159.047683 54.250297 
L 159.062048 54.250297 
L 159.133698 49.532068 
L 159.445454 49.532068 
L 159.445454 46.910829 
L 159.765446 46.910829 
L 159.792992 45.862334 
L 159.902736 45.862334 
L 159.902736 44.813838 
L 160.079589 44.813838 
L 160.187524 43.241095 
L 160.348167 43.241095 
L 160.441186 39.571361 
L 160.546882 39.571361 
L 160.58635 38.522865 
L 160.665017 38.522865 
L 160.730299 36.425875 
L 160.88597 36.425875 
L 160.988974 34.328884 
L 161.167758 34.328884 
L 161.269091 31.707645 
L 161.877052 31.707645 
L 161.877052 30.65915 
L 162.274704 30.65915 
L 162.274704 29.610654 
L 162.640057 29.610654 
L 162.640057 29.086407 
L 163.66976 29.086407 
L 163.66976 27.513663 
L 333.168 27.513663 
L 333.168 27.513663 
" style="fill:none;stroke:#000080;stroke-linecap:square;stroke-width:1.5;"/>
   </g>
   <g id="line2d_44">
    <defs>
     <path d="M 0 6 
C 1.591219 6 3.117479 5.367802 4.242641 4.242641 
C 5.367802 3.117479 6 1.591219 6 0 
C 6 -1.591219 5.367802 -3.117479 4.242641 -4.242641 
C 3.117479 -5.367802 1.591219 -6 0 -6 
C -1.591219 -6 -3.117479 -5.367802 -4.242641 -4.242641 
C -5.367802 -3.117479 -6 -1.591219 -6 0 
C -6 1.591219 -5.367802 3.117479 -4.242641 4.242641 
C -3.117479 5.367802 -1.591219 6 0 6 
z
" id="m5087058afb" style="stroke:#000080;stroke-width:1.5;"/>
    </defs>
    <g>
     <use style="fill-opacity:0;stroke:#000080;stroke-width:1.5;" x="150.679098" xlink:href="#m5087058afb" y="168.012052"/>
     <use style="fill-opacity:0;stroke:#000080;stroke-width:1.5;" x="163.66976" xlink:href="#m5087058afb" y="29.086407"/>
     <use style="fill-opacity:0;stroke:#000080;stroke-width:1.5;" x="163.66976" xlink:href="#m5087058afb" y="27.513663"/>
     <use style="fill-opacity:0;stroke:#000080;stroke-width:1.5;" x="163.66976" xlink:href="#m5087058afb" y="27.513663"/>
     <use style="fill-opacity:0;stroke:#000080;stroke-width:1.5;" x="333.168" xlink:href="#m5087058afb" y="27.513663"/>
    </g>
   </g>
   <g id="line2d_45">
    <path style="fill:none;stroke:#000080;stroke-linecap:square;stroke-width:1.5;"/>
    <g/>
   </g>
   <g id="line2d_46">
    <defs>
     <path d="M 0 1.5 
C 0.397805 1.5 0.77937 1.341951 1.06066 1.06066 
C 1.341951 0.77937 1.5 0.397805 1.5 0 
C 1.5 -0.397805 1.341951 -0.77937 1.06066 -1.06066 
C 0.77937 -1.341951 0.397805 -1.5 0 -1.5 
C -0.397805 -1.5 -0.77937 -1.341951 -1.06066 -1.06066 
C -1.341951 -0.77937 -1.5 -0.397805 -1.5 0 
C -1.5 0.397805 -1.341951 0.77937 -1.06066 1.06066 
C -0.77937 1.341951 -0.397805 1.5 0 1.5 
z
" id="mf3c08edd55" style="stroke:#ff00ff;"/>
    </defs>
    <g>
     <use style="fill:#ff00ff;stroke:#ff00ff;" x="168.065007" xlink:href="#mf3c08edd55" y="27.513663"/>
     <use style="fill:#ff00ff;stroke:#ff00ff;" x="168.065007" xlink:href="#mf3c08edd55" y="27.513663"/>
    </g>
   </g>
   <g id="line2d_47">
    <path d="M 112.557398 294.88 
L 112.557398 293.831505 
L 113.19018 293.831505 
L 113.19018 293.307257 
L 114.959714 293.307257 
L 114.959714 292.258761 
L 117.874207 292.258761 
L 117.874207 290.161771 
L 118.645127 290.161771 
L 118.645127 288.589027 
L 118.795247 288.589027 
L 118.795247 288.06478 
L 119.810904 288.06478 
L 119.810904 287.016284 
L 120.501303 287.016284 
L 120.501303 286.492036 
L 121.16504 286.492036 
L 121.16504 285.967789 
L 121.42352 285.967789 
L 121.42352 285.443541 
L 121.929105 285.443541 
L 121.929105 283.870798 
L 122.176427 283.870798 
L 122.176427 279.676816 
L 122.298767 279.676816 
L 122.298767 278.628321 
L 122.420242 278.628321 
L 122.420242 278.104073 
L 122.540864 278.104073 
L 122.540864 274.958587 
L 122.897734 274.958587 
L 122.897734 274.434339 
L 123.36232 274.434339 
L 123.36232 273.385844 
L 123.814679 273.385844 
L 123.814679 270.764605 
L 123.925932 270.764605 
L 124.036471 268.667614 
L 124.255437 268.667614 
L 124.255437 268.143366 
L 124.471649 268.143366 
L 124.471649 267.094871 
L 125.310285 267.094871 
L 125.310285 266.570623 
L 125.913457 266.570623 
L 126.011959 265.522128 
L 126.207287 265.522128 
L 126.207287 264.473632 
L 126.40042 264.473632 
L 126.40042 262.376641 
L 126.873966 262.376641 
L 126.873966 261.328146 
L 127.151955 261.328146 
L 127.243628 260.279651 
L 127.515749 260.279651 
L 127.605507 258.706907 
L 127.694799 258.706907 
L 127.694799 257.658412 
L 128.898495 257.658412 
L 128.981332 255.037173 
L 129.063771 255.037173 
L 129.145817 253.988678 
L 129.389632 253.988678 
L 129.389632 253.46443 
L 129.70943 253.46443 
L 129.70943 252.940182 
L 130.33171 252.940182 
L 130.33171 251.891687 
L 131.224827 251.891687 
L 131.224827 248.746201 
L 131.36927 248.746201 
L 131.36927 248.221953 
L 131.795457 248.221953 
L 131.795457 247.697705 
L 132.073821 247.697705 
L 132.073821 247.173458 
L 132.279675 247.173458 
L 132.347749 246.124962 
L 132.750626 246.124962 
L 132.816864 244.552219 
L 132.882847 244.552219 
L 132.882847 244.027971 
L 133.014059 244.027971 
L 133.014059 243.503724 
L 133.337771 243.503724 
L 133.337771 242.979476 
L 133.465568 242.979476 
L 133.529112 241.406733 
L 133.592422 241.406733 
L 133.6555 239.83399 
L 133.718347 239.83399 
L 133.718347 239.309742 
L 134.029181 239.309742 
L 134.090678 237.736999 
L 134.151957 237.736999 
L 134.213018 235.11576 
L 134.273863 235.11576 
L 134.273863 229.873283 
L 134.39491 229.873283 
L 134.455115 227.776292 
L 134.515111 227.776292 
L 134.515111 227.252044 
L 134.634477 227.252044 
L 134.634477 226.727797 
L 134.929315 226.727797 
L 134.98768 225.679301 
L 135.10382 225.679301 
L 135.10382 223.58231 
L 135.447604 223.58231 
L 135.504239 222.533815 
L 135.784647 222.533815 
L 135.784647 218.864081 
L 136.005725 218.864081 
L 136.005725 218.339833 
L 136.966831 218.339833 
L 136.966831 217.291338 
L 137.326546 217.291338 
L 137.326546 215.194347 
L 137.728638 215.194347 
L 137.778244 212.04886 
L 137.975251 212.04886 
L 137.975251 211.524613 
L 138.170025 211.524613 
L 138.218376 208.379126 
L 138.505658 208.379126 
L 138.600361 203.660897 
L 139.112104 203.660897 
L 139.157879 200.515411 
L 139.294478 200.515411 
L 139.294478 199.991163 
L 139.43 199.991163 
L 139.474938 198.942667 
L 139.653523 198.942667 
L 139.742124 197.369924 
L 139.917968 197.369924 
L 139.917968 194.748686 
L 140.135274 194.748686 
L 140.178407 192.651695 
L 140.26435 192.651695 
L 140.349866 185.312227 
L 140.392465 185.312227 
L 140.477347 182.690988 
L 140.729508 182.690988 
L 140.812746 179.021254 
L 140.854214 179.021254 
L 140.936852 176.400016 
L 140.978022 176.400016 
L 140.978022 175.875768 
L 141.100945 175.875768 
L 141.100945 174.827272 
L 141.263487 174.827272 
L 141.263487 172.206034 
L 141.464526 172.206034 
L 141.464526 170.633291 
L 141.623681 170.633291 
L 141.623681 169.584795 
L 141.937637 169.584795 
L 141.937637 163.293823 
L 142.130987 163.293823 
L 142.169397 162.245327 
L 142.435893 162.245327 
L 142.435893 159.099841 
L 142.920112 159.099841 
L 143.029944 155.430107 
L 143.102777 155.430107 
L 143.139078 151.236125 
L 143.319443 151.236125 
L 143.426761 150.18763 
L 143.639406 150.18763 
L 143.744751 145.993648 
L 143.779723 145.993648 
L 143.779723 141.275418 
L 144.056965 141.275418 
L 144.091308 138.129932 
L 144.227997 138.129932 
L 144.227997 137.081437 
L 144.363608 137.081437 
L 144.431015 134.460198 
L 144.664877 134.460198 
L 144.664877 133.93595 
L 144.862829 133.93595 
L 144.960957 132.363207 
L 145.026065 132.363207 
L 145.026065 131.838959 
L 145.219924 131.838959 
L 145.252022 128.693473 
L 145.411621 128.693473 
L 145.411621 127.644978 
L 145.663936 127.644978 
L 145.72644 126.072235 
L 145.9126 126.072235 
L 145.9126 125.023739 
L 146.127269 125.023739 
L 146.218456 120.829757 
L 146.278979 120.829757 
L 146.278979 118.208519 
L 146.429362 118.208519 
L 146.459281 116.635776 
L 146.608101 116.635776 
L 146.667271 115.063032 
L 146.843566 115.063032 
L 146.843566 114.538785 
L 146.960099 114.538785 
L 147.046984 113.490289 
L 147.075848 113.490289 
L 147.133431 110.344803 
L 147.219446 110.344803 
L 147.305033 108.247812 
L 147.361855 108.247812 
L 147.446737 107.199317 
L 147.559266 107.199317 
L 147.559266 104.578078 
L 147.671062 104.578078 
L 147.782136 103.529583 
L 147.892497 103.529583 
L 147.974805 99.335601 
L 148.056721 99.335601 
L 148.056721 98.287105 
L 148.619454 98.287105 
L 148.724584 96.190115 
L 148.776908 96.190115 
L 148.776908 94.093124 
L 149.036169 94.093124 
L 149.087555 91.996133 
L 149.493205 91.996133 
L 149.493205 89.899142 
L 150.108469 89.899142 
L 150.108469 86.229408 
L 150.300791 86.229408 
L 150.300791 85.70516 
L 150.585299 85.70516 
L 150.608797 79.414188 
L 150.772388 79.414188 
L 150.772388 78.365692 
L 150.980457 78.365692 
L 150.980457 77.317197 
L 151.208729 77.317197 
L 151.208729 76.792949 
L 151.523301 76.792949 
L 151.523301 74.695958 
L 152.157156 74.695958 
L 152.178602 73.123215 
L 152.706225 73.123215 
L 152.789162 68.404985 
L 153.035598 68.404985 
L 153.035598 67.35649 
L 154.121973 67.35649 
L 154.121973 65.783747 
L 154.236437 65.783747 
L 154.236437 65.259499 
L 154.481859 65.259499 
L 154.481859 64.211004 
L 154.907662 64.211004 
L 154.907662 63.686756 
L 155.197773 63.686756 
L 155.197773 62.114013 
L 155.536037 62.114013 
L 155.536037 61.589765 
L 155.798464 61.589765 
L 155.798464 58.968526 
L 157.468255 58.968526 
L 157.468255 58.444279 
L 159.861664 58.444279 
L 159.861664 57.920031 
L 160.268033 57.920031 
L 160.361486 56.347288 
L 160.388094 56.347288 
L 160.388094 55.298792 
L 160.847184 55.298792 
L 160.924669 51.104811 
L 161.519841 51.104811 
L 161.519841 49.00782 
L 161.779251 49.00782 
L 161.779251 47.435077 
L 162.143173 47.435077 
L 162.143173 45.862334 
L 162.298511 45.862334 
L 162.298511 45.338086 
L 163.134315 45.338086 
L 163.134315 44.28959 
L 164.400844 44.28959 
L 164.484845 42.716847 
L 164.744732 42.716847 
L 164.744732 42.192599 
L 164.939652 42.192599 
L 164.980407 41.144104 
L 165.442279 41.144104 
L 165.442279 40.619856 
L 165.795281 40.619856 
L 165.901712 39.047113 
L 165.988305 39.047113 
L 166.093552 34.853131 
L 166.498896 34.853131 
L 166.498896 34.328884 
L 166.894901 34.328884 
L 166.894901 33.280388 
L 167.138972 33.280388 
L 167.228497 32.231893 
L 167.388475 32.231893 
L 167.388475 31.707645 
L 167.503095 31.707645 
L 167.608225 28.562159 
L 168.065007 28.562159 
L 168.065007 27.513663 
L 333.168 27.513663 
L 333.168 27.513663 
" style="fill:none;stroke:#ff00ff;stroke-linecap:square;stroke-width:1.5;"/>
   </g>
   <g id="line2d_48">
    <defs>
     <path d="M -0 8.485281 
L 5.091169 0 
L 0 -8.485281 
L -5.091169 -0 
z
" id="mfa79fa4808" style="stroke:#ff00ff;stroke-linejoin:miter;stroke-width:1.5;"/>
    </defs>
    <g>
     <use style="fill-opacity:0;stroke:#ff00ff;stroke-linejoin:miter;stroke-width:1.5;" x="160.361486" xlink:href="#mfa79fa4808" y="56.347288"/>
     <use style="fill-opacity:0;stroke:#ff00ff;stroke-linejoin:miter;stroke-width:1.5;" x="168.065007" xlink:href="#mfa79fa4808" y="28.562159"/>
     <use style="fill-opacity:0;stroke:#ff00ff;stroke-linejoin:miter;stroke-width:1.5;" x="168.065007" xlink:href="#mfa79fa4808" y="27.513663"/>
     <use style="fill-opacity:0;stroke:#ff00ff;stroke-linejoin:miter;stroke-width:1.5;" x="168.065007" xlink:href="#mfa79fa4808" y="27.513663"/>
     <use style="fill-opacity:0;stroke:#ff00ff;stroke-linejoin:miter;stroke-width:1.5;" x="333.168" xlink:href="#mfa79fa4808" y="27.513663"/>
    </g>
   </g>
   <g id="line2d_49">
    <path style="fill:none;stroke:#ff00ff;stroke-linecap:square;stroke-width:1.5;"/>
    <g/>
   </g>
   <g id="line2d_50">
    <defs>
     <path d="M 0 1.5 
C 0.397805 1.5 0.77937 1.341951 1.06066 1.06066 
C 1.341951 0.77937 1.5 0.397805 1.5 0 
C 1.5 -0.397805 1.341951 -0.77937 1.06066 -1.06066 
C 0.77937 -1.341951 0.397805 -1.5 0 -1.5 
C -0.397805 -1.5 -0.77937 -1.341951 -1.06066 -1.06066 
C -1.341951 -0.77937 -1.5 -0.397805 -1.5 0 
C -1.5 0.397805 -1.341951 0.77937 -1.06066 1.06066 
C -0.77937 1.341951 -0.397805 1.5 0 1.5 
z
" id="m9d6fc77031" style="stroke:#ff7500;"/>
    </defs>
    <g>
     <use style="fill:#ff7500;stroke:#ff7500;" x="169.687014" xlink:href="#m9d6fc77031" y="27.513663"/>
     <use style="fill:#ff7500;stroke:#ff7500;" x="169.687014" xlink:href="#m9d6fc77031" y="27.513663"/>
    </g>
   </g>
   <g id="line2d_51">
    <path d="M 93.238578 294.88 
L 93.238578 293.831505 
L 109.76392 293.831505 
L 109.76392 291.734514 
L 116.73331 291.734514 
L 116.73331 291.210266 
L 119.09161 291.210266 
L 119.09161 290.686018 
L 119.237897 290.686018 
L 119.237897 289.637523 
L 120.365424 289.637523 
L 120.365424 287.540532 
L 120.769881 287.540532 
L 120.769881 285.967789 
L 123.131597 285.967789 
L 123.131597 285.443541 
L 124.036471 285.443541 
L 124.146303 283.870798 
L 124.471649 283.870798 
L 124.471649 283.34655 
L 124.896081 283.34655 
L 124.896081 282.822302 
L 125.310285 282.822302 
L 125.310285 281.773807 
L 125.513703 281.773807 
L 125.614517 278.628321 
L 125.913457 278.628321 
L 125.913457 278.104073 
L 126.304124 278.104073 
L 126.304124 276.007082 
L 126.496178 276.007082 
L 126.496178 275.482834 
L 126.780294 275.482834 
L 126.873966 273.910091 
L 127.05979 273.910091 
L 127.05979 273.385844 
L 127.515749 273.385844 
L 127.515749 272.861596 
L 127.959924 272.861596 
L 127.959924 271.8131 
L 128.39291 271.8131 
L 128.39291 271.288853 
L 128.815257 271.288853 
L 128.815257 270.240357 
L 129.389632 270.240357 
L 129.470141 269.191862 
L 129.550274 269.191862 
L 129.550274 268.667614 
L 129.70943 268.667614 
L 129.788458 264.473632 
L 130.407935 264.473632 
L 130.483823 257.134164 
L 130.858318 257.134164 
L 130.932248 255.037173 
L 131.583684 255.037173 
L 131.583684 254.512926 
L 131.795457 254.512926 
L 131.865471 252.940182 
L 132.211331 252.940182 
L 132.211331 252.415935 
L 132.483094 252.415935 
L 132.550368 249.794696 
L 132.882847 249.794696 
L 132.882847 249.270448 
L 133.144276 249.270448 
L 133.209017 247.697705 
L 133.273515 247.697705 
L 133.273515 247.173458 
L 133.401789 247.173458 
L 133.401789 246.64921 
L 133.529112 246.64921 
L 133.592422 244.552219 
L 133.780965 244.552219 
L 133.780965 244.027971 
L 133.905521 244.027971 
L 133.905521 243.503724 
L 134.151957 243.503724 
L 134.151957 241.93098 
L 134.334493 241.93098 
L 134.39491 240.358237 
L 134.811986 240.358237 
L 134.811986 238.785494 
L 134.98768 238.785494 
L 134.98768 236.164255 
L 135.447604 236.164255 
L 135.504239 234.067265 
L 135.673032 234.067265 
L 135.72893 231.446026 
L 135.895542 231.446026 
L 135.895542 230.397531 
L 136.862657 230.397531 
L 136.966831 227.252044 
L 137.275617 227.252044 
L 137.275617 226.727797 
L 137.528768 226.727797 
L 137.578954 222.533815 
L 137.926211 222.533815 
L 137.926211 221.485319 
L 138.458109 221.485319 
L 138.505658 220.436824 
L 138.647518 220.436824 
L 138.647518 219.912576 
L 139.203533 219.912576 
L 139.203533 219.388328 
L 139.384945 219.388328 
L 139.474938 216.242842 
L 139.519758 216.242842 
L 139.519758 215.718594 
L 139.742124 215.718594 
L 139.786254 210.476117 
L 140.048681 210.476117 
L 140.048681 209.95187 
L 140.307161 209.95187 
L 140.307161 209.427622 
L 140.434959 209.427622 
L 140.477347 207.854879 
L 140.60389 207.854879 
L 140.60389 206.282136 
L 140.729508 206.282136 
L 140.771177 204.709392 
L 141.100945 204.709392 
L 141.100945 203.660897 
L 141.263487 203.660897 
L 141.263487 203.136649 
L 141.464526 203.136649 
L 141.464526 202.088154 
L 141.742087 202.088154 
L 141.820574 201.039658 
L 142.092491 201.039658 
L 142.169397 199.991163 
L 142.284116 199.991163 
L 142.284116 198.41842 
L 142.435893 198.41842 
L 142.511282 196.321429 
L 142.586342 196.321429 
L 142.586342 195.797181 
L 142.69832 195.797181 
L 142.69832 194.224438 
L 142.809574 194.224438 
L 142.846499 190.030456 
L 142.993411 190.030456 
L 143.066399 186.360722 
L 143.139078 186.360722 
L 143.175303 184.787979 
L 143.391063 184.787979 
L 143.391063 183.739484 
L 143.533413 183.739484 
L 143.604148 182.16674 
L 143.779723 182.16674 
L 143.779723 181.118245 
L 143.918903 181.118245 
L 143.953522 179.545502 
L 144.193927 179.545502 
L 144.262 177.972759 
L 144.431015 177.972759 
L 144.431015 177.448511 
L 144.598384 177.448511 
L 144.698028 174.303025 
L 144.731115 174.303025 
L 144.829995 170.109043 
L 145.026065 170.109043 
L 145.026065 169.060547 
L 145.252022 169.060547 
L 145.252022 168.5363 
L 145.475048 168.5363 
L 145.475048 166.963557 
L 145.601203 166.963557 
L 145.601203 166.439309 
L 145.819772 166.439309 
L 145.819772 164.866566 
L 146.33929 164.866566 
L 146.33929 164.342318 
L 146.489148 164.342318 
L 146.548728 161.721079 
L 146.93104 161.721079 
L 146.93104 158.575593 
L 147.162151 158.575593 
L 147.248023 151.760373 
L 147.474939 151.760373 
L 147.559266 148.614886 
L 147.698898 148.614886 
L 147.698898 148.090639 
L 147.974805 148.090639 
L 147.974805 147.566391 
L 148.165338 147.566391 
L 148.273273 143.372409 
L 148.407246 143.372409 
L 148.407246 142.848162 
L 148.540183 142.848162 
L 148.540183 142.323914 
L 148.672099 142.323914 
L 148.698361 141.275418 
L 148.855098 141.275418 
L 148.855098 139.178427 
L 148.984628 139.178427 
L 148.984628 137.605684 
L 149.164347 137.605684 
L 149.164347 136.557189 
L 149.31691 136.557189 
L 149.417871 134.460198 
L 149.56821 134.460198 
L 149.593139 132.363207 
L 149.791281 132.363207 
L 149.889502 128.169225 
L 149.91397 128.169225 
L 150.011494 126.596482 
L 150.035789 126.596482 
L 150.035789 126.072235 
L 150.156751 126.072235 
L 150.156751 125.547987 
L 150.348537 125.547987 
L 150.419909 124.499491 
L 150.561769 124.499491 
L 150.561769 123.975244 
L 150.679098 123.975244 
L 150.772388 121.354005 
L 150.795631 121.354005 
L 150.795631 120.829757 
L 150.91138 120.829757 
L 151.003421 119.781262 
L 151.07213 119.781262 
L 151.163317 118.732766 
L 151.231391 118.732766 
L 151.254022 116.111528 
L 151.478713 116.111528 
L 151.478713 115.063032 
L 151.589967 115.063032 
L 151.700505 111.917546 
L 151.744522 111.917546 
L 151.854074 108.77206 
L 151.919472 108.77206 
L 151.984621 107.723564 
L 152.092658 107.723564 
L 152.20002 105.626573 
L 152.242778 105.626573 
L 152.264117 103.005335 
L 152.370417 103.005335 
L 152.370417 102.481087 
L 152.539141 102.481087 
L 152.622886 100.908344 
L 152.664606 100.908344 
L 152.664606 99.859849 
L 152.851103 99.859849 
L 152.851103 98.287105 
L 152.99477 98.287105 
L 153.055976 93.568876 
L 153.218134 93.568876 
L 153.278551 90.42339 
L 153.378777 90.42339 
L 153.398752 88.850646 
L 153.498281 88.850646 
L 153.518118 84.656665 
L 153.61696 84.656665 
L 153.715237 82.559674 
L 153.754391 82.559674 
L 153.793457 79.414188 
L 153.948835 79.414188 
L 153.968159 77.841444 
L 154.274423 77.841444 
L 154.369023 75.744454 
L 154.425533 75.744454 
L 154.444329 74.695958 
L 154.631164 74.695958 
L 154.723825 72.598967 
L 154.871052 72.598967 
L 154.98065 71.026224 
L 155.233695 71.026224 
L 155.233695 70.501976 
L 155.376636 70.501976 
L 155.376636 69.977729 
L 155.798464 69.977729 
L 155.798464 69.453481 
L 155.971216 69.453481 
L 155.971216 68.929233 
L 156.142248 68.929233 
L 156.142248 68.404985 
L 156.429154 68.404985 
L 156.529282 67.35649 
L 156.842561 67.35649 
L 156.842561 66.832242 
L 156.988987 66.832242 
L 156.988987 66.307995 
L 157.749529 66.307995 
L 157.811415 65.259499 
L 158.04152 65.259499 
L 158.087174 64.211004 
L 158.238483 64.211004 
L 158.298636 63.162508 
L 158.373532 63.162508 
L 158.477842 62.114013 
L 158.80161 62.114013 
L 158.888862 61.065517 
L 159.018915 61.065517 
L 159.018915 60.017022 
L 159.190803 60.017022 
L 159.190803 57.920031 
L 159.360989 57.920031 
L 159.360989 57.395783 
L 159.599237 57.395783 
L 159.599237 56.871536 
L 159.875365 56.871536 
L 159.930063 55.82304 
L 160.052499 55.82304 
L 160.147128 54.774545 
L 160.187524 54.774545 
L 160.281415 53.201802 
L 160.533705 53.201802 
L 160.533705 52.677554 
L 160.678093 52.677554 
L 160.756342 51.629058 
L 160.834236 51.629058 
L 160.937549 50.056315 
L 161.040245 50.056315 
L 161.142331 49.00782 
L 161.482461 49.00782 
L 161.581961 46.386581 
L 161.643858 46.386581 
L 161.742431 43.765343 
L 162.167163 43.765343 
L 162.250864 41.668352 
L 162.286612 41.668352 
L 162.286612 41.144104 
L 162.440665 41.144104 
L 162.440665 40.095609 
L 162.663364 40.095609 
L 162.663364 39.571361 
L 162.871714 39.571361 
L 162.963509 36.425875 
L 163.020633 36.425875 
L 163.020633 35.901627 
L 163.359447 35.901627 
L 163.359447 33.804636 
L 164.157029 33.804636 
L 164.157029 33.280388 
L 164.432392 33.280388 
L 164.432392 32.756141 
L 164.980407 32.756141 
L 164.980407 32.231893 
L 167.450289 32.231893 
L 167.450289 31.707645 
L 168.022429 31.707645 
L 168.022429 31.183397 
L 168.368492 31.183397 
L 168.368492 30.65915 
L 168.789459 30.65915 
L 168.870806 29.610654 
L 169.024313 29.610654 
L 169.024313 29.086407 
L 169.160509 29.086407 
L 169.160509 28.562159 
L 169.295634 28.562159 
L 169.295634 28.037911 
L 169.687014 28.037911 
L 169.687014 27.513663 
L 333.168 27.513663 
L 333.168 27.513663 
" style="fill:none;stroke:#ff7500;stroke-linecap:square;stroke-width:1.5;"/>
   </g>
   <g id="line2d_52">
    <defs>
     <path d="M 0 -6 
L -1.347084 -1.854102 
L -5.706339 -1.854102 
L -2.179628 0.708204 
L -3.526712 4.854102 
L -0 2.291796 
L 3.526712 4.854102 
L 2.179628 0.708204 
L 5.706339 -1.854102 
L 1.347084 -1.854102 
z
" id="mcea0038485" style="stroke:#ff7500;stroke-linejoin:bevel;stroke-width:1.5;"/>
    </defs>
    <g>
     <use style="fill-opacity:0;stroke:#ff7500;stroke-linejoin:bevel;stroke-width:1.5;" x="132.483094" xlink:href="#mcea0038485" y="250.318944"/>
     <use style="fill-opacity:0;stroke:#ff7500;stroke-linejoin:bevel;stroke-width:1.5;" x="154.369023" xlink:href="#mcea0038485" y="75.744454"/>
     <use style="fill-opacity:0;stroke:#ff7500;stroke-linejoin:bevel;stroke-width:1.5;" x="169.687014" xlink:href="#mcea0038485" y="28.037911"/>
     <use style="fill-opacity:0;stroke:#ff7500;stroke-linejoin:bevel;stroke-width:1.5;" x="169.687014" xlink:href="#mcea0038485" y="27.513663"/>
     <use style="fill-opacity:0;stroke:#ff7500;stroke-linejoin:bevel;stroke-width:1.5;" x="333.168" xlink:href="#mcea0038485" y="27.513663"/>
    </g>
   </g>
   <g id="line2d_53">
    <path style="fill:none;stroke:#ff7500;stroke-linecap:square;stroke-width:1.5;"/>
    <g/>
   </g>
   <g id="line2d_54">
    <path d="M 333.168 27.513663 
L 363.64328 289.532673 
" style="fill:none;stroke:#ff7500;stroke-linecap:square;stroke-width:1.5;"/>
    <g>
     <use style="fill-opacity:0;stroke:#ff7500;stroke-linejoin:bevel;stroke-width:1.5;" x="333.168" xlink:href="#mcea0038485" y="27.513663"/>
     <use style="fill-opacity:0;stroke:#ff7500;stroke-linejoin:bevel;stroke-width:1.5;" x="363.64328" xlink:href="#mcea0038485" y="289.532673"/>
    </g>
   </g>
   <g id="line2d_55">
    <path d="M 333.168 27.513663 
L 363.64328 203.975446 
" style="fill:none;stroke:#ff00ff;stroke-linecap:square;stroke-width:1.5;"/>
    <g>
     <use style="fill-opacity:0;stroke:#ff00ff;stroke-linejoin:miter;stroke-width:1.5;" x="333.168" xlink:href="#mfa79fa4808" y="27.513663"/>
     <use style="fill-opacity:0;stroke:#ff00ff;stroke-linejoin:miter;stroke-width:1.5;" x="363.64328" xlink:href="#mfa79fa4808" y="203.975446"/>
    </g>
   </g>
   <g id="line2d_56">
    <path d="M 333.168 27.513663 
L 363.64328 118.418218 
" style="fill:none;stroke:#000080;stroke-linecap:square;stroke-width:1.5;"/>
    <g>
     <use style="fill-opacity:0;stroke:#000080;stroke-width:1.5;" x="333.168" xlink:href="#m5087058afb" y="27.513663"/>
     <use style="fill-opacity:0;stroke:#000080;stroke-width:1.5;" x="363.64328" xlink:href="#m5087058afb" y="118.418218"/>
    </g>
   </g>
   <g id="line2d_57">
    <path d="M 333.168 294.88 
L 333.168 27.513663 
" style="fill:none;stroke:#000000;stroke-linecap:square;stroke-width:1.5;"/>
   </g>
   <g id="patch_3">
    <path d="M 56.12 294.88 
L 56.12 24.84 
" style="fill:none;stroke:#000000;stroke-linecap:square;stroke-linejoin:miter;stroke-width:0.8;"/>
   </g>
   <g id="patch_4">
    <path d="M 333.168 294.88 
L 333.168 24.84 
" style="fill:none;stroke:#000000;stroke-linecap:square;stroke-linejoin:miter;stroke-width:0.8;"/>
   </g>
   <g id="patch_5">
    <path d="M 56.12 294.88 
L 333.168 294.88 
" style="fill:none;stroke:#000000;stroke-linecap:square;stroke-linejoin:miter;stroke-width:0.8;"/>
   </g>
   <g id="patch_6">
    <path d="M 56.12 24.84 
L 333.168 24.84 
" style="fill:none;stroke:#000000;stroke-linecap:square;stroke-linejoin:miter;stroke-width:0.8;"/>
   </g>
   <g id="text_13">
    <!-- R-SHADE-T -->
    <defs>
     <path d="M 44.390625 34.1875 
Q 47.5625 33.109375 50.5625 29.59375 
Q 53.5625 26.078125 56.59375 19.921875 
L 66.609375 0 
L 56 0 
L 46.6875 18.703125 
Q 43.0625 26.03125 39.671875 28.421875 
Q 36.28125 30.8125 30.421875 30.8125 
L 19.671875 30.8125 
L 19.671875 0 
L 9.8125 0 
L 9.8125 72.90625 
L 32.078125 72.90625 
Q 44.578125 72.90625 50.734375 67.671875 
Q 56.890625 62.453125 56.890625 51.90625 
Q 56.890625 45.015625 53.6875 40.46875 
Q 50.484375 35.9375 44.390625 34.1875 
z
M 19.671875 64.796875 
L 19.671875 38.921875 
L 32.078125 38.921875 
Q 39.203125 38.921875 42.84375 42.21875 
Q 46.484375 45.515625 46.484375 51.90625 
Q 46.484375 58.296875 42.84375 61.546875 
Q 39.203125 64.796875 32.078125 64.796875 
z
" id="DejaVuSans-52"/>
     <path d="M 53.515625 70.515625 
L 53.515625 60.890625 
Q 47.90625 63.578125 42.921875 64.890625 
Q 37.9375 66.21875 33.296875 66.21875 
Q 25.25 66.21875 20.875 63.09375 
Q 16.5 59.96875 16.5 54.203125 
Q 16.5 49.359375 19.40625 46.890625 
Q 22.3125 44.4375 30.421875 42.921875 
L 36.375 41.703125 
Q 47.40625 39.59375 52.65625 34.296875 
Q 57.90625 29 57.90625 20.125 
Q 57.90625 9.515625 50.796875 4.046875 
Q 43.703125 -1.421875 29.984375 -1.421875 
Q 24.8125 -1.421875 18.96875 -0.25 
Q 13.140625 0.921875 6.890625 3.21875 
L 6.890625 13.375 
Q 12.890625 10.015625 18.65625 8.296875 
Q 24.421875 6.59375 29.984375 6.59375 
Q 38.421875 6.59375 43.015625 9.90625 
Q 47.609375 13.234375 47.609375 19.390625 
Q 47.609375 24.75 44.3125 27.78125 
Q 41.015625 30.8125 33.5 32.328125 
L 27.484375 33.5 
Q 16.453125 35.6875 11.515625 40.375 
Q 6.59375 45.0625 6.59375 53.421875 
Q 6.59375 63.09375 13.40625 68.65625 
Q 20.21875 74.21875 32.171875 74.21875 
Q 37.3125 74.21875 42.625 73.28125 
Q 47.953125 72.359375 53.515625 70.515625 
z
" id="DejaVuSans-53"/>
     <path d="M 9.8125 72.90625 
L 19.671875 72.90625 
L 19.671875 43.015625 
L 55.515625 43.015625 
L 55.515625 72.90625 
L 65.375 72.90625 
L 65.375 0 
L 55.515625 0 
L 55.515625 34.71875 
L 19.671875 34.71875 
L 19.671875 0 
L 9.8125 0 
z
" id="DejaVuSans-48"/>
     <path d="M 34.1875 63.1875 
L 20.796875 26.90625 
L 47.609375 26.90625 
z
M 28.609375 72.90625 
L 39.796875 72.90625 
L 67.578125 0 
L 57.328125 0 
L 50.6875 18.703125 
L 17.828125 18.703125 
L 11.1875 0 
L 0.78125 0 
z
" id="DejaVuSans-41"/>
     <path d="M 19.671875 64.796875 
L 19.671875 8.109375 
L 31.59375 8.109375 
Q 46.6875 8.109375 53.6875 14.9375 
Q 60.6875 21.78125 60.6875 36.53125 
Q 60.6875 51.171875 53.6875 57.984375 
Q 46.6875 64.796875 31.59375 64.796875 
z
M 9.8125 72.90625 
L 30.078125 72.90625 
Q 51.265625 72.90625 61.171875 64.09375 
Q 71.09375 55.28125 71.09375 36.53125 
Q 71.09375 17.671875 61.125 8.828125 
Q 51.171875 0 30.078125 0 
L 9.8125 0 
z
" id="DejaVuSans-44"/>
     <path d="M 9.8125 72.90625 
L 55.90625 72.90625 
L 55.90625 64.59375 
L 19.671875 64.59375 
L 19.671875 43.015625 
L 54.390625 43.015625 
L 54.390625 34.71875 
L 19.671875 34.71875 
L 19.671875 8.296875 
L 56.78125 8.296875 
L 56.78125 0 
L 9.8125 0 
z
" id="DejaVuSans-45"/>
     <path d="M -0.296875 72.90625 
L 61.375 72.90625 
L 61.375 64.59375 
L 35.5 64.59375 
L 35.5 0 
L 25.59375 0 
L 25.59375 64.59375 
L -0.296875 64.59375 
z
" id="DejaVuSans-54"/>
    </defs>
    <g transform="translate(369.18424 294.223611)scale(0.17 -0.17)">
     <use xlink:href="#DejaVuSans-52"/>
     <use x="69.419922" xlink:href="#DejaVuSans-2d"/>
     <use x="105.503906" xlink:href="#DejaVuSans-53"/>
     <use x="168.980469" xlink:href="#DejaVuSans-48"/>
     <use x="244.175781" xlink:href="#DejaVuSans-41"/>
     <use x="312.583984" xlink:href="#DejaVuSans-44"/>
     <use x="389.585938" xlink:href="#DejaVuSans-45"/>
     <use x="452.769531" xlink:href="#DejaVuSans-2d"/>
     <use x="488.712891" xlink:href="#DejaVuSans-54"/>
    </g>
   </g>
   <g id="text_14">
    <!-- SL-4-10 -->
    <defs>
     <path d="M 9.8125 72.90625 
L 19.671875 72.90625 
L 19.671875 8.296875 
L 55.171875 8.296875 
L 55.171875 0 
L 9.8125 0 
z
" id="DejaVuSans-4c"/>
    </defs>
    <g transform="translate(369.18424 208.666383)scale(0.17 -0.17)">
     <use xlink:href="#DejaVuSans-53"/>
     <use x="63.476562" xlink:href="#DejaVuSans-4c"/>
     <use x="119.173828" xlink:href="#DejaVuSans-2d"/>
     <use x="155.257812" xlink:href="#DejaVuSans-34"/>
     <use x="218.880859" xlink:href="#DejaVuSans-2d"/>
     <use x="254.964844" xlink:href="#DejaVuSans-31"/>
     <use x="318.587891" xlink:href="#DejaVuSans-30"/>
    </g>
   </g>
   <g id="text_15">
    <!-- SL-10 -->
    <g transform="translate(369.18424 123.109155)scale(0.17 -0.17)">
     <use xlink:href="#DejaVuSans-53"/>
     <use x="63.476562" xlink:href="#DejaVuSans-4c"/>
     <use x="119.173828" xlink:href="#DejaVuSans-2d"/>
     <use x="155.257812" xlink:href="#DejaVuSans-31"/>
     <use x="218.880859" xlink:href="#DejaVuSans-30"/>
    </g>
   </g>
   <g id="text_16">
    <!-- best 2009 -->
    <defs>
     <path d="M 48.6875 27.296875 
Q 48.6875 37.203125 44.609375 42.84375 
Q 40.53125 48.484375 33.40625 48.484375 
Q 26.265625 48.484375 22.1875 42.84375 
Q 18.109375 37.203125 18.109375 27.296875 
Q 18.109375 17.390625 22.1875 11.75 
Q 26.265625 6.109375 33.40625 6.109375 
Q 40.53125 6.109375 44.609375 11.75 
Q 48.6875 17.390625 48.6875 27.296875 
z
M 18.109375 46.390625 
Q 20.953125 51.265625 25.265625 53.625 
Q 29.59375 56 35.59375 56 
Q 45.5625 56 51.78125 48.09375 
Q 58.015625 40.1875 58.015625 27.296875 
Q 58.015625 14.40625 51.78125 6.484375 
Q 45.5625 -1.421875 35.59375 -1.421875 
Q 29.59375 -1.421875 25.265625 0.953125 
Q 20.953125 3.328125 18.109375 8.203125 
L 18.109375 0 
L 9.078125 0 
L 9.078125 75.984375 
L 18.109375 75.984375 
z
" id="DejaVuSans-62"/>
     <path d="M 10.984375 1.515625 
L 10.984375 10.5 
Q 14.703125 8.734375 18.5 7.8125 
Q 22.3125 6.890625 25.984375 6.890625 
Q 35.75 6.890625 40.890625 13.453125 
Q 46.046875 20.015625 46.78125 33.40625 
Q 43.953125 29.203125 39.59375 26.953125 
Q 35.25 24.703125 29.984375 24.703125 
Q 19.046875 24.703125 12.671875 31.3125 
Q 6.296875 37.9375 6.296875 49.421875 
Q 6.296875 60.640625 12.9375 67.421875 
Q 19.578125 74.21875 30.609375 74.21875 
Q 43.265625 74.21875 49.921875 64.515625 
Q 56.59375 54.828125 56.59375 36.375 
Q 56.59375 19.140625 48.40625 8.859375 
Q 40.234375 -1.421875 26.421875 -1.421875 
Q 22.703125 -1.421875 18.890625 -0.6875 
Q 15.09375 0.046875 10.984375 1.515625 
z
M 30.609375 32.421875 
Q 37.25 32.421875 41.125 36.953125 
Q 45.015625 41.5 45.015625 49.421875 
Q 45.015625 57.28125 41.125 61.84375 
Q 37.25 66.40625 30.609375 66.40625 
Q 23.96875 66.40625 20.09375 61.84375 
Q 16.21875 57.28125 16.21875 49.421875 
Q 16.21875 41.5 20.09375 36.953125 
Q 23.96875 32.421875 30.609375 32.421875 
z
" id="DejaVuSans-39"/>
    </defs>
    <g transform="translate(369.18424 37.551928)scale(0.17 -0.17)">
     <use xlink:href="#DejaVuSans-62"/>
     <use x="63.476562" xlink:href="#DejaVuSans-65"/>
     <use x="125" xlink:href="#DejaVuSans-73"/>
     <use x="177.099609" xlink:href="#DejaVuSans-74"/>
     <use x="216.308594" xlink:href="#DejaVuSans-20"/>
     <use x="248.095703" xlink:href="#DejaVuSans-32"/>
     <use x="311.71875" xlink:href="#DejaVuSans-30"/>
     <use x="375.341797" xlink:href="#DejaVuSans-30"/>
     <use x="438.964844" xlink:href="#DejaVuSans-39"/>
    </g>
   </g>
   <g id="text_17">
    <!-- bbob f10, 3-D -->
    <defs>
     <path d="M 40.578125 39.3125 
Q 47.65625 37.796875 51.625 33 
Q 55.609375 28.21875 55.609375 21.1875 
Q 55.609375 10.40625 48.1875 4.484375 
Q 40.765625 -1.421875 27.09375 -1.421875 
Q 22.515625 -1.421875 17.65625 -0.515625 
Q 12.796875 0.390625 7.625 2.203125 
L 7.625 11.71875 
Q 11.71875 9.328125 16.59375 8.109375 
Q 21.484375 6.890625 26.8125 6.890625 
Q 36.078125 6.890625 40.9375 10.546875 
Q 45.796875 14.203125 45.796875 21.1875 
Q 45.796875 27.640625 41.28125 31.265625 
Q 36.765625 34.90625 28.71875 34.90625 
L 20.21875 34.90625 
L 20.21875 43.015625 
L 29.109375 43.015625 
Q 36.375 43.015625 40.234375 45.921875 
Q 44.09375 48.828125 44.09375 54.296875 
Q 44.09375 59.90625 40.109375 62.90625 
Q 36.140625 65.921875 28.71875 65.921875 
Q 24.65625 65.921875 20.015625 65.03125 
Q 15.375 64.15625 9.8125 62.3125 
L 9.8125 71.09375 
Q 15.4375 72.65625 20.34375 73.4375 
Q 25.25 74.21875 29.59375 74.21875 
Q 40.828125 74.21875 47.359375 69.109375 
Q 53.90625 64.015625 53.90625 55.328125 
Q 53.90625 49.265625 50.4375 45.09375 
Q 46.96875 40.921875 40.578125 39.3125 
z
" id="DejaVuSans-33"/>
    </defs>
    <g transform="translate(58.89048 35.290806)scale(0.102 -0.102)">
     <use xlink:href="#DejaVuSans-62"/>
     <use x="63.476562" xlink:href="#DejaVuSans-62"/>
     <use x="126.953125" xlink:href="#DejaVuSans-6f"/>
     <use x="188.134766" xlink:href="#DejaVuSans-62"/>
     <use x="251.611328" xlink:href="#DejaVuSans-20"/>
     <use x="283.398438" xlink:href="#DejaVuSans-66"/>
     <use x="318.603516" xlink:href="#DejaVuSans-31"/>
     <use x="382.226562" xlink:href="#DejaVuSans-30"/>
     <use x="445.849609" xlink:href="#DejaVuSans-2c"/>
     <use x="477.636719" xlink:href="#DejaVuSans-20"/>
     <use x="509.423828" xlink:href="#DejaVuSans-33"/>
     <use x="573.046875" xlink:href="#DejaVuSans-2d"/>
     <use x="609.130859" xlink:href="#DejaVuSans-44"/>
    </g>
    <!-- 51 targets: 100..1e-08 -->
    <defs>
     <path d="M 10.796875 72.90625 
L 49.515625 72.90625 
L 49.515625 64.59375 
L 19.828125 64.59375 
L 19.828125 46.734375 
Q 21.96875 47.46875 24.109375 47.828125 
Q 26.265625 48.1875 28.421875 48.1875 
Q 40.625 48.1875 47.75 41.5 
Q 54.890625 34.8125 54.890625 23.390625 
Q 54.890625 11.625 47.5625 5.09375 
Q 40.234375 -1.421875 26.90625 -1.421875 
Q 22.3125 -1.421875 17.546875 -0.640625 
Q 12.796875 0.140625 7.71875 1.703125 
L 7.71875 11.625 
Q 12.109375 9.234375 16.796875 8.0625 
Q 21.484375 6.890625 26.703125 6.890625 
Q 35.15625 6.890625 40.078125 11.328125 
Q 45.015625 15.765625 45.015625 23.390625 
Q 45.015625 31 40.078125 35.4375 
Q 35.15625 39.890625 26.703125 39.890625 
Q 22.75 39.890625 18.8125 39.015625 
Q 14.890625 38.140625 10.796875 36.28125 
z
" id="DejaVuSans-35"/>
     <path d="M 11.71875 12.40625 
L 22.015625 12.40625 
L 22.015625 0 
L 11.71875 0 
z
M 11.71875 51.703125 
L 22.015625 51.703125 
L 22.015625 39.3125 
L 11.71875 39.3125 
z
" id="DejaVuSans-3a"/>
    </defs>
    <g transform="translate(58.89048 46.712575)scale(0.102 -0.102)">
     <use xlink:href="#DejaVuSans-35"/>
     <use x="63.623047" xlink:href="#DejaVuSans-31"/>
     <use x="127.246094" xlink:href="#DejaVuSans-20"/>
     <use x="159.033203" xlink:href="#DejaVuSans-74"/>
     <use x="198.242188" xlink:href="#DejaVuSans-61"/>
     <use x="259.521484" xlink:href="#DejaVuSans-72"/>
     <use x="300.619141" xlink:href="#DejaVuSans-67"/>
     <use x="364.095703" xlink:href="#DejaVuSans-65"/>
     <use x="425.619141" xlink:href="#DejaVuSans-74"/>
     <use x="464.828125" xlink:href="#DejaVuSans-73"/>
     <use x="516.927734" xlink:href="#DejaVuSans-3a"/>
     <use x="550.619141" xlink:href="#DejaVuSans-20"/>
     <use x="582.40625" xlink:href="#DejaVuSans-31"/>
     <use x="646.029297" xlink:href="#DejaVuSans-30"/>
     <use x="709.652344" xlink:href="#DejaVuSans-30"/>
     <use x="773.275391" xlink:href="#DejaVuSans-2e"/>
     <use x="805.0625" xlink:href="#DejaVuSans-2e"/>
     <use x="836.849609" xlink:href="#DejaVuSans-31"/>
     <use x="900.472656" xlink:href="#DejaVuSans-65"/>
     <use x="961.996094" xlink:href="#DejaVuSans-2d"/>
     <use x="998.080078" xlink:href="#DejaVuSans-30"/>
     <use x="1061.703125" xlink:href="#DejaVuSans-38"/>
    </g>
    <!-- 15 instances -->
    <g transform="translate(58.89048 58.134344)scale(0.102 -0.102)">
     <use xlink:href="#DejaVuSans-31"/>
     <use x="63.623047" xlink:href="#DejaVuSans-35"/>
     <use x="127.246094" xlink:href="#DejaVuSans-20"/>
     <use x="159.033203" xlink:href="#DejaVuSans-69"/>
     <use x="186.816406" xlink:href="#DejaVuSans-6e"/>
     <use x="250.195312" xlink:href="#DejaVuSans-73"/>
     <use x="302.294922" xlink:href="#DejaVuSans-74"/>
     <use x="341.503906" xlink:href="#DejaVuSans-61"/>
     <use x="402.783203" xlink:href="#DejaVuSans-6e"/>
     <use x="466.162109" xlink:href="#DejaVuSans-63"/>
     <use x="521.142578" xlink:href="#DejaVuSans-65"/>
     <use x="582.666016" xlink:href="#DejaVuSans-73"/>
    </g>
   </g>
   <g id="text_18">
    <!-- v2.4 -->
    <g style="fill:#808080;" transform="translate(183.733063 290.099912)scale(0.1 -0.1)">
     <use xlink:href="#DejaVuSans-76"/>
     <use x="59.179688" xlink:href="#DejaVuSans-32"/>
     <use x="122.802734" xlink:href="#DejaVuSans-2e"/>
     <use x="154.589844" xlink:href="#DejaVuSans-34"/>
    </g>
   </g>
   <g id="text_19">
    <!-- 10 Ellipsoid -->
    <g transform="translate(137.284625 18.84)scale(0.2 -0.2)">
     <use xlink:href="#DejaVuSans-31"/>
     <use x="63.623047" xlink:href="#DejaVuSans-30"/>
     <use x="127.246094" xlink:href="#DejaVuSans-20"/>
     <use x="159.033203" xlink:href="#DejaVuSans-45"/>
     <use x="222.216797" xlink:href="#DejaVuSans-6c"/>
     <use x="250" xlink:href="#DejaVuSans-6c"/>
     <use x="277.783203" xlink:href="#DejaVuSans-69"/>
     <use x="305.566406" xlink:href="#DejaVuSans-70"/>
     <use x="369.042969" xlink:href="#DejaVuSans-73"/>
     <use x="421.142578" xlink:href="#DejaVuSans-6f"/>
     <use x="482.324219" xlink:href="#DejaVuSans-69"/>
     <use x="510.107422" xlink:href="#DejaVuSans-64"/>
    </g>
   </g>
  </g>
 </g>
 <defs>
  <clipPath id="p34d7e48ec1">
   <rect height="270.04" width="277.048" x="56.12" y="24.84"/>
  </clipPath>
 </defs>
</svg>
