<?xml version="1.0" encoding="utf-8" standalone="no"?>
<!DOCTYPE svg PUBLIC "-//W3C//DTD SVG 1.1//EN"
  "http://www.w3.org/Graphics/SVG/1.1/DTD/svg11.dtd">
<!-- Created with matplotlib (http://matplotlib.org/) -->
<svg height="345.6pt" version="1.1" viewBox="0 0 460.8 345.6" width="460.8pt" xmlns="http://www.w3.org/2000/svg" xmlns:xlink="http://www.w3.org/1999/xlink">
 <defs>
  <style type="text/css">
*{stroke-linecap:butt;stroke-linejoin:round;}
  </style>
 </defs>
 <g id="figure_1">
  <g id="patch_1">
   <path d="M 0 345.6 
L 460.8 345.6 
L 460.8 0 
L 0 0 
z
" style="fill:#ffffff;"/>
  </g>
  <g id="axes_1">
   <g id="patch_2">
    <path d="M 56.12 294.88 
L 333.168 294.88 
L 333.168 24.84 
L 56.12 24.84 
z
" style="fill:#ffffff;"/>
   </g>
   <g id="line2d_1">
    <path d="M 44.205749 294.88 
L 44.205749 284.395046 
L 56.12 284.395046 
L 56.12 279.152568 
L 63.08939 279.152568 
L 63.08939 273.910091 
L 68.034251 273.910091 
L 68.034251 268.667614 
L 79.948502 268.667614 
L 79.948502 263.425137 
L 91.862754 263.425137 
L 91.862754 258.18266 
L 113.086321 258.18266 
L 113.086321 252.940182 
L 123.870396 252.940182 
L 123.870396 247.697705 
L 134.029181 247.697705 
L 134.029181 242.455228 
L 134.664189 242.455228 
L 134.664189 237.212751 
L 136.757848 237.212751 
L 136.757848 231.970274 
L 136.992776 231.970274 
L 136.992776 226.727797 
L 137.377325 226.727797 
L 137.377325 221.485319 
L 137.603992 221.485319 
L 137.603992 216.242842 
L 137.975251 216.242842 
L 137.975251 211.000365 
L 139.043211 211.000365 
L 139.043211 205.757888 
L 139.180721 205.757888 
L 139.180721 200.515411 
L 139.317139 200.515411 
L 139.317139 195.272933 
L 139.653523 195.272933 
L 139.653523 190.030456 
L 139.983449 190.030456 
L 139.983449 184.787979 
L 140.242905 184.787979 
L 140.242905 179.545502 
L 140.812746 179.545502 
L 140.812746 174.303025 
L 141.060069 174.303025 
L 141.060069 169.060547 
L 141.243253 169.060547 
L 141.243253 163.81807 
L 142.18857 163.81807 
L 142.18857 158.575593 
L 142.416994 158.575593 
L 142.416994 153.333116 
L 142.473629 153.333116 
L 142.473629 148.090639 
L 142.69832 148.090639 
L 142.69832 142.848162 
L 142.864932 142.848162 
L 142.864932 137.605684 
L 142.975116 137.605684 
L 142.975116 132.363207 
L 143.247524 132.363207 
L 143.247524 127.12073 
L 143.884213 127.12073 
L 143.884213 121.878253 
L 144.447825 121.878253 
L 144.447825 116.635776 
L 144.598384 116.635776 
L 144.598384 111.393298 
L 144.797098 111.393298 
L 144.797098 106.150821 
L 144.944641 106.150821 
L 144.944641 100.908344 
L 145.139415 100.908344 
L 145.139415 95.665867 
L 145.284061 95.665867 
L 145.284061 90.42339 
L 145.37982 90.42339 
L 145.37982 85.180912 
L 145.569751 85.180912 
L 145.569751 79.938435 
L 145.663936 79.938435 
L 145.663936 74.695958 
L 145.897164 74.695958 
L 145.897164 69.453481 
L 145.989576 69.453481 
L 145.989576 64.211004 
L 146.081494 64.211004 
L 146.081494 58.968526 
L 146.263868 58.968526 
L 146.263868 53.726049 
L 146.354335 53.726049 
L 146.354335 48.483572 
L 146.533852 48.483572 
L 146.533852 43.241095 
L 146.667271 43.241095 
L 146.667271 37.998618 
L 146.755644 37.998618 
L 146.755644 32.756141 
L 150.538207 32.756141 
L 150.538207 27.513663 
L 333.168 27.513663 
" style="fill:none;stroke:#f5deb3;stroke-linecap:square;stroke-width:4;"/>
   </g>
   <g id="line2d_2">
    <defs>
     <path d="M -0 7.778175 
L 7.778175 0 
L 0 -7.778175 
L -7.778175 -0 
z
" id="mc3ef7267d7" style="stroke:#f5deb3;stroke-linejoin:miter;stroke-width:1.5;"/>
    </defs>
    <g>
     <use style="fill:#f5deb3;stroke:#f5deb3;stroke-linejoin:miter;stroke-width:1.5;" x="137.975251" xlink:href="#mc3ef7267d7" y="216.242842"/>
     <use style="fill:#f5deb3;stroke:#f5deb3;stroke-linejoin:miter;stroke-width:1.5;" x="142.975116" xlink:href="#mc3ef7267d7" y="132.363207"/>
     <use style="fill:#f5deb3;stroke:#f5deb3;stroke-linejoin:miter;stroke-width:1.5;" x="150.538207" xlink:href="#mc3ef7267d7" y="32.756141"/>
     <use style="fill:#f5deb3;stroke:#f5deb3;stroke-linejoin:miter;stroke-width:1.5;" x="150.538207" xlink:href="#mc3ef7267d7" y="27.513663"/>
     <use style="fill:#f5deb3;stroke:#f5deb3;stroke-linejoin:miter;stroke-width:1.5;" x="150.538207" xlink:href="#mc3ef7267d7" y="27.513663"/>
     <use style="fill:#f5deb3;stroke:#f5deb3;stroke-linejoin:miter;stroke-width:1.5;" x="333.168" xlink:href="#mc3ef7267d7" y="27.513663"/>
    </g>
   </g>
   <g id="line2d_3">
    <path style="fill:none;stroke:#f5deb3;stroke-linecap:square;stroke-width:4;"/>
    <g/>
   </g>
   <g id="line2d_4">
    <path d="M 333.168 27.513663 
L 363.64328 32.86099 
" style="fill:none;stroke:#f5deb3;stroke-linecap:square;stroke-width:4;"/>
    <g>
     <use style="fill:#f5deb3;stroke:#f5deb3;stroke-linejoin:miter;stroke-width:1.5;" x="333.168" xlink:href="#mc3ef7267d7" y="27.513663"/>
     <use style="fill:#f5deb3;stroke:#f5deb3;stroke-linejoin:miter;stroke-width:1.5;" x="363.64328" xlink:href="#mc3ef7267d7" y="32.86099"/>
    </g>
   </g>
   <g id="matplotlib.axis_1">
    <g id="xtick_1">
     <g id="line2d_5">
      <path clip-path="url(#p57265d0087)" d="M 56.12 294.88 
L 56.12 24.84 
" style="fill:none;stroke:#b0b0b0;stroke-linecap:square;stroke-width:0.8;"/>
     </g>
     <g id="line2d_6">
      <defs>
       <path d="M 0 0 
L 0 3.5 
" id="m37932b1af2" style="stroke:#000000;stroke-width:0.8;"/>
      </defs>
      <g>
       <use style="stroke:#000000;stroke-width:0.8;" x="56.12" xlink:href="#m37932b1af2" y="294.88"/>
      </g>
     </g>
     <g id="text_1">
      <!-- 0 -->
      <defs>
       <path d="M 31.78125 66.40625 
Q 24.171875 66.40625 20.328125 58.90625 
Q 16.5 51.421875 16.5 36.375 
Q 16.5 21.390625 20.328125 13.890625 
Q 24.171875 6.390625 31.78125 6.390625 
Q 39.453125 6.390625 43.28125 13.890625 
Q 47.125 21.390625 47.125 36.375 
Q 47.125 51.421875 43.28125 58.90625 
Q 39.453125 66.40625 31.78125 66.40625 
z
M 31.78125 74.21875 
Q 44.046875 74.21875 50.515625 64.515625 
Q 56.984375 54.828125 56.984375 36.375 
Q 56.984375 17.96875 50.515625 8.265625 
Q 44.046875 -1.421875 31.78125 -1.421875 
Q 19.53125 -1.421875 13.0625 8.265625 
Q 6.59375 17.96875 6.59375 36.375 
Q 6.59375 54.828125 13.0625 64.515625 
Q 19.53125 74.21875 31.78125 74.21875 
z
" id="DejaVuSans-30"/>
      </defs>
      <g transform="translate(49.7575 317.076875)scale(0.2 -0.2)">
       <use xlink:href="#DejaVuSans-30"/>
      </g>
     </g>
    </g>
    <g id="xtick_2">
     <g id="line2d_7">
      <path clip-path="url(#p57265d0087)" d="M 135.276571 294.88 
L 135.276571 24.84 
" style="fill:none;stroke:#b0b0b0;stroke-linecap:square;stroke-width:0.8;"/>
     </g>
     <g id="line2d_8">
      <g>
       <use style="stroke:#000000;stroke-width:0.8;" x="135.276571" xlink:href="#m37932b1af2" y="294.88"/>
      </g>
     </g>
     <g id="text_2">
      <!-- 2 -->
      <defs>
       <path d="M 19.1875 8.296875 
L 53.609375 8.296875 
L 53.609375 0 
L 7.328125 0 
L 7.328125 8.296875 
Q 12.9375 14.109375 22.625 23.890625 
Q 32.328125 33.6875 34.8125 36.53125 
Q 39.546875 41.84375 41.421875 45.53125 
Q 43.3125 49.21875 43.3125 52.78125 
Q 43.3125 58.59375 39.234375 62.25 
Q 35.15625 65.921875 28.609375 65.921875 
Q 23.96875 65.921875 18.8125 64.3125 
Q 13.671875 62.703125 7.8125 59.421875 
L 7.8125 69.390625 
Q 13.765625 71.78125 18.9375 73 
Q 24.125 74.21875 28.421875 74.21875 
Q 39.75 74.21875 46.484375 68.546875 
Q 53.21875 62.890625 53.21875 53.421875 
Q 53.21875 48.921875 51.53125 44.890625 
Q 49.859375 40.875 45.40625 35.40625 
Q 44.1875 33.984375 37.640625 27.21875 
Q 31.109375 20.453125 19.1875 8.296875 
z
" id="DejaVuSans-32"/>
      </defs>
      <g transform="translate(128.914071 317.076875)scale(0.2 -0.2)">
       <use xlink:href="#DejaVuSans-32"/>
      </g>
     </g>
    </g>
    <g id="xtick_3">
     <g id="line2d_9">
      <path clip-path="url(#p57265d0087)" d="M 214.433143 294.88 
L 214.433143 24.84 
" style="fill:none;stroke:#b0b0b0;stroke-linecap:square;stroke-width:0.8;"/>
     </g>
     <g id="line2d_10">
      <g>
       <use style="stroke:#000000;stroke-width:0.8;" x="214.433143" xlink:href="#m37932b1af2" y="294.88"/>
      </g>
     </g>
     <g id="text_3">
      <!-- 4 -->
      <defs>
       <path d="M 37.796875 64.3125 
L 12.890625 25.390625 
L 37.796875 25.390625 
z
M 35.203125 72.90625 
L 47.609375 72.90625 
L 47.609375 25.390625 
L 58.015625 25.390625 
L 58.015625 17.1875 
L 47.609375 17.1875 
L 47.609375 0 
L 37.796875 0 
L 37.796875 17.1875 
L 4.890625 17.1875 
L 4.890625 26.703125 
z
" id="DejaVuSans-34"/>
      </defs>
      <g transform="translate(208.070643 317.076875)scale(0.2 -0.2)">
       <use xlink:href="#DejaVuSans-34"/>
      </g>
     </g>
    </g>
    <g id="xtick_4">
     <g id="line2d_11">
      <path clip-path="url(#p57265d0087)" d="M 293.589714 294.88 
L 293.589714 24.84 
" style="fill:none;stroke:#b0b0b0;stroke-linecap:square;stroke-width:0.8;"/>
     </g>
     <g id="line2d_12">
      <g>
       <use style="stroke:#000000;stroke-width:0.8;" x="293.589714" xlink:href="#m37932b1af2" y="294.88"/>
      </g>
     </g>
     <g id="text_4">
      <!-- 6 -->
      <defs>
       <path d="M 33.015625 40.375 
Q 26.375 40.375 22.484375 35.828125 
Q 18.609375 31.296875 18.609375 23.390625 
Q 18.609375 15.53125 22.484375 10.953125 
Q 26.375 6.390625 33.015625 6.390625 
Q 39.65625 6.390625 43.53125 10.953125 
Q 47.40625 15.53125 47.40625 23.390625 
Q 47.40625 31.296875 43.53125 35.828125 
Q 39.65625 40.375 33.015625 40.375 
z
M 52.59375 71.296875 
L 52.59375 62.3125 
Q 48.875 64.0625 45.09375 64.984375 
Q 41.3125 65.921875 37.59375 65.921875 
Q 27.828125 65.921875 22.671875 59.328125 
Q 17.53125 52.734375 16.796875 39.40625 
Q 19.671875 43.65625 24.015625 45.921875 
Q 28.375 48.1875 33.59375 48.1875 
Q 44.578125 48.1875 50.953125 41.515625 
Q 57.328125 34.859375 57.328125 23.390625 
Q 57.328125 12.15625 50.6875 5.359375 
Q 44.046875 -1.421875 33.015625 -1.421875 
Q 20.359375 -1.421875 13.671875 8.265625 
Q 6.984375 17.96875 6.984375 36.375 
Q 6.984375 53.65625 15.1875 63.9375 
Q 23.390625 74.21875 37.203125 74.21875 
Q 40.921875 74.21875 44.703125 73.484375 
Q 48.484375 72.75 52.59375 71.296875 
z
" id="DejaVuSans-36"/>
      </defs>
      <g transform="translate(287.227214 317.076875)scale(0.2 -0.2)">
       <use xlink:href="#DejaVuSans-36"/>
      </g>
     </g>
    </g>
    <g id="xtick_5">
     <g id="line2d_13">
      <path clip-path="url(#p57265d0087)" d="M 56.12 294.88 
L 56.12 24.84 
" style="fill:none;stroke:#b0b0b0;stroke-linecap:square;stroke-width:0.8;"/>
     </g>
     <g id="line2d_14">
      <defs>
       <path d="M 0 0 
L 0 2 
" id="mf558be38a9" style="stroke:#000000;stroke-width:0.6;"/>
      </defs>
      <g>
       <use style="stroke:#000000;stroke-width:0.6;" x="56.12" xlink:href="#mf558be38a9" y="294.88"/>
      </g>
     </g>
    </g>
    <g id="xtick_6">
     <g id="line2d_15">
      <path clip-path="url(#p57265d0087)" d="M 95.698286 294.88 
L 95.698286 24.84 
" style="fill:none;stroke:#b0b0b0;stroke-linecap:square;stroke-width:0.8;"/>
     </g>
     <g id="line2d_16">
      <g>
       <use style="stroke:#000000;stroke-width:0.6;" x="95.698286" xlink:href="#mf558be38a9" y="294.88"/>
      </g>
     </g>
    </g>
    <g id="xtick_7">
     <g id="line2d_17">
      <path clip-path="url(#p57265d0087)" d="M 135.276571 294.88 
L 135.276571 24.84 
" style="fill:none;stroke:#b0b0b0;stroke-linecap:square;stroke-width:0.8;"/>
     </g>
     <g id="line2d_18">
      <g>
       <use style="stroke:#000000;stroke-width:0.6;" x="135.276571" xlink:href="#mf558be38a9" y="294.88"/>
      </g>
     </g>
    </g>
    <g id="xtick_8">
     <g id="line2d_19">
      <path clip-path="url(#p57265d0087)" d="M 174.854857 294.88 
L 174.854857 24.84 
" style="fill:none;stroke:#b0b0b0;stroke-linecap:square;stroke-width:0.8;"/>
     </g>
     <g id="line2d_20">
      <g>
       <use style="stroke:#000000;stroke-width:0.6;" x="174.854857" xlink:href="#mf558be38a9" y="294.88"/>
      </g>
     </g>
    </g>
    <g id="xtick_9">
     <g id="line2d_21">
      <path clip-path="url(#p57265d0087)" d="M 214.433143 294.88 
L 214.433143 24.84 
" style="fill:none;stroke:#b0b0b0;stroke-linecap:square;stroke-width:0.8;"/>
     </g>
     <g id="line2d_22">
      <g>
       <use style="stroke:#000000;stroke-width:0.6;" x="214.433143" xlink:href="#mf558be38a9" y="294.88"/>
      </g>
     </g>
    </g>
    <g id="xtick_10">
     <g id="line2d_23">
      <path clip-path="url(#p57265d0087)" d="M 254.011429 294.88 
L 254.011429 24.84 
" style="fill:none;stroke:#b0b0b0;stroke-linecap:square;stroke-width:0.8;"/>
     </g>
     <g id="line2d_24">
      <g>
       <use style="stroke:#000000;stroke-width:0.6;" x="254.011429" xlink:href="#mf558be38a9" y="294.88"/>
      </g>
     </g>
    </g>
    <g id="xtick_11">
     <g id="line2d_25">
      <path clip-path="url(#p57265d0087)" d="M 293.589714 294.88 
L 293.589714 24.84 
" style="fill:none;stroke:#b0b0b0;stroke-linecap:square;stroke-width:0.8;"/>
     </g>
     <g id="line2d_26">
      <g>
       <use style="stroke:#000000;stroke-width:0.6;" x="293.589714" xlink:href="#mf558be38a9" y="294.88"/>
      </g>
     </g>
    </g>
    <g id="xtick_12">
     <g id="line2d_27">
      <path clip-path="url(#p57265d0087)" d="M 333.168 294.88 
L 333.168 24.84 
" style="fill:none;stroke:#b0b0b0;stroke-linecap:square;stroke-width:0.8;"/>
     </g>
     <g id="line2d_28">
      <g>
       <use style="stroke:#000000;stroke-width:0.6;" x="333.168" xlink:href="#mf558be38a9" y="294.88"/>
      </g>
     </g>
    </g>
    <g id="text_5">
     <!-- log10(# f-evals / dimension) -->
     <defs>
      <path d="M 9.421875 75.984375 
L 18.40625 75.984375 
L 18.40625 0 
L 9.421875 0 
z
" id="DejaVuSans-6c"/>
      <path d="M 30.609375 48.390625 
Q 23.390625 48.390625 19.1875 42.75 
Q 14.984375 37.109375 14.984375 27.296875 
Q 14.984375 17.484375 19.15625 11.84375 
Q 23.34375 6.203125 30.609375 6.203125 
Q 37.796875 6.203125 41.984375 11.859375 
Q 46.1875 17.53125 46.1875 27.296875 
Q 46.1875 37.015625 41.984375 42.703125 
Q 37.796875 48.390625 30.609375 48.390625 
z
M 30.609375 56 
Q 42.328125 56 49.015625 48.375 
Q 55.71875 40.765625 55.71875 27.296875 
Q 55.71875 13.875 49.015625 6.21875 
Q 42.328125 -1.421875 30.609375 -1.421875 
Q 18.84375 -1.421875 12.171875 6.21875 
Q 5.515625 13.875 5.515625 27.296875 
Q 5.515625 40.765625 12.171875 48.375 
Q 18.84375 56 30.609375 56 
z
" id="DejaVuSans-6f"/>
      <path d="M 45.40625 27.984375 
Q 45.40625 37.75 41.375 43.109375 
Q 37.359375 48.484375 30.078125 48.484375 
Q 22.859375 48.484375 18.828125 43.109375 
Q 14.796875 37.75 14.796875 27.984375 
Q 14.796875 18.265625 18.828125 12.890625 
Q 22.859375 7.515625 30.078125 7.515625 
Q 37.359375 7.515625 41.375 12.890625 
Q 45.40625 18.265625 45.40625 27.984375 
z
M 54.390625 6.78125 
Q 54.390625 -7.171875 48.1875 -13.984375 
Q 42 -20.796875 29.203125 -20.796875 
Q 24.46875 -20.796875 20.265625 -20.09375 
Q 16.0625 -19.390625 12.109375 -17.921875 
L 12.109375 -9.1875 
Q 16.0625 -11.328125 19.921875 -12.34375 
Q 23.78125 -13.375 27.78125 -13.375 
Q 36.625 -13.375 41.015625 -8.765625 
Q 45.40625 -4.15625 45.40625 5.171875 
L 45.40625 9.625 
Q 42.625 4.78125 38.28125 2.390625 
Q 33.9375 0 27.875 0 
Q 17.828125 0 11.671875 7.65625 
Q 5.515625 15.328125 5.515625 27.984375 
Q 5.515625 40.671875 11.671875 48.328125 
Q 17.828125 56 27.875 56 
Q 33.9375 56 38.28125 53.609375 
Q 42.625 51.21875 45.40625 46.390625 
L 45.40625 54.6875 
L 54.390625 54.6875 
z
" id="DejaVuSans-67"/>
      <path d="M 12.40625 8.296875 
L 28.515625 8.296875 
L 28.515625 63.921875 
L 10.984375 60.40625 
L 10.984375 69.390625 
L 28.421875 72.90625 
L 38.28125 72.90625 
L 38.28125 8.296875 
L 54.390625 8.296875 
L 54.390625 0 
L 12.40625 0 
z
" id="DejaVuSans-31"/>
      <path d="M 31 75.875 
Q 24.46875 64.65625 21.28125 53.65625 
Q 18.109375 42.671875 18.109375 31.390625 
Q 18.109375 20.125 21.3125 9.0625 
Q 24.515625 -2 31 -13.1875 
L 23.1875 -13.1875 
Q 15.875 -1.703125 12.234375 9.375 
Q 8.59375 20.453125 8.59375 31.390625 
Q 8.59375 42.28125 12.203125 53.3125 
Q 15.828125 64.359375 23.1875 75.875 
z
" id="DejaVuSans-28"/>
      <path d="M 51.125 44 
L 36.921875 44 
L 32.8125 27.6875 
L 47.125 27.6875 
z
M 43.796875 71.78125 
L 38.71875 51.515625 
L 52.984375 51.515625 
L 58.109375 71.78125 
L 65.921875 71.78125 
L 60.890625 51.515625 
L 76.125 51.515625 
L 76.125 44 
L 58.984375 44 
L 54.984375 27.6875 
L 70.515625 27.6875 
L 70.515625 20.21875 
L 53.078125 20.21875 
L 48 0 
L 40.1875 0 
L 45.21875 20.21875 
L 30.90625 20.21875 
L 25.875 0 
L 18.015625 0 
L 23.09375 20.21875 
L 7.71875 20.21875 
L 7.71875 27.6875 
L 24.90625 27.6875 
L 29 44 
L 13.28125 44 
L 13.28125 51.515625 
L 30.90625 51.515625 
L 35.890625 71.78125 
z
" id="DejaVuSans-23"/>
      <path id="DejaVuSans-20"/>
      <path d="M 37.109375 75.984375 
L 37.109375 68.5 
L 28.515625 68.5 
Q 23.6875 68.5 21.796875 66.546875 
Q 19.921875 64.59375 19.921875 59.515625 
L 19.921875 54.6875 
L 34.71875 54.6875 
L 34.71875 47.703125 
L 19.921875 47.703125 
L 19.921875 0 
L 10.890625 0 
L 10.890625 47.703125 
L 2.296875 47.703125 
L 2.296875 54.6875 
L 10.890625 54.6875 
L 10.890625 58.5 
Q 10.890625 67.625 15.140625 71.796875 
Q 19.390625 75.984375 28.609375 75.984375 
z
" id="DejaVuSans-66"/>
      <path d="M 4.890625 31.390625 
L 31.203125 31.390625 
L 31.203125 23.390625 
L 4.890625 23.390625 
z
" id="DejaVuSans-2d"/>
      <path d="M 56.203125 29.59375 
L 56.203125 25.203125 
L 14.890625 25.203125 
Q 15.484375 15.921875 20.484375 11.0625 
Q 25.484375 6.203125 34.421875 6.203125 
Q 39.59375 6.203125 44.453125 7.46875 
Q 49.3125 8.734375 54.109375 11.28125 
L 54.109375 2.78125 
Q 49.265625 0.734375 44.1875 -0.34375 
Q 39.109375 -1.421875 33.890625 -1.421875 
Q 20.796875 -1.421875 13.15625 6.1875 
Q 5.515625 13.8125 5.515625 26.8125 
Q 5.515625 40.234375 12.765625 48.109375 
Q 20.015625 56 32.328125 56 
Q 43.359375 56 49.78125 48.890625 
Q 56.203125 41.796875 56.203125 29.59375 
z
M 47.21875 32.234375 
Q 47.125 39.59375 43.09375 43.984375 
Q 39.0625 48.390625 32.421875 48.390625 
Q 24.90625 48.390625 20.390625 44.140625 
Q 15.875 39.890625 15.1875 32.171875 
z
" id="DejaVuSans-65"/>
      <path d="M 2.984375 54.6875 
L 12.5 54.6875 
L 29.59375 8.796875 
L 46.6875 54.6875 
L 56.203125 54.6875 
L 35.6875 0 
L 23.484375 0 
z
" id="DejaVuSans-76"/>
      <path d="M 34.28125 27.484375 
Q 23.390625 27.484375 19.1875 25 
Q 14.984375 22.515625 14.984375 16.5 
Q 14.984375 11.71875 18.140625 8.90625 
Q 21.296875 6.109375 26.703125 6.109375 
Q 34.1875 6.109375 38.703125 11.40625 
Q 43.21875 16.703125 43.21875 25.484375 
L 43.21875 27.484375 
z
M 52.203125 31.203125 
L 52.203125 0 
L 43.21875 0 
L 43.21875 8.296875 
Q 40.140625 3.328125 35.546875 0.953125 
Q 30.953125 -1.421875 24.3125 -1.421875 
Q 15.921875 -1.421875 10.953125 3.296875 
Q 6 8.015625 6 15.921875 
Q 6 25.140625 12.171875 29.828125 
Q 18.359375 34.515625 30.609375 34.515625 
L 43.21875 34.515625 
L 43.21875 35.40625 
Q 43.21875 41.609375 39.140625 45 
Q 35.0625 48.390625 27.6875 48.390625 
Q 23 48.390625 18.546875 47.265625 
Q 14.109375 46.140625 10.015625 43.890625 
L 10.015625 52.203125 
Q 14.9375 54.109375 19.578125 55.046875 
Q 24.21875 56 28.609375 56 
Q 40.484375 56 46.34375 49.84375 
Q 52.203125 43.703125 52.203125 31.203125 
z
" id="DejaVuSans-61"/>
      <path d="M 44.28125 53.078125 
L 44.28125 44.578125 
Q 40.484375 46.53125 36.375 47.5 
Q 32.28125 48.484375 27.875 48.484375 
Q 21.1875 48.484375 17.84375 46.4375 
Q 14.5 44.390625 14.5 40.28125 
Q 14.5 37.15625 16.890625 35.375 
Q 19.28125 33.59375 26.515625 31.984375 
L 29.59375 31.296875 
Q 39.15625 29.25 43.1875 25.515625 
Q 47.21875 21.78125 47.21875 15.09375 
Q 47.21875 7.46875 41.1875 3.015625 
Q 35.15625 -1.421875 24.609375 -1.421875 
Q 20.21875 -1.421875 15.453125 -0.5625 
Q 10.6875 0.296875 5.421875 2 
L 5.421875 11.28125 
Q 10.40625 8.6875 15.234375 7.390625 
Q 20.0625 6.109375 24.8125 6.109375 
Q 31.15625 6.109375 34.5625 8.28125 
Q 37.984375 10.453125 37.984375 14.40625 
Q 37.984375 18.0625 35.515625 20.015625 
Q 33.0625 21.96875 24.703125 23.78125 
L 21.578125 24.515625 
Q 13.234375 26.265625 9.515625 29.90625 
Q 5.8125 33.546875 5.8125 39.890625 
Q 5.8125 47.609375 11.28125 51.796875 
Q 16.75 56 26.8125 56 
Q 31.78125 56 36.171875 55.265625 
Q 40.578125 54.546875 44.28125 53.078125 
z
" id="DejaVuSans-73"/>
      <path d="M 25.390625 72.90625 
L 33.6875 72.90625 
L 8.296875 -9.28125 
L 0 -9.28125 
z
" id="DejaVuSans-2f"/>
      <path d="M 45.40625 46.390625 
L 45.40625 75.984375 
L 54.390625 75.984375 
L 54.390625 0 
L 45.40625 0 
L 45.40625 8.203125 
Q 42.578125 3.328125 38.25 0.953125 
Q 33.9375 -1.421875 27.875 -1.421875 
Q 17.96875 -1.421875 11.734375 6.484375 
Q 5.515625 14.40625 5.515625 27.296875 
Q 5.515625 40.1875 11.734375 48.09375 
Q 17.96875 56 27.875 56 
Q 33.9375 56 38.25 53.625 
Q 42.578125 51.265625 45.40625 46.390625 
z
M 14.796875 27.296875 
Q 14.796875 17.390625 18.875 11.75 
Q 22.953125 6.109375 30.078125 6.109375 
Q 37.203125 6.109375 41.296875 11.75 
Q 45.40625 17.390625 45.40625 27.296875 
Q 45.40625 37.203125 41.296875 42.84375 
Q 37.203125 48.484375 30.078125 48.484375 
Q 22.953125 48.484375 18.875 42.84375 
Q 14.796875 37.203125 14.796875 27.296875 
z
" id="DejaVuSans-64"/>
      <path d="M 9.421875 54.6875 
L 18.40625 54.6875 
L 18.40625 0 
L 9.421875 0 
z
M 9.421875 75.984375 
L 18.40625 75.984375 
L 18.40625 64.59375 
L 9.421875 64.59375 
z
" id="DejaVuSans-69"/>
      <path d="M 52 44.1875 
Q 55.375 50.25 60.0625 53.125 
Q 64.75 56 71.09375 56 
Q 79.640625 56 84.28125 50.015625 
Q 88.921875 44.046875 88.921875 33.015625 
L 88.921875 0 
L 79.890625 0 
L 79.890625 32.71875 
Q 79.890625 40.578125 77.09375 44.375 
Q 74.3125 48.1875 68.609375 48.1875 
Q 61.625 48.1875 57.5625 43.546875 
Q 53.515625 38.921875 53.515625 30.90625 
L 53.515625 0 
L 44.484375 0 
L 44.484375 32.71875 
Q 44.484375 40.625 41.703125 44.40625 
Q 38.921875 48.1875 33.109375 48.1875 
Q 26.21875 48.1875 22.15625 43.53125 
Q 18.109375 38.875 18.109375 30.90625 
L 18.109375 0 
L 9.078125 0 
L 9.078125 54.6875 
L 18.109375 54.6875 
L 18.109375 46.1875 
Q 21.1875 51.21875 25.484375 53.609375 
Q 29.78125 56 35.6875 56 
Q 41.65625 56 45.828125 52.96875 
Q 50 49.953125 52 44.1875 
z
" id="DejaVuSans-6d"/>
      <path d="M 54.890625 33.015625 
L 54.890625 0 
L 45.90625 0 
L 45.90625 32.71875 
Q 45.90625 40.484375 42.875 44.328125 
Q 39.84375 48.1875 33.796875 48.1875 
Q 26.515625 48.1875 22.3125 43.546875 
Q 18.109375 38.921875 18.109375 30.90625 
L 18.109375 0 
L 9.078125 0 
L 9.078125 54.6875 
L 18.109375 54.6875 
L 18.109375 46.1875 
Q 21.34375 51.125 25.703125 53.5625 
Q 30.078125 56 35.796875 56 
Q 45.21875 56 50.046875 50.171875 
Q 54.890625 44.34375 54.890625 33.015625 
z
" id="DejaVuSans-6e"/>
      <path d="M 8.015625 75.875 
L 15.828125 75.875 
Q 23.140625 64.359375 26.78125 53.3125 
Q 30.421875 42.28125 30.421875 31.390625 
Q 30.421875 20.453125 26.78125 9.375 
Q 23.140625 -1.703125 15.828125 -13.1875 
L 8.015625 -13.1875 
Q 14.5 -2 17.703125 9.0625 
Q 20.90625 20.125 20.90625 31.390625 
Q 20.90625 42.671875 17.703125 53.65625 
Q 14.5 64.65625 8.015625 75.875 
z
" id="DejaVuSans-29"/>
     </defs>
     <g transform="translate(73.803219 338.153594)scale(0.17 -0.17)">
      <use xlink:href="#DejaVuSans-6c"/>
      <use x="27.783203" xlink:href="#DejaVuSans-6f"/>
      <use x="88.964844" xlink:href="#DejaVuSans-67"/>
      <use x="152.441406" xlink:href="#DejaVuSans-31"/>
      <use x="216.064453" xlink:href="#DejaVuSans-30"/>
      <use x="279.6875" xlink:href="#DejaVuSans-28"/>
      <use x="318.701172" xlink:href="#DejaVuSans-23"/>
      <use x="402.490234" xlink:href="#DejaVuSans-20"/>
      <use x="434.277344" xlink:href="#DejaVuSans-66"/>
      <use x="469.404297" xlink:href="#DejaVuSans-2d"/>
      <use x="505.488281" xlink:href="#DejaVuSans-65"/>
      <use x="567.011719" xlink:href="#DejaVuSans-76"/>
      <use x="626.191406" xlink:href="#DejaVuSans-61"/>
      <use x="687.470703" xlink:href="#DejaVuSans-6c"/>
      <use x="715.253906" xlink:href="#DejaVuSans-73"/>
      <use x="767.353516" xlink:href="#DejaVuSans-20"/>
      <use x="799.140625" xlink:href="#DejaVuSans-2f"/>
      <use x="832.832031" xlink:href="#DejaVuSans-20"/>
      <use x="864.619141" xlink:href="#DejaVuSans-64"/>
      <use x="928.095703" xlink:href="#DejaVuSans-69"/>
      <use x="955.878906" xlink:href="#DejaVuSans-6d"/>
      <use x="1053.291016" xlink:href="#DejaVuSans-65"/>
      <use x="1114.814453" xlink:href="#DejaVuSans-6e"/>
      <use x="1178.193359" xlink:href="#DejaVuSans-73"/>
      <use x="1230.292969" xlink:href="#DejaVuSans-69"/>
      <use x="1258.076172" xlink:href="#DejaVuSans-6f"/>
      <use x="1319.257812" xlink:href="#DejaVuSans-6e"/>
      <use x="1382.636719" xlink:href="#DejaVuSans-29"/>
     </g>
    </g>
   </g>
   <g id="matplotlib.axis_2">
    <g id="ytick_1">
     <g id="line2d_29">
      <path clip-path="url(#p57265d0087)" d="M 56.12 294.88 
L 333.168 294.88 
" style="fill:none;stroke:#b0b0b0;stroke-linecap:square;stroke-width:0.8;"/>
     </g>
     <g id="line2d_30">
      <defs>
       <path d="M 0 0 
L -3.5 0 
" id="m20ee78d5cc" style="stroke:#000000;stroke-width:0.8;"/>
      </defs>
      <g>
       <use style="stroke:#000000;stroke-width:0.8;" x="56.12" xlink:href="#m20ee78d5cc" y="294.88"/>
      </g>
     </g>
     <g id="text_6">
      <!-- 0.0 -->
      <defs>
       <path d="M 10.6875 12.40625 
L 21 12.40625 
L 21 0 
L 10.6875 0 
z
" id="DejaVuSans-2e"/>
      </defs>
      <g transform="translate(23.675 300.95875)scale(0.16 -0.16)">
       <use xlink:href="#DejaVuSans-30"/>
       <use x="63.623047" xlink:href="#DejaVuSans-2e"/>
       <use x="95.410156" xlink:href="#DejaVuSans-30"/>
      </g>
     </g>
    </g>
    <g id="ytick_2">
     <g id="line2d_31">
      <path clip-path="url(#p57265d0087)" d="M 56.12 241.406733 
L 333.168 241.406733 
" style="fill:none;stroke:#b0b0b0;stroke-linecap:square;stroke-width:0.8;"/>
     </g>
     <g id="line2d_32">
      <g>
       <use style="stroke:#000000;stroke-width:0.8;" x="56.12" xlink:href="#m20ee78d5cc" y="241.406733"/>
      </g>
     </g>
     <g id="text_7">
      <!-- 0.2 -->
      <g transform="translate(23.675 247.485483)scale(0.16 -0.16)">
       <use xlink:href="#DejaVuSans-30"/>
       <use x="63.623047" xlink:href="#DejaVuSans-2e"/>
       <use x="95.410156" xlink:href="#DejaVuSans-32"/>
      </g>
     </g>
    </g>
    <g id="ytick_3">
     <g id="line2d_33">
      <path clip-path="url(#p57265d0087)" d="M 56.12 187.933465 
L 333.168 187.933465 
" style="fill:none;stroke:#b0b0b0;stroke-linecap:square;stroke-width:0.8;"/>
     </g>
     <g id="line2d_34">
      <g>
       <use style="stroke:#000000;stroke-width:0.8;" x="56.12" xlink:href="#m20ee78d5cc" y="187.933465"/>
      </g>
     </g>
     <g id="text_8">
      <!-- 0.4 -->
      <g transform="translate(23.675 194.012215)scale(0.16 -0.16)">
       <use xlink:href="#DejaVuSans-30"/>
       <use x="63.623047" xlink:href="#DejaVuSans-2e"/>
       <use x="95.410156" xlink:href="#DejaVuSans-34"/>
      </g>
     </g>
    </g>
    <g id="ytick_4">
     <g id="line2d_35">
      <path clip-path="url(#p57265d0087)" d="M 56.12 134.460198 
L 333.168 134.460198 
" style="fill:none;stroke:#b0b0b0;stroke-linecap:square;stroke-width:0.8;"/>
     </g>
     <g id="line2d_36">
      <g>
       <use style="stroke:#000000;stroke-width:0.8;" x="56.12" xlink:href="#m20ee78d5cc" y="134.460198"/>
      </g>
     </g>
     <g id="text_9">
      <!-- 0.6 -->
      <g transform="translate(23.675 140.538948)scale(0.16 -0.16)">
       <use xlink:href="#DejaVuSans-30"/>
       <use x="63.623047" xlink:href="#DejaVuSans-2e"/>
       <use x="95.410156" xlink:href="#DejaVuSans-36"/>
      </g>
     </g>
    </g>
    <g id="ytick_5">
     <g id="line2d_37">
      <path clip-path="url(#p57265d0087)" d="M 56.12 80.986931 
L 333.168 80.986931 
" style="fill:none;stroke:#b0b0b0;stroke-linecap:square;stroke-width:0.8;"/>
     </g>
     <g id="line2d_38">
      <g>
       <use style="stroke:#000000;stroke-width:0.8;" x="56.12" xlink:href="#m20ee78d5cc" y="80.986931"/>
      </g>
     </g>
     <g id="text_10">
      <!-- 0.8 -->
      <defs>
       <path d="M 31.78125 34.625 
Q 24.75 34.625 20.71875 30.859375 
Q 16.703125 27.09375 16.703125 20.515625 
Q 16.703125 13.921875 20.71875 10.15625 
Q 24.75 6.390625 31.78125 6.390625 
Q 38.8125 6.390625 42.859375 10.171875 
Q 46.921875 13.96875 46.921875 20.515625 
Q 46.921875 27.09375 42.890625 30.859375 
Q 38.875 34.625 31.78125 34.625 
z
M 21.921875 38.8125 
Q 15.578125 40.375 12.03125 44.71875 
Q 8.5 49.078125 8.5 55.328125 
Q 8.5 64.0625 14.71875 69.140625 
Q 20.953125 74.21875 31.78125 74.21875 
Q 42.671875 74.21875 48.875 69.140625 
Q 55.078125 64.0625 55.078125 55.328125 
Q 55.078125 49.078125 51.53125 44.71875 
Q 48 40.375 41.703125 38.8125 
Q 48.828125 37.15625 52.796875 32.3125 
Q 56.78125 27.484375 56.78125 20.515625 
Q 56.78125 9.90625 50.3125 4.234375 
Q 43.84375 -1.421875 31.78125 -1.421875 
Q 19.734375 -1.421875 13.25 4.234375 
Q 6.78125 9.90625 6.78125 20.515625 
Q 6.78125 27.484375 10.78125 32.3125 
Q 14.796875 37.15625 21.921875 38.8125 
z
M 18.3125 54.390625 
Q 18.3125 48.734375 21.84375 45.5625 
Q 25.390625 42.390625 31.78125 42.390625 
Q 38.140625 42.390625 41.71875 45.5625 
Q 45.3125 48.734375 45.3125 54.390625 
Q 45.3125 60.0625 41.71875 63.234375 
Q 38.140625 66.40625 31.78125 66.40625 
Q 25.390625 66.40625 21.84375 63.234375 
Q 18.3125 60.0625 18.3125 54.390625 
z
" id="DejaVuSans-38"/>
      </defs>
      <g transform="translate(23.675 87.065681)scale(0.16 -0.16)">
       <use xlink:href="#DejaVuSans-30"/>
       <use x="63.623047" xlink:href="#DejaVuSans-2e"/>
       <use x="95.410156" xlink:href="#DejaVuSans-38"/>
      </g>
     </g>
    </g>
    <g id="ytick_6">
     <g id="line2d_39">
      <path clip-path="url(#p57265d0087)" d="M 56.12 27.513663 
L 333.168 27.513663 
" style="fill:none;stroke:#b0b0b0;stroke-linecap:square;stroke-width:0.8;"/>
     </g>
     <g id="line2d_40">
      <g>
       <use style="stroke:#000000;stroke-width:0.8;" x="56.12" xlink:href="#m20ee78d5cc" y="27.513663"/>
      </g>
     </g>
     <g id="text_11">
      <!-- 1.0 -->
      <g transform="translate(23.675 33.592413)scale(0.16 -0.16)">
       <use xlink:href="#DejaVuSans-31"/>
       <use x="63.623047" xlink:href="#DejaVuSans-2e"/>
       <use x="95.410156" xlink:href="#DejaVuSans-30"/>
      </g>
     </g>
    </g>
    <g id="text_12">
     <!-- Fraction of function,target pairs -->
     <defs>
      <path d="M 9.8125 72.90625 
L 51.703125 72.90625 
L 51.703125 64.59375 
L 19.671875 64.59375 
L 19.671875 43.109375 
L 48.578125 43.109375 
L 48.578125 34.8125 
L 19.671875 34.8125 
L 19.671875 0 
L 9.8125 0 
z
" id="DejaVuSans-46"/>
      <path d="M 41.109375 46.296875 
Q 39.59375 47.171875 37.8125 47.578125 
Q 36.03125 48 33.890625 48 
Q 26.265625 48 22.1875 43.046875 
Q 18.109375 38.09375 18.109375 28.8125 
L 18.109375 0 
L 9.078125 0 
L 9.078125 54.6875 
L 18.109375 54.6875 
L 18.109375 46.1875 
Q 20.953125 51.171875 25.484375 53.578125 
Q 30.03125 56 36.53125 56 
Q 37.453125 56 38.578125 55.875 
Q 39.703125 55.765625 41.0625 55.515625 
z
" id="DejaVuSans-72"/>
      <path d="M 48.78125 52.59375 
L 48.78125 44.1875 
Q 44.96875 46.296875 41.140625 47.34375 
Q 37.3125 48.390625 33.40625 48.390625 
Q 24.65625 48.390625 19.8125 42.84375 
Q 14.984375 37.3125 14.984375 27.296875 
Q 14.984375 17.28125 19.8125 11.734375 
Q 24.65625 6.203125 33.40625 6.203125 
Q 37.3125 6.203125 41.140625 7.25 
Q 44.96875 8.296875 48.78125 10.40625 
L 48.78125 2.09375 
Q 45.015625 0.34375 40.984375 -0.53125 
Q 36.96875 -1.421875 32.421875 -1.421875 
Q 20.0625 -1.421875 12.78125 6.34375 
Q 5.515625 14.109375 5.515625 27.296875 
Q 5.515625 40.671875 12.859375 48.328125 
Q 20.21875 56 33.015625 56 
Q 37.15625 56 41.109375 55.140625 
Q 45.0625 54.296875 48.78125 52.59375 
z
" id="DejaVuSans-63"/>
      <path d="M 18.3125 70.21875 
L 18.3125 54.6875 
L 36.8125 54.6875 
L 36.8125 47.703125 
L 18.3125 47.703125 
L 18.3125 18.015625 
Q 18.3125 11.328125 20.140625 9.421875 
Q 21.96875 7.515625 27.59375 7.515625 
L 36.8125 7.515625 
L 36.8125 0 
L 27.59375 0 
Q 17.1875 0 13.234375 3.875 
Q 9.28125 7.765625 9.28125 18.015625 
L 9.28125 47.703125 
L 2.6875 47.703125 
L 2.6875 54.6875 
L 9.28125 54.6875 
L 9.28125 70.21875 
z
" id="DejaVuSans-74"/>
      <path d="M 8.5 21.578125 
L 8.5 54.6875 
L 17.484375 54.6875 
L 17.484375 21.921875 
Q 17.484375 14.15625 20.5 10.265625 
Q 23.53125 6.390625 29.59375 6.390625 
Q 36.859375 6.390625 41.078125 11.03125 
Q 45.3125 15.671875 45.3125 23.6875 
L 45.3125 54.6875 
L 54.296875 54.6875 
L 54.296875 0 
L 45.3125 0 
L 45.3125 8.40625 
Q 42.046875 3.421875 37.71875 1 
Q 33.40625 -1.421875 27.6875 -1.421875 
Q 18.265625 -1.421875 13.375 4.4375 
Q 8.5 10.296875 8.5 21.578125 
z
M 31.109375 56 
z
" id="DejaVuSans-75"/>
      <path d="M 11.71875 12.40625 
L 22.015625 12.40625 
L 22.015625 4 
L 14.015625 -11.625 
L 7.71875 -11.625 
L 11.71875 4 
z
" id="DejaVuSans-2c"/>
      <path d="M 18.109375 8.203125 
L 18.109375 -20.796875 
L 9.078125 -20.796875 
L 9.078125 54.6875 
L 18.109375 54.6875 
L 18.109375 46.390625 
Q 20.953125 51.265625 25.265625 53.625 
Q 29.59375 56 35.59375 56 
Q 45.5625 56 51.78125 48.09375 
Q 58.015625 40.1875 58.015625 27.296875 
Q 58.015625 14.40625 51.78125 6.484375 
Q 45.5625 -1.421875 35.59375 -1.421875 
Q 29.59375 -1.421875 25.265625 0.953125 
Q 20.953125 3.328125 18.109375 8.203125 
z
M 48.6875 27.296875 
Q 48.6875 37.203125 44.609375 42.84375 
Q 40.53125 48.484375 33.40625 48.484375 
Q 26.265625 48.484375 22.1875 42.84375 
Q 18.109375 37.203125 18.109375 27.296875 
Q 18.109375 17.390625 22.1875 11.75 
Q 26.265625 6.109375 33.40625 6.109375 
Q 40.53125 6.109375 44.609375 11.75 
Q 48.6875 17.390625 48.6875 27.296875 
z
" id="DejaVuSans-70"/>
     </defs>
     <g transform="translate(16.139531 294.999375)rotate(-90)scale(0.17 -0.17)">
      <use xlink:href="#DejaVuSans-46"/>
      <use x="57.410156" xlink:href="#DejaVuSans-72"/>
      <use x="98.523438" xlink:href="#DejaVuSans-61"/>
      <use x="159.802734" xlink:href="#DejaVuSans-63"/>
      <use x="214.783203" xlink:href="#DejaVuSans-74"/>
      <use x="253.992188" xlink:href="#DejaVuSans-69"/>
      <use x="281.775391" xlink:href="#DejaVuSans-6f"/>
      <use x="342.957031" xlink:href="#DejaVuSans-6e"/>
      <use x="406.335938" xlink:href="#DejaVuSans-20"/>
      <use x="438.123047" xlink:href="#DejaVuSans-6f"/>
      <use x="499.304688" xlink:href="#DejaVuSans-66"/>
      <use x="534.509766" xlink:href="#DejaVuSans-20"/>
      <use x="566.296875" xlink:href="#DejaVuSans-66"/>
      <use x="601.501953" xlink:href="#DejaVuSans-75"/>
      <use x="664.880859" xlink:href="#DejaVuSans-6e"/>
      <use x="728.259766" xlink:href="#DejaVuSans-63"/>
      <use x="783.240234" xlink:href="#DejaVuSans-74"/>
      <use x="822.449219" xlink:href="#DejaVuSans-69"/>
      <use x="850.232422" xlink:href="#DejaVuSans-6f"/>
      <use x="911.414062" xlink:href="#DejaVuSans-6e"/>
      <use x="974.792969" xlink:href="#DejaVuSans-2c"/>
      <use x="1006.580078" xlink:href="#DejaVuSans-74"/>
      <use x="1045.789062" xlink:href="#DejaVuSans-61"/>
      <use x="1107.068359" xlink:href="#DejaVuSans-72"/>
      <use x="1148.166016" xlink:href="#DejaVuSans-67"/>
      <use x="1211.642578" xlink:href="#DejaVuSans-65"/>
      <use x="1273.166016" xlink:href="#DejaVuSans-74"/>
      <use x="1312.375" xlink:href="#DejaVuSans-20"/>
      <use x="1344.162109" xlink:href="#DejaVuSans-70"/>
      <use x="1407.638672" xlink:href="#DejaVuSans-61"/>
      <use x="1468.917969" xlink:href="#DejaVuSans-69"/>
      <use x="1496.701172" xlink:href="#DejaVuSans-72"/>
      <use x="1537.814453" xlink:href="#DejaVuSans-73"/>
     </g>
    </g>
   </g>
   <g id="line2d_41">
    <defs>
     <path d="M 0 1.5 
C 0.397805 1.5 0.77937 1.341951 1.06066 1.06066 
C 1.341951 0.77937 1.5 0.397805 1.5 0 
C 1.5 -0.397805 1.341951 -0.77937 1.06066 -1.06066 
C 0.77937 -1.341951 0.397805 -1.5 0 -1.5 
C -0.397805 -1.5 -0.77937 -1.341951 -1.06066 -1.06066 
C -1.341951 -0.77937 -1.5 -0.397805 -1.5 0 
C -1.5 0.397805 -1.341951 0.77937 -1.06066 1.06066 
C -0.77937 1.341951 -0.397805 1.5 0 1.5 
z
" id="m3bb85650f8" style="stroke:#f5deb3;"/>
    </defs>
    <g>
     <use style="fill:#f5deb3;stroke:#f5deb3;" x="150.538207" xlink:href="#m3bb85650f8" y="27.513663"/>
     <use style="fill:#f5deb3;stroke:#f5deb3;" x="150.538207" xlink:href="#m3bb85650f8" y="27.513663"/>
    </g>
   </g>
   <g id="line2d_42">
    <defs>
     <path d="M 0 1.5 
C 0.397805 1.5 0.77937 1.341951 1.06066 1.06066 
C 1.341951 0.77937 1.5 0.397805 1.5 0 
C 1.5 -0.397805 1.341951 -0.77937 1.06066 -1.06066 
C 0.77937 -1.341951 0.397805 -1.5 0 -1.5 
C -0.397805 -1.5 -0.77937 -1.341951 -1.06066 -1.06066 
C -1.341951 -0.77937 -1.5 -0.397805 -1.5 0 
C -1.5 0.397805 -1.341951 0.77937 -1.06066 1.06066 
C -0.77937 1.341951 -0.397805 1.5 0 1.5 
z
" id="md3bd1ce931" style="stroke:#000080;"/>
    </defs>
    <g>
     <use style="fill:#000080;stroke:#000080;" x="209.628654" xlink:href="#md3bd1ce931" y="27.513663"/>
     <use style="fill:#000080;stroke:#000080;" x="209.628654" xlink:href="#md3bd1ce931" y="27.513663"/>
    </g>
   </g>
   <g id="line2d_43">
    <path d="M 44.205749 294.88 
L 44.205749 277.579825 
L 56.12 277.579825 
L 56.12 276.53133 
L 63.08939 276.53133 
L 63.08939 275.482834 
L 68.034251 275.482834 
L 68.034251 274.958587 
L 75.003641 274.958587 
L 75.003641 272.337348 
L 77.653281 272.337348 
L 77.653281 270.764605 
L 79.948502 270.764605 
L 79.948502 268.667614 
L 81.973032 268.667614 
L 81.973032 268.143366 
L 85.422286 268.143366 
L 85.422286 266.046375 
L 86.917893 266.046375 
L 86.917893 264.99788 
L 88.293717 264.99788 
L 88.293717 264.473632 
L 90.753425 264.473632 
L 90.753425 263.949385 
L 93.887283 263.949385 
L 93.887283 262.900889 
L 95.698286 262.900889 
L 95.698286 261.328146 
L 96.536922 261.328146 
L 96.536922 260.803898 
L 99.533818 260.803898 
L 99.533818 258.706907 
L 100.207968 258.706907 
L 100.207968 258.18266 
L 107.177358 258.18266 
L 107.177358 257.658412 
L 114.293036 257.658412 
L 114.293036 257.134164 
L 120.365424 257.134164 
L 120.365424 256.609917 
L 120.769881 256.609917 
L 120.769881 256.085669 
L 121.16504 256.085669 
L 121.16504 255.037173 
L 123.015063 255.037173 
L 123.015063 254.512926 
L 123.533353 254.512926 
L 123.533353 253.988678 
L 124.036471 253.988678 
L 124.036471 252.940182 
L 125.156126 252.940182 
L 125.156126 252.415935 
L 126.061 252.415935 
L 126.061 251.891687 
L 126.352339 251.891687 
L 126.352339 251.367439 
L 127.05979 251.367439 
L 127.05979 250.843192 
L 130.784069 250.843192 
L 130.784069 250.318944 
L 131.548134 250.318944 
L 131.548134 249.794696 
L 133.273515 249.794696 
L 133.273515 249.270448 
L 136.278134 249.270448 
L 136.278134 248.746201 
L 138.764847 248.746201 
L 138.764847 248.221953 
L 141.66324 248.221953 
L 141.66324 247.173458 
L 141.781376 247.173458 
L 141.781376 245.076467 
L 143.084598 245.076467 
L 143.084598 244.552219 
L 144.193927 244.552219 
L 144.193927 243.503724 
L 147.782136 243.503724 
L 147.782136 242.979476 
L 148.029459 242.979476 
L 148.029459 241.93098 
L 148.711478 241.93098 
L 148.711478 241.406733 
L 153.338757 241.406733 
L 153.338757 240.882485 
L 153.666169 240.882485 
L 153.666169 240.358237 
L 154.416128 240.358237 
L 154.472484 239.309742 
L 154.556673 239.309742 
L 154.556673 238.785494 
L 155.05333 238.785494 
L 155.05333 238.261246 
L 155.536037 238.261246 
L 155.536037 237.212751 
L 156.235596 237.212751 
L 156.235596 236.688503 
L 156.612279 236.688503 
L 156.6371 235.11576 
L 156.736028 235.11576 
L 156.736028 234.591512 
L 158.313642 234.591512 
L 158.313642 234.067265 
L 158.779727 234.067265 
L 158.779727 233.543017 
L 159.233507 233.543017 
L 159.233507 233.018769 
L 159.403273 233.018769 
L 159.403273 231.446026 
L 159.923235 231.446026 
L 159.923235 229.349035 
L 162.310402 229.349035 
L 162.399325 228.30054 
L 163.465361 228.30054 
L 163.465361 227.252044 
L 163.925945 227.252044 
L 163.990747 226.203549 
L 164.039189 226.203549 
L 164.039189 225.155053 
L 165.207874 225.155053 
L 165.207874 224.106558 
L 166.231309 224.106558 
L 166.231309 223.58231 
L 168.662605 223.58231 
L 168.662605 222.533815 
L 168.895136 222.533815 
L 168.895136 222.009567 
L 169.279792 222.009567 
L 169.279792 220.436824 
L 169.932899 220.436824 
L 169.932899 219.912576 
L 170.171555 219.912576 
L 170.171555 219.388328 
L 170.395806 219.388328 
L 170.395806 217.815585 
L 172.890383 217.815585 
L 172.900015 216.76709 
L 173.139082 216.76709 
L 173.186499 215.718594 
L 173.936971 215.718594 
L 174.009344 214.670099 
L 174.498828 214.670099 
L 174.498828 214.145851 
L 174.854857 214.145851 
L 174.854857 212.573108 
L 175.346236 212.573108 
L 175.346236 212.04886 
L 175.594991 212.04886 
L 175.594991 209.95187 
L 175.872628 209.95187 
L 175.872628 209.427622 
L 176.113932 209.427622 
L 176.145852 208.379126 
L 176.383377 208.379126 
L 176.446167 205.757888 
L 176.679606 205.757888 
L 176.718206 204.185145 
L 176.948004 204.185145 
L 176.948004 203.660897 
L 177.152227 203.660897 
L 177.24222 201.563906 
L 177.368909 201.563906 
L 177.368909 199.466915 
L 177.707106 199.466915 
L 177.714384 196.845677 
L 177.866529 196.845677 
L 177.866529 196.321429 
L 177.981552 196.321429 
L 177.981552 195.797181 
L 178.329095 195.797181 
L 178.364167 194.748686 
L 178.607685 194.748686 
L 178.717869 193.175943 
L 178.779539 193.175943 
L 178.881832 192.127447 
L 179.298302 192.127447 
L 179.298302 191.603199 
L 179.489692 191.603199 
L 179.489692 190.554704 
L 179.61394 190.554704 
L 179.665987 188.981961 
L 179.776068 188.981961 
L 179.859773 186.88497 
L 180.045046 186.88497 
L 180.045046 186.360722 
L 180.190579 186.360722 
L 180.190579 185.836474 
L 180.422142 185.836474 
L 180.496579 182.16674 
L 180.546025 182.16674 
L 180.546025 181.642493 
L 180.711862 181.642493 
L 180.748499 180.593997 
L 181.020812 180.593997 
L 181.080744 176.924263 
L 181.217801 176.924263 
L 181.318406 174.827272 
L 181.330204 174.827272 
L 181.418426 172.206034 
L 181.47699 172.206034 
L 181.57028 169.060547 
L 181.841427 169.060547 
L 181.927071 165.915061 
L 182.01229 165.915061 
L 182.04626 163.293823 
L 182.159009 163.293823 
L 182.24868 161.196832 
L 182.398945 161.196832 
L 182.415561 159.099841 
L 182.514917 159.099841 
L 182.624644 158.051345 
L 182.635578 158.051345 
L 182.717364 155.954354 
L 182.798763 155.954354 
L 182.890551 154.381611 
L 182.917454 154.381611 
L 182.976494 151.236125 
L 183.09929 151.236125 
L 183.194782 149.663382 
L 183.24233 149.663382 
L 183.24233 149.139134 
L 183.425999 149.139134 
L 183.498921 148.090639 
L 183.576709 148.090639 
L 183.607727 146.517896 
L 183.823293 146.517896 
L 183.879307 144.945152 
L 183.935139 144.945152 
L 183.935139 144.420905 
L 184.136649 144.420905 
L 184.201635 142.323914 
L 184.251457 142.323914 
L 184.251457 141.275418 
L 184.439475 141.275418 
L 184.542504 137.605684 
L 184.591349 137.605684 
L 184.674069 136.032941 
L 184.819081 136.032941 
L 184.819081 135.508693 
L 185.110218 135.508693 
L 185.204609 133.93595 
L 185.298485 133.93595 
L 185.298485 133.411703 
L 185.429056 133.411703 
L 185.512474 131.314712 
L 185.590887 131.314712 
L 185.590887 130.790464 
L 185.805834 130.790464 
L 185.805834 130.266216 
L 185.937131 130.266216 
L 185.973176 129.217721 
L 186.058479 129.217721 
L 186.089801 127.644978 
L 186.2898 127.644978 
L 186.39113 125.547987 
L 186.531125 125.547987 
L 186.61371 122.926748 
L 186.665666 122.926748 
L 186.773405 121.878253 
L 186.803451 121.878253 
L 186.854837 119.781262 
L 186.982634 119.781262 
L 187.037719 118.208519 
L 187.318853 118.208519 
L 187.418449 116.111528 
L 187.434993 116.111528 
L 187.472158 114.538785 
L 187.620018 114.538785 
L 187.640454 111.917546 
L 187.867691 111.917546 
L 187.867691 109.820555 
L 187.996205 109.820555 
L 187.996205 109.296308 
L 188.226715 109.296308 
L 188.246442 107.723564 
L 188.481424 107.723564 
L 188.531916 106.150821 
L 188.613168 106.150821 
L 188.613168 105.626573 
L 188.763053 105.626573 
L 188.84703 104.578078 
L 188.892664 104.578078 
L 188.983569 103.005335 
L 189.104033 103.005335 
L 189.175161 101.956839 
L 189.431021 101.956839 
L 189.475132 99.859849 
L 189.584917 99.859849 
L 189.584917 99.335601 
L 189.71574 99.335601 
L 189.766348 96.714362 
L 189.834793 96.714362 
L 189.895803 95.665867 
L 190.002942 95.665867 
L 190.002942 95.141619 
L 190.236323 95.141619 
L 190.236323 94.093124 
L 190.470044 94.093124 
L 190.470044 93.568876 
L 191.344774 93.568876 
L 191.344774 91.996133 
L 191.86691 91.996133 
L 191.86691 90.42339 
L 192.054349 90.42339 
L 192.054349 89.899142 
L 192.43248 89.899142 
L 192.540323 88.326399 
L 192.610825 88.326399 
L 192.610825 87.277903 
L 192.757035 87.277903 
L 192.757035 86.753656 
L 192.971048 86.753656 
L 192.971048 86.229408 
L 194.031066 86.229408 
L 194.132159 84.132417 
L 194.243792 84.132417 
L 194.293792 83.083922 
L 194.357469 83.083922 
L 194.357469 82.559674 
L 194.527954 82.559674 
L 194.590771 80.986931 
L 194.645208 80.986931 
L 194.645208 80.462683 
L 194.796723 80.462683 
L 194.89878 78.365692 
L 194.9389 78.365692 
L 194.9389 77.841444 
L 195.056047 77.841444 
L 195.08521 76.792949 
L 195.287974 76.792949 
L 195.363723 74.695958 
L 195.418369 74.695958 
L 195.418369 74.17171 
L 195.622398 74.17171 
L 195.696692 70.501976 
L 195.752839 70.501976 
L 195.811342 67.880738 
L 195.9328 67.880738 
L 195.990695 66.832242 
L 196.242648 66.832242 
L 196.338957 64.211004 
L 196.47631 64.211004 
L 196.493402 63.162508 
L 196.598026 63.162508 
L 196.598026 62.114013 
L 196.716477 62.114013 
L 196.769394 61.065517 
L 196.858027 61.065517 
L 196.953334 58.968526 
L 197.217417 58.968526 
L 197.294459 55.82304 
L 197.403594 55.82304 
L 197.403594 55.298792 
L 197.560274 55.298792 
L 197.66318 53.201802 
L 197.905421 53.201802 
L 197.986161 52.153306 
L 198.024157 52.153306 
L 198.077655 49.532068 
L 198.265801 49.532068 
L 198.360202 47.959324 
L 198.627405 47.959324 
L 198.676913 46.386581 
L 198.784047 46.386581 
L 198.786183 45.338086 
L 198.93504 45.338086 
L 198.93504 44.813838 
L 199.046895 44.813838 
L 199.046895 43.765343 
L 200.101443 43.765343 
L 200.101443 43.241095 
L 200.585222 43.241095 
L 200.61405 42.192599 
L 201.913633 42.192599 
L 201.913633 40.619856 
L 202.842412 40.619856 
L 202.842412 39.571361 
L 203.078622 39.571361 
L 203.078622 39.047113 
L 208.320795 39.047113 
L 208.320795 37.998618 
L 208.546203 37.998618 
L 208.643973 36.425875 
L 208.718434 36.425875 
L 208.797347 33.280388 
L 209.018986 33.280388 
L 209.097707 30.65915 
L 209.25872 30.65915 
L 209.25872 29.086407 
L 209.377921 29.086407 
L 209.377921 28.562159 
L 209.558041 28.562159 
L 209.628654 27.513663 
L 333.168 27.513663 
L 333.168 27.513663 
" style="fill:none;stroke:#000080;stroke-linecap:square;stroke-width:1.5;"/>
   </g>
   <g id="line2d_44">
    <defs>
     <path d="M 0 6 
C 1.591219 6 3.117479 5.367802 4.242641 4.242641 
C 5.367802 3.117479 6 1.591219 6 0 
C 6 -1.591219 5.367802 -3.117479 4.242641 -4.242641 
C 3.117479 -5.367802 1.591219 -6 0 -6 
C -1.591219 -6 -3.117479 -5.367802 -4.242641 -4.242641 
C -5.367802 -3.117479 -6 -1.591219 -6 0 
C -6 1.591219 -5.367802 3.117479 -4.242641 4.242641 
C -3.117479 5.367802 -1.591219 6 0 6 
z
" id="mc8d2ddda5f" style="stroke:#000080;stroke-width:1.5;"/>
    </defs>
    <g>
     <use style="fill-opacity:0;stroke:#000080;stroke-width:1.5;" x="68.034251" xlink:href="#mc8d2ddda5f" y="275.482834"/>
     <use style="fill-opacity:0;stroke:#000080;stroke-width:1.5;" x="162.399325" xlink:href="#mc8d2ddda5f" y="228.824787"/>
     <use style="fill-opacity:0;stroke:#000080;stroke-width:1.5;" x="194.357469" xlink:href="#mc8d2ddda5f" y="82.559674"/>
     <use style="fill-opacity:0;stroke:#000080;stroke-width:1.5;" x="209.628654" xlink:href="#mc8d2ddda5f" y="28.037911"/>
     <use style="fill-opacity:0;stroke:#000080;stroke-width:1.5;" x="209.628654" xlink:href="#mc8d2ddda5f" y="27.513663"/>
     <use style="fill-opacity:0;stroke:#000080;stroke-width:1.5;" x="333.168" xlink:href="#mc8d2ddda5f" y="27.513663"/>
    </g>
   </g>
   <g id="line2d_45">
    <path style="fill:none;stroke:#000080;stroke-linecap:square;stroke-width:1.5;"/>
    <g/>
   </g>
   <g id="line2d_46">
    <defs>
     <path d="M 0 1.5 
C 0.397805 1.5 0.77937 1.341951 1.06066 1.06066 
C 1.341951 0.77937 1.5 0.397805 1.5 0 
C 1.5 -0.397805 1.341951 -0.77937 1.06066 -1.06066 
C 0.77937 -1.341951 0.397805 -1.5 0 -1.5 
C -0.397805 -1.5 -0.77937 -1.341951 -1.06066 -1.06066 
C -1.341951 -0.77937 -1.5 -0.397805 -1.5 0 
C -1.5 0.397805 -1.341951 0.77937 -1.06066 1.06066 
C -0.77937 1.341951 -0.397805 1.5 0 1.5 
z
" id="m471e45481a" style="stroke:#ff00ff;"/>
    </defs>
    <g>
     <use style="fill:#ff00ff;stroke:#ff00ff;" x="213.392431" xlink:href="#m471e45481a" y="27.513663"/>
     <use style="fill:#ff00ff;stroke:#ff00ff;" x="213.392431" xlink:href="#m471e45481a" y="27.513663"/>
    </g>
   </g>
   <g id="line2d_47">
    <path d="M 44.205749 294.88 
L 44.205749 274.958587 
L 56.12 274.958587 
L 56.12 269.191862 
L 63.08939 269.191862 
L 63.08939 265.522128 
L 71.869783 265.522128 
L 71.869783 264.99788 
L 75.003641 264.99788 
L 75.003641 263.949385 
L 77.653281 263.949385 
L 77.653281 262.900889 
L 79.948502 262.900889 
L 79.948502 262.376641 
L 85.422286 262.376641 
L 85.422286 261.852394 
L 89.567532 261.852394 
L 89.567532 261.328146 
L 93.887283 261.328146 
L 93.887283 260.803898 
L 101.481783 260.803898 
L 101.481783 260.279651 
L 103.231288 260.279651 
L 103.231288 259.755403 
L 103.777005 259.755403 
L 103.777005 259.231155 
L 105.801534 259.231155 
L 105.801534 258.706907 
L 109.250788 258.706907 
L 109.250788 256.085669 
L 112.122219 256.085669 
L 112.122219 255.561421 
L 112.770924 255.561421 
L 112.770924 254.512926 
L 113.086321 254.512926 
L 113.086321 253.988678 
L 113.700266 253.988678 
L 113.700266 253.46443 
L 118.645127 253.46443 
L 118.645127 252.415935 
L 123.36232 252.415935 
L 123.36232 251.367439 
L 124.685175 251.367439 
L 124.685175 250.843192 
L 126.92061 250.843192 
L 126.92061 250.318944 
L 129.389632 250.318944 
L 129.389632 249.270448 
L 129.984454 249.270448 
L 129.984454 248.746201 
L 134.929315 248.746201 
L 134.929315 247.697705 
L 135.532486 247.697705 
L 135.532486 246.124962 
L 136.033161 246.124962 
L 136.033161 245.076467 
L 137.827708 245.076467 
L 137.827708 244.552219 
L 139.452484 244.552219 
L 139.452484 244.027971 
L 139.852237 244.027971 
L 139.852237 243.503724 
L 143.884213 243.503724 
L 143.884213 242.455228 
L 144.548344 242.455228 
L 144.548344 241.93098 
L 148.029459 241.93098 
L 148.029459 240.882485 
L 150.818844 240.882485 
L 150.818844 240.358237 
L 151.467548 240.358237 
L 151.467548 239.83399 
L 151.634268 239.83399 
L 151.700505 238.261246 
L 151.8977 238.261246 
L 151.8977 237.736999 
L 152.28543 237.736999 
L 152.28543 237.212751 
L 152.820161 237.212751 
L 152.820161 236.164255 
L 153.754391 236.164255 
L 153.754391 235.640008 
L 154.861887 235.640008 
L 154.861887 235.11576 
L 155.376636 235.11576 
L 155.376636 234.067265 
L 155.824488 234.067265 
L 155.824488 233.543017 
L 156.108178 233.543017 
L 156.108178 233.018769 
L 156.736028 233.018769 
L 156.736028 232.494521 
L 157.126141 232.494521 
L 157.126141 231.446026 
L 157.317927 231.446026 
L 157.317927 230.921778 
L 157.811415 230.921778 
L 157.811415 230.397531 
L 158.087174 230.397531 
L 158.087174 229.873283 
L 158.291129 229.873283 
L 158.291129 229.349035 
L 158.647844 229.349035 
L 158.647844 227.252044 
L 158.888862 227.252044 
L 158.888862 226.727797 
L 159.487531 226.727797 
L 159.487531 225.155053 
L 159.758552 225.155053 
L 159.758552 224.630806 
L 160.288102 224.630806 
L 160.288102 224.106558 
L 160.527113 224.106558 
L 160.527113 223.58231 
L 161.091363 223.58231 
L 161.167758 222.009567 
L 161.376107 222.009567 
L 161.413719 218.339833 
L 162.310402 218.339833 
L 162.310402 217.815585 
L 162.767854 217.815585 
L 162.767854 216.76709 
L 163.179578 216.76709 
L 163.264126 215.194347 
L 163.314656 215.194347 
L 163.314656 214.670099 
L 163.498673 214.670099 
L 163.498673 214.145851 
L 163.893453 214.145851 
L 163.893453 213.621604 
L 164.006909 213.621604 
L 164.006909 212.573108 
L 164.295262 212.573108 
L 164.295262 212.04886 
L 164.516239 212.04886 
L 164.516239 211.524613 
L 164.703413 211.524613 
L 164.703413 211.000365 
L 165.026142 211.000365 
L 165.026142 210.476117 
L 165.313003 210.476117 
L 165.417494 208.903374 
L 165.595155 208.903374 
L 165.595155 208.379126 
L 166.074464 208.379126 
L 166.131664 206.806383 
L 166.188675 206.806383 
L 166.28799 205.23364 
L 166.316261 205.23364 
L 166.400795 202.612401 
L 166.456921 202.612401 
L 166.554703 199.466915 
L 166.651932 199.466915 
L 166.651932 198.942667 
L 166.926736 198.942667 
L 166.994756 196.845677 
L 167.156915 196.845677 
L 167.156915 196.321429 
L 167.370773 196.321429 
L 167.370773 195.272933 
L 167.725732 195.272933 
L 167.803626 193.70019 
L 168.047988 193.70019 
L 168.124439 190.030456 
L 168.52653 190.030456 
L 168.625601 187.409218 
L 168.724103 187.409218 
L 168.822044 185.836474 
L 168.846443 185.836474 
L 168.943691 183.739484 
L 169.172475 183.739484 
L 169.267901 181.642493 
L 169.350967 181.642493 
L 169.421848 179.021254 
L 169.480693 179.021254 
L 169.492438 176.924263 
L 169.621105 176.924263 
L 169.632754 175.35152 
L 169.887063 175.35152 
L 169.887063 174.303025 
L 170.340017 174.303025 
L 170.340017 173.254529 
L 170.462515 173.254529 
L 170.540016 171.681786 
L 170.595161 171.681786 
L 170.628164 170.633291 
L 170.726792 170.633291 
L 170.781341 169.060547 
L 170.879097 169.060547 
L 170.987066 167.487804 
L 171.083662 167.487804 
L 171.137092 166.439309 
L 171.328079 166.439309 
L 171.422783 162.769575 
L 171.464706 162.769575 
L 171.537827 160.672584 
L 171.610638 160.672584 
L 171.683143 159.624089 
L 171.847727 159.624089 
L 171.949797 158.051345 
L 171.970139 158.051345 
L 172.000606 154.381611 
L 172.212378 154.381611 
L 172.212378 153.857364 
L 172.371995 153.857364 
L 172.371995 153.333116 
L 172.510455 153.333116 
L 172.53998 151.760373 
L 172.706339 151.760373 
L 172.745249 150.18763 
L 172.822806 150.18763 
L 172.880746 148.614886 
L 173.005615 148.614886 
L 173.082009 147.566391 
L 173.356125 147.566391 
L 173.356125 146.517896 
L 173.496213 146.517896 
L 173.570462 144.945152 
L 173.625939 144.945152 
L 173.690436 142.323914 
L 173.873393 142.323914 
L 173.873393 141.799666 
L 174.009344 141.799666 
L 174.117336 140.751171 
L 174.126305 140.751171 
L 174.171078 139.178427 
L 174.295828 139.178427 
L 174.295828 138.65418 
L 174.419679 138.65418 
L 174.419679 137.605684 
L 174.586347 137.605684 
L 174.586347 137.081437 
L 175.017378 137.081437 
L 175.102303 132.887455 
L 175.404602 132.887455 
L 175.404602 131.838959 
L 175.529008 131.838959 
L 175.586757 130.790464 
L 175.644313 130.790464 
L 175.644313 129.741969 
L 176.017817 129.741969 
L 176.017817 128.693473 
L 176.241256 128.693473 
L 176.241256 128.169225 
L 176.477476 128.169225 
L 176.555499 126.072235 
L 176.633171 126.072235 
L 176.633171 125.547987 
L 176.986006 125.547987 
L 176.986006 125.023739 
L 177.227254 125.023739 
L 177.227254 123.975244 
L 177.428206 123.975244 
L 177.428206 122.926748 
L 177.560881 122.926748 
L 177.560881 122.4025 
L 178.038776 122.4025 
L 178.110039 120.829757 
L 178.635298 120.829757 
L 178.662865 119.257014 
L 179.245128 119.257014 
L 179.324828 117.684271 
L 180.278565 117.684271 
L 180.278565 117.160023 
L 180.52132 117.160023 
L 180.52132 116.635776 
L 181.235598 116.635776 
L 181.341993 113.490289 
L 181.961209 113.490289 
L 182.029283 110.869051 
L 182.343444 110.869051 
L 182.393403 109.820555 
L 182.695593 109.820555 
L 182.695593 109.296308 
L 182.944316 109.296308 
L 182.960412 107.723564 
L 183.420779 107.723564 
L 183.420779 106.150821 
L 184.216596 106.150821 
L 184.216596 105.626573 
L 184.355616 105.626573 
L 184.355616 104.578078 
L 184.862347 104.578078 
L 184.862347 104.05383 
L 185.10075 104.05383 
L 185.10075 103.529583 
L 185.298485 103.529583 
L 185.382537 101.956839 
L 185.517096 101.956839 
L 185.517096 101.432592 
L 186.09427 101.432592 
L 186.09427 100.908344 
L 187.972181 100.908344 
L 188.028183 99.859849 
L 188.087984 99.859849 
L 188.087984 99.335601 
L 188.301559 99.335601 
L 188.301559 98.811353 
L 188.578392 98.811353 
L 188.617027 97.762858 
L 188.736246 97.762858 
L 188.778352 96.190115 
L 189.070238 96.190115 
L 189.178896 94.093124 
L 189.190098 94.093124 
L 189.190098 93.044628 
L 189.368335 93.044628 
L 189.372029 91.996133 
L 189.610433 91.996133 
L 189.661351 90.42339 
L 189.730215 90.42339 
L 189.798803 88.850646 
L 189.902966 88.850646 
L 189.949456 86.229408 
L 190.066906 86.229408 
L 190.158881 85.180912 
L 190.232811 85.180912 
L 190.313418 83.083922 
L 190.355325 83.083922 
L 190.358812 81.511178 
L 190.518482 81.511178 
L 190.518482 79.414188 
L 190.714297 79.414188 
L 190.714297 78.365692 
L 190.857168 78.365692 
L 190.945021 77.317197 
L 191.039131 77.317197 
L 191.126061 73.123215 
L 191.205915 73.123215 
L 191.205915 72.598967 
L 191.417064 72.598967 
L 191.417064 72.074719 
L 191.722562 72.074719 
L 191.722562 71.550472 
L 192.11113 71.550472 
L 192.11113 71.026224 
L 192.327066 71.026224 
L 192.398446 68.404985 
L 192.50958 68.404985 
L 192.50958 67.35649 
L 192.656649 67.35649 
L 192.656649 66.832242 
L 192.850805 66.832242 
L 192.856837 65.783747 
L 192.997987 65.783747 
L 192.997987 65.259499 
L 193.170589 65.259499 
L 193.170589 64.735251 
L 197.354917 64.735251 
L 197.354917 64.211004 
L 197.927887 64.211004 
L 197.927887 63.686756 
L 202.592644 63.686756 
L 202.69673 62.114013 
L 202.72053 62.114013 
L 202.774807 61.065517 
L 202.845785 61.065517 
L 202.845785 60.54127 
L 202.96176 60.54127 
L 203.033641 58.968526 
L 203.081949 58.968526 
L 203.081949 58.444279 
L 203.453841 58.444279 
L 203.453841 57.920031 
L 203.588426 57.920031 
L 203.588426 56.871536 
L 204.006475 56.871536 
L 204.108634 53.726049 
L 204.177445 53.726049 
L 204.177445 52.677554 
L 204.359091 52.677554 
L 204.413058 51.629058 
L 204.826785 51.629058 
L 204.826785 51.104811 
L 205.681374 51.104811 
L 205.731351 49.532068 
L 205.842209 49.532068 
L 205.842209 49.00782 
L 206.005764 49.00782 
L 206.04641 46.910829 
L 206.228833 46.910829 
L 206.311743 45.338086 
L 206.480469 45.338086 
L 206.480469 44.28959 
L 206.755363 44.28959 
L 206.803657 41.668352 
L 207.060278 41.668352 
L 207.143223 40.095609 
L 207.198298 40.095609 
L 207.198298 39.571361 
L 207.310523 39.571361 
L 207.310523 39.047113 
L 212.455175 39.047113 
L 212.565707 35.377379 
L 212.594425 35.377379 
L 212.672676 33.280388 
L 212.846037 33.280388 
L 212.902498 32.231893 
L 213.073568 32.231893 
L 213.125579 29.086407 
L 213.280674 29.086407 
L 213.310058 28.037911 
L 213.392431 28.037911 
L 213.392431 27.513663 
L 333.168 27.513663 
L 333.168 27.513663 
" style="fill:none;stroke:#ff00ff;stroke-linecap:square;stroke-width:1.5;"/>
   </g>
   <g id="line2d_48">
    <defs>
     <path d="M -0 8.485281 
L 5.091169 0 
L 0 -8.485281 
L -5.091169 -0 
z
" id="m6629fd336a" style="stroke:#ff00ff;stroke-linejoin:miter;stroke-width:1.5;"/>
    </defs>
    <g>
     <use style="fill-opacity:0;stroke:#ff00ff;stroke-linejoin:miter;stroke-width:1.5;" x="105.801534" xlink:href="#m6629fd336a" y="259.231155"/>
     <use style="fill-opacity:0;stroke:#ff00ff;stroke-linejoin:miter;stroke-width:1.5;" x="158.291129" xlink:href="#m6629fd336a" y="229.349035"/>
     <use style="fill-opacity:0;stroke:#ff00ff;stroke-linejoin:miter;stroke-width:1.5;" x="193.170589" xlink:href="#m6629fd336a" y="65.259499"/>
     <use style="fill-opacity:0;stroke:#ff00ff;stroke-linejoin:miter;stroke-width:1.5;" x="213.392431" xlink:href="#m6629fd336a" y="28.037911"/>
     <use style="fill-opacity:0;stroke:#ff00ff;stroke-linejoin:miter;stroke-width:1.5;" x="213.392431" xlink:href="#m6629fd336a" y="27.513663"/>
     <use style="fill-opacity:0;stroke:#ff00ff;stroke-linejoin:miter;stroke-width:1.5;" x="333.168" xlink:href="#m6629fd336a" y="27.513663"/>
    </g>
   </g>
   <g id="line2d_49">
    <path style="fill:none;stroke:#ff00ff;stroke-linecap:square;stroke-width:1.5;"/>
    <g/>
   </g>
   <g id="line2d_50">
    <defs>
     <path d="M 0 1.5 
C 0.397805 1.5 0.77937 1.341951 1.06066 1.06066 
C 1.341951 0.77937 1.5 0.397805 1.5 0 
C 1.5 -0.397805 1.341951 -0.77937 1.06066 -1.06066 
C 0.77937 -1.341951 0.397805 -1.5 0 -1.5 
C -0.397805 -1.5 -0.77937 -1.341951 -1.06066 -1.06066 
C -1.341951 -0.77937 -1.5 -0.397805 -1.5 0 
C -1.5 0.397805 -1.341951 0.77937 -1.06066 1.06066 
C -0.77937 1.341951 -0.397805 1.5 0 1.5 
z
" id="mf7232b994e" style="stroke:#ff7500;"/>
    </defs>
    <g>
     <use style="fill:#ff7500;stroke:#ff7500;" x="209.186567" xlink:href="#mf7232b994e" y="27.513663"/>
     <use style="fill:#ff7500;stroke:#ff7500;" x="209.186567" xlink:href="#mf7232b994e" y="27.513663"/>
    </g>
   </g>
   <g id="line2d_51">
    <path d="M 44.205749 294.88 
L 44.205749 280.725312 
L 56.12 280.725312 
L 56.12 275.482834 
L 63.08939 275.482834 
L 63.08939 270.764605 
L 68.034251 270.764605 
L 68.034251 270.240357 
L 71.869783 270.240357 
L 71.869783 268.667614 
L 75.003641 268.667614 
L 75.003641 268.143366 
L 77.653281 268.143366 
L 77.653281 267.094871 
L 79.948502 267.094871 
L 79.948502 266.570623 
L 83.784035 266.570623 
L 83.784035 264.99788 
L 88.293717 264.99788 
L 88.293717 262.900889 
L 90.753425 262.900889 
L 90.753425 262.376641 
L 95.698286 262.376641 
L 95.698286 261.852394 
L 98.832144 261.852394 
L 98.832144 260.279651 
L 103.231288 260.279651 
L 103.231288 258.18266 
L 110.746395 258.18266 
L 110.746395 257.658412 
L 113.700266 257.658412 
L 113.700266 257.134164 
L 114.866043 257.134164 
L 114.866043 256.609917 
L 115.420563 256.609917 
L 115.420563 256.085669 
L 116.73331 256.085669 
L 116.73331 255.561421 
L 120.568842 255.561421 
L 120.568842 255.037173 
L 124.200956 255.037173 
L 124.200956 253.46443 
L 124.363883 253.46443 
L 124.363883 252.940182 
L 125.913457 252.940182 
L 125.913457 250.843192 
L 130.784069 250.843192 
L 130.784069 250.318944 
L 131.654565 250.318944 
L 131.654565 249.794696 
L 134.213018 249.794696 
L 134.213018 249.270448 
L 134.574897 249.270448 
L 134.574897 248.746201 
L 137.070377 248.746201 
L 137.070377 248.221953 
L 137.377325 248.221953 
L 137.377325 247.697705 
L 138.974042 247.697705 
L 138.974042 247.173458 
L 140.242905 247.173458 
L 140.307161 246.124962 
L 142.18857 246.124962 
L 142.18857 245.600714 
L 142.809574 245.600714 
L 142.809574 245.076467 
L 143.084598 245.076467 
L 143.084598 244.027971 
L 144.142694 244.027971 
L 144.142694 243.503724 
L 144.447825 243.503724 
L 144.548344 242.455228 
L 144.747635 242.455228 
L 144.747635 241.93098 
L 145.37982 241.93098 
L 145.37982 241.406733 
L 146.081494 241.406733 
L 146.081494 240.882485 
L 147.615255 240.882485 
L 147.615255 240.358237 
L 148.029459 240.358237 
L 148.029459 239.309742 
L 148.433916 239.309742 
L 148.433916 238.261246 
L 149.367465 238.261246 
L 149.367465 237.736999 
L 150.216915 237.736999 
L 150.216915 237.212751 
L 150.991943 237.212751 
L 151.060698 235.640008 
L 151.700505 235.640008 
L 151.700505 235.11576 
L 152.157156 235.11576 
L 152.157156 234.591512 
L 152.444438 234.591512 
L 152.444438 234.067265 
L 153.666169 234.067265 
L 153.754391 233.018769 
L 154.274423 233.018769 
L 154.274423 232.494521 
L 154.444329 232.494521 
L 154.472484 230.921778 
L 154.998849 230.921778 
L 154.998849 230.397531 
L 155.215743 230.397531 
L 155.215743 229.873283 
L 155.720156 229.873283 
L 155.720156 229.349035 
L 155.954019 229.349035 
L 155.954019 228.824787 
L 156.956555 228.824787 
L 156.956555 227.252044 
L 157.294071 227.252044 
L 157.294071 226.727797 
L 157.972811 226.727797 
L 157.972811 226.203549 
L 158.448103 226.203549 
L 158.448103 225.679301 
L 158.647844 225.679301 
L 158.647844 225.155053 
L 158.823464 225.155053 
L 158.823464 223.58231 
L 160.126894 223.58231 
L 160.227826 222.009567 
L 160.782346 222.009567 
L 160.821278 219.912576 
L 161.931822 219.912576 
L 162.040842 218.864081 
L 162.310402 218.864081 
L 162.363811 217.815585 
L 162.957786 217.815585 
L 163.009223 216.76709 
L 163.24725 216.76709 
L 163.24725 216.242842 
L 163.565102 216.242842 
L 163.565102 215.718594 
L 163.697196 215.718594 
L 163.730061 214.670099 
L 163.958377 214.670099 
L 163.958377 213.621604 
L 164.071407 213.621604 
L 164.071407 213.097356 
L 164.183699 213.097356 
L 164.263461 211.524613 
L 164.358689 211.524613 
L 164.358689 211.000365 
L 164.484845 211.000365 
L 164.531915 209.95187 
L 164.687893 209.95187 
L 164.687893 209.427622 
L 164.811664 209.427622 
L 164.903911 208.379126 
L 164.94985 208.379126 
L 164.94985 207.854879 
L 165.102097 207.854879 
L 165.102097 206.806383 
L 165.402605 206.806383 
L 165.402605 205.757888 
L 165.550912 205.757888 
L 165.58042 204.709392 
L 165.741817 204.709392 
L 165.741817 204.185145 
L 165.887238 204.185145 
L 165.887238 203.660897 
L 166.045792 203.660897 
L 166.045792 203.136649 
L 166.498896 203.136649 
L 166.554703 201.039658 
L 166.638076 201.039658 
L 166.638076 199.991163 
L 166.899453 199.991163 
L 166.9131 198.942667 
L 167.129994 198.942667 
L 167.129994 197.894172 
L 167.344186 197.894172 
L 167.344186 197.369924 
L 167.751736 197.369924 
L 167.751736 196.845677 
L 167.91981 196.845677 
L 167.984019 194.748686 
L 168.035213 194.748686 
L 168.035213 194.224438 
L 168.263721 194.224438 
L 168.314091 192.651695 
L 168.451851 192.651695 
L 168.451851 191.603199 
L 168.858629 191.603199 
L 168.858629 191.078952 
L 168.980018 191.078952 
L 169.040393 189.506209 
L 169.267901 189.506209 
L 169.267901 188.981961 
L 169.433633 188.981961 
L 169.433633 187.933465 
L 169.562739 187.933465 
L 169.562739 187.409218 
L 169.795022 187.409218 
L 169.795022 186.88497 
L 169.932899 186.88497 
L 170.001425 184.263731 
L 170.058322 184.263731 
L 170.115032 183.215236 
L 170.21664 183.215236 
L 170.21664 182.690988 
L 170.395806 182.690988 
L 170.473608 181.118245 
L 170.704923 181.118245 
L 170.704923 180.593997 
L 170.889924 180.593997 
L 170.889924 180.06975 
L 171.051523 180.06975 
L 171.105054 179.021254 
L 171.211617 179.021254 
L 171.317524 177.448511 
L 171.516967 177.448511 
L 171.621015 175.35152 
L 171.672803 175.35152 
L 171.672803 174.303025 
L 171.857961 174.303025 
L 171.857961 173.254529 
L 172.101776 173.254529 
L 172.101776 172.730281 
L 172.282393 172.730281 
L 172.282393 170.633291 
L 172.92888 170.633291 
L 172.92888 170.109043 
L 173.043854 170.109043 
L 173.120079 169.060547 
L 173.318575 169.060547 
L 173.318575 168.5363 
L 173.468286 168.5363 
L 173.551929 166.963557 
L 173.607466 166.963557 
L 173.607466 165.915061 
L 174.099384 165.915061 
L 174.099384 165.390813 
L 174.304704 165.390813 
L 174.304704 164.866566 
L 174.454901 164.866566 
L 174.533889 163.81807 
L 174.803214 163.81807 
L 174.803214 163.293823 
L 175.212081 163.293823 
L 175.212081 162.769575 
L 175.479353 162.769575 
L 175.479353 162.245327 
L 175.750693 162.245327 
L 175.832079 161.196832 
L 175.985658 161.196832 
L 176.017817 160.148336 
L 178.573107 160.148336 
L 178.573107 159.624089 
L 179.304937 159.624089 
L 179.304937 159.099841 
L 180.309879 159.099841 
L 180.384803 158.051345 
L 180.570695 158.051345 
L 180.570695 157.527098 
L 180.699633 157.527098 
L 180.717974 155.954354 
L 180.88822 155.954354 
L 180.88822 154.905859 
L 181.056796 154.905859 
L 181.158345 152.808868 
L 181.199986 152.808868 
L 181.199986 152.28462 
L 181.347884 152.28462 
L 181.37143 149.663382 
L 181.47699 149.663382 
L 181.57028 147.566391 
L 181.593524 147.566391 
L 181.663067 145.993648 
L 181.749601 145.993648 
L 181.749601 145.4694 
L 181.938458 145.4694 
L 181.98393 143.372409 
L 182.153389 143.372409 
L 182.203903 141.799666 
L 182.454268 141.799666 
L 182.47083 140.751171 
L 182.575354 140.751171 
L 182.624644 137.081437 
L 182.690145 137.081437 
L 182.755398 135.508693 
L 182.809587 135.508693 
L 182.890551 131.838959 
L 182.944316 131.838959 
L 183.029991 129.217721 
L 183.06201 129.217721 
L 183.131179 127.644978 
L 183.184198 127.644978 
L 183.226496 125.547987 
L 183.321286 125.547987 
L 183.389422 123.975244 
L 183.56118 123.975244 
L 183.664446 120.829757 
L 183.797772 120.829757 
L 183.869136 114.014537 
L 183.930071 114.014537 
L 183.985738 112.441794 
L 184.041226 112.441794 
L 184.12663 107.723564 
L 184.176669 107.723564 
L 184.251457 104.578078 
L 184.296174 104.578078 
L 184.404994 101.956839 
L 184.493519 101.956839 
L 184.581591 99.859849 
L 184.62059 99.859849 
L 184.708014 97.23861 
L 184.790176 97.23861 
L 184.828705 95.141619 
L 184.910293 95.141619 
L 184.967652 93.044628 
L 185.105485 93.044628 
L 185.209315 90.947637 
L 185.218724 90.947637 
L 185.218724 89.899142 
L 185.410464 89.899142 
L 185.419762 88.850646 
L 186.205639 88.850646 
L 186.205639 88.326399 
L 191.232451 88.326399 
L 191.325006 87.277903 
L 191.443277 87.277903 
L 191.475986 85.70516 
L 191.563991 85.70516 
L 191.563991 85.180912 
L 191.806111 85.180912 
L 191.806111 84.656665 
L 191.93386 84.656665 
L 191.93386 84.132417 
L 192.302169 84.132417 
L 192.320845 83.083922 
L 192.503425 83.083922 
L 192.503425 82.559674 
L 193.015923 82.559674 
L 193.117208 81.511178 
L 193.13502 81.511178 
L 193.211993 80.462683 
L 193.30332 80.462683 
L 193.32681 79.414188 
L 193.435034 79.414188 
L 193.435034 77.841444 
L 193.606211 77.841444 
L 193.637938 74.17171 
L 193.744227 74.17171 
L 193.795699 72.074719 
L 193.8584 72.074719 
L 193.886825 69.977729 
L 194.06483 69.977729 
L 194.126559 67.880738 
L 194.190857 67.880738 
L 194.285468 66.832242 
L 194.329812 66.832242 
L 194.43192 64.211004 
L 194.552562 64.211004 
L 194.552562 63.686756 
L 194.734655 63.686756 
L 194.734655 62.114013 
L 198.694099 62.114013 
L 198.706978 60.54127 
L 203.308347 60.54127 
L 203.406568 58.444279 
L 203.448957 58.444279 
L 203.541522 56.871536 
L 203.586811 56.871536 
L 203.693092 53.726049 
L 203.790742 53.726049 
L 203.860835 51.104811 
L 203.908462 51.104811 
L 203.941722 48.483572 
L 204.04112 48.483572 
L 204.149328 44.813838 
L 206.869173 44.813838 
L 206.869173 43.241095 
L 207.140596 43.241095 
L 207.140596 42.716847 
L 208.486788 42.716847 
L 208.494074 41.668352 
L 208.656004 41.668352 
L 208.753153 39.047113 
L 208.767499 39.047113 
L 208.82238 35.901627 
L 208.897261 35.901627 
L 208.98952 33.280388 
L 209.028405 33.280388 
L 209.101223 28.562159 
L 209.186567 28.562159 
L 209.186567 27.513663 
L 333.168 27.513663 
L 333.168 27.513663 
" style="fill:none;stroke:#ff7500;stroke-linecap:square;stroke-width:1.5;"/>
   </g>
   <g id="line2d_52">
    <defs>
     <path d="M 0 -6 
L -1.347084 -1.854102 
L -5.706339 -1.854102 
L -2.179628 0.708204 
L -3.526712 4.854102 
L -0 2.291796 
L 3.526712 4.854102 
L 2.179628 0.708204 
L 5.706339 -1.854102 
L 1.347084 -1.854102 
z
" id="m4612d1d0fc" style="stroke:#ff7500;stroke-linejoin:bevel;stroke-width:1.5;"/>
    </defs>
    <g>
     <use style="fill-opacity:0;stroke:#ff7500;stroke-linejoin:bevel;stroke-width:1.5;" x="120.568842" xlink:href="#m4612d1d0fc" y="255.037173"/>
     <use style="fill-opacity:0;stroke:#ff7500;stroke-linejoin:bevel;stroke-width:1.5;" x="166.9131" xlink:href="#m4612d1d0fc" y="199.466915"/>
     <use style="fill-opacity:0;stroke:#ff7500;stroke-linejoin:bevel;stroke-width:1.5;" x="208.897261" xlink:href="#m4612d1d0fc" y="35.901627"/>
     <use style="fill-opacity:0;stroke:#ff7500;stroke-linejoin:bevel;stroke-width:1.5;" x="209.186567" xlink:href="#m4612d1d0fc" y="27.513663"/>
     <use style="fill-opacity:0;stroke:#ff7500;stroke-linejoin:bevel;stroke-width:1.5;" x="209.186567" xlink:href="#m4612d1d0fc" y="27.513663"/>
     <use style="fill-opacity:0;stroke:#ff7500;stroke-linejoin:bevel;stroke-width:1.5;" x="333.168" xlink:href="#m4612d1d0fc" y="27.513663"/>
    </g>
   </g>
   <g id="line2d_53">
    <path style="fill:none;stroke:#ff7500;stroke-linecap:square;stroke-width:1.5;"/>
    <g/>
   </g>
   <g id="line2d_54">
    <path d="M 333.168 27.513663 
L 363.64328 289.532673 
" style="fill:none;stroke:#ff00ff;stroke-linecap:square;stroke-width:1.5;"/>
    <g>
     <use style="fill-opacity:0;stroke:#ff00ff;stroke-linejoin:miter;stroke-width:1.5;" x="333.168" xlink:href="#m6629fd336a" y="27.513663"/>
     <use style="fill-opacity:0;stroke:#ff00ff;stroke-linejoin:miter;stroke-width:1.5;" x="363.64328" xlink:href="#m6629fd336a" y="289.532673"/>
    </g>
   </g>
   <g id="line2d_55">
    <path d="M 333.168 27.513663 
L 363.64328 203.975446 
" style="fill:none;stroke:#000080;stroke-linecap:square;stroke-width:1.5;"/>
    <g>
     <use style="fill-opacity:0;stroke:#000080;stroke-width:1.5;" x="333.168" xlink:href="#mc8d2ddda5f" y="27.513663"/>
     <use style="fill-opacity:0;stroke:#000080;stroke-width:1.5;" x="363.64328" xlink:href="#mc8d2ddda5f" y="203.975446"/>
    </g>
   </g>
   <g id="line2d_56">
    <path d="M 333.168 27.513663 
L 363.64328 118.418218 
" style="fill:none;stroke:#ff7500;stroke-linecap:square;stroke-width:1.5;"/>
    <g>
     <use style="fill-opacity:0;stroke:#ff7500;stroke-linejoin:bevel;stroke-width:1.5;" x="333.168" xlink:href="#m4612d1d0fc" y="27.513663"/>
     <use style="fill-opacity:0;stroke:#ff7500;stroke-linejoin:bevel;stroke-width:1.5;" x="363.64328" xlink:href="#m4612d1d0fc" y="118.418218"/>
    </g>
   </g>
   <g id="line2d_57">
    <path d="M 333.168 294.88 
L 333.168 27.513663 
" style="fill:none;stroke:#000000;stroke-linecap:square;stroke-width:1.5;"/>
   </g>
   <g id="patch_3">
    <path d="M 56.12 294.88 
L 56.12 24.84 
" style="fill:none;stroke:#000000;stroke-linecap:square;stroke-linejoin:miter;stroke-width:0.8;"/>
   </g>
   <g id="patch_4">
    <path d="M 333.168 294.88 
L 333.168 24.84 
" style="fill:none;stroke:#000000;stroke-linecap:square;stroke-linejoin:miter;stroke-width:0.8;"/>
   </g>
   <g id="patch_5">
    <path d="M 56.12 294.88 
L 333.168 294.88 
" style="fill:none;stroke:#000000;stroke-linecap:square;stroke-linejoin:miter;stroke-width:0.8;"/>
   </g>
   <g id="patch_6">
    <path d="M 56.12 24.84 
L 333.168 24.84 
" style="fill:none;stroke:#000000;stroke-linecap:square;stroke-linejoin:miter;stroke-width:0.8;"/>
   </g>
   <g id="text_13">
    <!-- SL-4-10 -->
    <defs>
     <path d="M 53.515625 70.515625 
L 53.515625 60.890625 
Q 47.90625 63.578125 42.921875 64.890625 
Q 37.9375 66.21875 33.296875 66.21875 
Q 25.25 66.21875 20.875 63.09375 
Q 16.5 59.96875 16.5 54.203125 
Q 16.5 49.359375 19.40625 46.890625 
Q 22.3125 44.4375 30.421875 42.921875 
L 36.375 41.703125 
Q 47.40625 39.59375 52.65625 34.296875 
Q 57.90625 29 57.90625 20.125 
Q 57.90625 9.515625 50.796875 4.046875 
Q 43.703125 -1.421875 29.984375 -1.421875 
Q 24.8125 -1.421875 18.96875 -0.25 
Q 13.140625 0.921875 6.890625 3.21875 
L 6.890625 13.375 
Q 12.890625 10.015625 18.65625 8.296875 
Q 24.421875 6.59375 29.984375 6.59375 
Q 38.421875 6.59375 43.015625 9.90625 
Q 47.609375 13.234375 47.609375 19.390625 
Q 47.609375 24.75 44.3125 27.78125 
Q 41.015625 30.8125 33.5 32.328125 
L 27.484375 33.5 
Q 16.453125 35.6875 11.515625 40.375 
Q 6.59375 45.0625 6.59375 53.421875 
Q 6.59375 63.09375 13.40625 68.65625 
Q 20.21875 74.21875 32.171875 74.21875 
Q 37.3125 74.21875 42.625 73.28125 
Q 47.953125 72.359375 53.515625 70.515625 
z
" id="DejaVuSans-53"/>
     <path d="M 9.8125 72.90625 
L 19.671875 72.90625 
L 19.671875 8.296875 
L 55.171875 8.296875 
L 55.171875 0 
L 9.8125 0 
z
" id="DejaVuSans-4c"/>
    </defs>
    <g transform="translate(369.18424 294.223611)scale(0.17 -0.17)">
     <use xlink:href="#DejaVuSans-53"/>
     <use x="63.476562" xlink:href="#DejaVuSans-4c"/>
     <use x="119.173828" xlink:href="#DejaVuSans-2d"/>
     <use x="155.257812" xlink:href="#DejaVuSans-34"/>
     <use x="218.880859" xlink:href="#DejaVuSans-2d"/>
     <use x="254.964844" xlink:href="#DejaVuSans-31"/>
     <use x="318.587891" xlink:href="#DejaVuSans-30"/>
    </g>
   </g>
   <g id="text_14">
    <!-- SL-10 -->
    <g transform="translate(369.18424 208.666383)scale(0.17 -0.17)">
     <use xlink:href="#DejaVuSans-53"/>
     <use x="63.476562" xlink:href="#DejaVuSans-4c"/>
     <use x="119.173828" xlink:href="#DejaVuSans-2d"/>
     <use x="155.257812" xlink:href="#DejaVuSans-31"/>
     <use x="218.880859" xlink:href="#DejaVuSans-30"/>
    </g>
   </g>
   <g id="text_15">
    <!-- R-SHADE-T -->
    <defs>
     <path d="M 44.390625 34.1875 
Q 47.5625 33.109375 50.5625 29.59375 
Q 53.5625 26.078125 56.59375 19.921875 
L 66.609375 0 
L 56 0 
L 46.6875 18.703125 
Q 43.0625 26.03125 39.671875 28.421875 
Q 36.28125 30.8125 30.421875 30.8125 
L 19.671875 30.8125 
L 19.671875 0 
L 9.8125 0 
L 9.8125 72.90625 
L 32.078125 72.90625 
Q 44.578125 72.90625 50.734375 67.671875 
Q 56.890625 62.453125 56.890625 51.90625 
Q 56.890625 45.015625 53.6875 40.46875 
Q 50.484375 35.9375 44.390625 34.1875 
z
M 19.671875 64.796875 
L 19.671875 38.921875 
L 32.078125 38.921875 
Q 39.203125 38.921875 42.84375 42.21875 
Q 46.484375 45.515625 46.484375 51.90625 
Q 46.484375 58.296875 42.84375 61.546875 
Q 39.203125 64.796875 32.078125 64.796875 
z
" id="DejaVuSans-52"/>
     <path d="M 9.8125 72.90625 
L 19.671875 72.90625 
L 19.671875 43.015625 
L 55.515625 43.015625 
L 55.515625 72.90625 
L 65.375 72.90625 
L 65.375 0 
L 55.515625 0 
L 55.515625 34.71875 
L 19.671875 34.71875 
L 19.671875 0 
L 9.8125 0 
z
" id="DejaVuSans-48"/>
     <path d="M 34.1875 63.1875 
L 20.796875 26.90625 
L 47.609375 26.90625 
z
M 28.609375 72.90625 
L 39.796875 72.90625 
L 67.578125 0 
L 57.328125 0 
L 50.6875 18.703125 
L 17.828125 18.703125 
L 11.1875 0 
L 0.78125 0 
z
" id="DejaVuSans-41"/>
     <path d="M 19.671875 64.796875 
L 19.671875 8.109375 
L 31.59375 8.109375 
Q 46.6875 8.109375 53.6875 14.9375 
Q 60.6875 21.78125 60.6875 36.53125 
Q 60.6875 51.171875 53.6875 57.984375 
Q 46.6875 64.796875 31.59375 64.796875 
z
M 9.8125 72.90625 
L 30.078125 72.90625 
Q 51.265625 72.90625 61.171875 64.09375 
Q 71.09375 55.28125 71.09375 36.53125 
Q 71.09375 17.671875 61.125 8.828125 
Q 51.171875 0 30.078125 0 
L 9.8125 0 
z
" id="DejaVuSans-44"/>
     <path d="M 9.8125 72.90625 
L 55.90625 72.90625 
L 55.90625 64.59375 
L 19.671875 64.59375 
L 19.671875 43.015625 
L 54.390625 43.015625 
L 54.390625 34.71875 
L 19.671875 34.71875 
L 19.671875 8.296875 
L 56.78125 8.296875 
L 56.78125 0 
L 9.8125 0 
z
" id="DejaVuSans-45"/>
     <path d="M -0.296875 72.90625 
L 61.375 72.90625 
L 61.375 64.59375 
L 35.5 64.59375 
L 35.5 0 
L 25.59375 0 
L 25.59375 64.59375 
L -0.296875 64.59375 
z
" id="DejaVuSans-54"/>
    </defs>
    <g transform="translate(369.18424 123.109155)scale(0.17 -0.17)">
     <use xlink:href="#DejaVuSans-52"/>
     <use x="69.419922" xlink:href="#DejaVuSans-2d"/>
     <use x="105.503906" xlink:href="#DejaVuSans-53"/>
     <use x="168.980469" xlink:href="#DejaVuSans-48"/>
     <use x="244.175781" xlink:href="#DejaVuSans-41"/>
     <use x="312.583984" xlink:href="#DejaVuSans-44"/>
     <use x="389.585938" xlink:href="#DejaVuSans-45"/>
     <use x="452.769531" xlink:href="#DejaVuSans-2d"/>
     <use x="488.712891" xlink:href="#DejaVuSans-54"/>
    </g>
   </g>
   <g id="text_16">
    <!-- best 2009 -->
    <defs>
     <path d="M 48.6875 27.296875 
Q 48.6875 37.203125 44.609375 42.84375 
Q 40.53125 48.484375 33.40625 48.484375 
Q 26.265625 48.484375 22.1875 42.84375 
Q 18.109375 37.203125 18.109375 27.296875 
Q 18.109375 17.390625 22.1875 11.75 
Q 26.265625 6.109375 33.40625 6.109375 
Q 40.53125 6.109375 44.609375 11.75 
Q 48.6875 17.390625 48.6875 27.296875 
z
M 18.109375 46.390625 
Q 20.953125 51.265625 25.265625 53.625 
Q 29.59375 56 35.59375 56 
Q 45.5625 56 51.78125 48.09375 
Q 58.015625 40.1875 58.015625 27.296875 
Q 58.015625 14.40625 51.78125 6.484375 
Q 45.5625 -1.421875 35.59375 -1.421875 
Q 29.59375 -1.421875 25.265625 0.953125 
Q 20.953125 3.328125 18.109375 8.203125 
L 18.109375 0 
L 9.078125 0 
L 9.078125 75.984375 
L 18.109375 75.984375 
z
" id="DejaVuSans-62"/>
     <path d="M 10.984375 1.515625 
L 10.984375 10.5 
Q 14.703125 8.734375 18.5 7.8125 
Q 22.3125 6.890625 25.984375 6.890625 
Q 35.75 6.890625 40.890625 13.453125 
Q 46.046875 20.015625 46.78125 33.40625 
Q 43.953125 29.203125 39.59375 26.953125 
Q 35.25 24.703125 29.984375 24.703125 
Q 19.046875 24.703125 12.671875 31.3125 
Q 6.296875 37.9375 6.296875 49.421875 
Q 6.296875 60.640625 12.9375 67.421875 
Q 19.578125 74.21875 30.609375 74.21875 
Q 43.265625 74.21875 49.921875 64.515625 
Q 56.59375 54.828125 56.59375 36.375 
Q 56.59375 19.140625 48.40625 8.859375 
Q 40.234375 -1.421875 26.421875 -1.421875 
Q 22.703125 -1.421875 18.890625 -0.6875 
Q 15.09375 0.046875 10.984375 1.515625 
z
M 30.609375 32.421875 
Q 37.25 32.421875 41.125 36.953125 
Q 45.015625 41.5 45.015625 49.421875 
Q 45.015625 57.28125 41.125 61.84375 
Q 37.25 66.40625 30.609375 66.40625 
Q 23.96875 66.40625 20.09375 61.84375 
Q 16.21875 57.28125 16.21875 49.421875 
Q 16.21875 41.5 20.09375 36.953125 
Q 23.96875 32.421875 30.609375 32.421875 
z
" id="DejaVuSans-39"/>
    </defs>
    <g transform="translate(369.18424 37.551928)scale(0.17 -0.17)">
     <use xlink:href="#DejaVuSans-62"/>
     <use x="63.476562" xlink:href="#DejaVuSans-65"/>
     <use x="125" xlink:href="#DejaVuSans-73"/>
     <use x="177.099609" xlink:href="#DejaVuSans-74"/>
     <use x="216.308594" xlink:href="#DejaVuSans-20"/>
     <use x="248.095703" xlink:href="#DejaVuSans-32"/>
     <use x="311.71875" xlink:href="#DejaVuSans-30"/>
     <use x="375.341797" xlink:href="#DejaVuSans-30"/>
     <use x="438.964844" xlink:href="#DejaVuSans-39"/>
    </g>
   </g>
   <g id="text_17">
    <!-- bbob f23, 2-D -->
    <defs>
     <path d="M 40.578125 39.3125 
Q 47.65625 37.796875 51.625 33 
Q 55.609375 28.21875 55.609375 21.1875 
Q 55.609375 10.40625 48.1875 4.484375 
Q 40.765625 -1.421875 27.09375 -1.421875 
Q 22.515625 -1.421875 17.65625 -0.515625 
Q 12.796875 0.390625 7.625 2.203125 
L 7.625 11.71875 
Q 11.71875 9.328125 16.59375 8.109375 
Q 21.484375 6.890625 26.8125 6.890625 
Q 36.078125 6.890625 40.9375 10.546875 
Q 45.796875 14.203125 45.796875 21.1875 
Q 45.796875 27.640625 41.28125 31.265625 
Q 36.765625 34.90625 28.71875 34.90625 
L 20.21875 34.90625 
L 20.21875 43.015625 
L 29.109375 43.015625 
Q 36.375 43.015625 40.234375 45.921875 
Q 44.09375 48.828125 44.09375 54.296875 
Q 44.09375 59.90625 40.109375 62.90625 
Q 36.140625 65.921875 28.71875 65.921875 
Q 24.65625 65.921875 20.015625 65.03125 
Q 15.375 64.15625 9.8125 62.3125 
L 9.8125 71.09375 
Q 15.4375 72.65625 20.34375 73.4375 
Q 25.25 74.21875 29.59375 74.21875 
Q 40.828125 74.21875 47.359375 69.109375 
Q 53.90625 64.015625 53.90625 55.328125 
Q 53.90625 49.265625 50.4375 45.09375 
Q 46.96875 40.921875 40.578125 39.3125 
z
" id="DejaVuSans-33"/>
    </defs>
    <g transform="translate(58.89048 35.290806)scale(0.102 -0.102)">
     <use xlink:href="#DejaVuSans-62"/>
     <use x="63.476562" xlink:href="#DejaVuSans-62"/>
     <use x="126.953125" xlink:href="#DejaVuSans-6f"/>
     <use x="188.134766" xlink:href="#DejaVuSans-62"/>
     <use x="251.611328" xlink:href="#DejaVuSans-20"/>
     <use x="283.398438" xlink:href="#DejaVuSans-66"/>
     <use x="318.603516" xlink:href="#DejaVuSans-32"/>
     <use x="382.226562" xlink:href="#DejaVuSans-33"/>
     <use x="445.849609" xlink:href="#DejaVuSans-2c"/>
     <use x="477.636719" xlink:href="#DejaVuSans-20"/>
     <use x="509.423828" xlink:href="#DejaVuSans-32"/>
     <use x="573.046875" xlink:href="#DejaVuSans-2d"/>
     <use x="609.130859" xlink:href="#DejaVuSans-44"/>
    </g>
    <!-- 51 targets: 100..1e-08 -->
    <defs>
     <path d="M 10.796875 72.90625 
L 49.515625 72.90625 
L 49.515625 64.59375 
L 19.828125 64.59375 
L 19.828125 46.734375 
Q 21.96875 47.46875 24.109375 47.828125 
Q 26.265625 48.1875 28.421875 48.1875 
Q 40.625 48.1875 47.75 41.5 
Q 54.890625 34.8125 54.890625 23.390625 
Q 54.890625 11.625 47.5625 5.09375 
Q 40.234375 -1.421875 26.90625 -1.421875 
Q 22.3125 -1.421875 17.546875 -0.640625 
Q 12.796875 0.140625 7.71875 1.703125 
L 7.71875 11.625 
Q 12.109375 9.234375 16.796875 8.0625 
Q 21.484375 6.890625 26.703125 6.890625 
Q 35.15625 6.890625 40.078125 11.328125 
Q 45.015625 15.765625 45.015625 23.390625 
Q 45.015625 31 40.078125 35.4375 
Q 35.15625 39.890625 26.703125 39.890625 
Q 22.75 39.890625 18.8125 39.015625 
Q 14.890625 38.140625 10.796875 36.28125 
z
" id="DejaVuSans-35"/>
     <path d="M 11.71875 12.40625 
L 22.015625 12.40625 
L 22.015625 0 
L 11.71875 0 
z
M 11.71875 51.703125 
L 22.015625 51.703125 
L 22.015625 39.3125 
L 11.71875 39.3125 
z
" id="DejaVuSans-3a"/>
    </defs>
    <g transform="translate(58.89048 46.712575)scale(0.102 -0.102)">
     <use xlink:href="#DejaVuSans-35"/>
     <use x="63.623047" xlink:href="#DejaVuSans-31"/>
     <use x="127.246094" xlink:href="#DejaVuSans-20"/>
     <use x="159.033203" xlink:href="#DejaVuSans-74"/>
     <use x="198.242188" xlink:href="#DejaVuSans-61"/>
     <use x="259.521484" xlink:href="#DejaVuSans-72"/>
     <use x="300.619141" xlink:href="#DejaVuSans-67"/>
     <use x="364.095703" xlink:href="#DejaVuSans-65"/>
     <use x="425.619141" xlink:href="#DejaVuSans-74"/>
     <use x="464.828125" xlink:href="#DejaVuSans-73"/>
     <use x="516.927734" xlink:href="#DejaVuSans-3a"/>
     <use x="550.619141" xlink:href="#DejaVuSans-20"/>
     <use x="582.40625" xlink:href="#DejaVuSans-31"/>
     <use x="646.029297" xlink:href="#DejaVuSans-30"/>
     <use x="709.652344" xlink:href="#DejaVuSans-30"/>
     <use x="773.275391" xlink:href="#DejaVuSans-2e"/>
     <use x="805.0625" xlink:href="#DejaVuSans-2e"/>
     <use x="836.849609" xlink:href="#DejaVuSans-31"/>
     <use x="900.472656" xlink:href="#DejaVuSans-65"/>
     <use x="961.996094" xlink:href="#DejaVuSans-2d"/>
     <use x="998.080078" xlink:href="#DejaVuSans-30"/>
     <use x="1061.703125" xlink:href="#DejaVuSans-38"/>
    </g>
    <!-- 15 instances -->
    <g transform="translate(58.89048 58.134344)scale(0.102 -0.102)">
     <use xlink:href="#DejaVuSans-31"/>
     <use x="63.623047" xlink:href="#DejaVuSans-35"/>
     <use x="127.246094" xlink:href="#DejaVuSans-20"/>
     <use x="159.033203" xlink:href="#DejaVuSans-69"/>
     <use x="186.816406" xlink:href="#DejaVuSans-6e"/>
     <use x="250.195312" xlink:href="#DejaVuSans-73"/>
     <use x="302.294922" xlink:href="#DejaVuSans-74"/>
     <use x="341.503906" xlink:href="#DejaVuSans-61"/>
     <use x="402.783203" xlink:href="#DejaVuSans-6e"/>
     <use x="466.162109" xlink:href="#DejaVuSans-63"/>
     <use x="521.142578" xlink:href="#DejaVuSans-65"/>
     <use x="582.666016" xlink:href="#DejaVuSans-73"/>
    </g>
   </g>
   <g id="text_18">
    <!-- v2.4 -->
    <g style="fill:#808080;" transform="translate(183.733063 290.099912)scale(0.1 -0.1)">
     <use xlink:href="#DejaVuSans-76"/>
     <use x="59.179688" xlink:href="#DejaVuSans-32"/>
     <use x="122.802734" xlink:href="#DejaVuSans-2e"/>
     <use x="154.589844" xlink:href="#DejaVuSans-34"/>
    </g>
   </g>
   <g id="text_19">
    <!-- 23 Katsuuras -->
    <defs>
     <path d="M 9.8125 72.90625 
L 19.671875 72.90625 
L 19.671875 42.09375 
L 52.390625 72.90625 
L 65.09375 72.90625 
L 28.90625 38.921875 
L 67.671875 0 
L 54.6875 0 
L 19.671875 35.109375 
L 19.671875 0 
L 9.8125 0 
z
" id="DejaVuSans-4b"/>
    </defs>
    <g transform="translate(128.803375 18.84)scale(0.2 -0.2)">
     <use xlink:href="#DejaVuSans-32"/>
     <use x="63.623047" xlink:href="#DejaVuSans-33"/>
     <use x="127.246094" xlink:href="#DejaVuSans-20"/>
     <use x="159.033203" xlink:href="#DejaVuSans-4b"/>
     <use x="224.59375" xlink:href="#DejaVuSans-61"/>
     <use x="285.873047" xlink:href="#DejaVuSans-74"/>
     <use x="325.082031" xlink:href="#DejaVuSans-73"/>
     <use x="377.181641" xlink:href="#DejaVuSans-75"/>
     <use x="440.560547" xlink:href="#DejaVuSans-75"/>
     <use x="503.939453" xlink:href="#DejaVuSans-72"/>
     <use x="545.052734" xlink:href="#DejaVuSans-61"/>
     <use x="606.332031" xlink:href="#DejaVuSans-73"/>
    </g>
   </g>
  </g>
 </g>
 <defs>
  <clipPath id="p57265d0087">
   <rect height="270.04" width="277.048" x="56.12" y="24.84"/>
  </clipPath>
 </defs>
</svg>
