<?xml version="1.0" encoding="utf-8" standalone="no"?>
<!DOCTYPE svg PUBLIC "-//W3C//DTD SVG 1.1//EN"
  "http://www.w3.org/Graphics/SVG/1.1/DTD/svg11.dtd">
<!-- Created with matplotlib (http://matplotlib.org/) -->
<svg height="345.6pt" version="1.1" viewBox="0 0 460.8 345.6" width="460.8pt" xmlns="http://www.w3.org/2000/svg" xmlns:xlink="http://www.w3.org/1999/xlink">
 <defs>
  <style type="text/css">
*{stroke-linecap:butt;stroke-linejoin:round;}
  </style>
 </defs>
 <g id="figure_1">
  <g id="patch_1">
   <path d="M 0 345.6 
L 460.8 345.6 
L 460.8 0 
L 0 0 
z
" style="fill:#ffffff;"/>
  </g>
  <g id="axes_1">
   <g id="patch_2">
    <path d="M 56.12 294.88 
L 333.168 294.88 
L 333.168 24.84 
L 56.12 24.84 
z
" style="fill:#ffffff;"/>
   </g>
   <g id="line2d_1">
    <path d="M 110.782167 294.88 
L 110.782167 289.637523 
L 111.135855 289.637523 
L 111.135855 284.395046 
L 111.855724 284.395046 
L 111.855724 279.152568 
L 116.65731 279.152568 
L 116.65731 273.910091 
L 120.948828 273.910091 
L 120.948828 268.667614 
L 123.396663 268.667614 
L 123.396663 263.425137 
L 126.366778 263.425137 
L 126.366778 258.18266 
L 129.677716 258.18266 
L 129.677716 252.940182 
L 130.411737 252.940182 
L 130.411737 247.697705 
L 131.686367 247.697705 
L 131.686367 242.455228 
L 137.132207 242.455228 
L 137.132207 237.212751 
L 140.818973 237.212751 
L 140.818973 231.970274 
L 143.435674 231.970274 
L 143.435674 226.727797 
L 145.887895 226.727797 
L 145.887895 221.485319 
L 150.378311 221.485319 
L 150.378311 216.242842 
L 154.93872 216.242842 
L 154.93872 211.000365 
L 157.972811 211.000365 
L 157.972811 205.757888 
L 158.709516 205.757888 
L 158.709516 200.515411 
L 159.143705 200.515411 
L 159.143705 195.272933 
L 159.756484 195.272933 
L 159.756484 190.030456 
L 160.320163 190.030456 
L 160.320163 184.787979 
L 160.80377 184.787979 
L 160.80377 179.545502 
L 161.247608 179.545502 
L 161.247608 174.303025 
L 161.641386 174.303025 
L 161.641386 169.060547 
L 162.127562 169.060547 
L 162.127562 163.81807 
L 162.52657 163.81807 
L 162.52657 158.575593 
L 163.007511 158.575593 
L 163.007511 153.333116 
L 163.42196 153.333116 
L 163.42196 148.090639 
L 163.912956 148.090639 
L 163.912956 142.848162 
L 164.303203 142.848162 
L 164.303203 137.605684 
L 164.706516 137.605684 
L 164.706516 132.363207 
L 165.032231 132.363207 
L 165.032231 127.12073 
L 165.456143 127.12073 
L 165.456143 121.878253 
L 165.768084 121.878253 
L 165.768084 116.635776 
L 166.234147 116.635776 
L 166.234147 111.393298 
L 166.477922 111.393298 
L 166.477922 106.150821 
L 166.851602 106.150821 
L 166.851602 100.908344 
L 167.233407 100.908344 
L 167.233407 95.665867 
L 167.579378 95.665867 
L 167.579378 90.42339 
L 167.833393 90.42339 
L 167.833393 85.180912 
L 168.195487 85.180912 
L 168.195487 79.938435 
L 168.521562 79.938435 
L 168.521562 74.695958 
L 168.844004 74.695958 
L 168.844004 69.453481 
L 169.142545 69.453481 
L 169.142545 64.211004 
L 169.431277 64.211004 
L 169.431277 58.968526 
L 169.715238 58.968526 
L 169.715238 53.726049 
L 170.035586 53.726049 
L 170.035586 48.483572 
L 170.375743 48.483572 
L 170.375743 43.241095 
L 170.503524 43.241095 
L 170.503524 37.998618 
L 170.559889 37.998618 
L 170.559889 32.756141 
L 170.656714 32.756141 
L 170.656714 27.513663 
L 333.168 27.513663 
" style="fill:none;stroke:#f5deb3;stroke-linecap:square;stroke-width:4;"/>
   </g>
   <g id="line2d_2">
    <defs>
     <path d="M -0 7.778175 
L 7.778175 0 
L 0 -7.778175 
L -7.778175 -0 
z
" id="mfdeb585764" style="stroke:#f5deb3;stroke-linejoin:miter;stroke-width:1.5;"/>
    </defs>
    <g>
     <use style="fill:#f5deb3;stroke:#f5deb3;stroke-linejoin:miter;stroke-width:1.5;" x="164.706516" xlink:href="#mfdeb585764" y="132.363207"/>
     <use style="fill:#f5deb3;stroke:#f5deb3;stroke-linejoin:miter;stroke-width:1.5;" x="170.656714" xlink:href="#mfdeb585764" y="32.756141"/>
     <use style="fill:#f5deb3;stroke:#f5deb3;stroke-linejoin:miter;stroke-width:1.5;" x="170.656714" xlink:href="#mfdeb585764" y="27.513663"/>
     <use style="fill:#f5deb3;stroke:#f5deb3;stroke-linejoin:miter;stroke-width:1.5;" x="170.656714" xlink:href="#mfdeb585764" y="27.513663"/>
     <use style="fill:#f5deb3;stroke:#f5deb3;stroke-linejoin:miter;stroke-width:1.5;" x="333.168" xlink:href="#mfdeb585764" y="27.513663"/>
    </g>
   </g>
   <g id="line2d_3">
    <path style="fill:none;stroke:#f5deb3;stroke-linecap:square;stroke-width:4;"/>
    <g/>
   </g>
   <g id="line2d_4">
    <path d="M 333.168 27.513663 
L 363.64328 32.86099 
" style="fill:none;stroke:#f5deb3;stroke-linecap:square;stroke-width:4;"/>
    <g>
     <use style="fill:#f5deb3;stroke:#f5deb3;stroke-linejoin:miter;stroke-width:1.5;" x="333.168" xlink:href="#mfdeb585764" y="27.513663"/>
     <use style="fill:#f5deb3;stroke:#f5deb3;stroke-linejoin:miter;stroke-width:1.5;" x="363.64328" xlink:href="#mfdeb585764" y="32.86099"/>
    </g>
   </g>
   <g id="matplotlib.axis_1">
    <g id="xtick_1">
     <g id="line2d_5">
      <path clip-path="url(#pf5de2b298c)" d="M 56.12 294.88 
L 56.12 24.84 
" style="fill:none;stroke:#b0b0b0;stroke-linecap:square;stroke-width:0.8;"/>
     </g>
     <g id="line2d_6">
      <defs>
       <path d="M 0 0 
L 0 3.5 
" id="m70190a87bf" style="stroke:#000000;stroke-width:0.8;"/>
      </defs>
      <g>
       <use style="stroke:#000000;stroke-width:0.8;" x="56.12" xlink:href="#m70190a87bf" y="294.88"/>
      </g>
     </g>
     <g id="text_1">
      <!-- 0 -->
      <defs>
       <path d="M 31.78125 66.40625 
Q 24.171875 66.40625 20.328125 58.90625 
Q 16.5 51.421875 16.5 36.375 
Q 16.5 21.390625 20.328125 13.890625 
Q 24.171875 6.390625 31.78125 6.390625 
Q 39.453125 6.390625 43.28125 13.890625 
Q 47.125 21.390625 47.125 36.375 
Q 47.125 51.421875 43.28125 58.90625 
Q 39.453125 66.40625 31.78125 66.40625 
z
M 31.78125 74.21875 
Q 44.046875 74.21875 50.515625 64.515625 
Q 56.984375 54.828125 56.984375 36.375 
Q 56.984375 17.96875 50.515625 8.265625 
Q 44.046875 -1.421875 31.78125 -1.421875 
Q 19.53125 -1.421875 13.0625 8.265625 
Q 6.59375 17.96875 6.59375 36.375 
Q 6.59375 54.828125 13.0625 64.515625 
Q 19.53125 74.21875 31.78125 74.21875 
z
" id="DejaVuSans-30"/>
      </defs>
      <g transform="translate(49.7575 317.076875)scale(0.2 -0.2)">
       <use xlink:href="#DejaVuSans-30"/>
      </g>
     </g>
    </g>
    <g id="xtick_2">
     <g id="line2d_7">
      <path clip-path="url(#pf5de2b298c)" d="M 135.276571 294.88 
L 135.276571 24.84 
" style="fill:none;stroke:#b0b0b0;stroke-linecap:square;stroke-width:0.8;"/>
     </g>
     <g id="line2d_8">
      <g>
       <use style="stroke:#000000;stroke-width:0.8;" x="135.276571" xlink:href="#m70190a87bf" y="294.88"/>
      </g>
     </g>
     <g id="text_2">
      <!-- 2 -->
      <defs>
       <path d="M 19.1875 8.296875 
L 53.609375 8.296875 
L 53.609375 0 
L 7.328125 0 
L 7.328125 8.296875 
Q 12.9375 14.109375 22.625 23.890625 
Q 32.328125 33.6875 34.8125 36.53125 
Q 39.546875 41.84375 41.421875 45.53125 
Q 43.3125 49.21875 43.3125 52.78125 
Q 43.3125 58.59375 39.234375 62.25 
Q 35.15625 65.921875 28.609375 65.921875 
Q 23.96875 65.921875 18.8125 64.3125 
Q 13.671875 62.703125 7.8125 59.421875 
L 7.8125 69.390625 
Q 13.765625 71.78125 18.9375 73 
Q 24.125 74.21875 28.421875 74.21875 
Q 39.75 74.21875 46.484375 68.546875 
Q 53.21875 62.890625 53.21875 53.421875 
Q 53.21875 48.921875 51.53125 44.890625 
Q 49.859375 40.875 45.40625 35.40625 
Q 44.1875 33.984375 37.640625 27.21875 
Q 31.109375 20.453125 19.1875 8.296875 
z
" id="DejaVuSans-32"/>
      </defs>
      <g transform="translate(128.914071 317.076875)scale(0.2 -0.2)">
       <use xlink:href="#DejaVuSans-32"/>
      </g>
     </g>
    </g>
    <g id="xtick_3">
     <g id="line2d_9">
      <path clip-path="url(#pf5de2b298c)" d="M 214.433143 294.88 
L 214.433143 24.84 
" style="fill:none;stroke:#b0b0b0;stroke-linecap:square;stroke-width:0.8;"/>
     </g>
     <g id="line2d_10">
      <g>
       <use style="stroke:#000000;stroke-width:0.8;" x="214.433143" xlink:href="#m70190a87bf" y="294.88"/>
      </g>
     </g>
     <g id="text_3">
      <!-- 4 -->
      <defs>
       <path d="M 37.796875 64.3125 
L 12.890625 25.390625 
L 37.796875 25.390625 
z
M 35.203125 72.90625 
L 47.609375 72.90625 
L 47.609375 25.390625 
L 58.015625 25.390625 
L 58.015625 17.1875 
L 47.609375 17.1875 
L 47.609375 0 
L 37.796875 0 
L 37.796875 17.1875 
L 4.890625 17.1875 
L 4.890625 26.703125 
z
" id="DejaVuSans-34"/>
      </defs>
      <g transform="translate(208.070643 317.076875)scale(0.2 -0.2)">
       <use xlink:href="#DejaVuSans-34"/>
      </g>
     </g>
    </g>
    <g id="xtick_4">
     <g id="line2d_11">
      <path clip-path="url(#pf5de2b298c)" d="M 293.589714 294.88 
L 293.589714 24.84 
" style="fill:none;stroke:#b0b0b0;stroke-linecap:square;stroke-width:0.8;"/>
     </g>
     <g id="line2d_12">
      <g>
       <use style="stroke:#000000;stroke-width:0.8;" x="293.589714" xlink:href="#m70190a87bf" y="294.88"/>
      </g>
     </g>
     <g id="text_4">
      <!-- 6 -->
      <defs>
       <path d="M 33.015625 40.375 
Q 26.375 40.375 22.484375 35.828125 
Q 18.609375 31.296875 18.609375 23.390625 
Q 18.609375 15.53125 22.484375 10.953125 
Q 26.375 6.390625 33.015625 6.390625 
Q 39.65625 6.390625 43.53125 10.953125 
Q 47.40625 15.53125 47.40625 23.390625 
Q 47.40625 31.296875 43.53125 35.828125 
Q 39.65625 40.375 33.015625 40.375 
z
M 52.59375 71.296875 
L 52.59375 62.3125 
Q 48.875 64.0625 45.09375 64.984375 
Q 41.3125 65.921875 37.59375 65.921875 
Q 27.828125 65.921875 22.671875 59.328125 
Q 17.53125 52.734375 16.796875 39.40625 
Q 19.671875 43.65625 24.015625 45.921875 
Q 28.375 48.1875 33.59375 48.1875 
Q 44.578125 48.1875 50.953125 41.515625 
Q 57.328125 34.859375 57.328125 23.390625 
Q 57.328125 12.15625 50.6875 5.359375 
Q 44.046875 -1.421875 33.015625 -1.421875 
Q 20.359375 -1.421875 13.671875 8.265625 
Q 6.984375 17.96875 6.984375 36.375 
Q 6.984375 53.65625 15.1875 63.9375 
Q 23.390625 74.21875 37.203125 74.21875 
Q 40.921875 74.21875 44.703125 73.484375 
Q 48.484375 72.75 52.59375 71.296875 
z
" id="DejaVuSans-36"/>
      </defs>
      <g transform="translate(287.227214 317.076875)scale(0.2 -0.2)">
       <use xlink:href="#DejaVuSans-36"/>
      </g>
     </g>
    </g>
    <g id="xtick_5">
     <g id="line2d_13">
      <path clip-path="url(#pf5de2b298c)" d="M 56.12 294.88 
L 56.12 24.84 
" style="fill:none;stroke:#b0b0b0;stroke-linecap:square;stroke-width:0.8;"/>
     </g>
     <g id="line2d_14">
      <defs>
       <path d="M 0 0 
L 0 2 
" id="mf33118c8e4" style="stroke:#000000;stroke-width:0.6;"/>
      </defs>
      <g>
       <use style="stroke:#000000;stroke-width:0.6;" x="56.12" xlink:href="#mf33118c8e4" y="294.88"/>
      </g>
     </g>
    </g>
    <g id="xtick_6">
     <g id="line2d_15">
      <path clip-path="url(#pf5de2b298c)" d="M 95.698286 294.88 
L 95.698286 24.84 
" style="fill:none;stroke:#b0b0b0;stroke-linecap:square;stroke-width:0.8;"/>
     </g>
     <g id="line2d_16">
      <g>
       <use style="stroke:#000000;stroke-width:0.6;" x="95.698286" xlink:href="#mf33118c8e4" y="294.88"/>
      </g>
     </g>
    </g>
    <g id="xtick_7">
     <g id="line2d_17">
      <path clip-path="url(#pf5de2b298c)" d="M 135.276571 294.88 
L 135.276571 24.84 
" style="fill:none;stroke:#b0b0b0;stroke-linecap:square;stroke-width:0.8;"/>
     </g>
     <g id="line2d_18">
      <g>
       <use style="stroke:#000000;stroke-width:0.6;" x="135.276571" xlink:href="#mf33118c8e4" y="294.88"/>
      </g>
     </g>
    </g>
    <g id="xtick_8">
     <g id="line2d_19">
      <path clip-path="url(#pf5de2b298c)" d="M 174.854857 294.88 
L 174.854857 24.84 
" style="fill:none;stroke:#b0b0b0;stroke-linecap:square;stroke-width:0.8;"/>
     </g>
     <g id="line2d_20">
      <g>
       <use style="stroke:#000000;stroke-width:0.6;" x="174.854857" xlink:href="#mf33118c8e4" y="294.88"/>
      </g>
     </g>
    </g>
    <g id="xtick_9">
     <g id="line2d_21">
      <path clip-path="url(#pf5de2b298c)" d="M 214.433143 294.88 
L 214.433143 24.84 
" style="fill:none;stroke:#b0b0b0;stroke-linecap:square;stroke-width:0.8;"/>
     </g>
     <g id="line2d_22">
      <g>
       <use style="stroke:#000000;stroke-width:0.6;" x="214.433143" xlink:href="#mf33118c8e4" y="294.88"/>
      </g>
     </g>
    </g>
    <g id="xtick_10">
     <g id="line2d_23">
      <path clip-path="url(#pf5de2b298c)" d="M 254.011429 294.88 
L 254.011429 24.84 
" style="fill:none;stroke:#b0b0b0;stroke-linecap:square;stroke-width:0.8;"/>
     </g>
     <g id="line2d_24">
      <g>
       <use style="stroke:#000000;stroke-width:0.6;" x="254.011429" xlink:href="#mf33118c8e4" y="294.88"/>
      </g>
     </g>
    </g>
    <g id="xtick_11">
     <g id="line2d_25">
      <path clip-path="url(#pf5de2b298c)" d="M 293.589714 294.88 
L 293.589714 24.84 
" style="fill:none;stroke:#b0b0b0;stroke-linecap:square;stroke-width:0.8;"/>
     </g>
     <g id="line2d_26">
      <g>
       <use style="stroke:#000000;stroke-width:0.6;" x="293.589714" xlink:href="#mf33118c8e4" y="294.88"/>
      </g>
     </g>
    </g>
    <g id="xtick_12">
     <g id="line2d_27">
      <path clip-path="url(#pf5de2b298c)" d="M 333.168 294.88 
L 333.168 24.84 
" style="fill:none;stroke:#b0b0b0;stroke-linecap:square;stroke-width:0.8;"/>
     </g>
     <g id="line2d_28">
      <g>
       <use style="stroke:#000000;stroke-width:0.6;" x="333.168" xlink:href="#mf33118c8e4" y="294.88"/>
      </g>
     </g>
    </g>
    <g id="text_5">
     <!-- log10(# f-evals / dimension) -->
     <defs>
      <path d="M 9.421875 75.984375 
L 18.40625 75.984375 
L 18.40625 0 
L 9.421875 0 
z
" id="DejaVuSans-6c"/>
      <path d="M 30.609375 48.390625 
Q 23.390625 48.390625 19.1875 42.75 
Q 14.984375 37.109375 14.984375 27.296875 
Q 14.984375 17.484375 19.15625 11.84375 
Q 23.34375 6.203125 30.609375 6.203125 
Q 37.796875 6.203125 41.984375 11.859375 
Q 46.1875 17.53125 46.1875 27.296875 
Q 46.1875 37.015625 41.984375 42.703125 
Q 37.796875 48.390625 30.609375 48.390625 
z
M 30.609375 56 
Q 42.328125 56 49.015625 48.375 
Q 55.71875 40.765625 55.71875 27.296875 
Q 55.71875 13.875 49.015625 6.21875 
Q 42.328125 -1.421875 30.609375 -1.421875 
Q 18.84375 -1.421875 12.171875 6.21875 
Q 5.515625 13.875 5.515625 27.296875 
Q 5.515625 40.765625 12.171875 48.375 
Q 18.84375 56 30.609375 56 
z
" id="DejaVuSans-6f"/>
      <path d="M 45.40625 27.984375 
Q 45.40625 37.75 41.375 43.109375 
Q 37.359375 48.484375 30.078125 48.484375 
Q 22.859375 48.484375 18.828125 43.109375 
Q 14.796875 37.75 14.796875 27.984375 
Q 14.796875 18.265625 18.828125 12.890625 
Q 22.859375 7.515625 30.078125 7.515625 
Q 37.359375 7.515625 41.375 12.890625 
Q 45.40625 18.265625 45.40625 27.984375 
z
M 54.390625 6.78125 
Q 54.390625 -7.171875 48.1875 -13.984375 
Q 42 -20.796875 29.203125 -20.796875 
Q 24.46875 -20.796875 20.265625 -20.09375 
Q 16.0625 -19.390625 12.109375 -17.921875 
L 12.109375 -9.1875 
Q 16.0625 -11.328125 19.921875 -12.34375 
Q 23.78125 -13.375 27.78125 -13.375 
Q 36.625 -13.375 41.015625 -8.765625 
Q 45.40625 -4.15625 45.40625 5.171875 
L 45.40625 9.625 
Q 42.625 4.78125 38.28125 2.390625 
Q 33.9375 0 27.875 0 
Q 17.828125 0 11.671875 7.65625 
Q 5.515625 15.328125 5.515625 27.984375 
Q 5.515625 40.671875 11.671875 48.328125 
Q 17.828125 56 27.875 56 
Q 33.9375 56 38.28125 53.609375 
Q 42.625 51.21875 45.40625 46.390625 
L 45.40625 54.6875 
L 54.390625 54.6875 
z
" id="DejaVuSans-67"/>
      <path d="M 12.40625 8.296875 
L 28.515625 8.296875 
L 28.515625 63.921875 
L 10.984375 60.40625 
L 10.984375 69.390625 
L 28.421875 72.90625 
L 38.28125 72.90625 
L 38.28125 8.296875 
L 54.390625 8.296875 
L 54.390625 0 
L 12.40625 0 
z
" id="DejaVuSans-31"/>
      <path d="M 31 75.875 
Q 24.46875 64.65625 21.28125 53.65625 
Q 18.109375 42.671875 18.109375 31.390625 
Q 18.109375 20.125 21.3125 9.0625 
Q 24.515625 -2 31 -13.1875 
L 23.1875 -13.1875 
Q 15.875 -1.703125 12.234375 9.375 
Q 8.59375 20.453125 8.59375 31.390625 
Q 8.59375 42.28125 12.203125 53.3125 
Q 15.828125 64.359375 23.1875 75.875 
z
" id="DejaVuSans-28"/>
      <path d="M 51.125 44 
L 36.921875 44 
L 32.8125 27.6875 
L 47.125 27.6875 
z
M 43.796875 71.78125 
L 38.71875 51.515625 
L 52.984375 51.515625 
L 58.109375 71.78125 
L 65.921875 71.78125 
L 60.890625 51.515625 
L 76.125 51.515625 
L 76.125 44 
L 58.984375 44 
L 54.984375 27.6875 
L 70.515625 27.6875 
L 70.515625 20.21875 
L 53.078125 20.21875 
L 48 0 
L 40.1875 0 
L 45.21875 20.21875 
L 30.90625 20.21875 
L 25.875 0 
L 18.015625 0 
L 23.09375 20.21875 
L 7.71875 20.21875 
L 7.71875 27.6875 
L 24.90625 27.6875 
L 29 44 
L 13.28125 44 
L 13.28125 51.515625 
L 30.90625 51.515625 
L 35.890625 71.78125 
z
" id="DejaVuSans-23"/>
      <path id="DejaVuSans-20"/>
      <path d="M 37.109375 75.984375 
L 37.109375 68.5 
L 28.515625 68.5 
Q 23.6875 68.5 21.796875 66.546875 
Q 19.921875 64.59375 19.921875 59.515625 
L 19.921875 54.6875 
L 34.71875 54.6875 
L 34.71875 47.703125 
L 19.921875 47.703125 
L 19.921875 0 
L 10.890625 0 
L 10.890625 47.703125 
L 2.296875 47.703125 
L 2.296875 54.6875 
L 10.890625 54.6875 
L 10.890625 58.5 
Q 10.890625 67.625 15.140625 71.796875 
Q 19.390625 75.984375 28.609375 75.984375 
z
" id="DejaVuSans-66"/>
      <path d="M 4.890625 31.390625 
L 31.203125 31.390625 
L 31.203125 23.390625 
L 4.890625 23.390625 
z
" id="DejaVuSans-2d"/>
      <path d="M 56.203125 29.59375 
L 56.203125 25.203125 
L 14.890625 25.203125 
Q 15.484375 15.921875 20.484375 11.0625 
Q 25.484375 6.203125 34.421875 6.203125 
Q 39.59375 6.203125 44.453125 7.46875 
Q 49.3125 8.734375 54.109375 11.28125 
L 54.109375 2.78125 
Q 49.265625 0.734375 44.1875 -0.34375 
Q 39.109375 -1.421875 33.890625 -1.421875 
Q 20.796875 -1.421875 13.15625 6.1875 
Q 5.515625 13.8125 5.515625 26.8125 
Q 5.515625 40.234375 12.765625 48.109375 
Q 20.015625 56 32.328125 56 
Q 43.359375 56 49.78125 48.890625 
Q 56.203125 41.796875 56.203125 29.59375 
z
M 47.21875 32.234375 
Q 47.125 39.59375 43.09375 43.984375 
Q 39.0625 48.390625 32.421875 48.390625 
Q 24.90625 48.390625 20.390625 44.140625 
Q 15.875 39.890625 15.1875 32.171875 
z
" id="DejaVuSans-65"/>
      <path d="M 2.984375 54.6875 
L 12.5 54.6875 
L 29.59375 8.796875 
L 46.6875 54.6875 
L 56.203125 54.6875 
L 35.6875 0 
L 23.484375 0 
z
" id="DejaVuSans-76"/>
      <path d="M 34.28125 27.484375 
Q 23.390625 27.484375 19.1875 25 
Q 14.984375 22.515625 14.984375 16.5 
Q 14.984375 11.71875 18.140625 8.90625 
Q 21.296875 6.109375 26.703125 6.109375 
Q 34.1875 6.109375 38.703125 11.40625 
Q 43.21875 16.703125 43.21875 25.484375 
L 43.21875 27.484375 
z
M 52.203125 31.203125 
L 52.203125 0 
L 43.21875 0 
L 43.21875 8.296875 
Q 40.140625 3.328125 35.546875 0.953125 
Q 30.953125 -1.421875 24.3125 -1.421875 
Q 15.921875 -1.421875 10.953125 3.296875 
Q 6 8.015625 6 15.921875 
Q 6 25.140625 12.171875 29.828125 
Q 18.359375 34.515625 30.609375 34.515625 
L 43.21875 34.515625 
L 43.21875 35.40625 
Q 43.21875 41.609375 39.140625 45 
Q 35.0625 48.390625 27.6875 48.390625 
Q 23 48.390625 18.546875 47.265625 
Q 14.109375 46.140625 10.015625 43.890625 
L 10.015625 52.203125 
Q 14.9375 54.109375 19.578125 55.046875 
Q 24.21875 56 28.609375 56 
Q 40.484375 56 46.34375 49.84375 
Q 52.203125 43.703125 52.203125 31.203125 
z
" id="DejaVuSans-61"/>
      <path d="M 44.28125 53.078125 
L 44.28125 44.578125 
Q 40.484375 46.53125 36.375 47.5 
Q 32.28125 48.484375 27.875 48.484375 
Q 21.1875 48.484375 17.84375 46.4375 
Q 14.5 44.390625 14.5 40.28125 
Q 14.5 37.15625 16.890625 35.375 
Q 19.28125 33.59375 26.515625 31.984375 
L 29.59375 31.296875 
Q 39.15625 29.25 43.1875 25.515625 
Q 47.21875 21.78125 47.21875 15.09375 
Q 47.21875 7.46875 41.1875 3.015625 
Q 35.15625 -1.421875 24.609375 -1.421875 
Q 20.21875 -1.421875 15.453125 -0.5625 
Q 10.6875 0.296875 5.421875 2 
L 5.421875 11.28125 
Q 10.40625 8.6875 15.234375 7.390625 
Q 20.0625 6.109375 24.8125 6.109375 
Q 31.15625 6.109375 34.5625 8.28125 
Q 37.984375 10.453125 37.984375 14.40625 
Q 37.984375 18.0625 35.515625 20.015625 
Q 33.0625 21.96875 24.703125 23.78125 
L 21.578125 24.515625 
Q 13.234375 26.265625 9.515625 29.90625 
Q 5.8125 33.546875 5.8125 39.890625 
Q 5.8125 47.609375 11.28125 51.796875 
Q 16.75 56 26.8125 56 
Q 31.78125 56 36.171875 55.265625 
Q 40.578125 54.546875 44.28125 53.078125 
z
" id="DejaVuSans-73"/>
      <path d="M 25.390625 72.90625 
L 33.6875 72.90625 
L 8.296875 -9.28125 
L 0 -9.28125 
z
" id="DejaVuSans-2f"/>
      <path d="M 45.40625 46.390625 
L 45.40625 75.984375 
L 54.390625 75.984375 
L 54.390625 0 
L 45.40625 0 
L 45.40625 8.203125 
Q 42.578125 3.328125 38.25 0.953125 
Q 33.9375 -1.421875 27.875 -1.421875 
Q 17.96875 -1.421875 11.734375 6.484375 
Q 5.515625 14.40625 5.515625 27.296875 
Q 5.515625 40.1875 11.734375 48.09375 
Q 17.96875 56 27.875 56 
Q 33.9375 56 38.25 53.625 
Q 42.578125 51.265625 45.40625 46.390625 
z
M 14.796875 27.296875 
Q 14.796875 17.390625 18.875 11.75 
Q 22.953125 6.109375 30.078125 6.109375 
Q 37.203125 6.109375 41.296875 11.75 
Q 45.40625 17.390625 45.40625 27.296875 
Q 45.40625 37.203125 41.296875 42.84375 
Q 37.203125 48.484375 30.078125 48.484375 
Q 22.953125 48.484375 18.875 42.84375 
Q 14.796875 37.203125 14.796875 27.296875 
z
" id="DejaVuSans-64"/>
      <path d="M 9.421875 54.6875 
L 18.40625 54.6875 
L 18.40625 0 
L 9.421875 0 
z
M 9.421875 75.984375 
L 18.40625 75.984375 
L 18.40625 64.59375 
L 9.421875 64.59375 
z
" id="DejaVuSans-69"/>
      <path d="M 52 44.1875 
Q 55.375 50.25 60.0625 53.125 
Q 64.75 56 71.09375 56 
Q 79.640625 56 84.28125 50.015625 
Q 88.921875 44.046875 88.921875 33.015625 
L 88.921875 0 
L 79.890625 0 
L 79.890625 32.71875 
Q 79.890625 40.578125 77.09375 44.375 
Q 74.3125 48.1875 68.609375 48.1875 
Q 61.625 48.1875 57.5625 43.546875 
Q 53.515625 38.921875 53.515625 30.90625 
L 53.515625 0 
L 44.484375 0 
L 44.484375 32.71875 
Q 44.484375 40.625 41.703125 44.40625 
Q 38.921875 48.1875 33.109375 48.1875 
Q 26.21875 48.1875 22.15625 43.53125 
Q 18.109375 38.875 18.109375 30.90625 
L 18.109375 0 
L 9.078125 0 
L 9.078125 54.6875 
L 18.109375 54.6875 
L 18.109375 46.1875 
Q 21.1875 51.21875 25.484375 53.609375 
Q 29.78125 56 35.6875 56 
Q 41.65625 56 45.828125 52.96875 
Q 50 49.953125 52 44.1875 
z
" id="DejaVuSans-6d"/>
      <path d="M 54.890625 33.015625 
L 54.890625 0 
L 45.90625 0 
L 45.90625 32.71875 
Q 45.90625 40.484375 42.875 44.328125 
Q 39.84375 48.1875 33.796875 48.1875 
Q 26.515625 48.1875 22.3125 43.546875 
Q 18.109375 38.921875 18.109375 30.90625 
L 18.109375 0 
L 9.078125 0 
L 9.078125 54.6875 
L 18.109375 54.6875 
L 18.109375 46.1875 
Q 21.34375 51.125 25.703125 53.5625 
Q 30.078125 56 35.796875 56 
Q 45.21875 56 50.046875 50.171875 
Q 54.890625 44.34375 54.890625 33.015625 
z
" id="DejaVuSans-6e"/>
      <path d="M 8.015625 75.875 
L 15.828125 75.875 
Q 23.140625 64.359375 26.78125 53.3125 
Q 30.421875 42.28125 30.421875 31.390625 
Q 30.421875 20.453125 26.78125 9.375 
Q 23.140625 -1.703125 15.828125 -13.1875 
L 8.015625 -13.1875 
Q 14.5 -2 17.703125 9.0625 
Q 20.90625 20.125 20.90625 31.390625 
Q 20.90625 42.671875 17.703125 53.65625 
Q 14.5 64.65625 8.015625 75.875 
z
" id="DejaVuSans-29"/>
     </defs>
     <g transform="translate(73.803219 338.153594)scale(0.17 -0.17)">
      <use xlink:href="#DejaVuSans-6c"/>
      <use x="27.783203" xlink:href="#DejaVuSans-6f"/>
      <use x="88.964844" xlink:href="#DejaVuSans-67"/>
      <use x="152.441406" xlink:href="#DejaVuSans-31"/>
      <use x="216.064453" xlink:href="#DejaVuSans-30"/>
      <use x="279.6875" xlink:href="#DejaVuSans-28"/>
      <use x="318.701172" xlink:href="#DejaVuSans-23"/>
      <use x="402.490234" xlink:href="#DejaVuSans-20"/>
      <use x="434.277344" xlink:href="#DejaVuSans-66"/>
      <use x="469.404297" xlink:href="#DejaVuSans-2d"/>
      <use x="505.488281" xlink:href="#DejaVuSans-65"/>
      <use x="567.011719" xlink:href="#DejaVuSans-76"/>
      <use x="626.191406" xlink:href="#DejaVuSans-61"/>
      <use x="687.470703" xlink:href="#DejaVuSans-6c"/>
      <use x="715.253906" xlink:href="#DejaVuSans-73"/>
      <use x="767.353516" xlink:href="#DejaVuSans-20"/>
      <use x="799.140625" xlink:href="#DejaVuSans-2f"/>
      <use x="832.832031" xlink:href="#DejaVuSans-20"/>
      <use x="864.619141" xlink:href="#DejaVuSans-64"/>
      <use x="928.095703" xlink:href="#DejaVuSans-69"/>
      <use x="955.878906" xlink:href="#DejaVuSans-6d"/>
      <use x="1053.291016" xlink:href="#DejaVuSans-65"/>
      <use x="1114.814453" xlink:href="#DejaVuSans-6e"/>
      <use x="1178.193359" xlink:href="#DejaVuSans-73"/>
      <use x="1230.292969" xlink:href="#DejaVuSans-69"/>
      <use x="1258.076172" xlink:href="#DejaVuSans-6f"/>
      <use x="1319.257812" xlink:href="#DejaVuSans-6e"/>
      <use x="1382.636719" xlink:href="#DejaVuSans-29"/>
     </g>
    </g>
   </g>
   <g id="matplotlib.axis_2">
    <g id="ytick_1">
     <g id="line2d_29">
      <path clip-path="url(#pf5de2b298c)" d="M 56.12 294.88 
L 333.168 294.88 
" style="fill:none;stroke:#b0b0b0;stroke-linecap:square;stroke-width:0.8;"/>
     </g>
     <g id="line2d_30">
      <defs>
       <path d="M 0 0 
L -3.5 0 
" id="m7593fb1492" style="stroke:#000000;stroke-width:0.8;"/>
      </defs>
      <g>
       <use style="stroke:#000000;stroke-width:0.8;" x="56.12" xlink:href="#m7593fb1492" y="294.88"/>
      </g>
     </g>
     <g id="text_6">
      <!-- 0.0 -->
      <defs>
       <path d="M 10.6875 12.40625 
L 21 12.40625 
L 21 0 
L 10.6875 0 
z
" id="DejaVuSans-2e"/>
      </defs>
      <g transform="translate(23.675 300.95875)scale(0.16 -0.16)">
       <use xlink:href="#DejaVuSans-30"/>
       <use x="63.623047" xlink:href="#DejaVuSans-2e"/>
       <use x="95.410156" xlink:href="#DejaVuSans-30"/>
      </g>
     </g>
    </g>
    <g id="ytick_2">
     <g id="line2d_31">
      <path clip-path="url(#pf5de2b298c)" d="M 56.12 241.406733 
L 333.168 241.406733 
" style="fill:none;stroke:#b0b0b0;stroke-linecap:square;stroke-width:0.8;"/>
     </g>
     <g id="line2d_32">
      <g>
       <use style="stroke:#000000;stroke-width:0.8;" x="56.12" xlink:href="#m7593fb1492" y="241.406733"/>
      </g>
     </g>
     <g id="text_7">
      <!-- 0.2 -->
      <g transform="translate(23.675 247.485483)scale(0.16 -0.16)">
       <use xlink:href="#DejaVuSans-30"/>
       <use x="63.623047" xlink:href="#DejaVuSans-2e"/>
       <use x="95.410156" xlink:href="#DejaVuSans-32"/>
      </g>
     </g>
    </g>
    <g id="ytick_3">
     <g id="line2d_33">
      <path clip-path="url(#pf5de2b298c)" d="M 56.12 187.933465 
L 333.168 187.933465 
" style="fill:none;stroke:#b0b0b0;stroke-linecap:square;stroke-width:0.8;"/>
     </g>
     <g id="line2d_34">
      <g>
       <use style="stroke:#000000;stroke-width:0.8;" x="56.12" xlink:href="#m7593fb1492" y="187.933465"/>
      </g>
     </g>
     <g id="text_8">
      <!-- 0.4 -->
      <g transform="translate(23.675 194.012215)scale(0.16 -0.16)">
       <use xlink:href="#DejaVuSans-30"/>
       <use x="63.623047" xlink:href="#DejaVuSans-2e"/>
       <use x="95.410156" xlink:href="#DejaVuSans-34"/>
      </g>
     </g>
    </g>
    <g id="ytick_4">
     <g id="line2d_35">
      <path clip-path="url(#pf5de2b298c)" d="M 56.12 134.460198 
L 333.168 134.460198 
" style="fill:none;stroke:#b0b0b0;stroke-linecap:square;stroke-width:0.8;"/>
     </g>
     <g id="line2d_36">
      <g>
       <use style="stroke:#000000;stroke-width:0.8;" x="56.12" xlink:href="#m7593fb1492" y="134.460198"/>
      </g>
     </g>
     <g id="text_9">
      <!-- 0.6 -->
      <g transform="translate(23.675 140.538948)scale(0.16 -0.16)">
       <use xlink:href="#DejaVuSans-30"/>
       <use x="63.623047" xlink:href="#DejaVuSans-2e"/>
       <use x="95.410156" xlink:href="#DejaVuSans-36"/>
      </g>
     </g>
    </g>
    <g id="ytick_5">
     <g id="line2d_37">
      <path clip-path="url(#pf5de2b298c)" d="M 56.12 80.986931 
L 333.168 80.986931 
" style="fill:none;stroke:#b0b0b0;stroke-linecap:square;stroke-width:0.8;"/>
     </g>
     <g id="line2d_38">
      <g>
       <use style="stroke:#000000;stroke-width:0.8;" x="56.12" xlink:href="#m7593fb1492" y="80.986931"/>
      </g>
     </g>
     <g id="text_10">
      <!-- 0.8 -->
      <defs>
       <path d="M 31.78125 34.625 
Q 24.75 34.625 20.71875 30.859375 
Q 16.703125 27.09375 16.703125 20.515625 
Q 16.703125 13.921875 20.71875 10.15625 
Q 24.75 6.390625 31.78125 6.390625 
Q 38.8125 6.390625 42.859375 10.171875 
Q 46.921875 13.96875 46.921875 20.515625 
Q 46.921875 27.09375 42.890625 30.859375 
Q 38.875 34.625 31.78125 34.625 
z
M 21.921875 38.8125 
Q 15.578125 40.375 12.03125 44.71875 
Q 8.5 49.078125 8.5 55.328125 
Q 8.5 64.0625 14.71875 69.140625 
Q 20.953125 74.21875 31.78125 74.21875 
Q 42.671875 74.21875 48.875 69.140625 
Q 55.078125 64.0625 55.078125 55.328125 
Q 55.078125 49.078125 51.53125 44.71875 
Q 48 40.375 41.703125 38.8125 
Q 48.828125 37.15625 52.796875 32.3125 
Q 56.78125 27.484375 56.78125 20.515625 
Q 56.78125 9.90625 50.3125 4.234375 
Q 43.84375 -1.421875 31.78125 -1.421875 
Q 19.734375 -1.421875 13.25 4.234375 
Q 6.78125 9.90625 6.78125 20.515625 
Q 6.78125 27.484375 10.78125 32.3125 
Q 14.796875 37.15625 21.921875 38.8125 
z
M 18.3125 54.390625 
Q 18.3125 48.734375 21.84375 45.5625 
Q 25.390625 42.390625 31.78125 42.390625 
Q 38.140625 42.390625 41.71875 45.5625 
Q 45.3125 48.734375 45.3125 54.390625 
Q 45.3125 60.0625 41.71875 63.234375 
Q 38.140625 66.40625 31.78125 66.40625 
Q 25.390625 66.40625 21.84375 63.234375 
Q 18.3125 60.0625 18.3125 54.390625 
z
" id="DejaVuSans-38"/>
      </defs>
      <g transform="translate(23.675 87.065681)scale(0.16 -0.16)">
       <use xlink:href="#DejaVuSans-30"/>
       <use x="63.623047" xlink:href="#DejaVuSans-2e"/>
       <use x="95.410156" xlink:href="#DejaVuSans-38"/>
      </g>
     </g>
    </g>
    <g id="ytick_6">
     <g id="line2d_39">
      <path clip-path="url(#pf5de2b298c)" d="M 56.12 27.513663 
L 333.168 27.513663 
" style="fill:none;stroke:#b0b0b0;stroke-linecap:square;stroke-width:0.8;"/>
     </g>
     <g id="line2d_40">
      <g>
       <use style="stroke:#000000;stroke-width:0.8;" x="56.12" xlink:href="#m7593fb1492" y="27.513663"/>
      </g>
     </g>
     <g id="text_11">
      <!-- 1.0 -->
      <g transform="translate(23.675 33.592413)scale(0.16 -0.16)">
       <use xlink:href="#DejaVuSans-31"/>
       <use x="63.623047" xlink:href="#DejaVuSans-2e"/>
       <use x="95.410156" xlink:href="#DejaVuSans-30"/>
      </g>
     </g>
    </g>
    <g id="text_12">
     <!-- Fraction of function,target pairs -->
     <defs>
      <path d="M 9.8125 72.90625 
L 51.703125 72.90625 
L 51.703125 64.59375 
L 19.671875 64.59375 
L 19.671875 43.109375 
L 48.578125 43.109375 
L 48.578125 34.8125 
L 19.671875 34.8125 
L 19.671875 0 
L 9.8125 0 
z
" id="DejaVuSans-46"/>
      <path d="M 41.109375 46.296875 
Q 39.59375 47.171875 37.8125 47.578125 
Q 36.03125 48 33.890625 48 
Q 26.265625 48 22.1875 43.046875 
Q 18.109375 38.09375 18.109375 28.8125 
L 18.109375 0 
L 9.078125 0 
L 9.078125 54.6875 
L 18.109375 54.6875 
L 18.109375 46.1875 
Q 20.953125 51.171875 25.484375 53.578125 
Q 30.03125 56 36.53125 56 
Q 37.453125 56 38.578125 55.875 
Q 39.703125 55.765625 41.0625 55.515625 
z
" id="DejaVuSans-72"/>
      <path d="M 48.78125 52.59375 
L 48.78125 44.1875 
Q 44.96875 46.296875 41.140625 47.34375 
Q 37.3125 48.390625 33.40625 48.390625 
Q 24.65625 48.390625 19.8125 42.84375 
Q 14.984375 37.3125 14.984375 27.296875 
Q 14.984375 17.28125 19.8125 11.734375 
Q 24.65625 6.203125 33.40625 6.203125 
Q 37.3125 6.203125 41.140625 7.25 
Q 44.96875 8.296875 48.78125 10.40625 
L 48.78125 2.09375 
Q 45.015625 0.34375 40.984375 -0.53125 
Q 36.96875 -1.421875 32.421875 -1.421875 
Q 20.0625 -1.421875 12.78125 6.34375 
Q 5.515625 14.109375 5.515625 27.296875 
Q 5.515625 40.671875 12.859375 48.328125 
Q 20.21875 56 33.015625 56 
Q 37.15625 56 41.109375 55.140625 
Q 45.0625 54.296875 48.78125 52.59375 
z
" id="DejaVuSans-63"/>
      <path d="M 18.3125 70.21875 
L 18.3125 54.6875 
L 36.8125 54.6875 
L 36.8125 47.703125 
L 18.3125 47.703125 
L 18.3125 18.015625 
Q 18.3125 11.328125 20.140625 9.421875 
Q 21.96875 7.515625 27.59375 7.515625 
L 36.8125 7.515625 
L 36.8125 0 
L 27.59375 0 
Q 17.1875 0 13.234375 3.875 
Q 9.28125 7.765625 9.28125 18.015625 
L 9.28125 47.703125 
L 2.6875 47.703125 
L 2.6875 54.6875 
L 9.28125 54.6875 
L 9.28125 70.21875 
z
" id="DejaVuSans-74"/>
      <path d="M 8.5 21.578125 
L 8.5 54.6875 
L 17.484375 54.6875 
L 17.484375 21.921875 
Q 17.484375 14.15625 20.5 10.265625 
Q 23.53125 6.390625 29.59375 6.390625 
Q 36.859375 6.390625 41.078125 11.03125 
Q 45.3125 15.671875 45.3125 23.6875 
L 45.3125 54.6875 
L 54.296875 54.6875 
L 54.296875 0 
L 45.3125 0 
L 45.3125 8.40625 
Q 42.046875 3.421875 37.71875 1 
Q 33.40625 -1.421875 27.6875 -1.421875 
Q 18.265625 -1.421875 13.375 4.4375 
Q 8.5 10.296875 8.5 21.578125 
z
M 31.109375 56 
z
" id="DejaVuSans-75"/>
      <path d="M 11.71875 12.40625 
L 22.015625 12.40625 
L 22.015625 4 
L 14.015625 -11.625 
L 7.71875 -11.625 
L 11.71875 4 
z
" id="DejaVuSans-2c"/>
      <path d="M 18.109375 8.203125 
L 18.109375 -20.796875 
L 9.078125 -20.796875 
L 9.078125 54.6875 
L 18.109375 54.6875 
L 18.109375 46.390625 
Q 20.953125 51.265625 25.265625 53.625 
Q 29.59375 56 35.59375 56 
Q 45.5625 56 51.78125 48.09375 
Q 58.015625 40.1875 58.015625 27.296875 
Q 58.015625 14.40625 51.78125 6.484375 
Q 45.5625 -1.421875 35.59375 -1.421875 
Q 29.59375 -1.421875 25.265625 0.953125 
Q 20.953125 3.328125 18.109375 8.203125 
z
M 48.6875 27.296875 
Q 48.6875 37.203125 44.609375 42.84375 
Q 40.53125 48.484375 33.40625 48.484375 
Q 26.265625 48.484375 22.1875 42.84375 
Q 18.109375 37.203125 18.109375 27.296875 
Q 18.109375 17.390625 22.1875 11.75 
Q 26.265625 6.109375 33.40625 6.109375 
Q 40.53125 6.109375 44.609375 11.75 
Q 48.6875 17.390625 48.6875 27.296875 
z
" id="DejaVuSans-70"/>
     </defs>
     <g transform="translate(16.139531 294.999375)rotate(-90)scale(0.17 -0.17)">
      <use xlink:href="#DejaVuSans-46"/>
      <use x="57.410156" xlink:href="#DejaVuSans-72"/>
      <use x="98.523438" xlink:href="#DejaVuSans-61"/>
      <use x="159.802734" xlink:href="#DejaVuSans-63"/>
      <use x="214.783203" xlink:href="#DejaVuSans-74"/>
      <use x="253.992188" xlink:href="#DejaVuSans-69"/>
      <use x="281.775391" xlink:href="#DejaVuSans-6f"/>
      <use x="342.957031" xlink:href="#DejaVuSans-6e"/>
      <use x="406.335938" xlink:href="#DejaVuSans-20"/>
      <use x="438.123047" xlink:href="#DejaVuSans-6f"/>
      <use x="499.304688" xlink:href="#DejaVuSans-66"/>
      <use x="534.509766" xlink:href="#DejaVuSans-20"/>
      <use x="566.296875" xlink:href="#DejaVuSans-66"/>
      <use x="601.501953" xlink:href="#DejaVuSans-75"/>
      <use x="664.880859" xlink:href="#DejaVuSans-6e"/>
      <use x="728.259766" xlink:href="#DejaVuSans-63"/>
      <use x="783.240234" xlink:href="#DejaVuSans-74"/>
      <use x="822.449219" xlink:href="#DejaVuSans-69"/>
      <use x="850.232422" xlink:href="#DejaVuSans-6f"/>
      <use x="911.414062" xlink:href="#DejaVuSans-6e"/>
      <use x="974.792969" xlink:href="#DejaVuSans-2c"/>
      <use x="1006.580078" xlink:href="#DejaVuSans-74"/>
      <use x="1045.789062" xlink:href="#DejaVuSans-61"/>
      <use x="1107.068359" xlink:href="#DejaVuSans-72"/>
      <use x="1148.166016" xlink:href="#DejaVuSans-67"/>
      <use x="1211.642578" xlink:href="#DejaVuSans-65"/>
      <use x="1273.166016" xlink:href="#DejaVuSans-74"/>
      <use x="1312.375" xlink:href="#DejaVuSans-20"/>
      <use x="1344.162109" xlink:href="#DejaVuSans-70"/>
      <use x="1407.638672" xlink:href="#DejaVuSans-61"/>
      <use x="1468.917969" xlink:href="#DejaVuSans-69"/>
      <use x="1496.701172" xlink:href="#DejaVuSans-72"/>
      <use x="1537.814453" xlink:href="#DejaVuSans-73"/>
     </g>
    </g>
   </g>
   <g id="line2d_41">
    <defs>
     <path d="M 0 1.5 
C 0.397805 1.5 0.77937 1.341951 1.06066 1.06066 
C 1.341951 0.77937 1.5 0.397805 1.5 0 
C 1.5 -0.397805 1.341951 -0.77937 1.06066 -1.06066 
C 0.77937 -1.341951 0.397805 -1.5 0 -1.5 
C -0.397805 -1.5 -0.77937 -1.341951 -1.06066 -1.06066 
C -1.341951 -0.77937 -1.5 -0.397805 -1.5 0 
C -1.5 0.397805 -1.341951 0.77937 -1.06066 1.06066 
C -0.77937 1.341951 -0.397805 1.5 0 1.5 
z
" id="m4046893b10" style="stroke:#f5deb3;"/>
    </defs>
    <g>
     <use style="fill:#f5deb3;stroke:#f5deb3;" x="170.656714" xlink:href="#m4046893b10" y="27.513663"/>
     <use style="fill:#f5deb3;stroke:#f5deb3;" x="170.656714" xlink:href="#m4046893b10" y="27.513663"/>
    </g>
   </g>
   <g id="line2d_42">
    <defs>
     <path d="M 0 1.5 
C 0.397805 1.5 0.77937 1.341951 1.06066 1.06066 
C 1.341951 0.77937 1.5 0.397805 1.5 0 
C 1.5 -0.397805 1.341951 -0.77937 1.06066 -1.06066 
C 0.77937 -1.341951 0.397805 -1.5 0 -1.5 
C -0.397805 -1.5 -0.77937 -1.341951 -1.06066 -1.06066 
C -1.341951 -0.77937 -1.5 -0.397805 -1.5 0 
C -1.5 0.397805 -1.341951 0.77937 -1.06066 1.06066 
C -0.77937 1.341951 -0.397805 1.5 0 1.5 
z
" id="ma7c865a0ec" style="stroke:#000080;"/>
    </defs>
    <g>
     <use style="fill:#000080;stroke:#000080;" x="192.078977" xlink:href="#ma7c865a0ec" y="27.513663"/>
     <use style="fill:#000080;stroke:#000080;" x="192.078977" xlink:href="#ma7c865a0ec" y="27.513663"/>
    </g>
   </g>
   <g id="line2d_43">
    <path d="M 127.430042 294.88 
L 127.430042 294.355752 
L 138.560176 294.355752 
L 138.560176 293.831505 
L 139.235418 293.831505 
L 139.235418 293.307257 
L 140.787817 293.307257 
L 140.787817 292.783009 
L 143.360661 292.783009 
L 143.360661 292.258761 
L 144.462941 292.258761 
L 144.462941 291.734514 
L 145.989576 291.734514 
L 145.989576 291.210266 
L 146.13641 291.210266 
L 146.13641 290.686018 
L 146.493624 290.686018 
L 146.493624 290.161771 
L 147.57328 290.161771 
L 147.57328 289.637523 
L 147.922722 289.637523 
L 147.922722 289.113275 
L 148.293436 289.113275 
L 148.293436 288.589027 
L 149.050315 288.589027 
L 149.050315 288.06478 
L 149.196243 288.06478 
L 149.196243 287.540532 
L 149.551987 287.540532 
L 149.551987 287.016284 
L 151.050402 287.016284 
L 151.094972 285.967789 
L 152.863465 285.967789 
L 152.863465 285.443541 
L 153.482395 285.443541 
L 153.562667 284.395046 
L 153.598224 284.395046 
L 153.64847 283.34655 
L 154.817828 283.34655 
L 154.817828 282.822302 
L 155.123897 282.822302 
L 155.123897 282.298055 
L 155.320495 282.298055 
L 155.320495 281.773807 
L 156.225437 281.773807 
L 156.225437 281.249559 
L 156.555054 281.249559 
L 156.555054 280.725312 
L 157.031864 280.725312 
L 157.031864 280.201064 
L 157.222302 280.201064 
L 157.260616 278.628321 
L 157.460375 278.628321 
L 157.460375 278.104073 
L 157.88077 278.104073 
L 157.88077 277.579825 
L 158.279861 277.579825 
L 158.279861 277.055578 
L 158.407875 277.055578 
L 158.423531 276.007082 
L 158.608082 276.007082 
L 158.71611 274.958587 
L 158.973508 274.958587 
L 159.025392 273.910091 
L 159.147992 273.910091 
L 159.147992 273.385844 
L 159.558827 273.385844 
L 159.558827 272.861596 
L 160.376126 272.861596 
L 160.443837 271.8131 
L 160.627695 271.8131 
L 160.629662 270.764605 
L 160.782346 270.764605 
L 160.813499 269.716109 
L 161.014628 269.716109 
L 161.108582 268.667614 
L 161.224831 268.667614 
L 161.224831 268.143366 
L 161.456871 268.143366 
L 161.456871 267.619119 
L 162.523048 267.619119 
L 162.575801 266.570623 
L 162.733095 266.570623 
L 162.733095 266.046375 
L 162.976664 266.046375 
L 162.976664 265.522128 
L 163.339866 265.522128 
L 163.370068 264.473632 
L 163.473695 264.473632 
L 163.578357 263.425137 
L 163.71528 263.425137 
L 163.739909 262.376641 
L 163.867414 262.376641 
L 163.956757 260.803898 
L 164.071407 260.803898 
L 164.071407 260.279651 
L 164.19329 260.279651 
L 164.228411 259.231155 
L 164.388735 259.231155 
L 164.388735 258.706907 
L 164.666141 258.706907 
L 164.714269 257.658412 
L 165.165641 257.658412 
L 165.165641 257.134164 
L 165.359356 257.134164 
L 165.433856 256.085669 
L 165.617235 256.085669 
L 165.709659 254.512926 
L 165.77683 254.512926 
L 165.77683 253.988678 
L 165.94795 253.988678 
L 166.050096 251.891687 
L 166.238404 251.891687 
L 166.238404 251.367439 
L 166.417652 251.367439 
L 166.417652 250.843192 
L 166.843386 250.843192 
L 166.843386 250.318944 
L 167.111125 250.318944 
L 167.111125 249.794696 
L 167.245454 249.794696 
L 167.249467 248.746201 
L 167.419851 248.746201 
L 167.419851 248.221953 
L 167.539964 248.221953 
L 167.539964 247.697705 
L 167.837271 247.697705 
L 167.837271 247.173458 
L 168.070959 247.173458 
L 168.070959 246.64921 
L 168.208144 246.64921 
L 168.317863 245.600714 
L 168.386866 245.600714 
L 168.386866 245.076467 
L 168.589754 245.076467 
L 168.589754 244.552219 
L 168.800056 244.552219 
L 168.800056 244.027971 
L 168.982437 244.027971 
L 169.047623 242.979476 
L 169.131758 242.979476 
L 169.185628 241.93098 
L 169.258382 241.93098 
L 169.258382 241.406733 
L 169.475993 241.406733 
L 169.576765 238.785494 
L 169.760379 238.785494 
L 169.859502 237.736999 
L 169.915725 237.736999 
L 170.019653 236.164255 
L 170.06173 236.164255 
L 170.130877 235.11576 
L 170.490234 235.11576 
L 170.513484 233.543017 
L 170.685218 233.543017 
L 170.685218 233.018769 
L 170.967682 233.018769 
L 170.967682 232.494521 
L 171.206305 232.494521 
L 171.27524 231.446026 
L 171.332299 231.446026 
L 171.428029 229.349035 
L 171.536785 229.349035 
L 171.536785 228.824787 
L 171.792356 228.824787 
L 171.792356 228.30054 
L 172.057334 228.30054 
L 172.099758 226.727797 
L 172.241419 226.727797 
L 172.333225 225.155053 
L 172.417612 225.155053 
L 172.417612 224.630806 
L 172.584173 224.630806 
L 172.603778 223.058063 
L 172.741362 223.058063 
L 172.849869 220.436824 
L 173.096295 220.436824 
L 173.174183 219.388328 
L 173.218668 219.388328 
L 173.328909 217.291338 
L 173.50737 217.291338 
L 173.527808 215.718594 
L 173.637935 215.718594 
L 173.658218 214.145851 
L 173.802272 214.145851 
L 173.874303 212.573108 
L 173.926996 212.573108 
L 173.984952 211.524613 
L 174.22911 211.524613 
L 174.288724 209.95187 
L 174.446983 209.95187 
L 174.543519 208.903374 
L 174.562761 208.903374 
L 174.62123 207.330631 
L 174.682974 207.330631 
L 174.767835 205.757888 
L 175.038649 205.757888 
L 175.038649 205.23364 
L 175.189338 205.23364 
L 175.279289 203.136649 
L 175.390446 203.136649 
L 175.390446 202.612401 
L 175.600752 202.612401 
L 175.692675 201.563906 
L 175.866147 201.563906 
L 175.952633 199.466915 
L 176.13708 199.466915 
L 176.154619 198.41842 
L 176.254729 198.41842 
L 176.254729 197.894172 
L 176.392024 197.894172 
L 176.487639 195.797181 
L 176.514191 195.797181 
L 176.604473 193.175943 
L 176.738244 193.175943 
L 176.819696 191.078952 
L 176.880914 191.078952 
L 176.99132 190.030456 
L 177.119865 190.030456 
L 177.119865 189.506209 
L 177.235487 189.506209 
L 177.336953 187.409218 
L 177.379301 187.409218 
L 177.47771 185.836474 
L 177.502777 185.836474 
L 177.579227 184.787979 
L 177.630493 184.787979 
L 177.731841 182.690988 
L 177.895357 182.690988 
L 177.955739 181.118245 
L 178.043774 181.118245 
L 178.136331 179.021254 
L 178.219209 179.021254 
L 178.262261 177.448511 
L 178.350147 177.448511 
L 178.397769 175.875768 
L 178.507912 175.875768 
L 178.600775 174.827272 
L 178.622877 174.827272 
L 178.696576 171.681786 
L 178.834853 171.681786 
L 178.894746 170.109043 
L 179.032117 170.109043 
L 179.032117 169.584795 
L 179.200467 169.584795 
L 179.302284 167.487804 
L 179.32284 167.487804 
L 179.431182 165.915061 
L 179.511337 165.915061 
L 179.622408 163.81807 
L 179.65689 163.81807 
L 179.699734 162.769575 
L 179.861058 162.769575 
L 179.963516 161.196832 
L 179.98521 161.196832 
L 179.98521 160.672584 
L 180.12113 160.672584 
L 180.213247 159.099841 
L 180.244681 159.099841 
L 180.327391 157.00285 
L 180.364231 157.00285 
L 180.473042 155.430107 
L 180.504005 155.430107 
L 180.536147 153.857364 
L 180.644492 153.857364 
L 180.690455 152.28462 
L 180.791143 152.28462 
L 180.838537 150.711877 
L 181.003993 150.711877 
L 181.110035 149.663382 
L 181.14643 149.663382 
L 181.239748 148.090639 
L 181.273503 148.090639 
L 181.370842 145.4694 
L 181.4325 145.4694 
L 181.541182 143.896657 
L 181.597008 143.896657 
L 181.663067 142.848162 
L 181.860877 142.848162 
L 181.907696 141.275418 
L 182.033812 141.275418 
L 182.117378 139.178427 
L 182.17249 139.178427 
L 182.27549 137.081437 
L 182.286648 137.081437 
L 182.337328 136.032941 
L 182.424416 136.032941 
L 182.498949 134.460198 
L 182.593991 134.460198 
L 182.696682 130.266216 
L 182.740195 130.266216 
L 182.78739 129.217721 
L 182.865223 129.217721 
L 182.95022 126.072235 
L 183.136489 126.072235 
L 183.136489 125.547987 
L 183.286064 125.547987 
L 183.358532 122.926748 
L 183.48228 122.926748 
L 183.58602 120.829757 
L 183.603078 120.829757 
L 183.603078 120.30551 
L 183.714308 120.30551 
L 183.80339 117.684271 
L 183.864048 117.684271 
L 183.938686 116.635776 
L 183.981696 116.635776 
L 184.076946 113.490289 
L 184.117106 113.490289 
L 184.20363 112.441794 
L 184.248969 112.441794 
L 184.331368 109.820555 
L 184.36995 109.820555 
L 184.46357 108.247812 
L 184.595251 108.247812 
L 184.657557 106.675069 
L 184.710437 106.675069 
L 184.814267 103.529583 
L 184.835438 103.529583 
L 184.926086 101.432592 
L 184.969083 101.432592 
L 185.069944 99.859849 
L 185.082273 99.859849 
L 185.177761 98.811353 
L 185.198019 98.811353 
L 185.25302 97.762858 
L 185.352233 97.762858 
L 185.444844 95.141619 
L 185.479155 95.141619 
L 185.569705 93.568876 
L 185.596409 93.568876 
L 185.675357 90.42339 
L 185.74528 90.42339 
L 185.826273 88.850646 
L 185.859832 88.850646 
L 185.945248 87.277903 
L 186.005102 87.277903 
L 186.071462 84.656665 
L 186.12285 84.656665 
L 186.146926 83.608169 
L 186.239353 83.608169 
L 186.317615 81.511178 
L 186.353751 81.511178 
L 186.386297 80.462683 
L 186.486625 80.462683 
L 186.582027 78.88994 
L 186.665234 78.88994 
L 186.748039 77.317197 
L 186.788435 77.317197 
L 186.865951 74.695958 
L 186.903939 74.695958 
L 187.005537 73.123215 
L 187.042795 73.123215 
L 187.088411 72.074719 
L 187.165429 72.074719 
L 187.250044 68.404985 
L 187.298864 68.404985 
L 187.351285 66.307995 
L 187.439953 66.307995 
L 187.542961 65.259499 
L 187.612655 65.259499 
L 187.674324 62.114013 
L 187.726833 62.114013 
L 187.810354 58.968526 
L 187.863256 58.968526 
L 187.920417 57.395783 
L 187.980994 57.395783 
L 188.053724 55.298792 
L 188.097931 55.298792 
L 188.197081 52.153306 
L 188.222371 52.153306 
L 188.224346 51.104811 
L 188.378819 51.104811 
L 188.467415 49.532068 
L 188.514843 49.532068 
L 188.571429 47.959324 
L 188.658656 47.959324 
L 188.73203 45.338086 
L 188.776058 45.338086 
L 188.866059 43.765343 
L 188.89798 43.765343 
L 188.998673 40.619856 
L 189.012633 40.619856 
L 189.111159 39.047113 
L 189.206886 39.047113 
L 189.315058 37.47437 
L 189.322468 37.47437 
L 189.407448 35.901627 
L 189.442059 35.901627 
L 189.460808 34.853131 
L 189.564112 34.853131 
L 189.626088 33.280388 
L 189.68349 33.280388 
L 189.68349 32.756141 
L 189.804207 32.756141 
L 189.804207 32.231893 
L 189.980142 32.231893 
L 189.980142 31.707645 
L 190.125686 31.707645 
L 190.12922 30.65915 
L 190.446467 30.65915 
L 190.446467 30.134902 
L 190.938953 30.134902 
L 190.938953 29.610654 
L 191.110046 29.610654 
L 191.110046 29.086407 
L 191.698062 29.086407 
L 191.715473 28.037911 
L 192.078977 28.037911 
L 192.078977 27.513663 
L 333.168 27.513663 
L 333.168 27.513663 
" style="fill:none;stroke:#000080;stroke-linecap:square;stroke-width:1.5;"/>
   </g>
   <g id="line2d_44">
    <defs>
     <path d="M 0 6 
C 1.591219 6 3.117479 5.367802 4.242641 4.242641 
C 5.367802 3.117479 6 1.591219 6 0 
C 6 -1.591219 5.367802 -3.117479 4.242641 -4.242641 
C 3.117479 -5.367802 1.591219 -6 0 -6 
C -1.591219 -6 -3.117479 -5.367802 -4.242641 -4.242641 
C -5.367802 -3.117479 -6 -1.591219 -6 0 
C -6 1.591219 -5.367802 3.117479 -4.242641 4.242641 
C -3.117479 5.367802 -1.591219 6 0 6 
z
" id="m00bf200ba8" style="stroke:#000080;stroke-width:1.5;"/>
    </defs>
    <g>
     <use style="fill-opacity:0;stroke:#000080;stroke-width:1.5;" x="168.208144" xlink:href="#m00bf200ba8" y="246.64921"/>
     <use style="fill-opacity:0;stroke:#000080;stroke-width:1.5;" x="187.542961" xlink:href="#m00bf200ba8" y="65.259499"/>
     <use style="fill-opacity:0;stroke:#000080;stroke-width:1.5;" x="192.078977" xlink:href="#m00bf200ba8" y="28.037911"/>
     <use style="fill-opacity:0;stroke:#000080;stroke-width:1.5;" x="192.078977" xlink:href="#m00bf200ba8" y="27.513663"/>
     <use style="fill-opacity:0;stroke:#000080;stroke-width:1.5;" x="333.168" xlink:href="#m00bf200ba8" y="27.513663"/>
    </g>
   </g>
   <g id="line2d_45">
    <path style="fill:none;stroke:#000080;stroke-linecap:square;stroke-width:1.5;"/>
    <g/>
   </g>
   <g id="line2d_46">
    <defs>
     <path d="M 0 1.5 
C 0.397805 1.5 0.77937 1.341951 1.06066 1.06066 
C 1.341951 0.77937 1.5 0.397805 1.5 0 
C 1.5 -0.397805 1.341951 -0.77937 1.06066 -1.06066 
C 0.77937 -1.341951 0.397805 -1.5 0 -1.5 
C -0.397805 -1.5 -0.77937 -1.341951 -1.06066 -1.06066 
C -1.341951 -0.77937 -1.5 -0.397805 -1.5 0 
C -1.5 0.397805 -1.341951 0.77937 -1.06066 1.06066 
C -0.77937 1.341951 -0.397805 1.5 0 1.5 
z
" id="m0812120fe1" style="stroke:#ff00ff;"/>
    </defs>
    <g>
     <use style="fill:#ff00ff;stroke:#ff00ff;" x="218.601099" xlink:href="#m0812120fe1" y="27.513663"/>
     <use style="fill:#ff00ff;stroke:#ff00ff;" x="218.601099" xlink:href="#m0812120fe1" y="27.513663"/>
    </g>
   </g>
   <g id="line2d_47">
    <path d="M 113.426701 294.88 
L 113.426701 294.355752 
L 121.532208 294.355752 
L 121.532208 293.831505 
L 124.34766 293.831505 
L 124.34766 293.307257 
L 129.630036 293.307257 
L 129.689616 292.258761 
L 129.772681 292.258761 
L 129.772681 291.734514 
L 133.36981 291.734514 
L 133.36981 291.210266 
L 136.033161 291.210266 
L 136.049602 290.161771 
L 137.093589 290.161771 
L 137.093589 289.637523 
L 137.354493 289.637523 
L 137.354493 289.113275 
L 137.566421 289.113275 
L 137.626495 288.06478 
L 138.121538 288.06478 
L 138.121538 287.540532 
L 138.503283 287.540532 
L 138.503283 287.016284 
L 140.383954 287.016284 
L 140.447686 285.967789 
L 141.442526 285.967789 
L 141.442526 285.443541 
L 141.751918 285.443541 
L 141.810783 284.395046 
L 142.371552 284.395046 
L 142.479282 283.34655 
L 142.986095 283.34655 
L 143.095508 282.298055 
L 143.344544 282.298055 
L 143.344544 281.773807 
L 143.54227 281.773807 
L 143.54227 281.249559 
L 143.879004 281.249559 
L 143.946604 280.201064 
L 145.081214 280.201064 
L 145.081214 279.676816 
L 145.250419 279.676816 
L 145.250419 279.152568 
L 145.37982 279.152568 
L 145.37982 278.628321 
L 145.626324 278.628321 
L 145.626324 278.104073 
L 146.154676 278.104073 
L 146.154676 277.579825 
L 146.878609 277.579825 
L 146.878609 277.055578 
L 148.321624 277.055578 
L 148.42192 276.007082 
L 149.918859 276.007082 
L 149.918859 275.482834 
L 150.141074 275.482834 
L 150.141074 274.958587 
L 151.112084 274.958587 
L 151.112084 274.434339 
L 151.376843 274.434339 
L 151.376843 273.910091 
L 152.01494 273.910091 
L 152.01494 273.385844 
L 152.412754 273.385844 
L 152.412754 272.861596 
L 152.733224 272.861596 
L 152.733224 272.337348 
L 153.580455 272.337348 
L 153.580455 271.8131 
L 154.506209 271.8131 
L 154.506209 271.288853 
L 154.905834 271.288853 
L 154.905834 270.764605 
L 155.360615 270.764605 
L 155.360615 270.240357 
L 156.248286 270.240357 
L 156.248286 269.716109 
L 157.327461 269.716109 
L 157.341751 268.667614 
L 157.961333 268.667614 
L 157.961333 268.143366 
L 159.512728 268.143366 
L 159.512728 267.619119 
L 160.057921 267.619119 
L 160.057921 267.094871 
L 160.439861 267.094871 
L 160.439861 266.570623 
L 161.137241 266.570623 
L 161.236223 265.522128 
L 161.93729 265.522128 
L 161.93729 264.99788 
L 162.545927 264.99788 
L 162.545927 264.473632 
L 163.30961 264.473632 
L 163.398544 263.425137 
L 163.54686 263.425137 
L 163.54686 262.900889 
L 164.355523 262.900889 
L 164.355523 262.376641 
L 165.153556 262.376641 
L 165.153556 261.852394 
L 165.36682 261.852394 
L 165.36682 261.328146 
L 166.251168 261.328146 
L 166.251168 260.803898 
L 166.504485 260.803898 
L 166.504485 260.279651 
L 166.917192 260.279651 
L 166.917192 259.755403 
L 167.690564 259.755403 
L 167.690564 259.231155 
L 167.946807 259.231155 
L 167.946807 258.706907 
L 168.711821 258.706907 
L 168.775592 257.658412 
L 169.869842 257.658412 
L 169.869842 257.134164 
L 170.570919 257.134164 
L 170.570919 256.609917 
L 171.470986 256.609917 
L 171.497127 255.561421 
L 171.917201 255.561421 
L 171.917201 255.037173 
L 172.049242 255.037173 
L 172.049242 254.512926 
L 172.31032 254.512926 
L 172.31032 253.988678 
L 172.580249 253.988678 
L 172.580249 253.46443 
L 172.837309 253.46443 
L 172.837309 252.940182 
L 173.413232 252.940182 
L 173.413232 252.415935 
L 174.986703 252.415935 
L 174.986703 251.891687 
L 175.238996 251.891687 
L 175.339553 250.843192 
L 175.877487 250.843192 
L 175.877487 250.318944 
L 176.6966 250.318944 
L 176.789004 249.270448 
L 176.922114 249.270448 
L 176.922114 248.746201 
L 177.561615 248.746201 
L 177.561615 248.221953 
L 177.980835 248.221953 
L 177.980835 247.697705 
L 178.097233 247.697705 
L 178.097233 247.173458 
L 178.408256 247.173458 
L 178.408256 246.64921 
L 178.606303 246.64921 
L 178.606303 246.124962 
L 178.915795 246.124962 
L 178.915795 245.600714 
L 179.632175 245.600714 
L 179.632175 245.076467 
L 180.463122 245.076467 
L 180.463122 244.552219 
L 181.252784 244.552219 
L 181.252784 244.027971 
L 181.846006 244.027971 
L 181.846006 243.503724 
L 182.383978 243.503724 
L 182.383978 242.979476 
L 182.530871 242.979476 
L 182.530871 242.455228 
L 182.95934 242.455228 
L 183.011286 240.882485 
L 183.124806 240.882485 
L 183.124806 240.358237 
L 183.286064 240.358237 
L 183.286064 239.83399 
L 184.397596 239.83399 
L 184.397596 239.309742 
L 184.750111 239.309742 
L 184.750111 238.785494 
L 185.141425 238.785494 
L 185.229067 237.212751 
L 185.403952 237.212751 
L 185.403952 236.688503 
L 185.529109 236.688503 
L 185.529109 236.164255 
L 186.236251 236.164255 
L 186.342302 234.591512 
L 186.411325 234.591512 
L 186.411325 234.067265 
L 186.709705 234.067265 
L 186.709705 233.543017 
L 187.095159 233.543017 
L 187.097688 232.494521 
L 187.961761 232.494521 
L 187.980593 231.446026 
L 188.073252 231.446026 
L 188.073252 230.921778 
L 188.272448 230.921778 
L 188.357284 229.873283 
L 188.458849 229.873283 
L 188.550134 228.824787 
L 188.725896 228.824787 
L 188.81654 227.776292 
L 188.912401 227.776292 
L 188.913539 226.727797 
L 189.200546 226.727797 
L 189.200546 226.203549 
L 189.42108 226.203549 
L 189.518031 225.155053 
L 189.641002 225.155053 
L 189.641002 224.630806 
L 189.754433 224.630806 
L 189.859941 222.533815 
L 189.93588 222.533815 
L 190.0186 220.961072 
L 190.234918 220.961072 
L 190.234918 220.436824 
L 190.454445 220.436824 
L 190.454445 219.912576 
L 190.643786 219.912576 
L 190.64893 218.864081 
L 190.868682 218.864081 
L 190.868682 218.339833 
L 191.040137 218.339833 
L 191.115719 216.76709 
L 191.21753 216.76709 
L 191.233777 215.718594 
L 191.577315 215.718594 
L 191.577315 215.194347 
L 191.743165 215.194347 
L 191.743165 214.670099 
L 191.903925 214.670099 
L 191.903925 214.145851 
L 192.191562 214.145851 
L 192.269124 212.573108 
L 192.327066 212.573108 
L 192.36962 210.476117 
L 192.781585 210.476117 
L 192.781585 209.95187 
L 193.053825 209.95187 
L 193.125522 208.903374 
L 193.397672 208.903374 
L 193.482787 207.854879 
L 193.717286 207.854879 
L 193.751385 206.806383 
L 193.921156 206.806383 
L 193.92144 205.757888 
L 194.608754 205.757888 
L 194.714367 204.709392 
L 194.781362 204.709392 
L 194.890477 203.660897 
L 194.997307 203.660897 
L 195.090507 202.088154 
L 195.156054 202.088154 
L 195.175037 201.039658 
L 195.322755 201.039658 
L 195.322755 200.515411 
L 195.472841 200.515411 
L 195.472841 199.991163 
L 195.730657 199.991163 
L 195.802199 198.942667 
L 195.945906 198.942667 
L 195.956233 197.894172 
L 196.059412 197.894172 
L 196.140068 196.321429 
L 196.312834 196.321429 
L 196.358646 195.272933 
L 196.474111 195.272933 
L 196.574237 194.224438 
L 196.680544 194.224438 
L 196.782838 193.175943 
L 196.813049 193.175943 
L 196.813049 192.651695 
L 197.055676 192.651695 
L 197.055676 192.127447 
L 197.167036 192.127447 
L 197.167036 191.603199 
L 197.282808 191.603199 
L 197.282808 191.078952 
L 197.675715 191.078952 
L 197.73553 190.030456 
L 197.993767 190.030456 
L 197.993767 189.506209 
L 198.24223 189.506209 
L 198.350128 187.933465 
L 198.420086 187.933465 
L 198.420086 187.409218 
L 198.741488 187.409218 
L 198.774005 186.360722 
L 198.899856 186.360722 
L 199.009199 185.312227 
L 199.062665 185.312227 
L 199.08115 184.263731 
L 199.230607 184.263731 
L 199.320904 183.215236 
L 199.394863 183.215236 
L 199.489019 182.16674 
L 199.511557 182.16674 
L 199.596523 181.118245 
L 199.885231 181.118245 
L 199.885231 180.593997 
L 200.042781 180.593997 
L 200.075307 178.497006 
L 200.259581 178.497006 
L 200.360437 176.400016 
L 200.527805 176.400016 
L 200.537066 175.35152 
L 200.676347 175.35152 
L 200.730982 174.303025 
L 200.829497 174.303025 
L 200.829497 173.778777 
L 200.988435 173.778777 
L 201.066795 172.206034 
L 201.261887 172.206034 
L 201.360172 169.584795 
L 201.696654 169.584795 
L 201.74455 168.5363 
L 201.821335 168.5363 
L 201.821335 168.012052 
L 201.936941 168.012052 
L 202.034987 165.915061 
L 202.210878 165.915061 
L 202.294148 164.342318 
L 202.432733 164.342318 
L 202.460006 162.769575 
L 202.568152 162.769575 
L 202.660628 161.196832 
L 202.708294 161.196832 
L 202.75922 159.624089 
L 202.972813 159.624089 
L 203.020624 158.051345 
L 203.219301 158.051345 
L 203.278442 157.00285 
L 203.344754 157.00285 
L 203.420927 155.954354 
L 203.657577 155.954354 
L 203.732059 154.381611 
L 203.790901 154.381611 
L 203.887522 153.333116 
L 203.953586 153.333116 
L 204.05653 150.711877 
L 204.067058 150.711877 
L 204.131184 148.614886 
L 204.200217 148.614886 
L 204.249401 147.566391 
L 204.426447 147.566391 
L 204.53578 145.993648 
L 204.719596 145.993648 
L 204.767469 144.945152 
L 204.923301 144.945152 
L 205.00664 143.896657 
L 205.236659 143.896657 
L 205.236659 143.372409 
L 205.35497 143.372409 
L 205.386422 141.275418 
L 205.540371 141.275418 
L 205.586158 139.702675 
L 205.683375 139.702675 
L 205.747313 138.129932 
L 205.908947 138.129932 
L 205.99664 136.557189 
L 206.022314 136.557189 
L 206.077601 135.508693 
L 206.192364 135.508693 
L 206.285531 133.93595 
L 206.364597 133.93595 
L 206.465037 132.363207 
L 206.571684 132.363207 
L 206.677539 131.314712 
L 206.842729 131.314712 
L 206.940954 128.693473 
L 207.085335 128.693473 
L 207.113909 127.644978 
L 207.261677 127.644978 
L 207.261677 127.12073 
L 207.445781 127.12073 
L 207.475695 126.072235 
L 207.586513 126.072235 
L 207.690134 123.450996 
L 207.765415 123.450996 
L 207.82409 122.4025 
L 207.926795 122.4025 
L 208.017659 120.30551 
L 208.094629 120.30551 
L 208.156032 118.732766 
L 208.375286 118.732766 
L 208.447996 117.160023 
L 208.649749 117.160023 
L 208.685086 115.063032 
L 208.813921 115.063032 
L 208.877681 112.966042 
L 208.956695 112.966042 
L 209.04946 110.869051 
L 209.114227 110.869051 
L 209.116218 109.820555 
L 209.243965 109.820555 
L 209.277523 108.77206 
L 209.427441 108.77206 
L 209.507751 106.150821 
L 209.568081 106.150821 
L 209.614327 104.578078 
L 209.751421 104.578078 
L 209.826527 103.005335 
L 209.870851 103.005335 
L 209.967184 100.384096 
L 209.989903 100.384096 
L 210.088118 98.811353 
L 210.245639 98.811353 
L 210.245639 98.287105 
L 210.368557 98.287105 
L 210.368557 97.762858 
L 210.488547 97.762858 
L 210.580198 95.665867 
L 210.632597 95.665867 
L 210.739901 93.568876 
L 210.779064 93.568876 
L 210.887678 90.947637 
L 211.05534 90.947637 
L 211.076353 89.899142 
L 211.21703 89.899142 
L 211.304681 87.802151 
L 211.372182 87.802151 
L 211.372182 87.277903 
L 211.518718 87.277903 
L 211.577268 86.229408 
L 211.660885 86.229408 
L 211.660885 85.70516 
L 211.805491 85.70516 
L 211.838505 84.656665 
L 211.94611 84.656665 
L 212.035071 82.035426 
L 212.232932 82.035426 
L 212.276734 80.986931 
L 212.360709 80.986931 
L 212.401866 78.88994 
L 212.519562 78.88994 
L 212.581699 76.792949 
L 212.653623 76.792949 
L 212.703783 74.17171 
L 212.861771 74.17171 
L 212.949408 72.074719 
L 213.087701 72.074719 
L 213.18261 69.977729 
L 213.248385 69.977729 
L 213.343055 67.880738 
L 213.363737 67.880738 
L 213.456501 65.783747 
L 213.505191 65.783747 
L 213.612618 63.686756 
L 213.64414 63.686756 
L 213.699927 61.589765 
L 213.839364 61.589765 
L 213.839364 61.065517 
L 214.001754 61.065517 
L 214.060698 60.017022 
L 214.113576 60.017022 
L 214.213275 57.920031 
L 214.282427 57.920031 
L 214.345084 55.82304 
L 214.421795 55.82304 
L 214.508949 54.774545 
L 214.579566 54.774545 
L 214.652185 53.201802 
L 214.718837 53.201802 
L 214.768045 52.153306 
L 214.841217 52.153306 
L 214.94005 50.056315 
L 215.010999 50.056315 
L 215.060622 49.00782 
L 215.149552 49.00782 
L 215.228507 46.910829 
L 215.388429 46.910829 
L 215.444027 45.862334 
L 215.518982 45.862334 
L 215.536159 44.813838 
L 215.764431 44.813838 
L 215.807645 43.765343 
L 215.882931 43.765343 
L 215.917258 42.192599 
L 216.028761 42.192599 
L 216.119767 40.619856 
L 216.243665 40.619856 
L 216.243665 40.095609 
L 216.391694 40.095609 
L 216.491634 39.047113 
L 216.609179 39.047113 
L 216.719908 36.950122 
L 216.777443 36.950122 
L 216.829704 35.901627 
L 216.949868 35.901627 
L 216.958106 34.328884 
L 217.064847 34.328884 
L 217.143424 32.756141 
L 217.528785 32.756141 
L 217.571226 31.707645 
L 217.655723 31.707645 
L 217.659 30.65915 
L 217.793184 30.65915 
L 217.793184 30.134902 
L 218.091756 30.134902 
L 218.091756 29.610654 
L 218.258496 29.610654 
L 218.297459 28.562159 
L 218.438414 28.562159 
L 218.438414 28.037911 
L 218.601099 28.037911 
L 218.601099 27.513663 
L 333.168 27.513663 
L 333.168 27.513663 
" style="fill:none;stroke:#ff00ff;stroke-linecap:square;stroke-width:1.5;"/>
   </g>
   <g id="line2d_48">
    <defs>
     <path d="M -0 8.485281 
L 5.091169 0 
L 0 -8.485281 
L -5.091169 -0 
z
" id="m938f8c53a6" style="stroke:#ff00ff;stroke-linejoin:miter;stroke-width:1.5;"/>
    </defs>
    <g>
     <use style="fill-opacity:0;stroke:#ff00ff;stroke-linejoin:miter;stroke-width:1.5;" x="176.922114" xlink:href="#m938f8c53a6" y="249.270448"/>
     <use style="fill-opacity:0;stroke:#ff00ff;stroke-linejoin:miter;stroke-width:1.5;" x="206.880513" xlink:href="#m938f8c53a6" y="130.266216"/>
     <use style="fill-opacity:0;stroke:#ff00ff;stroke-linejoin:miter;stroke-width:1.5;" x="218.601099" xlink:href="#m938f8c53a6" y="28.037911"/>
     <use style="fill-opacity:0;stroke:#ff00ff;stroke-linejoin:miter;stroke-width:1.5;" x="218.601099" xlink:href="#m938f8c53a6" y="27.513663"/>
     <use style="fill-opacity:0;stroke:#ff00ff;stroke-linejoin:miter;stroke-width:1.5;" x="333.168" xlink:href="#m938f8c53a6" y="27.513663"/>
    </g>
   </g>
   <g id="line2d_49">
    <path style="fill:none;stroke:#ff00ff;stroke-linecap:square;stroke-width:1.5;"/>
    <g/>
   </g>
   <g id="line2d_50">
    <defs>
     <path d="M 0 1.5 
C 0.397805 1.5 0.77937 1.341951 1.06066 1.06066 
C 1.341951 0.77937 1.5 0.397805 1.5 0 
C 1.5 -0.397805 1.341951 -0.77937 1.06066 -1.06066 
C 0.77937 -1.341951 0.397805 -1.5 0 -1.5 
C -0.397805 -1.5 -0.77937 -1.341951 -1.06066 -1.06066 
C -1.341951 -0.77937 -1.5 -0.397805 -1.5 0 
C -1.5 0.397805 -1.341951 0.77937 -1.06066 1.06066 
C -0.77937 1.341951 -0.397805 1.5 0 1.5 
z
" id="mcdc670e073" style="stroke:#ff7500;"/>
    </defs>
    <g>
     <use style="fill:#ff7500;stroke:#ff7500;" x="241.166395" xlink:href="#mcdc670e073" y="27.513663"/>
     <use style="fill:#ff7500;stroke:#ff7500;" x="241.166395" xlink:href="#mcdc670e073" y="27.513663"/>
    </g>
   </g>
   <g id="line2d_51">
    <path d="M 110.88904 294.88 
L 110.88904 294.355752 
L 112.707144 294.355752 
L 112.707144 293.831505 
L 113.457313 293.831505 
L 113.457313 293.307257 
L 127.087492 293.307257 
L 127.087492 292.783009 
L 127.484223 292.783009 
L 127.484223 292.258761 
L 128.698042 292.258761 
L 128.698042 291.210266 
L 129.182611 291.210266 
L 129.194858 290.161771 
L 129.353279 290.161771 
L 129.353279 289.637523 
L 134.77073 289.637523 
L 134.77073 289.113275 
L 135.726139 289.113275 
L 135.726139 288.589027 
L 136.008471 288.589027 
L 136.008471 288.06478 
L 136.631228 288.06478 
L 136.631228 287.540532 
L 136.867881 287.540532 
L 136.867881 287.016284 
L 137.453213 287.016284 
L 137.453213 286.492036 
L 138.208716 286.492036 
L 138.208716 285.967789 
L 138.424747 285.967789 
L 138.424747 285.443541 
L 140.003044 285.443541 
L 140.042169 284.395046 
L 140.15254 284.395046 
L 140.230025 283.34655 
L 141.035496 283.34655 
L 141.066206 281.773807 
L 141.490489 281.773807 
L 141.490489 281.249559 
L 142.015238 281.249559 
L 142.044249 280.201064 
L 142.377239 280.201064 
L 142.377239 279.676816 
L 142.881504 279.676816 
L 142.881504 279.152568 
L 144.988658 279.152568 
L 144.988658 278.628321 
L 145.583912 278.628321 
L 145.640438 277.579825 
L 145.989576 277.579825 
L 146.081494 276.53133 
L 146.426367 276.53133 
L 146.489148 274.958587 
L 147.361855 274.958587 
L 147.361855 274.434339 
L 148.049909 274.434339 
L 148.049909 273.910091 
L 148.656323 273.910091 
L 148.656323 273.385844 
L 149.092685 273.385844 
L 149.092685 272.861596 
L 149.390166 272.861596 
L 149.390166 272.337348 
L 150.11572 272.337348 
L 150.11572 271.8131 
L 151.043535 271.8131 
L 151.043535 271.288853 
L 151.48764 271.288853 
L 151.48764 270.764605 
L 152.063555 270.764605 
L 152.063555 270.240357 
L 152.46342 270.240357 
L 152.46342 269.716109 
L 152.74878 269.716109 
L 152.798468 268.667614 
L 153.056994 268.667614 
L 153.056994 268.143366 
L 153.193908 268.143366 
L 153.193908 267.619119 
L 153.874234 267.619119 
L 153.874234 267.094871 
L 154.475297 267.094871 
L 154.475297 266.570623 
L 155.180683 266.570623 
L 155.180683 266.046375 
L 155.712306 266.046375 
L 155.712306 265.522128 
L 156.404869 265.522128 
L 156.404869 264.99788 
L 157.121319 264.99788 
L 157.121319 264.473632 
L 157.843816 264.473632 
L 157.862303 263.425137 
L 158.764393 263.425137 
L 158.764393 262.900889 
L 159.248429 262.900889 
L 159.307986 260.803898 
L 159.933476 260.803898 
L 159.933476 260.279651 
L 160.584379 260.279651 
L 160.584379 259.755403 
L 161.300635 259.755403 
L 161.300635 259.231155 
L 161.853265 259.231155 
L 161.88802 258.18266 
L 162.274704 258.18266 
L 162.274704 257.658412 
L 162.706979 257.658412 
L 162.706979 257.134164 
L 163.603183 257.134164 
L 163.603183 256.609917 
L 164.266644 256.609917 
L 164.266644 256.085669 
L 164.596038 256.085669 
L 164.596038 255.561421 
L 164.90851 255.561421 
L 164.90851 255.037173 
L 165.048964 255.037173 
L 165.048964 254.512926 
L 165.609878 254.512926 
L 165.609878 253.988678 
L 166.272421 253.988678 
L 166.272421 253.46443 
L 167.238762 253.46443 
L 167.238762 252.940182 
L 168.657676 252.940182 
L 168.657676 252.415935 
L 168.824486 252.415935 
L 168.824486 251.891687 
L 169.299988 251.891687 
L 169.299988 251.367439 
L 169.836501 251.367439 
L 169.836501 250.843192 
L 170.400262 250.843192 
L 170.400262 250.318944 
L 172.451251 250.318944 
L 172.521286 248.746201 
L 173.836046 248.746201 
L 173.836046 248.221953 
L 174.030997 248.221953 
L 174.030997 247.697705 
L 174.193422 247.697705 
L 174.193422 247.173458 
L 174.678633 247.173458 
L 174.678633 246.64921 
L 174.81097 246.64921 
L 174.81097 246.124962 
L 175.178377 246.124962 
L 175.269225 245.076467 
L 175.301076 245.076467 
L 175.301076 244.552219 
L 176.299826 244.552219 
L 176.299826 244.027971 
L 176.836552 244.027971 
L 176.836552 243.503724 
L 177.196533 243.503724 
L 177.196533 242.979476 
L 177.377075 242.979476 
L 177.377075 242.455228 
L 178.137041 242.455228 
L 178.240396 241.406733 
L 178.555099 241.406733 
L 178.555099 240.882485 
L 178.96932 240.882485 
L 178.96932 240.358237 
L 179.107441 240.358237 
L 179.107441 239.83399 
L 179.569575 239.83399 
L 179.569575 239.309742 
L 179.749583 239.309742 
L 179.749583 238.785494 
L 179.941156 238.785494 
L 179.941156 238.261246 
L 180.260376 238.261246 
L 180.260376 237.736999 
L 180.669634 237.736999 
L 180.669634 237.212751 
L 180.882169 237.212751 
L 180.965489 236.164255 
L 181.247452 236.164255 
L 181.247452 235.640008 
L 181.379076 235.640008 
L 181.379076 235.11576 
L 181.665958 235.11576 
L 181.736361 234.067265 
L 182.064349 234.067265 
L 182.064349 233.543017 
L 182.419435 233.543017 
L 182.419435 233.018769 
L 182.724434 233.018769 
L 182.735305 231.970274 
L 183.209061 231.970274 
L 183.209061 231.446026 
L 183.695306 231.446026 
L 183.695306 230.921778 
L 184.347702 230.921778 
L 184.347702 230.397531 
L 184.53125 230.397531 
L 184.553262 229.349035 
L 184.810414 229.349035 
L 184.89161 228.30054 
L 185.96237 228.30054 
L 186.028896 227.252044 
L 186.387176 227.252044 
L 186.387176 226.727797 
L 186.658748 226.727797 
L 186.69029 225.679301 
L 186.859967 225.679301 
L 186.859967 225.155053 
L 187.142738 225.155053 
L 187.164169 224.106558 
L 187.264246 224.106558 
L 187.264246 223.58231 
L 187.421346 223.58231 
L 187.421346 223.058063 
L 187.630647 223.058063 
L 187.630647 222.533815 
L 187.79862 222.533815 
L 187.894678 220.436824 
L 187.95735 220.436824 
L 187.95735 219.912576 
L 188.320416 219.912576 
L 188.320416 219.388328 
L 188.542771 219.388328 
L 188.595789 218.339833 
L 188.71669 218.339833 
L 188.71669 217.815585 
L 189.002447 217.815585 
L 189.090147 216.76709 
L 189.165445 216.76709 
L 189.243764 215.194347 
L 189.431021 215.194347 
L 189.431021 214.670099 
L 189.752265 214.670099 
L 189.752265 214.145851 
L 189.889712 214.145851 
L 189.95624 213.097356 
L 190.342065 213.097356 
L 190.342065 212.573108 
L 190.473854 212.573108 
L 190.557479 211.000365 
L 190.767502 211.000365 
L 190.767502 210.476117 
L 191.040137 210.476117 
L 191.064587 209.427622 
L 191.267548 209.427622 
L 191.347408 208.379126 
L 191.491338 208.379126 
L 191.491338 207.854879 
L 191.605555 207.854879 
L 191.697095 206.806383 
L 191.72546 206.806383 
L 191.72546 206.282136 
L 192.042655 206.282136 
L 192.050873 205.23364 
L 192.17651 205.23364 
L 192.280665 204.185145 
L 192.434335 204.185145 
L 192.434335 203.660897 
L 192.585723 203.660897 
L 192.629475 202.612401 
L 192.939865 202.612401 
L 192.939865 202.088154 
L 193.279798 202.088154 
L 193.341475 201.039658 
L 193.415487 201.039658 
L 193.514162 199.466915 
L 193.633903 199.466915 
L 193.714991 198.41842 
L 193.808257 198.41842 
L 193.808257 197.894172 
L 194.269921 197.894172 
L 194.279362 196.845677 
L 194.506873 196.845677 
L 194.594315 195.272933 
L 194.787562 195.272933 
L 194.791873 194.224438 
L 195.005027 194.224438 
L 195.006091 193.175943 
L 195.165021 193.175943 
L 195.263873 192.127447 
L 195.287974 192.127447 
L 195.332158 191.078952 
L 195.476208 191.078952 
L 195.561701 190.030456 
L 195.705381 190.030456 
L 195.705381 189.506209 
L 196.214642 189.506209 
L 196.323929 188.457713 
L 196.381506 188.457713 
L 196.426891 187.409218 
L 196.493402 187.409218 
L 196.493402 186.88497 
L 196.655903 186.88497 
L 196.763389 185.836474 
L 196.839858 185.836474 
L 196.839858 185.312227 
L 197.363736 185.312227 
L 197.409611 183.739484 
L 197.555916 183.739484 
L 197.555916 183.215236 
L 197.751189 183.215236 
L 197.784048 182.16674 
L 197.893502 182.16674 
L 197.893502 181.642493 
L 198.018128 181.642493 
L 198.04513 180.593997 
L 198.139195 180.593997 
L 198.162022 179.545502 
L 198.254791 179.545502 
L 198.322065 177.972759 
L 198.386236 177.972759 
L 198.491716 176.924263 
L 198.60562 176.924263 
L 198.676698 175.35152 
L 198.741273 175.35152 
L 198.741273 174.827272 
L 198.952182 174.827272 
L 199.024161 173.778777 
L 199.07128 173.778777 
L 199.07128 173.254529 
L 199.396512 173.254529 
L 199.396512 172.730281 
L 199.652257 172.730281 
L 199.652257 172.206034 
L 199.827031 172.206034 
L 199.893042 171.157538 
L 200.088578 171.157538 
L 200.143137 170.109043 
L 200.226027 170.109043 
L 200.276823 168.012052 
L 200.370178 168.012052 
L 200.434722 166.439309 
L 200.563087 166.439309 
L 200.563087 165.915061 
L 200.787535 165.915061 
L 200.836512 164.866566 
L 201.084929 164.866566 
L 201.156154 163.293823 
L 201.224862 163.293823 
L 201.251898 161.196832 
L 201.40938 161.196832 
L 201.493148 159.624089 
L 201.526141 159.624089 
L 201.601912 158.575593 
L 201.646817 158.575593 
L 201.738435 157.00285 
L 201.812741 157.00285 
L 201.920041 155.954354 
L 201.992681 155.954354 
L 202.070839 154.381611 
L 202.182506 154.381611 
L 202.203702 153.333116 
L 202.300939 153.333116 
L 202.331723 152.28462 
L 202.510811 152.28462 
L 202.583228 150.711877 
L 202.79833 150.711877 
L 202.885372 149.663382 
L 202.926714 149.663382 
L 202.964105 148.614886 
L 203.136756 148.614886 
L 203.245025 145.993648 
L 203.26133 145.993648 
L 203.271863 144.945152 
L 203.374544 144.945152 
L 203.483118 142.848162 
L 203.580994 142.848162 
L 203.651624 141.799666 
L 203.697426 141.799666 
L 203.72501 140.751171 
L 203.828372 140.751171 
L 203.85511 139.702675 
L 203.963228 139.702675 
L 203.963228 139.178427 
L 204.228562 139.178427 
L 204.337765 138.129932 
L 204.370515 138.129932 
L 204.408593 137.081437 
L 204.504722 137.081437 
L 204.504722 136.557189 
L 204.643055 136.557189 
L 204.734561 135.508693 
L 204.78405 135.508693 
L 204.78405 134.984446 
L 204.914182 134.984446 
L 204.970909 133.411703 
L 205.02626 133.411703 
L 205.13466 131.314712 
L 205.221978 131.314712 
L 205.247955 130.266216 
L 205.379583 130.266216 
L 205.438133 128.693473 
L 205.542101 128.693473 
L 205.630677 126.596482 
L 205.761268 126.596482 
L 205.761268 126.072235 
L 205.887342 126.072235 
L 205.914732 125.023739 
L 206.003238 125.023739 
L 206.003238 124.499491 
L 206.116824 124.499491 
L 206.223984 121.878253 
L 206.233126 121.878253 
L 206.344108 120.829757 
L 206.388767 120.829757 
L 206.402485 119.257014 
L 206.512245 119.257014 
L 206.617924 115.58728 
L 206.634437 115.58728 
L 206.673625 114.538785 
L 206.759795 114.538785 
L 206.847006 112.441794 
L 206.889179 112.441794 
L 206.99615 110.869051 
L 207.132055 110.869051 
L 207.232042 108.247812 
L 207.264286 108.247812 
L 207.344048 106.675069 
L 207.400684 106.675069 
L 207.456102 105.102326 
L 207.54884 105.102326 
L 207.636359 103.529583 
L 207.763135 103.529583 
L 207.828508 101.956839 
L 207.884202 101.956839 
L 207.943602 100.908344 
L 208.131001 100.908344 
L 208.215983 98.287105 
L 208.313803 98.287105 
L 208.327172 96.714362 
L 208.450309 96.714362 
L 208.462964 95.141619 
L 208.571 95.141619 
L 208.65011 93.044628 
L 208.698529 93.044628 
L 208.792575 90.947637 
L 208.810226 90.947637 
L 208.814159 89.899142 
L 208.934224 89.899142 
L 209.036877 87.277903 
L 209.068728 87.277903 
L 209.089851 86.229408 
L 209.29897 86.229408 
L 209.303488 85.180912 
L 209.426061 85.180912 
L 209.502485 83.608169 
L 209.637744 83.608169 
L 209.725106 81.511178 
L 209.82428 81.511178 
L 209.865135 80.462683 
L 209.948452 80.462683 
L 209.993019 79.414188 
L 210.062093 79.414188 
L 210.125702 77.841444 
L 210.218644 77.841444 
L 210.279379 76.268701 
L 210.415959 76.268701 
L 210.416176 75.220206 
L 210.547153 75.220206 
L 210.59847 74.17171 
L 210.722419 74.17171 
L 210.817926 72.598967 
L 210.84262 72.598967 
L 210.950309 70.501976 
L 210.985741 70.501976 
L 211.057641 68.929233 
L 211.110066 68.929233 
L 211.220138 67.35649 
L 211.245297 67.35649 
L 211.293543 65.783747 
L 211.40245 65.783747 
L 211.420381 64.735251 
L 211.538664 64.735251 
L 211.637137 62.638261 
L 211.650379 62.638261 
L 211.650379 62.114013 
L 211.785752 62.114013 
L 211.888705 58.444279 
L 211.957628 58.444279 
L 211.96884 57.395783 
L 212.237913 57.395783 
L 212.294555 55.82304 
L 212.388513 55.82304 
L 212.425064 54.250297 
L 212.646664 54.250297 
L 212.744791 51.629058 
L 212.77482 51.629058 
L 212.77482 51.104811 
L 212.91818 51.104811 
L 212.969072 50.056315 
L 213.038185 50.056315 
L 213.118993 48.483572 
L 213.179559 48.483572 
L 213.285085 45.862334 
L 213.344794 45.862334 
L 213.442395 44.28959 
L 213.541799 44.28959 
L 213.541799 43.765343 
L 213.704501 43.765343 
L 213.704501 43.241095 
L 213.886273 43.241095 
L 213.933585 42.192599 
L 214.048398 42.192599 
L 214.048398 41.668352 
L 214.18871 41.668352 
L 214.297073 40.095609 
L 214.334282 40.095609 
L 214.408373 38.522865 
L 214.656428 38.522865 
L 214.656428 37.998618 
L 214.774113 37.998618 
L 214.774113 37.47437 
L 214.993123 37.47437 
L 215.073875 36.425875 
L 215.165207 36.425875 
L 215.191624 35.377379 
L 216.022337 35.377379 
L 216.022337 34.853131 
L 216.823722 34.853131 
L 216.823722 34.328884 
L 217.178404 34.328884 
L 217.231141 32.756141 
L 217.293616 32.756141 
L 217.293616 32.231893 
L 217.416372 32.231893 
L 217.416372 31.707645 
L 217.650592 31.707645 
L 217.650592 31.183397 
L 218.463721 31.183397 
L 218.463721 30.65915 
L 218.913911 30.65915 
L 218.913911 30.134902 
L 219.242779 30.134902 
L 219.315064 29.086407 
L 229.09401 29.086407 
L 229.09401 28.562159 
L 229.224486 28.562159 
L 229.224486 28.037911 
L 241.166395 28.037911 
L 241.166395 27.513663 
L 333.168 27.513663 
L 333.168 27.513663 
" style="fill:none;stroke:#ff7500;stroke-linecap:square;stroke-width:1.5;"/>
   </g>
   <g id="line2d_52">
    <defs>
     <path d="M 0 -6 
L -1.347084 -1.854102 
L -5.706339 -1.854102 
L -2.179628 0.708204 
L -3.526712 4.854102 
L -0 2.291796 
L 3.526712 4.854102 
L 2.179628 0.708204 
L 5.706339 -1.854102 
L 1.347084 -1.854102 
z
" id="ma3f05c333f" style="stroke:#ff7500;stroke-linejoin:bevel;stroke-width:1.5;"/>
    </defs>
    <g>
     <use style="fill-opacity:0;stroke:#ff7500;stroke-linejoin:bevel;stroke-width:1.5;" x="155.712306" xlink:href="#ma3f05c333f" y="265.522128"/>
     <use style="fill-opacity:0;stroke:#ff7500;stroke-linejoin:bevel;stroke-width:1.5;" x="203.429569" xlink:href="#ma3f05c333f" y="143.372409"/>
     <use style="fill-opacity:0;stroke:#ff7500;stroke-linejoin:bevel;stroke-width:1.5;" x="241.166395" xlink:href="#ma3f05c333f" y="28.037911"/>
     <use style="fill-opacity:0;stroke:#ff7500;stroke-linejoin:bevel;stroke-width:1.5;" x="241.166395" xlink:href="#ma3f05c333f" y="27.513663"/>
     <use style="fill-opacity:0;stroke:#ff7500;stroke-linejoin:bevel;stroke-width:1.5;" x="333.168" xlink:href="#ma3f05c333f" y="27.513663"/>
    </g>
   </g>
   <g id="line2d_53">
    <path style="fill:none;stroke:#ff7500;stroke-linecap:square;stroke-width:1.5;"/>
    <g/>
   </g>
   <g id="line2d_54">
    <path d="M 333.168 27.513663 
L 363.64328 289.532673 
" style="fill:none;stroke:#ff7500;stroke-linecap:square;stroke-width:1.5;"/>
    <g>
     <use style="fill-opacity:0;stroke:#ff7500;stroke-linejoin:bevel;stroke-width:1.5;" x="333.168" xlink:href="#ma3f05c333f" y="27.513663"/>
     <use style="fill-opacity:0;stroke:#ff7500;stroke-linejoin:bevel;stroke-width:1.5;" x="363.64328" xlink:href="#ma3f05c333f" y="289.532673"/>
    </g>
   </g>
   <g id="line2d_55">
    <path d="M 333.168 27.513663 
L 363.64328 203.975446 
" style="fill:none;stroke:#ff00ff;stroke-linecap:square;stroke-width:1.5;"/>
    <g>
     <use style="fill-opacity:0;stroke:#ff00ff;stroke-linejoin:miter;stroke-width:1.5;" x="333.168" xlink:href="#m938f8c53a6" y="27.513663"/>
     <use style="fill-opacity:0;stroke:#ff00ff;stroke-linejoin:miter;stroke-width:1.5;" x="363.64328" xlink:href="#m938f8c53a6" y="203.975446"/>
    </g>
   </g>
   <g id="line2d_56">
    <path d="M 333.168 27.513663 
L 363.64328 118.418218 
" style="fill:none;stroke:#000080;stroke-linecap:square;stroke-width:1.5;"/>
    <g>
     <use style="fill-opacity:0;stroke:#000080;stroke-width:1.5;" x="333.168" xlink:href="#m00bf200ba8" y="27.513663"/>
     <use style="fill-opacity:0;stroke:#000080;stroke-width:1.5;" x="363.64328" xlink:href="#m00bf200ba8" y="118.418218"/>
    </g>
   </g>
   <g id="line2d_57">
    <path d="M 333.168 294.88 
L 333.168 27.513663 
" style="fill:none;stroke:#000000;stroke-linecap:square;stroke-width:1.5;"/>
   </g>
   <g id="patch_3">
    <path d="M 56.12 294.88 
L 56.12 24.84 
" style="fill:none;stroke:#000000;stroke-linecap:square;stroke-linejoin:miter;stroke-width:0.8;"/>
   </g>
   <g id="patch_4">
    <path d="M 333.168 294.88 
L 333.168 24.84 
" style="fill:none;stroke:#000000;stroke-linecap:square;stroke-linejoin:miter;stroke-width:0.8;"/>
   </g>
   <g id="patch_5">
    <path d="M 56.12 294.88 
L 333.168 294.88 
" style="fill:none;stroke:#000000;stroke-linecap:square;stroke-linejoin:miter;stroke-width:0.8;"/>
   </g>
   <g id="patch_6">
    <path d="M 56.12 24.84 
L 333.168 24.84 
" style="fill:none;stroke:#000000;stroke-linecap:square;stroke-linejoin:miter;stroke-width:0.8;"/>
   </g>
   <g id="text_13">
    <!-- R-SHADE-T -->
    <defs>
     <path d="M 44.390625 34.1875 
Q 47.5625 33.109375 50.5625 29.59375 
Q 53.5625 26.078125 56.59375 19.921875 
L 66.609375 0 
L 56 0 
L 46.6875 18.703125 
Q 43.0625 26.03125 39.671875 28.421875 
Q 36.28125 30.8125 30.421875 30.8125 
L 19.671875 30.8125 
L 19.671875 0 
L 9.8125 0 
L 9.8125 72.90625 
L 32.078125 72.90625 
Q 44.578125 72.90625 50.734375 67.671875 
Q 56.890625 62.453125 56.890625 51.90625 
Q 56.890625 45.015625 53.6875 40.46875 
Q 50.484375 35.9375 44.390625 34.1875 
z
M 19.671875 64.796875 
L 19.671875 38.921875 
L 32.078125 38.921875 
Q 39.203125 38.921875 42.84375 42.21875 
Q 46.484375 45.515625 46.484375 51.90625 
Q 46.484375 58.296875 42.84375 61.546875 
Q 39.203125 64.796875 32.078125 64.796875 
z
" id="DejaVuSans-52"/>
     <path d="M 53.515625 70.515625 
L 53.515625 60.890625 
Q 47.90625 63.578125 42.921875 64.890625 
Q 37.9375 66.21875 33.296875 66.21875 
Q 25.25 66.21875 20.875 63.09375 
Q 16.5 59.96875 16.5 54.203125 
Q 16.5 49.359375 19.40625 46.890625 
Q 22.3125 44.4375 30.421875 42.921875 
L 36.375 41.703125 
Q 47.40625 39.59375 52.65625 34.296875 
Q 57.90625 29 57.90625 20.125 
Q 57.90625 9.515625 50.796875 4.046875 
Q 43.703125 -1.421875 29.984375 -1.421875 
Q 24.8125 -1.421875 18.96875 -0.25 
Q 13.140625 0.921875 6.890625 3.21875 
L 6.890625 13.375 
Q 12.890625 10.015625 18.65625 8.296875 
Q 24.421875 6.59375 29.984375 6.59375 
Q 38.421875 6.59375 43.015625 9.90625 
Q 47.609375 13.234375 47.609375 19.390625 
Q 47.609375 24.75 44.3125 27.78125 
Q 41.015625 30.8125 33.5 32.328125 
L 27.484375 33.5 
Q 16.453125 35.6875 11.515625 40.375 
Q 6.59375 45.0625 6.59375 53.421875 
Q 6.59375 63.09375 13.40625 68.65625 
Q 20.21875 74.21875 32.171875 74.21875 
Q 37.3125 74.21875 42.625 73.28125 
Q 47.953125 72.359375 53.515625 70.515625 
z
" id="DejaVuSans-53"/>
     <path d="M 9.8125 72.90625 
L 19.671875 72.90625 
L 19.671875 43.015625 
L 55.515625 43.015625 
L 55.515625 72.90625 
L 65.375 72.90625 
L 65.375 0 
L 55.515625 0 
L 55.515625 34.71875 
L 19.671875 34.71875 
L 19.671875 0 
L 9.8125 0 
z
" id="DejaVuSans-48"/>
     <path d="M 34.1875 63.1875 
L 20.796875 26.90625 
L 47.609375 26.90625 
z
M 28.609375 72.90625 
L 39.796875 72.90625 
L 67.578125 0 
L 57.328125 0 
L 50.6875 18.703125 
L 17.828125 18.703125 
L 11.1875 0 
L 0.78125 0 
z
" id="DejaVuSans-41"/>
     <path d="M 19.671875 64.796875 
L 19.671875 8.109375 
L 31.59375 8.109375 
Q 46.6875 8.109375 53.6875 14.9375 
Q 60.6875 21.78125 60.6875 36.53125 
Q 60.6875 51.171875 53.6875 57.984375 
Q 46.6875 64.796875 31.59375 64.796875 
z
M 9.8125 72.90625 
L 30.078125 72.90625 
Q 51.265625 72.90625 61.171875 64.09375 
Q 71.09375 55.28125 71.09375 36.53125 
Q 71.09375 17.671875 61.125 8.828125 
Q 51.171875 0 30.078125 0 
L 9.8125 0 
z
" id="DejaVuSans-44"/>
     <path d="M 9.8125 72.90625 
L 55.90625 72.90625 
L 55.90625 64.59375 
L 19.671875 64.59375 
L 19.671875 43.015625 
L 54.390625 43.015625 
L 54.390625 34.71875 
L 19.671875 34.71875 
L 19.671875 8.296875 
L 56.78125 8.296875 
L 56.78125 0 
L 9.8125 0 
z
" id="DejaVuSans-45"/>
     <path d="M -0.296875 72.90625 
L 61.375 72.90625 
L 61.375 64.59375 
L 35.5 64.59375 
L 35.5 0 
L 25.59375 0 
L 25.59375 64.59375 
L -0.296875 64.59375 
z
" id="DejaVuSans-54"/>
    </defs>
    <g transform="translate(369.18424 294.223611)scale(0.17 -0.17)">
     <use xlink:href="#DejaVuSans-52"/>
     <use x="69.419922" xlink:href="#DejaVuSans-2d"/>
     <use x="105.503906" xlink:href="#DejaVuSans-53"/>
     <use x="168.980469" xlink:href="#DejaVuSans-48"/>
     <use x="244.175781" xlink:href="#DejaVuSans-41"/>
     <use x="312.583984" xlink:href="#DejaVuSans-44"/>
     <use x="389.585938" xlink:href="#DejaVuSans-45"/>
     <use x="452.769531" xlink:href="#DejaVuSans-2d"/>
     <use x="488.712891" xlink:href="#DejaVuSans-54"/>
    </g>
   </g>
   <g id="text_14">
    <!-- SL-4-10 -->
    <defs>
     <path d="M 9.8125 72.90625 
L 19.671875 72.90625 
L 19.671875 8.296875 
L 55.171875 8.296875 
L 55.171875 0 
L 9.8125 0 
z
" id="DejaVuSans-4c"/>
    </defs>
    <g transform="translate(369.18424 208.666383)scale(0.17 -0.17)">
     <use xlink:href="#DejaVuSans-53"/>
     <use x="63.476562" xlink:href="#DejaVuSans-4c"/>
     <use x="119.173828" xlink:href="#DejaVuSans-2d"/>
     <use x="155.257812" xlink:href="#DejaVuSans-34"/>
     <use x="218.880859" xlink:href="#DejaVuSans-2d"/>
     <use x="254.964844" xlink:href="#DejaVuSans-31"/>
     <use x="318.587891" xlink:href="#DejaVuSans-30"/>
    </g>
   </g>
   <g id="text_15">
    <!-- SL-10 -->
    <g transform="translate(369.18424 123.109155)scale(0.17 -0.17)">
     <use xlink:href="#DejaVuSans-53"/>
     <use x="63.476562" xlink:href="#DejaVuSans-4c"/>
     <use x="119.173828" xlink:href="#DejaVuSans-2d"/>
     <use x="155.257812" xlink:href="#DejaVuSans-31"/>
     <use x="218.880859" xlink:href="#DejaVuSans-30"/>
    </g>
   </g>
   <g id="text_16">
    <!-- best 2009 -->
    <defs>
     <path d="M 48.6875 27.296875 
Q 48.6875 37.203125 44.609375 42.84375 
Q 40.53125 48.484375 33.40625 48.484375 
Q 26.265625 48.484375 22.1875 42.84375 
Q 18.109375 37.203125 18.109375 27.296875 
Q 18.109375 17.390625 22.1875 11.75 
Q 26.265625 6.109375 33.40625 6.109375 
Q 40.53125 6.109375 44.609375 11.75 
Q 48.6875 17.390625 48.6875 27.296875 
z
M 18.109375 46.390625 
Q 20.953125 51.265625 25.265625 53.625 
Q 29.59375 56 35.59375 56 
Q 45.5625 56 51.78125 48.09375 
Q 58.015625 40.1875 58.015625 27.296875 
Q 58.015625 14.40625 51.78125 6.484375 
Q 45.5625 -1.421875 35.59375 -1.421875 
Q 29.59375 -1.421875 25.265625 0.953125 
Q 20.953125 3.328125 18.109375 8.203125 
L 18.109375 0 
L 9.078125 0 
L 9.078125 75.984375 
L 18.109375 75.984375 
z
" id="DejaVuSans-62"/>
     <path d="M 10.984375 1.515625 
L 10.984375 10.5 
Q 14.703125 8.734375 18.5 7.8125 
Q 22.3125 6.890625 25.984375 6.890625 
Q 35.75 6.890625 40.890625 13.453125 
Q 46.046875 20.015625 46.78125 33.40625 
Q 43.953125 29.203125 39.59375 26.953125 
Q 35.25 24.703125 29.984375 24.703125 
Q 19.046875 24.703125 12.671875 31.3125 
Q 6.296875 37.9375 6.296875 49.421875 
Q 6.296875 60.640625 12.9375 67.421875 
Q 19.578125 74.21875 30.609375 74.21875 
Q 43.265625 74.21875 49.921875 64.515625 
Q 56.59375 54.828125 56.59375 36.375 
Q 56.59375 19.140625 48.40625 8.859375 
Q 40.234375 -1.421875 26.421875 -1.421875 
Q 22.703125 -1.421875 18.890625 -0.6875 
Q 15.09375 0.046875 10.984375 1.515625 
z
M 30.609375 32.421875 
Q 37.25 32.421875 41.125 36.953125 
Q 45.015625 41.5 45.015625 49.421875 
Q 45.015625 57.28125 41.125 61.84375 
Q 37.25 66.40625 30.609375 66.40625 
Q 23.96875 66.40625 20.09375 61.84375 
Q 16.21875 57.28125 16.21875 49.421875 
Q 16.21875 41.5 20.09375 36.953125 
Q 23.96875 32.421875 30.609375 32.421875 
z
" id="DejaVuSans-39"/>
    </defs>
    <g transform="translate(369.18424 37.551928)scale(0.17 -0.17)">
     <use xlink:href="#DejaVuSans-62"/>
     <use x="63.476562" xlink:href="#DejaVuSans-65"/>
     <use x="125" xlink:href="#DejaVuSans-73"/>
     <use x="177.099609" xlink:href="#DejaVuSans-74"/>
     <use x="216.308594" xlink:href="#DejaVuSans-20"/>
     <use x="248.095703" xlink:href="#DejaVuSans-32"/>
     <use x="311.71875" xlink:href="#DejaVuSans-30"/>
     <use x="375.341797" xlink:href="#DejaVuSans-30"/>
     <use x="438.964844" xlink:href="#DejaVuSans-39"/>
    </g>
   </g>
   <g id="text_17">
    <!-- bbob f11, 20-D -->
    <g transform="translate(58.89048 35.290806)scale(0.102 -0.102)">
     <use xlink:href="#DejaVuSans-62"/>
     <use x="63.476562" xlink:href="#DejaVuSans-62"/>
     <use x="126.953125" xlink:href="#DejaVuSans-6f"/>
     <use x="188.134766" xlink:href="#DejaVuSans-62"/>
     <use x="251.611328" xlink:href="#DejaVuSans-20"/>
     <use x="283.398438" xlink:href="#DejaVuSans-66"/>
     <use x="318.603516" xlink:href="#DejaVuSans-31"/>
     <use x="382.226562" xlink:href="#DejaVuSans-31"/>
     <use x="445.849609" xlink:href="#DejaVuSans-2c"/>
     <use x="477.636719" xlink:href="#DejaVuSans-20"/>
     <use x="509.423828" xlink:href="#DejaVuSans-32"/>
     <use x="573.046875" xlink:href="#DejaVuSans-30"/>
     <use x="636.669922" xlink:href="#DejaVuSans-2d"/>
     <use x="672.753906" xlink:href="#DejaVuSans-44"/>
    </g>
    <!-- 51 targets: 100..1e-08 -->
    <defs>
     <path d="M 10.796875 72.90625 
L 49.515625 72.90625 
L 49.515625 64.59375 
L 19.828125 64.59375 
L 19.828125 46.734375 
Q 21.96875 47.46875 24.109375 47.828125 
Q 26.265625 48.1875 28.421875 48.1875 
Q 40.625 48.1875 47.75 41.5 
Q 54.890625 34.8125 54.890625 23.390625 
Q 54.890625 11.625 47.5625 5.09375 
Q 40.234375 -1.421875 26.90625 -1.421875 
Q 22.3125 -1.421875 17.546875 -0.640625 
Q 12.796875 0.140625 7.71875 1.703125 
L 7.71875 11.625 
Q 12.109375 9.234375 16.796875 8.0625 
Q 21.484375 6.890625 26.703125 6.890625 
Q 35.15625 6.890625 40.078125 11.328125 
Q 45.015625 15.765625 45.015625 23.390625 
Q 45.015625 31 40.078125 35.4375 
Q 35.15625 39.890625 26.703125 39.890625 
Q 22.75 39.890625 18.8125 39.015625 
Q 14.890625 38.140625 10.796875 36.28125 
z
" id="DejaVuSans-35"/>
     <path d="M 11.71875 12.40625 
L 22.015625 12.40625 
L 22.015625 0 
L 11.71875 0 
z
M 11.71875 51.703125 
L 22.015625 51.703125 
L 22.015625 39.3125 
L 11.71875 39.3125 
z
" id="DejaVuSans-3a"/>
    </defs>
    <g transform="translate(58.89048 46.712575)scale(0.102 -0.102)">
     <use xlink:href="#DejaVuSans-35"/>
     <use x="63.623047" xlink:href="#DejaVuSans-31"/>
     <use x="127.246094" xlink:href="#DejaVuSans-20"/>
     <use x="159.033203" xlink:href="#DejaVuSans-74"/>
     <use x="198.242188" xlink:href="#DejaVuSans-61"/>
     <use x="259.521484" xlink:href="#DejaVuSans-72"/>
     <use x="300.619141" xlink:href="#DejaVuSans-67"/>
     <use x="364.095703" xlink:href="#DejaVuSans-65"/>
     <use x="425.619141" xlink:href="#DejaVuSans-74"/>
     <use x="464.828125" xlink:href="#DejaVuSans-73"/>
     <use x="516.927734" xlink:href="#DejaVuSans-3a"/>
     <use x="550.619141" xlink:href="#DejaVuSans-20"/>
     <use x="582.40625" xlink:href="#DejaVuSans-31"/>
     <use x="646.029297" xlink:href="#DejaVuSans-30"/>
     <use x="709.652344" xlink:href="#DejaVuSans-30"/>
     <use x="773.275391" xlink:href="#DejaVuSans-2e"/>
     <use x="805.0625" xlink:href="#DejaVuSans-2e"/>
     <use x="836.849609" xlink:href="#DejaVuSans-31"/>
     <use x="900.472656" xlink:href="#DejaVuSans-65"/>
     <use x="961.996094" xlink:href="#DejaVuSans-2d"/>
     <use x="998.080078" xlink:href="#DejaVuSans-30"/>
     <use x="1061.703125" xlink:href="#DejaVuSans-38"/>
    </g>
    <!-- 15 instances -->
    <g transform="translate(58.89048 58.134344)scale(0.102 -0.102)">
     <use xlink:href="#DejaVuSans-31"/>
     <use x="63.623047" xlink:href="#DejaVuSans-35"/>
     <use x="127.246094" xlink:href="#DejaVuSans-20"/>
     <use x="159.033203" xlink:href="#DejaVuSans-69"/>
     <use x="186.816406" xlink:href="#DejaVuSans-6e"/>
     <use x="250.195312" xlink:href="#DejaVuSans-73"/>
     <use x="302.294922" xlink:href="#DejaVuSans-74"/>
     <use x="341.503906" xlink:href="#DejaVuSans-61"/>
     <use x="402.783203" xlink:href="#DejaVuSans-6e"/>
     <use x="466.162109" xlink:href="#DejaVuSans-63"/>
     <use x="521.142578" xlink:href="#DejaVuSans-65"/>
     <use x="582.666016" xlink:href="#DejaVuSans-73"/>
    </g>
   </g>
   <g id="text_18">
    <!-- v2.4 -->
    <g style="fill:#808080;" transform="translate(183.733063 290.099912)scale(0.1 -0.1)">
     <use xlink:href="#DejaVuSans-76"/>
     <use x="59.179688" xlink:href="#DejaVuSans-32"/>
     <use x="122.802734" xlink:href="#DejaVuSans-2e"/>
     <use x="154.589844" xlink:href="#DejaVuSans-34"/>
    </g>
   </g>
   <g id="text_19">
    <!-- 11 Discus -->
    <g transform="translate(146.008062 18.84)scale(0.2 -0.2)">
     <use xlink:href="#DejaVuSans-31"/>
     <use x="63.623047" xlink:href="#DejaVuSans-31"/>
     <use x="127.246094" xlink:href="#DejaVuSans-20"/>
     <use x="159.033203" xlink:href="#DejaVuSans-44"/>
     <use x="236.035156" xlink:href="#DejaVuSans-69"/>
     <use x="263.818359" xlink:href="#DejaVuSans-73"/>
     <use x="315.917969" xlink:href="#DejaVuSans-63"/>
     <use x="370.898438" xlink:href="#DejaVuSans-75"/>
     <use x="434.277344" xlink:href="#DejaVuSans-73"/>
    </g>
   </g>
  </g>
 </g>
 <defs>
  <clipPath id="pf5de2b298c">
   <rect height="270.04" width="277.048" x="56.12" y="24.84"/>
  </clipPath>
 </defs>
</svg>
