<?xml version="1.0" encoding="utf-8" standalone="no"?>
<!DOCTYPE svg PUBLIC "-//W3C//DTD SVG 1.1//EN"
  "http://www.w3.org/Graphics/SVG/1.1/DTD/svg11.dtd">
<!-- Created with matplotlib (http://matplotlib.org/) -->
<svg height="345.6pt" version="1.1" viewBox="0 0 460.8 345.6" width="460.8pt" xmlns="http://www.w3.org/2000/svg" xmlns:xlink="http://www.w3.org/1999/xlink">
 <defs>
  <style type="text/css">
*{stroke-linecap:butt;stroke-linejoin:round;}
  </style>
 </defs>
 <g id="figure_1">
  <g id="patch_1">
   <path d="M 0 345.6 
L 460.8 345.6 
L 460.8 0 
L 0 0 
z
" style="fill:#ffffff;"/>
  </g>
  <g id="axes_1">
   <g id="patch_2">
    <path d="M 56.12 294.88 
L 333.168 294.88 
L 333.168 24.84 
L 56.12 24.84 
z
" style="fill:#ffffff;"/>
   </g>
   <g id="line2d_1">
    <path d="M 28.455965 294.88 
L 28.455965 284.395046 
L 40.370217 284.395046 
L 40.370217 273.910091 
L 47.339607 273.910091 
L 47.339607 268.667614 
L 68.034251 268.667614 
L 68.034251 263.425137 
L 75.003641 263.425137 
L 75.003641 258.18266 
L 81.586754 258.18266 
L 81.586754 252.940182 
L 86.335171 252.940182 
L 86.335171 247.697705 
L 89.567532 247.697705 
L 89.567532 242.455228 
L 92.287186 242.455228 
L 92.287186 237.212751 
L 94.26507 237.212751 
L 94.26507 231.970274 
L 95.351029 231.970274 
L 95.351029 226.727797 
L 96.699848 226.727797 
L 96.699848 221.485319 
L 97.336537 221.485319 
L 97.336537 216.242842 
L 98.249422 216.242842 
L 98.249422 211.000365 
L 99.67078 211.000365 
L 99.67078 205.757888 
L 101.23446 205.757888 
L 101.23446 200.515411 
L 101.966002 200.515411 
L 101.966002 195.272933 
L 104.201437 195.272933 
L 104.201437 190.030456 
L 105.801534 190.030456 
L 105.801534 184.787979 
L 107.439785 184.787979 
L 107.439785 179.545502 
L 109.093814 179.545502 
L 109.093814 174.303025 
L 110.602556 174.303025 
L 110.602556 169.060547 
L 111.72091 169.060547 
L 111.72091 163.81807 
L 113.272818 163.81807 
L 113.272818 158.575593 
L 116.010559 158.575593 
L 116.010559 153.333116 
L 117.620026 153.333116 
L 117.620026 148.090639 
L 119.354037 148.090639 
L 119.354037 142.848162 
L 119.867168 142.848162 
L 119.867168 137.605684 
L 120.447081 137.605684 
L 120.447081 132.363207 
L 121.086731 132.363207 
L 121.086731 127.12073 
L 121.70343 127.12073 
L 121.70343 121.878253 
L 122.588877 121.878253 
L 122.588877 116.635776 
L 122.944762 116.635776 
L 122.944762 111.393298 
L 123.430938 111.393298 
L 123.430938 106.150821 
L 124.036471 106.150821 
L 124.036471 100.908344 
L 129.914152 100.908344 
L 129.914152 95.665867 
L 130.377486 95.665867 
L 130.377486 90.42339 
L 130.961731 90.42339 
L 130.961731 85.180912 
L 131.526768 85.180912 
L 131.526768 79.938435 
L 132.032353 79.938435 
L 132.032353 74.695958 
L 132.52349 74.695958 
L 132.52349 69.453481 
L 133.350594 69.453481 
L 133.350594 64.211004 
L 133.992176 64.211004 
L 133.992176 58.968526 
L 134.431058 58.968526 
L 134.431058 53.726049 
L 134.929315 53.726049 
L 134.929315 48.483572 
L 135.549413 48.483572 
L 135.549413 43.241095 
L 135.950722 43.241095 
L 135.950722 37.998618 
L 136.471629 37.998618 
L 136.471629 32.756141 
L 136.757848 32.756141 
L 136.757848 27.513663 
L 333.168 27.513663 
" style="fill:none;stroke:#f5deb3;stroke-linecap:square;stroke-width:4;"/>
   </g>
   <g id="line2d_2">
    <defs>
     <path d="M -0 7.778175 
L 7.778175 0 
L 0 -7.778175 
L -7.778175 -0 
z
" id="mfef91e655b" style="stroke:#f5deb3;stroke-linejoin:miter;stroke-width:1.5;"/>
    </defs>
    <g>
     <use style="fill:#f5deb3;stroke:#f5deb3;stroke-linejoin:miter;stroke-width:1.5;" x="89.567532" xlink:href="#mfef91e655b" y="242.455228"/>
     <use style="fill:#f5deb3;stroke:#f5deb3;stroke-linejoin:miter;stroke-width:1.5;" x="120.447081" xlink:href="#mfef91e655b" y="137.605684"/>
     <use style="fill:#f5deb3;stroke:#f5deb3;stroke-linejoin:miter;stroke-width:1.5;" x="136.757848" xlink:href="#mfef91e655b" y="32.756141"/>
     <use style="fill:#f5deb3;stroke:#f5deb3;stroke-linejoin:miter;stroke-width:1.5;" x="136.757848" xlink:href="#mfef91e655b" y="27.513663"/>
     <use style="fill:#f5deb3;stroke:#f5deb3;stroke-linejoin:miter;stroke-width:1.5;" x="136.757848" xlink:href="#mfef91e655b" y="27.513663"/>
     <use style="fill:#f5deb3;stroke:#f5deb3;stroke-linejoin:miter;stroke-width:1.5;" x="333.168" xlink:href="#mfef91e655b" y="27.513663"/>
    </g>
   </g>
   <g id="line2d_3">
    <path style="fill:none;stroke:#f5deb3;stroke-linecap:square;stroke-width:4;"/>
    <g/>
   </g>
   <g id="line2d_4">
    <path d="M 333.168 27.513663 
L 363.64328 32.86099 
" style="fill:none;stroke:#f5deb3;stroke-linecap:square;stroke-width:4;"/>
    <g>
     <use style="fill:#f5deb3;stroke:#f5deb3;stroke-linejoin:miter;stroke-width:1.5;" x="333.168" xlink:href="#mfef91e655b" y="27.513663"/>
     <use style="fill:#f5deb3;stroke:#f5deb3;stroke-linejoin:miter;stroke-width:1.5;" x="363.64328" xlink:href="#mfef91e655b" y="32.86099"/>
    </g>
   </g>
   <g id="matplotlib.axis_1">
    <g id="xtick_1">
     <g id="line2d_5">
      <path clip-path="url(#p0fd347ab12)" d="M 56.12 294.88 
L 56.12 24.84 
" style="fill:none;stroke:#b0b0b0;stroke-linecap:square;stroke-width:0.8;"/>
     </g>
     <g id="line2d_6">
      <defs>
       <path d="M 0 0 
L 0 3.5 
" id="m7b0aa4e96e" style="stroke:#000000;stroke-width:0.8;"/>
      </defs>
      <g>
       <use style="stroke:#000000;stroke-width:0.8;" x="56.12" xlink:href="#m7b0aa4e96e" y="294.88"/>
      </g>
     </g>
     <g id="text_1">
      <!-- 0 -->
      <defs>
       <path d="M 31.78125 66.40625 
Q 24.171875 66.40625 20.328125 58.90625 
Q 16.5 51.421875 16.5 36.375 
Q 16.5 21.390625 20.328125 13.890625 
Q 24.171875 6.390625 31.78125 6.390625 
Q 39.453125 6.390625 43.28125 13.890625 
Q 47.125 21.390625 47.125 36.375 
Q 47.125 51.421875 43.28125 58.90625 
Q 39.453125 66.40625 31.78125 66.40625 
z
M 31.78125 74.21875 
Q 44.046875 74.21875 50.515625 64.515625 
Q 56.984375 54.828125 56.984375 36.375 
Q 56.984375 17.96875 50.515625 8.265625 
Q 44.046875 -1.421875 31.78125 -1.421875 
Q 19.53125 -1.421875 13.0625 8.265625 
Q 6.59375 17.96875 6.59375 36.375 
Q 6.59375 54.828125 13.0625 64.515625 
Q 19.53125 74.21875 31.78125 74.21875 
z
" id="DejaVuSans-30"/>
      </defs>
      <g transform="translate(49.7575 317.076875)scale(0.2 -0.2)">
       <use xlink:href="#DejaVuSans-30"/>
      </g>
     </g>
    </g>
    <g id="xtick_2">
     <g id="line2d_7">
      <path clip-path="url(#p0fd347ab12)" d="M 135.276571 294.88 
L 135.276571 24.84 
" style="fill:none;stroke:#b0b0b0;stroke-linecap:square;stroke-width:0.8;"/>
     </g>
     <g id="line2d_8">
      <g>
       <use style="stroke:#000000;stroke-width:0.8;" x="135.276571" xlink:href="#m7b0aa4e96e" y="294.88"/>
      </g>
     </g>
     <g id="text_2">
      <!-- 2 -->
      <defs>
       <path d="M 19.1875 8.296875 
L 53.609375 8.296875 
L 53.609375 0 
L 7.328125 0 
L 7.328125 8.296875 
Q 12.9375 14.109375 22.625 23.890625 
Q 32.328125 33.6875 34.8125 36.53125 
Q 39.546875 41.84375 41.421875 45.53125 
Q 43.3125 49.21875 43.3125 52.78125 
Q 43.3125 58.59375 39.234375 62.25 
Q 35.15625 65.921875 28.609375 65.921875 
Q 23.96875 65.921875 18.8125 64.3125 
Q 13.671875 62.703125 7.8125 59.421875 
L 7.8125 69.390625 
Q 13.765625 71.78125 18.9375 73 
Q 24.125 74.21875 28.421875 74.21875 
Q 39.75 74.21875 46.484375 68.546875 
Q 53.21875 62.890625 53.21875 53.421875 
Q 53.21875 48.921875 51.53125 44.890625 
Q 49.859375 40.875 45.40625 35.40625 
Q 44.1875 33.984375 37.640625 27.21875 
Q 31.109375 20.453125 19.1875 8.296875 
z
" id="DejaVuSans-32"/>
      </defs>
      <g transform="translate(128.914071 317.076875)scale(0.2 -0.2)">
       <use xlink:href="#DejaVuSans-32"/>
      </g>
     </g>
    </g>
    <g id="xtick_3">
     <g id="line2d_9">
      <path clip-path="url(#p0fd347ab12)" d="M 214.433143 294.88 
L 214.433143 24.84 
" style="fill:none;stroke:#b0b0b0;stroke-linecap:square;stroke-width:0.8;"/>
     </g>
     <g id="line2d_10">
      <g>
       <use style="stroke:#000000;stroke-width:0.8;" x="214.433143" xlink:href="#m7b0aa4e96e" y="294.88"/>
      </g>
     </g>
     <g id="text_3">
      <!-- 4 -->
      <defs>
       <path d="M 37.796875 64.3125 
L 12.890625 25.390625 
L 37.796875 25.390625 
z
M 35.203125 72.90625 
L 47.609375 72.90625 
L 47.609375 25.390625 
L 58.015625 25.390625 
L 58.015625 17.1875 
L 47.609375 17.1875 
L 47.609375 0 
L 37.796875 0 
L 37.796875 17.1875 
L 4.890625 17.1875 
L 4.890625 26.703125 
z
" id="DejaVuSans-34"/>
      </defs>
      <g transform="translate(208.070643 317.076875)scale(0.2 -0.2)">
       <use xlink:href="#DejaVuSans-34"/>
      </g>
     </g>
    </g>
    <g id="xtick_4">
     <g id="line2d_11">
      <path clip-path="url(#p0fd347ab12)" d="M 293.589714 294.88 
L 293.589714 24.84 
" style="fill:none;stroke:#b0b0b0;stroke-linecap:square;stroke-width:0.8;"/>
     </g>
     <g id="line2d_12">
      <g>
       <use style="stroke:#000000;stroke-width:0.8;" x="293.589714" xlink:href="#m7b0aa4e96e" y="294.88"/>
      </g>
     </g>
     <g id="text_4">
      <!-- 6 -->
      <defs>
       <path d="M 33.015625 40.375 
Q 26.375 40.375 22.484375 35.828125 
Q 18.609375 31.296875 18.609375 23.390625 
Q 18.609375 15.53125 22.484375 10.953125 
Q 26.375 6.390625 33.015625 6.390625 
Q 39.65625 6.390625 43.53125 10.953125 
Q 47.40625 15.53125 47.40625 23.390625 
Q 47.40625 31.296875 43.53125 35.828125 
Q 39.65625 40.375 33.015625 40.375 
z
M 52.59375 71.296875 
L 52.59375 62.3125 
Q 48.875 64.0625 45.09375 64.984375 
Q 41.3125 65.921875 37.59375 65.921875 
Q 27.828125 65.921875 22.671875 59.328125 
Q 17.53125 52.734375 16.796875 39.40625 
Q 19.671875 43.65625 24.015625 45.921875 
Q 28.375 48.1875 33.59375 48.1875 
Q 44.578125 48.1875 50.953125 41.515625 
Q 57.328125 34.859375 57.328125 23.390625 
Q 57.328125 12.15625 50.6875 5.359375 
Q 44.046875 -1.421875 33.015625 -1.421875 
Q 20.359375 -1.421875 13.671875 8.265625 
Q 6.984375 17.96875 6.984375 36.375 
Q 6.984375 53.65625 15.1875 63.9375 
Q 23.390625 74.21875 37.203125 74.21875 
Q 40.921875 74.21875 44.703125 73.484375 
Q 48.484375 72.75 52.59375 71.296875 
z
" id="DejaVuSans-36"/>
      </defs>
      <g transform="translate(287.227214 317.076875)scale(0.2 -0.2)">
       <use xlink:href="#DejaVuSans-36"/>
      </g>
     </g>
    </g>
    <g id="xtick_5">
     <g id="line2d_13">
      <path clip-path="url(#p0fd347ab12)" d="M 56.12 294.88 
L 56.12 24.84 
" style="fill:none;stroke:#b0b0b0;stroke-linecap:square;stroke-width:0.8;"/>
     </g>
     <g id="line2d_14">
      <defs>
       <path d="M 0 0 
L 0 2 
" id="mb0ca02d557" style="stroke:#000000;stroke-width:0.6;"/>
      </defs>
      <g>
       <use style="stroke:#000000;stroke-width:0.6;" x="56.12" xlink:href="#mb0ca02d557" y="294.88"/>
      </g>
     </g>
    </g>
    <g id="xtick_6">
     <g id="line2d_15">
      <path clip-path="url(#p0fd347ab12)" d="M 95.698286 294.88 
L 95.698286 24.84 
" style="fill:none;stroke:#b0b0b0;stroke-linecap:square;stroke-width:0.8;"/>
     </g>
     <g id="line2d_16">
      <g>
       <use style="stroke:#000000;stroke-width:0.6;" x="95.698286" xlink:href="#mb0ca02d557" y="294.88"/>
      </g>
     </g>
    </g>
    <g id="xtick_7">
     <g id="line2d_17">
      <path clip-path="url(#p0fd347ab12)" d="M 135.276571 294.88 
L 135.276571 24.84 
" style="fill:none;stroke:#b0b0b0;stroke-linecap:square;stroke-width:0.8;"/>
     </g>
     <g id="line2d_18">
      <g>
       <use style="stroke:#000000;stroke-width:0.6;" x="135.276571" xlink:href="#mb0ca02d557" y="294.88"/>
      </g>
     </g>
    </g>
    <g id="xtick_8">
     <g id="line2d_19">
      <path clip-path="url(#p0fd347ab12)" d="M 174.854857 294.88 
L 174.854857 24.84 
" style="fill:none;stroke:#b0b0b0;stroke-linecap:square;stroke-width:0.8;"/>
     </g>
     <g id="line2d_20">
      <g>
       <use style="stroke:#000000;stroke-width:0.6;" x="174.854857" xlink:href="#mb0ca02d557" y="294.88"/>
      </g>
     </g>
    </g>
    <g id="xtick_9">
     <g id="line2d_21">
      <path clip-path="url(#p0fd347ab12)" d="M 214.433143 294.88 
L 214.433143 24.84 
" style="fill:none;stroke:#b0b0b0;stroke-linecap:square;stroke-width:0.8;"/>
     </g>
     <g id="line2d_22">
      <g>
       <use style="stroke:#000000;stroke-width:0.6;" x="214.433143" xlink:href="#mb0ca02d557" y="294.88"/>
      </g>
     </g>
    </g>
    <g id="xtick_10">
     <g id="line2d_23">
      <path clip-path="url(#p0fd347ab12)" d="M 254.011429 294.88 
L 254.011429 24.84 
" style="fill:none;stroke:#b0b0b0;stroke-linecap:square;stroke-width:0.8;"/>
     </g>
     <g id="line2d_24">
      <g>
       <use style="stroke:#000000;stroke-width:0.6;" x="254.011429" xlink:href="#mb0ca02d557" y="294.88"/>
      </g>
     </g>
    </g>
    <g id="xtick_11">
     <g id="line2d_25">
      <path clip-path="url(#p0fd347ab12)" d="M 293.589714 294.88 
L 293.589714 24.84 
" style="fill:none;stroke:#b0b0b0;stroke-linecap:square;stroke-width:0.8;"/>
     </g>
     <g id="line2d_26">
      <g>
       <use style="stroke:#000000;stroke-width:0.6;" x="293.589714" xlink:href="#mb0ca02d557" y="294.88"/>
      </g>
     </g>
    </g>
    <g id="xtick_12">
     <g id="line2d_27">
      <path clip-path="url(#p0fd347ab12)" d="M 333.168 294.88 
L 333.168 24.84 
" style="fill:none;stroke:#b0b0b0;stroke-linecap:square;stroke-width:0.8;"/>
     </g>
     <g id="line2d_28">
      <g>
       <use style="stroke:#000000;stroke-width:0.6;" x="333.168" xlink:href="#mb0ca02d557" y="294.88"/>
      </g>
     </g>
    </g>
    <g id="text_5">
     <!-- log10(# f-evals / dimension) -->
     <defs>
      <path d="M 9.421875 75.984375 
L 18.40625 75.984375 
L 18.40625 0 
L 9.421875 0 
z
" id="DejaVuSans-6c"/>
      <path d="M 30.609375 48.390625 
Q 23.390625 48.390625 19.1875 42.75 
Q 14.984375 37.109375 14.984375 27.296875 
Q 14.984375 17.484375 19.15625 11.84375 
Q 23.34375 6.203125 30.609375 6.203125 
Q 37.796875 6.203125 41.984375 11.859375 
Q 46.1875 17.53125 46.1875 27.296875 
Q 46.1875 37.015625 41.984375 42.703125 
Q 37.796875 48.390625 30.609375 48.390625 
z
M 30.609375 56 
Q 42.328125 56 49.015625 48.375 
Q 55.71875 40.765625 55.71875 27.296875 
Q 55.71875 13.875 49.015625 6.21875 
Q 42.328125 -1.421875 30.609375 -1.421875 
Q 18.84375 -1.421875 12.171875 6.21875 
Q 5.515625 13.875 5.515625 27.296875 
Q 5.515625 40.765625 12.171875 48.375 
Q 18.84375 56 30.609375 56 
z
" id="DejaVuSans-6f"/>
      <path d="M 45.40625 27.984375 
Q 45.40625 37.75 41.375 43.109375 
Q 37.359375 48.484375 30.078125 48.484375 
Q 22.859375 48.484375 18.828125 43.109375 
Q 14.796875 37.75 14.796875 27.984375 
Q 14.796875 18.265625 18.828125 12.890625 
Q 22.859375 7.515625 30.078125 7.515625 
Q 37.359375 7.515625 41.375 12.890625 
Q 45.40625 18.265625 45.40625 27.984375 
z
M 54.390625 6.78125 
Q 54.390625 -7.171875 48.1875 -13.984375 
Q 42 -20.796875 29.203125 -20.796875 
Q 24.46875 -20.796875 20.265625 -20.09375 
Q 16.0625 -19.390625 12.109375 -17.921875 
L 12.109375 -9.1875 
Q 16.0625 -11.328125 19.921875 -12.34375 
Q 23.78125 -13.375 27.78125 -13.375 
Q 36.625 -13.375 41.015625 -8.765625 
Q 45.40625 -4.15625 45.40625 5.171875 
L 45.40625 9.625 
Q 42.625 4.78125 38.28125 2.390625 
Q 33.9375 0 27.875 0 
Q 17.828125 0 11.671875 7.65625 
Q 5.515625 15.328125 5.515625 27.984375 
Q 5.515625 40.671875 11.671875 48.328125 
Q 17.828125 56 27.875 56 
Q 33.9375 56 38.28125 53.609375 
Q 42.625 51.21875 45.40625 46.390625 
L 45.40625 54.6875 
L 54.390625 54.6875 
z
" id="DejaVuSans-67"/>
      <path d="M 12.40625 8.296875 
L 28.515625 8.296875 
L 28.515625 63.921875 
L 10.984375 60.40625 
L 10.984375 69.390625 
L 28.421875 72.90625 
L 38.28125 72.90625 
L 38.28125 8.296875 
L 54.390625 8.296875 
L 54.390625 0 
L 12.40625 0 
z
" id="DejaVuSans-31"/>
      <path d="M 31 75.875 
Q 24.46875 64.65625 21.28125 53.65625 
Q 18.109375 42.671875 18.109375 31.390625 
Q 18.109375 20.125 21.3125 9.0625 
Q 24.515625 -2 31 -13.1875 
L 23.1875 -13.1875 
Q 15.875 -1.703125 12.234375 9.375 
Q 8.59375 20.453125 8.59375 31.390625 
Q 8.59375 42.28125 12.203125 53.3125 
Q 15.828125 64.359375 23.1875 75.875 
z
" id="DejaVuSans-28"/>
      <path d="M 51.125 44 
L 36.921875 44 
L 32.8125 27.6875 
L 47.125 27.6875 
z
M 43.796875 71.78125 
L 38.71875 51.515625 
L 52.984375 51.515625 
L 58.109375 71.78125 
L 65.921875 71.78125 
L 60.890625 51.515625 
L 76.125 51.515625 
L 76.125 44 
L 58.984375 44 
L 54.984375 27.6875 
L 70.515625 27.6875 
L 70.515625 20.21875 
L 53.078125 20.21875 
L 48 0 
L 40.1875 0 
L 45.21875 20.21875 
L 30.90625 20.21875 
L 25.875 0 
L 18.015625 0 
L 23.09375 20.21875 
L 7.71875 20.21875 
L 7.71875 27.6875 
L 24.90625 27.6875 
L 29 44 
L 13.28125 44 
L 13.28125 51.515625 
L 30.90625 51.515625 
L 35.890625 71.78125 
z
" id="DejaVuSans-23"/>
      <path id="DejaVuSans-20"/>
      <path d="M 37.109375 75.984375 
L 37.109375 68.5 
L 28.515625 68.5 
Q 23.6875 68.5 21.796875 66.546875 
Q 19.921875 64.59375 19.921875 59.515625 
L 19.921875 54.6875 
L 34.71875 54.6875 
L 34.71875 47.703125 
L 19.921875 47.703125 
L 19.921875 0 
L 10.890625 0 
L 10.890625 47.703125 
L 2.296875 47.703125 
L 2.296875 54.6875 
L 10.890625 54.6875 
L 10.890625 58.5 
Q 10.890625 67.625 15.140625 71.796875 
Q 19.390625 75.984375 28.609375 75.984375 
z
" id="DejaVuSans-66"/>
      <path d="M 4.890625 31.390625 
L 31.203125 31.390625 
L 31.203125 23.390625 
L 4.890625 23.390625 
z
" id="DejaVuSans-2d"/>
      <path d="M 56.203125 29.59375 
L 56.203125 25.203125 
L 14.890625 25.203125 
Q 15.484375 15.921875 20.484375 11.0625 
Q 25.484375 6.203125 34.421875 6.203125 
Q 39.59375 6.203125 44.453125 7.46875 
Q 49.3125 8.734375 54.109375 11.28125 
L 54.109375 2.78125 
Q 49.265625 0.734375 44.1875 -0.34375 
Q 39.109375 -1.421875 33.890625 -1.421875 
Q 20.796875 -1.421875 13.15625 6.1875 
Q 5.515625 13.8125 5.515625 26.8125 
Q 5.515625 40.234375 12.765625 48.109375 
Q 20.015625 56 32.328125 56 
Q 43.359375 56 49.78125 48.890625 
Q 56.203125 41.796875 56.203125 29.59375 
z
M 47.21875 32.234375 
Q 47.125 39.59375 43.09375 43.984375 
Q 39.0625 48.390625 32.421875 48.390625 
Q 24.90625 48.390625 20.390625 44.140625 
Q 15.875 39.890625 15.1875 32.171875 
z
" id="DejaVuSans-65"/>
      <path d="M 2.984375 54.6875 
L 12.5 54.6875 
L 29.59375 8.796875 
L 46.6875 54.6875 
L 56.203125 54.6875 
L 35.6875 0 
L 23.484375 0 
z
" id="DejaVuSans-76"/>
      <path d="M 34.28125 27.484375 
Q 23.390625 27.484375 19.1875 25 
Q 14.984375 22.515625 14.984375 16.5 
Q 14.984375 11.71875 18.140625 8.90625 
Q 21.296875 6.109375 26.703125 6.109375 
Q 34.1875 6.109375 38.703125 11.40625 
Q 43.21875 16.703125 43.21875 25.484375 
L 43.21875 27.484375 
z
M 52.203125 31.203125 
L 52.203125 0 
L 43.21875 0 
L 43.21875 8.296875 
Q 40.140625 3.328125 35.546875 0.953125 
Q 30.953125 -1.421875 24.3125 -1.421875 
Q 15.921875 -1.421875 10.953125 3.296875 
Q 6 8.015625 6 15.921875 
Q 6 25.140625 12.171875 29.828125 
Q 18.359375 34.515625 30.609375 34.515625 
L 43.21875 34.515625 
L 43.21875 35.40625 
Q 43.21875 41.609375 39.140625 45 
Q 35.0625 48.390625 27.6875 48.390625 
Q 23 48.390625 18.546875 47.265625 
Q 14.109375 46.140625 10.015625 43.890625 
L 10.015625 52.203125 
Q 14.9375 54.109375 19.578125 55.046875 
Q 24.21875 56 28.609375 56 
Q 40.484375 56 46.34375 49.84375 
Q 52.203125 43.703125 52.203125 31.203125 
z
" id="DejaVuSans-61"/>
      <path d="M 44.28125 53.078125 
L 44.28125 44.578125 
Q 40.484375 46.53125 36.375 47.5 
Q 32.28125 48.484375 27.875 48.484375 
Q 21.1875 48.484375 17.84375 46.4375 
Q 14.5 44.390625 14.5 40.28125 
Q 14.5 37.15625 16.890625 35.375 
Q 19.28125 33.59375 26.515625 31.984375 
L 29.59375 31.296875 
Q 39.15625 29.25 43.1875 25.515625 
Q 47.21875 21.78125 47.21875 15.09375 
Q 47.21875 7.46875 41.1875 3.015625 
Q 35.15625 -1.421875 24.609375 -1.421875 
Q 20.21875 -1.421875 15.453125 -0.5625 
Q 10.6875 0.296875 5.421875 2 
L 5.421875 11.28125 
Q 10.40625 8.6875 15.234375 7.390625 
Q 20.0625 6.109375 24.8125 6.109375 
Q 31.15625 6.109375 34.5625 8.28125 
Q 37.984375 10.453125 37.984375 14.40625 
Q 37.984375 18.0625 35.515625 20.015625 
Q 33.0625 21.96875 24.703125 23.78125 
L 21.578125 24.515625 
Q 13.234375 26.265625 9.515625 29.90625 
Q 5.8125 33.546875 5.8125 39.890625 
Q 5.8125 47.609375 11.28125 51.796875 
Q 16.75 56 26.8125 56 
Q 31.78125 56 36.171875 55.265625 
Q 40.578125 54.546875 44.28125 53.078125 
z
" id="DejaVuSans-73"/>
      <path d="M 25.390625 72.90625 
L 33.6875 72.90625 
L 8.296875 -9.28125 
L 0 -9.28125 
z
" id="DejaVuSans-2f"/>
      <path d="M 45.40625 46.390625 
L 45.40625 75.984375 
L 54.390625 75.984375 
L 54.390625 0 
L 45.40625 0 
L 45.40625 8.203125 
Q 42.578125 3.328125 38.25 0.953125 
Q 33.9375 -1.421875 27.875 -1.421875 
Q 17.96875 -1.421875 11.734375 6.484375 
Q 5.515625 14.40625 5.515625 27.296875 
Q 5.515625 40.1875 11.734375 48.09375 
Q 17.96875 56 27.875 56 
Q 33.9375 56 38.25 53.625 
Q 42.578125 51.265625 45.40625 46.390625 
z
M 14.796875 27.296875 
Q 14.796875 17.390625 18.875 11.75 
Q 22.953125 6.109375 30.078125 6.109375 
Q 37.203125 6.109375 41.296875 11.75 
Q 45.40625 17.390625 45.40625 27.296875 
Q 45.40625 37.203125 41.296875 42.84375 
Q 37.203125 48.484375 30.078125 48.484375 
Q 22.953125 48.484375 18.875 42.84375 
Q 14.796875 37.203125 14.796875 27.296875 
z
" id="DejaVuSans-64"/>
      <path d="M 9.421875 54.6875 
L 18.40625 54.6875 
L 18.40625 0 
L 9.421875 0 
z
M 9.421875 75.984375 
L 18.40625 75.984375 
L 18.40625 64.59375 
L 9.421875 64.59375 
z
" id="DejaVuSans-69"/>
      <path d="M 52 44.1875 
Q 55.375 50.25 60.0625 53.125 
Q 64.75 56 71.09375 56 
Q 79.640625 56 84.28125 50.015625 
Q 88.921875 44.046875 88.921875 33.015625 
L 88.921875 0 
L 79.890625 0 
L 79.890625 32.71875 
Q 79.890625 40.578125 77.09375 44.375 
Q 74.3125 48.1875 68.609375 48.1875 
Q 61.625 48.1875 57.5625 43.546875 
Q 53.515625 38.921875 53.515625 30.90625 
L 53.515625 0 
L 44.484375 0 
L 44.484375 32.71875 
Q 44.484375 40.625 41.703125 44.40625 
Q 38.921875 48.1875 33.109375 48.1875 
Q 26.21875 48.1875 22.15625 43.53125 
Q 18.109375 38.875 18.109375 30.90625 
L 18.109375 0 
L 9.078125 0 
L 9.078125 54.6875 
L 18.109375 54.6875 
L 18.109375 46.1875 
Q 21.1875 51.21875 25.484375 53.609375 
Q 29.78125 56 35.6875 56 
Q 41.65625 56 45.828125 52.96875 
Q 50 49.953125 52 44.1875 
z
" id="DejaVuSans-6d"/>
      <path d="M 54.890625 33.015625 
L 54.890625 0 
L 45.90625 0 
L 45.90625 32.71875 
Q 45.90625 40.484375 42.875 44.328125 
Q 39.84375 48.1875 33.796875 48.1875 
Q 26.515625 48.1875 22.3125 43.546875 
Q 18.109375 38.921875 18.109375 30.90625 
L 18.109375 0 
L 9.078125 0 
L 9.078125 54.6875 
L 18.109375 54.6875 
L 18.109375 46.1875 
Q 21.34375 51.125 25.703125 53.5625 
Q 30.078125 56 35.796875 56 
Q 45.21875 56 50.046875 50.171875 
Q 54.890625 44.34375 54.890625 33.015625 
z
" id="DejaVuSans-6e"/>
      <path d="M 8.015625 75.875 
L 15.828125 75.875 
Q 23.140625 64.359375 26.78125 53.3125 
Q 30.421875 42.28125 30.421875 31.390625 
Q 30.421875 20.453125 26.78125 9.375 
Q 23.140625 -1.703125 15.828125 -13.1875 
L 8.015625 -13.1875 
Q 14.5 -2 17.703125 9.0625 
Q 20.90625 20.125 20.90625 31.390625 
Q 20.90625 42.671875 17.703125 53.65625 
Q 14.5 64.65625 8.015625 75.875 
z
" id="DejaVuSans-29"/>
     </defs>
     <g transform="translate(73.803219 338.153594)scale(0.17 -0.17)">
      <use xlink:href="#DejaVuSans-6c"/>
      <use x="27.783203" xlink:href="#DejaVuSans-6f"/>
      <use x="88.964844" xlink:href="#DejaVuSans-67"/>
      <use x="152.441406" xlink:href="#DejaVuSans-31"/>
      <use x="216.064453" xlink:href="#DejaVuSans-30"/>
      <use x="279.6875" xlink:href="#DejaVuSans-28"/>
      <use x="318.701172" xlink:href="#DejaVuSans-23"/>
      <use x="402.490234" xlink:href="#DejaVuSans-20"/>
      <use x="434.277344" xlink:href="#DejaVuSans-66"/>
      <use x="469.404297" xlink:href="#DejaVuSans-2d"/>
      <use x="505.488281" xlink:href="#DejaVuSans-65"/>
      <use x="567.011719" xlink:href="#DejaVuSans-76"/>
      <use x="626.191406" xlink:href="#DejaVuSans-61"/>
      <use x="687.470703" xlink:href="#DejaVuSans-6c"/>
      <use x="715.253906" xlink:href="#DejaVuSans-73"/>
      <use x="767.353516" xlink:href="#DejaVuSans-20"/>
      <use x="799.140625" xlink:href="#DejaVuSans-2f"/>
      <use x="832.832031" xlink:href="#DejaVuSans-20"/>
      <use x="864.619141" xlink:href="#DejaVuSans-64"/>
      <use x="928.095703" xlink:href="#DejaVuSans-69"/>
      <use x="955.878906" xlink:href="#DejaVuSans-6d"/>
      <use x="1053.291016" xlink:href="#DejaVuSans-65"/>
      <use x="1114.814453" xlink:href="#DejaVuSans-6e"/>
      <use x="1178.193359" xlink:href="#DejaVuSans-73"/>
      <use x="1230.292969" xlink:href="#DejaVuSans-69"/>
      <use x="1258.076172" xlink:href="#DejaVuSans-6f"/>
      <use x="1319.257812" xlink:href="#DejaVuSans-6e"/>
      <use x="1382.636719" xlink:href="#DejaVuSans-29"/>
     </g>
    </g>
   </g>
   <g id="matplotlib.axis_2">
    <g id="ytick_1">
     <g id="line2d_29">
      <path clip-path="url(#p0fd347ab12)" d="M 56.12 294.88 
L 333.168 294.88 
" style="fill:none;stroke:#b0b0b0;stroke-linecap:square;stroke-width:0.8;"/>
     </g>
     <g id="line2d_30">
      <defs>
       <path d="M 0 0 
L -3.5 0 
" id="m7577144c5c" style="stroke:#000000;stroke-width:0.8;"/>
      </defs>
      <g>
       <use style="stroke:#000000;stroke-width:0.8;" x="56.12" xlink:href="#m7577144c5c" y="294.88"/>
      </g>
     </g>
     <g id="text_6">
      <!-- 0.0 -->
      <defs>
       <path d="M 10.6875 12.40625 
L 21 12.40625 
L 21 0 
L 10.6875 0 
z
" id="DejaVuSans-2e"/>
      </defs>
      <g transform="translate(23.675 300.95875)scale(0.16 -0.16)">
       <use xlink:href="#DejaVuSans-30"/>
       <use x="63.623047" xlink:href="#DejaVuSans-2e"/>
       <use x="95.410156" xlink:href="#DejaVuSans-30"/>
      </g>
     </g>
    </g>
    <g id="ytick_2">
     <g id="line2d_31">
      <path clip-path="url(#p0fd347ab12)" d="M 56.12 241.406733 
L 333.168 241.406733 
" style="fill:none;stroke:#b0b0b0;stroke-linecap:square;stroke-width:0.8;"/>
     </g>
     <g id="line2d_32">
      <g>
       <use style="stroke:#000000;stroke-width:0.8;" x="56.12" xlink:href="#m7577144c5c" y="241.406733"/>
      </g>
     </g>
     <g id="text_7">
      <!-- 0.2 -->
      <g transform="translate(23.675 247.485483)scale(0.16 -0.16)">
       <use xlink:href="#DejaVuSans-30"/>
       <use x="63.623047" xlink:href="#DejaVuSans-2e"/>
       <use x="95.410156" xlink:href="#DejaVuSans-32"/>
      </g>
     </g>
    </g>
    <g id="ytick_3">
     <g id="line2d_33">
      <path clip-path="url(#p0fd347ab12)" d="M 56.12 187.933465 
L 333.168 187.933465 
" style="fill:none;stroke:#b0b0b0;stroke-linecap:square;stroke-width:0.8;"/>
     </g>
     <g id="line2d_34">
      <g>
       <use style="stroke:#000000;stroke-width:0.8;" x="56.12" xlink:href="#m7577144c5c" y="187.933465"/>
      </g>
     </g>
     <g id="text_8">
      <!-- 0.4 -->
      <g transform="translate(23.675 194.012215)scale(0.16 -0.16)">
       <use xlink:href="#DejaVuSans-30"/>
       <use x="63.623047" xlink:href="#DejaVuSans-2e"/>
       <use x="95.410156" xlink:href="#DejaVuSans-34"/>
      </g>
     </g>
    </g>
    <g id="ytick_4">
     <g id="line2d_35">
      <path clip-path="url(#p0fd347ab12)" d="M 56.12 134.460198 
L 333.168 134.460198 
" style="fill:none;stroke:#b0b0b0;stroke-linecap:square;stroke-width:0.8;"/>
     </g>
     <g id="line2d_36">
      <g>
       <use style="stroke:#000000;stroke-width:0.8;" x="56.12" xlink:href="#m7577144c5c" y="134.460198"/>
      </g>
     </g>
     <g id="text_9">
      <!-- 0.6 -->
      <g transform="translate(23.675 140.538948)scale(0.16 -0.16)">
       <use xlink:href="#DejaVuSans-30"/>
       <use x="63.623047" xlink:href="#DejaVuSans-2e"/>
       <use x="95.410156" xlink:href="#DejaVuSans-36"/>
      </g>
     </g>
    </g>
    <g id="ytick_5">
     <g id="line2d_37">
      <path clip-path="url(#p0fd347ab12)" d="M 56.12 80.986931 
L 333.168 80.986931 
" style="fill:none;stroke:#b0b0b0;stroke-linecap:square;stroke-width:0.8;"/>
     </g>
     <g id="line2d_38">
      <g>
       <use style="stroke:#000000;stroke-width:0.8;" x="56.12" xlink:href="#m7577144c5c" y="80.986931"/>
      </g>
     </g>
     <g id="text_10">
      <!-- 0.8 -->
      <defs>
       <path d="M 31.78125 34.625 
Q 24.75 34.625 20.71875 30.859375 
Q 16.703125 27.09375 16.703125 20.515625 
Q 16.703125 13.921875 20.71875 10.15625 
Q 24.75 6.390625 31.78125 6.390625 
Q 38.8125 6.390625 42.859375 10.171875 
Q 46.921875 13.96875 46.921875 20.515625 
Q 46.921875 27.09375 42.890625 30.859375 
Q 38.875 34.625 31.78125 34.625 
z
M 21.921875 38.8125 
Q 15.578125 40.375 12.03125 44.71875 
Q 8.5 49.078125 8.5 55.328125 
Q 8.5 64.0625 14.71875 69.140625 
Q 20.953125 74.21875 31.78125 74.21875 
Q 42.671875 74.21875 48.875 69.140625 
Q 55.078125 64.0625 55.078125 55.328125 
Q 55.078125 49.078125 51.53125 44.71875 
Q 48 40.375 41.703125 38.8125 
Q 48.828125 37.15625 52.796875 32.3125 
Q 56.78125 27.484375 56.78125 20.515625 
Q 56.78125 9.90625 50.3125 4.234375 
Q 43.84375 -1.421875 31.78125 -1.421875 
Q 19.734375 -1.421875 13.25 4.234375 
Q 6.78125 9.90625 6.78125 20.515625 
Q 6.78125 27.484375 10.78125 32.3125 
Q 14.796875 37.15625 21.921875 38.8125 
z
M 18.3125 54.390625 
Q 18.3125 48.734375 21.84375 45.5625 
Q 25.390625 42.390625 31.78125 42.390625 
Q 38.140625 42.390625 41.71875 45.5625 
Q 45.3125 48.734375 45.3125 54.390625 
Q 45.3125 60.0625 41.71875 63.234375 
Q 38.140625 66.40625 31.78125 66.40625 
Q 25.390625 66.40625 21.84375 63.234375 
Q 18.3125 60.0625 18.3125 54.390625 
z
" id="DejaVuSans-38"/>
      </defs>
      <g transform="translate(23.675 87.065681)scale(0.16 -0.16)">
       <use xlink:href="#DejaVuSans-30"/>
       <use x="63.623047" xlink:href="#DejaVuSans-2e"/>
       <use x="95.410156" xlink:href="#DejaVuSans-38"/>
      </g>
     </g>
    </g>
    <g id="ytick_6">
     <g id="line2d_39">
      <path clip-path="url(#p0fd347ab12)" d="M 56.12 27.513663 
L 333.168 27.513663 
" style="fill:none;stroke:#b0b0b0;stroke-linecap:square;stroke-width:0.8;"/>
     </g>
     <g id="line2d_40">
      <g>
       <use style="stroke:#000000;stroke-width:0.8;" x="56.12" xlink:href="#m7577144c5c" y="27.513663"/>
      </g>
     </g>
     <g id="text_11">
      <!-- 1.0 -->
      <g transform="translate(23.675 33.592413)scale(0.16 -0.16)">
       <use xlink:href="#DejaVuSans-31"/>
       <use x="63.623047" xlink:href="#DejaVuSans-2e"/>
       <use x="95.410156" xlink:href="#DejaVuSans-30"/>
      </g>
     </g>
    </g>
    <g id="text_12">
     <!-- Fraction of function,target pairs -->
     <defs>
      <path d="M 9.8125 72.90625 
L 51.703125 72.90625 
L 51.703125 64.59375 
L 19.671875 64.59375 
L 19.671875 43.109375 
L 48.578125 43.109375 
L 48.578125 34.8125 
L 19.671875 34.8125 
L 19.671875 0 
L 9.8125 0 
z
" id="DejaVuSans-46"/>
      <path d="M 41.109375 46.296875 
Q 39.59375 47.171875 37.8125 47.578125 
Q 36.03125 48 33.890625 48 
Q 26.265625 48 22.1875 43.046875 
Q 18.109375 38.09375 18.109375 28.8125 
L 18.109375 0 
L 9.078125 0 
L 9.078125 54.6875 
L 18.109375 54.6875 
L 18.109375 46.1875 
Q 20.953125 51.171875 25.484375 53.578125 
Q 30.03125 56 36.53125 56 
Q 37.453125 56 38.578125 55.875 
Q 39.703125 55.765625 41.0625 55.515625 
z
" id="DejaVuSans-72"/>
      <path d="M 48.78125 52.59375 
L 48.78125 44.1875 
Q 44.96875 46.296875 41.140625 47.34375 
Q 37.3125 48.390625 33.40625 48.390625 
Q 24.65625 48.390625 19.8125 42.84375 
Q 14.984375 37.3125 14.984375 27.296875 
Q 14.984375 17.28125 19.8125 11.734375 
Q 24.65625 6.203125 33.40625 6.203125 
Q 37.3125 6.203125 41.140625 7.25 
Q 44.96875 8.296875 48.78125 10.40625 
L 48.78125 2.09375 
Q 45.015625 0.34375 40.984375 -0.53125 
Q 36.96875 -1.421875 32.421875 -1.421875 
Q 20.0625 -1.421875 12.78125 6.34375 
Q 5.515625 14.109375 5.515625 27.296875 
Q 5.515625 40.671875 12.859375 48.328125 
Q 20.21875 56 33.015625 56 
Q 37.15625 56 41.109375 55.140625 
Q 45.0625 54.296875 48.78125 52.59375 
z
" id="DejaVuSans-63"/>
      <path d="M 18.3125 70.21875 
L 18.3125 54.6875 
L 36.8125 54.6875 
L 36.8125 47.703125 
L 18.3125 47.703125 
L 18.3125 18.015625 
Q 18.3125 11.328125 20.140625 9.421875 
Q 21.96875 7.515625 27.59375 7.515625 
L 36.8125 7.515625 
L 36.8125 0 
L 27.59375 0 
Q 17.1875 0 13.234375 3.875 
Q 9.28125 7.765625 9.28125 18.015625 
L 9.28125 47.703125 
L 2.6875 47.703125 
L 2.6875 54.6875 
L 9.28125 54.6875 
L 9.28125 70.21875 
z
" id="DejaVuSans-74"/>
      <path d="M 8.5 21.578125 
L 8.5 54.6875 
L 17.484375 54.6875 
L 17.484375 21.921875 
Q 17.484375 14.15625 20.5 10.265625 
Q 23.53125 6.390625 29.59375 6.390625 
Q 36.859375 6.390625 41.078125 11.03125 
Q 45.3125 15.671875 45.3125 23.6875 
L 45.3125 54.6875 
L 54.296875 54.6875 
L 54.296875 0 
L 45.3125 0 
L 45.3125 8.40625 
Q 42.046875 3.421875 37.71875 1 
Q 33.40625 -1.421875 27.6875 -1.421875 
Q 18.265625 -1.421875 13.375 4.4375 
Q 8.5 10.296875 8.5 21.578125 
z
M 31.109375 56 
z
" id="DejaVuSans-75"/>
      <path d="M 11.71875 12.40625 
L 22.015625 12.40625 
L 22.015625 4 
L 14.015625 -11.625 
L 7.71875 -11.625 
L 11.71875 4 
z
" id="DejaVuSans-2c"/>
      <path d="M 18.109375 8.203125 
L 18.109375 -20.796875 
L 9.078125 -20.796875 
L 9.078125 54.6875 
L 18.109375 54.6875 
L 18.109375 46.390625 
Q 20.953125 51.265625 25.265625 53.625 
Q 29.59375 56 35.59375 56 
Q 45.5625 56 51.78125 48.09375 
Q 58.015625 40.1875 58.015625 27.296875 
Q 58.015625 14.40625 51.78125 6.484375 
Q 45.5625 -1.421875 35.59375 -1.421875 
Q 29.59375 -1.421875 25.265625 0.953125 
Q 20.953125 3.328125 18.109375 8.203125 
z
M 48.6875 27.296875 
Q 48.6875 37.203125 44.609375 42.84375 
Q 40.53125 48.484375 33.40625 48.484375 
Q 26.265625 48.484375 22.1875 42.84375 
Q 18.109375 37.203125 18.109375 27.296875 
Q 18.109375 17.390625 22.1875 11.75 
Q 26.265625 6.109375 33.40625 6.109375 
Q 40.53125 6.109375 44.609375 11.75 
Q 48.6875 17.390625 48.6875 27.296875 
z
" id="DejaVuSans-70"/>
     </defs>
     <g transform="translate(16.139531 294.999375)rotate(-90)scale(0.17 -0.17)">
      <use xlink:href="#DejaVuSans-46"/>
      <use x="57.410156" xlink:href="#DejaVuSans-72"/>
      <use x="98.523438" xlink:href="#DejaVuSans-61"/>
      <use x="159.802734" xlink:href="#DejaVuSans-63"/>
      <use x="214.783203" xlink:href="#DejaVuSans-74"/>
      <use x="253.992188" xlink:href="#DejaVuSans-69"/>
      <use x="281.775391" xlink:href="#DejaVuSans-6f"/>
      <use x="342.957031" xlink:href="#DejaVuSans-6e"/>
      <use x="406.335938" xlink:href="#DejaVuSans-20"/>
      <use x="438.123047" xlink:href="#DejaVuSans-6f"/>
      <use x="499.304688" xlink:href="#DejaVuSans-66"/>
      <use x="534.509766" xlink:href="#DejaVuSans-20"/>
      <use x="566.296875" xlink:href="#DejaVuSans-66"/>
      <use x="601.501953" xlink:href="#DejaVuSans-75"/>
      <use x="664.880859" xlink:href="#DejaVuSans-6e"/>
      <use x="728.259766" xlink:href="#DejaVuSans-63"/>
      <use x="783.240234" xlink:href="#DejaVuSans-74"/>
      <use x="822.449219" xlink:href="#DejaVuSans-69"/>
      <use x="850.232422" xlink:href="#DejaVuSans-6f"/>
      <use x="911.414062" xlink:href="#DejaVuSans-6e"/>
      <use x="974.792969" xlink:href="#DejaVuSans-2c"/>
      <use x="1006.580078" xlink:href="#DejaVuSans-74"/>
      <use x="1045.789062" xlink:href="#DejaVuSans-61"/>
      <use x="1107.068359" xlink:href="#DejaVuSans-72"/>
      <use x="1148.166016" xlink:href="#DejaVuSans-67"/>
      <use x="1211.642578" xlink:href="#DejaVuSans-65"/>
      <use x="1273.166016" xlink:href="#DejaVuSans-74"/>
      <use x="1312.375" xlink:href="#DejaVuSans-20"/>
      <use x="1344.162109" xlink:href="#DejaVuSans-70"/>
      <use x="1407.638672" xlink:href="#DejaVuSans-61"/>
      <use x="1468.917969" xlink:href="#DejaVuSans-69"/>
      <use x="1496.701172" xlink:href="#DejaVuSans-72"/>
      <use x="1537.814453" xlink:href="#DejaVuSans-73"/>
     </g>
    </g>
   </g>
   <g id="line2d_41">
    <defs>
     <path d="M 0 1.5 
C 0.397805 1.5 0.77937 1.341951 1.06066 1.06066 
C 1.341951 0.77937 1.5 0.397805 1.5 0 
C 1.5 -0.397805 1.341951 -0.77937 1.06066 -1.06066 
C 0.77937 -1.341951 0.397805 -1.5 0 -1.5 
C -0.397805 -1.5 -0.77937 -1.341951 -1.06066 -1.06066 
C -1.341951 -0.77937 -1.5 -0.397805 -1.5 0 
C -1.5 0.397805 -1.341951 0.77937 -1.06066 1.06066 
C -0.77937 1.341951 -0.397805 1.5 0 1.5 
z
" id="m4119ba4288" style="stroke:#f5deb3;"/>
    </defs>
    <g>
     <use style="fill:#f5deb3;stroke:#f5deb3;" x="136.757848" xlink:href="#m4119ba4288" y="27.513663"/>
     <use style="fill:#f5deb3;stroke:#f5deb3;" x="136.757848" xlink:href="#m4119ba4288" y="27.513663"/>
    </g>
   </g>
   <g id="line2d_42">
    <defs>
     <path d="M 0 1.5 
C 0.397805 1.5 0.77937 1.341951 1.06066 1.06066 
C 1.341951 0.77937 1.5 0.397805 1.5 0 
C 1.5 -0.397805 1.341951 -0.77937 1.06066 -1.06066 
C 0.77937 -1.341951 0.397805 -1.5 0 -1.5 
C -0.397805 -1.5 -0.77937 -1.341951 -1.06066 -1.06066 
C -1.341951 -0.77937 -1.5 -0.397805 -1.5 0 
C -1.5 0.397805 -1.341951 0.77937 -1.06066 1.06066 
C -0.77937 1.341951 -0.397805 1.5 0 1.5 
z
" id="m28d1cb2f1e" style="stroke:#000080;"/>
    </defs>
    <g>
     <use style="fill:#000080;stroke:#000080;" x="168.170147" xlink:href="#m28d1cb2f1e" y="27.513663"/>
     <use style="fill:#000080;stroke:#000080;" x="168.170147" xlink:href="#m28d1cb2f1e" y="27.513663"/>
    </g>
   </g>
   <g id="line2d_43">
    <path d="M 28.455965 294.88 
L 28.455965 288.589027 
L 40.370217 288.589027 
L 40.370217 284.395046 
L 47.339607 284.395046 
L 47.339607 277.579825 
L 52.284468 277.579825 
L 52.284468 273.385844 
L 56.12 273.385844 
L 56.12 272.337348 
L 59.253858 272.337348 
L 59.253858 271.8131 
L 64.198719 271.8131 
L 64.198719 270.240357 
L 66.223248 270.240357 
L 66.223248 269.716109 
L 68.034251 269.716109 
L 68.034251 267.619119 
L 69.672503 267.619119 
L 69.672503 267.094871 
L 71.168109 267.094871 
L 71.168109 266.570623 
L 72.543934 266.570623 
L 72.543934 266.046375 
L 75.003641 266.046375 
L 75.003641 264.99788 
L 79.066841 264.99788 
L 79.066841 263.425137 
L 79.948502 263.425137 
L 79.948502 262.900889 
L 81.586754 262.900889 
L 81.586754 261.328146 
L 82.350819 261.328146 
L 82.350819 260.803898 
L 85.732 260.803898 
L 85.732 259.755403 
L 91.862754 259.755403 
L 91.862754 258.706907 
L 92.70139 258.706907 
L 92.70139 257.658412 
L 96.038666 257.658412 
L 96.038666 257.134164 
L 96.699848 257.134164 
L 96.699848 256.085669 
L 97.646251 256.085669 
L 97.646251 255.561421 
L 100.470395 255.561421 
L 100.470395 253.988678 
L 101.481783 253.988678 
L 101.481783 253.46443 
L 102.20309 253.46443 
L 102.20309 252.415935 
L 103.990531 252.415935 
L 103.990531 250.843192 
L 105.020098 250.843192 
L 105.020098 250.318944 
L 106.179321 250.318944 
L 106.179321 248.746201 
L 106.730875 248.746201 
L 106.730875 248.221953 
L 108.120612 248.221953 
L 108.120612 247.697705 
L 108.775496 247.697705 
L 108.775496 247.173458 
L 109.093814 247.173458 
L 109.093814 246.124962 
L 113.148711 246.124962 
L 113.148711 245.600714 
L 115.145539 245.600714 
L 115.145539 245.076467 
L 115.58349 245.076467 
L 115.58349 244.552219 
L 116.324038 244.552219 
L 116.324038 242.979476 
L 117.426894 242.979476 
L 117.426894 241.93098 
L 118.825114 241.93098 
L 118.825114 241.406733 
L 120.283378 241.406733 
L 120.283378 240.358237 
L 120.528351 240.358237 
L 120.609239 239.309742 
L 121.627542 239.309742 
L 121.627542 238.785494 
L 122.803291 238.785494 
L 122.874172 235.640008 
L 123.154809 235.640008 
L 123.154809 233.543017 
L 124.036471 233.543017 
L 124.036471 232.494521 
L 124.233665 232.494521 
L 124.233665 231.446026 
L 124.685175 231.446026 
L 124.685175 230.397531 
L 124.875107 230.397531 
L 124.875107 228.824787 
L 125.062963 228.824787 
L 125.062963 226.727797 
L 126.610389 226.727797 
L 126.667211 225.679301 
L 126.836558 225.679301 
L 126.836558 225.155053 
L 127.977455 225.155053 
L 128.029939 224.106558 
L 128.289984 224.106558 
L 128.289984 223.58231 
L 128.495224 223.58231 
L 128.495224 223.058063 
L 128.8486 223.058063 
L 128.8486 221.485319 
L 129.047315 221.485319 
L 129.047315 220.961072 
L 130.007824 220.961072 
L 130.007824 220.436824 
L 130.377486 220.436824 
L 130.377486 219.912576 
L 131.005861 219.912576 
L 131.005861 217.815585 
L 131.398014 217.815585 
L 131.398014 217.291338 
L 131.865471 217.291338 
L 131.865471 215.718594 
L 132.032353 215.718594 
L 132.032353 214.670099 
L 132.156459 214.670099 
L 132.156459 213.621604 
L 133.000983 213.621604 
L 133.040181 212.04886 
L 133.234845 212.04886 
L 133.234845 211.524613 
L 133.843356 211.524613 
L 133.843356 211.000365 
L 134.066106 211.000365 
L 134.066106 209.95187 
L 134.503128 209.95187 
L 134.503128 207.854879 
L 134.753019 207.854879 
L 134.753019 207.330631 
L 135.03423 207.330631 
L 135.06906 206.282136 
L 135.413533 206.282136 
L 135.413533 205.757888 
L 135.583215 205.757888 
L 135.583215 205.23364 
L 135.884484 205.23364 
L 135.950722 203.136649 
L 136.245672 203.136649 
L 136.245672 202.612401 
L 136.439531 202.612401 
L 136.439531 201.039658 
L 136.599426 201.039658 
L 136.631228 199.466915 
L 137.738571 199.466915 
L 137.738571 198.942667 
L 137.945844 198.942667 
L 137.945844 198.41842 
L 138.208716 198.41842 
L 138.208716 196.321429 
L 138.7227 196.321429 
L 138.7227 195.272933 
L 138.946296 195.272933 
L 138.946296 194.748686 
L 139.786254 194.748686 
L 139.839061 192.127447 
L 140.281488 192.127447 
L 140.383954 191.078952 
L 140.787817 191.078952 
L 140.787817 190.554704 
L 141.279657 190.554704 
L 141.279657 190.030456 
L 141.591967 190.030456 
L 141.615758 188.457713 
L 141.710592 188.457713 
L 141.757814 187.409218 
L 141.828403 187.409218 
L 141.828403 186.88497 
L 141.945413 186.88497 
L 141.945413 184.263731 
L 142.223028 184.263731 
L 142.314579 182.690988 
L 142.428336 182.690988 
L 142.428336 181.642493 
L 142.964129 181.642493 
L 142.964129 181.118245 
L 143.398208 181.118245 
L 143.398208 180.593997 
L 143.674593 180.593997 
L 143.674593 177.972759 
L 144.377111 177.972759 
L 144.377111 177.448511 
L 144.737725 177.448511 
L 144.816844 174.827272 
L 144.895601 174.827272 
L 144.895601 173.778777 
L 145.032563 173.778777 
L 145.032563 173.254529 
L 145.187766 173.254529 
L 145.264845 170.109043 
L 145.303255 170.109043 
L 145.34158 169.060547 
L 146.072324 169.060547 
L 146.127269 167.487804 
L 146.291058 167.487804 
L 146.39939 163.293823 
L 146.489148 163.293823 
L 146.524921 161.721079 
L 146.614027 161.721079 
L 146.614027 161.196832 
L 146.738006 161.196832 
L 146.808451 159.624089 
L 146.948481 159.624089 
L 146.948481 158.575593 
L 147.070079 158.575593 
L 147.139179 157.00285 
L 147.208003 157.00285 
L 147.208003 156.478602 
L 147.395858 156.478602 
L 147.395858 155.954354 
L 147.548046 155.954354 
L 147.548046 155.430107 
L 147.732242 155.430107 
L 147.732242 154.905859 
L 147.864973 154.905859 
L 147.864973 154.381611 
L 148.624726 154.381611 
L 148.719342 152.808868 
L 148.766456 152.808868 
L 148.766456 151.760373 
L 149.031022 151.760373 
L 149.031022 151.236125 
L 149.200066 151.236125 
L 149.291576 150.18763 
L 149.352314 150.18763 
L 149.352314 149.663382 
L 149.56322 149.663382 
L 149.56322 148.614886 
L 149.830637 148.614886 
L 149.830637 147.566391 
L 150.093957 147.566391 
L 150.093957 146.517896 
L 150.324681 146.517896 
L 150.381881 144.420905 
L 150.566477 144.420905 
L 150.636952 142.848162 
L 150.80492 142.848162 
L 150.902149 141.275418 
L 151.108663 141.275418 
L 151.108663 138.65418 
L 151.244973 138.65418 
L 151.244973 138.129932 
L 151.393676 138.129932 
L 151.474248 136.032941 
L 151.634268 136.032941 
L 151.713722 134.984446 
L 151.845336 134.984446 
L 151.936869 133.93595 
L 151.975949 133.93595 
L 152.053843 132.363207 
L 152.221413 132.363207 
L 152.221413 131.838959 
L 152.639586 131.838959 
L 152.714537 128.169225 
L 152.764323 128.169225 
L 152.838733 125.547987 
L 152.888161 125.547987 
L 152.888161 125.023739 
L 153.434649 125.023739 
L 153.434649 123.975244 
L 153.824645 123.975244 
L 153.824645 123.450996 
L 154.033698 123.450996 
L 154.033698 122.926748 
L 154.365249 122.926748 
L 154.455596 121.878253 
L 154.690524 121.878253 
L 154.690524 121.354005 
L 154.812312 121.354005 
L 154.812312 120.829757 
L 154.95514 120.829757 
L 154.95514 119.781262 
L 155.09679 119.781262 
L 155.09679 119.257014 
L 155.387309 119.257014 
L 155.387309 117.160023 
L 155.536037 117.160023 
L 155.536037 116.635776 
L 155.725388 116.635776 
L 155.725388 115.58728 
L 155.860855 115.58728 
L 155.964339 113.490289 
L 156.005559 113.490289 
L 156.108178 110.344803 
L 156.169456 110.344803 
L 156.169456 109.296308 
L 156.392294 109.296308 
L 156.492636 107.199317 
L 156.582447 107.199317 
L 156.651976 104.578078 
L 156.907793 104.578078 
L 157.014888 101.432592 
L 158.331631 101.432592 
L 158.430236 97.762858 
L 158.45703 97.762858 
L 158.45703 97.23861 
L 158.581522 97.23861 
L 158.625765 96.190115 
L 158.731488 96.190115 
L 158.766584 94.093124 
L 158.880156 94.093124 
L 158.906259 93.044628 
L 159.087877 93.044628 
L 159.087877 91.471885 
L 159.199352 91.471885 
L 159.284613 89.899142 
L 159.445454 89.899142 
L 159.470713 88.850646 
L 159.654819 88.850646 
L 159.72957 87.277903 
L 159.853438 87.277903 
L 159.853438 86.753656 
L 160.025366 86.753656 
L 160.130943 85.180912 
L 160.155215 85.180912 
L 160.179453 83.608169 
L 160.292113 83.608169 
L 160.300132 80.462683 
L 160.412006 80.462683 
L 160.412006 79.414188 
L 160.657167 79.414188 
L 160.751137 76.792949 
L 160.821278 76.792949 
L 160.852361 75.220206 
L 160.976132 75.220206 
L 160.976132 73.647463 
L 161.342186 73.647463 
L 161.342186 73.123215 
L 161.6117 73.123215 
L 161.707995 71.026224 
L 161.825776 71.026224 
L 161.906285 65.783747 
L 162.080643 65.783747 
L 162.109531 64.735251 
L 162.238932 64.735251 
L 162.317533 63.162508 
L 162.733095 63.162508 
L 162.8164 60.017022 
L 162.940606 60.017022 
L 162.940606 56.871536 
L 163.199907 56.871536 
L 163.233737 55.82304 
L 163.368392 55.82304 
L 163.448681 54.250297 
L 163.674153 54.250297 
L 163.759587 52.677554 
L 163.785789 52.677554 
L 163.864157 49.532068 
L 163.968094 49.532068 
L 163.968094 49.00782 
L 164.116412 49.00782 
L 164.225221 47.959324 
L 164.257094 47.959324 
L 164.257094 46.910829 
L 164.453392 46.910829 
L 164.535049 44.28959 
L 164.659921 44.28959 
L 164.752984 40.619856 
L 164.85785 40.619856 
L 164.85785 39.571361 
L 165.029187 39.571361 
L 165.120276 36.950122 
L 165.28903 36.950122 
L 165.3489 35.377379 
L 165.42047 35.377379 
L 165.42047 34.853131 
L 165.621647 34.853131 
L 165.621647 33.804636 
L 165.808863 33.804636 
L 165.808863 33.280388 
L 165.942177 33.280388 
L 166.03431 30.65915 
L 166.131664 30.65915 
L 166.131664 30.134902 
L 166.341665 30.134902 
L 166.341665 29.610654 
L 166.521241 29.610654 
L 166.521241 29.086407 
L 167.497822 29.086407 
L 167.497822 28.562159 
L 167.899212 28.562159 
L 167.899212 28.037911 
L 168.170147 28.037911 
L 168.170147 27.513663 
L 333.168 27.513663 
L 333.168 27.513663 
" style="fill:none;stroke:#000080;stroke-linecap:square;stroke-width:1.5;"/>
   </g>
   <g id="line2d_44">
    <defs>
     <path d="M 0 6 
C 1.591219 6 3.117479 5.367802 4.242641 4.242641 
C 5.367802 3.117479 6 1.591219 6 0 
C 6 -1.591219 5.367802 -3.117479 4.242641 -4.242641 
C 3.117479 -5.367802 1.591219 -6 0 -6 
C -1.591219 -6 -3.117479 -5.367802 -4.242641 -4.242641 
C -5.367802 -3.117479 -6 -1.591219 -6 0 
C -6 1.591219 -5.367802 3.117479 -4.242641 4.242641 
C -3.117479 5.367802 -1.591219 6 0 6 
z
" id="m57e185d456" style="stroke:#000080;stroke-width:1.5;"/>
    </defs>
    <g>
     <use style="fill-opacity:0;stroke:#000080;stroke-width:1.5;" x="79.948502" xlink:href="#m57e185d456" y="263.425137"/>
     <use style="fill-opacity:0;stroke:#000080;stroke-width:1.5;" x="141.945413" xlink:href="#m57e185d456" y="186.88497"/>
     <use style="fill-opacity:0;stroke:#000080;stroke-width:1.5;" x="165.621647" xlink:href="#m57e185d456" y="34.853131"/>
     <use style="fill-opacity:0;stroke:#000080;stroke-width:1.5;" x="168.170147" xlink:href="#m57e185d456" y="27.513663"/>
     <use style="fill-opacity:0;stroke:#000080;stroke-width:1.5;" x="168.170147" xlink:href="#m57e185d456" y="27.513663"/>
     <use style="fill-opacity:0;stroke:#000080;stroke-width:1.5;" x="333.168" xlink:href="#m57e185d456" y="27.513663"/>
    </g>
   </g>
   <g id="line2d_45">
    <path style="fill:none;stroke:#000080;stroke-linecap:square;stroke-width:1.5;"/>
    <g/>
   </g>
   <g id="line2d_46">
    <defs>
     <path d="M 0 1.5 
C 0.397805 1.5 0.77937 1.341951 1.06066 1.06066 
C 1.341951 0.77937 1.5 0.397805 1.5 0 
C 1.5 -0.397805 1.341951 -0.77937 1.06066 -1.06066 
C 0.77937 -1.341951 0.397805 -1.5 0 -1.5 
C -0.397805 -1.5 -0.77937 -1.341951 -1.06066 -1.06066 
C -1.341951 -0.77937 -1.5 -0.397805 -1.5 0 
C -1.5 0.397805 -1.341951 0.77937 -1.06066 1.06066 
C -0.77937 1.341951 -0.397805 1.5 0 1.5 
z
" id="m4d70d67f7b" style="stroke:#ff00ff;"/>
    </defs>
    <g>
     <use style="fill:#ff00ff;stroke:#ff00ff;" x="179.095358" xlink:href="#m4d70d67f7b" y="27.513663"/>
     <use style="fill:#ff00ff;stroke:#ff00ff;" x="179.095358" xlink:href="#m4d70d67f7b" y="27.513663"/>
    </g>
   </g>
   <g id="line2d_47">
    <path d="M 28.455965 294.88 
L 28.455965 287.540532 
L 40.370217 287.540532 
L 40.370217 275.482834 
L 47.339607 275.482834 
L 47.339607 274.958587 
L 52.284468 274.958587 
L 52.284468 273.385844 
L 56.12 273.385844 
L 56.12 272.337348 
L 59.253858 272.337348 
L 59.253858 270.764605 
L 66.223248 270.764605 
L 66.223248 268.667614 
L 69.672503 268.667614 
L 69.672503 268.143366 
L 72.543934 268.143366 
L 72.543934 267.094871 
L 73.817748 267.094871 
L 73.817748 266.046375 
L 78.137499 266.046375 
L 78.137499 264.473632 
L 79.066841 264.473632 
L 79.066841 262.900889 
L 81.586754 262.900889 
L 81.586754 262.376641 
L 83.08236 262.376641 
L 83.08236 261.852394 
L 85.732 261.852394 
L 85.732 261.328146 
L 86.335171 261.328146 
L 86.335171 258.18266 
L 88.556144 258.18266 
L 88.556144 257.658412 
L 90.981092 257.658412 
L 90.981092 257.134164 
L 91.427575 257.134164 
L 91.427575 256.609917 
L 92.70139 256.609917 
L 92.70139 256.085669 
L 93.105847 256.085669 
L 93.105847 255.561421 
L 93.501005 255.561421 
L 93.501005 255.037173 
L 95.698286 255.037173 
L 95.698286 254.512926 
L 97.646251 254.512926 
L 97.646251 253.988678 
L 98.249422 253.988678 
L 98.249422 253.46443 
L 99.941473 253.46443 
L 99.941473 252.940182 
L 103.120034 252.940182 
L 103.120034 252.415935 
L 103.341826 252.415935 
L 103.341826 251.367439 
L 103.560793 251.367439 
L 103.560793 250.843192 
L 105.020098 250.843192 
L 105.020098 250.318944 
L 105.218813 250.318944 
L 105.218813 249.794696 
L 106.730875 249.794696 
L 106.730875 249.270448 
L 107.088985 249.270448 
L 107.088985 248.746201 
L 107.26528 248.746201 
L 107.26528 247.697705 
L 107.952917 247.697705 
L 107.952917 247.173458 
L 108.286687 247.173458 
L 108.286687 246.64921 
L 108.451173 246.64921 
L 108.451173 245.076467 
L 108.6141 245.076467 
L 108.6141 244.552219 
L 108.935392 244.552219 
L 108.935392 243.503724 
L 109.250788 243.503724 
L 109.250788 242.979476 
L 109.406343 242.979476 
L 109.406343 242.455228 
L 109.864733 242.455228 
L 109.864733 241.93098 
L 110.746395 241.93098 
L 110.746395 241.406733 
L 111.170827 241.406733 
L 111.170827 240.882485 
L 111.855724 240.882485 
L 111.855724 239.83399 
L 112.253934 239.83399 
L 112.253934 239.309742 
L 113.023703 239.309742 
L 113.023703 238.785494 
L 113.999206 238.785494 
L 113.999206 238.261246 
L 114.117341 238.261246 
L 114.117341 237.736999 
L 114.351204 237.736999 
L 114.351204 236.688503 
L 114.466953 236.688503 
L 114.466953 236.164255 
L 114.581927 236.164255 
L 114.581927 235.640008 
L 114.922307 235.640008 
L 114.922307 233.018769 
L 115.034286 233.018769 
L 115.034286 232.494521 
L 115.365909 232.494521 
L 115.365909 231.970274 
L 115.691256 231.970274 
L 115.691256 230.921778 
L 116.115688 230.921778 
L 116.220179 229.873283 
L 116.324038 229.873283 
L 116.324038 228.824787 
L 116.529892 228.824787 
L 116.631902 226.727797 
L 116.73331 226.727797 
L 116.73331 226.203549 
L 117.033994 226.203549 
L 117.133064 225.155053 
L 117.329507 225.155053 
L 117.329507 223.58231 
L 117.999901 223.58231 
L 117.999901 223.058063 
L 118.186736 223.058063 
L 118.186736 222.533815 
L 118.371562 222.533815 
L 118.371562 222.009567 
L 119.267005 222.009567 
L 119.267005 219.388328 
L 119.526788 219.388328 
L 119.612517 216.242842 
L 120.118102 216.242842 
L 120.118102 215.718594 
L 120.283378 215.718594 
L 120.283378 214.670099 
L 120.689748 214.670099 
L 120.689748 213.621604 
L 120.849643 213.621604 
L 120.849643 209.95187 
L 121.086731 209.95187 
L 121.086731 209.427622 
L 121.70343 209.427622 
L 121.70343 208.379126 
L 122.151854 208.379126 
L 122.225468 205.757888 
L 122.298767 205.757888 
L 122.298767 205.23364 
L 122.732117 205.23364 
L 122.732117 204.709392 
L 123.224258 204.709392 
L 123.224258 204.185145 
L 123.430938 204.185145 
L 123.430938 203.660897 
L 123.635161 203.660897 
L 123.635161 203.136649 
L 123.903739 203.136649 
L 123.903739 202.612401 
L 124.036471 202.612401 
L 124.036471 202.088154 
L 124.168185 202.088154 
L 124.168185 199.991163 
L 124.298898 199.991163 
L 124.298898 199.466915 
L 124.428624 199.466915 
L 124.428624 198.41842 
L 125.187069 198.41842 
L 125.187069 197.894172 
L 125.49347 197.894172 
L 125.49347 197.369924 
L 125.972626 197.369924 
L 125.972626 196.845677 
L 126.381204 196.845677 
L 126.381204 196.321429 
L 126.553378 196.321429 
L 126.610389 194.748686 
L 126.723846 194.748686 
L 126.723846 194.224438 
L 127.443604 194.224438 
L 127.551708 193.175943 
L 127.819033 193.175943 
L 127.819033 192.127447 
L 127.977455 192.127447 
L 127.977455 191.603199 
L 128.186438 191.603199 
L 128.186438 190.030456 
L 128.341524 190.030456 
L 128.444143 188.457713 
L 129.437982 188.457713 
L 129.534278 186.88497 
L 129.867125 186.88497 
L 129.867125 186.360722 
L 130.100987 186.360722 
L 130.100987 185.836474 
L 130.917487 185.836474 
L 130.917487 185.312227 
L 131.049878 185.312227 
L 131.049878 184.787979 
L 131.526768 184.787979 
L 131.526768 183.739484 
L 131.990784 183.739484 
L 132.073821 182.16674 
L 132.156459 182.16674 
L 132.156459 181.642493 
L 132.483094 181.642493 
L 132.52349 179.545502 
L 132.961694 179.545502 
L 132.961694 176.924263 
L 133.312097 176.924263 
L 133.312097 176.400016 
L 133.579779 176.400016 
L 133.579779 175.875768 
L 134.467131 175.875768 
L 134.574897 174.303025 
L 134.646368 174.303025 
L 134.646368 173.778777 
L 134.8942 173.778777 
L 134.964358 170.633291 
L 135.06906 170.633291 
L 135.06906 170.109043 
L 135.684226 170.109043 
L 135.684226 169.584795 
L 135.851269 169.584795 
L 135.851269 169.060547 
L 136.213149 169.060547 
L 136.213149 166.439309 
L 136.946047 166.439309 
L 136.946047 164.866566 
L 137.255203 164.866566 
L 137.255203 164.342318 
L 137.377325 164.342318 
L 137.468351 163.293823 
L 137.528768 163.293823 
L 137.558897 162.245327 
L 138.09238 162.245327 
L 138.179706 160.672584 
L 138.237678 160.672584 
L 138.237678 160.148336 
L 138.46763 160.148336 
L 138.553074 157.527098 
L 138.609803 157.527098 
L 138.638097 156.478602 
L 138.750809 156.478602 
L 138.750809 155.954354 
L 138.946296 155.954354 
L 138.946296 155.430107 
L 139.194412 155.430107 
L 139.303546 152.808868 
L 139.384945 152.808868 
L 139.46596 151.236125 
L 139.970373 151.236125 
L 139.970373 150.711877 
L 140.434959 150.711877 
L 140.460404 149.663382 
L 140.561812 149.663382 
L 140.561812 149.139134 
L 140.936852 149.139134 
L 140.936852 147.566391 
L 141.496475 147.566391 
L 141.496475 147.042143 
L 141.639516 147.042143 
L 141.639516 146.517896 
L 141.991995 146.517896 
L 141.991995 145.4694 
L 142.314579 145.4694 
L 142.337391 143.372409 
L 142.875982 143.372409 
L 142.875982 142.848162 
L 143.051826 142.848162 
L 143.051826 142.323914 
L 143.182539 142.323914 
L 143.247524 140.751171 
L 143.398208 140.751171 
L 143.419627 139.178427 
L 143.925832 139.178427 
L 143.925832 138.65418 
L 144.050088 138.65418 
L 144.132429 137.605684 
L 144.558363 137.605684 
L 144.638311 136.032941 
L 144.698028 136.032941 
L 144.717888 134.984446 
L 144.816844 134.984446 
L 144.836567 133.93595 
L 144.934844 133.93595 
L 145.013063 131.838959 
L 145.110339 131.838959 
L 145.110339 130.790464 
L 145.37982 130.790464 
L 145.37982 130.266216 
L 145.64514 130.266216 
L 145.64514 129.741969 
L 146.017203 129.741969 
L 146.017203 129.217721 
L 146.145545 129.217721 
L 146.145545 128.693473 
L 146.272936 128.693473 
L 146.272936 128.169225 
L 146.489148 128.169225 
L 146.542779 126.072235 
L 146.738006 126.072235 
L 146.790867 124.499491 
L 146.861096 124.499491 
L 146.861096 123.975244 
L 147.104664 123.975244 
L 147.104664 123.450996 
L 147.242311 123.450996 
L 147.242311 122.926748 
L 147.531203 122.926748 
L 147.598477 120.829757 
L 147.914484 120.829757 
L 147.914484 120.30551 
L 148.143669 120.30551 
L 148.176162 118.732766 
L 148.273273 118.732766 
L 148.273273 118.208519 
L 148.561358 118.208519 
L 148.640531 116.635776 
L 148.703609 116.635776 
L 148.703609 116.111528 
L 148.860298 116.111528 
L 148.907027 115.063032 
L 149.07729 115.063032 
L 149.07729 114.014537 
L 149.200066 114.014537 
L 149.245882 112.441794 
L 149.352314 112.441794 
L 149.352314 111.917546 
L 149.518243 111.917546 
L 149.518243 111.393298 
L 149.682586 111.393298 
L 149.756771 109.820555 
L 149.830637 109.820555 
L 149.889502 108.77206 
L 150.05035 108.77206 
L 150.108469 106.150821 
L 150.22412 106.150821 
L 150.238522 105.102326 
L 150.338998 105.102326 
L 150.424656 104.05383 
L 150.665061 104.05383 
L 150.735133 102.481087 
L 150.80492 102.481087 
L 150.860547 101.432592 
L 150.957462 101.432592 
L 150.957462 100.908344 
L 151.081271 100.908344 
L 151.163317 99.335601 
L 151.244973 99.335601 
L 151.339751 97.23861 
L 151.474248 97.23861 
L 151.567774 96.190115 
L 151.634268 96.190115 
L 151.674041 94.617371 
L 151.884624 94.617371 
L 151.975949 93.568876 
L 152.001953 93.568876 
L 152.092658 92.520381 
L 152.170027 92.520381 
L 152.247048 90.42339 
L 152.652101 90.42339 
L 152.739448 88.850646 
L 152.97432 88.850646 
L 152.97432 88.326399 
L 153.157504 88.326399 
L 153.218134 86.753656 
L 153.302659 86.753656 
L 153.398752 85.180912 
L 153.577492 85.180912 
L 153.64847 81.511178 
L 153.742655 81.511178 
L 153.742655 80.986931 
L 153.929489 80.986931 
L 154.033698 79.414188 
L 154.068295 79.414188 
L 154.068295 78.365692 
L 154.183116 78.365692 
L 154.251642 75.220206 
L 154.590234 75.220206 
L 154.657159 74.17171 
L 154.779183 74.17171 
L 154.87838 71.550472 
L 154.900346 71.550472 
L 154.900346 71.026224 
L 155.020662 71.026224 
L 155.075074 69.977729 
L 155.258795 69.977729 
L 155.30174 68.929233 
L 155.429934 68.929233 
L 155.429934 68.404985 
L 155.599386 68.404985 
L 155.651999 66.832242 
L 155.735846 66.832242 
L 155.735846 66.307995 
L 155.881602 66.307995 
L 155.974653 63.162508 
L 156.026132 63.162508 
L 156.108178 61.065517 
L 156.149054 61.065517 
L 156.220355 60.017022 
L 156.281236 60.017022 
L 156.281236 58.968526 
L 156.462595 58.968526 
L 156.462595 58.444279 
L 156.622212 58.444279 
L 156.661886 56.871536 
L 156.74096 56.871536 
L 156.74096 56.347288 
L 156.917557 56.347288 
L 157.014888 55.298792 
L 157.082693 55.298792 
L 157.082693 54.774545 
L 157.3798 54.774545 
L 157.484002 52.677554 
L 157.559391 52.677554 
L 157.653165 51.104811 
L 157.709184 51.104811 
L 157.709184 50.580563 
L 157.903827 50.580563 
L 158.00491 49.532068 
L 158.078053 49.532068 
L 158.187188 47.435077 
L 158.519389 47.435077 
L 158.625765 46.386581 
L 158.757817 46.386581 
L 158.757817 45.862334 
L 158.949676 45.862334 
L 158.967012 44.813838 
L 159.079271 44.813838 
L 159.165129 43.765343 
L 159.352519 43.765343 
L 159.437026 41.668352 
L 159.495934 41.668352 
L 159.495934 41.144104 
L 159.795744 41.144104 
L 159.861664 40.095609 
L 159.960072 40.095609 
L 159.960072 39.571361 
L 160.203656 39.571361 
L 160.203656 38.522865 
L 160.435885 38.522865 
L 160.475609 36.950122 
L 160.688547 36.950122 
L 160.688547 36.425875 
L 160.875636 36.425875 
L 160.875636 35.901627 
L 161.693215 35.901627 
L 161.693215 35.377379 
L 162.087869 35.377379 
L 162.087869 34.853131 
L 162.296132 34.853131 
L 162.296132 34.328884 
L 162.445383 34.328884 
L 162.445383 33.804636 
L 162.565263 33.804636 
L 162.586332 32.756141 
L 162.885514 32.756141 
L 162.968086 31.707645 
L 163.057093 31.707645 
L 163.057093 31.183397 
L 164.237977 31.183397 
L 164.237977 30.65915 
L 166.9131 30.65915 
L 166.9131 30.134902 
L 169.581438 30.134902 
L 169.581438 29.610654 
L 178.530134 29.610654 
L 178.635298 28.562159 
L 178.808242 28.562159 
L 178.808242 28.037911 
L 179.095358 28.037911 
L 179.095358 27.513663 
L 333.168 27.513663 
L 333.168 27.513663 
" style="fill:none;stroke:#ff00ff;stroke-linecap:square;stroke-width:1.5;"/>
   </g>
   <g id="line2d_48">
    <defs>
     <path d="M -0 8.485281 
L 5.091169 0 
L 0 -8.485281 
L -5.091169 -0 
z
" id="mc77b021fcb" style="stroke:#ff00ff;stroke-linejoin:miter;stroke-width:1.5;"/>
    </defs>
    <g>
     <use style="fill-opacity:0;stroke:#ff00ff;stroke-linejoin:miter;stroke-width:1.5;" x="114.581927" xlink:href="#mc77b021fcb" y="235.640008"/>
     <use style="fill-opacity:0;stroke:#ff00ff;stroke-linejoin:miter;stroke-width:1.5;" x="149.200066" xlink:href="#mc77b021fcb" y="114.014537"/>
     <use style="fill-opacity:0;stroke:#ff00ff;stroke-linejoin:miter;stroke-width:1.5;" x="179.095358" xlink:href="#mc77b021fcb" y="28.037911"/>
     <use style="fill-opacity:0;stroke:#ff00ff;stroke-linejoin:miter;stroke-width:1.5;" x="179.095358" xlink:href="#mc77b021fcb" y="27.513663"/>
     <use style="fill-opacity:0;stroke:#ff00ff;stroke-linejoin:miter;stroke-width:1.5;" x="179.095358" xlink:href="#mc77b021fcb" y="27.513663"/>
     <use style="fill-opacity:0;stroke:#ff00ff;stroke-linejoin:miter;stroke-width:1.5;" x="333.168" xlink:href="#mc77b021fcb" y="27.513663"/>
    </g>
   </g>
   <g id="line2d_49">
    <path style="fill:none;stroke:#ff00ff;stroke-linecap:square;stroke-width:1.5;"/>
    <g/>
   </g>
   <g id="line2d_50">
    <defs>
     <path d="M 0 1.5 
C 0.397805 1.5 0.77937 1.341951 1.06066 1.06066 
C 1.341951 0.77937 1.5 0.397805 1.5 0 
C 1.5 -0.397805 1.341951 -0.77937 1.06066 -1.06066 
C 0.77937 -1.341951 0.397805 -1.5 0 -1.5 
C -0.397805 -1.5 -0.77937 -1.341951 -1.06066 -1.06066 
C -1.341951 -0.77937 -1.5 -0.397805 -1.5 0 
C -1.5 0.397805 -1.341951 0.77937 -1.06066 1.06066 
C -0.77937 1.341951 -0.397805 1.5 0 1.5 
z
" id="me3be5abe15" style="stroke:#ff7500;"/>
    </defs>
    <g>
     <use style="fill:#ff7500;stroke:#ff7500;" x="164.610081" xlink:href="#me3be5abe15" y="27.513663"/>
     <use style="fill:#ff7500;stroke:#ff7500;" x="164.610081" xlink:href="#me3be5abe15" y="27.513663"/>
    </g>
   </g>
   <g id="line2d_51">
    <path d="M 28.455965 294.88 
L 28.455965 285.967789 
L 40.370217 285.967789 
L 40.370217 277.055578 
L 47.339607 277.055578 
L 47.339607 273.910091 
L 56.12 273.910091 
L 56.12 273.385844 
L 59.253858 273.385844 
L 59.253858 268.667614 
L 61.903497 268.667614 
L 61.903497 267.619119 
L 64.198719 267.619119 
L 64.198719 267.094871 
L 66.223248 267.094871 
L 66.223248 266.570623 
L 68.034251 266.570623 
L 68.034251 266.046375 
L 71.168109 266.046375 
L 71.168109 265.522128 
L 72.543934 265.522128 
L 72.543934 263.425137 
L 73.817748 263.425137 
L 73.817748 261.852394 
L 75.003641 261.852394 
L 75.003641 260.279651 
L 76.11297 260.279651 
L 76.11297 259.755403 
L 79.066841 259.755403 
L 79.066841 258.706907 
L 81.586754 258.706907 
L 81.586754 257.658412 
L 88.556144 257.658412 
L 88.556144 257.134164 
L 89.567532 257.134164 
L 89.567532 256.609917 
L 90.05175 256.609917 
L 90.05175 255.037173 
L 92.287186 255.037173 
L 92.287186 253.988678 
L 94.634732 253.988678 
L 94.634732 251.891687 
L 94.996612 251.891687 
L 94.996612 251.367439 
L 98.543252 251.367439 
L 98.543252 250.318944 
L 99.11626 250.318944 
L 99.11626 249.794696 
L 100.207968 249.794696 
L 100.207968 248.746201 
L 103.990531 248.746201 
L 103.990531 248.221953 
L 104.201437 248.221953 
L 104.201437 247.697705 
L 104.615641 247.697705 
L 104.615641 247.173458 
L 105.020098 247.173458 
L 105.020098 246.64921 
L 105.801534 246.64921 
L 105.801534 246.124962 
L 107.783569 246.124962 
L 107.783569 245.600714 
L 108.120612 245.600714 
L 108.120612 245.076467 
L 108.451173 245.076467 
L 108.451173 244.552219 
L 109.093814 244.552219 
L 109.093814 244.027971 
L 109.250788 244.027971 
L 109.250788 241.93098 
L 110.014853 241.93098 
L 110.014853 241.406733 
L 112.897778 241.406733 
L 112.897778 240.882485 
L 113.880253 240.882485 
L 113.880253 240.358237 
L 113.999206 240.358237 
L 113.999206 239.83399 
L 114.351204 239.83399 
L 114.351204 239.309742 
L 114.466953 239.309742 
L 114.466953 238.785494 
L 114.696138 238.785494 
L 114.696138 238.261246 
L 115.798351 238.261246 
L 115.904782 236.688503 
L 116.115688 236.688503 
L 116.115688 235.640008 
L 116.427273 235.640008 
L 116.529892 234.591512 
L 116.631902 234.591512 
L 116.73331 233.018769 
L 117.811013 233.018769 
L 117.811013 232.494521 
L 117.999901 232.494521 
L 117.999901 231.970274 
L 118.186736 231.970274 
L 118.186736 231.446026 
L 118.554421 231.446026 
L 118.554421 230.921778 
L 119.179531 230.921778 
L 119.179531 230.397531 
L 119.354037 230.397531 
L 119.440629 228.30054 
L 119.612517 228.30054 
L 119.612517 227.776292 
L 119.95122 227.776292 
L 119.95122 227.252044 
L 120.283378 227.252044 
L 120.365424 226.203549 
L 121.551317 226.203549 
L 121.551317 225.155053 
L 121.929105 225.155053 
L 122.003676 224.106558 
L 122.225468 224.106558 
L 122.225468 223.058063 
L 122.588877 223.058063 
L 122.588877 222.533815 
L 122.803291 222.533815 
L 122.803291 222.009567 
L 122.944762 222.009567 
L 122.944762 221.485319 
L 123.085078 221.485319 
L 123.085078 220.961072 
L 123.430938 220.961072 
L 123.430938 220.436824 
L 123.635161 220.436824 
L 123.635161 219.388328 
L 123.903739 219.388328 
L 123.903739 218.864081 
L 124.233665 218.864081 
L 124.233665 218.339833 
L 124.685175 218.339833 
L 124.748719 217.291338 
L 125.125128 217.291338 
L 125.187069 215.718594 
L 125.913457 215.718594 
L 125.913457 214.670099 
L 126.031592 214.670099 
L 126.031592 214.145851 
L 126.496178 214.145851 
L 126.496178 213.621604 
L 126.836558 213.621604 
L 126.892639 212.573108 
L 126.948537 212.573108 
L 126.948537 211.524613 
L 127.28016 211.524613 
L 127.28016 211.000365 
L 127.497741 211.000365 
L 127.497741 209.95187 
L 127.819033 209.95187 
L 127.819033 208.903374 
L 128.082264 208.903374 
L 128.13443 207.854879 
L 128.341524 207.854879 
L 128.341524 206.806383 
L 128.596932 206.806383 
L 128.596932 206.282136 
L 128.798561 206.282136 
L 128.798561 205.757888 
L 129.486197 205.757888 
L 129.486197 205.23364 
L 129.630036 205.23364 
L 129.677716 203.660897 
L 130.100987 203.660897 
L 130.193648 202.612401 
L 130.285813 202.612401 
L 130.285813 202.088154 
L 130.42314 202.088154 
L 130.42314 201.563906 
L 130.961731 201.563906 
L 130.961731 201.039658 
L 131.739239 201.039658 
L 131.781419 199.991163 
L 131.907344 199.991163 
L 131.907344 199.466915 
L 132.156459 199.466915 
L 132.156459 197.369924 
L 132.320552 197.369924 
L 132.402015 195.272933 
L 132.483094 195.272933 
L 132.483094 194.224438 
L 132.603999 194.224438 
L 132.684132 193.175943 
L 132.803637 193.175943 
L 132.803637 192.127447 
L 133.000983 192.127447 
L 133.040181 191.078952 
L 133.693236 191.078952 
L 133.730889 189.506209 
L 133.805948 189.506209 
L 133.880682 188.457713 
L 133.992176 188.457713 
L 133.992176 187.933465 
L 134.681992 187.933465 
L 134.681992 186.88497 
L 135.06906 186.88497 
L 135.06906 186.360722 
L 135.24216 186.360722 
L 135.24216 185.836474 
L 135.481607 185.836474 
L 135.481607 185.312227 
L 135.851269 185.312227 
L 135.851269 184.787979 
L 136.082436 184.787979 
L 136.180564 183.739484 
L 136.278134 183.739484 
L 136.342875 182.16674 
L 136.72628 182.16674 
L 136.757848 181.118245 
L 137.008324 181.118245 
L 137.039379 179.545502 
L 137.193815 179.545502 
L 137.193815 178.497006 
L 137.377325 178.497006 
L 137.377325 176.924263 
L 137.798047 176.924263 
L 137.798047 175.875768 
L 138.266591 175.875768 
L 138.266591 175.35152 
L 138.581462 175.35152 
L 138.581462 173.778777 
L 138.80689 173.778777 
L 138.80689 173.254529 
L 139.194412 173.254529 
L 139.194412 172.730281 
L 139.411992 172.730281 
L 139.411992 171.157538 
L 139.706738 171.157538 
L 139.75979 170.109043 
L 139.839061 170.109043 
L 139.865404 169.060547 
L 140.048681 169.060547 
L 140.048681 168.5363 
L 140.204235 168.5363 
L 140.204235 167.487804 
L 140.460404 167.487804 
L 140.460404 166.439309 
L 140.687737 166.439309 
L 140.687737 165.915061 
L 140.812746 165.915061 
L 140.812746 165.390813 
L 141.010888 165.390813 
L 141.084606 163.293823 
L 141.182408 163.293823 
L 141.182408 162.769575 
L 141.448529 162.769575 
L 141.448529 162.245327 
L 141.686932 162.245327 
L 141.686932 161.721079 
L 141.851869 161.721079 
L 141.851869 160.672584 
L 142.015238 160.672584 
L 142.1079 159.624089 
L 142.765159 159.624089 
L 142.765159 159.099841 
L 143.029944 159.099841 
L 143.095508 157.527098 
L 143.160822 157.527098 
L 143.247524 156.478602 
L 143.398208 156.478602 
L 143.462385 153.333116 
L 143.526323 153.333116 
L 143.611205 152.28462 
L 143.800672 152.28462 
L 143.800672 151.760373 
L 144.275583 151.760373 
L 144.275583 151.236125 
L 144.618359 151.236125 
L 144.618359 150.711877 
L 144.737725 150.711877 
L 144.836567 148.614886 
L 144.954432 148.614886 
L 144.973998 147.566391 
L 145.149096 147.566391 
L 145.226349 146.517896 
L 145.37982 146.517896 
L 145.37982 145.4694 
L 145.832178 145.4694 
L 145.832178 143.896657 
L 146.017203 143.896657 
L 146.017203 143.372409 
L 146.236635 143.372409 
L 146.254795 141.799666 
L 146.542779 141.799666 
L 146.542779 141.275418 
L 146.702675 141.275418 
L 146.773264 139.702675 
L 146.843566 139.702675 
L 146.896104 138.65418 
L 146.965905 138.65418 
L 146.965905 138.129932 
L 147.225166 138.129932 
L 147.25944 136.557189 
L 147.361855 136.557189 
L 147.463664 135.508693 
L 147.615255 135.508693 
L 147.632016 134.460198 
L 147.897996 134.460198 
L 147.914484 133.411703 
L 148.1274 133.411703 
L 148.159923 131.838959 
L 148.240964 131.838959 
L 148.321624 129.741969 
L 148.481817 129.741969 
L 148.513678 127.644978 
L 148.797794 127.644978 
L 148.860298 126.596482 
L 148.95363 126.596482 
L 148.95363 126.072235 
L 149.169454 126.072235 
L 149.230624 125.023739 
L 149.488193 125.023739 
L 149.593139 121.878253 
L 149.66771 121.878253 
L 149.66771 121.354005 
L 149.962801 121.354005 
L 149.977424 120.30551 
L 150.108469 120.30551 
L 150.209706 118.732766 
L 150.338998 118.732766 
L 150.338998 118.208519 
L 150.481525 118.208519 
L 150.481525 117.684271 
L 150.860547 117.684271 
L 150.957462 115.063032 
L 151.0401 115.063032 
L 151.14967 112.966042 
L 151.299196 112.966042 
L 151.366735 110.869051 
L 151.420576 110.869051 
L 151.514393 108.77206 
L 151.581093 108.77206 
L 151.581093 108.247812 
L 151.8977 108.247812 
L 151.936869 107.199317 
L 152.170027 107.199317 
L 152.272646 105.626573 
L 152.34921 105.626573 
L 152.34921 105.102326 
L 152.476064 105.102326 
L 152.539141 102.481087 
L 152.652101 102.481087 
L 152.75189 99.859849 
L 152.789162 99.859849 
L 152.888161 97.23861 
L 152.925139 97.23861 
L 152.998857 96.190115 
L 153.072261 96.190115 
L 153.072261 95.141619 
L 153.398752 95.141619 
L 153.482395 94.093124 
L 153.541892 94.093124 
L 153.64847 92.520381 
L 153.941099 92.520381 
L 153.975883 91.471885 
L 154.376568 91.471885 
L 154.466857 89.899142 
L 154.556673 89.899142 
L 154.567867 88.850646 
L 154.757061 88.850646 
L 154.867386 87.802151 
L 154.87838 87.802151 
L 154.944195 84.132417 
L 155.085935 84.132417 
L 155.085935 83.608169 
L 155.365957 83.608169 
L 155.461834 82.559674 
L 155.525456 82.559674 
L 155.567741 79.938435 
L 155.651999 79.938435 
L 155.756744 78.88994 
L 155.777617 78.88994 
L 155.840083 77.317197 
L 155.902323 77.317197 
L 156.005559 75.744454 
L 156.036409 75.744454 
L 156.138844 74.695958 
L 156.220355 74.695958 
L 156.311596 72.598967 
L 156.53261 72.598967 
L 156.542589 71.550472 
L 156.651976 71.550472 
L 156.750818 69.453481 
L 156.809852 69.453481 
L 156.849095 67.880738 
L 157.024591 67.880738 
L 157.073023 66.307995 
L 157.188707 66.307995 
L 157.255831 64.211004 
L 157.332225 64.211004 
L 157.332225 63.686756 
L 157.531159 63.686756 
L 157.634451 61.589765 
L 157.77431 61.589765 
L 157.866922 59.492774 
L 157.894608 59.492774 
L 157.940653 57.395783 
L 158.159969 57.395783 
L 158.159969 56.871536 
L 158.295634 56.871536 
L 158.340618 54.774545 
L 158.41235 54.774545 
L 158.41235 53.726049 
L 158.554921 53.726049 
L 158.661078 51.629058 
L 158.766584 51.629058 
L 158.79286 49.00782 
L 158.958346 49.00782 
L 158.958346 48.483572 
L 159.087877 48.483572 
L 159.113666 47.435077 
L 159.276106 47.435077 
L 159.369454 46.386581 
L 159.554642 46.386581 
L 159.646493 44.28959 
L 159.679772 44.28959 
L 159.770958 43.241095 
L 159.853438 43.241095 
L 159.951893 42.192599 
L 160.017218 42.192599 
L 160.017218 41.668352 
L 160.130943 41.668352 
L 160.139037 40.619856 
L 160.292113 40.619856 
L 160.35616 39.571361 
L 160.451785 39.571361 
L 160.507322 36.950122 
L 160.594233 36.950122 
L 160.672864 35.377379 
L 160.90662 35.377379 
L 160.960709 34.328884 
L 161.053039 34.328884 
L 161.068379 33.280388 
L 161.228629 33.280388 
L 161.228629 32.756141 
L 161.342186 32.756141 
L 161.417476 31.183397 
L 161.499915 31.183397 
L 161.499915 30.134902 
L 161.737516 30.134902 
L 161.737516 29.610654 
L 161.884365 29.610654 
L 161.884365 29.086407 
L 164.174103 29.086407 
L 164.174103 28.562159 
L 164.346022 28.562159 
L 164.346022 28.037911 
L 164.610081 28.037911 
L 164.610081 27.513663 
L 333.168 27.513663 
L 333.168 27.513663 
" style="fill:none;stroke:#ff7500;stroke-linecap:square;stroke-width:1.5;"/>
   </g>
   <g id="line2d_52">
    <defs>
     <path d="M 0 -6 
L -1.347084 -1.854102 
L -5.706339 -1.854102 
L -2.179628 0.708204 
L -3.526712 4.854102 
L -0 2.291796 
L 3.526712 4.854102 
L 2.179628 0.708204 
L 5.706339 -1.854102 
L 1.347084 -1.854102 
z
" id="m0538201569" style="stroke:#ff7500;stroke-linejoin:bevel;stroke-width:1.5;"/>
    </defs>
    <g>
     <use style="fill-opacity:0;stroke:#ff7500;stroke-linejoin:bevel;stroke-width:1.5;" x="128.341524" xlink:href="#m0538201569" y="207.854879"/>
     <use style="fill-opacity:0;stroke:#ff7500;stroke-linejoin:bevel;stroke-width:1.5;" x="153.482395" xlink:href="#m0538201569" y="94.617371"/>
     <use style="fill-opacity:0;stroke:#ff7500;stroke-linejoin:bevel;stroke-width:1.5;" x="164.610081" xlink:href="#m0538201569" y="28.037911"/>
     <use style="fill-opacity:0;stroke:#ff7500;stroke-linejoin:bevel;stroke-width:1.5;" x="164.610081" xlink:href="#m0538201569" y="27.513663"/>
     <use style="fill-opacity:0;stroke:#ff7500;stroke-linejoin:bevel;stroke-width:1.5;" x="164.610081" xlink:href="#m0538201569" y="27.513663"/>
     <use style="fill-opacity:0;stroke:#ff7500;stroke-linejoin:bevel;stroke-width:1.5;" x="333.168" xlink:href="#m0538201569" y="27.513663"/>
    </g>
   </g>
   <g id="line2d_53">
    <path style="fill:none;stroke:#ff7500;stroke-linecap:square;stroke-width:1.5;"/>
    <g/>
   </g>
   <g id="line2d_54">
    <path d="M 333.168 27.513663 
L 363.64328 289.532673 
" style="fill:none;stroke:#ff00ff;stroke-linecap:square;stroke-width:1.5;"/>
    <g>
     <use style="fill-opacity:0;stroke:#ff00ff;stroke-linejoin:miter;stroke-width:1.5;" x="333.168" xlink:href="#mc77b021fcb" y="27.513663"/>
     <use style="fill-opacity:0;stroke:#ff00ff;stroke-linejoin:miter;stroke-width:1.5;" x="363.64328" xlink:href="#mc77b021fcb" y="289.532673"/>
    </g>
   </g>
   <g id="line2d_55">
    <path d="M 333.168 27.513663 
L 363.64328 203.975446 
" style="fill:none;stroke:#000080;stroke-linecap:square;stroke-width:1.5;"/>
    <g>
     <use style="fill-opacity:0;stroke:#000080;stroke-width:1.5;" x="333.168" xlink:href="#m57e185d456" y="27.513663"/>
     <use style="fill-opacity:0;stroke:#000080;stroke-width:1.5;" x="363.64328" xlink:href="#m57e185d456" y="203.975446"/>
    </g>
   </g>
   <g id="line2d_56">
    <path d="M 333.168 27.513663 
L 363.64328 118.418218 
" style="fill:none;stroke:#ff7500;stroke-linecap:square;stroke-width:1.5;"/>
    <g>
     <use style="fill-opacity:0;stroke:#ff7500;stroke-linejoin:bevel;stroke-width:1.5;" x="333.168" xlink:href="#m0538201569" y="27.513663"/>
     <use style="fill-opacity:0;stroke:#ff7500;stroke-linejoin:bevel;stroke-width:1.5;" x="363.64328" xlink:href="#m0538201569" y="118.418218"/>
    </g>
   </g>
   <g id="line2d_57">
    <path d="M 333.168 294.88 
L 333.168 27.513663 
" style="fill:none;stroke:#000000;stroke-linecap:square;stroke-width:1.5;"/>
   </g>
   <g id="patch_3">
    <path d="M 56.12 294.88 
L 56.12 24.84 
" style="fill:none;stroke:#000000;stroke-linecap:square;stroke-linejoin:miter;stroke-width:0.8;"/>
   </g>
   <g id="patch_4">
    <path d="M 333.168 294.88 
L 333.168 24.84 
" style="fill:none;stroke:#000000;stroke-linecap:square;stroke-linejoin:miter;stroke-width:0.8;"/>
   </g>
   <g id="patch_5">
    <path d="M 56.12 294.88 
L 333.168 294.88 
" style="fill:none;stroke:#000000;stroke-linecap:square;stroke-linejoin:miter;stroke-width:0.8;"/>
   </g>
   <g id="patch_6">
    <path d="M 56.12 24.84 
L 333.168 24.84 
" style="fill:none;stroke:#000000;stroke-linecap:square;stroke-linejoin:miter;stroke-width:0.8;"/>
   </g>
   <g id="text_13">
    <!-- SL-4-10 -->
    <defs>
     <path d="M 53.515625 70.515625 
L 53.515625 60.890625 
Q 47.90625 63.578125 42.921875 64.890625 
Q 37.9375 66.21875 33.296875 66.21875 
Q 25.25 66.21875 20.875 63.09375 
Q 16.5 59.96875 16.5 54.203125 
Q 16.5 49.359375 19.40625 46.890625 
Q 22.3125 44.4375 30.421875 42.921875 
L 36.375 41.703125 
Q 47.40625 39.59375 52.65625 34.296875 
Q 57.90625 29 57.90625 20.125 
Q 57.90625 9.515625 50.796875 4.046875 
Q 43.703125 -1.421875 29.984375 -1.421875 
Q 24.8125 -1.421875 18.96875 -0.25 
Q 13.140625 0.921875 6.890625 3.21875 
L 6.890625 13.375 
Q 12.890625 10.015625 18.65625 8.296875 
Q 24.421875 6.59375 29.984375 6.59375 
Q 38.421875 6.59375 43.015625 9.90625 
Q 47.609375 13.234375 47.609375 19.390625 
Q 47.609375 24.75 44.3125 27.78125 
Q 41.015625 30.8125 33.5 32.328125 
L 27.484375 33.5 
Q 16.453125 35.6875 11.515625 40.375 
Q 6.59375 45.0625 6.59375 53.421875 
Q 6.59375 63.09375 13.40625 68.65625 
Q 20.21875 74.21875 32.171875 74.21875 
Q 37.3125 74.21875 42.625 73.28125 
Q 47.953125 72.359375 53.515625 70.515625 
z
" id="DejaVuSans-53"/>
     <path d="M 9.8125 72.90625 
L 19.671875 72.90625 
L 19.671875 8.296875 
L 55.171875 8.296875 
L 55.171875 0 
L 9.8125 0 
z
" id="DejaVuSans-4c"/>
    </defs>
    <g transform="translate(369.18424 294.223611)scale(0.17 -0.17)">
     <use xlink:href="#DejaVuSans-53"/>
     <use x="63.476562" xlink:href="#DejaVuSans-4c"/>
     <use x="119.173828" xlink:href="#DejaVuSans-2d"/>
     <use x="155.257812" xlink:href="#DejaVuSans-34"/>
     <use x="218.880859" xlink:href="#DejaVuSans-2d"/>
     <use x="254.964844" xlink:href="#DejaVuSans-31"/>
     <use x="318.587891" xlink:href="#DejaVuSans-30"/>
    </g>
   </g>
   <g id="text_14">
    <!-- SL-10 -->
    <g transform="translate(369.18424 208.666383)scale(0.17 -0.17)">
     <use xlink:href="#DejaVuSans-53"/>
     <use x="63.476562" xlink:href="#DejaVuSans-4c"/>
     <use x="119.173828" xlink:href="#DejaVuSans-2d"/>
     <use x="155.257812" xlink:href="#DejaVuSans-31"/>
     <use x="218.880859" xlink:href="#DejaVuSans-30"/>
    </g>
   </g>
   <g id="text_15">
    <!-- R-SHADE-T -->
    <defs>
     <path d="M 44.390625 34.1875 
Q 47.5625 33.109375 50.5625 29.59375 
Q 53.5625 26.078125 56.59375 19.921875 
L 66.609375 0 
L 56 0 
L 46.6875 18.703125 
Q 43.0625 26.03125 39.671875 28.421875 
Q 36.28125 30.8125 30.421875 30.8125 
L 19.671875 30.8125 
L 19.671875 0 
L 9.8125 0 
L 9.8125 72.90625 
L 32.078125 72.90625 
Q 44.578125 72.90625 50.734375 67.671875 
Q 56.890625 62.453125 56.890625 51.90625 
Q 56.890625 45.015625 53.6875 40.46875 
Q 50.484375 35.9375 44.390625 34.1875 
z
M 19.671875 64.796875 
L 19.671875 38.921875 
L 32.078125 38.921875 
Q 39.203125 38.921875 42.84375 42.21875 
Q 46.484375 45.515625 46.484375 51.90625 
Q 46.484375 58.296875 42.84375 61.546875 
Q 39.203125 64.796875 32.078125 64.796875 
z
" id="DejaVuSans-52"/>
     <path d="M 9.8125 72.90625 
L 19.671875 72.90625 
L 19.671875 43.015625 
L 55.515625 43.015625 
L 55.515625 72.90625 
L 65.375 72.90625 
L 65.375 0 
L 55.515625 0 
L 55.515625 34.71875 
L 19.671875 34.71875 
L 19.671875 0 
L 9.8125 0 
z
" id="DejaVuSans-48"/>
     <path d="M 34.1875 63.1875 
L 20.796875 26.90625 
L 47.609375 26.90625 
z
M 28.609375 72.90625 
L 39.796875 72.90625 
L 67.578125 0 
L 57.328125 0 
L 50.6875 18.703125 
L 17.828125 18.703125 
L 11.1875 0 
L 0.78125 0 
z
" id="DejaVuSans-41"/>
     <path d="M 19.671875 64.796875 
L 19.671875 8.109375 
L 31.59375 8.109375 
Q 46.6875 8.109375 53.6875 14.9375 
Q 60.6875 21.78125 60.6875 36.53125 
Q 60.6875 51.171875 53.6875 57.984375 
Q 46.6875 64.796875 31.59375 64.796875 
z
M 9.8125 72.90625 
L 30.078125 72.90625 
Q 51.265625 72.90625 61.171875 64.09375 
Q 71.09375 55.28125 71.09375 36.53125 
Q 71.09375 17.671875 61.125 8.828125 
Q 51.171875 0 30.078125 0 
L 9.8125 0 
z
" id="DejaVuSans-44"/>
     <path d="M 9.8125 72.90625 
L 55.90625 72.90625 
L 55.90625 64.59375 
L 19.671875 64.59375 
L 19.671875 43.015625 
L 54.390625 43.015625 
L 54.390625 34.71875 
L 19.671875 34.71875 
L 19.671875 8.296875 
L 56.78125 8.296875 
L 56.78125 0 
L 9.8125 0 
z
" id="DejaVuSans-45"/>
     <path d="M -0.296875 72.90625 
L 61.375 72.90625 
L 61.375 64.59375 
L 35.5 64.59375 
L 35.5 0 
L 25.59375 0 
L 25.59375 64.59375 
L -0.296875 64.59375 
z
" id="DejaVuSans-54"/>
    </defs>
    <g transform="translate(369.18424 123.109155)scale(0.17 -0.17)">
     <use xlink:href="#DejaVuSans-52"/>
     <use x="69.419922" xlink:href="#DejaVuSans-2d"/>
     <use x="105.503906" xlink:href="#DejaVuSans-53"/>
     <use x="168.980469" xlink:href="#DejaVuSans-48"/>
     <use x="244.175781" xlink:href="#DejaVuSans-41"/>
     <use x="312.583984" xlink:href="#DejaVuSans-44"/>
     <use x="389.585938" xlink:href="#DejaVuSans-45"/>
     <use x="452.769531" xlink:href="#DejaVuSans-2d"/>
     <use x="488.712891" xlink:href="#DejaVuSans-54"/>
    </g>
   </g>
   <g id="text_16">
    <!-- best 2009 -->
    <defs>
     <path d="M 48.6875 27.296875 
Q 48.6875 37.203125 44.609375 42.84375 
Q 40.53125 48.484375 33.40625 48.484375 
Q 26.265625 48.484375 22.1875 42.84375 
Q 18.109375 37.203125 18.109375 27.296875 
Q 18.109375 17.390625 22.1875 11.75 
Q 26.265625 6.109375 33.40625 6.109375 
Q 40.53125 6.109375 44.609375 11.75 
Q 48.6875 17.390625 48.6875 27.296875 
z
M 18.109375 46.390625 
Q 20.953125 51.265625 25.265625 53.625 
Q 29.59375 56 35.59375 56 
Q 45.5625 56 51.78125 48.09375 
Q 58.015625 40.1875 58.015625 27.296875 
Q 58.015625 14.40625 51.78125 6.484375 
Q 45.5625 -1.421875 35.59375 -1.421875 
Q 29.59375 -1.421875 25.265625 0.953125 
Q 20.953125 3.328125 18.109375 8.203125 
L 18.109375 0 
L 9.078125 0 
L 9.078125 75.984375 
L 18.109375 75.984375 
z
" id="DejaVuSans-62"/>
     <path d="M 10.984375 1.515625 
L 10.984375 10.5 
Q 14.703125 8.734375 18.5 7.8125 
Q 22.3125 6.890625 25.984375 6.890625 
Q 35.75 6.890625 40.890625 13.453125 
Q 46.046875 20.015625 46.78125 33.40625 
Q 43.953125 29.203125 39.59375 26.953125 
Q 35.25 24.703125 29.984375 24.703125 
Q 19.046875 24.703125 12.671875 31.3125 
Q 6.296875 37.9375 6.296875 49.421875 
Q 6.296875 60.640625 12.9375 67.421875 
Q 19.578125 74.21875 30.609375 74.21875 
Q 43.265625 74.21875 49.921875 64.515625 
Q 56.59375 54.828125 56.59375 36.375 
Q 56.59375 19.140625 48.40625 8.859375 
Q 40.234375 -1.421875 26.421875 -1.421875 
Q 22.703125 -1.421875 18.890625 -0.6875 
Q 15.09375 0.046875 10.984375 1.515625 
z
M 30.609375 32.421875 
Q 37.25 32.421875 41.125 36.953125 
Q 45.015625 41.5 45.015625 49.421875 
Q 45.015625 57.28125 41.125 61.84375 
Q 37.25 66.40625 30.609375 66.40625 
Q 23.96875 66.40625 20.09375 61.84375 
Q 16.21875 57.28125 16.21875 49.421875 
Q 16.21875 41.5 20.09375 36.953125 
Q 23.96875 32.421875 30.609375 32.421875 
z
" id="DejaVuSans-39"/>
    </defs>
    <g transform="translate(369.18424 37.551928)scale(0.17 -0.17)">
     <use xlink:href="#DejaVuSans-62"/>
     <use x="63.476562" xlink:href="#DejaVuSans-65"/>
     <use x="125" xlink:href="#DejaVuSans-73"/>
     <use x="177.099609" xlink:href="#DejaVuSans-74"/>
     <use x="216.308594" xlink:href="#DejaVuSans-20"/>
     <use x="248.095703" xlink:href="#DejaVuSans-32"/>
     <use x="311.71875" xlink:href="#DejaVuSans-30"/>
     <use x="375.341797" xlink:href="#DejaVuSans-30"/>
     <use x="438.964844" xlink:href="#DejaVuSans-39"/>
    </g>
   </g>
   <g id="text_17">
    <!-- bbob f14, 5-D -->
    <defs>
     <path d="M 10.796875 72.90625 
L 49.515625 72.90625 
L 49.515625 64.59375 
L 19.828125 64.59375 
L 19.828125 46.734375 
Q 21.96875 47.46875 24.109375 47.828125 
Q 26.265625 48.1875 28.421875 48.1875 
Q 40.625 48.1875 47.75 41.5 
Q 54.890625 34.8125 54.890625 23.390625 
Q 54.890625 11.625 47.5625 5.09375 
Q 40.234375 -1.421875 26.90625 -1.421875 
Q 22.3125 -1.421875 17.546875 -0.640625 
Q 12.796875 0.140625 7.71875 1.703125 
L 7.71875 11.625 
Q 12.109375 9.234375 16.796875 8.0625 
Q 21.484375 6.890625 26.703125 6.890625 
Q 35.15625 6.890625 40.078125 11.328125 
Q 45.015625 15.765625 45.015625 23.390625 
Q 45.015625 31 40.078125 35.4375 
Q 35.15625 39.890625 26.703125 39.890625 
Q 22.75 39.890625 18.8125 39.015625 
Q 14.890625 38.140625 10.796875 36.28125 
z
" id="DejaVuSans-35"/>
    </defs>
    <g transform="translate(58.89048 35.290806)scale(0.102 -0.102)">
     <use xlink:href="#DejaVuSans-62"/>
     <use x="63.476562" xlink:href="#DejaVuSans-62"/>
     <use x="126.953125" xlink:href="#DejaVuSans-6f"/>
     <use x="188.134766" xlink:href="#DejaVuSans-62"/>
     <use x="251.611328" xlink:href="#DejaVuSans-20"/>
     <use x="283.398438" xlink:href="#DejaVuSans-66"/>
     <use x="318.603516" xlink:href="#DejaVuSans-31"/>
     <use x="382.226562" xlink:href="#DejaVuSans-34"/>
     <use x="445.849609" xlink:href="#DejaVuSans-2c"/>
     <use x="477.636719" xlink:href="#DejaVuSans-20"/>
     <use x="509.423828" xlink:href="#DejaVuSans-35"/>
     <use x="573.046875" xlink:href="#DejaVuSans-2d"/>
     <use x="609.130859" xlink:href="#DejaVuSans-44"/>
    </g>
    <!-- 51 targets: 100..1e-08 -->
    <defs>
     <path d="M 11.71875 12.40625 
L 22.015625 12.40625 
L 22.015625 0 
L 11.71875 0 
z
M 11.71875 51.703125 
L 22.015625 51.703125 
L 22.015625 39.3125 
L 11.71875 39.3125 
z
" id="DejaVuSans-3a"/>
    </defs>
    <g transform="translate(58.89048 46.712575)scale(0.102 -0.102)">
     <use xlink:href="#DejaVuSans-35"/>
     <use x="63.623047" xlink:href="#DejaVuSans-31"/>
     <use x="127.246094" xlink:href="#DejaVuSans-20"/>
     <use x="159.033203" xlink:href="#DejaVuSans-74"/>
     <use x="198.242188" xlink:href="#DejaVuSans-61"/>
     <use x="259.521484" xlink:href="#DejaVuSans-72"/>
     <use x="300.619141" xlink:href="#DejaVuSans-67"/>
     <use x="364.095703" xlink:href="#DejaVuSans-65"/>
     <use x="425.619141" xlink:href="#DejaVuSans-74"/>
     <use x="464.828125" xlink:href="#DejaVuSans-73"/>
     <use x="516.927734" xlink:href="#DejaVuSans-3a"/>
     <use x="550.619141" xlink:href="#DejaVuSans-20"/>
     <use x="582.40625" xlink:href="#DejaVuSans-31"/>
     <use x="646.029297" xlink:href="#DejaVuSans-30"/>
     <use x="709.652344" xlink:href="#DejaVuSans-30"/>
     <use x="773.275391" xlink:href="#DejaVuSans-2e"/>
     <use x="805.0625" xlink:href="#DejaVuSans-2e"/>
     <use x="836.849609" xlink:href="#DejaVuSans-31"/>
     <use x="900.472656" xlink:href="#DejaVuSans-65"/>
     <use x="961.996094" xlink:href="#DejaVuSans-2d"/>
     <use x="998.080078" xlink:href="#DejaVuSans-30"/>
     <use x="1061.703125" xlink:href="#DejaVuSans-38"/>
    </g>
    <!-- 15 instances -->
    <g transform="translate(58.89048 58.134344)scale(0.102 -0.102)">
     <use xlink:href="#DejaVuSans-31"/>
     <use x="63.623047" xlink:href="#DejaVuSans-35"/>
     <use x="127.246094" xlink:href="#DejaVuSans-20"/>
     <use x="159.033203" xlink:href="#DejaVuSans-69"/>
     <use x="186.816406" xlink:href="#DejaVuSans-6e"/>
     <use x="250.195312" xlink:href="#DejaVuSans-73"/>
     <use x="302.294922" xlink:href="#DejaVuSans-74"/>
     <use x="341.503906" xlink:href="#DejaVuSans-61"/>
     <use x="402.783203" xlink:href="#DejaVuSans-6e"/>
     <use x="466.162109" xlink:href="#DejaVuSans-63"/>
     <use x="521.142578" xlink:href="#DejaVuSans-65"/>
     <use x="582.666016" xlink:href="#DejaVuSans-73"/>
    </g>
   </g>
   <g id="text_18">
    <!-- v2.4 -->
    <g style="fill:#808080;" transform="translate(183.733063 290.099912)scale(0.1 -0.1)">
     <use xlink:href="#DejaVuSans-76"/>
     <use x="59.179688" xlink:href="#DejaVuSans-32"/>
     <use x="122.802734" xlink:href="#DejaVuSans-2e"/>
     <use x="154.589844" xlink:href="#DejaVuSans-34"/>
    </g>
   </g>
   <g id="text_19">
    <!-- 14 Sum of different powers -->
    <defs>
     <path d="M 4.203125 54.6875 
L 13.1875 54.6875 
L 24.421875 12.015625 
L 35.59375 54.6875 
L 46.1875 54.6875 
L 57.421875 12.015625 
L 68.609375 54.6875 
L 77.59375 54.6875 
L 63.28125 0 
L 52.6875 0 
L 40.921875 44.828125 
L 29.109375 0 
L 18.5 0 
z
" id="DejaVuSans-77"/>
    </defs>
    <g transform="translate(58.183063 18.84)scale(0.2 -0.2)">
     <use xlink:href="#DejaVuSans-31"/>
     <use x="63.623047" xlink:href="#DejaVuSans-34"/>
     <use x="127.246094" xlink:href="#DejaVuSans-20"/>
     <use x="159.033203" xlink:href="#DejaVuSans-53"/>
     <use x="222.509766" xlink:href="#DejaVuSans-75"/>
     <use x="285.888672" xlink:href="#DejaVuSans-6d"/>
     <use x="383.300781" xlink:href="#DejaVuSans-20"/>
     <use x="415.087891" xlink:href="#DejaVuSans-6f"/>
     <use x="476.269531" xlink:href="#DejaVuSans-66"/>
     <use x="511.474609" xlink:href="#DejaVuSans-20"/>
     <use x="543.261719" xlink:href="#DejaVuSans-64"/>
     <use x="606.738281" xlink:href="#DejaVuSans-69"/>
     <use x="634.521484" xlink:href="#DejaVuSans-66"/>
     <use x="669.726562" xlink:href="#DejaVuSans-66"/>
     <use x="704.931641" xlink:href="#DejaVuSans-65"/>
     <use x="766.455078" xlink:href="#DejaVuSans-72"/>
     <use x="807.537109" xlink:href="#DejaVuSans-65"/>
     <use x="869.060547" xlink:href="#DejaVuSans-6e"/>
     <use x="932.439453" xlink:href="#DejaVuSans-74"/>
     <use x="971.648438" xlink:href="#DejaVuSans-20"/>
     <use x="1003.435547" xlink:href="#DejaVuSans-70"/>
     <use x="1066.912109" xlink:href="#DejaVuSans-6f"/>
     <use x="1128.09375" xlink:href="#DejaVuSans-77"/>
     <use x="1209.880859" xlink:href="#DejaVuSans-65"/>
     <use x="1271.404297" xlink:href="#DejaVuSans-72"/>
     <use x="1312.517578" xlink:href="#DejaVuSans-73"/>
    </g>
   </g>
  </g>
 </g>
 <defs>
  <clipPath id="p0fd347ab12">
   <rect height="270.04" width="277.048" x="56.12" y="24.84"/>
  </clipPath>
 </defs>
</svg>
