<?xml version="1.0" encoding="utf-8" standalone="no"?>
<!DOCTYPE svg PUBLIC "-//W3C//DTD SVG 1.1//EN"
  "http://www.w3.org/Graphics/SVG/1.1/DTD/svg11.dtd">
<!-- Created with matplotlib (http://matplotlib.org/) -->
<svg height="345.6pt" version="1.1" viewBox="0 0 460.8 345.6" width="460.8pt" xmlns="http://www.w3.org/2000/svg" xmlns:xlink="http://www.w3.org/1999/xlink">
 <defs>
  <style type="text/css">
*{stroke-linecap:butt;stroke-linejoin:round;}
  </style>
 </defs>
 <g id="figure_1">
  <g id="patch_1">
   <path d="M 0 345.6 
L 460.8 345.6 
L 460.8 0 
L 0 0 
z
" style="fill:#ffffff;"/>
  </g>
  <g id="axes_1">
   <g id="patch_2">
    <path d="M 56.12 294.88 
L 333.168 294.88 
L 333.168 24.84 
L 56.12 24.84 
z
" style="fill:#ffffff;"/>
   </g>
   <g id="line2d_1">
    <path d="M 16.541714 294.88 
L 16.541714 289.637523 
L 40.370217 289.637523 
L 40.370217 284.395046 
L 75.003641 284.395046 
L 75.003641 279.152568 
L 82.350819 279.152568 
L 82.350819 273.910091 
L 85.732 273.910091 
L 85.732 268.667614 
L 100.207968 268.667614 
L 100.207968 263.425137 
L 127.578629 263.425137 
L 127.578629 258.18266 
L 130.761732 258.18266 
L 130.761732 252.940182 
L 132.664134 252.940182 
L 132.664134 247.697705 
L 141.804906 247.697705 
L 141.804906 242.455228 
L 149.108066 242.455228 
L 149.108066 237.212751 
L 160.475609 237.212751 
L 160.475609 231.970274 
L 160.574519 231.970274 
L 160.574519 226.727797 
L 160.602113 226.727797 
L 160.602113 221.485319 
L 160.629662 221.485319 
L 160.629662 216.242842 
L 160.712045 216.242842 
L 160.712045 211.000365 
L 160.758944 211.000365 
L 160.758944 205.757888 
L 160.821278 205.757888 
L 160.821278 200.515411 
L 160.860123 200.515411 
L 160.860123 195.272933 
L 160.925957 195.272933 
L 160.925957 190.030456 
L 161.079875 190.030456 
L 161.079875 184.787979 
L 161.129603 184.787979 
L 161.129603 179.545502 
L 161.186803 179.545502 
L 161.186803 174.303025 
L 161.443749 174.303025 
L 161.443749 169.060547 
L 161.526063 169.060547 
L 161.526063 163.81807 
L 161.574519 163.81807 
L 161.574519 158.575593 
L 161.880709 158.575593 
L 161.880709 153.333116 
L 161.968239 153.333116 
L 161.968239 148.090639 
L 162.080643 148.090639 
L 162.080643 142.848162 
L 162.25325 142.848162 
L 162.25325 137.605684 
L 162.438305 137.605684 
L 162.438305 132.363207 
L 162.582822 132.363207 
L 162.582822 127.12073 
L 162.666857 127.12073 
L 162.666857 121.878253 
L 162.909639 121.878253 
L 162.909639 116.635776 
L 163.108235 116.635776 
L 163.108235 111.393298 
L 163.193134 111.393298 
L 163.193134 106.150821 
L 163.515304 106.150821 
L 163.515304 100.908344 
L 163.64118 100.908344 
L 163.64118 95.665867 
L 163.75303 95.665867 
L 163.75303 90.42339 
L 165.18677 90.42339 
L 165.18677 85.180912 
L 165.42047 85.180912 
L 165.42047 79.938435 
L 165.500631 79.938435 
L 165.500631 74.695958 
L 170.261607 74.695958 
L 170.261607 69.453481 
L 170.340017 69.453481 
L 170.340017 64.211004 
L 176.958653 64.211004 
L 176.958653 58.968526 
L 176.999667 58.968526 
L 176.999667 53.726049 
L 177.037556 53.726049 
L 177.037556 48.483572 
L 181.215427 48.483572 
L 181.215427 43.241095 
L 181.300695 43.241095 
L 181.300695 37.998618 
L 181.349062 37.998618 
L 181.349062 32.756141 
L 184.827743 32.756141 
L 184.827743 27.513663 
L 333.168 27.513663 
" style="fill:none;stroke:#f5deb3;stroke-linecap:square;stroke-width:4;"/>
   </g>
   <g id="line2d_2">
    <defs>
     <path d="M -0 7.778175 
L 7.778175 0 
L 0 -7.778175 
L -7.778175 -0 
z
" id="m7605cbd536" style="stroke:#f5deb3;stroke-linejoin:miter;stroke-width:1.5;"/>
    </defs>
    <g>
     <use style="fill:#f5deb3;stroke:#f5deb3;stroke-linejoin:miter;stroke-width:1.5;" x="82.350819" xlink:href="#m7605cbd536" y="273.910091"/>
     <use style="fill:#f5deb3;stroke:#f5deb3;stroke-linejoin:miter;stroke-width:1.5;" x="160.602113" xlink:href="#m7605cbd536" y="221.485319"/>
     <use style="fill:#f5deb3;stroke:#f5deb3;stroke-linejoin:miter;stroke-width:1.5;" x="165.500631" xlink:href="#m7605cbd536" y="74.695958"/>
     <use style="fill:#f5deb3;stroke:#f5deb3;stroke-linejoin:miter;stroke-width:1.5;" x="184.827743" xlink:href="#m7605cbd536" y="32.756141"/>
     <use style="fill:#f5deb3;stroke:#f5deb3;stroke-linejoin:miter;stroke-width:1.5;" x="184.827743" xlink:href="#m7605cbd536" y="27.513663"/>
     <use style="fill:#f5deb3;stroke:#f5deb3;stroke-linejoin:miter;stroke-width:1.5;" x="333.168" xlink:href="#m7605cbd536" y="27.513663"/>
    </g>
   </g>
   <g id="line2d_3">
    <path style="fill:none;stroke:#f5deb3;stroke-linecap:square;stroke-width:4;"/>
    <g/>
   </g>
   <g id="line2d_4">
    <path d="M 333.168 27.513663 
L 363.64328 32.86099 
" style="fill:none;stroke:#f5deb3;stroke-linecap:square;stroke-width:4;"/>
    <g>
     <use style="fill:#f5deb3;stroke:#f5deb3;stroke-linejoin:miter;stroke-width:1.5;" x="333.168" xlink:href="#m7605cbd536" y="27.513663"/>
     <use style="fill:#f5deb3;stroke:#f5deb3;stroke-linejoin:miter;stroke-width:1.5;" x="363.64328" xlink:href="#m7605cbd536" y="32.86099"/>
    </g>
   </g>
   <g id="matplotlib.axis_1">
    <g id="xtick_1">
     <g id="line2d_5">
      <path clip-path="url(#p3f82484ac2)" d="M 56.12 294.88 
L 56.12 24.84 
" style="fill:none;stroke:#b0b0b0;stroke-linecap:square;stroke-width:0.8;"/>
     </g>
     <g id="line2d_6">
      <defs>
       <path d="M 0 0 
L 0 3.5 
" id="m60a0f9dd34" style="stroke:#000000;stroke-width:0.8;"/>
      </defs>
      <g>
       <use style="stroke:#000000;stroke-width:0.8;" x="56.12" xlink:href="#m60a0f9dd34" y="294.88"/>
      </g>
     </g>
     <g id="text_1">
      <!-- 0 -->
      <defs>
       <path d="M 31.78125 66.40625 
Q 24.171875 66.40625 20.328125 58.90625 
Q 16.5 51.421875 16.5 36.375 
Q 16.5 21.390625 20.328125 13.890625 
Q 24.171875 6.390625 31.78125 6.390625 
Q 39.453125 6.390625 43.28125 13.890625 
Q 47.125 21.390625 47.125 36.375 
Q 47.125 51.421875 43.28125 58.90625 
Q 39.453125 66.40625 31.78125 66.40625 
z
M 31.78125 74.21875 
Q 44.046875 74.21875 50.515625 64.515625 
Q 56.984375 54.828125 56.984375 36.375 
Q 56.984375 17.96875 50.515625 8.265625 
Q 44.046875 -1.421875 31.78125 -1.421875 
Q 19.53125 -1.421875 13.0625 8.265625 
Q 6.59375 17.96875 6.59375 36.375 
Q 6.59375 54.828125 13.0625 64.515625 
Q 19.53125 74.21875 31.78125 74.21875 
z
" id="DejaVuSans-30"/>
      </defs>
      <g transform="translate(49.7575 317.076875)scale(0.2 -0.2)">
       <use xlink:href="#DejaVuSans-30"/>
      </g>
     </g>
    </g>
    <g id="xtick_2">
     <g id="line2d_7">
      <path clip-path="url(#p3f82484ac2)" d="M 135.276571 294.88 
L 135.276571 24.84 
" style="fill:none;stroke:#b0b0b0;stroke-linecap:square;stroke-width:0.8;"/>
     </g>
     <g id="line2d_8">
      <g>
       <use style="stroke:#000000;stroke-width:0.8;" x="135.276571" xlink:href="#m60a0f9dd34" y="294.88"/>
      </g>
     </g>
     <g id="text_2">
      <!-- 2 -->
      <defs>
       <path d="M 19.1875 8.296875 
L 53.609375 8.296875 
L 53.609375 0 
L 7.328125 0 
L 7.328125 8.296875 
Q 12.9375 14.109375 22.625 23.890625 
Q 32.328125 33.6875 34.8125 36.53125 
Q 39.546875 41.84375 41.421875 45.53125 
Q 43.3125 49.21875 43.3125 52.78125 
Q 43.3125 58.59375 39.234375 62.25 
Q 35.15625 65.921875 28.609375 65.921875 
Q 23.96875 65.921875 18.8125 64.3125 
Q 13.671875 62.703125 7.8125 59.421875 
L 7.8125 69.390625 
Q 13.765625 71.78125 18.9375 73 
Q 24.125 74.21875 28.421875 74.21875 
Q 39.75 74.21875 46.484375 68.546875 
Q 53.21875 62.890625 53.21875 53.421875 
Q 53.21875 48.921875 51.53125 44.890625 
Q 49.859375 40.875 45.40625 35.40625 
Q 44.1875 33.984375 37.640625 27.21875 
Q 31.109375 20.453125 19.1875 8.296875 
z
" id="DejaVuSans-32"/>
      </defs>
      <g transform="translate(128.914071 317.076875)scale(0.2 -0.2)">
       <use xlink:href="#DejaVuSans-32"/>
      </g>
     </g>
    </g>
    <g id="xtick_3">
     <g id="line2d_9">
      <path clip-path="url(#p3f82484ac2)" d="M 214.433143 294.88 
L 214.433143 24.84 
" style="fill:none;stroke:#b0b0b0;stroke-linecap:square;stroke-width:0.8;"/>
     </g>
     <g id="line2d_10">
      <g>
       <use style="stroke:#000000;stroke-width:0.8;" x="214.433143" xlink:href="#m60a0f9dd34" y="294.88"/>
      </g>
     </g>
     <g id="text_3">
      <!-- 4 -->
      <defs>
       <path d="M 37.796875 64.3125 
L 12.890625 25.390625 
L 37.796875 25.390625 
z
M 35.203125 72.90625 
L 47.609375 72.90625 
L 47.609375 25.390625 
L 58.015625 25.390625 
L 58.015625 17.1875 
L 47.609375 17.1875 
L 47.609375 0 
L 37.796875 0 
L 37.796875 17.1875 
L 4.890625 17.1875 
L 4.890625 26.703125 
z
" id="DejaVuSans-34"/>
      </defs>
      <g transform="translate(208.070643 317.076875)scale(0.2 -0.2)">
       <use xlink:href="#DejaVuSans-34"/>
      </g>
     </g>
    </g>
    <g id="xtick_4">
     <g id="line2d_11">
      <path clip-path="url(#p3f82484ac2)" d="M 293.589714 294.88 
L 293.589714 24.84 
" style="fill:none;stroke:#b0b0b0;stroke-linecap:square;stroke-width:0.8;"/>
     </g>
     <g id="line2d_12">
      <g>
       <use style="stroke:#000000;stroke-width:0.8;" x="293.589714" xlink:href="#m60a0f9dd34" y="294.88"/>
      </g>
     </g>
     <g id="text_4">
      <!-- 6 -->
      <defs>
       <path d="M 33.015625 40.375 
Q 26.375 40.375 22.484375 35.828125 
Q 18.609375 31.296875 18.609375 23.390625 
Q 18.609375 15.53125 22.484375 10.953125 
Q 26.375 6.390625 33.015625 6.390625 
Q 39.65625 6.390625 43.53125 10.953125 
Q 47.40625 15.53125 47.40625 23.390625 
Q 47.40625 31.296875 43.53125 35.828125 
Q 39.65625 40.375 33.015625 40.375 
z
M 52.59375 71.296875 
L 52.59375 62.3125 
Q 48.875 64.0625 45.09375 64.984375 
Q 41.3125 65.921875 37.59375 65.921875 
Q 27.828125 65.921875 22.671875 59.328125 
Q 17.53125 52.734375 16.796875 39.40625 
Q 19.671875 43.65625 24.015625 45.921875 
Q 28.375 48.1875 33.59375 48.1875 
Q 44.578125 48.1875 50.953125 41.515625 
Q 57.328125 34.859375 57.328125 23.390625 
Q 57.328125 12.15625 50.6875 5.359375 
Q 44.046875 -1.421875 33.015625 -1.421875 
Q 20.359375 -1.421875 13.671875 8.265625 
Q 6.984375 17.96875 6.984375 36.375 
Q 6.984375 53.65625 15.1875 63.9375 
Q 23.390625 74.21875 37.203125 74.21875 
Q 40.921875 74.21875 44.703125 73.484375 
Q 48.484375 72.75 52.59375 71.296875 
z
" id="DejaVuSans-36"/>
      </defs>
      <g transform="translate(287.227214 317.076875)scale(0.2 -0.2)">
       <use xlink:href="#DejaVuSans-36"/>
      </g>
     </g>
    </g>
    <g id="xtick_5">
     <g id="line2d_13">
      <path clip-path="url(#p3f82484ac2)" d="M 56.12 294.88 
L 56.12 24.84 
" style="fill:none;stroke:#b0b0b0;stroke-linecap:square;stroke-width:0.8;"/>
     </g>
     <g id="line2d_14">
      <defs>
       <path d="M 0 0 
L 0 2 
" id="macb31243eb" style="stroke:#000000;stroke-width:0.6;"/>
      </defs>
      <g>
       <use style="stroke:#000000;stroke-width:0.6;" x="56.12" xlink:href="#macb31243eb" y="294.88"/>
      </g>
     </g>
    </g>
    <g id="xtick_6">
     <g id="line2d_15">
      <path clip-path="url(#p3f82484ac2)" d="M 95.698286 294.88 
L 95.698286 24.84 
" style="fill:none;stroke:#b0b0b0;stroke-linecap:square;stroke-width:0.8;"/>
     </g>
     <g id="line2d_16">
      <g>
       <use style="stroke:#000000;stroke-width:0.6;" x="95.698286" xlink:href="#macb31243eb" y="294.88"/>
      </g>
     </g>
    </g>
    <g id="xtick_7">
     <g id="line2d_17">
      <path clip-path="url(#p3f82484ac2)" d="M 135.276571 294.88 
L 135.276571 24.84 
" style="fill:none;stroke:#b0b0b0;stroke-linecap:square;stroke-width:0.8;"/>
     </g>
     <g id="line2d_18">
      <g>
       <use style="stroke:#000000;stroke-width:0.6;" x="135.276571" xlink:href="#macb31243eb" y="294.88"/>
      </g>
     </g>
    </g>
    <g id="xtick_8">
     <g id="line2d_19">
      <path clip-path="url(#p3f82484ac2)" d="M 174.854857 294.88 
L 174.854857 24.84 
" style="fill:none;stroke:#b0b0b0;stroke-linecap:square;stroke-width:0.8;"/>
     </g>
     <g id="line2d_20">
      <g>
       <use style="stroke:#000000;stroke-width:0.6;" x="174.854857" xlink:href="#macb31243eb" y="294.88"/>
      </g>
     </g>
    </g>
    <g id="xtick_9">
     <g id="line2d_21">
      <path clip-path="url(#p3f82484ac2)" d="M 214.433143 294.88 
L 214.433143 24.84 
" style="fill:none;stroke:#b0b0b0;stroke-linecap:square;stroke-width:0.8;"/>
     </g>
     <g id="line2d_22">
      <g>
       <use style="stroke:#000000;stroke-width:0.6;" x="214.433143" xlink:href="#macb31243eb" y="294.88"/>
      </g>
     </g>
    </g>
    <g id="xtick_10">
     <g id="line2d_23">
      <path clip-path="url(#p3f82484ac2)" d="M 254.011429 294.88 
L 254.011429 24.84 
" style="fill:none;stroke:#b0b0b0;stroke-linecap:square;stroke-width:0.8;"/>
     </g>
     <g id="line2d_24">
      <g>
       <use style="stroke:#000000;stroke-width:0.6;" x="254.011429" xlink:href="#macb31243eb" y="294.88"/>
      </g>
     </g>
    </g>
    <g id="xtick_11">
     <g id="line2d_25">
      <path clip-path="url(#p3f82484ac2)" d="M 293.589714 294.88 
L 293.589714 24.84 
" style="fill:none;stroke:#b0b0b0;stroke-linecap:square;stroke-width:0.8;"/>
     </g>
     <g id="line2d_26">
      <g>
       <use style="stroke:#000000;stroke-width:0.6;" x="293.589714" xlink:href="#macb31243eb" y="294.88"/>
      </g>
     </g>
    </g>
    <g id="xtick_12">
     <g id="line2d_27">
      <path clip-path="url(#p3f82484ac2)" d="M 333.168 294.88 
L 333.168 24.84 
" style="fill:none;stroke:#b0b0b0;stroke-linecap:square;stroke-width:0.8;"/>
     </g>
     <g id="line2d_28">
      <g>
       <use style="stroke:#000000;stroke-width:0.6;" x="333.168" xlink:href="#macb31243eb" y="294.88"/>
      </g>
     </g>
    </g>
    <g id="text_5">
     <!-- log10(# f-evals / dimension) -->
     <defs>
      <path d="M 9.421875 75.984375 
L 18.40625 75.984375 
L 18.40625 0 
L 9.421875 0 
z
" id="DejaVuSans-6c"/>
      <path d="M 30.609375 48.390625 
Q 23.390625 48.390625 19.1875 42.75 
Q 14.984375 37.109375 14.984375 27.296875 
Q 14.984375 17.484375 19.15625 11.84375 
Q 23.34375 6.203125 30.609375 6.203125 
Q 37.796875 6.203125 41.984375 11.859375 
Q 46.1875 17.53125 46.1875 27.296875 
Q 46.1875 37.015625 41.984375 42.703125 
Q 37.796875 48.390625 30.609375 48.390625 
z
M 30.609375 56 
Q 42.328125 56 49.015625 48.375 
Q 55.71875 40.765625 55.71875 27.296875 
Q 55.71875 13.875 49.015625 6.21875 
Q 42.328125 -1.421875 30.609375 -1.421875 
Q 18.84375 -1.421875 12.171875 6.21875 
Q 5.515625 13.875 5.515625 27.296875 
Q 5.515625 40.765625 12.171875 48.375 
Q 18.84375 56 30.609375 56 
z
" id="DejaVuSans-6f"/>
      <path d="M 45.40625 27.984375 
Q 45.40625 37.75 41.375 43.109375 
Q 37.359375 48.484375 30.078125 48.484375 
Q 22.859375 48.484375 18.828125 43.109375 
Q 14.796875 37.75 14.796875 27.984375 
Q 14.796875 18.265625 18.828125 12.890625 
Q 22.859375 7.515625 30.078125 7.515625 
Q 37.359375 7.515625 41.375 12.890625 
Q 45.40625 18.265625 45.40625 27.984375 
z
M 54.390625 6.78125 
Q 54.390625 -7.171875 48.1875 -13.984375 
Q 42 -20.796875 29.203125 -20.796875 
Q 24.46875 -20.796875 20.265625 -20.09375 
Q 16.0625 -19.390625 12.109375 -17.921875 
L 12.109375 -9.1875 
Q 16.0625 -11.328125 19.921875 -12.34375 
Q 23.78125 -13.375 27.78125 -13.375 
Q 36.625 -13.375 41.015625 -8.765625 
Q 45.40625 -4.15625 45.40625 5.171875 
L 45.40625 9.625 
Q 42.625 4.78125 38.28125 2.390625 
Q 33.9375 0 27.875 0 
Q 17.828125 0 11.671875 7.65625 
Q 5.515625 15.328125 5.515625 27.984375 
Q 5.515625 40.671875 11.671875 48.328125 
Q 17.828125 56 27.875 56 
Q 33.9375 56 38.28125 53.609375 
Q 42.625 51.21875 45.40625 46.390625 
L 45.40625 54.6875 
L 54.390625 54.6875 
z
" id="DejaVuSans-67"/>
      <path d="M 12.40625 8.296875 
L 28.515625 8.296875 
L 28.515625 63.921875 
L 10.984375 60.40625 
L 10.984375 69.390625 
L 28.421875 72.90625 
L 38.28125 72.90625 
L 38.28125 8.296875 
L 54.390625 8.296875 
L 54.390625 0 
L 12.40625 0 
z
" id="DejaVuSans-31"/>
      <path d="M 31 75.875 
Q 24.46875 64.65625 21.28125 53.65625 
Q 18.109375 42.671875 18.109375 31.390625 
Q 18.109375 20.125 21.3125 9.0625 
Q 24.515625 -2 31 -13.1875 
L 23.1875 -13.1875 
Q 15.875 -1.703125 12.234375 9.375 
Q 8.59375 20.453125 8.59375 31.390625 
Q 8.59375 42.28125 12.203125 53.3125 
Q 15.828125 64.359375 23.1875 75.875 
z
" id="DejaVuSans-28"/>
      <path d="M 51.125 44 
L 36.921875 44 
L 32.8125 27.6875 
L 47.125 27.6875 
z
M 43.796875 71.78125 
L 38.71875 51.515625 
L 52.984375 51.515625 
L 58.109375 71.78125 
L 65.921875 71.78125 
L 60.890625 51.515625 
L 76.125 51.515625 
L 76.125 44 
L 58.984375 44 
L 54.984375 27.6875 
L 70.515625 27.6875 
L 70.515625 20.21875 
L 53.078125 20.21875 
L 48 0 
L 40.1875 0 
L 45.21875 20.21875 
L 30.90625 20.21875 
L 25.875 0 
L 18.015625 0 
L 23.09375 20.21875 
L 7.71875 20.21875 
L 7.71875 27.6875 
L 24.90625 27.6875 
L 29 44 
L 13.28125 44 
L 13.28125 51.515625 
L 30.90625 51.515625 
L 35.890625 71.78125 
z
" id="DejaVuSans-23"/>
      <path id="DejaVuSans-20"/>
      <path d="M 37.109375 75.984375 
L 37.109375 68.5 
L 28.515625 68.5 
Q 23.6875 68.5 21.796875 66.546875 
Q 19.921875 64.59375 19.921875 59.515625 
L 19.921875 54.6875 
L 34.71875 54.6875 
L 34.71875 47.703125 
L 19.921875 47.703125 
L 19.921875 0 
L 10.890625 0 
L 10.890625 47.703125 
L 2.296875 47.703125 
L 2.296875 54.6875 
L 10.890625 54.6875 
L 10.890625 58.5 
Q 10.890625 67.625 15.140625 71.796875 
Q 19.390625 75.984375 28.609375 75.984375 
z
" id="DejaVuSans-66"/>
      <path d="M 4.890625 31.390625 
L 31.203125 31.390625 
L 31.203125 23.390625 
L 4.890625 23.390625 
z
" id="DejaVuSans-2d"/>
      <path d="M 56.203125 29.59375 
L 56.203125 25.203125 
L 14.890625 25.203125 
Q 15.484375 15.921875 20.484375 11.0625 
Q 25.484375 6.203125 34.421875 6.203125 
Q 39.59375 6.203125 44.453125 7.46875 
Q 49.3125 8.734375 54.109375 11.28125 
L 54.109375 2.78125 
Q 49.265625 0.734375 44.1875 -0.34375 
Q 39.109375 -1.421875 33.890625 -1.421875 
Q 20.796875 -1.421875 13.15625 6.1875 
Q 5.515625 13.8125 5.515625 26.8125 
Q 5.515625 40.234375 12.765625 48.109375 
Q 20.015625 56 32.328125 56 
Q 43.359375 56 49.78125 48.890625 
Q 56.203125 41.796875 56.203125 29.59375 
z
M 47.21875 32.234375 
Q 47.125 39.59375 43.09375 43.984375 
Q 39.0625 48.390625 32.421875 48.390625 
Q 24.90625 48.390625 20.390625 44.140625 
Q 15.875 39.890625 15.1875 32.171875 
z
" id="DejaVuSans-65"/>
      <path d="M 2.984375 54.6875 
L 12.5 54.6875 
L 29.59375 8.796875 
L 46.6875 54.6875 
L 56.203125 54.6875 
L 35.6875 0 
L 23.484375 0 
z
" id="DejaVuSans-76"/>
      <path d="M 34.28125 27.484375 
Q 23.390625 27.484375 19.1875 25 
Q 14.984375 22.515625 14.984375 16.5 
Q 14.984375 11.71875 18.140625 8.90625 
Q 21.296875 6.109375 26.703125 6.109375 
Q 34.1875 6.109375 38.703125 11.40625 
Q 43.21875 16.703125 43.21875 25.484375 
L 43.21875 27.484375 
z
M 52.203125 31.203125 
L 52.203125 0 
L 43.21875 0 
L 43.21875 8.296875 
Q 40.140625 3.328125 35.546875 0.953125 
Q 30.953125 -1.421875 24.3125 -1.421875 
Q 15.921875 -1.421875 10.953125 3.296875 
Q 6 8.015625 6 15.921875 
Q 6 25.140625 12.171875 29.828125 
Q 18.359375 34.515625 30.609375 34.515625 
L 43.21875 34.515625 
L 43.21875 35.40625 
Q 43.21875 41.609375 39.140625 45 
Q 35.0625 48.390625 27.6875 48.390625 
Q 23 48.390625 18.546875 47.265625 
Q 14.109375 46.140625 10.015625 43.890625 
L 10.015625 52.203125 
Q 14.9375 54.109375 19.578125 55.046875 
Q 24.21875 56 28.609375 56 
Q 40.484375 56 46.34375 49.84375 
Q 52.203125 43.703125 52.203125 31.203125 
z
" id="DejaVuSans-61"/>
      <path d="M 44.28125 53.078125 
L 44.28125 44.578125 
Q 40.484375 46.53125 36.375 47.5 
Q 32.28125 48.484375 27.875 48.484375 
Q 21.1875 48.484375 17.84375 46.4375 
Q 14.5 44.390625 14.5 40.28125 
Q 14.5 37.15625 16.890625 35.375 
Q 19.28125 33.59375 26.515625 31.984375 
L 29.59375 31.296875 
Q 39.15625 29.25 43.1875 25.515625 
Q 47.21875 21.78125 47.21875 15.09375 
Q 47.21875 7.46875 41.1875 3.015625 
Q 35.15625 -1.421875 24.609375 -1.421875 
Q 20.21875 -1.421875 15.453125 -0.5625 
Q 10.6875 0.296875 5.421875 2 
L 5.421875 11.28125 
Q 10.40625 8.6875 15.234375 7.390625 
Q 20.0625 6.109375 24.8125 6.109375 
Q 31.15625 6.109375 34.5625 8.28125 
Q 37.984375 10.453125 37.984375 14.40625 
Q 37.984375 18.0625 35.515625 20.015625 
Q 33.0625 21.96875 24.703125 23.78125 
L 21.578125 24.515625 
Q 13.234375 26.265625 9.515625 29.90625 
Q 5.8125 33.546875 5.8125 39.890625 
Q 5.8125 47.609375 11.28125 51.796875 
Q 16.75 56 26.8125 56 
Q 31.78125 56 36.171875 55.265625 
Q 40.578125 54.546875 44.28125 53.078125 
z
" id="DejaVuSans-73"/>
      <path d="M 25.390625 72.90625 
L 33.6875 72.90625 
L 8.296875 -9.28125 
L 0 -9.28125 
z
" id="DejaVuSans-2f"/>
      <path d="M 45.40625 46.390625 
L 45.40625 75.984375 
L 54.390625 75.984375 
L 54.390625 0 
L 45.40625 0 
L 45.40625 8.203125 
Q 42.578125 3.328125 38.25 0.953125 
Q 33.9375 -1.421875 27.875 -1.421875 
Q 17.96875 -1.421875 11.734375 6.484375 
Q 5.515625 14.40625 5.515625 27.296875 
Q 5.515625 40.1875 11.734375 48.09375 
Q 17.96875 56 27.875 56 
Q 33.9375 56 38.25 53.625 
Q 42.578125 51.265625 45.40625 46.390625 
z
M 14.796875 27.296875 
Q 14.796875 17.390625 18.875 11.75 
Q 22.953125 6.109375 30.078125 6.109375 
Q 37.203125 6.109375 41.296875 11.75 
Q 45.40625 17.390625 45.40625 27.296875 
Q 45.40625 37.203125 41.296875 42.84375 
Q 37.203125 48.484375 30.078125 48.484375 
Q 22.953125 48.484375 18.875 42.84375 
Q 14.796875 37.203125 14.796875 27.296875 
z
" id="DejaVuSans-64"/>
      <path d="M 9.421875 54.6875 
L 18.40625 54.6875 
L 18.40625 0 
L 9.421875 0 
z
M 9.421875 75.984375 
L 18.40625 75.984375 
L 18.40625 64.59375 
L 9.421875 64.59375 
z
" id="DejaVuSans-69"/>
      <path d="M 52 44.1875 
Q 55.375 50.25 60.0625 53.125 
Q 64.75 56 71.09375 56 
Q 79.640625 56 84.28125 50.015625 
Q 88.921875 44.046875 88.921875 33.015625 
L 88.921875 0 
L 79.890625 0 
L 79.890625 32.71875 
Q 79.890625 40.578125 77.09375 44.375 
Q 74.3125 48.1875 68.609375 48.1875 
Q 61.625 48.1875 57.5625 43.546875 
Q 53.515625 38.921875 53.515625 30.90625 
L 53.515625 0 
L 44.484375 0 
L 44.484375 32.71875 
Q 44.484375 40.625 41.703125 44.40625 
Q 38.921875 48.1875 33.109375 48.1875 
Q 26.21875 48.1875 22.15625 43.53125 
Q 18.109375 38.875 18.109375 30.90625 
L 18.109375 0 
L 9.078125 0 
L 9.078125 54.6875 
L 18.109375 54.6875 
L 18.109375 46.1875 
Q 21.1875 51.21875 25.484375 53.609375 
Q 29.78125 56 35.6875 56 
Q 41.65625 56 45.828125 52.96875 
Q 50 49.953125 52 44.1875 
z
" id="DejaVuSans-6d"/>
      <path d="M 54.890625 33.015625 
L 54.890625 0 
L 45.90625 0 
L 45.90625 32.71875 
Q 45.90625 40.484375 42.875 44.328125 
Q 39.84375 48.1875 33.796875 48.1875 
Q 26.515625 48.1875 22.3125 43.546875 
Q 18.109375 38.921875 18.109375 30.90625 
L 18.109375 0 
L 9.078125 0 
L 9.078125 54.6875 
L 18.109375 54.6875 
L 18.109375 46.1875 
Q 21.34375 51.125 25.703125 53.5625 
Q 30.078125 56 35.796875 56 
Q 45.21875 56 50.046875 50.171875 
Q 54.890625 44.34375 54.890625 33.015625 
z
" id="DejaVuSans-6e"/>
      <path d="M 8.015625 75.875 
L 15.828125 75.875 
Q 23.140625 64.359375 26.78125 53.3125 
Q 30.421875 42.28125 30.421875 31.390625 
Q 30.421875 20.453125 26.78125 9.375 
Q 23.140625 -1.703125 15.828125 -13.1875 
L 8.015625 -13.1875 
Q 14.5 -2 17.703125 9.0625 
Q 20.90625 20.125 20.90625 31.390625 
Q 20.90625 42.671875 17.703125 53.65625 
Q 14.5 64.65625 8.015625 75.875 
z
" id="DejaVuSans-29"/>
     </defs>
     <g transform="translate(73.803219 338.153594)scale(0.17 -0.17)">
      <use xlink:href="#DejaVuSans-6c"/>
      <use x="27.783203" xlink:href="#DejaVuSans-6f"/>
      <use x="88.964844" xlink:href="#DejaVuSans-67"/>
      <use x="152.441406" xlink:href="#DejaVuSans-31"/>
      <use x="216.064453" xlink:href="#DejaVuSans-30"/>
      <use x="279.6875" xlink:href="#DejaVuSans-28"/>
      <use x="318.701172" xlink:href="#DejaVuSans-23"/>
      <use x="402.490234" xlink:href="#DejaVuSans-20"/>
      <use x="434.277344" xlink:href="#DejaVuSans-66"/>
      <use x="469.404297" xlink:href="#DejaVuSans-2d"/>
      <use x="505.488281" xlink:href="#DejaVuSans-65"/>
      <use x="567.011719" xlink:href="#DejaVuSans-76"/>
      <use x="626.191406" xlink:href="#DejaVuSans-61"/>
      <use x="687.470703" xlink:href="#DejaVuSans-6c"/>
      <use x="715.253906" xlink:href="#DejaVuSans-73"/>
      <use x="767.353516" xlink:href="#DejaVuSans-20"/>
      <use x="799.140625" xlink:href="#DejaVuSans-2f"/>
      <use x="832.832031" xlink:href="#DejaVuSans-20"/>
      <use x="864.619141" xlink:href="#DejaVuSans-64"/>
      <use x="928.095703" xlink:href="#DejaVuSans-69"/>
      <use x="955.878906" xlink:href="#DejaVuSans-6d"/>
      <use x="1053.291016" xlink:href="#DejaVuSans-65"/>
      <use x="1114.814453" xlink:href="#DejaVuSans-6e"/>
      <use x="1178.193359" xlink:href="#DejaVuSans-73"/>
      <use x="1230.292969" xlink:href="#DejaVuSans-69"/>
      <use x="1258.076172" xlink:href="#DejaVuSans-6f"/>
      <use x="1319.257812" xlink:href="#DejaVuSans-6e"/>
      <use x="1382.636719" xlink:href="#DejaVuSans-29"/>
     </g>
    </g>
   </g>
   <g id="matplotlib.axis_2">
    <g id="ytick_1">
     <g id="line2d_29">
      <path clip-path="url(#p3f82484ac2)" d="M 56.12 294.88 
L 333.168 294.88 
" style="fill:none;stroke:#b0b0b0;stroke-linecap:square;stroke-width:0.8;"/>
     </g>
     <g id="line2d_30">
      <defs>
       <path d="M 0 0 
L -3.5 0 
" id="mec62f2dfaf" style="stroke:#000000;stroke-width:0.8;"/>
      </defs>
      <g>
       <use style="stroke:#000000;stroke-width:0.8;" x="56.12" xlink:href="#mec62f2dfaf" y="294.88"/>
      </g>
     </g>
     <g id="text_6">
      <!-- 0.0 -->
      <defs>
       <path d="M 10.6875 12.40625 
L 21 12.40625 
L 21 0 
L 10.6875 0 
z
" id="DejaVuSans-2e"/>
      </defs>
      <g transform="translate(23.675 300.95875)scale(0.16 -0.16)">
       <use xlink:href="#DejaVuSans-30"/>
       <use x="63.623047" xlink:href="#DejaVuSans-2e"/>
       <use x="95.410156" xlink:href="#DejaVuSans-30"/>
      </g>
     </g>
    </g>
    <g id="ytick_2">
     <g id="line2d_31">
      <path clip-path="url(#p3f82484ac2)" d="M 56.12 241.406733 
L 333.168 241.406733 
" style="fill:none;stroke:#b0b0b0;stroke-linecap:square;stroke-width:0.8;"/>
     </g>
     <g id="line2d_32">
      <g>
       <use style="stroke:#000000;stroke-width:0.8;" x="56.12" xlink:href="#mec62f2dfaf" y="241.406733"/>
      </g>
     </g>
     <g id="text_7">
      <!-- 0.2 -->
      <g transform="translate(23.675 247.485483)scale(0.16 -0.16)">
       <use xlink:href="#DejaVuSans-30"/>
       <use x="63.623047" xlink:href="#DejaVuSans-2e"/>
       <use x="95.410156" xlink:href="#DejaVuSans-32"/>
      </g>
     </g>
    </g>
    <g id="ytick_3">
     <g id="line2d_33">
      <path clip-path="url(#p3f82484ac2)" d="M 56.12 187.933465 
L 333.168 187.933465 
" style="fill:none;stroke:#b0b0b0;stroke-linecap:square;stroke-width:0.8;"/>
     </g>
     <g id="line2d_34">
      <g>
       <use style="stroke:#000000;stroke-width:0.8;" x="56.12" xlink:href="#mec62f2dfaf" y="187.933465"/>
      </g>
     </g>
     <g id="text_8">
      <!-- 0.4 -->
      <g transform="translate(23.675 194.012215)scale(0.16 -0.16)">
       <use xlink:href="#DejaVuSans-30"/>
       <use x="63.623047" xlink:href="#DejaVuSans-2e"/>
       <use x="95.410156" xlink:href="#DejaVuSans-34"/>
      </g>
     </g>
    </g>
    <g id="ytick_4">
     <g id="line2d_35">
      <path clip-path="url(#p3f82484ac2)" d="M 56.12 134.460198 
L 333.168 134.460198 
" style="fill:none;stroke:#b0b0b0;stroke-linecap:square;stroke-width:0.8;"/>
     </g>
     <g id="line2d_36">
      <g>
       <use style="stroke:#000000;stroke-width:0.8;" x="56.12" xlink:href="#mec62f2dfaf" y="134.460198"/>
      </g>
     </g>
     <g id="text_9">
      <!-- 0.6 -->
      <g transform="translate(23.675 140.538948)scale(0.16 -0.16)">
       <use xlink:href="#DejaVuSans-30"/>
       <use x="63.623047" xlink:href="#DejaVuSans-2e"/>
       <use x="95.410156" xlink:href="#DejaVuSans-36"/>
      </g>
     </g>
    </g>
    <g id="ytick_5">
     <g id="line2d_37">
      <path clip-path="url(#p3f82484ac2)" d="M 56.12 80.986931 
L 333.168 80.986931 
" style="fill:none;stroke:#b0b0b0;stroke-linecap:square;stroke-width:0.8;"/>
     </g>
     <g id="line2d_38">
      <g>
       <use style="stroke:#000000;stroke-width:0.8;" x="56.12" xlink:href="#mec62f2dfaf" y="80.986931"/>
      </g>
     </g>
     <g id="text_10">
      <!-- 0.8 -->
      <defs>
       <path d="M 31.78125 34.625 
Q 24.75 34.625 20.71875 30.859375 
Q 16.703125 27.09375 16.703125 20.515625 
Q 16.703125 13.921875 20.71875 10.15625 
Q 24.75 6.390625 31.78125 6.390625 
Q 38.8125 6.390625 42.859375 10.171875 
Q 46.921875 13.96875 46.921875 20.515625 
Q 46.921875 27.09375 42.890625 30.859375 
Q 38.875 34.625 31.78125 34.625 
z
M 21.921875 38.8125 
Q 15.578125 40.375 12.03125 44.71875 
Q 8.5 49.078125 8.5 55.328125 
Q 8.5 64.0625 14.71875 69.140625 
Q 20.953125 74.21875 31.78125 74.21875 
Q 42.671875 74.21875 48.875 69.140625 
Q 55.078125 64.0625 55.078125 55.328125 
Q 55.078125 49.078125 51.53125 44.71875 
Q 48 40.375 41.703125 38.8125 
Q 48.828125 37.15625 52.796875 32.3125 
Q 56.78125 27.484375 56.78125 20.515625 
Q 56.78125 9.90625 50.3125 4.234375 
Q 43.84375 -1.421875 31.78125 -1.421875 
Q 19.734375 -1.421875 13.25 4.234375 
Q 6.78125 9.90625 6.78125 20.515625 
Q 6.78125 27.484375 10.78125 32.3125 
Q 14.796875 37.15625 21.921875 38.8125 
z
M 18.3125 54.390625 
Q 18.3125 48.734375 21.84375 45.5625 
Q 25.390625 42.390625 31.78125 42.390625 
Q 38.140625 42.390625 41.71875 45.5625 
Q 45.3125 48.734375 45.3125 54.390625 
Q 45.3125 60.0625 41.71875 63.234375 
Q 38.140625 66.40625 31.78125 66.40625 
Q 25.390625 66.40625 21.84375 63.234375 
Q 18.3125 60.0625 18.3125 54.390625 
z
" id="DejaVuSans-38"/>
      </defs>
      <g transform="translate(23.675 87.065681)scale(0.16 -0.16)">
       <use xlink:href="#DejaVuSans-30"/>
       <use x="63.623047" xlink:href="#DejaVuSans-2e"/>
       <use x="95.410156" xlink:href="#DejaVuSans-38"/>
      </g>
     </g>
    </g>
    <g id="ytick_6">
     <g id="line2d_39">
      <path clip-path="url(#p3f82484ac2)" d="M 56.12 27.513663 
L 333.168 27.513663 
" style="fill:none;stroke:#b0b0b0;stroke-linecap:square;stroke-width:0.8;"/>
     </g>
     <g id="line2d_40">
      <g>
       <use style="stroke:#000000;stroke-width:0.8;" x="56.12" xlink:href="#mec62f2dfaf" y="27.513663"/>
      </g>
     </g>
     <g id="text_11">
      <!-- 1.0 -->
      <g transform="translate(23.675 33.592413)scale(0.16 -0.16)">
       <use xlink:href="#DejaVuSans-31"/>
       <use x="63.623047" xlink:href="#DejaVuSans-2e"/>
       <use x="95.410156" xlink:href="#DejaVuSans-30"/>
      </g>
     </g>
    </g>
    <g id="text_12">
     <!-- Fraction of function,target pairs -->
     <defs>
      <path d="M 9.8125 72.90625 
L 51.703125 72.90625 
L 51.703125 64.59375 
L 19.671875 64.59375 
L 19.671875 43.109375 
L 48.578125 43.109375 
L 48.578125 34.8125 
L 19.671875 34.8125 
L 19.671875 0 
L 9.8125 0 
z
" id="DejaVuSans-46"/>
      <path d="M 41.109375 46.296875 
Q 39.59375 47.171875 37.8125 47.578125 
Q 36.03125 48 33.890625 48 
Q 26.265625 48 22.1875 43.046875 
Q 18.109375 38.09375 18.109375 28.8125 
L 18.109375 0 
L 9.078125 0 
L 9.078125 54.6875 
L 18.109375 54.6875 
L 18.109375 46.1875 
Q 20.953125 51.171875 25.484375 53.578125 
Q 30.03125 56 36.53125 56 
Q 37.453125 56 38.578125 55.875 
Q 39.703125 55.765625 41.0625 55.515625 
z
" id="DejaVuSans-72"/>
      <path d="M 48.78125 52.59375 
L 48.78125 44.1875 
Q 44.96875 46.296875 41.140625 47.34375 
Q 37.3125 48.390625 33.40625 48.390625 
Q 24.65625 48.390625 19.8125 42.84375 
Q 14.984375 37.3125 14.984375 27.296875 
Q 14.984375 17.28125 19.8125 11.734375 
Q 24.65625 6.203125 33.40625 6.203125 
Q 37.3125 6.203125 41.140625 7.25 
Q 44.96875 8.296875 48.78125 10.40625 
L 48.78125 2.09375 
Q 45.015625 0.34375 40.984375 -0.53125 
Q 36.96875 -1.421875 32.421875 -1.421875 
Q 20.0625 -1.421875 12.78125 6.34375 
Q 5.515625 14.109375 5.515625 27.296875 
Q 5.515625 40.671875 12.859375 48.328125 
Q 20.21875 56 33.015625 56 
Q 37.15625 56 41.109375 55.140625 
Q 45.0625 54.296875 48.78125 52.59375 
z
" id="DejaVuSans-63"/>
      <path d="M 18.3125 70.21875 
L 18.3125 54.6875 
L 36.8125 54.6875 
L 36.8125 47.703125 
L 18.3125 47.703125 
L 18.3125 18.015625 
Q 18.3125 11.328125 20.140625 9.421875 
Q 21.96875 7.515625 27.59375 7.515625 
L 36.8125 7.515625 
L 36.8125 0 
L 27.59375 0 
Q 17.1875 0 13.234375 3.875 
Q 9.28125 7.765625 9.28125 18.015625 
L 9.28125 47.703125 
L 2.6875 47.703125 
L 2.6875 54.6875 
L 9.28125 54.6875 
L 9.28125 70.21875 
z
" id="DejaVuSans-74"/>
      <path d="M 8.5 21.578125 
L 8.5 54.6875 
L 17.484375 54.6875 
L 17.484375 21.921875 
Q 17.484375 14.15625 20.5 10.265625 
Q 23.53125 6.390625 29.59375 6.390625 
Q 36.859375 6.390625 41.078125 11.03125 
Q 45.3125 15.671875 45.3125 23.6875 
L 45.3125 54.6875 
L 54.296875 54.6875 
L 54.296875 0 
L 45.3125 0 
L 45.3125 8.40625 
Q 42.046875 3.421875 37.71875 1 
Q 33.40625 -1.421875 27.6875 -1.421875 
Q 18.265625 -1.421875 13.375 4.4375 
Q 8.5 10.296875 8.5 21.578125 
z
M 31.109375 56 
z
" id="DejaVuSans-75"/>
      <path d="M 11.71875 12.40625 
L 22.015625 12.40625 
L 22.015625 4 
L 14.015625 -11.625 
L 7.71875 -11.625 
L 11.71875 4 
z
" id="DejaVuSans-2c"/>
      <path d="M 18.109375 8.203125 
L 18.109375 -20.796875 
L 9.078125 -20.796875 
L 9.078125 54.6875 
L 18.109375 54.6875 
L 18.109375 46.390625 
Q 20.953125 51.265625 25.265625 53.625 
Q 29.59375 56 35.59375 56 
Q 45.5625 56 51.78125 48.09375 
Q 58.015625 40.1875 58.015625 27.296875 
Q 58.015625 14.40625 51.78125 6.484375 
Q 45.5625 -1.421875 35.59375 -1.421875 
Q 29.59375 -1.421875 25.265625 0.953125 
Q 20.953125 3.328125 18.109375 8.203125 
z
M 48.6875 27.296875 
Q 48.6875 37.203125 44.609375 42.84375 
Q 40.53125 48.484375 33.40625 48.484375 
Q 26.265625 48.484375 22.1875 42.84375 
Q 18.109375 37.203125 18.109375 27.296875 
Q 18.109375 17.390625 22.1875 11.75 
Q 26.265625 6.109375 33.40625 6.109375 
Q 40.53125 6.109375 44.609375 11.75 
Q 48.6875 17.390625 48.6875 27.296875 
z
" id="DejaVuSans-70"/>
     </defs>
     <g transform="translate(16.139531 294.999375)rotate(-90)scale(0.17 -0.17)">
      <use xlink:href="#DejaVuSans-46"/>
      <use x="57.410156" xlink:href="#DejaVuSans-72"/>
      <use x="98.523438" xlink:href="#DejaVuSans-61"/>
      <use x="159.802734" xlink:href="#DejaVuSans-63"/>
      <use x="214.783203" xlink:href="#DejaVuSans-74"/>
      <use x="253.992188" xlink:href="#DejaVuSans-69"/>
      <use x="281.775391" xlink:href="#DejaVuSans-6f"/>
      <use x="342.957031" xlink:href="#DejaVuSans-6e"/>
      <use x="406.335938" xlink:href="#DejaVuSans-20"/>
      <use x="438.123047" xlink:href="#DejaVuSans-6f"/>
      <use x="499.304688" xlink:href="#DejaVuSans-66"/>
      <use x="534.509766" xlink:href="#DejaVuSans-20"/>
      <use x="566.296875" xlink:href="#DejaVuSans-66"/>
      <use x="601.501953" xlink:href="#DejaVuSans-75"/>
      <use x="664.880859" xlink:href="#DejaVuSans-6e"/>
      <use x="728.259766" xlink:href="#DejaVuSans-63"/>
      <use x="783.240234" xlink:href="#DejaVuSans-74"/>
      <use x="822.449219" xlink:href="#DejaVuSans-69"/>
      <use x="850.232422" xlink:href="#DejaVuSans-6f"/>
      <use x="911.414062" xlink:href="#DejaVuSans-6e"/>
      <use x="974.792969" xlink:href="#DejaVuSans-2c"/>
      <use x="1006.580078" xlink:href="#DejaVuSans-74"/>
      <use x="1045.789062" xlink:href="#DejaVuSans-61"/>
      <use x="1107.068359" xlink:href="#DejaVuSans-72"/>
      <use x="1148.166016" xlink:href="#DejaVuSans-67"/>
      <use x="1211.642578" xlink:href="#DejaVuSans-65"/>
      <use x="1273.166016" xlink:href="#DejaVuSans-74"/>
      <use x="1312.375" xlink:href="#DejaVuSans-20"/>
      <use x="1344.162109" xlink:href="#DejaVuSans-70"/>
      <use x="1407.638672" xlink:href="#DejaVuSans-61"/>
      <use x="1468.917969" xlink:href="#DejaVuSans-69"/>
      <use x="1496.701172" xlink:href="#DejaVuSans-72"/>
      <use x="1537.814453" xlink:href="#DejaVuSans-73"/>
     </g>
    </g>
   </g>
   <g id="line2d_41">
    <defs>
     <path d="M 0 1.5 
C 0.397805 1.5 0.77937 1.341951 1.06066 1.06066 
C 1.341951 0.77937 1.5 0.397805 1.5 0 
C 1.5 -0.397805 1.341951 -0.77937 1.06066 -1.06066 
C 0.77937 -1.341951 0.397805 -1.5 0 -1.5 
C -0.397805 -1.5 -0.77937 -1.341951 -1.06066 -1.06066 
C -1.341951 -0.77937 -1.5 -0.397805 -1.5 0 
C -1.5 0.397805 -1.341951 0.77937 -1.06066 1.06066 
C -0.77937 1.341951 -0.397805 1.5 0 1.5 
z
" id="mbb2228c3ce" style="stroke:#f5deb3;"/>
    </defs>
    <g>
     <use style="fill:#f5deb3;stroke:#f5deb3;" x="184.827743" xlink:href="#mbb2228c3ce" y="27.513663"/>
     <use style="fill:#f5deb3;stroke:#f5deb3;" x="184.827743" xlink:href="#mbb2228c3ce" y="27.513663"/>
    </g>
   </g>
   <g id="line2d_42">
    <defs>
     <path d="M 0 1.5 
C 0.397805 1.5 0.77937 1.341951 1.06066 1.06066 
C 1.341951 0.77937 1.5 0.397805 1.5 0 
C 1.5 -0.397805 1.341951 -0.77937 1.06066 -1.06066 
C 0.77937 -1.341951 0.397805 -1.5 0 -1.5 
C -0.397805 -1.5 -0.77937 -1.341951 -1.06066 -1.06066 
C -1.341951 -0.77937 -1.5 -0.397805 -1.5 0 
C -1.5 0.397805 -1.341951 0.77937 -1.06066 1.06066 
C -0.77937 1.341951 -0.397805 1.5 0 1.5 
z
" id="ma7ce4a98df" style="stroke:#000080;"/>
    </defs>
    <g>
     <use style="fill:#000080;stroke:#000080;" x="196.199505" xlink:href="#ma7ce4a98df" y="27.513663"/>
     <use style="fill:#000080;stroke:#000080;" x="196.199505" xlink:href="#ma7ce4a98df" y="27.513663"/>
    </g>
   </g>
   <g id="line2d_43">
    <path d="M 16.541714 294.88 
L 16.541714 289.113275 
L 28.455965 289.113275 
L 28.455965 288.589027 
L 64.198719 288.589027 
L 64.198719 288.06478 
L 66.223248 288.06478 
L 66.223248 287.540532 
L 67.15259 287.540532 
L 67.15259 287.016284 
L 80.372935 287.016284 
L 80.372935 286.492036 
L 81.973032 286.492036 
L 81.973032 285.443541 
L 88.027221 285.443541 
L 88.027221 284.919293 
L 94.634732 284.919293 
L 94.634732 284.395046 
L 102.667676 284.395046 
L 102.667676 283.870798 
L 104.615641 283.870798 
L 104.615641 283.34655 
L 106.64017 283.34655 
L 106.64017 282.822302 
L 107.783569 282.822302 
L 107.783569 282.298055 
L 108.286687 282.298055 
L 108.286687 281.773807 
L 108.85563 281.773807 
L 108.85563 281.249559 
L 110.014853 281.249559 
L 110.014853 280.725312 
L 110.746395 280.725312 
L 110.746395 280.201064 
L 115.420563 280.201064 
L 115.420563 279.676816 
L 117.620026 279.676816 
L 117.620026 279.152568 
L 118.599834 279.152568 
L 118.599834 278.628321 
L 121.741249 278.628321 
L 121.741249 278.104073 
L 122.225468 278.104073 
L 122.225468 277.055578 
L 123.903739 277.055578 
L 123.903739 276.53133 
L 124.168185 276.53133 
L 124.168185 276.007082 
L 126.892639 276.007082 
L 126.892639 275.482834 
L 128.315773 275.482834 
L 128.39291 274.434339 
L 128.898495 274.434339 
L 128.898495 273.910091 
L 130.784069 273.910091 
L 130.873129 272.861596 
L 130.895323 272.861596 
L 130.895323 272.337348 
L 132.053099 272.337348 
L 132.156459 271.288853 
L 132.177056 271.288853 
L 132.238701 270.240357 
L 132.543652 270.240357 
L 132.543652 269.716109 
L 133.040181 269.716109 
L 133.040181 269.191862 
L 133.389004 269.191862 
L 133.465568 267.619119 
L 133.843356 267.619119 
L 133.843356 266.570623 
L 134.286006 266.570623 
L 134.286006 266.046375 
L 134.699776 266.046375 
L 134.699776 265.522128 
L 134.823755 265.522128 
L 134.823755 264.99788 
L 135.767951 264.99788 
L 135.767951 263.949385 
L 137.558897 263.949385 
L 137.558897 263.425137 
L 138.33866 263.425137 
L 138.410429 261.328146 
L 138.623956 261.328146 
L 138.623956 260.803898 
L 139.276327 260.803898 
L 139.276327 258.706907 
L 139.666842 258.706907 
L 139.666842 258.18266 
L 140.887317 258.18266 
L 140.887317 257.658412 
L 141.291774 257.658412 
L 141.291774 256.609917 
L 141.472518 256.609917 
L 141.472518 256.085669 
L 142.130987 256.085669 
L 142.130987 255.561421 
L 142.50752 255.561421 
L 142.50752 255.037173 
L 142.776273 255.037173 
L 142.776273 254.512926 
L 143.018992 254.512926 
L 143.106411 253.46443 
L 143.664045 253.46443 
L 143.664045 252.415935 
L 144.132429 252.415935 
L 144.132429 251.891687 
L 144.255205 251.891687 
L 144.295937 250.843192 
L 144.806974 250.843192 
L 144.806974 250.318944 
L 145.013063 250.318944 
L 145.100637 248.746201 
L 145.626324 248.746201 
L 145.626324 248.221953 
L 145.785609 248.221953 
L 145.785609 247.697705 
L 146.254795 247.697705 
L 146.254795 247.173458 
L 146.957196 247.173458 
L 146.957196 246.64921 
L 147.190823 246.64921 
L 147.190823 245.600714 
L 147.361855 245.600714 
L 147.429795 244.552219 
L 147.581683 244.552219 
L 147.581683 244.027971 
L 147.782136 244.027971 
L 147.782136 241.93098 
L 148.742915 241.93098 
L 148.836885 240.882485 
L 149.344733 240.882485 
L 149.344733 239.83399 
L 149.630465 239.83399 
L 149.630465 239.309742 
L 150.028504 239.309742 
L 150.043071 233.543017 
L 150.159162 233.543017 
L 150.159162 233.018769 
L 150.453114 233.018769 
L 150.460221 231.970274 
L 150.672081 231.970274 
L 150.735133 230.921778 
L 151.108663 230.921778 
L 151.108663 230.397531 
L 151.326243 230.397531 
L 151.359993 228.30054 
L 151.454141 228.30054 
L 151.454141 227.252044 
L 151.740126 227.252044 
L 151.799385 225.679301 
L 152.099119 225.679301 
L 152.099119 224.630806 
L 153.278551 224.630806 
L 153.3147 223.058063 
L 153.535952 223.058063 
L 153.54783 220.961072 
L 153.660271 220.961072 
L 153.672065 217.815585 
L 153.935295 217.815585 
L 153.935295 215.194347 
L 154.051005 215.194347 
L 154.079811 213.621604 
L 154.194556 213.621604 
L 154.194556 213.097356 
L 154.483733 213.097356 
L 154.494975 212.04886 
L 154.63488 212.04886 
L 154.640452 211.000365 
L 154.768126 211.000365 
L 154.768126 210.476117 
L 154.993391 210.476117 
L 154.993391 209.95187 
L 155.113059 209.95187 
L 155.140141 206.806383 
L 155.339229 206.806383 
L 155.339229 205.23364 
L 155.688733 205.23364 
L 155.688733 204.709392 
L 156.169456 204.709392 
L 156.276171 202.612401 
L 156.557546 202.612401 
L 156.666839 201.563906 
L 156.67179 201.563906 
L 156.67179 201.039658 
L 157.188707 201.039658 
L 157.188707 199.991163 
L 157.455646 199.991163 
L 157.484002 197.369924 
L 157.834564 197.369924 
L 157.834564 195.797181 
L 158.073491 195.797181 
L 158.073491 194.224438 
L 158.497144 194.224438 
L 158.497144 193.70019 
L 158.652257 193.70019 
L 158.652257 190.030456 
L 159.010275 190.030456 
L 159.010275 189.506209 
L 159.207897 189.506209 
L 159.293116 183.739484 
L 159.356754 183.739484 
L 159.356754 183.215236 
L 159.542078 183.215236 
L 159.542078 182.16674 
L 159.878104 182.16674 
L 159.915038 179.545502 
L 160.070112 179.545502 
L 160.171377 174.303025 
L 160.259999 174.303025 
L 160.259999 173.778777 
L 160.435885 173.778777 
L 160.487508 172.206034 
L 160.668941 172.206034 
L 160.668941 171.681786 
L 161.402444 171.681786 
L 161.447499 168.5363 
L 161.84777 168.5363 
L 161.84777 166.963557 
L 161.993685 166.963557 
L 161.993685 165.915061 
L 162.206673 165.915061 
L 162.278277 160.672584 
L 162.388678 160.672584 
L 162.388678 159.624089 
L 162.740052 159.624089 
L 162.740052 159.099841 
L 162.902749 159.099841 
L 162.902749 158.051345 
L 163.15583 158.051345 
L 163.15583 157.527098 
L 163.277615 157.527098 
L 163.277615 154.905859 
L 163.42196 154.905859 
L 163.42196 154.381611 
L 163.551837 154.381611 
L 163.660971 150.18763 
L 163.97457 150.18763 
L 163.97457 149.139134 
L 164.396633 149.139134 
L 164.396633 148.614886 
L 164.550708 148.614886 
L 164.616319 147.566391 
L 164.722019 147.566391 
L 164.777716 144.420905 
L 164.836312 144.420905 
L 164.836312 143.896657 
L 164.998716 143.896657 
L 165.026142 142.848162 
L 165.875649 142.848162 
L 165.875649 142.323914 
L 165.988305 142.323914 
L 166.063001 138.65418 
L 166.524032 138.65418 
L 166.524032 138.129932 
L 167.065213 138.129932 
L 167.10573 134.984446 
L 168.121896 134.984446 
L 168.230902 131.314712 
L 168.246057 131.314712 
L 168.246057 130.790464 
L 169.119764 130.790464 
L 169.119764 130.266216 
L 169.305924 130.266216 
L 169.305924 129.741969 
L 170.816163 129.741969 
L 170.816163 129.217721 
L 171.722374 129.217721 
L 171.745046 128.169225 
L 171.988426 128.169225 
L 171.988426 127.12073 
L 172.222398 127.12073 
L 172.222398 126.596482 
L 173.212996 126.596482 
L 173.212996 123.975244 
L 173.887946 123.975244 
L 173.887946 123.450996 
L 174.39851 123.450996 
L 174.39851 122.926748 
L 174.950845 122.926748 
L 174.950845 121.878253 
L 175.149678 121.878253 
L 175.149678 121.354005 
L 175.344566 121.354005 
L 175.429555 117.684271 
L 175.489296 117.684271 
L 175.489296 117.160023 
L 175.622957 117.160023 
L 175.622957 115.58728 
L 175.890439 115.58728 
L 175.985658 114.538785 
L 176.021029 114.538785 
L 176.118724 112.441794 
L 176.228566 112.441794 
L 176.228566 110.344803 
L 176.549271 110.344803 
L 176.549271 108.77206 
L 177.037556 108.77206 
L 177.093478 105.626573 
L 177.215272 105.626573 
L 177.215272 105.102326 
L 177.565286 105.102326 
L 177.565286 104.05383 
L 177.72166 104.05383 
L 177.72166 103.529583 
L 178.041632 103.529583 
L 178.04306 101.432592 
L 178.173924 101.432592 
L 178.173924 100.384096 
L 178.578645 100.384096 
L 178.578645 99.859849 
L 178.884551 99.859849 
L 178.884551 95.141619 
L 179.143641 95.141619 
L 179.234473 94.093124 
L 179.565655 94.093124 
L 179.565655 93.568876 
L 179.682869 93.568876 
L 179.720468 92.520381 
L 180.109739 92.520381 
L 180.109739 89.899142 
L 180.311131 89.899142 
L 180.311131 88.850646 
L 180.448232 88.850646 
L 180.448232 87.802151 
L 180.788709 87.802151 
L 180.857942 84.656665 
L 181.251007 84.656665 
L 181.251007 84.132417 
L 181.644549 84.132417 
L 181.644549 83.608169 
L 181.784094 83.608169 
L 181.784094 83.083922 
L 182.148892 83.083922 
L 182.210627 78.88994 
L 182.325646 78.88994 
L 182.325646 77.841444 
L 182.773841 77.841444 
L 182.773841 77.317197 
L 183.035332 77.317197 
L 183.138612 75.744454 
L 183.261313 75.744454 
L 183.288695 73.123215 
L 183.401972 73.123215 
L 183.498921 68.929233 
L 183.531116 68.929233 
L 183.593259 66.307995 
L 183.799815 66.307995 
L 183.799815 65.259499 
L 183.962481 65.259499 
L 183.962481 64.735251 
L 184.096536 64.735251 
L 184.096536 62.638261 
L 184.210613 62.638261 
L 184.254442 61.589765 
L 184.326911 61.589765 
L 184.380323 60.54127 
L 184.531739 60.54127 
L 184.600127 57.395783 
L 184.689595 57.395783 
L 184.689595 55.82304 
L 185.015305 55.82304 
L 185.105485 52.677554 
L 185.157479 52.677554 
L 185.205551 50.056315 
L 185.412324 50.056315 
L 185.412324 49.00782 
L 185.830358 49.00782 
L 185.892874 46.386581 
L 186.399035 46.386581 
L 186.477012 44.28959 
L 186.717465 44.28959 
L 186.717465 41.668352 
L 187.041949 41.668352 
L 187.041949 41.144104 
L 187.341313 41.144104 
L 187.341313 40.619856 
L 194.437972 40.619856 
L 194.509886 38.522865 
L 195.113794 38.522865 
L 195.193999 33.280388 
L 195.435507 33.280388 
L 195.435507 32.756141 
L 195.936833 32.756141 
L 196.022831 30.65915 
L 196.051401 30.65915 
L 196.093918 29.086407 
L 196.199505 29.086407 
L 196.199505 27.513663 
L 333.168 27.513663 
L 333.168 27.513663 
" style="fill:none;stroke:#000080;stroke-linecap:square;stroke-width:1.5;"/>
   </g>
   <g id="line2d_44">
    <defs>
     <path d="M 0 6 
C 1.591219 6 3.117479 5.367802 4.242641 4.242641 
C 5.367802 3.117479 6 1.591219 6 0 
C 6 -1.591219 5.367802 -3.117479 4.242641 -4.242641 
C 3.117479 -5.367802 1.591219 -6 0 -6 
C -1.591219 -6 -3.117479 -5.367802 -4.242641 -4.242641 
C -5.367802 -3.117479 -6 -1.591219 -6 0 
C -6 1.591219 -5.367802 3.117479 -4.242641 4.242641 
C -3.117479 5.367802 -1.591219 6 0 6 
z
" id="m328cb77d92" style="stroke:#000080;stroke-width:1.5;"/>
    </defs>
    <g>
     <use style="fill-opacity:0;stroke:#000080;stroke-width:1.5;" x="94.634732" xlink:href="#m328cb77d92" y="284.919293"/>
     <use style="fill-opacity:0;stroke:#000080;stroke-width:1.5;" x="160.487508" xlink:href="#m328cb77d92" y="173.254529"/>
     <use style="fill-opacity:0;stroke:#000080;stroke-width:1.5;" x="196.199505" xlink:href="#m328cb77d92" y="29.086407"/>
     <use style="fill-opacity:0;stroke:#000080;stroke-width:1.5;" x="196.199505" xlink:href="#m328cb77d92" y="27.513663"/>
     <use style="fill-opacity:0;stroke:#000080;stroke-width:1.5;" x="196.199505" xlink:href="#m328cb77d92" y="27.513663"/>
     <use style="fill-opacity:0;stroke:#000080;stroke-width:1.5;" x="333.168" xlink:href="#m328cb77d92" y="27.513663"/>
    </g>
   </g>
   <g id="line2d_45">
    <path style="fill:none;stroke:#000080;stroke-linecap:square;stroke-width:1.5;"/>
    <g/>
   </g>
   <g id="line2d_46">
    <defs>
     <path d="M 0 1.5 
C 0.397805 1.5 0.77937 1.341951 1.06066 1.06066 
C 1.341951 0.77937 1.5 0.397805 1.5 0 
C 1.5 -0.397805 1.341951 -0.77937 1.06066 -1.06066 
C 0.77937 -1.341951 0.397805 -1.5 0 -1.5 
C -0.397805 -1.5 -0.77937 -1.341951 -1.06066 -1.06066 
C -1.341951 -0.77937 -1.5 -0.397805 -1.5 0 
C -1.5 0.397805 -1.341951 0.77937 -1.06066 1.06066 
C -0.77937 1.341951 -0.397805 1.5 0 1.5 
z
" id="m8c62d241c4" style="stroke:#ff00ff;"/>
    </defs>
    <g>
     <use style="fill:#ff00ff;stroke:#ff00ff;" x="207.987674" xlink:href="#m8c62d241c4" y="27.513663"/>
     <use style="fill:#ff00ff;stroke:#ff00ff;" x="207.987674" xlink:href="#m8c62d241c4" y="27.513663"/>
    </g>
   </g>
   <g id="line2d_47">
    <path d="M 16.541714 294.88 
L 16.541714 289.637523 
L 40.370217 289.637523 
L 40.370217 289.113275 
L 49.989246 289.113275 
L 49.989246 288.589027 
L 63.08939 288.589027 
L 63.08939 288.06478 
L 73.192638 288.06478 
L 73.192638 287.540532 
L 76.641893 287.540532 
L 76.641893 287.016284 
L 80.372935 287.016284 
L 80.372935 286.492036 
L 86.036231 286.492036 
L 86.036231 285.967789 
L 86.335171 285.967789 
L 86.335171 285.443541 
L 88.556144 285.443541 
L 88.556144 284.919293 
L 95.525534 284.919293 
L 95.525534 284.395046 
L 95.698286 284.395046 
L 95.698286 283.870798 
L 99.395756 283.870798 
L 99.395756 283.34655 
L 99.806659 283.34655 
L 99.806659 282.822302 
L 100.856673 282.822302 
L 100.856673 282.298055 
L 103.560793 282.298055 
L 103.560793 281.773807 
L 105.317315 281.773807 
L 105.317315 281.249559 
L 107.000154 281.249559 
L 107.000154 280.725312 
L 107.952917 280.725312 
L 107.952917 279.676816 
L 108.451173 279.676816 
L 108.451173 279.152568 
L 108.935392 279.152568 
L 108.935392 278.104073 
L 111.100812 278.104073 
L 111.100812 277.579825 
L 111.989488 277.579825 
L 111.989488 276.53133 
L 113.639848 276.53133 
L 113.639848 275.482834 
L 116.220179 275.482834 
L 116.220179 274.958587 
L 116.375733 274.958587 
L 116.375733 274.434339 
L 117.033994 274.434339 
L 117.033994 273.910091 
L 118.371562 273.910091 
L 118.371562 273.385844 
L 120.365424 273.385844 
L 120.365424 272.861596 
L 120.64954 272.861596 
L 120.729861 271.8131 
L 120.968596 271.8131 
L 120.968596 271.288853 
L 121.359263 271.288853 
L 121.359263 270.764605 
L 122.04084 270.764605 
L 122.04084 270.240357 
L 122.55288 270.240357 
L 122.55288 269.716109 
L 123.499282 269.716109 
L 123.567356 268.143366 
L 124.843597 268.143366 
L 124.843597 267.619119 
L 125.248787 267.619119 
L 125.340952 266.570623 
L 125.584335 266.570623 
L 125.584335 266.046375 
L 127.087492 266.046375 
L 127.087492 265.522128 
L 127.443604 265.522128 
L 127.443604 264.99788 
L 127.739271 264.99788 
L 127.739271 264.473632 
L 128.13443 264.473632 
L 128.13443 263.949385 
L 129.486197 263.949385 
L 129.486197 263.425137 
L 130.67209 263.425137 
L 130.67209 261.852394 
L 130.917487 261.852394 
L 130.917487 261.328146 
L 131.049878 261.328146 
L 131.115693 260.279651 
L 131.760342 260.279651 
L 131.760342 259.755403 
L 131.990784 259.755403 
L 131.990784 259.231155 
L 133.059747 259.231155 
L 133.098812 256.609917 
L 133.465568 256.609917 
L 133.465568 256.085669 
L 133.6555 256.085669 
L 133.6555 255.561421 
L 134.139719 255.561421 
L 134.231294 253.988678 
L 134.964358 253.988678 
L 134.964358 253.46443 
L 135.32806 253.46443 
L 135.32806 251.891687 
L 135.751238 251.891687 
L 135.767951 250.843192 
L 136.261911 250.843192 
L 136.261911 250.318944 
L 136.82081 250.318944 
L 136.82081 249.794696 
L 137.163039 249.794696 
L 137.163039 249.270448 
L 137.603992 249.270448 
L 137.603992 248.221953 
L 138.04855 248.221953 
L 138.04855 247.697705 
L 138.510405 247.697705 
L 138.553074 246.64921 
L 138.960174 246.64921 
L 138.960174 245.600714 
L 139.125849 245.600714 
L 139.139583 244.027971 
L 139.289942 244.027971 
L 139.384945 242.979476 
L 139.411992 242.979476 
L 139.49288 241.406733 
L 140.035654 241.406733 
L 140.035654 240.882485 
L 140.268636 240.882485 
L 140.294329 239.83399 
L 141.686932 239.83399 
L 141.686932 239.309742 
L 141.828403 239.309742 
L 141.828403 238.785494 
L 141.96872 238.785494 
L 142.07321 237.212751 
L 142.154044 237.212751 
L 142.154044 236.688503 
L 142.462317 236.688503 
L 142.518803 235.640008 
L 142.898061 235.640008 
L 143.008034 234.591512 
L 143.149954 234.591512 
L 143.22589 231.446026 
L 143.269132 231.446026 
L 143.312265 230.397531 
L 144.568377 230.397531 
L 144.638311 228.824787 
L 144.747635 228.824787 
L 144.747635 227.776292 
L 144.915234 227.776292 
L 144.915234 227.252044 
L 145.417974 227.252044 
L 145.512992 225.679301 
L 145.673326 225.679301 
L 145.7202 223.58231 
L 146.254795 223.58231 
L 146.272936 222.533815 
L 146.524921 222.533815 
L 146.524921 222.009567 
L 146.799661 222.009567 
L 146.799661 221.485319 
L 146.93104 221.485319 
L 147.035425 220.436824 
L 147.061422 220.436824 
L 147.147797 218.864081 
L 147.438268 218.864081 
L 147.438268 218.339833 
L 147.648761 218.339833 
L 147.715578 217.291338 
L 147.765521 217.291338 
L 147.807029 215.194347 
L 147.922722 215.194347 
L 147.930956 214.145851 
L 148.119259 214.145851 
L 148.119259 213.621604 
L 148.265202 213.621604 
L 148.265202 212.573108 
L 148.561358 212.573108 
L 148.561358 211.524613 
L 148.922576 211.524613 
L 148.922576 211.000365 
L 149.046458 211.000365 
L 149.046458 210.476117 
L 149.314378 210.476117 
L 149.314378 209.95187 
L 149.510735 209.95187 
L 149.600611 208.379126 
L 149.645373 208.379126 
L 149.690019 206.806383 
L 150.028504 206.806383 
L 150.122968 205.757888 
L 150.281655 205.757888 
L 150.288834 204.709392 
L 150.474427 204.709392 
L 150.531132 202.088154 
L 150.58765 202.088154 
L 150.608797 201.039658 
L 150.714141 201.039658 
L 150.714141 200.515411 
L 150.936741 200.515411 
L 150.936741 199.991163 
L 151.373474 199.991163 
L 151.373474 198.942667 
L 151.805957 198.942667 
L 151.910766 196.845677 
L 152.053843 196.845677 
L 152.144276 194.224438 
L 152.425434 194.224438 
L 152.425434 193.70019 
L 152.68959 193.70019 
L 152.739448 192.127447 
L 152.931294 192.127447 
L 153.004986 190.554704 
L 153.248369 190.554704 
L 153.296635 188.981961 
L 153.618931 188.981961 
L 153.677958 187.409218 
L 153.859664 187.409218 
L 153.859664 186.88497 
L 153.975883 186.88497 
L 153.987461 184.263731 
L 154.217413 184.263731 
L 154.302858 182.690988 
L 154.342587 182.690988 
L 154.382225 181.642493 
L 154.657159 181.642493 
L 154.657159 180.593997 
L 154.790233 180.593997 
L 154.790233 180.06975 
L 155.06964 180.06975 
L 155.16718 179.021254 
L 155.328526 179.021254 
L 155.371297 177.448511 
L 155.530748 177.448511 
L 155.583571 175.875768 
L 155.897145 175.875768 
L 155.897145 175.35152 
L 156.067204 175.35152 
L 156.067204 174.827272 
L 156.225437 174.827272 
L 156.271104 173.778777 
L 156.417434 173.778777 
L 156.417434 173.254529 
L 156.849095 173.254529 
L 156.849095 172.730281 
L 157.365541 172.730281 
L 157.427243 171.681786 
L 157.981989 171.681786 
L 157.981989 171.157538 
L 158.372038 171.157538 
L 158.372038 170.633291 
L 158.687516 170.633291 
L 158.687516 170.109043 
L 158.880156 170.109043 
L 158.880156 169.584795 
L 159.169411 169.584795 
L 159.169411 169.060547 
L 159.360989 169.060547 
L 159.369454 168.012052 
L 159.563012 168.012052 
L 159.563012 167.487804 
L 159.878104 167.487804 
L 159.878104 166.963557 
L 160.247941 166.963557 
L 160.247941 166.439309 
L 160.463701 166.439309 
L 160.5192 164.866566 
L 161.163946 164.866566 
L 161.163946 164.342318 
L 161.593119 164.342318 
L 161.593119 163.81807 
L 162.098704 163.81807 
L 162.098704 163.293823 
L 162.367365 163.293823 
L 162.367365 161.721079 
L 162.551203 161.721079 
L 162.551203 160.148336 
L 162.830245 160.148336 
L 162.830245 159.624089 
L 162.94748 159.624089 
L 162.94748 159.099841 
L 163.733345 159.099841 
L 163.733345 158.051345 
L 163.968094 158.051345 
L 163.968094 157.527098 
L 165.138437 157.527098 
L 165.138437 157.00285 
L 165.494706 157.00285 
L 165.494706 156.478602 
L 165.835028 156.478602 
L 165.835028 155.954354 
L 166.028566 155.954354 
L 166.028566 155.430107 
L 166.248333 155.430107 
L 166.248333 154.905859 
L 166.397984 154.905859 
L 166.397984 154.381611 
L 166.828312 154.381611 
L 166.828312 153.333116 
L 167.186478 153.333116 
L 167.186478 151.760373 
L 167.579378 151.760373 
L 167.579378 150.711877 
L 168.200551 150.711877 
L 168.200551 149.663382 
L 168.31912 149.663382 
L 168.31912 148.090639 
L 168.704448 148.090639 
L 168.814718 146.517896 
L 168.895136 146.517896 
L 168.895136 145.993648 
L 169.16769 145.993648 
L 169.16769 145.4694 
L 169.355701 145.4694 
L 169.450119 143.372409 
L 170.121825 143.372409 
L 170.121825 142.848162 
L 170.573125 142.848162 
L 170.573125 142.323914 
L 170.737715 142.323914 
L 170.737715 141.799666 
L 170.984913 141.799666 
L 170.984913 141.275418 
L 171.277357 141.275418 
L 171.277357 140.226923 
L 171.55658 140.226923 
L 171.558662 139.178427 
L 171.855915 139.178427 
L 171.855915 137.605684 
L 172.292372 137.605684 
L 172.292372 137.081437 
L 172.480879 137.081437 
L 172.480879 136.557189 
L 172.776314 136.557189 
L 172.776314 135.508693 
L 172.907717 135.508693 
L 172.907717 134.984446 
L 173.314815 134.984446 
L 173.314815 134.460198 
L 173.48877 134.460198 
L 173.494352 132.363207 
L 173.76019 132.363207 
L 173.798616 131.314712 
L 176.647114 131.314712 
L 176.749024 129.741969 
L 177.487299 129.741969 
L 177.487299 128.693473 
L 178.417339 128.693473 
L 178.417339 128.169225 
L 178.537073 128.169225 
L 178.537073 127.644978 
L 178.774066 127.644978 
L 178.774066 127.12073 
L 179.040204 127.12073 
L 179.055019 126.072235 
L 179.397563 126.072235 
L 179.441057 124.499491 
L 179.777358 124.499491 
L 179.868764 122.926748 
L 179.925166 122.926748 
L 179.925166 121.878253 
L 180.05902 121.878253 
L 180.150206 119.781262 
L 180.353624 119.781262 
L 180.353624 118.732766 
L 180.611322 118.732766 
L 180.692291 117.684271 
L 180.753378 117.684271 
L 180.760694 116.635776 
L 180.975123 116.635776 
L 181.035215 115.063032 
L 181.152389 115.063032 
L 181.245082 112.441794 
L 181.471143 112.441794 
L 181.47699 110.869051 
L 181.626012 110.869051 
L 181.720805 108.247812 
L 181.815078 108.247812 
L 181.815078 107.723564 
L 182.073387 107.723564 
L 182.073387 107.199317 
L 182.197176 107.199317 
L 182.197176 106.675069 
L 182.39562 106.675069 
L 182.496194 104.05383 
L 182.7141 104.05383 
L 182.7141 103.005335 
L 183.047075 103.005335 
L 183.047075 101.956839 
L 183.187374 101.956839 
L 183.24866 100.908344 
L 183.413467 100.908344 
L 183.469789 97.23861 
L 183.771189 97.23861 
L 183.771189 96.714362 
L 184.133644 96.714362 
L 184.133644 96.190115 
L 184.259415 96.190115 
L 184.259415 95.665867 
L 184.79114 95.665867 
L 184.79114 95.141619 
L 185.119681 95.141619 
L 185.119681 93.568876 
L 185.847595 93.568876 
L 185.847595 92.520381 
L 186.154054 92.520381 
L 186.154054 91.471885 
L 186.290684 91.471885 
L 186.312762 89.899142 
L 186.485751 89.899142 
L 186.485751 89.374894 
L 186.676902 89.374894 
L 186.676902 88.850646 
L 186.799162 88.850646 
L 186.884742 87.802151 
L 191.75603 87.802151 
L 191.75603 87.277903 
L 192.944666 87.277903 
L 192.944666 85.180912 
L 193.100566 85.180912 
L 193.100566 84.656665 
L 193.243275 84.656665 
L 193.243275 80.986931 
L 193.498481 80.986931 
L 193.498481 79.938435 
L 193.696622 79.938435 
L 193.771698 77.841444 
L 193.904992 77.841444 
L 193.934473 76.792949 
L 194.036135 76.792949 
L 194.088425 72.598967 
L 194.291572 72.598967 
L 194.366309 69.977729 
L 194.581499 69.977729 
L 194.687008 67.35649 
L 194.721133 67.35649 
L 194.721133 65.259499 
L 194.849976 65.259499 
L 194.855883 64.211004 
L 195.023646 64.211004 
L 195.101096 61.065517 
L 195.219775 61.065517 
L 195.307335 60.017022 
L 195.386123 60.017022 
L 195.386123 58.968526 
L 195.534885 58.968526 
L 195.596191 56.871536 
L 195.813882 56.871536 
L 195.813882 56.347288 
L 195.973598 56.347288 
L 195.973598 55.82304 
L 196.100412 55.82304 
L 196.135832 54.250297 
L 199.056569 54.250297 
L 199.056569 53.726049 
L 199.198526 53.726049 
L 199.200194 49.532068 
L 199.588167 49.532068 
L 199.598356 45.862334 
L 199.914056 45.862334 
L 199.914056 45.338086 
L 200.041987 45.338086 
L 200.089172 42.192599 
L 200.282501 42.192599 
L 200.282501 41.144104 
L 200.547865 41.144104 
L 200.632859 38.522865 
L 207.080854 38.522865 
L 207.176027 37.47437 
L 207.247193 37.47437 
L 207.269372 35.901627 
L 207.377508 35.901627 
L 207.484453 33.804636 
L 207.64848 33.804636 
L 207.757813 29.610654 
L 207.848059 29.610654 
L 207.848059 28.562159 
L 207.963399 28.562159 
L 207.987674 27.513663 
L 333.168 27.513663 
L 333.168 27.513663 
" style="fill:none;stroke:#ff00ff;stroke-linecap:square;stroke-width:1.5;"/>
   </g>
   <g id="line2d_48">
    <defs>
     <path d="M -0 8.485281 
L 5.091169 0 
L 0 -8.485281 
L -5.091169 -0 
z
" id="m920d006eab" style="stroke:#ff00ff;stroke-linejoin:miter;stroke-width:1.5;"/>
    </defs>
    <g>
     <use style="fill-opacity:0;stroke:#ff00ff;stroke-linejoin:miter;stroke-width:1.5;" x="136.82081" xlink:href="#m920d006eab" y="249.794696"/>
     <use style="fill-opacity:0;stroke:#ff00ff;stroke-linejoin:miter;stroke-width:1.5;" x="181.152389" xlink:href="#m920d006eab" y="114.538785"/>
     <use style="fill-opacity:0;stroke:#ff00ff;stroke-linejoin:miter;stroke-width:1.5;" x="207.987674" xlink:href="#m920d006eab" y="28.037911"/>
     <use style="fill-opacity:0;stroke:#ff00ff;stroke-linejoin:miter;stroke-width:1.5;" x="207.987674" xlink:href="#m920d006eab" y="27.513663"/>
     <use style="fill-opacity:0;stroke:#ff00ff;stroke-linejoin:miter;stroke-width:1.5;" x="333.168" xlink:href="#m920d006eab" y="27.513663"/>
    </g>
   </g>
   <g id="line2d_49">
    <path style="fill:none;stroke:#ff00ff;stroke-linecap:square;stroke-width:1.5;"/>
    <g/>
   </g>
   <g id="line2d_50">
    <defs>
     <path d="M 0 1.5 
C 0.397805 1.5 0.77937 1.341951 1.06066 1.06066 
C 1.341951 0.77937 1.5 0.397805 1.5 0 
C 1.5 -0.397805 1.341951 -0.77937 1.06066 -1.06066 
C 0.77937 -1.341951 0.397805 -1.5 0 -1.5 
C -0.397805 -1.5 -0.77937 -1.341951 -1.06066 -1.06066 
C -1.341951 -0.77937 -1.5 -0.397805 -1.5 0 
C -1.5 0.397805 -1.341951 0.77937 -1.06066 1.06066 
C -0.77937 1.341951 -0.397805 1.5 0 1.5 
z
" id="m3e75fe976e" style="stroke:#ff7500;"/>
    </defs>
    <g>
     <use style="fill:#ff7500;stroke:#ff7500;" x="228.442291" xlink:href="#m3e75fe976e" y="27.513663"/>
     <use style="fill:#ff7500;stroke:#ff7500;" x="228.442291" xlink:href="#m3e75fe976e" y="27.513663"/>
    </g>
   </g>
   <g id="line2d_51">
    <path d="M 16.541714 294.88 
L 16.541714 289.113275 
L 56.12 289.113275 
L 56.12 288.589027 
L 69.672503 288.589027 
L 69.672503 288.06478 
L 73.817748 288.06478 
L 73.817748 287.540532 
L 77.155024 287.540532 
L 77.155024 286.492036 
L 78.137499 286.492036 
L 78.137499 285.443541 
L 80.372935 285.443541 
L 80.372935 284.919293 
L 80.787138 284.919293 
L 80.787138 284.395046 
L 82.350819 284.395046 
L 82.350819 283.870798 
L 83.08236 283.870798 
L 83.08236 283.34655 
L 87.481505 283.34655 
L 87.481505 282.822302 
L 90.753425 282.822302 
L 90.753425 282.298055 
L 94.816624 282.298055 
L 94.816624 281.773807 
L 95.351029 281.773807 
L 95.351029 281.249559 
L 99.11626 281.249559 
L 99.11626 280.725312 
L 99.533818 280.725312 
L 99.533818 280.201064 
L 99.67078 280.201064 
L 99.67078 279.676816 
L 102.20309 279.676816 
L 102.20309 279.152568 
L 105.415256 279.152568 
L 105.415256 278.628321 
L 105.801534 278.628321 
L 105.801534 278.104073 
L 105.991465 278.104073 
L 105.991465 277.579825 
L 106.730875 277.579825 
L 106.730875 276.007082 
L 111.030511 276.007082 
L 111.030511 275.482834 
L 113.880253 275.482834 
L 113.939832 274.434339 
L 114.524536 274.434339 
L 114.524536 273.910091 
L 115.145539 273.910091 
L 115.145539 273.385844 
L 115.475044 273.385844 
L 115.475044 272.861596 
L 115.744887 272.861596 
L 115.744887 272.337348 
L 117.0836 272.337348 
L 117.0836 271.8131 
L 118.417459 271.8131 
L 118.463235 270.764605 
L 119.354037 270.764605 
L 119.354037 269.716109 
L 119.612517 269.716109 
L 119.612517 268.667614 
L 119.867168 268.667614 
L 119.867168 268.143366 
L 120.15957 268.143366 
L 120.15957 267.094871 
L 120.809808 267.094871 
L 120.809808 266.570623 
L 122.516807 266.570623 
L 122.516807 266.046375 
L 123.015063 266.046375 
L 123.015063 265.522128 
L 123.465144 265.522128 
L 123.465144 264.99788 
L 124.168185 264.99788 
L 124.168185 263.949385 
L 124.396284 263.949385 
L 124.460903 262.376641 
L 124.812029 262.376641 
L 124.812029 261.852394 
L 125.156126 261.852394 
L 125.156126 260.279651 
L 125.5541 260.279651 
L 125.5541 259.755403 
L 125.704746 259.755403 
L 125.704746 259.231155 
L 125.943067 259.231155 
L 125.943067 257.658412 
L 126.178129 257.658412 
L 126.265455 256.609917 
L 127.05979 256.609917 
L 127.05979 256.085669 
L 127.197852 256.085669 
L 127.197852 255.561421 
L 127.551708 255.561421 
L 127.551708 255.037173 
L 127.712602 255.037173 
L 127.712602 254.512926 
L 127.898427 254.512926 
L 127.898427 253.46443 
L 128.212383 253.46443 
L 128.212383 252.940182 
L 128.367236 252.940182 
L 128.367236 252.415935 
L 128.748375 252.415935 
L 128.823599 250.318944 
L 129.534278 250.318944 
L 129.534278 249.794696 
L 130.14738 249.794696 
L 130.14738 249.270448 
L 130.716969 249.270448 
L 130.716969 248.746201 
L 131.005861 248.746201 
L 131.005861 248.221953 
L 131.137575 248.221953 
L 131.137575 247.697705 
L 131.289977 247.697705 
L 131.354881 245.600714 
L 131.548134 245.600714 
L 131.548134 245.076467 
L 131.739239 245.076467 
L 131.739239 244.552219 
L 132.238701 244.552219 
L 132.238701 244.027971 
L 132.483094 244.027971 
L 132.563791 241.406733 
L 132.961694 241.406733 
L 132.961694 240.882485 
L 133.712073 240.882485 
L 133.712073 239.83399 
L 134.823755 239.83399 
L 134.823755 239.309742 
L 135.10382 239.309742 
L 135.10382 238.785494 
L 135.464614 238.785494 
L 135.498584 237.736999 
L 135.583215 237.736999 
L 135.583215 237.212751 
L 135.784647 237.212751 
L 135.784647 236.688503 
L 136.033161 236.688503 
L 136.082436 235.640008 
L 136.245672 235.640008 
L 136.245672 234.591512 
L 136.66297 234.591512 
L 136.66297 234.067265 
L 136.992776 234.067265 
L 137.070377 231.970274 
L 137.960554 231.970274 
L 137.960554 230.921778 
L 138.324271 230.921778 
L 138.324271 229.873283 
L 138.609803 229.873283 
L 138.609803 229.349035 
L 139.08458 229.349035 
L 139.08458 228.30054 
L 139.546595 228.30054 
L 139.546595 227.776292 
L 139.891706 227.776292 
L 139.891706 225.679301 
L 140.204235 225.679301 
L 140.230025 223.58231 
L 140.825197 223.58231 
L 140.825197 222.533815 
L 141.182408 222.533815 
L 141.182408 220.961072 
L 141.793145 220.961072 
L 141.793145 220.436824 
L 142.00362 220.436824 
L 142.050045 219.388328 
L 143.160822 219.388328 
L 143.193387 217.291338 
L 143.387489 217.291338 
L 143.387489 216.76709 
L 143.988072 216.76709 
L 143.998424 215.194347 
L 144.214377 215.194347 
L 144.214377 214.145851 
L 144.417555 214.145851 
L 144.447825 212.04886 
L 145.37982 212.04886 
L 145.456044 208.379126 
L 145.77628 208.379126 
L 145.804252 206.282136 
L 146.245718 206.282136 
L 146.245718 205.757888 
L 146.507044 205.757888 
L 146.507044 204.709392 
L 146.913581 204.709392 
L 147.0007 203.660897 
L 147.182226 203.660897 
L 147.182226 203.136649 
L 147.505907 203.136649 
L 147.539626 202.088154 
L 147.939186 202.088154 
L 147.955635 199.991163 
L 148.232877 199.991163 
L 148.265202 198.942667 
L 148.449898 198.942667 
L 148.529586 197.369924 
L 148.687861 197.369924 
L 148.687861 196.845677 
L 148.836885 196.845677 
L 148.922576 195.272933 
L 149.100377 195.272933 
L 149.146459 192.127447 
L 149.367465 192.127447 
L 149.367465 191.603199 
L 149.525747 191.603199 
L 149.608079 190.554704 
L 150.151929 190.554704 
L 150.151929 190.030456 
L 150.474427 190.030456 
L 150.552348 188.457713 
L 150.915994 188.457713 
L 150.943651 186.360722 
L 151.053835 186.360722 
L 151.053835 184.787979 
L 151.773073 184.787979 
L 151.773073 184.263731 
L 151.923823 184.263731 
L 151.923823 183.215236 
L 152.583158 183.215236 
L 152.583158 182.690988 
L 152.955893 182.690988 
L 152.955893 182.16674 
L 153.078364 182.16674 
L 153.145352 180.593997 
L 153.36278 180.593997 
L 153.36278 180.06975 
L 153.853833 180.06975 
L 153.853833 179.021254 
L 154.079811 179.021254 
L 154.079811 177.972759 
L 154.421772 177.972759 
L 154.421772 177.448511 
L 155.567741 177.448511 
L 155.567741 176.924263 
L 155.725388 176.924263 
L 155.725388 175.875768 
L 156.301482 175.875768 
L 156.301482 174.827272 
L 165.95372 174.827272 
L 165.95372 174.303025 
L 166.696197 174.303025 
L 166.696197 173.778777 
L 169.196381 173.778777 
L 169.229794 172.730281 
L 169.320161 172.730281 
L 169.402975 171.681786 
L 169.625765 171.681786 
L 169.625765 170.109043 
L 169.958057 170.109043 
L 169.958057 169.584795 
L 170.245882 169.584795 
L 170.290773 166.963557 
L 170.429193 166.963557 
L 170.429193 166.439309 
L 170.55106 166.439309 
L 170.55106 165.915061 
L 170.768265 165.915061 
L 170.879097 164.342318 
L 171.14136 164.342318 
L 171.14136 163.81807 
L 171.462612 163.81807 
L 171.55658 162.245327 
L 171.662458 162.245327 
L 171.662458 161.721079 
L 171.931469 161.721079 
L 171.931469 161.196832 
L 172.059357 161.196832 
L 172.162193 158.575593 
L 172.274406 158.575593 
L 172.368023 155.954354 
L 172.589076 155.954354 
L 172.696597 153.857364 
L 172.72775 153.857364 
L 172.72775 151.236125 
L 172.98263 151.236125 
L 172.98263 150.711877 
L 173.182711 150.711877 
L 173.273406 149.139134 
L 173.309175 149.139134 
L 173.312935 148.090639 
L 173.447778 148.090639 
L 173.529664 145.993648 
L 173.563051 145.993648 
L 173.651767 143.372409 
L 173.904303 143.372409 
L 173.956904 140.751171 
L 174.077818 140.751171 
L 174.124511 137.605684 
L 174.205029 137.605684 
L 174.205029 137.081437 
L 174.359634 137.081437 
L 174.43906 134.460198 
L 174.526883 134.460198 
L 174.526883 133.93595 
L 174.735845 133.93595 
L 174.798041 131.314712 
L 174.904632 131.314712 
L 174.959389 129.741969 
L 175.064988 129.741969 
L 175.064988 129.217721 
L 175.193552 129.217721 
L 175.30275 127.12073 
L 175.312795 127.12073 
L 175.382946 124.499491 
L 175.570277 124.499491 
L 175.581814 122.926748 
L 175.77515 122.926748 
L 175.874248 121.878253 
L 175.951827 121.878253 
L 176.061135 120.30551 
L 176.179304 120.30551 
L 176.233326 118.208519 
L 176.318779 118.208519 
L 176.358197 117.160023 
L 176.513411 117.160023 
L 176.56017 115.063032 
L 176.883969 115.063032 
L 176.883969 114.538785 
L 177.073851 114.538785 
L 177.073851 114.014537 
L 179.286352 114.014537 
L 179.342048 112.441794 
L 179.55912 112.441794 
L 179.626967 110.344803 
L 179.737296 110.344803 
L 179.737296 109.820555 
L 179.89186 109.820555 
L 179.940516 108.77206 
L 180.003055 108.77206 
L 180.003055 107.199317 
L 180.379818 107.199317 
L 180.476761 106.150821 
L 180.491626 106.150821 
L 180.56453 105.102326 
L 180.747279 105.102326 
L 180.826397 103.005335 
L 180.930519 103.005335 
L 180.988361 101.956839 
L 181.042412 101.956839 
L 181.126154 99.859849 
L 181.227295 99.859849 
L 181.332562 98.811353 
L 181.37143 98.811353 
L 181.454759 97.23861 
L 181.523699 97.23861 
L 181.627171 95.141619 
L 181.796723 95.141619 
L 181.796723 93.568876 
L 181.927071 93.568876 
L 182.007756 91.996133 
L 182.116251 91.996133 
L 182.116251 90.947637 
L 182.298914 90.947637 
L 182.298914 89.899142 
L 182.491785 89.899142 
L 182.491785 89.374894 
L 182.724978 89.374894 
L 182.724978 88.850646 
L 182.836617 88.850646 
L 182.937873 84.656665 
L 207.334698 84.656665 
L 207.420986 82.035426 
L 207.478786 82.035426 
L 207.573068 77.317197 
L 207.61171 77.317197 
L 207.720768 72.074719 
L 207.745389 72.074719 
L 207.785923 69.977729 
L 211.310557 69.977729 
L 211.310557 69.453481 
L 219.976291 69.453481 
L 220.07276 62.638261 
L 220.0933 62.638261 
L 220.195878 56.871536 
L 224.601394 56.871536 
L 224.687652 49.00782 
L 224.713095 49.00782 
L 224.786754 43.241095 
L 228.292213 43.241095 
L 228.401005 31.707645 
L 228.409773 31.707645 
L 228.442291 27.513663 
L 333.168 27.513663 
L 333.168 27.513663 
" style="fill:none;stroke:#ff7500;stroke-linecap:square;stroke-width:1.5;"/>
   </g>
   <g id="line2d_52">
    <defs>
     <path d="M 0 -6 
L -1.347084 -1.854102 
L -5.706339 -1.854102 
L -2.179628 0.708204 
L -3.526712 4.854102 
L -0 2.291796 
L 3.526712 4.854102 
L 2.179628 0.708204 
L 5.706339 -1.854102 
L 1.347084 -1.854102 
z
" id="mb2c736f37b" style="stroke:#ff7500;stroke-linejoin:bevel;stroke-width:1.5;"/>
    </defs>
    <g>
     <use style="fill-opacity:0;stroke:#ff7500;stroke-linejoin:bevel;stroke-width:1.5;" x="124.460903" xlink:href="#mb2c736f37b" y="263.425137"/>
     <use style="fill-opacity:0;stroke:#ff7500;stroke-linejoin:bevel;stroke-width:1.5;" x="156.301482" xlink:href="#mb2c736f37b" y="174.827272"/>
     <use style="fill-opacity:0;stroke:#ff7500;stroke-linejoin:bevel;stroke-width:1.5;" x="207.420986" xlink:href="#mb2c736f37b" y="82.035426"/>
     <use style="fill-opacity:0;stroke:#ff7500;stroke-linejoin:bevel;stroke-width:1.5;" x="228.442291" xlink:href="#mb2c736f37b" y="27.513663"/>
     <use style="fill-opacity:0;stroke:#ff7500;stroke-linejoin:bevel;stroke-width:1.5;" x="228.442291" xlink:href="#mb2c736f37b" y="27.513663"/>
     <use style="fill-opacity:0;stroke:#ff7500;stroke-linejoin:bevel;stroke-width:1.5;" x="333.168" xlink:href="#mb2c736f37b" y="27.513663"/>
    </g>
   </g>
   <g id="line2d_53">
    <path style="fill:none;stroke:#ff7500;stroke-linecap:square;stroke-width:1.5;"/>
    <g/>
   </g>
   <g id="line2d_54">
    <path d="M 333.168 27.513663 
L 363.64328 289.532673 
" style="fill:none;stroke:#ff7500;stroke-linecap:square;stroke-width:1.5;"/>
    <g>
     <use style="fill-opacity:0;stroke:#ff7500;stroke-linejoin:bevel;stroke-width:1.5;" x="333.168" xlink:href="#mb2c736f37b" y="27.513663"/>
     <use style="fill-opacity:0;stroke:#ff7500;stroke-linejoin:bevel;stroke-width:1.5;" x="363.64328" xlink:href="#mb2c736f37b" y="289.532673"/>
    </g>
   </g>
   <g id="line2d_55">
    <path d="M 333.168 27.513663 
L 363.64328 203.975446 
" style="fill:none;stroke:#ff00ff;stroke-linecap:square;stroke-width:1.5;"/>
    <g>
     <use style="fill-opacity:0;stroke:#ff00ff;stroke-linejoin:miter;stroke-width:1.5;" x="333.168" xlink:href="#m920d006eab" y="27.513663"/>
     <use style="fill-opacity:0;stroke:#ff00ff;stroke-linejoin:miter;stroke-width:1.5;" x="363.64328" xlink:href="#m920d006eab" y="203.975446"/>
    </g>
   </g>
   <g id="line2d_56">
    <path d="M 333.168 27.513663 
L 363.64328 118.418218 
" style="fill:none;stroke:#000080;stroke-linecap:square;stroke-width:1.5;"/>
    <g>
     <use style="fill-opacity:0;stroke:#000080;stroke-width:1.5;" x="333.168" xlink:href="#m328cb77d92" y="27.513663"/>
     <use style="fill-opacity:0;stroke:#000080;stroke-width:1.5;" x="363.64328" xlink:href="#m328cb77d92" y="118.418218"/>
    </g>
   </g>
   <g id="line2d_57">
    <path d="M 333.168 294.88 
L 333.168 27.513663 
" style="fill:none;stroke:#000000;stroke-linecap:square;stroke-width:1.5;"/>
   </g>
   <g id="patch_3">
    <path d="M 56.12 294.88 
L 56.12 24.84 
" style="fill:none;stroke:#000000;stroke-linecap:square;stroke-linejoin:miter;stroke-width:0.8;"/>
   </g>
   <g id="patch_4">
    <path d="M 333.168 294.88 
L 333.168 24.84 
" style="fill:none;stroke:#000000;stroke-linecap:square;stroke-linejoin:miter;stroke-width:0.8;"/>
   </g>
   <g id="patch_5">
    <path d="M 56.12 294.88 
L 333.168 294.88 
" style="fill:none;stroke:#000000;stroke-linecap:square;stroke-linejoin:miter;stroke-width:0.8;"/>
   </g>
   <g id="patch_6">
    <path d="M 56.12 24.84 
L 333.168 24.84 
" style="fill:none;stroke:#000000;stroke-linecap:square;stroke-linejoin:miter;stroke-width:0.8;"/>
   </g>
   <g id="text_13">
    <!-- R-SHADE-Tan -->
    <defs>
     <path d="M 44.390625 34.1875 
Q 47.5625 33.109375 50.5625 29.59375 
Q 53.5625 26.078125 56.59375 19.921875 
L 66.609375 0 
L 56 0 
L 46.6875 18.703125 
Q 43.0625 26.03125 39.671875 28.421875 
Q 36.28125 30.8125 30.421875 30.8125 
L 19.671875 30.8125 
L 19.671875 0 
L 9.8125 0 
L 9.8125 72.90625 
L 32.078125 72.90625 
Q 44.578125 72.90625 50.734375 67.671875 
Q 56.890625 62.453125 56.890625 51.90625 
Q 56.890625 45.015625 53.6875 40.46875 
Q 50.484375 35.9375 44.390625 34.1875 
z
M 19.671875 64.796875 
L 19.671875 38.921875 
L 32.078125 38.921875 
Q 39.203125 38.921875 42.84375 42.21875 
Q 46.484375 45.515625 46.484375 51.90625 
Q 46.484375 58.296875 42.84375 61.546875 
Q 39.203125 64.796875 32.078125 64.796875 
z
" id="DejaVuSans-52"/>
     <path d="M 53.515625 70.515625 
L 53.515625 60.890625 
Q 47.90625 63.578125 42.921875 64.890625 
Q 37.9375 66.21875 33.296875 66.21875 
Q 25.25 66.21875 20.875 63.09375 
Q 16.5 59.96875 16.5 54.203125 
Q 16.5 49.359375 19.40625 46.890625 
Q 22.3125 44.4375 30.421875 42.921875 
L 36.375 41.703125 
Q 47.40625 39.59375 52.65625 34.296875 
Q 57.90625 29 57.90625 20.125 
Q 57.90625 9.515625 50.796875 4.046875 
Q 43.703125 -1.421875 29.984375 -1.421875 
Q 24.8125 -1.421875 18.96875 -0.25 
Q 13.140625 0.921875 6.890625 3.21875 
L 6.890625 13.375 
Q 12.890625 10.015625 18.65625 8.296875 
Q 24.421875 6.59375 29.984375 6.59375 
Q 38.421875 6.59375 43.015625 9.90625 
Q 47.609375 13.234375 47.609375 19.390625 
Q 47.609375 24.75 44.3125 27.78125 
Q 41.015625 30.8125 33.5 32.328125 
L 27.484375 33.5 
Q 16.453125 35.6875 11.515625 40.375 
Q 6.59375 45.0625 6.59375 53.421875 
Q 6.59375 63.09375 13.40625 68.65625 
Q 20.21875 74.21875 32.171875 74.21875 
Q 37.3125 74.21875 42.625 73.28125 
Q 47.953125 72.359375 53.515625 70.515625 
z
" id="DejaVuSans-53"/>
     <path d="M 9.8125 72.90625 
L 19.671875 72.90625 
L 19.671875 43.015625 
L 55.515625 43.015625 
L 55.515625 72.90625 
L 65.375 72.90625 
L 65.375 0 
L 55.515625 0 
L 55.515625 34.71875 
L 19.671875 34.71875 
L 19.671875 0 
L 9.8125 0 
z
" id="DejaVuSans-48"/>
     <path d="M 34.1875 63.1875 
L 20.796875 26.90625 
L 47.609375 26.90625 
z
M 28.609375 72.90625 
L 39.796875 72.90625 
L 67.578125 0 
L 57.328125 0 
L 50.6875 18.703125 
L 17.828125 18.703125 
L 11.1875 0 
L 0.78125 0 
z
" id="DejaVuSans-41"/>
     <path d="M 19.671875 64.796875 
L 19.671875 8.109375 
L 31.59375 8.109375 
Q 46.6875 8.109375 53.6875 14.9375 
Q 60.6875 21.78125 60.6875 36.53125 
Q 60.6875 51.171875 53.6875 57.984375 
Q 46.6875 64.796875 31.59375 64.796875 
z
M 9.8125 72.90625 
L 30.078125 72.90625 
Q 51.265625 72.90625 61.171875 64.09375 
Q 71.09375 55.28125 71.09375 36.53125 
Q 71.09375 17.671875 61.125 8.828125 
Q 51.171875 0 30.078125 0 
L 9.8125 0 
z
" id="DejaVuSans-44"/>
     <path d="M 9.8125 72.90625 
L 55.90625 72.90625 
L 55.90625 64.59375 
L 19.671875 64.59375 
L 19.671875 43.015625 
L 54.390625 43.015625 
L 54.390625 34.71875 
L 19.671875 34.71875 
L 19.671875 8.296875 
L 56.78125 8.296875 
L 56.78125 0 
L 9.8125 0 
z
" id="DejaVuSans-45"/>
     <path d="M -0.296875 72.90625 
L 61.375 72.90625 
L 61.375 64.59375 
L 35.5 64.59375 
L 35.5 0 
L 25.59375 0 
L 25.59375 64.59375 
L -0.296875 64.59375 
z
" id="DejaVuSans-54"/>
    </defs>
    <g transform="translate(369.18424 294.223611)scale(0.17 -0.17)">
     <use xlink:href="#DejaVuSans-52"/>
     <use x="69.419922" xlink:href="#DejaVuSans-2d"/>
     <use x="105.503906" xlink:href="#DejaVuSans-53"/>
     <use x="168.980469" xlink:href="#DejaVuSans-48"/>
     <use x="244.175781" xlink:href="#DejaVuSans-41"/>
     <use x="312.583984" xlink:href="#DejaVuSans-44"/>
     <use x="389.585938" xlink:href="#DejaVuSans-45"/>
     <use x="452.769531" xlink:href="#DejaVuSans-2d"/>
     <use x="488.712891" xlink:href="#DejaVuSans-54"/>
     <use x="549.546875" xlink:href="#DejaVuSans-61"/>
     <use x="610.826172" xlink:href="#DejaVuSans-6e"/>
    </g>
   </g>
   <g id="text_14">
    <!-- SHADE-LM-PO -->
    <defs>
     <path d="M 9.8125 72.90625 
L 19.671875 72.90625 
L 19.671875 8.296875 
L 55.171875 8.296875 
L 55.171875 0 
L 9.8125 0 
z
" id="DejaVuSans-4c"/>
     <path d="M 9.8125 72.90625 
L 24.515625 72.90625 
L 43.109375 23.296875 
L 61.8125 72.90625 
L 76.515625 72.90625 
L 76.515625 0 
L 66.890625 0 
L 66.890625 64.015625 
L 48.09375 14.015625 
L 38.1875 14.015625 
L 19.390625 64.015625 
L 19.390625 0 
L 9.8125 0 
z
" id="DejaVuSans-4d"/>
     <path d="M 19.671875 64.796875 
L 19.671875 37.40625 
L 32.078125 37.40625 
Q 38.96875 37.40625 42.71875 40.96875 
Q 46.484375 44.53125 46.484375 51.125 
Q 46.484375 57.671875 42.71875 61.234375 
Q 38.96875 64.796875 32.078125 64.796875 
z
M 9.8125 72.90625 
L 32.078125 72.90625 
Q 44.34375 72.90625 50.609375 67.359375 
Q 56.890625 61.8125 56.890625 51.125 
Q 56.890625 40.328125 50.609375 34.8125 
Q 44.34375 29.296875 32.078125 29.296875 
L 19.671875 29.296875 
L 19.671875 0 
L 9.8125 0 
z
" id="DejaVuSans-50"/>
     <path d="M 39.40625 66.21875 
Q 28.65625 66.21875 22.328125 58.203125 
Q 16.015625 50.203125 16.015625 36.375 
Q 16.015625 22.609375 22.328125 14.59375 
Q 28.65625 6.59375 39.40625 6.59375 
Q 50.140625 6.59375 56.421875 14.59375 
Q 62.703125 22.609375 62.703125 36.375 
Q 62.703125 50.203125 56.421875 58.203125 
Q 50.140625 66.21875 39.40625 66.21875 
z
M 39.40625 74.21875 
Q 54.734375 74.21875 63.90625 63.9375 
Q 73.09375 53.65625 73.09375 36.375 
Q 73.09375 19.140625 63.90625 8.859375 
Q 54.734375 -1.421875 39.40625 -1.421875 
Q 24.03125 -1.421875 14.8125 8.828125 
Q 5.609375 19.09375 5.609375 36.375 
Q 5.609375 53.65625 14.8125 63.9375 
Q 24.03125 74.21875 39.40625 74.21875 
z
" id="DejaVuSans-4f"/>
    </defs>
    <g transform="translate(369.18424 208.666383)scale(0.17 -0.17)">
     <use xlink:href="#DejaVuSans-53"/>
     <use x="63.476562" xlink:href="#DejaVuSans-48"/>
     <use x="138.671875" xlink:href="#DejaVuSans-41"/>
     <use x="207.080078" xlink:href="#DejaVuSans-44"/>
     <use x="284.082031" xlink:href="#DejaVuSans-45"/>
     <use x="347.265625" xlink:href="#DejaVuSans-2d"/>
     <use x="383.349609" xlink:href="#DejaVuSans-4c"/>
     <use x="439.0625" xlink:href="#DejaVuSans-4d"/>
     <use x="525.341797" xlink:href="#DejaVuSans-2d"/>
     <use x="561.425781" xlink:href="#DejaVuSans-50"/>
     <use x="621.728516" xlink:href="#DejaVuSans-4f"/>
    </g>
   </g>
   <g id="text_15">
    <!-- SHADE-LM -->
    <g transform="translate(369.18424 123.109155)scale(0.17 -0.17)">
     <use xlink:href="#DejaVuSans-53"/>
     <use x="63.476562" xlink:href="#DejaVuSans-48"/>
     <use x="138.671875" xlink:href="#DejaVuSans-41"/>
     <use x="207.080078" xlink:href="#DejaVuSans-44"/>
     <use x="284.082031" xlink:href="#DejaVuSans-45"/>
     <use x="347.265625" xlink:href="#DejaVuSans-2d"/>
     <use x="383.349609" xlink:href="#DejaVuSans-4c"/>
     <use x="439.0625" xlink:href="#DejaVuSans-4d"/>
    </g>
   </g>
   <g id="text_16">
    <!-- best 2009 -->
    <defs>
     <path d="M 48.6875 27.296875 
Q 48.6875 37.203125 44.609375 42.84375 
Q 40.53125 48.484375 33.40625 48.484375 
Q 26.265625 48.484375 22.1875 42.84375 
Q 18.109375 37.203125 18.109375 27.296875 
Q 18.109375 17.390625 22.1875 11.75 
Q 26.265625 6.109375 33.40625 6.109375 
Q 40.53125 6.109375 44.609375 11.75 
Q 48.6875 17.390625 48.6875 27.296875 
z
M 18.109375 46.390625 
Q 20.953125 51.265625 25.265625 53.625 
Q 29.59375 56 35.59375 56 
Q 45.5625 56 51.78125 48.09375 
Q 58.015625 40.1875 58.015625 27.296875 
Q 58.015625 14.40625 51.78125 6.484375 
Q 45.5625 -1.421875 35.59375 -1.421875 
Q 29.59375 -1.421875 25.265625 0.953125 
Q 20.953125 3.328125 18.109375 8.203125 
L 18.109375 0 
L 9.078125 0 
L 9.078125 75.984375 
L 18.109375 75.984375 
z
" id="DejaVuSans-62"/>
     <path d="M 10.984375 1.515625 
L 10.984375 10.5 
Q 14.703125 8.734375 18.5 7.8125 
Q 22.3125 6.890625 25.984375 6.890625 
Q 35.75 6.890625 40.890625 13.453125 
Q 46.046875 20.015625 46.78125 33.40625 
Q 43.953125 29.203125 39.59375 26.953125 
Q 35.25 24.703125 29.984375 24.703125 
Q 19.046875 24.703125 12.671875 31.3125 
Q 6.296875 37.9375 6.296875 49.421875 
Q 6.296875 60.640625 12.9375 67.421875 
Q 19.578125 74.21875 30.609375 74.21875 
Q 43.265625 74.21875 49.921875 64.515625 
Q 56.59375 54.828125 56.59375 36.375 
Q 56.59375 19.140625 48.40625 8.859375 
Q 40.234375 -1.421875 26.421875 -1.421875 
Q 22.703125 -1.421875 18.890625 -0.6875 
Q 15.09375 0.046875 10.984375 1.515625 
z
M 30.609375 32.421875 
Q 37.25 32.421875 41.125 36.953125 
Q 45.015625 41.5 45.015625 49.421875 
Q 45.015625 57.28125 41.125 61.84375 
Q 37.25 66.40625 30.609375 66.40625 
Q 23.96875 66.40625 20.09375 61.84375 
Q 16.21875 57.28125 16.21875 49.421875 
Q 16.21875 41.5 20.09375 36.953125 
Q 23.96875 32.421875 30.609375 32.421875 
z
" id="DejaVuSans-39"/>
    </defs>
    <g transform="translate(369.18424 37.551928)scale(0.17 -0.17)">
     <use xlink:href="#DejaVuSans-62"/>
     <use x="63.476562" xlink:href="#DejaVuSans-65"/>
     <use x="125" xlink:href="#DejaVuSans-73"/>
     <use x="177.099609" xlink:href="#DejaVuSans-74"/>
     <use x="216.308594" xlink:href="#DejaVuSans-20"/>
     <use x="248.095703" xlink:href="#DejaVuSans-32"/>
     <use x="311.71875" xlink:href="#DejaVuSans-30"/>
     <use x="375.341797" xlink:href="#DejaVuSans-30"/>
     <use x="438.964844" xlink:href="#DejaVuSans-39"/>
    </g>
   </g>
   <g id="text_17">
    <!-- bbob f21, 10-D -->
    <g transform="translate(58.89048 35.290806)scale(0.102 -0.102)">
     <use xlink:href="#DejaVuSans-62"/>
     <use x="63.476562" xlink:href="#DejaVuSans-62"/>
     <use x="126.953125" xlink:href="#DejaVuSans-6f"/>
     <use x="188.134766" xlink:href="#DejaVuSans-62"/>
     <use x="251.611328" xlink:href="#DejaVuSans-20"/>
     <use x="283.398438" xlink:href="#DejaVuSans-66"/>
     <use x="318.603516" xlink:href="#DejaVuSans-32"/>
     <use x="382.226562" xlink:href="#DejaVuSans-31"/>
     <use x="445.849609" xlink:href="#DejaVuSans-2c"/>
     <use x="477.636719" xlink:href="#DejaVuSans-20"/>
     <use x="509.423828" xlink:href="#DejaVuSans-31"/>
     <use x="573.046875" xlink:href="#DejaVuSans-30"/>
     <use x="636.669922" xlink:href="#DejaVuSans-2d"/>
     <use x="672.753906" xlink:href="#DejaVuSans-44"/>
    </g>
    <!-- 51 targets: 100..1e-08 -->
    <defs>
     <path d="M 10.796875 72.90625 
L 49.515625 72.90625 
L 49.515625 64.59375 
L 19.828125 64.59375 
L 19.828125 46.734375 
Q 21.96875 47.46875 24.109375 47.828125 
Q 26.265625 48.1875 28.421875 48.1875 
Q 40.625 48.1875 47.75 41.5 
Q 54.890625 34.8125 54.890625 23.390625 
Q 54.890625 11.625 47.5625 5.09375 
Q 40.234375 -1.421875 26.90625 -1.421875 
Q 22.3125 -1.421875 17.546875 -0.640625 
Q 12.796875 0.140625 7.71875 1.703125 
L 7.71875 11.625 
Q 12.109375 9.234375 16.796875 8.0625 
Q 21.484375 6.890625 26.703125 6.890625 
Q 35.15625 6.890625 40.078125 11.328125 
Q 45.015625 15.765625 45.015625 23.390625 
Q 45.015625 31 40.078125 35.4375 
Q 35.15625 39.890625 26.703125 39.890625 
Q 22.75 39.890625 18.8125 39.015625 
Q 14.890625 38.140625 10.796875 36.28125 
z
" id="DejaVuSans-35"/>
     <path d="M 11.71875 12.40625 
L 22.015625 12.40625 
L 22.015625 0 
L 11.71875 0 
z
M 11.71875 51.703125 
L 22.015625 51.703125 
L 22.015625 39.3125 
L 11.71875 39.3125 
z
" id="DejaVuSans-3a"/>
    </defs>
    <g transform="translate(58.89048 46.712575)scale(0.102 -0.102)">
     <use xlink:href="#DejaVuSans-35"/>
     <use x="63.623047" xlink:href="#DejaVuSans-31"/>
     <use x="127.246094" xlink:href="#DejaVuSans-20"/>
     <use x="159.033203" xlink:href="#DejaVuSans-74"/>
     <use x="198.242188" xlink:href="#DejaVuSans-61"/>
     <use x="259.521484" xlink:href="#DejaVuSans-72"/>
     <use x="300.619141" xlink:href="#DejaVuSans-67"/>
     <use x="364.095703" xlink:href="#DejaVuSans-65"/>
     <use x="425.619141" xlink:href="#DejaVuSans-74"/>
     <use x="464.828125" xlink:href="#DejaVuSans-73"/>
     <use x="516.927734" xlink:href="#DejaVuSans-3a"/>
     <use x="550.619141" xlink:href="#DejaVuSans-20"/>
     <use x="582.40625" xlink:href="#DejaVuSans-31"/>
     <use x="646.029297" xlink:href="#DejaVuSans-30"/>
     <use x="709.652344" xlink:href="#DejaVuSans-30"/>
     <use x="773.275391" xlink:href="#DejaVuSans-2e"/>
     <use x="805.0625" xlink:href="#DejaVuSans-2e"/>
     <use x="836.849609" xlink:href="#DejaVuSans-31"/>
     <use x="900.472656" xlink:href="#DejaVuSans-65"/>
     <use x="961.996094" xlink:href="#DejaVuSans-2d"/>
     <use x="998.080078" xlink:href="#DejaVuSans-30"/>
     <use x="1061.703125" xlink:href="#DejaVuSans-38"/>
    </g>
    <!-- 15 instances -->
    <g transform="translate(58.89048 58.134344)scale(0.102 -0.102)">
     <use xlink:href="#DejaVuSans-31"/>
     <use x="63.623047" xlink:href="#DejaVuSans-35"/>
     <use x="127.246094" xlink:href="#DejaVuSans-20"/>
     <use x="159.033203" xlink:href="#DejaVuSans-69"/>
     <use x="186.816406" xlink:href="#DejaVuSans-6e"/>
     <use x="250.195312" xlink:href="#DejaVuSans-73"/>
     <use x="302.294922" xlink:href="#DejaVuSans-74"/>
     <use x="341.503906" xlink:href="#DejaVuSans-61"/>
     <use x="402.783203" xlink:href="#DejaVuSans-6e"/>
     <use x="466.162109" xlink:href="#DejaVuSans-63"/>
     <use x="521.142578" xlink:href="#DejaVuSans-65"/>
     <use x="582.666016" xlink:href="#DejaVuSans-73"/>
    </g>
   </g>
   <g id="text_18">
    <!-- v2.4 -->
    <g style="fill:#808080;" transform="translate(183.733063 290.099912)scale(0.1 -0.1)">
     <use xlink:href="#DejaVuSans-76"/>
     <use x="59.179688" xlink:href="#DejaVuSans-32"/>
     <use x="122.802734" xlink:href="#DejaVuSans-2e"/>
     <use x="154.589844" xlink:href="#DejaVuSans-34"/>
    </g>
   </g>
   <g id="text_19">
    <!-- 21 Gallagher 101 peaks -->
    <defs>
     <path d="M 59.515625 10.40625 
L 59.515625 29.984375 
L 43.40625 29.984375 
L 43.40625 38.09375 
L 69.28125 38.09375 
L 69.28125 6.78125 
Q 63.578125 2.734375 56.6875 0.65625 
Q 49.8125 -1.421875 42 -1.421875 
Q 24.90625 -1.421875 15.25 8.5625 
Q 5.609375 18.5625 5.609375 36.375 
Q 5.609375 54.25 15.25 64.234375 
Q 24.90625 74.21875 42 74.21875 
Q 49.125 74.21875 55.546875 72.453125 
Q 61.96875 70.703125 67.390625 67.28125 
L 67.390625 56.78125 
Q 61.921875 61.421875 55.765625 63.765625 
Q 49.609375 66.109375 42.828125 66.109375 
Q 29.4375 66.109375 22.71875 58.640625 
Q 16.015625 51.171875 16.015625 36.375 
Q 16.015625 21.625 22.71875 14.15625 
Q 29.4375 6.6875 42.828125 6.6875 
Q 48.046875 6.6875 52.140625 7.59375 
Q 56.25 8.5 59.515625 10.40625 
z
" id="DejaVuSans-47"/>
     <path d="M 54.890625 33.015625 
L 54.890625 0 
L 45.90625 0 
L 45.90625 32.71875 
Q 45.90625 40.484375 42.875 44.328125 
Q 39.84375 48.1875 33.796875 48.1875 
Q 26.515625 48.1875 22.3125 43.546875 
Q 18.109375 38.921875 18.109375 30.90625 
L 18.109375 0 
L 9.078125 0 
L 9.078125 75.984375 
L 18.109375 75.984375 
L 18.109375 46.1875 
Q 21.34375 51.125 25.703125 53.5625 
Q 30.078125 56 35.796875 56 
Q 45.21875 56 50.046875 50.171875 
Q 54.890625 44.34375 54.890625 33.015625 
z
" id="DejaVuSans-68"/>
     <path d="M 9.078125 75.984375 
L 18.109375 75.984375 
L 18.109375 31.109375 
L 44.921875 54.6875 
L 56.390625 54.6875 
L 27.390625 29.109375 
L 57.625 0 
L 45.90625 0 
L 18.109375 26.703125 
L 18.109375 0 
L 9.078125 0 
z
" id="DejaVuSans-6b"/>
    </defs>
    <g transform="translate(75.1565 18.84)scale(0.2 -0.2)">
     <use xlink:href="#DejaVuSans-32"/>
     <use x="63.623047" xlink:href="#DejaVuSans-31"/>
     <use x="127.246094" xlink:href="#DejaVuSans-20"/>
     <use x="159.033203" xlink:href="#DejaVuSans-47"/>
     <use x="236.523438" xlink:href="#DejaVuSans-61"/>
     <use x="297.802734" xlink:href="#DejaVuSans-6c"/>
     <use x="325.585938" xlink:href="#DejaVuSans-6c"/>
     <use x="353.369141" xlink:href="#DejaVuSans-61"/>
     <use x="414.648438" xlink:href="#DejaVuSans-67"/>
     <use x="478.125" xlink:href="#DejaVuSans-68"/>
     <use x="541.503906" xlink:href="#DejaVuSans-65"/>
     <use x="603.027344" xlink:href="#DejaVuSans-72"/>
     <use x="644.140625" xlink:href="#DejaVuSans-20"/>
     <use x="675.927734" xlink:href="#DejaVuSans-31"/>
     <use x="739.550781" xlink:href="#DejaVuSans-30"/>
     <use x="803.173828" xlink:href="#DejaVuSans-31"/>
     <use x="866.796875" xlink:href="#DejaVuSans-20"/>
     <use x="898.583984" xlink:href="#DejaVuSans-70"/>
     <use x="962.060547" xlink:href="#DejaVuSans-65"/>
     <use x="1023.583984" xlink:href="#DejaVuSans-61"/>
     <use x="1084.863281" xlink:href="#DejaVuSans-6b"/>
     <use x="1142.773438" xlink:href="#DejaVuSans-73"/>
    </g>
   </g>
  </g>
 </g>
 <defs>
  <clipPath id="p3f82484ac2">
   <rect height="270.04" width="277.048" x="56.12" y="24.84"/>
  </clipPath>
 </defs>
</svg>
