<?xml version="1.0" encoding="utf-8" standalone="no"?>
<!DOCTYPE svg PUBLIC "-//W3C//DTD SVG 1.1//EN"
  "http://www.w3.org/Graphics/SVG/1.1/DTD/svg11.dtd">
<!-- Created with matplotlib (http://matplotlib.org/) -->
<svg height="345.6pt" version="1.1" viewBox="0 0 460.8 345.6" width="460.8pt" xmlns="http://www.w3.org/2000/svg" xmlns:xlink="http://www.w3.org/1999/xlink">
 <defs>
  <style type="text/css">
*{stroke-linecap:butt;stroke-linejoin:round;}
  </style>
 </defs>
 <g id="figure_1">
  <g id="patch_1">
   <path d="M 0 345.6 
L 460.8 345.6 
L 460.8 0 
L 0 0 
z
" style="fill:#ffffff;"/>
  </g>
  <g id="axes_1">
   <g id="patch_2">
    <path d="M 56.12 294.88 
L 333.168 294.88 
L 333.168 24.84 
L 56.12 24.84 
z
" style="fill:#ffffff;"/>
   </g>
   <g id="line2d_1">
    <path d="M 37.236359 294.88 
L 37.236359 221.485319 
L 112.770924 221.485319 
L 112.770924 216.242842 
L 117.874207 216.242842 
L 117.874207 205.757888 
L 119.382949 205.757888 
L 119.382949 200.515411 
L 122.779599 200.515411 
L 122.779599 195.272933 
L 159.529506 195.272933 
L 159.529506 190.030456 
L 188.829251 190.030456 
L 188.829251 184.787979 
L 190.248027 184.787979 
L 190.248027 179.545502 
L 190.259722 179.545502 
L 190.259722 174.303025 
L 190.264398 174.303025 
L 190.264398 169.060547 
L 190.283089 169.060547 
L 190.283089 163.81807 
L 190.297094 163.81807 
L 190.297094 158.575593 
L 190.308756 158.575593 
L 190.308756 148.090639 
L 190.313418 148.090639 
L 190.313418 142.848162 
L 190.325069 142.848162 
L 190.325069 132.363207 
L 190.329727 132.363207 
L 190.329727 127.12073 
L 190.352999 127.12073 
L 190.352999 121.878253 
L 190.364623 121.878253 
L 190.364623 111.393298 
L 190.371594 111.393298 
L 190.371594 106.150821 
L 190.37624 106.150821 
L 190.37624 100.908344 
L 190.387848 100.908344 
L 190.387848 95.665867 
L 190.406405 95.665867 
L 190.406405 90.42339 
L 190.429574 90.42339 
L 190.429574 85.180912 
L 190.434204 85.180912 
L 190.434204 79.938435 
L 190.441146 79.938435 
L 190.441146 74.695958 
L 190.452711 74.695958 
L 190.452711 64.211004 
L 190.468889 64.211004 
L 190.468889 53.726049 
L 190.480435 53.726049 
L 190.480435 48.483572 
L 190.521936 48.483572 
L 190.521936 43.241095 
L 190.528844 43.241095 
L 190.528844 37.998618 
L 190.538049 37.998618 
L 190.538049 32.756141 
L 190.563338 32.756141 
L 190.563338 27.513663 
L 333.168 27.513663 
" style="fill:none;stroke:#f5deb3;stroke-linecap:square;stroke-width:4;"/>
   </g>
   <g id="line2d_2">
    <defs>
     <path d="M -0 7.778175 
L 7.778175 0 
L 0 -7.778175 
L -7.778175 -0 
z
" id="m83a14cc46b" style="stroke:#f5deb3;stroke-linejoin:miter;stroke-width:1.5;"/>
    </defs>
    <g>
     <use style="fill:#f5deb3;stroke:#f5deb3;stroke-linejoin:miter;stroke-width:1.5;" x="119.382949" xlink:href="#m83a14cc46b" y="200.515411"/>
     <use style="fill:#f5deb3;stroke:#f5deb3;stroke-linejoin:miter;stroke-width:1.5;" x="190.325069" xlink:href="#m83a14cc46b" y="142.848162"/>
     <use style="fill:#f5deb3;stroke:#f5deb3;stroke-linejoin:miter;stroke-width:1.5;" x="190.563338" xlink:href="#m83a14cc46b" y="32.756141"/>
     <use style="fill:#f5deb3;stroke:#f5deb3;stroke-linejoin:miter;stroke-width:1.5;" x="190.563338" xlink:href="#m83a14cc46b" y="27.513663"/>
     <use style="fill:#f5deb3;stroke:#f5deb3;stroke-linejoin:miter;stroke-width:1.5;" x="190.563338" xlink:href="#m83a14cc46b" y="27.513663"/>
     <use style="fill:#f5deb3;stroke:#f5deb3;stroke-linejoin:miter;stroke-width:1.5;" x="333.168" xlink:href="#m83a14cc46b" y="27.513663"/>
    </g>
   </g>
   <g id="line2d_3">
    <path style="fill:none;stroke:#f5deb3;stroke-linecap:square;stroke-width:4;"/>
    <g/>
   </g>
   <g id="line2d_4">
    <path d="M 333.168 27.513663 
L 363.64328 32.86099 
" style="fill:none;stroke:#f5deb3;stroke-linecap:square;stroke-width:4;"/>
    <g>
     <use style="fill:#f5deb3;stroke:#f5deb3;stroke-linejoin:miter;stroke-width:1.5;" x="333.168" xlink:href="#m83a14cc46b" y="27.513663"/>
     <use style="fill:#f5deb3;stroke:#f5deb3;stroke-linejoin:miter;stroke-width:1.5;" x="363.64328" xlink:href="#m83a14cc46b" y="32.86099"/>
    </g>
   </g>
   <g id="matplotlib.axis_1">
    <g id="xtick_1">
     <g id="line2d_5">
      <path clip-path="url(#pf0c2f309c1)" d="M 56.12 294.88 
L 56.12 24.84 
" style="fill:none;stroke:#b0b0b0;stroke-linecap:square;stroke-width:0.8;"/>
     </g>
     <g id="line2d_6">
      <defs>
       <path d="M 0 0 
L 0 3.5 
" id="m4792acc457" style="stroke:#000000;stroke-width:0.8;"/>
      </defs>
      <g>
       <use style="stroke:#000000;stroke-width:0.8;" x="56.12" xlink:href="#m4792acc457" y="294.88"/>
      </g>
     </g>
     <g id="text_1">
      <!-- 0 -->
      <defs>
       <path d="M 31.78125 66.40625 
Q 24.171875 66.40625 20.328125 58.90625 
Q 16.5 51.421875 16.5 36.375 
Q 16.5 21.390625 20.328125 13.890625 
Q 24.171875 6.390625 31.78125 6.390625 
Q 39.453125 6.390625 43.28125 13.890625 
Q 47.125 21.390625 47.125 36.375 
Q 47.125 51.421875 43.28125 58.90625 
Q 39.453125 66.40625 31.78125 66.40625 
z
M 31.78125 74.21875 
Q 44.046875 74.21875 50.515625 64.515625 
Q 56.984375 54.828125 56.984375 36.375 
Q 56.984375 17.96875 50.515625 8.265625 
Q 44.046875 -1.421875 31.78125 -1.421875 
Q 19.53125 -1.421875 13.0625 8.265625 
Q 6.59375 17.96875 6.59375 36.375 
Q 6.59375 54.828125 13.0625 64.515625 
Q 19.53125 74.21875 31.78125 74.21875 
z
" id="DejaVuSans-30"/>
      </defs>
      <g transform="translate(49.7575 317.076875)scale(0.2 -0.2)">
       <use xlink:href="#DejaVuSans-30"/>
      </g>
     </g>
    </g>
    <g id="xtick_2">
     <g id="line2d_7">
      <path clip-path="url(#pf0c2f309c1)" d="M 135.276571 294.88 
L 135.276571 24.84 
" style="fill:none;stroke:#b0b0b0;stroke-linecap:square;stroke-width:0.8;"/>
     </g>
     <g id="line2d_8">
      <g>
       <use style="stroke:#000000;stroke-width:0.8;" x="135.276571" xlink:href="#m4792acc457" y="294.88"/>
      </g>
     </g>
     <g id="text_2">
      <!-- 2 -->
      <defs>
       <path d="M 19.1875 8.296875 
L 53.609375 8.296875 
L 53.609375 0 
L 7.328125 0 
L 7.328125 8.296875 
Q 12.9375 14.109375 22.625 23.890625 
Q 32.328125 33.6875 34.8125 36.53125 
Q 39.546875 41.84375 41.421875 45.53125 
Q 43.3125 49.21875 43.3125 52.78125 
Q 43.3125 58.59375 39.234375 62.25 
Q 35.15625 65.921875 28.609375 65.921875 
Q 23.96875 65.921875 18.8125 64.3125 
Q 13.671875 62.703125 7.8125 59.421875 
L 7.8125 69.390625 
Q 13.765625 71.78125 18.9375 73 
Q 24.125 74.21875 28.421875 74.21875 
Q 39.75 74.21875 46.484375 68.546875 
Q 53.21875 62.890625 53.21875 53.421875 
Q 53.21875 48.921875 51.53125 44.890625 
Q 49.859375 40.875 45.40625 35.40625 
Q 44.1875 33.984375 37.640625 27.21875 
Q 31.109375 20.453125 19.1875 8.296875 
z
" id="DejaVuSans-32"/>
      </defs>
      <g transform="translate(128.914071 317.076875)scale(0.2 -0.2)">
       <use xlink:href="#DejaVuSans-32"/>
      </g>
     </g>
    </g>
    <g id="xtick_3">
     <g id="line2d_9">
      <path clip-path="url(#pf0c2f309c1)" d="M 214.433143 294.88 
L 214.433143 24.84 
" style="fill:none;stroke:#b0b0b0;stroke-linecap:square;stroke-width:0.8;"/>
     </g>
     <g id="line2d_10">
      <g>
       <use style="stroke:#000000;stroke-width:0.8;" x="214.433143" xlink:href="#m4792acc457" y="294.88"/>
      </g>
     </g>
     <g id="text_3">
      <!-- 4 -->
      <defs>
       <path d="M 37.796875 64.3125 
L 12.890625 25.390625 
L 37.796875 25.390625 
z
M 35.203125 72.90625 
L 47.609375 72.90625 
L 47.609375 25.390625 
L 58.015625 25.390625 
L 58.015625 17.1875 
L 47.609375 17.1875 
L 47.609375 0 
L 37.796875 0 
L 37.796875 17.1875 
L 4.890625 17.1875 
L 4.890625 26.703125 
z
" id="DejaVuSans-34"/>
      </defs>
      <g transform="translate(208.070643 317.076875)scale(0.2 -0.2)">
       <use xlink:href="#DejaVuSans-34"/>
      </g>
     </g>
    </g>
    <g id="xtick_4">
     <g id="line2d_11">
      <path clip-path="url(#pf0c2f309c1)" d="M 293.589714 294.88 
L 293.589714 24.84 
" style="fill:none;stroke:#b0b0b0;stroke-linecap:square;stroke-width:0.8;"/>
     </g>
     <g id="line2d_12">
      <g>
       <use style="stroke:#000000;stroke-width:0.8;" x="293.589714" xlink:href="#m4792acc457" y="294.88"/>
      </g>
     </g>
     <g id="text_4">
      <!-- 6 -->
      <defs>
       <path d="M 33.015625 40.375 
Q 26.375 40.375 22.484375 35.828125 
Q 18.609375 31.296875 18.609375 23.390625 
Q 18.609375 15.53125 22.484375 10.953125 
Q 26.375 6.390625 33.015625 6.390625 
Q 39.65625 6.390625 43.53125 10.953125 
Q 47.40625 15.53125 47.40625 23.390625 
Q 47.40625 31.296875 43.53125 35.828125 
Q 39.65625 40.375 33.015625 40.375 
z
M 52.59375 71.296875 
L 52.59375 62.3125 
Q 48.875 64.0625 45.09375 64.984375 
Q 41.3125 65.921875 37.59375 65.921875 
Q 27.828125 65.921875 22.671875 59.328125 
Q 17.53125 52.734375 16.796875 39.40625 
Q 19.671875 43.65625 24.015625 45.921875 
Q 28.375 48.1875 33.59375 48.1875 
Q 44.578125 48.1875 50.953125 41.515625 
Q 57.328125 34.859375 57.328125 23.390625 
Q 57.328125 12.15625 50.6875 5.359375 
Q 44.046875 -1.421875 33.015625 -1.421875 
Q 20.359375 -1.421875 13.671875 8.265625 
Q 6.984375 17.96875 6.984375 36.375 
Q 6.984375 53.65625 15.1875 63.9375 
Q 23.390625 74.21875 37.203125 74.21875 
Q 40.921875 74.21875 44.703125 73.484375 
Q 48.484375 72.75 52.59375 71.296875 
z
" id="DejaVuSans-36"/>
      </defs>
      <g transform="translate(287.227214 317.076875)scale(0.2 -0.2)">
       <use xlink:href="#DejaVuSans-36"/>
      </g>
     </g>
    </g>
    <g id="xtick_5">
     <g id="line2d_13">
      <path clip-path="url(#pf0c2f309c1)" d="M 56.12 294.88 
L 56.12 24.84 
" style="fill:none;stroke:#b0b0b0;stroke-linecap:square;stroke-width:0.8;"/>
     </g>
     <g id="line2d_14">
      <defs>
       <path d="M 0 0 
L 0 2 
" id="m1979cca590" style="stroke:#000000;stroke-width:0.6;"/>
      </defs>
      <g>
       <use style="stroke:#000000;stroke-width:0.6;" x="56.12" xlink:href="#m1979cca590" y="294.88"/>
      </g>
     </g>
    </g>
    <g id="xtick_6">
     <g id="line2d_15">
      <path clip-path="url(#pf0c2f309c1)" d="M 95.698286 294.88 
L 95.698286 24.84 
" style="fill:none;stroke:#b0b0b0;stroke-linecap:square;stroke-width:0.8;"/>
     </g>
     <g id="line2d_16">
      <g>
       <use style="stroke:#000000;stroke-width:0.6;" x="95.698286" xlink:href="#m1979cca590" y="294.88"/>
      </g>
     </g>
    </g>
    <g id="xtick_7">
     <g id="line2d_17">
      <path clip-path="url(#pf0c2f309c1)" d="M 135.276571 294.88 
L 135.276571 24.84 
" style="fill:none;stroke:#b0b0b0;stroke-linecap:square;stroke-width:0.8;"/>
     </g>
     <g id="line2d_18">
      <g>
       <use style="stroke:#000000;stroke-width:0.6;" x="135.276571" xlink:href="#m1979cca590" y="294.88"/>
      </g>
     </g>
    </g>
    <g id="xtick_8">
     <g id="line2d_19">
      <path clip-path="url(#pf0c2f309c1)" d="M 174.854857 294.88 
L 174.854857 24.84 
" style="fill:none;stroke:#b0b0b0;stroke-linecap:square;stroke-width:0.8;"/>
     </g>
     <g id="line2d_20">
      <g>
       <use style="stroke:#000000;stroke-width:0.6;" x="174.854857" xlink:href="#m1979cca590" y="294.88"/>
      </g>
     </g>
    </g>
    <g id="xtick_9">
     <g id="line2d_21">
      <path clip-path="url(#pf0c2f309c1)" d="M 214.433143 294.88 
L 214.433143 24.84 
" style="fill:none;stroke:#b0b0b0;stroke-linecap:square;stroke-width:0.8;"/>
     </g>
     <g id="line2d_22">
      <g>
       <use style="stroke:#000000;stroke-width:0.6;" x="214.433143" xlink:href="#m1979cca590" y="294.88"/>
      </g>
     </g>
    </g>
    <g id="xtick_10">
     <g id="line2d_23">
      <path clip-path="url(#pf0c2f309c1)" d="M 254.011429 294.88 
L 254.011429 24.84 
" style="fill:none;stroke:#b0b0b0;stroke-linecap:square;stroke-width:0.8;"/>
     </g>
     <g id="line2d_24">
      <g>
       <use style="stroke:#000000;stroke-width:0.6;" x="254.011429" xlink:href="#m1979cca590" y="294.88"/>
      </g>
     </g>
    </g>
    <g id="xtick_11">
     <g id="line2d_25">
      <path clip-path="url(#pf0c2f309c1)" d="M 293.589714 294.88 
L 293.589714 24.84 
" style="fill:none;stroke:#b0b0b0;stroke-linecap:square;stroke-width:0.8;"/>
     </g>
     <g id="line2d_26">
      <g>
       <use style="stroke:#000000;stroke-width:0.6;" x="293.589714" xlink:href="#m1979cca590" y="294.88"/>
      </g>
     </g>
    </g>
    <g id="xtick_12">
     <g id="line2d_27">
      <path clip-path="url(#pf0c2f309c1)" d="M 333.168 294.88 
L 333.168 24.84 
" style="fill:none;stroke:#b0b0b0;stroke-linecap:square;stroke-width:0.8;"/>
     </g>
     <g id="line2d_28">
      <g>
       <use style="stroke:#000000;stroke-width:0.6;" x="333.168" xlink:href="#m1979cca590" y="294.88"/>
      </g>
     </g>
    </g>
    <g id="text_5">
     <!-- log10(# f-evals / dimension) -->
     <defs>
      <path d="M 9.421875 75.984375 
L 18.40625 75.984375 
L 18.40625 0 
L 9.421875 0 
z
" id="DejaVuSans-6c"/>
      <path d="M 30.609375 48.390625 
Q 23.390625 48.390625 19.1875 42.75 
Q 14.984375 37.109375 14.984375 27.296875 
Q 14.984375 17.484375 19.15625 11.84375 
Q 23.34375 6.203125 30.609375 6.203125 
Q 37.796875 6.203125 41.984375 11.859375 
Q 46.1875 17.53125 46.1875 27.296875 
Q 46.1875 37.015625 41.984375 42.703125 
Q 37.796875 48.390625 30.609375 48.390625 
z
M 30.609375 56 
Q 42.328125 56 49.015625 48.375 
Q 55.71875 40.765625 55.71875 27.296875 
Q 55.71875 13.875 49.015625 6.21875 
Q 42.328125 -1.421875 30.609375 -1.421875 
Q 18.84375 -1.421875 12.171875 6.21875 
Q 5.515625 13.875 5.515625 27.296875 
Q 5.515625 40.765625 12.171875 48.375 
Q 18.84375 56 30.609375 56 
z
" id="DejaVuSans-6f"/>
      <path d="M 45.40625 27.984375 
Q 45.40625 37.75 41.375 43.109375 
Q 37.359375 48.484375 30.078125 48.484375 
Q 22.859375 48.484375 18.828125 43.109375 
Q 14.796875 37.75 14.796875 27.984375 
Q 14.796875 18.265625 18.828125 12.890625 
Q 22.859375 7.515625 30.078125 7.515625 
Q 37.359375 7.515625 41.375 12.890625 
Q 45.40625 18.265625 45.40625 27.984375 
z
M 54.390625 6.78125 
Q 54.390625 -7.171875 48.1875 -13.984375 
Q 42 -20.796875 29.203125 -20.796875 
Q 24.46875 -20.796875 20.265625 -20.09375 
Q 16.0625 -19.390625 12.109375 -17.921875 
L 12.109375 -9.1875 
Q 16.0625 -11.328125 19.921875 -12.34375 
Q 23.78125 -13.375 27.78125 -13.375 
Q 36.625 -13.375 41.015625 -8.765625 
Q 45.40625 -4.15625 45.40625 5.171875 
L 45.40625 9.625 
Q 42.625 4.78125 38.28125 2.390625 
Q 33.9375 0 27.875 0 
Q 17.828125 0 11.671875 7.65625 
Q 5.515625 15.328125 5.515625 27.984375 
Q 5.515625 40.671875 11.671875 48.328125 
Q 17.828125 56 27.875 56 
Q 33.9375 56 38.28125 53.609375 
Q 42.625 51.21875 45.40625 46.390625 
L 45.40625 54.6875 
L 54.390625 54.6875 
z
" id="DejaVuSans-67"/>
      <path d="M 12.40625 8.296875 
L 28.515625 8.296875 
L 28.515625 63.921875 
L 10.984375 60.40625 
L 10.984375 69.390625 
L 28.421875 72.90625 
L 38.28125 72.90625 
L 38.28125 8.296875 
L 54.390625 8.296875 
L 54.390625 0 
L 12.40625 0 
z
" id="DejaVuSans-31"/>
      <path d="M 31 75.875 
Q 24.46875 64.65625 21.28125 53.65625 
Q 18.109375 42.671875 18.109375 31.390625 
Q 18.109375 20.125 21.3125 9.0625 
Q 24.515625 -2 31 -13.1875 
L 23.1875 -13.1875 
Q 15.875 -1.703125 12.234375 9.375 
Q 8.59375 20.453125 8.59375 31.390625 
Q 8.59375 42.28125 12.203125 53.3125 
Q 15.828125 64.359375 23.1875 75.875 
z
" id="DejaVuSans-28"/>
      <path d="M 51.125 44 
L 36.921875 44 
L 32.8125 27.6875 
L 47.125 27.6875 
z
M 43.796875 71.78125 
L 38.71875 51.515625 
L 52.984375 51.515625 
L 58.109375 71.78125 
L 65.921875 71.78125 
L 60.890625 51.515625 
L 76.125 51.515625 
L 76.125 44 
L 58.984375 44 
L 54.984375 27.6875 
L 70.515625 27.6875 
L 70.515625 20.21875 
L 53.078125 20.21875 
L 48 0 
L 40.1875 0 
L 45.21875 20.21875 
L 30.90625 20.21875 
L 25.875 0 
L 18.015625 0 
L 23.09375 20.21875 
L 7.71875 20.21875 
L 7.71875 27.6875 
L 24.90625 27.6875 
L 29 44 
L 13.28125 44 
L 13.28125 51.515625 
L 30.90625 51.515625 
L 35.890625 71.78125 
z
" id="DejaVuSans-23"/>
      <path id="DejaVuSans-20"/>
      <path d="M 37.109375 75.984375 
L 37.109375 68.5 
L 28.515625 68.5 
Q 23.6875 68.5 21.796875 66.546875 
Q 19.921875 64.59375 19.921875 59.515625 
L 19.921875 54.6875 
L 34.71875 54.6875 
L 34.71875 47.703125 
L 19.921875 47.703125 
L 19.921875 0 
L 10.890625 0 
L 10.890625 47.703125 
L 2.296875 47.703125 
L 2.296875 54.6875 
L 10.890625 54.6875 
L 10.890625 58.5 
Q 10.890625 67.625 15.140625 71.796875 
Q 19.390625 75.984375 28.609375 75.984375 
z
" id="DejaVuSans-66"/>
      <path d="M 4.890625 31.390625 
L 31.203125 31.390625 
L 31.203125 23.390625 
L 4.890625 23.390625 
z
" id="DejaVuSans-2d"/>
      <path d="M 56.203125 29.59375 
L 56.203125 25.203125 
L 14.890625 25.203125 
Q 15.484375 15.921875 20.484375 11.0625 
Q 25.484375 6.203125 34.421875 6.203125 
Q 39.59375 6.203125 44.453125 7.46875 
Q 49.3125 8.734375 54.109375 11.28125 
L 54.109375 2.78125 
Q 49.265625 0.734375 44.1875 -0.34375 
Q 39.109375 -1.421875 33.890625 -1.421875 
Q 20.796875 -1.421875 13.15625 6.1875 
Q 5.515625 13.8125 5.515625 26.8125 
Q 5.515625 40.234375 12.765625 48.109375 
Q 20.015625 56 32.328125 56 
Q 43.359375 56 49.78125 48.890625 
Q 56.203125 41.796875 56.203125 29.59375 
z
M 47.21875 32.234375 
Q 47.125 39.59375 43.09375 43.984375 
Q 39.0625 48.390625 32.421875 48.390625 
Q 24.90625 48.390625 20.390625 44.140625 
Q 15.875 39.890625 15.1875 32.171875 
z
" id="DejaVuSans-65"/>
      <path d="M 2.984375 54.6875 
L 12.5 54.6875 
L 29.59375 8.796875 
L 46.6875 54.6875 
L 56.203125 54.6875 
L 35.6875 0 
L 23.484375 0 
z
" id="DejaVuSans-76"/>
      <path d="M 34.28125 27.484375 
Q 23.390625 27.484375 19.1875 25 
Q 14.984375 22.515625 14.984375 16.5 
Q 14.984375 11.71875 18.140625 8.90625 
Q 21.296875 6.109375 26.703125 6.109375 
Q 34.1875 6.109375 38.703125 11.40625 
Q 43.21875 16.703125 43.21875 25.484375 
L 43.21875 27.484375 
z
M 52.203125 31.203125 
L 52.203125 0 
L 43.21875 0 
L 43.21875 8.296875 
Q 40.140625 3.328125 35.546875 0.953125 
Q 30.953125 -1.421875 24.3125 -1.421875 
Q 15.921875 -1.421875 10.953125 3.296875 
Q 6 8.015625 6 15.921875 
Q 6 25.140625 12.171875 29.828125 
Q 18.359375 34.515625 30.609375 34.515625 
L 43.21875 34.515625 
L 43.21875 35.40625 
Q 43.21875 41.609375 39.140625 45 
Q 35.0625 48.390625 27.6875 48.390625 
Q 23 48.390625 18.546875 47.265625 
Q 14.109375 46.140625 10.015625 43.890625 
L 10.015625 52.203125 
Q 14.9375 54.109375 19.578125 55.046875 
Q 24.21875 56 28.609375 56 
Q 40.484375 56 46.34375 49.84375 
Q 52.203125 43.703125 52.203125 31.203125 
z
" id="DejaVuSans-61"/>
      <path d="M 44.28125 53.078125 
L 44.28125 44.578125 
Q 40.484375 46.53125 36.375 47.5 
Q 32.28125 48.484375 27.875 48.484375 
Q 21.1875 48.484375 17.84375 46.4375 
Q 14.5 44.390625 14.5 40.28125 
Q 14.5 37.15625 16.890625 35.375 
Q 19.28125 33.59375 26.515625 31.984375 
L 29.59375 31.296875 
Q 39.15625 29.25 43.1875 25.515625 
Q 47.21875 21.78125 47.21875 15.09375 
Q 47.21875 7.46875 41.1875 3.015625 
Q 35.15625 -1.421875 24.609375 -1.421875 
Q 20.21875 -1.421875 15.453125 -0.5625 
Q 10.6875 0.296875 5.421875 2 
L 5.421875 11.28125 
Q 10.40625 8.6875 15.234375 7.390625 
Q 20.0625 6.109375 24.8125 6.109375 
Q 31.15625 6.109375 34.5625 8.28125 
Q 37.984375 10.453125 37.984375 14.40625 
Q 37.984375 18.0625 35.515625 20.015625 
Q 33.0625 21.96875 24.703125 23.78125 
L 21.578125 24.515625 
Q 13.234375 26.265625 9.515625 29.90625 
Q 5.8125 33.546875 5.8125 39.890625 
Q 5.8125 47.609375 11.28125 51.796875 
Q 16.75 56 26.8125 56 
Q 31.78125 56 36.171875 55.265625 
Q 40.578125 54.546875 44.28125 53.078125 
z
" id="DejaVuSans-73"/>
      <path d="M 25.390625 72.90625 
L 33.6875 72.90625 
L 8.296875 -9.28125 
L 0 -9.28125 
z
" id="DejaVuSans-2f"/>
      <path d="M 45.40625 46.390625 
L 45.40625 75.984375 
L 54.390625 75.984375 
L 54.390625 0 
L 45.40625 0 
L 45.40625 8.203125 
Q 42.578125 3.328125 38.25 0.953125 
Q 33.9375 -1.421875 27.875 -1.421875 
Q 17.96875 -1.421875 11.734375 6.484375 
Q 5.515625 14.40625 5.515625 27.296875 
Q 5.515625 40.1875 11.734375 48.09375 
Q 17.96875 56 27.875 56 
Q 33.9375 56 38.25 53.625 
Q 42.578125 51.265625 45.40625 46.390625 
z
M 14.796875 27.296875 
Q 14.796875 17.390625 18.875 11.75 
Q 22.953125 6.109375 30.078125 6.109375 
Q 37.203125 6.109375 41.296875 11.75 
Q 45.40625 17.390625 45.40625 27.296875 
Q 45.40625 37.203125 41.296875 42.84375 
Q 37.203125 48.484375 30.078125 48.484375 
Q 22.953125 48.484375 18.875 42.84375 
Q 14.796875 37.203125 14.796875 27.296875 
z
" id="DejaVuSans-64"/>
      <path d="M 9.421875 54.6875 
L 18.40625 54.6875 
L 18.40625 0 
L 9.421875 0 
z
M 9.421875 75.984375 
L 18.40625 75.984375 
L 18.40625 64.59375 
L 9.421875 64.59375 
z
" id="DejaVuSans-69"/>
      <path d="M 52 44.1875 
Q 55.375 50.25 60.0625 53.125 
Q 64.75 56 71.09375 56 
Q 79.640625 56 84.28125 50.015625 
Q 88.921875 44.046875 88.921875 33.015625 
L 88.921875 0 
L 79.890625 0 
L 79.890625 32.71875 
Q 79.890625 40.578125 77.09375 44.375 
Q 74.3125 48.1875 68.609375 48.1875 
Q 61.625 48.1875 57.5625 43.546875 
Q 53.515625 38.921875 53.515625 30.90625 
L 53.515625 0 
L 44.484375 0 
L 44.484375 32.71875 
Q 44.484375 40.625 41.703125 44.40625 
Q 38.921875 48.1875 33.109375 48.1875 
Q 26.21875 48.1875 22.15625 43.53125 
Q 18.109375 38.875 18.109375 30.90625 
L 18.109375 0 
L 9.078125 0 
L 9.078125 54.6875 
L 18.109375 54.6875 
L 18.109375 46.1875 
Q 21.1875 51.21875 25.484375 53.609375 
Q 29.78125 56 35.6875 56 
Q 41.65625 56 45.828125 52.96875 
Q 50 49.953125 52 44.1875 
z
" id="DejaVuSans-6d"/>
      <path d="M 54.890625 33.015625 
L 54.890625 0 
L 45.90625 0 
L 45.90625 32.71875 
Q 45.90625 40.484375 42.875 44.328125 
Q 39.84375 48.1875 33.796875 48.1875 
Q 26.515625 48.1875 22.3125 43.546875 
Q 18.109375 38.921875 18.109375 30.90625 
L 18.109375 0 
L 9.078125 0 
L 9.078125 54.6875 
L 18.109375 54.6875 
L 18.109375 46.1875 
Q 21.34375 51.125 25.703125 53.5625 
Q 30.078125 56 35.796875 56 
Q 45.21875 56 50.046875 50.171875 
Q 54.890625 44.34375 54.890625 33.015625 
z
" id="DejaVuSans-6e"/>
      <path d="M 8.015625 75.875 
L 15.828125 75.875 
Q 23.140625 64.359375 26.78125 53.3125 
Q 30.421875 42.28125 30.421875 31.390625 
Q 30.421875 20.453125 26.78125 9.375 
Q 23.140625 -1.703125 15.828125 -13.1875 
L 8.015625 -13.1875 
Q 14.5 -2 17.703125 9.0625 
Q 20.90625 20.125 20.90625 31.390625 
Q 20.90625 42.671875 17.703125 53.65625 
Q 14.5 64.65625 8.015625 75.875 
z
" id="DejaVuSans-29"/>
     </defs>
     <g transform="translate(73.803219 338.153594)scale(0.17 -0.17)">
      <use xlink:href="#DejaVuSans-6c"/>
      <use x="27.783203" xlink:href="#DejaVuSans-6f"/>
      <use x="88.964844" xlink:href="#DejaVuSans-67"/>
      <use x="152.441406" xlink:href="#DejaVuSans-31"/>
      <use x="216.064453" xlink:href="#DejaVuSans-30"/>
      <use x="279.6875" xlink:href="#DejaVuSans-28"/>
      <use x="318.701172" xlink:href="#DejaVuSans-23"/>
      <use x="402.490234" xlink:href="#DejaVuSans-20"/>
      <use x="434.277344" xlink:href="#DejaVuSans-66"/>
      <use x="469.404297" xlink:href="#DejaVuSans-2d"/>
      <use x="505.488281" xlink:href="#DejaVuSans-65"/>
      <use x="567.011719" xlink:href="#DejaVuSans-76"/>
      <use x="626.191406" xlink:href="#DejaVuSans-61"/>
      <use x="687.470703" xlink:href="#DejaVuSans-6c"/>
      <use x="715.253906" xlink:href="#DejaVuSans-73"/>
      <use x="767.353516" xlink:href="#DejaVuSans-20"/>
      <use x="799.140625" xlink:href="#DejaVuSans-2f"/>
      <use x="832.832031" xlink:href="#DejaVuSans-20"/>
      <use x="864.619141" xlink:href="#DejaVuSans-64"/>
      <use x="928.095703" xlink:href="#DejaVuSans-69"/>
      <use x="955.878906" xlink:href="#DejaVuSans-6d"/>
      <use x="1053.291016" xlink:href="#DejaVuSans-65"/>
      <use x="1114.814453" xlink:href="#DejaVuSans-6e"/>
      <use x="1178.193359" xlink:href="#DejaVuSans-73"/>
      <use x="1230.292969" xlink:href="#DejaVuSans-69"/>
      <use x="1258.076172" xlink:href="#DejaVuSans-6f"/>
      <use x="1319.257812" xlink:href="#DejaVuSans-6e"/>
      <use x="1382.636719" xlink:href="#DejaVuSans-29"/>
     </g>
    </g>
   </g>
   <g id="matplotlib.axis_2">
    <g id="ytick_1">
     <g id="line2d_29">
      <path clip-path="url(#pf0c2f309c1)" d="M 56.12 294.88 
L 333.168 294.88 
" style="fill:none;stroke:#b0b0b0;stroke-linecap:square;stroke-width:0.8;"/>
     </g>
     <g id="line2d_30">
      <defs>
       <path d="M 0 0 
L -3.5 0 
" id="m48be62f760" style="stroke:#000000;stroke-width:0.8;"/>
      </defs>
      <g>
       <use style="stroke:#000000;stroke-width:0.8;" x="56.12" xlink:href="#m48be62f760" y="294.88"/>
      </g>
     </g>
     <g id="text_6">
      <!-- 0.0 -->
      <defs>
       <path d="M 10.6875 12.40625 
L 21 12.40625 
L 21 0 
L 10.6875 0 
z
" id="DejaVuSans-2e"/>
      </defs>
      <g transform="translate(23.675 300.95875)scale(0.16 -0.16)">
       <use xlink:href="#DejaVuSans-30"/>
       <use x="63.623047" xlink:href="#DejaVuSans-2e"/>
       <use x="95.410156" xlink:href="#DejaVuSans-30"/>
      </g>
     </g>
    </g>
    <g id="ytick_2">
     <g id="line2d_31">
      <path clip-path="url(#pf0c2f309c1)" d="M 56.12 241.406733 
L 333.168 241.406733 
" style="fill:none;stroke:#b0b0b0;stroke-linecap:square;stroke-width:0.8;"/>
     </g>
     <g id="line2d_32">
      <g>
       <use style="stroke:#000000;stroke-width:0.8;" x="56.12" xlink:href="#m48be62f760" y="241.406733"/>
      </g>
     </g>
     <g id="text_7">
      <!-- 0.2 -->
      <g transform="translate(23.675 247.485483)scale(0.16 -0.16)">
       <use xlink:href="#DejaVuSans-30"/>
       <use x="63.623047" xlink:href="#DejaVuSans-2e"/>
       <use x="95.410156" xlink:href="#DejaVuSans-32"/>
      </g>
     </g>
    </g>
    <g id="ytick_3">
     <g id="line2d_33">
      <path clip-path="url(#pf0c2f309c1)" d="M 56.12 187.933465 
L 333.168 187.933465 
" style="fill:none;stroke:#b0b0b0;stroke-linecap:square;stroke-width:0.8;"/>
     </g>
     <g id="line2d_34">
      <g>
       <use style="stroke:#000000;stroke-width:0.8;" x="56.12" xlink:href="#m48be62f760" y="187.933465"/>
      </g>
     </g>
     <g id="text_8">
      <!-- 0.4 -->
      <g transform="translate(23.675 194.012215)scale(0.16 -0.16)">
       <use xlink:href="#DejaVuSans-30"/>
       <use x="63.623047" xlink:href="#DejaVuSans-2e"/>
       <use x="95.410156" xlink:href="#DejaVuSans-34"/>
      </g>
     </g>
    </g>
    <g id="ytick_4">
     <g id="line2d_35">
      <path clip-path="url(#pf0c2f309c1)" d="M 56.12 134.460198 
L 333.168 134.460198 
" style="fill:none;stroke:#b0b0b0;stroke-linecap:square;stroke-width:0.8;"/>
     </g>
     <g id="line2d_36">
      <g>
       <use style="stroke:#000000;stroke-width:0.8;" x="56.12" xlink:href="#m48be62f760" y="134.460198"/>
      </g>
     </g>
     <g id="text_9">
      <!-- 0.6 -->
      <g transform="translate(23.675 140.538948)scale(0.16 -0.16)">
       <use xlink:href="#DejaVuSans-30"/>
       <use x="63.623047" xlink:href="#DejaVuSans-2e"/>
       <use x="95.410156" xlink:href="#DejaVuSans-36"/>
      </g>
     </g>
    </g>
    <g id="ytick_5">
     <g id="line2d_37">
      <path clip-path="url(#pf0c2f309c1)" d="M 56.12 80.986931 
L 333.168 80.986931 
" style="fill:none;stroke:#b0b0b0;stroke-linecap:square;stroke-width:0.8;"/>
     </g>
     <g id="line2d_38">
      <g>
       <use style="stroke:#000000;stroke-width:0.8;" x="56.12" xlink:href="#m48be62f760" y="80.986931"/>
      </g>
     </g>
     <g id="text_10">
      <!-- 0.8 -->
      <defs>
       <path d="M 31.78125 34.625 
Q 24.75 34.625 20.71875 30.859375 
Q 16.703125 27.09375 16.703125 20.515625 
Q 16.703125 13.921875 20.71875 10.15625 
Q 24.75 6.390625 31.78125 6.390625 
Q 38.8125 6.390625 42.859375 10.171875 
Q 46.921875 13.96875 46.921875 20.515625 
Q 46.921875 27.09375 42.890625 30.859375 
Q 38.875 34.625 31.78125 34.625 
z
M 21.921875 38.8125 
Q 15.578125 40.375 12.03125 44.71875 
Q 8.5 49.078125 8.5 55.328125 
Q 8.5 64.0625 14.71875 69.140625 
Q 20.953125 74.21875 31.78125 74.21875 
Q 42.671875 74.21875 48.875 69.140625 
Q 55.078125 64.0625 55.078125 55.328125 
Q 55.078125 49.078125 51.53125 44.71875 
Q 48 40.375 41.703125 38.8125 
Q 48.828125 37.15625 52.796875 32.3125 
Q 56.78125 27.484375 56.78125 20.515625 
Q 56.78125 9.90625 50.3125 4.234375 
Q 43.84375 -1.421875 31.78125 -1.421875 
Q 19.734375 -1.421875 13.25 4.234375 
Q 6.78125 9.90625 6.78125 20.515625 
Q 6.78125 27.484375 10.78125 32.3125 
Q 14.796875 37.15625 21.921875 38.8125 
z
M 18.3125 54.390625 
Q 18.3125 48.734375 21.84375 45.5625 
Q 25.390625 42.390625 31.78125 42.390625 
Q 38.140625 42.390625 41.71875 45.5625 
Q 45.3125 48.734375 45.3125 54.390625 
Q 45.3125 60.0625 41.71875 63.234375 
Q 38.140625 66.40625 31.78125 66.40625 
Q 25.390625 66.40625 21.84375 63.234375 
Q 18.3125 60.0625 18.3125 54.390625 
z
" id="DejaVuSans-38"/>
      </defs>
      <g transform="translate(23.675 87.065681)scale(0.16 -0.16)">
       <use xlink:href="#DejaVuSans-30"/>
       <use x="63.623047" xlink:href="#DejaVuSans-2e"/>
       <use x="95.410156" xlink:href="#DejaVuSans-38"/>
      </g>
     </g>
    </g>
    <g id="ytick_6">
     <g id="line2d_39">
      <path clip-path="url(#pf0c2f309c1)" d="M 56.12 27.513663 
L 333.168 27.513663 
" style="fill:none;stroke:#b0b0b0;stroke-linecap:square;stroke-width:0.8;"/>
     </g>
     <g id="line2d_40">
      <g>
       <use style="stroke:#000000;stroke-width:0.8;" x="56.12" xlink:href="#m48be62f760" y="27.513663"/>
      </g>
     </g>
     <g id="text_11">
      <!-- 1.0 -->
      <g transform="translate(23.675 33.592413)scale(0.16 -0.16)">
       <use xlink:href="#DejaVuSans-31"/>
       <use x="63.623047" xlink:href="#DejaVuSans-2e"/>
       <use x="95.410156" xlink:href="#DejaVuSans-30"/>
      </g>
     </g>
    </g>
    <g id="text_12">
     <!-- Fraction of function,target pairs -->
     <defs>
      <path d="M 9.8125 72.90625 
L 51.703125 72.90625 
L 51.703125 64.59375 
L 19.671875 64.59375 
L 19.671875 43.109375 
L 48.578125 43.109375 
L 48.578125 34.8125 
L 19.671875 34.8125 
L 19.671875 0 
L 9.8125 0 
z
" id="DejaVuSans-46"/>
      <path d="M 41.109375 46.296875 
Q 39.59375 47.171875 37.8125 47.578125 
Q 36.03125 48 33.890625 48 
Q 26.265625 48 22.1875 43.046875 
Q 18.109375 38.09375 18.109375 28.8125 
L 18.109375 0 
L 9.078125 0 
L 9.078125 54.6875 
L 18.109375 54.6875 
L 18.109375 46.1875 
Q 20.953125 51.171875 25.484375 53.578125 
Q 30.03125 56 36.53125 56 
Q 37.453125 56 38.578125 55.875 
Q 39.703125 55.765625 41.0625 55.515625 
z
" id="DejaVuSans-72"/>
      <path d="M 48.78125 52.59375 
L 48.78125 44.1875 
Q 44.96875 46.296875 41.140625 47.34375 
Q 37.3125 48.390625 33.40625 48.390625 
Q 24.65625 48.390625 19.8125 42.84375 
Q 14.984375 37.3125 14.984375 27.296875 
Q 14.984375 17.28125 19.8125 11.734375 
Q 24.65625 6.203125 33.40625 6.203125 
Q 37.3125 6.203125 41.140625 7.25 
Q 44.96875 8.296875 48.78125 10.40625 
L 48.78125 2.09375 
Q 45.015625 0.34375 40.984375 -0.53125 
Q 36.96875 -1.421875 32.421875 -1.421875 
Q 20.0625 -1.421875 12.78125 6.34375 
Q 5.515625 14.109375 5.515625 27.296875 
Q 5.515625 40.671875 12.859375 48.328125 
Q 20.21875 56 33.015625 56 
Q 37.15625 56 41.109375 55.140625 
Q 45.0625 54.296875 48.78125 52.59375 
z
" id="DejaVuSans-63"/>
      <path d="M 18.3125 70.21875 
L 18.3125 54.6875 
L 36.8125 54.6875 
L 36.8125 47.703125 
L 18.3125 47.703125 
L 18.3125 18.015625 
Q 18.3125 11.328125 20.140625 9.421875 
Q 21.96875 7.515625 27.59375 7.515625 
L 36.8125 7.515625 
L 36.8125 0 
L 27.59375 0 
Q 17.1875 0 13.234375 3.875 
Q 9.28125 7.765625 9.28125 18.015625 
L 9.28125 47.703125 
L 2.6875 47.703125 
L 2.6875 54.6875 
L 9.28125 54.6875 
L 9.28125 70.21875 
z
" id="DejaVuSans-74"/>
      <path d="M 8.5 21.578125 
L 8.5 54.6875 
L 17.484375 54.6875 
L 17.484375 21.921875 
Q 17.484375 14.15625 20.5 10.265625 
Q 23.53125 6.390625 29.59375 6.390625 
Q 36.859375 6.390625 41.078125 11.03125 
Q 45.3125 15.671875 45.3125 23.6875 
L 45.3125 54.6875 
L 54.296875 54.6875 
L 54.296875 0 
L 45.3125 0 
L 45.3125 8.40625 
Q 42.046875 3.421875 37.71875 1 
Q 33.40625 -1.421875 27.6875 -1.421875 
Q 18.265625 -1.421875 13.375 4.4375 
Q 8.5 10.296875 8.5 21.578125 
z
M 31.109375 56 
z
" id="DejaVuSans-75"/>
      <path d="M 11.71875 12.40625 
L 22.015625 12.40625 
L 22.015625 4 
L 14.015625 -11.625 
L 7.71875 -11.625 
L 11.71875 4 
z
" id="DejaVuSans-2c"/>
      <path d="M 18.109375 8.203125 
L 18.109375 -20.796875 
L 9.078125 -20.796875 
L 9.078125 54.6875 
L 18.109375 54.6875 
L 18.109375 46.390625 
Q 20.953125 51.265625 25.265625 53.625 
Q 29.59375 56 35.59375 56 
Q 45.5625 56 51.78125 48.09375 
Q 58.015625 40.1875 58.015625 27.296875 
Q 58.015625 14.40625 51.78125 6.484375 
Q 45.5625 -1.421875 35.59375 -1.421875 
Q 29.59375 -1.421875 25.265625 0.953125 
Q 20.953125 3.328125 18.109375 8.203125 
z
M 48.6875 27.296875 
Q 48.6875 37.203125 44.609375 42.84375 
Q 40.53125 48.484375 33.40625 48.484375 
Q 26.265625 48.484375 22.1875 42.84375 
Q 18.109375 37.203125 18.109375 27.296875 
Q 18.109375 17.390625 22.1875 11.75 
Q 26.265625 6.109375 33.40625 6.109375 
Q 40.53125 6.109375 44.609375 11.75 
Q 48.6875 17.390625 48.6875 27.296875 
z
" id="DejaVuSans-70"/>
     </defs>
     <g transform="translate(16.139531 294.999375)rotate(-90)scale(0.17 -0.17)">
      <use xlink:href="#DejaVuSans-46"/>
      <use x="57.410156" xlink:href="#DejaVuSans-72"/>
      <use x="98.523438" xlink:href="#DejaVuSans-61"/>
      <use x="159.802734" xlink:href="#DejaVuSans-63"/>
      <use x="214.783203" xlink:href="#DejaVuSans-74"/>
      <use x="253.992188" xlink:href="#DejaVuSans-69"/>
      <use x="281.775391" xlink:href="#DejaVuSans-6f"/>
      <use x="342.957031" xlink:href="#DejaVuSans-6e"/>
      <use x="406.335938" xlink:href="#DejaVuSans-20"/>
      <use x="438.123047" xlink:href="#DejaVuSans-6f"/>
      <use x="499.304688" xlink:href="#DejaVuSans-66"/>
      <use x="534.509766" xlink:href="#DejaVuSans-20"/>
      <use x="566.296875" xlink:href="#DejaVuSans-66"/>
      <use x="601.501953" xlink:href="#DejaVuSans-75"/>
      <use x="664.880859" xlink:href="#DejaVuSans-6e"/>
      <use x="728.259766" xlink:href="#DejaVuSans-63"/>
      <use x="783.240234" xlink:href="#DejaVuSans-74"/>
      <use x="822.449219" xlink:href="#DejaVuSans-69"/>
      <use x="850.232422" xlink:href="#DejaVuSans-6f"/>
      <use x="911.414062" xlink:href="#DejaVuSans-6e"/>
      <use x="974.792969" xlink:href="#DejaVuSans-2c"/>
      <use x="1006.580078" xlink:href="#DejaVuSans-74"/>
      <use x="1045.789062" xlink:href="#DejaVuSans-61"/>
      <use x="1107.068359" xlink:href="#DejaVuSans-72"/>
      <use x="1148.166016" xlink:href="#DejaVuSans-67"/>
      <use x="1211.642578" xlink:href="#DejaVuSans-65"/>
      <use x="1273.166016" xlink:href="#DejaVuSans-74"/>
      <use x="1312.375" xlink:href="#DejaVuSans-20"/>
      <use x="1344.162109" xlink:href="#DejaVuSans-70"/>
      <use x="1407.638672" xlink:href="#DejaVuSans-61"/>
      <use x="1468.917969" xlink:href="#DejaVuSans-69"/>
      <use x="1496.701172" xlink:href="#DejaVuSans-72"/>
      <use x="1537.814453" xlink:href="#DejaVuSans-73"/>
     </g>
    </g>
   </g>
   <g id="line2d_41">
    <defs>
     <path d="M 0 1.5 
C 0.397805 1.5 0.77937 1.341951 1.06066 1.06066 
C 1.341951 0.77937 1.5 0.397805 1.5 0 
C 1.5 -0.397805 1.341951 -0.77937 1.06066 -1.06066 
C 0.77937 -1.341951 0.397805 -1.5 0 -1.5 
C -0.397805 -1.5 -0.77937 -1.341951 -1.06066 -1.06066 
C -1.341951 -0.77937 -1.5 -0.397805 -1.5 0 
C -1.5 0.397805 -1.341951 0.77937 -1.06066 1.06066 
C -0.77937 1.341951 -0.397805 1.5 0 1.5 
z
" id="m81437c1c9e" style="stroke:#f5deb3;"/>
    </defs>
    <g>
     <use style="fill:#f5deb3;stroke:#f5deb3;" x="190.563338" xlink:href="#m81437c1c9e" y="27.513663"/>
     <use style="fill:#f5deb3;stroke:#f5deb3;" x="190.563338" xlink:href="#m81437c1c9e" y="27.513663"/>
    </g>
   </g>
   <g id="line2d_42">
    <defs>
     <path d="M 0 1.5 
C 0.397805 1.5 0.77937 1.341951 1.06066 1.06066 
C 1.341951 0.77937 1.5 0.397805 1.5 0 
C 1.5 -0.397805 1.341951 -0.77937 1.06066 -1.06066 
C 0.77937 -1.341951 0.397805 -1.5 0 -1.5 
C -0.397805 -1.5 -0.77937 -1.341951 -1.06066 -1.06066 
C -1.341951 -0.77937 -1.5 -0.397805 -1.5 0 
C -1.5 0.397805 -1.341951 0.77937 -1.06066 1.06066 
C -0.77937 1.341951 -0.397805 1.5 0 1.5 
z
" id="m856e2dfdd6" style="stroke:#000080;"/>
    </defs>
    <g>
     <use style="fill:#000080;stroke:#000080;" x="240.548862" xlink:href="#m856e2dfdd6" y="27.513663"/>
     <use style="fill:#000080;stroke:#000080;" x="240.548862" xlink:href="#m856e2dfdd6" y="27.513663"/>
    </g>
   </g>
   <g id="line2d_43">
    <path d="M 37.236359 294.88 
L 37.236359 281.249559 
L 49.15061 281.249559 
L 49.15061 267.619119 
L 56.12 267.619119 
L 56.12 263.425137 
L 61.064861 263.425137 
L 61.064861 262.376641 
L 68.034251 262.376641 
L 68.034251 261.328146 
L 70.68389 261.328146 
L 70.68389 258.706907 
L 75.003641 258.706907 
L 75.003641 258.18266 
L 76.814644 258.18266 
L 76.814644 257.658412 
L 78.452896 257.658412 
L 78.452896 256.609917 
L 79.948502 256.609917 
L 79.948502 255.561421 
L 83.784035 255.561421 
L 83.784035 253.46443 
L 85.935418 253.46443 
L 85.935418 252.940182 
L 87.847234 252.940182 
L 87.847234 251.891687 
L 90.367147 251.891687 
L 90.367147 250.843192 
L 92.564428 250.843192 
L 92.564428 250.318944 
L 97.336537 250.318944 
L 97.336537 249.794696 
L 102.667676 249.794696 
L 102.667676 247.173458 
L 103.045463 247.173458 
L 103.045463 246.124962 
L 103.777005 246.124962 
L 103.777005 244.027971 
L 108.451173 244.027971 
L 108.451173 243.503724 
L 109.509269 243.503724 
L 109.509269 242.979476 
L 110.014853 242.979476 
L 110.014853 242.455228 
L 113.19018 242.455228 
L 113.19018 241.93098 
L 119.669433 241.93098 
L 119.669433 241.406733 
L 120.636117 241.406733 
L 120.636117 239.309742 
L 121.929105 239.309742 
L 121.929105 236.688503 
L 123.015063 236.688503 
L 123.015063 235.640008 
L 123.925932 235.640008 
L 123.925932 234.067265 
L 126.207287 234.067265 
L 126.304124 231.970274 
L 127.42552 231.970274 
L 127.42552 231.446026 
L 127.694799 231.446026 
L 127.694799 230.921778 
L 127.959924 230.921778 
L 127.959924 230.397531 
L 128.731613 230.397531 
L 128.731613 229.349035 
L 132.073821 229.349035 
L 132.073821 228.824787 
L 132.211331 228.824787 
L 132.211331 228.30054 
L 137.87703 228.30054 
L 137.87703 227.776292 
L 140.812746 227.776292 
L 140.812746 226.727797 
L 142.511282 226.727797 
L 142.511282 226.203549 
L 143.462385 226.203549 
L 143.462385 224.106558 
L 145.695216 224.106558 
L 145.695216 223.58231 
L 146.843566 223.58231 
L 146.843566 223.058063 
L 148.881082 223.058063 
L 148.881082 222.009567 
L 152.092658 222.009567 
L 152.092658 220.436824 
L 152.539141 220.436824 
L 152.539141 219.912576 
L 153.055976 219.912576 
L 153.055976 219.388328 
L 156.479291 219.388328 
L 156.479291 218.339833 
L 156.661886 218.339833 
L 156.661886 217.291338 
L 158.551963 217.291338 
L 158.551963 216.76709 
L 159.682542 216.76709 
L 159.724044 215.718594 
L 159.984587 215.718594 
L 159.984587 215.194347 
L 160.133641 215.194347 
L 160.133641 213.097356 
L 161.643858 213.097356 
L 161.643858 212.573108 
L 162.215042 212.573108 
L 162.215042 212.04886 
L 162.929143 212.04886 
L 162.929143 210.476117 
L 163.077568 210.476117 
L 163.077568 209.95187 
L 166.867567 209.95187 
L 166.867567 209.427622 
L 168.234271 209.427622 
L 168.234271 208.379126 
L 168.518249 208.379126 
L 168.518249 205.757888 
L 169.168487 205.757888 
L 169.168487 205.23364 
L 170.569449 205.23364 
L 170.569449 204.709392 
L 170.853806 204.709392 
L 170.853806 203.660897 
L 171.576005 203.660897 
L 171.576005 203.136649 
L 172.605411 203.136649 
L 172.605411 202.088154 
L 173.120079 202.088154 
L 173.120079 201.039658 
L 174.278062 201.039658 
L 174.278062 200.515411 
L 174.618326 200.515411 
L 174.618326 199.991163 
L 175.273699 199.991163 
L 175.273699 198.942667 
L 175.845606 198.942667 
L 175.845606 198.41842 
L 176.545117 198.41842 
L 176.545117 197.894172 
L 177.504496 197.894172 
L 177.504496 197.369924 
L 178.61229 197.369924 
L 178.61229 196.845677 
L 178.813704 196.845677 
L 178.813704 195.797181 
L 179.008286 195.797181 
L 179.008286 195.272933 
L 179.49188 195.272933 
L 179.49188 193.70019 
L 180.000507 193.70019 
L 180.000507 192.127447 
L 180.291097 192.127447 
L 180.291097 190.554704 
L 180.580963 190.554704 
L 180.589174 188.457713 
L 181.010803 188.457713 
L 181.010803 187.409218 
L 181.367508 187.409218 
L 181.367508 186.360722 
L 181.835703 186.360722 
L 181.835703 185.836474 
L 182.216975 185.836474 
L 182.284045 183.215236 
L 182.516752 183.215236 
L 182.516752 182.690988 
L 182.818602 182.690988 
L 182.818602 181.118245 
L 183.57326 181.118245 
L 183.669593 180.06975 
L 183.97563 180.06975 
L 183.97563 179.545502 
L 184.176669 179.545502 
L 184.176669 179.021254 
L 185.620009 179.021254 
L 185.671998 177.972759 
L 185.968674 177.972759 
L 186.073401 175.875768 
L 186.251462 175.875768 
L 186.260317 174.303025 
L 186.749043 174.303025 
L 186.786288 173.254529 
L 187.126332 173.254529 
L 187.126332 172.730281 
L 187.341036 172.730281 
L 187.341036 172.206034 
L 188.073385 172.206034 
L 188.073385 171.157538 
L 188.461964 171.157538 
L 188.461964 169.584795 
L 188.699159 169.584795 
L 188.699159 168.5363 
L 188.983569 168.5363 
L 188.983569 167.487804 
L 189.208751 167.487804 
L 189.208751 166.963557 
L 189.35232 166.963557 
L 189.426112 165.915061 
L 189.572753 165.915061 
L 189.572753 164.342318 
L 189.881467 164.342318 
L 189.881467 161.721079 
L 190.283089 161.721079 
L 190.387848 158.575593 
L 190.478126 158.575593 
L 190.579412 152.808868 
L 190.875226 152.808868 
L 190.875226 151.760373 
L 191.00558 151.760373 
L 191.061463 148.614886 
L 191.216977 148.614886 
L 191.216977 148.090639 
L 191.46509 148.090639 
L 191.46509 145.993648 
L 191.698923 145.993648 
L 191.698923 145.4694 
L 192.495214 145.4694 
L 192.495214 144.420905 
L 192.945066 144.420905 
L 192.945066 143.896657 
L 193.32681 143.896657 
L 193.365888 141.799666 
L 194.106942 141.799666 
L 194.106942 140.226923 
L 194.218738 140.226923 
L 194.231734 138.65418 
L 194.423664 138.65418 
L 194.498743 137.081437 
L 194.644303 137.081437 
L 194.749068 132.887455 
L 194.758069 132.887455 
L 194.847827 131.314712 
L 194.878239 131.314712 
L 194.985144 129.741969 
L 195.036578 129.741969 
L 195.121373 128.169225 
L 195.170645 128.169225 
L 195.280991 126.596482 
L 195.33677 126.596482 
L 195.420101 123.975244 
L 195.449517 123.975244 
L 195.558094 119.781262 
L 195.587275 119.781262 
L 195.676229 116.635776 
L 195.729041 116.635776 
L 195.812189 114.014537 
L 195.873022 114.014537 
L 195.975611 110.344803 
L 196.170682 110.344803 
L 196.215386 109.296308 
L 197.143944 109.296308 
L 197.143944 107.199317 
L 197.265706 107.199317 
L 197.265706 105.626573 
L 197.446747 105.626573 
L 197.446747 102.481087 
L 198.206997 102.481087 
L 198.273138 98.287105 
L 198.529407 98.287105 
L 198.621656 96.714362 
L 198.734848 96.714362 
L 198.764812 95.665867 
L 198.852974 95.665867 
L 198.860064 94.093124 
L 199.107792 94.093124 
L 199.171954 92.520381 
L 199.404274 92.520381 
L 199.413886 90.947637 
L 200.090888 90.947637 
L 200.090888 90.42339 
L 200.22367 90.42339 
L 200.22367 89.899142 
L 201.065736 89.899142 
L 201.065736 89.374894 
L 201.313343 89.374894 
L 201.313343 87.277903 
L 202.226504 87.277903 
L 202.325293 83.608169 
L 202.790605 83.608169 
L 202.861518 82.035426 
L 202.969018 82.035426 
L 203.011385 79.938435 
L 203.131228 79.938435 
L 203.177609 76.268701 
L 203.243652 76.268701 
L 203.343335 71.026224 
L 203.37498 71.026224 
L 203.378251 69.977729 
L 203.556092 69.977729 
L 203.658274 66.307995 
L 203.678638 66.307995 
L 203.765182 64.211004 
L 203.80776 64.211004 
L 203.889427 59.492774 
L 204.033777 59.492774 
L 204.033777 58.444279 
L 206.177505 58.444279 
L 206.272641 56.347288 
L 206.320471 56.347288 
L 206.372749 54.250297 
L 209.427824 54.250297 
L 209.526436 52.677554 
L 209.549289 52.677554 
L 209.642666 50.056315 
L 217.023256 50.056315 
L 217.023256 49.532068 
L 223.018894 49.532068 
L 223.018894 49.00782 
L 233.564983 49.00782 
L 233.564983 48.483572 
L 238.094391 48.483572 
L 238.167999 46.386581 
L 239.23995 46.386581 
L 239.280496 44.28959 
L 239.353239 44.28959 
L 239.353239 42.716847 
L 239.509801 42.716847 
L 239.546128 40.619856 
L 239.789117 40.619856 
L 239.789117 37.47437 
L 240.043833 37.47437 
L 240.049256 35.901627 
L 240.239255 35.901627 
L 240.239255 33.280388 
L 240.537196 33.280388 
L 240.548862 27.513663 
L 333.168 27.513663 
L 333.168 27.513663 
" style="fill:none;stroke:#000080;stroke-linecap:square;stroke-width:1.5;"/>
   </g>
   <g id="line2d_44">
    <defs>
     <path d="M 0 6 
C 1.591219 6 3.117479 5.367802 4.242641 4.242641 
C 5.367802 3.117479 6 1.591219 6 0 
C 6 -1.591219 5.367802 -3.117479 4.242641 -4.242641 
C 3.117479 -5.367802 1.591219 -6 0 -6 
C -1.591219 -6 -3.117479 -5.367802 -4.242641 -4.242641 
C -5.367802 -3.117479 -6 -1.591219 -6 0 
C -6 1.591219 -5.367802 3.117479 -4.242641 4.242641 
C -3.117479 5.367802 -1.591219 6 0 6 
z
" id="ma53a6c4a37" style="stroke:#000080;stroke-width:1.5;"/>
    </defs>
    <g>
     <use style="fill-opacity:0;stroke:#000080;stroke-width:1.5;" x="110.014853" xlink:href="#ma53a6c4a37" y="242.979476"/>
     <use style="fill-opacity:0;stroke:#000080;stroke-width:1.5;" x="190.577117" xlink:href="#ma53a6c4a37" y="157.00285"/>
     <use style="fill-opacity:0;stroke:#000080;stroke-width:1.5;" x="209.642666" xlink:href="#ma53a6c4a37" y="51.104811"/>
     <use style="fill-opacity:0;stroke:#000080;stroke-width:1.5;" x="240.548862" xlink:href="#ma53a6c4a37" y="27.513663"/>
     <use style="fill-opacity:0;stroke:#000080;stroke-width:1.5;" x="240.548862" xlink:href="#ma53a6c4a37" y="27.513663"/>
     <use style="fill-opacity:0;stroke:#000080;stroke-width:1.5;" x="333.168" xlink:href="#ma53a6c4a37" y="27.513663"/>
    </g>
   </g>
   <g id="line2d_45">
    <path style="fill:none;stroke:#000080;stroke-linecap:square;stroke-width:1.5;"/>
    <g/>
   </g>
   <g id="line2d_46">
    <defs>
     <path d="M 0 1.5 
C 0.397805 1.5 0.77937 1.341951 1.06066 1.06066 
C 1.341951 0.77937 1.5 0.397805 1.5 0 
C 1.5 -0.397805 1.341951 -0.77937 1.06066 -1.06066 
C 0.77937 -1.341951 0.397805 -1.5 0 -1.5 
C -0.397805 -1.5 -0.77937 -1.341951 -1.06066 -1.06066 
C -1.341951 -0.77937 -1.5 -0.397805 -1.5 0 
C -1.5 0.397805 -1.341951 0.77937 -1.06066 1.06066 
C -0.77937 1.341951 -0.397805 1.5 0 1.5 
z
" id="m70ea77e28d" style="stroke:#ff00ff;"/>
    </defs>
    <g>
     <use style="fill:#ff00ff;stroke:#ff00ff;" x="236.136321" xlink:href="#m70ea77e28d" y="27.513663"/>
     <use style="fill:#ff00ff;stroke:#ff00ff;" x="236.136321" xlink:href="#m70ea77e28d" y="27.513663"/>
    </g>
   </g>
   <g id="line2d_47">
    <path d="M 37.236359 294.88 
L 37.236359 274.434339 
L 49.15061 274.434339 
L 49.15061 269.716109 
L 56.12 269.716109 
L 56.12 268.667614 
L 61.064861 268.667614 
L 61.064861 264.473632 
L 68.034251 264.473632 
L 68.034251 263.949385 
L 75.003641 263.949385 
L 75.003641 262.376641 
L 78.452896 262.376641 
L 78.452896 258.706907 
L 81.324327 258.706907 
L 81.324327 258.18266 
L 82.598142 258.18266 
L 82.598142 257.658412 
L 83.784035 257.658412 
L 83.784035 257.134164 
L 84.893363 257.134164 
L 84.893363 255.037173 
L 89.567532 255.037173 
L 89.567532 253.988678 
L 92.564428 253.988678 
L 92.564428 251.891687 
L 93.887283 251.891687 
L 93.887283 250.843192 
L 94.512393 250.843192 
L 94.512393 250.318944 
L 95.115564 250.318944 
L 95.115564 249.794696 
L 97.849669 249.794696 
L 97.849669 249.270448 
L 99.303095 249.270448 
L 99.303095 248.746201 
L 101.481783 248.746201 
L 101.481783 248.221953 
L 104.478679 248.221953 
L 104.478679 247.173458 
L 105.801534 247.173458 
L 105.801534 246.64921 
L 106.11693 246.64921 
L 106.11693 245.600714 
L 107.029816 245.600714 
L 107.029816 245.076467 
L 109.76392 245.076467 
L 109.76392 244.027971 
L 111.675736 244.027971 
L 111.675736 243.503724 
L 112.122219 243.503724 
L 112.122219 239.83399 
L 113.599452 239.83399 
L 113.599452 239.309742 
L 113.999206 239.309742 
L 113.999206 237.736999 
L 116.220179 237.736999 
L 116.220179 236.688503 
L 116.73331 236.688503 
L 116.73331 236.164255 
L 119.669433 236.164255 
L 119.669433 235.11576 
L 120.501303 235.11576 
L 120.501303 234.591512 
L 121.804096 234.591512 
L 121.804096 233.018769 
L 123.925932 233.018769 
L 123.925932 231.970274 
L 124.255437 231.970274 
L 124.255437 230.921778 
L 126.873966 230.921778 
L 126.873966 230.397531 
L 131.583684 230.397531 
L 131.583684 228.824787 
L 132.279675 228.824787 
L 132.279675 228.30054 
L 132.684132 228.30054 
L 132.684132 227.776292 
L 133.529112 227.776292 
L 133.529112 227.252044 
L 134.515111 227.252044 
L 134.515111 226.727797 
L 135.161597 226.727797 
L 135.161597 226.203549 
L 136.3859 226.203549 
L 136.3859 225.679301 
L 140.771177 225.679301 
L 140.771177 224.630806 
L 142.809574 224.630806 
L 142.809574 223.58231 
L 146.429362 223.58231 
L 146.429362 223.058063 
L 146.696779 223.058063 
L 146.696779 222.533815 
L 147.018071 222.533815 
L 147.018071 222.009567 
L 147.837405 222.009567 
L 147.837405 221.485319 
L 148.300151 221.485319 
L 148.300151 220.436824 
L 149.593139 220.436824 
L 149.593139 219.388328 
L 151.094972 219.388328 
L 151.094972 218.339833 
L 152.28543 218.339833 
L 152.28543 217.815585 
L 157.420925 217.815585 
L 157.420925 217.291338 
L 157.765022 217.291338 
L 157.795964 216.242842 
L 160.599487 216.242842 
L 160.599487 215.194347 
L 161.482461 215.194347 
L 161.482461 214.145851 
L 163.931355 214.145851 
L 163.97457 213.097356 
L 164.092853 213.097356 
L 164.092853 212.573108 
L 164.369237 212.573108 
L 164.369237 212.04886 
L 164.734412 212.04886 
L 164.775656 210.476117 
L 164.847597 210.476117 
L 164.847597 209.427622 
L 165.263022 209.427622 
L 165.263022 208.903374 
L 165.452183 208.903374 
L 165.452183 207.854879 
L 165.804984 207.854879 
L 165.804984 205.757888 
L 166.931279 205.757888 
L 166.931279 204.709392 
L 167.65184 204.709392 
L 167.65184 204.185145 
L 168.509963 204.185145 
L 168.509963 203.660897 
L 168.919431 203.660897 
L 168.919431 203.136649 
L 170.130123 203.136649 
L 170.130123 202.612401 
L 170.302724 202.612401 
L 170.354912 201.039658 
L 170.672068 201.039658 
L 170.672068 200.515411 
L 170.803113 200.515411 
L 170.911559 199.466915 
L 172.362063 199.466915 
L 172.362063 198.41842 
L 173.037487 198.41842 
L 173.037487 196.321429 
L 173.208582 196.321429 
L 173.302905 195.272933 
L 173.693502 195.272933 
L 173.736359 194.224438 
L 174.051422 194.224438 
L 174.141242 192.651695 
L 174.182998 192.651695 
L 174.182998 191.078952 
L 174.307662 191.078952 
L 174.307662 190.554704 
L 174.454901 190.554704 
L 174.536808 187.933465 
L 174.65894 187.933465 
L 174.65894 186.88497 
L 174.906346 186.88497 
L 174.906346 186.360722 
L 176.581429 186.360722 
L 176.617665 185.312227 
L 176.920082 185.312227 
L 176.920082 184.263731 
L 177.470085 184.263731 
L 177.470085 183.739484 
L 177.873741 183.739484 
L 177.873741 183.215236 
L 178.15029 183.215236 
L 178.15029 182.690988 
L 178.593862 182.690988 
L 178.593862 182.16674 
L 178.777259 182.16674 
L 178.777259 181.642493 
L 178.999284 181.642493 
L 178.999284 181.118245 
L 179.147212 181.118245 
L 179.147212 180.593997 
L 179.648656 180.593997 
L 179.648656 180.06975 
L 179.79542 180.06975 
L 179.79542 179.545502 
L 180.683313 179.545502 
L 180.683313 179.021254 
L 180.825587 179.021254 
L 180.825587 178.497006 
L 180.954644 178.497006 
L 180.954644 177.448511 
L 181.355737 177.448511 
L 181.37143 176.400016 
L 181.523699 176.400016 
L 181.523699 175.875768 
L 181.786008 175.875768 
L 181.797489 174.827272 
L 183.333536 174.827272 
L 183.420779 173.778777 
L 183.517968 173.778777 
L 183.517968 173.254529 
L 183.806283 173.254529 
L 183.86744 171.157538 
L 183.93176 171.157538 
L 183.938517 169.060547 
L 184.109917 169.060547 
L 184.170006 165.915061 
L 184.919866 165.915061 
L 184.919866 165.390813 
L 185.144888 165.390813 
L 185.248482 161.721079 
L 185.270376 161.721079 
L 185.270376 160.672584 
L 185.422861 160.672584 
L 185.425959 159.624089 
L 185.564789 159.624089 
L 185.623071 157.527098 
L 185.69031 157.527098 
L 185.705555 155.430107 
L 185.953661 155.430107 
L 186.007648 153.333116 
L 190.438832 153.333116 
L 190.438832 152.808868 
L 191.216977 152.808868 
L 191.216977 152.28462 
L 191.893509 152.28462 
L 191.893509 151.760373 
L 193.159728 151.760373 
L 193.159728 151.236125 
L 194.568038 151.236125 
L 194.568038 148.614886 
L 195.086093 148.614886 
L 195.086093 148.090639 
L 196.152436 148.090639 
L 196.152436 147.566391 
L 196.529971 147.566391 
L 196.529971 147.042143 
L 197.569446 147.042143 
L 197.569446 145.993648 
L 198.005542 145.993648 
L 198.005542 145.4694 
L 198.623094 145.4694 
L 198.623094 144.420905 
L 198.894056 144.420905 
L 198.894056 142.848162 
L 199.653814 142.848162 
L 199.653814 140.751171 
L 199.779254 140.751171 
L 199.863713 134.460198 
L 199.947759 134.460198 
L 200.007541 130.790464 
L 200.177772 130.790464 
L 200.177772 129.741969 
L 200.289026 129.741969 
L 200.399564 127.644978 
L 200.565976 127.644978 
L 200.663268 120.829757 
L 200.698974 120.829757 
L 200.698974 119.781262 
L 200.949372 119.781262 
L 200.979477 117.160023 
L 202.866011 117.160023 
L 202.866011 116.635776 
L 203.038089 116.635776 
L 203.038089 115.58728 
L 203.169888 115.58728 
L 203.169888 115.063032 
L 203.370619 115.063032 
L 203.468486 113.490289 
L 204.136296 113.490289 
L 204.136296 112.966042 
L 204.427934 112.966042 
L 204.427934 112.441794 
L 204.780132 112.441794 
L 204.780132 111.917546 
L 204.933161 111.917546 
L 204.933161 110.869051 
L 205.214633 110.869051 
L 205.310364 108.247812 
L 205.983765 108.247812 
L 206.028669 105.626573 
L 206.122771 105.626573 
L 206.189541 103.005335 
L 206.279087 103.005335 
L 206.390139 96.714362 
L 206.412994 96.714362 
L 206.521372 92.520381 
L 207.362039 92.520381 
L 207.362039 91.996133 
L 208.310572 91.996133 
L 208.310572 88.850646 
L 208.531672 88.850646 
L 208.531672 88.326399 
L 209.336352 88.326399 
L 209.336352 87.802151 
L 209.525674 87.802151 
L 209.628275 83.608169 
L 214.476632 83.608169 
L 214.476632 83.083922 
L 221.105482 83.083922 
L 221.105482 81.511178 
L 221.360082 81.511178 
L 221.360082 80.986931 
L 221.528502 80.986931 
L 221.629069 79.414188 
L 222.014501 79.414188 
L 222.03108 75.220206 
L 222.17045 75.220206 
L 222.247352 72.074719 
L 223.060566 72.074719 
L 223.113552 67.880738 
L 223.215599 67.880738 
L 223.221441 64.211004 
L 223.339922 64.211004 
L 223.412796 58.444279 
L 225.56346 58.444279 
L 225.659441 50.580563 
L 227.465047 50.580563 
L 227.564084 40.619856 
L 234.518076 40.619856 
L 234.518076 39.571361 
L 234.79368 39.571361 
L 234.810497 38.522865 
L 234.906875 38.522865 
L 234.906875 36.425875 
L 235.987201 36.425875 
L 235.987201 35.901627 
L 236.100137 35.901627 
L 236.136321 27.513663 
L 333.168 27.513663 
L 333.168 27.513663 
" style="fill:none;stroke:#ff00ff;stroke-linecap:square;stroke-width:1.5;"/>
   </g>
   <g id="line2d_48">
    <defs>
     <path d="M -0 8.485281 
L 5.091169 0 
L 0 -8.485281 
L -5.091169 -0 
z
" id="m6e44a1c7f2" style="stroke:#ff00ff;stroke-linejoin:miter;stroke-width:1.5;"/>
    </defs>
    <g>
     <use style="fill-opacity:0;stroke:#ff00ff;stroke-linejoin:miter;stroke-width:1.5;" x="106.11693" xlink:href="#m6e44a1c7f2" y="245.600714"/>
     <use style="fill-opacity:0;stroke:#ff00ff;stroke-linejoin:miter;stroke-width:1.5;" x="181.797489" xlink:href="#m6e44a1c7f2" y="174.827272"/>
     <use style="fill-opacity:0;stroke:#ff00ff;stroke-linejoin:miter;stroke-width:1.5;" x="223.221441" xlink:href="#m6e44a1c7f2" y="64.211004"/>
     <use style="fill-opacity:0;stroke:#ff00ff;stroke-linejoin:miter;stroke-width:1.5;" x="236.136321" xlink:href="#m6e44a1c7f2" y="27.513663"/>
     <use style="fill-opacity:0;stroke:#ff00ff;stroke-linejoin:miter;stroke-width:1.5;" x="236.136321" xlink:href="#m6e44a1c7f2" y="27.513663"/>
     <use style="fill-opacity:0;stroke:#ff00ff;stroke-linejoin:miter;stroke-width:1.5;" x="333.168" xlink:href="#m6e44a1c7f2" y="27.513663"/>
    </g>
   </g>
   <g id="line2d_49">
    <path style="fill:none;stroke:#ff00ff;stroke-linecap:square;stroke-width:1.5;"/>
    <g/>
   </g>
   <g id="line2d_50">
    <defs>
     <path d="M 0 1.5 
C 0.397805 1.5 0.77937 1.341951 1.06066 1.06066 
C 1.341951 0.77937 1.5 0.397805 1.5 0 
C 1.5 -0.397805 1.341951 -0.77937 1.06066 -1.06066 
C 0.77937 -1.341951 0.397805 -1.5 0 -1.5 
C -0.397805 -1.5 -0.77937 -1.341951 -1.06066 -1.06066 
C -1.341951 -0.77937 -1.5 -0.397805 -1.5 0 
C -1.5 0.397805 -1.341951 0.77937 -1.06066 1.06066 
C -0.77937 1.341951 -0.397805 1.5 0 1.5 
z
" id="m3cc7fcc4a4" style="stroke:#ff7500;"/>
    </defs>
    <g>
     <use style="fill:#ff7500;stroke:#ff7500;" x="229.35594" xlink:href="#m3cc7fcc4a4" y="27.513663"/>
     <use style="fill:#ff7500;stroke:#ff7500;" x="229.35594" xlink:href="#m3cc7fcc4a4" y="27.513663"/>
    </g>
   </g>
   <g id="line2d_51">
    <path d="M 37.236359 294.88 
L 37.236359 278.104073 
L 49.15061 278.104073 
L 49.15061 273.385844 
L 56.12 273.385844 
L 56.12 270.240357 
L 61.064861 270.240357 
L 61.064861 266.046375 
L 64.900393 266.046375 
L 64.900393 264.473632 
L 68.034251 264.473632 
L 68.034251 263.425137 
L 72.979112 263.425137 
L 72.979112 261.328146 
L 75.003641 261.328146 
L 75.003641 260.803898 
L 78.452896 260.803898 
L 78.452896 260.279651 
L 81.324327 260.279651 
L 81.324327 259.755403 
L 83.784035 259.755403 
L 83.784035 258.706907 
L 84.893363 258.706907 
L 84.893363 258.18266 
L 85.935418 258.18266 
L 85.935418 256.609917 
L 86.917893 256.609917 
L 86.917893 256.085669 
L 92.564428 256.085669 
L 92.564428 255.561421 
L 94.512393 255.561421 
L 94.512393 255.037173 
L 97.849669 255.037173 
L 97.849669 253.988678 
L 99.303095 253.988678 
L 99.303095 253.46443 
L 100.207968 253.46443 
L 100.207968 252.940182 
L 101.88624 252.940182 
L 101.88624 250.843192 
L 103.045463 250.843192 
L 103.045463 250.318944 
L 108.721866 250.318944 
L 108.721866 249.270448 
L 109.76392 249.270448 
L 109.76392 248.746201 
L 110.983483 248.746201 
L 110.983483 246.64921 
L 111.448069 246.64921 
L 111.448069 246.124962 
L 115.329377 246.124962 
L 115.329377 245.076467 
L 116.220179 245.076467 
L 116.220179 244.552219 
L 116.901005 244.552219 
L 116.901005 244.027971 
L 117.874207 244.027971 
L 117.874207 243.503724 
L 118.186736 243.503724 
L 118.186736 241.93098 
L 121.034327 241.93098 
L 121.034327 240.882485 
L 121.16504 240.882485 
L 121.16504 240.358237 
L 122.053211 240.358237 
L 122.053211 239.83399 
L 122.660646 239.83399 
L 122.660646 239.309742 
L 123.131597 239.309742 
L 123.131597 238.785494 
L 125.412295 238.785494 
L 125.412295 238.261246 
L 126.967129 238.261246 
L 126.967129 237.212751 
L 127.959924 237.212751 
L 127.959924 235.640008 
L 128.478214 235.640008 
L 128.478214 234.591512 
L 129.945433 234.591512 
L 129.945433 233.543017 
L 131.795457 233.543017 
L 131.865471 232.494521 
L 132.684132 232.494521 
L 132.684132 231.446026 
L 136.223997 231.446026 
L 136.223997 230.921778 
L 137.326546 230.921778 
L 137.326546 230.397531 
L 137.528768 230.397531 
L 137.528768 229.873283 
L 138.458109 229.873283 
L 138.458109 229.349035 
L 138.600361 229.349035 
L 138.600361 228.824787 
L 139.203533 228.824787 
L 139.203533 228.30054 
L 142.169397 228.30054 
L 142.169397 227.776292 
L 144.125582 227.776292 
L 144.193927 226.203549 
L 144.797098 226.203549 
L 144.797098 224.630806 
L 145.31604 224.630806 
L 145.31604 224.106558 
L 145.943432 224.106558 
L 145.943432 223.58231 
L 147.446737 223.58231 
L 147.446737 223.058063 
L 147.643181 223.058063 
L 147.643181 222.533815 
L 148.273273 222.533815 
L 148.273273 222.009567 
L 150.372361 222.009567 
L 150.372361 221.485319 
L 150.514612 221.485319 
L 150.514612 220.961072 
L 151.140565 220.961072 
L 151.140565 219.912576 
L 151.8977 219.912576 
L 151.8977 218.864081 
L 153.055976 218.864081 
L 153.055976 218.339833 
L 153.338757 218.339833 
L 153.338757 217.815585 
L 153.61696 217.815585 
L 153.695627 216.76709 
L 154.538 216.76709 
L 154.538 215.718594 
L 155.107638 215.718594 
L 155.215743 213.097356 
L 155.588844 213.097356 
L 155.588844 212.573108 
L 155.746298 212.573108 
L 155.746298 212.04886 
L 157.005179 212.04886 
L 157.021357 210.476117 
L 158.04152 210.476117 
L 158.056752 208.379126 
L 158.596282 208.379126 
L 158.596282 207.854879 
L 158.772427 207.854879 
L 158.772427 207.330631 
L 158.990099 207.330631 
L 158.990099 206.806383 
L 159.459491 206.806383 
L 159.459491 206.282136 
L 159.779224 206.282136 
L 159.779224 205.23364 
L 159.916405 205.23364 
L 159.94371 202.612401 
L 161.532283 202.612401 
L 161.532283 202.088154 
L 164.827073 202.088154 
L 164.827073 201.563906 
L 165.122295 201.563906 
L 165.122295 200.515411 
L 165.949873 200.515411 
L 165.949873 199.991163 
L 167.085033 199.991163 
L 167.085033 199.466915 
L 167.520662 199.466915 
L 167.546978 197.894172 
L 167.911231 197.894172 
L 167.928385 195.272933 
L 168.098993 195.272933 
L 168.166765 190.030456 
L 168.368492 190.030456 
L 168.418556 188.981961 
L 168.52653 188.981961 
L 168.633831 187.933465 
L 168.666712 187.933465 
L 168.666712 187.409218 
L 168.87892 187.409218 
L 168.903238 186.360722 
L 169.040393 186.360722 
L 169.136553 183.215236 
L 169.200362 183.215236 
L 169.256002 180.593997 
L 169.358857 180.593997 
L 169.46894 177.448511 
L 169.632754 177.448511 
L 169.733386 174.827272 
L 169.833432 174.827272 
L 169.833432 173.778777 
L 170.145201 173.778777 
L 170.145201 173.254529 
L 170.517909 173.254529 
L 170.517909 172.730281 
L 170.911559 172.730281 
L 170.990653 169.584795 
L 171.119301 169.584795 
L 171.154866 163.81807 
L 171.810148 163.81807 
L 171.810148 163.293823 
L 171.99384 163.293823 
L 171.99384 162.769575 
L 172.17559 162.769575 
L 172.24242 160.672584 
L 173.315442 160.672584 
L 173.315442 160.148336 
L 173.650538 160.148336 
L 173.650538 158.575593 
L 173.785207 158.575593 
L 173.80958 157.00285 
L 174.206814 157.00285 
L 174.206814 155.430107 
L 174.490052 155.430107 
L 174.490052 154.381611 
L 174.826186 154.381611 
L 174.826186 153.857364 
L 175.172754 153.857364 
L 175.273699 152.808868 
L 175.429555 152.808868 
L 175.429555 152.28462 
L 176.071281 152.28462 
L 176.071281 151.236125 
L 176.267664 151.236125 
L 176.325618 147.566391 
L 176.555499 147.566391 
L 176.58661 145.993648 
L 177.724084 145.993648 
L 177.738624 143.372409 
L 178.112409 143.372409 
L 178.221094 142.323914 
L 178.413147 142.323914 
L 178.464311 140.751171 
L 178.584641 140.751171 
L 178.61229 137.605684 
L 178.931621 137.605684 
L 178.931621 137.081437 
L 179.20069 137.081437 
L 179.20069 136.557189 
L 179.36454 136.557189 
L 179.36454 135.508693 
L 179.80831 135.508693 
L 179.80831 133.93595 
L 180.177973 133.93595 
L 180.177973 133.411703 
L 180.357785 133.411703 
L 180.357785 132.887455 
L 180.498642 132.887455 
L 180.498642 132.363207 
L 180.715937 132.363207 
L 180.793171 130.790464 
L 180.837728 130.790464 
L 180.942586 129.741969 
L 180.974722 129.741969 
L 181.022813 128.169225 
L 181.316439 128.169225 
L 181.316439 127.644978 
L 181.99528 127.644978 
L 181.99528 127.12073 
L 182.681063 127.12073 
L 182.681063 126.596482 
L 183.097516 126.596482 
L 183.097516 126.072235 
L 183.340531 126.072235 
L 183.340531 125.547987 
L 183.483321 125.547987 
L 183.580159 123.975244 
L 183.611169 123.975244 
L 183.611169 122.4025 
L 183.744907 122.4025 
L 183.758565 120.829757 
L 183.897938 120.829757 
L 184.002572 119.257014 
L 184.046262 119.257014 
L 184.103228 117.684271 
L 184.276314 117.684271 
L 184.309401 116.635776 
L 184.421422 116.635776 
L 184.500059 114.014537 
L 184.549025 114.014537 
L 184.549025 112.966042 
L 186.260317 112.966042 
L 186.260317 112.441794 
L 186.840579 112.441794 
L 186.945813 110.869051 
L 187.624107 110.869051 
L 187.624107 110.344803 
L 190.604641 110.344803 
L 190.604641 109.820555 
L 193.165653 109.820555 
L 193.165653 109.296308 
L 193.277837 109.296308 
L 193.277837 108.77206 
L 193.470958 108.77206 
L 193.581173 104.578078 
L 193.65042 104.578078 
L 193.65042 103.005335 
L 193.803311 103.005335 
L 193.903857 99.859849 
L 193.915203 99.859849 
L 193.915203 99.335601 
L 194.344568 99.335601 
L 194.344568 98.811353 
L 194.702183 98.811353 
L 194.702183 98.287105 
L 195.117849 98.287105 
L 195.117849 97.762858 
L 195.706914 97.762858 
L 195.706914 97.23861 
L 196.893034 97.23861 
L 196.893034 96.714362 
L 197.694311 96.714362 
L 197.773026 95.665867 
L 200.698974 95.665867 
L 200.698974 95.141619 
L 206.348006 95.141619 
L 206.380073 91.996133 
L 206.464991 91.996133 
L 206.554024 84.656665 
L 206.648906 84.656665 
L 206.752228 82.559674 
L 206.774607 82.559674 
L 206.820171 80.462683 
L 208.028474 80.462683 
L 208.115576 74.695958 
L 208.140382 74.695958 
L 208.244176 72.074719 
L 208.254029 72.074719 
L 208.353878 68.929233 
L 209.427058 68.929233 
L 209.427058 68.404985 
L 209.574391 68.404985 
L 209.574391 67.880738 
L 209.725747 67.880738 
L 209.835401 64.735251 
L 209.851864 64.735251 
L 209.953285 59.492774 
L 210.013408 59.492774 
L 210.013408 57.920031 
L 211.337744 57.920031 
L 211.337744 54.774545 
L 211.495486 54.774545 
L 211.587007 47.435077 
L 211.607955 47.435077 
L 211.607955 46.910829 
L 225.790732 46.910829 
L 225.848632 38.522865 
L 229.239395 38.522865 
L 229.33645 29.086407 
L 229.354978 29.086407 
L 229.35594 27.513663 
L 333.168 27.513663 
L 333.168 27.513663 
" style="fill:none;stroke:#ff7500;stroke-linecap:square;stroke-width:1.5;"/>
   </g>
   <g id="line2d_52">
    <defs>
     <path d="M 0 -6 
L -1.347084 -1.854102 
L -5.706339 -1.854102 
L -2.179628 0.708204 
L -3.526712 4.854102 
L -0 2.291796 
L 3.526712 4.854102 
L 2.179628 0.708204 
L 5.706339 -1.854102 
L 1.347084 -1.854102 
z
" id="me21a06aaed" style="stroke:#ff7500;stroke-linejoin:bevel;stroke-width:1.5;"/>
    </defs>
    <g>
     <use style="fill-opacity:0;stroke:#ff7500;stroke-linejoin:bevel;stroke-width:1.5;" x="110.983483" xlink:href="#me21a06aaed" y="248.746201"/>
     <use style="fill-opacity:0;stroke:#ff7500;stroke-linejoin:bevel;stroke-width:1.5;" x="169.040393" xlink:href="#me21a06aaed" y="185.836474"/>
     <use style="fill-opacity:0;stroke:#ff7500;stroke-linejoin:bevel;stroke-width:1.5;" x="211.5552" xlink:href="#me21a06aaed" y="50.580563"/>
     <use style="fill-opacity:0;stroke:#ff7500;stroke-linejoin:bevel;stroke-width:1.5;" x="229.35594" xlink:href="#me21a06aaed" y="28.562159"/>
     <use style="fill-opacity:0;stroke:#ff7500;stroke-linejoin:bevel;stroke-width:1.5;" x="229.35594" xlink:href="#me21a06aaed" y="27.513663"/>
     <use style="fill-opacity:0;stroke:#ff7500;stroke-linejoin:bevel;stroke-width:1.5;" x="333.168" xlink:href="#me21a06aaed" y="27.513663"/>
    </g>
   </g>
   <g id="line2d_53">
    <path style="fill:none;stroke:#ff7500;stroke-linecap:square;stroke-width:1.5;"/>
    <g/>
   </g>
   <g id="line2d_54">
    <path d="M 333.168 27.513663 
L 363.64328 289.532673 
" style="fill:none;stroke:#000080;stroke-linecap:square;stroke-width:1.5;"/>
    <g>
     <use style="fill-opacity:0;stroke:#000080;stroke-width:1.5;" x="333.168" xlink:href="#ma53a6c4a37" y="27.513663"/>
     <use style="fill-opacity:0;stroke:#000080;stroke-width:1.5;" x="363.64328" xlink:href="#ma53a6c4a37" y="289.532673"/>
    </g>
   </g>
   <g id="line2d_55">
    <path d="M 333.168 27.513663 
L 363.64328 203.975446 
" style="fill:none;stroke:#ff00ff;stroke-linecap:square;stroke-width:1.5;"/>
    <g>
     <use style="fill-opacity:0;stroke:#ff00ff;stroke-linejoin:miter;stroke-width:1.5;" x="333.168" xlink:href="#m6e44a1c7f2" y="27.513663"/>
     <use style="fill-opacity:0;stroke:#ff00ff;stroke-linejoin:miter;stroke-width:1.5;" x="363.64328" xlink:href="#m6e44a1c7f2" y="203.975446"/>
    </g>
   </g>
   <g id="line2d_56">
    <path d="M 333.168 27.513663 
L 363.64328 118.418218 
" style="fill:none;stroke:#ff7500;stroke-linecap:square;stroke-width:1.5;"/>
    <g>
     <use style="fill-opacity:0;stroke:#ff7500;stroke-linejoin:bevel;stroke-width:1.5;" x="333.168" xlink:href="#me21a06aaed" y="27.513663"/>
     <use style="fill-opacity:0;stroke:#ff7500;stroke-linejoin:bevel;stroke-width:1.5;" x="363.64328" xlink:href="#me21a06aaed" y="118.418218"/>
    </g>
   </g>
   <g id="line2d_57">
    <path d="M 333.168 294.88 
L 333.168 27.513663 
" style="fill:none;stroke:#000000;stroke-linecap:square;stroke-width:1.5;"/>
   </g>
   <g id="patch_3">
    <path d="M 56.12 294.88 
L 56.12 24.84 
" style="fill:none;stroke:#000000;stroke-linecap:square;stroke-linejoin:miter;stroke-width:0.8;"/>
   </g>
   <g id="patch_4">
    <path d="M 333.168 294.88 
L 333.168 24.84 
" style="fill:none;stroke:#000000;stroke-linecap:square;stroke-linejoin:miter;stroke-width:0.8;"/>
   </g>
   <g id="patch_5">
    <path d="M 56.12 294.88 
L 333.168 294.88 
" style="fill:none;stroke:#000000;stroke-linecap:square;stroke-linejoin:miter;stroke-width:0.8;"/>
   </g>
   <g id="patch_6">
    <path d="M 56.12 24.84 
L 333.168 24.84 
" style="fill:none;stroke:#000000;stroke-linecap:square;stroke-linejoin:miter;stroke-width:0.8;"/>
   </g>
   <g id="text_13">
    <!-- SHADE-LM -->
    <defs>
     <path d="M 53.515625 70.515625 
L 53.515625 60.890625 
Q 47.90625 63.578125 42.921875 64.890625 
Q 37.9375 66.21875 33.296875 66.21875 
Q 25.25 66.21875 20.875 63.09375 
Q 16.5 59.96875 16.5 54.203125 
Q 16.5 49.359375 19.40625 46.890625 
Q 22.3125 44.4375 30.421875 42.921875 
L 36.375 41.703125 
Q 47.40625 39.59375 52.65625 34.296875 
Q 57.90625 29 57.90625 20.125 
Q 57.90625 9.515625 50.796875 4.046875 
Q 43.703125 -1.421875 29.984375 -1.421875 
Q 24.8125 -1.421875 18.96875 -0.25 
Q 13.140625 0.921875 6.890625 3.21875 
L 6.890625 13.375 
Q 12.890625 10.015625 18.65625 8.296875 
Q 24.421875 6.59375 29.984375 6.59375 
Q 38.421875 6.59375 43.015625 9.90625 
Q 47.609375 13.234375 47.609375 19.390625 
Q 47.609375 24.75 44.3125 27.78125 
Q 41.015625 30.8125 33.5 32.328125 
L 27.484375 33.5 
Q 16.453125 35.6875 11.515625 40.375 
Q 6.59375 45.0625 6.59375 53.421875 
Q 6.59375 63.09375 13.40625 68.65625 
Q 20.21875 74.21875 32.171875 74.21875 
Q 37.3125 74.21875 42.625 73.28125 
Q 47.953125 72.359375 53.515625 70.515625 
z
" id="DejaVuSans-53"/>
     <path d="M 9.8125 72.90625 
L 19.671875 72.90625 
L 19.671875 43.015625 
L 55.515625 43.015625 
L 55.515625 72.90625 
L 65.375 72.90625 
L 65.375 0 
L 55.515625 0 
L 55.515625 34.71875 
L 19.671875 34.71875 
L 19.671875 0 
L 9.8125 0 
z
" id="DejaVuSans-48"/>
     <path d="M 34.1875 63.1875 
L 20.796875 26.90625 
L 47.609375 26.90625 
z
M 28.609375 72.90625 
L 39.796875 72.90625 
L 67.578125 0 
L 57.328125 0 
L 50.6875 18.703125 
L 17.828125 18.703125 
L 11.1875 0 
L 0.78125 0 
z
" id="DejaVuSans-41"/>
     <path d="M 19.671875 64.796875 
L 19.671875 8.109375 
L 31.59375 8.109375 
Q 46.6875 8.109375 53.6875 14.9375 
Q 60.6875 21.78125 60.6875 36.53125 
Q 60.6875 51.171875 53.6875 57.984375 
Q 46.6875 64.796875 31.59375 64.796875 
z
M 9.8125 72.90625 
L 30.078125 72.90625 
Q 51.265625 72.90625 61.171875 64.09375 
Q 71.09375 55.28125 71.09375 36.53125 
Q 71.09375 17.671875 61.125 8.828125 
Q 51.171875 0 30.078125 0 
L 9.8125 0 
z
" id="DejaVuSans-44"/>
     <path d="M 9.8125 72.90625 
L 55.90625 72.90625 
L 55.90625 64.59375 
L 19.671875 64.59375 
L 19.671875 43.015625 
L 54.390625 43.015625 
L 54.390625 34.71875 
L 19.671875 34.71875 
L 19.671875 8.296875 
L 56.78125 8.296875 
L 56.78125 0 
L 9.8125 0 
z
" id="DejaVuSans-45"/>
     <path d="M 9.8125 72.90625 
L 19.671875 72.90625 
L 19.671875 8.296875 
L 55.171875 8.296875 
L 55.171875 0 
L 9.8125 0 
z
" id="DejaVuSans-4c"/>
     <path d="M 9.8125 72.90625 
L 24.515625 72.90625 
L 43.109375 23.296875 
L 61.8125 72.90625 
L 76.515625 72.90625 
L 76.515625 0 
L 66.890625 0 
L 66.890625 64.015625 
L 48.09375 14.015625 
L 38.1875 14.015625 
L 19.390625 64.015625 
L 19.390625 0 
L 9.8125 0 
z
" id="DejaVuSans-4d"/>
    </defs>
    <g transform="translate(369.18424 294.223611)scale(0.17 -0.17)">
     <use xlink:href="#DejaVuSans-53"/>
     <use x="63.476562" xlink:href="#DejaVuSans-48"/>
     <use x="138.671875" xlink:href="#DejaVuSans-41"/>
     <use x="207.080078" xlink:href="#DejaVuSans-44"/>
     <use x="284.082031" xlink:href="#DejaVuSans-45"/>
     <use x="347.265625" xlink:href="#DejaVuSans-2d"/>
     <use x="383.349609" xlink:href="#DejaVuSans-4c"/>
     <use x="439.0625" xlink:href="#DejaVuSans-4d"/>
    </g>
   </g>
   <g id="text_14">
    <!-- SHADE-LM-PO -->
    <defs>
     <path d="M 19.671875 64.796875 
L 19.671875 37.40625 
L 32.078125 37.40625 
Q 38.96875 37.40625 42.71875 40.96875 
Q 46.484375 44.53125 46.484375 51.125 
Q 46.484375 57.671875 42.71875 61.234375 
Q 38.96875 64.796875 32.078125 64.796875 
z
M 9.8125 72.90625 
L 32.078125 72.90625 
Q 44.34375 72.90625 50.609375 67.359375 
Q 56.890625 61.8125 56.890625 51.125 
Q 56.890625 40.328125 50.609375 34.8125 
Q 44.34375 29.296875 32.078125 29.296875 
L 19.671875 29.296875 
L 19.671875 0 
L 9.8125 0 
z
" id="DejaVuSans-50"/>
     <path d="M 39.40625 66.21875 
Q 28.65625 66.21875 22.328125 58.203125 
Q 16.015625 50.203125 16.015625 36.375 
Q 16.015625 22.609375 22.328125 14.59375 
Q 28.65625 6.59375 39.40625 6.59375 
Q 50.140625 6.59375 56.421875 14.59375 
Q 62.703125 22.609375 62.703125 36.375 
Q 62.703125 50.203125 56.421875 58.203125 
Q 50.140625 66.21875 39.40625 66.21875 
z
M 39.40625 74.21875 
Q 54.734375 74.21875 63.90625 63.9375 
Q 73.09375 53.65625 73.09375 36.375 
Q 73.09375 19.140625 63.90625 8.859375 
Q 54.734375 -1.421875 39.40625 -1.421875 
Q 24.03125 -1.421875 14.8125 8.828125 
Q 5.609375 19.09375 5.609375 36.375 
Q 5.609375 53.65625 14.8125 63.9375 
Q 24.03125 74.21875 39.40625 74.21875 
z
" id="DejaVuSans-4f"/>
    </defs>
    <g transform="translate(369.18424 208.666383)scale(0.17 -0.17)">
     <use xlink:href="#DejaVuSans-53"/>
     <use x="63.476562" xlink:href="#DejaVuSans-48"/>
     <use x="138.671875" xlink:href="#DejaVuSans-41"/>
     <use x="207.080078" xlink:href="#DejaVuSans-44"/>
     <use x="284.082031" xlink:href="#DejaVuSans-45"/>
     <use x="347.265625" xlink:href="#DejaVuSans-2d"/>
     <use x="383.349609" xlink:href="#DejaVuSans-4c"/>
     <use x="439.0625" xlink:href="#DejaVuSans-4d"/>
     <use x="525.341797" xlink:href="#DejaVuSans-2d"/>
     <use x="561.425781" xlink:href="#DejaVuSans-50"/>
     <use x="621.728516" xlink:href="#DejaVuSans-4f"/>
    </g>
   </g>
   <g id="text_15">
    <!-- R-SHADE-Tan -->
    <defs>
     <path d="M 44.390625 34.1875 
Q 47.5625 33.109375 50.5625 29.59375 
Q 53.5625 26.078125 56.59375 19.921875 
L 66.609375 0 
L 56 0 
L 46.6875 18.703125 
Q 43.0625 26.03125 39.671875 28.421875 
Q 36.28125 30.8125 30.421875 30.8125 
L 19.671875 30.8125 
L 19.671875 0 
L 9.8125 0 
L 9.8125 72.90625 
L 32.078125 72.90625 
Q 44.578125 72.90625 50.734375 67.671875 
Q 56.890625 62.453125 56.890625 51.90625 
Q 56.890625 45.015625 53.6875 40.46875 
Q 50.484375 35.9375 44.390625 34.1875 
z
M 19.671875 64.796875 
L 19.671875 38.921875 
L 32.078125 38.921875 
Q 39.203125 38.921875 42.84375 42.21875 
Q 46.484375 45.515625 46.484375 51.90625 
Q 46.484375 58.296875 42.84375 61.546875 
Q 39.203125 64.796875 32.078125 64.796875 
z
" id="DejaVuSans-52"/>
     <path d="M -0.296875 72.90625 
L 61.375 72.90625 
L 61.375 64.59375 
L 35.5 64.59375 
L 35.5 0 
L 25.59375 0 
L 25.59375 64.59375 
L -0.296875 64.59375 
z
" id="DejaVuSans-54"/>
    </defs>
    <g transform="translate(369.18424 123.109155)scale(0.17 -0.17)">
     <use xlink:href="#DejaVuSans-52"/>
     <use x="69.419922" xlink:href="#DejaVuSans-2d"/>
     <use x="105.503906" xlink:href="#DejaVuSans-53"/>
     <use x="168.980469" xlink:href="#DejaVuSans-48"/>
     <use x="244.175781" xlink:href="#DejaVuSans-41"/>
     <use x="312.583984" xlink:href="#DejaVuSans-44"/>
     <use x="389.585938" xlink:href="#DejaVuSans-45"/>
     <use x="452.769531" xlink:href="#DejaVuSans-2d"/>
     <use x="488.712891" xlink:href="#DejaVuSans-54"/>
     <use x="549.546875" xlink:href="#DejaVuSans-61"/>
     <use x="610.826172" xlink:href="#DejaVuSans-6e"/>
    </g>
   </g>
   <g id="text_16">
    <!-- best 2009 -->
    <defs>
     <path d="M 48.6875 27.296875 
Q 48.6875 37.203125 44.609375 42.84375 
Q 40.53125 48.484375 33.40625 48.484375 
Q 26.265625 48.484375 22.1875 42.84375 
Q 18.109375 37.203125 18.109375 27.296875 
Q 18.109375 17.390625 22.1875 11.75 
Q 26.265625 6.109375 33.40625 6.109375 
Q 40.53125 6.109375 44.609375 11.75 
Q 48.6875 17.390625 48.6875 27.296875 
z
M 18.109375 46.390625 
Q 20.953125 51.265625 25.265625 53.625 
Q 29.59375 56 35.59375 56 
Q 45.5625 56 51.78125 48.09375 
Q 58.015625 40.1875 58.015625 27.296875 
Q 58.015625 14.40625 51.78125 6.484375 
Q 45.5625 -1.421875 35.59375 -1.421875 
Q 29.59375 -1.421875 25.265625 0.953125 
Q 20.953125 3.328125 18.109375 8.203125 
L 18.109375 0 
L 9.078125 0 
L 9.078125 75.984375 
L 18.109375 75.984375 
z
" id="DejaVuSans-62"/>
     <path d="M 10.984375 1.515625 
L 10.984375 10.5 
Q 14.703125 8.734375 18.5 7.8125 
Q 22.3125 6.890625 25.984375 6.890625 
Q 35.75 6.890625 40.890625 13.453125 
Q 46.046875 20.015625 46.78125 33.40625 
Q 43.953125 29.203125 39.59375 26.953125 
Q 35.25 24.703125 29.984375 24.703125 
Q 19.046875 24.703125 12.671875 31.3125 
Q 6.296875 37.9375 6.296875 49.421875 
Q 6.296875 60.640625 12.9375 67.421875 
Q 19.578125 74.21875 30.609375 74.21875 
Q 43.265625 74.21875 49.921875 64.515625 
Q 56.59375 54.828125 56.59375 36.375 
Q 56.59375 19.140625 48.40625 8.859375 
Q 40.234375 -1.421875 26.421875 -1.421875 
Q 22.703125 -1.421875 18.890625 -0.6875 
Q 15.09375 0.046875 10.984375 1.515625 
z
M 30.609375 32.421875 
Q 37.25 32.421875 41.125 36.953125 
Q 45.015625 41.5 45.015625 49.421875 
Q 45.015625 57.28125 41.125 61.84375 
Q 37.25 66.40625 30.609375 66.40625 
Q 23.96875 66.40625 20.09375 61.84375 
Q 16.21875 57.28125 16.21875 49.421875 
Q 16.21875 41.5 20.09375 36.953125 
Q 23.96875 32.421875 30.609375 32.421875 
z
" id="DejaVuSans-39"/>
    </defs>
    <g transform="translate(369.18424 37.551928)scale(0.17 -0.17)">
     <use xlink:href="#DejaVuSans-62"/>
     <use x="63.476562" xlink:href="#DejaVuSans-65"/>
     <use x="125" xlink:href="#DejaVuSans-73"/>
     <use x="177.099609" xlink:href="#DejaVuSans-74"/>
     <use x="216.308594" xlink:href="#DejaVuSans-20"/>
     <use x="248.095703" xlink:href="#DejaVuSans-32"/>
     <use x="311.71875" xlink:href="#DejaVuSans-30"/>
     <use x="375.341797" xlink:href="#DejaVuSans-30"/>
     <use x="438.964844" xlink:href="#DejaVuSans-39"/>
    </g>
   </g>
   <g id="text_17">
    <!-- bbob f19, 3-D -->
    <defs>
     <path d="M 40.578125 39.3125 
Q 47.65625 37.796875 51.625 33 
Q 55.609375 28.21875 55.609375 21.1875 
Q 55.609375 10.40625 48.1875 4.484375 
Q 40.765625 -1.421875 27.09375 -1.421875 
Q 22.515625 -1.421875 17.65625 -0.515625 
Q 12.796875 0.390625 7.625 2.203125 
L 7.625 11.71875 
Q 11.71875 9.328125 16.59375 8.109375 
Q 21.484375 6.890625 26.8125 6.890625 
Q 36.078125 6.890625 40.9375 10.546875 
Q 45.796875 14.203125 45.796875 21.1875 
Q 45.796875 27.640625 41.28125 31.265625 
Q 36.765625 34.90625 28.71875 34.90625 
L 20.21875 34.90625 
L 20.21875 43.015625 
L 29.109375 43.015625 
Q 36.375 43.015625 40.234375 45.921875 
Q 44.09375 48.828125 44.09375 54.296875 
Q 44.09375 59.90625 40.109375 62.90625 
Q 36.140625 65.921875 28.71875 65.921875 
Q 24.65625 65.921875 20.015625 65.03125 
Q 15.375 64.15625 9.8125 62.3125 
L 9.8125 71.09375 
Q 15.4375 72.65625 20.34375 73.4375 
Q 25.25 74.21875 29.59375 74.21875 
Q 40.828125 74.21875 47.359375 69.109375 
Q 53.90625 64.015625 53.90625 55.328125 
Q 53.90625 49.265625 50.4375 45.09375 
Q 46.96875 40.921875 40.578125 39.3125 
z
" id="DejaVuSans-33"/>
    </defs>
    <g transform="translate(58.89048 35.290806)scale(0.102 -0.102)">
     <use xlink:href="#DejaVuSans-62"/>
     <use x="63.476562" xlink:href="#DejaVuSans-62"/>
     <use x="126.953125" xlink:href="#DejaVuSans-6f"/>
     <use x="188.134766" xlink:href="#DejaVuSans-62"/>
     <use x="251.611328" xlink:href="#DejaVuSans-20"/>
     <use x="283.398438" xlink:href="#DejaVuSans-66"/>
     <use x="318.603516" xlink:href="#DejaVuSans-31"/>
     <use x="382.226562" xlink:href="#DejaVuSans-39"/>
     <use x="445.849609" xlink:href="#DejaVuSans-2c"/>
     <use x="477.636719" xlink:href="#DejaVuSans-20"/>
     <use x="509.423828" xlink:href="#DejaVuSans-33"/>
     <use x="573.046875" xlink:href="#DejaVuSans-2d"/>
     <use x="609.130859" xlink:href="#DejaVuSans-44"/>
    </g>
    <!-- 51 targets: 100..1e-08 -->
    <defs>
     <path d="M 10.796875 72.90625 
L 49.515625 72.90625 
L 49.515625 64.59375 
L 19.828125 64.59375 
L 19.828125 46.734375 
Q 21.96875 47.46875 24.109375 47.828125 
Q 26.265625 48.1875 28.421875 48.1875 
Q 40.625 48.1875 47.75 41.5 
Q 54.890625 34.8125 54.890625 23.390625 
Q 54.890625 11.625 47.5625 5.09375 
Q 40.234375 -1.421875 26.90625 -1.421875 
Q 22.3125 -1.421875 17.546875 -0.640625 
Q 12.796875 0.140625 7.71875 1.703125 
L 7.71875 11.625 
Q 12.109375 9.234375 16.796875 8.0625 
Q 21.484375 6.890625 26.703125 6.890625 
Q 35.15625 6.890625 40.078125 11.328125 
Q 45.015625 15.765625 45.015625 23.390625 
Q 45.015625 31 40.078125 35.4375 
Q 35.15625 39.890625 26.703125 39.890625 
Q 22.75 39.890625 18.8125 39.015625 
Q 14.890625 38.140625 10.796875 36.28125 
z
" id="DejaVuSans-35"/>
     <path d="M 11.71875 12.40625 
L 22.015625 12.40625 
L 22.015625 0 
L 11.71875 0 
z
M 11.71875 51.703125 
L 22.015625 51.703125 
L 22.015625 39.3125 
L 11.71875 39.3125 
z
" id="DejaVuSans-3a"/>
    </defs>
    <g transform="translate(58.89048 46.712575)scale(0.102 -0.102)">
     <use xlink:href="#DejaVuSans-35"/>
     <use x="63.623047" xlink:href="#DejaVuSans-31"/>
     <use x="127.246094" xlink:href="#DejaVuSans-20"/>
     <use x="159.033203" xlink:href="#DejaVuSans-74"/>
     <use x="198.242188" xlink:href="#DejaVuSans-61"/>
     <use x="259.521484" xlink:href="#DejaVuSans-72"/>
     <use x="300.619141" xlink:href="#DejaVuSans-67"/>
     <use x="364.095703" xlink:href="#DejaVuSans-65"/>
     <use x="425.619141" xlink:href="#DejaVuSans-74"/>
     <use x="464.828125" xlink:href="#DejaVuSans-73"/>
     <use x="516.927734" xlink:href="#DejaVuSans-3a"/>
     <use x="550.619141" xlink:href="#DejaVuSans-20"/>
     <use x="582.40625" xlink:href="#DejaVuSans-31"/>
     <use x="646.029297" xlink:href="#DejaVuSans-30"/>
     <use x="709.652344" xlink:href="#DejaVuSans-30"/>
     <use x="773.275391" xlink:href="#DejaVuSans-2e"/>
     <use x="805.0625" xlink:href="#DejaVuSans-2e"/>
     <use x="836.849609" xlink:href="#DejaVuSans-31"/>
     <use x="900.472656" xlink:href="#DejaVuSans-65"/>
     <use x="961.996094" xlink:href="#DejaVuSans-2d"/>
     <use x="998.080078" xlink:href="#DejaVuSans-30"/>
     <use x="1061.703125" xlink:href="#DejaVuSans-38"/>
    </g>
    <!-- 15 instances -->
    <g transform="translate(58.89048 58.134344)scale(0.102 -0.102)">
     <use xlink:href="#DejaVuSans-31"/>
     <use x="63.623047" xlink:href="#DejaVuSans-35"/>
     <use x="127.246094" xlink:href="#DejaVuSans-20"/>
     <use x="159.033203" xlink:href="#DejaVuSans-69"/>
     <use x="186.816406" xlink:href="#DejaVuSans-6e"/>
     <use x="250.195312" xlink:href="#DejaVuSans-73"/>
     <use x="302.294922" xlink:href="#DejaVuSans-74"/>
     <use x="341.503906" xlink:href="#DejaVuSans-61"/>
     <use x="402.783203" xlink:href="#DejaVuSans-6e"/>
     <use x="466.162109" xlink:href="#DejaVuSans-63"/>
     <use x="521.142578" xlink:href="#DejaVuSans-65"/>
     <use x="582.666016" xlink:href="#DejaVuSans-73"/>
    </g>
   </g>
   <g id="text_18">
    <!-- v2.4 -->
    <g style="fill:#808080;" transform="translate(183.733063 290.099912)scale(0.1 -0.1)">
     <use xlink:href="#DejaVuSans-76"/>
     <use x="59.179688" xlink:href="#DejaVuSans-32"/>
     <use x="122.802734" xlink:href="#DejaVuSans-2e"/>
     <use x="154.589844" xlink:href="#DejaVuSans-34"/>
    </g>
   </g>
   <g id="text_19">
    <!-- 19 Griewank-Rosenbrock F8F2 -->
    <defs>
     <path d="M 59.515625 10.40625 
L 59.515625 29.984375 
L 43.40625 29.984375 
L 43.40625 38.09375 
L 69.28125 38.09375 
L 69.28125 6.78125 
Q 63.578125 2.734375 56.6875 0.65625 
Q 49.8125 -1.421875 42 -1.421875 
Q 24.90625 -1.421875 15.25 8.5625 
Q 5.609375 18.5625 5.609375 36.375 
Q 5.609375 54.25 15.25 64.234375 
Q 24.90625 74.21875 42 74.21875 
Q 49.125 74.21875 55.546875 72.453125 
Q 61.96875 70.703125 67.390625 67.28125 
L 67.390625 56.78125 
Q 61.921875 61.421875 55.765625 63.765625 
Q 49.609375 66.109375 42.828125 66.109375 
Q 29.4375 66.109375 22.71875 58.640625 
Q 16.015625 51.171875 16.015625 36.375 
Q 16.015625 21.625 22.71875 14.15625 
Q 29.4375 6.6875 42.828125 6.6875 
Q 48.046875 6.6875 52.140625 7.59375 
Q 56.25 8.5 59.515625 10.40625 
z
" id="DejaVuSans-47"/>
     <path d="M 4.203125 54.6875 
L 13.1875 54.6875 
L 24.421875 12.015625 
L 35.59375 54.6875 
L 46.1875 54.6875 
L 57.421875 12.015625 
L 68.609375 54.6875 
L 77.59375 54.6875 
L 63.28125 0 
L 52.6875 0 
L 40.921875 44.828125 
L 29.109375 0 
L 18.5 0 
z
" id="DejaVuSans-77"/>
     <path d="M 9.078125 75.984375 
L 18.109375 75.984375 
L 18.109375 31.109375 
L 44.921875 54.6875 
L 56.390625 54.6875 
L 27.390625 29.109375 
L 57.625 0 
L 45.90625 0 
L 18.109375 26.703125 
L 18.109375 0 
L 9.078125 0 
z
" id="DejaVuSans-6b"/>
    </defs>
    <g transform="translate(41.876812 18.84)scale(0.2 -0.2)">
     <use xlink:href="#DejaVuSans-31"/>
     <use x="63.623047" xlink:href="#DejaVuSans-39"/>
     <use x="127.246094" xlink:href="#DejaVuSans-20"/>
     <use x="159.033203" xlink:href="#DejaVuSans-47"/>
     <use x="236.523438" xlink:href="#DejaVuSans-72"/>
     <use x="277.636719" xlink:href="#DejaVuSans-69"/>
     <use x="305.419922" xlink:href="#DejaVuSans-65"/>
     <use x="366.943359" xlink:href="#DejaVuSans-77"/>
     <use x="448.730469" xlink:href="#DejaVuSans-61"/>
     <use x="510.009766" xlink:href="#DejaVuSans-6e"/>
     <use x="573.388672" xlink:href="#DejaVuSans-6b"/>
     <use x="631.298828" xlink:href="#DejaVuSans-2d"/>
     <use x="667.382812" xlink:href="#DejaVuSans-52"/>
     <use x="736.802734" xlink:href="#DejaVuSans-6f"/>
     <use x="797.984375" xlink:href="#DejaVuSans-73"/>
     <use x="850.083984" xlink:href="#DejaVuSans-65"/>
     <use x="911.607422" xlink:href="#DejaVuSans-6e"/>
     <use x="974.986328" xlink:href="#DejaVuSans-62"/>
     <use x="1038.462891" xlink:href="#DejaVuSans-72"/>
     <use x="1079.544922" xlink:href="#DejaVuSans-6f"/>
     <use x="1140.726562" xlink:href="#DejaVuSans-63"/>
     <use x="1195.707031" xlink:href="#DejaVuSans-6b"/>
     <use x="1253.617188" xlink:href="#DejaVuSans-20"/>
     <use x="1285.404297" xlink:href="#DejaVuSans-46"/>
     <use x="1342.923828" xlink:href="#DejaVuSans-38"/>
     <use x="1406.546875" xlink:href="#DejaVuSans-46"/>
     <use x="1464.066406" xlink:href="#DejaVuSans-32"/>
    </g>
   </g>
  </g>
 </g>
 <defs>
  <clipPath id="pf0c2f309c1">
   <rect height="270.04" width="277.048" x="56.12" y="24.84"/>
  </clipPath>
 </defs>
</svg>
