<?xml version="1.0" encoding="utf-8" standalone="no"?>
<!DOCTYPE svg PUBLIC "-//W3C//DTD SVG 1.1//EN"
  "http://www.w3.org/Graphics/SVG/1.1/DTD/svg11.dtd">
<!-- Created with matplotlib (http://matplotlib.org/) -->
<svg height="345.6pt" version="1.1" viewBox="0 0 460.8 345.6" width="460.8pt" xmlns="http://www.w3.org/2000/svg" xmlns:xlink="http://www.w3.org/1999/xlink">
 <defs>
  <style type="text/css">
*{stroke-linecap:butt;stroke-linejoin:round;}
  </style>
 </defs>
 <g id="figure_1">
  <g id="patch_1">
   <path d="M 0 345.6 
L 460.8 345.6 
L 460.8 0 
L 0 0 
z
" style="fill:#ffffff;"/>
  </g>
  <g id="axes_1">
   <g id="patch_2">
    <path d="M 56.12 294.88 
L 333.168 294.88 
L 333.168 24.84 
L 56.12 24.84 
z
" style="fill:#ffffff;"/>
   </g>
   <g id="line2d_1">
    <path d="M 63.08939 294.88 
L 63.08939 284.395046 
L 71.869783 284.395046 
L 71.869783 273.910091 
L 83.784035 273.910091 
L 83.784035 268.667614 
L 88.293717 268.667614 
L 88.293717 263.425137 
L 89.567532 263.425137 
L 89.567532 258.18266 
L 91.862754 258.18266 
L 91.862754 252.940182 
L 94.816624 252.940182 
L 94.816624 247.697705 
L 95.698286 247.697705 
L 95.698286 242.455228 
L 98.100602 242.455228 
L 98.100602 237.212751 
L 103.777005 237.212751 
L 103.777005 231.970274 
L 105.317315 231.970274 
L 105.317315 221.485319 
L 107.177358 221.485319 
L 107.177358 216.242842 
L 108.036969 216.242842 
L 108.036969 211.000365 
L 108.451173 211.000365 
L 108.451173 205.757888 
L 110.384516 205.757888 
L 110.384516 200.515411 
L 111.100812 200.515411 
L 111.100812 195.272933 
L 112.122219 195.272933 
L 112.122219 190.030456 
L 112.770924 190.030456 
L 112.770924 184.787979 
L 114.293036 184.787979 
L 114.293036 179.545502 
L 114.866043 179.545502 
L 114.866043 174.303025 
L 115.420563 174.303025 
L 115.420563 169.060547 
L 115.957752 169.060547 
L 115.957752 163.81807 
L 116.478659 163.81807 
L 116.478659 158.575593 
L 116.984244 158.575593 
L 116.984244 153.333116 
L 117.952873 153.333116 
L 117.952873 148.090639 
L 118.645127 148.090639 
L 118.645127 142.848162 
L 119.09161 142.848162 
L 119.09161 137.605684 
L 119.526788 137.605684 
L 119.526788 132.363207 
L 120.365424 132.363207 
L 120.365424 127.12073 
L 120.769881 127.12073 
L 120.769881 121.878253 
L 121.359263 121.878253 
L 121.359263 116.635776 
L 121.741249 116.635776 
L 121.741249 111.393298 
L 122.480659 111.393298 
L 122.480659 106.150821 
L 122.660646 106.150821 
L 122.660646 100.908344 
L 123.36232 100.908344 
L 123.36232 95.665867 
L 123.870396 95.665867 
L 123.870396 90.42339 
L 124.363883 90.42339 
L 124.363883 85.180912 
L 124.52528 85.180912 
L 124.52528 79.938435 
L 125.000572 79.938435 
L 125.000572 74.695958 
L 125.310285 74.695958 
L 125.310285 69.453481 
L 126.207287 69.453481 
L 126.207287 64.211004 
L 126.638823 64.211004 
L 126.638823 58.968526 
L 127.05979 58.968526 
L 127.05979 53.726049 
L 127.197852 53.726049 
L 127.197852 48.483572 
L 127.334814 48.483572 
L 127.334814 43.241095 
L 127.872003 43.241095 
L 127.872003 37.998618 
L 128.264156 37.998618 
L 128.264156 32.756141 
L 128.647561 32.756141 
L 128.647561 27.513663 
L 333.168 27.513663 
" style="fill:none;stroke:#f5deb3;stroke-linecap:square;stroke-width:4;"/>
   </g>
   <g id="line2d_2">
    <defs>
     <path d="M -0 7.778175 
L 7.778175 0 
L 0 -7.778175 
L -7.778175 -0 
z
" id="m327b456905" style="stroke:#f5deb3;stroke-linejoin:miter;stroke-width:1.5;"/>
    </defs>
    <g>
     <use style="fill:#f5deb3;stroke:#f5deb3;stroke-linejoin:miter;stroke-width:1.5;" x="107.177358" xlink:href="#m327b456905" y="221.485319"/>
     <use style="fill:#f5deb3;stroke:#f5deb3;stroke-linejoin:miter;stroke-width:1.5;" x="121.741249" xlink:href="#m327b456905" y="111.393298"/>
     <use style="fill:#f5deb3;stroke:#f5deb3;stroke-linejoin:miter;stroke-width:1.5;" x="128.647561" xlink:href="#m327b456905" y="32.756141"/>
     <use style="fill:#f5deb3;stroke:#f5deb3;stroke-linejoin:miter;stroke-width:1.5;" x="128.647561" xlink:href="#m327b456905" y="27.513663"/>
     <use style="fill:#f5deb3;stroke:#f5deb3;stroke-linejoin:miter;stroke-width:1.5;" x="333.168" xlink:href="#m327b456905" y="27.513663"/>
    </g>
   </g>
   <g id="line2d_3">
    <path style="fill:none;stroke:#f5deb3;stroke-linecap:square;stroke-width:4;"/>
    <g/>
   </g>
   <g id="line2d_4">
    <path d="M 333.168 27.513663 
L 363.64328 32.86099 
" style="fill:none;stroke:#f5deb3;stroke-linecap:square;stroke-width:4;"/>
    <g>
     <use style="fill:#f5deb3;stroke:#f5deb3;stroke-linejoin:miter;stroke-width:1.5;" x="333.168" xlink:href="#m327b456905" y="27.513663"/>
     <use style="fill:#f5deb3;stroke:#f5deb3;stroke-linejoin:miter;stroke-width:1.5;" x="363.64328" xlink:href="#m327b456905" y="32.86099"/>
    </g>
   </g>
   <g id="matplotlib.axis_1">
    <g id="xtick_1">
     <g id="line2d_5">
      <path clip-path="url(#p0b853d5e4d)" d="M 56.12 294.88 
L 56.12 24.84 
" style="fill:none;stroke:#b0b0b0;stroke-linecap:square;stroke-width:0.8;"/>
     </g>
     <g id="line2d_6">
      <defs>
       <path d="M 0 0 
L 0 3.5 
" id="mb79414629b" style="stroke:#000000;stroke-width:0.8;"/>
      </defs>
      <g>
       <use style="stroke:#000000;stroke-width:0.8;" x="56.12" xlink:href="#mb79414629b" y="294.88"/>
      </g>
     </g>
     <g id="text_1">
      <!-- 0 -->
      <defs>
       <path d="M 31.78125 66.40625 
Q 24.171875 66.40625 20.328125 58.90625 
Q 16.5 51.421875 16.5 36.375 
Q 16.5 21.390625 20.328125 13.890625 
Q 24.171875 6.390625 31.78125 6.390625 
Q 39.453125 6.390625 43.28125 13.890625 
Q 47.125 21.390625 47.125 36.375 
Q 47.125 51.421875 43.28125 58.90625 
Q 39.453125 66.40625 31.78125 66.40625 
z
M 31.78125 74.21875 
Q 44.046875 74.21875 50.515625 64.515625 
Q 56.984375 54.828125 56.984375 36.375 
Q 56.984375 17.96875 50.515625 8.265625 
Q 44.046875 -1.421875 31.78125 -1.421875 
Q 19.53125 -1.421875 13.0625 8.265625 
Q 6.59375 17.96875 6.59375 36.375 
Q 6.59375 54.828125 13.0625 64.515625 
Q 19.53125 74.21875 31.78125 74.21875 
z
" id="DejaVuSans-30"/>
      </defs>
      <g transform="translate(49.7575 317.076875)scale(0.2 -0.2)">
       <use xlink:href="#DejaVuSans-30"/>
      </g>
     </g>
    </g>
    <g id="xtick_2">
     <g id="line2d_7">
      <path clip-path="url(#p0b853d5e4d)" d="M 135.276571 294.88 
L 135.276571 24.84 
" style="fill:none;stroke:#b0b0b0;stroke-linecap:square;stroke-width:0.8;"/>
     </g>
     <g id="line2d_8">
      <g>
       <use style="stroke:#000000;stroke-width:0.8;" x="135.276571" xlink:href="#mb79414629b" y="294.88"/>
      </g>
     </g>
     <g id="text_2">
      <!-- 2 -->
      <defs>
       <path d="M 19.1875 8.296875 
L 53.609375 8.296875 
L 53.609375 0 
L 7.328125 0 
L 7.328125 8.296875 
Q 12.9375 14.109375 22.625 23.890625 
Q 32.328125 33.6875 34.8125 36.53125 
Q 39.546875 41.84375 41.421875 45.53125 
Q 43.3125 49.21875 43.3125 52.78125 
Q 43.3125 58.59375 39.234375 62.25 
Q 35.15625 65.921875 28.609375 65.921875 
Q 23.96875 65.921875 18.8125 64.3125 
Q 13.671875 62.703125 7.8125 59.421875 
L 7.8125 69.390625 
Q 13.765625 71.78125 18.9375 73 
Q 24.125 74.21875 28.421875 74.21875 
Q 39.75 74.21875 46.484375 68.546875 
Q 53.21875 62.890625 53.21875 53.421875 
Q 53.21875 48.921875 51.53125 44.890625 
Q 49.859375 40.875 45.40625 35.40625 
Q 44.1875 33.984375 37.640625 27.21875 
Q 31.109375 20.453125 19.1875 8.296875 
z
" id="DejaVuSans-32"/>
      </defs>
      <g transform="translate(128.914071 317.076875)scale(0.2 -0.2)">
       <use xlink:href="#DejaVuSans-32"/>
      </g>
     </g>
    </g>
    <g id="xtick_3">
     <g id="line2d_9">
      <path clip-path="url(#p0b853d5e4d)" d="M 214.433143 294.88 
L 214.433143 24.84 
" style="fill:none;stroke:#b0b0b0;stroke-linecap:square;stroke-width:0.8;"/>
     </g>
     <g id="line2d_10">
      <g>
       <use style="stroke:#000000;stroke-width:0.8;" x="214.433143" xlink:href="#mb79414629b" y="294.88"/>
      </g>
     </g>
     <g id="text_3">
      <!-- 4 -->
      <defs>
       <path d="M 37.796875 64.3125 
L 12.890625 25.390625 
L 37.796875 25.390625 
z
M 35.203125 72.90625 
L 47.609375 72.90625 
L 47.609375 25.390625 
L 58.015625 25.390625 
L 58.015625 17.1875 
L 47.609375 17.1875 
L 47.609375 0 
L 37.796875 0 
L 37.796875 17.1875 
L 4.890625 17.1875 
L 4.890625 26.703125 
z
" id="DejaVuSans-34"/>
      </defs>
      <g transform="translate(208.070643 317.076875)scale(0.2 -0.2)">
       <use xlink:href="#DejaVuSans-34"/>
      </g>
     </g>
    </g>
    <g id="xtick_4">
     <g id="line2d_11">
      <path clip-path="url(#p0b853d5e4d)" d="M 293.589714 294.88 
L 293.589714 24.84 
" style="fill:none;stroke:#b0b0b0;stroke-linecap:square;stroke-width:0.8;"/>
     </g>
     <g id="line2d_12">
      <g>
       <use style="stroke:#000000;stroke-width:0.8;" x="293.589714" xlink:href="#mb79414629b" y="294.88"/>
      </g>
     </g>
     <g id="text_4">
      <!-- 6 -->
      <defs>
       <path d="M 33.015625 40.375 
Q 26.375 40.375 22.484375 35.828125 
Q 18.609375 31.296875 18.609375 23.390625 
Q 18.609375 15.53125 22.484375 10.953125 
Q 26.375 6.390625 33.015625 6.390625 
Q 39.65625 6.390625 43.53125 10.953125 
Q 47.40625 15.53125 47.40625 23.390625 
Q 47.40625 31.296875 43.53125 35.828125 
Q 39.65625 40.375 33.015625 40.375 
z
M 52.59375 71.296875 
L 52.59375 62.3125 
Q 48.875 64.0625 45.09375 64.984375 
Q 41.3125 65.921875 37.59375 65.921875 
Q 27.828125 65.921875 22.671875 59.328125 
Q 17.53125 52.734375 16.796875 39.40625 
Q 19.671875 43.65625 24.015625 45.921875 
Q 28.375 48.1875 33.59375 48.1875 
Q 44.578125 48.1875 50.953125 41.515625 
Q 57.328125 34.859375 57.328125 23.390625 
Q 57.328125 12.15625 50.6875 5.359375 
Q 44.046875 -1.421875 33.015625 -1.421875 
Q 20.359375 -1.421875 13.671875 8.265625 
Q 6.984375 17.96875 6.984375 36.375 
Q 6.984375 53.65625 15.1875 63.9375 
Q 23.390625 74.21875 37.203125 74.21875 
Q 40.921875 74.21875 44.703125 73.484375 
Q 48.484375 72.75 52.59375 71.296875 
z
" id="DejaVuSans-36"/>
      </defs>
      <g transform="translate(287.227214 317.076875)scale(0.2 -0.2)">
       <use xlink:href="#DejaVuSans-36"/>
      </g>
     </g>
    </g>
    <g id="xtick_5">
     <g id="line2d_13">
      <path clip-path="url(#p0b853d5e4d)" d="M 56.12 294.88 
L 56.12 24.84 
" style="fill:none;stroke:#b0b0b0;stroke-linecap:square;stroke-width:0.8;"/>
     </g>
     <g id="line2d_14">
      <defs>
       <path d="M 0 0 
L 0 2 
" id="mcfeedddc55" style="stroke:#000000;stroke-width:0.6;"/>
      </defs>
      <g>
       <use style="stroke:#000000;stroke-width:0.6;" x="56.12" xlink:href="#mcfeedddc55" y="294.88"/>
      </g>
     </g>
    </g>
    <g id="xtick_6">
     <g id="line2d_15">
      <path clip-path="url(#p0b853d5e4d)" d="M 95.698286 294.88 
L 95.698286 24.84 
" style="fill:none;stroke:#b0b0b0;stroke-linecap:square;stroke-width:0.8;"/>
     </g>
     <g id="line2d_16">
      <g>
       <use style="stroke:#000000;stroke-width:0.6;" x="95.698286" xlink:href="#mcfeedddc55" y="294.88"/>
      </g>
     </g>
    </g>
    <g id="xtick_7">
     <g id="line2d_17">
      <path clip-path="url(#p0b853d5e4d)" d="M 135.276571 294.88 
L 135.276571 24.84 
" style="fill:none;stroke:#b0b0b0;stroke-linecap:square;stroke-width:0.8;"/>
     </g>
     <g id="line2d_18">
      <g>
       <use style="stroke:#000000;stroke-width:0.6;" x="135.276571" xlink:href="#mcfeedddc55" y="294.88"/>
      </g>
     </g>
    </g>
    <g id="xtick_8">
     <g id="line2d_19">
      <path clip-path="url(#p0b853d5e4d)" d="M 174.854857 294.88 
L 174.854857 24.84 
" style="fill:none;stroke:#b0b0b0;stroke-linecap:square;stroke-width:0.8;"/>
     </g>
     <g id="line2d_20">
      <g>
       <use style="stroke:#000000;stroke-width:0.6;" x="174.854857" xlink:href="#mcfeedddc55" y="294.88"/>
      </g>
     </g>
    </g>
    <g id="xtick_9">
     <g id="line2d_21">
      <path clip-path="url(#p0b853d5e4d)" d="M 214.433143 294.88 
L 214.433143 24.84 
" style="fill:none;stroke:#b0b0b0;stroke-linecap:square;stroke-width:0.8;"/>
     </g>
     <g id="line2d_22">
      <g>
       <use style="stroke:#000000;stroke-width:0.6;" x="214.433143" xlink:href="#mcfeedddc55" y="294.88"/>
      </g>
     </g>
    </g>
    <g id="xtick_10">
     <g id="line2d_23">
      <path clip-path="url(#p0b853d5e4d)" d="M 254.011429 294.88 
L 254.011429 24.84 
" style="fill:none;stroke:#b0b0b0;stroke-linecap:square;stroke-width:0.8;"/>
     </g>
     <g id="line2d_24">
      <g>
       <use style="stroke:#000000;stroke-width:0.6;" x="254.011429" xlink:href="#mcfeedddc55" y="294.88"/>
      </g>
     </g>
    </g>
    <g id="xtick_11">
     <g id="line2d_25">
      <path clip-path="url(#p0b853d5e4d)" d="M 293.589714 294.88 
L 293.589714 24.84 
" style="fill:none;stroke:#b0b0b0;stroke-linecap:square;stroke-width:0.8;"/>
     </g>
     <g id="line2d_26">
      <g>
       <use style="stroke:#000000;stroke-width:0.6;" x="293.589714" xlink:href="#mcfeedddc55" y="294.88"/>
      </g>
     </g>
    </g>
    <g id="xtick_12">
     <g id="line2d_27">
      <path clip-path="url(#p0b853d5e4d)" d="M 333.168 294.88 
L 333.168 24.84 
" style="fill:none;stroke:#b0b0b0;stroke-linecap:square;stroke-width:0.8;"/>
     </g>
     <g id="line2d_28">
      <g>
       <use style="stroke:#000000;stroke-width:0.6;" x="333.168" xlink:href="#mcfeedddc55" y="294.88"/>
      </g>
     </g>
    </g>
    <g id="text_5">
     <!-- log10(# f-evals / dimension) -->
     <defs>
      <path d="M 9.421875 75.984375 
L 18.40625 75.984375 
L 18.40625 0 
L 9.421875 0 
z
" id="DejaVuSans-6c"/>
      <path d="M 30.609375 48.390625 
Q 23.390625 48.390625 19.1875 42.75 
Q 14.984375 37.109375 14.984375 27.296875 
Q 14.984375 17.484375 19.15625 11.84375 
Q 23.34375 6.203125 30.609375 6.203125 
Q 37.796875 6.203125 41.984375 11.859375 
Q 46.1875 17.53125 46.1875 27.296875 
Q 46.1875 37.015625 41.984375 42.703125 
Q 37.796875 48.390625 30.609375 48.390625 
z
M 30.609375 56 
Q 42.328125 56 49.015625 48.375 
Q 55.71875 40.765625 55.71875 27.296875 
Q 55.71875 13.875 49.015625 6.21875 
Q 42.328125 -1.421875 30.609375 -1.421875 
Q 18.84375 -1.421875 12.171875 6.21875 
Q 5.515625 13.875 5.515625 27.296875 
Q 5.515625 40.765625 12.171875 48.375 
Q 18.84375 56 30.609375 56 
z
" id="DejaVuSans-6f"/>
      <path d="M 45.40625 27.984375 
Q 45.40625 37.75 41.375 43.109375 
Q 37.359375 48.484375 30.078125 48.484375 
Q 22.859375 48.484375 18.828125 43.109375 
Q 14.796875 37.75 14.796875 27.984375 
Q 14.796875 18.265625 18.828125 12.890625 
Q 22.859375 7.515625 30.078125 7.515625 
Q 37.359375 7.515625 41.375 12.890625 
Q 45.40625 18.265625 45.40625 27.984375 
z
M 54.390625 6.78125 
Q 54.390625 -7.171875 48.1875 -13.984375 
Q 42 -20.796875 29.203125 -20.796875 
Q 24.46875 -20.796875 20.265625 -20.09375 
Q 16.0625 -19.390625 12.109375 -17.921875 
L 12.109375 -9.1875 
Q 16.0625 -11.328125 19.921875 -12.34375 
Q 23.78125 -13.375 27.78125 -13.375 
Q 36.625 -13.375 41.015625 -8.765625 
Q 45.40625 -4.15625 45.40625 5.171875 
L 45.40625 9.625 
Q 42.625 4.78125 38.28125 2.390625 
Q 33.9375 0 27.875 0 
Q 17.828125 0 11.671875 7.65625 
Q 5.515625 15.328125 5.515625 27.984375 
Q 5.515625 40.671875 11.671875 48.328125 
Q 17.828125 56 27.875 56 
Q 33.9375 56 38.28125 53.609375 
Q 42.625 51.21875 45.40625 46.390625 
L 45.40625 54.6875 
L 54.390625 54.6875 
z
" id="DejaVuSans-67"/>
      <path d="M 12.40625 8.296875 
L 28.515625 8.296875 
L 28.515625 63.921875 
L 10.984375 60.40625 
L 10.984375 69.390625 
L 28.421875 72.90625 
L 38.28125 72.90625 
L 38.28125 8.296875 
L 54.390625 8.296875 
L 54.390625 0 
L 12.40625 0 
z
" id="DejaVuSans-31"/>
      <path d="M 31 75.875 
Q 24.46875 64.65625 21.28125 53.65625 
Q 18.109375 42.671875 18.109375 31.390625 
Q 18.109375 20.125 21.3125 9.0625 
Q 24.515625 -2 31 -13.1875 
L 23.1875 -13.1875 
Q 15.875 -1.703125 12.234375 9.375 
Q 8.59375 20.453125 8.59375 31.390625 
Q 8.59375 42.28125 12.203125 53.3125 
Q 15.828125 64.359375 23.1875 75.875 
z
" id="DejaVuSans-28"/>
      <path d="M 51.125 44 
L 36.921875 44 
L 32.8125 27.6875 
L 47.125 27.6875 
z
M 43.796875 71.78125 
L 38.71875 51.515625 
L 52.984375 51.515625 
L 58.109375 71.78125 
L 65.921875 71.78125 
L 60.890625 51.515625 
L 76.125 51.515625 
L 76.125 44 
L 58.984375 44 
L 54.984375 27.6875 
L 70.515625 27.6875 
L 70.515625 20.21875 
L 53.078125 20.21875 
L 48 0 
L 40.1875 0 
L 45.21875 20.21875 
L 30.90625 20.21875 
L 25.875 0 
L 18.015625 0 
L 23.09375 20.21875 
L 7.71875 20.21875 
L 7.71875 27.6875 
L 24.90625 27.6875 
L 29 44 
L 13.28125 44 
L 13.28125 51.515625 
L 30.90625 51.515625 
L 35.890625 71.78125 
z
" id="DejaVuSans-23"/>
      <path id="DejaVuSans-20"/>
      <path d="M 37.109375 75.984375 
L 37.109375 68.5 
L 28.515625 68.5 
Q 23.6875 68.5 21.796875 66.546875 
Q 19.921875 64.59375 19.921875 59.515625 
L 19.921875 54.6875 
L 34.71875 54.6875 
L 34.71875 47.703125 
L 19.921875 47.703125 
L 19.921875 0 
L 10.890625 0 
L 10.890625 47.703125 
L 2.296875 47.703125 
L 2.296875 54.6875 
L 10.890625 54.6875 
L 10.890625 58.5 
Q 10.890625 67.625 15.140625 71.796875 
Q 19.390625 75.984375 28.609375 75.984375 
z
" id="DejaVuSans-66"/>
      <path d="M 4.890625 31.390625 
L 31.203125 31.390625 
L 31.203125 23.390625 
L 4.890625 23.390625 
z
" id="DejaVuSans-2d"/>
      <path d="M 56.203125 29.59375 
L 56.203125 25.203125 
L 14.890625 25.203125 
Q 15.484375 15.921875 20.484375 11.0625 
Q 25.484375 6.203125 34.421875 6.203125 
Q 39.59375 6.203125 44.453125 7.46875 
Q 49.3125 8.734375 54.109375 11.28125 
L 54.109375 2.78125 
Q 49.265625 0.734375 44.1875 -0.34375 
Q 39.109375 -1.421875 33.890625 -1.421875 
Q 20.796875 -1.421875 13.15625 6.1875 
Q 5.515625 13.8125 5.515625 26.8125 
Q 5.515625 40.234375 12.765625 48.109375 
Q 20.015625 56 32.328125 56 
Q 43.359375 56 49.78125 48.890625 
Q 56.203125 41.796875 56.203125 29.59375 
z
M 47.21875 32.234375 
Q 47.125 39.59375 43.09375 43.984375 
Q 39.0625 48.390625 32.421875 48.390625 
Q 24.90625 48.390625 20.390625 44.140625 
Q 15.875 39.890625 15.1875 32.171875 
z
" id="DejaVuSans-65"/>
      <path d="M 2.984375 54.6875 
L 12.5 54.6875 
L 29.59375 8.796875 
L 46.6875 54.6875 
L 56.203125 54.6875 
L 35.6875 0 
L 23.484375 0 
z
" id="DejaVuSans-76"/>
      <path d="M 34.28125 27.484375 
Q 23.390625 27.484375 19.1875 25 
Q 14.984375 22.515625 14.984375 16.5 
Q 14.984375 11.71875 18.140625 8.90625 
Q 21.296875 6.109375 26.703125 6.109375 
Q 34.1875 6.109375 38.703125 11.40625 
Q 43.21875 16.703125 43.21875 25.484375 
L 43.21875 27.484375 
z
M 52.203125 31.203125 
L 52.203125 0 
L 43.21875 0 
L 43.21875 8.296875 
Q 40.140625 3.328125 35.546875 0.953125 
Q 30.953125 -1.421875 24.3125 -1.421875 
Q 15.921875 -1.421875 10.953125 3.296875 
Q 6 8.015625 6 15.921875 
Q 6 25.140625 12.171875 29.828125 
Q 18.359375 34.515625 30.609375 34.515625 
L 43.21875 34.515625 
L 43.21875 35.40625 
Q 43.21875 41.609375 39.140625 45 
Q 35.0625 48.390625 27.6875 48.390625 
Q 23 48.390625 18.546875 47.265625 
Q 14.109375 46.140625 10.015625 43.890625 
L 10.015625 52.203125 
Q 14.9375 54.109375 19.578125 55.046875 
Q 24.21875 56 28.609375 56 
Q 40.484375 56 46.34375 49.84375 
Q 52.203125 43.703125 52.203125 31.203125 
z
" id="DejaVuSans-61"/>
      <path d="M 44.28125 53.078125 
L 44.28125 44.578125 
Q 40.484375 46.53125 36.375 47.5 
Q 32.28125 48.484375 27.875 48.484375 
Q 21.1875 48.484375 17.84375 46.4375 
Q 14.5 44.390625 14.5 40.28125 
Q 14.5 37.15625 16.890625 35.375 
Q 19.28125 33.59375 26.515625 31.984375 
L 29.59375 31.296875 
Q 39.15625 29.25 43.1875 25.515625 
Q 47.21875 21.78125 47.21875 15.09375 
Q 47.21875 7.46875 41.1875 3.015625 
Q 35.15625 -1.421875 24.609375 -1.421875 
Q 20.21875 -1.421875 15.453125 -0.5625 
Q 10.6875 0.296875 5.421875 2 
L 5.421875 11.28125 
Q 10.40625 8.6875 15.234375 7.390625 
Q 20.0625 6.109375 24.8125 6.109375 
Q 31.15625 6.109375 34.5625 8.28125 
Q 37.984375 10.453125 37.984375 14.40625 
Q 37.984375 18.0625 35.515625 20.015625 
Q 33.0625 21.96875 24.703125 23.78125 
L 21.578125 24.515625 
Q 13.234375 26.265625 9.515625 29.90625 
Q 5.8125 33.546875 5.8125 39.890625 
Q 5.8125 47.609375 11.28125 51.796875 
Q 16.75 56 26.8125 56 
Q 31.78125 56 36.171875 55.265625 
Q 40.578125 54.546875 44.28125 53.078125 
z
" id="DejaVuSans-73"/>
      <path d="M 25.390625 72.90625 
L 33.6875 72.90625 
L 8.296875 -9.28125 
L 0 -9.28125 
z
" id="DejaVuSans-2f"/>
      <path d="M 45.40625 46.390625 
L 45.40625 75.984375 
L 54.390625 75.984375 
L 54.390625 0 
L 45.40625 0 
L 45.40625 8.203125 
Q 42.578125 3.328125 38.25 0.953125 
Q 33.9375 -1.421875 27.875 -1.421875 
Q 17.96875 -1.421875 11.734375 6.484375 
Q 5.515625 14.40625 5.515625 27.296875 
Q 5.515625 40.1875 11.734375 48.09375 
Q 17.96875 56 27.875 56 
Q 33.9375 56 38.25 53.625 
Q 42.578125 51.265625 45.40625 46.390625 
z
M 14.796875 27.296875 
Q 14.796875 17.390625 18.875 11.75 
Q 22.953125 6.109375 30.078125 6.109375 
Q 37.203125 6.109375 41.296875 11.75 
Q 45.40625 17.390625 45.40625 27.296875 
Q 45.40625 37.203125 41.296875 42.84375 
Q 37.203125 48.484375 30.078125 48.484375 
Q 22.953125 48.484375 18.875 42.84375 
Q 14.796875 37.203125 14.796875 27.296875 
z
" id="DejaVuSans-64"/>
      <path d="M 9.421875 54.6875 
L 18.40625 54.6875 
L 18.40625 0 
L 9.421875 0 
z
M 9.421875 75.984375 
L 18.40625 75.984375 
L 18.40625 64.59375 
L 9.421875 64.59375 
z
" id="DejaVuSans-69"/>
      <path d="M 52 44.1875 
Q 55.375 50.25 60.0625 53.125 
Q 64.75 56 71.09375 56 
Q 79.640625 56 84.28125 50.015625 
Q 88.921875 44.046875 88.921875 33.015625 
L 88.921875 0 
L 79.890625 0 
L 79.890625 32.71875 
Q 79.890625 40.578125 77.09375 44.375 
Q 74.3125 48.1875 68.609375 48.1875 
Q 61.625 48.1875 57.5625 43.546875 
Q 53.515625 38.921875 53.515625 30.90625 
L 53.515625 0 
L 44.484375 0 
L 44.484375 32.71875 
Q 44.484375 40.625 41.703125 44.40625 
Q 38.921875 48.1875 33.109375 48.1875 
Q 26.21875 48.1875 22.15625 43.53125 
Q 18.109375 38.875 18.109375 30.90625 
L 18.109375 0 
L 9.078125 0 
L 9.078125 54.6875 
L 18.109375 54.6875 
L 18.109375 46.1875 
Q 21.1875 51.21875 25.484375 53.609375 
Q 29.78125 56 35.6875 56 
Q 41.65625 56 45.828125 52.96875 
Q 50 49.953125 52 44.1875 
z
" id="DejaVuSans-6d"/>
      <path d="M 54.890625 33.015625 
L 54.890625 0 
L 45.90625 0 
L 45.90625 32.71875 
Q 45.90625 40.484375 42.875 44.328125 
Q 39.84375 48.1875 33.796875 48.1875 
Q 26.515625 48.1875 22.3125 43.546875 
Q 18.109375 38.921875 18.109375 30.90625 
L 18.109375 0 
L 9.078125 0 
L 9.078125 54.6875 
L 18.109375 54.6875 
L 18.109375 46.1875 
Q 21.34375 51.125 25.703125 53.5625 
Q 30.078125 56 35.796875 56 
Q 45.21875 56 50.046875 50.171875 
Q 54.890625 44.34375 54.890625 33.015625 
z
" id="DejaVuSans-6e"/>
      <path d="M 8.015625 75.875 
L 15.828125 75.875 
Q 23.140625 64.359375 26.78125 53.3125 
Q 30.421875 42.28125 30.421875 31.390625 
Q 30.421875 20.453125 26.78125 9.375 
Q 23.140625 -1.703125 15.828125 -13.1875 
L 8.015625 -13.1875 
Q 14.5 -2 17.703125 9.0625 
Q 20.90625 20.125 20.90625 31.390625 
Q 20.90625 42.671875 17.703125 53.65625 
Q 14.5 64.65625 8.015625 75.875 
z
" id="DejaVuSans-29"/>
     </defs>
     <g transform="translate(73.803219 338.153594)scale(0.17 -0.17)">
      <use xlink:href="#DejaVuSans-6c"/>
      <use x="27.783203" xlink:href="#DejaVuSans-6f"/>
      <use x="88.964844" xlink:href="#DejaVuSans-67"/>
      <use x="152.441406" xlink:href="#DejaVuSans-31"/>
      <use x="216.064453" xlink:href="#DejaVuSans-30"/>
      <use x="279.6875" xlink:href="#DejaVuSans-28"/>
      <use x="318.701172" xlink:href="#DejaVuSans-23"/>
      <use x="402.490234" xlink:href="#DejaVuSans-20"/>
      <use x="434.277344" xlink:href="#DejaVuSans-66"/>
      <use x="469.404297" xlink:href="#DejaVuSans-2d"/>
      <use x="505.488281" xlink:href="#DejaVuSans-65"/>
      <use x="567.011719" xlink:href="#DejaVuSans-76"/>
      <use x="626.191406" xlink:href="#DejaVuSans-61"/>
      <use x="687.470703" xlink:href="#DejaVuSans-6c"/>
      <use x="715.253906" xlink:href="#DejaVuSans-73"/>
      <use x="767.353516" xlink:href="#DejaVuSans-20"/>
      <use x="799.140625" xlink:href="#DejaVuSans-2f"/>
      <use x="832.832031" xlink:href="#DejaVuSans-20"/>
      <use x="864.619141" xlink:href="#DejaVuSans-64"/>
      <use x="928.095703" xlink:href="#DejaVuSans-69"/>
      <use x="955.878906" xlink:href="#DejaVuSans-6d"/>
      <use x="1053.291016" xlink:href="#DejaVuSans-65"/>
      <use x="1114.814453" xlink:href="#DejaVuSans-6e"/>
      <use x="1178.193359" xlink:href="#DejaVuSans-73"/>
      <use x="1230.292969" xlink:href="#DejaVuSans-69"/>
      <use x="1258.076172" xlink:href="#DejaVuSans-6f"/>
      <use x="1319.257812" xlink:href="#DejaVuSans-6e"/>
      <use x="1382.636719" xlink:href="#DejaVuSans-29"/>
     </g>
    </g>
   </g>
   <g id="matplotlib.axis_2">
    <g id="ytick_1">
     <g id="line2d_29">
      <path clip-path="url(#p0b853d5e4d)" d="M 56.12 294.88 
L 333.168 294.88 
" style="fill:none;stroke:#b0b0b0;stroke-linecap:square;stroke-width:0.8;"/>
     </g>
     <g id="line2d_30">
      <defs>
       <path d="M 0 0 
L -3.5 0 
" id="mae27b75b7b" style="stroke:#000000;stroke-width:0.8;"/>
      </defs>
      <g>
       <use style="stroke:#000000;stroke-width:0.8;" x="56.12" xlink:href="#mae27b75b7b" y="294.88"/>
      </g>
     </g>
     <g id="text_6">
      <!-- 0.0 -->
      <defs>
       <path d="M 10.6875 12.40625 
L 21 12.40625 
L 21 0 
L 10.6875 0 
z
" id="DejaVuSans-2e"/>
      </defs>
      <g transform="translate(23.675 300.95875)scale(0.16 -0.16)">
       <use xlink:href="#DejaVuSans-30"/>
       <use x="63.623047" xlink:href="#DejaVuSans-2e"/>
       <use x="95.410156" xlink:href="#DejaVuSans-30"/>
      </g>
     </g>
    </g>
    <g id="ytick_2">
     <g id="line2d_31">
      <path clip-path="url(#p0b853d5e4d)" d="M 56.12 241.406733 
L 333.168 241.406733 
" style="fill:none;stroke:#b0b0b0;stroke-linecap:square;stroke-width:0.8;"/>
     </g>
     <g id="line2d_32">
      <g>
       <use style="stroke:#000000;stroke-width:0.8;" x="56.12" xlink:href="#mae27b75b7b" y="241.406733"/>
      </g>
     </g>
     <g id="text_7">
      <!-- 0.2 -->
      <g transform="translate(23.675 247.485483)scale(0.16 -0.16)">
       <use xlink:href="#DejaVuSans-30"/>
       <use x="63.623047" xlink:href="#DejaVuSans-2e"/>
       <use x="95.410156" xlink:href="#DejaVuSans-32"/>
      </g>
     </g>
    </g>
    <g id="ytick_3">
     <g id="line2d_33">
      <path clip-path="url(#p0b853d5e4d)" d="M 56.12 187.933465 
L 333.168 187.933465 
" style="fill:none;stroke:#b0b0b0;stroke-linecap:square;stroke-width:0.8;"/>
     </g>
     <g id="line2d_34">
      <g>
       <use style="stroke:#000000;stroke-width:0.8;" x="56.12" xlink:href="#mae27b75b7b" y="187.933465"/>
      </g>
     </g>
     <g id="text_8">
      <!-- 0.4 -->
      <g transform="translate(23.675 194.012215)scale(0.16 -0.16)">
       <use xlink:href="#DejaVuSans-30"/>
       <use x="63.623047" xlink:href="#DejaVuSans-2e"/>
       <use x="95.410156" xlink:href="#DejaVuSans-34"/>
      </g>
     </g>
    </g>
    <g id="ytick_4">
     <g id="line2d_35">
      <path clip-path="url(#p0b853d5e4d)" d="M 56.12 134.460198 
L 333.168 134.460198 
" style="fill:none;stroke:#b0b0b0;stroke-linecap:square;stroke-width:0.8;"/>
     </g>
     <g id="line2d_36">
      <g>
       <use style="stroke:#000000;stroke-width:0.8;" x="56.12" xlink:href="#mae27b75b7b" y="134.460198"/>
      </g>
     </g>
     <g id="text_9">
      <!-- 0.6 -->
      <g transform="translate(23.675 140.538948)scale(0.16 -0.16)">
       <use xlink:href="#DejaVuSans-30"/>
       <use x="63.623047" xlink:href="#DejaVuSans-2e"/>
       <use x="95.410156" xlink:href="#DejaVuSans-36"/>
      </g>
     </g>
    </g>
    <g id="ytick_5">
     <g id="line2d_37">
      <path clip-path="url(#p0b853d5e4d)" d="M 56.12 80.986931 
L 333.168 80.986931 
" style="fill:none;stroke:#b0b0b0;stroke-linecap:square;stroke-width:0.8;"/>
     </g>
     <g id="line2d_38">
      <g>
       <use style="stroke:#000000;stroke-width:0.8;" x="56.12" xlink:href="#mae27b75b7b" y="80.986931"/>
      </g>
     </g>
     <g id="text_10">
      <!-- 0.8 -->
      <defs>
       <path d="M 31.78125 34.625 
Q 24.75 34.625 20.71875 30.859375 
Q 16.703125 27.09375 16.703125 20.515625 
Q 16.703125 13.921875 20.71875 10.15625 
Q 24.75 6.390625 31.78125 6.390625 
Q 38.8125 6.390625 42.859375 10.171875 
Q 46.921875 13.96875 46.921875 20.515625 
Q 46.921875 27.09375 42.890625 30.859375 
Q 38.875 34.625 31.78125 34.625 
z
M 21.921875 38.8125 
Q 15.578125 40.375 12.03125 44.71875 
Q 8.5 49.078125 8.5 55.328125 
Q 8.5 64.0625 14.71875 69.140625 
Q 20.953125 74.21875 31.78125 74.21875 
Q 42.671875 74.21875 48.875 69.140625 
Q 55.078125 64.0625 55.078125 55.328125 
Q 55.078125 49.078125 51.53125 44.71875 
Q 48 40.375 41.703125 38.8125 
Q 48.828125 37.15625 52.796875 32.3125 
Q 56.78125 27.484375 56.78125 20.515625 
Q 56.78125 9.90625 50.3125 4.234375 
Q 43.84375 -1.421875 31.78125 -1.421875 
Q 19.734375 -1.421875 13.25 4.234375 
Q 6.78125 9.90625 6.78125 20.515625 
Q 6.78125 27.484375 10.78125 32.3125 
Q 14.796875 37.15625 21.921875 38.8125 
z
M 18.3125 54.390625 
Q 18.3125 48.734375 21.84375 45.5625 
Q 25.390625 42.390625 31.78125 42.390625 
Q 38.140625 42.390625 41.71875 45.5625 
Q 45.3125 48.734375 45.3125 54.390625 
Q 45.3125 60.0625 41.71875 63.234375 
Q 38.140625 66.40625 31.78125 66.40625 
Q 25.390625 66.40625 21.84375 63.234375 
Q 18.3125 60.0625 18.3125 54.390625 
z
" id="DejaVuSans-38"/>
      </defs>
      <g transform="translate(23.675 87.065681)scale(0.16 -0.16)">
       <use xlink:href="#DejaVuSans-30"/>
       <use x="63.623047" xlink:href="#DejaVuSans-2e"/>
       <use x="95.410156" xlink:href="#DejaVuSans-38"/>
      </g>
     </g>
    </g>
    <g id="ytick_6">
     <g id="line2d_39">
      <path clip-path="url(#p0b853d5e4d)" d="M 56.12 27.513663 
L 333.168 27.513663 
" style="fill:none;stroke:#b0b0b0;stroke-linecap:square;stroke-width:0.8;"/>
     </g>
     <g id="line2d_40">
      <g>
       <use style="stroke:#000000;stroke-width:0.8;" x="56.12" xlink:href="#mae27b75b7b" y="27.513663"/>
      </g>
     </g>
     <g id="text_11">
      <!-- 1.0 -->
      <g transform="translate(23.675 33.592413)scale(0.16 -0.16)">
       <use xlink:href="#DejaVuSans-31"/>
       <use x="63.623047" xlink:href="#DejaVuSans-2e"/>
       <use x="95.410156" xlink:href="#DejaVuSans-30"/>
      </g>
     </g>
    </g>
    <g id="text_12">
     <!-- Fraction of function,target pairs -->
     <defs>
      <path d="M 9.8125 72.90625 
L 51.703125 72.90625 
L 51.703125 64.59375 
L 19.671875 64.59375 
L 19.671875 43.109375 
L 48.578125 43.109375 
L 48.578125 34.8125 
L 19.671875 34.8125 
L 19.671875 0 
L 9.8125 0 
z
" id="DejaVuSans-46"/>
      <path d="M 41.109375 46.296875 
Q 39.59375 47.171875 37.8125 47.578125 
Q 36.03125 48 33.890625 48 
Q 26.265625 48 22.1875 43.046875 
Q 18.109375 38.09375 18.109375 28.8125 
L 18.109375 0 
L 9.078125 0 
L 9.078125 54.6875 
L 18.109375 54.6875 
L 18.109375 46.1875 
Q 20.953125 51.171875 25.484375 53.578125 
Q 30.03125 56 36.53125 56 
Q 37.453125 56 38.578125 55.875 
Q 39.703125 55.765625 41.0625 55.515625 
z
" id="DejaVuSans-72"/>
      <path d="M 48.78125 52.59375 
L 48.78125 44.1875 
Q 44.96875 46.296875 41.140625 47.34375 
Q 37.3125 48.390625 33.40625 48.390625 
Q 24.65625 48.390625 19.8125 42.84375 
Q 14.984375 37.3125 14.984375 27.296875 
Q 14.984375 17.28125 19.8125 11.734375 
Q 24.65625 6.203125 33.40625 6.203125 
Q 37.3125 6.203125 41.140625 7.25 
Q 44.96875 8.296875 48.78125 10.40625 
L 48.78125 2.09375 
Q 45.015625 0.34375 40.984375 -0.53125 
Q 36.96875 -1.421875 32.421875 -1.421875 
Q 20.0625 -1.421875 12.78125 6.34375 
Q 5.515625 14.109375 5.515625 27.296875 
Q 5.515625 40.671875 12.859375 48.328125 
Q 20.21875 56 33.015625 56 
Q 37.15625 56 41.109375 55.140625 
Q 45.0625 54.296875 48.78125 52.59375 
z
" id="DejaVuSans-63"/>
      <path d="M 18.3125 70.21875 
L 18.3125 54.6875 
L 36.8125 54.6875 
L 36.8125 47.703125 
L 18.3125 47.703125 
L 18.3125 18.015625 
Q 18.3125 11.328125 20.140625 9.421875 
Q 21.96875 7.515625 27.59375 7.515625 
L 36.8125 7.515625 
L 36.8125 0 
L 27.59375 0 
Q 17.1875 0 13.234375 3.875 
Q 9.28125 7.765625 9.28125 18.015625 
L 9.28125 47.703125 
L 2.6875 47.703125 
L 2.6875 54.6875 
L 9.28125 54.6875 
L 9.28125 70.21875 
z
" id="DejaVuSans-74"/>
      <path d="M 8.5 21.578125 
L 8.5 54.6875 
L 17.484375 54.6875 
L 17.484375 21.921875 
Q 17.484375 14.15625 20.5 10.265625 
Q 23.53125 6.390625 29.59375 6.390625 
Q 36.859375 6.390625 41.078125 11.03125 
Q 45.3125 15.671875 45.3125 23.6875 
L 45.3125 54.6875 
L 54.296875 54.6875 
L 54.296875 0 
L 45.3125 0 
L 45.3125 8.40625 
Q 42.046875 3.421875 37.71875 1 
Q 33.40625 -1.421875 27.6875 -1.421875 
Q 18.265625 -1.421875 13.375 4.4375 
Q 8.5 10.296875 8.5 21.578125 
z
M 31.109375 56 
z
" id="DejaVuSans-75"/>
      <path d="M 11.71875 12.40625 
L 22.015625 12.40625 
L 22.015625 4 
L 14.015625 -11.625 
L 7.71875 -11.625 
L 11.71875 4 
z
" id="DejaVuSans-2c"/>
      <path d="M 18.109375 8.203125 
L 18.109375 -20.796875 
L 9.078125 -20.796875 
L 9.078125 54.6875 
L 18.109375 54.6875 
L 18.109375 46.390625 
Q 20.953125 51.265625 25.265625 53.625 
Q 29.59375 56 35.59375 56 
Q 45.5625 56 51.78125 48.09375 
Q 58.015625 40.1875 58.015625 27.296875 
Q 58.015625 14.40625 51.78125 6.484375 
Q 45.5625 -1.421875 35.59375 -1.421875 
Q 29.59375 -1.421875 25.265625 0.953125 
Q 20.953125 3.328125 18.109375 8.203125 
z
M 48.6875 27.296875 
Q 48.6875 37.203125 44.609375 42.84375 
Q 40.53125 48.484375 33.40625 48.484375 
Q 26.265625 48.484375 22.1875 42.84375 
Q 18.109375 37.203125 18.109375 27.296875 
Q 18.109375 17.390625 22.1875 11.75 
Q 26.265625 6.109375 33.40625 6.109375 
Q 40.53125 6.109375 44.609375 11.75 
Q 48.6875 17.390625 48.6875 27.296875 
z
" id="DejaVuSans-70"/>
     </defs>
     <g transform="translate(16.139531 294.999375)rotate(-90)scale(0.17 -0.17)">
      <use xlink:href="#DejaVuSans-46"/>
      <use x="57.410156" xlink:href="#DejaVuSans-72"/>
      <use x="98.523438" xlink:href="#DejaVuSans-61"/>
      <use x="159.802734" xlink:href="#DejaVuSans-63"/>
      <use x="214.783203" xlink:href="#DejaVuSans-74"/>
      <use x="253.992188" xlink:href="#DejaVuSans-69"/>
      <use x="281.775391" xlink:href="#DejaVuSans-6f"/>
      <use x="342.957031" xlink:href="#DejaVuSans-6e"/>
      <use x="406.335938" xlink:href="#DejaVuSans-20"/>
      <use x="438.123047" xlink:href="#DejaVuSans-6f"/>
      <use x="499.304688" xlink:href="#DejaVuSans-66"/>
      <use x="534.509766" xlink:href="#DejaVuSans-20"/>
      <use x="566.296875" xlink:href="#DejaVuSans-66"/>
      <use x="601.501953" xlink:href="#DejaVuSans-75"/>
      <use x="664.880859" xlink:href="#DejaVuSans-6e"/>
      <use x="728.259766" xlink:href="#DejaVuSans-63"/>
      <use x="783.240234" xlink:href="#DejaVuSans-74"/>
      <use x="822.449219" xlink:href="#DejaVuSans-69"/>
      <use x="850.232422" xlink:href="#DejaVuSans-6f"/>
      <use x="911.414062" xlink:href="#DejaVuSans-6e"/>
      <use x="974.792969" xlink:href="#DejaVuSans-2c"/>
      <use x="1006.580078" xlink:href="#DejaVuSans-74"/>
      <use x="1045.789062" xlink:href="#DejaVuSans-61"/>
      <use x="1107.068359" xlink:href="#DejaVuSans-72"/>
      <use x="1148.166016" xlink:href="#DejaVuSans-67"/>
      <use x="1211.642578" xlink:href="#DejaVuSans-65"/>
      <use x="1273.166016" xlink:href="#DejaVuSans-74"/>
      <use x="1312.375" xlink:href="#DejaVuSans-20"/>
      <use x="1344.162109" xlink:href="#DejaVuSans-70"/>
      <use x="1407.638672" xlink:href="#DejaVuSans-61"/>
      <use x="1468.917969" xlink:href="#DejaVuSans-69"/>
      <use x="1496.701172" xlink:href="#DejaVuSans-72"/>
      <use x="1537.814453" xlink:href="#DejaVuSans-73"/>
     </g>
    </g>
   </g>
   <g id="line2d_41">
    <defs>
     <path d="M 0 1.5 
C 0.397805 1.5 0.77937 1.341951 1.06066 1.06066 
C 1.341951 0.77937 1.5 0.397805 1.5 0 
C 1.5 -0.397805 1.341951 -0.77937 1.06066 -1.06066 
C 0.77937 -1.341951 0.397805 -1.5 0 -1.5 
C -0.397805 -1.5 -0.77937 -1.341951 -1.06066 -1.06066 
C -1.341951 -0.77937 -1.5 -0.397805 -1.5 0 
C -1.5 0.397805 -1.341951 0.77937 -1.06066 1.06066 
C -0.77937 1.341951 -0.397805 1.5 0 1.5 
z
" id="mdb02affad6" style="stroke:#f5deb3;"/>
    </defs>
    <g>
     <use style="fill:#f5deb3;stroke:#f5deb3;" x="128.647561" xlink:href="#mdb02affad6" y="27.513663"/>
     <use style="fill:#f5deb3;stroke:#f5deb3;" x="128.647561" xlink:href="#mdb02affad6" y="27.513663"/>
    </g>
   </g>
   <g id="line2d_42">
    <defs>
     <path d="M 0 1.5 
C 0.397805 1.5 0.77937 1.341951 1.06066 1.06066 
C 1.341951 0.77937 1.5 0.397805 1.5 0 
C 1.5 -0.397805 1.341951 -0.77937 1.06066 -1.06066 
C 0.77937 -1.341951 0.397805 -1.5 0 -1.5 
C -0.397805 -1.5 -0.77937 -1.341951 -1.06066 -1.06066 
C -1.341951 -0.77937 -1.5 -0.397805 -1.5 0 
C -1.5 0.397805 -1.341951 0.77937 -1.06066 1.06066 
C -0.77937 1.341951 -0.397805 1.5 0 1.5 
z
" id="m21db6f5dee" style="stroke:#000080;"/>
    </defs>
    <g>
     <use style="fill:#000080;stroke:#000080;" x="163.811951" xlink:href="#m21db6f5dee" y="27.513663"/>
     <use style="fill:#000080;stroke:#000080;" x="163.811951" xlink:href="#m21db6f5dee" y="27.513663"/>
    </g>
   </g>
   <g id="line2d_43">
    <path d="M 44.205749 294.88 
L 44.205749 292.258761 
L 56.12 292.258761 
L 56.12 286.492036 
L 63.08939 286.492036 
L 63.08939 285.443541 
L 68.034251 285.443541 
L 68.034251 284.919293 
L 71.869783 284.919293 
L 71.869783 283.34655 
L 75.003641 283.34655 
L 75.003641 282.298055 
L 77.653281 282.298055 
L 77.653281 279.152568 
L 81.973032 279.152568 
L 81.973032 273.910091 
L 83.784035 273.910091 
L 83.784035 272.861596 
L 86.917893 272.861596 
L 86.917893 272.337348 
L 88.293717 272.337348 
L 88.293717 271.288853 
L 90.753425 271.288853 
L 90.753425 270.764605 
L 92.904808 270.764605 
L 92.904808 270.240357 
L 95.698286 270.240357 
L 95.698286 266.570623 
L 96.536922 266.570623 
L 96.536922 266.046375 
L 100.207968 266.046375 
L 100.207968 262.376641 
L 101.481783 262.376641 
L 101.481783 261.328146 
L 102.084955 261.328146 
L 102.084955 259.755403 
L 103.231288 259.755403 
L 103.231288 259.231155 
L 107.177358 259.231155 
L 107.177358 258.18266 
L 107.612537 258.18266 
L 107.612537 257.658412 
L 108.451173 257.658412 
L 108.451173 257.134164 
L 109.250788 257.134164 
L 109.250788 254.512926 
L 110.014853 254.512926 
L 110.014853 251.367439 
L 110.384516 251.367439 
L 110.384516 250.843192 
L 112.449632 250.843192 
L 112.449632 250.318944 
L 113.086321 250.318944 
L 113.086321 249.794696 
L 113.396034 249.794696 
L 113.396034 249.270448 
L 114.293036 249.270448 
L 114.293036 241.93098 
L 114.581927 241.93098 
L 114.581927 241.406733 
L 115.145539 241.406733 
L 115.145539 239.83399 
L 115.420563 239.83399 
L 115.420563 239.309742 
L 117.475381 239.309742 
L 117.475381 238.785494 
L 117.952873 238.785494 
L 117.952873 237.736999 
L 118.869818 237.736999 
L 118.869818 237.212751 
L 119.310576 237.212751 
L 119.310576 236.164255 
L 119.740314 236.164255 
L 119.740314 235.640008 
L 121.359263 235.640008 
L 121.359263 234.067265 
L 121.551317 234.067265 
L 121.551317 233.543017 
L 121.741249 233.543017 
L 121.741249 231.970274 
L 123.36232 231.970274 
L 123.36232 231.446026 
L 124.363883 231.446026 
L 124.363883 230.397531 
L 125.463074 230.397531 
L 125.463074 228.30054 
L 126.207287 228.30054 
L 126.207287 227.252044 
L 128.003717 227.252044 
L 128.003717 226.727797 
L 128.647561 226.727797 
L 128.647561 226.203549 
L 129.022601 226.203549 
L 129.022601 225.679301 
L 129.268157 225.679301 
L 129.268157 225.155053 
L 129.984454 225.155053 
L 129.984454 224.630806 
L 130.445921 224.630806 
L 130.445921 223.058063 
L 130.784069 223.058063 
L 130.784069 222.533815 
L 131.441039 222.533815 
L 131.441039 220.961072 
L 132.381685 220.961072 
L 132.381685 220.436824 
L 132.882847 220.436824 
L 132.98135 218.339833 
L 133.079291 218.339833 
L 133.079291 216.76709 
L 133.465568 216.76709 
L 133.465568 216.242842 
L 133.6555 216.242842 
L 133.6555 215.194347 
L 133.843356 215.194347 
L 133.843356 213.621604 
L 134.304205 213.621604 
L 134.39491 212.573108 
L 134.929315 212.573108 
L 134.929315 208.903374 
L 135.190413 208.903374 
L 135.190413 208.379126 
L 136.196864 208.379126 
L 136.196864 207.854879 
L 136.359022 207.854879 
L 136.359022 207.330631 
L 136.519665 207.330631 
L 136.519665 206.282136 
L 136.836515 206.282136 
L 136.914823 205.23364 
L 137.453213 205.23364 
L 137.453213 203.660897 
L 137.603992 203.660897 
L 137.603992 203.136649 
L 137.901638 203.136649 
L 137.901638 201.563906 
L 138.266591 201.563906 
L 138.33866 199.991163 
L 138.904592 199.991163 
L 138.904592 198.41842 
L 139.249066 198.41842 
L 139.249066 197.369924 
L 139.384945 197.369924 
L 139.384945 196.845677 
L 139.852237 196.845677 
L 139.852237 195.797181 
L 140.178407 195.797181 
L 140.178407 191.603199 
L 140.434959 191.603199 
L 140.434959 189.506209 
L 140.998571 189.506209 
L 140.998571 188.981961 
L 141.424506 188.981961 
L 141.424506 185.312227 
L 141.66324 185.312227 
L 141.66324 184.263731 
L 141.84014 184.263731 
L 141.84014 181.118245 
L 142.130987 181.118245 
L 142.130987 180.06975 
L 142.416994 180.06975 
L 142.473629 179.021254 
L 142.809574 179.021254 
L 142.809574 177.972759 
L 143.35529 177.972759 
L 143.35529 177.448511 
L 143.621786 177.448511 
L 143.674593 174.827272 
L 143.779723 174.827272 
L 143.779723 173.778777 
L 144.295937 173.778777 
L 144.295937 173.254529 
L 144.747635 173.254529 
L 144.747635 172.730281 
L 145.090928 172.730281 
L 145.090928 172.206034 
L 145.235981 172.206034 
L 145.235981 171.681786 
L 145.37982 171.681786 
L 145.475048 168.5363 
L 145.757607 168.5363 
L 145.757607 166.963557 
L 146.035596 166.963557 
L 146.081494 165.915061 
L 146.263868 165.915061 
L 146.354335 164.866566 
L 146.533852 164.866566 
L 146.57844 163.81807 
L 146.755644 163.81807 
L 146.755644 163.293823 
L 146.93104 163.293823 
L 146.974611 159.624089 
L 147.104664 159.624089 
L 147.104664 158.575593 
L 147.319256 158.575593 
L 147.319256 158.051345 
L 147.57328 158.051345 
L 147.57328 157.527098 
L 147.988485 157.527098 
L 148.029459 156.478602 
L 148.111115 156.478602 
L 148.192385 153.333116 
L 148.433916 153.333116 
L 148.433916 152.808868 
L 148.593071 152.808868 
L 148.593071 152.28462 
L 149.518243 152.28462 
L 149.593139 149.139134 
L 149.630465 149.139134 
L 149.630465 148.614886 
L 149.741959 148.614886 
L 149.852735 147.042143 
L 149.889502 147.042143 
L 149.999334 144.945152 
L 150.144693 144.945152 
L 150.252912 140.751171 
L 150.288834 140.751171 
L 150.324681 139.178427 
L 150.538207 139.178427 
L 150.573538 137.081437 
L 150.749113 137.081437 
L 150.818844 133.93595 
L 150.922912 133.93595 
L 150.957462 131.838959 
L 151.094972 131.838959 
L 151.094972 129.741969 
L 151.231391 129.741969 
L 151.332999 126.596482 
L 151.601053 126.596482 
L 151.667418 125.023739 
L 151.995456 125.023739 
L 151.995456 124.499491 
L 152.124937 124.499491 
L 152.124937 123.975244 
L 152.28543 123.975244 
L 152.381011 119.781262 
L 152.476064 119.781262 
L 152.476064 118.208519 
L 152.601988 118.208519 
L 152.601988 116.111528 
L 152.943598 116.111528 
L 152.943598 114.014537 
L 153.066156 114.014537 
L 153.066156 112.441794 
L 153.338757 112.441794 
L 153.36878 109.296308 
L 153.842163 109.296308 
L 153.90043 104.578078 
L 153.987461 104.578078 
L 154.016374 103.529583 
L 154.160213 103.529583 
L 154.160213 101.432592 
L 154.302858 101.432592 
L 154.359586 96.714362 
L 155.026111 96.714362 
L 155.05333 94.617371 
L 155.161776 94.617371 
L 155.161776 94.093124 
L 155.296378 94.093124 
L 155.296378 93.044628 
L 155.483068 93.044628 
L 155.562461 91.996133 
L 155.772401 91.996133 
L 155.798464 90.42339 
L 155.954019 90.42339 
L 155.954019 89.374894 
L 156.184742 89.374894 
L 156.2863 83.083922 
L 156.587422 83.083922 
L 156.612279 82.035426 
L 156.760671 82.035426 
L 156.760671 78.88994 
L 156.907793 78.88994 
L 156.907793 77.841444 
L 157.102017 77.841444 
L 157.126141 75.744454 
L 157.270181 75.744454 
L 157.317927 74.695958 
L 157.648488 74.695958 
L 157.695196 73.123215 
L 157.857683 73.123215 
L 157.926853 66.832242 
L 158.178119 66.832242 
L 158.178119 64.211004 
L 158.559357 64.211004 
L 158.559357 63.686756 
L 158.845291 63.686756 
L 158.845291 63.162508 
L 159.018915 63.162508 
L 159.126546 61.065517 
L 159.147992 61.065517 
L 159.25482 59.492774 
L 159.466505 59.492774 
L 159.550455 56.871536 
L 159.592276 56.871536 
L 159.592276 52.153306 
L 159.717134 52.153306 
L 159.717134 51.629058 
L 160.04572 51.629058 
L 160.106637 48.483572 
L 160.207687 48.483572 
L 160.227826 47.435077 
L 160.368142 47.435077 
L 160.368142 46.386581 
L 160.487508 46.386581 
L 160.58635 44.813838 
L 160.606051 44.813838 
L 160.665017 43.765343 
L 160.723782 43.765343 
L 160.723782 43.241095 
L 161.091363 43.241095 
L 161.186803 41.668352 
L 161.394923 41.668352 
L 161.488697 38.522865 
L 161.526063 38.522865 
L 161.526063 37.998618 
L 161.674723 37.998618 
L 161.674723 37.47437 
L 161.877052 37.47437 
L 161.95004 36.425875 
L 162.328224 36.425875 
L 162.363811 35.377379 
L 162.680823 35.377379 
L 162.680823 34.328884 
L 162.819862 34.328884 
L 162.819862 33.804636 
L 163.077568 33.804636 
L 163.128649 32.231893 
L 163.230357 32.231893 
L 163.264126 30.65915 
L 163.398544 30.65915 
L 163.398544 30.134902 
L 163.581669 30.134902 
L 163.68074 29.086407 
L 163.795604 29.086407 
L 163.811951 27.513663 
L 333.168 27.513663 
L 333.168 27.513663 
" style="fill:none;stroke:#000080;stroke-linecap:square;stroke-width:1.5;"/>
   </g>
   <g id="line2d_44">
    <defs>
     <path d="M 0 6 
C 1.591219 6 3.117479 5.367802 4.242641 4.242641 
C 5.367802 3.117479 6 1.591219 6 0 
C 6 -1.591219 5.367802 -3.117479 4.242641 -4.242641 
C 3.117479 -5.367802 1.591219 -6 0 -6 
C -1.591219 -6 -3.117479 -5.367802 -4.242641 -4.242641 
C -5.367802 -3.117479 -6 -1.591219 -6 0 
C -6 1.591219 -5.367802 3.117479 -4.242641 4.242641 
C -3.117479 5.367802 -1.591219 6 0 6 
z
" id="m869cd5e326" style="stroke:#000080;stroke-width:1.5;"/>
    </defs>
    <g>
     <use style="fill-opacity:0;stroke:#000080;stroke-width:1.5;" x="130.784069" xlink:href="#m869cd5e326" y="223.058063"/>
     <use style="fill-opacity:0;stroke:#000080;stroke-width:1.5;" x="156.612279" xlink:href="#m869cd5e326" y="82.035426"/>
     <use style="fill-opacity:0;stroke:#000080;stroke-width:1.5;" x="163.811951" xlink:href="#m869cd5e326" y="28.037911"/>
     <use style="fill-opacity:0;stroke:#000080;stroke-width:1.5;" x="163.811951" xlink:href="#m869cd5e326" y="27.513663"/>
     <use style="fill-opacity:0;stroke:#000080;stroke-width:1.5;" x="163.811951" xlink:href="#m869cd5e326" y="27.513663"/>
     <use style="fill-opacity:0;stroke:#000080;stroke-width:1.5;" x="333.168" xlink:href="#m869cd5e326" y="27.513663"/>
    </g>
   </g>
   <g id="line2d_45">
    <path style="fill:none;stroke:#000080;stroke-linecap:square;stroke-width:1.5;"/>
    <g/>
   </g>
   <g id="line2d_46">
    <defs>
     <path d="M 0 1.5 
C 0.397805 1.5 0.77937 1.341951 1.06066 1.06066 
C 1.341951 0.77937 1.5 0.397805 1.5 0 
C 1.5 -0.397805 1.341951 -0.77937 1.06066 -1.06066 
C 0.77937 -1.341951 0.397805 -1.5 0 -1.5 
C -0.397805 -1.5 -0.77937 -1.341951 -1.06066 -1.06066 
C -1.341951 -0.77937 -1.5 -0.397805 -1.5 0 
C -1.5 0.397805 -1.341951 0.77937 -1.06066 1.06066 
C -0.77937 1.341951 -0.397805 1.5 0 1.5 
z
" id="mcff9c8c85e" style="stroke:#ff00ff;"/>
    </defs>
    <g>
     <use style="fill:#ff00ff;stroke:#ff00ff;" x="168.760896" xlink:href="#mcff9c8c85e" y="27.513663"/>
     <use style="fill:#ff00ff;stroke:#ff00ff;" x="168.760896" xlink:href="#mcff9c8c85e" y="27.513663"/>
    </g>
   </g>
   <g id="line2d_47">
    <path d="M 44.205749 294.88 
L 44.205749 290.686018 
L 56.12 290.686018 
L 56.12 288.589027 
L 63.08939 288.589027 
L 63.08939 281.249559 
L 71.869783 281.249559 
L 71.869783 278.628321 
L 75.003641 278.628321 
L 75.003641 276.007082 
L 77.653281 276.007082 
L 77.653281 274.958587 
L 79.948502 274.958587 
L 79.948502 272.861596 
L 81.973032 272.861596 
L 81.973032 272.337348 
L 83.784035 272.337348 
L 83.784035 271.8131 
L 86.917893 271.8131 
L 86.917893 271.288853 
L 88.293717 271.288853 
L 88.293717 270.764605 
L 89.567532 270.764605 
L 89.567532 270.240357 
L 90.753425 270.240357 
L 90.753425 268.667614 
L 92.904808 268.667614 
L 92.904808 268.143366 
L 93.887283 268.143366 
L 93.887283 266.570623 
L 95.698286 266.570623 
L 95.698286 266.046375 
L 97.336537 266.046375 
L 97.336537 265.522128 
L 98.100602 265.522128 
L 98.100602 264.99788 
L 98.832144 264.99788 
L 98.832144 263.949385 
L 100.856673 263.949385 
L 100.856673 263.425137 
L 102.084955 263.425137 
L 102.084955 262.900889 
L 103.777005 262.900889 
L 103.777005 259.755403 
L 104.305927 259.755403 
L 104.305927 259.231155 
L 105.317315 259.231155 
L 105.317315 257.658412 
L 105.801534 257.658412 
L 105.801534 255.561421 
L 106.272485 255.561421 
L 106.272485 255.037173 
L 108.036969 255.037173 
L 108.036969 254.512926 
L 108.451173 254.512926 
L 108.451173 253.988678 
L 109.250788 253.988678 
L 109.250788 253.46443 
L 109.637066 253.46443 
L 109.637066 252.415935 
L 110.014853 252.415935 
L 110.014853 251.891687 
L 110.746395 251.891687 
L 110.746395 250.318944 
L 111.448069 250.318944 
L 111.448069 249.794696 
L 112.122219 249.794696 
L 112.122219 246.64921 
L 112.449632 246.64921 
L 112.449632 246.124962 
L 113.396034 246.124962 
L 113.396034 245.076467 
L 114.293036 245.076467 
L 114.293036 244.027971 
L 114.866043 244.027971 
L 114.866043 243.503724 
L 115.145539 243.503724 
L 115.145539 242.979476 
L 115.420563 242.979476 
L 115.420563 242.455228 
L 115.691256 242.455228 
L 115.691256 241.406733 
L 116.478659 241.406733 
L 116.478659 240.882485 
L 116.73331 240.882485 
L 116.73331 240.358237 
L 117.231566 240.358237 
L 117.231566 239.83399 
L 117.715785 239.83399 
L 117.715785 238.261246 
L 118.186736 238.261246 
L 118.186736 237.212751 
L 118.417459 237.212751 
L 118.417459 235.640008 
L 118.645127 235.640008 
L 118.645127 235.11576 
L 119.09161 235.11576 
L 119.09161 234.067265 
L 119.526788 234.067265 
L 119.526788 233.018769 
L 120.15957 233.018769 
L 120.15957 231.970274 
L 120.769881 231.970274 
L 120.769881 229.349035 
L 121.359263 229.349035 
L 121.359263 228.30054 
L 121.551317 228.30054 
L 121.551317 227.776292 
L 121.929105 227.776292 
L 121.929105 226.727797 
L 122.298767 226.727797 
L 122.298767 226.203549 
L 122.838768 226.203549 
L 122.838768 225.679301 
L 123.015063 225.679301 
L 123.015063 224.630806 
L 123.189569 224.630806 
L 123.189569 223.58231 
L 123.36232 223.58231 
L 123.36232 223.058063 
L 123.870396 223.058063 
L 123.870396 222.533815 
L 124.036471 222.533815 
L 124.036471 222.009567 
L 124.363883 222.009567 
L 124.363883 221.485319 
L 124.52528 221.485319 
L 124.52528 220.961072 
L 124.843597 220.961072 
L 124.843597 219.388328 
L 125.156126 219.388328 
L 125.156126 218.864081 
L 125.463074 218.864081 
L 125.463074 218.339833 
L 125.913457 218.339833 
L 125.913457 217.815585 
L 126.061 217.815585 
L 126.061 216.242842 
L 126.207287 216.242842 
L 126.207287 214.145851 
L 126.92061 214.145851 
L 126.92061 213.621604 
L 127.197852 213.621604 
L 127.197852 213.097356 
L 127.605507 213.097356 
L 127.605507 212.573108 
L 127.739271 212.573108 
L 127.739271 211.524613 
L 128.003717 211.524613 
L 128.003717 211.000365 
L 128.264156 211.000365 
L 128.264156 209.95187 
L 129.145817 209.95187 
L 129.145817 209.427622 
L 129.389632 209.427622 
L 129.389632 208.903374 
L 129.510254 208.903374 
L 129.510254 207.854879 
L 129.630036 207.854879 
L 129.630036 206.806383 
L 129.984454 206.806383 
L 129.984454 205.757888 
L 130.784069 205.757888 
L 130.784069 204.185145 
L 130.895323 204.185145 
L 131.005861 200.515411 
L 131.224827 200.515411 
L 131.224827 199.991163 
L 131.441039 199.991163 
L 131.441039 199.466915 
L 131.654565 199.466915 
L 131.654565 198.942667 
L 131.969962 198.942667 
L 131.969962 197.369924 
L 132.279675 197.369924 
L 132.381685 193.175943 
L 132.583907 193.175943 
L 132.583907 192.127447 
L 132.882847 192.127447 
L 132.882847 191.603199 
L 133.465568 191.603199 
L 133.465568 190.554704 
L 133.749684 190.554704 
L 133.843356 189.506209 
L 133.936519 189.506209 
L 133.936519 188.981961 
L 134.39491 188.981961 
L 134.39491 188.457713 
L 134.574897 188.457713 
L 134.574897 186.88497 
L 134.841393 186.88497 
L 134.929315 183.739484 
L 135.616951 183.739484 
L 135.701004 180.593997 
L 135.784647 180.593997 
L 135.784647 179.545502 
L 136.033161 179.545502 
L 136.115208 177.972759 
L 136.278134 177.972759 
L 136.278134 176.400016 
L 136.439531 176.400016 
L 136.439531 175.35152 
L 136.67882 175.35152 
L 136.757848 173.778777 
L 136.836515 173.778777 
L 136.836515 172.730281 
L 137.14763 172.730281 
L 137.224536 169.584795 
L 137.301101 169.584795 
L 137.377325 167.487804 
L 137.453213 167.487804 
L 137.453213 165.915061 
L 137.827708 165.915061 
L 137.901638 163.293823 
L 137.975251 163.293823 
L 137.975251 162.769575 
L 138.121538 162.769575 
L 138.194217 161.721079 
L 138.33866 161.721079 
L 138.410429 158.575593 
L 138.553074 158.575593 
L 138.553074 157.00285 
L 138.764847 157.00285 
L 138.834862 154.905859 
L 138.904592 154.905859 
L 138.974042 153.333116 
L 139.043211 153.333116 
L 139.112104 150.18763 
L 139.180721 150.18763 
L 139.249066 147.042143 
L 139.452484 147.042143 
L 139.519758 145.4694 
L 139.653523 145.4694 
L 139.653523 144.945152 
L 140.113666 144.945152 
L 140.113666 143.896657 
L 140.307161 143.896657 
L 140.307161 142.323914 
L 140.687737 142.323914 
L 140.687737 140.226923 
L 140.812746 140.226923 
L 140.874911 137.081437 
L 140.998571 137.081437 
L 140.998571 134.460198 
L 141.303883 134.460198 
L 141.303883 133.93595 
L 141.484501 133.93595 
L 141.544287 132.887455 
L 142.130987 132.887455 
L 142.130987 132.363207 
L 142.473629 132.363207 
L 142.473629 131.838959 
L 142.586342 131.838959 
L 142.586342 129.217721 
L 142.754037 129.217721 
L 142.754037 128.693473 
L 143.35529 128.693473 
L 143.408921 127.644978 
L 143.515683 127.644978 
L 143.621786 125.023739 
L 143.674593 125.023739 
L 143.674593 123.450996 
L 144.142694 123.450996 
L 144.193927 121.878253 
L 144.598384 121.878253 
L 144.598384 120.30551 
L 144.797098 120.30551 
L 144.797098 119.781262 
L 144.944641 119.781262 
L 144.993542 118.732766 
L 145.235981 118.732766 
L 145.332007 116.111528 
L 145.4275 116.111528 
L 145.475048 113.490289 
L 145.569751 113.490289 
L 145.569751 112.966042 
L 146.035596 112.966042 
L 146.127269 111.393298 
L 146.263868 111.393298 
L 146.263868 110.869051 
L 146.799661 110.869051 
L 146.887358 109.296308 
L 147.061422 109.296308 
L 147.061422 108.77206 
L 147.190823 108.77206 
L 147.190823 108.247812 
L 147.864973 108.247812 
L 147.864973 107.723564 
L 147.988485 107.723564 
L 147.988485 107.199317 
L 148.111115 107.199317 
L 148.111115 105.102326 
L 148.313575 105.102326 
L 148.313575 104.578078 
L 148.55342 104.578078 
L 148.55342 104.05383 
L 148.829074 104.05383 
L 148.907027 103.005335 
L 148.984628 103.005335 
L 148.984628 102.481087 
L 149.100377 102.481087 
L 149.100377 101.956839 
L 149.291576 101.956839 
L 149.329562 99.859849 
L 149.405283 99.859849 
L 149.405283 99.335601 
L 149.518243 99.335601 
L 149.593139 97.762858 
L 149.66771 97.762858 
L 149.66771 95.665867 
L 149.852735 95.665867 
L 149.852735 95.141619 
L 150.144693 95.141619 
L 150.144693 94.093124 
L 150.396151 94.093124 
L 150.431775 92.520381 
L 150.573538 92.520381 
L 150.573538 90.42339 
L 150.714141 90.42339 
L 150.818844 89.374894 
L 150.957462 89.374894 
L 151.060698 84.656665 
L 151.400405 84.656665 
L 151.434009 83.083922 
L 151.567774 83.083922 
L 151.667418 80.986931 
L 151.733528 80.986931 
L 151.832219 78.88994 
L 152.221413 78.88994 
L 152.28543 77.317197 
L 152.539141 77.317197 
L 152.539141 76.792949 
L 152.69583 76.792949 
L 152.69583 76.268701 
L 152.820161 76.268701 
L 152.820161 75.744454 
L 152.97432 75.744454 
L 153.035598 74.695958 
L 153.157504 74.695958 
L 153.218134 73.647463 
L 153.338757 73.647463 
L 153.36878 72.598967 
L 153.636661 72.598967 
L 153.636661 71.550472 
L 153.987461 71.550472 
L 153.987461 70.501976 
L 154.245942 70.501976 
L 154.245942 69.977729 
L 154.416128 69.977729 
L 154.444329 68.404985 
L 154.556673 68.404985 
L 154.556673 66.832242 
L 155.588844 66.832242 
L 155.667752 64.735251 
L 155.902323 64.735251 
L 155.902323 63.162508 
L 156.08258 63.162508 
L 156.08258 62.114013 
L 156.387261 62.114013 
L 156.387261 61.589765 
L 156.88336 61.589765 
L 156.88336 61.065517 
L 157.077859 61.065517 
L 157.126141 60.017022 
L 157.198312 60.017022 
L 157.294071 57.395783 
L 157.389299 57.395783 
L 157.484002 56.347288 
L 157.972811 56.347288 
L 158.018648 55.298792 
L 158.155428 55.298792 
L 158.155428 54.774545 
L 158.757817 54.774545 
L 158.845291 53.726049 
L 159.018915 53.726049 
L 159.018915 53.201802 
L 159.360989 53.201802 
L 159.360989 52.677554 
L 159.923235 52.677554 
L 160.004989 51.629058 
L 160.207687 51.629058 
L 160.207687 51.104811 
L 160.879512 51.104811 
L 160.879512 50.056315 
L 161.526063 50.056315 
L 161.526063 49.532068 
L 161.766986 49.532068 
L 161.877052 47.435077 
L 162.095093 47.435077 
L 162.095093 46.910829 
L 162.221018 46.910829 
L 162.292562 45.338086 
L 162.346026 45.338086 
L 162.346026 44.813838 
L 162.680823 44.813838 
L 162.767854 43.765343 
L 162.906194 43.765343 
L 162.923409 42.192599 
L 163.026335 42.192599 
L 163.026335 41.668352 
L 163.942169 41.668352 
L 163.942169 41.144104 
L 164.055305 41.144104 
L 164.055305 40.619856 
L 164.980407 40.619856 
L 164.980407 40.095609 
L 165.237976 40.095609 
L 165.268026 37.998618 
L 165.447232 37.998618 
L 165.476919 35.377379 
L 166.117382 35.377379 
L 166.160193 33.280388 
L 166.386735 33.280388 
L 166.386735 32.756141 
L 166.885795 32.756141 
L 166.885795 31.183397 
L 167.66055 31.183397 
L 167.66055 30.65915 
L 168.376846 30.65915 
L 168.46432 29.086407 
L 168.613248 29.086407 
L 168.674922 28.037911 
L 168.760896 28.037911 
L 168.760896 27.513663 
L 333.168 27.513663 
L 333.168 27.513663 
" style="fill:none;stroke:#ff00ff;stroke-linecap:square;stroke-width:1.5;"/>
   </g>
   <g id="line2d_48">
    <defs>
     <path d="M -0 8.485281 
L 5.091169 0 
L 0 -8.485281 
L -5.091169 -0 
z
" id="m1d1caf8e09" style="stroke:#ff00ff;stroke-linejoin:miter;stroke-width:1.5;"/>
    </defs>
    <g>
     <use style="fill-opacity:0;stroke:#ff00ff;stroke-linejoin:miter;stroke-width:1.5;" x="90.753425" xlink:href="#m1d1caf8e09" y="268.667614"/>
     <use style="fill-opacity:0;stroke:#ff00ff;stroke-linejoin:miter;stroke-width:1.5;" x="143.408921" xlink:href="#m1d1caf8e09" y="127.644978"/>
     <use style="fill-opacity:0;stroke:#ff00ff;stroke-linejoin:miter;stroke-width:1.5;" x="168.760896" xlink:href="#m1d1caf8e09" y="28.037911"/>
     <use style="fill-opacity:0;stroke:#ff00ff;stroke-linejoin:miter;stroke-width:1.5;" x="168.760896" xlink:href="#m1d1caf8e09" y="27.513663"/>
     <use style="fill-opacity:0;stroke:#ff00ff;stroke-linejoin:miter;stroke-width:1.5;" x="168.760896" xlink:href="#m1d1caf8e09" y="27.513663"/>
     <use style="fill-opacity:0;stroke:#ff00ff;stroke-linejoin:miter;stroke-width:1.5;" x="333.168" xlink:href="#m1d1caf8e09" y="27.513663"/>
    </g>
   </g>
   <g id="line2d_49">
    <path style="fill:none;stroke:#ff00ff;stroke-linecap:square;stroke-width:1.5;"/>
    <g/>
   </g>
   <g id="line2d_50">
    <defs>
     <path d="M 0 1.5 
C 0.397805 1.5 0.77937 1.341951 1.06066 1.06066 
C 1.341951 0.77937 1.5 0.397805 1.5 0 
C 1.5 -0.397805 1.341951 -0.77937 1.06066 -1.06066 
C 0.77937 -1.341951 0.397805 -1.5 0 -1.5 
C -0.397805 -1.5 -0.77937 -1.341951 -1.06066 -1.06066 
C -1.341951 -0.77937 -1.5 -0.397805 -1.5 0 
C -1.5 0.397805 -1.341951 0.77937 -1.06066 1.06066 
C -0.77937 1.341951 -0.397805 1.5 0 1.5 
z
" id="m29b5afccd6" style="stroke:#ff7500;"/>
    </defs>
    <g>
     <use style="fill:#ff7500;stroke:#ff7500;" x="166.344485" xlink:href="#m29b5afccd6" y="27.513663"/>
     <use style="fill:#ff7500;stroke:#ff7500;" x="166.344485" xlink:href="#m29b5afccd6" y="27.513663"/>
    </g>
   </g>
   <g id="line2d_51">
    <path d="M 44.205749 294.88 
L 44.205749 293.307257 
L 56.12 293.307257 
L 56.12 291.734514 
L 63.08939 291.734514 
L 63.08939 289.637523 
L 68.034251 289.637523 
L 68.034251 287.016284 
L 71.869783 287.016284 
L 71.869783 284.395046 
L 75.003641 284.395046 
L 75.003641 282.822302 
L 77.653281 282.822302 
L 77.653281 278.104073 
L 81.973032 278.104073 
L 81.973032 273.385844 
L 83.784035 273.385844 
L 83.784035 268.667614 
L 86.917893 268.667614 
L 86.917893 264.473632 
L 91.862754 264.473632 
L 91.862754 262.900889 
L 95.698286 262.900889 
L 95.698286 262.376641 
L 97.336537 262.376641 
L 97.336537 259.755403 
L 98.832144 259.755403 
L 98.832144 258.18266 
L 99.533818 258.18266 
L 99.533818 257.658412 
L 100.856673 257.658412 
L 100.856673 257.134164 
L 102.084955 257.134164 
L 102.084955 255.561421 
L 103.231288 255.561421 
L 103.231288 255.037173 
L 104.819059 255.037173 
L 104.819059 254.512926 
L 106.272485 254.512926 
L 106.272485 253.46443 
L 106.730875 253.46443 
L 106.730875 251.891687 
L 107.177358 251.891687 
L 107.177358 250.843192 
L 108.036969 250.843192 
L 108.036969 248.746201 
L 110.746395 248.746201 
L 110.746395 248.221953 
L 111.100812 248.221953 
L 111.100812 247.173458 
L 111.448069 247.173458 
L 111.448069 246.64921 
L 112.449632 246.64921 
L 112.449632 246.124962 
L 113.396034 246.124962 
L 113.396034 245.600714 
L 113.700266 245.600714 
L 113.700266 245.076467 
L 113.999206 245.076467 
L 113.999206 244.027971 
L 115.957752 244.027971 
L 115.957752 242.455228 
L 116.73331 242.455228 
L 116.73331 241.93098 
L 117.952873 241.93098 
L 117.952873 240.358237 
L 118.186736 240.358237 
L 118.186736 239.309742 
L 118.417459 239.309742 
L 118.417459 238.261246 
L 118.869818 238.261246 
L 118.869818 236.688503 
L 119.95122 236.688503 
L 119.95122 235.640008 
L 120.15957 235.640008 
L 120.15957 235.11576 
L 120.568842 235.11576 
L 120.568842 234.591512 
L 121.16504 234.591512 
L 121.16504 233.018769 
L 121.741249 233.018769 
L 121.741249 231.970274 
L 122.114929 231.970274 
L 122.114929 230.397531 
L 122.838768 230.397531 
L 122.838768 229.873283 
L 123.533353 229.873283 
L 123.533353 228.824787 
L 123.7027 228.824787 
L 123.7027 228.30054 
L 124.036471 228.30054 
L 124.036471 227.776292 
L 124.52528 227.776292 
L 124.52528 227.252044 
L 124.685175 227.252044 
L 124.685175 225.679301 
L 126.352339 225.679301 
L 126.352339 224.106558 
L 126.638823 224.106558 
L 126.638823 220.961072 
L 126.92061 220.961072 
L 126.92061 220.436824 
L 127.872003 220.436824 
L 127.872003 219.388328 
L 128.264156 219.388328 
L 128.264156 217.815585 
L 128.520707 217.815585 
L 128.520707 215.718594 
L 128.773486 215.718594 
L 128.773486 215.194347 
L 129.145817 215.194347 
L 129.145817 214.670099 
L 129.268157 214.670099 
L 129.268157 213.097356 
L 130.784069 213.097356 
L 130.784069 212.573108 
L 130.895323 212.573108 
L 130.895323 212.04886 
L 131.548134 212.04886 
L 131.548134 211.524613 
L 131.760342 211.524613 
L 131.760342 211.000365 
L 131.969962 211.000365 
L 132.073821 209.95187 
L 132.381685 209.95187 
L 132.483094 208.379126 
L 132.583907 208.379126 
L 132.583907 207.330631 
L 132.882847 207.330631 
L 132.98135 206.282136 
L 133.176677 206.282136 
L 133.176677 205.23364 
L 133.843356 205.23364 
L 133.843356 204.709392 
L 134.121345 204.709392 
L 134.121345 203.660897 
L 134.304205 203.660897 
L 134.39491 202.612401 
L 134.664189 202.612401 
L 134.753019 199.466915 
L 134.929315 199.466915 
L 134.929315 198.942667 
L 135.447604 198.942667 
L 135.447604 197.894172 
L 136.196864 197.894172 
L 136.196864 197.369924 
L 136.359022 197.369924 
L 136.359022 196.321429 
L 136.519665 196.321429 
L 136.599426 194.224438 
L 136.757848 194.224438 
L 136.757848 193.70019 
L 136.914823 193.70019 
L 136.992776 192.651695 
L 137.301101 192.651695 
L 137.377325 191.078952 
L 137.453213 191.078952 
L 137.528768 189.506209 
L 138.04855 189.506209 
L 138.04855 186.360722 
L 138.194217 186.360722 
L 138.266591 185.312227 
L 138.4819 185.312227 
L 138.553074 181.642493 
L 138.623956 181.642493 
L 138.623956 180.593997 
L 139.249066 180.593997 
L 139.249066 180.06975 
L 139.384945 180.06975 
L 139.384945 177.448511 
L 139.720016 177.448511 
L 139.720016 176.400016 
L 140.371179 176.400016 
L 140.371179 175.875768 
L 140.561812 175.875768 
L 140.561812 175.35152 
L 140.687737 175.35152 
L 140.750355 173.778777 
L 140.874911 173.778777 
L 140.874911 171.157538 
L 141.182408 171.157538 
L 141.243253 169.060547 
L 141.303883 169.060547 
L 141.3643 166.963557 
L 141.484501 166.963557 
L 141.544287 165.390813 
L 141.781376 165.390813 
L 141.781376 164.866566 
L 141.95707 164.866566 
L 142.015238 163.81807 
L 142.07321 163.81807 
L 142.07321 163.293823 
L 142.303162 163.293823 
L 142.303162 162.245327 
L 142.530078 162.245327 
L 142.530078 161.196832 
L 142.69832 161.196832 
L 142.69832 160.672584 
L 142.975116 160.672584 
L 143.084598 158.575593 
L 143.139078 158.575593 
L 143.247524 157.527098 
L 143.35529 157.527098 
L 143.35529 157.00285 
L 143.515683 157.00285 
L 143.568817 155.430107 
L 143.727238 155.430107 
L 143.727238 152.808868 
L 143.884213 152.808868 
L 143.988072 150.18763 
L 144.142694 150.18763 
L 144.193927 148.090639 
L 144.346715 148.090639 
L 144.447825 146.517896 
L 144.648278 146.517896 
L 144.648278 145.4694 
L 145.042304 145.4694 
L 145.139415 143.372409 
L 145.187766 143.372409 
L 145.235981 140.226923 
L 145.332007 140.226923 
L 145.332007 139.702675 
L 145.475048 139.702675 
L 145.569751 137.605684 
L 145.616908 137.605684 
L 145.616908 137.081437 
L 145.85077 137.081437 
L 145.897164 134.460198 
L 145.989576 134.460198 
L 145.989576 131.838959 
L 146.172923 131.838959 
L 146.218456 129.217721 
L 146.622913 129.217721 
L 146.622913 128.693473 
L 146.755644 128.693473 
L 146.843566 125.547987 
L 146.887358 125.547987 
L 146.974611 124.499491 
L 147.104664 124.499491 
L 147.147797 122.4025 
L 147.361855 122.4025 
L 147.361855 121.878253 
L 147.57328 121.878253 
L 147.657127 118.732766 
L 147.698898 118.732766 
L 147.782136 116.635776 
L 147.906242 116.635776 
L 147.988485 115.063032 
L 148.029459 115.063032 
L 148.070335 111.917546 
L 148.192385 111.917546 
L 148.273273 109.820555 
L 148.353782 109.820555 
L 148.433916 105.626573 
L 148.55342 105.626573 
L 148.55342 105.102326 
L 148.672099 105.102326 
L 148.750766 104.05383 
L 148.868095 104.05383 
L 148.868095 102.481087 
L 149.023298 102.481087 
L 149.100377 101.432592 
L 149.138788 101.432592 
L 149.177112 100.384096 
L 149.253506 100.384096 
L 149.253506 99.859849 
L 149.66771 99.859849 
L 149.741959 97.762858 
L 149.778964 97.762858 
L 149.889502 94.617371 
L 149.926191 94.617371 
L 149.962801 90.947637 
L 150.144693 90.947637 
L 150.180842 88.326399 
L 150.360453 88.326399 
L 150.396151 87.277903 
L 150.679098 87.277903 
L 150.714141 85.70516 
L 150.818844 85.70516 
L 150.818844 84.656665 
L 150.957462 84.656665 
L 150.991943 83.083922 
L 151.129178 83.083922 
L 151.129178 80.986931 
L 151.299196 80.986931 
L 151.400405 79.938435 
L 151.501022 79.938435 
L 151.601053 78.365692 
L 151.667418 78.365692 
L 151.667418 77.841444 
L 151.864991 77.841444 
L 151.962932 75.744454 
L 151.995456 75.744454 
L 151.995456 75.220206 
L 152.189314 75.220206 
L 152.28543 72.074719 
L 152.317349 72.074719 
L 152.34921 70.501976 
L 152.476064 70.501976 
L 152.539141 68.929233 
L 152.633326 68.929233 
L 152.633326 65.783747 
L 152.758108 65.783747 
L 152.820161 64.735251 
L 153.338757 64.735251 
L 153.398752 63.686756 
L 153.488354 63.686756 
L 153.54783 62.638261 
L 153.754391 62.638261 
L 153.754391 62.114013 
L 153.9585 62.114013 
L 154.016374 61.065517 
L 154.131541 61.065517 
L 154.188837 60.017022 
L 154.302858 60.017022 
L 154.331245 58.968526 
L 154.528656 58.968526 
L 154.528656 58.444279 
L 154.779183 58.444279 
L 154.861887 55.82304 
L 155.242663 55.82304 
L 155.242663 54.774545 
L 155.456522 54.774545 
L 155.562461 53.201802 
L 155.693974 53.201802 
L 155.746298 50.580563 
L 155.824488 50.580563 
L 155.92819 49.00782 
L 155.954019 49.00782 
L 155.954019 48.483572 
L 156.210188 48.483572 
L 156.210188 47.959324 
L 156.336855 47.959324 
L 156.336855 46.910829 
L 156.6371 46.910829 
L 156.6371 45.862334 
L 156.88336 45.862334 
L 156.88336 45.338086 
L 157.625086 45.338086 
L 157.695196 44.28959 
L 157.857683 44.28959 
L 157.857683 43.765343 
L 158.932322 43.765343 
L 158.954011 42.192599 
L 159.466505 42.192599 
L 159.466505 41.668352 
L 159.820493 41.668352 
L 159.820493 38.522865 
L 159.984587 38.522865 
L 159.984587 37.998618 
L 160.467671 37.998618 
L 160.467671 36.425875 
L 160.918225 36.425875 
L 160.937549 34.853131 
L 162.906194 34.853131 
L 162.906194 34.328884 
L 163.431985 34.328884 
L 163.498673 33.280388 
L 163.548519 33.280388 
L 163.548519 32.756141 
L 163.746471 32.756141 
L 163.795604 30.65915 
L 165.102097 30.65915 
L 165.102097 29.610654 
L 165.268026 29.610654 
L 165.268026 28.562159 
L 165.887238 28.562159 
L 165.887238 28.037911 
L 166.344485 28.037911 
L 166.344485 27.513663 
L 333.168 27.513663 
L 333.168 27.513663 
" style="fill:none;stroke:#ff7500;stroke-linecap:square;stroke-width:1.5;"/>
   </g>
   <g id="line2d_52">
    <defs>
     <path d="M 0 -6 
L -1.347084 -1.854102 
L -5.706339 -1.854102 
L -2.179628 0.708204 
L -3.526712 4.854102 
L -0 2.291796 
L 3.526712 4.854102 
L 2.179628 0.708204 
L 5.706339 -1.854102 
L 1.347084 -1.854102 
z
" id="m80e355ecb3" style="stroke:#ff7500;stroke-linejoin:bevel;stroke-width:1.5;"/>
    </defs>
    <g>
     <use style="fill-opacity:0;stroke:#ff7500;stroke-linejoin:bevel;stroke-width:1.5;" x="122.114929" xlink:href="#m80e355ecb3" y="230.397531"/>
     <use style="fill-opacity:0;stroke:#ff7500;stroke-linejoin:bevel;stroke-width:1.5;" x="150.714141" xlink:href="#m80e355ecb3" y="86.229408"/>
     <use style="fill-opacity:0;stroke:#ff7500;stroke-linejoin:bevel;stroke-width:1.5;" x="166.344485" xlink:href="#m80e355ecb3" y="28.037911"/>
     <use style="fill-opacity:0;stroke:#ff7500;stroke-linejoin:bevel;stroke-width:1.5;" x="166.344485" xlink:href="#m80e355ecb3" y="27.513663"/>
     <use style="fill-opacity:0;stroke:#ff7500;stroke-linejoin:bevel;stroke-width:1.5;" x="166.344485" xlink:href="#m80e355ecb3" y="27.513663"/>
     <use style="fill-opacity:0;stroke:#ff7500;stroke-linejoin:bevel;stroke-width:1.5;" x="333.168" xlink:href="#m80e355ecb3" y="27.513663"/>
    </g>
   </g>
   <g id="line2d_53">
    <path style="fill:none;stroke:#ff7500;stroke-linecap:square;stroke-width:1.5;"/>
    <g/>
   </g>
   <g id="line2d_54">
    <path d="M 333.168 27.513663 
L 363.64328 289.532673 
" style="fill:none;stroke:#ff00ff;stroke-linecap:square;stroke-width:1.5;"/>
    <g>
     <use style="fill-opacity:0;stroke:#ff00ff;stroke-linejoin:miter;stroke-width:1.5;" x="333.168" xlink:href="#m1d1caf8e09" y="27.513663"/>
     <use style="fill-opacity:0;stroke:#ff00ff;stroke-linejoin:miter;stroke-width:1.5;" x="363.64328" xlink:href="#m1d1caf8e09" y="289.532673"/>
    </g>
   </g>
   <g id="line2d_55">
    <path d="M 333.168 27.513663 
L 363.64328 203.975446 
" style="fill:none;stroke:#ff7500;stroke-linecap:square;stroke-width:1.5;"/>
    <g>
     <use style="fill-opacity:0;stroke:#ff7500;stroke-linejoin:bevel;stroke-width:1.5;" x="333.168" xlink:href="#m80e355ecb3" y="27.513663"/>
     <use style="fill-opacity:0;stroke:#ff7500;stroke-linejoin:bevel;stroke-width:1.5;" x="363.64328" xlink:href="#m80e355ecb3" y="203.975446"/>
    </g>
   </g>
   <g id="line2d_56">
    <path d="M 333.168 27.513663 
L 363.64328 118.418218 
" style="fill:none;stroke:#000080;stroke-linecap:square;stroke-width:1.5;"/>
    <g>
     <use style="fill-opacity:0;stroke:#000080;stroke-width:1.5;" x="333.168" xlink:href="#m869cd5e326" y="27.513663"/>
     <use style="fill-opacity:0;stroke:#000080;stroke-width:1.5;" x="363.64328" xlink:href="#m869cd5e326" y="118.418218"/>
    </g>
   </g>
   <g id="line2d_57">
    <path d="M 333.168 294.88 
L 333.168 27.513663 
" style="fill:none;stroke:#000000;stroke-linecap:square;stroke-width:1.5;"/>
   </g>
   <g id="patch_3">
    <path d="M 56.12 294.88 
L 56.12 24.84 
" style="fill:none;stroke:#000000;stroke-linecap:square;stroke-linejoin:miter;stroke-width:0.8;"/>
   </g>
   <g id="patch_4">
    <path d="M 333.168 294.88 
L 333.168 24.84 
" style="fill:none;stroke:#000000;stroke-linecap:square;stroke-linejoin:miter;stroke-width:0.8;"/>
   </g>
   <g id="patch_5">
    <path d="M 56.12 294.88 
L 333.168 294.88 
" style="fill:none;stroke:#000000;stroke-linecap:square;stroke-linejoin:miter;stroke-width:0.8;"/>
   </g>
   <g id="patch_6">
    <path d="M 56.12 24.84 
L 333.168 24.84 
" style="fill:none;stroke:#000000;stroke-linecap:square;stroke-linejoin:miter;stroke-width:0.8;"/>
   </g>
   <g id="text_13">
    <!-- SHADE-LM-PO -->
    <defs>
     <path d="M 53.515625 70.515625 
L 53.515625 60.890625 
Q 47.90625 63.578125 42.921875 64.890625 
Q 37.9375 66.21875 33.296875 66.21875 
Q 25.25 66.21875 20.875 63.09375 
Q 16.5 59.96875 16.5 54.203125 
Q 16.5 49.359375 19.40625 46.890625 
Q 22.3125 44.4375 30.421875 42.921875 
L 36.375 41.703125 
Q 47.40625 39.59375 52.65625 34.296875 
Q 57.90625 29 57.90625 20.125 
Q 57.90625 9.515625 50.796875 4.046875 
Q 43.703125 -1.421875 29.984375 -1.421875 
Q 24.8125 -1.421875 18.96875 -0.25 
Q 13.140625 0.921875 6.890625 3.21875 
L 6.890625 13.375 
Q 12.890625 10.015625 18.65625 8.296875 
Q 24.421875 6.59375 29.984375 6.59375 
Q 38.421875 6.59375 43.015625 9.90625 
Q 47.609375 13.234375 47.609375 19.390625 
Q 47.609375 24.75 44.3125 27.78125 
Q 41.015625 30.8125 33.5 32.328125 
L 27.484375 33.5 
Q 16.453125 35.6875 11.515625 40.375 
Q 6.59375 45.0625 6.59375 53.421875 
Q 6.59375 63.09375 13.40625 68.65625 
Q 20.21875 74.21875 32.171875 74.21875 
Q 37.3125 74.21875 42.625 73.28125 
Q 47.953125 72.359375 53.515625 70.515625 
z
" id="DejaVuSans-53"/>
     <path d="M 9.8125 72.90625 
L 19.671875 72.90625 
L 19.671875 43.015625 
L 55.515625 43.015625 
L 55.515625 72.90625 
L 65.375 72.90625 
L 65.375 0 
L 55.515625 0 
L 55.515625 34.71875 
L 19.671875 34.71875 
L 19.671875 0 
L 9.8125 0 
z
" id="DejaVuSans-48"/>
     <path d="M 34.1875 63.1875 
L 20.796875 26.90625 
L 47.609375 26.90625 
z
M 28.609375 72.90625 
L 39.796875 72.90625 
L 67.578125 0 
L 57.328125 0 
L 50.6875 18.703125 
L 17.828125 18.703125 
L 11.1875 0 
L 0.78125 0 
z
" id="DejaVuSans-41"/>
     <path d="M 19.671875 64.796875 
L 19.671875 8.109375 
L 31.59375 8.109375 
Q 46.6875 8.109375 53.6875 14.9375 
Q 60.6875 21.78125 60.6875 36.53125 
Q 60.6875 51.171875 53.6875 57.984375 
Q 46.6875 64.796875 31.59375 64.796875 
z
M 9.8125 72.90625 
L 30.078125 72.90625 
Q 51.265625 72.90625 61.171875 64.09375 
Q 71.09375 55.28125 71.09375 36.53125 
Q 71.09375 17.671875 61.125 8.828125 
Q 51.171875 0 30.078125 0 
L 9.8125 0 
z
" id="DejaVuSans-44"/>
     <path d="M 9.8125 72.90625 
L 55.90625 72.90625 
L 55.90625 64.59375 
L 19.671875 64.59375 
L 19.671875 43.015625 
L 54.390625 43.015625 
L 54.390625 34.71875 
L 19.671875 34.71875 
L 19.671875 8.296875 
L 56.78125 8.296875 
L 56.78125 0 
L 9.8125 0 
z
" id="DejaVuSans-45"/>
     <path d="M 9.8125 72.90625 
L 19.671875 72.90625 
L 19.671875 8.296875 
L 55.171875 8.296875 
L 55.171875 0 
L 9.8125 0 
z
" id="DejaVuSans-4c"/>
     <path d="M 9.8125 72.90625 
L 24.515625 72.90625 
L 43.109375 23.296875 
L 61.8125 72.90625 
L 76.515625 72.90625 
L 76.515625 0 
L 66.890625 0 
L 66.890625 64.015625 
L 48.09375 14.015625 
L 38.1875 14.015625 
L 19.390625 64.015625 
L 19.390625 0 
L 9.8125 0 
z
" id="DejaVuSans-4d"/>
     <path d="M 19.671875 64.796875 
L 19.671875 37.40625 
L 32.078125 37.40625 
Q 38.96875 37.40625 42.71875 40.96875 
Q 46.484375 44.53125 46.484375 51.125 
Q 46.484375 57.671875 42.71875 61.234375 
Q 38.96875 64.796875 32.078125 64.796875 
z
M 9.8125 72.90625 
L 32.078125 72.90625 
Q 44.34375 72.90625 50.609375 67.359375 
Q 56.890625 61.8125 56.890625 51.125 
Q 56.890625 40.328125 50.609375 34.8125 
Q 44.34375 29.296875 32.078125 29.296875 
L 19.671875 29.296875 
L 19.671875 0 
L 9.8125 0 
z
" id="DejaVuSans-50"/>
     <path d="M 39.40625 66.21875 
Q 28.65625 66.21875 22.328125 58.203125 
Q 16.015625 50.203125 16.015625 36.375 
Q 16.015625 22.609375 22.328125 14.59375 
Q 28.65625 6.59375 39.40625 6.59375 
Q 50.140625 6.59375 56.421875 14.59375 
Q 62.703125 22.609375 62.703125 36.375 
Q 62.703125 50.203125 56.421875 58.203125 
Q 50.140625 66.21875 39.40625 66.21875 
z
M 39.40625 74.21875 
Q 54.734375 74.21875 63.90625 63.9375 
Q 73.09375 53.65625 73.09375 36.375 
Q 73.09375 19.140625 63.90625 8.859375 
Q 54.734375 -1.421875 39.40625 -1.421875 
Q 24.03125 -1.421875 14.8125 8.828125 
Q 5.609375 19.09375 5.609375 36.375 
Q 5.609375 53.65625 14.8125 63.9375 
Q 24.03125 74.21875 39.40625 74.21875 
z
" id="DejaVuSans-4f"/>
    </defs>
    <g transform="translate(369.18424 294.223611)scale(0.17 -0.17)">
     <use xlink:href="#DejaVuSans-53"/>
     <use x="63.476562" xlink:href="#DejaVuSans-48"/>
     <use x="138.671875" xlink:href="#DejaVuSans-41"/>
     <use x="207.080078" xlink:href="#DejaVuSans-44"/>
     <use x="284.082031" xlink:href="#DejaVuSans-45"/>
     <use x="347.265625" xlink:href="#DejaVuSans-2d"/>
     <use x="383.349609" xlink:href="#DejaVuSans-4c"/>
     <use x="439.0625" xlink:href="#DejaVuSans-4d"/>
     <use x="525.341797" xlink:href="#DejaVuSans-2d"/>
     <use x="561.425781" xlink:href="#DejaVuSans-50"/>
     <use x="621.728516" xlink:href="#DejaVuSans-4f"/>
    </g>
   </g>
   <g id="text_14">
    <!-- R-SHADE-Tan -->
    <defs>
     <path d="M 44.390625 34.1875 
Q 47.5625 33.109375 50.5625 29.59375 
Q 53.5625 26.078125 56.59375 19.921875 
L 66.609375 0 
L 56 0 
L 46.6875 18.703125 
Q 43.0625 26.03125 39.671875 28.421875 
Q 36.28125 30.8125 30.421875 30.8125 
L 19.671875 30.8125 
L 19.671875 0 
L 9.8125 0 
L 9.8125 72.90625 
L 32.078125 72.90625 
Q 44.578125 72.90625 50.734375 67.671875 
Q 56.890625 62.453125 56.890625 51.90625 
Q 56.890625 45.015625 53.6875 40.46875 
Q 50.484375 35.9375 44.390625 34.1875 
z
M 19.671875 64.796875 
L 19.671875 38.921875 
L 32.078125 38.921875 
Q 39.203125 38.921875 42.84375 42.21875 
Q 46.484375 45.515625 46.484375 51.90625 
Q 46.484375 58.296875 42.84375 61.546875 
Q 39.203125 64.796875 32.078125 64.796875 
z
" id="DejaVuSans-52"/>
     <path d="M -0.296875 72.90625 
L 61.375 72.90625 
L 61.375 64.59375 
L 35.5 64.59375 
L 35.5 0 
L 25.59375 0 
L 25.59375 64.59375 
L -0.296875 64.59375 
z
" id="DejaVuSans-54"/>
    </defs>
    <g transform="translate(369.18424 208.666383)scale(0.17 -0.17)">
     <use xlink:href="#DejaVuSans-52"/>
     <use x="69.419922" xlink:href="#DejaVuSans-2d"/>
     <use x="105.503906" xlink:href="#DejaVuSans-53"/>
     <use x="168.980469" xlink:href="#DejaVuSans-48"/>
     <use x="244.175781" xlink:href="#DejaVuSans-41"/>
     <use x="312.583984" xlink:href="#DejaVuSans-44"/>
     <use x="389.585938" xlink:href="#DejaVuSans-45"/>
     <use x="452.769531" xlink:href="#DejaVuSans-2d"/>
     <use x="488.712891" xlink:href="#DejaVuSans-54"/>
     <use x="549.546875" xlink:href="#DejaVuSans-61"/>
     <use x="610.826172" xlink:href="#DejaVuSans-6e"/>
    </g>
   </g>
   <g id="text_15">
    <!-- SHADE-LM -->
    <g transform="translate(369.18424 123.109155)scale(0.17 -0.17)">
     <use xlink:href="#DejaVuSans-53"/>
     <use x="63.476562" xlink:href="#DejaVuSans-48"/>
     <use x="138.671875" xlink:href="#DejaVuSans-41"/>
     <use x="207.080078" xlink:href="#DejaVuSans-44"/>
     <use x="284.082031" xlink:href="#DejaVuSans-45"/>
     <use x="347.265625" xlink:href="#DejaVuSans-2d"/>
     <use x="383.349609" xlink:href="#DejaVuSans-4c"/>
     <use x="439.0625" xlink:href="#DejaVuSans-4d"/>
    </g>
   </g>
   <g id="text_16">
    <!-- best 2009 -->
    <defs>
     <path d="M 48.6875 27.296875 
Q 48.6875 37.203125 44.609375 42.84375 
Q 40.53125 48.484375 33.40625 48.484375 
Q 26.265625 48.484375 22.1875 42.84375 
Q 18.109375 37.203125 18.109375 27.296875 
Q 18.109375 17.390625 22.1875 11.75 
Q 26.265625 6.109375 33.40625 6.109375 
Q 40.53125 6.109375 44.609375 11.75 
Q 48.6875 17.390625 48.6875 27.296875 
z
M 18.109375 46.390625 
Q 20.953125 51.265625 25.265625 53.625 
Q 29.59375 56 35.59375 56 
Q 45.5625 56 51.78125 48.09375 
Q 58.015625 40.1875 58.015625 27.296875 
Q 58.015625 14.40625 51.78125 6.484375 
Q 45.5625 -1.421875 35.59375 -1.421875 
Q 29.59375 -1.421875 25.265625 0.953125 
Q 20.953125 3.328125 18.109375 8.203125 
L 18.109375 0 
L 9.078125 0 
L 9.078125 75.984375 
L 18.109375 75.984375 
z
" id="DejaVuSans-62"/>
     <path d="M 10.984375 1.515625 
L 10.984375 10.5 
Q 14.703125 8.734375 18.5 7.8125 
Q 22.3125 6.890625 25.984375 6.890625 
Q 35.75 6.890625 40.890625 13.453125 
Q 46.046875 20.015625 46.78125 33.40625 
Q 43.953125 29.203125 39.59375 26.953125 
Q 35.25 24.703125 29.984375 24.703125 
Q 19.046875 24.703125 12.671875 31.3125 
Q 6.296875 37.9375 6.296875 49.421875 
Q 6.296875 60.640625 12.9375 67.421875 
Q 19.578125 74.21875 30.609375 74.21875 
Q 43.265625 74.21875 49.921875 64.515625 
Q 56.59375 54.828125 56.59375 36.375 
Q 56.59375 19.140625 48.40625 8.859375 
Q 40.234375 -1.421875 26.421875 -1.421875 
Q 22.703125 -1.421875 18.890625 -0.6875 
Q 15.09375 0.046875 10.984375 1.515625 
z
M 30.609375 32.421875 
Q 37.25 32.421875 41.125 36.953125 
Q 45.015625 41.5 45.015625 49.421875 
Q 45.015625 57.28125 41.125 61.84375 
Q 37.25 66.40625 30.609375 66.40625 
Q 23.96875 66.40625 20.09375 61.84375 
Q 16.21875 57.28125 16.21875 49.421875 
Q 16.21875 41.5 20.09375 36.953125 
Q 23.96875 32.421875 30.609375 32.421875 
z
" id="DejaVuSans-39"/>
    </defs>
    <g transform="translate(369.18424 37.551928)scale(0.17 -0.17)">
     <use xlink:href="#DejaVuSans-62"/>
     <use x="63.476562" xlink:href="#DejaVuSans-65"/>
     <use x="125" xlink:href="#DejaVuSans-73"/>
     <use x="177.099609" xlink:href="#DejaVuSans-74"/>
     <use x="216.308594" xlink:href="#DejaVuSans-20"/>
     <use x="248.095703" xlink:href="#DejaVuSans-32"/>
     <use x="311.71875" xlink:href="#DejaVuSans-30"/>
     <use x="375.341797" xlink:href="#DejaVuSans-30"/>
     <use x="438.964844" xlink:href="#DejaVuSans-39"/>
    </g>
   </g>
   <g id="text_17">
    <!-- bbob f6, 2-D -->
    <g transform="translate(58.89048 35.290806)scale(0.102 -0.102)">
     <use xlink:href="#DejaVuSans-62"/>
     <use x="63.476562" xlink:href="#DejaVuSans-62"/>
     <use x="126.953125" xlink:href="#DejaVuSans-6f"/>
     <use x="188.134766" xlink:href="#DejaVuSans-62"/>
     <use x="251.611328" xlink:href="#DejaVuSans-20"/>
     <use x="283.398438" xlink:href="#DejaVuSans-66"/>
     <use x="318.603516" xlink:href="#DejaVuSans-36"/>
     <use x="382.226562" xlink:href="#DejaVuSans-2c"/>
     <use x="414.013672" xlink:href="#DejaVuSans-20"/>
     <use x="445.800781" xlink:href="#DejaVuSans-32"/>
     <use x="509.423828" xlink:href="#DejaVuSans-2d"/>
     <use x="545.507812" xlink:href="#DejaVuSans-44"/>
    </g>
    <!-- 51 targets: 100..1e-08 -->
    <defs>
     <path d="M 10.796875 72.90625 
L 49.515625 72.90625 
L 49.515625 64.59375 
L 19.828125 64.59375 
L 19.828125 46.734375 
Q 21.96875 47.46875 24.109375 47.828125 
Q 26.265625 48.1875 28.421875 48.1875 
Q 40.625 48.1875 47.75 41.5 
Q 54.890625 34.8125 54.890625 23.390625 
Q 54.890625 11.625 47.5625 5.09375 
Q 40.234375 -1.421875 26.90625 -1.421875 
Q 22.3125 -1.421875 17.546875 -0.640625 
Q 12.796875 0.140625 7.71875 1.703125 
L 7.71875 11.625 
Q 12.109375 9.234375 16.796875 8.0625 
Q 21.484375 6.890625 26.703125 6.890625 
Q 35.15625 6.890625 40.078125 11.328125 
Q 45.015625 15.765625 45.015625 23.390625 
Q 45.015625 31 40.078125 35.4375 
Q 35.15625 39.890625 26.703125 39.890625 
Q 22.75 39.890625 18.8125 39.015625 
Q 14.890625 38.140625 10.796875 36.28125 
z
" id="DejaVuSans-35"/>
     <path d="M 11.71875 12.40625 
L 22.015625 12.40625 
L 22.015625 0 
L 11.71875 0 
z
M 11.71875 51.703125 
L 22.015625 51.703125 
L 22.015625 39.3125 
L 11.71875 39.3125 
z
" id="DejaVuSans-3a"/>
    </defs>
    <g transform="translate(58.89048 46.712575)scale(0.102 -0.102)">
     <use xlink:href="#DejaVuSans-35"/>
     <use x="63.623047" xlink:href="#DejaVuSans-31"/>
     <use x="127.246094" xlink:href="#DejaVuSans-20"/>
     <use x="159.033203" xlink:href="#DejaVuSans-74"/>
     <use x="198.242188" xlink:href="#DejaVuSans-61"/>
     <use x="259.521484" xlink:href="#DejaVuSans-72"/>
     <use x="300.619141" xlink:href="#DejaVuSans-67"/>
     <use x="364.095703" xlink:href="#DejaVuSans-65"/>
     <use x="425.619141" xlink:href="#DejaVuSans-74"/>
     <use x="464.828125" xlink:href="#DejaVuSans-73"/>
     <use x="516.927734" xlink:href="#DejaVuSans-3a"/>
     <use x="550.619141" xlink:href="#DejaVuSans-20"/>
     <use x="582.40625" xlink:href="#DejaVuSans-31"/>
     <use x="646.029297" xlink:href="#DejaVuSans-30"/>
     <use x="709.652344" xlink:href="#DejaVuSans-30"/>
     <use x="773.275391" xlink:href="#DejaVuSans-2e"/>
     <use x="805.0625" xlink:href="#DejaVuSans-2e"/>
     <use x="836.849609" xlink:href="#DejaVuSans-31"/>
     <use x="900.472656" xlink:href="#DejaVuSans-65"/>
     <use x="961.996094" xlink:href="#DejaVuSans-2d"/>
     <use x="998.080078" xlink:href="#DejaVuSans-30"/>
     <use x="1061.703125" xlink:href="#DejaVuSans-38"/>
    </g>
    <!-- 15 instances -->
    <g transform="translate(58.89048 58.134344)scale(0.102 -0.102)">
     <use xlink:href="#DejaVuSans-31"/>
     <use x="63.623047" xlink:href="#DejaVuSans-35"/>
     <use x="127.246094" xlink:href="#DejaVuSans-20"/>
     <use x="159.033203" xlink:href="#DejaVuSans-69"/>
     <use x="186.816406" xlink:href="#DejaVuSans-6e"/>
     <use x="250.195312" xlink:href="#DejaVuSans-73"/>
     <use x="302.294922" xlink:href="#DejaVuSans-74"/>
     <use x="341.503906" xlink:href="#DejaVuSans-61"/>
     <use x="402.783203" xlink:href="#DejaVuSans-6e"/>
     <use x="466.162109" xlink:href="#DejaVuSans-63"/>
     <use x="521.142578" xlink:href="#DejaVuSans-65"/>
     <use x="582.666016" xlink:href="#DejaVuSans-73"/>
    </g>
   </g>
   <g id="text_18">
    <!-- v2.4 -->
    <g style="fill:#808080;" transform="translate(183.733063 290.099912)scale(0.1 -0.1)">
     <use xlink:href="#DejaVuSans-76"/>
     <use x="59.179688" xlink:href="#DejaVuSans-32"/>
     <use x="122.802734" xlink:href="#DejaVuSans-2e"/>
     <use x="154.589844" xlink:href="#DejaVuSans-34"/>
    </g>
   </g>
   <g id="text_19">
    <!-- 6 Attractive sector -->
    <g transform="translate(101.726812 18.84)scale(0.2 -0.2)">
     <use xlink:href="#DejaVuSans-36"/>
     <use x="63.623047" xlink:href="#DejaVuSans-20"/>
     <use x="95.410156" xlink:href="#DejaVuSans-41"/>
     <use x="163.802734" xlink:href="#DejaVuSans-74"/>
     <use x="203.011719" xlink:href="#DejaVuSans-74"/>
     <use x="242.220703" xlink:href="#DejaVuSans-72"/>
     <use x="283.333984" xlink:href="#DejaVuSans-61"/>
     <use x="344.613281" xlink:href="#DejaVuSans-63"/>
     <use x="399.59375" xlink:href="#DejaVuSans-74"/>
     <use x="438.802734" xlink:href="#DejaVuSans-69"/>
     <use x="466.585938" xlink:href="#DejaVuSans-76"/>
     <use x="525.765625" xlink:href="#DejaVuSans-65"/>
     <use x="587.289062" xlink:href="#DejaVuSans-20"/>
     <use x="619.076172" xlink:href="#DejaVuSans-73"/>
     <use x="671.175781" xlink:href="#DejaVuSans-65"/>
     <use x="732.699219" xlink:href="#DejaVuSans-63"/>
     <use x="787.679688" xlink:href="#DejaVuSans-74"/>
     <use x="826.888672" xlink:href="#DejaVuSans-6f"/>
     <use x="888.070312" xlink:href="#DejaVuSans-72"/>
    </g>
   </g>
  </g>
 </g>
 <defs>
  <clipPath id="p0b853d5e4d">
   <rect height="270.04" width="277.048" x="56.12" y="24.84"/>
  </clipPath>
 </defs>
</svg>
