<?xml version="1.0" encoding="utf-8" standalone="no"?>
<!DOCTYPE svg PUBLIC "-//W3C//DTD SVG 1.1//EN"
  "http://www.w3.org/Graphics/SVG/1.1/DTD/svg11.dtd">
<!-- Created with matplotlib (http://matplotlib.org/) -->
<svg height="345.6pt" version="1.1" viewBox="0 0 460.8 345.6" width="460.8pt" xmlns="http://www.w3.org/2000/svg" xmlns:xlink="http://www.w3.org/1999/xlink">
 <defs>
  <style type="text/css">
*{stroke-linecap:butt;stroke-linejoin:round;}
  </style>
 </defs>
 <g id="figure_1">
  <g id="patch_1">
   <path d="M 0 345.6 
L 460.8 345.6 
L 460.8 0 
L 0 0 
z
" style="fill:#ffffff;"/>
  </g>
  <g id="axes_1">
   <g id="patch_2">
    <path d="M 56.12 294.88 
L 333.168 294.88 
L 333.168 24.84 
L 56.12 24.84 
z
" style="fill:#ffffff;"/>
   </g>
   <g id="line2d_1">
    <path d="M 100.470395 294.88 
L 100.470395 289.637523 
L 107.868452 289.637523 
L 107.868452 284.395046 
L 109.864733 284.395046 
L 109.864733 279.152568 
L 111.379177 279.152568 
L 111.379177 273.910091 
L 112.960856 273.910091 
L 112.960856 268.667614 
L 116.010559 268.667614 
L 116.010559 263.425137 
L 120.487764 263.425137 
L 120.487764 258.18266 
L 129.796341 258.18266 
L 129.796341 252.940182 
L 131.718109 252.940182 
L 131.718109 247.697705 
L 132.922316 247.697705 
L 132.922316 242.455228 
L 133.862029 242.455228 
L 133.862029 237.212751 
L 134.664189 237.212751 
L 134.664189 231.970274 
L 135.413533 231.970274 
L 135.413533 226.727797 
L 136.09883 226.727797 
L 136.09883 221.485319 
L 136.67882 221.485319 
L 136.67882 216.242842 
L 137.132207 216.242842 
L 137.132207 211.000365 
L 137.528768 211.000365 
L 137.528768 205.757888 
L 137.945844 205.757888 
L 137.945844 200.515411 
L 138.223203 200.515411 
L 138.223203 195.272933 
L 138.410429 195.272933 
L 138.410429 190.030456 
L 138.652226 190.030456 
L 138.652226 184.787979 
L 138.862788 184.787979 
L 138.862788 179.545502 
L 139.015577 179.545502 
L 139.015577 174.303025 
L 139.139583 174.303025 
L 139.139583 169.060547 
L 139.22176 169.060547 
L 139.22176 163.81807 
L 139.344294 163.81807 
L 139.344294 158.575593 
L 139.4255 158.575593 
L 139.4255 153.333116 
L 139.546595 153.333116 
L 139.546595 148.090639 
L 139.600142 148.090639 
L 139.600142 142.848162 
L 139.666842 142.848162 
L 139.666842 137.605684 
L 139.720016 137.605684 
L 139.720016 132.363207 
L 139.799471 132.363207 
L 139.799471 127.12073 
L 139.904842 127.12073 
L 139.904842 121.878253 
L 139.94419 121.878253 
L 139.94419 116.635776 
L 139.970373 116.635776 
L 139.970373 111.393298 
L 139.983449 111.393298 
L 139.983449 106.150821 
L 140.035654 106.150821 
L 140.035654 100.908344 
L 140.061698 100.908344 
L 140.061698 95.665867 
L 140.100689 95.665867 
L 140.100689 90.42339 
L 140.165478 90.42339 
L 140.165478 85.180912 
L 140.217135 85.180912 
L 140.217135 79.938435 
L 140.242905 79.938435 
L 140.242905 74.695958 
L 140.268636 74.695958 
L 140.268636 69.453481 
L 140.319984 69.453481 
L 140.319984 64.211004 
L 140.332797 64.211004 
L 140.332797 58.968526 
L 140.3456 58.968526 
L 140.3456 53.726049 
L 140.371179 53.726049 
L 140.371179 48.483572 
L 140.409475 48.483572 
L 140.409475 43.241095 
L 140.422222 43.241095 
L 140.422222 37.998618 
L 140.434959 37.998618 
L 140.434959 32.756141 
L 140.447686 32.756141 
L 140.447686 27.513663 
L 333.168 27.513663 
" style="fill:none;stroke:#f5deb3;stroke-linecap:square;stroke-width:4;"/>
   </g>
   <g id="line2d_2">
    <defs>
     <path d="M -0 7.778175 
L 7.778175 0 
L 0 -7.778175 
L -7.778175 -0 
z
" id="m6e140cfff2" style="stroke:#f5deb3;stroke-linejoin:miter;stroke-width:1.5;"/>
    </defs>
    <g>
     <use style="fill:#f5deb3;stroke:#f5deb3;stroke-linejoin:miter;stroke-width:1.5;" x="129.796341" xlink:href="#m6e140cfff2" y="252.940182"/>
     <use style="fill:#f5deb3;stroke:#f5deb3;stroke-linejoin:miter;stroke-width:1.5;" x="140.268636" xlink:href="#m6e140cfff2" y="74.695958"/>
     <use style="fill:#f5deb3;stroke:#f5deb3;stroke-linejoin:miter;stroke-width:1.5;" x="140.447686" xlink:href="#m6e140cfff2" y="32.756141"/>
     <use style="fill:#f5deb3;stroke:#f5deb3;stroke-linejoin:miter;stroke-width:1.5;" x="140.447686" xlink:href="#m6e140cfff2" y="27.513663"/>
     <use style="fill:#f5deb3;stroke:#f5deb3;stroke-linejoin:miter;stroke-width:1.5;" x="333.168" xlink:href="#m6e140cfff2" y="27.513663"/>
    </g>
   </g>
   <g id="line2d_3">
    <path style="fill:none;stroke:#f5deb3;stroke-linecap:square;stroke-width:4;"/>
    <g/>
   </g>
   <g id="line2d_4">
    <path d="M 333.168 27.513663 
L 363.64328 32.86099 
" style="fill:none;stroke:#f5deb3;stroke-linecap:square;stroke-width:4;"/>
    <g>
     <use style="fill:#f5deb3;stroke:#f5deb3;stroke-linejoin:miter;stroke-width:1.5;" x="333.168" xlink:href="#m6e140cfff2" y="27.513663"/>
     <use style="fill:#f5deb3;stroke:#f5deb3;stroke-linejoin:miter;stroke-width:1.5;" x="363.64328" xlink:href="#m6e140cfff2" y="32.86099"/>
    </g>
   </g>
   <g id="matplotlib.axis_1">
    <g id="xtick_1">
     <g id="line2d_5">
      <path clip-path="url(#p2d1052e25e)" d="M 56.12 294.88 
L 56.12 24.84 
" style="fill:none;stroke:#b0b0b0;stroke-linecap:square;stroke-width:0.8;"/>
     </g>
     <g id="line2d_6">
      <defs>
       <path d="M 0 0 
L 0 3.5 
" id="ma9fdb65041" style="stroke:#000000;stroke-width:0.8;"/>
      </defs>
      <g>
       <use style="stroke:#000000;stroke-width:0.8;" x="56.12" xlink:href="#ma9fdb65041" y="294.88"/>
      </g>
     </g>
     <g id="text_1">
      <!-- 0 -->
      <defs>
       <path d="M 31.78125 66.40625 
Q 24.171875 66.40625 20.328125 58.90625 
Q 16.5 51.421875 16.5 36.375 
Q 16.5 21.390625 20.328125 13.890625 
Q 24.171875 6.390625 31.78125 6.390625 
Q 39.453125 6.390625 43.28125 13.890625 
Q 47.125 21.390625 47.125 36.375 
Q 47.125 51.421875 43.28125 58.90625 
Q 39.453125 66.40625 31.78125 66.40625 
z
M 31.78125 74.21875 
Q 44.046875 74.21875 50.515625 64.515625 
Q 56.984375 54.828125 56.984375 36.375 
Q 56.984375 17.96875 50.515625 8.265625 
Q 44.046875 -1.421875 31.78125 -1.421875 
Q 19.53125 -1.421875 13.0625 8.265625 
Q 6.59375 17.96875 6.59375 36.375 
Q 6.59375 54.828125 13.0625 64.515625 
Q 19.53125 74.21875 31.78125 74.21875 
z
" id="DejaVuSans-30"/>
      </defs>
      <g transform="translate(49.7575 317.076875)scale(0.2 -0.2)">
       <use xlink:href="#DejaVuSans-30"/>
      </g>
     </g>
    </g>
    <g id="xtick_2">
     <g id="line2d_7">
      <path clip-path="url(#p2d1052e25e)" d="M 135.276571 294.88 
L 135.276571 24.84 
" style="fill:none;stroke:#b0b0b0;stroke-linecap:square;stroke-width:0.8;"/>
     </g>
     <g id="line2d_8">
      <g>
       <use style="stroke:#000000;stroke-width:0.8;" x="135.276571" xlink:href="#ma9fdb65041" y="294.88"/>
      </g>
     </g>
     <g id="text_2">
      <!-- 2 -->
      <defs>
       <path d="M 19.1875 8.296875 
L 53.609375 8.296875 
L 53.609375 0 
L 7.328125 0 
L 7.328125 8.296875 
Q 12.9375 14.109375 22.625 23.890625 
Q 32.328125 33.6875 34.8125 36.53125 
Q 39.546875 41.84375 41.421875 45.53125 
Q 43.3125 49.21875 43.3125 52.78125 
Q 43.3125 58.59375 39.234375 62.25 
Q 35.15625 65.921875 28.609375 65.921875 
Q 23.96875 65.921875 18.8125 64.3125 
Q 13.671875 62.703125 7.8125 59.421875 
L 7.8125 69.390625 
Q 13.765625 71.78125 18.9375 73 
Q 24.125 74.21875 28.421875 74.21875 
Q 39.75 74.21875 46.484375 68.546875 
Q 53.21875 62.890625 53.21875 53.421875 
Q 53.21875 48.921875 51.53125 44.890625 
Q 49.859375 40.875 45.40625 35.40625 
Q 44.1875 33.984375 37.640625 27.21875 
Q 31.109375 20.453125 19.1875 8.296875 
z
" id="DejaVuSans-32"/>
      </defs>
      <g transform="translate(128.914071 317.076875)scale(0.2 -0.2)">
       <use xlink:href="#DejaVuSans-32"/>
      </g>
     </g>
    </g>
    <g id="xtick_3">
     <g id="line2d_9">
      <path clip-path="url(#p2d1052e25e)" d="M 214.433143 294.88 
L 214.433143 24.84 
" style="fill:none;stroke:#b0b0b0;stroke-linecap:square;stroke-width:0.8;"/>
     </g>
     <g id="line2d_10">
      <g>
       <use style="stroke:#000000;stroke-width:0.8;" x="214.433143" xlink:href="#ma9fdb65041" y="294.88"/>
      </g>
     </g>
     <g id="text_3">
      <!-- 4 -->
      <defs>
       <path d="M 37.796875 64.3125 
L 12.890625 25.390625 
L 37.796875 25.390625 
z
M 35.203125 72.90625 
L 47.609375 72.90625 
L 47.609375 25.390625 
L 58.015625 25.390625 
L 58.015625 17.1875 
L 47.609375 17.1875 
L 47.609375 0 
L 37.796875 0 
L 37.796875 17.1875 
L 4.890625 17.1875 
L 4.890625 26.703125 
z
" id="DejaVuSans-34"/>
      </defs>
      <g transform="translate(208.070643 317.076875)scale(0.2 -0.2)">
       <use xlink:href="#DejaVuSans-34"/>
      </g>
     </g>
    </g>
    <g id="xtick_4">
     <g id="line2d_11">
      <path clip-path="url(#p2d1052e25e)" d="M 293.589714 294.88 
L 293.589714 24.84 
" style="fill:none;stroke:#b0b0b0;stroke-linecap:square;stroke-width:0.8;"/>
     </g>
     <g id="line2d_12">
      <g>
       <use style="stroke:#000000;stroke-width:0.8;" x="293.589714" xlink:href="#ma9fdb65041" y="294.88"/>
      </g>
     </g>
     <g id="text_4">
      <!-- 6 -->
      <defs>
       <path d="M 33.015625 40.375 
Q 26.375 40.375 22.484375 35.828125 
Q 18.609375 31.296875 18.609375 23.390625 
Q 18.609375 15.53125 22.484375 10.953125 
Q 26.375 6.390625 33.015625 6.390625 
Q 39.65625 6.390625 43.53125 10.953125 
Q 47.40625 15.53125 47.40625 23.390625 
Q 47.40625 31.296875 43.53125 35.828125 
Q 39.65625 40.375 33.015625 40.375 
z
M 52.59375 71.296875 
L 52.59375 62.3125 
Q 48.875 64.0625 45.09375 64.984375 
Q 41.3125 65.921875 37.59375 65.921875 
Q 27.828125 65.921875 22.671875 59.328125 
Q 17.53125 52.734375 16.796875 39.40625 
Q 19.671875 43.65625 24.015625 45.921875 
Q 28.375 48.1875 33.59375 48.1875 
Q 44.578125 48.1875 50.953125 41.515625 
Q 57.328125 34.859375 57.328125 23.390625 
Q 57.328125 12.15625 50.6875 5.359375 
Q 44.046875 -1.421875 33.015625 -1.421875 
Q 20.359375 -1.421875 13.671875 8.265625 
Q 6.984375 17.96875 6.984375 36.375 
Q 6.984375 53.65625 15.1875 63.9375 
Q 23.390625 74.21875 37.203125 74.21875 
Q 40.921875 74.21875 44.703125 73.484375 
Q 48.484375 72.75 52.59375 71.296875 
z
" id="DejaVuSans-36"/>
      </defs>
      <g transform="translate(287.227214 317.076875)scale(0.2 -0.2)">
       <use xlink:href="#DejaVuSans-36"/>
      </g>
     </g>
    </g>
    <g id="xtick_5">
     <g id="line2d_13">
      <path clip-path="url(#p2d1052e25e)" d="M 56.12 294.88 
L 56.12 24.84 
" style="fill:none;stroke:#b0b0b0;stroke-linecap:square;stroke-width:0.8;"/>
     </g>
     <g id="line2d_14">
      <defs>
       <path d="M 0 0 
L 0 2 
" id="mf3c9205bbc" style="stroke:#000000;stroke-width:0.6;"/>
      </defs>
      <g>
       <use style="stroke:#000000;stroke-width:0.6;" x="56.12" xlink:href="#mf3c9205bbc" y="294.88"/>
      </g>
     </g>
    </g>
    <g id="xtick_6">
     <g id="line2d_15">
      <path clip-path="url(#p2d1052e25e)" d="M 95.698286 294.88 
L 95.698286 24.84 
" style="fill:none;stroke:#b0b0b0;stroke-linecap:square;stroke-width:0.8;"/>
     </g>
     <g id="line2d_16">
      <g>
       <use style="stroke:#000000;stroke-width:0.6;" x="95.698286" xlink:href="#mf3c9205bbc" y="294.88"/>
      </g>
     </g>
    </g>
    <g id="xtick_7">
     <g id="line2d_17">
      <path clip-path="url(#p2d1052e25e)" d="M 135.276571 294.88 
L 135.276571 24.84 
" style="fill:none;stroke:#b0b0b0;stroke-linecap:square;stroke-width:0.8;"/>
     </g>
     <g id="line2d_18">
      <g>
       <use style="stroke:#000000;stroke-width:0.6;" x="135.276571" xlink:href="#mf3c9205bbc" y="294.88"/>
      </g>
     </g>
    </g>
    <g id="xtick_8">
     <g id="line2d_19">
      <path clip-path="url(#p2d1052e25e)" d="M 174.854857 294.88 
L 174.854857 24.84 
" style="fill:none;stroke:#b0b0b0;stroke-linecap:square;stroke-width:0.8;"/>
     </g>
     <g id="line2d_20">
      <g>
       <use style="stroke:#000000;stroke-width:0.6;" x="174.854857" xlink:href="#mf3c9205bbc" y="294.88"/>
      </g>
     </g>
    </g>
    <g id="xtick_9">
     <g id="line2d_21">
      <path clip-path="url(#p2d1052e25e)" d="M 214.433143 294.88 
L 214.433143 24.84 
" style="fill:none;stroke:#b0b0b0;stroke-linecap:square;stroke-width:0.8;"/>
     </g>
     <g id="line2d_22">
      <g>
       <use style="stroke:#000000;stroke-width:0.6;" x="214.433143" xlink:href="#mf3c9205bbc" y="294.88"/>
      </g>
     </g>
    </g>
    <g id="xtick_10">
     <g id="line2d_23">
      <path clip-path="url(#p2d1052e25e)" d="M 254.011429 294.88 
L 254.011429 24.84 
" style="fill:none;stroke:#b0b0b0;stroke-linecap:square;stroke-width:0.8;"/>
     </g>
     <g id="line2d_24">
      <g>
       <use style="stroke:#000000;stroke-width:0.6;" x="254.011429" xlink:href="#mf3c9205bbc" y="294.88"/>
      </g>
     </g>
    </g>
    <g id="xtick_11">
     <g id="line2d_25">
      <path clip-path="url(#p2d1052e25e)" d="M 293.589714 294.88 
L 293.589714 24.84 
" style="fill:none;stroke:#b0b0b0;stroke-linecap:square;stroke-width:0.8;"/>
     </g>
     <g id="line2d_26">
      <g>
       <use style="stroke:#000000;stroke-width:0.6;" x="293.589714" xlink:href="#mf3c9205bbc" y="294.88"/>
      </g>
     </g>
    </g>
    <g id="xtick_12">
     <g id="line2d_27">
      <path clip-path="url(#p2d1052e25e)" d="M 333.168 294.88 
L 333.168 24.84 
" style="fill:none;stroke:#b0b0b0;stroke-linecap:square;stroke-width:0.8;"/>
     </g>
     <g id="line2d_28">
      <g>
       <use style="stroke:#000000;stroke-width:0.6;" x="333.168" xlink:href="#mf3c9205bbc" y="294.88"/>
      </g>
     </g>
    </g>
    <g id="text_5">
     <!-- log10(# f-evals / dimension) -->
     <defs>
      <path d="M 9.421875 75.984375 
L 18.40625 75.984375 
L 18.40625 0 
L 9.421875 0 
z
" id="DejaVuSans-6c"/>
      <path d="M 30.609375 48.390625 
Q 23.390625 48.390625 19.1875 42.75 
Q 14.984375 37.109375 14.984375 27.296875 
Q 14.984375 17.484375 19.15625 11.84375 
Q 23.34375 6.203125 30.609375 6.203125 
Q 37.796875 6.203125 41.984375 11.859375 
Q 46.1875 17.53125 46.1875 27.296875 
Q 46.1875 37.015625 41.984375 42.703125 
Q 37.796875 48.390625 30.609375 48.390625 
z
M 30.609375 56 
Q 42.328125 56 49.015625 48.375 
Q 55.71875 40.765625 55.71875 27.296875 
Q 55.71875 13.875 49.015625 6.21875 
Q 42.328125 -1.421875 30.609375 -1.421875 
Q 18.84375 -1.421875 12.171875 6.21875 
Q 5.515625 13.875 5.515625 27.296875 
Q 5.515625 40.765625 12.171875 48.375 
Q 18.84375 56 30.609375 56 
z
" id="DejaVuSans-6f"/>
      <path d="M 45.40625 27.984375 
Q 45.40625 37.75 41.375 43.109375 
Q 37.359375 48.484375 30.078125 48.484375 
Q 22.859375 48.484375 18.828125 43.109375 
Q 14.796875 37.75 14.796875 27.984375 
Q 14.796875 18.265625 18.828125 12.890625 
Q 22.859375 7.515625 30.078125 7.515625 
Q 37.359375 7.515625 41.375 12.890625 
Q 45.40625 18.265625 45.40625 27.984375 
z
M 54.390625 6.78125 
Q 54.390625 -7.171875 48.1875 -13.984375 
Q 42 -20.796875 29.203125 -20.796875 
Q 24.46875 -20.796875 20.265625 -20.09375 
Q 16.0625 -19.390625 12.109375 -17.921875 
L 12.109375 -9.1875 
Q 16.0625 -11.328125 19.921875 -12.34375 
Q 23.78125 -13.375 27.78125 -13.375 
Q 36.625 -13.375 41.015625 -8.765625 
Q 45.40625 -4.15625 45.40625 5.171875 
L 45.40625 9.625 
Q 42.625 4.78125 38.28125 2.390625 
Q 33.9375 0 27.875 0 
Q 17.828125 0 11.671875 7.65625 
Q 5.515625 15.328125 5.515625 27.984375 
Q 5.515625 40.671875 11.671875 48.328125 
Q 17.828125 56 27.875 56 
Q 33.9375 56 38.28125 53.609375 
Q 42.625 51.21875 45.40625 46.390625 
L 45.40625 54.6875 
L 54.390625 54.6875 
z
" id="DejaVuSans-67"/>
      <path d="M 12.40625 8.296875 
L 28.515625 8.296875 
L 28.515625 63.921875 
L 10.984375 60.40625 
L 10.984375 69.390625 
L 28.421875 72.90625 
L 38.28125 72.90625 
L 38.28125 8.296875 
L 54.390625 8.296875 
L 54.390625 0 
L 12.40625 0 
z
" id="DejaVuSans-31"/>
      <path d="M 31 75.875 
Q 24.46875 64.65625 21.28125 53.65625 
Q 18.109375 42.671875 18.109375 31.390625 
Q 18.109375 20.125 21.3125 9.0625 
Q 24.515625 -2 31 -13.1875 
L 23.1875 -13.1875 
Q 15.875 -1.703125 12.234375 9.375 
Q 8.59375 20.453125 8.59375 31.390625 
Q 8.59375 42.28125 12.203125 53.3125 
Q 15.828125 64.359375 23.1875 75.875 
z
" id="DejaVuSans-28"/>
      <path d="M 51.125 44 
L 36.921875 44 
L 32.8125 27.6875 
L 47.125 27.6875 
z
M 43.796875 71.78125 
L 38.71875 51.515625 
L 52.984375 51.515625 
L 58.109375 71.78125 
L 65.921875 71.78125 
L 60.890625 51.515625 
L 76.125 51.515625 
L 76.125 44 
L 58.984375 44 
L 54.984375 27.6875 
L 70.515625 27.6875 
L 70.515625 20.21875 
L 53.078125 20.21875 
L 48 0 
L 40.1875 0 
L 45.21875 20.21875 
L 30.90625 20.21875 
L 25.875 0 
L 18.015625 0 
L 23.09375 20.21875 
L 7.71875 20.21875 
L 7.71875 27.6875 
L 24.90625 27.6875 
L 29 44 
L 13.28125 44 
L 13.28125 51.515625 
L 30.90625 51.515625 
L 35.890625 71.78125 
z
" id="DejaVuSans-23"/>
      <path id="DejaVuSans-20"/>
      <path d="M 37.109375 75.984375 
L 37.109375 68.5 
L 28.515625 68.5 
Q 23.6875 68.5 21.796875 66.546875 
Q 19.921875 64.59375 19.921875 59.515625 
L 19.921875 54.6875 
L 34.71875 54.6875 
L 34.71875 47.703125 
L 19.921875 47.703125 
L 19.921875 0 
L 10.890625 0 
L 10.890625 47.703125 
L 2.296875 47.703125 
L 2.296875 54.6875 
L 10.890625 54.6875 
L 10.890625 58.5 
Q 10.890625 67.625 15.140625 71.796875 
Q 19.390625 75.984375 28.609375 75.984375 
z
" id="DejaVuSans-66"/>
      <path d="M 4.890625 31.390625 
L 31.203125 31.390625 
L 31.203125 23.390625 
L 4.890625 23.390625 
z
" id="DejaVuSans-2d"/>
      <path d="M 56.203125 29.59375 
L 56.203125 25.203125 
L 14.890625 25.203125 
Q 15.484375 15.921875 20.484375 11.0625 
Q 25.484375 6.203125 34.421875 6.203125 
Q 39.59375 6.203125 44.453125 7.46875 
Q 49.3125 8.734375 54.109375 11.28125 
L 54.109375 2.78125 
Q 49.265625 0.734375 44.1875 -0.34375 
Q 39.109375 -1.421875 33.890625 -1.421875 
Q 20.796875 -1.421875 13.15625 6.1875 
Q 5.515625 13.8125 5.515625 26.8125 
Q 5.515625 40.234375 12.765625 48.109375 
Q 20.015625 56 32.328125 56 
Q 43.359375 56 49.78125 48.890625 
Q 56.203125 41.796875 56.203125 29.59375 
z
M 47.21875 32.234375 
Q 47.125 39.59375 43.09375 43.984375 
Q 39.0625 48.390625 32.421875 48.390625 
Q 24.90625 48.390625 20.390625 44.140625 
Q 15.875 39.890625 15.1875 32.171875 
z
" id="DejaVuSans-65"/>
      <path d="M 2.984375 54.6875 
L 12.5 54.6875 
L 29.59375 8.796875 
L 46.6875 54.6875 
L 56.203125 54.6875 
L 35.6875 0 
L 23.484375 0 
z
" id="DejaVuSans-76"/>
      <path d="M 34.28125 27.484375 
Q 23.390625 27.484375 19.1875 25 
Q 14.984375 22.515625 14.984375 16.5 
Q 14.984375 11.71875 18.140625 8.90625 
Q 21.296875 6.109375 26.703125 6.109375 
Q 34.1875 6.109375 38.703125 11.40625 
Q 43.21875 16.703125 43.21875 25.484375 
L 43.21875 27.484375 
z
M 52.203125 31.203125 
L 52.203125 0 
L 43.21875 0 
L 43.21875 8.296875 
Q 40.140625 3.328125 35.546875 0.953125 
Q 30.953125 -1.421875 24.3125 -1.421875 
Q 15.921875 -1.421875 10.953125 3.296875 
Q 6 8.015625 6 15.921875 
Q 6 25.140625 12.171875 29.828125 
Q 18.359375 34.515625 30.609375 34.515625 
L 43.21875 34.515625 
L 43.21875 35.40625 
Q 43.21875 41.609375 39.140625 45 
Q 35.0625 48.390625 27.6875 48.390625 
Q 23 48.390625 18.546875 47.265625 
Q 14.109375 46.140625 10.015625 43.890625 
L 10.015625 52.203125 
Q 14.9375 54.109375 19.578125 55.046875 
Q 24.21875 56 28.609375 56 
Q 40.484375 56 46.34375 49.84375 
Q 52.203125 43.703125 52.203125 31.203125 
z
" id="DejaVuSans-61"/>
      <path d="M 44.28125 53.078125 
L 44.28125 44.578125 
Q 40.484375 46.53125 36.375 47.5 
Q 32.28125 48.484375 27.875 48.484375 
Q 21.1875 48.484375 17.84375 46.4375 
Q 14.5 44.390625 14.5 40.28125 
Q 14.5 37.15625 16.890625 35.375 
Q 19.28125 33.59375 26.515625 31.984375 
L 29.59375 31.296875 
Q 39.15625 29.25 43.1875 25.515625 
Q 47.21875 21.78125 47.21875 15.09375 
Q 47.21875 7.46875 41.1875 3.015625 
Q 35.15625 -1.421875 24.609375 -1.421875 
Q 20.21875 -1.421875 15.453125 -0.5625 
Q 10.6875 0.296875 5.421875 2 
L 5.421875 11.28125 
Q 10.40625 8.6875 15.234375 7.390625 
Q 20.0625 6.109375 24.8125 6.109375 
Q 31.15625 6.109375 34.5625 8.28125 
Q 37.984375 10.453125 37.984375 14.40625 
Q 37.984375 18.0625 35.515625 20.015625 
Q 33.0625 21.96875 24.703125 23.78125 
L 21.578125 24.515625 
Q 13.234375 26.265625 9.515625 29.90625 
Q 5.8125 33.546875 5.8125 39.890625 
Q 5.8125 47.609375 11.28125 51.796875 
Q 16.75 56 26.8125 56 
Q 31.78125 56 36.171875 55.265625 
Q 40.578125 54.546875 44.28125 53.078125 
z
" id="DejaVuSans-73"/>
      <path d="M 25.390625 72.90625 
L 33.6875 72.90625 
L 8.296875 -9.28125 
L 0 -9.28125 
z
" id="DejaVuSans-2f"/>
      <path d="M 45.40625 46.390625 
L 45.40625 75.984375 
L 54.390625 75.984375 
L 54.390625 0 
L 45.40625 0 
L 45.40625 8.203125 
Q 42.578125 3.328125 38.25 0.953125 
Q 33.9375 -1.421875 27.875 -1.421875 
Q 17.96875 -1.421875 11.734375 6.484375 
Q 5.515625 14.40625 5.515625 27.296875 
Q 5.515625 40.1875 11.734375 48.09375 
Q 17.96875 56 27.875 56 
Q 33.9375 56 38.25 53.625 
Q 42.578125 51.265625 45.40625 46.390625 
z
M 14.796875 27.296875 
Q 14.796875 17.390625 18.875 11.75 
Q 22.953125 6.109375 30.078125 6.109375 
Q 37.203125 6.109375 41.296875 11.75 
Q 45.40625 17.390625 45.40625 27.296875 
Q 45.40625 37.203125 41.296875 42.84375 
Q 37.203125 48.484375 30.078125 48.484375 
Q 22.953125 48.484375 18.875 42.84375 
Q 14.796875 37.203125 14.796875 27.296875 
z
" id="DejaVuSans-64"/>
      <path d="M 9.421875 54.6875 
L 18.40625 54.6875 
L 18.40625 0 
L 9.421875 0 
z
M 9.421875 75.984375 
L 18.40625 75.984375 
L 18.40625 64.59375 
L 9.421875 64.59375 
z
" id="DejaVuSans-69"/>
      <path d="M 52 44.1875 
Q 55.375 50.25 60.0625 53.125 
Q 64.75 56 71.09375 56 
Q 79.640625 56 84.28125 50.015625 
Q 88.921875 44.046875 88.921875 33.015625 
L 88.921875 0 
L 79.890625 0 
L 79.890625 32.71875 
Q 79.890625 40.578125 77.09375 44.375 
Q 74.3125 48.1875 68.609375 48.1875 
Q 61.625 48.1875 57.5625 43.546875 
Q 53.515625 38.921875 53.515625 30.90625 
L 53.515625 0 
L 44.484375 0 
L 44.484375 32.71875 
Q 44.484375 40.625 41.703125 44.40625 
Q 38.921875 48.1875 33.109375 48.1875 
Q 26.21875 48.1875 22.15625 43.53125 
Q 18.109375 38.875 18.109375 30.90625 
L 18.109375 0 
L 9.078125 0 
L 9.078125 54.6875 
L 18.109375 54.6875 
L 18.109375 46.1875 
Q 21.1875 51.21875 25.484375 53.609375 
Q 29.78125 56 35.6875 56 
Q 41.65625 56 45.828125 52.96875 
Q 50 49.953125 52 44.1875 
z
" id="DejaVuSans-6d"/>
      <path d="M 54.890625 33.015625 
L 54.890625 0 
L 45.90625 0 
L 45.90625 32.71875 
Q 45.90625 40.484375 42.875 44.328125 
Q 39.84375 48.1875 33.796875 48.1875 
Q 26.515625 48.1875 22.3125 43.546875 
Q 18.109375 38.921875 18.109375 30.90625 
L 18.109375 0 
L 9.078125 0 
L 9.078125 54.6875 
L 18.109375 54.6875 
L 18.109375 46.1875 
Q 21.34375 51.125 25.703125 53.5625 
Q 30.078125 56 35.796875 56 
Q 45.21875 56 50.046875 50.171875 
Q 54.890625 44.34375 54.890625 33.015625 
z
" id="DejaVuSans-6e"/>
      <path d="M 8.015625 75.875 
L 15.828125 75.875 
Q 23.140625 64.359375 26.78125 53.3125 
Q 30.421875 42.28125 30.421875 31.390625 
Q 30.421875 20.453125 26.78125 9.375 
Q 23.140625 -1.703125 15.828125 -13.1875 
L 8.015625 -13.1875 
Q 14.5 -2 17.703125 9.0625 
Q 20.90625 20.125 20.90625 31.390625 
Q 20.90625 42.671875 17.703125 53.65625 
Q 14.5 64.65625 8.015625 75.875 
z
" id="DejaVuSans-29"/>
     </defs>
     <g transform="translate(73.803219 338.153594)scale(0.17 -0.17)">
      <use xlink:href="#DejaVuSans-6c"/>
      <use x="27.783203" xlink:href="#DejaVuSans-6f"/>
      <use x="88.964844" xlink:href="#DejaVuSans-67"/>
      <use x="152.441406" xlink:href="#DejaVuSans-31"/>
      <use x="216.064453" xlink:href="#DejaVuSans-30"/>
      <use x="279.6875" xlink:href="#DejaVuSans-28"/>
      <use x="318.701172" xlink:href="#DejaVuSans-23"/>
      <use x="402.490234" xlink:href="#DejaVuSans-20"/>
      <use x="434.277344" xlink:href="#DejaVuSans-66"/>
      <use x="469.404297" xlink:href="#DejaVuSans-2d"/>
      <use x="505.488281" xlink:href="#DejaVuSans-65"/>
      <use x="567.011719" xlink:href="#DejaVuSans-76"/>
      <use x="626.191406" xlink:href="#DejaVuSans-61"/>
      <use x="687.470703" xlink:href="#DejaVuSans-6c"/>
      <use x="715.253906" xlink:href="#DejaVuSans-73"/>
      <use x="767.353516" xlink:href="#DejaVuSans-20"/>
      <use x="799.140625" xlink:href="#DejaVuSans-2f"/>
      <use x="832.832031" xlink:href="#DejaVuSans-20"/>
      <use x="864.619141" xlink:href="#DejaVuSans-64"/>
      <use x="928.095703" xlink:href="#DejaVuSans-69"/>
      <use x="955.878906" xlink:href="#DejaVuSans-6d"/>
      <use x="1053.291016" xlink:href="#DejaVuSans-65"/>
      <use x="1114.814453" xlink:href="#DejaVuSans-6e"/>
      <use x="1178.193359" xlink:href="#DejaVuSans-73"/>
      <use x="1230.292969" xlink:href="#DejaVuSans-69"/>
      <use x="1258.076172" xlink:href="#DejaVuSans-6f"/>
      <use x="1319.257812" xlink:href="#DejaVuSans-6e"/>
      <use x="1382.636719" xlink:href="#DejaVuSans-29"/>
     </g>
    </g>
   </g>
   <g id="matplotlib.axis_2">
    <g id="ytick_1">
     <g id="line2d_29">
      <path clip-path="url(#p2d1052e25e)" d="M 56.12 294.88 
L 333.168 294.88 
" style="fill:none;stroke:#b0b0b0;stroke-linecap:square;stroke-width:0.8;"/>
     </g>
     <g id="line2d_30">
      <defs>
       <path d="M 0 0 
L -3.5 0 
" id="m39ef471a27" style="stroke:#000000;stroke-width:0.8;"/>
      </defs>
      <g>
       <use style="stroke:#000000;stroke-width:0.8;" x="56.12" xlink:href="#m39ef471a27" y="294.88"/>
      </g>
     </g>
     <g id="text_6">
      <!-- 0.0 -->
      <defs>
       <path d="M 10.6875 12.40625 
L 21 12.40625 
L 21 0 
L 10.6875 0 
z
" id="DejaVuSans-2e"/>
      </defs>
      <g transform="translate(23.675 300.95875)scale(0.16 -0.16)">
       <use xlink:href="#DejaVuSans-30"/>
       <use x="63.623047" xlink:href="#DejaVuSans-2e"/>
       <use x="95.410156" xlink:href="#DejaVuSans-30"/>
      </g>
     </g>
    </g>
    <g id="ytick_2">
     <g id="line2d_31">
      <path clip-path="url(#p2d1052e25e)" d="M 56.12 241.406733 
L 333.168 241.406733 
" style="fill:none;stroke:#b0b0b0;stroke-linecap:square;stroke-width:0.8;"/>
     </g>
     <g id="line2d_32">
      <g>
       <use style="stroke:#000000;stroke-width:0.8;" x="56.12" xlink:href="#m39ef471a27" y="241.406733"/>
      </g>
     </g>
     <g id="text_7">
      <!-- 0.2 -->
      <g transform="translate(23.675 247.485483)scale(0.16 -0.16)">
       <use xlink:href="#DejaVuSans-30"/>
       <use x="63.623047" xlink:href="#DejaVuSans-2e"/>
       <use x="95.410156" xlink:href="#DejaVuSans-32"/>
      </g>
     </g>
    </g>
    <g id="ytick_3">
     <g id="line2d_33">
      <path clip-path="url(#p2d1052e25e)" d="M 56.12 187.933465 
L 333.168 187.933465 
" style="fill:none;stroke:#b0b0b0;stroke-linecap:square;stroke-width:0.8;"/>
     </g>
     <g id="line2d_34">
      <g>
       <use style="stroke:#000000;stroke-width:0.8;" x="56.12" xlink:href="#m39ef471a27" y="187.933465"/>
      </g>
     </g>
     <g id="text_8">
      <!-- 0.4 -->
      <g transform="translate(23.675 194.012215)scale(0.16 -0.16)">
       <use xlink:href="#DejaVuSans-30"/>
       <use x="63.623047" xlink:href="#DejaVuSans-2e"/>
       <use x="95.410156" xlink:href="#DejaVuSans-34"/>
      </g>
     </g>
    </g>
    <g id="ytick_4">
     <g id="line2d_35">
      <path clip-path="url(#p2d1052e25e)" d="M 56.12 134.460198 
L 333.168 134.460198 
" style="fill:none;stroke:#b0b0b0;stroke-linecap:square;stroke-width:0.8;"/>
     </g>
     <g id="line2d_36">
      <g>
       <use style="stroke:#000000;stroke-width:0.8;" x="56.12" xlink:href="#m39ef471a27" y="134.460198"/>
      </g>
     </g>
     <g id="text_9">
      <!-- 0.6 -->
      <g transform="translate(23.675 140.538948)scale(0.16 -0.16)">
       <use xlink:href="#DejaVuSans-30"/>
       <use x="63.623047" xlink:href="#DejaVuSans-2e"/>
       <use x="95.410156" xlink:href="#DejaVuSans-36"/>
      </g>
     </g>
    </g>
    <g id="ytick_5">
     <g id="line2d_37">
      <path clip-path="url(#p2d1052e25e)" d="M 56.12 80.986931 
L 333.168 80.986931 
" style="fill:none;stroke:#b0b0b0;stroke-linecap:square;stroke-width:0.8;"/>
     </g>
     <g id="line2d_38">
      <g>
       <use style="stroke:#000000;stroke-width:0.8;" x="56.12" xlink:href="#m39ef471a27" y="80.986931"/>
      </g>
     </g>
     <g id="text_10">
      <!-- 0.8 -->
      <defs>
       <path d="M 31.78125 34.625 
Q 24.75 34.625 20.71875 30.859375 
Q 16.703125 27.09375 16.703125 20.515625 
Q 16.703125 13.921875 20.71875 10.15625 
Q 24.75 6.390625 31.78125 6.390625 
Q 38.8125 6.390625 42.859375 10.171875 
Q 46.921875 13.96875 46.921875 20.515625 
Q 46.921875 27.09375 42.890625 30.859375 
Q 38.875 34.625 31.78125 34.625 
z
M 21.921875 38.8125 
Q 15.578125 40.375 12.03125 44.71875 
Q 8.5 49.078125 8.5 55.328125 
Q 8.5 64.0625 14.71875 69.140625 
Q 20.953125 74.21875 31.78125 74.21875 
Q 42.671875 74.21875 48.875 69.140625 
Q 55.078125 64.0625 55.078125 55.328125 
Q 55.078125 49.078125 51.53125 44.71875 
Q 48 40.375 41.703125 38.8125 
Q 48.828125 37.15625 52.796875 32.3125 
Q 56.78125 27.484375 56.78125 20.515625 
Q 56.78125 9.90625 50.3125 4.234375 
Q 43.84375 -1.421875 31.78125 -1.421875 
Q 19.734375 -1.421875 13.25 4.234375 
Q 6.78125 9.90625 6.78125 20.515625 
Q 6.78125 27.484375 10.78125 32.3125 
Q 14.796875 37.15625 21.921875 38.8125 
z
M 18.3125 54.390625 
Q 18.3125 48.734375 21.84375 45.5625 
Q 25.390625 42.390625 31.78125 42.390625 
Q 38.140625 42.390625 41.71875 45.5625 
Q 45.3125 48.734375 45.3125 54.390625 
Q 45.3125 60.0625 41.71875 63.234375 
Q 38.140625 66.40625 31.78125 66.40625 
Q 25.390625 66.40625 21.84375 63.234375 
Q 18.3125 60.0625 18.3125 54.390625 
z
" id="DejaVuSans-38"/>
      </defs>
      <g transform="translate(23.675 87.065681)scale(0.16 -0.16)">
       <use xlink:href="#DejaVuSans-30"/>
       <use x="63.623047" xlink:href="#DejaVuSans-2e"/>
       <use x="95.410156" xlink:href="#DejaVuSans-38"/>
      </g>
     </g>
    </g>
    <g id="ytick_6">
     <g id="line2d_39">
      <path clip-path="url(#p2d1052e25e)" d="M 56.12 27.513663 
L 333.168 27.513663 
" style="fill:none;stroke:#b0b0b0;stroke-linecap:square;stroke-width:0.8;"/>
     </g>
     <g id="line2d_40">
      <g>
       <use style="stroke:#000000;stroke-width:0.8;" x="56.12" xlink:href="#m39ef471a27" y="27.513663"/>
      </g>
     </g>
     <g id="text_11">
      <!-- 1.0 -->
      <g transform="translate(23.675 33.592413)scale(0.16 -0.16)">
       <use xlink:href="#DejaVuSans-31"/>
       <use x="63.623047" xlink:href="#DejaVuSans-2e"/>
       <use x="95.410156" xlink:href="#DejaVuSans-30"/>
      </g>
     </g>
    </g>
    <g id="text_12">
     <!-- Fraction of function,target pairs -->
     <defs>
      <path d="M 9.8125 72.90625 
L 51.703125 72.90625 
L 51.703125 64.59375 
L 19.671875 64.59375 
L 19.671875 43.109375 
L 48.578125 43.109375 
L 48.578125 34.8125 
L 19.671875 34.8125 
L 19.671875 0 
L 9.8125 0 
z
" id="DejaVuSans-46"/>
      <path d="M 41.109375 46.296875 
Q 39.59375 47.171875 37.8125 47.578125 
Q 36.03125 48 33.890625 48 
Q 26.265625 48 22.1875 43.046875 
Q 18.109375 38.09375 18.109375 28.8125 
L 18.109375 0 
L 9.078125 0 
L 9.078125 54.6875 
L 18.109375 54.6875 
L 18.109375 46.1875 
Q 20.953125 51.171875 25.484375 53.578125 
Q 30.03125 56 36.53125 56 
Q 37.453125 56 38.578125 55.875 
Q 39.703125 55.765625 41.0625 55.515625 
z
" id="DejaVuSans-72"/>
      <path d="M 48.78125 52.59375 
L 48.78125 44.1875 
Q 44.96875 46.296875 41.140625 47.34375 
Q 37.3125 48.390625 33.40625 48.390625 
Q 24.65625 48.390625 19.8125 42.84375 
Q 14.984375 37.3125 14.984375 27.296875 
Q 14.984375 17.28125 19.8125 11.734375 
Q 24.65625 6.203125 33.40625 6.203125 
Q 37.3125 6.203125 41.140625 7.25 
Q 44.96875 8.296875 48.78125 10.40625 
L 48.78125 2.09375 
Q 45.015625 0.34375 40.984375 -0.53125 
Q 36.96875 -1.421875 32.421875 -1.421875 
Q 20.0625 -1.421875 12.78125 6.34375 
Q 5.515625 14.109375 5.515625 27.296875 
Q 5.515625 40.671875 12.859375 48.328125 
Q 20.21875 56 33.015625 56 
Q 37.15625 56 41.109375 55.140625 
Q 45.0625 54.296875 48.78125 52.59375 
z
" id="DejaVuSans-63"/>
      <path d="M 18.3125 70.21875 
L 18.3125 54.6875 
L 36.8125 54.6875 
L 36.8125 47.703125 
L 18.3125 47.703125 
L 18.3125 18.015625 
Q 18.3125 11.328125 20.140625 9.421875 
Q 21.96875 7.515625 27.59375 7.515625 
L 36.8125 7.515625 
L 36.8125 0 
L 27.59375 0 
Q 17.1875 0 13.234375 3.875 
Q 9.28125 7.765625 9.28125 18.015625 
L 9.28125 47.703125 
L 2.6875 47.703125 
L 2.6875 54.6875 
L 9.28125 54.6875 
L 9.28125 70.21875 
z
" id="DejaVuSans-74"/>
      <path d="M 8.5 21.578125 
L 8.5 54.6875 
L 17.484375 54.6875 
L 17.484375 21.921875 
Q 17.484375 14.15625 20.5 10.265625 
Q 23.53125 6.390625 29.59375 6.390625 
Q 36.859375 6.390625 41.078125 11.03125 
Q 45.3125 15.671875 45.3125 23.6875 
L 45.3125 54.6875 
L 54.296875 54.6875 
L 54.296875 0 
L 45.3125 0 
L 45.3125 8.40625 
Q 42.046875 3.421875 37.71875 1 
Q 33.40625 -1.421875 27.6875 -1.421875 
Q 18.265625 -1.421875 13.375 4.4375 
Q 8.5 10.296875 8.5 21.578125 
z
M 31.109375 56 
z
" id="DejaVuSans-75"/>
      <path d="M 11.71875 12.40625 
L 22.015625 12.40625 
L 22.015625 4 
L 14.015625 -11.625 
L 7.71875 -11.625 
L 11.71875 4 
z
" id="DejaVuSans-2c"/>
      <path d="M 18.109375 8.203125 
L 18.109375 -20.796875 
L 9.078125 -20.796875 
L 9.078125 54.6875 
L 18.109375 54.6875 
L 18.109375 46.390625 
Q 20.953125 51.265625 25.265625 53.625 
Q 29.59375 56 35.59375 56 
Q 45.5625 56 51.78125 48.09375 
Q 58.015625 40.1875 58.015625 27.296875 
Q 58.015625 14.40625 51.78125 6.484375 
Q 45.5625 -1.421875 35.59375 -1.421875 
Q 29.59375 -1.421875 25.265625 0.953125 
Q 20.953125 3.328125 18.109375 8.203125 
z
M 48.6875 27.296875 
Q 48.6875 37.203125 44.609375 42.84375 
Q 40.53125 48.484375 33.40625 48.484375 
Q 26.265625 48.484375 22.1875 42.84375 
Q 18.109375 37.203125 18.109375 27.296875 
Q 18.109375 17.390625 22.1875 11.75 
Q 26.265625 6.109375 33.40625 6.109375 
Q 40.53125 6.109375 44.609375 11.75 
Q 48.6875 17.390625 48.6875 27.296875 
z
" id="DejaVuSans-70"/>
     </defs>
     <g transform="translate(16.139531 294.999375)rotate(-90)scale(0.17 -0.17)">
      <use xlink:href="#DejaVuSans-46"/>
      <use x="57.410156" xlink:href="#DejaVuSans-72"/>
      <use x="98.523438" xlink:href="#DejaVuSans-61"/>
      <use x="159.802734" xlink:href="#DejaVuSans-63"/>
      <use x="214.783203" xlink:href="#DejaVuSans-74"/>
      <use x="253.992188" xlink:href="#DejaVuSans-69"/>
      <use x="281.775391" xlink:href="#DejaVuSans-6f"/>
      <use x="342.957031" xlink:href="#DejaVuSans-6e"/>
      <use x="406.335938" xlink:href="#DejaVuSans-20"/>
      <use x="438.123047" xlink:href="#DejaVuSans-6f"/>
      <use x="499.304688" xlink:href="#DejaVuSans-66"/>
      <use x="534.509766" xlink:href="#DejaVuSans-20"/>
      <use x="566.296875" xlink:href="#DejaVuSans-66"/>
      <use x="601.501953" xlink:href="#DejaVuSans-75"/>
      <use x="664.880859" xlink:href="#DejaVuSans-6e"/>
      <use x="728.259766" xlink:href="#DejaVuSans-63"/>
      <use x="783.240234" xlink:href="#DejaVuSans-74"/>
      <use x="822.449219" xlink:href="#DejaVuSans-69"/>
      <use x="850.232422" xlink:href="#DejaVuSans-6f"/>
      <use x="911.414062" xlink:href="#DejaVuSans-6e"/>
      <use x="974.792969" xlink:href="#DejaVuSans-2c"/>
      <use x="1006.580078" xlink:href="#DejaVuSans-74"/>
      <use x="1045.789062" xlink:href="#DejaVuSans-61"/>
      <use x="1107.068359" xlink:href="#DejaVuSans-72"/>
      <use x="1148.166016" xlink:href="#DejaVuSans-67"/>
      <use x="1211.642578" xlink:href="#DejaVuSans-65"/>
      <use x="1273.166016" xlink:href="#DejaVuSans-74"/>
      <use x="1312.375" xlink:href="#DejaVuSans-20"/>
      <use x="1344.162109" xlink:href="#DejaVuSans-70"/>
      <use x="1407.638672" xlink:href="#DejaVuSans-61"/>
      <use x="1468.917969" xlink:href="#DejaVuSans-69"/>
      <use x="1496.701172" xlink:href="#DejaVuSans-72"/>
      <use x="1537.814453" xlink:href="#DejaVuSans-73"/>
     </g>
    </g>
   </g>
   <g id="line2d_41">
    <defs>
     <path d="M 0 1.5 
C 0.397805 1.5 0.77937 1.341951 1.06066 1.06066 
C 1.341951 0.77937 1.5 0.397805 1.5 0 
C 1.5 -0.397805 1.341951 -0.77937 1.06066 -1.06066 
C 0.77937 -1.341951 0.397805 -1.5 0 -1.5 
C -0.397805 -1.5 -0.77937 -1.341951 -1.06066 -1.06066 
C -1.341951 -0.77937 -1.5 -0.397805 -1.5 0 
C -1.5 0.397805 -1.341951 0.77937 -1.06066 1.06066 
C -0.77937 1.341951 -0.397805 1.5 0 1.5 
z
" id="md8d5214c4a" style="stroke:#f5deb3;"/>
    </defs>
    <g>
     <use style="fill:#f5deb3;stroke:#f5deb3;" x="140.447686" xlink:href="#md8d5214c4a" y="27.513663"/>
     <use style="fill:#f5deb3;stroke:#f5deb3;" x="140.447686" xlink:href="#md8d5214c4a" y="27.513663"/>
    </g>
   </g>
   <g id="line2d_42">
    <defs>
     <path d="M 0 1.5 
C 0.397805 1.5 0.77937 1.341951 1.06066 1.06066 
C 1.341951 0.77937 1.5 0.397805 1.5 0 
C 1.5 -0.397805 1.341951 -0.77937 1.06066 -1.06066 
C 0.77937 -1.341951 0.397805 -1.5 0 -1.5 
C -0.397805 -1.5 -0.77937 -1.341951 -1.06066 -1.06066 
C -1.341951 -0.77937 -1.5 -0.397805 -1.5 0 
C -1.5 0.397805 -1.341951 0.77937 -1.06066 1.06066 
C -0.77937 1.341951 -0.397805 1.5 0 1.5 
z
" id="m91184309b3" style="stroke:#000080;"/>
    </defs>
    <g>
     <use style="fill:#000080;stroke:#000080;" x="194.966662" xlink:href="#m91184309b3" y="27.513663"/>
     <use style="fill:#000080;stroke:#000080;" x="194.966662" xlink:href="#m91184309b3" y="27.513663"/>
    </g>
   </g>
   <g id="line2d_43">
    <path d="M 129.772681 294.88 
L 129.772681 294.355752 
L 131.224827 294.355752 
L 131.333273 293.307257 
L 133.000983 293.307257 
L 133.000983 292.258761 
L 133.176677 292.258761 
L 133.176677 291.734514 
L 135.173129 291.734514 
L 135.173129 291.210266 
L 135.396473 291.210266 
L 135.396473 290.686018 
L 136.180564 290.686018 
L 136.180564 290.161771 
L 136.77361 290.161771 
L 136.82081 288.589027 
L 138.778873 288.589027 
L 138.820881 287.540532 
L 139.303546 287.540532 
L 139.303546 287.016284 
L 139.996515 287.016284 
L 139.996515 286.492036 
L 140.750355 286.492036 
L 140.750355 285.967789 
L 141.67509 285.967789 
L 141.67509 285.443541 
L 142.450997 285.443541 
L 142.450997 284.919293 
L 142.586342 284.919293 
L 142.586342 284.395046 
L 142.997068 284.395046 
L 143.084598 282.822302 
L 143.547583 282.822302 
L 143.547583 282.298055 
L 143.664045 282.298055 
L 143.664045 281.773807 
L 143.988072 281.773807 
L 143.988072 281.249559 
L 144.377111 281.249559 
L 144.377111 280.725312 
L 144.68809 280.725312 
L 144.68809 280.201064 
L 144.806974 280.201064 
L 144.806974 279.676816 
L 145.446535 279.676816 
L 145.446535 279.152568 
L 145.588629 279.152568 
L 145.588629 278.628321 
L 145.7202 278.628321 
L 145.822874 277.055578 
L 145.980357 277.055578 
L 145.980357 276.53133 
L 146.72918 276.53133 
L 146.72918 275.482834 
L 147.096024 275.482834 
L 147.096024 274.958587 
L 147.682202 274.958587 
L 147.682202 274.434339 
L 147.939186 274.434339 
L 147.939186 273.910091 
L 148.151798 273.910091 
L 148.200491 272.861596 
L 148.281341 272.861596 
L 148.281341 272.337348 
L 148.766456 272.337348 
L 148.766456 271.8131 
L 149.215352 271.8131 
L 149.215352 271.288853 
L 149.623006 271.288853 
L 149.623006 270.764605 
L 149.896846 270.764605 
L 149.896846 270.240357 
L 150.474427 270.240357 
L 150.474427 269.716109 
L 150.62288 269.716109 
L 150.62288 268.667614 
L 151.0401 268.667614 
L 151.0401 268.143366 
L 151.434009 268.143366 
L 151.440722 267.094871 
L 152.040885 267.094871 
L 152.040885 266.570623 
L 153.193908 266.570623 
L 153.193908 266.046375 
L 153.660271 266.046375 
L 153.660271 265.522128 
L 153.789554 265.522128 
L 153.789554 264.99788 
L 154.22883 264.99788 
L 154.22883 264.473632 
L 154.757061 264.473632 
L 154.757061 263.949385 
L 155.06964 263.949385 
L 155.06964 263.425137 
L 158.246014 263.425137 
L 158.246014 262.900889 
L 160.491473 262.900889 
L 160.491473 262.376641 
L 161.056875 262.376641 
L 161.056875 261.852394 
L 161.481214 261.852394 
L 161.481214 261.328146 
L 162.740052 261.328146 
L 162.740052 260.803898 
L 164.377672 260.803898 
L 164.377672 260.279651 
L 164.603841 260.279651 
L 164.603841 259.755403 
L 165.459113 259.755403 
L 165.459113 259.231155 
L 165.648098 259.231155 
L 165.648098 258.706907 
L 165.945063 258.706907 
L 165.945063 258.18266 
L 166.117382 258.18266 
L 166.117382 257.658412 
L 166.26534 257.658412 
L 166.324733 256.609917 
L 167.040857 256.609917 
L 167.040857 256.085669 
L 167.354825 256.085669 
L 167.354825 255.561421 
L 167.75953 255.561421 
L 167.75953 255.037173 
L 168.07606 255.037173 
L 168.07606 254.512926 
L 168.630539 254.512926 
L 168.630539 253.988678 
L 168.768246 253.988678 
L 168.768246 253.46443 
L 169.162903 253.46443 
L 169.244094 252.415935 
L 169.438345 252.415935 
L 169.438345 251.891687 
L 169.663006 251.891687 
L 169.663006 251.367439 
L 169.818078 251.367439 
L 169.818078 250.843192 
L 170.037861 250.843192 
L 170.053778 249.270448 
L 170.176069 249.270448 
L 170.176069 248.746201 
L 170.515697 248.746201 
L 170.515697 248.221953 
L 170.656714 248.221953 
L 170.656714 247.697705 
L 171.012878 247.697705 
L 171.0965 246.64921 
L 171.262534 246.64921 
L 171.323858 245.076467 
L 171.647964 245.076467 
L 171.740926 243.503724 
L 171.802623 243.503724 
L 171.802623 242.979476 
L 172.206364 242.979476 
L 172.286386 241.93098 
L 172.512425 241.93098 
L 172.577306 240.358237 
L 172.638033 240.358237 
L 172.638033 239.83399 
L 172.75302 239.83399 
L 172.770493 238.785494 
L 172.898089 238.785494 
L 172.940412 237.736999 
L 173.207321 237.736999 
L 173.207321 237.212751 
L 173.483186 237.212751 
L 173.501792 236.164255 
L 173.600072 236.164255 
L 173.624092 234.591512 
L 173.740027 234.591512 
L 173.79496 233.018769 
L 173.878852 233.018769 
L 173.880671 231.970274 
L 174.038208 231.970274 
L 174.106567 229.873283 
L 174.176443 229.873283 
L 174.176443 229.349035 
L 174.311802 229.349035 
L 174.317123 228.30054 
L 174.530386 228.30054 
L 174.612516 227.252044 
L 174.669948 227.252044 
L 174.734114 226.203549 
L 174.835939 226.203549 
L 174.918338 224.630806 
L 174.966222 224.630806 
L 174.966222 224.106558 
L 175.171629 224.106558 
L 175.277612 217.815585 
L 175.285996 217.815585 
L 175.381279 216.242842 
L 175.417915 216.242842 
L 175.417915 215.718594 
L 175.535617 215.718594 
L 175.590051 214.145851 
L 175.660722 214.145851 
L 175.693493 212.573108 
L 175.783294 212.573108 
L 175.854798 211.000365 
L 175.898529 211.000365 
L 176.000137 208.379126 
L 176.014604 208.379126 
L 176.113932 205.23364 
L 176.136282 205.23364 
L 176.136282 204.709392 
L 176.265025 204.709392 
L 176.362921 200.515411 
L 176.493109 200.515411 
L 176.600592 195.272933 
L 176.61301 195.272933 
L 176.719748 192.651695 
L 176.775175 192.651695 
L 176.867159 187.933465 
L 176.906866 187.933465 
L 176.999667 183.215236 
L 177.091969 183.215236 
L 177.197283 177.972759 
L 177.248203 177.972759 
L 177.343646 174.827272 
L 177.376333 174.827272 
L 177.465163 171.681786 
L 177.488774 171.681786 
L 177.593157 166.963557 
L 177.616593 166.963557 
L 177.727478 159.099841 
L 177.739109 159.099841 
L 177.837653 154.905859 
L 177.853541 154.905859 
L 177.94569 151.760373 
L 177.978685 151.760373 
L 178.084418 148.090639 
L 178.110039 148.090639 
L 178.206485 139.178427 
L 178.231924 139.178427 
L 178.340326 133.411703 
L 178.345939 133.411703 
L 178.446653 127.644978 
L 178.473133 127.644978 
L 178.575876 123.975244 
L 178.600775 123.975244 
L 178.690389 119.781262 
L 178.745305 119.781262 
L 178.847802 113.490289 
L 178.876392 113.490289 
L 178.98352 107.723564 
L 179.036161 107.723564 
L 179.135603 101.432592 
L 179.221145 101.432592 
L 179.273065 98.811353 
L 179.335427 98.811353 
L 179.422618 96.714362 
L 179.454215 96.714362 
L 179.563042 91.471885 
L 179.565655 91.471885 
L 179.671183 86.229408 
L 179.713991 86.229408 
L 179.801867 83.608169 
L 179.83792 83.608169 
L 179.927725 79.414188 
L 179.950742 79.414188 
L 180.041233 74.695958 
L 180.069175 74.695958 
L 180.124925 72.074719 
L 180.217022 72.074719 
L 180.301117 65.783747 
L 180.364855 65.783747 
L 180.44699 63.162508 
L 180.497817 63.162508 
L 180.497817 62.638261 
L 180.621157 62.638261 
L 180.689843 60.54127 
L 180.769225 60.54127 
L 180.867637 57.920031 
L 180.89185 57.920031 
L 180.89185 57.395783 
L 181.099879 57.395783 
L 181.099879 56.871536 
L 181.243897 56.871536 
L 181.243897 56.347288 
L 191.164704 56.347288 
L 191.164704 55.82304 
L 191.477946 55.82304 
L 191.477946 55.298792 
L 191.610095 55.298792 
L 191.610095 54.774545 
L 191.955484 54.774545 
L 192.044868 53.726049 
L 192.349443 53.726049 
L 192.45472 52.677554 
L 192.684085 52.677554 
L 192.684085 52.153306 
L 192.901409 52.153306 
L 192.901409 51.629058 
L 193.041002 51.629058 
L 193.041002 51.104811 
L 193.161111 51.104811 
L 193.161111 50.580563 
L 193.442031 50.580563 
L 193.457763 49.532068 
L 193.629291 49.532068 
L 193.629291 49.00782 
L 193.823087 49.00782 
L 193.933907 47.435077 
L 194.000622 47.435077 
L 194.108063 44.813838 
L 194.136079 44.813838 
L 194.208706 43.241095 
L 194.252136 43.241095 
L 194.359127 42.192599 
L 194.419809 42.192599 
L 194.513172 37.47437 
L 194.538895 37.47437 
L 194.647382 35.377379 
L 194.681043 35.377379 
L 194.750328 32.231893 
L 194.872518 32.231893 
L 194.966662 27.513663 
L 333.168 27.513663 
L 333.168 27.513663 
" style="fill:none;stroke:#000080;stroke-linecap:square;stroke-width:1.5;"/>
   </g>
   <g id="line2d_44">
    <defs>
     <path d="M 0 6 
C 1.591219 6 3.117479 5.367802 4.242641 4.242641 
C 5.367802 3.117479 6 1.591219 6 0 
C 6 -1.591219 5.367802 -3.117479 4.242641 -4.242641 
C 3.117479 -5.367802 1.591219 -6 0 -6 
C -1.591219 -6 -3.117479 -5.367802 -4.242641 -4.242641 
C -5.367802 -3.117479 -6 -1.591219 -6 0 
C -6 1.591219 -5.367802 3.117479 -4.242641 4.242641 
C -3.117479 5.367802 -1.591219 6 0 6 
z
" id="mbb53a4821c" style="stroke:#000080;stroke-width:1.5;"/>
    </defs>
    <g>
     <use style="fill-opacity:0;stroke:#000080;stroke-width:1.5;" x="178.158329" xlink:href="#mbb53a4821c" y="141.799666"/>
     <use style="fill-opacity:0;stroke:#000080;stroke-width:1.5;" x="194.966662" xlink:href="#mbb53a4821c" y="28.037911"/>
     <use style="fill-opacity:0;stroke:#000080;stroke-width:1.5;" x="194.966662" xlink:href="#mbb53a4821c" y="27.513663"/>
     <use style="fill-opacity:0;stroke:#000080;stroke-width:1.5;" x="194.966662" xlink:href="#mbb53a4821c" y="27.513663"/>
     <use style="fill-opacity:0;stroke:#000080;stroke-width:1.5;" x="333.168" xlink:href="#mbb53a4821c" y="27.513663"/>
    </g>
   </g>
   <g id="line2d_45">
    <path style="fill:none;stroke:#000080;stroke-linecap:square;stroke-width:1.5;"/>
    <g/>
   </g>
   <g id="line2d_46">
    <defs>
     <path d="M 0 1.5 
C 0.397805 1.5 0.77937 1.341951 1.06066 1.06066 
C 1.341951 0.77937 1.5 0.397805 1.5 0 
C 1.5 -0.397805 1.341951 -0.77937 1.06066 -1.06066 
C 0.77937 -1.341951 0.397805 -1.5 0 -1.5 
C -0.397805 -1.5 -0.77937 -1.341951 -1.06066 -1.06066 
C -1.341951 -0.77937 -1.5 -0.397805 -1.5 0 
C -1.5 0.397805 -1.341951 0.77937 -1.06066 1.06066 
C -0.77937 1.341951 -0.397805 1.5 0 1.5 
z
" id="m9890f0c4e7" style="stroke:#ff00ff;"/>
    </defs>
    <g>
     <use style="fill:#ff00ff;stroke:#ff00ff;" x="192.710261" xlink:href="#m9890f0c4e7" y="27.513663"/>
     <use style="fill:#ff00ff;stroke:#ff00ff;" x="192.710261" xlink:href="#m9890f0c4e7" y="27.513663"/>
    </g>
   </g>
   <g id="line2d_47">
    <path d="M 119.483763 294.88 
L 119.483763 294.355752 
L 122.298767 294.355752 
L 122.298767 293.831505 
L 123.085078 293.831505 
L 123.085078 293.307257 
L 123.327909 293.307257 
L 123.430938 291.734514 
L 124.036471 291.734514 
L 124.036471 290.686018 
L 124.168185 290.686018 
L 124.168185 290.161771 
L 124.875107 290.161771 
L 124.937954 288.589027 
L 126.467507 288.589027 
L 126.496178 287.016284 
L 126.581907 287.016284 
L 126.581907 286.492036 
L 126.780294 286.492036 
L 126.780294 285.967789 
L 127.115148 285.967789 
L 127.170329 284.919293 
L 127.28016 284.919293 
L 127.28016 284.395046 
L 127.470694 284.395046 
L 127.497741 283.34655 
L 127.819033 283.34655 
L 127.819033 282.822302 
L 128.160453 282.822302 
L 128.160453 282.298055 
L 129.047315 282.298055 
L 129.047315 281.773807 
L 129.268157 281.773807 
L 129.268157 281.249559 
L 129.796341 281.249559 
L 129.796341 280.725312 
L 129.961052 280.725312 
L 129.961052 280.201064 
L 130.308777 280.201064 
L 130.308777 279.676816 
L 130.536746 279.676816 
L 130.536746 279.152568 
L 130.806377 279.152568 
L 130.806377 278.628321 
L 131.548134 278.628321 
L 131.612072 277.579825 
L 131.865471 277.579825 
L 131.949115 276.007082 
L 132.563791 276.007082 
L 132.603999 274.434339 
L 132.763894 274.434339 
L 132.763894 273.910091 
L 133.040181 273.910091 
L 133.040181 273.385844 
L 133.36981 273.385844 
L 133.36981 272.861596 
L 133.560797 272.861596 
L 133.560797 271.8131 
L 134.231294 271.8131 
L 134.231294 271.288853 
L 134.503128 271.288853 
L 134.503128 270.764605 
L 135.051654 270.764605 
L 135.051654 270.240357 
L 135.190413 270.240357 
L 135.24216 269.191862 
L 135.413533 269.191862 
L 135.515543 267.619119 
L 135.583215 267.619119 
L 135.583215 267.094871 
L 136.016705 267.094871 
L 136.016705 266.570623 
L 136.261911 266.570623 
L 136.261911 266.046375 
L 136.867881 266.046375 
L 136.867881 265.522128 
L 137.513684 265.522128 
L 137.513684 264.99788 
L 139.276327 264.99788 
L 139.276327 264.473632 
L 140.204235 264.473632 
L 140.204235 263.949385 
L 142.130987 263.949385 
L 142.130987 263.425137 
L 146.209359 263.425137 
L 146.209359 262.900889 
L 147.199415 262.900889 
L 147.199415 262.376641 
L 148.899248 262.376641 
L 148.899248 261.852394 
L 149.054171 261.852394 
L 149.054171 261.328146 
L 149.889502 261.328146 
L 149.889502 260.803898 
L 150.714141 260.803898 
L 150.714141 260.279651 
L 151.587749 260.279651 
L 151.587749 259.755403 
L 152.361937 259.755403 
L 152.361937 259.231155 
L 155.609922 259.231155 
L 155.609922 258.706907 
L 155.829688 258.706907 
L 155.829688 258.18266 
L 156.326756 258.18266 
L 156.326756 257.658412 
L 156.602341 257.658412 
L 156.602341 257.134164 
L 156.819671 257.134164 
L 156.819671 256.609917 
L 157.564092 256.609917 
L 157.564092 256.085669 
L 158.354091 256.085669 
L 158.385485 255.037173 
L 158.59038 255.037173 
L 158.59038 254.512926 
L 158.749045 254.512926 
L 158.749045 253.988678 
L 159.036181 253.988678 
L 159.036181 253.46443 
L 159.853438 253.46443 
L 159.853438 252.940182 
L 160.255981 252.940182 
L 160.255981 252.415935 
L 160.5192 252.415935 
L 160.5192 251.891687 
L 160.751137 251.891687 
L 160.832941 250.843192 
L 160.90662 250.843192 
L 160.914358 249.794696 
L 161.213431 249.794696 
L 161.213431 249.270448 
L 162.621389 249.270448 
L 162.705236 248.221953 
L 162.795612 248.221953 
L 162.857902 246.64921 
L 163.462027 246.64921 
L 163.462027 246.124962 
L 163.584981 246.124962 
L 163.584981 245.600714 
L 164.074626 245.600714 
L 164.074626 245.076467 
L 164.260278 245.076467 
L 164.358689 243.503724 
L 164.46598 243.503724 
L 164.519376 241.93098 
L 164.625672 241.93098 
L 164.625672 241.406733 
L 165.189787 241.406733 
L 165.189787 240.882485 
L 165.304017 240.882485 
L 165.357863 239.83399 
L 165.447232 239.83399 
L 165.453173 238.785494 
L 165.718435 238.785494 
L 165.791398 237.736999 
L 165.852449 237.736999 
L 165.852449 237.212751 
L 166.148787 237.212751 
L 166.148787 236.688503 
L 166.431687 236.688503 
L 166.470924 235.11576 
L 166.576976 235.11576 
L 166.635304 234.067265 
L 166.751369 234.067265 
L 166.751369 233.543017 
L 166.869391 233.543017 
L 166.899453 232.494521 
L 167.078729 232.494521 
L 167.111125 231.446026 
L 167.245454 231.446026 
L 167.25348 230.397531 
L 167.381396 230.397531 
L 167.381396 229.873283 
L 167.600363 229.873283 
L 167.694475 228.30054 
L 167.795853 228.30054 
L 167.824339 227.252044 
L 168.027544 227.252044 
L 168.065857 225.679301 
L 168.386866 225.679301 
L 168.489231 223.058063 
L 168.501673 223.058063 
L 168.538946 221.485319 
L 168.650279 221.485319 
L 168.748641 220.436824 
L 168.814718 220.436824 
L 168.921858 218.339833 
L 168.967918 218.339833 
L 168.967918 217.815585 
L 169.141347 217.815585 
L 169.236946 215.194347 
L 169.279792 215.194347 
L 169.388807 213.621604 
L 169.421848 213.621604 
L 169.511213 212.04886 
L 169.63974 212.04886 
L 169.67695 211.000365 
L 169.875584 211.000365 
L 169.98546 208.903374 
L 170.044684 208.903374 
L 170.099172 207.330631 
L 170.171555 207.330631 
L 170.221142 206.282136 
L 170.290773 206.282136 
L 170.398034 204.185145 
L 170.431417 204.185145 
L 170.466953 203.136649 
L 170.559889 203.136649 
L 170.603968 201.039658 
L 170.713674 201.039658 
L 170.796584 199.991163 
L 170.868263 199.991163 
L 170.978453 197.369924 
L 170.98276 197.369924 
L 171.090082 194.224438 
L 171.0965 194.224438 
L 171.18823 191.603199 
L 171.279473 191.603199 
L 171.351277 189.506209 
L 171.420684 189.506209 
L 171.529486 186.360722 
L 171.537827 186.360722 
L 171.631385 182.16674 
L 171.654178 182.16674 
L 171.755342 180.593997 
L 171.821089 180.593997 
L 171.882499 177.972759 
L 171.947762 177.972759 
L 172.037096 175.35152 
L 172.071487 175.35152 
L 172.170232 171.681786 
L 172.194328 171.681786 
L 172.2784 168.012052 
L 172.324266 168.012052 
L 172.429492 165.915061 
L 172.484825 165.915061 
L 172.587115 162.769575 
L 172.641943 162.769575 
L 172.641943 162.245327 
L 172.780193 162.245327 
L 172.884601 158.575593 
L 172.934647 158.575593 
L 173.036213 157.527098 
L 173.093439 157.527098 
L 173.165652 155.954354 
L 173.211104 155.954354 
L 173.267752 153.333116 
L 173.331727 153.333116 
L 173.442181 148.614886 
L 173.451509 148.614886 
L 173.533377 146.517896 
L 173.598223 146.517896 
L 173.659139 145.4694 
L 173.765684 145.4694 
L 173.867933 139.178427 
L 173.8934 139.178427 
L 173.980431 137.081437 
L 174.023782 137.081437 
L 174.086807 133.411703 
L 174.156764 133.411703 
L 174.23713 131.838959 
L 174.2905 131.838959 
L 174.38615 128.693473 
L 174.405569 128.693473 
L 174.511108 125.023739 
L 174.528635 125.023739 
L 174.609029 120.829757 
L 174.649086 120.829757 
L 174.751415 118.208519 
L 174.784239 118.208519 
L 174.860013 116.635776 
L 174.908059 116.635776 
L 174.993524 111.917546 
L 175.022486 111.917546 
L 175.132773 105.102326 
L 175.147988 105.102326 
L 175.230589 103.005335 
L 175.259154 103.005335 
L 175.367938 98.811353 
L 175.404602 98.811353 
L 175.504198 95.665867 
L 175.525702 95.665867 
L 175.631174 91.471885 
L 175.77352 91.471885 
L 175.859663 88.326399 
L 175.929236 88.326399 
L 176.003353 85.70516 
L 176.054725 85.70516 
L 176.161789 79.938435 
L 176.180895 79.938435 
L 176.280852 76.792949 
L 176.362921 76.792949 
L 176.460263 74.695958 
L 176.513411 74.695958 
L 176.622318 70.501976 
L 176.733622 70.501976 
L 176.796682 67.880738 
L 176.857983 67.880738 
L 176.896185 65.783747 
L 176.976893 65.783747 
L 176.986006 64.735251 
L 177.122125 64.735251 
L 177.227254 62.114013 
L 177.237732 62.114013 
L 177.312387 60.017022 
L 177.374848 60.017022 
L 177.426726 58.968526 
L 177.510879 58.968526 
L 177.597554 56.871536 
L 177.644381 56.871536 
L 177.755088 53.726049 
L 177.938508 53.726049 
L 178.03449 52.677554 
L 178.064464 52.677554 
L 178.141301 51.629058 
L 178.192335 51.629058 
L 178.258736 49.00782 
L 178.316452 49.00782 
L 178.407557 47.959324 
L 178.502352 47.959324 
L 178.541234 46.386581 
L 178.639436 46.386581 
L 178.676633 45.338086 
L 178.866867 45.338086 
L 178.866867 44.813838 
L 179.017283 44.813838 
L 179.065785 43.765343 
L 179.225145 43.765343 
L 179.331453 42.716847 
L 184.650753 42.716847 
L 184.650753 42.192599 
L 186.47876 42.192599 
L 186.47876 41.668352 
L 186.927372 41.668352 
L 186.927372 41.144104 
L 188.125353 41.144104 
L 188.125353 40.619856 
L 188.699415 40.619856 
L 188.699415 40.095609 
L 188.831792 40.095609 
L 188.831792 39.571361 
L 189.028842 39.571361 
L 189.028842 39.047113 
L 189.315799 39.047113 
L 189.315799 38.522865 
L 189.541087 38.522865 
L 189.541087 37.998618 
L 189.713568 37.998618 
L 189.736001 36.950122 
L 189.86353 36.950122 
L 189.86353 36.425875 
L 190.364391 36.425875 
L 190.364391 35.901627 
L 190.891687 35.901627 
L 190.891687 35.377379 
L 191.080645 35.377379 
L 191.190639 33.804636 
L 191.405256 33.804636 
L 191.470103 32.756141 
L 191.656722 32.756141 
L 191.656722 32.231893 
L 191.857964 32.231893 
L 191.857964 31.707645 
L 192.038544 31.707645 
L 192.131273 30.65915 
L 192.29033 30.65915 
L 192.395968 29.086407 
L 192.512657 29.086407 
L 192.512657 28.562159 
L 192.710261 28.562159 
L 192.710261 27.513663 
L 333.168 27.513663 
L 333.168 27.513663 
" style="fill:none;stroke:#ff00ff;stroke-linecap:square;stroke-width:1.5;"/>
   </g>
   <g id="line2d_48">
    <defs>
     <path d="M -0 8.485281 
L 5.091169 0 
L 0 -8.485281 
L -5.091169 -0 
z
" id="m3d212bd60a" style="stroke:#ff00ff;stroke-linejoin:miter;stroke-width:1.5;"/>
    </defs>
    <g>
     <use style="fill-opacity:0;stroke:#ff00ff;stroke-linejoin:miter;stroke-width:1.5;" x="175.980829" xlink:href="#m3d212bd60a" y="86.229408"/>
     <use style="fill-opacity:0;stroke:#ff00ff;stroke-linejoin:miter;stroke-width:1.5;" x="192.710261" xlink:href="#m3d212bd60a" y="28.562159"/>
     <use style="fill-opacity:0;stroke:#ff00ff;stroke-linejoin:miter;stroke-width:1.5;" x="192.710261" xlink:href="#m3d212bd60a" y="27.513663"/>
     <use style="fill-opacity:0;stroke:#ff00ff;stroke-linejoin:miter;stroke-width:1.5;" x="192.710261" xlink:href="#m3d212bd60a" y="27.513663"/>
     <use style="fill-opacity:0;stroke:#ff00ff;stroke-linejoin:miter;stroke-width:1.5;" x="333.168" xlink:href="#m3d212bd60a" y="27.513663"/>
    </g>
   </g>
   <g id="line2d_49">
    <path style="fill:none;stroke:#ff00ff;stroke-linecap:square;stroke-width:1.5;"/>
    <g/>
   </g>
   <g id="line2d_50">
    <defs>
     <path d="M 0 1.5 
C 0.397805 1.5 0.77937 1.341951 1.06066 1.06066 
C 1.341951 0.77937 1.5 0.397805 1.5 0 
C 1.5 -0.397805 1.341951 -0.77937 1.06066 -1.06066 
C 0.77937 -1.341951 0.397805 -1.5 0 -1.5 
C -0.397805 -1.5 -0.77937 -1.341951 -1.06066 -1.06066 
C -1.341951 -0.77937 -1.5 -0.397805 -1.5 0 
C -1.5 0.397805 -1.341951 0.77937 -1.06066 1.06066 
C -0.77937 1.341951 -0.397805 1.5 0 1.5 
z
" id="m2848e1bcd2" style="stroke:#ff7500;"/>
    </defs>
    <g>
     <use style="fill:#ff7500;stroke:#ff7500;" x="191.028402" xlink:href="#m2848e1bcd2" y="27.513663"/>
     <use style="fill:#ff7500;stroke:#ff7500;" x="191.028402" xlink:href="#m2848e1bcd2" y="27.513663"/>
    </g>
   </g>
   <g id="line2d_51">
    <path d="M 121.589472 294.88 
L 121.589472 294.355752 
L 123.327909 294.355752 
L 123.327909 293.831505 
L 123.499282 293.831505 
L 123.499282 293.307257 
L 125.187069 293.307257 
L 125.187069 292.258761 
L 125.463074 292.258761 
L 125.463074 291.734514 
L 126.524802 291.734514 
L 126.524802 291.210266 
L 127.032044 291.210266 
L 127.032044 290.686018 
L 127.307509 290.686018 
L 127.307509 290.161771 
L 127.470694 290.161771 
L 127.470694 289.637523 
L 127.712602 289.637523 
L 127.712602 289.113275 
L 128.341524 289.113275 
L 128.341524 288.589027 
L 129.772681 288.589027 
L 129.819968 287.540532 
L 130.077743 287.540532 
L 130.077743 287.016284 
L 130.193648 287.016284 
L 130.193648 286.492036 
L 131.137575 286.492036 
L 131.137575 285.967789 
L 131.990784 285.967789 
L 131.990784 285.443541 
L 132.197629 285.443541 
L 132.197629 284.919293 
L 132.402015 284.919293 
L 132.46286 283.870798 
L 132.583907 283.870798 
L 132.603999 282.822302 
L 132.803637 282.822302 
L 132.803637 282.298055 
L 133.118312 282.298055 
L 133.196088 281.249559 
L 134.176407 281.249559 
L 134.231294 280.201064 
L 134.449104 280.201064 
L 134.449104 279.676816 
L 134.681992 279.676816 
L 134.681992 279.152568 
L 134.876616 279.152568 
L 134.8942 278.104073 
L 135.173129 278.104073 
L 135.24216 276.53133 
L 135.633795 276.53133 
L 135.633795 276.007082 
L 136.000233 276.007082 
L 136.000233 275.482834 
L 136.147917 275.482834 
L 136.147917 274.958587 
L 136.519665 274.958587 
L 136.519665 274.434339 
L 136.77361 274.434339 
L 136.852205 272.861596 
L 136.992776 272.861596 
L 136.992776 272.337348 
L 137.558897 272.337348 
L 137.648969 271.288853 
L 138.106965 271.288853 
L 138.106965 270.764605 
L 138.324271 270.764605 
L 138.324271 270.240357 
L 138.496158 270.240357 
L 138.496158 269.716109 
L 138.820881 269.716109 
L 138.820881 269.191862 
L 139.411992 269.191862 
L 139.411992 268.667614 
L 139.996515 268.667614 
L 139.996515 268.143366 
L 140.178407 268.143366 
L 140.178407 267.619119 
L 140.712812 267.619119 
L 140.712812 267.094871 
L 141.218941 267.094871 
L 141.218941 266.570623 
L 141.484501 266.570623 
L 141.484501 266.046375 
L 142.130987 266.046375 
L 142.130987 265.522128 
L 142.586342 265.522128 
L 142.586342 264.99788 
L 142.887025 264.99788 
L 142.887025 264.473632 
L 143.084598 264.473632 
L 143.084598 263.949385 
L 143.579424 263.949385 
L 143.579424 263.425137 
L 144.050088 263.425137 
L 144.050088 262.900889 
L 144.204155 262.900889 
L 144.204155 262.376641 
L 144.407453 262.376641 
L 144.407453 261.852394 
L 144.934844 261.852394 
L 144.934844 261.328146 
L 145.332007 261.328146 
L 145.332007 260.803898 
L 146.587344 260.803898 
L 146.587344 260.279651 
L 146.746827 260.279651 
L 146.746827 259.755403 
L 151.647536 259.755403 
L 151.647536 259.231155 
L 152.89433 259.231155 
L 152.89433 258.706907 
L 153.719157 258.706907 
L 153.719157 258.18266 
L 154.472484 258.18266 
L 154.472484 257.658412 
L 155.123897 257.658412 
L 155.123897 257.134164 
L 155.419288 257.134164 
L 155.419288 256.609917 
L 156.888249 256.609917 
L 156.888249 256.085669 
L 157.954443 256.085669 
L 157.954443 255.561421 
L 158.407875 255.561421 
L 158.407875 255.037173 
L 159.122254 255.037173 
L 159.122254 254.512926 
L 159.72957 254.512926 
L 159.783356 253.46443 
L 159.951893 253.46443 
L 159.951893 252.940182 
L 160.645384 252.940182 
L 160.645384 252.415935 
L 161.19061 252.415935 
L 161.228629 251.367439 
L 161.858757 251.367439 
L 161.866078 250.318944 
L 162.249671 250.318944 
L 162.249671 249.794696 
L 163.135448 249.794696 
L 163.230357 248.746201 
L 163.785789 248.746201 
L 163.785789 248.221953 
L 164.045637 248.221953 
L 164.045637 247.697705 
L 164.177302 247.697705 
L 164.282549 246.64921 
L 164.327005 246.64921 
L 164.327005 246.124962 
L 164.440795 246.124962 
L 164.469126 245.076467 
L 164.805497 245.076467 
L 164.903911 244.027971 
L 165.026142 244.027971 
L 165.062642 242.979476 
L 165.336943 242.979476 
L 165.336943 242.455228 
L 165.494706 242.455228 
L 165.497669 241.406733 
L 165.659841 241.406733 
L 165.659841 240.882485 
L 166.125953 240.882485 
L 166.171591 239.83399 
L 166.468125 239.83399 
L 166.565843 238.785494 
L 166.888527 238.785494 
L 166.888527 238.261246 
L 167.186478 238.261246 
L 167.186478 237.736999 
L 167.338863 237.736999 
L 167.434415 236.688503 
L 167.618703 236.688503 
L 167.668385 235.640008 
L 167.775106 235.640008 
L 167.852778 234.591512 
L 167.935242 234.591512 
L 167.948091 233.543017 
L 168.278848 233.543017 
L 168.37434 231.970274 
L 168.630539 231.970274 
L 168.677385 230.397531 
L 168.800056 230.397531 
L 168.81716 229.349035 
L 168.929139 229.349035 
L 168.938842 228.30054 
L 169.083731 228.30054 
L 169.124562 227.252044 
L 169.305924 227.252044 
L 169.405335 225.679301 
L 169.466589 225.679301 
L 169.532311 224.106558 
L 169.723349 224.106558 
L 169.723349 223.58231 
L 169.900826 223.58231 
L 169.900826 223.058063 
L 170.232392 223.058063 
L 170.301977 219.912576 
L 170.43364 219.912576 
L 170.513484 217.815585 
L 170.599565 217.815585 
L 170.623767 216.76709 
L 170.805289 216.76709 
L 170.898581 215.194347 
L 170.954746 215.194347 
L 170.956903 214.145851 
L 171.12642 214.145851 
L 171.21799 212.04886 
L 171.313301 212.04886 
L 171.408085 209.95187 
L 171.454235 209.95187 
L 171.506528 208.903374 
L 171.633458 208.903374 
L 171.720312 207.330631 
L 171.780027 207.330631 
L 171.829289 205.23364 
L 171.892712 205.23364 
L 171.964039 203.136649 
L 172.125968 203.136649 
L 172.204359 202.088154 
L 172.256421 202.088154 
L 172.312313 200.515411 
L 172.379937 200.515411 
L 172.429492 199.466915 
L 172.506514 199.466915 
L 172.594958 196.845677 
L 172.751078 196.845677 
L 172.857593 194.748686 
L 172.876889 194.748686 
L 172.978796 191.078952 
L 173.020921 191.078952 
L 173.127683 188.981961 
L 173.212996 188.981961 
L 173.258323 187.933465 
L 173.382362 187.933465 
L 173.486909 186.360722 
L 173.520379 186.360722 
L 173.620399 184.263731 
L 173.673874 184.263731 
L 173.694115 183.215236 
L 173.800444 183.215236 
L 173.846074 181.118245 
L 173.91883 181.118245 
L 173.91883 180.593997 
L 174.030997 180.593997 
L 174.113747 177.448511 
L 174.251378 177.448511 
L 174.359634 173.778777 
L 174.498828 173.778777 
L 174.586347 171.157538 
L 174.614259 171.157538 
L 174.652564 169.584795 
L 174.72892 169.584795 
L 174.834218 167.487804 
L 174.908059 167.487804 
L 175.007159 163.293823 
L 175.090438 163.293823 
L 175.196922 159.624089 
L 175.220496 159.624089 
L 175.32618 157.527098 
L 175.341224 157.527098 
L 175.446171 155.954354 
L 175.471064 155.954354 
L 175.581814 152.808868 
L 175.599929 152.808868 
L 175.709856 150.18763 
L 175.77515 150.18763 
L 175.869388 144.945152 
L 175.888821 144.945152 
L 175.987268 140.226923 
L 176.054725 140.226923 
L 176.153822 136.032941 
L 176.206336 136.032941 
L 176.314042 133.411703 
L 176.325092 133.411703 
L 176.428922 131.838959 
L 176.436763 131.838959 
L 176.544597 128.693473 
L 176.557056 128.693473 
L 176.62697 127.644978 
L 176.695056 127.644978 
L 176.805891 122.926748 
L 176.810494 122.926748 
L 176.916016 118.732766 
L 177.014832 118.732766 
L 177.122125 115.063032 
L 177.126644 115.063032 
L 177.140193 114.014537 
L 177.257174 114.014537 
L 177.331745 111.917546 
L 177.373364 111.917546 
L 177.471069 107.723564 
L 177.496146 107.723564 
L 177.562349 106.150821 
L 177.612201 106.150821 
L 177.70128 104.578078 
L 177.734748 104.578078 
L 177.844876 102.481087 
L 177.888155 102.481087 
L 177.941381 100.384096 
L 178.021628 100.384096 
L 178.11857 98.811353 
L 178.139881 98.811353 
L 178.210727 93.044628 
L 178.312235 93.044628 
L 178.352952 91.996133 
L 178.429909 91.996133 
L 178.502352 90.947637 
L 178.545395 90.947637 
L 178.618735 87.277903 
L 178.669751 87.277903 
L 178.73845 85.180912 
L 178.824623 85.180912 
L 178.902218 81.511178 
L 178.942917 81.511178 
L 178.99298 80.462683 
L 179.083266 80.462683 
L 179.165056 76.792949 
L 179.237137 76.792949 
L 179.344695 74.17171 
L 179.375114 74.17171 
L 179.427889 73.123215 
L 179.491005 73.123215 
L 179.582636 70.501976 
L 179.634778 70.501976 
L 179.70103 68.929233 
L 179.747644 68.929233 
L 179.79671 66.832242 
L 179.917486 66.832242 
L 179.976281 64.211004 
L 180.062829 64.211004 
L 180.164095 61.065517 
L 180.189319 61.065517 
L 180.281072 56.871536 
L 180.403483 56.871536 
L 180.466843 54.774545 
L 180.518847 54.774545 
L 180.621157 52.153306 
L 180.677598 52.153306 
L 180.766788 50.056315 
L 180.866425 50.056315 
L 180.8858 47.959324 
L 180.981142 47.959324 
L 181.048407 46.386581 
L 181.110632 46.386581 
L 181.12496 44.813838 
L 181.25693 44.813838 
L 181.25693 44.28959 
L 181.508532 44.28959 
L 181.581906 42.716847 
L 181.641075 42.716847 
L 181.641075 42.192599 
L 184.535654 42.192599 
L 184.535654 41.668352 
L 185.605607 41.668352 
L 185.605607 41.144104 
L 186.163849 41.144104 
L 186.163849 40.619856 
L 186.937588 40.619856 
L 186.937588 40.095609 
L 187.776346 40.095609 
L 187.776346 39.571361 
L 187.948927 39.571361 
L 187.948927 39.047113 
L 188.1563 39.047113 
L 188.1563 38.522865 
L 188.502415 38.522865 
L 188.58226 37.47437 
L 188.72091 37.47437 
L 188.72091 36.950122 
L 188.86758 36.950122 
L 188.86758 36.425875 
L 189.405237 36.425875 
L 189.405237 35.901627 
L 189.522792 35.901627 
L 189.616988 34.328884 
L 189.839825 34.328884 
L 189.91299 33.280388 
L 190.047742 33.280388 
L 190.144057 32.231893 
L 190.21805 32.231893 
L 190.21805 31.183397 
L 190.415908 31.183397 
L 190.514335 29.610654 
L 190.603265 29.610654 
L 190.699945 28.037911 
L 191.028402 28.037911 
L 191.028402 27.513663 
L 333.168 27.513663 
L 333.168 27.513663 
" style="fill:none;stroke:#ff7500;stroke-linecap:square;stroke-width:1.5;"/>
   </g>
   <g id="line2d_52">
    <defs>
     <path d="M 0 -6 
L -1.347084 -1.854102 
L -5.706339 -1.854102 
L -2.179628 0.708204 
L -3.526712 4.854102 
L -0 2.291796 
L 3.526712 4.854102 
L 2.179628 0.708204 
L 5.706339 -1.854102 
L 1.347084 -1.854102 
z
" id="m75813a3e7b" style="stroke:#ff7500;stroke-linejoin:bevel;stroke-width:1.5;"/>
    </defs>
    <g>
     <use style="fill-opacity:0;stroke:#ff7500;stroke-linejoin:bevel;stroke-width:1.5;" x="175.341224" xlink:href="#m75813a3e7b" y="157.527098"/>
     <use style="fill-opacity:0;stroke:#ff7500;stroke-linejoin:bevel;stroke-width:1.5;" x="191.028402" xlink:href="#m75813a3e7b" y="28.037911"/>
     <use style="fill-opacity:0;stroke:#ff7500;stroke-linejoin:bevel;stroke-width:1.5;" x="191.028402" xlink:href="#m75813a3e7b" y="27.513663"/>
     <use style="fill-opacity:0;stroke:#ff7500;stroke-linejoin:bevel;stroke-width:1.5;" x="191.028402" xlink:href="#m75813a3e7b" y="27.513663"/>
     <use style="fill-opacity:0;stroke:#ff7500;stroke-linejoin:bevel;stroke-width:1.5;" x="333.168" xlink:href="#m75813a3e7b" y="27.513663"/>
    </g>
   </g>
   <g id="line2d_53">
    <path style="fill:none;stroke:#ff7500;stroke-linecap:square;stroke-width:1.5;"/>
    <g/>
   </g>
   <g id="line2d_54">
    <path d="M 333.168 27.513663 
L 363.64328 289.532673 
" style="fill:none;stroke:#000080;stroke-linecap:square;stroke-width:1.5;"/>
    <g>
     <use style="fill-opacity:0;stroke:#000080;stroke-width:1.5;" x="333.168" xlink:href="#mbb53a4821c" y="27.513663"/>
     <use style="fill-opacity:0;stroke:#000080;stroke-width:1.5;" x="363.64328" xlink:href="#mbb53a4821c" y="289.532673"/>
    </g>
   </g>
   <g id="line2d_55">
    <path d="M 333.168 27.513663 
L 363.64328 203.975446 
" style="fill:none;stroke:#ff00ff;stroke-linecap:square;stroke-width:1.5;"/>
    <g>
     <use style="fill-opacity:0;stroke:#ff00ff;stroke-linejoin:miter;stroke-width:1.5;" x="333.168" xlink:href="#m3d212bd60a" y="27.513663"/>
     <use style="fill-opacity:0;stroke:#ff00ff;stroke-linejoin:miter;stroke-width:1.5;" x="363.64328" xlink:href="#m3d212bd60a" y="203.975446"/>
    </g>
   </g>
   <g id="line2d_56">
    <path d="M 333.168 27.513663 
L 363.64328 118.418218 
" style="fill:none;stroke:#ff7500;stroke-linecap:square;stroke-width:1.5;"/>
    <g>
     <use style="fill-opacity:0;stroke:#ff7500;stroke-linejoin:bevel;stroke-width:1.5;" x="333.168" xlink:href="#m75813a3e7b" y="27.513663"/>
     <use style="fill-opacity:0;stroke:#ff7500;stroke-linejoin:bevel;stroke-width:1.5;" x="363.64328" xlink:href="#m75813a3e7b" y="118.418218"/>
    </g>
   </g>
   <g id="line2d_57">
    <path d="M 333.168 294.88 
L 333.168 27.513663 
" style="fill:none;stroke:#000000;stroke-linecap:square;stroke-width:1.5;"/>
   </g>
   <g id="patch_3">
    <path d="M 56.12 294.88 
L 56.12 24.84 
" style="fill:none;stroke:#000000;stroke-linecap:square;stroke-linejoin:miter;stroke-width:0.8;"/>
   </g>
   <g id="patch_4">
    <path d="M 333.168 294.88 
L 333.168 24.84 
" style="fill:none;stroke:#000000;stroke-linecap:square;stroke-linejoin:miter;stroke-width:0.8;"/>
   </g>
   <g id="patch_5">
    <path d="M 56.12 294.88 
L 333.168 294.88 
" style="fill:none;stroke:#000000;stroke-linecap:square;stroke-linejoin:miter;stroke-width:0.8;"/>
   </g>
   <g id="patch_6">
    <path d="M 56.12 24.84 
L 333.168 24.84 
" style="fill:none;stroke:#000000;stroke-linecap:square;stroke-linejoin:miter;stroke-width:0.8;"/>
   </g>
   <g id="text_13">
    <!-- SHADE-LM -->
    <defs>
     <path d="M 53.515625 70.515625 
L 53.515625 60.890625 
Q 47.90625 63.578125 42.921875 64.890625 
Q 37.9375 66.21875 33.296875 66.21875 
Q 25.25 66.21875 20.875 63.09375 
Q 16.5 59.96875 16.5 54.203125 
Q 16.5 49.359375 19.40625 46.890625 
Q 22.3125 44.4375 30.421875 42.921875 
L 36.375 41.703125 
Q 47.40625 39.59375 52.65625 34.296875 
Q 57.90625 29 57.90625 20.125 
Q 57.90625 9.515625 50.796875 4.046875 
Q 43.703125 -1.421875 29.984375 -1.421875 
Q 24.8125 -1.421875 18.96875 -0.25 
Q 13.140625 0.921875 6.890625 3.21875 
L 6.890625 13.375 
Q 12.890625 10.015625 18.65625 8.296875 
Q 24.421875 6.59375 29.984375 6.59375 
Q 38.421875 6.59375 43.015625 9.90625 
Q 47.609375 13.234375 47.609375 19.390625 
Q 47.609375 24.75 44.3125 27.78125 
Q 41.015625 30.8125 33.5 32.328125 
L 27.484375 33.5 
Q 16.453125 35.6875 11.515625 40.375 
Q 6.59375 45.0625 6.59375 53.421875 
Q 6.59375 63.09375 13.40625 68.65625 
Q 20.21875 74.21875 32.171875 74.21875 
Q 37.3125 74.21875 42.625 73.28125 
Q 47.953125 72.359375 53.515625 70.515625 
z
" id="DejaVuSans-53"/>
     <path d="M 9.8125 72.90625 
L 19.671875 72.90625 
L 19.671875 43.015625 
L 55.515625 43.015625 
L 55.515625 72.90625 
L 65.375 72.90625 
L 65.375 0 
L 55.515625 0 
L 55.515625 34.71875 
L 19.671875 34.71875 
L 19.671875 0 
L 9.8125 0 
z
" id="DejaVuSans-48"/>
     <path d="M 34.1875 63.1875 
L 20.796875 26.90625 
L 47.609375 26.90625 
z
M 28.609375 72.90625 
L 39.796875 72.90625 
L 67.578125 0 
L 57.328125 0 
L 50.6875 18.703125 
L 17.828125 18.703125 
L 11.1875 0 
L 0.78125 0 
z
" id="DejaVuSans-41"/>
     <path d="M 19.671875 64.796875 
L 19.671875 8.109375 
L 31.59375 8.109375 
Q 46.6875 8.109375 53.6875 14.9375 
Q 60.6875 21.78125 60.6875 36.53125 
Q 60.6875 51.171875 53.6875 57.984375 
Q 46.6875 64.796875 31.59375 64.796875 
z
M 9.8125 72.90625 
L 30.078125 72.90625 
Q 51.265625 72.90625 61.171875 64.09375 
Q 71.09375 55.28125 71.09375 36.53125 
Q 71.09375 17.671875 61.125 8.828125 
Q 51.171875 0 30.078125 0 
L 9.8125 0 
z
" id="DejaVuSans-44"/>
     <path d="M 9.8125 72.90625 
L 55.90625 72.90625 
L 55.90625 64.59375 
L 19.671875 64.59375 
L 19.671875 43.015625 
L 54.390625 43.015625 
L 54.390625 34.71875 
L 19.671875 34.71875 
L 19.671875 8.296875 
L 56.78125 8.296875 
L 56.78125 0 
L 9.8125 0 
z
" id="DejaVuSans-45"/>
     <path d="M 9.8125 72.90625 
L 19.671875 72.90625 
L 19.671875 8.296875 
L 55.171875 8.296875 
L 55.171875 0 
L 9.8125 0 
z
" id="DejaVuSans-4c"/>
     <path d="M 9.8125 72.90625 
L 24.515625 72.90625 
L 43.109375 23.296875 
L 61.8125 72.90625 
L 76.515625 72.90625 
L 76.515625 0 
L 66.890625 0 
L 66.890625 64.015625 
L 48.09375 14.015625 
L 38.1875 14.015625 
L 19.390625 64.015625 
L 19.390625 0 
L 9.8125 0 
z
" id="DejaVuSans-4d"/>
    </defs>
    <g transform="translate(369.18424 294.223611)scale(0.17 -0.17)">
     <use xlink:href="#DejaVuSans-53"/>
     <use x="63.476562" xlink:href="#DejaVuSans-48"/>
     <use x="138.671875" xlink:href="#DejaVuSans-41"/>
     <use x="207.080078" xlink:href="#DejaVuSans-44"/>
     <use x="284.082031" xlink:href="#DejaVuSans-45"/>
     <use x="347.265625" xlink:href="#DejaVuSans-2d"/>
     <use x="383.349609" xlink:href="#DejaVuSans-4c"/>
     <use x="439.0625" xlink:href="#DejaVuSans-4d"/>
    </g>
   </g>
   <g id="text_14">
    <!-- SHADE-LM-PO -->
    <defs>
     <path d="M 19.671875 64.796875 
L 19.671875 37.40625 
L 32.078125 37.40625 
Q 38.96875 37.40625 42.71875 40.96875 
Q 46.484375 44.53125 46.484375 51.125 
Q 46.484375 57.671875 42.71875 61.234375 
Q 38.96875 64.796875 32.078125 64.796875 
z
M 9.8125 72.90625 
L 32.078125 72.90625 
Q 44.34375 72.90625 50.609375 67.359375 
Q 56.890625 61.8125 56.890625 51.125 
Q 56.890625 40.328125 50.609375 34.8125 
Q 44.34375 29.296875 32.078125 29.296875 
L 19.671875 29.296875 
L 19.671875 0 
L 9.8125 0 
z
" id="DejaVuSans-50"/>
     <path d="M 39.40625 66.21875 
Q 28.65625 66.21875 22.328125 58.203125 
Q 16.015625 50.203125 16.015625 36.375 
Q 16.015625 22.609375 22.328125 14.59375 
Q 28.65625 6.59375 39.40625 6.59375 
Q 50.140625 6.59375 56.421875 14.59375 
Q 62.703125 22.609375 62.703125 36.375 
Q 62.703125 50.203125 56.421875 58.203125 
Q 50.140625 66.21875 39.40625 66.21875 
z
M 39.40625 74.21875 
Q 54.734375 74.21875 63.90625 63.9375 
Q 73.09375 53.65625 73.09375 36.375 
Q 73.09375 19.140625 63.90625 8.859375 
Q 54.734375 -1.421875 39.40625 -1.421875 
Q 24.03125 -1.421875 14.8125 8.828125 
Q 5.609375 19.09375 5.609375 36.375 
Q 5.609375 53.65625 14.8125 63.9375 
Q 24.03125 74.21875 39.40625 74.21875 
z
" id="DejaVuSans-4f"/>
    </defs>
    <g transform="translate(369.18424 208.666383)scale(0.17 -0.17)">
     <use xlink:href="#DejaVuSans-53"/>
     <use x="63.476562" xlink:href="#DejaVuSans-48"/>
     <use x="138.671875" xlink:href="#DejaVuSans-41"/>
     <use x="207.080078" xlink:href="#DejaVuSans-44"/>
     <use x="284.082031" xlink:href="#DejaVuSans-45"/>
     <use x="347.265625" xlink:href="#DejaVuSans-2d"/>
     <use x="383.349609" xlink:href="#DejaVuSans-4c"/>
     <use x="439.0625" xlink:href="#DejaVuSans-4d"/>
     <use x="525.341797" xlink:href="#DejaVuSans-2d"/>
     <use x="561.425781" xlink:href="#DejaVuSans-50"/>
     <use x="621.728516" xlink:href="#DejaVuSans-4f"/>
    </g>
   </g>
   <g id="text_15">
    <!-- R-SHADE-Tan -->
    <defs>
     <path d="M 44.390625 34.1875 
Q 47.5625 33.109375 50.5625 29.59375 
Q 53.5625 26.078125 56.59375 19.921875 
L 66.609375 0 
L 56 0 
L 46.6875 18.703125 
Q 43.0625 26.03125 39.671875 28.421875 
Q 36.28125 30.8125 30.421875 30.8125 
L 19.671875 30.8125 
L 19.671875 0 
L 9.8125 0 
L 9.8125 72.90625 
L 32.078125 72.90625 
Q 44.578125 72.90625 50.734375 67.671875 
Q 56.890625 62.453125 56.890625 51.90625 
Q 56.890625 45.015625 53.6875 40.46875 
Q 50.484375 35.9375 44.390625 34.1875 
z
M 19.671875 64.796875 
L 19.671875 38.921875 
L 32.078125 38.921875 
Q 39.203125 38.921875 42.84375 42.21875 
Q 46.484375 45.515625 46.484375 51.90625 
Q 46.484375 58.296875 42.84375 61.546875 
Q 39.203125 64.796875 32.078125 64.796875 
z
" id="DejaVuSans-52"/>
     <path d="M -0.296875 72.90625 
L 61.375 72.90625 
L 61.375 64.59375 
L 35.5 64.59375 
L 35.5 0 
L 25.59375 0 
L 25.59375 64.59375 
L -0.296875 64.59375 
z
" id="DejaVuSans-54"/>
    </defs>
    <g transform="translate(369.18424 123.109155)scale(0.17 -0.17)">
     <use xlink:href="#DejaVuSans-52"/>
     <use x="69.419922" xlink:href="#DejaVuSans-2d"/>
     <use x="105.503906" xlink:href="#DejaVuSans-53"/>
     <use x="168.980469" xlink:href="#DejaVuSans-48"/>
     <use x="244.175781" xlink:href="#DejaVuSans-41"/>
     <use x="312.583984" xlink:href="#DejaVuSans-44"/>
     <use x="389.585938" xlink:href="#DejaVuSans-45"/>
     <use x="452.769531" xlink:href="#DejaVuSans-2d"/>
     <use x="488.712891" xlink:href="#DejaVuSans-54"/>
     <use x="549.546875" xlink:href="#DejaVuSans-61"/>
     <use x="610.826172" xlink:href="#DejaVuSans-6e"/>
    </g>
   </g>
   <g id="text_16">
    <!-- best 2009 -->
    <defs>
     <path d="M 48.6875 27.296875 
Q 48.6875 37.203125 44.609375 42.84375 
Q 40.53125 48.484375 33.40625 48.484375 
Q 26.265625 48.484375 22.1875 42.84375 
Q 18.109375 37.203125 18.109375 27.296875 
Q 18.109375 17.390625 22.1875 11.75 
Q 26.265625 6.109375 33.40625 6.109375 
Q 40.53125 6.109375 44.609375 11.75 
Q 48.6875 17.390625 48.6875 27.296875 
z
M 18.109375 46.390625 
Q 20.953125 51.265625 25.265625 53.625 
Q 29.59375 56 35.59375 56 
Q 45.5625 56 51.78125 48.09375 
Q 58.015625 40.1875 58.015625 27.296875 
Q 58.015625 14.40625 51.78125 6.484375 
Q 45.5625 -1.421875 35.59375 -1.421875 
Q 29.59375 -1.421875 25.265625 0.953125 
Q 20.953125 3.328125 18.109375 8.203125 
L 18.109375 0 
L 9.078125 0 
L 9.078125 75.984375 
L 18.109375 75.984375 
z
" id="DejaVuSans-62"/>
     <path d="M 10.984375 1.515625 
L 10.984375 10.5 
Q 14.703125 8.734375 18.5 7.8125 
Q 22.3125 6.890625 25.984375 6.890625 
Q 35.75 6.890625 40.890625 13.453125 
Q 46.046875 20.015625 46.78125 33.40625 
Q 43.953125 29.203125 39.59375 26.953125 
Q 35.25 24.703125 29.984375 24.703125 
Q 19.046875 24.703125 12.671875 31.3125 
Q 6.296875 37.9375 6.296875 49.421875 
Q 6.296875 60.640625 12.9375 67.421875 
Q 19.578125 74.21875 30.609375 74.21875 
Q 43.265625 74.21875 49.921875 64.515625 
Q 56.59375 54.828125 56.59375 36.375 
Q 56.59375 19.140625 48.40625 8.859375 
Q 40.234375 -1.421875 26.421875 -1.421875 
Q 22.703125 -1.421875 18.890625 -0.6875 
Q 15.09375 0.046875 10.984375 1.515625 
z
M 30.609375 32.421875 
Q 37.25 32.421875 41.125 36.953125 
Q 45.015625 41.5 45.015625 49.421875 
Q 45.015625 57.28125 41.125 61.84375 
Q 37.25 66.40625 30.609375 66.40625 
Q 23.96875 66.40625 20.09375 61.84375 
Q 16.21875 57.28125 16.21875 49.421875 
Q 16.21875 41.5 20.09375 36.953125 
Q 23.96875 32.421875 30.609375 32.421875 
z
" id="DejaVuSans-39"/>
    </defs>
    <g transform="translate(369.18424 37.551928)scale(0.17 -0.17)">
     <use xlink:href="#DejaVuSans-62"/>
     <use x="63.476562" xlink:href="#DejaVuSans-65"/>
     <use x="125" xlink:href="#DejaVuSans-73"/>
     <use x="177.099609" xlink:href="#DejaVuSans-74"/>
     <use x="216.308594" xlink:href="#DejaVuSans-20"/>
     <use x="248.095703" xlink:href="#DejaVuSans-32"/>
     <use x="311.71875" xlink:href="#DejaVuSans-30"/>
     <use x="375.341797" xlink:href="#DejaVuSans-30"/>
     <use x="438.964844" xlink:href="#DejaVuSans-39"/>
    </g>
   </g>
   <g id="text_17">
    <!-- bbob f8, 10-D -->
    <g transform="translate(58.89048 35.290806)scale(0.102 -0.102)">
     <use xlink:href="#DejaVuSans-62"/>
     <use x="63.476562" xlink:href="#DejaVuSans-62"/>
     <use x="126.953125" xlink:href="#DejaVuSans-6f"/>
     <use x="188.134766" xlink:href="#DejaVuSans-62"/>
     <use x="251.611328" xlink:href="#DejaVuSans-20"/>
     <use x="283.398438" xlink:href="#DejaVuSans-66"/>
     <use x="318.603516" xlink:href="#DejaVuSans-38"/>
     <use x="382.226562" xlink:href="#DejaVuSans-2c"/>
     <use x="414.013672" xlink:href="#DejaVuSans-20"/>
     <use x="445.800781" xlink:href="#DejaVuSans-31"/>
     <use x="509.423828" xlink:href="#DejaVuSans-30"/>
     <use x="573.046875" xlink:href="#DejaVuSans-2d"/>
     <use x="609.130859" xlink:href="#DejaVuSans-44"/>
    </g>
    <!-- 51 targets: 100..1e-08 -->
    <defs>
     <path d="M 10.796875 72.90625 
L 49.515625 72.90625 
L 49.515625 64.59375 
L 19.828125 64.59375 
L 19.828125 46.734375 
Q 21.96875 47.46875 24.109375 47.828125 
Q 26.265625 48.1875 28.421875 48.1875 
Q 40.625 48.1875 47.75 41.5 
Q 54.890625 34.8125 54.890625 23.390625 
Q 54.890625 11.625 47.5625 5.09375 
Q 40.234375 -1.421875 26.90625 -1.421875 
Q 22.3125 -1.421875 17.546875 -0.640625 
Q 12.796875 0.140625 7.71875 1.703125 
L 7.71875 11.625 
Q 12.109375 9.234375 16.796875 8.0625 
Q 21.484375 6.890625 26.703125 6.890625 
Q 35.15625 6.890625 40.078125 11.328125 
Q 45.015625 15.765625 45.015625 23.390625 
Q 45.015625 31 40.078125 35.4375 
Q 35.15625 39.890625 26.703125 39.890625 
Q 22.75 39.890625 18.8125 39.015625 
Q 14.890625 38.140625 10.796875 36.28125 
z
" id="DejaVuSans-35"/>
     <path d="M 11.71875 12.40625 
L 22.015625 12.40625 
L 22.015625 0 
L 11.71875 0 
z
M 11.71875 51.703125 
L 22.015625 51.703125 
L 22.015625 39.3125 
L 11.71875 39.3125 
z
" id="DejaVuSans-3a"/>
    </defs>
    <g transform="translate(58.89048 46.712575)scale(0.102 -0.102)">
     <use xlink:href="#DejaVuSans-35"/>
     <use x="63.623047" xlink:href="#DejaVuSans-31"/>
     <use x="127.246094" xlink:href="#DejaVuSans-20"/>
     <use x="159.033203" xlink:href="#DejaVuSans-74"/>
     <use x="198.242188" xlink:href="#DejaVuSans-61"/>
     <use x="259.521484" xlink:href="#DejaVuSans-72"/>
     <use x="300.619141" xlink:href="#DejaVuSans-67"/>
     <use x="364.095703" xlink:href="#DejaVuSans-65"/>
     <use x="425.619141" xlink:href="#DejaVuSans-74"/>
     <use x="464.828125" xlink:href="#DejaVuSans-73"/>
     <use x="516.927734" xlink:href="#DejaVuSans-3a"/>
     <use x="550.619141" xlink:href="#DejaVuSans-20"/>
     <use x="582.40625" xlink:href="#DejaVuSans-31"/>
     <use x="646.029297" xlink:href="#DejaVuSans-30"/>
     <use x="709.652344" xlink:href="#DejaVuSans-30"/>
     <use x="773.275391" xlink:href="#DejaVuSans-2e"/>
     <use x="805.0625" xlink:href="#DejaVuSans-2e"/>
     <use x="836.849609" xlink:href="#DejaVuSans-31"/>
     <use x="900.472656" xlink:href="#DejaVuSans-65"/>
     <use x="961.996094" xlink:href="#DejaVuSans-2d"/>
     <use x="998.080078" xlink:href="#DejaVuSans-30"/>
     <use x="1061.703125" xlink:href="#DejaVuSans-38"/>
    </g>
    <!-- 15 instances -->
    <g transform="translate(58.89048 58.134344)scale(0.102 -0.102)">
     <use xlink:href="#DejaVuSans-31"/>
     <use x="63.623047" xlink:href="#DejaVuSans-35"/>
     <use x="127.246094" xlink:href="#DejaVuSans-20"/>
     <use x="159.033203" xlink:href="#DejaVuSans-69"/>
     <use x="186.816406" xlink:href="#DejaVuSans-6e"/>
     <use x="250.195312" xlink:href="#DejaVuSans-73"/>
     <use x="302.294922" xlink:href="#DejaVuSans-74"/>
     <use x="341.503906" xlink:href="#DejaVuSans-61"/>
     <use x="402.783203" xlink:href="#DejaVuSans-6e"/>
     <use x="466.162109" xlink:href="#DejaVuSans-63"/>
     <use x="521.142578" xlink:href="#DejaVuSans-65"/>
     <use x="582.666016" xlink:href="#DejaVuSans-73"/>
    </g>
   </g>
   <g id="text_18">
    <!-- v2.4 -->
    <g style="fill:#808080;" transform="translate(183.733063 290.099912)scale(0.1 -0.1)">
     <use xlink:href="#DejaVuSans-76"/>
     <use x="59.179688" xlink:href="#DejaVuSans-32"/>
     <use x="122.802734" xlink:href="#DejaVuSans-2e"/>
     <use x="154.589844" xlink:href="#DejaVuSans-34"/>
    </g>
   </g>
   <g id="text_19">
    <!-- 8 Rosenbrock original -->
    <defs>
     <path d="M 9.078125 75.984375 
L 18.109375 75.984375 
L 18.109375 31.109375 
L 44.921875 54.6875 
L 56.390625 54.6875 
L 27.390625 29.109375 
L 57.625 0 
L 45.90625 0 
L 18.109375 26.703125 
L 18.109375 0 
L 9.078125 0 
z
" id="DejaVuSans-6b"/>
    </defs>
    <g transform="translate(85.922125 18.84)scale(0.2 -0.2)">
     <use xlink:href="#DejaVuSans-38"/>
     <use x="63.623047" xlink:href="#DejaVuSans-20"/>
     <use x="95.410156" xlink:href="#DejaVuSans-52"/>
     <use x="164.830078" xlink:href="#DejaVuSans-6f"/>
     <use x="226.011719" xlink:href="#DejaVuSans-73"/>
     <use x="278.111328" xlink:href="#DejaVuSans-65"/>
     <use x="339.634766" xlink:href="#DejaVuSans-6e"/>
     <use x="403.013672" xlink:href="#DejaVuSans-62"/>
     <use x="466.490234" xlink:href="#DejaVuSans-72"/>
     <use x="507.572266" xlink:href="#DejaVuSans-6f"/>
     <use x="568.753906" xlink:href="#DejaVuSans-63"/>
     <use x="623.734375" xlink:href="#DejaVuSans-6b"/>
     <use x="681.644531" xlink:href="#DejaVuSans-20"/>
     <use x="713.431641" xlink:href="#DejaVuSans-6f"/>
     <use x="774.613281" xlink:href="#DejaVuSans-72"/>
     <use x="815.726562" xlink:href="#DejaVuSans-69"/>
     <use x="843.509766" xlink:href="#DejaVuSans-67"/>
     <use x="906.986328" xlink:href="#DejaVuSans-69"/>
     <use x="934.769531" xlink:href="#DejaVuSans-6e"/>
     <use x="998.148438" xlink:href="#DejaVuSans-61"/>
     <use x="1059.427734" xlink:href="#DejaVuSans-6c"/>
    </g>
   </g>
  </g>
 </g>
 <defs>
  <clipPath id="p2d1052e25e">
   <rect height="270.04" width="277.048" x="56.12" y="24.84"/>
  </clipPath>
 </defs>
</svg>
