<?xml version="1.0" encoding="utf-8" standalone="no"?>
<!DOCTYPE svg PUBLIC "-//W3C//DTD SVG 1.1//EN"
  "http://www.w3.org/Graphics/SVG/1.1/DTD/svg11.dtd">
<!-- Created with matplotlib (http://matplotlib.org/) -->
<svg height="345.6pt" version="1.1" viewBox="0 0 460.8 345.6" width="460.8pt" xmlns="http://www.w3.org/2000/svg" xmlns:xlink="http://www.w3.org/1999/xlink">
 <defs>
  <style type="text/css">
*{stroke-linecap:butt;stroke-linejoin:round;}
  </style>
 </defs>
 <g id="figure_1">
  <g id="patch_1">
   <path d="M 0 345.6 
L 460.8 345.6 
L 460.8 0 
L 0 0 
z
" style="fill:#ffffff;"/>
  </g>
  <g id="axes_1">
   <g id="patch_2">
    <path d="M 56.12 294.88 
L 333.168 294.88 
L 333.168 24.84 
L 56.12 24.84 
z
" style="fill:#ffffff;"/>
   </g>
   <g id="line2d_1">
    <path d="M 96.038666 294.88 
L 96.038666 289.637523 
L 100.983527 289.637523 
L 100.983527 284.395046 
L 110.014853 284.395046 
L 110.014853 279.152568 
L 113.579218 279.152568 
L 113.579218 273.910091 
L 116.682681 273.910091 
L 116.682681 268.667614 
L 120.034863 268.667614 
L 120.034863 263.425137 
L 121.929105 263.425137 
L 121.929105 258.18266 
L 123.499282 258.18266 
L 123.499282 252.940182 
L 125.000572 252.940182 
L 125.000572 247.697705 
L 125.794504 247.697705 
L 125.794504 242.455228 
L 127.142761 242.455228 
L 127.142761 237.212751 
L 128.13443 237.212751 
L 128.13443 231.970274 
L 128.798561 231.970274 
L 128.798561 226.727797 
L 129.890654 226.727797 
L 129.890654 221.485319 
L 131.181257 221.485319 
L 131.181257 216.242842 
L 131.990784 216.242842 
L 131.990784 211.000365 
L 133.196088 211.000365 
L 133.196088 205.757888 
L 133.973644 205.757888 
L 133.973644 200.515411 
L 134.53905 200.515411 
L 134.53905 195.272933 
L 135.464614 195.272933 
L 135.464614 190.030456 
L 135.934186 190.030456 
L 135.934186 184.787979 
L 136.67882 184.787979 
L 136.67882 179.545502 
L 137.377325 179.545502 
L 137.377325 174.303025 
L 137.931121 174.303025 
L 137.931121 169.060547 
L 139.001743 169.060547 
L 139.001743 163.81807 
L 139.680151 163.81807 
L 139.680151 158.575593 
L 140.319984 158.575593 
L 140.319984 153.333116 
L 141.035496 153.333116 
L 141.035496 148.090639 
L 141.804906 148.090639 
L 141.804906 142.848162 
L 142.303162 142.848162 
L 142.303162 137.605684 
L 143.051826 137.605684 
L 143.051826 132.363207 
L 143.65349 132.363207 
L 143.65349 127.12073 
L 144.295937 127.12073 
L 144.295937 121.878253 
L 144.915234 121.878253 
L 144.915234 116.635776 
L 145.34158 116.635776 
L 145.34158 111.393298 
L 145.766946 111.393298 
L 145.766946 106.150821 
L 146.182039 106.150821 
L 146.182039 100.908344 
L 146.631793 100.908344 
L 146.631793 95.665867 
L 147.225166 95.665867 
L 147.225166 90.42339 
L 147.657127 90.42339 
L 147.657127 85.180912 
L 147.922722 85.180912 
L 147.922722 79.938435 
L 148.441909 79.938435 
L 148.441909 74.695958 
L 149.007841 74.695958 
L 149.007841 69.453481 
L 149.367465 69.453481 
L 149.367465 64.211004 
L 149.778964 64.211004 
L 149.778964 58.968526 
L 150.108469 58.968526 
L 150.108469 53.726049 
L 150.353304 53.726049 
L 150.353304 48.483572 
L 150.672081 48.483572 
L 150.672081 43.241095 
L 150.998831 43.241095 
L 150.998831 37.998618 
L 151.359993 37.998618 
L 151.359993 32.756141 
L 151.85189 32.756141 
L 151.85189 27.513663 
L 333.168 27.513663 
" style="fill:none;stroke:#f5deb3;stroke-linecap:square;stroke-width:4;"/>
   </g>
   <g id="line2d_2">
    <defs>
     <path d="M -0 7.778175 
L 7.778175 0 
L 0 -7.778175 
L -7.778175 -0 
z
" id="m7d9bbfdca2" style="stroke:#f5deb3;stroke-linejoin:miter;stroke-width:1.5;"/>
    </defs>
    <g>
     <use style="fill:#f5deb3;stroke:#f5deb3;stroke-linejoin:miter;stroke-width:1.5;" x="135.464614" xlink:href="#m7d9bbfdca2" y="190.030456"/>
     <use style="fill:#f5deb3;stroke:#f5deb3;stroke-linejoin:miter;stroke-width:1.5;" x="149.007841" xlink:href="#m7d9bbfdca2" y="69.453481"/>
     <use style="fill:#f5deb3;stroke:#f5deb3;stroke-linejoin:miter;stroke-width:1.5;" x="151.85189" xlink:href="#m7d9bbfdca2" y="27.513663"/>
     <use style="fill:#f5deb3;stroke:#f5deb3;stroke-linejoin:miter;stroke-width:1.5;" x="151.85189" xlink:href="#m7d9bbfdca2" y="27.513663"/>
     <use style="fill:#f5deb3;stroke:#f5deb3;stroke-linejoin:miter;stroke-width:1.5;" x="333.168" xlink:href="#m7d9bbfdca2" y="27.513663"/>
    </g>
   </g>
   <g id="line2d_3">
    <path style="fill:none;stroke:#f5deb3;stroke-linecap:square;stroke-width:4;"/>
    <g/>
   </g>
   <g id="line2d_4">
    <path d="M 333.168 27.513663 
L 363.64328 32.86099 
" style="fill:none;stroke:#f5deb3;stroke-linecap:square;stroke-width:4;"/>
    <g>
     <use style="fill:#f5deb3;stroke:#f5deb3;stroke-linejoin:miter;stroke-width:1.5;" x="333.168" xlink:href="#m7d9bbfdca2" y="27.513663"/>
     <use style="fill:#f5deb3;stroke:#f5deb3;stroke-linejoin:miter;stroke-width:1.5;" x="363.64328" xlink:href="#m7d9bbfdca2" y="32.86099"/>
    </g>
   </g>
   <g id="matplotlib.axis_1">
    <g id="xtick_1">
     <g id="line2d_5">
      <path clip-path="url(#pc9716c562f)" d="M 56.12 294.88 
L 56.12 24.84 
" style="fill:none;stroke:#b0b0b0;stroke-linecap:square;stroke-width:0.8;"/>
     </g>
     <g id="line2d_6">
      <defs>
       <path d="M 0 0 
L 0 3.5 
" id="m71ed54efde" style="stroke:#000000;stroke-width:0.8;"/>
      </defs>
      <g>
       <use style="stroke:#000000;stroke-width:0.8;" x="56.12" xlink:href="#m71ed54efde" y="294.88"/>
      </g>
     </g>
     <g id="text_1">
      <!-- 0 -->
      <defs>
       <path d="M 31.78125 66.40625 
Q 24.171875 66.40625 20.328125 58.90625 
Q 16.5 51.421875 16.5 36.375 
Q 16.5 21.390625 20.328125 13.890625 
Q 24.171875 6.390625 31.78125 6.390625 
Q 39.453125 6.390625 43.28125 13.890625 
Q 47.125 21.390625 47.125 36.375 
Q 47.125 51.421875 43.28125 58.90625 
Q 39.453125 66.40625 31.78125 66.40625 
z
M 31.78125 74.21875 
Q 44.046875 74.21875 50.515625 64.515625 
Q 56.984375 54.828125 56.984375 36.375 
Q 56.984375 17.96875 50.515625 8.265625 
Q 44.046875 -1.421875 31.78125 -1.421875 
Q 19.53125 -1.421875 13.0625 8.265625 
Q 6.59375 17.96875 6.59375 36.375 
Q 6.59375 54.828125 13.0625 64.515625 
Q 19.53125 74.21875 31.78125 74.21875 
z
" id="DejaVuSans-30"/>
      </defs>
      <g transform="translate(49.7575 317.076875)scale(0.2 -0.2)">
       <use xlink:href="#DejaVuSans-30"/>
      </g>
     </g>
    </g>
    <g id="xtick_2">
     <g id="line2d_7">
      <path clip-path="url(#pc9716c562f)" d="M 135.276571 294.88 
L 135.276571 24.84 
" style="fill:none;stroke:#b0b0b0;stroke-linecap:square;stroke-width:0.8;"/>
     </g>
     <g id="line2d_8">
      <g>
       <use style="stroke:#000000;stroke-width:0.8;" x="135.276571" xlink:href="#m71ed54efde" y="294.88"/>
      </g>
     </g>
     <g id="text_2">
      <!-- 2 -->
      <defs>
       <path d="M 19.1875 8.296875 
L 53.609375 8.296875 
L 53.609375 0 
L 7.328125 0 
L 7.328125 8.296875 
Q 12.9375 14.109375 22.625 23.890625 
Q 32.328125 33.6875 34.8125 36.53125 
Q 39.546875 41.84375 41.421875 45.53125 
Q 43.3125 49.21875 43.3125 52.78125 
Q 43.3125 58.59375 39.234375 62.25 
Q 35.15625 65.921875 28.609375 65.921875 
Q 23.96875 65.921875 18.8125 64.3125 
Q 13.671875 62.703125 7.8125 59.421875 
L 7.8125 69.390625 
Q 13.765625 71.78125 18.9375 73 
Q 24.125 74.21875 28.421875 74.21875 
Q 39.75 74.21875 46.484375 68.546875 
Q 53.21875 62.890625 53.21875 53.421875 
Q 53.21875 48.921875 51.53125 44.890625 
Q 49.859375 40.875 45.40625 35.40625 
Q 44.1875 33.984375 37.640625 27.21875 
Q 31.109375 20.453125 19.1875 8.296875 
z
" id="DejaVuSans-32"/>
      </defs>
      <g transform="translate(128.914071 317.076875)scale(0.2 -0.2)">
       <use xlink:href="#DejaVuSans-32"/>
      </g>
     </g>
    </g>
    <g id="xtick_3">
     <g id="line2d_9">
      <path clip-path="url(#pc9716c562f)" d="M 214.433143 294.88 
L 214.433143 24.84 
" style="fill:none;stroke:#b0b0b0;stroke-linecap:square;stroke-width:0.8;"/>
     </g>
     <g id="line2d_10">
      <g>
       <use style="stroke:#000000;stroke-width:0.8;" x="214.433143" xlink:href="#m71ed54efde" y="294.88"/>
      </g>
     </g>
     <g id="text_3">
      <!-- 4 -->
      <defs>
       <path d="M 37.796875 64.3125 
L 12.890625 25.390625 
L 37.796875 25.390625 
z
M 35.203125 72.90625 
L 47.609375 72.90625 
L 47.609375 25.390625 
L 58.015625 25.390625 
L 58.015625 17.1875 
L 47.609375 17.1875 
L 47.609375 0 
L 37.796875 0 
L 37.796875 17.1875 
L 4.890625 17.1875 
L 4.890625 26.703125 
z
" id="DejaVuSans-34"/>
      </defs>
      <g transform="translate(208.070643 317.076875)scale(0.2 -0.2)">
       <use xlink:href="#DejaVuSans-34"/>
      </g>
     </g>
    </g>
    <g id="xtick_4">
     <g id="line2d_11">
      <path clip-path="url(#pc9716c562f)" d="M 293.589714 294.88 
L 293.589714 24.84 
" style="fill:none;stroke:#b0b0b0;stroke-linecap:square;stroke-width:0.8;"/>
     </g>
     <g id="line2d_12">
      <g>
       <use style="stroke:#000000;stroke-width:0.8;" x="293.589714" xlink:href="#m71ed54efde" y="294.88"/>
      </g>
     </g>
     <g id="text_4">
      <!-- 6 -->
      <defs>
       <path d="M 33.015625 40.375 
Q 26.375 40.375 22.484375 35.828125 
Q 18.609375 31.296875 18.609375 23.390625 
Q 18.609375 15.53125 22.484375 10.953125 
Q 26.375 6.390625 33.015625 6.390625 
Q 39.65625 6.390625 43.53125 10.953125 
Q 47.40625 15.53125 47.40625 23.390625 
Q 47.40625 31.296875 43.53125 35.828125 
Q 39.65625 40.375 33.015625 40.375 
z
M 52.59375 71.296875 
L 52.59375 62.3125 
Q 48.875 64.0625 45.09375 64.984375 
Q 41.3125 65.921875 37.59375 65.921875 
Q 27.828125 65.921875 22.671875 59.328125 
Q 17.53125 52.734375 16.796875 39.40625 
Q 19.671875 43.65625 24.015625 45.921875 
Q 28.375 48.1875 33.59375 48.1875 
Q 44.578125 48.1875 50.953125 41.515625 
Q 57.328125 34.859375 57.328125 23.390625 
Q 57.328125 12.15625 50.6875 5.359375 
Q 44.046875 -1.421875 33.015625 -1.421875 
Q 20.359375 -1.421875 13.671875 8.265625 
Q 6.984375 17.96875 6.984375 36.375 
Q 6.984375 53.65625 15.1875 63.9375 
Q 23.390625 74.21875 37.203125 74.21875 
Q 40.921875 74.21875 44.703125 73.484375 
Q 48.484375 72.75 52.59375 71.296875 
z
" id="DejaVuSans-36"/>
      </defs>
      <g transform="translate(287.227214 317.076875)scale(0.2 -0.2)">
       <use xlink:href="#DejaVuSans-36"/>
      </g>
     </g>
    </g>
    <g id="xtick_5">
     <g id="line2d_13">
      <path clip-path="url(#pc9716c562f)" d="M 56.12 294.88 
L 56.12 24.84 
" style="fill:none;stroke:#b0b0b0;stroke-linecap:square;stroke-width:0.8;"/>
     </g>
     <g id="line2d_14">
      <defs>
       <path d="M 0 0 
L 0 2 
" id="m0fb256215a" style="stroke:#000000;stroke-width:0.6;"/>
      </defs>
      <g>
       <use style="stroke:#000000;stroke-width:0.6;" x="56.12" xlink:href="#m0fb256215a" y="294.88"/>
      </g>
     </g>
    </g>
    <g id="xtick_6">
     <g id="line2d_15">
      <path clip-path="url(#pc9716c562f)" d="M 95.698286 294.88 
L 95.698286 24.84 
" style="fill:none;stroke:#b0b0b0;stroke-linecap:square;stroke-width:0.8;"/>
     </g>
     <g id="line2d_16">
      <g>
       <use style="stroke:#000000;stroke-width:0.6;" x="95.698286" xlink:href="#m0fb256215a" y="294.88"/>
      </g>
     </g>
    </g>
    <g id="xtick_7">
     <g id="line2d_17">
      <path clip-path="url(#pc9716c562f)" d="M 135.276571 294.88 
L 135.276571 24.84 
" style="fill:none;stroke:#b0b0b0;stroke-linecap:square;stroke-width:0.8;"/>
     </g>
     <g id="line2d_18">
      <g>
       <use style="stroke:#000000;stroke-width:0.6;" x="135.276571" xlink:href="#m0fb256215a" y="294.88"/>
      </g>
     </g>
    </g>
    <g id="xtick_8">
     <g id="line2d_19">
      <path clip-path="url(#pc9716c562f)" d="M 174.854857 294.88 
L 174.854857 24.84 
" style="fill:none;stroke:#b0b0b0;stroke-linecap:square;stroke-width:0.8;"/>
     </g>
     <g id="line2d_20">
      <g>
       <use style="stroke:#000000;stroke-width:0.6;" x="174.854857" xlink:href="#m0fb256215a" y="294.88"/>
      </g>
     </g>
    </g>
    <g id="xtick_9">
     <g id="line2d_21">
      <path clip-path="url(#pc9716c562f)" d="M 214.433143 294.88 
L 214.433143 24.84 
" style="fill:none;stroke:#b0b0b0;stroke-linecap:square;stroke-width:0.8;"/>
     </g>
     <g id="line2d_22">
      <g>
       <use style="stroke:#000000;stroke-width:0.6;" x="214.433143" xlink:href="#m0fb256215a" y="294.88"/>
      </g>
     </g>
    </g>
    <g id="xtick_10">
     <g id="line2d_23">
      <path clip-path="url(#pc9716c562f)" d="M 254.011429 294.88 
L 254.011429 24.84 
" style="fill:none;stroke:#b0b0b0;stroke-linecap:square;stroke-width:0.8;"/>
     </g>
     <g id="line2d_24">
      <g>
       <use style="stroke:#000000;stroke-width:0.6;" x="254.011429" xlink:href="#m0fb256215a" y="294.88"/>
      </g>
     </g>
    </g>
    <g id="xtick_11">
     <g id="line2d_25">
      <path clip-path="url(#pc9716c562f)" d="M 293.589714 294.88 
L 293.589714 24.84 
" style="fill:none;stroke:#b0b0b0;stroke-linecap:square;stroke-width:0.8;"/>
     </g>
     <g id="line2d_26">
      <g>
       <use style="stroke:#000000;stroke-width:0.6;" x="293.589714" xlink:href="#m0fb256215a" y="294.88"/>
      </g>
     </g>
    </g>
    <g id="xtick_12">
     <g id="line2d_27">
      <path clip-path="url(#pc9716c562f)" d="M 333.168 294.88 
L 333.168 24.84 
" style="fill:none;stroke:#b0b0b0;stroke-linecap:square;stroke-width:0.8;"/>
     </g>
     <g id="line2d_28">
      <g>
       <use style="stroke:#000000;stroke-width:0.6;" x="333.168" xlink:href="#m0fb256215a" y="294.88"/>
      </g>
     </g>
    </g>
    <g id="text_5">
     <!-- log10(# f-evals / dimension) -->
     <defs>
      <path d="M 9.421875 75.984375 
L 18.40625 75.984375 
L 18.40625 0 
L 9.421875 0 
z
" id="DejaVuSans-6c"/>
      <path d="M 30.609375 48.390625 
Q 23.390625 48.390625 19.1875 42.75 
Q 14.984375 37.109375 14.984375 27.296875 
Q 14.984375 17.484375 19.15625 11.84375 
Q 23.34375 6.203125 30.609375 6.203125 
Q 37.796875 6.203125 41.984375 11.859375 
Q 46.1875 17.53125 46.1875 27.296875 
Q 46.1875 37.015625 41.984375 42.703125 
Q 37.796875 48.390625 30.609375 48.390625 
z
M 30.609375 56 
Q 42.328125 56 49.015625 48.375 
Q 55.71875 40.765625 55.71875 27.296875 
Q 55.71875 13.875 49.015625 6.21875 
Q 42.328125 -1.421875 30.609375 -1.421875 
Q 18.84375 -1.421875 12.171875 6.21875 
Q 5.515625 13.875 5.515625 27.296875 
Q 5.515625 40.765625 12.171875 48.375 
Q 18.84375 56 30.609375 56 
z
" id="DejaVuSans-6f"/>
      <path d="M 45.40625 27.984375 
Q 45.40625 37.75 41.375 43.109375 
Q 37.359375 48.484375 30.078125 48.484375 
Q 22.859375 48.484375 18.828125 43.109375 
Q 14.796875 37.75 14.796875 27.984375 
Q 14.796875 18.265625 18.828125 12.890625 
Q 22.859375 7.515625 30.078125 7.515625 
Q 37.359375 7.515625 41.375 12.890625 
Q 45.40625 18.265625 45.40625 27.984375 
z
M 54.390625 6.78125 
Q 54.390625 -7.171875 48.1875 -13.984375 
Q 42 -20.796875 29.203125 -20.796875 
Q 24.46875 -20.796875 20.265625 -20.09375 
Q 16.0625 -19.390625 12.109375 -17.921875 
L 12.109375 -9.1875 
Q 16.0625 -11.328125 19.921875 -12.34375 
Q 23.78125 -13.375 27.78125 -13.375 
Q 36.625 -13.375 41.015625 -8.765625 
Q 45.40625 -4.15625 45.40625 5.171875 
L 45.40625 9.625 
Q 42.625 4.78125 38.28125 2.390625 
Q 33.9375 0 27.875 0 
Q 17.828125 0 11.671875 7.65625 
Q 5.515625 15.328125 5.515625 27.984375 
Q 5.515625 40.671875 11.671875 48.328125 
Q 17.828125 56 27.875 56 
Q 33.9375 56 38.28125 53.609375 
Q 42.625 51.21875 45.40625 46.390625 
L 45.40625 54.6875 
L 54.390625 54.6875 
z
" id="DejaVuSans-67"/>
      <path d="M 12.40625 8.296875 
L 28.515625 8.296875 
L 28.515625 63.921875 
L 10.984375 60.40625 
L 10.984375 69.390625 
L 28.421875 72.90625 
L 38.28125 72.90625 
L 38.28125 8.296875 
L 54.390625 8.296875 
L 54.390625 0 
L 12.40625 0 
z
" id="DejaVuSans-31"/>
      <path d="M 31 75.875 
Q 24.46875 64.65625 21.28125 53.65625 
Q 18.109375 42.671875 18.109375 31.390625 
Q 18.109375 20.125 21.3125 9.0625 
Q 24.515625 -2 31 -13.1875 
L 23.1875 -13.1875 
Q 15.875 -1.703125 12.234375 9.375 
Q 8.59375 20.453125 8.59375 31.390625 
Q 8.59375 42.28125 12.203125 53.3125 
Q 15.828125 64.359375 23.1875 75.875 
z
" id="DejaVuSans-28"/>
      <path d="M 51.125 44 
L 36.921875 44 
L 32.8125 27.6875 
L 47.125 27.6875 
z
M 43.796875 71.78125 
L 38.71875 51.515625 
L 52.984375 51.515625 
L 58.109375 71.78125 
L 65.921875 71.78125 
L 60.890625 51.515625 
L 76.125 51.515625 
L 76.125 44 
L 58.984375 44 
L 54.984375 27.6875 
L 70.515625 27.6875 
L 70.515625 20.21875 
L 53.078125 20.21875 
L 48 0 
L 40.1875 0 
L 45.21875 20.21875 
L 30.90625 20.21875 
L 25.875 0 
L 18.015625 0 
L 23.09375 20.21875 
L 7.71875 20.21875 
L 7.71875 27.6875 
L 24.90625 27.6875 
L 29 44 
L 13.28125 44 
L 13.28125 51.515625 
L 30.90625 51.515625 
L 35.890625 71.78125 
z
" id="DejaVuSans-23"/>
      <path id="DejaVuSans-20"/>
      <path d="M 37.109375 75.984375 
L 37.109375 68.5 
L 28.515625 68.5 
Q 23.6875 68.5 21.796875 66.546875 
Q 19.921875 64.59375 19.921875 59.515625 
L 19.921875 54.6875 
L 34.71875 54.6875 
L 34.71875 47.703125 
L 19.921875 47.703125 
L 19.921875 0 
L 10.890625 0 
L 10.890625 47.703125 
L 2.296875 47.703125 
L 2.296875 54.6875 
L 10.890625 54.6875 
L 10.890625 58.5 
Q 10.890625 67.625 15.140625 71.796875 
Q 19.390625 75.984375 28.609375 75.984375 
z
" id="DejaVuSans-66"/>
      <path d="M 4.890625 31.390625 
L 31.203125 31.390625 
L 31.203125 23.390625 
L 4.890625 23.390625 
z
" id="DejaVuSans-2d"/>
      <path d="M 56.203125 29.59375 
L 56.203125 25.203125 
L 14.890625 25.203125 
Q 15.484375 15.921875 20.484375 11.0625 
Q 25.484375 6.203125 34.421875 6.203125 
Q 39.59375 6.203125 44.453125 7.46875 
Q 49.3125 8.734375 54.109375 11.28125 
L 54.109375 2.78125 
Q 49.265625 0.734375 44.1875 -0.34375 
Q 39.109375 -1.421875 33.890625 -1.421875 
Q 20.796875 -1.421875 13.15625 6.1875 
Q 5.515625 13.8125 5.515625 26.8125 
Q 5.515625 40.234375 12.765625 48.109375 
Q 20.015625 56 32.328125 56 
Q 43.359375 56 49.78125 48.890625 
Q 56.203125 41.796875 56.203125 29.59375 
z
M 47.21875 32.234375 
Q 47.125 39.59375 43.09375 43.984375 
Q 39.0625 48.390625 32.421875 48.390625 
Q 24.90625 48.390625 20.390625 44.140625 
Q 15.875 39.890625 15.1875 32.171875 
z
" id="DejaVuSans-65"/>
      <path d="M 2.984375 54.6875 
L 12.5 54.6875 
L 29.59375 8.796875 
L 46.6875 54.6875 
L 56.203125 54.6875 
L 35.6875 0 
L 23.484375 0 
z
" id="DejaVuSans-76"/>
      <path d="M 34.28125 27.484375 
Q 23.390625 27.484375 19.1875 25 
Q 14.984375 22.515625 14.984375 16.5 
Q 14.984375 11.71875 18.140625 8.90625 
Q 21.296875 6.109375 26.703125 6.109375 
Q 34.1875 6.109375 38.703125 11.40625 
Q 43.21875 16.703125 43.21875 25.484375 
L 43.21875 27.484375 
z
M 52.203125 31.203125 
L 52.203125 0 
L 43.21875 0 
L 43.21875 8.296875 
Q 40.140625 3.328125 35.546875 0.953125 
Q 30.953125 -1.421875 24.3125 -1.421875 
Q 15.921875 -1.421875 10.953125 3.296875 
Q 6 8.015625 6 15.921875 
Q 6 25.140625 12.171875 29.828125 
Q 18.359375 34.515625 30.609375 34.515625 
L 43.21875 34.515625 
L 43.21875 35.40625 
Q 43.21875 41.609375 39.140625 45 
Q 35.0625 48.390625 27.6875 48.390625 
Q 23 48.390625 18.546875 47.265625 
Q 14.109375 46.140625 10.015625 43.890625 
L 10.015625 52.203125 
Q 14.9375 54.109375 19.578125 55.046875 
Q 24.21875 56 28.609375 56 
Q 40.484375 56 46.34375 49.84375 
Q 52.203125 43.703125 52.203125 31.203125 
z
" id="DejaVuSans-61"/>
      <path d="M 44.28125 53.078125 
L 44.28125 44.578125 
Q 40.484375 46.53125 36.375 47.5 
Q 32.28125 48.484375 27.875 48.484375 
Q 21.1875 48.484375 17.84375 46.4375 
Q 14.5 44.390625 14.5 40.28125 
Q 14.5 37.15625 16.890625 35.375 
Q 19.28125 33.59375 26.515625 31.984375 
L 29.59375 31.296875 
Q 39.15625 29.25 43.1875 25.515625 
Q 47.21875 21.78125 47.21875 15.09375 
Q 47.21875 7.46875 41.1875 3.015625 
Q 35.15625 -1.421875 24.609375 -1.421875 
Q 20.21875 -1.421875 15.453125 -0.5625 
Q 10.6875 0.296875 5.421875 2 
L 5.421875 11.28125 
Q 10.40625 8.6875 15.234375 7.390625 
Q 20.0625 6.109375 24.8125 6.109375 
Q 31.15625 6.109375 34.5625 8.28125 
Q 37.984375 10.453125 37.984375 14.40625 
Q 37.984375 18.0625 35.515625 20.015625 
Q 33.0625 21.96875 24.703125 23.78125 
L 21.578125 24.515625 
Q 13.234375 26.265625 9.515625 29.90625 
Q 5.8125 33.546875 5.8125 39.890625 
Q 5.8125 47.609375 11.28125 51.796875 
Q 16.75 56 26.8125 56 
Q 31.78125 56 36.171875 55.265625 
Q 40.578125 54.546875 44.28125 53.078125 
z
" id="DejaVuSans-73"/>
      <path d="M 25.390625 72.90625 
L 33.6875 72.90625 
L 8.296875 -9.28125 
L 0 -9.28125 
z
" id="DejaVuSans-2f"/>
      <path d="M 45.40625 46.390625 
L 45.40625 75.984375 
L 54.390625 75.984375 
L 54.390625 0 
L 45.40625 0 
L 45.40625 8.203125 
Q 42.578125 3.328125 38.25 0.953125 
Q 33.9375 -1.421875 27.875 -1.421875 
Q 17.96875 -1.421875 11.734375 6.484375 
Q 5.515625 14.40625 5.515625 27.296875 
Q 5.515625 40.1875 11.734375 48.09375 
Q 17.96875 56 27.875 56 
Q 33.9375 56 38.25 53.625 
Q 42.578125 51.265625 45.40625 46.390625 
z
M 14.796875 27.296875 
Q 14.796875 17.390625 18.875 11.75 
Q 22.953125 6.109375 30.078125 6.109375 
Q 37.203125 6.109375 41.296875 11.75 
Q 45.40625 17.390625 45.40625 27.296875 
Q 45.40625 37.203125 41.296875 42.84375 
Q 37.203125 48.484375 30.078125 48.484375 
Q 22.953125 48.484375 18.875 42.84375 
Q 14.796875 37.203125 14.796875 27.296875 
z
" id="DejaVuSans-64"/>
      <path d="M 9.421875 54.6875 
L 18.40625 54.6875 
L 18.40625 0 
L 9.421875 0 
z
M 9.421875 75.984375 
L 18.40625 75.984375 
L 18.40625 64.59375 
L 9.421875 64.59375 
z
" id="DejaVuSans-69"/>
      <path d="M 52 44.1875 
Q 55.375 50.25 60.0625 53.125 
Q 64.75 56 71.09375 56 
Q 79.640625 56 84.28125 50.015625 
Q 88.921875 44.046875 88.921875 33.015625 
L 88.921875 0 
L 79.890625 0 
L 79.890625 32.71875 
Q 79.890625 40.578125 77.09375 44.375 
Q 74.3125 48.1875 68.609375 48.1875 
Q 61.625 48.1875 57.5625 43.546875 
Q 53.515625 38.921875 53.515625 30.90625 
L 53.515625 0 
L 44.484375 0 
L 44.484375 32.71875 
Q 44.484375 40.625 41.703125 44.40625 
Q 38.921875 48.1875 33.109375 48.1875 
Q 26.21875 48.1875 22.15625 43.53125 
Q 18.109375 38.875 18.109375 30.90625 
L 18.109375 0 
L 9.078125 0 
L 9.078125 54.6875 
L 18.109375 54.6875 
L 18.109375 46.1875 
Q 21.1875 51.21875 25.484375 53.609375 
Q 29.78125 56 35.6875 56 
Q 41.65625 56 45.828125 52.96875 
Q 50 49.953125 52 44.1875 
z
" id="DejaVuSans-6d"/>
      <path d="M 54.890625 33.015625 
L 54.890625 0 
L 45.90625 0 
L 45.90625 32.71875 
Q 45.90625 40.484375 42.875 44.328125 
Q 39.84375 48.1875 33.796875 48.1875 
Q 26.515625 48.1875 22.3125 43.546875 
Q 18.109375 38.921875 18.109375 30.90625 
L 18.109375 0 
L 9.078125 0 
L 9.078125 54.6875 
L 18.109375 54.6875 
L 18.109375 46.1875 
Q 21.34375 51.125 25.703125 53.5625 
Q 30.078125 56 35.796875 56 
Q 45.21875 56 50.046875 50.171875 
Q 54.890625 44.34375 54.890625 33.015625 
z
" id="DejaVuSans-6e"/>
      <path d="M 8.015625 75.875 
L 15.828125 75.875 
Q 23.140625 64.359375 26.78125 53.3125 
Q 30.421875 42.28125 30.421875 31.390625 
Q 30.421875 20.453125 26.78125 9.375 
Q 23.140625 -1.703125 15.828125 -13.1875 
L 8.015625 -13.1875 
Q 14.5 -2 17.703125 9.0625 
Q 20.90625 20.125 20.90625 31.390625 
Q 20.90625 42.671875 17.703125 53.65625 
Q 14.5 64.65625 8.015625 75.875 
z
" id="DejaVuSans-29"/>
     </defs>
     <g transform="translate(73.803219 338.153594)scale(0.17 -0.17)">
      <use xlink:href="#DejaVuSans-6c"/>
      <use x="27.783203" xlink:href="#DejaVuSans-6f"/>
      <use x="88.964844" xlink:href="#DejaVuSans-67"/>
      <use x="152.441406" xlink:href="#DejaVuSans-31"/>
      <use x="216.064453" xlink:href="#DejaVuSans-30"/>
      <use x="279.6875" xlink:href="#DejaVuSans-28"/>
      <use x="318.701172" xlink:href="#DejaVuSans-23"/>
      <use x="402.490234" xlink:href="#DejaVuSans-20"/>
      <use x="434.277344" xlink:href="#DejaVuSans-66"/>
      <use x="469.404297" xlink:href="#DejaVuSans-2d"/>
      <use x="505.488281" xlink:href="#DejaVuSans-65"/>
      <use x="567.011719" xlink:href="#DejaVuSans-76"/>
      <use x="626.191406" xlink:href="#DejaVuSans-61"/>
      <use x="687.470703" xlink:href="#DejaVuSans-6c"/>
      <use x="715.253906" xlink:href="#DejaVuSans-73"/>
      <use x="767.353516" xlink:href="#DejaVuSans-20"/>
      <use x="799.140625" xlink:href="#DejaVuSans-2f"/>
      <use x="832.832031" xlink:href="#DejaVuSans-20"/>
      <use x="864.619141" xlink:href="#DejaVuSans-64"/>
      <use x="928.095703" xlink:href="#DejaVuSans-69"/>
      <use x="955.878906" xlink:href="#DejaVuSans-6d"/>
      <use x="1053.291016" xlink:href="#DejaVuSans-65"/>
      <use x="1114.814453" xlink:href="#DejaVuSans-6e"/>
      <use x="1178.193359" xlink:href="#DejaVuSans-73"/>
      <use x="1230.292969" xlink:href="#DejaVuSans-69"/>
      <use x="1258.076172" xlink:href="#DejaVuSans-6f"/>
      <use x="1319.257812" xlink:href="#DejaVuSans-6e"/>
      <use x="1382.636719" xlink:href="#DejaVuSans-29"/>
     </g>
    </g>
   </g>
   <g id="matplotlib.axis_2">
    <g id="ytick_1">
     <g id="line2d_29">
      <path clip-path="url(#pc9716c562f)" d="M 56.12 294.88 
L 333.168 294.88 
" style="fill:none;stroke:#b0b0b0;stroke-linecap:square;stroke-width:0.8;"/>
     </g>
     <g id="line2d_30">
      <defs>
       <path d="M 0 0 
L -3.5 0 
" id="m62cc6eac77" style="stroke:#000000;stroke-width:0.8;"/>
      </defs>
      <g>
       <use style="stroke:#000000;stroke-width:0.8;" x="56.12" xlink:href="#m62cc6eac77" y="294.88"/>
      </g>
     </g>
     <g id="text_6">
      <!-- 0.0 -->
      <defs>
       <path d="M 10.6875 12.40625 
L 21 12.40625 
L 21 0 
L 10.6875 0 
z
" id="DejaVuSans-2e"/>
      </defs>
      <g transform="translate(23.675 300.95875)scale(0.16 -0.16)">
       <use xlink:href="#DejaVuSans-30"/>
       <use x="63.623047" xlink:href="#DejaVuSans-2e"/>
       <use x="95.410156" xlink:href="#DejaVuSans-30"/>
      </g>
     </g>
    </g>
    <g id="ytick_2">
     <g id="line2d_31">
      <path clip-path="url(#pc9716c562f)" d="M 56.12 241.406733 
L 333.168 241.406733 
" style="fill:none;stroke:#b0b0b0;stroke-linecap:square;stroke-width:0.8;"/>
     </g>
     <g id="line2d_32">
      <g>
       <use style="stroke:#000000;stroke-width:0.8;" x="56.12" xlink:href="#m62cc6eac77" y="241.406733"/>
      </g>
     </g>
     <g id="text_7">
      <!-- 0.2 -->
      <g transform="translate(23.675 247.485483)scale(0.16 -0.16)">
       <use xlink:href="#DejaVuSans-30"/>
       <use x="63.623047" xlink:href="#DejaVuSans-2e"/>
       <use x="95.410156" xlink:href="#DejaVuSans-32"/>
      </g>
     </g>
    </g>
    <g id="ytick_3">
     <g id="line2d_33">
      <path clip-path="url(#pc9716c562f)" d="M 56.12 187.933465 
L 333.168 187.933465 
" style="fill:none;stroke:#b0b0b0;stroke-linecap:square;stroke-width:0.8;"/>
     </g>
     <g id="line2d_34">
      <g>
       <use style="stroke:#000000;stroke-width:0.8;" x="56.12" xlink:href="#m62cc6eac77" y="187.933465"/>
      </g>
     </g>
     <g id="text_8">
      <!-- 0.4 -->
      <g transform="translate(23.675 194.012215)scale(0.16 -0.16)">
       <use xlink:href="#DejaVuSans-30"/>
       <use x="63.623047" xlink:href="#DejaVuSans-2e"/>
       <use x="95.410156" xlink:href="#DejaVuSans-34"/>
      </g>
     </g>
    </g>
    <g id="ytick_4">
     <g id="line2d_35">
      <path clip-path="url(#pc9716c562f)" d="M 56.12 134.460198 
L 333.168 134.460198 
" style="fill:none;stroke:#b0b0b0;stroke-linecap:square;stroke-width:0.8;"/>
     </g>
     <g id="line2d_36">
      <g>
       <use style="stroke:#000000;stroke-width:0.8;" x="56.12" xlink:href="#m62cc6eac77" y="134.460198"/>
      </g>
     </g>
     <g id="text_9">
      <!-- 0.6 -->
      <g transform="translate(23.675 140.538948)scale(0.16 -0.16)">
       <use xlink:href="#DejaVuSans-30"/>
       <use x="63.623047" xlink:href="#DejaVuSans-2e"/>
       <use x="95.410156" xlink:href="#DejaVuSans-36"/>
      </g>
     </g>
    </g>
    <g id="ytick_5">
     <g id="line2d_37">
      <path clip-path="url(#pc9716c562f)" d="M 56.12 80.986931 
L 333.168 80.986931 
" style="fill:none;stroke:#b0b0b0;stroke-linecap:square;stroke-width:0.8;"/>
     </g>
     <g id="line2d_38">
      <g>
       <use style="stroke:#000000;stroke-width:0.8;" x="56.12" xlink:href="#m62cc6eac77" y="80.986931"/>
      </g>
     </g>
     <g id="text_10">
      <!-- 0.8 -->
      <defs>
       <path d="M 31.78125 34.625 
Q 24.75 34.625 20.71875 30.859375 
Q 16.703125 27.09375 16.703125 20.515625 
Q 16.703125 13.921875 20.71875 10.15625 
Q 24.75 6.390625 31.78125 6.390625 
Q 38.8125 6.390625 42.859375 10.171875 
Q 46.921875 13.96875 46.921875 20.515625 
Q 46.921875 27.09375 42.890625 30.859375 
Q 38.875 34.625 31.78125 34.625 
z
M 21.921875 38.8125 
Q 15.578125 40.375 12.03125 44.71875 
Q 8.5 49.078125 8.5 55.328125 
Q 8.5 64.0625 14.71875 69.140625 
Q 20.953125 74.21875 31.78125 74.21875 
Q 42.671875 74.21875 48.875 69.140625 
Q 55.078125 64.0625 55.078125 55.328125 
Q 55.078125 49.078125 51.53125 44.71875 
Q 48 40.375 41.703125 38.8125 
Q 48.828125 37.15625 52.796875 32.3125 
Q 56.78125 27.484375 56.78125 20.515625 
Q 56.78125 9.90625 50.3125 4.234375 
Q 43.84375 -1.421875 31.78125 -1.421875 
Q 19.734375 -1.421875 13.25 4.234375 
Q 6.78125 9.90625 6.78125 20.515625 
Q 6.78125 27.484375 10.78125 32.3125 
Q 14.796875 37.15625 21.921875 38.8125 
z
M 18.3125 54.390625 
Q 18.3125 48.734375 21.84375 45.5625 
Q 25.390625 42.390625 31.78125 42.390625 
Q 38.140625 42.390625 41.71875 45.5625 
Q 45.3125 48.734375 45.3125 54.390625 
Q 45.3125 60.0625 41.71875 63.234375 
Q 38.140625 66.40625 31.78125 66.40625 
Q 25.390625 66.40625 21.84375 63.234375 
Q 18.3125 60.0625 18.3125 54.390625 
z
" id="DejaVuSans-38"/>
      </defs>
      <g transform="translate(23.675 87.065681)scale(0.16 -0.16)">
       <use xlink:href="#DejaVuSans-30"/>
       <use x="63.623047" xlink:href="#DejaVuSans-2e"/>
       <use x="95.410156" xlink:href="#DejaVuSans-38"/>
      </g>
     </g>
    </g>
    <g id="ytick_6">
     <g id="line2d_39">
      <path clip-path="url(#pc9716c562f)" d="M 56.12 27.513663 
L 333.168 27.513663 
" style="fill:none;stroke:#b0b0b0;stroke-linecap:square;stroke-width:0.8;"/>
     </g>
     <g id="line2d_40">
      <g>
       <use style="stroke:#000000;stroke-width:0.8;" x="56.12" xlink:href="#m62cc6eac77" y="27.513663"/>
      </g>
     </g>
     <g id="text_11">
      <!-- 1.0 -->
      <g transform="translate(23.675 33.592413)scale(0.16 -0.16)">
       <use xlink:href="#DejaVuSans-31"/>
       <use x="63.623047" xlink:href="#DejaVuSans-2e"/>
       <use x="95.410156" xlink:href="#DejaVuSans-30"/>
      </g>
     </g>
    </g>
    <g id="text_12">
     <!-- Fraction of function,target pairs -->
     <defs>
      <path d="M 9.8125 72.90625 
L 51.703125 72.90625 
L 51.703125 64.59375 
L 19.671875 64.59375 
L 19.671875 43.109375 
L 48.578125 43.109375 
L 48.578125 34.8125 
L 19.671875 34.8125 
L 19.671875 0 
L 9.8125 0 
z
" id="DejaVuSans-46"/>
      <path d="M 41.109375 46.296875 
Q 39.59375 47.171875 37.8125 47.578125 
Q 36.03125 48 33.890625 48 
Q 26.265625 48 22.1875 43.046875 
Q 18.109375 38.09375 18.109375 28.8125 
L 18.109375 0 
L 9.078125 0 
L 9.078125 54.6875 
L 18.109375 54.6875 
L 18.109375 46.1875 
Q 20.953125 51.171875 25.484375 53.578125 
Q 30.03125 56 36.53125 56 
Q 37.453125 56 38.578125 55.875 
Q 39.703125 55.765625 41.0625 55.515625 
z
" id="DejaVuSans-72"/>
      <path d="M 48.78125 52.59375 
L 48.78125 44.1875 
Q 44.96875 46.296875 41.140625 47.34375 
Q 37.3125 48.390625 33.40625 48.390625 
Q 24.65625 48.390625 19.8125 42.84375 
Q 14.984375 37.3125 14.984375 27.296875 
Q 14.984375 17.28125 19.8125 11.734375 
Q 24.65625 6.203125 33.40625 6.203125 
Q 37.3125 6.203125 41.140625 7.25 
Q 44.96875 8.296875 48.78125 10.40625 
L 48.78125 2.09375 
Q 45.015625 0.34375 40.984375 -0.53125 
Q 36.96875 -1.421875 32.421875 -1.421875 
Q 20.0625 -1.421875 12.78125 6.34375 
Q 5.515625 14.109375 5.515625 27.296875 
Q 5.515625 40.671875 12.859375 48.328125 
Q 20.21875 56 33.015625 56 
Q 37.15625 56 41.109375 55.140625 
Q 45.0625 54.296875 48.78125 52.59375 
z
" id="DejaVuSans-63"/>
      <path d="M 18.3125 70.21875 
L 18.3125 54.6875 
L 36.8125 54.6875 
L 36.8125 47.703125 
L 18.3125 47.703125 
L 18.3125 18.015625 
Q 18.3125 11.328125 20.140625 9.421875 
Q 21.96875 7.515625 27.59375 7.515625 
L 36.8125 7.515625 
L 36.8125 0 
L 27.59375 0 
Q 17.1875 0 13.234375 3.875 
Q 9.28125 7.765625 9.28125 18.015625 
L 9.28125 47.703125 
L 2.6875 47.703125 
L 2.6875 54.6875 
L 9.28125 54.6875 
L 9.28125 70.21875 
z
" id="DejaVuSans-74"/>
      <path d="M 8.5 21.578125 
L 8.5 54.6875 
L 17.484375 54.6875 
L 17.484375 21.921875 
Q 17.484375 14.15625 20.5 10.265625 
Q 23.53125 6.390625 29.59375 6.390625 
Q 36.859375 6.390625 41.078125 11.03125 
Q 45.3125 15.671875 45.3125 23.6875 
L 45.3125 54.6875 
L 54.296875 54.6875 
L 54.296875 0 
L 45.3125 0 
L 45.3125 8.40625 
Q 42.046875 3.421875 37.71875 1 
Q 33.40625 -1.421875 27.6875 -1.421875 
Q 18.265625 -1.421875 13.375 4.4375 
Q 8.5 10.296875 8.5 21.578125 
z
M 31.109375 56 
z
" id="DejaVuSans-75"/>
      <path d="M 11.71875 12.40625 
L 22.015625 12.40625 
L 22.015625 4 
L 14.015625 -11.625 
L 7.71875 -11.625 
L 11.71875 4 
z
" id="DejaVuSans-2c"/>
      <path d="M 18.109375 8.203125 
L 18.109375 -20.796875 
L 9.078125 -20.796875 
L 9.078125 54.6875 
L 18.109375 54.6875 
L 18.109375 46.390625 
Q 20.953125 51.265625 25.265625 53.625 
Q 29.59375 56 35.59375 56 
Q 45.5625 56 51.78125 48.09375 
Q 58.015625 40.1875 58.015625 27.296875 
Q 58.015625 14.40625 51.78125 6.484375 
Q 45.5625 -1.421875 35.59375 -1.421875 
Q 29.59375 -1.421875 25.265625 0.953125 
Q 20.953125 3.328125 18.109375 8.203125 
z
M 48.6875 27.296875 
Q 48.6875 37.203125 44.609375 42.84375 
Q 40.53125 48.484375 33.40625 48.484375 
Q 26.265625 48.484375 22.1875 42.84375 
Q 18.109375 37.203125 18.109375 27.296875 
Q 18.109375 17.390625 22.1875 11.75 
Q 26.265625 6.109375 33.40625 6.109375 
Q 40.53125 6.109375 44.609375 11.75 
Q 48.6875 17.390625 48.6875 27.296875 
z
" id="DejaVuSans-70"/>
     </defs>
     <g transform="translate(16.139531 294.999375)rotate(-90)scale(0.17 -0.17)">
      <use xlink:href="#DejaVuSans-46"/>
      <use x="57.410156" xlink:href="#DejaVuSans-72"/>
      <use x="98.523438" xlink:href="#DejaVuSans-61"/>
      <use x="159.802734" xlink:href="#DejaVuSans-63"/>
      <use x="214.783203" xlink:href="#DejaVuSans-74"/>
      <use x="253.992188" xlink:href="#DejaVuSans-69"/>
      <use x="281.775391" xlink:href="#DejaVuSans-6f"/>
      <use x="342.957031" xlink:href="#DejaVuSans-6e"/>
      <use x="406.335938" xlink:href="#DejaVuSans-20"/>
      <use x="438.123047" xlink:href="#DejaVuSans-6f"/>
      <use x="499.304688" xlink:href="#DejaVuSans-66"/>
      <use x="534.509766" xlink:href="#DejaVuSans-20"/>
      <use x="566.296875" xlink:href="#DejaVuSans-66"/>
      <use x="601.501953" xlink:href="#DejaVuSans-75"/>
      <use x="664.880859" xlink:href="#DejaVuSans-6e"/>
      <use x="728.259766" xlink:href="#DejaVuSans-63"/>
      <use x="783.240234" xlink:href="#DejaVuSans-74"/>
      <use x="822.449219" xlink:href="#DejaVuSans-69"/>
      <use x="850.232422" xlink:href="#DejaVuSans-6f"/>
      <use x="911.414062" xlink:href="#DejaVuSans-6e"/>
      <use x="974.792969" xlink:href="#DejaVuSans-2c"/>
      <use x="1006.580078" xlink:href="#DejaVuSans-74"/>
      <use x="1045.789062" xlink:href="#DejaVuSans-61"/>
      <use x="1107.068359" xlink:href="#DejaVuSans-72"/>
      <use x="1148.166016" xlink:href="#DejaVuSans-67"/>
      <use x="1211.642578" xlink:href="#DejaVuSans-65"/>
      <use x="1273.166016" xlink:href="#DejaVuSans-74"/>
      <use x="1312.375" xlink:href="#DejaVuSans-20"/>
      <use x="1344.162109" xlink:href="#DejaVuSans-70"/>
      <use x="1407.638672" xlink:href="#DejaVuSans-61"/>
      <use x="1468.917969" xlink:href="#DejaVuSans-69"/>
      <use x="1496.701172" xlink:href="#DejaVuSans-72"/>
      <use x="1537.814453" xlink:href="#DejaVuSans-73"/>
     </g>
    </g>
   </g>
   <g id="line2d_41">
    <defs>
     <path d="M 0 1.5 
C 0.397805 1.5 0.77937 1.341951 1.06066 1.06066 
C 1.341951 0.77937 1.5 0.397805 1.5 0 
C 1.5 -0.397805 1.341951 -0.77937 1.06066 -1.06066 
C 0.77937 -1.341951 0.397805 -1.5 0 -1.5 
C -0.397805 -1.5 -0.77937 -1.341951 -1.06066 -1.06066 
C -1.341951 -0.77937 -1.5 -0.397805 -1.5 0 
C -1.5 0.397805 -1.341951 0.77937 -1.06066 1.06066 
C -0.77937 1.341951 -0.397805 1.5 0 1.5 
z
" id="m3b38c88a71" style="stroke:#f5deb3;"/>
    </defs>
    <g>
     <use style="fill:#f5deb3;stroke:#f5deb3;" x="151.85189" xlink:href="#m3b38c88a71" y="27.513663"/>
     <use style="fill:#f5deb3;stroke:#f5deb3;" x="151.85189" xlink:href="#m3b38c88a71" y="27.513663"/>
    </g>
   </g>
   <g id="line2d_42">
    <defs>
     <path d="M 0 1.5 
C 0.397805 1.5 0.77937 1.341951 1.06066 1.06066 
C 1.341951 0.77937 1.5 0.397805 1.5 0 
C 1.5 -0.397805 1.341951 -0.77937 1.06066 -1.06066 
C 0.77937 -1.341951 0.397805 -1.5 0 -1.5 
C -0.397805 -1.5 -0.77937 -1.341951 -1.06066 -1.06066 
C -1.341951 -0.77937 -1.5 -0.397805 -1.5 0 
C -1.5 0.397805 -1.341951 0.77937 -1.06066 1.06066 
C -0.77937 1.341951 -0.397805 1.5 0 1.5 
z
" id="m5f2a856821" style="stroke:#000080;"/>
    </defs>
    <g>
     <use style="fill:#000080;stroke:#000080;" x="188.955591" xlink:href="#m5f2a856821" y="27.513663"/>
     <use style="fill:#000080;stroke:#000080;" x="188.955591" xlink:href="#m5f2a856821" y="27.513663"/>
    </g>
   </g>
   <g id="line2d_43">
    <path d="M 107.000154 294.88 
L 107.000154 294.355752 
L 115.475044 294.355752 
L 115.475044 293.307257 
L 119.483763 293.307257 
L 119.483763 292.783009 
L 125.854083 292.783009 
L 125.854083 292.258761 
L 126.638823 292.258761 
L 126.638823 291.734514 
L 128.13443 291.734514 
L 128.160453 290.161771 
L 128.8486 290.161771 
L 128.8486 289.637523 
L 128.973066 289.637523 
L 128.973066 289.113275 
L 130.054468 289.113275 
L 130.054468 288.06478 
L 132.197629 288.06478 
L 132.197629 287.540532 
L 132.664134 287.540532 
L 132.704108 286.492036 
L 133.098812 286.492036 
L 133.098812 285.967789 
L 133.408177 285.967789 
L 133.408177 285.443541 
L 135.016789 285.443541 
L 135.016789 284.919293 
L 135.345189 284.919293 
L 135.345189 284.395046 
L 135.701004 284.395046 
L 135.701004 283.870798 
L 136.67882 283.870798 
L 136.67882 282.822302 
L 136.883542 282.822302 
L 136.883542 282.298055 
L 137.270516 282.298055 
L 137.377325 281.249559 
L 137.39253 281.249559 
L 137.39253 280.725312 
L 138.237678 280.725312 
L 138.295455 279.152568 
L 138.581462 279.152568 
L 138.581462 278.628321 
L 140.126634 278.628321 
L 140.126634 278.104073 
L 140.874911 278.104073 
L 140.874911 277.579825 
L 141.376358 277.579825 
L 141.376358 277.055578 
L 141.757814 277.055578 
L 141.757814 276.53133 
L 142.586342 276.53133 
L 142.586342 276.007082 
L 142.69832 276.007082 
L 142.69832 275.482834 
L 142.931127 275.482834 
L 142.931127 274.958587 
L 143.051826 274.958587 
L 143.051826 274.434339 
L 143.258331 274.434339 
L 143.258331 273.910091 
L 144.707961 273.910091 
L 144.797098 272.861596 
L 145.013063 272.861596 
L 145.013063 272.337348 
L 145.961904 272.337348 
L 146.035596 270.764605 
L 146.163802 270.764605 
L 146.163802 270.240357 
L 146.300112 270.240357 
L 146.39939 269.191862 
L 146.817236 269.191862 
L 146.817236 268.667614 
L 147.070079 268.667614 
L 147.096024 267.619119 
L 147.199415 267.619119 
L 147.199415 267.094871 
L 148.200491 267.094871 
L 148.200491 266.570623 
L 148.337711 266.570623 
L 148.337711 265.522128 
L 149.245882 265.522128 
L 149.245882 264.99788 
L 149.533248 264.99788 
L 149.533248 264.473632 
L 149.793743 264.473632 
L 149.793743 263.949385 
L 150.028504 263.949385 
L 150.028504 263.425137 
L 150.707138 263.425137 
L 150.707138 262.900889 
L 151.527754 262.900889 
L 151.527754 262.376641 
L 151.700505 262.376641 
L 151.700505 261.852394 
L 151.910766 261.852394 
L 151.943388 260.803898 
L 152.272646 260.803898 
L 152.323726 259.755403 
L 152.513938 259.755403 
L 152.513938 259.231155 
L 152.770536 259.231155 
L 152.770536 258.706907 
L 153.114935 258.706907 
L 153.114935 258.18266 
L 153.559701 258.18266 
L 153.654372 256.085669 
L 153.754391 256.085669 
L 153.754391 255.561421 
L 154.125801 255.561421 
L 154.234536 254.512926 
L 154.640452 254.512926 
L 154.640452 253.988678 
L 155.150962 253.988678 
L 155.150962 253.46443 
L 155.990113 253.46443 
L 156.036409 251.891687 
L 156.113293 251.891687 
L 156.113293 251.367439 
L 156.43752 251.367439 
L 156.547576 250.318944 
L 157.265399 250.318944 
L 157.265399 249.794696 
L 157.578187 249.794696 
L 157.606342 248.746201 
L 157.806781 248.746201 
L 157.806781 248.221953 
L 158.018648 248.221953 
L 158.018648 247.697705 
L 158.291129 247.697705 
L 158.291129 247.173458 
L 158.59038 247.173458 
L 158.6346 246.124962 
L 159.216438 246.124962 
L 159.297366 244.552219 
L 159.474919 244.552219 
L 159.474919 244.027971 
L 159.832855 244.027971 
L 159.902736 242.979476 
L 159.984587 242.979476 
L 159.984587 242.455228 
L 160.447811 242.455228 
L 160.447811 241.93098 
L 160.578464 241.93098 
L 160.578464 241.406733 
L 160.727692 241.406733 
L 160.727692 240.882485 
L 160.91049 240.882485 
L 160.945273 239.309742 
L 161.409962 239.309742 
L 161.409962 238.785494 
L 161.555898 238.785494 
L 161.555898 238.261246 
L 161.92453 238.261246 
L 161.975513 237.212751 
L 162.102314 237.212751 
L 162.188725 236.164255 
L 162.424141 236.164255 
L 162.424141 235.640008 
L 162.906194 235.640008 
L 162.978379 234.591512 
L 163.324744 234.591512 
L 163.324744 234.067265 
L 163.531919 234.067265 
L 163.608144 233.018769 
L 163.690615 233.018769 
L 163.792333 230.921778 
L 163.805414 230.921778 
L 163.805414 230.397531 
L 163.981042 230.397531 
L 164.061748 229.349035 
L 164.113201 229.349035 
L 164.113201 228.824787 
L 164.519376 228.824787 
L 164.519376 228.30054 
L 164.737509 228.30054 
L 164.737509 227.776292 
L 164.989564 227.776292 
L 164.989564 227.252044 
L 165.14751 227.252044 
L 165.171681 225.155053 
L 165.351888 225.155053 
L 165.357863 224.106558 
L 165.706732 224.106558 
L 165.706732 223.58231 
L 165.901712 223.58231 
L 165.927736 221.485319 
L 166.234147 221.485319 
L 166.234147 220.961072 
L 166.618659 220.961072 
L 166.726563 218.339833 
L 166.814598 218.339833 
L 166.880329 217.291338 
L 167.116518 217.291338 
L 167.116518 216.76709 
L 167.555741 216.76709 
L 167.652711 214.670099 
L 167.676216 214.670099 
L 167.720527 213.621604 
L 167.991707 213.621604 
L 168.022429 212.04886 
L 168.147308 212.04886 
L 168.147308 211.524613 
L 168.273807 211.524613 
L 168.273807 211.000365 
L 168.52653 211.000365 
L 168.625601 208.379126 
L 168.716735 208.379126 
L 168.822044 206.806383 
L 169.201159 206.806383 
L 169.265522 205.23364 
L 169.329646 205.23364 
L 169.329646 204.709392 
L 169.478343 204.709392 
L 169.478343 204.185145 
L 169.616443 204.185145 
L 169.714079 203.136649 
L 169.857203 203.136649 
L 169.955771 201.563906 
L 170.015098 201.563906 
L 170.067409 200.515411 
L 170.364587 200.515411 
L 170.384663 199.466915 
L 170.48691 199.466915 
L 170.544435 198.41842 
L 170.661102 198.41842 
L 170.661102 197.894172 
L 170.796584 197.894172 
L 170.874764 196.845677 
L 171.070814 196.845677 
L 171.173331 195.272933 
L 171.222238 195.272933 
L 171.228606 194.224438 
L 171.340737 194.224438 
L 171.445853 192.127447 
L 171.481447 192.127447 
L 171.481447 191.603199 
L 171.610638 191.603199 
L 171.610638 191.078952 
L 171.751225 191.078952 
L 171.751225 190.554704 
L 171.872279 190.554704 
L 171.91924 189.506209 
L 172.028994 189.506209 
L 172.087648 188.457713 
L 172.174251 188.457713 
L 172.174251 187.933465 
L 172.304339 187.933465 
L 172.395811 186.88497 
L 172.453228 186.88497 
L 172.453228 186.360722 
L 172.65367 186.360722 
L 172.65367 185.836474 
L 172.813131 185.836474 
L 172.876889 184.263731 
L 173.013269 184.263731 
L 173.085819 182.16674 
L 173.131483 182.16674 
L 173.131483 181.642493 
L 173.303532 181.642493 
L 173.3655 180.593997 
L 173.719841 180.593997 
L 173.789475 179.021254 
L 173.857007 179.021254 
L 173.924274 177.972759 
L 173.996701 177.972759 
L 173.996701 177.448511 
L 174.129891 177.448511 
L 174.238912 176.400016 
L 174.260278 176.400016 
L 174.343705 174.827272 
L 174.488296 174.827272 
L 174.558389 172.730281 
L 174.689049 172.730281 
L 174.689049 172.206034 
L 174.818723 172.206034 
L 174.818723 171.681786 
L 174.930321 171.681786 
L 175.017378 170.109043 
L 175.122622 170.109043 
L 175.208713 168.012052 
L 175.254117 168.012052 
L 175.359595 166.963557 
L 175.371274 166.963557 
L 175.371274 166.439309 
L 175.601575 166.439309 
L 175.70004 164.342318 
L 175.714761 164.342318 
L 175.73437 163.293823 
L 175.919545 163.293823 
L 175.943762 162.245327 
L 176.172937 162.245327 
L 176.277688 161.196832 
L 176.336134 161.196832 
L 176.391238 159.624089 
L 176.538365 159.624089 
L 176.541481 158.051345 
L 176.72129 158.051345 
L 176.813562 156.478602 
L 176.850332 156.478602 
L 176.850332 155.954354 
L 177.119112 155.954354 
L 177.119112 155.430107 
L 177.230249 155.430107 
L 177.284057 153.857364 
L 177.422286 153.857364 
L 177.519714 152.28462 
L 177.604879 152.28462 
L 177.604879 151.760373 
L 177.749279 151.760373 
L 177.841987 149.663382 
L 177.948561 149.663382 
L 178.023058 148.090639 
L 178.088691 148.090639 
L 178.195166 147.042143 
L 178.31083 147.042143 
L 178.407557 144.420905 
L 178.461989 144.420905 
L 178.556485 142.848162 
L 178.643573 142.848162 
L 178.742564 140.751171 
L 178.812339 140.751171 
L 178.884551 139.702675 
L 178.923936 139.702675 
L 179.015934 138.129932 
L 179.050979 138.129932 
L 179.123539 136.032941 
L 179.22781 136.032941 
L 179.326153 133.93595 
L 179.421301 133.93595 
L 179.450269 132.887455 
L 179.632175 132.887455 
L 179.720468 129.741969 
L 179.863627 129.741969 
L 179.944352 127.12073 
L 180.042504 127.12073 
L 180.143889 126.072235 
L 180.160308 126.072235 
L 180.21828 124.499491 
L 180.272295 124.499491 
L 180.294855 123.450996 
L 180.402238 123.450996 
L 180.438298 122.4025 
L 180.557131 122.4025 
L 180.557131 121.878253 
L 180.695962 121.878253 
L 180.727748 120.829757 
L 180.819109 120.829757 
L 180.877326 119.257014 
L 181.032815 119.257014 
L 181.096293 116.111528 
L 181.166682 116.111528 
L 181.226109 114.538785 
L 181.299514 114.538785 
L 181.316046 113.490289 
L 181.471143 113.490289 
L 181.569117 110.869051 
L 181.583068 110.869051 
L 181.602813 108.77206 
L 181.731177 108.77206 
L 181.839138 107.723564 
L 181.917956 107.723564 
L 181.986201 106.150821 
L 182.088063 106.150821 
L 182.145518 104.05383 
L 182.225186 104.05383 
L 182.321194 101.956839 
L 182.40227 101.956839 
L 182.503906 99.859849 
L 182.593991 99.859849 
L 182.678155 98.811353 
L 182.720627 98.811353 
L 182.720627 98.287105 
L 182.886242 98.287105 
L 182.99149 95.141619 
L 183.048142 95.141619 
L 183.134365 93.568876 
L 183.320236 93.568876 
L 183.430175 89.374894 
L 183.487482 89.374894 
L 183.533191 87.802151 
L 183.620118 87.802151 
L 183.701471 85.180912 
L 183.826353 85.180912 
L 183.931085 83.083922 
L 183.946284 83.083922 
L 184.006946 82.035426 
L 184.074433 82.035426 
L 184.177669 79.938435 
L 184.199639 79.938435 
L 184.267369 78.88994 
L 184.329883 78.88994 
L 184.414853 77.841444 
L 184.453248 77.841444 
L 184.522927 76.792949 
L 184.577686 76.792949 
L 184.599151 74.695958 
L 184.77281 74.695958 
L 184.799816 72.074719 
L 184.90742 72.074719 
L 184.981008 71.026224 
L 185.019112 71.026224 
L 185.085591 69.453481 
L 185.157479 69.453481 
L 185.245978 67.880738 
L 185.270376 67.880738 
L 185.373219 66.307995 
L 185.39092 66.307995 
L 185.438345 64.735251 
L 185.585364 64.735251 
L 185.681767 61.589765 
L 185.773079 61.589765 
L 185.773079 61.065517 
L 185.891065 61.065517 
L 185.971375 57.920031 
L 186.043246 57.920031 
L 186.093377 56.347288 
L 186.162069 56.347288 
L 186.210079 54.250297 
L 186.304817 54.250297 
L 186.410447 52.677554 
L 186.423605 52.677554 
L 186.498852 50.580563 
L 186.561597 50.580563 
L 186.654422 48.483572 
L 186.689858 48.483572 
L 186.760512 46.910829 
L 186.869369 46.910829 
L 186.972446 44.813838 
L 187.027563 44.813838 
L 187.133064 41.668352 
L 187.23374 41.668352 
L 187.331334 40.095609 
L 187.367063 40.095609 
L 187.474632 35.377379 
L 187.553638 35.377379 
L 187.580713 34.328884 
L 187.776346 34.328884 
L 187.872528 33.280388 
L 187.940901 33.280388 
L 187.940901 32.756141 
L 188.103896 32.756141 
L 188.212497 30.65915 
L 188.347878 30.65915 
L 188.347878 30.134902 
L 188.474421 30.134902 
L 188.492311 29.086407 
L 188.698647 29.086407 
L 188.767644 28.037911 
L 188.955591 28.037911 
L 188.955591 27.513663 
L 333.168 27.513663 
L 333.168 27.513663 
" style="fill:none;stroke:#000080;stroke-linecap:square;stroke-width:1.5;"/>
   </g>
   <g id="line2d_44">
    <defs>
     <path d="M 0 6 
C 1.591219 6 3.117479 5.367802 4.242641 4.242641 
C 5.367802 3.117479 6 1.591219 6 0 
C 6 -1.591219 5.367802 -3.117479 4.242641 -4.242641 
C 3.117479 -5.367802 1.591219 -6 0 -6 
C -1.591219 -6 -3.117479 -5.367802 -4.242641 -4.242641 
C -5.367802 -3.117479 -6 -1.591219 -6 0 
C -6 1.591219 -5.367802 3.117479 -4.242641 4.242641 
C -3.117479 5.367802 -1.591219 6 0 6 
z
" id="m5405ed3060" style="stroke:#000080;stroke-width:1.5;"/>
    </defs>
    <g>
     <use style="fill-opacity:0;stroke:#000080;stroke-width:1.5;" x="158.59038" xlink:href="#m5405ed3060" y="246.64921"/>
     <use style="fill-opacity:0;stroke:#000080;stroke-width:1.5;" x="184.177669" xlink:href="#m5405ed3060" y="80.986931"/>
     <use style="fill-opacity:0;stroke:#000080;stroke-width:1.5;" x="188.955591" xlink:href="#m5405ed3060" y="28.037911"/>
     <use style="fill-opacity:0;stroke:#000080;stroke-width:1.5;" x="188.955591" xlink:href="#m5405ed3060" y="27.513663"/>
     <use style="fill-opacity:0;stroke:#000080;stroke-width:1.5;" x="333.168" xlink:href="#m5405ed3060" y="27.513663"/>
    </g>
   </g>
   <g id="line2d_45">
    <path style="fill:none;stroke:#000080;stroke-linecap:square;stroke-width:1.5;"/>
    <g/>
   </g>
   <g id="line2d_46">
    <defs>
     <path d="M 0 1.5 
C 0.397805 1.5 0.77937 1.341951 1.06066 1.06066 
C 1.341951 0.77937 1.5 0.397805 1.5 0 
C 1.5 -0.397805 1.341951 -0.77937 1.06066 -1.06066 
C 0.77937 -1.341951 0.397805 -1.5 0 -1.5 
C -0.397805 -1.5 -0.77937 -1.341951 -1.06066 -1.06066 
C -1.341951 -0.77937 -1.5 -0.397805 -1.5 0 
C -1.5 0.397805 -1.341951 0.77937 -1.06066 1.06066 
C -0.77937 1.341951 -0.397805 1.5 0 1.5 
z
" id="mfb7fb6a829" style="stroke:#ff00ff;"/>
    </defs>
    <g>
     <use style="fill:#ff00ff;stroke:#ff00ff;" x="175.614737" xlink:href="#mfb7fb6a829" y="27.513663"/>
     <use style="fill:#ff00ff;stroke:#ff00ff;" x="175.614737" xlink:href="#mfb7fb6a829" y="27.513663"/>
    </g>
   </g>
   <g id="line2d_47">
    <path d="M 105.317315 294.88 
L 105.317315 294.355752 
L 106.272485 294.355752 
L 106.272485 293.831505 
L 108.369127 293.831505 
L 108.369127 293.307257 
L 110.530183 293.307257 
L 110.530183 292.783009 
L 112.449632 292.783009 
L 112.449632 292.258761 
L 112.960856 292.258761 
L 112.960856 291.734514 
L 113.272818 291.734514 
L 113.272818 291.210266 
L 113.457313 291.210266 
L 113.457313 290.686018 
L 114.922307 290.686018 
L 114.922307 290.161771 
L 115.529352 290.161771 
L 115.529352 289.637523 
L 115.798351 289.637523 
L 115.798351 289.113275 
L 116.783791 289.113275 
L 116.783791 288.589027 
L 118.645127 288.589027 
L 118.645127 288.06478 
L 118.780293 288.06478 
L 118.780293 287.016284 
L 119.697821 287.016284 
L 119.697821 286.492036 
L 119.993093 286.492036 
L 119.993093 285.967789 
L 120.929036 285.967789 
L 120.929036 285.443541 
L 121.397846 285.443541 
L 121.436343 284.395046 
L 122.114929 284.395046 
L 122.114929 283.870798 
L 122.979949 283.870798 
L 122.979949 283.34655 
L 123.533353 283.34655 
L 123.533353 282.822302 
L 123.769975 282.822302 
L 123.769975 282.298055 
L 124.875107 282.298055 
L 124.875107 281.773807 
L 125.340952 281.773807 
L 125.432625 280.725312 
L 125.584335 280.725312 
L 125.584335 280.201064 
L 125.734717 280.201064 
L 125.734717 279.676816 
L 126.638823 279.676816 
L 126.638823 279.152568 
L 126.752093 279.152568 
L 126.752093 278.628321 
L 128.029939 278.628321 
L 128.029939 278.104073 
L 128.67282 278.104073 
L 128.723227 277.055578 
L 128.8486 277.055578 
L 128.8486 276.53133 
L 129.194858 276.53133 
L 129.194858 276.007082 
L 129.843562 276.007082 
L 129.843562 275.482834 
L 130.377486 275.482834 
L 130.468672 273.910091 
L 130.98381 273.910091 
L 130.98381 273.385844 
L 131.760342 273.385844 
L 131.760342 272.861596 
L 131.928242 272.861596 
L 131.928242 272.337348 
L 132.177056 272.337348 
L 132.279675 271.288853 
L 132.72406 271.288853 
L 132.72406 270.764605 
L 133.059747 270.764605 
L 133.059747 270.240357 
L 134.628528 270.240357 
L 134.628528 269.716109 
L 134.77073 269.716109 
L 134.841393 268.667614 
L 134.929315 268.667614 
L 134.929315 268.143366 
L 135.32806 268.143366 
L 135.32806 267.619119 
L 135.717765 267.619119 
L 135.717765 267.094871 
L 135.884484 267.094871 
L 135.884484 266.570623 
L 136.213149 266.570623 
L 136.213149 266.046375 
L 136.359022 266.046375 
L 136.359022 265.522128 
L 136.647106 265.522128 
L 136.647106 264.99788 
L 136.789358 264.99788 
L 136.789358 264.473632 
L 136.977214 264.473632 
L 136.977214 263.949385 
L 137.193815 263.949385 
L 137.301101 262.900889 
L 137.783197 262.900889 
L 137.872104 261.328146 
L 138.106965 261.328146 
L 138.106965 260.803898 
L 138.4819 260.803898 
L 138.4819 260.279651 
L 138.80689 260.279651 
L 138.80689 259.755403 
L 138.974042 259.755403 
L 138.974042 259.231155 
L 140.268636 259.231155 
L 140.268636 258.706907 
L 140.511183 258.706907 
L 140.511183 258.18266 
L 140.762851 258.18266 
L 140.762851 257.658412 
L 140.961566 257.658412 
L 141.035496 256.609917 
L 141.194594 256.609917 
L 141.194594 256.085669 
L 141.72241 256.085669 
L 141.72241 255.561421 
L 142.07321 255.561421 
L 142.07321 254.512926 
L 142.234499 254.512926 
L 142.337391 253.46443 
L 142.575104 253.46443 
L 142.608796 252.415935 
L 142.875982 252.415935 
L 142.975116 251.367439 
L 143.018992 251.367439 
L 143.018992 250.843192 
L 143.376763 250.843192 
L 143.451706 249.794696 
L 143.65349 249.794696 
L 143.65349 249.270448 
L 143.863366 249.270448 
L 143.863366 248.746201 
L 144.07071 248.746201 
L 144.07071 248.221953 
L 144.488103 248.221953 
L 144.488103 247.697705 
L 144.68809 247.697705 
L 144.68809 247.173458 
L 144.983773 247.173458 
L 145.06177 246.124962 
L 145.37982 246.124962 
L 145.484542 244.027971 
L 145.989576 244.027971 
L 145.989576 243.503724 
L 146.861096 243.503724 
L 146.965905 241.93098 
L 146.992008 241.93098 
L 147.08738 240.882485 
L 147.225166 240.882485 
L 147.225166 240.358237 
L 147.336309 240.358237 
L 147.370362 239.309742 
L 147.556461 239.309742 
L 147.564873 237.736999 
L 148.029459 237.736999 
L 148.029459 237.212751 
L 148.265202 237.212751 
L 148.305522 236.164255 
L 148.401907 236.164255 
L 148.401907 235.640008 
L 148.616818 235.640008 
L 148.616818 235.11576 
L 148.805619 235.11576 
L 148.829074 234.067265 
L 148.945872 234.067265 
L 148.945872 233.543017 
L 149.230624 233.543017 
L 149.230624 233.018769 
L 149.45809 233.018769 
L 149.45809 232.494521 
L 149.830637 232.494521 
L 149.830637 231.970274 
L 149.977424 231.970274 
L 149.977424 231.446026 
L 150.202495 231.446026 
L 150.202495 230.921778 
L 150.317517 230.921778 
L 150.317517 230.397531 
L 150.453114 230.397531 
L 150.453114 229.873283 
L 150.573538 229.873283 
L 150.636952 228.824787 
L 150.756099 228.824787 
L 150.756099 228.30054 
L 150.957462 228.30054 
L 151.067558 227.252044 
L 151.339751 227.252044 
L 151.359993 226.203549 
L 151.474248 226.203549 
L 151.474248 225.679301 
L 151.587749 225.679301 
L 151.587749 225.155053 
L 151.700505 225.155053 
L 151.779655 224.106558 
L 151.943388 224.106558 
L 152.027918 223.058063 
L 152.092658 223.058063 
L 152.092658 222.533815 
L 152.247048 222.533815 
L 152.336473 221.485319 
L 152.576877 221.485319 
L 152.61453 220.436824 
L 153.212081 220.436824 
L 153.212081 219.912576 
L 153.36278 219.912576 
L 153.36278 219.388328 
L 153.476434 219.388328 
L 153.530009 217.815585 
L 153.929489 217.815585 
L 153.929489 217.291338 
L 154.085567 217.291338 
L 154.085567 216.76709 
L 154.223122 216.76709 
L 154.223122 216.242842 
L 154.342587 216.242842 
L 154.342587 215.718594 
L 154.494975 215.718594 
L 154.584645 214.670099 
L 154.629305 214.670099 
L 154.629305 214.145851 
L 154.834363 214.145851 
L 154.834363 213.621604 
L 155.113059 213.621604 
L 155.199571 212.04886 
L 155.344578 212.04886 
L 155.344578 211.524613 
L 155.562461 211.524613 
L 155.657252 209.95187 
L 155.840083 209.95187 
L 155.871232 208.379126 
L 156.051813 208.379126 
L 156.108178 206.806383 
L 156.179648 206.806383 
L 156.179648 206.282136 
L 156.557546 206.282136 
L 156.582447 204.709392 
L 156.770519 204.709392 
L 156.839293 203.660897 
L 156.961424 203.660897 
L 156.961424 203.136649 
L 157.145417 203.136649 
L 157.145417 202.612401 
L 157.408281 202.612401 
L 157.498163 201.039658 
L 157.535868 201.039658 
L 157.535868 200.515411 
L 157.737126 200.515411 
L 157.765022 199.466915 
L 157.862303 199.466915 
L 157.913041 197.894172 
L 158.128159 197.894172 
L 158.137254 196.845677 
L 158.372038 196.845677 
L 158.372038 196.321429 
L 158.550483 196.321429 
L 158.643431 193.70019 
L 158.665487 193.70019 
L 158.735879 192.651695 
L 158.80161 192.651695 
L 158.862733 191.603199 
L 159.036181 191.603199 
L 159.036181 191.078952 
L 159.173691 191.078952 
L 159.173691 190.554704 
L 159.403273 190.554704 
L 159.491733 188.457713 
L 159.775092 188.457713 
L 159.878104 186.88497 
L 159.976419 186.88497 
L 160.013143 185.312227 
L 160.207687 185.312227 
L 160.28409 183.215236 
L 160.324166 183.215236 
L 160.324166 182.690988 
L 160.47164 182.690988 
L 160.47164 182.16674 
L 160.602113 182.16674 
L 160.661092 180.593997 
L 160.844596 180.593997 
L 160.844596 180.06975 
L 160.964566 180.06975 
L 161.014628 178.497006 
L 161.11814 178.497006 
L 161.121962 177.448511 
L 161.232427 177.448511 
L 161.289286 176.400016 
L 161.364807 176.400016 
L 161.436247 175.35152 
L 161.492437 175.35152 
L 161.492437 174.827272 
L 161.792731 174.827272 
L 161.858757 173.254529 
L 161.986418 173.254529 
L 162.048085 171.681786 
L 162.116746 171.681786 
L 162.177947 169.584795 
L 162.331786 169.584795 
L 162.417054 168.012052 
L 162.516002 168.012052 
L 162.565263 166.439309 
L 162.680823 166.439309 
L 162.750483 164.342318 
L 162.857902 164.342318 
L 162.954351 162.769575 
L 162.985238 162.769575 
L 163.053678 161.721079 
L 163.391848 161.721079 
L 163.448681 159.099841 
L 163.535241 159.099841 
L 163.565102 158.051345 
L 163.775968 158.051345 
L 163.870671 155.954354 
L 163.8902 155.954354 
L 163.997214 153.333116 
L 164.077844 153.333116 
L 164.087494 151.760373 
L 164.212456 151.760373 
L 164.212456 151.236125 
L 164.409262 151.236125 
L 164.500549 149.663382 
L 164.606961 149.663382 
L 164.715819 147.566391 
L 164.731314 147.566391 
L 164.836312 144.945152 
L 164.888571 144.945152 
L 164.995666 142.848162 
L 165.074792 142.848162 
L 165.14751 140.751171 
L 165.345912 140.751171 
L 165.399626 138.65418 
L 165.565672 138.65418 
L 165.624588 136.557189 
L 165.79431 136.557189 
L 165.866953 133.93595 
L 165.910391 133.93595 
L 165.916175 132.887455 
L 166.031439 132.887455 
L 166.125953 131.314712 
L 166.290819 131.314712 
L 166.383922 129.741969 
L 166.414844 129.741969 
L 166.490509 128.169225 
L 166.69067 128.169225 
L 166.765134 126.072235 
L 166.839276 126.072235 
L 166.839276 125.547987 
L 166.964861 125.547987 
L 167.070621 123.450996 
L 167.116518 123.450996 
L 167.218672 120.829757 
L 167.274866 120.829757 
L 167.384051 119.781262 
L 167.386705 119.781262 
L 167.466148 117.160023 
L 167.503095 117.160023 
L 167.600363 115.58728 
L 167.842442 115.58728 
L 167.914663 114.014537 
L 168.012195 114.014537 
L 168.101539 110.869051 
L 168.157462 110.869051 
L 168.225847 109.820555 
L 168.361806 109.820555 
L 168.361806 109.296308 
L 168.496698 109.296308 
L 168.519077 108.247812 
L 168.613248 108.247812 
L 168.687231 106.150821 
L 168.753544 106.150821 
L 168.834248 104.05383 
L 168.892704 104.05383 
L 168.996944 101.956839 
L 169.025922 101.956839 
L 169.134156 98.811353 
L 169.13895 98.811353 
L 169.244094 96.190115 
L 169.350967 96.190115 
L 169.461885 94.617371 
L 169.485392 94.617371 
L 169.590779 93.568876 
L 169.602449 93.568876 
L 169.697845 92.520381 
L 169.714079 92.520381 
L 169.714079 91.996133 
L 169.843405 91.996133 
L 169.948913 89.374894 
L 169.976331 89.374894 
L 170.058322 88.326399 
L 170.135402 88.326399 
L 170.21664 86.753656 
L 170.335546 86.753656 
L 170.422521 82.559674 
L 170.466953 82.559674 
L 170.506844 81.511178 
L 170.776984 81.511178 
L 170.872597 79.414188 
L 170.894253 79.414188 
L 170.987066 77.317197 
L 171.087942 77.317197 
L 171.17546 75.220206 
L 171.203117 75.220206 
L 171.309076 73.647463 
L 171.342845 73.647463 
L 171.420684 72.074719 
L 171.462612 72.074719 
L 171.560744 69.977729 
L 171.596101 69.977729 
L 171.689343 68.404985 
L 171.736805 68.404985 
L 171.837486 65.259499 
L 171.860007 65.259499 
L 171.970139 63.686756 
L 172.014806 63.686756 
L 172.079569 62.638261 
L 172.164203 62.638261 
L 172.228407 60.54127 
L 172.298357 60.54127 
L 172.407706 58.444279 
L 172.439386 58.444279 
L 172.532111 56.347288 
L 172.602798 56.347288 
L 172.692699 52.153306 
L 172.778254 52.153306 
L 172.876889 50.580563 
L 172.948095 50.580563 
L 172.955776 49.532068 
L 173.080103 49.532068 
L 173.12198 47.959324 
L 173.19218 47.959324 
L 173.294123 45.338086 
L 173.342992 45.338086 
L 173.444047 42.192599 
L 173.464559 42.192599 
L 173.514805 41.144104 
L 173.592674 41.144104 
L 173.690436 37.998618 
L 173.710657 37.998618 
L 173.765684 36.950122 
L 173.897035 36.950122 
L 173.975005 35.377379 
L 174.072422 35.377379 
L 174.108362 33.280388 
L 174.215736 33.280388 
L 174.215736 32.756141 
L 174.447863 32.756141 
L 174.519873 31.183397 
L 174.685578 31.183397 
L 174.685578 30.65915 
L 174.964514 30.65915 
L 175.068383 29.610654 
L 175.132773 29.610654 
L 175.132773 29.086407 
L 175.244037 29.086407 
L 175.282643 28.037911 
L 175.614737 28.037911 
L 175.614737 27.513663 
L 333.168 27.513663 
L 333.168 27.513663 
" style="fill:none;stroke:#ff00ff;stroke-linecap:square;stroke-width:1.5;"/>
   </g>
   <g id="line2d_48">
    <defs>
     <path d="M -0 8.485281 
L 5.091169 0 
L 0 -8.485281 
L -5.091169 -0 
z
" id="m9af249766c" style="stroke:#ff00ff;stroke-linejoin:miter;stroke-width:1.5;"/>
    </defs>
    <g>
     <use style="fill-opacity:0;stroke:#ff00ff;stroke-linejoin:miter;stroke-width:1.5;" x="154.629305" xlink:href="#m9af249766c" y="214.145851"/>
     <use style="fill-opacity:0;stroke:#ff00ff;stroke-linejoin:miter;stroke-width:1.5;" x="173.093439" xlink:href="#m9af249766c" y="48.483572"/>
     <use style="fill-opacity:0;stroke:#ff00ff;stroke-linejoin:miter;stroke-width:1.5;" x="175.614737" xlink:href="#m9af249766c" y="28.037911"/>
     <use style="fill-opacity:0;stroke:#ff00ff;stroke-linejoin:miter;stroke-width:1.5;" x="175.614737" xlink:href="#m9af249766c" y="27.513663"/>
     <use style="fill-opacity:0;stroke:#ff00ff;stroke-linejoin:miter;stroke-width:1.5;" x="333.168" xlink:href="#m9af249766c" y="27.513663"/>
    </g>
   </g>
   <g id="line2d_49">
    <path style="fill:none;stroke:#ff00ff;stroke-linecap:square;stroke-width:1.5;"/>
    <g/>
   </g>
   <g id="line2d_50">
    <defs>
     <path d="M 0 1.5 
C 0.397805 1.5 0.77937 1.341951 1.06066 1.06066 
C 1.341951 0.77937 1.5 0.397805 1.5 0 
C 1.5 -0.397805 1.341951 -0.77937 1.06066 -1.06066 
C 0.77937 -1.341951 0.397805 -1.5 0 -1.5 
C -0.397805 -1.5 -0.77937 -1.341951 -1.06066 -1.06066 
C -1.341951 -0.77937 -1.5 -0.397805 -1.5 0 
C -1.5 0.397805 -1.341951 0.77937 -1.06066 1.06066 
C -0.77937 1.341951 -0.397805 1.5 0 1.5 
z
" id="m57f2e31200" style="stroke:#ff7500;"/>
    </defs>
    <g>
     <use style="fill:#ff7500;stroke:#ff7500;" x="177.532957" xlink:href="#m57f2e31200" y="27.513663"/>
     <use style="fill:#ff7500;stroke:#ff7500;" x="177.532957" xlink:href="#m57f2e31200" y="27.513663"/>
    </g>
   </g>
   <g id="line2d_51">
    <path d="M 99.533818 294.88 
L 99.533818 294.355752 
L 108.6141 294.355752 
L 108.6141 293.831505 
L 110.089425 293.831505 
L 110.089425 293.307257 
L 110.88904 293.307257 
L 110.88904 292.783009 
L 111.379177 292.783009 
L 111.379177 292.258761 
L 112.514373 292.258761 
L 112.514373 291.734514 
L 113.999206 291.734514 
L 113.999206 291.210266 
L 114.866043 291.210266 
L 114.866043 290.686018 
L 118.279397 290.686018 
L 118.279397 290.161771 
L 119.483763 290.161771 
L 119.526788 289.113275 
L 119.909246 289.113275 
L 119.909246 288.589027 
L 121.474753 288.589027 
L 121.474753 288.06478 
L 122.04084 288.06478 
L 122.04084 287.016284 
L 122.298767 287.016284 
L 122.335299 285.967789 
L 123.258878 285.967789 
L 123.258878 285.443541 
L 123.903739 285.443541 
L 123.903739 284.919293 
L 124.233665 284.919293 
L 124.233665 284.395046 
L 124.557378 284.395046 
L 124.557378 283.870798 
L 125.704746 283.870798 
L 125.704746 283.34655 
L 125.943067 283.34655 
L 125.972626 281.773807 
L 126.381204 281.773807 
L 126.381204 281.249559 
L 126.610389 281.249559 
L 126.610389 280.725312 
L 128.367236 280.725312 
L 128.39291 279.676816 
L 128.798561 279.676816 
L 128.798561 279.152568 
L 129.121245 279.152568 
L 129.121245 278.628321 
L 129.365405 278.628321 
L 129.365405 278.104073 
L 129.486197 278.104073 
L 129.486197 277.579825 
L 129.867125 277.579825 
L 129.937618 274.958587 
L 131.333273 274.958587 
L 131.333273 274.434339 
L 131.907344 274.434339 
L 131.907344 273.910091 
L 132.42232 273.910091 
L 132.42232 273.385844 
L 132.684132 273.385844 
L 132.684132 272.861596 
L 133.118312 272.861596 
L 133.118312 272.337348 
L 133.292817 272.337348 
L 133.292817 271.8131 
L 133.522769 271.8131 
L 133.522769 271.288853 
L 134.628528 271.288853 
L 134.681992 270.240357 
L 135.345189 270.240357 
L 135.345189 269.716109 
L 135.481607 269.716109 
L 135.481607 269.191862 
L 136.000233 269.191862 
L 136.000233 268.667614 
L 136.278134 268.667614 
L 136.278134 268.143366 
L 137.301101 268.143366 
L 137.301101 267.619119 
L 137.558897 267.619119 
L 137.558897 267.094871 
L 137.783197 267.094871 
L 137.783197 266.046375 
L 138.778873 266.046375 
L 138.862788 263.949385 
L 139.043211 263.949385 
L 139.043211 262.900889 
L 139.799471 262.900889 
L 139.799471 262.376641 
L 140.319984 262.376641 
L 140.358394 261.328146 
L 141.023196 261.328146 
L 141.072342 260.279651 
L 141.15801 260.279651 
L 141.255396 259.231155 
L 141.448529 259.231155 
L 141.448529 258.706907 
L 142.16556 258.706907 
L 142.16556 258.18266 
L 142.43967 258.18266 
L 142.530078 256.609917 
L 142.731772 256.609917 
L 142.731772 256.085669 
L 143.160822 256.085669 
L 143.160822 255.561421 
L 143.852933 255.561421 
L 143.852933 255.037173 
L 143.988072 255.037173 
L 144.039767 253.988678 
L 144.255205 253.988678 
L 144.326422 252.940182 
L 144.578385 252.940182 
L 144.618359 251.891687 
L 145.003305 251.891687 
L 145.022816 250.843192 
L 145.560304 250.843192 
L 145.560304 250.318944 
L 145.860059 250.318944 
L 145.924939 248.221953 
L 146.560619 248.221953 
L 146.569532 247.173458 
L 146.684982 247.173458 
L 146.684982 246.64921 
L 146.957196 246.64921 
L 147.061422 245.600714 
L 147.310724 245.600714 
L 147.310724 245.076467 
L 147.757207 245.076467 
L 147.757207 244.552219 
L 147.897996 244.552219 
L 147.897996 244.027971 
L 148.013081 244.027971 
L 148.013081 243.503724 
L 148.273273 243.503724 
L 148.281341 242.455228 
L 148.481817 242.455228 
L 148.481817 241.93098 
L 148.664213 241.93098 
L 148.664213 241.406733 
L 148.914803 241.406733 
L 148.914803 240.882485 
L 149.084989 240.882485 
L 149.192418 239.83399 
L 149.245882 239.83399 
L 149.352314 237.736999 
L 149.518243 237.736999 
L 149.518243 237.212751 
L 149.690019 237.212751 
L 149.756771 236.164255 
L 149.852735 236.164255 
L 149.860095 235.11576 
L 150.374741 235.11576 
L 150.438891 233.543017 
L 150.902149 233.543017 
L 150.936741 232.494521 
L 151.067558 232.494521 
L 151.067558 231.970274 
L 151.339751 231.970274 
L 151.339751 231.446026 
L 151.501022 231.446026 
L 151.501022 230.921778 
L 151.95642 230.921778 
L 151.95642 230.397531 
L 152.317349 230.397531 
L 152.425434 228.824787 
L 152.576877 228.824787 
L 152.645845 227.776292 
L 152.764323 227.776292 
L 152.782956 226.203549 
L 152.949747 226.203549 
L 152.949747 225.679301 
L 153.212081 225.679301 
L 153.284581 223.58231 
L 153.380775 223.58231 
L 153.380775 223.058063 
L 153.888792 223.058063 
L 153.993248 222.009567 
L 154.200273 222.009567 
L 154.22883 220.436824 
L 154.551073 220.436824 
L 154.629305 219.388328 
L 154.723825 219.388328 
L 154.773655 218.339833 
L 154.900346 218.339833 
L 154.900346 217.815585 
L 155.403306 217.815585 
L 155.461834 216.76709 
L 155.699213 216.76709 
L 155.808878 215.718594 
L 155.891966 215.718594 
L 155.891966 215.194347 
L 156.031271 215.194347 
L 156.138844 213.621604 
L 156.402354 213.621604 
L 156.402354 213.097356 
L 156.522625 213.097356 
L 156.522625 212.04886 
L 156.647019 212.04886 
L 156.647019 211.524613 
L 156.902909 211.524613 
L 156.912676 210.476117 
L 157.106845 210.476117 
L 157.1406 208.903374 
L 157.332225 208.903374 
L 157.3798 207.854879 
L 157.521738 207.854879 
L 157.564092 206.806383 
L 157.676528 206.806383 
L 157.676528 206.282136 
L 157.92225 206.282136 
L 157.92225 205.757888 
L 158.091733 205.757888 
L 158.091733 205.23364 
L 158.209837 205.23364 
L 158.268586 203.660897 
L 158.336125 203.660897 
L 158.421295 202.088154 
L 158.465953 202.088154 
L 158.465953 201.563906 
L 158.608082 201.563906 
L 158.608082 201.039658 
L 158.823464 201.039658 
L 158.823464 199.991163 
L 158.945339 199.991163 
L 158.967012 198.942667 
L 159.122254 198.942667 
L 159.199352 197.894172 
L 159.25482 197.894172 
L 159.314355 196.845677 
L 159.377915 196.845677 
L 159.453878 195.797181 
L 159.558827 195.797181 
L 159.638163 193.70019 
L 159.696387 193.70019 
L 159.766824 192.651695 
L 159.988669 192.651695 
L 160.029439 191.603199 
L 160.219773 191.603199 
L 160.312153 190.030456 
L 160.33217 190.030456 
L 160.33217 189.506209 
L 160.451785 189.506209 
L 160.451785 188.981961 
L 160.582408 188.981961 
L 160.688547 186.360722 
L 160.715958 186.360722 
L 160.825167 185.312227 
L 160.89888 185.312227 
L 160.91049 184.263731 
L 161.018473 184.263731 
L 161.053039 183.215236 
L 161.266565 183.215236 
L 161.29307 181.642493 
L 161.585682 181.642493 
L 161.600554 180.593997 
L 161.741202 180.593997 
L 161.83311 178.497006 
L 161.986418 178.497006 
L 162.004579 177.448511 
L 162.098704 177.448511 
L 162.185133 176.400016 
L 162.213847 176.400016 
L 162.274704 174.827272 
L 162.385128 174.827272 
L 162.417054 173.254529 
L 162.826785 173.254529 
L 162.89241 172.206034 
L 163.029755 172.206034 
L 163.091204 170.633291 
L 163.169404 170.633291 
L 163.169404 170.109043 
L 163.341545 170.109043 
L 163.341545 169.584795 
L 163.485356 169.584795 
L 163.575044 167.487804 
L 163.631276 167.487804 
L 163.730061 165.915061 
L 163.766141 165.915061 
L 163.805414 164.866566 
L 163.981042 164.866566 
L 164.081061 162.769575 
L 164.161299 162.769575 
L 164.247538 161.196832 
L 164.301615 161.196832 
L 164.301615 160.672584 
L 164.425036 160.672584 
L 164.425036 160.148336 
L 164.6132 160.148336 
L 164.6132 159.624089 
L 164.765354 159.624089 
L 164.867072 157.527098 
L 164.93455 157.527098 
L 164.93455 157.00285 
L 165.068718 157.00285 
L 165.111189 155.954354 
L 165.21691 155.954354 
L 165.310008 153.333116 
L 165.330961 153.333116 
L 165.369805 152.28462 
L 165.547958 152.28462 
L 165.562721 151.236125 
L 165.662775 151.236125 
L 165.662775 150.711877 
L 165.803044 150.711877 
L 165.898818 149.139134 
L 165.942177 149.139134 
L 166.031439 147.566391 
L 166.057267 147.566391 
L 166.057267 147.042143 
L 166.185829 147.042143 
L 166.202898 145.993648 
L 166.316261 145.993648 
L 166.423268 143.896657 
L 166.437298 143.896657 
L 166.524032 142.323914 
L 166.604776 142.323914 
L 166.618659 141.275418 
L 166.723805 141.275418 
L 166.734836 140.226923 
L 166.842016 140.226923 
L 166.92401 139.178427 
L 167.005615 139.178427 
L 167.038148 136.557189 
L 167.304227 136.557189 
L 167.384051 134.984446 
L 167.415877 134.984446 
L 167.415877 134.460198 
L 167.584627 134.460198 
L 167.639639 132.887455 
L 167.72313 132.887455 
L 167.785483 131.314712 
L 167.855361 131.314712 
L 167.966064 128.693473 
L 167.999393 128.693473 
L 168.106631 125.547987 
L 168.180287 125.547987 
L 168.241007 123.975244 
L 168.426886 123.975244 
L 168.474289 122.926748 
L 168.630539 122.926748 
L 168.733922 121.354005 
L 168.765796 121.354005 
L 168.848881 119.781262 
L 168.878109 119.781262 
L 168.984856 117.160023 
L 169.03557 117.160023 
L 169.14614 115.58728 
L 169.196381 115.58728 
L 169.275037 113.490289 
L 169.339125 113.490289 
L 169.407695 112.441794 
L 169.525281 112.441794 
L 169.618774 110.869051 
L 169.66533 110.869051 
L 169.760379 108.77206 
L 169.776554 108.77206 
L 169.875584 106.675069 
L 169.960342 106.675069 
L 170.046958 104.578078 
L 170.148968 104.578078 
L 170.250376 103.005335 
L 170.317651 103.005335 
L 170.420296 101.432592 
L 170.458076 101.432592 
L 170.458076 100.908344 
L 170.603968 100.908344 
L 170.641347 99.335601 
L 170.842232 99.335601 
L 170.892089 96.190115 
L 170.971991 96.190115 
L 171.068671 94.617371 
L 171.111466 94.617371 
L 171.198865 93.044628 
L 171.226484 93.044628 
L 171.279473 91.996133 
L 171.355492 91.996133 
L 171.429078 90.947637 
L 171.498171 90.947637 
L 171.606486 88.326399 
L 171.650036 88.326399 
L 171.712059 86.753656 
L 171.777971 86.753656 
L 171.862053 84.656665 
L 171.911082 84.656665 
L 171.911082 84.132417 
L 172.03102 84.132417 
L 172.095722 82.559674 
L 172.150126 82.559674 
L 172.246421 80.462683 
L 172.266415 80.462683 
L 172.33422 78.88994 
L 172.379937 78.88994 
L 172.472983 77.317197 
L 172.536046 77.317197 
L 172.643898 74.695958 
L 172.73164 74.695958 
L 172.836343 72.598967 
L 172.923111 72.598967 
L 173.028569 69.453481 
L 173.047673 69.453481 
L 173.152372 66.832242 
L 173.178921 66.832242 
L 173.250777 65.783747 
L 173.305413 65.783747 
L 173.387979 64.211004 
L 173.485048 64.211004 
L 173.564904 62.638261 
L 173.65361 62.638261 
L 173.706983 60.54127 
L 173.773008 60.54127 
L 173.820536 58.968526 
L 173.920645 58.968526 
L 174.018369 56.347288 
L 174.034603 56.347288 
L 174.11913 54.774545 
L 174.178231 54.774545 
L 174.278062 52.153306 
L 174.299379 52.153306 
L 174.396745 50.056315 
L 174.588093 50.056315 
L 174.638645 48.483572 
L 174.742766 48.483572 
L 174.832497 46.910829 
L 174.89949 46.910829 
L 174.993524 45.338086 
L 175.0429 45.338086 
L 175.149678 43.241095 
L 175.218813 43.241095 
L 175.267547 41.668352 
L 175.331196 41.668352 
L 175.41126 40.095609 
L 175.442849 40.095609 
L 175.55048 37.47437 
L 175.622957 37.47437 
L 175.714761 36.425875 
L 175.739269 36.425875 
L 175.827207 34.853131 
L 175.871008 34.853131 
L 175.967946 33.280388 
L 176.118724 33.280388 
L 176.204747 31.707645 
L 176.285598 31.707645 
L 176.309305 29.610654 
L 176.453999 29.610654 
L 176.453999 29.086407 
L 176.702776 29.086407 
L 176.702776 28.562159 
L 176.897711 28.562159 
L 176.897711 28.037911 
L 177.532957 28.037911 
L 177.532957 27.513663 
L 333.168 27.513663 
L 333.168 27.513663 
" style="fill:none;stroke:#ff7500;stroke-linecap:square;stroke-width:1.5;"/>
   </g>
   <g id="line2d_52">
    <defs>
     <path d="M 0 -6 
L -1.347084 -1.854102 
L -5.706339 -1.854102 
L -2.179628 0.708204 
L -3.526712 4.854102 
L -0 2.291796 
L 3.526712 4.854102 
L 2.179628 0.708204 
L 5.706339 -1.854102 
L 1.347084 -1.854102 
z
" id="m9bc07b3443" style="stroke:#ff7500;stroke-linejoin:bevel;stroke-width:1.5;"/>
    </defs>
    <g>
     <use style="fill-opacity:0;stroke:#ff7500;stroke-linejoin:bevel;stroke-width:1.5;" x="149.860095" xlink:href="#m9bc07b3443" y="235.11576"/>
     <use style="fill-opacity:0;stroke:#ff7500;stroke-linejoin:bevel;stroke-width:1.5;" x="170.458076" xlink:href="#m9bc07b3443" y="101.432592"/>
     <use style="fill-opacity:0;stroke:#ff7500;stroke-linejoin:bevel;stroke-width:1.5;" x="177.532957" xlink:href="#m9bc07b3443" y="28.037911"/>
     <use style="fill-opacity:0;stroke:#ff7500;stroke-linejoin:bevel;stroke-width:1.5;" x="177.532957" xlink:href="#m9bc07b3443" y="27.513663"/>
     <use style="fill-opacity:0;stroke:#ff7500;stroke-linejoin:bevel;stroke-width:1.5;" x="333.168" xlink:href="#m9bc07b3443" y="27.513663"/>
    </g>
   </g>
   <g id="line2d_53">
    <path style="fill:none;stroke:#ff7500;stroke-linecap:square;stroke-width:1.5;"/>
    <g/>
   </g>
   <g id="line2d_54">
    <path d="M 333.168 27.513663 
L 363.64328 289.532673 
" style="fill:none;stroke:#000080;stroke-linecap:square;stroke-width:1.5;"/>
    <g>
     <use style="fill-opacity:0;stroke:#000080;stroke-width:1.5;" x="333.168" xlink:href="#m5405ed3060" y="27.513663"/>
     <use style="fill-opacity:0;stroke:#000080;stroke-width:1.5;" x="363.64328" xlink:href="#m5405ed3060" y="289.532673"/>
    </g>
   </g>
   <g id="line2d_55">
    <path d="M 333.168 27.513663 
L 363.64328 203.975446 
" style="fill:none;stroke:#ff7500;stroke-linecap:square;stroke-width:1.5;"/>
    <g>
     <use style="fill-opacity:0;stroke:#ff7500;stroke-linejoin:bevel;stroke-width:1.5;" x="333.168" xlink:href="#m9bc07b3443" y="27.513663"/>
     <use style="fill-opacity:0;stroke:#ff7500;stroke-linejoin:bevel;stroke-width:1.5;" x="363.64328" xlink:href="#m9bc07b3443" y="203.975446"/>
    </g>
   </g>
   <g id="line2d_56">
    <path d="M 333.168 27.513663 
L 363.64328 118.418218 
" style="fill:none;stroke:#ff00ff;stroke-linecap:square;stroke-width:1.5;"/>
    <g>
     <use style="fill-opacity:0;stroke:#ff00ff;stroke-linejoin:miter;stroke-width:1.5;" x="333.168" xlink:href="#m9af249766c" y="27.513663"/>
     <use style="fill-opacity:0;stroke:#ff00ff;stroke-linejoin:miter;stroke-width:1.5;" x="363.64328" xlink:href="#m9af249766c" y="118.418218"/>
    </g>
   </g>
   <g id="line2d_57">
    <path d="M 333.168 294.88 
L 333.168 27.513663 
" style="fill:none;stroke:#000000;stroke-linecap:square;stroke-width:1.5;"/>
   </g>
   <g id="patch_3">
    <path d="M 56.12 294.88 
L 56.12 24.84 
" style="fill:none;stroke:#000000;stroke-linecap:square;stroke-linejoin:miter;stroke-width:0.8;"/>
   </g>
   <g id="patch_4">
    <path d="M 333.168 294.88 
L 333.168 24.84 
" style="fill:none;stroke:#000000;stroke-linecap:square;stroke-linejoin:miter;stroke-width:0.8;"/>
   </g>
   <g id="patch_5">
    <path d="M 56.12 294.88 
L 333.168 294.88 
" style="fill:none;stroke:#000000;stroke-linecap:square;stroke-linejoin:miter;stroke-width:0.8;"/>
   </g>
   <g id="patch_6">
    <path d="M 56.12 24.84 
L 333.168 24.84 
" style="fill:none;stroke:#000000;stroke-linecap:square;stroke-linejoin:miter;stroke-width:0.8;"/>
   </g>
   <g id="text_13">
    <!-- SHADE-LM -->
    <defs>
     <path d="M 53.515625 70.515625 
L 53.515625 60.890625 
Q 47.90625 63.578125 42.921875 64.890625 
Q 37.9375 66.21875 33.296875 66.21875 
Q 25.25 66.21875 20.875 63.09375 
Q 16.5 59.96875 16.5 54.203125 
Q 16.5 49.359375 19.40625 46.890625 
Q 22.3125 44.4375 30.421875 42.921875 
L 36.375 41.703125 
Q 47.40625 39.59375 52.65625 34.296875 
Q 57.90625 29 57.90625 20.125 
Q 57.90625 9.515625 50.796875 4.046875 
Q 43.703125 -1.421875 29.984375 -1.421875 
Q 24.8125 -1.421875 18.96875 -0.25 
Q 13.140625 0.921875 6.890625 3.21875 
L 6.890625 13.375 
Q 12.890625 10.015625 18.65625 8.296875 
Q 24.421875 6.59375 29.984375 6.59375 
Q 38.421875 6.59375 43.015625 9.90625 
Q 47.609375 13.234375 47.609375 19.390625 
Q 47.609375 24.75 44.3125 27.78125 
Q 41.015625 30.8125 33.5 32.328125 
L 27.484375 33.5 
Q 16.453125 35.6875 11.515625 40.375 
Q 6.59375 45.0625 6.59375 53.421875 
Q 6.59375 63.09375 13.40625 68.65625 
Q 20.21875 74.21875 32.171875 74.21875 
Q 37.3125 74.21875 42.625 73.28125 
Q 47.953125 72.359375 53.515625 70.515625 
z
" id="DejaVuSans-53"/>
     <path d="M 9.8125 72.90625 
L 19.671875 72.90625 
L 19.671875 43.015625 
L 55.515625 43.015625 
L 55.515625 72.90625 
L 65.375 72.90625 
L 65.375 0 
L 55.515625 0 
L 55.515625 34.71875 
L 19.671875 34.71875 
L 19.671875 0 
L 9.8125 0 
z
" id="DejaVuSans-48"/>
     <path d="M 34.1875 63.1875 
L 20.796875 26.90625 
L 47.609375 26.90625 
z
M 28.609375 72.90625 
L 39.796875 72.90625 
L 67.578125 0 
L 57.328125 0 
L 50.6875 18.703125 
L 17.828125 18.703125 
L 11.1875 0 
L 0.78125 0 
z
" id="DejaVuSans-41"/>
     <path d="M 19.671875 64.796875 
L 19.671875 8.109375 
L 31.59375 8.109375 
Q 46.6875 8.109375 53.6875 14.9375 
Q 60.6875 21.78125 60.6875 36.53125 
Q 60.6875 51.171875 53.6875 57.984375 
Q 46.6875 64.796875 31.59375 64.796875 
z
M 9.8125 72.90625 
L 30.078125 72.90625 
Q 51.265625 72.90625 61.171875 64.09375 
Q 71.09375 55.28125 71.09375 36.53125 
Q 71.09375 17.671875 61.125 8.828125 
Q 51.171875 0 30.078125 0 
L 9.8125 0 
z
" id="DejaVuSans-44"/>
     <path d="M 9.8125 72.90625 
L 55.90625 72.90625 
L 55.90625 64.59375 
L 19.671875 64.59375 
L 19.671875 43.015625 
L 54.390625 43.015625 
L 54.390625 34.71875 
L 19.671875 34.71875 
L 19.671875 8.296875 
L 56.78125 8.296875 
L 56.78125 0 
L 9.8125 0 
z
" id="DejaVuSans-45"/>
     <path d="M 9.8125 72.90625 
L 19.671875 72.90625 
L 19.671875 8.296875 
L 55.171875 8.296875 
L 55.171875 0 
L 9.8125 0 
z
" id="DejaVuSans-4c"/>
     <path d="M 9.8125 72.90625 
L 24.515625 72.90625 
L 43.109375 23.296875 
L 61.8125 72.90625 
L 76.515625 72.90625 
L 76.515625 0 
L 66.890625 0 
L 66.890625 64.015625 
L 48.09375 14.015625 
L 38.1875 14.015625 
L 19.390625 64.015625 
L 19.390625 0 
L 9.8125 0 
z
" id="DejaVuSans-4d"/>
    </defs>
    <g transform="translate(369.18424 294.223611)scale(0.17 -0.17)">
     <use xlink:href="#DejaVuSans-53"/>
     <use x="63.476562" xlink:href="#DejaVuSans-48"/>
     <use x="138.671875" xlink:href="#DejaVuSans-41"/>
     <use x="207.080078" xlink:href="#DejaVuSans-44"/>
     <use x="284.082031" xlink:href="#DejaVuSans-45"/>
     <use x="347.265625" xlink:href="#DejaVuSans-2d"/>
     <use x="383.349609" xlink:href="#DejaVuSans-4c"/>
     <use x="439.0625" xlink:href="#DejaVuSans-4d"/>
    </g>
   </g>
   <g id="text_14">
    <!-- R-SHADE-Tan -->
    <defs>
     <path d="M 44.390625 34.1875 
Q 47.5625 33.109375 50.5625 29.59375 
Q 53.5625 26.078125 56.59375 19.921875 
L 66.609375 0 
L 56 0 
L 46.6875 18.703125 
Q 43.0625 26.03125 39.671875 28.421875 
Q 36.28125 30.8125 30.421875 30.8125 
L 19.671875 30.8125 
L 19.671875 0 
L 9.8125 0 
L 9.8125 72.90625 
L 32.078125 72.90625 
Q 44.578125 72.90625 50.734375 67.671875 
Q 56.890625 62.453125 56.890625 51.90625 
Q 56.890625 45.015625 53.6875 40.46875 
Q 50.484375 35.9375 44.390625 34.1875 
z
M 19.671875 64.796875 
L 19.671875 38.921875 
L 32.078125 38.921875 
Q 39.203125 38.921875 42.84375 42.21875 
Q 46.484375 45.515625 46.484375 51.90625 
Q 46.484375 58.296875 42.84375 61.546875 
Q 39.203125 64.796875 32.078125 64.796875 
z
" id="DejaVuSans-52"/>
     <path d="M -0.296875 72.90625 
L 61.375 72.90625 
L 61.375 64.59375 
L 35.5 64.59375 
L 35.5 0 
L 25.59375 0 
L 25.59375 64.59375 
L -0.296875 64.59375 
z
" id="DejaVuSans-54"/>
    </defs>
    <g transform="translate(369.18424 208.666383)scale(0.17 -0.17)">
     <use xlink:href="#DejaVuSans-52"/>
     <use x="69.419922" xlink:href="#DejaVuSans-2d"/>
     <use x="105.503906" xlink:href="#DejaVuSans-53"/>
     <use x="168.980469" xlink:href="#DejaVuSans-48"/>
     <use x="244.175781" xlink:href="#DejaVuSans-41"/>
     <use x="312.583984" xlink:href="#DejaVuSans-44"/>
     <use x="389.585938" xlink:href="#DejaVuSans-45"/>
     <use x="452.769531" xlink:href="#DejaVuSans-2d"/>
     <use x="488.712891" xlink:href="#DejaVuSans-54"/>
     <use x="549.546875" xlink:href="#DejaVuSans-61"/>
     <use x="610.826172" xlink:href="#DejaVuSans-6e"/>
    </g>
   </g>
   <g id="text_15">
    <!-- SHADE-LM-PO -->
    <defs>
     <path d="M 19.671875 64.796875 
L 19.671875 37.40625 
L 32.078125 37.40625 
Q 38.96875 37.40625 42.71875 40.96875 
Q 46.484375 44.53125 46.484375 51.125 
Q 46.484375 57.671875 42.71875 61.234375 
Q 38.96875 64.796875 32.078125 64.796875 
z
M 9.8125 72.90625 
L 32.078125 72.90625 
Q 44.34375 72.90625 50.609375 67.359375 
Q 56.890625 61.8125 56.890625 51.125 
Q 56.890625 40.328125 50.609375 34.8125 
Q 44.34375 29.296875 32.078125 29.296875 
L 19.671875 29.296875 
L 19.671875 0 
L 9.8125 0 
z
" id="DejaVuSans-50"/>
     <path d="M 39.40625 66.21875 
Q 28.65625 66.21875 22.328125 58.203125 
Q 16.015625 50.203125 16.015625 36.375 
Q 16.015625 22.609375 22.328125 14.59375 
Q 28.65625 6.59375 39.40625 6.59375 
Q 50.140625 6.59375 56.421875 14.59375 
Q 62.703125 22.609375 62.703125 36.375 
Q 62.703125 50.203125 56.421875 58.203125 
Q 50.140625 66.21875 39.40625 66.21875 
z
M 39.40625 74.21875 
Q 54.734375 74.21875 63.90625 63.9375 
Q 73.09375 53.65625 73.09375 36.375 
Q 73.09375 19.140625 63.90625 8.859375 
Q 54.734375 -1.421875 39.40625 -1.421875 
Q 24.03125 -1.421875 14.8125 8.828125 
Q 5.609375 19.09375 5.609375 36.375 
Q 5.609375 53.65625 14.8125 63.9375 
Q 24.03125 74.21875 39.40625 74.21875 
z
" id="DejaVuSans-4f"/>
    </defs>
    <g transform="translate(369.18424 123.109155)scale(0.17 -0.17)">
     <use xlink:href="#DejaVuSans-53"/>
     <use x="63.476562" xlink:href="#DejaVuSans-48"/>
     <use x="138.671875" xlink:href="#DejaVuSans-41"/>
     <use x="207.080078" xlink:href="#DejaVuSans-44"/>
     <use x="284.082031" xlink:href="#DejaVuSans-45"/>
     <use x="347.265625" xlink:href="#DejaVuSans-2d"/>
     <use x="383.349609" xlink:href="#DejaVuSans-4c"/>
     <use x="439.0625" xlink:href="#DejaVuSans-4d"/>
     <use x="525.341797" xlink:href="#DejaVuSans-2d"/>
     <use x="561.425781" xlink:href="#DejaVuSans-50"/>
     <use x="621.728516" xlink:href="#DejaVuSans-4f"/>
    </g>
   </g>
   <g id="text_16">
    <!-- best 2009 -->
    <defs>
     <path d="M 48.6875 27.296875 
Q 48.6875 37.203125 44.609375 42.84375 
Q 40.53125 48.484375 33.40625 48.484375 
Q 26.265625 48.484375 22.1875 42.84375 
Q 18.109375 37.203125 18.109375 27.296875 
Q 18.109375 17.390625 22.1875 11.75 
Q 26.265625 6.109375 33.40625 6.109375 
Q 40.53125 6.109375 44.609375 11.75 
Q 48.6875 17.390625 48.6875 27.296875 
z
M 18.109375 46.390625 
Q 20.953125 51.265625 25.265625 53.625 
Q 29.59375 56 35.59375 56 
Q 45.5625 56 51.78125 48.09375 
Q 58.015625 40.1875 58.015625 27.296875 
Q 58.015625 14.40625 51.78125 6.484375 
Q 45.5625 -1.421875 35.59375 -1.421875 
Q 29.59375 -1.421875 25.265625 0.953125 
Q 20.953125 3.328125 18.109375 8.203125 
L 18.109375 0 
L 9.078125 0 
L 9.078125 75.984375 
L 18.109375 75.984375 
z
" id="DejaVuSans-62"/>
     <path d="M 10.984375 1.515625 
L 10.984375 10.5 
Q 14.703125 8.734375 18.5 7.8125 
Q 22.3125 6.890625 25.984375 6.890625 
Q 35.75 6.890625 40.890625 13.453125 
Q 46.046875 20.015625 46.78125 33.40625 
Q 43.953125 29.203125 39.59375 26.953125 
Q 35.25 24.703125 29.984375 24.703125 
Q 19.046875 24.703125 12.671875 31.3125 
Q 6.296875 37.9375 6.296875 49.421875 
Q 6.296875 60.640625 12.9375 67.421875 
Q 19.578125 74.21875 30.609375 74.21875 
Q 43.265625 74.21875 49.921875 64.515625 
Q 56.59375 54.828125 56.59375 36.375 
Q 56.59375 19.140625 48.40625 8.859375 
Q 40.234375 -1.421875 26.421875 -1.421875 
Q 22.703125 -1.421875 18.890625 -0.6875 
Q 15.09375 0.046875 10.984375 1.515625 
z
M 30.609375 32.421875 
Q 37.25 32.421875 41.125 36.953125 
Q 45.015625 41.5 45.015625 49.421875 
Q 45.015625 57.28125 41.125 61.84375 
Q 37.25 66.40625 30.609375 66.40625 
Q 23.96875 66.40625 20.09375 61.84375 
Q 16.21875 57.28125 16.21875 49.421875 
Q 16.21875 41.5 20.09375 36.953125 
Q 23.96875 32.421875 30.609375 32.421875 
z
" id="DejaVuSans-39"/>
    </defs>
    <g transform="translate(369.18424 37.551928)scale(0.17 -0.17)">
     <use xlink:href="#DejaVuSans-62"/>
     <use x="63.476562" xlink:href="#DejaVuSans-65"/>
     <use x="125" xlink:href="#DejaVuSans-73"/>
     <use x="177.099609" xlink:href="#DejaVuSans-74"/>
     <use x="216.308594" xlink:href="#DejaVuSans-20"/>
     <use x="248.095703" xlink:href="#DejaVuSans-32"/>
     <use x="311.71875" xlink:href="#DejaVuSans-30"/>
     <use x="375.341797" xlink:href="#DejaVuSans-30"/>
     <use x="438.964844" xlink:href="#DejaVuSans-39"/>
    </g>
   </g>
   <g id="text_17">
    <!-- bbob f6, 10-D -->
    <g transform="translate(58.89048 35.290806)scale(0.102 -0.102)">
     <use xlink:href="#DejaVuSans-62"/>
     <use x="63.476562" xlink:href="#DejaVuSans-62"/>
     <use x="126.953125" xlink:href="#DejaVuSans-6f"/>
     <use x="188.134766" xlink:href="#DejaVuSans-62"/>
     <use x="251.611328" xlink:href="#DejaVuSans-20"/>
     <use x="283.398438" xlink:href="#DejaVuSans-66"/>
     <use x="318.603516" xlink:href="#DejaVuSans-36"/>
     <use x="382.226562" xlink:href="#DejaVuSans-2c"/>
     <use x="414.013672" xlink:href="#DejaVuSans-20"/>
     <use x="445.800781" xlink:href="#DejaVuSans-31"/>
     <use x="509.423828" xlink:href="#DejaVuSans-30"/>
     <use x="573.046875" xlink:href="#DejaVuSans-2d"/>
     <use x="609.130859" xlink:href="#DejaVuSans-44"/>
    </g>
    <!-- 51 targets: 100..1e-08 -->
    <defs>
     <path d="M 10.796875 72.90625 
L 49.515625 72.90625 
L 49.515625 64.59375 
L 19.828125 64.59375 
L 19.828125 46.734375 
Q 21.96875 47.46875 24.109375 47.828125 
Q 26.265625 48.1875 28.421875 48.1875 
Q 40.625 48.1875 47.75 41.5 
Q 54.890625 34.8125 54.890625 23.390625 
Q 54.890625 11.625 47.5625 5.09375 
Q 40.234375 -1.421875 26.90625 -1.421875 
Q 22.3125 -1.421875 17.546875 -0.640625 
Q 12.796875 0.140625 7.71875 1.703125 
L 7.71875 11.625 
Q 12.109375 9.234375 16.796875 8.0625 
Q 21.484375 6.890625 26.703125 6.890625 
Q 35.15625 6.890625 40.078125 11.328125 
Q 45.015625 15.765625 45.015625 23.390625 
Q 45.015625 31 40.078125 35.4375 
Q 35.15625 39.890625 26.703125 39.890625 
Q 22.75 39.890625 18.8125 39.015625 
Q 14.890625 38.140625 10.796875 36.28125 
z
" id="DejaVuSans-35"/>
     <path d="M 11.71875 12.40625 
L 22.015625 12.40625 
L 22.015625 0 
L 11.71875 0 
z
M 11.71875 51.703125 
L 22.015625 51.703125 
L 22.015625 39.3125 
L 11.71875 39.3125 
z
" id="DejaVuSans-3a"/>
    </defs>
    <g transform="translate(58.89048 46.712575)scale(0.102 -0.102)">
     <use xlink:href="#DejaVuSans-35"/>
     <use x="63.623047" xlink:href="#DejaVuSans-31"/>
     <use x="127.246094" xlink:href="#DejaVuSans-20"/>
     <use x="159.033203" xlink:href="#DejaVuSans-74"/>
     <use x="198.242188" xlink:href="#DejaVuSans-61"/>
     <use x="259.521484" xlink:href="#DejaVuSans-72"/>
     <use x="300.619141" xlink:href="#DejaVuSans-67"/>
     <use x="364.095703" xlink:href="#DejaVuSans-65"/>
     <use x="425.619141" xlink:href="#DejaVuSans-74"/>
     <use x="464.828125" xlink:href="#DejaVuSans-73"/>
     <use x="516.927734" xlink:href="#DejaVuSans-3a"/>
     <use x="550.619141" xlink:href="#DejaVuSans-20"/>
     <use x="582.40625" xlink:href="#DejaVuSans-31"/>
     <use x="646.029297" xlink:href="#DejaVuSans-30"/>
     <use x="709.652344" xlink:href="#DejaVuSans-30"/>
     <use x="773.275391" xlink:href="#DejaVuSans-2e"/>
     <use x="805.0625" xlink:href="#DejaVuSans-2e"/>
     <use x="836.849609" xlink:href="#DejaVuSans-31"/>
     <use x="900.472656" xlink:href="#DejaVuSans-65"/>
     <use x="961.996094" xlink:href="#DejaVuSans-2d"/>
     <use x="998.080078" xlink:href="#DejaVuSans-30"/>
     <use x="1061.703125" xlink:href="#DejaVuSans-38"/>
    </g>
    <!-- 15 instances -->
    <g transform="translate(58.89048 58.134344)scale(0.102 -0.102)">
     <use xlink:href="#DejaVuSans-31"/>
     <use x="63.623047" xlink:href="#DejaVuSans-35"/>
     <use x="127.246094" xlink:href="#DejaVuSans-20"/>
     <use x="159.033203" xlink:href="#DejaVuSans-69"/>
     <use x="186.816406" xlink:href="#DejaVuSans-6e"/>
     <use x="250.195312" xlink:href="#DejaVuSans-73"/>
     <use x="302.294922" xlink:href="#DejaVuSans-74"/>
     <use x="341.503906" xlink:href="#DejaVuSans-61"/>
     <use x="402.783203" xlink:href="#DejaVuSans-6e"/>
     <use x="466.162109" xlink:href="#DejaVuSans-63"/>
     <use x="521.142578" xlink:href="#DejaVuSans-65"/>
     <use x="582.666016" xlink:href="#DejaVuSans-73"/>
    </g>
   </g>
   <g id="text_18">
    <!-- v2.4 -->
    <g style="fill:#808080;" transform="translate(183.733063 290.099912)scale(0.1 -0.1)">
     <use xlink:href="#DejaVuSans-76"/>
     <use x="59.179688" xlink:href="#DejaVuSans-32"/>
     <use x="122.802734" xlink:href="#DejaVuSans-2e"/>
     <use x="154.589844" xlink:href="#DejaVuSans-34"/>
    </g>
   </g>
   <g id="text_19">
    <!-- 6 Attractive sector -->
    <g transform="translate(101.726812 18.84)scale(0.2 -0.2)">
     <use xlink:href="#DejaVuSans-36"/>
     <use x="63.623047" xlink:href="#DejaVuSans-20"/>
     <use x="95.410156" xlink:href="#DejaVuSans-41"/>
     <use x="163.802734" xlink:href="#DejaVuSans-74"/>
     <use x="203.011719" xlink:href="#DejaVuSans-74"/>
     <use x="242.220703" xlink:href="#DejaVuSans-72"/>
     <use x="283.333984" xlink:href="#DejaVuSans-61"/>
     <use x="344.613281" xlink:href="#DejaVuSans-63"/>
     <use x="399.59375" xlink:href="#DejaVuSans-74"/>
     <use x="438.802734" xlink:href="#DejaVuSans-69"/>
     <use x="466.585938" xlink:href="#DejaVuSans-76"/>
     <use x="525.765625" xlink:href="#DejaVuSans-65"/>
     <use x="587.289062" xlink:href="#DejaVuSans-20"/>
     <use x="619.076172" xlink:href="#DejaVuSans-73"/>
     <use x="671.175781" xlink:href="#DejaVuSans-65"/>
     <use x="732.699219" xlink:href="#DejaVuSans-63"/>
     <use x="787.679688" xlink:href="#DejaVuSans-74"/>
     <use x="826.888672" xlink:href="#DejaVuSans-6f"/>
     <use x="888.070312" xlink:href="#DejaVuSans-72"/>
    </g>
   </g>
  </g>
 </g>
 <defs>
  <clipPath id="pc9716c562f">
   <rect height="270.04" width="277.048" x="56.12" y="24.84"/>
  </clipPath>
 </defs>
</svg>
