<?xml version="1.0" encoding="utf-8" standalone="no"?>
<!DOCTYPE svg PUBLIC "-//W3C//DTD SVG 1.1//EN"
  "http://www.w3.org/Graphics/SVG/1.1/DTD/svg11.dtd">
<!-- Created with matplotlib (http://matplotlib.org/) -->
<svg height="345.6pt" version="1.1" viewBox="0 0 460.8 345.6" width="460.8pt" xmlns="http://www.w3.org/2000/svg" xmlns:xlink="http://www.w3.org/1999/xlink">
 <defs>
  <style type="text/css">
*{stroke-linecap:butt;stroke-linejoin:round;}
  </style>
 </defs>
 <g id="figure_1">
  <g id="patch_1">
   <path d="M 0 345.6 
L 460.8 345.6 
L 460.8 0 
L 0 0 
z
" style="fill:#ffffff;"/>
  </g>
  <g id="axes_1">
   <g id="patch_2">
    <path d="M 56.12 294.88 
L 333.168 294.88 
L 333.168 24.84 
L 56.12 24.84 
z
" style="fill:#ffffff;"/>
   </g>
   <g id="line2d_1">
    <path d="M 71.869783 294.88 
L 71.869783 289.637523 
L 81.973032 289.637523 
L 81.973032 284.395046 
L 89.567532 284.395046 
L 89.567532 279.152568 
L 93.887283 279.152568 
L 93.887283 273.910091 
L 95.698286 273.910091 
L 95.698286 268.667614 
L 98.100602 268.667614 
L 98.100602 263.425137 
L 98.832144 263.425137 
L 98.832144 258.18266 
L 100.856673 258.18266 
L 100.856673 252.940182 
L 103.231288 252.940182 
L 103.231288 247.697705 
L 104.305927 247.697705 
L 104.305927 242.455228 
L 105.317315 242.455228 
L 105.317315 237.212751 
L 106.730875 237.212751 
L 106.730875 231.970274 
L 107.612537 231.970274 
L 107.612537 226.727797 
L 108.451173 226.727797 
L 108.451173 221.485319 
L 108.85563 221.485319 
L 108.85563 216.242842 
L 110.014853 216.242842 
L 110.014853 211.000365 
L 111.788449 211.000365 
L 111.788449 205.757888 
L 112.449632 205.757888 
L 112.449632 200.515411 
L 113.086321 200.515411 
L 113.086321 195.272933 
L 113.700266 195.272933 
L 113.700266 190.030456 
L 114.581927 190.030456 
L 114.581927 184.787979 
L 115.145539 184.787979 
L 115.145539 179.545502 
L 115.691256 179.545502 
L 115.691256 174.303025 
L 116.478659 174.303025 
L 116.478659 169.060547 
L 116.73331 169.060547 
L 116.73331 163.81807 
L 117.475381 163.81807 
L 117.475381 158.575593 
L 118.186736 158.575593 
L 118.186736 153.333116 
L 118.645127 153.333116 
L 118.645127 148.090639 
L 119.310576 148.090639 
L 119.310576 142.848162 
L 119.740314 142.848162 
L 119.740314 137.605684 
L 120.15957 137.605684 
L 120.15957 132.363207 
L 120.968596 132.363207 
L 120.968596 127.12073 
L 121.359263 127.12073 
L 121.359263 121.878253 
L 121.741249 121.878253 
L 121.741249 116.635776 
L 122.114929 116.635776 
L 122.114929 111.393298 
L 122.480659 111.393298 
L 122.480659 106.150821 
L 123.015063 106.150821 
L 123.015063 100.908344 
L 123.36232 100.908344 
L 123.36232 95.665867 
L 123.7027 95.665867 
L 123.7027 90.42339 
L 124.036471 90.42339 
L 124.036471 85.180912 
L 124.685175 85.180912 
L 124.685175 79.938435 
L 125.310285 79.938435 
L 125.310285 74.695958 
L 125.614517 74.695958 
L 125.614517 69.453481 
L 125.913457 69.453481 
L 125.913457 64.211004 
L 126.207287 64.211004 
L 126.207287 58.968526 
L 126.780294 58.968526 
L 126.780294 53.726049 
L 127.05979 53.726049 
L 127.05979 48.483572 
L 127.470694 48.483572 
L 127.470694 43.241095 
L 127.605507 43.241095 
L 127.605507 37.998618 
L 127.872003 37.998618 
L 127.872003 32.756141 
L 128.264156 32.756141 
L 128.264156 27.513663 
L 333.168 27.513663 
" style="fill:none;stroke:#f5deb3;stroke-linecap:square;stroke-width:4;"/>
   </g>
   <g id="line2d_2">
    <defs>
     <path d="M -0 7.778175 
L 7.778175 0 
L 0 -7.778175 
L -7.778175 -0 
z
" id="mdc4bb58d34" style="stroke:#f5deb3;stroke-linejoin:miter;stroke-width:1.5;"/>
    </defs>
    <g>
     <use style="fill:#f5deb3;stroke:#f5deb3;stroke-linejoin:miter;stroke-width:1.5;" x="120.968596" xlink:href="#mdc4bb58d34" y="127.12073"/>
     <use style="fill:#f5deb3;stroke:#f5deb3;stroke-linejoin:miter;stroke-width:1.5;" x="128.264156" xlink:href="#mdc4bb58d34" y="32.756141"/>
     <use style="fill:#f5deb3;stroke:#f5deb3;stroke-linejoin:miter;stroke-width:1.5;" x="128.264156" xlink:href="#mdc4bb58d34" y="27.513663"/>
     <use style="fill:#f5deb3;stroke:#f5deb3;stroke-linejoin:miter;stroke-width:1.5;" x="128.264156" xlink:href="#mdc4bb58d34" y="27.513663"/>
     <use style="fill:#f5deb3;stroke:#f5deb3;stroke-linejoin:miter;stroke-width:1.5;" x="333.168" xlink:href="#mdc4bb58d34" y="27.513663"/>
    </g>
   </g>
   <g id="line2d_3">
    <path style="fill:none;stroke:#f5deb3;stroke-linecap:square;stroke-width:4;"/>
    <g/>
   </g>
   <g id="line2d_4">
    <path d="M 333.168 27.513663 
L 363.64328 32.86099 
" style="fill:none;stroke:#f5deb3;stroke-linecap:square;stroke-width:4;"/>
    <g>
     <use style="fill:#f5deb3;stroke:#f5deb3;stroke-linejoin:miter;stroke-width:1.5;" x="333.168" xlink:href="#mdc4bb58d34" y="27.513663"/>
     <use style="fill:#f5deb3;stroke:#f5deb3;stroke-linejoin:miter;stroke-width:1.5;" x="363.64328" xlink:href="#mdc4bb58d34" y="32.86099"/>
    </g>
   </g>
   <g id="matplotlib.axis_1">
    <g id="xtick_1">
     <g id="line2d_5">
      <path clip-path="url(#p9ab074b00c)" d="M 56.12 294.88 
L 56.12 24.84 
" style="fill:none;stroke:#b0b0b0;stroke-linecap:square;stroke-width:0.8;"/>
     </g>
     <g id="line2d_6">
      <defs>
       <path d="M 0 0 
L 0 3.5 
" id="m9a62dce6cb" style="stroke:#000000;stroke-width:0.8;"/>
      </defs>
      <g>
       <use style="stroke:#000000;stroke-width:0.8;" x="56.12" xlink:href="#m9a62dce6cb" y="294.88"/>
      </g>
     </g>
     <g id="text_1">
      <!-- 0 -->
      <defs>
       <path d="M 31.78125 66.40625 
Q 24.171875 66.40625 20.328125 58.90625 
Q 16.5 51.421875 16.5 36.375 
Q 16.5 21.390625 20.328125 13.890625 
Q 24.171875 6.390625 31.78125 6.390625 
Q 39.453125 6.390625 43.28125 13.890625 
Q 47.125 21.390625 47.125 36.375 
Q 47.125 51.421875 43.28125 58.90625 
Q 39.453125 66.40625 31.78125 66.40625 
z
M 31.78125 74.21875 
Q 44.046875 74.21875 50.515625 64.515625 
Q 56.984375 54.828125 56.984375 36.375 
Q 56.984375 17.96875 50.515625 8.265625 
Q 44.046875 -1.421875 31.78125 -1.421875 
Q 19.53125 -1.421875 13.0625 8.265625 
Q 6.59375 17.96875 6.59375 36.375 
Q 6.59375 54.828125 13.0625 64.515625 
Q 19.53125 74.21875 31.78125 74.21875 
z
" id="DejaVuSans-30"/>
      </defs>
      <g transform="translate(49.7575 317.076875)scale(0.2 -0.2)">
       <use xlink:href="#DejaVuSans-30"/>
      </g>
     </g>
    </g>
    <g id="xtick_2">
     <g id="line2d_7">
      <path clip-path="url(#p9ab074b00c)" d="M 135.276571 294.88 
L 135.276571 24.84 
" style="fill:none;stroke:#b0b0b0;stroke-linecap:square;stroke-width:0.8;"/>
     </g>
     <g id="line2d_8">
      <g>
       <use style="stroke:#000000;stroke-width:0.8;" x="135.276571" xlink:href="#m9a62dce6cb" y="294.88"/>
      </g>
     </g>
     <g id="text_2">
      <!-- 2 -->
      <defs>
       <path d="M 19.1875 8.296875 
L 53.609375 8.296875 
L 53.609375 0 
L 7.328125 0 
L 7.328125 8.296875 
Q 12.9375 14.109375 22.625 23.890625 
Q 32.328125 33.6875 34.8125 36.53125 
Q 39.546875 41.84375 41.421875 45.53125 
Q 43.3125 49.21875 43.3125 52.78125 
Q 43.3125 58.59375 39.234375 62.25 
Q 35.15625 65.921875 28.609375 65.921875 
Q 23.96875 65.921875 18.8125 64.3125 
Q 13.671875 62.703125 7.8125 59.421875 
L 7.8125 69.390625 
Q 13.765625 71.78125 18.9375 73 
Q 24.125 74.21875 28.421875 74.21875 
Q 39.75 74.21875 46.484375 68.546875 
Q 53.21875 62.890625 53.21875 53.421875 
Q 53.21875 48.921875 51.53125 44.890625 
Q 49.859375 40.875 45.40625 35.40625 
Q 44.1875 33.984375 37.640625 27.21875 
Q 31.109375 20.453125 19.1875 8.296875 
z
" id="DejaVuSans-32"/>
      </defs>
      <g transform="translate(128.914071 317.076875)scale(0.2 -0.2)">
       <use xlink:href="#DejaVuSans-32"/>
      </g>
     </g>
    </g>
    <g id="xtick_3">
     <g id="line2d_9">
      <path clip-path="url(#p9ab074b00c)" d="M 214.433143 294.88 
L 214.433143 24.84 
" style="fill:none;stroke:#b0b0b0;stroke-linecap:square;stroke-width:0.8;"/>
     </g>
     <g id="line2d_10">
      <g>
       <use style="stroke:#000000;stroke-width:0.8;" x="214.433143" xlink:href="#m9a62dce6cb" y="294.88"/>
      </g>
     </g>
     <g id="text_3">
      <!-- 4 -->
      <defs>
       <path d="M 37.796875 64.3125 
L 12.890625 25.390625 
L 37.796875 25.390625 
z
M 35.203125 72.90625 
L 47.609375 72.90625 
L 47.609375 25.390625 
L 58.015625 25.390625 
L 58.015625 17.1875 
L 47.609375 17.1875 
L 47.609375 0 
L 37.796875 0 
L 37.796875 17.1875 
L 4.890625 17.1875 
L 4.890625 26.703125 
z
" id="DejaVuSans-34"/>
      </defs>
      <g transform="translate(208.070643 317.076875)scale(0.2 -0.2)">
       <use xlink:href="#DejaVuSans-34"/>
      </g>
     </g>
    </g>
    <g id="xtick_4">
     <g id="line2d_11">
      <path clip-path="url(#p9ab074b00c)" d="M 293.589714 294.88 
L 293.589714 24.84 
" style="fill:none;stroke:#b0b0b0;stroke-linecap:square;stroke-width:0.8;"/>
     </g>
     <g id="line2d_12">
      <g>
       <use style="stroke:#000000;stroke-width:0.8;" x="293.589714" xlink:href="#m9a62dce6cb" y="294.88"/>
      </g>
     </g>
     <g id="text_4">
      <!-- 6 -->
      <defs>
       <path d="M 33.015625 40.375 
Q 26.375 40.375 22.484375 35.828125 
Q 18.609375 31.296875 18.609375 23.390625 
Q 18.609375 15.53125 22.484375 10.953125 
Q 26.375 6.390625 33.015625 6.390625 
Q 39.65625 6.390625 43.53125 10.953125 
Q 47.40625 15.53125 47.40625 23.390625 
Q 47.40625 31.296875 43.53125 35.828125 
Q 39.65625 40.375 33.015625 40.375 
z
M 52.59375 71.296875 
L 52.59375 62.3125 
Q 48.875 64.0625 45.09375 64.984375 
Q 41.3125 65.921875 37.59375 65.921875 
Q 27.828125 65.921875 22.671875 59.328125 
Q 17.53125 52.734375 16.796875 39.40625 
Q 19.671875 43.65625 24.015625 45.921875 
Q 28.375 48.1875 33.59375 48.1875 
Q 44.578125 48.1875 50.953125 41.515625 
Q 57.328125 34.859375 57.328125 23.390625 
Q 57.328125 12.15625 50.6875 5.359375 
Q 44.046875 -1.421875 33.015625 -1.421875 
Q 20.359375 -1.421875 13.671875 8.265625 
Q 6.984375 17.96875 6.984375 36.375 
Q 6.984375 53.65625 15.1875 63.9375 
Q 23.390625 74.21875 37.203125 74.21875 
Q 40.921875 74.21875 44.703125 73.484375 
Q 48.484375 72.75 52.59375 71.296875 
z
" id="DejaVuSans-36"/>
      </defs>
      <g transform="translate(287.227214 317.076875)scale(0.2 -0.2)">
       <use xlink:href="#DejaVuSans-36"/>
      </g>
     </g>
    </g>
    <g id="xtick_5">
     <g id="line2d_13">
      <path clip-path="url(#p9ab074b00c)" d="M 56.12 294.88 
L 56.12 24.84 
" style="fill:none;stroke:#b0b0b0;stroke-linecap:square;stroke-width:0.8;"/>
     </g>
     <g id="line2d_14">
      <defs>
       <path d="M 0 0 
L 0 2 
" id="ma056581d23" style="stroke:#000000;stroke-width:0.6;"/>
      </defs>
      <g>
       <use style="stroke:#000000;stroke-width:0.6;" x="56.12" xlink:href="#ma056581d23" y="294.88"/>
      </g>
     </g>
    </g>
    <g id="xtick_6">
     <g id="line2d_15">
      <path clip-path="url(#p9ab074b00c)" d="M 95.698286 294.88 
L 95.698286 24.84 
" style="fill:none;stroke:#b0b0b0;stroke-linecap:square;stroke-width:0.8;"/>
     </g>
     <g id="line2d_16">
      <g>
       <use style="stroke:#000000;stroke-width:0.6;" x="95.698286" xlink:href="#ma056581d23" y="294.88"/>
      </g>
     </g>
    </g>
    <g id="xtick_7">
     <g id="line2d_17">
      <path clip-path="url(#p9ab074b00c)" d="M 135.276571 294.88 
L 135.276571 24.84 
" style="fill:none;stroke:#b0b0b0;stroke-linecap:square;stroke-width:0.8;"/>
     </g>
     <g id="line2d_18">
      <g>
       <use style="stroke:#000000;stroke-width:0.6;" x="135.276571" xlink:href="#ma056581d23" y="294.88"/>
      </g>
     </g>
    </g>
    <g id="xtick_8">
     <g id="line2d_19">
      <path clip-path="url(#p9ab074b00c)" d="M 174.854857 294.88 
L 174.854857 24.84 
" style="fill:none;stroke:#b0b0b0;stroke-linecap:square;stroke-width:0.8;"/>
     </g>
     <g id="line2d_20">
      <g>
       <use style="stroke:#000000;stroke-width:0.6;" x="174.854857" xlink:href="#ma056581d23" y="294.88"/>
      </g>
     </g>
    </g>
    <g id="xtick_9">
     <g id="line2d_21">
      <path clip-path="url(#p9ab074b00c)" d="M 214.433143 294.88 
L 214.433143 24.84 
" style="fill:none;stroke:#b0b0b0;stroke-linecap:square;stroke-width:0.8;"/>
     </g>
     <g id="line2d_22">
      <g>
       <use style="stroke:#000000;stroke-width:0.6;" x="214.433143" xlink:href="#ma056581d23" y="294.88"/>
      </g>
     </g>
    </g>
    <g id="xtick_10">
     <g id="line2d_23">
      <path clip-path="url(#p9ab074b00c)" d="M 254.011429 294.88 
L 254.011429 24.84 
" style="fill:none;stroke:#b0b0b0;stroke-linecap:square;stroke-width:0.8;"/>
     </g>
     <g id="line2d_24">
      <g>
       <use style="stroke:#000000;stroke-width:0.6;" x="254.011429" xlink:href="#ma056581d23" y="294.88"/>
      </g>
     </g>
    </g>
    <g id="xtick_11">
     <g id="line2d_25">
      <path clip-path="url(#p9ab074b00c)" d="M 293.589714 294.88 
L 293.589714 24.84 
" style="fill:none;stroke:#b0b0b0;stroke-linecap:square;stroke-width:0.8;"/>
     </g>
     <g id="line2d_26">
      <g>
       <use style="stroke:#000000;stroke-width:0.6;" x="293.589714" xlink:href="#ma056581d23" y="294.88"/>
      </g>
     </g>
    </g>
    <g id="xtick_12">
     <g id="line2d_27">
      <path clip-path="url(#p9ab074b00c)" d="M 333.168 294.88 
L 333.168 24.84 
" style="fill:none;stroke:#b0b0b0;stroke-linecap:square;stroke-width:0.8;"/>
     </g>
     <g id="line2d_28">
      <g>
       <use style="stroke:#000000;stroke-width:0.6;" x="333.168" xlink:href="#ma056581d23" y="294.88"/>
      </g>
     </g>
    </g>
    <g id="text_5">
     <!-- log10(# f-evals / dimension) -->
     <defs>
      <path d="M 9.421875 75.984375 
L 18.40625 75.984375 
L 18.40625 0 
L 9.421875 0 
z
" id="DejaVuSans-6c"/>
      <path d="M 30.609375 48.390625 
Q 23.390625 48.390625 19.1875 42.75 
Q 14.984375 37.109375 14.984375 27.296875 
Q 14.984375 17.484375 19.15625 11.84375 
Q 23.34375 6.203125 30.609375 6.203125 
Q 37.796875 6.203125 41.984375 11.859375 
Q 46.1875 17.53125 46.1875 27.296875 
Q 46.1875 37.015625 41.984375 42.703125 
Q 37.796875 48.390625 30.609375 48.390625 
z
M 30.609375 56 
Q 42.328125 56 49.015625 48.375 
Q 55.71875 40.765625 55.71875 27.296875 
Q 55.71875 13.875 49.015625 6.21875 
Q 42.328125 -1.421875 30.609375 -1.421875 
Q 18.84375 -1.421875 12.171875 6.21875 
Q 5.515625 13.875 5.515625 27.296875 
Q 5.515625 40.765625 12.171875 48.375 
Q 18.84375 56 30.609375 56 
z
" id="DejaVuSans-6f"/>
      <path d="M 45.40625 27.984375 
Q 45.40625 37.75 41.375 43.109375 
Q 37.359375 48.484375 30.078125 48.484375 
Q 22.859375 48.484375 18.828125 43.109375 
Q 14.796875 37.75 14.796875 27.984375 
Q 14.796875 18.265625 18.828125 12.890625 
Q 22.859375 7.515625 30.078125 7.515625 
Q 37.359375 7.515625 41.375 12.890625 
Q 45.40625 18.265625 45.40625 27.984375 
z
M 54.390625 6.78125 
Q 54.390625 -7.171875 48.1875 -13.984375 
Q 42 -20.796875 29.203125 -20.796875 
Q 24.46875 -20.796875 20.265625 -20.09375 
Q 16.0625 -19.390625 12.109375 -17.921875 
L 12.109375 -9.1875 
Q 16.0625 -11.328125 19.921875 -12.34375 
Q 23.78125 -13.375 27.78125 -13.375 
Q 36.625 -13.375 41.015625 -8.765625 
Q 45.40625 -4.15625 45.40625 5.171875 
L 45.40625 9.625 
Q 42.625 4.78125 38.28125 2.390625 
Q 33.9375 0 27.875 0 
Q 17.828125 0 11.671875 7.65625 
Q 5.515625 15.328125 5.515625 27.984375 
Q 5.515625 40.671875 11.671875 48.328125 
Q 17.828125 56 27.875 56 
Q 33.9375 56 38.28125 53.609375 
Q 42.625 51.21875 45.40625 46.390625 
L 45.40625 54.6875 
L 54.390625 54.6875 
z
" id="DejaVuSans-67"/>
      <path d="M 12.40625 8.296875 
L 28.515625 8.296875 
L 28.515625 63.921875 
L 10.984375 60.40625 
L 10.984375 69.390625 
L 28.421875 72.90625 
L 38.28125 72.90625 
L 38.28125 8.296875 
L 54.390625 8.296875 
L 54.390625 0 
L 12.40625 0 
z
" id="DejaVuSans-31"/>
      <path d="M 31 75.875 
Q 24.46875 64.65625 21.28125 53.65625 
Q 18.109375 42.671875 18.109375 31.390625 
Q 18.109375 20.125 21.3125 9.0625 
Q 24.515625 -2 31 -13.1875 
L 23.1875 -13.1875 
Q 15.875 -1.703125 12.234375 9.375 
Q 8.59375 20.453125 8.59375 31.390625 
Q 8.59375 42.28125 12.203125 53.3125 
Q 15.828125 64.359375 23.1875 75.875 
z
" id="DejaVuSans-28"/>
      <path d="M 51.125 44 
L 36.921875 44 
L 32.8125 27.6875 
L 47.125 27.6875 
z
M 43.796875 71.78125 
L 38.71875 51.515625 
L 52.984375 51.515625 
L 58.109375 71.78125 
L 65.921875 71.78125 
L 60.890625 51.515625 
L 76.125 51.515625 
L 76.125 44 
L 58.984375 44 
L 54.984375 27.6875 
L 70.515625 27.6875 
L 70.515625 20.21875 
L 53.078125 20.21875 
L 48 0 
L 40.1875 0 
L 45.21875 20.21875 
L 30.90625 20.21875 
L 25.875 0 
L 18.015625 0 
L 23.09375 20.21875 
L 7.71875 20.21875 
L 7.71875 27.6875 
L 24.90625 27.6875 
L 29 44 
L 13.28125 44 
L 13.28125 51.515625 
L 30.90625 51.515625 
L 35.890625 71.78125 
z
" id="DejaVuSans-23"/>
      <path id="DejaVuSans-20"/>
      <path d="M 37.109375 75.984375 
L 37.109375 68.5 
L 28.515625 68.5 
Q 23.6875 68.5 21.796875 66.546875 
Q 19.921875 64.59375 19.921875 59.515625 
L 19.921875 54.6875 
L 34.71875 54.6875 
L 34.71875 47.703125 
L 19.921875 47.703125 
L 19.921875 0 
L 10.890625 0 
L 10.890625 47.703125 
L 2.296875 47.703125 
L 2.296875 54.6875 
L 10.890625 54.6875 
L 10.890625 58.5 
Q 10.890625 67.625 15.140625 71.796875 
Q 19.390625 75.984375 28.609375 75.984375 
z
" id="DejaVuSans-66"/>
      <path d="M 4.890625 31.390625 
L 31.203125 31.390625 
L 31.203125 23.390625 
L 4.890625 23.390625 
z
" id="DejaVuSans-2d"/>
      <path d="M 56.203125 29.59375 
L 56.203125 25.203125 
L 14.890625 25.203125 
Q 15.484375 15.921875 20.484375 11.0625 
Q 25.484375 6.203125 34.421875 6.203125 
Q 39.59375 6.203125 44.453125 7.46875 
Q 49.3125 8.734375 54.109375 11.28125 
L 54.109375 2.78125 
Q 49.265625 0.734375 44.1875 -0.34375 
Q 39.109375 -1.421875 33.890625 -1.421875 
Q 20.796875 -1.421875 13.15625 6.1875 
Q 5.515625 13.8125 5.515625 26.8125 
Q 5.515625 40.234375 12.765625 48.109375 
Q 20.015625 56 32.328125 56 
Q 43.359375 56 49.78125 48.890625 
Q 56.203125 41.796875 56.203125 29.59375 
z
M 47.21875 32.234375 
Q 47.125 39.59375 43.09375 43.984375 
Q 39.0625 48.390625 32.421875 48.390625 
Q 24.90625 48.390625 20.390625 44.140625 
Q 15.875 39.890625 15.1875 32.171875 
z
" id="DejaVuSans-65"/>
      <path d="M 2.984375 54.6875 
L 12.5 54.6875 
L 29.59375 8.796875 
L 46.6875 54.6875 
L 56.203125 54.6875 
L 35.6875 0 
L 23.484375 0 
z
" id="DejaVuSans-76"/>
      <path d="M 34.28125 27.484375 
Q 23.390625 27.484375 19.1875 25 
Q 14.984375 22.515625 14.984375 16.5 
Q 14.984375 11.71875 18.140625 8.90625 
Q 21.296875 6.109375 26.703125 6.109375 
Q 34.1875 6.109375 38.703125 11.40625 
Q 43.21875 16.703125 43.21875 25.484375 
L 43.21875 27.484375 
z
M 52.203125 31.203125 
L 52.203125 0 
L 43.21875 0 
L 43.21875 8.296875 
Q 40.140625 3.328125 35.546875 0.953125 
Q 30.953125 -1.421875 24.3125 -1.421875 
Q 15.921875 -1.421875 10.953125 3.296875 
Q 6 8.015625 6 15.921875 
Q 6 25.140625 12.171875 29.828125 
Q 18.359375 34.515625 30.609375 34.515625 
L 43.21875 34.515625 
L 43.21875 35.40625 
Q 43.21875 41.609375 39.140625 45 
Q 35.0625 48.390625 27.6875 48.390625 
Q 23 48.390625 18.546875 47.265625 
Q 14.109375 46.140625 10.015625 43.890625 
L 10.015625 52.203125 
Q 14.9375 54.109375 19.578125 55.046875 
Q 24.21875 56 28.609375 56 
Q 40.484375 56 46.34375 49.84375 
Q 52.203125 43.703125 52.203125 31.203125 
z
" id="DejaVuSans-61"/>
      <path d="M 44.28125 53.078125 
L 44.28125 44.578125 
Q 40.484375 46.53125 36.375 47.5 
Q 32.28125 48.484375 27.875 48.484375 
Q 21.1875 48.484375 17.84375 46.4375 
Q 14.5 44.390625 14.5 40.28125 
Q 14.5 37.15625 16.890625 35.375 
Q 19.28125 33.59375 26.515625 31.984375 
L 29.59375 31.296875 
Q 39.15625 29.25 43.1875 25.515625 
Q 47.21875 21.78125 47.21875 15.09375 
Q 47.21875 7.46875 41.1875 3.015625 
Q 35.15625 -1.421875 24.609375 -1.421875 
Q 20.21875 -1.421875 15.453125 -0.5625 
Q 10.6875 0.296875 5.421875 2 
L 5.421875 11.28125 
Q 10.40625 8.6875 15.234375 7.390625 
Q 20.0625 6.109375 24.8125 6.109375 
Q 31.15625 6.109375 34.5625 8.28125 
Q 37.984375 10.453125 37.984375 14.40625 
Q 37.984375 18.0625 35.515625 20.015625 
Q 33.0625 21.96875 24.703125 23.78125 
L 21.578125 24.515625 
Q 13.234375 26.265625 9.515625 29.90625 
Q 5.8125 33.546875 5.8125 39.890625 
Q 5.8125 47.609375 11.28125 51.796875 
Q 16.75 56 26.8125 56 
Q 31.78125 56 36.171875 55.265625 
Q 40.578125 54.546875 44.28125 53.078125 
z
" id="DejaVuSans-73"/>
      <path d="M 25.390625 72.90625 
L 33.6875 72.90625 
L 8.296875 -9.28125 
L 0 -9.28125 
z
" id="DejaVuSans-2f"/>
      <path d="M 45.40625 46.390625 
L 45.40625 75.984375 
L 54.390625 75.984375 
L 54.390625 0 
L 45.40625 0 
L 45.40625 8.203125 
Q 42.578125 3.328125 38.25 0.953125 
Q 33.9375 -1.421875 27.875 -1.421875 
Q 17.96875 -1.421875 11.734375 6.484375 
Q 5.515625 14.40625 5.515625 27.296875 
Q 5.515625 40.1875 11.734375 48.09375 
Q 17.96875 56 27.875 56 
Q 33.9375 56 38.25 53.625 
Q 42.578125 51.265625 45.40625 46.390625 
z
M 14.796875 27.296875 
Q 14.796875 17.390625 18.875 11.75 
Q 22.953125 6.109375 30.078125 6.109375 
Q 37.203125 6.109375 41.296875 11.75 
Q 45.40625 17.390625 45.40625 27.296875 
Q 45.40625 37.203125 41.296875 42.84375 
Q 37.203125 48.484375 30.078125 48.484375 
Q 22.953125 48.484375 18.875 42.84375 
Q 14.796875 37.203125 14.796875 27.296875 
z
" id="DejaVuSans-64"/>
      <path d="M 9.421875 54.6875 
L 18.40625 54.6875 
L 18.40625 0 
L 9.421875 0 
z
M 9.421875 75.984375 
L 18.40625 75.984375 
L 18.40625 64.59375 
L 9.421875 64.59375 
z
" id="DejaVuSans-69"/>
      <path d="M 52 44.1875 
Q 55.375 50.25 60.0625 53.125 
Q 64.75 56 71.09375 56 
Q 79.640625 56 84.28125 50.015625 
Q 88.921875 44.046875 88.921875 33.015625 
L 88.921875 0 
L 79.890625 0 
L 79.890625 32.71875 
Q 79.890625 40.578125 77.09375 44.375 
Q 74.3125 48.1875 68.609375 48.1875 
Q 61.625 48.1875 57.5625 43.546875 
Q 53.515625 38.921875 53.515625 30.90625 
L 53.515625 0 
L 44.484375 0 
L 44.484375 32.71875 
Q 44.484375 40.625 41.703125 44.40625 
Q 38.921875 48.1875 33.109375 48.1875 
Q 26.21875 48.1875 22.15625 43.53125 
Q 18.109375 38.875 18.109375 30.90625 
L 18.109375 0 
L 9.078125 0 
L 9.078125 54.6875 
L 18.109375 54.6875 
L 18.109375 46.1875 
Q 21.1875 51.21875 25.484375 53.609375 
Q 29.78125 56 35.6875 56 
Q 41.65625 56 45.828125 52.96875 
Q 50 49.953125 52 44.1875 
z
" id="DejaVuSans-6d"/>
      <path d="M 54.890625 33.015625 
L 54.890625 0 
L 45.90625 0 
L 45.90625 32.71875 
Q 45.90625 40.484375 42.875 44.328125 
Q 39.84375 48.1875 33.796875 48.1875 
Q 26.515625 48.1875 22.3125 43.546875 
Q 18.109375 38.921875 18.109375 30.90625 
L 18.109375 0 
L 9.078125 0 
L 9.078125 54.6875 
L 18.109375 54.6875 
L 18.109375 46.1875 
Q 21.34375 51.125 25.703125 53.5625 
Q 30.078125 56 35.796875 56 
Q 45.21875 56 50.046875 50.171875 
Q 54.890625 44.34375 54.890625 33.015625 
z
" id="DejaVuSans-6e"/>
      <path d="M 8.015625 75.875 
L 15.828125 75.875 
Q 23.140625 64.359375 26.78125 53.3125 
Q 30.421875 42.28125 30.421875 31.390625 
Q 30.421875 20.453125 26.78125 9.375 
Q 23.140625 -1.703125 15.828125 -13.1875 
L 8.015625 -13.1875 
Q 14.5 -2 17.703125 9.0625 
Q 20.90625 20.125 20.90625 31.390625 
Q 20.90625 42.671875 17.703125 53.65625 
Q 14.5 64.65625 8.015625 75.875 
z
" id="DejaVuSans-29"/>
     </defs>
     <g transform="translate(73.803219 338.153594)scale(0.17 -0.17)">
      <use xlink:href="#DejaVuSans-6c"/>
      <use x="27.783203" xlink:href="#DejaVuSans-6f"/>
      <use x="88.964844" xlink:href="#DejaVuSans-67"/>
      <use x="152.441406" xlink:href="#DejaVuSans-31"/>
      <use x="216.064453" xlink:href="#DejaVuSans-30"/>
      <use x="279.6875" xlink:href="#DejaVuSans-28"/>
      <use x="318.701172" xlink:href="#DejaVuSans-23"/>
      <use x="402.490234" xlink:href="#DejaVuSans-20"/>
      <use x="434.277344" xlink:href="#DejaVuSans-66"/>
      <use x="469.404297" xlink:href="#DejaVuSans-2d"/>
      <use x="505.488281" xlink:href="#DejaVuSans-65"/>
      <use x="567.011719" xlink:href="#DejaVuSans-76"/>
      <use x="626.191406" xlink:href="#DejaVuSans-61"/>
      <use x="687.470703" xlink:href="#DejaVuSans-6c"/>
      <use x="715.253906" xlink:href="#DejaVuSans-73"/>
      <use x="767.353516" xlink:href="#DejaVuSans-20"/>
      <use x="799.140625" xlink:href="#DejaVuSans-2f"/>
      <use x="832.832031" xlink:href="#DejaVuSans-20"/>
      <use x="864.619141" xlink:href="#DejaVuSans-64"/>
      <use x="928.095703" xlink:href="#DejaVuSans-69"/>
      <use x="955.878906" xlink:href="#DejaVuSans-6d"/>
      <use x="1053.291016" xlink:href="#DejaVuSans-65"/>
      <use x="1114.814453" xlink:href="#DejaVuSans-6e"/>
      <use x="1178.193359" xlink:href="#DejaVuSans-73"/>
      <use x="1230.292969" xlink:href="#DejaVuSans-69"/>
      <use x="1258.076172" xlink:href="#DejaVuSans-6f"/>
      <use x="1319.257812" xlink:href="#DejaVuSans-6e"/>
      <use x="1382.636719" xlink:href="#DejaVuSans-29"/>
     </g>
    </g>
   </g>
   <g id="matplotlib.axis_2">
    <g id="ytick_1">
     <g id="line2d_29">
      <path clip-path="url(#p9ab074b00c)" d="M 56.12 294.88 
L 333.168 294.88 
" style="fill:none;stroke:#b0b0b0;stroke-linecap:square;stroke-width:0.8;"/>
     </g>
     <g id="line2d_30">
      <defs>
       <path d="M 0 0 
L -3.5 0 
" id="m3977de803e" style="stroke:#000000;stroke-width:0.8;"/>
      </defs>
      <g>
       <use style="stroke:#000000;stroke-width:0.8;" x="56.12" xlink:href="#m3977de803e" y="294.88"/>
      </g>
     </g>
     <g id="text_6">
      <!-- 0.0 -->
      <defs>
       <path d="M 10.6875 12.40625 
L 21 12.40625 
L 21 0 
L 10.6875 0 
z
" id="DejaVuSans-2e"/>
      </defs>
      <g transform="translate(23.675 300.95875)scale(0.16 -0.16)">
       <use xlink:href="#DejaVuSans-30"/>
       <use x="63.623047" xlink:href="#DejaVuSans-2e"/>
       <use x="95.410156" xlink:href="#DejaVuSans-30"/>
      </g>
     </g>
    </g>
    <g id="ytick_2">
     <g id="line2d_31">
      <path clip-path="url(#p9ab074b00c)" d="M 56.12 241.406733 
L 333.168 241.406733 
" style="fill:none;stroke:#b0b0b0;stroke-linecap:square;stroke-width:0.8;"/>
     </g>
     <g id="line2d_32">
      <g>
       <use style="stroke:#000000;stroke-width:0.8;" x="56.12" xlink:href="#m3977de803e" y="241.406733"/>
      </g>
     </g>
     <g id="text_7">
      <!-- 0.2 -->
      <g transform="translate(23.675 247.485483)scale(0.16 -0.16)">
       <use xlink:href="#DejaVuSans-30"/>
       <use x="63.623047" xlink:href="#DejaVuSans-2e"/>
       <use x="95.410156" xlink:href="#DejaVuSans-32"/>
      </g>
     </g>
    </g>
    <g id="ytick_3">
     <g id="line2d_33">
      <path clip-path="url(#p9ab074b00c)" d="M 56.12 187.933465 
L 333.168 187.933465 
" style="fill:none;stroke:#b0b0b0;stroke-linecap:square;stroke-width:0.8;"/>
     </g>
     <g id="line2d_34">
      <g>
       <use style="stroke:#000000;stroke-width:0.8;" x="56.12" xlink:href="#m3977de803e" y="187.933465"/>
      </g>
     </g>
     <g id="text_8">
      <!-- 0.4 -->
      <g transform="translate(23.675 194.012215)scale(0.16 -0.16)">
       <use xlink:href="#DejaVuSans-30"/>
       <use x="63.623047" xlink:href="#DejaVuSans-2e"/>
       <use x="95.410156" xlink:href="#DejaVuSans-34"/>
      </g>
     </g>
    </g>
    <g id="ytick_4">
     <g id="line2d_35">
      <path clip-path="url(#p9ab074b00c)" d="M 56.12 134.460198 
L 333.168 134.460198 
" style="fill:none;stroke:#b0b0b0;stroke-linecap:square;stroke-width:0.8;"/>
     </g>
     <g id="line2d_36">
      <g>
       <use style="stroke:#000000;stroke-width:0.8;" x="56.12" xlink:href="#m3977de803e" y="134.460198"/>
      </g>
     </g>
     <g id="text_9">
      <!-- 0.6 -->
      <g transform="translate(23.675 140.538948)scale(0.16 -0.16)">
       <use xlink:href="#DejaVuSans-30"/>
       <use x="63.623047" xlink:href="#DejaVuSans-2e"/>
       <use x="95.410156" xlink:href="#DejaVuSans-36"/>
      </g>
     </g>
    </g>
    <g id="ytick_5">
     <g id="line2d_37">
      <path clip-path="url(#p9ab074b00c)" d="M 56.12 80.986931 
L 333.168 80.986931 
" style="fill:none;stroke:#b0b0b0;stroke-linecap:square;stroke-width:0.8;"/>
     </g>
     <g id="line2d_38">
      <g>
       <use style="stroke:#000000;stroke-width:0.8;" x="56.12" xlink:href="#m3977de803e" y="80.986931"/>
      </g>
     </g>
     <g id="text_10">
      <!-- 0.8 -->
      <defs>
       <path d="M 31.78125 34.625 
Q 24.75 34.625 20.71875 30.859375 
Q 16.703125 27.09375 16.703125 20.515625 
Q 16.703125 13.921875 20.71875 10.15625 
Q 24.75 6.390625 31.78125 6.390625 
Q 38.8125 6.390625 42.859375 10.171875 
Q 46.921875 13.96875 46.921875 20.515625 
Q 46.921875 27.09375 42.890625 30.859375 
Q 38.875 34.625 31.78125 34.625 
z
M 21.921875 38.8125 
Q 15.578125 40.375 12.03125 44.71875 
Q 8.5 49.078125 8.5 55.328125 
Q 8.5 64.0625 14.71875 69.140625 
Q 20.953125 74.21875 31.78125 74.21875 
Q 42.671875 74.21875 48.875 69.140625 
Q 55.078125 64.0625 55.078125 55.328125 
Q 55.078125 49.078125 51.53125 44.71875 
Q 48 40.375 41.703125 38.8125 
Q 48.828125 37.15625 52.796875 32.3125 
Q 56.78125 27.484375 56.78125 20.515625 
Q 56.78125 9.90625 50.3125 4.234375 
Q 43.84375 -1.421875 31.78125 -1.421875 
Q 19.734375 -1.421875 13.25 4.234375 
Q 6.78125 9.90625 6.78125 20.515625 
Q 6.78125 27.484375 10.78125 32.3125 
Q 14.796875 37.15625 21.921875 38.8125 
z
M 18.3125 54.390625 
Q 18.3125 48.734375 21.84375 45.5625 
Q 25.390625 42.390625 31.78125 42.390625 
Q 38.140625 42.390625 41.71875 45.5625 
Q 45.3125 48.734375 45.3125 54.390625 
Q 45.3125 60.0625 41.71875 63.234375 
Q 38.140625 66.40625 31.78125 66.40625 
Q 25.390625 66.40625 21.84375 63.234375 
Q 18.3125 60.0625 18.3125 54.390625 
z
" id="DejaVuSans-38"/>
      </defs>
      <g transform="translate(23.675 87.065681)scale(0.16 -0.16)">
       <use xlink:href="#DejaVuSans-30"/>
       <use x="63.623047" xlink:href="#DejaVuSans-2e"/>
       <use x="95.410156" xlink:href="#DejaVuSans-38"/>
      </g>
     </g>
    </g>
    <g id="ytick_6">
     <g id="line2d_39">
      <path clip-path="url(#p9ab074b00c)" d="M 56.12 27.513663 
L 333.168 27.513663 
" style="fill:none;stroke:#b0b0b0;stroke-linecap:square;stroke-width:0.8;"/>
     </g>
     <g id="line2d_40">
      <g>
       <use style="stroke:#000000;stroke-width:0.8;" x="56.12" xlink:href="#m3977de803e" y="27.513663"/>
      </g>
     </g>
     <g id="text_11">
      <!-- 1.0 -->
      <g transform="translate(23.675 33.592413)scale(0.16 -0.16)">
       <use xlink:href="#DejaVuSans-31"/>
       <use x="63.623047" xlink:href="#DejaVuSans-2e"/>
       <use x="95.410156" xlink:href="#DejaVuSans-30"/>
      </g>
     </g>
    </g>
    <g id="text_12">
     <!-- Fraction of function,target pairs -->
     <defs>
      <path d="M 9.8125 72.90625 
L 51.703125 72.90625 
L 51.703125 64.59375 
L 19.671875 64.59375 
L 19.671875 43.109375 
L 48.578125 43.109375 
L 48.578125 34.8125 
L 19.671875 34.8125 
L 19.671875 0 
L 9.8125 0 
z
" id="DejaVuSans-46"/>
      <path d="M 41.109375 46.296875 
Q 39.59375 47.171875 37.8125 47.578125 
Q 36.03125 48 33.890625 48 
Q 26.265625 48 22.1875 43.046875 
Q 18.109375 38.09375 18.109375 28.8125 
L 18.109375 0 
L 9.078125 0 
L 9.078125 54.6875 
L 18.109375 54.6875 
L 18.109375 46.1875 
Q 20.953125 51.171875 25.484375 53.578125 
Q 30.03125 56 36.53125 56 
Q 37.453125 56 38.578125 55.875 
Q 39.703125 55.765625 41.0625 55.515625 
z
" id="DejaVuSans-72"/>
      <path d="M 48.78125 52.59375 
L 48.78125 44.1875 
Q 44.96875 46.296875 41.140625 47.34375 
Q 37.3125 48.390625 33.40625 48.390625 
Q 24.65625 48.390625 19.8125 42.84375 
Q 14.984375 37.3125 14.984375 27.296875 
Q 14.984375 17.28125 19.8125 11.734375 
Q 24.65625 6.203125 33.40625 6.203125 
Q 37.3125 6.203125 41.140625 7.25 
Q 44.96875 8.296875 48.78125 10.40625 
L 48.78125 2.09375 
Q 45.015625 0.34375 40.984375 -0.53125 
Q 36.96875 -1.421875 32.421875 -1.421875 
Q 20.0625 -1.421875 12.78125 6.34375 
Q 5.515625 14.109375 5.515625 27.296875 
Q 5.515625 40.671875 12.859375 48.328125 
Q 20.21875 56 33.015625 56 
Q 37.15625 56 41.109375 55.140625 
Q 45.0625 54.296875 48.78125 52.59375 
z
" id="DejaVuSans-63"/>
      <path d="M 18.3125 70.21875 
L 18.3125 54.6875 
L 36.8125 54.6875 
L 36.8125 47.703125 
L 18.3125 47.703125 
L 18.3125 18.015625 
Q 18.3125 11.328125 20.140625 9.421875 
Q 21.96875 7.515625 27.59375 7.515625 
L 36.8125 7.515625 
L 36.8125 0 
L 27.59375 0 
Q 17.1875 0 13.234375 3.875 
Q 9.28125 7.765625 9.28125 18.015625 
L 9.28125 47.703125 
L 2.6875 47.703125 
L 2.6875 54.6875 
L 9.28125 54.6875 
L 9.28125 70.21875 
z
" id="DejaVuSans-74"/>
      <path d="M 8.5 21.578125 
L 8.5 54.6875 
L 17.484375 54.6875 
L 17.484375 21.921875 
Q 17.484375 14.15625 20.5 10.265625 
Q 23.53125 6.390625 29.59375 6.390625 
Q 36.859375 6.390625 41.078125 11.03125 
Q 45.3125 15.671875 45.3125 23.6875 
L 45.3125 54.6875 
L 54.296875 54.6875 
L 54.296875 0 
L 45.3125 0 
L 45.3125 8.40625 
Q 42.046875 3.421875 37.71875 1 
Q 33.40625 -1.421875 27.6875 -1.421875 
Q 18.265625 -1.421875 13.375 4.4375 
Q 8.5 10.296875 8.5 21.578125 
z
M 31.109375 56 
z
" id="DejaVuSans-75"/>
      <path d="M 11.71875 12.40625 
L 22.015625 12.40625 
L 22.015625 4 
L 14.015625 -11.625 
L 7.71875 -11.625 
L 11.71875 4 
z
" id="DejaVuSans-2c"/>
      <path d="M 18.109375 8.203125 
L 18.109375 -20.796875 
L 9.078125 -20.796875 
L 9.078125 54.6875 
L 18.109375 54.6875 
L 18.109375 46.390625 
Q 20.953125 51.265625 25.265625 53.625 
Q 29.59375 56 35.59375 56 
Q 45.5625 56 51.78125 48.09375 
Q 58.015625 40.1875 58.015625 27.296875 
Q 58.015625 14.40625 51.78125 6.484375 
Q 45.5625 -1.421875 35.59375 -1.421875 
Q 29.59375 -1.421875 25.265625 0.953125 
Q 20.953125 3.328125 18.109375 8.203125 
z
M 48.6875 27.296875 
Q 48.6875 37.203125 44.609375 42.84375 
Q 40.53125 48.484375 33.40625 48.484375 
Q 26.265625 48.484375 22.1875 42.84375 
Q 18.109375 37.203125 18.109375 27.296875 
Q 18.109375 17.390625 22.1875 11.75 
Q 26.265625 6.109375 33.40625 6.109375 
Q 40.53125 6.109375 44.609375 11.75 
Q 48.6875 17.390625 48.6875 27.296875 
z
" id="DejaVuSans-70"/>
     </defs>
     <g transform="translate(16.139531 294.999375)rotate(-90)scale(0.17 -0.17)">
      <use xlink:href="#DejaVuSans-46"/>
      <use x="57.410156" xlink:href="#DejaVuSans-72"/>
      <use x="98.523438" xlink:href="#DejaVuSans-61"/>
      <use x="159.802734" xlink:href="#DejaVuSans-63"/>
      <use x="214.783203" xlink:href="#DejaVuSans-74"/>
      <use x="253.992188" xlink:href="#DejaVuSans-69"/>
      <use x="281.775391" xlink:href="#DejaVuSans-6f"/>
      <use x="342.957031" xlink:href="#DejaVuSans-6e"/>
      <use x="406.335938" xlink:href="#DejaVuSans-20"/>
      <use x="438.123047" xlink:href="#DejaVuSans-6f"/>
      <use x="499.304688" xlink:href="#DejaVuSans-66"/>
      <use x="534.509766" xlink:href="#DejaVuSans-20"/>
      <use x="566.296875" xlink:href="#DejaVuSans-66"/>
      <use x="601.501953" xlink:href="#DejaVuSans-75"/>
      <use x="664.880859" xlink:href="#DejaVuSans-6e"/>
      <use x="728.259766" xlink:href="#DejaVuSans-63"/>
      <use x="783.240234" xlink:href="#DejaVuSans-74"/>
      <use x="822.449219" xlink:href="#DejaVuSans-69"/>
      <use x="850.232422" xlink:href="#DejaVuSans-6f"/>
      <use x="911.414062" xlink:href="#DejaVuSans-6e"/>
      <use x="974.792969" xlink:href="#DejaVuSans-2c"/>
      <use x="1006.580078" xlink:href="#DejaVuSans-74"/>
      <use x="1045.789062" xlink:href="#DejaVuSans-61"/>
      <use x="1107.068359" xlink:href="#DejaVuSans-72"/>
      <use x="1148.166016" xlink:href="#DejaVuSans-67"/>
      <use x="1211.642578" xlink:href="#DejaVuSans-65"/>
      <use x="1273.166016" xlink:href="#DejaVuSans-74"/>
      <use x="1312.375" xlink:href="#DejaVuSans-20"/>
      <use x="1344.162109" xlink:href="#DejaVuSans-70"/>
      <use x="1407.638672" xlink:href="#DejaVuSans-61"/>
      <use x="1468.917969" xlink:href="#DejaVuSans-69"/>
      <use x="1496.701172" xlink:href="#DejaVuSans-72"/>
      <use x="1537.814453" xlink:href="#DejaVuSans-73"/>
     </g>
    </g>
   </g>
   <g id="line2d_41">
    <defs>
     <path d="M 0 1.5 
C 0.397805 1.5 0.77937 1.341951 1.06066 1.06066 
C 1.341951 0.77937 1.5 0.397805 1.5 0 
C 1.5 -0.397805 1.341951 -0.77937 1.06066 -1.06066 
C 0.77937 -1.341951 0.397805 -1.5 0 -1.5 
C -0.397805 -1.5 -0.77937 -1.341951 -1.06066 -1.06066 
C -1.341951 -0.77937 -1.5 -0.397805 -1.5 0 
C -1.5 0.397805 -1.341951 0.77937 -1.06066 1.06066 
C -0.77937 1.341951 -0.397805 1.5 0 1.5 
z
" id="m7a421b3824" style="stroke:#f5deb3;"/>
    </defs>
    <g>
     <use style="fill:#f5deb3;stroke:#f5deb3;" x="128.264156" xlink:href="#m7a421b3824" y="27.513663"/>
     <use style="fill:#f5deb3;stroke:#f5deb3;" x="128.264156" xlink:href="#m7a421b3824" y="27.513663"/>
    </g>
   </g>
   <g id="line2d_42">
    <defs>
     <path d="M 0 1.5 
C 0.397805 1.5 0.77937 1.341951 1.06066 1.06066 
C 1.341951 0.77937 1.5 0.397805 1.5 0 
C 1.5 -0.397805 1.341951 -0.77937 1.06066 -1.06066 
C 0.77937 -1.341951 0.397805 -1.5 0 -1.5 
C -0.397805 -1.5 -0.77937 -1.341951 -1.06066 -1.06066 
C -1.341951 -0.77937 -1.5 -0.397805 -1.5 0 
C -1.5 0.397805 -1.341951 0.77937 -1.06066 1.06066 
C -0.77937 1.341951 -0.397805 1.5 0 1.5 
z
" id="mbe976f49ef" style="stroke:#000080;"/>
    </defs>
    <g>
     <use style="fill:#000080;stroke:#000080;" x="165.086933" xlink:href="#mbe976f49ef" y="27.513663"/>
     <use style="fill:#000080;stroke:#000080;" x="165.086933" xlink:href="#mbe976f49ef" y="27.513663"/>
    </g>
   </g>
   <g id="line2d_43">
    <path d="M 44.205749 294.88 
L 44.205749 294.355752 
L 56.12 294.355752 
L 56.12 293.307257 
L 63.08939 293.307257 
L 63.08939 291.210266 
L 71.869783 291.210266 
L 71.869783 290.686018 
L 75.003641 290.686018 
L 75.003641 289.637523 
L 77.653281 289.637523 
L 77.653281 284.395046 
L 79.948502 284.395046 
L 79.948502 283.870798 
L 81.973032 283.870798 
L 81.973032 282.822302 
L 86.917893 282.822302 
L 86.917893 282.298055 
L 92.904808 282.298055 
L 92.904808 281.249559 
L 95.698286 281.249559 
L 95.698286 280.725312 
L 96.536922 280.725312 
L 96.536922 279.152568 
L 98.100602 279.152568 
L 98.100602 278.628321 
L 100.856673 278.628321 
L 100.856673 277.579825 
L 101.481783 277.579825 
L 101.481783 275.482834 
L 102.667676 275.482834 
L 102.667676 274.434339 
L 105.317315 274.434339 
L 105.317315 273.910091 
L 106.730875 273.910091 
L 106.730875 272.861596 
L 108.036969 272.861596 
L 108.036969 272.337348 
L 108.85563 272.337348 
L 108.85563 271.8131 
L 109.637066 271.8131 
L 109.637066 269.191862 
L 112.122219 269.191862 
L 112.122219 268.667614 
L 112.449632 268.667614 
L 112.449632 268.143366 
L 113.700266 268.143366 
L 113.700266 267.619119 
L 114.293036 267.619119 
L 114.293036 266.570623 
L 115.145539 266.570623 
L 115.145539 265.522128 
L 115.420563 265.522128 
L 115.420563 264.99788 
L 116.478659 264.99788 
L 116.478659 264.473632 
L 118.186736 264.473632 
L 118.186736 262.376641 
L 119.310576 262.376641 
L 119.310576 261.852394 
L 120.365424 261.852394 
L 120.365424 258.18266 
L 120.769881 258.18266 
L 120.769881 257.658412 
L 121.16504 257.658412 
L 121.16504 255.561421 
L 121.929105 255.561421 
L 121.929105 255.037173 
L 122.114929 255.037173 
L 122.114929 254.512926 
L 123.189569 254.512926 
L 123.189569 253.988678 
L 123.870396 253.988678 
L 123.870396 253.46443 
L 124.52528 253.46443 
L 124.52528 252.940182 
L 125.000572 252.940182 
L 125.000572 252.415935 
L 125.156126 252.415935 
L 125.156126 251.891687 
L 127.05979 251.891687 
L 127.05979 251.367439 
L 128.003717 251.367439 
L 128.003717 249.270448 
L 129.145817 249.270448 
L 129.145817 248.746201 
L 130.445921 248.746201 
L 130.445921 248.221953 
L 130.559378 248.221953 
L 130.559378 246.64921 
L 130.784069 246.64921 
L 130.784069 246.124962 
L 130.895323 246.124962 
L 130.895323 245.600714 
L 131.441039 245.600714 
L 131.441039 243.503724 
L 132.177056 243.503724 
L 132.177056 242.979476 
L 132.381685 242.979476 
L 132.381685 241.93098 
L 132.583907 241.93098 
L 132.583907 239.83399 
L 132.783777 239.83399 
L 132.783777 238.785494 
L 132.98135 238.785494 
L 132.98135 238.261246 
L 133.465568 238.261246 
L 133.465568 237.736999 
L 134.485139 237.736999 
L 134.485139 235.640008 
L 134.753019 235.640008 
L 134.753019 234.591512 
L 135.276571 234.591512 
L 135.276571 234.067265 
L 135.784647 234.067265 
L 135.867885 231.446026 
L 135.950722 231.446026 
L 136.033161 228.824787 
L 136.519665 228.824787 
L 136.519665 228.30054 
L 136.757848 228.30054 
L 136.757848 226.727797 
L 137.224536 226.727797 
L 137.224536 226.203549 
L 137.603992 226.203549 
L 137.678888 223.58231 
L 137.753459 223.58231 
L 137.753459 223.058063 
L 138.121538 223.058063 
L 138.194217 221.485319 
L 138.33866 221.485319 
L 138.33866 220.961072 
L 138.834862 220.961072 
L 138.834862 220.436824 
L 138.974042 220.436824 
L 138.974042 219.912576 
L 139.452484 219.912576 
L 139.452484 219.388328 
L 139.586771 219.388328 
L 139.586771 218.864081 
L 140.113666 218.864081 
L 140.113666 215.718594 
L 140.242905 215.718594 
L 140.242905 215.194347 
L 140.371179 215.194347 
L 140.371179 214.670099 
L 140.498503 214.670099 
L 140.498503 209.427622 
L 141.182408 209.427622 
L 141.243253 207.330631 
L 141.66324 207.330631 
L 141.72241 204.709392 
L 142.360172 204.709392 
L 142.360172 203.136649 
L 142.530078 203.136649 
L 142.530078 202.612401 
L 142.69832 202.612401 
L 142.69832 200.515411 
L 143.029944 200.515411 
L 143.029944 198.942667 
L 143.35529 198.942667 
L 143.35529 198.41842 
L 143.515683 198.41842 
L 143.621786 196.321429 
L 143.727238 196.321429 
L 143.727238 195.272933 
L 143.988072 195.272933 
L 143.988072 194.224438 
L 144.498158 194.224438 
L 144.498158 193.175943 
L 144.648278 193.175943 
L 144.747635 191.603199 
L 144.84642 191.603199 
L 144.895601 190.554704 
L 145.37982 190.554704 
L 145.37982 188.981961 
L 145.710835 188.981961 
L 145.710835 188.457713 
L 146.218456 188.457713 
L 146.263868 184.787979 
L 146.533852 184.787979 
L 146.57844 183.739484 
L 146.755644 183.739484 
L 146.843566 181.118245 
L 147.147797 181.118245 
L 147.147797 180.593997 
L 147.446737 180.593997 
L 147.446737 179.021254 
L 147.615255 179.021254 
L 147.615255 178.497006 
L 147.823604 178.497006 
L 147.823604 175.875768 
L 148.192385 175.875768 
L 148.192385 175.35152 
L 148.393896 175.35152 
L 148.393896 174.303025 
L 148.513678 174.303025 
L 148.55342 171.681786 
L 148.672099 171.681786 
L 148.672099 171.157538 
L 148.945872 171.157538 
L 148.984628 168.012052 
L 149.100377 168.012052 
L 149.100377 166.963557 
L 149.253506 166.963557 
L 149.329562 165.915061 
L 149.367465 165.915061 
L 149.443019 163.81807 
L 149.66771 163.81807 
L 149.66771 162.769575 
L 149.778964 162.769575 
L 149.778964 161.721079 
L 150.035789 161.721079 
L 150.144693 158.051345 
L 150.180842 158.051345 
L 150.288834 155.430107 
L 150.324681 155.430107 
L 150.324681 154.905859 
L 150.538207 154.905859 
L 150.538207 152.28462 
L 150.784014 152.28462 
L 150.853603 151.236125 
L 150.922912 151.236125 
L 150.957462 148.614886 
L 151.231391 148.614886 
L 151.231391 148.090639 
L 151.400405 148.090639 
L 151.501022 142.848162 
L 151.864991 142.848162 
L 151.8977 141.799666 
L 152.28543 141.799666 
L 152.28543 141.275418 
L 152.444438 141.275418 
L 152.476064 140.226923 
L 152.726997 140.226923 
L 152.820161 138.129932 
L 152.88199 138.129932 
L 152.943598 133.93595 
L 153.035598 133.93595 
L 153.066156 132.887455 
L 153.157504 132.887455 
L 153.157504 129.741969 
L 153.30868 129.741969 
L 153.36878 127.12073 
L 153.518118 127.12073 
L 153.518118 125.023739 
L 153.783699 125.023739 
L 153.783699 123.975244 
L 153.90043 123.975244 
L 153.90043 121.354005 
L 154.274423 121.354005 
L 154.274423 120.829757 
L 154.38788 120.829757 
L 154.444329 118.732766 
L 154.528656 118.732766 
L 154.528656 118.208519 
L 154.696079 118.208519 
L 154.723825 116.635776 
L 154.916803 116.635776 
L 154.971544 115.063032 
L 155.269542 115.063032 
L 155.323172 112.966042 
L 155.483068 112.966042 
L 155.483068 112.441794 
L 155.693974 112.441794 
L 155.772401 107.723564 
L 155.876417 107.723564 
L 155.876417 106.150821 
L 156.005559 106.150821 
L 156.005559 105.626573 
L 156.159258 105.626573 
L 156.235596 103.005335 
L 156.387261 103.005335 
L 156.387261 101.956839 
L 156.661886 101.956839 
L 156.711349 100.384096 
L 156.858892 100.384096 
L 156.956555 98.287105 
L 157.174289 98.287105 
L 157.174289 96.714362 
L 157.294071 96.714362 
L 157.317927 93.044628 
L 157.413024 93.044628 
L 157.413024 90.947637 
L 157.578187 90.947637 
L 157.601653 89.899142 
L 157.741778 89.899142 
L 157.788234 87.802151 
L 157.857683 87.802151 
L 157.857683 85.180912 
L 158.018648 85.180912 
L 158.04152 82.035426 
L 158.200781 82.035426 
L 158.200781 81.511178 
L 158.336125 81.511178 
L 158.336125 80.986931 
L 158.492691 80.986931 
L 158.559357 78.365692 
L 158.669895 78.365692 
L 158.713912 76.268701 
L 158.954011 76.268701 
L 158.975673 74.695958 
L 159.083575 74.695958 
L 159.083575 74.17171 
L 159.233507 74.17171 
L 159.297366 69.453481 
L 159.633996 69.453481 
L 159.654819 67.880738 
L 159.799871 67.880738 
L 159.902736 66.832242 
L 160.004989 66.832242 
L 160.025366 64.735251 
L 160.207687 64.735251 
L 160.288102 63.686756 
L 160.447811 63.686756 
L 160.447811 62.114013 
L 160.606051 62.114013 
L 160.606051 60.54127 
L 160.879512 60.54127 
L 160.976132 58.444279 
L 161.033844 58.444279 
L 161.033844 57.920031 
L 161.167758 57.920031 
L 161.205828 54.250297 
L 161.338413 54.250297 
L 161.413719 51.629058 
L 161.469983 51.629058 
L 161.469983 51.104811 
L 161.711688 51.104811 
L 161.78538 49.532068 
L 161.858757 49.532068 
L 161.858757 48.483572 
L 162.077028 48.483572 
L 162.131166 46.386581 
L 162.256827 46.386581 
L 162.346026 44.28959 
L 162.417054 44.28959 
L 162.434765 42.716847 
L 162.61088 42.716847 
L 162.61088 40.095609 
L 162.802544 40.095609 
L 162.888963 36.950122 
L 162.992095 36.950122 
L 162.992095 36.425875 
L 163.128649 36.425875 
L 163.230357 35.377379 
L 163.398544 35.377379 
L 163.398544 34.328884 
L 163.713637 34.328884 
L 163.762864 31.183397 
L 163.860898 31.183397 
L 163.958377 30.134902 
L 164.087494 30.134902 
L 164.087494 29.610654 
L 164.215648 29.610654 
L 164.215648 29.086407 
L 164.327005 29.086407 
L 164.374509 28.037911 
L 165.086933 28.037911 
L 165.086933 27.513663 
L 333.168 27.513663 
L 333.168 27.513663 
" style="fill:none;stroke:#000080;stroke-linecap:square;stroke-width:1.5;"/>
   </g>
   <g id="line2d_44">
    <defs>
     <path d="M 0 6 
C 1.591219 6 3.117479 5.367802 4.242641 4.242641 
C 5.367802 3.117479 6 1.591219 6 0 
C 6 -1.591219 5.367802 -3.117479 4.242641 -4.242641 
C 3.117479 -5.367802 1.591219 -6 0 -6 
C -1.591219 -6 -3.117479 -5.367802 -4.242641 -4.242641 
C -5.367802 -3.117479 -6 -1.591219 -6 0 
C -6 1.591219 -5.367802 3.117479 -4.242641 4.242641 
C -3.117479 5.367802 -1.591219 6 0 6 
z
" id="m5da79765c6" style="stroke:#000080;stroke-width:1.5;"/>
    </defs>
    <g>
     <use style="fill-opacity:0;stroke:#000080;stroke-width:1.5;" x="128.003717" xlink:href="#m5da79765c6" y="249.270448"/>
     <use style="fill-opacity:0;stroke:#000080;stroke-width:1.5;" x="155.693974" xlink:href="#m5da79765c6" y="111.393298"/>
     <use style="fill-opacity:0;stroke:#000080;stroke-width:1.5;" x="165.086933" xlink:href="#m5da79765c6" y="28.037911"/>
     <use style="fill-opacity:0;stroke:#000080;stroke-width:1.5;" x="165.086933" xlink:href="#m5da79765c6" y="27.513663"/>
     <use style="fill-opacity:0;stroke:#000080;stroke-width:1.5;" x="165.086933" xlink:href="#m5da79765c6" y="27.513663"/>
     <use style="fill-opacity:0;stroke:#000080;stroke-width:1.5;" x="333.168" xlink:href="#m5da79765c6" y="27.513663"/>
    </g>
   </g>
   <g id="line2d_45">
    <path style="fill:none;stroke:#000080;stroke-linecap:square;stroke-width:1.5;"/>
    <g/>
   </g>
   <g id="line2d_46">
    <defs>
     <path d="M 0 1.5 
C 0.397805 1.5 0.77937 1.341951 1.06066 1.06066 
C 1.341951 0.77937 1.5 0.397805 1.5 0 
C 1.5 -0.397805 1.341951 -0.77937 1.06066 -1.06066 
C 0.77937 -1.341951 0.397805 -1.5 0 -1.5 
C -0.397805 -1.5 -0.77937 -1.341951 -1.06066 -1.06066 
C -1.341951 -0.77937 -1.5 -0.397805 -1.5 0 
C -1.5 0.397805 -1.341951 0.77937 -1.06066 1.06066 
C -0.77937 1.341951 -0.397805 1.5 0 1.5 
z
" id="m92a8f4ead0" style="stroke:#ff00ff;"/>
    </defs>
    <g>
     <use style="fill:#ff00ff;stroke:#ff00ff;" x="163.264126" xlink:href="#m92a8f4ead0" y="27.513663"/>
     <use style="fill:#ff00ff;stroke:#ff00ff;" x="163.264126" xlink:href="#m92a8f4ead0" y="27.513663"/>
    </g>
   </g>
   <g id="line2d_47">
    <path d="M 44.205749 294.88 
L 44.205749 291.734514 
L 56.12 291.734514 
L 56.12 291.210266 
L 63.08939 291.210266 
L 63.08939 290.161771 
L 77.653281 290.161771 
L 77.653281 286.492036 
L 79.948502 286.492036 
L 79.948502 283.34655 
L 81.973032 283.34655 
L 81.973032 282.822302 
L 83.784035 282.822302 
L 83.784035 281.249559 
L 89.567532 281.249559 
L 89.567532 280.201064 
L 90.753425 280.201064 
L 90.753425 279.152568 
L 93.887283 279.152568 
L 93.887283 278.628321 
L 94.816624 278.628321 
L 94.816624 277.579825 
L 95.698286 277.579825 
L 95.698286 276.53133 
L 97.336537 276.53133 
L 97.336537 275.482834 
L 98.832144 275.482834 
L 98.832144 273.385844 
L 99.533818 273.385844 
L 99.533818 272.337348 
L 101.481783 272.337348 
L 101.481783 271.288853 
L 102.667676 271.288853 
L 102.667676 270.764605 
L 104.305927 270.764605 
L 104.305927 267.619119 
L 105.801534 267.619119 
L 105.801534 267.094871 
L 107.177358 267.094871 
L 107.177358 263.949385 
L 107.612537 263.949385 
L 107.612537 262.900889 
L 108.036969 262.900889 
L 108.036969 261.852394 
L 108.85563 261.852394 
L 108.85563 260.279651 
L 110.014853 260.279651 
L 110.014853 259.755403 
L 110.384516 259.755403 
L 110.384516 258.18266 
L 112.449632 258.18266 
L 112.449632 257.134164 
L 113.700266 257.134164 
L 113.700266 256.609917 
L 113.999206 256.609917 
L 113.999206 254.512926 
L 114.293036 254.512926 
L 114.293036 253.988678 
L 115.145539 253.988678 
L 115.145539 251.367439 
L 115.420563 251.367439 
L 115.420563 250.318944 
L 115.957752 250.318944 
L 115.957752 249.270448 
L 116.220179 249.270448 
L 116.220179 247.697705 
L 116.73331 247.697705 
L 116.73331 246.64921 
L 116.984244 246.64921 
L 116.984244 244.552219 
L 117.231566 244.552219 
L 117.231566 243.503724 
L 117.715785 243.503724 
L 117.715785 242.979476 
L 118.186736 242.979476 
L 118.186736 240.358237 
L 118.417459 240.358237 
L 118.417459 237.736999 
L 120.365424 237.736999 
L 120.365424 237.212751 
L 120.968596 237.212751 
L 120.968596 235.640008 
L 122.298767 235.640008 
L 122.298767 235.11576 
L 123.015063 235.11576 
L 123.015063 234.591512 
L 123.189569 234.591512 
L 123.189569 233.543017 
L 123.7027 233.543017 
L 123.7027 233.018769 
L 123.870396 233.018769 
L 123.870396 231.970274 
L 124.036471 231.970274 
L 124.036471 230.397531 
L 124.200956 230.397531 
L 124.200956 229.873283 
L 124.363883 229.873283 
L 124.363883 228.30054 
L 124.52528 228.30054 
L 124.52528 227.252044 
L 124.685175 227.252044 
L 124.685175 226.203549 
L 125.000572 226.203549 
L 125.000572 223.058063 
L 125.156126 223.058063 
L 125.156126 222.533815 
L 125.764637 222.533815 
L 125.764637 220.436824 
L 125.913457 220.436824 
L 125.913457 219.388328 
L 126.496178 219.388328 
L 126.496178 218.339833 
L 127.197852 218.339833 
L 127.197852 217.291338 
L 127.334814 217.291338 
L 127.334814 216.76709 
L 127.872003 216.76709 
L 127.872003 215.718594 
L 128.264156 215.718594 
L 128.264156 213.621604 
L 128.647561 213.621604 
L 128.647561 213.097356 
L 128.773486 213.097356 
L 128.773486 211.000365 
L 129.022601 211.000365 
L 129.022601 206.282136 
L 129.389632 206.282136 
L 129.389632 205.757888 
L 129.748989 205.757888 
L 129.748989 205.23364 
L 129.867125 205.23364 
L 129.867125 203.660897 
L 129.984454 203.660897 
L 129.984454 203.136649 
L 130.100987 203.136649 
L 130.100987 202.612401 
L 130.33171 202.612401 
L 130.33171 201.563906 
L 130.445921 201.563906 
L 130.445921 201.039658 
L 130.559378 201.039658 
L 130.559378 199.991163 
L 130.67209 199.991163 
L 130.67209 199.466915 
L 130.784069 199.466915 
L 130.784069 198.41842 
L 130.895323 198.41842 
L 131.005861 196.321429 
L 131.224827 196.321429 
L 131.224827 195.272933 
L 131.865471 195.272933 
L 131.969962 193.175943 
L 132.177056 193.175943 
L 132.177056 191.603199 
L 132.583907 191.603199 
L 132.684132 187.933465 
L 132.783777 187.933465 
L 132.882847 186.360722 
L 132.98135 186.360722 
L 133.079291 184.263731 
L 133.176677 184.263731 
L 133.176677 182.690988 
L 133.465568 182.690988 
L 133.465568 182.16674 
L 133.6555 182.16674 
L 133.6555 181.118245 
L 133.936519 181.118245 
L 133.936519 180.593997 
L 134.121345 180.593997 
L 134.213018 178.497006 
L 134.304205 178.497006 
L 134.304205 177.972759 
L 134.485139 177.972759 
L 134.485139 176.924263 
L 134.753019 176.924263 
L 134.841393 175.875768 
L 134.929315 175.875768 
L 135.016789 173.254529 
L 135.276571 173.254529 
L 135.276571 172.206034 
L 135.532486 172.206034 
L 135.532486 171.681786 
L 135.784647 171.681786 
L 135.867885 169.584795 
L 135.950722 169.584795 
L 136.033161 166.439309 
L 136.278134 166.439309 
L 136.359022 164.342318 
L 136.439531 164.342318 
L 136.519665 161.196832 
L 136.599426 161.196832 
L 136.599426 160.672584 
L 136.914823 160.672584 
L 136.992776 159.099841 
L 137.453213 159.099841 
L 137.528768 157.00285 
L 137.753459 157.00285 
L 137.827708 155.430107 
L 138.121538 155.430107 
L 138.121538 153.333116 
L 138.266591 153.333116 
L 138.266591 152.808868 
L 138.410429 152.808868 
L 138.410429 152.28462 
L 138.623956 152.28462 
L 138.694545 150.711877 
L 138.764847 150.711877 
L 138.764847 149.663382 
L 139.112104 149.663382 
L 139.112104 149.139134 
L 139.249066 149.139134 
L 139.249066 147.566391 
L 139.452484 147.566391 
L 139.519758 143.896657 
L 139.586771 143.896657 
L 139.586771 142.323914 
L 139.720016 142.323914 
L 139.720016 141.275418 
L 139.852237 141.275418 
L 139.852237 140.226923 
L 140.113666 140.226923 
L 140.178407 138.65418 
L 140.371179 138.65418 
L 140.434959 136.557189 
L 140.498503 136.557189 
L 140.561812 129.741969 
L 140.687737 129.741969 
L 140.687737 129.217721 
L 140.998571 129.217721 
L 141.060069 126.596482 
L 141.121347 126.596482 
L 141.121347 125.547987 
L 141.3643 125.547987 
L 141.3643 125.023739 
L 141.484501 125.023739 
L 141.484501 123.450996 
L 141.603867 123.450996 
L 141.66324 120.30551 
L 141.72241 120.30551 
L 141.781376 117.160023 
L 141.898705 117.160023 
L 141.95707 114.538785 
L 142.303162 114.538785 
L 142.360172 111.917546 
L 142.473629 111.917546 
L 142.473629 111.393298 
L 142.754037 111.393298 
L 142.809574 106.150821 
L 142.975116 106.150821 
L 142.975116 105.626573 
L 143.301492 105.626573 
L 143.301492 105.102326 
L 143.462385 105.102326 
L 143.515683 103.529583 
L 143.621786 103.529583 
L 143.727238 101.432592 
L 143.884213 101.432592 
L 143.884213 100.384096 
L 144.039767 100.384096 
L 144.039767 98.811353 
L 144.245007 98.811353 
L 144.245007 97.762858 
L 144.447825 97.762858 
L 144.548344 94.617371 
L 144.648278 94.617371 
L 144.648278 91.471885 
L 144.797098 91.471885 
L 144.895601 88.326399 
L 144.993542 88.326399 
L 145.090928 84.656665 
L 145.139415 84.656665 
L 145.139415 82.035426 
L 145.332007 82.035426 
L 145.332007 79.938435 
L 145.710835 79.938435 
L 145.710835 78.88994 
L 146.081494 78.88994 
L 146.127269 77.841444 
L 146.218456 77.841444 
L 146.218456 77.317197 
L 146.354335 77.317197 
L 146.354335 75.744454 
L 146.622913 75.744454 
L 146.711514 73.647463 
L 146.93104 73.647463 
L 146.974611 72.598967 
L 147.104664 72.598967 
L 147.190823 68.404985 
L 147.276552 68.404985 
L 147.319256 66.307995 
L 147.404349 66.307995 
L 147.489022 65.259499 
L 148.029459 65.259499 
L 148.029459 64.735251 
L 148.273273 64.735251 
L 148.353782 62.638261 
L 148.433916 62.638261 
L 148.513678 61.589765 
L 148.55342 61.589765 
L 148.593071 60.54127 
L 148.789965 60.54127 
L 148.868095 58.968526 
L 148.907027 58.968526 
L 148.907027 58.444279 
L 149.138788 58.444279 
L 149.138788 57.395783 
L 149.555732 57.395783 
L 149.630465 55.298792 
L 149.852735 55.298792 
L 149.926191 53.726049 
L 149.999334 53.726049 
L 149.999334 53.201802 
L 150.360453 53.201802 
L 150.396151 52.153306 
L 150.643983 52.153306 
L 150.714141 50.580563 
L 150.784014 50.580563 
L 150.888293 47.435077 
L 151.197387 47.435077 
L 151.197387 46.386581 
L 151.434009 46.386581 
L 151.434009 45.338086 
L 151.864991 45.338086 
L 151.864991 44.813838 
L 152.221413 44.813838 
L 152.221413 43.765343 
L 152.539141 43.765343 
L 152.539141 43.241095 
L 152.69583 43.241095 
L 152.69583 41.144104 
L 153.754391 41.144104 
L 153.754391 40.619856 
L 154.217413 40.619856 
L 154.217413 39.571361 
L 154.416128 39.571361 
L 154.416128 39.047113 
L 154.528656 39.047113 
L 154.528656 37.998618 
L 154.779183 37.998618 
L 154.779183 37.47437 
L 155.483068 37.47437 
L 155.483068 36.425875 
L 155.746298 36.425875 
L 155.746298 35.901627 
L 160.645384 35.901627 
L 160.645384 35.377379 
L 161.281716 35.377379 
L 161.281716 34.853131 
L 161.544716 34.853131 
L 161.544716 33.804636 
L 161.968239 33.804636 
L 161.968239 33.280388 
L 162.381577 33.280388 
L 162.399325 32.231893 
L 162.698265 32.231893 
L 162.698265 31.707645 
L 162.871714 31.707645 
L 162.957786 30.134902 
L 163.077568 30.134902 
L 163.077568 28.562159 
L 163.264126 28.562159 
L 163.264126 27.513663 
L 333.168 27.513663 
L 333.168 27.513663 
" style="fill:none;stroke:#ff00ff;stroke-linecap:square;stroke-width:1.5;"/>
   </g>
   <g id="line2d_48">
    <defs>
     <path d="M -0 8.485281 
L 5.091169 0 
L 0 -8.485281 
L -5.091169 -0 
z
" id="m129c77fc10" style="stroke:#ff00ff;stroke-linejoin:miter;stroke-width:1.5;"/>
    </defs>
    <g>
     <use style="fill-opacity:0;stroke:#ff00ff;stroke-linejoin:miter;stroke-width:1.5;" x="132.98135" xlink:href="#m129c77fc10" y="185.836474"/>
     <use style="fill-opacity:0;stroke:#ff00ff;stroke-linejoin:miter;stroke-width:1.5;" x="153.754391" xlink:href="#m129c77fc10" y="40.619856"/>
     <use style="fill-opacity:0;stroke:#ff00ff;stroke-linejoin:miter;stroke-width:1.5;" x="163.264126" xlink:href="#m129c77fc10" y="28.562159"/>
     <use style="fill-opacity:0;stroke:#ff00ff;stroke-linejoin:miter;stroke-width:1.5;" x="163.264126" xlink:href="#m129c77fc10" y="27.513663"/>
     <use style="fill-opacity:0;stroke:#ff00ff;stroke-linejoin:miter;stroke-width:1.5;" x="163.264126" xlink:href="#m129c77fc10" y="27.513663"/>
     <use style="fill-opacity:0;stroke:#ff00ff;stroke-linejoin:miter;stroke-width:1.5;" x="333.168" xlink:href="#m129c77fc10" y="27.513663"/>
    </g>
   </g>
   <g id="line2d_49">
    <path style="fill:none;stroke:#ff00ff;stroke-linecap:square;stroke-width:1.5;"/>
    <g/>
   </g>
   <g id="line2d_50">
    <defs>
     <path d="M 0 1.5 
C 0.397805 1.5 0.77937 1.341951 1.06066 1.06066 
C 1.341951 0.77937 1.5 0.397805 1.5 0 
C 1.5 -0.397805 1.341951 -0.77937 1.06066 -1.06066 
C 0.77937 -1.341951 0.397805 -1.5 0 -1.5 
C -0.397805 -1.5 -0.77937 -1.341951 -1.06066 -1.06066 
C -1.341951 -0.77937 -1.5 -0.397805 -1.5 0 
C -1.5 0.397805 -1.341951 0.77937 -1.06066 1.06066 
C -0.77937 1.341951 -0.397805 1.5 0 1.5 
z
" id="me5b5b6361f" style="stroke:#ff7500;"/>
    </defs>
    <g>
     <use style="fill:#ff7500;stroke:#ff7500;" x="172.162193" xlink:href="#me5b5b6361f" y="27.513663"/>
     <use style="fill:#ff7500;stroke:#ff7500;" x="172.162193" xlink:href="#me5b5b6361f" y="27.513663"/>
    </g>
   </g>
   <g id="line2d_51">
    <path d="M 44.205749 294.88 
L 44.205749 294.355752 
L 56.12 294.355752 
L 56.12 292.258761 
L 68.034251 292.258761 
L 68.034251 291.210266 
L 71.869783 291.210266 
L 71.869783 290.686018 
L 75.003641 290.686018 
L 75.003641 289.113275 
L 77.653281 289.113275 
L 77.653281 288.589027 
L 81.973032 288.589027 
L 81.973032 288.06478 
L 83.784035 288.06478 
L 83.784035 286.492036 
L 85.422286 286.492036 
L 85.422286 285.967789 
L 86.917893 285.967789 
L 86.917893 284.395046 
L 89.567532 284.395046 
L 89.567532 283.870798 
L 93.887283 283.870798 
L 93.887283 282.822302 
L 95.698286 282.822302 
L 95.698286 281.249559 
L 97.336537 281.249559 
L 97.336537 280.201064 
L 100.856673 280.201064 
L 100.856673 279.676816 
L 101.481783 279.676816 
L 101.481783 279.152568 
L 103.777005 279.152568 
L 103.777005 277.579825 
L 104.305927 277.579825 
L 104.305927 274.434339 
L 104.819059 274.434339 
L 104.819059 273.910091 
L 106.730875 273.910091 
L 106.730875 272.337348 
L 107.177358 272.337348 
L 107.177358 271.288853 
L 109.250788 271.288853 
L 109.250788 268.667614 
L 110.384516 268.667614 
L 110.384516 267.619119 
L 111.100812 267.619119 
L 111.100812 266.570623 
L 111.448069 266.570623 
L 111.448069 266.046375 
L 112.770924 266.046375 
L 112.770924 265.522128 
L 113.086321 265.522128 
L 113.086321 264.99788 
L 113.700266 264.99788 
L 113.700266 264.473632 
L 114.293036 264.473632 
L 114.293036 263.425137 
L 114.581927 263.425137 
L 114.581927 260.803898 
L 116.220179 260.803898 
L 116.220179 259.755403 
L 116.478659 259.755403 
L 116.478659 259.231155 
L 117.231566 259.231155 
L 117.231566 258.706907 
L 117.475381 258.706907 
L 117.475381 258.18266 
L 117.952873 258.18266 
L 117.952873 255.561421 
L 118.186736 255.561421 
L 118.186736 255.037173 
L 118.417459 255.037173 
L 118.417459 254.512926 
L 118.645127 254.512926 
L 118.645127 253.46443 
L 119.310576 253.46443 
L 119.310576 252.940182 
L 119.95122 252.940182 
L 119.95122 250.843192 
L 120.769881 250.843192 
L 120.769881 250.318944 
L 121.359263 250.318944 
L 121.359263 249.794696 
L 121.741249 249.794696 
L 121.741249 249.270448 
L 122.838768 249.270448 
L 122.838768 248.746201 
L 123.189569 248.746201 
L 123.189569 247.697705 
L 123.36232 247.697705 
L 123.36232 247.173458 
L 123.533353 247.173458 
L 123.533353 246.64921 
L 123.870396 246.64921 
L 123.870396 244.552219 
L 124.685175 244.552219 
L 124.685175 243.503724 
L 125.000572 243.503724 
L 125.000572 242.455228 
L 125.156126 242.455228 
L 125.156126 239.309742 
L 125.614517 239.309742 
L 125.614517 238.785494 
L 126.207287 238.785494 
L 126.207287 238.261246 
L 126.496178 238.261246 
L 126.496178 236.688503 
L 127.197852 236.688503 
L 127.197852 235.640008 
L 127.334814 235.640008 
L 127.334814 234.591512 
L 128.39291 234.591512 
L 128.39291 232.494521 
L 128.647561 232.494521 
L 128.647561 231.970274 
L 128.773486 231.970274 
L 128.773486 230.921778 
L 128.898495 230.921778 
L 128.898495 228.824787 
L 129.510254 228.824787 
L 129.510254 227.776292 
L 129.630036 227.776292 
L 129.630036 227.252044 
L 130.216736 227.252044 
L 130.216736 226.727797 
L 130.67209 226.727797 
L 130.67209 226.203549 
L 130.784069 226.203549 
L 130.784069 225.679301 
L 131.005861 225.679301 
L 131.005861 224.106558 
L 131.333273 224.106558 
L 131.333273 223.058063 
L 131.548134 223.058063 
L 131.654565 221.485319 
L 131.865471 221.485319 
L 131.865471 218.339833 
L 132.073821 218.339833 
L 132.177056 216.242842 
L 132.279675 216.242842 
L 132.279675 215.718594 
L 132.583907 215.718594 
L 132.583907 214.670099 
L 132.882847 214.670099 
L 132.882847 213.621604 
L 133.176677 213.621604 
L 133.176677 213.097356 
L 133.36981 213.097356 
L 133.36981 212.04886 
L 133.6555 212.04886 
L 133.6555 211.524613 
L 134.029181 211.524613 
L 134.029181 210.476117 
L 134.213018 210.476117 
L 134.304205 209.427622 
L 134.39491 209.427622 
L 134.39491 206.806383 
L 134.574897 206.806383 
L 134.664189 205.23364 
L 134.841393 205.23364 
L 134.929315 204.185145 
L 135.10382 204.185145 
L 135.190413 202.088154 
L 135.532486 202.088154 
L 135.532486 201.039658 
L 135.867885 201.039658 
L 135.867885 199.991163 
L 136.033161 199.991163 
L 136.115208 198.41842 
L 136.519665 198.41842 
L 136.599426 194.748686 
L 136.67882 194.748686 
L 136.67882 193.175943 
L 136.836515 193.175943 
L 136.836515 192.127447 
L 137.070377 192.127447 
L 137.070377 191.603199 
L 137.224536 191.603199 
L 137.224536 191.078952 
L 137.377325 191.078952 
L 137.453213 188.981961 
L 138.04855 188.981961 
L 138.04855 188.457713 
L 138.266591 188.457713 
L 138.33866 184.787979 
L 138.4819 184.787979 
L 138.553074 181.642493 
L 138.834862 181.642493 
L 138.904592 180.593997 
L 139.112104 180.593997 
L 139.112104 179.021254 
L 139.249066 179.021254 
L 139.317139 177.972759 
L 139.384945 177.972759 
L 139.384945 176.924263 
L 139.586771 176.924263 
L 139.586771 176.400016 
L 139.786254 176.400016 
L 139.852237 174.827272 
L 140.113666 174.827272 
L 140.178407 173.778777 
L 140.307161 173.778777 
L 140.307161 172.730281 
L 140.434959 172.730281 
L 140.498503 171.157538 
L 140.750355 171.157538 
L 140.750355 168.012052 
L 140.874911 168.012052 
L 140.874911 166.963557 
L 141.060069 166.963557 
L 141.060069 165.390813 
L 141.243253 165.390813 
L 141.303883 163.81807 
L 141.66324 163.81807 
L 141.72241 162.769575 
L 141.84014 162.769575 
L 141.84014 162.245327 
L 142.18857 162.245327 
L 142.245962 158.575593 
L 142.303162 158.575593 
L 142.303162 158.051345 
L 142.473629 158.051345 
L 142.473629 157.527098 
L 142.586342 157.527098 
L 142.586342 157.00285 
L 142.754037 157.00285 
L 142.809574 155.430107 
L 143.408921 155.430107 
L 143.515683 153.333116 
L 143.727238 153.333116 
L 143.727238 152.808868 
L 143.936221 152.808868 
L 143.988072 150.18763 
L 144.091308 150.18763 
L 144.193927 145.993648 
L 144.498158 145.993648 
L 144.548344 144.945152 
L 144.648278 144.945152 
L 144.698028 143.372409 
L 144.797098 143.372409 
L 144.84642 138.65418 
L 144.993542 138.65418 
L 145.090928 137.605684 
L 145.139415 137.605684 
L 145.235981 133.411703 
L 145.37982 133.411703 
L 145.4275 129.741969 
L 145.663936 129.741969 
L 145.710835 128.693473 
L 145.897164 128.693473 
L 145.989576 123.975244 
L 146.172923 123.975244 
L 146.218456 121.354005 
L 146.711514 121.354005 
L 146.711514 120.30551 
L 146.887358 120.30551 
L 146.974611 116.111528 
L 147.061422 116.111528 
L 147.104664 115.063032 
L 147.190823 115.063032 
L 147.233741 114.014537 
L 147.319256 114.014537 
L 147.361855 110.344803 
L 147.615255 110.344803 
L 147.698898 107.723564 
L 147.947413 107.723564 
L 147.947413 107.199317 
L 148.192385 107.199317 
L 148.273273 105.102326 
L 148.393896 105.102326 
L 148.473843 104.05383 
L 148.55342 104.05383 
L 148.55342 103.529583 
L 148.789965 103.529583 
L 148.868095 101.956839 
L 148.945872 101.956839 
L 149.023298 100.908344 
L 149.100377 100.908344 
L 149.138788 99.335601 
L 149.215352 99.335601 
L 149.291576 97.23861 
L 149.329562 97.23861 
L 149.405283 95.141619 
L 149.480672 95.141619 
L 149.480672 94.093124 
L 149.593139 94.093124 
L 149.593139 93.568876 
L 149.741959 93.568876 
L 149.815889 90.947637 
L 149.889502 90.947637 
L 149.962801 88.326399 
L 150.035789 88.326399 
L 150.072167 86.753656 
L 150.180842 86.753656 
L 150.216915 85.180912 
L 150.324681 85.180912 
L 150.431775 82.559674 
L 150.502803 82.559674 
L 150.573538 81.511178 
L 150.643983 81.511178 
L 150.679098 78.88994 
L 150.818844 78.88994 
L 150.888293 77.841444 
L 151.060698 77.841444 
L 151.163317 75.220206 
L 151.231391 75.220206 
L 151.332999 72.074719 
L 151.467548 72.074719 
L 151.467548 70.501976 
L 151.667418 70.501976 
L 151.766488 67.880738 
L 151.864991 67.880738 
L 151.864991 66.832242 
L 152.027918 66.832242 
L 152.124937 65.783747 
L 152.189314 65.783747 
L 152.221413 64.211004 
L 152.412754 64.211004 
L 152.444438 62.638261 
L 152.570594 62.638261 
L 152.570594 62.114013 
L 152.69583 62.114013 
L 152.69583 60.54127 
L 153.004986 60.54127 
L 153.066156 57.920031 
L 153.248369 57.920031 
L 153.338757 56.871536 
L 153.36878 56.871536 
L 153.36878 55.82304 
L 153.488354 55.82304 
L 153.518118 54.250297 
L 154.016374 54.250297 
L 154.016374 53.726049 
L 154.331245 53.726049 
L 154.359586 52.677554 
L 154.916803 52.677554 
L 154.916803 52.153306 
L 155.269542 52.153306 
L 155.269542 50.580563 
L 155.720156 50.580563 
L 155.720156 49.532068 
L 156.83439 49.532068 
L 156.83439 49.00782 
L 157.126141 49.00782 
L 157.126141 47.959324 
L 157.695196 47.959324 
L 157.741778 46.386581 
L 158.358579 46.386581 
L 158.358579 45.862334 
L 159.018915 45.862334 
L 159.126546 44.813838 
L 159.276106 44.813838 
L 159.276106 43.765343 
L 159.550455 43.765343 
L 159.550455 43.241095 
L 163.909707 43.241095 
L 163.909707 42.716847 
L 166.330379 42.716847 
L 166.330379 42.192599 
L 166.885795 42.192599 
L 166.885795 41.668352 
L 167.450289 41.668352 
L 167.450289 41.144104 
L 167.66055 41.144104 
L 167.66055 40.619856 
L 168.035213 40.619856 
L 168.035213 40.095609 
L 168.439373 40.095609 
L 168.439373 38.522865 
L 168.711821 38.522865 
L 168.822044 37.47437 
L 169.196381 37.47437 
L 169.196381 36.425875 
L 169.702485 36.425875 
L 169.702485 35.901627 
L 169.887063 35.901627 
L 169.887063 34.853131 
L 170.250376 34.853131 
L 170.250376 33.804636 
L 170.451415 33.804636 
L 170.451415 33.280388 
L 170.715861 33.280388 
L 170.715861 32.231893 
L 171.211617 32.231893 
L 171.306963 31.183397 
L 171.558662 31.183397 
L 171.558662 30.65915 
L 171.796463 30.65915 
L 171.837486 29.086407 
L 171.929432 29.086407 
L 171.929432 28.037911 
L 172.162193 28.037911 
L 172.162193 27.513663 
L 333.168 27.513663 
L 333.168 27.513663 
" style="fill:none;stroke:#ff7500;stroke-linecap:square;stroke-width:1.5;"/>
   </g>
   <g id="line2d_52">
    <defs>
     <path d="M 0 -6 
L -1.347084 -1.854102 
L -5.706339 -1.854102 
L -2.179628 0.708204 
L -3.526712 4.854102 
L -0 2.291796 
L 3.526712 4.854102 
L 2.179628 0.708204 
L 5.706339 -1.854102 
L 1.347084 -1.854102 
z
" id="mdcb62830b8" style="stroke:#ff7500;stroke-linejoin:bevel;stroke-width:1.5;"/>
    </defs>
    <g>
     <use style="fill-opacity:0;stroke:#ff7500;stroke-linejoin:bevel;stroke-width:1.5;" x="104.305927" xlink:href="#mdcb62830b8" y="277.579825"/>
     <use style="fill-opacity:0;stroke:#ff7500;stroke-linejoin:bevel;stroke-width:1.5;" x="147.061422" xlink:href="#mdcb62830b8" y="115.58728"/>
     <use style="fill-opacity:0;stroke:#ff7500;stroke-linejoin:bevel;stroke-width:1.5;" x="171.558662" xlink:href="#mdcb62830b8" y="30.65915"/>
     <use style="fill-opacity:0;stroke:#ff7500;stroke-linejoin:bevel;stroke-width:1.5;" x="172.162193" xlink:href="#mdcb62830b8" y="27.513663"/>
     <use style="fill-opacity:0;stroke:#ff7500;stroke-linejoin:bevel;stroke-width:1.5;" x="172.162193" xlink:href="#mdcb62830b8" y="27.513663"/>
     <use style="fill-opacity:0;stroke:#ff7500;stroke-linejoin:bevel;stroke-width:1.5;" x="333.168" xlink:href="#mdcb62830b8" y="27.513663"/>
    </g>
   </g>
   <g id="line2d_53">
    <path style="fill:none;stroke:#ff7500;stroke-linecap:square;stroke-width:1.5;"/>
    <g/>
   </g>
   <g id="line2d_54">
    <path d="M 333.168 27.513663 
L 363.64328 289.532673 
" style="fill:none;stroke:#ff7500;stroke-linecap:square;stroke-width:1.5;"/>
    <g>
     <use style="fill-opacity:0;stroke:#ff7500;stroke-linejoin:bevel;stroke-width:1.5;" x="333.168" xlink:href="#mdcb62830b8" y="27.513663"/>
     <use style="fill-opacity:0;stroke:#ff7500;stroke-linejoin:bevel;stroke-width:1.5;" x="363.64328" xlink:href="#mdcb62830b8" y="289.532673"/>
    </g>
   </g>
   <g id="line2d_55">
    <path d="M 333.168 27.513663 
L 363.64328 203.975446 
" style="fill:none;stroke:#000080;stroke-linecap:square;stroke-width:1.5;"/>
    <g>
     <use style="fill-opacity:0;stroke:#000080;stroke-width:1.5;" x="333.168" xlink:href="#m5da79765c6" y="27.513663"/>
     <use style="fill-opacity:0;stroke:#000080;stroke-width:1.5;" x="363.64328" xlink:href="#m5da79765c6" y="203.975446"/>
    </g>
   </g>
   <g id="line2d_56">
    <path d="M 333.168 27.513663 
L 363.64328 118.418218 
" style="fill:none;stroke:#ff00ff;stroke-linecap:square;stroke-width:1.5;"/>
    <g>
     <use style="fill-opacity:0;stroke:#ff00ff;stroke-linejoin:miter;stroke-width:1.5;" x="333.168" xlink:href="#m129c77fc10" y="27.513663"/>
     <use style="fill-opacity:0;stroke:#ff00ff;stroke-linejoin:miter;stroke-width:1.5;" x="363.64328" xlink:href="#m129c77fc10" y="118.418218"/>
    </g>
   </g>
   <g id="line2d_57">
    <path d="M 333.168 294.88 
L 333.168 27.513663 
" style="fill:none;stroke:#000000;stroke-linecap:square;stroke-width:1.5;"/>
   </g>
   <g id="patch_3">
    <path d="M 56.12 294.88 
L 56.12 24.84 
" style="fill:none;stroke:#000000;stroke-linecap:square;stroke-linejoin:miter;stroke-width:0.8;"/>
   </g>
   <g id="patch_4">
    <path d="M 333.168 294.88 
L 333.168 24.84 
" style="fill:none;stroke:#000000;stroke-linecap:square;stroke-linejoin:miter;stroke-width:0.8;"/>
   </g>
   <g id="patch_5">
    <path d="M 56.12 294.88 
L 333.168 294.88 
" style="fill:none;stroke:#000000;stroke-linecap:square;stroke-linejoin:miter;stroke-width:0.8;"/>
   </g>
   <g id="patch_6">
    <path d="M 56.12 24.84 
L 333.168 24.84 
" style="fill:none;stroke:#000000;stroke-linecap:square;stroke-linejoin:miter;stroke-width:0.8;"/>
   </g>
   <g id="text_13">
    <!-- R-SHADE-Tan -->
    <defs>
     <path d="M 44.390625 34.1875 
Q 47.5625 33.109375 50.5625 29.59375 
Q 53.5625 26.078125 56.59375 19.921875 
L 66.609375 0 
L 56 0 
L 46.6875 18.703125 
Q 43.0625 26.03125 39.671875 28.421875 
Q 36.28125 30.8125 30.421875 30.8125 
L 19.671875 30.8125 
L 19.671875 0 
L 9.8125 0 
L 9.8125 72.90625 
L 32.078125 72.90625 
Q 44.578125 72.90625 50.734375 67.671875 
Q 56.890625 62.453125 56.890625 51.90625 
Q 56.890625 45.015625 53.6875 40.46875 
Q 50.484375 35.9375 44.390625 34.1875 
z
M 19.671875 64.796875 
L 19.671875 38.921875 
L 32.078125 38.921875 
Q 39.203125 38.921875 42.84375 42.21875 
Q 46.484375 45.515625 46.484375 51.90625 
Q 46.484375 58.296875 42.84375 61.546875 
Q 39.203125 64.796875 32.078125 64.796875 
z
" id="DejaVuSans-52"/>
     <path d="M 53.515625 70.515625 
L 53.515625 60.890625 
Q 47.90625 63.578125 42.921875 64.890625 
Q 37.9375 66.21875 33.296875 66.21875 
Q 25.25 66.21875 20.875 63.09375 
Q 16.5 59.96875 16.5 54.203125 
Q 16.5 49.359375 19.40625 46.890625 
Q 22.3125 44.4375 30.421875 42.921875 
L 36.375 41.703125 
Q 47.40625 39.59375 52.65625 34.296875 
Q 57.90625 29 57.90625 20.125 
Q 57.90625 9.515625 50.796875 4.046875 
Q 43.703125 -1.421875 29.984375 -1.421875 
Q 24.8125 -1.421875 18.96875 -0.25 
Q 13.140625 0.921875 6.890625 3.21875 
L 6.890625 13.375 
Q 12.890625 10.015625 18.65625 8.296875 
Q 24.421875 6.59375 29.984375 6.59375 
Q 38.421875 6.59375 43.015625 9.90625 
Q 47.609375 13.234375 47.609375 19.390625 
Q 47.609375 24.75 44.3125 27.78125 
Q 41.015625 30.8125 33.5 32.328125 
L 27.484375 33.5 
Q 16.453125 35.6875 11.515625 40.375 
Q 6.59375 45.0625 6.59375 53.421875 
Q 6.59375 63.09375 13.40625 68.65625 
Q 20.21875 74.21875 32.171875 74.21875 
Q 37.3125 74.21875 42.625 73.28125 
Q 47.953125 72.359375 53.515625 70.515625 
z
" id="DejaVuSans-53"/>
     <path d="M 9.8125 72.90625 
L 19.671875 72.90625 
L 19.671875 43.015625 
L 55.515625 43.015625 
L 55.515625 72.90625 
L 65.375 72.90625 
L 65.375 0 
L 55.515625 0 
L 55.515625 34.71875 
L 19.671875 34.71875 
L 19.671875 0 
L 9.8125 0 
z
" id="DejaVuSans-48"/>
     <path d="M 34.1875 63.1875 
L 20.796875 26.90625 
L 47.609375 26.90625 
z
M 28.609375 72.90625 
L 39.796875 72.90625 
L 67.578125 0 
L 57.328125 0 
L 50.6875 18.703125 
L 17.828125 18.703125 
L 11.1875 0 
L 0.78125 0 
z
" id="DejaVuSans-41"/>
     <path d="M 19.671875 64.796875 
L 19.671875 8.109375 
L 31.59375 8.109375 
Q 46.6875 8.109375 53.6875 14.9375 
Q 60.6875 21.78125 60.6875 36.53125 
Q 60.6875 51.171875 53.6875 57.984375 
Q 46.6875 64.796875 31.59375 64.796875 
z
M 9.8125 72.90625 
L 30.078125 72.90625 
Q 51.265625 72.90625 61.171875 64.09375 
Q 71.09375 55.28125 71.09375 36.53125 
Q 71.09375 17.671875 61.125 8.828125 
Q 51.171875 0 30.078125 0 
L 9.8125 0 
z
" id="DejaVuSans-44"/>
     <path d="M 9.8125 72.90625 
L 55.90625 72.90625 
L 55.90625 64.59375 
L 19.671875 64.59375 
L 19.671875 43.015625 
L 54.390625 43.015625 
L 54.390625 34.71875 
L 19.671875 34.71875 
L 19.671875 8.296875 
L 56.78125 8.296875 
L 56.78125 0 
L 9.8125 0 
z
" id="DejaVuSans-45"/>
     <path d="M -0.296875 72.90625 
L 61.375 72.90625 
L 61.375 64.59375 
L 35.5 64.59375 
L 35.5 0 
L 25.59375 0 
L 25.59375 64.59375 
L -0.296875 64.59375 
z
" id="DejaVuSans-54"/>
    </defs>
    <g transform="translate(369.18424 294.223611)scale(0.17 -0.17)">
     <use xlink:href="#DejaVuSans-52"/>
     <use x="69.419922" xlink:href="#DejaVuSans-2d"/>
     <use x="105.503906" xlink:href="#DejaVuSans-53"/>
     <use x="168.980469" xlink:href="#DejaVuSans-48"/>
     <use x="244.175781" xlink:href="#DejaVuSans-41"/>
     <use x="312.583984" xlink:href="#DejaVuSans-44"/>
     <use x="389.585938" xlink:href="#DejaVuSans-45"/>
     <use x="452.769531" xlink:href="#DejaVuSans-2d"/>
     <use x="488.712891" xlink:href="#DejaVuSans-54"/>
     <use x="549.546875" xlink:href="#DejaVuSans-61"/>
     <use x="610.826172" xlink:href="#DejaVuSans-6e"/>
    </g>
   </g>
   <g id="text_14">
    <!-- SHADE-LM -->
    <defs>
     <path d="M 9.8125 72.90625 
L 19.671875 72.90625 
L 19.671875 8.296875 
L 55.171875 8.296875 
L 55.171875 0 
L 9.8125 0 
z
" id="DejaVuSans-4c"/>
     <path d="M 9.8125 72.90625 
L 24.515625 72.90625 
L 43.109375 23.296875 
L 61.8125 72.90625 
L 76.515625 72.90625 
L 76.515625 0 
L 66.890625 0 
L 66.890625 64.015625 
L 48.09375 14.015625 
L 38.1875 14.015625 
L 19.390625 64.015625 
L 19.390625 0 
L 9.8125 0 
z
" id="DejaVuSans-4d"/>
    </defs>
    <g transform="translate(369.18424 208.666383)scale(0.17 -0.17)">
     <use xlink:href="#DejaVuSans-53"/>
     <use x="63.476562" xlink:href="#DejaVuSans-48"/>
     <use x="138.671875" xlink:href="#DejaVuSans-41"/>
     <use x="207.080078" xlink:href="#DejaVuSans-44"/>
     <use x="284.082031" xlink:href="#DejaVuSans-45"/>
     <use x="347.265625" xlink:href="#DejaVuSans-2d"/>
     <use x="383.349609" xlink:href="#DejaVuSans-4c"/>
     <use x="439.0625" xlink:href="#DejaVuSans-4d"/>
    </g>
   </g>
   <g id="text_15">
    <!-- SHADE-LM-PO -->
    <defs>
     <path d="M 19.671875 64.796875 
L 19.671875 37.40625 
L 32.078125 37.40625 
Q 38.96875 37.40625 42.71875 40.96875 
Q 46.484375 44.53125 46.484375 51.125 
Q 46.484375 57.671875 42.71875 61.234375 
Q 38.96875 64.796875 32.078125 64.796875 
z
M 9.8125 72.90625 
L 32.078125 72.90625 
Q 44.34375 72.90625 50.609375 67.359375 
Q 56.890625 61.8125 56.890625 51.125 
Q 56.890625 40.328125 50.609375 34.8125 
Q 44.34375 29.296875 32.078125 29.296875 
L 19.671875 29.296875 
L 19.671875 0 
L 9.8125 0 
z
" id="DejaVuSans-50"/>
     <path d="M 39.40625 66.21875 
Q 28.65625 66.21875 22.328125 58.203125 
Q 16.015625 50.203125 16.015625 36.375 
Q 16.015625 22.609375 22.328125 14.59375 
Q 28.65625 6.59375 39.40625 6.59375 
Q 50.140625 6.59375 56.421875 14.59375 
Q 62.703125 22.609375 62.703125 36.375 
Q 62.703125 50.203125 56.421875 58.203125 
Q 50.140625 66.21875 39.40625 66.21875 
z
M 39.40625 74.21875 
Q 54.734375 74.21875 63.90625 63.9375 
Q 73.09375 53.65625 73.09375 36.375 
Q 73.09375 19.140625 63.90625 8.859375 
Q 54.734375 -1.421875 39.40625 -1.421875 
Q 24.03125 -1.421875 14.8125 8.828125 
Q 5.609375 19.09375 5.609375 36.375 
Q 5.609375 53.65625 14.8125 63.9375 
Q 24.03125 74.21875 39.40625 74.21875 
z
" id="DejaVuSans-4f"/>
    </defs>
    <g transform="translate(369.18424 123.109155)scale(0.17 -0.17)">
     <use xlink:href="#DejaVuSans-53"/>
     <use x="63.476562" xlink:href="#DejaVuSans-48"/>
     <use x="138.671875" xlink:href="#DejaVuSans-41"/>
     <use x="207.080078" xlink:href="#DejaVuSans-44"/>
     <use x="284.082031" xlink:href="#DejaVuSans-45"/>
     <use x="347.265625" xlink:href="#DejaVuSans-2d"/>
     <use x="383.349609" xlink:href="#DejaVuSans-4c"/>
     <use x="439.0625" xlink:href="#DejaVuSans-4d"/>
     <use x="525.341797" xlink:href="#DejaVuSans-2d"/>
     <use x="561.425781" xlink:href="#DejaVuSans-50"/>
     <use x="621.728516" xlink:href="#DejaVuSans-4f"/>
    </g>
   </g>
   <g id="text_16">
    <!-- best 2009 -->
    <defs>
     <path d="M 48.6875 27.296875 
Q 48.6875 37.203125 44.609375 42.84375 
Q 40.53125 48.484375 33.40625 48.484375 
Q 26.265625 48.484375 22.1875 42.84375 
Q 18.109375 37.203125 18.109375 27.296875 
Q 18.109375 17.390625 22.1875 11.75 
Q 26.265625 6.109375 33.40625 6.109375 
Q 40.53125 6.109375 44.609375 11.75 
Q 48.6875 17.390625 48.6875 27.296875 
z
M 18.109375 46.390625 
Q 20.953125 51.265625 25.265625 53.625 
Q 29.59375 56 35.59375 56 
Q 45.5625 56 51.78125 48.09375 
Q 58.015625 40.1875 58.015625 27.296875 
Q 58.015625 14.40625 51.78125 6.484375 
Q 45.5625 -1.421875 35.59375 -1.421875 
Q 29.59375 -1.421875 25.265625 0.953125 
Q 20.953125 3.328125 18.109375 8.203125 
L 18.109375 0 
L 9.078125 0 
L 9.078125 75.984375 
L 18.109375 75.984375 
z
" id="DejaVuSans-62"/>
     <path d="M 10.984375 1.515625 
L 10.984375 10.5 
Q 14.703125 8.734375 18.5 7.8125 
Q 22.3125 6.890625 25.984375 6.890625 
Q 35.75 6.890625 40.890625 13.453125 
Q 46.046875 20.015625 46.78125 33.40625 
Q 43.953125 29.203125 39.59375 26.953125 
Q 35.25 24.703125 29.984375 24.703125 
Q 19.046875 24.703125 12.671875 31.3125 
Q 6.296875 37.9375 6.296875 49.421875 
Q 6.296875 60.640625 12.9375 67.421875 
Q 19.578125 74.21875 30.609375 74.21875 
Q 43.265625 74.21875 49.921875 64.515625 
Q 56.59375 54.828125 56.59375 36.375 
Q 56.59375 19.140625 48.40625 8.859375 
Q 40.234375 -1.421875 26.421875 -1.421875 
Q 22.703125 -1.421875 18.890625 -0.6875 
Q 15.09375 0.046875 10.984375 1.515625 
z
M 30.609375 32.421875 
Q 37.25 32.421875 41.125 36.953125 
Q 45.015625 41.5 45.015625 49.421875 
Q 45.015625 57.28125 41.125 61.84375 
Q 37.25 66.40625 30.609375 66.40625 
Q 23.96875 66.40625 20.09375 61.84375 
Q 16.21875 57.28125 16.21875 49.421875 
Q 16.21875 41.5 20.09375 36.953125 
Q 23.96875 32.421875 30.609375 32.421875 
z
" id="DejaVuSans-39"/>
    </defs>
    <g transform="translate(369.18424 37.551928)scale(0.17 -0.17)">
     <use xlink:href="#DejaVuSans-62"/>
     <use x="63.476562" xlink:href="#DejaVuSans-65"/>
     <use x="125" xlink:href="#DejaVuSans-73"/>
     <use x="177.099609" xlink:href="#DejaVuSans-74"/>
     <use x="216.308594" xlink:href="#DejaVuSans-20"/>
     <use x="248.095703" xlink:href="#DejaVuSans-32"/>
     <use x="311.71875" xlink:href="#DejaVuSans-30"/>
     <use x="375.341797" xlink:href="#DejaVuSans-30"/>
     <use x="438.964844" xlink:href="#DejaVuSans-39"/>
    </g>
   </g>
   <g id="text_17">
    <!-- bbob f13, 2-D -->
    <defs>
     <path d="M 40.578125 39.3125 
Q 47.65625 37.796875 51.625 33 
Q 55.609375 28.21875 55.609375 21.1875 
Q 55.609375 10.40625 48.1875 4.484375 
Q 40.765625 -1.421875 27.09375 -1.421875 
Q 22.515625 -1.421875 17.65625 -0.515625 
Q 12.796875 0.390625 7.625 2.203125 
L 7.625 11.71875 
Q 11.71875 9.328125 16.59375 8.109375 
Q 21.484375 6.890625 26.8125 6.890625 
Q 36.078125 6.890625 40.9375 10.546875 
Q 45.796875 14.203125 45.796875 21.1875 
Q 45.796875 27.640625 41.28125 31.265625 
Q 36.765625 34.90625 28.71875 34.90625 
L 20.21875 34.90625 
L 20.21875 43.015625 
L 29.109375 43.015625 
Q 36.375 43.015625 40.234375 45.921875 
Q 44.09375 48.828125 44.09375 54.296875 
Q 44.09375 59.90625 40.109375 62.90625 
Q 36.140625 65.921875 28.71875 65.921875 
Q 24.65625 65.921875 20.015625 65.03125 
Q 15.375 64.15625 9.8125 62.3125 
L 9.8125 71.09375 
Q 15.4375 72.65625 20.34375 73.4375 
Q 25.25 74.21875 29.59375 74.21875 
Q 40.828125 74.21875 47.359375 69.109375 
Q 53.90625 64.015625 53.90625 55.328125 
Q 53.90625 49.265625 50.4375 45.09375 
Q 46.96875 40.921875 40.578125 39.3125 
z
" id="DejaVuSans-33"/>
    </defs>
    <g transform="translate(58.89048 35.290806)scale(0.102 -0.102)">
     <use xlink:href="#DejaVuSans-62"/>
     <use x="63.476562" xlink:href="#DejaVuSans-62"/>
     <use x="126.953125" xlink:href="#DejaVuSans-6f"/>
     <use x="188.134766" xlink:href="#DejaVuSans-62"/>
     <use x="251.611328" xlink:href="#DejaVuSans-20"/>
     <use x="283.398438" xlink:href="#DejaVuSans-66"/>
     <use x="318.603516" xlink:href="#DejaVuSans-31"/>
     <use x="382.226562" xlink:href="#DejaVuSans-33"/>
     <use x="445.849609" xlink:href="#DejaVuSans-2c"/>
     <use x="477.636719" xlink:href="#DejaVuSans-20"/>
     <use x="509.423828" xlink:href="#DejaVuSans-32"/>
     <use x="573.046875" xlink:href="#DejaVuSans-2d"/>
     <use x="609.130859" xlink:href="#DejaVuSans-44"/>
    </g>
    <!-- 51 targets: 100..1e-08 -->
    <defs>
     <path d="M 10.796875 72.90625 
L 49.515625 72.90625 
L 49.515625 64.59375 
L 19.828125 64.59375 
L 19.828125 46.734375 
Q 21.96875 47.46875 24.109375 47.828125 
Q 26.265625 48.1875 28.421875 48.1875 
Q 40.625 48.1875 47.75 41.5 
Q 54.890625 34.8125 54.890625 23.390625 
Q 54.890625 11.625 47.5625 5.09375 
Q 40.234375 -1.421875 26.90625 -1.421875 
Q 22.3125 -1.421875 17.546875 -0.640625 
Q 12.796875 0.140625 7.71875 1.703125 
L 7.71875 11.625 
Q 12.109375 9.234375 16.796875 8.0625 
Q 21.484375 6.890625 26.703125 6.890625 
Q 35.15625 6.890625 40.078125 11.328125 
Q 45.015625 15.765625 45.015625 23.390625 
Q 45.015625 31 40.078125 35.4375 
Q 35.15625 39.890625 26.703125 39.890625 
Q 22.75 39.890625 18.8125 39.015625 
Q 14.890625 38.140625 10.796875 36.28125 
z
" id="DejaVuSans-35"/>
     <path d="M 11.71875 12.40625 
L 22.015625 12.40625 
L 22.015625 0 
L 11.71875 0 
z
M 11.71875 51.703125 
L 22.015625 51.703125 
L 22.015625 39.3125 
L 11.71875 39.3125 
z
" id="DejaVuSans-3a"/>
    </defs>
    <g transform="translate(58.89048 46.712575)scale(0.102 -0.102)">
     <use xlink:href="#DejaVuSans-35"/>
     <use x="63.623047" xlink:href="#DejaVuSans-31"/>
     <use x="127.246094" xlink:href="#DejaVuSans-20"/>
     <use x="159.033203" xlink:href="#DejaVuSans-74"/>
     <use x="198.242188" xlink:href="#DejaVuSans-61"/>
     <use x="259.521484" xlink:href="#DejaVuSans-72"/>
     <use x="300.619141" xlink:href="#DejaVuSans-67"/>
     <use x="364.095703" xlink:href="#DejaVuSans-65"/>
     <use x="425.619141" xlink:href="#DejaVuSans-74"/>
     <use x="464.828125" xlink:href="#DejaVuSans-73"/>
     <use x="516.927734" xlink:href="#DejaVuSans-3a"/>
     <use x="550.619141" xlink:href="#DejaVuSans-20"/>
     <use x="582.40625" xlink:href="#DejaVuSans-31"/>
     <use x="646.029297" xlink:href="#DejaVuSans-30"/>
     <use x="709.652344" xlink:href="#DejaVuSans-30"/>
     <use x="773.275391" xlink:href="#DejaVuSans-2e"/>
     <use x="805.0625" xlink:href="#DejaVuSans-2e"/>
     <use x="836.849609" xlink:href="#DejaVuSans-31"/>
     <use x="900.472656" xlink:href="#DejaVuSans-65"/>
     <use x="961.996094" xlink:href="#DejaVuSans-2d"/>
     <use x="998.080078" xlink:href="#DejaVuSans-30"/>
     <use x="1061.703125" xlink:href="#DejaVuSans-38"/>
    </g>
    <!-- 15 instances -->
    <g transform="translate(58.89048 58.134344)scale(0.102 -0.102)">
     <use xlink:href="#DejaVuSans-31"/>
     <use x="63.623047" xlink:href="#DejaVuSans-35"/>
     <use x="127.246094" xlink:href="#DejaVuSans-20"/>
     <use x="159.033203" xlink:href="#DejaVuSans-69"/>
     <use x="186.816406" xlink:href="#DejaVuSans-6e"/>
     <use x="250.195312" xlink:href="#DejaVuSans-73"/>
     <use x="302.294922" xlink:href="#DejaVuSans-74"/>
     <use x="341.503906" xlink:href="#DejaVuSans-61"/>
     <use x="402.783203" xlink:href="#DejaVuSans-6e"/>
     <use x="466.162109" xlink:href="#DejaVuSans-63"/>
     <use x="521.142578" xlink:href="#DejaVuSans-65"/>
     <use x="582.666016" xlink:href="#DejaVuSans-73"/>
    </g>
   </g>
   <g id="text_18">
    <!-- v2.4 -->
    <g style="fill:#808080;" transform="translate(183.733063 290.099912)scale(0.1 -0.1)">
     <use xlink:href="#DejaVuSans-76"/>
     <use x="59.179688" xlink:href="#DejaVuSans-32"/>
     <use x="122.802734" xlink:href="#DejaVuSans-2e"/>
     <use x="154.589844" xlink:href="#DejaVuSans-34"/>
    </g>
   </g>
   <g id="text_19">
    <!-- 13 Sharp ridge -->
    <defs>
     <path d="M 54.890625 33.015625 
L 54.890625 0 
L 45.90625 0 
L 45.90625 32.71875 
Q 45.90625 40.484375 42.875 44.328125 
Q 39.84375 48.1875 33.796875 48.1875 
Q 26.515625 48.1875 22.3125 43.546875 
Q 18.109375 38.921875 18.109375 30.90625 
L 18.109375 0 
L 9.078125 0 
L 9.078125 75.984375 
L 18.109375 75.984375 
L 18.109375 46.1875 
Q 21.34375 51.125 25.703125 53.5625 
Q 30.078125 56 35.796875 56 
Q 45.21875 56 50.046875 50.171875 
Q 54.890625 44.34375 54.890625 33.015625 
z
" id="DejaVuSans-68"/>
    </defs>
    <g transform="translate(120.55025 18.84)scale(0.2 -0.2)">
     <use xlink:href="#DejaVuSans-31"/>
     <use x="63.623047" xlink:href="#DejaVuSans-33"/>
     <use x="127.246094" xlink:href="#DejaVuSans-20"/>
     <use x="159.033203" xlink:href="#DejaVuSans-53"/>
     <use x="222.509766" xlink:href="#DejaVuSans-68"/>
     <use x="285.888672" xlink:href="#DejaVuSans-61"/>
     <use x="347.167969" xlink:href="#DejaVuSans-72"/>
     <use x="388.28125" xlink:href="#DejaVuSans-70"/>
     <use x="451.757812" xlink:href="#DejaVuSans-20"/>
     <use x="483.544922" xlink:href="#DejaVuSans-72"/>
     <use x="524.658203" xlink:href="#DejaVuSans-69"/>
     <use x="552.441406" xlink:href="#DejaVuSans-64"/>
     <use x="615.917969" xlink:href="#DejaVuSans-67"/>
     <use x="679.394531" xlink:href="#DejaVuSans-65"/>
    </g>
   </g>
  </g>
 </g>
 <defs>
  <clipPath id="p9ab074b00c">
   <rect height="270.04" width="277.048" x="56.12" y="24.84"/>
  </clipPath>
 </defs>
</svg>
