<?xml version="1.0" encoding="utf-8" standalone="no"?>
<!DOCTYPE svg PUBLIC "-//W3C//DTD SVG 1.1//EN"
  "http://www.w3.org/Graphics/SVG/1.1/DTD/svg11.dtd">
<!-- Created with matplotlib (http://matplotlib.org/) -->
<svg height="345.6pt" version="1.1" viewBox="0 0 460.8 345.6" width="460.8pt" xmlns="http://www.w3.org/2000/svg" xmlns:xlink="http://www.w3.org/1999/xlink">
 <defs>
  <style type="text/css">
*{stroke-linecap:butt;stroke-linejoin:round;}
  </style>
 </defs>
 <g id="figure_1">
  <g id="patch_1">
   <path d="M 0 345.6 
L 460.8 345.6 
L 460.8 0 
L 0 0 
z
" style="fill:#ffffff;"/>
  </g>
  <g id="axes_1">
   <g id="patch_2">
    <path d="M 81.1257 289.912 
L 413.232 289.912 
L 413.232 5.52 
L 81.1257 5.52 
z
" style="fill:#ffffff;"/>
   </g>
   <g id="matplotlib.axis_1">
    <g id="xtick_1">
     <g id="line2d_1">
      <path clip-path="url(#p85fe318f08)" d="M 171.076431 289.912 
L 171.076431 5.52 
" style="fill:none;stroke:#b0b0b0;stroke-linecap:square;stroke-width:0.8;"/>
     </g>
     <g id="line2d_2">
      <defs>
       <path d="M 0 0 
L 0 3.5 
" id="m415da4c6a9" style="stroke:#000000;stroke-width:0.8;"/>
      </defs>
      <g>
       <use style="stroke:#000000;stroke-width:0.8;" x="171.076431" xlink:href="#m415da4c6a9" y="289.912"/>
      </g>
     </g>
     <g id="text_1">
      <!-- $\mathdefault{10^{0}}$ -->
      <defs>
       <path d="M 12.40625 8.296875 
L 28.515625 8.296875 
L 28.515625 63.921875 
L 10.984375 60.40625 
L 10.984375 69.390625 
L 28.421875 72.90625 
L 38.28125 72.90625 
L 38.28125 8.296875 
L 54.390625 8.296875 
L 54.390625 0 
L 12.40625 0 
z
" id="DejaVuSans-31"/>
       <path d="M 31.78125 66.40625 
Q 24.171875 66.40625 20.328125 58.90625 
Q 16.5 51.421875 16.5 36.375 
Q 16.5 21.390625 20.328125 13.890625 
Q 24.171875 6.390625 31.78125 6.390625 
Q 39.453125 6.390625 43.28125 13.890625 
Q 47.125 21.390625 47.125 36.375 
Q 47.125 51.421875 43.28125 58.90625 
Q 39.453125 66.40625 31.78125 66.40625 
z
M 31.78125 74.21875 
Q 44.046875 74.21875 50.515625 64.515625 
Q 56.984375 54.828125 56.984375 36.375 
Q 56.984375 17.96875 50.515625 8.265625 
Q 44.046875 -1.421875 31.78125 -1.421875 
Q 19.53125 -1.421875 13.0625 8.265625 
Q 6.59375 17.96875 6.59375 36.375 
Q 6.59375 54.828125 13.0625 64.515625 
Q 19.53125 74.21875 31.78125 74.21875 
z
" id="DejaVuSans-30"/>
      </defs>
      <g transform="translate(153.476431 312.108875)scale(0.2 -0.2)">
       <use transform="translate(0 0.765625)" xlink:href="#DejaVuSans-31"/>
       <use transform="translate(63.623047 0.765625)" xlink:href="#DejaVuSans-30"/>
       <use transform="translate(128.203125 39.046875)scale(0.7)" xlink:href="#DejaVuSans-30"/>
      </g>
     </g>
    </g>
    <g id="xtick_2">
     <g id="line2d_3">
      <path clip-path="url(#p85fe318f08)" d="M 286.146784 289.912 
L 286.146784 5.52 
" style="fill:none;stroke:#b0b0b0;stroke-linecap:square;stroke-width:0.8;"/>
     </g>
     <g id="line2d_4">
      <g>
       <use style="stroke:#000000;stroke-width:0.8;" x="286.146784" xlink:href="#m415da4c6a9" y="289.912"/>
      </g>
     </g>
     <g id="text_2">
      <!-- $\mathdefault{10^{2}}$ -->
      <defs>
       <path d="M 19.1875 8.296875 
L 53.609375 8.296875 
L 53.609375 0 
L 7.328125 0 
L 7.328125 8.296875 
Q 12.9375 14.109375 22.625 23.890625 
Q 32.328125 33.6875 34.8125 36.53125 
Q 39.546875 41.84375 41.421875 45.53125 
Q 43.3125 49.21875 43.3125 52.78125 
Q 43.3125 58.59375 39.234375 62.25 
Q 35.15625 65.921875 28.609375 65.921875 
Q 23.96875 65.921875 18.8125 64.3125 
Q 13.671875 62.703125 7.8125 59.421875 
L 7.8125 69.390625 
Q 13.765625 71.78125 18.9375 73 
Q 24.125 74.21875 28.421875 74.21875 
Q 39.75 74.21875 46.484375 68.546875 
Q 53.21875 62.890625 53.21875 53.421875 
Q 53.21875 48.921875 51.53125 44.890625 
Q 49.859375 40.875 45.40625 35.40625 
Q 44.1875 33.984375 37.640625 27.21875 
Q 31.109375 20.453125 19.1875 8.296875 
z
" id="DejaVuSans-32"/>
      </defs>
      <g transform="translate(268.546784 312.108875)scale(0.2 -0.2)">
       <use transform="translate(0 0.765625)" xlink:href="#DejaVuSans-31"/>
       <use transform="translate(63.623047 0.765625)" xlink:href="#DejaVuSans-30"/>
       <use transform="translate(128.203125 39.046875)scale(0.7)" xlink:href="#DejaVuSans-32"/>
      </g>
     </g>
    </g>
    <g id="xtick_3">
     <g id="line2d_5">
      <path clip-path="url(#p85fe318f08)" d="M 401.217137 289.912 
L 401.217137 5.52 
" style="fill:none;stroke:#b0b0b0;stroke-linecap:square;stroke-width:0.8;"/>
     </g>
     <g id="line2d_6">
      <g>
       <use style="stroke:#000000;stroke-width:0.8;" x="401.217137" xlink:href="#m415da4c6a9" y="289.912"/>
      </g>
     </g>
     <g id="text_3">
      <!-- $\mathdefault{10^{4}}$ -->
      <defs>
       <path d="M 37.796875 64.3125 
L 12.890625 25.390625 
L 37.796875 25.390625 
z
M 35.203125 72.90625 
L 47.609375 72.90625 
L 47.609375 25.390625 
L 58.015625 25.390625 
L 58.015625 17.1875 
L 47.609375 17.1875 
L 47.609375 0 
L 37.796875 0 
L 37.796875 17.1875 
L 4.890625 17.1875 
L 4.890625 26.703125 
z
" id="DejaVuSans-34"/>
      </defs>
      <g transform="translate(383.617137 312.108875)scale(0.2 -0.2)">
       <use transform="translate(0 0.684375)" xlink:href="#DejaVuSans-31"/>
       <use transform="translate(63.623047 0.684375)" xlink:href="#DejaVuSans-30"/>
       <use transform="translate(128.203125 38.965625)scale(0.7)" xlink:href="#DejaVuSans-34"/>
      </g>
     </g>
    </g>
    <g id="text_4">
     <!-- number of function evaluations / dimension -->
     <defs>
      <path d="M 54.890625 33.015625 
L 54.890625 0 
L 45.90625 0 
L 45.90625 32.71875 
Q 45.90625 40.484375 42.875 44.328125 
Q 39.84375 48.1875 33.796875 48.1875 
Q 26.515625 48.1875 22.3125 43.546875 
Q 18.109375 38.921875 18.109375 30.90625 
L 18.109375 0 
L 9.078125 0 
L 9.078125 54.6875 
L 18.109375 54.6875 
L 18.109375 46.1875 
Q 21.34375 51.125 25.703125 53.5625 
Q 30.078125 56 35.796875 56 
Q 45.21875 56 50.046875 50.171875 
Q 54.890625 44.34375 54.890625 33.015625 
z
" id="DejaVuSans-6e"/>
      <path d="M 8.5 21.578125 
L 8.5 54.6875 
L 17.484375 54.6875 
L 17.484375 21.921875 
Q 17.484375 14.15625 20.5 10.265625 
Q 23.53125 6.390625 29.59375 6.390625 
Q 36.859375 6.390625 41.078125 11.03125 
Q 45.3125 15.671875 45.3125 23.6875 
L 45.3125 54.6875 
L 54.296875 54.6875 
L 54.296875 0 
L 45.3125 0 
L 45.3125 8.40625 
Q 42.046875 3.421875 37.71875 1 
Q 33.40625 -1.421875 27.6875 -1.421875 
Q 18.265625 -1.421875 13.375 4.4375 
Q 8.5 10.296875 8.5 21.578125 
z
M 31.109375 56 
z
" id="DejaVuSans-75"/>
      <path d="M 52 44.1875 
Q 55.375 50.25 60.0625 53.125 
Q 64.75 56 71.09375 56 
Q 79.640625 56 84.28125 50.015625 
Q 88.921875 44.046875 88.921875 33.015625 
L 88.921875 0 
L 79.890625 0 
L 79.890625 32.71875 
Q 79.890625 40.578125 77.09375 44.375 
Q 74.3125 48.1875 68.609375 48.1875 
Q 61.625 48.1875 57.5625 43.546875 
Q 53.515625 38.921875 53.515625 30.90625 
L 53.515625 0 
L 44.484375 0 
L 44.484375 32.71875 
Q 44.484375 40.625 41.703125 44.40625 
Q 38.921875 48.1875 33.109375 48.1875 
Q 26.21875 48.1875 22.15625 43.53125 
Q 18.109375 38.875 18.109375 30.90625 
L 18.109375 0 
L 9.078125 0 
L 9.078125 54.6875 
L 18.109375 54.6875 
L 18.109375 46.1875 
Q 21.1875 51.21875 25.484375 53.609375 
Q 29.78125 56 35.6875 56 
Q 41.65625 56 45.828125 52.96875 
Q 50 49.953125 52 44.1875 
z
" id="DejaVuSans-6d"/>
      <path d="M 48.6875 27.296875 
Q 48.6875 37.203125 44.609375 42.84375 
Q 40.53125 48.484375 33.40625 48.484375 
Q 26.265625 48.484375 22.1875 42.84375 
Q 18.109375 37.203125 18.109375 27.296875 
Q 18.109375 17.390625 22.1875 11.75 
Q 26.265625 6.109375 33.40625 6.109375 
Q 40.53125 6.109375 44.609375 11.75 
Q 48.6875 17.390625 48.6875 27.296875 
z
M 18.109375 46.390625 
Q 20.953125 51.265625 25.265625 53.625 
Q 29.59375 56 35.59375 56 
Q 45.5625 56 51.78125 48.09375 
Q 58.015625 40.1875 58.015625 27.296875 
Q 58.015625 14.40625 51.78125 6.484375 
Q 45.5625 -1.421875 35.59375 -1.421875 
Q 29.59375 -1.421875 25.265625 0.953125 
Q 20.953125 3.328125 18.109375 8.203125 
L 18.109375 0 
L 9.078125 0 
L 9.078125 75.984375 
L 18.109375 75.984375 
z
" id="DejaVuSans-62"/>
      <path d="M 56.203125 29.59375 
L 56.203125 25.203125 
L 14.890625 25.203125 
Q 15.484375 15.921875 20.484375 11.0625 
Q 25.484375 6.203125 34.421875 6.203125 
Q 39.59375 6.203125 44.453125 7.46875 
Q 49.3125 8.734375 54.109375 11.28125 
L 54.109375 2.78125 
Q 49.265625 0.734375 44.1875 -0.34375 
Q 39.109375 -1.421875 33.890625 -1.421875 
Q 20.796875 -1.421875 13.15625 6.1875 
Q 5.515625 13.8125 5.515625 26.8125 
Q 5.515625 40.234375 12.765625 48.109375 
Q 20.015625 56 32.328125 56 
Q 43.359375 56 49.78125 48.890625 
Q 56.203125 41.796875 56.203125 29.59375 
z
M 47.21875 32.234375 
Q 47.125 39.59375 43.09375 43.984375 
Q 39.0625 48.390625 32.421875 48.390625 
Q 24.90625 48.390625 20.390625 44.140625 
Q 15.875 39.890625 15.1875 32.171875 
z
" id="DejaVuSans-65"/>
      <path d="M 41.109375 46.296875 
Q 39.59375 47.171875 37.8125 47.578125 
Q 36.03125 48 33.890625 48 
Q 26.265625 48 22.1875 43.046875 
Q 18.109375 38.09375 18.109375 28.8125 
L 18.109375 0 
L 9.078125 0 
L 9.078125 54.6875 
L 18.109375 54.6875 
L 18.109375 46.1875 
Q 20.953125 51.171875 25.484375 53.578125 
Q 30.03125 56 36.53125 56 
Q 37.453125 56 38.578125 55.875 
Q 39.703125 55.765625 41.0625 55.515625 
z
" id="DejaVuSans-72"/>
      <path id="DejaVuSans-20"/>
      <path d="M 30.609375 48.390625 
Q 23.390625 48.390625 19.1875 42.75 
Q 14.984375 37.109375 14.984375 27.296875 
Q 14.984375 17.484375 19.15625 11.84375 
Q 23.34375 6.203125 30.609375 6.203125 
Q 37.796875 6.203125 41.984375 11.859375 
Q 46.1875 17.53125 46.1875 27.296875 
Q 46.1875 37.015625 41.984375 42.703125 
Q 37.796875 48.390625 30.609375 48.390625 
z
M 30.609375 56 
Q 42.328125 56 49.015625 48.375 
Q 55.71875 40.765625 55.71875 27.296875 
Q 55.71875 13.875 49.015625 6.21875 
Q 42.328125 -1.421875 30.609375 -1.421875 
Q 18.84375 -1.421875 12.171875 6.21875 
Q 5.515625 13.875 5.515625 27.296875 
Q 5.515625 40.765625 12.171875 48.375 
Q 18.84375 56 30.609375 56 
z
" id="DejaVuSans-6f"/>
      <path d="M 37.109375 75.984375 
L 37.109375 68.5 
L 28.515625 68.5 
Q 23.6875 68.5 21.796875 66.546875 
Q 19.921875 64.59375 19.921875 59.515625 
L 19.921875 54.6875 
L 34.71875 54.6875 
L 34.71875 47.703125 
L 19.921875 47.703125 
L 19.921875 0 
L 10.890625 0 
L 10.890625 47.703125 
L 2.296875 47.703125 
L 2.296875 54.6875 
L 10.890625 54.6875 
L 10.890625 58.5 
Q 10.890625 67.625 15.140625 71.796875 
Q 19.390625 75.984375 28.609375 75.984375 
z
" id="DejaVuSans-66"/>
      <path d="M 48.78125 52.59375 
L 48.78125 44.1875 
Q 44.96875 46.296875 41.140625 47.34375 
Q 37.3125 48.390625 33.40625 48.390625 
Q 24.65625 48.390625 19.8125 42.84375 
Q 14.984375 37.3125 14.984375 27.296875 
Q 14.984375 17.28125 19.8125 11.734375 
Q 24.65625 6.203125 33.40625 6.203125 
Q 37.3125 6.203125 41.140625 7.25 
Q 44.96875 8.296875 48.78125 10.40625 
L 48.78125 2.09375 
Q 45.015625 0.34375 40.984375 -0.53125 
Q 36.96875 -1.421875 32.421875 -1.421875 
Q 20.0625 -1.421875 12.78125 6.34375 
Q 5.515625 14.109375 5.515625 27.296875 
Q 5.515625 40.671875 12.859375 48.328125 
Q 20.21875 56 33.015625 56 
Q 37.15625 56 41.109375 55.140625 
Q 45.0625 54.296875 48.78125 52.59375 
z
" id="DejaVuSans-63"/>
      <path d="M 18.3125 70.21875 
L 18.3125 54.6875 
L 36.8125 54.6875 
L 36.8125 47.703125 
L 18.3125 47.703125 
L 18.3125 18.015625 
Q 18.3125 11.328125 20.140625 9.421875 
Q 21.96875 7.515625 27.59375 7.515625 
L 36.8125 7.515625 
L 36.8125 0 
L 27.59375 0 
Q 17.1875 0 13.234375 3.875 
Q 9.28125 7.765625 9.28125 18.015625 
L 9.28125 47.703125 
L 2.6875 47.703125 
L 2.6875 54.6875 
L 9.28125 54.6875 
L 9.28125 70.21875 
z
" id="DejaVuSans-74"/>
      <path d="M 9.421875 54.6875 
L 18.40625 54.6875 
L 18.40625 0 
L 9.421875 0 
z
M 9.421875 75.984375 
L 18.40625 75.984375 
L 18.40625 64.59375 
L 9.421875 64.59375 
z
" id="DejaVuSans-69"/>
      <path d="M 2.984375 54.6875 
L 12.5 54.6875 
L 29.59375 8.796875 
L 46.6875 54.6875 
L 56.203125 54.6875 
L 35.6875 0 
L 23.484375 0 
z
" id="DejaVuSans-76"/>
      <path d="M 34.28125 27.484375 
Q 23.390625 27.484375 19.1875 25 
Q 14.984375 22.515625 14.984375 16.5 
Q 14.984375 11.71875 18.140625 8.90625 
Q 21.296875 6.109375 26.703125 6.109375 
Q 34.1875 6.109375 38.703125 11.40625 
Q 43.21875 16.703125 43.21875 25.484375 
L 43.21875 27.484375 
z
M 52.203125 31.203125 
L 52.203125 0 
L 43.21875 0 
L 43.21875 8.296875 
Q 40.140625 3.328125 35.546875 0.953125 
Q 30.953125 -1.421875 24.3125 -1.421875 
Q 15.921875 -1.421875 10.953125 3.296875 
Q 6 8.015625 6 15.921875 
Q 6 25.140625 12.171875 29.828125 
Q 18.359375 34.515625 30.609375 34.515625 
L 43.21875 34.515625 
L 43.21875 35.40625 
Q 43.21875 41.609375 39.140625 45 
Q 35.0625 48.390625 27.6875 48.390625 
Q 23 48.390625 18.546875 47.265625 
Q 14.109375 46.140625 10.015625 43.890625 
L 10.015625 52.203125 
Q 14.9375 54.109375 19.578125 55.046875 
Q 24.21875 56 28.609375 56 
Q 40.484375 56 46.34375 49.84375 
Q 52.203125 43.703125 52.203125 31.203125 
z
" id="DejaVuSans-61"/>
      <path d="M 9.421875 75.984375 
L 18.40625 75.984375 
L 18.40625 0 
L 9.421875 0 
z
" id="DejaVuSans-6c"/>
      <path d="M 44.28125 53.078125 
L 44.28125 44.578125 
Q 40.484375 46.53125 36.375 47.5 
Q 32.28125 48.484375 27.875 48.484375 
Q 21.1875 48.484375 17.84375 46.4375 
Q 14.5 44.390625 14.5 40.28125 
Q 14.5 37.15625 16.890625 35.375 
Q 19.28125 33.59375 26.515625 31.984375 
L 29.59375 31.296875 
Q 39.15625 29.25 43.1875 25.515625 
Q 47.21875 21.78125 47.21875 15.09375 
Q 47.21875 7.46875 41.1875 3.015625 
Q 35.15625 -1.421875 24.609375 -1.421875 
Q 20.21875 -1.421875 15.453125 -0.5625 
Q 10.6875 0.296875 5.421875 2 
L 5.421875 11.28125 
Q 10.40625 8.6875 15.234375 7.390625 
Q 20.0625 6.109375 24.8125 6.109375 
Q 31.15625 6.109375 34.5625 8.28125 
Q 37.984375 10.453125 37.984375 14.40625 
Q 37.984375 18.0625 35.515625 20.015625 
Q 33.0625 21.96875 24.703125 23.78125 
L 21.578125 24.515625 
Q 13.234375 26.265625 9.515625 29.90625 
Q 5.8125 33.546875 5.8125 39.890625 
Q 5.8125 47.609375 11.28125 51.796875 
Q 16.75 56 26.8125 56 
Q 31.78125 56 36.171875 55.265625 
Q 40.578125 54.546875 44.28125 53.078125 
z
" id="DejaVuSans-73"/>
      <path d="M 25.390625 72.90625 
L 33.6875 72.90625 
L 8.296875 -9.28125 
L 0 -9.28125 
z
" id="DejaVuSans-2f"/>
      <path d="M 45.40625 46.390625 
L 45.40625 75.984375 
L 54.390625 75.984375 
L 54.390625 0 
L 45.40625 0 
L 45.40625 8.203125 
Q 42.578125 3.328125 38.25 0.953125 
Q 33.9375 -1.421875 27.875 -1.421875 
Q 17.96875 -1.421875 11.734375 6.484375 
Q 5.515625 14.40625 5.515625 27.296875 
Q 5.515625 40.1875 11.734375 48.09375 
Q 17.96875 56 27.875 56 
Q 33.9375 56 38.25 53.625 
Q 42.578125 51.265625 45.40625 46.390625 
z
M 14.796875 27.296875 
Q 14.796875 17.390625 18.875 11.75 
Q 22.953125 6.109375 30.078125 6.109375 
Q 37.203125 6.109375 41.296875 11.75 
Q 45.40625 17.390625 45.40625 27.296875 
Q 45.40625 37.203125 41.296875 42.84375 
Q 37.203125 48.484375 30.078125 48.484375 
Q 22.953125 48.484375 18.875 42.84375 
Q 14.796875 37.203125 14.796875 27.296875 
z
" id="DejaVuSans-64"/>
     </defs>
     <g transform="translate(28.794475 335.465125)scale(0.2 -0.2)">
      <use xlink:href="#DejaVuSans-6e"/>
      <use x="63.378906" xlink:href="#DejaVuSans-75"/>
      <use x="126.757812" xlink:href="#DejaVuSans-6d"/>
      <use x="224.169922" xlink:href="#DejaVuSans-62"/>
      <use x="287.646484" xlink:href="#DejaVuSans-65"/>
      <use x="349.169922" xlink:href="#DejaVuSans-72"/>
      <use x="390.283203" xlink:href="#DejaVuSans-20"/>
      <use x="422.070312" xlink:href="#DejaVuSans-6f"/>
      <use x="483.251953" xlink:href="#DejaVuSans-66"/>
      <use x="518.457031" xlink:href="#DejaVuSans-20"/>
      <use x="550.244141" xlink:href="#DejaVuSans-66"/>
      <use x="585.449219" xlink:href="#DejaVuSans-75"/>
      <use x="648.828125" xlink:href="#DejaVuSans-6e"/>
      <use x="712.207031" xlink:href="#DejaVuSans-63"/>
      <use x="767.1875" xlink:href="#DejaVuSans-74"/>
      <use x="806.396484" xlink:href="#DejaVuSans-69"/>
      <use x="834.179688" xlink:href="#DejaVuSans-6f"/>
      <use x="895.361328" xlink:href="#DejaVuSans-6e"/>
      <use x="958.740234" xlink:href="#DejaVuSans-20"/>
      <use x="990.527344" xlink:href="#DejaVuSans-65"/>
      <use x="1052.050781" xlink:href="#DejaVuSans-76"/>
      <use x="1111.230469" xlink:href="#DejaVuSans-61"/>
      <use x="1172.509766" xlink:href="#DejaVuSans-6c"/>
      <use x="1200.292969" xlink:href="#DejaVuSans-75"/>
      <use x="1263.671875" xlink:href="#DejaVuSans-61"/>
      <use x="1324.951172" xlink:href="#DejaVuSans-74"/>
      <use x="1364.160156" xlink:href="#DejaVuSans-69"/>
      <use x="1391.943359" xlink:href="#DejaVuSans-6f"/>
      <use x="1453.125" xlink:href="#DejaVuSans-6e"/>
      <use x="1516.503906" xlink:href="#DejaVuSans-73"/>
      <use x="1568.603516" xlink:href="#DejaVuSans-20"/>
      <use x="1600.390625" xlink:href="#DejaVuSans-2f"/>
      <use x="1634.082031" xlink:href="#DejaVuSans-20"/>
      <use x="1665.869141" xlink:href="#DejaVuSans-64"/>
      <use x="1729.345703" xlink:href="#DejaVuSans-69"/>
      <use x="1757.128906" xlink:href="#DejaVuSans-6d"/>
      <use x="1854.541016" xlink:href="#DejaVuSans-65"/>
      <use x="1916.064453" xlink:href="#DejaVuSans-6e"/>
      <use x="1979.443359" xlink:href="#DejaVuSans-73"/>
      <use x="2031.542969" xlink:href="#DejaVuSans-69"/>
      <use x="2059.326172" xlink:href="#DejaVuSans-6f"/>
      <use x="2120.507812" xlink:href="#DejaVuSans-6e"/>
     </g>
    </g>
   </g>
   <g id="matplotlib.axis_2">
    <g id="ytick_1">
     <g id="line2d_7">
      <path clip-path="url(#p85fe318f08)" d="M 81.1257 289.912 
L 413.232 289.912 
" style="fill:none;stroke:#b0b0b0;stroke-linecap:square;stroke-width:0.8;"/>
     </g>
     <g id="line2d_8">
      <defs>
       <path d="M 0 0 
L -3.5 0 
" id="m1fcf96bc52" style="stroke:#000000;stroke-width:0.8;"/>
      </defs>
      <g>
       <use style="stroke:#000000;stroke-width:0.8;" x="81.1257" xlink:href="#m1fcf96bc52" y="289.912"/>
      </g>
     </g>
     <g id="text_5">
      <!-- $\mathdefault{10^{-8}}$ -->
      <defs>
       <path d="M 10.59375 35.5 
L 73.1875 35.5 
L 73.1875 27.203125 
L 10.59375 27.203125 
z
" id="DejaVuSans-2212"/>
       <path d="M 31.78125 34.625 
Q 24.75 34.625 20.71875 30.859375 
Q 16.703125 27.09375 16.703125 20.515625 
Q 16.703125 13.921875 20.71875 10.15625 
Q 24.75 6.390625 31.78125 6.390625 
Q 38.8125 6.390625 42.859375 10.171875 
Q 46.921875 13.96875 46.921875 20.515625 
Q 46.921875 27.09375 42.890625 30.859375 
Q 38.875 34.625 31.78125 34.625 
z
M 21.921875 38.8125 
Q 15.578125 40.375 12.03125 44.71875 
Q 8.5 49.078125 8.5 55.328125 
Q 8.5 64.0625 14.71875 69.140625 
Q 20.953125 74.21875 31.78125 74.21875 
Q 42.671875 74.21875 48.875 69.140625 
Q 55.078125 64.0625 55.078125 55.328125 
Q 55.078125 49.078125 51.53125 44.71875 
Q 48 40.375 41.703125 38.8125 
Q 48.828125 37.15625 52.796875 32.3125 
Q 56.78125 27.484375 56.78125 20.515625 
Q 56.78125 9.90625 50.3125 4.234375 
Q 43.84375 -1.421875 31.78125 -1.421875 
Q 19.734375 -1.421875 13.25 4.234375 
Q 6.78125 9.90625 6.78125 20.515625 
Q 6.78125 27.484375 10.78125 32.3125 
Q 14.796875 37.15625 21.921875 38.8125 
z
M 18.3125 54.390625 
Q 18.3125 48.734375 21.84375 45.5625 
Q 25.390625 42.390625 31.78125 42.390625 
Q 38.140625 42.390625 41.71875 45.5625 
Q 45.3125 48.734375 45.3125 54.390625 
Q 45.3125 60.0625 41.71875 63.234375 
Q 38.140625 66.40625 31.78125 66.40625 
Q 25.390625 66.40625 21.84375 63.234375 
Q 18.3125 60.0625 18.3125 54.390625 
z
" id="DejaVuSans-38"/>
      </defs>
      <g transform="translate(27.1257 297.510438)scale(0.2 -0.2)">
       <use transform="translate(0 0.765625)" xlink:href="#DejaVuSans-31"/>
       <use transform="translate(63.623047 0.765625)" xlink:href="#DejaVuSans-30"/>
       <use transform="translate(128.203125 39.046875)scale(0.7)" xlink:href="#DejaVuSans-2212"/>
       <use transform="translate(186.855469 39.046875)scale(0.7)" xlink:href="#DejaVuSans-38"/>
      </g>
     </g>
    </g>
    <g id="ytick_2">
     <g id="line2d_9">
      <path clip-path="url(#p85fe318f08)" d="M 81.1257 242.365449 
L 413.232 242.365449 
" style="fill:none;stroke:#b0b0b0;stroke-linecap:square;stroke-width:0.8;"/>
     </g>
     <g id="line2d_10">
      <g>
       <use style="stroke:#000000;stroke-width:0.8;" x="81.1257" xlink:href="#m1fcf96bc52" y="242.365449"/>
      </g>
     </g>
     <g id="text_6">
      <!-- $\mathdefault{10^{-6}}$ -->
      <defs>
       <path d="M 33.015625 40.375 
Q 26.375 40.375 22.484375 35.828125 
Q 18.609375 31.296875 18.609375 23.390625 
Q 18.609375 15.53125 22.484375 10.953125 
Q 26.375 6.390625 33.015625 6.390625 
Q 39.65625 6.390625 43.53125 10.953125 
Q 47.40625 15.53125 47.40625 23.390625 
Q 47.40625 31.296875 43.53125 35.828125 
Q 39.65625 40.375 33.015625 40.375 
z
M 52.59375 71.296875 
L 52.59375 62.3125 
Q 48.875 64.0625 45.09375 64.984375 
Q 41.3125 65.921875 37.59375 65.921875 
Q 27.828125 65.921875 22.671875 59.328125 
Q 17.53125 52.734375 16.796875 39.40625 
Q 19.671875 43.65625 24.015625 45.921875 
Q 28.375 48.1875 33.59375 48.1875 
Q 44.578125 48.1875 50.953125 41.515625 
Q 57.328125 34.859375 57.328125 23.390625 
Q 57.328125 12.15625 50.6875 5.359375 
Q 44.046875 -1.421875 33.015625 -1.421875 
Q 20.359375 -1.421875 13.671875 8.265625 
Q 6.984375 17.96875 6.984375 36.375 
Q 6.984375 53.65625 15.1875 63.9375 
Q 23.390625 74.21875 37.203125 74.21875 
Q 40.921875 74.21875 44.703125 73.484375 
Q 48.484375 72.75 52.59375 71.296875 
z
" id="DejaVuSans-36"/>
      </defs>
      <g transform="translate(27.1257 249.963886)scale(0.2 -0.2)">
       <use transform="translate(0 0.765625)" xlink:href="#DejaVuSans-31"/>
       <use transform="translate(63.623047 0.765625)" xlink:href="#DejaVuSans-30"/>
       <use transform="translate(128.203125 39.046875)scale(0.7)" xlink:href="#DejaVuSans-2212"/>
       <use transform="translate(186.855469 39.046875)scale(0.7)" xlink:href="#DejaVuSans-36"/>
      </g>
     </g>
    </g>
    <g id="ytick_3">
     <g id="line2d_11">
      <path clip-path="url(#p85fe318f08)" d="M 81.1257 194.818897 
L 413.232 194.818897 
" style="fill:none;stroke:#b0b0b0;stroke-linecap:square;stroke-width:0.8;"/>
     </g>
     <g id="line2d_12">
      <g>
       <use style="stroke:#000000;stroke-width:0.8;" x="81.1257" xlink:href="#m1fcf96bc52" y="194.818897"/>
      </g>
     </g>
     <g id="text_7">
      <!-- $\mathdefault{10^{-4}}$ -->
      <g transform="translate(27.1257 202.417335)scale(0.2 -0.2)">
       <use transform="translate(0 0.684375)" xlink:href="#DejaVuSans-31"/>
       <use transform="translate(63.623047 0.684375)" xlink:href="#DejaVuSans-30"/>
       <use transform="translate(128.203125 38.965625)scale(0.7)" xlink:href="#DejaVuSans-2212"/>
       <use transform="translate(186.855469 38.965625)scale(0.7)" xlink:href="#DejaVuSans-34"/>
      </g>
     </g>
    </g>
    <g id="ytick_4">
     <g id="line2d_13">
      <path clip-path="url(#p85fe318f08)" d="M 81.1257 147.272346 
L 413.232 147.272346 
" style="fill:none;stroke:#b0b0b0;stroke-linecap:square;stroke-width:0.8;"/>
     </g>
     <g id="line2d_14">
      <g>
       <use style="stroke:#000000;stroke-width:0.8;" x="81.1257" xlink:href="#m1fcf96bc52" y="147.272346"/>
      </g>
     </g>
     <g id="text_8">
      <!-- $\mathdefault{10^{-2}}$ -->
      <g transform="translate(27.1257 154.870783)scale(0.2 -0.2)">
       <use transform="translate(0 0.765625)" xlink:href="#DejaVuSans-31"/>
       <use transform="translate(63.623047 0.765625)" xlink:href="#DejaVuSans-30"/>
       <use transform="translate(128.203125 39.046875)scale(0.7)" xlink:href="#DejaVuSans-2212"/>
       <use transform="translate(186.855469 39.046875)scale(0.7)" xlink:href="#DejaVuSans-32"/>
      </g>
     </g>
    </g>
    <g id="ytick_5">
     <g id="line2d_15">
      <path clip-path="url(#p85fe318f08)" d="M 81.1257 99.725794 
L 413.232 99.725794 
" style="fill:none;stroke:#b0b0b0;stroke-linecap:square;stroke-width:0.8;"/>
     </g>
     <g id="line2d_16">
      <g>
       <use style="stroke:#000000;stroke-width:0.8;" x="81.1257" xlink:href="#m1fcf96bc52" y="99.725794"/>
      </g>
     </g>
     <g id="text_9">
      <!-- $\mathdefault{10^{0}}$ -->
      <g transform="translate(38.9257 107.324232)scale(0.2 -0.2)">
       <use transform="translate(0 0.765625)" xlink:href="#DejaVuSans-31"/>
       <use transform="translate(63.623047 0.765625)" xlink:href="#DejaVuSans-30"/>
       <use transform="translate(128.203125 39.046875)scale(0.7)" xlink:href="#DejaVuSans-30"/>
      </g>
     </g>
    </g>
    <g id="ytick_6">
     <g id="line2d_17">
      <path clip-path="url(#p85fe318f08)" d="M 81.1257 52.179243 
L 413.232 52.179243 
" style="fill:none;stroke:#b0b0b0;stroke-linecap:square;stroke-width:0.8;"/>
     </g>
     <g id="line2d_18">
      <g>
       <use style="stroke:#000000;stroke-width:0.8;" x="81.1257" xlink:href="#m1fcf96bc52" y="52.179243"/>
      </g>
     </g>
     <g id="text_10">
      <!-- $\mathdefault{10^{2}}$ -->
      <g transform="translate(38.9257 59.777681)scale(0.2 -0.2)">
       <use transform="translate(0 0.765625)" xlink:href="#DejaVuSans-31"/>
       <use transform="translate(63.623047 0.765625)" xlink:href="#DejaVuSans-30"/>
       <use transform="translate(128.203125 39.046875)scale(0.7)" xlink:href="#DejaVuSans-32"/>
      </g>
     </g>
    </g>
    <g id="text_11">
     <!-- Median of fitness -->
     <defs>
      <path d="M 9.8125 72.90625 
L 24.515625 72.90625 
L 43.109375 23.296875 
L 61.8125 72.90625 
L 76.515625 72.90625 
L 76.515625 0 
L 66.890625 0 
L 66.890625 64.015625 
L 48.09375 14.015625 
L 38.1875 14.015625 
L 19.390625 64.015625 
L 19.390625 0 
L 9.8125 0 
z
" id="DejaVuSans-4d"/>
     </defs>
     <g transform="translate(18.966325 233.212875)rotate(-90)scale(0.2 -0.2)">
      <use xlink:href="#DejaVuSans-4d"/>
      <use x="86.279297" xlink:href="#DejaVuSans-65"/>
      <use x="147.802734" xlink:href="#DejaVuSans-64"/>
      <use x="211.279297" xlink:href="#DejaVuSans-69"/>
      <use x="239.0625" xlink:href="#DejaVuSans-61"/>
      <use x="300.341797" xlink:href="#DejaVuSans-6e"/>
      <use x="363.720703" xlink:href="#DejaVuSans-20"/>
      <use x="395.507812" xlink:href="#DejaVuSans-6f"/>
      <use x="456.689453" xlink:href="#DejaVuSans-66"/>
      <use x="491.894531" xlink:href="#DejaVuSans-20"/>
      <use x="523.681641" xlink:href="#DejaVuSans-66"/>
      <use x="558.886719" xlink:href="#DejaVuSans-69"/>
      <use x="586.669922" xlink:href="#DejaVuSans-74"/>
      <use x="625.878906" xlink:href="#DejaVuSans-6e"/>
      <use x="689.257812" xlink:href="#DejaVuSans-65"/>
      <use x="750.78125" xlink:href="#DejaVuSans-73"/>
      <use x="802.880859" xlink:href="#DejaVuSans-73"/>
     </g>
    </g>
   </g>
   <g id="line2d_19">
    <path clip-path="url(#p85fe318f08)" d="M 153.756617 48.92683 
L 171.076431 50.13952 
L 181.207873 63.310354 
L 188.396245 63.310354 
L 193.97198 64.927572 
L 198.527687 78.970697 
L 202.379482 89.051811 
L 205.716059 89.051811 
L 211.291794 89.051811 
L 213.673329 89.051811 
L 215.847501 89.051811 
L 219.699296 89.051811 
L 221.423236 89.051811 
L 224.550713 100.838511 
L 227.329932 100.838511 
L 228.611608 100.838511 
L 230.993143 100.838511 
L 234.187343 100.838511 
L 237.01911 100.838511 
L 239.562376 101.87631 
L 242.594845 105.779397 
L 245.2988 105.779397 
L 245.931422 105.779397 
L 248.312957 105.779397 
L 251.507157 105.779397 
L 254.338924 107.467928 
L 257.281994 108.952785 
L 259.914659 114.991602 
L 262.936927 114.991602 
L 265.915116 119.279637 
L 268.82697 122.542426 
L 271.658738 125.492347 
L 274.402705 125.492347 
L 277.412318 136.598713 
L 280.256741 152.036507 
L 283.094156 159.284184 
L 286.021535 161.010962 
L 286.146784 161.010962 
L 288.866752 161.010962 
L 291.822269 250.423079 
L 292.702535 250.423079 
L 294.643368 258.275997 
L 297.576555 265.195336 
L 297.890864 265.195336 
L 300.41397 278.053839 
L 300.833933 278.053839 
L 302.184922 282.53715 
L 303.341349 282.53715 
L 303.466598 282.53715 
L 304.685728 287.014979 
L 306.186566 291.169941 
L 306.958859 291.885875 
L 308.022305 295.594457 
L 309.042333 295.664143 
L 309.092258 295.664143 
L 310.965375 297.082864 
L 311.963182 297.082864 
L 314.81717 297.829482 
L 315.210678 297.829482 
" style="fill:none;stroke:#1f77b4;stroke-linecap:square;stroke-width:1.5;"/>
   </g>
   <g id="line2d_20">
    <path clip-path="url(#p85fe318f08)" d="M 143.625176 38.410464 
L 160.94499 44.92918 
L 171.076431 52.240175 
L 178.264804 52.240175 
L 183.840538 52.240175 
L 188.396245 57.214997 
L 192.248041 57.214997 
L 195.584618 59.767886 
L 201.160352 63.396172 
L 203.541888 70.424267 
L 205.716059 83.289727 
L 209.567855 83.289727 
L 211.291794 83.289727 
L 214.419272 83.289727 
L 217.19849 83.289727 
L 220.861702 83.289727 
L 224.055901 83.289727 
L 226.887669 83.289727 
L 228.611608 83.289727 
L 229.430934 90.736643 
L 232.463403 90.736643 
L 235.167359 90.736643 
L 238.181516 90.736643 
L 241.375715 90.970808 
L 244.207482 91.096435 
L 245.931422 91.358482 
L 247.150552 91.358482 
L 249.783217 91.568298 
L 252.805485 91.568298 
L 255.783674 101.765043 
L 258.695529 101.765043 
L 261.527296 101.765043 
L 264.271264 101.765043 
L 267.280877 102.858285 
L 268.82697 102.858285 
L 270.125299 102.858285 
L 272.962714 107.765656 
L 275.890093 113.382715 
L 278.735311 114.738061 
L 281.690827 116.41486 
L 284.511926 120.594798 
L 286.146784 124.128766 
L 287.445113 130.072296 
L 290.282528 131.763018 
L 293.209907 136.459361 
L 296.055125 144.250356 
L 298.960816 159.033441 
L 301.83174 253.433419 
L 302.184922 253.433419 
L 303.466598 253.433419 
L 304.685728 258.482538 
L 305.848134 258.482538 
L 307.567025 270.450648 
L 309.042333 275.316274 
L 310.022349 284.649073 
L 310.46686 285.382967 
L 310.965375 295.052215 
L 311.874101 296.611131 
L 313.34691 296.611131 
L 315.210678 296.611131 
L 316.230705 296.611131 
L 316.725518 297.790056 
L 317.449835 297.790056 
L 319.107053 297.790056 
L 319.504736 299.16373 
" style="fill:none;stroke:#ff7f0e;stroke-linecap:square;stroke-width:1.5;"/>
   </g>
   <g id="line2d_21">
    <path clip-path="url(#p85fe318f08)" d="M 130.861069 35.79701 
L 148.180883 44.356633 
L 158.312324 50.747265 
L 165.500697 52.61055 
L 171.076431 52.890003 
L 175.632138 52.890003 
L 179.483934 52.890003 
L 182.820511 52.890003 
L 188.396245 52.890003 
L 190.777781 52.890003 
L 192.951952 52.890003 
L 196.803748 53.830002 
L 198.527687 54.172469 
L 201.655165 54.172469 
L 204.434383 55.127474 
L 208.097595 58.59896 
L 211.291794 63.898075 
L 214.123562 63.898075 
L 216.666827 63.898075 
L 219.699296 63.898075 
L 222.403252 63.898075 
L 225.417409 65.458934 
L 228.611608 65.458934 
L 231.443376 70.108615 
L 234.386445 70.108615 
L 237.01911 72.003177 
L 240.041378 74.663652 
L 243.019567 75.251954 
L 245.931422 79.855974 
L 248.763189 79.855974 
L 251.507157 89.003587 
L 254.51677 89.405558 
L 257.361192 93.826219 
L 260.198607 93.826219 
L 263.125986 93.826219 
L 265.971204 93.826219 
L 268.82697 96.914624 
L 268.92672 96.914624 
L 271.747819 97.195355 
L 274.681006 97.972462 
L 277.518421 98.569353 
L 280.4458 108.210214 
L 283.291018 109.390666 
L 286.146784 114.033634 
L 286.196709 114.033634 
L 289.067633 117.609603 
L 291.921621 117.609603 
L 294.802918 121.058812 
L 297.702753 124.837724 
L 300.582803 129.536216 
L 303.466598 135.677684 
L 306.342946 144.049976 
L 309.201742 257.988699 
L 312.087364 261.487655 
L 312.750935 261.487655 
L 313.59804 261.487655 
L 314.417366 267.362504 
L 314.959548 283.872104 
L 315.210678 283.872104 
L 315.979575 285.363937 
L 317.846466 288.277994 
L 318.153747 289.965478 
L 318.838371 295.566054 
L 319.504736 296.248395 
L 320.723866 296.248395 
L 323.167948 296.741004 
L 323.59586 296.741004 
L 323.729482 296.741004 
" style="fill:none;stroke:#2ca02c;stroke-linecap:square;stroke-width:1.5;"/>
   </g>
   <g id="line2d_22">
    <path clip-path="url(#p85fe318f08)" d="M 113.541255 28.192272 
L 130.861069 31.883662 
L 140.99251 32.883344 
L 148.180883 32.995786 
L 153.756617 34.31101 
L 158.312324 35.103792 
L 162.16412 35.103792 
L 165.500697 35.103792 
L 171.076431 39.25325 
L 173.457967 39.25325 
L 175.632138 39.25325 
L 179.483934 39.487853 
L 181.207873 39.487853 
L 184.335351 39.630494 
L 187.114569 39.630494 
L 188.396245 40.122519 
L 190.777781 40.246025 
L 193.97198 42.145714 
L 196.803748 42.145714 
L 199.347013 42.145714 
L 202.379482 42.145714 
L 205.083438 42.432966 
L 208.097595 42.432966 
L 211.291794 44.745243 
L 214.123562 46.028276 
L 217.066631 46.028276 
L 219.699296 49.822069 
L 222.721565 49.822069 
L 225.699753 49.822069 
L 228.611608 49.822069 
L 231.443376 53.488701 
L 234.187343 54.556198 
L 237.196956 54.785937 
L 240.041378 58.038774 
L 242.878794 61.366085 
L 245.806172 61.587331 
L 245.931422 61.587331 
L 248.65139 63.789807 
L 251.606906 64.908657 
L 254.428005 69.056493 
L 257.361192 69.251039 
L 260.198607 73.474238 
L 263.125986 75.16925 
L 265.971204 76.62366 
L 268.82697 76.785843 
L 268.876895 76.785843 
L 271.747819 76.785843 
L 274.601808 80.642633 
L 277.483104 81.766323 
L 280.382939 82.402511 
L 283.262989 83.478716 
L 286.146784 86.157056 
L 289.023132 87.964239 
L 291.881928 88.513464 
L 294.76755 92.129722 
L 297.639734 96.241122 
L 300.526652 98.113282 
L 303.404052 100.81526 
L 303.466598 100.902057 
L 306.276046 104.403093 
L 309.152036 106.010885 
L 312.034219 114.844535 
L 314.912179 120.294307 
L 317.790189 126.151968 
L 320.66744 132.978287 
L 323.539973 140.772824 
L 323.729482 140.772824 
L 324.278673 140.772824 
L 326.362147 256.667642 
L 326.417058 256.667642 
L 326.856959 256.667642 
L 329.193915 256.667642 
L 329.29633 276.355642 
L 330.070749 279.225593 
L 330.497891 286.663287 
L 330.917854 291.168167 
L 331.330875 291.516025 
L 332.136984 292.23608 
L 332.172655 292.23608 
L 333.299389 293.113615 
L 333.675144 293.113615 
L 334.045332 296.521486 
L 334.410115 296.521486 
L 335.050068 296.521486 
L 336.493589 296.926592 
" style="fill:none;stroke:#d62728;stroke-linecap:square;stroke-width:1.5;"/>
   </g>
   <g id="line2d_23">
    <path clip-path="url(#p85fe318f08)" d="M 96.221441 19.553917 
L 113.541255 22.185496 
L 123.672697 22.781615 
L 130.861069 23.954598 
L 136.436803 25.089039 
L 140.99251 25.089039 
L 144.844306 25.089039 
L 148.180883 25.639083 
L 153.756617 25.639083 
L 156.138153 25.836845 
L 158.312324 26.056839 
L 162.16412 27.243243 
L 163.888059 27.243243 
L 167.015537 27.437621 
L 169.794755 30.001351 
L 171.076431 30.001351 
L 173.457967 30.155989 
L 176.652166 30.155989 
L 179.483934 30.155989 
L 182.027199 30.155989 
L 185.059668 30.843032 
L 187.763624 30.843032 
L 188.396245 30.843032 
L 190.777781 30.843032 
L 193.97198 30.843032 
L 196.803748 30.843032 
L 199.746817 31.478617 
L 202.379482 31.478617 
L 205.401751 31.478617 
L 208.379939 31.478617 
L 211.291794 31.478617 
L 214.123562 31.758552 
L 216.867529 31.758552 
L 219.877142 33.503329 
L 222.721565 33.503329 
L 225.55898 33.89057 
L 228.486358 35.812459 
L 228.611608 35.812459 
L 231.331576 35.821939 
L 234.287092 35.821939 
L 237.108191 35.904234 
L 240.041378 37.445249 
L 242.878794 37.675345 
L 245.806172 38.180002 
L 245.931422 38.180002 
L 248.65139 38.781378 
L 251.557081 39.649867 
L 254.428005 40.983779 
L 257.281994 42.260985 
L 260.16329 42.822601 
L 263.063125 45.396272 
L 265.943175 48.180337 
L 268.82697 52.454262 
L 271.703318 52.454262 
L 274.562114 54.123128 
L 277.447736 54.778852 
L 280.31992 57.025673 
L 283.206838 58.737777 
L 286.084238 61.691629 
L 286.146784 61.691629 
L 288.956232 62.131032 
L 291.832222 64.878183 
L 294.714405 67.798474 
L 297.592365 70.174891 
L 300.470375 70.486892 
L 303.347626 73.534134 
L 303.466598 73.534134 
L 306.220159 75.31826 
L 309.097245 77.951194 
L 311.976517 79.81806 
L 314.852841 83.403858 
L 317.730254 85.960462 
L 320.607741 87.063963 
L 323.48396 90.571789 
L 326.362147 93.816562 
L 329.238495 97.196658 
L 332.11516 99.080328 
L 334.991759 106.190444 
L 337.867713 114.291871 
L 340.744825 123.838226 
L 341.049296 123.838226 
L 343.62192 132.160808 
L 343.681961 132.160808 
L 346.499223 137.466014 
L 347.174222 137.466014 
L 348.650689 137.466014 
L 348.854667 137.466014 
L 349.375358 264.243041 
L 350.044759 264.243041 
L 350.807787 273.473977 
L 351.548203 273.473977 
L 351.729929 290.689943 
L 352.252241 290.689943 
L 354.144364 294.101061 
L 355.129122 294.101061 
L 356.04304 295.367176 
L 358.006255 295.367176 
L 360.882803 295.367176 
L 361.001775 295.367176 
L 363.759811 295.367176 
L 366.63641 295.367176 
L 369.140113 295.367176 
L 369.513471 295.367176 
L 372.389997 295.367176 
L 375.266843 295.367176 
L 378.133478 295.367176 
L 378.143547 295.367176 
L 378.755083 300.232262 
L 381.020538 300.232262 
L 383.897324 300.232262 
L 386.773894 300.232262 
L 386.818172 300.232262 
L 389.650734 300.232262 
L 392.527467 300.232262 
L 395.404309 300.232262 
L 398.136259 300.232262 
" style="fill:none;stroke:#9467bd;stroke-linecap:square;stroke-width:1.5;"/>
   </g>
   <g id="patch_3">
    <path d="M 81.1257 289.912 
L 81.1257 5.52 
" style="fill:none;stroke:#000000;stroke-linecap:square;stroke-linejoin:miter;stroke-width:0.8;"/>
   </g>
   <g id="patch_4">
    <path d="M 413.232 289.912 
L 413.232 5.52 
" style="fill:none;stroke:#000000;stroke-linecap:square;stroke-linejoin:miter;stroke-width:0.8;"/>
   </g>
   <g id="patch_5">
    <path d="M 81.1257 289.912 
L 413.232 289.912 
" style="fill:none;stroke:#000000;stroke-linecap:square;stroke-linejoin:miter;stroke-width:0.8;"/>
   </g>
   <g id="patch_6">
    <path d="M 81.1257 5.52 
L 413.232 5.52 
" style="fill:none;stroke:#000000;stroke-linecap:square;stroke-linejoin:miter;stroke-width:0.8;"/>
   </g>
   <g id="text_12">
    <!-- bbob - f7 -->
    <defs>
     <path d="M 4.890625 31.390625 
L 31.203125 31.390625 
L 31.203125 23.390625 
L 4.890625 23.390625 
z
" id="DejaVuSans-2d"/>
     <path d="M 8.203125 72.90625 
L 55.078125 72.90625 
L 55.078125 68.703125 
L 28.609375 0 
L 18.3125 0 
L 43.21875 64.59375 
L 8.203125 64.59375 
z
" id="DejaVuSans-37"/>
    </defs>
    <g transform="translate(84.446763 26.404715)scale(0.2 -0.2)">
     <use xlink:href="#DejaVuSans-62"/>
     <use x="63.476562" xlink:href="#DejaVuSans-62"/>
     <use x="126.953125" xlink:href="#DejaVuSans-6f"/>
     <use x="188.134766" xlink:href="#DejaVuSans-62"/>
     <use x="251.611328" xlink:href="#DejaVuSans-20"/>
     <use x="283.398438" xlink:href="#DejaVuSans-2d"/>
     <use x="319.482422" xlink:href="#DejaVuSans-20"/>
     <use x="351.269531" xlink:href="#DejaVuSans-66"/>
     <use x="386.474609" xlink:href="#DejaVuSans-37"/>
    </g>
    <!-- 15 instances -->
    <defs>
     <path d="M 10.796875 72.90625 
L 49.515625 72.90625 
L 49.515625 64.59375 
L 19.828125 64.59375 
L 19.828125 46.734375 
Q 21.96875 47.46875 24.109375 47.828125 
Q 26.265625 48.1875 28.421875 48.1875 
Q 40.625 48.1875 47.75 41.5 
Q 54.890625 34.8125 54.890625 23.390625 
Q 54.890625 11.625 47.5625 5.09375 
Q 40.234375 -1.421875 26.90625 -1.421875 
Q 22.3125 -1.421875 17.546875 -0.640625 
Q 12.796875 0.140625 7.71875 1.703125 
L 7.71875 11.625 
Q 12.109375 9.234375 16.796875 8.0625 
Q 21.484375 6.890625 26.703125 6.890625 
Q 35.15625 6.890625 40.078125 11.328125 
Q 45.015625 15.765625 45.015625 23.390625 
Q 45.015625 31 40.078125 35.4375 
Q 35.15625 39.890625 26.703125 39.890625 
Q 22.75 39.890625 18.8125 39.015625 
Q 14.890625 38.140625 10.796875 36.28125 
z
" id="DejaVuSans-35"/>
    </defs>
    <g transform="translate(84.446763 48.80034)scale(0.2 -0.2)">
     <use xlink:href="#DejaVuSans-31"/>
     <use x="63.623047" xlink:href="#DejaVuSans-35"/>
     <use x="127.246094" xlink:href="#DejaVuSans-20"/>
     <use x="159.033203" xlink:href="#DejaVuSans-69"/>
     <use x="186.816406" xlink:href="#DejaVuSans-6e"/>
     <use x="250.195312" xlink:href="#DejaVuSans-73"/>
     <use x="302.294922" xlink:href="#DejaVuSans-74"/>
     <use x="341.503906" xlink:href="#DejaVuSans-61"/>
     <use x="402.783203" xlink:href="#DejaVuSans-6e"/>
     <use x="466.162109" xlink:href="#DejaVuSans-63"/>
     <use x="521.142578" xlink:href="#DejaVuSans-65"/>
     <use x="582.666016" xlink:href="#DejaVuSans-73"/>
    </g>
   </g>
   <g id="text_13">
    <!-- v2.4 -->
    <defs>
     <path d="M 10.6875 12.40625 
L 21 12.40625 
L 21 0 
L 10.6875 0 
z
" id="DejaVuSans-2e"/>
    </defs>
    <g style="fill:#808080;" transform="translate(236.267912 284.988393)scale(0.1 -0.1)">
     <use xlink:href="#DejaVuSans-76"/>
     <use x="59.179688" xlink:href="#DejaVuSans-32"/>
     <use x="122.802734" xlink:href="#DejaVuSans-2e"/>
     <use x="154.589844" xlink:href="#DejaVuSans-34"/>
    </g>
   </g>
   <g id="legend_1">
    <g id="patch_7">
     <path d="M 95.1257 279.912 
L 199.9757 279.912 
Q 203.9757 279.912 203.9757 275.912 
L 203.9757 131.13075 
Q 203.9757 127.13075 199.9757 127.13075 
L 95.1257 127.13075 
Q 91.1257 127.13075 91.1257 131.13075 
L 91.1257 275.912 
Q 91.1257 279.912 95.1257 279.912 
z
" style="fill:#ffffff;opacity:0.2;stroke:#cccccc;stroke-linejoin:miter;"/>
    </g>
    <g id="line2d_24">
     <path d="M 99.1257 143.327625 
L 139.1257 143.327625 
" style="fill:none;stroke:#1f77b4;stroke-linecap:square;stroke-width:1.5;"/>
    </g>
    <g id="line2d_25"/>
    <g id="text_14">
     <!-- 2D -->
     <defs>
      <path d="M 19.671875 64.796875 
L 19.671875 8.109375 
L 31.59375 8.109375 
Q 46.6875 8.109375 53.6875 14.9375 
Q 60.6875 21.78125 60.6875 36.53125 
Q 60.6875 51.171875 53.6875 57.984375 
Q 46.6875 64.796875 31.59375 64.796875 
z
M 9.8125 72.90625 
L 30.078125 72.90625 
Q 51.265625 72.90625 61.171875 64.09375 
Q 71.09375 55.28125 71.09375 36.53125 
Q 71.09375 17.671875 61.125 8.828125 
Q 51.171875 0 30.078125 0 
L 9.8125 0 
z
" id="DejaVuSans-44"/>
     </defs>
     <g transform="translate(155.1257 150.327625)scale(0.2 -0.2)">
      <use xlink:href="#DejaVuSans-32"/>
      <use x="63.623047" xlink:href="#DejaVuSans-44"/>
     </g>
    </g>
    <g id="line2d_26">
     <path d="M 99.1257 172.683875 
L 139.1257 172.683875 
" style="fill:none;stroke:#ff7f0e;stroke-linecap:square;stroke-width:1.5;"/>
    </g>
    <g id="line2d_27"/>
    <g id="text_15">
     <!-- 3D -->
     <defs>
      <path d="M 40.578125 39.3125 
Q 47.65625 37.796875 51.625 33 
Q 55.609375 28.21875 55.609375 21.1875 
Q 55.609375 10.40625 48.1875 4.484375 
Q 40.765625 -1.421875 27.09375 -1.421875 
Q 22.515625 -1.421875 17.65625 -0.515625 
Q 12.796875 0.390625 7.625 2.203125 
L 7.625 11.71875 
Q 11.71875 9.328125 16.59375 8.109375 
Q 21.484375 6.890625 26.8125 6.890625 
Q 36.078125 6.890625 40.9375 10.546875 
Q 45.796875 14.203125 45.796875 21.1875 
Q 45.796875 27.640625 41.28125 31.265625 
Q 36.765625 34.90625 28.71875 34.90625 
L 20.21875 34.90625 
L 20.21875 43.015625 
L 29.109375 43.015625 
Q 36.375 43.015625 40.234375 45.921875 
Q 44.09375 48.828125 44.09375 54.296875 
Q 44.09375 59.90625 40.109375 62.90625 
Q 36.140625 65.921875 28.71875 65.921875 
Q 24.65625 65.921875 20.015625 65.03125 
Q 15.375 64.15625 9.8125 62.3125 
L 9.8125 71.09375 
Q 15.4375 72.65625 20.34375 73.4375 
Q 25.25 74.21875 29.59375 74.21875 
Q 40.828125 74.21875 47.359375 69.109375 
Q 53.90625 64.015625 53.90625 55.328125 
Q 53.90625 49.265625 50.4375 45.09375 
Q 46.96875 40.921875 40.578125 39.3125 
z
" id="DejaVuSans-33"/>
     </defs>
     <g transform="translate(155.1257 179.683875)scale(0.2 -0.2)">
      <use xlink:href="#DejaVuSans-33"/>
      <use x="63.623047" xlink:href="#DejaVuSans-44"/>
     </g>
    </g>
    <g id="line2d_28">
     <path d="M 99.1257 202.040125 
L 139.1257 202.040125 
" style="fill:none;stroke:#2ca02c;stroke-linecap:square;stroke-width:1.5;"/>
    </g>
    <g id="line2d_29"/>
    <g id="text_16">
     <!-- 5D -->
     <g transform="translate(155.1257 209.040125)scale(0.2 -0.2)">
      <use xlink:href="#DejaVuSans-35"/>
      <use x="63.623047" xlink:href="#DejaVuSans-44"/>
     </g>
    </g>
    <g id="line2d_30">
     <path d="M 99.1257 231.396375 
L 139.1257 231.396375 
" style="fill:none;stroke:#d62728;stroke-linecap:square;stroke-width:1.5;"/>
    </g>
    <g id="line2d_31"/>
    <g id="text_17">
     <!-- 10D -->
     <g transform="translate(155.1257 238.396375)scale(0.2 -0.2)">
      <use xlink:href="#DejaVuSans-31"/>
      <use x="63.623047" xlink:href="#DejaVuSans-30"/>
      <use x="127.246094" xlink:href="#DejaVuSans-44"/>
     </g>
    </g>
    <g id="line2d_32">
     <path d="M 99.1257 260.752625 
L 139.1257 260.752625 
" style="fill:none;stroke:#9467bd;stroke-linecap:square;stroke-width:1.5;"/>
    </g>
    <g id="line2d_33"/>
    <g id="text_18">
     <!-- 20D -->
     <g transform="translate(155.1257 267.752625)scale(0.2 -0.2)">
      <use xlink:href="#DejaVuSans-32"/>
      <use x="63.623047" xlink:href="#DejaVuSans-30"/>
      <use x="127.246094" xlink:href="#DejaVuSans-44"/>
     </g>
    </g>
   </g>
  </g>
 </g>
 <defs>
  <clipPath id="p85fe318f08">
   <rect height="284.392" width="332.1063" x="81.1257" y="5.52"/>
  </clipPath>
 </defs>
</svg>
