<?xml version="1.0" encoding="utf-8" standalone="no"?>
<!DOCTYPE svg PUBLIC "-//W3C//DTD SVG 1.1//EN"
  "http://www.w3.org/Graphics/SVG/1.1/DTD/svg11.dtd">
<!-- Created with matplotlib (http://matplotlib.org/) -->
<svg height="345.6pt" version="1.1" viewBox="0 0 460.8 345.6" width="460.8pt" xmlns="http://www.w3.org/2000/svg" xmlns:xlink="http://www.w3.org/1999/xlink">
 <defs>
  <style type="text/css">
*{stroke-linecap:butt;stroke-linejoin:round;}
  </style>
 </defs>
 <g id="figure_1">
  <g id="patch_1">
   <path d="M 0 345.6 
L 460.8 345.6 
L 460.8 0 
L 0 0 
z
" style="fill:#ffffff;"/>
  </g>
  <g id="axes_1">
   <g id="patch_2">
    <path d="M 81.1257 289.912 
L 413.232 289.912 
L 413.232 9.23688 
L 81.1257 9.23688 
z
" style="fill:#ffffff;"/>
   </g>
   <g id="matplotlib.axis_1">
    <g id="xtick_1">
     <g id="line2d_1">
      <path clip-path="url(#pa14c6b6275)" d="M 150.022101 289.912 
L 150.022101 9.23688 
" style="fill:none;stroke:#b0b0b0;stroke-linecap:square;stroke-width:0.8;"/>
     </g>
     <g id="line2d_2">
      <defs>
       <path d="M 0 0 
L 0 3.5 
" id="ma9bafcc447" style="stroke:#000000;stroke-width:0.8;"/>
      </defs>
      <g>
       <use style="stroke:#000000;stroke-width:0.8;" x="150.022101" xlink:href="#ma9bafcc447" y="289.912"/>
      </g>
     </g>
     <g id="text_1">
      <!-- $\mathdefault{10^{0}}$ -->
      <defs>
       <path d="M 12.40625 8.296875 
L 28.515625 8.296875 
L 28.515625 63.921875 
L 10.984375 60.40625 
L 10.984375 69.390625 
L 28.421875 72.90625 
L 38.28125 72.90625 
L 38.28125 8.296875 
L 54.390625 8.296875 
L 54.390625 0 
L 12.40625 0 
z
" id="DejaVuSans-31"/>
       <path d="M 31.78125 66.40625 
Q 24.171875 66.40625 20.328125 58.90625 
Q 16.5 51.421875 16.5 36.375 
Q 16.5 21.390625 20.328125 13.890625 
Q 24.171875 6.390625 31.78125 6.390625 
Q 39.453125 6.390625 43.28125 13.890625 
Q 47.125 21.390625 47.125 36.375 
Q 47.125 51.421875 43.28125 58.90625 
Q 39.453125 66.40625 31.78125 66.40625 
z
M 31.78125 74.21875 
Q 44.046875 74.21875 50.515625 64.515625 
Q 56.984375 54.828125 56.984375 36.375 
Q 56.984375 17.96875 50.515625 8.265625 
Q 44.046875 -1.421875 31.78125 -1.421875 
Q 19.53125 -1.421875 13.0625 8.265625 
Q 6.59375 17.96875 6.59375 36.375 
Q 6.59375 54.828125 13.0625 64.515625 
Q 19.53125 74.21875 31.78125 74.21875 
z
" id="DejaVuSans-30"/>
      </defs>
      <g transform="translate(132.422101 312.108875)scale(0.2 -0.2)">
       <use transform="translate(0 0.765625)" xlink:href="#DejaVuSans-31"/>
       <use transform="translate(63.623047 0.765625)" xlink:href="#DejaVuSans-30"/>
       <use transform="translate(128.203125 39.046875)scale(0.7)" xlink:href="#DejaVuSans-30"/>
      </g>
     </g>
    </g>
    <g id="xtick_2">
     <g id="line2d_3">
      <path clip-path="url(#pa14c6b6275)" d="M 232.72682 289.912 
L 232.72682 9.23688 
" style="fill:none;stroke:#b0b0b0;stroke-linecap:square;stroke-width:0.8;"/>
     </g>
     <g id="line2d_4">
      <g>
       <use style="stroke:#000000;stroke-width:0.8;" x="232.72682" xlink:href="#ma9bafcc447" y="289.912"/>
      </g>
     </g>
     <g id="text_2">
      <!-- $\mathdefault{10^{2}}$ -->
      <defs>
       <path d="M 19.1875 8.296875 
L 53.609375 8.296875 
L 53.609375 0 
L 7.328125 0 
L 7.328125 8.296875 
Q 12.9375 14.109375 22.625 23.890625 
Q 32.328125 33.6875 34.8125 36.53125 
Q 39.546875 41.84375 41.421875 45.53125 
Q 43.3125 49.21875 43.3125 52.78125 
Q 43.3125 58.59375 39.234375 62.25 
Q 35.15625 65.921875 28.609375 65.921875 
Q 23.96875 65.921875 18.8125 64.3125 
Q 13.671875 62.703125 7.8125 59.421875 
L 7.8125 69.390625 
Q 13.765625 71.78125 18.9375 73 
Q 24.125 74.21875 28.421875 74.21875 
Q 39.75 74.21875 46.484375 68.546875 
Q 53.21875 62.890625 53.21875 53.421875 
Q 53.21875 48.921875 51.53125 44.890625 
Q 49.859375 40.875 45.40625 35.40625 
Q 44.1875 33.984375 37.640625 27.21875 
Q 31.109375 20.453125 19.1875 8.296875 
z
" id="DejaVuSans-32"/>
      </defs>
      <g transform="translate(215.12682 312.108875)scale(0.2 -0.2)">
       <use transform="translate(0 0.765625)" xlink:href="#DejaVuSans-31"/>
       <use transform="translate(63.623047 0.765625)" xlink:href="#DejaVuSans-30"/>
       <use transform="translate(128.203125 39.046875)scale(0.7)" xlink:href="#DejaVuSans-32"/>
      </g>
     </g>
    </g>
    <g id="xtick_3">
     <g id="line2d_5">
      <path clip-path="url(#pa14c6b6275)" d="M 315.43154 289.912 
L 315.43154 9.23688 
" style="fill:none;stroke:#b0b0b0;stroke-linecap:square;stroke-width:0.8;"/>
     </g>
     <g id="line2d_6">
      <g>
       <use style="stroke:#000000;stroke-width:0.8;" x="315.43154" xlink:href="#ma9bafcc447" y="289.912"/>
      </g>
     </g>
     <g id="text_3">
      <!-- $\mathdefault{10^{4}}$ -->
      <defs>
       <path d="M 37.796875 64.3125 
L 12.890625 25.390625 
L 37.796875 25.390625 
z
M 35.203125 72.90625 
L 47.609375 72.90625 
L 47.609375 25.390625 
L 58.015625 25.390625 
L 58.015625 17.1875 
L 47.609375 17.1875 
L 47.609375 0 
L 37.796875 0 
L 37.796875 17.1875 
L 4.890625 17.1875 
L 4.890625 26.703125 
z
" id="DejaVuSans-34"/>
      </defs>
      <g transform="translate(297.83154 312.108875)scale(0.2 -0.2)">
       <use transform="translate(0 0.684375)" xlink:href="#DejaVuSans-31"/>
       <use transform="translate(63.623047 0.684375)" xlink:href="#DejaVuSans-30"/>
       <use transform="translate(128.203125 38.965625)scale(0.7)" xlink:href="#DejaVuSans-34"/>
      </g>
     </g>
    </g>
    <g id="xtick_4">
     <g id="line2d_7">
      <path clip-path="url(#pa14c6b6275)" d="M 398.136259 289.912 
L 398.136259 9.23688 
" style="fill:none;stroke:#b0b0b0;stroke-linecap:square;stroke-width:0.8;"/>
     </g>
     <g id="line2d_8">
      <g>
       <use style="stroke:#000000;stroke-width:0.8;" x="398.136259" xlink:href="#ma9bafcc447" y="289.912"/>
      </g>
     </g>
     <g id="text_4">
      <!-- $\mathdefault{10^{6}}$ -->
      <defs>
       <path d="M 33.015625 40.375 
Q 26.375 40.375 22.484375 35.828125 
Q 18.609375 31.296875 18.609375 23.390625 
Q 18.609375 15.53125 22.484375 10.953125 
Q 26.375 6.390625 33.015625 6.390625 
Q 39.65625 6.390625 43.53125 10.953125 
Q 47.40625 15.53125 47.40625 23.390625 
Q 47.40625 31.296875 43.53125 35.828125 
Q 39.65625 40.375 33.015625 40.375 
z
M 52.59375 71.296875 
L 52.59375 62.3125 
Q 48.875 64.0625 45.09375 64.984375 
Q 41.3125 65.921875 37.59375 65.921875 
Q 27.828125 65.921875 22.671875 59.328125 
Q 17.53125 52.734375 16.796875 39.40625 
Q 19.671875 43.65625 24.015625 45.921875 
Q 28.375 48.1875 33.59375 48.1875 
Q 44.578125 48.1875 50.953125 41.515625 
Q 57.328125 34.859375 57.328125 23.390625 
Q 57.328125 12.15625 50.6875 5.359375 
Q 44.046875 -1.421875 33.015625 -1.421875 
Q 20.359375 -1.421875 13.671875 8.265625 
Q 6.984375 17.96875 6.984375 36.375 
Q 6.984375 53.65625 15.1875 63.9375 
Q 23.390625 74.21875 37.203125 74.21875 
Q 40.921875 74.21875 44.703125 73.484375 
Q 48.484375 72.75 52.59375 71.296875 
z
" id="DejaVuSans-36"/>
      </defs>
      <g transform="translate(380.536259 312.108875)scale(0.2 -0.2)">
       <use transform="translate(0 0.765625)" xlink:href="#DejaVuSans-31"/>
       <use transform="translate(63.623047 0.765625)" xlink:href="#DejaVuSans-30"/>
       <use transform="translate(128.203125 39.046875)scale(0.7)" xlink:href="#DejaVuSans-36"/>
      </g>
     </g>
    </g>
    <g id="text_5">
     <!-- number of function evaluations / dimension -->
     <defs>
      <path d="M 54.890625 33.015625 
L 54.890625 0 
L 45.90625 0 
L 45.90625 32.71875 
Q 45.90625 40.484375 42.875 44.328125 
Q 39.84375 48.1875 33.796875 48.1875 
Q 26.515625 48.1875 22.3125 43.546875 
Q 18.109375 38.921875 18.109375 30.90625 
L 18.109375 0 
L 9.078125 0 
L 9.078125 54.6875 
L 18.109375 54.6875 
L 18.109375 46.1875 
Q 21.34375 51.125 25.703125 53.5625 
Q 30.078125 56 35.796875 56 
Q 45.21875 56 50.046875 50.171875 
Q 54.890625 44.34375 54.890625 33.015625 
z
" id="DejaVuSans-6e"/>
      <path d="M 8.5 21.578125 
L 8.5 54.6875 
L 17.484375 54.6875 
L 17.484375 21.921875 
Q 17.484375 14.15625 20.5 10.265625 
Q 23.53125 6.390625 29.59375 6.390625 
Q 36.859375 6.390625 41.078125 11.03125 
Q 45.3125 15.671875 45.3125 23.6875 
L 45.3125 54.6875 
L 54.296875 54.6875 
L 54.296875 0 
L 45.3125 0 
L 45.3125 8.40625 
Q 42.046875 3.421875 37.71875 1 
Q 33.40625 -1.421875 27.6875 -1.421875 
Q 18.265625 -1.421875 13.375 4.4375 
Q 8.5 10.296875 8.5 21.578125 
z
M 31.109375 56 
z
" id="DejaVuSans-75"/>
      <path d="M 52 44.1875 
Q 55.375 50.25 60.0625 53.125 
Q 64.75 56 71.09375 56 
Q 79.640625 56 84.28125 50.015625 
Q 88.921875 44.046875 88.921875 33.015625 
L 88.921875 0 
L 79.890625 0 
L 79.890625 32.71875 
Q 79.890625 40.578125 77.09375 44.375 
Q 74.3125 48.1875 68.609375 48.1875 
Q 61.625 48.1875 57.5625 43.546875 
Q 53.515625 38.921875 53.515625 30.90625 
L 53.515625 0 
L 44.484375 0 
L 44.484375 32.71875 
Q 44.484375 40.625 41.703125 44.40625 
Q 38.921875 48.1875 33.109375 48.1875 
Q 26.21875 48.1875 22.15625 43.53125 
Q 18.109375 38.875 18.109375 30.90625 
L 18.109375 0 
L 9.078125 0 
L 9.078125 54.6875 
L 18.109375 54.6875 
L 18.109375 46.1875 
Q 21.1875 51.21875 25.484375 53.609375 
Q 29.78125 56 35.6875 56 
Q 41.65625 56 45.828125 52.96875 
Q 50 49.953125 52 44.1875 
z
" id="DejaVuSans-6d"/>
      <path d="M 48.6875 27.296875 
Q 48.6875 37.203125 44.609375 42.84375 
Q 40.53125 48.484375 33.40625 48.484375 
Q 26.265625 48.484375 22.1875 42.84375 
Q 18.109375 37.203125 18.109375 27.296875 
Q 18.109375 17.390625 22.1875 11.75 
Q 26.265625 6.109375 33.40625 6.109375 
Q 40.53125 6.109375 44.609375 11.75 
Q 48.6875 17.390625 48.6875 27.296875 
z
M 18.109375 46.390625 
Q 20.953125 51.265625 25.265625 53.625 
Q 29.59375 56 35.59375 56 
Q 45.5625 56 51.78125 48.09375 
Q 58.015625 40.1875 58.015625 27.296875 
Q 58.015625 14.40625 51.78125 6.484375 
Q 45.5625 -1.421875 35.59375 -1.421875 
Q 29.59375 -1.421875 25.265625 0.953125 
Q 20.953125 3.328125 18.109375 8.203125 
L 18.109375 0 
L 9.078125 0 
L 9.078125 75.984375 
L 18.109375 75.984375 
z
" id="DejaVuSans-62"/>
      <path d="M 56.203125 29.59375 
L 56.203125 25.203125 
L 14.890625 25.203125 
Q 15.484375 15.921875 20.484375 11.0625 
Q 25.484375 6.203125 34.421875 6.203125 
Q 39.59375 6.203125 44.453125 7.46875 
Q 49.3125 8.734375 54.109375 11.28125 
L 54.109375 2.78125 
Q 49.265625 0.734375 44.1875 -0.34375 
Q 39.109375 -1.421875 33.890625 -1.421875 
Q 20.796875 -1.421875 13.15625 6.1875 
Q 5.515625 13.8125 5.515625 26.8125 
Q 5.515625 40.234375 12.765625 48.109375 
Q 20.015625 56 32.328125 56 
Q 43.359375 56 49.78125 48.890625 
Q 56.203125 41.796875 56.203125 29.59375 
z
M 47.21875 32.234375 
Q 47.125 39.59375 43.09375 43.984375 
Q 39.0625 48.390625 32.421875 48.390625 
Q 24.90625 48.390625 20.390625 44.140625 
Q 15.875 39.890625 15.1875 32.171875 
z
" id="DejaVuSans-65"/>
      <path d="M 41.109375 46.296875 
Q 39.59375 47.171875 37.8125 47.578125 
Q 36.03125 48 33.890625 48 
Q 26.265625 48 22.1875 43.046875 
Q 18.109375 38.09375 18.109375 28.8125 
L 18.109375 0 
L 9.078125 0 
L 9.078125 54.6875 
L 18.109375 54.6875 
L 18.109375 46.1875 
Q 20.953125 51.171875 25.484375 53.578125 
Q 30.03125 56 36.53125 56 
Q 37.453125 56 38.578125 55.875 
Q 39.703125 55.765625 41.0625 55.515625 
z
" id="DejaVuSans-72"/>
      <path id="DejaVuSans-20"/>
      <path d="M 30.609375 48.390625 
Q 23.390625 48.390625 19.1875 42.75 
Q 14.984375 37.109375 14.984375 27.296875 
Q 14.984375 17.484375 19.15625 11.84375 
Q 23.34375 6.203125 30.609375 6.203125 
Q 37.796875 6.203125 41.984375 11.859375 
Q 46.1875 17.53125 46.1875 27.296875 
Q 46.1875 37.015625 41.984375 42.703125 
Q 37.796875 48.390625 30.609375 48.390625 
z
M 30.609375 56 
Q 42.328125 56 49.015625 48.375 
Q 55.71875 40.765625 55.71875 27.296875 
Q 55.71875 13.875 49.015625 6.21875 
Q 42.328125 -1.421875 30.609375 -1.421875 
Q 18.84375 -1.421875 12.171875 6.21875 
Q 5.515625 13.875 5.515625 27.296875 
Q 5.515625 40.765625 12.171875 48.375 
Q 18.84375 56 30.609375 56 
z
" id="DejaVuSans-6f"/>
      <path d="M 37.109375 75.984375 
L 37.109375 68.5 
L 28.515625 68.5 
Q 23.6875 68.5 21.796875 66.546875 
Q 19.921875 64.59375 19.921875 59.515625 
L 19.921875 54.6875 
L 34.71875 54.6875 
L 34.71875 47.703125 
L 19.921875 47.703125 
L 19.921875 0 
L 10.890625 0 
L 10.890625 47.703125 
L 2.296875 47.703125 
L 2.296875 54.6875 
L 10.890625 54.6875 
L 10.890625 58.5 
Q 10.890625 67.625 15.140625 71.796875 
Q 19.390625 75.984375 28.609375 75.984375 
z
" id="DejaVuSans-66"/>
      <path d="M 48.78125 52.59375 
L 48.78125 44.1875 
Q 44.96875 46.296875 41.140625 47.34375 
Q 37.3125 48.390625 33.40625 48.390625 
Q 24.65625 48.390625 19.8125 42.84375 
Q 14.984375 37.3125 14.984375 27.296875 
Q 14.984375 17.28125 19.8125 11.734375 
Q 24.65625 6.203125 33.40625 6.203125 
Q 37.3125 6.203125 41.140625 7.25 
Q 44.96875 8.296875 48.78125 10.40625 
L 48.78125 2.09375 
Q 45.015625 0.34375 40.984375 -0.53125 
Q 36.96875 -1.421875 32.421875 -1.421875 
Q 20.0625 -1.421875 12.78125 6.34375 
Q 5.515625 14.109375 5.515625 27.296875 
Q 5.515625 40.671875 12.859375 48.328125 
Q 20.21875 56 33.015625 56 
Q 37.15625 56 41.109375 55.140625 
Q 45.0625 54.296875 48.78125 52.59375 
z
" id="DejaVuSans-63"/>
      <path d="M 18.3125 70.21875 
L 18.3125 54.6875 
L 36.8125 54.6875 
L 36.8125 47.703125 
L 18.3125 47.703125 
L 18.3125 18.015625 
Q 18.3125 11.328125 20.140625 9.421875 
Q 21.96875 7.515625 27.59375 7.515625 
L 36.8125 7.515625 
L 36.8125 0 
L 27.59375 0 
Q 17.1875 0 13.234375 3.875 
Q 9.28125 7.765625 9.28125 18.015625 
L 9.28125 47.703125 
L 2.6875 47.703125 
L 2.6875 54.6875 
L 9.28125 54.6875 
L 9.28125 70.21875 
z
" id="DejaVuSans-74"/>
      <path d="M 9.421875 54.6875 
L 18.40625 54.6875 
L 18.40625 0 
L 9.421875 0 
z
M 9.421875 75.984375 
L 18.40625 75.984375 
L 18.40625 64.59375 
L 9.421875 64.59375 
z
" id="DejaVuSans-69"/>
      <path d="M 2.984375 54.6875 
L 12.5 54.6875 
L 29.59375 8.796875 
L 46.6875 54.6875 
L 56.203125 54.6875 
L 35.6875 0 
L 23.484375 0 
z
" id="DejaVuSans-76"/>
      <path d="M 34.28125 27.484375 
Q 23.390625 27.484375 19.1875 25 
Q 14.984375 22.515625 14.984375 16.5 
Q 14.984375 11.71875 18.140625 8.90625 
Q 21.296875 6.109375 26.703125 6.109375 
Q 34.1875 6.109375 38.703125 11.40625 
Q 43.21875 16.703125 43.21875 25.484375 
L 43.21875 27.484375 
z
M 52.203125 31.203125 
L 52.203125 0 
L 43.21875 0 
L 43.21875 8.296875 
Q 40.140625 3.328125 35.546875 0.953125 
Q 30.953125 -1.421875 24.3125 -1.421875 
Q 15.921875 -1.421875 10.953125 3.296875 
Q 6 8.015625 6 15.921875 
Q 6 25.140625 12.171875 29.828125 
Q 18.359375 34.515625 30.609375 34.515625 
L 43.21875 34.515625 
L 43.21875 35.40625 
Q 43.21875 41.609375 39.140625 45 
Q 35.0625 48.390625 27.6875 48.390625 
Q 23 48.390625 18.546875 47.265625 
Q 14.109375 46.140625 10.015625 43.890625 
L 10.015625 52.203125 
Q 14.9375 54.109375 19.578125 55.046875 
Q 24.21875 56 28.609375 56 
Q 40.484375 56 46.34375 49.84375 
Q 52.203125 43.703125 52.203125 31.203125 
z
" id="DejaVuSans-61"/>
      <path d="M 9.421875 75.984375 
L 18.40625 75.984375 
L 18.40625 0 
L 9.421875 0 
z
" id="DejaVuSans-6c"/>
      <path d="M 44.28125 53.078125 
L 44.28125 44.578125 
Q 40.484375 46.53125 36.375 47.5 
Q 32.28125 48.484375 27.875 48.484375 
Q 21.1875 48.484375 17.84375 46.4375 
Q 14.5 44.390625 14.5 40.28125 
Q 14.5 37.15625 16.890625 35.375 
Q 19.28125 33.59375 26.515625 31.984375 
L 29.59375 31.296875 
Q 39.15625 29.25 43.1875 25.515625 
Q 47.21875 21.78125 47.21875 15.09375 
Q 47.21875 7.46875 41.1875 3.015625 
Q 35.15625 -1.421875 24.609375 -1.421875 
Q 20.21875 -1.421875 15.453125 -0.5625 
Q 10.6875 0.296875 5.421875 2 
L 5.421875 11.28125 
Q 10.40625 8.6875 15.234375 7.390625 
Q 20.0625 6.109375 24.8125 6.109375 
Q 31.15625 6.109375 34.5625 8.28125 
Q 37.984375 10.453125 37.984375 14.40625 
Q 37.984375 18.0625 35.515625 20.015625 
Q 33.0625 21.96875 24.703125 23.78125 
L 21.578125 24.515625 
Q 13.234375 26.265625 9.515625 29.90625 
Q 5.8125 33.546875 5.8125 39.890625 
Q 5.8125 47.609375 11.28125 51.796875 
Q 16.75 56 26.8125 56 
Q 31.78125 56 36.171875 55.265625 
Q 40.578125 54.546875 44.28125 53.078125 
z
" id="DejaVuSans-73"/>
      <path d="M 25.390625 72.90625 
L 33.6875 72.90625 
L 8.296875 -9.28125 
L 0 -9.28125 
z
" id="DejaVuSans-2f"/>
      <path d="M 45.40625 46.390625 
L 45.40625 75.984375 
L 54.390625 75.984375 
L 54.390625 0 
L 45.40625 0 
L 45.40625 8.203125 
Q 42.578125 3.328125 38.25 0.953125 
Q 33.9375 -1.421875 27.875 -1.421875 
Q 17.96875 -1.421875 11.734375 6.484375 
Q 5.515625 14.40625 5.515625 27.296875 
Q 5.515625 40.1875 11.734375 48.09375 
Q 17.96875 56 27.875 56 
Q 33.9375 56 38.25 53.625 
Q 42.578125 51.265625 45.40625 46.390625 
z
M 14.796875 27.296875 
Q 14.796875 17.390625 18.875 11.75 
Q 22.953125 6.109375 30.078125 6.109375 
Q 37.203125 6.109375 41.296875 11.75 
Q 45.40625 17.390625 45.40625 27.296875 
Q 45.40625 37.203125 41.296875 42.84375 
Q 37.203125 48.484375 30.078125 48.484375 
Q 22.953125 48.484375 18.875 42.84375 
Q 14.796875 37.203125 14.796875 27.296875 
z
" id="DejaVuSans-64"/>
     </defs>
     <g transform="translate(28.794475 335.465125)scale(0.2 -0.2)">
      <use xlink:href="#DejaVuSans-6e"/>
      <use x="63.378906" xlink:href="#DejaVuSans-75"/>
      <use x="126.757812" xlink:href="#DejaVuSans-6d"/>
      <use x="224.169922" xlink:href="#DejaVuSans-62"/>
      <use x="287.646484" xlink:href="#DejaVuSans-65"/>
      <use x="349.169922" xlink:href="#DejaVuSans-72"/>
      <use x="390.283203" xlink:href="#DejaVuSans-20"/>
      <use x="422.070312" xlink:href="#DejaVuSans-6f"/>
      <use x="483.251953" xlink:href="#DejaVuSans-66"/>
      <use x="518.457031" xlink:href="#DejaVuSans-20"/>
      <use x="550.244141" xlink:href="#DejaVuSans-66"/>
      <use x="585.449219" xlink:href="#DejaVuSans-75"/>
      <use x="648.828125" xlink:href="#DejaVuSans-6e"/>
      <use x="712.207031" xlink:href="#DejaVuSans-63"/>
      <use x="767.1875" xlink:href="#DejaVuSans-74"/>
      <use x="806.396484" xlink:href="#DejaVuSans-69"/>
      <use x="834.179688" xlink:href="#DejaVuSans-6f"/>
      <use x="895.361328" xlink:href="#DejaVuSans-6e"/>
      <use x="958.740234" xlink:href="#DejaVuSans-20"/>
      <use x="990.527344" xlink:href="#DejaVuSans-65"/>
      <use x="1052.050781" xlink:href="#DejaVuSans-76"/>
      <use x="1111.230469" xlink:href="#DejaVuSans-61"/>
      <use x="1172.509766" xlink:href="#DejaVuSans-6c"/>
      <use x="1200.292969" xlink:href="#DejaVuSans-75"/>
      <use x="1263.671875" xlink:href="#DejaVuSans-61"/>
      <use x="1324.951172" xlink:href="#DejaVuSans-74"/>
      <use x="1364.160156" xlink:href="#DejaVuSans-69"/>
      <use x="1391.943359" xlink:href="#DejaVuSans-6f"/>
      <use x="1453.125" xlink:href="#DejaVuSans-6e"/>
      <use x="1516.503906" xlink:href="#DejaVuSans-73"/>
      <use x="1568.603516" xlink:href="#DejaVuSans-20"/>
      <use x="1600.390625" xlink:href="#DejaVuSans-2f"/>
      <use x="1634.082031" xlink:href="#DejaVuSans-20"/>
      <use x="1665.869141" xlink:href="#DejaVuSans-64"/>
      <use x="1729.345703" xlink:href="#DejaVuSans-69"/>
      <use x="1757.128906" xlink:href="#DejaVuSans-6d"/>
      <use x="1854.541016" xlink:href="#DejaVuSans-65"/>
      <use x="1916.064453" xlink:href="#DejaVuSans-6e"/>
      <use x="1979.443359" xlink:href="#DejaVuSans-73"/>
      <use x="2031.542969" xlink:href="#DejaVuSans-69"/>
      <use x="2059.326172" xlink:href="#DejaVuSans-6f"/>
      <use x="2120.507812" xlink:href="#DejaVuSans-6e"/>
     </g>
    </g>
   </g>
   <g id="matplotlib.axis_2">
    <g id="ytick_1">
     <g id="line2d_9">
      <path clip-path="url(#pa14c6b6275)" d="M 81.1257 289.912 
L 413.232 289.912 
" style="fill:none;stroke:#b0b0b0;stroke-linecap:square;stroke-width:0.8;"/>
     </g>
     <g id="line2d_10">
      <defs>
       <path d="M 0 0 
L -3.5 0 
" id="m1d9fa17860" style="stroke:#000000;stroke-width:0.8;"/>
      </defs>
      <g>
       <use style="stroke:#000000;stroke-width:0.8;" x="81.1257" xlink:href="#m1d9fa17860" y="289.912"/>
      </g>
     </g>
     <g id="text_6">
      <!-- $\mathdefault{10^{-8}}$ -->
      <defs>
       <path d="M 10.59375 35.5 
L 73.1875 35.5 
L 73.1875 27.203125 
L 10.59375 27.203125 
z
" id="DejaVuSans-2212"/>
       <path d="M 31.78125 34.625 
Q 24.75 34.625 20.71875 30.859375 
Q 16.703125 27.09375 16.703125 20.515625 
Q 16.703125 13.921875 20.71875 10.15625 
Q 24.75 6.390625 31.78125 6.390625 
Q 38.8125 6.390625 42.859375 10.171875 
Q 46.921875 13.96875 46.921875 20.515625 
Q 46.921875 27.09375 42.890625 30.859375 
Q 38.875 34.625 31.78125 34.625 
z
M 21.921875 38.8125 
Q 15.578125 40.375 12.03125 44.71875 
Q 8.5 49.078125 8.5 55.328125 
Q 8.5 64.0625 14.71875 69.140625 
Q 20.953125 74.21875 31.78125 74.21875 
Q 42.671875 74.21875 48.875 69.140625 
Q 55.078125 64.0625 55.078125 55.328125 
Q 55.078125 49.078125 51.53125 44.71875 
Q 48 40.375 41.703125 38.8125 
Q 48.828125 37.15625 52.796875 32.3125 
Q 56.78125 27.484375 56.78125 20.515625 
Q 56.78125 9.90625 50.3125 4.234375 
Q 43.84375 -1.421875 31.78125 -1.421875 
Q 19.734375 -1.421875 13.25 4.234375 
Q 6.78125 9.90625 6.78125 20.515625 
Q 6.78125 27.484375 10.78125 32.3125 
Q 14.796875 37.15625 21.921875 38.8125 
z
M 18.3125 54.390625 
Q 18.3125 48.734375 21.84375 45.5625 
Q 25.390625 42.390625 31.78125 42.390625 
Q 38.140625 42.390625 41.71875 45.5625 
Q 45.3125 48.734375 45.3125 54.390625 
Q 45.3125 60.0625 41.71875 63.234375 
Q 38.140625 66.40625 31.78125 66.40625 
Q 25.390625 66.40625 21.84375 63.234375 
Q 18.3125 60.0625 18.3125 54.390625 
z
" id="DejaVuSans-38"/>
      </defs>
      <g transform="translate(27.1257 297.510438)scale(0.2 -0.2)">
       <use transform="translate(0 0.765625)" xlink:href="#DejaVuSans-31"/>
       <use transform="translate(63.623047 0.765625)" xlink:href="#DejaVuSans-30"/>
       <use transform="translate(128.203125 39.046875)scale(0.7)" xlink:href="#DejaVuSans-2212"/>
       <use transform="translate(186.855469 39.046875)scale(0.7)" xlink:href="#DejaVuSans-38"/>
      </g>
     </g>
    </g>
    <g id="ytick_2">
     <g id="line2d_11">
      <path clip-path="url(#pa14c6b6275)" d="M 81.1257 234.276308 
L 413.232 234.276308 
" style="fill:none;stroke:#b0b0b0;stroke-linecap:square;stroke-width:0.8;"/>
     </g>
     <g id="line2d_12">
      <g>
       <use style="stroke:#000000;stroke-width:0.8;" x="81.1257" xlink:href="#m1d9fa17860" y="234.276308"/>
      </g>
     </g>
     <g id="text_7">
      <!-- $\mathdefault{10^{-6}}$ -->
      <g transform="translate(27.1257 241.874746)scale(0.2 -0.2)">
       <use transform="translate(0 0.765625)" xlink:href="#DejaVuSans-31"/>
       <use transform="translate(63.623047 0.765625)" xlink:href="#DejaVuSans-30"/>
       <use transform="translate(128.203125 39.046875)scale(0.7)" xlink:href="#DejaVuSans-2212"/>
       <use transform="translate(186.855469 39.046875)scale(0.7)" xlink:href="#DejaVuSans-36"/>
      </g>
     </g>
    </g>
    <g id="ytick_3">
     <g id="line2d_13">
      <path clip-path="url(#pa14c6b6275)" d="M 81.1257 178.640617 
L 413.232 178.640617 
" style="fill:none;stroke:#b0b0b0;stroke-linecap:square;stroke-width:0.8;"/>
     </g>
     <g id="line2d_14">
      <g>
       <use style="stroke:#000000;stroke-width:0.8;" x="81.1257" xlink:href="#m1d9fa17860" y="178.640617"/>
      </g>
     </g>
     <g id="text_8">
      <!-- $\mathdefault{10^{-4}}$ -->
      <g transform="translate(27.1257 186.239054)scale(0.2 -0.2)">
       <use transform="translate(0 0.684375)" xlink:href="#DejaVuSans-31"/>
       <use transform="translate(63.623047 0.684375)" xlink:href="#DejaVuSans-30"/>
       <use transform="translate(128.203125 38.965625)scale(0.7)" xlink:href="#DejaVuSans-2212"/>
       <use transform="translate(186.855469 38.965625)scale(0.7)" xlink:href="#DejaVuSans-34"/>
      </g>
     </g>
    </g>
    <g id="ytick_4">
     <g id="line2d_15">
      <path clip-path="url(#pa14c6b6275)" d="M 81.1257 123.004925 
L 413.232 123.004925 
" style="fill:none;stroke:#b0b0b0;stroke-linecap:square;stroke-width:0.8;"/>
     </g>
     <g id="line2d_16">
      <g>
       <use style="stroke:#000000;stroke-width:0.8;" x="81.1257" xlink:href="#m1d9fa17860" y="123.004925"/>
      </g>
     </g>
     <g id="text_9">
      <!-- $\mathdefault{10^{-2}}$ -->
      <g transform="translate(27.1257 130.603363)scale(0.2 -0.2)">
       <use transform="translate(0 0.765625)" xlink:href="#DejaVuSans-31"/>
       <use transform="translate(63.623047 0.765625)" xlink:href="#DejaVuSans-30"/>
       <use transform="translate(128.203125 39.046875)scale(0.7)" xlink:href="#DejaVuSans-2212"/>
       <use transform="translate(186.855469 39.046875)scale(0.7)" xlink:href="#DejaVuSans-32"/>
      </g>
     </g>
    </g>
    <g id="ytick_5">
     <g id="line2d_17">
      <path clip-path="url(#pa14c6b6275)" d="M 81.1257 67.369234 
L 413.232 67.369234 
" style="fill:none;stroke:#b0b0b0;stroke-linecap:square;stroke-width:0.8;"/>
     </g>
     <g id="line2d_18">
      <g>
       <use style="stroke:#000000;stroke-width:0.8;" x="81.1257" xlink:href="#m1d9fa17860" y="67.369234"/>
      </g>
     </g>
     <g id="text_10">
      <!-- $\mathdefault{10^{0}}$ -->
      <g transform="translate(38.9257 74.967671)scale(0.2 -0.2)">
       <use transform="translate(0 0.765625)" xlink:href="#DejaVuSans-31"/>
       <use transform="translate(63.623047 0.765625)" xlink:href="#DejaVuSans-30"/>
       <use transform="translate(128.203125 39.046875)scale(0.7)" xlink:href="#DejaVuSans-30"/>
      </g>
     </g>
    </g>
    <g id="ytick_6">
     <g id="line2d_19">
      <path clip-path="url(#pa14c6b6275)" d="M 81.1257 11.733542 
L 413.232 11.733542 
" style="fill:none;stroke:#b0b0b0;stroke-linecap:square;stroke-width:0.8;"/>
     </g>
     <g id="line2d_20">
      <g>
       <use style="stroke:#000000;stroke-width:0.8;" x="81.1257" xlink:href="#m1d9fa17860" y="11.733542"/>
      </g>
     </g>
     <g id="text_11">
      <!-- $\mathdefault{10^{2}}$ -->
      <g transform="translate(38.9257 19.331979)scale(0.2 -0.2)">
       <use transform="translate(0 0.765625)" xlink:href="#DejaVuSans-31"/>
       <use transform="translate(63.623047 0.765625)" xlink:href="#DejaVuSans-30"/>
       <use transform="translate(128.203125 39.046875)scale(0.7)" xlink:href="#DejaVuSans-32"/>
      </g>
     </g>
    </g>
    <g id="text_12">
     <!-- Median of fitness -->
     <defs>
      <path d="M 9.8125 72.90625 
L 24.515625 72.90625 
L 43.109375 23.296875 
L 61.8125 72.90625 
L 76.515625 72.90625 
L 76.515625 0 
L 66.890625 0 
L 66.890625 64.015625 
L 48.09375 14.015625 
L 38.1875 14.015625 
L 19.390625 64.015625 
L 19.390625 0 
L 9.8125 0 
z
" id="DejaVuSans-4d"/>
     </defs>
     <g transform="translate(18.966325 235.071315)rotate(-90)scale(0.2 -0.2)">
      <use xlink:href="#DejaVuSans-4d"/>
      <use x="86.279297" xlink:href="#DejaVuSans-65"/>
      <use x="147.802734" xlink:href="#DejaVuSans-64"/>
      <use x="211.279297" xlink:href="#DejaVuSans-69"/>
      <use x="239.0625" xlink:href="#DejaVuSans-61"/>
      <use x="300.341797" xlink:href="#DejaVuSans-6e"/>
      <use x="363.720703" xlink:href="#DejaVuSans-20"/>
      <use x="395.507812" xlink:href="#DejaVuSans-6f"/>
      <use x="456.689453" xlink:href="#DejaVuSans-66"/>
      <use x="491.894531" xlink:href="#DejaVuSans-20"/>
      <use x="523.681641" xlink:href="#DejaVuSans-66"/>
      <use x="558.886719" xlink:href="#DejaVuSans-69"/>
      <use x="586.669922" xlink:href="#DejaVuSans-74"/>
      <use x="625.878906" xlink:href="#DejaVuSans-6e"/>
      <use x="689.257812" xlink:href="#DejaVuSans-65"/>
      <use x="750.78125" xlink:href="#DejaVuSans-73"/>
      <use x="802.880859" xlink:href="#DejaVuSans-73"/>
     </g>
    </g>
   </g>
   <g id="line2d_21">
    <path clip-path="url(#pa14c6b6275)" d="M 137.573801 22.853684 
L 150.022101 26.774292 
L 157.30389 31.01733 
L 162.470402 31.01733 
L 166.47786 31.01733 
L 169.752191 31.473447 
L 172.520599 32.099356 
L 174.918702 33.886913 
L 178.92616 34.323006 
L 180.637845 36.15154 
L 182.200492 36.15154 
L 184.968899 36.15154 
L 186.207949 36.790403 
L 188.455767 36.790403 
L 190.453279 43.175776 
L 191.374461 43.175776 
L 193.086146 43.318788 
L 195.381919 44.217931 
L 197.4172 46.37267 
L 199.245126 46.37267 
L 201.424658 46.37267 
L 203.368076 46.37267 
L 203.822761 46.37267 
L 205.534447 46.37267 
L 207.830219 46.37267 
L 209.865501 46.37267 
L 211.980778 46.37267 
L 213.872958 47.88348 
L 216.045158 47.88348 
L 218.185677 49.680377 
L 220.27852 49.680377 
L 222.313801 52.441639 
L 224.285978 54.832113 
L 226.449082 55.400452 
L 228.493459 55.400452 
L 230.5328 55.511729 
L 232.6368 55.943166 
L 232.72682 55.943166 
L 234.681748 56.76134 
L 236.805971 56.76134 
L 238.833585 61.26831 
L 240.94176 61.727958 
L 242.9811 63.810845 
L 245.0851 63.810845 
L 245.175121 63.810845 
L 247.130048 63.810845 
L 249.218461 63.810845 
L 251.281886 63.810845 
L 253.333138 68.313663 
L 255.404017 70.341843 
L 257.488221 74.244364 
L 259.558204 76.394124 
L 261.630879 77.732853 
L 263.698202 79.104069 
L 265.752909 83.343533 
L 267.826898 85.788556 
L 269.891227 88.256176 
L 271.966147 88.256176 
L 274.034226 88.689808 
L 274.07918 88.689808 
L 276.098419 89.139127 
L 278.165485 93.422046 
L 280.237001 96.433306 
L 281.833604 96.433306 
L 282.065338 96.433306 
L 282.305482 114.46262 
L 283.396251 114.46262 
L 284.33346 114.46262 
L 284.374 129.929494 
L 284.734797 129.929494 
L 286.441972 186.387796 
L 286.527481 186.387796 
L 287.23185 186.387796 
L 288.075155 186.387796 
L 288.506552 244.979772 
L 289.651526 290.674259 
L 289.801812 292.280861 
L 290.574405 292.280861 
L 292.643829 292.280861 
L 293.013677 292.48854 
L 294.711135 292.48854 
L 296.779224 292.48854 
L 297.083601 294.434331 
L 298.847365 294.434331 
L 298.975781 294.455544 
L 299.375382 294.470757 
L 300.914595 294.470757 
L 302.983239 294.470757 
L 303.583698 294.70742 
L 305.050562 294.70742 
L 307.118113 294.70742 
L 309.185616 294.70742 
L 310.573652 295.167295 
" style="fill:none;stroke:#1f77b4;stroke-linecap:square;stroke-width:1.5;"/>
   </g>
   <g id="line2d_22">
    <path clip-path="url(#pa14c6b6275)" d="M 130.292011 26.258625 
L 142.740312 33.712551 
L 150.022101 36.581732 
L 155.188613 36.713333 
L 159.19607 41.14493 
L 162.470402 41.14493 
L 165.23881 41.14493 
L 167.636913 42.853117 
L 171.644371 43.191145 
L 173.356056 43.191145 
L 174.918702 43.191145 
L 177.68711 43.191145 
L 178.92616 43.191145 
L 181.173978 46.083281 
L 183.17149 46.083281 
L 185.804357 46.892953 
L 188.100129 48.135644 
L 190.135411 48.135644 
L 191.374461 48.135644 
L 191.963337 48.135644 
L 194.142869 48.135644 
L 196.086287 48.135644 
L 198.252658 49.25738 
L 200.54843 49.25738 
L 202.583711 49.862784 
L 203.822761 50.123573 
L 204.698989 50.123573 
L 206.591169 50.123573 
L 208.763369 50.123573 
L 210.903888 50.837914 
L 212.996731 50.882876 
L 215.032012 51.512846 
L 217.004188 52.680245 
L 219.167293 52.899707 
L 220.27852 53.06064 
L 221.21167 53.06064 
L 223.25101 54.270641 
L 225.355011 54.270641 
L 227.399959 54.493546 
L 229.524182 54.755566 
L 231.551796 55.75494 
L 232.72682 55.75494 
L 233.659971 55.7957 
L 235.699311 55.826897 
L 237.803311 55.969643 
L 239.848259 58.798005 
L 241.936672 59.906927 
L 244.000097 62.844753 
L 245.175121 62.844753 
L 246.051349 62.844753 
L 248.122228 63.341475 
L 250.206432 63.629889 
L 252.276415 63.629889 
L 254.34909 63.629889 
L 256.416413 64.126427 
L 258.47112 64.567436 
L 260.545109 64.605705 
L 261.630879 66.052225 
L 262.609438 66.052225 
L 264.684358 67.756154 
L 266.752437 67.756154 
L 268.81663 71.127236 
L 270.883695 71.127236 
L 272.955212 72.460336 
L 274.07918 73.63076 
L 275.023693 74.290042 
L 277.092211 78.416458 
L 279.160183 82.727098 
L 281.224763 90.132838 
L 283.292616 101.286635 
L 285.36204 120.095811 
L 286.527481 150.367833 
L 287.429346 188.286504 
L 287.658452 188.286504 
L 288.157348 188.286504 
L 288.562762 188.286504 
L 289.270214 188.286504 
L 289.497435 232.505664 
L 289.575909 232.505664 
L 291.170101 232.505664 
L 291.376926 290.448639 
L 291.565576 290.448639 
L 293.632806 290.448639 
L 295.024358 290.720208 
L 295.70145 290.720208 
L 297.183098 293.402497 
L 297.768773 293.402497 
L 299.636927 294.276724 
L 299.836324 294.276724 
L 299.937326 294.276724 
L 300.399457 294.276724 
L 301.289504 295.189776 
L 301.903827 295.189776 
L 302.983239 295.189776 
L 303.970866 295.189776 
L 305.018521 295.189776 
" style="fill:none;stroke:#ff7f0e;stroke-linecap:square;stroke-width:1.5;"/>
   </g>
   <g id="line2d_23">
    <path clip-path="url(#pa14c6b6275)" d="M 121.118042 34.790699 
L 133.566343 34.837074 
L 140.848132 37.839472 
L 146.014643 39.852012 
L 150.022101 39.852012 
L 153.296433 40.671286 
L 156.06484 40.671286 
L 158.462944 40.671286 
L 162.470402 41.312372 
L 164.182087 42.903081 
L 165.744733 42.903081 
L 168.513141 42.903081 
L 169.752191 43.225005 
L 172.000009 43.225005 
L 173.997521 45.115077 
L 176.630388 45.373088 
L 178.92616 45.373088 
L 180.961442 46.215856 
L 182.789367 46.885651 
L 184.968899 46.885651 
L 186.912318 47.049773 
L 189.078688 48.055052 
L 191.374461 49.737759 
L 193.409742 49.737759 
L 195.52502 50.112585 
L 197.4172 50.129899 
L 199.5894 50.55018 
L 201.729919 50.55018 
L 203.822761 51.271601 
L 205.858043 51.271601 
L 207.830219 52.973876 
L 209.993324 52.973876 
L 212.037701 52.973876 
L 214.077041 52.973876 
L 216.181041 55.170301 
L 218.225989 55.275574 
L 220.27852 55.347415 
L 220.350213 55.347415 
L 222.377827 56.535718 
L 224.486001 56.535718 
L 226.525342 56.535718 
L 228.629342 56.535718 
L 230.67429 56.535718 
L 232.72682 57.525478 
L 232.762703 57.525478 
L 234.826127 57.525478 
L 236.877379 57.826642 
L 238.948259 57.826642 
L 241.032463 58.086364 
L 243.102446 58.343144 
L 245.175121 58.343144 
L 247.242444 58.650039 
L 249.297151 58.650039 
L 251.371139 58.650039 
L 253.435469 59.805035 
L 255.510389 61.783783 
L 257.578468 61.783783 
L 259.642661 62.983193 
L 261.630879 62.983193 
L 261.709726 62.983193 
L 263.781243 62.983193 
L 265.849724 64.702725 
L 267.918241 65.364638 
L 269.986213 65.457001 
L 272.050794 66.738443 
L 274.07918 66.738443 
L 274.118647 66.738443 
L 276.188071 66.738443 
L 278.255377 67.284907 
L 280.323465 68.478966 
L 282.391606 71.40391 
L 284.458836 71.915966 
L 286.527481 72.380203 
L 288.594803 73.82969 
L 290.662354 74.59917 
L 292.729857 77.638425 
L 294.513639 77.638425 
L 294.796897 80.387327 
L 296.864769 85.982929 
L 298.289363 85.982929 
L 298.932628 90.068307 
L 299.287347 90.068307 
L 301.000637 90.131256 
L 302.983239 90.598635 
L 303.067807 90.598635 
L 303.961798 90.598635 
L 305.135514 178.833916 
L 306.759336 178.833916 
L 307.20322 263.992623 
L 307.304028 263.992623 
L 307.777763 290.464228 
L 309.271107 290.464228 
L 310.760972 290.92373 
L 311.12985 291.127682 
L 311.338573 291.127682 
L 313.40637 291.127682 
L 314.377538 291.127682 
L 315.43154 291.127682 
L 315.473873 291.127682 
L 317.541708 291.127682 
L 317.721564 291.127682 
L 319.609159 291.127682 
L 321.67684 291.127682 
L 323.475167 291.679679 
L 323.744418 291.679679 
L 324.22802 291.944899 
L 325.812204 291.944899 
L 327.87984 291.944899 
L 328.934767 292.515174 
" style="fill:none;stroke:#2ca02c;stroke-linecap:square;stroke-width:1.5;"/>
   </g>
   <g id="line2d_24">
    <path clip-path="url(#pa14c6b6275)" d="M 108.669742 34.137247 
L 121.118042 36.819874 
L 128.399831 37.371112 
L 133.566343 37.579359 
L 137.573801 38.520956 
L 140.848132 40.163657 
L 143.61654 40.163657 
L 146.014643 42.402922 
L 150.022101 43.053456 
L 153.296433 43.053456 
L 156.06484 44.427393 
L 164.182087 44.457072 
L 166.47786 45.667284 
L 168.513141 46.154701 
L 170.341067 46.154701 
L 172.520599 47.209039 
L 176.630388 47.905128 
L 178.92616 48.258668 
L 180.961442 49.522701 
L 184.968899 49.522701 
L 189.281618 50.128975 
L 191.374461 50.736369 
L 197.545023 50.736369 
L 199.5894 51.270487 
L 205.777689 51.280175 
L 207.901912 53.225517 
L 209.929526 53.225517 
L 212.037701 53.340823 
L 216.181041 53.340823 
L 218.225989 53.94581 
L 220.314402 53.94581 
L 222.377827 55.536688 
L 228.584162 55.536688 
L 230.654145 56.225363 
L 234.794143 56.97357 
L 236.84885 58.389385 
L 251.332942 58.44605 
L 253.401423 59.372757 
L 255.469941 59.434883 
L 257.537913 59.978072 
L 259.602493 60.08777 
L 261.670346 61.341073 
L 263.73977 62.124993 
L 265.807076 62.400329 
L 274.07918 62.400329 
L 276.146503 62.646149 
L 278.214054 62.646149 
L 280.281557 63.857989 
L 282.348596 63.857989 
L 284.416468 64.156866 
L 292.687214 64.156866 
L 294.754919 64.33494 
L 298.890272 65.112347 
L 300.958069 65.112347 
L 303.025573 68.053554 
L 305.093408 69.129826 
L 307.160859 69.129826 
L 309.228539 70.942579 
L 311.296118 70.942579 
L 313.363903 71.253408 
L 315.43154 73.449778 
L 317.499022 73.449778 
L 319.566699 74.727456 
L 321.634298 75.069019 
L 323.701976 84.716403 
L 325.769535 84.994265 
L 327.87984 92.02919 
L 329.904857 93.245186 
L 331.972438 95.306213 
L 334.040083 96.191115 
L 336.107676 99.451832 
L 338.175318 99.467003 
L 339.044137 103.526954 
L 339.515332 103.6684 
L 340.242948 105.454467 
L 342.31055 107.582357 
L 342.653701 107.582357 
L 343.289213 110.078244 
L 346.445799 110.078244 
L 348.513418 118.011176 
L 350.581026 118.011176 
L 352.254861 122.386569 
L 352.648658 222.169963 
L 352.769706 290.206915 
L 354.716263 290.206915 
L 354.897705 290.638543 
L 358.85151 290.677185 
L 360.53961 291.279531 
L 367.121985 291.279531 
L 367.580846 291.4399 
L 369.2322 291.4399 
L 369.84568 291.717418 
L 371.257224 291.717418 
L 371.269887 292.091933 
L 371.269887 292.091933 
" style="fill:none;stroke:#d62728;stroke-linecap:square;stroke-width:1.5;"/>
   </g>
   <g id="line2d_25">
    <path clip-path="url(#pa14c6b6275)" d="M 96.221441 34.647336 
L 108.669742 37.13769 
L 115.951531 39.053368 
L 128.399831 39.053368 
L 131.168239 39.177988 
L 133.566343 39.929928 
L 137.573801 40.15171 
L 139.285486 42.118654 
L 143.61654 42.43469 
L 147.103407 42.773815 
L 150.022101 42.799268 
L 151.733786 43.10766 
L 156.06484 43.10766 
L 157.892766 43.431567 
L 162.015717 43.52363 
L 162.470402 43.837647 
L 164.182087 44.632646 
L 166.47786 44.632646 
L 168.513141 44.872252 
L 170.628418 45.803789 
L 174.692799 46.470435 
L 178.92616 46.470435 
L 180.961442 46.970212 
L 182.933618 47.213218 
L 185.096723 48.086214 
L 189.18044 48.107554 
L 191.374461 48.835936 
L 195.453612 48.835936 
L 197.481225 49.088375 
L 199.5894 50.156214 
L 201.628741 50.34001 
L 203.822761 50.395824 
L 205.777689 50.952704 
L 207.866102 50.952704 
L 209.929526 52.171266 
L 216.135861 52.171266 
L 218.205845 52.338566 
L 220.27852 52.338566 
L 222.345842 52.822503 
L 224.40055 52.97005 
L 226.474538 52.980193 
L 228.538868 53.300185 
L 230.613788 53.825736 
L 232.72682 53.825736 
L 234.74606 54.037813 
L 245.175121 54.11545 
L 251.29147 54.201704 
L 253.358775 54.977114 
L 263.698202 55.0698 
L 265.765753 55.200699 
L 267.833256 55.200699 
L 269.900295 55.499982 
L 271.968167 56.164685 
L 274.07918 56.362318 
L 278.171205 56.362318 
L 280.238913 57.016572 
L 284.374506 57.614888 
L 286.527481 58.103933 
L 288.509769 58.103933 
L 290.577272 59.154063 
L 296.780238 59.154063 
L 300.915602 59.849927 
L 302.983239 60.288239 
L 305.050722 60.890343 
L 307.118398 60.890343 
L 309.185997 62.282324 
L 311.253675 63.066076 
L 317.456556 64.441232 
L 321.591782 66.928434 
L 323.659375 67.243345 
L 325.727017 68.453599 
L 327.87984 68.587739 
L 329.862249 70.69588 
L 331.929883 71.641727 
L 336.065117 72.708654 
L 365.011775 72.78737 
L 367.079392 78.760149 
L 375.349868 78.760149 
L 377.417485 87.504222 
L 379.485102 88.281548 
L 383.62034 88.281548 
L 385.687958 90.255892 
L 387.755576 91.570442 
L 391.890812 91.570442 
L 393.958429 95.320126 
L 398.136259 95.320126 
L 398.136259 95.320126 
" style="fill:none;stroke:#9467bd;stroke-linecap:square;stroke-width:1.5;"/>
   </g>
   <g id="patch_3">
    <path d="M 81.1257 289.912 
L 81.1257 9.23688 
" style="fill:none;stroke:#000000;stroke-linecap:square;stroke-linejoin:miter;stroke-width:0.8;"/>
   </g>
   <g id="patch_4">
    <path d="M 413.232 289.912 
L 413.232 9.23688 
" style="fill:none;stroke:#000000;stroke-linecap:square;stroke-linejoin:miter;stroke-width:0.8;"/>
   </g>
   <g id="patch_5">
    <path d="M 81.1257 289.912 
L 413.232 289.912 
" style="fill:none;stroke:#000000;stroke-linecap:square;stroke-linejoin:miter;stroke-width:0.8;"/>
   </g>
   <g id="patch_6">
    <path d="M 81.1257 9.23688 
L 413.232 9.23688 
" style="fill:none;stroke:#000000;stroke-linecap:square;stroke-linejoin:miter;stroke-width:0.8;"/>
   </g>
   <g id="text_13">
    <!-- bbob - f23 -->
    <defs>
     <path d="M 4.890625 31.390625 
L 31.203125 31.390625 
L 31.203125 23.390625 
L 4.890625 23.390625 
z
" id="DejaVuSans-2d"/>
     <path d="M 40.578125 39.3125 
Q 47.65625 37.796875 51.625 33 
Q 55.609375 28.21875 55.609375 21.1875 
Q 55.609375 10.40625 48.1875 4.484375 
Q 40.765625 -1.421875 27.09375 -1.421875 
Q 22.515625 -1.421875 17.65625 -0.515625 
Q 12.796875 0.390625 7.625 2.203125 
L 7.625 11.71875 
Q 11.71875 9.328125 16.59375 8.109375 
Q 21.484375 6.890625 26.8125 6.890625 
Q 36.078125 6.890625 40.9375 10.546875 
Q 45.796875 14.203125 45.796875 21.1875 
Q 45.796875 27.640625 41.28125 31.265625 
Q 36.765625 34.90625 28.71875 34.90625 
L 20.21875 34.90625 
L 20.21875 43.015625 
L 29.109375 43.015625 
Q 36.375 43.015625 40.234375 45.921875 
Q 44.09375 48.828125 44.09375 54.296875 
Q 44.09375 59.90625 40.109375 62.90625 
Q 36.140625 65.921875 28.71875 65.921875 
Q 24.65625 65.921875 20.015625 65.03125 
Q 15.375 64.15625 9.8125 62.3125 
L 9.8125 71.09375 
Q 15.4375 72.65625 20.34375 73.4375 
Q 25.25 74.21875 29.59375 74.21875 
Q 40.828125 74.21875 47.359375 69.109375 
Q 53.90625 64.015625 53.90625 55.328125 
Q 53.90625 49.265625 50.4375 45.09375 
Q 46.96875 40.921875 40.578125 39.3125 
z
" id="DejaVuSans-33"/>
    </defs>
    <g transform="translate(84.446763 30.047257)scale(0.2 -0.2)">
     <use xlink:href="#DejaVuSans-62"/>
     <use x="63.476562" xlink:href="#DejaVuSans-62"/>
     <use x="126.953125" xlink:href="#DejaVuSans-6f"/>
     <use x="188.134766" xlink:href="#DejaVuSans-62"/>
     <use x="251.611328" xlink:href="#DejaVuSans-20"/>
     <use x="283.398438" xlink:href="#DejaVuSans-2d"/>
     <use x="319.482422" xlink:href="#DejaVuSans-20"/>
     <use x="351.269531" xlink:href="#DejaVuSans-66"/>
     <use x="386.474609" xlink:href="#DejaVuSans-32"/>
     <use x="450.097656" xlink:href="#DejaVuSans-33"/>
    </g>
    <!-- 15 instances -->
    <defs>
     <path d="M 10.796875 72.90625 
L 49.515625 72.90625 
L 49.515625 64.59375 
L 19.828125 64.59375 
L 19.828125 46.734375 
Q 21.96875 47.46875 24.109375 47.828125 
Q 26.265625 48.1875 28.421875 48.1875 
Q 40.625 48.1875 47.75 41.5 
Q 54.890625 34.8125 54.890625 23.390625 
Q 54.890625 11.625 47.5625 5.09375 
Q 40.234375 -1.421875 26.90625 -1.421875 
Q 22.3125 -1.421875 17.546875 -0.640625 
Q 12.796875 0.140625 7.71875 1.703125 
L 7.71875 11.625 
Q 12.109375 9.234375 16.796875 8.0625 
Q 21.484375 6.890625 26.703125 6.890625 
Q 35.15625 6.890625 40.078125 11.328125 
Q 45.015625 15.765625 45.015625 23.390625 
Q 45.015625 31 40.078125 35.4375 
Q 35.15625 39.890625 26.703125 39.890625 
Q 22.75 39.890625 18.8125 39.015625 
Q 14.890625 38.140625 10.796875 36.28125 
z
" id="DejaVuSans-35"/>
    </defs>
    <g transform="translate(84.446763 52.442882)scale(0.2 -0.2)">
     <use xlink:href="#DejaVuSans-31"/>
     <use x="63.623047" xlink:href="#DejaVuSans-35"/>
     <use x="127.246094" xlink:href="#DejaVuSans-20"/>
     <use x="159.033203" xlink:href="#DejaVuSans-69"/>
     <use x="186.816406" xlink:href="#DejaVuSans-6e"/>
     <use x="250.195312" xlink:href="#DejaVuSans-73"/>
     <use x="302.294922" xlink:href="#DejaVuSans-74"/>
     <use x="341.503906" xlink:href="#DejaVuSans-61"/>
     <use x="402.783203" xlink:href="#DejaVuSans-6e"/>
     <use x="466.162109" xlink:href="#DejaVuSans-63"/>
     <use x="521.142578" xlink:href="#DejaVuSans-65"/>
     <use x="582.666016" xlink:href="#DejaVuSans-73"/>
    </g>
   </g>
   <g id="text_14">
    <!-- v2.4 -->
    <defs>
     <path d="M 10.6875 12.40625 
L 21 12.40625 
L 21 0 
L 10.6875 0 
z
" id="DejaVuSans-2e"/>
    </defs>
    <g style="fill:#808080;" transform="translate(236.267912 285.025561)scale(0.1 -0.1)">
     <use xlink:href="#DejaVuSans-76"/>
     <use x="59.179688" xlink:href="#DejaVuSans-32"/>
     <use x="122.802734" xlink:href="#DejaVuSans-2e"/>
     <use x="154.589844" xlink:href="#DejaVuSans-34"/>
    </g>
   </g>
   <g id="legend_1">
    <g id="patch_7">
     <path d="M 95.1257 279.912 
L 199.9757 279.912 
Q 203.9757 279.912 203.9757 275.912 
L 203.9757 131.13075 
Q 203.9757 127.13075 199.9757 127.13075 
L 95.1257 127.13075 
Q 91.1257 127.13075 91.1257 131.13075 
L 91.1257 275.912 
Q 91.1257 279.912 95.1257 279.912 
z
" style="fill:#ffffff;opacity:0.2;stroke:#cccccc;stroke-linejoin:miter;"/>
    </g>
    <g id="line2d_26">
     <path d="M 99.1257 143.327625 
L 139.1257 143.327625 
" style="fill:none;stroke:#1f77b4;stroke-linecap:square;stroke-width:1.5;"/>
    </g>
    <g id="line2d_27"/>
    <g id="text_15">
     <!-- 2D -->
     <defs>
      <path d="M 19.671875 64.796875 
L 19.671875 8.109375 
L 31.59375 8.109375 
Q 46.6875 8.109375 53.6875 14.9375 
Q 60.6875 21.78125 60.6875 36.53125 
Q 60.6875 51.171875 53.6875 57.984375 
Q 46.6875 64.796875 31.59375 64.796875 
z
M 9.8125 72.90625 
L 30.078125 72.90625 
Q 51.265625 72.90625 61.171875 64.09375 
Q 71.09375 55.28125 71.09375 36.53125 
Q 71.09375 17.671875 61.125 8.828125 
Q 51.171875 0 30.078125 0 
L 9.8125 0 
z
" id="DejaVuSans-44"/>
     </defs>
     <g transform="translate(155.1257 150.327625)scale(0.2 -0.2)">
      <use xlink:href="#DejaVuSans-32"/>
      <use x="63.623047" xlink:href="#DejaVuSans-44"/>
     </g>
    </g>
    <g id="line2d_28">
     <path d="M 99.1257 172.683875 
L 139.1257 172.683875 
" style="fill:none;stroke:#ff7f0e;stroke-linecap:square;stroke-width:1.5;"/>
    </g>
    <g id="line2d_29"/>
    <g id="text_16">
     <!-- 3D -->
     <g transform="translate(155.1257 179.683875)scale(0.2 -0.2)">
      <use xlink:href="#DejaVuSans-33"/>
      <use x="63.623047" xlink:href="#DejaVuSans-44"/>
     </g>
    </g>
    <g id="line2d_30">
     <path d="M 99.1257 202.040125 
L 139.1257 202.040125 
" style="fill:none;stroke:#2ca02c;stroke-linecap:square;stroke-width:1.5;"/>
    </g>
    <g id="line2d_31"/>
    <g id="text_17">
     <!-- 5D -->
     <g transform="translate(155.1257 209.040125)scale(0.2 -0.2)">
      <use xlink:href="#DejaVuSans-35"/>
      <use x="63.623047" xlink:href="#DejaVuSans-44"/>
     </g>
    </g>
    <g id="line2d_32">
     <path d="M 99.1257 231.396375 
L 139.1257 231.396375 
" style="fill:none;stroke:#d62728;stroke-linecap:square;stroke-width:1.5;"/>
    </g>
    <g id="line2d_33"/>
    <g id="text_18">
     <!-- 10D -->
     <g transform="translate(155.1257 238.396375)scale(0.2 -0.2)">
      <use xlink:href="#DejaVuSans-31"/>
      <use x="63.623047" xlink:href="#DejaVuSans-30"/>
      <use x="127.246094" xlink:href="#DejaVuSans-44"/>
     </g>
    </g>
    <g id="line2d_34">
     <path d="M 99.1257 260.752625 
L 139.1257 260.752625 
" style="fill:none;stroke:#9467bd;stroke-linecap:square;stroke-width:1.5;"/>
    </g>
    <g id="line2d_35"/>
    <g id="text_19">
     <!-- 20D -->
     <g transform="translate(155.1257 267.752625)scale(0.2 -0.2)">
      <use xlink:href="#DejaVuSans-32"/>
      <use x="63.623047" xlink:href="#DejaVuSans-30"/>
      <use x="127.246094" xlink:href="#DejaVuSans-44"/>
     </g>
    </g>
   </g>
  </g>
 </g>
 <defs>
  <clipPath id="pa14c6b6275">
   <rect height="280.67512" width="332.1063" x="81.1257" y="9.23688"/>
  </clipPath>
 </defs>
</svg>
