<?xml version="1.0" encoding="utf-8" standalone="no"?>
<!DOCTYPE svg PUBLIC "-//W3C//DTD SVG 1.1//EN"
  "http://www.w3.org/Graphics/SVG/1.1/DTD/svg11.dtd">
<!-- Created with matplotlib (http://matplotlib.org/) -->
<svg height="345.6pt" version="1.1" viewBox="0 0 460.8 345.6" width="460.8pt" xmlns="http://www.w3.org/2000/svg" xmlns:xlink="http://www.w3.org/1999/xlink">
 <defs>
  <style type="text/css">
*{stroke-linecap:butt;stroke-linejoin:round;}
  </style>
 </defs>
 <g id="figure_1">
  <g id="patch_1">
   <path d="M 0 345.6 
L 460.8 345.6 
L 460.8 0 
L 0 0 
z
" style="fill:#ffffff;"/>
  </g>
  <g id="axes_1">
   <g id="patch_2">
    <path d="M 59.72 291.28 
L 446.802 291.28 
L 446.802 6.845228 
L 59.72 6.845228 
z
" style="fill:#ffffff;"/>
   </g>
   <g id="line2d_1"/>
   <g id="line2d_2"/>
   <g id="line2d_3">
    <path clip-path="url(#p7188c5d7c5)" d="M 188.00923 291.28 
L 188.00923 287.525086 
L 216.653911 287.525086 
L 216.653911 283.770171 
L 229.313365 283.770171 
L 229.313365 280.015257 
L 250.179524 280.015257 
L 250.179524 276.260342 
L 254.416401 276.260342 
L 254.416401 272.505428 
L 254.697291 272.505428 
L 254.697291 268.750513 
L 256.452491 268.750513 
L 256.452491 264.995599 
L 262.74823 264.995599 
L 262.74823 261.240684 
L 271.092117 261.240684 
L 271.092117 257.48577 
L 276.921369 257.48577 
L 276.921369 253.730855 
L 277.641166 253.730855 
L 277.641166 249.975941 
L 281.198605 249.975941 
L 281.198605 246.221026 
L 291.043587 246.221026 
L 291.043587 242.466112 
L 314.613639 242.466112 
L 314.613639 238.711197 
L 316.046709 238.711197 
L 316.046709 234.956283 
L 316.827231 234.956283 
L 316.827231 231.201368 
L 316.827231 231.201368 
L 316.827231 231.201368 
L 446.802 231.201368 
" style="fill:none;stroke:#f5deb3;stroke-linecap:square;stroke-width:1.5;"/>
   </g>
   <g id="line2d_4">
    <path clip-path="url(#p7188c5d7c5)" d="M 212.229523 291.28 
L 212.229523 287.525086 
L 219.27016 287.525086 
L 219.27016 283.770171 
L 223.034987 283.770171 
L 223.034987 280.015257 
L 237.32418 280.015257 
L 237.32418 276.260342 
L 239.808618 276.260342 
L 239.808618 272.505428 
L 271.681171 272.505428 
L 271.681171 268.750513 
L 273.731897 268.750513 
L 273.731897 264.995599 
L 276.500988 264.995599 
L 276.500988 261.240684 
L 280.642164 261.240684 
L 280.642164 257.48577 
L 282.103801 257.48577 
L 282.103801 253.730855 
L 286.301709 253.730855 
L 286.301709 249.975941 
L 288.273834 249.975941 
L 288.273834 246.221026 
L 289.340919 246.221026 
L 289.340919 242.466112 
L 292.109451 242.466112 
L 292.109451 238.711197 
L 295.191208 238.711197 
L 295.191208 234.956283 
L 295.314207 234.956283 
L 295.314207 231.201368 
L 296.278025 231.201368 
L 296.278025 227.446454 
L 298.332255 227.446454 
L 298.332255 223.691539 
L 300.331351 223.691539 
L 300.331351 219.936625 
L 300.455615 219.936625 
L 300.455615 216.18171 
L 302.309642 216.18171 
L 302.309642 212.426796 
L 302.528717 212.426796 
L 302.528717 208.671881 
L 306.746027 208.671881 
L 306.746027 204.916967 
L 309.401673 204.916967 
L 309.401673 201.162052 
L 309.756033 201.162052 
L 309.756033 197.407138 
L 311.880729 197.407138 
L 311.880729 193.652223 
L 311.880729 193.652223 
L 311.880729 193.652223 
L 446.802 193.652223 
" style="fill:none;stroke:#f5deb3;stroke-linecap:square;stroke-width:1.5;"/>
   </g>
   <g id="line2d_5">
    <path clip-path="url(#p7188c5d7c5)" d="M 187.191982 291.28 
L 187.191982 287.525086 
L 219.630719 287.525086 
L 219.630719 283.770171 
L 222.058128 283.770171 
L 222.058128 280.015257 
L 225.172194 280.015257 
L 225.172194 276.260342 
L 236.62523 276.260342 
L 236.62523 272.505428 
L 241.638214 272.505428 
L 241.638214 268.750513 
L 252.185754 268.750513 
L 252.185754 264.995599 
L 252.82759 264.995599 
L 252.82759 261.240684 
L 260.68831 261.240684 
L 260.68831 257.48577 
L 273.276179 257.48577 
L 273.276179 253.730855 
L 282.290828 253.730855 
L 282.290828 249.975941 
L 286.60974 249.975941 
L 286.60974 246.221026 
L 287.461581 246.221026 
L 287.461581 242.466112 
L 297.711928 242.466112 
L 297.711928 238.711197 
L 300.726709 238.711197 
L 300.726709 234.956283 
L 305.873055 234.956283 
L 305.873055 231.201368 
L 308.681154 231.201368 
L 308.681154 227.446454 
L 308.908914 227.446454 
L 308.908914 223.691539 
L 312.305563 223.691539 
L 312.305563 219.936625 
L 319.934976 219.936625 
L 319.934976 216.18171 
L 330.044171 216.18171 
L 330.044171 212.426796 
L 335.094898 212.426796 
L 335.094898 208.671881 
L 336.792448 208.671881 
L 336.792448 204.916967 
L 344.40779 204.916967 
L 344.40779 201.162052 
L 344.40779 201.162052 
L 344.40779 201.162052 
L 446.802 201.162052 
" style="fill:none;stroke:#f5deb3;stroke-linecap:square;stroke-width:1.5;"/>
   </g>
   <g id="line2d_6"/>
   <g id="line2d_7">
    <path clip-path="url(#p7188c5d7c5)" d="M 191.922568 291.28 
L 191.922568 287.525086 
L 244.192865 287.525086 
L 244.192865 283.770171 
L 244.917268 283.770171 
L 244.917268 280.015257 
L 273.358347 280.015257 
L 273.358347 276.260342 
L 275.055556 276.260342 
L 275.055556 272.505428 
L 296.720765 272.505428 
L 296.720765 268.750513 
L 301.245236 268.750513 
L 301.245236 264.995599 
L 304.7831 264.995599 
L 304.7831 261.240684 
L 307.294254 261.240684 
L 307.294254 257.48577 
L 323.741135 257.48577 
L 323.741135 253.730855 
L 337.994339 253.730855 
L 337.994339 249.975941 
L 342.304947 249.975941 
L 342.304947 246.221026 
L 344.389915 246.221026 
L 344.389915 242.466112 
L 349.840558 242.466112 
L 349.840558 238.711197 
L 376.782236 238.711197 
L 376.782236 234.956283 
L 384.073585 234.956283 
L 384.073585 231.201368 
L 425.3742 231.201368 
L 425.3742 227.446454 
L 430.773485 227.446454 
L 430.773485 223.691539 
L 433.186953 223.691539 
L 433.186953 219.936625 
L 437.32408 219.936625 
L 437.32408 216.18171 
L 456.119091 216.18171 
L 456.119091 212.426796 
L 458.829522 212.426796 
L 458.829522 208.671881 
L 461.8 208.671881 
" style="fill:none;stroke:#f5deb3;stroke-linecap:square;stroke-width:1.5;"/>
   </g>
   <g id="line2d_8"/>
   <g id="line2d_9">
    <path clip-path="url(#p7188c5d7c5)" d="M 191.797208 291.28 
L 191.797208 287.525086 
L 192.699695 287.525086 
L 192.699695 283.770171 
L 227.710742 283.770171 
L 227.710742 280.015257 
L 250.561593 280.015257 
L 250.561593 276.260342 
L 267.920499 276.260342 
L 267.920499 272.505428 
L 270.15208 272.505428 
L 270.15208 268.750513 
L 297.74459 268.750513 
L 297.74459 264.995599 
L 310.350794 264.995599 
L 310.350794 261.240684 
L 322.513361 261.240684 
L 322.513361 257.48577 
L 325.1894 257.48577 
L 325.1894 253.730855 
L 325.603699 253.730855 
L 325.603699 249.975941 
L 325.768898 249.975941 
L 325.768898 246.221026 
L 336.333217 246.221026 
L 336.333217 242.466112 
L 336.541269 242.466112 
L 336.541269 238.711197 
L 337.212861 238.711197 
L 337.212861 234.956283 
L 337.723249 234.956283 
L 337.723249 231.201368 
L 339.135873 231.201368 
L 339.135873 227.446454 
L 347.627483 227.446454 
L 347.627483 223.691539 
L 348.01119 223.691539 
L 348.01119 219.936625 
L 352.457336 219.936625 
L 352.457336 216.18171 
L 353.2504 216.18171 
L 353.2504 212.426796 
L 353.541832 212.426796 
L 353.541832 208.671881 
L 354.072493 208.671881 
L 354.072493 204.916967 
L 360.416525 204.916967 
L 360.416525 201.162052 
L 361.749941 201.162052 
L 361.749941 197.407138 
L 363.326584 197.407138 
L 363.326584 193.652223 
L 365.894683 193.652223 
L 365.894683 189.897309 
L 365.962728 189.897309 
L 365.962728 186.142394 
L 367.44352 186.142394 
L 367.44352 182.38748 
L 367.903303 182.38748 
L 367.903303 178.632565 
L 367.989082 178.632565 
L 367.989082 174.877651 
L 380.146023 174.877651 
L 380.146023 171.122736 
L 384.115037 171.122736 
L 384.115037 167.367822 
L 390.088652 167.367822 
L 390.088652 163.612907 
L 390.371551 163.612907 
L 390.371551 159.857993 
L 392.016431 159.857993 
L 392.016431 156.103079 
L 392.14145 156.103079 
L 392.14145 152.348164 
L 393.226112 152.348164 
L 393.226112 148.59325 
L 413.863274 148.59325 
L 413.863274 144.838335 
L 413.89766 144.838335 
L 413.89766 141.083421 
L 414.101499 141.083421 
L 414.101499 137.328506 
L 414.174608 137.328506 
L 414.174608 133.573592 
L 414.195658 133.573592 
L 414.195658 129.818677 
L 414.52415 129.818677 
L 414.52415 126.063763 
L 414.790354 126.063763 
L 414.790354 122.308848 
L 415.106412 122.308848 
L 415.106412 118.553934 
L 415.202898 118.553934 
L 415.202898 114.799019 
L 420.293406 114.799019 
L 420.293406 111.044105 
L 424.873912 111.044105 
L 424.873912 107.28919 
L 429.765403 107.28919 
L 429.765403 103.534276 
L 429.765403 103.534276 
L 429.765403 103.534276 
L 446.802 103.534276 
" style="fill:none;stroke:#f5deb3;stroke-linecap:square;stroke-width:1.5;"/>
   </g>
   <g id="line2d_10">
    <path clip-path="url(#p7188c5d7c5)" d="M 332.594596 291.28 
L 332.594596 287.525086 
L 363.652241 287.525086 
L 363.652241 283.770171 
L 363.652241 283.770171 
L 363.652241 283.770171 
L 446.802 283.770171 
" style="fill:none;stroke:#f5deb3;stroke-linecap:square;stroke-width:1.5;"/>
   </g>
   <g id="line2d_11">
    <path clip-path="url(#p7188c5d7c5)" d="M 211.826731 291.28 
L 211.826731 287.525086 
L 228.012479 287.525086 
L 228.012479 283.770171 
L 243.749846 283.770171 
L 243.749846 280.015257 
L 244.722244 280.015257 
L 244.722244 276.260342 
L 251.53036 276.260342 
L 251.53036 272.505428 
L 262.31048 272.505428 
L 262.31048 268.750513 
L 269.954361 268.750513 
L 269.954361 264.995599 
L 279.89147 264.995599 
L 279.89147 261.240684 
L 280.071758 261.240684 
L 280.071758 257.48577 
L 286.988501 257.48577 
L 286.988501 253.730855 
L 287.381698 253.730855 
L 287.381698 249.975941 
L 287.811527 249.975941 
L 287.811527 246.221026 
L 292.676834 246.221026 
L 292.676834 242.466112 
L 300.544112 242.466112 
L 300.544112 238.711197 
L 303.000986 238.711197 
L 303.000986 234.956283 
L 304.034153 234.956283 
L 304.034153 231.201368 
L 305.731518 231.201368 
L 305.731518 227.446454 
L 312.092235 227.446454 
L 312.092235 223.691539 
L 312.874966 223.691539 
L 312.874966 219.936625 
L 314.007445 219.936625 
L 314.007445 216.18171 
L 319.326242 216.18171 
L 319.326242 212.426796 
L 322.323452 212.426796 
L 322.323452 208.671881 
L 323.757547 208.671881 
L 323.757547 204.916967 
L 326.48908 204.916967 
L 326.48908 201.162052 
L 330.022735 201.162052 
L 330.022735 197.407138 
L 342.925762 197.407138 
L 342.925762 193.652223 
L 345.917993 193.652223 
L 345.917993 189.897309 
L 350.034622 189.897309 
L 350.034622 186.142394 
L 355.983069 186.142394 
L 355.983069 182.38748 
L 364.834912 182.38748 
L 364.834912 178.632565 
L 364.834912 178.632565 
L 364.834912 178.632565 
L 446.802 178.632565 
" style="fill:none;stroke:#f5deb3;stroke-linecap:square;stroke-width:1.5;"/>
   </g>
   <g id="line2d_12">
    <path clip-path="url(#p7188c5d7c5)" d="M 221.908402 291.28 
L 221.908402 287.525086 
L 284.401423 287.525086 
L 284.401423 283.770171 
L 284.401423 283.770171 
L 284.401423 283.770171 
L 446.802 283.770171 
" style="fill:none;stroke:#f5deb3;stroke-linecap:square;stroke-width:1.5;"/>
   </g>
   <g id="line2d_13"/>
   <g id="line2d_14">
    <path clip-path="url(#p7188c5d7c5)" d="M 176.526415 291.28 
L 176.526415 287.525086 
L 199.646221 287.525086 
L 199.646221 283.770171 
L 221.239933 283.770171 
L 221.239933 280.015257 
L 232.376763 280.015257 
L 232.376763 276.260342 
L 238.932375 276.260342 
L 238.932375 272.505428 
L 241.335384 272.505428 
L 241.335384 268.750513 
L 244.731743 268.750513 
L 244.731743 264.995599 
L 253.92412 264.995599 
L 253.92412 261.240684 
L 260.525562 261.240684 
L 260.525562 257.48577 
L 268.981072 257.48577 
L 268.981072 253.730855 
L 276.914143 253.730855 
L 276.914143 249.975941 
L 288.364026 249.975941 
L 288.364026 246.221026 
L 293.832958 246.221026 
L 293.832958 242.466112 
L 305.349971 242.466112 
L 305.349971 238.711197 
L 306.686572 238.711197 
L 306.686572 234.956283 
L 307.365437 234.956283 
L 307.365437 231.201368 
L 309.547488 231.201368 
L 309.547488 227.446454 
L 310.350794 227.446454 
L 310.350794 223.691539 
L 311.062191 223.691539 
L 311.062191 219.936625 
L 313.603113 219.936625 
L 313.603113 216.18171 
L 316.634421 216.18171 
L 316.634421 212.426796 
L 317.054392 212.426796 
L 317.054392 208.671881 
L 317.054392 208.671881 
L 317.054392 208.671881 
L 446.802 208.671881 
" style="fill:none;stroke:#f5deb3;stroke-linecap:square;stroke-width:1.5;"/>
   </g>
   <g id="line2d_15"/>
   <g id="line2d_16">
    <path clip-path="url(#p7188c5d7c5)" d="M 256.938284 291.28 
L 256.938284 287.525086 
L 282.752764 287.525086 
L 282.752764 283.770171 
L 289.484328 283.770171 
L 289.484328 280.015257 
L 291.073032 280.015257 
L 291.073032 276.260342 
L 297.974436 276.260342 
L 297.974436 272.505428 
L 316.385861 272.505428 
L 316.385861 268.750513 
L 335.166152 268.750513 
L 335.166152 264.995599 
L 335.241808 264.995599 
L 335.241808 261.240684 
L 341.396778 261.240684 
L 341.396778 257.48577 
L 351.832789 257.48577 
L 351.832789 253.730855 
L 359.551167 253.730855 
L 359.551167 249.975941 
L 368.662289 249.975941 
L 368.662289 246.221026 
L 370.515714 246.221026 
L 370.515714 242.466112 
L 371.129687 242.466112 
L 371.129687 238.711197 
L 371.594738 238.711197 
L 371.594738 234.956283 
L 372.384674 234.956283 
L 372.384674 231.201368 
L 378.767532 231.201368 
L 378.767532 227.446454 
L 385.544304 227.446454 
L 385.544304 223.691539 
L 386.543828 223.691539 
L 386.543828 219.936625 
L 399.940739 219.936625 
L 399.940739 216.18171 
L 401.920624 216.18171 
L 401.920624 212.426796 
L 402.191492 212.426796 
L 402.191492 208.671881 
L 405.399242 208.671881 
L 405.399242 204.916967 
L 409.217615 204.916967 
L 409.217615 201.162052 
L 412.214187 201.162052 
L 412.214187 197.407138 
L 413.513987 197.407138 
L 413.513987 193.652223 
L 422.581865 193.652223 
L 422.581865 189.897309 
L 423.889076 189.897309 
L 423.889076 186.142394 
L 431.838851 186.142394 
L 431.838851 182.38748 
L 431.838851 182.38748 
L 431.838851 182.38748 
L 446.802 182.38748 
" style="fill:none;stroke:#f5deb3;stroke-linecap:square;stroke-width:1.5;"/>
   </g>
   <g id="line2d_17"/>
   <g id="line2d_18">
    <path clip-path="url(#p7188c5d7c5)" d="M 170.073236 291.28 
L 170.073236 287.525086 
L 207.523112 287.525086 
L 207.523112 283.770171 
L 213.745012 283.770171 
L 213.745012 280.015257 
L 217.590134 280.015257 
L 217.590134 276.260342 
L 220.018837 276.260342 
L 220.018837 272.505428 
L 223.871163 272.505428 
L 223.871163 268.750513 
L 224.252473 268.750513 
L 224.252473 264.995599 
L 231.253427 264.995599 
L 231.253427 261.240684 
L 234.38429 261.240684 
L 234.38429 257.48577 
L 241.834788 257.48577 
L 241.834788 253.730855 
L 245.772049 253.730855 
L 245.772049 249.975941 
L 247.045729 249.975941 
L 247.045729 246.221026 
L 254.380081 246.221026 
L 254.380081 242.466112 
L 255.269025 242.466112 
L 255.269025 238.711197 
L 255.996269 238.711197 
L 255.996269 234.956283 
L 258.033387 234.956283 
L 258.033387 231.201368 
L 258.769163 231.201368 
L 258.769163 227.446454 
L 271.409823 227.446454 
L 271.409823 223.691539 
L 281.51825 223.691539 
L 281.51825 219.936625 
L 282.195725 219.936625 
L 282.195725 216.18171 
L 289.245679 216.18171 
L 289.245679 212.426796 
L 290.061284 212.426796 
L 290.061284 208.671881 
L 290.061284 208.671881 
L 290.061284 208.671881 
L 446.802 208.671881 
" style="fill:none;stroke:#f5deb3;stroke-linecap:square;stroke-width:1.5;"/>
   </g>
   <g id="line2d_19">
    <path clip-path="url(#p7188c5d7c5)" d="M 299.042127 291.28 
L 299.042127 287.525086 
L 302.543438 287.525086 
L 302.543438 283.770171 
L 304.919746 283.770171 
L 304.919746 280.015257 
L 308.477309 280.015257 
L 308.477309 276.260342 
L 308.538151 276.260342 
L 308.538151 272.505428 
L 308.740782 272.505428 
L 308.740782 268.750513 
L 309.873102 268.750513 
L 309.873102 264.995599 
L 310.363207 264.995599 
L 310.363207 261.240684 
L 310.864972 261.240684 
L 310.864972 257.48577 
L 310.928004 257.48577 
L 310.928004 253.730855 
L 316.423962 253.730855 
L 316.423962 249.975941 
L 323.284786 249.975941 
L 323.284786 246.221026 
L 328.997428 246.221026 
L 328.997428 242.466112 
L 332.036521 242.466112 
L 332.036521 238.711197 
L 349.086108 238.711197 
L 349.086108 234.956283 
L 407.715119 234.956283 
L 407.715119 231.201368 
L 407.715119 231.201368 
L 407.715119 231.201368 
L 446.802 231.201368 
" style="fill:none;stroke:#f5deb3;stroke-linecap:square;stroke-width:1.5;"/>
   </g>
   <g id="line2d_20">
    <path clip-path="url(#p7188c5d7c5)" d="M 198.034148 291.28 
L 198.034148 287.525086 
L 202.692988 287.525086 
L 202.692988 283.770171 
L 233.96346 283.770171 
L 233.96346 280.015257 
L 239.262166 280.015257 
L 239.262166 276.260342 
L 244.152173 276.260342 
L 244.152173 272.505428 
L 246.213285 272.505428 
L 246.213285 268.750513 
L 247.787809 268.750513 
L 247.787809 264.995599 
L 247.996513 264.995599 
L 247.996513 261.240684 
L 258.108901 261.240684 
L 258.108901 257.48577 
L 268.060451 257.48577 
L 268.060451 253.730855 
L 270.344607 253.730855 
L 270.344607 249.975941 
L 272.108362 249.975941 
L 272.108362 246.221026 
L 272.232484 246.221026 
L 272.232484 242.466112 
L 272.679447 242.466112 
L 272.679447 238.711197 
L 273.783799 238.711197 
L 273.783799 234.956283 
L 279.243409 234.956283 
L 279.243409 231.201368 
L 279.401462 231.201368 
L 279.401462 227.446454 
L 280.226289 227.446454 
L 280.226289 223.691539 
L 281.196021 223.691539 
L 281.196021 219.936625 
L 284.788748 219.936625 
L 284.788748 216.18171 
L 287.142346 216.18171 
L 287.142346 212.426796 
L 291.351046 212.426796 
L 291.351046 208.671881 
L 304.234975 208.671881 
L 304.234975 204.916967 
L 314.958551 204.916967 
L 314.958551 201.162052 
L 327.585432 201.162052 
L 327.585432 197.407138 
L 327.968925 197.407138 
L 327.968925 193.652223 
L 332.468681 193.652223 
L 332.468681 189.897309 
L 334.780887 189.897309 
L 334.780887 186.142394 
L 334.780887 186.142394 
L 334.780887 186.142394 
L 446.802 186.142394 
" style="fill:none;stroke:#f5deb3;stroke-linecap:square;stroke-width:1.5;"/>
   </g>
   <g id="line2d_21">
    <path clip-path="url(#p7188c5d7c5)" d="M 314.131365 291.28 
L 314.131365 287.525086 
L 314.131365 287.525086 
L 314.131365 287.525086 
L 446.802 287.525086 
" style="fill:none;stroke:#f5deb3;stroke-linecap:square;stroke-width:1.5;"/>
   </g>
   <g id="line2d_22">
    <path clip-path="url(#p7188c5d7c5)" d="M 270.576626 291.28 
L 270.576626 287.525086 
L 290.039805 287.525086 
L 290.039805 283.770171 
L 297.324253 283.770171 
L 297.324253 280.015257 
L 299.09866 280.015257 
L 299.09866 276.260342 
L 301.258374 276.260342 
L 301.258374 272.505428 
L 305.714287 272.505428 
L 305.714287 268.750513 
L 313.297755 268.750513 
L 313.297755 264.995599 
L 313.47242 264.995599 
L 313.47242 261.240684 
L 315.567468 261.240684 
L 315.567468 257.48577 
L 315.567468 257.48577 
L 315.567468 257.48577 
L 446.802 257.48577 
" style="fill:none;stroke:#f5deb3;stroke-linecap:square;stroke-width:1.5;"/>
   </g>
   <g id="line2d_23">
    <path clip-path="url(#p7188c5d7c5)" d="M 254.320792 291.28 
L 254.320792 287.525086 
L 254.320792 287.525086 
L 254.320792 287.525086 
L 446.802 287.525086 
" style="fill:none;stroke:#f5deb3;stroke-linecap:square;stroke-width:1.5;"/>
   </g>
   <g id="line2d_24">
    <path clip-path="url(#p7188c5d7c5)" d="M 300.425967 291.28 
L 300.425967 287.525086 
L 305.44019 287.525086 
L 305.44019 283.770171 
L 307.578108 283.770171 
L 307.578108 280.015257 
L 337.216851 280.015257 
L 337.216851 276.260342 
L 337.244134 276.260342 
L 337.244134 272.505428 
L 338.177001 272.505428 
L 338.177001 268.750513 
L 338.281164 268.750513 
L 338.281164 264.995599 
L 338.433906 264.995599 
L 338.433906 261.240684 
L 341.59641 261.240684 
L 341.59641 257.48577 
L 344.044553 257.48577 
L 344.044553 253.730855 
L 345.535109 253.730855 
L 345.535109 249.975941 
L 348.128926 249.975941 
L 348.128926 246.221026 
L 363.693349 246.221026 
L 363.693349 242.466112 
L 371.582588 242.466112 
L 371.582588 238.711197 
L 373.492754 238.711197 
L 373.492754 234.956283 
L 406.395349 234.956283 
L 406.395349 231.201368 
L 407.462877 231.201368 
L 407.462877 227.446454 
L 412.276541 227.446454 
L 412.276541 223.691539 
L 425.881849 223.691539 
L 425.881849 219.936625 
L 426.694518 219.936625 
L 426.694518 216.18171 
L 427.107462 216.18171 
L 427.107462 212.426796 
L 428.292731 212.426796 
L 428.292731 208.671881 
L 430.883525 208.671881 
L 430.883525 204.916967 
L 444.198273 204.916967 
L 444.198273 201.162052 
L 444.198273 201.162052 
L 444.198273 201.162052 
L 446.802 201.162052 
" style="fill:none;stroke:#f5deb3;stroke-linecap:square;stroke-width:1.5;"/>
   </g>
   <g id="line2d_25">
    <path clip-path="url(#p7188c5d7c5)" d="M 303.2437 291.28 
L 303.2437 287.525086 
L 303.572378 287.525086 
L 303.572378 283.770171 
L 304.409549 283.770171 
L 304.409549 280.015257 
L 304.409549 280.015257 
L 304.409549 280.015257 
L 446.802 280.015257 
" style="fill:none;stroke:#f5deb3;stroke-linecap:square;stroke-width:1.5;"/>
   </g>
   <g id="line2d_26">
    <path clip-path="url(#p7188c5d7c5)" d="M 240.226636 291.28 
L 240.226636 288.115746 
L 295.605922 288.115746 
L 295.605922 284.951492 
L 315.506925 284.951492 
L 315.506925 281.787239 
L 317.196475 281.787239 
L 317.196475 278.622985 
L 337.945282 278.622985 
L 337.945282 275.458731 
L 342.30092 275.458731 
L 342.30092 272.294477 
L 342.30092 272.294477 
L 342.30092 272.294477 
L 446.802 272.294477 
" style="fill:none;stroke:#f5deb3;stroke-linecap:square;stroke-width:1.5;"/>
   </g>
   <g id="line2d_27"/>
   <g id="line2d_28">
    <path clip-path="url(#p7188c5d7c5)" d="M 297.592992 291.28 
L 297.592992 287.525086 
L 297.734852 287.525086 
L 297.734852 283.770171 
L 299.566459 283.770171 
L 299.566459 280.015257 
L 329.465666 280.015257 
L 329.465666 276.260342 
L 329.846287 276.260342 
L 329.846287 272.505428 
L 353.20115 272.505428 
L 353.20115 268.750513 
L 355.171111 268.750513 
L 355.171111 264.995599 
L 355.877193 264.995599 
L 355.877193 261.240684 
L 368.765308 261.240684 
L 368.765308 257.48577 
L 373.360343 257.48577 
L 373.360343 253.730855 
L 374.34452 253.730855 
L 374.34452 249.975941 
L 375.366176 249.975941 
L 375.366176 246.221026 
L 378.697281 246.221026 
L 378.697281 242.466112 
L 382.681663 242.466112 
L 382.681663 238.711197 
L 383.94013 238.711197 
L 383.94013 234.956283 
L 384.170762 234.956283 
L 384.170762 231.201368 
L 389.661018 231.201368 
L 389.661018 227.446454 
L 395.222689 227.446454 
L 395.222689 223.691539 
L 403.492261 223.691539 
L 403.492261 219.936625 
L 404.706593 219.936625 
L 404.706593 216.18171 
L 404.959913 216.18171 
L 404.959913 212.426796 
L 410.266621 212.426796 
L 410.266621 208.671881 
L 415.008124 208.671881 
L 415.008124 204.916967 
L 418.307878 204.916967 
L 418.307878 201.162052 
L 425.153837 201.162052 
L 425.153837 197.407138 
L 425.84324 197.407138 
L 425.84324 193.652223 
L 428.205172 193.652223 
L 428.205172 189.897309 
L 428.205172 189.897309 
L 428.205172 189.897309 
L 446.802 189.897309 
" style="fill:none;stroke:#f5deb3;stroke-linecap:square;stroke-width:1.5;"/>
   </g>
   <g id="line2d_29">
    <path clip-path="url(#p7188c5d7c5)" d="M 271.471326 291.28 
L 271.471326 287.525086 
L 289.28908 287.525086 
L 289.28908 283.770171 
L 289.28908 283.770171 
L 289.28908 283.770171 
L 446.802 283.770171 
" style="fill:none;stroke:#f5deb3;stroke-linecap:square;stroke-width:1.5;"/>
   </g>
   <g id="line2d_30">
    <path clip-path="url(#p7188c5d7c5)" d="M 230.857319 291.28 
L 230.857319 287.525086 
L 249.879242 287.525086 
L 249.879242 283.770171 
L 268.961081 283.770171 
L 268.961081 280.015257 
L 274.21549 280.015257 
L 274.21549 276.260342 
L 291.295952 276.260342 
L 291.295952 272.505428 
L 296.94057 272.505428 
L 296.94057 268.750513 
L 305.577574 268.750513 
L 305.577574 264.995599 
L 315.79932 264.995599 
L 315.79932 261.240684 
L 316.503088 261.240684 
L 316.503088 257.48577 
L 317.179881 257.48577 
L 317.179881 253.730855 
L 317.179881 253.730855 
L 317.179881 253.730855 
L 446.802 253.730855 
" style="fill:none;stroke:#f5deb3;stroke-linecap:square;stroke-width:1.5;"/>
   </g>
   <g id="matplotlib.axis_1">
    <g id="xtick_1">
     <g id="line2d_31">
      <path clip-path="url(#p7188c5d7c5)" d="M 59.72 291.28 
L 59.72 6.845228 
" style="fill:none;stroke:#b0b0b0;stroke-linecap:square;stroke-width:0.8;"/>
     </g>
     <g id="line2d_32">
      <defs>
       <path d="M 0 0 
L 0 3.5 
" id="ma849c7304d" style="stroke:#000000;stroke-width:0.8;"/>
      </defs>
      <g>
       <use style="stroke:#000000;stroke-width:0.8;" x="59.72" xlink:href="#ma849c7304d" y="291.28"/>
      </g>
     </g>
     <g id="text_1">
      <!-- 0 -->
      <defs>
       <path d="M 31.78125 66.40625 
Q 24.171875 66.40625 20.328125 58.90625 
Q 16.5 51.421875 16.5 36.375 
Q 16.5 21.390625 20.328125 13.890625 
Q 24.171875 6.390625 31.78125 6.390625 
Q 39.453125 6.390625 43.28125 13.890625 
Q 47.125 21.390625 47.125 36.375 
Q 47.125 51.421875 43.28125 58.90625 
Q 39.453125 66.40625 31.78125 66.40625 
z
M 31.78125 74.21875 
Q 44.046875 74.21875 50.515625 64.515625 
Q 56.984375 54.828125 56.984375 36.375 
Q 56.984375 17.96875 50.515625 8.265625 
Q 44.046875 -1.421875 31.78125 -1.421875 
Q 19.53125 -1.421875 13.0625 8.265625 
Q 6.59375 17.96875 6.59375 36.375 
Q 6.59375 54.828125 13.0625 64.515625 
Q 19.53125 74.21875 31.78125 74.21875 
z
" id="DejaVuSans-30"/>
      </defs>
      <g transform="translate(53.3575 313.476875)scale(0.2 -0.2)">
       <use xlink:href="#DejaVuSans-30"/>
      </g>
     </g>
    </g>
    <g id="xtick_2">
     <g id="line2d_33">
      <path clip-path="url(#p7188c5d7c5)" d="M 188.747333 291.28 
L 188.747333 6.845228 
" style="fill:none;stroke:#b0b0b0;stroke-linecap:square;stroke-width:0.8;"/>
     </g>
     <g id="line2d_34">
      <g>
       <use style="stroke:#000000;stroke-width:0.8;" x="188.747333" xlink:href="#ma849c7304d" y="291.28"/>
      </g>
     </g>
     <g id="text_2">
      <!-- 2 -->
      <defs>
       <path d="M 19.1875 8.296875 
L 53.609375 8.296875 
L 53.609375 0 
L 7.328125 0 
L 7.328125 8.296875 
Q 12.9375 14.109375 22.625 23.890625 
Q 32.328125 33.6875 34.8125 36.53125 
Q 39.546875 41.84375 41.421875 45.53125 
Q 43.3125 49.21875 43.3125 52.78125 
Q 43.3125 58.59375 39.234375 62.25 
Q 35.15625 65.921875 28.609375 65.921875 
Q 23.96875 65.921875 18.8125 64.3125 
Q 13.671875 62.703125 7.8125 59.421875 
L 7.8125 69.390625 
Q 13.765625 71.78125 18.9375 73 
Q 24.125 74.21875 28.421875 74.21875 
Q 39.75 74.21875 46.484375 68.546875 
Q 53.21875 62.890625 53.21875 53.421875 
Q 53.21875 48.921875 51.53125 44.890625 
Q 49.859375 40.875 45.40625 35.40625 
Q 44.1875 33.984375 37.640625 27.21875 
Q 31.109375 20.453125 19.1875 8.296875 
z
" id="DejaVuSans-32"/>
      </defs>
      <g transform="translate(182.384833 313.476875)scale(0.2 -0.2)">
       <use xlink:href="#DejaVuSans-32"/>
      </g>
     </g>
    </g>
    <g id="xtick_3">
     <g id="line2d_35">
      <path clip-path="url(#p7188c5d7c5)" d="M 317.774667 291.28 
L 317.774667 6.845228 
" style="fill:none;stroke:#b0b0b0;stroke-linecap:square;stroke-width:0.8;"/>
     </g>
     <g id="line2d_36">
      <g>
       <use style="stroke:#000000;stroke-width:0.8;" x="317.774667" xlink:href="#ma849c7304d" y="291.28"/>
      </g>
     </g>
     <g id="text_3">
      <!-- 4 -->
      <defs>
       <path d="M 37.796875 64.3125 
L 12.890625 25.390625 
L 37.796875 25.390625 
z
M 35.203125 72.90625 
L 47.609375 72.90625 
L 47.609375 25.390625 
L 58.015625 25.390625 
L 58.015625 17.1875 
L 47.609375 17.1875 
L 47.609375 0 
L 37.796875 0 
L 37.796875 17.1875 
L 4.890625 17.1875 
L 4.890625 26.703125 
z
" id="DejaVuSans-34"/>
      </defs>
      <g transform="translate(311.412167 313.476875)scale(0.2 -0.2)">
       <use xlink:href="#DejaVuSans-34"/>
      </g>
     </g>
    </g>
    <g id="xtick_4">
     <g id="line2d_37">
      <path clip-path="url(#p7188c5d7c5)" d="M 446.802 291.28 
L 446.802 6.845228 
" style="fill:none;stroke:#b0b0b0;stroke-linecap:square;stroke-width:0.8;"/>
     </g>
     <g id="line2d_38">
      <g>
       <use style="stroke:#000000;stroke-width:0.8;" x="446.802" xlink:href="#ma849c7304d" y="291.28"/>
      </g>
     </g>
     <g id="text_4">
      <!-- 6 -->
      <defs>
       <path d="M 33.015625 40.375 
Q 26.375 40.375 22.484375 35.828125 
Q 18.609375 31.296875 18.609375 23.390625 
Q 18.609375 15.53125 22.484375 10.953125 
Q 26.375 6.390625 33.015625 6.390625 
Q 39.65625 6.390625 43.53125 10.953125 
Q 47.40625 15.53125 47.40625 23.390625 
Q 47.40625 31.296875 43.53125 35.828125 
Q 39.65625 40.375 33.015625 40.375 
z
M 52.59375 71.296875 
L 52.59375 62.3125 
Q 48.875 64.0625 45.09375 64.984375 
Q 41.3125 65.921875 37.59375 65.921875 
Q 27.828125 65.921875 22.671875 59.328125 
Q 17.53125 52.734375 16.796875 39.40625 
Q 19.671875 43.65625 24.015625 45.921875 
Q 28.375 48.1875 33.59375 48.1875 
Q 44.578125 48.1875 50.953125 41.515625 
Q 57.328125 34.859375 57.328125 23.390625 
Q 57.328125 12.15625 50.6875 5.359375 
Q 44.046875 -1.421875 33.015625 -1.421875 
Q 20.359375 -1.421875 13.671875 8.265625 
Q 6.984375 17.96875 6.984375 36.375 
Q 6.984375 53.65625 15.1875 63.9375 
Q 23.390625 74.21875 37.203125 74.21875 
Q 40.921875 74.21875 44.703125 73.484375 
Q 48.484375 72.75 52.59375 71.296875 
z
" id="DejaVuSans-36"/>
      </defs>
      <g transform="translate(440.4395 313.476875)scale(0.2 -0.2)">
       <use xlink:href="#DejaVuSans-36"/>
      </g>
     </g>
    </g>
    <g id="xtick_5">
     <g id="line2d_39">
      <path clip-path="url(#p7188c5d7c5)" d="M 79.140549 291.28 
L 79.140549 6.845228 
" style="fill:none;stroke:#b0b0b0;stroke-linecap:square;stroke-width:0.8;"/>
     </g>
     <g id="line2d_40">
      <defs>
       <path d="M 0 0 
L 0 2 
" id="mc26a3c523f" style="stroke:#000000;stroke-width:0.6;"/>
      </defs>
      <g>
       <use style="stroke:#000000;stroke-width:0.6;" x="79.140549" xlink:href="#mc26a3c523f" y="291.28"/>
      </g>
     </g>
    </g>
    <g id="xtick_6">
     <g id="line2d_41">
      <path clip-path="url(#p7188c5d7c5)" d="M 90.500842 291.28 
L 90.500842 6.845228 
" style="fill:none;stroke:#b0b0b0;stroke-linecap:square;stroke-width:0.8;"/>
     </g>
     <g id="line2d_42">
      <g>
       <use style="stroke:#000000;stroke-width:0.6;" x="90.500842" xlink:href="#mc26a3c523f" y="291.28"/>
      </g>
     </g>
    </g>
    <g id="xtick_7">
     <g id="line2d_43">
      <path clip-path="url(#p7188c5d7c5)" d="M 98.561098 291.28 
L 98.561098 6.845228 
" style="fill:none;stroke:#b0b0b0;stroke-linecap:square;stroke-width:0.8;"/>
     </g>
     <g id="line2d_44">
      <g>
       <use style="stroke:#000000;stroke-width:0.6;" x="98.561098" xlink:href="#mc26a3c523f" y="291.28"/>
      </g>
     </g>
    </g>
    <g id="xtick_8">
     <g id="line2d_45">
      <path clip-path="url(#p7188c5d7c5)" d="M 104.813118 291.28 
L 104.813118 6.845228 
" style="fill:none;stroke:#b0b0b0;stroke-linecap:square;stroke-width:0.8;"/>
     </g>
     <g id="line2d_46">
      <g>
       <use style="stroke:#000000;stroke-width:0.6;" x="104.813118" xlink:href="#mc26a3c523f" y="291.28"/>
      </g>
     </g>
    </g>
    <g id="xtick_9">
     <g id="line2d_47">
      <path clip-path="url(#p7188c5d7c5)" d="M 109.92139 291.28 
L 109.92139 6.845228 
" style="fill:none;stroke:#b0b0b0;stroke-linecap:square;stroke-width:0.8;"/>
     </g>
     <g id="line2d_48">
      <g>
       <use style="stroke:#000000;stroke-width:0.6;" x="109.92139" xlink:href="#mc26a3c523f" y="291.28"/>
      </g>
     </g>
    </g>
    <g id="xtick_10">
     <g id="line2d_49">
      <path clip-path="url(#p7188c5d7c5)" d="M 114.240373 291.28 
L 114.240373 6.845228 
" style="fill:none;stroke:#b0b0b0;stroke-linecap:square;stroke-width:0.8;"/>
     </g>
     <g id="line2d_50">
      <g>
       <use style="stroke:#000000;stroke-width:0.6;" x="114.240373" xlink:href="#mc26a3c523f" y="291.28"/>
      </g>
     </g>
    </g>
    <g id="xtick_11">
     <g id="line2d_51">
      <path clip-path="url(#p7188c5d7c5)" d="M 117.981646 291.28 
L 117.981646 6.845228 
" style="fill:none;stroke:#b0b0b0;stroke-linecap:square;stroke-width:0.8;"/>
     </g>
     <g id="line2d_52">
      <g>
       <use style="stroke:#000000;stroke-width:0.6;" x="117.981646" xlink:href="#mc26a3c523f" y="291.28"/>
      </g>
     </g>
    </g>
    <g id="xtick_12">
     <g id="line2d_53">
      <path clip-path="url(#p7188c5d7c5)" d="M 121.281683 291.28 
L 121.281683 6.845228 
" style="fill:none;stroke:#b0b0b0;stroke-linecap:square;stroke-width:0.8;"/>
     </g>
     <g id="line2d_54">
      <g>
       <use style="stroke:#000000;stroke-width:0.6;" x="121.281683" xlink:href="#mc26a3c523f" y="291.28"/>
      </g>
     </g>
    </g>
    <g id="xtick_13">
     <g id="line2d_55">
      <path clip-path="url(#p7188c5d7c5)" d="M 143.654215 291.28 
L 143.654215 6.845228 
" style="fill:none;stroke:#b0b0b0;stroke-linecap:square;stroke-width:0.8;"/>
     </g>
     <g id="line2d_56">
      <g>
       <use style="stroke:#000000;stroke-width:0.6;" x="143.654215" xlink:href="#mc26a3c523f" y="291.28"/>
      </g>
     </g>
    </g>
    <g id="xtick_14">
     <g id="line2d_57">
      <path clip-path="url(#p7188c5d7c5)" d="M 155.014508 291.28 
L 155.014508 6.845228 
" style="fill:none;stroke:#b0b0b0;stroke-linecap:square;stroke-width:0.8;"/>
     </g>
     <g id="line2d_58">
      <g>
       <use style="stroke:#000000;stroke-width:0.6;" x="155.014508" xlink:href="#mc26a3c523f" y="291.28"/>
      </g>
     </g>
    </g>
    <g id="xtick_15">
     <g id="line2d_59">
      <path clip-path="url(#p7188c5d7c5)" d="M 163.074764 291.28 
L 163.074764 6.845228 
" style="fill:none;stroke:#b0b0b0;stroke-linecap:square;stroke-width:0.8;"/>
     </g>
     <g id="line2d_60">
      <g>
       <use style="stroke:#000000;stroke-width:0.6;" x="163.074764" xlink:href="#mc26a3c523f" y="291.28"/>
      </g>
     </g>
    </g>
    <g id="xtick_16">
     <g id="line2d_61">
      <path clip-path="url(#p7188c5d7c5)" d="M 169.326785 291.28 
L 169.326785 6.845228 
" style="fill:none;stroke:#b0b0b0;stroke-linecap:square;stroke-width:0.8;"/>
     </g>
     <g id="line2d_62">
      <g>
       <use style="stroke:#000000;stroke-width:0.6;" x="169.326785" xlink:href="#mc26a3c523f" y="291.28"/>
      </g>
     </g>
    </g>
    <g id="xtick_17">
     <g id="line2d_63">
      <path clip-path="url(#p7188c5d7c5)" d="M 174.435057 291.28 
L 174.435057 6.845228 
" style="fill:none;stroke:#b0b0b0;stroke-linecap:square;stroke-width:0.8;"/>
     </g>
     <g id="line2d_64">
      <g>
       <use style="stroke:#000000;stroke-width:0.6;" x="174.435057" xlink:href="#mc26a3c523f" y="291.28"/>
      </g>
     </g>
    </g>
    <g id="xtick_18">
     <g id="line2d_65">
      <path clip-path="url(#p7188c5d7c5)" d="M 178.75404 291.28 
L 178.75404 6.845228 
" style="fill:none;stroke:#b0b0b0;stroke-linecap:square;stroke-width:0.8;"/>
     </g>
     <g id="line2d_66">
      <g>
       <use style="stroke:#000000;stroke-width:0.6;" x="178.75404" xlink:href="#mc26a3c523f" y="291.28"/>
      </g>
     </g>
    </g>
    <g id="xtick_19">
     <g id="line2d_67">
      <path clip-path="url(#p7188c5d7c5)" d="M 182.495313 291.28 
L 182.495313 6.845228 
" style="fill:none;stroke:#b0b0b0;stroke-linecap:square;stroke-width:0.8;"/>
     </g>
     <g id="line2d_68">
      <g>
       <use style="stroke:#000000;stroke-width:0.6;" x="182.495313" xlink:href="#mc26a3c523f" y="291.28"/>
      </g>
     </g>
    </g>
    <g id="xtick_20">
     <g id="line2d_69">
      <path clip-path="url(#p7188c5d7c5)" d="M 185.79535 291.28 
L 185.79535 6.845228 
" style="fill:none;stroke:#b0b0b0;stroke-linecap:square;stroke-width:0.8;"/>
     </g>
     <g id="line2d_70">
      <g>
       <use style="stroke:#000000;stroke-width:0.6;" x="185.79535" xlink:href="#mc26a3c523f" y="291.28"/>
      </g>
     </g>
    </g>
    <g id="xtick_21">
     <g id="line2d_71">
      <path clip-path="url(#p7188c5d7c5)" d="M 208.167882 291.28 
L 208.167882 6.845228 
" style="fill:none;stroke:#b0b0b0;stroke-linecap:square;stroke-width:0.8;"/>
     </g>
     <g id="line2d_72">
      <g>
       <use style="stroke:#000000;stroke-width:0.6;" x="208.167882" xlink:href="#mc26a3c523f" y="291.28"/>
      </g>
     </g>
    </g>
    <g id="xtick_22">
     <g id="line2d_73">
      <path clip-path="url(#p7188c5d7c5)" d="M 219.528175 291.28 
L 219.528175 6.845228 
" style="fill:none;stroke:#b0b0b0;stroke-linecap:square;stroke-width:0.8;"/>
     </g>
     <g id="line2d_74">
      <g>
       <use style="stroke:#000000;stroke-width:0.6;" x="219.528175" xlink:href="#mc26a3c523f" y="291.28"/>
      </g>
     </g>
    </g>
    <g id="xtick_23">
     <g id="line2d_75">
      <path clip-path="url(#p7188c5d7c5)" d="M 227.588431 291.28 
L 227.588431 6.845228 
" style="fill:none;stroke:#b0b0b0;stroke-linecap:square;stroke-width:0.8;"/>
     </g>
     <g id="line2d_76">
      <g>
       <use style="stroke:#000000;stroke-width:0.6;" x="227.588431" xlink:href="#mc26a3c523f" y="291.28"/>
      </g>
     </g>
    </g>
    <g id="xtick_24">
     <g id="line2d_77">
      <path clip-path="url(#p7188c5d7c5)" d="M 233.840451 291.28 
L 233.840451 6.845228 
" style="fill:none;stroke:#b0b0b0;stroke-linecap:square;stroke-width:0.8;"/>
     </g>
     <g id="line2d_78">
      <g>
       <use style="stroke:#000000;stroke-width:0.6;" x="233.840451" xlink:href="#mc26a3c523f" y="291.28"/>
      </g>
     </g>
    </g>
    <g id="xtick_25">
     <g id="line2d_79">
      <path clip-path="url(#p7188c5d7c5)" d="M 238.948724 291.28 
L 238.948724 6.845228 
" style="fill:none;stroke:#b0b0b0;stroke-linecap:square;stroke-width:0.8;"/>
     </g>
     <g id="line2d_80">
      <g>
       <use style="stroke:#000000;stroke-width:0.6;" x="238.948724" xlink:href="#mc26a3c523f" y="291.28"/>
      </g>
     </g>
    </g>
    <g id="xtick_26">
     <g id="line2d_81">
      <path clip-path="url(#p7188c5d7c5)" d="M 243.267707 291.28 
L 243.267707 6.845228 
" style="fill:none;stroke:#b0b0b0;stroke-linecap:square;stroke-width:0.8;"/>
     </g>
     <g id="line2d_82">
      <g>
       <use style="stroke:#000000;stroke-width:0.6;" x="243.267707" xlink:href="#mc26a3c523f" y="291.28"/>
      </g>
     </g>
    </g>
    <g id="xtick_27">
     <g id="line2d_83">
      <path clip-path="url(#p7188c5d7c5)" d="M 247.00898 291.28 
L 247.00898 6.845228 
" style="fill:none;stroke:#b0b0b0;stroke-linecap:square;stroke-width:0.8;"/>
     </g>
     <g id="line2d_84">
      <g>
       <use style="stroke:#000000;stroke-width:0.6;" x="247.00898" xlink:href="#mc26a3c523f" y="291.28"/>
      </g>
     </g>
    </g>
    <g id="xtick_28">
     <g id="line2d_85">
      <path clip-path="url(#p7188c5d7c5)" d="M 250.309017 291.28 
L 250.309017 6.845228 
" style="fill:none;stroke:#b0b0b0;stroke-linecap:square;stroke-width:0.8;"/>
     </g>
     <g id="line2d_86">
      <g>
       <use style="stroke:#000000;stroke-width:0.6;" x="250.309017" xlink:href="#mc26a3c523f" y="291.28"/>
      </g>
     </g>
    </g>
    <g id="xtick_29">
     <g id="line2d_87">
      <path clip-path="url(#p7188c5d7c5)" d="M 272.681549 291.28 
L 272.681549 6.845228 
" style="fill:none;stroke:#b0b0b0;stroke-linecap:square;stroke-width:0.8;"/>
     </g>
     <g id="line2d_88">
      <g>
       <use style="stroke:#000000;stroke-width:0.6;" x="272.681549" xlink:href="#mc26a3c523f" y="291.28"/>
      </g>
     </g>
    </g>
    <g id="xtick_30">
     <g id="line2d_89">
      <path clip-path="url(#p7188c5d7c5)" d="M 284.041842 291.28 
L 284.041842 6.845228 
" style="fill:none;stroke:#b0b0b0;stroke-linecap:square;stroke-width:0.8;"/>
     </g>
     <g id="line2d_90">
      <g>
       <use style="stroke:#000000;stroke-width:0.6;" x="284.041842" xlink:href="#mc26a3c523f" y="291.28"/>
      </g>
     </g>
    </g>
    <g id="xtick_31">
     <g id="line2d_91">
      <path clip-path="url(#p7188c5d7c5)" d="M 292.102098 291.28 
L 292.102098 6.845228 
" style="fill:none;stroke:#b0b0b0;stroke-linecap:square;stroke-width:0.8;"/>
     </g>
     <g id="line2d_92">
      <g>
       <use style="stroke:#000000;stroke-width:0.6;" x="292.102098" xlink:href="#mc26a3c523f" y="291.28"/>
      </g>
     </g>
    </g>
    <g id="xtick_32">
     <g id="line2d_93">
      <path clip-path="url(#p7188c5d7c5)" d="M 298.354118 291.28 
L 298.354118 6.845228 
" style="fill:none;stroke:#b0b0b0;stroke-linecap:square;stroke-width:0.8;"/>
     </g>
     <g id="line2d_94">
      <g>
       <use style="stroke:#000000;stroke-width:0.6;" x="298.354118" xlink:href="#mc26a3c523f" y="291.28"/>
      </g>
     </g>
    </g>
    <g id="xtick_33">
     <g id="line2d_95">
      <path clip-path="url(#p7188c5d7c5)" d="M 303.46239 291.28 
L 303.46239 6.845228 
" style="fill:none;stroke:#b0b0b0;stroke-linecap:square;stroke-width:0.8;"/>
     </g>
     <g id="line2d_96">
      <g>
       <use style="stroke:#000000;stroke-width:0.6;" x="303.46239" xlink:href="#mc26a3c523f" y="291.28"/>
      </g>
     </g>
    </g>
    <g id="xtick_34">
     <g id="line2d_97">
      <path clip-path="url(#p7188c5d7c5)" d="M 307.781373 291.28 
L 307.781373 6.845228 
" style="fill:none;stroke:#b0b0b0;stroke-linecap:square;stroke-width:0.8;"/>
     </g>
     <g id="line2d_98">
      <g>
       <use style="stroke:#000000;stroke-width:0.6;" x="307.781373" xlink:href="#mc26a3c523f" y="291.28"/>
      </g>
     </g>
    </g>
    <g id="xtick_35">
     <g id="line2d_99">
      <path clip-path="url(#p7188c5d7c5)" d="M 311.522646 291.28 
L 311.522646 6.845228 
" style="fill:none;stroke:#b0b0b0;stroke-linecap:square;stroke-width:0.8;"/>
     </g>
     <g id="line2d_100">
      <g>
       <use style="stroke:#000000;stroke-width:0.6;" x="311.522646" xlink:href="#mc26a3c523f" y="291.28"/>
      </g>
     </g>
    </g>
    <g id="xtick_36">
     <g id="line2d_101">
      <path clip-path="url(#p7188c5d7c5)" d="M 314.822683 291.28 
L 314.822683 6.845228 
" style="fill:none;stroke:#b0b0b0;stroke-linecap:square;stroke-width:0.8;"/>
     </g>
     <g id="line2d_102">
      <g>
       <use style="stroke:#000000;stroke-width:0.6;" x="314.822683" xlink:href="#mc26a3c523f" y="291.28"/>
      </g>
     </g>
    </g>
    <g id="xtick_37">
     <g id="line2d_103">
      <path clip-path="url(#p7188c5d7c5)" d="M 337.195215 291.28 
L 337.195215 6.845228 
" style="fill:none;stroke:#b0b0b0;stroke-linecap:square;stroke-width:0.8;"/>
     </g>
     <g id="line2d_104">
      <g>
       <use style="stroke:#000000;stroke-width:0.6;" x="337.195215" xlink:href="#mc26a3c523f" y="291.28"/>
      </g>
     </g>
    </g>
    <g id="xtick_38">
     <g id="line2d_105">
      <path clip-path="url(#p7188c5d7c5)" d="M 348.555508 291.28 
L 348.555508 6.845228 
" style="fill:none;stroke:#b0b0b0;stroke-linecap:square;stroke-width:0.8;"/>
     </g>
     <g id="line2d_106">
      <g>
       <use style="stroke:#000000;stroke-width:0.6;" x="348.555508" xlink:href="#mc26a3c523f" y="291.28"/>
      </g>
     </g>
    </g>
    <g id="xtick_39">
     <g id="line2d_107">
      <path clip-path="url(#p7188c5d7c5)" d="M 356.615764 291.28 
L 356.615764 6.845228 
" style="fill:none;stroke:#b0b0b0;stroke-linecap:square;stroke-width:0.8;"/>
     </g>
     <g id="line2d_108">
      <g>
       <use style="stroke:#000000;stroke-width:0.6;" x="356.615764" xlink:href="#mc26a3c523f" y="291.28"/>
      </g>
     </g>
    </g>
    <g id="xtick_40">
     <g id="line2d_109">
      <path clip-path="url(#p7188c5d7c5)" d="M 362.867785 291.28 
L 362.867785 6.845228 
" style="fill:none;stroke:#b0b0b0;stroke-linecap:square;stroke-width:0.8;"/>
     </g>
     <g id="line2d_110">
      <g>
       <use style="stroke:#000000;stroke-width:0.6;" x="362.867785" xlink:href="#mc26a3c523f" y="291.28"/>
      </g>
     </g>
    </g>
    <g id="xtick_41">
     <g id="line2d_111">
      <path clip-path="url(#p7188c5d7c5)" d="M 367.976057 291.28 
L 367.976057 6.845228 
" style="fill:none;stroke:#b0b0b0;stroke-linecap:square;stroke-width:0.8;"/>
     </g>
     <g id="line2d_112">
      <g>
       <use style="stroke:#000000;stroke-width:0.6;" x="367.976057" xlink:href="#mc26a3c523f" y="291.28"/>
      </g>
     </g>
    </g>
    <g id="xtick_42">
     <g id="line2d_113">
      <path clip-path="url(#p7188c5d7c5)" d="M 372.29504 291.28 
L 372.29504 6.845228 
" style="fill:none;stroke:#b0b0b0;stroke-linecap:square;stroke-width:0.8;"/>
     </g>
     <g id="line2d_114">
      <g>
       <use style="stroke:#000000;stroke-width:0.6;" x="372.29504" xlink:href="#mc26a3c523f" y="291.28"/>
      </g>
     </g>
    </g>
    <g id="xtick_43">
     <g id="line2d_115">
      <path clip-path="url(#p7188c5d7c5)" d="M 376.036313 291.28 
L 376.036313 6.845228 
" style="fill:none;stroke:#b0b0b0;stroke-linecap:square;stroke-width:0.8;"/>
     </g>
     <g id="line2d_116">
      <g>
       <use style="stroke:#000000;stroke-width:0.6;" x="376.036313" xlink:href="#mc26a3c523f" y="291.28"/>
      </g>
     </g>
    </g>
    <g id="xtick_44">
     <g id="line2d_117">
      <path clip-path="url(#p7188c5d7c5)" d="M 379.33635 291.28 
L 379.33635 6.845228 
" style="fill:none;stroke:#b0b0b0;stroke-linecap:square;stroke-width:0.8;"/>
     </g>
     <g id="line2d_118">
      <g>
       <use style="stroke:#000000;stroke-width:0.6;" x="379.33635" xlink:href="#mc26a3c523f" y="291.28"/>
      </g>
     </g>
    </g>
    <g id="xtick_45">
     <g id="line2d_119">
      <path clip-path="url(#p7188c5d7c5)" d="M 401.708882 291.28 
L 401.708882 6.845228 
" style="fill:none;stroke:#b0b0b0;stroke-linecap:square;stroke-width:0.8;"/>
     </g>
     <g id="line2d_120">
      <g>
       <use style="stroke:#000000;stroke-width:0.6;" x="401.708882" xlink:href="#mc26a3c523f" y="291.28"/>
      </g>
     </g>
    </g>
    <g id="xtick_46">
     <g id="line2d_121">
      <path clip-path="url(#p7188c5d7c5)" d="M 413.069175 291.28 
L 413.069175 6.845228 
" style="fill:none;stroke:#b0b0b0;stroke-linecap:square;stroke-width:0.8;"/>
     </g>
     <g id="line2d_122">
      <g>
       <use style="stroke:#000000;stroke-width:0.6;" x="413.069175" xlink:href="#mc26a3c523f" y="291.28"/>
      </g>
     </g>
    </g>
    <g id="xtick_47">
     <g id="line2d_123">
      <path clip-path="url(#p7188c5d7c5)" d="M 421.129431 291.28 
L 421.129431 6.845228 
" style="fill:none;stroke:#b0b0b0;stroke-linecap:square;stroke-width:0.8;"/>
     </g>
     <g id="line2d_124">
      <g>
       <use style="stroke:#000000;stroke-width:0.6;" x="421.129431" xlink:href="#mc26a3c523f" y="291.28"/>
      </g>
     </g>
    </g>
    <g id="xtick_48">
     <g id="line2d_125">
      <path clip-path="url(#p7188c5d7c5)" d="M 427.381451 291.28 
L 427.381451 6.845228 
" style="fill:none;stroke:#b0b0b0;stroke-linecap:square;stroke-width:0.8;"/>
     </g>
     <g id="line2d_126">
      <g>
       <use style="stroke:#000000;stroke-width:0.6;" x="427.381451" xlink:href="#mc26a3c523f" y="291.28"/>
      </g>
     </g>
    </g>
    <g id="xtick_49">
     <g id="line2d_127">
      <path clip-path="url(#p7188c5d7c5)" d="M 432.489724 291.28 
L 432.489724 6.845228 
" style="fill:none;stroke:#b0b0b0;stroke-linecap:square;stroke-width:0.8;"/>
     </g>
     <g id="line2d_128">
      <g>
       <use style="stroke:#000000;stroke-width:0.6;" x="432.489724" xlink:href="#mc26a3c523f" y="291.28"/>
      </g>
     </g>
    </g>
    <g id="xtick_50">
     <g id="line2d_129">
      <path clip-path="url(#p7188c5d7c5)" d="M 436.808707 291.28 
L 436.808707 6.845228 
" style="fill:none;stroke:#b0b0b0;stroke-linecap:square;stroke-width:0.8;"/>
     </g>
     <g id="line2d_130">
      <g>
       <use style="stroke:#000000;stroke-width:0.6;" x="436.808707" xlink:href="#mc26a3c523f" y="291.28"/>
      </g>
     </g>
    </g>
    <g id="xtick_51">
     <g id="line2d_131">
      <path clip-path="url(#p7188c5d7c5)" d="M 440.54998 291.28 
L 440.54998 6.845228 
" style="fill:none;stroke:#b0b0b0;stroke-linecap:square;stroke-width:0.8;"/>
     </g>
     <g id="line2d_132">
      <g>
       <use style="stroke:#000000;stroke-width:0.6;" x="440.54998" xlink:href="#mc26a3c523f" y="291.28"/>
      </g>
     </g>
    </g>
    <g id="xtick_52">
     <g id="line2d_133">
      <path clip-path="url(#p7188c5d7c5)" d="M 443.850017 291.28 
L 443.850017 6.845228 
" style="fill:none;stroke:#b0b0b0;stroke-linecap:square;stroke-width:0.8;"/>
     </g>
     <g id="line2d_134">
      <g>
       <use style="stroke:#000000;stroke-width:0.6;" x="443.850017" xlink:href="#mc26a3c523f" y="291.28"/>
      </g>
     </g>
    </g>
    <g id="text_5">
     <!-- log10 of FEvals / DIM -->
     <defs>
      <path d="M 9.421875 75.984375 
L 18.40625 75.984375 
L 18.40625 0 
L 9.421875 0 
z
" id="DejaVuSans-6c"/>
      <path d="M 30.609375 48.390625 
Q 23.390625 48.390625 19.1875 42.75 
Q 14.984375 37.109375 14.984375 27.296875 
Q 14.984375 17.484375 19.15625 11.84375 
Q 23.34375 6.203125 30.609375 6.203125 
Q 37.796875 6.203125 41.984375 11.859375 
Q 46.1875 17.53125 46.1875 27.296875 
Q 46.1875 37.015625 41.984375 42.703125 
Q 37.796875 48.390625 30.609375 48.390625 
z
M 30.609375 56 
Q 42.328125 56 49.015625 48.375 
Q 55.71875 40.765625 55.71875 27.296875 
Q 55.71875 13.875 49.015625 6.21875 
Q 42.328125 -1.421875 30.609375 -1.421875 
Q 18.84375 -1.421875 12.171875 6.21875 
Q 5.515625 13.875 5.515625 27.296875 
Q 5.515625 40.765625 12.171875 48.375 
Q 18.84375 56 30.609375 56 
z
" id="DejaVuSans-6f"/>
      <path d="M 45.40625 27.984375 
Q 45.40625 37.75 41.375 43.109375 
Q 37.359375 48.484375 30.078125 48.484375 
Q 22.859375 48.484375 18.828125 43.109375 
Q 14.796875 37.75 14.796875 27.984375 
Q 14.796875 18.265625 18.828125 12.890625 
Q 22.859375 7.515625 30.078125 7.515625 
Q 37.359375 7.515625 41.375 12.890625 
Q 45.40625 18.265625 45.40625 27.984375 
z
M 54.390625 6.78125 
Q 54.390625 -7.171875 48.1875 -13.984375 
Q 42 -20.796875 29.203125 -20.796875 
Q 24.46875 -20.796875 20.265625 -20.09375 
Q 16.0625 -19.390625 12.109375 -17.921875 
L 12.109375 -9.1875 
Q 16.0625 -11.328125 19.921875 -12.34375 
Q 23.78125 -13.375 27.78125 -13.375 
Q 36.625 -13.375 41.015625 -8.765625 
Q 45.40625 -4.15625 45.40625 5.171875 
L 45.40625 9.625 
Q 42.625 4.78125 38.28125 2.390625 
Q 33.9375 0 27.875 0 
Q 17.828125 0 11.671875 7.65625 
Q 5.515625 15.328125 5.515625 27.984375 
Q 5.515625 40.671875 11.671875 48.328125 
Q 17.828125 56 27.875 56 
Q 33.9375 56 38.28125 53.609375 
Q 42.625 51.21875 45.40625 46.390625 
L 45.40625 54.6875 
L 54.390625 54.6875 
z
" id="DejaVuSans-67"/>
      <path d="M 12.40625 8.296875 
L 28.515625 8.296875 
L 28.515625 63.921875 
L 10.984375 60.40625 
L 10.984375 69.390625 
L 28.421875 72.90625 
L 38.28125 72.90625 
L 38.28125 8.296875 
L 54.390625 8.296875 
L 54.390625 0 
L 12.40625 0 
z
" id="DejaVuSans-31"/>
      <path id="DejaVuSans-20"/>
      <path d="M 37.109375 75.984375 
L 37.109375 68.5 
L 28.515625 68.5 
Q 23.6875 68.5 21.796875 66.546875 
Q 19.921875 64.59375 19.921875 59.515625 
L 19.921875 54.6875 
L 34.71875 54.6875 
L 34.71875 47.703125 
L 19.921875 47.703125 
L 19.921875 0 
L 10.890625 0 
L 10.890625 47.703125 
L 2.296875 47.703125 
L 2.296875 54.6875 
L 10.890625 54.6875 
L 10.890625 58.5 
Q 10.890625 67.625 15.140625 71.796875 
Q 19.390625 75.984375 28.609375 75.984375 
z
" id="DejaVuSans-66"/>
      <path d="M 9.8125 72.90625 
L 51.703125 72.90625 
L 51.703125 64.59375 
L 19.671875 64.59375 
L 19.671875 43.109375 
L 48.578125 43.109375 
L 48.578125 34.8125 
L 19.671875 34.8125 
L 19.671875 0 
L 9.8125 0 
z
" id="DejaVuSans-46"/>
      <path d="M 9.8125 72.90625 
L 55.90625 72.90625 
L 55.90625 64.59375 
L 19.671875 64.59375 
L 19.671875 43.015625 
L 54.390625 43.015625 
L 54.390625 34.71875 
L 19.671875 34.71875 
L 19.671875 8.296875 
L 56.78125 8.296875 
L 56.78125 0 
L 9.8125 0 
z
" id="DejaVuSans-45"/>
      <path d="M 2.984375 54.6875 
L 12.5 54.6875 
L 29.59375 8.796875 
L 46.6875 54.6875 
L 56.203125 54.6875 
L 35.6875 0 
L 23.484375 0 
z
" id="DejaVuSans-76"/>
      <path d="M 34.28125 27.484375 
Q 23.390625 27.484375 19.1875 25 
Q 14.984375 22.515625 14.984375 16.5 
Q 14.984375 11.71875 18.140625 8.90625 
Q 21.296875 6.109375 26.703125 6.109375 
Q 34.1875 6.109375 38.703125 11.40625 
Q 43.21875 16.703125 43.21875 25.484375 
L 43.21875 27.484375 
z
M 52.203125 31.203125 
L 52.203125 0 
L 43.21875 0 
L 43.21875 8.296875 
Q 40.140625 3.328125 35.546875 0.953125 
Q 30.953125 -1.421875 24.3125 -1.421875 
Q 15.921875 -1.421875 10.953125 3.296875 
Q 6 8.015625 6 15.921875 
Q 6 25.140625 12.171875 29.828125 
Q 18.359375 34.515625 30.609375 34.515625 
L 43.21875 34.515625 
L 43.21875 35.40625 
Q 43.21875 41.609375 39.140625 45 
Q 35.0625 48.390625 27.6875 48.390625 
Q 23 48.390625 18.546875 47.265625 
Q 14.109375 46.140625 10.015625 43.890625 
L 10.015625 52.203125 
Q 14.9375 54.109375 19.578125 55.046875 
Q 24.21875 56 28.609375 56 
Q 40.484375 56 46.34375 49.84375 
Q 52.203125 43.703125 52.203125 31.203125 
z
" id="DejaVuSans-61"/>
      <path d="M 44.28125 53.078125 
L 44.28125 44.578125 
Q 40.484375 46.53125 36.375 47.5 
Q 32.28125 48.484375 27.875 48.484375 
Q 21.1875 48.484375 17.84375 46.4375 
Q 14.5 44.390625 14.5 40.28125 
Q 14.5 37.15625 16.890625 35.375 
Q 19.28125 33.59375 26.515625 31.984375 
L 29.59375 31.296875 
Q 39.15625 29.25 43.1875 25.515625 
Q 47.21875 21.78125 47.21875 15.09375 
Q 47.21875 7.46875 41.1875 3.015625 
Q 35.15625 -1.421875 24.609375 -1.421875 
Q 20.21875 -1.421875 15.453125 -0.5625 
Q 10.6875 0.296875 5.421875 2 
L 5.421875 11.28125 
Q 10.40625 8.6875 15.234375 7.390625 
Q 20.0625 6.109375 24.8125 6.109375 
Q 31.15625 6.109375 34.5625 8.28125 
Q 37.984375 10.453125 37.984375 14.40625 
Q 37.984375 18.0625 35.515625 20.015625 
Q 33.0625 21.96875 24.703125 23.78125 
L 21.578125 24.515625 
Q 13.234375 26.265625 9.515625 29.90625 
Q 5.8125 33.546875 5.8125 39.890625 
Q 5.8125 47.609375 11.28125 51.796875 
Q 16.75 56 26.8125 56 
Q 31.78125 56 36.171875 55.265625 
Q 40.578125 54.546875 44.28125 53.078125 
z
" id="DejaVuSans-73"/>
      <path d="M 25.390625 72.90625 
L 33.6875 72.90625 
L 8.296875 -9.28125 
L 0 -9.28125 
z
" id="DejaVuSans-2f"/>
      <path d="M 19.671875 64.796875 
L 19.671875 8.109375 
L 31.59375 8.109375 
Q 46.6875 8.109375 53.6875 14.9375 
Q 60.6875 21.78125 60.6875 36.53125 
Q 60.6875 51.171875 53.6875 57.984375 
Q 46.6875 64.796875 31.59375 64.796875 
z
M 9.8125 72.90625 
L 30.078125 72.90625 
Q 51.265625 72.90625 61.171875 64.09375 
Q 71.09375 55.28125 71.09375 36.53125 
Q 71.09375 17.671875 61.125 8.828125 
Q 51.171875 0 30.078125 0 
L 9.8125 0 
z
" id="DejaVuSans-44"/>
      <path d="M 9.8125 72.90625 
L 19.671875 72.90625 
L 19.671875 0 
L 9.8125 0 
z
" id="DejaVuSans-49"/>
      <path d="M 9.8125 72.90625 
L 24.515625 72.90625 
L 43.109375 23.296875 
L 61.8125 72.90625 
L 76.515625 72.90625 
L 76.515625 0 
L 66.890625 0 
L 66.890625 64.015625 
L 48.09375 14.015625 
L 38.1875 14.015625 
L 19.390625 64.015625 
L 19.390625 0 
L 9.8125 0 
z
" id="DejaVuSans-4d"/>
     </defs>
     <g transform="translate(148.187563 336.833125)scale(0.2 -0.2)">
      <use xlink:href="#DejaVuSans-6c"/>
      <use x="27.783203" xlink:href="#DejaVuSans-6f"/>
      <use x="88.964844" xlink:href="#DejaVuSans-67"/>
      <use x="152.441406" xlink:href="#DejaVuSans-31"/>
      <use x="216.064453" xlink:href="#DejaVuSans-30"/>
      <use x="279.6875" xlink:href="#DejaVuSans-20"/>
      <use x="311.474609" xlink:href="#DejaVuSans-6f"/>
      <use x="372.65625" xlink:href="#DejaVuSans-66"/>
      <use x="407.861328" xlink:href="#DejaVuSans-20"/>
      <use x="439.648438" xlink:href="#DejaVuSans-46"/>
      <use x="497.167969" xlink:href="#DejaVuSans-45"/>
      <use x="560.351562" xlink:href="#DejaVuSans-76"/>
      <use x="619.53125" xlink:href="#DejaVuSans-61"/>
      <use x="680.810547" xlink:href="#DejaVuSans-6c"/>
      <use x="708.59375" xlink:href="#DejaVuSans-73"/>
      <use x="760.693359" xlink:href="#DejaVuSans-20"/>
      <use x="792.480469" xlink:href="#DejaVuSans-2f"/>
      <use x="826.171875" xlink:href="#DejaVuSans-20"/>
      <use x="857.958984" xlink:href="#DejaVuSans-44"/>
      <use x="934.960938" xlink:href="#DejaVuSans-49"/>
      <use x="964.453125" xlink:href="#DejaVuSans-4d"/>
     </g>
    </g>
   </g>
   <g id="matplotlib.axis_2">
    <g id="ytick_1">
     <g id="line2d_135">
      <path clip-path="url(#p7188c5d7c5)" d="M 59.72 291.28 
L 446.802 291.28 
" style="fill:none;stroke:#b0b0b0;stroke-linecap:square;stroke-width:0.8;"/>
     </g>
     <g id="line2d_136">
      <defs>
       <path d="M 0 0 
L -3.5 0 
" id="m815b48566f" style="stroke:#000000;stroke-width:0.8;"/>
      </defs>
      <g>
       <use style="stroke:#000000;stroke-width:0.8;" x="59.72" xlink:href="#m815b48566f" y="291.28"/>
      </g>
     </g>
     <g id="text_6">
      <!-- 0.0 -->
      <defs>
       <path d="M 10.6875 12.40625 
L 21 12.40625 
L 21 0 
L 10.6875 0 
z
" id="DejaVuSans-2e"/>
      </defs>
      <g transform="translate(27.275 297.35875)scale(0.16 -0.16)">
       <use xlink:href="#DejaVuSans-30"/>
       <use x="63.623047" xlink:href="#DejaVuSans-2e"/>
       <use x="95.410156" xlink:href="#DejaVuSans-30"/>
      </g>
     </g>
    </g>
    <g id="ytick_2">
     <g id="line2d_137">
      <path clip-path="url(#p7188c5d7c5)" d="M 59.72 234.956283 
L 446.802 234.956283 
" style="fill:none;stroke:#b0b0b0;stroke-linecap:square;stroke-width:0.8;"/>
     </g>
     <g id="line2d_138">
      <g>
       <use style="stroke:#000000;stroke-width:0.8;" x="59.72" xlink:href="#m815b48566f" y="234.956283"/>
      </g>
     </g>
     <g id="text_7">
      <!-- 0.2 -->
      <g transform="translate(27.275 241.035033)scale(0.16 -0.16)">
       <use xlink:href="#DejaVuSans-30"/>
       <use x="63.623047" xlink:href="#DejaVuSans-2e"/>
       <use x="95.410156" xlink:href="#DejaVuSans-32"/>
      </g>
     </g>
    </g>
    <g id="ytick_3">
     <g id="line2d_139">
      <path clip-path="url(#p7188c5d7c5)" d="M 59.72 178.632565 
L 446.802 178.632565 
" style="fill:none;stroke:#b0b0b0;stroke-linecap:square;stroke-width:0.8;"/>
     </g>
     <g id="line2d_140">
      <g>
       <use style="stroke:#000000;stroke-width:0.8;" x="59.72" xlink:href="#m815b48566f" y="178.632565"/>
      </g>
     </g>
     <g id="text_8">
      <!-- 0.4 -->
      <g transform="translate(27.275 184.711315)scale(0.16 -0.16)">
       <use xlink:href="#DejaVuSans-30"/>
       <use x="63.623047" xlink:href="#DejaVuSans-2e"/>
       <use x="95.410156" xlink:href="#DejaVuSans-34"/>
      </g>
     </g>
    </g>
    <g id="ytick_4">
     <g id="line2d_141">
      <path clip-path="url(#p7188c5d7c5)" d="M 59.72 122.308848 
L 446.802 122.308848 
" style="fill:none;stroke:#b0b0b0;stroke-linecap:square;stroke-width:0.8;"/>
     </g>
     <g id="line2d_142">
      <g>
       <use style="stroke:#000000;stroke-width:0.8;" x="59.72" xlink:href="#m815b48566f" y="122.308848"/>
      </g>
     </g>
     <g id="text_9">
      <!-- 0.6 -->
      <g transform="translate(27.275 128.387598)scale(0.16 -0.16)">
       <use xlink:href="#DejaVuSans-30"/>
       <use x="63.623047" xlink:href="#DejaVuSans-2e"/>
       <use x="95.410156" xlink:href="#DejaVuSans-36"/>
      </g>
     </g>
    </g>
    <g id="ytick_5">
     <g id="line2d_143">
      <path clip-path="url(#p7188c5d7c5)" d="M 59.72 65.985131 
L 446.802 65.985131 
" style="fill:none;stroke:#b0b0b0;stroke-linecap:square;stroke-width:0.8;"/>
     </g>
     <g id="line2d_144">
      <g>
       <use style="stroke:#000000;stroke-width:0.8;" x="59.72" xlink:href="#m815b48566f" y="65.985131"/>
      </g>
     </g>
     <g id="text_10">
      <!-- 0.8 -->
      <defs>
       <path d="M 31.78125 34.625 
Q 24.75 34.625 20.71875 30.859375 
Q 16.703125 27.09375 16.703125 20.515625 
Q 16.703125 13.921875 20.71875 10.15625 
Q 24.75 6.390625 31.78125 6.390625 
Q 38.8125 6.390625 42.859375 10.171875 
Q 46.921875 13.96875 46.921875 20.515625 
Q 46.921875 27.09375 42.890625 30.859375 
Q 38.875 34.625 31.78125 34.625 
z
M 21.921875 38.8125 
Q 15.578125 40.375 12.03125 44.71875 
Q 8.5 49.078125 8.5 55.328125 
Q 8.5 64.0625 14.71875 69.140625 
Q 20.953125 74.21875 31.78125 74.21875 
Q 42.671875 74.21875 48.875 69.140625 
Q 55.078125 64.0625 55.078125 55.328125 
Q 55.078125 49.078125 51.53125 44.71875 
Q 48 40.375 41.703125 38.8125 
Q 48.828125 37.15625 52.796875 32.3125 
Q 56.78125 27.484375 56.78125 20.515625 
Q 56.78125 9.90625 50.3125 4.234375 
Q 43.84375 -1.421875 31.78125 -1.421875 
Q 19.734375 -1.421875 13.25 4.234375 
Q 6.78125 9.90625 6.78125 20.515625 
Q 6.78125 27.484375 10.78125 32.3125 
Q 14.796875 37.15625 21.921875 38.8125 
z
M 18.3125 54.390625 
Q 18.3125 48.734375 21.84375 45.5625 
Q 25.390625 42.390625 31.78125 42.390625 
Q 38.140625 42.390625 41.71875 45.5625 
Q 45.3125 48.734375 45.3125 54.390625 
Q 45.3125 60.0625 41.71875 63.234375 
Q 38.140625 66.40625 31.78125 66.40625 
Q 25.390625 66.40625 21.84375 63.234375 
Q 18.3125 60.0625 18.3125 54.390625 
z
" id="DejaVuSans-38"/>
      </defs>
      <g transform="translate(27.275 72.063881)scale(0.16 -0.16)">
       <use xlink:href="#DejaVuSans-30"/>
       <use x="63.623047" xlink:href="#DejaVuSans-2e"/>
       <use x="95.410156" xlink:href="#DejaVuSans-38"/>
      </g>
     </g>
    </g>
    <g id="ytick_6">
     <g id="line2d_145">
      <path clip-path="url(#p7188c5d7c5)" d="M 59.72 9.661414 
L 446.802 9.661414 
" style="fill:none;stroke:#b0b0b0;stroke-linecap:square;stroke-width:0.8;"/>
     </g>
     <g id="line2d_146">
      <g>
       <use style="stroke:#000000;stroke-width:0.8;" x="59.72" xlink:href="#m815b48566f" y="9.661414"/>
      </g>
     </g>
     <g id="text_11">
      <!-- 1.0 -->
      <g transform="translate(27.275 15.740164)scale(0.16 -0.16)">
       <use xlink:href="#DejaVuSans-31"/>
       <use x="63.623047" xlink:href="#DejaVuSans-2e"/>
       <use x="95.410156" xlink:href="#DejaVuSans-30"/>
      </g>
     </g>
    </g>
    <g id="text_12">
     <!-- proportion of trials -->
     <defs>
      <path d="M 18.109375 8.203125 
L 18.109375 -20.796875 
L 9.078125 -20.796875 
L 9.078125 54.6875 
L 18.109375 54.6875 
L 18.109375 46.390625 
Q 20.953125 51.265625 25.265625 53.625 
Q 29.59375 56 35.59375 56 
Q 45.5625 56 51.78125 48.09375 
Q 58.015625 40.1875 58.015625 27.296875 
Q 58.015625 14.40625 51.78125 6.484375 
Q 45.5625 -1.421875 35.59375 -1.421875 
Q 29.59375 -1.421875 25.265625 0.953125 
Q 20.953125 3.328125 18.109375 8.203125 
z
M 48.6875 27.296875 
Q 48.6875 37.203125 44.609375 42.84375 
Q 40.53125 48.484375 33.40625 48.484375 
Q 26.265625 48.484375 22.1875 42.84375 
Q 18.109375 37.203125 18.109375 27.296875 
Q 18.109375 17.390625 22.1875 11.75 
Q 26.265625 6.109375 33.40625 6.109375 
Q 40.53125 6.109375 44.609375 11.75 
Q 48.6875 17.390625 48.6875 27.296875 
z
" id="DejaVuSans-70"/>
      <path d="M 41.109375 46.296875 
Q 39.59375 47.171875 37.8125 47.578125 
Q 36.03125 48 33.890625 48 
Q 26.265625 48 22.1875 43.046875 
Q 18.109375 38.09375 18.109375 28.8125 
L 18.109375 0 
L 9.078125 0 
L 9.078125 54.6875 
L 18.109375 54.6875 
L 18.109375 46.1875 
Q 20.953125 51.171875 25.484375 53.578125 
Q 30.03125 56 36.53125 56 
Q 37.453125 56 38.578125 55.875 
Q 39.703125 55.765625 41.0625 55.515625 
z
" id="DejaVuSans-72"/>
      <path d="M 18.3125 70.21875 
L 18.3125 54.6875 
L 36.8125 54.6875 
L 36.8125 47.703125 
L 18.3125 47.703125 
L 18.3125 18.015625 
Q 18.3125 11.328125 20.140625 9.421875 
Q 21.96875 7.515625 27.59375 7.515625 
L 36.8125 7.515625 
L 36.8125 0 
L 27.59375 0 
Q 17.1875 0 13.234375 3.875 
Q 9.28125 7.765625 9.28125 18.015625 
L 9.28125 47.703125 
L 2.6875 47.703125 
L 2.6875 54.6875 
L 9.28125 54.6875 
L 9.28125 70.21875 
z
" id="DejaVuSans-74"/>
      <path d="M 9.421875 54.6875 
L 18.40625 54.6875 
L 18.40625 0 
L 9.421875 0 
z
M 9.421875 75.984375 
L 18.40625 75.984375 
L 18.40625 64.59375 
L 9.421875 64.59375 
z
" id="DejaVuSans-69"/>
      <path d="M 54.890625 33.015625 
L 54.890625 0 
L 45.90625 0 
L 45.90625 32.71875 
Q 45.90625 40.484375 42.875 44.328125 
Q 39.84375 48.1875 33.796875 48.1875 
Q 26.515625 48.1875 22.3125 43.546875 
Q 18.109375 38.921875 18.109375 30.90625 
L 18.109375 0 
L 9.078125 0 
L 9.078125 54.6875 
L 18.109375 54.6875 
L 18.109375 46.1875 
Q 21.34375 51.125 25.703125 53.5625 
Q 30.078125 56 35.796875 56 
Q 45.21875 56 50.046875 50.171875 
Q 54.890625 44.34375 54.890625 33.015625 
z
" id="DejaVuSans-6e"/>
     </defs>
     <g transform="translate(19.115625 242.290739)rotate(-90)scale(0.2 -0.2)">
      <use xlink:href="#DejaVuSans-70"/>
      <use x="63.476562" xlink:href="#DejaVuSans-72"/>
      <use x="104.558594" xlink:href="#DejaVuSans-6f"/>
      <use x="165.740234" xlink:href="#DejaVuSans-70"/>
      <use x="229.216797" xlink:href="#DejaVuSans-6f"/>
      <use x="290.398438" xlink:href="#DejaVuSans-72"/>
      <use x="331.511719" xlink:href="#DejaVuSans-74"/>
      <use x="370.720703" xlink:href="#DejaVuSans-69"/>
      <use x="398.503906" xlink:href="#DejaVuSans-6f"/>
      <use x="459.685547" xlink:href="#DejaVuSans-6e"/>
      <use x="523.064453" xlink:href="#DejaVuSans-20"/>
      <use x="554.851562" xlink:href="#DejaVuSans-6f"/>
      <use x="616.033203" xlink:href="#DejaVuSans-66"/>
      <use x="651.238281" xlink:href="#DejaVuSans-20"/>
      <use x="683.025391" xlink:href="#DejaVuSans-74"/>
      <use x="722.234375" xlink:href="#DejaVuSans-72"/>
      <use x="763.347656" xlink:href="#DejaVuSans-69"/>
      <use x="791.130859" xlink:href="#DejaVuSans-61"/>
      <use x="852.410156" xlink:href="#DejaVuSans-6c"/>
      <use x="880.193359" xlink:href="#DejaVuSans-73"/>
     </g>
    </g>
   </g>
   <g id="line2d_147">
    <path clip-path="url(#p7188c5d7c5)" d="M -1 272.505428 
L 14.626882 272.505428 
L 14.626882 268.750513 
L 25.987175 268.750513 
L 25.987175 264.995599 
L 34.047431 264.995599 
L 34.047431 261.240684 
L 37.347468 261.240684 
L 37.347468 253.730855 
L 42.969845 253.730855 
L 42.969845 246.221026 
L 45.407724 246.221026 
L 45.407724 242.466112 
L 49.726707 242.466112 
L 49.726707 238.711197 
L 65.97202 238.711197 
L 65.97202 234.956283 
L 130.260642 234.956283 
L 130.260642 231.201368 
L 133.257779 231.201368 
L 133.257779 227.446454 
L 139.346904 227.446454 
L 139.42847 219.936625 
L 140.934747 219.936625 
L 140.934747 216.18171 
L 145.021215 216.18171 
L 145.087845 208.671881 
L 145.875286 208.671881 
L 145.875286 204.916967 
L 148.053135 204.916967 
L 148.053135 201.162052 
L 149.052832 201.162052 
L 149.052832 197.407138 
L 150.461064 197.407138 
L 150.461064 193.652223 
L 151.112673 193.652223 
L 151.112673 189.897309 
L 151.326552 189.897309 
L 151.326552 186.142394 
L 157.642419 186.142394 
L 157.727321 178.632565 
L 175.421463 178.632565 
L 175.421463 174.877651 
L 181.569605 174.877651 
L 181.569605 171.122736 
L 182.495313 171.122736 
L 182.495313 167.367822 
L 183.526764 167.367822 
L 183.526764 163.612907 
L 184.651602 163.612907 
L 184.651602 159.857993 
L 184.925894 159.857993 
L 184.925894 156.103079 
L 185.701801 156.103079 
L 185.701801 152.348164 
L 186.258467 152.348164 
L 186.258467 148.59325 
L 186.744163 148.59325 
L 186.744163 144.838335 
L 187.530527 144.838335 
L 187.530527 141.083421 
L 188.409085 141.083421 
L 188.409085 137.328506 
L 188.761339 137.328506 
L 188.775337 129.818677 
L 189.452833 129.818677 
L 189.452833 126.063763 
L 189.57551 126.063763 
L 189.57551 122.308848 
L 189.778785 122.308848 
L 189.778785 118.553934 
L 189.900045 118.553934 
L 189.900045 114.799019 
L 190.180963 114.799019 
L 190.180963 111.044105 
L 193.050301 111.044105 
L 193.050301 107.28919 
L 196.087459 107.28919 
L 196.087459 103.534276 
L 196.895009 103.534276 
L 196.895009 99.779361 
L 199.138445 99.779361 
L 199.138445 96.024447 
L 199.426995 96.024447 
L 199.426995 92.269532 
L 203.762377 92.269532 
L 203.762377 88.514618 
L 204.594214 88.514618 
L 204.594214 84.759703 
L 212.277955 84.759703 
L 212.332341 77.249874 
L 214.177906 77.249874 
L 214.177906 73.49496 
L 249.160404 73.49496 
L 249.160404 69.740045 
L 269.773892 69.740045 
L 269.773892 65.985131 
L 395.172106 65.985131 
L 395.172106 62.230216 
L 397.037201 62.230216 
L 397.037201 58.475302 
L 404.178799 58.475302 
L 404.178799 54.720387 
L 411.090521 54.720387 
L 411.090521 50.965473 
L 420.77595 50.965473 
L 420.77595 47.210558 
L 421.417857 47.210558 
L 421.417857 43.455644 
L 425.90126 43.455644 
L 425.90126 39.700729 
L 428.020619 39.700729 
L 428.020619 35.945815 
L 435.44784 35.945815 
L 435.44784 32.1909 
L 445.938199 32.1909 
L 445.938199 28.435986 
L 445.938199 28.435986 
L 446.802 28.435986 
L 446.802 28.435986 
" style="fill:none;stroke:#000000;stroke-linecap:square;stroke-width:1.5;"/>
   </g>
   <g id="line2d_148">
    <path clip-path="url(#p7188c5d7c5)" style="fill:none;stroke:#000000;stroke-linecap:square;stroke-width:1.5;"/>
   </g>
   <g id="line2d_149">
    <path clip-path="url(#p7188c5d7c5)" d="M 208.083702 291.28 
L 208.083702 287.525086 
L 211.55495 287.525086 
L 211.55495 283.770171 
L 213.939503 283.770171 
L 213.939503 280.015257 
L 216.057762 280.015257 
L 216.057762 276.260342 
L 261.784258 276.260342 
L 261.784258 272.505428 
L 272.146942 272.505428 
L 272.146942 268.750513 
L 274.24399 268.750513 
L 274.24399 264.995599 
L 284.555437 264.995599 
L 284.555437 261.240684 
L 284.717272 261.240684 
L 284.717272 257.48577 
L 307.053336 257.48577 
L 307.053336 253.730855 
L 312.584462 253.730855 
L 312.584462 249.975941 
L 339.540248 249.975941 
L 339.540248 246.221026 
L 341.955785 246.221026 
L 341.955785 242.466112 
L 351.015959 242.466112 
L 351.015959 238.711197 
L 351.998383 238.711197 
L 351.998383 234.956283 
L 361.685953 234.956283 
L 361.685953 231.201368 
L 370.085372 231.201368 
L 370.085372 227.446454 
L 381.560339 227.446454 
L 381.560339 223.691539 
L 391.820081 223.691539 
L 391.820081 219.936625 
L 400.186172 219.936625 
L 400.186172 216.18171 
L 404.409182 216.18171 
L 404.409182 212.426796 
L 407.826363 212.426796 
L 407.826363 208.671881 
L 410.865871 208.671881 
L 410.865871 204.916967 
L 413.748708 204.916967 
L 413.748708 201.162052 
L 418.031323 201.162052 
L 418.031323 197.407138 
L 427.216696 197.407138 
L 427.216696 193.652223 
L 433.806976 193.652223 
L 433.806976 189.897309 
L 437.636051 189.897309 
L 437.636051 186.142394 
L 437.636051 186.142394 
L 437.636051 186.142394 
L 446.802 186.142394 
" style="fill:none;stroke:#00bfbf;stroke-linecap:square;stroke-width:1.5;"/>
   </g>
   <g id="line2d_150">
    <path clip-path="url(#p7188c5d7c5)" style="fill:none;stroke:#00bfbf;stroke-linecap:square;stroke-width:1.5;"/>
   </g>
   <g id="line2d_151">
    <path clip-path="url(#p7188c5d7c5)" d="M 230.236529 291.28 
L 230.236529 287.525086 
L 230.338308 287.525086 
L 230.338308 283.770171 
L 236.42922 283.770171 
L 236.42922 280.015257 
L 236.862672 280.015257 
L 236.862672 276.260342 
L 270.807487 276.260342 
L 270.807487 272.505428 
L 275.910517 272.505428 
L 275.910517 268.750513 
L 277.586539 268.750513 
L 277.586539 264.995599 
L 287.131056 264.995599 
L 287.131056 261.240684 
L 287.409041 261.240684 
L 287.409041 257.48577 
L 308.374827 257.48577 
L 308.374827 253.730855 
L 313.803506 253.730855 
L 313.803506 249.975941 
L 356.027024 249.975941 
L 356.027024 246.221026 
L 361.864881 246.221026 
L 361.864881 242.466112 
L 381.673321 242.466112 
L 381.673321 238.711197 
L 391.886218 238.711197 
L 391.886218 234.956283 
L 404.454689 234.956283 
L 404.454689 231.201368 
L 410.890911 231.201368 
L 410.890911 227.446454 
L 410.890911 227.446454 
L 410.890911 227.446454 
L 446.802 227.446454 
" style="fill:none;stroke:#bf00bf;stroke-linecap:square;stroke-width:1.5;"/>
   </g>
   <g id="line2d_152">
    <path clip-path="url(#p7188c5d7c5)" style="fill:none;stroke:#bf00bf;stroke-linecap:square;stroke-width:1.5;"/>
   </g>
   <g id="line2d_153">
    <path clip-path="url(#p7188c5d7c5)" d="M 245.803144 291.28 
L 245.803144 287.525086 
L 246.622836 287.525086 
L 246.622836 283.770171 
L 248.629987 283.770171 
L 248.629987 280.015257 
L 248.658069 280.015257 
L 248.658069 276.260342 
L 275.224938 276.260342 
L 275.224938 272.505428 
L 279.518048 272.505428 
L 279.518048 268.750513 
L 281.153604 268.750513 
L 281.153604 264.995599 
L 289.836255 264.995599 
L 289.836255 261.240684 
L 290.210431 261.240684 
L 290.210431 257.48577 
L 309.497838 257.48577 
L 309.497838 253.730855 
L 314.801818 253.730855 
L 314.801818 249.975941 
L 356.1625 249.975941 
L 356.1625 246.221026 
L 362.032572 246.221026 
L 362.032572 242.466112 
L 381.769143 242.466112 
L 381.769143 238.711197 
L 391.973137 238.711197 
L 391.973137 234.956283 
L 404.494796 234.956283 
L 404.494796 231.201368 
L 410.92625 231.201368 
L 410.92625 227.446454 
L 410.92625 227.446454 
L 410.92625 227.446454 
L 446.802 227.446454 
" style="fill:none;stroke:#ff0000;stroke-linecap:square;stroke-width:3;"/>
   </g>
   <g id="line2d_154">
    <path clip-path="url(#p7188c5d7c5)" style="fill:none;stroke:#ff0000;stroke-linecap:square;stroke-width:3;"/>
   </g>
   <g id="line2d_155">
    <path clip-path="url(#p7188c5d7c5)" d="M 446.802 291.28 
L 446.802 6.845228 
" style="fill:none;stroke:#000000;stroke-linecap:square;stroke-width:1.5;"/>
   </g>
   <g id="patch_3">
    <path d="M 59.72 291.28 
L 59.72 6.845228 
" style="fill:none;stroke:#000000;stroke-linecap:square;stroke-linejoin:miter;stroke-width:0.8;"/>
   </g>
   <g id="patch_4">
    <path d="M 446.802 291.28 
L 446.802 6.845228 
" style="fill:none;stroke:#000000;stroke-linecap:square;stroke-linejoin:miter;stroke-width:0.8;"/>
   </g>
   <g id="patch_5">
    <path d="M 59.72 291.28 
L 446.802 291.28 
" style="fill:none;stroke:#000000;stroke-linecap:square;stroke-linejoin:miter;stroke-width:0.8;"/>
   </g>
   <g id="patch_6">
    <path d="M 59.72 6.845228 
L 446.802 6.845228 
" style="fill:none;stroke:#000000;stroke-linecap:square;stroke-linejoin:miter;stroke-width:0.8;"/>
   </g>
   <g id="text_13">
    <!-- {f20-f24}, 20-D -->
    <defs>
     <path d="M 51.125 -9.28125 
L 51.125 -16.3125 
L 48.09375 -16.3125 
Q 35.9375 -16.3125 31.8125 -12.6875 
Q 27.6875 -9.078125 27.6875 1.703125 
L 27.6875 13.375 
Q 27.6875 20.75 25.046875 23.578125 
Q 22.40625 26.421875 15.484375 26.421875 
L 12.5 26.421875 
L 12.5 33.40625 
L 15.484375 33.40625 
Q 22.46875 33.40625 25.078125 36.203125 
Q 27.6875 39.015625 27.6875 46.296875 
L 27.6875 58.015625 
Q 27.6875 68.796875 31.8125 72.390625 
Q 35.9375 75.984375 48.09375 75.984375 
L 51.125 75.984375 
L 51.125 69 
L 47.796875 69 
Q 40.921875 69 38.8125 66.84375 
Q 36.71875 64.703125 36.71875 57.8125 
L 36.71875 45.703125 
Q 36.71875 38.03125 34.5 34.5625 
Q 32.28125 31.109375 26.90625 29.890625 
Q 32.328125 28.5625 34.515625 25.09375 
Q 36.71875 21.625 36.71875 14.015625 
L 36.71875 1.90625 
Q 36.71875 -4.984375 38.8125 -7.125 
Q 40.921875 -9.28125 47.796875 -9.28125 
z
" id="DejaVuSans-7b"/>
     <path d="M 4.890625 31.390625 
L 31.203125 31.390625 
L 31.203125 23.390625 
L 4.890625 23.390625 
z
" id="DejaVuSans-2d"/>
     <path d="M 12.5 -9.28125 
L 15.921875 -9.28125 
Q 22.75 -9.28125 24.828125 -7.171875 
Q 26.90625 -5.078125 26.90625 1.90625 
L 26.90625 14.015625 
Q 26.90625 21.625 29.09375 25.09375 
Q 31.296875 28.5625 36.71875 29.890625 
Q 31.296875 31.109375 29.09375 34.5625 
Q 26.90625 38.03125 26.90625 45.703125 
L 26.90625 57.8125 
Q 26.90625 64.75 24.828125 66.875 
Q 22.75 69 15.921875 69 
L 12.5 69 
L 12.5 75.984375 
L 15.578125 75.984375 
Q 27.734375 75.984375 31.8125 72.390625 
Q 35.890625 68.796875 35.890625 58.015625 
L 35.890625 46.296875 
Q 35.890625 39.015625 38.515625 36.203125 
Q 41.15625 33.40625 48.09375 33.40625 
L 51.125 33.40625 
L 51.125 26.421875 
L 48.09375 26.421875 
Q 41.15625 26.421875 38.515625 23.578125 
Q 35.890625 20.75 35.890625 13.375 
L 35.890625 1.703125 
Q 35.890625 -9.078125 31.8125 -12.6875 
Q 27.734375 -16.3125 15.578125 -16.3125 
L 12.5 -16.3125 
z
" id="DejaVuSans-7d"/>
     <path d="M 11.71875 12.40625 
L 22.015625 12.40625 
L 22.015625 4 
L 14.015625 -11.625 
L 7.71875 -11.625 
L 11.71875 4 
z
" id="DejaVuSans-2c"/>
    </defs>
    <g transform="translate(174.0485 27.730798)scale(0.2 -0.2)">
     <use xlink:href="#DejaVuSans-7b"/>
     <use x="63.623047" xlink:href="#DejaVuSans-66"/>
     <use x="98.828125" xlink:href="#DejaVuSans-32"/>
     <use x="162.451172" xlink:href="#DejaVuSans-30"/>
     <use x="226.074219" xlink:href="#DejaVuSans-2d"/>
     <use x="262.158203" xlink:href="#DejaVuSans-66"/>
     <use x="297.363281" xlink:href="#DejaVuSans-32"/>
     <use x="360.986328" xlink:href="#DejaVuSans-34"/>
     <use x="424.609375" xlink:href="#DejaVuSans-7d"/>
     <use x="488.232422" xlink:href="#DejaVuSans-2c"/>
     <use x="520.019531" xlink:href="#DejaVuSans-20"/>
     <use x="551.806641" xlink:href="#DejaVuSans-32"/>
     <use x="615.429688" xlink:href="#DejaVuSans-30"/>
     <use x="679.052734" xlink:href="#DejaVuSans-2d"/>
     <use x="715.136719" xlink:href="#DejaVuSans-44"/>
    </g>
   </g>
   <g id="text_14">
    <!-- absolute targets -->
    <defs>
     <path d="M 48.6875 27.296875 
Q 48.6875 37.203125 44.609375 42.84375 
Q 40.53125 48.484375 33.40625 48.484375 
Q 26.265625 48.484375 22.1875 42.84375 
Q 18.109375 37.203125 18.109375 27.296875 
Q 18.109375 17.390625 22.1875 11.75 
Q 26.265625 6.109375 33.40625 6.109375 
Q 40.53125 6.109375 44.609375 11.75 
Q 48.6875 17.390625 48.6875 27.296875 
z
M 18.109375 46.390625 
Q 20.953125 51.265625 25.265625 53.625 
Q 29.59375 56 35.59375 56 
Q 45.5625 56 51.78125 48.09375 
Q 58.015625 40.1875 58.015625 27.296875 
Q 58.015625 14.40625 51.78125 6.484375 
Q 45.5625 -1.421875 35.59375 -1.421875 
Q 29.59375 -1.421875 25.265625 0.953125 
Q 20.953125 3.328125 18.109375 8.203125 
L 18.109375 0 
L 9.078125 0 
L 9.078125 75.984375 
L 18.109375 75.984375 
z
" id="DejaVuSans-62"/>
     <path d="M 8.5 21.578125 
L 8.5 54.6875 
L 17.484375 54.6875 
L 17.484375 21.921875 
Q 17.484375 14.15625 20.5 10.265625 
Q 23.53125 6.390625 29.59375 6.390625 
Q 36.859375 6.390625 41.078125 11.03125 
Q 45.3125 15.671875 45.3125 23.6875 
L 45.3125 54.6875 
L 54.296875 54.6875 
L 54.296875 0 
L 45.3125 0 
L 45.3125 8.40625 
Q 42.046875 3.421875 37.71875 1 
Q 33.40625 -1.421875 27.6875 -1.421875 
Q 18.265625 -1.421875 13.375 4.4375 
Q 8.5 10.296875 8.5 21.578125 
z
M 31.109375 56 
z
" id="DejaVuSans-75"/>
     <path d="M 56.203125 29.59375 
L 56.203125 25.203125 
L 14.890625 25.203125 
Q 15.484375 15.921875 20.484375 11.0625 
Q 25.484375 6.203125 34.421875 6.203125 
Q 39.59375 6.203125 44.453125 7.46875 
Q 49.3125 8.734375 54.109375 11.28125 
L 54.109375 2.78125 
Q 49.265625 0.734375 44.1875 -0.34375 
Q 39.109375 -1.421875 33.890625 -1.421875 
Q 20.796875 -1.421875 13.15625 6.1875 
Q 5.515625 13.8125 5.515625 26.8125 
Q 5.515625 40.234375 12.765625 48.109375 
Q 20.015625 56 32.328125 56 
Q 43.359375 56 49.78125 48.890625 
Q 56.203125 41.796875 56.203125 29.59375 
z
M 47.21875 32.234375 
Q 47.125 39.59375 43.09375 43.984375 
Q 39.0625 48.390625 32.421875 48.390625 
Q 24.90625 48.390625 20.390625 44.140625 
Q 15.875 39.890625 15.1875 32.171875 
z
" id="DejaVuSans-65"/>
    </defs>
    <g transform="translate(59.72 600.121716)scale(0.14 -0.14)">
     <use xlink:href="#DejaVuSans-61"/>
     <use x="61.279297" xlink:href="#DejaVuSans-62"/>
     <use x="124.755859" xlink:href="#DejaVuSans-73"/>
     <use x="176.855469" xlink:href="#DejaVuSans-6f"/>
     <use x="238.037109" xlink:href="#DejaVuSans-6c"/>
     <use x="265.820312" xlink:href="#DejaVuSans-75"/>
     <use x="329.199219" xlink:href="#DejaVuSans-74"/>
     <use x="368.408203" xlink:href="#DejaVuSans-65"/>
     <use x="429.931641" xlink:href="#DejaVuSans-20"/>
     <use x="461.71875" xlink:href="#DejaVuSans-74"/>
     <use x="500.927734" xlink:href="#DejaVuSans-61"/>
     <use x="562.207031" xlink:href="#DejaVuSans-72"/>
     <use x="603.304688" xlink:href="#DejaVuSans-67"/>
     <use x="666.78125" xlink:href="#DejaVuSans-65"/>
     <use x="728.304688" xlink:href="#DejaVuSans-74"/>
     <use x="767.513672" xlink:href="#DejaVuSans-73"/>
    </g>
   </g>
   <g id="text_15">
    <!-- v2.4 -->
    <g style="fill:#808080;" transform="translate(242.350063 286.355965)scale(0.1 -0.1)">
     <use xlink:href="#DejaVuSans-76"/>
     <use x="59.179688" xlink:href="#DejaVuSans-32"/>
     <use x="122.802734" xlink:href="#DejaVuSans-2e"/>
     <use x="154.589844" xlink:href="#DejaVuSans-34"/>
    </g>
   </g>
   <g id="legend_1">
    <g id="patch_7">
     <path d="M 73.72 140.270228 
L 202.941875 140.270228 
Q 206.941875 140.270228 206.941875 136.270228 
L 206.941875 20.845228 
Q 206.941875 16.845228 202.941875 16.845228 
L 73.72 16.845228 
Q 69.72 16.845228 69.72 20.845228 
L 69.72 136.270228 
Q 69.72 140.270228 73.72 140.270228 
z
" style="fill:#ffffff;opacity:0.2;stroke:#cccccc;stroke-linejoin:miter;"/>
    </g>
    <g id="line2d_156">
     <path d="M 77.72 33.042103 
L 117.72 33.042103 
" style="fill:none;stroke:#000000;stroke-linecap:square;stroke-width:1.5;"/>
    </g>
    <g id="line2d_157"/>
    <g id="text_16">
     <!-- 1: 5/5 -->
     <defs>
      <path d="M 11.71875 12.40625 
L 22.015625 12.40625 
L 22.015625 0 
L 11.71875 0 
z
M 11.71875 51.703125 
L 22.015625 51.703125 
L 22.015625 39.3125 
L 11.71875 39.3125 
z
" id="DejaVuSans-3a"/>
      <path d="M 10.796875 72.90625 
L 49.515625 72.90625 
L 49.515625 64.59375 
L 19.828125 64.59375 
L 19.828125 46.734375 
Q 21.96875 47.46875 24.109375 47.828125 
Q 26.265625 48.1875 28.421875 48.1875 
Q 40.625 48.1875 47.75 41.5 
Q 54.890625 34.8125 54.890625 23.390625 
Q 54.890625 11.625 47.5625 5.09375 
Q 40.234375 -1.421875 26.90625 -1.421875 
Q 22.3125 -1.421875 17.546875 -0.640625 
Q 12.796875 0.140625 7.71875 1.703125 
L 7.71875 11.625 
Q 12.109375 9.234375 16.796875 8.0625 
Q 21.484375 6.890625 26.703125 6.890625 
Q 35.15625 6.890625 40.078125 11.328125 
Q 45.015625 15.765625 45.015625 23.390625 
Q 45.015625 31 40.078125 35.4375 
Q 35.15625 39.890625 26.703125 39.890625 
Q 22.75 39.890625 18.8125 39.015625 
Q 14.890625 38.140625 10.796875 36.28125 
z
" id="DejaVuSans-35"/>
     </defs>
     <g transform="translate(133.72 40.042103)scale(0.2 -0.2)">
      <use xlink:href="#DejaVuSans-31"/>
      <use x="63.623047" xlink:href="#DejaVuSans-3a"/>
      <use x="97.314453" xlink:href="#DejaVuSans-20"/>
      <use x="129.101562" xlink:href="#DejaVuSans-35"/>
      <use x="192.724609" xlink:href="#DejaVuSans-2f"/>
      <use x="226.416016" xlink:href="#DejaVuSans-35"/>
     </g>
    </g>
    <g id="line2d_158">
     <path d="M 77.72 62.398353 
L 117.72 62.398353 
" style="fill:none;stroke:#00bfbf;stroke-linecap:square;stroke-width:1.5;"/>
    </g>
    <g id="line2d_159"/>
    <g id="text_17">
     <!-- -1: 4/5 -->
     <g transform="translate(133.72 69.398353)scale(0.2 -0.2)">
      <use xlink:href="#DejaVuSans-2d"/>
      <use x="36.083984" xlink:href="#DejaVuSans-31"/>
      <use x="99.707031" xlink:href="#DejaVuSans-3a"/>
      <use x="133.398438" xlink:href="#DejaVuSans-20"/>
      <use x="165.185547" xlink:href="#DejaVuSans-34"/>
      <use x="228.808594" xlink:href="#DejaVuSans-2f"/>
      <use x="262.5" xlink:href="#DejaVuSans-35"/>
     </g>
    </g>
    <g id="line2d_160">
     <path d="M 77.72 91.754603 
L 117.72 91.754603 
" style="fill:none;stroke:#bf00bf;stroke-linecap:square;stroke-width:1.5;"/>
    </g>
    <g id="line2d_161"/>
    <g id="text_18">
     <!-- -4: 3/5 -->
     <defs>
      <path d="M 40.578125 39.3125 
Q 47.65625 37.796875 51.625 33 
Q 55.609375 28.21875 55.609375 21.1875 
Q 55.609375 10.40625 48.1875 4.484375 
Q 40.765625 -1.421875 27.09375 -1.421875 
Q 22.515625 -1.421875 17.65625 -0.515625 
Q 12.796875 0.390625 7.625 2.203125 
L 7.625 11.71875 
Q 11.71875 9.328125 16.59375 8.109375 
Q 21.484375 6.890625 26.8125 6.890625 
Q 36.078125 6.890625 40.9375 10.546875 
Q 45.796875 14.203125 45.796875 21.1875 
Q 45.796875 27.640625 41.28125 31.265625 
Q 36.765625 34.90625 28.71875 34.90625 
L 20.21875 34.90625 
L 20.21875 43.015625 
L 29.109375 43.015625 
Q 36.375 43.015625 40.234375 45.921875 
Q 44.09375 48.828125 44.09375 54.296875 
Q 44.09375 59.90625 40.109375 62.90625 
Q 36.140625 65.921875 28.71875 65.921875 
Q 24.65625 65.921875 20.015625 65.03125 
Q 15.375 64.15625 9.8125 62.3125 
L 9.8125 71.09375 
Q 15.4375 72.65625 20.34375 73.4375 
Q 25.25 74.21875 29.59375 74.21875 
Q 40.828125 74.21875 47.359375 69.109375 
Q 53.90625 64.015625 53.90625 55.328125 
Q 53.90625 49.265625 50.4375 45.09375 
Q 46.96875 40.921875 40.578125 39.3125 
z
" id="DejaVuSans-33"/>
     </defs>
     <g transform="translate(133.72 98.754603)scale(0.2 -0.2)">
      <use xlink:href="#DejaVuSans-2d"/>
      <use x="36.083984" xlink:href="#DejaVuSans-34"/>
      <use x="99.707031" xlink:href="#DejaVuSans-3a"/>
      <use x="133.398438" xlink:href="#DejaVuSans-20"/>
      <use x="165.185547" xlink:href="#DejaVuSans-33"/>
      <use x="228.808594" xlink:href="#DejaVuSans-2f"/>
      <use x="262.5" xlink:href="#DejaVuSans-35"/>
     </g>
    </g>
    <g id="line2d_162">
     <path d="M 77.72 121.110853 
L 117.72 121.110853 
" style="fill:none;stroke:#ff0000;stroke-linecap:square;stroke-width:3;"/>
    </g>
    <g id="line2d_163"/>
    <g id="text_19">
     <!-- -8: 3/5 -->
     <g transform="translate(133.72 128.110853)scale(0.2 -0.2)">
      <use xlink:href="#DejaVuSans-2d"/>
      <use x="36.083984" xlink:href="#DejaVuSans-38"/>
      <use x="99.707031" xlink:href="#DejaVuSans-3a"/>
      <use x="133.398438" xlink:href="#DejaVuSans-20"/>
      <use x="165.185547" xlink:href="#DejaVuSans-33"/>
      <use x="228.808594" xlink:href="#DejaVuSans-2f"/>
      <use x="262.5" xlink:href="#DejaVuSans-35"/>
     </g>
    </g>
   </g>
  </g>
 </g>
 <defs>
  <clipPath id="p7188c5d7c5">
   <rect height="284.434772" width="387.082" x="59.72" y="6.845228"/>
  </clipPath>
 </defs>
</svg>
