<?xml version="1.0" encoding="utf-8" standalone="no"?>
<!DOCTYPE svg PUBLIC "-//W3C//DTD SVG 1.1//EN"
  "http://www.w3.org/Graphics/SVG/1.1/DTD/svg11.dtd">
<!-- Created with matplotlib (http://matplotlib.org/) -->
<svg height="345.6pt" version="1.1" viewBox="0 0 460.8 345.6" width="460.8pt" xmlns="http://www.w3.org/2000/svg" xmlns:xlink="http://www.w3.org/1999/xlink">
 <defs>
  <style type="text/css">
*{stroke-linecap:butt;stroke-linejoin:round;}
  </style>
 </defs>
 <g id="figure_1">
  <g id="patch_1">
   <path d="M 0 345.6 
L 460.8 345.6 
L 460.8 0 
L 0 0 
z
" style="fill:#ffffff;"/>
  </g>
  <g id="axes_1">
   <g id="patch_2">
    <path d="M 59.72 291.28 
L 446.802 291.28 
L 446.802 6.845228 
L 59.72 6.845228 
z
" style="fill:#ffffff;"/>
   </g>
   <g id="line2d_1"/>
   <g id="line2d_2"/>
   <g id="line2d_3"/>
   <g id="line2d_4"/>
   <g id="line2d_5"/>
   <g id="line2d_6"/>
   <g id="line2d_7"/>
   <g id="line2d_8"/>
   <g id="line2d_9">
    <path clip-path="url(#pa9311fb352)" d="M 278.489629 291.28 
L 278.489629 287.525086 
L 292.408612 287.525086 
L 292.408612 283.770171 
L 297.095436 283.770171 
L 297.095436 280.015257 
L 297.724252 280.015257 
L 297.724252 276.260342 
L 298.176201 276.260342 
L 298.176201 272.505428 
L 298.406462 272.505428 
L 298.406462 268.750513 
L 298.81016 268.750513 
L 298.81016 264.995599 
L 299.620339 264.995599 
L 299.654863 257.48577 
L 300.520004 257.48577 
L 300.520004 253.730855 
L 301.194396 253.730855 
L 301.194396 249.975941 
L 301.445173 249.975941 
L 301.445173 246.221026 
L 301.663119 246.221026 
L 301.663119 242.466112 
L 301.885805 242.466112 
L 301.885805 238.711197 
L 302.18871 238.711197 
L 302.228266 231.201368 
L 302.332259 231.201368 
L 302.332259 227.446454 
L 303.424774 227.446454 
L 303.424774 223.691539 
L 303.663165 223.691539 
L 303.663165 219.936625 
L 312.880305 219.936625 
L 312.880305 216.18171 
L 314.902731 216.18171 
L 314.902731 212.426796 
L 316.987907 212.426796 
L 316.987907 208.671881 
L 318.654479 208.671881 
L 318.654479 204.916967 
L 319.834673 204.916967 
L 319.834673 201.162052 
L 320.185974 201.162052 
L 320.185974 197.407138 
L 321.457479 197.407138 
L 321.457479 193.652223 
L 322.105855 193.652223 
L 322.120374 186.142394 
L 323.235489 186.142394 
L 323.235489 182.38748 
L 323.628027 182.38748 
L 323.628027 178.632565 
L 323.918891 178.632565 
L 323.918891 174.877651 
L 324.039684 174.877651 
L 324.039684 171.122736 
L 324.322558 171.122736 
L 324.428594 163.612907 
L 324.986537 163.612907 
L 324.986537 159.857993 
L 325.605394 159.857993 
L 325.605394 156.103079 
L 326.208595 156.103079 
L 326.208595 152.348164 
L 326.467825 152.348164 
L 326.467825 148.59325 
L 327.334095 148.59325 
L 327.334095 144.838335 
L 328.820522 144.838335 
L 328.820522 141.083421 
L 331.623155 141.083421 
L 331.623155 137.328506 
L 331.74288 137.328506 
L 331.805608 129.818677 
L 332.047887 129.818677 
L 332.047887 126.063763 
L 332.178468 126.063763 
L 332.254855 118.553934 
L 332.970203 118.553934 
L 332.987627 111.044105 
L 336.211602 111.044105 
L 336.211602 107.28919 
L 336.430275 107.28919 
L 336.430275 103.534276 
L 337.832055 103.534276 
L 337.894499 96.024447 
L 338.393601 96.024447 
L 338.393601 92.269532 
L 342.239324 92.269532 
L 342.239324 88.514618 
L 347.766587 88.514618 
L 347.766587 84.759703 
L 348.467768 84.759703 
L 348.467768 81.004789 
L 349.067316 81.004789 
L 349.067316 77.249874 
L 349.219495 77.249874 
L 349.219495 73.49496 
L 350.661553 73.49496 
L 350.661553 69.740045 
L 351.769949 69.740045 
L 351.769949 65.985131 
L 401.247209 65.985131 
L 401.247209 62.230216 
L 404.268354 62.230216 
L 404.268354 58.475302 
L 407.89368 58.475302 
L 407.89368 54.720387 
L 410.647725 54.720387 
L 410.647725 50.965473 
L 414.847288 50.965473 
L 414.847288 47.210558 
L 417.153989 47.210558 
L 417.153989 43.455644 
L 418.239473 43.455644 
L 418.340298 35.945815 
L 418.395807 35.945815 
L 418.395807 32.1909 
L 418.732898 32.1909 
L 418.732898 28.435986 
L 420.318325 28.435986 
L 420.318325 24.681072 
L 420.801379 24.681072 
L 420.801379 20.926157 
L 421.045658 20.926157 
L 421.045658 17.171243 
L 421.761076 17.171243 
L 421.761076 13.416328 
L 422.241182 13.416328 
L 422.241182 9.661414 
L 422.241182 9.661414 
L 446.802 9.661414 
L 446.802 9.661414 
" style="fill:none;stroke:#f5deb3;stroke-linecap:square;stroke-width:1.5;"/>
   </g>
   <g id="line2d_10"/>
   <g id="line2d_11"/>
   <g id="line2d_12"/>
   <g id="line2d_13"/>
   <g id="line2d_14"/>
   <g id="line2d_15"/>
   <g id="line2d_16"/>
   <g id="line2d_17"/>
   <g id="line2d_18"/>
   <g id="line2d_19"/>
   <g id="line2d_20"/>
   <g id="line2d_21"/>
   <g id="line2d_22"/>
   <g id="line2d_23"/>
   <g id="line2d_24">
    <path clip-path="url(#pa9311fb352)" d="M 288.994416 291.28 
L 288.994416 287.525086 
L 291.232803 287.525086 
L 291.261689 280.015257 
L 321.112658 280.015257 
L 321.207381 272.505428 
L 323.458705 272.505428 
L 323.458705 268.750513 
L 323.962958 268.750513 
L 323.962958 264.995599 
L 324.204317 264.995599 
L 324.204317 261.240684 
L 326.232431 261.240684 
L 326.232431 257.48577 
L 328.38669 257.48577 
L 328.38669 253.730855 
L 328.516267 253.730855 
L 328.516267 249.975941 
L 339.797903 249.975941 
L 339.797903 246.221026 
L 341.30299 246.221026 
L 341.30299 242.466112 
L 341.666063 242.466112 
L 341.666063 238.711197 
L 341.953716 238.711197 
L 341.953716 234.956283 
L 342.147262 234.956283 
L 342.147262 231.201368 
L 342.614679 231.201368 
L 342.67776 223.691539 
L 342.891545 223.691539 
L 342.891545 219.936625 
L 343.483579 219.936625 
L 343.545016 212.426796 
L 343.806245 212.426796 
L 343.806245 208.671881 
L 344.127753 208.671881 
L 344.127753 204.916967 
L 344.488245 204.916967 
L 344.488245 201.162052 
L 344.986774 201.162052 
L 344.986774 197.407138 
L 345.215973 197.407138 
L 345.244104 189.897309 
L 345.642308 189.897309 
L 345.642308 186.142394 
L 345.909834 186.142394 
L 346.007277 178.632565 
L 346.313325 178.632565 
L 346.313325 174.877651 
L 346.812994 174.877651 
L 346.874942 167.367822 
L 347.212594 167.367822 
L 347.212594 163.612907 
L 347.629703 163.612907 
L 347.635639 156.103079 
L 348.075773 156.103079 
L 348.075773 152.348164 
L 348.266984 152.348164 
L 348.266984 148.59325 
L 348.409623 148.59325 
L 348.506481 141.083421 
L 348.693623 141.083421 
L 348.753315 133.573592 
L 349.093851 133.573592 
L 349.130062 126.063763 
L 352.514236 126.063763 
L 352.514236 122.308848 
L 354.003916 122.308848 
L 354.003916 118.553934 
L 354.156737 118.553934 
L 354.156737 114.799019 
L 355.227547 114.799019 
L 355.227547 111.044105 
L 365.148477 111.044105 
L 365.148477 107.28919 
L 365.660959 107.28919 
L 365.660959 103.534276 
L 366.053624 103.534276 
L 366.053624 99.779361 
L 369.880985 99.779361 
L 369.880985 96.024447 
L 371.190186 96.024447 
L 371.190186 92.269532 
L 371.833771 92.269532 
L 371.833771 88.514618 
L 372.277243 88.514618 
L 372.277243 84.759703 
L 373.219636 84.759703 
L 373.219636 81.004789 
L 386.874371 81.004789 
L 386.874371 77.249874 
L 387.279574 77.249874 
L 387.279574 73.49496 
L 387.820551 73.49496 
L 387.820551 69.740045 
L 388.294299 69.740045 
L 388.294299 65.985131 
L 423.024003 65.985131 
L 423.024003 62.230216 
L 434.048592 62.230216 
L 434.048592 58.475302 
L 439.593342 58.475302 
L 439.593342 54.720387 
L 442.110267 54.720387 
L 442.110267 50.965473 
L 446.152351 50.965473 
L 446.152351 47.210558 
L 446.152351 47.210558 
L 446.802 47.210558 
L 446.802 47.210558 
" style="fill:none;stroke:#f5deb3;stroke-linecap:square;stroke-width:1.5;"/>
   </g>
   <g id="line2d_25">
    <path clip-path="url(#pa9311fb352)" d="M 336.862567 291.28 
L 336.862567 287.525086 
L 337.275651 287.525086 
L 337.275651 283.770171 
L 337.479551 283.770171 
L 337.479551 280.015257 
L 337.758077 280.015257 
L 337.758077 276.260342 
L 338.236724 276.260342 
L 338.236724 272.505428 
L 338.609139 272.505428 
L 338.609139 268.750513 
L 338.609139 268.750513 
L 338.609139 268.750513 
L 446.802 268.750513 
" style="fill:none;stroke:#f5deb3;stroke-linecap:square;stroke-width:1.5;"/>
   </g>
   <g id="line2d_26">
    <path clip-path="url(#pa9311fb352)" d="M 363.700395 291.28 
L 363.700395 287.525086 
L 374.466983 287.525086 
L 374.466983 283.770171 
L 374.466983 283.770171 
L 374.466983 283.770171 
L 446.802 283.770171 
" style="fill:none;stroke:#f5deb3;stroke-linecap:square;stroke-width:1.5;"/>
   </g>
   <g id="line2d_27"/>
   <g id="line2d_28">
    <path clip-path="url(#pa9311fb352)" d="M 355.852695 291.28 
L 355.852695 287.525086 
L 356.992513 287.525086 
L 356.992513 283.770171 
L 376.752142 283.770171 
L 376.752142 280.015257 
L 376.997784 280.015257 
L 376.997784 276.260342 
L 377.254255 276.260342 
L 377.254255 272.505428 
L 377.333381 272.505428 
L 377.333381 268.750513 
L 378.477522 268.750513 
L 378.477522 264.995599 
L 378.634452 264.995599 
L 378.634452 261.240684 
L 379.140475 261.240684 
L 379.140475 257.48577 
L 379.199319 257.48577 
L 379.199319 253.730855 
L 379.35426 253.730855 
L 379.35426 249.975941 
L 379.386379 249.975941 
L 379.386379 246.221026 
L 379.542239 246.221026 
L 379.542239 242.466112 
L 379.543815 242.466112 
L 379.543815 238.711197 
L 379.903232 238.711197 
L 379.903232 234.956283 
L 380.509027 234.956283 
L 380.509027 231.201368 
L 380.579754 231.201368 
L 380.579754 227.446454 
L 380.701422 227.446454 
L 380.701422 223.691539 
L 381.085335 223.691539 
L 381.085335 219.936625 
L 381.302615 219.936625 
L 381.302615 216.18171 
L 381.576768 216.18171 
L 381.576768 212.426796 
L 381.633398 212.426796 
L 381.633398 208.671881 
L 381.66245 208.671881 
L 381.66245 204.916967 
L 381.801919 204.916967 
L 381.801919 201.162052 
L 381.880108 201.162052 
L 381.880108 197.407138 
L 381.924707 197.407138 
L 381.924707 193.652223 
L 382.318758 193.652223 
L 382.318758 189.897309 
L 382.453195 189.897309 
L 382.453195 186.142394 
L 382.564805 186.142394 
L 382.564805 182.38748 
L 382.689425 182.38748 
L 382.689425 178.632565 
L 383.163394 178.632565 
L 383.163394 174.877651 
L 383.18237 174.877651 
L 383.18237 171.122736 
L 384.600105 171.122736 
L 384.600105 167.367822 
L 384.812539 167.367822 
L 384.812539 163.612907 
L 385.064105 163.612907 
L 385.064105 159.857993 
L 385.596612 159.857993 
L 385.596612 156.103079 
L 385.778754 156.103079 
L 385.778754 152.348164 
L 385.884056 152.348164 
L 385.884056 148.59325 
L 385.985919 148.59325 
L 385.985919 144.838335 
L 386.20862 144.838335 
L 386.20862 141.083421 
L 387.009089 141.083421 
L 387.009089 137.328506 
L 387.596418 137.328506 
L 387.596418 133.573592 
L 387.908264 133.573592 
L 387.908264 129.818677 
L 391.596038 129.818677 
L 391.596038 126.063763 
L 394.768282 126.063763 
L 394.768282 122.308848 
L 401.631748 122.308848 
L 401.631748 118.553934 
L 405.174147 118.553934 
L 405.174147 114.799019 
L 406.499783 114.799019 
L 406.499783 111.044105 
L 406.603664 111.044105 
L 406.603664 107.28919 
L 407.101941 107.28919 
L 407.101941 103.534276 
L 407.377019 103.534276 
L 407.377019 99.779361 
L 407.404297 99.779361 
L 407.404297 96.024447 
L 407.502304 96.024447 
L 407.502304 92.269532 
L 408.429573 92.269532 
L 408.429573 88.514618 
L 416.720319 88.514618 
L 416.720319 84.759703 
L 417.654122 84.759703 
L 417.654122 81.004789 
L 418.700341 81.004789 
L 418.700341 77.249874 
L 429.442523 77.249874 
L 429.442523 73.49496 
L 430.401408 73.49496 
L 430.401408 69.740045 
L 440.129293 69.740045 
L 440.129293 65.985131 
L 440.129293 65.985131 
L 440.129293 65.985131 
L 446.802 65.985131 
" style="fill:none;stroke:#f5deb3;stroke-linecap:square;stroke-width:1.5;"/>
   </g>
   <g id="line2d_29"/>
   <g id="line2d_30"/>
   <g id="matplotlib.axis_1">
    <g id="xtick_1">
     <g id="line2d_31">
      <path clip-path="url(#pa9311fb352)" d="M 59.72 291.28 
L 59.72 6.845228 
" style="fill:none;stroke:#b0b0b0;stroke-linecap:square;stroke-width:0.8;"/>
     </g>
     <g id="line2d_32">
      <defs>
       <path d="M 0 0 
L 0 3.5 
" id="m3ee10fcce8" style="stroke:#000000;stroke-width:0.8;"/>
      </defs>
      <g>
       <use style="stroke:#000000;stroke-width:0.8;" x="59.72" xlink:href="#m3ee10fcce8" y="291.28"/>
      </g>
     </g>
     <g id="text_1">
      <!-- 0 -->
      <defs>
       <path d="M 31.78125 66.40625 
Q 24.171875 66.40625 20.328125 58.90625 
Q 16.5 51.421875 16.5 36.375 
Q 16.5 21.390625 20.328125 13.890625 
Q 24.171875 6.390625 31.78125 6.390625 
Q 39.453125 6.390625 43.28125 13.890625 
Q 47.125 21.390625 47.125 36.375 
Q 47.125 51.421875 43.28125 58.90625 
Q 39.453125 66.40625 31.78125 66.40625 
z
M 31.78125 74.21875 
Q 44.046875 74.21875 50.515625 64.515625 
Q 56.984375 54.828125 56.984375 36.375 
Q 56.984375 17.96875 50.515625 8.265625 
Q 44.046875 -1.421875 31.78125 -1.421875 
Q 19.53125 -1.421875 13.0625 8.265625 
Q 6.59375 17.96875 6.59375 36.375 
Q 6.59375 54.828125 13.0625 64.515625 
Q 19.53125 74.21875 31.78125 74.21875 
z
" id="DejaVuSans-30"/>
      </defs>
      <g transform="translate(53.3575 313.476875)scale(0.2 -0.2)">
       <use xlink:href="#DejaVuSans-30"/>
      </g>
     </g>
    </g>
    <g id="xtick_2">
     <g id="line2d_33">
      <path clip-path="url(#pa9311fb352)" d="M 188.747333 291.28 
L 188.747333 6.845228 
" style="fill:none;stroke:#b0b0b0;stroke-linecap:square;stroke-width:0.8;"/>
     </g>
     <g id="line2d_34">
      <g>
       <use style="stroke:#000000;stroke-width:0.8;" x="188.747333" xlink:href="#m3ee10fcce8" y="291.28"/>
      </g>
     </g>
     <g id="text_2">
      <!-- 2 -->
      <defs>
       <path d="M 19.1875 8.296875 
L 53.609375 8.296875 
L 53.609375 0 
L 7.328125 0 
L 7.328125 8.296875 
Q 12.9375 14.109375 22.625 23.890625 
Q 32.328125 33.6875 34.8125 36.53125 
Q 39.546875 41.84375 41.421875 45.53125 
Q 43.3125 49.21875 43.3125 52.78125 
Q 43.3125 58.59375 39.234375 62.25 
Q 35.15625 65.921875 28.609375 65.921875 
Q 23.96875 65.921875 18.8125 64.3125 
Q 13.671875 62.703125 7.8125 59.421875 
L 7.8125 69.390625 
Q 13.765625 71.78125 18.9375 73 
Q 24.125 74.21875 28.421875 74.21875 
Q 39.75 74.21875 46.484375 68.546875 
Q 53.21875 62.890625 53.21875 53.421875 
Q 53.21875 48.921875 51.53125 44.890625 
Q 49.859375 40.875 45.40625 35.40625 
Q 44.1875 33.984375 37.640625 27.21875 
Q 31.109375 20.453125 19.1875 8.296875 
z
" id="DejaVuSans-32"/>
      </defs>
      <g transform="translate(182.384833 313.476875)scale(0.2 -0.2)">
       <use xlink:href="#DejaVuSans-32"/>
      </g>
     </g>
    </g>
    <g id="xtick_3">
     <g id="line2d_35">
      <path clip-path="url(#pa9311fb352)" d="M 317.774667 291.28 
L 317.774667 6.845228 
" style="fill:none;stroke:#b0b0b0;stroke-linecap:square;stroke-width:0.8;"/>
     </g>
     <g id="line2d_36">
      <g>
       <use style="stroke:#000000;stroke-width:0.8;" x="317.774667" xlink:href="#m3ee10fcce8" y="291.28"/>
      </g>
     </g>
     <g id="text_3">
      <!-- 4 -->
      <defs>
       <path d="M 37.796875 64.3125 
L 12.890625 25.390625 
L 37.796875 25.390625 
z
M 35.203125 72.90625 
L 47.609375 72.90625 
L 47.609375 25.390625 
L 58.015625 25.390625 
L 58.015625 17.1875 
L 47.609375 17.1875 
L 47.609375 0 
L 37.796875 0 
L 37.796875 17.1875 
L 4.890625 17.1875 
L 4.890625 26.703125 
z
" id="DejaVuSans-34"/>
      </defs>
      <g transform="translate(311.412167 313.476875)scale(0.2 -0.2)">
       <use xlink:href="#DejaVuSans-34"/>
      </g>
     </g>
    </g>
    <g id="xtick_4">
     <g id="line2d_37">
      <path clip-path="url(#pa9311fb352)" d="M 446.802 291.28 
L 446.802 6.845228 
" style="fill:none;stroke:#b0b0b0;stroke-linecap:square;stroke-width:0.8;"/>
     </g>
     <g id="line2d_38">
      <g>
       <use style="stroke:#000000;stroke-width:0.8;" x="446.802" xlink:href="#m3ee10fcce8" y="291.28"/>
      </g>
     </g>
     <g id="text_4">
      <!-- 6 -->
      <defs>
       <path d="M 33.015625 40.375 
Q 26.375 40.375 22.484375 35.828125 
Q 18.609375 31.296875 18.609375 23.390625 
Q 18.609375 15.53125 22.484375 10.953125 
Q 26.375 6.390625 33.015625 6.390625 
Q 39.65625 6.390625 43.53125 10.953125 
Q 47.40625 15.53125 47.40625 23.390625 
Q 47.40625 31.296875 43.53125 35.828125 
Q 39.65625 40.375 33.015625 40.375 
z
M 52.59375 71.296875 
L 52.59375 62.3125 
Q 48.875 64.0625 45.09375 64.984375 
Q 41.3125 65.921875 37.59375 65.921875 
Q 27.828125 65.921875 22.671875 59.328125 
Q 17.53125 52.734375 16.796875 39.40625 
Q 19.671875 43.65625 24.015625 45.921875 
Q 28.375 48.1875 33.59375 48.1875 
Q 44.578125 48.1875 50.953125 41.515625 
Q 57.328125 34.859375 57.328125 23.390625 
Q 57.328125 12.15625 50.6875 5.359375 
Q 44.046875 -1.421875 33.015625 -1.421875 
Q 20.359375 -1.421875 13.671875 8.265625 
Q 6.984375 17.96875 6.984375 36.375 
Q 6.984375 53.65625 15.1875 63.9375 
Q 23.390625 74.21875 37.203125 74.21875 
Q 40.921875 74.21875 44.703125 73.484375 
Q 48.484375 72.75 52.59375 71.296875 
z
" id="DejaVuSans-36"/>
      </defs>
      <g transform="translate(440.4395 313.476875)scale(0.2 -0.2)">
       <use xlink:href="#DejaVuSans-36"/>
      </g>
     </g>
    </g>
    <g id="xtick_5">
     <g id="line2d_39">
      <path clip-path="url(#pa9311fb352)" d="M 79.140549 291.28 
L 79.140549 6.845228 
" style="fill:none;stroke:#b0b0b0;stroke-linecap:square;stroke-width:0.8;"/>
     </g>
     <g id="line2d_40">
      <defs>
       <path d="M 0 0 
L 0 2 
" id="meb4dec0647" style="stroke:#000000;stroke-width:0.6;"/>
      </defs>
      <g>
       <use style="stroke:#000000;stroke-width:0.6;" x="79.140549" xlink:href="#meb4dec0647" y="291.28"/>
      </g>
     </g>
    </g>
    <g id="xtick_6">
     <g id="line2d_41">
      <path clip-path="url(#pa9311fb352)" d="M 90.500842 291.28 
L 90.500842 6.845228 
" style="fill:none;stroke:#b0b0b0;stroke-linecap:square;stroke-width:0.8;"/>
     </g>
     <g id="line2d_42">
      <g>
       <use style="stroke:#000000;stroke-width:0.6;" x="90.500842" xlink:href="#meb4dec0647" y="291.28"/>
      </g>
     </g>
    </g>
    <g id="xtick_7">
     <g id="line2d_43">
      <path clip-path="url(#pa9311fb352)" d="M 98.561098 291.28 
L 98.561098 6.845228 
" style="fill:none;stroke:#b0b0b0;stroke-linecap:square;stroke-width:0.8;"/>
     </g>
     <g id="line2d_44">
      <g>
       <use style="stroke:#000000;stroke-width:0.6;" x="98.561098" xlink:href="#meb4dec0647" y="291.28"/>
      </g>
     </g>
    </g>
    <g id="xtick_8">
     <g id="line2d_45">
      <path clip-path="url(#pa9311fb352)" d="M 104.813118 291.28 
L 104.813118 6.845228 
" style="fill:none;stroke:#b0b0b0;stroke-linecap:square;stroke-width:0.8;"/>
     </g>
     <g id="line2d_46">
      <g>
       <use style="stroke:#000000;stroke-width:0.6;" x="104.813118" xlink:href="#meb4dec0647" y="291.28"/>
      </g>
     </g>
    </g>
    <g id="xtick_9">
     <g id="line2d_47">
      <path clip-path="url(#pa9311fb352)" d="M 109.92139 291.28 
L 109.92139 6.845228 
" style="fill:none;stroke:#b0b0b0;stroke-linecap:square;stroke-width:0.8;"/>
     </g>
     <g id="line2d_48">
      <g>
       <use style="stroke:#000000;stroke-width:0.6;" x="109.92139" xlink:href="#meb4dec0647" y="291.28"/>
      </g>
     </g>
    </g>
    <g id="xtick_10">
     <g id="line2d_49">
      <path clip-path="url(#pa9311fb352)" d="M 114.240373 291.28 
L 114.240373 6.845228 
" style="fill:none;stroke:#b0b0b0;stroke-linecap:square;stroke-width:0.8;"/>
     </g>
     <g id="line2d_50">
      <g>
       <use style="stroke:#000000;stroke-width:0.6;" x="114.240373" xlink:href="#meb4dec0647" y="291.28"/>
      </g>
     </g>
    </g>
    <g id="xtick_11">
     <g id="line2d_51">
      <path clip-path="url(#pa9311fb352)" d="M 117.981646 291.28 
L 117.981646 6.845228 
" style="fill:none;stroke:#b0b0b0;stroke-linecap:square;stroke-width:0.8;"/>
     </g>
     <g id="line2d_52">
      <g>
       <use style="stroke:#000000;stroke-width:0.6;" x="117.981646" xlink:href="#meb4dec0647" y="291.28"/>
      </g>
     </g>
    </g>
    <g id="xtick_12">
     <g id="line2d_53">
      <path clip-path="url(#pa9311fb352)" d="M 121.281683 291.28 
L 121.281683 6.845228 
" style="fill:none;stroke:#b0b0b0;stroke-linecap:square;stroke-width:0.8;"/>
     </g>
     <g id="line2d_54">
      <g>
       <use style="stroke:#000000;stroke-width:0.6;" x="121.281683" xlink:href="#meb4dec0647" y="291.28"/>
      </g>
     </g>
    </g>
    <g id="xtick_13">
     <g id="line2d_55">
      <path clip-path="url(#pa9311fb352)" d="M 143.654215 291.28 
L 143.654215 6.845228 
" style="fill:none;stroke:#b0b0b0;stroke-linecap:square;stroke-width:0.8;"/>
     </g>
     <g id="line2d_56">
      <g>
       <use style="stroke:#000000;stroke-width:0.6;" x="143.654215" xlink:href="#meb4dec0647" y="291.28"/>
      </g>
     </g>
    </g>
    <g id="xtick_14">
     <g id="line2d_57">
      <path clip-path="url(#pa9311fb352)" d="M 155.014508 291.28 
L 155.014508 6.845228 
" style="fill:none;stroke:#b0b0b0;stroke-linecap:square;stroke-width:0.8;"/>
     </g>
     <g id="line2d_58">
      <g>
       <use style="stroke:#000000;stroke-width:0.6;" x="155.014508" xlink:href="#meb4dec0647" y="291.28"/>
      </g>
     </g>
    </g>
    <g id="xtick_15">
     <g id="line2d_59">
      <path clip-path="url(#pa9311fb352)" d="M 163.074764 291.28 
L 163.074764 6.845228 
" style="fill:none;stroke:#b0b0b0;stroke-linecap:square;stroke-width:0.8;"/>
     </g>
     <g id="line2d_60">
      <g>
       <use style="stroke:#000000;stroke-width:0.6;" x="163.074764" xlink:href="#meb4dec0647" y="291.28"/>
      </g>
     </g>
    </g>
    <g id="xtick_16">
     <g id="line2d_61">
      <path clip-path="url(#pa9311fb352)" d="M 169.326785 291.28 
L 169.326785 6.845228 
" style="fill:none;stroke:#b0b0b0;stroke-linecap:square;stroke-width:0.8;"/>
     </g>
     <g id="line2d_62">
      <g>
       <use style="stroke:#000000;stroke-width:0.6;" x="169.326785" xlink:href="#meb4dec0647" y="291.28"/>
      </g>
     </g>
    </g>
    <g id="xtick_17">
     <g id="line2d_63">
      <path clip-path="url(#pa9311fb352)" d="M 174.435057 291.28 
L 174.435057 6.845228 
" style="fill:none;stroke:#b0b0b0;stroke-linecap:square;stroke-width:0.8;"/>
     </g>
     <g id="line2d_64">
      <g>
       <use style="stroke:#000000;stroke-width:0.6;" x="174.435057" xlink:href="#meb4dec0647" y="291.28"/>
      </g>
     </g>
    </g>
    <g id="xtick_18">
     <g id="line2d_65">
      <path clip-path="url(#pa9311fb352)" d="M 178.75404 291.28 
L 178.75404 6.845228 
" style="fill:none;stroke:#b0b0b0;stroke-linecap:square;stroke-width:0.8;"/>
     </g>
     <g id="line2d_66">
      <g>
       <use style="stroke:#000000;stroke-width:0.6;" x="178.75404" xlink:href="#meb4dec0647" y="291.28"/>
      </g>
     </g>
    </g>
    <g id="xtick_19">
     <g id="line2d_67">
      <path clip-path="url(#pa9311fb352)" d="M 182.495313 291.28 
L 182.495313 6.845228 
" style="fill:none;stroke:#b0b0b0;stroke-linecap:square;stroke-width:0.8;"/>
     </g>
     <g id="line2d_68">
      <g>
       <use style="stroke:#000000;stroke-width:0.6;" x="182.495313" xlink:href="#meb4dec0647" y="291.28"/>
      </g>
     </g>
    </g>
    <g id="xtick_20">
     <g id="line2d_69">
      <path clip-path="url(#pa9311fb352)" d="M 185.79535 291.28 
L 185.79535 6.845228 
" style="fill:none;stroke:#b0b0b0;stroke-linecap:square;stroke-width:0.8;"/>
     </g>
     <g id="line2d_70">
      <g>
       <use style="stroke:#000000;stroke-width:0.6;" x="185.79535" xlink:href="#meb4dec0647" y="291.28"/>
      </g>
     </g>
    </g>
    <g id="xtick_21">
     <g id="line2d_71">
      <path clip-path="url(#pa9311fb352)" d="M 208.167882 291.28 
L 208.167882 6.845228 
" style="fill:none;stroke:#b0b0b0;stroke-linecap:square;stroke-width:0.8;"/>
     </g>
     <g id="line2d_72">
      <g>
       <use style="stroke:#000000;stroke-width:0.6;" x="208.167882" xlink:href="#meb4dec0647" y="291.28"/>
      </g>
     </g>
    </g>
    <g id="xtick_22">
     <g id="line2d_73">
      <path clip-path="url(#pa9311fb352)" d="M 219.528175 291.28 
L 219.528175 6.845228 
" style="fill:none;stroke:#b0b0b0;stroke-linecap:square;stroke-width:0.8;"/>
     </g>
     <g id="line2d_74">
      <g>
       <use style="stroke:#000000;stroke-width:0.6;" x="219.528175" xlink:href="#meb4dec0647" y="291.28"/>
      </g>
     </g>
    </g>
    <g id="xtick_23">
     <g id="line2d_75">
      <path clip-path="url(#pa9311fb352)" d="M 227.588431 291.28 
L 227.588431 6.845228 
" style="fill:none;stroke:#b0b0b0;stroke-linecap:square;stroke-width:0.8;"/>
     </g>
     <g id="line2d_76">
      <g>
       <use style="stroke:#000000;stroke-width:0.6;" x="227.588431" xlink:href="#meb4dec0647" y="291.28"/>
      </g>
     </g>
    </g>
    <g id="xtick_24">
     <g id="line2d_77">
      <path clip-path="url(#pa9311fb352)" d="M 233.840451 291.28 
L 233.840451 6.845228 
" style="fill:none;stroke:#b0b0b0;stroke-linecap:square;stroke-width:0.8;"/>
     </g>
     <g id="line2d_78">
      <g>
       <use style="stroke:#000000;stroke-width:0.6;" x="233.840451" xlink:href="#meb4dec0647" y="291.28"/>
      </g>
     </g>
    </g>
    <g id="xtick_25">
     <g id="line2d_79">
      <path clip-path="url(#pa9311fb352)" d="M 238.948724 291.28 
L 238.948724 6.845228 
" style="fill:none;stroke:#b0b0b0;stroke-linecap:square;stroke-width:0.8;"/>
     </g>
     <g id="line2d_80">
      <g>
       <use style="stroke:#000000;stroke-width:0.6;" x="238.948724" xlink:href="#meb4dec0647" y="291.28"/>
      </g>
     </g>
    </g>
    <g id="xtick_26">
     <g id="line2d_81">
      <path clip-path="url(#pa9311fb352)" d="M 243.267707 291.28 
L 243.267707 6.845228 
" style="fill:none;stroke:#b0b0b0;stroke-linecap:square;stroke-width:0.8;"/>
     </g>
     <g id="line2d_82">
      <g>
       <use style="stroke:#000000;stroke-width:0.6;" x="243.267707" xlink:href="#meb4dec0647" y="291.28"/>
      </g>
     </g>
    </g>
    <g id="xtick_27">
     <g id="line2d_83">
      <path clip-path="url(#pa9311fb352)" d="M 247.00898 291.28 
L 247.00898 6.845228 
" style="fill:none;stroke:#b0b0b0;stroke-linecap:square;stroke-width:0.8;"/>
     </g>
     <g id="line2d_84">
      <g>
       <use style="stroke:#000000;stroke-width:0.6;" x="247.00898" xlink:href="#meb4dec0647" y="291.28"/>
      </g>
     </g>
    </g>
    <g id="xtick_28">
     <g id="line2d_85">
      <path clip-path="url(#pa9311fb352)" d="M 250.309017 291.28 
L 250.309017 6.845228 
" style="fill:none;stroke:#b0b0b0;stroke-linecap:square;stroke-width:0.8;"/>
     </g>
     <g id="line2d_86">
      <g>
       <use style="stroke:#000000;stroke-width:0.6;" x="250.309017" xlink:href="#meb4dec0647" y="291.28"/>
      </g>
     </g>
    </g>
    <g id="xtick_29">
     <g id="line2d_87">
      <path clip-path="url(#pa9311fb352)" d="M 272.681549 291.28 
L 272.681549 6.845228 
" style="fill:none;stroke:#b0b0b0;stroke-linecap:square;stroke-width:0.8;"/>
     </g>
     <g id="line2d_88">
      <g>
       <use style="stroke:#000000;stroke-width:0.6;" x="272.681549" xlink:href="#meb4dec0647" y="291.28"/>
      </g>
     </g>
    </g>
    <g id="xtick_30">
     <g id="line2d_89">
      <path clip-path="url(#pa9311fb352)" d="M 284.041842 291.28 
L 284.041842 6.845228 
" style="fill:none;stroke:#b0b0b0;stroke-linecap:square;stroke-width:0.8;"/>
     </g>
     <g id="line2d_90">
      <g>
       <use style="stroke:#000000;stroke-width:0.6;" x="284.041842" xlink:href="#meb4dec0647" y="291.28"/>
      </g>
     </g>
    </g>
    <g id="xtick_31">
     <g id="line2d_91">
      <path clip-path="url(#pa9311fb352)" d="M 292.102098 291.28 
L 292.102098 6.845228 
" style="fill:none;stroke:#b0b0b0;stroke-linecap:square;stroke-width:0.8;"/>
     </g>
     <g id="line2d_92">
      <g>
       <use style="stroke:#000000;stroke-width:0.6;" x="292.102098" xlink:href="#meb4dec0647" y="291.28"/>
      </g>
     </g>
    </g>
    <g id="xtick_32">
     <g id="line2d_93">
      <path clip-path="url(#pa9311fb352)" d="M 298.354118 291.28 
L 298.354118 6.845228 
" style="fill:none;stroke:#b0b0b0;stroke-linecap:square;stroke-width:0.8;"/>
     </g>
     <g id="line2d_94">
      <g>
       <use style="stroke:#000000;stroke-width:0.6;" x="298.354118" xlink:href="#meb4dec0647" y="291.28"/>
      </g>
     </g>
    </g>
    <g id="xtick_33">
     <g id="line2d_95">
      <path clip-path="url(#pa9311fb352)" d="M 303.46239 291.28 
L 303.46239 6.845228 
" style="fill:none;stroke:#b0b0b0;stroke-linecap:square;stroke-width:0.8;"/>
     </g>
     <g id="line2d_96">
      <g>
       <use style="stroke:#000000;stroke-width:0.6;" x="303.46239" xlink:href="#meb4dec0647" y="291.28"/>
      </g>
     </g>
    </g>
    <g id="xtick_34">
     <g id="line2d_97">
      <path clip-path="url(#pa9311fb352)" d="M 307.781373 291.28 
L 307.781373 6.845228 
" style="fill:none;stroke:#b0b0b0;stroke-linecap:square;stroke-width:0.8;"/>
     </g>
     <g id="line2d_98">
      <g>
       <use style="stroke:#000000;stroke-width:0.6;" x="307.781373" xlink:href="#meb4dec0647" y="291.28"/>
      </g>
     </g>
    </g>
    <g id="xtick_35">
     <g id="line2d_99">
      <path clip-path="url(#pa9311fb352)" d="M 311.522646 291.28 
L 311.522646 6.845228 
" style="fill:none;stroke:#b0b0b0;stroke-linecap:square;stroke-width:0.8;"/>
     </g>
     <g id="line2d_100">
      <g>
       <use style="stroke:#000000;stroke-width:0.6;" x="311.522646" xlink:href="#meb4dec0647" y="291.28"/>
      </g>
     </g>
    </g>
    <g id="xtick_36">
     <g id="line2d_101">
      <path clip-path="url(#pa9311fb352)" d="M 314.822683 291.28 
L 314.822683 6.845228 
" style="fill:none;stroke:#b0b0b0;stroke-linecap:square;stroke-width:0.8;"/>
     </g>
     <g id="line2d_102">
      <g>
       <use style="stroke:#000000;stroke-width:0.6;" x="314.822683" xlink:href="#meb4dec0647" y="291.28"/>
      </g>
     </g>
    </g>
    <g id="xtick_37">
     <g id="line2d_103">
      <path clip-path="url(#pa9311fb352)" d="M 337.195215 291.28 
L 337.195215 6.845228 
" style="fill:none;stroke:#b0b0b0;stroke-linecap:square;stroke-width:0.8;"/>
     </g>
     <g id="line2d_104">
      <g>
       <use style="stroke:#000000;stroke-width:0.6;" x="337.195215" xlink:href="#meb4dec0647" y="291.28"/>
      </g>
     </g>
    </g>
    <g id="xtick_38">
     <g id="line2d_105">
      <path clip-path="url(#pa9311fb352)" d="M 348.555508 291.28 
L 348.555508 6.845228 
" style="fill:none;stroke:#b0b0b0;stroke-linecap:square;stroke-width:0.8;"/>
     </g>
     <g id="line2d_106">
      <g>
       <use style="stroke:#000000;stroke-width:0.6;" x="348.555508" xlink:href="#meb4dec0647" y="291.28"/>
      </g>
     </g>
    </g>
    <g id="xtick_39">
     <g id="line2d_107">
      <path clip-path="url(#pa9311fb352)" d="M 356.615764 291.28 
L 356.615764 6.845228 
" style="fill:none;stroke:#b0b0b0;stroke-linecap:square;stroke-width:0.8;"/>
     </g>
     <g id="line2d_108">
      <g>
       <use style="stroke:#000000;stroke-width:0.6;" x="356.615764" xlink:href="#meb4dec0647" y="291.28"/>
      </g>
     </g>
    </g>
    <g id="xtick_40">
     <g id="line2d_109">
      <path clip-path="url(#pa9311fb352)" d="M 362.867785 291.28 
L 362.867785 6.845228 
" style="fill:none;stroke:#b0b0b0;stroke-linecap:square;stroke-width:0.8;"/>
     </g>
     <g id="line2d_110">
      <g>
       <use style="stroke:#000000;stroke-width:0.6;" x="362.867785" xlink:href="#meb4dec0647" y="291.28"/>
      </g>
     </g>
    </g>
    <g id="xtick_41">
     <g id="line2d_111">
      <path clip-path="url(#pa9311fb352)" d="M 367.976057 291.28 
L 367.976057 6.845228 
" style="fill:none;stroke:#b0b0b0;stroke-linecap:square;stroke-width:0.8;"/>
     </g>
     <g id="line2d_112">
      <g>
       <use style="stroke:#000000;stroke-width:0.6;" x="367.976057" xlink:href="#meb4dec0647" y="291.28"/>
      </g>
     </g>
    </g>
    <g id="xtick_42">
     <g id="line2d_113">
      <path clip-path="url(#pa9311fb352)" d="M 372.29504 291.28 
L 372.29504 6.845228 
" style="fill:none;stroke:#b0b0b0;stroke-linecap:square;stroke-width:0.8;"/>
     </g>
     <g id="line2d_114">
      <g>
       <use style="stroke:#000000;stroke-width:0.6;" x="372.29504" xlink:href="#meb4dec0647" y="291.28"/>
      </g>
     </g>
    </g>
    <g id="xtick_43">
     <g id="line2d_115">
      <path clip-path="url(#pa9311fb352)" d="M 376.036313 291.28 
L 376.036313 6.845228 
" style="fill:none;stroke:#b0b0b0;stroke-linecap:square;stroke-width:0.8;"/>
     </g>
     <g id="line2d_116">
      <g>
       <use style="stroke:#000000;stroke-width:0.6;" x="376.036313" xlink:href="#meb4dec0647" y="291.28"/>
      </g>
     </g>
    </g>
    <g id="xtick_44">
     <g id="line2d_117">
      <path clip-path="url(#pa9311fb352)" d="M 379.33635 291.28 
L 379.33635 6.845228 
" style="fill:none;stroke:#b0b0b0;stroke-linecap:square;stroke-width:0.8;"/>
     </g>
     <g id="line2d_118">
      <g>
       <use style="stroke:#000000;stroke-width:0.6;" x="379.33635" xlink:href="#meb4dec0647" y="291.28"/>
      </g>
     </g>
    </g>
    <g id="xtick_45">
     <g id="line2d_119">
      <path clip-path="url(#pa9311fb352)" d="M 401.708882 291.28 
L 401.708882 6.845228 
" style="fill:none;stroke:#b0b0b0;stroke-linecap:square;stroke-width:0.8;"/>
     </g>
     <g id="line2d_120">
      <g>
       <use style="stroke:#000000;stroke-width:0.6;" x="401.708882" xlink:href="#meb4dec0647" y="291.28"/>
      </g>
     </g>
    </g>
    <g id="xtick_46">
     <g id="line2d_121">
      <path clip-path="url(#pa9311fb352)" d="M 413.069175 291.28 
L 413.069175 6.845228 
" style="fill:none;stroke:#b0b0b0;stroke-linecap:square;stroke-width:0.8;"/>
     </g>
     <g id="line2d_122">
      <g>
       <use style="stroke:#000000;stroke-width:0.6;" x="413.069175" xlink:href="#meb4dec0647" y="291.28"/>
      </g>
     </g>
    </g>
    <g id="xtick_47">
     <g id="line2d_123">
      <path clip-path="url(#pa9311fb352)" d="M 421.129431 291.28 
L 421.129431 6.845228 
" style="fill:none;stroke:#b0b0b0;stroke-linecap:square;stroke-width:0.8;"/>
     </g>
     <g id="line2d_124">
      <g>
       <use style="stroke:#000000;stroke-width:0.6;" x="421.129431" xlink:href="#meb4dec0647" y="291.28"/>
      </g>
     </g>
    </g>
    <g id="xtick_48">
     <g id="line2d_125">
      <path clip-path="url(#pa9311fb352)" d="M 427.381451 291.28 
L 427.381451 6.845228 
" style="fill:none;stroke:#b0b0b0;stroke-linecap:square;stroke-width:0.8;"/>
     </g>
     <g id="line2d_126">
      <g>
       <use style="stroke:#000000;stroke-width:0.6;" x="427.381451" xlink:href="#meb4dec0647" y="291.28"/>
      </g>
     </g>
    </g>
    <g id="xtick_49">
     <g id="line2d_127">
      <path clip-path="url(#pa9311fb352)" d="M 432.489724 291.28 
L 432.489724 6.845228 
" style="fill:none;stroke:#b0b0b0;stroke-linecap:square;stroke-width:0.8;"/>
     </g>
     <g id="line2d_128">
      <g>
       <use style="stroke:#000000;stroke-width:0.6;" x="432.489724" xlink:href="#meb4dec0647" y="291.28"/>
      </g>
     </g>
    </g>
    <g id="xtick_50">
     <g id="line2d_129">
      <path clip-path="url(#pa9311fb352)" d="M 436.808707 291.28 
L 436.808707 6.845228 
" style="fill:none;stroke:#b0b0b0;stroke-linecap:square;stroke-width:0.8;"/>
     </g>
     <g id="line2d_130">
      <g>
       <use style="stroke:#000000;stroke-width:0.6;" x="436.808707" xlink:href="#meb4dec0647" y="291.28"/>
      </g>
     </g>
    </g>
    <g id="xtick_51">
     <g id="line2d_131">
      <path clip-path="url(#pa9311fb352)" d="M 440.54998 291.28 
L 440.54998 6.845228 
" style="fill:none;stroke:#b0b0b0;stroke-linecap:square;stroke-width:0.8;"/>
     </g>
     <g id="line2d_132">
      <g>
       <use style="stroke:#000000;stroke-width:0.6;" x="440.54998" xlink:href="#meb4dec0647" y="291.28"/>
      </g>
     </g>
    </g>
    <g id="xtick_52">
     <g id="line2d_133">
      <path clip-path="url(#pa9311fb352)" d="M 443.850017 291.28 
L 443.850017 6.845228 
" style="fill:none;stroke:#b0b0b0;stroke-linecap:square;stroke-width:0.8;"/>
     </g>
     <g id="line2d_134">
      <g>
       <use style="stroke:#000000;stroke-width:0.6;" x="443.850017" xlink:href="#meb4dec0647" y="291.28"/>
      </g>
     </g>
    </g>
    <g id="text_5">
     <!-- log10 of FEvals / DIM -->
     <defs>
      <path d="M 9.421875 75.984375 
L 18.40625 75.984375 
L 18.40625 0 
L 9.421875 0 
z
" id="DejaVuSans-6c"/>
      <path d="M 30.609375 48.390625 
Q 23.390625 48.390625 19.1875 42.75 
Q 14.984375 37.109375 14.984375 27.296875 
Q 14.984375 17.484375 19.15625 11.84375 
Q 23.34375 6.203125 30.609375 6.203125 
Q 37.796875 6.203125 41.984375 11.859375 
Q 46.1875 17.53125 46.1875 27.296875 
Q 46.1875 37.015625 41.984375 42.703125 
Q 37.796875 48.390625 30.609375 48.390625 
z
M 30.609375 56 
Q 42.328125 56 49.015625 48.375 
Q 55.71875 40.765625 55.71875 27.296875 
Q 55.71875 13.875 49.015625 6.21875 
Q 42.328125 -1.421875 30.609375 -1.421875 
Q 18.84375 -1.421875 12.171875 6.21875 
Q 5.515625 13.875 5.515625 27.296875 
Q 5.515625 40.765625 12.171875 48.375 
Q 18.84375 56 30.609375 56 
z
" id="DejaVuSans-6f"/>
      <path d="M 45.40625 27.984375 
Q 45.40625 37.75 41.375 43.109375 
Q 37.359375 48.484375 30.078125 48.484375 
Q 22.859375 48.484375 18.828125 43.109375 
Q 14.796875 37.75 14.796875 27.984375 
Q 14.796875 18.265625 18.828125 12.890625 
Q 22.859375 7.515625 30.078125 7.515625 
Q 37.359375 7.515625 41.375 12.890625 
Q 45.40625 18.265625 45.40625 27.984375 
z
M 54.390625 6.78125 
Q 54.390625 -7.171875 48.1875 -13.984375 
Q 42 -20.796875 29.203125 -20.796875 
Q 24.46875 -20.796875 20.265625 -20.09375 
Q 16.0625 -19.390625 12.109375 -17.921875 
L 12.109375 -9.1875 
Q 16.0625 -11.328125 19.921875 -12.34375 
Q 23.78125 -13.375 27.78125 -13.375 
Q 36.625 -13.375 41.015625 -8.765625 
Q 45.40625 -4.15625 45.40625 5.171875 
L 45.40625 9.625 
Q 42.625 4.78125 38.28125 2.390625 
Q 33.9375 0 27.875 0 
Q 17.828125 0 11.671875 7.65625 
Q 5.515625 15.328125 5.515625 27.984375 
Q 5.515625 40.671875 11.671875 48.328125 
Q 17.828125 56 27.875 56 
Q 33.9375 56 38.28125 53.609375 
Q 42.625 51.21875 45.40625 46.390625 
L 45.40625 54.6875 
L 54.390625 54.6875 
z
" id="DejaVuSans-67"/>
      <path d="M 12.40625 8.296875 
L 28.515625 8.296875 
L 28.515625 63.921875 
L 10.984375 60.40625 
L 10.984375 69.390625 
L 28.421875 72.90625 
L 38.28125 72.90625 
L 38.28125 8.296875 
L 54.390625 8.296875 
L 54.390625 0 
L 12.40625 0 
z
" id="DejaVuSans-31"/>
      <path id="DejaVuSans-20"/>
      <path d="M 37.109375 75.984375 
L 37.109375 68.5 
L 28.515625 68.5 
Q 23.6875 68.5 21.796875 66.546875 
Q 19.921875 64.59375 19.921875 59.515625 
L 19.921875 54.6875 
L 34.71875 54.6875 
L 34.71875 47.703125 
L 19.921875 47.703125 
L 19.921875 0 
L 10.890625 0 
L 10.890625 47.703125 
L 2.296875 47.703125 
L 2.296875 54.6875 
L 10.890625 54.6875 
L 10.890625 58.5 
Q 10.890625 67.625 15.140625 71.796875 
Q 19.390625 75.984375 28.609375 75.984375 
z
" id="DejaVuSans-66"/>
      <path d="M 9.8125 72.90625 
L 51.703125 72.90625 
L 51.703125 64.59375 
L 19.671875 64.59375 
L 19.671875 43.109375 
L 48.578125 43.109375 
L 48.578125 34.8125 
L 19.671875 34.8125 
L 19.671875 0 
L 9.8125 0 
z
" id="DejaVuSans-46"/>
      <path d="M 9.8125 72.90625 
L 55.90625 72.90625 
L 55.90625 64.59375 
L 19.671875 64.59375 
L 19.671875 43.015625 
L 54.390625 43.015625 
L 54.390625 34.71875 
L 19.671875 34.71875 
L 19.671875 8.296875 
L 56.78125 8.296875 
L 56.78125 0 
L 9.8125 0 
z
" id="DejaVuSans-45"/>
      <path d="M 2.984375 54.6875 
L 12.5 54.6875 
L 29.59375 8.796875 
L 46.6875 54.6875 
L 56.203125 54.6875 
L 35.6875 0 
L 23.484375 0 
z
" id="DejaVuSans-76"/>
      <path d="M 34.28125 27.484375 
Q 23.390625 27.484375 19.1875 25 
Q 14.984375 22.515625 14.984375 16.5 
Q 14.984375 11.71875 18.140625 8.90625 
Q 21.296875 6.109375 26.703125 6.109375 
Q 34.1875 6.109375 38.703125 11.40625 
Q 43.21875 16.703125 43.21875 25.484375 
L 43.21875 27.484375 
z
M 52.203125 31.203125 
L 52.203125 0 
L 43.21875 0 
L 43.21875 8.296875 
Q 40.140625 3.328125 35.546875 0.953125 
Q 30.953125 -1.421875 24.3125 -1.421875 
Q 15.921875 -1.421875 10.953125 3.296875 
Q 6 8.015625 6 15.921875 
Q 6 25.140625 12.171875 29.828125 
Q 18.359375 34.515625 30.609375 34.515625 
L 43.21875 34.515625 
L 43.21875 35.40625 
Q 43.21875 41.609375 39.140625 45 
Q 35.0625 48.390625 27.6875 48.390625 
Q 23 48.390625 18.546875 47.265625 
Q 14.109375 46.140625 10.015625 43.890625 
L 10.015625 52.203125 
Q 14.9375 54.109375 19.578125 55.046875 
Q 24.21875 56 28.609375 56 
Q 40.484375 56 46.34375 49.84375 
Q 52.203125 43.703125 52.203125 31.203125 
z
" id="DejaVuSans-61"/>
      <path d="M 44.28125 53.078125 
L 44.28125 44.578125 
Q 40.484375 46.53125 36.375 47.5 
Q 32.28125 48.484375 27.875 48.484375 
Q 21.1875 48.484375 17.84375 46.4375 
Q 14.5 44.390625 14.5 40.28125 
Q 14.5 37.15625 16.890625 35.375 
Q 19.28125 33.59375 26.515625 31.984375 
L 29.59375 31.296875 
Q 39.15625 29.25 43.1875 25.515625 
Q 47.21875 21.78125 47.21875 15.09375 
Q 47.21875 7.46875 41.1875 3.015625 
Q 35.15625 -1.421875 24.609375 -1.421875 
Q 20.21875 -1.421875 15.453125 -0.5625 
Q 10.6875 0.296875 5.421875 2 
L 5.421875 11.28125 
Q 10.40625 8.6875 15.234375 7.390625 
Q 20.0625 6.109375 24.8125 6.109375 
Q 31.15625 6.109375 34.5625 8.28125 
Q 37.984375 10.453125 37.984375 14.40625 
Q 37.984375 18.0625 35.515625 20.015625 
Q 33.0625 21.96875 24.703125 23.78125 
L 21.578125 24.515625 
Q 13.234375 26.265625 9.515625 29.90625 
Q 5.8125 33.546875 5.8125 39.890625 
Q 5.8125 47.609375 11.28125 51.796875 
Q 16.75 56 26.8125 56 
Q 31.78125 56 36.171875 55.265625 
Q 40.578125 54.546875 44.28125 53.078125 
z
" id="DejaVuSans-73"/>
      <path d="M 25.390625 72.90625 
L 33.6875 72.90625 
L 8.296875 -9.28125 
L 0 -9.28125 
z
" id="DejaVuSans-2f"/>
      <path d="M 19.671875 64.796875 
L 19.671875 8.109375 
L 31.59375 8.109375 
Q 46.6875 8.109375 53.6875 14.9375 
Q 60.6875 21.78125 60.6875 36.53125 
Q 60.6875 51.171875 53.6875 57.984375 
Q 46.6875 64.796875 31.59375 64.796875 
z
M 9.8125 72.90625 
L 30.078125 72.90625 
Q 51.265625 72.90625 61.171875 64.09375 
Q 71.09375 55.28125 71.09375 36.53125 
Q 71.09375 17.671875 61.125 8.828125 
Q 51.171875 0 30.078125 0 
L 9.8125 0 
z
" id="DejaVuSans-44"/>
      <path d="M 9.8125 72.90625 
L 19.671875 72.90625 
L 19.671875 0 
L 9.8125 0 
z
" id="DejaVuSans-49"/>
      <path d="M 9.8125 72.90625 
L 24.515625 72.90625 
L 43.109375 23.296875 
L 61.8125 72.90625 
L 76.515625 72.90625 
L 76.515625 0 
L 66.890625 0 
L 66.890625 64.015625 
L 48.09375 14.015625 
L 38.1875 14.015625 
L 19.390625 64.015625 
L 19.390625 0 
L 9.8125 0 
z
" id="DejaVuSans-4d"/>
     </defs>
     <g transform="translate(148.187563 336.833125)scale(0.2 -0.2)">
      <use xlink:href="#DejaVuSans-6c"/>
      <use x="27.783203" xlink:href="#DejaVuSans-6f"/>
      <use x="88.964844" xlink:href="#DejaVuSans-67"/>
      <use x="152.441406" xlink:href="#DejaVuSans-31"/>
      <use x="216.064453" xlink:href="#DejaVuSans-30"/>
      <use x="279.6875" xlink:href="#DejaVuSans-20"/>
      <use x="311.474609" xlink:href="#DejaVuSans-6f"/>
      <use x="372.65625" xlink:href="#DejaVuSans-66"/>
      <use x="407.861328" xlink:href="#DejaVuSans-20"/>
      <use x="439.648438" xlink:href="#DejaVuSans-46"/>
      <use x="497.167969" xlink:href="#DejaVuSans-45"/>
      <use x="560.351562" xlink:href="#DejaVuSans-76"/>
      <use x="619.53125" xlink:href="#DejaVuSans-61"/>
      <use x="680.810547" xlink:href="#DejaVuSans-6c"/>
      <use x="708.59375" xlink:href="#DejaVuSans-73"/>
      <use x="760.693359" xlink:href="#DejaVuSans-20"/>
      <use x="792.480469" xlink:href="#DejaVuSans-2f"/>
      <use x="826.171875" xlink:href="#DejaVuSans-20"/>
      <use x="857.958984" xlink:href="#DejaVuSans-44"/>
      <use x="934.960938" xlink:href="#DejaVuSans-49"/>
      <use x="964.453125" xlink:href="#DejaVuSans-4d"/>
     </g>
    </g>
   </g>
   <g id="matplotlib.axis_2">
    <g id="ytick_1">
     <g id="line2d_135">
      <path clip-path="url(#pa9311fb352)" d="M 59.72 291.28 
L 446.802 291.28 
" style="fill:none;stroke:#b0b0b0;stroke-linecap:square;stroke-width:0.8;"/>
     </g>
     <g id="line2d_136">
      <defs>
       <path d="M 0 0 
L -3.5 0 
" id="mca962a5746" style="stroke:#000000;stroke-width:0.8;"/>
      </defs>
      <g>
       <use style="stroke:#000000;stroke-width:0.8;" x="59.72" xlink:href="#mca962a5746" y="291.28"/>
      </g>
     </g>
     <g id="text_6">
      <!-- 0.0 -->
      <defs>
       <path d="M 10.6875 12.40625 
L 21 12.40625 
L 21 0 
L 10.6875 0 
z
" id="DejaVuSans-2e"/>
      </defs>
      <g transform="translate(27.275 297.35875)scale(0.16 -0.16)">
       <use xlink:href="#DejaVuSans-30"/>
       <use x="63.623047" xlink:href="#DejaVuSans-2e"/>
       <use x="95.410156" xlink:href="#DejaVuSans-30"/>
      </g>
     </g>
    </g>
    <g id="ytick_2">
     <g id="line2d_137">
      <path clip-path="url(#pa9311fb352)" d="M 59.72 234.956283 
L 446.802 234.956283 
" style="fill:none;stroke:#b0b0b0;stroke-linecap:square;stroke-width:0.8;"/>
     </g>
     <g id="line2d_138">
      <g>
       <use style="stroke:#000000;stroke-width:0.8;" x="59.72" xlink:href="#mca962a5746" y="234.956283"/>
      </g>
     </g>
     <g id="text_7">
      <!-- 0.2 -->
      <g transform="translate(27.275 241.035033)scale(0.16 -0.16)">
       <use xlink:href="#DejaVuSans-30"/>
       <use x="63.623047" xlink:href="#DejaVuSans-2e"/>
       <use x="95.410156" xlink:href="#DejaVuSans-32"/>
      </g>
     </g>
    </g>
    <g id="ytick_3">
     <g id="line2d_139">
      <path clip-path="url(#pa9311fb352)" d="M 59.72 178.632565 
L 446.802 178.632565 
" style="fill:none;stroke:#b0b0b0;stroke-linecap:square;stroke-width:0.8;"/>
     </g>
     <g id="line2d_140">
      <g>
       <use style="stroke:#000000;stroke-width:0.8;" x="59.72" xlink:href="#mca962a5746" y="178.632565"/>
      </g>
     </g>
     <g id="text_8">
      <!-- 0.4 -->
      <g transform="translate(27.275 184.711315)scale(0.16 -0.16)">
       <use xlink:href="#DejaVuSans-30"/>
       <use x="63.623047" xlink:href="#DejaVuSans-2e"/>
       <use x="95.410156" xlink:href="#DejaVuSans-34"/>
      </g>
     </g>
    </g>
    <g id="ytick_4">
     <g id="line2d_141">
      <path clip-path="url(#pa9311fb352)" d="M 59.72 122.308848 
L 446.802 122.308848 
" style="fill:none;stroke:#b0b0b0;stroke-linecap:square;stroke-width:0.8;"/>
     </g>
     <g id="line2d_142">
      <g>
       <use style="stroke:#000000;stroke-width:0.8;" x="59.72" xlink:href="#mca962a5746" y="122.308848"/>
      </g>
     </g>
     <g id="text_9">
      <!-- 0.6 -->
      <g transform="translate(27.275 128.387598)scale(0.16 -0.16)">
       <use xlink:href="#DejaVuSans-30"/>
       <use x="63.623047" xlink:href="#DejaVuSans-2e"/>
       <use x="95.410156" xlink:href="#DejaVuSans-36"/>
      </g>
     </g>
    </g>
    <g id="ytick_5">
     <g id="line2d_143">
      <path clip-path="url(#pa9311fb352)" d="M 59.72 65.985131 
L 446.802 65.985131 
" style="fill:none;stroke:#b0b0b0;stroke-linecap:square;stroke-width:0.8;"/>
     </g>
     <g id="line2d_144">
      <g>
       <use style="stroke:#000000;stroke-width:0.8;" x="59.72" xlink:href="#mca962a5746" y="65.985131"/>
      </g>
     </g>
     <g id="text_10">
      <!-- 0.8 -->
      <defs>
       <path d="M 31.78125 34.625 
Q 24.75 34.625 20.71875 30.859375 
Q 16.703125 27.09375 16.703125 20.515625 
Q 16.703125 13.921875 20.71875 10.15625 
Q 24.75 6.390625 31.78125 6.390625 
Q 38.8125 6.390625 42.859375 10.171875 
Q 46.921875 13.96875 46.921875 20.515625 
Q 46.921875 27.09375 42.890625 30.859375 
Q 38.875 34.625 31.78125 34.625 
z
M 21.921875 38.8125 
Q 15.578125 40.375 12.03125 44.71875 
Q 8.5 49.078125 8.5 55.328125 
Q 8.5 64.0625 14.71875 69.140625 
Q 20.953125 74.21875 31.78125 74.21875 
Q 42.671875 74.21875 48.875 69.140625 
Q 55.078125 64.0625 55.078125 55.328125 
Q 55.078125 49.078125 51.53125 44.71875 
Q 48 40.375 41.703125 38.8125 
Q 48.828125 37.15625 52.796875 32.3125 
Q 56.78125 27.484375 56.78125 20.515625 
Q 56.78125 9.90625 50.3125 4.234375 
Q 43.84375 -1.421875 31.78125 -1.421875 
Q 19.734375 -1.421875 13.25 4.234375 
Q 6.78125 9.90625 6.78125 20.515625 
Q 6.78125 27.484375 10.78125 32.3125 
Q 14.796875 37.15625 21.921875 38.8125 
z
M 18.3125 54.390625 
Q 18.3125 48.734375 21.84375 45.5625 
Q 25.390625 42.390625 31.78125 42.390625 
Q 38.140625 42.390625 41.71875 45.5625 
Q 45.3125 48.734375 45.3125 54.390625 
Q 45.3125 60.0625 41.71875 63.234375 
Q 38.140625 66.40625 31.78125 66.40625 
Q 25.390625 66.40625 21.84375 63.234375 
Q 18.3125 60.0625 18.3125 54.390625 
z
" id="DejaVuSans-38"/>
      </defs>
      <g transform="translate(27.275 72.063881)scale(0.16 -0.16)">
       <use xlink:href="#DejaVuSans-30"/>
       <use x="63.623047" xlink:href="#DejaVuSans-2e"/>
       <use x="95.410156" xlink:href="#DejaVuSans-38"/>
      </g>
     </g>
    </g>
    <g id="ytick_6">
     <g id="line2d_145">
      <path clip-path="url(#pa9311fb352)" d="M 59.72 9.661414 
L 446.802 9.661414 
" style="fill:none;stroke:#b0b0b0;stroke-linecap:square;stroke-width:0.8;"/>
     </g>
     <g id="line2d_146">
      <g>
       <use style="stroke:#000000;stroke-width:0.8;" x="59.72" xlink:href="#mca962a5746" y="9.661414"/>
      </g>
     </g>
     <g id="text_11">
      <!-- 1.0 -->
      <g transform="translate(27.275 15.740164)scale(0.16 -0.16)">
       <use xlink:href="#DejaVuSans-31"/>
       <use x="63.623047" xlink:href="#DejaVuSans-2e"/>
       <use x="95.410156" xlink:href="#DejaVuSans-30"/>
      </g>
     </g>
    </g>
    <g id="text_12">
     <!-- proportion of trials -->
     <defs>
      <path d="M 18.109375 8.203125 
L 18.109375 -20.796875 
L 9.078125 -20.796875 
L 9.078125 54.6875 
L 18.109375 54.6875 
L 18.109375 46.390625 
Q 20.953125 51.265625 25.265625 53.625 
Q 29.59375 56 35.59375 56 
Q 45.5625 56 51.78125 48.09375 
Q 58.015625 40.1875 58.015625 27.296875 
Q 58.015625 14.40625 51.78125 6.484375 
Q 45.5625 -1.421875 35.59375 -1.421875 
Q 29.59375 -1.421875 25.265625 0.953125 
Q 20.953125 3.328125 18.109375 8.203125 
z
M 48.6875 27.296875 
Q 48.6875 37.203125 44.609375 42.84375 
Q 40.53125 48.484375 33.40625 48.484375 
Q 26.265625 48.484375 22.1875 42.84375 
Q 18.109375 37.203125 18.109375 27.296875 
Q 18.109375 17.390625 22.1875 11.75 
Q 26.265625 6.109375 33.40625 6.109375 
Q 40.53125 6.109375 44.609375 11.75 
Q 48.6875 17.390625 48.6875 27.296875 
z
" id="DejaVuSans-70"/>
      <path d="M 41.109375 46.296875 
Q 39.59375 47.171875 37.8125 47.578125 
Q 36.03125 48 33.890625 48 
Q 26.265625 48 22.1875 43.046875 
Q 18.109375 38.09375 18.109375 28.8125 
L 18.109375 0 
L 9.078125 0 
L 9.078125 54.6875 
L 18.109375 54.6875 
L 18.109375 46.1875 
Q 20.953125 51.171875 25.484375 53.578125 
Q 30.03125 56 36.53125 56 
Q 37.453125 56 38.578125 55.875 
Q 39.703125 55.765625 41.0625 55.515625 
z
" id="DejaVuSans-72"/>
      <path d="M 18.3125 70.21875 
L 18.3125 54.6875 
L 36.8125 54.6875 
L 36.8125 47.703125 
L 18.3125 47.703125 
L 18.3125 18.015625 
Q 18.3125 11.328125 20.140625 9.421875 
Q 21.96875 7.515625 27.59375 7.515625 
L 36.8125 7.515625 
L 36.8125 0 
L 27.59375 0 
Q 17.1875 0 13.234375 3.875 
Q 9.28125 7.765625 9.28125 18.015625 
L 9.28125 47.703125 
L 2.6875 47.703125 
L 2.6875 54.6875 
L 9.28125 54.6875 
L 9.28125 70.21875 
z
" id="DejaVuSans-74"/>
      <path d="M 9.421875 54.6875 
L 18.40625 54.6875 
L 18.40625 0 
L 9.421875 0 
z
M 9.421875 75.984375 
L 18.40625 75.984375 
L 18.40625 64.59375 
L 9.421875 64.59375 
z
" id="DejaVuSans-69"/>
      <path d="M 54.890625 33.015625 
L 54.890625 0 
L 45.90625 0 
L 45.90625 32.71875 
Q 45.90625 40.484375 42.875 44.328125 
Q 39.84375 48.1875 33.796875 48.1875 
Q 26.515625 48.1875 22.3125 43.546875 
Q 18.109375 38.921875 18.109375 30.90625 
L 18.109375 0 
L 9.078125 0 
L 9.078125 54.6875 
L 18.109375 54.6875 
L 18.109375 46.1875 
Q 21.34375 51.125 25.703125 53.5625 
Q 30.078125 56 35.796875 56 
Q 45.21875 56 50.046875 50.171875 
Q 54.890625 44.34375 54.890625 33.015625 
z
" id="DejaVuSans-6e"/>
     </defs>
     <g transform="translate(19.115625 242.290739)rotate(-90)scale(0.2 -0.2)">
      <use xlink:href="#DejaVuSans-70"/>
      <use x="63.476562" xlink:href="#DejaVuSans-72"/>
      <use x="104.558594" xlink:href="#DejaVuSans-6f"/>
      <use x="165.740234" xlink:href="#DejaVuSans-70"/>
      <use x="229.216797" xlink:href="#DejaVuSans-6f"/>
      <use x="290.398438" xlink:href="#DejaVuSans-72"/>
      <use x="331.511719" xlink:href="#DejaVuSans-74"/>
      <use x="370.720703" xlink:href="#DejaVuSans-69"/>
      <use x="398.503906" xlink:href="#DejaVuSans-6f"/>
      <use x="459.685547" xlink:href="#DejaVuSans-6e"/>
      <use x="523.064453" xlink:href="#DejaVuSans-20"/>
      <use x="554.851562" xlink:href="#DejaVuSans-6f"/>
      <use x="616.033203" xlink:href="#DejaVuSans-66"/>
      <use x="651.238281" xlink:href="#DejaVuSans-20"/>
      <use x="683.025391" xlink:href="#DejaVuSans-74"/>
      <use x="722.234375" xlink:href="#DejaVuSans-72"/>
      <use x="763.347656" xlink:href="#DejaVuSans-69"/>
      <use x="791.130859" xlink:href="#DejaVuSans-61"/>
      <use x="852.410156" xlink:href="#DejaVuSans-6c"/>
      <use x="880.193359" xlink:href="#DejaVuSans-73"/>
     </g>
    </g>
   </g>
   <g id="line2d_147">
    <path clip-path="url(#pa9311fb352)" d="M 124.512454 291.28 
L 124.512454 287.525086 
L 125.061843 287.525086 
L 125.061843 276.260342 
L 125.866241 276.260342 
L 125.866241 272.505428 
L 126.129322 272.505428 
L 126.129322 268.750513 
L 126.904061 268.750513 
L 126.904061 264.995599 
L 127.157618 264.995599 
L 127.157618 261.240684 
L 129.919649 261.240684 
L 129.919649 257.48577 
L 131.476601 257.48577 
L 131.476601 253.730855 
L 132.951569 253.730855 
L 132.951569 249.975941 
L 135.31237 249.975941 
L 135.31237 246.221026 
L 137.314502 246.221026 
L 137.314502 242.466112 
L 138.769195 242.466112 
L 138.769195 238.711197 
L 139.183056 238.711197 
L 139.183056 234.956283 
L 139.671753 234.956283 
L 139.671753 231.201368 
L 139.992879 231.201368 
L 139.992879 227.446454 
L 141.394068 227.446454 
L 141.394068 223.691539 
L 144.140288 223.691539 
L 144.140288 219.936625 
L 145.745573 219.936625 
L 145.745573 216.18171 
L 146.514992 216.18171 
L 146.514992 212.426796 
L 148.232164 212.426796 
L 148.232164 208.671881 
L 150.018084 208.671881 
L 150.018084 204.916967 
L 150.570724 204.916967 
L 150.570724 201.162052 
L 151.273235 201.162052 
L 151.273235 193.652223 
L 155.933211 193.652223 
L 155.933211 189.897309 
L 157.040783 189.897309 
L 157.040783 186.142394 
L 161.452695 186.142394 
L 161.452695 182.38748 
L 162.863838 182.38748 
L 162.863838 178.632565 
L 178.794037 178.632565 
L 178.794037 174.877651 
L 184.602918 174.877651 
L 184.602918 171.122736 
L 187.951639 171.122736 
L 187.951639 167.367822 
L 188.095395 167.367822 
L 188.095395 163.612907 
L 189.697652 163.612907 
L 189.697652 159.857993 
L 190.69531 159.857993 
L 190.69531 156.103079 
L 192.097136 156.103079 
L 192.097136 152.348164 
L 192.796853 152.348164 
L 192.796853 148.59325 
L 193.960477 148.59325 
L 193.960477 144.838335 
L 194.249741 144.838335 
L 194.249741 141.083421 
L 194.364616 141.083421 
L 194.364616 137.328506 
L 195.696656 137.328506 
L 195.696656 133.573592 
L 198.443467 133.573592 
L 198.443467 129.818677 
L 200.032812 129.818677 
L 200.032812 126.063763 
L 202.718525 126.063763 
L 202.718525 122.308848 
L 277.523557 122.308848 
L 277.523557 118.553934 
L 279.314256 118.553934 
L 279.314256 114.799019 
L 280.845454 114.799019 
L 280.845454 111.044105 
L 281.133408 111.044105 
L 281.133408 107.28919 
L 281.447134 107.28919 
L 281.447134 103.534276 
L 281.570831 103.534276 
L 281.570831 99.779361 
L 291.148502 99.779361 
L 291.148502 96.024447 
L 291.266741 96.024447 
L 291.266741 92.269532 
L 292.149338 92.269532 
L 292.149338 88.514618 
L 292.408958 88.514618 
L 292.473662 81.004789 
L 293.679772 81.004789 
L 293.679772 77.249874 
L 295.132177 77.249874 
L 295.132177 73.49496 
L 296.18857 73.49496 
L 296.18857 69.740045 
L 298.467082 69.740045 
L 298.467082 65.985131 
L 318.643616 65.985131 
L 318.643616 62.230216 
L 327.899517 62.230216 
L 327.899517 58.475302 
L 328.409893 58.475302 
L 328.409893 54.720387 
L 328.609109 54.720387 
L 328.609109 50.965473 
L 329.232013 50.965473 
L 329.232013 47.210558 
L 329.532134 47.210558 
L 329.532134 43.455644 
L 330.195112 43.455644 
L 330.195112 39.700729 
L 331.027647 39.700729 
L 331.027647 35.945815 
L 333.923016 35.945815 
L 333.923016 32.1909 
L 335.243535 32.1909 
L 335.243535 28.435986 
L 335.375845 28.435986 
L 335.375845 24.681072 
L 343.91849 24.681072 
L 343.91849 20.926157 
L 346.189874 20.926157 
L 346.189874 17.171243 
L 350.733321 17.171243 
L 350.733321 13.416328 
L 365.859201 13.416328 
L 365.859201 9.661414 
L 365.859201 9.661414 
L 446.802 9.661414 
L 446.802 9.661414 
" style="fill:none;stroke:#000000;stroke-linecap:square;stroke-width:1.5;"/>
   </g>
   <g id="line2d_148">
    <path clip-path="url(#pa9311fb352)" style="fill:none;stroke:#000000;stroke-linecap:square;stroke-width:1.5;"/>
   </g>
   <g id="line2d_149">
    <path clip-path="url(#pa9311fb352)" d="M 225.347259 291.28 
L 225.347259 287.525086 
L 227.402195 287.525086 
L 227.402195 283.770171 
L 228.249499 283.770171 
L 228.249499 280.015257 
L 228.720969 280.015257 
L 228.720969 276.260342 
L 230.669699 276.260342 
L 230.669699 272.505428 
L 231.228833 272.505428 
L 231.228833 268.750513 
L 231.767978 268.750513 
L 231.767978 264.995599 
L 232.047154 264.995599 
L 232.047154 261.240684 
L 233.949509 261.240684 
L 233.949509 257.48577 
L 237.746544 257.48577 
L 237.746544 253.730855 
L 238.636458 253.730855 
L 238.636458 249.975941 
L 241.540472 249.975941 
L 241.540472 246.221026 
L 242.455536 246.221026 
L 242.455536 242.466112 
L 243.757713 242.466112 
L 243.757713 238.711197 
L 244.854932 238.711197 
L 244.854932 234.956283 
L 251.109978 234.956283 
L 251.109978 231.201368 
L 251.656738 231.201368 
L 251.656738 227.446454 
L 251.998802 227.446454 
L 251.998802 223.691539 
L 252.098275 223.691539 
L 252.098275 219.936625 
L 253.733302 219.936625 
L 253.733302 216.18171 
L 254.437901 216.18171 
L 254.437901 212.426796 
L 254.734532 212.426796 
L 254.734532 208.671881 
L 254.999103 208.671881 
L 254.999103 204.916967 
L 255.902087 204.916967 
L 255.902087 201.162052 
L 257.538726 201.162052 
L 257.538726 197.407138 
L 258.079427 197.407138 
L 258.079427 193.652223 
L 258.977842 193.652223 
L 258.977842 189.897309 
L 259.018936 189.897309 
L 259.018936 186.142394 
L 260.28456 186.142394 
L 260.28456 182.38748 
L 262.293233 182.38748 
L 262.293233 178.632565 
L 353.103063 178.632565 
L 353.103063 174.877651 
L 366.417645 174.877651 
L 366.417645 171.122736 
L 400.335941 171.122736 
L 400.335941 167.367822 
L 400.335941 167.367822 
L 400.335941 167.367822 
L 446.802 167.367822 
" style="fill:none;stroke:#00bfbf;stroke-linecap:square;stroke-width:1.5;"/>
   </g>
   <g id="line2d_150">
    <path clip-path="url(#pa9311fb352)" style="fill:none;stroke:#00bfbf;stroke-linecap:square;stroke-width:1.5;"/>
   </g>
   <g id="line2d_151">
    <path clip-path="url(#pa9311fb352)" d="M 264.523995 291.28 
L 264.523995 287.525086 
L 265.73454 287.525086 
L 265.73454 283.770171 
L 268.93307 283.770171 
L 268.93307 280.015257 
L 269.152407 280.015257 
L 269.152407 276.260342 
L 270.253857 276.260342 
L 270.253857 272.505428 
L 272.154794 272.505428 
L 272.154794 268.750513 
L 274.041209 268.750513 
L 274.041209 264.995599 
L 274.912323 264.995599 
L 274.912323 261.240684 
L 274.922671 261.240684 
L 274.922671 257.48577 
L 275.94358 257.48577 
L 275.94358 253.730855 
L 276.459396 253.730855 
L 276.459396 249.975941 
L 286.300417 249.975941 
L 286.300417 246.221026 
L 286.429788 246.221026 
L 286.429788 242.466112 
L 287.838862 242.466112 
L 287.838862 238.711197 
L 290.611459 238.711197 
L 290.611459 234.956283 
L 290.979137 234.956283 
L 290.979137 231.201368 
L 294.530431 231.201368 
L 294.530431 227.446454 
L 317.761355 227.446454 
L 317.761355 223.691539 
L 338.069665 223.691539 
L 338.069665 219.936625 
L 342.249911 219.936625 
L 342.249911 216.18171 
L 350.900798 216.18171 
L 350.900798 212.426796 
L 354.330929 212.426796 
L 354.330929 208.671881 
L 364.321133 208.671881 
L 364.321133 204.916967 
L 365.071275 204.916967 
L 365.071275 201.162052 
L 382.473493 201.162052 
L 382.473493 197.407138 
L 417.635553 197.407138 
L 417.635553 193.652223 
L 417.635553 193.652223 
L 417.635553 193.652223 
L 446.802 193.652223 
" style="fill:none;stroke:#bf00bf;stroke-linecap:square;stroke-width:1.5;"/>
   </g>
   <g id="line2d_152">
    <path clip-path="url(#pa9311fb352)" style="fill:none;stroke:#bf00bf;stroke-linecap:square;stroke-width:1.5;"/>
   </g>
   <g id="line2d_153">
    <path clip-path="url(#pa9311fb352)" d="M 286.002448 291.28 
L 286.002448 287.525086 
L 287.270393 287.525086 
L 287.270393 283.770171 
L 287.675682 283.770171 
L 287.675682 280.015257 
L 289.498167 280.015257 
L 289.498167 276.260342 
L 289.58949 276.260342 
L 289.58949 272.505428 
L 290.86297 272.505428 
L 290.86297 268.750513 
L 291.852328 268.750513 
L 291.852328 264.995599 
L 313.723165 264.995599 
L 313.723165 261.240684 
L 315.962994 261.240684 
L 315.962994 257.48577 
L 317.893212 257.48577 
L 317.893212 253.730855 
L 325.268849 253.730855 
L 325.268849 249.975941 
L 331.319857 249.975941 
L 331.319857 246.221026 
L 333.215418 246.221026 
L 333.215418 242.466112 
L 338.203973 242.466112 
L 338.203973 238.711197 
L 341.368246 238.711197 
L 341.368246 234.956283 
L 342.513649 234.956283 
L 342.513649 231.201368 
L 352.620623 231.201368 
L 352.620623 227.446454 
L 364.142225 227.446454 
L 364.142225 223.691539 
L 364.555864 223.691539 
L 364.555864 219.936625 
L 378.201097 219.936625 
L 378.201097 216.18171 
L 383.151836 216.18171 
L 383.151836 212.426796 
L 421.031077 212.426796 
L 421.031077 208.671881 
L 443.345102 208.671881 
L 443.345102 204.916967 
L 443.753822 204.916967 
L 443.753822 201.162052 
L 443.753822 201.162052 
L 443.753822 201.162052 
L 446.802 201.162052 
" style="fill:none;stroke:#ff0000;stroke-linecap:square;stroke-width:3;"/>
   </g>
   <g id="line2d_154">
    <path clip-path="url(#pa9311fb352)" style="fill:none;stroke:#ff0000;stroke-linecap:square;stroke-width:3;"/>
   </g>
   <g id="line2d_155">
    <path clip-path="url(#pa9311fb352)" d="M 446.802 291.28 
L 446.802 6.845228 
" style="fill:none;stroke:#000000;stroke-linecap:square;stroke-width:1.5;"/>
   </g>
   <g id="patch_3">
    <path d="M 59.72 291.28 
L 59.72 6.845228 
" style="fill:none;stroke:#000000;stroke-linecap:square;stroke-linejoin:miter;stroke-width:0.8;"/>
   </g>
   <g id="patch_4">
    <path d="M 446.802 291.28 
L 446.802 6.845228 
" style="fill:none;stroke:#000000;stroke-linecap:square;stroke-linejoin:miter;stroke-width:0.8;"/>
   </g>
   <g id="patch_5">
    <path d="M 59.72 291.28 
L 446.802 291.28 
" style="fill:none;stroke:#000000;stroke-linecap:square;stroke-linejoin:miter;stroke-width:0.8;"/>
   </g>
   <g id="patch_6">
    <path d="M 59.72 6.845228 
L 446.802 6.845228 
" style="fill:none;stroke:#000000;stroke-linecap:square;stroke-linejoin:miter;stroke-width:0.8;"/>
   </g>
   <g id="text_13">
    <!-- {f15-f19}, 20-D -->
    <defs>
     <path d="M 51.125 -9.28125 
L 51.125 -16.3125 
L 48.09375 -16.3125 
Q 35.9375 -16.3125 31.8125 -12.6875 
Q 27.6875 -9.078125 27.6875 1.703125 
L 27.6875 13.375 
Q 27.6875 20.75 25.046875 23.578125 
Q 22.40625 26.421875 15.484375 26.421875 
L 12.5 26.421875 
L 12.5 33.40625 
L 15.484375 33.40625 
Q 22.46875 33.40625 25.078125 36.203125 
Q 27.6875 39.015625 27.6875 46.296875 
L 27.6875 58.015625 
Q 27.6875 68.796875 31.8125 72.390625 
Q 35.9375 75.984375 48.09375 75.984375 
L 51.125 75.984375 
L 51.125 69 
L 47.796875 69 
Q 40.921875 69 38.8125 66.84375 
Q 36.71875 64.703125 36.71875 57.8125 
L 36.71875 45.703125 
Q 36.71875 38.03125 34.5 34.5625 
Q 32.28125 31.109375 26.90625 29.890625 
Q 32.328125 28.5625 34.515625 25.09375 
Q 36.71875 21.625 36.71875 14.015625 
L 36.71875 1.90625 
Q 36.71875 -4.984375 38.8125 -7.125 
Q 40.921875 -9.28125 47.796875 -9.28125 
z
" id="DejaVuSans-7b"/>
     <path d="M 10.796875 72.90625 
L 49.515625 72.90625 
L 49.515625 64.59375 
L 19.828125 64.59375 
L 19.828125 46.734375 
Q 21.96875 47.46875 24.109375 47.828125 
Q 26.265625 48.1875 28.421875 48.1875 
Q 40.625 48.1875 47.75 41.5 
Q 54.890625 34.8125 54.890625 23.390625 
Q 54.890625 11.625 47.5625 5.09375 
Q 40.234375 -1.421875 26.90625 -1.421875 
Q 22.3125 -1.421875 17.546875 -0.640625 
Q 12.796875 0.140625 7.71875 1.703125 
L 7.71875 11.625 
Q 12.109375 9.234375 16.796875 8.0625 
Q 21.484375 6.890625 26.703125 6.890625 
Q 35.15625 6.890625 40.078125 11.328125 
Q 45.015625 15.765625 45.015625 23.390625 
Q 45.015625 31 40.078125 35.4375 
Q 35.15625 39.890625 26.703125 39.890625 
Q 22.75 39.890625 18.8125 39.015625 
Q 14.890625 38.140625 10.796875 36.28125 
z
" id="DejaVuSans-35"/>
     <path d="M 4.890625 31.390625 
L 31.203125 31.390625 
L 31.203125 23.390625 
L 4.890625 23.390625 
z
" id="DejaVuSans-2d"/>
     <path d="M 10.984375 1.515625 
L 10.984375 10.5 
Q 14.703125 8.734375 18.5 7.8125 
Q 22.3125 6.890625 25.984375 6.890625 
Q 35.75 6.890625 40.890625 13.453125 
Q 46.046875 20.015625 46.78125 33.40625 
Q 43.953125 29.203125 39.59375 26.953125 
Q 35.25 24.703125 29.984375 24.703125 
Q 19.046875 24.703125 12.671875 31.3125 
Q 6.296875 37.9375 6.296875 49.421875 
Q 6.296875 60.640625 12.9375 67.421875 
Q 19.578125 74.21875 30.609375 74.21875 
Q 43.265625 74.21875 49.921875 64.515625 
Q 56.59375 54.828125 56.59375 36.375 
Q 56.59375 19.140625 48.40625 8.859375 
Q 40.234375 -1.421875 26.421875 -1.421875 
Q 22.703125 -1.421875 18.890625 -0.6875 
Q 15.09375 0.046875 10.984375 1.515625 
z
M 30.609375 32.421875 
Q 37.25 32.421875 41.125 36.953125 
Q 45.015625 41.5 45.015625 49.421875 
Q 45.015625 57.28125 41.125 61.84375 
Q 37.25 66.40625 30.609375 66.40625 
Q 23.96875 66.40625 20.09375 61.84375 
Q 16.21875 57.28125 16.21875 49.421875 
Q 16.21875 41.5 20.09375 36.953125 
Q 23.96875 32.421875 30.609375 32.421875 
z
" id="DejaVuSans-39"/>
     <path d="M 12.5 -9.28125 
L 15.921875 -9.28125 
Q 22.75 -9.28125 24.828125 -7.171875 
Q 26.90625 -5.078125 26.90625 1.90625 
L 26.90625 14.015625 
Q 26.90625 21.625 29.09375 25.09375 
Q 31.296875 28.5625 36.71875 29.890625 
Q 31.296875 31.109375 29.09375 34.5625 
Q 26.90625 38.03125 26.90625 45.703125 
L 26.90625 57.8125 
Q 26.90625 64.75 24.828125 66.875 
Q 22.75 69 15.921875 69 
L 12.5 69 
L 12.5 75.984375 
L 15.578125 75.984375 
Q 27.734375 75.984375 31.8125 72.390625 
Q 35.890625 68.796875 35.890625 58.015625 
L 35.890625 46.296875 
Q 35.890625 39.015625 38.515625 36.203125 
Q 41.15625 33.40625 48.09375 33.40625 
L 51.125 33.40625 
L 51.125 26.421875 
L 48.09375 26.421875 
Q 41.15625 26.421875 38.515625 23.578125 
Q 35.890625 20.75 35.890625 13.375 
L 35.890625 1.703125 
Q 35.890625 -9.078125 31.8125 -12.6875 
Q 27.734375 -16.3125 15.578125 -16.3125 
L 12.5 -16.3125 
z
" id="DejaVuSans-7d"/>
     <path d="M 11.71875 12.40625 
L 22.015625 12.40625 
L 22.015625 4 
L 14.015625 -11.625 
L 7.71875 -11.625 
L 11.71875 4 
z
" id="DejaVuSans-2c"/>
    </defs>
    <g transform="translate(174.0485 27.730798)scale(0.2 -0.2)">
     <use xlink:href="#DejaVuSans-7b"/>
     <use x="63.623047" xlink:href="#DejaVuSans-66"/>
     <use x="98.828125" xlink:href="#DejaVuSans-31"/>
     <use x="162.451172" xlink:href="#DejaVuSans-35"/>
     <use x="226.074219" xlink:href="#DejaVuSans-2d"/>
     <use x="262.158203" xlink:href="#DejaVuSans-66"/>
     <use x="297.363281" xlink:href="#DejaVuSans-31"/>
     <use x="360.986328" xlink:href="#DejaVuSans-39"/>
     <use x="424.609375" xlink:href="#DejaVuSans-7d"/>
     <use x="488.232422" xlink:href="#DejaVuSans-2c"/>
     <use x="520.019531" xlink:href="#DejaVuSans-20"/>
     <use x="551.806641" xlink:href="#DejaVuSans-32"/>
     <use x="615.429688" xlink:href="#DejaVuSans-30"/>
     <use x="679.052734" xlink:href="#DejaVuSans-2d"/>
     <use x="715.136719" xlink:href="#DejaVuSans-44"/>
    </g>
   </g>
   <g id="text_14">
    <!-- absolute targets -->
    <defs>
     <path d="M 48.6875 27.296875 
Q 48.6875 37.203125 44.609375 42.84375 
Q 40.53125 48.484375 33.40625 48.484375 
Q 26.265625 48.484375 22.1875 42.84375 
Q 18.109375 37.203125 18.109375 27.296875 
Q 18.109375 17.390625 22.1875 11.75 
Q 26.265625 6.109375 33.40625 6.109375 
Q 40.53125 6.109375 44.609375 11.75 
Q 48.6875 17.390625 48.6875 27.296875 
z
M 18.109375 46.390625 
Q 20.953125 51.265625 25.265625 53.625 
Q 29.59375 56 35.59375 56 
Q 45.5625 56 51.78125 48.09375 
Q 58.015625 40.1875 58.015625 27.296875 
Q 58.015625 14.40625 51.78125 6.484375 
Q 45.5625 -1.421875 35.59375 -1.421875 
Q 29.59375 -1.421875 25.265625 0.953125 
Q 20.953125 3.328125 18.109375 8.203125 
L 18.109375 0 
L 9.078125 0 
L 9.078125 75.984375 
L 18.109375 75.984375 
z
" id="DejaVuSans-62"/>
     <path d="M 8.5 21.578125 
L 8.5 54.6875 
L 17.484375 54.6875 
L 17.484375 21.921875 
Q 17.484375 14.15625 20.5 10.265625 
Q 23.53125 6.390625 29.59375 6.390625 
Q 36.859375 6.390625 41.078125 11.03125 
Q 45.3125 15.671875 45.3125 23.6875 
L 45.3125 54.6875 
L 54.296875 54.6875 
L 54.296875 0 
L 45.3125 0 
L 45.3125 8.40625 
Q 42.046875 3.421875 37.71875 1 
Q 33.40625 -1.421875 27.6875 -1.421875 
Q 18.265625 -1.421875 13.375 4.4375 
Q 8.5 10.296875 8.5 21.578125 
z
M 31.109375 56 
z
" id="DejaVuSans-75"/>
     <path d="M 56.203125 29.59375 
L 56.203125 25.203125 
L 14.890625 25.203125 
Q 15.484375 15.921875 20.484375 11.0625 
Q 25.484375 6.203125 34.421875 6.203125 
Q 39.59375 6.203125 44.453125 7.46875 
Q 49.3125 8.734375 54.109375 11.28125 
L 54.109375 2.78125 
Q 49.265625 0.734375 44.1875 -0.34375 
Q 39.109375 -1.421875 33.890625 -1.421875 
Q 20.796875 -1.421875 13.15625 6.1875 
Q 5.515625 13.8125 5.515625 26.8125 
Q 5.515625 40.234375 12.765625 48.109375 
Q 20.015625 56 32.328125 56 
Q 43.359375 56 49.78125 48.890625 
Q 56.203125 41.796875 56.203125 29.59375 
z
M 47.21875 32.234375 
Q 47.125 39.59375 43.09375 43.984375 
Q 39.0625 48.390625 32.421875 48.390625 
Q 24.90625 48.390625 20.390625 44.140625 
Q 15.875 39.890625 15.1875 32.171875 
z
" id="DejaVuSans-65"/>
    </defs>
    <g transform="translate(59.72 601.060445)scale(0.14 -0.14)">
     <use xlink:href="#DejaVuSans-61"/>
     <use x="61.279297" xlink:href="#DejaVuSans-62"/>
     <use x="124.755859" xlink:href="#DejaVuSans-73"/>
     <use x="176.855469" xlink:href="#DejaVuSans-6f"/>
     <use x="238.037109" xlink:href="#DejaVuSans-6c"/>
     <use x="265.820312" xlink:href="#DejaVuSans-75"/>
     <use x="329.199219" xlink:href="#DejaVuSans-74"/>
     <use x="368.408203" xlink:href="#DejaVuSans-65"/>
     <use x="429.931641" xlink:href="#DejaVuSans-20"/>
     <use x="461.71875" xlink:href="#DejaVuSans-74"/>
     <use x="500.927734" xlink:href="#DejaVuSans-61"/>
     <use x="562.207031" xlink:href="#DejaVuSans-72"/>
     <use x="603.304688" xlink:href="#DejaVuSans-67"/>
     <use x="666.78125" xlink:href="#DejaVuSans-65"/>
     <use x="728.304688" xlink:href="#DejaVuSans-74"/>
     <use x="767.513672" xlink:href="#DejaVuSans-73"/>
    </g>
   </g>
   <g id="text_15">
    <!-- v2.4 -->
    <g style="fill:#808080;" transform="translate(242.350063 286.355965)scale(0.1 -0.1)">
     <use xlink:href="#DejaVuSans-76"/>
     <use x="59.179688" xlink:href="#DejaVuSans-32"/>
     <use x="122.802734" xlink:href="#DejaVuSans-2e"/>
     <use x="154.589844" xlink:href="#DejaVuSans-34"/>
    </g>
   </g>
   <g id="legend_1">
    <g id="patch_7">
     <path d="M 73.72 140.270228 
L 202.941875 140.270228 
Q 206.941875 140.270228 206.941875 136.270228 
L 206.941875 20.845228 
Q 206.941875 16.845228 202.941875 16.845228 
L 73.72 16.845228 
Q 69.72 16.845228 69.72 20.845228 
L 69.72 136.270228 
Q 69.72 140.270228 73.72 140.270228 
z
" style="fill:#ffffff;opacity:0.2;stroke:#cccccc;stroke-linejoin:miter;"/>
    </g>
    <g id="line2d_156">
     <path d="M 77.72 33.042103 
L 117.72 33.042103 
" style="fill:none;stroke:#000000;stroke-linecap:square;stroke-width:1.5;"/>
    </g>
    <g id="line2d_157"/>
    <g id="text_16">
     <!-- 1: 5/5 -->
     <defs>
      <path d="M 11.71875 12.40625 
L 22.015625 12.40625 
L 22.015625 0 
L 11.71875 0 
z
M 11.71875 51.703125 
L 22.015625 51.703125 
L 22.015625 39.3125 
L 11.71875 39.3125 
z
" id="DejaVuSans-3a"/>
     </defs>
     <g transform="translate(133.72 40.042103)scale(0.2 -0.2)">
      <use xlink:href="#DejaVuSans-31"/>
      <use x="63.623047" xlink:href="#DejaVuSans-3a"/>
      <use x="97.314453" xlink:href="#DejaVuSans-20"/>
      <use x="129.101562" xlink:href="#DejaVuSans-35"/>
      <use x="192.724609" xlink:href="#DejaVuSans-2f"/>
      <use x="226.416016" xlink:href="#DejaVuSans-35"/>
     </g>
    </g>
    <g id="line2d_158">
     <path d="M 77.72 62.398353 
L 117.72 62.398353 
" style="fill:none;stroke:#00bfbf;stroke-linecap:square;stroke-width:1.5;"/>
    </g>
    <g id="line2d_159"/>
    <g id="text_17">
     <!-- -1: 4/5 -->
     <g transform="translate(133.72 69.398353)scale(0.2 -0.2)">
      <use xlink:href="#DejaVuSans-2d"/>
      <use x="36.083984" xlink:href="#DejaVuSans-31"/>
      <use x="99.707031" xlink:href="#DejaVuSans-3a"/>
      <use x="133.398438" xlink:href="#DejaVuSans-20"/>
      <use x="165.185547" xlink:href="#DejaVuSans-34"/>
      <use x="228.808594" xlink:href="#DejaVuSans-2f"/>
      <use x="262.5" xlink:href="#DejaVuSans-35"/>
     </g>
    </g>
    <g id="line2d_160">
     <path d="M 77.72 91.754603 
L 117.72 91.754603 
" style="fill:none;stroke:#bf00bf;stroke-linecap:square;stroke-width:1.5;"/>
    </g>
    <g id="line2d_161"/>
    <g id="text_18">
     <!-- -4: 2/5 -->
     <g transform="translate(133.72 98.754603)scale(0.2 -0.2)">
      <use xlink:href="#DejaVuSans-2d"/>
      <use x="36.083984" xlink:href="#DejaVuSans-34"/>
      <use x="99.707031" xlink:href="#DejaVuSans-3a"/>
      <use x="133.398438" xlink:href="#DejaVuSans-20"/>
      <use x="165.185547" xlink:href="#DejaVuSans-32"/>
      <use x="228.808594" xlink:href="#DejaVuSans-2f"/>
      <use x="262.5" xlink:href="#DejaVuSans-35"/>
     </g>
    </g>
    <g id="line2d_162">
     <path d="M 77.72 121.110853 
L 117.72 121.110853 
" style="fill:none;stroke:#ff0000;stroke-linecap:square;stroke-width:3;"/>
    </g>
    <g id="line2d_163"/>
    <g id="text_19">
     <!-- -8: 2/5 -->
     <g transform="translate(133.72 128.110853)scale(0.2 -0.2)">
      <use xlink:href="#DejaVuSans-2d"/>
      <use x="36.083984" xlink:href="#DejaVuSans-38"/>
      <use x="99.707031" xlink:href="#DejaVuSans-3a"/>
      <use x="133.398438" xlink:href="#DejaVuSans-20"/>
      <use x="165.185547" xlink:href="#DejaVuSans-32"/>
      <use x="228.808594" xlink:href="#DejaVuSans-2f"/>
      <use x="262.5" xlink:href="#DejaVuSans-35"/>
     </g>
    </g>
   </g>
  </g>
 </g>
 <defs>
  <clipPath id="pa9311fb352">
   <rect height="284.434772" width="387.082" x="59.72" y="6.845228"/>
  </clipPath>
 </defs>
</svg>
