<?xml version="1.0" encoding="utf-8" standalone="no"?>
<!DOCTYPE svg PUBLIC "-//W3C//DTD SVG 1.1//EN"
  "http://www.w3.org/Graphics/SVG/1.1/DTD/svg11.dtd">
<!-- Created with matplotlib (http://matplotlib.org/) -->
<svg height="345.6pt" version="1.1" viewBox="0 0 460.8 345.6" width="460.8pt" xmlns="http://www.w3.org/2000/svg" xmlns:xlink="http://www.w3.org/1999/xlink">
 <defs>
  <style type="text/css">
*{stroke-linecap:butt;stroke-linejoin:round;}
  </style>
 </defs>
 <g id="figure_1">
  <g id="patch_1">
   <path d="M 0 345.6 
L 460.8 345.6 
L 460.8 0 
L 0 0 
z
" style="fill:#ffffff;"/>
  </g>
  <g id="axes_1">
   <g id="patch_2">
    <path d="M 56.12 294.88 
L 333.168 294.88 
L 333.168 24.84 
L 56.12 24.84 
z
" style="fill:#ffffff;"/>
   </g>
   <g id="line2d_1">
    <path d="M 44.205749 294.88 
L 44.205749 273.910091 
L 56.12 273.910091 
L 56.12 268.667614 
L 63.08939 268.667614 
L 63.08939 263.425137 
L 75.003641 263.425137 
L 75.003641 258.18266 
L 83.784035 258.18266 
L 83.784035 252.940182 
L 101.481783 252.940182 
L 101.481783 247.697705 
L 108.036969 247.697705 
L 108.036969 242.455228 
L 114.866043 242.455228 
L 114.866043 231.970274 
L 119.740314 231.970274 
L 119.740314 226.727797 
L 121.929105 226.727797 
L 121.929105 221.485319 
L 126.352339 221.485319 
L 126.352339 216.242842 
L 128.264156 216.242842 
L 128.264156 205.757888 
L 132.073821 205.757888 
L 132.073821 200.515411 
L 135.616951 200.515411 
L 135.616951 195.272933 
L 139.452484 195.272933 
L 139.452484 190.030456 
L 140.750355 190.030456 
L 140.750355 184.787979 
L 143.35529 184.787979 
L 143.35529 179.545502 
L 143.779723 179.545502 
L 143.779723 174.303025 
L 145.235981 174.303025 
L 145.235981 169.060547 
L 145.757607 169.060547 
L 145.757607 163.81807 
L 147.018071 163.81807 
L 147.018071 158.575593 
L 149.815889 158.575593 
L 149.815889 153.333116 
L 152.157156 153.333116 
L 152.157156 148.090639 
L 154.640452 148.090639 
L 154.640452 142.848162 
L 157.741778 142.848162 
L 157.741778 137.605684 
L 157.857683 137.605684 
L 157.857683 132.363207 
L 159.861664 132.363207 
L 159.861664 127.12073 
L 159.96416 127.12073 
L 159.96416 121.878253 
L 163.958377 121.878253 
L 163.958377 116.635776 
L 164.087494 116.635776 
L 164.087494 111.393298 
L 164.358689 111.393298 
L 164.358689 106.150821 
L 164.780805 106.150821 
L 164.780805 100.908344 
L 165.432369 100.908344 
L 165.432369 95.665867 
L 169.291675 95.665867 
L 169.291675 90.42339 
L 169.350967 90.42339 
L 169.350967 85.180912 
L 169.656029 85.180912 
L 169.656029 79.938435 
L 170.103705 79.938435 
L 170.103705 74.695958 
L 170.759542 74.695958 
L 170.759542 69.453481 
L 171.200991 69.453481 
L 171.200991 64.211004 
L 171.380757 64.211004 
L 171.380757 58.968526 
L 171.621015 58.968526 
L 171.621015 53.726049 
L 171.878412 53.726049 
L 171.878412 48.483572 
L 172.784071 48.483572 
L 172.784071 43.241095 
L 173.034302 43.241095 
L 173.034302 37.998618 
L 173.195967 37.998618 
L 173.195967 32.756141 
L 173.33736 32.756141 
L 173.33736 27.513663 
L 333.168 27.513663 
" style="fill:none;stroke:#f5deb3;stroke-linecap:square;stroke-width:4;"/>
   </g>
   <g id="line2d_2">
    <defs>
     <path d="M -0 7.778175 
L 7.778175 0 
L 0 -7.778175 
L -7.778175 -0 
z
" id="mfad1729a31" style="stroke:#f5deb3;stroke-linejoin:miter;stroke-width:1.5;"/>
    </defs>
    <g>
     <use style="fill:#f5deb3;stroke:#f5deb3;stroke-linejoin:miter;stroke-width:1.5;" x="114.866043" xlink:href="#mfad1729a31" y="231.970274"/>
     <use style="fill:#f5deb3;stroke:#f5deb3;stroke-linejoin:miter;stroke-width:1.5;" x="154.640452" xlink:href="#mfad1729a31" y="142.848162"/>
     <use style="fill:#f5deb3;stroke:#f5deb3;stroke-linejoin:miter;stroke-width:1.5;" x="173.33736" xlink:href="#mfad1729a31" y="32.756141"/>
     <use style="fill:#f5deb3;stroke:#f5deb3;stroke-linejoin:miter;stroke-width:1.5;" x="173.33736" xlink:href="#mfad1729a31" y="27.513663"/>
     <use style="fill:#f5deb3;stroke:#f5deb3;stroke-linejoin:miter;stroke-width:1.5;" x="173.33736" xlink:href="#mfad1729a31" y="27.513663"/>
     <use style="fill:#f5deb3;stroke:#f5deb3;stroke-linejoin:miter;stroke-width:1.5;" x="333.168" xlink:href="#mfad1729a31" y="27.513663"/>
    </g>
   </g>
   <g id="line2d_3">
    <path style="fill:none;stroke:#f5deb3;stroke-linecap:square;stroke-width:4;"/>
    <g/>
   </g>
   <g id="line2d_4">
    <path d="M 333.168 27.513663 
L 363.64328 32.86099 
" style="fill:none;stroke:#f5deb3;stroke-linecap:square;stroke-width:4;"/>
    <g>
     <use style="fill:#f5deb3;stroke:#f5deb3;stroke-linejoin:miter;stroke-width:1.5;" x="333.168" xlink:href="#mfad1729a31" y="27.513663"/>
     <use style="fill:#f5deb3;stroke:#f5deb3;stroke-linejoin:miter;stroke-width:1.5;" x="363.64328" xlink:href="#mfad1729a31" y="32.86099"/>
    </g>
   </g>
   <g id="matplotlib.axis_1">
    <g id="xtick_1">
     <g id="line2d_5">
      <path clip-path="url(#pe691d520b7)" d="M 56.12 294.88 
L 56.12 24.84 
" style="fill:none;stroke:#b0b0b0;stroke-linecap:square;stroke-width:0.8;"/>
     </g>
     <g id="line2d_6">
      <defs>
       <path d="M 0 0 
L 0 3.5 
" id="m62968c29ae" style="stroke:#000000;stroke-width:0.8;"/>
      </defs>
      <g>
       <use style="stroke:#000000;stroke-width:0.8;" x="56.12" xlink:href="#m62968c29ae" y="294.88"/>
      </g>
     </g>
     <g id="text_1">
      <!-- 0 -->
      <defs>
       <path d="M 31.78125 66.40625 
Q 24.171875 66.40625 20.328125 58.90625 
Q 16.5 51.421875 16.5 36.375 
Q 16.5 21.390625 20.328125 13.890625 
Q 24.171875 6.390625 31.78125 6.390625 
Q 39.453125 6.390625 43.28125 13.890625 
Q 47.125 21.390625 47.125 36.375 
Q 47.125 51.421875 43.28125 58.90625 
Q 39.453125 66.40625 31.78125 66.40625 
z
M 31.78125 74.21875 
Q 44.046875 74.21875 50.515625 64.515625 
Q 56.984375 54.828125 56.984375 36.375 
Q 56.984375 17.96875 50.515625 8.265625 
Q 44.046875 -1.421875 31.78125 -1.421875 
Q 19.53125 -1.421875 13.0625 8.265625 
Q 6.59375 17.96875 6.59375 36.375 
Q 6.59375 54.828125 13.0625 64.515625 
Q 19.53125 74.21875 31.78125 74.21875 
z
" id="DejaVuSans-30"/>
      </defs>
      <g transform="translate(49.7575 317.076875)scale(0.2 -0.2)">
       <use xlink:href="#DejaVuSans-30"/>
      </g>
     </g>
    </g>
    <g id="xtick_2">
     <g id="line2d_7">
      <path clip-path="url(#pe691d520b7)" d="M 135.276571 294.88 
L 135.276571 24.84 
" style="fill:none;stroke:#b0b0b0;stroke-linecap:square;stroke-width:0.8;"/>
     </g>
     <g id="line2d_8">
      <g>
       <use style="stroke:#000000;stroke-width:0.8;" x="135.276571" xlink:href="#m62968c29ae" y="294.88"/>
      </g>
     </g>
     <g id="text_2">
      <!-- 2 -->
      <defs>
       <path d="M 19.1875 8.296875 
L 53.609375 8.296875 
L 53.609375 0 
L 7.328125 0 
L 7.328125 8.296875 
Q 12.9375 14.109375 22.625 23.890625 
Q 32.328125 33.6875 34.8125 36.53125 
Q 39.546875 41.84375 41.421875 45.53125 
Q 43.3125 49.21875 43.3125 52.78125 
Q 43.3125 58.59375 39.234375 62.25 
Q 35.15625 65.921875 28.609375 65.921875 
Q 23.96875 65.921875 18.8125 64.3125 
Q 13.671875 62.703125 7.8125 59.421875 
L 7.8125 69.390625 
Q 13.765625 71.78125 18.9375 73 
Q 24.125 74.21875 28.421875 74.21875 
Q 39.75 74.21875 46.484375 68.546875 
Q 53.21875 62.890625 53.21875 53.421875 
Q 53.21875 48.921875 51.53125 44.890625 
Q 49.859375 40.875 45.40625 35.40625 
Q 44.1875 33.984375 37.640625 27.21875 
Q 31.109375 20.453125 19.1875 8.296875 
z
" id="DejaVuSans-32"/>
      </defs>
      <g transform="translate(128.914071 317.076875)scale(0.2 -0.2)">
       <use xlink:href="#DejaVuSans-32"/>
      </g>
     </g>
    </g>
    <g id="xtick_3">
     <g id="line2d_9">
      <path clip-path="url(#pe691d520b7)" d="M 214.433143 294.88 
L 214.433143 24.84 
" style="fill:none;stroke:#b0b0b0;stroke-linecap:square;stroke-width:0.8;"/>
     </g>
     <g id="line2d_10">
      <g>
       <use style="stroke:#000000;stroke-width:0.8;" x="214.433143" xlink:href="#m62968c29ae" y="294.88"/>
      </g>
     </g>
     <g id="text_3">
      <!-- 4 -->
      <defs>
       <path d="M 37.796875 64.3125 
L 12.890625 25.390625 
L 37.796875 25.390625 
z
M 35.203125 72.90625 
L 47.609375 72.90625 
L 47.609375 25.390625 
L 58.015625 25.390625 
L 58.015625 17.1875 
L 47.609375 17.1875 
L 47.609375 0 
L 37.796875 0 
L 37.796875 17.1875 
L 4.890625 17.1875 
L 4.890625 26.703125 
z
" id="DejaVuSans-34"/>
      </defs>
      <g transform="translate(208.070643 317.076875)scale(0.2 -0.2)">
       <use xlink:href="#DejaVuSans-34"/>
      </g>
     </g>
    </g>
    <g id="xtick_4">
     <g id="line2d_11">
      <path clip-path="url(#pe691d520b7)" d="M 293.589714 294.88 
L 293.589714 24.84 
" style="fill:none;stroke:#b0b0b0;stroke-linecap:square;stroke-width:0.8;"/>
     </g>
     <g id="line2d_12">
      <g>
       <use style="stroke:#000000;stroke-width:0.8;" x="293.589714" xlink:href="#m62968c29ae" y="294.88"/>
      </g>
     </g>
     <g id="text_4">
      <!-- 6 -->
      <defs>
       <path d="M 33.015625 40.375 
Q 26.375 40.375 22.484375 35.828125 
Q 18.609375 31.296875 18.609375 23.390625 
Q 18.609375 15.53125 22.484375 10.953125 
Q 26.375 6.390625 33.015625 6.390625 
Q 39.65625 6.390625 43.53125 10.953125 
Q 47.40625 15.53125 47.40625 23.390625 
Q 47.40625 31.296875 43.53125 35.828125 
Q 39.65625 40.375 33.015625 40.375 
z
M 52.59375 71.296875 
L 52.59375 62.3125 
Q 48.875 64.0625 45.09375 64.984375 
Q 41.3125 65.921875 37.59375 65.921875 
Q 27.828125 65.921875 22.671875 59.328125 
Q 17.53125 52.734375 16.796875 39.40625 
Q 19.671875 43.65625 24.015625 45.921875 
Q 28.375 48.1875 33.59375 48.1875 
Q 44.578125 48.1875 50.953125 41.515625 
Q 57.328125 34.859375 57.328125 23.390625 
Q 57.328125 12.15625 50.6875 5.359375 
Q 44.046875 -1.421875 33.015625 -1.421875 
Q 20.359375 -1.421875 13.671875 8.265625 
Q 6.984375 17.96875 6.984375 36.375 
Q 6.984375 53.65625 15.1875 63.9375 
Q 23.390625 74.21875 37.203125 74.21875 
Q 40.921875 74.21875 44.703125 73.484375 
Q 48.484375 72.75 52.59375 71.296875 
z
" id="DejaVuSans-36"/>
      </defs>
      <g transform="translate(287.227214 317.076875)scale(0.2 -0.2)">
       <use xlink:href="#DejaVuSans-36"/>
      </g>
     </g>
    </g>
    <g id="xtick_5">
     <g id="line2d_13">
      <path clip-path="url(#pe691d520b7)" d="M 56.12 294.88 
L 56.12 24.84 
" style="fill:none;stroke:#b0b0b0;stroke-linecap:square;stroke-width:0.8;"/>
     </g>
     <g id="line2d_14">
      <defs>
       <path d="M 0 0 
L 0 2 
" id="mb1c7cb2828" style="stroke:#000000;stroke-width:0.6;"/>
      </defs>
      <g>
       <use style="stroke:#000000;stroke-width:0.6;" x="56.12" xlink:href="#mb1c7cb2828" y="294.88"/>
      </g>
     </g>
    </g>
    <g id="xtick_6">
     <g id="line2d_15">
      <path clip-path="url(#pe691d520b7)" d="M 95.698286 294.88 
L 95.698286 24.84 
" style="fill:none;stroke:#b0b0b0;stroke-linecap:square;stroke-width:0.8;"/>
     </g>
     <g id="line2d_16">
      <g>
       <use style="stroke:#000000;stroke-width:0.6;" x="95.698286" xlink:href="#mb1c7cb2828" y="294.88"/>
      </g>
     </g>
    </g>
    <g id="xtick_7">
     <g id="line2d_17">
      <path clip-path="url(#pe691d520b7)" d="M 135.276571 294.88 
L 135.276571 24.84 
" style="fill:none;stroke:#b0b0b0;stroke-linecap:square;stroke-width:0.8;"/>
     </g>
     <g id="line2d_18">
      <g>
       <use style="stroke:#000000;stroke-width:0.6;" x="135.276571" xlink:href="#mb1c7cb2828" y="294.88"/>
      </g>
     </g>
    </g>
    <g id="xtick_8">
     <g id="line2d_19">
      <path clip-path="url(#pe691d520b7)" d="M 174.854857 294.88 
L 174.854857 24.84 
" style="fill:none;stroke:#b0b0b0;stroke-linecap:square;stroke-width:0.8;"/>
     </g>
     <g id="line2d_20">
      <g>
       <use style="stroke:#000000;stroke-width:0.6;" x="174.854857" xlink:href="#mb1c7cb2828" y="294.88"/>
      </g>
     </g>
    </g>
    <g id="xtick_9">
     <g id="line2d_21">
      <path clip-path="url(#pe691d520b7)" d="M 214.433143 294.88 
L 214.433143 24.84 
" style="fill:none;stroke:#b0b0b0;stroke-linecap:square;stroke-width:0.8;"/>
     </g>
     <g id="line2d_22">
      <g>
       <use style="stroke:#000000;stroke-width:0.6;" x="214.433143" xlink:href="#mb1c7cb2828" y="294.88"/>
      </g>
     </g>
    </g>
    <g id="xtick_10">
     <g id="line2d_23">
      <path clip-path="url(#pe691d520b7)" d="M 254.011429 294.88 
L 254.011429 24.84 
" style="fill:none;stroke:#b0b0b0;stroke-linecap:square;stroke-width:0.8;"/>
     </g>
     <g id="line2d_24">
      <g>
       <use style="stroke:#000000;stroke-width:0.6;" x="254.011429" xlink:href="#mb1c7cb2828" y="294.88"/>
      </g>
     </g>
    </g>
    <g id="xtick_11">
     <g id="line2d_25">
      <path clip-path="url(#pe691d520b7)" d="M 293.589714 294.88 
L 293.589714 24.84 
" style="fill:none;stroke:#b0b0b0;stroke-linecap:square;stroke-width:0.8;"/>
     </g>
     <g id="line2d_26">
      <g>
       <use style="stroke:#000000;stroke-width:0.6;" x="293.589714" xlink:href="#mb1c7cb2828" y="294.88"/>
      </g>
     </g>
    </g>
    <g id="xtick_12">
     <g id="line2d_27">
      <path clip-path="url(#pe691d520b7)" d="M 333.168 294.88 
L 333.168 24.84 
" style="fill:none;stroke:#b0b0b0;stroke-linecap:square;stroke-width:0.8;"/>
     </g>
     <g id="line2d_28">
      <g>
       <use style="stroke:#000000;stroke-width:0.6;" x="333.168" xlink:href="#mb1c7cb2828" y="294.88"/>
      </g>
     </g>
    </g>
    <g id="text_5">
     <!-- log10(# f-evals / dimension) -->
     <defs>
      <path d="M 9.421875 75.984375 
L 18.40625 75.984375 
L 18.40625 0 
L 9.421875 0 
z
" id="DejaVuSans-6c"/>
      <path d="M 30.609375 48.390625 
Q 23.390625 48.390625 19.1875 42.75 
Q 14.984375 37.109375 14.984375 27.296875 
Q 14.984375 17.484375 19.15625 11.84375 
Q 23.34375 6.203125 30.609375 6.203125 
Q 37.796875 6.203125 41.984375 11.859375 
Q 46.1875 17.53125 46.1875 27.296875 
Q 46.1875 37.015625 41.984375 42.703125 
Q 37.796875 48.390625 30.609375 48.390625 
z
M 30.609375 56 
Q 42.328125 56 49.015625 48.375 
Q 55.71875 40.765625 55.71875 27.296875 
Q 55.71875 13.875 49.015625 6.21875 
Q 42.328125 -1.421875 30.609375 -1.421875 
Q 18.84375 -1.421875 12.171875 6.21875 
Q 5.515625 13.875 5.515625 27.296875 
Q 5.515625 40.765625 12.171875 48.375 
Q 18.84375 56 30.609375 56 
z
" id="DejaVuSans-6f"/>
      <path d="M 45.40625 27.984375 
Q 45.40625 37.75 41.375 43.109375 
Q 37.359375 48.484375 30.078125 48.484375 
Q 22.859375 48.484375 18.828125 43.109375 
Q 14.796875 37.75 14.796875 27.984375 
Q 14.796875 18.265625 18.828125 12.890625 
Q 22.859375 7.515625 30.078125 7.515625 
Q 37.359375 7.515625 41.375 12.890625 
Q 45.40625 18.265625 45.40625 27.984375 
z
M 54.390625 6.78125 
Q 54.390625 -7.171875 48.1875 -13.984375 
Q 42 -20.796875 29.203125 -20.796875 
Q 24.46875 -20.796875 20.265625 -20.09375 
Q 16.0625 -19.390625 12.109375 -17.921875 
L 12.109375 -9.1875 
Q 16.0625 -11.328125 19.921875 -12.34375 
Q 23.78125 -13.375 27.78125 -13.375 
Q 36.625 -13.375 41.015625 -8.765625 
Q 45.40625 -4.15625 45.40625 5.171875 
L 45.40625 9.625 
Q 42.625 4.78125 38.28125 2.390625 
Q 33.9375 0 27.875 0 
Q 17.828125 0 11.671875 7.65625 
Q 5.515625 15.328125 5.515625 27.984375 
Q 5.515625 40.671875 11.671875 48.328125 
Q 17.828125 56 27.875 56 
Q 33.9375 56 38.28125 53.609375 
Q 42.625 51.21875 45.40625 46.390625 
L 45.40625 54.6875 
L 54.390625 54.6875 
z
" id="DejaVuSans-67"/>
      <path d="M 12.40625 8.296875 
L 28.515625 8.296875 
L 28.515625 63.921875 
L 10.984375 60.40625 
L 10.984375 69.390625 
L 28.421875 72.90625 
L 38.28125 72.90625 
L 38.28125 8.296875 
L 54.390625 8.296875 
L 54.390625 0 
L 12.40625 0 
z
" id="DejaVuSans-31"/>
      <path d="M 31 75.875 
Q 24.46875 64.65625 21.28125 53.65625 
Q 18.109375 42.671875 18.109375 31.390625 
Q 18.109375 20.125 21.3125 9.0625 
Q 24.515625 -2 31 -13.1875 
L 23.1875 -13.1875 
Q 15.875 -1.703125 12.234375 9.375 
Q 8.59375 20.453125 8.59375 31.390625 
Q 8.59375 42.28125 12.203125 53.3125 
Q 15.828125 64.359375 23.1875 75.875 
z
" id="DejaVuSans-28"/>
      <path d="M 51.125 44 
L 36.921875 44 
L 32.8125 27.6875 
L 47.125 27.6875 
z
M 43.796875 71.78125 
L 38.71875 51.515625 
L 52.984375 51.515625 
L 58.109375 71.78125 
L 65.921875 71.78125 
L 60.890625 51.515625 
L 76.125 51.515625 
L 76.125 44 
L 58.984375 44 
L 54.984375 27.6875 
L 70.515625 27.6875 
L 70.515625 20.21875 
L 53.078125 20.21875 
L 48 0 
L 40.1875 0 
L 45.21875 20.21875 
L 30.90625 20.21875 
L 25.875 0 
L 18.015625 0 
L 23.09375 20.21875 
L 7.71875 20.21875 
L 7.71875 27.6875 
L 24.90625 27.6875 
L 29 44 
L 13.28125 44 
L 13.28125 51.515625 
L 30.90625 51.515625 
L 35.890625 71.78125 
z
" id="DejaVuSans-23"/>
      <path id="DejaVuSans-20"/>
      <path d="M 37.109375 75.984375 
L 37.109375 68.5 
L 28.515625 68.5 
Q 23.6875 68.5 21.796875 66.546875 
Q 19.921875 64.59375 19.921875 59.515625 
L 19.921875 54.6875 
L 34.71875 54.6875 
L 34.71875 47.703125 
L 19.921875 47.703125 
L 19.921875 0 
L 10.890625 0 
L 10.890625 47.703125 
L 2.296875 47.703125 
L 2.296875 54.6875 
L 10.890625 54.6875 
L 10.890625 58.5 
Q 10.890625 67.625 15.140625 71.796875 
Q 19.390625 75.984375 28.609375 75.984375 
z
" id="DejaVuSans-66"/>
      <path d="M 4.890625 31.390625 
L 31.203125 31.390625 
L 31.203125 23.390625 
L 4.890625 23.390625 
z
" id="DejaVuSans-2d"/>
      <path d="M 56.203125 29.59375 
L 56.203125 25.203125 
L 14.890625 25.203125 
Q 15.484375 15.921875 20.484375 11.0625 
Q 25.484375 6.203125 34.421875 6.203125 
Q 39.59375 6.203125 44.453125 7.46875 
Q 49.3125 8.734375 54.109375 11.28125 
L 54.109375 2.78125 
Q 49.265625 0.734375 44.1875 -0.34375 
Q 39.109375 -1.421875 33.890625 -1.421875 
Q 20.796875 -1.421875 13.15625 6.1875 
Q 5.515625 13.8125 5.515625 26.8125 
Q 5.515625 40.234375 12.765625 48.109375 
Q 20.015625 56 32.328125 56 
Q 43.359375 56 49.78125 48.890625 
Q 56.203125 41.796875 56.203125 29.59375 
z
M 47.21875 32.234375 
Q 47.125 39.59375 43.09375 43.984375 
Q 39.0625 48.390625 32.421875 48.390625 
Q 24.90625 48.390625 20.390625 44.140625 
Q 15.875 39.890625 15.1875 32.171875 
z
" id="DejaVuSans-65"/>
      <path d="M 2.984375 54.6875 
L 12.5 54.6875 
L 29.59375 8.796875 
L 46.6875 54.6875 
L 56.203125 54.6875 
L 35.6875 0 
L 23.484375 0 
z
" id="DejaVuSans-76"/>
      <path d="M 34.28125 27.484375 
Q 23.390625 27.484375 19.1875 25 
Q 14.984375 22.515625 14.984375 16.5 
Q 14.984375 11.71875 18.140625 8.90625 
Q 21.296875 6.109375 26.703125 6.109375 
Q 34.1875 6.109375 38.703125 11.40625 
Q 43.21875 16.703125 43.21875 25.484375 
L 43.21875 27.484375 
z
M 52.203125 31.203125 
L 52.203125 0 
L 43.21875 0 
L 43.21875 8.296875 
Q 40.140625 3.328125 35.546875 0.953125 
Q 30.953125 -1.421875 24.3125 -1.421875 
Q 15.921875 -1.421875 10.953125 3.296875 
Q 6 8.015625 6 15.921875 
Q 6 25.140625 12.171875 29.828125 
Q 18.359375 34.515625 30.609375 34.515625 
L 43.21875 34.515625 
L 43.21875 35.40625 
Q 43.21875 41.609375 39.140625 45 
Q 35.0625 48.390625 27.6875 48.390625 
Q 23 48.390625 18.546875 47.265625 
Q 14.109375 46.140625 10.015625 43.890625 
L 10.015625 52.203125 
Q 14.9375 54.109375 19.578125 55.046875 
Q 24.21875 56 28.609375 56 
Q 40.484375 56 46.34375 49.84375 
Q 52.203125 43.703125 52.203125 31.203125 
z
" id="DejaVuSans-61"/>
      <path d="M 44.28125 53.078125 
L 44.28125 44.578125 
Q 40.484375 46.53125 36.375 47.5 
Q 32.28125 48.484375 27.875 48.484375 
Q 21.1875 48.484375 17.84375 46.4375 
Q 14.5 44.390625 14.5 40.28125 
Q 14.5 37.15625 16.890625 35.375 
Q 19.28125 33.59375 26.515625 31.984375 
L 29.59375 31.296875 
Q 39.15625 29.25 43.1875 25.515625 
Q 47.21875 21.78125 47.21875 15.09375 
Q 47.21875 7.46875 41.1875 3.015625 
Q 35.15625 -1.421875 24.609375 -1.421875 
Q 20.21875 -1.421875 15.453125 -0.5625 
Q 10.6875 0.296875 5.421875 2 
L 5.421875 11.28125 
Q 10.40625 8.6875 15.234375 7.390625 
Q 20.0625 6.109375 24.8125 6.109375 
Q 31.15625 6.109375 34.5625 8.28125 
Q 37.984375 10.453125 37.984375 14.40625 
Q 37.984375 18.0625 35.515625 20.015625 
Q 33.0625 21.96875 24.703125 23.78125 
L 21.578125 24.515625 
Q 13.234375 26.265625 9.515625 29.90625 
Q 5.8125 33.546875 5.8125 39.890625 
Q 5.8125 47.609375 11.28125 51.796875 
Q 16.75 56 26.8125 56 
Q 31.78125 56 36.171875 55.265625 
Q 40.578125 54.546875 44.28125 53.078125 
z
" id="DejaVuSans-73"/>
      <path d="M 25.390625 72.90625 
L 33.6875 72.90625 
L 8.296875 -9.28125 
L 0 -9.28125 
z
" id="DejaVuSans-2f"/>
      <path d="M 45.40625 46.390625 
L 45.40625 75.984375 
L 54.390625 75.984375 
L 54.390625 0 
L 45.40625 0 
L 45.40625 8.203125 
Q 42.578125 3.328125 38.25 0.953125 
Q 33.9375 -1.421875 27.875 -1.421875 
Q 17.96875 -1.421875 11.734375 6.484375 
Q 5.515625 14.40625 5.515625 27.296875 
Q 5.515625 40.1875 11.734375 48.09375 
Q 17.96875 56 27.875 56 
Q 33.9375 56 38.25 53.625 
Q 42.578125 51.265625 45.40625 46.390625 
z
M 14.796875 27.296875 
Q 14.796875 17.390625 18.875 11.75 
Q 22.953125 6.109375 30.078125 6.109375 
Q 37.203125 6.109375 41.296875 11.75 
Q 45.40625 17.390625 45.40625 27.296875 
Q 45.40625 37.203125 41.296875 42.84375 
Q 37.203125 48.484375 30.078125 48.484375 
Q 22.953125 48.484375 18.875 42.84375 
Q 14.796875 37.203125 14.796875 27.296875 
z
" id="DejaVuSans-64"/>
      <path d="M 9.421875 54.6875 
L 18.40625 54.6875 
L 18.40625 0 
L 9.421875 0 
z
M 9.421875 75.984375 
L 18.40625 75.984375 
L 18.40625 64.59375 
L 9.421875 64.59375 
z
" id="DejaVuSans-69"/>
      <path d="M 52 44.1875 
Q 55.375 50.25 60.0625 53.125 
Q 64.75 56 71.09375 56 
Q 79.640625 56 84.28125 50.015625 
Q 88.921875 44.046875 88.921875 33.015625 
L 88.921875 0 
L 79.890625 0 
L 79.890625 32.71875 
Q 79.890625 40.578125 77.09375 44.375 
Q 74.3125 48.1875 68.609375 48.1875 
Q 61.625 48.1875 57.5625 43.546875 
Q 53.515625 38.921875 53.515625 30.90625 
L 53.515625 0 
L 44.484375 0 
L 44.484375 32.71875 
Q 44.484375 40.625 41.703125 44.40625 
Q 38.921875 48.1875 33.109375 48.1875 
Q 26.21875 48.1875 22.15625 43.53125 
Q 18.109375 38.875 18.109375 30.90625 
L 18.109375 0 
L 9.078125 0 
L 9.078125 54.6875 
L 18.109375 54.6875 
L 18.109375 46.1875 
Q 21.1875 51.21875 25.484375 53.609375 
Q 29.78125 56 35.6875 56 
Q 41.65625 56 45.828125 52.96875 
Q 50 49.953125 52 44.1875 
z
" id="DejaVuSans-6d"/>
      <path d="M 54.890625 33.015625 
L 54.890625 0 
L 45.90625 0 
L 45.90625 32.71875 
Q 45.90625 40.484375 42.875 44.328125 
Q 39.84375 48.1875 33.796875 48.1875 
Q 26.515625 48.1875 22.3125 43.546875 
Q 18.109375 38.921875 18.109375 30.90625 
L 18.109375 0 
L 9.078125 0 
L 9.078125 54.6875 
L 18.109375 54.6875 
L 18.109375 46.1875 
Q 21.34375 51.125 25.703125 53.5625 
Q 30.078125 56 35.796875 56 
Q 45.21875 56 50.046875 50.171875 
Q 54.890625 44.34375 54.890625 33.015625 
z
" id="DejaVuSans-6e"/>
      <path d="M 8.015625 75.875 
L 15.828125 75.875 
Q 23.140625 64.359375 26.78125 53.3125 
Q 30.421875 42.28125 30.421875 31.390625 
Q 30.421875 20.453125 26.78125 9.375 
Q 23.140625 -1.703125 15.828125 -13.1875 
L 8.015625 -13.1875 
Q 14.5 -2 17.703125 9.0625 
Q 20.90625 20.125 20.90625 31.390625 
Q 20.90625 42.671875 17.703125 53.65625 
Q 14.5 64.65625 8.015625 75.875 
z
" id="DejaVuSans-29"/>
     </defs>
     <g transform="translate(73.803219 338.153594)scale(0.17 -0.17)">
      <use xlink:href="#DejaVuSans-6c"/>
      <use x="27.783203" xlink:href="#DejaVuSans-6f"/>
      <use x="88.964844" xlink:href="#DejaVuSans-67"/>
      <use x="152.441406" xlink:href="#DejaVuSans-31"/>
      <use x="216.064453" xlink:href="#DejaVuSans-30"/>
      <use x="279.6875" xlink:href="#DejaVuSans-28"/>
      <use x="318.701172" xlink:href="#DejaVuSans-23"/>
      <use x="402.490234" xlink:href="#DejaVuSans-20"/>
      <use x="434.277344" xlink:href="#DejaVuSans-66"/>
      <use x="469.404297" xlink:href="#DejaVuSans-2d"/>
      <use x="505.488281" xlink:href="#DejaVuSans-65"/>
      <use x="567.011719" xlink:href="#DejaVuSans-76"/>
      <use x="626.191406" xlink:href="#DejaVuSans-61"/>
      <use x="687.470703" xlink:href="#DejaVuSans-6c"/>
      <use x="715.253906" xlink:href="#DejaVuSans-73"/>
      <use x="767.353516" xlink:href="#DejaVuSans-20"/>
      <use x="799.140625" xlink:href="#DejaVuSans-2f"/>
      <use x="832.832031" xlink:href="#DejaVuSans-20"/>
      <use x="864.619141" xlink:href="#DejaVuSans-64"/>
      <use x="928.095703" xlink:href="#DejaVuSans-69"/>
      <use x="955.878906" xlink:href="#DejaVuSans-6d"/>
      <use x="1053.291016" xlink:href="#DejaVuSans-65"/>
      <use x="1114.814453" xlink:href="#DejaVuSans-6e"/>
      <use x="1178.193359" xlink:href="#DejaVuSans-73"/>
      <use x="1230.292969" xlink:href="#DejaVuSans-69"/>
      <use x="1258.076172" xlink:href="#DejaVuSans-6f"/>
      <use x="1319.257812" xlink:href="#DejaVuSans-6e"/>
      <use x="1382.636719" xlink:href="#DejaVuSans-29"/>
     </g>
    </g>
   </g>
   <g id="matplotlib.axis_2">
    <g id="ytick_1">
     <g id="line2d_29">
      <path clip-path="url(#pe691d520b7)" d="M 56.12 294.88 
L 333.168 294.88 
" style="fill:none;stroke:#b0b0b0;stroke-linecap:square;stroke-width:0.8;"/>
     </g>
     <g id="line2d_30">
      <defs>
       <path d="M 0 0 
L -3.5 0 
" id="maa9ed9e8b6" style="stroke:#000000;stroke-width:0.8;"/>
      </defs>
      <g>
       <use style="stroke:#000000;stroke-width:0.8;" x="56.12" xlink:href="#maa9ed9e8b6" y="294.88"/>
      </g>
     </g>
     <g id="text_6">
      <!-- 0.0 -->
      <defs>
       <path d="M 10.6875 12.40625 
L 21 12.40625 
L 21 0 
L 10.6875 0 
z
" id="DejaVuSans-2e"/>
      </defs>
      <g transform="translate(23.675 300.95875)scale(0.16 -0.16)">
       <use xlink:href="#DejaVuSans-30"/>
       <use x="63.623047" xlink:href="#DejaVuSans-2e"/>
       <use x="95.410156" xlink:href="#DejaVuSans-30"/>
      </g>
     </g>
    </g>
    <g id="ytick_2">
     <g id="line2d_31">
      <path clip-path="url(#pe691d520b7)" d="M 56.12 241.406733 
L 333.168 241.406733 
" style="fill:none;stroke:#b0b0b0;stroke-linecap:square;stroke-width:0.8;"/>
     </g>
     <g id="line2d_32">
      <g>
       <use style="stroke:#000000;stroke-width:0.8;" x="56.12" xlink:href="#maa9ed9e8b6" y="241.406733"/>
      </g>
     </g>
     <g id="text_7">
      <!-- 0.2 -->
      <g transform="translate(23.675 247.485483)scale(0.16 -0.16)">
       <use xlink:href="#DejaVuSans-30"/>
       <use x="63.623047" xlink:href="#DejaVuSans-2e"/>
       <use x="95.410156" xlink:href="#DejaVuSans-32"/>
      </g>
     </g>
    </g>
    <g id="ytick_3">
     <g id="line2d_33">
      <path clip-path="url(#pe691d520b7)" d="M 56.12 187.933465 
L 333.168 187.933465 
" style="fill:none;stroke:#b0b0b0;stroke-linecap:square;stroke-width:0.8;"/>
     </g>
     <g id="line2d_34">
      <g>
       <use style="stroke:#000000;stroke-width:0.8;" x="56.12" xlink:href="#maa9ed9e8b6" y="187.933465"/>
      </g>
     </g>
     <g id="text_8">
      <!-- 0.4 -->
      <g transform="translate(23.675 194.012215)scale(0.16 -0.16)">
       <use xlink:href="#DejaVuSans-30"/>
       <use x="63.623047" xlink:href="#DejaVuSans-2e"/>
       <use x="95.410156" xlink:href="#DejaVuSans-34"/>
      </g>
     </g>
    </g>
    <g id="ytick_4">
     <g id="line2d_35">
      <path clip-path="url(#pe691d520b7)" d="M 56.12 134.460198 
L 333.168 134.460198 
" style="fill:none;stroke:#b0b0b0;stroke-linecap:square;stroke-width:0.8;"/>
     </g>
     <g id="line2d_36">
      <g>
       <use style="stroke:#000000;stroke-width:0.8;" x="56.12" xlink:href="#maa9ed9e8b6" y="134.460198"/>
      </g>
     </g>
     <g id="text_9">
      <!-- 0.6 -->
      <g transform="translate(23.675 140.538948)scale(0.16 -0.16)">
       <use xlink:href="#DejaVuSans-30"/>
       <use x="63.623047" xlink:href="#DejaVuSans-2e"/>
       <use x="95.410156" xlink:href="#DejaVuSans-36"/>
      </g>
     </g>
    </g>
    <g id="ytick_5">
     <g id="line2d_37">
      <path clip-path="url(#pe691d520b7)" d="M 56.12 80.986931 
L 333.168 80.986931 
" style="fill:none;stroke:#b0b0b0;stroke-linecap:square;stroke-width:0.8;"/>
     </g>
     <g id="line2d_38">
      <g>
       <use style="stroke:#000000;stroke-width:0.8;" x="56.12" xlink:href="#maa9ed9e8b6" y="80.986931"/>
      </g>
     </g>
     <g id="text_10">
      <!-- 0.8 -->
      <defs>
       <path d="M 31.78125 34.625 
Q 24.75 34.625 20.71875 30.859375 
Q 16.703125 27.09375 16.703125 20.515625 
Q 16.703125 13.921875 20.71875 10.15625 
Q 24.75 6.390625 31.78125 6.390625 
Q 38.8125 6.390625 42.859375 10.171875 
Q 46.921875 13.96875 46.921875 20.515625 
Q 46.921875 27.09375 42.890625 30.859375 
Q 38.875 34.625 31.78125 34.625 
z
M 21.921875 38.8125 
Q 15.578125 40.375 12.03125 44.71875 
Q 8.5 49.078125 8.5 55.328125 
Q 8.5 64.0625 14.71875 69.140625 
Q 20.953125 74.21875 31.78125 74.21875 
Q 42.671875 74.21875 48.875 69.140625 
Q 55.078125 64.0625 55.078125 55.328125 
Q 55.078125 49.078125 51.53125 44.71875 
Q 48 40.375 41.703125 38.8125 
Q 48.828125 37.15625 52.796875 32.3125 
Q 56.78125 27.484375 56.78125 20.515625 
Q 56.78125 9.90625 50.3125 4.234375 
Q 43.84375 -1.421875 31.78125 -1.421875 
Q 19.734375 -1.421875 13.25 4.234375 
Q 6.78125 9.90625 6.78125 20.515625 
Q 6.78125 27.484375 10.78125 32.3125 
Q 14.796875 37.15625 21.921875 38.8125 
z
M 18.3125 54.390625 
Q 18.3125 48.734375 21.84375 45.5625 
Q 25.390625 42.390625 31.78125 42.390625 
Q 38.140625 42.390625 41.71875 45.5625 
Q 45.3125 48.734375 45.3125 54.390625 
Q 45.3125 60.0625 41.71875 63.234375 
Q 38.140625 66.40625 31.78125 66.40625 
Q 25.390625 66.40625 21.84375 63.234375 
Q 18.3125 60.0625 18.3125 54.390625 
z
" id="DejaVuSans-38"/>
      </defs>
      <g transform="translate(23.675 87.065681)scale(0.16 -0.16)">
       <use xlink:href="#DejaVuSans-30"/>
       <use x="63.623047" xlink:href="#DejaVuSans-2e"/>
       <use x="95.410156" xlink:href="#DejaVuSans-38"/>
      </g>
     </g>
    </g>
    <g id="ytick_6">
     <g id="line2d_39">
      <path clip-path="url(#pe691d520b7)" d="M 56.12 27.513663 
L 333.168 27.513663 
" style="fill:none;stroke:#b0b0b0;stroke-linecap:square;stroke-width:0.8;"/>
     </g>
     <g id="line2d_40">
      <g>
       <use style="stroke:#000000;stroke-width:0.8;" x="56.12" xlink:href="#maa9ed9e8b6" y="27.513663"/>
      </g>
     </g>
     <g id="text_11">
      <!-- 1.0 -->
      <g transform="translate(23.675 33.592413)scale(0.16 -0.16)">
       <use xlink:href="#DejaVuSans-31"/>
       <use x="63.623047" xlink:href="#DejaVuSans-2e"/>
       <use x="95.410156" xlink:href="#DejaVuSans-30"/>
      </g>
     </g>
    </g>
    <g id="text_12">
     <!-- Fraction of function,target pairs -->
     <defs>
      <path d="M 9.8125 72.90625 
L 51.703125 72.90625 
L 51.703125 64.59375 
L 19.671875 64.59375 
L 19.671875 43.109375 
L 48.578125 43.109375 
L 48.578125 34.8125 
L 19.671875 34.8125 
L 19.671875 0 
L 9.8125 0 
z
" id="DejaVuSans-46"/>
      <path d="M 41.109375 46.296875 
Q 39.59375 47.171875 37.8125 47.578125 
Q 36.03125 48 33.890625 48 
Q 26.265625 48 22.1875 43.046875 
Q 18.109375 38.09375 18.109375 28.8125 
L 18.109375 0 
L 9.078125 0 
L 9.078125 54.6875 
L 18.109375 54.6875 
L 18.109375 46.1875 
Q 20.953125 51.171875 25.484375 53.578125 
Q 30.03125 56 36.53125 56 
Q 37.453125 56 38.578125 55.875 
Q 39.703125 55.765625 41.0625 55.515625 
z
" id="DejaVuSans-72"/>
      <path d="M 48.78125 52.59375 
L 48.78125 44.1875 
Q 44.96875 46.296875 41.140625 47.34375 
Q 37.3125 48.390625 33.40625 48.390625 
Q 24.65625 48.390625 19.8125 42.84375 
Q 14.984375 37.3125 14.984375 27.296875 
Q 14.984375 17.28125 19.8125 11.734375 
Q 24.65625 6.203125 33.40625 6.203125 
Q 37.3125 6.203125 41.140625 7.25 
Q 44.96875 8.296875 48.78125 10.40625 
L 48.78125 2.09375 
Q 45.015625 0.34375 40.984375 -0.53125 
Q 36.96875 -1.421875 32.421875 -1.421875 
Q 20.0625 -1.421875 12.78125 6.34375 
Q 5.515625 14.109375 5.515625 27.296875 
Q 5.515625 40.671875 12.859375 48.328125 
Q 20.21875 56 33.015625 56 
Q 37.15625 56 41.109375 55.140625 
Q 45.0625 54.296875 48.78125 52.59375 
z
" id="DejaVuSans-63"/>
      <path d="M 18.3125 70.21875 
L 18.3125 54.6875 
L 36.8125 54.6875 
L 36.8125 47.703125 
L 18.3125 47.703125 
L 18.3125 18.015625 
Q 18.3125 11.328125 20.140625 9.421875 
Q 21.96875 7.515625 27.59375 7.515625 
L 36.8125 7.515625 
L 36.8125 0 
L 27.59375 0 
Q 17.1875 0 13.234375 3.875 
Q 9.28125 7.765625 9.28125 18.015625 
L 9.28125 47.703125 
L 2.6875 47.703125 
L 2.6875 54.6875 
L 9.28125 54.6875 
L 9.28125 70.21875 
z
" id="DejaVuSans-74"/>
      <path d="M 8.5 21.578125 
L 8.5 54.6875 
L 17.484375 54.6875 
L 17.484375 21.921875 
Q 17.484375 14.15625 20.5 10.265625 
Q 23.53125 6.390625 29.59375 6.390625 
Q 36.859375 6.390625 41.078125 11.03125 
Q 45.3125 15.671875 45.3125 23.6875 
L 45.3125 54.6875 
L 54.296875 54.6875 
L 54.296875 0 
L 45.3125 0 
L 45.3125 8.40625 
Q 42.046875 3.421875 37.71875 1 
Q 33.40625 -1.421875 27.6875 -1.421875 
Q 18.265625 -1.421875 13.375 4.4375 
Q 8.5 10.296875 8.5 21.578125 
z
M 31.109375 56 
z
" id="DejaVuSans-75"/>
      <path d="M 11.71875 12.40625 
L 22.015625 12.40625 
L 22.015625 4 
L 14.015625 -11.625 
L 7.71875 -11.625 
L 11.71875 4 
z
" id="DejaVuSans-2c"/>
      <path d="M 18.109375 8.203125 
L 18.109375 -20.796875 
L 9.078125 -20.796875 
L 9.078125 54.6875 
L 18.109375 54.6875 
L 18.109375 46.390625 
Q 20.953125 51.265625 25.265625 53.625 
Q 29.59375 56 35.59375 56 
Q 45.5625 56 51.78125 48.09375 
Q 58.015625 40.1875 58.015625 27.296875 
Q 58.015625 14.40625 51.78125 6.484375 
Q 45.5625 -1.421875 35.59375 -1.421875 
Q 29.59375 -1.421875 25.265625 0.953125 
Q 20.953125 3.328125 18.109375 8.203125 
z
M 48.6875 27.296875 
Q 48.6875 37.203125 44.609375 42.84375 
Q 40.53125 48.484375 33.40625 48.484375 
Q 26.265625 48.484375 22.1875 42.84375 
Q 18.109375 37.203125 18.109375 27.296875 
Q 18.109375 17.390625 22.1875 11.75 
Q 26.265625 6.109375 33.40625 6.109375 
Q 40.53125 6.109375 44.609375 11.75 
Q 48.6875 17.390625 48.6875 27.296875 
z
" id="DejaVuSans-70"/>
     </defs>
     <g transform="translate(16.139531 294.999375)rotate(-90)scale(0.17 -0.17)">
      <use xlink:href="#DejaVuSans-46"/>
      <use x="57.410156" xlink:href="#DejaVuSans-72"/>
      <use x="98.523438" xlink:href="#DejaVuSans-61"/>
      <use x="159.802734" xlink:href="#DejaVuSans-63"/>
      <use x="214.783203" xlink:href="#DejaVuSans-74"/>
      <use x="253.992188" xlink:href="#DejaVuSans-69"/>
      <use x="281.775391" xlink:href="#DejaVuSans-6f"/>
      <use x="342.957031" xlink:href="#DejaVuSans-6e"/>
      <use x="406.335938" xlink:href="#DejaVuSans-20"/>
      <use x="438.123047" xlink:href="#DejaVuSans-6f"/>
      <use x="499.304688" xlink:href="#DejaVuSans-66"/>
      <use x="534.509766" xlink:href="#DejaVuSans-20"/>
      <use x="566.296875" xlink:href="#DejaVuSans-66"/>
      <use x="601.501953" xlink:href="#DejaVuSans-75"/>
      <use x="664.880859" xlink:href="#DejaVuSans-6e"/>
      <use x="728.259766" xlink:href="#DejaVuSans-63"/>
      <use x="783.240234" xlink:href="#DejaVuSans-74"/>
      <use x="822.449219" xlink:href="#DejaVuSans-69"/>
      <use x="850.232422" xlink:href="#DejaVuSans-6f"/>
      <use x="911.414062" xlink:href="#DejaVuSans-6e"/>
      <use x="974.792969" xlink:href="#DejaVuSans-2c"/>
      <use x="1006.580078" xlink:href="#DejaVuSans-74"/>
      <use x="1045.789062" xlink:href="#DejaVuSans-61"/>
      <use x="1107.068359" xlink:href="#DejaVuSans-72"/>
      <use x="1148.166016" xlink:href="#DejaVuSans-67"/>
      <use x="1211.642578" xlink:href="#DejaVuSans-65"/>
      <use x="1273.166016" xlink:href="#DejaVuSans-74"/>
      <use x="1312.375" xlink:href="#DejaVuSans-20"/>
      <use x="1344.162109" xlink:href="#DejaVuSans-70"/>
      <use x="1407.638672" xlink:href="#DejaVuSans-61"/>
      <use x="1468.917969" xlink:href="#DejaVuSans-69"/>
      <use x="1496.701172" xlink:href="#DejaVuSans-72"/>
      <use x="1537.814453" xlink:href="#DejaVuSans-73"/>
     </g>
    </g>
   </g>
   <g id="line2d_41">
    <defs>
     <path d="M 0 1.5 
C 0.397805 1.5 0.77937 1.341951 1.06066 1.06066 
C 1.341951 0.77937 1.5 0.397805 1.5 0 
C 1.5 -0.397805 1.341951 -0.77937 1.06066 -1.06066 
C 0.77937 -1.341951 0.397805 -1.5 0 -1.5 
C -0.397805 -1.5 -0.77937 -1.341951 -1.06066 -1.06066 
C -1.341951 -0.77937 -1.5 -0.397805 -1.5 0 
C -1.5 0.397805 -1.341951 0.77937 -1.06066 1.06066 
C -0.77937 1.341951 -0.397805 1.5 0 1.5 
z
" id="m59479c693e" style="stroke:#f5deb3;"/>
    </defs>
    <g>
     <use style="fill:#f5deb3;stroke:#f5deb3;" x="173.33736" xlink:href="#m59479c693e" y="27.513663"/>
     <use style="fill:#f5deb3;stroke:#f5deb3;" x="173.33736" xlink:href="#m59479c693e" y="27.513663"/>
    </g>
   </g>
   <g id="line2d_42">
    <defs>
     <path d="M 0 1.5 
C 0.397805 1.5 0.77937 1.341951 1.06066 1.06066 
C 1.341951 0.77937 1.5 0.397805 1.5 0 
C 1.5 -0.397805 1.341951 -0.77937 1.06066 -1.06066 
C 0.77937 -1.341951 0.397805 -1.5 0 -1.5 
C -0.397805 -1.5 -0.77937 -1.341951 -1.06066 -1.06066 
C -1.341951 -0.77937 -1.5 -0.397805 -1.5 0 
C -1.5 0.397805 -1.341951 0.77937 -1.06066 1.06066 
C -0.77937 1.341951 -0.397805 1.5 0 1.5 
z
" id="mfc4d29160e" style="stroke:#000080;"/>
    </defs>
    <g>
     <use style="fill:#000080;stroke:#000080;" x="174.063425" xlink:href="#mfc4d29160e" y="27.513663"/>
     <use style="fill:#000080;stroke:#000080;" x="174.063425" xlink:href="#mfc4d29160e" y="27.513663"/>
    </g>
   </g>
   <g id="line2d_43">
    <path d="M 44.205749 294.88 
L 44.205749 275.482834 
L 56.12 275.482834 
L 56.12 269.191862 
L 63.08939 269.191862 
L 63.08939 266.570623 
L 71.869783 266.570623 
L 71.869783 261.852394 
L 75.003641 261.852394 
L 75.003641 260.803898 
L 77.653281 260.803898 
L 77.653281 259.755403 
L 79.948502 259.755403 
L 79.948502 257.658412 
L 81.973032 257.658412 
L 81.973032 256.609917 
L 83.784035 256.609917 
L 83.784035 253.988678 
L 85.422286 253.988678 
L 85.422286 252.415935 
L 86.917893 252.415935 
L 86.917893 251.891687 
L 88.293717 251.891687 
L 88.293717 250.843192 
L 93.887283 250.843192 
L 93.887283 249.794696 
L 100.207968 249.794696 
L 100.207968 249.270448 
L 102.084955 249.270448 
L 102.084955 248.221953 
L 111.100812 248.221953 
L 111.100812 247.697705 
L 114.293036 247.697705 
L 114.293036 246.64921 
L 114.866043 246.64921 
L 114.866043 242.455228 
L 115.420563 242.455228 
L 115.420563 241.93098 
L 115.691256 241.93098 
L 115.691256 240.882485 
L 115.957752 240.882485 
L 115.957752 240.358237 
L 116.73331 240.358237 
L 116.73331 239.83399 
L 119.526788 239.83399 
L 119.526788 239.309742 
L 120.365424 239.309742 
L 120.365424 238.785494 
L 120.769881 238.785494 
L 120.769881 238.261246 
L 120.968596 238.261246 
L 120.968596 237.212751 
L 121.16504 237.212751 
L 121.16504 236.688503 
L 123.36232 236.688503 
L 123.36232 236.164255 
L 125.764637 236.164255 
L 125.764637 235.640008 
L 126.496178 235.640008 
L 126.496178 235.11576 
L 126.92061 235.11576 
L 126.92061 234.067265 
L 127.334814 234.067265 
L 127.334814 233.543017 
L 128.003717 233.543017 
L 128.003717 232.494521 
L 128.264156 232.494521 
L 128.264156 231.970274 
L 129.022601 231.970274 
L 129.022601 231.446026 
L 129.510254 231.446026 
L 129.510254 230.397531 
L 130.100987 230.397531 
L 130.100987 228.824787 
L 130.445921 228.824787 
L 130.445921 228.30054 
L 130.559378 228.30054 
L 130.559378 227.252044 
L 130.895323 227.252044 
L 130.895323 225.679301 
L 134.304205 225.679301 
L 134.304205 224.630806 
L 134.664189 224.630806 
L 134.664189 223.058063 
L 135.701004 223.058063 
L 135.701004 222.009567 
L 136.836515 222.009567 
L 136.836515 221.485319 
L 136.992776 221.485319 
L 136.992776 220.436824 
L 138.4819 220.436824 
L 138.553074 219.388328 
L 138.904592 219.388328 
L 138.974042 218.339833 
L 139.249066 218.339833 
L 139.249066 217.291338 
L 140.048681 217.291338 
L 140.048681 216.242842 
L 140.242905 216.242842 
L 140.307161 215.194347 
L 140.371179 215.194347 
L 140.371179 214.670099 
L 140.687737 214.670099 
L 140.750355 208.379126 
L 141.243253 208.379126 
L 141.243253 207.854879 
L 141.424506 207.854879 
L 141.424506 207.330631 
L 142.130987 207.330631 
L 142.130987 206.282136 
L 142.360172 206.282136 
L 142.360172 205.757888 
L 142.69832 205.757888 
L 142.754037 203.660897 
L 142.864932 203.660897 
L 142.975116 202.088154 
L 143.515683 202.088154 
L 143.515683 201.039658 
L 143.988072 201.039658 
L 144.091308 197.894172 
L 144.648278 197.894172 
L 144.648278 196.321429 
L 147.531203 196.321429 
L 147.531203 195.797181 
L 147.657127 195.797181 
L 147.657127 194.748686 
L 148.029459 194.748686 
L 148.029459 194.224438 
L 148.711478 194.224438 
L 148.789965 192.127447 
L 148.829074 192.127447 
L 148.829074 190.030456 
L 149.367465 190.030456 
L 149.367465 189.506209 
L 149.815889 189.506209 
L 149.815889 188.981961 
L 150.144693 188.981961 
L 150.144693 188.457713 
L 150.643983 188.457713 
L 150.749113 185.836474 
L 150.818844 185.836474 
L 150.818844 183.215236 
L 150.991943 183.215236 
L 151.026355 181.642493 
L 151.501022 181.642493 
L 151.501022 181.118245 
L 151.634268 181.118245 
L 151.634268 179.545502 
L 151.930347 179.545502 
L 151.930347 179.021254 
L 152.539141 179.021254 
L 152.539141 177.972759 
L 153.035598 177.972759 
L 153.066156 175.875768 
L 153.754391 175.875768 
L 153.842163 173.254529 
L 153.90043 173.254529 
L 153.90043 172.730281 
L 154.188837 172.730281 
L 154.245942 170.633291 
L 154.612571 170.633291 
L 154.612571 170.109043 
L 154.916803 170.109043 
L 154.916803 169.584795 
L 155.18878 169.584795 
L 155.215743 168.5363 
L 155.615187 168.5363 
L 155.615187 168.012052 
L 155.876417 168.012052 
L 155.876417 163.81807 
L 156.2863 163.81807 
L 156.2863 163.293823 
L 156.412409 163.293823 
L 156.412409 162.769575 
L 156.711349 162.769575 
L 156.809852 159.624089 
L 156.83439 159.624089 
L 156.88336 157.527098 
L 157.053666 157.527098 
L 157.053666 157.00285 
L 157.270181 157.00285 
L 157.270181 156.478602 
L 157.436716 156.478602 
L 157.460375 153.857364 
L 157.695196 153.857364 
L 157.695196 153.333116 
L 158.178119 153.333116 
L 158.178119 152.808868 
L 158.358579 152.808868 
L 158.381004 150.711877 
L 158.823464 150.711877 
L 158.823464 149.663382 
L 159.276106 149.663382 
L 159.360989 145.993648 
L 160.207687 145.993648 
L 160.227826 144.420905 
L 160.427929 144.420905 
L 160.427929 143.896657 
L 160.606051 143.896657 
L 160.684628 136.557189 
L 160.840712 136.557189 
L 160.840712 136.032941 
L 161.014628 136.032941 
L 161.091363 134.460198 
L 161.129603 134.460198 
L 161.129603 131.838959 
L 161.319534 131.838959 
L 161.319534 130.790464 
L 161.563349 130.790464 
L 161.563349 129.217721 
L 161.986418 129.217721 
L 161.986418 127.644978 
L 162.346026 127.644978 
L 162.346026 125.547987 
L 163.060507 125.547987 
L 163.060507 125.023739 
L 163.24725 125.023739 
L 163.331467 123.450996 
L 163.365038 123.450996 
L 163.365038 122.926748 
L 163.482025 122.926748 
L 163.482025 121.354005 
L 163.614756 121.354005 
L 163.68074 117.684271 
L 163.779242 117.684271 
L 163.779242 117.160023 
L 164.087494 117.160023 
L 164.103566 115.58728 
L 164.231601 115.58728 
L 164.231601 115.063032 
L 164.374509 115.063032 
L 164.469126 110.344803 
L 164.687893 110.344803 
L 164.796241 109.296308 
L 164.85785 109.296308 
L 164.94985 107.199317 
L 164.995666 107.199317 
L 165.04136 103.005335 
L 165.298024 103.005335 
L 165.298024 102.481087 
L 165.447232 102.481087 
L 165.491743 100.384096 
L 165.712585 100.384096 
L 165.800133 99.335601 
L 165.959489 99.335601 
L 166.002695 97.762858 
L 166.245497 97.762858 
L 166.245497 97.23861 
L 166.61033 97.23861 
L 166.679611 96.190115 
L 166.789884 96.190115 
L 166.899453 93.044628 
L 167.14346 93.044628 
L 167.14346 91.996133 
L 167.277537 91.996133 
L 167.290887 89.374894 
L 167.410577 89.374894 
L 167.476712 86.753656 
L 167.555741 86.753656 
L 167.634407 83.083922 
L 167.699689 83.083922 
L 167.725732 78.88994 
L 167.842442 78.88994 
L 167.91981 75.744454 
L 167.996832 75.744454 
L 168.098993 72.598967 
L 168.175218 72.598967 
L 168.213204 71.026224 
L 168.339221 71.026224 
L 168.439373 69.977729 
L 168.625601 69.977729 
L 168.724103 66.832242 
L 168.846443 66.832242 
L 168.955809 63.686756 
L 169.112563 63.686756 
L 169.220254 60.017022 
L 169.374626 60.017022 
L 169.398253 56.871536 
L 169.515904 56.871536 
L 169.515904 54.774545 
L 169.714079 54.774545 
L 169.806554 53.726049 
L 169.909996 53.726049 
L 169.944339 49.532068 
L 170.092371 49.532068 
L 170.194112 47.435077 
L 170.227893 47.435077 
L 170.261607 46.386581 
L 170.495773 46.386581 
L 170.528966 44.813838 
L 170.61717 44.813838 
L 170.683027 43.241095 
L 170.748632 43.241095 
L 170.748632 42.716847 
L 170.94396 42.716847 
L 170.94396 40.619856 
L 171.222238 40.619856 
L 171.296395 37.998618 
L 171.380757 37.998618 
L 171.454235 35.901627 
L 171.600256 35.901627 
L 171.600256 35.377379 
L 171.888628 35.377379 
L 171.888628 34.328884 
L 172.162193 34.328884 
L 172.162193 32.756141 
L 172.461133 32.756141 
L 172.461133 31.707645 
L 172.608676 31.707645 
L 172.706339 30.65915 
L 173.195967 30.65915 
L 173.271521 28.562159 
L 174.063425 28.562159 
L 174.063425 27.513663 
L 333.168 27.513663 
L 333.168 27.513663 
" style="fill:none;stroke:#000080;stroke-linecap:square;stroke-width:1.5;"/>
   </g>
   <g id="line2d_44">
    <defs>
     <path d="M 0 6 
C 1.591219 6 3.117479 5.367802 4.242641 4.242641 
C 5.367802 3.117479 6 1.591219 6 0 
C 6 -1.591219 5.367802 -3.117479 4.242641 -4.242641 
C 3.117479 -5.367802 1.591219 -6 0 -6 
C -1.591219 -6 -3.117479 -5.367802 -4.242641 -4.242641 
C -5.367802 -3.117479 -6 -1.591219 -6 0 
C -6 1.591219 -5.367802 3.117479 -4.242641 4.242641 
C -3.117479 5.367802 -1.591219 6 0 6 
z
" id="m775b9929fa" style="stroke:#000080;stroke-width:1.5;"/>
    </defs>
    <g>
     <use style="fill-opacity:0;stroke:#000080;stroke-width:1.5;" x="93.887283" xlink:href="#m775b9929fa" y="250.843192"/>
     <use style="fill-opacity:0;stroke:#000080;stroke-width:1.5;" x="153.842163" xlink:href="#m775b9929fa" y="173.778777"/>
     <use style="fill-opacity:0;stroke:#000080;stroke-width:1.5;" x="172.461133" xlink:href="#m775b9929fa" y="32.756141"/>
     <use style="fill-opacity:0;stroke:#000080;stroke-width:1.5;" x="174.063425" xlink:href="#m775b9929fa" y="27.513663"/>
     <use style="fill-opacity:0;stroke:#000080;stroke-width:1.5;" x="174.063425" xlink:href="#m775b9929fa" y="27.513663"/>
     <use style="fill-opacity:0;stroke:#000080;stroke-width:1.5;" x="333.168" xlink:href="#m775b9929fa" y="27.513663"/>
    </g>
   </g>
   <g id="line2d_45">
    <path style="fill:none;stroke:#000080;stroke-linecap:square;stroke-width:1.5;"/>
    <g/>
   </g>
   <g id="line2d_46">
    <defs>
     <path d="M 0 1.5 
C 0.397805 1.5 0.77937 1.341951 1.06066 1.06066 
C 1.341951 0.77937 1.5 0.397805 1.5 0 
C 1.5 -0.397805 1.341951 -0.77937 1.06066 -1.06066 
C 0.77937 -1.341951 0.397805 -1.5 0 -1.5 
C -0.397805 -1.5 -0.77937 -1.341951 -1.06066 -1.06066 
C -1.341951 -0.77937 -1.5 -0.397805 -1.5 0 
C -1.5 0.397805 -1.341951 0.77937 -1.06066 1.06066 
C -0.77937 1.341951 -0.397805 1.5 0 1.5 
z
" id="m6e92c52acd" style="stroke:#ff00ff;"/>
    </defs>
    <g>
     <use style="fill:#ff00ff;stroke:#ff00ff;" x="189.119032" xlink:href="#m6e92c52acd" y="27.513663"/>
     <use style="fill:#ff00ff;stroke:#ff00ff;" x="189.119032" xlink:href="#m6e92c52acd" y="27.513663"/>
    </g>
   </g>
   <g id="line2d_47">
    <path d="M 44.205749 294.88 
L 44.205749 280.725312 
L 56.12 280.725312 
L 56.12 271.288853 
L 63.08939 271.288853 
L 63.08939 266.570623 
L 68.034251 266.570623 
L 68.034251 262.900889 
L 71.869783 262.900889 
L 71.869783 259.755403 
L 79.948502 259.755403 
L 79.948502 258.706907 
L 86.917893 258.706907 
L 86.917893 257.134164 
L 90.753425 257.134164 
L 90.753425 256.085669 
L 92.904808 256.085669 
L 92.904808 254.512926 
L 95.698286 254.512926 
L 95.698286 253.988678 
L 98.100602 253.988678 
L 98.100602 253.46443 
L 98.832144 253.46443 
L 98.832144 251.891687 
L 99.533818 251.891687 
L 99.533818 251.367439 
L 100.856673 251.367439 
L 100.856673 248.746201 
L 101.481783 248.746201 
L 101.481783 248.221953 
L 102.667676 248.221953 
L 102.667676 247.697705 
L 104.819059 247.697705 
L 104.819059 247.173458 
L 108.036969 247.173458 
L 108.036969 246.64921 
L 108.85563 246.64921 
L 108.85563 246.124962 
L 109.250788 246.124962 
L 109.250788 244.552219 
L 110.014853 244.552219 
L 110.014853 244.027971 
L 110.384516 244.027971 
L 110.384516 242.979476 
L 111.100812 242.979476 
L 111.100812 241.406733 
L 111.448069 241.406733 
L 111.448069 240.882485 
L 112.122219 240.882485 
L 112.122219 239.309742 
L 114.581927 239.309742 
L 114.581927 238.261246 
L 116.220179 238.261246 
L 116.220179 236.688503 
L 116.478659 236.688503 
L 116.478659 234.067265 
L 119.09161 234.067265 
L 119.09161 232.494521 
L 119.310576 232.494521 
L 119.310576 231.970274 
L 120.769881 231.970274 
L 120.769881 231.446026 
L 120.968596 231.446026 
L 120.968596 227.776292 
L 121.929105 227.776292 
L 121.929105 223.058063 
L 123.533353 223.058063 
L 123.533353 222.533815 
L 123.7027 222.533815 
L 123.7027 222.009567 
L 124.52528 222.009567 
L 124.52528 220.436824 
L 124.685175 220.436824 
L 124.685175 218.864081 
L 125.000572 218.864081 
L 125.000572 218.339833 
L 128.003717 218.339833 
L 128.003717 217.815585 
L 128.13443 217.815585 
L 128.13443 217.291338 
L 128.264156 217.291338 
L 128.264156 216.242842 
L 128.898495 216.242842 
L 128.898495 214.670099 
L 129.748989 214.670099 
L 129.748989 213.621604 
L 129.984454 213.621604 
L 129.984454 212.573108 
L 130.100987 212.573108 
L 130.100987 212.04886 
L 130.559378 212.04886 
L 130.559378 211.000365 
L 131.654565 211.000365 
L 131.654565 208.379126 
L 132.073821 208.379126 
L 132.073821 207.854879 
L 132.783777 207.854879 
L 132.783777 207.330631 
L 133.079291 207.330631 
L 133.079291 205.757888 
L 133.465568 205.757888 
L 133.465568 203.136649 
L 133.843356 203.136649 
L 133.843356 202.612401 
L 134.121345 202.612401 
L 134.121345 201.039658 
L 136.439531 201.039658 
L 136.439531 198.942667 
L 136.836515 198.942667 
L 136.914823 197.369924 
L 137.301101 197.369924 
L 137.301101 196.845677 
L 137.528768 196.845677 
L 137.528768 194.748686 
L 137.753459 194.748686 
L 137.753459 194.224438 
L 137.901638 194.224438 
L 137.901638 192.651695 
L 138.04855 192.651695 
L 138.04855 192.127447 
L 138.410429 192.127447 
L 138.4819 190.554704 
L 139.043211 190.554704 
L 139.043211 189.506209 
L 139.317139 189.506209 
L 139.317139 188.981961 
L 139.653523 188.981961 
L 139.653523 188.457713 
L 139.852237 188.457713 
L 139.852237 186.88497 
L 140.113666 186.88497 
L 140.113666 185.836474 
L 140.434959 185.836474 
L 140.498503 182.690988 
L 141.72241 182.690988 
L 141.72241 180.593997 
L 141.84014 180.593997 
L 141.84014 179.545502 
L 141.95707 179.545502 
L 141.95707 179.021254 
L 142.416994 179.021254 
L 142.473629 176.924263 
L 142.530078 176.924263 
L 142.530078 176.400016 
L 142.754037 176.400016 
L 142.809574 172.730281 
L 142.920112 172.730281 
L 142.975116 171.157538 
L 143.408921 171.157538 
L 143.515683 169.060547 
L 143.568817 169.060547 
L 143.621786 168.012052 
L 143.884213 168.012052 
L 143.884213 166.963557 
L 144.698028 166.963557 
L 144.797098 164.342318 
L 145.235981 164.342318 
L 145.284061 160.672584 
L 145.897164 160.672584 
L 145.943432 159.099841 
L 146.035596 159.099841 
L 146.035596 158.575593 
L 146.218456 158.575593 
L 146.309161 157.00285 
L 146.755644 157.00285 
L 146.755644 154.905859 
L 146.974611 154.905859 
L 146.974611 152.808868 
L 147.276552 152.808868 
L 147.276552 152.28462 
L 147.57328 152.28462 
L 147.657127 151.236125 
L 149.215352 151.236125 
L 149.215352 150.711877 
L 149.555732 150.711877 
L 149.555732 150.18763 
L 149.815889 150.18763 
L 149.815889 147.566391 
L 149.962801 147.566391 
L 149.962801 147.042143 
L 150.108469 147.042143 
L 150.108469 145.993648 
L 150.288834 145.993648 
L 150.396151 144.945152 
L 150.608797 144.945152 
L 150.608797 143.372409 
L 150.888293 143.372409 
L 150.888293 142.323914 
L 151.299196 142.323914 
L 151.299196 141.275418 
L 151.601053 141.275418 
L 151.667418 140.226923 
L 151.8977 140.226923 
L 151.8977 139.702675 
L 152.157156 139.702675 
L 152.253451 136.032941 
L 152.539141 136.032941 
L 152.601988 133.411703 
L 153.157504 133.411703 
L 153.157504 131.838959 
L 153.278551 131.838959 
L 153.338757 130.266216 
L 153.488354 130.266216 
L 153.54783 129.217721 
L 153.666169 129.217721 
L 153.725034 125.023739 
L 154.416128 125.023739 
L 154.416128 124.499491 
L 154.528656 124.499491 
L 154.528656 123.450996 
L 154.751526 123.450996 
L 154.834363 118.208519 
L 154.998849 118.208519 
L 154.998849 117.160023 
L 155.403306 117.160023 
L 155.429934 116.111528 
L 155.641489 116.111528 
L 155.720156 112.441794 
L 155.798464 112.441794 
L 155.850472 110.344803 
L 156.108178 110.344803 
L 156.184742 108.247812 
L 156.336855 108.247812 
L 156.387261 106.150821 
L 156.512635 106.150821 
L 156.612279 104.578078 
L 156.661886 104.578078 
L 156.760671 101.956839 
L 156.83439 101.956839 
L 156.83439 101.432592 
L 157.02944 101.432592 
L 157.053666 99.335601 
L 157.341751 99.335601 
L 157.341751 97.762858 
L 157.507597 97.762858 
L 157.531159 95.141619 
L 157.695196 95.141619 
L 157.788234 94.093124 
L 157.903827 94.093124 
L 157.949847 89.899142 
L 158.109956 89.899142 
L 158.109956 89.374894 
L 158.223412 89.374894 
L 158.223412 88.326399 
L 158.381004 88.326399 
L 158.381004 86.753656 
L 158.537164 86.753656 
L 158.537164 85.70516 
L 158.80161 85.70516 
L 158.888862 83.608169 
L 158.932322 83.608169 
L 158.975673 80.986931 
L 159.105074 80.986931 
L 159.147992 77.317197 
L 159.339807 77.317197 
L 159.339807 76.792949 
L 159.592276 76.792949 
L 159.654819 73.123215 
L 159.841091 73.123215 
L 159.841091 71.550472 
L 159.96416 71.550472 
L 159.96416 69.977729 
L 160.147128 69.977729 
L 160.147128 69.453481 
L 160.801823 69.453481 
L 160.801823 68.929233 
L 160.937549 68.929233 
L 160.937549 68.404985 
L 161.110494 68.404985 
L 161.110494 67.880738 
L 161.35727 67.880738 
L 161.35727 66.832242 
L 161.526063 66.832242 
L 161.600554 64.735251 
L 161.748573 64.735251 
L 161.858757 63.686756 
L 161.95004 63.686756 
L 162.004579 62.638261 
L 162.292562 62.638261 
L 162.310402 60.54127 
L 162.802544 60.54127 
L 162.802544 59.492774 
L 163.381799 59.492774 
L 163.381799 57.395783 
L 165.056564 57.395783 
L 165.071755 56.347288 
L 166.060134 56.347288 
L 166.060134 55.298792 
L 166.188675 55.298792 
L 166.188675 54.774545 
L 166.414844 54.774545 
L 166.470924 52.677554 
L 166.582539 52.677554 
L 166.582539 51.629058 
L 167.116518 51.629058 
L 167.116518 51.104811 
L 167.582003 51.104811 
L 167.582003 50.056315 
L 169.362801 50.056315 
L 169.410055 49.00782 
L 169.504175 49.00782 
L 169.504175 48.483572 
L 169.644396 48.483572 
L 169.644396 47.435077 
L 169.783482 47.435077 
L 169.875584 45.338086 
L 170.20538 45.338086 
L 170.20538 44.813838 
L 170.440308 44.813838 
L 170.440308 43.765343 
L 170.595161 43.765343 
L 170.595161 42.716847 
L 170.954746 42.716847 
L 171.019325 40.095609 
L 171.27524 40.095609 
L 171.328079 38.522865 
L 171.734745 38.522865 
L 171.734745 37.47437 
L 171.888628 37.47437 
L 171.898838 35.377379 
L 172.628253 35.377379 
L 172.73553 34.328884 
L 172.948095 34.328884 
L 172.948095 33.804636 
L 173.101054 33.804636 
L 173.101054 33.280388 
L 173.505511 33.280388 
L 173.505511 32.756141 
L 187.603651 32.756141 
L 187.603651 32.231893 
L 188.214867 32.231893 
L 188.214867 31.183397 
L 188.694037 31.183397 
L 188.694037 30.134902 
L 188.843222 30.134902 
L 188.904053 29.086407 
L 188.994898 29.086407 
L 188.994898 28.562159 
L 189.119032 28.562159 
L 189.119032 27.513663 
L 333.168 27.513663 
L 333.168 27.513663 
" style="fill:none;stroke:#ff00ff;stroke-linecap:square;stroke-width:1.5;"/>
   </g>
   <g id="line2d_48">
    <defs>
     <path d="M -0 8.485281 
L 5.091169 0 
L 0 -8.485281 
L -5.091169 -0 
z
" id="m5b10c831a0" style="stroke:#ff00ff;stroke-linejoin:miter;stroke-width:1.5;"/>
    </defs>
    <g>
     <use style="fill-opacity:0;stroke:#ff00ff;stroke-linejoin:miter;stroke-width:1.5;" x="79.948502" xlink:href="#m5b10c831a0" y="258.706907"/>
     <use style="fill-opacity:0;stroke:#ff00ff;stroke-linejoin:miter;stroke-width:1.5;" x="140.498503" xlink:href="#m5b10c831a0" y="184.787979"/>
     <use style="fill-opacity:0;stroke:#ff00ff;stroke-linejoin:miter;stroke-width:1.5;" x="187.603651" xlink:href="#m5b10c831a0" y="32.756141"/>
     <use style="fill-opacity:0;stroke:#ff00ff;stroke-linejoin:miter;stroke-width:1.5;" x="189.119032" xlink:href="#m5b10c831a0" y="28.562159"/>
     <use style="fill-opacity:0;stroke:#ff00ff;stroke-linejoin:miter;stroke-width:1.5;" x="189.119032" xlink:href="#m5b10c831a0" y="27.513663"/>
     <use style="fill-opacity:0;stroke:#ff00ff;stroke-linejoin:miter;stroke-width:1.5;" x="333.168" xlink:href="#m5b10c831a0" y="27.513663"/>
    </g>
   </g>
   <g id="line2d_49">
    <path style="fill:none;stroke:#ff00ff;stroke-linecap:square;stroke-width:1.5;"/>
    <g/>
   </g>
   <g id="line2d_50">
    <defs>
     <path d="M 0 1.5 
C 0.397805 1.5 0.77937 1.341951 1.06066 1.06066 
C 1.341951 0.77937 1.5 0.397805 1.5 0 
C 1.5 -0.397805 1.341951 -0.77937 1.06066 -1.06066 
C 0.77937 -1.341951 0.397805 -1.5 0 -1.5 
C -0.397805 -1.5 -0.77937 -1.341951 -1.06066 -1.06066 
C -1.341951 -0.77937 -1.5 -0.397805 -1.5 0 
C -1.5 0.397805 -1.341951 0.77937 -1.06066 1.06066 
C -0.77937 1.341951 -0.397805 1.5 0 1.5 
z
" id="m38b8908c9a" style="stroke:#ffa500;"/>
    </defs>
    <g>
     <use style="fill:#ffa500;stroke:#ffa500;" x="336.306034" xlink:href="#m38b8908c9a" y="27.513663"/>
     <use style="fill:#ffa500;stroke:#ffa500;" x="336.306034" xlink:href="#m38b8908c9a" y="27.513663"/>
    </g>
   </g>
   <g id="line2d_51">
    <path d="M 44.205749 294.88 
L 44.205749 278.104073 
L 56.12 278.104073 
L 56.12 274.434339 
L 63.08939 274.434339 
L 63.08939 271.288853 
L 68.034251 271.288853 
L 68.034251 269.191862 
L 71.869783 269.191862 
L 71.869783 266.046375 
L 77.653281 266.046375 
L 77.653281 263.425137 
L 79.948502 263.425137 
L 79.948502 260.279651 
L 81.973032 260.279651 
L 81.973032 258.706907 
L 85.422286 258.706907 
L 85.422286 258.18266 
L 90.753425 258.18266 
L 90.753425 257.658412 
L 93.887283 257.658412 
L 93.887283 256.085669 
L 95.698286 256.085669 
L 95.698286 253.988678 
L 97.336537 253.988678 
L 97.336537 252.940182 
L 100.856673 252.940182 
L 100.856673 251.891687 
L 105.317315 251.891687 
L 105.317315 250.843192 
L 106.272485 250.843192 
L 106.272485 247.697705 
L 108.451173 247.697705 
L 108.451173 246.64921 
L 108.85563 246.64921 
L 108.85563 246.124962 
L 109.250788 246.124962 
L 109.250788 243.503724 
L 109.637066 243.503724 
L 109.637066 242.979476 
L 111.448069 242.979476 
L 111.448069 241.93098 
L 111.788449 241.93098 
L 111.788449 237.736999 
L 112.122219 237.736999 
L 112.122219 237.212751 
L 112.449632 237.212751 
L 112.449632 236.688503 
L 113.396034 236.688503 
L 113.396034 234.067265 
L 116.984244 234.067265 
L 116.984244 233.018769 
L 117.952873 233.018769 
L 117.952873 231.446026 
L 118.186736 231.446026 
L 118.186736 230.921778 
L 118.645127 230.921778 
L 118.645127 230.397531 
L 120.15957 230.397531 
L 120.15957 229.873283 
L 122.838768 229.873283 
L 122.838768 229.349035 
L 123.015063 229.349035 
L 123.015063 228.824787 
L 123.533353 228.824787 
L 123.533353 227.776292 
L 123.870396 227.776292 
L 123.870396 226.727797 
L 124.200956 226.727797 
L 124.200956 225.679301 
L 124.843597 225.679301 
L 124.843597 224.630806 
L 125.614517 224.630806 
L 125.614517 224.106558 
L 126.352339 224.106558 
L 126.352339 223.58231 
L 126.780294 223.58231 
L 126.780294 222.533815 
L 127.05979 222.533815 
L 127.05979 222.009567 
L 128.003717 222.009567 
L 128.003717 219.388328 
L 128.773486 219.388328 
L 128.773486 218.864081 
L 129.022601 218.864081 
L 129.022601 214.145851 
L 129.145817 214.145851 
L 129.145817 213.621604 
L 129.748989 213.621604 
L 129.748989 212.573108 
L 130.100987 212.573108 
L 130.100987 212.04886 
L 130.67209 212.04886 
L 130.67209 211.000365 
L 131.865471 211.000365 
L 131.865471 209.95187 
L 132.279675 209.95187 
L 132.381685 208.379126 
L 133.176677 208.379126 
L 133.176677 207.330631 
L 133.36981 207.330631 
L 133.465568 206.282136 
L 133.749684 206.282136 
L 133.749684 205.23364 
L 134.485139 205.23364 
L 134.485139 204.709392 
L 134.841393 204.709392 
L 134.841393 204.185145 
L 135.10382 204.185145 
L 135.190413 202.612401 
L 135.276571 202.612401 
L 135.3623 198.942667 
L 135.701004 198.942667 
L 135.701004 198.41842 
L 135.950722 198.41842 
L 136.033161 196.845677 
L 136.278134 196.845677 
L 136.278134 196.321429 
L 136.599426 196.321429 
L 136.599426 195.272933 
L 138.764847 195.272933 
L 138.764847 194.224438 
L 139.180721 194.224438 
L 139.180721 192.651695 
L 139.786254 192.651695 
L 139.786254 192.127447 
L 140.113666 192.127447 
L 140.178407 190.554704 
L 140.998571 190.554704 
L 140.998571 189.506209 
L 141.303883 189.506209 
L 141.303883 187.933465 
L 141.544287 187.933465 
L 141.603867 186.360722 
L 142.130987 186.360722 
L 142.130987 185.312227 
L 142.360172 185.312227 
L 142.416994 184.263731 
L 142.530078 184.263731 
L 142.530078 183.739484 
L 143.029944 183.739484 
L 143.029944 183.215236 
L 143.779723 183.215236 
L 143.779723 182.690988 
L 144.142694 182.690988 
L 144.142694 180.593997 
L 144.648278 180.593997 
L 144.648278 178.497006 
L 144.797098 178.497006 
L 144.797098 177.448511 
L 144.993542 177.448511 
L 144.993542 175.35152 
L 145.187766 175.35152 
L 145.187766 174.827272 
L 145.663936 174.827272 
L 145.757607 173.254529 
L 146.218456 173.254529 
L 146.263868 172.206034 
L 146.843566 172.206034 
L 146.93104 171.157538 
L 147.233741 171.157538 
L 147.319256 168.012052 
L 147.615255 168.012052 
L 147.615255 166.963557 
L 148.111115 166.963557 
L 148.192385 164.342318 
L 148.353782 164.342318 
L 148.353782 162.769575 
L 148.829074 162.769575 
L 148.829074 161.196832 
L 148.945872 161.196832 
L 149.023298 159.099841 
L 149.061881 159.099841 
L 149.061881 158.575593 
L 150.431775 158.575593 
L 150.431775 158.051345 
L 150.679098 158.051345 
L 150.679098 157.00285 
L 151.733528 157.00285 
L 151.799385 154.381611 
L 152.507631 154.381611 
L 152.507631 153.333116 
L 152.726997 153.333116 
L 152.726997 151.236125 
L 153.004986 151.236125 
L 153.066156 149.139134 
L 154.188837 149.139134 
L 154.188837 148.614886 
L 154.472484 148.614886 
L 154.472484 147.042143 
L 154.889367 147.042143 
L 154.889367 146.517896 
L 156.08258 146.517896 
L 156.08258 145.993648 
L 157.053666 145.993648 
L 157.053666 145.4694 
L 157.222302 145.4694 
L 157.222302 144.945152 
L 157.436716 144.945152 
L 157.531159 143.896657 
L 157.834564 143.896657 
L 157.834564 143.372409 
L 158.155428 143.372409 
L 158.223412 140.751171 
L 158.268586 140.751171 
L 158.268586 139.702675 
L 159.190803 139.702675 
L 159.190803 139.178427 
L 159.550455 139.178427 
L 159.571378 137.605684 
L 159.737856 137.605684 
L 159.737856 136.557189 
L 159.923235 136.557189 
L 159.923235 133.93595 
L 160.58635 133.93595 
L 160.58635 133.411703 
L 161.394923 133.411703 
L 161.394923 131.838959 
L 161.526063 131.838959 
L 161.526063 131.314712 
L 162.238932 131.314712 
L 162.238932 130.266216 
L 162.628392 130.266216 
L 162.628392 129.741969 
L 162.767854 129.741969 
L 162.767854 128.693473 
L 163.094612 128.693473 
L 163.094612 128.169225 
L 163.64778 128.169225 
L 163.64778 126.072235 
L 164.500549 126.072235 
L 164.500549 125.023739 
L 166.484916 125.023739 
L 166.512865 122.4025 
L 166.762382 122.4025 
L 166.762382 120.829757 
L 167.330876 120.829757 
L 167.330876 119.257014 
L 167.777701 119.257014 
L 167.777701 116.635776 
L 169.421848 116.635776 
L 169.492438 115.063032 
L 169.795022 115.063032 
L 169.795022 114.014537 
L 170.069679 114.014537 
L 170.069679 112.966042 
L 170.182837 112.966042 
L 170.182837 112.441794 
L 170.781341 112.441794 
L 170.781341 111.917546 
L 171.169071 111.917546 
L 171.169071 110.344803 
L 220.942067 110.344803 
L 220.989084 109.296308 
L 230.765269 109.296308 
L 230.765269 108.77206 
L 248.584431 108.77206 
L 248.584431 108.247812 
L 277.210931 108.247812 
L 277.210931 105.626573 
L 288.407253 105.626573 
L 288.415419 97.23861 
L 293.593212 97.23861 
L 293.616156 78.365692 
L 303.107347 78.365692 
L 303.117811 73.123215 
L 305.505882 73.123215 
L 305.516616 59.492774 
L 310.913331 59.492774 
L 310.919077 55.82304 
L 312.475687 55.82304 
L 312.485441 43.241095 
L 316.264989 43.241095 
L 316.269327 42.192599 
L 317.419892 42.192599 
L 317.428357 39.571361 
L 320.337382 39.571361 
L 320.339949 37.47437 
L 321.255524 37.47437 
L 321.25737 35.901627 
L 324.38871 35.901627 
L 324.394086 32.756141 
L 326.389209 32.756141 
L 326.389209 32.231893 
L 327.039676 32.231893 
L 327.040934 31.183397 
L 329.334566 31.183397 
L 329.337334 29.086407 
L 333.168 29.086407 
L 333.168 29.086407 
" style="fill:none;stroke:#ffa500;stroke-linecap:square;stroke-width:1.5;"/>
   </g>
   <g id="line2d_52">
    <defs>
     <path d="M 0 -6 
L -1.347084 -1.854102 
L -5.706339 -1.854102 
L -2.179628 0.708204 
L -3.526712 4.854102 
L -0 2.291796 
L 3.526712 4.854102 
L 2.179628 0.708204 
L 5.706339 -1.854102 
L 1.347084 -1.854102 
z
" id="m47680d03e9" style="stroke:#ffa500;stroke-linejoin:bevel;stroke-width:1.5;"/>
    </defs>
    <g>
     <use style="fill-opacity:0;stroke:#ffa500;stroke-linejoin:bevel;stroke-width:1.5;" x="140.178407" xlink:href="#m47680d03e9" y="191.078952"/>
     <use style="fill-opacity:0;stroke:#ffa500;stroke-linejoin:bevel;stroke-width:1.5;" x="171.169071" xlink:href="#m47680d03e9" y="111.917546"/>
     <use style="fill-opacity:0;stroke:#ffa500;stroke-linejoin:bevel;stroke-width:1.5;" x="248.584431" xlink:href="#m47680d03e9" y="108.77206"/>
     <use style="fill-opacity:0;stroke:#ffa500;stroke-linejoin:bevel;stroke-width:1.5;" x="327.040934" xlink:href="#m47680d03e9" y="31.183397"/>
     <use style="fill-opacity:0;stroke:#ffa500;stroke-linejoin:bevel;stroke-width:1.5;" x="329.337334" xlink:href="#m47680d03e9" y="29.086407"/>
     <use style="fill-opacity:0;stroke:#ffa500;stroke-linejoin:bevel;stroke-width:1.5;" x="333.168" xlink:href="#m47680d03e9" y="29.086407"/>
    </g>
   </g>
   <g id="line2d_53">
    <path style="fill:none;stroke:#ffa500;stroke-linecap:square;stroke-width:1.5;"/>
    <g/>
   </g>
   <g id="line2d_54">
    <path clip-path="url(#pe691d520b7)" d="M 293.590006 97.23861 
" style="fill:none;stroke:#ffa500;stroke-linecap:square;stroke-width:1.5;"/>
    <defs>
     <path d="M -12 12 
L 12 -12 
M -12 -12 
L 12 12 
" id="m28792154fd" style="stroke:#ffa500;"/>
    </defs>
    <g clip-path="url(#pe691d520b7)">
     <use style="fill:#ffa500;stroke:#ffa500;" x="293.590006" xlink:href="#m28792154fd" y="97.23861"/>
    </g>
   </g>
   <g id="line2d_55">
    <path d="M 333.168 29.086407 
L 363.64328 289.532673 
" style="fill:none;stroke:#ffa500;stroke-linecap:square;stroke-width:1.5;"/>
    <g>
     <use style="fill-opacity:0;stroke:#ffa500;stroke-linejoin:bevel;stroke-width:1.5;" x="333.168" xlink:href="#m47680d03e9" y="29.086407"/>
     <use style="fill-opacity:0;stroke:#ffa500;stroke-linejoin:bevel;stroke-width:1.5;" x="363.64328" xlink:href="#m47680d03e9" y="289.532673"/>
    </g>
   </g>
   <g id="line2d_56">
    <path d="M 333.168 27.513663 
L 363.64328 203.975446 
" style="fill:none;stroke:#ff00ff;stroke-linecap:square;stroke-width:1.5;"/>
    <g>
     <use style="fill-opacity:0;stroke:#ff00ff;stroke-linejoin:miter;stroke-width:1.5;" x="333.168" xlink:href="#m5b10c831a0" y="27.513663"/>
     <use style="fill-opacity:0;stroke:#ff00ff;stroke-linejoin:miter;stroke-width:1.5;" x="363.64328" xlink:href="#m5b10c831a0" y="203.975446"/>
    </g>
   </g>
   <g id="line2d_57">
    <path d="M 333.168 27.513663 
L 363.64328 118.418218 
" style="fill:none;stroke:#000080;stroke-linecap:square;stroke-width:1.5;"/>
    <g>
     <use style="fill-opacity:0;stroke:#000080;stroke-width:1.5;" x="333.168" xlink:href="#m775b9929fa" y="27.513663"/>
     <use style="fill-opacity:0;stroke:#000080;stroke-width:1.5;" x="363.64328" xlink:href="#m775b9929fa" y="118.418218"/>
    </g>
   </g>
   <g id="line2d_58">
    <path d="M 333.168 294.88 
L 333.168 27.513663 
" style="fill:none;stroke:#000000;stroke-linecap:square;stroke-width:1.5;"/>
   </g>
   <g id="patch_3">
    <path d="M 56.12 294.88 
L 56.12 24.84 
" style="fill:none;stroke:#000000;stroke-linecap:square;stroke-linejoin:miter;stroke-width:0.8;"/>
   </g>
   <g id="patch_4">
    <path d="M 333.168 294.88 
L 333.168 24.84 
" style="fill:none;stroke:#000000;stroke-linecap:square;stroke-linejoin:miter;stroke-width:0.8;"/>
   </g>
   <g id="patch_5">
    <path d="M 56.12 294.88 
L 333.168 294.88 
" style="fill:none;stroke:#000000;stroke-linecap:square;stroke-linejoin:miter;stroke-width:0.8;"/>
   </g>
   <g id="patch_6">
    <path d="M 56.12 24.84 
L 333.168 24.84 
" style="fill:none;stroke:#000000;stroke-linecap:square;stroke-linejoin:miter;stroke-width:0.8;"/>
   </g>
   <g id="text_13">
    <!-- KL-BIPOP- -->
    <defs>
     <path d="M 9.8125 72.90625 
L 19.671875 72.90625 
L 19.671875 42.09375 
L 52.390625 72.90625 
L 65.09375 72.90625 
L 28.90625 38.921875 
L 67.671875 0 
L 54.6875 0 
L 19.671875 35.109375 
L 19.671875 0 
L 9.8125 0 
z
" id="DejaVuSans-4b"/>
     <path d="M 9.8125 72.90625 
L 19.671875 72.90625 
L 19.671875 8.296875 
L 55.171875 8.296875 
L 55.171875 0 
L 9.8125 0 
z
" id="DejaVuSans-4c"/>
     <path d="M 19.671875 34.8125 
L 19.671875 8.109375 
L 35.5 8.109375 
Q 43.453125 8.109375 47.28125 11.40625 
Q 51.125 14.703125 51.125 21.484375 
Q 51.125 28.328125 47.28125 31.5625 
Q 43.453125 34.8125 35.5 34.8125 
z
M 19.671875 64.796875 
L 19.671875 42.828125 
L 34.28125 42.828125 
Q 41.5 42.828125 45.03125 45.53125 
Q 48.578125 48.25 48.578125 53.8125 
Q 48.578125 59.328125 45.03125 62.0625 
Q 41.5 64.796875 34.28125 64.796875 
z
M 9.8125 72.90625 
L 35.015625 72.90625 
Q 46.296875 72.90625 52.390625 68.21875 
Q 58.5 63.53125 58.5 54.890625 
Q 58.5 48.1875 55.375 44.234375 
Q 52.25 40.28125 46.1875 39.3125 
Q 53.46875 37.75 57.5 32.78125 
Q 61.53125 27.828125 61.53125 20.40625 
Q 61.53125 10.640625 54.890625 5.3125 
Q 48.25 0 35.984375 0 
L 9.8125 0 
z
" id="DejaVuSans-42"/>
     <path d="M 9.8125 72.90625 
L 19.671875 72.90625 
L 19.671875 0 
L 9.8125 0 
z
" id="DejaVuSans-49"/>
     <path d="M 19.671875 64.796875 
L 19.671875 37.40625 
L 32.078125 37.40625 
Q 38.96875 37.40625 42.71875 40.96875 
Q 46.484375 44.53125 46.484375 51.125 
Q 46.484375 57.671875 42.71875 61.234375 
Q 38.96875 64.796875 32.078125 64.796875 
z
M 9.8125 72.90625 
L 32.078125 72.90625 
Q 44.34375 72.90625 50.609375 67.359375 
Q 56.890625 61.8125 56.890625 51.125 
Q 56.890625 40.328125 50.609375 34.8125 
Q 44.34375 29.296875 32.078125 29.296875 
L 19.671875 29.296875 
L 19.671875 0 
L 9.8125 0 
z
" id="DejaVuSans-50"/>
     <path d="M 39.40625 66.21875 
Q 28.65625 66.21875 22.328125 58.203125 
Q 16.015625 50.203125 16.015625 36.375 
Q 16.015625 22.609375 22.328125 14.59375 
Q 28.65625 6.59375 39.40625 6.59375 
Q 50.140625 6.59375 56.421875 14.59375 
Q 62.703125 22.609375 62.703125 36.375 
Q 62.703125 50.203125 56.421875 58.203125 
Q 50.140625 66.21875 39.40625 66.21875 
z
M 39.40625 74.21875 
Q 54.734375 74.21875 63.90625 63.9375 
Q 73.09375 53.65625 73.09375 36.375 
Q 73.09375 19.140625 63.90625 8.859375 
Q 54.734375 -1.421875 39.40625 -1.421875 
Q 24.03125 -1.421875 14.8125 8.828125 
Q 5.609375 19.09375 5.609375 36.375 
Q 5.609375 53.65625 14.8125 63.9375 
Q 24.03125 74.21875 39.40625 74.21875 
z
" id="DejaVuSans-4f"/>
    </defs>
    <g transform="translate(369.18424 294.223611)scale(0.17 -0.17)">
     <use xlink:href="#DejaVuSans-4b"/>
     <use x="65.576172" xlink:href="#DejaVuSans-4c"/>
     <use x="121.273438" xlink:href="#DejaVuSans-2d"/>
     <use x="157.310547" xlink:href="#DejaVuSans-42"/>
     <use x="225.914062" xlink:href="#DejaVuSans-49"/>
     <use x="255.40625" xlink:href="#DejaVuSans-50"/>
     <use x="315.708984" xlink:href="#DejaVuSans-4f"/>
     <use x="394.419922" xlink:href="#DejaVuSans-50"/>
     <use x="454.691406" xlink:href="#DejaVuSans-2d"/>
    </g>
   </g>
   <g id="text_14">
    <!-- R-SHADE-T -->
    <defs>
     <path d="M 44.390625 34.1875 
Q 47.5625 33.109375 50.5625 29.59375 
Q 53.5625 26.078125 56.59375 19.921875 
L 66.609375 0 
L 56 0 
L 46.6875 18.703125 
Q 43.0625 26.03125 39.671875 28.421875 
Q 36.28125 30.8125 30.421875 30.8125 
L 19.671875 30.8125 
L 19.671875 0 
L 9.8125 0 
L 9.8125 72.90625 
L 32.078125 72.90625 
Q 44.578125 72.90625 50.734375 67.671875 
Q 56.890625 62.453125 56.890625 51.90625 
Q 56.890625 45.015625 53.6875 40.46875 
Q 50.484375 35.9375 44.390625 34.1875 
z
M 19.671875 64.796875 
L 19.671875 38.921875 
L 32.078125 38.921875 
Q 39.203125 38.921875 42.84375 42.21875 
Q 46.484375 45.515625 46.484375 51.90625 
Q 46.484375 58.296875 42.84375 61.546875 
Q 39.203125 64.796875 32.078125 64.796875 
z
" id="DejaVuSans-52"/>
     <path d="M 53.515625 70.515625 
L 53.515625 60.890625 
Q 47.90625 63.578125 42.921875 64.890625 
Q 37.9375 66.21875 33.296875 66.21875 
Q 25.25 66.21875 20.875 63.09375 
Q 16.5 59.96875 16.5 54.203125 
Q 16.5 49.359375 19.40625 46.890625 
Q 22.3125 44.4375 30.421875 42.921875 
L 36.375 41.703125 
Q 47.40625 39.59375 52.65625 34.296875 
Q 57.90625 29 57.90625 20.125 
Q 57.90625 9.515625 50.796875 4.046875 
Q 43.703125 -1.421875 29.984375 -1.421875 
Q 24.8125 -1.421875 18.96875 -0.25 
Q 13.140625 0.921875 6.890625 3.21875 
L 6.890625 13.375 
Q 12.890625 10.015625 18.65625 8.296875 
Q 24.421875 6.59375 29.984375 6.59375 
Q 38.421875 6.59375 43.015625 9.90625 
Q 47.609375 13.234375 47.609375 19.390625 
Q 47.609375 24.75 44.3125 27.78125 
Q 41.015625 30.8125 33.5 32.328125 
L 27.484375 33.5 
Q 16.453125 35.6875 11.515625 40.375 
Q 6.59375 45.0625 6.59375 53.421875 
Q 6.59375 63.09375 13.40625 68.65625 
Q 20.21875 74.21875 32.171875 74.21875 
Q 37.3125 74.21875 42.625 73.28125 
Q 47.953125 72.359375 53.515625 70.515625 
z
" id="DejaVuSans-53"/>
     <path d="M 9.8125 72.90625 
L 19.671875 72.90625 
L 19.671875 43.015625 
L 55.515625 43.015625 
L 55.515625 72.90625 
L 65.375 72.90625 
L 65.375 0 
L 55.515625 0 
L 55.515625 34.71875 
L 19.671875 34.71875 
L 19.671875 0 
L 9.8125 0 
z
" id="DejaVuSans-48"/>
     <path d="M 34.1875 63.1875 
L 20.796875 26.90625 
L 47.609375 26.90625 
z
M 28.609375 72.90625 
L 39.796875 72.90625 
L 67.578125 0 
L 57.328125 0 
L 50.6875 18.703125 
L 17.828125 18.703125 
L 11.1875 0 
L 0.78125 0 
z
" id="DejaVuSans-41"/>
     <path d="M 19.671875 64.796875 
L 19.671875 8.109375 
L 31.59375 8.109375 
Q 46.6875 8.109375 53.6875 14.9375 
Q 60.6875 21.78125 60.6875 36.53125 
Q 60.6875 51.171875 53.6875 57.984375 
Q 46.6875 64.796875 31.59375 64.796875 
z
M 9.8125 72.90625 
L 30.078125 72.90625 
Q 51.265625 72.90625 61.171875 64.09375 
Q 71.09375 55.28125 71.09375 36.53125 
Q 71.09375 17.671875 61.125 8.828125 
Q 51.171875 0 30.078125 0 
L 9.8125 0 
z
" id="DejaVuSans-44"/>
     <path d="M 9.8125 72.90625 
L 55.90625 72.90625 
L 55.90625 64.59375 
L 19.671875 64.59375 
L 19.671875 43.015625 
L 54.390625 43.015625 
L 54.390625 34.71875 
L 19.671875 34.71875 
L 19.671875 8.296875 
L 56.78125 8.296875 
L 56.78125 0 
L 9.8125 0 
z
" id="DejaVuSans-45"/>
     <path d="M -0.296875 72.90625 
L 61.375 72.90625 
L 61.375 64.59375 
L 35.5 64.59375 
L 35.5 0 
L 25.59375 0 
L 25.59375 64.59375 
L -0.296875 64.59375 
z
" id="DejaVuSans-54"/>
    </defs>
    <g transform="translate(369.18424 208.666383)scale(0.17 -0.17)">
     <use xlink:href="#DejaVuSans-52"/>
     <use x="69.419922" xlink:href="#DejaVuSans-2d"/>
     <use x="105.503906" xlink:href="#DejaVuSans-53"/>
     <use x="168.980469" xlink:href="#DejaVuSans-48"/>
     <use x="244.175781" xlink:href="#DejaVuSans-41"/>
     <use x="312.583984" xlink:href="#DejaVuSans-44"/>
     <use x="389.585938" xlink:href="#DejaVuSans-45"/>
     <use x="452.769531" xlink:href="#DejaVuSans-2d"/>
     <use x="488.712891" xlink:href="#DejaVuSans-54"/>
    </g>
   </g>
   <g id="text_15">
    <!-- SHADE2-BL -->
    <g transform="translate(369.18424 123.109155)scale(0.17 -0.17)">
     <use xlink:href="#DejaVuSans-53"/>
     <use x="63.476562" xlink:href="#DejaVuSans-48"/>
     <use x="138.671875" xlink:href="#DejaVuSans-41"/>
     <use x="207.080078" xlink:href="#DejaVuSans-44"/>
     <use x="284.082031" xlink:href="#DejaVuSans-45"/>
     <use x="347.265625" xlink:href="#DejaVuSans-32"/>
     <use x="410.888672" xlink:href="#DejaVuSans-2d"/>
     <use x="446.925781" xlink:href="#DejaVuSans-42"/>
     <use x="515.529297" xlink:href="#DejaVuSans-4c"/>
    </g>
   </g>
   <g id="text_16">
    <!-- best 2009 -->
    <defs>
     <path d="M 48.6875 27.296875 
Q 48.6875 37.203125 44.609375 42.84375 
Q 40.53125 48.484375 33.40625 48.484375 
Q 26.265625 48.484375 22.1875 42.84375 
Q 18.109375 37.203125 18.109375 27.296875 
Q 18.109375 17.390625 22.1875 11.75 
Q 26.265625 6.109375 33.40625 6.109375 
Q 40.53125 6.109375 44.609375 11.75 
Q 48.6875 17.390625 48.6875 27.296875 
z
M 18.109375 46.390625 
Q 20.953125 51.265625 25.265625 53.625 
Q 29.59375 56 35.59375 56 
Q 45.5625 56 51.78125 48.09375 
Q 58.015625 40.1875 58.015625 27.296875 
Q 58.015625 14.40625 51.78125 6.484375 
Q 45.5625 -1.421875 35.59375 -1.421875 
Q 29.59375 -1.421875 25.265625 0.953125 
Q 20.953125 3.328125 18.109375 8.203125 
L 18.109375 0 
L 9.078125 0 
L 9.078125 75.984375 
L 18.109375 75.984375 
z
" id="DejaVuSans-62"/>
     <path d="M 10.984375 1.515625 
L 10.984375 10.5 
Q 14.703125 8.734375 18.5 7.8125 
Q 22.3125 6.890625 25.984375 6.890625 
Q 35.75 6.890625 40.890625 13.453125 
Q 46.046875 20.015625 46.78125 33.40625 
Q 43.953125 29.203125 39.59375 26.953125 
Q 35.25 24.703125 29.984375 24.703125 
Q 19.046875 24.703125 12.671875 31.3125 
Q 6.296875 37.9375 6.296875 49.421875 
Q 6.296875 60.640625 12.9375 67.421875 
Q 19.578125 74.21875 30.609375 74.21875 
Q 43.265625 74.21875 49.921875 64.515625 
Q 56.59375 54.828125 56.59375 36.375 
Q 56.59375 19.140625 48.40625 8.859375 
Q 40.234375 -1.421875 26.421875 -1.421875 
Q 22.703125 -1.421875 18.890625 -0.6875 
Q 15.09375 0.046875 10.984375 1.515625 
z
M 30.609375 32.421875 
Q 37.25 32.421875 41.125 36.953125 
Q 45.015625 41.5 45.015625 49.421875 
Q 45.015625 57.28125 41.125 61.84375 
Q 37.25 66.40625 30.609375 66.40625 
Q 23.96875 66.40625 20.09375 61.84375 
Q 16.21875 57.28125 16.21875 49.421875 
Q 16.21875 41.5 20.09375 36.953125 
Q 23.96875 32.421875 30.609375 32.421875 
z
" id="DejaVuSans-39"/>
    </defs>
    <g transform="translate(369.18424 37.551928)scale(0.17 -0.17)">
     <use xlink:href="#DejaVuSans-62"/>
     <use x="63.476562" xlink:href="#DejaVuSans-65"/>
     <use x="125" xlink:href="#DejaVuSans-73"/>
     <use x="177.099609" xlink:href="#DejaVuSans-74"/>
     <use x="216.308594" xlink:href="#DejaVuSans-20"/>
     <use x="248.095703" xlink:href="#DejaVuSans-32"/>
     <use x="311.71875" xlink:href="#DejaVuSans-30"/>
     <use x="375.341797" xlink:href="#DejaVuSans-30"/>
     <use x="438.964844" xlink:href="#DejaVuSans-39"/>
    </g>
   </g>
   <g id="text_17">
    <!-- bbob f17, 2-D -->
    <defs>
     <path d="M 8.203125 72.90625 
L 55.078125 72.90625 
L 55.078125 68.703125 
L 28.609375 0 
L 18.3125 0 
L 43.21875 64.59375 
L 8.203125 64.59375 
z
" id="DejaVuSans-37"/>
    </defs>
    <g transform="translate(58.89048 35.290806)scale(0.102 -0.102)">
     <use xlink:href="#DejaVuSans-62"/>
     <use x="63.476562" xlink:href="#DejaVuSans-62"/>
     <use x="126.953125" xlink:href="#DejaVuSans-6f"/>
     <use x="188.134766" xlink:href="#DejaVuSans-62"/>
     <use x="251.611328" xlink:href="#DejaVuSans-20"/>
     <use x="283.398438" xlink:href="#DejaVuSans-66"/>
     <use x="318.603516" xlink:href="#DejaVuSans-31"/>
     <use x="382.226562" xlink:href="#DejaVuSans-37"/>
     <use x="445.849609" xlink:href="#DejaVuSans-2c"/>
     <use x="477.636719" xlink:href="#DejaVuSans-20"/>
     <use x="509.423828" xlink:href="#DejaVuSans-32"/>
     <use x="573.046875" xlink:href="#DejaVuSans-2d"/>
     <use x="609.130859" xlink:href="#DejaVuSans-44"/>
    </g>
    <!-- 51 targets: 100..1e-08 -->
    <defs>
     <path d="M 10.796875 72.90625 
L 49.515625 72.90625 
L 49.515625 64.59375 
L 19.828125 64.59375 
L 19.828125 46.734375 
Q 21.96875 47.46875 24.109375 47.828125 
Q 26.265625 48.1875 28.421875 48.1875 
Q 40.625 48.1875 47.75 41.5 
Q 54.890625 34.8125 54.890625 23.390625 
Q 54.890625 11.625 47.5625 5.09375 
Q 40.234375 -1.421875 26.90625 -1.421875 
Q 22.3125 -1.421875 17.546875 -0.640625 
Q 12.796875 0.140625 7.71875 1.703125 
L 7.71875 11.625 
Q 12.109375 9.234375 16.796875 8.0625 
Q 21.484375 6.890625 26.703125 6.890625 
Q 35.15625 6.890625 40.078125 11.328125 
Q 45.015625 15.765625 45.015625 23.390625 
Q 45.015625 31 40.078125 35.4375 
Q 35.15625 39.890625 26.703125 39.890625 
Q 22.75 39.890625 18.8125 39.015625 
Q 14.890625 38.140625 10.796875 36.28125 
z
" id="DejaVuSans-35"/>
     <path d="M 11.71875 12.40625 
L 22.015625 12.40625 
L 22.015625 0 
L 11.71875 0 
z
M 11.71875 51.703125 
L 22.015625 51.703125 
L 22.015625 39.3125 
L 11.71875 39.3125 
z
" id="DejaVuSans-3a"/>
    </defs>
    <g transform="translate(58.89048 46.712575)scale(0.102 -0.102)">
     <use xlink:href="#DejaVuSans-35"/>
     <use x="63.623047" xlink:href="#DejaVuSans-31"/>
     <use x="127.246094" xlink:href="#DejaVuSans-20"/>
     <use x="159.033203" xlink:href="#DejaVuSans-74"/>
     <use x="198.242188" xlink:href="#DejaVuSans-61"/>
     <use x="259.521484" xlink:href="#DejaVuSans-72"/>
     <use x="300.619141" xlink:href="#DejaVuSans-67"/>
     <use x="364.095703" xlink:href="#DejaVuSans-65"/>
     <use x="425.619141" xlink:href="#DejaVuSans-74"/>
     <use x="464.828125" xlink:href="#DejaVuSans-73"/>
     <use x="516.927734" xlink:href="#DejaVuSans-3a"/>
     <use x="550.619141" xlink:href="#DejaVuSans-20"/>
     <use x="582.40625" xlink:href="#DejaVuSans-31"/>
     <use x="646.029297" xlink:href="#DejaVuSans-30"/>
     <use x="709.652344" xlink:href="#DejaVuSans-30"/>
     <use x="773.275391" xlink:href="#DejaVuSans-2e"/>
     <use x="805.0625" xlink:href="#DejaVuSans-2e"/>
     <use x="836.849609" xlink:href="#DejaVuSans-31"/>
     <use x="900.472656" xlink:href="#DejaVuSans-65"/>
     <use x="961.996094" xlink:href="#DejaVuSans-2d"/>
     <use x="998.080078" xlink:href="#DejaVuSans-30"/>
     <use x="1061.703125" xlink:href="#DejaVuSans-38"/>
    </g>
    <!-- 15 instances -->
    <g transform="translate(58.89048 58.134344)scale(0.102 -0.102)">
     <use xlink:href="#DejaVuSans-31"/>
     <use x="63.623047" xlink:href="#DejaVuSans-35"/>
     <use x="127.246094" xlink:href="#DejaVuSans-20"/>
     <use x="159.033203" xlink:href="#DejaVuSans-69"/>
     <use x="186.816406" xlink:href="#DejaVuSans-6e"/>
     <use x="250.195312" xlink:href="#DejaVuSans-73"/>
     <use x="302.294922" xlink:href="#DejaVuSans-74"/>
     <use x="341.503906" xlink:href="#DejaVuSans-61"/>
     <use x="402.783203" xlink:href="#DejaVuSans-6e"/>
     <use x="466.162109" xlink:href="#DejaVuSans-63"/>
     <use x="521.142578" xlink:href="#DejaVuSans-65"/>
     <use x="582.666016" xlink:href="#DejaVuSans-73"/>
    </g>
   </g>
   <g id="text_18">
    <!-- v0.0.0 -->
    <g style="fill:#808080;" transform="translate(178.96275 290.099912)scale(0.1 -0.1)">
     <use xlink:href="#DejaVuSans-76"/>
     <use x="59.179688" xlink:href="#DejaVuSans-30"/>
     <use x="122.802734" xlink:href="#DejaVuSans-2e"/>
     <use x="154.589844" xlink:href="#DejaVuSans-30"/>
     <use x="218.212891" xlink:href="#DejaVuSans-2e"/>
     <use x="250" xlink:href="#DejaVuSans-30"/>
    </g>
   </g>
   <g id="text_19">
    <!-- 17 Schaffer F7, condition 10 -->
    <defs>
     <path d="M 54.890625 33.015625 
L 54.890625 0 
L 45.90625 0 
L 45.90625 32.71875 
Q 45.90625 40.484375 42.875 44.328125 
Q 39.84375 48.1875 33.796875 48.1875 
Q 26.515625 48.1875 22.3125 43.546875 
Q 18.109375 38.921875 18.109375 30.90625 
L 18.109375 0 
L 9.078125 0 
L 9.078125 75.984375 
L 18.109375 75.984375 
L 18.109375 46.1875 
Q 21.34375 51.125 25.703125 53.5625 
Q 30.078125 56 35.796875 56 
Q 45.21875 56 50.046875 50.171875 
Q 54.890625 44.34375 54.890625 33.015625 
z
" id="DejaVuSans-68"/>
    </defs>
    <g transform="translate(53.336187 18.84)scale(0.2 -0.2)">
     <use xlink:href="#DejaVuSans-31"/>
     <use x="63.623047" xlink:href="#DejaVuSans-37"/>
     <use x="127.246094" xlink:href="#DejaVuSans-20"/>
     <use x="159.033203" xlink:href="#DejaVuSans-53"/>
     <use x="222.509766" xlink:href="#DejaVuSans-63"/>
     <use x="277.490234" xlink:href="#DejaVuSans-68"/>
     <use x="340.869141" xlink:href="#DejaVuSans-61"/>
     <use x="402.148438" xlink:href="#DejaVuSans-66"/>
     <use x="437.353516" xlink:href="#DejaVuSans-66"/>
     <use x="472.558594" xlink:href="#DejaVuSans-65"/>
     <use x="534.082031" xlink:href="#DejaVuSans-72"/>
     <use x="575.195312" xlink:href="#DejaVuSans-20"/>
     <use x="606.982422" xlink:href="#DejaVuSans-46"/>
     <use x="664.501953" xlink:href="#DejaVuSans-37"/>
     <use x="728.125" xlink:href="#DejaVuSans-2c"/>
     <use x="759.912109" xlink:href="#DejaVuSans-20"/>
     <use x="791.699219" xlink:href="#DejaVuSans-63"/>
     <use x="846.679688" xlink:href="#DejaVuSans-6f"/>
     <use x="907.861328" xlink:href="#DejaVuSans-6e"/>
     <use x="971.240234" xlink:href="#DejaVuSans-64"/>
     <use x="1034.716797" xlink:href="#DejaVuSans-69"/>
     <use x="1062.5" xlink:href="#DejaVuSans-74"/>
     <use x="1101.708984" xlink:href="#DejaVuSans-69"/>
     <use x="1129.492188" xlink:href="#DejaVuSans-6f"/>
     <use x="1190.673828" xlink:href="#DejaVuSans-6e"/>
     <use x="1254.052734" xlink:href="#DejaVuSans-20"/>
     <use x="1285.839844" xlink:href="#DejaVuSans-31"/>
     <use x="1349.462891" xlink:href="#DejaVuSans-30"/>
    </g>
   </g>
  </g>
 </g>
 <defs>
  <clipPath id="pe691d520b7">
   <rect height="270.04" width="277.048" x="56.12" y="24.84"/>
  </clipPath>
 </defs>
</svg>
