<?xml version="1.0" encoding="utf-8" standalone="no"?>
<!DOCTYPE svg PUBLIC "-//W3C//DTD SVG 1.1//EN"
  "http://www.w3.org/Graphics/SVG/1.1/DTD/svg11.dtd">
<!-- Created with matplotlib (http://matplotlib.org/) -->
<svg height="345.6pt" version="1.1" viewBox="0 0 460.8 345.6" width="460.8pt" xmlns="http://www.w3.org/2000/svg" xmlns:xlink="http://www.w3.org/1999/xlink">
 <defs>
  <style type="text/css">
*{stroke-linecap:butt;stroke-linejoin:round;}
  </style>
 </defs>
 <g id="figure_1">
  <g id="patch_1">
   <path d="M 0 345.6 
L 460.8 345.6 
L 460.8 0 
L 0 0 
z
" style="fill:#ffffff;"/>
  </g>
  <g id="axes_1">
   <g id="patch_2">
    <path d="M 56.12 294.88 
L 333.168 294.88 
L 333.168 24.84 
L 56.12 24.84 
z
" style="fill:#ffffff;"/>
   </g>
   <g id="line2d_1">
    <path d="M 70.436568 294.88 
L 70.436568 289.637523 
L 109.014785 289.637523 
L 109.014785 284.395046 
L 111.030511 284.395046 
L 111.030511 279.152568 
L 111.72091 279.152568 
L 111.72091 273.910091 
L 111.989488 273.910091 
L 111.989488 268.667614 
L 112.514373 268.667614 
L 112.514373 263.425137 
L 116.73331 263.425137 
L 116.73331 258.18266 
L 121.12593 258.18266 
L 121.12593 252.940182 
L 128.520707 252.940182 
L 128.520707 247.697705 
L 131.376461 247.697705 
L 131.376461 242.455228 
L 135.967241 242.455228 
L 135.967241 237.212751 
L 140.675186 237.212751 
L 140.675186 231.970274 
L 144.091308 231.970274 
L 144.091308 226.727797 
L 146.43535 226.727797 
L 146.43535 221.485319 
L 151.067558 221.485319 
L 151.067558 216.242842 
L 151.713722 216.242842 
L 151.713722 211.000365 
L 152.208581 211.000365 
L 152.208581 205.757888 
L 152.576877 205.757888 
L 152.576877 200.515411 
L 152.986593 200.515411 
L 152.986593 195.272933 
L 153.589342 195.272933 
L 153.589342 190.030456 
L 153.894612 190.030456 
L 153.894612 184.787979 
L 154.376568 184.787979 
L 154.376568 179.545502 
L 154.916803 179.545502 
L 154.916803 174.303025 
L 155.204963 174.303025 
L 155.204963 169.060547 
L 155.525456 169.060547 
L 155.525456 163.81807 
L 155.995263 163.81807 
L 155.995263 158.575593 
L 156.432501 158.575593 
L 156.432501 153.333116 
L 156.951685 153.333116 
L 156.951685 148.090639 
L 157.336989 148.090639 
L 157.336989 142.848162 
L 157.662514 142.848162 
L 157.662514 137.605684 
L 157.972811 137.605684 
L 157.972811 132.363207 
L 158.407875 132.363207 
L 158.407875 127.12073 
L 158.661078 127.12073 
L 158.661078 121.878253 
L 158.914951 121.878253 
L 158.914951 116.635776 
L 159.25482 116.635776 
L 159.25482 111.393298 
L 159.495934 111.393298 
L 159.495934 106.150821 
L 159.746137 106.150821 
L 159.746137 100.908344 
L 160.183489 100.908344 
L 160.183489 95.665867 
L 160.372134 95.665867 
L 160.372134 90.42339 
L 160.649313 90.42339 
L 160.649313 85.180912 
L 160.922092 85.180912 
L 160.922092 79.938435 
L 161.258984 79.938435 
L 161.258984 74.695958 
L 161.548444 74.695958 
L 161.548444 69.453481 
L 161.811097 69.453481 
L 161.811097 64.211004 
L 162.037219 64.211004 
L 162.037219 58.968526 
L 162.392228 58.968526 
L 162.392228 53.726049 
L 162.65288 53.726049 
L 162.65288 48.483572 
L 162.847536 48.483572 
L 162.847536 43.241095 
L 163.060507 43.241095 
L 163.060507 37.998618 
L 163.311292 37.998618 
L 163.311292 32.756141 
L 163.591602 32.756141 
L 163.591602 27.513663 
L 333.168 27.513663 
" style="fill:none;stroke:#f5deb3;stroke-linecap:square;stroke-width:4;"/>
   </g>
   <g id="line2d_2">
    <defs>
     <path d="M -0 7.778175 
L 7.778175 0 
L 0 -7.778175 
L -7.778175 -0 
z
" id="md1c4584fc1" style="stroke:#f5deb3;stroke-linejoin:miter;stroke-width:1.5;"/>
    </defs>
    <g>
     <use style="fill:#f5deb3;stroke:#f5deb3;stroke-linejoin:miter;stroke-width:1.5;" x="144.091308" xlink:href="#md1c4584fc1" y="226.727797"/>
     <use style="fill:#f5deb3;stroke:#f5deb3;stroke-linejoin:miter;stroke-width:1.5;" x="159.25482" xlink:href="#md1c4584fc1" y="116.635776"/>
     <use style="fill:#f5deb3;stroke:#f5deb3;stroke-linejoin:miter;stroke-width:1.5;" x="163.591602" xlink:href="#md1c4584fc1" y="27.513663"/>
     <use style="fill:#f5deb3;stroke:#f5deb3;stroke-linejoin:miter;stroke-width:1.5;" x="163.591602" xlink:href="#md1c4584fc1" y="27.513663"/>
     <use style="fill:#f5deb3;stroke:#f5deb3;stroke-linejoin:miter;stroke-width:1.5;" x="333.168" xlink:href="#md1c4584fc1" y="27.513663"/>
    </g>
   </g>
   <g id="line2d_3">
    <path style="fill:none;stroke:#f5deb3;stroke-linecap:square;stroke-width:4;"/>
    <g/>
   </g>
   <g id="line2d_4">
    <path d="M 333.168 27.513663 
L 363.64328 32.86099 
" style="fill:none;stroke:#f5deb3;stroke-linecap:square;stroke-width:4;"/>
    <g>
     <use style="fill:#f5deb3;stroke:#f5deb3;stroke-linejoin:miter;stroke-width:1.5;" x="333.168" xlink:href="#md1c4584fc1" y="27.513663"/>
     <use style="fill:#f5deb3;stroke:#f5deb3;stroke-linejoin:miter;stroke-width:1.5;" x="363.64328" xlink:href="#md1c4584fc1" y="32.86099"/>
    </g>
   </g>
   <g id="matplotlib.axis_1">
    <g id="xtick_1">
     <g id="line2d_5">
      <path clip-path="url(#p9845ba8e5e)" d="M 56.12 294.88 
L 56.12 24.84 
" style="fill:none;stroke:#b0b0b0;stroke-linecap:square;stroke-width:0.8;"/>
     </g>
     <g id="line2d_6">
      <defs>
       <path d="M 0 0 
L 0 3.5 
" id="m804ec35892" style="stroke:#000000;stroke-width:0.8;"/>
      </defs>
      <g>
       <use style="stroke:#000000;stroke-width:0.8;" x="56.12" xlink:href="#m804ec35892" y="294.88"/>
      </g>
     </g>
     <g id="text_1">
      <!-- 0 -->
      <defs>
       <path d="M 31.78125 66.40625 
Q 24.171875 66.40625 20.328125 58.90625 
Q 16.5 51.421875 16.5 36.375 
Q 16.5 21.390625 20.328125 13.890625 
Q 24.171875 6.390625 31.78125 6.390625 
Q 39.453125 6.390625 43.28125 13.890625 
Q 47.125 21.390625 47.125 36.375 
Q 47.125 51.421875 43.28125 58.90625 
Q 39.453125 66.40625 31.78125 66.40625 
z
M 31.78125 74.21875 
Q 44.046875 74.21875 50.515625 64.515625 
Q 56.984375 54.828125 56.984375 36.375 
Q 56.984375 17.96875 50.515625 8.265625 
Q 44.046875 -1.421875 31.78125 -1.421875 
Q 19.53125 -1.421875 13.0625 8.265625 
Q 6.59375 17.96875 6.59375 36.375 
Q 6.59375 54.828125 13.0625 64.515625 
Q 19.53125 74.21875 31.78125 74.21875 
z
" id="DejaVuSans-30"/>
      </defs>
      <g transform="translate(49.7575 317.076875)scale(0.2 -0.2)">
       <use xlink:href="#DejaVuSans-30"/>
      </g>
     </g>
    </g>
    <g id="xtick_2">
     <g id="line2d_7">
      <path clip-path="url(#p9845ba8e5e)" d="M 135.276571 294.88 
L 135.276571 24.84 
" style="fill:none;stroke:#b0b0b0;stroke-linecap:square;stroke-width:0.8;"/>
     </g>
     <g id="line2d_8">
      <g>
       <use style="stroke:#000000;stroke-width:0.8;" x="135.276571" xlink:href="#m804ec35892" y="294.88"/>
      </g>
     </g>
     <g id="text_2">
      <!-- 2 -->
      <defs>
       <path d="M 19.1875 8.296875 
L 53.609375 8.296875 
L 53.609375 0 
L 7.328125 0 
L 7.328125 8.296875 
Q 12.9375 14.109375 22.625 23.890625 
Q 32.328125 33.6875 34.8125 36.53125 
Q 39.546875 41.84375 41.421875 45.53125 
Q 43.3125 49.21875 43.3125 52.78125 
Q 43.3125 58.59375 39.234375 62.25 
Q 35.15625 65.921875 28.609375 65.921875 
Q 23.96875 65.921875 18.8125 64.3125 
Q 13.671875 62.703125 7.8125 59.421875 
L 7.8125 69.390625 
Q 13.765625 71.78125 18.9375 73 
Q 24.125 74.21875 28.421875 74.21875 
Q 39.75 74.21875 46.484375 68.546875 
Q 53.21875 62.890625 53.21875 53.421875 
Q 53.21875 48.921875 51.53125 44.890625 
Q 49.859375 40.875 45.40625 35.40625 
Q 44.1875 33.984375 37.640625 27.21875 
Q 31.109375 20.453125 19.1875 8.296875 
z
" id="DejaVuSans-32"/>
      </defs>
      <g transform="translate(128.914071 317.076875)scale(0.2 -0.2)">
       <use xlink:href="#DejaVuSans-32"/>
      </g>
     </g>
    </g>
    <g id="xtick_3">
     <g id="line2d_9">
      <path clip-path="url(#p9845ba8e5e)" d="M 214.433143 294.88 
L 214.433143 24.84 
" style="fill:none;stroke:#b0b0b0;stroke-linecap:square;stroke-width:0.8;"/>
     </g>
     <g id="line2d_10">
      <g>
       <use style="stroke:#000000;stroke-width:0.8;" x="214.433143" xlink:href="#m804ec35892" y="294.88"/>
      </g>
     </g>
     <g id="text_3">
      <!-- 4 -->
      <defs>
       <path d="M 37.796875 64.3125 
L 12.890625 25.390625 
L 37.796875 25.390625 
z
M 35.203125 72.90625 
L 47.609375 72.90625 
L 47.609375 25.390625 
L 58.015625 25.390625 
L 58.015625 17.1875 
L 47.609375 17.1875 
L 47.609375 0 
L 37.796875 0 
L 37.796875 17.1875 
L 4.890625 17.1875 
L 4.890625 26.703125 
z
" id="DejaVuSans-34"/>
      </defs>
      <g transform="translate(208.070643 317.076875)scale(0.2 -0.2)">
       <use xlink:href="#DejaVuSans-34"/>
      </g>
     </g>
    </g>
    <g id="xtick_4">
     <g id="line2d_11">
      <path clip-path="url(#p9845ba8e5e)" d="M 293.589714 294.88 
L 293.589714 24.84 
" style="fill:none;stroke:#b0b0b0;stroke-linecap:square;stroke-width:0.8;"/>
     </g>
     <g id="line2d_12">
      <g>
       <use style="stroke:#000000;stroke-width:0.8;" x="293.589714" xlink:href="#m804ec35892" y="294.88"/>
      </g>
     </g>
     <g id="text_4">
      <!-- 6 -->
      <defs>
       <path d="M 33.015625 40.375 
Q 26.375 40.375 22.484375 35.828125 
Q 18.609375 31.296875 18.609375 23.390625 
Q 18.609375 15.53125 22.484375 10.953125 
Q 26.375 6.390625 33.015625 6.390625 
Q 39.65625 6.390625 43.53125 10.953125 
Q 47.40625 15.53125 47.40625 23.390625 
Q 47.40625 31.296875 43.53125 35.828125 
Q 39.65625 40.375 33.015625 40.375 
z
M 52.59375 71.296875 
L 52.59375 62.3125 
Q 48.875 64.0625 45.09375 64.984375 
Q 41.3125 65.921875 37.59375 65.921875 
Q 27.828125 65.921875 22.671875 59.328125 
Q 17.53125 52.734375 16.796875 39.40625 
Q 19.671875 43.65625 24.015625 45.921875 
Q 28.375 48.1875 33.59375 48.1875 
Q 44.578125 48.1875 50.953125 41.515625 
Q 57.328125 34.859375 57.328125 23.390625 
Q 57.328125 12.15625 50.6875 5.359375 
Q 44.046875 -1.421875 33.015625 -1.421875 
Q 20.359375 -1.421875 13.671875 8.265625 
Q 6.984375 17.96875 6.984375 36.375 
Q 6.984375 53.65625 15.1875 63.9375 
Q 23.390625 74.21875 37.203125 74.21875 
Q 40.921875 74.21875 44.703125 73.484375 
Q 48.484375 72.75 52.59375 71.296875 
z
" id="DejaVuSans-36"/>
      </defs>
      <g transform="translate(287.227214 317.076875)scale(0.2 -0.2)">
       <use xlink:href="#DejaVuSans-36"/>
      </g>
     </g>
    </g>
    <g id="xtick_5">
     <g id="line2d_13">
      <path clip-path="url(#p9845ba8e5e)" d="M 56.12 294.88 
L 56.12 24.84 
" style="fill:none;stroke:#b0b0b0;stroke-linecap:square;stroke-width:0.8;"/>
     </g>
     <g id="line2d_14">
      <defs>
       <path d="M 0 0 
L 0 2 
" id="mc3d0372e45" style="stroke:#000000;stroke-width:0.6;"/>
      </defs>
      <g>
       <use style="stroke:#000000;stroke-width:0.6;" x="56.12" xlink:href="#mc3d0372e45" y="294.88"/>
      </g>
     </g>
    </g>
    <g id="xtick_6">
     <g id="line2d_15">
      <path clip-path="url(#p9845ba8e5e)" d="M 95.698286 294.88 
L 95.698286 24.84 
" style="fill:none;stroke:#b0b0b0;stroke-linecap:square;stroke-width:0.8;"/>
     </g>
     <g id="line2d_16">
      <g>
       <use style="stroke:#000000;stroke-width:0.6;" x="95.698286" xlink:href="#mc3d0372e45" y="294.88"/>
      </g>
     </g>
    </g>
    <g id="xtick_7">
     <g id="line2d_17">
      <path clip-path="url(#p9845ba8e5e)" d="M 135.276571 294.88 
L 135.276571 24.84 
" style="fill:none;stroke:#b0b0b0;stroke-linecap:square;stroke-width:0.8;"/>
     </g>
     <g id="line2d_18">
      <g>
       <use style="stroke:#000000;stroke-width:0.6;" x="135.276571" xlink:href="#mc3d0372e45" y="294.88"/>
      </g>
     </g>
    </g>
    <g id="xtick_8">
     <g id="line2d_19">
      <path clip-path="url(#p9845ba8e5e)" d="M 174.854857 294.88 
L 174.854857 24.84 
" style="fill:none;stroke:#b0b0b0;stroke-linecap:square;stroke-width:0.8;"/>
     </g>
     <g id="line2d_20">
      <g>
       <use style="stroke:#000000;stroke-width:0.6;" x="174.854857" xlink:href="#mc3d0372e45" y="294.88"/>
      </g>
     </g>
    </g>
    <g id="xtick_9">
     <g id="line2d_21">
      <path clip-path="url(#p9845ba8e5e)" d="M 214.433143 294.88 
L 214.433143 24.84 
" style="fill:none;stroke:#b0b0b0;stroke-linecap:square;stroke-width:0.8;"/>
     </g>
     <g id="line2d_22">
      <g>
       <use style="stroke:#000000;stroke-width:0.6;" x="214.433143" xlink:href="#mc3d0372e45" y="294.88"/>
      </g>
     </g>
    </g>
    <g id="xtick_10">
     <g id="line2d_23">
      <path clip-path="url(#p9845ba8e5e)" d="M 254.011429 294.88 
L 254.011429 24.84 
" style="fill:none;stroke:#b0b0b0;stroke-linecap:square;stroke-width:0.8;"/>
     </g>
     <g id="line2d_24">
      <g>
       <use style="stroke:#000000;stroke-width:0.6;" x="254.011429" xlink:href="#mc3d0372e45" y="294.88"/>
      </g>
     </g>
    </g>
    <g id="xtick_11">
     <g id="line2d_25">
      <path clip-path="url(#p9845ba8e5e)" d="M 293.589714 294.88 
L 293.589714 24.84 
" style="fill:none;stroke:#b0b0b0;stroke-linecap:square;stroke-width:0.8;"/>
     </g>
     <g id="line2d_26">
      <g>
       <use style="stroke:#000000;stroke-width:0.6;" x="293.589714" xlink:href="#mc3d0372e45" y="294.88"/>
      </g>
     </g>
    </g>
    <g id="xtick_12">
     <g id="line2d_27">
      <path clip-path="url(#p9845ba8e5e)" d="M 333.168 294.88 
L 333.168 24.84 
" style="fill:none;stroke:#b0b0b0;stroke-linecap:square;stroke-width:0.8;"/>
     </g>
     <g id="line2d_28">
      <g>
       <use style="stroke:#000000;stroke-width:0.6;" x="333.168" xlink:href="#mc3d0372e45" y="294.88"/>
      </g>
     </g>
    </g>
    <g id="text_5">
     <!-- log10(# f-evals / dimension) -->
     <defs>
      <path d="M 9.421875 75.984375 
L 18.40625 75.984375 
L 18.40625 0 
L 9.421875 0 
z
" id="DejaVuSans-6c"/>
      <path d="M 30.609375 48.390625 
Q 23.390625 48.390625 19.1875 42.75 
Q 14.984375 37.109375 14.984375 27.296875 
Q 14.984375 17.484375 19.15625 11.84375 
Q 23.34375 6.203125 30.609375 6.203125 
Q 37.796875 6.203125 41.984375 11.859375 
Q 46.1875 17.53125 46.1875 27.296875 
Q 46.1875 37.015625 41.984375 42.703125 
Q 37.796875 48.390625 30.609375 48.390625 
z
M 30.609375 56 
Q 42.328125 56 49.015625 48.375 
Q 55.71875 40.765625 55.71875 27.296875 
Q 55.71875 13.875 49.015625 6.21875 
Q 42.328125 -1.421875 30.609375 -1.421875 
Q 18.84375 -1.421875 12.171875 6.21875 
Q 5.515625 13.875 5.515625 27.296875 
Q 5.515625 40.765625 12.171875 48.375 
Q 18.84375 56 30.609375 56 
z
" id="DejaVuSans-6f"/>
      <path d="M 45.40625 27.984375 
Q 45.40625 37.75 41.375 43.109375 
Q 37.359375 48.484375 30.078125 48.484375 
Q 22.859375 48.484375 18.828125 43.109375 
Q 14.796875 37.75 14.796875 27.984375 
Q 14.796875 18.265625 18.828125 12.890625 
Q 22.859375 7.515625 30.078125 7.515625 
Q 37.359375 7.515625 41.375 12.890625 
Q 45.40625 18.265625 45.40625 27.984375 
z
M 54.390625 6.78125 
Q 54.390625 -7.171875 48.1875 -13.984375 
Q 42 -20.796875 29.203125 -20.796875 
Q 24.46875 -20.796875 20.265625 -20.09375 
Q 16.0625 -19.390625 12.109375 -17.921875 
L 12.109375 -9.1875 
Q 16.0625 -11.328125 19.921875 -12.34375 
Q 23.78125 -13.375 27.78125 -13.375 
Q 36.625 -13.375 41.015625 -8.765625 
Q 45.40625 -4.15625 45.40625 5.171875 
L 45.40625 9.625 
Q 42.625 4.78125 38.28125 2.390625 
Q 33.9375 0 27.875 0 
Q 17.828125 0 11.671875 7.65625 
Q 5.515625 15.328125 5.515625 27.984375 
Q 5.515625 40.671875 11.671875 48.328125 
Q 17.828125 56 27.875 56 
Q 33.9375 56 38.28125 53.609375 
Q 42.625 51.21875 45.40625 46.390625 
L 45.40625 54.6875 
L 54.390625 54.6875 
z
" id="DejaVuSans-67"/>
      <path d="M 12.40625 8.296875 
L 28.515625 8.296875 
L 28.515625 63.921875 
L 10.984375 60.40625 
L 10.984375 69.390625 
L 28.421875 72.90625 
L 38.28125 72.90625 
L 38.28125 8.296875 
L 54.390625 8.296875 
L 54.390625 0 
L 12.40625 0 
z
" id="DejaVuSans-31"/>
      <path d="M 31 75.875 
Q 24.46875 64.65625 21.28125 53.65625 
Q 18.109375 42.671875 18.109375 31.390625 
Q 18.109375 20.125 21.3125 9.0625 
Q 24.515625 -2 31 -13.1875 
L 23.1875 -13.1875 
Q 15.875 -1.703125 12.234375 9.375 
Q 8.59375 20.453125 8.59375 31.390625 
Q 8.59375 42.28125 12.203125 53.3125 
Q 15.828125 64.359375 23.1875 75.875 
z
" id="DejaVuSans-28"/>
      <path d="M 51.125 44 
L 36.921875 44 
L 32.8125 27.6875 
L 47.125 27.6875 
z
M 43.796875 71.78125 
L 38.71875 51.515625 
L 52.984375 51.515625 
L 58.109375 71.78125 
L 65.921875 71.78125 
L 60.890625 51.515625 
L 76.125 51.515625 
L 76.125 44 
L 58.984375 44 
L 54.984375 27.6875 
L 70.515625 27.6875 
L 70.515625 20.21875 
L 53.078125 20.21875 
L 48 0 
L 40.1875 0 
L 45.21875 20.21875 
L 30.90625 20.21875 
L 25.875 0 
L 18.015625 0 
L 23.09375 20.21875 
L 7.71875 20.21875 
L 7.71875 27.6875 
L 24.90625 27.6875 
L 29 44 
L 13.28125 44 
L 13.28125 51.515625 
L 30.90625 51.515625 
L 35.890625 71.78125 
z
" id="DejaVuSans-23"/>
      <path id="DejaVuSans-20"/>
      <path d="M 37.109375 75.984375 
L 37.109375 68.5 
L 28.515625 68.5 
Q 23.6875 68.5 21.796875 66.546875 
Q 19.921875 64.59375 19.921875 59.515625 
L 19.921875 54.6875 
L 34.71875 54.6875 
L 34.71875 47.703125 
L 19.921875 47.703125 
L 19.921875 0 
L 10.890625 0 
L 10.890625 47.703125 
L 2.296875 47.703125 
L 2.296875 54.6875 
L 10.890625 54.6875 
L 10.890625 58.5 
Q 10.890625 67.625 15.140625 71.796875 
Q 19.390625 75.984375 28.609375 75.984375 
z
" id="DejaVuSans-66"/>
      <path d="M 4.890625 31.390625 
L 31.203125 31.390625 
L 31.203125 23.390625 
L 4.890625 23.390625 
z
" id="DejaVuSans-2d"/>
      <path d="M 56.203125 29.59375 
L 56.203125 25.203125 
L 14.890625 25.203125 
Q 15.484375 15.921875 20.484375 11.0625 
Q 25.484375 6.203125 34.421875 6.203125 
Q 39.59375 6.203125 44.453125 7.46875 
Q 49.3125 8.734375 54.109375 11.28125 
L 54.109375 2.78125 
Q 49.265625 0.734375 44.1875 -0.34375 
Q 39.109375 -1.421875 33.890625 -1.421875 
Q 20.796875 -1.421875 13.15625 6.1875 
Q 5.515625 13.8125 5.515625 26.8125 
Q 5.515625 40.234375 12.765625 48.109375 
Q 20.015625 56 32.328125 56 
Q 43.359375 56 49.78125 48.890625 
Q 56.203125 41.796875 56.203125 29.59375 
z
M 47.21875 32.234375 
Q 47.125 39.59375 43.09375 43.984375 
Q 39.0625 48.390625 32.421875 48.390625 
Q 24.90625 48.390625 20.390625 44.140625 
Q 15.875 39.890625 15.1875 32.171875 
z
" id="DejaVuSans-65"/>
      <path d="M 2.984375 54.6875 
L 12.5 54.6875 
L 29.59375 8.796875 
L 46.6875 54.6875 
L 56.203125 54.6875 
L 35.6875 0 
L 23.484375 0 
z
" id="DejaVuSans-76"/>
      <path d="M 34.28125 27.484375 
Q 23.390625 27.484375 19.1875 25 
Q 14.984375 22.515625 14.984375 16.5 
Q 14.984375 11.71875 18.140625 8.90625 
Q 21.296875 6.109375 26.703125 6.109375 
Q 34.1875 6.109375 38.703125 11.40625 
Q 43.21875 16.703125 43.21875 25.484375 
L 43.21875 27.484375 
z
M 52.203125 31.203125 
L 52.203125 0 
L 43.21875 0 
L 43.21875 8.296875 
Q 40.140625 3.328125 35.546875 0.953125 
Q 30.953125 -1.421875 24.3125 -1.421875 
Q 15.921875 -1.421875 10.953125 3.296875 
Q 6 8.015625 6 15.921875 
Q 6 25.140625 12.171875 29.828125 
Q 18.359375 34.515625 30.609375 34.515625 
L 43.21875 34.515625 
L 43.21875 35.40625 
Q 43.21875 41.609375 39.140625 45 
Q 35.0625 48.390625 27.6875 48.390625 
Q 23 48.390625 18.546875 47.265625 
Q 14.109375 46.140625 10.015625 43.890625 
L 10.015625 52.203125 
Q 14.9375 54.109375 19.578125 55.046875 
Q 24.21875 56 28.609375 56 
Q 40.484375 56 46.34375 49.84375 
Q 52.203125 43.703125 52.203125 31.203125 
z
" id="DejaVuSans-61"/>
      <path d="M 44.28125 53.078125 
L 44.28125 44.578125 
Q 40.484375 46.53125 36.375 47.5 
Q 32.28125 48.484375 27.875 48.484375 
Q 21.1875 48.484375 17.84375 46.4375 
Q 14.5 44.390625 14.5 40.28125 
Q 14.5 37.15625 16.890625 35.375 
Q 19.28125 33.59375 26.515625 31.984375 
L 29.59375 31.296875 
Q 39.15625 29.25 43.1875 25.515625 
Q 47.21875 21.78125 47.21875 15.09375 
Q 47.21875 7.46875 41.1875 3.015625 
Q 35.15625 -1.421875 24.609375 -1.421875 
Q 20.21875 -1.421875 15.453125 -0.5625 
Q 10.6875 0.296875 5.421875 2 
L 5.421875 11.28125 
Q 10.40625 8.6875 15.234375 7.390625 
Q 20.0625 6.109375 24.8125 6.109375 
Q 31.15625 6.109375 34.5625 8.28125 
Q 37.984375 10.453125 37.984375 14.40625 
Q 37.984375 18.0625 35.515625 20.015625 
Q 33.0625 21.96875 24.703125 23.78125 
L 21.578125 24.515625 
Q 13.234375 26.265625 9.515625 29.90625 
Q 5.8125 33.546875 5.8125 39.890625 
Q 5.8125 47.609375 11.28125 51.796875 
Q 16.75 56 26.8125 56 
Q 31.78125 56 36.171875 55.265625 
Q 40.578125 54.546875 44.28125 53.078125 
z
" id="DejaVuSans-73"/>
      <path d="M 25.390625 72.90625 
L 33.6875 72.90625 
L 8.296875 -9.28125 
L 0 -9.28125 
z
" id="DejaVuSans-2f"/>
      <path d="M 45.40625 46.390625 
L 45.40625 75.984375 
L 54.390625 75.984375 
L 54.390625 0 
L 45.40625 0 
L 45.40625 8.203125 
Q 42.578125 3.328125 38.25 0.953125 
Q 33.9375 -1.421875 27.875 -1.421875 
Q 17.96875 -1.421875 11.734375 6.484375 
Q 5.515625 14.40625 5.515625 27.296875 
Q 5.515625 40.1875 11.734375 48.09375 
Q 17.96875 56 27.875 56 
Q 33.9375 56 38.25 53.625 
Q 42.578125 51.265625 45.40625 46.390625 
z
M 14.796875 27.296875 
Q 14.796875 17.390625 18.875 11.75 
Q 22.953125 6.109375 30.078125 6.109375 
Q 37.203125 6.109375 41.296875 11.75 
Q 45.40625 17.390625 45.40625 27.296875 
Q 45.40625 37.203125 41.296875 42.84375 
Q 37.203125 48.484375 30.078125 48.484375 
Q 22.953125 48.484375 18.875 42.84375 
Q 14.796875 37.203125 14.796875 27.296875 
z
" id="DejaVuSans-64"/>
      <path d="M 9.421875 54.6875 
L 18.40625 54.6875 
L 18.40625 0 
L 9.421875 0 
z
M 9.421875 75.984375 
L 18.40625 75.984375 
L 18.40625 64.59375 
L 9.421875 64.59375 
z
" id="DejaVuSans-69"/>
      <path d="M 52 44.1875 
Q 55.375 50.25 60.0625 53.125 
Q 64.75 56 71.09375 56 
Q 79.640625 56 84.28125 50.015625 
Q 88.921875 44.046875 88.921875 33.015625 
L 88.921875 0 
L 79.890625 0 
L 79.890625 32.71875 
Q 79.890625 40.578125 77.09375 44.375 
Q 74.3125 48.1875 68.609375 48.1875 
Q 61.625 48.1875 57.5625 43.546875 
Q 53.515625 38.921875 53.515625 30.90625 
L 53.515625 0 
L 44.484375 0 
L 44.484375 32.71875 
Q 44.484375 40.625 41.703125 44.40625 
Q 38.921875 48.1875 33.109375 48.1875 
Q 26.21875 48.1875 22.15625 43.53125 
Q 18.109375 38.875 18.109375 30.90625 
L 18.109375 0 
L 9.078125 0 
L 9.078125 54.6875 
L 18.109375 54.6875 
L 18.109375 46.1875 
Q 21.1875 51.21875 25.484375 53.609375 
Q 29.78125 56 35.6875 56 
Q 41.65625 56 45.828125 52.96875 
Q 50 49.953125 52 44.1875 
z
" id="DejaVuSans-6d"/>
      <path d="M 54.890625 33.015625 
L 54.890625 0 
L 45.90625 0 
L 45.90625 32.71875 
Q 45.90625 40.484375 42.875 44.328125 
Q 39.84375 48.1875 33.796875 48.1875 
Q 26.515625 48.1875 22.3125 43.546875 
Q 18.109375 38.921875 18.109375 30.90625 
L 18.109375 0 
L 9.078125 0 
L 9.078125 54.6875 
L 18.109375 54.6875 
L 18.109375 46.1875 
Q 21.34375 51.125 25.703125 53.5625 
Q 30.078125 56 35.796875 56 
Q 45.21875 56 50.046875 50.171875 
Q 54.890625 44.34375 54.890625 33.015625 
z
" id="DejaVuSans-6e"/>
      <path d="M 8.015625 75.875 
L 15.828125 75.875 
Q 23.140625 64.359375 26.78125 53.3125 
Q 30.421875 42.28125 30.421875 31.390625 
Q 30.421875 20.453125 26.78125 9.375 
Q 23.140625 -1.703125 15.828125 -13.1875 
L 8.015625 -13.1875 
Q 14.5 -2 17.703125 9.0625 
Q 20.90625 20.125 20.90625 31.390625 
Q 20.90625 42.671875 17.703125 53.65625 
Q 14.5 64.65625 8.015625 75.875 
z
" id="DejaVuSans-29"/>
     </defs>
     <g transform="translate(73.803219 338.153594)scale(0.17 -0.17)">
      <use xlink:href="#DejaVuSans-6c"/>
      <use x="27.783203" xlink:href="#DejaVuSans-6f"/>
      <use x="88.964844" xlink:href="#DejaVuSans-67"/>
      <use x="152.441406" xlink:href="#DejaVuSans-31"/>
      <use x="216.064453" xlink:href="#DejaVuSans-30"/>
      <use x="279.6875" xlink:href="#DejaVuSans-28"/>
      <use x="318.701172" xlink:href="#DejaVuSans-23"/>
      <use x="402.490234" xlink:href="#DejaVuSans-20"/>
      <use x="434.277344" xlink:href="#DejaVuSans-66"/>
      <use x="469.404297" xlink:href="#DejaVuSans-2d"/>
      <use x="505.488281" xlink:href="#DejaVuSans-65"/>
      <use x="567.011719" xlink:href="#DejaVuSans-76"/>
      <use x="626.191406" xlink:href="#DejaVuSans-61"/>
      <use x="687.470703" xlink:href="#DejaVuSans-6c"/>
      <use x="715.253906" xlink:href="#DejaVuSans-73"/>
      <use x="767.353516" xlink:href="#DejaVuSans-20"/>
      <use x="799.140625" xlink:href="#DejaVuSans-2f"/>
      <use x="832.832031" xlink:href="#DejaVuSans-20"/>
      <use x="864.619141" xlink:href="#DejaVuSans-64"/>
      <use x="928.095703" xlink:href="#DejaVuSans-69"/>
      <use x="955.878906" xlink:href="#DejaVuSans-6d"/>
      <use x="1053.291016" xlink:href="#DejaVuSans-65"/>
      <use x="1114.814453" xlink:href="#DejaVuSans-6e"/>
      <use x="1178.193359" xlink:href="#DejaVuSans-73"/>
      <use x="1230.292969" xlink:href="#DejaVuSans-69"/>
      <use x="1258.076172" xlink:href="#DejaVuSans-6f"/>
      <use x="1319.257812" xlink:href="#DejaVuSans-6e"/>
      <use x="1382.636719" xlink:href="#DejaVuSans-29"/>
     </g>
    </g>
   </g>
   <g id="matplotlib.axis_2">
    <g id="ytick_1">
     <g id="line2d_29">
      <path clip-path="url(#p9845ba8e5e)" d="M 56.12 294.88 
L 333.168 294.88 
" style="fill:none;stroke:#b0b0b0;stroke-linecap:square;stroke-width:0.8;"/>
     </g>
     <g id="line2d_30">
      <defs>
       <path d="M 0 0 
L -3.5 0 
" id="m7eeb6bfbbe" style="stroke:#000000;stroke-width:0.8;"/>
      </defs>
      <g>
       <use style="stroke:#000000;stroke-width:0.8;" x="56.12" xlink:href="#m7eeb6bfbbe" y="294.88"/>
      </g>
     </g>
     <g id="text_6">
      <!-- 0.0 -->
      <defs>
       <path d="M 10.6875 12.40625 
L 21 12.40625 
L 21 0 
L 10.6875 0 
z
" id="DejaVuSans-2e"/>
      </defs>
      <g transform="translate(23.675 300.95875)scale(0.16 -0.16)">
       <use xlink:href="#DejaVuSans-30"/>
       <use x="63.623047" xlink:href="#DejaVuSans-2e"/>
       <use x="95.410156" xlink:href="#DejaVuSans-30"/>
      </g>
     </g>
    </g>
    <g id="ytick_2">
     <g id="line2d_31">
      <path clip-path="url(#p9845ba8e5e)" d="M 56.12 241.406733 
L 333.168 241.406733 
" style="fill:none;stroke:#b0b0b0;stroke-linecap:square;stroke-width:0.8;"/>
     </g>
     <g id="line2d_32">
      <g>
       <use style="stroke:#000000;stroke-width:0.8;" x="56.12" xlink:href="#m7eeb6bfbbe" y="241.406733"/>
      </g>
     </g>
     <g id="text_7">
      <!-- 0.2 -->
      <g transform="translate(23.675 247.485483)scale(0.16 -0.16)">
       <use xlink:href="#DejaVuSans-30"/>
       <use x="63.623047" xlink:href="#DejaVuSans-2e"/>
       <use x="95.410156" xlink:href="#DejaVuSans-32"/>
      </g>
     </g>
    </g>
    <g id="ytick_3">
     <g id="line2d_33">
      <path clip-path="url(#p9845ba8e5e)" d="M 56.12 187.933465 
L 333.168 187.933465 
" style="fill:none;stroke:#b0b0b0;stroke-linecap:square;stroke-width:0.8;"/>
     </g>
     <g id="line2d_34">
      <g>
       <use style="stroke:#000000;stroke-width:0.8;" x="56.12" xlink:href="#m7eeb6bfbbe" y="187.933465"/>
      </g>
     </g>
     <g id="text_8">
      <!-- 0.4 -->
      <g transform="translate(23.675 194.012215)scale(0.16 -0.16)">
       <use xlink:href="#DejaVuSans-30"/>
       <use x="63.623047" xlink:href="#DejaVuSans-2e"/>
       <use x="95.410156" xlink:href="#DejaVuSans-34"/>
      </g>
     </g>
    </g>
    <g id="ytick_4">
     <g id="line2d_35">
      <path clip-path="url(#p9845ba8e5e)" d="M 56.12 134.460198 
L 333.168 134.460198 
" style="fill:none;stroke:#b0b0b0;stroke-linecap:square;stroke-width:0.8;"/>
     </g>
     <g id="line2d_36">
      <g>
       <use style="stroke:#000000;stroke-width:0.8;" x="56.12" xlink:href="#m7eeb6bfbbe" y="134.460198"/>
      </g>
     </g>
     <g id="text_9">
      <!-- 0.6 -->
      <g transform="translate(23.675 140.538948)scale(0.16 -0.16)">
       <use xlink:href="#DejaVuSans-30"/>
       <use x="63.623047" xlink:href="#DejaVuSans-2e"/>
       <use x="95.410156" xlink:href="#DejaVuSans-36"/>
      </g>
     </g>
    </g>
    <g id="ytick_5">
     <g id="line2d_37">
      <path clip-path="url(#p9845ba8e5e)" d="M 56.12 80.986931 
L 333.168 80.986931 
" style="fill:none;stroke:#b0b0b0;stroke-linecap:square;stroke-width:0.8;"/>
     </g>
     <g id="line2d_38">
      <g>
       <use style="stroke:#000000;stroke-width:0.8;" x="56.12" xlink:href="#m7eeb6bfbbe" y="80.986931"/>
      </g>
     </g>
     <g id="text_10">
      <!-- 0.8 -->
      <defs>
       <path d="M 31.78125 34.625 
Q 24.75 34.625 20.71875 30.859375 
Q 16.703125 27.09375 16.703125 20.515625 
Q 16.703125 13.921875 20.71875 10.15625 
Q 24.75 6.390625 31.78125 6.390625 
Q 38.8125 6.390625 42.859375 10.171875 
Q 46.921875 13.96875 46.921875 20.515625 
Q 46.921875 27.09375 42.890625 30.859375 
Q 38.875 34.625 31.78125 34.625 
z
M 21.921875 38.8125 
Q 15.578125 40.375 12.03125 44.71875 
Q 8.5 49.078125 8.5 55.328125 
Q 8.5 64.0625 14.71875 69.140625 
Q 20.953125 74.21875 31.78125 74.21875 
Q 42.671875 74.21875 48.875 69.140625 
Q 55.078125 64.0625 55.078125 55.328125 
Q 55.078125 49.078125 51.53125 44.71875 
Q 48 40.375 41.703125 38.8125 
Q 48.828125 37.15625 52.796875 32.3125 
Q 56.78125 27.484375 56.78125 20.515625 
Q 56.78125 9.90625 50.3125 4.234375 
Q 43.84375 -1.421875 31.78125 -1.421875 
Q 19.734375 -1.421875 13.25 4.234375 
Q 6.78125 9.90625 6.78125 20.515625 
Q 6.78125 27.484375 10.78125 32.3125 
Q 14.796875 37.15625 21.921875 38.8125 
z
M 18.3125 54.390625 
Q 18.3125 48.734375 21.84375 45.5625 
Q 25.390625 42.390625 31.78125 42.390625 
Q 38.140625 42.390625 41.71875 45.5625 
Q 45.3125 48.734375 45.3125 54.390625 
Q 45.3125 60.0625 41.71875 63.234375 
Q 38.140625 66.40625 31.78125 66.40625 
Q 25.390625 66.40625 21.84375 63.234375 
Q 18.3125 60.0625 18.3125 54.390625 
z
" id="DejaVuSans-38"/>
      </defs>
      <g transform="translate(23.675 87.065681)scale(0.16 -0.16)">
       <use xlink:href="#DejaVuSans-30"/>
       <use x="63.623047" xlink:href="#DejaVuSans-2e"/>
       <use x="95.410156" xlink:href="#DejaVuSans-38"/>
      </g>
     </g>
    </g>
    <g id="ytick_6">
     <g id="line2d_39">
      <path clip-path="url(#p9845ba8e5e)" d="M 56.12 27.513663 
L 333.168 27.513663 
" style="fill:none;stroke:#b0b0b0;stroke-linecap:square;stroke-width:0.8;"/>
     </g>
     <g id="line2d_40">
      <g>
       <use style="stroke:#000000;stroke-width:0.8;" x="56.12" xlink:href="#m7eeb6bfbbe" y="27.513663"/>
      </g>
     </g>
     <g id="text_11">
      <!-- 1.0 -->
      <g transform="translate(23.675 33.592413)scale(0.16 -0.16)">
       <use xlink:href="#DejaVuSans-31"/>
       <use x="63.623047" xlink:href="#DejaVuSans-2e"/>
       <use x="95.410156" xlink:href="#DejaVuSans-30"/>
      </g>
     </g>
    </g>
    <g id="text_12">
     <!-- Fraction of function,target pairs -->
     <defs>
      <path d="M 9.8125 72.90625 
L 51.703125 72.90625 
L 51.703125 64.59375 
L 19.671875 64.59375 
L 19.671875 43.109375 
L 48.578125 43.109375 
L 48.578125 34.8125 
L 19.671875 34.8125 
L 19.671875 0 
L 9.8125 0 
z
" id="DejaVuSans-46"/>
      <path d="M 41.109375 46.296875 
Q 39.59375 47.171875 37.8125 47.578125 
Q 36.03125 48 33.890625 48 
Q 26.265625 48 22.1875 43.046875 
Q 18.109375 38.09375 18.109375 28.8125 
L 18.109375 0 
L 9.078125 0 
L 9.078125 54.6875 
L 18.109375 54.6875 
L 18.109375 46.1875 
Q 20.953125 51.171875 25.484375 53.578125 
Q 30.03125 56 36.53125 56 
Q 37.453125 56 38.578125 55.875 
Q 39.703125 55.765625 41.0625 55.515625 
z
" id="DejaVuSans-72"/>
      <path d="M 48.78125 52.59375 
L 48.78125 44.1875 
Q 44.96875 46.296875 41.140625 47.34375 
Q 37.3125 48.390625 33.40625 48.390625 
Q 24.65625 48.390625 19.8125 42.84375 
Q 14.984375 37.3125 14.984375 27.296875 
Q 14.984375 17.28125 19.8125 11.734375 
Q 24.65625 6.203125 33.40625 6.203125 
Q 37.3125 6.203125 41.140625 7.25 
Q 44.96875 8.296875 48.78125 10.40625 
L 48.78125 2.09375 
Q 45.015625 0.34375 40.984375 -0.53125 
Q 36.96875 -1.421875 32.421875 -1.421875 
Q 20.0625 -1.421875 12.78125 6.34375 
Q 5.515625 14.109375 5.515625 27.296875 
Q 5.515625 40.671875 12.859375 48.328125 
Q 20.21875 56 33.015625 56 
Q 37.15625 56 41.109375 55.140625 
Q 45.0625 54.296875 48.78125 52.59375 
z
" id="DejaVuSans-63"/>
      <path d="M 18.3125 70.21875 
L 18.3125 54.6875 
L 36.8125 54.6875 
L 36.8125 47.703125 
L 18.3125 47.703125 
L 18.3125 18.015625 
Q 18.3125 11.328125 20.140625 9.421875 
Q 21.96875 7.515625 27.59375 7.515625 
L 36.8125 7.515625 
L 36.8125 0 
L 27.59375 0 
Q 17.1875 0 13.234375 3.875 
Q 9.28125 7.765625 9.28125 18.015625 
L 9.28125 47.703125 
L 2.6875 47.703125 
L 2.6875 54.6875 
L 9.28125 54.6875 
L 9.28125 70.21875 
z
" id="DejaVuSans-74"/>
      <path d="M 8.5 21.578125 
L 8.5 54.6875 
L 17.484375 54.6875 
L 17.484375 21.921875 
Q 17.484375 14.15625 20.5 10.265625 
Q 23.53125 6.390625 29.59375 6.390625 
Q 36.859375 6.390625 41.078125 11.03125 
Q 45.3125 15.671875 45.3125 23.6875 
L 45.3125 54.6875 
L 54.296875 54.6875 
L 54.296875 0 
L 45.3125 0 
L 45.3125 8.40625 
Q 42.046875 3.421875 37.71875 1 
Q 33.40625 -1.421875 27.6875 -1.421875 
Q 18.265625 -1.421875 13.375 4.4375 
Q 8.5 10.296875 8.5 21.578125 
z
M 31.109375 56 
z
" id="DejaVuSans-75"/>
      <path d="M 11.71875 12.40625 
L 22.015625 12.40625 
L 22.015625 4 
L 14.015625 -11.625 
L 7.71875 -11.625 
L 11.71875 4 
z
" id="DejaVuSans-2c"/>
      <path d="M 18.109375 8.203125 
L 18.109375 -20.796875 
L 9.078125 -20.796875 
L 9.078125 54.6875 
L 18.109375 54.6875 
L 18.109375 46.390625 
Q 20.953125 51.265625 25.265625 53.625 
Q 29.59375 56 35.59375 56 
Q 45.5625 56 51.78125 48.09375 
Q 58.015625 40.1875 58.015625 27.296875 
Q 58.015625 14.40625 51.78125 6.484375 
Q 45.5625 -1.421875 35.59375 -1.421875 
Q 29.59375 -1.421875 25.265625 0.953125 
Q 20.953125 3.328125 18.109375 8.203125 
z
M 48.6875 27.296875 
Q 48.6875 37.203125 44.609375 42.84375 
Q 40.53125 48.484375 33.40625 48.484375 
Q 26.265625 48.484375 22.1875 42.84375 
Q 18.109375 37.203125 18.109375 27.296875 
Q 18.109375 17.390625 22.1875 11.75 
Q 26.265625 6.109375 33.40625 6.109375 
Q 40.53125 6.109375 44.609375 11.75 
Q 48.6875 17.390625 48.6875 27.296875 
z
" id="DejaVuSans-70"/>
     </defs>
     <g transform="translate(16.139531 294.999375)rotate(-90)scale(0.17 -0.17)">
      <use xlink:href="#DejaVuSans-46"/>
      <use x="57.410156" xlink:href="#DejaVuSans-72"/>
      <use x="98.523438" xlink:href="#DejaVuSans-61"/>
      <use x="159.802734" xlink:href="#DejaVuSans-63"/>
      <use x="214.783203" xlink:href="#DejaVuSans-74"/>
      <use x="253.992188" xlink:href="#DejaVuSans-69"/>
      <use x="281.775391" xlink:href="#DejaVuSans-6f"/>
      <use x="342.957031" xlink:href="#DejaVuSans-6e"/>
      <use x="406.335938" xlink:href="#DejaVuSans-20"/>
      <use x="438.123047" xlink:href="#DejaVuSans-6f"/>
      <use x="499.304688" xlink:href="#DejaVuSans-66"/>
      <use x="534.509766" xlink:href="#DejaVuSans-20"/>
      <use x="566.296875" xlink:href="#DejaVuSans-66"/>
      <use x="601.501953" xlink:href="#DejaVuSans-75"/>
      <use x="664.880859" xlink:href="#DejaVuSans-6e"/>
      <use x="728.259766" xlink:href="#DejaVuSans-63"/>
      <use x="783.240234" xlink:href="#DejaVuSans-74"/>
      <use x="822.449219" xlink:href="#DejaVuSans-69"/>
      <use x="850.232422" xlink:href="#DejaVuSans-6f"/>
      <use x="911.414062" xlink:href="#DejaVuSans-6e"/>
      <use x="974.792969" xlink:href="#DejaVuSans-2c"/>
      <use x="1006.580078" xlink:href="#DejaVuSans-74"/>
      <use x="1045.789062" xlink:href="#DejaVuSans-61"/>
      <use x="1107.068359" xlink:href="#DejaVuSans-72"/>
      <use x="1148.166016" xlink:href="#DejaVuSans-67"/>
      <use x="1211.642578" xlink:href="#DejaVuSans-65"/>
      <use x="1273.166016" xlink:href="#DejaVuSans-74"/>
      <use x="1312.375" xlink:href="#DejaVuSans-20"/>
      <use x="1344.162109" xlink:href="#DejaVuSans-70"/>
      <use x="1407.638672" xlink:href="#DejaVuSans-61"/>
      <use x="1468.917969" xlink:href="#DejaVuSans-69"/>
      <use x="1496.701172" xlink:href="#DejaVuSans-72"/>
      <use x="1537.814453" xlink:href="#DejaVuSans-73"/>
     </g>
    </g>
   </g>
   <g id="line2d_41">
    <defs>
     <path d="M 0 1.5 
C 0.397805 1.5 0.77937 1.341951 1.06066 1.06066 
C 1.341951 0.77937 1.5 0.397805 1.5 0 
C 1.5 -0.397805 1.341951 -0.77937 1.06066 -1.06066 
C 0.77937 -1.341951 0.397805 -1.5 0 -1.5 
C -0.397805 -1.5 -0.77937 -1.341951 -1.06066 -1.06066 
C -1.341951 -0.77937 -1.5 -0.397805 -1.5 0 
C -1.5 0.397805 -1.341951 0.77937 -1.06066 1.06066 
C -0.77937 1.341951 -0.397805 1.5 0 1.5 
z
" id="m97bd314b22" style="stroke:#f5deb3;"/>
    </defs>
    <g>
     <use style="fill:#f5deb3;stroke:#f5deb3;" x="163.591602" xlink:href="#m97bd314b22" y="27.513663"/>
     <use style="fill:#f5deb3;stroke:#f5deb3;" x="163.591602" xlink:href="#m97bd314b22" y="27.513663"/>
    </g>
   </g>
   <g id="line2d_42">
    <defs>
     <path d="M 0 1.5 
C 0.397805 1.5 0.77937 1.341951 1.06066 1.06066 
C 1.341951 0.77937 1.5 0.397805 1.5 0 
C 1.5 -0.397805 1.341951 -0.77937 1.06066 -1.06066 
C 0.77937 -1.341951 0.397805 -1.5 0 -1.5 
C -0.397805 -1.5 -0.77937 -1.341951 -1.06066 -1.06066 
C -1.341951 -0.77937 -1.5 -0.397805 -1.5 0 
C -1.5 0.397805 -1.341951 0.77937 -1.06066 1.06066 
C -0.77937 1.341951 -0.397805 1.5 0 1.5 
z
" id="m8a70083018" style="stroke:#000080;"/>
    </defs>
    <g>
     <use style="fill:#000080;stroke:#000080;" x="169.755754" xlink:href="#m8a70083018" y="27.513663"/>
     <use style="fill:#000080;stroke:#000080;" x="169.755754" xlink:href="#m8a70083018" y="27.513663"/>
    </g>
   </g>
   <g id="line2d_43">
    <path d="M 100.728876 294.88 
L 100.728876 294.355752 
L 106.179321 294.355752 
L 106.179321 293.307257 
L 113.023703 293.307257 
L 113.023703 292.258761 
L 113.148711 292.258761 
L 113.148711 291.734514 
L 113.396034 291.734514 
L 113.396034 291.210266 
L 114.581927 291.210266 
L 114.581927 290.686018 
L 115.311081 290.686018 
L 115.311081 290.161771 
L 116.010559 290.161771 
L 116.010559 289.637523 
L 122.516807 289.637523 
L 122.516807 288.589027 
L 124.493121 288.589027 
L 124.493121 287.540532 
L 131.823497 287.540532 
L 131.823497 286.492036 
L 132.402015 286.492036 
L 132.402015 284.919293 
L 135.03423 284.919293 
L 135.03423 283.870798 
L 136.599426 283.870798 
L 136.599426 282.822302 
L 138.623956 282.822302 
L 138.623956 281.773807 
L 140.048681 281.773807 
L 140.048681 280.725312 
L 143.387489 280.725312 
L 143.451706 279.152568 
L 144.07071 279.152568 
L 144.07071 278.628321 
L 144.915234 278.628321 
L 144.915234 278.104073 
L 145.207068 278.104073 
L 145.312845 276.007082 
L 145.322428 276.007082 
L 145.322428 275.482834 
L 145.7202 275.482834 
L 145.7202 274.958587 
L 145.869343 274.958587 
L 145.869343 274.434339 
L 146.569532 274.434339 
L 146.569532 272.861596 
L 146.799661 272.861596 
L 146.834794 269.191862 
L 147.061422 269.191862 
L 147.061422 268.143366 
L 147.285101 268.143366 
L 147.285101 267.094871 
L 148.062168 267.094871 
L 148.062168 266.570623 
L 148.240964 266.570623 
L 148.321624 263.949385 
L 148.401907 263.949385 
L 148.505718 262.376641 
L 148.679982 262.376641 
L 148.679982 261.852394 
L 148.868095 261.852394 
L 148.868095 261.328146 
L 149.154128 261.328146 
L 149.154128 260.803898 
L 149.600611 260.803898 
L 149.690019 256.085669 
L 149.778964 256.085669 
L 149.778964 254.512926 
L 149.940844 254.512926 
L 149.940844 253.988678 
L 150.267289 253.988678 
L 150.367599 252.415935 
L 150.424656 252.415935 
L 150.453114 251.367439 
L 150.559414 251.367439 
L 150.665061 248.746201 
L 150.693124 248.746201 
L 150.693124 247.697705 
L 150.922912 247.697705 
L 151.033229 244.552219 
L 151.163317 244.552219 
L 151.231391 240.358237 
L 151.514393 240.358237 
L 151.601053 238.785494 
L 151.62763 238.785494 
L 151.640903 236.688503 
L 151.74672 236.688503 
L 151.85189 235.11576 
L 151.969442 235.11576 
L 152.060318 233.018769 
L 152.208581 233.018769 
L 152.317349 230.397531 
L 152.336473 230.397531 
L 152.374656 229.349035 
L 152.507631 229.349035 
L 152.507631 227.252044 
L 152.627063 227.252044 
L 152.627063 226.727797 
L 152.758108 226.727797 
L 152.844919 225.155053 
L 153.02336 225.155053 
L 153.127109 222.009567 
L 153.145352 222.009567 
L 153.236282 218.864081 
L 153.266485 218.864081 
L 153.266485 218.339833 
L 153.482395 218.339833 
L 153.482395 215.718594 
L 153.987461 215.718594 
L 154.09132 213.097356 
L 154.22883 213.097356 
L 154.336917 211.524613 
L 154.348255 211.524613 
L 154.455596 206.806383 
L 154.595821 206.806383 
L 154.595821 206.282136 
L 154.757061 206.282136 
L 154.812312 205.23364 
L 154.87838 205.23364 
L 154.87838 204.709392 
L 155.113059 204.709392 
L 155.204963 202.088154 
L 155.403306 202.088154 
L 155.403306 201.563906 
L 155.562461 201.563906 
L 155.667752 199.466915 
L 155.699213 199.466915 
L 155.720156 194.748686 
L 155.881602 194.748686 
L 155.954019 190.554704 
L 155.995263 190.554704 
L 156.062075 187.933465 
L 156.326756 187.933465 
L 156.357035 186.360722 
L 156.701468 186.360722 
L 156.785279 183.739484 
L 156.878469 183.739484 
L 156.878469 183.215236 
L 157.02944 183.215236 
L 157.106845 181.642493 
L 157.188707 181.642493 
L 157.255831 179.021254 
L 157.313159 179.021254 
L 157.327461 175.35152 
L 157.521738 175.35152 
L 157.629769 173.254529 
L 157.741778 173.254529 
L 157.843816 170.109043 
L 158.114508 170.109043 
L 158.218888 162.245327 
L 158.264074 162.245327 
L 158.264074 161.721079 
L 158.452567 161.721079 
L 158.510494 158.575593 
L 158.643431 158.575593 
L 158.709516 155.954354 
L 158.79286 155.954354 
L 158.849653 154.381611 
L 158.958346 154.381611 
L 159.005954 152.808868 
L 159.246298 152.808868 
L 159.246298 151.760373 
L 159.453878 151.760373 
L 159.483328 149.663382 
L 159.642328 149.663382 
L 159.696387 147.042143 
L 159.803998 147.042143 
L 159.853438 145.4694 
L 159.923235 145.4694 
L 160.009066 140.751171 
L 160.122845 140.751171 
L 160.175415 138.65418 
L 160.247941 138.65418 
L 160.34017 134.984446 
L 160.376126 134.984446 
L 160.376126 133.411703 
L 160.535023 133.411703 
L 160.578464 132.363207 
L 160.727692 132.363207 
L 160.836827 128.693473 
L 160.933686 128.693473 
L 160.933686 128.169225 
L 161.144875 128.169225 
L 161.243814 126.072235 
L 161.270354 126.072235 
L 161.376107 125.023739 
L 161.409962 125.023739 
L 161.488697 119.257014 
L 161.726451 119.257014 
L 161.818438 117.684271 
L 161.88802 117.684271 
L 161.917234 114.538785 
L 162.004579 114.538785 
L 162.077028 111.393298 
L 162.156372 111.393298 
L 162.26398 105.626573 
L 162.317533 105.626573 
L 162.420598 102.481087 
L 162.498374 102.481087 
L 162.561749 101.432592 
L 162.645887 101.432592 
L 162.750483 100.384096 
L 163.026335 100.384096 
L 163.026335 98.811353 
L 163.193134 98.811353 
L 163.203293 97.762858 
L 163.354974 97.762858 
L 163.431985 94.093124 
L 163.518628 94.093124 
L 163.558471 90.42339 
L 163.805414 90.42339 
L 163.880438 88.326399 
L 163.929191 88.326399 
L 163.964856 85.180912 
L 164.116412 85.180912 
L 164.186897 83.608169 
L 164.244352 83.608169 
L 164.317488 81.511178 
L 164.393474 81.511178 
L 164.497409 77.841444 
L 164.569479 77.841444 
L 164.628788 76.792949 
L 164.709617 76.792949 
L 164.783893 75.220206 
L 164.823992 75.220206 
L 164.903911 73.647463 
L 164.940672 73.647463 
L 165.020051 71.026224 
L 165.105128 71.026224 
L 165.126332 68.929233 
L 165.360849 68.929233 
L 165.46505 66.307995 
L 165.494706 66.307995 
L 165.565672 64.735251 
L 165.612821 64.735251 
L 165.72136 60.54127 
L 165.76225 60.54127 
L 165.866953 55.82304 
L 165.916175 55.82304 
L 165.999818 54.250297 
L 166.200054 54.250297 
L 166.217109 50.580563 
L 166.336023 50.580563 
L 166.428881 47.959324 
L 166.693434 47.959324 
L 166.781638 46.910829 
L 166.833795 46.910829 
L 166.902183 43.241095 
L 166.983891 43.241095 
L 166.983891 42.716847 
L 167.148843 42.716847 
L 167.24813 36.950122 
L 167.322886 36.950122 
L 167.376085 34.853131 
L 167.873431 34.853131 
L 167.984019 32.756141 
L 168.101539 32.756141 
L 168.177753 31.183397 
L 168.309061 31.183397 
L 168.309061 30.65915 
L 168.655211 30.65915 
L 168.655211 30.134902 
L 169.001777 30.134902 
L 169.001777 28.037911 
L 169.755754 28.037911 
L 169.755754 27.513663 
L 333.168 27.513663 
L 333.168 27.513663 
" style="fill:none;stroke:#000080;stroke-linecap:square;stroke-width:1.5;"/>
   </g>
   <g id="line2d_44">
    <defs>
     <path d="M 0 6 
C 1.591219 6 3.117479 5.367802 4.242641 4.242641 
C 5.367802 3.117479 6 1.591219 6 0 
C 6 -1.591219 5.367802 -3.117479 4.242641 -4.242641 
C 3.117479 -5.367802 1.591219 -6 0 -6 
C -1.591219 -6 -3.117479 -5.367802 -4.242641 -4.242641 
C -5.367802 -3.117479 -6 -1.591219 -6 0 
C -6 1.591219 -5.367802 3.117479 -4.242641 4.242641 
C -3.117479 5.367802 -1.591219 6 0 6 
z
" id="m8638a4e5a8" style="stroke:#000080;stroke-width:1.5;"/>
    </defs>
    <g>
     <use style="fill-opacity:0;stroke:#000080;stroke-width:1.5;" x="157.188707" xlink:href="#m8638a4e5a8" y="181.642493"/>
     <use style="fill-opacity:0;stroke:#000080;stroke-width:1.5;" x="169.755754" xlink:href="#m8638a4e5a8" y="28.037911"/>
     <use style="fill-opacity:0;stroke:#000080;stroke-width:1.5;" x="169.755754" xlink:href="#m8638a4e5a8" y="27.513663"/>
     <use style="fill-opacity:0;stroke:#000080;stroke-width:1.5;" x="169.755754" xlink:href="#m8638a4e5a8" y="27.513663"/>
     <use style="fill-opacity:0;stroke:#000080;stroke-width:1.5;" x="333.168" xlink:href="#m8638a4e5a8" y="27.513663"/>
    </g>
   </g>
   <g id="line2d_45">
    <path style="fill:none;stroke:#000080;stroke-linecap:square;stroke-width:1.5;"/>
    <g/>
   </g>
   <g id="line2d_46">
    <defs>
     <path d="M 0 1.5 
C 0.397805 1.5 0.77937 1.341951 1.06066 1.06066 
C 1.341951 0.77937 1.5 0.397805 1.5 0 
C 1.5 -0.397805 1.341951 -0.77937 1.06066 -1.06066 
C 0.77937 -1.341951 0.397805 -1.5 0 -1.5 
C -0.397805 -1.5 -0.77937 -1.341951 -1.06066 -1.06066 
C -1.341951 -0.77937 -1.5 -0.397805 -1.5 0 
C -1.5 0.397805 -1.341951 0.77937 -1.06066 1.06066 
C -0.77937 1.341951 -0.397805 1.5 0 1.5 
z
" id="m933e6dbfe1" style="stroke:#ff00ff;"/>
    </defs>
    <g>
     <use style="fill:#ff00ff;stroke:#ff00ff;" x="218.140175" xlink:href="#m933e6dbfe1" y="27.513663"/>
     <use style="fill:#ff00ff;stroke:#ff00ff;" x="218.140175" xlink:href="#m933e6dbfe1" y="27.513663"/>
    </g>
   </g>
   <g id="line2d_47">
    <path d="M 93.105847 294.88 
L 93.105847 294.355752 
L 103.231288 294.355752 
L 103.231288 293.831505 
L 107.868452 293.831505 
L 107.868452 293.307257 
L 111.922736 293.307257 
L 111.922736 292.783009 
L 114.466953 292.783009 
L 114.466953 292.258761 
L 117.667972 292.258761 
L 117.763465 289.113275 
L 118.735356 289.113275 
L 118.735356 288.06478 
L 119.440629 288.06478 
L 119.440629 286.492036 
L 120.568842 286.492036 
L 120.568842 285.967789 
L 121.320594 285.967789 
L 121.320594 285.443541 
L 121.436343 285.443541 
L 121.513078 284.395046 
L 125.704746 284.395046 
L 125.704746 283.34655 
L 127.004254 283.34655 
L 127.004254 282.822302 
L 128.647561 282.822302 
L 128.647561 282.298055 
L 129.606147 282.298055 
L 129.606147 281.249559 
L 129.772681 281.249559 
L 129.772681 280.201064 
L 130.716969 280.201064 
L 130.761732 278.104073 
L 130.917487 278.104073 
L 130.917487 277.579825 
L 133.000983 277.579825 
L 133.000983 276.53133 
L 133.522769 276.53133 
L 133.522769 276.007082 
L 133.805948 276.007082 
L 133.805948 275.482834 
L 133.992176 275.482834 
L 133.992176 274.958587 
L 134.358685 274.958587 
L 134.358685 274.434339 
L 134.485139 274.434339 
L 134.485139 273.910091 
L 134.664189 273.910091 
L 134.664189 273.385844 
L 135.10382 273.385844 
L 135.10382 272.337348 
L 135.224928 272.337348 
L 135.224928 271.288853 
L 135.600092 271.288853 
L 135.600092 270.764605 
L 136.245672 270.764605 
L 136.245672 270.240357 
L 136.407373 270.240357 
L 136.407373 269.716109 
L 136.551614 269.716109 
L 136.551614 269.191862 
L 136.742071 269.191862 
L 136.742071 268.667614 
L 137.008324 268.667614 
L 137.008324 268.143366 
L 137.783197 268.143366 
L 137.783197 267.619119 
L 138.918505 267.619119 
L 138.932406 266.570623 
L 139.057012 266.570623 
L 139.098347 264.99788 
L 140.113666 264.99788 
L 140.113666 262.900889 
L 140.73785 262.900889 
L 140.73785 262.376641 
L 140.936852 262.376641 
L 140.936852 261.852394 
L 141.133577 261.852394 
L 141.133577 261.328146 
L 141.376358 261.328146 
L 141.376358 260.279651 
L 141.639516 260.279651 
L 141.651382 259.231155 
L 142.223028 259.231155 
L 142.223028 258.18266 
L 142.530078 258.18266 
L 142.530078 257.134164 
L 142.69832 257.134164 
L 142.69832 256.609917 
L 143.040889 256.609917 
L 143.040889 256.085669 
L 143.23671 256.085669 
L 143.23671 255.561421 
L 143.988072 255.561421 
L 143.988072 255.037173 
L 144.925042 255.037173 
L 144.973998 253.46443 
L 145.943432 253.46443 
L 146.05397 251.367439 
L 146.108974 251.367439 
L 146.154676 249.270448 
L 146.272936 249.270448 
L 146.272936 248.746201 
L 147.285101 248.746201 
L 147.370362 247.697705 
L 147.472121 247.697705 
L 147.564873 246.64921 
L 147.606868 246.64921 
L 147.606868 245.600714 
L 148.159923 245.600714 
L 148.224786 244.027971 
L 148.441909 244.027971 
L 148.513678 242.455228 
L 148.648429 242.455228 
L 148.648429 241.93098 
L 148.836885 241.93098 
L 148.930344 240.882485 
L 149.465621 240.882485 
L 149.465621 239.83399 
L 149.690019 239.83399 
L 149.690019 238.785494 
L 150.043071 238.785494 
L 150.057625 237.736999 
L 150.573538 237.736999 
L 150.573538 236.688503 
L 151.713722 236.688503 
L 151.773073 234.591512 
L 152.31097 234.591512 
L 152.31097 234.067265 
L 152.438106 234.067265 
L 152.438106 233.543017 
L 152.74567 233.543017 
L 152.74567 233.018769 
L 153.133192 233.018769 
L 153.133192 231.970274 
L 153.25441 231.970274 
L 153.25441 231.446026 
L 153.54783 231.446026 
L 153.54783 230.921778 
L 153.941099 230.921778 
L 153.941099 230.397531 
L 154.165941 230.397531 
L 154.245942 228.30054 
L 154.734911 228.30054 
L 154.734911 226.727797 
L 155.037003 226.727797 
L 155.037003 226.203549 
L 155.237283 226.203549 
L 155.237283 225.155053 
L 155.355271 225.155053 
L 155.376636 223.58231 
L 155.488372 223.58231 
L 155.530748 222.533815 
L 155.604655 222.533815 
L 155.68349 221.485319 
L 155.984961 221.485319 
L 156.056945 219.912576 
L 156.108178 219.912576 
L 156.108178 219.388328 
L 156.457583 219.388328 
L 156.457583 218.864081 
L 156.932191 218.864081 
L 156.932191 218.339833 
L 157.116496 218.339833 
L 157.116496 217.291338 
L 157.662514 217.291338 
L 157.662514 216.242842 
L 157.995745 216.242842 
L 158.0278 215.194347 
L 158.164508 215.194347 
L 158.255046 214.145851 
L 158.389966 214.145851 
L 158.479327 212.573108 
L 158.568226 212.573108 
L 158.568226 212.04886 
L 158.941001 212.04886 
L 158.941001 211.524613 
L 159.284613 211.524613 
L 159.284613 211.000365 
L 159.415938 211.000365 
L 159.512728 209.95187 
L 159.608977 209.95187 
L 159.638163 208.379126 
L 159.931428 208.379126 
L 159.96416 207.330631 
L 160.143083 207.330631 
L 160.143083 206.282136 
L 161.217232 206.282136 
L 161.217232 205.757888 
L 161.436247 205.757888 
L 161.484956 204.709392 
L 161.877052 204.709392 
L 161.877052 203.660897 
L 161.993685 203.660897 
L 162.02272 201.039658 
L 162.105923 201.039658 
L 162.116746 199.991163 
L 162.434765 199.991163 
L 162.434765 198.942667 
L 162.687802 198.942667 
L 162.788677 197.369924 
L 162.875165 197.369924 
L 162.875165 196.845677 
L 163.257378 196.845677 
L 163.257378 196.321429 
L 163.654377 196.321429 
L 163.713637 195.272933 
L 163.789061 195.272933 
L 163.880438 192.651695 
L 163.919452 192.651695 
L 163.919452 191.603199 
L 164.04886 191.603199 
L 164.04886 191.078952 
L 164.307966 191.078952 
L 164.307966 190.030456 
L 164.459688 190.030456 
L 164.459688 189.506209 
L 164.882431 189.506209 
L 164.882431 188.981961 
L 165.089967 188.981961 
L 165.165641 186.360722 
L 165.21691 186.360722 
L 165.301021 184.787979 
L 165.399626 184.787979 
L 165.494706 183.215236 
L 165.930625 183.215236 
L 165.930625 182.690988 
L 166.080193 182.690988 
L 166.140228 180.06975 
L 166.473724 180.06975 
L 166.473724 179.545502 
L 166.770637 179.545502 
L 166.789884 178.497006 
L 166.902183 178.497006 
L 166.902183 177.972759 
L 167.094935 177.972759 
L 167.191848 176.924263 
L 167.529438 176.924263 
L 167.529438 176.400016 
L 167.741339 176.400016 
L 167.741339 175.875768 
L 167.927528 175.875768 
L 167.927528 174.827272 
L 168.25363 174.827272 
L 168.25363 174.303025 
L 168.446861 174.303025 
L 168.536463 171.157538 
L 168.625601 171.157538 
L 168.625601 170.633291 
L 168.795166 170.633291 
L 168.861065 169.584795 
L 168.982437 169.584795 
L 168.982437 169.060547 
L 169.205934 169.060547 
L 169.296426 167.487804 
L 169.63974 167.487804 
L 169.718715 165.915061 
L 170.015098 165.915061 
L 170.015098 165.390813 
L 170.328838 165.390813 
L 170.328838 163.81807 
L 170.531177 163.81807 
L 170.601767 161.196832 
L 171.192485 161.196832 
L 171.192485 160.672584 
L 171.839535 160.672584 
L 171.923317 158.051345 
L 172.04317 158.051345 
L 172.049242 155.430107 
L 172.379937 155.430107 
L 172.379937 154.905859 
L 172.569455 154.905859 
L 172.569455 154.381611 
L 172.817002 154.381611 
L 172.894237 152.808868 
L 173.12198 152.808868 
L 173.12198 152.28462 
L 173.427246 152.28462 
L 173.427246 151.760373 
L 173.65361 151.760373 
L 173.65361 151.236125 
L 173.842428 151.236125 
L 173.842428 150.711877 
L 174.124511 150.711877 
L 174.235348 148.614886 
L 174.274507 148.614886 
L 174.308253 147.566391 
L 174.491808 147.566391 
L 174.533889 145.993648 
L 174.766971 145.993648 
L 174.808385 144.945152 
L 175.061591 144.945152 
L 175.061591 144.420905 
L 175.492608 144.420905 
L 175.492608 143.896657 
L 175.993704 143.896657 
L 175.993704 143.372409 
L 176.28876 143.372409 
L 176.301406 142.323914 
L 176.654856 142.323914 
L 176.724374 140.226923 
L 176.919065 140.226923 
L 176.937348 139.178427 
L 177.084422 139.178427 
L 177.098005 138.129932 
L 177.218268 138.129932 
L 177.218268 137.605684 
L 177.39117 137.605684 
L 177.478448 134.984446 
L 177.792798 134.984446 
L 177.792798 134.460198 
L 178.117149 134.460198 
L 178.179591 132.363207 
L 178.350147 132.363207 
L 178.371173 131.314712 
L 178.506522 131.314712 
L 178.544008 130.266216 
L 178.649087 130.266216 
L 178.649087 129.741969 
L 178.885911 129.741969 
L 178.949691 125.023739 
L 179.08461 125.023739 
L 179.08461 123.450996 
L 179.346019 123.450996 
L 179.43974 119.257014 
L 179.484441 119.257014 
L 179.484441 118.732766 
L 179.751522 118.732766 
L 179.843065 116.111528 
L 180.05521 116.111528 
L 180.05521 115.58728 
L 180.490388 115.58728 
L 180.490388 114.014537 
L 180.785058 114.014537 
L 180.825182 111.917546 
L 180.981142 111.917546 
L 181.083137 110.344803 
L 181.365547 110.344803 
L 181.452418 108.247812 
L 181.481667 108.247812 
L 181.549334 107.199317 
L 181.780648 107.199317 
L 181.884873 105.626573 
L 182.043997 105.626573 
L 182.043997 105.102326 
L 182.231902 105.102326 
L 182.254268 103.005335 
L 182.407809 103.005335 
L 182.407809 101.432592 
L 182.551205 101.432592 
L 182.551205 100.384096 
L 182.684696 100.384096 
L 182.684696 99.859849 
L 182.856053 99.859849 
L 182.865762 98.811353 
L 183.064142 98.811353 
L 183.09184 97.762858 
L 183.260259 97.762858 
L 183.333885 96.190115 
L 183.419735 96.190115 
L 183.472913 95.141619 
L 183.537341 95.141619 
L 183.643843 93.568876 
L 183.695306 93.568876 
L 183.695306 93.044628 
L 183.826353 93.044628 
L 183.826353 91.471885 
L 184.058341 91.471885 
L 184.163673 89.899142 
L 184.239513 89.899142 
L 184.239513 89.374894 
L 184.389208 89.374894 
L 184.461113 87.802151 
L 184.613771 87.802151 
L 184.662415 86.753656 
L 184.761223 86.753656 
L 184.768948 85.70516 
L 184.916037 85.70516 
L 184.954285 83.608169 
L 185.117788 83.608169 
L 185.167858 82.035426 
L 185.322809 82.035426 
L 185.431843 80.462683 
L 185.43463 80.462683 
L 185.506 78.365692 
L 185.801288 78.365692 
L 185.801288 77.841444 
L 185.953361 77.841444 
L 186.045935 76.268701 
L 186.111245 76.268701 
L 186.111245 75.744454 
L 186.248214 75.744454 
L 186.284497 74.695958 
L 186.470017 74.695958 
L 186.470017 74.17171 
L 186.682086 74.17171 
L 186.693311 73.123215 
L 186.812884 73.123215 
L 186.812884 72.598967 
L 187.615109 72.598967 
L 187.644538 71.026224 
L 187.841872 71.026224 
L 187.841872 69.453481 
L 188.459627 69.453481 
L 188.459627 68.929233 
L 188.750038 68.929233 
L 188.777587 67.35649 
L 189.173667 67.35649 
L 189.173667 66.832242 
L 189.435437 66.832242 
L 189.499345 64.735251 
L 189.566668 64.735251 
L 189.566668 64.211004 
L 189.804567 64.211004 
L 189.839107 63.162508 
L 189.937309 63.162508 
L 189.937309 62.638261 
L 190.069034 62.638261 
L 190.178627 58.968526 
L 190.360207 58.968526 
L 190.403391 57.920031 
L 190.552997 57.920031 
L 190.572295 56.347288 
L 190.859878 56.347288 
L 190.907907 55.298792 
L 190.988107 55.298792 
L 191.075294 54.250297 
L 191.199939 54.250297 
L 191.199939 53.726049 
L 191.3849 53.726049 
L 191.3849 53.201802 
L 191.502108 53.201802 
L 191.502108 52.677554 
L 191.620467 52.677554 
L 191.656075 49.532068 
L 191.736729 49.532068 
L 191.845175 46.910829 
L 191.863716 46.910829 
L 191.863716 46.386581 
L 192.131902 46.386581 
L 192.131902 45.862334 
L 192.440515 45.862334 
L 192.440515 45.338086 
L 193.555906 45.338086 
L 193.555906 44.813838 
L 193.922007 44.813838 
L 193.922007 43.765343 
L 194.656618 43.765343 
L 194.656618 42.716847 
L 194.857493 42.716847 
L 194.857493 41.668352 
L 195.178199 41.668352 
L 195.278023 40.095609 
L 195.745193 40.095609 
L 195.745193 39.571361 
L 197.034878 39.571361 
L 197.038188 37.47437 
L 197.24594 37.47437 
L 197.24594 36.425875 
L 197.546048 36.425875 
L 197.608831 35.377379 
L 198.059841 35.377379 
L 198.059841 34.328884 
L 198.372458 34.328884 
L 198.453217 32.756141 
L 198.772081 32.756141 
L 198.772081 32.231893 
L 199.005193 32.231893 
L 199.005193 31.183397 
L 199.234769 31.183397 
L 199.278409 29.086407 
L 206.561905 29.086407 
L 206.561905 28.562159 
L 207.096928 28.562159 
L 207.096928 28.037911 
L 218.140175 28.037911 
L 218.140175 27.513663 
L 333.168 27.513663 
L 333.168 27.513663 
" style="fill:none;stroke:#ff00ff;stroke-linecap:square;stroke-width:1.5;"/>
   </g>
   <g id="line2d_48">
    <defs>
     <path d="M -0 8.485281 
L 5.091169 0 
L 0 -8.485281 
L -5.091169 -0 
z
" id="mf1b1462a0a" style="stroke:#ff00ff;stroke-linejoin:miter;stroke-width:1.5;"/>
    </defs>
    <g>
     <use style="fill-opacity:0;stroke:#ff00ff;stroke-linejoin:miter;stroke-width:1.5;" x="167.191848" xlink:href="#mf1b1462a0a" y="176.924263"/>
     <use style="fill-opacity:0;stroke:#ff00ff;stroke-linejoin:miter;stroke-width:1.5;" x="195.178199" xlink:href="#mf1b1462a0a" y="41.668352"/>
     <use style="fill-opacity:0;stroke:#ff00ff;stroke-linejoin:miter;stroke-width:1.5;" x="218.140175" xlink:href="#mf1b1462a0a" y="27.513663"/>
     <use style="fill-opacity:0;stroke:#ff00ff;stroke-linejoin:miter;stroke-width:1.5;" x="218.140175" xlink:href="#mf1b1462a0a" y="27.513663"/>
     <use style="fill-opacity:0;stroke:#ff00ff;stroke-linejoin:miter;stroke-width:1.5;" x="333.168" xlink:href="#mf1b1462a0a" y="27.513663"/>
    </g>
   </g>
   <g id="line2d_49">
    <path style="fill:none;stroke:#ff00ff;stroke-linecap:square;stroke-width:1.5;"/>
    <g/>
   </g>
   <g id="line2d_50">
    <defs>
     <path d="M 0 1.5 
C 0.397805 1.5 0.77937 1.341951 1.06066 1.06066 
C 1.341951 0.77937 1.5 0.397805 1.5 0 
C 1.5 -0.397805 1.341951 -0.77937 1.06066 -1.06066 
C 0.77937 -1.341951 0.397805 -1.5 0 -1.5 
C -0.397805 -1.5 -0.77937 -1.341951 -1.06066 -1.06066 
C -1.341951 -0.77937 -1.5 -0.397805 -1.5 0 
C -1.5 0.397805 -1.341951 0.77937 -1.06066 1.06066 
C -0.77937 1.341951 -0.397805 1.5 0 1.5 
z
" id="m38fda43aaf" style="stroke:#ffa500;"/>
    </defs>
    <g>
     <use style="fill:#ffa500;stroke:#ffa500;" x="166.540769" xlink:href="#m38fda43aaf" y="27.513663"/>
     <use style="fill:#ffa500;stroke:#ffa500;" x="166.540769" xlink:href="#m38fda43aaf" y="27.513663"/>
    </g>
   </g>
   <g id="line2d_51">
    <path d="M 103.884099 294.88 
L 103.884099 294.355752 
L 146.533852 294.355752 
L 146.533852 292.783009 
L 147.640391 292.783009 
L 147.640391 292.258761 
L 148.401907 292.258761 
L 148.401907 291.734514 
L 149.98473 291.734514 
L 149.98473 291.210266 
L 150.467326 291.210266 
L 150.467326 290.161771 
L 151.088123 290.161771 
L 151.176953 289.113275 
L 151.660793 289.113275 
L 151.660793 288.589027 
L 151.812527 288.589027 
L 151.812527 288.06478 
L 152.702068 288.06478 
L 152.702068 287.016284 
L 153.224185 287.016284 
L 153.224185 285.967789 
L 153.422692 285.967789 
L 153.524065 284.919293 
L 153.68385 284.919293 
L 153.789554 282.822302 
L 153.987461 282.822302 
L 154.085567 281.773807 
L 154.154482 281.773807 
L 154.154482 281.249559 
L 154.517436 281.249559 
L 154.623729 277.055578 
L 154.834363 277.055578 
L 154.911319 274.434339 
L 155.091364 274.434339 
L 155.156369 271.8131 
L 155.435255 271.8131 
L 155.536037 269.716109 
L 155.886784 269.716109 
L 155.886784 268.667614 
L 156.031271 268.667614 
L 156.108178 267.094871 
L 156.321704 267.094871 
L 156.422458 264.99788 
L 156.617246 264.99788 
L 156.681688 263.949385 
L 156.736028 263.949385 
L 156.844195 261.328146 
L 156.898024 261.328146 
L 156.898024 260.803898 
L 157.01974 260.803898 
L 157.121319 257.134164 
L 157.145417 257.134164 
L 157.183902 255.037173 
L 157.450915 255.037173 
L 157.450915 254.512926 
L 157.727817 254.512926 
L 157.811415 253.46443 
L 157.848439 253.46443 
L 157.945251 250.318944 
L 158.023225 250.318944 
L 158.050661 249.270448 
L 158.150886 249.270448 
L 158.150886 248.746201 
L 158.30464 248.746201 
L 158.331631 246.64921 
L 158.416823 246.64921 
L 158.510494 244.027971 
L 158.546045 244.027971 
L 158.643431 241.93098 
L 158.731488 241.93098 
L 158.757817 240.358237 
L 158.88451 240.358237 
L 158.941001 239.309742 
L 158.997308 239.309742 
L 159.066356 237.736999 
L 159.10937 237.736999 
L 159.147992 235.640008 
L 159.284613 235.640008 
L 159.365222 232.494521 
L 159.428594 232.494521 
L 159.44124 229.873283 
L 159.546267 229.873283 
L 159.650656 228.30054 
L 159.696387 228.30054 
L 159.803998 225.679301 
L 159.836973 225.679301 
L 159.902736 224.630806 
L 160.021293 224.630806 
L 160.074175 222.009567 
L 160.191559 222.009567 
L 160.264017 218.339833 
L 160.328169 218.339833 
L 160.435885 214.670099 
L 160.467671 214.670099 
L 160.527113 212.04886 
L 160.645384 212.04886 
L 160.676786 211.000365 
L 160.852361 211.000365 
L 160.887262 208.903374 
L 161.026161 208.903374 
L 161.110494 206.806383 
L 161.19061 206.806383 
L 161.270354 202.088154 
L 161.308198 202.088154 
L 161.383636 200.515411 
L 161.428741 200.515411 
L 161.529796 198.942667 
L 161.548444 198.942667 
L 161.645094 197.894172 
L 161.704301 197.894172 
L 161.755941 195.797181 
L 161.825776 195.797181 
L 161.935468 190.554704 
L 161.957322 190.554704 
L 162.062563 185.836474 
L 162.113139 185.836474 
L 162.217433 182.16674 
L 162.231768 182.16674 
L 162.285421 180.06975 
L 162.363811 180.06975 
L 162.470133 175.875768 
L 162.498374 175.875768 
L 162.600363 169.060547 
L 162.61088 169.060547 
L 162.701751 163.81807 
L 162.736574 163.81807 
L 162.844079 159.099841 
L 162.895857 159.099841 
L 163.002374 151.760373 
L 163.033175 151.760373 
L 163.125248 142.323914 
L 163.166011 142.323914 
L 163.274244 138.65418 
L 163.280986 138.65418 
L 163.388499 130.790464 
L 163.395197 130.790464 
L 163.468695 127.644978 
L 163.515304 127.644978 
L 163.614756 121.878253 
L 163.637879 121.878253 
L 163.746471 112.966042 
L 163.785789 112.966042 
L 163.85764 109.296308 
L 163.912956 109.296308 
L 164.01337 104.578078 
L 164.04886 104.578078 
L 164.151691 98.811353 
L 164.161299 98.811353 
L 164.269826 91.471885 
L 164.273007 91.471885 
L 164.352357 85.180912 
L 164.393474 85.180912 
L 164.494269 79.938435 
L 164.513103 79.938435 
L 164.622555 75.744454 
L 164.635019 75.744454 
L 164.737509 69.977729 
L 164.762263 69.977729 
L 164.860924 63.162508 
L 164.888571 63.162508 
L 164.989564 56.871536 
L 165.01091 56.871536 
L 165.111189 53.726049 
L 165.135411 53.726049 
L 165.207874 51.629058 
L 165.313003 51.629058 
L 165.423445 50.580563 
L 165.432369 50.580563 
L 165.524311 49.00782 
L 165.565672 49.00782 
L 165.636347 44.28959 
L 165.703805 44.28959 
L 165.782659 42.192599 
L 165.855351 42.192599 
L 165.945063 37.998618 
L 166.025694 37.998618 
L 166.134519 30.65915 
L 166.256838 30.65915 
L 166.2795 29.610654 
L 166.459723 29.610654 
L 166.540769 27.513663 
L 333.168 27.513663 
L 333.168 27.513663 
" style="fill:none;stroke:#ffa500;stroke-linecap:square;stroke-width:1.5;"/>
   </g>
   <g id="line2d_52">
    <defs>
     <path d="M 0 -6 
L -1.347084 -1.854102 
L -5.706339 -1.854102 
L -2.179628 0.708204 
L -3.526712 4.854102 
L -0 2.291796 
L 3.526712 4.854102 
L 2.179628 0.708204 
L 5.706339 -1.854102 
L 1.347084 -1.854102 
z
" id="m27c860ed74" style="stroke:#ffa500;stroke-linejoin:bevel;stroke-width:1.5;"/>
    </defs>
    <g>
     <use style="fill-opacity:0;stroke:#ffa500;stroke-linejoin:bevel;stroke-width:1.5;" x="160.061985" xlink:href="#m27c860ed74" y="223.058063"/>
     <use style="fill-opacity:0;stroke:#ffa500;stroke-linejoin:bevel;stroke-width:1.5;" x="166.540769" xlink:href="#m27c860ed74" y="28.562159"/>
     <use style="fill-opacity:0;stroke:#ffa500;stroke-linejoin:bevel;stroke-width:1.5;" x="166.540769" xlink:href="#m27c860ed74" y="27.513663"/>
     <use style="fill-opacity:0;stroke:#ffa500;stroke-linejoin:bevel;stroke-width:1.5;" x="166.540769" xlink:href="#m27c860ed74" y="27.513663"/>
     <use style="fill-opacity:0;stroke:#ffa500;stroke-linejoin:bevel;stroke-width:1.5;" x="333.168" xlink:href="#m27c860ed74" y="27.513663"/>
    </g>
   </g>
   <g id="line2d_53">
    <path style="fill:none;stroke:#ffa500;stroke-linecap:square;stroke-width:1.5;"/>
    <g/>
   </g>
   <g id="line2d_54">
    <path d="M 333.168 27.513663 
L 363.64328 289.532673 
" style="fill:none;stroke:#ff00ff;stroke-linecap:square;stroke-width:1.5;"/>
    <g>
     <use style="fill-opacity:0;stroke:#ff00ff;stroke-linejoin:miter;stroke-width:1.5;" x="333.168" xlink:href="#mf1b1462a0a" y="27.513663"/>
     <use style="fill-opacity:0;stroke:#ff00ff;stroke-linejoin:miter;stroke-width:1.5;" x="363.64328" xlink:href="#mf1b1462a0a" y="289.532673"/>
    </g>
   </g>
   <g id="line2d_55">
    <path d="M 333.168 27.513663 
L 363.64328 203.975446 
" style="fill:none;stroke:#000080;stroke-linecap:square;stroke-width:1.5;"/>
    <g>
     <use style="fill-opacity:0;stroke:#000080;stroke-width:1.5;" x="333.168" xlink:href="#m8638a4e5a8" y="27.513663"/>
     <use style="fill-opacity:0;stroke:#000080;stroke-width:1.5;" x="363.64328" xlink:href="#m8638a4e5a8" y="203.975446"/>
    </g>
   </g>
   <g id="line2d_56">
    <path d="M 333.168 27.513663 
L 363.64328 118.418218 
" style="fill:none;stroke:#ffa500;stroke-linecap:square;stroke-width:1.5;"/>
    <g>
     <use style="fill-opacity:0;stroke:#ffa500;stroke-linejoin:bevel;stroke-width:1.5;" x="333.168" xlink:href="#m27c860ed74" y="27.513663"/>
     <use style="fill-opacity:0;stroke:#ffa500;stroke-linejoin:bevel;stroke-width:1.5;" x="363.64328" xlink:href="#m27c860ed74" y="118.418218"/>
    </g>
   </g>
   <g id="line2d_57">
    <path d="M 333.168 294.88 
L 333.168 27.513663 
" style="fill:none;stroke:#000000;stroke-linecap:square;stroke-width:1.5;"/>
   </g>
   <g id="patch_3">
    <path d="M 56.12 294.88 
L 56.12 24.84 
" style="fill:none;stroke:#000000;stroke-linecap:square;stroke-linejoin:miter;stroke-width:0.8;"/>
   </g>
   <g id="patch_4">
    <path d="M 333.168 294.88 
L 333.168 24.84 
" style="fill:none;stroke:#000000;stroke-linecap:square;stroke-linejoin:miter;stroke-width:0.8;"/>
   </g>
   <g id="patch_5">
    <path d="M 56.12 294.88 
L 333.168 294.88 
" style="fill:none;stroke:#000000;stroke-linecap:square;stroke-linejoin:miter;stroke-width:0.8;"/>
   </g>
   <g id="patch_6">
    <path d="M 56.12 24.84 
L 333.168 24.84 
" style="fill:none;stroke:#000000;stroke-linecap:square;stroke-linejoin:miter;stroke-width:0.8;"/>
   </g>
   <g id="text_13">
    <!-- R-SHADE-T -->
    <defs>
     <path d="M 44.390625 34.1875 
Q 47.5625 33.109375 50.5625 29.59375 
Q 53.5625 26.078125 56.59375 19.921875 
L 66.609375 0 
L 56 0 
L 46.6875 18.703125 
Q 43.0625 26.03125 39.671875 28.421875 
Q 36.28125 30.8125 30.421875 30.8125 
L 19.671875 30.8125 
L 19.671875 0 
L 9.8125 0 
L 9.8125 72.90625 
L 32.078125 72.90625 
Q 44.578125 72.90625 50.734375 67.671875 
Q 56.890625 62.453125 56.890625 51.90625 
Q 56.890625 45.015625 53.6875 40.46875 
Q 50.484375 35.9375 44.390625 34.1875 
z
M 19.671875 64.796875 
L 19.671875 38.921875 
L 32.078125 38.921875 
Q 39.203125 38.921875 42.84375 42.21875 
Q 46.484375 45.515625 46.484375 51.90625 
Q 46.484375 58.296875 42.84375 61.546875 
Q 39.203125 64.796875 32.078125 64.796875 
z
" id="DejaVuSans-52"/>
     <path d="M 53.515625 70.515625 
L 53.515625 60.890625 
Q 47.90625 63.578125 42.921875 64.890625 
Q 37.9375 66.21875 33.296875 66.21875 
Q 25.25 66.21875 20.875 63.09375 
Q 16.5 59.96875 16.5 54.203125 
Q 16.5 49.359375 19.40625 46.890625 
Q 22.3125 44.4375 30.421875 42.921875 
L 36.375 41.703125 
Q 47.40625 39.59375 52.65625 34.296875 
Q 57.90625 29 57.90625 20.125 
Q 57.90625 9.515625 50.796875 4.046875 
Q 43.703125 -1.421875 29.984375 -1.421875 
Q 24.8125 -1.421875 18.96875 -0.25 
Q 13.140625 0.921875 6.890625 3.21875 
L 6.890625 13.375 
Q 12.890625 10.015625 18.65625 8.296875 
Q 24.421875 6.59375 29.984375 6.59375 
Q 38.421875 6.59375 43.015625 9.90625 
Q 47.609375 13.234375 47.609375 19.390625 
Q 47.609375 24.75 44.3125 27.78125 
Q 41.015625 30.8125 33.5 32.328125 
L 27.484375 33.5 
Q 16.453125 35.6875 11.515625 40.375 
Q 6.59375 45.0625 6.59375 53.421875 
Q 6.59375 63.09375 13.40625 68.65625 
Q 20.21875 74.21875 32.171875 74.21875 
Q 37.3125 74.21875 42.625 73.28125 
Q 47.953125 72.359375 53.515625 70.515625 
z
" id="DejaVuSans-53"/>
     <path d="M 9.8125 72.90625 
L 19.671875 72.90625 
L 19.671875 43.015625 
L 55.515625 43.015625 
L 55.515625 72.90625 
L 65.375 72.90625 
L 65.375 0 
L 55.515625 0 
L 55.515625 34.71875 
L 19.671875 34.71875 
L 19.671875 0 
L 9.8125 0 
z
" id="DejaVuSans-48"/>
     <path d="M 34.1875 63.1875 
L 20.796875 26.90625 
L 47.609375 26.90625 
z
M 28.609375 72.90625 
L 39.796875 72.90625 
L 67.578125 0 
L 57.328125 0 
L 50.6875 18.703125 
L 17.828125 18.703125 
L 11.1875 0 
L 0.78125 0 
z
" id="DejaVuSans-41"/>
     <path d="M 19.671875 64.796875 
L 19.671875 8.109375 
L 31.59375 8.109375 
Q 46.6875 8.109375 53.6875 14.9375 
Q 60.6875 21.78125 60.6875 36.53125 
Q 60.6875 51.171875 53.6875 57.984375 
Q 46.6875 64.796875 31.59375 64.796875 
z
M 9.8125 72.90625 
L 30.078125 72.90625 
Q 51.265625 72.90625 61.171875 64.09375 
Q 71.09375 55.28125 71.09375 36.53125 
Q 71.09375 17.671875 61.125 8.828125 
Q 51.171875 0 30.078125 0 
L 9.8125 0 
z
" id="DejaVuSans-44"/>
     <path d="M 9.8125 72.90625 
L 55.90625 72.90625 
L 55.90625 64.59375 
L 19.671875 64.59375 
L 19.671875 43.015625 
L 54.390625 43.015625 
L 54.390625 34.71875 
L 19.671875 34.71875 
L 19.671875 8.296875 
L 56.78125 8.296875 
L 56.78125 0 
L 9.8125 0 
z
" id="DejaVuSans-45"/>
     <path d="M -0.296875 72.90625 
L 61.375 72.90625 
L 61.375 64.59375 
L 35.5 64.59375 
L 35.5 0 
L 25.59375 0 
L 25.59375 64.59375 
L -0.296875 64.59375 
z
" id="DejaVuSans-54"/>
    </defs>
    <g transform="translate(369.18424 294.223611)scale(0.17 -0.17)">
     <use xlink:href="#DejaVuSans-52"/>
     <use x="69.419922" xlink:href="#DejaVuSans-2d"/>
     <use x="105.503906" xlink:href="#DejaVuSans-53"/>
     <use x="168.980469" xlink:href="#DejaVuSans-48"/>
     <use x="244.175781" xlink:href="#DejaVuSans-41"/>
     <use x="312.583984" xlink:href="#DejaVuSans-44"/>
     <use x="389.585938" xlink:href="#DejaVuSans-45"/>
     <use x="452.769531" xlink:href="#DejaVuSans-2d"/>
     <use x="488.712891" xlink:href="#DejaVuSans-54"/>
    </g>
   </g>
   <g id="text_14">
    <!-- SHADE2-BL -->
    <defs>
     <path d="M 19.671875 34.8125 
L 19.671875 8.109375 
L 35.5 8.109375 
Q 43.453125 8.109375 47.28125 11.40625 
Q 51.125 14.703125 51.125 21.484375 
Q 51.125 28.328125 47.28125 31.5625 
Q 43.453125 34.8125 35.5 34.8125 
z
M 19.671875 64.796875 
L 19.671875 42.828125 
L 34.28125 42.828125 
Q 41.5 42.828125 45.03125 45.53125 
Q 48.578125 48.25 48.578125 53.8125 
Q 48.578125 59.328125 45.03125 62.0625 
Q 41.5 64.796875 34.28125 64.796875 
z
M 9.8125 72.90625 
L 35.015625 72.90625 
Q 46.296875 72.90625 52.390625 68.21875 
Q 58.5 63.53125 58.5 54.890625 
Q 58.5 48.1875 55.375 44.234375 
Q 52.25 40.28125 46.1875 39.3125 
Q 53.46875 37.75 57.5 32.78125 
Q 61.53125 27.828125 61.53125 20.40625 
Q 61.53125 10.640625 54.890625 5.3125 
Q 48.25 0 35.984375 0 
L 9.8125 0 
z
" id="DejaVuSans-42"/>
     <path d="M 9.8125 72.90625 
L 19.671875 72.90625 
L 19.671875 8.296875 
L 55.171875 8.296875 
L 55.171875 0 
L 9.8125 0 
z
" id="DejaVuSans-4c"/>
    </defs>
    <g transform="translate(369.18424 208.666383)scale(0.17 -0.17)">
     <use xlink:href="#DejaVuSans-53"/>
     <use x="63.476562" xlink:href="#DejaVuSans-48"/>
     <use x="138.671875" xlink:href="#DejaVuSans-41"/>
     <use x="207.080078" xlink:href="#DejaVuSans-44"/>
     <use x="284.082031" xlink:href="#DejaVuSans-45"/>
     <use x="347.265625" xlink:href="#DejaVuSans-32"/>
     <use x="410.888672" xlink:href="#DejaVuSans-2d"/>
     <use x="446.925781" xlink:href="#DejaVuSans-42"/>
     <use x="515.529297" xlink:href="#DejaVuSans-4c"/>
    </g>
   </g>
   <g id="text_15">
    <!-- KL-BIPOP- -->
    <defs>
     <path d="M 9.8125 72.90625 
L 19.671875 72.90625 
L 19.671875 42.09375 
L 52.390625 72.90625 
L 65.09375 72.90625 
L 28.90625 38.921875 
L 67.671875 0 
L 54.6875 0 
L 19.671875 35.109375 
L 19.671875 0 
L 9.8125 0 
z
" id="DejaVuSans-4b"/>
     <path d="M 9.8125 72.90625 
L 19.671875 72.90625 
L 19.671875 0 
L 9.8125 0 
z
" id="DejaVuSans-49"/>
     <path d="M 19.671875 64.796875 
L 19.671875 37.40625 
L 32.078125 37.40625 
Q 38.96875 37.40625 42.71875 40.96875 
Q 46.484375 44.53125 46.484375 51.125 
Q 46.484375 57.671875 42.71875 61.234375 
Q 38.96875 64.796875 32.078125 64.796875 
z
M 9.8125 72.90625 
L 32.078125 72.90625 
Q 44.34375 72.90625 50.609375 67.359375 
Q 56.890625 61.8125 56.890625 51.125 
Q 56.890625 40.328125 50.609375 34.8125 
Q 44.34375 29.296875 32.078125 29.296875 
L 19.671875 29.296875 
L 19.671875 0 
L 9.8125 0 
z
" id="DejaVuSans-50"/>
     <path d="M 39.40625 66.21875 
Q 28.65625 66.21875 22.328125 58.203125 
Q 16.015625 50.203125 16.015625 36.375 
Q 16.015625 22.609375 22.328125 14.59375 
Q 28.65625 6.59375 39.40625 6.59375 
Q 50.140625 6.59375 56.421875 14.59375 
Q 62.703125 22.609375 62.703125 36.375 
Q 62.703125 50.203125 56.421875 58.203125 
Q 50.140625 66.21875 39.40625 66.21875 
z
M 39.40625 74.21875 
Q 54.734375 74.21875 63.90625 63.9375 
Q 73.09375 53.65625 73.09375 36.375 
Q 73.09375 19.140625 63.90625 8.859375 
Q 54.734375 -1.421875 39.40625 -1.421875 
Q 24.03125 -1.421875 14.8125 8.828125 
Q 5.609375 19.09375 5.609375 36.375 
Q 5.609375 53.65625 14.8125 63.9375 
Q 24.03125 74.21875 39.40625 74.21875 
z
" id="DejaVuSans-4f"/>
    </defs>
    <g transform="translate(369.18424 123.109155)scale(0.17 -0.17)">
     <use xlink:href="#DejaVuSans-4b"/>
     <use x="65.576172" xlink:href="#DejaVuSans-4c"/>
     <use x="121.273438" xlink:href="#DejaVuSans-2d"/>
     <use x="157.310547" xlink:href="#DejaVuSans-42"/>
     <use x="225.914062" xlink:href="#DejaVuSans-49"/>
     <use x="255.40625" xlink:href="#DejaVuSans-50"/>
     <use x="315.708984" xlink:href="#DejaVuSans-4f"/>
     <use x="394.419922" xlink:href="#DejaVuSans-50"/>
     <use x="454.691406" xlink:href="#DejaVuSans-2d"/>
    </g>
   </g>
   <g id="text_16">
    <!-- best 2009 -->
    <defs>
     <path d="M 48.6875 27.296875 
Q 48.6875 37.203125 44.609375 42.84375 
Q 40.53125 48.484375 33.40625 48.484375 
Q 26.265625 48.484375 22.1875 42.84375 
Q 18.109375 37.203125 18.109375 27.296875 
Q 18.109375 17.390625 22.1875 11.75 
Q 26.265625 6.109375 33.40625 6.109375 
Q 40.53125 6.109375 44.609375 11.75 
Q 48.6875 17.390625 48.6875 27.296875 
z
M 18.109375 46.390625 
Q 20.953125 51.265625 25.265625 53.625 
Q 29.59375 56 35.59375 56 
Q 45.5625 56 51.78125 48.09375 
Q 58.015625 40.1875 58.015625 27.296875 
Q 58.015625 14.40625 51.78125 6.484375 
Q 45.5625 -1.421875 35.59375 -1.421875 
Q 29.59375 -1.421875 25.265625 0.953125 
Q 20.953125 3.328125 18.109375 8.203125 
L 18.109375 0 
L 9.078125 0 
L 9.078125 75.984375 
L 18.109375 75.984375 
z
" id="DejaVuSans-62"/>
     <path d="M 10.984375 1.515625 
L 10.984375 10.5 
Q 14.703125 8.734375 18.5 7.8125 
Q 22.3125 6.890625 25.984375 6.890625 
Q 35.75 6.890625 40.890625 13.453125 
Q 46.046875 20.015625 46.78125 33.40625 
Q 43.953125 29.203125 39.59375 26.953125 
Q 35.25 24.703125 29.984375 24.703125 
Q 19.046875 24.703125 12.671875 31.3125 
Q 6.296875 37.9375 6.296875 49.421875 
Q 6.296875 60.640625 12.9375 67.421875 
Q 19.578125 74.21875 30.609375 74.21875 
Q 43.265625 74.21875 49.921875 64.515625 
Q 56.59375 54.828125 56.59375 36.375 
Q 56.59375 19.140625 48.40625 8.859375 
Q 40.234375 -1.421875 26.421875 -1.421875 
Q 22.703125 -1.421875 18.890625 -0.6875 
Q 15.09375 0.046875 10.984375 1.515625 
z
M 30.609375 32.421875 
Q 37.25 32.421875 41.125 36.953125 
Q 45.015625 41.5 45.015625 49.421875 
Q 45.015625 57.28125 41.125 61.84375 
Q 37.25 66.40625 30.609375 66.40625 
Q 23.96875 66.40625 20.09375 61.84375 
Q 16.21875 57.28125 16.21875 49.421875 
Q 16.21875 41.5 20.09375 36.953125 
Q 23.96875 32.421875 30.609375 32.421875 
z
" id="DejaVuSans-39"/>
    </defs>
    <g transform="translate(369.18424 37.551928)scale(0.17 -0.17)">
     <use xlink:href="#DejaVuSans-62"/>
     <use x="63.476562" xlink:href="#DejaVuSans-65"/>
     <use x="125" xlink:href="#DejaVuSans-73"/>
     <use x="177.099609" xlink:href="#DejaVuSans-74"/>
     <use x="216.308594" xlink:href="#DejaVuSans-20"/>
     <use x="248.095703" xlink:href="#DejaVuSans-32"/>
     <use x="311.71875" xlink:href="#DejaVuSans-30"/>
     <use x="375.341797" xlink:href="#DejaVuSans-30"/>
     <use x="438.964844" xlink:href="#DejaVuSans-39"/>
    </g>
   </g>
   <g id="text_17">
    <!-- bbob f11, 10-D -->
    <g transform="translate(58.89048 35.290806)scale(0.102 -0.102)">
     <use xlink:href="#DejaVuSans-62"/>
     <use x="63.476562" xlink:href="#DejaVuSans-62"/>
     <use x="126.953125" xlink:href="#DejaVuSans-6f"/>
     <use x="188.134766" xlink:href="#DejaVuSans-62"/>
     <use x="251.611328" xlink:href="#DejaVuSans-20"/>
     <use x="283.398438" xlink:href="#DejaVuSans-66"/>
     <use x="318.603516" xlink:href="#DejaVuSans-31"/>
     <use x="382.226562" xlink:href="#DejaVuSans-31"/>
     <use x="445.849609" xlink:href="#DejaVuSans-2c"/>
     <use x="477.636719" xlink:href="#DejaVuSans-20"/>
     <use x="509.423828" xlink:href="#DejaVuSans-31"/>
     <use x="573.046875" xlink:href="#DejaVuSans-30"/>
     <use x="636.669922" xlink:href="#DejaVuSans-2d"/>
     <use x="672.753906" xlink:href="#DejaVuSans-44"/>
    </g>
    <!-- 51 targets: 100..1e-08 -->
    <defs>
     <path d="M 10.796875 72.90625 
L 49.515625 72.90625 
L 49.515625 64.59375 
L 19.828125 64.59375 
L 19.828125 46.734375 
Q 21.96875 47.46875 24.109375 47.828125 
Q 26.265625 48.1875 28.421875 48.1875 
Q 40.625 48.1875 47.75 41.5 
Q 54.890625 34.8125 54.890625 23.390625 
Q 54.890625 11.625 47.5625 5.09375 
Q 40.234375 -1.421875 26.90625 -1.421875 
Q 22.3125 -1.421875 17.546875 -0.640625 
Q 12.796875 0.140625 7.71875 1.703125 
L 7.71875 11.625 
Q 12.109375 9.234375 16.796875 8.0625 
Q 21.484375 6.890625 26.703125 6.890625 
Q 35.15625 6.890625 40.078125 11.328125 
Q 45.015625 15.765625 45.015625 23.390625 
Q 45.015625 31 40.078125 35.4375 
Q 35.15625 39.890625 26.703125 39.890625 
Q 22.75 39.890625 18.8125 39.015625 
Q 14.890625 38.140625 10.796875 36.28125 
z
" id="DejaVuSans-35"/>
     <path d="M 11.71875 12.40625 
L 22.015625 12.40625 
L 22.015625 0 
L 11.71875 0 
z
M 11.71875 51.703125 
L 22.015625 51.703125 
L 22.015625 39.3125 
L 11.71875 39.3125 
z
" id="DejaVuSans-3a"/>
    </defs>
    <g transform="translate(58.89048 46.712575)scale(0.102 -0.102)">
     <use xlink:href="#DejaVuSans-35"/>
     <use x="63.623047" xlink:href="#DejaVuSans-31"/>
     <use x="127.246094" xlink:href="#DejaVuSans-20"/>
     <use x="159.033203" xlink:href="#DejaVuSans-74"/>
     <use x="198.242188" xlink:href="#DejaVuSans-61"/>
     <use x="259.521484" xlink:href="#DejaVuSans-72"/>
     <use x="300.619141" xlink:href="#DejaVuSans-67"/>
     <use x="364.095703" xlink:href="#DejaVuSans-65"/>
     <use x="425.619141" xlink:href="#DejaVuSans-74"/>
     <use x="464.828125" xlink:href="#DejaVuSans-73"/>
     <use x="516.927734" xlink:href="#DejaVuSans-3a"/>
     <use x="550.619141" xlink:href="#DejaVuSans-20"/>
     <use x="582.40625" xlink:href="#DejaVuSans-31"/>
     <use x="646.029297" xlink:href="#DejaVuSans-30"/>
     <use x="709.652344" xlink:href="#DejaVuSans-30"/>
     <use x="773.275391" xlink:href="#DejaVuSans-2e"/>
     <use x="805.0625" xlink:href="#DejaVuSans-2e"/>
     <use x="836.849609" xlink:href="#DejaVuSans-31"/>
     <use x="900.472656" xlink:href="#DejaVuSans-65"/>
     <use x="961.996094" xlink:href="#DejaVuSans-2d"/>
     <use x="998.080078" xlink:href="#DejaVuSans-30"/>
     <use x="1061.703125" xlink:href="#DejaVuSans-38"/>
    </g>
    <!-- 15 instances -->
    <g transform="translate(58.89048 58.134344)scale(0.102 -0.102)">
     <use xlink:href="#DejaVuSans-31"/>
     <use x="63.623047" xlink:href="#DejaVuSans-35"/>
     <use x="127.246094" xlink:href="#DejaVuSans-20"/>
     <use x="159.033203" xlink:href="#DejaVuSans-69"/>
     <use x="186.816406" xlink:href="#DejaVuSans-6e"/>
     <use x="250.195312" xlink:href="#DejaVuSans-73"/>
     <use x="302.294922" xlink:href="#DejaVuSans-74"/>
     <use x="341.503906" xlink:href="#DejaVuSans-61"/>
     <use x="402.783203" xlink:href="#DejaVuSans-6e"/>
     <use x="466.162109" xlink:href="#DejaVuSans-63"/>
     <use x="521.142578" xlink:href="#DejaVuSans-65"/>
     <use x="582.666016" xlink:href="#DejaVuSans-73"/>
    </g>
   </g>
   <g id="text_18">
    <!-- v0.0.0 -->
    <g style="fill:#808080;" transform="translate(178.96275 290.099912)scale(0.1 -0.1)">
     <use xlink:href="#DejaVuSans-76"/>
     <use x="59.179688" xlink:href="#DejaVuSans-30"/>
     <use x="122.802734" xlink:href="#DejaVuSans-2e"/>
     <use x="154.589844" xlink:href="#DejaVuSans-30"/>
     <use x="218.212891" xlink:href="#DejaVuSans-2e"/>
     <use x="250" xlink:href="#DejaVuSans-30"/>
    </g>
   </g>
   <g id="text_19">
    <!-- 11 Discus -->
    <g transform="translate(146.008062 18.84)scale(0.2 -0.2)">
     <use xlink:href="#DejaVuSans-31"/>
     <use x="63.623047" xlink:href="#DejaVuSans-31"/>
     <use x="127.246094" xlink:href="#DejaVuSans-20"/>
     <use x="159.033203" xlink:href="#DejaVuSans-44"/>
     <use x="236.035156" xlink:href="#DejaVuSans-69"/>
     <use x="263.818359" xlink:href="#DejaVuSans-73"/>
     <use x="315.917969" xlink:href="#DejaVuSans-63"/>
     <use x="370.898438" xlink:href="#DejaVuSans-75"/>
     <use x="434.277344" xlink:href="#DejaVuSans-73"/>
    </g>
   </g>
  </g>
 </g>
 <defs>
  <clipPath id="p9845ba8e5e">
   <rect height="270.04" width="277.048" x="56.12" y="24.84"/>
  </clipPath>
 </defs>
</svg>
