<?xml version="1.0" encoding="utf-8" standalone="no"?>
<!DOCTYPE svg PUBLIC "-//W3C//DTD SVG 1.1//EN"
  "http://www.w3.org/Graphics/SVG/1.1/DTD/svg11.dtd">
<!-- Created with matplotlib (http://matplotlib.org/) -->
<svg height="345.6pt" version="1.1" viewBox="0 0 460.8 345.6" width="460.8pt" xmlns="http://www.w3.org/2000/svg" xmlns:xlink="http://www.w3.org/1999/xlink">
 <defs>
  <style type="text/css">
*{stroke-linecap:butt;stroke-linejoin:round;}
  </style>
 </defs>
 <g id="figure_1">
  <g id="patch_1">
   <path d="M 0 345.6 
L 460.8 345.6 
L 460.8 0 
L 0 0 
z
" style="fill:#ffffff;"/>
  </g>
  <g id="axes_1">
   <g id="patch_2">
    <path d="M 56.12 294.88 
L 333.168 294.88 
L 333.168 24.84 
L 56.12 24.84 
z
" style="fill:#ffffff;"/>
   </g>
   <g id="line2d_1">
    <path d="M 76.11297 294.88 
L 76.11297 289.637523 
L 83.784035 289.637523 
L 83.784035 284.395046 
L 89.567532 284.395046 
L 89.567532 279.152568 
L 97.021141 279.152568 
L 97.021141 273.910091 
L 101.966002 273.910091 
L 101.966002 268.667614 
L 109.864733 268.667614 
L 109.864733 263.425137 
L 114.466953 263.425137 
L 114.466953 258.18266 
L 116.529892 258.18266 
L 116.529892 252.940182 
L 118.186736 252.940182 
L 118.186736 247.697705 
L 119.354037 247.697705 
L 119.354037 242.455228 
L 120.689748 242.455228 
L 120.689748 237.212751 
L 121.627542 237.212751 
L 121.627542 231.970274 
L 122.588877 231.970274 
L 122.588877 226.727797 
L 123.635161 226.727797 
L 123.635161 221.485319 
L 124.233665 221.485319 
L 124.233665 216.242842 
L 125.371564 216.242842 
L 125.371564 211.000365 
L 126.836558 211.000365 
L 126.836558 205.757888 
L 127.7659 205.757888 
L 127.7659 200.515411 
L 128.546153 200.515411 
L 128.546153 195.272933 
L 130.377486 195.272933 
L 130.377486 190.030456 
L 131.612072 190.030456 
L 131.612072 184.787979 
L 133.234845 184.787979 
L 133.234845 179.545502 
L 134.503128 179.545502 
L 134.503128 174.303025 
L 135.379395 174.303025 
L 135.379395 169.060547 
L 136.342875 169.060547 
L 136.342875 163.81807 
L 137.827708 163.81807 
L 137.827708 158.575593 
L 138.862788 158.575593 
L 138.862788 153.333116 
L 139.839061 153.333116 
L 139.839061 148.090639 
L 140.762851 148.090639 
L 140.762851 142.848162 
L 141.206772 142.848162 
L 141.206772 137.605684 
L 142.154044 137.605684 
L 142.154044 132.363207 
L 143.462385 132.363207 
L 143.462385 127.12073 
L 145.013063 127.12073 
L 145.013063 121.878253 
L 146.471234 121.878253 
L 146.471234 116.635776 
L 147.156411 116.635776 
L 147.156411 111.393298 
L 147.831886 111.393298 
L 147.831886 106.150821 
L 148.497755 106.150821 
L 148.497755 100.908344 
L 148.875888 100.908344 
L 148.875888 95.665867 
L 149.321972 95.665867 
L 149.321972 90.42339 
L 149.741959 90.42339 
L 149.741959 85.180912 
L 149.918859 85.180912 
L 149.918859 79.938435 
L 150.424656 79.938435 
L 150.424656 74.695958 
L 150.957462 74.695958 
L 150.957462 69.453481 
L 151.326243 69.453481 
L 151.326243 64.211004 
L 151.674041 64.211004 
L 151.674041 58.968526 
L 152.118486 58.968526 
L 152.118486 53.726049 
L 152.400064 53.726049 
L 152.400064 48.483572 
L 152.851103 48.483572 
L 152.851103 43.241095 
L 153.206025 43.241095 
L 153.206025 37.998618 
L 153.553767 37.998618 
L 153.553767 32.756141 
L 153.871321 32.756141 
L 153.871321 27.513663 
L 333.168 27.513663 
" style="fill:none;stroke:#f5deb3;stroke-linecap:square;stroke-width:4;"/>
   </g>
   <g id="line2d_2">
    <defs>
     <path d="M -0 7.778175 
L 7.778175 0 
L 0 -7.778175 
L -7.778175 -0 
z
" id="m0972036bdf" style="stroke:#f5deb3;stroke-linejoin:miter;stroke-width:1.5;"/>
    </defs>
    <g>
     <use style="fill:#f5deb3;stroke:#f5deb3;stroke-linejoin:miter;stroke-width:1.5;" x="124.233665" xlink:href="#m0972036bdf" y="221.485319"/>
     <use style="fill:#f5deb3;stroke:#f5deb3;stroke-linejoin:miter;stroke-width:1.5;" x="149.741959" xlink:href="#m0972036bdf" y="90.42339"/>
     <use style="fill:#f5deb3;stroke:#f5deb3;stroke-linejoin:miter;stroke-width:1.5;" x="153.871321" xlink:href="#m0972036bdf" y="27.513663"/>
     <use style="fill:#f5deb3;stroke:#f5deb3;stroke-linejoin:miter;stroke-width:1.5;" x="153.871321" xlink:href="#m0972036bdf" y="27.513663"/>
     <use style="fill:#f5deb3;stroke:#f5deb3;stroke-linejoin:miter;stroke-width:1.5;" x="333.168" xlink:href="#m0972036bdf" y="27.513663"/>
    </g>
   </g>
   <g id="line2d_3">
    <path style="fill:none;stroke:#f5deb3;stroke-linecap:square;stroke-width:4;"/>
    <g/>
   </g>
   <g id="line2d_4">
    <path d="M 333.168 27.513663 
L 363.64328 32.86099 
" style="fill:none;stroke:#f5deb3;stroke-linecap:square;stroke-width:4;"/>
    <g>
     <use style="fill:#f5deb3;stroke:#f5deb3;stroke-linejoin:miter;stroke-width:1.5;" x="333.168" xlink:href="#m0972036bdf" y="27.513663"/>
     <use style="fill:#f5deb3;stroke:#f5deb3;stroke-linejoin:miter;stroke-width:1.5;" x="363.64328" xlink:href="#m0972036bdf" y="32.86099"/>
    </g>
   </g>
   <g id="matplotlib.axis_1">
    <g id="xtick_1">
     <g id="line2d_5">
      <path clip-path="url(#p1b8fe060a3)" d="M 56.12 294.88 
L 56.12 24.84 
" style="fill:none;stroke:#b0b0b0;stroke-linecap:square;stroke-width:0.8;"/>
     </g>
     <g id="line2d_6">
      <defs>
       <path d="M 0 0 
L 0 3.5 
" id="m9b69cc27eb" style="stroke:#000000;stroke-width:0.8;"/>
      </defs>
      <g>
       <use style="stroke:#000000;stroke-width:0.8;" x="56.12" xlink:href="#m9b69cc27eb" y="294.88"/>
      </g>
     </g>
     <g id="text_1">
      <!-- 0 -->
      <defs>
       <path d="M 31.78125 66.40625 
Q 24.171875 66.40625 20.328125 58.90625 
Q 16.5 51.421875 16.5 36.375 
Q 16.5 21.390625 20.328125 13.890625 
Q 24.171875 6.390625 31.78125 6.390625 
Q 39.453125 6.390625 43.28125 13.890625 
Q 47.125 21.390625 47.125 36.375 
Q 47.125 51.421875 43.28125 58.90625 
Q 39.453125 66.40625 31.78125 66.40625 
z
M 31.78125 74.21875 
Q 44.046875 74.21875 50.515625 64.515625 
Q 56.984375 54.828125 56.984375 36.375 
Q 56.984375 17.96875 50.515625 8.265625 
Q 44.046875 -1.421875 31.78125 -1.421875 
Q 19.53125 -1.421875 13.0625 8.265625 
Q 6.59375 17.96875 6.59375 36.375 
Q 6.59375 54.828125 13.0625 64.515625 
Q 19.53125 74.21875 31.78125 74.21875 
z
" id="DejaVuSans-30"/>
      </defs>
      <g transform="translate(49.7575 317.076875)scale(0.2 -0.2)">
       <use xlink:href="#DejaVuSans-30"/>
      </g>
     </g>
    </g>
    <g id="xtick_2">
     <g id="line2d_7">
      <path clip-path="url(#p1b8fe060a3)" d="M 135.276571 294.88 
L 135.276571 24.84 
" style="fill:none;stroke:#b0b0b0;stroke-linecap:square;stroke-width:0.8;"/>
     </g>
     <g id="line2d_8">
      <g>
       <use style="stroke:#000000;stroke-width:0.8;" x="135.276571" xlink:href="#m9b69cc27eb" y="294.88"/>
      </g>
     </g>
     <g id="text_2">
      <!-- 2 -->
      <defs>
       <path d="M 19.1875 8.296875 
L 53.609375 8.296875 
L 53.609375 0 
L 7.328125 0 
L 7.328125 8.296875 
Q 12.9375 14.109375 22.625 23.890625 
Q 32.328125 33.6875 34.8125 36.53125 
Q 39.546875 41.84375 41.421875 45.53125 
Q 43.3125 49.21875 43.3125 52.78125 
Q 43.3125 58.59375 39.234375 62.25 
Q 35.15625 65.921875 28.609375 65.921875 
Q 23.96875 65.921875 18.8125 64.3125 
Q 13.671875 62.703125 7.8125 59.421875 
L 7.8125 69.390625 
Q 13.765625 71.78125 18.9375 73 
Q 24.125 74.21875 28.421875 74.21875 
Q 39.75 74.21875 46.484375 68.546875 
Q 53.21875 62.890625 53.21875 53.421875 
Q 53.21875 48.921875 51.53125 44.890625 
Q 49.859375 40.875 45.40625 35.40625 
Q 44.1875 33.984375 37.640625 27.21875 
Q 31.109375 20.453125 19.1875 8.296875 
z
" id="DejaVuSans-32"/>
      </defs>
      <g transform="translate(128.914071 317.076875)scale(0.2 -0.2)">
       <use xlink:href="#DejaVuSans-32"/>
      </g>
     </g>
    </g>
    <g id="xtick_3">
     <g id="line2d_9">
      <path clip-path="url(#p1b8fe060a3)" d="M 214.433143 294.88 
L 214.433143 24.84 
" style="fill:none;stroke:#b0b0b0;stroke-linecap:square;stroke-width:0.8;"/>
     </g>
     <g id="line2d_10">
      <g>
       <use style="stroke:#000000;stroke-width:0.8;" x="214.433143" xlink:href="#m9b69cc27eb" y="294.88"/>
      </g>
     </g>
     <g id="text_3">
      <!-- 4 -->
      <defs>
       <path d="M 37.796875 64.3125 
L 12.890625 25.390625 
L 37.796875 25.390625 
z
M 35.203125 72.90625 
L 47.609375 72.90625 
L 47.609375 25.390625 
L 58.015625 25.390625 
L 58.015625 17.1875 
L 47.609375 17.1875 
L 47.609375 0 
L 37.796875 0 
L 37.796875 17.1875 
L 4.890625 17.1875 
L 4.890625 26.703125 
z
" id="DejaVuSans-34"/>
      </defs>
      <g transform="translate(208.070643 317.076875)scale(0.2 -0.2)">
       <use xlink:href="#DejaVuSans-34"/>
      </g>
     </g>
    </g>
    <g id="xtick_4">
     <g id="line2d_11">
      <path clip-path="url(#p1b8fe060a3)" d="M 293.589714 294.88 
L 293.589714 24.84 
" style="fill:none;stroke:#b0b0b0;stroke-linecap:square;stroke-width:0.8;"/>
     </g>
     <g id="line2d_12">
      <g>
       <use style="stroke:#000000;stroke-width:0.8;" x="293.589714" xlink:href="#m9b69cc27eb" y="294.88"/>
      </g>
     </g>
     <g id="text_4">
      <!-- 6 -->
      <defs>
       <path d="M 33.015625 40.375 
Q 26.375 40.375 22.484375 35.828125 
Q 18.609375 31.296875 18.609375 23.390625 
Q 18.609375 15.53125 22.484375 10.953125 
Q 26.375 6.390625 33.015625 6.390625 
Q 39.65625 6.390625 43.53125 10.953125 
Q 47.40625 15.53125 47.40625 23.390625 
Q 47.40625 31.296875 43.53125 35.828125 
Q 39.65625 40.375 33.015625 40.375 
z
M 52.59375 71.296875 
L 52.59375 62.3125 
Q 48.875 64.0625 45.09375 64.984375 
Q 41.3125 65.921875 37.59375 65.921875 
Q 27.828125 65.921875 22.671875 59.328125 
Q 17.53125 52.734375 16.796875 39.40625 
Q 19.671875 43.65625 24.015625 45.921875 
Q 28.375 48.1875 33.59375 48.1875 
Q 44.578125 48.1875 50.953125 41.515625 
Q 57.328125 34.859375 57.328125 23.390625 
Q 57.328125 12.15625 50.6875 5.359375 
Q 44.046875 -1.421875 33.015625 -1.421875 
Q 20.359375 -1.421875 13.671875 8.265625 
Q 6.984375 17.96875 6.984375 36.375 
Q 6.984375 53.65625 15.1875 63.9375 
Q 23.390625 74.21875 37.203125 74.21875 
Q 40.921875 74.21875 44.703125 73.484375 
Q 48.484375 72.75 52.59375 71.296875 
z
" id="DejaVuSans-36"/>
      </defs>
      <g transform="translate(287.227214 317.076875)scale(0.2 -0.2)">
       <use xlink:href="#DejaVuSans-36"/>
      </g>
     </g>
    </g>
    <g id="xtick_5">
     <g id="line2d_13">
      <path clip-path="url(#p1b8fe060a3)" d="M 56.12 294.88 
L 56.12 24.84 
" style="fill:none;stroke:#b0b0b0;stroke-linecap:square;stroke-width:0.8;"/>
     </g>
     <g id="line2d_14">
      <defs>
       <path d="M 0 0 
L 0 2 
" id="m6e5bae7ae3" style="stroke:#000000;stroke-width:0.6;"/>
      </defs>
      <g>
       <use style="stroke:#000000;stroke-width:0.6;" x="56.12" xlink:href="#m6e5bae7ae3" y="294.88"/>
      </g>
     </g>
    </g>
    <g id="xtick_6">
     <g id="line2d_15">
      <path clip-path="url(#p1b8fe060a3)" d="M 95.698286 294.88 
L 95.698286 24.84 
" style="fill:none;stroke:#b0b0b0;stroke-linecap:square;stroke-width:0.8;"/>
     </g>
     <g id="line2d_16">
      <g>
       <use style="stroke:#000000;stroke-width:0.6;" x="95.698286" xlink:href="#m6e5bae7ae3" y="294.88"/>
      </g>
     </g>
    </g>
    <g id="xtick_7">
     <g id="line2d_17">
      <path clip-path="url(#p1b8fe060a3)" d="M 135.276571 294.88 
L 135.276571 24.84 
" style="fill:none;stroke:#b0b0b0;stroke-linecap:square;stroke-width:0.8;"/>
     </g>
     <g id="line2d_18">
      <g>
       <use style="stroke:#000000;stroke-width:0.6;" x="135.276571" xlink:href="#m6e5bae7ae3" y="294.88"/>
      </g>
     </g>
    </g>
    <g id="xtick_8">
     <g id="line2d_19">
      <path clip-path="url(#p1b8fe060a3)" d="M 174.854857 294.88 
L 174.854857 24.84 
" style="fill:none;stroke:#b0b0b0;stroke-linecap:square;stroke-width:0.8;"/>
     </g>
     <g id="line2d_20">
      <g>
       <use style="stroke:#000000;stroke-width:0.6;" x="174.854857" xlink:href="#m6e5bae7ae3" y="294.88"/>
      </g>
     </g>
    </g>
    <g id="xtick_9">
     <g id="line2d_21">
      <path clip-path="url(#p1b8fe060a3)" d="M 214.433143 294.88 
L 214.433143 24.84 
" style="fill:none;stroke:#b0b0b0;stroke-linecap:square;stroke-width:0.8;"/>
     </g>
     <g id="line2d_22">
      <g>
       <use style="stroke:#000000;stroke-width:0.6;" x="214.433143" xlink:href="#m6e5bae7ae3" y="294.88"/>
      </g>
     </g>
    </g>
    <g id="xtick_10">
     <g id="line2d_23">
      <path clip-path="url(#p1b8fe060a3)" d="M 254.011429 294.88 
L 254.011429 24.84 
" style="fill:none;stroke:#b0b0b0;stroke-linecap:square;stroke-width:0.8;"/>
     </g>
     <g id="line2d_24">
      <g>
       <use style="stroke:#000000;stroke-width:0.6;" x="254.011429" xlink:href="#m6e5bae7ae3" y="294.88"/>
      </g>
     </g>
    </g>
    <g id="xtick_11">
     <g id="line2d_25">
      <path clip-path="url(#p1b8fe060a3)" d="M 293.589714 294.88 
L 293.589714 24.84 
" style="fill:none;stroke:#b0b0b0;stroke-linecap:square;stroke-width:0.8;"/>
     </g>
     <g id="line2d_26">
      <g>
       <use style="stroke:#000000;stroke-width:0.6;" x="293.589714" xlink:href="#m6e5bae7ae3" y="294.88"/>
      </g>
     </g>
    </g>
    <g id="xtick_12">
     <g id="line2d_27">
      <path clip-path="url(#p1b8fe060a3)" d="M 333.168 294.88 
L 333.168 24.84 
" style="fill:none;stroke:#b0b0b0;stroke-linecap:square;stroke-width:0.8;"/>
     </g>
     <g id="line2d_28">
      <g>
       <use style="stroke:#000000;stroke-width:0.6;" x="333.168" xlink:href="#m6e5bae7ae3" y="294.88"/>
      </g>
     </g>
    </g>
    <g id="text_5">
     <!-- log10(# f-evals / dimension) -->
     <defs>
      <path d="M 9.421875 75.984375 
L 18.40625 75.984375 
L 18.40625 0 
L 9.421875 0 
z
" id="DejaVuSans-6c"/>
      <path d="M 30.609375 48.390625 
Q 23.390625 48.390625 19.1875 42.75 
Q 14.984375 37.109375 14.984375 27.296875 
Q 14.984375 17.484375 19.15625 11.84375 
Q 23.34375 6.203125 30.609375 6.203125 
Q 37.796875 6.203125 41.984375 11.859375 
Q 46.1875 17.53125 46.1875 27.296875 
Q 46.1875 37.015625 41.984375 42.703125 
Q 37.796875 48.390625 30.609375 48.390625 
z
M 30.609375 56 
Q 42.328125 56 49.015625 48.375 
Q 55.71875 40.765625 55.71875 27.296875 
Q 55.71875 13.875 49.015625 6.21875 
Q 42.328125 -1.421875 30.609375 -1.421875 
Q 18.84375 -1.421875 12.171875 6.21875 
Q 5.515625 13.875 5.515625 27.296875 
Q 5.515625 40.765625 12.171875 48.375 
Q 18.84375 56 30.609375 56 
z
" id="DejaVuSans-6f"/>
      <path d="M 45.40625 27.984375 
Q 45.40625 37.75 41.375 43.109375 
Q 37.359375 48.484375 30.078125 48.484375 
Q 22.859375 48.484375 18.828125 43.109375 
Q 14.796875 37.75 14.796875 27.984375 
Q 14.796875 18.265625 18.828125 12.890625 
Q 22.859375 7.515625 30.078125 7.515625 
Q 37.359375 7.515625 41.375 12.890625 
Q 45.40625 18.265625 45.40625 27.984375 
z
M 54.390625 6.78125 
Q 54.390625 -7.171875 48.1875 -13.984375 
Q 42 -20.796875 29.203125 -20.796875 
Q 24.46875 -20.796875 20.265625 -20.09375 
Q 16.0625 -19.390625 12.109375 -17.921875 
L 12.109375 -9.1875 
Q 16.0625 -11.328125 19.921875 -12.34375 
Q 23.78125 -13.375 27.78125 -13.375 
Q 36.625 -13.375 41.015625 -8.765625 
Q 45.40625 -4.15625 45.40625 5.171875 
L 45.40625 9.625 
Q 42.625 4.78125 38.28125 2.390625 
Q 33.9375 0 27.875 0 
Q 17.828125 0 11.671875 7.65625 
Q 5.515625 15.328125 5.515625 27.984375 
Q 5.515625 40.671875 11.671875 48.328125 
Q 17.828125 56 27.875 56 
Q 33.9375 56 38.28125 53.609375 
Q 42.625 51.21875 45.40625 46.390625 
L 45.40625 54.6875 
L 54.390625 54.6875 
z
" id="DejaVuSans-67"/>
      <path d="M 12.40625 8.296875 
L 28.515625 8.296875 
L 28.515625 63.921875 
L 10.984375 60.40625 
L 10.984375 69.390625 
L 28.421875 72.90625 
L 38.28125 72.90625 
L 38.28125 8.296875 
L 54.390625 8.296875 
L 54.390625 0 
L 12.40625 0 
z
" id="DejaVuSans-31"/>
      <path d="M 31 75.875 
Q 24.46875 64.65625 21.28125 53.65625 
Q 18.109375 42.671875 18.109375 31.390625 
Q 18.109375 20.125 21.3125 9.0625 
Q 24.515625 -2 31 -13.1875 
L 23.1875 -13.1875 
Q 15.875 -1.703125 12.234375 9.375 
Q 8.59375 20.453125 8.59375 31.390625 
Q 8.59375 42.28125 12.203125 53.3125 
Q 15.828125 64.359375 23.1875 75.875 
z
" id="DejaVuSans-28"/>
      <path d="M 51.125 44 
L 36.921875 44 
L 32.8125 27.6875 
L 47.125 27.6875 
z
M 43.796875 71.78125 
L 38.71875 51.515625 
L 52.984375 51.515625 
L 58.109375 71.78125 
L 65.921875 71.78125 
L 60.890625 51.515625 
L 76.125 51.515625 
L 76.125 44 
L 58.984375 44 
L 54.984375 27.6875 
L 70.515625 27.6875 
L 70.515625 20.21875 
L 53.078125 20.21875 
L 48 0 
L 40.1875 0 
L 45.21875 20.21875 
L 30.90625 20.21875 
L 25.875 0 
L 18.015625 0 
L 23.09375 20.21875 
L 7.71875 20.21875 
L 7.71875 27.6875 
L 24.90625 27.6875 
L 29 44 
L 13.28125 44 
L 13.28125 51.515625 
L 30.90625 51.515625 
L 35.890625 71.78125 
z
" id="DejaVuSans-23"/>
      <path id="DejaVuSans-20"/>
      <path d="M 37.109375 75.984375 
L 37.109375 68.5 
L 28.515625 68.5 
Q 23.6875 68.5 21.796875 66.546875 
Q 19.921875 64.59375 19.921875 59.515625 
L 19.921875 54.6875 
L 34.71875 54.6875 
L 34.71875 47.703125 
L 19.921875 47.703125 
L 19.921875 0 
L 10.890625 0 
L 10.890625 47.703125 
L 2.296875 47.703125 
L 2.296875 54.6875 
L 10.890625 54.6875 
L 10.890625 58.5 
Q 10.890625 67.625 15.140625 71.796875 
Q 19.390625 75.984375 28.609375 75.984375 
z
" id="DejaVuSans-66"/>
      <path d="M 4.890625 31.390625 
L 31.203125 31.390625 
L 31.203125 23.390625 
L 4.890625 23.390625 
z
" id="DejaVuSans-2d"/>
      <path d="M 56.203125 29.59375 
L 56.203125 25.203125 
L 14.890625 25.203125 
Q 15.484375 15.921875 20.484375 11.0625 
Q 25.484375 6.203125 34.421875 6.203125 
Q 39.59375 6.203125 44.453125 7.46875 
Q 49.3125 8.734375 54.109375 11.28125 
L 54.109375 2.78125 
Q 49.265625 0.734375 44.1875 -0.34375 
Q 39.109375 -1.421875 33.890625 -1.421875 
Q 20.796875 -1.421875 13.15625 6.1875 
Q 5.515625 13.8125 5.515625 26.8125 
Q 5.515625 40.234375 12.765625 48.109375 
Q 20.015625 56 32.328125 56 
Q 43.359375 56 49.78125 48.890625 
Q 56.203125 41.796875 56.203125 29.59375 
z
M 47.21875 32.234375 
Q 47.125 39.59375 43.09375 43.984375 
Q 39.0625 48.390625 32.421875 48.390625 
Q 24.90625 48.390625 20.390625 44.140625 
Q 15.875 39.890625 15.1875 32.171875 
z
" id="DejaVuSans-65"/>
      <path d="M 2.984375 54.6875 
L 12.5 54.6875 
L 29.59375 8.796875 
L 46.6875 54.6875 
L 56.203125 54.6875 
L 35.6875 0 
L 23.484375 0 
z
" id="DejaVuSans-76"/>
      <path d="M 34.28125 27.484375 
Q 23.390625 27.484375 19.1875 25 
Q 14.984375 22.515625 14.984375 16.5 
Q 14.984375 11.71875 18.140625 8.90625 
Q 21.296875 6.109375 26.703125 6.109375 
Q 34.1875 6.109375 38.703125 11.40625 
Q 43.21875 16.703125 43.21875 25.484375 
L 43.21875 27.484375 
z
M 52.203125 31.203125 
L 52.203125 0 
L 43.21875 0 
L 43.21875 8.296875 
Q 40.140625 3.328125 35.546875 0.953125 
Q 30.953125 -1.421875 24.3125 -1.421875 
Q 15.921875 -1.421875 10.953125 3.296875 
Q 6 8.015625 6 15.921875 
Q 6 25.140625 12.171875 29.828125 
Q 18.359375 34.515625 30.609375 34.515625 
L 43.21875 34.515625 
L 43.21875 35.40625 
Q 43.21875 41.609375 39.140625 45 
Q 35.0625 48.390625 27.6875 48.390625 
Q 23 48.390625 18.546875 47.265625 
Q 14.109375 46.140625 10.015625 43.890625 
L 10.015625 52.203125 
Q 14.9375 54.109375 19.578125 55.046875 
Q 24.21875 56 28.609375 56 
Q 40.484375 56 46.34375 49.84375 
Q 52.203125 43.703125 52.203125 31.203125 
z
" id="DejaVuSans-61"/>
      <path d="M 44.28125 53.078125 
L 44.28125 44.578125 
Q 40.484375 46.53125 36.375 47.5 
Q 32.28125 48.484375 27.875 48.484375 
Q 21.1875 48.484375 17.84375 46.4375 
Q 14.5 44.390625 14.5 40.28125 
Q 14.5 37.15625 16.890625 35.375 
Q 19.28125 33.59375 26.515625 31.984375 
L 29.59375 31.296875 
Q 39.15625 29.25 43.1875 25.515625 
Q 47.21875 21.78125 47.21875 15.09375 
Q 47.21875 7.46875 41.1875 3.015625 
Q 35.15625 -1.421875 24.609375 -1.421875 
Q 20.21875 -1.421875 15.453125 -0.5625 
Q 10.6875 0.296875 5.421875 2 
L 5.421875 11.28125 
Q 10.40625 8.6875 15.234375 7.390625 
Q 20.0625 6.109375 24.8125 6.109375 
Q 31.15625 6.109375 34.5625 8.28125 
Q 37.984375 10.453125 37.984375 14.40625 
Q 37.984375 18.0625 35.515625 20.015625 
Q 33.0625 21.96875 24.703125 23.78125 
L 21.578125 24.515625 
Q 13.234375 26.265625 9.515625 29.90625 
Q 5.8125 33.546875 5.8125 39.890625 
Q 5.8125 47.609375 11.28125 51.796875 
Q 16.75 56 26.8125 56 
Q 31.78125 56 36.171875 55.265625 
Q 40.578125 54.546875 44.28125 53.078125 
z
" id="DejaVuSans-73"/>
      <path d="M 25.390625 72.90625 
L 33.6875 72.90625 
L 8.296875 -9.28125 
L 0 -9.28125 
z
" id="DejaVuSans-2f"/>
      <path d="M 45.40625 46.390625 
L 45.40625 75.984375 
L 54.390625 75.984375 
L 54.390625 0 
L 45.40625 0 
L 45.40625 8.203125 
Q 42.578125 3.328125 38.25 0.953125 
Q 33.9375 -1.421875 27.875 -1.421875 
Q 17.96875 -1.421875 11.734375 6.484375 
Q 5.515625 14.40625 5.515625 27.296875 
Q 5.515625 40.1875 11.734375 48.09375 
Q 17.96875 56 27.875 56 
Q 33.9375 56 38.25 53.625 
Q 42.578125 51.265625 45.40625 46.390625 
z
M 14.796875 27.296875 
Q 14.796875 17.390625 18.875 11.75 
Q 22.953125 6.109375 30.078125 6.109375 
Q 37.203125 6.109375 41.296875 11.75 
Q 45.40625 17.390625 45.40625 27.296875 
Q 45.40625 37.203125 41.296875 42.84375 
Q 37.203125 48.484375 30.078125 48.484375 
Q 22.953125 48.484375 18.875 42.84375 
Q 14.796875 37.203125 14.796875 27.296875 
z
" id="DejaVuSans-64"/>
      <path d="M 9.421875 54.6875 
L 18.40625 54.6875 
L 18.40625 0 
L 9.421875 0 
z
M 9.421875 75.984375 
L 18.40625 75.984375 
L 18.40625 64.59375 
L 9.421875 64.59375 
z
" id="DejaVuSans-69"/>
      <path d="M 52 44.1875 
Q 55.375 50.25 60.0625 53.125 
Q 64.75 56 71.09375 56 
Q 79.640625 56 84.28125 50.015625 
Q 88.921875 44.046875 88.921875 33.015625 
L 88.921875 0 
L 79.890625 0 
L 79.890625 32.71875 
Q 79.890625 40.578125 77.09375 44.375 
Q 74.3125 48.1875 68.609375 48.1875 
Q 61.625 48.1875 57.5625 43.546875 
Q 53.515625 38.921875 53.515625 30.90625 
L 53.515625 0 
L 44.484375 0 
L 44.484375 32.71875 
Q 44.484375 40.625 41.703125 44.40625 
Q 38.921875 48.1875 33.109375 48.1875 
Q 26.21875 48.1875 22.15625 43.53125 
Q 18.109375 38.875 18.109375 30.90625 
L 18.109375 0 
L 9.078125 0 
L 9.078125 54.6875 
L 18.109375 54.6875 
L 18.109375 46.1875 
Q 21.1875 51.21875 25.484375 53.609375 
Q 29.78125 56 35.6875 56 
Q 41.65625 56 45.828125 52.96875 
Q 50 49.953125 52 44.1875 
z
" id="DejaVuSans-6d"/>
      <path d="M 54.890625 33.015625 
L 54.890625 0 
L 45.90625 0 
L 45.90625 32.71875 
Q 45.90625 40.484375 42.875 44.328125 
Q 39.84375 48.1875 33.796875 48.1875 
Q 26.515625 48.1875 22.3125 43.546875 
Q 18.109375 38.921875 18.109375 30.90625 
L 18.109375 0 
L 9.078125 0 
L 9.078125 54.6875 
L 18.109375 54.6875 
L 18.109375 46.1875 
Q 21.34375 51.125 25.703125 53.5625 
Q 30.078125 56 35.796875 56 
Q 45.21875 56 50.046875 50.171875 
Q 54.890625 44.34375 54.890625 33.015625 
z
" id="DejaVuSans-6e"/>
      <path d="M 8.015625 75.875 
L 15.828125 75.875 
Q 23.140625 64.359375 26.78125 53.3125 
Q 30.421875 42.28125 30.421875 31.390625 
Q 30.421875 20.453125 26.78125 9.375 
Q 23.140625 -1.703125 15.828125 -13.1875 
L 8.015625 -13.1875 
Q 14.5 -2 17.703125 9.0625 
Q 20.90625 20.125 20.90625 31.390625 
Q 20.90625 42.671875 17.703125 53.65625 
Q 14.5 64.65625 8.015625 75.875 
z
" id="DejaVuSans-29"/>
     </defs>
     <g transform="translate(73.803219 338.153594)scale(0.17 -0.17)">
      <use xlink:href="#DejaVuSans-6c"/>
      <use x="27.783203" xlink:href="#DejaVuSans-6f"/>
      <use x="88.964844" xlink:href="#DejaVuSans-67"/>
      <use x="152.441406" xlink:href="#DejaVuSans-31"/>
      <use x="216.064453" xlink:href="#DejaVuSans-30"/>
      <use x="279.6875" xlink:href="#DejaVuSans-28"/>
      <use x="318.701172" xlink:href="#DejaVuSans-23"/>
      <use x="402.490234" xlink:href="#DejaVuSans-20"/>
      <use x="434.277344" xlink:href="#DejaVuSans-66"/>
      <use x="469.404297" xlink:href="#DejaVuSans-2d"/>
      <use x="505.488281" xlink:href="#DejaVuSans-65"/>
      <use x="567.011719" xlink:href="#DejaVuSans-76"/>
      <use x="626.191406" xlink:href="#DejaVuSans-61"/>
      <use x="687.470703" xlink:href="#DejaVuSans-6c"/>
      <use x="715.253906" xlink:href="#DejaVuSans-73"/>
      <use x="767.353516" xlink:href="#DejaVuSans-20"/>
      <use x="799.140625" xlink:href="#DejaVuSans-2f"/>
      <use x="832.832031" xlink:href="#DejaVuSans-20"/>
      <use x="864.619141" xlink:href="#DejaVuSans-64"/>
      <use x="928.095703" xlink:href="#DejaVuSans-69"/>
      <use x="955.878906" xlink:href="#DejaVuSans-6d"/>
      <use x="1053.291016" xlink:href="#DejaVuSans-65"/>
      <use x="1114.814453" xlink:href="#DejaVuSans-6e"/>
      <use x="1178.193359" xlink:href="#DejaVuSans-73"/>
      <use x="1230.292969" xlink:href="#DejaVuSans-69"/>
      <use x="1258.076172" xlink:href="#DejaVuSans-6f"/>
      <use x="1319.257812" xlink:href="#DejaVuSans-6e"/>
      <use x="1382.636719" xlink:href="#DejaVuSans-29"/>
     </g>
    </g>
   </g>
   <g id="matplotlib.axis_2">
    <g id="ytick_1">
     <g id="line2d_29">
      <path clip-path="url(#p1b8fe060a3)" d="M 56.12 294.88 
L 333.168 294.88 
" style="fill:none;stroke:#b0b0b0;stroke-linecap:square;stroke-width:0.8;"/>
     </g>
     <g id="line2d_30">
      <defs>
       <path d="M 0 0 
L -3.5 0 
" id="m96e75e5079" style="stroke:#000000;stroke-width:0.8;"/>
      </defs>
      <g>
       <use style="stroke:#000000;stroke-width:0.8;" x="56.12" xlink:href="#m96e75e5079" y="294.88"/>
      </g>
     </g>
     <g id="text_6">
      <!-- 0.0 -->
      <defs>
       <path d="M 10.6875 12.40625 
L 21 12.40625 
L 21 0 
L 10.6875 0 
z
" id="DejaVuSans-2e"/>
      </defs>
      <g transform="translate(23.675 300.95875)scale(0.16 -0.16)">
       <use xlink:href="#DejaVuSans-30"/>
       <use x="63.623047" xlink:href="#DejaVuSans-2e"/>
       <use x="95.410156" xlink:href="#DejaVuSans-30"/>
      </g>
     </g>
    </g>
    <g id="ytick_2">
     <g id="line2d_31">
      <path clip-path="url(#p1b8fe060a3)" d="M 56.12 241.406733 
L 333.168 241.406733 
" style="fill:none;stroke:#b0b0b0;stroke-linecap:square;stroke-width:0.8;"/>
     </g>
     <g id="line2d_32">
      <g>
       <use style="stroke:#000000;stroke-width:0.8;" x="56.12" xlink:href="#m96e75e5079" y="241.406733"/>
      </g>
     </g>
     <g id="text_7">
      <!-- 0.2 -->
      <g transform="translate(23.675 247.485483)scale(0.16 -0.16)">
       <use xlink:href="#DejaVuSans-30"/>
       <use x="63.623047" xlink:href="#DejaVuSans-2e"/>
       <use x="95.410156" xlink:href="#DejaVuSans-32"/>
      </g>
     </g>
    </g>
    <g id="ytick_3">
     <g id="line2d_33">
      <path clip-path="url(#p1b8fe060a3)" d="M 56.12 187.933465 
L 333.168 187.933465 
" style="fill:none;stroke:#b0b0b0;stroke-linecap:square;stroke-width:0.8;"/>
     </g>
     <g id="line2d_34">
      <g>
       <use style="stroke:#000000;stroke-width:0.8;" x="56.12" xlink:href="#m96e75e5079" y="187.933465"/>
      </g>
     </g>
     <g id="text_8">
      <!-- 0.4 -->
      <g transform="translate(23.675 194.012215)scale(0.16 -0.16)">
       <use xlink:href="#DejaVuSans-30"/>
       <use x="63.623047" xlink:href="#DejaVuSans-2e"/>
       <use x="95.410156" xlink:href="#DejaVuSans-34"/>
      </g>
     </g>
    </g>
    <g id="ytick_4">
     <g id="line2d_35">
      <path clip-path="url(#p1b8fe060a3)" d="M 56.12 134.460198 
L 333.168 134.460198 
" style="fill:none;stroke:#b0b0b0;stroke-linecap:square;stroke-width:0.8;"/>
     </g>
     <g id="line2d_36">
      <g>
       <use style="stroke:#000000;stroke-width:0.8;" x="56.12" xlink:href="#m96e75e5079" y="134.460198"/>
      </g>
     </g>
     <g id="text_9">
      <!-- 0.6 -->
      <g transform="translate(23.675 140.538948)scale(0.16 -0.16)">
       <use xlink:href="#DejaVuSans-30"/>
       <use x="63.623047" xlink:href="#DejaVuSans-2e"/>
       <use x="95.410156" xlink:href="#DejaVuSans-36"/>
      </g>
     </g>
    </g>
    <g id="ytick_5">
     <g id="line2d_37">
      <path clip-path="url(#p1b8fe060a3)" d="M 56.12 80.986931 
L 333.168 80.986931 
" style="fill:none;stroke:#b0b0b0;stroke-linecap:square;stroke-width:0.8;"/>
     </g>
     <g id="line2d_38">
      <g>
       <use style="stroke:#000000;stroke-width:0.8;" x="56.12" xlink:href="#m96e75e5079" y="80.986931"/>
      </g>
     </g>
     <g id="text_10">
      <!-- 0.8 -->
      <defs>
       <path d="M 31.78125 34.625 
Q 24.75 34.625 20.71875 30.859375 
Q 16.703125 27.09375 16.703125 20.515625 
Q 16.703125 13.921875 20.71875 10.15625 
Q 24.75 6.390625 31.78125 6.390625 
Q 38.8125 6.390625 42.859375 10.171875 
Q 46.921875 13.96875 46.921875 20.515625 
Q 46.921875 27.09375 42.890625 30.859375 
Q 38.875 34.625 31.78125 34.625 
z
M 21.921875 38.8125 
Q 15.578125 40.375 12.03125 44.71875 
Q 8.5 49.078125 8.5 55.328125 
Q 8.5 64.0625 14.71875 69.140625 
Q 20.953125 74.21875 31.78125 74.21875 
Q 42.671875 74.21875 48.875 69.140625 
Q 55.078125 64.0625 55.078125 55.328125 
Q 55.078125 49.078125 51.53125 44.71875 
Q 48 40.375 41.703125 38.8125 
Q 48.828125 37.15625 52.796875 32.3125 
Q 56.78125 27.484375 56.78125 20.515625 
Q 56.78125 9.90625 50.3125 4.234375 
Q 43.84375 -1.421875 31.78125 -1.421875 
Q 19.734375 -1.421875 13.25 4.234375 
Q 6.78125 9.90625 6.78125 20.515625 
Q 6.78125 27.484375 10.78125 32.3125 
Q 14.796875 37.15625 21.921875 38.8125 
z
M 18.3125 54.390625 
Q 18.3125 48.734375 21.84375 45.5625 
Q 25.390625 42.390625 31.78125 42.390625 
Q 38.140625 42.390625 41.71875 45.5625 
Q 45.3125 48.734375 45.3125 54.390625 
Q 45.3125 60.0625 41.71875 63.234375 
Q 38.140625 66.40625 31.78125 66.40625 
Q 25.390625 66.40625 21.84375 63.234375 
Q 18.3125 60.0625 18.3125 54.390625 
z
" id="DejaVuSans-38"/>
      </defs>
      <g transform="translate(23.675 87.065681)scale(0.16 -0.16)">
       <use xlink:href="#DejaVuSans-30"/>
       <use x="63.623047" xlink:href="#DejaVuSans-2e"/>
       <use x="95.410156" xlink:href="#DejaVuSans-38"/>
      </g>
     </g>
    </g>
    <g id="ytick_6">
     <g id="line2d_39">
      <path clip-path="url(#p1b8fe060a3)" d="M 56.12 27.513663 
L 333.168 27.513663 
" style="fill:none;stroke:#b0b0b0;stroke-linecap:square;stroke-width:0.8;"/>
     </g>
     <g id="line2d_40">
      <g>
       <use style="stroke:#000000;stroke-width:0.8;" x="56.12" xlink:href="#m96e75e5079" y="27.513663"/>
      </g>
     </g>
     <g id="text_11">
      <!-- 1.0 -->
      <g transform="translate(23.675 33.592413)scale(0.16 -0.16)">
       <use xlink:href="#DejaVuSans-31"/>
       <use x="63.623047" xlink:href="#DejaVuSans-2e"/>
       <use x="95.410156" xlink:href="#DejaVuSans-30"/>
      </g>
     </g>
    </g>
    <g id="text_12">
     <!-- Fraction of function,target pairs -->
     <defs>
      <path d="M 9.8125 72.90625 
L 51.703125 72.90625 
L 51.703125 64.59375 
L 19.671875 64.59375 
L 19.671875 43.109375 
L 48.578125 43.109375 
L 48.578125 34.8125 
L 19.671875 34.8125 
L 19.671875 0 
L 9.8125 0 
z
" id="DejaVuSans-46"/>
      <path d="M 41.109375 46.296875 
Q 39.59375 47.171875 37.8125 47.578125 
Q 36.03125 48 33.890625 48 
Q 26.265625 48 22.1875 43.046875 
Q 18.109375 38.09375 18.109375 28.8125 
L 18.109375 0 
L 9.078125 0 
L 9.078125 54.6875 
L 18.109375 54.6875 
L 18.109375 46.1875 
Q 20.953125 51.171875 25.484375 53.578125 
Q 30.03125 56 36.53125 56 
Q 37.453125 56 38.578125 55.875 
Q 39.703125 55.765625 41.0625 55.515625 
z
" id="DejaVuSans-72"/>
      <path d="M 48.78125 52.59375 
L 48.78125 44.1875 
Q 44.96875 46.296875 41.140625 47.34375 
Q 37.3125 48.390625 33.40625 48.390625 
Q 24.65625 48.390625 19.8125 42.84375 
Q 14.984375 37.3125 14.984375 27.296875 
Q 14.984375 17.28125 19.8125 11.734375 
Q 24.65625 6.203125 33.40625 6.203125 
Q 37.3125 6.203125 41.140625 7.25 
Q 44.96875 8.296875 48.78125 10.40625 
L 48.78125 2.09375 
Q 45.015625 0.34375 40.984375 -0.53125 
Q 36.96875 -1.421875 32.421875 -1.421875 
Q 20.0625 -1.421875 12.78125 6.34375 
Q 5.515625 14.109375 5.515625 27.296875 
Q 5.515625 40.671875 12.859375 48.328125 
Q 20.21875 56 33.015625 56 
Q 37.15625 56 41.109375 55.140625 
Q 45.0625 54.296875 48.78125 52.59375 
z
" id="DejaVuSans-63"/>
      <path d="M 18.3125 70.21875 
L 18.3125 54.6875 
L 36.8125 54.6875 
L 36.8125 47.703125 
L 18.3125 47.703125 
L 18.3125 18.015625 
Q 18.3125 11.328125 20.140625 9.421875 
Q 21.96875 7.515625 27.59375 7.515625 
L 36.8125 7.515625 
L 36.8125 0 
L 27.59375 0 
Q 17.1875 0 13.234375 3.875 
Q 9.28125 7.765625 9.28125 18.015625 
L 9.28125 47.703125 
L 2.6875 47.703125 
L 2.6875 54.6875 
L 9.28125 54.6875 
L 9.28125 70.21875 
z
" id="DejaVuSans-74"/>
      <path d="M 8.5 21.578125 
L 8.5 54.6875 
L 17.484375 54.6875 
L 17.484375 21.921875 
Q 17.484375 14.15625 20.5 10.265625 
Q 23.53125 6.390625 29.59375 6.390625 
Q 36.859375 6.390625 41.078125 11.03125 
Q 45.3125 15.671875 45.3125 23.6875 
L 45.3125 54.6875 
L 54.296875 54.6875 
L 54.296875 0 
L 45.3125 0 
L 45.3125 8.40625 
Q 42.046875 3.421875 37.71875 1 
Q 33.40625 -1.421875 27.6875 -1.421875 
Q 18.265625 -1.421875 13.375 4.4375 
Q 8.5 10.296875 8.5 21.578125 
z
M 31.109375 56 
z
" id="DejaVuSans-75"/>
      <path d="M 11.71875 12.40625 
L 22.015625 12.40625 
L 22.015625 4 
L 14.015625 -11.625 
L 7.71875 -11.625 
L 11.71875 4 
z
" id="DejaVuSans-2c"/>
      <path d="M 18.109375 8.203125 
L 18.109375 -20.796875 
L 9.078125 -20.796875 
L 9.078125 54.6875 
L 18.109375 54.6875 
L 18.109375 46.390625 
Q 20.953125 51.265625 25.265625 53.625 
Q 29.59375 56 35.59375 56 
Q 45.5625 56 51.78125 48.09375 
Q 58.015625 40.1875 58.015625 27.296875 
Q 58.015625 14.40625 51.78125 6.484375 
Q 45.5625 -1.421875 35.59375 -1.421875 
Q 29.59375 -1.421875 25.265625 0.953125 
Q 20.953125 3.328125 18.109375 8.203125 
z
M 48.6875 27.296875 
Q 48.6875 37.203125 44.609375 42.84375 
Q 40.53125 48.484375 33.40625 48.484375 
Q 26.265625 48.484375 22.1875 42.84375 
Q 18.109375 37.203125 18.109375 27.296875 
Q 18.109375 17.390625 22.1875 11.75 
Q 26.265625 6.109375 33.40625 6.109375 
Q 40.53125 6.109375 44.609375 11.75 
Q 48.6875 17.390625 48.6875 27.296875 
z
" id="DejaVuSans-70"/>
     </defs>
     <g transform="translate(16.139531 294.999375)rotate(-90)scale(0.17 -0.17)">
      <use xlink:href="#DejaVuSans-46"/>
      <use x="57.410156" xlink:href="#DejaVuSans-72"/>
      <use x="98.523438" xlink:href="#DejaVuSans-61"/>
      <use x="159.802734" xlink:href="#DejaVuSans-63"/>
      <use x="214.783203" xlink:href="#DejaVuSans-74"/>
      <use x="253.992188" xlink:href="#DejaVuSans-69"/>
      <use x="281.775391" xlink:href="#DejaVuSans-6f"/>
      <use x="342.957031" xlink:href="#DejaVuSans-6e"/>
      <use x="406.335938" xlink:href="#DejaVuSans-20"/>
      <use x="438.123047" xlink:href="#DejaVuSans-6f"/>
      <use x="499.304688" xlink:href="#DejaVuSans-66"/>
      <use x="534.509766" xlink:href="#DejaVuSans-20"/>
      <use x="566.296875" xlink:href="#DejaVuSans-66"/>
      <use x="601.501953" xlink:href="#DejaVuSans-75"/>
      <use x="664.880859" xlink:href="#DejaVuSans-6e"/>
      <use x="728.259766" xlink:href="#DejaVuSans-63"/>
      <use x="783.240234" xlink:href="#DejaVuSans-74"/>
      <use x="822.449219" xlink:href="#DejaVuSans-69"/>
      <use x="850.232422" xlink:href="#DejaVuSans-6f"/>
      <use x="911.414062" xlink:href="#DejaVuSans-6e"/>
      <use x="974.792969" xlink:href="#DejaVuSans-2c"/>
      <use x="1006.580078" xlink:href="#DejaVuSans-74"/>
      <use x="1045.789062" xlink:href="#DejaVuSans-61"/>
      <use x="1107.068359" xlink:href="#DejaVuSans-72"/>
      <use x="1148.166016" xlink:href="#DejaVuSans-67"/>
      <use x="1211.642578" xlink:href="#DejaVuSans-65"/>
      <use x="1273.166016" xlink:href="#DejaVuSans-74"/>
      <use x="1312.375" xlink:href="#DejaVuSans-20"/>
      <use x="1344.162109" xlink:href="#DejaVuSans-70"/>
      <use x="1407.638672" xlink:href="#DejaVuSans-61"/>
      <use x="1468.917969" xlink:href="#DejaVuSans-69"/>
      <use x="1496.701172" xlink:href="#DejaVuSans-72"/>
      <use x="1537.814453" xlink:href="#DejaVuSans-73"/>
     </g>
    </g>
   </g>
   <g id="line2d_41">
    <defs>
     <path d="M 0 1.5 
C 0.397805 1.5 0.77937 1.341951 1.06066 1.06066 
C 1.341951 0.77937 1.5 0.397805 1.5 0 
C 1.5 -0.397805 1.341951 -0.77937 1.06066 -1.06066 
C 0.77937 -1.341951 0.397805 -1.5 0 -1.5 
C -0.397805 -1.5 -0.77937 -1.341951 -1.06066 -1.06066 
C -1.341951 -0.77937 -1.5 -0.397805 -1.5 0 
C -1.5 0.397805 -1.341951 0.77937 -1.06066 1.06066 
C -0.77937 1.341951 -0.397805 1.5 0 1.5 
z
" id="m84b962e937" style="stroke:#f5deb3;"/>
    </defs>
    <g>
     <use style="fill:#f5deb3;stroke:#f5deb3;" x="153.871321" xlink:href="#m84b962e937" y="27.513663"/>
     <use style="fill:#f5deb3;stroke:#f5deb3;" x="153.871321" xlink:href="#m84b962e937" y="27.513663"/>
    </g>
   </g>
   <g id="line2d_42">
    <defs>
     <path d="M 0 1.5 
C 0.397805 1.5 0.77937 1.341951 1.06066 1.06066 
C 1.341951 0.77937 1.5 0.397805 1.5 0 
C 1.5 -0.397805 1.341951 -0.77937 1.06066 -1.06066 
C 0.77937 -1.341951 0.397805 -1.5 0 -1.5 
C -0.397805 -1.5 -0.77937 -1.341951 -1.06066 -1.06066 
C -1.341951 -0.77937 -1.5 -0.397805 -1.5 0 
C -1.5 0.397805 -1.341951 0.77937 -1.06066 1.06066 
C -0.77937 1.341951 -0.397805 1.5 0 1.5 
z
" id="mb152cfa041" style="stroke:#000080;"/>
    </defs>
    <g>
     <use style="fill:#000080;stroke:#000080;" x="179.038856" xlink:href="#mb152cfa041" y="27.513663"/>
     <use style="fill:#000080;stroke:#000080;" x="179.038856" xlink:href="#mb152cfa041" y="27.513663"/>
    </g>
   </g>
   <g id="line2d_43">
    <path d="M 40.370217 294.88 
L 40.370217 294.355752 
L 69.672503 294.355752 
L 69.672503 293.307257 
L 75.003641 293.307257 
L 75.003641 292.258761 
L 82.350819 292.258761 
L 82.350819 291.734514 
L 89.069276 291.734514 
L 89.069276 289.637523 
L 93.105847 289.637523 
L 93.105847 288.589027 
L 100.470395 288.589027 
L 100.470395 287.540532 
L 104.409787 287.540532 
L 104.409787 287.016284 
L 105.020098 287.016284 
L 105.020098 286.492036 
L 105.415256 286.492036 
L 105.415256 284.919293 
L 107.088985 284.919293 
L 107.088985 284.395046 
L 109.093814 284.395046 
L 109.093814 283.870798 
L 111.030511 283.870798 
L 111.030511 283.34655 
L 112.122219 283.34655 
L 112.122219 282.822302 
L 114.351204 282.822302 
L 114.351204 282.298055 
L 114.466953 282.298055 
L 114.466953 280.725312 
L 115.691256 280.725312 
L 115.691256 279.152568 
L 117.231566 279.152568 
L 117.231566 278.628321 
L 117.905717 278.628321 
L 117.905717 277.579825 
L 119.354037 277.579825 
L 119.354037 276.007082 
L 121.397846 276.007082 
L 121.397846 275.482834 
L 121.854208 275.482834 
L 121.854208 274.958587 
L 122.588877 274.958587 
L 122.660646 273.910091 
L 122.803291 273.910091 
L 122.803291 272.861596 
L 124.493121 272.861596 
L 124.493121 272.337348 
L 125.125128 272.337348 
L 125.125128 271.8131 
L 125.674722 271.8131 
L 125.674722 271.288853 
L 126.090357 271.288853 
L 126.090357 269.716109 
L 127.389295 269.716109 
L 127.389295 269.191862 
L 128.698042 269.191862 
L 128.698042 267.619119 
L 129.389632 267.619119 
L 129.389632 266.570623 
L 130.007824 266.570623 
L 130.007824 264.99788 
L 130.828657 264.99788 
L 130.828657 264.473632 
L 131.739239 264.473632 
L 131.739239 263.949385 
L 132.644112 263.949385 
L 132.644112 263.425137 
L 133.427329 263.425137 
L 133.427329 262.900889 
L 133.76846 262.900889 
L 133.76846 261.852394 
L 134.964358 261.852394 
L 134.964358 261.328146 
L 135.583215 261.328146 
L 135.650622 259.231155 
L 136.115208 259.231155 
L 136.180564 257.134164 
L 136.946047 257.134164 
L 136.946047 256.609917 
L 137.10132 256.609917 
L 137.10132 256.085669 
L 138.324271 256.085669 
L 138.324271 255.561421 
L 138.750809 255.561421 
L 138.750809 255.037173 
L 138.862788 255.037173 
L 138.862788 254.512926 
L 139.733284 254.512926 
L 139.733284 253.988678 
L 140.383954 253.988678 
L 140.409475 251.891687 
L 140.787817 251.891687 
L 140.812746 250.843192 
L 141.279657 250.843192 
L 141.279657 250.318944 
L 141.568144 250.318944 
L 141.615758 247.697705 
L 142.130987 247.697705 
L 142.130987 246.64921 
L 142.360172 246.64921 
L 142.360172 246.124962 
L 142.563858 246.124962 
L 142.563858 245.600714 
L 142.765159 245.600714 
L 142.765159 244.552219 
L 143.65349 244.552219 
L 143.69567 242.979476 
L 144.152952 242.979476 
L 144.152952 242.455228 
L 144.678145 242.455228 
L 144.678145 241.93098 
L 144.875945 241.93098 
L 144.875945 240.882485 
L 145.303255 240.882485 
L 145.303255 240.358237 
L 145.417974 240.358237 
L 145.417974 239.309742 
L 145.924939 239.309742 
L 145.924939 238.785494 
L 146.200257 238.785494 
L 146.309161 237.212751 
L 146.39939 237.212751 
L 146.39939 236.164255 
L 146.596243 236.164255 
L 146.596243 231.970274 
L 146.913581 231.970274 
L 146.913581 230.921778 
L 147.615255 230.921778 
L 147.632016 229.873283 
L 147.996687 229.873283 
L 147.996687 229.349035 
L 148.192385 229.349035 
L 148.192385 228.824787 
L 149.154128 228.824787 
L 149.230624 226.727797 
L 149.276358 226.727797 
L 149.276358 226.203549 
L 149.623006 226.203549 
L 149.637921 224.630806 
L 149.801129 224.630806 
L 149.801129 223.58231 
L 150.19528 223.58231 
L 150.19528 223.058063 
L 150.424656 223.058063 
L 150.424656 221.485319 
L 150.763082 221.485319 
L 150.763082 220.961072 
L 150.902149 220.961072 
L 150.902149 220.436824 
L 151.204193 220.436824 
L 151.204193 219.912576 
L 151.420576 219.912576 
L 151.420576 219.388328 
L 151.792811 219.388328 
L 151.792811 218.339833 
L 152.053843 218.339833 
L 152.053843 217.815585 
L 152.776747 217.815585 
L 152.863465 216.242842 
L 152.937447 216.242842 
L 152.962038 213.621604 
L 153.108845 213.621604 
L 153.157504 212.573108 
L 153.338757 212.573108 
L 153.410726 209.95187 
L 153.906246 209.95187 
L 153.906246 208.903374 
L 154.068295 208.903374 
L 154.068295 207.854879 
L 154.489355 207.854879 
L 154.489355 207.330631 
L 154.623729 207.330631 
L 154.623729 205.757888 
L 154.998849 205.757888 
L 154.998849 204.185145 
L 155.248042 204.185145 
L 155.333878 201.039658 
L 155.609922 201.039658 
L 155.662502 199.991163 
L 155.725388 199.991163 
L 155.725388 199.466915 
L 156.138844 199.466915 
L 156.220355 196.321429 
L 156.250823 196.321429 
L 156.250823 195.272933 
L 156.750818 195.272933 
L 156.809852 194.224438 
L 157.159859 194.224438 
L 157.159859 193.70019 
L 157.436716 193.70019 
L 157.512312 191.603199 
L 157.625086 191.603199 
L 157.625086 191.078952 
L 157.820678 191.078952 
L 157.820678 190.554704 
L 157.977401 190.554704 
L 158.01407 188.981961 
L 158.41235 188.981961 
L 158.41235 188.457713 
L 158.616926 188.457713 
L 158.722702 187.409218 
L 158.845291 187.409218 
L 158.845291 186.88497 
L 158.98433 186.88497 
L 158.98433 186.360722 
L 159.242036 186.360722 
L 159.242036 185.836474 
L 159.512728 185.836474 
L 159.512728 184.263731 
L 159.960072 184.263731 
L 159.984587 182.690988 
L 160.130943 182.690988 
L 160.130943 182.16674 
L 160.688547 182.16674 
L 160.688547 181.642493 
L 161.053039 181.642493 
L 161.053039 181.118245 
L 161.19061 181.118245 
L 161.205828 180.06975 
L 161.304417 180.06975 
L 161.409962 179.021254 
L 161.462492 179.021254 
L 161.559624 175.875768 
L 161.6488 175.875768 
L 161.744888 173.778777 
L 161.811097 173.778777 
L 161.862418 170.633291 
L 161.964601 170.633291 
L 162.044464 169.584795 
L 162.303269 169.584795 
L 162.310402 167.487804 
L 162.445383 167.487804 
L 162.445383 166.439309 
L 162.586332 166.439309 
L 162.586332 165.390813 
L 162.96122 165.390813 
L 162.96122 163.81807 
L 163.254002 163.81807 
L 163.321382 162.245327 
L 163.395197 162.245327 
L 163.395197 161.196832 
L 163.667563 161.196832 
L 163.707062 159.624089 
L 163.792333 159.624089 
L 163.844598 158.051345 
L 164.01337 158.051345 
L 164.058527 155.954354 
L 164.237977 155.954354 
L 164.307966 152.808868 
L 164.790068 152.808868 
L 164.790068 152.28462 
L 164.9743 152.28462 
L 165.077828 149.139134 
L 165.150533 149.139134 
L 165.156578 147.566391 
L 165.313003 147.566391 
L 165.360849 145.4694 
L 165.959489 145.4694 
L 166.057267 143.896657 
L 166.154491 143.896657 
L 166.262507 141.275418 
L 166.28516 141.275418 
L 166.290819 139.702675 
L 166.599219 139.702675 
L 166.649162 137.081437 
L 166.748614 137.081437 
L 166.748614 136.557189 
L 167.021889 136.557189 
L 167.021889 134.984446 
L 167.492547 134.984446 
L 167.571503 133.411703 
L 167.618703 133.411703 
L 167.707506 132.363207 
L 167.801036 132.363207 
L 167.86827 127.644978 
L 167.976326 127.644978 
L 167.976326 127.12073 
L 168.215733 127.12073 
L 168.316606 122.4025 
L 168.436876 122.4025 
L 168.436876 121.354005 
L 168.689691 121.354005 
L 168.748641 119.781262 
L 168.880542 119.781262 
L 168.899997 116.111528 
L 169.011439 116.111528 
L 169.011439 115.063032 
L 169.539337 115.063032 
L 169.539337 114.014537 
L 169.651377 114.014537 
L 169.651377 113.490289 
L 169.776554 113.490289 
L 169.873288 111.917546 
L 169.974048 111.917546 
L 170.037861 109.820555 
L 170.245882 109.820555 
L 170.245882 109.296308 
L 170.375743 109.296308 
L 170.429193 107.723564 
L 170.680836 107.723564 
L 170.759542 104.578078 
L 170.794408 104.578078 
L 170.894253 103.529583 
L 170.959059 103.529583 
L 170.984913 101.956839 
L 171.160549 101.956839 
L 171.224361 99.335601 
L 171.351277 99.335601 
L 171.368129 98.287105 
L 171.784137 98.287105 
L 171.89067 93.568876 
L 171.964039 93.568876 
L 171.964039 93.044628 
L 172.138051 93.044628 
L 172.214383 91.471885 
L 172.266415 91.471885 
L 172.266415 90.947637 
L 172.421573 90.947637 
L 172.504543 89.899142 
L 172.543913 89.899142 
L 172.555706 87.802151 
L 172.6849 87.802151 
L 172.758847 85.70516 
L 172.925034 85.70516 
L 173.024745 82.035426 
L 173.051492 82.035426 
L 173.146678 79.938435 
L 173.451509 79.938435 
L 173.514805 78.365692 
L 173.581571 78.365692 
L 173.581571 77.317197 
L 173.740027 77.317197 
L 173.776669 74.17171 
L 173.88249 74.17171 
L 173.984048 70.501976 
L 173.998508 70.501976 
L 174.106567 68.929233 
L 174.128098 68.929233 
L 174.128098 68.404985 
L 174.295828 68.404985 
L 174.310028 66.832242 
L 174.521626 66.832242 
L 174.622972 65.259499 
L 174.640386 65.259499 
L 174.723725 64.211004 
L 174.754873 64.211004 
L 174.792866 61.589765 
L 174.967929 61.589765 
L 175.032696 56.871536 
L 175.446171 56.871536 
L 175.538921 54.774545 
L 175.618025 54.774545 
L 175.693493 50.580563 
L 175.875868 50.580563 
L 175.930851 49.532068 
L 176.075551 49.532068 
L 176.107541 46.386581 
L 176.231739 46.386581 
L 176.263441 43.765343 
L 176.389666 43.765343 
L 176.424216 41.144104 
L 176.695056 41.144104 
L 176.695056 40.619856 
L 176.885497 40.619856 
L 176.964735 37.47437 
L 177.152227 37.47437 
L 177.218268 35.901627 
L 177.397101 35.901627 
L 177.397101 35.377379 
L 177.603414 35.377379 
L 177.609273 31.707645 
L 177.856428 31.707645 
L 177.856428 31.183397 
L 178.334711 31.183397 
L 178.376775 30.134902 
L 178.507912 30.134902 
L 178.507912 29.086407 
L 178.895425 29.086407 
L 178.895425 28.037911 
L 179.038856 28.037911 
L 179.038856 27.513663 
L 333.168 27.513663 
L 333.168 27.513663 
" style="fill:none;stroke:#000080;stroke-linecap:square;stroke-width:1.5;"/>
   </g>
   <g id="line2d_44">
    <defs>
     <path d="M 0 6 
C 1.591219 6 3.117479 5.367802 4.242641 4.242641 
C 5.367802 3.117479 6 1.591219 6 0 
C 6 -1.591219 5.367802 -3.117479 4.242641 -4.242641 
C 3.117479 -5.367802 1.591219 -6 0 -6 
C -1.591219 -6 -3.117479 -5.367802 -4.242641 -4.242641 
C -5.367802 -3.117479 -6 -1.591219 -6 0 
C -6 1.591219 -5.367802 3.117479 -4.242641 4.242641 
C -3.117479 5.367802 -1.591219 6 0 6 
z
" id="m05a6e34143" style="stroke:#000080;stroke-width:1.5;"/>
    </defs>
    <g>
     <use style="fill-opacity:0;stroke:#000080;stroke-width:1.5;" x="145.303255" xlink:href="#m05a6e34143" y="240.358237"/>
     <use style="fill-opacity:0;stroke:#000080;stroke-width:1.5;" x="172.214383" xlink:href="#m05a6e34143" y="91.471885"/>
     <use style="fill-opacity:0;stroke:#000080;stroke-width:1.5;" x="179.038856" xlink:href="#m05a6e34143" y="28.037911"/>
     <use style="fill-opacity:0;stroke:#000080;stroke-width:1.5;" x="179.038856" xlink:href="#m05a6e34143" y="27.513663"/>
     <use style="fill-opacity:0;stroke:#000080;stroke-width:1.5;" x="179.038856" xlink:href="#m05a6e34143" y="27.513663"/>
     <use style="fill-opacity:0;stroke:#000080;stroke-width:1.5;" x="333.168" xlink:href="#m05a6e34143" y="27.513663"/>
    </g>
   </g>
   <g id="line2d_45">
    <path style="fill:none;stroke:#000080;stroke-linecap:square;stroke-width:1.5;"/>
    <g/>
   </g>
   <g id="line2d_46">
    <defs>
     <path d="M 0 1.5 
C 0.397805 1.5 0.77937 1.341951 1.06066 1.06066 
C 1.341951 0.77937 1.5 0.397805 1.5 0 
C 1.5 -0.397805 1.341951 -0.77937 1.06066 -1.06066 
C 0.77937 -1.341951 0.397805 -1.5 0 -1.5 
C -0.397805 -1.5 -0.77937 -1.341951 -1.06066 -1.06066 
C -1.341951 -0.77937 -1.5 -0.397805 -1.5 0 
C -1.5 0.397805 -1.341951 0.77937 -1.06066 1.06066 
C -0.77937 1.341951 -0.397805 1.5 0 1.5 
z
" id="mdc5e5e5aab" style="stroke:#ff00ff;"/>
    </defs>
    <g>
     <use style="fill:#ff00ff;stroke:#ff00ff;" x="167.317557" xlink:href="#mdc5e5e5aab" y="27.513663"/>
     <use style="fill:#ff00ff;stroke:#ff00ff;" x="167.317557" xlink:href="#mdc5e5e5aab" y="27.513663"/>
    </g>
   </g>
   <g id="line2d_47">
    <path d="M 47.339607 294.88 
L 47.339607 294.355752 
L 66.223248 294.355752 
L 66.223248 293.831505 
L 81.586754 293.831505 
L 81.586754 291.734514 
L 83.784035 291.734514 
L 83.784035 291.210266 
L 91.427575 291.210266 
L 91.427575 290.686018 
L 91.862754 290.686018 
L 91.862754 289.637523 
L 97.021141 289.637523 
L 97.021141 289.113275 
L 97.336537 289.113275 
L 97.336537 288.589027 
L 100.207968 288.589027 
L 100.207968 287.016284 
L 100.728876 287.016284 
L 100.728876 285.443541 
L 101.725597 285.443541 
L 101.725597 284.919293 
L 104.819059 284.919293 
L 104.819059 283.870798 
L 106.730875 283.870798 
L 106.730875 283.34655 
L 107.439785 283.34655 
L 107.439785 282.822302 
L 112.384646 282.822302 
L 112.384646 282.298055 
L 112.514373 282.298055 
L 112.514373 281.773807 
L 113.148711 281.773807 
L 113.148711 279.152568 
L 113.518374 279.152568 
L 113.518374 278.628321 
L 114.117341 278.628321 
L 114.117341 278.104073 
L 114.581927 278.104073 
L 114.581927 277.055578 
L 114.809594 277.055578 
L 114.809594 275.482834 
L 116.010559 275.482834 
L 116.010559 274.958587 
L 116.324038 274.958587 
L 116.324038 274.434339 
L 119.267005 274.434339 
L 119.267005 273.385844 
L 119.697821 273.385844 
L 119.782703 271.8131 
L 120.034863 271.8131 
L 120.118102 270.764605 
L 120.447081 270.764605 
L 120.447081 269.716109 
L 121.008065 269.716109 
L 121.008065 269.191862 
L 121.551317 269.191862 
L 121.627542 267.619119 
L 121.778985 267.619119 
L 121.778985 267.094871 
L 122.298767 267.094871 
L 122.298767 266.570623 
L 122.444434 266.570623 
L 122.444434 265.522128 
L 124.363883 265.522128 
L 124.363883 264.99788 
L 124.493121 264.99788 
L 124.493121 264.473632 
L 125.371564 264.473632 
L 125.371564 263.425137 
L 125.614517 263.425137 
L 125.614517 262.900889 
L 126.553378 262.900889 
L 126.553378 261.852394 
L 127.004254 261.852394 
L 127.004254 261.328146 
L 127.334814 261.328146 
L 127.334814 260.803898 
L 127.819033 260.803898 
L 127.819033 259.231155 
L 128.748375 259.231155 
L 128.748375 257.134164 
L 129.047315 257.134164 
L 129.047315 256.085669 
L 129.772681 256.085669 
L 129.772681 254.512926 
L 130.100987 254.512926 
L 130.14738 252.415935 
L 130.33171 252.415935 
L 130.377486 251.367439 
L 130.961731 251.367439 
L 130.961731 250.843192 
L 131.311639 250.843192 
L 131.311639 250.318944 
L 131.781419 250.318944 
L 131.781419 249.794696 
L 132.032353 249.794696 
L 132.11519 248.221953 
L 132.279675 248.221953 
L 132.320552 247.173458 
L 132.402015 247.173458 
L 132.402015 245.600714 
L 132.603999 245.600714 
L 132.603999 245.076467 
L 133.196088 245.076467 
L 133.196088 244.552219 
L 133.617681 244.552219 
L 133.617681 244.027971 
L 133.76846 244.027971 
L 133.76846 242.979476 
L 133.955092 242.979476 
L 133.955092 242.455228 
L 134.139719 242.455228 
L 134.139719 241.406733 
L 134.39491 241.406733 
L 134.39491 240.882485 
L 135.583215 240.882485 
L 135.583215 239.83399 
L 136.049602 239.83399 
L 136.115208 237.736999 
L 136.66297 237.736999 
L 136.66297 234.591512 
L 137.039379 234.591512 
L 137.039379 234.067265 
L 137.407721 234.067265 
L 137.407721 232.494521 
L 138.004608 232.494521 
L 138.004608 231.970274 
L 138.638097 231.970274 
L 138.7227 230.921778 
L 138.918505 230.921778 
L 138.918505 229.873283 
L 139.249066 229.873283 
L 139.276327 228.30054 
L 139.839061 228.30054 
L 139.94419 225.679301 
L 140.074705 225.679301 
L 140.074705 225.155053 
L 140.762851 225.155053 
L 140.762851 224.630806 
L 141.010888 224.630806 
L 141.010888 224.106558 
L 141.352234 224.106558 
L 141.352234 223.058063 
L 141.520398 223.058063 
L 141.568144 221.485319 
L 141.686932 221.485319 
L 141.686932 220.436824 
L 141.945413 220.436824 
L 142.03845 218.339833 
L 142.1079 218.339833 
L 142.1079 217.815585 
L 142.314579 217.815585 
L 142.314579 216.76709 
L 142.518803 216.76709 
L 142.608796 214.145851 
L 142.898061 214.145851 
L 142.898061 213.621604 
L 143.441019 213.621604 
L 143.462385 212.573108 
L 143.632361 212.573108 
L 143.632361 212.04886 
L 143.758748 212.04886 
L 143.758748 211.524613 
L 143.946604 211.524613 
L 143.946604 210.476117 
L 144.132429 210.476117 
L 144.193927 209.427622 
L 144.437741 209.427622 
L 144.437741 208.379126 
L 144.698028 208.379126 
L 144.698028 207.854879 
L 145.013063 207.854879 
L 145.071495 205.757888 
L 145.284061 205.757888 
L 145.37982 204.709392 
L 145.49403 204.709392 
L 145.49403 203.660897 
L 146.327245 203.660897 
L 146.417379 202.088154 
L 146.667271 202.088154 
L 146.755644 197.894172 
L 146.843566 197.894172 
L 146.896104 196.321429 
L 146.965905 196.321429 
L 146.965905 195.272933 
L 147.139179 195.272933 
L 147.173625 194.224438 
L 147.429795 194.224438 
L 147.463664 192.651695 
L 147.615255 192.651695 
L 147.648761 191.603199 
L 147.815319 191.603199 
L 147.815319 191.078952 
L 148.013081 191.078952 
L 148.111115 190.030456 
L 148.257126 190.030456 
L 148.305522 188.981961 
L 148.38588 188.981961 
L 148.465865 187.409218 
L 148.656323 187.409218 
L 148.750766 183.739484 
L 148.782132 183.739484 
L 148.875888 182.16674 
L 149.230624 182.16674 
L 149.337149 179.545502 
L 149.367465 179.545502 
L 149.382602 178.497006 
L 149.503224 178.497006 
L 149.503224 176.400016 
L 149.66771 176.400016 
L 149.771569 173.778777 
L 150.035789 173.778777 
L 150.035789 173.254529 
L 150.151929 173.254529 
L 150.151929 172.206034 
L 150.324681 172.206034 
L 150.324681 171.681786 
L 150.552348 171.681786 
L 150.552348 171.157538 
L 150.957462 171.157538 
L 150.957462 170.633291 
L 151.258545 170.633291 
L 151.285656 169.584795 
L 151.407131 169.584795 
L 151.407131 168.5363 
L 151.541104 168.5363 
L 151.594402 166.439309 
L 151.792811 166.439309 
L 151.8977 163.81807 
L 151.975949 163.81807 
L 152.066791 160.672584 
L 152.170027 160.672584 
L 152.272646 159.099841 
L 152.298205 159.099841 
L 152.298205 158.575593 
L 152.714537 158.575593 
L 152.789162 157.00285 
L 153.206025 157.00285 
L 153.25441 155.954354 
L 153.482395 155.954354 
L 153.577492 153.333116 
L 153.601184 153.333116 
L 153.707396 149.139134 
L 153.952702 149.139134 
L 154.045238 147.042143 
L 154.194556 147.042143 
L 154.285803 144.945152 
L 154.342587 144.945152 
L 154.342587 144.420905 
L 154.511824 144.420905 
L 154.612571 141.275418 
L 154.63488 141.275418 
L 154.690524 138.65418 
L 154.998849 138.65418 
L 154.998849 138.129932 
L 155.161776 138.129932 
L 155.161776 137.081437 
L 155.344578 137.081437 
L 155.440574 135.508693 
L 155.68349 135.508693 
L 155.735846 134.460198 
L 155.933359 134.460198 
L 155.933359 133.93595 
L 156.056945 133.93595 
L 156.128628 132.887455 
L 156.260967 132.887455 
L 156.271104 131.838959 
L 156.462595 131.838959 
L 156.53261 129.217721 
L 156.701468 129.217721 
L 156.701468 128.693473 
L 156.966291 128.693473 
L 156.985746 126.596482 
L 157.150232 126.596482 
L 157.255831 124.499491 
L 157.313159 124.499491 
L 157.398793 119.781262 
L 157.531159 119.781262 
L 157.625086 116.635776 
L 157.64381 116.635776 
L 157.64381 116.111528 
L 157.792872 116.111528 
L 157.857683 112.966042 
L 157.949847 112.966042 
L 158.050661 111.393298 
L 158.09629 111.393298 
L 158.09629 110.869051 
L 158.277607 110.869051 
L 158.277607 110.344803 
L 158.492691 110.344803 
L 158.492691 109.296308 
L 158.661078 109.296308 
L 158.705118 108.247812 
L 158.79286 108.247812 
L 158.836564 106.675069 
L 158.914951 106.675069 
L 158.914951 105.626573 
L 159.087877 105.626573 
L 159.173691 102.481087 
L 159.293116 102.481087 
L 159.352519 100.384096 
L 159.428594 100.384096 
L 159.479124 97.762858 
L 159.629829 97.762858 
L 159.737856 93.044628 
L 159.770958 93.044628 
L 159.878104 90.947637 
L 159.984587 90.947637 
L 160.090413 89.374894 
L 160.106637 89.374894 
L 160.211717 86.229408 
L 160.483543 86.229408 
L 160.483543 85.180912 
L 160.609988 85.180912 
L 160.712045 83.083922 
L 160.758944 83.083922 
L 160.852361 76.792949 
L 160.914358 76.792949 
L 160.914358 76.268701 
L 161.045364 76.268701 
L 161.152506 73.123215 
L 161.175378 73.123215 
L 161.266565 71.026224 
L 161.296853 71.026224 
L 161.402444 66.832242 
L 161.409962 66.832242 
L 161.424987 65.783747 
L 161.544716 65.783747 
L 161.619126 64.735251 
L 161.73014 64.735251 
L 161.840442 63.162508 
L 161.942756 63.162508 
L 162.029971 62.114013 
L 162.080643 62.114013 
L 162.181541 59.492774 
L 162.195906 59.492774 
L 162.195906 57.920031 
L 162.388678 57.920031 
L 162.445383 56.347288 
L 162.565263 56.347288 
L 162.67035 54.250297 
L 162.733095 54.250297 
L 162.733095 53.726049 
L 162.899304 53.726049 
L 162.974949 52.153306 
L 163.022914 52.153306 
L 163.063921 51.104811 
L 163.220213 51.104811 
L 163.287725 48.483572 
L 163.354974 48.483572 
L 163.354974 47.959324 
L 163.482025 47.959324 
L 163.568417 44.813838 
L 163.700485 44.813838 
L 163.785789 41.144104 
L 163.825017 41.144104 
L 163.935681 39.047113 
L 163.955136 39.047113 
L 164.032738 37.998618 
L 164.225221 37.998618 
L 164.225221 37.47437 
L 164.672359 37.47437 
L 164.752984 34.328884 
L 164.955965 34.328884 
L 165.04136 32.231893 
L 165.259017 32.231893 
L 165.259017 31.707645 
L 165.603991 31.707645 
L 165.639285 30.134902 
L 166.459723 30.134902 
L 166.459723 29.610654 
L 166.776138 29.610654 
L 166.776138 29.086407 
L 167.108428 29.086407 
L 167.108428 28.037911 
L 167.317557 28.037911 
L 167.317557 27.513663 
L 333.168 27.513663 
L 333.168 27.513663 
" style="fill:none;stroke:#ff00ff;stroke-linecap:square;stroke-width:1.5;"/>
   </g>
   <g id="line2d_48">
    <defs>
     <path d="M -0 8.485281 
L 5.091169 0 
L 0 -8.485281 
L -5.091169 -0 
z
" id="mb704b78b11" style="stroke:#ff00ff;stroke-linejoin:miter;stroke-width:1.5;"/>
    </defs>
    <g>
     <use style="fill-opacity:0;stroke:#ff00ff;stroke-linejoin:miter;stroke-width:1.5;" x="119.782703" xlink:href="#mb704b78b11" y="272.337348"/>
     <use style="fill-opacity:0;stroke:#ff00ff;stroke-linejoin:miter;stroke-width:1.5;" x="151.285656" xlink:href="#mb704b78b11" y="170.109043"/>
     <use style="fill-opacity:0;stroke:#ff00ff;stroke-linejoin:miter;stroke-width:1.5;" x="167.317557" xlink:href="#mb704b78b11" y="28.037911"/>
     <use style="fill-opacity:0;stroke:#ff00ff;stroke-linejoin:miter;stroke-width:1.5;" x="167.317557" xlink:href="#mb704b78b11" y="27.513663"/>
     <use style="fill-opacity:0;stroke:#ff00ff;stroke-linejoin:miter;stroke-width:1.5;" x="167.317557" xlink:href="#mb704b78b11" y="27.513663"/>
     <use style="fill-opacity:0;stroke:#ff00ff;stroke-linejoin:miter;stroke-width:1.5;" x="333.168" xlink:href="#mb704b78b11" y="27.513663"/>
    </g>
   </g>
   <g id="line2d_49">
    <path style="fill:none;stroke:#ff00ff;stroke-linecap:square;stroke-width:1.5;"/>
    <g/>
   </g>
   <g id="line2d_50">
    <defs>
     <path d="M 0 1.5 
C 0.397805 1.5 0.77937 1.341951 1.06066 1.06066 
C 1.341951 0.77937 1.5 0.397805 1.5 0 
C 1.5 -0.397805 1.341951 -0.77937 1.06066 -1.06066 
C 0.77937 -1.341951 0.397805 -1.5 0 -1.5 
C -0.397805 -1.5 -0.77937 -1.341951 -1.06066 -1.06066 
C -1.341951 -0.77937 -1.5 -0.397805 -1.5 0 
C -1.5 0.397805 -1.341951 0.77937 -1.06066 1.06066 
C -0.77937 1.341951 -0.397805 1.5 0 1.5 
z
" id="m19cb06cc91" style="stroke:#ffa500;"/>
    </defs>
    <g>
     <use style="fill:#ffa500;stroke:#ffa500;" x="159.919137" xlink:href="#m19cb06cc91" y="27.513663"/>
     <use style="fill:#ffa500;stroke:#ffa500;" x="159.919137" xlink:href="#m19cb06cc91" y="27.513663"/>
    </g>
   </g>
   <g id="line2d_51">
    <path d="M 68.034251 294.88 
L 68.034251 293.307257 
L 69.672503 293.307257 
L 69.672503 292.258761 
L 75.003641 292.258761 
L 75.003641 291.210266 
L 77.155024 291.210266 
L 77.155024 290.686018 
L 83.08236 290.686018 
L 83.08236 290.161771 
L 85.106889 290.161771 
L 85.106889 289.637523 
L 86.917893 289.637523 
L 86.917893 289.113275 
L 87.481505 289.113275 
L 87.481505 287.540532 
L 88.556144 287.540532 
L 88.556144 287.016284 
L 91.427575 287.016284 
L 91.427575 286.492036 
L 91.862754 286.492036 
L 91.862754 284.919293 
L 95.351029 284.919293 
L 95.351029 284.395046 
L 97.336537 284.395046 
L 97.336537 282.822302 
L 106.365146 282.822302 
L 106.365146 282.298055 
L 107.26528 282.298055 
L 107.26528 281.773807 
L 107.439785 281.773807 
L 107.439785 280.725312 
L 107.952917 280.725312 
L 107.952917 279.676816 
L 109.406343 279.676816 
L 109.406343 279.152568 
L 110.88904 279.152568 
L 110.88904 278.628321 
L 111.170827 278.628321 
L 111.170827 277.055578 
L 111.989488 277.055578 
L 111.989488 275.482834 
L 113.396034 275.482834 
L 113.396034 274.958587 
L 115.475044 274.958587 
L 115.475044 273.910091 
L 116.010559 273.910091 
L 116.010559 273.385844 
L 116.934349 273.385844 
L 116.934349 272.337348 
L 117.231566 272.337348 
L 117.231566 270.764605 
L 117.620026 270.764605 
L 117.620026 270.240357 
L 117.905717 270.240357 
L 117.905717 269.716109 
L 118.279397 269.716109 
L 118.279397 269.191862 
L 119.179531 269.191862 
L 119.179531 268.143366 
L 120.034863 268.143366 
L 120.034863 267.094871 
L 120.447081 267.094871 
L 120.447081 266.570623 
L 121.086731 266.570623 
L 121.086731 266.046375 
L 121.320594 266.046375 
L 121.320594 264.99788 
L 121.854208 264.99788 
L 121.929105 263.425137 
L 122.298767 263.425137 
L 122.371755 260.803898 
L 122.516807 260.803898 
L 122.516807 260.279651 
L 122.732117 260.279651 
L 122.732117 259.231155 
L 123.085078 259.231155 
L 123.085078 258.706907 
L 123.430938 258.706907 
L 123.499282 257.134164 
L 123.567356 257.134164 
L 123.567356 256.609917 
L 123.7027 256.609917 
L 123.7027 256.085669 
L 123.903739 256.085669 
L 123.903739 255.561421 
L 124.036471 255.561421 
L 124.102454 253.46443 
L 125.913457 253.46443 
L 125.913457 252.940182 
L 126.090357 252.940182 
L 126.090357 252.415935 
L 126.610389 252.415935 
L 126.610389 251.891687 
L 127.497741 251.891687 
L 127.497741 250.318944 
L 127.819033 250.318944 
L 127.819033 248.221953 
L 128.647561 248.221953 
L 128.647561 247.697705 
L 129.292521 247.697705 
L 129.292521 247.173458 
L 129.772681 247.173458 
L 129.772681 246.64921 
L 131.005861 246.64921 
L 131.005861 246.124962 
L 131.398014 246.124962 
L 131.483957 245.076467 
L 131.526768 245.076467 
L 131.569473 241.93098 
L 131.654565 241.93098 
L 131.654565 240.882485 
L 132.11519 240.882485 
L 132.197629 238.261246 
L 132.52349 238.261246 
L 132.52349 236.688503 
L 132.644112 236.688503 
L 132.644112 236.164255 
L 132.763894 236.164255 
L 132.763894 235.11576 
L 133.350594 235.11576 
L 133.350594 234.591512 
L 133.579779 234.591512 
L 133.579779 233.018769 
L 133.992176 233.018769 
L 134.102952 229.349035 
L 134.176407 229.349035 
L 134.286006 227.252044 
L 134.788423 227.252044 
L 134.788423 226.727797 
L 134.999329 226.727797 
L 135.03423 224.106558 
L 135.138509 224.106558 
L 135.24216 222.533815 
L 135.310914 222.533815 
L 135.413533 220.961072 
L 135.515543 220.961072 
L 135.583215 218.339833 
L 135.684226 218.339833 
L 135.684226 217.815585 
L 135.81799 217.815585 
L 135.917635 216.76709 
L 136.278134 216.76709 
L 136.278134 215.718594 
L 136.407373 215.718594 
L 136.407373 215.194347 
L 137.039379 215.194347 
L 137.070377 213.097356 
L 137.193815 213.097356 
L 137.193815 212.573108 
L 137.438063 212.573108 
L 137.438063 212.04886 
L 137.708755 212.04886 
L 137.798047 210.476117 
L 137.916386 210.476117 
L 137.916386 209.427622 
L 138.150647 209.427622 
L 138.150647 208.903374 
L 138.52464 208.903374 
L 138.52464 208.379126 
L 138.638097 208.379126 
L 138.7227 206.806383 
L 139.057012 206.806383 
L 139.139583 203.136649 
L 139.49288 203.136649 
L 139.573389 202.088154 
L 139.786254 202.088154 
L 139.786254 201.563906 
L 140.022618 201.563906 
L 140.048681 199.991163 
L 140.255775 199.991163 
L 140.332797 198.41842 
L 140.561812 198.41842 
L 140.561812 197.894172 
L 140.936852 197.894172 
L 141.035496 196.321429 
L 141.060069 196.321429 
L 141.060069 195.797181 
L 141.182408 195.797181 
L 141.231101 192.651695 
L 141.448529 192.651695 
L 141.448529 192.127447 
L 141.781376 192.127447 
L 141.828403 191.078952 
L 141.922075 191.078952 
L 141.922075 189.506209 
L 142.1079 189.506209 
L 142.1079 188.981961 
L 142.268865 188.981961 
L 142.360172 187.933465 
L 142.473629 187.933465 
L 142.518803 186.88497 
L 142.653616 186.88497 
L 142.720629 184.787979 
L 142.765159 184.787979 
L 142.831738 183.739484 
L 142.964129 183.739484 
L 143.029944 180.593997 
L 143.547583 180.593997 
L 143.547583 179.021254 
L 143.905035 179.021254 
L 143.925832 176.400016 
L 144.11188 176.400016 
L 144.11188 175.875768 
L 144.255205 175.875768 
L 144.295937 174.827272 
L 144.377111 174.827272 
L 144.437741 173.778777 
L 144.538318 173.778777 
L 144.598384 170.109043 
L 144.77733 170.109043 
L 144.77733 169.584795 
L 144.954432 169.584795 
L 144.954432 169.060547 
L 145.090928 169.060547 
L 145.090928 168.012052 
L 145.264845 168.012052 
L 145.303255 163.81807 
L 145.43702 163.81807 
L 145.43702 163.293823 
L 145.64514 163.293823 
L 145.738913 161.721079 
L 146.05397 161.721079 
L 146.05397 161.196832 
L 146.254795 161.196832 
L 146.363355 158.575593 
L 146.381382 158.575593 
L 146.43535 155.430107 
L 146.649541 155.430107 
L 146.755644 153.333116 
L 146.790867 153.333116 
L 146.790867 152.808868 
L 146.948481 152.808868 
L 147.052761 151.760373 
L 147.139179 151.760373 
L 147.156411 149.663382 
L 147.361855 149.663382 
L 147.361855 148.090639 
L 147.480573 148.090639 
L 147.514343 146.517896 
L 147.648761 146.517896 
L 147.648761 145.993648 
L 147.914484 145.993648 
L 148.013081 142.323914 
L 148.045821 142.323914 
L 148.045821 141.799666 
L 148.192385 141.799666 
L 148.273273 140.226923 
L 148.305522 140.226923 
L 148.305522 139.702675 
L 148.513678 139.702675 
L 148.624726 138.65418 
L 148.829074 138.65418 
L 148.891465 136.032941 
L 148.984628 136.032941 
L 149.031022 134.984446 
L 149.154128 134.984446 
L 149.230624 133.93595 
L 149.352314 133.93595 
L 149.352314 132.887455 
L 149.652822 132.887455 
L 149.712298 130.790464 
L 149.845372 130.790464 
L 149.918859 127.12073 
L 150.064898 127.12073 
L 150.108469 122.4025 
L 150.209706 122.4025 
L 150.209706 121.354005 
L 150.338998 121.354005 
L 150.438891 117.160023 
L 150.481525 117.160023 
L 150.580595 116.111528 
L 150.594702 116.111528 
L 150.62288 114.538785 
L 150.707138 114.538785 
L 150.80492 112.966042 
L 150.874425 112.966042 
L 150.874425 112.441794 
L 151.122343 112.441794 
L 151.14967 111.393298 
L 151.339751 111.393298 
L 151.447433 108.247812 
L 151.527754 108.247812 
L 151.581093 106.150821 
L 151.805957 106.150821 
L 151.8977 102.481087 
L 151.949905 102.481087 
L 151.949905 100.908344 
L 152.105577 100.908344 
L 152.105577 99.859849 
L 152.298205 99.859849 
L 152.361937 97.23861 
L 152.412754 97.23861 
L 152.513938 94.617371 
L 152.564308 94.617371 
L 152.652101 91.996133 
L 152.677103 91.996133 
L 152.764323 90.42339 
L 152.789162 90.42339 
L 152.875817 88.326399 
L 152.998857 88.326399 
L 153.072261 86.229408 
L 153.193908 86.229408 
L 153.193908 85.180912 
L 153.3147 85.180912 
L 153.410726 82.035426 
L 153.434649 82.035426 
L 153.530009 77.841444 
L 153.601184 77.841444 
L 153.660271 76.268701 
L 153.719157 76.268701 
L 153.719157 75.744454 
L 154.102822 75.744454 
L 154.183116 74.17171 
L 154.263036 74.17171 
L 154.342587 71.550472 
L 154.399185 71.550472 
L 154.399185 71.026224 
L 154.601406 71.026224 
L 154.668288 67.35649 
L 154.712732 67.35649 
L 154.768126 63.686756 
L 154.911319 63.686756 
L 154.998849 61.589765 
L 155.042447 61.589765 
L 155.042447 61.065517 
L 155.172583 61.065517 
L 155.226516 57.395783 
L 155.333878 57.395783 
L 155.440574 52.677554 
L 155.472454 52.677554 
L 155.525456 51.104811 
L 155.798464 51.104811 
L 155.902323 47.959324 
L 155.933359 47.959324 
L 156.005559 45.862334 
L 156.189834 45.862334 
L 156.271104 44.813838 
L 156.321704 44.813838 
L 156.392294 43.241095 
L 156.632139 43.241095 
L 156.632139 42.716847 
L 156.760671 42.716847 
L 156.858892 39.571361 
L 157.092358 39.571361 
L 157.092358 38.522865 
L 157.255831 38.522865 
L 157.322695 36.425875 
L 157.398793 36.425875 
L 157.455646 32.231893 
L 157.681197 32.231893 
L 157.737126 31.183397 
L 157.866922 31.183397 
L 157.866922 30.65915 
L 158.313642 30.65915 
L 158.313642 29.610654 
L 158.740269 29.610654 
L 158.740269 29.086407 
L 159.207897 29.086407 
L 159.207897 28.562159 
L 159.919137 28.562159 
L 159.919137 27.513663 
L 333.168 27.513663 
L 333.168 27.513663 
" style="fill:none;stroke:#ffa500;stroke-linecap:square;stroke-width:1.5;"/>
   </g>
   <g id="line2d_52">
    <defs>
     <path d="M 0 -6 
L -1.347084 -1.854102 
L -5.706339 -1.854102 
L -2.179628 0.708204 
L -3.526712 4.854102 
L -0 2.291796 
L 3.526712 4.854102 
L 2.179628 0.708204 
L 5.706339 -1.854102 
L 1.347084 -1.854102 
z
" id="m24f4b60910" style="stroke:#ffa500;stroke-linejoin:bevel;stroke-width:1.5;"/>
    </defs>
    <g>
     <use style="fill-opacity:0;stroke:#ffa500;stroke-linejoin:bevel;stroke-width:1.5;" x="146.05397" xlink:href="#m24f4b60910" y="161.196832"/>
     <use style="fill-opacity:0;stroke:#ffa500;stroke-linejoin:bevel;stroke-width:1.5;" x="157.455646" xlink:href="#m24f4b60910" y="33.280388"/>
     <use style="fill-opacity:0;stroke:#ffa500;stroke-linejoin:bevel;stroke-width:1.5;" x="159.919137" xlink:href="#m24f4b60910" y="27.513663"/>
     <use style="fill-opacity:0;stroke:#ffa500;stroke-linejoin:bevel;stroke-width:1.5;" x="159.919137" xlink:href="#m24f4b60910" y="27.513663"/>
     <use style="fill-opacity:0;stroke:#ffa500;stroke-linejoin:bevel;stroke-width:1.5;" x="333.168" xlink:href="#m24f4b60910" y="27.513663"/>
    </g>
   </g>
   <g id="line2d_53">
    <path style="fill:none;stroke:#ffa500;stroke-linecap:square;stroke-width:1.5;"/>
    <g/>
   </g>
   <g id="line2d_54">
    <path d="M 333.168 27.513663 
L 363.64328 289.532673 
" style="fill:none;stroke:#000080;stroke-linecap:square;stroke-width:1.5;"/>
    <g>
     <use style="fill-opacity:0;stroke:#000080;stroke-width:1.5;" x="333.168" xlink:href="#m05a6e34143" y="27.513663"/>
     <use style="fill-opacity:0;stroke:#000080;stroke-width:1.5;" x="363.64328" xlink:href="#m05a6e34143" y="289.532673"/>
    </g>
   </g>
   <g id="line2d_55">
    <path d="M 333.168 27.513663 
L 363.64328 203.975446 
" style="fill:none;stroke:#ff00ff;stroke-linecap:square;stroke-width:1.5;"/>
    <g>
     <use style="fill-opacity:0;stroke:#ff00ff;stroke-linejoin:miter;stroke-width:1.5;" x="333.168" xlink:href="#mb704b78b11" y="27.513663"/>
     <use style="fill-opacity:0;stroke:#ff00ff;stroke-linejoin:miter;stroke-width:1.5;" x="363.64328" xlink:href="#mb704b78b11" y="203.975446"/>
    </g>
   </g>
   <g id="line2d_56">
    <path d="M 333.168 27.513663 
L 363.64328 118.418218 
" style="fill:none;stroke:#ffa500;stroke-linecap:square;stroke-width:1.5;"/>
    <g>
     <use style="fill-opacity:0;stroke:#ffa500;stroke-linejoin:bevel;stroke-width:1.5;" x="333.168" xlink:href="#m24f4b60910" y="27.513663"/>
     <use style="fill-opacity:0;stroke:#ffa500;stroke-linejoin:bevel;stroke-width:1.5;" x="363.64328" xlink:href="#m24f4b60910" y="118.418218"/>
    </g>
   </g>
   <g id="line2d_57">
    <path d="M 333.168 294.88 
L 333.168 27.513663 
" style="fill:none;stroke:#000000;stroke-linecap:square;stroke-width:1.5;"/>
   </g>
   <g id="patch_3">
    <path d="M 56.12 294.88 
L 56.12 24.84 
" style="fill:none;stroke:#000000;stroke-linecap:square;stroke-linejoin:miter;stroke-width:0.8;"/>
   </g>
   <g id="patch_4">
    <path d="M 333.168 294.88 
L 333.168 24.84 
" style="fill:none;stroke:#000000;stroke-linecap:square;stroke-linejoin:miter;stroke-width:0.8;"/>
   </g>
   <g id="patch_5">
    <path d="M 56.12 294.88 
L 333.168 294.88 
" style="fill:none;stroke:#000000;stroke-linecap:square;stroke-linejoin:miter;stroke-width:0.8;"/>
   </g>
   <g id="patch_6">
    <path d="M 56.12 24.84 
L 333.168 24.84 
" style="fill:none;stroke:#000000;stroke-linecap:square;stroke-linejoin:miter;stroke-width:0.8;"/>
   </g>
   <g id="text_13">
    <!-- SHADE2-BL -->
    <defs>
     <path d="M 53.515625 70.515625 
L 53.515625 60.890625 
Q 47.90625 63.578125 42.921875 64.890625 
Q 37.9375 66.21875 33.296875 66.21875 
Q 25.25 66.21875 20.875 63.09375 
Q 16.5 59.96875 16.5 54.203125 
Q 16.5 49.359375 19.40625 46.890625 
Q 22.3125 44.4375 30.421875 42.921875 
L 36.375 41.703125 
Q 47.40625 39.59375 52.65625 34.296875 
Q 57.90625 29 57.90625 20.125 
Q 57.90625 9.515625 50.796875 4.046875 
Q 43.703125 -1.421875 29.984375 -1.421875 
Q 24.8125 -1.421875 18.96875 -0.25 
Q 13.140625 0.921875 6.890625 3.21875 
L 6.890625 13.375 
Q 12.890625 10.015625 18.65625 8.296875 
Q 24.421875 6.59375 29.984375 6.59375 
Q 38.421875 6.59375 43.015625 9.90625 
Q 47.609375 13.234375 47.609375 19.390625 
Q 47.609375 24.75 44.3125 27.78125 
Q 41.015625 30.8125 33.5 32.328125 
L 27.484375 33.5 
Q 16.453125 35.6875 11.515625 40.375 
Q 6.59375 45.0625 6.59375 53.421875 
Q 6.59375 63.09375 13.40625 68.65625 
Q 20.21875 74.21875 32.171875 74.21875 
Q 37.3125 74.21875 42.625 73.28125 
Q 47.953125 72.359375 53.515625 70.515625 
z
" id="DejaVuSans-53"/>
     <path d="M 9.8125 72.90625 
L 19.671875 72.90625 
L 19.671875 43.015625 
L 55.515625 43.015625 
L 55.515625 72.90625 
L 65.375 72.90625 
L 65.375 0 
L 55.515625 0 
L 55.515625 34.71875 
L 19.671875 34.71875 
L 19.671875 0 
L 9.8125 0 
z
" id="DejaVuSans-48"/>
     <path d="M 34.1875 63.1875 
L 20.796875 26.90625 
L 47.609375 26.90625 
z
M 28.609375 72.90625 
L 39.796875 72.90625 
L 67.578125 0 
L 57.328125 0 
L 50.6875 18.703125 
L 17.828125 18.703125 
L 11.1875 0 
L 0.78125 0 
z
" id="DejaVuSans-41"/>
     <path d="M 19.671875 64.796875 
L 19.671875 8.109375 
L 31.59375 8.109375 
Q 46.6875 8.109375 53.6875 14.9375 
Q 60.6875 21.78125 60.6875 36.53125 
Q 60.6875 51.171875 53.6875 57.984375 
Q 46.6875 64.796875 31.59375 64.796875 
z
M 9.8125 72.90625 
L 30.078125 72.90625 
Q 51.265625 72.90625 61.171875 64.09375 
Q 71.09375 55.28125 71.09375 36.53125 
Q 71.09375 17.671875 61.125 8.828125 
Q 51.171875 0 30.078125 0 
L 9.8125 0 
z
" id="DejaVuSans-44"/>
     <path d="M 9.8125 72.90625 
L 55.90625 72.90625 
L 55.90625 64.59375 
L 19.671875 64.59375 
L 19.671875 43.015625 
L 54.390625 43.015625 
L 54.390625 34.71875 
L 19.671875 34.71875 
L 19.671875 8.296875 
L 56.78125 8.296875 
L 56.78125 0 
L 9.8125 0 
z
" id="DejaVuSans-45"/>
     <path d="M 19.671875 34.8125 
L 19.671875 8.109375 
L 35.5 8.109375 
Q 43.453125 8.109375 47.28125 11.40625 
Q 51.125 14.703125 51.125 21.484375 
Q 51.125 28.328125 47.28125 31.5625 
Q 43.453125 34.8125 35.5 34.8125 
z
M 19.671875 64.796875 
L 19.671875 42.828125 
L 34.28125 42.828125 
Q 41.5 42.828125 45.03125 45.53125 
Q 48.578125 48.25 48.578125 53.8125 
Q 48.578125 59.328125 45.03125 62.0625 
Q 41.5 64.796875 34.28125 64.796875 
z
M 9.8125 72.90625 
L 35.015625 72.90625 
Q 46.296875 72.90625 52.390625 68.21875 
Q 58.5 63.53125 58.5 54.890625 
Q 58.5 48.1875 55.375 44.234375 
Q 52.25 40.28125 46.1875 39.3125 
Q 53.46875 37.75 57.5 32.78125 
Q 61.53125 27.828125 61.53125 20.40625 
Q 61.53125 10.640625 54.890625 5.3125 
Q 48.25 0 35.984375 0 
L 9.8125 0 
z
" id="DejaVuSans-42"/>
     <path d="M 9.8125 72.90625 
L 19.671875 72.90625 
L 19.671875 8.296875 
L 55.171875 8.296875 
L 55.171875 0 
L 9.8125 0 
z
" id="DejaVuSans-4c"/>
    </defs>
    <g transform="translate(369.18424 294.223611)scale(0.17 -0.17)">
     <use xlink:href="#DejaVuSans-53"/>
     <use x="63.476562" xlink:href="#DejaVuSans-48"/>
     <use x="138.671875" xlink:href="#DejaVuSans-41"/>
     <use x="207.080078" xlink:href="#DejaVuSans-44"/>
     <use x="284.082031" xlink:href="#DejaVuSans-45"/>
     <use x="347.265625" xlink:href="#DejaVuSans-32"/>
     <use x="410.888672" xlink:href="#DejaVuSans-2d"/>
     <use x="446.925781" xlink:href="#DejaVuSans-42"/>
     <use x="515.529297" xlink:href="#DejaVuSans-4c"/>
    </g>
   </g>
   <g id="text_14">
    <!-- R-SHADE-T -->
    <defs>
     <path d="M 44.390625 34.1875 
Q 47.5625 33.109375 50.5625 29.59375 
Q 53.5625 26.078125 56.59375 19.921875 
L 66.609375 0 
L 56 0 
L 46.6875 18.703125 
Q 43.0625 26.03125 39.671875 28.421875 
Q 36.28125 30.8125 30.421875 30.8125 
L 19.671875 30.8125 
L 19.671875 0 
L 9.8125 0 
L 9.8125 72.90625 
L 32.078125 72.90625 
Q 44.578125 72.90625 50.734375 67.671875 
Q 56.890625 62.453125 56.890625 51.90625 
Q 56.890625 45.015625 53.6875 40.46875 
Q 50.484375 35.9375 44.390625 34.1875 
z
M 19.671875 64.796875 
L 19.671875 38.921875 
L 32.078125 38.921875 
Q 39.203125 38.921875 42.84375 42.21875 
Q 46.484375 45.515625 46.484375 51.90625 
Q 46.484375 58.296875 42.84375 61.546875 
Q 39.203125 64.796875 32.078125 64.796875 
z
" id="DejaVuSans-52"/>
     <path d="M -0.296875 72.90625 
L 61.375 72.90625 
L 61.375 64.59375 
L 35.5 64.59375 
L 35.5 0 
L 25.59375 0 
L 25.59375 64.59375 
L -0.296875 64.59375 
z
" id="DejaVuSans-54"/>
    </defs>
    <g transform="translate(369.18424 208.666383)scale(0.17 -0.17)">
     <use xlink:href="#DejaVuSans-52"/>
     <use x="69.419922" xlink:href="#DejaVuSans-2d"/>
     <use x="105.503906" xlink:href="#DejaVuSans-53"/>
     <use x="168.980469" xlink:href="#DejaVuSans-48"/>
     <use x="244.175781" xlink:href="#DejaVuSans-41"/>
     <use x="312.583984" xlink:href="#DejaVuSans-44"/>
     <use x="389.585938" xlink:href="#DejaVuSans-45"/>
     <use x="452.769531" xlink:href="#DejaVuSans-2d"/>
     <use x="488.712891" xlink:href="#DejaVuSans-54"/>
    </g>
   </g>
   <g id="text_15">
    <!-- KL-BIPOP- -->
    <defs>
     <path d="M 9.8125 72.90625 
L 19.671875 72.90625 
L 19.671875 42.09375 
L 52.390625 72.90625 
L 65.09375 72.90625 
L 28.90625 38.921875 
L 67.671875 0 
L 54.6875 0 
L 19.671875 35.109375 
L 19.671875 0 
L 9.8125 0 
z
" id="DejaVuSans-4b"/>
     <path d="M 9.8125 72.90625 
L 19.671875 72.90625 
L 19.671875 0 
L 9.8125 0 
z
" id="DejaVuSans-49"/>
     <path d="M 19.671875 64.796875 
L 19.671875 37.40625 
L 32.078125 37.40625 
Q 38.96875 37.40625 42.71875 40.96875 
Q 46.484375 44.53125 46.484375 51.125 
Q 46.484375 57.671875 42.71875 61.234375 
Q 38.96875 64.796875 32.078125 64.796875 
z
M 9.8125 72.90625 
L 32.078125 72.90625 
Q 44.34375 72.90625 50.609375 67.359375 
Q 56.890625 61.8125 56.890625 51.125 
Q 56.890625 40.328125 50.609375 34.8125 
Q 44.34375 29.296875 32.078125 29.296875 
L 19.671875 29.296875 
L 19.671875 0 
L 9.8125 0 
z
" id="DejaVuSans-50"/>
     <path d="M 39.40625 66.21875 
Q 28.65625 66.21875 22.328125 58.203125 
Q 16.015625 50.203125 16.015625 36.375 
Q 16.015625 22.609375 22.328125 14.59375 
Q 28.65625 6.59375 39.40625 6.59375 
Q 50.140625 6.59375 56.421875 14.59375 
Q 62.703125 22.609375 62.703125 36.375 
Q 62.703125 50.203125 56.421875 58.203125 
Q 50.140625 66.21875 39.40625 66.21875 
z
M 39.40625 74.21875 
Q 54.734375 74.21875 63.90625 63.9375 
Q 73.09375 53.65625 73.09375 36.375 
Q 73.09375 19.140625 63.90625 8.859375 
Q 54.734375 -1.421875 39.40625 -1.421875 
Q 24.03125 -1.421875 14.8125 8.828125 
Q 5.609375 19.09375 5.609375 36.375 
Q 5.609375 53.65625 14.8125 63.9375 
Q 24.03125 74.21875 39.40625 74.21875 
z
" id="DejaVuSans-4f"/>
    </defs>
    <g transform="translate(369.18424 123.109155)scale(0.17 -0.17)">
     <use xlink:href="#DejaVuSans-4b"/>
     <use x="65.576172" xlink:href="#DejaVuSans-4c"/>
     <use x="121.273438" xlink:href="#DejaVuSans-2d"/>
     <use x="157.310547" xlink:href="#DejaVuSans-42"/>
     <use x="225.914062" xlink:href="#DejaVuSans-49"/>
     <use x="255.40625" xlink:href="#DejaVuSans-50"/>
     <use x="315.708984" xlink:href="#DejaVuSans-4f"/>
     <use x="394.419922" xlink:href="#DejaVuSans-50"/>
     <use x="454.691406" xlink:href="#DejaVuSans-2d"/>
    </g>
   </g>
   <g id="text_16">
    <!-- best 2009 -->
    <defs>
     <path d="M 48.6875 27.296875 
Q 48.6875 37.203125 44.609375 42.84375 
Q 40.53125 48.484375 33.40625 48.484375 
Q 26.265625 48.484375 22.1875 42.84375 
Q 18.109375 37.203125 18.109375 27.296875 
Q 18.109375 17.390625 22.1875 11.75 
Q 26.265625 6.109375 33.40625 6.109375 
Q 40.53125 6.109375 44.609375 11.75 
Q 48.6875 17.390625 48.6875 27.296875 
z
M 18.109375 46.390625 
Q 20.953125 51.265625 25.265625 53.625 
Q 29.59375 56 35.59375 56 
Q 45.5625 56 51.78125 48.09375 
Q 58.015625 40.1875 58.015625 27.296875 
Q 58.015625 14.40625 51.78125 6.484375 
Q 45.5625 -1.421875 35.59375 -1.421875 
Q 29.59375 -1.421875 25.265625 0.953125 
Q 20.953125 3.328125 18.109375 8.203125 
L 18.109375 0 
L 9.078125 0 
L 9.078125 75.984375 
L 18.109375 75.984375 
z
" id="DejaVuSans-62"/>
     <path d="M 10.984375 1.515625 
L 10.984375 10.5 
Q 14.703125 8.734375 18.5 7.8125 
Q 22.3125 6.890625 25.984375 6.890625 
Q 35.75 6.890625 40.890625 13.453125 
Q 46.046875 20.015625 46.78125 33.40625 
Q 43.953125 29.203125 39.59375 26.953125 
Q 35.25 24.703125 29.984375 24.703125 
Q 19.046875 24.703125 12.671875 31.3125 
Q 6.296875 37.9375 6.296875 49.421875 
Q 6.296875 60.640625 12.9375 67.421875 
Q 19.578125 74.21875 30.609375 74.21875 
Q 43.265625 74.21875 49.921875 64.515625 
Q 56.59375 54.828125 56.59375 36.375 
Q 56.59375 19.140625 48.40625 8.859375 
Q 40.234375 -1.421875 26.421875 -1.421875 
Q 22.703125 -1.421875 18.890625 -0.6875 
Q 15.09375 0.046875 10.984375 1.515625 
z
M 30.609375 32.421875 
Q 37.25 32.421875 41.125 36.953125 
Q 45.015625 41.5 45.015625 49.421875 
Q 45.015625 57.28125 41.125 61.84375 
Q 37.25 66.40625 30.609375 66.40625 
Q 23.96875 66.40625 20.09375 61.84375 
Q 16.21875 57.28125 16.21875 49.421875 
Q 16.21875 41.5 20.09375 36.953125 
Q 23.96875 32.421875 30.609375 32.421875 
z
" id="DejaVuSans-39"/>
    </defs>
    <g transform="translate(369.18424 37.551928)scale(0.17 -0.17)">
     <use xlink:href="#DejaVuSans-62"/>
     <use x="63.476562" xlink:href="#DejaVuSans-65"/>
     <use x="125" xlink:href="#DejaVuSans-73"/>
     <use x="177.099609" xlink:href="#DejaVuSans-74"/>
     <use x="216.308594" xlink:href="#DejaVuSans-20"/>
     <use x="248.095703" xlink:href="#DejaVuSans-32"/>
     <use x="311.71875" xlink:href="#DejaVuSans-30"/>
     <use x="375.341797" xlink:href="#DejaVuSans-30"/>
     <use x="438.964844" xlink:href="#DejaVuSans-39"/>
    </g>
   </g>
   <g id="text_17">
    <!-- bbob f6, 5-D -->
    <defs>
     <path d="M 10.796875 72.90625 
L 49.515625 72.90625 
L 49.515625 64.59375 
L 19.828125 64.59375 
L 19.828125 46.734375 
Q 21.96875 47.46875 24.109375 47.828125 
Q 26.265625 48.1875 28.421875 48.1875 
Q 40.625 48.1875 47.75 41.5 
Q 54.890625 34.8125 54.890625 23.390625 
Q 54.890625 11.625 47.5625 5.09375 
Q 40.234375 -1.421875 26.90625 -1.421875 
Q 22.3125 -1.421875 17.546875 -0.640625 
Q 12.796875 0.140625 7.71875 1.703125 
L 7.71875 11.625 
Q 12.109375 9.234375 16.796875 8.0625 
Q 21.484375 6.890625 26.703125 6.890625 
Q 35.15625 6.890625 40.078125 11.328125 
Q 45.015625 15.765625 45.015625 23.390625 
Q 45.015625 31 40.078125 35.4375 
Q 35.15625 39.890625 26.703125 39.890625 
Q 22.75 39.890625 18.8125 39.015625 
Q 14.890625 38.140625 10.796875 36.28125 
z
" id="DejaVuSans-35"/>
    </defs>
    <g transform="translate(58.89048 35.290806)scale(0.102 -0.102)">
     <use xlink:href="#DejaVuSans-62"/>
     <use x="63.476562" xlink:href="#DejaVuSans-62"/>
     <use x="126.953125" xlink:href="#DejaVuSans-6f"/>
     <use x="188.134766" xlink:href="#DejaVuSans-62"/>
     <use x="251.611328" xlink:href="#DejaVuSans-20"/>
     <use x="283.398438" xlink:href="#DejaVuSans-66"/>
     <use x="318.603516" xlink:href="#DejaVuSans-36"/>
     <use x="382.226562" xlink:href="#DejaVuSans-2c"/>
     <use x="414.013672" xlink:href="#DejaVuSans-20"/>
     <use x="445.800781" xlink:href="#DejaVuSans-35"/>
     <use x="509.423828" xlink:href="#DejaVuSans-2d"/>
     <use x="545.507812" xlink:href="#DejaVuSans-44"/>
    </g>
    <!-- 51 targets: 100..1e-08 -->
    <defs>
     <path d="M 11.71875 12.40625 
L 22.015625 12.40625 
L 22.015625 0 
L 11.71875 0 
z
M 11.71875 51.703125 
L 22.015625 51.703125 
L 22.015625 39.3125 
L 11.71875 39.3125 
z
" id="DejaVuSans-3a"/>
    </defs>
    <g transform="translate(58.89048 46.712575)scale(0.102 -0.102)">
     <use xlink:href="#DejaVuSans-35"/>
     <use x="63.623047" xlink:href="#DejaVuSans-31"/>
     <use x="127.246094" xlink:href="#DejaVuSans-20"/>
     <use x="159.033203" xlink:href="#DejaVuSans-74"/>
     <use x="198.242188" xlink:href="#DejaVuSans-61"/>
     <use x="259.521484" xlink:href="#DejaVuSans-72"/>
     <use x="300.619141" xlink:href="#DejaVuSans-67"/>
     <use x="364.095703" xlink:href="#DejaVuSans-65"/>
     <use x="425.619141" xlink:href="#DejaVuSans-74"/>
     <use x="464.828125" xlink:href="#DejaVuSans-73"/>
     <use x="516.927734" xlink:href="#DejaVuSans-3a"/>
     <use x="550.619141" xlink:href="#DejaVuSans-20"/>
     <use x="582.40625" xlink:href="#DejaVuSans-31"/>
     <use x="646.029297" xlink:href="#DejaVuSans-30"/>
     <use x="709.652344" xlink:href="#DejaVuSans-30"/>
     <use x="773.275391" xlink:href="#DejaVuSans-2e"/>
     <use x="805.0625" xlink:href="#DejaVuSans-2e"/>
     <use x="836.849609" xlink:href="#DejaVuSans-31"/>
     <use x="900.472656" xlink:href="#DejaVuSans-65"/>
     <use x="961.996094" xlink:href="#DejaVuSans-2d"/>
     <use x="998.080078" xlink:href="#DejaVuSans-30"/>
     <use x="1061.703125" xlink:href="#DejaVuSans-38"/>
    </g>
    <!-- 15 instances -->
    <g transform="translate(58.89048 58.134344)scale(0.102 -0.102)">
     <use xlink:href="#DejaVuSans-31"/>
     <use x="63.623047" xlink:href="#DejaVuSans-35"/>
     <use x="127.246094" xlink:href="#DejaVuSans-20"/>
     <use x="159.033203" xlink:href="#DejaVuSans-69"/>
     <use x="186.816406" xlink:href="#DejaVuSans-6e"/>
     <use x="250.195312" xlink:href="#DejaVuSans-73"/>
     <use x="302.294922" xlink:href="#DejaVuSans-74"/>
     <use x="341.503906" xlink:href="#DejaVuSans-61"/>
     <use x="402.783203" xlink:href="#DejaVuSans-6e"/>
     <use x="466.162109" xlink:href="#DejaVuSans-63"/>
     <use x="521.142578" xlink:href="#DejaVuSans-65"/>
     <use x="582.666016" xlink:href="#DejaVuSans-73"/>
    </g>
   </g>
   <g id="text_18">
    <!-- v0.0.0 -->
    <g style="fill:#808080;" transform="translate(178.96275 290.099912)scale(0.1 -0.1)">
     <use xlink:href="#DejaVuSans-76"/>
     <use x="59.179688" xlink:href="#DejaVuSans-30"/>
     <use x="122.802734" xlink:href="#DejaVuSans-2e"/>
     <use x="154.589844" xlink:href="#DejaVuSans-30"/>
     <use x="218.212891" xlink:href="#DejaVuSans-2e"/>
     <use x="250" xlink:href="#DejaVuSans-30"/>
    </g>
   </g>
   <g id="text_19">
    <!-- 6 Attractive sector -->
    <g transform="translate(101.726812 18.84)scale(0.2 -0.2)">
     <use xlink:href="#DejaVuSans-36"/>
     <use x="63.623047" xlink:href="#DejaVuSans-20"/>
     <use x="95.410156" xlink:href="#DejaVuSans-41"/>
     <use x="163.802734" xlink:href="#DejaVuSans-74"/>
     <use x="203.011719" xlink:href="#DejaVuSans-74"/>
     <use x="242.220703" xlink:href="#DejaVuSans-72"/>
     <use x="283.333984" xlink:href="#DejaVuSans-61"/>
     <use x="344.613281" xlink:href="#DejaVuSans-63"/>
     <use x="399.59375" xlink:href="#DejaVuSans-74"/>
     <use x="438.802734" xlink:href="#DejaVuSans-69"/>
     <use x="466.585938" xlink:href="#DejaVuSans-76"/>
     <use x="525.765625" xlink:href="#DejaVuSans-65"/>
     <use x="587.289062" xlink:href="#DejaVuSans-20"/>
     <use x="619.076172" xlink:href="#DejaVuSans-73"/>
     <use x="671.175781" xlink:href="#DejaVuSans-65"/>
     <use x="732.699219" xlink:href="#DejaVuSans-63"/>
     <use x="787.679688" xlink:href="#DejaVuSans-74"/>
     <use x="826.888672" xlink:href="#DejaVuSans-6f"/>
     <use x="888.070312" xlink:href="#DejaVuSans-72"/>
    </g>
   </g>
  </g>
 </g>
 <defs>
  <clipPath id="p1b8fe060a3">
   <rect height="270.04" width="277.048" x="56.12" y="24.84"/>
  </clipPath>
 </defs>
</svg>
