<?xml version="1.0" encoding="utf-8" standalone="no"?>
<!DOCTYPE svg PUBLIC "-//W3C//DTD SVG 1.1//EN"
  "http://www.w3.org/Graphics/SVG/1.1/DTD/svg11.dtd">
<!-- Created with matplotlib (http://matplotlib.org/) -->
<svg height="345.6pt" version="1.1" viewBox="0 0 460.8 345.6" width="460.8pt" xmlns="http://www.w3.org/2000/svg" xmlns:xlink="http://www.w3.org/1999/xlink">
 <defs>
  <style type="text/css">
*{stroke-linecap:butt;stroke-linejoin:round;}
  </style>
 </defs>
 <g id="figure_1">
  <g id="patch_1">
   <path d="M 0 345.6 
L 460.8 345.6 
L 460.8 0 
L 0 0 
z
" style="fill:#ffffff;"/>
  </g>
  <g id="axes_1">
   <g id="patch_2">
    <path d="M 56.12 294.88 
L 333.168 294.88 
L 333.168 24.84 
L 56.12 24.84 
z
" style="fill:#ffffff;"/>
   </g>
   <g id="line2d_1">
    <path d="M 4.627463 294.88 
L 4.627463 289.637523 
L 23.511104 289.637523 
L 23.511104 284.395046 
L 60.629683 284.395046 
L 60.629683 279.152568 
L 87.892408 279.152568 
L 87.892408 273.910091 
L 112.770924 273.910091 
L 112.770924 268.667614 
L 128.948245 268.667614 
L 128.948245 263.425137 
L 151.796099 263.425137 
L 151.796099 258.18266 
L 155.218437 258.18266 
L 155.218437 252.940182 
L 164.285728 252.940182 
L 164.285728 247.697705 
L 175.298563 247.697705 
L 175.298563 242.455228 
L 180.181125 242.455228 
L 180.181125 237.212751 
L 185.173518 237.212751 
L 185.173518 231.970274 
L 189.267933 231.970274 
L 189.267933 226.727797 
L 192.182783 226.727797 
L 192.182783 221.485319 
L 195.374406 221.485319 
L 195.374406 216.242842 
L 198.029737 216.242842 
L 198.029737 211.000365 
L 200.392174 211.000365 
L 200.392174 205.757888 
L 202.611119 205.757888 
L 202.611119 200.515411 
L 204.27363 200.515411 
L 204.27363 195.272933 
L 206.490431 195.272933 
L 206.490431 190.030456 
L 208.212158 190.030456 
L 208.212158 184.787979 
L 208.452744 184.787979 
L 208.452744 179.545502 
L 209.276131 179.545502 
L 209.276131 174.303025 
L 212.167166 174.303025 
L 212.167166 169.060547 
L 212.915552 169.060547 
L 212.915552 163.81807 
L 213.364103 163.81807 
L 213.364103 158.575593 
L 213.405848 158.575593 
L 213.405848 153.333116 
L 213.46214 153.333116 
L 213.46214 148.090639 
L 213.503739 148.090639 
L 213.503739 142.848162 
L 213.571372 142.848162 
L 213.571372 137.605684 
L 214.018843 137.605684 
L 214.018843 132.363207 
L 214.051299 132.363207 
L 214.051299 127.12073 
L 214.103241 127.12073 
L 214.103241 121.878253 
L 214.158958 121.878253 
L 214.158958 116.635776 
L 214.204481 116.635776 
L 214.204481 111.393298 
L 214.2405 111.393298 
L 214.2405 106.150821 
L 214.281213 106.150821 
L 214.281213 100.908344 
L 214.33264 100.908344 
L 214.33264 95.665867 
L 215.825804 95.665867 
L 215.825804 90.42339 
L 215.864753 90.42339 
L 215.864753 85.180912 
L 215.896749 85.180912 
L 215.896749 79.938435 
L 215.930891 79.938435 
L 215.930891 74.695958 
L 215.97086 74.695958 
L 215.97086 69.453481 
L 215.998501 69.453481 
L 215.998501 64.211004 
L 216.039957 64.211004 
L 216.039957 58.968526 
L 216.079128 58.968526 
L 216.079128 53.726049 
L 216.10909 53.726049 
L 216.10909 48.483572 
L 216.132228 48.483572 
L 216.132228 43.241095 
L 216.167848 43.241095 
L 216.167848 37.998618 
L 216.216106 37.998618 
L 216.216106 32.756141 
L 216.241963 32.756141 
L 216.241963 27.513663 
L 333.168 27.513663 
" style="fill:none;stroke:#f5deb3;stroke-linecap:square;stroke-width:4;"/>
   </g>
   <g id="line2d_2">
    <defs>
     <path d="M -0 7.778175 
L 7.778175 0 
L 0 -7.778175 
L -7.778175 -0 
z
" id="m848a2cbc89" style="stroke:#f5deb3;stroke-linejoin:miter;stroke-width:1.5;"/>
    </defs>
    <g>
     <use style="fill:#f5deb3;stroke:#f5deb3;stroke-linejoin:miter;stroke-width:1.5;" x="128.948245" xlink:href="#m848a2cbc89" y="263.425137"/>
     <use style="fill:#f5deb3;stroke:#f5deb3;stroke-linejoin:miter;stroke-width:1.5;" x="212.167166" xlink:href="#m848a2cbc89" y="174.303025"/>
     <use style="fill:#f5deb3;stroke:#f5deb3;stroke-linejoin:miter;stroke-width:1.5;" x="216.10909" xlink:href="#m848a2cbc89" y="53.726049"/>
     <use style="fill:#f5deb3;stroke:#f5deb3;stroke-linejoin:miter;stroke-width:1.5;" x="216.241963" xlink:href="#m848a2cbc89" y="27.513663"/>
     <use style="fill:#f5deb3;stroke:#f5deb3;stroke-linejoin:miter;stroke-width:1.5;" x="216.241963" xlink:href="#m848a2cbc89" y="27.513663"/>
     <use style="fill:#f5deb3;stroke:#f5deb3;stroke-linejoin:miter;stroke-width:1.5;" x="333.168" xlink:href="#m848a2cbc89" y="27.513663"/>
    </g>
   </g>
   <g id="line2d_3">
    <path style="fill:none;stroke:#f5deb3;stroke-linecap:square;stroke-width:4;"/>
    <g/>
   </g>
   <g id="line2d_4">
    <path d="M 333.168 27.513663 
L 363.64328 32.86099 
" style="fill:none;stroke:#f5deb3;stroke-linecap:square;stroke-width:4;"/>
    <g>
     <use style="fill:#f5deb3;stroke:#f5deb3;stroke-linejoin:miter;stroke-width:1.5;" x="333.168" xlink:href="#m848a2cbc89" y="27.513663"/>
     <use style="fill:#f5deb3;stroke:#f5deb3;stroke-linejoin:miter;stroke-width:1.5;" x="363.64328" xlink:href="#m848a2cbc89" y="32.86099"/>
    </g>
   </g>
   <g id="matplotlib.axis_1">
    <g id="xtick_1">
     <g id="line2d_5">
      <path clip-path="url(#pf5676bbd53)" d="M 56.12 294.88 
L 56.12 24.84 
" style="fill:none;stroke:#b0b0b0;stroke-linecap:square;stroke-width:0.8;"/>
     </g>
     <g id="line2d_6">
      <defs>
       <path d="M 0 0 
L 0 3.5 
" id="m1a3d44aafe" style="stroke:#000000;stroke-width:0.8;"/>
      </defs>
      <g>
       <use style="stroke:#000000;stroke-width:0.8;" x="56.12" xlink:href="#m1a3d44aafe" y="294.88"/>
      </g>
     </g>
     <g id="text_1">
      <!-- 0 -->
      <defs>
       <path d="M 31.78125 66.40625 
Q 24.171875 66.40625 20.328125 58.90625 
Q 16.5 51.421875 16.5 36.375 
Q 16.5 21.390625 20.328125 13.890625 
Q 24.171875 6.390625 31.78125 6.390625 
Q 39.453125 6.390625 43.28125 13.890625 
Q 47.125 21.390625 47.125 36.375 
Q 47.125 51.421875 43.28125 58.90625 
Q 39.453125 66.40625 31.78125 66.40625 
z
M 31.78125 74.21875 
Q 44.046875 74.21875 50.515625 64.515625 
Q 56.984375 54.828125 56.984375 36.375 
Q 56.984375 17.96875 50.515625 8.265625 
Q 44.046875 -1.421875 31.78125 -1.421875 
Q 19.53125 -1.421875 13.0625 8.265625 
Q 6.59375 17.96875 6.59375 36.375 
Q 6.59375 54.828125 13.0625 64.515625 
Q 19.53125 74.21875 31.78125 74.21875 
z
" id="DejaVuSans-30"/>
      </defs>
      <g transform="translate(49.7575 317.076875)scale(0.2 -0.2)">
       <use xlink:href="#DejaVuSans-30"/>
      </g>
     </g>
    </g>
    <g id="xtick_2">
     <g id="line2d_7">
      <path clip-path="url(#pf5676bbd53)" d="M 135.276571 294.88 
L 135.276571 24.84 
" style="fill:none;stroke:#b0b0b0;stroke-linecap:square;stroke-width:0.8;"/>
     </g>
     <g id="line2d_8">
      <g>
       <use style="stroke:#000000;stroke-width:0.8;" x="135.276571" xlink:href="#m1a3d44aafe" y="294.88"/>
      </g>
     </g>
     <g id="text_2">
      <!-- 2 -->
      <defs>
       <path d="M 19.1875 8.296875 
L 53.609375 8.296875 
L 53.609375 0 
L 7.328125 0 
L 7.328125 8.296875 
Q 12.9375 14.109375 22.625 23.890625 
Q 32.328125 33.6875 34.8125 36.53125 
Q 39.546875 41.84375 41.421875 45.53125 
Q 43.3125 49.21875 43.3125 52.78125 
Q 43.3125 58.59375 39.234375 62.25 
Q 35.15625 65.921875 28.609375 65.921875 
Q 23.96875 65.921875 18.8125 64.3125 
Q 13.671875 62.703125 7.8125 59.421875 
L 7.8125 69.390625 
Q 13.765625 71.78125 18.9375 73 
Q 24.125 74.21875 28.421875 74.21875 
Q 39.75 74.21875 46.484375 68.546875 
Q 53.21875 62.890625 53.21875 53.421875 
Q 53.21875 48.921875 51.53125 44.890625 
Q 49.859375 40.875 45.40625 35.40625 
Q 44.1875 33.984375 37.640625 27.21875 
Q 31.109375 20.453125 19.1875 8.296875 
z
" id="DejaVuSans-32"/>
      </defs>
      <g transform="translate(128.914071 317.076875)scale(0.2 -0.2)">
       <use xlink:href="#DejaVuSans-32"/>
      </g>
     </g>
    </g>
    <g id="xtick_3">
     <g id="line2d_9">
      <path clip-path="url(#pf5676bbd53)" d="M 214.433143 294.88 
L 214.433143 24.84 
" style="fill:none;stroke:#b0b0b0;stroke-linecap:square;stroke-width:0.8;"/>
     </g>
     <g id="line2d_10">
      <g>
       <use style="stroke:#000000;stroke-width:0.8;" x="214.433143" xlink:href="#m1a3d44aafe" y="294.88"/>
      </g>
     </g>
     <g id="text_3">
      <!-- 4 -->
      <defs>
       <path d="M 37.796875 64.3125 
L 12.890625 25.390625 
L 37.796875 25.390625 
z
M 35.203125 72.90625 
L 47.609375 72.90625 
L 47.609375 25.390625 
L 58.015625 25.390625 
L 58.015625 17.1875 
L 47.609375 17.1875 
L 47.609375 0 
L 37.796875 0 
L 37.796875 17.1875 
L 4.890625 17.1875 
L 4.890625 26.703125 
z
" id="DejaVuSans-34"/>
      </defs>
      <g transform="translate(208.070643 317.076875)scale(0.2 -0.2)">
       <use xlink:href="#DejaVuSans-34"/>
      </g>
     </g>
    </g>
    <g id="xtick_4">
     <g id="line2d_11">
      <path clip-path="url(#pf5676bbd53)" d="M 293.589714 294.88 
L 293.589714 24.84 
" style="fill:none;stroke:#b0b0b0;stroke-linecap:square;stroke-width:0.8;"/>
     </g>
     <g id="line2d_12">
      <g>
       <use style="stroke:#000000;stroke-width:0.8;" x="293.589714" xlink:href="#m1a3d44aafe" y="294.88"/>
      </g>
     </g>
     <g id="text_4">
      <!-- 6 -->
      <defs>
       <path d="M 33.015625 40.375 
Q 26.375 40.375 22.484375 35.828125 
Q 18.609375 31.296875 18.609375 23.390625 
Q 18.609375 15.53125 22.484375 10.953125 
Q 26.375 6.390625 33.015625 6.390625 
Q 39.65625 6.390625 43.53125 10.953125 
Q 47.40625 15.53125 47.40625 23.390625 
Q 47.40625 31.296875 43.53125 35.828125 
Q 39.65625 40.375 33.015625 40.375 
z
M 52.59375 71.296875 
L 52.59375 62.3125 
Q 48.875 64.0625 45.09375 64.984375 
Q 41.3125 65.921875 37.59375 65.921875 
Q 27.828125 65.921875 22.671875 59.328125 
Q 17.53125 52.734375 16.796875 39.40625 
Q 19.671875 43.65625 24.015625 45.921875 
Q 28.375 48.1875 33.59375 48.1875 
Q 44.578125 48.1875 50.953125 41.515625 
Q 57.328125 34.859375 57.328125 23.390625 
Q 57.328125 12.15625 50.6875 5.359375 
Q 44.046875 -1.421875 33.015625 -1.421875 
Q 20.359375 -1.421875 13.671875 8.265625 
Q 6.984375 17.96875 6.984375 36.375 
Q 6.984375 53.65625 15.1875 63.9375 
Q 23.390625 74.21875 37.203125 74.21875 
Q 40.921875 74.21875 44.703125 73.484375 
Q 48.484375 72.75 52.59375 71.296875 
z
" id="DejaVuSans-36"/>
      </defs>
      <g transform="translate(287.227214 317.076875)scale(0.2 -0.2)">
       <use xlink:href="#DejaVuSans-36"/>
      </g>
     </g>
    </g>
    <g id="xtick_5">
     <g id="line2d_13">
      <path clip-path="url(#pf5676bbd53)" d="M 56.12 294.88 
L 56.12 24.84 
" style="fill:none;stroke:#b0b0b0;stroke-linecap:square;stroke-width:0.8;"/>
     </g>
     <g id="line2d_14">
      <defs>
       <path d="M 0 0 
L 0 2 
" id="mee8910131e" style="stroke:#000000;stroke-width:0.6;"/>
      </defs>
      <g>
       <use style="stroke:#000000;stroke-width:0.6;" x="56.12" xlink:href="#mee8910131e" y="294.88"/>
      </g>
     </g>
    </g>
    <g id="xtick_6">
     <g id="line2d_15">
      <path clip-path="url(#pf5676bbd53)" d="M 95.698286 294.88 
L 95.698286 24.84 
" style="fill:none;stroke:#b0b0b0;stroke-linecap:square;stroke-width:0.8;"/>
     </g>
     <g id="line2d_16">
      <g>
       <use style="stroke:#000000;stroke-width:0.6;" x="95.698286" xlink:href="#mee8910131e" y="294.88"/>
      </g>
     </g>
    </g>
    <g id="xtick_7">
     <g id="line2d_17">
      <path clip-path="url(#pf5676bbd53)" d="M 135.276571 294.88 
L 135.276571 24.84 
" style="fill:none;stroke:#b0b0b0;stroke-linecap:square;stroke-width:0.8;"/>
     </g>
     <g id="line2d_18">
      <g>
       <use style="stroke:#000000;stroke-width:0.6;" x="135.276571" xlink:href="#mee8910131e" y="294.88"/>
      </g>
     </g>
    </g>
    <g id="xtick_8">
     <g id="line2d_19">
      <path clip-path="url(#pf5676bbd53)" d="M 174.854857 294.88 
L 174.854857 24.84 
" style="fill:none;stroke:#b0b0b0;stroke-linecap:square;stroke-width:0.8;"/>
     </g>
     <g id="line2d_20">
      <g>
       <use style="stroke:#000000;stroke-width:0.6;" x="174.854857" xlink:href="#mee8910131e" y="294.88"/>
      </g>
     </g>
    </g>
    <g id="xtick_9">
     <g id="line2d_21">
      <path clip-path="url(#pf5676bbd53)" d="M 214.433143 294.88 
L 214.433143 24.84 
" style="fill:none;stroke:#b0b0b0;stroke-linecap:square;stroke-width:0.8;"/>
     </g>
     <g id="line2d_22">
      <g>
       <use style="stroke:#000000;stroke-width:0.6;" x="214.433143" xlink:href="#mee8910131e" y="294.88"/>
      </g>
     </g>
    </g>
    <g id="xtick_10">
     <g id="line2d_23">
      <path clip-path="url(#pf5676bbd53)" d="M 254.011429 294.88 
L 254.011429 24.84 
" style="fill:none;stroke:#b0b0b0;stroke-linecap:square;stroke-width:0.8;"/>
     </g>
     <g id="line2d_24">
      <g>
       <use style="stroke:#000000;stroke-width:0.6;" x="254.011429" xlink:href="#mee8910131e" y="294.88"/>
      </g>
     </g>
    </g>
    <g id="xtick_11">
     <g id="line2d_25">
      <path clip-path="url(#pf5676bbd53)" d="M 293.589714 294.88 
L 293.589714 24.84 
" style="fill:none;stroke:#b0b0b0;stroke-linecap:square;stroke-width:0.8;"/>
     </g>
     <g id="line2d_26">
      <g>
       <use style="stroke:#000000;stroke-width:0.6;" x="293.589714" xlink:href="#mee8910131e" y="294.88"/>
      </g>
     </g>
    </g>
    <g id="xtick_12">
     <g id="line2d_27">
      <path clip-path="url(#pf5676bbd53)" d="M 333.168 294.88 
L 333.168 24.84 
" style="fill:none;stroke:#b0b0b0;stroke-linecap:square;stroke-width:0.8;"/>
     </g>
     <g id="line2d_28">
      <g>
       <use style="stroke:#000000;stroke-width:0.6;" x="333.168" xlink:href="#mee8910131e" y="294.88"/>
      </g>
     </g>
    </g>
    <g id="text_5">
     <!-- log10(# f-evals / dimension) -->
     <defs>
      <path d="M 9.421875 75.984375 
L 18.40625 75.984375 
L 18.40625 0 
L 9.421875 0 
z
" id="DejaVuSans-6c"/>
      <path d="M 30.609375 48.390625 
Q 23.390625 48.390625 19.1875 42.75 
Q 14.984375 37.109375 14.984375 27.296875 
Q 14.984375 17.484375 19.15625 11.84375 
Q 23.34375 6.203125 30.609375 6.203125 
Q 37.796875 6.203125 41.984375 11.859375 
Q 46.1875 17.53125 46.1875 27.296875 
Q 46.1875 37.015625 41.984375 42.703125 
Q 37.796875 48.390625 30.609375 48.390625 
z
M 30.609375 56 
Q 42.328125 56 49.015625 48.375 
Q 55.71875 40.765625 55.71875 27.296875 
Q 55.71875 13.875 49.015625 6.21875 
Q 42.328125 -1.421875 30.609375 -1.421875 
Q 18.84375 -1.421875 12.171875 6.21875 
Q 5.515625 13.875 5.515625 27.296875 
Q 5.515625 40.765625 12.171875 48.375 
Q 18.84375 56 30.609375 56 
z
" id="DejaVuSans-6f"/>
      <path d="M 45.40625 27.984375 
Q 45.40625 37.75 41.375 43.109375 
Q 37.359375 48.484375 30.078125 48.484375 
Q 22.859375 48.484375 18.828125 43.109375 
Q 14.796875 37.75 14.796875 27.984375 
Q 14.796875 18.265625 18.828125 12.890625 
Q 22.859375 7.515625 30.078125 7.515625 
Q 37.359375 7.515625 41.375 12.890625 
Q 45.40625 18.265625 45.40625 27.984375 
z
M 54.390625 6.78125 
Q 54.390625 -7.171875 48.1875 -13.984375 
Q 42 -20.796875 29.203125 -20.796875 
Q 24.46875 -20.796875 20.265625 -20.09375 
Q 16.0625 -19.390625 12.109375 -17.921875 
L 12.109375 -9.1875 
Q 16.0625 -11.328125 19.921875 -12.34375 
Q 23.78125 -13.375 27.78125 -13.375 
Q 36.625 -13.375 41.015625 -8.765625 
Q 45.40625 -4.15625 45.40625 5.171875 
L 45.40625 9.625 
Q 42.625 4.78125 38.28125 2.390625 
Q 33.9375 0 27.875 0 
Q 17.828125 0 11.671875 7.65625 
Q 5.515625 15.328125 5.515625 27.984375 
Q 5.515625 40.671875 11.671875 48.328125 
Q 17.828125 56 27.875 56 
Q 33.9375 56 38.28125 53.609375 
Q 42.625 51.21875 45.40625 46.390625 
L 45.40625 54.6875 
L 54.390625 54.6875 
z
" id="DejaVuSans-67"/>
      <path d="M 12.40625 8.296875 
L 28.515625 8.296875 
L 28.515625 63.921875 
L 10.984375 60.40625 
L 10.984375 69.390625 
L 28.421875 72.90625 
L 38.28125 72.90625 
L 38.28125 8.296875 
L 54.390625 8.296875 
L 54.390625 0 
L 12.40625 0 
z
" id="DejaVuSans-31"/>
      <path d="M 31 75.875 
Q 24.46875 64.65625 21.28125 53.65625 
Q 18.109375 42.671875 18.109375 31.390625 
Q 18.109375 20.125 21.3125 9.0625 
Q 24.515625 -2 31 -13.1875 
L 23.1875 -13.1875 
Q 15.875 -1.703125 12.234375 9.375 
Q 8.59375 20.453125 8.59375 31.390625 
Q 8.59375 42.28125 12.203125 53.3125 
Q 15.828125 64.359375 23.1875 75.875 
z
" id="DejaVuSans-28"/>
      <path d="M 51.125 44 
L 36.921875 44 
L 32.8125 27.6875 
L 47.125 27.6875 
z
M 43.796875 71.78125 
L 38.71875 51.515625 
L 52.984375 51.515625 
L 58.109375 71.78125 
L 65.921875 71.78125 
L 60.890625 51.515625 
L 76.125 51.515625 
L 76.125 44 
L 58.984375 44 
L 54.984375 27.6875 
L 70.515625 27.6875 
L 70.515625 20.21875 
L 53.078125 20.21875 
L 48 0 
L 40.1875 0 
L 45.21875 20.21875 
L 30.90625 20.21875 
L 25.875 0 
L 18.015625 0 
L 23.09375 20.21875 
L 7.71875 20.21875 
L 7.71875 27.6875 
L 24.90625 27.6875 
L 29 44 
L 13.28125 44 
L 13.28125 51.515625 
L 30.90625 51.515625 
L 35.890625 71.78125 
z
" id="DejaVuSans-23"/>
      <path id="DejaVuSans-20"/>
      <path d="M 37.109375 75.984375 
L 37.109375 68.5 
L 28.515625 68.5 
Q 23.6875 68.5 21.796875 66.546875 
Q 19.921875 64.59375 19.921875 59.515625 
L 19.921875 54.6875 
L 34.71875 54.6875 
L 34.71875 47.703125 
L 19.921875 47.703125 
L 19.921875 0 
L 10.890625 0 
L 10.890625 47.703125 
L 2.296875 47.703125 
L 2.296875 54.6875 
L 10.890625 54.6875 
L 10.890625 58.5 
Q 10.890625 67.625 15.140625 71.796875 
Q 19.390625 75.984375 28.609375 75.984375 
z
" id="DejaVuSans-66"/>
      <path d="M 4.890625 31.390625 
L 31.203125 31.390625 
L 31.203125 23.390625 
L 4.890625 23.390625 
z
" id="DejaVuSans-2d"/>
      <path d="M 56.203125 29.59375 
L 56.203125 25.203125 
L 14.890625 25.203125 
Q 15.484375 15.921875 20.484375 11.0625 
Q 25.484375 6.203125 34.421875 6.203125 
Q 39.59375 6.203125 44.453125 7.46875 
Q 49.3125 8.734375 54.109375 11.28125 
L 54.109375 2.78125 
Q 49.265625 0.734375 44.1875 -0.34375 
Q 39.109375 -1.421875 33.890625 -1.421875 
Q 20.796875 -1.421875 13.15625 6.1875 
Q 5.515625 13.8125 5.515625 26.8125 
Q 5.515625 40.234375 12.765625 48.109375 
Q 20.015625 56 32.328125 56 
Q 43.359375 56 49.78125 48.890625 
Q 56.203125 41.796875 56.203125 29.59375 
z
M 47.21875 32.234375 
Q 47.125 39.59375 43.09375 43.984375 
Q 39.0625 48.390625 32.421875 48.390625 
Q 24.90625 48.390625 20.390625 44.140625 
Q 15.875 39.890625 15.1875 32.171875 
z
" id="DejaVuSans-65"/>
      <path d="M 2.984375 54.6875 
L 12.5 54.6875 
L 29.59375 8.796875 
L 46.6875 54.6875 
L 56.203125 54.6875 
L 35.6875 0 
L 23.484375 0 
z
" id="DejaVuSans-76"/>
      <path d="M 34.28125 27.484375 
Q 23.390625 27.484375 19.1875 25 
Q 14.984375 22.515625 14.984375 16.5 
Q 14.984375 11.71875 18.140625 8.90625 
Q 21.296875 6.109375 26.703125 6.109375 
Q 34.1875 6.109375 38.703125 11.40625 
Q 43.21875 16.703125 43.21875 25.484375 
L 43.21875 27.484375 
z
M 52.203125 31.203125 
L 52.203125 0 
L 43.21875 0 
L 43.21875 8.296875 
Q 40.140625 3.328125 35.546875 0.953125 
Q 30.953125 -1.421875 24.3125 -1.421875 
Q 15.921875 -1.421875 10.953125 3.296875 
Q 6 8.015625 6 15.921875 
Q 6 25.140625 12.171875 29.828125 
Q 18.359375 34.515625 30.609375 34.515625 
L 43.21875 34.515625 
L 43.21875 35.40625 
Q 43.21875 41.609375 39.140625 45 
Q 35.0625 48.390625 27.6875 48.390625 
Q 23 48.390625 18.546875 47.265625 
Q 14.109375 46.140625 10.015625 43.890625 
L 10.015625 52.203125 
Q 14.9375 54.109375 19.578125 55.046875 
Q 24.21875 56 28.609375 56 
Q 40.484375 56 46.34375 49.84375 
Q 52.203125 43.703125 52.203125 31.203125 
z
" id="DejaVuSans-61"/>
      <path d="M 44.28125 53.078125 
L 44.28125 44.578125 
Q 40.484375 46.53125 36.375 47.5 
Q 32.28125 48.484375 27.875 48.484375 
Q 21.1875 48.484375 17.84375 46.4375 
Q 14.5 44.390625 14.5 40.28125 
Q 14.5 37.15625 16.890625 35.375 
Q 19.28125 33.59375 26.515625 31.984375 
L 29.59375 31.296875 
Q 39.15625 29.25 43.1875 25.515625 
Q 47.21875 21.78125 47.21875 15.09375 
Q 47.21875 7.46875 41.1875 3.015625 
Q 35.15625 -1.421875 24.609375 -1.421875 
Q 20.21875 -1.421875 15.453125 -0.5625 
Q 10.6875 0.296875 5.421875 2 
L 5.421875 11.28125 
Q 10.40625 8.6875 15.234375 7.390625 
Q 20.0625 6.109375 24.8125 6.109375 
Q 31.15625 6.109375 34.5625 8.28125 
Q 37.984375 10.453125 37.984375 14.40625 
Q 37.984375 18.0625 35.515625 20.015625 
Q 33.0625 21.96875 24.703125 23.78125 
L 21.578125 24.515625 
Q 13.234375 26.265625 9.515625 29.90625 
Q 5.8125 33.546875 5.8125 39.890625 
Q 5.8125 47.609375 11.28125 51.796875 
Q 16.75 56 26.8125 56 
Q 31.78125 56 36.171875 55.265625 
Q 40.578125 54.546875 44.28125 53.078125 
z
" id="DejaVuSans-73"/>
      <path d="M 25.390625 72.90625 
L 33.6875 72.90625 
L 8.296875 -9.28125 
L 0 -9.28125 
z
" id="DejaVuSans-2f"/>
      <path d="M 45.40625 46.390625 
L 45.40625 75.984375 
L 54.390625 75.984375 
L 54.390625 0 
L 45.40625 0 
L 45.40625 8.203125 
Q 42.578125 3.328125 38.25 0.953125 
Q 33.9375 -1.421875 27.875 -1.421875 
Q 17.96875 -1.421875 11.734375 6.484375 
Q 5.515625 14.40625 5.515625 27.296875 
Q 5.515625 40.1875 11.734375 48.09375 
Q 17.96875 56 27.875 56 
Q 33.9375 56 38.25 53.625 
Q 42.578125 51.265625 45.40625 46.390625 
z
M 14.796875 27.296875 
Q 14.796875 17.390625 18.875 11.75 
Q 22.953125 6.109375 30.078125 6.109375 
Q 37.203125 6.109375 41.296875 11.75 
Q 45.40625 17.390625 45.40625 27.296875 
Q 45.40625 37.203125 41.296875 42.84375 
Q 37.203125 48.484375 30.078125 48.484375 
Q 22.953125 48.484375 18.875 42.84375 
Q 14.796875 37.203125 14.796875 27.296875 
z
" id="DejaVuSans-64"/>
      <path d="M 9.421875 54.6875 
L 18.40625 54.6875 
L 18.40625 0 
L 9.421875 0 
z
M 9.421875 75.984375 
L 18.40625 75.984375 
L 18.40625 64.59375 
L 9.421875 64.59375 
z
" id="DejaVuSans-69"/>
      <path d="M 52 44.1875 
Q 55.375 50.25 60.0625 53.125 
Q 64.75 56 71.09375 56 
Q 79.640625 56 84.28125 50.015625 
Q 88.921875 44.046875 88.921875 33.015625 
L 88.921875 0 
L 79.890625 0 
L 79.890625 32.71875 
Q 79.890625 40.578125 77.09375 44.375 
Q 74.3125 48.1875 68.609375 48.1875 
Q 61.625 48.1875 57.5625 43.546875 
Q 53.515625 38.921875 53.515625 30.90625 
L 53.515625 0 
L 44.484375 0 
L 44.484375 32.71875 
Q 44.484375 40.625 41.703125 44.40625 
Q 38.921875 48.1875 33.109375 48.1875 
Q 26.21875 48.1875 22.15625 43.53125 
Q 18.109375 38.875 18.109375 30.90625 
L 18.109375 0 
L 9.078125 0 
L 9.078125 54.6875 
L 18.109375 54.6875 
L 18.109375 46.1875 
Q 21.1875 51.21875 25.484375 53.609375 
Q 29.78125 56 35.6875 56 
Q 41.65625 56 45.828125 52.96875 
Q 50 49.953125 52 44.1875 
z
" id="DejaVuSans-6d"/>
      <path d="M 54.890625 33.015625 
L 54.890625 0 
L 45.90625 0 
L 45.90625 32.71875 
Q 45.90625 40.484375 42.875 44.328125 
Q 39.84375 48.1875 33.796875 48.1875 
Q 26.515625 48.1875 22.3125 43.546875 
Q 18.109375 38.921875 18.109375 30.90625 
L 18.109375 0 
L 9.078125 0 
L 9.078125 54.6875 
L 18.109375 54.6875 
L 18.109375 46.1875 
Q 21.34375 51.125 25.703125 53.5625 
Q 30.078125 56 35.796875 56 
Q 45.21875 56 50.046875 50.171875 
Q 54.890625 44.34375 54.890625 33.015625 
z
" id="DejaVuSans-6e"/>
      <path d="M 8.015625 75.875 
L 15.828125 75.875 
Q 23.140625 64.359375 26.78125 53.3125 
Q 30.421875 42.28125 30.421875 31.390625 
Q 30.421875 20.453125 26.78125 9.375 
Q 23.140625 -1.703125 15.828125 -13.1875 
L 8.015625 -13.1875 
Q 14.5 -2 17.703125 9.0625 
Q 20.90625 20.125 20.90625 31.390625 
Q 20.90625 42.671875 17.703125 53.65625 
Q 14.5 64.65625 8.015625 75.875 
z
" id="DejaVuSans-29"/>
     </defs>
     <g transform="translate(73.803219 338.153594)scale(0.17 -0.17)">
      <use xlink:href="#DejaVuSans-6c"/>
      <use x="27.783203" xlink:href="#DejaVuSans-6f"/>
      <use x="88.964844" xlink:href="#DejaVuSans-67"/>
      <use x="152.441406" xlink:href="#DejaVuSans-31"/>
      <use x="216.064453" xlink:href="#DejaVuSans-30"/>
      <use x="279.6875" xlink:href="#DejaVuSans-28"/>
      <use x="318.701172" xlink:href="#DejaVuSans-23"/>
      <use x="402.490234" xlink:href="#DejaVuSans-20"/>
      <use x="434.277344" xlink:href="#DejaVuSans-66"/>
      <use x="469.404297" xlink:href="#DejaVuSans-2d"/>
      <use x="505.488281" xlink:href="#DejaVuSans-65"/>
      <use x="567.011719" xlink:href="#DejaVuSans-76"/>
      <use x="626.191406" xlink:href="#DejaVuSans-61"/>
      <use x="687.470703" xlink:href="#DejaVuSans-6c"/>
      <use x="715.253906" xlink:href="#DejaVuSans-73"/>
      <use x="767.353516" xlink:href="#DejaVuSans-20"/>
      <use x="799.140625" xlink:href="#DejaVuSans-2f"/>
      <use x="832.832031" xlink:href="#DejaVuSans-20"/>
      <use x="864.619141" xlink:href="#DejaVuSans-64"/>
      <use x="928.095703" xlink:href="#DejaVuSans-69"/>
      <use x="955.878906" xlink:href="#DejaVuSans-6d"/>
      <use x="1053.291016" xlink:href="#DejaVuSans-65"/>
      <use x="1114.814453" xlink:href="#DejaVuSans-6e"/>
      <use x="1178.193359" xlink:href="#DejaVuSans-73"/>
      <use x="1230.292969" xlink:href="#DejaVuSans-69"/>
      <use x="1258.076172" xlink:href="#DejaVuSans-6f"/>
      <use x="1319.257812" xlink:href="#DejaVuSans-6e"/>
      <use x="1382.636719" xlink:href="#DejaVuSans-29"/>
     </g>
    </g>
   </g>
   <g id="matplotlib.axis_2">
    <g id="ytick_1">
     <g id="line2d_29">
      <path clip-path="url(#pf5676bbd53)" d="M 56.12 294.88 
L 333.168 294.88 
" style="fill:none;stroke:#b0b0b0;stroke-linecap:square;stroke-width:0.8;"/>
     </g>
     <g id="line2d_30">
      <defs>
       <path d="M 0 0 
L -3.5 0 
" id="md9d908e66c" style="stroke:#000000;stroke-width:0.8;"/>
      </defs>
      <g>
       <use style="stroke:#000000;stroke-width:0.8;" x="56.12" xlink:href="#md9d908e66c" y="294.88"/>
      </g>
     </g>
     <g id="text_6">
      <!-- 0.0 -->
      <defs>
       <path d="M 10.6875 12.40625 
L 21 12.40625 
L 21 0 
L 10.6875 0 
z
" id="DejaVuSans-2e"/>
      </defs>
      <g transform="translate(23.675 300.95875)scale(0.16 -0.16)">
       <use xlink:href="#DejaVuSans-30"/>
       <use x="63.623047" xlink:href="#DejaVuSans-2e"/>
       <use x="95.410156" xlink:href="#DejaVuSans-30"/>
      </g>
     </g>
    </g>
    <g id="ytick_2">
     <g id="line2d_31">
      <path clip-path="url(#pf5676bbd53)" d="M 56.12 241.406733 
L 333.168 241.406733 
" style="fill:none;stroke:#b0b0b0;stroke-linecap:square;stroke-width:0.8;"/>
     </g>
     <g id="line2d_32">
      <g>
       <use style="stroke:#000000;stroke-width:0.8;" x="56.12" xlink:href="#md9d908e66c" y="241.406733"/>
      </g>
     </g>
     <g id="text_7">
      <!-- 0.2 -->
      <g transform="translate(23.675 247.485483)scale(0.16 -0.16)">
       <use xlink:href="#DejaVuSans-30"/>
       <use x="63.623047" xlink:href="#DejaVuSans-2e"/>
       <use x="95.410156" xlink:href="#DejaVuSans-32"/>
      </g>
     </g>
    </g>
    <g id="ytick_3">
     <g id="line2d_33">
      <path clip-path="url(#pf5676bbd53)" d="M 56.12 187.933465 
L 333.168 187.933465 
" style="fill:none;stroke:#b0b0b0;stroke-linecap:square;stroke-width:0.8;"/>
     </g>
     <g id="line2d_34">
      <g>
       <use style="stroke:#000000;stroke-width:0.8;" x="56.12" xlink:href="#md9d908e66c" y="187.933465"/>
      </g>
     </g>
     <g id="text_8">
      <!-- 0.4 -->
      <g transform="translate(23.675 194.012215)scale(0.16 -0.16)">
       <use xlink:href="#DejaVuSans-30"/>
       <use x="63.623047" xlink:href="#DejaVuSans-2e"/>
       <use x="95.410156" xlink:href="#DejaVuSans-34"/>
      </g>
     </g>
    </g>
    <g id="ytick_4">
     <g id="line2d_35">
      <path clip-path="url(#pf5676bbd53)" d="M 56.12 134.460198 
L 333.168 134.460198 
" style="fill:none;stroke:#b0b0b0;stroke-linecap:square;stroke-width:0.8;"/>
     </g>
     <g id="line2d_36">
      <g>
       <use style="stroke:#000000;stroke-width:0.8;" x="56.12" xlink:href="#md9d908e66c" y="134.460198"/>
      </g>
     </g>
     <g id="text_9">
      <!-- 0.6 -->
      <g transform="translate(23.675 140.538948)scale(0.16 -0.16)">
       <use xlink:href="#DejaVuSans-30"/>
       <use x="63.623047" xlink:href="#DejaVuSans-2e"/>
       <use x="95.410156" xlink:href="#DejaVuSans-36"/>
      </g>
     </g>
    </g>
    <g id="ytick_5">
     <g id="line2d_37">
      <path clip-path="url(#pf5676bbd53)" d="M 56.12 80.986931 
L 333.168 80.986931 
" style="fill:none;stroke:#b0b0b0;stroke-linecap:square;stroke-width:0.8;"/>
     </g>
     <g id="line2d_38">
      <g>
       <use style="stroke:#000000;stroke-width:0.8;" x="56.12" xlink:href="#md9d908e66c" y="80.986931"/>
      </g>
     </g>
     <g id="text_10">
      <!-- 0.8 -->
      <defs>
       <path d="M 31.78125 34.625 
Q 24.75 34.625 20.71875 30.859375 
Q 16.703125 27.09375 16.703125 20.515625 
Q 16.703125 13.921875 20.71875 10.15625 
Q 24.75 6.390625 31.78125 6.390625 
Q 38.8125 6.390625 42.859375 10.171875 
Q 46.921875 13.96875 46.921875 20.515625 
Q 46.921875 27.09375 42.890625 30.859375 
Q 38.875 34.625 31.78125 34.625 
z
M 21.921875 38.8125 
Q 15.578125 40.375 12.03125 44.71875 
Q 8.5 49.078125 8.5 55.328125 
Q 8.5 64.0625 14.71875 69.140625 
Q 20.953125 74.21875 31.78125 74.21875 
Q 42.671875 74.21875 48.875 69.140625 
Q 55.078125 64.0625 55.078125 55.328125 
Q 55.078125 49.078125 51.53125 44.71875 
Q 48 40.375 41.703125 38.8125 
Q 48.828125 37.15625 52.796875 32.3125 
Q 56.78125 27.484375 56.78125 20.515625 
Q 56.78125 9.90625 50.3125 4.234375 
Q 43.84375 -1.421875 31.78125 -1.421875 
Q 19.734375 -1.421875 13.25 4.234375 
Q 6.78125 9.90625 6.78125 20.515625 
Q 6.78125 27.484375 10.78125 32.3125 
Q 14.796875 37.15625 21.921875 38.8125 
z
M 18.3125 54.390625 
Q 18.3125 48.734375 21.84375 45.5625 
Q 25.390625 42.390625 31.78125 42.390625 
Q 38.140625 42.390625 41.71875 45.5625 
Q 45.3125 48.734375 45.3125 54.390625 
Q 45.3125 60.0625 41.71875 63.234375 
Q 38.140625 66.40625 31.78125 66.40625 
Q 25.390625 66.40625 21.84375 63.234375 
Q 18.3125 60.0625 18.3125 54.390625 
z
" id="DejaVuSans-38"/>
      </defs>
      <g transform="translate(23.675 87.065681)scale(0.16 -0.16)">
       <use xlink:href="#DejaVuSans-30"/>
       <use x="63.623047" xlink:href="#DejaVuSans-2e"/>
       <use x="95.410156" xlink:href="#DejaVuSans-38"/>
      </g>
     </g>
    </g>
    <g id="ytick_6">
     <g id="line2d_39">
      <path clip-path="url(#pf5676bbd53)" d="M 56.12 27.513663 
L 333.168 27.513663 
" style="fill:none;stroke:#b0b0b0;stroke-linecap:square;stroke-width:0.8;"/>
     </g>
     <g id="line2d_40">
      <g>
       <use style="stroke:#000000;stroke-width:0.8;" x="56.12" xlink:href="#md9d908e66c" y="27.513663"/>
      </g>
     </g>
     <g id="text_11">
      <!-- 1.0 -->
      <g transform="translate(23.675 33.592413)scale(0.16 -0.16)">
       <use xlink:href="#DejaVuSans-31"/>
       <use x="63.623047" xlink:href="#DejaVuSans-2e"/>
       <use x="95.410156" xlink:href="#DejaVuSans-30"/>
      </g>
     </g>
    </g>
    <g id="text_12">
     <!-- Fraction of function,target pairs -->
     <defs>
      <path d="M 9.8125 72.90625 
L 51.703125 72.90625 
L 51.703125 64.59375 
L 19.671875 64.59375 
L 19.671875 43.109375 
L 48.578125 43.109375 
L 48.578125 34.8125 
L 19.671875 34.8125 
L 19.671875 0 
L 9.8125 0 
z
" id="DejaVuSans-46"/>
      <path d="M 41.109375 46.296875 
Q 39.59375 47.171875 37.8125 47.578125 
Q 36.03125 48 33.890625 48 
Q 26.265625 48 22.1875 43.046875 
Q 18.109375 38.09375 18.109375 28.8125 
L 18.109375 0 
L 9.078125 0 
L 9.078125 54.6875 
L 18.109375 54.6875 
L 18.109375 46.1875 
Q 20.953125 51.171875 25.484375 53.578125 
Q 30.03125 56 36.53125 56 
Q 37.453125 56 38.578125 55.875 
Q 39.703125 55.765625 41.0625 55.515625 
z
" id="DejaVuSans-72"/>
      <path d="M 48.78125 52.59375 
L 48.78125 44.1875 
Q 44.96875 46.296875 41.140625 47.34375 
Q 37.3125 48.390625 33.40625 48.390625 
Q 24.65625 48.390625 19.8125 42.84375 
Q 14.984375 37.3125 14.984375 27.296875 
Q 14.984375 17.28125 19.8125 11.734375 
Q 24.65625 6.203125 33.40625 6.203125 
Q 37.3125 6.203125 41.140625 7.25 
Q 44.96875 8.296875 48.78125 10.40625 
L 48.78125 2.09375 
Q 45.015625 0.34375 40.984375 -0.53125 
Q 36.96875 -1.421875 32.421875 -1.421875 
Q 20.0625 -1.421875 12.78125 6.34375 
Q 5.515625 14.109375 5.515625 27.296875 
Q 5.515625 40.671875 12.859375 48.328125 
Q 20.21875 56 33.015625 56 
Q 37.15625 56 41.109375 55.140625 
Q 45.0625 54.296875 48.78125 52.59375 
z
" id="DejaVuSans-63"/>
      <path d="M 18.3125 70.21875 
L 18.3125 54.6875 
L 36.8125 54.6875 
L 36.8125 47.703125 
L 18.3125 47.703125 
L 18.3125 18.015625 
Q 18.3125 11.328125 20.140625 9.421875 
Q 21.96875 7.515625 27.59375 7.515625 
L 36.8125 7.515625 
L 36.8125 0 
L 27.59375 0 
Q 17.1875 0 13.234375 3.875 
Q 9.28125 7.765625 9.28125 18.015625 
L 9.28125 47.703125 
L 2.6875 47.703125 
L 2.6875 54.6875 
L 9.28125 54.6875 
L 9.28125 70.21875 
z
" id="DejaVuSans-74"/>
      <path d="M 8.5 21.578125 
L 8.5 54.6875 
L 17.484375 54.6875 
L 17.484375 21.921875 
Q 17.484375 14.15625 20.5 10.265625 
Q 23.53125 6.390625 29.59375 6.390625 
Q 36.859375 6.390625 41.078125 11.03125 
Q 45.3125 15.671875 45.3125 23.6875 
L 45.3125 54.6875 
L 54.296875 54.6875 
L 54.296875 0 
L 45.3125 0 
L 45.3125 8.40625 
Q 42.046875 3.421875 37.71875 1 
Q 33.40625 -1.421875 27.6875 -1.421875 
Q 18.265625 -1.421875 13.375 4.4375 
Q 8.5 10.296875 8.5 21.578125 
z
M 31.109375 56 
z
" id="DejaVuSans-75"/>
      <path d="M 11.71875 12.40625 
L 22.015625 12.40625 
L 22.015625 4 
L 14.015625 -11.625 
L 7.71875 -11.625 
L 11.71875 4 
z
" id="DejaVuSans-2c"/>
      <path d="M 18.109375 8.203125 
L 18.109375 -20.796875 
L 9.078125 -20.796875 
L 9.078125 54.6875 
L 18.109375 54.6875 
L 18.109375 46.390625 
Q 20.953125 51.265625 25.265625 53.625 
Q 29.59375 56 35.59375 56 
Q 45.5625 56 51.78125 48.09375 
Q 58.015625 40.1875 58.015625 27.296875 
Q 58.015625 14.40625 51.78125 6.484375 
Q 45.5625 -1.421875 35.59375 -1.421875 
Q 29.59375 -1.421875 25.265625 0.953125 
Q 20.953125 3.328125 18.109375 8.203125 
z
M 48.6875 27.296875 
Q 48.6875 37.203125 44.609375 42.84375 
Q 40.53125 48.484375 33.40625 48.484375 
Q 26.265625 48.484375 22.1875 42.84375 
Q 18.109375 37.203125 18.109375 27.296875 
Q 18.109375 17.390625 22.1875 11.75 
Q 26.265625 6.109375 33.40625 6.109375 
Q 40.53125 6.109375 44.609375 11.75 
Q 48.6875 17.390625 48.6875 27.296875 
z
" id="DejaVuSans-70"/>
     </defs>
     <g transform="translate(16.139531 294.999375)rotate(-90)scale(0.17 -0.17)">
      <use xlink:href="#DejaVuSans-46"/>
      <use x="57.410156" xlink:href="#DejaVuSans-72"/>
      <use x="98.523438" xlink:href="#DejaVuSans-61"/>
      <use x="159.802734" xlink:href="#DejaVuSans-63"/>
      <use x="214.783203" xlink:href="#DejaVuSans-74"/>
      <use x="253.992188" xlink:href="#DejaVuSans-69"/>
      <use x="281.775391" xlink:href="#DejaVuSans-6f"/>
      <use x="342.957031" xlink:href="#DejaVuSans-6e"/>
      <use x="406.335938" xlink:href="#DejaVuSans-20"/>
      <use x="438.123047" xlink:href="#DejaVuSans-6f"/>
      <use x="499.304688" xlink:href="#DejaVuSans-66"/>
      <use x="534.509766" xlink:href="#DejaVuSans-20"/>
      <use x="566.296875" xlink:href="#DejaVuSans-66"/>
      <use x="601.501953" xlink:href="#DejaVuSans-75"/>
      <use x="664.880859" xlink:href="#DejaVuSans-6e"/>
      <use x="728.259766" xlink:href="#DejaVuSans-63"/>
      <use x="783.240234" xlink:href="#DejaVuSans-74"/>
      <use x="822.449219" xlink:href="#DejaVuSans-69"/>
      <use x="850.232422" xlink:href="#DejaVuSans-6f"/>
      <use x="911.414062" xlink:href="#DejaVuSans-6e"/>
      <use x="974.792969" xlink:href="#DejaVuSans-2c"/>
      <use x="1006.580078" xlink:href="#DejaVuSans-74"/>
      <use x="1045.789062" xlink:href="#DejaVuSans-61"/>
      <use x="1107.068359" xlink:href="#DejaVuSans-72"/>
      <use x="1148.166016" xlink:href="#DejaVuSans-67"/>
      <use x="1211.642578" xlink:href="#DejaVuSans-65"/>
      <use x="1273.166016" xlink:href="#DejaVuSans-74"/>
      <use x="1312.375" xlink:href="#DejaVuSans-20"/>
      <use x="1344.162109" xlink:href="#DejaVuSans-70"/>
      <use x="1407.638672" xlink:href="#DejaVuSans-61"/>
      <use x="1468.917969" xlink:href="#DejaVuSans-69"/>
      <use x="1496.701172" xlink:href="#DejaVuSans-72"/>
      <use x="1537.814453" xlink:href="#DejaVuSans-73"/>
     </g>
    </g>
   </g>
   <g id="line2d_41">
    <defs>
     <path d="M 0 1.5 
C 0.397805 1.5 0.77937 1.341951 1.06066 1.06066 
C 1.341951 0.77937 1.5 0.397805 1.5 0 
C 1.5 -0.397805 1.341951 -0.77937 1.06066 -1.06066 
C 0.77937 -1.341951 0.397805 -1.5 0 -1.5 
C -0.397805 -1.5 -0.77937 -1.341951 -1.06066 -1.06066 
C -1.341951 -0.77937 -1.5 -0.397805 -1.5 0 
C -1.5 0.397805 -1.341951 0.77937 -1.06066 1.06066 
C -0.77937 1.341951 -0.397805 1.5 0 1.5 
z
" id="m8d7c55f4cf" style="stroke:#f5deb3;"/>
    </defs>
    <g>
     <use style="fill:#f5deb3;stroke:#f5deb3;" x="216.241963" xlink:href="#m8d7c55f4cf" y="27.513663"/>
     <use style="fill:#f5deb3;stroke:#f5deb3;" x="216.241963" xlink:href="#m8d7c55f4cf" y="27.513663"/>
    </g>
   </g>
   <g id="line2d_42">
    <defs>
     <path d="M 0 1.5 
C 0.397805 1.5 0.77937 1.341951 1.06066 1.06066 
C 1.341951 0.77937 1.5 0.397805 1.5 0 
C 1.5 -0.397805 1.341951 -0.77937 1.06066 -1.06066 
C 0.77937 -1.341951 0.397805 -1.5 0 -1.5 
C -0.397805 -1.5 -0.77937 -1.341951 -1.06066 -1.06066 
C -1.341951 -0.77937 -1.5 -0.397805 -1.5 0 
C -1.5 0.397805 -1.341951 0.77937 -1.06066 1.06066 
C -0.77937 1.341951 -0.397805 1.5 0 1.5 
z
" id="m61bfa2e797" style="stroke:#000080;"/>
    </defs>
    <g>
     <use style="fill:#000080;stroke:#000080;" x="349.04822" xlink:href="#m61bfa2e797" y="211.000365"/>
     <use style="fill:#000080;stroke:#000080;" x="349.04822" xlink:href="#m61bfa2e797" y="211.000365"/>
    </g>
   </g>
   <g id="line2d_43">
    <path d="M 4.627463 294.88 
L 4.627463 287.540532 
L 16.541714 287.540532 
L 16.541714 287.016284 
L 23.511104 287.016284 
L 23.511104 284.919293 
L 32.291498 284.919293 
L 32.291498 284.395046 
L 76.379466 284.395046 
L 76.379466 283.870798 
L 77.155024 283.870798 
L 77.155024 282.822302 
L 82.162963 282.822302 
L 82.162963 282.298055 
L 84.458185 282.298055 
L 84.458185 281.773807 
L 84.946994 281.773807 
L 84.946994 281.249559 
L 88.556144 281.249559 
L 88.556144 280.725312 
L 90.288839 280.725312 
L 90.288839 280.201064 
L 90.63845 280.201064 
L 90.63845 279.676816 
L 94.816624 279.676816 
L 94.816624 279.152568 
L 110.052179 279.152568 
L 110.052179 278.628321 
L 114.380214 278.628321 
L 114.380214 277.055578 
L 149.760472 277.055578 
L 149.760472 276.007082 
L 150.039431 276.007082 
L 150.039431 275.482834 
L 160.412006 275.482834 
L 160.412006 274.434339 
L 168.353026 274.434339 
L 168.353026 273.910091 
L 168.869589 273.910091 
L 168.869589 273.385844 
L 173.33736 273.385844 
L 173.33736 272.861596 
L 176.970055 272.861596 
L 176.970055 271.288853 
L 180.845816 271.288853 
L 180.845816 270.764605 
L 184.483215 270.764605 
L 184.483215 269.716109 
L 185.186244 269.716109 
L 185.186244 269.191862 
L 188.377253 269.191862 
L 188.377253 268.667614 
L 190.838187 268.667614 
L 190.838187 268.143366 
L 192.146679 268.143366 
L 192.146679 267.094871 
L 198.098341 267.094871 
L 198.098341 266.046375 
L 198.91131 266.046375 
L 198.91131 265.522128 
L 199.651242 265.522128 
L 199.651242 264.99788 
L 200.542273 264.99788 
L 200.542273 264.473632 
L 201.190357 264.473632 
L 201.190357 263.425137 
L 202.124389 263.425137 
L 202.124389 262.900889 
L 205.895253 262.900889 
L 205.895253 261.328146 
L 209.455478 261.328146 
L 209.455478 260.803898 
L 214.535881 260.803898 
L 214.535881 260.279651 
L 214.68567 260.279651 
L 214.68567 259.755403 
L 215.88996 259.755403 
L 215.88996 258.706907 
L 216.457366 258.706907 
L 216.457366 258.18266 
L 217.187339 258.18266 
L 217.187339 257.658412 
L 217.755398 257.658412 
L 217.755398 257.134164 
L 221.815335 257.134164 
L 221.815335 256.609917 
L 222.323097 256.609917 
L 222.337645 255.037173 
L 222.513795 255.037173 
L 222.513795 253.988678 
L 222.725759 253.988678 
L 222.725759 252.940182 
L 223.031302 252.940182 
L 223.113085 249.794696 
L 223.297161 249.794696 
L 223.297161 249.270448 
L 223.48213 249.270448 
L 223.48213 248.746201 
L 228.037602 248.746201 
L 228.037602 247.697705 
L 228.199519 247.697705 
L 228.199519 246.64921 
L 229.916511 246.64921 
L 229.916511 246.124962 
L 230.630853 246.124962 
L 230.630853 245.600714 
L 234.39041 245.600714 
L 234.39041 245.076467 
L 234.541506 245.076467 
L 234.541506 244.552219 
L 265.019253 244.552219 
L 265.083398 242.455228 
L 285.411799 242.455228 
L 285.411799 241.406733 
L 293.808519 241.406733 
L 293.877621 236.688503 
L 293.964885 236.688503 
L 293.977039 235.640008 
L 296.586027 235.640008 
L 296.586027 235.11576 
L 304.03133 235.11576 
L 304.03133 234.591512 
L 305.640198 234.591512 
L 305.723093 229.349035 
L 305.771285 229.349035 
L 305.77863 227.776292 
L 307.063664 227.776292 
L 307.063664 227.252044 
L 312.56779 227.252044 
L 312.659226 224.106558 
L 313.531234 224.106558 
L 313.531234 223.58231 
L 317.485782 223.58231 
L 317.556097 220.436824 
L 318.214122 220.436824 
L 318.214122 219.912576 
L 321.307822 219.912576 
L 321.309351 218.864081 
L 324.435009 218.864081 
L 324.480793 216.76709 
L 324.924683 216.76709 
L 324.924683 216.242842 
L 327.498617 216.242842 
L 327.498617 215.718594 
L 329.381363 215.718594 
L 329.381363 215.194347 
L 329.73684 215.194347 
L 329.73684 214.670099 
L 331.716906 214.670099 
L 331.716906 213.621604 
L 333.168 213.621604 
L 333.168 213.621604 
" style="fill:none;stroke:#000080;stroke-linecap:square;stroke-width:1.5;"/>
   </g>
   <g id="line2d_44">
    <defs>
     <path d="M 0 6 
C 1.591219 6 3.117479 5.367802 4.242641 4.242641 
C 5.367802 3.117479 6 1.591219 6 0 
C 6 -1.591219 5.367802 -3.117479 4.242641 -4.242641 
C 3.117479 -5.367802 1.591219 -6 0 -6 
C -1.591219 -6 -3.117479 -5.367802 -4.242641 -4.242641 
C -5.367802 -3.117479 -6 -1.591219 -6 0 
C -6 1.591219 -5.367802 3.117479 -4.242641 4.242641 
C -3.117479 5.367802 -1.591219 6 0 6 
z
" id="mfe78502dd6" style="stroke:#000080;stroke-width:1.5;"/>
    </defs>
    <g>
     <use style="fill-opacity:0;stroke:#000080;stroke-width:1.5;" x="84.946994" xlink:href="#mfe78502dd6" y="281.249559"/>
     <use style="fill-opacity:0;stroke:#000080;stroke-width:1.5;" x="176.970055" xlink:href="#mfe78502dd6" y="271.288853"/>
     <use style="fill-opacity:0;stroke:#000080;stroke-width:1.5;" x="234.541506" xlink:href="#mfe78502dd6" y="245.076467"/>
     <use style="fill-opacity:0;stroke:#000080;stroke-width:1.5;" x="318.214122" xlink:href="#mfe78502dd6" y="219.912576"/>
     <use style="fill-opacity:0;stroke:#000080;stroke-width:1.5;" x="331.716906" xlink:href="#mfe78502dd6" y="213.621604"/>
     <use style="fill-opacity:0;stroke:#000080;stroke-width:1.5;" x="333.168" xlink:href="#mfe78502dd6" y="213.621604"/>
    </g>
   </g>
   <g id="line2d_45">
    <path style="fill:none;stroke:#000080;stroke-linecap:square;stroke-width:1.5;"/>
    <g/>
   </g>
   <g id="line2d_46">
    <path clip-path="url(#pf5676bbd53)" d="M 293.589714 241.406733 
" style="fill:none;stroke:#000080;stroke-linecap:square;stroke-width:1.5;"/>
    <defs>
     <path d="M -12 12 
L 12 -12 
M -12 -12 
L 12 12 
" id="m3600bfa660" style="stroke:#000080;"/>
    </defs>
    <g clip-path="url(#pf5676bbd53)">
     <use style="fill:#000080;stroke:#000080;" x="293.589714" xlink:href="#m3600bfa660" y="241.406733"/>
    </g>
   </g>
   <g id="line2d_47">
    <defs>
     <path d="M 0 1.5 
C 0.397805 1.5 0.77937 1.341951 1.06066 1.06066 
C 1.341951 0.77937 1.5 0.397805 1.5 0 
C 1.5 -0.397805 1.341951 -0.77937 1.06066 -1.06066 
C 0.77937 -1.341951 0.397805 -1.5 0 -1.5 
C -0.397805 -1.5 -0.77937 -1.341951 -1.06066 -1.06066 
C -1.341951 -0.77937 -1.5 -0.397805 -1.5 0 
C -1.5 0.397805 -1.341951 0.77937 -1.06066 1.06066 
C -0.77937 1.341951 -0.397805 1.5 0 1.5 
z
" id="mde4bbc60ed" style="stroke:#ff00ff;"/>
    </defs>
    <g>
     <use style="fill:#ff00ff;stroke:#ff00ff;" x="318.107643" xlink:href="#mde4bbc60ed" y="221.485319"/>
     <use style="fill:#ff00ff;stroke:#ff00ff;" x="318.107643" xlink:href="#mde4bbc60ed" y="221.485319"/>
    </g>
   </g>
   <g id="line2d_48">
    <path d="M 4.627463 294.88 
L 4.627463 288.589027 
L 35.425356 288.589027 
L 35.425356 285.967789 
L 42.394746 285.967789 
L 42.394746 285.443541 
L 44.205749 285.443541 
L 44.205749 284.395046 
L 77.405958 284.395046 
L 77.405958 282.822302 
L 80.162028 282.822302 
L 80.162028 281.773807 
L 81.973032 281.773807 
L 81.973032 280.725312 
L 86.186351 280.725312 
L 86.186351 280.201064 
L 95.869318 280.201064 
L 95.869318 279.676816 
L 98.903614 279.676816 
L 98.903614 279.152568 
L 100.920217 279.152568 
L 100.920217 278.628321 
L 140.930668 278.628321 
L 140.930668 278.104073 
L 143.024469 278.104073 
L 143.024469 277.579825 
L 145.663936 277.579825 
L 145.663936 277.055578 
L 147.988485 277.055578 
L 147.988485 276.007082 
L 152.786059 276.007082 
L 152.786059 274.434339 
L 156.45257 274.434339 
L 156.45257 273.910091 
L 162.517764 273.910091 
L 162.517764 273.385844 
L 163.433656 273.385844 
L 163.433656 272.861596 
L 163.672506 272.861596 
L 163.672506 272.337348 
L 164.347606 272.337348 
L 164.347606 271.288853 
L 166.937638 271.288853 
L 166.937638 270.764605 
L 167.778998 270.764605 
L 167.778998 269.191862 
L 169.299988 269.191862 
L 169.299988 268.667614 
L 171.621015 268.667614 
L 171.621015 268.143366 
L 172.00365 268.143366 
L 172.00365 267.094871 
L 176.846505 267.094871 
L 176.846505 266.570623 
L 180.731412 266.570623 
L 180.731412 266.046375 
L 181.974846 266.046375 
L 181.974846 265.522128 
L 187.759316 265.522128 
L 187.803881 263.425137 
L 190.466232 263.425137 
L 190.466232 262.900889 
L 193.495576 262.900889 
L 193.495576 262.376641 
L 197.291897 262.376641 
L 197.291897 261.328146 
L 198.781697 261.328146 
L 198.781697 260.803898 
L 204.193357 260.803898 
L 204.193357 260.279651 
L 207.904946 260.279651 
L 207.904946 259.755403 
L 209.13471 259.755403 
L 209.13471 259.231155 
L 211.482634 259.231155 
L 211.482634 258.706907 
L 214.298979 258.706907 
L 214.298979 258.18266 
L 219.54876 258.18266 
L 219.54876 257.134164 
L 220.532869 257.134164 
L 220.532869 256.609917 
L 225.038578 256.609917 
L 225.038578 255.561421 
L 225.162453 255.561421 
L 225.162453 255.037173 
L 231.391287 255.037173 
L 231.391287 253.46443 
L 237.200057 253.46443 
L 237.200057 252.415935 
L 237.485775 252.415935 
L 237.485775 251.891687 
L 245.265836 251.891687 
L 245.265836 251.367439 
L 246.259293 251.367439 
L 246.259293 250.843192 
L 246.411509 250.843192 
L 246.411509 250.318944 
L 248.065742 250.318944 
L 248.065742 249.270448 
L 251.668119 249.270448 
L 251.668119 248.746201 
L 253.462119 248.746201 
L 253.462119 248.221953 
L 253.814075 248.221953 
L 253.917892 246.64921 
L 262.482988 246.64921 
L 262.482988 246.124962 
L 264.777217 246.124962 
L 264.793927 245.076467 
L 265.838722 245.076467 
L 265.838722 244.552219 
L 267.476123 244.552219 
L 267.476123 243.503724 
L 268.892124 243.503724 
L 268.892124 242.979476 
L 270.666916 242.979476 
L 270.666916 242.455228 
L 272.71391 242.455228 
L 272.71391 241.93098 
L 272.829537 241.93098 
L 272.829537 241.406733 
L 273.926794 241.406733 
L 273.932686 239.83399 
L 276.196474 239.83399 
L 276.196474 239.309742 
L 277.144419 239.309742 
L 277.144419 238.785494 
L 277.27529 238.785494 
L 277.283368 237.736999 
L 277.790804 237.736999 
L 277.802716 236.164255 
L 278.632628 236.164255 
L 278.632628 235.640008 
L 283.731323 235.640008 
L 283.736587 234.067265 
L 284.431813 234.067265 
L 284.431813 233.018769 
L 285.332923 233.018769 
L 285.332923 232.494521 
L 286.539164 232.494521 
L 286.543634 231.446026 
L 287.437704 231.446026 
L 287.437704 230.921778 
L 287.908732 230.921778 
L 287.908732 230.397531 
L 288.373074 230.397531 
L 288.373074 229.873283 
L 289.729636 229.873283 
L 289.729636 229.349035 
L 290.150664 229.349035 
L 290.150664 228.824787 
L 291.06761 228.824787 
L 291.06761 228.30054 
L 291.756895 228.30054 
L 291.756895 227.776292 
L 292.951061 227.776292 
L 292.95414 226.727797 
L 293.364206 226.727797 
L 293.364206 226.203549 
L 295.520467 226.203549 
L 295.520467 225.679301 
L 298.921641 225.679301 
L 298.921641 225.155053 
L 302.337689 225.155053 
L 302.337689 224.630806 
L 305.189116 224.630806 
L 305.189116 224.106558 
L 306.041439 224.106558 
L 306.041439 223.58231 
L 307.631518 223.58231 
L 307.631518 223.058063 
L 312.8345 223.058063 
L 312.8345 222.533815 
L 317.261513 222.533815 
L 317.261513 222.009567 
L 318.107643 222.009567 
L 318.107643 221.485319 
L 333.168 221.485319 
L 333.168 221.485319 
" style="fill:none;stroke:#ff00ff;stroke-linecap:square;stroke-width:1.5;"/>
   </g>
   <g id="line2d_49">
    <defs>
     <path d="M -0 8.485281 
L 5.091169 0 
L 0 -8.485281 
L -5.091169 -0 
z
" id="md408b265f7" style="stroke:#ff00ff;stroke-linejoin:miter;stroke-width:1.5;"/>
    </defs>
    <g>
     <use style="fill-opacity:0;stroke:#ff00ff;stroke-linejoin:miter;stroke-width:1.5;" x="100.920217" xlink:href="#md408b265f7" y="279.152568"/>
     <use style="fill-opacity:0;stroke:#ff00ff;stroke-linejoin:miter;stroke-width:1.5;" x="181.974846" xlink:href="#md408b265f7" y="265.522128"/>
     <use style="fill-opacity:0;stroke:#ff00ff;stroke-linejoin:miter;stroke-width:1.5;" x="251.668119" xlink:href="#md408b265f7" y="248.746201"/>
     <use style="fill-opacity:0;stroke:#ff00ff;stroke-linejoin:miter;stroke-width:1.5;" x="318.107643" xlink:href="#md408b265f7" y="221.485319"/>
     <use style="fill-opacity:0;stroke:#ff00ff;stroke-linejoin:miter;stroke-width:1.5;" x="318.107643" xlink:href="#md408b265f7" y="221.485319"/>
     <use style="fill-opacity:0;stroke:#ff00ff;stroke-linejoin:miter;stroke-width:1.5;" x="333.168" xlink:href="#md408b265f7" y="221.485319"/>
    </g>
   </g>
   <g id="line2d_50">
    <path style="fill:none;stroke:#ff00ff;stroke-linecap:square;stroke-width:1.5;"/>
    <g/>
   </g>
   <g id="line2d_51">
    <path clip-path="url(#pf5676bbd53)" d="M 254.011429 246.64921 
" style="fill:none;stroke:#ff00ff;stroke-linecap:square;stroke-width:1.5;"/>
    <defs>
     <path d="M -12 12 
L 12 -12 
M -12 -12 
L 12 12 
" id="m0ce7ea9f98" style="stroke:#ff00ff;"/>
    </defs>
    <g clip-path="url(#pf5676bbd53)">
     <use style="fill:#ff00ff;stroke:#ff00ff;" x="254.011429" xlink:href="#m0ce7ea9f98" y="246.64921"/>
    </g>
   </g>
   <g id="line2d_52">
    <defs>
     <path d="M 0 1.5 
C 0.397805 1.5 0.77937 1.341951 1.06066 1.06066 
C 1.341951 0.77937 1.5 0.397805 1.5 0 
C 1.5 -0.397805 1.341951 -0.77937 1.06066 -1.06066 
C 0.77937 -1.341951 0.397805 -1.5 0 -1.5 
C -0.397805 -1.5 -0.77937 -1.341951 -1.06066 -1.06066 
C -1.341951 -0.77937 -1.5 -0.397805 -1.5 0 
C -1.5 0.397805 -1.341951 0.77937 -1.06066 1.06066 
C -0.77937 1.341951 -0.397805 1.5 0 1.5 
z
" id="me76253c9fd" style="stroke:#ffa500;"/>
    </defs>
    <g>
     <use style="fill:#ffa500;stroke:#ffa500;" x="240.901183" xlink:href="#me76253c9fd" y="27.513663"/>
     <use style="fill:#ffa500;stroke:#ffa500;" x="240.901183" xlink:href="#me76253c9fd" y="27.513663"/>
    </g>
   </g>
   <g id="line2d_53">
    <path d="M 4.627463 294.88 
L 4.627463 292.258761 
L 16.541714 292.258761 
L 16.541714 289.637523 
L 28.455965 289.637523 
L 28.455965 288.589027 
L 32.291498 288.589027 
L 32.291498 287.540532 
L 38.074995 287.540532 
L 38.074995 286.492036 
L 44.205749 286.492036 
L 44.205749 285.967789 
L 48.715431 285.967789 
L 48.715431 284.919293 
L 56.12 284.919293 
L 56.12 283.870798 
L 57.758252 283.870798 
L 57.758252 282.822302 
L 60.629683 282.822302 
L 60.629683 281.249559 
L 67.599073 281.249559 
L 67.599073 280.725312 
L 84.458185 280.725312 
L 84.458185 280.201064 
L 101.420285 280.201064 
L 101.420285 279.676816 
L 106.318878 279.676816 
L 106.318878 279.152568 
L 127.184096 279.152568 
L 127.184096 278.628321 
L 127.725942 278.628321 
L 127.725942 278.104073 
L 129.121245 278.104073 
L 129.133535 277.055578 
L 129.748989 277.055578 
L 129.748989 276.53133 
L 130.158959 276.53133 
L 130.158959 275.482834 
L 131.643952 275.482834 
L 131.643952 274.958587 
L 131.928242 274.958587 
L 131.928242 274.434339 
L 132.951858 274.434339 
L 132.951858 273.385844 
L 133.427329 273.385844 
L 133.427329 272.861596 
L 133.598741 272.861596 
L 133.598741 272.337348 
L 134.726418 272.337348 
L 134.726418 271.8131 
L 135.396473 271.8131 
L 135.396473 271.288853 
L 135.515543 271.288853 
L 135.515543 270.240357 
L 136.35095 270.240357 
L 136.35095 269.716109 
L 136.749962 269.716109 
L 136.749962 268.143366 
L 137.820298 268.143366 
L 137.820298 267.619119 
L 137.9532 267.619119 
L 137.9532 267.094871 
L 138.25214 267.094871 
L 138.25214 266.570623 
L 138.953236 266.570623 
L 139.057012 264.99788 
L 139.194412 264.99788 
L 139.194412 264.473632 
L 140.980078 264.473632 
L 140.980078 263.949385 
L 141.51442 263.949385 
L 141.51442 263.425137 
L 141.974541 263.425137 
L 141.974541 262.900889 
L 142.804028 262.900889 
L 142.804028 261.852394 
L 143.658768 261.852394 
L 143.748251 260.803898 
L 143.889421 260.803898 
L 143.889421 260.279651 
L 144.503183 260.279651 
L 144.503183 259.755403 
L 144.787217 259.755403 
L 144.787217 259.231155 
L 144.944641 259.231155 
L 144.944641 258.706907 
L 145.63103 258.706907 
L 145.63103 258.18266 
L 145.85077 258.18266 
L 145.85077 257.134164 
L 152.153937 257.134164 
L 152.153937 256.609917 
L 166.685142 256.609917 
L 166.685142 256.085669 
L 167.225371 256.085669 
L 167.225371 255.561421 
L 167.597741 255.561421 
L 167.597741 255.037173 
L 167.714018 255.037173 
L 167.714018 254.512926 
L 168.035213 254.512926 
L 168.035213 253.988678 
L 168.480517 253.988678 
L 168.480517 253.46443 
L 169.569754 253.46443 
L 169.569754 252.415935 
L 169.907704 252.415935 
L 169.907704 251.891687 
L 170.118429 251.891687 
L 170.118429 250.843192 
L 170.319889 250.843192 
L 170.319889 250.318944 
L 170.683027 250.318944 
L 170.702735 247.173458 
L 171.033285 247.173458 
L 171.035432 245.076467 
L 171.237095 245.076467 
L 171.237095 244.027971 
L 171.430127 244.027971 
L 171.430127 243.503724 
L 171.545122 243.503724 
L 171.586749 242.455228 
L 171.895775 242.455228 
L 171.895775 241.93098 
L 172.141071 241.93098 
L 172.141071 241.406733 
L 172.915416 241.406733 
L 172.915416 240.358237 
L 173.033347 240.358237 
L 173.033347 239.83399 
L 173.217723 239.83399 
L 173.217723 239.309742 
L 173.336422 239.309742 
L 173.445913 238.261246 
L 173.940597 238.261246 
L 173.940597 237.212751 
L 174.342819 237.212751 
L 174.342819 236.688503 
L 174.693387 236.688503 
L 174.693387 236.164255 
L 175.46194 236.164255 
L 175.46194 235.640008 
L 176.162586 235.640008 
L 176.162586 235.11576 
L 183.219101 235.11576 
L 183.219101 234.067265 
L 184.660472 234.067265 
L 184.681834 233.018769 
L 184.996736 233.018769 
L 184.996736 231.970274 
L 185.350833 231.970274 
L 185.350833 231.446026 
L 185.533265 231.446026 
L 185.634551 230.397531 
L 191.755387 230.397531 
L 191.755387 229.349035 
L 191.946901 229.349035 
L 191.946901 228.824787 
L 192.062247 228.824787 
L 192.062247 228.30054 
L 192.265691 228.30054 
L 192.265691 227.776292 
L 192.377063 227.776292 
L 192.377063 226.727797 
L 192.614802 226.727797 
L 192.614802 226.203549 
L 192.7285 226.203549 
L 192.743684 224.630806 
L 192.872209 224.630806 
L 192.872209 224.106558 
L 192.985121 224.106558 
L 193.020105 222.533815 
L 193.138283 222.533815 
L 193.138283 222.009567 
L 193.346751 222.009567 
L 193.356127 220.961072 
L 193.570376 220.961072 
L 193.655507 219.388328 
L 194.082249 219.388328 
L 194.144474 217.291338 
L 194.204246 217.291338 
L 194.204246 216.76709 
L 194.319291 216.76709 
L 194.319291 215.718594 
L 194.606848 215.718594 
L 194.606848 215.194347 
L 194.943708 215.194347 
L 194.943708 214.670099 
L 195.281428 214.670099 
L 195.281428 214.145851 
L 195.400953 214.145851 
L 195.400953 213.621604 
L 196.045641 213.621604 
L 196.045641 212.573108 
L 198.985148 212.573108 
L 198.985148 212.04886 
L 199.172233 212.04886 
L 199.172233 211.524613 
L 199.305369 211.524613 
L 199.305369 211.000365 
L 199.512785 211.000365 
L 199.512785 208.903374 
L 202.98804 208.903374 
L 202.98804 208.379126 
L 203.420274 208.379126 
L 203.420274 207.854879 
L 203.540226 207.854879 
L 203.621344 206.806383 
L 203.669477 206.806383 
L 203.703203 204.185145 
L 203.873389 204.185145 
L 203.974603 202.612401 
L 203.991966 202.612401 
L 204.020499 199.991163 
L 204.128211 199.991163 
L 204.204425 197.369924 
L 204.26711 197.369924 
L 204.34534 195.272933 
L 204.401662 195.272933 
L 204.512683 190.554704 
L 204.514061 190.554704 
L 204.589806 189.506209 
L 204.650041 189.506209 
L 204.72776 187.409218 
L 204.770183 187.409218 
L 204.860267 183.739484 
L 204.966437 183.739484 
L 205.065879 181.642493 
L 205.081138 181.642493 
L 205.188017 179.021254 
L 205.200521 179.021254 
L 205.307685 176.400016 
L 205.40169 176.400016 
L 205.40169 175.875768 
L 205.523205 175.875768 
L 205.568462 173.778777 
L 205.639567 173.778777 
L 205.744036 171.157538 
L 205.789143 171.157538 
L 205.896383 166.963557 
L 205.943627 166.963557 
L 206.035908 162.769575 
L 206.143572 162.769575 
L 206.245032 159.099841 
L 206.304711 159.099841 
L 206.393844 157.00285 
L 206.563536 157.00285 
L 206.663094 155.954354 
L 206.712725 155.954354 
L 206.812898 154.381611 
L 206.856758 154.381611 
L 206.957159 152.28462 
L 207.252936 152.28462 
L 207.252936 151.760373 
L 207.728894 151.760373 
L 207.728894 151.236125 
L 208.949011 151.236125 
L 208.949011 150.18763 
L 209.122657 150.18763 
L 209.122657 149.663382 
L 209.307889 149.663382 
L 209.307889 149.139134 
L 209.728045 149.139134 
L 209.728045 148.614886 
L 209.941868 148.614886 
L 209.941868 148.090639 
L 210.061982 148.090639 
L 210.061982 147.042143 
L 214.334023 147.042143 
L 214.334023 145.4694 
L 214.665248 145.4694 
L 214.735987 144.420905 
L 214.840126 144.420905 
L 214.94005 142.323914 
L 215.136935 142.323914 
L 215.136935 141.799666 
L 215.251468 141.799666 
L 215.309634 140.751171 
L 215.368499 140.751171 
L 215.458688 135.508693 
L 215.500496 135.508693 
L 215.603731 132.887455 
L 215.691579 132.887455 
L 215.802408 130.790464 
L 215.841331 130.790464 
L 215.841331 129.741969 
L 215.962292 129.741969 
L 215.962292 129.217721 
L 216.117196 129.217721 
L 216.192459 128.169225 
L 216.372051 128.169225 
L 216.372051 127.644978 
L 216.48988 127.644978 
L 216.48988 127.12073 
L 216.652514 127.12073 
L 216.759437 121.878253 
L 216.770168 121.878253 
L 216.857342 118.732766 
L 216.891344 118.732766 
L 216.999239 114.014537 
L 217.043744 114.014537 
L 217.043744 113.490289 
L 217.168438 113.490289 
L 217.230776 110.869051 
L 217.313107 110.869051 
L 217.403073 107.723564 
L 217.446329 107.723564 
L 217.535459 104.578078 
L 217.567645 104.578078 
L 217.567645 104.05383 
L 217.728245 104.05383 
L 217.728245 103.529583 
L 217.859075 103.529583 
L 217.95282 102.481087 
L 217.972627 102.481087 
L 217.972627 101.956839 
L 219.178081 101.956839 
L 219.178081 101.432592 
L 219.300437 101.432592 
L 219.391492 99.859849 
L 219.507994 99.859849 
L 219.607056 96.714362 
L 219.63394 96.714362 
L 219.705045 95.665867 
L 219.882282 95.665867 
L 219.955174 94.093124 
L 220.061861 94.093124 
L 220.158099 93.044628 
L 220.188624 93.044628 
L 220.250983 91.996133 
L 220.310247 91.996133 
L 220.363587 90.42339 
L 220.444227 90.42339 
L 220.47074 88.850646 
L 221.214901 88.850646 
L 221.214901 87.277903 
L 221.473604 87.277903 
L 221.473604 86.229408 
L 223.407341 86.229408 
L 223.485734 82.559674 
L 223.565338 82.559674 
L 223.603691 79.414188 
L 223.7261 79.414188 
L 223.823423 77.317197 
L 223.887455 77.317197 
L 223.975438 74.695958 
L 224.024206 74.695958 
L 224.076023 71.550472 
L 226.793864 71.550472 
L 226.902715 69.453481 
L 226.911575 69.453481 
L 227.018073 65.783747 
L 227.028319 65.783747 
L 227.116439 61.065517 
L 229.521741 61.065517 
L 229.573465 58.444279 
L 229.921608 58.444279 
L 229.946197 57.395783 
L 230.057508 57.395783 
L 230.084567 55.82304 
L 230.222072 55.82304 
L 230.222072 55.298792 
L 232.25771 55.298792 
L 232.362142 54.250297 
L 232.396843 54.250297 
L 232.484026 52.153306 
L 232.652103 52.153306 
L 232.652103 51.629058 
L 239.567363 51.629058 
L 239.612866 50.580563 
L 239.700904 50.580563 
L 239.776439 47.435077 
L 239.838965 47.435077 
L 239.927299 43.765343 
L 239.961412 43.765343 
L 239.961412 43.241095 
L 240.388068 43.241095 
L 240.457453 40.619856 
L 240.50994 40.619856 
L 240.604408 36.425875 
L 240.695955 36.425875 
L 240.800646 32.756141 
L 240.808669 32.756141 
L 240.901183 27.513663 
L 333.168 27.513663 
L 333.168 27.513663 
" style="fill:none;stroke:#ffa500;stroke-linecap:square;stroke-width:1.5;"/>
   </g>
   <g id="line2d_54">
    <defs>
     <path d="M 0 -6 
L -1.347084 -1.854102 
L -5.706339 -1.854102 
L -2.179628 0.708204 
L -3.526712 4.854102 
L -0 2.291796 
L 3.526712 4.854102 
L 2.179628 0.708204 
L 5.706339 -1.854102 
L 1.347084 -1.854102 
z
" id="maf8beb825c" style="stroke:#ffa500;stroke-linejoin:bevel;stroke-width:1.5;"/>
    </defs>
    <g>
     <use style="fill-opacity:0;stroke:#ffa500;stroke-linejoin:bevel;stroke-width:1.5;" x="84.458185" xlink:href="#maf8beb825c" y="280.201064"/>
     <use style="fill-opacity:0;stroke:#ffa500;stroke-linejoin:bevel;stroke-width:1.5;" x="167.225371" xlink:href="#maf8beb825c" y="255.561421"/>
     <use style="fill-opacity:0;stroke:#ffa500;stroke-linejoin:bevel;stroke-width:1.5;" x="207.728894" xlink:href="#maf8beb825c" y="151.236125"/>
     <use style="fill-opacity:0;stroke:#ffa500;stroke-linejoin:bevel;stroke-width:1.5;" x="240.901183" xlink:href="#maf8beb825c" y="28.562159"/>
     <use style="fill-opacity:0;stroke:#ffa500;stroke-linejoin:bevel;stroke-width:1.5;" x="240.901183" xlink:href="#maf8beb825c" y="27.513663"/>
     <use style="fill-opacity:0;stroke:#ffa500;stroke-linejoin:bevel;stroke-width:1.5;" x="333.168" xlink:href="#maf8beb825c" y="27.513663"/>
    </g>
   </g>
   <g id="line2d_55">
    <path style="fill:none;stroke:#ffa500;stroke-linecap:square;stroke-width:1.5;"/>
    <g/>
   </g>
   <g id="line2d_56">
    <path d="M 333.168 221.485319 
L 363.64328 289.532673 
" style="fill:none;stroke:#ff00ff;stroke-linecap:square;stroke-width:1.5;"/>
    <g>
     <use style="fill-opacity:0;stroke:#ff00ff;stroke-linejoin:miter;stroke-width:1.5;" x="333.168" xlink:href="#md408b265f7" y="221.485319"/>
     <use style="fill-opacity:0;stroke:#ff00ff;stroke-linejoin:miter;stroke-width:1.5;" x="363.64328" xlink:href="#md408b265f7" y="289.532673"/>
    </g>
   </g>
   <g id="line2d_57">
    <path d="M 333.168 213.621604 
L 363.64328 203.975446 
" style="fill:none;stroke:#000080;stroke-linecap:square;stroke-width:1.5;"/>
    <g>
     <use style="fill-opacity:0;stroke:#000080;stroke-width:1.5;" x="333.168" xlink:href="#mfe78502dd6" y="213.621604"/>
     <use style="fill-opacity:0;stroke:#000080;stroke-width:1.5;" x="363.64328" xlink:href="#mfe78502dd6" y="203.975446"/>
    </g>
   </g>
   <g id="line2d_58">
    <path d="M 333.168 27.513663 
L 363.64328 118.418218 
" style="fill:none;stroke:#ffa500;stroke-linecap:square;stroke-width:1.5;"/>
    <g>
     <use style="fill-opacity:0;stroke:#ffa500;stroke-linejoin:bevel;stroke-width:1.5;" x="333.168" xlink:href="#maf8beb825c" y="27.513663"/>
     <use style="fill-opacity:0;stroke:#ffa500;stroke-linejoin:bevel;stroke-width:1.5;" x="363.64328" xlink:href="#maf8beb825c" y="118.418218"/>
    </g>
   </g>
   <g id="line2d_59">
    <path d="M 333.168 294.88 
L 333.168 27.513663 
" style="fill:none;stroke:#000000;stroke-linecap:square;stroke-width:1.5;"/>
   </g>
   <g id="patch_3">
    <path d="M 56.12 294.88 
L 56.12 24.84 
" style="fill:none;stroke:#000000;stroke-linecap:square;stroke-linejoin:miter;stroke-width:0.8;"/>
   </g>
   <g id="patch_4">
    <path d="M 333.168 294.88 
L 333.168 24.84 
" style="fill:none;stroke:#000000;stroke-linecap:square;stroke-linejoin:miter;stroke-width:0.8;"/>
   </g>
   <g id="patch_5">
    <path d="M 56.12 294.88 
L 333.168 294.88 
" style="fill:none;stroke:#000000;stroke-linecap:square;stroke-linejoin:miter;stroke-width:0.8;"/>
   </g>
   <g id="patch_6">
    <path d="M 56.12 24.84 
L 333.168 24.84 
" style="fill:none;stroke:#000000;stroke-linecap:square;stroke-linejoin:miter;stroke-width:0.8;"/>
   </g>
   <g id="text_13">
    <!-- R-SHADE-T -->
    <defs>
     <path d="M 44.390625 34.1875 
Q 47.5625 33.109375 50.5625 29.59375 
Q 53.5625 26.078125 56.59375 19.921875 
L 66.609375 0 
L 56 0 
L 46.6875 18.703125 
Q 43.0625 26.03125 39.671875 28.421875 
Q 36.28125 30.8125 30.421875 30.8125 
L 19.671875 30.8125 
L 19.671875 0 
L 9.8125 0 
L 9.8125 72.90625 
L 32.078125 72.90625 
Q 44.578125 72.90625 50.734375 67.671875 
Q 56.890625 62.453125 56.890625 51.90625 
Q 56.890625 45.015625 53.6875 40.46875 
Q 50.484375 35.9375 44.390625 34.1875 
z
M 19.671875 64.796875 
L 19.671875 38.921875 
L 32.078125 38.921875 
Q 39.203125 38.921875 42.84375 42.21875 
Q 46.484375 45.515625 46.484375 51.90625 
Q 46.484375 58.296875 42.84375 61.546875 
Q 39.203125 64.796875 32.078125 64.796875 
z
" id="DejaVuSans-52"/>
     <path d="M 53.515625 70.515625 
L 53.515625 60.890625 
Q 47.90625 63.578125 42.921875 64.890625 
Q 37.9375 66.21875 33.296875 66.21875 
Q 25.25 66.21875 20.875 63.09375 
Q 16.5 59.96875 16.5 54.203125 
Q 16.5 49.359375 19.40625 46.890625 
Q 22.3125 44.4375 30.421875 42.921875 
L 36.375 41.703125 
Q 47.40625 39.59375 52.65625 34.296875 
Q 57.90625 29 57.90625 20.125 
Q 57.90625 9.515625 50.796875 4.046875 
Q 43.703125 -1.421875 29.984375 -1.421875 
Q 24.8125 -1.421875 18.96875 -0.25 
Q 13.140625 0.921875 6.890625 3.21875 
L 6.890625 13.375 
Q 12.890625 10.015625 18.65625 8.296875 
Q 24.421875 6.59375 29.984375 6.59375 
Q 38.421875 6.59375 43.015625 9.90625 
Q 47.609375 13.234375 47.609375 19.390625 
Q 47.609375 24.75 44.3125 27.78125 
Q 41.015625 30.8125 33.5 32.328125 
L 27.484375 33.5 
Q 16.453125 35.6875 11.515625 40.375 
Q 6.59375 45.0625 6.59375 53.421875 
Q 6.59375 63.09375 13.40625 68.65625 
Q 20.21875 74.21875 32.171875 74.21875 
Q 37.3125 74.21875 42.625 73.28125 
Q 47.953125 72.359375 53.515625 70.515625 
z
" id="DejaVuSans-53"/>
     <path d="M 9.8125 72.90625 
L 19.671875 72.90625 
L 19.671875 43.015625 
L 55.515625 43.015625 
L 55.515625 72.90625 
L 65.375 72.90625 
L 65.375 0 
L 55.515625 0 
L 55.515625 34.71875 
L 19.671875 34.71875 
L 19.671875 0 
L 9.8125 0 
z
" id="DejaVuSans-48"/>
     <path d="M 34.1875 63.1875 
L 20.796875 26.90625 
L 47.609375 26.90625 
z
M 28.609375 72.90625 
L 39.796875 72.90625 
L 67.578125 0 
L 57.328125 0 
L 50.6875 18.703125 
L 17.828125 18.703125 
L 11.1875 0 
L 0.78125 0 
z
" id="DejaVuSans-41"/>
     <path d="M 19.671875 64.796875 
L 19.671875 8.109375 
L 31.59375 8.109375 
Q 46.6875 8.109375 53.6875 14.9375 
Q 60.6875 21.78125 60.6875 36.53125 
Q 60.6875 51.171875 53.6875 57.984375 
Q 46.6875 64.796875 31.59375 64.796875 
z
M 9.8125 72.90625 
L 30.078125 72.90625 
Q 51.265625 72.90625 61.171875 64.09375 
Q 71.09375 55.28125 71.09375 36.53125 
Q 71.09375 17.671875 61.125 8.828125 
Q 51.171875 0 30.078125 0 
L 9.8125 0 
z
" id="DejaVuSans-44"/>
     <path d="M 9.8125 72.90625 
L 55.90625 72.90625 
L 55.90625 64.59375 
L 19.671875 64.59375 
L 19.671875 43.015625 
L 54.390625 43.015625 
L 54.390625 34.71875 
L 19.671875 34.71875 
L 19.671875 8.296875 
L 56.78125 8.296875 
L 56.78125 0 
L 9.8125 0 
z
" id="DejaVuSans-45"/>
     <path d="M -0.296875 72.90625 
L 61.375 72.90625 
L 61.375 64.59375 
L 35.5 64.59375 
L 35.5 0 
L 25.59375 0 
L 25.59375 64.59375 
L -0.296875 64.59375 
z
" id="DejaVuSans-54"/>
    </defs>
    <g transform="translate(369.18424 294.223611)scale(0.17 -0.17)">
     <use xlink:href="#DejaVuSans-52"/>
     <use x="69.419922" xlink:href="#DejaVuSans-2d"/>
     <use x="105.503906" xlink:href="#DejaVuSans-53"/>
     <use x="168.980469" xlink:href="#DejaVuSans-48"/>
     <use x="244.175781" xlink:href="#DejaVuSans-41"/>
     <use x="312.583984" xlink:href="#DejaVuSans-44"/>
     <use x="389.585938" xlink:href="#DejaVuSans-45"/>
     <use x="452.769531" xlink:href="#DejaVuSans-2d"/>
     <use x="488.712891" xlink:href="#DejaVuSans-54"/>
    </g>
   </g>
   <g id="text_14">
    <!-- SHADE2-BL -->
    <defs>
     <path d="M 19.671875 34.8125 
L 19.671875 8.109375 
L 35.5 8.109375 
Q 43.453125 8.109375 47.28125 11.40625 
Q 51.125 14.703125 51.125 21.484375 
Q 51.125 28.328125 47.28125 31.5625 
Q 43.453125 34.8125 35.5 34.8125 
z
M 19.671875 64.796875 
L 19.671875 42.828125 
L 34.28125 42.828125 
Q 41.5 42.828125 45.03125 45.53125 
Q 48.578125 48.25 48.578125 53.8125 
Q 48.578125 59.328125 45.03125 62.0625 
Q 41.5 64.796875 34.28125 64.796875 
z
M 9.8125 72.90625 
L 35.015625 72.90625 
Q 46.296875 72.90625 52.390625 68.21875 
Q 58.5 63.53125 58.5 54.890625 
Q 58.5 48.1875 55.375 44.234375 
Q 52.25 40.28125 46.1875 39.3125 
Q 53.46875 37.75 57.5 32.78125 
Q 61.53125 27.828125 61.53125 20.40625 
Q 61.53125 10.640625 54.890625 5.3125 
Q 48.25 0 35.984375 0 
L 9.8125 0 
z
" id="DejaVuSans-42"/>
     <path d="M 9.8125 72.90625 
L 19.671875 72.90625 
L 19.671875 8.296875 
L 55.171875 8.296875 
L 55.171875 0 
L 9.8125 0 
z
" id="DejaVuSans-4c"/>
    </defs>
    <g transform="translate(369.18424 208.666383)scale(0.17 -0.17)">
     <use xlink:href="#DejaVuSans-53"/>
     <use x="63.476562" xlink:href="#DejaVuSans-48"/>
     <use x="138.671875" xlink:href="#DejaVuSans-41"/>
     <use x="207.080078" xlink:href="#DejaVuSans-44"/>
     <use x="284.082031" xlink:href="#DejaVuSans-45"/>
     <use x="347.265625" xlink:href="#DejaVuSans-32"/>
     <use x="410.888672" xlink:href="#DejaVuSans-2d"/>
     <use x="446.925781" xlink:href="#DejaVuSans-42"/>
     <use x="515.529297" xlink:href="#DejaVuSans-4c"/>
    </g>
   </g>
   <g id="text_15">
    <!-- KL-BIPOP- -->
    <defs>
     <path d="M 9.8125 72.90625 
L 19.671875 72.90625 
L 19.671875 42.09375 
L 52.390625 72.90625 
L 65.09375 72.90625 
L 28.90625 38.921875 
L 67.671875 0 
L 54.6875 0 
L 19.671875 35.109375 
L 19.671875 0 
L 9.8125 0 
z
" id="DejaVuSans-4b"/>
     <path d="M 9.8125 72.90625 
L 19.671875 72.90625 
L 19.671875 0 
L 9.8125 0 
z
" id="DejaVuSans-49"/>
     <path d="M 19.671875 64.796875 
L 19.671875 37.40625 
L 32.078125 37.40625 
Q 38.96875 37.40625 42.71875 40.96875 
Q 46.484375 44.53125 46.484375 51.125 
Q 46.484375 57.671875 42.71875 61.234375 
Q 38.96875 64.796875 32.078125 64.796875 
z
M 9.8125 72.90625 
L 32.078125 72.90625 
Q 44.34375 72.90625 50.609375 67.359375 
Q 56.890625 61.8125 56.890625 51.125 
Q 56.890625 40.328125 50.609375 34.8125 
Q 44.34375 29.296875 32.078125 29.296875 
L 19.671875 29.296875 
L 19.671875 0 
L 9.8125 0 
z
" id="DejaVuSans-50"/>
     <path d="M 39.40625 66.21875 
Q 28.65625 66.21875 22.328125 58.203125 
Q 16.015625 50.203125 16.015625 36.375 
Q 16.015625 22.609375 22.328125 14.59375 
Q 28.65625 6.59375 39.40625 6.59375 
Q 50.140625 6.59375 56.421875 14.59375 
Q 62.703125 22.609375 62.703125 36.375 
Q 62.703125 50.203125 56.421875 58.203125 
Q 50.140625 66.21875 39.40625 66.21875 
z
M 39.40625 74.21875 
Q 54.734375 74.21875 63.90625 63.9375 
Q 73.09375 53.65625 73.09375 36.375 
Q 73.09375 19.140625 63.90625 8.859375 
Q 54.734375 -1.421875 39.40625 -1.421875 
Q 24.03125 -1.421875 14.8125 8.828125 
Q 5.609375 19.09375 5.609375 36.375 
Q 5.609375 53.65625 14.8125 63.9375 
Q 24.03125 74.21875 39.40625 74.21875 
z
" id="DejaVuSans-4f"/>
    </defs>
    <g transform="translate(369.18424 123.109155)scale(0.17 -0.17)">
     <use xlink:href="#DejaVuSans-4b"/>
     <use x="65.576172" xlink:href="#DejaVuSans-4c"/>
     <use x="121.273438" xlink:href="#DejaVuSans-2d"/>
     <use x="157.310547" xlink:href="#DejaVuSans-42"/>
     <use x="225.914062" xlink:href="#DejaVuSans-49"/>
     <use x="255.40625" xlink:href="#DejaVuSans-50"/>
     <use x="315.708984" xlink:href="#DejaVuSans-4f"/>
     <use x="394.419922" xlink:href="#DejaVuSans-50"/>
     <use x="454.691406" xlink:href="#DejaVuSans-2d"/>
    </g>
   </g>
   <g id="text_16">
    <!-- best 2009 -->
    <defs>
     <path d="M 48.6875 27.296875 
Q 48.6875 37.203125 44.609375 42.84375 
Q 40.53125 48.484375 33.40625 48.484375 
Q 26.265625 48.484375 22.1875 42.84375 
Q 18.109375 37.203125 18.109375 27.296875 
Q 18.109375 17.390625 22.1875 11.75 
Q 26.265625 6.109375 33.40625 6.109375 
Q 40.53125 6.109375 44.609375 11.75 
Q 48.6875 17.390625 48.6875 27.296875 
z
M 18.109375 46.390625 
Q 20.953125 51.265625 25.265625 53.625 
Q 29.59375 56 35.59375 56 
Q 45.5625 56 51.78125 48.09375 
Q 58.015625 40.1875 58.015625 27.296875 
Q 58.015625 14.40625 51.78125 6.484375 
Q 45.5625 -1.421875 35.59375 -1.421875 
Q 29.59375 -1.421875 25.265625 0.953125 
Q 20.953125 3.328125 18.109375 8.203125 
L 18.109375 0 
L 9.078125 0 
L 9.078125 75.984375 
L 18.109375 75.984375 
z
" id="DejaVuSans-62"/>
     <path d="M 10.984375 1.515625 
L 10.984375 10.5 
Q 14.703125 8.734375 18.5 7.8125 
Q 22.3125 6.890625 25.984375 6.890625 
Q 35.75 6.890625 40.890625 13.453125 
Q 46.046875 20.015625 46.78125 33.40625 
Q 43.953125 29.203125 39.59375 26.953125 
Q 35.25 24.703125 29.984375 24.703125 
Q 19.046875 24.703125 12.671875 31.3125 
Q 6.296875 37.9375 6.296875 49.421875 
Q 6.296875 60.640625 12.9375 67.421875 
Q 19.578125 74.21875 30.609375 74.21875 
Q 43.265625 74.21875 49.921875 64.515625 
Q 56.59375 54.828125 56.59375 36.375 
Q 56.59375 19.140625 48.40625 8.859375 
Q 40.234375 -1.421875 26.421875 -1.421875 
Q 22.703125 -1.421875 18.890625 -0.6875 
Q 15.09375 0.046875 10.984375 1.515625 
z
M 30.609375 32.421875 
Q 37.25 32.421875 41.125 36.953125 
Q 45.015625 41.5 45.015625 49.421875 
Q 45.015625 57.28125 41.125 61.84375 
Q 37.25 66.40625 30.609375 66.40625 
Q 23.96875 66.40625 20.09375 61.84375 
Q 16.21875 57.28125 16.21875 49.421875 
Q 16.21875 41.5 20.09375 36.953125 
Q 23.96875 32.421875 30.609375 32.421875 
z
" id="DejaVuSans-39"/>
    </defs>
    <g transform="translate(369.18424 37.551928)scale(0.17 -0.17)">
     <use xlink:href="#DejaVuSans-62"/>
     <use x="63.476562" xlink:href="#DejaVuSans-65"/>
     <use x="125" xlink:href="#DejaVuSans-73"/>
     <use x="177.099609" xlink:href="#DejaVuSans-74"/>
     <use x="216.308594" xlink:href="#DejaVuSans-20"/>
     <use x="248.095703" xlink:href="#DejaVuSans-32"/>
     <use x="311.71875" xlink:href="#DejaVuSans-30"/>
     <use x="375.341797" xlink:href="#DejaVuSans-30"/>
     <use x="438.964844" xlink:href="#DejaVuSans-39"/>
    </g>
   </g>
   <g id="text_17">
    <!-- bbob f16, 20-D -->
    <g transform="translate(58.89048 35.290806)scale(0.102 -0.102)">
     <use xlink:href="#DejaVuSans-62"/>
     <use x="63.476562" xlink:href="#DejaVuSans-62"/>
     <use x="126.953125" xlink:href="#DejaVuSans-6f"/>
     <use x="188.134766" xlink:href="#DejaVuSans-62"/>
     <use x="251.611328" xlink:href="#DejaVuSans-20"/>
     <use x="283.398438" xlink:href="#DejaVuSans-66"/>
     <use x="318.603516" xlink:href="#DejaVuSans-31"/>
     <use x="382.226562" xlink:href="#DejaVuSans-36"/>
     <use x="445.849609" xlink:href="#DejaVuSans-2c"/>
     <use x="477.636719" xlink:href="#DejaVuSans-20"/>
     <use x="509.423828" xlink:href="#DejaVuSans-32"/>
     <use x="573.046875" xlink:href="#DejaVuSans-30"/>
     <use x="636.669922" xlink:href="#DejaVuSans-2d"/>
     <use x="672.753906" xlink:href="#DejaVuSans-44"/>
    </g>
    <!-- 51 targets: 100..1e-08 -->
    <defs>
     <path d="M 10.796875 72.90625 
L 49.515625 72.90625 
L 49.515625 64.59375 
L 19.828125 64.59375 
L 19.828125 46.734375 
Q 21.96875 47.46875 24.109375 47.828125 
Q 26.265625 48.1875 28.421875 48.1875 
Q 40.625 48.1875 47.75 41.5 
Q 54.890625 34.8125 54.890625 23.390625 
Q 54.890625 11.625 47.5625 5.09375 
Q 40.234375 -1.421875 26.90625 -1.421875 
Q 22.3125 -1.421875 17.546875 -0.640625 
Q 12.796875 0.140625 7.71875 1.703125 
L 7.71875 11.625 
Q 12.109375 9.234375 16.796875 8.0625 
Q 21.484375 6.890625 26.703125 6.890625 
Q 35.15625 6.890625 40.078125 11.328125 
Q 45.015625 15.765625 45.015625 23.390625 
Q 45.015625 31 40.078125 35.4375 
Q 35.15625 39.890625 26.703125 39.890625 
Q 22.75 39.890625 18.8125 39.015625 
Q 14.890625 38.140625 10.796875 36.28125 
z
" id="DejaVuSans-35"/>
     <path d="M 11.71875 12.40625 
L 22.015625 12.40625 
L 22.015625 0 
L 11.71875 0 
z
M 11.71875 51.703125 
L 22.015625 51.703125 
L 22.015625 39.3125 
L 11.71875 39.3125 
z
" id="DejaVuSans-3a"/>
    </defs>
    <g transform="translate(58.89048 46.712575)scale(0.102 -0.102)">
     <use xlink:href="#DejaVuSans-35"/>
     <use x="63.623047" xlink:href="#DejaVuSans-31"/>
     <use x="127.246094" xlink:href="#DejaVuSans-20"/>
     <use x="159.033203" xlink:href="#DejaVuSans-74"/>
     <use x="198.242188" xlink:href="#DejaVuSans-61"/>
     <use x="259.521484" xlink:href="#DejaVuSans-72"/>
     <use x="300.619141" xlink:href="#DejaVuSans-67"/>
     <use x="364.095703" xlink:href="#DejaVuSans-65"/>
     <use x="425.619141" xlink:href="#DejaVuSans-74"/>
     <use x="464.828125" xlink:href="#DejaVuSans-73"/>
     <use x="516.927734" xlink:href="#DejaVuSans-3a"/>
     <use x="550.619141" xlink:href="#DejaVuSans-20"/>
     <use x="582.40625" xlink:href="#DejaVuSans-31"/>
     <use x="646.029297" xlink:href="#DejaVuSans-30"/>
     <use x="709.652344" xlink:href="#DejaVuSans-30"/>
     <use x="773.275391" xlink:href="#DejaVuSans-2e"/>
     <use x="805.0625" xlink:href="#DejaVuSans-2e"/>
     <use x="836.849609" xlink:href="#DejaVuSans-31"/>
     <use x="900.472656" xlink:href="#DejaVuSans-65"/>
     <use x="961.996094" xlink:href="#DejaVuSans-2d"/>
     <use x="998.080078" xlink:href="#DejaVuSans-30"/>
     <use x="1061.703125" xlink:href="#DejaVuSans-38"/>
    </g>
    <!-- 15 instances -->
    <g transform="translate(58.89048 58.134344)scale(0.102 -0.102)">
     <use xlink:href="#DejaVuSans-31"/>
     <use x="63.623047" xlink:href="#DejaVuSans-35"/>
     <use x="127.246094" xlink:href="#DejaVuSans-20"/>
     <use x="159.033203" xlink:href="#DejaVuSans-69"/>
     <use x="186.816406" xlink:href="#DejaVuSans-6e"/>
     <use x="250.195312" xlink:href="#DejaVuSans-73"/>
     <use x="302.294922" xlink:href="#DejaVuSans-74"/>
     <use x="341.503906" xlink:href="#DejaVuSans-61"/>
     <use x="402.783203" xlink:href="#DejaVuSans-6e"/>
     <use x="466.162109" xlink:href="#DejaVuSans-63"/>
     <use x="521.142578" xlink:href="#DejaVuSans-65"/>
     <use x="582.666016" xlink:href="#DejaVuSans-73"/>
    </g>
   </g>
   <g id="text_18">
    <!-- v0.0.0 -->
    <g style="fill:#808080;" transform="translate(178.96275 290.099912)scale(0.1 -0.1)">
     <use xlink:href="#DejaVuSans-76"/>
     <use x="59.179688" xlink:href="#DejaVuSans-30"/>
     <use x="122.802734" xlink:href="#DejaVuSans-2e"/>
     <use x="154.589844" xlink:href="#DejaVuSans-30"/>
     <use x="218.212891" xlink:href="#DejaVuSans-2e"/>
     <use x="250" xlink:href="#DejaVuSans-30"/>
    </g>
   </g>
   <g id="text_19">
    <!-- 16 Weierstrass -->
    <defs>
     <path d="M 3.328125 72.90625 
L 13.28125 72.90625 
L 28.609375 11.28125 
L 43.890625 72.90625 
L 54.984375 72.90625 
L 70.3125 11.28125 
L 85.59375 72.90625 
L 95.609375 72.90625 
L 77.296875 0 
L 64.890625 0 
L 49.515625 63.28125 
L 33.984375 0 
L 21.578125 0 
z
" id="DejaVuSans-57"/>
    </defs>
    <g transform="translate(119.878375 18.84)scale(0.2 -0.2)">
     <use xlink:href="#DejaVuSans-31"/>
     <use x="63.623047" xlink:href="#DejaVuSans-36"/>
     <use x="127.246094" xlink:href="#DejaVuSans-20"/>
     <use x="159.033203" xlink:href="#DejaVuSans-57"/>
     <use x="257.832031" xlink:href="#DejaVuSans-65"/>
     <use x="319.355469" xlink:href="#DejaVuSans-69"/>
     <use x="347.138672" xlink:href="#DejaVuSans-65"/>
     <use x="408.662109" xlink:href="#DejaVuSans-72"/>
     <use x="449.775391" xlink:href="#DejaVuSans-73"/>
     <use x="501.875" xlink:href="#DejaVuSans-74"/>
     <use x="541.083984" xlink:href="#DejaVuSans-72"/>
     <use x="582.197266" xlink:href="#DejaVuSans-61"/>
     <use x="643.476562" xlink:href="#DejaVuSans-73"/>
     <use x="695.576172" xlink:href="#DejaVuSans-73"/>
    </g>
   </g>
  </g>
 </g>
 <defs>
  <clipPath id="pf5676bbd53">
   <rect height="270.04" width="277.048" x="56.12" y="24.84"/>
  </clipPath>
 </defs>
</svg>
