<?xml version="1.0" encoding="utf-8" standalone="no"?>
<!DOCTYPE svg PUBLIC "-//W3C//DTD SVG 1.1//EN"
  "http://www.w3.org/Graphics/SVG/1.1/DTD/svg11.dtd">
<!-- Created with matplotlib (http://matplotlib.org/) -->
<svg height="345.6pt" version="1.1" viewBox="0 0 460.8 345.6" width="460.8pt" xmlns="http://www.w3.org/2000/svg" xmlns:xlink="http://www.w3.org/1999/xlink">
 <defs>
  <style type="text/css">
*{stroke-linecap:butt;stroke-linejoin:round;}
  </style>
 </defs>
 <g id="figure_1">
  <g id="patch_1">
   <path d="M 0 345.6 
L 460.8 345.6 
L 460.8 0 
L 0 0 
z
" style="fill:#ffffff;"/>
  </g>
  <g id="axes_1">
   <g id="patch_2">
    <path d="M 56.12 294.88 
L 333.168 294.88 
L 333.168 24.84 
L 56.12 24.84 
z
" style="fill:#ffffff;"/>
   </g>
   <g id="line2d_1">
    <path d="M 114.380214 294.88 
L 114.380214 289.637523 
L 114.837842 289.637523 
L 114.837842 284.395046 
L 115.256077 284.395046 
L 115.256077 279.152568 
L 116.036901 279.152568 
L 116.036901 273.910091 
L 121.417105 273.910091 
L 121.417105 268.667614 
L 124.069494 268.667614 
L 124.069494 263.425137 
L 127.416471 263.425137 
L 127.416471 258.18266 
L 129.450049 258.18266 
L 129.450049 252.940182 
L 131.537454 252.940182 
L 131.537454 247.697705 
L 132.882847 247.697705 
L 132.882847 242.455228 
L 134.73529 242.455228 
L 134.73529 237.212751 
L 135.917635 237.212751 
L 135.917635 231.970274 
L 136.82081 231.970274 
L 136.82081 226.727797 
L 138.345851 226.727797 
L 138.345851 221.485319 
L 139.411992 221.485319 
L 139.411992 216.242842 
L 140.687737 216.242842 
L 140.687737 211.000365 
L 141.334118 211.000365 
L 141.334118 205.757888 
L 141.793145 205.757888 
L 141.793145 200.515411 
L 142.428336 200.515411 
L 142.428336 195.272933 
L 142.776273 195.272933 
L 142.776273 190.030456 
L 143.117307 190.030456 
L 143.117307 184.787979 
L 143.478392 184.787979 
L 143.478392 179.545502 
L 143.863366 179.545502 
L 143.863366 174.303025 
L 144.321345 174.303025 
L 144.321345 169.060547 
L 144.752587 169.060547 
L 144.752587 163.81807 
L 147.782136 163.81807 
L 147.782136 158.575593 
L 150.463774 158.575593 
L 150.463774 153.333116 
L 152.419095 153.333116 
L 152.419095 148.090639 
L 152.686469 148.090639 
L 152.686469 142.848162 
L 155.129314 142.848162 
L 155.129314 137.605684 
L 155.344578 137.605684 
L 155.344578 132.363207 
L 155.580934 132.363207 
L 155.580934 127.12073 
L 155.814083 127.12073 
L 155.814083 121.878253 
L 161.555898 121.878253 
L 161.555898 116.635776 
L 166.430284 116.635776 
L 166.430284 111.393298 
L 166.647777 111.393298 
L 166.647777 106.150821 
L 166.852971 106.150821 
L 166.852971 100.908344 
L 167.051686 100.908344 
L 167.051686 95.665867 
L 167.236085 95.665867 
L 167.236085 90.42339 
L 167.441031 90.42339 
L 167.441031 85.180912 
L 167.644869 85.180912 
L 167.644869 79.938435 
L 167.843734 79.938435 
L 167.843734 74.695958 
L 168.024987 74.695958 
L 168.024987 69.453481 
L 168.196753 69.453481 
L 168.196753 64.211004 
L 168.36306 64.211004 
L 168.36306 58.968526 
L 168.510377 58.968526 
L 168.510377 53.726049 
L 168.652745 53.726049 
L 168.652745 48.483572 
L 168.79272 48.483572 
L 168.79272 43.241095 
L 168.944903 43.241095 
L 168.944903 37.998618 
L 169.104159 37.998618 
L 169.104159 32.756141 
L 169.42892 32.756141 
L 169.42892 27.513663 
L 333.168 27.513663 
" style="fill:none;stroke:#f5deb3;stroke-linecap:square;stroke-width:4;"/>
   </g>
   <g id="line2d_2">
    <defs>
     <path d="M -0 7.778175 
L 7.778175 0 
L 0 -7.778175 
L -7.778175 -0 
z
" id="ma6d41d7f94" style="stroke:#f5deb3;stroke-linejoin:miter;stroke-width:1.5;"/>
    </defs>
    <g>
     <use style="fill:#f5deb3;stroke:#f5deb3;stroke-linejoin:miter;stroke-width:1.5;" x="143.478392" xlink:href="#ma6d41d7f94" y="184.787979"/>
     <use style="fill:#f5deb3;stroke:#f5deb3;stroke-linejoin:miter;stroke-width:1.5;" x="168.024987" xlink:href="#ma6d41d7f94" y="69.453481"/>
     <use style="fill:#f5deb3;stroke:#f5deb3;stroke-linejoin:miter;stroke-width:1.5;" x="169.42892" xlink:href="#ma6d41d7f94" y="27.513663"/>
     <use style="fill:#f5deb3;stroke:#f5deb3;stroke-linejoin:miter;stroke-width:1.5;" x="169.42892" xlink:href="#ma6d41d7f94" y="27.513663"/>
     <use style="fill:#f5deb3;stroke:#f5deb3;stroke-linejoin:miter;stroke-width:1.5;" x="333.168" xlink:href="#ma6d41d7f94" y="27.513663"/>
    </g>
   </g>
   <g id="line2d_3">
    <path style="fill:none;stroke:#f5deb3;stroke-linecap:square;stroke-width:4;"/>
    <g/>
   </g>
   <g id="line2d_4">
    <path d="M 333.168 27.513663 
L 363.64328 32.86099 
" style="fill:none;stroke:#f5deb3;stroke-linecap:square;stroke-width:4;"/>
    <g>
     <use style="fill:#f5deb3;stroke:#f5deb3;stroke-linejoin:miter;stroke-width:1.5;" x="333.168" xlink:href="#ma6d41d7f94" y="27.513663"/>
     <use style="fill:#f5deb3;stroke:#f5deb3;stroke-linejoin:miter;stroke-width:1.5;" x="363.64328" xlink:href="#ma6d41d7f94" y="32.86099"/>
    </g>
   </g>
   <g id="matplotlib.axis_1">
    <g id="xtick_1">
     <g id="line2d_5">
      <path clip-path="url(#p6293ded02b)" d="M 56.12 294.88 
L 56.12 24.84 
" style="fill:none;stroke:#b0b0b0;stroke-linecap:square;stroke-width:0.8;"/>
     </g>
     <g id="line2d_6">
      <defs>
       <path d="M 0 0 
L 0 3.5 
" id="m56fca63992" style="stroke:#000000;stroke-width:0.8;"/>
      </defs>
      <g>
       <use style="stroke:#000000;stroke-width:0.8;" x="56.12" xlink:href="#m56fca63992" y="294.88"/>
      </g>
     </g>
     <g id="text_1">
      <!-- 0 -->
      <defs>
       <path d="M 31.78125 66.40625 
Q 24.171875 66.40625 20.328125 58.90625 
Q 16.5 51.421875 16.5 36.375 
Q 16.5 21.390625 20.328125 13.890625 
Q 24.171875 6.390625 31.78125 6.390625 
Q 39.453125 6.390625 43.28125 13.890625 
Q 47.125 21.390625 47.125 36.375 
Q 47.125 51.421875 43.28125 58.90625 
Q 39.453125 66.40625 31.78125 66.40625 
z
M 31.78125 74.21875 
Q 44.046875 74.21875 50.515625 64.515625 
Q 56.984375 54.828125 56.984375 36.375 
Q 56.984375 17.96875 50.515625 8.265625 
Q 44.046875 -1.421875 31.78125 -1.421875 
Q 19.53125 -1.421875 13.0625 8.265625 
Q 6.59375 17.96875 6.59375 36.375 
Q 6.59375 54.828125 13.0625 64.515625 
Q 19.53125 74.21875 31.78125 74.21875 
z
" id="DejaVuSans-30"/>
      </defs>
      <g transform="translate(49.7575 317.076875)scale(0.2 -0.2)">
       <use xlink:href="#DejaVuSans-30"/>
      </g>
     </g>
    </g>
    <g id="xtick_2">
     <g id="line2d_7">
      <path clip-path="url(#p6293ded02b)" d="M 135.276571 294.88 
L 135.276571 24.84 
" style="fill:none;stroke:#b0b0b0;stroke-linecap:square;stroke-width:0.8;"/>
     </g>
     <g id="line2d_8">
      <g>
       <use style="stroke:#000000;stroke-width:0.8;" x="135.276571" xlink:href="#m56fca63992" y="294.88"/>
      </g>
     </g>
     <g id="text_2">
      <!-- 2 -->
      <defs>
       <path d="M 19.1875 8.296875 
L 53.609375 8.296875 
L 53.609375 0 
L 7.328125 0 
L 7.328125 8.296875 
Q 12.9375 14.109375 22.625 23.890625 
Q 32.328125 33.6875 34.8125 36.53125 
Q 39.546875 41.84375 41.421875 45.53125 
Q 43.3125 49.21875 43.3125 52.78125 
Q 43.3125 58.59375 39.234375 62.25 
Q 35.15625 65.921875 28.609375 65.921875 
Q 23.96875 65.921875 18.8125 64.3125 
Q 13.671875 62.703125 7.8125 59.421875 
L 7.8125 69.390625 
Q 13.765625 71.78125 18.9375 73 
Q 24.125 74.21875 28.421875 74.21875 
Q 39.75 74.21875 46.484375 68.546875 
Q 53.21875 62.890625 53.21875 53.421875 
Q 53.21875 48.921875 51.53125 44.890625 
Q 49.859375 40.875 45.40625 35.40625 
Q 44.1875 33.984375 37.640625 27.21875 
Q 31.109375 20.453125 19.1875 8.296875 
z
" id="DejaVuSans-32"/>
      </defs>
      <g transform="translate(128.914071 317.076875)scale(0.2 -0.2)">
       <use xlink:href="#DejaVuSans-32"/>
      </g>
     </g>
    </g>
    <g id="xtick_3">
     <g id="line2d_9">
      <path clip-path="url(#p6293ded02b)" d="M 214.433143 294.88 
L 214.433143 24.84 
" style="fill:none;stroke:#b0b0b0;stroke-linecap:square;stroke-width:0.8;"/>
     </g>
     <g id="line2d_10">
      <g>
       <use style="stroke:#000000;stroke-width:0.8;" x="214.433143" xlink:href="#m56fca63992" y="294.88"/>
      </g>
     </g>
     <g id="text_3">
      <!-- 4 -->
      <defs>
       <path d="M 37.796875 64.3125 
L 12.890625 25.390625 
L 37.796875 25.390625 
z
M 35.203125 72.90625 
L 47.609375 72.90625 
L 47.609375 25.390625 
L 58.015625 25.390625 
L 58.015625 17.1875 
L 47.609375 17.1875 
L 47.609375 0 
L 37.796875 0 
L 37.796875 17.1875 
L 4.890625 17.1875 
L 4.890625 26.703125 
z
" id="DejaVuSans-34"/>
      </defs>
      <g transform="translate(208.070643 317.076875)scale(0.2 -0.2)">
       <use xlink:href="#DejaVuSans-34"/>
      </g>
     </g>
    </g>
    <g id="xtick_4">
     <g id="line2d_11">
      <path clip-path="url(#p6293ded02b)" d="M 293.589714 294.88 
L 293.589714 24.84 
" style="fill:none;stroke:#b0b0b0;stroke-linecap:square;stroke-width:0.8;"/>
     </g>
     <g id="line2d_12">
      <g>
       <use style="stroke:#000000;stroke-width:0.8;" x="293.589714" xlink:href="#m56fca63992" y="294.88"/>
      </g>
     </g>
     <g id="text_4">
      <!-- 6 -->
      <defs>
       <path d="M 33.015625 40.375 
Q 26.375 40.375 22.484375 35.828125 
Q 18.609375 31.296875 18.609375 23.390625 
Q 18.609375 15.53125 22.484375 10.953125 
Q 26.375 6.390625 33.015625 6.390625 
Q 39.65625 6.390625 43.53125 10.953125 
Q 47.40625 15.53125 47.40625 23.390625 
Q 47.40625 31.296875 43.53125 35.828125 
Q 39.65625 40.375 33.015625 40.375 
z
M 52.59375 71.296875 
L 52.59375 62.3125 
Q 48.875 64.0625 45.09375 64.984375 
Q 41.3125 65.921875 37.59375 65.921875 
Q 27.828125 65.921875 22.671875 59.328125 
Q 17.53125 52.734375 16.796875 39.40625 
Q 19.671875 43.65625 24.015625 45.921875 
Q 28.375 48.1875 33.59375 48.1875 
Q 44.578125 48.1875 50.953125 41.515625 
Q 57.328125 34.859375 57.328125 23.390625 
Q 57.328125 12.15625 50.6875 5.359375 
Q 44.046875 -1.421875 33.015625 -1.421875 
Q 20.359375 -1.421875 13.671875 8.265625 
Q 6.984375 17.96875 6.984375 36.375 
Q 6.984375 53.65625 15.1875 63.9375 
Q 23.390625 74.21875 37.203125 74.21875 
Q 40.921875 74.21875 44.703125 73.484375 
Q 48.484375 72.75 52.59375 71.296875 
z
" id="DejaVuSans-36"/>
      </defs>
      <g transform="translate(287.227214 317.076875)scale(0.2 -0.2)">
       <use xlink:href="#DejaVuSans-36"/>
      </g>
     </g>
    </g>
    <g id="xtick_5">
     <g id="line2d_13">
      <path clip-path="url(#p6293ded02b)" d="M 56.12 294.88 
L 56.12 24.84 
" style="fill:none;stroke:#b0b0b0;stroke-linecap:square;stroke-width:0.8;"/>
     </g>
     <g id="line2d_14">
      <defs>
       <path d="M 0 0 
L 0 2 
" id="m738b0a5e4d" style="stroke:#000000;stroke-width:0.6;"/>
      </defs>
      <g>
       <use style="stroke:#000000;stroke-width:0.6;" x="56.12" xlink:href="#m738b0a5e4d" y="294.88"/>
      </g>
     </g>
    </g>
    <g id="xtick_6">
     <g id="line2d_15">
      <path clip-path="url(#p6293ded02b)" d="M 95.698286 294.88 
L 95.698286 24.84 
" style="fill:none;stroke:#b0b0b0;stroke-linecap:square;stroke-width:0.8;"/>
     </g>
     <g id="line2d_16">
      <g>
       <use style="stroke:#000000;stroke-width:0.6;" x="95.698286" xlink:href="#m738b0a5e4d" y="294.88"/>
      </g>
     </g>
    </g>
    <g id="xtick_7">
     <g id="line2d_17">
      <path clip-path="url(#p6293ded02b)" d="M 135.276571 294.88 
L 135.276571 24.84 
" style="fill:none;stroke:#b0b0b0;stroke-linecap:square;stroke-width:0.8;"/>
     </g>
     <g id="line2d_18">
      <g>
       <use style="stroke:#000000;stroke-width:0.6;" x="135.276571" xlink:href="#m738b0a5e4d" y="294.88"/>
      </g>
     </g>
    </g>
    <g id="xtick_8">
     <g id="line2d_19">
      <path clip-path="url(#p6293ded02b)" d="M 174.854857 294.88 
L 174.854857 24.84 
" style="fill:none;stroke:#b0b0b0;stroke-linecap:square;stroke-width:0.8;"/>
     </g>
     <g id="line2d_20">
      <g>
       <use style="stroke:#000000;stroke-width:0.6;" x="174.854857" xlink:href="#m738b0a5e4d" y="294.88"/>
      </g>
     </g>
    </g>
    <g id="xtick_9">
     <g id="line2d_21">
      <path clip-path="url(#p6293ded02b)" d="M 214.433143 294.88 
L 214.433143 24.84 
" style="fill:none;stroke:#b0b0b0;stroke-linecap:square;stroke-width:0.8;"/>
     </g>
     <g id="line2d_22">
      <g>
       <use style="stroke:#000000;stroke-width:0.6;" x="214.433143" xlink:href="#m738b0a5e4d" y="294.88"/>
      </g>
     </g>
    </g>
    <g id="xtick_10">
     <g id="line2d_23">
      <path clip-path="url(#p6293ded02b)" d="M 254.011429 294.88 
L 254.011429 24.84 
" style="fill:none;stroke:#b0b0b0;stroke-linecap:square;stroke-width:0.8;"/>
     </g>
     <g id="line2d_24">
      <g>
       <use style="stroke:#000000;stroke-width:0.6;" x="254.011429" xlink:href="#m738b0a5e4d" y="294.88"/>
      </g>
     </g>
    </g>
    <g id="xtick_11">
     <g id="line2d_25">
      <path clip-path="url(#p6293ded02b)" d="M 293.589714 294.88 
L 293.589714 24.84 
" style="fill:none;stroke:#b0b0b0;stroke-linecap:square;stroke-width:0.8;"/>
     </g>
     <g id="line2d_26">
      <g>
       <use style="stroke:#000000;stroke-width:0.6;" x="293.589714" xlink:href="#m738b0a5e4d" y="294.88"/>
      </g>
     </g>
    </g>
    <g id="xtick_12">
     <g id="line2d_27">
      <path clip-path="url(#p6293ded02b)" d="M 333.168 294.88 
L 333.168 24.84 
" style="fill:none;stroke:#b0b0b0;stroke-linecap:square;stroke-width:0.8;"/>
     </g>
     <g id="line2d_28">
      <g>
       <use style="stroke:#000000;stroke-width:0.6;" x="333.168" xlink:href="#m738b0a5e4d" y="294.88"/>
      </g>
     </g>
    </g>
    <g id="text_5">
     <!-- log10(# f-evals / dimension) -->
     <defs>
      <path d="M 9.421875 75.984375 
L 18.40625 75.984375 
L 18.40625 0 
L 9.421875 0 
z
" id="DejaVuSans-6c"/>
      <path d="M 30.609375 48.390625 
Q 23.390625 48.390625 19.1875 42.75 
Q 14.984375 37.109375 14.984375 27.296875 
Q 14.984375 17.484375 19.15625 11.84375 
Q 23.34375 6.203125 30.609375 6.203125 
Q 37.796875 6.203125 41.984375 11.859375 
Q 46.1875 17.53125 46.1875 27.296875 
Q 46.1875 37.015625 41.984375 42.703125 
Q 37.796875 48.390625 30.609375 48.390625 
z
M 30.609375 56 
Q 42.328125 56 49.015625 48.375 
Q 55.71875 40.765625 55.71875 27.296875 
Q 55.71875 13.875 49.015625 6.21875 
Q 42.328125 -1.421875 30.609375 -1.421875 
Q 18.84375 -1.421875 12.171875 6.21875 
Q 5.515625 13.875 5.515625 27.296875 
Q 5.515625 40.765625 12.171875 48.375 
Q 18.84375 56 30.609375 56 
z
" id="DejaVuSans-6f"/>
      <path d="M 45.40625 27.984375 
Q 45.40625 37.75 41.375 43.109375 
Q 37.359375 48.484375 30.078125 48.484375 
Q 22.859375 48.484375 18.828125 43.109375 
Q 14.796875 37.75 14.796875 27.984375 
Q 14.796875 18.265625 18.828125 12.890625 
Q 22.859375 7.515625 30.078125 7.515625 
Q 37.359375 7.515625 41.375 12.890625 
Q 45.40625 18.265625 45.40625 27.984375 
z
M 54.390625 6.78125 
Q 54.390625 -7.171875 48.1875 -13.984375 
Q 42 -20.796875 29.203125 -20.796875 
Q 24.46875 -20.796875 20.265625 -20.09375 
Q 16.0625 -19.390625 12.109375 -17.921875 
L 12.109375 -9.1875 
Q 16.0625 -11.328125 19.921875 -12.34375 
Q 23.78125 -13.375 27.78125 -13.375 
Q 36.625 -13.375 41.015625 -8.765625 
Q 45.40625 -4.15625 45.40625 5.171875 
L 45.40625 9.625 
Q 42.625 4.78125 38.28125 2.390625 
Q 33.9375 0 27.875 0 
Q 17.828125 0 11.671875 7.65625 
Q 5.515625 15.328125 5.515625 27.984375 
Q 5.515625 40.671875 11.671875 48.328125 
Q 17.828125 56 27.875 56 
Q 33.9375 56 38.28125 53.609375 
Q 42.625 51.21875 45.40625 46.390625 
L 45.40625 54.6875 
L 54.390625 54.6875 
z
" id="DejaVuSans-67"/>
      <path d="M 12.40625 8.296875 
L 28.515625 8.296875 
L 28.515625 63.921875 
L 10.984375 60.40625 
L 10.984375 69.390625 
L 28.421875 72.90625 
L 38.28125 72.90625 
L 38.28125 8.296875 
L 54.390625 8.296875 
L 54.390625 0 
L 12.40625 0 
z
" id="DejaVuSans-31"/>
      <path d="M 31 75.875 
Q 24.46875 64.65625 21.28125 53.65625 
Q 18.109375 42.671875 18.109375 31.390625 
Q 18.109375 20.125 21.3125 9.0625 
Q 24.515625 -2 31 -13.1875 
L 23.1875 -13.1875 
Q 15.875 -1.703125 12.234375 9.375 
Q 8.59375 20.453125 8.59375 31.390625 
Q 8.59375 42.28125 12.203125 53.3125 
Q 15.828125 64.359375 23.1875 75.875 
z
" id="DejaVuSans-28"/>
      <path d="M 51.125 44 
L 36.921875 44 
L 32.8125 27.6875 
L 47.125 27.6875 
z
M 43.796875 71.78125 
L 38.71875 51.515625 
L 52.984375 51.515625 
L 58.109375 71.78125 
L 65.921875 71.78125 
L 60.890625 51.515625 
L 76.125 51.515625 
L 76.125 44 
L 58.984375 44 
L 54.984375 27.6875 
L 70.515625 27.6875 
L 70.515625 20.21875 
L 53.078125 20.21875 
L 48 0 
L 40.1875 0 
L 45.21875 20.21875 
L 30.90625 20.21875 
L 25.875 0 
L 18.015625 0 
L 23.09375 20.21875 
L 7.71875 20.21875 
L 7.71875 27.6875 
L 24.90625 27.6875 
L 29 44 
L 13.28125 44 
L 13.28125 51.515625 
L 30.90625 51.515625 
L 35.890625 71.78125 
z
" id="DejaVuSans-23"/>
      <path id="DejaVuSans-20"/>
      <path d="M 37.109375 75.984375 
L 37.109375 68.5 
L 28.515625 68.5 
Q 23.6875 68.5 21.796875 66.546875 
Q 19.921875 64.59375 19.921875 59.515625 
L 19.921875 54.6875 
L 34.71875 54.6875 
L 34.71875 47.703125 
L 19.921875 47.703125 
L 19.921875 0 
L 10.890625 0 
L 10.890625 47.703125 
L 2.296875 47.703125 
L 2.296875 54.6875 
L 10.890625 54.6875 
L 10.890625 58.5 
Q 10.890625 67.625 15.140625 71.796875 
Q 19.390625 75.984375 28.609375 75.984375 
z
" id="DejaVuSans-66"/>
      <path d="M 4.890625 31.390625 
L 31.203125 31.390625 
L 31.203125 23.390625 
L 4.890625 23.390625 
z
" id="DejaVuSans-2d"/>
      <path d="M 56.203125 29.59375 
L 56.203125 25.203125 
L 14.890625 25.203125 
Q 15.484375 15.921875 20.484375 11.0625 
Q 25.484375 6.203125 34.421875 6.203125 
Q 39.59375 6.203125 44.453125 7.46875 
Q 49.3125 8.734375 54.109375 11.28125 
L 54.109375 2.78125 
Q 49.265625 0.734375 44.1875 -0.34375 
Q 39.109375 -1.421875 33.890625 -1.421875 
Q 20.796875 -1.421875 13.15625 6.1875 
Q 5.515625 13.8125 5.515625 26.8125 
Q 5.515625 40.234375 12.765625 48.109375 
Q 20.015625 56 32.328125 56 
Q 43.359375 56 49.78125 48.890625 
Q 56.203125 41.796875 56.203125 29.59375 
z
M 47.21875 32.234375 
Q 47.125 39.59375 43.09375 43.984375 
Q 39.0625 48.390625 32.421875 48.390625 
Q 24.90625 48.390625 20.390625 44.140625 
Q 15.875 39.890625 15.1875 32.171875 
z
" id="DejaVuSans-65"/>
      <path d="M 2.984375 54.6875 
L 12.5 54.6875 
L 29.59375 8.796875 
L 46.6875 54.6875 
L 56.203125 54.6875 
L 35.6875 0 
L 23.484375 0 
z
" id="DejaVuSans-76"/>
      <path d="M 34.28125 27.484375 
Q 23.390625 27.484375 19.1875 25 
Q 14.984375 22.515625 14.984375 16.5 
Q 14.984375 11.71875 18.140625 8.90625 
Q 21.296875 6.109375 26.703125 6.109375 
Q 34.1875 6.109375 38.703125 11.40625 
Q 43.21875 16.703125 43.21875 25.484375 
L 43.21875 27.484375 
z
M 52.203125 31.203125 
L 52.203125 0 
L 43.21875 0 
L 43.21875 8.296875 
Q 40.140625 3.328125 35.546875 0.953125 
Q 30.953125 -1.421875 24.3125 -1.421875 
Q 15.921875 -1.421875 10.953125 3.296875 
Q 6 8.015625 6 15.921875 
Q 6 25.140625 12.171875 29.828125 
Q 18.359375 34.515625 30.609375 34.515625 
L 43.21875 34.515625 
L 43.21875 35.40625 
Q 43.21875 41.609375 39.140625 45 
Q 35.0625 48.390625 27.6875 48.390625 
Q 23 48.390625 18.546875 47.265625 
Q 14.109375 46.140625 10.015625 43.890625 
L 10.015625 52.203125 
Q 14.9375 54.109375 19.578125 55.046875 
Q 24.21875 56 28.609375 56 
Q 40.484375 56 46.34375 49.84375 
Q 52.203125 43.703125 52.203125 31.203125 
z
" id="DejaVuSans-61"/>
      <path d="M 44.28125 53.078125 
L 44.28125 44.578125 
Q 40.484375 46.53125 36.375 47.5 
Q 32.28125 48.484375 27.875 48.484375 
Q 21.1875 48.484375 17.84375 46.4375 
Q 14.5 44.390625 14.5 40.28125 
Q 14.5 37.15625 16.890625 35.375 
Q 19.28125 33.59375 26.515625 31.984375 
L 29.59375 31.296875 
Q 39.15625 29.25 43.1875 25.515625 
Q 47.21875 21.78125 47.21875 15.09375 
Q 47.21875 7.46875 41.1875 3.015625 
Q 35.15625 -1.421875 24.609375 -1.421875 
Q 20.21875 -1.421875 15.453125 -0.5625 
Q 10.6875 0.296875 5.421875 2 
L 5.421875 11.28125 
Q 10.40625 8.6875 15.234375 7.390625 
Q 20.0625 6.109375 24.8125 6.109375 
Q 31.15625 6.109375 34.5625 8.28125 
Q 37.984375 10.453125 37.984375 14.40625 
Q 37.984375 18.0625 35.515625 20.015625 
Q 33.0625 21.96875 24.703125 23.78125 
L 21.578125 24.515625 
Q 13.234375 26.265625 9.515625 29.90625 
Q 5.8125 33.546875 5.8125 39.890625 
Q 5.8125 47.609375 11.28125 51.796875 
Q 16.75 56 26.8125 56 
Q 31.78125 56 36.171875 55.265625 
Q 40.578125 54.546875 44.28125 53.078125 
z
" id="DejaVuSans-73"/>
      <path d="M 25.390625 72.90625 
L 33.6875 72.90625 
L 8.296875 -9.28125 
L 0 -9.28125 
z
" id="DejaVuSans-2f"/>
      <path d="M 45.40625 46.390625 
L 45.40625 75.984375 
L 54.390625 75.984375 
L 54.390625 0 
L 45.40625 0 
L 45.40625 8.203125 
Q 42.578125 3.328125 38.25 0.953125 
Q 33.9375 -1.421875 27.875 -1.421875 
Q 17.96875 -1.421875 11.734375 6.484375 
Q 5.515625 14.40625 5.515625 27.296875 
Q 5.515625 40.1875 11.734375 48.09375 
Q 17.96875 56 27.875 56 
Q 33.9375 56 38.25 53.625 
Q 42.578125 51.265625 45.40625 46.390625 
z
M 14.796875 27.296875 
Q 14.796875 17.390625 18.875 11.75 
Q 22.953125 6.109375 30.078125 6.109375 
Q 37.203125 6.109375 41.296875 11.75 
Q 45.40625 17.390625 45.40625 27.296875 
Q 45.40625 37.203125 41.296875 42.84375 
Q 37.203125 48.484375 30.078125 48.484375 
Q 22.953125 48.484375 18.875 42.84375 
Q 14.796875 37.203125 14.796875 27.296875 
z
" id="DejaVuSans-64"/>
      <path d="M 9.421875 54.6875 
L 18.40625 54.6875 
L 18.40625 0 
L 9.421875 0 
z
M 9.421875 75.984375 
L 18.40625 75.984375 
L 18.40625 64.59375 
L 9.421875 64.59375 
z
" id="DejaVuSans-69"/>
      <path d="M 52 44.1875 
Q 55.375 50.25 60.0625 53.125 
Q 64.75 56 71.09375 56 
Q 79.640625 56 84.28125 50.015625 
Q 88.921875 44.046875 88.921875 33.015625 
L 88.921875 0 
L 79.890625 0 
L 79.890625 32.71875 
Q 79.890625 40.578125 77.09375 44.375 
Q 74.3125 48.1875 68.609375 48.1875 
Q 61.625 48.1875 57.5625 43.546875 
Q 53.515625 38.921875 53.515625 30.90625 
L 53.515625 0 
L 44.484375 0 
L 44.484375 32.71875 
Q 44.484375 40.625 41.703125 44.40625 
Q 38.921875 48.1875 33.109375 48.1875 
Q 26.21875 48.1875 22.15625 43.53125 
Q 18.109375 38.875 18.109375 30.90625 
L 18.109375 0 
L 9.078125 0 
L 9.078125 54.6875 
L 18.109375 54.6875 
L 18.109375 46.1875 
Q 21.1875 51.21875 25.484375 53.609375 
Q 29.78125 56 35.6875 56 
Q 41.65625 56 45.828125 52.96875 
Q 50 49.953125 52 44.1875 
z
" id="DejaVuSans-6d"/>
      <path d="M 54.890625 33.015625 
L 54.890625 0 
L 45.90625 0 
L 45.90625 32.71875 
Q 45.90625 40.484375 42.875 44.328125 
Q 39.84375 48.1875 33.796875 48.1875 
Q 26.515625 48.1875 22.3125 43.546875 
Q 18.109375 38.921875 18.109375 30.90625 
L 18.109375 0 
L 9.078125 0 
L 9.078125 54.6875 
L 18.109375 54.6875 
L 18.109375 46.1875 
Q 21.34375 51.125 25.703125 53.5625 
Q 30.078125 56 35.796875 56 
Q 45.21875 56 50.046875 50.171875 
Q 54.890625 44.34375 54.890625 33.015625 
z
" id="DejaVuSans-6e"/>
      <path d="M 8.015625 75.875 
L 15.828125 75.875 
Q 23.140625 64.359375 26.78125 53.3125 
Q 30.421875 42.28125 30.421875 31.390625 
Q 30.421875 20.453125 26.78125 9.375 
Q 23.140625 -1.703125 15.828125 -13.1875 
L 8.015625 -13.1875 
Q 14.5 -2 17.703125 9.0625 
Q 20.90625 20.125 20.90625 31.390625 
Q 20.90625 42.671875 17.703125 53.65625 
Q 14.5 64.65625 8.015625 75.875 
z
" id="DejaVuSans-29"/>
     </defs>
     <g transform="translate(73.803219 338.153594)scale(0.17 -0.17)">
      <use xlink:href="#DejaVuSans-6c"/>
      <use x="27.783203" xlink:href="#DejaVuSans-6f"/>
      <use x="88.964844" xlink:href="#DejaVuSans-67"/>
      <use x="152.441406" xlink:href="#DejaVuSans-31"/>
      <use x="216.064453" xlink:href="#DejaVuSans-30"/>
      <use x="279.6875" xlink:href="#DejaVuSans-28"/>
      <use x="318.701172" xlink:href="#DejaVuSans-23"/>
      <use x="402.490234" xlink:href="#DejaVuSans-20"/>
      <use x="434.277344" xlink:href="#DejaVuSans-66"/>
      <use x="469.404297" xlink:href="#DejaVuSans-2d"/>
      <use x="505.488281" xlink:href="#DejaVuSans-65"/>
      <use x="567.011719" xlink:href="#DejaVuSans-76"/>
      <use x="626.191406" xlink:href="#DejaVuSans-61"/>
      <use x="687.470703" xlink:href="#DejaVuSans-6c"/>
      <use x="715.253906" xlink:href="#DejaVuSans-73"/>
      <use x="767.353516" xlink:href="#DejaVuSans-20"/>
      <use x="799.140625" xlink:href="#DejaVuSans-2f"/>
      <use x="832.832031" xlink:href="#DejaVuSans-20"/>
      <use x="864.619141" xlink:href="#DejaVuSans-64"/>
      <use x="928.095703" xlink:href="#DejaVuSans-69"/>
      <use x="955.878906" xlink:href="#DejaVuSans-6d"/>
      <use x="1053.291016" xlink:href="#DejaVuSans-65"/>
      <use x="1114.814453" xlink:href="#DejaVuSans-6e"/>
      <use x="1178.193359" xlink:href="#DejaVuSans-73"/>
      <use x="1230.292969" xlink:href="#DejaVuSans-69"/>
      <use x="1258.076172" xlink:href="#DejaVuSans-6f"/>
      <use x="1319.257812" xlink:href="#DejaVuSans-6e"/>
      <use x="1382.636719" xlink:href="#DejaVuSans-29"/>
     </g>
    </g>
   </g>
   <g id="matplotlib.axis_2">
    <g id="ytick_1">
     <g id="line2d_29">
      <path clip-path="url(#p6293ded02b)" d="M 56.12 294.88 
L 333.168 294.88 
" style="fill:none;stroke:#b0b0b0;stroke-linecap:square;stroke-width:0.8;"/>
     </g>
     <g id="line2d_30">
      <defs>
       <path d="M 0 0 
L -3.5 0 
" id="m0fcb5f6bd1" style="stroke:#000000;stroke-width:0.8;"/>
      </defs>
      <g>
       <use style="stroke:#000000;stroke-width:0.8;" x="56.12" xlink:href="#m0fcb5f6bd1" y="294.88"/>
      </g>
     </g>
     <g id="text_6">
      <!-- 0.0 -->
      <defs>
       <path d="M 10.6875 12.40625 
L 21 12.40625 
L 21 0 
L 10.6875 0 
z
" id="DejaVuSans-2e"/>
      </defs>
      <g transform="translate(23.675 300.95875)scale(0.16 -0.16)">
       <use xlink:href="#DejaVuSans-30"/>
       <use x="63.623047" xlink:href="#DejaVuSans-2e"/>
       <use x="95.410156" xlink:href="#DejaVuSans-30"/>
      </g>
     </g>
    </g>
    <g id="ytick_2">
     <g id="line2d_31">
      <path clip-path="url(#p6293ded02b)" d="M 56.12 241.406733 
L 333.168 241.406733 
" style="fill:none;stroke:#b0b0b0;stroke-linecap:square;stroke-width:0.8;"/>
     </g>
     <g id="line2d_32">
      <g>
       <use style="stroke:#000000;stroke-width:0.8;" x="56.12" xlink:href="#m0fcb5f6bd1" y="241.406733"/>
      </g>
     </g>
     <g id="text_7">
      <!-- 0.2 -->
      <g transform="translate(23.675 247.485483)scale(0.16 -0.16)">
       <use xlink:href="#DejaVuSans-30"/>
       <use x="63.623047" xlink:href="#DejaVuSans-2e"/>
       <use x="95.410156" xlink:href="#DejaVuSans-32"/>
      </g>
     </g>
    </g>
    <g id="ytick_3">
     <g id="line2d_33">
      <path clip-path="url(#p6293ded02b)" d="M 56.12 187.933465 
L 333.168 187.933465 
" style="fill:none;stroke:#b0b0b0;stroke-linecap:square;stroke-width:0.8;"/>
     </g>
     <g id="line2d_34">
      <g>
       <use style="stroke:#000000;stroke-width:0.8;" x="56.12" xlink:href="#m0fcb5f6bd1" y="187.933465"/>
      </g>
     </g>
     <g id="text_8">
      <!-- 0.4 -->
      <g transform="translate(23.675 194.012215)scale(0.16 -0.16)">
       <use xlink:href="#DejaVuSans-30"/>
       <use x="63.623047" xlink:href="#DejaVuSans-2e"/>
       <use x="95.410156" xlink:href="#DejaVuSans-34"/>
      </g>
     </g>
    </g>
    <g id="ytick_4">
     <g id="line2d_35">
      <path clip-path="url(#p6293ded02b)" d="M 56.12 134.460198 
L 333.168 134.460198 
" style="fill:none;stroke:#b0b0b0;stroke-linecap:square;stroke-width:0.8;"/>
     </g>
     <g id="line2d_36">
      <g>
       <use style="stroke:#000000;stroke-width:0.8;" x="56.12" xlink:href="#m0fcb5f6bd1" y="134.460198"/>
      </g>
     </g>
     <g id="text_9">
      <!-- 0.6 -->
      <g transform="translate(23.675 140.538948)scale(0.16 -0.16)">
       <use xlink:href="#DejaVuSans-30"/>
       <use x="63.623047" xlink:href="#DejaVuSans-2e"/>
       <use x="95.410156" xlink:href="#DejaVuSans-36"/>
      </g>
     </g>
    </g>
    <g id="ytick_5">
     <g id="line2d_37">
      <path clip-path="url(#p6293ded02b)" d="M 56.12 80.986931 
L 333.168 80.986931 
" style="fill:none;stroke:#b0b0b0;stroke-linecap:square;stroke-width:0.8;"/>
     </g>
     <g id="line2d_38">
      <g>
       <use style="stroke:#000000;stroke-width:0.8;" x="56.12" xlink:href="#m0fcb5f6bd1" y="80.986931"/>
      </g>
     </g>
     <g id="text_10">
      <!-- 0.8 -->
      <defs>
       <path d="M 31.78125 34.625 
Q 24.75 34.625 20.71875 30.859375 
Q 16.703125 27.09375 16.703125 20.515625 
Q 16.703125 13.921875 20.71875 10.15625 
Q 24.75 6.390625 31.78125 6.390625 
Q 38.8125 6.390625 42.859375 10.171875 
Q 46.921875 13.96875 46.921875 20.515625 
Q 46.921875 27.09375 42.890625 30.859375 
Q 38.875 34.625 31.78125 34.625 
z
M 21.921875 38.8125 
Q 15.578125 40.375 12.03125 44.71875 
Q 8.5 49.078125 8.5 55.328125 
Q 8.5 64.0625 14.71875 69.140625 
Q 20.953125 74.21875 31.78125 74.21875 
Q 42.671875 74.21875 48.875 69.140625 
Q 55.078125 64.0625 55.078125 55.328125 
Q 55.078125 49.078125 51.53125 44.71875 
Q 48 40.375 41.703125 38.8125 
Q 48.828125 37.15625 52.796875 32.3125 
Q 56.78125 27.484375 56.78125 20.515625 
Q 56.78125 9.90625 50.3125 4.234375 
Q 43.84375 -1.421875 31.78125 -1.421875 
Q 19.734375 -1.421875 13.25 4.234375 
Q 6.78125 9.90625 6.78125 20.515625 
Q 6.78125 27.484375 10.78125 32.3125 
Q 14.796875 37.15625 21.921875 38.8125 
z
M 18.3125 54.390625 
Q 18.3125 48.734375 21.84375 45.5625 
Q 25.390625 42.390625 31.78125 42.390625 
Q 38.140625 42.390625 41.71875 45.5625 
Q 45.3125 48.734375 45.3125 54.390625 
Q 45.3125 60.0625 41.71875 63.234375 
Q 38.140625 66.40625 31.78125 66.40625 
Q 25.390625 66.40625 21.84375 63.234375 
Q 18.3125 60.0625 18.3125 54.390625 
z
" id="DejaVuSans-38"/>
      </defs>
      <g transform="translate(23.675 87.065681)scale(0.16 -0.16)">
       <use xlink:href="#DejaVuSans-30"/>
       <use x="63.623047" xlink:href="#DejaVuSans-2e"/>
       <use x="95.410156" xlink:href="#DejaVuSans-38"/>
      </g>
     </g>
    </g>
    <g id="ytick_6">
     <g id="line2d_39">
      <path clip-path="url(#p6293ded02b)" d="M 56.12 27.513663 
L 333.168 27.513663 
" style="fill:none;stroke:#b0b0b0;stroke-linecap:square;stroke-width:0.8;"/>
     </g>
     <g id="line2d_40">
      <g>
       <use style="stroke:#000000;stroke-width:0.8;" x="56.12" xlink:href="#m0fcb5f6bd1" y="27.513663"/>
      </g>
     </g>
     <g id="text_11">
      <!-- 1.0 -->
      <g transform="translate(23.675 33.592413)scale(0.16 -0.16)">
       <use xlink:href="#DejaVuSans-31"/>
       <use x="63.623047" xlink:href="#DejaVuSans-2e"/>
       <use x="95.410156" xlink:href="#DejaVuSans-30"/>
      </g>
     </g>
    </g>
    <g id="text_12">
     <!-- Fraction of function,target pairs -->
     <defs>
      <path d="M 9.8125 72.90625 
L 51.703125 72.90625 
L 51.703125 64.59375 
L 19.671875 64.59375 
L 19.671875 43.109375 
L 48.578125 43.109375 
L 48.578125 34.8125 
L 19.671875 34.8125 
L 19.671875 0 
L 9.8125 0 
z
" id="DejaVuSans-46"/>
      <path d="M 41.109375 46.296875 
Q 39.59375 47.171875 37.8125 47.578125 
Q 36.03125 48 33.890625 48 
Q 26.265625 48 22.1875 43.046875 
Q 18.109375 38.09375 18.109375 28.8125 
L 18.109375 0 
L 9.078125 0 
L 9.078125 54.6875 
L 18.109375 54.6875 
L 18.109375 46.1875 
Q 20.953125 51.171875 25.484375 53.578125 
Q 30.03125 56 36.53125 56 
Q 37.453125 56 38.578125 55.875 
Q 39.703125 55.765625 41.0625 55.515625 
z
" id="DejaVuSans-72"/>
      <path d="M 48.78125 52.59375 
L 48.78125 44.1875 
Q 44.96875 46.296875 41.140625 47.34375 
Q 37.3125 48.390625 33.40625 48.390625 
Q 24.65625 48.390625 19.8125 42.84375 
Q 14.984375 37.3125 14.984375 27.296875 
Q 14.984375 17.28125 19.8125 11.734375 
Q 24.65625 6.203125 33.40625 6.203125 
Q 37.3125 6.203125 41.140625 7.25 
Q 44.96875 8.296875 48.78125 10.40625 
L 48.78125 2.09375 
Q 45.015625 0.34375 40.984375 -0.53125 
Q 36.96875 -1.421875 32.421875 -1.421875 
Q 20.0625 -1.421875 12.78125 6.34375 
Q 5.515625 14.109375 5.515625 27.296875 
Q 5.515625 40.671875 12.859375 48.328125 
Q 20.21875 56 33.015625 56 
Q 37.15625 56 41.109375 55.140625 
Q 45.0625 54.296875 48.78125 52.59375 
z
" id="DejaVuSans-63"/>
      <path d="M 18.3125 70.21875 
L 18.3125 54.6875 
L 36.8125 54.6875 
L 36.8125 47.703125 
L 18.3125 47.703125 
L 18.3125 18.015625 
Q 18.3125 11.328125 20.140625 9.421875 
Q 21.96875 7.515625 27.59375 7.515625 
L 36.8125 7.515625 
L 36.8125 0 
L 27.59375 0 
Q 17.1875 0 13.234375 3.875 
Q 9.28125 7.765625 9.28125 18.015625 
L 9.28125 47.703125 
L 2.6875 47.703125 
L 2.6875 54.6875 
L 9.28125 54.6875 
L 9.28125 70.21875 
z
" id="DejaVuSans-74"/>
      <path d="M 8.5 21.578125 
L 8.5 54.6875 
L 17.484375 54.6875 
L 17.484375 21.921875 
Q 17.484375 14.15625 20.5 10.265625 
Q 23.53125 6.390625 29.59375 6.390625 
Q 36.859375 6.390625 41.078125 11.03125 
Q 45.3125 15.671875 45.3125 23.6875 
L 45.3125 54.6875 
L 54.296875 54.6875 
L 54.296875 0 
L 45.3125 0 
L 45.3125 8.40625 
Q 42.046875 3.421875 37.71875 1 
Q 33.40625 -1.421875 27.6875 -1.421875 
Q 18.265625 -1.421875 13.375 4.4375 
Q 8.5 10.296875 8.5 21.578125 
z
M 31.109375 56 
z
" id="DejaVuSans-75"/>
      <path d="M 11.71875 12.40625 
L 22.015625 12.40625 
L 22.015625 4 
L 14.015625 -11.625 
L 7.71875 -11.625 
L 11.71875 4 
z
" id="DejaVuSans-2c"/>
      <path d="M 18.109375 8.203125 
L 18.109375 -20.796875 
L 9.078125 -20.796875 
L 9.078125 54.6875 
L 18.109375 54.6875 
L 18.109375 46.390625 
Q 20.953125 51.265625 25.265625 53.625 
Q 29.59375 56 35.59375 56 
Q 45.5625 56 51.78125 48.09375 
Q 58.015625 40.1875 58.015625 27.296875 
Q 58.015625 14.40625 51.78125 6.484375 
Q 45.5625 -1.421875 35.59375 -1.421875 
Q 29.59375 -1.421875 25.265625 0.953125 
Q 20.953125 3.328125 18.109375 8.203125 
z
M 48.6875 27.296875 
Q 48.6875 37.203125 44.609375 42.84375 
Q 40.53125 48.484375 33.40625 48.484375 
Q 26.265625 48.484375 22.1875 42.84375 
Q 18.109375 37.203125 18.109375 27.296875 
Q 18.109375 17.390625 22.1875 11.75 
Q 26.265625 6.109375 33.40625 6.109375 
Q 40.53125 6.109375 44.609375 11.75 
Q 48.6875 17.390625 48.6875 27.296875 
z
" id="DejaVuSans-70"/>
     </defs>
     <g transform="translate(16.139531 294.999375)rotate(-90)scale(0.17 -0.17)">
      <use xlink:href="#DejaVuSans-46"/>
      <use x="57.410156" xlink:href="#DejaVuSans-72"/>
      <use x="98.523438" xlink:href="#DejaVuSans-61"/>
      <use x="159.802734" xlink:href="#DejaVuSans-63"/>
      <use x="214.783203" xlink:href="#DejaVuSans-74"/>
      <use x="253.992188" xlink:href="#DejaVuSans-69"/>
      <use x="281.775391" xlink:href="#DejaVuSans-6f"/>
      <use x="342.957031" xlink:href="#DejaVuSans-6e"/>
      <use x="406.335938" xlink:href="#DejaVuSans-20"/>
      <use x="438.123047" xlink:href="#DejaVuSans-6f"/>
      <use x="499.304688" xlink:href="#DejaVuSans-66"/>
      <use x="534.509766" xlink:href="#DejaVuSans-20"/>
      <use x="566.296875" xlink:href="#DejaVuSans-66"/>
      <use x="601.501953" xlink:href="#DejaVuSans-75"/>
      <use x="664.880859" xlink:href="#DejaVuSans-6e"/>
      <use x="728.259766" xlink:href="#DejaVuSans-63"/>
      <use x="783.240234" xlink:href="#DejaVuSans-74"/>
      <use x="822.449219" xlink:href="#DejaVuSans-69"/>
      <use x="850.232422" xlink:href="#DejaVuSans-6f"/>
      <use x="911.414062" xlink:href="#DejaVuSans-6e"/>
      <use x="974.792969" xlink:href="#DejaVuSans-2c"/>
      <use x="1006.580078" xlink:href="#DejaVuSans-74"/>
      <use x="1045.789062" xlink:href="#DejaVuSans-61"/>
      <use x="1107.068359" xlink:href="#DejaVuSans-72"/>
      <use x="1148.166016" xlink:href="#DejaVuSans-67"/>
      <use x="1211.642578" xlink:href="#DejaVuSans-65"/>
      <use x="1273.166016" xlink:href="#DejaVuSans-74"/>
      <use x="1312.375" xlink:href="#DejaVuSans-20"/>
      <use x="1344.162109" xlink:href="#DejaVuSans-70"/>
      <use x="1407.638672" xlink:href="#DejaVuSans-61"/>
      <use x="1468.917969" xlink:href="#DejaVuSans-69"/>
      <use x="1496.701172" xlink:href="#DejaVuSans-72"/>
      <use x="1537.814453" xlink:href="#DejaVuSans-73"/>
     </g>
    </g>
   </g>
   <g id="line2d_41">
    <defs>
     <path d="M 0 1.5 
C 0.397805 1.5 0.77937 1.341951 1.06066 1.06066 
C 1.341951 0.77937 1.5 0.397805 1.5 0 
C 1.5 -0.397805 1.341951 -0.77937 1.06066 -1.06066 
C 0.77937 -1.341951 0.397805 -1.5 0 -1.5 
C -0.397805 -1.5 -0.77937 -1.341951 -1.06066 -1.06066 
C -1.341951 -0.77937 -1.5 -0.397805 -1.5 0 
C -1.5 0.397805 -1.341951 0.77937 -1.06066 1.06066 
C -0.77937 1.341951 -0.397805 1.5 0 1.5 
z
" id="m34774ca512" style="stroke:#f5deb3;"/>
    </defs>
    <g>
     <use style="fill:#f5deb3;stroke:#f5deb3;" x="169.42892" xlink:href="#m34774ca512" y="27.513663"/>
     <use style="fill:#f5deb3;stroke:#f5deb3;" x="169.42892" xlink:href="#m34774ca512" y="27.513663"/>
    </g>
   </g>
   <g id="line2d_42">
    <defs>
     <path d="M 0 1.5 
C 0.397805 1.5 0.77937 1.341951 1.06066 1.06066 
C 1.341951 0.77937 1.5 0.397805 1.5 0 
C 1.5 -0.397805 1.341951 -0.77937 1.06066 -1.06066 
C 0.77937 -1.341951 0.397805 -1.5 0 -1.5 
C -0.397805 -1.5 -0.77937 -1.341951 -1.06066 -1.06066 
C -1.341951 -0.77937 -1.5 -0.397805 -1.5 0 
C -1.5 0.397805 -1.341951 0.77937 -1.06066 1.06066 
C -0.77937 1.341951 -0.397805 1.5 0 1.5 
z
" id="mf2667bbc1e" style="stroke:#000080;"/>
    </defs>
    <g>
     <use style="fill:#000080;stroke:#000080;" x="215.003269" xlink:href="#mf2667bbc1e" y="27.513663"/>
     <use style="fill:#000080;stroke:#000080;" x="215.003269" xlink:href="#mf2667bbc1e" y="27.513663"/>
    </g>
   </g>
   <g id="line2d_43">
    <path d="M 152.857285 294.88 
L 152.940523 293.831505 
L 153.269502 293.831505 
L 153.269502 293.307257 
L 153.68385 293.307257 
L 153.692683 291.210266 
L 153.845081 291.210266 
L 153.845081 290.686018 
L 154.128671 290.686018 
L 154.128671 289.637523 
L 154.528656 289.637523 
L 154.528656 288.589027 
L 155.064205 288.589027 
L 155.064205 288.06478 
L 155.435255 288.06478 
L 155.483068 287.016284 
L 155.751522 287.016284 
L 155.827088 285.967789 
L 155.917848 285.967789 
L 155.917848 285.443541 
L 156.049247 285.443541 
L 156.133737 283.870798 
L 156.210188 283.870798 
L 156.230517 282.822302 
L 156.407383 282.822302 
L 156.407383 282.298055 
L 156.77544 282.298055 
L 156.819671 280.725312 
L 156.888249 280.725312 
L 156.988177 277.055578 
L 157.174289 277.055578 
L 157.210311 276.007082 
L 157.488724 276.007082 
L 157.599307 274.958587 
L 157.655502 274.958587 
L 157.690531 273.385844 
L 157.804464 273.385844 
L 157.841503 270.764605 
L 158.04152 270.764605 
L 158.062079 269.716109 
L 158.286622 269.716109 
L 158.286622 269.191862 
L 158.563792 269.191862 
L 158.563792 268.667614 
L 158.694119 268.667614 
L 158.694119 267.094871 
L 158.827832 267.094871 
L 158.827832 266.570623 
L 158.988657 266.570623 
L 159.070662 263.949385 
L 159.141561 263.949385 
L 159.227109 261.328146 
L 159.307986 261.328146 
L 159.360989 259.755403 
L 159.66106 259.755403 
L 159.66106 258.18266 
L 159.801934 258.18266 
L 159.888372 256.085669 
L 159.933476 256.085669 
L 159.933476 255.561421 
L 160.143083 255.561421 
L 160.237887 252.940182 
L 161.039605 252.940182 
L 161.074128 250.843192 
L 161.262775 250.843192 
L 161.368575 248.221953 
L 161.454997 248.221953 
L 161.539123 247.173458 
L 161.583822 247.173458 
L 161.66732 246.124962 
L 161.792731 246.124962 
L 161.792731 245.600714 
L 161.980967 245.600714 
L 161.980967 245.076467 
L 162.349585 245.076467 
L 162.349585 244.552219 
L 162.556477 244.552219 
L 162.556477 244.027971 
L 162.785208 244.027971 
L 162.863083 242.979476 
L 163.152434 242.979476 
L 163.152434 242.455228 
L 163.453687 242.455228 
L 163.453687 241.93098 
L 163.793969 241.93098 
L 163.793969 241.406733 
L 163.924322 241.406733 
L 163.987513 240.358237 
L 164.124436 240.358237 
L 164.124436 239.309742 
L 164.236383 239.309742 
L 164.315902 236.164255 
L 164.527214 236.164255 
L 164.575732 234.591512 
L 164.791612 234.591512 
L 164.791612 233.543017 
L 164.978881 233.543017 
L 165.032231 231.970274 
L 165.547958 231.970274 
L 165.547958 231.446026 
L 165.986866 231.446026 
L 165.986866 229.873283 
L 166.877595 229.873283 
L 166.949893 228.30054 
L 167.017822 228.30054 
L 167.017822 227.252044 
L 168.16 227.252044 
L 168.16 226.727797 
L 177.797144 226.727797 
L 177.797144 226.203549 
L 180.481717 226.203549 
L 180.481717 225.679301 
L 181.795002 225.679301 
L 181.795002 225.155053 
L 182.032114 225.155053 
L 182.032114 224.630806 
L 182.170805 224.630806 
L 182.170805 224.106558 
L 182.870615 224.106558 
L 182.870615 223.58231 
L 183.096097 223.58231 
L 183.096097 223.058063 
L 183.438522 223.058063 
L 183.438522 222.533815 
L 184.159672 222.533815 
L 184.234533 220.436824 
L 184.290218 220.436824 
L 184.290218 219.912576 
L 184.496462 219.912576 
L 184.496462 219.388328 
L 185.681767 219.388328 
L 185.681767 218.864081 
L 186.163404 218.864081 
L 186.163404 218.339833 
L 186.499725 218.339833 
L 186.499725 217.815585 
L 186.665666 217.815585 
L 186.665666 216.76709 
L 187.669431 216.76709 
L 187.669431 215.194347 
L 188.076439 215.194347 
L 188.076439 214.670099 
L 188.265359 214.670099 
L 188.284649 213.621604 
L 188.679816 213.621604 
L 188.679816 213.097356 
L 189.126526 213.097356 
L 189.159837 212.04886 
L 189.612618 212.04886 
L 189.695093 211.000365 
L 190.681131 211.000365 
L 190.718054 209.427622 
L 190.916011 209.427622 
L 190.916011 208.903374 
L 191.747991 208.903374 
L 191.747991 208.379126 
L 191.878087 208.379126 
L 191.878087 207.854879 
L 192.087809 207.854879 
L 192.087809 206.806383 
L 192.341055 206.806383 
L 192.341055 206.282136 
L 192.87974 206.282136 
L 192.890578 205.23364 
L 193.90556 205.23364 
L 193.90556 204.709392 
L 194.116192 204.709392 
L 194.222916 203.136649 
L 194.238784 203.136649 
L 194.238784 202.612401 
L 194.414577 202.612401 
L 194.512351 201.039658 
L 194.609027 201.039658 
L 194.705162 199.991163 
L 195.280904 199.991163 
L 195.280904 198.942667 
L 195.425382 198.942667 
L 195.425382 198.41842 
L 195.57947 198.41842 
L 195.663428 197.369924 
L 195.837985 197.369924 
L 195.837985 196.845677 
L 196.2575 196.845677 
L 196.336494 194.748686 
L 196.579823 194.748686 
L 196.630984 192.651695 
L 196.774917 192.651695 
L 196.774917 191.603199 
L 196.96616 191.603199 
L 197.074325 190.554704 
L 197.228645 190.554704 
L 197.228645 190.030456 
L 197.45121 190.030456 
L 197.522157 188.981961 
L 197.58457 188.981961 
L 197.58457 187.933465 
L 197.959066 187.933465 
L 197.959066 186.88497 
L 198.094784 186.88497 
L 198.157592 185.836474 
L 198.410047 185.836474 
L 198.410047 185.312227 
L 198.537715 185.312227 
L 198.625034 184.263731 
L 198.703544 184.263731 
L 198.703544 183.215236 
L 199.07926 183.215236 
L 199.110307 181.118245 
L 199.405167 181.118245 
L 199.405167 180.06975 
L 199.667887 180.06975 
L 199.721369 177.448511 
L 199.923254 177.448511 
L 199.996065 174.827272 
L 200.044568 174.827272 
L 200.044568 174.303025 
L 200.156552 174.303025 
L 200.156552 173.778777 
L 200.305587 173.778777 
L 200.305587 173.254529 
L 200.574832 173.254529 
L 200.574832 172.730281 
L 200.750426 172.730281 
L 200.826652 171.157538 
L 200.882514 171.157538 
L 200.97697 169.060547 
L 201.065112 169.060547 
L 201.143869 167.487804 
L 201.204464 167.487804 
L 201.246531 166.439309 
L 201.427155 166.439309 
L 201.427155 165.915061 
L 201.601187 165.915061 
L 201.709632 163.81807 
L 201.781909 163.81807 
L 201.844769 162.245327 
L 201.961993 162.245327 
L 202.057778 159.624089 
L 202.160757 159.624089 
L 202.160757 159.099841 
L 202.352389 159.099841 
L 202.450517 157.527098 
L 202.482241 157.527098 
L 202.553235 155.430107 
L 202.656365 155.430107 
L 202.657729 154.381611 
L 202.845448 154.381611 
L 202.955226 152.808868 
L 203.050148 152.808868 
L 203.050148 152.28462 
L 203.22623 152.28462 
L 203.294716 151.236125 
L 203.359983 151.236125 
L 203.400364 149.663382 
L 203.597953 149.663382 
L 203.597953 149.139134 
L 203.743427 149.139134 
L 203.789944 147.566391 
L 203.907669 147.566391 
L 204.009785 145.4694 
L 204.062502 145.4694 
L 204.062502 144.945152 
L 204.228562 144.945152 
L 204.30046 143.896657 
L 204.410287 143.896657 
L 204.438441 141.275418 
L 204.560525 141.275418 
L 204.560525 140.226923 
L 204.827687 140.226923 
L 204.905956 136.032941 
L 204.949434 136.032941 
L 204.985806 134.984446 
L 205.136727 134.984446 
L 205.174472 132.363207 
L 205.269499 132.363207 
L 205.269499 131.314712 
L 205.386567 131.314712 
L 205.494171 129.741969 
L 205.53417 129.741969 
L 205.636126 127.644978 
L 205.708665 127.644978 
L 205.784027 126.596482 
L 205.862456 126.596482 
L 205.862456 126.072235 
L 205.988635 126.072235 
L 206.089335 122.926748 
L 206.133128 122.926748 
L 206.23465 120.829757 
L 206.444531 120.829757 
L 206.444531 119.781262 
L 206.572771 119.781262 
L 206.608306 117.684271 
L 206.703834 117.684271 
L 206.797628 114.538785 
L 206.959682 114.538785 
L 207.035448 112.441794 
L 207.144273 112.441794 
L 207.229037 110.869051 
L 207.315855 110.869051 
L 207.422924 107.199317 
L 207.475051 107.199317 
L 207.538062 105.626573 
L 207.798571 105.626573 
L 207.87703 101.432592 
L 207.915121 101.432592 
L 207.995675 98.811353 
L 208.085058 98.811353 
L 208.085058 98.287105 
L 208.231894 98.287105 
L 208.29588 94.093124 
L 208.373819 94.093124 
L 208.41912 93.044628 
L 208.60855 93.044628 
L 208.60855 92.520381 
L 208.75399 92.520381 
L 208.862951 90.42339 
L 208.90153 90.42339 
L 208.984329 88.326399 
L 209.075419 88.326399 
L 209.170816 85.70516 
L 209.272302 85.70516 
L 209.366384 84.132417 
L 209.463971 84.132417 
L 209.498363 80.986931 
L 209.606818 80.986931 
L 209.606818 80.462683 
L 209.733129 80.462683 
L 209.760446 79.414188 
L 209.859529 79.414188 
L 209.872532 78.365692 
L 210.150087 78.365692 
L 210.211174 75.220206 
L 210.348077 75.220206 
L 210.348077 74.17171 
L 210.509184 74.17171 
L 210.550061 73.123215 
L 210.662697 73.123215 
L 210.762899 71.550472 
L 210.799249 71.550472 
L 210.799249 70.501976 
L 210.928298 70.501976 
L 211.036919 67.880738 
L 211.074577 67.880738 
L 211.094418 66.307995 
L 211.211433 66.307995 
L 211.294162 63.162508 
L 211.369511 63.162508 
L 211.437679 61.065517 
L 211.567016 61.065517 
L 211.594714 58.444279 
L 211.71231 58.444279 
L 211.819605 56.347288 
L 211.862675 56.347288 
L 211.862675 55.82304 
L 212.073663 55.82304 
L 212.073663 54.774545 
L 212.272447 54.774545 
L 212.372049 52.153306 
L 212.685145 52.153306 
L 212.759575 50.580563 
L 212.852634 50.580563 
L 212.907101 49.00782 
L 213.036787 49.00782 
L 213.140596 43.241095 
L 213.154303 43.241095 
L 213.255842 39.571361 
L 213.287381 39.571361 
L 213.303542 38.522865 
L 213.440756 38.522865 
L 213.504556 36.425875 
L 213.557451 36.425875 
L 213.6373 35.377379 
L 213.89195 35.377379 
L 213.89195 34.853131 
L 214.09851 34.853131 
L 214.195246 31.707645 
L 214.318197 31.707645 
L 214.406394 29.610654 
L 214.579737 29.610654 
L 214.620505 28.562159 
L 214.86403 28.562159 
L 214.86403 28.037911 
L 215.003269 28.037911 
L 215.003269 27.513663 
L 333.168 27.513663 
L 333.168 27.513663 
" style="fill:none;stroke:#000080;stroke-linecap:square;stroke-width:1.5;"/>
   </g>
   <g id="line2d_44">
    <defs>
     <path d="M 0 6 
C 1.591219 6 3.117479 5.367802 4.242641 4.242641 
C 5.367802 3.117479 6 1.591219 6 0 
C 6 -1.591219 5.367802 -3.117479 4.242641 -4.242641 
C 3.117479 -5.367802 1.591219 -6 0 -6 
C -1.591219 -6 -3.117479 -5.367802 -4.242641 -4.242641 
C -5.367802 -3.117479 -6 -1.591219 -6 0 
C -6 1.591219 -5.367802 3.117479 -4.242641 4.242641 
C -3.117479 5.367802 -1.591219 6 0 6 
z
" id="m9c80493e6c" style="stroke:#000080;stroke-width:1.5;"/>
    </defs>
    <g>
     <use style="fill-opacity:0;stroke:#000080;stroke-width:1.5;" x="204.228562" xlink:href="#m9c80493e6c" y="144.945152"/>
     <use style="fill-opacity:0;stroke:#000080;stroke-width:1.5;" x="215.003269" xlink:href="#m9c80493e6c" y="27.513663"/>
     <use style="fill-opacity:0;stroke:#000080;stroke-width:1.5;" x="215.003269" xlink:href="#m9c80493e6c" y="27.513663"/>
     <use style="fill-opacity:0;stroke:#000080;stroke-width:1.5;" x="333.168" xlink:href="#m9c80493e6c" y="27.513663"/>
    </g>
   </g>
   <g id="line2d_45">
    <path style="fill:none;stroke:#000080;stroke-linecap:square;stroke-width:1.5;"/>
    <g/>
   </g>
   <g id="line2d_46">
    <defs>
     <path d="M 0 1.5 
C 0.397805 1.5 0.77937 1.341951 1.06066 1.06066 
C 1.341951 0.77937 1.5 0.397805 1.5 0 
C 1.5 -0.397805 1.341951 -0.77937 1.06066 -1.06066 
C 0.77937 -1.341951 0.397805 -1.5 0 -1.5 
C -0.397805 -1.5 -0.77937 -1.341951 -1.06066 -1.06066 
C -1.341951 -0.77937 -1.5 -0.397805 -1.5 0 
C -1.5 0.397805 -1.341951 0.77937 -1.06066 1.06066 
C -0.77937 1.341951 -0.397805 1.5 0 1.5 
z
" id="m36374ce8a3" style="stroke:#ff00ff;"/>
    </defs>
    <g>
     <use style="fill:#ff00ff;stroke:#ff00ff;" x="221.044632" xlink:href="#m36374ce8a3" y="27.513663"/>
     <use style="fill:#ff00ff;stroke:#ff00ff;" x="221.044632" xlink:href="#m36374ce8a3" y="27.513663"/>
    </g>
   </g>
   <g id="line2d_47">
    <path d="M 155.57038 294.88 
L 155.57038 293.831505 
L 155.819286 293.831505 
L 155.819286 293.307257 
L 156.32423 293.307257 
L 156.409896 290.686018 
L 156.736028 290.686018 
L 156.736028 290.161771 
L 156.932191 290.161771 
L 156.932191 289.113275 
L 157.060928 289.113275 
L 157.060928 288.589027 
L 157.653165 288.589027 
L 157.655502 286.492036 
L 158.048376 286.492036 
L 158.048376 285.443541 
L 158.225674 285.443541 
L 158.225674 284.919293 
L 158.372038 284.919293 
L 158.372038 284.395046 
L 158.548264 284.395046 
L 158.614715 283.34655 
L 158.895388 283.34655 
L 158.895388 282.822302 
L 159.016756 282.822302 
L 159.066356 280.201064 
L 159.267595 280.201064 
L 159.329207 277.579825 
L 159.422267 277.579825 
L 159.430702 276.007082 
L 159.644411 276.007082 
L 159.731642 274.434339 
L 159.762689 274.434339 
L 159.841091 273.385844 
L 159.93757 273.385844 
L 159.968248 272.337348 
L 160.057921 272.337348 
L 160.143083 269.716109 
L 160.415988 269.716109 
L 160.419969 268.143366 
L 160.550833 268.143366 
L 160.596203 267.094871 
L 160.821278 267.094871 
L 160.896944 263.425137 
L 161.026161 263.425137 
L 161.026161 262.900889 
L 161.192513 262.900889 
L 161.283609 260.803898 
L 161.713534 260.803898 
L 161.80559 259.231155 
L 161.970058 259.231155 
L 161.970058 257.134164 
L 162.105923 257.134164 
L 162.105923 256.609917 
L 162.308619 256.609917 
L 162.369143 254.512926 
L 162.487789 254.512926 
L 162.487789 253.988678 
L 162.661617 253.988678 
L 162.661617 252.940182 
L 162.821593 252.940182 
L 162.821593 251.891687 
L 163.181273 251.891687 
L 163.213447 250.843192 
L 163.292778 250.843192 
L 163.292778 250.318944 
L 163.418617 250.318944 
L 163.418617 249.794696 
L 163.553495 249.794696 
L 163.553495 249.270448 
L 163.690615 249.270448 
L 163.690615 248.746201 
L 163.963236 248.746201 
L 163.98266 247.173458 
L 164.074626 247.173458 
L 164.185298 245.076467 
L 164.605401 245.076467 
L 164.605401 242.979476 
L 164.791612 242.979476 
L 164.791612 242.455228 
L 164.925364 242.455228 
L 165.035274 239.309742 
L 165.313003 239.309742 
L 165.313003 238.261246 
L 165.527269 238.261246 
L 165.527269 237.736999 
L 165.820497 237.736999 
L 165.882893 235.11576 
L 166.347305 235.11576 
L 166.372663 234.067265 
L 167.088184 234.067265 
L 167.183793 232.494521 
L 167.32555 232.494521 
L 167.32555 231.970274 
L 167.841149 231.970274 
L 167.841149 231.446026 
L 168.105358 231.446026 
L 168.105358 229.873283 
L 168.74251 229.873283 
L 168.74251 229.349035 
L 169.185628 229.349035 
L 169.185628 228.824787 
L 169.511213 228.824787 
L 169.511213 228.30054 
L 171.109329 228.30054 
L 171.109329 227.252044 
L 171.600256 227.252044 
L 171.600256 226.727797 
L 172.314305 226.727797 
L 172.314305 226.203549 
L 177.87302 226.203549 
L 177.87302 225.679301 
L 179.736649 225.679301 
L 179.736649 225.155053 
L 179.885447 225.155053 
L 179.885447 224.106558 
L 180.812426 224.106558 
L 180.812426 223.58231 
L 181.785816 223.58231 
L 181.785816 222.009567 
L 182.187642 222.009567 
L 182.187642 221.485319 
L 183.560144 221.485319 
L 183.560144 220.961072 
L 184.362537 220.961072 
L 184.362537 220.436824 
L 184.824856 220.436824 
L 184.824856 219.912576 
L 185.416509 219.912576 
L 185.416509 218.339833 
L 186.533739 218.339833 
L 186.533739 217.291338 
L 186.938013 217.291338 
L 186.938013 216.76709 
L 187.168788 216.76709 
L 187.168788 216.242842 
L 187.429205 216.242842 
L 187.429205 215.194347 
L 188.047741 215.194347 
L 188.047741 214.670099 
L 188.24171 214.670099 
L 188.24171 213.621604 
L 189.202784 213.621604 
L 189.215088 212.04886 
L 189.692193 212.04886 
L 189.692193 211.524613 
L 190.173693 211.524613 
L 190.173693 211.000365 
L 190.672573 211.000365 
L 190.672573 210.476117 
L 191.342469 210.476117 
L 191.342469 209.95187 
L 191.637309 209.95187 
L 191.637309 209.427622 
L 192.105145 209.427622 
L 192.105145 208.379126 
L 192.827561 208.379126 
L 192.827561 207.854879 
L 192.972845 207.854879 
L 192.972845 207.330631 
L 193.107998 207.330631 
L 193.121366 205.757888 
L 193.489764 205.757888 
L 193.489764 205.23364 
L 193.880291 205.23364 
L 193.880291 204.709392 
L 194.419534 204.709392 
L 194.480279 203.660897 
L 194.620733 203.660897 
L 194.620733 203.136649 
L 194.745466 203.136649 
L 194.745466 202.612401 
L 195.238163 202.612401 
L 195.238163 202.088154 
L 195.746977 202.088154 
L 195.857243 201.039658 
L 195.874202 201.039658 
L 195.874202 200.515411 
L 196.318999 200.515411 
L 196.318999 199.991163 
L 196.491694 199.991163 
L 196.491694 199.466915 
L 196.73646 199.466915 
L 196.840098 198.41842 
L 196.909558 198.41842 
L 196.969959 196.321429 
L 197.166567 196.321429 
L 197.195877 193.70019 
L 197.478656 193.70019 
L 197.478656 193.175943 
L 197.750735 193.175943 
L 197.810064 190.554704 
L 197.972731 190.554704 
L 197.972731 190.030456 
L 198.197201 190.030456 
L 198.197201 189.506209 
L 198.526227 189.506209 
L 198.56651 186.88497 
L 198.658848 186.88497 
L 198.75754 184.787979 
L 198.880326 184.787979 
L 198.880326 184.263731 
L 199.228734 184.263731 
L 199.235185 182.690988 
L 199.389708 182.690988 
L 199.389708 181.118245 
L 199.550211 181.118245 
L 199.64657 180.06975 
L 199.811344 180.06975 
L 199.854349 178.497006 
L 199.949023 178.497006 
L 199.949023 177.972759 
L 200.158524 177.972759 
L 200.226616 175.35152 
L 200.432005 175.35152 
L 200.52684 174.303025 
L 200.701203 174.303025 
L 200.807295 172.206034 
L 200.825324 172.206034 
L 200.825324 171.157538 
L 201.051451 171.157538 
L 201.138096 169.060547 
L 201.391219 169.060547 
L 201.486213 168.012052 
L 201.517762 168.012052 
L 201.573242 166.963557 
L 201.657302 166.963557 
L 201.718638 165.390813 
L 201.832072 165.390813 
L 201.832072 164.342318 
L 201.99906 164.342318 
L 202.032335 163.293823 
L 202.16181 163.293823 
L 202.16181 162.245327 
L 202.320773 162.245327 
L 202.320773 161.721079 
L 202.616247 161.721079 
L 202.658752 160.672584 
L 202.741074 160.672584 
L 202.809149 159.099841 
L 203.021626 159.099841 
L 203.095917 158.051345 
L 203.283868 158.051345 
L 203.331152 157.00285 
L 203.453353 157.00285 
L 203.555607 152.808868 
L 203.685064 152.808868 
L 203.735262 151.236125 
L 203.871006 151.236125 
L 203.966389 149.663382 
L 204.11913 149.663382 
L 204.225449 147.042143 
L 204.412442 147.042143 
L 204.443821 145.993648 
L 204.559914 145.993648 
L 204.559914 145.4694 
L 204.714605 145.4694 
L 204.807387 144.420905 
L 204.833697 144.420905 
L 204.91792 140.751171 
L 205.11605 140.751171 
L 205.186986 137.605684 
L 205.63842 137.605684 
L 205.692953 133.411703 
L 205.777771 133.411703 
L 205.777771 132.887455 
L 205.95672 132.887455 
L 206.024417 131.838959 
L 206.449728 131.838959 
L 206.52709 129.217721 
L 206.680238 129.217721 
L 206.774563 125.547987 
L 206.962337 125.547987 
L 207.007671 123.975244 
L 207.121669 123.975244 
L 207.209815 122.4025 
L 207.302587 122.4025 
L 207.302587 121.354005 
L 207.423183 121.354005 
L 207.423183 120.829757 
L 207.674223 120.829757 
L 207.740442 118.208519 
L 207.824595 118.208519 
L 207.900422 115.063032 
L 207.966153 115.063032 
L 207.966153 114.014537 
L 208.115866 114.014537 
L 208.115866 113.490289 
L 208.23325 113.490289 
L 208.23325 112.966042 
L 208.442761 112.966042 
L 208.442761 112.441794 
L 208.687248 112.441794 
L 208.688688 111.393298 
L 208.820831 111.393298 
L 208.89133 108.77206 
L 208.969336 108.77206 
L 208.969336 108.247812 
L 209.14313 108.247812 
L 209.201604 106.675069 
L 209.385762 106.675069 
L 209.479341 103.529583 
L 209.50901 103.529583 
L 209.610573 102.481087 
L 209.652506 102.481087 
L 209.652506 101.956839 
L 209.814276 101.956839 
L 209.814276 101.432592 
L 209.947671 101.432592 
L 210.054888 99.859849 
L 210.11322 99.859849 
L 210.202712 98.287105 
L 210.250244 98.287105 
L 210.279707 97.23861 
L 210.459549 97.23861 
L 210.460307 94.617371 
L 210.596751 94.617371 
L 210.63935 93.044628 
L 210.735212 93.044628 
L 210.765026 90.947637 
L 210.884192 90.947637 
L 210.971451 88.850646 
L 211.016068 88.850646 
L 211.097236 86.753656 
L 211.149228 86.753656 
L 211.206975 85.180912 
L 211.354612 85.180912 
L 211.448622 80.462683 
L 211.530423 80.462683 
L 211.640777 76.792949 
L 211.672797 76.792949 
L 211.768701 75.220206 
L 211.899265 75.220206 
L 211.922554 73.647463 
L 212.025682 73.647463 
L 212.061335 72.598967 
L 212.183141 72.598967 
L 212.183141 72.074719 
L 212.331986 72.074719 
L 212.431341 67.880738 
L 212.443503 67.880738 
L 212.519754 65.259499 
L 212.563024 65.259499 
L 212.575764 63.686756 
L 212.711194 63.686756 
L 212.797143 60.54127 
L 212.951001 60.54127 
L 212.994041 58.968526 
L 213.306571 58.968526 
L 213.306571 58.444279 
L 213.454318 58.444279 
L 213.493576 57.395783 
L 213.622441 57.395783 
L 213.626495 55.298792 
L 213.882812 55.298792 
L 213.911451 53.726049 
L 214.06465 53.726049 
L 214.165855 52.153306 
L 214.248233 52.153306 
L 214.249884 51.104811 
L 214.591662 51.104811 
L 214.691936 46.910829 
L 214.793396 46.910829 
L 214.793396 46.386581 
L 215.10407 46.386581 
L 215.10407 45.862334 
L 215.450833 45.862334 
L 215.556217 44.813838 
L 215.723739 44.813838 
L 215.723739 43.765343 
L 215.866888 43.765343 
L 215.866888 42.716847 
L 216.016303 42.716847 
L 216.049426 41.144104 
L 216.136043 41.144104 
L 216.136043 40.619856 
L 216.962113 40.619856 
L 216.962113 40.095609 
L 217.118375 40.095609 
L 217.118375 39.047113 
L 217.475155 39.047113 
L 217.475155 38.522865 
L 217.732431 38.522865 
L 217.758302 37.47437 
L 218.583422 37.47437 
L 218.583422 36.425875 
L 218.702764 36.425875 
L 218.702764 35.377379 
L 218.875061 35.377379 
L 218.875061 34.328884 
L 219.052088 34.328884 
L 219.052088 33.804636 
L 219.310212 33.804636 
L 219.310212 33.280388 
L 219.484501 33.280388 
L 219.484501 32.756141 
L 219.965892 32.756141 
L 219.965892 32.231893 
L 220.464085 32.231893 
L 220.464085 31.707645 
L 220.596456 31.707645 
L 220.596456 30.65915 
L 220.723762 30.65915 
L 220.723762 29.610654 
L 220.862316 29.610654 
L 220.862316 28.037911 
L 221.044632 28.037911 
L 221.044632 27.513663 
L 333.168 27.513663 
L 333.168 27.513663 
" style="fill:none;stroke:#ff00ff;stroke-linecap:square;stroke-width:1.5;"/>
   </g>
   <g id="line2d_48">
    <defs>
     <path d="M -0 8.485281 
L 5.091169 0 
L 0 -8.485281 
L -5.091169 -0 
z
" id="m6b71873440" style="stroke:#ff00ff;stroke-linejoin:miter;stroke-width:1.5;"/>
    </defs>
    <g>
     <use style="fill-opacity:0;stroke:#ff00ff;stroke-linejoin:miter;stroke-width:1.5;" x="166.372663" xlink:href="#m6b71873440" y="234.591512"/>
     <use style="fill-opacity:0;stroke:#ff00ff;stroke-linejoin:miter;stroke-width:1.5;" x="221.044632" xlink:href="#m6b71873440" y="28.037911"/>
     <use style="fill-opacity:0;stroke:#ff00ff;stroke-linejoin:miter;stroke-width:1.5;" x="221.044632" xlink:href="#m6b71873440" y="27.513663"/>
     <use style="fill-opacity:0;stroke:#ff00ff;stroke-linejoin:miter;stroke-width:1.5;" x="333.168" xlink:href="#m6b71873440" y="27.513663"/>
    </g>
   </g>
   <g id="line2d_49">
    <path style="fill:none;stroke:#ff00ff;stroke-linecap:square;stroke-width:1.5;"/>
    <g/>
   </g>
   <g id="line2d_50">
    <defs>
     <path d="M 0 1.5 
C 0.397805 1.5 0.77937 1.341951 1.06066 1.06066 
C 1.341951 0.77937 1.5 0.397805 1.5 0 
C 1.5 -0.397805 1.341951 -0.77937 1.06066 -1.06066 
C 0.77937 -1.341951 0.397805 -1.5 0 -1.5 
C -0.397805 -1.5 -0.77937 -1.341951 -1.06066 -1.06066 
C -1.341951 -0.77937 -1.5 -0.397805 -1.5 0 
C -1.5 0.397805 -1.341951 0.77937 -1.06066 1.06066 
C -0.77937 1.341951 -0.397805 1.5 0 1.5 
z
" id="m2600779688" style="stroke:#ffa500;"/>
    </defs>
    <g>
     <use style="fill:#ffa500;stroke:#ffa500;" x="187.00045" xlink:href="#m2600779688" y="27.513663"/>
     <use style="fill:#ffa500;stroke:#ffa500;" x="187.00045" xlink:href="#m2600779688" y="27.513663"/>
    </g>
   </g>
   <g id="line2d_51">
    <path d="M 130.917487 294.88 
L 130.994839 293.307257 
L 131.969962 293.307257 
L 131.969962 292.258761 
L 132.228442 292.258761 
L 132.228442 291.734514 
L 132.734027 291.734514 
L 132.783777 290.161771 
L 133.312097 290.161771 
L 133.408177 286.492036 
L 133.532283 286.492036 
L 133.532283 285.967789 
L 133.702657 285.967789 
L 133.702657 285.443541 
L 133.824662 285.443541 
L 133.824662 284.395046 
L 133.96437 284.395046 
L 134.010688 281.773807 
L 134.148898 281.773807 
L 134.148898 280.725312 
L 134.39491 280.725312 
L 134.485139 279.676816 
L 134.512116 279.676816 
L 134.512116 279.152568 
L 134.646368 279.152568 
L 134.673093 277.055578 
L 134.761877 277.055578 
L 134.832576 274.958587 
L 134.876616 274.958587 
L 134.938082 273.910091 
L 135.042944 273.910091 
L 135.10382 271.8131 
L 135.250769 271.8131 
L 135.336627 270.240357 
L 135.396473 270.240357 
L 135.396473 269.191862 
L 135.64221 269.191862 
L 135.726139 268.143366 
L 135.809661 268.143366 
L 135.892778 266.570623 
L 136.041384 266.570623 
L 136.041384 266.046375 
L 136.164248 266.046375 
L 136.213149 264.473632 
L 136.28624 264.473632 
L 136.383214 262.376641 
L 136.527657 262.376641 
L 136.527657 261.852394 
L 136.670897 261.852394 
L 136.67882 260.803898 
L 137.047134 260.803898 
L 137.155336 259.755403 
L 137.316373 259.755403 
L 137.324003 258.18266 
L 137.468351 258.18266 
L 137.573942 256.085669 
L 137.812884 256.085669 
L 137.916386 254.512926 
L 138.01194 254.512926 
L 138.01194 253.988678 
L 138.223203 253.988678 
L 138.25214 252.415935 
L 138.510405 252.415935 
L 138.510405 251.891687 
L 138.645163 251.891687 
L 138.645163 250.843192 
L 138.80689 250.843192 
L 138.869762 249.270448 
L 138.925457 249.270448 
L 138.925457 248.746201 
L 139.118978 248.746201 
L 139.160165 246.64921 
L 139.613502 246.64921 
L 139.613502 246.124962 
L 139.746542 246.124962 
L 139.746542 245.076467 
L 139.957287 245.076467 
L 139.983449 242.979476 
L 140.15901 242.979476 
L 140.15901 242.455228 
L 140.955391 242.455228 
L 140.955391 241.93098 
L 151.68397 241.93098 
L 151.68397 240.882485 
L 151.842057 240.882485 
L 151.842057 240.358237 
L 153.066156 240.358237 
L 153.066156 239.83399 
L 154.183116 239.83399 
L 154.183116 238.785494 
L 154.449964 238.785494 
L 154.449964 238.261246 
L 155.269542 238.261246 
L 155.269542 237.212751 
L 155.55718 237.212751 
L 155.55718 236.164255 
L 155.68349 236.164255 
L 155.68349 235.11576 
L 155.941109 235.11576 
L 156.013276 234.067265 
L 156.344425 234.067265 
L 156.344425 233.018769 
L 156.713819 233.018769 
L 156.713819 232.494521 
L 157.450915 232.494521 
L 157.526449 230.397531 
L 157.622744 230.397531 
L 157.622744 229.873283 
L 158.057513 229.873283 
L 158.057513 228.824787 
L 158.340618 228.824787 
L 158.340618 228.30054 
L 159.177971 228.30054 
L 159.259079 226.727797 
L 159.44756 226.727797 
L 159.44756 226.203549 
L 159.629829 226.203549 
L 159.725426 224.630806 
L 160.288102 224.630806 
L 160.288102 224.106558 
L 160.499399 224.106558 
L 160.499399 223.58231 
L 160.655203 223.58231 
L 160.690506 222.533815 
L 160.981912 222.533815 
L 160.993466 220.436824 
L 161.106669 220.436824 
L 161.127693 219.388328 
L 161.473727 219.388328 
L 161.473727 218.864081 
L 161.585682 218.864081 
L 161.650653 217.291338 
L 161.801917 217.291338 
L 161.801917 216.242842 
L 161.968239 216.242842 
L 161.990052 214.670099 
L 162.468366 214.670099 
L 162.468366 214.145851 
L 162.797345 214.145851 
L 162.797345 213.621604 
L 162.914804 213.621604 
L 162.914804 213.097356 
L 163.087796 213.097356 
L 163.087796 212.573108 
L 163.238805 212.573108 
L 163.238805 211.524613 
L 163.636229 211.524613 
L 163.733345 210.476117 
L 164.01014 210.476117 
L 164.01014 209.95187 
L 164.191692 209.95187 
L 164.250724 207.854879 
L 164.350773 207.854879 
L 164.350773 207.330631 
L 164.670805 207.330631 
L 164.670805 206.806383 
L 164.87936 206.806383 
L 164.972773 205.757888 
L 165.07631 205.757888 
L 165.149021 204.709392 
L 165.453173 204.709392 
L 165.453173 203.136649 
L 165.599574 203.136649 
L 165.695021 202.088154 
L 165.821951 202.088154 
L 165.821951 201.563906 
L 165.956605 201.563906 
L 165.963815 200.515411 
L 166.275253 200.515411 
L 166.296476 199.466915 
L 166.388142 199.466915 
L 166.414844 198.41842 
L 166.501691 198.41842 
L 166.570019 196.845677 
L 166.74586 196.845677 
L 166.839276 193.70019 
L 167.016466 193.70019 
L 167.016466 192.651695 
L 167.19319 192.651695 
L 167.296225 191.078952 
L 167.322886 191.078952 
L 167.405275 188.457713 
L 167.599052 188.457713 
L 167.599052 187.933465 
L 167.865689 187.933465 
L 167.931385 186.88497 
L 168.000674 186.88497 
L 168.09772 185.836474 
L 168.121896 185.836474 
L 168.121896 185.312227 
L 168.281368 185.312227 
L 168.281368 184.787979 
L 168.393125 184.787979 
L 168.393125 184.263731 
L 168.557551 184.263731 
L 168.58109 182.16674 
L 168.897567 182.16674 
L 168.965496 180.06975 
L 169.204741 180.06975 
L 169.216675 178.497006 
L 169.356885 178.497006 
L 169.439523 175.875768 
L 169.616443 175.875768 
L 169.647887 174.303025 
L 169.737245 174.303025 
L 169.773089 173.254529 
L 169.912288 173.254529 
L 169.929466 172.206034 
L 170.077625 172.206034 
L 170.136533 171.157538 
L 170.331074 171.157538 
L 170.400262 169.060547 
L 170.470281 169.060547 
L 170.577534 165.390813 
L 170.602867 165.390813 
L 170.625965 164.342318 
L 170.853083 164.342318 
L 170.892089 161.196832 
L 171.0601 161.196832 
L 171.074027 159.099841 
L 171.176524 159.099841 
L 171.219052 158.051345 
L 171.470986 158.051345 
L 171.568029 153.333116 
L 171.746076 153.333116 
L 171.746076 152.28462 
L 171.862053 152.28462 
L 171.927394 151.236125 
L 172.133018 151.236125 
L 172.227406 147.566391 
L 172.256421 147.566391 
L 172.256421 147.042143 
L 172.433451 147.042143 
L 172.478905 145.993648 
L 172.592018 145.993648 
L 172.628253 144.420905 
L 172.80345 144.420905 
L 172.8518 141.799666 
L 173.065803 141.799666 
L 173.065803 141.275418 
L 173.186499 141.275418 
L 173.267752 137.605684 
L 173.454306 137.605684 
L 173.454306 137.081437 
L 173.660982 137.081437 
L 173.771178 132.887455 
L 173.845162 132.887455 
L 173.938784 130.790464 
L 174.003927 130.790464 
L 174.078717 129.741969 
L 174.208598 129.741969 
L 174.27184 127.644978 
L 174.324216 127.644978 
L 174.373781 125.023739 
L 174.607285 125.023739 
L 174.700326 123.450996 
L 174.734979 123.450996 
L 174.840241 120.829757 
L 175.003751 120.829757 
L 175.055646 119.257014 
L 175.147143 119.257014 
L 175.17669 117.160023 
L 175.283481 117.160023 
L 175.367938 111.393298 
L 175.438696 111.393298 
L 175.494265 109.296308 
L 175.553781 109.296308 
L 175.629531 105.626573 
L 175.690219 105.626573 
L 175.793876 103.529583 
L 175.85642 103.529583 
L 175.960694 101.432592 
L 176.049915 101.432592 
L 176.049915 100.908344 
L 176.249975 100.908344 
L 176.323514 97.762858 
L 176.425785 97.762858 
L 176.504043 94.093124 
L 176.57806 94.093124 
L 176.57806 93.568876 
L 176.748254 93.568876 
L 176.821995 92.520381 
L 176.909154 92.520381 
L 176.912967 90.947637 
L 177.062517 90.947637 
L 177.084422 89.374894 
L 177.221264 89.374894 
L 177.246708 88.326399 
L 177.52045 88.326399 
L 177.612933 86.229408 
L 177.63488 86.229408 
L 177.727478 84.656665 
L 177.787727 84.656665 
L 177.879508 83.083922 
L 177.917665 83.083922 
L 177.917665 82.559674 
L 178.035919 82.559674 
L 178.109328 80.986931 
L 178.198704 80.986931 
L 178.295359 79.938435 
L 178.388675 79.938435 
L 178.459898 76.268701 
L 178.624948 76.268701 
L 178.701387 74.17171 
L 178.756267 74.17171 
L 178.756267 73.647463 
L 178.959847 73.647463 
L 178.991629 72.074719 
L 179.112138 72.074719 
L 179.112138 71.550472 
L 179.225145 71.550472 
L 179.225145 70.501976 
L 179.345357 70.501976 
L 179.345357 69.453481 
L 179.746351 69.453481 
L 179.757339 68.404985 
L 179.931564 68.404985 
L 179.969262 67.35649 
L 180.058385 67.35649 
L 180.08313 65.783747 
L 180.193729 65.783747 
L 180.193729 64.735251 
L 180.558364 64.735251 
L 180.64081 62.638261 
L 180.794793 62.638261 
L 180.877932 60.017022 
L 180.93233 60.017022 
L 181.035215 57.920031 
L 181.095097 57.920031 
L 181.133909 56.871536 
L 181.24686 56.871536 
L 181.324306 54.774545 
L 181.383191 54.774545 
L 181.383191 53.201802 
L 181.531277 53.201802 
L 181.531277 52.677554 
L 181.788113 52.677554 
L 181.788113 52.153306 
L 181.902563 52.153306 
L 181.902563 51.629058 
L 182.044563 51.629058 
L 182.051915 50.580563 
L 182.176981 50.580563 
L 182.264324 47.959324 
L 182.383423 47.959324 
L 182.383423 47.435077 
L 182.531971 47.435077 
L 182.531971 46.386581 
L 182.666703 46.386581 
L 182.692324 45.338086 
L 182.822567 45.338086 
L 182.881933 43.765343 
L 183.001659 43.765343 
L 183.112584 42.716847 
L 183.118431 42.716847 
L 183.121619 41.144104 
L 183.244441 41.144104 
L 183.33441 39.047113 
L 183.508794 39.047113 
L 183.508794 37.998618 
L 183.70712 37.998618 
L 183.792663 35.901627 
L 183.995335 35.901627 
L 183.995335 35.377379 
L 184.217593 35.377379 
L 184.217593 34.853131 
L 184.64735 34.853131 
L 184.64735 34.328884 
L 184.777635 34.328884 
L 184.805598 32.756141 
L 184.970992 32.756141 
L 184.970992 31.707645 
L 185.14662 31.707645 
L 185.250203 30.65915 
L 185.541575 30.65915 
L 185.541575 30.134902 
L 186.086224 30.134902 
L 186.086224 29.610654 
L 186.289358 29.610654 
L 186.289358 29.086407 
L 186.703236 29.086407 
L 186.703236 28.562159 
L 187.00045 28.562159 
L 187.00045 27.513663 
L 333.168 27.513663 
L 333.168 27.513663 
" style="fill:none;stroke:#ffa500;stroke-linecap:square;stroke-width:1.5;"/>
   </g>
   <g id="line2d_52">
    <defs>
     <path d="M 0 -6 
L -1.347084 -1.854102 
L -5.706339 -1.854102 
L -2.179628 0.708204 
L -3.526712 4.854102 
L -0 2.291796 
L 3.526712 4.854102 
L 2.179628 0.708204 
L 5.706339 -1.854102 
L 1.347084 -1.854102 
z
" id="m3a3583bc4c" style="stroke:#ffa500;stroke-linejoin:bevel;stroke-width:1.5;"/>
    </defs>
    <g>
     <use style="fill-opacity:0;stroke:#ffa500;stroke-linejoin:bevel;stroke-width:1.5;" x="174.208598" xlink:href="#m3a3583bc4c" y="129.217721"/>
     <use style="fill-opacity:0;stroke:#ffa500;stroke-linejoin:bevel;stroke-width:1.5;" x="187.00045" xlink:href="#m3a3583bc4c" y="28.562159"/>
     <use style="fill-opacity:0;stroke:#ffa500;stroke-linejoin:bevel;stroke-width:1.5;" x="187.00045" xlink:href="#m3a3583bc4c" y="27.513663"/>
     <use style="fill-opacity:0;stroke:#ffa500;stroke-linejoin:bevel;stroke-width:1.5;" x="187.00045" xlink:href="#m3a3583bc4c" y="27.513663"/>
     <use style="fill-opacity:0;stroke:#ffa500;stroke-linejoin:bevel;stroke-width:1.5;" x="333.168" xlink:href="#m3a3583bc4c" y="27.513663"/>
    </g>
   </g>
   <g id="line2d_53">
    <path style="fill:none;stroke:#ffa500;stroke-linecap:square;stroke-width:1.5;"/>
    <g/>
   </g>
   <g id="line2d_54">
    <path d="M 333.168 27.513663 
L 363.64328 289.532673 
" style="fill:none;stroke:#ff00ff;stroke-linecap:square;stroke-width:1.5;"/>
    <g>
     <use style="fill-opacity:0;stroke:#ff00ff;stroke-linejoin:miter;stroke-width:1.5;" x="333.168" xlink:href="#m6b71873440" y="27.513663"/>
     <use style="fill-opacity:0;stroke:#ff00ff;stroke-linejoin:miter;stroke-width:1.5;" x="363.64328" xlink:href="#m6b71873440" y="289.532673"/>
    </g>
   </g>
   <g id="line2d_55">
    <path d="M 333.168 27.513663 
L 363.64328 203.975446 
" style="fill:none;stroke:#000080;stroke-linecap:square;stroke-width:1.5;"/>
    <g>
     <use style="fill-opacity:0;stroke:#000080;stroke-width:1.5;" x="333.168" xlink:href="#m9c80493e6c" y="27.513663"/>
     <use style="fill-opacity:0;stroke:#000080;stroke-width:1.5;" x="363.64328" xlink:href="#m9c80493e6c" y="203.975446"/>
    </g>
   </g>
   <g id="line2d_56">
    <path d="M 333.168 27.513663 
L 363.64328 118.418218 
" style="fill:none;stroke:#ffa500;stroke-linecap:square;stroke-width:1.5;"/>
    <g>
     <use style="fill-opacity:0;stroke:#ffa500;stroke-linejoin:bevel;stroke-width:1.5;" x="333.168" xlink:href="#m3a3583bc4c" y="27.513663"/>
     <use style="fill-opacity:0;stroke:#ffa500;stroke-linejoin:bevel;stroke-width:1.5;" x="363.64328" xlink:href="#m3a3583bc4c" y="118.418218"/>
    </g>
   </g>
   <g id="line2d_57">
    <path d="M 333.168 294.88 
L 333.168 27.513663 
" style="fill:none;stroke:#000000;stroke-linecap:square;stroke-width:1.5;"/>
   </g>
   <g id="patch_3">
    <path d="M 56.12 294.88 
L 56.12 24.84 
" style="fill:none;stroke:#000000;stroke-linecap:square;stroke-linejoin:miter;stroke-width:0.8;"/>
   </g>
   <g id="patch_4">
    <path d="M 333.168 294.88 
L 333.168 24.84 
" style="fill:none;stroke:#000000;stroke-linecap:square;stroke-linejoin:miter;stroke-width:0.8;"/>
   </g>
   <g id="patch_5">
    <path d="M 56.12 294.88 
L 333.168 294.88 
" style="fill:none;stroke:#000000;stroke-linecap:square;stroke-linejoin:miter;stroke-width:0.8;"/>
   </g>
   <g id="patch_6">
    <path d="M 56.12 24.84 
L 333.168 24.84 
" style="fill:none;stroke:#000000;stroke-linecap:square;stroke-linejoin:miter;stroke-width:0.8;"/>
   </g>
   <g id="text_13">
    <!-- R-SHADE-T -->
    <defs>
     <path d="M 44.390625 34.1875 
Q 47.5625 33.109375 50.5625 29.59375 
Q 53.5625 26.078125 56.59375 19.921875 
L 66.609375 0 
L 56 0 
L 46.6875 18.703125 
Q 43.0625 26.03125 39.671875 28.421875 
Q 36.28125 30.8125 30.421875 30.8125 
L 19.671875 30.8125 
L 19.671875 0 
L 9.8125 0 
L 9.8125 72.90625 
L 32.078125 72.90625 
Q 44.578125 72.90625 50.734375 67.671875 
Q 56.890625 62.453125 56.890625 51.90625 
Q 56.890625 45.015625 53.6875 40.46875 
Q 50.484375 35.9375 44.390625 34.1875 
z
M 19.671875 64.796875 
L 19.671875 38.921875 
L 32.078125 38.921875 
Q 39.203125 38.921875 42.84375 42.21875 
Q 46.484375 45.515625 46.484375 51.90625 
Q 46.484375 58.296875 42.84375 61.546875 
Q 39.203125 64.796875 32.078125 64.796875 
z
" id="DejaVuSans-52"/>
     <path d="M 53.515625 70.515625 
L 53.515625 60.890625 
Q 47.90625 63.578125 42.921875 64.890625 
Q 37.9375 66.21875 33.296875 66.21875 
Q 25.25 66.21875 20.875 63.09375 
Q 16.5 59.96875 16.5 54.203125 
Q 16.5 49.359375 19.40625 46.890625 
Q 22.3125 44.4375 30.421875 42.921875 
L 36.375 41.703125 
Q 47.40625 39.59375 52.65625 34.296875 
Q 57.90625 29 57.90625 20.125 
Q 57.90625 9.515625 50.796875 4.046875 
Q 43.703125 -1.421875 29.984375 -1.421875 
Q 24.8125 -1.421875 18.96875 -0.25 
Q 13.140625 0.921875 6.890625 3.21875 
L 6.890625 13.375 
Q 12.890625 10.015625 18.65625 8.296875 
Q 24.421875 6.59375 29.984375 6.59375 
Q 38.421875 6.59375 43.015625 9.90625 
Q 47.609375 13.234375 47.609375 19.390625 
Q 47.609375 24.75 44.3125 27.78125 
Q 41.015625 30.8125 33.5 32.328125 
L 27.484375 33.5 
Q 16.453125 35.6875 11.515625 40.375 
Q 6.59375 45.0625 6.59375 53.421875 
Q 6.59375 63.09375 13.40625 68.65625 
Q 20.21875 74.21875 32.171875 74.21875 
Q 37.3125 74.21875 42.625 73.28125 
Q 47.953125 72.359375 53.515625 70.515625 
z
" id="DejaVuSans-53"/>
     <path d="M 9.8125 72.90625 
L 19.671875 72.90625 
L 19.671875 43.015625 
L 55.515625 43.015625 
L 55.515625 72.90625 
L 65.375 72.90625 
L 65.375 0 
L 55.515625 0 
L 55.515625 34.71875 
L 19.671875 34.71875 
L 19.671875 0 
L 9.8125 0 
z
" id="DejaVuSans-48"/>
     <path d="M 34.1875 63.1875 
L 20.796875 26.90625 
L 47.609375 26.90625 
z
M 28.609375 72.90625 
L 39.796875 72.90625 
L 67.578125 0 
L 57.328125 0 
L 50.6875 18.703125 
L 17.828125 18.703125 
L 11.1875 0 
L 0.78125 0 
z
" id="DejaVuSans-41"/>
     <path d="M 19.671875 64.796875 
L 19.671875 8.109375 
L 31.59375 8.109375 
Q 46.6875 8.109375 53.6875 14.9375 
Q 60.6875 21.78125 60.6875 36.53125 
Q 60.6875 51.171875 53.6875 57.984375 
Q 46.6875 64.796875 31.59375 64.796875 
z
M 9.8125 72.90625 
L 30.078125 72.90625 
Q 51.265625 72.90625 61.171875 64.09375 
Q 71.09375 55.28125 71.09375 36.53125 
Q 71.09375 17.671875 61.125 8.828125 
Q 51.171875 0 30.078125 0 
L 9.8125 0 
z
" id="DejaVuSans-44"/>
     <path d="M 9.8125 72.90625 
L 55.90625 72.90625 
L 55.90625 64.59375 
L 19.671875 64.59375 
L 19.671875 43.015625 
L 54.390625 43.015625 
L 54.390625 34.71875 
L 19.671875 34.71875 
L 19.671875 8.296875 
L 56.78125 8.296875 
L 56.78125 0 
L 9.8125 0 
z
" id="DejaVuSans-45"/>
     <path d="M -0.296875 72.90625 
L 61.375 72.90625 
L 61.375 64.59375 
L 35.5 64.59375 
L 35.5 0 
L 25.59375 0 
L 25.59375 64.59375 
L -0.296875 64.59375 
z
" id="DejaVuSans-54"/>
    </defs>
    <g transform="translate(369.18424 294.223611)scale(0.17 -0.17)">
     <use xlink:href="#DejaVuSans-52"/>
     <use x="69.419922" xlink:href="#DejaVuSans-2d"/>
     <use x="105.503906" xlink:href="#DejaVuSans-53"/>
     <use x="168.980469" xlink:href="#DejaVuSans-48"/>
     <use x="244.175781" xlink:href="#DejaVuSans-41"/>
     <use x="312.583984" xlink:href="#DejaVuSans-44"/>
     <use x="389.585938" xlink:href="#DejaVuSans-45"/>
     <use x="452.769531" xlink:href="#DejaVuSans-2d"/>
     <use x="488.712891" xlink:href="#DejaVuSans-54"/>
    </g>
   </g>
   <g id="text_14">
    <!-- SHADE2-BL -->
    <defs>
     <path d="M 19.671875 34.8125 
L 19.671875 8.109375 
L 35.5 8.109375 
Q 43.453125 8.109375 47.28125 11.40625 
Q 51.125 14.703125 51.125 21.484375 
Q 51.125 28.328125 47.28125 31.5625 
Q 43.453125 34.8125 35.5 34.8125 
z
M 19.671875 64.796875 
L 19.671875 42.828125 
L 34.28125 42.828125 
Q 41.5 42.828125 45.03125 45.53125 
Q 48.578125 48.25 48.578125 53.8125 
Q 48.578125 59.328125 45.03125 62.0625 
Q 41.5 64.796875 34.28125 64.796875 
z
M 9.8125 72.90625 
L 35.015625 72.90625 
Q 46.296875 72.90625 52.390625 68.21875 
Q 58.5 63.53125 58.5 54.890625 
Q 58.5 48.1875 55.375 44.234375 
Q 52.25 40.28125 46.1875 39.3125 
Q 53.46875 37.75 57.5 32.78125 
Q 61.53125 27.828125 61.53125 20.40625 
Q 61.53125 10.640625 54.890625 5.3125 
Q 48.25 0 35.984375 0 
L 9.8125 0 
z
" id="DejaVuSans-42"/>
     <path d="M 9.8125 72.90625 
L 19.671875 72.90625 
L 19.671875 8.296875 
L 55.171875 8.296875 
L 55.171875 0 
L 9.8125 0 
z
" id="DejaVuSans-4c"/>
    </defs>
    <g transform="translate(369.18424 208.666383)scale(0.17 -0.17)">
     <use xlink:href="#DejaVuSans-53"/>
     <use x="63.476562" xlink:href="#DejaVuSans-48"/>
     <use x="138.671875" xlink:href="#DejaVuSans-41"/>
     <use x="207.080078" xlink:href="#DejaVuSans-44"/>
     <use x="284.082031" xlink:href="#DejaVuSans-45"/>
     <use x="347.265625" xlink:href="#DejaVuSans-32"/>
     <use x="410.888672" xlink:href="#DejaVuSans-2d"/>
     <use x="446.925781" xlink:href="#DejaVuSans-42"/>
     <use x="515.529297" xlink:href="#DejaVuSans-4c"/>
    </g>
   </g>
   <g id="text_15">
    <!-- KL-BIPOP- -->
    <defs>
     <path d="M 9.8125 72.90625 
L 19.671875 72.90625 
L 19.671875 42.09375 
L 52.390625 72.90625 
L 65.09375 72.90625 
L 28.90625 38.921875 
L 67.671875 0 
L 54.6875 0 
L 19.671875 35.109375 
L 19.671875 0 
L 9.8125 0 
z
" id="DejaVuSans-4b"/>
     <path d="M 9.8125 72.90625 
L 19.671875 72.90625 
L 19.671875 0 
L 9.8125 0 
z
" id="DejaVuSans-49"/>
     <path d="M 19.671875 64.796875 
L 19.671875 37.40625 
L 32.078125 37.40625 
Q 38.96875 37.40625 42.71875 40.96875 
Q 46.484375 44.53125 46.484375 51.125 
Q 46.484375 57.671875 42.71875 61.234375 
Q 38.96875 64.796875 32.078125 64.796875 
z
M 9.8125 72.90625 
L 32.078125 72.90625 
Q 44.34375 72.90625 50.609375 67.359375 
Q 56.890625 61.8125 56.890625 51.125 
Q 56.890625 40.328125 50.609375 34.8125 
Q 44.34375 29.296875 32.078125 29.296875 
L 19.671875 29.296875 
L 19.671875 0 
L 9.8125 0 
z
" id="DejaVuSans-50"/>
     <path d="M 39.40625 66.21875 
Q 28.65625 66.21875 22.328125 58.203125 
Q 16.015625 50.203125 16.015625 36.375 
Q 16.015625 22.609375 22.328125 14.59375 
Q 28.65625 6.59375 39.40625 6.59375 
Q 50.140625 6.59375 56.421875 14.59375 
Q 62.703125 22.609375 62.703125 36.375 
Q 62.703125 50.203125 56.421875 58.203125 
Q 50.140625 66.21875 39.40625 66.21875 
z
M 39.40625 74.21875 
Q 54.734375 74.21875 63.90625 63.9375 
Q 73.09375 53.65625 73.09375 36.375 
Q 73.09375 19.140625 63.90625 8.859375 
Q 54.734375 -1.421875 39.40625 -1.421875 
Q 24.03125 -1.421875 14.8125 8.828125 
Q 5.609375 19.09375 5.609375 36.375 
Q 5.609375 53.65625 14.8125 63.9375 
Q 24.03125 74.21875 39.40625 74.21875 
z
" id="DejaVuSans-4f"/>
    </defs>
    <g transform="translate(369.18424 123.109155)scale(0.17 -0.17)">
     <use xlink:href="#DejaVuSans-4b"/>
     <use x="65.576172" xlink:href="#DejaVuSans-4c"/>
     <use x="121.273438" xlink:href="#DejaVuSans-2d"/>
     <use x="157.310547" xlink:href="#DejaVuSans-42"/>
     <use x="225.914062" xlink:href="#DejaVuSans-49"/>
     <use x="255.40625" xlink:href="#DejaVuSans-50"/>
     <use x="315.708984" xlink:href="#DejaVuSans-4f"/>
     <use x="394.419922" xlink:href="#DejaVuSans-50"/>
     <use x="454.691406" xlink:href="#DejaVuSans-2d"/>
    </g>
   </g>
   <g id="text_16">
    <!-- best 2009 -->
    <defs>
     <path d="M 48.6875 27.296875 
Q 48.6875 37.203125 44.609375 42.84375 
Q 40.53125 48.484375 33.40625 48.484375 
Q 26.265625 48.484375 22.1875 42.84375 
Q 18.109375 37.203125 18.109375 27.296875 
Q 18.109375 17.390625 22.1875 11.75 
Q 26.265625 6.109375 33.40625 6.109375 
Q 40.53125 6.109375 44.609375 11.75 
Q 48.6875 17.390625 48.6875 27.296875 
z
M 18.109375 46.390625 
Q 20.953125 51.265625 25.265625 53.625 
Q 29.59375 56 35.59375 56 
Q 45.5625 56 51.78125 48.09375 
Q 58.015625 40.1875 58.015625 27.296875 
Q 58.015625 14.40625 51.78125 6.484375 
Q 45.5625 -1.421875 35.59375 -1.421875 
Q 29.59375 -1.421875 25.265625 0.953125 
Q 20.953125 3.328125 18.109375 8.203125 
L 18.109375 0 
L 9.078125 0 
L 9.078125 75.984375 
L 18.109375 75.984375 
z
" id="DejaVuSans-62"/>
     <path d="M 10.984375 1.515625 
L 10.984375 10.5 
Q 14.703125 8.734375 18.5 7.8125 
Q 22.3125 6.890625 25.984375 6.890625 
Q 35.75 6.890625 40.890625 13.453125 
Q 46.046875 20.015625 46.78125 33.40625 
Q 43.953125 29.203125 39.59375 26.953125 
Q 35.25 24.703125 29.984375 24.703125 
Q 19.046875 24.703125 12.671875 31.3125 
Q 6.296875 37.9375 6.296875 49.421875 
Q 6.296875 60.640625 12.9375 67.421875 
Q 19.578125 74.21875 30.609375 74.21875 
Q 43.265625 74.21875 49.921875 64.515625 
Q 56.59375 54.828125 56.59375 36.375 
Q 56.59375 19.140625 48.40625 8.859375 
Q 40.234375 -1.421875 26.421875 -1.421875 
Q 22.703125 -1.421875 18.890625 -0.6875 
Q 15.09375 0.046875 10.984375 1.515625 
z
M 30.609375 32.421875 
Q 37.25 32.421875 41.125 36.953125 
Q 45.015625 41.5 45.015625 49.421875 
Q 45.015625 57.28125 41.125 61.84375 
Q 37.25 66.40625 30.609375 66.40625 
Q 23.96875 66.40625 20.09375 61.84375 
Q 16.21875 57.28125 16.21875 49.421875 
Q 16.21875 41.5 20.09375 36.953125 
Q 23.96875 32.421875 30.609375 32.421875 
z
" id="DejaVuSans-39"/>
    </defs>
    <g transform="translate(369.18424 37.551928)scale(0.17 -0.17)">
     <use xlink:href="#DejaVuSans-62"/>
     <use x="63.476562" xlink:href="#DejaVuSans-65"/>
     <use x="125" xlink:href="#DejaVuSans-73"/>
     <use x="177.099609" xlink:href="#DejaVuSans-74"/>
     <use x="216.308594" xlink:href="#DejaVuSans-20"/>
     <use x="248.095703" xlink:href="#DejaVuSans-32"/>
     <use x="311.71875" xlink:href="#DejaVuSans-30"/>
     <use x="375.341797" xlink:href="#DejaVuSans-30"/>
     <use x="438.964844" xlink:href="#DejaVuSans-39"/>
    </g>
   </g>
   <g id="text_17">
    <!-- bbob f12, 20-D -->
    <g transform="translate(58.89048 35.290806)scale(0.102 -0.102)">
     <use xlink:href="#DejaVuSans-62"/>
     <use x="63.476562" xlink:href="#DejaVuSans-62"/>
     <use x="126.953125" xlink:href="#DejaVuSans-6f"/>
     <use x="188.134766" xlink:href="#DejaVuSans-62"/>
     <use x="251.611328" xlink:href="#DejaVuSans-20"/>
     <use x="283.398438" xlink:href="#DejaVuSans-66"/>
     <use x="318.603516" xlink:href="#DejaVuSans-31"/>
     <use x="382.226562" xlink:href="#DejaVuSans-32"/>
     <use x="445.849609" xlink:href="#DejaVuSans-2c"/>
     <use x="477.636719" xlink:href="#DejaVuSans-20"/>
     <use x="509.423828" xlink:href="#DejaVuSans-32"/>
     <use x="573.046875" xlink:href="#DejaVuSans-30"/>
     <use x="636.669922" xlink:href="#DejaVuSans-2d"/>
     <use x="672.753906" xlink:href="#DejaVuSans-44"/>
    </g>
    <!-- 51 targets: 100..1e-08 -->
    <defs>
     <path d="M 10.796875 72.90625 
L 49.515625 72.90625 
L 49.515625 64.59375 
L 19.828125 64.59375 
L 19.828125 46.734375 
Q 21.96875 47.46875 24.109375 47.828125 
Q 26.265625 48.1875 28.421875 48.1875 
Q 40.625 48.1875 47.75 41.5 
Q 54.890625 34.8125 54.890625 23.390625 
Q 54.890625 11.625 47.5625 5.09375 
Q 40.234375 -1.421875 26.90625 -1.421875 
Q 22.3125 -1.421875 17.546875 -0.640625 
Q 12.796875 0.140625 7.71875 1.703125 
L 7.71875 11.625 
Q 12.109375 9.234375 16.796875 8.0625 
Q 21.484375 6.890625 26.703125 6.890625 
Q 35.15625 6.890625 40.078125 11.328125 
Q 45.015625 15.765625 45.015625 23.390625 
Q 45.015625 31 40.078125 35.4375 
Q 35.15625 39.890625 26.703125 39.890625 
Q 22.75 39.890625 18.8125 39.015625 
Q 14.890625 38.140625 10.796875 36.28125 
z
" id="DejaVuSans-35"/>
     <path d="M 11.71875 12.40625 
L 22.015625 12.40625 
L 22.015625 0 
L 11.71875 0 
z
M 11.71875 51.703125 
L 22.015625 51.703125 
L 22.015625 39.3125 
L 11.71875 39.3125 
z
" id="DejaVuSans-3a"/>
    </defs>
    <g transform="translate(58.89048 46.712575)scale(0.102 -0.102)">
     <use xlink:href="#DejaVuSans-35"/>
     <use x="63.623047" xlink:href="#DejaVuSans-31"/>
     <use x="127.246094" xlink:href="#DejaVuSans-20"/>
     <use x="159.033203" xlink:href="#DejaVuSans-74"/>
     <use x="198.242188" xlink:href="#DejaVuSans-61"/>
     <use x="259.521484" xlink:href="#DejaVuSans-72"/>
     <use x="300.619141" xlink:href="#DejaVuSans-67"/>
     <use x="364.095703" xlink:href="#DejaVuSans-65"/>
     <use x="425.619141" xlink:href="#DejaVuSans-74"/>
     <use x="464.828125" xlink:href="#DejaVuSans-73"/>
     <use x="516.927734" xlink:href="#DejaVuSans-3a"/>
     <use x="550.619141" xlink:href="#DejaVuSans-20"/>
     <use x="582.40625" xlink:href="#DejaVuSans-31"/>
     <use x="646.029297" xlink:href="#DejaVuSans-30"/>
     <use x="709.652344" xlink:href="#DejaVuSans-30"/>
     <use x="773.275391" xlink:href="#DejaVuSans-2e"/>
     <use x="805.0625" xlink:href="#DejaVuSans-2e"/>
     <use x="836.849609" xlink:href="#DejaVuSans-31"/>
     <use x="900.472656" xlink:href="#DejaVuSans-65"/>
     <use x="961.996094" xlink:href="#DejaVuSans-2d"/>
     <use x="998.080078" xlink:href="#DejaVuSans-30"/>
     <use x="1061.703125" xlink:href="#DejaVuSans-38"/>
    </g>
    <!-- 15 instances -->
    <g transform="translate(58.89048 58.134344)scale(0.102 -0.102)">
     <use xlink:href="#DejaVuSans-31"/>
     <use x="63.623047" xlink:href="#DejaVuSans-35"/>
     <use x="127.246094" xlink:href="#DejaVuSans-20"/>
     <use x="159.033203" xlink:href="#DejaVuSans-69"/>
     <use x="186.816406" xlink:href="#DejaVuSans-6e"/>
     <use x="250.195312" xlink:href="#DejaVuSans-73"/>
     <use x="302.294922" xlink:href="#DejaVuSans-74"/>
     <use x="341.503906" xlink:href="#DejaVuSans-61"/>
     <use x="402.783203" xlink:href="#DejaVuSans-6e"/>
     <use x="466.162109" xlink:href="#DejaVuSans-63"/>
     <use x="521.142578" xlink:href="#DejaVuSans-65"/>
     <use x="582.666016" xlink:href="#DejaVuSans-73"/>
    </g>
   </g>
   <g id="text_18">
    <!-- v0.0.0 -->
    <g style="fill:#808080;" transform="translate(178.96275 290.099912)scale(0.1 -0.1)">
     <use xlink:href="#DejaVuSans-76"/>
     <use x="59.179688" xlink:href="#DejaVuSans-30"/>
     <use x="122.802734" xlink:href="#DejaVuSans-2e"/>
     <use x="154.589844" xlink:href="#DejaVuSans-30"/>
     <use x="218.212891" xlink:href="#DejaVuSans-2e"/>
     <use x="250" xlink:href="#DejaVuSans-30"/>
    </g>
   </g>
   <g id="text_19">
    <!-- 12 Bent cigar -->
    <g transform="translate(127.426812 18.84)scale(0.2 -0.2)">
     <use xlink:href="#DejaVuSans-31"/>
     <use x="63.623047" xlink:href="#DejaVuSans-32"/>
     <use x="127.246094" xlink:href="#DejaVuSans-20"/>
     <use x="159.033203" xlink:href="#DejaVuSans-42"/>
     <use x="227.636719" xlink:href="#DejaVuSans-65"/>
     <use x="289.160156" xlink:href="#DejaVuSans-6e"/>
     <use x="352.539062" xlink:href="#DejaVuSans-74"/>
     <use x="391.748047" xlink:href="#DejaVuSans-20"/>
     <use x="423.535156" xlink:href="#DejaVuSans-63"/>
     <use x="478.515625" xlink:href="#DejaVuSans-69"/>
     <use x="506.298828" xlink:href="#DejaVuSans-67"/>
     <use x="569.775391" xlink:href="#DejaVuSans-61"/>
     <use x="631.054688" xlink:href="#DejaVuSans-72"/>
    </g>
   </g>
  </g>
 </g>
 <defs>
  <clipPath id="p6293ded02b">
   <rect height="270.04" width="277.048" x="56.12" y="24.84"/>
  </clipPath>
 </defs>
</svg>
