<?xml version="1.0" encoding="utf-8" standalone="no"?>
<!DOCTYPE svg PUBLIC "-//W3C//DTD SVG 1.1//EN"
  "http://www.w3.org/Graphics/SVG/1.1/DTD/svg11.dtd">
<!-- Created with matplotlib (http://matplotlib.org/) -->
<svg height="345.6pt" version="1.1" viewBox="0 0 460.8 345.6" width="460.8pt" xmlns="http://www.w3.org/2000/svg" xmlns:xlink="http://www.w3.org/1999/xlink">
 <defs>
  <style type="text/css">
*{stroke-linecap:butt;stroke-linejoin:round;}
  </style>
 </defs>
 <g id="figure_1">
  <g id="patch_1">
   <path d="M 0 345.6 
L 460.8 345.6 
L 460.8 0 
L 0 0 
z
" style="fill:#ffffff;"/>
  </g>
  <g id="axes_1">
   <g id="patch_2">
    <path d="M 56.12 294.88 
L 333.168 294.88 
L 333.168 24.84 
L 56.12 24.84 
z
" style="fill:#ffffff;"/>
   </g>
   <g id="line2d_1">
    <path d="M 79.066841 294.88 
L 79.066841 289.637523 
L 90.05175 289.637523 
L 90.05175 284.395046 
L 100.207968 284.395046 
L 100.207968 279.152568 
L 103.560793 279.152568 
L 103.560793 273.910091 
L 132.843288 273.910091 
L 132.843288 268.667614 
L 143.547583 268.667614 
L 143.547583 263.425137 
L 146.808451 263.425137 
L 146.808451 258.18266 
L 149.321972 258.18266 
L 149.321972 252.940182 
L 153.374779 252.940182 
L 153.374779 247.697705 
L 155.578296 247.697705 
L 155.578296 242.455228 
L 155.620451 242.455228 
L 155.620451 237.212751 
L 156.026132 237.212751 
L 156.026132 231.970274 
L 156.056945 231.970274 
L 156.056945 226.727797 
L 156.128628 226.727797 
L 156.128628 221.485319 
L 156.159258 221.485319 
L 156.159258 216.242842 
L 156.189834 216.242842 
L 156.189834 211.000365 
L 156.522625 211.000365 
L 156.522625 205.757888 
L 156.632139 205.757888 
L 156.632139 195.272933 
L 156.711349 195.272933 
L 156.711349 190.030456 
L 156.888249 190.030456 
L 156.888249 184.787979 
L 157.014888 184.787979 
L 157.014888 179.545502 
L 157.16948 179.545502 
L 157.16948 174.303025 
L 157.370295 174.303025 
L 157.370295 169.060547 
L 157.389299 169.060547 
L 157.389299 163.81807 
L 157.455646 163.81807 
L 157.455646 158.575593 
L 157.502881 158.575593 
L 157.502881 153.333116 
L 157.634451 153.333116 
L 157.634451 142.848162 
L 157.77431 142.848162 
L 157.77431 127.12073 
L 157.802146 127.12073 
L 157.802146 121.878253 
L 158.00491 121.878253 
L 158.00491 116.635776 
L 158.078053 116.635776 
L 158.078053 111.393298 
L 158.09629 111.393298 
L 158.09629 100.908344 
L 158.159969 100.908344 
L 158.159969 95.665867 
L 158.169046 95.665867 
L 158.169046 85.180912 
L 158.205309 85.180912 
L 158.205309 79.938435 
L 158.232457 79.938435 
L 158.232457 64.211004 
L 158.241496 64.211004 
L 158.241496 58.968526 
L 158.250531 58.968526 
L 158.250531 53.726049 
L 158.259561 53.726049 
L 158.259561 43.241095 
L 158.268586 43.241095 
L 158.268586 37.998618 
L 158.30464 37.998618 
L 158.30464 32.756141 
L 189.116033 32.756141 
L 189.116033 27.513663 
L 333.168 27.513663 
" style="fill:none;stroke:#f5deb3;stroke-linecap:square;stroke-width:4;"/>
   </g>
   <g id="line2d_2">
    <defs>
     <path d="M -0 7.778175 
L 7.778175 0 
L 0 -7.778175 
L -7.778175 -0 
z
" id="m3e30fe47c1" style="stroke:#f5deb3;stroke-linejoin:miter;stroke-width:1.5;"/>
    </defs>
    <g>
     <use style="fill:#f5deb3;stroke:#f5deb3;stroke-linejoin:miter;stroke-width:1.5;" x="157.16948" xlink:href="#m3e30fe47c1" y="174.303025"/>
     <use style="fill:#f5deb3;stroke:#f5deb3;stroke-linejoin:miter;stroke-width:1.5;" x="189.116033" xlink:href="#m3e30fe47c1" y="32.756141"/>
     <use style="fill:#f5deb3;stroke:#f5deb3;stroke-linejoin:miter;stroke-width:1.5;" x="189.116033" xlink:href="#m3e30fe47c1" y="27.513663"/>
     <use style="fill:#f5deb3;stroke:#f5deb3;stroke-linejoin:miter;stroke-width:1.5;" x="189.116033" xlink:href="#m3e30fe47c1" y="27.513663"/>
     <use style="fill:#f5deb3;stroke:#f5deb3;stroke-linejoin:miter;stroke-width:1.5;" x="333.168" xlink:href="#m3e30fe47c1" y="27.513663"/>
    </g>
   </g>
   <g id="line2d_3">
    <path style="fill:none;stroke:#f5deb3;stroke-linecap:square;stroke-width:4;"/>
    <g/>
   </g>
   <g id="line2d_4">
    <path d="M 333.168 27.513663 
L 363.64328 32.86099 
" style="fill:none;stroke:#f5deb3;stroke-linecap:square;stroke-width:4;"/>
    <g>
     <use style="fill:#f5deb3;stroke:#f5deb3;stroke-linejoin:miter;stroke-width:1.5;" x="333.168" xlink:href="#m3e30fe47c1" y="27.513663"/>
     <use style="fill:#f5deb3;stroke:#f5deb3;stroke-linejoin:miter;stroke-width:1.5;" x="363.64328" xlink:href="#m3e30fe47c1" y="32.86099"/>
    </g>
   </g>
   <g id="matplotlib.axis_1">
    <g id="xtick_1">
     <g id="line2d_5">
      <path clip-path="url(#pa42815383f)" d="M 56.12 294.88 
L 56.12 24.84 
" style="fill:none;stroke:#b0b0b0;stroke-linecap:square;stroke-width:0.8;"/>
     </g>
     <g id="line2d_6">
      <defs>
       <path d="M 0 0 
L 0 3.5 
" id="m7f2d822c0d" style="stroke:#000000;stroke-width:0.8;"/>
      </defs>
      <g>
       <use style="stroke:#000000;stroke-width:0.8;" x="56.12" xlink:href="#m7f2d822c0d" y="294.88"/>
      </g>
     </g>
     <g id="text_1">
      <!-- 0 -->
      <defs>
       <path d="M 31.78125 66.40625 
Q 24.171875 66.40625 20.328125 58.90625 
Q 16.5 51.421875 16.5 36.375 
Q 16.5 21.390625 20.328125 13.890625 
Q 24.171875 6.390625 31.78125 6.390625 
Q 39.453125 6.390625 43.28125 13.890625 
Q 47.125 21.390625 47.125 36.375 
Q 47.125 51.421875 43.28125 58.90625 
Q 39.453125 66.40625 31.78125 66.40625 
z
M 31.78125 74.21875 
Q 44.046875 74.21875 50.515625 64.515625 
Q 56.984375 54.828125 56.984375 36.375 
Q 56.984375 17.96875 50.515625 8.265625 
Q 44.046875 -1.421875 31.78125 -1.421875 
Q 19.53125 -1.421875 13.0625 8.265625 
Q 6.59375 17.96875 6.59375 36.375 
Q 6.59375 54.828125 13.0625 64.515625 
Q 19.53125 74.21875 31.78125 74.21875 
z
" id="DejaVuSans-30"/>
      </defs>
      <g transform="translate(49.7575 317.076875)scale(0.2 -0.2)">
       <use xlink:href="#DejaVuSans-30"/>
      </g>
     </g>
    </g>
    <g id="xtick_2">
     <g id="line2d_7">
      <path clip-path="url(#pa42815383f)" d="M 135.276571 294.88 
L 135.276571 24.84 
" style="fill:none;stroke:#b0b0b0;stroke-linecap:square;stroke-width:0.8;"/>
     </g>
     <g id="line2d_8">
      <g>
       <use style="stroke:#000000;stroke-width:0.8;" x="135.276571" xlink:href="#m7f2d822c0d" y="294.88"/>
      </g>
     </g>
     <g id="text_2">
      <!-- 2 -->
      <defs>
       <path d="M 19.1875 8.296875 
L 53.609375 8.296875 
L 53.609375 0 
L 7.328125 0 
L 7.328125 8.296875 
Q 12.9375 14.109375 22.625 23.890625 
Q 32.328125 33.6875 34.8125 36.53125 
Q 39.546875 41.84375 41.421875 45.53125 
Q 43.3125 49.21875 43.3125 52.78125 
Q 43.3125 58.59375 39.234375 62.25 
Q 35.15625 65.921875 28.609375 65.921875 
Q 23.96875 65.921875 18.8125 64.3125 
Q 13.671875 62.703125 7.8125 59.421875 
L 7.8125 69.390625 
Q 13.765625 71.78125 18.9375 73 
Q 24.125 74.21875 28.421875 74.21875 
Q 39.75 74.21875 46.484375 68.546875 
Q 53.21875 62.890625 53.21875 53.421875 
Q 53.21875 48.921875 51.53125 44.890625 
Q 49.859375 40.875 45.40625 35.40625 
Q 44.1875 33.984375 37.640625 27.21875 
Q 31.109375 20.453125 19.1875 8.296875 
z
" id="DejaVuSans-32"/>
      </defs>
      <g transform="translate(128.914071 317.076875)scale(0.2 -0.2)">
       <use xlink:href="#DejaVuSans-32"/>
      </g>
     </g>
    </g>
    <g id="xtick_3">
     <g id="line2d_9">
      <path clip-path="url(#pa42815383f)" d="M 214.433143 294.88 
L 214.433143 24.84 
" style="fill:none;stroke:#b0b0b0;stroke-linecap:square;stroke-width:0.8;"/>
     </g>
     <g id="line2d_10">
      <g>
       <use style="stroke:#000000;stroke-width:0.8;" x="214.433143" xlink:href="#m7f2d822c0d" y="294.88"/>
      </g>
     </g>
     <g id="text_3">
      <!-- 4 -->
      <defs>
       <path d="M 37.796875 64.3125 
L 12.890625 25.390625 
L 37.796875 25.390625 
z
M 35.203125 72.90625 
L 47.609375 72.90625 
L 47.609375 25.390625 
L 58.015625 25.390625 
L 58.015625 17.1875 
L 47.609375 17.1875 
L 47.609375 0 
L 37.796875 0 
L 37.796875 17.1875 
L 4.890625 17.1875 
L 4.890625 26.703125 
z
" id="DejaVuSans-34"/>
      </defs>
      <g transform="translate(208.070643 317.076875)scale(0.2 -0.2)">
       <use xlink:href="#DejaVuSans-34"/>
      </g>
     </g>
    </g>
    <g id="xtick_4">
     <g id="line2d_11">
      <path clip-path="url(#pa42815383f)" d="M 293.589714 294.88 
L 293.589714 24.84 
" style="fill:none;stroke:#b0b0b0;stroke-linecap:square;stroke-width:0.8;"/>
     </g>
     <g id="line2d_12">
      <g>
       <use style="stroke:#000000;stroke-width:0.8;" x="293.589714" xlink:href="#m7f2d822c0d" y="294.88"/>
      </g>
     </g>
     <g id="text_4">
      <!-- 6 -->
      <defs>
       <path d="M 33.015625 40.375 
Q 26.375 40.375 22.484375 35.828125 
Q 18.609375 31.296875 18.609375 23.390625 
Q 18.609375 15.53125 22.484375 10.953125 
Q 26.375 6.390625 33.015625 6.390625 
Q 39.65625 6.390625 43.53125 10.953125 
Q 47.40625 15.53125 47.40625 23.390625 
Q 47.40625 31.296875 43.53125 35.828125 
Q 39.65625 40.375 33.015625 40.375 
z
M 52.59375 71.296875 
L 52.59375 62.3125 
Q 48.875 64.0625 45.09375 64.984375 
Q 41.3125 65.921875 37.59375 65.921875 
Q 27.828125 65.921875 22.671875 59.328125 
Q 17.53125 52.734375 16.796875 39.40625 
Q 19.671875 43.65625 24.015625 45.921875 
Q 28.375 48.1875 33.59375 48.1875 
Q 44.578125 48.1875 50.953125 41.515625 
Q 57.328125 34.859375 57.328125 23.390625 
Q 57.328125 12.15625 50.6875 5.359375 
Q 44.046875 -1.421875 33.015625 -1.421875 
Q 20.359375 -1.421875 13.671875 8.265625 
Q 6.984375 17.96875 6.984375 36.375 
Q 6.984375 53.65625 15.1875 63.9375 
Q 23.390625 74.21875 37.203125 74.21875 
Q 40.921875 74.21875 44.703125 73.484375 
Q 48.484375 72.75 52.59375 71.296875 
z
" id="DejaVuSans-36"/>
      </defs>
      <g transform="translate(287.227214 317.076875)scale(0.2 -0.2)">
       <use xlink:href="#DejaVuSans-36"/>
      </g>
     </g>
    </g>
    <g id="xtick_5">
     <g id="line2d_13">
      <path clip-path="url(#pa42815383f)" d="M 56.12 294.88 
L 56.12 24.84 
" style="fill:none;stroke:#b0b0b0;stroke-linecap:square;stroke-width:0.8;"/>
     </g>
     <g id="line2d_14">
      <defs>
       <path d="M 0 0 
L 0 2 
" id="m74b71bc4d1" style="stroke:#000000;stroke-width:0.6;"/>
      </defs>
      <g>
       <use style="stroke:#000000;stroke-width:0.6;" x="56.12" xlink:href="#m74b71bc4d1" y="294.88"/>
      </g>
     </g>
    </g>
    <g id="xtick_6">
     <g id="line2d_15">
      <path clip-path="url(#pa42815383f)" d="M 95.698286 294.88 
L 95.698286 24.84 
" style="fill:none;stroke:#b0b0b0;stroke-linecap:square;stroke-width:0.8;"/>
     </g>
     <g id="line2d_16">
      <g>
       <use style="stroke:#000000;stroke-width:0.6;" x="95.698286" xlink:href="#m74b71bc4d1" y="294.88"/>
      </g>
     </g>
    </g>
    <g id="xtick_7">
     <g id="line2d_17">
      <path clip-path="url(#pa42815383f)" d="M 135.276571 294.88 
L 135.276571 24.84 
" style="fill:none;stroke:#b0b0b0;stroke-linecap:square;stroke-width:0.8;"/>
     </g>
     <g id="line2d_18">
      <g>
       <use style="stroke:#000000;stroke-width:0.6;" x="135.276571" xlink:href="#m74b71bc4d1" y="294.88"/>
      </g>
     </g>
    </g>
    <g id="xtick_8">
     <g id="line2d_19">
      <path clip-path="url(#pa42815383f)" d="M 174.854857 294.88 
L 174.854857 24.84 
" style="fill:none;stroke:#b0b0b0;stroke-linecap:square;stroke-width:0.8;"/>
     </g>
     <g id="line2d_20">
      <g>
       <use style="stroke:#000000;stroke-width:0.6;" x="174.854857" xlink:href="#m74b71bc4d1" y="294.88"/>
      </g>
     </g>
    </g>
    <g id="xtick_9">
     <g id="line2d_21">
      <path clip-path="url(#pa42815383f)" d="M 214.433143 294.88 
L 214.433143 24.84 
" style="fill:none;stroke:#b0b0b0;stroke-linecap:square;stroke-width:0.8;"/>
     </g>
     <g id="line2d_22">
      <g>
       <use style="stroke:#000000;stroke-width:0.6;" x="214.433143" xlink:href="#m74b71bc4d1" y="294.88"/>
      </g>
     </g>
    </g>
    <g id="xtick_10">
     <g id="line2d_23">
      <path clip-path="url(#pa42815383f)" d="M 254.011429 294.88 
L 254.011429 24.84 
" style="fill:none;stroke:#b0b0b0;stroke-linecap:square;stroke-width:0.8;"/>
     </g>
     <g id="line2d_24">
      <g>
       <use style="stroke:#000000;stroke-width:0.6;" x="254.011429" xlink:href="#m74b71bc4d1" y="294.88"/>
      </g>
     </g>
    </g>
    <g id="xtick_11">
     <g id="line2d_25">
      <path clip-path="url(#pa42815383f)" d="M 293.589714 294.88 
L 293.589714 24.84 
" style="fill:none;stroke:#b0b0b0;stroke-linecap:square;stroke-width:0.8;"/>
     </g>
     <g id="line2d_26">
      <g>
       <use style="stroke:#000000;stroke-width:0.6;" x="293.589714" xlink:href="#m74b71bc4d1" y="294.88"/>
      </g>
     </g>
    </g>
    <g id="xtick_12">
     <g id="line2d_27">
      <path clip-path="url(#pa42815383f)" d="M 333.168 294.88 
L 333.168 24.84 
" style="fill:none;stroke:#b0b0b0;stroke-linecap:square;stroke-width:0.8;"/>
     </g>
     <g id="line2d_28">
      <g>
       <use style="stroke:#000000;stroke-width:0.6;" x="333.168" xlink:href="#m74b71bc4d1" y="294.88"/>
      </g>
     </g>
    </g>
    <g id="text_5">
     <!-- log10(# f-evals / dimension) -->
     <defs>
      <path d="M 9.421875 75.984375 
L 18.40625 75.984375 
L 18.40625 0 
L 9.421875 0 
z
" id="DejaVuSans-6c"/>
      <path d="M 30.609375 48.390625 
Q 23.390625 48.390625 19.1875 42.75 
Q 14.984375 37.109375 14.984375 27.296875 
Q 14.984375 17.484375 19.15625 11.84375 
Q 23.34375 6.203125 30.609375 6.203125 
Q 37.796875 6.203125 41.984375 11.859375 
Q 46.1875 17.53125 46.1875 27.296875 
Q 46.1875 37.015625 41.984375 42.703125 
Q 37.796875 48.390625 30.609375 48.390625 
z
M 30.609375 56 
Q 42.328125 56 49.015625 48.375 
Q 55.71875 40.765625 55.71875 27.296875 
Q 55.71875 13.875 49.015625 6.21875 
Q 42.328125 -1.421875 30.609375 -1.421875 
Q 18.84375 -1.421875 12.171875 6.21875 
Q 5.515625 13.875 5.515625 27.296875 
Q 5.515625 40.765625 12.171875 48.375 
Q 18.84375 56 30.609375 56 
z
" id="DejaVuSans-6f"/>
      <path d="M 45.40625 27.984375 
Q 45.40625 37.75 41.375 43.109375 
Q 37.359375 48.484375 30.078125 48.484375 
Q 22.859375 48.484375 18.828125 43.109375 
Q 14.796875 37.75 14.796875 27.984375 
Q 14.796875 18.265625 18.828125 12.890625 
Q 22.859375 7.515625 30.078125 7.515625 
Q 37.359375 7.515625 41.375 12.890625 
Q 45.40625 18.265625 45.40625 27.984375 
z
M 54.390625 6.78125 
Q 54.390625 -7.171875 48.1875 -13.984375 
Q 42 -20.796875 29.203125 -20.796875 
Q 24.46875 -20.796875 20.265625 -20.09375 
Q 16.0625 -19.390625 12.109375 -17.921875 
L 12.109375 -9.1875 
Q 16.0625 -11.328125 19.921875 -12.34375 
Q 23.78125 -13.375 27.78125 -13.375 
Q 36.625 -13.375 41.015625 -8.765625 
Q 45.40625 -4.15625 45.40625 5.171875 
L 45.40625 9.625 
Q 42.625 4.78125 38.28125 2.390625 
Q 33.9375 0 27.875 0 
Q 17.828125 0 11.671875 7.65625 
Q 5.515625 15.328125 5.515625 27.984375 
Q 5.515625 40.671875 11.671875 48.328125 
Q 17.828125 56 27.875 56 
Q 33.9375 56 38.28125 53.609375 
Q 42.625 51.21875 45.40625 46.390625 
L 45.40625 54.6875 
L 54.390625 54.6875 
z
" id="DejaVuSans-67"/>
      <path d="M 12.40625 8.296875 
L 28.515625 8.296875 
L 28.515625 63.921875 
L 10.984375 60.40625 
L 10.984375 69.390625 
L 28.421875 72.90625 
L 38.28125 72.90625 
L 38.28125 8.296875 
L 54.390625 8.296875 
L 54.390625 0 
L 12.40625 0 
z
" id="DejaVuSans-31"/>
      <path d="M 31 75.875 
Q 24.46875 64.65625 21.28125 53.65625 
Q 18.109375 42.671875 18.109375 31.390625 
Q 18.109375 20.125 21.3125 9.0625 
Q 24.515625 -2 31 -13.1875 
L 23.1875 -13.1875 
Q 15.875 -1.703125 12.234375 9.375 
Q 8.59375 20.453125 8.59375 31.390625 
Q 8.59375 42.28125 12.203125 53.3125 
Q 15.828125 64.359375 23.1875 75.875 
z
" id="DejaVuSans-28"/>
      <path d="M 51.125 44 
L 36.921875 44 
L 32.8125 27.6875 
L 47.125 27.6875 
z
M 43.796875 71.78125 
L 38.71875 51.515625 
L 52.984375 51.515625 
L 58.109375 71.78125 
L 65.921875 71.78125 
L 60.890625 51.515625 
L 76.125 51.515625 
L 76.125 44 
L 58.984375 44 
L 54.984375 27.6875 
L 70.515625 27.6875 
L 70.515625 20.21875 
L 53.078125 20.21875 
L 48 0 
L 40.1875 0 
L 45.21875 20.21875 
L 30.90625 20.21875 
L 25.875 0 
L 18.015625 0 
L 23.09375 20.21875 
L 7.71875 20.21875 
L 7.71875 27.6875 
L 24.90625 27.6875 
L 29 44 
L 13.28125 44 
L 13.28125 51.515625 
L 30.90625 51.515625 
L 35.890625 71.78125 
z
" id="DejaVuSans-23"/>
      <path id="DejaVuSans-20"/>
      <path d="M 37.109375 75.984375 
L 37.109375 68.5 
L 28.515625 68.5 
Q 23.6875 68.5 21.796875 66.546875 
Q 19.921875 64.59375 19.921875 59.515625 
L 19.921875 54.6875 
L 34.71875 54.6875 
L 34.71875 47.703125 
L 19.921875 47.703125 
L 19.921875 0 
L 10.890625 0 
L 10.890625 47.703125 
L 2.296875 47.703125 
L 2.296875 54.6875 
L 10.890625 54.6875 
L 10.890625 58.5 
Q 10.890625 67.625 15.140625 71.796875 
Q 19.390625 75.984375 28.609375 75.984375 
z
" id="DejaVuSans-66"/>
      <path d="M 4.890625 31.390625 
L 31.203125 31.390625 
L 31.203125 23.390625 
L 4.890625 23.390625 
z
" id="DejaVuSans-2d"/>
      <path d="M 56.203125 29.59375 
L 56.203125 25.203125 
L 14.890625 25.203125 
Q 15.484375 15.921875 20.484375 11.0625 
Q 25.484375 6.203125 34.421875 6.203125 
Q 39.59375 6.203125 44.453125 7.46875 
Q 49.3125 8.734375 54.109375 11.28125 
L 54.109375 2.78125 
Q 49.265625 0.734375 44.1875 -0.34375 
Q 39.109375 -1.421875 33.890625 -1.421875 
Q 20.796875 -1.421875 13.15625 6.1875 
Q 5.515625 13.8125 5.515625 26.8125 
Q 5.515625 40.234375 12.765625 48.109375 
Q 20.015625 56 32.328125 56 
Q 43.359375 56 49.78125 48.890625 
Q 56.203125 41.796875 56.203125 29.59375 
z
M 47.21875 32.234375 
Q 47.125 39.59375 43.09375 43.984375 
Q 39.0625 48.390625 32.421875 48.390625 
Q 24.90625 48.390625 20.390625 44.140625 
Q 15.875 39.890625 15.1875 32.171875 
z
" id="DejaVuSans-65"/>
      <path d="M 2.984375 54.6875 
L 12.5 54.6875 
L 29.59375 8.796875 
L 46.6875 54.6875 
L 56.203125 54.6875 
L 35.6875 0 
L 23.484375 0 
z
" id="DejaVuSans-76"/>
      <path d="M 34.28125 27.484375 
Q 23.390625 27.484375 19.1875 25 
Q 14.984375 22.515625 14.984375 16.5 
Q 14.984375 11.71875 18.140625 8.90625 
Q 21.296875 6.109375 26.703125 6.109375 
Q 34.1875 6.109375 38.703125 11.40625 
Q 43.21875 16.703125 43.21875 25.484375 
L 43.21875 27.484375 
z
M 52.203125 31.203125 
L 52.203125 0 
L 43.21875 0 
L 43.21875 8.296875 
Q 40.140625 3.328125 35.546875 0.953125 
Q 30.953125 -1.421875 24.3125 -1.421875 
Q 15.921875 -1.421875 10.953125 3.296875 
Q 6 8.015625 6 15.921875 
Q 6 25.140625 12.171875 29.828125 
Q 18.359375 34.515625 30.609375 34.515625 
L 43.21875 34.515625 
L 43.21875 35.40625 
Q 43.21875 41.609375 39.140625 45 
Q 35.0625 48.390625 27.6875 48.390625 
Q 23 48.390625 18.546875 47.265625 
Q 14.109375 46.140625 10.015625 43.890625 
L 10.015625 52.203125 
Q 14.9375 54.109375 19.578125 55.046875 
Q 24.21875 56 28.609375 56 
Q 40.484375 56 46.34375 49.84375 
Q 52.203125 43.703125 52.203125 31.203125 
z
" id="DejaVuSans-61"/>
      <path d="M 44.28125 53.078125 
L 44.28125 44.578125 
Q 40.484375 46.53125 36.375 47.5 
Q 32.28125 48.484375 27.875 48.484375 
Q 21.1875 48.484375 17.84375 46.4375 
Q 14.5 44.390625 14.5 40.28125 
Q 14.5 37.15625 16.890625 35.375 
Q 19.28125 33.59375 26.515625 31.984375 
L 29.59375 31.296875 
Q 39.15625 29.25 43.1875 25.515625 
Q 47.21875 21.78125 47.21875 15.09375 
Q 47.21875 7.46875 41.1875 3.015625 
Q 35.15625 -1.421875 24.609375 -1.421875 
Q 20.21875 -1.421875 15.453125 -0.5625 
Q 10.6875 0.296875 5.421875 2 
L 5.421875 11.28125 
Q 10.40625 8.6875 15.234375 7.390625 
Q 20.0625 6.109375 24.8125 6.109375 
Q 31.15625 6.109375 34.5625 8.28125 
Q 37.984375 10.453125 37.984375 14.40625 
Q 37.984375 18.0625 35.515625 20.015625 
Q 33.0625 21.96875 24.703125 23.78125 
L 21.578125 24.515625 
Q 13.234375 26.265625 9.515625 29.90625 
Q 5.8125 33.546875 5.8125 39.890625 
Q 5.8125 47.609375 11.28125 51.796875 
Q 16.75 56 26.8125 56 
Q 31.78125 56 36.171875 55.265625 
Q 40.578125 54.546875 44.28125 53.078125 
z
" id="DejaVuSans-73"/>
      <path d="M 25.390625 72.90625 
L 33.6875 72.90625 
L 8.296875 -9.28125 
L 0 -9.28125 
z
" id="DejaVuSans-2f"/>
      <path d="M 45.40625 46.390625 
L 45.40625 75.984375 
L 54.390625 75.984375 
L 54.390625 0 
L 45.40625 0 
L 45.40625 8.203125 
Q 42.578125 3.328125 38.25 0.953125 
Q 33.9375 -1.421875 27.875 -1.421875 
Q 17.96875 -1.421875 11.734375 6.484375 
Q 5.515625 14.40625 5.515625 27.296875 
Q 5.515625 40.1875 11.734375 48.09375 
Q 17.96875 56 27.875 56 
Q 33.9375 56 38.25 53.625 
Q 42.578125 51.265625 45.40625 46.390625 
z
M 14.796875 27.296875 
Q 14.796875 17.390625 18.875 11.75 
Q 22.953125 6.109375 30.078125 6.109375 
Q 37.203125 6.109375 41.296875 11.75 
Q 45.40625 17.390625 45.40625 27.296875 
Q 45.40625 37.203125 41.296875 42.84375 
Q 37.203125 48.484375 30.078125 48.484375 
Q 22.953125 48.484375 18.875 42.84375 
Q 14.796875 37.203125 14.796875 27.296875 
z
" id="DejaVuSans-64"/>
      <path d="M 9.421875 54.6875 
L 18.40625 54.6875 
L 18.40625 0 
L 9.421875 0 
z
M 9.421875 75.984375 
L 18.40625 75.984375 
L 18.40625 64.59375 
L 9.421875 64.59375 
z
" id="DejaVuSans-69"/>
      <path d="M 52 44.1875 
Q 55.375 50.25 60.0625 53.125 
Q 64.75 56 71.09375 56 
Q 79.640625 56 84.28125 50.015625 
Q 88.921875 44.046875 88.921875 33.015625 
L 88.921875 0 
L 79.890625 0 
L 79.890625 32.71875 
Q 79.890625 40.578125 77.09375 44.375 
Q 74.3125 48.1875 68.609375 48.1875 
Q 61.625 48.1875 57.5625 43.546875 
Q 53.515625 38.921875 53.515625 30.90625 
L 53.515625 0 
L 44.484375 0 
L 44.484375 32.71875 
Q 44.484375 40.625 41.703125 44.40625 
Q 38.921875 48.1875 33.109375 48.1875 
Q 26.21875 48.1875 22.15625 43.53125 
Q 18.109375 38.875 18.109375 30.90625 
L 18.109375 0 
L 9.078125 0 
L 9.078125 54.6875 
L 18.109375 54.6875 
L 18.109375 46.1875 
Q 21.1875 51.21875 25.484375 53.609375 
Q 29.78125 56 35.6875 56 
Q 41.65625 56 45.828125 52.96875 
Q 50 49.953125 52 44.1875 
z
" id="DejaVuSans-6d"/>
      <path d="M 54.890625 33.015625 
L 54.890625 0 
L 45.90625 0 
L 45.90625 32.71875 
Q 45.90625 40.484375 42.875 44.328125 
Q 39.84375 48.1875 33.796875 48.1875 
Q 26.515625 48.1875 22.3125 43.546875 
Q 18.109375 38.921875 18.109375 30.90625 
L 18.109375 0 
L 9.078125 0 
L 9.078125 54.6875 
L 18.109375 54.6875 
L 18.109375 46.1875 
Q 21.34375 51.125 25.703125 53.5625 
Q 30.078125 56 35.796875 56 
Q 45.21875 56 50.046875 50.171875 
Q 54.890625 44.34375 54.890625 33.015625 
z
" id="DejaVuSans-6e"/>
      <path d="M 8.015625 75.875 
L 15.828125 75.875 
Q 23.140625 64.359375 26.78125 53.3125 
Q 30.421875 42.28125 30.421875 31.390625 
Q 30.421875 20.453125 26.78125 9.375 
Q 23.140625 -1.703125 15.828125 -13.1875 
L 8.015625 -13.1875 
Q 14.5 -2 17.703125 9.0625 
Q 20.90625 20.125 20.90625 31.390625 
Q 20.90625 42.671875 17.703125 53.65625 
Q 14.5 64.65625 8.015625 75.875 
z
" id="DejaVuSans-29"/>
     </defs>
     <g transform="translate(73.803219 338.153594)scale(0.17 -0.17)">
      <use xlink:href="#DejaVuSans-6c"/>
      <use x="27.783203" xlink:href="#DejaVuSans-6f"/>
      <use x="88.964844" xlink:href="#DejaVuSans-67"/>
      <use x="152.441406" xlink:href="#DejaVuSans-31"/>
      <use x="216.064453" xlink:href="#DejaVuSans-30"/>
      <use x="279.6875" xlink:href="#DejaVuSans-28"/>
      <use x="318.701172" xlink:href="#DejaVuSans-23"/>
      <use x="402.490234" xlink:href="#DejaVuSans-20"/>
      <use x="434.277344" xlink:href="#DejaVuSans-66"/>
      <use x="469.404297" xlink:href="#DejaVuSans-2d"/>
      <use x="505.488281" xlink:href="#DejaVuSans-65"/>
      <use x="567.011719" xlink:href="#DejaVuSans-76"/>
      <use x="626.191406" xlink:href="#DejaVuSans-61"/>
      <use x="687.470703" xlink:href="#DejaVuSans-6c"/>
      <use x="715.253906" xlink:href="#DejaVuSans-73"/>
      <use x="767.353516" xlink:href="#DejaVuSans-20"/>
      <use x="799.140625" xlink:href="#DejaVuSans-2f"/>
      <use x="832.832031" xlink:href="#DejaVuSans-20"/>
      <use x="864.619141" xlink:href="#DejaVuSans-64"/>
      <use x="928.095703" xlink:href="#DejaVuSans-69"/>
      <use x="955.878906" xlink:href="#DejaVuSans-6d"/>
      <use x="1053.291016" xlink:href="#DejaVuSans-65"/>
      <use x="1114.814453" xlink:href="#DejaVuSans-6e"/>
      <use x="1178.193359" xlink:href="#DejaVuSans-73"/>
      <use x="1230.292969" xlink:href="#DejaVuSans-69"/>
      <use x="1258.076172" xlink:href="#DejaVuSans-6f"/>
      <use x="1319.257812" xlink:href="#DejaVuSans-6e"/>
      <use x="1382.636719" xlink:href="#DejaVuSans-29"/>
     </g>
    </g>
   </g>
   <g id="matplotlib.axis_2">
    <g id="ytick_1">
     <g id="line2d_29">
      <path clip-path="url(#pa42815383f)" d="M 56.12 294.88 
L 333.168 294.88 
" style="fill:none;stroke:#b0b0b0;stroke-linecap:square;stroke-width:0.8;"/>
     </g>
     <g id="line2d_30">
      <defs>
       <path d="M 0 0 
L -3.5 0 
" id="me1d0d1e3d9" style="stroke:#000000;stroke-width:0.8;"/>
      </defs>
      <g>
       <use style="stroke:#000000;stroke-width:0.8;" x="56.12" xlink:href="#me1d0d1e3d9" y="294.88"/>
      </g>
     </g>
     <g id="text_6">
      <!-- 0.0 -->
      <defs>
       <path d="M 10.6875 12.40625 
L 21 12.40625 
L 21 0 
L 10.6875 0 
z
" id="DejaVuSans-2e"/>
      </defs>
      <g transform="translate(23.675 300.95875)scale(0.16 -0.16)">
       <use xlink:href="#DejaVuSans-30"/>
       <use x="63.623047" xlink:href="#DejaVuSans-2e"/>
       <use x="95.410156" xlink:href="#DejaVuSans-30"/>
      </g>
     </g>
    </g>
    <g id="ytick_2">
     <g id="line2d_31">
      <path clip-path="url(#pa42815383f)" d="M 56.12 241.406733 
L 333.168 241.406733 
" style="fill:none;stroke:#b0b0b0;stroke-linecap:square;stroke-width:0.8;"/>
     </g>
     <g id="line2d_32">
      <g>
       <use style="stroke:#000000;stroke-width:0.8;" x="56.12" xlink:href="#me1d0d1e3d9" y="241.406733"/>
      </g>
     </g>
     <g id="text_7">
      <!-- 0.2 -->
      <g transform="translate(23.675 247.485483)scale(0.16 -0.16)">
       <use xlink:href="#DejaVuSans-30"/>
       <use x="63.623047" xlink:href="#DejaVuSans-2e"/>
       <use x="95.410156" xlink:href="#DejaVuSans-32"/>
      </g>
     </g>
    </g>
    <g id="ytick_3">
     <g id="line2d_33">
      <path clip-path="url(#pa42815383f)" d="M 56.12 187.933465 
L 333.168 187.933465 
" style="fill:none;stroke:#b0b0b0;stroke-linecap:square;stroke-width:0.8;"/>
     </g>
     <g id="line2d_34">
      <g>
       <use style="stroke:#000000;stroke-width:0.8;" x="56.12" xlink:href="#me1d0d1e3d9" y="187.933465"/>
      </g>
     </g>
     <g id="text_8">
      <!-- 0.4 -->
      <g transform="translate(23.675 194.012215)scale(0.16 -0.16)">
       <use xlink:href="#DejaVuSans-30"/>
       <use x="63.623047" xlink:href="#DejaVuSans-2e"/>
       <use x="95.410156" xlink:href="#DejaVuSans-34"/>
      </g>
     </g>
    </g>
    <g id="ytick_4">
     <g id="line2d_35">
      <path clip-path="url(#pa42815383f)" d="M 56.12 134.460198 
L 333.168 134.460198 
" style="fill:none;stroke:#b0b0b0;stroke-linecap:square;stroke-width:0.8;"/>
     </g>
     <g id="line2d_36">
      <g>
       <use style="stroke:#000000;stroke-width:0.8;" x="56.12" xlink:href="#me1d0d1e3d9" y="134.460198"/>
      </g>
     </g>
     <g id="text_9">
      <!-- 0.6 -->
      <g transform="translate(23.675 140.538948)scale(0.16 -0.16)">
       <use xlink:href="#DejaVuSans-30"/>
       <use x="63.623047" xlink:href="#DejaVuSans-2e"/>
       <use x="95.410156" xlink:href="#DejaVuSans-36"/>
      </g>
     </g>
    </g>
    <g id="ytick_5">
     <g id="line2d_37">
      <path clip-path="url(#pa42815383f)" d="M 56.12 80.986931 
L 333.168 80.986931 
" style="fill:none;stroke:#b0b0b0;stroke-linecap:square;stroke-width:0.8;"/>
     </g>
     <g id="line2d_38">
      <g>
       <use style="stroke:#000000;stroke-width:0.8;" x="56.12" xlink:href="#me1d0d1e3d9" y="80.986931"/>
      </g>
     </g>
     <g id="text_10">
      <!-- 0.8 -->
      <defs>
       <path d="M 31.78125 34.625 
Q 24.75 34.625 20.71875 30.859375 
Q 16.703125 27.09375 16.703125 20.515625 
Q 16.703125 13.921875 20.71875 10.15625 
Q 24.75 6.390625 31.78125 6.390625 
Q 38.8125 6.390625 42.859375 10.171875 
Q 46.921875 13.96875 46.921875 20.515625 
Q 46.921875 27.09375 42.890625 30.859375 
Q 38.875 34.625 31.78125 34.625 
z
M 21.921875 38.8125 
Q 15.578125 40.375 12.03125 44.71875 
Q 8.5 49.078125 8.5 55.328125 
Q 8.5 64.0625 14.71875 69.140625 
Q 20.953125 74.21875 31.78125 74.21875 
Q 42.671875 74.21875 48.875 69.140625 
Q 55.078125 64.0625 55.078125 55.328125 
Q 55.078125 49.078125 51.53125 44.71875 
Q 48 40.375 41.703125 38.8125 
Q 48.828125 37.15625 52.796875 32.3125 
Q 56.78125 27.484375 56.78125 20.515625 
Q 56.78125 9.90625 50.3125 4.234375 
Q 43.84375 -1.421875 31.78125 -1.421875 
Q 19.734375 -1.421875 13.25 4.234375 
Q 6.78125 9.90625 6.78125 20.515625 
Q 6.78125 27.484375 10.78125 32.3125 
Q 14.796875 37.15625 21.921875 38.8125 
z
M 18.3125 54.390625 
Q 18.3125 48.734375 21.84375 45.5625 
Q 25.390625 42.390625 31.78125 42.390625 
Q 38.140625 42.390625 41.71875 45.5625 
Q 45.3125 48.734375 45.3125 54.390625 
Q 45.3125 60.0625 41.71875 63.234375 
Q 38.140625 66.40625 31.78125 66.40625 
Q 25.390625 66.40625 21.84375 63.234375 
Q 18.3125 60.0625 18.3125 54.390625 
z
" id="DejaVuSans-38"/>
      </defs>
      <g transform="translate(23.675 87.065681)scale(0.16 -0.16)">
       <use xlink:href="#DejaVuSans-30"/>
       <use x="63.623047" xlink:href="#DejaVuSans-2e"/>
       <use x="95.410156" xlink:href="#DejaVuSans-38"/>
      </g>
     </g>
    </g>
    <g id="ytick_6">
     <g id="line2d_39">
      <path clip-path="url(#pa42815383f)" d="M 56.12 27.513663 
L 333.168 27.513663 
" style="fill:none;stroke:#b0b0b0;stroke-linecap:square;stroke-width:0.8;"/>
     </g>
     <g id="line2d_40">
      <g>
       <use style="stroke:#000000;stroke-width:0.8;" x="56.12" xlink:href="#me1d0d1e3d9" y="27.513663"/>
      </g>
     </g>
     <g id="text_11">
      <!-- 1.0 -->
      <g transform="translate(23.675 33.592413)scale(0.16 -0.16)">
       <use xlink:href="#DejaVuSans-31"/>
       <use x="63.623047" xlink:href="#DejaVuSans-2e"/>
       <use x="95.410156" xlink:href="#DejaVuSans-30"/>
      </g>
     </g>
    </g>
    <g id="text_12">
     <!-- Fraction of function,target pairs -->
     <defs>
      <path d="M 9.8125 72.90625 
L 51.703125 72.90625 
L 51.703125 64.59375 
L 19.671875 64.59375 
L 19.671875 43.109375 
L 48.578125 43.109375 
L 48.578125 34.8125 
L 19.671875 34.8125 
L 19.671875 0 
L 9.8125 0 
z
" id="DejaVuSans-46"/>
      <path d="M 41.109375 46.296875 
Q 39.59375 47.171875 37.8125 47.578125 
Q 36.03125 48 33.890625 48 
Q 26.265625 48 22.1875 43.046875 
Q 18.109375 38.09375 18.109375 28.8125 
L 18.109375 0 
L 9.078125 0 
L 9.078125 54.6875 
L 18.109375 54.6875 
L 18.109375 46.1875 
Q 20.953125 51.171875 25.484375 53.578125 
Q 30.03125 56 36.53125 56 
Q 37.453125 56 38.578125 55.875 
Q 39.703125 55.765625 41.0625 55.515625 
z
" id="DejaVuSans-72"/>
      <path d="M 48.78125 52.59375 
L 48.78125 44.1875 
Q 44.96875 46.296875 41.140625 47.34375 
Q 37.3125 48.390625 33.40625 48.390625 
Q 24.65625 48.390625 19.8125 42.84375 
Q 14.984375 37.3125 14.984375 27.296875 
Q 14.984375 17.28125 19.8125 11.734375 
Q 24.65625 6.203125 33.40625 6.203125 
Q 37.3125 6.203125 41.140625 7.25 
Q 44.96875 8.296875 48.78125 10.40625 
L 48.78125 2.09375 
Q 45.015625 0.34375 40.984375 -0.53125 
Q 36.96875 -1.421875 32.421875 -1.421875 
Q 20.0625 -1.421875 12.78125 6.34375 
Q 5.515625 14.109375 5.515625 27.296875 
Q 5.515625 40.671875 12.859375 48.328125 
Q 20.21875 56 33.015625 56 
Q 37.15625 56 41.109375 55.140625 
Q 45.0625 54.296875 48.78125 52.59375 
z
" id="DejaVuSans-63"/>
      <path d="M 18.3125 70.21875 
L 18.3125 54.6875 
L 36.8125 54.6875 
L 36.8125 47.703125 
L 18.3125 47.703125 
L 18.3125 18.015625 
Q 18.3125 11.328125 20.140625 9.421875 
Q 21.96875 7.515625 27.59375 7.515625 
L 36.8125 7.515625 
L 36.8125 0 
L 27.59375 0 
Q 17.1875 0 13.234375 3.875 
Q 9.28125 7.765625 9.28125 18.015625 
L 9.28125 47.703125 
L 2.6875 47.703125 
L 2.6875 54.6875 
L 9.28125 54.6875 
L 9.28125 70.21875 
z
" id="DejaVuSans-74"/>
      <path d="M 8.5 21.578125 
L 8.5 54.6875 
L 17.484375 54.6875 
L 17.484375 21.921875 
Q 17.484375 14.15625 20.5 10.265625 
Q 23.53125 6.390625 29.59375 6.390625 
Q 36.859375 6.390625 41.078125 11.03125 
Q 45.3125 15.671875 45.3125 23.6875 
L 45.3125 54.6875 
L 54.296875 54.6875 
L 54.296875 0 
L 45.3125 0 
L 45.3125 8.40625 
Q 42.046875 3.421875 37.71875 1 
Q 33.40625 -1.421875 27.6875 -1.421875 
Q 18.265625 -1.421875 13.375 4.4375 
Q 8.5 10.296875 8.5 21.578125 
z
M 31.109375 56 
z
" id="DejaVuSans-75"/>
      <path d="M 11.71875 12.40625 
L 22.015625 12.40625 
L 22.015625 4 
L 14.015625 -11.625 
L 7.71875 -11.625 
L 11.71875 4 
z
" id="DejaVuSans-2c"/>
      <path d="M 18.109375 8.203125 
L 18.109375 -20.796875 
L 9.078125 -20.796875 
L 9.078125 54.6875 
L 18.109375 54.6875 
L 18.109375 46.390625 
Q 20.953125 51.265625 25.265625 53.625 
Q 29.59375 56 35.59375 56 
Q 45.5625 56 51.78125 48.09375 
Q 58.015625 40.1875 58.015625 27.296875 
Q 58.015625 14.40625 51.78125 6.484375 
Q 45.5625 -1.421875 35.59375 -1.421875 
Q 29.59375 -1.421875 25.265625 0.953125 
Q 20.953125 3.328125 18.109375 8.203125 
z
M 48.6875 27.296875 
Q 48.6875 37.203125 44.609375 42.84375 
Q 40.53125 48.484375 33.40625 48.484375 
Q 26.265625 48.484375 22.1875 42.84375 
Q 18.109375 37.203125 18.109375 27.296875 
Q 18.109375 17.390625 22.1875 11.75 
Q 26.265625 6.109375 33.40625 6.109375 
Q 40.53125 6.109375 44.609375 11.75 
Q 48.6875 17.390625 48.6875 27.296875 
z
" id="DejaVuSans-70"/>
     </defs>
     <g transform="translate(16.139531 294.999375)rotate(-90)scale(0.17 -0.17)">
      <use xlink:href="#DejaVuSans-46"/>
      <use x="57.410156" xlink:href="#DejaVuSans-72"/>
      <use x="98.523438" xlink:href="#DejaVuSans-61"/>
      <use x="159.802734" xlink:href="#DejaVuSans-63"/>
      <use x="214.783203" xlink:href="#DejaVuSans-74"/>
      <use x="253.992188" xlink:href="#DejaVuSans-69"/>
      <use x="281.775391" xlink:href="#DejaVuSans-6f"/>
      <use x="342.957031" xlink:href="#DejaVuSans-6e"/>
      <use x="406.335938" xlink:href="#DejaVuSans-20"/>
      <use x="438.123047" xlink:href="#DejaVuSans-6f"/>
      <use x="499.304688" xlink:href="#DejaVuSans-66"/>
      <use x="534.509766" xlink:href="#DejaVuSans-20"/>
      <use x="566.296875" xlink:href="#DejaVuSans-66"/>
      <use x="601.501953" xlink:href="#DejaVuSans-75"/>
      <use x="664.880859" xlink:href="#DejaVuSans-6e"/>
      <use x="728.259766" xlink:href="#DejaVuSans-63"/>
      <use x="783.240234" xlink:href="#DejaVuSans-74"/>
      <use x="822.449219" xlink:href="#DejaVuSans-69"/>
      <use x="850.232422" xlink:href="#DejaVuSans-6f"/>
      <use x="911.414062" xlink:href="#DejaVuSans-6e"/>
      <use x="974.792969" xlink:href="#DejaVuSans-2c"/>
      <use x="1006.580078" xlink:href="#DejaVuSans-74"/>
      <use x="1045.789062" xlink:href="#DejaVuSans-61"/>
      <use x="1107.068359" xlink:href="#DejaVuSans-72"/>
      <use x="1148.166016" xlink:href="#DejaVuSans-67"/>
      <use x="1211.642578" xlink:href="#DejaVuSans-65"/>
      <use x="1273.166016" xlink:href="#DejaVuSans-74"/>
      <use x="1312.375" xlink:href="#DejaVuSans-20"/>
      <use x="1344.162109" xlink:href="#DejaVuSans-70"/>
      <use x="1407.638672" xlink:href="#DejaVuSans-61"/>
      <use x="1468.917969" xlink:href="#DejaVuSans-69"/>
      <use x="1496.701172" xlink:href="#DejaVuSans-72"/>
      <use x="1537.814453" xlink:href="#DejaVuSans-73"/>
     </g>
    </g>
   </g>
   <g id="line2d_41">
    <defs>
     <path d="M 0 1.5 
C 0.397805 1.5 0.77937 1.341951 1.06066 1.06066 
C 1.341951 0.77937 1.5 0.397805 1.5 0 
C 1.5 -0.397805 1.341951 -0.77937 1.06066 -1.06066 
C 0.77937 -1.341951 0.397805 -1.5 0 -1.5 
C -0.397805 -1.5 -0.77937 -1.341951 -1.06066 -1.06066 
C -1.341951 -0.77937 -1.5 -0.397805 -1.5 0 
C -1.5 0.397805 -1.341951 0.77937 -1.06066 1.06066 
C -0.77937 1.341951 -0.397805 1.5 0 1.5 
z
" id="m42c6a64415" style="stroke:#f5deb3;"/>
    </defs>
    <g>
     <use style="fill:#f5deb3;stroke:#f5deb3;" x="189.116033" xlink:href="#m42c6a64415" y="27.513663"/>
     <use style="fill:#f5deb3;stroke:#f5deb3;" x="189.116033" xlink:href="#m42c6a64415" y="27.513663"/>
    </g>
   </g>
   <g id="line2d_42">
    <defs>
     <path d="M 0 1.5 
C 0.397805 1.5 0.77937 1.341951 1.06066 1.06066 
C 1.341951 0.77937 1.5 0.397805 1.5 0 
C 1.5 -0.397805 1.341951 -0.77937 1.06066 -1.06066 
C 0.77937 -1.341951 0.397805 -1.5 0 -1.5 
C -0.397805 -1.5 -0.77937 -1.341951 -1.06066 -1.06066 
C -1.341951 -0.77937 -1.5 -0.397805 -1.5 0 
C -1.5 0.397805 -1.341951 0.77937 -1.06066 1.06066 
C -0.77937 1.341951 -0.397805 1.5 0 1.5 
z
" id="m47033772ea" style="stroke:#000080;"/>
    </defs>
    <g>
     <use style="fill:#000080;stroke:#000080;" x="204.600164" xlink:href="#m47033772ea" y="27.513663"/>
     <use style="fill:#000080;stroke:#000080;" x="204.600164" xlink:href="#m47033772ea" y="27.513663"/>
    </g>
   </g>
   <g id="line2d_43">
    <path d="M 52.284468 294.88 
L 52.284468 294.355752 
L 80.787138 294.355752 
L 80.787138 293.831505 
L 93.887283 293.831505 
L 93.887283 293.307257 
L 99.67078 293.307257 
L 99.67078 292.783009 
L 105.218813 292.783009 
L 105.218813 292.258761 
L 105.991465 292.258761 
L 105.991465 291.734514 
L 106.730875 291.734514 
L 106.730875 291.210266 
L 109.864733 291.210266 
L 109.864733 290.161771 
L 111.448069 290.161771 
L 111.448069 289.637523 
L 112.122219 289.637523 
L 112.122219 288.589027 
L 114.696138 288.589027 
L 114.696138 287.540532 
L 119.526788 287.540532 
L 119.526788 287.016284 
L 120.034863 287.016284 
L 120.034863 285.967789 
L 120.609239 285.967789 
L 120.609239 285.443541 
L 121.627542 285.443541 
L 121.627542 284.919293 
L 122.444434 284.919293 
L 122.444434 284.395046 
L 123.430938 284.395046 
L 123.499282 283.34655 
L 127.115148 283.34655 
L 127.115148 282.298055 
L 130.604552 282.298055 
L 130.604552 281.773807 
L 131.049878 281.773807 
L 131.049878 281.249559 
L 131.612072 281.249559 
L 131.612072 280.725312 
L 131.949115 280.725312 
L 131.949115 280.201064 
L 132.238701 280.201064 
L 132.238701 279.676816 
L 132.442602 279.676816 
L 132.442602 279.152568 
L 132.644112 279.152568 
L 132.644112 278.628321 
L 133.805948 278.628321 
L 133.805948 278.104073 
L 137.070377 278.104073 
L 137.070377 276.53133 
L 139.917968 276.53133 
L 139.917968 276.007082 
L 140.460404 276.007082 
L 140.460404 274.958587 
L 142.69832 274.958587 
L 142.720629 273.910091 
L 146.236635 273.910091 
L 146.236635 273.385844 
L 147.581683 273.385844 
L 147.581683 272.337348 
L 149.548241 272.337348 
L 149.548241 271.8131 
L 149.904187 271.8131 
L 149.904187 271.288853 
L 150.846657 271.288853 
L 150.846657 270.764605 
L 152.962038 270.764605 
L 152.962038 270.240357 
L 154.010595 270.240357 
L 154.010595 269.716109 
L 155.064205 269.716109 
L 155.085935 268.143366 
L 160.35616 268.143366 
L 160.35616 267.619119 
L 161.6117 267.619119 
L 161.6117 267.094871 
L 162.487789 267.094871 
L 162.501901 266.046375 
L 163.301196 266.046375 
L 163.301196 265.522128 
L 163.588292 265.522128 
L 163.588292 264.99788 
L 164.244352 264.99788 
L 164.244352 262.900889 
L 165.253008 262.900889 
L 165.253008 262.376641 
L 166.414844 262.376641 
L 166.454119 260.803898 
L 169.89624 260.803898 
L 169.89624 259.755403 
L 171.61479 259.755403 
L 171.61479 259.231155 
L 171.972172 259.231155 
L 171.972172 258.706907 
L 172.206364 258.706907 
L 172.206364 258.18266 
L 173.911568 258.18266 
L 173.911568 257.658412 
L 175.594991 257.658412 
L 175.631174 256.609917 
L 176.09795 256.609917 
L 176.123514 255.561421 
L 176.496234 255.561421 
L 176.496234 254.512926 
L 176.63627 254.512926 
L 176.63627 253.988678 
L 177.173268 253.988678 
L 177.173268 253.46443 
L 177.491723 253.46443 
L 177.491723 252.940182 
L 177.850653 252.940182 
L 177.850653 252.415935 
L 178.017339 252.415935 
L 178.017339 251.891687 
L 178.906292 251.891687 
L 178.906292 251.367439 
L 179.351313 251.367439 
L 179.351313 249.794696 
L 179.611334 249.794696 
L 179.69714 247.697705 
L 180.450714 247.697705 
L 180.450714 244.027971 
L 180.591636 244.027971 
L 180.591636 243.503724 
L 180.88459 243.503724 
L 180.961874 239.83399 
L 181.373783 239.83399 
L 181.460612 237.736999 
L 181.71158 237.736999 
L 181.71158 237.212751 
L 181.870023 237.212751 
L 181.931627 235.640008 
L 182.218468 235.640008 
L 182.218468 234.067265 
L 182.403378 234.067265 
L 182.403378 233.543017 
L 182.675975 233.543017 
L 182.754313 232.494521 
L 182.970063 232.494521 
L 182.989349 230.397531 
L 183.108863 230.397531 
L 183.214874 226.727797 
L 183.710714 226.727797 
L 183.710714 226.203549 
L 183.896583 226.203549 
L 183.99382 225.155053 
L 184.292203 225.155053 
L 184.292203 224.630806 
L 184.499405 224.630806 
L 184.517049 223.58231 
L 184.787283 223.58231 
L 184.787283 223.058063 
L 184.906462 223.058063 
L 184.952375 219.912576 
L 185.198961 219.912576 
L 185.225306 218.339833 
L 185.414184 218.339833 
L 185.460617 215.718594 
L 185.564174 215.718594 
L 185.665279 213.097356 
L 185.749385 213.097356 
L 185.851222 209.95187 
L 185.979476 209.95187 
L 186.053104 207.854879 
L 186.154945 207.854879 
L 186.218955 205.757888 
L 186.332167 205.757888 
L 186.332167 203.136649 
L 186.453393 203.136649 
L 186.50409 201.039658 
L 186.585936 201.039658 
L 186.667395 197.894172 
L 186.757072 197.894172 
L 186.818883 195.272933 
L 186.895836 195.272933 
L 186.929927 192.651695 
L 187.035181 192.651695 
L 187.053788 190.554704 
L 187.191864 190.554704 
L 187.272177 187.933465 
L 187.340481 187.933465 
L 187.439953 183.739484 
L 187.507595 183.739484 
L 187.588089 177.972759 
L 187.624107 177.972759 
L 187.70243 176.400016 
L 187.752825 176.400016 
L 187.859627 172.206034 
L 187.89025 172.206034 
L 187.973784 168.5363 
L 188.036169 168.5363 
L 188.071261 166.439309 
L 188.185609 166.439309 
L 188.285043 162.245327 
L 188.310204 162.245327 
L 188.391727 160.148336 
L 188.429222 160.148336 
L 188.539671 158.051345 
L 188.570655 158.051345 
L 188.677125 151.236125 
L 188.753867 151.236125 
L 188.818066 142.848162 
L 188.868341 142.848162 
L 188.950293 140.751171 
L 189.007729 140.751171 
L 189.012256 139.178427 
L 189.120531 139.178427 
L 189.120531 138.65418 
L 189.235575 138.65418 
L 189.336537 134.984446 
L 189.377937 134.984446 
L 189.460441 130.790464 
L 189.491278 130.790464 
L 189.579079 128.693473 
L 189.670791 128.693473 
L 189.775009 123.975244 
L 189.796642 123.975244 
L 189.895803 120.829757 
L 189.964449 120.829757 
L 190.069744 115.063032 
L 190.100924 115.063032 
L 190.201166 110.344803 
L 190.25177 110.344803 
L 190.35393 108.247812 
L 190.383206 108.247812 
L 190.451324 106.150821 
L 190.63212 106.150821 
L 190.649959 105.102326 
L 190.768864 105.102326 
L 190.824616 99.335601 
L 190.892363 99.335601 
L 190.959844 94.093124 
L 191.021693 94.093124 
L 191.021693 93.568876 
L 191.154052 93.568876 
L 191.261594 92.520381 
L 191.315773 92.520381 
L 191.325006 91.471885 
L 191.448514 91.471885 
L 191.485133 88.850646 
L 191.730291 88.850646 
L 191.830456 87.277903 
L 191.850931 87.277903 
L 191.95167 82.559674 
L 192.117427 82.559674 
L 192.117427 81.511178 
L 192.25289 81.511178 
L 192.327688 77.317197 
L 192.425679 77.317197 
L 192.46151 76.268701 
L 192.600422 76.268701 
L 192.600422 75.744454 
L 192.825447 75.744454 
L 192.872511 74.17171 
L 192.939865 74.17171 
L 192.953065 72.598967 
L 193.35144 72.598967 
L 193.448442 71.550472 
L 193.474062 71.550472 
L 193.474062 71.026224 
L 193.723595 71.026224 
L 193.723595 70.501976 
L 193.869775 70.501976 
L 193.869775 69.453481 
L 194.247686 69.453481 
L 194.247686 68.404985 
L 199.258889 68.404985 
L 199.311999 66.307995 
L 199.654085 66.307995 
L 199.689786 65.259499 
L 200.307542 65.259499 
L 200.307542 64.735251 
L 200.436856 64.735251 
L 200.451596 63.162508 
L 200.898576 63.162508 
L 200.898576 62.638261 
L 201.020535 62.638261 
L 201.029534 61.065517 
L 201.16843 61.065517 
L 201.172149 60.017022 
L 201.408463 60.017022 
L 201.469961 57.920031 
L 201.640848 57.920031 
L 201.640848 56.871536 
L 201.810054 56.871536 
L 201.860135 54.774545 
L 201.964834 54.774545 
L 202.021546 51.104811 
L 202.080187 51.104811 
L 202.080187 50.056315 
L 202.272366 50.056315 
L 202.328074 45.862334 
L 202.487235 45.862334 
L 202.487235 44.28959 
L 202.672216 44.28959 
L 202.706934 39.571361 
L 202.926546 39.571361 
L 203.011607 38.522865 
L 203.153993 38.522865 
L 203.255732 35.901627 
L 203.321476 35.901627 
L 203.350979 34.328884 
L 203.519806 34.328884 
L 203.610378 32.231893 
L 203.784355 32.231893 
L 203.790742 31.183397 
L 204.026011 31.183397 
L 204.026011 30.65915 
L 204.150892 30.65915 
L 204.150892 29.610654 
L 204.364032 29.610654 
L 204.364032 29.086407 
L 204.487716 29.086407 
L 204.487716 28.037911 
L 204.600164 28.037911 
L 204.600164 27.513663 
L 333.168 27.513663 
L 333.168 27.513663 
" style="fill:none;stroke:#000080;stroke-linecap:square;stroke-width:1.5;"/>
   </g>
   <g id="line2d_44">
    <defs>
     <path d="M 0 6 
C 1.591219 6 3.117479 5.367802 4.242641 4.242641 
C 5.367802 3.117479 6 1.591219 6 0 
C 6 -1.591219 5.367802 -3.117479 4.242641 -4.242641 
C 3.117479 -5.367802 1.591219 -6 0 -6 
C -1.591219 -6 -3.117479 -5.367802 -4.242641 -4.242641 
C -5.367802 -3.117479 -6 -1.591219 -6 0 
C -6 1.591219 -5.367802 3.117479 -4.242641 4.242641 
C -3.117479 5.367802 -1.591219 6 0 6 
z
" id="m6efacdc736" style="stroke:#000080;stroke-width:1.5;"/>
    </defs>
    <g>
     <use style="fill-opacity:0;stroke:#000080;stroke-width:1.5;" x="147.581683" xlink:href="#m6efacdc736" y="273.385844"/>
     <use style="fill-opacity:0;stroke:#000080;stroke-width:1.5;" x="188.647873" xlink:href="#m6efacdc736" y="152.28462"/>
     <use style="fill-opacity:0;stroke:#000080;stroke-width:1.5;" x="204.600164" xlink:href="#m6efacdc736" y="28.037911"/>
     <use style="fill-opacity:0;stroke:#000080;stroke-width:1.5;" x="204.600164" xlink:href="#m6efacdc736" y="27.513663"/>
     <use style="fill-opacity:0;stroke:#000080;stroke-width:1.5;" x="204.600164" xlink:href="#m6efacdc736" y="27.513663"/>
     <use style="fill-opacity:0;stroke:#000080;stroke-width:1.5;" x="333.168" xlink:href="#m6efacdc736" y="27.513663"/>
    </g>
   </g>
   <g id="line2d_45">
    <path style="fill:none;stroke:#000080;stroke-linecap:square;stroke-width:1.5;"/>
    <g/>
   </g>
   <g id="line2d_46">
    <defs>
     <path d="M 0 1.5 
C 0.397805 1.5 0.77937 1.341951 1.06066 1.06066 
C 1.341951 0.77937 1.5 0.397805 1.5 0 
C 1.5 -0.397805 1.341951 -0.77937 1.06066 -1.06066 
C 0.77937 -1.341951 0.397805 -1.5 0 -1.5 
C -0.397805 -1.5 -0.77937 -1.341951 -1.06066 -1.06066 
C -1.341951 -0.77937 -1.5 -0.397805 -1.5 0 
C -1.5 0.397805 -1.341951 0.77937 -1.06066 1.06066 
C -0.77937 1.341951 -0.397805 1.5 0 1.5 
z
" id="mb73d5704d2" style="stroke:#ff00ff;"/>
    </defs>
    <g>
     <use style="fill:#ff00ff;stroke:#ff00ff;" x="226.426452" xlink:href="#mb73d5704d2" y="27.513663"/>
     <use style="fill:#ff00ff;stroke:#ff00ff;" x="226.426452" xlink:href="#mb73d5704d2" y="27.513663"/>
    </g>
   </g>
   <g id="line2d_47">
    <path d="M 28.455965 294.88 
L 28.455965 294.355752 
L 71.168109 294.355752 
L 71.168109 293.307257 
L 83.784035 293.307257 
L 83.784035 292.783009 
L 84.458185 292.783009 
L 84.458185 292.258761 
L 92.287186 292.258761 
L 92.287186 291.734514 
L 94.26507 291.734514 
L 94.26507 291.210266 
L 97.021141 291.210266 
L 97.021141 290.161771 
L 99.11626 290.161771 
L 99.11626 289.637523 
L 99.395756 289.637523 
L 99.395756 289.113275 
L 100.983527 289.113275 
L 100.983527 288.589027 
L 102.20309 288.589027 
L 102.20309 287.540532 
L 102.436953 287.540532 
L 102.436953 286.492036 
L 102.667676 286.492036 
L 102.667676 285.443541 
L 105.60948 285.443541 
L 105.60948 284.919293 
L 107.952917 284.919293 
L 107.952917 284.395046 
L 111.585031 284.395046 
L 111.585031 283.870798 
L 111.989488 283.870798 
L 111.989488 281.773807 
L 113.518374 281.773807 
L 113.518374 281.249559 
L 115.034286 281.249559 
L 115.034286 280.201064 
L 117.133064 280.201064 
L 117.133064 279.676816 
L 118.554421 279.676816 
L 118.554421 279.152568 
L 120.118102 279.152568 
L 120.118102 278.628321 
L 121.086731 278.628321 
L 121.086731 278.104073 
L 123.903739 278.104073 
L 123.903739 277.579825 
L 124.298898 277.579825 
L 124.298898 276.53133 
L 125.371564 276.53133 
L 125.371564 276.007082 
L 126.323427 276.007082 
L 126.323427 274.958587 
L 126.553378 274.958587 
L 126.553378 274.434339 
L 129.047315 274.434339 
L 129.047315 273.910091 
L 130.739365 273.910091 
L 130.739365 273.385844 
L 132.442602 273.385844 
L 132.442602 272.861596 
L 140.100689 272.861596 
L 140.15254 271.8131 
L 141.133577 271.8131 
L 141.133577 271.288853 
L 143.632361 271.288853 
L 143.632361 270.240357 
L 143.905035 270.240357 
L 143.925832 268.143366 
L 144.437741 268.143366 
L 144.437741 267.619119 
L 144.816844 267.619119 
L 144.816844 267.094871 
L 144.934844 267.094871 
L 144.934844 266.570623 
L 147.208003 266.570623 
L 147.208003 266.046375 
L 147.327785 266.046375 
L 147.327785 265.522128 
L 147.732242 265.522128 
L 147.732242 264.473632 
L 148.369839 264.473632 
L 148.369839 263.425137 
L 150.832756 263.425137 
L 150.832756 262.900889 
L 152.131386 262.900889 
L 152.131386 262.376641 
L 152.513938 262.376641 
L 152.513938 261.852394 
L 152.986593 261.852394 
L 152.986593 260.279651 
L 153.133192 260.279651 
L 153.133192 259.755403 
L 153.577492 259.755403 
L 153.577492 259.231155 
L 154.353922 259.231155 
L 154.410482 257.658412 
L 155.031558 257.658412 
L 155.031558 257.134164 
L 156.622212 257.134164 
L 156.622212 256.085669 
L 156.74096 256.085669 
L 156.74096 255.561421 
L 157.313159 255.561421 
L 157.408281 253.988678 
L 158.068927 253.988678 
L 158.068927 253.46443 
L 158.340618 253.46443 
L 158.340618 252.415935 
L 158.897563 252.415935 
L 158.897563 251.891687 
L 159.147992 251.891687 
L 159.147992 250.843192 
L 159.571378 250.843192 
L 159.571378 250.318944 
L 159.72128 250.318944 
L 159.72128 249.794696 
L 159.869886 249.794696 
L 159.886319 247.697705 
L 160.782346 247.697705 
L 160.782346 247.173458 
L 161.060711 247.173458 
L 161.114317 246.124962 
L 161.364807 246.124962 
L 161.364807 245.600714 
L 161.589401 245.600714 
L 161.589401 245.076467 
L 161.71538 245.076467 
L 161.766986 242.979476 
L 162.015466 242.979476 
L 162.015466 241.93098 
L 162.395776 241.93098 
L 162.395776 241.406733 
L 162.530091 241.406733 
L 162.530091 240.882485 
L 162.995522 240.882485 
L 162.995522 240.358237 
L 163.395197 240.358237 
L 163.395197 239.309742 
L 163.660971 239.309742 
L 163.660971 238.785494 
L 164.071407 238.785494 
L 164.142076 237.736999 
L 164.269826 237.736999 
L 164.269826 237.212751 
L 164.409262 237.212751 
L 164.409262 236.688503 
L 164.541314 236.688503 
L 164.647475 234.067265 
L 164.666141 234.067265 
L 164.666141 233.018769 
L 164.790068 233.018769 
L 164.814747 231.970274 
L 165.234968 231.970274 
L 165.307013 230.921778 
L 165.44426 230.921778 
L 165.550912 228.30054 
L 165.603991 228.30054 
L 165.603991 227.252044 
L 165.872751 227.252044 
L 165.872751 225.679301 
L 166.256838 225.679301 
L 166.256838 225.155053 
L 166.397984 225.155053 
L 166.397984 224.630806 
L 166.63253 224.630806 
L 166.64362 223.58231 
L 166.770637 223.58231 
L 166.803618 222.533815 
L 166.934913 222.533815 
L 166.934913 220.436824 
L 167.048979 220.436824 
L 167.048979 219.388328 
L 167.48727 219.388328 
L 167.56625 217.291338 
L 167.691868 217.291338 
L 167.691868 216.242842 
L 167.86827 216.242842 
L 167.960931 214.145851 
L 168.16 214.145851 
L 168.16 212.573108 
L 168.590991 212.573108 
L 168.635476 210.476117 
L 168.753544 210.476117 
L 168.846443 207.854879 
L 168.938842 207.854879 
L 169.045213 204.185145 
L 169.098153 204.185145 
L 169.170082 202.612401 
L 169.217869 202.612401 
L 169.241712 199.991163 
L 169.529968 199.991163 
L 169.614111 198.942667 
L 169.781173 198.942667 
L 169.781173 198.41842 
L 170.119561 198.41842 
L 170.20538 196.321429 
L 170.402489 196.321429 
L 170.455856 194.748686 
L 170.702735 194.748686 
L 170.720234 192.651695 
L 170.85959 192.651695 
L 170.933166 191.078952 
L 170.989219 191.078952 
L 171.045089 190.030456 
L 171.122149 190.030456 
L 171.122149 189.506209 
L 171.401782 189.506209 
L 171.401782 188.981961 
L 171.531572 188.981961 
L 171.61479 186.88497 
L 171.656248 186.88497 
L 171.656248 185.836474 
L 171.771802 185.836474 
L 171.771802 185.312227 
L 171.955902 185.312227 
L 172.037096 183.739484 
L 172.162193 183.739484 
L 172.266415 182.690988 
L 172.274406 182.690988 
L 172.274406 182.16674 
L 172.401759 182.16674 
L 172.401759 181.642493 
L 172.551776 181.642493 
L 172.551776 181.118245 
L 172.782132 181.118245 
L 172.832476 179.021254 
L 172.894237 179.021254 
L 172.894237 178.497006 
L 173.051492 178.497006 
L 173.127683 177.448511 
L 173.177026 177.448511 
L 173.214887 176.400016 
L 173.324213 176.400016 
L 173.358001 174.303025 
L 173.842428 174.303025 
L 173.842428 173.254529 
L 174.016565 173.254529 
L 174.016565 172.730281 
L 174.616002 172.730281 
L 174.616002 172.206034 
L 174.930321 172.206034 
L 174.930321 171.681786 
L 175.117545 171.681786 
L 175.117545 171.157538 
L 177.862201 171.157538 
L 177.862201 170.109043 
L 178.502352 170.109043 
L 178.502352 169.584795 
L 178.635298 169.584795 
L 178.635298 169.060547 
L 179.611334 169.060547 
L 179.611334 168.5363 
L 180.17545 168.5363 
L 180.17545 165.390813 
L 180.512664 165.390813 
L 180.512664 164.342318 
L 181.043611 164.342318 
L 181.113021 162.245327 
L 181.359661 162.245327 
L 181.359661 161.721079 
L 181.486342 161.721079 
L 181.488679 159.099841 
L 181.683875 159.099841 
L 181.704658 158.051345 
L 181.840283 158.051345 
L 181.854015 155.954354 
L 182.020222 155.954354 
L 182.020222 155.430107 
L 182.155637 155.430107 
L 182.247562 152.808868 
L 182.301143 152.808868 
L 182.301143 152.28462 
L 182.434372 152.28462 
L 182.509412 150.711877 
L 182.634485 150.711877 
L 182.634485 150.18763 
L 182.916379 150.18763 
L 183.02358 148.614886 
L 183.16619 148.614886 
L 183.25077 146.517896 
L 183.28238 146.517896 
L 183.28238 145.993648 
L 183.39779 145.993648 
L 183.424955 144.420905 
L 183.570499 144.420905 
L 183.620118 142.323914 
L 183.764025 142.323914 
L 183.81513 140.751171 
L 183.910798 140.751171 
L 184.018044 137.081437 
L 184.074433 137.081437 
L 184.150667 134.984446 
L 184.353638 134.984446 
L 184.424706 133.411703 
L 184.467992 133.411703 
L 184.558149 131.838959 
L 184.585495 131.838959 
L 184.692505 128.169225 
L 184.7022 128.169225 
L 184.74286 126.072235 
L 184.938996 126.072235 
L 184.938996 125.547987 
L 185.157479 125.547987 
L 185.163141 124.499491 
L 185.281625 124.499491 
L 185.388126 120.30551 
L 185.657946 120.30551 
L 185.657946 119.257014 
L 187.59792 119.257014 
L 187.629012 118.208519 
L 188.044151 118.208519 
L 188.106281 114.538785 
L 188.184026 114.538785 
L 188.184026 112.441794 
L 188.38234 112.441794 
L 188.38234 108.247812 
L 188.718608 108.247812 
L 188.759991 106.150821 
L 188.877466 106.150821 
L 188.877466 105.626573 
L 189.051434 105.626573 
L 189.104033 104.578078 
L 189.289099 104.578078 
L 189.397125 103.529583 
L 189.488343 103.529583 
L 189.552786 101.956839 
L 189.704152 101.956839 
L 189.746123 98.811353 
L 189.892937 98.811353 
L 189.892937 98.287105 
L 190.0314 98.287105 
L 190.100924 97.23861 
L 190.21805 97.23861 
L 190.21805 96.714362 
L 190.579871 96.714362 
L 190.579871 96.190115 
L 190.793363 96.190115 
L 190.793363 95.665867 
L 190.919387 95.665867 
L 190.990796 94.093124 
L 191.228474 94.093124 
L 191.228474 93.044628 
L 191.406568 93.044628 
L 191.406568 92.520381 
L 191.56334 92.520381 
L 191.634719 90.42339 
L 191.763744 90.42339 
L 191.815084 86.229408 
L 192.00879 86.229408 
L 192.00879 84.132417 
L 192.131273 84.132417 
L 192.205349 83.083922 
L 192.394729 83.083922 
L 192.394729 81.511178 
L 192.518194 81.511178 
L 192.518194 80.986931 
L 193.967297 80.986931 
L 193.967297 80.462683 
L 194.472045 80.462683 
L 194.536707 78.88994 
L 194.615289 78.88994 
L 194.615289 78.365692 
L 194.743304 78.365692 
L 194.840306 77.317197 
L 194.986921 77.317197 
L 195.019923 74.695958 
L 195.114323 74.695958 
L 195.114323 74.17171 
L 195.244988 74.17171 
L 195.30472 72.074719 
L 195.733463 72.074719 
L 195.770156 70.501976 
L 195.866611 70.501976 
L 195.977623 68.929233 
L 196.018817 68.929233 
L 196.09192 67.35649 
L 196.333046 67.35649 
L 196.333046 66.832242 
L 196.462624 66.832242 
L 196.57278 62.638261 
L 196.614513 62.638261 
L 196.691887 61.065517 
L 196.782358 61.065517 
L 196.854203 59.492774 
L 196.933363 59.492774 
L 196.933363 58.444279 
L 197.138617 58.444279 
L 197.157412 56.871536 
L 203.262976 56.871536 
L 203.262976 56.347288 
L 203.407874 56.347288 
L 203.51786 54.250297 
L 203.599405 54.250297 
L 203.690203 51.629058 
L 203.792657 51.629058 
L 203.858927 50.056315 
L 203.955325 50.056315 
L 204.059988 44.813838 
L 204.110828 44.813838 
L 204.208943 42.716847 
L 204.31951 42.716847 
L 204.383782 41.668352 
L 204.441669 41.668352 
L 204.550753 39.047113 
L 204.609299 39.047113 
L 204.660363 37.47437 
L 226.139013 37.47437 
L 226.207426 32.756141 
L 226.282125 32.756141 
L 226.364918 29.086407 
L 226.407278 29.086407 
L 226.426452 27.513663 
L 333.168 27.513663 
L 333.168 27.513663 
" style="fill:none;stroke:#ff00ff;stroke-linecap:square;stroke-width:1.5;"/>
   </g>
   <g id="line2d_48">
    <defs>
     <path d="M -0 8.485281 
L 5.091169 0 
L 0 -8.485281 
L -5.091169 -0 
z
" id="md876f27cd0" style="stroke:#ff00ff;stroke-linejoin:miter;stroke-width:1.5;"/>
    </defs>
    <g>
     <use style="fill-opacity:0;stroke:#ff00ff;stroke-linejoin:miter;stroke-width:1.5;" x="99.11626" xlink:href="#md876f27cd0" y="289.637523"/>
     <use style="fill-opacity:0;stroke:#ff00ff;stroke-linejoin:miter;stroke-width:1.5;" x="163.660971" xlink:href="#md876f27cd0" y="238.785494"/>
     <use style="fill-opacity:0;stroke:#ff00ff;stroke-linejoin:miter;stroke-width:1.5;" x="189.892937" xlink:href="#md876f27cd0" y="98.287105"/>
     <use style="fill-opacity:0;stroke:#ff00ff;stroke-linejoin:miter;stroke-width:1.5;" x="226.426452" xlink:href="#md876f27cd0" y="28.037911"/>
     <use style="fill-opacity:0;stroke:#ff00ff;stroke-linejoin:miter;stroke-width:1.5;" x="226.426452" xlink:href="#md876f27cd0" y="27.513663"/>
     <use style="fill-opacity:0;stroke:#ff00ff;stroke-linejoin:miter;stroke-width:1.5;" x="333.168" xlink:href="#md876f27cd0" y="27.513663"/>
    </g>
   </g>
   <g id="line2d_49">
    <path style="fill:none;stroke:#ff00ff;stroke-linecap:square;stroke-width:1.5;"/>
    <g/>
   </g>
   <g id="line2d_50">
    <defs>
     <path d="M 0 1.5 
C 0.397805 1.5 0.77937 1.341951 1.06066 1.06066 
C 1.341951 0.77937 1.5 0.397805 1.5 0 
C 1.5 -0.397805 1.341951 -0.77937 1.06066 -1.06066 
C 0.77937 -1.341951 0.397805 -1.5 0 -1.5 
C -0.397805 -1.5 -0.77937 -1.341951 -1.06066 -1.06066 
C -1.341951 -0.77937 -1.5 -0.397805 -1.5 0 
C -1.5 0.397805 -1.341951 0.77937 -1.06066 1.06066 
C -0.77937 1.341951 -0.397805 1.5 0 1.5 
z
" id="m111d3d4f45" style="stroke:#ffa500;"/>
    </defs>
    <g>
     <use style="fill:#ffa500;stroke:#ffa500;" x="373.64295" xlink:href="#m111d3d4f45" y="27.513663"/>
     <use style="fill:#ffa500;stroke:#ffa500;" x="373.64295" xlink:href="#m111d3d4f45" y="27.513663"/>
    </g>
   </g>
   <g id="line2d_51">
    <path d="M 66.223248 294.88 
L 66.223248 293.307257 
L 85.732 293.307257 
L 85.732 292.783009 
L 86.335171 292.783009 
L 86.335171 292.258761 
L 90.522701 292.258761 
L 90.522701 291.734514 
L 91.427575 291.734514 
L 91.427575 291.210266 
L 92.287186 291.210266 
L 92.287186 290.686018 
L 93.105847 290.686018 
L 93.105847 290.161771 
L 96.372436 290.161771 
L 96.372436 289.637523 
L 98.543252 289.637523 
L 98.543252 289.113275 
L 100.470395 289.113275 
L 100.470395 288.589027 
L 101.23446 288.589027 
L 101.23446 287.540532 
L 102.20309 287.540532 
L 102.20309 287.016284 
L 103.777005 287.016284 
L 103.777005 286.492036 
L 104.615641 286.492036 
L 104.615641 285.443541 
L 104.819059 285.443541 
L 104.819059 284.919293 
L 105.218813 284.919293 
L 105.218813 284.395046 
L 107.26528 284.395046 
L 107.26528 283.870798 
L 109.560502 283.870798 
L 109.560502 282.822302 
L 109.864733 282.822302 
L 109.864733 282.298055 
L 111.989488 282.298055 
L 111.989488 280.725312 
L 113.518374 280.725312 
L 113.518374 280.201064 
L 115.256077 280.201064 
L 115.256077 279.676816 
L 116.115688 279.676816 
L 116.220179 278.628321 
L 121.929105 278.628321 
L 121.929105 278.104073 
L 124.363883 278.104073 
L 124.363883 277.055578 
L 127.712602 277.055578 
L 127.819033 275.482834 
L 128.39291 275.482834 
L 128.39291 274.958587 
L 130.514085 274.958587 
L 130.514085 274.434339 
L 131.224827 274.434339 
L 131.224827 273.910091 
L 133.880682 273.910091 
L 133.880682 272.861596 
L 134.681992 272.861596 
L 134.681992 272.337348 
L 135.379395 272.337348 
L 135.481607 269.716109 
L 138.179706 269.716109 
L 138.179706 268.667614 
L 139.865404 268.667614 
L 139.865404 268.143366 
L 143.35529 268.143366 
L 143.35529 267.619119 
L 151.067558 267.619119 
L 151.067558 267.094871 
L 154.285803 267.094871 
L 154.285803 266.570623 
L 158.050661 266.570623 
L 158.050661 266.046375 
L 158.888862 266.046375 
L 158.888862 265.522128 
L 159.927332 265.522128 
L 159.927332 264.99788 
L 160.570574 264.99788 
L 160.570574 264.473632 
L 161.167758 264.473632 
L 161.167758 263.949385 
L 161.417476 263.949385 
L 161.417476 263.425137 
L 161.633969 263.425137 
L 161.633969 262.900889 
L 161.862418 262.900889 
L 161.957322 261.328146 
L 161.979149 261.328146 
L 161.979149 260.803898 
L 162.25325 260.803898 
L 162.25325 260.279651 
L 163.435326 260.279651 
L 163.448681 258.706907 
L 163.916204 258.706907 
L 163.916204 258.18266 
L 165.609878 258.18266 
L 165.609878 257.658412 
L 173.758358 257.658412 
L 173.758358 257.134164 
L 184.773775 257.134164 
L 184.773775 256.609917 
L 185.051434 256.609917 
L 185.051434 256.085669 
L 187.134747 256.085669 
L 187.134747 255.037173 
L 187.622471 255.037173 
L 187.622471 254.512926 
L 188.336898 254.512926 
L 188.336898 253.46443 
L 190.146176 253.46443 
L 190.146176 252.940182 
L 192.007522 252.940182 
L 192.007522 252.415935 
L 212.487543 252.415935 
L 212.487543 251.367439 
L 228.337052 251.367439 
L 228.337052 250.843192 
L 234.953056 250.843192 
L 234.953056 250.318944 
L 258.066991 250.318944 
L 258.066991 249.794696 
L 262.101939 249.794696 
L 262.101939 249.270448 
L 267.157577 249.270448 
L 267.157577 248.746201 
L 269.839195 248.746201 
L 269.839195 248.221953 
L 275.029964 248.221953 
L 275.029964 247.173458 
L 275.360485 247.173458 
L 275.369289 227.252044 
L 285.521591 227.252044 
L 285.521591 225.679301 
L 288.140806 225.679301 
L 288.14394 224.106558 
L 293.606987 224.106558 
L 293.606987 223.58231 
L 295.642724 223.58231 
L 295.6455 222.533815 
L 298.700536 222.533815 
L 298.705474 209.95187 
L 305.515134 209.95187 
L 305.515134 209.427622 
L 305.776416 209.427622 
L 305.776416 208.903374 
L 308.24911 208.903374 
L 308.253092 196.321429 
L 310.181144 196.321429 
L 310.181144 195.797181 
L 314.351368 195.797181 
L 314.354887 184.787979 
L 317.423946 184.787979 
L 317.423946 184.263731 
L 317.955814 184.263731 
L 317.955814 183.739484 
L 318.84567 183.739484 
L 318.847844 174.827272 
L 321.688017 174.827272 
L 321.688017 174.303025 
L 322.40501 174.303025 
L 322.408275 159.099841 
L 325.352265 159.099841 
L 325.354494 150.711877 
L 327.0979 150.711877 
L 327.119137 149.663382 
L 327.86761 149.663382 
L 327.869564 141.275418 
L 330.06148 141.275418 
L 330.062915 131.838959 
L 332.006336 131.838959 
L 332.008678 127.12073 
L 333.168 127.12073 
L 333.168 127.12073 
" style="fill:none;stroke:#ffa500;stroke-linecap:square;stroke-width:1.5;"/>
   </g>
   <g id="line2d_52">
    <defs>
     <path d="M 0 -6 
L -1.347084 -1.854102 
L -5.706339 -1.854102 
L -2.179628 0.708204 
L -3.526712 4.854102 
L -0 2.291796 
L 3.526712 4.854102 
L 2.179628 0.708204 
L 5.706339 -1.854102 
L 1.347084 -1.854102 
z
" id="mbd5213293d" style="stroke:#ffa500;stroke-linejoin:bevel;stroke-width:1.5;"/>
    </defs>
    <g>
     <use style="fill-opacity:0;stroke:#ffa500;stroke-linejoin:bevel;stroke-width:1.5;" x="154.285803" xlink:href="#mbd5213293d" y="267.094871"/>
     <use style="fill-opacity:0;stroke:#ffa500;stroke-linejoin:bevel;stroke-width:1.5;" x="234.953056" xlink:href="#mbd5213293d" y="250.843192"/>
     <use style="fill-opacity:0;stroke:#ffa500;stroke-linejoin:bevel;stroke-width:1.5;" x="322.405986" xlink:href="#mbd5213293d" y="169.060547"/>
     <use style="fill-opacity:0;stroke:#ffa500;stroke-linejoin:bevel;stroke-width:1.5;" x="332.008678" xlink:href="#mbd5213293d" y="127.12073"/>
     <use style="fill-opacity:0;stroke:#ffa500;stroke-linejoin:bevel;stroke-width:1.5;" x="333.168" xlink:href="#mbd5213293d" y="127.12073"/>
    </g>
   </g>
   <g id="line2d_53">
    <path style="fill:none;stroke:#ffa500;stroke-linecap:square;stroke-width:1.5;"/>
    <g/>
   </g>
   <g id="line2d_54">
    <path clip-path="url(#pa42815383f)" d="M 293.590343 224.106558 
" style="fill:none;stroke:#ffa500;stroke-linecap:square;stroke-width:1.5;"/>
    <defs>
     <path d="M -12 12 
L 12 -12 
M -12 -12 
L 12 12 
" id="ma13dc91e26" style="stroke:#ffa500;"/>
    </defs>
    <g clip-path="url(#pa42815383f)">
     <use style="fill:#ffa500;stroke:#ffa500;" x="293.590343" xlink:href="#ma13dc91e26" y="224.106558"/>
    </g>
   </g>
   <g id="line2d_55">
    <path d="M 333.168 127.12073 
L 363.64328 289.532673 
" style="fill:none;stroke:#ffa500;stroke-linecap:square;stroke-width:1.5;"/>
    <g>
     <use style="fill-opacity:0;stroke:#ffa500;stroke-linejoin:bevel;stroke-width:1.5;" x="333.168" xlink:href="#mbd5213293d" y="127.12073"/>
     <use style="fill-opacity:0;stroke:#ffa500;stroke-linejoin:bevel;stroke-width:1.5;" x="363.64328" xlink:href="#mbd5213293d" y="289.532673"/>
    </g>
   </g>
   <g id="line2d_56">
    <path d="M 333.168 27.513663 
L 363.64328 203.975446 
" style="fill:none;stroke:#ff00ff;stroke-linecap:square;stroke-width:1.5;"/>
    <g>
     <use style="fill-opacity:0;stroke:#ff00ff;stroke-linejoin:miter;stroke-width:1.5;" x="333.168" xlink:href="#md876f27cd0" y="27.513663"/>
     <use style="fill-opacity:0;stroke:#ff00ff;stroke-linejoin:miter;stroke-width:1.5;" x="363.64328" xlink:href="#md876f27cd0" y="203.975446"/>
    </g>
   </g>
   <g id="line2d_57">
    <path d="M 333.168 27.513663 
L 363.64328 118.418218 
" style="fill:none;stroke:#000080;stroke-linecap:square;stroke-width:1.5;"/>
    <g>
     <use style="fill-opacity:0;stroke:#000080;stroke-width:1.5;" x="333.168" xlink:href="#m6efacdc736" y="27.513663"/>
     <use style="fill-opacity:0;stroke:#000080;stroke-width:1.5;" x="363.64328" xlink:href="#m6efacdc736" y="118.418218"/>
    </g>
   </g>
   <g id="line2d_58">
    <path d="M 333.168 294.88 
L 333.168 27.513663 
" style="fill:none;stroke:#000000;stroke-linecap:square;stroke-width:1.5;"/>
   </g>
   <g id="patch_3">
    <path d="M 56.12 294.88 
L 56.12 24.84 
" style="fill:none;stroke:#000000;stroke-linecap:square;stroke-linejoin:miter;stroke-width:0.8;"/>
   </g>
   <g id="patch_4">
    <path d="M 333.168 294.88 
L 333.168 24.84 
" style="fill:none;stroke:#000000;stroke-linecap:square;stroke-linejoin:miter;stroke-width:0.8;"/>
   </g>
   <g id="patch_5">
    <path d="M 56.12 294.88 
L 333.168 294.88 
" style="fill:none;stroke:#000000;stroke-linecap:square;stroke-linejoin:miter;stroke-width:0.8;"/>
   </g>
   <g id="patch_6">
    <path d="M 56.12 24.84 
L 333.168 24.84 
" style="fill:none;stroke:#000000;stroke-linecap:square;stroke-linejoin:miter;stroke-width:0.8;"/>
   </g>
   <g id="text_13">
    <!-- KL-BIPOP- -->
    <defs>
     <path d="M 9.8125 72.90625 
L 19.671875 72.90625 
L 19.671875 42.09375 
L 52.390625 72.90625 
L 65.09375 72.90625 
L 28.90625 38.921875 
L 67.671875 0 
L 54.6875 0 
L 19.671875 35.109375 
L 19.671875 0 
L 9.8125 0 
z
" id="DejaVuSans-4b"/>
     <path d="M 9.8125 72.90625 
L 19.671875 72.90625 
L 19.671875 8.296875 
L 55.171875 8.296875 
L 55.171875 0 
L 9.8125 0 
z
" id="DejaVuSans-4c"/>
     <path d="M 19.671875 34.8125 
L 19.671875 8.109375 
L 35.5 8.109375 
Q 43.453125 8.109375 47.28125 11.40625 
Q 51.125 14.703125 51.125 21.484375 
Q 51.125 28.328125 47.28125 31.5625 
Q 43.453125 34.8125 35.5 34.8125 
z
M 19.671875 64.796875 
L 19.671875 42.828125 
L 34.28125 42.828125 
Q 41.5 42.828125 45.03125 45.53125 
Q 48.578125 48.25 48.578125 53.8125 
Q 48.578125 59.328125 45.03125 62.0625 
Q 41.5 64.796875 34.28125 64.796875 
z
M 9.8125 72.90625 
L 35.015625 72.90625 
Q 46.296875 72.90625 52.390625 68.21875 
Q 58.5 63.53125 58.5 54.890625 
Q 58.5 48.1875 55.375 44.234375 
Q 52.25 40.28125 46.1875 39.3125 
Q 53.46875 37.75 57.5 32.78125 
Q 61.53125 27.828125 61.53125 20.40625 
Q 61.53125 10.640625 54.890625 5.3125 
Q 48.25 0 35.984375 0 
L 9.8125 0 
z
" id="DejaVuSans-42"/>
     <path d="M 9.8125 72.90625 
L 19.671875 72.90625 
L 19.671875 0 
L 9.8125 0 
z
" id="DejaVuSans-49"/>
     <path d="M 19.671875 64.796875 
L 19.671875 37.40625 
L 32.078125 37.40625 
Q 38.96875 37.40625 42.71875 40.96875 
Q 46.484375 44.53125 46.484375 51.125 
Q 46.484375 57.671875 42.71875 61.234375 
Q 38.96875 64.796875 32.078125 64.796875 
z
M 9.8125 72.90625 
L 32.078125 72.90625 
Q 44.34375 72.90625 50.609375 67.359375 
Q 56.890625 61.8125 56.890625 51.125 
Q 56.890625 40.328125 50.609375 34.8125 
Q 44.34375 29.296875 32.078125 29.296875 
L 19.671875 29.296875 
L 19.671875 0 
L 9.8125 0 
z
" id="DejaVuSans-50"/>
     <path d="M 39.40625 66.21875 
Q 28.65625 66.21875 22.328125 58.203125 
Q 16.015625 50.203125 16.015625 36.375 
Q 16.015625 22.609375 22.328125 14.59375 
Q 28.65625 6.59375 39.40625 6.59375 
Q 50.140625 6.59375 56.421875 14.59375 
Q 62.703125 22.609375 62.703125 36.375 
Q 62.703125 50.203125 56.421875 58.203125 
Q 50.140625 66.21875 39.40625 66.21875 
z
M 39.40625 74.21875 
Q 54.734375 74.21875 63.90625 63.9375 
Q 73.09375 53.65625 73.09375 36.375 
Q 73.09375 19.140625 63.90625 8.859375 
Q 54.734375 -1.421875 39.40625 -1.421875 
Q 24.03125 -1.421875 14.8125 8.828125 
Q 5.609375 19.09375 5.609375 36.375 
Q 5.609375 53.65625 14.8125 63.9375 
Q 24.03125 74.21875 39.40625 74.21875 
z
" id="DejaVuSans-4f"/>
    </defs>
    <g transform="translate(369.18424 294.223611)scale(0.17 -0.17)">
     <use xlink:href="#DejaVuSans-4b"/>
     <use x="65.576172" xlink:href="#DejaVuSans-4c"/>
     <use x="121.273438" xlink:href="#DejaVuSans-2d"/>
     <use x="157.310547" xlink:href="#DejaVuSans-42"/>
     <use x="225.914062" xlink:href="#DejaVuSans-49"/>
     <use x="255.40625" xlink:href="#DejaVuSans-50"/>
     <use x="315.708984" xlink:href="#DejaVuSans-4f"/>
     <use x="394.419922" xlink:href="#DejaVuSans-50"/>
     <use x="454.691406" xlink:href="#DejaVuSans-2d"/>
    </g>
   </g>
   <g id="text_14">
    <!-- R-SHADE-T -->
    <defs>
     <path d="M 44.390625 34.1875 
Q 47.5625 33.109375 50.5625 29.59375 
Q 53.5625 26.078125 56.59375 19.921875 
L 66.609375 0 
L 56 0 
L 46.6875 18.703125 
Q 43.0625 26.03125 39.671875 28.421875 
Q 36.28125 30.8125 30.421875 30.8125 
L 19.671875 30.8125 
L 19.671875 0 
L 9.8125 0 
L 9.8125 72.90625 
L 32.078125 72.90625 
Q 44.578125 72.90625 50.734375 67.671875 
Q 56.890625 62.453125 56.890625 51.90625 
Q 56.890625 45.015625 53.6875 40.46875 
Q 50.484375 35.9375 44.390625 34.1875 
z
M 19.671875 64.796875 
L 19.671875 38.921875 
L 32.078125 38.921875 
Q 39.203125 38.921875 42.84375 42.21875 
Q 46.484375 45.515625 46.484375 51.90625 
Q 46.484375 58.296875 42.84375 61.546875 
Q 39.203125 64.796875 32.078125 64.796875 
z
" id="DejaVuSans-52"/>
     <path d="M 53.515625 70.515625 
L 53.515625 60.890625 
Q 47.90625 63.578125 42.921875 64.890625 
Q 37.9375 66.21875 33.296875 66.21875 
Q 25.25 66.21875 20.875 63.09375 
Q 16.5 59.96875 16.5 54.203125 
Q 16.5 49.359375 19.40625 46.890625 
Q 22.3125 44.4375 30.421875 42.921875 
L 36.375 41.703125 
Q 47.40625 39.59375 52.65625 34.296875 
Q 57.90625 29 57.90625 20.125 
Q 57.90625 9.515625 50.796875 4.046875 
Q 43.703125 -1.421875 29.984375 -1.421875 
Q 24.8125 -1.421875 18.96875 -0.25 
Q 13.140625 0.921875 6.890625 3.21875 
L 6.890625 13.375 
Q 12.890625 10.015625 18.65625 8.296875 
Q 24.421875 6.59375 29.984375 6.59375 
Q 38.421875 6.59375 43.015625 9.90625 
Q 47.609375 13.234375 47.609375 19.390625 
Q 47.609375 24.75 44.3125 27.78125 
Q 41.015625 30.8125 33.5 32.328125 
L 27.484375 33.5 
Q 16.453125 35.6875 11.515625 40.375 
Q 6.59375 45.0625 6.59375 53.421875 
Q 6.59375 63.09375 13.40625 68.65625 
Q 20.21875 74.21875 32.171875 74.21875 
Q 37.3125 74.21875 42.625 73.28125 
Q 47.953125 72.359375 53.515625 70.515625 
z
" id="DejaVuSans-53"/>
     <path d="M 9.8125 72.90625 
L 19.671875 72.90625 
L 19.671875 43.015625 
L 55.515625 43.015625 
L 55.515625 72.90625 
L 65.375 72.90625 
L 65.375 0 
L 55.515625 0 
L 55.515625 34.71875 
L 19.671875 34.71875 
L 19.671875 0 
L 9.8125 0 
z
" id="DejaVuSans-48"/>
     <path d="M 34.1875 63.1875 
L 20.796875 26.90625 
L 47.609375 26.90625 
z
M 28.609375 72.90625 
L 39.796875 72.90625 
L 67.578125 0 
L 57.328125 0 
L 50.6875 18.703125 
L 17.828125 18.703125 
L 11.1875 0 
L 0.78125 0 
z
" id="DejaVuSans-41"/>
     <path d="M 19.671875 64.796875 
L 19.671875 8.109375 
L 31.59375 8.109375 
Q 46.6875 8.109375 53.6875 14.9375 
Q 60.6875 21.78125 60.6875 36.53125 
Q 60.6875 51.171875 53.6875 57.984375 
Q 46.6875 64.796875 31.59375 64.796875 
z
M 9.8125 72.90625 
L 30.078125 72.90625 
Q 51.265625 72.90625 61.171875 64.09375 
Q 71.09375 55.28125 71.09375 36.53125 
Q 71.09375 17.671875 61.125 8.828125 
Q 51.171875 0 30.078125 0 
L 9.8125 0 
z
" id="DejaVuSans-44"/>
     <path d="M 9.8125 72.90625 
L 55.90625 72.90625 
L 55.90625 64.59375 
L 19.671875 64.59375 
L 19.671875 43.015625 
L 54.390625 43.015625 
L 54.390625 34.71875 
L 19.671875 34.71875 
L 19.671875 8.296875 
L 56.78125 8.296875 
L 56.78125 0 
L 9.8125 0 
z
" id="DejaVuSans-45"/>
     <path d="M -0.296875 72.90625 
L 61.375 72.90625 
L 61.375 64.59375 
L 35.5 64.59375 
L 35.5 0 
L 25.59375 0 
L 25.59375 64.59375 
L -0.296875 64.59375 
z
" id="DejaVuSans-54"/>
    </defs>
    <g transform="translate(369.18424 208.666383)scale(0.17 -0.17)">
     <use xlink:href="#DejaVuSans-52"/>
     <use x="69.419922" xlink:href="#DejaVuSans-2d"/>
     <use x="105.503906" xlink:href="#DejaVuSans-53"/>
     <use x="168.980469" xlink:href="#DejaVuSans-48"/>
     <use x="244.175781" xlink:href="#DejaVuSans-41"/>
     <use x="312.583984" xlink:href="#DejaVuSans-44"/>
     <use x="389.585938" xlink:href="#DejaVuSans-45"/>
     <use x="452.769531" xlink:href="#DejaVuSans-2d"/>
     <use x="488.712891" xlink:href="#DejaVuSans-54"/>
    </g>
   </g>
   <g id="text_15">
    <!-- SHADE2-BL -->
    <g transform="translate(369.18424 123.109155)scale(0.17 -0.17)">
     <use xlink:href="#DejaVuSans-53"/>
     <use x="63.476562" xlink:href="#DejaVuSans-48"/>
     <use x="138.671875" xlink:href="#DejaVuSans-41"/>
     <use x="207.080078" xlink:href="#DejaVuSans-44"/>
     <use x="284.082031" xlink:href="#DejaVuSans-45"/>
     <use x="347.265625" xlink:href="#DejaVuSans-32"/>
     <use x="410.888672" xlink:href="#DejaVuSans-2d"/>
     <use x="446.925781" xlink:href="#DejaVuSans-42"/>
     <use x="515.529297" xlink:href="#DejaVuSans-4c"/>
    </g>
   </g>
   <g id="text_16">
    <!-- best 2009 -->
    <defs>
     <path d="M 48.6875 27.296875 
Q 48.6875 37.203125 44.609375 42.84375 
Q 40.53125 48.484375 33.40625 48.484375 
Q 26.265625 48.484375 22.1875 42.84375 
Q 18.109375 37.203125 18.109375 27.296875 
Q 18.109375 17.390625 22.1875 11.75 
Q 26.265625 6.109375 33.40625 6.109375 
Q 40.53125 6.109375 44.609375 11.75 
Q 48.6875 17.390625 48.6875 27.296875 
z
M 18.109375 46.390625 
Q 20.953125 51.265625 25.265625 53.625 
Q 29.59375 56 35.59375 56 
Q 45.5625 56 51.78125 48.09375 
Q 58.015625 40.1875 58.015625 27.296875 
Q 58.015625 14.40625 51.78125 6.484375 
Q 45.5625 -1.421875 35.59375 -1.421875 
Q 29.59375 -1.421875 25.265625 0.953125 
Q 20.953125 3.328125 18.109375 8.203125 
L 18.109375 0 
L 9.078125 0 
L 9.078125 75.984375 
L 18.109375 75.984375 
z
" id="DejaVuSans-62"/>
     <path d="M 10.984375 1.515625 
L 10.984375 10.5 
Q 14.703125 8.734375 18.5 7.8125 
Q 22.3125 6.890625 25.984375 6.890625 
Q 35.75 6.890625 40.890625 13.453125 
Q 46.046875 20.015625 46.78125 33.40625 
Q 43.953125 29.203125 39.59375 26.953125 
Q 35.25 24.703125 29.984375 24.703125 
Q 19.046875 24.703125 12.671875 31.3125 
Q 6.296875 37.9375 6.296875 49.421875 
Q 6.296875 60.640625 12.9375 67.421875 
Q 19.578125 74.21875 30.609375 74.21875 
Q 43.265625 74.21875 49.921875 64.515625 
Q 56.59375 54.828125 56.59375 36.375 
Q 56.59375 19.140625 48.40625 8.859375 
Q 40.234375 -1.421875 26.421875 -1.421875 
Q 22.703125 -1.421875 18.890625 -0.6875 
Q 15.09375 0.046875 10.984375 1.515625 
z
M 30.609375 32.421875 
Q 37.25 32.421875 41.125 36.953125 
Q 45.015625 41.5 45.015625 49.421875 
Q 45.015625 57.28125 41.125 61.84375 
Q 37.25 66.40625 30.609375 66.40625 
Q 23.96875 66.40625 20.09375 61.84375 
Q 16.21875 57.28125 16.21875 49.421875 
Q 16.21875 41.5 20.09375 36.953125 
Q 23.96875 32.421875 30.609375 32.421875 
z
" id="DejaVuSans-39"/>
    </defs>
    <g transform="translate(369.18424 37.551928)scale(0.17 -0.17)">
     <use xlink:href="#DejaVuSans-62"/>
     <use x="63.476562" xlink:href="#DejaVuSans-65"/>
     <use x="125" xlink:href="#DejaVuSans-73"/>
     <use x="177.099609" xlink:href="#DejaVuSans-74"/>
     <use x="216.308594" xlink:href="#DejaVuSans-20"/>
     <use x="248.095703" xlink:href="#DejaVuSans-32"/>
     <use x="311.71875" xlink:href="#DejaVuSans-30"/>
     <use x="375.341797" xlink:href="#DejaVuSans-30"/>
     <use x="438.964844" xlink:href="#DejaVuSans-39"/>
    </g>
   </g>
   <g id="text_17">
    <!-- bbob f4, 5-D -->
    <defs>
     <path d="M 10.796875 72.90625 
L 49.515625 72.90625 
L 49.515625 64.59375 
L 19.828125 64.59375 
L 19.828125 46.734375 
Q 21.96875 47.46875 24.109375 47.828125 
Q 26.265625 48.1875 28.421875 48.1875 
Q 40.625 48.1875 47.75 41.5 
Q 54.890625 34.8125 54.890625 23.390625 
Q 54.890625 11.625 47.5625 5.09375 
Q 40.234375 -1.421875 26.90625 -1.421875 
Q 22.3125 -1.421875 17.546875 -0.640625 
Q 12.796875 0.140625 7.71875 1.703125 
L 7.71875 11.625 
Q 12.109375 9.234375 16.796875 8.0625 
Q 21.484375 6.890625 26.703125 6.890625 
Q 35.15625 6.890625 40.078125 11.328125 
Q 45.015625 15.765625 45.015625 23.390625 
Q 45.015625 31 40.078125 35.4375 
Q 35.15625 39.890625 26.703125 39.890625 
Q 22.75 39.890625 18.8125 39.015625 
Q 14.890625 38.140625 10.796875 36.28125 
z
" id="DejaVuSans-35"/>
    </defs>
    <g transform="translate(58.89048 35.290806)scale(0.102 -0.102)">
     <use xlink:href="#DejaVuSans-62"/>
     <use x="63.476562" xlink:href="#DejaVuSans-62"/>
     <use x="126.953125" xlink:href="#DejaVuSans-6f"/>
     <use x="188.134766" xlink:href="#DejaVuSans-62"/>
     <use x="251.611328" xlink:href="#DejaVuSans-20"/>
     <use x="283.398438" xlink:href="#DejaVuSans-66"/>
     <use x="318.603516" xlink:href="#DejaVuSans-34"/>
     <use x="382.226562" xlink:href="#DejaVuSans-2c"/>
     <use x="414.013672" xlink:href="#DejaVuSans-20"/>
     <use x="445.800781" xlink:href="#DejaVuSans-35"/>
     <use x="509.423828" xlink:href="#DejaVuSans-2d"/>
     <use x="545.507812" xlink:href="#DejaVuSans-44"/>
    </g>
    <!-- 51 targets: 100..1e-08 -->
    <defs>
     <path d="M 11.71875 12.40625 
L 22.015625 12.40625 
L 22.015625 0 
L 11.71875 0 
z
M 11.71875 51.703125 
L 22.015625 51.703125 
L 22.015625 39.3125 
L 11.71875 39.3125 
z
" id="DejaVuSans-3a"/>
    </defs>
    <g transform="translate(58.89048 46.712575)scale(0.102 -0.102)">
     <use xlink:href="#DejaVuSans-35"/>
     <use x="63.623047" xlink:href="#DejaVuSans-31"/>
     <use x="127.246094" xlink:href="#DejaVuSans-20"/>
     <use x="159.033203" xlink:href="#DejaVuSans-74"/>
     <use x="198.242188" xlink:href="#DejaVuSans-61"/>
     <use x="259.521484" xlink:href="#DejaVuSans-72"/>
     <use x="300.619141" xlink:href="#DejaVuSans-67"/>
     <use x="364.095703" xlink:href="#DejaVuSans-65"/>
     <use x="425.619141" xlink:href="#DejaVuSans-74"/>
     <use x="464.828125" xlink:href="#DejaVuSans-73"/>
     <use x="516.927734" xlink:href="#DejaVuSans-3a"/>
     <use x="550.619141" xlink:href="#DejaVuSans-20"/>
     <use x="582.40625" xlink:href="#DejaVuSans-31"/>
     <use x="646.029297" xlink:href="#DejaVuSans-30"/>
     <use x="709.652344" xlink:href="#DejaVuSans-30"/>
     <use x="773.275391" xlink:href="#DejaVuSans-2e"/>
     <use x="805.0625" xlink:href="#DejaVuSans-2e"/>
     <use x="836.849609" xlink:href="#DejaVuSans-31"/>
     <use x="900.472656" xlink:href="#DejaVuSans-65"/>
     <use x="961.996094" xlink:href="#DejaVuSans-2d"/>
     <use x="998.080078" xlink:href="#DejaVuSans-30"/>
     <use x="1061.703125" xlink:href="#DejaVuSans-38"/>
    </g>
    <!-- 15 instances -->
    <g transform="translate(58.89048 58.134344)scale(0.102 -0.102)">
     <use xlink:href="#DejaVuSans-31"/>
     <use x="63.623047" xlink:href="#DejaVuSans-35"/>
     <use x="127.246094" xlink:href="#DejaVuSans-20"/>
     <use x="159.033203" xlink:href="#DejaVuSans-69"/>
     <use x="186.816406" xlink:href="#DejaVuSans-6e"/>
     <use x="250.195312" xlink:href="#DejaVuSans-73"/>
     <use x="302.294922" xlink:href="#DejaVuSans-74"/>
     <use x="341.503906" xlink:href="#DejaVuSans-61"/>
     <use x="402.783203" xlink:href="#DejaVuSans-6e"/>
     <use x="466.162109" xlink:href="#DejaVuSans-63"/>
     <use x="521.142578" xlink:href="#DejaVuSans-65"/>
     <use x="582.666016" xlink:href="#DejaVuSans-73"/>
    </g>
   </g>
   <g id="text_18">
    <!-- v0.0.0 -->
    <g style="fill:#808080;" transform="translate(178.96275 290.099912)scale(0.1 -0.1)">
     <use xlink:href="#DejaVuSans-76"/>
     <use x="59.179688" xlink:href="#DejaVuSans-30"/>
     <use x="122.802734" xlink:href="#DejaVuSans-2e"/>
     <use x="154.589844" xlink:href="#DejaVuSans-30"/>
     <use x="218.212891" xlink:href="#DejaVuSans-2e"/>
     <use x="250" xlink:href="#DejaVuSans-30"/>
    </g>
   </g>
   <g id="text_19">
    <!-- 4 Skew Rastrigin-Bueche separ -->
    <defs>
     <path d="M 9.078125 75.984375 
L 18.109375 75.984375 
L 18.109375 31.109375 
L 44.921875 54.6875 
L 56.390625 54.6875 
L 27.390625 29.109375 
L 57.625 0 
L 45.90625 0 
L 18.109375 26.703125 
L 18.109375 0 
L 9.078125 0 
z
" id="DejaVuSans-6b"/>
     <path d="M 4.203125 54.6875 
L 13.1875 54.6875 
L 24.421875 12.015625 
L 35.59375 54.6875 
L 46.1875 54.6875 
L 57.421875 12.015625 
L 68.609375 54.6875 
L 77.59375 54.6875 
L 63.28125 0 
L 52.6875 0 
L 40.921875 44.828125 
L 29.109375 0 
L 18.5 0 
z
" id="DejaVuSans-77"/>
     <path d="M 54.890625 33.015625 
L 54.890625 0 
L 45.90625 0 
L 45.90625 32.71875 
Q 45.90625 40.484375 42.875 44.328125 
Q 39.84375 48.1875 33.796875 48.1875 
Q 26.515625 48.1875 22.3125 43.546875 
Q 18.109375 38.921875 18.109375 30.90625 
L 18.109375 0 
L 9.078125 0 
L 9.078125 75.984375 
L 18.109375 75.984375 
L 18.109375 46.1875 
Q 21.34375 51.125 25.703125 53.5625 
Q 30.078125 56 35.796875 56 
Q 45.21875 56 50.046875 50.171875 
Q 54.890625 44.34375 54.890625 33.015625 
z
" id="DejaVuSans-68"/>
    </defs>
    <g transform="translate(38.8315 18.84)scale(0.2 -0.2)">
     <use xlink:href="#DejaVuSans-34"/>
     <use x="63.623047" xlink:href="#DejaVuSans-20"/>
     <use x="95.410156" xlink:href="#DejaVuSans-53"/>
     <use x="158.886719" xlink:href="#DejaVuSans-6b"/>
     <use x="216.75" xlink:href="#DejaVuSans-65"/>
     <use x="278.273438" xlink:href="#DejaVuSans-77"/>
     <use x="360.060547" xlink:href="#DejaVuSans-20"/>
     <use x="391.847656" xlink:href="#DejaVuSans-52"/>
     <use x="461.298828" xlink:href="#DejaVuSans-61"/>
     <use x="522.578125" xlink:href="#DejaVuSans-73"/>
     <use x="574.677734" xlink:href="#DejaVuSans-74"/>
     <use x="613.886719" xlink:href="#DejaVuSans-72"/>
     <use x="655" xlink:href="#DejaVuSans-69"/>
     <use x="682.783203" xlink:href="#DejaVuSans-67"/>
     <use x="746.259766" xlink:href="#DejaVuSans-69"/>
     <use x="774.042969" xlink:href="#DejaVuSans-6e"/>
     <use x="837.421875" xlink:href="#DejaVuSans-2d"/>
     <use x="873.458984" xlink:href="#DejaVuSans-42"/>
     <use x="942.0625" xlink:href="#DejaVuSans-75"/>
     <use x="1005.441406" xlink:href="#DejaVuSans-65"/>
     <use x="1066.964844" xlink:href="#DejaVuSans-63"/>
     <use x="1121.945312" xlink:href="#DejaVuSans-68"/>
     <use x="1185.324219" xlink:href="#DejaVuSans-65"/>
     <use x="1246.847656" xlink:href="#DejaVuSans-20"/>
     <use x="1278.634766" xlink:href="#DejaVuSans-73"/>
     <use x="1330.734375" xlink:href="#DejaVuSans-65"/>
     <use x="1392.257812" xlink:href="#DejaVuSans-70"/>
     <use x="1455.734375" xlink:href="#DejaVuSans-61"/>
     <use x="1517.013672" xlink:href="#DejaVuSans-72"/>
    </g>
   </g>
  </g>
 </g>
 <defs>
  <clipPath id="pa42815383f">
   <rect height="270.04" width="277.048" x="56.12" y="24.84"/>
  </clipPath>
 </defs>
</svg>
