<?xml version="1.0" encoding="utf-8" standalone="no"?>
<!DOCTYPE svg PUBLIC "-//W3C//DTD SVG 1.1//EN"
  "http://www.w3.org/Graphics/SVG/1.1/DTD/svg11.dtd">
<!-- Created with matplotlib (http://matplotlib.org/) -->
<svg height="345.6pt" version="1.1" viewBox="0 0 460.8 345.6" width="460.8pt" xmlns="http://www.w3.org/2000/svg" xmlns:xlink="http://www.w3.org/1999/xlink">
 <defs>
  <style type="text/css">
*{stroke-linecap:butt;stroke-linejoin:round;}
  </style>
 </defs>
 <g id="figure_1">
  <g id="patch_1">
   <path d="M 0 345.6 
L 460.8 345.6 
L 460.8 0 
L 0 0 
z
" style="fill:#ffffff;"/>
  </g>
  <g id="axes_1">
   <g id="patch_2">
    <path d="M 56.12 294.88 
L 333.168 294.88 
L 333.168 24.84 
L 56.12 24.84 
z
" style="fill:#ffffff;"/>
   </g>
   <g id="matplotlib.axis_1">
    <g id="xtick_1">
     <g id="line2d_1">
      <path clip-path="url(#p8f40dcef33)" d="M 56.12 294.88 
L 56.12 24.84 
" style="fill:none;stroke:#b0b0b0;stroke-linecap:square;stroke-width:0.8;"/>
     </g>
     <g id="line2d_2">
      <defs>
       <path d="M 0 0 
L 0 3.5 
" id="m23739edbd1" style="stroke:#000000;stroke-width:0.8;"/>
      </defs>
      <g>
       <use style="stroke:#000000;stroke-width:0.8;" x="56.12" xlink:href="#m23739edbd1" y="294.88"/>
      </g>
     </g>
     <g id="text_1">
      <!-- 0 -->
      <defs>
       <path d="M 31.78125 66.40625 
Q 24.171875 66.40625 20.328125 58.90625 
Q 16.5 51.421875 16.5 36.375 
Q 16.5 21.390625 20.328125 13.890625 
Q 24.171875 6.390625 31.78125 6.390625 
Q 39.453125 6.390625 43.28125 13.890625 
Q 47.125 21.390625 47.125 36.375 
Q 47.125 51.421875 43.28125 58.90625 
Q 39.453125 66.40625 31.78125 66.40625 
z
M 31.78125 74.21875 
Q 44.046875 74.21875 50.515625 64.515625 
Q 56.984375 54.828125 56.984375 36.375 
Q 56.984375 17.96875 50.515625 8.265625 
Q 44.046875 -1.421875 31.78125 -1.421875 
Q 19.53125 -1.421875 13.0625 8.265625 
Q 6.59375 17.96875 6.59375 36.375 
Q 6.59375 54.828125 13.0625 64.515625 
Q 19.53125 74.21875 31.78125 74.21875 
z
" id="DejaVuSans-30"/>
      </defs>
      <g transform="translate(49.7575 317.076875)scale(0.2 -0.2)">
       <use xlink:href="#DejaVuSans-30"/>
      </g>
     </g>
    </g>
    <g id="xtick_2">
     <g id="line2d_3">
      <path clip-path="url(#p8f40dcef33)" d="M 135.276571 294.88 
L 135.276571 24.84 
" style="fill:none;stroke:#b0b0b0;stroke-linecap:square;stroke-width:0.8;"/>
     </g>
     <g id="line2d_4">
      <g>
       <use style="stroke:#000000;stroke-width:0.8;" x="135.276571" xlink:href="#m23739edbd1" y="294.88"/>
      </g>
     </g>
     <g id="text_2">
      <!-- 2 -->
      <defs>
       <path d="M 19.1875 8.296875 
L 53.609375 8.296875 
L 53.609375 0 
L 7.328125 0 
L 7.328125 8.296875 
Q 12.9375 14.109375 22.625 23.890625 
Q 32.328125 33.6875 34.8125 36.53125 
Q 39.546875 41.84375 41.421875 45.53125 
Q 43.3125 49.21875 43.3125 52.78125 
Q 43.3125 58.59375 39.234375 62.25 
Q 35.15625 65.921875 28.609375 65.921875 
Q 23.96875 65.921875 18.8125 64.3125 
Q 13.671875 62.703125 7.8125 59.421875 
L 7.8125 69.390625 
Q 13.765625 71.78125 18.9375 73 
Q 24.125 74.21875 28.421875 74.21875 
Q 39.75 74.21875 46.484375 68.546875 
Q 53.21875 62.890625 53.21875 53.421875 
Q 53.21875 48.921875 51.53125 44.890625 
Q 49.859375 40.875 45.40625 35.40625 
Q 44.1875 33.984375 37.640625 27.21875 
Q 31.109375 20.453125 19.1875 8.296875 
z
" id="DejaVuSans-32"/>
      </defs>
      <g transform="translate(128.914071 317.076875)scale(0.2 -0.2)">
       <use xlink:href="#DejaVuSans-32"/>
      </g>
     </g>
    </g>
    <g id="xtick_3">
     <g id="line2d_5">
      <path clip-path="url(#p8f40dcef33)" d="M 214.433143 294.88 
L 214.433143 24.84 
" style="fill:none;stroke:#b0b0b0;stroke-linecap:square;stroke-width:0.8;"/>
     </g>
     <g id="line2d_6">
      <g>
       <use style="stroke:#000000;stroke-width:0.8;" x="214.433143" xlink:href="#m23739edbd1" y="294.88"/>
      </g>
     </g>
     <g id="text_3">
      <!-- 4 -->
      <defs>
       <path d="M 37.796875 64.3125 
L 12.890625 25.390625 
L 37.796875 25.390625 
z
M 35.203125 72.90625 
L 47.609375 72.90625 
L 47.609375 25.390625 
L 58.015625 25.390625 
L 58.015625 17.1875 
L 47.609375 17.1875 
L 47.609375 0 
L 37.796875 0 
L 37.796875 17.1875 
L 4.890625 17.1875 
L 4.890625 26.703125 
z
" id="DejaVuSans-34"/>
      </defs>
      <g transform="translate(208.070643 317.076875)scale(0.2 -0.2)">
       <use xlink:href="#DejaVuSans-34"/>
      </g>
     </g>
    </g>
    <g id="xtick_4">
     <g id="line2d_7">
      <path clip-path="url(#p8f40dcef33)" d="M 293.589714 294.88 
L 293.589714 24.84 
" style="fill:none;stroke:#b0b0b0;stroke-linecap:square;stroke-width:0.8;"/>
     </g>
     <g id="line2d_8">
      <g>
       <use style="stroke:#000000;stroke-width:0.8;" x="293.589714" xlink:href="#m23739edbd1" y="294.88"/>
      </g>
     </g>
     <g id="text_4">
      <!-- 6 -->
      <defs>
       <path d="M 33.015625 40.375 
Q 26.375 40.375 22.484375 35.828125 
Q 18.609375 31.296875 18.609375 23.390625 
Q 18.609375 15.53125 22.484375 10.953125 
Q 26.375 6.390625 33.015625 6.390625 
Q 39.65625 6.390625 43.53125 10.953125 
Q 47.40625 15.53125 47.40625 23.390625 
Q 47.40625 31.296875 43.53125 35.828125 
Q 39.65625 40.375 33.015625 40.375 
z
M 52.59375 71.296875 
L 52.59375 62.3125 
Q 48.875 64.0625 45.09375 64.984375 
Q 41.3125 65.921875 37.59375 65.921875 
Q 27.828125 65.921875 22.671875 59.328125 
Q 17.53125 52.734375 16.796875 39.40625 
Q 19.671875 43.65625 24.015625 45.921875 
Q 28.375 48.1875 33.59375 48.1875 
Q 44.578125 48.1875 50.953125 41.515625 
Q 57.328125 34.859375 57.328125 23.390625 
Q 57.328125 12.15625 50.6875 5.359375 
Q 44.046875 -1.421875 33.015625 -1.421875 
Q 20.359375 -1.421875 13.671875 8.265625 
Q 6.984375 17.96875 6.984375 36.375 
Q 6.984375 53.65625 15.1875 63.9375 
Q 23.390625 74.21875 37.203125 74.21875 
Q 40.921875 74.21875 44.703125 73.484375 
Q 48.484375 72.75 52.59375 71.296875 
z
" id="DejaVuSans-36"/>
      </defs>
      <g transform="translate(287.227214 317.076875)scale(0.2 -0.2)">
       <use xlink:href="#DejaVuSans-36"/>
      </g>
     </g>
    </g>
    <g id="xtick_5">
     <g id="line2d_9">
      <path clip-path="url(#p8f40dcef33)" d="M 56.12 294.88 
L 56.12 24.84 
" style="fill:none;stroke:#b0b0b0;stroke-linecap:square;stroke-width:0.8;"/>
     </g>
     <g id="line2d_10">
      <defs>
       <path d="M 0 0 
L 0 2 
" id="me6ba2a62f0" style="stroke:#000000;stroke-width:0.6;"/>
      </defs>
      <g>
       <use style="stroke:#000000;stroke-width:0.6;" x="56.12" xlink:href="#me6ba2a62f0" y="294.88"/>
      </g>
     </g>
    </g>
    <g id="xtick_6">
     <g id="line2d_11">
      <path clip-path="url(#p8f40dcef33)" d="M 95.698286 294.88 
L 95.698286 24.84 
" style="fill:none;stroke:#b0b0b0;stroke-linecap:square;stroke-width:0.8;"/>
     </g>
     <g id="line2d_12">
      <g>
       <use style="stroke:#000000;stroke-width:0.6;" x="95.698286" xlink:href="#me6ba2a62f0" y="294.88"/>
      </g>
     </g>
    </g>
    <g id="xtick_7">
     <g id="line2d_13">
      <path clip-path="url(#p8f40dcef33)" d="M 135.276571 294.88 
L 135.276571 24.84 
" style="fill:none;stroke:#b0b0b0;stroke-linecap:square;stroke-width:0.8;"/>
     </g>
     <g id="line2d_14">
      <g>
       <use style="stroke:#000000;stroke-width:0.6;" x="135.276571" xlink:href="#me6ba2a62f0" y="294.88"/>
      </g>
     </g>
    </g>
    <g id="xtick_8">
     <g id="line2d_15">
      <path clip-path="url(#p8f40dcef33)" d="M 174.854857 294.88 
L 174.854857 24.84 
" style="fill:none;stroke:#b0b0b0;stroke-linecap:square;stroke-width:0.8;"/>
     </g>
     <g id="line2d_16">
      <g>
       <use style="stroke:#000000;stroke-width:0.6;" x="174.854857" xlink:href="#me6ba2a62f0" y="294.88"/>
      </g>
     </g>
    </g>
    <g id="xtick_9">
     <g id="line2d_17">
      <path clip-path="url(#p8f40dcef33)" d="M 214.433143 294.88 
L 214.433143 24.84 
" style="fill:none;stroke:#b0b0b0;stroke-linecap:square;stroke-width:0.8;"/>
     </g>
     <g id="line2d_18">
      <g>
       <use style="stroke:#000000;stroke-width:0.6;" x="214.433143" xlink:href="#me6ba2a62f0" y="294.88"/>
      </g>
     </g>
    </g>
    <g id="xtick_10">
     <g id="line2d_19">
      <path clip-path="url(#p8f40dcef33)" d="M 254.011429 294.88 
L 254.011429 24.84 
" style="fill:none;stroke:#b0b0b0;stroke-linecap:square;stroke-width:0.8;"/>
     </g>
     <g id="line2d_20">
      <g>
       <use style="stroke:#000000;stroke-width:0.6;" x="254.011429" xlink:href="#me6ba2a62f0" y="294.88"/>
      </g>
     </g>
    </g>
    <g id="xtick_11">
     <g id="line2d_21">
      <path clip-path="url(#p8f40dcef33)" d="M 293.589714 294.88 
L 293.589714 24.84 
" style="fill:none;stroke:#b0b0b0;stroke-linecap:square;stroke-width:0.8;"/>
     </g>
     <g id="line2d_22">
      <g>
       <use style="stroke:#000000;stroke-width:0.6;" x="293.589714" xlink:href="#me6ba2a62f0" y="294.88"/>
      </g>
     </g>
    </g>
    <g id="xtick_12">
     <g id="line2d_23">
      <path clip-path="url(#p8f40dcef33)" d="M 333.168 294.88 
L 333.168 24.84 
" style="fill:none;stroke:#b0b0b0;stroke-linecap:square;stroke-width:0.8;"/>
     </g>
     <g id="line2d_24">
      <g>
       <use style="stroke:#000000;stroke-width:0.6;" x="333.168" xlink:href="#me6ba2a62f0" y="294.88"/>
      </g>
     </g>
    </g>
    <g id="text_5">
     <!-- log10(# f-evals / dimension) -->
     <defs>
      <path d="M 9.421875 75.984375 
L 18.40625 75.984375 
L 18.40625 0 
L 9.421875 0 
z
" id="DejaVuSans-6c"/>
      <path d="M 30.609375 48.390625 
Q 23.390625 48.390625 19.1875 42.75 
Q 14.984375 37.109375 14.984375 27.296875 
Q 14.984375 17.484375 19.15625 11.84375 
Q 23.34375 6.203125 30.609375 6.203125 
Q 37.796875 6.203125 41.984375 11.859375 
Q 46.1875 17.53125 46.1875 27.296875 
Q 46.1875 37.015625 41.984375 42.703125 
Q 37.796875 48.390625 30.609375 48.390625 
z
M 30.609375 56 
Q 42.328125 56 49.015625 48.375 
Q 55.71875 40.765625 55.71875 27.296875 
Q 55.71875 13.875 49.015625 6.21875 
Q 42.328125 -1.421875 30.609375 -1.421875 
Q 18.84375 -1.421875 12.171875 6.21875 
Q 5.515625 13.875 5.515625 27.296875 
Q 5.515625 40.765625 12.171875 48.375 
Q 18.84375 56 30.609375 56 
z
" id="DejaVuSans-6f"/>
      <path d="M 45.40625 27.984375 
Q 45.40625 37.75 41.375 43.109375 
Q 37.359375 48.484375 30.078125 48.484375 
Q 22.859375 48.484375 18.828125 43.109375 
Q 14.796875 37.75 14.796875 27.984375 
Q 14.796875 18.265625 18.828125 12.890625 
Q 22.859375 7.515625 30.078125 7.515625 
Q 37.359375 7.515625 41.375 12.890625 
Q 45.40625 18.265625 45.40625 27.984375 
z
M 54.390625 6.78125 
Q 54.390625 -7.171875 48.1875 -13.984375 
Q 42 -20.796875 29.203125 -20.796875 
Q 24.46875 -20.796875 20.265625 -20.09375 
Q 16.0625 -19.390625 12.109375 -17.921875 
L 12.109375 -9.1875 
Q 16.0625 -11.328125 19.921875 -12.34375 
Q 23.78125 -13.375 27.78125 -13.375 
Q 36.625 -13.375 41.015625 -8.765625 
Q 45.40625 -4.15625 45.40625 5.171875 
L 45.40625 9.625 
Q 42.625 4.78125 38.28125 2.390625 
Q 33.9375 0 27.875 0 
Q 17.828125 0 11.671875 7.65625 
Q 5.515625 15.328125 5.515625 27.984375 
Q 5.515625 40.671875 11.671875 48.328125 
Q 17.828125 56 27.875 56 
Q 33.9375 56 38.28125 53.609375 
Q 42.625 51.21875 45.40625 46.390625 
L 45.40625 54.6875 
L 54.390625 54.6875 
z
" id="DejaVuSans-67"/>
      <path d="M 12.40625 8.296875 
L 28.515625 8.296875 
L 28.515625 63.921875 
L 10.984375 60.40625 
L 10.984375 69.390625 
L 28.421875 72.90625 
L 38.28125 72.90625 
L 38.28125 8.296875 
L 54.390625 8.296875 
L 54.390625 0 
L 12.40625 0 
z
" id="DejaVuSans-31"/>
      <path d="M 31 75.875 
Q 24.46875 64.65625 21.28125 53.65625 
Q 18.109375 42.671875 18.109375 31.390625 
Q 18.109375 20.125 21.3125 9.0625 
Q 24.515625 -2 31 -13.1875 
L 23.1875 -13.1875 
Q 15.875 -1.703125 12.234375 9.375 
Q 8.59375 20.453125 8.59375 31.390625 
Q 8.59375 42.28125 12.203125 53.3125 
Q 15.828125 64.359375 23.1875 75.875 
z
" id="DejaVuSans-28"/>
      <path d="M 51.125 44 
L 36.921875 44 
L 32.8125 27.6875 
L 47.125 27.6875 
z
M 43.796875 71.78125 
L 38.71875 51.515625 
L 52.984375 51.515625 
L 58.109375 71.78125 
L 65.921875 71.78125 
L 60.890625 51.515625 
L 76.125 51.515625 
L 76.125 44 
L 58.984375 44 
L 54.984375 27.6875 
L 70.515625 27.6875 
L 70.515625 20.21875 
L 53.078125 20.21875 
L 48 0 
L 40.1875 0 
L 45.21875 20.21875 
L 30.90625 20.21875 
L 25.875 0 
L 18.015625 0 
L 23.09375 20.21875 
L 7.71875 20.21875 
L 7.71875 27.6875 
L 24.90625 27.6875 
L 29 44 
L 13.28125 44 
L 13.28125 51.515625 
L 30.90625 51.515625 
L 35.890625 71.78125 
z
" id="DejaVuSans-23"/>
      <path id="DejaVuSans-20"/>
      <path d="M 37.109375 75.984375 
L 37.109375 68.5 
L 28.515625 68.5 
Q 23.6875 68.5 21.796875 66.546875 
Q 19.921875 64.59375 19.921875 59.515625 
L 19.921875 54.6875 
L 34.71875 54.6875 
L 34.71875 47.703125 
L 19.921875 47.703125 
L 19.921875 0 
L 10.890625 0 
L 10.890625 47.703125 
L 2.296875 47.703125 
L 2.296875 54.6875 
L 10.890625 54.6875 
L 10.890625 58.5 
Q 10.890625 67.625 15.140625 71.796875 
Q 19.390625 75.984375 28.609375 75.984375 
z
" id="DejaVuSans-66"/>
      <path d="M 4.890625 31.390625 
L 31.203125 31.390625 
L 31.203125 23.390625 
L 4.890625 23.390625 
z
" id="DejaVuSans-2d"/>
      <path d="M 56.203125 29.59375 
L 56.203125 25.203125 
L 14.890625 25.203125 
Q 15.484375 15.921875 20.484375 11.0625 
Q 25.484375 6.203125 34.421875 6.203125 
Q 39.59375 6.203125 44.453125 7.46875 
Q 49.3125 8.734375 54.109375 11.28125 
L 54.109375 2.78125 
Q 49.265625 0.734375 44.1875 -0.34375 
Q 39.109375 -1.421875 33.890625 -1.421875 
Q 20.796875 -1.421875 13.15625 6.1875 
Q 5.515625 13.8125 5.515625 26.8125 
Q 5.515625 40.234375 12.765625 48.109375 
Q 20.015625 56 32.328125 56 
Q 43.359375 56 49.78125 48.890625 
Q 56.203125 41.796875 56.203125 29.59375 
z
M 47.21875 32.234375 
Q 47.125 39.59375 43.09375 43.984375 
Q 39.0625 48.390625 32.421875 48.390625 
Q 24.90625 48.390625 20.390625 44.140625 
Q 15.875 39.890625 15.1875 32.171875 
z
" id="DejaVuSans-65"/>
      <path d="M 2.984375 54.6875 
L 12.5 54.6875 
L 29.59375 8.796875 
L 46.6875 54.6875 
L 56.203125 54.6875 
L 35.6875 0 
L 23.484375 0 
z
" id="DejaVuSans-76"/>
      <path d="M 34.28125 27.484375 
Q 23.390625 27.484375 19.1875 25 
Q 14.984375 22.515625 14.984375 16.5 
Q 14.984375 11.71875 18.140625 8.90625 
Q 21.296875 6.109375 26.703125 6.109375 
Q 34.1875 6.109375 38.703125 11.40625 
Q 43.21875 16.703125 43.21875 25.484375 
L 43.21875 27.484375 
z
M 52.203125 31.203125 
L 52.203125 0 
L 43.21875 0 
L 43.21875 8.296875 
Q 40.140625 3.328125 35.546875 0.953125 
Q 30.953125 -1.421875 24.3125 -1.421875 
Q 15.921875 -1.421875 10.953125 3.296875 
Q 6 8.015625 6 15.921875 
Q 6 25.140625 12.171875 29.828125 
Q 18.359375 34.515625 30.609375 34.515625 
L 43.21875 34.515625 
L 43.21875 35.40625 
Q 43.21875 41.609375 39.140625 45 
Q 35.0625 48.390625 27.6875 48.390625 
Q 23 48.390625 18.546875 47.265625 
Q 14.109375 46.140625 10.015625 43.890625 
L 10.015625 52.203125 
Q 14.9375 54.109375 19.578125 55.046875 
Q 24.21875 56 28.609375 56 
Q 40.484375 56 46.34375 49.84375 
Q 52.203125 43.703125 52.203125 31.203125 
z
" id="DejaVuSans-61"/>
      <path d="M 44.28125 53.078125 
L 44.28125 44.578125 
Q 40.484375 46.53125 36.375 47.5 
Q 32.28125 48.484375 27.875 48.484375 
Q 21.1875 48.484375 17.84375 46.4375 
Q 14.5 44.390625 14.5 40.28125 
Q 14.5 37.15625 16.890625 35.375 
Q 19.28125 33.59375 26.515625 31.984375 
L 29.59375 31.296875 
Q 39.15625 29.25 43.1875 25.515625 
Q 47.21875 21.78125 47.21875 15.09375 
Q 47.21875 7.46875 41.1875 3.015625 
Q 35.15625 -1.421875 24.609375 -1.421875 
Q 20.21875 -1.421875 15.453125 -0.5625 
Q 10.6875 0.296875 5.421875 2 
L 5.421875 11.28125 
Q 10.40625 8.6875 15.234375 7.390625 
Q 20.0625 6.109375 24.8125 6.109375 
Q 31.15625 6.109375 34.5625 8.28125 
Q 37.984375 10.453125 37.984375 14.40625 
Q 37.984375 18.0625 35.515625 20.015625 
Q 33.0625 21.96875 24.703125 23.78125 
L 21.578125 24.515625 
Q 13.234375 26.265625 9.515625 29.90625 
Q 5.8125 33.546875 5.8125 39.890625 
Q 5.8125 47.609375 11.28125 51.796875 
Q 16.75 56 26.8125 56 
Q 31.78125 56 36.171875 55.265625 
Q 40.578125 54.546875 44.28125 53.078125 
z
" id="DejaVuSans-73"/>
      <path d="M 25.390625 72.90625 
L 33.6875 72.90625 
L 8.296875 -9.28125 
L 0 -9.28125 
z
" id="DejaVuSans-2f"/>
      <path d="M 45.40625 46.390625 
L 45.40625 75.984375 
L 54.390625 75.984375 
L 54.390625 0 
L 45.40625 0 
L 45.40625 8.203125 
Q 42.578125 3.328125 38.25 0.953125 
Q 33.9375 -1.421875 27.875 -1.421875 
Q 17.96875 -1.421875 11.734375 6.484375 
Q 5.515625 14.40625 5.515625 27.296875 
Q 5.515625 40.1875 11.734375 48.09375 
Q 17.96875 56 27.875 56 
Q 33.9375 56 38.25 53.625 
Q 42.578125 51.265625 45.40625 46.390625 
z
M 14.796875 27.296875 
Q 14.796875 17.390625 18.875 11.75 
Q 22.953125 6.109375 30.078125 6.109375 
Q 37.203125 6.109375 41.296875 11.75 
Q 45.40625 17.390625 45.40625 27.296875 
Q 45.40625 37.203125 41.296875 42.84375 
Q 37.203125 48.484375 30.078125 48.484375 
Q 22.953125 48.484375 18.875 42.84375 
Q 14.796875 37.203125 14.796875 27.296875 
z
" id="DejaVuSans-64"/>
      <path d="M 9.421875 54.6875 
L 18.40625 54.6875 
L 18.40625 0 
L 9.421875 0 
z
M 9.421875 75.984375 
L 18.40625 75.984375 
L 18.40625 64.59375 
L 9.421875 64.59375 
z
" id="DejaVuSans-69"/>
      <path d="M 52 44.1875 
Q 55.375 50.25 60.0625 53.125 
Q 64.75 56 71.09375 56 
Q 79.640625 56 84.28125 50.015625 
Q 88.921875 44.046875 88.921875 33.015625 
L 88.921875 0 
L 79.890625 0 
L 79.890625 32.71875 
Q 79.890625 40.578125 77.09375 44.375 
Q 74.3125 48.1875 68.609375 48.1875 
Q 61.625 48.1875 57.5625 43.546875 
Q 53.515625 38.921875 53.515625 30.90625 
L 53.515625 0 
L 44.484375 0 
L 44.484375 32.71875 
Q 44.484375 40.625 41.703125 44.40625 
Q 38.921875 48.1875 33.109375 48.1875 
Q 26.21875 48.1875 22.15625 43.53125 
Q 18.109375 38.875 18.109375 30.90625 
L 18.109375 0 
L 9.078125 0 
L 9.078125 54.6875 
L 18.109375 54.6875 
L 18.109375 46.1875 
Q 21.1875 51.21875 25.484375 53.609375 
Q 29.78125 56 35.6875 56 
Q 41.65625 56 45.828125 52.96875 
Q 50 49.953125 52 44.1875 
z
" id="DejaVuSans-6d"/>
      <path d="M 54.890625 33.015625 
L 54.890625 0 
L 45.90625 0 
L 45.90625 32.71875 
Q 45.90625 40.484375 42.875 44.328125 
Q 39.84375 48.1875 33.796875 48.1875 
Q 26.515625 48.1875 22.3125 43.546875 
Q 18.109375 38.921875 18.109375 30.90625 
L 18.109375 0 
L 9.078125 0 
L 9.078125 54.6875 
L 18.109375 54.6875 
L 18.109375 46.1875 
Q 21.34375 51.125 25.703125 53.5625 
Q 30.078125 56 35.796875 56 
Q 45.21875 56 50.046875 50.171875 
Q 54.890625 44.34375 54.890625 33.015625 
z
" id="DejaVuSans-6e"/>
      <path d="M 8.015625 75.875 
L 15.828125 75.875 
Q 23.140625 64.359375 26.78125 53.3125 
Q 30.421875 42.28125 30.421875 31.390625 
Q 30.421875 20.453125 26.78125 9.375 
Q 23.140625 -1.703125 15.828125 -13.1875 
L 8.015625 -13.1875 
Q 14.5 -2 17.703125 9.0625 
Q 20.90625 20.125 20.90625 31.390625 
Q 20.90625 42.671875 17.703125 53.65625 
Q 14.5 64.65625 8.015625 75.875 
z
" id="DejaVuSans-29"/>
     </defs>
     <g transform="translate(73.803219 338.153594)scale(0.17 -0.17)">
      <use xlink:href="#DejaVuSans-6c"/>
      <use x="27.783203" xlink:href="#DejaVuSans-6f"/>
      <use x="88.964844" xlink:href="#DejaVuSans-67"/>
      <use x="152.441406" xlink:href="#DejaVuSans-31"/>
      <use x="216.064453" xlink:href="#DejaVuSans-30"/>
      <use x="279.6875" xlink:href="#DejaVuSans-28"/>
      <use x="318.701172" xlink:href="#DejaVuSans-23"/>
      <use x="402.490234" xlink:href="#DejaVuSans-20"/>
      <use x="434.277344" xlink:href="#DejaVuSans-66"/>
      <use x="469.404297" xlink:href="#DejaVuSans-2d"/>
      <use x="505.488281" xlink:href="#DejaVuSans-65"/>
      <use x="567.011719" xlink:href="#DejaVuSans-76"/>
      <use x="626.191406" xlink:href="#DejaVuSans-61"/>
      <use x="687.470703" xlink:href="#DejaVuSans-6c"/>
      <use x="715.253906" xlink:href="#DejaVuSans-73"/>
      <use x="767.353516" xlink:href="#DejaVuSans-20"/>
      <use x="799.140625" xlink:href="#DejaVuSans-2f"/>
      <use x="832.832031" xlink:href="#DejaVuSans-20"/>
      <use x="864.619141" xlink:href="#DejaVuSans-64"/>
      <use x="928.095703" xlink:href="#DejaVuSans-69"/>
      <use x="955.878906" xlink:href="#DejaVuSans-6d"/>
      <use x="1053.291016" xlink:href="#DejaVuSans-65"/>
      <use x="1114.814453" xlink:href="#DejaVuSans-6e"/>
      <use x="1178.193359" xlink:href="#DejaVuSans-73"/>
      <use x="1230.292969" xlink:href="#DejaVuSans-69"/>
      <use x="1258.076172" xlink:href="#DejaVuSans-6f"/>
      <use x="1319.257812" xlink:href="#DejaVuSans-6e"/>
      <use x="1382.636719" xlink:href="#DejaVuSans-29"/>
     </g>
    </g>
   </g>
   <g id="matplotlib.axis_2">
    <g id="ytick_1">
     <g id="line2d_25">
      <path clip-path="url(#p8f40dcef33)" d="M 56.12 294.88 
L 333.168 294.88 
" style="fill:none;stroke:#b0b0b0;stroke-linecap:square;stroke-width:0.8;"/>
     </g>
     <g id="line2d_26">
      <defs>
       <path d="M 0 0 
L -3.5 0 
" id="mc88643c922" style="stroke:#000000;stroke-width:0.8;"/>
      </defs>
      <g>
       <use style="stroke:#000000;stroke-width:0.8;" x="56.12" xlink:href="#mc88643c922" y="294.88"/>
      </g>
     </g>
     <g id="text_6">
      <!-- 0.0 -->
      <defs>
       <path d="M 10.6875 12.40625 
L 21 12.40625 
L 21 0 
L 10.6875 0 
z
" id="DejaVuSans-2e"/>
      </defs>
      <g transform="translate(23.675 300.95875)scale(0.16 -0.16)">
       <use xlink:href="#DejaVuSans-30"/>
       <use x="63.623047" xlink:href="#DejaVuSans-2e"/>
       <use x="95.410156" xlink:href="#DejaVuSans-30"/>
      </g>
     </g>
    </g>
    <g id="ytick_2">
     <g id="line2d_27">
      <path clip-path="url(#p8f40dcef33)" d="M 56.12 241.406733 
L 333.168 241.406733 
" style="fill:none;stroke:#b0b0b0;stroke-linecap:square;stroke-width:0.8;"/>
     </g>
     <g id="line2d_28">
      <g>
       <use style="stroke:#000000;stroke-width:0.8;" x="56.12" xlink:href="#mc88643c922" y="241.406733"/>
      </g>
     </g>
     <g id="text_7">
      <!-- 0.2 -->
      <g transform="translate(23.675 247.485483)scale(0.16 -0.16)">
       <use xlink:href="#DejaVuSans-30"/>
       <use x="63.623047" xlink:href="#DejaVuSans-2e"/>
       <use x="95.410156" xlink:href="#DejaVuSans-32"/>
      </g>
     </g>
    </g>
    <g id="ytick_3">
     <g id="line2d_29">
      <path clip-path="url(#p8f40dcef33)" d="M 56.12 187.933465 
L 333.168 187.933465 
" style="fill:none;stroke:#b0b0b0;stroke-linecap:square;stroke-width:0.8;"/>
     </g>
     <g id="line2d_30">
      <g>
       <use style="stroke:#000000;stroke-width:0.8;" x="56.12" xlink:href="#mc88643c922" y="187.933465"/>
      </g>
     </g>
     <g id="text_8">
      <!-- 0.4 -->
      <g transform="translate(23.675 194.012215)scale(0.16 -0.16)">
       <use xlink:href="#DejaVuSans-30"/>
       <use x="63.623047" xlink:href="#DejaVuSans-2e"/>
       <use x="95.410156" xlink:href="#DejaVuSans-34"/>
      </g>
     </g>
    </g>
    <g id="ytick_4">
     <g id="line2d_31">
      <path clip-path="url(#p8f40dcef33)" d="M 56.12 134.460198 
L 333.168 134.460198 
" style="fill:none;stroke:#b0b0b0;stroke-linecap:square;stroke-width:0.8;"/>
     </g>
     <g id="line2d_32">
      <g>
       <use style="stroke:#000000;stroke-width:0.8;" x="56.12" xlink:href="#mc88643c922" y="134.460198"/>
      </g>
     </g>
     <g id="text_9">
      <!-- 0.6 -->
      <g transform="translate(23.675 140.538948)scale(0.16 -0.16)">
       <use xlink:href="#DejaVuSans-30"/>
       <use x="63.623047" xlink:href="#DejaVuSans-2e"/>
       <use x="95.410156" xlink:href="#DejaVuSans-36"/>
      </g>
     </g>
    </g>
    <g id="ytick_5">
     <g id="line2d_33">
      <path clip-path="url(#p8f40dcef33)" d="M 56.12 80.986931 
L 333.168 80.986931 
" style="fill:none;stroke:#b0b0b0;stroke-linecap:square;stroke-width:0.8;"/>
     </g>
     <g id="line2d_34">
      <g>
       <use style="stroke:#000000;stroke-width:0.8;" x="56.12" xlink:href="#mc88643c922" y="80.986931"/>
      </g>
     </g>
     <g id="text_10">
      <!-- 0.8 -->
      <defs>
       <path d="M 31.78125 34.625 
Q 24.75 34.625 20.71875 30.859375 
Q 16.703125 27.09375 16.703125 20.515625 
Q 16.703125 13.921875 20.71875 10.15625 
Q 24.75 6.390625 31.78125 6.390625 
Q 38.8125 6.390625 42.859375 10.171875 
Q 46.921875 13.96875 46.921875 20.515625 
Q 46.921875 27.09375 42.890625 30.859375 
Q 38.875 34.625 31.78125 34.625 
z
M 21.921875 38.8125 
Q 15.578125 40.375 12.03125 44.71875 
Q 8.5 49.078125 8.5 55.328125 
Q 8.5 64.0625 14.71875 69.140625 
Q 20.953125 74.21875 31.78125 74.21875 
Q 42.671875 74.21875 48.875 69.140625 
Q 55.078125 64.0625 55.078125 55.328125 
Q 55.078125 49.078125 51.53125 44.71875 
Q 48 40.375 41.703125 38.8125 
Q 48.828125 37.15625 52.796875 32.3125 
Q 56.78125 27.484375 56.78125 20.515625 
Q 56.78125 9.90625 50.3125 4.234375 
Q 43.84375 -1.421875 31.78125 -1.421875 
Q 19.734375 -1.421875 13.25 4.234375 
Q 6.78125 9.90625 6.78125 20.515625 
Q 6.78125 27.484375 10.78125 32.3125 
Q 14.796875 37.15625 21.921875 38.8125 
z
M 18.3125 54.390625 
Q 18.3125 48.734375 21.84375 45.5625 
Q 25.390625 42.390625 31.78125 42.390625 
Q 38.140625 42.390625 41.71875 45.5625 
Q 45.3125 48.734375 45.3125 54.390625 
Q 45.3125 60.0625 41.71875 63.234375 
Q 38.140625 66.40625 31.78125 66.40625 
Q 25.390625 66.40625 21.84375 63.234375 
Q 18.3125 60.0625 18.3125 54.390625 
z
" id="DejaVuSans-38"/>
      </defs>
      <g transform="translate(23.675 87.065681)scale(0.16 -0.16)">
       <use xlink:href="#DejaVuSans-30"/>
       <use x="63.623047" xlink:href="#DejaVuSans-2e"/>
       <use x="95.410156" xlink:href="#DejaVuSans-38"/>
      </g>
     </g>
    </g>
    <g id="ytick_6">
     <g id="line2d_35">
      <path clip-path="url(#p8f40dcef33)" d="M 56.12 27.513663 
L 333.168 27.513663 
" style="fill:none;stroke:#b0b0b0;stroke-linecap:square;stroke-width:0.8;"/>
     </g>
     <g id="line2d_36">
      <g>
       <use style="stroke:#000000;stroke-width:0.8;" x="56.12" xlink:href="#mc88643c922" y="27.513663"/>
      </g>
     </g>
     <g id="text_11">
      <!-- 1.0 -->
      <g transform="translate(23.675 33.592413)scale(0.16 -0.16)">
       <use xlink:href="#DejaVuSans-31"/>
       <use x="63.623047" xlink:href="#DejaVuSans-2e"/>
       <use x="95.410156" xlink:href="#DejaVuSans-30"/>
      </g>
     </g>
    </g>
    <g id="text_12">
     <!-- Fraction of function,target pairs -->
     <defs>
      <path d="M 9.8125 72.90625 
L 51.703125 72.90625 
L 51.703125 64.59375 
L 19.671875 64.59375 
L 19.671875 43.109375 
L 48.578125 43.109375 
L 48.578125 34.8125 
L 19.671875 34.8125 
L 19.671875 0 
L 9.8125 0 
z
" id="DejaVuSans-46"/>
      <path d="M 41.109375 46.296875 
Q 39.59375 47.171875 37.8125 47.578125 
Q 36.03125 48 33.890625 48 
Q 26.265625 48 22.1875 43.046875 
Q 18.109375 38.09375 18.109375 28.8125 
L 18.109375 0 
L 9.078125 0 
L 9.078125 54.6875 
L 18.109375 54.6875 
L 18.109375 46.1875 
Q 20.953125 51.171875 25.484375 53.578125 
Q 30.03125 56 36.53125 56 
Q 37.453125 56 38.578125 55.875 
Q 39.703125 55.765625 41.0625 55.515625 
z
" id="DejaVuSans-72"/>
      <path d="M 48.78125 52.59375 
L 48.78125 44.1875 
Q 44.96875 46.296875 41.140625 47.34375 
Q 37.3125 48.390625 33.40625 48.390625 
Q 24.65625 48.390625 19.8125 42.84375 
Q 14.984375 37.3125 14.984375 27.296875 
Q 14.984375 17.28125 19.8125 11.734375 
Q 24.65625 6.203125 33.40625 6.203125 
Q 37.3125 6.203125 41.140625 7.25 
Q 44.96875 8.296875 48.78125 10.40625 
L 48.78125 2.09375 
Q 45.015625 0.34375 40.984375 -0.53125 
Q 36.96875 -1.421875 32.421875 -1.421875 
Q 20.0625 -1.421875 12.78125 6.34375 
Q 5.515625 14.109375 5.515625 27.296875 
Q 5.515625 40.671875 12.859375 48.328125 
Q 20.21875 56 33.015625 56 
Q 37.15625 56 41.109375 55.140625 
Q 45.0625 54.296875 48.78125 52.59375 
z
" id="DejaVuSans-63"/>
      <path d="M 18.3125 70.21875 
L 18.3125 54.6875 
L 36.8125 54.6875 
L 36.8125 47.703125 
L 18.3125 47.703125 
L 18.3125 18.015625 
Q 18.3125 11.328125 20.140625 9.421875 
Q 21.96875 7.515625 27.59375 7.515625 
L 36.8125 7.515625 
L 36.8125 0 
L 27.59375 0 
Q 17.1875 0 13.234375 3.875 
Q 9.28125 7.765625 9.28125 18.015625 
L 9.28125 47.703125 
L 2.6875 47.703125 
L 2.6875 54.6875 
L 9.28125 54.6875 
L 9.28125 70.21875 
z
" id="DejaVuSans-74"/>
      <path d="M 8.5 21.578125 
L 8.5 54.6875 
L 17.484375 54.6875 
L 17.484375 21.921875 
Q 17.484375 14.15625 20.5 10.265625 
Q 23.53125 6.390625 29.59375 6.390625 
Q 36.859375 6.390625 41.078125 11.03125 
Q 45.3125 15.671875 45.3125 23.6875 
L 45.3125 54.6875 
L 54.296875 54.6875 
L 54.296875 0 
L 45.3125 0 
L 45.3125 8.40625 
Q 42.046875 3.421875 37.71875 1 
Q 33.40625 -1.421875 27.6875 -1.421875 
Q 18.265625 -1.421875 13.375 4.4375 
Q 8.5 10.296875 8.5 21.578125 
z
M 31.109375 56 
z
" id="DejaVuSans-75"/>
      <path d="M 11.71875 12.40625 
L 22.015625 12.40625 
L 22.015625 4 
L 14.015625 -11.625 
L 7.71875 -11.625 
L 11.71875 4 
z
" id="DejaVuSans-2c"/>
      <path d="M 18.109375 8.203125 
L 18.109375 -20.796875 
L 9.078125 -20.796875 
L 9.078125 54.6875 
L 18.109375 54.6875 
L 18.109375 46.390625 
Q 20.953125 51.265625 25.265625 53.625 
Q 29.59375 56 35.59375 56 
Q 45.5625 56 51.78125 48.09375 
Q 58.015625 40.1875 58.015625 27.296875 
Q 58.015625 14.40625 51.78125 6.484375 
Q 45.5625 -1.421875 35.59375 -1.421875 
Q 29.59375 -1.421875 25.265625 0.953125 
Q 20.953125 3.328125 18.109375 8.203125 
z
M 48.6875 27.296875 
Q 48.6875 37.203125 44.609375 42.84375 
Q 40.53125 48.484375 33.40625 48.484375 
Q 26.265625 48.484375 22.1875 42.84375 
Q 18.109375 37.203125 18.109375 27.296875 
Q 18.109375 17.390625 22.1875 11.75 
Q 26.265625 6.109375 33.40625 6.109375 
Q 40.53125 6.109375 44.609375 11.75 
Q 48.6875 17.390625 48.6875 27.296875 
z
" id="DejaVuSans-70"/>
     </defs>
     <g transform="translate(16.139531 294.999375)rotate(-90)scale(0.17 -0.17)">
      <use xlink:href="#DejaVuSans-46"/>
      <use x="57.410156" xlink:href="#DejaVuSans-72"/>
      <use x="98.523438" xlink:href="#DejaVuSans-61"/>
      <use x="159.802734" xlink:href="#DejaVuSans-63"/>
      <use x="214.783203" xlink:href="#DejaVuSans-74"/>
      <use x="253.992188" xlink:href="#DejaVuSans-69"/>
      <use x="281.775391" xlink:href="#DejaVuSans-6f"/>
      <use x="342.957031" xlink:href="#DejaVuSans-6e"/>
      <use x="406.335938" xlink:href="#DejaVuSans-20"/>
      <use x="438.123047" xlink:href="#DejaVuSans-6f"/>
      <use x="499.304688" xlink:href="#DejaVuSans-66"/>
      <use x="534.509766" xlink:href="#DejaVuSans-20"/>
      <use x="566.296875" xlink:href="#DejaVuSans-66"/>
      <use x="601.501953" xlink:href="#DejaVuSans-75"/>
      <use x="664.880859" xlink:href="#DejaVuSans-6e"/>
      <use x="728.259766" xlink:href="#DejaVuSans-63"/>
      <use x="783.240234" xlink:href="#DejaVuSans-74"/>
      <use x="822.449219" xlink:href="#DejaVuSans-69"/>
      <use x="850.232422" xlink:href="#DejaVuSans-6f"/>
      <use x="911.414062" xlink:href="#DejaVuSans-6e"/>
      <use x="974.792969" xlink:href="#DejaVuSans-2c"/>
      <use x="1006.580078" xlink:href="#DejaVuSans-74"/>
      <use x="1045.789062" xlink:href="#DejaVuSans-61"/>
      <use x="1107.068359" xlink:href="#DejaVuSans-72"/>
      <use x="1148.166016" xlink:href="#DejaVuSans-67"/>
      <use x="1211.642578" xlink:href="#DejaVuSans-65"/>
      <use x="1273.166016" xlink:href="#DejaVuSans-74"/>
      <use x="1312.375" xlink:href="#DejaVuSans-20"/>
      <use x="1344.162109" xlink:href="#DejaVuSans-70"/>
      <use x="1407.638672" xlink:href="#DejaVuSans-61"/>
      <use x="1468.917969" xlink:href="#DejaVuSans-69"/>
      <use x="1496.701172" xlink:href="#DejaVuSans-72"/>
      <use x="1537.814453" xlink:href="#DejaVuSans-73"/>
     </g>
    </g>
   </g>
   <g id="line2d_37">
    <defs>
     <path d="M 0 1.5 
C 0.397805 1.5 0.77937 1.341951 1.06066 1.06066 
C 1.341951 0.77937 1.5 0.397805 1.5 0 
C 1.5 -0.397805 1.341951 -0.77937 1.06066 -1.06066 
C 0.77937 -1.341951 0.397805 -1.5 0 -1.5 
C -0.397805 -1.5 -0.77937 -1.341951 -1.06066 -1.06066 
C -1.341951 -0.77937 -1.5 -0.397805 -1.5 0 
C -1.5 0.397805 -1.341951 0.77937 -1.06066 1.06066 
C -0.77937 1.341951 -0.397805 1.5 0 1.5 
z
" id="m813c9b0474" style="stroke:#00bfbf;"/>
    </defs>
    <g>
     <use style="fill:#00bfbf;stroke:#00bfbf;" x="163.482025" xlink:href="#m813c9b0474" y="27.513663"/>
     <use style="fill:#00bfbf;stroke:#00bfbf;" x="163.482025" xlink:href="#m813c9b0474" y="27.513663"/>
    </g>
   </g>
   <g id="line2d_38">
    <path d="M 44.205749 294.88 
L 44.205749 292.783009 
L 56.12 292.783009 
L 56.12 290.161771 
L 71.869783 290.161771 
L 71.869783 281.249559 
L 77.653281 281.249559 
L 77.653281 276.53133 
L 79.948502 276.53133 
L 79.948502 276.007082 
L 81.973032 276.007082 
L 81.973032 275.482834 
L 83.784035 275.482834 
L 83.784035 273.385844 
L 86.917893 273.385844 
L 86.917893 272.861596 
L 88.293717 272.861596 
L 88.293717 271.8131 
L 89.567532 271.8131 
L 89.567532 270.764605 
L 91.862754 270.764605 
L 91.862754 270.240357 
L 93.887283 270.240357 
L 93.887283 268.667614 
L 95.698286 268.667614 
L 95.698286 266.046375 
L 96.536922 266.046375 
L 96.536922 265.522128 
L 100.207968 265.522128 
L 100.207968 264.473632 
L 104.819059 264.473632 
L 104.819059 262.376641 
L 105.317315 262.376641 
L 105.317315 259.755403 
L 106.730875 259.755403 
L 106.730875 258.706907 
L 107.177358 258.706907 
L 107.177358 257.658412 
L 108.036969 257.658412 
L 108.036969 255.561421 
L 108.85563 255.561421 
L 108.85563 252.415935 
L 109.637066 252.415935 
L 109.637066 246.64921 
L 110.014853 246.64921 
L 110.014853 245.600714 
L 110.384516 245.600714 
L 110.384516 244.552219 
L 111.448069 244.552219 
L 111.448069 244.027971 
L 111.788449 244.027971 
L 111.788449 239.309742 
L 112.122219 239.309742 
L 112.122219 236.688503 
L 113.086321 236.688503 
L 113.086321 235.640008 
L 114.866043 235.640008 
L 114.866043 233.018769 
L 116.220179 233.018769 
L 116.220179 231.970274 
L 116.478659 231.970274 
L 116.478659 230.921778 
L 120.769881 230.921778 
L 120.769881 229.349035 
L 123.7027 229.349035 
L 123.7027 227.776292 
L 124.200956 227.776292 
L 124.200956 226.203549 
L 126.496178 226.203549 
L 126.496178 225.155053 
L 127.05979 225.155053 
L 127.05979 224.630806 
L 128.898495 224.630806 
L 128.898495 223.058063 
L 130.33171 223.058063 
L 130.33171 222.533815 
L 131.115693 222.533815 
L 131.115693 222.009567 
L 131.865471 222.009567 
L 131.865471 221.485319 
L 132.073821 221.485319 
L 132.073821 220.436824 
L 133.079291 220.436824 
L 133.079291 219.912576 
L 133.749684 219.912576 
L 133.749684 218.339833 
L 135.784647 218.339833 
L 135.784647 217.291338 
L 136.278134 217.291338 
L 136.278134 216.76709 
L 136.439531 216.76709 
L 136.439531 215.194347 
L 136.836515 215.194347 
L 136.836515 212.573108 
L 137.377325 212.573108 
L 137.377325 211.524613 
L 138.33866 211.524613 
L 138.33866 209.427622 
L 138.694545 209.427622 
L 138.694545 208.379126 
L 138.974042 208.379126 
L 138.974042 207.330631 
L 139.519758 207.330631 
L 139.519758 206.806383 
L 139.852237 206.806383 
L 139.852237 206.282136 
L 140.113666 206.282136 
L 140.113666 205.23364 
L 140.242905 205.23364 
L 140.242905 201.563906 
L 141.121347 201.563906 
L 141.121347 199.991163 
L 141.544287 199.991163 
L 141.544287 198.942667 
L 141.84014 198.942667 
L 141.84014 198.41842 
L 142.07321 198.41842 
L 142.07321 197.369924 
L 142.473629 197.369924 
L 142.473629 196.321429 
L 142.642422 196.321429 
L 142.642422 195.797181 
L 142.920112 195.797181 
L 142.920112 193.175943 
L 143.084598 193.175943 
L 143.084598 192.651695 
L 143.779723 192.651695 
L 143.779723 192.127447 
L 144.698028 192.127447 
L 144.698028 191.603199 
L 144.84642 191.603199 
L 144.84642 190.554704 
L 145.943432 190.554704 
L 145.989576 187.933465 
L 146.799661 187.933465 
L 146.799661 186.360722 
L 147.104664 186.360722 
L 147.104664 185.836474 
L 147.988485 185.836474 
L 147.988485 185.312227 
L 148.750766 185.312227 
L 148.789965 183.739484 
L 149.061881 183.739484 
L 149.061881 180.593997 
L 149.291576 180.593997 
L 149.291576 180.06975 
L 149.518243 180.06975 
L 149.518243 177.972759 
L 149.630465 177.972759 
L 149.630465 177.448511 
L 149.852735 177.448511 
L 149.852735 176.924263 
L 150.108469 176.924263 
L 150.144693 174.303025 
L 150.538207 174.303025 
L 150.538207 172.730281 
L 151.026355 172.730281 
L 151.026355 172.206034 
L 151.231391 172.206034 
L 151.231391 171.681786 
L 151.400405 171.681786 
L 151.400405 170.109043 
L 151.634268 170.109043 
L 151.733528 163.81807 
L 151.832219 163.81807 
L 151.8977 160.148336 
L 151.995456 160.148336 
L 152.027918 158.575593 
L 152.412754 158.575593 
L 152.412754 157.527098 
L 152.539141 157.527098 
L 152.539141 157.00285 
L 152.664606 157.00285 
L 152.664606 155.430107 
L 152.88199 155.430107 
L 152.97432 153.333116 
L 153.004986 153.333116 
L 153.004986 152.28462 
L 153.30868 152.28462 
L 153.30868 150.711877 
L 153.458539 150.711877 
L 153.458539 150.18763 
L 153.607102 150.18763 
L 153.695627 145.4694 
L 153.725034 145.4694 
L 153.725034 144.945152 
L 153.842163 144.945152 
L 153.871321 143.372409 
L 153.9585 143.372409 
L 154.045238 133.93595 
L 154.074054 133.93595 
L 154.074054 131.838959 
L 154.302858 131.838959 
L 154.302858 130.790464 
L 154.472484 130.790464 
L 154.472484 130.266216 
L 154.668288 130.266216 
L 154.723825 125.547987 
L 154.834363 125.547987 
L 154.834363 123.975244 
L 155.026111 123.975244 
L 155.026111 122.4025 
L 155.242663 122.4025 
L 155.349925 117.684271 
L 155.562461 117.684271 
L 155.667752 114.014537 
L 155.798464 114.014537 
L 155.876417 109.820555 
L 155.92819 109.820555 
L 156.031271 106.675069 
L 156.056945 106.675069 
L 156.056945 106.150821 
L 156.235596 106.150821 
L 156.235596 105.626573 
L 156.362076 105.626573 
L 156.43752 102.481087 
L 156.487633 102.481087 
L 156.487633 100.908344 
L 156.6371 100.908344 
L 156.686635 97.23861 
L 156.932191 97.23861 
L 157.02944 89.899142 
L 157.198312 89.899142 
L 157.270181 85.70516 
L 157.365541 85.70516 
L 157.365541 85.180912 
L 157.671858 85.180912 
L 157.741778 82.559674 
L 157.88077 82.559674 
L 157.88077 82.035426 
L 158.018648 82.035426 
L 158.018648 81.511178 
L 158.200781 81.511178 
L 158.223412 78.365692 
L 158.358579 78.365692 
L 158.448103 73.647463 
L 158.470412 73.647463 
L 158.559357 69.977729 
L 158.713912 69.977729 
L 158.823464 66.307995 
L 158.910606 66.307995 
L 159.018915 61.589765 
L 159.147992 61.589765 
L 159.147992 60.017022 
L 159.297366 60.017022 
L 159.3186 57.395783 
L 159.529506 57.395783 
L 159.529506 56.347288 
L 159.737856 56.347288 
L 159.737856 55.298792 
L 159.96416 55.298792 
L 160.066049 49.532068 
L 160.207687 49.532068 
L 160.268033 46.386581 
L 160.427929 46.386581 
L 160.527113 42.716847 
L 160.625729 42.716847 
L 160.625729 42.192599 
L 160.840712 42.192599 
L 160.918225 40.619856 
L 160.976132 40.619856 
L 160.976132 39.571361 
L 161.148691 39.571361 
L 161.243814 37.998618 
L 161.262775 37.998618 
L 161.262775 35.901627 
L 161.65621 35.901627 
L 161.73014 33.280388 
L 161.822107 33.280388 
L 161.822107 30.65915 
L 162.328224 30.65915 
L 162.328224 30.134902 
L 163.04343 30.134902 
L 163.145642 29.086407 
L 163.482025 29.086407 
L 163.482025 27.513663 
L 333.168 27.513663 
L 333.168 27.513663 
" style="fill:none;stroke:#00bfbf;stroke-linecap:square;stroke-width:1.5;"/>
   </g>
   <g id="line2d_39">
    <defs>
     <path d="M -6 0 
L 6 0 
M 0 6 
L 0 -6 
" id="m2b08092112" style="stroke:#00bfbf;stroke-width:1.5;"/>
    </defs>
    <g>
     <use style="fill-opacity:0;stroke:#00bfbf;stroke-width:1.5;" x="106.730875" xlink:href="#m2b08092112" y="258.706907"/>
     <use style="fill-opacity:0;stroke:#00bfbf;stroke-width:1.5;" x="143.084598" xlink:href="#m2b08092112" y="193.175943"/>
     <use style="fill-opacity:0;stroke:#00bfbf;stroke-width:1.5;" x="158.514942" xlink:href="#m2b08092112" y="72.598967"/>
     <use style="fill-opacity:0;stroke:#00bfbf;stroke-width:1.5;" x="163.482025" xlink:href="#m2b08092112" y="29.086407"/>
     <use style="fill-opacity:0;stroke:#00bfbf;stroke-width:1.5;" x="163.482025" xlink:href="#m2b08092112" y="27.513663"/>
     <use style="fill-opacity:0;stroke:#00bfbf;stroke-width:1.5;" x="333.168" xlink:href="#m2b08092112" y="27.513663"/>
    </g>
   </g>
   <g id="line2d_40">
    <path style="fill:none;stroke:#00bfbf;stroke-linecap:square;stroke-width:1.5;"/>
    <g/>
   </g>
   <g id="line2d_41">
    <defs>
     <path d="M 0 1.5 
C 0.397805 1.5 0.77937 1.341951 1.06066 1.06066 
C 1.341951 0.77937 1.5 0.397805 1.5 0 
C 1.5 -0.397805 1.341951 -0.77937 1.06066 -1.06066 
C 0.77937 -1.341951 0.397805 -1.5 0 -1.5 
C -0.397805 -1.5 -0.77937 -1.341951 -1.06066 -1.06066 
C -1.341951 -0.77937 -1.5 -0.397805 -1.5 0 
C -1.5 0.397805 -1.341951 0.77937 -1.06066 1.06066 
C -0.77937 1.341951 -0.397805 1.5 0 1.5 
z
" id="mbaa9540d5d" style="stroke:#008000;"/>
    </defs>
    <g>
     <use style="fill:#008000;stroke:#008000;" x="167.756066" xlink:href="#mbaa9540d5d" y="27.513663"/>
     <use style="fill:#008000;stroke:#008000;" x="167.756066" xlink:href="#mbaa9540d5d" y="27.513663"/>
    </g>
   </g>
   <g id="line2d_42">
    <path d="M 72.979112 294.88 
L 72.979112 293.831505 
L 76.814644 293.831505 
L 76.814644 292.783009 
L 78.452896 292.783009 
L 78.452896 291.210266 
L 83.784035 291.210266 
L 83.784035 290.161771 
L 89.567532 290.161771 
L 89.567532 289.637523 
L 96.807615 289.637523 
L 96.807615 289.113275 
L 97.849669 289.113275 
L 97.849669 288.06478 
L 103.415125 288.06478 
L 103.415125 287.540532 
L 103.777005 287.540532 
L 103.777005 286.492036 
L 104.131422 286.492036 
L 104.131422 284.919293 
L 105.152829 284.919293 
L 105.152829 283.870798 
L 105.480242 283.870798 
L 105.480242 281.773807 
L 108.176149 281.773807 
L 108.176149 281.249559 
L 108.721866 281.249559 
L 108.721866 280.725312 
L 110.014853 280.725312 
L 110.014853 278.628321 
L 110.746395 278.628321 
L 110.746395 278.104073 
L 112.341186 278.104073 
L 112.341186 277.055578 
L 114.389873 277.055578 
L 114.389873 276.53133 
L 114.771859 276.53133 
L 114.771859 276.007082 
L 118.186736 276.007082 
L 118.186736 274.958587 
L 118.493684 274.958587 
L 118.493684 271.288853 
L 118.795247 271.288853 
L 118.795247 270.240357 
L 119.237897 270.240357 
L 119.237897 269.716109 
L 119.669433 269.716109 
L 119.669433 268.667614 
L 121.034327 268.667614 
L 121.034327 266.570623 
L 121.678171 266.570623 
L 121.678171 265.522128 
L 122.053211 265.522128 
L 122.053211 263.949385 
L 122.420242 263.949385 
L 122.420242 263.425137 
L 122.540864 263.425137 
L 122.540864 262.376641 
L 124.790952 262.376641 
L 124.790952 261.328146 
L 125.000572 261.328146 
L 125.000572 259.755403 
L 125.614517 259.755403 
L 125.614517 256.609917 
L 125.913457 256.609917 
L 125.913457 256.085669 
L 126.873966 256.085669 
L 126.873966 255.561421 
L 127.42552 255.561421 
L 127.42552 255.037173 
L 127.605507 255.037173 
L 127.694799 252.940182 
L 128.478214 252.940182 
L 128.478214 252.415935 
L 128.647561 252.415935 
L 128.647561 251.891687 
L 128.981332 251.891687 
L 128.981332 251.367439 
L 129.145817 251.367439 
L 129.145817 250.843192 
L 129.630036 250.843192 
L 129.630036 249.794696 
L 130.178239 249.794696 
L 130.255146 248.746201 
L 131.51251 248.746201 
L 131.51251 248.221953 
L 131.935202 248.221953 
L 131.935202 247.697705 
L 133.718347 247.697705 
L 133.718347 247.173458 
L 134.273863 247.173458 
L 134.273863 246.124962 
L 134.634477 246.124962 
L 134.634477 245.600714 
L 134.753019 245.600714 
L 134.753019 245.076467 
L 135.10382 245.076467 
L 135.10382 244.027971 
L 137.121917 244.027971 
L 137.121917 243.503724 
L 137.926211 243.503724 
L 137.926211 242.455228 
L 138.788217 242.455228 
L 138.788217 241.406733 
L 139.157879 241.406733 
L 139.157879 240.882485 
L 139.384945 240.882485 
L 139.384945 240.358237 
L 139.564462 240.358237 
L 139.564462 239.83399 
L 139.830271 239.83399 
L 139.830271 238.785494 
L 140.092032 238.785494 
L 140.092032 238.261246 
L 140.729508 238.261246 
L 140.729508 237.736999 
L 141.141725 237.736999 
L 141.141725 237.212751 
L 141.344185 237.212751 
L 141.344185 236.688503 
L 141.464526 236.688503 
L 141.544287 235.640008 
L 142.245962 235.640008 
L 142.322186 233.018769 
L 142.398074 233.018769 
L 142.473629 231.970274 
L 143.674593 231.970274 
L 143.674593 231.446026 
L 144.262 231.446026 
L 144.363608 229.349035 
L 144.862829 229.349035 
L 144.862829 228.824787 
L 146.667271 228.824787 
L 146.667271 228.30054 
L 147.104664 228.30054 
L 147.190823 226.727797 
L 147.698898 226.727797 
L 147.698898 226.203549 
L 148.246353 226.203549 
L 148.353782 224.630806 
L 149.061881 224.630806 
L 149.138788 223.58231 
L 149.189868 223.58231 
L 149.189868 223.058063 
L 149.31691 223.058063 
L 149.31691 222.009567 
L 149.717245 222.009567 
L 149.717245 220.961072 
L 149.889502 220.961072 
L 149.962801 219.388328 
L 150.06005 219.388328 
L 150.06005 218.864081 
L 150.372361 218.864081 
L 150.419909 217.815585 
L 150.538207 217.815585 
L 150.608797 216.76709 
L 150.772388 216.76709 
L 150.842025 215.194347 
L 151.026355 215.194347 
L 151.026355 214.670099 
L 151.299196 214.670099 
L 151.299196 213.621604 
L 151.478713 213.621604 
L 151.478713 212.573108 
L 151.612132 212.573108 
L 151.612132 212.04886 
L 151.766488 212.04886 
L 151.854074 209.95187 
L 152.135684 209.95187 
L 152.135684 209.427622 
L 152.28543 209.427622 
L 152.327976 208.379126 
L 152.433883 208.379126 
L 152.539141 206.282136 
L 152.643759 206.282136 
L 152.726997 204.185145 
L 152.830481 204.185145 
L 152.871701 203.136649 
L 153.218134 203.136649 
L 153.298643 201.563906 
L 153.478421 201.563906 
L 153.478421 201.039658 
L 153.636661 201.039658 
L 153.734826 199.991163 
L 153.754391 199.991163 
L 153.793457 197.894172 
L 153.871321 197.894172 
L 153.910122 196.845677 
L 153.987461 196.845677 
L 154.026001 195.797181 
L 154.331245 195.797181 
L 154.425533 194.224438 
L 154.444329 194.224438 
L 154.444329 193.70019 
L 154.76075 193.70019 
L 154.871052 190.554704 
L 155.089554 190.554704 
L 155.161776 188.457713 
L 155.305314 188.457713 
L 155.376636 186.88497 
L 155.429934 186.88497 
L 155.447664 184.787979 
L 155.728875 184.787979 
L 155.781093 182.690988 
L 156.022705 182.690988 
L 156.074039 180.593997 
L 156.176252 180.593997 
L 156.227131 178.497006 
L 156.294736 178.497006 
L 156.294736 177.448511 
L 156.678389 177.448511 
L 156.678389 176.924263 
L 156.891508 176.924263 
L 156.907793 174.827272 
L 157.085915 174.827272 
L 157.085915 173.778777 
L 157.198312 173.778777 
L 157.294071 171.157538 
L 157.373464 171.157538 
L 157.484002 168.012052 
L 157.531159 168.012052 
L 157.609467 164.866566 
L 157.888459 164.866566 
L 157.995745 161.196832 
L 158.07197 161.196832 
L 158.07197 160.672584 
L 158.19323 160.672584 
L 158.268586 157.527098 
L 158.328634 157.527098 
L 158.343613 155.954354 
L 158.507528 155.954354 
L 158.61103 153.857364 
L 158.743194 153.857364 
L 158.816182 151.760373 
L 158.975673 151.760373 
L 159.047683 146.517896 
L 159.090744 146.517896 
L 159.162274 144.420905 
L 159.219284 144.420905 
L 159.219284 143.896657 
L 159.360989 143.896657 
L 159.431405 141.275418 
L 159.529506 141.275418 
L 159.585313 139.178427 
L 159.682542 139.178427 
L 159.779224 134.984446 
L 159.820493 134.984446 
L 159.889056 132.887455 
L 159.970972 132.887455 
L 160.038938 128.169225 
L 160.106637 128.169225 
L 160.187524 123.450996 
L 160.268033 123.450996 
L 160.361486 119.257014 
L 160.454434 119.257014 
L 160.494115 116.111528 
L 160.573204 116.111528 
L 160.573204 115.063032 
L 160.704216 115.063032 
L 160.743325 112.441794 
L 160.95042 112.441794 
L 161.053039 107.723564 
L 161.091363 107.723564 
L 161.129603 104.578078 
L 161.306937 104.578078 
L 161.394923 99.335601 
L 161.41998 99.335601 
L 161.457496 94.093124 
L 161.668554 94.093124 
L 161.705532 91.996133 
L 161.803753 91.996133 
L 161.889239 87.277903 
L 161.925746 87.277903 
L 161.986418 85.70516 
L 162.046878 85.70516 
L 162.155172 76.268701 
L 162.226991 76.268701 
L 162.274704 75.220206 
L 162.428863 75.220206 
L 162.487789 74.17171 
L 162.593349 74.17171 
L 162.698265 69.977729 
L 162.767854 69.977729 
L 162.767854 68.929233 
L 162.963509 68.929233 
L 162.963509 68.404985 
L 163.077568 68.404985 
L 163.179578 65.259499 
L 163.202165 65.259499 
L 163.213447 61.589765 
L 163.337066 61.589765 
L 163.404122 56.347288 
L 163.470918 56.347288 
L 163.504218 52.677554 
L 163.724588 52.677554 
L 163.724588 51.104811 
L 163.985356 51.104811 
L 163.985356 49.00782 
L 164.157029 49.00782 
L 164.252847 46.910829 
L 164.369237 46.910829 
L 164.369237 44.28959 
L 164.661995 44.28959 
L 164.744732 41.144104 
L 164.785952 41.144104 
L 164.847597 39.047113 
L 164.94985 39.047113 
L 164.94985 38.522865 
L 165.091989 38.522865 
L 165.091989 36.425875 
L 165.222932 36.425875 
L 165.222932 34.853131 
L 165.678417 34.853131 
L 165.678417 34.328884 
L 166.045792 34.328884 
L 166.045792 30.134902 
L 167.582003 30.134902 
L 167.582003 29.086407 
L 167.756066 29.086407 
L 167.756066 27.513663 
L 333.168 27.513663 
L 333.168 27.513663 
" style="fill:none;stroke:#008000;stroke-linecap:square;stroke-width:1.5;"/>
   </g>
   <g id="line2d_43">
    <defs>
     <path d="M -0 6 
L 6 -6 
L -6 -6 
z
" id="m638a8df642" style="stroke:#008000;stroke-linejoin:miter;stroke-width:1.5;"/>
    </defs>
    <g>
     <use style="fill-opacity:0;stroke:#008000;stroke-linejoin:miter;stroke-width:1.5;" x="124.790952" xlink:href="#m638a8df642" y="261.328146"/>
     <use style="fill-opacity:0;stroke:#008000;stroke-linejoin:miter;stroke-width:1.5;" x="163.404122" xlink:href="#m638a8df642" y="57.920031"/>
     <use style="fill-opacity:0;stroke:#008000;stroke-linejoin:miter;stroke-width:1.5;" x="167.756066" xlink:href="#m638a8df642" y="29.086407"/>
     <use style="fill-opacity:0;stroke:#008000;stroke-linejoin:miter;stroke-width:1.5;" x="167.756066" xlink:href="#m638a8df642" y="27.513663"/>
     <use style="fill-opacity:0;stroke:#008000;stroke-linejoin:miter;stroke-width:1.5;" x="333.168" xlink:href="#m638a8df642" y="27.513663"/>
    </g>
   </g>
   <g id="line2d_44">
    <path style="fill:none;stroke:#008000;stroke-linecap:square;stroke-width:1.5;"/>
    <g/>
   </g>
   <g id="line2d_45">
    <defs>
     <path d="M 0 1.5 
C 0.397805 1.5 0.77937 1.341951 1.06066 1.06066 
C 1.341951 0.77937 1.5 0.397805 1.5 0 
C 1.5 -0.397805 1.341951 -0.77937 1.06066 -1.06066 
C 0.77937 -1.341951 0.397805 -1.5 0 -1.5 
C -0.397805 -1.5 -0.77937 -1.341951 -1.06066 -1.06066 
C -1.341951 -0.77937 -1.5 -0.397805 -1.5 0 
C -1.5 0.397805 -1.341951 0.77937 -1.06066 1.06066 
C -0.77937 1.341951 -0.397805 1.5 0 1.5 
z
" id="m12b07f22cd" style="stroke:#0000ff;"/>
    </defs>
    <g>
     <use style="fill:#0000ff;stroke:#0000ff;" x="173.214887" xlink:href="#m12b07f22cd" y="27.513663"/>
     <use style="fill:#0000ff;stroke:#0000ff;" x="173.214887" xlink:href="#m12b07f22cd" y="27.513663"/>
    </g>
   </g>
   <g id="line2d_46">
    <path d="M 82.350819 294.88 
L 82.350819 292.783009 
L 102.436953 292.783009 
L 102.436953 291.734514 
L 105.020098 291.734514 
L 105.020098 291.210266 
L 107.612537 291.210266 
L 107.612537 290.686018 
L 109.713291 290.686018 
L 109.713291 289.637523 
L 110.163674 289.637523 
L 110.163674 289.113275 
L 111.310007 289.113275 
L 111.310007 287.540532 
L 112.122219 287.540532 
L 112.122219 287.016284 
L 112.514373 287.016284 
L 112.514373 284.919293 
L 116.631902 284.919293 
L 116.631902 284.395046 
L 117.523731 284.395046 
L 117.523731 282.822302 
L 119.440629 282.822302 
L 119.440629 282.298055 
L 123.769975 282.298055 
L 123.769975 281.773807 
L 125.49347 281.773807 
L 125.49347 280.725312 
L 125.734717 280.725312 
L 125.734717 279.676816 
L 126.207287 279.676816 
L 126.207287 279.152568 
L 127.389295 279.152568 
L 127.389295 278.628321 
L 128.444143 278.628321 
L 128.444143 278.104073 
L 128.596932 278.104073 
L 128.596932 277.579825 
L 128.898495 277.579825 
L 128.898495 277.055578 
L 129.145817 277.055578 
L 129.145817 276.53133 
L 130.054468 276.53133 
L 130.054468 276.007082 
L 130.193648 276.007082 
L 130.239792 274.958587 
L 131.612072 274.958587 
L 131.612072 274.434339 
L 131.823497 274.434339 
L 131.823497 273.910091 
L 132.238701 273.910091 
L 132.320552 272.337348 
L 132.402015 272.337348 
L 132.402015 271.288853 
L 132.644112 271.288853 
L 132.644112 270.764605 
L 132.803637 270.764605 
L 132.803637 270.240357 
L 132.961694 270.240357 
L 132.961694 269.716109 
L 133.541793 269.716109 
L 133.541793 268.667614 
L 133.955092 268.667614 
L 134.029181 267.619119 
L 134.249551 267.619119 
L 134.286006 266.570623 
L 134.999329 266.570623 
L 134.999329 266.046375 
L 135.276571 266.046375 
L 135.276571 265.522128 
L 136.082436 265.522128 
L 136.082436 264.99788 
L 136.503668 264.99788 
L 136.503668 264.473632 
L 137.193815 264.473632 
L 137.224536 263.425137 
L 138.004608 263.425137 
L 138.033915 261.852394 
L 138.353038 261.852394 
L 138.353038 260.803898 
L 139.891706 260.803898 
L 139.996515 259.755403 
L 140.712812 259.755403 
L 140.712812 259.231155 
L 141.231101 259.231155 
L 141.255396 258.18266 
L 142.787381 258.18266 
L 142.787381 257.658412 
L 143.182539 257.658412 
L 143.182539 256.609917 
L 143.674593 256.609917 
L 143.674593 256.085669 
L 144.091308 256.085669 
L 144.091308 255.561421 
L 144.457904 255.561421 
L 144.457904 255.037173 
L 144.717888 255.037173 
L 144.717888 254.512926 
L 145.05204 254.512926 
L 145.05204 253.988678 
L 146.017203 253.988678 
L 146.017203 253.46443 
L 147.378865 253.46443 
L 147.395858 252.415935 
L 148.719342 252.415935 
L 148.829074 251.367439 
L 149.397726 251.367439 
L 149.397726 250.843192 
L 149.771569 250.843192 
L 149.771569 250.318944 
L 150.749113 250.318944 
L 150.749113 249.794696 
L 151.713722 249.794696 
L 151.713722 249.270448 
L 151.845336 249.270448 
L 151.845336 248.746201 
L 152.027918 248.746201 
L 152.027918 248.221953 
L 152.425434 248.221953 
L 152.425434 247.697705 
L 152.627063 247.697705 
L 152.627063 247.173458 
L 153.302659 247.173458 
L 153.302659 246.64921 
L 153.73091 246.64921 
L 153.73091 246.124962 
L 154.022151 246.124962 
L 154.022151 245.600714 
L 154.251642 245.600714 
L 154.251642 245.076467 
L 155.204963 245.076467 
L 155.204963 244.552219 
L 155.451207 244.552219 
L 155.451207 244.027971 
L 155.964339 244.027971 
L 155.964339 243.503724 
L 156.097943 243.503724 
L 156.189834 242.455228 
L 156.210188 242.455228 
L 156.210188 241.93098 
L 156.432501 241.93098 
L 156.432501 241.406733 
L 156.552562 241.406733 
L 156.552562 240.882485 
L 156.67179 240.882485 
L 156.67179 240.358237 
L 156.956555 240.358237 
L 156.956555 239.83399 
L 157.121319 239.83399 
L 157.227096 238.785494 
L 157.265399 238.785494 
L 157.265399 238.261246 
L 157.848439 238.261246 
L 157.913041 236.688503 
L 158.196251 236.688503 
L 158.223412 235.640008 
L 158.465953 235.640008 
L 158.465953 235.11576 
L 158.661078 235.11576 
L 158.749045 233.543017 
L 158.80161 233.543017 
L 158.80161 233.018769 
L 158.975673 233.018769 
L 159.079271 230.921778 
L 159.207897 230.921778 
L 159.293116 229.873283 
L 159.445454 229.873283 
L 159.445454 229.349035 
L 159.571378 229.349035 
L 159.588099 228.30054 
L 159.869886 228.30054 
L 159.878104 227.252044 
L 159.99275 227.252044 
L 160.009066 226.203549 
L 160.147128 226.203549 
L 160.187524 225.155053 
L 160.268033 225.155053 
L 160.33217 223.58231 
L 160.45973 223.58231 
L 160.538977 222.533815 
L 160.696383 222.533815 
L 160.79793 219.912576 
L 161.099018 219.912576 
L 161.129603 218.864081 
L 161.236223 218.864081 
L 161.327088 216.242842 
L 161.402444 216.242842 
L 161.499915 215.194347 
L 161.60427 215.194347 
L 161.71538 213.621604 
L 161.862418 213.621604 
L 161.971876 210.476117 
L 162.029971 210.476117 
L 162.131166 208.379126 
L 162.296132 208.379126 
L 162.374473 206.282136 
L 162.431224 206.282136 
L 162.523048 204.185145 
L 162.642389 204.185145 
L 162.642389 203.660897 
L 162.988667 203.660897 
L 163.070746 202.612401 
L 163.132049 202.612401 
L 163.233737 200.515411 
L 163.375097 200.515411 
L 163.462027 196.321429 
L 163.614756 196.321429 
L 163.707062 193.70019 
L 163.772693 193.70019 
L 163.811951 192.651695 
L 163.8902 192.651695 
L 163.948654 190.030456 
L 164.01337 190.030456 
L 164.097139 187.409218 
L 164.167702 187.409218 
L 164.263461 184.787979 
L 164.282549 184.787979 
L 164.383994 182.16674 
L 164.491128 182.16674 
L 164.572606 179.021254 
L 164.610081 179.021254 
L 164.709617 176.400016 
L 164.765354 176.400016 
L 164.851699 172.730281 
L 164.894709 172.730281 
L 164.900844 171.681786 
L 165.240984 171.681786 
L 165.336943 166.963557 
L 165.42047 166.963557 
L 165.485815 164.866566 
L 165.539094 164.866566 
L 165.633408 161.196832 
L 165.662775 161.196832 
L 165.750577 159.099841 
L 165.814681 159.099841 
L 165.913283 155.430107 
L 165.971022 155.430107 
L 166.080193 150.18763 
L 166.154491 150.18763 
L 166.234147 145.4694 
L 166.336023 145.4694 
L 166.442907 141.275418 
L 166.476522 141.275418 
L 166.582539 135.508693 
L 166.588101 135.508693 
L 166.671312 132.363207 
L 166.715527 132.363207 
L 166.809109 130.266216 
L 166.874861 130.266216 
L 166.934913 129.217721 
L 167.000186 129.217721 
L 167.081431 125.023739 
L 167.162294 125.023739 
L 167.258829 120.829757 
L 167.322886 120.829757 
L 167.370773 117.684271 
L 167.439708 117.684271 
L 167.550483 111.917546 
L 167.602984 111.917546 
L 167.691868 107.199317 
L 167.72313 107.199317 
L 167.811397 103.005335 
L 167.86827 103.005335 
L 167.971196 97.762858 
L 168.022429 97.762858 
L 168.063306 94.617371 
L 168.134607 94.617371 
L 168.220791 89.374894 
L 168.251106 89.374894 
L 168.361806 85.180912 
L 168.41689 85.180912 
L 168.41689 84.132417 
L 168.536463 84.132417 
L 168.645346 80.462683 
L 168.768246 80.462683 
L 168.861065 76.268701 
L 168.938842 76.268701 
L 169.03557 73.123215 
L 169.050033 73.123215 
L 169.155721 69.977729 
L 169.170082 69.977729 
L 169.275037 66.307995 
L 169.332016 66.307995 
L 169.398253 62.638261 
L 169.572091 62.638261 
L 169.637412 55.298792 
L 169.707124 55.298792 
L 169.795022 53.726049 
L 169.822686 53.726049 
L 169.873288 52.677554 
L 169.983178 52.677554 
L 170.046958 50.580563 
L 170.110502 50.580563 
L 170.169298 49.532068 
L 170.254869 49.532068 
L 170.304217 47.959324 
L 170.393578 47.959324 
L 170.393578 46.386581 
L 170.544435 46.386581 
L 170.606169 43.765343 
L 170.658908 43.765343 
L 170.663296 42.716847 
L 171.010728 42.716847 
L 171.036505 40.095609 
L 171.300623 40.095609 
L 171.355492 38.522865 
L 171.50235 38.522865 
L 171.585709 36.950122 
L 171.959971 36.950122 
L 172.020888 30.65915 
L 172.2784 30.65915 
L 172.2784 30.134902 
L 172.405724 30.134902 
L 172.405724 29.610654 
L 172.547845 29.610654 
L 172.559635 28.562159 
L 173.005615 28.562159 
L 173.005615 28.037911 
L 173.214887 28.037911 
L 173.214887 27.513663 
L 333.168 27.513663 
L 333.168 27.513663 
" style="fill:none;stroke:#0000ff;stroke-linecap:square;stroke-width:1.5;"/>
   </g>
   <g id="line2d_47">
    <defs>
     <path d="M 0 -6 
L -1.347084 -1.854102 
L -5.706339 -1.854102 
L -2.179628 0.708204 
L -3.526712 4.854102 
L -0 2.291796 
L 3.526712 4.854102 
L 2.179628 0.708204 
L 5.706339 -1.854102 
L 1.347084 -1.854102 
z
" id="m2aee2b6782" style="stroke:#0000ff;stroke-linejoin:bevel;stroke-width:1.5;"/>
    </defs>
    <g>
     <use style="fill-opacity:0;stroke:#0000ff;stroke-linejoin:bevel;stroke-width:1.5;" x="166.588101" xlink:href="#m2aee2b6782" y="135.508693"/>
     <use style="fill-opacity:0;stroke:#0000ff;stroke-linejoin:bevel;stroke-width:1.5;" x="173.214887" xlink:href="#m2aee2b6782" y="28.037911"/>
     <use style="fill-opacity:0;stroke:#0000ff;stroke-linejoin:bevel;stroke-width:1.5;" x="173.214887" xlink:href="#m2aee2b6782" y="27.513663"/>
     <use style="fill-opacity:0;stroke:#0000ff;stroke-linejoin:bevel;stroke-width:1.5;" x="173.214887" xlink:href="#m2aee2b6782" y="27.513663"/>
     <use style="fill-opacity:0;stroke:#0000ff;stroke-linejoin:bevel;stroke-width:1.5;" x="333.168" xlink:href="#m2aee2b6782" y="27.513663"/>
    </g>
   </g>
   <g id="line2d_48">
    <path style="fill:none;stroke:#0000ff;stroke-linecap:square;stroke-width:1.5;"/>
    <g/>
   </g>
   <g id="line2d_49">
    <defs>
     <path d="M 0 1.5 
C 0.397805 1.5 0.77937 1.341951 1.06066 1.06066 
C 1.341951 0.77937 1.5 0.397805 1.5 0 
C 1.5 -0.397805 1.341951 -0.77937 1.06066 -1.06066 
C 0.77937 -1.341951 0.397805 -1.5 0 -1.5 
C -0.397805 -1.5 -0.77937 -1.341951 -1.06066 -1.06066 
C -1.341951 -0.77937 -1.5 -0.397805 -1.5 0 
C -1.5 0.397805 -1.341951 0.77937 -1.06066 1.06066 
C -0.77937 1.341951 -0.397805 1.5 0 1.5 
z
" id="m879e4f165d" style="stroke:#000000;"/>
    </defs>
    <g>
     <use style="stroke:#000000;" x="183.557036" xlink:href="#m879e4f165d" y="27.513663"/>
     <use style="stroke:#000000;" x="183.557036" xlink:href="#m879e4f165d" y="27.513663"/>
    </g>
   </g>
   <g id="line2d_50">
    <path d="M 126.438787 294.88 
L 126.438787 294.355752 
L 129.748989 294.355752 
L 129.748989 293.831505 
L 131.049878 293.831505 
L 131.049878 293.307257 
L 132.743988 293.307257 
L 132.743988 292.783009 
L 133.098812 292.783009 
L 133.098812 292.258761 
L 134.574897 292.258761 
L 134.574897 291.734514 
L 134.999329 291.734514 
L 134.999329 291.210266 
L 135.121173 291.210266 
L 135.121173 290.686018 
L 135.24216 290.686018 
L 135.24216 290.161771 
L 135.801327 290.161771 
L 135.801327 289.637523 
L 136.310535 289.637523 
L 136.310535 288.589027 
L 136.930442 288.589027 
L 136.930442 288.06478 
L 137.163039 288.06478 
L 137.163039 287.540532 
L 137.316373 287.540532 
L 137.39253 286.492036 
L 137.798047 286.492036 
L 137.827708 285.443541 
L 138.567274 285.443541 
L 138.567274 284.919293 
L 138.918505 284.919293 
L 138.918505 284.395046 
L 139.22176 284.395046 
L 139.22176 283.870798 
L 139.46596 283.870798 
L 139.559997 281.249559 
L 140.675186 281.249559 
L 140.750355 280.201064 
L 140.850072 280.201064 
L 140.850072 279.676816 
L 141.340159 279.676816 
L 141.340159 279.152568 
L 141.520398 279.152568 
L 141.520398 278.628321 
L 141.793145 278.628321 
L 141.793145 278.104073 
L 141.945413 278.104073 
L 141.945413 277.579825 
L 142.061631 277.579825 
L 142.061631 277.055578 
L 142.496231 277.055578 
L 142.496231 276.53133 
L 143.062757 276.53133 
L 143.062757 276.007082 
L 143.22589 276.007082 
L 143.22589 275.482834 
L 143.473058 275.482834 
L 143.473058 274.958587 
L 143.65349 274.958587 
L 143.65349 274.434339 
L 143.873793 274.434339 
L 143.95698 273.385844 
L 145.531932 273.385844 
L 145.531932 272.861596 
L 145.980357 272.861596 
L 145.99879 271.8131 
L 146.227548 271.8131 
L 146.272936 270.764605 
L 146.363355 270.764605 
L 146.363355 270.240357 
L 146.569532 270.240357 
L 146.569532 269.716109 
L 147.267998 269.716109 
L 147.267998 269.191862 
L 147.723912 269.191862 
L 147.723912 268.667614 
L 147.897996 268.667614 
L 147.980278 267.094871 
L 148.013081 267.094871 
L 148.013081 266.570623 
L 149.337149 266.570623 
L 149.337149 266.046375 
L 149.525747 266.046375 
L 149.525747 265.522128 
L 149.645373 265.522128 
L 149.645373 264.99788 
L 150.296009 264.99788 
L 150.296009 264.473632 
L 150.573538 264.473632 
L 150.573538 263.949385 
L 151.647536 263.949385 
L 151.647536 263.425137 
L 160.735511 263.425137 
L 160.735511 262.900889 
L 160.848479 262.900889 
L 160.848479 262.376641 
L 161.072212 262.376641 
L 161.072212 261.852394 
L 162.923409 261.852394 
L 162.923409 261.328146 
L 163.084387 261.328146 
L 163.186357 259.755403 
L 164.352357 259.755403 
L 164.352357 259.231155 
L 165.265024 259.231155 
L 165.265024 258.706907 
L 165.703805 258.706907 
L 165.703805 258.18266 
L 166.459723 258.18266 
L 166.459723 257.658412 
L 166.74586 257.658412 
L 166.74586 257.134164 
L 167.0246 257.134164 
L 167.0246 256.609917 
L 167.30156 256.609917 
L 167.30156 256.085669 
L 168.895136 256.085669 
L 168.895136 255.561421 
L 169.172475 255.561421 
L 169.208322 254.512926 
L 169.358068 254.512926 
L 169.433633 253.46443 
L 170.019653 253.46443 
L 170.019653 252.940182 
L 170.277318 252.940182 
L 170.277318 252.415935 
L 170.528966 252.415935 
L 170.528966 251.891687 
L 170.87043 251.891687 
L 170.95259 250.843192 
L 171.271006 250.843192 
L 171.357598 248.746201 
L 171.38286 248.746201 
L 171.38286 248.221953 
L 171.68521 248.221953 
L 171.68521 247.697705 
L 172.020888 247.697705 
L 172.020888 247.173458 
L 172.212378 247.173458 
L 172.212378 246.64921 
L 172.706339 246.64921 
L 172.813131 244.027971 
L 172.894237 244.027971 
L 172.936569 242.979476 
L 173.06485 242.979476 
L 173.173236 241.406733 
L 173.271521 241.406733 
L 173.326092 239.309742 
L 173.391722 239.309742 
L 173.496213 237.736999 
L 173.840604 237.736999 
L 173.840604 237.212751 
L 174.038208 237.212751 
L 174.043615 236.164255 
L 174.258498 236.164255 
L 174.345475 233.018769 
L 174.405569 233.018769 
L 174.498828 231.970274 
L 174.561887 231.970274 
L 174.616002 230.397531 
L 174.69252 230.397531 
L 174.69252 229.873283 
L 174.822168 229.873283 
L 174.834218 228.824787 
L 175.013973 228.824787 
L 175.105691 227.776292 
L 175.185123 227.776292 
L 175.247398 226.727797 
L 175.30275 226.727797 
L 175.401272 225.155053 
L 175.553781 225.155053 
L 175.632817 223.058063 
L 175.72947 223.058063 
L 175.77352 222.009567 
L 175.861284 222.009567 
L 175.869388 220.961072 
L 175.987268 220.961072 
L 176.085154 216.76709 
L 176.169753 216.76709 
L 176.249183 215.194347 
L 176.32667 215.194347 
L 176.405379 213.621604 
L 176.441465 213.621604 
L 176.532129 209.95187 
L 176.653308 209.95187 
L 176.682697 208.903374 
L 176.770563 208.903374 
L 176.802822 206.282136 
L 176.893132 206.282136 
L 176.984488 203.136649 
L 177.040583 203.136649 
L 177.144707 198.942667 
L 177.210776 198.942667 
L 177.246708 197.894172 
L 177.370394 197.894172 
L 177.44152 196.321429 
L 177.493197 196.321429 
L 177.597554 191.603199 
L 177.69691 191.603199 
L 177.805833 183.739484 
L 177.81307 183.739484 
L 177.912631 180.06975 
L 177.925574 180.06975 
L 177.990147 176.400016 
L 178.060186 176.400016 
L 178.162584 172.206034 
L 178.199412 172.206034 
L 178.291137 166.439309 
L 178.401964 166.439309 
L 178.488444 161.721079 
L 178.516249 161.721079 
L 178.627018 152.808868 
L 178.636677 152.808868 
L 178.724732 150.18763 
L 178.771329 150.18763 
L 178.87095 147.566391 
L 178.891348 147.566391 
L 178.995682 142.323914 
L 179.013235 142.323914 
L 179.085954 134.984446 
L 179.135603 134.984446 
L 179.210476 129.741969 
L 179.267747 129.741969 
L 179.36454 121.354005 
L 179.393604 121.354005 
L 179.497566 115.58728 
L 179.552582 115.58728 
L 179.65429 109.296308 
L 179.667287 109.296308 
L 179.769612 103.005335 
L 179.790262 103.005335 
L 179.868764 96.190115 
L 179.917486 96.190115 
L 180.019609 89.374894 
L 180.222054 89.374894 
L 180.332391 84.132417 
L 180.347382 84.132417 
L 180.440782 80.986931 
L 180.461882 80.986931 
L 180.558364 74.695958 
L 180.595329 74.695958 
L 180.697186 71.026224 
L 180.709417 71.026224 
L 180.817894 64.735251 
L 180.826397 64.735251 
L 180.924483 58.444279 
L 180.943792 58.444279 
L 181.046009 53.201802 
L 181.059193 53.201802 
L 181.145238 50.580563 
L 181.177394 50.580563 
L 181.265218 49.532068 
L 181.304239 49.532068 
L 181.412559 47.435077 
L 181.50036 47.435077 
L 181.53186 43.765343 
L 181.619056 43.765343 
L 181.720805 40.619856 
L 181.84715 40.619856 
L 181.922514 37.47437 
L 181.978253 37.47437 
L 182.043997 34.853131 
L 182.227425 34.853131 
L 182.227425 34.328884 
L 182.377876 34.328884 
L 182.421096 32.231893 
L 182.521521 32.231893 
L 182.521521 31.707645 
L 182.997913 31.707645 
L 183.084387 29.610654 
L 183.213817 29.610654 
L 183.269743 28.562159 
L 183.420779 28.562159 
L 183.420779 28.037911 
L 183.557036 28.037911 
L 183.557036 27.513663 
L 333.168 27.513663 
L 333.168 27.513663 
" style="fill:none;stroke:#000000;stroke-linecap:square;stroke-width:1.5;"/>
   </g>
   <g id="line2d_51">
    <defs>
     <path d="M 0 6 
C 1.591219 6 3.117479 5.367802 4.242641 4.242641 
C 5.367802 3.117479 6 1.591219 6 0 
C 6 -1.591219 5.367802 -3.117479 4.242641 -4.242641 
C 3.117479 -5.367802 1.591219 -6 0 -6 
C -1.591219 -6 -3.117479 -5.367802 -4.242641 -4.242641 
C -5.367802 -3.117479 -6 -1.591219 -6 0 
C -6 1.591219 -5.367802 3.117479 -4.242641 4.242641 
C -3.117479 5.367802 -1.591219 6 0 6 
z
" id="m23d3345367" style="stroke:#000000;stroke-width:1.5;"/>
    </defs>
    <g>
     <use style="fill-opacity:0;stroke:#000000;stroke-width:1.5;" x="179.065785" xlink:href="#m23d3345367" y="136.557189"/>
     <use style="fill-opacity:0;stroke:#000000;stroke-width:1.5;" x="183.557036" xlink:href="#m23d3345367" y="28.037911"/>
     <use style="fill-opacity:0;stroke:#000000;stroke-width:1.5;" x="183.557036" xlink:href="#m23d3345367" y="27.513663"/>
     <use style="fill-opacity:0;stroke:#000000;stroke-width:1.5;" x="183.557036" xlink:href="#m23d3345367" y="27.513663"/>
     <use style="fill-opacity:0;stroke:#000000;stroke-width:1.5;" x="333.168" xlink:href="#m23d3345367" y="27.513663"/>
    </g>
   </g>
   <g id="line2d_52">
    <path style="fill:none;stroke:#000000;stroke-linecap:square;stroke-width:1.5;"/>
    <g/>
   </g>
   <g id="line2d_53">
    <defs>
     <path d="M 0 1.5 
C 0.397805 1.5 0.77937 1.341951 1.06066 1.06066 
C 1.341951 0.77937 1.5 0.397805 1.5 0 
C 1.5 -0.397805 1.341951 -0.77937 1.06066 -1.06066 
C 0.77937 -1.341951 0.397805 -1.5 0 -1.5 
C -0.397805 -1.5 -0.77937 -1.341951 -1.06066 -1.06066 
C -1.341951 -0.77937 -1.5 -0.397805 -1.5 0 
C -1.5 0.397805 -1.341951 0.77937 -1.06066 1.06066 
C -0.77937 1.341951 -0.397805 1.5 0 1.5 
z
" id="me764a7d7b4" style="stroke:#ff0000;"/>
    </defs>
    <g>
     <use style="fill:#ff0000;stroke:#ff0000;" x="203.716354" xlink:href="#me764a7d7b4" y="27.513663"/>
     <use style="fill:#ff0000;stroke:#ff0000;" x="203.716354" xlink:href="#me764a7d7b4" y="27.513663"/>
    </g>
   </g>
   <g id="line2d_54">
    <path d="M 132.104857 294.88 
L 132.104857 294.355752 
L 132.98135 294.355752 
L 132.98135 293.831505 
L 133.805948 293.831505 
L 133.805948 293.307257 
L 134.222158 293.307257 
L 134.222158 292.783009 
L 134.367749 292.783009 
L 134.367749 292.258761 
L 136.213149 292.258761 
L 136.302441 291.210266 
L 137.078118 291.210266 
L 137.078118 290.686018 
L 137.596484 290.686018 
L 137.596484 290.161771 
L 139.125849 290.161771 
L 139.125849 289.637523 
L 139.812678 289.637523 
L 139.898275 288.589027 
L 140.120151 288.589027 
L 140.230025 287.540532 
L 140.409475 287.540532 
L 140.409475 287.016284 
L 140.523855 287.016284 
L 140.523855 286.492036 
L 140.637478 286.492036 
L 140.637478 285.967789 
L 140.874911 285.967789 
L 140.874911 285.443541 
L 141.121347 285.443541 
L 141.121347 284.919293 
L 141.394429 284.919293 
L 141.394429 284.395046 
L 141.828403 284.395046 
L 141.828403 283.870798 
L 142.125218 283.870798 
L 142.125218 283.34655 
L 142.445335 283.34655 
L 142.445335 282.822302 
L 142.586342 282.822302 
L 142.586342 282.298055 
L 142.69832 282.298055 
L 142.69832 281.773807 
L 143.018992 281.773807 
L 143.018992 281.249559 
L 143.139078 281.249559 
L 143.139078 280.725312 
L 143.552894 280.725312 
L 143.616497 279.152568 
L 144.019108 279.152568 
L 144.019108 278.628321 
L 144.132429 278.628321 
L 144.132429 278.104073 
L 144.608374 278.104073 
L 144.702995 276.53133 
L 144.722849 276.53133 
L 144.722849 276.007082 
L 145.260038 276.007082 
L 145.260038 275.482834 
L 146.104397 275.482834 
L 146.104397 274.958587 
L 146.507044 274.958587 
L 146.507044 274.434339 
L 147.332047 274.434339 
L 147.332047 273.910091 
L 167.395993 273.910091 
L 167.395993 273.385844 
L 168.41314 273.385844 
L 168.41314 272.861596 
L 169.046418 272.861596 
L 169.046418 272.337348 
L 169.217869 272.337348 
L 169.217869 271.8131 
L 169.830746 271.8131 
L 169.830746 271.288853 
L 171.065457 271.288853 
L 171.065457 270.764605 
L 171.322803 270.764605 
L 171.322803 270.240357 
L 171.57011 270.240357 
L 171.57011 269.716109 
L 172.038108 269.716109 
L 172.038108 269.191862 
L 172.3561 269.191862 
L 172.3561 268.667614 
L 182.429395 268.667614 
L 182.429395 268.143366 
L 183.321811 268.143366 
L 183.321811 267.619119 
L 183.554446 267.619119 
L 183.554446 267.094871 
L 183.881849 267.094871 
L 183.888964 266.046375 
L 184.290714 266.046375 
L 184.387234 264.473632 
L 184.434553 264.473632 
L 184.434553 263.949385 
L 184.857545 263.949385 
L 184.857545 263.425137 
L 188.337683 263.425137 
L 188.337683 262.900889 
L 188.481424 262.900889 
L 188.481424 262.376641 
L 188.988857 262.376641 
L 189.002447 261.328146 
L 189.129523 261.328146 
L 189.129523 260.803898 
L 189.258269 260.803898 
L 189.317652 259.755403 
L 189.488343 259.755403 
L 189.488343 259.231155 
L 190.101278 259.231155 
L 190.101278 258.706907 
L 190.537474 258.706907 
L 190.537474 258.18266 
L 191.662218 258.18266 
L 191.662218 257.658412 
L 192.018608 257.658412 
L 192.018608 257.134164 
L 192.158304 257.134164 
L 192.248204 255.561421 
L 192.325511 255.561421 
L 192.368379 254.512926 
L 192.59093 254.512926 
L 192.597973 253.46443 
L 192.753091 253.46443 
L 192.814265 252.415935 
L 193.070512 252.415935 
L 193.070512 251.891687 
L 193.290093 251.891687 
L 193.315069 250.843192 
L 193.509807 250.843192 
L 193.617178 249.794696 
L 193.704087 249.794696 
L 193.802264 248.746201 
L 193.878871 248.746201 
L 193.928524 247.173458 
L 194.061738 247.173458 
L 194.069327 246.124962 
L 194.219017 246.124962 
L 194.219017 245.600714 
L 194.547916 245.600714 
L 194.655804 243.503724 
L 194.700829 243.503724 
L 194.700829 242.979476 
L 194.823639 242.979476 
L 194.823639 242.455228 
L 194.943975 242.455228 
L 194.943975 241.93098 
L 195.133616 241.93098 
L 195.235012 240.882485 
L 195.3486 240.882485 
L 195.412392 239.309742 
L 195.492254 239.309742 
L 195.559124 237.736999 
L 195.647797 237.736999 
L 195.723257 235.640008 
L 195.762009 235.640008 
L 195.838999 234.591512 
L 195.910344 234.591512 
L 195.949685 233.543017 
L 196.025088 233.543017 
L 196.132592 231.970274 
L 196.170682 231.970274 
L 196.170682 231.446026 
L 196.322203 231.446026 
L 196.352004 230.397531 
L 196.549686 230.397531 
L 196.646472 228.824787 
L 196.674991 228.824787 
L 196.674991 228.30054 
L 196.79795 228.30054 
L 196.831006 226.727797 
L 196.946917 226.727797 
L 196.998657 223.058063 
L 197.124508 223.058063 
L 197.188378 222.009567 
L 197.284906 222.009567 
L 197.380664 220.961072 
L 197.398732 220.961072 
L 197.463439 218.864081 
L 197.51089 218.864081 
L 197.578155 216.76709 
L 197.657023 216.76709 
L 197.756178 214.145851 
L 197.771818 214.145851 
L 197.803281 213.097356 
L 197.897551 213.097356 
L 197.998239 210.476117 
L 198.017234 210.476117 
L 198.117226 207.330631 
L 198.195653 207.330631 
L 198.282304 204.709392 
L 198.325356 204.709392 
L 198.41965 201.563906 
L 198.472804 201.563906 
L 198.570836 199.466915 
L 198.607778 199.466915 
L 198.717274 196.321429 
L 198.755828 196.321429 
L 198.794297 193.70019 
L 198.869489 193.70019 
L 198.937157 189.506209 
L 198.980925 189.506209 
L 199.08136 184.263731 
L 199.151546 184.263731 
L 199.185802 181.642493 
L 199.263875 181.642493 
L 199.365152 177.972759 
L 199.413818 177.972759 
L 199.504798 173.778777 
L 199.530792 173.778777 
L 199.639255 171.157538 
L 199.65246 171.157538 
L 199.751682 167.487804 
L 199.784562 167.487804 
L 199.892842 161.196832 
L 199.903853 161.196832 
L 200.000245 158.575593 
L 200.022917 158.575593 
L 200.104806 154.905859 
L 200.150043 154.905859 
L 200.253503 149.663382 
L 200.270751 149.663382 
L 200.374852 144.420905 
L 200.38731 144.420905 
L 200.487808 140.751171 
L 200.506755 140.751171 
L 200.603678 135.508693 
L 200.657586 135.508693 
L 200.75214 130.266216 
L 200.77213 130.266216 
L 200.859055 126.072235 
L 200.89612 126.072235 
L 201.004399 120.30551 
L 201.043025 120.30551 
L 201.14871 116.111528 
L 201.174751 116.111528 
L 201.245791 110.344803 
L 201.321884 110.344803 
L 201.430268 105.626573 
L 201.441984 105.626573 
L 201.532514 101.432592 
L 201.559071 101.432592 
L 201.661458 94.617371 
L 201.682043 94.617371 
L 201.782447 90.42339 
L 201.795718 90.42339 
L 201.905441 84.132417 
L 201.906866 84.132417 
L 202.012166 80.462683 
L 202.020307 80.462683 
L 202.116121 73.123215 
L 202.140738 73.123215 
L 202.24881 68.929233 
L 202.253349 68.929233 
L 202.357942 64.211004 
L 202.392608 64.211004 
L 202.503243 58.444279 
L 202.508231 58.444279 
L 202.614709 51.629058 
L 202.623082 51.629058 
L 202.715773 49.00782 
L 202.735473 49.00782 
L 202.83617 44.28959 
L 202.867864 44.28959 
L 202.96444 39.047113 
L 203.014446 39.047113 
L 203.121992 34.328884 
L 203.160618 34.328884 
L 203.265116 31.707645 
L 203.299315 31.707645 
L 203.399874 30.65915 
L 203.434948 30.65915 
L 203.488642 29.086407 
L 203.652107 29.086407 
L 203.716354 27.513663 
L 333.168 27.513663 
L 333.168 27.513663 
" style="fill:none;stroke:#ff0000;stroke-linecap:square;stroke-width:1.5;"/>
   </g>
   <g id="line2d_55">
    <defs>
     <path d="M -6 6 
L 6 6 
L 6 -6 
L -6 -6 
z
" id="m9bc631c522" style="stroke:#ff0000;stroke-linejoin:miter;stroke-width:1.5;"/>
    </defs>
    <g>
     <use style="fill-opacity:0;stroke:#ff0000;stroke-linejoin:miter;stroke-width:1.5;" x="194.618011" xlink:href="#m9bc631c522" y="244.552219"/>
     <use style="fill-opacity:0;stroke:#ff0000;stroke-linejoin:miter;stroke-width:1.5;" x="201.991441" xlink:href="#m9bc631c522" y="80.986931"/>
     <use style="fill-opacity:0;stroke:#ff0000;stroke-linejoin:miter;stroke-width:1.5;" x="203.716354" xlink:href="#m9bc631c522" y="28.037911"/>
     <use style="fill-opacity:0;stroke:#ff0000;stroke-linejoin:miter;stroke-width:1.5;" x="203.716354" xlink:href="#m9bc631c522" y="27.513663"/>
     <use style="fill-opacity:0;stroke:#ff0000;stroke-linejoin:miter;stroke-width:1.5;" x="333.168" xlink:href="#m9bc631c522" y="27.513663"/>
    </g>
   </g>
   <g id="line2d_56">
    <path style="fill:none;stroke:#ff0000;stroke-linecap:square;stroke-width:1.5;"/>
    <g/>
   </g>
   <g id="line2d_57">
    <path d="M 333.168 27.513663 
L 363.64328 289.532673 
" style="fill:none;stroke:#ff0000;stroke-linecap:square;stroke-width:1.5;"/>
    <g>
     <use style="fill-opacity:0;stroke:#ff0000;stroke-linejoin:miter;stroke-width:1.5;" x="333.168" xlink:href="#m9bc631c522" y="27.513663"/>
     <use style="fill-opacity:0;stroke:#ff0000;stroke-linejoin:miter;stroke-width:1.5;" x="363.64328" xlink:href="#m9bc631c522" y="289.532673"/>
    </g>
   </g>
   <g id="line2d_58">
    <path d="M 333.168 27.513663 
L 363.64328 225.364752 
" style="fill:none;stroke:#000000;stroke-linecap:square;stroke-width:1.5;"/>
    <g>
     <use style="fill-opacity:0;stroke:#000000;stroke-width:1.5;" x="333.168" xlink:href="#m23d3345367" y="27.513663"/>
     <use style="fill-opacity:0;stroke:#000000;stroke-width:1.5;" x="363.64328" xlink:href="#m23d3345367" y="225.364752"/>
    </g>
   </g>
   <g id="line2d_59">
    <path d="M 333.168 27.513663 
L 363.64328 161.196832 
" style="fill:none;stroke:#0000ff;stroke-linecap:square;stroke-width:1.5;"/>
    <g>
     <use style="fill-opacity:0;stroke:#0000ff;stroke-linejoin:bevel;stroke-width:1.5;" x="333.168" xlink:href="#m2aee2b6782" y="27.513663"/>
     <use style="fill-opacity:0;stroke:#0000ff;stroke-linejoin:bevel;stroke-width:1.5;" x="363.64328" xlink:href="#m2aee2b6782" y="161.196832"/>
    </g>
   </g>
   <g id="line2d_60">
    <path d="M 333.168 27.513663 
L 363.64328 97.028911 
" style="fill:none;stroke:#008000;stroke-linecap:square;stroke-width:1.5;"/>
    <g>
     <use style="fill-opacity:0;stroke:#008000;stroke-linejoin:miter;stroke-width:1.5;" x="333.168" xlink:href="#m638a8df642" y="27.513663"/>
     <use style="fill-opacity:0;stroke:#008000;stroke-linejoin:miter;stroke-width:1.5;" x="363.64328" xlink:href="#m638a8df642" y="97.028911"/>
    </g>
   </g>
   <g id="line2d_61">
    <path d="M 333.168 27.513663 
L 363.64328 32.86099 
" style="fill:none;stroke:#00bfbf;stroke-linecap:square;stroke-width:1.5;"/>
    <g>
     <use style="fill-opacity:0;stroke:#00bfbf;stroke-width:1.5;" x="333.168" xlink:href="#m2b08092112" y="27.513663"/>
     <use style="fill-opacity:0;stroke:#00bfbf;stroke-width:1.5;" x="363.64328" xlink:href="#m2b08092112" y="32.86099"/>
    </g>
   </g>
   <g id="line2d_62">
    <path d="M 333.168 294.88 
L 333.168 27.513663 
" style="fill:none;stroke:#000000;stroke-linecap:square;stroke-width:1.5;"/>
   </g>
   <g id="patch_3">
    <path d="M 56.12 294.88 
L 56.12 24.84 
" style="fill:none;stroke:#000000;stroke-linecap:square;stroke-linejoin:miter;stroke-width:0.8;"/>
   </g>
   <g id="patch_4">
    <path d="M 333.168 294.88 
L 333.168 24.84 
" style="fill:none;stroke:#000000;stroke-linecap:square;stroke-linejoin:miter;stroke-width:0.8;"/>
   </g>
   <g id="patch_5">
    <path d="M 56.12 294.88 
L 333.168 294.88 
" style="fill:none;stroke:#000000;stroke-linecap:square;stroke-linejoin:miter;stroke-width:0.8;"/>
   </g>
   <g id="patch_6">
    <path d="M 56.12 24.84 
L 333.168 24.84 
" style="fill:none;stroke:#000000;stroke-linecap:square;stroke-linejoin:miter;stroke-width:0.8;"/>
   </g>
   <g id="text_13">
    <!-- 20-D -->
    <defs>
     <path d="M 19.671875 64.796875 
L 19.671875 8.109375 
L 31.59375 8.109375 
Q 46.6875 8.109375 53.6875 14.9375 
Q 60.6875 21.78125 60.6875 36.53125 
Q 60.6875 51.171875 53.6875 57.984375 
Q 46.6875 64.796875 31.59375 64.796875 
z
M 9.8125 72.90625 
L 30.078125 72.90625 
Q 51.265625 72.90625 61.171875 64.09375 
Q 71.09375 55.28125 71.09375 36.53125 
Q 71.09375 17.671875 61.125 8.828125 
Q 51.171875 0 30.078125 0 
L 9.8125 0 
z
" id="DejaVuSans-44"/>
    </defs>
    <g transform="translate(369.18424 294.223611)scale(0.17 -0.17)">
     <use xlink:href="#DejaVuSans-32"/>
     <use x="63.623047" xlink:href="#DejaVuSans-30"/>
     <use x="127.246094" xlink:href="#DejaVuSans-2d"/>
     <use x="163.330078" xlink:href="#DejaVuSans-44"/>
    </g>
   </g>
   <g id="text_14">
    <!-- 10-D -->
    <g transform="translate(369.18424 230.05569)scale(0.17 -0.17)">
     <use xlink:href="#DejaVuSans-31"/>
     <use x="63.623047" xlink:href="#DejaVuSans-30"/>
     <use x="127.246094" xlink:href="#DejaVuSans-2d"/>
     <use x="163.330078" xlink:href="#DejaVuSans-44"/>
    </g>
   </g>
   <g id="text_15">
    <!-- 5-D -->
    <defs>
     <path d="M 10.796875 72.90625 
L 49.515625 72.90625 
L 49.515625 64.59375 
L 19.828125 64.59375 
L 19.828125 46.734375 
Q 21.96875 47.46875 24.109375 47.828125 
Q 26.265625 48.1875 28.421875 48.1875 
Q 40.625 48.1875 47.75 41.5 
Q 54.890625 34.8125 54.890625 23.390625 
Q 54.890625 11.625 47.5625 5.09375 
Q 40.234375 -1.421875 26.90625 -1.421875 
Q 22.3125 -1.421875 17.546875 -0.640625 
Q 12.796875 0.140625 7.71875 1.703125 
L 7.71875 11.625 
Q 12.109375 9.234375 16.796875 8.0625 
Q 21.484375 6.890625 26.703125 6.890625 
Q 35.15625 6.890625 40.078125 11.328125 
Q 45.015625 15.765625 45.015625 23.390625 
Q 45.015625 31 40.078125 35.4375 
Q 35.15625 39.890625 26.703125 39.890625 
Q 22.75 39.890625 18.8125 39.015625 
Q 14.890625 38.140625 10.796875 36.28125 
z
" id="DejaVuSans-35"/>
    </defs>
    <g transform="translate(369.18424 165.887769)scale(0.17 -0.17)">
     <use xlink:href="#DejaVuSans-35"/>
     <use x="63.623047" xlink:href="#DejaVuSans-2d"/>
     <use x="99.707031" xlink:href="#DejaVuSans-44"/>
    </g>
   </g>
   <g id="text_16">
    <!-- 3-D -->
    <defs>
     <path d="M 40.578125 39.3125 
Q 47.65625 37.796875 51.625 33 
Q 55.609375 28.21875 55.609375 21.1875 
Q 55.609375 10.40625 48.1875 4.484375 
Q 40.765625 -1.421875 27.09375 -1.421875 
Q 22.515625 -1.421875 17.65625 -0.515625 
Q 12.796875 0.390625 7.625 2.203125 
L 7.625 11.71875 
Q 11.71875 9.328125 16.59375 8.109375 
Q 21.484375 6.890625 26.8125 6.890625 
Q 36.078125 6.890625 40.9375 10.546875 
Q 45.796875 14.203125 45.796875 21.1875 
Q 45.796875 27.640625 41.28125 31.265625 
Q 36.765625 34.90625 28.71875 34.90625 
L 20.21875 34.90625 
L 20.21875 43.015625 
L 29.109375 43.015625 
Q 36.375 43.015625 40.234375 45.921875 
Q 44.09375 48.828125 44.09375 54.296875 
Q 44.09375 59.90625 40.109375 62.90625 
Q 36.140625 65.921875 28.71875 65.921875 
Q 24.65625 65.921875 20.015625 65.03125 
Q 15.375 64.15625 9.8125 62.3125 
L 9.8125 71.09375 
Q 15.4375 72.65625 20.34375 73.4375 
Q 25.25 74.21875 29.59375 74.21875 
Q 40.828125 74.21875 47.359375 69.109375 
Q 53.90625 64.015625 53.90625 55.328125 
Q 53.90625 49.265625 50.4375 45.09375 
Q 46.96875 40.921875 40.578125 39.3125 
z
" id="DejaVuSans-33"/>
    </defs>
    <g transform="translate(369.18424 101.719848)scale(0.17 -0.17)">
     <use xlink:href="#DejaVuSans-33"/>
     <use x="63.623047" xlink:href="#DejaVuSans-2d"/>
     <use x="99.707031" xlink:href="#DejaVuSans-44"/>
    </g>
   </g>
   <g id="text_17">
    <!-- 2-D -->
    <g transform="translate(369.18424 37.551928)scale(0.17 -0.17)">
     <use xlink:href="#DejaVuSans-32"/>
     <use x="63.623047" xlink:href="#DejaVuSans-2d"/>
     <use x="99.707031" xlink:href="#DejaVuSans-44"/>
    </g>
   </g>
   <g id="text_18">
    <!-- bbob f9 -->
    <defs>
     <path d="M 48.6875 27.296875 
Q 48.6875 37.203125 44.609375 42.84375 
Q 40.53125 48.484375 33.40625 48.484375 
Q 26.265625 48.484375 22.1875 42.84375 
Q 18.109375 37.203125 18.109375 27.296875 
Q 18.109375 17.390625 22.1875 11.75 
Q 26.265625 6.109375 33.40625 6.109375 
Q 40.53125 6.109375 44.609375 11.75 
Q 48.6875 17.390625 48.6875 27.296875 
z
M 18.109375 46.390625 
Q 20.953125 51.265625 25.265625 53.625 
Q 29.59375 56 35.59375 56 
Q 45.5625 56 51.78125 48.09375 
Q 58.015625 40.1875 58.015625 27.296875 
Q 58.015625 14.40625 51.78125 6.484375 
Q 45.5625 -1.421875 35.59375 -1.421875 
Q 29.59375 -1.421875 25.265625 0.953125 
Q 20.953125 3.328125 18.109375 8.203125 
L 18.109375 0 
L 9.078125 0 
L 9.078125 75.984375 
L 18.109375 75.984375 
z
" id="DejaVuSans-62"/>
     <path d="M 10.984375 1.515625 
L 10.984375 10.5 
Q 14.703125 8.734375 18.5 7.8125 
Q 22.3125 6.890625 25.984375 6.890625 
Q 35.75 6.890625 40.890625 13.453125 
Q 46.046875 20.015625 46.78125 33.40625 
Q 43.953125 29.203125 39.59375 26.953125 
Q 35.25 24.703125 29.984375 24.703125 
Q 19.046875 24.703125 12.671875 31.3125 
Q 6.296875 37.9375 6.296875 49.421875 
Q 6.296875 60.640625 12.9375 67.421875 
Q 19.578125 74.21875 30.609375 74.21875 
Q 43.265625 74.21875 49.921875 64.515625 
Q 56.59375 54.828125 56.59375 36.375 
Q 56.59375 19.140625 48.40625 8.859375 
Q 40.234375 -1.421875 26.421875 -1.421875 
Q 22.703125 -1.421875 18.890625 -0.6875 
Q 15.09375 0.046875 10.984375 1.515625 
z
M 30.609375 32.421875 
Q 37.25 32.421875 41.125 36.953125 
Q 45.015625 41.5 45.015625 49.421875 
Q 45.015625 57.28125 41.125 61.84375 
Q 37.25 66.40625 30.609375 66.40625 
Q 23.96875 66.40625 20.09375 61.84375 
Q 16.21875 57.28125 16.21875 49.421875 
Q 16.21875 41.5 20.09375 36.953125 
Q 23.96875 32.421875 30.609375 32.421875 
z
" id="DejaVuSans-39"/>
    </defs>
    <g transform="translate(58.89048 35.290806)scale(0.102 -0.102)">
     <use xlink:href="#DejaVuSans-62"/>
     <use x="63.476562" xlink:href="#DejaVuSans-62"/>
     <use x="126.953125" xlink:href="#DejaVuSans-6f"/>
     <use x="188.134766" xlink:href="#DejaVuSans-62"/>
     <use x="251.611328" xlink:href="#DejaVuSans-20"/>
     <use x="283.398438" xlink:href="#DejaVuSans-66"/>
     <use x="318.603516" xlink:href="#DejaVuSans-39"/>
    </g>
    <!-- 51 targets: 100..1e-08 -->
    <defs>
     <path d="M 11.71875 12.40625 
L 22.015625 12.40625 
L 22.015625 0 
L 11.71875 0 
z
M 11.71875 51.703125 
L 22.015625 51.703125 
L 22.015625 39.3125 
L 11.71875 39.3125 
z
" id="DejaVuSans-3a"/>
    </defs>
    <g transform="translate(58.89048 46.712575)scale(0.102 -0.102)">
     <use xlink:href="#DejaVuSans-35"/>
     <use x="63.623047" xlink:href="#DejaVuSans-31"/>
     <use x="127.246094" xlink:href="#DejaVuSans-20"/>
     <use x="159.033203" xlink:href="#DejaVuSans-74"/>
     <use x="198.242188" xlink:href="#DejaVuSans-61"/>
     <use x="259.521484" xlink:href="#DejaVuSans-72"/>
     <use x="300.619141" xlink:href="#DejaVuSans-67"/>
     <use x="364.095703" xlink:href="#DejaVuSans-65"/>
     <use x="425.619141" xlink:href="#DejaVuSans-74"/>
     <use x="464.828125" xlink:href="#DejaVuSans-73"/>
     <use x="516.927734" xlink:href="#DejaVuSans-3a"/>
     <use x="550.619141" xlink:href="#DejaVuSans-20"/>
     <use x="582.40625" xlink:href="#DejaVuSans-31"/>
     <use x="646.029297" xlink:href="#DejaVuSans-30"/>
     <use x="709.652344" xlink:href="#DejaVuSans-30"/>
     <use x="773.275391" xlink:href="#DejaVuSans-2e"/>
     <use x="805.0625" xlink:href="#DejaVuSans-2e"/>
     <use x="836.849609" xlink:href="#DejaVuSans-31"/>
     <use x="900.472656" xlink:href="#DejaVuSans-65"/>
     <use x="961.996094" xlink:href="#DejaVuSans-2d"/>
     <use x="998.080078" xlink:href="#DejaVuSans-30"/>
     <use x="1061.703125" xlink:href="#DejaVuSans-38"/>
    </g>
    <!-- 15 instances -->
    <g transform="translate(58.89048 58.134344)scale(0.102 -0.102)">
     <use xlink:href="#DejaVuSans-31"/>
     <use x="63.623047" xlink:href="#DejaVuSans-35"/>
     <use x="127.246094" xlink:href="#DejaVuSans-20"/>
     <use x="159.033203" xlink:href="#DejaVuSans-69"/>
     <use x="186.816406" xlink:href="#DejaVuSans-6e"/>
     <use x="250.195312" xlink:href="#DejaVuSans-73"/>
     <use x="302.294922" xlink:href="#DejaVuSans-74"/>
     <use x="341.503906" xlink:href="#DejaVuSans-61"/>
     <use x="402.783203" xlink:href="#DejaVuSans-6e"/>
     <use x="466.162109" xlink:href="#DejaVuSans-63"/>
     <use x="521.142578" xlink:href="#DejaVuSans-65"/>
     <use x="582.666016" xlink:href="#DejaVuSans-73"/>
    </g>
   </g>
   <g id="text_19">
    <!-- v2.4 -->
    <g style="fill:#808080;" transform="translate(183.733063 290.099912)scale(0.1 -0.1)">
     <use xlink:href="#DejaVuSans-76"/>
     <use x="59.179688" xlink:href="#DejaVuSans-32"/>
     <use x="122.802734" xlink:href="#DejaVuSans-2e"/>
     <use x="154.589844" xlink:href="#DejaVuSans-34"/>
    </g>
   </g>
   <g id="text_20">
    <!-- 9 Rosenbrock rotated -->
    <defs>
     <path d="M 44.390625 34.1875 
Q 47.5625 33.109375 50.5625 29.59375 
Q 53.5625 26.078125 56.59375 19.921875 
L 66.609375 0 
L 56 0 
L 46.6875 18.703125 
Q 43.0625 26.03125 39.671875 28.421875 
Q 36.28125 30.8125 30.421875 30.8125 
L 19.671875 30.8125 
L 19.671875 0 
L 9.8125 0 
L 9.8125 72.90625 
L 32.078125 72.90625 
Q 44.578125 72.90625 50.734375 67.671875 
Q 56.890625 62.453125 56.890625 51.90625 
Q 56.890625 45.015625 53.6875 40.46875 
Q 50.484375 35.9375 44.390625 34.1875 
z
M 19.671875 64.796875 
L 19.671875 38.921875 
L 32.078125 38.921875 
Q 39.203125 38.921875 42.84375 42.21875 
Q 46.484375 45.515625 46.484375 51.90625 
Q 46.484375 58.296875 42.84375 61.546875 
Q 39.203125 64.796875 32.078125 64.796875 
z
" id="DejaVuSans-52"/>
     <path d="M 9.078125 75.984375 
L 18.109375 75.984375 
L 18.109375 31.109375 
L 44.921875 54.6875 
L 56.390625 54.6875 
L 27.390625 29.109375 
L 57.625 0 
L 45.90625 0 
L 18.109375 26.703125 
L 18.109375 0 
L 9.078125 0 
z
" id="DejaVuSans-6b"/>
    </defs>
    <g transform="translate(86.603375 18.84)scale(0.2 -0.2)">
     <use xlink:href="#DejaVuSans-39"/>
     <use x="63.623047" xlink:href="#DejaVuSans-20"/>
     <use x="95.410156" xlink:href="#DejaVuSans-52"/>
     <use x="164.830078" xlink:href="#DejaVuSans-6f"/>
     <use x="226.011719" xlink:href="#DejaVuSans-73"/>
     <use x="278.111328" xlink:href="#DejaVuSans-65"/>
     <use x="339.634766" xlink:href="#DejaVuSans-6e"/>
     <use x="403.013672" xlink:href="#DejaVuSans-62"/>
     <use x="466.490234" xlink:href="#DejaVuSans-72"/>
     <use x="507.572266" xlink:href="#DejaVuSans-6f"/>
     <use x="568.753906" xlink:href="#DejaVuSans-63"/>
     <use x="623.734375" xlink:href="#DejaVuSans-6b"/>
     <use x="681.644531" xlink:href="#DejaVuSans-20"/>
     <use x="713.431641" xlink:href="#DejaVuSans-72"/>
     <use x="754.513672" xlink:href="#DejaVuSans-6f"/>
     <use x="815.695312" xlink:href="#DejaVuSans-74"/>
     <use x="854.904297" xlink:href="#DejaVuSans-61"/>
     <use x="916.183594" xlink:href="#DejaVuSans-74"/>
     <use x="955.392578" xlink:href="#DejaVuSans-65"/>
     <use x="1016.916016" xlink:href="#DejaVuSans-64"/>
    </g>
   </g>
  </g>
 </g>
 <defs>
  <clipPath id="p8f40dcef33">
   <rect height="270.04" width="277.048" x="56.12" y="24.84"/>
  </clipPath>
 </defs>
</svg>
