<?xml version="1.0" encoding="utf-8" standalone="no"?>
<!DOCTYPE svg PUBLIC "-//W3C//DTD SVG 1.1//EN"
  "http://www.w3.org/Graphics/SVG/1.1/DTD/svg11.dtd">
<!-- Created with matplotlib (http://matplotlib.org/) -->
<svg height="345.6pt" version="1.1" viewBox="0 0 460.8 345.6" width="460.8pt" xmlns="http://www.w3.org/2000/svg" xmlns:xlink="http://www.w3.org/1999/xlink">
 <defs>
  <style type="text/css">
*{stroke-linecap:butt;stroke-linejoin:round;}
  </style>
 </defs>
 <g id="figure_1">
  <g id="patch_1">
   <path d="M 0 345.6 
L 460.8 345.6 
L 460.8 0 
L 0 0 
z
" style="fill:#ffffff;"/>
  </g>
  <g id="axes_1">
   <g id="patch_2">
    <path d="M 56.12 294.88 
L 333.168 294.88 
L 333.168 24.84 
L 56.12 24.84 
z
" style="fill:#ffffff;"/>
   </g>
   <g id="matplotlib.axis_1">
    <g id="xtick_1">
     <g id="line2d_1">
      <path clip-path="url(#p456b054a86)" d="M 56.12 294.88 
L 56.12 24.84 
" style="fill:none;stroke:#b0b0b0;stroke-linecap:square;stroke-width:0.8;"/>
     </g>
     <g id="line2d_2">
      <defs>
       <path d="M 0 0 
L 0 3.5 
" id="m281dccfcf8" style="stroke:#000000;stroke-width:0.8;"/>
      </defs>
      <g>
       <use style="stroke:#000000;stroke-width:0.8;" x="56.12" xlink:href="#m281dccfcf8" y="294.88"/>
      </g>
     </g>
     <g id="text_1">
      <!-- 0 -->
      <defs>
       <path d="M 31.78125 66.40625 
Q 24.171875 66.40625 20.328125 58.90625 
Q 16.5 51.421875 16.5 36.375 
Q 16.5 21.390625 20.328125 13.890625 
Q 24.171875 6.390625 31.78125 6.390625 
Q 39.453125 6.390625 43.28125 13.890625 
Q 47.125 21.390625 47.125 36.375 
Q 47.125 51.421875 43.28125 58.90625 
Q 39.453125 66.40625 31.78125 66.40625 
z
M 31.78125 74.21875 
Q 44.046875 74.21875 50.515625 64.515625 
Q 56.984375 54.828125 56.984375 36.375 
Q 56.984375 17.96875 50.515625 8.265625 
Q 44.046875 -1.421875 31.78125 -1.421875 
Q 19.53125 -1.421875 13.0625 8.265625 
Q 6.59375 17.96875 6.59375 36.375 
Q 6.59375 54.828125 13.0625 64.515625 
Q 19.53125 74.21875 31.78125 74.21875 
z
" id="DejaVuSans-30"/>
      </defs>
      <g transform="translate(49.7575 317.076875)scale(0.2 -0.2)">
       <use xlink:href="#DejaVuSans-30"/>
      </g>
     </g>
    </g>
    <g id="xtick_2">
     <g id="line2d_3">
      <path clip-path="url(#p456b054a86)" d="M 135.276571 294.88 
L 135.276571 24.84 
" style="fill:none;stroke:#b0b0b0;stroke-linecap:square;stroke-width:0.8;"/>
     </g>
     <g id="line2d_4">
      <g>
       <use style="stroke:#000000;stroke-width:0.8;" x="135.276571" xlink:href="#m281dccfcf8" y="294.88"/>
      </g>
     </g>
     <g id="text_2">
      <!-- 2 -->
      <defs>
       <path d="M 19.1875 8.296875 
L 53.609375 8.296875 
L 53.609375 0 
L 7.328125 0 
L 7.328125 8.296875 
Q 12.9375 14.109375 22.625 23.890625 
Q 32.328125 33.6875 34.8125 36.53125 
Q 39.546875 41.84375 41.421875 45.53125 
Q 43.3125 49.21875 43.3125 52.78125 
Q 43.3125 58.59375 39.234375 62.25 
Q 35.15625 65.921875 28.609375 65.921875 
Q 23.96875 65.921875 18.8125 64.3125 
Q 13.671875 62.703125 7.8125 59.421875 
L 7.8125 69.390625 
Q 13.765625 71.78125 18.9375 73 
Q 24.125 74.21875 28.421875 74.21875 
Q 39.75 74.21875 46.484375 68.546875 
Q 53.21875 62.890625 53.21875 53.421875 
Q 53.21875 48.921875 51.53125 44.890625 
Q 49.859375 40.875 45.40625 35.40625 
Q 44.1875 33.984375 37.640625 27.21875 
Q 31.109375 20.453125 19.1875 8.296875 
z
" id="DejaVuSans-32"/>
      </defs>
      <g transform="translate(128.914071 317.076875)scale(0.2 -0.2)">
       <use xlink:href="#DejaVuSans-32"/>
      </g>
     </g>
    </g>
    <g id="xtick_3">
     <g id="line2d_5">
      <path clip-path="url(#p456b054a86)" d="M 214.433143 294.88 
L 214.433143 24.84 
" style="fill:none;stroke:#b0b0b0;stroke-linecap:square;stroke-width:0.8;"/>
     </g>
     <g id="line2d_6">
      <g>
       <use style="stroke:#000000;stroke-width:0.8;" x="214.433143" xlink:href="#m281dccfcf8" y="294.88"/>
      </g>
     </g>
     <g id="text_3">
      <!-- 4 -->
      <defs>
       <path d="M 37.796875 64.3125 
L 12.890625 25.390625 
L 37.796875 25.390625 
z
M 35.203125 72.90625 
L 47.609375 72.90625 
L 47.609375 25.390625 
L 58.015625 25.390625 
L 58.015625 17.1875 
L 47.609375 17.1875 
L 47.609375 0 
L 37.796875 0 
L 37.796875 17.1875 
L 4.890625 17.1875 
L 4.890625 26.703125 
z
" id="DejaVuSans-34"/>
      </defs>
      <g transform="translate(208.070643 317.076875)scale(0.2 -0.2)">
       <use xlink:href="#DejaVuSans-34"/>
      </g>
     </g>
    </g>
    <g id="xtick_4">
     <g id="line2d_7">
      <path clip-path="url(#p456b054a86)" d="M 293.589714 294.88 
L 293.589714 24.84 
" style="fill:none;stroke:#b0b0b0;stroke-linecap:square;stroke-width:0.8;"/>
     </g>
     <g id="line2d_8">
      <g>
       <use style="stroke:#000000;stroke-width:0.8;" x="293.589714" xlink:href="#m281dccfcf8" y="294.88"/>
      </g>
     </g>
     <g id="text_4">
      <!-- 6 -->
      <defs>
       <path d="M 33.015625 40.375 
Q 26.375 40.375 22.484375 35.828125 
Q 18.609375 31.296875 18.609375 23.390625 
Q 18.609375 15.53125 22.484375 10.953125 
Q 26.375 6.390625 33.015625 6.390625 
Q 39.65625 6.390625 43.53125 10.953125 
Q 47.40625 15.53125 47.40625 23.390625 
Q 47.40625 31.296875 43.53125 35.828125 
Q 39.65625 40.375 33.015625 40.375 
z
M 52.59375 71.296875 
L 52.59375 62.3125 
Q 48.875 64.0625 45.09375 64.984375 
Q 41.3125 65.921875 37.59375 65.921875 
Q 27.828125 65.921875 22.671875 59.328125 
Q 17.53125 52.734375 16.796875 39.40625 
Q 19.671875 43.65625 24.015625 45.921875 
Q 28.375 48.1875 33.59375 48.1875 
Q 44.578125 48.1875 50.953125 41.515625 
Q 57.328125 34.859375 57.328125 23.390625 
Q 57.328125 12.15625 50.6875 5.359375 
Q 44.046875 -1.421875 33.015625 -1.421875 
Q 20.359375 -1.421875 13.671875 8.265625 
Q 6.984375 17.96875 6.984375 36.375 
Q 6.984375 53.65625 15.1875 63.9375 
Q 23.390625 74.21875 37.203125 74.21875 
Q 40.921875 74.21875 44.703125 73.484375 
Q 48.484375 72.75 52.59375 71.296875 
z
" id="DejaVuSans-36"/>
      </defs>
      <g transform="translate(287.227214 317.076875)scale(0.2 -0.2)">
       <use xlink:href="#DejaVuSans-36"/>
      </g>
     </g>
    </g>
    <g id="xtick_5">
     <g id="line2d_9">
      <path clip-path="url(#p456b054a86)" d="M 56.12 294.88 
L 56.12 24.84 
" style="fill:none;stroke:#b0b0b0;stroke-linecap:square;stroke-width:0.8;"/>
     </g>
     <g id="line2d_10">
      <defs>
       <path d="M 0 0 
L 0 2 
" id="ma4e66d14fa" style="stroke:#000000;stroke-width:0.6;"/>
      </defs>
      <g>
       <use style="stroke:#000000;stroke-width:0.6;" x="56.12" xlink:href="#ma4e66d14fa" y="294.88"/>
      </g>
     </g>
    </g>
    <g id="xtick_6">
     <g id="line2d_11">
      <path clip-path="url(#p456b054a86)" d="M 95.698286 294.88 
L 95.698286 24.84 
" style="fill:none;stroke:#b0b0b0;stroke-linecap:square;stroke-width:0.8;"/>
     </g>
     <g id="line2d_12">
      <g>
       <use style="stroke:#000000;stroke-width:0.6;" x="95.698286" xlink:href="#ma4e66d14fa" y="294.88"/>
      </g>
     </g>
    </g>
    <g id="xtick_7">
     <g id="line2d_13">
      <path clip-path="url(#p456b054a86)" d="M 135.276571 294.88 
L 135.276571 24.84 
" style="fill:none;stroke:#b0b0b0;stroke-linecap:square;stroke-width:0.8;"/>
     </g>
     <g id="line2d_14">
      <g>
       <use style="stroke:#000000;stroke-width:0.6;" x="135.276571" xlink:href="#ma4e66d14fa" y="294.88"/>
      </g>
     </g>
    </g>
    <g id="xtick_8">
     <g id="line2d_15">
      <path clip-path="url(#p456b054a86)" d="M 174.854857 294.88 
L 174.854857 24.84 
" style="fill:none;stroke:#b0b0b0;stroke-linecap:square;stroke-width:0.8;"/>
     </g>
     <g id="line2d_16">
      <g>
       <use style="stroke:#000000;stroke-width:0.6;" x="174.854857" xlink:href="#ma4e66d14fa" y="294.88"/>
      </g>
     </g>
    </g>
    <g id="xtick_9">
     <g id="line2d_17">
      <path clip-path="url(#p456b054a86)" d="M 214.433143 294.88 
L 214.433143 24.84 
" style="fill:none;stroke:#b0b0b0;stroke-linecap:square;stroke-width:0.8;"/>
     </g>
     <g id="line2d_18">
      <g>
       <use style="stroke:#000000;stroke-width:0.6;" x="214.433143" xlink:href="#ma4e66d14fa" y="294.88"/>
      </g>
     </g>
    </g>
    <g id="xtick_10">
     <g id="line2d_19">
      <path clip-path="url(#p456b054a86)" d="M 254.011429 294.88 
L 254.011429 24.84 
" style="fill:none;stroke:#b0b0b0;stroke-linecap:square;stroke-width:0.8;"/>
     </g>
     <g id="line2d_20">
      <g>
       <use style="stroke:#000000;stroke-width:0.6;" x="254.011429" xlink:href="#ma4e66d14fa" y="294.88"/>
      </g>
     </g>
    </g>
    <g id="xtick_11">
     <g id="line2d_21">
      <path clip-path="url(#p456b054a86)" d="M 293.589714 294.88 
L 293.589714 24.84 
" style="fill:none;stroke:#b0b0b0;stroke-linecap:square;stroke-width:0.8;"/>
     </g>
     <g id="line2d_22">
      <g>
       <use style="stroke:#000000;stroke-width:0.6;" x="293.589714" xlink:href="#ma4e66d14fa" y="294.88"/>
      </g>
     </g>
    </g>
    <g id="xtick_12">
     <g id="line2d_23">
      <path clip-path="url(#p456b054a86)" d="M 333.168 294.88 
L 333.168 24.84 
" style="fill:none;stroke:#b0b0b0;stroke-linecap:square;stroke-width:0.8;"/>
     </g>
     <g id="line2d_24">
      <g>
       <use style="stroke:#000000;stroke-width:0.6;" x="333.168" xlink:href="#ma4e66d14fa" y="294.88"/>
      </g>
     </g>
    </g>
    <g id="text_5">
     <!-- log10(# f-evals / dimension) -->
     <defs>
      <path d="M 9.421875 75.984375 
L 18.40625 75.984375 
L 18.40625 0 
L 9.421875 0 
z
" id="DejaVuSans-6c"/>
      <path d="M 30.609375 48.390625 
Q 23.390625 48.390625 19.1875 42.75 
Q 14.984375 37.109375 14.984375 27.296875 
Q 14.984375 17.484375 19.15625 11.84375 
Q 23.34375 6.203125 30.609375 6.203125 
Q 37.796875 6.203125 41.984375 11.859375 
Q 46.1875 17.53125 46.1875 27.296875 
Q 46.1875 37.015625 41.984375 42.703125 
Q 37.796875 48.390625 30.609375 48.390625 
z
M 30.609375 56 
Q 42.328125 56 49.015625 48.375 
Q 55.71875 40.765625 55.71875 27.296875 
Q 55.71875 13.875 49.015625 6.21875 
Q 42.328125 -1.421875 30.609375 -1.421875 
Q 18.84375 -1.421875 12.171875 6.21875 
Q 5.515625 13.875 5.515625 27.296875 
Q 5.515625 40.765625 12.171875 48.375 
Q 18.84375 56 30.609375 56 
z
" id="DejaVuSans-6f"/>
      <path d="M 45.40625 27.984375 
Q 45.40625 37.75 41.375 43.109375 
Q 37.359375 48.484375 30.078125 48.484375 
Q 22.859375 48.484375 18.828125 43.109375 
Q 14.796875 37.75 14.796875 27.984375 
Q 14.796875 18.265625 18.828125 12.890625 
Q 22.859375 7.515625 30.078125 7.515625 
Q 37.359375 7.515625 41.375 12.890625 
Q 45.40625 18.265625 45.40625 27.984375 
z
M 54.390625 6.78125 
Q 54.390625 -7.171875 48.1875 -13.984375 
Q 42 -20.796875 29.203125 -20.796875 
Q 24.46875 -20.796875 20.265625 -20.09375 
Q 16.0625 -19.390625 12.109375 -17.921875 
L 12.109375 -9.1875 
Q 16.0625 -11.328125 19.921875 -12.34375 
Q 23.78125 -13.375 27.78125 -13.375 
Q 36.625 -13.375 41.015625 -8.765625 
Q 45.40625 -4.15625 45.40625 5.171875 
L 45.40625 9.625 
Q 42.625 4.78125 38.28125 2.390625 
Q 33.9375 0 27.875 0 
Q 17.828125 0 11.671875 7.65625 
Q 5.515625 15.328125 5.515625 27.984375 
Q 5.515625 40.671875 11.671875 48.328125 
Q 17.828125 56 27.875 56 
Q 33.9375 56 38.28125 53.609375 
Q 42.625 51.21875 45.40625 46.390625 
L 45.40625 54.6875 
L 54.390625 54.6875 
z
" id="DejaVuSans-67"/>
      <path d="M 12.40625 8.296875 
L 28.515625 8.296875 
L 28.515625 63.921875 
L 10.984375 60.40625 
L 10.984375 69.390625 
L 28.421875 72.90625 
L 38.28125 72.90625 
L 38.28125 8.296875 
L 54.390625 8.296875 
L 54.390625 0 
L 12.40625 0 
z
" id="DejaVuSans-31"/>
      <path d="M 31 75.875 
Q 24.46875 64.65625 21.28125 53.65625 
Q 18.109375 42.671875 18.109375 31.390625 
Q 18.109375 20.125 21.3125 9.0625 
Q 24.515625 -2 31 -13.1875 
L 23.1875 -13.1875 
Q 15.875 -1.703125 12.234375 9.375 
Q 8.59375 20.453125 8.59375 31.390625 
Q 8.59375 42.28125 12.203125 53.3125 
Q 15.828125 64.359375 23.1875 75.875 
z
" id="DejaVuSans-28"/>
      <path d="M 51.125 44 
L 36.921875 44 
L 32.8125 27.6875 
L 47.125 27.6875 
z
M 43.796875 71.78125 
L 38.71875 51.515625 
L 52.984375 51.515625 
L 58.109375 71.78125 
L 65.921875 71.78125 
L 60.890625 51.515625 
L 76.125 51.515625 
L 76.125 44 
L 58.984375 44 
L 54.984375 27.6875 
L 70.515625 27.6875 
L 70.515625 20.21875 
L 53.078125 20.21875 
L 48 0 
L 40.1875 0 
L 45.21875 20.21875 
L 30.90625 20.21875 
L 25.875 0 
L 18.015625 0 
L 23.09375 20.21875 
L 7.71875 20.21875 
L 7.71875 27.6875 
L 24.90625 27.6875 
L 29 44 
L 13.28125 44 
L 13.28125 51.515625 
L 30.90625 51.515625 
L 35.890625 71.78125 
z
" id="DejaVuSans-23"/>
      <path id="DejaVuSans-20"/>
      <path d="M 37.109375 75.984375 
L 37.109375 68.5 
L 28.515625 68.5 
Q 23.6875 68.5 21.796875 66.546875 
Q 19.921875 64.59375 19.921875 59.515625 
L 19.921875 54.6875 
L 34.71875 54.6875 
L 34.71875 47.703125 
L 19.921875 47.703125 
L 19.921875 0 
L 10.890625 0 
L 10.890625 47.703125 
L 2.296875 47.703125 
L 2.296875 54.6875 
L 10.890625 54.6875 
L 10.890625 58.5 
Q 10.890625 67.625 15.140625 71.796875 
Q 19.390625 75.984375 28.609375 75.984375 
z
" id="DejaVuSans-66"/>
      <path d="M 4.890625 31.390625 
L 31.203125 31.390625 
L 31.203125 23.390625 
L 4.890625 23.390625 
z
" id="DejaVuSans-2d"/>
      <path d="M 56.203125 29.59375 
L 56.203125 25.203125 
L 14.890625 25.203125 
Q 15.484375 15.921875 20.484375 11.0625 
Q 25.484375 6.203125 34.421875 6.203125 
Q 39.59375 6.203125 44.453125 7.46875 
Q 49.3125 8.734375 54.109375 11.28125 
L 54.109375 2.78125 
Q 49.265625 0.734375 44.1875 -0.34375 
Q 39.109375 -1.421875 33.890625 -1.421875 
Q 20.796875 -1.421875 13.15625 6.1875 
Q 5.515625 13.8125 5.515625 26.8125 
Q 5.515625 40.234375 12.765625 48.109375 
Q 20.015625 56 32.328125 56 
Q 43.359375 56 49.78125 48.890625 
Q 56.203125 41.796875 56.203125 29.59375 
z
M 47.21875 32.234375 
Q 47.125 39.59375 43.09375 43.984375 
Q 39.0625 48.390625 32.421875 48.390625 
Q 24.90625 48.390625 20.390625 44.140625 
Q 15.875 39.890625 15.1875 32.171875 
z
" id="DejaVuSans-65"/>
      <path d="M 2.984375 54.6875 
L 12.5 54.6875 
L 29.59375 8.796875 
L 46.6875 54.6875 
L 56.203125 54.6875 
L 35.6875 0 
L 23.484375 0 
z
" id="DejaVuSans-76"/>
      <path d="M 34.28125 27.484375 
Q 23.390625 27.484375 19.1875 25 
Q 14.984375 22.515625 14.984375 16.5 
Q 14.984375 11.71875 18.140625 8.90625 
Q 21.296875 6.109375 26.703125 6.109375 
Q 34.1875 6.109375 38.703125 11.40625 
Q 43.21875 16.703125 43.21875 25.484375 
L 43.21875 27.484375 
z
M 52.203125 31.203125 
L 52.203125 0 
L 43.21875 0 
L 43.21875 8.296875 
Q 40.140625 3.328125 35.546875 0.953125 
Q 30.953125 -1.421875 24.3125 -1.421875 
Q 15.921875 -1.421875 10.953125 3.296875 
Q 6 8.015625 6 15.921875 
Q 6 25.140625 12.171875 29.828125 
Q 18.359375 34.515625 30.609375 34.515625 
L 43.21875 34.515625 
L 43.21875 35.40625 
Q 43.21875 41.609375 39.140625 45 
Q 35.0625 48.390625 27.6875 48.390625 
Q 23 48.390625 18.546875 47.265625 
Q 14.109375 46.140625 10.015625 43.890625 
L 10.015625 52.203125 
Q 14.9375 54.109375 19.578125 55.046875 
Q 24.21875 56 28.609375 56 
Q 40.484375 56 46.34375 49.84375 
Q 52.203125 43.703125 52.203125 31.203125 
z
" id="DejaVuSans-61"/>
      <path d="M 44.28125 53.078125 
L 44.28125 44.578125 
Q 40.484375 46.53125 36.375 47.5 
Q 32.28125 48.484375 27.875 48.484375 
Q 21.1875 48.484375 17.84375 46.4375 
Q 14.5 44.390625 14.5 40.28125 
Q 14.5 37.15625 16.890625 35.375 
Q 19.28125 33.59375 26.515625 31.984375 
L 29.59375 31.296875 
Q 39.15625 29.25 43.1875 25.515625 
Q 47.21875 21.78125 47.21875 15.09375 
Q 47.21875 7.46875 41.1875 3.015625 
Q 35.15625 -1.421875 24.609375 -1.421875 
Q 20.21875 -1.421875 15.453125 -0.5625 
Q 10.6875 0.296875 5.421875 2 
L 5.421875 11.28125 
Q 10.40625 8.6875 15.234375 7.390625 
Q 20.0625 6.109375 24.8125 6.109375 
Q 31.15625 6.109375 34.5625 8.28125 
Q 37.984375 10.453125 37.984375 14.40625 
Q 37.984375 18.0625 35.515625 20.015625 
Q 33.0625 21.96875 24.703125 23.78125 
L 21.578125 24.515625 
Q 13.234375 26.265625 9.515625 29.90625 
Q 5.8125 33.546875 5.8125 39.890625 
Q 5.8125 47.609375 11.28125 51.796875 
Q 16.75 56 26.8125 56 
Q 31.78125 56 36.171875 55.265625 
Q 40.578125 54.546875 44.28125 53.078125 
z
" id="DejaVuSans-73"/>
      <path d="M 25.390625 72.90625 
L 33.6875 72.90625 
L 8.296875 -9.28125 
L 0 -9.28125 
z
" id="DejaVuSans-2f"/>
      <path d="M 45.40625 46.390625 
L 45.40625 75.984375 
L 54.390625 75.984375 
L 54.390625 0 
L 45.40625 0 
L 45.40625 8.203125 
Q 42.578125 3.328125 38.25 0.953125 
Q 33.9375 -1.421875 27.875 -1.421875 
Q 17.96875 -1.421875 11.734375 6.484375 
Q 5.515625 14.40625 5.515625 27.296875 
Q 5.515625 40.1875 11.734375 48.09375 
Q 17.96875 56 27.875 56 
Q 33.9375 56 38.25 53.625 
Q 42.578125 51.265625 45.40625 46.390625 
z
M 14.796875 27.296875 
Q 14.796875 17.390625 18.875 11.75 
Q 22.953125 6.109375 30.078125 6.109375 
Q 37.203125 6.109375 41.296875 11.75 
Q 45.40625 17.390625 45.40625 27.296875 
Q 45.40625 37.203125 41.296875 42.84375 
Q 37.203125 48.484375 30.078125 48.484375 
Q 22.953125 48.484375 18.875 42.84375 
Q 14.796875 37.203125 14.796875 27.296875 
z
" id="DejaVuSans-64"/>
      <path d="M 9.421875 54.6875 
L 18.40625 54.6875 
L 18.40625 0 
L 9.421875 0 
z
M 9.421875 75.984375 
L 18.40625 75.984375 
L 18.40625 64.59375 
L 9.421875 64.59375 
z
" id="DejaVuSans-69"/>
      <path d="M 52 44.1875 
Q 55.375 50.25 60.0625 53.125 
Q 64.75 56 71.09375 56 
Q 79.640625 56 84.28125 50.015625 
Q 88.921875 44.046875 88.921875 33.015625 
L 88.921875 0 
L 79.890625 0 
L 79.890625 32.71875 
Q 79.890625 40.578125 77.09375 44.375 
Q 74.3125 48.1875 68.609375 48.1875 
Q 61.625 48.1875 57.5625 43.546875 
Q 53.515625 38.921875 53.515625 30.90625 
L 53.515625 0 
L 44.484375 0 
L 44.484375 32.71875 
Q 44.484375 40.625 41.703125 44.40625 
Q 38.921875 48.1875 33.109375 48.1875 
Q 26.21875 48.1875 22.15625 43.53125 
Q 18.109375 38.875 18.109375 30.90625 
L 18.109375 0 
L 9.078125 0 
L 9.078125 54.6875 
L 18.109375 54.6875 
L 18.109375 46.1875 
Q 21.1875 51.21875 25.484375 53.609375 
Q 29.78125 56 35.6875 56 
Q 41.65625 56 45.828125 52.96875 
Q 50 49.953125 52 44.1875 
z
" id="DejaVuSans-6d"/>
      <path d="M 54.890625 33.015625 
L 54.890625 0 
L 45.90625 0 
L 45.90625 32.71875 
Q 45.90625 40.484375 42.875 44.328125 
Q 39.84375 48.1875 33.796875 48.1875 
Q 26.515625 48.1875 22.3125 43.546875 
Q 18.109375 38.921875 18.109375 30.90625 
L 18.109375 0 
L 9.078125 0 
L 9.078125 54.6875 
L 18.109375 54.6875 
L 18.109375 46.1875 
Q 21.34375 51.125 25.703125 53.5625 
Q 30.078125 56 35.796875 56 
Q 45.21875 56 50.046875 50.171875 
Q 54.890625 44.34375 54.890625 33.015625 
z
" id="DejaVuSans-6e"/>
      <path d="M 8.015625 75.875 
L 15.828125 75.875 
Q 23.140625 64.359375 26.78125 53.3125 
Q 30.421875 42.28125 30.421875 31.390625 
Q 30.421875 20.453125 26.78125 9.375 
Q 23.140625 -1.703125 15.828125 -13.1875 
L 8.015625 -13.1875 
Q 14.5 -2 17.703125 9.0625 
Q 20.90625 20.125 20.90625 31.390625 
Q 20.90625 42.671875 17.703125 53.65625 
Q 14.5 64.65625 8.015625 75.875 
z
" id="DejaVuSans-29"/>
     </defs>
     <g transform="translate(73.803219 338.153594)scale(0.17 -0.17)">
      <use xlink:href="#DejaVuSans-6c"/>
      <use x="27.783203" xlink:href="#DejaVuSans-6f"/>
      <use x="88.964844" xlink:href="#DejaVuSans-67"/>
      <use x="152.441406" xlink:href="#DejaVuSans-31"/>
      <use x="216.064453" xlink:href="#DejaVuSans-30"/>
      <use x="279.6875" xlink:href="#DejaVuSans-28"/>
      <use x="318.701172" xlink:href="#DejaVuSans-23"/>
      <use x="402.490234" xlink:href="#DejaVuSans-20"/>
      <use x="434.277344" xlink:href="#DejaVuSans-66"/>
      <use x="469.404297" xlink:href="#DejaVuSans-2d"/>
      <use x="505.488281" xlink:href="#DejaVuSans-65"/>
      <use x="567.011719" xlink:href="#DejaVuSans-76"/>
      <use x="626.191406" xlink:href="#DejaVuSans-61"/>
      <use x="687.470703" xlink:href="#DejaVuSans-6c"/>
      <use x="715.253906" xlink:href="#DejaVuSans-73"/>
      <use x="767.353516" xlink:href="#DejaVuSans-20"/>
      <use x="799.140625" xlink:href="#DejaVuSans-2f"/>
      <use x="832.832031" xlink:href="#DejaVuSans-20"/>
      <use x="864.619141" xlink:href="#DejaVuSans-64"/>
      <use x="928.095703" xlink:href="#DejaVuSans-69"/>
      <use x="955.878906" xlink:href="#DejaVuSans-6d"/>
      <use x="1053.291016" xlink:href="#DejaVuSans-65"/>
      <use x="1114.814453" xlink:href="#DejaVuSans-6e"/>
      <use x="1178.193359" xlink:href="#DejaVuSans-73"/>
      <use x="1230.292969" xlink:href="#DejaVuSans-69"/>
      <use x="1258.076172" xlink:href="#DejaVuSans-6f"/>
      <use x="1319.257812" xlink:href="#DejaVuSans-6e"/>
      <use x="1382.636719" xlink:href="#DejaVuSans-29"/>
     </g>
    </g>
   </g>
   <g id="matplotlib.axis_2">
    <g id="ytick_1">
     <g id="line2d_25">
      <path clip-path="url(#p456b054a86)" d="M 56.12 294.88 
L 333.168 294.88 
" style="fill:none;stroke:#b0b0b0;stroke-linecap:square;stroke-width:0.8;"/>
     </g>
     <g id="line2d_26">
      <defs>
       <path d="M 0 0 
L -3.5 0 
" id="m9d2b50c563" style="stroke:#000000;stroke-width:0.8;"/>
      </defs>
      <g>
       <use style="stroke:#000000;stroke-width:0.8;" x="56.12" xlink:href="#m9d2b50c563" y="294.88"/>
      </g>
     </g>
     <g id="text_6">
      <!-- 0.0 -->
      <defs>
       <path d="M 10.6875 12.40625 
L 21 12.40625 
L 21 0 
L 10.6875 0 
z
" id="DejaVuSans-2e"/>
      </defs>
      <g transform="translate(23.675 300.95875)scale(0.16 -0.16)">
       <use xlink:href="#DejaVuSans-30"/>
       <use x="63.623047" xlink:href="#DejaVuSans-2e"/>
       <use x="95.410156" xlink:href="#DejaVuSans-30"/>
      </g>
     </g>
    </g>
    <g id="ytick_2">
     <g id="line2d_27">
      <path clip-path="url(#p456b054a86)" d="M 56.12 241.406733 
L 333.168 241.406733 
" style="fill:none;stroke:#b0b0b0;stroke-linecap:square;stroke-width:0.8;"/>
     </g>
     <g id="line2d_28">
      <g>
       <use style="stroke:#000000;stroke-width:0.8;" x="56.12" xlink:href="#m9d2b50c563" y="241.406733"/>
      </g>
     </g>
     <g id="text_7">
      <!-- 0.2 -->
      <g transform="translate(23.675 247.485483)scale(0.16 -0.16)">
       <use xlink:href="#DejaVuSans-30"/>
       <use x="63.623047" xlink:href="#DejaVuSans-2e"/>
       <use x="95.410156" xlink:href="#DejaVuSans-32"/>
      </g>
     </g>
    </g>
    <g id="ytick_3">
     <g id="line2d_29">
      <path clip-path="url(#p456b054a86)" d="M 56.12 187.933465 
L 333.168 187.933465 
" style="fill:none;stroke:#b0b0b0;stroke-linecap:square;stroke-width:0.8;"/>
     </g>
     <g id="line2d_30">
      <g>
       <use style="stroke:#000000;stroke-width:0.8;" x="56.12" xlink:href="#m9d2b50c563" y="187.933465"/>
      </g>
     </g>
     <g id="text_8">
      <!-- 0.4 -->
      <g transform="translate(23.675 194.012215)scale(0.16 -0.16)">
       <use xlink:href="#DejaVuSans-30"/>
       <use x="63.623047" xlink:href="#DejaVuSans-2e"/>
       <use x="95.410156" xlink:href="#DejaVuSans-34"/>
      </g>
     </g>
    </g>
    <g id="ytick_4">
     <g id="line2d_31">
      <path clip-path="url(#p456b054a86)" d="M 56.12 134.460198 
L 333.168 134.460198 
" style="fill:none;stroke:#b0b0b0;stroke-linecap:square;stroke-width:0.8;"/>
     </g>
     <g id="line2d_32">
      <g>
       <use style="stroke:#000000;stroke-width:0.8;" x="56.12" xlink:href="#m9d2b50c563" y="134.460198"/>
      </g>
     </g>
     <g id="text_9">
      <!-- 0.6 -->
      <g transform="translate(23.675 140.538948)scale(0.16 -0.16)">
       <use xlink:href="#DejaVuSans-30"/>
       <use x="63.623047" xlink:href="#DejaVuSans-2e"/>
       <use x="95.410156" xlink:href="#DejaVuSans-36"/>
      </g>
     </g>
    </g>
    <g id="ytick_5">
     <g id="line2d_33">
      <path clip-path="url(#p456b054a86)" d="M 56.12 80.986931 
L 333.168 80.986931 
" style="fill:none;stroke:#b0b0b0;stroke-linecap:square;stroke-width:0.8;"/>
     </g>
     <g id="line2d_34">
      <g>
       <use style="stroke:#000000;stroke-width:0.8;" x="56.12" xlink:href="#m9d2b50c563" y="80.986931"/>
      </g>
     </g>
     <g id="text_10">
      <!-- 0.8 -->
      <defs>
       <path d="M 31.78125 34.625 
Q 24.75 34.625 20.71875 30.859375 
Q 16.703125 27.09375 16.703125 20.515625 
Q 16.703125 13.921875 20.71875 10.15625 
Q 24.75 6.390625 31.78125 6.390625 
Q 38.8125 6.390625 42.859375 10.171875 
Q 46.921875 13.96875 46.921875 20.515625 
Q 46.921875 27.09375 42.890625 30.859375 
Q 38.875 34.625 31.78125 34.625 
z
M 21.921875 38.8125 
Q 15.578125 40.375 12.03125 44.71875 
Q 8.5 49.078125 8.5 55.328125 
Q 8.5 64.0625 14.71875 69.140625 
Q 20.953125 74.21875 31.78125 74.21875 
Q 42.671875 74.21875 48.875 69.140625 
Q 55.078125 64.0625 55.078125 55.328125 
Q 55.078125 49.078125 51.53125 44.71875 
Q 48 40.375 41.703125 38.8125 
Q 48.828125 37.15625 52.796875 32.3125 
Q 56.78125 27.484375 56.78125 20.515625 
Q 56.78125 9.90625 50.3125 4.234375 
Q 43.84375 -1.421875 31.78125 -1.421875 
Q 19.734375 -1.421875 13.25 4.234375 
Q 6.78125 9.90625 6.78125 20.515625 
Q 6.78125 27.484375 10.78125 32.3125 
Q 14.796875 37.15625 21.921875 38.8125 
z
M 18.3125 54.390625 
Q 18.3125 48.734375 21.84375 45.5625 
Q 25.390625 42.390625 31.78125 42.390625 
Q 38.140625 42.390625 41.71875 45.5625 
Q 45.3125 48.734375 45.3125 54.390625 
Q 45.3125 60.0625 41.71875 63.234375 
Q 38.140625 66.40625 31.78125 66.40625 
Q 25.390625 66.40625 21.84375 63.234375 
Q 18.3125 60.0625 18.3125 54.390625 
z
" id="DejaVuSans-38"/>
      </defs>
      <g transform="translate(23.675 87.065681)scale(0.16 -0.16)">
       <use xlink:href="#DejaVuSans-30"/>
       <use x="63.623047" xlink:href="#DejaVuSans-2e"/>
       <use x="95.410156" xlink:href="#DejaVuSans-38"/>
      </g>
     </g>
    </g>
    <g id="ytick_6">
     <g id="line2d_35">
      <path clip-path="url(#p456b054a86)" d="M 56.12 27.513663 
L 333.168 27.513663 
" style="fill:none;stroke:#b0b0b0;stroke-linecap:square;stroke-width:0.8;"/>
     </g>
     <g id="line2d_36">
      <g>
       <use style="stroke:#000000;stroke-width:0.8;" x="56.12" xlink:href="#m9d2b50c563" y="27.513663"/>
      </g>
     </g>
     <g id="text_11">
      <!-- 1.0 -->
      <g transform="translate(23.675 33.592413)scale(0.16 -0.16)">
       <use xlink:href="#DejaVuSans-31"/>
       <use x="63.623047" xlink:href="#DejaVuSans-2e"/>
       <use x="95.410156" xlink:href="#DejaVuSans-30"/>
      </g>
     </g>
    </g>
    <g id="text_12">
     <!-- Fraction of function,target pairs -->
     <defs>
      <path d="M 9.8125 72.90625 
L 51.703125 72.90625 
L 51.703125 64.59375 
L 19.671875 64.59375 
L 19.671875 43.109375 
L 48.578125 43.109375 
L 48.578125 34.8125 
L 19.671875 34.8125 
L 19.671875 0 
L 9.8125 0 
z
" id="DejaVuSans-46"/>
      <path d="M 41.109375 46.296875 
Q 39.59375 47.171875 37.8125 47.578125 
Q 36.03125 48 33.890625 48 
Q 26.265625 48 22.1875 43.046875 
Q 18.109375 38.09375 18.109375 28.8125 
L 18.109375 0 
L 9.078125 0 
L 9.078125 54.6875 
L 18.109375 54.6875 
L 18.109375 46.1875 
Q 20.953125 51.171875 25.484375 53.578125 
Q 30.03125 56 36.53125 56 
Q 37.453125 56 38.578125 55.875 
Q 39.703125 55.765625 41.0625 55.515625 
z
" id="DejaVuSans-72"/>
      <path d="M 48.78125 52.59375 
L 48.78125 44.1875 
Q 44.96875 46.296875 41.140625 47.34375 
Q 37.3125 48.390625 33.40625 48.390625 
Q 24.65625 48.390625 19.8125 42.84375 
Q 14.984375 37.3125 14.984375 27.296875 
Q 14.984375 17.28125 19.8125 11.734375 
Q 24.65625 6.203125 33.40625 6.203125 
Q 37.3125 6.203125 41.140625 7.25 
Q 44.96875 8.296875 48.78125 10.40625 
L 48.78125 2.09375 
Q 45.015625 0.34375 40.984375 -0.53125 
Q 36.96875 -1.421875 32.421875 -1.421875 
Q 20.0625 -1.421875 12.78125 6.34375 
Q 5.515625 14.109375 5.515625 27.296875 
Q 5.515625 40.671875 12.859375 48.328125 
Q 20.21875 56 33.015625 56 
Q 37.15625 56 41.109375 55.140625 
Q 45.0625 54.296875 48.78125 52.59375 
z
" id="DejaVuSans-63"/>
      <path d="M 18.3125 70.21875 
L 18.3125 54.6875 
L 36.8125 54.6875 
L 36.8125 47.703125 
L 18.3125 47.703125 
L 18.3125 18.015625 
Q 18.3125 11.328125 20.140625 9.421875 
Q 21.96875 7.515625 27.59375 7.515625 
L 36.8125 7.515625 
L 36.8125 0 
L 27.59375 0 
Q 17.1875 0 13.234375 3.875 
Q 9.28125 7.765625 9.28125 18.015625 
L 9.28125 47.703125 
L 2.6875 47.703125 
L 2.6875 54.6875 
L 9.28125 54.6875 
L 9.28125 70.21875 
z
" id="DejaVuSans-74"/>
      <path d="M 8.5 21.578125 
L 8.5 54.6875 
L 17.484375 54.6875 
L 17.484375 21.921875 
Q 17.484375 14.15625 20.5 10.265625 
Q 23.53125 6.390625 29.59375 6.390625 
Q 36.859375 6.390625 41.078125 11.03125 
Q 45.3125 15.671875 45.3125 23.6875 
L 45.3125 54.6875 
L 54.296875 54.6875 
L 54.296875 0 
L 45.3125 0 
L 45.3125 8.40625 
Q 42.046875 3.421875 37.71875 1 
Q 33.40625 -1.421875 27.6875 -1.421875 
Q 18.265625 -1.421875 13.375 4.4375 
Q 8.5 10.296875 8.5 21.578125 
z
M 31.109375 56 
z
" id="DejaVuSans-75"/>
      <path d="M 11.71875 12.40625 
L 22.015625 12.40625 
L 22.015625 4 
L 14.015625 -11.625 
L 7.71875 -11.625 
L 11.71875 4 
z
" id="DejaVuSans-2c"/>
      <path d="M 18.109375 8.203125 
L 18.109375 -20.796875 
L 9.078125 -20.796875 
L 9.078125 54.6875 
L 18.109375 54.6875 
L 18.109375 46.390625 
Q 20.953125 51.265625 25.265625 53.625 
Q 29.59375 56 35.59375 56 
Q 45.5625 56 51.78125 48.09375 
Q 58.015625 40.1875 58.015625 27.296875 
Q 58.015625 14.40625 51.78125 6.484375 
Q 45.5625 -1.421875 35.59375 -1.421875 
Q 29.59375 -1.421875 25.265625 0.953125 
Q 20.953125 3.328125 18.109375 8.203125 
z
M 48.6875 27.296875 
Q 48.6875 37.203125 44.609375 42.84375 
Q 40.53125 48.484375 33.40625 48.484375 
Q 26.265625 48.484375 22.1875 42.84375 
Q 18.109375 37.203125 18.109375 27.296875 
Q 18.109375 17.390625 22.1875 11.75 
Q 26.265625 6.109375 33.40625 6.109375 
Q 40.53125 6.109375 44.609375 11.75 
Q 48.6875 17.390625 48.6875 27.296875 
z
" id="DejaVuSans-70"/>
     </defs>
     <g transform="translate(16.139531 294.999375)rotate(-90)scale(0.17 -0.17)">
      <use xlink:href="#DejaVuSans-46"/>
      <use x="57.410156" xlink:href="#DejaVuSans-72"/>
      <use x="98.523438" xlink:href="#DejaVuSans-61"/>
      <use x="159.802734" xlink:href="#DejaVuSans-63"/>
      <use x="214.783203" xlink:href="#DejaVuSans-74"/>
      <use x="253.992188" xlink:href="#DejaVuSans-69"/>
      <use x="281.775391" xlink:href="#DejaVuSans-6f"/>
      <use x="342.957031" xlink:href="#DejaVuSans-6e"/>
      <use x="406.335938" xlink:href="#DejaVuSans-20"/>
      <use x="438.123047" xlink:href="#DejaVuSans-6f"/>
      <use x="499.304688" xlink:href="#DejaVuSans-66"/>
      <use x="534.509766" xlink:href="#DejaVuSans-20"/>
      <use x="566.296875" xlink:href="#DejaVuSans-66"/>
      <use x="601.501953" xlink:href="#DejaVuSans-75"/>
      <use x="664.880859" xlink:href="#DejaVuSans-6e"/>
      <use x="728.259766" xlink:href="#DejaVuSans-63"/>
      <use x="783.240234" xlink:href="#DejaVuSans-74"/>
      <use x="822.449219" xlink:href="#DejaVuSans-69"/>
      <use x="850.232422" xlink:href="#DejaVuSans-6f"/>
      <use x="911.414062" xlink:href="#DejaVuSans-6e"/>
      <use x="974.792969" xlink:href="#DejaVuSans-2c"/>
      <use x="1006.580078" xlink:href="#DejaVuSans-74"/>
      <use x="1045.789062" xlink:href="#DejaVuSans-61"/>
      <use x="1107.068359" xlink:href="#DejaVuSans-72"/>
      <use x="1148.166016" xlink:href="#DejaVuSans-67"/>
      <use x="1211.642578" xlink:href="#DejaVuSans-65"/>
      <use x="1273.166016" xlink:href="#DejaVuSans-74"/>
      <use x="1312.375" xlink:href="#DejaVuSans-20"/>
      <use x="1344.162109" xlink:href="#DejaVuSans-70"/>
      <use x="1407.638672" xlink:href="#DejaVuSans-61"/>
      <use x="1468.917969" xlink:href="#DejaVuSans-69"/>
      <use x="1496.701172" xlink:href="#DejaVuSans-72"/>
      <use x="1537.814453" xlink:href="#DejaVuSans-73"/>
     </g>
    </g>
   </g>
   <g id="line2d_37">
    <defs>
     <path d="M 0 1.5 
C 0.397805 1.5 0.77937 1.341951 1.06066 1.06066 
C 1.341951 0.77937 1.5 0.397805 1.5 0 
C 1.5 -0.397805 1.341951 -0.77937 1.06066 -1.06066 
C 0.77937 -1.341951 0.397805 -1.5 0 -1.5 
C -0.397805 -1.5 -0.77937 -1.341951 -1.06066 -1.06066 
C -1.341951 -0.77937 -1.5 -0.397805 -1.5 0 
C -1.5 0.397805 -1.341951 0.77937 -1.06066 1.06066 
C -0.77937 1.341951 -0.397805 1.5 0 1.5 
z
" id="m0a3b8741d2" style="stroke:#00bfbf;"/>
    </defs>
    <g>
     <use style="fill:#00bfbf;stroke:#00bfbf;" x="182.944316" xlink:href="#m0a3b8741d2" y="27.513663"/>
     <use style="fill:#00bfbf;stroke:#00bfbf;" x="182.944316" xlink:href="#m0a3b8741d2" y="27.513663"/>
    </g>
   </g>
   <g id="line2d_38">
    <path d="M 44.205749 294.88 
L 44.205749 284.919293 
L 56.12 284.919293 
L 56.12 281.249559 
L 63.08939 281.249559 
L 63.08939 278.628321 
L 68.034251 278.628321 
L 68.034251 277.055578 
L 71.869783 277.055578 
L 71.869783 274.434339 
L 75.003641 274.434339 
L 75.003641 270.764605 
L 77.653281 270.764605 
L 77.653281 270.240357 
L 79.948502 270.240357 
L 79.948502 269.191862 
L 83.784035 269.191862 
L 83.784035 268.667614 
L 86.917893 268.667614 
L 86.917893 267.094871 
L 88.293717 267.094871 
L 88.293717 266.570623 
L 91.862754 266.570623 
L 91.862754 265.522128 
L 92.904808 265.522128 
L 92.904808 264.99788 
L 93.887283 264.99788 
L 93.887283 263.425137 
L 96.536922 263.425137 
L 96.536922 262.900889 
L 97.336537 262.900889 
L 97.336537 261.328146 
L 106.730875 261.328146 
L 106.730875 258.706907 
L 108.036969 258.706907 
L 108.036969 258.18266 
L 113.086321 258.18266 
L 113.086321 257.658412 
L 113.999206 257.658412 
L 113.999206 256.085669 
L 114.866043 256.085669 
L 114.866043 255.561421 
L 115.957752 255.561421 
L 115.957752 254.512926 
L 116.984244 254.512926 
L 116.984244 253.988678 
L 117.231566 253.988678 
L 117.231566 253.46443 
L 119.95122 253.46443 
L 119.95122 252.940182 
L 121.741249 252.940182 
L 121.741249 250.843192 
L 122.838768 250.843192 
L 122.838768 250.318944 
L 123.189569 250.318944 
L 123.189569 247.697705 
L 126.207287 247.697705 
L 126.207287 247.173458 
L 126.352339 247.173458 
L 126.352339 246.64921 
L 127.197852 246.64921 
L 127.197852 246.124962 
L 131.333273 246.124962 
L 131.333273 244.552219 
L 131.654565 244.552219 
L 131.654565 244.027971 
L 131.865471 244.027971 
L 131.865471 242.455228 
L 132.177056 242.455228 
L 132.177056 241.93098 
L 133.6555 241.93098 
L 133.6555 240.358237 
L 134.029181 240.358237 
L 134.029181 239.83399 
L 135.10382 239.83399 
L 135.10382 238.785494 
L 136.67882 238.785494 
L 136.67882 238.261246 
L 136.992776 238.261246 
L 136.992776 237.736999 
L 139.043211 237.736999 
L 139.043211 236.688503 
L 141.84014 236.688503 
L 141.84014 235.640008 
L 142.245962 235.640008 
L 142.303162 233.543017 
L 142.530078 233.543017 
L 142.530078 233.018769 
L 143.247524 233.018769 
L 143.35529 231.446026 
L 143.674593 231.446026 
L 143.674593 229.873283 
L 143.832047 229.873283 
L 143.832047 228.30054 
L 144.245007 228.30054 
L 144.245007 226.203549 
L 145.332007 226.203549 
L 145.332007 224.106558 
L 146.444328 224.106558 
L 146.444328 223.58231 
L 146.974611 223.58231 
L 146.974611 223.058063 
L 147.740567 223.058063 
L 147.740567 222.533815 
L 149.253506 222.533815 
L 149.329562 220.961072 
L 149.367465 220.961072 
L 149.367465 220.436824 
L 149.518243 220.436824 
L 149.518243 217.815585 
L 150.467326 217.815585 
L 150.467326 217.291338 
L 150.922912 217.291338 
L 150.922912 215.718594 
L 151.733528 215.718594 
L 151.733528 212.04886 
L 152.601988 212.04886 
L 152.601988 208.903374 
L 152.726997 208.903374 
L 152.726997 206.282136 
L 153.157504 206.282136 
L 153.157504 205.757888 
L 153.636661 205.757888 
L 153.636661 205.23364 
L 153.871321 205.23364 
L 153.871321 203.660897 
L 154.751526 203.660897 
L 154.751526 202.088154 
L 155.026111 202.088154 
L 155.026111 201.039658 
L 155.509573 201.039658 
L 155.509573 200.515411 
L 155.746298 200.515411 
L 155.746298 199.466915 
L 156.83439 199.466915 
L 156.83439 196.321429 
L 157.102017 196.321429 
L 157.126141 193.175943 
L 157.484002 193.175943 
L 157.484002 192.651695 
L 157.601653 192.651695 
L 157.625086 190.554704 
L 157.765022 190.554704 
L 157.765022 190.030456 
L 158.018648 190.030456 
L 158.018648 189.506209 
L 158.492691 189.506209 
L 158.492691 188.981961 
L 158.779727 188.981961 
L 158.779727 187.933465 
L 159.190803 187.933465 
L 159.190803 185.836474 
L 159.424376 185.836474 
L 159.466505 184.263731 
L 159.633996 184.263731 
L 159.633996 183.739484 
L 160.89888 183.739484 
L 160.89888 183.215236 
L 161.053039 183.215236 
L 161.072212 181.642493 
L 161.451249 181.642493 
L 161.50739 180.06975 
L 162.310402 180.06975 
L 162.399325 178.497006 
L 162.593349 178.497006 
L 162.628392 177.448511 
L 162.733095 177.448511 
L 162.733095 173.778777 
L 163.128649 173.778777 
L 163.128649 171.157538 
L 163.331467 171.157538 
L 163.331467 170.633291 
L 163.598221 170.633291 
L 163.598221 169.584795 
L 163.779242 169.584795 
L 163.779242 169.060547 
L 163.990747 169.060547 
L 164.006909 168.012052 
L 164.263461 168.012052 
L 164.263461 166.963557 
L 164.437645 166.963557 
L 164.500549 164.342318 
L 164.563224 164.342318 
L 164.563224 163.81807 
L 164.811664 163.81807 
L 164.873217 160.672584 
L 164.965135 160.672584 
L 165.071755 159.624089 
L 165.086933 159.624089 
L 165.086933 159.099841 
L 165.357863 159.099841 
L 165.357863 158.575593 
L 165.668643 158.575593 
L 165.668643 157.527098 
L 165.829217 157.527098 
L 165.916175 154.381611 
L 166.28799 154.381611 
L 166.386735 149.139134 
L 166.414844 149.139134 
L 166.498896 144.420905 
L 166.748614 144.420905 
L 166.748614 141.799666 
L 166.940362 141.799666 
L 167.021889 138.65418 
L 167.183793 138.65418 
L 167.290887 136.032941 
L 167.764723 136.032941 
L 167.764723 135.508693 
L 167.91981 135.508693 
L 167.958364 134.460198 
L 168.124439 134.460198 
L 168.149847 132.363207 
L 168.238481 132.363207 
L 168.288925 130.790464 
L 168.426886 130.790464 
L 168.47678 129.741969 
L 168.588516 129.741969 
L 168.674922 125.023739 
L 168.931565 125.023739 
L 169.040393 122.926748 
L 169.112563 122.926748 
L 169.208322 120.30551 
L 169.410055 120.30551 
L 169.410055 119.257014 
L 169.539337 119.257014 
L 169.621105 116.111528 
L 169.702485 116.111528 
L 169.783482 114.014537 
L 169.990023 114.014537 
L 170.01282 110.344803 
L 170.239138 110.344803 
L 170.239138 109.820555 
L 170.473608 109.820555 
L 170.573125 108.247812 
L 170.606169 108.247812 
L 170.606169 107.723564 
L 170.792231 107.723564 
L 170.792231 107.199317 
L 170.922366 107.199317 
L 170.954746 104.05383 
L 171.062243 104.05383 
L 171.158418 100.908344 
L 171.179718 100.908344 
L 171.179718 99.859849 
L 171.370234 99.859849 
L 171.464706 97.762858 
L 171.558662 97.762858 
L 171.641749 96.190115 
L 171.765632 96.190115 
L 171.857961 91.471885 
L 172.051265 91.471885 
L 172.051265 90.947637 
L 172.312313 90.947637 
L 172.381922 87.277903 
L 172.461133 87.277903 
L 172.490743 80.986931 
L 172.764671 80.986931 
L 172.764671 79.938435 
L 172.909642 79.938435 
L 172.909642 79.414188 
L 173.072478 79.414188 
L 173.167548 76.268701 
L 173.262095 76.268701 
L 173.262095 75.744454 
L 173.412297 75.744454 
L 173.514805 74.695958 
L 173.598223 74.695958 
L 173.598223 73.123215 
L 173.763853 73.123215 
L 173.763853 72.074719 
L 173.927903 72.074719 
L 173.98224 68.404985 
L 174.072422 68.404985 
L 174.072422 67.35649 
L 174.278062 67.35649 
L 174.278062 65.783747 
L 174.454901 65.783747 
L 174.533889 61.065517 
L 174.83766 61.065517 
L 174.83766 59.492774 
L 175.119237 59.492774 
L 175.119237 57.920031 
L 175.304425 57.920031 
L 175.304425 57.395783 
L 175.553781 57.395783 
L 175.553781 55.82304 
L 176.049915 55.82304 
L 176.049915 52.677554 
L 176.27294 52.677554 
L 176.375512 50.580563 
L 176.422647 50.580563 
L 176.493109 48.483572 
L 176.58661 48.483572 
L 176.58661 47.959324 
L 176.749024 47.959324 
L 176.825827 46.910829 
L 176.864101 46.910829 
L 176.864101 43.765343 
L 177.129655 43.765343 
L 177.129655 43.241095 
L 177.249699 43.241095 
L 177.249699 42.192599 
L 177.376333 42.192599 
L 177.376333 39.571361 
L 177.604879 39.571361 
L 177.604879 39.047113 
L 177.772503 39.047113 
L 177.866529 37.47437 
L 177.967216 37.47437 
L 177.967216 36.425875 
L 180.736295 36.425875 
L 180.736295 35.901627 
L 181.529528 35.901627 
L 181.529528 35.377379 
L 181.726568 35.377379 
L 181.726568 34.328884 
L 182.498398 34.328884 
L 182.542415 31.183397 
L 182.673793 31.183397 
L 182.673793 30.134902 
L 182.944316 30.134902 
L 182.944316 27.513663 
L 333.168 27.513663 
L 333.168 27.513663 
" style="fill:none;stroke:#00bfbf;stroke-linecap:square;stroke-width:1.5;"/>
   </g>
   <g id="line2d_39">
    <defs>
     <path d="M -6 0 
L 6 0 
M 0 6 
L 0 -6 
" id="m19995668b6" style="stroke:#00bfbf;stroke-width:1.5;"/>
    </defs>
    <g>
     <use style="fill-opacity:0;stroke:#00bfbf;stroke-width:1.5;" x="139.043211" xlink:href="#m19995668b6" y="237.736999"/>
     <use style="fill-opacity:0;stroke:#00bfbf;stroke-width:1.5;" x="165.916175" xlink:href="#m19995668b6" y="155.954354"/>
     <use style="fill-opacity:0;stroke:#00bfbf;stroke-width:1.5;" x="181.726568" xlink:href="#m19995668b6" y="34.328884"/>
     <use style="fill-opacity:0;stroke:#00bfbf;stroke-width:1.5;" x="182.944316" xlink:href="#m19995668b6" y="27.513663"/>
     <use style="fill-opacity:0;stroke:#00bfbf;stroke-width:1.5;" x="182.944316" xlink:href="#m19995668b6" y="27.513663"/>
     <use style="fill-opacity:0;stroke:#00bfbf;stroke-width:1.5;" x="333.168" xlink:href="#m19995668b6" y="27.513663"/>
    </g>
   </g>
   <g id="line2d_40">
    <path style="fill:none;stroke:#00bfbf;stroke-linecap:square;stroke-width:1.5;"/>
    <g/>
   </g>
   <g id="line2d_41">
    <defs>
     <path d="M 0 1.5 
C 0.397805 1.5 0.77937 1.341951 1.06066 1.06066 
C 1.341951 0.77937 1.5 0.397805 1.5 0 
C 1.5 -0.397805 1.341951 -0.77937 1.06066 -1.06066 
C 0.77937 -1.341951 0.397805 -1.5 0 -1.5 
C -0.397805 -1.5 -0.77937 -1.341951 -1.06066 -1.06066 
C -1.341951 -0.77937 -1.5 -0.397805 -1.5 0 
C -1.5 0.397805 -1.341951 0.77937 -1.06066 1.06066 
C -0.77937 1.341951 -0.397805 1.5 0 1.5 
z
" id="m427a0988ce" style="stroke:#008000;"/>
    </defs>
    <g>
     <use style="fill:#008000;stroke:#008000;" x="206.294733" xlink:href="#m427a0988ce" y="27.513663"/>
     <use style="fill:#008000;stroke:#008000;" x="206.294733" xlink:href="#m427a0988ce" y="27.513663"/>
    </g>
   </g>
   <g id="line2d_42">
    <path d="M 37.236359 294.88 
L 37.236359 287.016284 
L 49.15061 287.016284 
L 49.15061 285.967789 
L 56.12 285.967789 
L 56.12 281.773807 
L 61.064861 281.773807 
L 61.064861 280.201064 
L 64.900393 280.201064 
L 64.900393 278.104073 
L 68.034251 278.104073 
L 68.034251 276.53133 
L 70.68389 276.53133 
L 70.68389 270.240357 
L 72.979112 270.240357 
L 72.979112 269.716109 
L 76.814644 269.716109 
L 76.814644 268.667614 
L 78.452896 268.667614 
L 78.452896 268.143366 
L 82.598142 268.143366 
L 82.598142 266.570623 
L 87.847234 266.570623 
L 87.847234 265.522128 
L 95.115564 265.522128 
L 95.115564 264.99788 
L 98.347925 264.99788 
L 98.347925 264.473632 
L 100.207968 264.473632 
L 100.207968 263.949385 
L 107.896653 263.949385 
L 107.896653 263.425137 
L 109.250788 263.425137 
L 109.250788 262.900889 
L 116.901005 262.900889 
L 116.901005 262.376641 
L 117.231566 262.376641 
L 117.231566 261.328146 
L 117.715785 261.328146 
L 117.715785 259.755403 
L 118.340895 259.755403 
L 118.340895 258.706907 
L 123.476531 258.706907 
L 123.476531 258.18266 
L 123.925932 258.18266 
L 123.925932 257.134164 
L 127.515749 257.134164 
L 127.515749 256.609917 
L 128.307181 256.609917 
L 128.307181 256.085669 
L 128.647561 256.085669 
L 128.647561 254.512926 
L 129.550274 254.512926 
L 129.550274 253.46443 
L 132.347749 253.46443 
L 132.347749 252.415935 
L 133.465568 252.415935 
L 133.529112 249.794696 
L 135.390782 249.794696 
L 135.390782 249.270448 
L 140.349866 249.270448 
L 140.349866 248.746201 
L 148.724584 248.746201 
L 148.776908 247.173458 
L 149.791281 247.173458 
L 149.791281 246.64921 
L 151.567774 246.64921 
L 151.567774 244.552219 
L 152.581065 244.552219 
L 152.581065 243.503724 
L 154.519307 243.503724 
L 154.519307 242.455228 
L 156.495971 242.455228 
L 156.495971 241.93098 
L 156.661886 241.93098 
L 156.661886 240.882485 
L 157.562525 240.882485 
L 157.562525 240.358237 
L 159.62705 240.358237 
L 159.62705 239.83399 
L 159.94371 239.83399 
L 159.94371 239.309742 
L 161.243814 239.309742 
L 161.243814 238.261246 
L 161.50739 238.261246 
L 161.50739 237.736999 
L 161.803753 237.736999 
L 161.803753 236.688503 
L 161.974301 236.688503 
L 161.974301 236.164255 
L 162.226991 236.164255 
L 162.226991 235.11576 
L 162.581652 235.11576 
L 162.581652 234.067265 
L 163.581669 234.067265 
L 163.581669 233.543017 
L 163.768325 233.543017 
L 163.844598 229.873283 
L 165.949873 229.873283 
L 165.949873 228.824787 
L 166.573266 228.824787 
L 166.573266 228.30054 
L 166.931279 228.30054 
L 166.931279 227.776292 
L 167.048979 227.776292 
L 167.048979 227.252044 
L 167.219565 227.252044 
L 167.317557 225.679301 
L 167.459101 225.679301 
L 167.459101 224.106558 
L 167.625684 224.106558 
L 167.625684 223.58231 
L 168.335035 223.58231 
L 168.360134 222.533815 
L 168.518249 222.533815 
L 168.617367 220.961072 
L 169.024313 220.961072 
L 169.096552 218.864081 
L 169.295634 218.864081 
L 169.295634 218.339833 
L 169.44541 218.339833 
L 169.44541 216.76709 
L 169.963389 216.76709 
L 169.963389 216.242842 
L 170.190355 216.242842 
L 170.27283 214.670099 
L 170.392093 214.670099 
L 170.392093 213.621604 
L 170.954746 213.621604 
L 171.019325 212.04886 
L 171.197447 212.04886 
L 171.303441 209.427622 
L 171.317524 209.427622 
L 171.317524 208.379126 
L 171.520446 208.379126 
L 171.520446 207.330631 
L 171.693475 207.330631 
L 171.693475 206.806383 
L 172.020888 206.806383 
L 172.101776 204.709392 
L 172.24242 204.709392 
L 172.24242 204.185145 
L 172.355438 204.185145 
L 172.388537 202.088154 
L 172.64455 202.088154 
L 172.677098 201.039658 
L 172.787303 201.039658 
L 172.787303 199.991163 
L 172.922469 199.991163 
L 172.922469 199.466915 
L 173.037487 199.466915 
L 173.037487 198.942667 
L 173.177026 198.942667 
L 173.177026 198.41842 
L 173.346745 198.41842 
L 173.390474 196.845677 
L 173.465181 196.845677 
L 173.465181 196.321429 
L 173.662824 196.321429 
L 173.754693 193.70019 
L 173.785207 193.70019 
L 173.785207 192.651695 
L 173.91883 192.651695 
L 173.943014 190.030456 
L 174.236536 190.030456 
L 174.260278 183.739484 
L 174.53097 183.739484 
L 174.53097 183.215236 
L 174.791716 183.215236 
L 174.791716 181.642493 
L 174.917767 181.642493 
L 174.963375 180.06975 
L 175.127698 180.06975 
L 175.183999 175.35152 
L 175.318373 175.35152 
L 175.412924 172.730281 
L 175.584011 172.730281 
L 175.671653 169.584795 
L 175.764285 169.584795 
L 175.851014 166.963557 
L 175.948064 166.963557 
L 175.948064 165.915061 
L 176.09262 165.915061 
L 176.183016 164.342318 
L 176.357147 164.342318 
L 176.409567 155.954354 
L 176.751589 155.954354 
L 176.848802 153.333116 
L 176.889569 153.333116 
L 176.889569 152.808868 
L 177.42574 152.808868 
L 177.514316 151.760373 
L 177.796661 151.760373 
L 177.796661 150.711877 
L 178.197525 150.711877 
L 178.291606 145.993648 
L 178.343132 145.993648 
L 178.445724 144.420905 
L 178.704135 144.420905 
L 178.731593 142.323914 
L 178.845531 142.323914 
L 178.868228 141.275418 
L 178.981267 141.275418 
L 179.035263 136.032941 
L 179.191788 136.032941 
L 179.191788 135.508693 
L 179.324828 135.508693 
L 179.38216 134.460198 
L 179.548658 134.460198 
L 179.60525 133.411703 
L 179.752384 133.411703 
L 179.752384 132.887455 
L 179.868336 132.887455 
L 179.93668 130.790464 
L 179.98351 130.790464 
L 180.055633 129.741969 
L 180.16115 129.741969 
L 180.211569 128.169225 
L 180.320305 128.169225 
L 180.320305 126.596482 
L 180.444921 126.596482 
L 180.531618 122.926748 
L 180.752565 122.926748 
L 180.853901 120.30551 
L 180.906361 120.30551 
L 180.998784 118.732766 
L 181.042811 118.732766 
L 181.118594 117.684271 
L 181.166285 117.684271 
L 181.245477 116.111528 
L 181.312505 116.111528 
L 181.312505 115.58728 
L 181.566403 115.58728 
L 181.639917 113.490289 
L 181.85859 113.490289 
L 181.961209 111.393298 
L 181.97636 111.393298 
L 182.040603 109.820555 
L 182.093328 109.820555 
L 182.093328 109.296308 
L 182.213241 109.296308 
L 182.213241 108.77206 
L 182.611879 108.77206 
L 182.655606 106.150821 
L 182.944316 106.150821 
L 183.012177 104.05383 
L 183.069117 104.05383 
L 183.069117 103.529583 
L 183.196546 103.529583 
L 183.270445 99.859849 
L 183.420779 99.859849 
L 183.476383 98.287105 
L 183.76539 98.287105 
L 183.76539 97.762858 
L 183.992474 97.762858 
L 184.016027 96.714362 
L 184.13331 96.714362 
L 184.13331 96.190115 
L 184.273002 96.190115 
L 184.273002 95.665867 
L 184.38526 95.665867 
L 184.444395 94.617371 
L 184.51313 94.617371 
L 184.558801 92.520381 
L 184.665977 92.520381 
L 184.717701 90.42339 
L 184.868747 90.42339 
L 184.970833 87.802151 
L 185.037499 87.802151 
L 185.141739 85.70516 
L 185.376325 85.70516 
L 185.376325 85.180912 
L 185.610818 85.180912 
L 185.678104 83.083922 
L 185.905531 83.083922 
L 185.905531 80.986931 
L 186.395522 80.986931 
L 186.395522 79.414188 
L 186.68007 79.414188 
L 186.68007 78.365692 
L 187.134747 78.365692 
L 187.154367 77.317197 
L 187.498262 77.317197 
L 187.596828 74.695958 
L 187.673101 74.695958 
L 187.765265 72.598967 
L 187.918676 72.598967 
L 187.918676 71.550472 
L 188.305489 71.550472 
L 188.305489 71.026224 
L 188.601584 71.026224 
L 188.650441 67.35649 
L 188.724745 67.35649 
L 188.724745 66.832242 
L 189.124028 66.832242 
L 189.124028 65.783747 
L 189.260871 65.783747 
L 189.35232 62.114013 
L 189.48981 62.114013 
L 189.48981 61.589765 
L 189.696422 61.589765 
L 189.744677 59.492774 
L 189.881467 59.492774 
L 189.964925 58.444279 
L 190.10234 58.444279 
L 190.10234 57.920031 
L 190.306424 57.920031 
L 190.306424 57.395783 
L 190.773404 57.395783 
L 190.773404 56.347288 
L 190.888757 56.347288 
L 190.927036 54.250297 
L 191.079307 54.250297 
L 191.079307 52.677554 
L 191.995267 52.677554 
L 191.995267 51.629058 
L 192.238725 51.629058 
L 192.249141 50.056315 
L 192.445869 50.056315 
L 192.544418 47.435077 
L 192.628151 47.435077 
L 192.628151 46.386581 
L 192.758046 46.386581 
L 192.854826 43.765343 
L 193.010942 43.765343 
L 193.010942 41.668352 
L 193.688771 41.668352 
L 193.688771 40.619856 
L 193.869775 40.619856 
L 193.869775 39.571361 
L 194.05827 39.571361 
L 194.05827 38.522865 
L 195.156582 38.522865 
L 195.156582 37.47437 
L 195.338511 37.47437 
L 195.338511 36.425875 
L 205.168531 36.425875 
L 205.255726 33.804636 
L 205.357059 33.804636 
L 205.357059 33.280388 
L 205.580022 33.280388 
L 205.580022 32.231893 
L 205.855898 32.231893 
L 205.855898 31.707645 
L 206.047344 31.707645 
L 206.047344 30.65915 
L 206.275404 30.65915 
L 206.294733 27.513663 
L 333.168 27.513663 
L 333.168 27.513663 
" style="fill:none;stroke:#008000;stroke-linecap:square;stroke-width:1.5;"/>
   </g>
   <g id="line2d_43">
    <defs>
     <path d="M -0 6 
L 6 -6 
L -6 -6 
z
" id="m38dd06dee5" style="stroke:#008000;stroke-linejoin:miter;stroke-width:1.5;"/>
    </defs>
    <g>
     <use style="fill-opacity:0;stroke:#008000;stroke-linejoin:miter;stroke-width:1.5;" x="140.349866" xlink:href="#m38dd06dee5" y="249.270448"/>
     <use style="fill-opacity:0;stroke:#008000;stroke-linejoin:miter;stroke-width:1.5;" x="180.177973" xlink:href="#m38dd06dee5" y="129.217721"/>
     <use style="fill-opacity:0;stroke:#008000;stroke-linejoin:miter;stroke-width:1.5;" x="206.294733" xlink:href="#m38dd06dee5" y="29.610654"/>
     <use style="fill-opacity:0;stroke:#008000;stroke-linejoin:miter;stroke-width:1.5;" x="206.294733" xlink:href="#m38dd06dee5" y="27.513663"/>
     <use style="fill-opacity:0;stroke:#008000;stroke-linejoin:miter;stroke-width:1.5;" x="206.294733" xlink:href="#m38dd06dee5" y="27.513663"/>
     <use style="fill-opacity:0;stroke:#008000;stroke-linejoin:miter;stroke-width:1.5;" x="333.168" xlink:href="#m38dd06dee5" y="27.513663"/>
    </g>
   </g>
   <g id="line2d_44">
    <path style="fill:none;stroke:#008000;stroke-linecap:square;stroke-width:1.5;"/>
    <g/>
   </g>
   <g id="line2d_45">
    <defs>
     <path d="M 0 1.5 
C 0.397805 1.5 0.77937 1.341951 1.06066 1.06066 
C 1.341951 0.77937 1.5 0.397805 1.5 0 
C 1.5 -0.397805 1.341951 -0.77937 1.06066 -1.06066 
C 0.77937 -1.341951 0.397805 -1.5 0 -1.5 
C -0.397805 -1.5 -0.77937 -1.341951 -1.06066 -1.06066 
C -1.341951 -0.77937 -1.5 -0.397805 -1.5 0 
C -1.5 0.397805 -1.341951 0.77937 -1.06066 1.06066 
C -0.77937 1.341951 -0.397805 1.5 0 1.5 
z
" id="m4447d9cca9" style="stroke:#0000ff;"/>
    </defs>
    <g>
     <use style="fill:#0000ff;stroke:#0000ff;" x="227.034101" xlink:href="#m4447d9cca9" y="27.513663"/>
     <use style="fill:#0000ff;stroke:#0000ff;" x="227.034101" xlink:href="#m4447d9cca9" y="27.513663"/>
    </g>
   </g>
   <g id="line2d_46">
    <path d="M 28.455965 294.88 
L 28.455965 288.589027 
L 40.370217 288.589027 
L 40.370217 284.919293 
L 47.339607 284.919293 
L 47.339607 282.298055 
L 52.284468 282.298055 
L 52.284468 280.201064 
L 59.253858 280.201064 
L 59.253858 279.152568 
L 64.198719 279.152568 
L 64.198719 278.628321 
L 68.034251 278.628321 
L 68.034251 277.579825 
L 69.672503 277.579825 
L 69.672503 276.53133 
L 79.066841 276.53133 
L 79.066841 275.482834 
L 79.948502 275.482834 
L 79.948502 274.958587 
L 81.586754 274.958587 
L 81.586754 274.434339 
L 83.08236 274.434339 
L 83.08236 273.385844 
L 87.481505 273.385844 
L 87.481505 272.337348 
L 89.567532 272.337348 
L 89.567532 271.288853 
L 90.522701 271.288853 
L 90.522701 269.716109 
L 91.427575 269.716109 
L 91.427575 268.667614 
L 92.287186 268.667614 
L 92.287186 268.143366 
L 96.038666 268.143366 
L 96.038666 267.619119 
L 108.6141 267.619119 
L 108.6141 266.570623 
L 112.897778 266.570623 
L 112.897778 265.522128 
L 115.256077 265.522128 
L 115.256077 264.99788 
L 123.769975 264.99788 
L 123.769975 263.949385 
L 125.913457 263.949385 
L 125.913457 263.425137 
L 127.443604 263.425137 
L 127.443604 262.900889 
L 127.605507 262.900889 
L 127.605507 262.376641 
L 131.949115 262.376641 
L 131.949115 261.852394 
L 132.320552 261.852394 
L 132.320552 261.328146 
L 134.358685 261.328146 
L 134.358685 260.803898 
L 139.600142 260.803898 
L 139.600142 260.279651 
L 140.230025 260.279651 
L 140.230025 259.755403 
L 143.611205 259.755403 
L 143.611205 259.231155 
L 144.173452 259.231155 
L 144.173452 258.706907 
L 145.398907 258.706907 
L 145.398907 258.18266 
L 149.397726 258.18266 
L 149.397726 257.658412 
L 152.387364 257.658412 
L 152.387364 257.134164 
L 154.137279 257.134164 
L 154.137279 256.609917 
L 159.688082 256.609917 
L 159.688082 255.561421 
L 162.600363 255.561421 
L 162.600363 255.037173 
L 163.993981 255.037173 
L 163.993981 253.988678 
L 164.161299 253.988678 
L 164.269826 251.891687 
L 164.578857 251.891687 
L 164.635019 250.843192 
L 164.790068 250.843192 
L 164.790068 250.318944 
L 165.942177 250.318944 
L 165.942177 249.794696 
L 166.543556 249.794696 
L 166.543556 249.270448 
L 168.185356 249.270448 
L 168.185356 248.746201 
L 168.521562 248.746201 
L 168.521562 247.697705 
L 169.388807 247.697705 
L 169.388807 247.173458 
L 170.993523 247.173458 
L 170.993523 246.64921 
L 171.635531 246.64921 
L 171.635531 246.124962 
L 172.41365 246.124962 
L 172.41365 245.600714 
L 173.563051 245.600714 
L 173.577869 244.027971 
L 174.391449 244.027971 
L 174.391449 243.503724 
L 175.376278 243.503724 
L 175.376278 242.979476 
L 175.722934 242.979476 
L 175.722934 241.93098 
L 176.496234 241.93098 
L 176.496234 241.406733 
L 177.456301 241.406733 
L 177.456301 240.882485 
L 177.658989 240.882485 
L 177.746374 239.83399 
L 178.507912 239.83399 
L 178.596628 238.261246 
L 180.308628 238.261246 
L 180.308628 237.736999 
L 180.828826 237.736999 
L 180.828826 237.212751 
L 181.043611 237.212751 
L 181.043611 236.688503 
L 182.28107 236.688503 
L 182.28107 236.164255 
L 183.032128 236.164255 
L 183.032128 235.640008 
L 183.332836 235.640008 
L 183.39779 234.067265 
L 183.464582 234.067265 
L 183.533191 233.018769 
L 185.070419 233.018769 
L 185.070419 232.494521 
L 185.225306 232.494521 
L 185.322809 231.446026 
L 185.578918 231.446026 
L 185.681767 229.873283 
L 187.436646 229.873283 
L 187.436646 229.349035 
L 187.833796 229.349035 
L 187.833796 227.776292 
L 188.220397 227.776292 
L 188.220397 227.252044 
L 188.468194 227.252044 
L 188.545872 226.203549 
L 188.819592 226.203549 
L 188.927568 225.155053 
L 189.049929 225.155053 
L 189.138511 223.58231 
L 189.676598 223.58231 
L 189.676598 223.058063 
L 190.859878 223.058063 
L 190.859878 222.533815 
L 190.990796 222.533815 
L 190.990796 222.009567 
L 191.42231 222.009567 
L 191.42231 221.485319 
L 191.642488 221.485319 
L 191.642488 220.961072 
L 191.88798 220.961072 
L 191.928769 219.912576 
L 192.781888 219.912576 
L 192.781888 218.864081 
L 192.8978 218.864081 
L 192.8978 218.339833 
L 193.36784 218.339833 
L 193.376034 217.291338 
L 193.611984 217.291338 
L 193.707531 216.242842 
L 193.904992 216.242842 
L 193.904992 215.718594 
L 194.309872 215.718594 
L 194.309872 215.194347 
L 194.426967 215.194347 
L 194.448971 214.145851 
L 194.564034 214.145851 
L 194.564034 213.621604 
L 194.773541 213.621604 
L 194.773541 212.04886 
L 195.048616 212.04886 
L 195.157637 209.427622 
L 195.285879 209.427622 
L 195.285879 208.379126 
L 195.419408 208.379126 
L 195.419408 207.854879 
L 195.633178 207.854879 
L 195.633178 205.757888 
L 195.823019 205.757888 
L 195.861548 204.709392 
L 196.062916 204.709392 
L 196.062916 203.136649 
L 196.305434 203.136649 
L 196.400902 202.088154 
L 196.777558 202.088154 
L 196.777558 201.563906 
L 197.031094 201.563906 
L 197.115095 199.466915 
L 197.144258 199.466915 
L 197.144258 198.942667 
L 197.597849 198.942667 
L 197.597849 198.41842 
L 197.724629 198.41842 
L 197.82972 197.369924 
L 197.860401 197.369924 
L 197.860401 196.845677 
L 197.987951 196.845677 
L 198.039778 195.272933 
L 198.24201 195.272933 
L 198.24201 194.748686 
L 198.411357 194.748686 
L 198.488891 192.651695 
L 198.890943 192.651695 
L 198.890943 191.603199 
L 199.048998 191.603199 
L 199.048998 191.078952 
L 199.223946 191.078952 
L 199.292931 188.981961 
L 199.485944 188.981961 
L 199.571036 187.409218 
L 199.719751 187.409218 
L 199.752086 185.312227 
L 199.850335 185.312227 
L 199.850335 183.739484 
L 200.222884 183.739484 
L 200.280935 181.642493 
L 200.415889 181.642493 
L 200.415889 181.118245 
L 200.527419 181.118245 
L 200.616739 178.497006 
L 200.915944 178.497006 
L 201.005525 176.924263 
L 201.105842 176.924263 
L 201.105842 175.875768 
L 201.288496 175.875768 
L 201.383508 173.254529 
L 201.442167 173.254529 
L 201.534152 171.157538 
L 201.672656 171.157538 
L 201.782806 170.109043 
L 201.880127 170.109043 
L 201.943518 169.060547 
L 202.065369 169.060547 
L 202.080892 168.012052 
L 202.921174 168.012052 
L 202.921174 167.487804 
L 204.460103 167.487804 
L 204.460103 166.963557 
L 204.970759 166.963557 
L 204.970759 166.439309 
L 205.543542 166.439309 
L 205.543542 165.915061 
L 205.682517 165.915061 
L 205.682517 165.390813 
L 206.992573 165.390813 
L 206.992573 163.81807 
L 207.53819 163.81807 
L 207.595086 162.245327 
L 208.715798 162.245327 
L 208.715798 161.721079 
L 209.099816 161.721079 
L 209.099816 161.196832 
L 210.580413 161.196832 
L 210.580413 160.672584 
L 210.916913 160.672584 
L 210.957359 158.575593 
L 211.34186 158.575593 
L 211.34186 157.527098 
L 211.468139 157.527098 
L 211.468139 157.00285 
L 211.734044 157.00285 
L 211.810297 155.430107 
L 211.870259 155.430107 
L 211.945911 154.381611 
L 212.025583 154.381611 
L 212.025583 153.333116 
L 212.206147 153.333116 
L 212.311482 150.711877 
L 212.320814 150.711877 
L 212.413082 148.614886 
L 212.487158 148.614886 
L 212.59079 145.4694 
L 212.607619 145.4694 
L 212.710909 142.848162 
L 212.741282 142.848162 
L 212.829818 138.129932 
L 212.859605 138.129932 
L 212.935161 134.460198 
L 212.9932 134.460198 
L 213.093462 130.790464 
L 213.11686 130.790464 
L 213.178727 125.547987 
L 213.249951 125.547987 
L 213.310608 121.354005 
L 213.377268 121.354005 
L 213.470595 116.635776 
L 213.556185 116.635776 
L 213.662217 112.441794 
L 213.71463 112.441794 
L 213.784028 109.296308 
L 213.84888 109.296308 
L 213.865588 106.675069 
L 213.987384 106.675069 
L 213.987384 105.102326 
L 214.09886 105.102326 
L 214.205787 100.908344 
L 214.21136 100.908344 
L 214.306167 98.811353 
L 214.517161 98.811353 
L 214.608259 97.23861 
L 214.649046 97.23861 
L 214.726949 94.093124 
L 214.77723 94.093124 
L 214.851537 92.520381 
L 214.973896 92.520381 
L 215.082484 89.899142 
L 215.113242 89.899142 
L 215.196311 86.753656 
L 215.237367 86.753656 
L 215.291412 82.559674 
L 215.369069 82.559674 
L 215.375904 79.938435 
L 215.489427 79.938435 
L 215.577136 78.365692 
L 215.649993 78.365692 
L 215.649993 76.792949 
L 215.796693 76.792949 
L 215.796693 76.268701 
L 216.985169 76.268701 
L 217.029267 75.220206 
L 217.228511 75.220206 
L 217.228511 74.695958 
L 217.502135 74.695958 
L 217.571011 73.123215 
L 217.703394 73.123215 
L 217.79382 71.550472 
L 217.886022 71.550472 
L 217.978851 70.501976 
L 218.02187 70.501976 
L 218.089255 69.453481 
L 218.189839 69.453481 
L 218.260423 67.35649 
L 218.344413 67.35649 
L 218.344413 66.832242 
L 219.647461 66.832242 
L 219.647461 66.307995 
L 222.278235 66.307995 
L 222.278235 65.783747 
L 222.83243 65.783747 
L 222.83243 65.259499 
L 223.237789 65.259499 
L 223.237789 64.735251 
L 223.548455 64.735251 
L 223.548455 64.211004 
L 223.739558 64.211004 
L 223.762149 63.162508 
L 224.037433 63.162508 
L 224.134871 61.065517 
L 224.16261 61.065517 
L 224.248082 57.920031 
L 224.284362 57.920031 
L 224.385232 54.774545 
L 224.431796 54.774545 
L 224.44044 51.629058 
L 225.394478 51.629058 
L 225.394478 51.104811 
L 225.822956 51.104811 
L 225.822956 50.580563 
L 225.940399 50.580563 
L 226.026426 47.435077 
L 226.078185 47.435077 
L 226.164222 42.716847 
L 226.237725 42.716847 
L 226.304024 39.571361 
L 226.592128 39.571361 
L 226.683055 36.950122 
L 226.708152 36.950122 
L 226.810018 33.280388 
L 226.853634 33.280388 
L 226.945017 29.086407 
L 226.980839 29.086407 
L 227.034101 27.513663 
L 333.168 27.513663 
L 333.168 27.513663 
" style="fill:none;stroke:#0000ff;stroke-linecap:square;stroke-width:1.5;"/>
   </g>
   <g id="line2d_47">
    <defs>
     <path d="M 0 -6 
L -1.347084 -1.854102 
L -5.706339 -1.854102 
L -2.179628 0.708204 
L -3.526712 4.854102 
L -0 2.291796 
L 3.526712 4.854102 
L 2.179628 0.708204 
L 5.706339 -1.854102 
L 1.347084 -1.854102 
z
" id="mb610a19cb8" style="stroke:#0000ff;stroke-linejoin:bevel;stroke-width:1.5;"/>
    </defs>
    <g>
     <use style="fill-opacity:0;stroke:#0000ff;stroke-linejoin:bevel;stroke-width:1.5;" x="115.256077" xlink:href="#mb610a19cb8" y="264.99788"/>
     <use style="fill-opacity:0;stroke:#0000ff;stroke-linejoin:bevel;stroke-width:1.5;" x="194.426967" xlink:href="#mb610a19cb8" y="214.670099"/>
     <use style="fill-opacity:0;stroke:#0000ff;stroke-linejoin:bevel;stroke-width:1.5;" x="224.44044" xlink:href="#mb610a19cb8" y="51.629058"/>
     <use style="fill-opacity:0;stroke:#0000ff;stroke-linejoin:bevel;stroke-width:1.5;" x="227.034101" xlink:href="#mb610a19cb8" y="27.513663"/>
     <use style="fill-opacity:0;stroke:#0000ff;stroke-linejoin:bevel;stroke-width:1.5;" x="227.034101" xlink:href="#mb610a19cb8" y="27.513663"/>
     <use style="fill-opacity:0;stroke:#0000ff;stroke-linejoin:bevel;stroke-width:1.5;" x="333.168" xlink:href="#mb610a19cb8" y="27.513663"/>
    </g>
   </g>
   <g id="line2d_48">
    <path style="fill:none;stroke:#0000ff;stroke-linecap:square;stroke-width:1.5;"/>
    <g/>
   </g>
   <g id="line2d_49">
    <defs>
     <path d="M 0 1.5 
C 0.397805 1.5 0.77937 1.341951 1.06066 1.06066 
C 1.341951 0.77937 1.5 0.397805 1.5 0 
C 1.5 -0.397805 1.341951 -0.77937 1.06066 -1.06066 
C 0.77937 -1.341951 0.397805 -1.5 0 -1.5 
C -0.397805 -1.5 -0.77937 -1.341951 -1.06066 -1.06066 
C -1.341951 -0.77937 -1.5 -0.397805 -1.5 0 
C -1.5 0.397805 -1.341951 0.77937 -1.06066 1.06066 
C -0.77937 1.341951 -0.397805 1.5 0 1.5 
z
" id="m5f11e7641b" style="stroke:#000000;"/>
    </defs>
    <g>
     <use style="stroke:#000000;" x="286.395328" xlink:href="#m5f11e7641b" y="27.513663"/>
     <use style="stroke:#000000;" x="286.395328" xlink:href="#m5f11e7641b" y="27.513663"/>
    </g>
   </g>
   <g id="line2d_50">
    <path d="M 16.541714 294.88 
L 16.541714 291.210266 
L 28.455965 291.210266 
L 28.455965 288.589027 
L 35.425356 288.589027 
L 35.425356 287.016284 
L 40.370217 287.016284 
L 40.370217 285.967789 
L 44.205749 285.967789 
L 44.205749 285.443541 
L 47.339607 285.443541 
L 47.339607 284.919293 
L 52.284468 284.919293 
L 52.284468 283.870798 
L 54.308997 283.870798 
L 54.308997 282.822302 
L 60.629683 282.822302 
L 60.629683 282.298055 
L 61.903497 282.298055 
L 61.903497 281.249559 
L 64.198719 281.249559 
L 64.198719 280.725312 
L 73.817748 280.725312 
L 73.817748 280.201064 
L 78.60845 280.201064 
L 78.60845 279.676816 
L 81.191596 279.676816 
L 81.191596 279.152568 
L 83.784035 279.152568 
L 83.784035 278.628321 
L 85.422286 278.628321 
L 85.422286 278.104073 
L 86.629001 278.104073 
L 86.629001 277.579825 
L 86.917893 277.579825 
L 86.917893 277.055578 
L 89.069276 277.055578 
L 89.069276 276.53133 
L 89.320209 276.53133 
L 89.320209 276.007082 
L 98.396965 276.007082 
L 98.396965 275.482834 
L 103.008056 275.482834 
L 103.008056 274.958587 
L 105.991465 274.958587 
L 105.991465 274.434339 
L 112.643127 274.434339 
L 112.643127 273.910091 
L 115.256077 273.910091 
L 115.256077 273.385844 
L 119.867168 273.385844 
L 119.867168 272.861596 
L 130.216736 272.861596 
L 130.216736 272.337348 
L 136.439531 272.337348 
L 136.439531 271.8131 
L 136.72628 271.8131 
L 136.72628 271.288853 
L 138.309869 271.288853 
L 138.309869 270.764605 
L 139.398474 270.764605 
L 139.398474 270.240357 
L 143.258331 270.240357 
L 143.258331 269.716109 
L 146.790867 269.716109 
L 146.790867 269.191862 
L 146.965905 269.191862 
L 146.965905 268.667614 
L 148.914803 268.667614 
L 148.914803 268.143366 
L 158.823464 268.143366 
L 158.823464 267.619119 
L 165.747658 267.619119 
L 165.747658 267.094871 
L 166.375479 267.094871 
L 166.375479 266.570623 
L 167.135382 266.570623 
L 167.135382 266.046375 
L 169.8618 266.046375 
L 169.8618 265.522128 
L 170.520121 265.522128 
L 170.540016 264.473632 
L 172.484825 264.473632 
L 172.484825 263.949385 
L 174.32067 263.949385 
L 174.32067 263.425137 
L 175.614737 263.425137 
L 175.614737 262.900889 
L 177.883832 262.900889 
L 177.883832 262.376641 
L 178.027346 262.376641 
L 178.028775 261.328146 
L 181.819663 261.328146 
L 181.819663 260.803898 
L 183.0364 260.803898 
L 183.0364 260.279651 
L 183.753786 260.279651 
L 183.787552 259.231155 
L 183.912828 259.231155 
L 183.912828 258.706907 
L 185.296613 258.706907 
L 185.296613 258.18266 
L 186.104993 258.18266 
L 186.104993 257.658412 
L 186.287148 257.658412 
L 186.287148 257.134164 
L 186.870223 257.134164 
L 186.870223 256.609917 
L 187.232067 256.609917 
L 187.232067 256.085669 
L 188.175317 256.085669 
L 188.175317 255.561421 
L 189.453826 255.561421 
L 189.453826 255.037173 
L 192.715127 255.037173 
L 192.715127 254.512926 
L 192.937464 254.512926 
L 192.937464 253.988678 
L 193.363156 253.988678 
L 193.469406 252.940182 
L 193.981425 252.940182 
L 194.06764 251.891687 
L 194.283248 251.891687 
L 194.283248 251.367439 
L 194.565672 251.367439 
L 194.565672 250.843192 
L 194.703808 250.843192 
L 194.703808 250.318944 
L 194.872518 250.318944 
L 194.872518 249.794696 
L 195.7615 249.794696 
L 195.865598 248.746201 
L 198.2376 248.746201 
L 198.321188 247.697705 
L 198.375959 247.697705 
L 198.375959 247.173458 
L 200.138992 247.173458 
L 200.138992 246.64921 
L 200.698719 246.64921 
L 200.698719 246.124962 
L 201.42056 246.124962 
L 201.42056 245.600714 
L 204.182127 245.600714 
L 204.182127 245.076467 
L 204.61356 245.076467 
L 204.61356 244.552219 
L 206.058446 244.552219 
L 206.058446 244.027971 
L 208.278308 244.027971 
L 208.278308 243.503724 
L 213.567035 243.503724 
L 213.567035 242.979476 
L 213.703335 242.979476 
L 213.703335 242.455228 
L 213.895586 242.455228 
L 213.895586 241.93098 
L 214.133527 241.93098 
L 214.133527 241.406733 
L 214.318284 241.406733 
L 214.318284 240.882485 
L 214.446373 240.882485 
L 214.446373 240.358237 
L 214.638349 240.358237 
L 214.638349 239.83399 
L 215.707866 239.83399 
L 215.707866 239.309742 
L 216.014421 239.309742 
L 216.014421 238.785494 
L 216.204946 238.785494 
L 216.314835 237.736999 
L 216.354537 237.736999 
L 216.354537 237.212751 
L 216.466226 237.212751 
L 216.526898 235.640008 
L 216.638081 235.640008 
L 216.638081 235.11576 
L 216.83232 235.11576 
L 216.83232 234.591512 
L 216.951649 234.591512 
L 216.951649 234.067265 
L 217.11286 234.067265 
L 217.11286 233.543017 
L 217.239902 233.543017 
L 217.323207 232.494521 
L 217.498684 232.494521 
L 217.498684 231.970274 
L 217.695292 231.970274 
L 217.773027 230.921778 
L 217.891364 230.921778 
L 217.891364 230.397531 
L 218.073129 230.397531 
L 218.129365 229.349035 
L 218.342085 229.349035 
L 218.42854 228.30054 
L 218.504256 228.30054 
L 218.504256 227.776292 
L 218.825677 227.776292 
L 218.839915 226.727797 
L 218.970437 226.727797 
L 218.970437 226.203549 
L 219.211762 226.203549 
L 219.211762 225.679301 
L 220.51677 225.679301 
L 220.51677 225.155053 
L 221.105016 225.155053 
L 221.105016 224.630806 
L 221.272093 224.630806 
L 221.272093 224.106558 
L 221.922064 224.106558 
L 221.922064 223.58231 
L 223.078974 223.58231 
L 223.078974 223.058063 
L 223.199848 223.058063 
L 223.244894 222.009567 
L 223.436736 222.009567 
L 223.531354 219.388328 
L 223.608832 219.388328 
L 223.681045 218.339833 
L 223.738058 218.339833 
L 223.829842 215.718594 
L 223.88805 215.718594 
L 223.974205 211.524613 
L 224.128027 211.524613 
L 224.171391 209.95187 
L 225.225226 209.95187 
L 225.333506 208.903374 
L 225.454692 208.903374 
L 225.541737 207.330631 
L 225.658428 207.330631 
L 225.752103 204.709392 
L 225.820386 204.709392 
L 225.929308 201.563906 
L 225.981886 201.563906 
L 226.008028 199.466915 
L 226.094241 199.466915 
L 226.200753 197.369924 
L 226.250089 197.369924 
L 226.342409 193.175943 
L 226.385854 193.175943 
L 226.493221 192.127447 
L 227.126339 192.127447 
L 227.126339 191.603199 
L 227.280634 191.603199 
L 227.343929 190.554704 
L 227.400769 190.554704 
L 227.510113 187.933465 
L 227.514289 187.933465 
L 227.614055 184.787979 
L 227.661414 184.787979 
L 227.740055 182.16674 
L 227.818575 182.16674 
L 227.900115 180.06975 
L 227.946771 180.06975 
L 227.946771 178.497006 
L 229.130633 178.497006 
L 229.130633 177.972759 
L 229.408548 177.972759 
L 229.408548 177.448511 
L 234.339306 177.448511 
L 234.339306 176.924263 
L 234.544521 176.924263 
L 234.630937 175.875768 
L 234.771074 175.875768 
L 234.771074 175.35152 
L 237.916581 175.35152 
L 237.987111 173.254529 
L 238.03159 173.254529 
L 238.13705 170.109043 
L 238.175659 170.109043 
L 238.271955 164.866566 
L 238.311034 164.866566 
L 238.34917 162.769575 
L 247.023809 162.769575 
L 247.113292 160.672584 
L 251.473607 160.672584 
L 251.570717 152.808868 
L 251.589211 152.808868 
L 251.615116 148.614886 
L 252.787937 148.614886 
L 252.890362 138.65418 
L 255.720009 138.65418 
L 255.720009 138.129932 
L 256.624392 138.129932 
L 256.624392 137.605684 
L 256.811121 137.605684 
L 256.913489 134.984446 
L 256.92272 134.984446 
L 257.011281 122.926748 
L 258.112912 122.926748 
L 258.218912 112.966042 
L 258.227078 112.966042 
L 258.23801 109.820555 
L 258.453652 109.820555 
L 258.453652 109.296308 
L 259.330357 109.296308 
L 259.43387 97.762858 
L 259.443221 97.762858 
L 259.468728 95.141619 
L 263.550803 95.141619 
L 263.655967 84.656665 
L 263.663948 84.656665 
L 263.668682 83.083922 
L 266.230897 83.083922 
L 266.336297 76.792949 
L 267.561681 76.792949 
L 267.610613 75.744454 
L 271.045502 75.744454 
L 271.08436 65.783747 
L 272.542626 65.783747 
L 272.569799 56.347288 
L 276.903631 56.347288 
L 276.92805 48.483572 
L 278.43058 48.483572 
L 278.450175 46.910829 
L 285.947567 46.910829 
L 285.962355 38.522865 
L 286.383039 38.522865 
L 286.395328 27.513663 
L 333.168 27.513663 
L 333.168 27.513663 
" style="fill:none;stroke:#000000;stroke-linecap:square;stroke-width:1.5;"/>
   </g>
   <g id="line2d_51">
    <defs>
     <path d="M 0 6 
C 1.591219 6 3.117479 5.367802 4.242641 4.242641 
C 5.367802 3.117479 6 1.591219 6 0 
C 6 -1.591219 5.367802 -3.117479 4.242641 -4.242641 
C 3.117479 -5.367802 1.591219 -6 0 -6 
C -1.591219 -6 -3.117479 -5.367802 -4.242641 -4.242641 
C -5.367802 -3.117479 -6 -1.591219 -6 0 
C -6 1.591219 -5.367802 3.117479 -4.242641 4.242641 
C -3.117479 5.367802 -1.591219 6 0 6 
z
" id="maa496c4370" style="stroke:#000000;stroke-width:1.5;"/>
    </defs>
    <g>
     <use style="fill-opacity:0;stroke:#000000;stroke-width:1.5;" x="148.914803" xlink:href="#maa496c4370" y="268.667614"/>
     <use style="fill-opacity:0;stroke:#000000;stroke-width:1.5;" x="234.771074" xlink:href="#maa496c4370" y="175.35152"/>
     <use style="fill-opacity:0;stroke:#000000;stroke-width:1.5;" x="263.620613" xlink:href="#maa496c4370" y="90.42339"/>
     <use style="fill-opacity:0;stroke:#000000;stroke-width:1.5;" x="286.395328" xlink:href="#maa496c4370" y="27.513663"/>
     <use style="fill-opacity:0;stroke:#000000;stroke-width:1.5;" x="333.168" xlink:href="#maa496c4370" y="27.513663"/>
    </g>
   </g>
   <g id="line2d_52">
    <path style="fill:none;stroke:#000000;stroke-linecap:square;stroke-width:1.5;"/>
    <g/>
   </g>
   <g id="line2d_53">
    <defs>
     <path d="M 0 1.5 
C 0.397805 1.5 0.77937 1.341951 1.06066 1.06066 
C 1.341951 0.77937 1.5 0.397805 1.5 0 
C 1.5 -0.397805 1.341951 -0.77937 1.06066 -1.06066 
C 0.77937 -1.341951 0.397805 -1.5 0 -1.5 
C -0.397805 -1.5 -0.77937 -1.341951 -1.06066 -1.06066 
C -1.341951 -0.77937 -1.5 -0.397805 -1.5 0 
C -1.5 0.397805 -1.341951 0.77937 -1.06066 1.06066 
C -0.77937 1.341951 -0.397805 1.5 0 1.5 
z
" id="m7b9e6fd026" style="stroke:#ff0000;"/>
    </defs>
    <g>
     <use style="fill:#ff0000;stroke:#ff0000;" x="355.744692" xlink:href="#m7b9e6fd026" y="211.000365"/>
     <use style="fill:#ff0000;stroke:#ff0000;" x="355.744692" xlink:href="#m7b9e6fd026" y="211.000365"/>
    </g>
   </g>
   <g id="line2d_54">
    <path d="M 4.627463 294.88 
L 4.627463 289.637523 
L 16.541714 289.637523 
L 16.541714 288.589027 
L 23.511104 288.589027 
L 23.511104 286.492036 
L 32.291498 286.492036 
L 32.291498 285.967789 
L 38.074995 285.967789 
L 38.074995 285.443541 
L 42.394746 285.443541 
L 42.394746 284.919293 
L 57.758252 284.919293 
L 57.758252 284.395046 
L 77.155024 284.395046 
L 77.155024 283.870798 
L 78.137499 283.870798 
L 78.137499 283.34655 
L 78.374588 283.34655 
L 78.374588 282.822302 
L 82.162963 282.822302 
L 82.162963 282.298055 
L 83.611283 282.298055 
L 83.611283 281.773807 
L 84.458185 281.773807 
L 84.458185 281.249559 
L 88.556144 281.249559 
L 88.556144 280.725312 
L 90.288839 280.725312 
L 90.288839 280.201064 
L 94.171399 280.201064 
L 94.171399 279.676816 
L 94.816624 279.676816 
L 94.816624 279.152568 
L 105.801534 279.152568 
L 105.801534 278.628321 
L 110.052179 278.628321 
L 110.052179 278.104073 
L 115.798351 278.104073 
L 115.798351 277.579825 
L 140.980078 277.579825 
L 140.980078 277.055578 
L 150.039431 277.055578 
L 150.039431 276.53133 
L 160.412006 276.53133 
L 160.412006 276.007082 
L 162.882065 276.007082 
L 162.882065 275.482834 
L 163.872299 275.482834 
L 163.872299 274.958587 
L 168.353026 274.958587 
L 168.353026 274.434339 
L 168.869589 274.434339 
L 168.869589 273.910091 
L 172.648785 273.910091 
L 172.648785 273.385844 
L 173.33736 273.385844 
L 173.33736 272.861596 
L 180.153364 272.861596 
L 180.153364 272.337348 
L 183.611342 272.337348 
L 183.611342 271.8131 
L 184.483215 271.8131 
L 184.483215 271.288853 
L 184.949987 271.288853 
L 184.949987 270.764605 
L 185.067098 270.764605 
L 185.106905 269.716109 
L 185.186244 269.716109 
L 185.186244 269.191862 
L 187.149044 269.191862 
L 187.149044 268.667614 
L 190.838187 268.667614 
L 190.838187 268.143366 
L 191.954213 268.143366 
L 191.954213 267.619119 
L 192.146679 267.619119 
L 192.146679 267.094871 
L 198.098341 267.094871 
L 198.170879 266.046375 
L 198.91131 266.046375 
L 198.91131 265.522128 
L 199.651242 265.522128 
L 199.651242 264.99788 
L 200.542273 264.99788 
L 200.542273 264.473632 
L 201.190357 264.473632 
L 201.190357 263.949385 
L 202.124389 263.949385 
L 202.124389 263.425137 
L 202.588194 263.425137 
L 202.588194 262.900889 
L 205.895253 262.900889 
L 205.895253 262.376641 
L 206.193475 262.376641 
L 206.193475 261.852394 
L 208.877918 261.852394 
L 208.877918 261.328146 
L 209.455478 261.328146 
L 209.455478 260.803898 
L 209.874101 260.803898 
L 209.874101 260.279651 
L 214.175977 260.279651 
L 214.175977 259.755403 
L 214.68567 259.755403 
L 214.68567 259.231155 
L 215.88996 259.231155 
L 215.88996 258.706907 
L 216.457366 258.706907 
L 216.457366 258.18266 
L 217.187339 258.18266 
L 217.187339 257.658412 
L 217.755398 257.658412 
L 217.755398 257.134164 
L 221.784206 257.134164 
L 221.784206 256.609917 
L 221.942508 256.609917 
L 221.942508 256.085669 
L 222.154791 256.085669 
L 222.245643 255.037173 
L 222.323097 255.037173 
L 222.323097 254.512926 
L 222.506919 254.512926 
L 222.513795 253.46443 
L 222.664643 253.46443 
L 222.725759 252.415935 
L 222.912171 252.415935 
L 222.912171 251.891687 
L 223.031302 251.891687 
L 223.113085 250.318944 
L 223.297161 250.318944 
L 223.297161 249.794696 
L 223.44325 249.794696 
L 223.48213 248.746201 
L 228.037602 248.746201 
L 228.037602 248.221953 
L 228.337397 248.221953 
L 228.337397 247.697705 
L 228.46092 247.697705 
L 228.46092 247.173458 
L 229.916511 247.173458 
L 229.916511 246.64921 
L 230.257363 246.64921 
L 230.257363 246.124962 
L 230.630853 246.124962 
L 230.630853 245.600714 
L 234.071894 245.600714 
L 234.071894 245.076467 
L 234.202311 245.076467 
L 234.281985 244.027971 
L 234.39041 244.027971 
L 234.39041 243.503724 
L 234.541506 243.503724 
L 234.541506 242.979476 
L 234.754271 242.979476 
L 234.754271 242.455228 
L 237.103339 242.455228 
L 237.103339 241.93098 
L 257.284849 241.93098 
L 257.284849 241.406733 
L 265.019253 241.406733 
L 265.083398 240.358237 
L 284.111415 240.358237 
L 284.111415 239.83399 
L 285.411799 239.83399 
L 285.411799 239.309742 
L 290.506353 239.309742 
L 290.506353 238.785494 
L 293.796996 238.785494 
L 293.877621 234.067265 
L 293.971413 234.067265 
L 294.007697 232.494521 
L 294.126682 232.494521 
L 294.134723 230.397531 
L 296.573547 230.397531 
L 296.586027 228.824787 
L 305.640198 228.824787 
L 305.697251 226.203549 
L 305.773305 226.203549 
L 305.77863 225.155053 
L 307.059529 225.155053 
L 307.059529 224.630806 
L 312.602454 224.630806 
L 312.602454 224.106558 
L 313.525879 224.106558 
L 313.526578 222.533815 
L 317.485782 222.533815 
L 317.486468 221.485319 
L 318.213589 221.485319 
L 318.214756 220.436824 
L 321.308371 220.436824 
L 321.365512 219.388328 
L 324.435009 219.388328 
L 324.435009 218.864081 
L 329.368032 218.864081 
L 329.368032 218.339833 
L 329.73586 218.339833 
L 329.73586 217.815585 
L 331.716032 217.815585 
L 331.716032 217.291338 
L 333.168 217.291338 
L 333.168 217.291338 
" style="fill:none;stroke:#ff0000;stroke-linecap:square;stroke-width:1.5;"/>
   </g>
   <g id="line2d_55">
    <defs>
     <path d="M -6 6 
L 6 6 
L 6 -6 
L -6 -6 
z
" id="m65e2815c0b" style="stroke:#ff0000;stroke-linejoin:miter;stroke-width:1.5;"/>
    </defs>
    <g>
     <use style="fill-opacity:0;stroke:#ff0000;stroke-linejoin:miter;stroke-width:1.5;" x="110.052179" xlink:href="#m65e2815c0b" y="278.104073"/>
     <use style="fill-opacity:0;stroke:#ff0000;stroke-linejoin:miter;stroke-width:1.5;" x="173.33736" xlink:href="#m65e2815c0b" y="272.861596"/>
     <use style="fill-opacity:0;stroke:#ff0000;stroke-linejoin:miter;stroke-width:1.5;" x="257.284849" xlink:href="#m65e2815c0b" y="241.406733"/>
     <use style="fill-opacity:0;stroke:#ff0000;stroke-linejoin:miter;stroke-width:1.5;" x="313.526578" xlink:href="#m65e2815c0b" y="223.58231"/>
     <use style="fill-opacity:0;stroke:#ff0000;stroke-linejoin:miter;stroke-width:1.5;" x="331.716032" xlink:href="#m65e2815c0b" y="217.291338"/>
     <use style="fill-opacity:0;stroke:#ff0000;stroke-linejoin:miter;stroke-width:1.5;" x="333.168" xlink:href="#m65e2815c0b" y="217.291338"/>
    </g>
   </g>
   <g id="line2d_56">
    <path style="fill:none;stroke:#ff0000;stroke-linecap:square;stroke-width:1.5;"/>
    <g/>
   </g>
   <g id="line2d_57">
    <path clip-path="url(#p456b054a86)" d="M 293.589714 238.785494 
" style="fill:none;stroke:#ff0000;stroke-linecap:square;stroke-width:1.5;"/>
    <defs>
     <path d="M -12 12 
L 12 -12 
M -12 -12 
L 12 12 
" id="m12dfefe76e" style="stroke:#ff0000;"/>
    </defs>
    <g clip-path="url(#p456b054a86)">
     <use style="fill:#ff0000;stroke:#ff0000;" x="293.589714" xlink:href="#m12dfefe76e" y="238.785494"/>
    </g>
   </g>
   <g id="line2d_58">
    <path d="M 333.168 217.291338 
L 363.64328 289.532673 
" style="fill:none;stroke:#ff0000;stroke-linecap:square;stroke-width:1.5;"/>
    <g>
     <use style="fill-opacity:0;stroke:#ff0000;stroke-linejoin:miter;stroke-width:1.5;" x="333.168" xlink:href="#m65e2815c0b" y="217.291338"/>
     <use style="fill-opacity:0;stroke:#ff0000;stroke-linejoin:miter;stroke-width:1.5;" x="363.64328" xlink:href="#m65e2815c0b" y="289.532673"/>
    </g>
   </g>
   <g id="line2d_59">
    <path d="M 333.168 27.513663 
L 363.64328 225.364752 
" style="fill:none;stroke:#000000;stroke-linecap:square;stroke-width:1.5;"/>
    <g>
     <use style="fill-opacity:0;stroke:#000000;stroke-width:1.5;" x="333.168" xlink:href="#maa496c4370" y="27.513663"/>
     <use style="fill-opacity:0;stroke:#000000;stroke-width:1.5;" x="363.64328" xlink:href="#maa496c4370" y="225.364752"/>
    </g>
   </g>
   <g id="line2d_60">
    <path d="M 333.168 27.513663 
L 363.64328 161.196832 
" style="fill:none;stroke:#0000ff;stroke-linecap:square;stroke-width:1.5;"/>
    <g>
     <use style="fill-opacity:0;stroke:#0000ff;stroke-linejoin:bevel;stroke-width:1.5;" x="333.168" xlink:href="#mb610a19cb8" y="27.513663"/>
     <use style="fill-opacity:0;stroke:#0000ff;stroke-linejoin:bevel;stroke-width:1.5;" x="363.64328" xlink:href="#mb610a19cb8" y="161.196832"/>
    </g>
   </g>
   <g id="line2d_61">
    <path d="M 333.168 27.513663 
L 363.64328 97.028911 
" style="fill:none;stroke:#008000;stroke-linecap:square;stroke-width:1.5;"/>
    <g>
     <use style="fill-opacity:0;stroke:#008000;stroke-linejoin:miter;stroke-width:1.5;" x="333.168" xlink:href="#m38dd06dee5" y="27.513663"/>
     <use style="fill-opacity:0;stroke:#008000;stroke-linejoin:miter;stroke-width:1.5;" x="363.64328" xlink:href="#m38dd06dee5" y="97.028911"/>
    </g>
   </g>
   <g id="line2d_62">
    <path d="M 333.168 27.513663 
L 363.64328 32.86099 
" style="fill:none;stroke:#00bfbf;stroke-linecap:square;stroke-width:1.5;"/>
    <g>
     <use style="fill-opacity:0;stroke:#00bfbf;stroke-width:1.5;" x="333.168" xlink:href="#m19995668b6" y="27.513663"/>
     <use style="fill-opacity:0;stroke:#00bfbf;stroke-width:1.5;" x="363.64328" xlink:href="#m19995668b6" y="32.86099"/>
    </g>
   </g>
   <g id="line2d_63">
    <path d="M 333.168 294.88 
L 333.168 27.513663 
" style="fill:none;stroke:#000000;stroke-linecap:square;stroke-width:1.5;"/>
   </g>
   <g id="patch_3">
    <path d="M 56.12 294.88 
L 56.12 24.84 
" style="fill:none;stroke:#000000;stroke-linecap:square;stroke-linejoin:miter;stroke-width:0.8;"/>
   </g>
   <g id="patch_4">
    <path d="M 333.168 294.88 
L 333.168 24.84 
" style="fill:none;stroke:#000000;stroke-linecap:square;stroke-linejoin:miter;stroke-width:0.8;"/>
   </g>
   <g id="patch_5">
    <path d="M 56.12 294.88 
L 333.168 294.88 
" style="fill:none;stroke:#000000;stroke-linecap:square;stroke-linejoin:miter;stroke-width:0.8;"/>
   </g>
   <g id="patch_6">
    <path d="M 56.12 24.84 
L 333.168 24.84 
" style="fill:none;stroke:#000000;stroke-linecap:square;stroke-linejoin:miter;stroke-width:0.8;"/>
   </g>
   <g id="text_13">
    <!-- 20-D -->
    <defs>
     <path d="M 19.671875 64.796875 
L 19.671875 8.109375 
L 31.59375 8.109375 
Q 46.6875 8.109375 53.6875 14.9375 
Q 60.6875 21.78125 60.6875 36.53125 
Q 60.6875 51.171875 53.6875 57.984375 
Q 46.6875 64.796875 31.59375 64.796875 
z
M 9.8125 72.90625 
L 30.078125 72.90625 
Q 51.265625 72.90625 61.171875 64.09375 
Q 71.09375 55.28125 71.09375 36.53125 
Q 71.09375 17.671875 61.125 8.828125 
Q 51.171875 0 30.078125 0 
L 9.8125 0 
z
" id="DejaVuSans-44"/>
    </defs>
    <g transform="translate(369.18424 294.223611)scale(0.17 -0.17)">
     <use xlink:href="#DejaVuSans-32"/>
     <use x="63.623047" xlink:href="#DejaVuSans-30"/>
     <use x="127.246094" xlink:href="#DejaVuSans-2d"/>
     <use x="163.330078" xlink:href="#DejaVuSans-44"/>
    </g>
   </g>
   <g id="text_14">
    <!-- 10-D -->
    <g transform="translate(369.18424 230.05569)scale(0.17 -0.17)">
     <use xlink:href="#DejaVuSans-31"/>
     <use x="63.623047" xlink:href="#DejaVuSans-30"/>
     <use x="127.246094" xlink:href="#DejaVuSans-2d"/>
     <use x="163.330078" xlink:href="#DejaVuSans-44"/>
    </g>
   </g>
   <g id="text_15">
    <!-- 5-D -->
    <defs>
     <path d="M 10.796875 72.90625 
L 49.515625 72.90625 
L 49.515625 64.59375 
L 19.828125 64.59375 
L 19.828125 46.734375 
Q 21.96875 47.46875 24.109375 47.828125 
Q 26.265625 48.1875 28.421875 48.1875 
Q 40.625 48.1875 47.75 41.5 
Q 54.890625 34.8125 54.890625 23.390625 
Q 54.890625 11.625 47.5625 5.09375 
Q 40.234375 -1.421875 26.90625 -1.421875 
Q 22.3125 -1.421875 17.546875 -0.640625 
Q 12.796875 0.140625 7.71875 1.703125 
L 7.71875 11.625 
Q 12.109375 9.234375 16.796875 8.0625 
Q 21.484375 6.890625 26.703125 6.890625 
Q 35.15625 6.890625 40.078125 11.328125 
Q 45.015625 15.765625 45.015625 23.390625 
Q 45.015625 31 40.078125 35.4375 
Q 35.15625 39.890625 26.703125 39.890625 
Q 22.75 39.890625 18.8125 39.015625 
Q 14.890625 38.140625 10.796875 36.28125 
z
" id="DejaVuSans-35"/>
    </defs>
    <g transform="translate(369.18424 165.887769)scale(0.17 -0.17)">
     <use xlink:href="#DejaVuSans-35"/>
     <use x="63.623047" xlink:href="#DejaVuSans-2d"/>
     <use x="99.707031" xlink:href="#DejaVuSans-44"/>
    </g>
   </g>
   <g id="text_16">
    <!-- 3-D -->
    <defs>
     <path d="M 40.578125 39.3125 
Q 47.65625 37.796875 51.625 33 
Q 55.609375 28.21875 55.609375 21.1875 
Q 55.609375 10.40625 48.1875 4.484375 
Q 40.765625 -1.421875 27.09375 -1.421875 
Q 22.515625 -1.421875 17.65625 -0.515625 
Q 12.796875 0.390625 7.625 2.203125 
L 7.625 11.71875 
Q 11.71875 9.328125 16.59375 8.109375 
Q 21.484375 6.890625 26.8125 6.890625 
Q 36.078125 6.890625 40.9375 10.546875 
Q 45.796875 14.203125 45.796875 21.1875 
Q 45.796875 27.640625 41.28125 31.265625 
Q 36.765625 34.90625 28.71875 34.90625 
L 20.21875 34.90625 
L 20.21875 43.015625 
L 29.109375 43.015625 
Q 36.375 43.015625 40.234375 45.921875 
Q 44.09375 48.828125 44.09375 54.296875 
Q 44.09375 59.90625 40.109375 62.90625 
Q 36.140625 65.921875 28.71875 65.921875 
Q 24.65625 65.921875 20.015625 65.03125 
Q 15.375 64.15625 9.8125 62.3125 
L 9.8125 71.09375 
Q 15.4375 72.65625 20.34375 73.4375 
Q 25.25 74.21875 29.59375 74.21875 
Q 40.828125 74.21875 47.359375 69.109375 
Q 53.90625 64.015625 53.90625 55.328125 
Q 53.90625 49.265625 50.4375 45.09375 
Q 46.96875 40.921875 40.578125 39.3125 
z
" id="DejaVuSans-33"/>
    </defs>
    <g transform="translate(369.18424 101.719848)scale(0.17 -0.17)">
     <use xlink:href="#DejaVuSans-33"/>
     <use x="63.623047" xlink:href="#DejaVuSans-2d"/>
     <use x="99.707031" xlink:href="#DejaVuSans-44"/>
    </g>
   </g>
   <g id="text_17">
    <!-- 2-D -->
    <g transform="translate(369.18424 37.551928)scale(0.17 -0.17)">
     <use xlink:href="#DejaVuSans-32"/>
     <use x="63.623047" xlink:href="#DejaVuSans-2d"/>
     <use x="99.707031" xlink:href="#DejaVuSans-44"/>
    </g>
   </g>
   <g id="text_18">
    <!-- bbob f16 -->
    <defs>
     <path d="M 48.6875 27.296875 
Q 48.6875 37.203125 44.609375 42.84375 
Q 40.53125 48.484375 33.40625 48.484375 
Q 26.265625 48.484375 22.1875 42.84375 
Q 18.109375 37.203125 18.109375 27.296875 
Q 18.109375 17.390625 22.1875 11.75 
Q 26.265625 6.109375 33.40625 6.109375 
Q 40.53125 6.109375 44.609375 11.75 
Q 48.6875 17.390625 48.6875 27.296875 
z
M 18.109375 46.390625 
Q 20.953125 51.265625 25.265625 53.625 
Q 29.59375 56 35.59375 56 
Q 45.5625 56 51.78125 48.09375 
Q 58.015625 40.1875 58.015625 27.296875 
Q 58.015625 14.40625 51.78125 6.484375 
Q 45.5625 -1.421875 35.59375 -1.421875 
Q 29.59375 -1.421875 25.265625 0.953125 
Q 20.953125 3.328125 18.109375 8.203125 
L 18.109375 0 
L 9.078125 0 
L 9.078125 75.984375 
L 18.109375 75.984375 
z
" id="DejaVuSans-62"/>
    </defs>
    <g transform="translate(58.89048 35.290806)scale(0.102 -0.102)">
     <use xlink:href="#DejaVuSans-62"/>
     <use x="63.476562" xlink:href="#DejaVuSans-62"/>
     <use x="126.953125" xlink:href="#DejaVuSans-6f"/>
     <use x="188.134766" xlink:href="#DejaVuSans-62"/>
     <use x="251.611328" xlink:href="#DejaVuSans-20"/>
     <use x="283.398438" xlink:href="#DejaVuSans-66"/>
     <use x="318.603516" xlink:href="#DejaVuSans-31"/>
     <use x="382.226562" xlink:href="#DejaVuSans-36"/>
    </g>
    <!-- 51 targets: 100..1e-08 -->
    <defs>
     <path d="M 11.71875 12.40625 
L 22.015625 12.40625 
L 22.015625 0 
L 11.71875 0 
z
M 11.71875 51.703125 
L 22.015625 51.703125 
L 22.015625 39.3125 
L 11.71875 39.3125 
z
" id="DejaVuSans-3a"/>
    </defs>
    <g transform="translate(58.89048 46.712575)scale(0.102 -0.102)">
     <use xlink:href="#DejaVuSans-35"/>
     <use x="63.623047" xlink:href="#DejaVuSans-31"/>
     <use x="127.246094" xlink:href="#DejaVuSans-20"/>
     <use x="159.033203" xlink:href="#DejaVuSans-74"/>
     <use x="198.242188" xlink:href="#DejaVuSans-61"/>
     <use x="259.521484" xlink:href="#DejaVuSans-72"/>
     <use x="300.619141" xlink:href="#DejaVuSans-67"/>
     <use x="364.095703" xlink:href="#DejaVuSans-65"/>
     <use x="425.619141" xlink:href="#DejaVuSans-74"/>
     <use x="464.828125" xlink:href="#DejaVuSans-73"/>
     <use x="516.927734" xlink:href="#DejaVuSans-3a"/>
     <use x="550.619141" xlink:href="#DejaVuSans-20"/>
     <use x="582.40625" xlink:href="#DejaVuSans-31"/>
     <use x="646.029297" xlink:href="#DejaVuSans-30"/>
     <use x="709.652344" xlink:href="#DejaVuSans-30"/>
     <use x="773.275391" xlink:href="#DejaVuSans-2e"/>
     <use x="805.0625" xlink:href="#DejaVuSans-2e"/>
     <use x="836.849609" xlink:href="#DejaVuSans-31"/>
     <use x="900.472656" xlink:href="#DejaVuSans-65"/>
     <use x="961.996094" xlink:href="#DejaVuSans-2d"/>
     <use x="998.080078" xlink:href="#DejaVuSans-30"/>
     <use x="1061.703125" xlink:href="#DejaVuSans-38"/>
    </g>
    <!-- 15 instances -->
    <g transform="translate(58.89048 58.134344)scale(0.102 -0.102)">
     <use xlink:href="#DejaVuSans-31"/>
     <use x="63.623047" xlink:href="#DejaVuSans-35"/>
     <use x="127.246094" xlink:href="#DejaVuSans-20"/>
     <use x="159.033203" xlink:href="#DejaVuSans-69"/>
     <use x="186.816406" xlink:href="#DejaVuSans-6e"/>
     <use x="250.195312" xlink:href="#DejaVuSans-73"/>
     <use x="302.294922" xlink:href="#DejaVuSans-74"/>
     <use x="341.503906" xlink:href="#DejaVuSans-61"/>
     <use x="402.783203" xlink:href="#DejaVuSans-6e"/>
     <use x="466.162109" xlink:href="#DejaVuSans-63"/>
     <use x="521.142578" xlink:href="#DejaVuSans-65"/>
     <use x="582.666016" xlink:href="#DejaVuSans-73"/>
    </g>
   </g>
   <g id="text_19">
    <!-- v2.4 -->
    <g style="fill:#808080;" transform="translate(183.733063 290.099912)scale(0.1 -0.1)">
     <use xlink:href="#DejaVuSans-76"/>
     <use x="59.179688" xlink:href="#DejaVuSans-32"/>
     <use x="122.802734" xlink:href="#DejaVuSans-2e"/>
     <use x="154.589844" xlink:href="#DejaVuSans-34"/>
    </g>
   </g>
   <g id="text_20">
    <!-- 16 Weierstrass -->
    <defs>
     <path d="M 3.328125 72.90625 
L 13.28125 72.90625 
L 28.609375 11.28125 
L 43.890625 72.90625 
L 54.984375 72.90625 
L 70.3125 11.28125 
L 85.59375 72.90625 
L 95.609375 72.90625 
L 77.296875 0 
L 64.890625 0 
L 49.515625 63.28125 
L 33.984375 0 
L 21.578125 0 
z
" id="DejaVuSans-57"/>
    </defs>
    <g transform="translate(119.878375 18.84)scale(0.2 -0.2)">
     <use xlink:href="#DejaVuSans-31"/>
     <use x="63.623047" xlink:href="#DejaVuSans-36"/>
     <use x="127.246094" xlink:href="#DejaVuSans-20"/>
     <use x="159.033203" xlink:href="#DejaVuSans-57"/>
     <use x="257.832031" xlink:href="#DejaVuSans-65"/>
     <use x="319.355469" xlink:href="#DejaVuSans-69"/>
     <use x="347.138672" xlink:href="#DejaVuSans-65"/>
     <use x="408.662109" xlink:href="#DejaVuSans-72"/>
     <use x="449.775391" xlink:href="#DejaVuSans-73"/>
     <use x="501.875" xlink:href="#DejaVuSans-74"/>
     <use x="541.083984" xlink:href="#DejaVuSans-72"/>
     <use x="582.197266" xlink:href="#DejaVuSans-61"/>
     <use x="643.476562" xlink:href="#DejaVuSans-73"/>
     <use x="695.576172" xlink:href="#DejaVuSans-73"/>
    </g>
   </g>
  </g>
 </g>
 <defs>
  <clipPath id="p456b054a86">
   <rect height="270.04" width="277.048" x="56.12" y="24.84"/>
  </clipPath>
 </defs>
</svg>
