<?xml version="1.0" encoding="utf-8" standalone="no"?>
<!DOCTYPE svg PUBLIC "-//W3C//DTD SVG 1.1//EN"
  "http://www.w3.org/Graphics/SVG/1.1/DTD/svg11.dtd">
<!-- Created with matplotlib (http://matplotlib.org/) -->
<svg height="345.6pt" version="1.1" viewBox="0 0 460.8 345.6" width="460.8pt" xmlns="http://www.w3.org/2000/svg" xmlns:xlink="http://www.w3.org/1999/xlink">
 <defs>
  <style type="text/css">
*{stroke-linecap:butt;stroke-linejoin:round;}
  </style>
 </defs>
 <g id="figure_1">
  <g id="patch_1">
   <path d="M 0 345.6 
L 460.8 345.6 
L 460.8 0 
L 0 0 
z
" style="fill:#ffffff;"/>
  </g>
  <g id="axes_1">
   <g id="patch_2">
    <path d="M 56.12 294.88 
L 333.168 294.88 
L 333.168 6.845228 
L 56.12 6.845228 
z
" style="fill:#ffffff;"/>
   </g>
   <g id="matplotlib.axis_1">
    <g id="xtick_1">
     <g id="line2d_1">
      <path clip-path="url(#p8d76513020)" d="M 56.12 294.88 
L 56.12 6.845228 
" style="fill:none;stroke:#b0b0b0;stroke-linecap:square;stroke-width:0.8;"/>
     </g>
     <g id="line2d_2">
      <defs>
       <path d="M 0 0 
L 0 3.5 
" id="m1641bfa0c8" style="stroke:#000000;stroke-width:0.8;"/>
      </defs>
      <g>
       <use style="stroke:#000000;stroke-width:0.8;" x="56.12" xlink:href="#m1641bfa0c8" y="294.88"/>
      </g>
     </g>
     <g id="text_1">
      <!-- 0 -->
      <defs>
       <path d="M 31.78125 66.40625 
Q 24.171875 66.40625 20.328125 58.90625 
Q 16.5 51.421875 16.5 36.375 
Q 16.5 21.390625 20.328125 13.890625 
Q 24.171875 6.390625 31.78125 6.390625 
Q 39.453125 6.390625 43.28125 13.890625 
Q 47.125 21.390625 47.125 36.375 
Q 47.125 51.421875 43.28125 58.90625 
Q 39.453125 66.40625 31.78125 66.40625 
z
M 31.78125 74.21875 
Q 44.046875 74.21875 50.515625 64.515625 
Q 56.984375 54.828125 56.984375 36.375 
Q 56.984375 17.96875 50.515625 8.265625 
Q 44.046875 -1.421875 31.78125 -1.421875 
Q 19.53125 -1.421875 13.0625 8.265625 
Q 6.59375 17.96875 6.59375 36.375 
Q 6.59375 54.828125 13.0625 64.515625 
Q 19.53125 74.21875 31.78125 74.21875 
z
" id="DejaVuSans-30"/>
      </defs>
      <g transform="translate(49.7575 317.076875)scale(0.2 -0.2)">
       <use xlink:href="#DejaVuSans-30"/>
      </g>
     </g>
    </g>
    <g id="xtick_2">
     <g id="line2d_3">
      <path clip-path="url(#p8d76513020)" d="M 135.276571 294.88 
L 135.276571 6.845228 
" style="fill:none;stroke:#b0b0b0;stroke-linecap:square;stroke-width:0.8;"/>
     </g>
     <g id="line2d_4">
      <g>
       <use style="stroke:#000000;stroke-width:0.8;" x="135.276571" xlink:href="#m1641bfa0c8" y="294.88"/>
      </g>
     </g>
     <g id="text_2">
      <!-- 2 -->
      <defs>
       <path d="M 19.1875 8.296875 
L 53.609375 8.296875 
L 53.609375 0 
L 7.328125 0 
L 7.328125 8.296875 
Q 12.9375 14.109375 22.625 23.890625 
Q 32.328125 33.6875 34.8125 36.53125 
Q 39.546875 41.84375 41.421875 45.53125 
Q 43.3125 49.21875 43.3125 52.78125 
Q 43.3125 58.59375 39.234375 62.25 
Q 35.15625 65.921875 28.609375 65.921875 
Q 23.96875 65.921875 18.8125 64.3125 
Q 13.671875 62.703125 7.8125 59.421875 
L 7.8125 69.390625 
Q 13.765625 71.78125 18.9375 73 
Q 24.125 74.21875 28.421875 74.21875 
Q 39.75 74.21875 46.484375 68.546875 
Q 53.21875 62.890625 53.21875 53.421875 
Q 53.21875 48.921875 51.53125 44.890625 
Q 49.859375 40.875 45.40625 35.40625 
Q 44.1875 33.984375 37.640625 27.21875 
Q 31.109375 20.453125 19.1875 8.296875 
z
" id="DejaVuSans-32"/>
      </defs>
      <g transform="translate(128.914071 317.076875)scale(0.2 -0.2)">
       <use xlink:href="#DejaVuSans-32"/>
      </g>
     </g>
    </g>
    <g id="xtick_3">
     <g id="line2d_5">
      <path clip-path="url(#p8d76513020)" d="M 214.433143 294.88 
L 214.433143 6.845228 
" style="fill:none;stroke:#b0b0b0;stroke-linecap:square;stroke-width:0.8;"/>
     </g>
     <g id="line2d_6">
      <g>
       <use style="stroke:#000000;stroke-width:0.8;" x="214.433143" xlink:href="#m1641bfa0c8" y="294.88"/>
      </g>
     </g>
     <g id="text_3">
      <!-- 4 -->
      <defs>
       <path d="M 37.796875 64.3125 
L 12.890625 25.390625 
L 37.796875 25.390625 
z
M 35.203125 72.90625 
L 47.609375 72.90625 
L 47.609375 25.390625 
L 58.015625 25.390625 
L 58.015625 17.1875 
L 47.609375 17.1875 
L 47.609375 0 
L 37.796875 0 
L 37.796875 17.1875 
L 4.890625 17.1875 
L 4.890625 26.703125 
z
" id="DejaVuSans-34"/>
      </defs>
      <g transform="translate(208.070643 317.076875)scale(0.2 -0.2)">
       <use xlink:href="#DejaVuSans-34"/>
      </g>
     </g>
    </g>
    <g id="xtick_4">
     <g id="line2d_7">
      <path clip-path="url(#p8d76513020)" d="M 293.589714 294.88 
L 293.589714 6.845228 
" style="fill:none;stroke:#b0b0b0;stroke-linecap:square;stroke-width:0.8;"/>
     </g>
     <g id="line2d_8">
      <g>
       <use style="stroke:#000000;stroke-width:0.8;" x="293.589714" xlink:href="#m1641bfa0c8" y="294.88"/>
      </g>
     </g>
     <g id="text_4">
      <!-- 6 -->
      <defs>
       <path d="M 33.015625 40.375 
Q 26.375 40.375 22.484375 35.828125 
Q 18.609375 31.296875 18.609375 23.390625 
Q 18.609375 15.53125 22.484375 10.953125 
Q 26.375 6.390625 33.015625 6.390625 
Q 39.65625 6.390625 43.53125 10.953125 
Q 47.40625 15.53125 47.40625 23.390625 
Q 47.40625 31.296875 43.53125 35.828125 
Q 39.65625 40.375 33.015625 40.375 
z
M 52.59375 71.296875 
L 52.59375 62.3125 
Q 48.875 64.0625 45.09375 64.984375 
Q 41.3125 65.921875 37.59375 65.921875 
Q 27.828125 65.921875 22.671875 59.328125 
Q 17.53125 52.734375 16.796875 39.40625 
Q 19.671875 43.65625 24.015625 45.921875 
Q 28.375 48.1875 33.59375 48.1875 
Q 44.578125 48.1875 50.953125 41.515625 
Q 57.328125 34.859375 57.328125 23.390625 
Q 57.328125 12.15625 50.6875 5.359375 
Q 44.046875 -1.421875 33.015625 -1.421875 
Q 20.359375 -1.421875 13.671875 8.265625 
Q 6.984375 17.96875 6.984375 36.375 
Q 6.984375 53.65625 15.1875 63.9375 
Q 23.390625 74.21875 37.203125 74.21875 
Q 40.921875 74.21875 44.703125 73.484375 
Q 48.484375 72.75 52.59375 71.296875 
z
" id="DejaVuSans-36"/>
      </defs>
      <g transform="translate(287.227214 317.076875)scale(0.2 -0.2)">
       <use xlink:href="#DejaVuSans-36"/>
      </g>
     </g>
    </g>
    <g id="xtick_5">
     <g id="line2d_9">
      <path clip-path="url(#p8d76513020)" d="M 56.12 294.88 
L 56.12 6.845228 
" style="fill:none;stroke:#b0b0b0;stroke-linecap:square;stroke-width:0.8;"/>
     </g>
     <g id="line2d_10">
      <defs>
       <path d="M 0 0 
L 0 2 
" id="me9ab56acc7" style="stroke:#000000;stroke-width:0.6;"/>
      </defs>
      <g>
       <use style="stroke:#000000;stroke-width:0.6;" x="56.12" xlink:href="#me9ab56acc7" y="294.88"/>
      </g>
     </g>
    </g>
    <g id="xtick_6">
     <g id="line2d_11">
      <path clip-path="url(#p8d76513020)" d="M 95.698286 294.88 
L 95.698286 6.845228 
" style="fill:none;stroke:#b0b0b0;stroke-linecap:square;stroke-width:0.8;"/>
     </g>
     <g id="line2d_12">
      <g>
       <use style="stroke:#000000;stroke-width:0.6;" x="95.698286" xlink:href="#me9ab56acc7" y="294.88"/>
      </g>
     </g>
    </g>
    <g id="xtick_7">
     <g id="line2d_13">
      <path clip-path="url(#p8d76513020)" d="M 135.276571 294.88 
L 135.276571 6.845228 
" style="fill:none;stroke:#b0b0b0;stroke-linecap:square;stroke-width:0.8;"/>
     </g>
     <g id="line2d_14">
      <g>
       <use style="stroke:#000000;stroke-width:0.6;" x="135.276571" xlink:href="#me9ab56acc7" y="294.88"/>
      </g>
     </g>
    </g>
    <g id="xtick_8">
     <g id="line2d_15">
      <path clip-path="url(#p8d76513020)" d="M 174.854857 294.88 
L 174.854857 6.845228 
" style="fill:none;stroke:#b0b0b0;stroke-linecap:square;stroke-width:0.8;"/>
     </g>
     <g id="line2d_16">
      <g>
       <use style="stroke:#000000;stroke-width:0.6;" x="174.854857" xlink:href="#me9ab56acc7" y="294.88"/>
      </g>
     </g>
    </g>
    <g id="xtick_9">
     <g id="line2d_17">
      <path clip-path="url(#p8d76513020)" d="M 214.433143 294.88 
L 214.433143 6.845228 
" style="fill:none;stroke:#b0b0b0;stroke-linecap:square;stroke-width:0.8;"/>
     </g>
     <g id="line2d_18">
      <g>
       <use style="stroke:#000000;stroke-width:0.6;" x="214.433143" xlink:href="#me9ab56acc7" y="294.88"/>
      </g>
     </g>
    </g>
    <g id="xtick_10">
     <g id="line2d_19">
      <path clip-path="url(#p8d76513020)" d="M 254.011429 294.88 
L 254.011429 6.845228 
" style="fill:none;stroke:#b0b0b0;stroke-linecap:square;stroke-width:0.8;"/>
     </g>
     <g id="line2d_20">
      <g>
       <use style="stroke:#000000;stroke-width:0.6;" x="254.011429" xlink:href="#me9ab56acc7" y="294.88"/>
      </g>
     </g>
    </g>
    <g id="xtick_11">
     <g id="line2d_21">
      <path clip-path="url(#p8d76513020)" d="M 293.589714 294.88 
L 293.589714 6.845228 
" style="fill:none;stroke:#b0b0b0;stroke-linecap:square;stroke-width:0.8;"/>
     </g>
     <g id="line2d_22">
      <g>
       <use style="stroke:#000000;stroke-width:0.6;" x="293.589714" xlink:href="#me9ab56acc7" y="294.88"/>
      </g>
     </g>
    </g>
    <g id="xtick_12">
     <g id="line2d_23">
      <path clip-path="url(#p8d76513020)" d="M 333.168 294.88 
L 333.168 6.845228 
" style="fill:none;stroke:#b0b0b0;stroke-linecap:square;stroke-width:0.8;"/>
     </g>
     <g id="line2d_24">
      <g>
       <use style="stroke:#000000;stroke-width:0.6;" x="333.168" xlink:href="#me9ab56acc7" y="294.88"/>
      </g>
     </g>
    </g>
    <g id="text_5">
     <!-- log10(# f-evals / dimension) -->
     <defs>
      <path d="M 9.421875 75.984375 
L 18.40625 75.984375 
L 18.40625 0 
L 9.421875 0 
z
" id="DejaVuSans-6c"/>
      <path d="M 30.609375 48.390625 
Q 23.390625 48.390625 19.1875 42.75 
Q 14.984375 37.109375 14.984375 27.296875 
Q 14.984375 17.484375 19.15625 11.84375 
Q 23.34375 6.203125 30.609375 6.203125 
Q 37.796875 6.203125 41.984375 11.859375 
Q 46.1875 17.53125 46.1875 27.296875 
Q 46.1875 37.015625 41.984375 42.703125 
Q 37.796875 48.390625 30.609375 48.390625 
z
M 30.609375 56 
Q 42.328125 56 49.015625 48.375 
Q 55.71875 40.765625 55.71875 27.296875 
Q 55.71875 13.875 49.015625 6.21875 
Q 42.328125 -1.421875 30.609375 -1.421875 
Q 18.84375 -1.421875 12.171875 6.21875 
Q 5.515625 13.875 5.515625 27.296875 
Q 5.515625 40.765625 12.171875 48.375 
Q 18.84375 56 30.609375 56 
z
" id="DejaVuSans-6f"/>
      <path d="M 45.40625 27.984375 
Q 45.40625 37.75 41.375 43.109375 
Q 37.359375 48.484375 30.078125 48.484375 
Q 22.859375 48.484375 18.828125 43.109375 
Q 14.796875 37.75 14.796875 27.984375 
Q 14.796875 18.265625 18.828125 12.890625 
Q 22.859375 7.515625 30.078125 7.515625 
Q 37.359375 7.515625 41.375 12.890625 
Q 45.40625 18.265625 45.40625 27.984375 
z
M 54.390625 6.78125 
Q 54.390625 -7.171875 48.1875 -13.984375 
Q 42 -20.796875 29.203125 -20.796875 
Q 24.46875 -20.796875 20.265625 -20.09375 
Q 16.0625 -19.390625 12.109375 -17.921875 
L 12.109375 -9.1875 
Q 16.0625 -11.328125 19.921875 -12.34375 
Q 23.78125 -13.375 27.78125 -13.375 
Q 36.625 -13.375 41.015625 -8.765625 
Q 45.40625 -4.15625 45.40625 5.171875 
L 45.40625 9.625 
Q 42.625 4.78125 38.28125 2.390625 
Q 33.9375 0 27.875 0 
Q 17.828125 0 11.671875 7.65625 
Q 5.515625 15.328125 5.515625 27.984375 
Q 5.515625 40.671875 11.671875 48.328125 
Q 17.828125 56 27.875 56 
Q 33.9375 56 38.28125 53.609375 
Q 42.625 51.21875 45.40625 46.390625 
L 45.40625 54.6875 
L 54.390625 54.6875 
z
" id="DejaVuSans-67"/>
      <path d="M 12.40625 8.296875 
L 28.515625 8.296875 
L 28.515625 63.921875 
L 10.984375 60.40625 
L 10.984375 69.390625 
L 28.421875 72.90625 
L 38.28125 72.90625 
L 38.28125 8.296875 
L 54.390625 8.296875 
L 54.390625 0 
L 12.40625 0 
z
" id="DejaVuSans-31"/>
      <path d="M 31 75.875 
Q 24.46875 64.65625 21.28125 53.65625 
Q 18.109375 42.671875 18.109375 31.390625 
Q 18.109375 20.125 21.3125 9.0625 
Q 24.515625 -2 31 -13.1875 
L 23.1875 -13.1875 
Q 15.875 -1.703125 12.234375 9.375 
Q 8.59375 20.453125 8.59375 31.390625 
Q 8.59375 42.28125 12.203125 53.3125 
Q 15.828125 64.359375 23.1875 75.875 
z
" id="DejaVuSans-28"/>
      <path d="M 51.125 44 
L 36.921875 44 
L 32.8125 27.6875 
L 47.125 27.6875 
z
M 43.796875 71.78125 
L 38.71875 51.515625 
L 52.984375 51.515625 
L 58.109375 71.78125 
L 65.921875 71.78125 
L 60.890625 51.515625 
L 76.125 51.515625 
L 76.125 44 
L 58.984375 44 
L 54.984375 27.6875 
L 70.515625 27.6875 
L 70.515625 20.21875 
L 53.078125 20.21875 
L 48 0 
L 40.1875 0 
L 45.21875 20.21875 
L 30.90625 20.21875 
L 25.875 0 
L 18.015625 0 
L 23.09375 20.21875 
L 7.71875 20.21875 
L 7.71875 27.6875 
L 24.90625 27.6875 
L 29 44 
L 13.28125 44 
L 13.28125 51.515625 
L 30.90625 51.515625 
L 35.890625 71.78125 
z
" id="DejaVuSans-23"/>
      <path id="DejaVuSans-20"/>
      <path d="M 37.109375 75.984375 
L 37.109375 68.5 
L 28.515625 68.5 
Q 23.6875 68.5 21.796875 66.546875 
Q 19.921875 64.59375 19.921875 59.515625 
L 19.921875 54.6875 
L 34.71875 54.6875 
L 34.71875 47.703125 
L 19.921875 47.703125 
L 19.921875 0 
L 10.890625 0 
L 10.890625 47.703125 
L 2.296875 47.703125 
L 2.296875 54.6875 
L 10.890625 54.6875 
L 10.890625 58.5 
Q 10.890625 67.625 15.140625 71.796875 
Q 19.390625 75.984375 28.609375 75.984375 
z
" id="DejaVuSans-66"/>
      <path d="M 4.890625 31.390625 
L 31.203125 31.390625 
L 31.203125 23.390625 
L 4.890625 23.390625 
z
" id="DejaVuSans-2d"/>
      <path d="M 56.203125 29.59375 
L 56.203125 25.203125 
L 14.890625 25.203125 
Q 15.484375 15.921875 20.484375 11.0625 
Q 25.484375 6.203125 34.421875 6.203125 
Q 39.59375 6.203125 44.453125 7.46875 
Q 49.3125 8.734375 54.109375 11.28125 
L 54.109375 2.78125 
Q 49.265625 0.734375 44.1875 -0.34375 
Q 39.109375 -1.421875 33.890625 -1.421875 
Q 20.796875 -1.421875 13.15625 6.1875 
Q 5.515625 13.8125 5.515625 26.8125 
Q 5.515625 40.234375 12.765625 48.109375 
Q 20.015625 56 32.328125 56 
Q 43.359375 56 49.78125 48.890625 
Q 56.203125 41.796875 56.203125 29.59375 
z
M 47.21875 32.234375 
Q 47.125 39.59375 43.09375 43.984375 
Q 39.0625 48.390625 32.421875 48.390625 
Q 24.90625 48.390625 20.390625 44.140625 
Q 15.875 39.890625 15.1875 32.171875 
z
" id="DejaVuSans-65"/>
      <path d="M 2.984375 54.6875 
L 12.5 54.6875 
L 29.59375 8.796875 
L 46.6875 54.6875 
L 56.203125 54.6875 
L 35.6875 0 
L 23.484375 0 
z
" id="DejaVuSans-76"/>
      <path d="M 34.28125 27.484375 
Q 23.390625 27.484375 19.1875 25 
Q 14.984375 22.515625 14.984375 16.5 
Q 14.984375 11.71875 18.140625 8.90625 
Q 21.296875 6.109375 26.703125 6.109375 
Q 34.1875 6.109375 38.703125 11.40625 
Q 43.21875 16.703125 43.21875 25.484375 
L 43.21875 27.484375 
z
M 52.203125 31.203125 
L 52.203125 0 
L 43.21875 0 
L 43.21875 8.296875 
Q 40.140625 3.328125 35.546875 0.953125 
Q 30.953125 -1.421875 24.3125 -1.421875 
Q 15.921875 -1.421875 10.953125 3.296875 
Q 6 8.015625 6 15.921875 
Q 6 25.140625 12.171875 29.828125 
Q 18.359375 34.515625 30.609375 34.515625 
L 43.21875 34.515625 
L 43.21875 35.40625 
Q 43.21875 41.609375 39.140625 45 
Q 35.0625 48.390625 27.6875 48.390625 
Q 23 48.390625 18.546875 47.265625 
Q 14.109375 46.140625 10.015625 43.890625 
L 10.015625 52.203125 
Q 14.9375 54.109375 19.578125 55.046875 
Q 24.21875 56 28.609375 56 
Q 40.484375 56 46.34375 49.84375 
Q 52.203125 43.703125 52.203125 31.203125 
z
" id="DejaVuSans-61"/>
      <path d="M 44.28125 53.078125 
L 44.28125 44.578125 
Q 40.484375 46.53125 36.375 47.5 
Q 32.28125 48.484375 27.875 48.484375 
Q 21.1875 48.484375 17.84375 46.4375 
Q 14.5 44.390625 14.5 40.28125 
Q 14.5 37.15625 16.890625 35.375 
Q 19.28125 33.59375 26.515625 31.984375 
L 29.59375 31.296875 
Q 39.15625 29.25 43.1875 25.515625 
Q 47.21875 21.78125 47.21875 15.09375 
Q 47.21875 7.46875 41.1875 3.015625 
Q 35.15625 -1.421875 24.609375 -1.421875 
Q 20.21875 -1.421875 15.453125 -0.5625 
Q 10.6875 0.296875 5.421875 2 
L 5.421875 11.28125 
Q 10.40625 8.6875 15.234375 7.390625 
Q 20.0625 6.109375 24.8125 6.109375 
Q 31.15625 6.109375 34.5625 8.28125 
Q 37.984375 10.453125 37.984375 14.40625 
Q 37.984375 18.0625 35.515625 20.015625 
Q 33.0625 21.96875 24.703125 23.78125 
L 21.578125 24.515625 
Q 13.234375 26.265625 9.515625 29.90625 
Q 5.8125 33.546875 5.8125 39.890625 
Q 5.8125 47.609375 11.28125 51.796875 
Q 16.75 56 26.8125 56 
Q 31.78125 56 36.171875 55.265625 
Q 40.578125 54.546875 44.28125 53.078125 
z
" id="DejaVuSans-73"/>
      <path d="M 25.390625 72.90625 
L 33.6875 72.90625 
L 8.296875 -9.28125 
L 0 -9.28125 
z
" id="DejaVuSans-2f"/>
      <path d="M 45.40625 46.390625 
L 45.40625 75.984375 
L 54.390625 75.984375 
L 54.390625 0 
L 45.40625 0 
L 45.40625 8.203125 
Q 42.578125 3.328125 38.25 0.953125 
Q 33.9375 -1.421875 27.875 -1.421875 
Q 17.96875 -1.421875 11.734375 6.484375 
Q 5.515625 14.40625 5.515625 27.296875 
Q 5.515625 40.1875 11.734375 48.09375 
Q 17.96875 56 27.875 56 
Q 33.9375 56 38.25 53.625 
Q 42.578125 51.265625 45.40625 46.390625 
z
M 14.796875 27.296875 
Q 14.796875 17.390625 18.875 11.75 
Q 22.953125 6.109375 30.078125 6.109375 
Q 37.203125 6.109375 41.296875 11.75 
Q 45.40625 17.390625 45.40625 27.296875 
Q 45.40625 37.203125 41.296875 42.84375 
Q 37.203125 48.484375 30.078125 48.484375 
Q 22.953125 48.484375 18.875 42.84375 
Q 14.796875 37.203125 14.796875 27.296875 
z
" id="DejaVuSans-64"/>
      <path d="M 9.421875 54.6875 
L 18.40625 54.6875 
L 18.40625 0 
L 9.421875 0 
z
M 9.421875 75.984375 
L 18.40625 75.984375 
L 18.40625 64.59375 
L 9.421875 64.59375 
z
" id="DejaVuSans-69"/>
      <path d="M 52 44.1875 
Q 55.375 50.25 60.0625 53.125 
Q 64.75 56 71.09375 56 
Q 79.640625 56 84.28125 50.015625 
Q 88.921875 44.046875 88.921875 33.015625 
L 88.921875 0 
L 79.890625 0 
L 79.890625 32.71875 
Q 79.890625 40.578125 77.09375 44.375 
Q 74.3125 48.1875 68.609375 48.1875 
Q 61.625 48.1875 57.5625 43.546875 
Q 53.515625 38.921875 53.515625 30.90625 
L 53.515625 0 
L 44.484375 0 
L 44.484375 32.71875 
Q 44.484375 40.625 41.703125 44.40625 
Q 38.921875 48.1875 33.109375 48.1875 
Q 26.21875 48.1875 22.15625 43.53125 
Q 18.109375 38.875 18.109375 30.90625 
L 18.109375 0 
L 9.078125 0 
L 9.078125 54.6875 
L 18.109375 54.6875 
L 18.109375 46.1875 
Q 21.1875 51.21875 25.484375 53.609375 
Q 29.78125 56 35.6875 56 
Q 41.65625 56 45.828125 52.96875 
Q 50 49.953125 52 44.1875 
z
" id="DejaVuSans-6d"/>
      <path d="M 54.890625 33.015625 
L 54.890625 0 
L 45.90625 0 
L 45.90625 32.71875 
Q 45.90625 40.484375 42.875 44.328125 
Q 39.84375 48.1875 33.796875 48.1875 
Q 26.515625 48.1875 22.3125 43.546875 
Q 18.109375 38.921875 18.109375 30.90625 
L 18.109375 0 
L 9.078125 0 
L 9.078125 54.6875 
L 18.109375 54.6875 
L 18.109375 46.1875 
Q 21.34375 51.125 25.703125 53.5625 
Q 30.078125 56 35.796875 56 
Q 45.21875 56 50.046875 50.171875 
Q 54.890625 44.34375 54.890625 33.015625 
z
" id="DejaVuSans-6e"/>
      <path d="M 8.015625 75.875 
L 15.828125 75.875 
Q 23.140625 64.359375 26.78125 53.3125 
Q 30.421875 42.28125 30.421875 31.390625 
Q 30.421875 20.453125 26.78125 9.375 
Q 23.140625 -1.703125 15.828125 -13.1875 
L 8.015625 -13.1875 
Q 14.5 -2 17.703125 9.0625 
Q 20.90625 20.125 20.90625 31.390625 
Q 20.90625 42.671875 17.703125 53.65625 
Q 14.5 64.65625 8.015625 75.875 
z
" id="DejaVuSans-29"/>
     </defs>
     <g transform="translate(73.803219 338.153594)scale(0.17 -0.17)">
      <use xlink:href="#DejaVuSans-6c"/>
      <use x="27.783203" xlink:href="#DejaVuSans-6f"/>
      <use x="88.964844" xlink:href="#DejaVuSans-67"/>
      <use x="152.441406" xlink:href="#DejaVuSans-31"/>
      <use x="216.064453" xlink:href="#DejaVuSans-30"/>
      <use x="279.6875" xlink:href="#DejaVuSans-28"/>
      <use x="318.701172" xlink:href="#DejaVuSans-23"/>
      <use x="402.490234" xlink:href="#DejaVuSans-20"/>
      <use x="434.277344" xlink:href="#DejaVuSans-66"/>
      <use x="469.404297" xlink:href="#DejaVuSans-2d"/>
      <use x="505.488281" xlink:href="#DejaVuSans-65"/>
      <use x="567.011719" xlink:href="#DejaVuSans-76"/>
      <use x="626.191406" xlink:href="#DejaVuSans-61"/>
      <use x="687.470703" xlink:href="#DejaVuSans-6c"/>
      <use x="715.253906" xlink:href="#DejaVuSans-73"/>
      <use x="767.353516" xlink:href="#DejaVuSans-20"/>
      <use x="799.140625" xlink:href="#DejaVuSans-2f"/>
      <use x="832.832031" xlink:href="#DejaVuSans-20"/>
      <use x="864.619141" xlink:href="#DejaVuSans-64"/>
      <use x="928.095703" xlink:href="#DejaVuSans-69"/>
      <use x="955.878906" xlink:href="#DejaVuSans-6d"/>
      <use x="1053.291016" xlink:href="#DejaVuSans-65"/>
      <use x="1114.814453" xlink:href="#DejaVuSans-6e"/>
      <use x="1178.193359" xlink:href="#DejaVuSans-73"/>
      <use x="1230.292969" xlink:href="#DejaVuSans-69"/>
      <use x="1258.076172" xlink:href="#DejaVuSans-6f"/>
      <use x="1319.257812" xlink:href="#DejaVuSans-6e"/>
      <use x="1382.636719" xlink:href="#DejaVuSans-29"/>
     </g>
    </g>
   </g>
   <g id="matplotlib.axis_2">
    <g id="ytick_1">
     <g id="line2d_25">
      <path clip-path="url(#p8d76513020)" d="M 56.12 294.88 
L 333.168 294.88 
" style="fill:none;stroke:#b0b0b0;stroke-linecap:square;stroke-width:0.8;"/>
     </g>
     <g id="line2d_26">
      <defs>
       <path d="M 0 0 
L -3.5 0 
" id="m87553819f4" style="stroke:#000000;stroke-width:0.8;"/>
      </defs>
      <g>
       <use style="stroke:#000000;stroke-width:0.8;" x="56.12" xlink:href="#m87553819f4" y="294.88"/>
      </g>
     </g>
     <g id="text_6">
      <!-- 0.0 -->
      <defs>
       <path d="M 10.6875 12.40625 
L 21 12.40625 
L 21 0 
L 10.6875 0 
z
" id="DejaVuSans-2e"/>
      </defs>
      <g transform="translate(23.675 300.95875)scale(0.16 -0.16)">
       <use xlink:href="#DejaVuSans-30"/>
       <use x="63.623047" xlink:href="#DejaVuSans-2e"/>
       <use x="95.410156" xlink:href="#DejaVuSans-30"/>
      </g>
     </g>
    </g>
    <g id="ytick_2">
     <g id="line2d_27">
      <path clip-path="url(#p8d76513020)" d="M 56.12 237.843411 
L 333.168 237.843411 
" style="fill:none;stroke:#b0b0b0;stroke-linecap:square;stroke-width:0.8;"/>
     </g>
     <g id="line2d_28">
      <g>
       <use style="stroke:#000000;stroke-width:0.8;" x="56.12" xlink:href="#m87553819f4" y="237.843411"/>
      </g>
     </g>
     <g id="text_7">
      <!-- 0.2 -->
      <g transform="translate(23.675 243.922161)scale(0.16 -0.16)">
       <use xlink:href="#DejaVuSans-30"/>
       <use x="63.623047" xlink:href="#DejaVuSans-2e"/>
       <use x="95.410156" xlink:href="#DejaVuSans-32"/>
      </g>
     </g>
    </g>
    <g id="ytick_3">
     <g id="line2d_29">
      <path clip-path="url(#p8d76513020)" d="M 56.12 180.806823 
L 333.168 180.806823 
" style="fill:none;stroke:#b0b0b0;stroke-linecap:square;stroke-width:0.8;"/>
     </g>
     <g id="line2d_30">
      <g>
       <use style="stroke:#000000;stroke-width:0.8;" x="56.12" xlink:href="#m87553819f4" y="180.806823"/>
      </g>
     </g>
     <g id="text_8">
      <!-- 0.4 -->
      <g transform="translate(23.675 186.885573)scale(0.16 -0.16)">
       <use xlink:href="#DejaVuSans-30"/>
       <use x="63.623047" xlink:href="#DejaVuSans-2e"/>
       <use x="95.410156" xlink:href="#DejaVuSans-34"/>
      </g>
     </g>
    </g>
    <g id="ytick_4">
     <g id="line2d_31">
      <path clip-path="url(#p8d76513020)" d="M 56.12 123.770234 
L 333.168 123.770234 
" style="fill:none;stroke:#b0b0b0;stroke-linecap:square;stroke-width:0.8;"/>
     </g>
     <g id="line2d_32">
      <g>
       <use style="stroke:#000000;stroke-width:0.8;" x="56.12" xlink:href="#m87553819f4" y="123.770234"/>
      </g>
     </g>
     <g id="text_9">
      <!-- 0.6 -->
      <g transform="translate(23.675 129.848984)scale(0.16 -0.16)">
       <use xlink:href="#DejaVuSans-30"/>
       <use x="63.623047" xlink:href="#DejaVuSans-2e"/>
       <use x="95.410156" xlink:href="#DejaVuSans-36"/>
      </g>
     </g>
    </g>
    <g id="ytick_5">
     <g id="line2d_33">
      <path clip-path="url(#p8d76513020)" d="M 56.12 66.733646 
L 333.168 66.733646 
" style="fill:none;stroke:#b0b0b0;stroke-linecap:square;stroke-width:0.8;"/>
     </g>
     <g id="line2d_34">
      <g>
       <use style="stroke:#000000;stroke-width:0.8;" x="56.12" xlink:href="#m87553819f4" y="66.733646"/>
      </g>
     </g>
     <g id="text_10">
      <!-- 0.8 -->
      <defs>
       <path d="M 31.78125 34.625 
Q 24.75 34.625 20.71875 30.859375 
Q 16.703125 27.09375 16.703125 20.515625 
Q 16.703125 13.921875 20.71875 10.15625 
Q 24.75 6.390625 31.78125 6.390625 
Q 38.8125 6.390625 42.859375 10.171875 
Q 46.921875 13.96875 46.921875 20.515625 
Q 46.921875 27.09375 42.890625 30.859375 
Q 38.875 34.625 31.78125 34.625 
z
M 21.921875 38.8125 
Q 15.578125 40.375 12.03125 44.71875 
Q 8.5 49.078125 8.5 55.328125 
Q 8.5 64.0625 14.71875 69.140625 
Q 20.953125 74.21875 31.78125 74.21875 
Q 42.671875 74.21875 48.875 69.140625 
Q 55.078125 64.0625 55.078125 55.328125 
Q 55.078125 49.078125 51.53125 44.71875 
Q 48 40.375 41.703125 38.8125 
Q 48.828125 37.15625 52.796875 32.3125 
Q 56.78125 27.484375 56.78125 20.515625 
Q 56.78125 9.90625 50.3125 4.234375 
Q 43.84375 -1.421875 31.78125 -1.421875 
Q 19.734375 -1.421875 13.25 4.234375 
Q 6.78125 9.90625 6.78125 20.515625 
Q 6.78125 27.484375 10.78125 32.3125 
Q 14.796875 37.15625 21.921875 38.8125 
z
M 18.3125 54.390625 
Q 18.3125 48.734375 21.84375 45.5625 
Q 25.390625 42.390625 31.78125 42.390625 
Q 38.140625 42.390625 41.71875 45.5625 
Q 45.3125 48.734375 45.3125 54.390625 
Q 45.3125 60.0625 41.71875 63.234375 
Q 38.140625 66.40625 31.78125 66.40625 
Q 25.390625 66.40625 21.84375 63.234375 
Q 18.3125 60.0625 18.3125 54.390625 
z
" id="DejaVuSans-38"/>
      </defs>
      <g transform="translate(23.675 72.812396)scale(0.16 -0.16)">
       <use xlink:href="#DejaVuSans-30"/>
       <use x="63.623047" xlink:href="#DejaVuSans-2e"/>
       <use x="95.410156" xlink:href="#DejaVuSans-38"/>
      </g>
     </g>
    </g>
    <g id="ytick_6">
     <g id="line2d_35">
      <path clip-path="url(#p8d76513020)" d="M 56.12 9.697057 
L 333.168 9.697057 
" style="fill:none;stroke:#b0b0b0;stroke-linecap:square;stroke-width:0.8;"/>
     </g>
     <g id="line2d_36">
      <g>
       <use style="stroke:#000000;stroke-width:0.8;" x="56.12" xlink:href="#m87553819f4" y="9.697057"/>
      </g>
     </g>
     <g id="text_11">
      <!-- 1.0 -->
      <g transform="translate(23.675 15.775807)scale(0.16 -0.16)">
       <use xlink:href="#DejaVuSans-31"/>
       <use x="63.623047" xlink:href="#DejaVuSans-2e"/>
       <use x="95.410156" xlink:href="#DejaVuSans-30"/>
      </g>
     </g>
    </g>
    <g id="text_12">
     <!-- Fraction of function,target pairs -->
     <defs>
      <path d="M 9.8125 72.90625 
L 51.703125 72.90625 
L 51.703125 64.59375 
L 19.671875 64.59375 
L 19.671875 43.109375 
L 48.578125 43.109375 
L 48.578125 34.8125 
L 19.671875 34.8125 
L 19.671875 0 
L 9.8125 0 
z
" id="DejaVuSans-46"/>
      <path d="M 41.109375 46.296875 
Q 39.59375 47.171875 37.8125 47.578125 
Q 36.03125 48 33.890625 48 
Q 26.265625 48 22.1875 43.046875 
Q 18.109375 38.09375 18.109375 28.8125 
L 18.109375 0 
L 9.078125 0 
L 9.078125 54.6875 
L 18.109375 54.6875 
L 18.109375 46.1875 
Q 20.953125 51.171875 25.484375 53.578125 
Q 30.03125 56 36.53125 56 
Q 37.453125 56 38.578125 55.875 
Q 39.703125 55.765625 41.0625 55.515625 
z
" id="DejaVuSans-72"/>
      <path d="M 48.78125 52.59375 
L 48.78125 44.1875 
Q 44.96875 46.296875 41.140625 47.34375 
Q 37.3125 48.390625 33.40625 48.390625 
Q 24.65625 48.390625 19.8125 42.84375 
Q 14.984375 37.3125 14.984375 27.296875 
Q 14.984375 17.28125 19.8125 11.734375 
Q 24.65625 6.203125 33.40625 6.203125 
Q 37.3125 6.203125 41.140625 7.25 
Q 44.96875 8.296875 48.78125 10.40625 
L 48.78125 2.09375 
Q 45.015625 0.34375 40.984375 -0.53125 
Q 36.96875 -1.421875 32.421875 -1.421875 
Q 20.0625 -1.421875 12.78125 6.34375 
Q 5.515625 14.109375 5.515625 27.296875 
Q 5.515625 40.671875 12.859375 48.328125 
Q 20.21875 56 33.015625 56 
Q 37.15625 56 41.109375 55.140625 
Q 45.0625 54.296875 48.78125 52.59375 
z
" id="DejaVuSans-63"/>
      <path d="M 18.3125 70.21875 
L 18.3125 54.6875 
L 36.8125 54.6875 
L 36.8125 47.703125 
L 18.3125 47.703125 
L 18.3125 18.015625 
Q 18.3125 11.328125 20.140625 9.421875 
Q 21.96875 7.515625 27.59375 7.515625 
L 36.8125 7.515625 
L 36.8125 0 
L 27.59375 0 
Q 17.1875 0 13.234375 3.875 
Q 9.28125 7.765625 9.28125 18.015625 
L 9.28125 47.703125 
L 2.6875 47.703125 
L 2.6875 54.6875 
L 9.28125 54.6875 
L 9.28125 70.21875 
z
" id="DejaVuSans-74"/>
      <path d="M 8.5 21.578125 
L 8.5 54.6875 
L 17.484375 54.6875 
L 17.484375 21.921875 
Q 17.484375 14.15625 20.5 10.265625 
Q 23.53125 6.390625 29.59375 6.390625 
Q 36.859375 6.390625 41.078125 11.03125 
Q 45.3125 15.671875 45.3125 23.6875 
L 45.3125 54.6875 
L 54.296875 54.6875 
L 54.296875 0 
L 45.3125 0 
L 45.3125 8.40625 
Q 42.046875 3.421875 37.71875 1 
Q 33.40625 -1.421875 27.6875 -1.421875 
Q 18.265625 -1.421875 13.375 4.4375 
Q 8.5 10.296875 8.5 21.578125 
z
M 31.109375 56 
z
" id="DejaVuSans-75"/>
      <path d="M 11.71875 12.40625 
L 22.015625 12.40625 
L 22.015625 4 
L 14.015625 -11.625 
L 7.71875 -11.625 
L 11.71875 4 
z
" id="DejaVuSans-2c"/>
      <path d="M 18.109375 8.203125 
L 18.109375 -20.796875 
L 9.078125 -20.796875 
L 9.078125 54.6875 
L 18.109375 54.6875 
L 18.109375 46.390625 
Q 20.953125 51.265625 25.265625 53.625 
Q 29.59375 56 35.59375 56 
Q 45.5625 56 51.78125 48.09375 
Q 58.015625 40.1875 58.015625 27.296875 
Q 58.015625 14.40625 51.78125 6.484375 
Q 45.5625 -1.421875 35.59375 -1.421875 
Q 29.59375 -1.421875 25.265625 0.953125 
Q 20.953125 3.328125 18.109375 8.203125 
z
M 48.6875 27.296875 
Q 48.6875 37.203125 44.609375 42.84375 
Q 40.53125 48.484375 33.40625 48.484375 
Q 26.265625 48.484375 22.1875 42.84375 
Q 18.109375 37.203125 18.109375 27.296875 
Q 18.109375 17.390625 22.1875 11.75 
Q 26.265625 6.109375 33.40625 6.109375 
Q 40.53125 6.109375 44.609375 11.75 
Q 48.6875 17.390625 48.6875 27.296875 
z
" id="DejaVuSans-70"/>
     </defs>
     <g transform="translate(16.139531 286.001989)rotate(-90)scale(0.17 -0.17)">
      <use xlink:href="#DejaVuSans-46"/>
      <use x="57.410156" xlink:href="#DejaVuSans-72"/>
      <use x="98.523438" xlink:href="#DejaVuSans-61"/>
      <use x="159.802734" xlink:href="#DejaVuSans-63"/>
      <use x="214.783203" xlink:href="#DejaVuSans-74"/>
      <use x="253.992188" xlink:href="#DejaVuSans-69"/>
      <use x="281.775391" xlink:href="#DejaVuSans-6f"/>
      <use x="342.957031" xlink:href="#DejaVuSans-6e"/>
      <use x="406.335938" xlink:href="#DejaVuSans-20"/>
      <use x="438.123047" xlink:href="#DejaVuSans-6f"/>
      <use x="499.304688" xlink:href="#DejaVuSans-66"/>
      <use x="534.509766" xlink:href="#DejaVuSans-20"/>
      <use x="566.296875" xlink:href="#DejaVuSans-66"/>
      <use x="601.501953" xlink:href="#DejaVuSans-75"/>
      <use x="664.880859" xlink:href="#DejaVuSans-6e"/>
      <use x="728.259766" xlink:href="#DejaVuSans-63"/>
      <use x="783.240234" xlink:href="#DejaVuSans-74"/>
      <use x="822.449219" xlink:href="#DejaVuSans-69"/>
      <use x="850.232422" xlink:href="#DejaVuSans-6f"/>
      <use x="911.414062" xlink:href="#DejaVuSans-6e"/>
      <use x="974.792969" xlink:href="#DejaVuSans-2c"/>
      <use x="1006.580078" xlink:href="#DejaVuSans-74"/>
      <use x="1045.789062" xlink:href="#DejaVuSans-61"/>
      <use x="1107.068359" xlink:href="#DejaVuSans-72"/>
      <use x="1148.166016" xlink:href="#DejaVuSans-67"/>
      <use x="1211.642578" xlink:href="#DejaVuSans-65"/>
      <use x="1273.166016" xlink:href="#DejaVuSans-74"/>
      <use x="1312.375" xlink:href="#DejaVuSans-20"/>
      <use x="1344.162109" xlink:href="#DejaVuSans-70"/>
      <use x="1407.638672" xlink:href="#DejaVuSans-61"/>
      <use x="1468.917969" xlink:href="#DejaVuSans-69"/>
      <use x="1496.701172" xlink:href="#DejaVuSans-72"/>
      <use x="1537.814453" xlink:href="#DejaVuSans-73"/>
     </g>
    </g>
   </g>
   <g id="line2d_37">
    <defs>
     <path d="M 0 1.5 
C 0.397805 1.5 0.77937 1.341951 1.06066 1.06066 
C 1.341951 0.77937 1.5 0.397805 1.5 0 
C 1.5 -0.397805 1.341951 -0.77937 1.06066 -1.06066 
C 0.77937 -1.341951 0.397805 -1.5 0 -1.5 
C -0.397805 -1.5 -0.77937 -1.341951 -1.06066 -1.06066 
C -1.341951 -0.77937 -1.5 -0.397805 -1.5 0 
C -1.5 0.397805 -1.341951 0.77937 -1.06066 1.06066 
C -0.77937 1.341951 -0.397805 1.5 0 1.5 
z
" id="m8dc6e7968d" style="stroke:#000080;"/>
    </defs>
    <g>
     <use style="fill:#000080;stroke:#000080;" x="71.168109" xlink:href="#m8dc6e7968d" y="9.697057"/>
     <use style="fill:#000080;stroke:#000080;" x="71.168109" xlink:href="#m8dc6e7968d" y="9.697057"/>
    </g>
   </g>
   <g id="line2d_38">
    <path d="M 28.455965 294.88 
L 28.455965 285.373902 
L 40.370217 285.373902 
L 40.370217 280.900444 
L 56.12 280.900444 
L 56.12 280.341262 
L 59.253858 280.341262 
L 59.253858 277.545351 
L 61.903497 277.545351 
L 61.903497 276.986168 
L 68.034251 276.986168 
L 68.034251 275.867804 
L 71.168109 275.867804 
L 71.168109 9.697057 
L 333.168 9.697057 
" style="fill:none;stroke:#000080;stroke-linecap:square;stroke-width:1.5;"/>
   </g>
   <g id="line2d_39">
    <defs>
     <path d="M 0 6 
C 1.591219 6 3.117479 5.367802 4.242641 4.242641 
C 5.367802 3.117479 6 1.591219 6 0 
C 6 -1.591219 5.367802 -3.117479 4.242641 -4.242641 
C 3.117479 -5.367802 1.591219 -6 0 -6 
C -1.591219 -6 -3.117479 -5.367802 -4.242641 -4.242641 
C -5.367802 -3.117479 -6 -1.591219 -6 0 
C -6 1.591219 -5.367802 3.117479 -4.242641 4.242641 
C -3.117479 5.367802 -1.591219 6 0 6 
z
" id="m16e680240b" style="stroke:#000080;stroke-width:1.5;"/>
    </defs>
    <g>
     <use style="fill-opacity:0;stroke:#000080;stroke-width:1.5;" x="68.034251" xlink:href="#m16e680240b" y="275.867804"/>
     <use style="fill-opacity:0;stroke:#000080;stroke-width:1.5;" x="71.168109" xlink:href="#m16e680240b" y="275.867804"/>
     <use style="fill-opacity:0;stroke:#000080;stroke-width:1.5;" x="71.168109" xlink:href="#m16e680240b" y="275.867804"/>
     <use style="fill-opacity:0;stroke:#000080;stroke-width:1.5;" x="71.168109" xlink:href="#m16e680240b" y="9.697057"/>
     <use style="fill-opacity:0;stroke:#000080;stroke-width:1.5;" x="71.168109" xlink:href="#m16e680240b" y="9.697057"/>
     <use style="fill-opacity:0;stroke:#000080;stroke-width:1.5;" x="333.168" xlink:href="#m16e680240b" y="9.697057"/>
    </g>
   </g>
   <g id="line2d_40">
    <path style="fill:none;stroke:#000080;stroke-linecap:square;stroke-width:1.5;"/>
    <g/>
   </g>
   <g id="line2d_41">
    <defs>
     <path d="M 0 1.5 
C 0.397805 1.5 0.77937 1.341951 1.06066 1.06066 
C 1.341951 0.77937 1.5 0.397805 1.5 0 
C 1.5 -0.397805 1.341951 -0.77937 1.06066 -1.06066 
C 0.77937 -1.341951 0.397805 -1.5 0 -1.5 
C -0.397805 -1.5 -0.77937 -1.341951 -1.06066 -1.06066 
C -1.341951 -0.77937 -1.5 -0.397805 -1.5 0 
C -1.5 0.397805 -1.341951 0.77937 -1.06066 1.06066 
C -0.77937 1.341951 -0.397805 1.5 0 1.5 
z
" id="ma38a739535" style="stroke:#ff00ff;"/>
    </defs>
    <g>
     <use style="fill:#ff00ff;stroke:#ff00ff;" x="161.979149" xlink:href="#ma38a739535" y="9.697057"/>
     <use style="fill:#ff00ff;stroke:#ff00ff;" x="161.979149" xlink:href="#ma38a739535" y="9.697057"/>
    </g>
   </g>
   <g id="line2d_42">
    <path d="M 134.066106 294.88 
L 134.066106 293.761636 
L 135.03423 293.761636 
L 135.03423 293.202453 
L 136.278134 293.202453 
L 136.278134 292.643271 
L 136.599426 292.643271 
L 136.66297 290.406542 
L 136.852205 290.406542 
L 136.883542 289.288178 
L 137.827708 289.288178 
L 137.916386 285.933084 
L 138.063173 285.933084 
L 138.09238 283.696355 
L 138.179706 283.696355 
L 138.179706 283.137173 
L 139.384945 283.137173 
L 139.49288 278.663715 
L 139.573389 278.663715 
L 139.653523 275.867804 
L 140.126634 275.867804 
L 140.126634 274.190257 
L 140.409475 274.190257 
L 140.409475 273.071893 
L 140.612293 273.071893 
L 140.612293 271.394346 
L 140.887317 271.394346 
L 140.887317 270.275981 
L 141.133577 270.275981 
L 141.15801 267.48007 
L 141.804906 267.48007 
L 141.851869 265.802523 
L 142.015238 265.802523 
L 142.015238 264.124977 
L 142.154044 264.124977 
L 142.223028 262.44743 
L 142.268865 262.44743 
L 142.360172 260.210701 
L 142.473629 260.210701 
L 142.473629 259.651519 
L 142.942135 259.651519 
L 143.029944 257.973972 
L 143.095508 257.973972 
L 143.139078 256.296425 
L 143.22589 256.296425 
L 143.312265 252.38215 
L 143.441019 252.38215 
L 143.441019 251.822967 
L 143.925832 251.822967 
L 144.008769 249.027056 
L 144.152952 249.027056 
L 144.152952 247.908692 
L 144.356853 247.908692 
L 144.377111 245.112781 
L 144.498158 245.112781 
L 144.558363 241.757687 
L 144.915234 241.757687 
L 144.915234 241.198505 
L 145.417974 241.198505 
L 145.456044 239.520958 
L 145.663936 239.520958 
L 145.663936 238.402594 
L 145.813566 238.402594 
L 145.906427 237.284229 
L 145.980357 237.284229 
L 146.035596 232.810771 
L 146.163802 232.810771 
L 146.272936 227.778131 
L 146.381382 227.778131 
L 146.489148 224.423038 
L 146.596243 224.423038 
L 146.667271 222.186309 
L 146.790867 222.186309 
L 146.790867 221.067944 
L 147.018071 221.067944 
L 147.070079 218.831215 
L 147.173625 218.831215 
L 147.173625 218.272033 
L 147.446737 218.272033 
L 147.480573 214.91694 
L 147.564873 214.91694 
L 147.581683 211.561846 
L 147.765521 211.561846 
L 147.765521 210.443482 
L 147.914484 210.443482 
L 147.914484 209.325117 
L 148.045821 209.325117 
L 148.045821 208.206753 
L 148.192385 208.206753 
L 148.208593 205.970024 
L 148.433916 205.970024 
L 148.529586 201.496566 
L 148.624726 201.496566 
L 148.735061 196.463926 
L 148.797794 196.463926 
L 148.844693 194.786379 
L 149.061881 194.786379 
L 149.061881 193.668014 
L 149.184767 193.668014 
L 149.291576 192.54965 
L 149.382602 192.54965 
L 149.382602 191.990468 
L 149.518243 191.990468 
L 149.548241 188.635374 
L 149.727135 188.635374 
L 149.741959 186.398645 
L 149.874805 186.398645 
L 149.948166 184.721099 
L 150.006631 184.721099 
L 150.006631 181.925187 
L 150.367599 181.925187 
L 150.424656 179.688458 
L 150.495713 179.688458 
L 150.580595 176.333365 
L 150.636952 176.333365 
L 150.636952 175.215 
L 150.777039 175.215 
L 150.860547 173.537454 
L 151.108663 173.537454 
L 151.163317 171.300725 
L 151.272106 171.300725 
L 151.272106 170.741543 
L 151.474248 170.741543 
L 151.581093 167.386449 
L 151.594402 167.386449 
L 151.674041 163.472173 
L 151.832219 163.472173 
L 151.832219 162.912991 
L 152.027918 162.912991 
L 152.118486 160.11708 
L 152.221413 160.11708 
L 152.323726 156.761987 
L 152.677103 156.761987 
L 152.677103 156.202804 
L 152.863465 156.202804 
L 152.863465 155.643622 
L 152.998857 155.643622 
L 153.084464 153.406893 
L 153.133192 153.406893 
L 153.133192 152.847711 
L 153.3147 152.847711 
L 153.374779 148.933435 
L 153.506219 148.933435 
L 153.541892 144.459977 
L 153.73091 144.459977 
L 153.73091 143.341613 
L 153.847999 143.341613 
L 153.859664 142.223248 
L 153.987461 142.223248 
L 154.079811 138.308973 
L 154.263036 138.308973 
L 154.297175 136.072244 
L 154.444329 136.072244 
L 154.489355 133.835515 
L 154.579054 133.835515 
L 154.623729 132.71715 
L 154.801276 132.71715 
L 154.900346 128.802874 
L 154.987932 128.802874 
L 155.085935 124.888599 
L 155.204963 124.888599 
L 155.248042 122.092688 
L 155.578296 122.092688 
L 155.68349 119.296776 
L 155.788044 119.296776 
L 155.850472 115.382501 
L 155.954019 115.382501 
L 156.056945 113.704954 
L 156.138844 113.704954 
L 156.159258 111.468225 
L 156.281236 111.468225 
L 156.382227 108.672314 
L 156.45257 108.672314 
L 156.552562 101.962127 
L 156.612279 101.962127 
L 156.711349 98.607033 
L 156.760671 98.607033 
L 156.760671 97.488669 
L 156.927315 97.488669 
L 157.024591 91.337664 
L 157.073023 91.337664 
L 157.092358 90.2193 
L 157.265399 90.2193 
L 157.332225 87.423389 
L 157.3798 87.423389 
L 157.455646 84.627477 
L 157.512312 84.627477 
L 157.512312 84.068295 
L 157.69986 84.068295 
L 157.802146 80.15402 
L 157.811415 80.15402 
L 157.857683 79.035655 
L 157.968221 79.035655 
L 157.986575 76.798926 
L 158.114508 76.798926 
L 158.223412 74.003015 
L 158.295634 74.003015 
L 158.295634 72.88465 
L 158.41235 72.88465 
L 158.519389 69.529557 
L 158.652257 69.529557 
L 158.705118 66.733646 
L 158.827832 66.733646 
L 158.906259 64.496917 
L 158.941001 64.496917 
L 159.02755 60.582641 
L 159.276106 60.582641 
L 159.352519 57.78673 
L 159.403273 57.78673 
L 159.453878 54.990819 
L 159.554642 54.990819 
L 159.604803 52.75409 
L 159.671458 52.75409 
L 159.737856 48.839814 
L 159.803998 48.839814 
L 159.853438 47.162267 
L 159.960072 47.162267 
L 160.066049 43.807174 
L 160.122845 43.807174 
L 160.219773 39.333716 
L 160.259999 39.333716 
L 160.316158 35.978622 
L 160.372134 35.978622 
L 160.475609 29.827618 
L 160.523157 29.827618 
L 160.56268 27.590889 
L 160.875636 27.590889 
L 160.968422 23.676613 
L 161.030003 23.676613 
L 161.106669 18.643973 
L 161.274142 18.643973 
L 161.34973 15.28888 
L 161.469983 15.28888 
L 161.469983 14.729697 
L 161.619126 14.729697 
L 161.619126 14.170515 
L 161.766986 14.170515 
L 161.862418 10.256239 
L 161.979149 10.256239 
L 161.979149 9.697057 
L 333.168 9.697057 
L 333.168 9.697057 
" style="fill:none;stroke:#ff00ff;stroke-linecap:square;stroke-width:1.5;"/>
   </g>
   <g id="line2d_43">
    <defs>
     <path d="M -0 8.485281 
L 5.091169 0 
L 0 -8.485281 
L -5.091169 -0 
z
" id="me4287e8ab3" style="stroke:#ff00ff;stroke-linejoin:miter;stroke-width:1.5;"/>
    </defs>
    <g>
     <use style="fill-opacity:0;stroke:#ff00ff;stroke-linejoin:miter;stroke-width:1.5;" x="160.875636" xlink:href="#me4287e8ab3" y="27.590889"/>
     <use style="fill-opacity:0;stroke:#ff00ff;stroke-linejoin:miter;stroke-width:1.5;" x="161.979149" xlink:href="#me4287e8ab3" y="10.256239"/>
     <use style="fill-opacity:0;stroke:#ff00ff;stroke-linejoin:miter;stroke-width:1.5;" x="161.979149" xlink:href="#me4287e8ab3" y="9.697057"/>
     <use style="fill-opacity:0;stroke:#ff00ff;stroke-linejoin:miter;stroke-width:1.5;" x="161.979149" xlink:href="#me4287e8ab3" y="9.697057"/>
     <use style="fill-opacity:0;stroke:#ff00ff;stroke-linejoin:miter;stroke-width:1.5;" x="333.168" xlink:href="#me4287e8ab3" y="9.697057"/>
    </g>
   </g>
   <g id="line2d_44">
    <path style="fill:none;stroke:#ff00ff;stroke-linecap:square;stroke-width:1.5;"/>
    <g/>
   </g>
   <g id="line2d_45">
    <defs>
     <path d="M 0 1.5 
C 0.397805 1.5 0.77937 1.341951 1.06066 1.06066 
C 1.341951 0.77937 1.5 0.397805 1.5 0 
C 1.5 -0.397805 1.341951 -0.77937 1.06066 -1.06066 
C 0.77937 -1.341951 0.397805 -1.5 0 -1.5 
C -0.397805 -1.5 -0.77937 -1.341951 -1.06066 -1.06066 
C -1.341951 -0.77937 -1.5 -0.397805 -1.5 0 
C -1.5 0.397805 -1.341951 0.77937 -1.06066 1.06066 
C -0.77937 1.341951 -0.397805 1.5 0 1.5 
z
" id="m52bc1e2a67" style="stroke:#ff7500;"/>
    </defs>
    <g>
     <use style="fill:#ff7500;stroke:#ff7500;" x="190.041349" xlink:href="#m52bc1e2a67" y="9.697057"/>
     <use style="fill:#ff7500;stroke:#ff7500;" x="190.041349" xlink:href="#m52bc1e2a67" y="9.697057"/>
    </g>
   </g>
   <g id="line2d_46">
    <path d="M 47.339607 294.88 
L 47.339607 294.320818 
L 56.12 294.320818 
L 56.12 293.761636 
L 59.253858 293.761636 
L 59.253858 293.202453 
L 69.672503 293.202453 
L 69.672503 292.643271 
L 71.168109 292.643271 
L 71.168109 291.524907 
L 72.543934 291.524907 
L 72.543934 290.406542 
L 78.137499 290.406542 
L 78.137499 289.84736 
L 82.350819 289.84736 
L 82.350819 288.169813 
L 90.522701 288.169813 
L 90.522701 287.610631 
L 95.698286 287.610631 
L 95.698286 287.051449 
L 103.120034 287.051449 
L 103.120034 286.492266 
L 104.201437 286.492266 
L 104.201437 285.933084 
L 104.615641 285.933084 
L 104.615641 285.373902 
L 105.218813 285.373902 
L 105.218813 284.255537 
L 107.439785 284.255537 
L 107.439785 283.696355 
L 110.88904 283.696355 
L 110.88904 283.137173 
L 112.384646 283.137173 
L 112.384646 282.577991 
L 112.643127 282.577991 
L 112.643127 282.018808 
L 113.880253 282.018808 
L 113.880253 281.459626 
L 113.999206 281.459626 
L 113.999206 280.900444 
L 114.809594 280.900444 
L 114.809594 280.341262 
L 116.324038 280.341262 
L 116.324038 279.222897 
L 117.033994 279.222897 
L 117.033994 278.663715 
L 117.620026 278.663715 
L 117.620026 278.104533 
L 118.463235 278.104533 
L 118.463235 277.545351 
L 118.645127 277.545351 
L 118.645127 276.986168 
L 121.70343 276.986168 
L 121.70343 276.426986 
L 122.944762 276.426986 
L 122.944762 275.867804 
L 123.499282 275.867804 
L 123.499282 275.308622 
L 125.062963 275.308622 
L 125.062963 274.749439 
L 125.310285 274.749439 
L 125.310285 274.190257 
L 127.334814 274.190257 
L 127.334814 273.631075 
L 128.898495 273.631075 
L 128.898495 273.071893 
L 130.14738 273.071893 
L 130.14738 272.51271 
L 130.377486 272.51271 
L 130.377486 271.953528 
L 134.249551 271.953528 
L 134.322384 270.835164 
L 135.549413 270.835164 
L 135.549413 270.275981 
L 136.310535 270.275981 
L 136.310535 269.716799 
L 137.163039 269.716799 
L 137.163039 269.157617 
L 137.678888 269.157617 
L 137.678888 268.598435 
L 141.615758 268.598435 
L 141.615758 268.039252 
L 142.177069 268.039252 
L 142.177069 265.802523 
L 142.675983 265.802523 
L 142.675983 265.243341 
L 143.483724 265.243341 
L 143.483724 264.684159 
L 144.757539 264.684159 
L 144.757539 264.124977 
L 145.36071 264.124977 
L 145.36071 263.565795 
L 147.497466 263.565795 
L 147.497466 263.006612 
L 152.726997 263.006612 
L 152.726997 262.44743 
L 154.779183 262.44743 
L 154.779183 261.888248 
L 157.274962 261.888248 
L 157.274962 261.329066 
L 158.277607 261.329066 
L 158.385485 260.210701 
L 158.80161 260.210701 
L 158.897563 259.092337 
L 160.24392 259.092337 
L 160.24392 258.533154 
L 161.752257 258.533154 
L 161.752257 257.973972 
L 162.452458 257.973972 
L 162.452458 257.41479 
L 163.057093 257.41479 
L 163.057093 256.855608 
L 164.090709 256.855608 
L 164.090709 256.296425 
L 164.320661 256.296425 
L 164.320661 255.737243 
L 165.390685 255.737243 
L 165.408562 254.618879 
L 166.638076 254.618879 
L 166.638076 254.059696 
L 167.508367 254.059696 
L 167.508367 253.500514 
L 167.775106 253.500514 
L 167.775106 252.941332 
L 168.170147 252.941332 
L 168.170147 252.38215 
L 169.155721 252.38215 
L 169.155721 251.822967 
L 170.060594 251.822967 
L 170.060594 251.263785 
L 171.67694 251.263785 
L 171.67694 250.704603 
L 172.96729 250.704603 
L 172.96729 250.145421 
L 173.596373 250.145421 
L 173.596373 249.586238 
L 173.849719 249.586238 
L 173.849719 249.027056 
L 175.269225 249.027056 
L 175.269225 248.467874 
L 175.466088 248.467874 
L 175.466088 247.908692 
L 175.696767 247.908692 
L 175.77515 246.790327 
L 175.846688 246.790327 
L 175.846688 246.231145 
L 176.247598 246.231145 
L 176.247598 245.112781 
L 176.424216 245.112781 
L 176.461828 243.994416 
L 176.620767 243.994416 
L 176.620767 242.316869 
L 177.20628 242.316869 
L 177.290025 241.198505 
L 177.334721 241.198505 
L 177.334721 240.639323 
L 177.476972 240.639323 
L 177.476972 238.961776 
L 178.139881 238.961776 
L 178.188088 237.843411 
L 178.466169 237.843411 
L 178.499572 236.725047 
L 178.70963 236.725047 
L 178.70963 236.165865 
L 179.049633 236.165865 
L 179.049633 235.606682 
L 179.31157 235.606682 
L 179.367184 233.929136 
L 179.540808 233.929136 
L 179.540808 233.369954 
L 179.748937 233.369954 
L 179.748937 232.810771 
L 179.864911 232.810771 
L 179.939238 226.100584 
L 180.089469 226.100584 
L 180.17545 224.423038 
L 180.56453 224.423038 
L 180.56453 223.863855 
L 180.746059 223.863855 
L 180.850668 221.627126 
L 180.86279 221.627126 
L 180.930519 217.712851 
L 181.036414 217.712851 
L 181.120186 216.594486 
L 181.155963 216.594486 
L 181.155963 216.035304 
L 181.300695 216.035304 
L 181.394944 210.443482 
L 181.474652 210.443482 
L 181.5097 205.970024 
L 181.586554 205.970024 
L 181.614416 203.733295 
L 181.734633 203.733295 
L 181.833412 200.937384 
L 181.865451 200.937384 
L 181.940734 199.259837 
L 182.006622 199.259837 
L 182.106109 195.904743 
L 182.178103 195.904743 
L 182.229664 194.227197 
L 182.289994 194.227197 
L 182.365666 190.312921 
L 182.407809 190.312921 
L 182.505007 187.51701 
L 182.682516 187.51701 
L 182.793348 181.366005 
L 182.799845 181.366005 
L 182.905622 174.655818 
L 182.927129 174.655818 
L 182.927129 174.096636 
L 183.040671 174.096636 
L 183.136489 172.419089 
L 183.16619 172.419089 
L 183.24022 169.063996 
L 183.284485 169.063996 
L 183.360104 167.386449 
L 183.395698 167.386449 
L 183.489563 164.031356 
L 183.551855 164.031356 
L 183.644873 161.794627 
L 183.665476 161.794627 
L 183.690166 159.557898 
L 183.792663 159.557898 
L 183.896583 156.202804 
L 183.904708 156.202804 
L 184.011991 150.0518 
L 184.034174 150.0518 
L 184.140655 147.815071 
L 184.256431 147.815071 
L 184.276314 145.578342 
L 184.389208 145.578342 
L 184.495481 139.427337 
L 184.610848 139.427337 
L 184.686685 134.953879 
L 184.758325 134.953879 
L 184.866187 131.598786 
L 184.879623 131.598786 
L 184.975285 125.447781 
L 185.057132 125.447781 
L 185.166915 113.145772 
L 185.200844 113.145772 
L 185.311587 102.521309 
L 185.391851 102.521309 
L 185.425339 100.28458 
L 185.553109 100.28458 
L 185.602848 96.929487 
L 185.667112 96.929487 
L 185.760325 91.896847 
L 185.811286 91.896847 
L 185.889256 86.864206 
L 185.972276 86.864206 
L 186.074595 81.831566 
L 186.103207 81.831566 
L 186.16741 77.358108 
L 186.224279 77.358108 
L 186.291567 70.088739 
L 186.34098 70.088739 
L 186.451643 62.81937 
L 186.491866 62.81937 
L 186.58941 57.227548 
L 186.625847 57.227548 
L 186.669124 54.990819 
L 186.746749 54.990819 
L 186.815455 49.958178 
L 186.870223 49.958178 
L 186.946947 48.280632 
L 187.006385 48.280632 
L 187.082505 41.570445 
L 187.146522 41.570445 
L 187.235413 39.333716 
L 187.260488 39.333716 
L 187.315523 37.096987 
L 187.388631 37.096987 
L 187.496066 33.182711 
L 187.501008 33.182711 
L 187.568411 32.064347 
L 187.692659 32.064347 
L 187.764184 28.150071 
L 187.846716 28.150071 
L 187.846716 27.590889 
L 187.999405 27.590889 
L 188.08878 25.913342 
L 188.117409 25.913342 
L 188.225135 23.117431 
L 188.278746 23.117431 
L 188.278746 22.558249 
L 188.522605 22.558249 
L 188.522605 19.203155 
L 188.700183 19.203155 
L 188.700183 17.525609 
L 188.81654 17.525609 
L 188.81654 16.407244 
L 189.229618 16.407244 
L 189.229618 14.729697 
L 189.407448 14.729697 
L 189.497145 13.052151 
L 189.590753 13.052151 
L 189.647546 11.933786 
L 189.861377 11.933786 
L 189.96873 10.256239 
L 190.041349 10.256239 
L 190.041349 9.697057 
L 333.168 9.697057 
L 333.168 9.697057 
" style="fill:none;stroke:#ff7500;stroke-linecap:square;stroke-width:1.5;"/>
   </g>
   <g id="line2d_47">
    <defs>
     <path d="M 0 -6 
L -1.347084 -1.854102 
L -5.706339 -1.854102 
L -2.179628 0.708204 
L -3.526712 4.854102 
L -0 2.291796 
L 3.526712 4.854102 
L 2.179628 0.708204 
L 5.706339 -1.854102 
L 1.347084 -1.854102 
z
" id="m77f048d871" style="stroke:#ff7500;stroke-linejoin:bevel;stroke-width:1.5;"/>
    </defs>
    <g>
     <use style="fill-opacity:0;stroke:#ff7500;stroke-linejoin:bevel;stroke-width:1.5;" x="154.779183" xlink:href="#m77f048d871" y="262.44743"/>
     <use style="fill-opacity:0;stroke:#ff7500;stroke-linejoin:bevel;stroke-width:1.5;" x="185.215902" xlink:href="#m77f048d871" y="110.909043"/>
     <use style="fill-opacity:0;stroke:#ff7500;stroke-linejoin:bevel;stroke-width:1.5;" x="190.041349" xlink:href="#m77f048d871" y="10.256239"/>
     <use style="fill-opacity:0;stroke:#ff7500;stroke-linejoin:bevel;stroke-width:1.5;" x="190.041349" xlink:href="#m77f048d871" y="9.697057"/>
     <use style="fill-opacity:0;stroke:#ff7500;stroke-linejoin:bevel;stroke-width:1.5;" x="190.041349" xlink:href="#m77f048d871" y="9.697057"/>
     <use style="fill-opacity:0;stroke:#ff7500;stroke-linejoin:bevel;stroke-width:1.5;" x="333.168" xlink:href="#m77f048d871" y="9.697057"/>
    </g>
   </g>
   <g id="line2d_48">
    <path style="fill:none;stroke:#ff7500;stroke-linecap:square;stroke-width:1.5;"/>
    <g/>
   </g>
   <g id="line2d_49">
    <defs>
     <path d="M 0 1.5 
C 0.397805 1.5 0.77937 1.341951 1.06066 1.06066 
C 1.341951 0.77937 1.5 0.397805 1.5 0 
C 1.5 -0.397805 1.341951 -0.77937 1.06066 -1.06066 
C 0.77937 -1.341951 0.397805 -1.5 0 -1.5 
C -0.397805 -1.5 -0.77937 -1.341951 -1.06066 -1.06066 
C -1.341951 -0.77937 -1.5 -0.397805 -1.5 0 
C -1.5 0.397805 -1.341951 0.77937 -1.06066 1.06066 
C -0.77937 1.341951 -0.397805 1.5 0 1.5 
z
" id="m4455cfb655" style="stroke:#6495ed;"/>
    </defs>
    <g>
     <use style="fill:#6495ed;stroke:#6495ed;" x="204.600164" xlink:href="#m4455cfb655" y="9.697057"/>
     <use style="fill:#6495ed;stroke:#6495ed;" x="204.600164" xlink:href="#m4455cfb655" y="9.697057"/>
    </g>
   </g>
   <g id="line2d_50">
    <path d="M 52.284468 294.88 
L 52.284468 294.320818 
L 80.787138 294.320818 
L 80.787138 293.761636 
L 97.646251 293.761636 
L 97.646251 293.202453 
L 99.67078 293.202453 
L 99.67078 292.643271 
L 105.218813 292.643271 
L 105.218813 292.084089 
L 105.991465 292.084089 
L 105.991465 291.524907 
L 106.730875 291.524907 
L 106.730875 290.965724 
L 106.910863 290.965724 
L 106.910863 290.406542 
L 109.864733 290.406542 
L 109.864733 289.288178 
L 113.148711 289.288178 
L 113.148711 288.728995 
L 114.581927 288.728995 
L 114.581927 288.169813 
L 114.696138 288.169813 
L 114.696138 287.610631 
L 116.010559 287.610631 
L 116.115688 286.492266 
L 119.179531 286.492266 
L 119.179531 285.933084 
L 119.526788 285.933084 
L 119.526788 284.81472 
L 120.034863 284.81472 
L 120.034863 284.255537 
L 120.609239 284.255537 
L 120.609239 283.696355 
L 121.627542 283.696355 
L 121.627542 283.137173 
L 123.430938 283.137173 
L 123.430938 282.577991 
L 125.310285 282.577991 
L 125.310285 282.018808 
L 127.115148 282.018808 
L 127.115148 281.459626 
L 129.194858 281.459626 
L 129.194858 280.900444 
L 131.181257 280.900444 
L 131.181257 280.341262 
L 131.612072 280.341262 
L 131.612072 279.782079 
L 131.949115 279.782079 
L 131.949115 279.222897 
L 132.644112 279.222897 
L 132.684132 277.545351 
L 133.805948 277.545351 
L 133.805948 276.986168 
L 135.447604 276.986168 
L 135.447604 276.426986 
L 137.070377 276.426986 
L 137.070377 275.308622 
L 140.022618 275.308622 
L 140.022618 274.190257 
L 140.460404 274.190257 
L 140.460404 273.631075 
L 142.69832 273.631075 
L 142.720629 272.51271 
L 143.290712 272.51271 
L 143.290712 271.953528 
L 146.236635 271.953528 
L 146.236635 271.394346 
L 146.878609 271.394346 
L 146.878609 270.835164 
L 147.531203 270.835164 
L 147.531203 270.275981 
L 150.749113 270.275981 
L 150.846657 269.157617 
L 152.195739 269.157617 
L 152.195739 268.598435 
L 152.962038 268.598435 
L 152.962038 268.039252 
L 155.085935 268.039252 
L 155.085935 267.48007 
L 156.462595 267.48007 
L 156.462595 266.920888 
L 157.995745 266.920888 
L 157.995745 266.361706 
L 160.35616 266.361706 
L 160.35616 265.802523 
L 161.6117 265.802523 
L 161.6117 265.243341 
L 162.501901 265.243341 
L 162.501901 264.684159 
L 163.301196 264.684159 
L 163.301196 264.124977 
L 163.588292 264.124977 
L 163.588292 263.565795 
L 164.244352 263.565795 
L 164.244352 262.44743 
L 165.253008 262.44743 
L 165.253008 261.329066 
L 166.194365 261.329066 
L 166.194365 260.769883 
L 166.414844 260.769883 
L 166.454119 259.651519 
L 166.891259 259.651519 
L 166.891259 258.533154 
L 169.827292 258.533154 
L 169.89624 257.41479 
L 171.915161 257.41479 
L 171.915161 256.855608 
L 172.206364 256.855608 
L 172.206364 256.296425 
L 173.555637 256.296425 
L 173.555637 255.737243 
L 173.911568 255.737243 
L 173.976814 254.618879 
L 174.82389 254.618879 
L 174.82389 253.500514 
L 175.585109 253.500514 
L 175.594991 252.38215 
L 176.09795 252.38215 
L 176.09795 251.822967 
L 176.496234 251.822967 
L 176.496234 251.263785 
L 176.63627 251.263785 
L 176.63627 250.704603 
L 177.173268 250.704603 
L 177.173268 250.145421 
L 177.298973 250.145421 
L 177.343646 249.027056 
L 177.491723 249.027056 
L 177.491723 248.467874 
L 178.017339 248.467874 
L 178.017339 247.908692 
L 178.906292 247.908692 
L 179.001085 246.790327 
L 179.572188 246.790327 
L 179.572188 246.231145 
L 180.308628 246.231145 
L 180.413437 245.112781 
L 180.430843 245.112781 
L 180.450714 243.435234 
L 180.88459 243.435234 
L 180.961874 238.961776 
L 181.373783 238.961776 
L 181.401992 237.843411 
L 181.688495 237.843411 
L 181.688495 237.284229 
L 181.870023 237.284229 
L 181.931627 233.929136 
L 182.298914 233.929136 
L 182.298914 233.369954 
L 182.612608 233.369954 
L 182.675975 231.692407 
L 182.741281 231.692407 
L 182.741281 230.01486 
L 182.856053 230.01486 
L 182.856053 229.455678 
L 182.970063 229.455678 
L 182.989349 227.778131 
L 183.108863 227.778131 
L 183.183139 224.98222 
L 183.609792 224.98222 
L 183.710714 223.304673 
L 183.896583 223.304673 
L 183.99382 222.186309 
L 184.292203 222.186309 
L 184.323939 221.067944 
L 184.499405 221.067944 
L 184.53859 219.390397 
L 184.643947 219.390397 
L 184.74286 218.272033 
L 184.787283 218.272033 
L 184.864267 217.153669 
L 184.906462 217.153669 
L 184.952375 214.91694 
L 185.163141 214.91694 
L 185.221545 213.239393 
L 185.414184 213.239393 
L 185.460617 211.002664 
L 185.529109 211.002664 
L 185.529109 210.443482 
L 185.749385 210.443482 
L 185.84034 205.410841 
L 185.919984 205.410841 
L 185.979476 204.292477 
L 186.038762 204.292477 
L 186.053104 202.055748 
L 186.154945 202.055748 
L 186.218955 200.378201 
L 186.296868 200.378201 
L 186.399035 198.141472 
L 186.414834 198.141472 
L 186.50409 196.463926 
L 186.585936 196.463926 
L 186.67431 191.990468 
L 186.757072 191.990468 
L 186.818883 189.753739 
L 186.895836 189.753739 
L 186.984332 186.957828 
L 187.030103 186.957828 
L 187.114543 182.48437 
L 187.191864 182.48437 
L 187.272177 180.247641 
L 187.312193 180.247641 
L 187.415139 177.451729 
L 187.439953 177.451729 
L 187.532276 173.537454 
L 187.588089 173.537454 
L 187.627377 171.300725 
L 187.70243 171.300725 
L 187.782018 167.945631 
L 187.841872 167.945631 
L 187.951334 165.708902 
L 187.956147 165.708902 
L 188.036169 162.353809 
L 188.071261 162.353809 
L 188.168188 160.11708 
L 188.196685 160.11708 
L 188.285043 155.08444 
L 188.310204 155.08444 
L 188.401108 152.288529 
L 188.468194 152.288529 
L 188.570655 151.170164 
L 188.595402 151.170164 
L 188.698647 146.696706 
L 188.753867 146.696706 
L 188.850076 139.427337 
L 188.868341 139.427337 
L 188.950293 137.190608 
L 189.007729 137.190608 
L 189.080008 133.835515 
L 189.135515 133.835515 
L 189.235575 132.71715 
L 189.266818 132.71715 
L 189.336537 127.125328 
L 189.377937 127.125328 
L 189.479537 123.211052 
L 189.494212 123.211052 
L 189.579079 120.974323 
L 189.670791 120.974323 
L 189.775009 115.382501 
L 189.835512 115.382501 
L 189.902966 109.790678 
L 189.964449 109.790678 
L 190.069744 104.758038 
L 190.081088 104.758038 
L 190.178627 99.725398 
L 190.201166 99.725398 
L 190.25177 97.488669 
L 190.328796 97.488669 
L 190.436055 94.692758 
L 190.470737 94.692758 
L 190.508114 93.574393 
L 190.61014 93.574393 
L 190.671888 90.2193 
L 190.730686 90.2193 
L 190.824616 84.068295 
L 190.889658 84.068295 
L 191.000205 77.917291 
L 191.021693 77.917291 
L 191.115386 76.239744 
L 191.261594 76.239744 
L 191.261594 75.121379 
L 191.428865 75.121379 
L 191.485133 71.766286 
L 191.730291 71.766286 
L 191.830456 68.970375 
L 191.850931 68.970375 
L 191.95167 63.937735 
L 192.117427 63.937735 
L 192.117427 63.378552 
L 192.23664 63.378552 
L 192.327688 61.141823 
L 192.425679 61.141823 
L 192.46151 59.464277 
L 192.872511 59.464277 
L 192.953065 56.668365 
L 193.05472 56.668365 
L 193.05472 56.109183 
L 193.35144 56.109183 
L 193.448442 54.990819 
L 193.595815 54.990819 
L 193.595815 54.431636 
L 194.122637 54.431636 
L 194.206476 53.313272 
L 194.247686 53.313272 
L 194.247686 52.75409 
L 194.547643 52.75409 
L 194.547643 52.194907 
L 199.033848 52.194907 
L 199.033848 51.635725 
L 199.258889 51.635725 
L 199.311999 49.398996 
L 199.654085 49.398996 
L 199.654085 48.839814 
L 200.057068 48.839814 
L 200.057068 48.280632 
L 200.307542 48.280632 
L 200.307542 47.72145 
L 200.436856 47.72145 
L 200.436856 46.043903 
L 200.789436 46.043903 
L 200.898576 43.807174 
L 201.029534 43.807174 
L 201.029534 43.247992 
L 201.16843 43.247992 
L 201.172149 42.129627 
L 201.303261 42.129627 
L 201.393054 40.45208 
L 201.444363 40.45208 
L 201.527598 38.215351 
L 201.635783 38.215351 
L 201.640848 36.537805 
L 201.791415 36.537805 
L 201.860135 34.860258 
L 202.021546 34.860258 
L 202.111897 32.623529 
L 202.22767 32.623529 
L 202.328074 28.709253 
L 202.376671 28.709253 
L 202.487235 24.794978 
L 202.672216 24.794978 
L 202.706934 22.558249 
L 202.840388 22.558249 
L 202.926546 20.880702 
L 203.062309 20.880702 
L 203.153993 19.762337 
L 203.214184 19.762337 
L 203.255732 18.084791 
L 203.350979 18.084791 
L 203.350979 16.966426 
L 203.579378 16.966426 
L 203.610378 15.28888 
L 203.790742 15.28888 
L 203.790742 14.729697 
L 204.026011 14.729697 
L 204.026011 13.611333 
L 204.150892 13.611333 
L 204.150892 11.933786 
L 204.364032 11.933786 
L 204.364032 10.815422 
L 204.487716 10.815422 
L 204.487716 10.256239 
L 204.600164 10.256239 
L 204.600164 9.697057 
L 333.168 9.697057 
L 333.168 9.697057 
" style="fill:none;stroke:#6495ed;stroke-linecap:square;stroke-width:1.5;"/>
   </g>
   <g id="line2d_51">
    <defs>
     <path d="M -0 6 
L 6 -6 
L -6 -6 
z
" id="m11f79ec0bb" style="stroke:#6495ed;stroke-linejoin:miter;stroke-width:1.5;"/>
    </defs>
    <g>
     <use style="fill-opacity:0;stroke:#6495ed;stroke-linejoin:miter;stroke-width:1.5;" x="99.67078" xlink:href="#m11f79ec0bb" y="293.202453"/>
     <use style="fill-opacity:0;stroke:#6495ed;stroke-linejoin:miter;stroke-width:1.5;" x="177.343646" xlink:href="#m11f79ec0bb" y="249.027056"/>
     <use style="fill-opacity:0;stroke:#6495ed;stroke-linejoin:miter;stroke-width:1.5;" x="191.096688" xlink:href="#m11f79ec0bb" y="77.358108"/>
     <use style="fill-opacity:0;stroke:#6495ed;stroke-linejoin:miter;stroke-width:1.5;" x="204.600164" xlink:href="#m11f79ec0bb" y="10.256239"/>
     <use style="fill-opacity:0;stroke:#6495ed;stroke-linejoin:miter;stroke-width:1.5;" x="204.600164" xlink:href="#m11f79ec0bb" y="9.697057"/>
     <use style="fill-opacity:0;stroke:#6495ed;stroke-linejoin:miter;stroke-width:1.5;" x="333.168" xlink:href="#m11f79ec0bb" y="9.697057"/>
    </g>
   </g>
   <g id="line2d_52">
    <path style="fill:none;stroke:#6495ed;stroke-linecap:square;stroke-width:1.5;"/>
    <g/>
   </g>
   <g id="line2d_53">
    <defs>
     <path d="M 0 1.5 
C 0.397805 1.5 0.77937 1.341951 1.06066 1.06066 
C 1.341951 0.77937 1.5 0.397805 1.5 0 
C 1.5 -0.397805 1.341951 -0.77937 1.06066 -1.06066 
C 0.77937 -1.341951 0.397805 -1.5 0 -1.5 
C -0.397805 -1.5 -0.77937 -1.341951 -1.06066 -1.06066 
C -1.341951 -0.77937 -1.5 -0.397805 -1.5 0 
C -1.5 0.397805 -1.341951 0.77937 -1.06066 1.06066 
C -0.77937 1.341951 -0.397805 1.5 0 1.5 
z
" id="m5a4e7d3c00" style="stroke:#ff0000;"/>
    </defs>
    <g>
     <use style="fill:#ff0000;stroke:#ff0000;" x="61.903497" xlink:href="#m5a4e7d3c00" y="9.697057"/>
     <use style="fill:#ff0000;stroke:#ff0000;" x="61.903497" xlink:href="#m5a4e7d3c00" y="9.697057"/>
    </g>
   </g>
   <g id="line2d_54">
    <path d="M 28.455965 294.88 
L 28.455965 293.202453 
L 40.370217 293.202453 
L 40.370217 292.643271 
L 47.339607 292.643271 
L 47.339607 288.728995 
L 52.284468 288.728995 
L 52.284468 286.492266 
L 56.12 286.492266 
L 56.12 285.933084 
L 59.253858 285.933084 
L 59.253858 285.373902 
L 61.903497 285.373902 
L 61.903497 9.697057 
L 333.168 9.697057 
" style="fill:none;stroke:#ff0000;stroke-linecap:square;stroke-width:1.5;"/>
   </g>
   <g id="line2d_55">
    <defs>
     <path d="M 0 -6 
L -5.196152 -3 
L -5.196152 3 
L -0 6 
L 5.196152 3 
L 5.196152 -3 
z
" id="m74a4825b47" style="stroke:#ff0000;stroke-linejoin:miter;stroke-width:1.5;"/>
    </defs>
    <g>
     <use style="fill-opacity:0;stroke:#ff0000;stroke-linejoin:miter;stroke-width:1.5;" x="59.253858" xlink:href="#m74a4825b47" y="285.373902"/>
     <use style="fill-opacity:0;stroke:#ff0000;stroke-linejoin:miter;stroke-width:1.5;" x="61.903497" xlink:href="#m74a4825b47" y="285.373902"/>
     <use style="fill-opacity:0;stroke:#ff0000;stroke-linejoin:miter;stroke-width:1.5;" x="61.903497" xlink:href="#m74a4825b47" y="285.373902"/>
     <use style="fill-opacity:0;stroke:#ff0000;stroke-linejoin:miter;stroke-width:1.5;" x="61.903497" xlink:href="#m74a4825b47" y="9.697057"/>
     <use style="fill-opacity:0;stroke:#ff0000;stroke-linejoin:miter;stroke-width:1.5;" x="61.903497" xlink:href="#m74a4825b47" y="9.697057"/>
     <use style="fill-opacity:0;stroke:#ff0000;stroke-linejoin:miter;stroke-width:1.5;" x="333.168" xlink:href="#m74a4825b47" y="9.697057"/>
    </g>
   </g>
   <g id="line2d_56">
    <path style="fill:none;stroke:#ff0000;stroke-linecap:square;stroke-width:1.5;"/>
    <g/>
   </g>
   <g id="line2d_57">
    <path d="M 333.168 9.697057 
L 363.64328 289.176341 
" style="fill:none;stroke:#6495ed;stroke-linecap:square;stroke-width:1.5;"/>
    <g>
     <use style="fill-opacity:0;stroke:#6495ed;stroke-linejoin:miter;stroke-width:1.5;" x="333.168" xlink:href="#m11f79ec0bb" y="9.697057"/>
     <use style="fill-opacity:0;stroke:#6495ed;stroke-linejoin:miter;stroke-width:1.5;" x="363.64328" xlink:href="#m11f79ec0bb" y="289.176341"/>
    </g>
   </g>
   <g id="line2d_58">
    <path d="M 333.168 9.697057 
L 363.64328 220.732435 
" style="fill:none;stroke:#ff7500;stroke-linecap:square;stroke-width:1.5;"/>
    <g>
     <use style="fill-opacity:0;stroke:#ff7500;stroke-linejoin:bevel;stroke-width:1.5;" x="333.168" xlink:href="#m77f048d871" y="9.697057"/>
     <use style="fill-opacity:0;stroke:#ff7500;stroke-linejoin:bevel;stroke-width:1.5;" x="363.64328" xlink:href="#m77f048d871" y="220.732435"/>
    </g>
   </g>
   <g id="line2d_59">
    <path d="M 333.168 9.697057 
L 363.64328 152.288529 
" style="fill:none;stroke:#ff00ff;stroke-linecap:square;stroke-width:1.5;"/>
    <g>
     <use style="fill-opacity:0;stroke:#ff00ff;stroke-linejoin:miter;stroke-width:1.5;" x="333.168" xlink:href="#me4287e8ab3" y="9.697057"/>
     <use style="fill-opacity:0;stroke:#ff00ff;stroke-linejoin:miter;stroke-width:1.5;" x="363.64328" xlink:href="#me4287e8ab3" y="152.288529"/>
    </g>
   </g>
   <g id="line2d_60">
    <path d="M 333.168 9.697057 
L 363.64328 83.844622 
" style="fill:none;stroke:#000080;stroke-linecap:square;stroke-width:1.5;"/>
    <g>
     <use style="fill-opacity:0;stroke:#000080;stroke-width:1.5;" x="333.168" xlink:href="#m16e680240b" y="9.697057"/>
     <use style="fill-opacity:0;stroke:#000080;stroke-width:1.5;" x="363.64328" xlink:href="#m16e680240b" y="83.844622"/>
    </g>
   </g>
   <g id="line2d_61">
    <path d="M 333.168 9.697057 
L 363.64328 15.400716 
" style="fill:none;stroke:#ff0000;stroke-linecap:square;stroke-width:1.5;"/>
    <g>
     <use style="fill-opacity:0;stroke:#ff0000;stroke-linejoin:miter;stroke-width:1.5;" x="333.168" xlink:href="#m74a4825b47" y="9.697057"/>
     <use style="fill-opacity:0;stroke:#ff0000;stroke-linejoin:miter;stroke-width:1.5;" x="363.64328" xlink:href="#m74a4825b47" y="15.400716"/>
    </g>
   </g>
   <g id="line2d_62">
    <path d="M 333.168 294.88 
L 333.168 9.697057 
" style="fill:none;stroke:#000000;stroke-linecap:square;stroke-width:1.5;"/>
   </g>
   <g id="patch_3">
    <path d="M 56.12 294.88 
L 56.12 6.845228 
" style="fill:none;stroke:#000000;stroke-linecap:square;stroke-linejoin:miter;stroke-width:0.8;"/>
   </g>
   <g id="patch_4">
    <path d="M 333.168 294.88 
L 333.168 6.845228 
" style="fill:none;stroke:#000000;stroke-linecap:square;stroke-linejoin:miter;stroke-width:0.8;"/>
   </g>
   <g id="patch_5">
    <path d="M 56.12 294.88 
L 333.168 294.88 
" style="fill:none;stroke:#000000;stroke-linecap:square;stroke-linejoin:miter;stroke-width:0.8;"/>
   </g>
   <g id="patch_6">
    <path d="M 56.12 6.845228 
L 333.168 6.845228 
" style="fill:none;stroke:#000000;stroke-linecap:square;stroke-linejoin:miter;stroke-width:0.8;"/>
   </g>
   <g id="text_13">
    <!-- f4 -->
    <g transform="translate(369.18424 293.867279)scale(0.17 -0.17)">
     <use xlink:href="#DejaVuSans-66"/>
     <use x="35.205078" xlink:href="#DejaVuSans-34"/>
    </g>
   </g>
   <g id="text_14">
    <!-- f3 -->
    <defs>
     <path d="M 40.578125 39.3125 
Q 47.65625 37.796875 51.625 33 
Q 55.609375 28.21875 55.609375 21.1875 
Q 55.609375 10.40625 48.1875 4.484375 
Q 40.765625 -1.421875 27.09375 -1.421875 
Q 22.515625 -1.421875 17.65625 -0.515625 
Q 12.796875 0.390625 7.625 2.203125 
L 7.625 11.71875 
Q 11.71875 9.328125 16.59375 8.109375 
Q 21.484375 6.890625 26.8125 6.890625 
Q 36.078125 6.890625 40.9375 10.546875 
Q 45.796875 14.203125 45.796875 21.1875 
Q 45.796875 27.640625 41.28125 31.265625 
Q 36.765625 34.90625 28.71875 34.90625 
L 20.21875 34.90625 
L 20.21875 43.015625 
L 29.109375 43.015625 
Q 36.375 43.015625 40.234375 45.921875 
Q 44.09375 48.828125 44.09375 54.296875 
Q 44.09375 59.90625 40.109375 62.90625 
Q 36.140625 65.921875 28.71875 65.921875 
Q 24.65625 65.921875 20.015625 65.03125 
Q 15.375 64.15625 9.8125 62.3125 
L 9.8125 71.09375 
Q 15.4375 72.65625 20.34375 73.4375 
Q 25.25 74.21875 29.59375 74.21875 
Q 40.828125 74.21875 47.359375 69.109375 
Q 53.90625 64.015625 53.90625 55.328125 
Q 53.90625 49.265625 50.4375 45.09375 
Q 46.96875 40.921875 40.578125 39.3125 
z
" id="DejaVuSans-33"/>
    </defs>
    <g transform="translate(369.18424 225.423372)scale(0.17 -0.17)">
     <use xlink:href="#DejaVuSans-66"/>
     <use x="35.205078" xlink:href="#DejaVuSans-33"/>
    </g>
   </g>
   <g id="text_15">
    <!-- f2 -->
    <g transform="translate(369.18424 156.979466)scale(0.17 -0.17)">
     <use xlink:href="#DejaVuSans-66"/>
     <use x="35.205078" xlink:href="#DejaVuSans-32"/>
    </g>
   </g>
   <g id="text_16">
    <!-- f1 -->
    <g transform="translate(369.18424 88.53556)scale(0.17 -0.17)">
     <use xlink:href="#DejaVuSans-66"/>
     <use x="35.205078" xlink:href="#DejaVuSans-31"/>
    </g>
   </g>
   <g id="text_17">
    <!-- f5 -->
    <defs>
     <path d="M 10.796875 72.90625 
L 49.515625 72.90625 
L 49.515625 64.59375 
L 19.828125 64.59375 
L 19.828125 46.734375 
Q 21.96875 47.46875 24.109375 47.828125 
Q 26.265625 48.1875 28.421875 48.1875 
Q 40.625 48.1875 47.75 41.5 
Q 54.890625 34.8125 54.890625 23.390625 
Q 54.890625 11.625 47.5625 5.09375 
Q 40.234375 -1.421875 26.90625 -1.421875 
Q 22.3125 -1.421875 17.546875 -0.640625 
Q 12.796875 0.140625 7.71875 1.703125 
L 7.71875 11.625 
Q 12.109375 9.234375 16.796875 8.0625 
Q 21.484375 6.890625 26.703125 6.890625 
Q 35.15625 6.890625 40.078125 11.328125 
Q 45.015625 15.765625 45.015625 23.390625 
Q 45.015625 31 40.078125 35.4375 
Q 35.15625 39.890625 26.703125 39.890625 
Q 22.75 39.890625 18.8125 39.015625 
Q 14.890625 38.140625 10.796875 36.28125 
z
" id="DejaVuSans-35"/>
    </defs>
    <g transform="translate(369.18424 20.091654)scale(0.17 -0.17)">
     <use xlink:href="#DejaVuSans-66"/>
     <use x="35.205078" xlink:href="#DejaVuSans-35"/>
    </g>
   </g>
   <g id="text_18">
    <!-- bbob -->
    <defs>
     <path d="M 48.6875 27.296875 
Q 48.6875 37.203125 44.609375 42.84375 
Q 40.53125 48.484375 33.40625 48.484375 
Q 26.265625 48.484375 22.1875 42.84375 
Q 18.109375 37.203125 18.109375 27.296875 
Q 18.109375 17.390625 22.1875 11.75 
Q 26.265625 6.109375 33.40625 6.109375 
Q 40.53125 6.109375 44.609375 11.75 
Q 48.6875 17.390625 48.6875 27.296875 
z
M 18.109375 46.390625 
Q 20.953125 51.265625 25.265625 53.625 
Q 29.59375 56 35.59375 56 
Q 45.5625 56 51.78125 48.09375 
Q 58.015625 40.1875 58.015625 27.296875 
Q 58.015625 14.40625 51.78125 6.484375 
Q 45.5625 -1.421875 35.59375 -1.421875 
Q 29.59375 -1.421875 25.265625 0.953125 
Q 20.953125 3.328125 18.109375 8.203125 
L 18.109375 0 
L 9.078125 0 
L 9.078125 75.984375 
L 18.109375 75.984375 
z
" id="DejaVuSans-62"/>
    </defs>
    <g transform="translate(58.89048 17.475982)scale(0.102 -0.102)">
     <use xlink:href="#DejaVuSans-62"/>
     <use x="63.476562" xlink:href="#DejaVuSans-62"/>
     <use x="126.953125" xlink:href="#DejaVuSans-6f"/>
     <use x="188.134766" xlink:href="#DejaVuSans-62"/>
    </g>
    <!-- Separable functions, 5-D -->
    <defs>
     <path d="M 53.515625 70.515625 
L 53.515625 60.890625 
Q 47.90625 63.578125 42.921875 64.890625 
Q 37.9375 66.21875 33.296875 66.21875 
Q 25.25 66.21875 20.875 63.09375 
Q 16.5 59.96875 16.5 54.203125 
Q 16.5 49.359375 19.40625 46.890625 
Q 22.3125 44.4375 30.421875 42.921875 
L 36.375 41.703125 
Q 47.40625 39.59375 52.65625 34.296875 
Q 57.90625 29 57.90625 20.125 
Q 57.90625 9.515625 50.796875 4.046875 
Q 43.703125 -1.421875 29.984375 -1.421875 
Q 24.8125 -1.421875 18.96875 -0.25 
Q 13.140625 0.921875 6.890625 3.21875 
L 6.890625 13.375 
Q 12.890625 10.015625 18.65625 8.296875 
Q 24.421875 6.59375 29.984375 6.59375 
Q 38.421875 6.59375 43.015625 9.90625 
Q 47.609375 13.234375 47.609375 19.390625 
Q 47.609375 24.75 44.3125 27.78125 
Q 41.015625 30.8125 33.5 32.328125 
L 27.484375 33.5 
Q 16.453125 35.6875 11.515625 40.375 
Q 6.59375 45.0625 6.59375 53.421875 
Q 6.59375 63.09375 13.40625 68.65625 
Q 20.21875 74.21875 32.171875 74.21875 
Q 37.3125 74.21875 42.625 73.28125 
Q 47.953125 72.359375 53.515625 70.515625 
z
" id="DejaVuSans-53"/>
     <path d="M 19.671875 64.796875 
L 19.671875 8.109375 
L 31.59375 8.109375 
Q 46.6875 8.109375 53.6875 14.9375 
Q 60.6875 21.78125 60.6875 36.53125 
Q 60.6875 51.171875 53.6875 57.984375 
Q 46.6875 64.796875 31.59375 64.796875 
z
M 9.8125 72.90625 
L 30.078125 72.90625 
Q 51.265625 72.90625 61.171875 64.09375 
Q 71.09375 55.28125 71.09375 36.53125 
Q 71.09375 17.671875 61.125 8.828125 
Q 51.171875 0 30.078125 0 
L 9.8125 0 
z
" id="DejaVuSans-44"/>
    </defs>
    <g transform="translate(58.89048 28.89775)scale(0.102 -0.102)">
     <use xlink:href="#DejaVuSans-53"/>
     <use x="63.476562" xlink:href="#DejaVuSans-65"/>
     <use x="125" xlink:href="#DejaVuSans-70"/>
     <use x="188.476562" xlink:href="#DejaVuSans-61"/>
     <use x="249.755859" xlink:href="#DejaVuSans-72"/>
     <use x="290.869141" xlink:href="#DejaVuSans-61"/>
     <use x="352.148438" xlink:href="#DejaVuSans-62"/>
     <use x="415.625" xlink:href="#DejaVuSans-6c"/>
     <use x="443.408203" xlink:href="#DejaVuSans-65"/>
     <use x="504.931641" xlink:href="#DejaVuSans-20"/>
     <use x="536.71875" xlink:href="#DejaVuSans-66"/>
     <use x="571.923828" xlink:href="#DejaVuSans-75"/>
     <use x="635.302734" xlink:href="#DejaVuSans-6e"/>
     <use x="698.681641" xlink:href="#DejaVuSans-63"/>
     <use x="753.662109" xlink:href="#DejaVuSans-74"/>
     <use x="792.871094" xlink:href="#DejaVuSans-69"/>
     <use x="820.654297" xlink:href="#DejaVuSans-6f"/>
     <use x="881.835938" xlink:href="#DejaVuSans-6e"/>
     <use x="945.214844" xlink:href="#DejaVuSans-73"/>
     <use x="997.314453" xlink:href="#DejaVuSans-2c"/>
     <use x="1029.101562" xlink:href="#DejaVuSans-20"/>
     <use x="1060.888672" xlink:href="#DejaVuSans-35"/>
     <use x="1124.511719" xlink:href="#DejaVuSans-2d"/>
     <use x="1160.595703" xlink:href="#DejaVuSans-44"/>
    </g>
    <!-- 51 targets: 100..1e-08 -->
    <defs>
     <path d="M 11.71875 12.40625 
L 22.015625 12.40625 
L 22.015625 0 
L 11.71875 0 
z
M 11.71875 51.703125 
L 22.015625 51.703125 
L 22.015625 39.3125 
L 11.71875 39.3125 
z
" id="DejaVuSans-3a"/>
    </defs>
    <g transform="translate(58.89048 40.319519)scale(0.102 -0.102)">
     <use xlink:href="#DejaVuSans-35"/>
     <use x="63.623047" xlink:href="#DejaVuSans-31"/>
     <use x="127.246094" xlink:href="#DejaVuSans-20"/>
     <use x="159.033203" xlink:href="#DejaVuSans-74"/>
     <use x="198.242188" xlink:href="#DejaVuSans-61"/>
     <use x="259.521484" xlink:href="#DejaVuSans-72"/>
     <use x="300.619141" xlink:href="#DejaVuSans-67"/>
     <use x="364.095703" xlink:href="#DejaVuSans-65"/>
     <use x="425.619141" xlink:href="#DejaVuSans-74"/>
     <use x="464.828125" xlink:href="#DejaVuSans-73"/>
     <use x="516.927734" xlink:href="#DejaVuSans-3a"/>
     <use x="550.619141" xlink:href="#DejaVuSans-20"/>
     <use x="582.40625" xlink:href="#DejaVuSans-31"/>
     <use x="646.029297" xlink:href="#DejaVuSans-30"/>
     <use x="709.652344" xlink:href="#DejaVuSans-30"/>
     <use x="773.275391" xlink:href="#DejaVuSans-2e"/>
     <use x="805.0625" xlink:href="#DejaVuSans-2e"/>
     <use x="836.849609" xlink:href="#DejaVuSans-31"/>
     <use x="900.472656" xlink:href="#DejaVuSans-65"/>
     <use x="961.996094" xlink:href="#DejaVuSans-2d"/>
     <use x="998.080078" xlink:href="#DejaVuSans-30"/>
     <use x="1061.703125" xlink:href="#DejaVuSans-38"/>
    </g>
    <!-- 15 instances -->
    <g transform="translate(58.89048 51.741288)scale(0.102 -0.102)">
     <use xlink:href="#DejaVuSans-31"/>
     <use x="63.623047" xlink:href="#DejaVuSans-35"/>
     <use x="127.246094" xlink:href="#DejaVuSans-20"/>
     <use x="159.033203" xlink:href="#DejaVuSans-69"/>
     <use x="186.816406" xlink:href="#DejaVuSans-6e"/>
     <use x="250.195312" xlink:href="#DejaVuSans-73"/>
     <use x="302.294922" xlink:href="#DejaVuSans-74"/>
     <use x="341.503906" xlink:href="#DejaVuSans-61"/>
     <use x="402.783203" xlink:href="#DejaVuSans-6e"/>
     <use x="466.162109" xlink:href="#DejaVuSans-63"/>
     <use x="521.142578" xlink:href="#DejaVuSans-65"/>
     <use x="582.666016" xlink:href="#DejaVuSans-73"/>
    </g>
   </g>
   <g id="text_19">
    <!-- v2.4 -->
    <g style="fill:#808080;" transform="translate(183.733063 289.919965)scale(0.1 -0.1)">
     <use xlink:href="#DejaVuSans-76"/>
     <use x="59.179688" xlink:href="#DejaVuSans-32"/>
     <use x="122.802734" xlink:href="#DejaVuSans-2e"/>
     <use x="154.589844" xlink:href="#DejaVuSans-34"/>
    </g>
   </g>
  </g>
 </g>
 <defs>
  <clipPath id="p8d76513020">
   <rect height="288.034772" width="277.048" x="56.12" y="6.845228"/>
  </clipPath>
 </defs>
</svg>
