<?xml version="1.0" encoding="utf-8" standalone="no"?>
<!DOCTYPE svg PUBLIC "-//W3C//DTD SVG 1.1//EN"
  "http://www.w3.org/Graphics/SVG/1.1/DTD/svg11.dtd">
<!-- Created with matplotlib (http://matplotlib.org/) -->
<svg height="345.6pt" version="1.1" viewBox="0 0 460.8 345.6" width="460.8pt" xmlns="http://www.w3.org/2000/svg" xmlns:xlink="http://www.w3.org/1999/xlink">
 <defs>
  <style type="text/css">
*{stroke-linecap:butt;stroke-linejoin:round;}
  </style>
 </defs>
 <g id="figure_1">
  <g id="patch_1">
   <path d="M 0 345.6 
L 460.8 345.6 
L 460.8 0 
L 0 0 
z
" style="fill:#ffffff;"/>
  </g>
  <g id="axes_1">
   <g id="patch_2">
    <path d="M 56.12 294.88 
L 333.168 294.88 
L 333.168 24.84 
L 56.12 24.84 
z
" style="fill:#ffffff;"/>
   </g>
   <g id="matplotlib.axis_1">
    <g id="xtick_1">
     <g id="line2d_1">
      <path clip-path="url(#pc3004949bc)" d="M 56.12 294.88 
L 56.12 24.84 
" style="fill:none;stroke:#b0b0b0;stroke-linecap:square;stroke-width:0.8;"/>
     </g>
     <g id="line2d_2">
      <defs>
       <path d="M 0 0 
L 0 3.5 
" id="m799784f8c1" style="stroke:#000000;stroke-width:0.8;"/>
      </defs>
      <g>
       <use style="stroke:#000000;stroke-width:0.8;" x="56.12" xlink:href="#m799784f8c1" y="294.88"/>
      </g>
     </g>
     <g id="text_1">
      <!-- 0 -->
      <defs>
       <path d="M 31.78125 66.40625 
Q 24.171875 66.40625 20.328125 58.90625 
Q 16.5 51.421875 16.5 36.375 
Q 16.5 21.390625 20.328125 13.890625 
Q 24.171875 6.390625 31.78125 6.390625 
Q 39.453125 6.390625 43.28125 13.890625 
Q 47.125 21.390625 47.125 36.375 
Q 47.125 51.421875 43.28125 58.90625 
Q 39.453125 66.40625 31.78125 66.40625 
z
M 31.78125 74.21875 
Q 44.046875 74.21875 50.515625 64.515625 
Q 56.984375 54.828125 56.984375 36.375 
Q 56.984375 17.96875 50.515625 8.265625 
Q 44.046875 -1.421875 31.78125 -1.421875 
Q 19.53125 -1.421875 13.0625 8.265625 
Q 6.59375 17.96875 6.59375 36.375 
Q 6.59375 54.828125 13.0625 64.515625 
Q 19.53125 74.21875 31.78125 74.21875 
z
" id="DejaVuSans-30"/>
      </defs>
      <g transform="translate(49.7575 317.076875)scale(0.2 -0.2)">
       <use xlink:href="#DejaVuSans-30"/>
      </g>
     </g>
    </g>
    <g id="xtick_2">
     <g id="line2d_3">
      <path clip-path="url(#pc3004949bc)" d="M 135.276571 294.88 
L 135.276571 24.84 
" style="fill:none;stroke:#b0b0b0;stroke-linecap:square;stroke-width:0.8;"/>
     </g>
     <g id="line2d_4">
      <g>
       <use style="stroke:#000000;stroke-width:0.8;" x="135.276571" xlink:href="#m799784f8c1" y="294.88"/>
      </g>
     </g>
     <g id="text_2">
      <!-- 2 -->
      <defs>
       <path d="M 19.1875 8.296875 
L 53.609375 8.296875 
L 53.609375 0 
L 7.328125 0 
L 7.328125 8.296875 
Q 12.9375 14.109375 22.625 23.890625 
Q 32.328125 33.6875 34.8125 36.53125 
Q 39.546875 41.84375 41.421875 45.53125 
Q 43.3125 49.21875 43.3125 52.78125 
Q 43.3125 58.59375 39.234375 62.25 
Q 35.15625 65.921875 28.609375 65.921875 
Q 23.96875 65.921875 18.8125 64.3125 
Q 13.671875 62.703125 7.8125 59.421875 
L 7.8125 69.390625 
Q 13.765625 71.78125 18.9375 73 
Q 24.125 74.21875 28.421875 74.21875 
Q 39.75 74.21875 46.484375 68.546875 
Q 53.21875 62.890625 53.21875 53.421875 
Q 53.21875 48.921875 51.53125 44.890625 
Q 49.859375 40.875 45.40625 35.40625 
Q 44.1875 33.984375 37.640625 27.21875 
Q 31.109375 20.453125 19.1875 8.296875 
z
" id="DejaVuSans-32"/>
      </defs>
      <g transform="translate(128.914071 317.076875)scale(0.2 -0.2)">
       <use xlink:href="#DejaVuSans-32"/>
      </g>
     </g>
    </g>
    <g id="xtick_3">
     <g id="line2d_5">
      <path clip-path="url(#pc3004949bc)" d="M 214.433143 294.88 
L 214.433143 24.84 
" style="fill:none;stroke:#b0b0b0;stroke-linecap:square;stroke-width:0.8;"/>
     </g>
     <g id="line2d_6">
      <g>
       <use style="stroke:#000000;stroke-width:0.8;" x="214.433143" xlink:href="#m799784f8c1" y="294.88"/>
      </g>
     </g>
     <g id="text_3">
      <!-- 4 -->
      <defs>
       <path d="M 37.796875 64.3125 
L 12.890625 25.390625 
L 37.796875 25.390625 
z
M 35.203125 72.90625 
L 47.609375 72.90625 
L 47.609375 25.390625 
L 58.015625 25.390625 
L 58.015625 17.1875 
L 47.609375 17.1875 
L 47.609375 0 
L 37.796875 0 
L 37.796875 17.1875 
L 4.890625 17.1875 
L 4.890625 26.703125 
z
" id="DejaVuSans-34"/>
      </defs>
      <g transform="translate(208.070643 317.076875)scale(0.2 -0.2)">
       <use xlink:href="#DejaVuSans-34"/>
      </g>
     </g>
    </g>
    <g id="xtick_4">
     <g id="line2d_7">
      <path clip-path="url(#pc3004949bc)" d="M 293.589714 294.88 
L 293.589714 24.84 
" style="fill:none;stroke:#b0b0b0;stroke-linecap:square;stroke-width:0.8;"/>
     </g>
     <g id="line2d_8">
      <g>
       <use style="stroke:#000000;stroke-width:0.8;" x="293.589714" xlink:href="#m799784f8c1" y="294.88"/>
      </g>
     </g>
     <g id="text_4">
      <!-- 6 -->
      <defs>
       <path d="M 33.015625 40.375 
Q 26.375 40.375 22.484375 35.828125 
Q 18.609375 31.296875 18.609375 23.390625 
Q 18.609375 15.53125 22.484375 10.953125 
Q 26.375 6.390625 33.015625 6.390625 
Q 39.65625 6.390625 43.53125 10.953125 
Q 47.40625 15.53125 47.40625 23.390625 
Q 47.40625 31.296875 43.53125 35.828125 
Q 39.65625 40.375 33.015625 40.375 
z
M 52.59375 71.296875 
L 52.59375 62.3125 
Q 48.875 64.0625 45.09375 64.984375 
Q 41.3125 65.921875 37.59375 65.921875 
Q 27.828125 65.921875 22.671875 59.328125 
Q 17.53125 52.734375 16.796875 39.40625 
Q 19.671875 43.65625 24.015625 45.921875 
Q 28.375 48.1875 33.59375 48.1875 
Q 44.578125 48.1875 50.953125 41.515625 
Q 57.328125 34.859375 57.328125 23.390625 
Q 57.328125 12.15625 50.6875 5.359375 
Q 44.046875 -1.421875 33.015625 -1.421875 
Q 20.359375 -1.421875 13.671875 8.265625 
Q 6.984375 17.96875 6.984375 36.375 
Q 6.984375 53.65625 15.1875 63.9375 
Q 23.390625 74.21875 37.203125 74.21875 
Q 40.921875 74.21875 44.703125 73.484375 
Q 48.484375 72.75 52.59375 71.296875 
z
" id="DejaVuSans-36"/>
      </defs>
      <g transform="translate(287.227214 317.076875)scale(0.2 -0.2)">
       <use xlink:href="#DejaVuSans-36"/>
      </g>
     </g>
    </g>
    <g id="xtick_5">
     <g id="line2d_9">
      <path clip-path="url(#pc3004949bc)" d="M 56.12 294.88 
L 56.12 24.84 
" style="fill:none;stroke:#b0b0b0;stroke-linecap:square;stroke-width:0.8;"/>
     </g>
     <g id="line2d_10">
      <defs>
       <path d="M 0 0 
L 0 2 
" id="me6491a8b56" style="stroke:#000000;stroke-width:0.6;"/>
      </defs>
      <g>
       <use style="stroke:#000000;stroke-width:0.6;" x="56.12" xlink:href="#me6491a8b56" y="294.88"/>
      </g>
     </g>
    </g>
    <g id="xtick_6">
     <g id="line2d_11">
      <path clip-path="url(#pc3004949bc)" d="M 95.698286 294.88 
L 95.698286 24.84 
" style="fill:none;stroke:#b0b0b0;stroke-linecap:square;stroke-width:0.8;"/>
     </g>
     <g id="line2d_12">
      <g>
       <use style="stroke:#000000;stroke-width:0.6;" x="95.698286" xlink:href="#me6491a8b56" y="294.88"/>
      </g>
     </g>
    </g>
    <g id="xtick_7">
     <g id="line2d_13">
      <path clip-path="url(#pc3004949bc)" d="M 135.276571 294.88 
L 135.276571 24.84 
" style="fill:none;stroke:#b0b0b0;stroke-linecap:square;stroke-width:0.8;"/>
     </g>
     <g id="line2d_14">
      <g>
       <use style="stroke:#000000;stroke-width:0.6;" x="135.276571" xlink:href="#me6491a8b56" y="294.88"/>
      </g>
     </g>
    </g>
    <g id="xtick_8">
     <g id="line2d_15">
      <path clip-path="url(#pc3004949bc)" d="M 174.854857 294.88 
L 174.854857 24.84 
" style="fill:none;stroke:#b0b0b0;stroke-linecap:square;stroke-width:0.8;"/>
     </g>
     <g id="line2d_16">
      <g>
       <use style="stroke:#000000;stroke-width:0.6;" x="174.854857" xlink:href="#me6491a8b56" y="294.88"/>
      </g>
     </g>
    </g>
    <g id="xtick_9">
     <g id="line2d_17">
      <path clip-path="url(#pc3004949bc)" d="M 214.433143 294.88 
L 214.433143 24.84 
" style="fill:none;stroke:#b0b0b0;stroke-linecap:square;stroke-width:0.8;"/>
     </g>
     <g id="line2d_18">
      <g>
       <use style="stroke:#000000;stroke-width:0.6;" x="214.433143" xlink:href="#me6491a8b56" y="294.88"/>
      </g>
     </g>
    </g>
    <g id="xtick_10">
     <g id="line2d_19">
      <path clip-path="url(#pc3004949bc)" d="M 254.011429 294.88 
L 254.011429 24.84 
" style="fill:none;stroke:#b0b0b0;stroke-linecap:square;stroke-width:0.8;"/>
     </g>
     <g id="line2d_20">
      <g>
       <use style="stroke:#000000;stroke-width:0.6;" x="254.011429" xlink:href="#me6491a8b56" y="294.88"/>
      </g>
     </g>
    </g>
    <g id="xtick_11">
     <g id="line2d_21">
      <path clip-path="url(#pc3004949bc)" d="M 293.589714 294.88 
L 293.589714 24.84 
" style="fill:none;stroke:#b0b0b0;stroke-linecap:square;stroke-width:0.8;"/>
     </g>
     <g id="line2d_22">
      <g>
       <use style="stroke:#000000;stroke-width:0.6;" x="293.589714" xlink:href="#me6491a8b56" y="294.88"/>
      </g>
     </g>
    </g>
    <g id="xtick_12">
     <g id="line2d_23">
      <path clip-path="url(#pc3004949bc)" d="M 333.168 294.88 
L 333.168 24.84 
" style="fill:none;stroke:#b0b0b0;stroke-linecap:square;stroke-width:0.8;"/>
     </g>
     <g id="line2d_24">
      <g>
       <use style="stroke:#000000;stroke-width:0.6;" x="333.168" xlink:href="#me6491a8b56" y="294.88"/>
      </g>
     </g>
    </g>
    <g id="text_5">
     <!-- log10(# f-evals / dimension) -->
     <defs>
      <path d="M 9.421875 75.984375 
L 18.40625 75.984375 
L 18.40625 0 
L 9.421875 0 
z
" id="DejaVuSans-6c"/>
      <path d="M 30.609375 48.390625 
Q 23.390625 48.390625 19.1875 42.75 
Q 14.984375 37.109375 14.984375 27.296875 
Q 14.984375 17.484375 19.15625 11.84375 
Q 23.34375 6.203125 30.609375 6.203125 
Q 37.796875 6.203125 41.984375 11.859375 
Q 46.1875 17.53125 46.1875 27.296875 
Q 46.1875 37.015625 41.984375 42.703125 
Q 37.796875 48.390625 30.609375 48.390625 
z
M 30.609375 56 
Q 42.328125 56 49.015625 48.375 
Q 55.71875 40.765625 55.71875 27.296875 
Q 55.71875 13.875 49.015625 6.21875 
Q 42.328125 -1.421875 30.609375 -1.421875 
Q 18.84375 -1.421875 12.171875 6.21875 
Q 5.515625 13.875 5.515625 27.296875 
Q 5.515625 40.765625 12.171875 48.375 
Q 18.84375 56 30.609375 56 
z
" id="DejaVuSans-6f"/>
      <path d="M 45.40625 27.984375 
Q 45.40625 37.75 41.375 43.109375 
Q 37.359375 48.484375 30.078125 48.484375 
Q 22.859375 48.484375 18.828125 43.109375 
Q 14.796875 37.75 14.796875 27.984375 
Q 14.796875 18.265625 18.828125 12.890625 
Q 22.859375 7.515625 30.078125 7.515625 
Q 37.359375 7.515625 41.375 12.890625 
Q 45.40625 18.265625 45.40625 27.984375 
z
M 54.390625 6.78125 
Q 54.390625 -7.171875 48.1875 -13.984375 
Q 42 -20.796875 29.203125 -20.796875 
Q 24.46875 -20.796875 20.265625 -20.09375 
Q 16.0625 -19.390625 12.109375 -17.921875 
L 12.109375 -9.1875 
Q 16.0625 -11.328125 19.921875 -12.34375 
Q 23.78125 -13.375 27.78125 -13.375 
Q 36.625 -13.375 41.015625 -8.765625 
Q 45.40625 -4.15625 45.40625 5.171875 
L 45.40625 9.625 
Q 42.625 4.78125 38.28125 2.390625 
Q 33.9375 0 27.875 0 
Q 17.828125 0 11.671875 7.65625 
Q 5.515625 15.328125 5.515625 27.984375 
Q 5.515625 40.671875 11.671875 48.328125 
Q 17.828125 56 27.875 56 
Q 33.9375 56 38.28125 53.609375 
Q 42.625 51.21875 45.40625 46.390625 
L 45.40625 54.6875 
L 54.390625 54.6875 
z
" id="DejaVuSans-67"/>
      <path d="M 12.40625 8.296875 
L 28.515625 8.296875 
L 28.515625 63.921875 
L 10.984375 60.40625 
L 10.984375 69.390625 
L 28.421875 72.90625 
L 38.28125 72.90625 
L 38.28125 8.296875 
L 54.390625 8.296875 
L 54.390625 0 
L 12.40625 0 
z
" id="DejaVuSans-31"/>
      <path d="M 31 75.875 
Q 24.46875 64.65625 21.28125 53.65625 
Q 18.109375 42.671875 18.109375 31.390625 
Q 18.109375 20.125 21.3125 9.0625 
Q 24.515625 -2 31 -13.1875 
L 23.1875 -13.1875 
Q 15.875 -1.703125 12.234375 9.375 
Q 8.59375 20.453125 8.59375 31.390625 
Q 8.59375 42.28125 12.203125 53.3125 
Q 15.828125 64.359375 23.1875 75.875 
z
" id="DejaVuSans-28"/>
      <path d="M 51.125 44 
L 36.921875 44 
L 32.8125 27.6875 
L 47.125 27.6875 
z
M 43.796875 71.78125 
L 38.71875 51.515625 
L 52.984375 51.515625 
L 58.109375 71.78125 
L 65.921875 71.78125 
L 60.890625 51.515625 
L 76.125 51.515625 
L 76.125 44 
L 58.984375 44 
L 54.984375 27.6875 
L 70.515625 27.6875 
L 70.515625 20.21875 
L 53.078125 20.21875 
L 48 0 
L 40.1875 0 
L 45.21875 20.21875 
L 30.90625 20.21875 
L 25.875 0 
L 18.015625 0 
L 23.09375 20.21875 
L 7.71875 20.21875 
L 7.71875 27.6875 
L 24.90625 27.6875 
L 29 44 
L 13.28125 44 
L 13.28125 51.515625 
L 30.90625 51.515625 
L 35.890625 71.78125 
z
" id="DejaVuSans-23"/>
      <path id="DejaVuSans-20"/>
      <path d="M 37.109375 75.984375 
L 37.109375 68.5 
L 28.515625 68.5 
Q 23.6875 68.5 21.796875 66.546875 
Q 19.921875 64.59375 19.921875 59.515625 
L 19.921875 54.6875 
L 34.71875 54.6875 
L 34.71875 47.703125 
L 19.921875 47.703125 
L 19.921875 0 
L 10.890625 0 
L 10.890625 47.703125 
L 2.296875 47.703125 
L 2.296875 54.6875 
L 10.890625 54.6875 
L 10.890625 58.5 
Q 10.890625 67.625 15.140625 71.796875 
Q 19.390625 75.984375 28.609375 75.984375 
z
" id="DejaVuSans-66"/>
      <path d="M 4.890625 31.390625 
L 31.203125 31.390625 
L 31.203125 23.390625 
L 4.890625 23.390625 
z
" id="DejaVuSans-2d"/>
      <path d="M 56.203125 29.59375 
L 56.203125 25.203125 
L 14.890625 25.203125 
Q 15.484375 15.921875 20.484375 11.0625 
Q 25.484375 6.203125 34.421875 6.203125 
Q 39.59375 6.203125 44.453125 7.46875 
Q 49.3125 8.734375 54.109375 11.28125 
L 54.109375 2.78125 
Q 49.265625 0.734375 44.1875 -0.34375 
Q 39.109375 -1.421875 33.890625 -1.421875 
Q 20.796875 -1.421875 13.15625 6.1875 
Q 5.515625 13.8125 5.515625 26.8125 
Q 5.515625 40.234375 12.765625 48.109375 
Q 20.015625 56 32.328125 56 
Q 43.359375 56 49.78125 48.890625 
Q 56.203125 41.796875 56.203125 29.59375 
z
M 47.21875 32.234375 
Q 47.125 39.59375 43.09375 43.984375 
Q 39.0625 48.390625 32.421875 48.390625 
Q 24.90625 48.390625 20.390625 44.140625 
Q 15.875 39.890625 15.1875 32.171875 
z
" id="DejaVuSans-65"/>
      <path d="M 2.984375 54.6875 
L 12.5 54.6875 
L 29.59375 8.796875 
L 46.6875 54.6875 
L 56.203125 54.6875 
L 35.6875 0 
L 23.484375 0 
z
" id="DejaVuSans-76"/>
      <path d="M 34.28125 27.484375 
Q 23.390625 27.484375 19.1875 25 
Q 14.984375 22.515625 14.984375 16.5 
Q 14.984375 11.71875 18.140625 8.90625 
Q 21.296875 6.109375 26.703125 6.109375 
Q 34.1875 6.109375 38.703125 11.40625 
Q 43.21875 16.703125 43.21875 25.484375 
L 43.21875 27.484375 
z
M 52.203125 31.203125 
L 52.203125 0 
L 43.21875 0 
L 43.21875 8.296875 
Q 40.140625 3.328125 35.546875 0.953125 
Q 30.953125 -1.421875 24.3125 -1.421875 
Q 15.921875 -1.421875 10.953125 3.296875 
Q 6 8.015625 6 15.921875 
Q 6 25.140625 12.171875 29.828125 
Q 18.359375 34.515625 30.609375 34.515625 
L 43.21875 34.515625 
L 43.21875 35.40625 
Q 43.21875 41.609375 39.140625 45 
Q 35.0625 48.390625 27.6875 48.390625 
Q 23 48.390625 18.546875 47.265625 
Q 14.109375 46.140625 10.015625 43.890625 
L 10.015625 52.203125 
Q 14.9375 54.109375 19.578125 55.046875 
Q 24.21875 56 28.609375 56 
Q 40.484375 56 46.34375 49.84375 
Q 52.203125 43.703125 52.203125 31.203125 
z
" id="DejaVuSans-61"/>
      <path d="M 44.28125 53.078125 
L 44.28125 44.578125 
Q 40.484375 46.53125 36.375 47.5 
Q 32.28125 48.484375 27.875 48.484375 
Q 21.1875 48.484375 17.84375 46.4375 
Q 14.5 44.390625 14.5 40.28125 
Q 14.5 37.15625 16.890625 35.375 
Q 19.28125 33.59375 26.515625 31.984375 
L 29.59375 31.296875 
Q 39.15625 29.25 43.1875 25.515625 
Q 47.21875 21.78125 47.21875 15.09375 
Q 47.21875 7.46875 41.1875 3.015625 
Q 35.15625 -1.421875 24.609375 -1.421875 
Q 20.21875 -1.421875 15.453125 -0.5625 
Q 10.6875 0.296875 5.421875 2 
L 5.421875 11.28125 
Q 10.40625 8.6875 15.234375 7.390625 
Q 20.0625 6.109375 24.8125 6.109375 
Q 31.15625 6.109375 34.5625 8.28125 
Q 37.984375 10.453125 37.984375 14.40625 
Q 37.984375 18.0625 35.515625 20.015625 
Q 33.0625 21.96875 24.703125 23.78125 
L 21.578125 24.515625 
Q 13.234375 26.265625 9.515625 29.90625 
Q 5.8125 33.546875 5.8125 39.890625 
Q 5.8125 47.609375 11.28125 51.796875 
Q 16.75 56 26.8125 56 
Q 31.78125 56 36.171875 55.265625 
Q 40.578125 54.546875 44.28125 53.078125 
z
" id="DejaVuSans-73"/>
      <path d="M 25.390625 72.90625 
L 33.6875 72.90625 
L 8.296875 -9.28125 
L 0 -9.28125 
z
" id="DejaVuSans-2f"/>
      <path d="M 45.40625 46.390625 
L 45.40625 75.984375 
L 54.390625 75.984375 
L 54.390625 0 
L 45.40625 0 
L 45.40625 8.203125 
Q 42.578125 3.328125 38.25 0.953125 
Q 33.9375 -1.421875 27.875 -1.421875 
Q 17.96875 -1.421875 11.734375 6.484375 
Q 5.515625 14.40625 5.515625 27.296875 
Q 5.515625 40.1875 11.734375 48.09375 
Q 17.96875 56 27.875 56 
Q 33.9375 56 38.25 53.625 
Q 42.578125 51.265625 45.40625 46.390625 
z
M 14.796875 27.296875 
Q 14.796875 17.390625 18.875 11.75 
Q 22.953125 6.109375 30.078125 6.109375 
Q 37.203125 6.109375 41.296875 11.75 
Q 45.40625 17.390625 45.40625 27.296875 
Q 45.40625 37.203125 41.296875 42.84375 
Q 37.203125 48.484375 30.078125 48.484375 
Q 22.953125 48.484375 18.875 42.84375 
Q 14.796875 37.203125 14.796875 27.296875 
z
" id="DejaVuSans-64"/>
      <path d="M 9.421875 54.6875 
L 18.40625 54.6875 
L 18.40625 0 
L 9.421875 0 
z
M 9.421875 75.984375 
L 18.40625 75.984375 
L 18.40625 64.59375 
L 9.421875 64.59375 
z
" id="DejaVuSans-69"/>
      <path d="M 52 44.1875 
Q 55.375 50.25 60.0625 53.125 
Q 64.75 56 71.09375 56 
Q 79.640625 56 84.28125 50.015625 
Q 88.921875 44.046875 88.921875 33.015625 
L 88.921875 0 
L 79.890625 0 
L 79.890625 32.71875 
Q 79.890625 40.578125 77.09375 44.375 
Q 74.3125 48.1875 68.609375 48.1875 
Q 61.625 48.1875 57.5625 43.546875 
Q 53.515625 38.921875 53.515625 30.90625 
L 53.515625 0 
L 44.484375 0 
L 44.484375 32.71875 
Q 44.484375 40.625 41.703125 44.40625 
Q 38.921875 48.1875 33.109375 48.1875 
Q 26.21875 48.1875 22.15625 43.53125 
Q 18.109375 38.875 18.109375 30.90625 
L 18.109375 0 
L 9.078125 0 
L 9.078125 54.6875 
L 18.109375 54.6875 
L 18.109375 46.1875 
Q 21.1875 51.21875 25.484375 53.609375 
Q 29.78125 56 35.6875 56 
Q 41.65625 56 45.828125 52.96875 
Q 50 49.953125 52 44.1875 
z
" id="DejaVuSans-6d"/>
      <path d="M 54.890625 33.015625 
L 54.890625 0 
L 45.90625 0 
L 45.90625 32.71875 
Q 45.90625 40.484375 42.875 44.328125 
Q 39.84375 48.1875 33.796875 48.1875 
Q 26.515625 48.1875 22.3125 43.546875 
Q 18.109375 38.921875 18.109375 30.90625 
L 18.109375 0 
L 9.078125 0 
L 9.078125 54.6875 
L 18.109375 54.6875 
L 18.109375 46.1875 
Q 21.34375 51.125 25.703125 53.5625 
Q 30.078125 56 35.796875 56 
Q 45.21875 56 50.046875 50.171875 
Q 54.890625 44.34375 54.890625 33.015625 
z
" id="DejaVuSans-6e"/>
      <path d="M 8.015625 75.875 
L 15.828125 75.875 
Q 23.140625 64.359375 26.78125 53.3125 
Q 30.421875 42.28125 30.421875 31.390625 
Q 30.421875 20.453125 26.78125 9.375 
Q 23.140625 -1.703125 15.828125 -13.1875 
L 8.015625 -13.1875 
Q 14.5 -2 17.703125 9.0625 
Q 20.90625 20.125 20.90625 31.390625 
Q 20.90625 42.671875 17.703125 53.65625 
Q 14.5 64.65625 8.015625 75.875 
z
" id="DejaVuSans-29"/>
     </defs>
     <g transform="translate(73.803219 338.153594)scale(0.17 -0.17)">
      <use xlink:href="#DejaVuSans-6c"/>
      <use x="27.783203" xlink:href="#DejaVuSans-6f"/>
      <use x="88.964844" xlink:href="#DejaVuSans-67"/>
      <use x="152.441406" xlink:href="#DejaVuSans-31"/>
      <use x="216.064453" xlink:href="#DejaVuSans-30"/>
      <use x="279.6875" xlink:href="#DejaVuSans-28"/>
      <use x="318.701172" xlink:href="#DejaVuSans-23"/>
      <use x="402.490234" xlink:href="#DejaVuSans-20"/>
      <use x="434.277344" xlink:href="#DejaVuSans-66"/>
      <use x="469.404297" xlink:href="#DejaVuSans-2d"/>
      <use x="505.488281" xlink:href="#DejaVuSans-65"/>
      <use x="567.011719" xlink:href="#DejaVuSans-76"/>
      <use x="626.191406" xlink:href="#DejaVuSans-61"/>
      <use x="687.470703" xlink:href="#DejaVuSans-6c"/>
      <use x="715.253906" xlink:href="#DejaVuSans-73"/>
      <use x="767.353516" xlink:href="#DejaVuSans-20"/>
      <use x="799.140625" xlink:href="#DejaVuSans-2f"/>
      <use x="832.832031" xlink:href="#DejaVuSans-20"/>
      <use x="864.619141" xlink:href="#DejaVuSans-64"/>
      <use x="928.095703" xlink:href="#DejaVuSans-69"/>
      <use x="955.878906" xlink:href="#DejaVuSans-6d"/>
      <use x="1053.291016" xlink:href="#DejaVuSans-65"/>
      <use x="1114.814453" xlink:href="#DejaVuSans-6e"/>
      <use x="1178.193359" xlink:href="#DejaVuSans-73"/>
      <use x="1230.292969" xlink:href="#DejaVuSans-69"/>
      <use x="1258.076172" xlink:href="#DejaVuSans-6f"/>
      <use x="1319.257812" xlink:href="#DejaVuSans-6e"/>
      <use x="1382.636719" xlink:href="#DejaVuSans-29"/>
     </g>
    </g>
   </g>
   <g id="matplotlib.axis_2">
    <g id="ytick_1">
     <g id="line2d_25">
      <path clip-path="url(#pc3004949bc)" d="M 56.12 294.88 
L 333.168 294.88 
" style="fill:none;stroke:#b0b0b0;stroke-linecap:square;stroke-width:0.8;"/>
     </g>
     <g id="line2d_26">
      <defs>
       <path d="M 0 0 
L -3.5 0 
" id="md494ccc11f" style="stroke:#000000;stroke-width:0.8;"/>
      </defs>
      <g>
       <use style="stroke:#000000;stroke-width:0.8;" x="56.12" xlink:href="#md494ccc11f" y="294.88"/>
      </g>
     </g>
     <g id="text_6">
      <!-- 0.0 -->
      <defs>
       <path d="M 10.6875 12.40625 
L 21 12.40625 
L 21 0 
L 10.6875 0 
z
" id="DejaVuSans-2e"/>
      </defs>
      <g transform="translate(23.675 300.95875)scale(0.16 -0.16)">
       <use xlink:href="#DejaVuSans-30"/>
       <use x="63.623047" xlink:href="#DejaVuSans-2e"/>
       <use x="95.410156" xlink:href="#DejaVuSans-30"/>
      </g>
     </g>
    </g>
    <g id="ytick_2">
     <g id="line2d_27">
      <path clip-path="url(#pc3004949bc)" d="M 56.12 241.406733 
L 333.168 241.406733 
" style="fill:none;stroke:#b0b0b0;stroke-linecap:square;stroke-width:0.8;"/>
     </g>
     <g id="line2d_28">
      <g>
       <use style="stroke:#000000;stroke-width:0.8;" x="56.12" xlink:href="#md494ccc11f" y="241.406733"/>
      </g>
     </g>
     <g id="text_7">
      <!-- 0.2 -->
      <g transform="translate(23.675 247.485483)scale(0.16 -0.16)">
       <use xlink:href="#DejaVuSans-30"/>
       <use x="63.623047" xlink:href="#DejaVuSans-2e"/>
       <use x="95.410156" xlink:href="#DejaVuSans-32"/>
      </g>
     </g>
    </g>
    <g id="ytick_3">
     <g id="line2d_29">
      <path clip-path="url(#pc3004949bc)" d="M 56.12 187.933465 
L 333.168 187.933465 
" style="fill:none;stroke:#b0b0b0;stroke-linecap:square;stroke-width:0.8;"/>
     </g>
     <g id="line2d_30">
      <g>
       <use style="stroke:#000000;stroke-width:0.8;" x="56.12" xlink:href="#md494ccc11f" y="187.933465"/>
      </g>
     </g>
     <g id="text_8">
      <!-- 0.4 -->
      <g transform="translate(23.675 194.012215)scale(0.16 -0.16)">
       <use xlink:href="#DejaVuSans-30"/>
       <use x="63.623047" xlink:href="#DejaVuSans-2e"/>
       <use x="95.410156" xlink:href="#DejaVuSans-34"/>
      </g>
     </g>
    </g>
    <g id="ytick_4">
     <g id="line2d_31">
      <path clip-path="url(#pc3004949bc)" d="M 56.12 134.460198 
L 333.168 134.460198 
" style="fill:none;stroke:#b0b0b0;stroke-linecap:square;stroke-width:0.8;"/>
     </g>
     <g id="line2d_32">
      <g>
       <use style="stroke:#000000;stroke-width:0.8;" x="56.12" xlink:href="#md494ccc11f" y="134.460198"/>
      </g>
     </g>
     <g id="text_9">
      <!-- 0.6 -->
      <g transform="translate(23.675 140.538948)scale(0.16 -0.16)">
       <use xlink:href="#DejaVuSans-30"/>
       <use x="63.623047" xlink:href="#DejaVuSans-2e"/>
       <use x="95.410156" xlink:href="#DejaVuSans-36"/>
      </g>
     </g>
    </g>
    <g id="ytick_5">
     <g id="line2d_33">
      <path clip-path="url(#pc3004949bc)" d="M 56.12 80.986931 
L 333.168 80.986931 
" style="fill:none;stroke:#b0b0b0;stroke-linecap:square;stroke-width:0.8;"/>
     </g>
     <g id="line2d_34">
      <g>
       <use style="stroke:#000000;stroke-width:0.8;" x="56.12" xlink:href="#md494ccc11f" y="80.986931"/>
      </g>
     </g>
     <g id="text_10">
      <!-- 0.8 -->
      <defs>
       <path d="M 31.78125 34.625 
Q 24.75 34.625 20.71875 30.859375 
Q 16.703125 27.09375 16.703125 20.515625 
Q 16.703125 13.921875 20.71875 10.15625 
Q 24.75 6.390625 31.78125 6.390625 
Q 38.8125 6.390625 42.859375 10.171875 
Q 46.921875 13.96875 46.921875 20.515625 
Q 46.921875 27.09375 42.890625 30.859375 
Q 38.875 34.625 31.78125 34.625 
z
M 21.921875 38.8125 
Q 15.578125 40.375 12.03125 44.71875 
Q 8.5 49.078125 8.5 55.328125 
Q 8.5 64.0625 14.71875 69.140625 
Q 20.953125 74.21875 31.78125 74.21875 
Q 42.671875 74.21875 48.875 69.140625 
Q 55.078125 64.0625 55.078125 55.328125 
Q 55.078125 49.078125 51.53125 44.71875 
Q 48 40.375 41.703125 38.8125 
Q 48.828125 37.15625 52.796875 32.3125 
Q 56.78125 27.484375 56.78125 20.515625 
Q 56.78125 9.90625 50.3125 4.234375 
Q 43.84375 -1.421875 31.78125 -1.421875 
Q 19.734375 -1.421875 13.25 4.234375 
Q 6.78125 9.90625 6.78125 20.515625 
Q 6.78125 27.484375 10.78125 32.3125 
Q 14.796875 37.15625 21.921875 38.8125 
z
M 18.3125 54.390625 
Q 18.3125 48.734375 21.84375 45.5625 
Q 25.390625 42.390625 31.78125 42.390625 
Q 38.140625 42.390625 41.71875 45.5625 
Q 45.3125 48.734375 45.3125 54.390625 
Q 45.3125 60.0625 41.71875 63.234375 
Q 38.140625 66.40625 31.78125 66.40625 
Q 25.390625 66.40625 21.84375 63.234375 
Q 18.3125 60.0625 18.3125 54.390625 
z
" id="DejaVuSans-38"/>
      </defs>
      <g transform="translate(23.675 87.065681)scale(0.16 -0.16)">
       <use xlink:href="#DejaVuSans-30"/>
       <use x="63.623047" xlink:href="#DejaVuSans-2e"/>
       <use x="95.410156" xlink:href="#DejaVuSans-38"/>
      </g>
     </g>
    </g>
    <g id="ytick_6">
     <g id="line2d_35">
      <path clip-path="url(#pc3004949bc)" d="M 56.12 27.513663 
L 333.168 27.513663 
" style="fill:none;stroke:#b0b0b0;stroke-linecap:square;stroke-width:0.8;"/>
     </g>
     <g id="line2d_36">
      <g>
       <use style="stroke:#000000;stroke-width:0.8;" x="56.12" xlink:href="#md494ccc11f" y="27.513663"/>
      </g>
     </g>
     <g id="text_11">
      <!-- 1.0 -->
      <g transform="translate(23.675 33.592413)scale(0.16 -0.16)">
       <use xlink:href="#DejaVuSans-31"/>
       <use x="63.623047" xlink:href="#DejaVuSans-2e"/>
       <use x="95.410156" xlink:href="#DejaVuSans-30"/>
      </g>
     </g>
    </g>
    <g id="text_12">
     <!-- Fraction of function,target pairs -->
     <defs>
      <path d="M 9.8125 72.90625 
L 51.703125 72.90625 
L 51.703125 64.59375 
L 19.671875 64.59375 
L 19.671875 43.109375 
L 48.578125 43.109375 
L 48.578125 34.8125 
L 19.671875 34.8125 
L 19.671875 0 
L 9.8125 0 
z
" id="DejaVuSans-46"/>
      <path d="M 41.109375 46.296875 
Q 39.59375 47.171875 37.8125 47.578125 
Q 36.03125 48 33.890625 48 
Q 26.265625 48 22.1875 43.046875 
Q 18.109375 38.09375 18.109375 28.8125 
L 18.109375 0 
L 9.078125 0 
L 9.078125 54.6875 
L 18.109375 54.6875 
L 18.109375 46.1875 
Q 20.953125 51.171875 25.484375 53.578125 
Q 30.03125 56 36.53125 56 
Q 37.453125 56 38.578125 55.875 
Q 39.703125 55.765625 41.0625 55.515625 
z
" id="DejaVuSans-72"/>
      <path d="M 48.78125 52.59375 
L 48.78125 44.1875 
Q 44.96875 46.296875 41.140625 47.34375 
Q 37.3125 48.390625 33.40625 48.390625 
Q 24.65625 48.390625 19.8125 42.84375 
Q 14.984375 37.3125 14.984375 27.296875 
Q 14.984375 17.28125 19.8125 11.734375 
Q 24.65625 6.203125 33.40625 6.203125 
Q 37.3125 6.203125 41.140625 7.25 
Q 44.96875 8.296875 48.78125 10.40625 
L 48.78125 2.09375 
Q 45.015625 0.34375 40.984375 -0.53125 
Q 36.96875 -1.421875 32.421875 -1.421875 
Q 20.0625 -1.421875 12.78125 6.34375 
Q 5.515625 14.109375 5.515625 27.296875 
Q 5.515625 40.671875 12.859375 48.328125 
Q 20.21875 56 33.015625 56 
Q 37.15625 56 41.109375 55.140625 
Q 45.0625 54.296875 48.78125 52.59375 
z
" id="DejaVuSans-63"/>
      <path d="M 18.3125 70.21875 
L 18.3125 54.6875 
L 36.8125 54.6875 
L 36.8125 47.703125 
L 18.3125 47.703125 
L 18.3125 18.015625 
Q 18.3125 11.328125 20.140625 9.421875 
Q 21.96875 7.515625 27.59375 7.515625 
L 36.8125 7.515625 
L 36.8125 0 
L 27.59375 0 
Q 17.1875 0 13.234375 3.875 
Q 9.28125 7.765625 9.28125 18.015625 
L 9.28125 47.703125 
L 2.6875 47.703125 
L 2.6875 54.6875 
L 9.28125 54.6875 
L 9.28125 70.21875 
z
" id="DejaVuSans-74"/>
      <path d="M 8.5 21.578125 
L 8.5 54.6875 
L 17.484375 54.6875 
L 17.484375 21.921875 
Q 17.484375 14.15625 20.5 10.265625 
Q 23.53125 6.390625 29.59375 6.390625 
Q 36.859375 6.390625 41.078125 11.03125 
Q 45.3125 15.671875 45.3125 23.6875 
L 45.3125 54.6875 
L 54.296875 54.6875 
L 54.296875 0 
L 45.3125 0 
L 45.3125 8.40625 
Q 42.046875 3.421875 37.71875 1 
Q 33.40625 -1.421875 27.6875 -1.421875 
Q 18.265625 -1.421875 13.375 4.4375 
Q 8.5 10.296875 8.5 21.578125 
z
M 31.109375 56 
z
" id="DejaVuSans-75"/>
      <path d="M 11.71875 12.40625 
L 22.015625 12.40625 
L 22.015625 4 
L 14.015625 -11.625 
L 7.71875 -11.625 
L 11.71875 4 
z
" id="DejaVuSans-2c"/>
      <path d="M 18.109375 8.203125 
L 18.109375 -20.796875 
L 9.078125 -20.796875 
L 9.078125 54.6875 
L 18.109375 54.6875 
L 18.109375 46.390625 
Q 20.953125 51.265625 25.265625 53.625 
Q 29.59375 56 35.59375 56 
Q 45.5625 56 51.78125 48.09375 
Q 58.015625 40.1875 58.015625 27.296875 
Q 58.015625 14.40625 51.78125 6.484375 
Q 45.5625 -1.421875 35.59375 -1.421875 
Q 29.59375 -1.421875 25.265625 0.953125 
Q 20.953125 3.328125 18.109375 8.203125 
z
M 48.6875 27.296875 
Q 48.6875 37.203125 44.609375 42.84375 
Q 40.53125 48.484375 33.40625 48.484375 
Q 26.265625 48.484375 22.1875 42.84375 
Q 18.109375 37.203125 18.109375 27.296875 
Q 18.109375 17.390625 22.1875 11.75 
Q 26.265625 6.109375 33.40625 6.109375 
Q 40.53125 6.109375 44.609375 11.75 
Q 48.6875 17.390625 48.6875 27.296875 
z
" id="DejaVuSans-70"/>
     </defs>
     <g transform="translate(16.139531 294.999375)rotate(-90)scale(0.17 -0.17)">
      <use xlink:href="#DejaVuSans-46"/>
      <use x="57.410156" xlink:href="#DejaVuSans-72"/>
      <use x="98.523438" xlink:href="#DejaVuSans-61"/>
      <use x="159.802734" xlink:href="#DejaVuSans-63"/>
      <use x="214.783203" xlink:href="#DejaVuSans-74"/>
      <use x="253.992188" xlink:href="#DejaVuSans-69"/>
      <use x="281.775391" xlink:href="#DejaVuSans-6f"/>
      <use x="342.957031" xlink:href="#DejaVuSans-6e"/>
      <use x="406.335938" xlink:href="#DejaVuSans-20"/>
      <use x="438.123047" xlink:href="#DejaVuSans-6f"/>
      <use x="499.304688" xlink:href="#DejaVuSans-66"/>
      <use x="534.509766" xlink:href="#DejaVuSans-20"/>
      <use x="566.296875" xlink:href="#DejaVuSans-66"/>
      <use x="601.501953" xlink:href="#DejaVuSans-75"/>
      <use x="664.880859" xlink:href="#DejaVuSans-6e"/>
      <use x="728.259766" xlink:href="#DejaVuSans-63"/>
      <use x="783.240234" xlink:href="#DejaVuSans-74"/>
      <use x="822.449219" xlink:href="#DejaVuSans-69"/>
      <use x="850.232422" xlink:href="#DejaVuSans-6f"/>
      <use x="911.414062" xlink:href="#DejaVuSans-6e"/>
      <use x="974.792969" xlink:href="#DejaVuSans-2c"/>
      <use x="1006.580078" xlink:href="#DejaVuSans-74"/>
      <use x="1045.789062" xlink:href="#DejaVuSans-61"/>
      <use x="1107.068359" xlink:href="#DejaVuSans-72"/>
      <use x="1148.166016" xlink:href="#DejaVuSans-67"/>
      <use x="1211.642578" xlink:href="#DejaVuSans-65"/>
      <use x="1273.166016" xlink:href="#DejaVuSans-74"/>
      <use x="1312.375" xlink:href="#DejaVuSans-20"/>
      <use x="1344.162109" xlink:href="#DejaVuSans-70"/>
      <use x="1407.638672" xlink:href="#DejaVuSans-61"/>
      <use x="1468.917969" xlink:href="#DejaVuSans-69"/>
      <use x="1496.701172" xlink:href="#DejaVuSans-72"/>
      <use x="1537.814453" xlink:href="#DejaVuSans-73"/>
     </g>
    </g>
   </g>
   <g id="line2d_37">
    <defs>
     <path d="M 0 1.5 
C 0.397805 1.5 0.77937 1.341951 1.06066 1.06066 
C 1.341951 0.77937 1.5 0.397805 1.5 0 
C 1.5 -0.397805 1.341951 -0.77937 1.06066 -1.06066 
C 0.77937 -1.341951 0.397805 -1.5 0 -1.5 
C -0.397805 -1.5 -0.77937 -1.341951 -1.06066 -1.06066 
C -1.341951 -0.77937 -1.5 -0.397805 -1.5 0 
C -1.5 0.397805 -1.341951 0.77937 -1.06066 1.06066 
C -0.77937 1.341951 -0.397805 1.5 0 1.5 
z
" id="m6c0b11a931" style="stroke:#00bfbf;"/>
    </defs>
    <g>
     <use style="fill:#00bfbf;stroke:#00bfbf;" x="182.690145" xlink:href="#m6c0b11a931" y="27.513663"/>
     <use style="fill:#00bfbf;stroke:#00bfbf;" x="182.690145" xlink:href="#m6c0b11a931" y="27.513663"/>
    </g>
   </g>
   <g id="line2d_38">
    <path d="M 44.205749 294.88 
L 44.205749 290.686018 
L 75.003641 290.686018 
L 75.003641 284.395046 
L 77.653281 284.395046 
L 77.653281 273.385844 
L 79.948502 273.385844 
L 79.948502 265.522128 
L 81.973032 265.522128 
L 81.973032 264.99788 
L 83.784035 264.99788 
L 83.784035 263.425137 
L 88.293717 263.425137 
L 88.293717 261.328146 
L 96.536922 261.328146 
L 96.536922 258.706907 
L 98.832144 258.706907 
L 98.832144 258.18266 
L 99.533818 258.18266 
L 99.533818 255.561421 
L 101.481783 255.561421 
L 101.481783 253.988678 
L 102.084955 253.988678 
L 102.084955 252.415935 
L 102.667676 252.415935 
L 102.667676 250.318944 
L 103.777005 250.318944 
L 103.777005 249.270448 
L 105.317315 249.270448 
L 105.317315 248.746201 
L 109.637066 248.746201 
L 109.637066 247.697705 
L 110.014853 247.697705 
L 110.014853 246.64921 
L 114.581927 246.64921 
L 114.581927 245.600714 
L 115.420563 245.600714 
L 115.420563 245.076467 
L 115.691256 245.076467 
L 115.691256 244.027971 
L 117.715785 244.027971 
L 117.715785 243.503724 
L 119.310576 243.503724 
L 119.310576 242.979476 
L 122.114929 242.979476 
L 122.114929 241.93098 
L 122.298767 241.93098 
L 122.298767 240.882485 
L 123.189569 240.882485 
L 123.189569 240.358237 
L 123.533353 240.358237 
L 123.533353 239.83399 
L 124.200956 239.83399 
L 124.200956 237.212751 
L 125.463074 237.212751 
L 125.463074 236.688503 
L 129.268157 236.688503 
L 129.268157 236.164255 
L 131.441039 236.164255 
L 131.441039 235.11576 
L 132.279675 235.11576 
L 132.279675 234.591512 
L 132.583907 234.591512 
L 132.583907 234.067265 
L 133.843356 234.067265 
L 133.843356 232.494521 
L 135.276571 232.494521 
L 135.276571 231.446026 
L 140.048681 231.446026 
L 140.048681 230.921778 
L 140.936852 230.921778 
L 140.936852 229.349035 
L 141.3643 229.349035 
L 141.3643 228.824787 
L 141.898705 228.824787 
L 141.898705 226.727797 
L 142.530078 226.727797 
L 142.530078 226.203549 
L 143.515683 226.203549 
L 143.515683 225.679301 
L 144.747635 225.679301 
L 144.747635 225.155053 
L 144.944641 225.155053 
L 144.944641 224.106558 
L 145.284061 224.106558 
L 145.332007 222.533815 
L 146.127269 222.533815 
L 146.127269 222.009567 
L 146.622913 222.009567 
L 146.622913 220.436824 
L 147.061422 220.436824 
L 147.061422 219.912576 
L 147.361855 219.912576 
L 147.361855 218.864081 
L 147.531203 218.864081 
L 147.531203 218.339833 
L 147.823604 218.339833 
L 147.823604 217.815585 
L 148.070335 217.815585 
L 148.070335 216.76709 
L 148.313575 216.76709 
L 148.313575 216.242842 
L 148.63263 216.242842 
L 148.63263 215.194347 
L 148.945872 215.194347 
L 148.945872 214.145851 
L 149.778964 214.145851 
L 149.778964 213.621604 
L 150.643983 213.621604 
L 150.643983 211.000365 
L 151.366735 211.000365 
L 151.366735 210.476117 
L 151.634268 210.476117 
L 151.634268 206.282136 
L 152.476064 206.282136 
L 152.476064 205.23364 
L 152.69583 205.23364 
L 152.789162 195.797181 
L 152.88199 195.797181 
L 152.97432 192.651695 
L 153.004986 192.651695 
L 153.096659 190.554704 
L 153.488354 190.554704 
L 153.488354 190.030456 
L 153.812956 190.030456 
L 153.871321 187.933465 
L 154.016374 187.933465 
L 154.016374 186.360722 
L 154.331245 186.360722 
L 154.38788 177.972759 
L 155.269542 177.972759 
L 155.349925 175.875768 
L 155.667752 175.875768 
L 155.667752 174.303025 
L 156.056945 174.303025 
L 156.159258 168.5363 
L 156.336855 168.5363 
L 156.336855 164.866566 
L 157.126141 164.866566 
L 157.126141 158.051345 
L 157.341751 158.051345 
L 157.389299 156.478602 
L 157.507597 156.478602 
L 157.507597 155.954354 
L 157.788234 155.954354 
L 157.811415 152.808868 
L 157.903827 152.808868 
L 157.903827 145.4694 
L 158.087174 145.4694 
L 158.132707 143.372409 
L 158.268586 143.372409 
L 158.291129 141.275418 
L 158.4034 141.275418 
L 158.4034 140.751171 
L 158.603658 140.751171 
L 158.603658 140.226923 
L 158.823464 140.226923 
L 158.823464 139.702675 
L 159.040495 139.702675 
L 159.040495 139.178427 
L 159.613149 139.178427 
L 159.613149 138.129932 
L 159.902736 138.129932 
L 159.923235 130.266216 
L 160.348167 130.266216 
L 160.348167 122.4025 
L 161.469983 122.4025 
L 161.469983 120.829757 
L 161.986418 120.829757 
L 161.986418 120.30551 
L 162.113139 120.30551 
L 162.113139 115.58728 
L 162.715689 115.58728 
L 162.715689 115.063032 
L 164.119622 115.063032 
L 164.119622 107.723564 
L 164.578857 107.723564 
L 164.578857 105.626573 
L 164.85785 105.626573 
L 164.85785 104.578078 
L 165.207874 104.578078 
L 165.283032 103.005335 
L 165.432369 103.005335 
L 165.432369 95.141619 
L 165.624588 95.141619 
L 165.624588 94.093124 
L 166.160193 94.093124 
L 166.160193 93.568876 
L 170.27283 93.568876 
L 170.27283 91.996133 
L 170.451415 91.996133 
L 170.451415 91.471885 
L 171.243458 91.471885 
L 171.243458 87.802151 
L 172.152138 87.802151 
L 172.152138 86.229408 
L 172.431472 86.229408 
L 172.431472 85.70516 
L 172.628253 85.70516 
L 172.68685 84.656665 
L 173.024745 84.656665 
L 173.024745 84.132417 
L 173.32797 84.132417 
L 173.421641 82.559674 
L 173.607466 82.559674 
L 173.607466 82.035426 
L 173.763853 82.035426 
L 173.80958 73.123215 
L 173.88249 73.123215 
L 173.973196 70.501976 
L 174.072422 70.501976 
L 174.180019 68.404985 
L 174.295828 68.404985 
L 174.375549 61.065517 
L 174.428491 61.065517 
L 174.454901 60.017022 
L 174.682106 60.017022 
L 174.751415 58.968526 
L 175.02589 58.968526 
L 175.02589 57.395783 
L 175.161501 57.395783 
L 175.169941 44.813838 
L 175.279289 44.813838 
L 175.279289 44.28959 
L 175.421241 44.28959 
L 175.429555 42.716847 
L 175.644313 42.716847 
L 175.644313 41.144104 
L 175.758849 41.144104 
L 175.758849 40.619856 
L 177.2945 40.619856 
L 177.2945 40.095609 
L 178.09581 40.095609 
L 178.09581 39.047113 
L 179.756693 39.047113 
L 179.756693 38.522865 
L 180.247193 38.522865 
L 180.247193 37.47437 
L 181.199986 37.47437 
L 181.199986 36.950122 
L 181.447733 36.950122 
L 181.447733 36.425875 
L 182.091448 36.425875 
L 182.091448 34.853131 
L 182.382314 34.853131 
L 182.382314 33.280388 
L 182.690145 33.280388 
L 182.690145 27.513663 
L 333.168 27.513663 
L 333.168 27.513663 
" style="fill:none;stroke:#00bfbf;stroke-linecap:square;stroke-width:1.5;"/>
   </g>
   <g id="line2d_39">
    <defs>
     <path d="M -6 0 
L 6 0 
M 0 6 
L 0 -6 
" id="ma87fa906b3" style="stroke:#00bfbf;stroke-width:1.5;"/>
    </defs>
    <g>
     <use style="fill-opacity:0;stroke:#00bfbf;stroke-width:1.5;" x="132.279675" xlink:href="#ma87fa906b3" y="235.11576"/>
     <use style="fill-opacity:0;stroke:#00bfbf;stroke-width:1.5;" x="159.923235" xlink:href="#ma87fa906b3" y="130.266216"/>
     <use style="fill-opacity:0;stroke:#00bfbf;stroke-width:1.5;" x="177.2945" xlink:href="#ma87fa906b3" y="40.619856"/>
     <use style="fill-opacity:0;stroke:#00bfbf;stroke-width:1.5;" x="182.690145" xlink:href="#ma87fa906b3" y="27.513663"/>
     <use style="fill-opacity:0;stroke:#00bfbf;stroke-width:1.5;" x="182.690145" xlink:href="#ma87fa906b3" y="27.513663"/>
     <use style="fill-opacity:0;stroke:#00bfbf;stroke-width:1.5;" x="333.168" xlink:href="#ma87fa906b3" y="27.513663"/>
    </g>
   </g>
   <g id="line2d_40">
    <path style="fill:none;stroke:#00bfbf;stroke-linecap:square;stroke-width:1.5;"/>
    <g/>
   </g>
   <g id="line2d_41">
    <defs>
     <path d="M 0 1.5 
C 0.397805 1.5 0.77937 1.341951 1.06066 1.06066 
C 1.341951 0.77937 1.5 0.397805 1.5 0 
C 1.5 -0.397805 1.341951 -0.77937 1.06066 -1.06066 
C 0.77937 -1.341951 0.397805 -1.5 0 -1.5 
C -0.397805 -1.5 -0.77937 -1.341951 -1.06066 -1.06066 
C -1.341951 -0.77937 -1.5 -0.397805 -1.5 0 
C -1.5 0.397805 -1.341951 0.77937 -1.06066 1.06066 
C -0.77937 1.341951 -0.397805 1.5 0 1.5 
z
" id="m69ad0345d0" style="stroke:#008000;"/>
    </defs>
    <g>
     <use style="fill:#008000;stroke:#008000;" x="187.296642" xlink:href="#m69ad0345d0" y="27.513663"/>
     <use style="fill:#008000;stroke:#008000;" x="187.296642" xlink:href="#m69ad0345d0" y="27.513663"/>
    </g>
   </g>
   <g id="line2d_42">
    <path d="M 37.236359 294.88 
L 37.236359 294.355752 
L 49.15061 294.355752 
L 49.15061 292.783009 
L 56.12 292.783009 
L 56.12 290.686018 
L 75.003641 290.686018 
L 75.003641 287.016284 
L 78.452896 287.016284 
L 78.452896 268.667614 
L 79.948502 268.667614 
L 79.948502 259.755403 
L 82.598142 259.755403 
L 82.598142 257.658412 
L 86.917893 257.658412 
L 86.917893 257.134164 
L 91.131212 257.134164 
L 91.131212 253.46443 
L 96.807615 253.46443 
L 96.807615 252.415935 
L 107.896653 252.415935 
L 107.896653 251.891687 
L 110.262176 251.891687 
L 110.262176 250.843192 
L 110.505991 250.843192 
L 110.505991 250.318944 
L 112.122219 250.318944 
L 112.122219 249.794696 
L 112.557398 249.794696 
L 112.557398 249.270448 
L 118.944067 249.270448 
L 118.944067 248.746201 
L 120.228462 248.746201 
L 120.228462 248.221953 
L 122.897734 248.221953 
L 122.897734 247.697705 
L 124.790952 247.697705 
L 124.790952 247.173458 
L 125.000572 247.173458 
L 125.000572 246.64921 
L 128.981332 246.64921 
L 128.981332 245.600714 
L 131.152148 245.600714 
L 131.152148 245.076467 
L 133.905521 245.076467 
L 133.905521 244.552219 
L 141.222995 244.552219 
L 141.222995 244.027971 
L 142.015238 244.027971 
L 142.015238 243.503724 
L 142.69832 243.503724 
L 142.69832 242.979476 
L 143.744751 242.979476 
L 143.744751 242.455228 
L 144.397345 242.455228 
L 144.397345 241.93098 
L 145.284061 241.93098 
L 145.284061 241.406733 
L 147.046984 241.406733 
L 147.046984 240.882485 
L 147.531203 240.882485 
L 147.531203 240.358237 
L 148.138248 240.358237 
L 148.138248 238.261246 
L 151.117784 238.261246 
L 151.117784 237.736999 
L 151.456376 237.736999 
L 151.456376 237.212751 
L 153.116965 237.212751 
L 153.116965 236.688503 
L 154.121973 236.688503 
L 154.121973 235.640008 
L 155.798464 235.640008 
L 155.885057 234.591512 
L 157.246258 234.591512 
L 157.246258 234.067265 
L 157.436716 234.067265 
L 157.546849 228.824787 
L 159.176544 228.824787 
L 159.176544 228.30054 
L 160.066049 228.30054 
L 160.066049 227.776292 
L 160.612613 227.776292 
L 160.612613 227.252044 
L 161.014628 227.252044 
L 161.014628 226.203549 
L 161.828221 226.203549 
L 161.828221 225.679301 
L 161.986418 225.679301 
L 161.986418 224.630806 
L 162.440665 224.630806 
L 162.440665 224.106558 
L 162.593349 224.106558 
L 162.593349 223.58231 
L 163.504218 223.58231 
L 163.504218 222.009567 
L 164.114272 222.009567 
L 164.114272 220.961072 
L 164.888571 220.961072 
L 164.888571 220.436824 
L 165.112199 220.436824 
L 165.192802 214.145851 
L 165.590245 214.145851 
L 165.590245 212.04886 
L 165.892064 212.04886 
L 165.892064 211.000365 
L 166.026651 211.000365 
L 166.026651 209.427622 
L 166.141179 209.427622 
L 166.141179 208.903374 
L 166.283274 208.903374 
L 166.36797 204.709392 
L 166.498896 204.709392 
L 166.536121 202.088154 
L 166.730241 202.088154 
L 166.821913 197.894172 
L 166.904003 197.894172 
L 166.9131 194.748686 
L 167.121011 194.748686 
L 167.121011 192.651695 
L 167.643126 192.651695 
L 167.704032 187.409218 
L 168.132912 187.409218 
L 168.217419 184.263731 
L 168.293122 184.263731 
L 168.293122 182.690988 
L 168.460165 182.690988 
L 168.501673 181.118245 
L 168.584391 181.118245 
L 168.691332 179.021254 
L 168.87892 179.021254 
L 168.967918 171.157538 
L 169.144542 171.157538 
L 169.168487 162.245327 
L 169.398253 162.245327 
L 169.484609 155.954354 
L 169.515904 155.954354 
L 169.547142 154.381611 
L 169.648274 154.381611 
L 169.656029 151.760373 
L 169.802711 151.760373 
L 169.887063 144.420905 
L 170.092371 144.420905 
L 170.107481 142.323914 
L 170.310189 142.323914 
L 170.340017 139.178427 
L 170.53265 139.178427 
L 170.53265 133.411703 
L 170.766812 133.411703 
L 170.788602 120.30551 
L 170.889924 120.30551 
L 170.990653 118.732766 
L 171.197447 118.732766 
L 171.197447 118.208519 
L 171.387768 118.208519 
L 171.387768 117.684271 
L 171.610638 117.684271 
L 171.610638 117.160023 
L 171.851139 117.160023 
L 171.851139 116.635776 
L 172.375305 116.635776 
L 172.375305 115.063032 
L 172.800222 115.063032 
L 172.800222 113.490289 
L 173.0693 113.490289 
L 173.0693 112.966042 
L 173.309175 112.966042 
L 173.371747 104.05383 
L 173.797398 104.05383 
L 173.858221 101.432592 
L 174.366709 101.432592 
L 174.366709 100.384096 
L 175.099479 100.384096 
L 175.099479 99.859849 
L 175.318373 99.859849 
L 175.318373 93.568876 
L 175.440634 93.568876 
L 175.440634 87.277903 
L 175.660722 87.277903 
L 175.704403 85.70516 
L 175.823958 85.70516 
L 175.910387 84.656665 
L 175.948064 84.656665 
L 175.948064 83.083922 
L 176.140536 83.083922 
L 176.172406 80.986931 
L 176.638336 80.986931 
L 176.638336 80.462683 
L 178.06494 80.462683 
L 178.06494 79.938435 
L 180.165357 79.938435 
L 180.165357 78.88994 
L 180.341137 78.88994 
L 180.341137 78.365692 
L 181.280995 78.365692 
L 181.280995 77.841444 
L 181.515923 77.841444 
L 181.515923 77.317197 
L 181.766856 77.317197 
L 181.843335 75.220206 
L 182.145893 75.220206 
L 182.145893 74.695958 
L 182.513083 74.695958 
L 182.513083 74.17171 
L 182.641043 74.17171 
L 182.651967 72.074719 
L 182.760825 72.074719 
L 182.760825 71.550472 
L 183.090421 71.550472 
L 183.200072 70.501976 
L 183.280976 70.501976 
L 183.295008 65.259499 
L 183.413816 65.259499 
L 183.483321 51.104811 
L 183.583607 51.104811 
L 183.686739 41.144104 
L 183.847079 41.144104 
L 183.847079 40.619856 
L 185.549419 40.619856 
L 185.549419 39.047113 
L 186.301579 39.047113 
L 186.301579 34.328884 
L 186.590568 34.328884 
L 186.590568 32.756141 
L 186.746175 32.756141 
L 186.769108 31.707645 
L 186.917435 31.707645 
L 186.917435 29.610654 
L 187.081379 29.610654 
L 187.081379 29.086407 
L 187.296642 29.086407 
L 187.296642 27.513663 
L 333.168 27.513663 
L 333.168 27.513663 
" style="fill:none;stroke:#008000;stroke-linecap:square;stroke-width:1.5;"/>
   </g>
   <g id="line2d_43">
    <defs>
     <path d="M -0 6 
L 6 -6 
L -6 -6 
z
" id="me9e24610e2" style="stroke:#008000;stroke-linejoin:miter;stroke-width:1.5;"/>
    </defs>
    <g>
     <use style="fill-opacity:0;stroke:#008000;stroke-linejoin:miter;stroke-width:1.5;" x="86.917893" xlink:href="#me9e24610e2" y="257.134164"/>
     <use style="fill-opacity:0;stroke:#008000;stroke-linejoin:miter;stroke-width:1.5;" x="165.892064" xlink:href="#me9e24610e2" y="212.04886"/>
     <use style="fill-opacity:0;stroke:#008000;stroke-linejoin:miter;stroke-width:1.5;" x="183.847079" xlink:href="#me9e24610e2" y="40.619856"/>
     <use style="fill-opacity:0;stroke:#008000;stroke-linejoin:miter;stroke-width:1.5;" x="187.296642" xlink:href="#me9e24610e2" y="27.513663"/>
     <use style="fill-opacity:0;stroke:#008000;stroke-linejoin:miter;stroke-width:1.5;" x="187.296642" xlink:href="#me9e24610e2" y="27.513663"/>
     <use style="fill-opacity:0;stroke:#008000;stroke-linejoin:miter;stroke-width:1.5;" x="333.168" xlink:href="#me9e24610e2" y="27.513663"/>
    </g>
   </g>
   <g id="line2d_44">
    <path style="fill:none;stroke:#008000;stroke-linecap:square;stroke-width:1.5;"/>
    <g/>
   </g>
   <g id="line2d_45">
    <defs>
     <path d="M 0 1.5 
C 0.397805 1.5 0.77937 1.341951 1.06066 1.06066 
C 1.341951 0.77937 1.5 0.397805 1.5 0 
C 1.5 -0.397805 1.341951 -0.77937 1.06066 -1.06066 
C 0.77937 -1.341951 0.397805 -1.5 0 -1.5 
C -0.397805 -1.5 -0.77937 -1.341951 -1.06066 -1.06066 
C -1.341951 -0.77937 -1.5 -0.397805 -1.5 0 
C -1.5 0.397805 -1.341951 0.77937 -1.06066 1.06066 
C -0.77937 1.341951 -0.397805 1.5 0 1.5 
z
" id="mecd438d8a1" style="stroke:#0000ff;"/>
    </defs>
    <g>
     <use style="fill:#0000ff;stroke:#0000ff;" x="207.778837" xlink:href="#mecd438d8a1" y="27.513663"/>
     <use style="fill:#0000ff;stroke:#0000ff;" x="207.778837" xlink:href="#mecd438d8a1" y="27.513663"/>
    </g>
   </g>
   <g id="line2d_46">
    <path d="M 81.586754 294.88 
L 81.586754 288.589027 
L 82.350819 288.589027 
L 82.350819 284.395046 
L 83.784035 284.395046 
L 83.784035 283.870798 
L 92.70139 283.870798 
L 92.70139 281.773807 
L 95.351029 281.773807 
L 95.351029 278.104073 
L 96.038666 278.104073 
L 96.038666 274.958587 
L 96.699848 274.958587 
L 96.699848 273.385844 
L 97.021141 273.385844 
L 97.021141 270.240357 
L 99.67078 270.240357 
L 99.67078 269.191862 
L 100.983527 269.191862 
L 100.983527 268.667614 
L 101.725597 268.667614 
L 101.725597 266.046375 
L 101.966002 266.046375 
L 101.966002 263.425137 
L 102.895343 263.425137 
L 102.895343 262.900889 
L 103.560793 262.900889 
L 103.560793 262.376641 
L 108.286687 262.376641 
L 108.286687 260.279651 
L 109.093814 260.279651 
L 109.093814 259.755403 
L 109.250788 259.755403 
L 109.250788 259.231155 
L 109.406343 259.231155 
L 109.406343 258.18266 
L 110.014853 258.18266 
L 110.014853 257.658412 
L 111.030511 257.658412 
L 111.030511 256.609917 
L 111.855724 256.609917 
L 111.855724 254.512926 
L 111.989488 254.512926 
L 111.989488 253.988678 
L 114.696138 253.988678 
L 114.696138 253.46443 
L 117.133064 253.46443 
L 117.133064 252.940182 
L 120.609239 252.940182 
L 120.609239 252.415935 
L 121.320594 252.415935 
L 121.320594 251.891687 
L 122.151854 251.891687 
L 122.151854 251.367439 
L 124.493121 251.367439 
L 124.493121 250.843192 
L 129.341145 250.843192 
L 129.341145 250.318944 
L 129.961052 250.318944 
L 129.961052 249.794696 
L 131.907344 249.794696 
L 131.907344 249.270448 
L 132.563791 249.270448 
L 132.563791 248.746201 
L 133.805948 248.746201 
L 133.805948 248.221953 
L 135.583215 248.221953 
L 135.583215 247.697705 
L 137.618997 247.697705 
L 137.618997 247.173458 
L 143.884213 247.173458 
L 143.884213 246.64921 
L 144.356853 246.64921 
L 144.356853 246.124962 
L 156.210188 246.124962 
L 156.210188 245.600714 
L 158.421295 245.600714 
L 158.421295 245.076467 
L 159.495934 245.076467 
L 159.495934 244.552219 
L 160.672864 244.552219 
L 160.672864 244.027971 
L 163.226976 244.027971 
L 163.226976 243.503724 
L 165.029187 243.503724 
L 165.029187 242.979476 
L 165.3489 242.979476 
L 165.3489 242.455228 
L 165.556818 242.455228 
L 165.556818 241.93098 
L 166.978456 241.93098 
L 166.978456 241.406733 
L 170.005984 241.406733 
L 170.005984 240.882485 
L 170.173812 240.882485 
L 170.173812 240.358237 
L 170.902908 240.358237 
L 170.902908 239.83399 
L 171.338628 239.83399 
L 171.338628 239.309742 
L 172.033045 239.309742 
L 172.033045 238.785494 
L 172.234414 238.785494 
L 172.234414 238.261246 
L 172.484825 238.261246 
L 172.484825 237.736999 
L 173.059126 237.736999 
L 173.066757 236.688503 
L 174.08501 236.688503 
L 174.08501 236.164255 
L 174.699459 236.164255 
L 174.699459 235.640008 
L 175.67056 235.640008 
L 175.67056 235.11576 
L 176.222218 235.11576 
L 176.222218 234.591512 
L 176.502482 234.591512 
L 176.502482 234.067265 
L 176.897711 234.067265 
L 176.900763 232.494521 
L 177.7899 232.494521 
L 177.7899 231.970274 
L 178.660111 231.970274 
L 178.706882 230.921778 
L 179.511992 230.921778 
L 179.551274 229.873283 
L 179.80831 229.873283 
L 179.857204 228.824787 
L 179.98266 228.824787 
L 179.98266 226.203549 
L 180.097073 226.203549 
L 180.099607 220.961072 
L 180.215764 220.961072 
L 180.215764 219.388328 
L 180.396013 219.388328 
L 180.420899 217.815585 
L 180.816679 217.815585 
L 180.911195 215.718594 
L 181.291242 215.718594 
L 181.291242 215.194347 
L 181.789836 215.194347 
L 181.789836 214.670099 
L 182.045128 214.670099 
L 182.045128 214.145851 
L 182.243089 214.145851 
L 182.338997 212.573108 
L 182.354559 212.573108 
L 182.354559 212.04886 
L 182.853894 212.04886 
L 182.853894 211.524613 
L 183.121619 211.524613 
L 183.208532 210.476117 
L 183.370581 210.476117 
L 183.462499 209.427622 
L 183.766072 209.427622 
L 183.857941 208.379126 
L 183.987759 208.379126 
L 184.088502 207.330631 
L 184.276314 207.330631 
L 184.276314 205.757888 
L 184.454231 205.757888 
L 184.51509 203.660897 
L 184.748661 203.660897 
L 184.843131 202.088154 
L 184.929434 202.088154 
L 185.032428 198.41842 
L 185.332156 198.41842 
L 185.332156 197.894172 
L 185.514323 197.894172 
L 185.61572 190.030456 
L 185.657946 190.030456 
L 185.758502 181.642493 
L 185.782184 181.642493 
L 185.858473 178.497006 
L 185.95246 178.497006 
L 186.004653 176.924263 
L 186.877057 176.924263 
L 186.877057 176.400016 
L 187.047024 176.400016 
L 187.101061 173.778777 
L 187.178441 173.778777 
L 187.257146 166.439309 
L 187.398576 166.439309 
L 187.499361 164.866566 
L 187.512535 164.866566 
L 187.581532 154.905859 
L 187.65352 154.905859 
L 187.764184 149.139134 
L 187.938492 149.139134 
L 187.991403 147.566391 
L 188.152336 147.566391 
L 188.152336 147.042143 
L 188.277172 147.042143 
L 188.377645 137.081437 
L 188.539671 137.081437 
L 188.58458 136.032941 
L 188.655575 136.032941 
L 188.766114 132.363207 
L 188.857689 132.363207 
L 188.950293 125.547987 
L 188.997163 125.547987 
L 188.997163 123.975244 
L 189.129523 123.975244 
L 189.135515 120.829757 
L 189.520595 120.829757 
L 189.596586 114.014537 
L 189.644638 114.014537 
L 189.644638 113.490289 
L 189.812488 113.490289 
L 189.812488 111.393298 
L 190.115078 111.393298 
L 190.115078 110.869051 
L 190.326001 110.869051 
L 190.35672 108.77206 
L 191.052534 108.77206 
L 191.052534 108.247812 
L 191.265564 108.247812 
L 191.375042 105.626573 
L 191.464218 105.626573 
L 191.487746 104.578078 
L 191.919854 104.578078 
L 191.983427 96.714362 
L 192.068246 96.714362 
L 192.175255 93.568876 
L 192.207854 93.568876 
L 192.25164 92.520381 
L 192.613884 92.520381 
L 192.649326 90.947637 
L 193.428618 90.947637 
L 193.428618 90.42339 
L 193.561116 90.42339 
L 193.644276 84.132417 
L 193.716712 84.132417 
L 193.716712 83.608169 
L 193.88228 83.608169 
L 193.953722 80.986931 
L 194.935694 80.986931 
L 194.935694 79.938435 
L 195.239738 79.938435 
L 195.313086 78.365692 
L 195.514745 78.365692 
L 195.598248 68.404985 
L 195.67111 68.404985 
L 195.775246 58.968526 
L 195.84939 58.968526 
L 195.861548 57.920031 
L 196.658078 57.920031 
L 196.658078 57.395783 
L 197.104735 57.395783 
L 197.193065 56.347288 
L 197.296789 56.347288 
L 197.332154 49.532068 
L 198.31592 49.532068 
L 198.31592 49.00782 
L 199.959998 49.00782 
L 199.959998 48.483572 
L 200.459348 48.483572 
L 200.459348 47.435077 
L 201.365136 47.435077 
L 201.365136 46.910829 
L 201.692146 46.910829 
L 201.717377 45.862334 
L 202.010218 45.862334 
L 202.010218 45.338086 
L 202.147765 45.338086 
L 202.147765 44.28959 
L 202.295367 44.28959 
L 202.295367 43.241095 
L 202.605989 43.241095 
L 202.605989 36.950122 
L 205.321271 36.950122 
L 205.321271 36.425875 
L 206.369268 36.425875 
L 206.369268 35.901627 
L 206.95862 35.901627 
L 207.027516 34.853131 
L 207.524836 34.853131 
L 207.62372 33.804636 
L 207.674732 33.804636 
L 207.778837 27.513663 
L 333.168 27.513663 
L 333.168 27.513663 
" style="fill:none;stroke:#0000ff;stroke-linecap:square;stroke-width:1.5;"/>
   </g>
   <g id="line2d_47">
    <defs>
     <path d="M 0 -6 
L -1.347084 -1.854102 
L -5.706339 -1.854102 
L -2.179628 0.708204 
L -3.526712 4.854102 
L -0 2.291796 
L 3.526712 4.854102 
L 2.179628 0.708204 
L 5.706339 -1.854102 
L 1.347084 -1.854102 
z
" id="m9437282bbf" style="stroke:#0000ff;stroke-linejoin:bevel;stroke-width:1.5;"/>
    </defs>
    <g>
     <use style="fill-opacity:0;stroke:#0000ff;stroke-linejoin:bevel;stroke-width:1.5;" x="166.978456" xlink:href="#m9437282bbf" y="241.93098"/>
     <use style="fill-opacity:0;stroke:#0000ff;stroke-linejoin:bevel;stroke-width:1.5;" x="189.520595" xlink:href="#m9437282bbf" y="120.829757"/>
     <use style="fill-opacity:0;stroke:#0000ff;stroke-linejoin:bevel;stroke-width:1.5;" x="207.778837" xlink:href="#m9437282bbf" y="32.756141"/>
     <use style="fill-opacity:0;stroke:#0000ff;stroke-linejoin:bevel;stroke-width:1.5;" x="207.778837" xlink:href="#m9437282bbf" y="27.513663"/>
     <use style="fill-opacity:0;stroke:#0000ff;stroke-linejoin:bevel;stroke-width:1.5;" x="333.168" xlink:href="#m9437282bbf" y="27.513663"/>
    </g>
   </g>
   <g id="line2d_48">
    <path style="fill:none;stroke:#0000ff;stroke-linecap:square;stroke-width:1.5;"/>
    <g/>
   </g>
   <g id="line2d_49">
    <defs>
     <path d="M 0 1.5 
C 0.397805 1.5 0.77937 1.341951 1.06066 1.06066 
C 1.341951 0.77937 1.5 0.397805 1.5 0 
C 1.5 -0.397805 1.341951 -0.77937 1.06066 -1.06066 
C 0.77937 -1.341951 0.397805 -1.5 0 -1.5 
C -0.397805 -1.5 -0.77937 -1.341951 -1.06066 -1.06066 
C -1.341951 -0.77937 -1.5 -0.397805 -1.5 0 
C -1.5 0.397805 -1.341951 0.77937 -1.06066 1.06066 
C -0.77937 1.341951 -0.397805 1.5 0 1.5 
z
" id="m8f5a0d5bd4" style="stroke:#000000;"/>
    </defs>
    <g>
     <use style="stroke:#000000;" x="287.641751" xlink:href="#m8f5a0d5bd4" y="27.513663"/>
     <use style="stroke:#000000;" x="287.641751" xlink:href="#m8f5a0d5bd4" y="27.513663"/>
    </g>
   </g>
   <g id="line2d_50">
    <path d="M 88.814625 294.88 
L 88.814625 292.783009 
L 96.038666 292.783009 
L 96.038666 292.258761 
L 96.372436 292.258761 
L 96.372436 289.637523 
L 97.021141 289.637523 
L 97.021141 286.492036 
L 99.11626 286.492036 
L 99.11626 281.773807 
L 100.600121 281.773807 
L 100.600121 281.249559 
L 100.728876 281.249559 
L 100.728876 278.104073 
L 101.604122 278.104073 
L 101.604122 276.007082 
L 102.084955 276.007082 
L 102.084955 273.910091 
L 102.552701 273.910091 
L 102.552701 271.8131 
L 103.008056 271.8131 
L 103.008056 269.191862 
L 103.231288 269.191862 
L 103.231288 267.619119 
L 103.451658 267.619119 
L 103.451658 267.094871 
L 104.615641 267.094871 
L 104.615641 261.852394 
L 105.991465 261.852394 
L 105.991465 260.803898 
L 107.352754 260.803898 
L 107.352754 258.18266 
L 107.952917 258.18266 
L 107.952917 255.037173 
L 118.508888 255.037173 
L 118.508888 254.512926 
L 124.428624 254.512926 
L 124.428624 253.988678 
L 124.812029 253.988678 
L 124.812029 253.46443 
L 127.872003 253.46443 
L 127.872003 252.940182 
L 137.453213 252.940182 
L 137.453213 252.415935 
L 143.632361 252.415935 
L 143.632361 251.891687 
L 150.516973 251.891687 
L 150.516973 251.367439 
L 151.176953 251.367439 
L 151.176953 250.843192 
L 154.629305 250.843192 
L 154.629305 250.318944 
L 154.768126 250.318944 
L 154.768126 249.794696 
L 157.778953 249.794696 
L 157.778953 249.270448 
L 160.404039 249.270448 
L 160.404039 248.746201 
L 160.696383 248.746201 
L 160.696383 248.221953 
L 161.622838 248.221953 
L 161.622838 247.697705 
L 173.631477 247.697705 
L 173.631477 247.173458 
L 180.722862 247.173458 
L 180.722862 246.64921 
L 180.928105 246.64921 
L 180.928105 246.124962 
L 181.943011 246.124962 
L 181.943011 245.600714 
L 182.967919 245.600714 
L 182.967919 245.076467 
L 183.744565 245.076467 
L 183.744565 244.552219 
L 184.531739 244.552219 
L 184.61572 243.503724 
L 184.760257 243.503724 
L 184.760257 242.979476 
L 186.372671 242.979476 
L 186.372671 242.455228 
L 186.49274 242.455228 
L 186.49274 241.93098 
L 187.690215 241.93098 
L 187.690215 241.406733 
L 189.888636 241.406733 
L 189.888636 240.882485 
L 191.317752 240.882485 
L 191.317752 240.358237 
L 191.452441 240.358237 
L 191.452441 239.83399 
L 192.499731 239.83399 
L 192.499731 239.309742 
L 192.819403 239.309742 
L 192.819403 238.785494 
L 193.829928 238.785494 
L 193.829928 238.261246 
L 195.059762 238.261246 
L 195.059762 237.736999 
L 197.275814 237.736999 
L 197.275814 237.212751 
L 198.083886 237.212751 
L 198.083886 236.688503 
L 198.709123 236.688503 
L 198.709123 236.164255 
L 198.848435 236.164255 
L 198.848435 235.640008 
L 199.135858 235.640008 
L 199.135858 235.11576 
L 199.733501 235.11576 
L 199.733501 234.591512 
L 200.553261 234.591512 
L 200.553261 234.067265 
L 201.661097 234.067265 
L 201.661097 233.543017 
L 201.843339 233.543017 
L 201.843339 233.018769 
L 202.088649 233.018769 
L 202.088649 232.494521 
L 202.473109 232.494521 
L 202.473109 231.970274 
L 202.887559 231.970274 
L 202.887559 231.446026 
L 204.44044 231.446026 
L 204.44044 230.921778 
L 205.406922 230.921778 
L 205.406922 230.397531 
L 205.632111 230.397531 
L 205.728214 228.30054 
L 205.854671 228.30054 
L 205.960519 227.252044 
L 206.218025 227.252044 
L 206.218025 226.727797 
L 207.270415 226.727797 
L 207.270415 226.203549 
L 207.68288 226.203549 
L 207.68288 225.679301 
L 208.008669 225.679301 
L 208.008669 224.630806 
L 208.347511 224.630806 
L 208.428141 223.58231 
L 208.669951 223.58231 
L 208.669951 223.058063 
L 208.970635 223.058063 
L 208.970635 222.533815 
L 209.399359 222.533815 
L 209.413866 221.485319 
L 209.789972 221.485319 
L 209.789972 220.961072 
L 210.03281 220.961072 
L 210.03281 220.436824 
L 210.279707 220.436824 
L 210.383357 218.339833 
L 210.416176 218.339833 
L 210.524835 212.04886 
L 210.540148 212.04886 
L 210.649314 207.854879 
L 210.7062 207.854879 
L 210.722419 206.282136 
L 211.185395 206.282136 
L 211.185395 205.757888 
L 212.010945 205.757888 
L 212.010945 205.23364 
L 212.324701 205.23364 
L 212.324701 204.709392 
L 212.446108 204.709392 
L 212.446108 204.185145 
L 212.631496 204.185145 
L 212.631496 203.660897 
L 212.823967 203.660897 
L 212.913956 202.088154 
L 212.947347 202.088154 
L 212.962145 199.466915 
L 213.108507 199.466915 
L 213.115561 194.748686 
L 214.395631 194.748686 
L 214.395631 194.224438 
L 214.840462 194.224438 
L 214.933874 193.175943 
L 214.968398 193.175943 
L 215.065096 184.263731 
L 215.089434 184.263731 
L 215.158123 181.118245 
L 215.237039 181.118245 
L 215.296644 180.06975 
L 215.420105 180.06975 
L 215.528984 174.827272 
L 215.531887 174.827272 
L 215.55831 170.633291 
L 215.774609 170.633291 
L 215.832698 169.060547 
L 216.065612 169.060547 
L 216.065612 168.5363 
L 216.80539 168.5363 
L 216.900206 158.575593 
L 216.944076 158.575593 
L 216.956845 157.00285 
L 217.5617 157.00285 
L 217.5617 156.478602 
L 217.687329 156.478602 
L 217.687329 155.430107 
L 218.359603 155.430107 
L 218.359603 154.905859 
L 219.801975 154.905859 
L 219.801975 154.381611 
L 220.480536 154.381611 
L 220.564602 143.372409 
L 220.742467 143.372409 
L 220.742467 142.848162 
L 221.200008 142.848162 
L 221.311076 141.799666 
L 222.348006 141.799666 
L 222.348006 141.275418 
L 222.595667 141.275418 
L 222.595667 140.226923 
L 223.041201 140.226923 
L 223.041201 139.702675 
L 223.657142 139.702675 
L 223.657142 139.178427 
L 223.818894 139.178427 
L 223.818894 138.129932 
L 223.940032 138.129932 
L 223.988308 135.508693 
L 224.090338 135.508693 
L 224.137999 129.217721 
L 224.265165 129.217721 
L 224.265165 128.693473 
L 224.432756 128.693473 
L 224.479575 125.547987 
L 224.549946 125.547987 
L 224.549946 116.111528 
L 224.785154 116.111528 
L 224.785154 115.58728 
L 225.304308 115.58728 
L 225.304308 115.063032 
L 225.950693 115.063032 
L 225.950693 114.014537 
L 226.537647 114.014537 
L 226.628354 101.956839 
L 227.720865 101.956839 
L 227.720865 101.432592 
L 229.107446 101.432592 
L 229.107446 100.908344 
L 229.404952 100.908344 
L 229.404952 100.384096 
L 231.212811 100.384096 
L 231.212811 99.859849 
L 231.784887 99.859849 
L 231.784887 99.335601 
L 232.229687 99.335601 
L 232.271629 90.947637 
L 232.372769 90.947637 
L 232.433615 82.035426 
L 233.437766 82.035426 
L 233.437766 81.511178 
L 249.16946 81.511178 
L 249.232221 65.783747 
L 261.532883 65.783747 
L 261.532883 65.259499 
L 264.092307 65.259499 
L 264.116415 52.153306 
L 283.609168 52.153306 
L 283.616739 39.571361 
L 287.635912 39.571361 
L 287.641751 27.513663 
L 333.168 27.513663 
L 333.168 27.513663 
" style="fill:none;stroke:#000000;stroke-linecap:square;stroke-width:1.5;"/>
   </g>
   <g id="line2d_51">
    <defs>
     <path d="M 0 6 
C 1.591219 6 3.117479 5.367802 4.242641 4.242641 
C 5.367802 3.117479 6 1.591219 6 0 
C 6 -1.591219 5.367802 -3.117479 4.242641 -4.242641 
C 3.117479 -5.367802 1.591219 -6 0 -6 
C -1.591219 -6 -3.117479 -5.367802 -4.242641 -4.242641 
C -5.367802 -3.117479 -6 -1.591219 -6 0 
C -6 1.591219 -5.367802 3.117479 -4.242641 4.242641 
C -3.117479 5.367802 -1.591219 6 0 6 
z
" id="m84f0732475" style="stroke:#000000;stroke-width:1.5;"/>
    </defs>
    <g>
     <use style="fill-opacity:0;stroke:#000000;stroke-width:1.5;" x="143.632361" xlink:href="#m84f0732475" y="251.891687"/>
     <use style="fill-opacity:0;stroke:#000000;stroke-width:1.5;" x="220.564602" xlink:href="#m84f0732475" y="143.372409"/>
     <use style="fill-opacity:0;stroke:#000000;stroke-width:1.5;" x="264.103749" xlink:href="#m84f0732475" y="63.162508"/>
     <use style="fill-opacity:0;stroke:#000000;stroke-width:1.5;" x="287.641751" xlink:href="#m84f0732475" y="27.513663"/>
     <use style="fill-opacity:0;stroke:#000000;stroke-width:1.5;" x="333.168" xlink:href="#m84f0732475" y="27.513663"/>
    </g>
   </g>
   <g id="line2d_52">
    <path style="fill:none;stroke:#000000;stroke-linecap:square;stroke-width:1.5;"/>
    <g/>
   </g>
   <g id="line2d_53">
    <defs>
     <path d="M 0 1.5 
C 0.397805 1.5 0.77937 1.341951 1.06066 1.06066 
C 1.341951 0.77937 1.5 0.397805 1.5 0 
C 1.5 -0.397805 1.341951 -0.77937 1.06066 -1.06066 
C 0.77937 -1.341951 0.397805 -1.5 0 -1.5 
C -0.397805 -1.5 -0.77937 -1.341951 -1.06066 -1.06066 
C -1.341951 -0.77937 -1.5 -0.397805 -1.5 0 
C -1.5 0.397805 -1.341951 0.77937 -1.06066 1.06066 
C -0.77937 1.341951 -0.397805 1.5 0 1.5 
z
" id="mc89ba56631" style="stroke:#ff0000;"/>
    </defs>
    <g>
     <use style="fill:#ff0000;stroke:#ff0000;" x="366.868831" xlink:href="#mc89ba56631" y="27.513663"/>
     <use style="fill:#ff0000;stroke:#ff0000;" x="366.868831" xlink:href="#mc89ba56631" y="27.513663"/>
    </g>
   </g>
   <g id="line2d_54">
    <path d="M 96.454876 294.88 
L 96.454876 294.355752 
L 98.903614 294.355752 
L 98.903614 293.831505 
L 99.395756 293.831505 
L 99.395756 292.783009 
L 100.008485 292.783009 
L 100.075237 291.734514 
L 100.207968 291.734514 
L 100.207968 290.686018 
L 100.983527 290.686018 
L 100.983527 289.637523 
L 101.23446 289.637523 
L 101.23446 286.492036 
L 102.084955 286.492036 
L 102.084955 285.443541 
L 102.320419 285.443541 
L 102.320419 283.870798 
L 103.175751 283.870798 
L 103.175751 283.34655 
L 104.970058 283.34655 
L 105.020098 279.152568 
L 105.705775 279.152568 
L 105.705775 278.628321 
L 105.944179 278.628321 
L 105.944179 277.055578 
L 106.41129 277.055578 
L 106.41129 276.53133 
L 106.821105 276.53133 
L 106.821105 275.482834 
L 108.451173 275.482834 
L 108.532829 270.240357 
L 108.975134 270.240357 
L 108.975134 267.094871 
L 109.713291 267.094871 
L 109.713291 266.046375 
L 110.311216 266.046375 
L 110.311216 263.949385 
L 110.924517 263.949385 
L 110.924517 262.900889 
L 111.653105 262.900889 
L 111.687041 261.852394 
L 111.788449 261.852394 
L 111.788449 260.803898 
L 112.122219 260.803898 
L 112.188203 259.755403 
L 112.319414 259.755403 
L 112.319414 258.18266 
L 114.117341 258.18266 
L 114.117341 257.658412 
L 115.50222 257.658412 
L 115.50222 257.134164 
L 116.194115 257.134164 
L 116.246202 254.512926 
L 119.04748 254.512926 
L 119.04748 253.988678 
L 123.085078 253.988678 
L 123.085078 253.46443 
L 125.340952 253.46443 
L 125.340952 252.940182 
L 160.280077 252.940182 
L 160.280077 252.415935 
L 174.709863 252.415935 
L 174.709863 251.891687 
L 174.851419 251.891687 
L 174.851419 251.367439 
L 177.921261 251.367439 
L 177.921261 250.843192 
L 178.88863 250.843192 
L 178.88863 250.318944 
L 179.441715 250.318944 
L 179.441715 249.794696 
L 180.54911 249.794696 
L 180.54911 249.270448 
L 183.003798 249.270448 
L 183.003798 248.746201 
L 183.386807 248.746201 
L 183.386807 248.221953 
L 187.219932 248.221953 
L 187.219932 247.697705 
L 191.985013 247.697705 
L 191.985013 247.173458 
L 193.784274 247.173458 
L 193.784274 246.64921 
L 195.246562 246.64921 
L 195.246562 246.124962 
L 197.357006 246.124962 
L 197.417939 245.076467 
L 198.843327 245.076467 
L 198.843327 244.552219 
L 199.856758 244.552219 
L 199.856758 244.027971 
L 200.316141 244.027971 
L 200.316141 243.503724 
L 201.571789 243.503724 
L 201.571789 242.979476 
L 201.956311 242.979476 
L 201.956311 242.455228 
L 203.614249 242.455228 
L 203.614249 241.93098 
L 204.76958 241.93098 
L 204.76958 241.406733 
L 205.348994 241.406733 
L 205.348994 240.882485 
L 206.572092 240.882485 
L 206.572092 240.358237 
L 207.485483 240.358237 
L 207.485483 239.83399 
L 209.958824 239.83399 
L 209.958824 239.309742 
L 210.390208 239.309742 
L 210.390208 238.785494 
L 210.755981 238.785494 
L 210.755981 238.261246 
L 211.163995 238.261246 
L 211.163995 237.736999 
L 211.837006 237.736999 
L 211.837006 237.212751 
L 212.330335 237.212751 
L 212.330335 236.688503 
L 213.16032 236.688503 
L 213.16032 236.164255 
L 215.734658 236.164255 
L 215.734658 235.640008 
L 215.987984 235.640008 
L 215.987984 235.11576 
L 217.629126 235.11576 
L 217.629126 234.591512 
L 218.7517 234.591512 
L 218.7517 234.067265 
L 219.227765 234.067265 
L 219.227765 233.543017 
L 219.710862 233.543017 
L 219.710862 233.018769 
L 219.94208 233.018769 
L 219.94208 232.494521 
L 220.830477 232.494521 
L 220.830477 231.970274 
L 222.388305 231.970274 
L 222.388305 231.446026 
L 222.855033 231.446026 
L 222.855033 230.921778 
L 223.367627 230.921778 
L 223.367627 230.397531 
L 224.44956 230.397531 
L 224.44956 229.873283 
L 224.744069 229.873283 
L 224.744069 229.349035 
L 224.951877 229.349035 
L 224.951877 228.824787 
L 225.079707 228.824787 
L 225.079707 228.30054 
L 225.519792 228.30054 
L 225.519792 227.776292 
L 227.416363 227.776292 
L 227.416363 227.252044 
L 229.680873 227.252044 
L 229.680873 226.727797 
L 229.909457 226.727797 
L 229.909457 226.203549 
L 231.525123 226.203549 
L 231.525123 225.679301 
L 232.072997 225.679301 
L 232.072997 225.155053 
L 233.43421 225.155053 
L 233.43421 224.630806 
L 234.826239 224.630806 
L 234.826239 224.106558 
L 236.596815 224.106558 
L 236.596815 223.58231 
L 237.426082 223.58231 
L 237.444118 222.533815 
L 237.558449 222.533815 
L 237.597575 221.485319 
L 237.682539 221.485319 
L 237.73559 220.436824 
L 237.82272 220.436824 
L 237.93262 214.670099 
L 237.951751 214.670099 
L 237.983573 212.573108 
L 252.764592 212.573108 
L 252.764592 212.04886 
L 267.789244 212.04886 
L 267.789244 211.524613 
L 269.678674 211.524613 
L 269.686485 210.476117 
L 275.939283 210.476117 
L 275.939283 209.95187 
L 280.320524 209.95187 
L 280.320524 209.427622 
L 282.222766 209.427622 
L 282.222766 208.903374 
L 283.84319 208.903374 
L 283.84319 208.379126 
L 288.266328 208.379126 
L 288.266328 207.854879 
L 294.163124 207.854879 
L 294.252811 193.175943 
L 294.70217 193.175943 
L 294.70217 192.651695 
L 297.407737 192.651695 
L 297.410327 191.078952 
L 298.8538 191.078952 
L 298.8538 190.554704 
L 301.312468 190.554704 
L 301.312468 190.030456 
L 303.047538 190.030456 
L 303.047538 189.506209 
L 305.714142 189.506209 
L 305.814882 187.409218 
L 305.827645 187.409218 
L 305.838711 176.924263 
L 307.519343 176.924263 
L 307.519343 176.400016 
L 308.335288 176.400016 
L 308.335288 175.875768 
L 309.795466 175.875768 
L 309.795466 175.35152 
L 312.666625 175.35152 
L 312.697393 165.915061 
L 313.842845 165.915061 
L 313.842845 165.390813 
L 315.449916 165.390813 
L 315.449916 164.866566 
L 317.581172 164.866566 
L 317.586518 156.478602 
L 321.378113 156.478602 
L 321.388437 148.090639 
L 322.088464 148.090639 
L 322.088464 147.042143 
L 322.443441 147.042143 
L 322.443441 146.517896 
L 324.498947 146.517896 
L 324.499991 139.178427 
L 325.085781 139.178427 
L 325.085781 138.65418 
L 327.131272 138.65418 
L 327.133458 130.790464 
L 327.894768 130.790464 
L 327.894768 130.266216 
L 329.413961 130.266216 
L 329.416771 123.450996 
L 331.429454 123.450996 
L 331.431908 119.257014 
L 333.168 119.257014 
L 333.168 119.257014 
" style="fill:none;stroke:#ff0000;stroke-linecap:square;stroke-width:1.5;"/>
   </g>
   <g id="line2d_55">
    <defs>
     <path d="M -6 6 
L 6 6 
L 6 -6 
L -6 -6 
z
" id="m4546dd55ad" style="stroke:#ff0000;stroke-linejoin:miter;stroke-width:1.5;"/>
    </defs>
    <g>
     <use style="fill-opacity:0;stroke:#ff0000;stroke-linejoin:miter;stroke-width:1.5;" x="125.340952" xlink:href="#m4546dd55ad" y="253.46443"/>
     <use style="fill-opacity:0;stroke:#ff0000;stroke-linejoin:miter;stroke-width:1.5;" x="229.909457" xlink:href="#m4546dd55ad" y="226.727797"/>
     <use style="fill-opacity:0;stroke:#ff0000;stroke-linejoin:miter;stroke-width:1.5;" x="282.222766" xlink:href="#m4546dd55ad" y="209.427622"/>
     <use style="fill-opacity:0;stroke:#ff0000;stroke-linejoin:miter;stroke-width:1.5;" x="331.431908" xlink:href="#m4546dd55ad" y="119.257014"/>
     <use style="fill-opacity:0;stroke:#ff0000;stroke-linejoin:miter;stroke-width:1.5;" x="333.168" xlink:href="#m4546dd55ad" y="119.257014"/>
    </g>
   </g>
   <g id="line2d_56">
    <path style="fill:none;stroke:#ff0000;stroke-linecap:square;stroke-width:1.5;"/>
    <g/>
   </g>
   <g id="line2d_57">
    <path clip-path="url(#pc3004949bc)" d="M 293.589714 207.854879 
" style="fill:none;stroke:#ff0000;stroke-linecap:square;stroke-width:1.5;"/>
    <defs>
     <path d="M -12 12 
L 12 -12 
M -12 -12 
L 12 12 
" id="m3b27774f91" style="stroke:#ff0000;"/>
    </defs>
    <g clip-path="url(#pc3004949bc)">
     <use style="fill:#ff0000;stroke:#ff0000;" x="293.589714" xlink:href="#m3b27774f91" y="207.854879"/>
    </g>
   </g>
   <g id="line2d_58">
    <path d="M 333.168 119.257014 
L 363.64328 289.532673 
" style="fill:none;stroke:#ff0000;stroke-linecap:square;stroke-width:1.5;"/>
    <g>
     <use style="fill-opacity:0;stroke:#ff0000;stroke-linejoin:miter;stroke-width:1.5;" x="333.168" xlink:href="#m4546dd55ad" y="119.257014"/>
     <use style="fill-opacity:0;stroke:#ff0000;stroke-linejoin:miter;stroke-width:1.5;" x="363.64328" xlink:href="#m4546dd55ad" y="289.532673"/>
    </g>
   </g>
   <g id="line2d_59">
    <path d="M 333.168 27.513663 
L 363.64328 225.364752 
" style="fill:none;stroke:#000000;stroke-linecap:square;stroke-width:1.5;"/>
    <g>
     <use style="fill-opacity:0;stroke:#000000;stroke-width:1.5;" x="333.168" xlink:href="#m84f0732475" y="27.513663"/>
     <use style="fill-opacity:0;stroke:#000000;stroke-width:1.5;" x="363.64328" xlink:href="#m84f0732475" y="225.364752"/>
    </g>
   </g>
   <g id="line2d_60">
    <path d="M 333.168 27.513663 
L 363.64328 161.196832 
" style="fill:none;stroke:#0000ff;stroke-linecap:square;stroke-width:1.5;"/>
    <g>
     <use style="fill-opacity:0;stroke:#0000ff;stroke-linejoin:bevel;stroke-width:1.5;" x="333.168" xlink:href="#m9437282bbf" y="27.513663"/>
     <use style="fill-opacity:0;stroke:#0000ff;stroke-linejoin:bevel;stroke-width:1.5;" x="363.64328" xlink:href="#m9437282bbf" y="161.196832"/>
    </g>
   </g>
   <g id="line2d_61">
    <path d="M 333.168 27.513663 
L 363.64328 97.028911 
" style="fill:none;stroke:#008000;stroke-linecap:square;stroke-width:1.5;"/>
    <g>
     <use style="fill-opacity:0;stroke:#008000;stroke-linejoin:miter;stroke-width:1.5;" x="333.168" xlink:href="#me9e24610e2" y="27.513663"/>
     <use style="fill-opacity:0;stroke:#008000;stroke-linejoin:miter;stroke-width:1.5;" x="363.64328" xlink:href="#me9e24610e2" y="97.028911"/>
    </g>
   </g>
   <g id="line2d_62">
    <path d="M 333.168 27.513663 
L 363.64328 32.86099 
" style="fill:none;stroke:#00bfbf;stroke-linecap:square;stroke-width:1.5;"/>
    <g>
     <use style="fill-opacity:0;stroke:#00bfbf;stroke-width:1.5;" x="333.168" xlink:href="#ma87fa906b3" y="27.513663"/>
     <use style="fill-opacity:0;stroke:#00bfbf;stroke-width:1.5;" x="363.64328" xlink:href="#ma87fa906b3" y="32.86099"/>
    </g>
   </g>
   <g id="line2d_63">
    <path d="M 333.168 294.88 
L 333.168 27.513663 
" style="fill:none;stroke:#000000;stroke-linecap:square;stroke-width:1.5;"/>
   </g>
   <g id="patch_3">
    <path d="M 56.12 294.88 
L 56.12 24.84 
" style="fill:none;stroke:#000000;stroke-linecap:square;stroke-linejoin:miter;stroke-width:0.8;"/>
   </g>
   <g id="patch_4">
    <path d="M 333.168 294.88 
L 333.168 24.84 
" style="fill:none;stroke:#000000;stroke-linecap:square;stroke-linejoin:miter;stroke-width:0.8;"/>
   </g>
   <g id="patch_5">
    <path d="M 56.12 294.88 
L 333.168 294.88 
" style="fill:none;stroke:#000000;stroke-linecap:square;stroke-linejoin:miter;stroke-width:0.8;"/>
   </g>
   <g id="patch_6">
    <path d="M 56.12 24.84 
L 333.168 24.84 
" style="fill:none;stroke:#000000;stroke-linecap:square;stroke-linejoin:miter;stroke-width:0.8;"/>
   </g>
   <g id="text_13">
    <!-- 20-D -->
    <defs>
     <path d="M 19.671875 64.796875 
L 19.671875 8.109375 
L 31.59375 8.109375 
Q 46.6875 8.109375 53.6875 14.9375 
Q 60.6875 21.78125 60.6875 36.53125 
Q 60.6875 51.171875 53.6875 57.984375 
Q 46.6875 64.796875 31.59375 64.796875 
z
M 9.8125 72.90625 
L 30.078125 72.90625 
Q 51.265625 72.90625 61.171875 64.09375 
Q 71.09375 55.28125 71.09375 36.53125 
Q 71.09375 17.671875 61.125 8.828125 
Q 51.171875 0 30.078125 0 
L 9.8125 0 
z
" id="DejaVuSans-44"/>
    </defs>
    <g transform="translate(369.18424 294.223611)scale(0.17 -0.17)">
     <use xlink:href="#DejaVuSans-32"/>
     <use x="63.623047" xlink:href="#DejaVuSans-30"/>
     <use x="127.246094" xlink:href="#DejaVuSans-2d"/>
     <use x="163.330078" xlink:href="#DejaVuSans-44"/>
    </g>
   </g>
   <g id="text_14">
    <!-- 10-D -->
    <g transform="translate(369.18424 230.05569)scale(0.17 -0.17)">
     <use xlink:href="#DejaVuSans-31"/>
     <use x="63.623047" xlink:href="#DejaVuSans-30"/>
     <use x="127.246094" xlink:href="#DejaVuSans-2d"/>
     <use x="163.330078" xlink:href="#DejaVuSans-44"/>
    </g>
   </g>
   <g id="text_15">
    <!-- 5-D -->
    <defs>
     <path d="M 10.796875 72.90625 
L 49.515625 72.90625 
L 49.515625 64.59375 
L 19.828125 64.59375 
L 19.828125 46.734375 
Q 21.96875 47.46875 24.109375 47.828125 
Q 26.265625 48.1875 28.421875 48.1875 
Q 40.625 48.1875 47.75 41.5 
Q 54.890625 34.8125 54.890625 23.390625 
Q 54.890625 11.625 47.5625 5.09375 
Q 40.234375 -1.421875 26.90625 -1.421875 
Q 22.3125 -1.421875 17.546875 -0.640625 
Q 12.796875 0.140625 7.71875 1.703125 
L 7.71875 11.625 
Q 12.109375 9.234375 16.796875 8.0625 
Q 21.484375 6.890625 26.703125 6.890625 
Q 35.15625 6.890625 40.078125 11.328125 
Q 45.015625 15.765625 45.015625 23.390625 
Q 45.015625 31 40.078125 35.4375 
Q 35.15625 39.890625 26.703125 39.890625 
Q 22.75 39.890625 18.8125 39.015625 
Q 14.890625 38.140625 10.796875 36.28125 
z
" id="DejaVuSans-35"/>
    </defs>
    <g transform="translate(369.18424 165.887769)scale(0.17 -0.17)">
     <use xlink:href="#DejaVuSans-35"/>
     <use x="63.623047" xlink:href="#DejaVuSans-2d"/>
     <use x="99.707031" xlink:href="#DejaVuSans-44"/>
    </g>
   </g>
   <g id="text_16">
    <!-- 3-D -->
    <defs>
     <path d="M 40.578125 39.3125 
Q 47.65625 37.796875 51.625 33 
Q 55.609375 28.21875 55.609375 21.1875 
Q 55.609375 10.40625 48.1875 4.484375 
Q 40.765625 -1.421875 27.09375 -1.421875 
Q 22.515625 -1.421875 17.65625 -0.515625 
Q 12.796875 0.390625 7.625 2.203125 
L 7.625 11.71875 
Q 11.71875 9.328125 16.59375 8.109375 
Q 21.484375 6.890625 26.8125 6.890625 
Q 36.078125 6.890625 40.9375 10.546875 
Q 45.796875 14.203125 45.796875 21.1875 
Q 45.796875 27.640625 41.28125 31.265625 
Q 36.765625 34.90625 28.71875 34.90625 
L 20.21875 34.90625 
L 20.21875 43.015625 
L 29.109375 43.015625 
Q 36.375 43.015625 40.234375 45.921875 
Q 44.09375 48.828125 44.09375 54.296875 
Q 44.09375 59.90625 40.109375 62.90625 
Q 36.140625 65.921875 28.71875 65.921875 
Q 24.65625 65.921875 20.015625 65.03125 
Q 15.375 64.15625 9.8125 62.3125 
L 9.8125 71.09375 
Q 15.4375 72.65625 20.34375 73.4375 
Q 25.25 74.21875 29.59375 74.21875 
Q 40.828125 74.21875 47.359375 69.109375 
Q 53.90625 64.015625 53.90625 55.328125 
Q 53.90625 49.265625 50.4375 45.09375 
Q 46.96875 40.921875 40.578125 39.3125 
z
" id="DejaVuSans-33"/>
    </defs>
    <g transform="translate(369.18424 101.719848)scale(0.17 -0.17)">
     <use xlink:href="#DejaVuSans-33"/>
     <use x="63.623047" xlink:href="#DejaVuSans-2d"/>
     <use x="99.707031" xlink:href="#DejaVuSans-44"/>
    </g>
   </g>
   <g id="text_17">
    <!-- 2-D -->
    <g transform="translate(369.18424 37.551928)scale(0.17 -0.17)">
     <use xlink:href="#DejaVuSans-32"/>
     <use x="63.623047" xlink:href="#DejaVuSans-2d"/>
     <use x="99.707031" xlink:href="#DejaVuSans-44"/>
    </g>
   </g>
   <g id="text_18">
    <!-- bbob f20 -->
    <defs>
     <path d="M 48.6875 27.296875 
Q 48.6875 37.203125 44.609375 42.84375 
Q 40.53125 48.484375 33.40625 48.484375 
Q 26.265625 48.484375 22.1875 42.84375 
Q 18.109375 37.203125 18.109375 27.296875 
Q 18.109375 17.390625 22.1875 11.75 
Q 26.265625 6.109375 33.40625 6.109375 
Q 40.53125 6.109375 44.609375 11.75 
Q 48.6875 17.390625 48.6875 27.296875 
z
M 18.109375 46.390625 
Q 20.953125 51.265625 25.265625 53.625 
Q 29.59375 56 35.59375 56 
Q 45.5625 56 51.78125 48.09375 
Q 58.015625 40.1875 58.015625 27.296875 
Q 58.015625 14.40625 51.78125 6.484375 
Q 45.5625 -1.421875 35.59375 -1.421875 
Q 29.59375 -1.421875 25.265625 0.953125 
Q 20.953125 3.328125 18.109375 8.203125 
L 18.109375 0 
L 9.078125 0 
L 9.078125 75.984375 
L 18.109375 75.984375 
z
" id="DejaVuSans-62"/>
    </defs>
    <g transform="translate(58.89048 35.290806)scale(0.102 -0.102)">
     <use xlink:href="#DejaVuSans-62"/>
     <use x="63.476562" xlink:href="#DejaVuSans-62"/>
     <use x="126.953125" xlink:href="#DejaVuSans-6f"/>
     <use x="188.134766" xlink:href="#DejaVuSans-62"/>
     <use x="251.611328" xlink:href="#DejaVuSans-20"/>
     <use x="283.398438" xlink:href="#DejaVuSans-66"/>
     <use x="318.603516" xlink:href="#DejaVuSans-32"/>
     <use x="382.226562" xlink:href="#DejaVuSans-30"/>
    </g>
    <!-- 51 targets: 100..1e-08 -->
    <defs>
     <path d="M 11.71875 12.40625 
L 22.015625 12.40625 
L 22.015625 0 
L 11.71875 0 
z
M 11.71875 51.703125 
L 22.015625 51.703125 
L 22.015625 39.3125 
L 11.71875 39.3125 
z
" id="DejaVuSans-3a"/>
    </defs>
    <g transform="translate(58.89048 46.712575)scale(0.102 -0.102)">
     <use xlink:href="#DejaVuSans-35"/>
     <use x="63.623047" xlink:href="#DejaVuSans-31"/>
     <use x="127.246094" xlink:href="#DejaVuSans-20"/>
     <use x="159.033203" xlink:href="#DejaVuSans-74"/>
     <use x="198.242188" xlink:href="#DejaVuSans-61"/>
     <use x="259.521484" xlink:href="#DejaVuSans-72"/>
     <use x="300.619141" xlink:href="#DejaVuSans-67"/>
     <use x="364.095703" xlink:href="#DejaVuSans-65"/>
     <use x="425.619141" xlink:href="#DejaVuSans-74"/>
     <use x="464.828125" xlink:href="#DejaVuSans-73"/>
     <use x="516.927734" xlink:href="#DejaVuSans-3a"/>
     <use x="550.619141" xlink:href="#DejaVuSans-20"/>
     <use x="582.40625" xlink:href="#DejaVuSans-31"/>
     <use x="646.029297" xlink:href="#DejaVuSans-30"/>
     <use x="709.652344" xlink:href="#DejaVuSans-30"/>
     <use x="773.275391" xlink:href="#DejaVuSans-2e"/>
     <use x="805.0625" xlink:href="#DejaVuSans-2e"/>
     <use x="836.849609" xlink:href="#DejaVuSans-31"/>
     <use x="900.472656" xlink:href="#DejaVuSans-65"/>
     <use x="961.996094" xlink:href="#DejaVuSans-2d"/>
     <use x="998.080078" xlink:href="#DejaVuSans-30"/>
     <use x="1061.703125" xlink:href="#DejaVuSans-38"/>
    </g>
    <!-- 15 instances -->
    <g transform="translate(58.89048 58.134344)scale(0.102 -0.102)">
     <use xlink:href="#DejaVuSans-31"/>
     <use x="63.623047" xlink:href="#DejaVuSans-35"/>
     <use x="127.246094" xlink:href="#DejaVuSans-20"/>
     <use x="159.033203" xlink:href="#DejaVuSans-69"/>
     <use x="186.816406" xlink:href="#DejaVuSans-6e"/>
     <use x="250.195312" xlink:href="#DejaVuSans-73"/>
     <use x="302.294922" xlink:href="#DejaVuSans-74"/>
     <use x="341.503906" xlink:href="#DejaVuSans-61"/>
     <use x="402.783203" xlink:href="#DejaVuSans-6e"/>
     <use x="466.162109" xlink:href="#DejaVuSans-63"/>
     <use x="521.142578" xlink:href="#DejaVuSans-65"/>
     <use x="582.666016" xlink:href="#DejaVuSans-73"/>
    </g>
   </g>
   <g id="text_19">
    <!-- v2.4 -->
    <g style="fill:#808080;" transform="translate(183.733063 290.099912)scale(0.1 -0.1)">
     <use xlink:href="#DejaVuSans-76"/>
     <use x="59.179688" xlink:href="#DejaVuSans-32"/>
     <use x="122.802734" xlink:href="#DejaVuSans-2e"/>
     <use x="154.589844" xlink:href="#DejaVuSans-34"/>
    </g>
   </g>
   <g id="text_20">
    <!-- 20 Schwefel x*sin(x) -->
    <defs>
     <path d="M 53.515625 70.515625 
L 53.515625 60.890625 
Q 47.90625 63.578125 42.921875 64.890625 
Q 37.9375 66.21875 33.296875 66.21875 
Q 25.25 66.21875 20.875 63.09375 
Q 16.5 59.96875 16.5 54.203125 
Q 16.5 49.359375 19.40625 46.890625 
Q 22.3125 44.4375 30.421875 42.921875 
L 36.375 41.703125 
Q 47.40625 39.59375 52.65625 34.296875 
Q 57.90625 29 57.90625 20.125 
Q 57.90625 9.515625 50.796875 4.046875 
Q 43.703125 -1.421875 29.984375 -1.421875 
Q 24.8125 -1.421875 18.96875 -0.25 
Q 13.140625 0.921875 6.890625 3.21875 
L 6.890625 13.375 
Q 12.890625 10.015625 18.65625 8.296875 
Q 24.421875 6.59375 29.984375 6.59375 
Q 38.421875 6.59375 43.015625 9.90625 
Q 47.609375 13.234375 47.609375 19.390625 
Q 47.609375 24.75 44.3125 27.78125 
Q 41.015625 30.8125 33.5 32.328125 
L 27.484375 33.5 
Q 16.453125 35.6875 11.515625 40.375 
Q 6.59375 45.0625 6.59375 53.421875 
Q 6.59375 63.09375 13.40625 68.65625 
Q 20.21875 74.21875 32.171875 74.21875 
Q 37.3125 74.21875 42.625 73.28125 
Q 47.953125 72.359375 53.515625 70.515625 
z
" id="DejaVuSans-53"/>
     <path d="M 54.890625 33.015625 
L 54.890625 0 
L 45.90625 0 
L 45.90625 32.71875 
Q 45.90625 40.484375 42.875 44.328125 
Q 39.84375 48.1875 33.796875 48.1875 
Q 26.515625 48.1875 22.3125 43.546875 
Q 18.109375 38.921875 18.109375 30.90625 
L 18.109375 0 
L 9.078125 0 
L 9.078125 75.984375 
L 18.109375 75.984375 
L 18.109375 46.1875 
Q 21.34375 51.125 25.703125 53.5625 
Q 30.078125 56 35.796875 56 
Q 45.21875 56 50.046875 50.171875 
Q 54.890625 44.34375 54.890625 33.015625 
z
" id="DejaVuSans-68"/>
     <path d="M 4.203125 54.6875 
L 13.1875 54.6875 
L 24.421875 12.015625 
L 35.59375 54.6875 
L 46.1875 54.6875 
L 57.421875 12.015625 
L 68.609375 54.6875 
L 77.59375 54.6875 
L 63.28125 0 
L 52.6875 0 
L 40.921875 44.828125 
L 29.109375 0 
L 18.5 0 
z
" id="DejaVuSans-77"/>
     <path d="M 54.890625 54.6875 
L 35.109375 28.078125 
L 55.90625 0 
L 45.3125 0 
L 29.390625 21.484375 
L 13.484375 0 
L 2.875 0 
L 24.125 28.609375 
L 4.6875 54.6875 
L 15.28125 54.6875 
L 29.78125 35.203125 
L 44.28125 54.6875 
z
" id="DejaVuSans-78"/>
     <path d="M 47.015625 60.890625 
L 29.5 51.421875 
L 47.015625 41.890625 
L 44.1875 37.109375 
L 27.78125 47.015625 
L 27.78125 28.609375 
L 22.21875 28.609375 
L 22.21875 47.015625 
L 5.8125 37.109375 
L 2.984375 41.890625 
L 20.515625 51.421875 
L 2.984375 60.890625 
L 5.8125 65.71875 
L 22.21875 55.8125 
L 22.21875 74.21875 
L 27.78125 74.21875 
L 27.78125 55.8125 
L 44.1875 65.71875 
z
" id="DejaVuSans-2a"/>
    </defs>
    <g transform="translate(91.629937 18.84)scale(0.2 -0.2)">
     <use xlink:href="#DejaVuSans-32"/>
     <use x="63.623047" xlink:href="#DejaVuSans-30"/>
     <use x="127.246094" xlink:href="#DejaVuSans-20"/>
     <use x="159.033203" xlink:href="#DejaVuSans-53"/>
     <use x="222.509766" xlink:href="#DejaVuSans-63"/>
     <use x="277.490234" xlink:href="#DejaVuSans-68"/>
     <use x="340.869141" xlink:href="#DejaVuSans-77"/>
     <use x="422.65625" xlink:href="#DejaVuSans-65"/>
     <use x="484.179688" xlink:href="#DejaVuSans-66"/>
     <use x="519.384766" xlink:href="#DejaVuSans-65"/>
     <use x="580.908203" xlink:href="#DejaVuSans-6c"/>
     <use x="608.691406" xlink:href="#DejaVuSans-20"/>
     <use x="640.478516" xlink:href="#DejaVuSans-78"/>
     <use x="699.658203" xlink:href="#DejaVuSans-2a"/>
     <use x="749.658203" xlink:href="#DejaVuSans-73"/>
     <use x="801.757812" xlink:href="#DejaVuSans-69"/>
     <use x="829.541016" xlink:href="#DejaVuSans-6e"/>
     <use x="892.919922" xlink:href="#DejaVuSans-28"/>
     <use x="931.933594" xlink:href="#DejaVuSans-78"/>
     <use x="991.113281" xlink:href="#DejaVuSans-29"/>
    </g>
   </g>
  </g>
 </g>
 <defs>
  <clipPath id="pc3004949bc">
   <rect height="270.04" width="277.048" x="56.12" y="24.84"/>
  </clipPath>
 </defs>
</svg>
