<?xml version="1.0" encoding="utf-8" standalone="no"?>
<!DOCTYPE svg PUBLIC "-//W3C//DTD SVG 1.1//EN"
  "http://www.w3.org/Graphics/SVG/1.1/DTD/svg11.dtd">
<!-- Created with matplotlib (http://matplotlib.org/) -->
<svg height="345.6pt" version="1.1" viewBox="0 0 460.8 345.6" width="460.8pt" xmlns="http://www.w3.org/2000/svg" xmlns:xlink="http://www.w3.org/1999/xlink">
 <defs>
  <style type="text/css">
*{stroke-linecap:butt;stroke-linejoin:round;}
  </style>
 </defs>
 <g id="figure_1">
  <g id="patch_1">
   <path d="M 0 345.6 
L 460.8 345.6 
L 460.8 0 
L 0 0 
z
" style="fill:#ffffff;"/>
  </g>
  <g id="axes_1">
   <g id="patch_2">
    <path d="M 56.12 294.88 
L 333.168 294.88 
L 333.168 6.845228 
L 56.12 6.845228 
z
" style="fill:#ffffff;"/>
   </g>
   <g id="matplotlib.axis_1">
    <g id="xtick_1">
     <g id="line2d_1">
      <path clip-path="url(#p2ed01d26f1)" d="M 56.12 294.88 
L 56.12 6.845228 
" style="fill:none;stroke:#b0b0b0;stroke-linecap:square;stroke-width:0.8;"/>
     </g>
     <g id="line2d_2">
      <defs>
       <path d="M 0 0 
L 0 3.5 
" id="mb6c6a079ad" style="stroke:#000000;stroke-width:0.8;"/>
      </defs>
      <g>
       <use style="stroke:#000000;stroke-width:0.8;" x="56.12" xlink:href="#mb6c6a079ad" y="294.88"/>
      </g>
     </g>
     <g id="text_1">
      <!-- 0 -->
      <defs>
       <path d="M 31.78125 66.40625 
Q 24.171875 66.40625 20.328125 58.90625 
Q 16.5 51.421875 16.5 36.375 
Q 16.5 21.390625 20.328125 13.890625 
Q 24.171875 6.390625 31.78125 6.390625 
Q 39.453125 6.390625 43.28125 13.890625 
Q 47.125 21.390625 47.125 36.375 
Q 47.125 51.421875 43.28125 58.90625 
Q 39.453125 66.40625 31.78125 66.40625 
z
M 31.78125 74.21875 
Q 44.046875 74.21875 50.515625 64.515625 
Q 56.984375 54.828125 56.984375 36.375 
Q 56.984375 17.96875 50.515625 8.265625 
Q 44.046875 -1.421875 31.78125 -1.421875 
Q 19.53125 -1.421875 13.0625 8.265625 
Q 6.59375 17.96875 6.59375 36.375 
Q 6.59375 54.828125 13.0625 64.515625 
Q 19.53125 74.21875 31.78125 74.21875 
z
" id="DejaVuSans-30"/>
      </defs>
      <g transform="translate(49.7575 317.076875)scale(0.2 -0.2)">
       <use xlink:href="#DejaVuSans-30"/>
      </g>
     </g>
    </g>
    <g id="xtick_2">
     <g id="line2d_3">
      <path clip-path="url(#p2ed01d26f1)" d="M 135.276571 294.88 
L 135.276571 6.845228 
" style="fill:none;stroke:#b0b0b0;stroke-linecap:square;stroke-width:0.8;"/>
     </g>
     <g id="line2d_4">
      <g>
       <use style="stroke:#000000;stroke-width:0.8;" x="135.276571" xlink:href="#mb6c6a079ad" y="294.88"/>
      </g>
     </g>
     <g id="text_2">
      <!-- 2 -->
      <defs>
       <path d="M 19.1875 8.296875 
L 53.609375 8.296875 
L 53.609375 0 
L 7.328125 0 
L 7.328125 8.296875 
Q 12.9375 14.109375 22.625 23.890625 
Q 32.328125 33.6875 34.8125 36.53125 
Q 39.546875 41.84375 41.421875 45.53125 
Q 43.3125 49.21875 43.3125 52.78125 
Q 43.3125 58.59375 39.234375 62.25 
Q 35.15625 65.921875 28.609375 65.921875 
Q 23.96875 65.921875 18.8125 64.3125 
Q 13.671875 62.703125 7.8125 59.421875 
L 7.8125 69.390625 
Q 13.765625 71.78125 18.9375 73 
Q 24.125 74.21875 28.421875 74.21875 
Q 39.75 74.21875 46.484375 68.546875 
Q 53.21875 62.890625 53.21875 53.421875 
Q 53.21875 48.921875 51.53125 44.890625 
Q 49.859375 40.875 45.40625 35.40625 
Q 44.1875 33.984375 37.640625 27.21875 
Q 31.109375 20.453125 19.1875 8.296875 
z
" id="DejaVuSans-32"/>
      </defs>
      <g transform="translate(128.914071 317.076875)scale(0.2 -0.2)">
       <use xlink:href="#DejaVuSans-32"/>
      </g>
     </g>
    </g>
    <g id="xtick_3">
     <g id="line2d_5">
      <path clip-path="url(#p2ed01d26f1)" d="M 214.433143 294.88 
L 214.433143 6.845228 
" style="fill:none;stroke:#b0b0b0;stroke-linecap:square;stroke-width:0.8;"/>
     </g>
     <g id="line2d_6">
      <g>
       <use style="stroke:#000000;stroke-width:0.8;" x="214.433143" xlink:href="#mb6c6a079ad" y="294.88"/>
      </g>
     </g>
     <g id="text_3">
      <!-- 4 -->
      <defs>
       <path d="M 37.796875 64.3125 
L 12.890625 25.390625 
L 37.796875 25.390625 
z
M 35.203125 72.90625 
L 47.609375 72.90625 
L 47.609375 25.390625 
L 58.015625 25.390625 
L 58.015625 17.1875 
L 47.609375 17.1875 
L 47.609375 0 
L 37.796875 0 
L 37.796875 17.1875 
L 4.890625 17.1875 
L 4.890625 26.703125 
z
" id="DejaVuSans-34"/>
      </defs>
      <g transform="translate(208.070643 317.076875)scale(0.2 -0.2)">
       <use xlink:href="#DejaVuSans-34"/>
      </g>
     </g>
    </g>
    <g id="xtick_4">
     <g id="line2d_7">
      <path clip-path="url(#p2ed01d26f1)" d="M 293.589714 294.88 
L 293.589714 6.845228 
" style="fill:none;stroke:#b0b0b0;stroke-linecap:square;stroke-width:0.8;"/>
     </g>
     <g id="line2d_8">
      <g>
       <use style="stroke:#000000;stroke-width:0.8;" x="293.589714" xlink:href="#mb6c6a079ad" y="294.88"/>
      </g>
     </g>
     <g id="text_4">
      <!-- 6 -->
      <defs>
       <path d="M 33.015625 40.375 
Q 26.375 40.375 22.484375 35.828125 
Q 18.609375 31.296875 18.609375 23.390625 
Q 18.609375 15.53125 22.484375 10.953125 
Q 26.375 6.390625 33.015625 6.390625 
Q 39.65625 6.390625 43.53125 10.953125 
Q 47.40625 15.53125 47.40625 23.390625 
Q 47.40625 31.296875 43.53125 35.828125 
Q 39.65625 40.375 33.015625 40.375 
z
M 52.59375 71.296875 
L 52.59375 62.3125 
Q 48.875 64.0625 45.09375 64.984375 
Q 41.3125 65.921875 37.59375 65.921875 
Q 27.828125 65.921875 22.671875 59.328125 
Q 17.53125 52.734375 16.796875 39.40625 
Q 19.671875 43.65625 24.015625 45.921875 
Q 28.375 48.1875 33.59375 48.1875 
Q 44.578125 48.1875 50.953125 41.515625 
Q 57.328125 34.859375 57.328125 23.390625 
Q 57.328125 12.15625 50.6875 5.359375 
Q 44.046875 -1.421875 33.015625 -1.421875 
Q 20.359375 -1.421875 13.671875 8.265625 
Q 6.984375 17.96875 6.984375 36.375 
Q 6.984375 53.65625 15.1875 63.9375 
Q 23.390625 74.21875 37.203125 74.21875 
Q 40.921875 74.21875 44.703125 73.484375 
Q 48.484375 72.75 52.59375 71.296875 
z
" id="DejaVuSans-36"/>
      </defs>
      <g transform="translate(287.227214 317.076875)scale(0.2 -0.2)">
       <use xlink:href="#DejaVuSans-36"/>
      </g>
     </g>
    </g>
    <g id="xtick_5">
     <g id="line2d_9">
      <path clip-path="url(#p2ed01d26f1)" d="M 56.12 294.88 
L 56.12 6.845228 
" style="fill:none;stroke:#b0b0b0;stroke-linecap:square;stroke-width:0.8;"/>
     </g>
     <g id="line2d_10">
      <defs>
       <path d="M 0 0 
L 0 2 
" id="mefbdad5268" style="stroke:#000000;stroke-width:0.6;"/>
      </defs>
      <g>
       <use style="stroke:#000000;stroke-width:0.6;" x="56.12" xlink:href="#mefbdad5268" y="294.88"/>
      </g>
     </g>
    </g>
    <g id="xtick_6">
     <g id="line2d_11">
      <path clip-path="url(#p2ed01d26f1)" d="M 95.698286 294.88 
L 95.698286 6.845228 
" style="fill:none;stroke:#b0b0b0;stroke-linecap:square;stroke-width:0.8;"/>
     </g>
     <g id="line2d_12">
      <g>
       <use style="stroke:#000000;stroke-width:0.6;" x="95.698286" xlink:href="#mefbdad5268" y="294.88"/>
      </g>
     </g>
    </g>
    <g id="xtick_7">
     <g id="line2d_13">
      <path clip-path="url(#p2ed01d26f1)" d="M 135.276571 294.88 
L 135.276571 6.845228 
" style="fill:none;stroke:#b0b0b0;stroke-linecap:square;stroke-width:0.8;"/>
     </g>
     <g id="line2d_14">
      <g>
       <use style="stroke:#000000;stroke-width:0.6;" x="135.276571" xlink:href="#mefbdad5268" y="294.88"/>
      </g>
     </g>
    </g>
    <g id="xtick_8">
     <g id="line2d_15">
      <path clip-path="url(#p2ed01d26f1)" d="M 174.854857 294.88 
L 174.854857 6.845228 
" style="fill:none;stroke:#b0b0b0;stroke-linecap:square;stroke-width:0.8;"/>
     </g>
     <g id="line2d_16">
      <g>
       <use style="stroke:#000000;stroke-width:0.6;" x="174.854857" xlink:href="#mefbdad5268" y="294.88"/>
      </g>
     </g>
    </g>
    <g id="xtick_9">
     <g id="line2d_17">
      <path clip-path="url(#p2ed01d26f1)" d="M 214.433143 294.88 
L 214.433143 6.845228 
" style="fill:none;stroke:#b0b0b0;stroke-linecap:square;stroke-width:0.8;"/>
     </g>
     <g id="line2d_18">
      <g>
       <use style="stroke:#000000;stroke-width:0.6;" x="214.433143" xlink:href="#mefbdad5268" y="294.88"/>
      </g>
     </g>
    </g>
    <g id="xtick_10">
     <g id="line2d_19">
      <path clip-path="url(#p2ed01d26f1)" d="M 254.011429 294.88 
L 254.011429 6.845228 
" style="fill:none;stroke:#b0b0b0;stroke-linecap:square;stroke-width:0.8;"/>
     </g>
     <g id="line2d_20">
      <g>
       <use style="stroke:#000000;stroke-width:0.6;" x="254.011429" xlink:href="#mefbdad5268" y="294.88"/>
      </g>
     </g>
    </g>
    <g id="xtick_11">
     <g id="line2d_21">
      <path clip-path="url(#p2ed01d26f1)" d="M 293.589714 294.88 
L 293.589714 6.845228 
" style="fill:none;stroke:#b0b0b0;stroke-linecap:square;stroke-width:0.8;"/>
     </g>
     <g id="line2d_22">
      <g>
       <use style="stroke:#000000;stroke-width:0.6;" x="293.589714" xlink:href="#mefbdad5268" y="294.88"/>
      </g>
     </g>
    </g>
    <g id="xtick_12">
     <g id="line2d_23">
      <path clip-path="url(#p2ed01d26f1)" d="M 333.168 294.88 
L 333.168 6.845228 
" style="fill:none;stroke:#b0b0b0;stroke-linecap:square;stroke-width:0.8;"/>
     </g>
     <g id="line2d_24">
      <g>
       <use style="stroke:#000000;stroke-width:0.6;" x="333.168" xlink:href="#mefbdad5268" y="294.88"/>
      </g>
     </g>
    </g>
    <g id="text_5">
     <!-- log10(# f-evals / dimension) -->
     <defs>
      <path d="M 9.421875 75.984375 
L 18.40625 75.984375 
L 18.40625 0 
L 9.421875 0 
z
" id="DejaVuSans-6c"/>
      <path d="M 30.609375 48.390625 
Q 23.390625 48.390625 19.1875 42.75 
Q 14.984375 37.109375 14.984375 27.296875 
Q 14.984375 17.484375 19.15625 11.84375 
Q 23.34375 6.203125 30.609375 6.203125 
Q 37.796875 6.203125 41.984375 11.859375 
Q 46.1875 17.53125 46.1875 27.296875 
Q 46.1875 37.015625 41.984375 42.703125 
Q 37.796875 48.390625 30.609375 48.390625 
z
M 30.609375 56 
Q 42.328125 56 49.015625 48.375 
Q 55.71875 40.765625 55.71875 27.296875 
Q 55.71875 13.875 49.015625 6.21875 
Q 42.328125 -1.421875 30.609375 -1.421875 
Q 18.84375 -1.421875 12.171875 6.21875 
Q 5.515625 13.875 5.515625 27.296875 
Q 5.515625 40.765625 12.171875 48.375 
Q 18.84375 56 30.609375 56 
z
" id="DejaVuSans-6f"/>
      <path d="M 45.40625 27.984375 
Q 45.40625 37.75 41.375 43.109375 
Q 37.359375 48.484375 30.078125 48.484375 
Q 22.859375 48.484375 18.828125 43.109375 
Q 14.796875 37.75 14.796875 27.984375 
Q 14.796875 18.265625 18.828125 12.890625 
Q 22.859375 7.515625 30.078125 7.515625 
Q 37.359375 7.515625 41.375 12.890625 
Q 45.40625 18.265625 45.40625 27.984375 
z
M 54.390625 6.78125 
Q 54.390625 -7.171875 48.1875 -13.984375 
Q 42 -20.796875 29.203125 -20.796875 
Q 24.46875 -20.796875 20.265625 -20.09375 
Q 16.0625 -19.390625 12.109375 -17.921875 
L 12.109375 -9.1875 
Q 16.0625 -11.328125 19.921875 -12.34375 
Q 23.78125 -13.375 27.78125 -13.375 
Q 36.625 -13.375 41.015625 -8.765625 
Q 45.40625 -4.15625 45.40625 5.171875 
L 45.40625 9.625 
Q 42.625 4.78125 38.28125 2.390625 
Q 33.9375 0 27.875 0 
Q 17.828125 0 11.671875 7.65625 
Q 5.515625 15.328125 5.515625 27.984375 
Q 5.515625 40.671875 11.671875 48.328125 
Q 17.828125 56 27.875 56 
Q 33.9375 56 38.28125 53.609375 
Q 42.625 51.21875 45.40625 46.390625 
L 45.40625 54.6875 
L 54.390625 54.6875 
z
" id="DejaVuSans-67"/>
      <path d="M 12.40625 8.296875 
L 28.515625 8.296875 
L 28.515625 63.921875 
L 10.984375 60.40625 
L 10.984375 69.390625 
L 28.421875 72.90625 
L 38.28125 72.90625 
L 38.28125 8.296875 
L 54.390625 8.296875 
L 54.390625 0 
L 12.40625 0 
z
" id="DejaVuSans-31"/>
      <path d="M 31 75.875 
Q 24.46875 64.65625 21.28125 53.65625 
Q 18.109375 42.671875 18.109375 31.390625 
Q 18.109375 20.125 21.3125 9.0625 
Q 24.515625 -2 31 -13.1875 
L 23.1875 -13.1875 
Q 15.875 -1.703125 12.234375 9.375 
Q 8.59375 20.453125 8.59375 31.390625 
Q 8.59375 42.28125 12.203125 53.3125 
Q 15.828125 64.359375 23.1875 75.875 
z
" id="DejaVuSans-28"/>
      <path d="M 51.125 44 
L 36.921875 44 
L 32.8125 27.6875 
L 47.125 27.6875 
z
M 43.796875 71.78125 
L 38.71875 51.515625 
L 52.984375 51.515625 
L 58.109375 71.78125 
L 65.921875 71.78125 
L 60.890625 51.515625 
L 76.125 51.515625 
L 76.125 44 
L 58.984375 44 
L 54.984375 27.6875 
L 70.515625 27.6875 
L 70.515625 20.21875 
L 53.078125 20.21875 
L 48 0 
L 40.1875 0 
L 45.21875 20.21875 
L 30.90625 20.21875 
L 25.875 0 
L 18.015625 0 
L 23.09375 20.21875 
L 7.71875 20.21875 
L 7.71875 27.6875 
L 24.90625 27.6875 
L 29 44 
L 13.28125 44 
L 13.28125 51.515625 
L 30.90625 51.515625 
L 35.890625 71.78125 
z
" id="DejaVuSans-23"/>
      <path id="DejaVuSans-20"/>
      <path d="M 37.109375 75.984375 
L 37.109375 68.5 
L 28.515625 68.5 
Q 23.6875 68.5 21.796875 66.546875 
Q 19.921875 64.59375 19.921875 59.515625 
L 19.921875 54.6875 
L 34.71875 54.6875 
L 34.71875 47.703125 
L 19.921875 47.703125 
L 19.921875 0 
L 10.890625 0 
L 10.890625 47.703125 
L 2.296875 47.703125 
L 2.296875 54.6875 
L 10.890625 54.6875 
L 10.890625 58.5 
Q 10.890625 67.625 15.140625 71.796875 
Q 19.390625 75.984375 28.609375 75.984375 
z
" id="DejaVuSans-66"/>
      <path d="M 4.890625 31.390625 
L 31.203125 31.390625 
L 31.203125 23.390625 
L 4.890625 23.390625 
z
" id="DejaVuSans-2d"/>
      <path d="M 56.203125 29.59375 
L 56.203125 25.203125 
L 14.890625 25.203125 
Q 15.484375 15.921875 20.484375 11.0625 
Q 25.484375 6.203125 34.421875 6.203125 
Q 39.59375 6.203125 44.453125 7.46875 
Q 49.3125 8.734375 54.109375 11.28125 
L 54.109375 2.78125 
Q 49.265625 0.734375 44.1875 -0.34375 
Q 39.109375 -1.421875 33.890625 -1.421875 
Q 20.796875 -1.421875 13.15625 6.1875 
Q 5.515625 13.8125 5.515625 26.8125 
Q 5.515625 40.234375 12.765625 48.109375 
Q 20.015625 56 32.328125 56 
Q 43.359375 56 49.78125 48.890625 
Q 56.203125 41.796875 56.203125 29.59375 
z
M 47.21875 32.234375 
Q 47.125 39.59375 43.09375 43.984375 
Q 39.0625 48.390625 32.421875 48.390625 
Q 24.90625 48.390625 20.390625 44.140625 
Q 15.875 39.890625 15.1875 32.171875 
z
" id="DejaVuSans-65"/>
      <path d="M 2.984375 54.6875 
L 12.5 54.6875 
L 29.59375 8.796875 
L 46.6875 54.6875 
L 56.203125 54.6875 
L 35.6875 0 
L 23.484375 0 
z
" id="DejaVuSans-76"/>
      <path d="M 34.28125 27.484375 
Q 23.390625 27.484375 19.1875 25 
Q 14.984375 22.515625 14.984375 16.5 
Q 14.984375 11.71875 18.140625 8.90625 
Q 21.296875 6.109375 26.703125 6.109375 
Q 34.1875 6.109375 38.703125 11.40625 
Q 43.21875 16.703125 43.21875 25.484375 
L 43.21875 27.484375 
z
M 52.203125 31.203125 
L 52.203125 0 
L 43.21875 0 
L 43.21875 8.296875 
Q 40.140625 3.328125 35.546875 0.953125 
Q 30.953125 -1.421875 24.3125 -1.421875 
Q 15.921875 -1.421875 10.953125 3.296875 
Q 6 8.015625 6 15.921875 
Q 6 25.140625 12.171875 29.828125 
Q 18.359375 34.515625 30.609375 34.515625 
L 43.21875 34.515625 
L 43.21875 35.40625 
Q 43.21875 41.609375 39.140625 45 
Q 35.0625 48.390625 27.6875 48.390625 
Q 23 48.390625 18.546875 47.265625 
Q 14.109375 46.140625 10.015625 43.890625 
L 10.015625 52.203125 
Q 14.9375 54.109375 19.578125 55.046875 
Q 24.21875 56 28.609375 56 
Q 40.484375 56 46.34375 49.84375 
Q 52.203125 43.703125 52.203125 31.203125 
z
" id="DejaVuSans-61"/>
      <path d="M 44.28125 53.078125 
L 44.28125 44.578125 
Q 40.484375 46.53125 36.375 47.5 
Q 32.28125 48.484375 27.875 48.484375 
Q 21.1875 48.484375 17.84375 46.4375 
Q 14.5 44.390625 14.5 40.28125 
Q 14.5 37.15625 16.890625 35.375 
Q 19.28125 33.59375 26.515625 31.984375 
L 29.59375 31.296875 
Q 39.15625 29.25 43.1875 25.515625 
Q 47.21875 21.78125 47.21875 15.09375 
Q 47.21875 7.46875 41.1875 3.015625 
Q 35.15625 -1.421875 24.609375 -1.421875 
Q 20.21875 -1.421875 15.453125 -0.5625 
Q 10.6875 0.296875 5.421875 2 
L 5.421875 11.28125 
Q 10.40625 8.6875 15.234375 7.390625 
Q 20.0625 6.109375 24.8125 6.109375 
Q 31.15625 6.109375 34.5625 8.28125 
Q 37.984375 10.453125 37.984375 14.40625 
Q 37.984375 18.0625 35.515625 20.015625 
Q 33.0625 21.96875 24.703125 23.78125 
L 21.578125 24.515625 
Q 13.234375 26.265625 9.515625 29.90625 
Q 5.8125 33.546875 5.8125 39.890625 
Q 5.8125 47.609375 11.28125 51.796875 
Q 16.75 56 26.8125 56 
Q 31.78125 56 36.171875 55.265625 
Q 40.578125 54.546875 44.28125 53.078125 
z
" id="DejaVuSans-73"/>
      <path d="M 25.390625 72.90625 
L 33.6875 72.90625 
L 8.296875 -9.28125 
L 0 -9.28125 
z
" id="DejaVuSans-2f"/>
      <path d="M 45.40625 46.390625 
L 45.40625 75.984375 
L 54.390625 75.984375 
L 54.390625 0 
L 45.40625 0 
L 45.40625 8.203125 
Q 42.578125 3.328125 38.25 0.953125 
Q 33.9375 -1.421875 27.875 -1.421875 
Q 17.96875 -1.421875 11.734375 6.484375 
Q 5.515625 14.40625 5.515625 27.296875 
Q 5.515625 40.1875 11.734375 48.09375 
Q 17.96875 56 27.875 56 
Q 33.9375 56 38.25 53.625 
Q 42.578125 51.265625 45.40625 46.390625 
z
M 14.796875 27.296875 
Q 14.796875 17.390625 18.875 11.75 
Q 22.953125 6.109375 30.078125 6.109375 
Q 37.203125 6.109375 41.296875 11.75 
Q 45.40625 17.390625 45.40625 27.296875 
Q 45.40625 37.203125 41.296875 42.84375 
Q 37.203125 48.484375 30.078125 48.484375 
Q 22.953125 48.484375 18.875 42.84375 
Q 14.796875 37.203125 14.796875 27.296875 
z
" id="DejaVuSans-64"/>
      <path d="M 9.421875 54.6875 
L 18.40625 54.6875 
L 18.40625 0 
L 9.421875 0 
z
M 9.421875 75.984375 
L 18.40625 75.984375 
L 18.40625 64.59375 
L 9.421875 64.59375 
z
" id="DejaVuSans-69"/>
      <path d="M 52 44.1875 
Q 55.375 50.25 60.0625 53.125 
Q 64.75 56 71.09375 56 
Q 79.640625 56 84.28125 50.015625 
Q 88.921875 44.046875 88.921875 33.015625 
L 88.921875 0 
L 79.890625 0 
L 79.890625 32.71875 
Q 79.890625 40.578125 77.09375 44.375 
Q 74.3125 48.1875 68.609375 48.1875 
Q 61.625 48.1875 57.5625 43.546875 
Q 53.515625 38.921875 53.515625 30.90625 
L 53.515625 0 
L 44.484375 0 
L 44.484375 32.71875 
Q 44.484375 40.625 41.703125 44.40625 
Q 38.921875 48.1875 33.109375 48.1875 
Q 26.21875 48.1875 22.15625 43.53125 
Q 18.109375 38.875 18.109375 30.90625 
L 18.109375 0 
L 9.078125 0 
L 9.078125 54.6875 
L 18.109375 54.6875 
L 18.109375 46.1875 
Q 21.1875 51.21875 25.484375 53.609375 
Q 29.78125 56 35.6875 56 
Q 41.65625 56 45.828125 52.96875 
Q 50 49.953125 52 44.1875 
z
" id="DejaVuSans-6d"/>
      <path d="M 54.890625 33.015625 
L 54.890625 0 
L 45.90625 0 
L 45.90625 32.71875 
Q 45.90625 40.484375 42.875 44.328125 
Q 39.84375 48.1875 33.796875 48.1875 
Q 26.515625 48.1875 22.3125 43.546875 
Q 18.109375 38.921875 18.109375 30.90625 
L 18.109375 0 
L 9.078125 0 
L 9.078125 54.6875 
L 18.109375 54.6875 
L 18.109375 46.1875 
Q 21.34375 51.125 25.703125 53.5625 
Q 30.078125 56 35.796875 56 
Q 45.21875 56 50.046875 50.171875 
Q 54.890625 44.34375 54.890625 33.015625 
z
" id="DejaVuSans-6e"/>
      <path d="M 8.015625 75.875 
L 15.828125 75.875 
Q 23.140625 64.359375 26.78125 53.3125 
Q 30.421875 42.28125 30.421875 31.390625 
Q 30.421875 20.453125 26.78125 9.375 
Q 23.140625 -1.703125 15.828125 -13.1875 
L 8.015625 -13.1875 
Q 14.5 -2 17.703125 9.0625 
Q 20.90625 20.125 20.90625 31.390625 
Q 20.90625 42.671875 17.703125 53.65625 
Q 14.5 64.65625 8.015625 75.875 
z
" id="DejaVuSans-29"/>
     </defs>
     <g transform="translate(73.803219 338.153594)scale(0.17 -0.17)">
      <use xlink:href="#DejaVuSans-6c"/>
      <use x="27.783203" xlink:href="#DejaVuSans-6f"/>
      <use x="88.964844" xlink:href="#DejaVuSans-67"/>
      <use x="152.441406" xlink:href="#DejaVuSans-31"/>
      <use x="216.064453" xlink:href="#DejaVuSans-30"/>
      <use x="279.6875" xlink:href="#DejaVuSans-28"/>
      <use x="318.701172" xlink:href="#DejaVuSans-23"/>
      <use x="402.490234" xlink:href="#DejaVuSans-20"/>
      <use x="434.277344" xlink:href="#DejaVuSans-66"/>
      <use x="469.404297" xlink:href="#DejaVuSans-2d"/>
      <use x="505.488281" xlink:href="#DejaVuSans-65"/>
      <use x="567.011719" xlink:href="#DejaVuSans-76"/>
      <use x="626.191406" xlink:href="#DejaVuSans-61"/>
      <use x="687.470703" xlink:href="#DejaVuSans-6c"/>
      <use x="715.253906" xlink:href="#DejaVuSans-73"/>
      <use x="767.353516" xlink:href="#DejaVuSans-20"/>
      <use x="799.140625" xlink:href="#DejaVuSans-2f"/>
      <use x="832.832031" xlink:href="#DejaVuSans-20"/>
      <use x="864.619141" xlink:href="#DejaVuSans-64"/>
      <use x="928.095703" xlink:href="#DejaVuSans-69"/>
      <use x="955.878906" xlink:href="#DejaVuSans-6d"/>
      <use x="1053.291016" xlink:href="#DejaVuSans-65"/>
      <use x="1114.814453" xlink:href="#DejaVuSans-6e"/>
      <use x="1178.193359" xlink:href="#DejaVuSans-73"/>
      <use x="1230.292969" xlink:href="#DejaVuSans-69"/>
      <use x="1258.076172" xlink:href="#DejaVuSans-6f"/>
      <use x="1319.257812" xlink:href="#DejaVuSans-6e"/>
      <use x="1382.636719" xlink:href="#DejaVuSans-29"/>
     </g>
    </g>
   </g>
   <g id="matplotlib.axis_2">
    <g id="ytick_1">
     <g id="line2d_25">
      <path clip-path="url(#p2ed01d26f1)" d="M 56.12 294.88 
L 333.168 294.88 
" style="fill:none;stroke:#b0b0b0;stroke-linecap:square;stroke-width:0.8;"/>
     </g>
     <g id="line2d_26">
      <defs>
       <path d="M 0 0 
L -3.5 0 
" id="m45cfcc266f" style="stroke:#000000;stroke-width:0.8;"/>
      </defs>
      <g>
       <use style="stroke:#000000;stroke-width:0.8;" x="56.12" xlink:href="#m45cfcc266f" y="294.88"/>
      </g>
     </g>
     <g id="text_6">
      <!-- 0.0 -->
      <defs>
       <path d="M 10.6875 12.40625 
L 21 12.40625 
L 21 0 
L 10.6875 0 
z
" id="DejaVuSans-2e"/>
      </defs>
      <g transform="translate(23.675 300.95875)scale(0.16 -0.16)">
       <use xlink:href="#DejaVuSans-30"/>
       <use x="63.623047" xlink:href="#DejaVuSans-2e"/>
       <use x="95.410156" xlink:href="#DejaVuSans-30"/>
      </g>
     </g>
    </g>
    <g id="ytick_2">
     <g id="line2d_27">
      <path clip-path="url(#p2ed01d26f1)" d="M 56.12 237.843411 
L 333.168 237.843411 
" style="fill:none;stroke:#b0b0b0;stroke-linecap:square;stroke-width:0.8;"/>
     </g>
     <g id="line2d_28">
      <g>
       <use style="stroke:#000000;stroke-width:0.8;" x="56.12" xlink:href="#m45cfcc266f" y="237.843411"/>
      </g>
     </g>
     <g id="text_7">
      <!-- 0.2 -->
      <g transform="translate(23.675 243.922161)scale(0.16 -0.16)">
       <use xlink:href="#DejaVuSans-30"/>
       <use x="63.623047" xlink:href="#DejaVuSans-2e"/>
       <use x="95.410156" xlink:href="#DejaVuSans-32"/>
      </g>
     </g>
    </g>
    <g id="ytick_3">
     <g id="line2d_29">
      <path clip-path="url(#p2ed01d26f1)" d="M 56.12 180.806823 
L 333.168 180.806823 
" style="fill:none;stroke:#b0b0b0;stroke-linecap:square;stroke-width:0.8;"/>
     </g>
     <g id="line2d_30">
      <g>
       <use style="stroke:#000000;stroke-width:0.8;" x="56.12" xlink:href="#m45cfcc266f" y="180.806823"/>
      </g>
     </g>
     <g id="text_8">
      <!-- 0.4 -->
      <g transform="translate(23.675 186.885573)scale(0.16 -0.16)">
       <use xlink:href="#DejaVuSans-30"/>
       <use x="63.623047" xlink:href="#DejaVuSans-2e"/>
       <use x="95.410156" xlink:href="#DejaVuSans-34"/>
      </g>
     </g>
    </g>
    <g id="ytick_4">
     <g id="line2d_31">
      <path clip-path="url(#p2ed01d26f1)" d="M 56.12 123.770234 
L 333.168 123.770234 
" style="fill:none;stroke:#b0b0b0;stroke-linecap:square;stroke-width:0.8;"/>
     </g>
     <g id="line2d_32">
      <g>
       <use style="stroke:#000000;stroke-width:0.8;" x="56.12" xlink:href="#m45cfcc266f" y="123.770234"/>
      </g>
     </g>
     <g id="text_9">
      <!-- 0.6 -->
      <g transform="translate(23.675 129.848984)scale(0.16 -0.16)">
       <use xlink:href="#DejaVuSans-30"/>
       <use x="63.623047" xlink:href="#DejaVuSans-2e"/>
       <use x="95.410156" xlink:href="#DejaVuSans-36"/>
      </g>
     </g>
    </g>
    <g id="ytick_5">
     <g id="line2d_33">
      <path clip-path="url(#p2ed01d26f1)" d="M 56.12 66.733646 
L 333.168 66.733646 
" style="fill:none;stroke:#b0b0b0;stroke-linecap:square;stroke-width:0.8;"/>
     </g>
     <g id="line2d_34">
      <g>
       <use style="stroke:#000000;stroke-width:0.8;" x="56.12" xlink:href="#m45cfcc266f" y="66.733646"/>
      </g>
     </g>
     <g id="text_10">
      <!-- 0.8 -->
      <defs>
       <path d="M 31.78125 34.625 
Q 24.75 34.625 20.71875 30.859375 
Q 16.703125 27.09375 16.703125 20.515625 
Q 16.703125 13.921875 20.71875 10.15625 
Q 24.75 6.390625 31.78125 6.390625 
Q 38.8125 6.390625 42.859375 10.171875 
Q 46.921875 13.96875 46.921875 20.515625 
Q 46.921875 27.09375 42.890625 30.859375 
Q 38.875 34.625 31.78125 34.625 
z
M 21.921875 38.8125 
Q 15.578125 40.375 12.03125 44.71875 
Q 8.5 49.078125 8.5 55.328125 
Q 8.5 64.0625 14.71875 69.140625 
Q 20.953125 74.21875 31.78125 74.21875 
Q 42.671875 74.21875 48.875 69.140625 
Q 55.078125 64.0625 55.078125 55.328125 
Q 55.078125 49.078125 51.53125 44.71875 
Q 48 40.375 41.703125 38.8125 
Q 48.828125 37.15625 52.796875 32.3125 
Q 56.78125 27.484375 56.78125 20.515625 
Q 56.78125 9.90625 50.3125 4.234375 
Q 43.84375 -1.421875 31.78125 -1.421875 
Q 19.734375 -1.421875 13.25 4.234375 
Q 6.78125 9.90625 6.78125 20.515625 
Q 6.78125 27.484375 10.78125 32.3125 
Q 14.796875 37.15625 21.921875 38.8125 
z
M 18.3125 54.390625 
Q 18.3125 48.734375 21.84375 45.5625 
Q 25.390625 42.390625 31.78125 42.390625 
Q 38.140625 42.390625 41.71875 45.5625 
Q 45.3125 48.734375 45.3125 54.390625 
Q 45.3125 60.0625 41.71875 63.234375 
Q 38.140625 66.40625 31.78125 66.40625 
Q 25.390625 66.40625 21.84375 63.234375 
Q 18.3125 60.0625 18.3125 54.390625 
z
" id="DejaVuSans-38"/>
      </defs>
      <g transform="translate(23.675 72.812396)scale(0.16 -0.16)">
       <use xlink:href="#DejaVuSans-30"/>
       <use x="63.623047" xlink:href="#DejaVuSans-2e"/>
       <use x="95.410156" xlink:href="#DejaVuSans-38"/>
      </g>
     </g>
    </g>
    <g id="ytick_6">
     <g id="line2d_35">
      <path clip-path="url(#p2ed01d26f1)" d="M 56.12 9.697057 
L 333.168 9.697057 
" style="fill:none;stroke:#b0b0b0;stroke-linecap:square;stroke-width:0.8;"/>
     </g>
     <g id="line2d_36">
      <g>
       <use style="stroke:#000000;stroke-width:0.8;" x="56.12" xlink:href="#m45cfcc266f" y="9.697057"/>
      </g>
     </g>
     <g id="text_11">
      <!-- 1.0 -->
      <g transform="translate(23.675 15.775807)scale(0.16 -0.16)">
       <use xlink:href="#DejaVuSans-31"/>
       <use x="63.623047" xlink:href="#DejaVuSans-2e"/>
       <use x="95.410156" xlink:href="#DejaVuSans-30"/>
      </g>
     </g>
    </g>
    <g id="text_12">
     <!-- Fraction of function,target pairs -->
     <defs>
      <path d="M 9.8125 72.90625 
L 51.703125 72.90625 
L 51.703125 64.59375 
L 19.671875 64.59375 
L 19.671875 43.109375 
L 48.578125 43.109375 
L 48.578125 34.8125 
L 19.671875 34.8125 
L 19.671875 0 
L 9.8125 0 
z
" id="DejaVuSans-46"/>
      <path d="M 41.109375 46.296875 
Q 39.59375 47.171875 37.8125 47.578125 
Q 36.03125 48 33.890625 48 
Q 26.265625 48 22.1875 43.046875 
Q 18.109375 38.09375 18.109375 28.8125 
L 18.109375 0 
L 9.078125 0 
L 9.078125 54.6875 
L 18.109375 54.6875 
L 18.109375 46.1875 
Q 20.953125 51.171875 25.484375 53.578125 
Q 30.03125 56 36.53125 56 
Q 37.453125 56 38.578125 55.875 
Q 39.703125 55.765625 41.0625 55.515625 
z
" id="DejaVuSans-72"/>
      <path d="M 48.78125 52.59375 
L 48.78125 44.1875 
Q 44.96875 46.296875 41.140625 47.34375 
Q 37.3125 48.390625 33.40625 48.390625 
Q 24.65625 48.390625 19.8125 42.84375 
Q 14.984375 37.3125 14.984375 27.296875 
Q 14.984375 17.28125 19.8125 11.734375 
Q 24.65625 6.203125 33.40625 6.203125 
Q 37.3125 6.203125 41.140625 7.25 
Q 44.96875 8.296875 48.78125 10.40625 
L 48.78125 2.09375 
Q 45.015625 0.34375 40.984375 -0.53125 
Q 36.96875 -1.421875 32.421875 -1.421875 
Q 20.0625 -1.421875 12.78125 6.34375 
Q 5.515625 14.109375 5.515625 27.296875 
Q 5.515625 40.671875 12.859375 48.328125 
Q 20.21875 56 33.015625 56 
Q 37.15625 56 41.109375 55.140625 
Q 45.0625 54.296875 48.78125 52.59375 
z
" id="DejaVuSans-63"/>
      <path d="M 18.3125 70.21875 
L 18.3125 54.6875 
L 36.8125 54.6875 
L 36.8125 47.703125 
L 18.3125 47.703125 
L 18.3125 18.015625 
Q 18.3125 11.328125 20.140625 9.421875 
Q 21.96875 7.515625 27.59375 7.515625 
L 36.8125 7.515625 
L 36.8125 0 
L 27.59375 0 
Q 17.1875 0 13.234375 3.875 
Q 9.28125 7.765625 9.28125 18.015625 
L 9.28125 47.703125 
L 2.6875 47.703125 
L 2.6875 54.6875 
L 9.28125 54.6875 
L 9.28125 70.21875 
z
" id="DejaVuSans-74"/>
      <path d="M 8.5 21.578125 
L 8.5 54.6875 
L 17.484375 54.6875 
L 17.484375 21.921875 
Q 17.484375 14.15625 20.5 10.265625 
Q 23.53125 6.390625 29.59375 6.390625 
Q 36.859375 6.390625 41.078125 11.03125 
Q 45.3125 15.671875 45.3125 23.6875 
L 45.3125 54.6875 
L 54.296875 54.6875 
L 54.296875 0 
L 45.3125 0 
L 45.3125 8.40625 
Q 42.046875 3.421875 37.71875 1 
Q 33.40625 -1.421875 27.6875 -1.421875 
Q 18.265625 -1.421875 13.375 4.4375 
Q 8.5 10.296875 8.5 21.578125 
z
M 31.109375 56 
z
" id="DejaVuSans-75"/>
      <path d="M 11.71875 12.40625 
L 22.015625 12.40625 
L 22.015625 4 
L 14.015625 -11.625 
L 7.71875 -11.625 
L 11.71875 4 
z
" id="DejaVuSans-2c"/>
      <path d="M 18.109375 8.203125 
L 18.109375 -20.796875 
L 9.078125 -20.796875 
L 9.078125 54.6875 
L 18.109375 54.6875 
L 18.109375 46.390625 
Q 20.953125 51.265625 25.265625 53.625 
Q 29.59375 56 35.59375 56 
Q 45.5625 56 51.78125 48.09375 
Q 58.015625 40.1875 58.015625 27.296875 
Q 58.015625 14.40625 51.78125 6.484375 
Q 45.5625 -1.421875 35.59375 -1.421875 
Q 29.59375 -1.421875 25.265625 0.953125 
Q 20.953125 3.328125 18.109375 8.203125 
z
M 48.6875 27.296875 
Q 48.6875 37.203125 44.609375 42.84375 
Q 40.53125 48.484375 33.40625 48.484375 
Q 26.265625 48.484375 22.1875 42.84375 
Q 18.109375 37.203125 18.109375 27.296875 
Q 18.109375 17.390625 22.1875 11.75 
Q 26.265625 6.109375 33.40625 6.109375 
Q 40.53125 6.109375 44.609375 11.75 
Q 48.6875 17.390625 48.6875 27.296875 
z
" id="DejaVuSans-70"/>
     </defs>
     <g transform="translate(16.139531 286.001989)rotate(-90)scale(0.17 -0.17)">
      <use xlink:href="#DejaVuSans-46"/>
      <use x="57.410156" xlink:href="#DejaVuSans-72"/>
      <use x="98.523438" xlink:href="#DejaVuSans-61"/>
      <use x="159.802734" xlink:href="#DejaVuSans-63"/>
      <use x="214.783203" xlink:href="#DejaVuSans-74"/>
      <use x="253.992188" xlink:href="#DejaVuSans-69"/>
      <use x="281.775391" xlink:href="#DejaVuSans-6f"/>
      <use x="342.957031" xlink:href="#DejaVuSans-6e"/>
      <use x="406.335938" xlink:href="#DejaVuSans-20"/>
      <use x="438.123047" xlink:href="#DejaVuSans-6f"/>
      <use x="499.304688" xlink:href="#DejaVuSans-66"/>
      <use x="534.509766" xlink:href="#DejaVuSans-20"/>
      <use x="566.296875" xlink:href="#DejaVuSans-66"/>
      <use x="601.501953" xlink:href="#DejaVuSans-75"/>
      <use x="664.880859" xlink:href="#DejaVuSans-6e"/>
      <use x="728.259766" xlink:href="#DejaVuSans-63"/>
      <use x="783.240234" xlink:href="#DejaVuSans-74"/>
      <use x="822.449219" xlink:href="#DejaVuSans-69"/>
      <use x="850.232422" xlink:href="#DejaVuSans-6f"/>
      <use x="911.414062" xlink:href="#DejaVuSans-6e"/>
      <use x="974.792969" xlink:href="#DejaVuSans-2c"/>
      <use x="1006.580078" xlink:href="#DejaVuSans-74"/>
      <use x="1045.789062" xlink:href="#DejaVuSans-61"/>
      <use x="1107.068359" xlink:href="#DejaVuSans-72"/>
      <use x="1148.166016" xlink:href="#DejaVuSans-67"/>
      <use x="1211.642578" xlink:href="#DejaVuSans-65"/>
      <use x="1273.166016" xlink:href="#DejaVuSans-74"/>
      <use x="1312.375" xlink:href="#DejaVuSans-20"/>
      <use x="1344.162109" xlink:href="#DejaVuSans-70"/>
      <use x="1407.638672" xlink:href="#DejaVuSans-61"/>
      <use x="1468.917969" xlink:href="#DejaVuSans-69"/>
      <use x="1496.701172" xlink:href="#DejaVuSans-72"/>
      <use x="1537.814453" xlink:href="#DejaVuSans-73"/>
     </g>
    </g>
   </g>
   <g id="line2d_37">
    <defs>
     <path d="M 0 1.5 
C 0.397805 1.5 0.77937 1.341951 1.06066 1.06066 
C 1.341951 0.77937 1.5 0.397805 1.5 0 
C 1.5 -0.397805 1.341951 -0.77937 1.06066 -1.06066 
C 0.77937 -1.341951 0.397805 -1.5 0 -1.5 
C -0.397805 -1.5 -0.77937 -1.341951 -1.06066 -1.06066 
C -1.341951 -0.77937 -1.5 -0.397805 -1.5 0 
C -1.5 0.397805 -1.341951 0.77937 -1.06066 1.06066 
C -0.77937 1.341951 -0.397805 1.5 0 1.5 
z
" id="mf7772c29d9" style="stroke:#000080;"/>
    </defs>
    <g>
     <use style="fill:#000080;stroke:#000080;" x="192.345716" xlink:href="#mf7772c29d9" y="9.697057"/>
     <use style="fill:#000080;stroke:#000080;" x="192.345716" xlink:href="#mf7772c29d9" y="9.697057"/>
    </g>
   </g>
   <g id="line2d_38">
    <path d="M 75.003641 294.88 
L 75.003641 277.545351 
L 103.231288 277.545351 
L 103.231288 276.426986 
L 114.293036 276.426986 
L 114.293036 275.308622 
L 116.478659 275.308622 
L 116.478659 270.835164 
L 121.359263 270.835164 
L 121.359263 270.275981 
L 121.741249 270.275981 
L 121.741249 265.802523 
L 122.480659 265.802523 
L 122.480659 247.34951 
L 124.200956 247.34951 
L 124.200956 245.112781 
L 125.310285 245.112781 
L 125.310285 241.198505 
L 125.913457 241.198505 
L 125.913457 240.639323 
L 127.197852 240.639323 
L 127.197852 239.520958 
L 129.022601 239.520958 
L 129.022601 221.627126 
L 129.389632 221.627126 
L 129.389632 220.508762 
L 132.177056 220.508762 
L 132.177056 219.94958 
L 133.843356 219.94958 
L 133.843356 218.272033 
L 134.121345 218.272033 
L 134.121345 217.153669 
L 134.304205 217.153669 
L 134.304205 216.035304 
L 134.753019 216.035304 
L 134.753019 211.561846 
L 135.016789 211.561846 
L 135.016789 211.002664 
L 135.867885 211.002664 
L 135.867885 209.325117 
L 136.836515 209.325117 
L 136.914823 206.529206 
L 139.043211 206.529206 
L 139.043211 205.970024 
L 139.180721 205.970024 
L 139.180721 205.410841 
L 139.384945 205.410841 
L 139.384945 204.851659 
L 140.371179 204.851659 
L 140.371179 203.733295 
L 140.498503 203.733295 
L 140.498503 203.174112 
L 140.62489 203.174112 
L 140.62489 202.61493 
L 141.121347 202.61493 
L 141.121347 202.055748 
L 141.303883 202.055748 
L 141.303883 199.819019 
L 141.72241 199.819019 
L 141.72241 199.259837 
L 142.015238 199.259837 
L 142.015238 198.700655 
L 142.809574 198.700655 
L 142.809574 197.58229 
L 143.462385 197.58229 
L 143.462385 195.904743 
L 143.621786 195.904743 
L 143.621786 193.668014 
L 143.936221 193.668014 
L 143.936221 192.54965 
L 144.245007 192.54965 
L 144.245007 188.635374 
L 144.548344 188.635374 
L 144.548344 186.957828 
L 145.235981 186.957828 
L 145.284061 184.161916 
L 145.37982 184.161916 
L 145.37982 181.366005 
L 146.081494 181.366005 
L 146.081494 180.806823 
L 146.354335 180.806823 
L 146.39939 178.570094 
L 146.667271 178.570094 
L 146.755644 176.333365 
L 147.319256 176.333365 
L 147.319256 175.215 
L 147.657127 175.215 
L 147.657127 174.096636 
L 147.947413 174.096636 
L 148.029459 171.300725 
L 148.070335 171.300725 
L 148.111115 170.18236 
L 148.232877 170.18236 
L 148.232877 168.504814 
L 148.473843 168.504814 
L 148.473843 166.268085 
L 148.63263 166.268085 
L 148.63263 165.14972 
L 148.868095 165.14972 
L 148.907027 162.912991 
L 149.518243 162.912991 
L 149.555732 160.676262 
L 150.216915 160.676262 
L 150.216915 158.998715 
L 150.431775 158.998715 
L 150.538207 157.321169 
L 150.784014 157.321169 
L 150.784014 156.202804 
L 150.957462 156.202804 
L 151.026355 151.729346 
L 151.129178 151.729346 
L 151.129178 151.170164 
L 151.667418 151.170164 
L 151.667418 148.933435 
L 152.28543 148.933435 
L 152.28543 148.374253 
L 152.412754 148.374253 
L 152.507631 145.578342 
L 152.851103 145.578342 
L 152.851103 145.019159 
L 153.30868 145.019159 
L 153.30868 142.78243 
L 153.577492 142.78243 
L 153.607102 141.104884 
L 154.302858 141.104884 
L 154.38788 138.308973 
L 154.444329 138.308973 
L 154.444329 137.74979 
L 154.640452 137.74979 
L 154.640452 137.190608 
L 154.779183 137.190608 
L 154.779183 135.513061 
L 154.944195 135.513061 
L 154.944195 134.394697 
L 155.18878 134.394697 
L 155.269542 131.039603 
L 155.376636 131.039603 
L 155.376636 130.480421 
L 155.667752 130.480421 
L 155.746298 127.125328 
L 155.850472 127.125328 
L 155.850472 125.447781 
L 156.005559 125.447781 
L 156.005559 124.888599 
L 156.184742 124.888599 
L 156.2863 123.211052 
L 156.6371 123.211052 
L 156.6371 121.533505 
L 156.980885 121.533505 
L 156.980885 120.415141 
L 157.126141 120.415141 
L 157.126141 119.296776 
L 157.413024 119.296776 
L 157.460375 115.941683 
L 157.625086 115.941683 
L 157.718503 114.823318 
L 158.087174 114.823318 
L 158.155428 109.790678 
L 158.223412 109.790678 
L 158.223412 109.231496 
L 158.381004 109.231496 
L 158.381004 108.672314 
L 159.382144 108.672314 
L 159.382144 106.435585 
L 159.508531 106.435585 
L 159.508531 105.876403 
L 159.696387 105.876403 
L 159.696387 105.31722 
L 160.025366 105.31722 
L 160.025366 101.962127 
L 160.527113 101.962127 
L 160.527113 100.843762 
L 160.684628 100.843762 
L 160.684628 100.28458 
L 161.637678 100.28458 
L 161.637678 96.370304 
L 161.78538 96.370304 
L 161.858757 94.133576 
L 162.292562 94.133576 
L 162.292562 91.337664 
L 163.548519 91.337664 
L 163.598221 90.2193 
L 163.811951 90.2193 
L 163.811951 87.423389 
L 165.417494 87.423389 
L 165.417494 86.864206 
L 165.58042 86.864206 
L 165.58042 86.305024 
L 165.901712 86.305024 
L 165.901712 85.745842 
L 166.017073 85.745842 
L 166.017073 85.18666 
L 166.231309 85.18666 
L 166.28799 82.949931 
L 166.679611 82.949931 
L 166.679611 82.390748 
L 167.984019 82.390748 
L 168.022429 80.15402 
L 168.401884 80.15402 
L 168.401884 79.594837 
L 168.773143 79.594837 
L 168.773143 78.476473 
L 169.737245 78.476473 
L 169.737245 77.917291 
L 169.875584 77.917291 
L 169.875584 77.358108 
L 170.306457 77.358108 
L 170.306457 76.798926 
L 170.473608 76.798926 
L 170.473608 75.121379 
L 170.65013 75.121379 
L 170.65013 74.562197 
L 170.965526 74.562197 
L 170.965526 73.443833 
L 171.27524 73.443833 
L 171.317524 68.411192 
L 171.496082 68.411192 
L 171.548248 66.733646 
L 171.939617 66.733646 
L 171.939617 66.174463 
L 172.202353 66.174463 
L 172.232412 65.056099 
L 172.411669 65.056099 
L 172.411669 63.378552 
L 172.638033 63.378552 
L 172.677098 61.701006 
L 172.774374 61.701006 
L 172.774374 61.141823 
L 173.271521 61.141823 
L 173.271521 59.464277 
L 173.690436 59.464277 
L 173.690436 58.905094 
L 174.446102 58.905094 
L 174.446102 57.227548 
L 174.62123 57.227548 
L 174.638645 55.550001 
L 175.815833 55.550001 
L 175.815833 54.431636 
L 177.219766 54.431636 
L 177.219766 53.872454 
L 178.378176 53.872454 
L 178.378176 52.194907 
L 178.854613 52.194907 
L 178.854613 51.635725 
L 180.699633 51.635725 
L 180.699633 49.958178 
L 182.287764 49.958178 
L 182.354559 47.162267 
L 183.358008 47.162267 
L 183.358008 46.043903 
L 183.659298 46.043903 
L 183.659298 44.925538 
L 183.818192 44.925538 
L 183.818192 43.807174 
L 184.12663 43.807174 
L 184.12663 42.129627 
L 184.301135 42.129627 
L 184.301135 41.011263 
L 184.493519 41.011263 
L 184.493519 40.45208 
L 187.020789 40.45208 
L 187.020789 39.892898 
L 187.640454 39.892898 
L 187.640454 38.215351 
L 187.915996 38.215351 
L 187.915996 34.860258 
L 188.084004 34.860258 
L 188.084004 34.301076 
L 188.562914 34.301076 
L 188.617027 29.827618 
L 189.751904 29.827618 
L 189.816808 25.913342 
L 190.141232 25.913342 
L 190.141232 25.35416 
L 190.281921 25.35416 
L 190.348347 22.558249 
L 190.625254 22.558249 
L 190.704047 20.32152 
L 190.785881 20.32152 
L 190.785881 19.762337 
L 190.931534 19.762337 
L 190.982054 18.084791 
L 191.085994 18.084791 
L 191.122726 16.407244 
L 191.285401 16.407244 
L 191.351359 15.28888 
L 191.745096 15.28888 
L 191.745096 14.729697 
L 192.054349 14.729697 
L 192.054349 10.256239 
L 192.345716 10.256239 
L 192.345716 9.697057 
L 333.168 9.697057 
L 333.168 9.697057 
" style="fill:none;stroke:#000080;stroke-linecap:square;stroke-width:1.5;"/>
   </g>
   <g id="line2d_39">
    <defs>
     <path d="M 0 6 
C 1.591219 6 3.117479 5.367802 4.242641 4.242641 
C 5.367802 3.117479 6 1.591219 6 0 
C 6 -1.591219 5.367802 -3.117479 4.242641 -4.242641 
C 3.117479 -5.367802 1.591219 -6 0 -6 
C -1.591219 -6 -3.117479 -5.367802 -4.242641 -4.242641 
C -5.367802 -3.117479 -6 -1.591219 -6 0 
C -6 1.591219 -5.367802 3.117479 -4.242641 4.242641 
C -3.117479 5.367802 -1.591219 6 0 6 
z
" id="m9b216d31f0" style="stroke:#000080;stroke-width:1.5;"/>
    </defs>
    <g>
     <use style="fill-opacity:0;stroke:#000080;stroke-width:1.5;" x="150.216915" xlink:href="#m9b216d31f0" y="158.998715"/>
     <use style="fill-opacity:0;stroke:#000080;stroke-width:1.5;" x="192.345716" xlink:href="#m9b216d31f0" y="10.256239"/>
     <use style="fill-opacity:0;stroke:#000080;stroke-width:1.5;" x="192.345716" xlink:href="#m9b216d31f0" y="9.697057"/>
     <use style="fill-opacity:0;stroke:#000080;stroke-width:1.5;" x="192.345716" xlink:href="#m9b216d31f0" y="9.697057"/>
     <use style="fill-opacity:0;stroke:#000080;stroke-width:1.5;" x="333.168" xlink:href="#m9b216d31f0" y="9.697057"/>
    </g>
   </g>
   <g id="line2d_40">
    <path style="fill:none;stroke:#000080;stroke-linecap:square;stroke-width:1.5;"/>
    <g/>
   </g>
   <g id="line2d_41">
    <defs>
     <path d="M 0 1.5 
C 0.397805 1.5 0.77937 1.341951 1.06066 1.06066 
C 1.341951 0.77937 1.5 0.397805 1.5 0 
C 1.5 -0.397805 1.341951 -0.77937 1.06066 -1.06066 
C 0.77937 -1.341951 0.397805 -1.5 0 -1.5 
C -0.397805 -1.5 -0.77937 -1.341951 -1.06066 -1.06066 
C -1.341951 -0.77937 -1.5 -0.397805 -1.5 0 
C -1.5 0.397805 -1.341951 0.77937 -1.06066 1.06066 
C -0.77937 1.341951 -0.397805 1.5 0 1.5 
z
" id="mfea1207e60" style="stroke:#ff00ff;"/>
    </defs>
    <g>
     <use style="fill:#ff00ff;stroke:#ff00ff;" x="165.117248" xlink:href="#mfea1207e60" y="9.697057"/>
     <use style="fill:#ff00ff;stroke:#ff00ff;" x="165.117248" xlink:href="#mfea1207e60" y="9.697057"/>
    </g>
   </g>
   <g id="line2d_42">
    <path d="M 44.205749 294.88 
L 44.205749 293.761636 
L 56.12 293.761636 
L 56.12 293.202453 
L 63.08939 293.202453 
L 63.08939 290.965724 
L 71.869783 290.965724 
L 71.869783 290.406542 
L 75.003641 290.406542 
L 75.003641 289.288178 
L 77.653281 289.288178 
L 77.653281 286.492266 
L 79.948502 286.492266 
L 79.948502 285.373902 
L 81.973032 285.373902 
L 81.973032 284.255537 
L 92.904808 284.255537 
L 92.904808 283.696355 
L 93.887283 283.696355 
L 93.887283 282.577991 
L 95.698286 282.577991 
L 95.698286 281.459626 
L 96.536922 281.459626 
L 96.536922 279.222897 
L 98.100602 279.222897 
L 98.100602 278.663715 
L 100.856673 278.663715 
L 100.856673 276.986168 
L 101.481783 276.986168 
L 101.481783 274.749439 
L 102.084955 274.749439 
L 102.084955 274.190257 
L 102.667676 274.190257 
L 102.667676 273.071893 
L 105.317315 273.071893 
L 105.317315 272.51271 
L 106.730875 272.51271 
L 106.730875 270.275981 
L 108.036969 270.275981 
L 108.036969 269.157617 
L 108.85563 269.157617 
L 108.85563 268.598435 
L 109.637066 268.598435 
L 109.637066 265.802523 
L 112.122219 265.802523 
L 112.122219 265.243341 
L 112.449632 265.243341 
L 112.449632 264.684159 
L 114.293036 264.684159 
L 114.293036 263.565795 
L 115.145539 263.565795 
L 115.145539 262.44743 
L 115.420563 262.44743 
L 115.420563 261.888248 
L 116.478659 261.888248 
L 116.478659 261.329066 
L 118.186736 261.329066 
L 118.186736 259.092337 
L 119.310576 259.092337 
L 119.310576 257.41479 
L 120.15957 257.41479 
L 120.15957 256.855608 
L 120.365424 256.855608 
L 120.365424 255.737243 
L 120.769881 255.737243 
L 120.769881 255.178061 
L 121.16504 255.178061 
L 121.16504 253.500514 
L 121.359263 253.500514 
L 121.359263 251.822967 
L 122.114929 251.822967 
L 122.114929 251.263785 
L 124.52528 251.263785 
L 124.52528 250.704603 
L 125.000572 250.704603 
L 125.000572 249.027056 
L 125.156126 249.027056 
L 125.156126 248.467874 
L 125.463074 248.467874 
L 125.463074 247.908692 
L 127.334814 247.908692 
L 127.334814 247.34951 
L 128.003717 247.34951 
L 128.003717 245.671963 
L 129.145817 245.671963 
L 129.145817 245.112781 
L 130.445921 245.112781 
L 130.445921 244.553598 
L 130.559378 244.553598 
L 130.559378 243.435234 
L 130.784069 243.435234 
L 130.784069 242.876052 
L 130.895323 242.876052 
L 130.895323 242.316869 
L 131.441039 242.316869 
L 131.441039 241.198505 
L 132.381685 241.198505 
L 132.381685 240.639323 
L 132.583907 240.639323 
L 132.583907 237.843411 
L 132.783777 237.843411 
L 132.783777 236.725047 
L 132.98135 236.725047 
L 132.98135 236.165865 
L 134.485139 236.165865 
L 134.485139 233.369954 
L 134.753019 233.369954 
L 134.753019 231.133225 
L 135.276571 231.133225 
L 135.276571 230.574042 
L 135.784647 230.574042 
L 135.784647 228.896496 
L 135.950722 228.896496 
L 136.033161 227.218949 
L 136.519665 227.218949 
L 136.519665 226.659767 
L 136.757848 226.659767 
L 136.757848 225.541402 
L 137.224536 225.541402 
L 137.224536 224.98222 
L 137.603992 224.98222 
L 137.678888 222.186309 
L 137.753459 222.186309 
L 137.827708 221.067944 
L 138.121538 221.067944 
L 138.194217 219.390397 
L 138.33866 219.390397 
L 138.33866 218.831215 
L 138.974042 218.831215 
L 138.974042 217.712851 
L 139.384945 217.712851 
L 139.452484 216.594486 
L 139.586771 216.594486 
L 139.586771 215.476122 
L 140.113666 215.476122 
L 140.113666 212.121028 
L 140.242905 212.121028 
L 140.242905 211.561846 
L 140.498503 211.561846 
L 140.498503 205.410841 
L 141.182408 205.410841 
L 141.243253 203.174112 
L 141.66324 203.174112 
L 141.72241 200.378201 
L 141.781376 200.378201 
L 141.781376 199.819019 
L 142.360172 199.819019 
L 142.360172 198.141472 
L 142.530078 198.141472 
L 142.530078 197.58229 
L 142.642422 197.58229 
L 142.69832 194.786379 
L 143.029944 194.786379 
L 143.029944 192.54965 
L 143.301492 192.54965 
L 143.35529 191.431285 
L 143.515683 191.431285 
L 143.621786 189.194556 
L 143.727238 189.194556 
L 143.727238 188.076192 
L 143.988072 188.076192 
L 143.988072 187.51701 
L 144.498158 187.51701 
L 144.498158 186.957828 
L 144.648278 186.957828 
L 144.747635 184.161916 
L 144.84642 184.161916 
L 144.895601 182.48437 
L 145.37982 182.48437 
L 145.37982 181.925187 
L 145.710835 181.925187 
L 145.710835 181.366005 
L 146.218456 181.366005 
L 146.263868 178.570094 
L 146.533852 178.570094 
L 146.533852 178.010912 
L 146.755644 178.010912 
L 146.843566 173.537454 
L 147.147797 173.537454 
L 147.147797 172.978271 
L 147.446737 172.978271 
L 147.446737 172.419089 
L 147.615255 172.419089 
L 147.615255 171.300725 
L 147.823604 171.300725 
L 147.823604 168.504814 
L 148.192385 168.504814 
L 148.192385 167.945631 
L 148.393896 167.945631 
L 148.393896 166.827267 
L 148.513678 166.827267 
L 148.55342 162.912991 
L 148.672099 162.912991 
L 148.672099 162.353809 
L 148.945872 162.353809 
L 148.984628 160.11708 
L 149.253506 160.11708 
L 149.329562 158.998715 
L 149.367465 158.998715 
L 149.443019 157.321169 
L 149.66771 157.321169 
L 149.66771 156.202804 
L 149.778964 156.202804 
L 149.815889 154.525258 
L 150.035789 154.525258 
L 150.144693 150.610982 
L 150.180842 150.610982 
L 150.288834 147.815071 
L 150.467326 147.815071 
L 150.538207 144.459977 
L 150.608797 144.459977 
L 150.608797 143.900795 
L 150.784014 143.900795 
L 150.784014 142.78243 
L 150.922912 142.78243 
L 150.991943 139.427337 
L 151.231391 139.427337 
L 151.231391 138.868155 
L 151.400405 138.868155 
L 151.501022 133.276332 
L 151.8977 133.276332 
L 151.930347 132.157968 
L 152.28543 132.157968 
L 152.28543 131.039603 
L 152.444438 131.039603 
L 152.476064 129.921239 
L 152.726997 129.921239 
L 152.820161 127.125328 
L 152.88199 127.125328 
L 152.943598 123.770234 
L 153.035598 123.770234 
L 153.066156 122.092688 
L 153.157504 122.092688 
L 153.157504 118.178412 
L 153.30868 118.178412 
L 153.36878 114.264136 
L 153.518118 114.264136 
L 153.518118 113.145772 
L 153.783699 113.145772 
L 153.783699 112.027407 
L 153.90043 112.027407 
L 153.90043 110.349861 
L 154.38788 110.349861 
L 154.38788 108.113132 
L 154.723825 108.113132 
L 154.723825 106.994767 
L 154.889367 106.994767 
L 154.916803 104.758038 
L 155.269542 104.758038 
L 155.296378 103.080491 
L 155.615187 103.080491 
L 155.720156 99.725398 
L 155.746298 99.725398 
L 155.798464 95.811122 
L 155.876417 95.811122 
L 155.92819 93.015211 
L 156.159258 93.015211 
L 156.235596 91.337664 
L 156.387261 91.337664 
L 156.487633 88.541753 
L 156.858892 88.541753 
L 156.956555 86.864206 
L 157.174289 86.864206 
L 157.198312 85.745842 
L 157.294071 85.745842 
L 157.317927 81.272384 
L 157.413024 81.272384 
L 157.413024 79.594837 
L 157.578187 79.594837 
L 157.601653 76.798926 
L 157.741778 76.798926 
L 157.788234 75.680562 
L 157.857683 75.680562 
L 157.857683 71.766286 
L 158.018648 71.766286 
L 158.04152 67.85201 
L 158.336125 67.85201 
L 158.336125 66.733646 
L 158.492691 66.733646 
L 158.559357 64.496917 
L 158.713912 64.496917 
L 158.713912 62.81937 
L 158.954011 62.81937 
L 158.975673 61.701006 
L 159.083575 61.701006 
L 159.083575 60.023459 
L 159.233507 60.023459 
L 159.297366 55.550001 
L 159.550455 55.550001 
L 159.633996 53.872454 
L 159.696387 53.872454 
L 159.799871 51.635725 
L 159.902736 51.635725 
L 160.004989 50.517361 
L 160.025366 50.517361 
L 160.025366 48.280632 
L 160.207687 48.280632 
L 160.288102 47.162267 
L 160.447811 47.162267 
L 160.447811 44.366356 
L 160.606051 44.366356 
L 160.606051 43.807174 
L 160.918225 43.807174 
L 160.976132 42.129627 
L 161.167758 42.129627 
L 161.205828 38.215351 
L 161.413719 38.215351 
L 161.413719 36.537805 
L 161.78538 36.537805 
L 161.858757 34.860258 
L 161.913585 34.860258 
L 161.913585 34.301076 
L 162.077028 34.301076 
L 162.131166 33.182711 
L 162.221018 33.182711 
L 162.328224 29.268436 
L 162.346026 29.268436 
L 162.434765 26.472524 
L 162.61088 26.472524 
L 162.715689 23.117431 
L 162.750483 23.117431 
L 162.854447 20.32152 
L 162.992095 20.32152 
L 162.992095 19.762337 
L 163.162618 19.762337 
L 163.162618 18.643973 
L 163.398544 18.643973 
L 163.398544 17.525609 
L 163.713637 17.525609 
L 163.762864 14.170515 
L 163.860898 14.170515 
L 163.860898 13.611333 
L 164.215648 13.611333 
L 164.215648 12.492968 
L 164.327005 12.492968 
L 164.374509 10.815422 
L 165.086933 10.815422 
L 165.117248 9.697057 
L 333.168 9.697057 
L 333.168 9.697057 
" style="fill:none;stroke:#ff00ff;stroke-linecap:square;stroke-width:1.5;"/>
   </g>
   <g id="line2d_43">
    <defs>
     <path d="M -0 8.485281 
L 5.091169 0 
L 0 -8.485281 
L -5.091169 -0 
z
" id="md09288b976" style="stroke:#ff00ff;stroke-linejoin:miter;stroke-width:1.5;"/>
    </defs>
    <g>
     <use style="fill-opacity:0;stroke:#ff00ff;stroke-linejoin:miter;stroke-width:1.5;" x="121.359263" xlink:href="#md09288b976" y="253.500514"/>
     <use style="fill-opacity:0;stroke:#ff00ff;stroke-linejoin:miter;stroke-width:1.5;" x="156.387261" xlink:href="#md09288b976" y="91.337664"/>
     <use style="fill-opacity:0;stroke:#ff00ff;stroke-linejoin:miter;stroke-width:1.5;" x="165.117248" xlink:href="#md09288b976" y="10.256239"/>
     <use style="fill-opacity:0;stroke:#ff00ff;stroke-linejoin:miter;stroke-width:1.5;" x="165.117248" xlink:href="#md09288b976" y="9.697057"/>
     <use style="fill-opacity:0;stroke:#ff00ff;stroke-linejoin:miter;stroke-width:1.5;" x="165.117248" xlink:href="#md09288b976" y="9.697057"/>
     <use style="fill-opacity:0;stroke:#ff00ff;stroke-linejoin:miter;stroke-width:1.5;" x="333.168" xlink:href="#md09288b976" y="9.697057"/>
    </g>
   </g>
   <g id="line2d_44">
    <path style="fill:none;stroke:#ff00ff;stroke-linecap:square;stroke-width:1.5;"/>
    <g/>
   </g>
   <g id="line2d_45">
    <defs>
     <path d="M 0 1.5 
C 0.397805 1.5 0.77937 1.341951 1.06066 1.06066 
C 1.341951 0.77937 1.5 0.397805 1.5 0 
C 1.5 -0.397805 1.341951 -0.77937 1.06066 -1.06066 
C 0.77937 -1.341951 0.397805 -1.5 0 -1.5 
C -0.397805 -1.5 -0.77937 -1.341951 -1.06066 -1.06066 
C -1.341951 -0.77937 -1.5 -0.397805 -1.5 0 
C -1.5 0.397805 -1.341951 0.77937 -1.06066 1.06066 
C -0.77937 1.341951 -0.397805 1.5 0 1.5 
z
" id="m4b5a0e6b53" style="stroke:#ff7500;"/>
    </defs>
    <g>
     <use style="fill:#ff7500;stroke:#ff7500;" x="157.741778" xlink:href="#m4b5a0e6b53" y="9.697057"/>
     <use style="fill:#ff7500;stroke:#ff7500;" x="157.741778" xlink:href="#m4b5a0e6b53" y="9.697057"/>
    </g>
   </g>
   <g id="line2d_46">
    <path d="M 77.653281 294.88 
L 77.653281 293.202453 
L 79.948502 293.202453 
L 79.948502 292.643271 
L 98.100602 292.643271 
L 98.100602 285.373902 
L 107.612537 285.373902 
L 107.612537 284.81472 
L 112.122219 284.81472 
L 112.122219 283.696355 
L 115.145539 283.696355 
L 115.145539 279.222897 
L 116.220179 279.222897 
L 116.220179 278.104533 
L 119.310576 278.104533 
L 119.310576 274.749439 
L 119.95122 274.749439 
L 119.95122 274.190257 
L 122.298767 274.190257 
L 122.298767 273.631075 
L 122.480659 273.631075 
L 122.480659 273.071893 
L 122.660646 273.071893 
L 122.660646 272.51271 
L 123.36232 272.51271 
L 123.36232 270.835164 
L 124.52528 270.835164 
L 124.52528 270.275981 
L 124.843597 270.275981 
L 124.843597 269.157617 
L 126.352339 269.157617 
L 126.352339 267.48007 
L 127.334814 267.48007 
L 127.334814 266.920888 
L 127.605507 266.920888 
L 127.605507 266.361706 
L 128.39291 266.361706 
L 128.39291 265.243341 
L 128.520707 265.243341 
L 128.520707 263.565795 
L 130.100987 263.565795 
L 130.100987 259.651519 
L 130.33171 259.651519 
L 130.33171 259.092337 
L 130.67209 259.092337 
L 130.67209 258.533154 
L 131.333273 258.533154 
L 131.441039 257.41479 
L 131.548134 257.41479 
L 131.548134 256.855608 
L 132.177056 256.855608 
L 132.177056 254.618879 
L 132.483094 254.618879 
L 132.483094 252.38215 
L 132.783777 252.38215 
L 132.783777 250.704603 
L 134.664189 250.704603 
L 134.664189 248.467874 
L 134.841393 248.467874 
L 134.841393 245.112781 
L 135.190413 245.112781 
L 135.190413 244.553598 
L 135.3623 244.553598 
L 135.3623 243.994416 
L 135.616951 243.994416 
L 135.701004 242.876052 
L 135.784647 242.876052 
L 135.784647 242.316869 
L 135.950722 242.316869 
L 135.950722 241.757687 
L 136.67882 241.757687 
L 136.67882 238.961776 
L 137.453213 238.961776 
L 137.528768 235.606682 
L 137.753459 235.606682 
L 137.753459 234.488318 
L 138.04855 234.488318 
L 138.04855 233.929136 
L 138.33866 233.929136 
L 138.33866 232.251589 
L 138.4819 232.251589 
L 138.4819 231.133225 
L 138.904592 231.133225 
L 138.974042 228.337313 
L 139.043211 228.337313 
L 139.043211 227.778131 
L 139.249066 227.778131 
L 139.317139 223.863855 
L 139.384945 223.863855 
L 139.384945 221.627126 
L 139.586771 221.627126 
L 139.586771 219.94958 
L 139.786254 219.94958 
L 139.786254 219.390397 
L 140.113666 219.390397 
L 140.113666 218.831215 
L 140.242905 218.831215 
L 140.307161 217.153669 
L 140.434959 217.153669 
L 140.498503 211.002664 
L 140.561812 211.002664 
L 140.561812 208.765935 
L 140.812746 208.765935 
L 140.812746 208.206753 
L 141.060069 208.206753 
L 141.060069 205.410841 
L 141.182408 205.410841 
L 141.243253 200.937384 
L 141.303883 200.937384 
L 141.303883 199.259837 
L 141.66324 199.259837 
L 141.66324 198.700655 
L 141.781376 198.700655 
L 141.781376 198.141472 
L 141.898705 198.141472 
L 141.898705 197.023108 
L 142.07321 197.023108 
L 142.130987 191.431285 
L 142.473629 191.431285 
L 142.530078 190.312921 
L 142.809574 190.312921 
L 142.864932 186.957828 
L 143.029944 186.957828 
L 143.029944 183.602734 
L 143.408921 183.602734 
L 143.408921 179.129276 
L 143.779723 179.129276 
L 143.884213 171.300725 
L 144.039767 171.300725 
L 144.039767 170.18236 
L 144.245007 170.18236 
L 144.245007 165.708902 
L 144.397345 165.708902 
L 144.397345 160.11708 
L 144.895601 160.11708 
L 144.993542 157.880351 
L 145.37982 157.880351 
L 145.475048 155.643622 
L 145.616908 155.643622 
L 145.616908 155.08444 
L 145.804252 155.08444 
L 145.804252 154.525258 
L 146.127269 154.525258 
L 146.127269 151.170164 
L 146.444328 151.170164 
L 146.444328 149.492617 
L 146.755644 149.492617 
L 146.799661 142.223248 
L 147.061422 142.223248 
L 147.104664 138.868155 
L 147.190823 138.868155 
L 147.190823 137.190608 
L 147.361855 137.190608 
L 147.446737 133.835515 
L 147.698898 133.835515 
L 147.698898 132.71715 
L 148.029459 132.71715 
L 148.029459 129.362057 
L 148.313575 129.362057 
L 148.313575 127.68451 
L 148.513678 127.68451 
L 148.593071 124.888599 
L 148.672099 124.888599 
L 148.750766 120.974323 
L 148.789965 120.974323 
L 148.829074 117.61923 
L 148.945872 117.61923 
L 148.984628 113.704954 
L 149.215352 113.704954 
L 149.291576 112.586589 
L 149.367465 112.586589 
L 149.367465 112.027407 
L 149.518243 112.027407 
L 149.555732 106.994767 
L 149.66771 106.994767 
L 149.66771 105.31722 
L 149.815889 105.31722 
L 149.815889 102.521309 
L 149.999334 102.521309 
L 149.999334 101.402945 
L 150.144693 101.402945 
L 150.252912 94.692758 
L 150.538207 94.692758 
L 150.643983 91.896847 
L 150.784014 91.896847 
L 150.853603 82.949931 
L 150.991943 82.949931 
L 151.094972 81.272384 
L 151.567774 81.272384 
L 151.601053 79.594837 
L 151.733528 79.594837 
L 151.733528 77.358108 
L 151.930347 77.358108 
L 152.027918 69.529557 
L 152.060318 69.529557 
L 152.157156 65.615281 
L 152.317349 65.615281 
L 152.317349 62.81937 
L 152.444438 62.81937 
L 152.539141 58.905094 
L 152.601988 58.905094 
L 152.601988 57.78673 
L 152.851103 57.78673 
L 152.912822 54.990819 
L 153.004986 54.990819 
L 153.096659 52.194907 
L 153.127109 52.194907 
L 153.127109 49.958178 
L 153.36878 49.958178 
L 153.36878 48.839814 
L 153.488354 48.839814 
L 153.54783 46.603085 
L 153.636661 46.603085 
L 153.636661 44.925538 
L 153.987461 44.925538 
L 154.045238 34.860258 
L 154.102822 34.860258 
L 154.131541 32.064347 
L 154.217413 32.064347 
L 154.217413 30.3868 
L 154.38788 30.3868 
L 154.472484 25.35416 
L 154.556673 25.35416 
L 154.640452 21.439884 
L 154.696079 21.439884 
L 154.751526 18.643973 
L 154.971544 18.643973 
L 154.971544 17.525609 
L 155.242663 17.525609 
L 155.349925 15.28888 
L 155.403306 15.28888 
L 155.403306 14.170515 
L 155.667752 14.170515 
L 155.667752 13.611333 
L 155.798464 13.611333 
L 155.798464 13.052151 
L 156.311596 13.052151 
L 156.311596 11.933786 
L 156.512635 11.933786 
L 156.512635 11.374604 
L 156.785279 11.374604 
L 156.785279 10.815422 
L 157.053666 10.815422 
L 157.053666 10.256239 
L 157.741778 10.256239 
L 157.741778 9.697057 
L 333.168 9.697057 
L 333.168 9.697057 
" style="fill:none;stroke:#ff7500;stroke-linecap:square;stroke-width:1.5;"/>
   </g>
   <g id="line2d_47">
    <defs>
     <path d="M 0 -6 
L -1.347084 -1.854102 
L -5.706339 -1.854102 
L -2.179628 0.708204 
L -3.526712 4.854102 
L -0 2.291796 
L 3.526712 4.854102 
L 2.179628 0.708204 
L 5.706339 -1.854102 
L 1.347084 -1.854102 
z
" id="m8f9446ec40" style="stroke:#ff7500;stroke-linejoin:bevel;stroke-width:1.5;"/>
    </defs>
    <g>
     <use style="fill-opacity:0;stroke:#ff7500;stroke-linejoin:bevel;stroke-width:1.5;" x="132.783777" xlink:href="#m8f9446ec40" y="252.38215"/>
     <use style="fill-opacity:0;stroke:#ff7500;stroke-linejoin:bevel;stroke-width:1.5;" x="154.751526" xlink:href="#m8f9446ec40" y="19.203155"/>
     <use style="fill-opacity:0;stroke:#ff7500;stroke-linejoin:bevel;stroke-width:1.5;" x="157.741778" xlink:href="#m8f9446ec40" y="9.697057"/>
     <use style="fill-opacity:0;stroke:#ff7500;stroke-linejoin:bevel;stroke-width:1.5;" x="157.741778" xlink:href="#m8f9446ec40" y="9.697057"/>
     <use style="fill-opacity:0;stroke:#ff7500;stroke-linejoin:bevel;stroke-width:1.5;" x="333.168" xlink:href="#m8f9446ec40" y="9.697057"/>
    </g>
   </g>
   <g id="line2d_48">
    <path style="fill:none;stroke:#ff7500;stroke-linecap:square;stroke-width:1.5;"/>
    <g/>
   </g>
   <g id="line2d_49">
    <defs>
     <path d="M 0 1.5 
C 0.397805 1.5 0.77937 1.341951 1.06066 1.06066 
C 1.341951 0.77937 1.5 0.397805 1.5 0 
C 1.5 -0.397805 1.341951 -0.77937 1.06066 -1.06066 
C 0.77937 -1.341951 0.397805 -1.5 0 -1.5 
C -0.397805 -1.5 -0.77937 -1.341951 -1.06066 -1.06066 
C -1.341951 -0.77937 -1.5 -0.397805 -1.5 0 
C -1.5 0.397805 -1.341951 0.77937 -1.06066 1.06066 
C -0.77937 1.341951 -0.397805 1.5 0 1.5 
z
" id="mdd2ccc672f" style="stroke:#6495ed;"/>
    </defs>
    <g>
     <use style="fill:#6495ed;stroke:#6495ed;" x="156.43752" xlink:href="#mdd2ccc672f" y="9.697057"/>
     <use style="fill:#6495ed;stroke:#6495ed;" x="156.43752" xlink:href="#mdd2ccc672f" y="9.697057"/>
    </g>
   </g>
   <g id="line2d_50">
    <path d="M 97.336537 294.88 
L 97.336537 294.320818 
L 98.832144 294.320818 
L 98.832144 292.643271 
L 105.801534 292.643271 
L 105.801534 292.084089 
L 110.746395 292.084089 
L 110.746395 289.84736 
L 111.100812 289.84736 
L 111.100812 287.610631 
L 113.086321 287.610631 
L 113.086321 285.933084 
L 116.478659 285.933084 
L 116.478659 285.373902 
L 116.984244 285.373902 
L 116.984244 283.696355 
L 117.715785 283.696355 
L 117.715785 283.137173 
L 118.186736 283.137173 
L 118.186736 281.459626 
L 118.869818 281.459626 
L 118.869818 280.900444 
L 119.95122 280.900444 
L 119.95122 275.308622 
L 122.660646 275.308622 
L 122.660646 274.190257 
L 123.015063 274.190257 
L 123.015063 273.631075 
L 123.36232 273.631075 
L 123.36232 270.835164 
L 124.685175 270.835164 
L 124.685175 270.275981 
L 124.843597 270.275981 
L 124.843597 269.157617 
L 125.156126 269.157617 
L 125.156126 268.598435 
L 126.352339 268.598435 
L 126.352339 268.039252 
L 127.470694 268.039252 
L 127.470694 266.361706 
L 127.605507 266.361706 
L 127.605507 265.802523 
L 127.872003 265.802523 
L 127.872003 265.243341 
L 128.39291 265.243341 
L 128.39291 264.124977 
L 128.520707 264.124977 
L 128.520707 261.888248 
L 128.647561 261.888248 
L 128.647561 261.329066 
L 130.559378 261.329066 
L 130.559378 260.769883 
L 130.67209 260.769883 
L 130.67209 260.210701 
L 130.895323 260.210701 
L 130.895323 257.973972 
L 131.224827 257.973972 
L 131.224827 257.41479 
L 131.548134 257.41479 
L 131.548134 256.855608 
L 132.783777 256.855608 
L 132.783777 255.737243 
L 132.98135 255.737243 
L 133.079291 254.059696 
L 133.6555 254.059696 
L 133.6555 251.822967 
L 134.304205 251.822967 
L 134.304205 251.263785 
L 134.485139 251.263785 
L 134.485139 250.704603 
L 134.841393 250.704603 
L 134.841393 250.145421 
L 136.359022 250.145421 
L 136.359022 249.586238 
L 136.599426 249.586238 
L 136.599426 247.908692 
L 137.070377 247.908692 
L 137.070377 247.34951 
L 137.603992 247.34951 
L 137.603992 246.231145 
L 137.753459 246.231145 
L 137.753459 241.198505 
L 138.33866 241.198505 
L 138.33866 238.961776 
L 138.623956 238.961776 
L 138.694545 236.165865 
L 138.904592 236.165865 
L 138.904592 232.251589 
L 139.043211 232.251589 
L 139.043211 230.01486 
L 139.249066 230.01486 
L 139.249066 228.896496 
L 139.384945 228.896496 
L 139.452484 222.745491 
L 139.653523 222.745491 
L 139.653523 222.186309 
L 139.852237 222.186309 
L 139.852237 221.067944 
L 140.178407 221.067944 
L 140.242905 217.153669 
L 140.498503 217.153669 
L 140.498503 216.035304 
L 140.750355 216.035304 
L 140.812746 209.884299 
L 140.874911 209.884299 
L 140.936852 207.088388 
L 141.544287 207.088388 
L 141.544287 206.529206 
L 142.015238 206.529206 
L 142.07321 204.292477 
L 142.245962 204.292477 
L 142.245962 203.174112 
L 142.586342 203.174112 
L 142.586342 202.055748 
L 142.809574 202.055748 
L 142.864932 199.259837 
L 143.029944 199.259837 
L 143.139078 195.345561 
L 143.247524 195.345561 
L 143.247524 193.108832 
L 143.462385 193.108832 
L 143.462385 189.753739 
L 143.621786 189.753739 
L 143.727238 185.280281 
L 143.779723 185.280281 
L 143.884213 182.48437 
L 143.936221 182.48437 
L 143.936221 181.925187 
L 144.091308 181.925187 
L 144.193927 171.300725 
L 144.295937 171.300725 
L 144.346715 168.504814 
L 144.648278 168.504814 
L 144.648278 167.386449 
L 144.797098 167.386449 
L 144.797098 166.827267 
L 145.042304 166.827267 
L 145.139415 161.794627 
L 145.284061 161.794627 
L 145.37982 159.557898 
L 145.4275 159.557898 
L 145.4275 157.880351 
L 145.804252 157.880351 
L 145.85077 156.761987 
L 145.989576 156.761987 
L 146.081494 150.0518 
L 146.309161 150.0518 
L 146.354335 147.815071 
L 146.489148 147.815071 
L 146.489148 146.137524 
L 146.711514 146.137524 
L 146.711514 145.019159 
L 146.843566 145.019159 
L 146.843566 142.78243 
L 147.061422 142.78243 
L 147.147797 138.308973 
L 147.190823 138.308973 
L 147.190823 134.394697 
L 147.615255 134.394697 
L 147.657127 130.480421 
L 147.740567 130.480421 
L 147.740567 129.921239 
L 148.029459 129.921239 
L 148.111115 119.855959 
L 148.393896 119.855959 
L 148.433916 117.61923 
L 148.513678 117.61923 
L 148.55342 114.264136 
L 148.829074 114.264136 
L 148.907027 111.468225 
L 149.177112 111.468225 
L 149.215352 109.231496 
L 149.291576 109.231496 
L 149.367465 104.758038 
L 149.405283 104.758038 
L 149.480672 102.521309 
L 149.518243 102.521309 
L 149.518243 100.843762 
L 149.630465 100.843762 
L 149.630465 100.28458 
L 149.778964 100.28458 
L 149.815889 99.166216 
L 149.926191 99.166216 
L 149.926191 95.811122 
L 150.216915 95.811122 
L 150.288834 94.692758 
L 150.467326 94.692758 
L 150.467326 92.456029 
L 150.643983 92.456029 
L 150.749113 90.2193 
L 150.957462 90.2193 
L 151.060698 86.864206 
L 151.094972 86.864206 
L 151.094972 85.745842 
L 151.299196 85.745842 
L 151.332999 82.949931 
L 151.467548 82.949931 
L 151.467548 80.713202 
L 151.601053 80.713202 
L 151.601053 80.15402 
L 151.962932 80.15402 
L 152.027918 72.88465 
L 152.092658 72.88465 
L 152.157156 66.174463 
L 152.221413 66.174463 
L 152.221413 65.615281 
L 152.34921 65.615281 
L 152.34921 64.496917 
L 152.476064 64.496917 
L 152.570594 61.141823 
L 152.789162 61.141823 
L 152.851103 57.227548 
L 153.004986 57.227548 
L 153.035598 56.109183 
L 153.218134 56.109183 
L 153.30868 50.517361 
L 153.338757 50.517361 
L 153.398752 49.398996 
L 153.871321 49.398996 
L 153.90043 46.043903 
L 154.016374 46.043903 
L 154.102822 42.129627 
L 154.131541 42.129627 
L 154.188837 33.182711 
L 154.359586 33.182711 
L 154.359586 32.064347 
L 154.500593 32.064347 
L 154.500593 29.268436 
L 154.861887 29.268436 
L 154.944195 25.913342 
L 155.161776 25.913342 
L 155.269542 23.117431 
L 155.429934 23.117431 
L 155.536037 20.32152 
L 155.588844 20.32152 
L 155.667752 18.084791 
L 155.746298 18.084791 
L 155.824488 16.966426 
L 155.902323 16.966426 
L 156.005559 14.170515 
L 156.235596 14.170515 
L 156.311596 12.492968 
L 156.43752 12.492968 
L 156.43752 9.697057 
L 333.168 9.697057 
L 333.168 9.697057 
" style="fill:none;stroke:#6495ed;stroke-linecap:square;stroke-width:1.5;"/>
   </g>
   <g id="line2d_51">
    <defs>
     <path d="M -0 6 
L 6 -6 
L -6 -6 
z
" id="mb8b2b0337a" style="stroke:#6495ed;stroke-linejoin:miter;stroke-width:1.5;"/>
    </defs>
    <g>
     <use style="fill-opacity:0;stroke:#6495ed;stroke-linejoin:miter;stroke-width:1.5;" x="128.520707" xlink:href="#mb8b2b0337a" y="261.888248"/>
     <use style="fill-opacity:0;stroke:#6495ed;stroke-linejoin:miter;stroke-width:1.5;" x="149.480672" xlink:href="#mb8b2b0337a" y="102.521309"/>
     <use style="fill-opacity:0;stroke:#6495ed;stroke-linejoin:miter;stroke-width:1.5;" x="156.43752" xlink:href="#mb8b2b0337a" y="12.492968"/>
     <use style="fill-opacity:0;stroke:#6495ed;stroke-linejoin:miter;stroke-width:1.5;" x="156.43752" xlink:href="#mb8b2b0337a" y="9.697057"/>
     <use style="fill-opacity:0;stroke:#6495ed;stroke-linejoin:miter;stroke-width:1.5;" x="333.168" xlink:href="#mb8b2b0337a" y="9.697057"/>
    </g>
   </g>
   <g id="line2d_52">
    <path style="fill:none;stroke:#6495ed;stroke-linecap:square;stroke-width:1.5;"/>
    <g/>
   </g>
   <g id="line2d_53">
    <defs>
     <path d="M 0 1.5 
C 0.397805 1.5 0.77937 1.341951 1.06066 1.06066 
C 1.341951 0.77937 1.5 0.397805 1.5 0 
C 1.5 -0.397805 1.341951 -0.77937 1.06066 -1.06066 
C 0.77937 -1.341951 0.397805 -1.5 0 -1.5 
C -0.397805 -1.5 -0.77937 -1.341951 -1.06066 -1.06066 
C -1.341951 -0.77937 -1.5 -0.397805 -1.5 0 
C -1.5 0.397805 -1.341951 0.77937 -1.06066 1.06066 
C -0.77937 1.341951 -0.397805 1.5 0 1.5 
z
" id="me6abea34fb" style="stroke:#ff0000;"/>
    </defs>
    <g>
     <use style="fill:#ff0000;stroke:#ff0000;" x="159.717134" xlink:href="#me6abea34fb" y="9.697057"/>
     <use style="fill:#ff0000;stroke:#ff0000;" x="159.717134" xlink:href="#me6abea34fb" y="9.697057"/>
    </g>
   </g>
   <g id="line2d_54">
    <path d="M 44.205749 294.88 
L 44.205749 277.545351 
L 56.12 277.545351 
L 56.12 265.243341 
L 63.08939 265.243341 
L 63.08939 256.296425 
L 68.034251 256.296425 
L 68.034251 254.618879 
L 71.869783 254.618879 
L 71.869783 251.822967 
L 75.003641 251.822967 
L 75.003641 246.790327 
L 77.653281 246.790327 
L 77.653281 242.316869 
L 79.948502 242.316869 
L 79.948502 241.198505 
L 86.917893 241.198505 
L 86.917893 239.520958 
L 88.293717 239.520958 
L 88.293717 238.402594 
L 92.904808 238.402594 
L 92.904808 237.843411 
L 93.887283 237.843411 
L 93.887283 235.606682 
L 95.698286 235.606682 
L 95.698286 235.0475 
L 96.536922 235.0475 
L 96.536922 232.810771 
L 97.336537 232.810771 
L 97.336537 231.692407 
L 98.100602 231.692407 
L 98.100602 231.133225 
L 100.856673 231.133225 
L 100.856673 229.455678 
L 101.481783 229.455678 
L 101.481783 228.896496 
L 102.084955 228.896496 
L 102.084955 228.337313 
L 103.231288 228.337313 
L 103.231288 227.778131 
L 103.777005 227.778131 
L 103.777005 224.423038 
L 104.305927 224.423038 
L 104.305927 223.863855 
L 106.272485 223.863855 
L 106.272485 223.304673 
L 107.612537 223.304673 
L 107.612537 219.94958 
L 108.036969 219.94958 
L 108.036969 218.831215 
L 108.451173 218.831215 
L 108.451173 217.153669 
L 109.250788 217.153669 
L 109.250788 216.594486 
L 110.746395 216.594486 
L 110.746395 216.035304 
L 111.448069 216.035304 
L 111.448069 213.798575 
L 112.770924 213.798575 
L 112.770924 212.121028 
L 114.293036 212.121028 
L 114.293036 211.002664 
L 114.866043 211.002664 
L 114.866043 210.443482 
L 115.145539 210.443482 
L 115.145539 209.884299 
L 116.220179 209.884299 
L 116.220179 209.325117 
L 118.869818 209.325117 
L 118.869818 208.206753 
L 119.740314 208.206753 
L 119.740314 207.64757 
L 120.769881 207.64757 
L 120.769881 207.088388 
L 122.480659 207.088388 
L 122.480659 205.970024 
L 123.189569 205.970024 
L 123.189569 204.851659 
L 123.533353 204.851659 
L 123.533353 204.292477 
L 123.7027 204.292477 
L 123.7027 203.174112 
L 123.870396 203.174112 
L 123.870396 202.61493 
L 125.614517 202.61493 
L 125.614517 200.937384 
L 126.061 200.937384 
L 126.061 199.259837 
L 126.207287 199.259837 
L 126.207287 197.58229 
L 126.780294 197.58229 
L 126.780294 197.023108 
L 127.05979 197.023108 
L 127.05979 196.463926 
L 127.334814 196.463926 
L 127.334814 195.904743 
L 127.872003 195.904743 
L 127.872003 194.786379 
L 128.264156 194.786379 
L 128.264156 194.227197 
L 128.520707 194.227197 
L 128.520707 193.668014 
L 129.748989 193.668014 
L 129.748989 192.54965 
L 129.984454 192.54965 
L 129.984454 191.431285 
L 130.100987 191.431285 
L 130.100987 190.312921 
L 130.67209 190.312921 
L 130.67209 189.194556 
L 130.784069 189.194556 
L 130.784069 188.635374 
L 131.760342 188.635374 
L 131.865471 184.161916 
L 132.073821 184.161916 
L 132.073821 182.48437 
L 133.079291 182.48437 
L 133.176677 179.688458 
L 133.36981 179.688458 
L 133.465568 177.451729 
L 133.560797 177.451729 
L 133.6555 173.537454 
L 134.121345 173.537454 
L 134.213018 170.741543 
L 135.276571 170.741543 
L 135.276571 170.18236 
L 135.950722 170.18236 
L 135.950722 169.063996 
L 136.115208 169.063996 
L 136.115208 168.504814 
L 136.757848 168.504814 
L 136.836515 166.268085 
L 136.914823 166.268085 
L 136.914823 165.708902 
L 137.603992 165.708902 
L 137.603992 165.14972 
L 137.901638 165.14972 
L 137.901638 164.590538 
L 138.04855 164.590538 
L 138.04855 163.472173 
L 138.194217 163.472173 
L 138.194217 162.912991 
L 138.834862 162.912991 
L 138.834862 160.11708 
L 139.043211 160.11708 
L 139.043211 158.439533 
L 139.317139 158.439533 
L 139.384945 157.321169 
L 139.653523 157.321169 
L 139.720016 150.0518 
L 139.917968 150.0518 
L 139.983449 148.933435 
L 140.048681 148.933435 
L 140.113666 147.255888 
L 140.434959 147.255888 
L 140.434959 146.696706 
L 140.687737 146.696706 
L 140.687737 145.578342 
L 140.936852 145.578342 
L 140.998571 142.78243 
L 141.303883 142.78243 
L 141.303883 142.223248 
L 141.424506 142.223248 
L 141.424506 139.986519 
L 141.72241 139.986519 
L 141.72241 138.868155 
L 141.84014 138.868155 
L 141.84014 138.308973 
L 142.303162 138.308973 
L 142.360172 134.394697 
L 142.473629 134.394697 
L 142.473629 132.157968 
L 143.139078 132.157968 
L 143.139078 130.480421 
L 143.674593 130.480421 
L 143.674593 128.802874 
L 143.832047 128.802874 
L 143.832047 128.243692 
L 143.988072 128.243692 
L 143.988072 126.566145 
L 144.747635 126.566145 
L 144.84642 124.888599 
L 145.042304 124.888599 
L 145.139415 123.211052 
L 145.187766 123.211052 
L 145.187766 122.65187 
L 145.663936 122.65187 
L 145.710835 120.415141 
L 145.943432 120.415141 
L 146.035596 119.296776 
L 146.127269 119.296776 
L 146.127269 116.500865 
L 146.263868 116.500865 
L 146.263868 115.382501 
L 146.444328 115.382501 
L 146.444328 114.823318 
L 146.622913 114.823318 
L 146.622913 114.264136 
L 146.755644 114.264136 
L 146.799661 113.145772 
L 146.974611 113.145772 
L 146.974611 112.027407 
L 147.446737 112.027407 
L 147.489022 109.790678 
L 147.57328 109.790678 
L 147.57328 109.231496 
L 147.698898 109.231496 
L 147.782136 105.876403 
L 148.029459 105.876403 
L 148.029459 104.758038 
L 148.192385 104.758038 
L 148.192385 104.198856 
L 148.473843 104.198856 
L 148.473843 103.080491 
L 148.789965 103.080491 
L 148.789965 102.521309 
L 149.023298 102.521309 
L 149.061881 101.402945 
L 149.177112 101.402945 
L 149.253506 95.811122 
L 149.329562 95.811122 
L 149.367465 94.692758 
L 149.443019 94.692758 
L 149.443019 94.133576 
L 149.593139 94.133576 
L 149.593139 93.574393 
L 149.889502 93.574393 
L 149.889502 92.456029 
L 150.252912 92.456029 
L 150.288834 86.864206 
L 150.538207 86.864206 
L 150.643983 85.18666 
L 150.749113 85.18666 
L 150.853603 76.239744 
L 150.991943 76.239744 
L 151.060698 75.121379 
L 151.163317 75.121379 
L 151.163317 74.562197 
L 151.366735 74.562197 
L 151.400405 72.325468 
L 151.930347 72.325468 
L 151.962932 67.292828 
L 152.092658 67.292828 
L 152.157156 64.496917 
L 152.633326 64.496917 
L 152.633326 62.260188 
L 152.789162 62.260188 
L 152.789162 60.023459 
L 152.97432 60.023459 
L 153.066156 57.78673 
L 153.157504 57.78673 
L 153.218134 51.076543 
L 153.338757 51.076543 
L 153.428671 47.72145 
L 153.488354 47.72145 
L 153.488354 47.162267 
L 153.754391 47.162267 
L 153.812956 46.043903 
L 153.871321 46.043903 
L 153.90043 43.807174 
L 154.045238 43.807174 
L 154.045238 42.688809 
L 154.751526 42.688809 
L 154.751526 42.129627 
L 154.916803 42.129627 
L 155.026111 40.45208 
L 155.107638 40.45208 
L 155.134728 38.774534 
L 155.242663 38.774534 
L 155.323172 35.978622 
L 155.641489 35.978622 
L 155.641489 34.860258 
L 155.798464 34.860258 
L 155.824488 32.064347 
L 156.031271 32.064347 
L 156.133737 30.945982 
L 156.311596 30.945982 
L 156.387261 28.709253 
L 156.587422 28.709253 
L 156.661886 25.913342 
L 156.711349 25.913342 
L 156.760671 24.235795 
L 156.88336 24.235795 
L 156.907793 21.999066 
L 157.150232 21.999066 
L 157.198312 19.203155 
L 157.484002 19.203155 
L 157.554689 17.525609 
L 157.601653 17.525609 
L 157.601653 16.966426 
L 157.718503 16.966426 
L 157.765022 13.052151 
L 158.04152 13.052151 
L 158.04152 11.933786 
L 158.155428 11.933786 
L 158.155428 11.374604 
L 158.514942 11.374604 
L 158.514942 10.815422 
L 159.105074 10.815422 
L 159.105074 10.256239 
L 159.717134 10.256239 
L 159.717134 9.697057 
L 333.168 9.697057 
L 333.168 9.697057 
" style="fill:none;stroke:#ff0000;stroke-linecap:square;stroke-width:1.5;"/>
   </g>
   <g id="line2d_55">
    <defs>
     <path d="M 0 -6 
L -5.196152 -3 
L -5.196152 3 
L -0 6 
L 5.196152 3 
L 5.196152 -3 
z
" id="m3307be409e" style="stroke:#ff0000;stroke-linejoin:miter;stroke-width:1.5;"/>
    </defs>
    <g>
     <use style="fill-opacity:0;stroke:#ff0000;stroke-linejoin:miter;stroke-width:1.5;" x="79.948502" xlink:href="#m3307be409e" y="241.198505"/>
     <use style="fill-opacity:0;stroke:#ff0000;stroke-linejoin:miter;stroke-width:1.5;" x="145.710835" xlink:href="#m3307be409e" y="121.533505"/>
     <use style="fill-opacity:0;stroke:#ff0000;stroke-linejoin:miter;stroke-width:1.5;" x="159.717134" xlink:href="#m3307be409e" y="10.256239"/>
     <use style="fill-opacity:0;stroke:#ff0000;stroke-linejoin:miter;stroke-width:1.5;" x="159.717134" xlink:href="#m3307be409e" y="9.697057"/>
     <use style="fill-opacity:0;stroke:#ff0000;stroke-linejoin:miter;stroke-width:1.5;" x="159.717134" xlink:href="#m3307be409e" y="9.697057"/>
     <use style="fill-opacity:0;stroke:#ff0000;stroke-linejoin:miter;stroke-width:1.5;" x="333.168" xlink:href="#m3307be409e" y="9.697057"/>
    </g>
   </g>
   <g id="line2d_56">
    <path style="fill:none;stroke:#ff0000;stroke-linecap:square;stroke-width:1.5;"/>
    <g/>
   </g>
   <g id="line2d_57">
    <path d="M 333.168 9.697057 
L 363.64328 289.176341 
" style="fill:none;stroke:#000080;stroke-linecap:square;stroke-width:1.5;"/>
    <g>
     <use style="fill-opacity:0;stroke:#000080;stroke-width:1.5;" x="333.168" xlink:href="#m9b216d31f0" y="9.697057"/>
     <use style="fill-opacity:0;stroke:#000080;stroke-width:1.5;" x="363.64328" xlink:href="#m9b216d31f0" y="289.176341"/>
    </g>
   </g>
   <g id="line2d_58">
    <path d="M 333.168 9.697057 
L 363.64328 220.732435 
" style="fill:none;stroke:#ff00ff;stroke-linecap:square;stroke-width:1.5;"/>
    <g>
     <use style="fill-opacity:0;stroke:#ff00ff;stroke-linejoin:miter;stroke-width:1.5;" x="333.168" xlink:href="#md09288b976" y="9.697057"/>
     <use style="fill-opacity:0;stroke:#ff00ff;stroke-linejoin:miter;stroke-width:1.5;" x="363.64328" xlink:href="#md09288b976" y="220.732435"/>
    </g>
   </g>
   <g id="line2d_59">
    <path d="M 333.168 9.697057 
L 363.64328 152.288529 
" style="fill:none;stroke:#ff0000;stroke-linecap:square;stroke-width:1.5;"/>
    <g>
     <use style="fill-opacity:0;stroke:#ff0000;stroke-linejoin:miter;stroke-width:1.5;" x="333.168" xlink:href="#m3307be409e" y="9.697057"/>
     <use style="fill-opacity:0;stroke:#ff0000;stroke-linejoin:miter;stroke-width:1.5;" x="363.64328" xlink:href="#m3307be409e" y="152.288529"/>
    </g>
   </g>
   <g id="line2d_60">
    <path d="M 333.168 9.697057 
L 363.64328 83.844622 
" style="fill:none;stroke:#ff7500;stroke-linecap:square;stroke-width:1.5;"/>
    <g>
     <use style="fill-opacity:0;stroke:#ff7500;stroke-linejoin:bevel;stroke-width:1.5;" x="333.168" xlink:href="#m8f9446ec40" y="9.697057"/>
     <use style="fill-opacity:0;stroke:#ff7500;stroke-linejoin:bevel;stroke-width:1.5;" x="363.64328" xlink:href="#m8f9446ec40" y="83.844622"/>
    </g>
   </g>
   <g id="line2d_61">
    <path d="M 333.168 9.697057 
L 363.64328 15.400716 
" style="fill:none;stroke:#6495ed;stroke-linecap:square;stroke-width:1.5;"/>
    <g>
     <use style="fill-opacity:0;stroke:#6495ed;stroke-linejoin:miter;stroke-width:1.5;" x="333.168" xlink:href="#mb8b2b0337a" y="9.697057"/>
     <use style="fill-opacity:0;stroke:#6495ed;stroke-linejoin:miter;stroke-width:1.5;" x="363.64328" xlink:href="#mb8b2b0337a" y="15.400716"/>
    </g>
   </g>
   <g id="line2d_62">
    <path d="M 333.168 294.88 
L 333.168 9.697057 
" style="fill:none;stroke:#000000;stroke-linecap:square;stroke-width:1.5;"/>
   </g>
   <g id="patch_3">
    <path d="M 56.12 294.88 
L 56.12 6.845228 
" style="fill:none;stroke:#000000;stroke-linecap:square;stroke-linejoin:miter;stroke-width:0.8;"/>
   </g>
   <g id="patch_4">
    <path d="M 333.168 294.88 
L 333.168 6.845228 
" style="fill:none;stroke:#000000;stroke-linecap:square;stroke-linejoin:miter;stroke-width:0.8;"/>
   </g>
   <g id="patch_5">
    <path d="M 56.12 294.88 
L 333.168 294.88 
" style="fill:none;stroke:#000000;stroke-linecap:square;stroke-linejoin:miter;stroke-width:0.8;"/>
   </g>
   <g id="patch_6">
    <path d="M 56.12 6.845228 
L 333.168 6.845228 
" style="fill:none;stroke:#000000;stroke-linecap:square;stroke-linejoin:miter;stroke-width:0.8;"/>
   </g>
   <g id="text_13">
    <!-- f12 -->
    <g transform="translate(369.18424 293.867279)scale(0.17 -0.17)">
     <use xlink:href="#DejaVuSans-66"/>
     <use x="35.205078" xlink:href="#DejaVuSans-31"/>
     <use x="98.828125" xlink:href="#DejaVuSans-32"/>
    </g>
   </g>
   <g id="text_14">
    <!-- f13 -->
    <defs>
     <path d="M 40.578125 39.3125 
Q 47.65625 37.796875 51.625 33 
Q 55.609375 28.21875 55.609375 21.1875 
Q 55.609375 10.40625 48.1875 4.484375 
Q 40.765625 -1.421875 27.09375 -1.421875 
Q 22.515625 -1.421875 17.65625 -0.515625 
Q 12.796875 0.390625 7.625 2.203125 
L 7.625 11.71875 
Q 11.71875 9.328125 16.59375 8.109375 
Q 21.484375 6.890625 26.8125 6.890625 
Q 36.078125 6.890625 40.9375 10.546875 
Q 45.796875 14.203125 45.796875 21.1875 
Q 45.796875 27.640625 41.28125 31.265625 
Q 36.765625 34.90625 28.71875 34.90625 
L 20.21875 34.90625 
L 20.21875 43.015625 
L 29.109375 43.015625 
Q 36.375 43.015625 40.234375 45.921875 
Q 44.09375 48.828125 44.09375 54.296875 
Q 44.09375 59.90625 40.109375 62.90625 
Q 36.140625 65.921875 28.71875 65.921875 
Q 24.65625 65.921875 20.015625 65.03125 
Q 15.375 64.15625 9.8125 62.3125 
L 9.8125 71.09375 
Q 15.4375 72.65625 20.34375 73.4375 
Q 25.25 74.21875 29.59375 74.21875 
Q 40.828125 74.21875 47.359375 69.109375 
Q 53.90625 64.015625 53.90625 55.328125 
Q 53.90625 49.265625 50.4375 45.09375 
Q 46.96875 40.921875 40.578125 39.3125 
z
" id="DejaVuSans-33"/>
    </defs>
    <g transform="translate(369.18424 225.423372)scale(0.17 -0.17)">
     <use xlink:href="#DejaVuSans-66"/>
     <use x="35.205078" xlink:href="#DejaVuSans-31"/>
     <use x="98.828125" xlink:href="#DejaVuSans-33"/>
    </g>
   </g>
   <g id="text_15">
    <!-- f14 -->
    <g transform="translate(369.18424 156.979466)scale(0.17 -0.17)">
     <use xlink:href="#DejaVuSans-66"/>
     <use x="35.205078" xlink:href="#DejaVuSans-31"/>
     <use x="98.828125" xlink:href="#DejaVuSans-34"/>
    </g>
   </g>
   <g id="text_16">
    <!-- f10 -->
    <g transform="translate(369.18424 88.53556)scale(0.17 -0.17)">
     <use xlink:href="#DejaVuSans-66"/>
     <use x="35.205078" xlink:href="#DejaVuSans-31"/>
     <use x="98.828125" xlink:href="#DejaVuSans-30"/>
    </g>
   </g>
   <g id="text_17">
    <!-- f11 -->
    <g transform="translate(369.18424 20.091654)scale(0.17 -0.17)">
     <use xlink:href="#DejaVuSans-66"/>
     <use x="35.205078" xlink:href="#DejaVuSans-31"/>
     <use x="98.828125" xlink:href="#DejaVuSans-31"/>
    </g>
   </g>
   <g id="text_18">
    <!-- bbob -->
    <defs>
     <path d="M 48.6875 27.296875 
Q 48.6875 37.203125 44.609375 42.84375 
Q 40.53125 48.484375 33.40625 48.484375 
Q 26.265625 48.484375 22.1875 42.84375 
Q 18.109375 37.203125 18.109375 27.296875 
Q 18.109375 17.390625 22.1875 11.75 
Q 26.265625 6.109375 33.40625 6.109375 
Q 40.53125 6.109375 44.609375 11.75 
Q 48.6875 17.390625 48.6875 27.296875 
z
M 18.109375 46.390625 
Q 20.953125 51.265625 25.265625 53.625 
Q 29.59375 56 35.59375 56 
Q 45.5625 56 51.78125 48.09375 
Q 58.015625 40.1875 58.015625 27.296875 
Q 58.015625 14.40625 51.78125 6.484375 
Q 45.5625 -1.421875 35.59375 -1.421875 
Q 29.59375 -1.421875 25.265625 0.953125 
Q 20.953125 3.328125 18.109375 8.203125 
L 18.109375 0 
L 9.078125 0 
L 9.078125 75.984375 
L 18.109375 75.984375 
z
" id="DejaVuSans-62"/>
    </defs>
    <g transform="translate(58.89048 17.475982)scale(0.102 -0.102)">
     <use xlink:href="#DejaVuSans-62"/>
     <use x="63.476562" xlink:href="#DejaVuSans-62"/>
     <use x="126.953125" xlink:href="#DejaVuSans-6f"/>
     <use x="188.134766" xlink:href="#DejaVuSans-62"/>
    </g>
    <!-- Ill-conditioned functions, 2-D -->
    <defs>
     <path d="M 9.8125 72.90625 
L 19.671875 72.90625 
L 19.671875 0 
L 9.8125 0 
z
" id="DejaVuSans-49"/>
     <path d="M 19.671875 64.796875 
L 19.671875 8.109375 
L 31.59375 8.109375 
Q 46.6875 8.109375 53.6875 14.9375 
Q 60.6875 21.78125 60.6875 36.53125 
Q 60.6875 51.171875 53.6875 57.984375 
Q 46.6875 64.796875 31.59375 64.796875 
z
M 9.8125 72.90625 
L 30.078125 72.90625 
Q 51.265625 72.90625 61.171875 64.09375 
Q 71.09375 55.28125 71.09375 36.53125 
Q 71.09375 17.671875 61.125 8.828125 
Q 51.171875 0 30.078125 0 
L 9.8125 0 
z
" id="DejaVuSans-44"/>
    </defs>
    <g transform="translate(58.89048 28.89775)scale(0.102 -0.102)">
     <use xlink:href="#DejaVuSans-49"/>
     <use x="29.492188" xlink:href="#DejaVuSans-6c"/>
     <use x="57.275391" xlink:href="#DejaVuSans-6c"/>
     <use x="85.058594" xlink:href="#DejaVuSans-2d"/>
     <use x="121.142578" xlink:href="#DejaVuSans-63"/>
     <use x="176.123047" xlink:href="#DejaVuSans-6f"/>
     <use x="237.304688" xlink:href="#DejaVuSans-6e"/>
     <use x="300.683594" xlink:href="#DejaVuSans-64"/>
     <use x="364.160156" xlink:href="#DejaVuSans-69"/>
     <use x="391.943359" xlink:href="#DejaVuSans-74"/>
     <use x="431.152344" xlink:href="#DejaVuSans-69"/>
     <use x="458.935547" xlink:href="#DejaVuSans-6f"/>
     <use x="520.117188" xlink:href="#DejaVuSans-6e"/>
     <use x="583.496094" xlink:href="#DejaVuSans-65"/>
     <use x="645.019531" xlink:href="#DejaVuSans-64"/>
     <use x="708.496094" xlink:href="#DejaVuSans-20"/>
     <use x="740.283203" xlink:href="#DejaVuSans-66"/>
     <use x="775.488281" xlink:href="#DejaVuSans-75"/>
     <use x="838.867188" xlink:href="#DejaVuSans-6e"/>
     <use x="902.246094" xlink:href="#DejaVuSans-63"/>
     <use x="957.226562" xlink:href="#DejaVuSans-74"/>
     <use x="996.435547" xlink:href="#DejaVuSans-69"/>
     <use x="1024.21875" xlink:href="#DejaVuSans-6f"/>
     <use x="1085.400391" xlink:href="#DejaVuSans-6e"/>
     <use x="1148.779297" xlink:href="#DejaVuSans-73"/>
     <use x="1200.878906" xlink:href="#DejaVuSans-2c"/>
     <use x="1232.666016" xlink:href="#DejaVuSans-20"/>
     <use x="1264.453125" xlink:href="#DejaVuSans-32"/>
     <use x="1328.076172" xlink:href="#DejaVuSans-2d"/>
     <use x="1364.160156" xlink:href="#DejaVuSans-44"/>
    </g>
    <!-- 51 targets: 100..1e-08 -->
    <defs>
     <path d="M 10.796875 72.90625 
L 49.515625 72.90625 
L 49.515625 64.59375 
L 19.828125 64.59375 
L 19.828125 46.734375 
Q 21.96875 47.46875 24.109375 47.828125 
Q 26.265625 48.1875 28.421875 48.1875 
Q 40.625 48.1875 47.75 41.5 
Q 54.890625 34.8125 54.890625 23.390625 
Q 54.890625 11.625 47.5625 5.09375 
Q 40.234375 -1.421875 26.90625 -1.421875 
Q 22.3125 -1.421875 17.546875 -0.640625 
Q 12.796875 0.140625 7.71875 1.703125 
L 7.71875 11.625 
Q 12.109375 9.234375 16.796875 8.0625 
Q 21.484375 6.890625 26.703125 6.890625 
Q 35.15625 6.890625 40.078125 11.328125 
Q 45.015625 15.765625 45.015625 23.390625 
Q 45.015625 31 40.078125 35.4375 
Q 35.15625 39.890625 26.703125 39.890625 
Q 22.75 39.890625 18.8125 39.015625 
Q 14.890625 38.140625 10.796875 36.28125 
z
" id="DejaVuSans-35"/>
     <path d="M 11.71875 12.40625 
L 22.015625 12.40625 
L 22.015625 0 
L 11.71875 0 
z
M 11.71875 51.703125 
L 22.015625 51.703125 
L 22.015625 39.3125 
L 11.71875 39.3125 
z
" id="DejaVuSans-3a"/>
    </defs>
    <g transform="translate(58.89048 40.319519)scale(0.102 -0.102)">
     <use xlink:href="#DejaVuSans-35"/>
     <use x="63.623047" xlink:href="#DejaVuSans-31"/>
     <use x="127.246094" xlink:href="#DejaVuSans-20"/>
     <use x="159.033203" xlink:href="#DejaVuSans-74"/>
     <use x="198.242188" xlink:href="#DejaVuSans-61"/>
     <use x="259.521484" xlink:href="#DejaVuSans-72"/>
     <use x="300.619141" xlink:href="#DejaVuSans-67"/>
     <use x="364.095703" xlink:href="#DejaVuSans-65"/>
     <use x="425.619141" xlink:href="#DejaVuSans-74"/>
     <use x="464.828125" xlink:href="#DejaVuSans-73"/>
     <use x="516.927734" xlink:href="#DejaVuSans-3a"/>
     <use x="550.619141" xlink:href="#DejaVuSans-20"/>
     <use x="582.40625" xlink:href="#DejaVuSans-31"/>
     <use x="646.029297" xlink:href="#DejaVuSans-30"/>
     <use x="709.652344" xlink:href="#DejaVuSans-30"/>
     <use x="773.275391" xlink:href="#DejaVuSans-2e"/>
     <use x="805.0625" xlink:href="#DejaVuSans-2e"/>
     <use x="836.849609" xlink:href="#DejaVuSans-31"/>
     <use x="900.472656" xlink:href="#DejaVuSans-65"/>
     <use x="961.996094" xlink:href="#DejaVuSans-2d"/>
     <use x="998.080078" xlink:href="#DejaVuSans-30"/>
     <use x="1061.703125" xlink:href="#DejaVuSans-38"/>
    </g>
    <!-- 15 instances -->
    <g transform="translate(58.89048 51.741288)scale(0.102 -0.102)">
     <use xlink:href="#DejaVuSans-31"/>
     <use x="63.623047" xlink:href="#DejaVuSans-35"/>
     <use x="127.246094" xlink:href="#DejaVuSans-20"/>
     <use x="159.033203" xlink:href="#DejaVuSans-69"/>
     <use x="186.816406" xlink:href="#DejaVuSans-6e"/>
     <use x="250.195312" xlink:href="#DejaVuSans-73"/>
     <use x="302.294922" xlink:href="#DejaVuSans-74"/>
     <use x="341.503906" xlink:href="#DejaVuSans-61"/>
     <use x="402.783203" xlink:href="#DejaVuSans-6e"/>
     <use x="466.162109" xlink:href="#DejaVuSans-63"/>
     <use x="521.142578" xlink:href="#DejaVuSans-65"/>
     <use x="582.666016" xlink:href="#DejaVuSans-73"/>
    </g>
   </g>
   <g id="text_19">
    <!-- v2.4 -->
    <g style="fill:#808080;" transform="translate(183.733063 289.919965)scale(0.1 -0.1)">
     <use xlink:href="#DejaVuSans-76"/>
     <use x="59.179688" xlink:href="#DejaVuSans-32"/>
     <use x="122.802734" xlink:href="#DejaVuSans-2e"/>
     <use x="154.589844" xlink:href="#DejaVuSans-34"/>
    </g>
   </g>
  </g>
 </g>
 <defs>
  <clipPath id="p2ed01d26f1">
   <rect height="288.034772" width="277.048" x="56.12" y="6.845228"/>
  </clipPath>
 </defs>
</svg>
