<?xml version="1.0" encoding="utf-8" standalone="no"?>
<!DOCTYPE svg PUBLIC "-//W3C//DTD SVG 1.1//EN"
  "http://www.w3.org/Graphics/SVG/1.1/DTD/svg11.dtd">
<!-- Created with matplotlib (http://matplotlib.org/) -->
<svg height="345.6pt" version="1.1" viewBox="0 0 460.8 345.6" width="460.8pt" xmlns="http://www.w3.org/2000/svg" xmlns:xlink="http://www.w3.org/1999/xlink">
 <defs>
  <style type="text/css">
*{stroke-linecap:butt;stroke-linejoin:round;}
  </style>
 </defs>
 <g id="figure_1">
  <g id="patch_1">
   <path d="M 0 345.6 
L 460.8 345.6 
L 460.8 0 
L 0 0 
z
" style="fill:#ffffff;"/>
  </g>
  <g id="axes_1">
   <g id="patch_2">
    <path d="M 56.12 294.88 
L 333.168 294.88 
L 333.168 24.84 
L 56.12 24.84 
z
" style="fill:#ffffff;"/>
   </g>
   <g id="line2d_1">
    <path d="M 105.801534 294.88 
L 105.801534 289.637523 
L 106.730875 289.637523 
L 106.730875 284.395046 
L 107.612537 284.395046 
L 107.612537 279.152568 
L 111.900428 279.152568 
L 111.900428 273.910091 
L 114.771859 273.910091 
L 114.771859 268.667614 
L 118.645127 268.667614 
L 118.645127 263.425137 
L 120.0904 263.425137 
L 120.0904 258.18266 
L 121.294766 258.18266 
L 121.294766 252.940182 
L 121.678171 252.940182 
L 121.678171 247.697705 
L 123.131597 247.697705 
L 123.131597 242.455228 
L 123.589988 242.455228 
L 123.589988 237.212751 
L 123.925932 237.212751 
L 123.925932 231.970274 
L 124.255437 231.970274 
L 124.255437 226.727797 
L 124.471649 226.727797 
L 124.471649 221.485319 
L 125.000572 221.485319 
L 125.000572 216.242842 
L 125.310285 216.242842 
L 125.310285 211.000365 
L 125.714742 211.000365 
L 125.714742 205.757888 
L 125.913457 205.757888 
L 125.913457 200.515411 
L 126.109901 200.515411 
L 126.109901 195.272933 
L 126.304124 195.272933 
L 126.304124 190.030456 
L 126.496178 190.030456 
L 126.496178 184.787979 
L 126.967129 184.787979 
L 126.967129 179.545502 
L 127.151955 179.545502 
L 127.151955 174.303025 
L 127.42552 174.303025 
L 127.42552 169.060547 
L 127.605507 169.060547 
L 127.605507 163.81807 
L 127.783629 163.81807 
L 127.783629 158.575593 
L 127.959924 158.575593 
L 127.959924 153.333116 
L 128.221023 153.333116 
L 128.221023 148.090639 
L 128.478214 148.090639 
L 128.478214 142.848162 
L 128.647561 142.848162 
L 128.647561 137.605684 
L 128.898495 137.605684 
L 128.898495 132.363207 
L 129.063771 132.363207 
L 129.063771 127.12073 
L 129.308744 127.12073 
L 129.308744 121.878253 
L 129.470141 121.878253 
L 129.470141 116.635776 
L 129.630036 116.635776 
L 129.630036 111.393298 
L 129.788458 111.393298 
L 129.788458 106.150821 
L 129.945433 106.150821 
L 129.945433 100.908344 
L 130.255146 100.908344 
L 130.255146 95.665867 
L 130.407935 95.665867 
L 130.407935 90.42339 
L 130.559378 90.42339 
L 130.559378 85.180912 
L 130.709498 85.180912 
L 130.709498 79.938435 
L 130.858318 79.938435 
L 130.858318 74.695958 
L 131.07916 74.695958 
L 131.07916 69.453481 
L 131.224827 69.453481 
L 131.224827 64.211004 
L 131.441039 64.211004 
L 131.441039 58.968526 
L 131.583684 58.968526 
L 131.583684 53.726049 
L 131.725155 53.726049 
L 131.725155 48.483572 
L 131.865471 48.483572 
L 131.865471 43.241095 
L 132.073821 43.241095 
L 132.073821 37.998618 
L 132.279675 37.998618 
L 132.279675 32.756141 
L 132.415555 32.756141 
L 132.415555 27.513663 
L 333.168 27.513663 
" style="fill:none;stroke:#f5deb3;stroke-linecap:square;stroke-width:4;"/>
   </g>
   <g id="line2d_2">
    <defs>
     <path d="M -0 7.778175 
L 7.778175 0 
L 0 -7.778175 
L -7.778175 -0 
z
" id="m3b463c6907" style="stroke:#f5deb3;stroke-linejoin:miter;stroke-width:1.5;"/>
    </defs>
    <g>
     <use style="fill:#f5deb3;stroke:#f5deb3;stroke-linejoin:miter;stroke-width:1.5;" x="128.647561" xlink:href="#m3b463c6907" y="137.605684"/>
     <use style="fill:#f5deb3;stroke:#f5deb3;stroke-linejoin:miter;stroke-width:1.5;" x="132.415555" xlink:href="#m3b463c6907" y="32.756141"/>
     <use style="fill:#f5deb3;stroke:#f5deb3;stroke-linejoin:miter;stroke-width:1.5;" x="132.415555" xlink:href="#m3b463c6907" y="27.513663"/>
     <use style="fill:#f5deb3;stroke:#f5deb3;stroke-linejoin:miter;stroke-width:1.5;" x="132.415555" xlink:href="#m3b463c6907" y="27.513663"/>
     <use style="fill:#f5deb3;stroke:#f5deb3;stroke-linejoin:miter;stroke-width:1.5;" x="333.168" xlink:href="#m3b463c6907" y="27.513663"/>
    </g>
   </g>
   <g id="line2d_3">
    <path style="fill:none;stroke:#f5deb3;stroke-linecap:square;stroke-width:4;"/>
    <g/>
   </g>
   <g id="line2d_4">
    <path d="M 333.168 27.513663 
L 363.64328 32.86099 
" style="fill:none;stroke:#f5deb3;stroke-linecap:square;stroke-width:4;"/>
    <g>
     <use style="fill:#f5deb3;stroke:#f5deb3;stroke-linejoin:miter;stroke-width:1.5;" x="333.168" xlink:href="#m3b463c6907" y="27.513663"/>
     <use style="fill:#f5deb3;stroke:#f5deb3;stroke-linejoin:miter;stroke-width:1.5;" x="363.64328" xlink:href="#m3b463c6907" y="32.86099"/>
    </g>
   </g>
   <g id="matplotlib.axis_1">
    <g id="xtick_1">
     <g id="line2d_5">
      <path clip-path="url(#pa2deef7b72)" d="M 56.12 294.88 
L 56.12 24.84 
" style="fill:none;stroke:#b0b0b0;stroke-linecap:square;stroke-width:0.8;"/>
     </g>
     <g id="line2d_6">
      <defs>
       <path d="M 0 0 
L 0 3.5 
" id="m1cc5d45365" style="stroke:#000000;stroke-width:0.8;"/>
      </defs>
      <g>
       <use style="stroke:#000000;stroke-width:0.8;" x="56.12" xlink:href="#m1cc5d45365" y="294.88"/>
      </g>
     </g>
     <g id="text_1">
      <!-- 0 -->
      <defs>
       <path d="M 31.78125 66.40625 
Q 24.171875 66.40625 20.328125 58.90625 
Q 16.5 51.421875 16.5 36.375 
Q 16.5 21.390625 20.328125 13.890625 
Q 24.171875 6.390625 31.78125 6.390625 
Q 39.453125 6.390625 43.28125 13.890625 
Q 47.125 21.390625 47.125 36.375 
Q 47.125 51.421875 43.28125 58.90625 
Q 39.453125 66.40625 31.78125 66.40625 
z
M 31.78125 74.21875 
Q 44.046875 74.21875 50.515625 64.515625 
Q 56.984375 54.828125 56.984375 36.375 
Q 56.984375 17.96875 50.515625 8.265625 
Q 44.046875 -1.421875 31.78125 -1.421875 
Q 19.53125 -1.421875 13.0625 8.265625 
Q 6.59375 17.96875 6.59375 36.375 
Q 6.59375 54.828125 13.0625 64.515625 
Q 19.53125 74.21875 31.78125 74.21875 
z
" id="DejaVuSans-30"/>
      </defs>
      <g transform="translate(49.7575 317.076875)scale(0.2 -0.2)">
       <use xlink:href="#DejaVuSans-30"/>
      </g>
     </g>
    </g>
    <g id="xtick_2">
     <g id="line2d_7">
      <path clip-path="url(#pa2deef7b72)" d="M 135.276571 294.88 
L 135.276571 24.84 
" style="fill:none;stroke:#b0b0b0;stroke-linecap:square;stroke-width:0.8;"/>
     </g>
     <g id="line2d_8">
      <g>
       <use style="stroke:#000000;stroke-width:0.8;" x="135.276571" xlink:href="#m1cc5d45365" y="294.88"/>
      </g>
     </g>
     <g id="text_2">
      <!-- 2 -->
      <defs>
       <path d="M 19.1875 8.296875 
L 53.609375 8.296875 
L 53.609375 0 
L 7.328125 0 
L 7.328125 8.296875 
Q 12.9375 14.109375 22.625 23.890625 
Q 32.328125 33.6875 34.8125 36.53125 
Q 39.546875 41.84375 41.421875 45.53125 
Q 43.3125 49.21875 43.3125 52.78125 
Q 43.3125 58.59375 39.234375 62.25 
Q 35.15625 65.921875 28.609375 65.921875 
Q 23.96875 65.921875 18.8125 64.3125 
Q 13.671875 62.703125 7.8125 59.421875 
L 7.8125 69.390625 
Q 13.765625 71.78125 18.9375 73 
Q 24.125 74.21875 28.421875 74.21875 
Q 39.75 74.21875 46.484375 68.546875 
Q 53.21875 62.890625 53.21875 53.421875 
Q 53.21875 48.921875 51.53125 44.890625 
Q 49.859375 40.875 45.40625 35.40625 
Q 44.1875 33.984375 37.640625 27.21875 
Q 31.109375 20.453125 19.1875 8.296875 
z
" id="DejaVuSans-32"/>
      </defs>
      <g transform="translate(128.914071 317.076875)scale(0.2 -0.2)">
       <use xlink:href="#DejaVuSans-32"/>
      </g>
     </g>
    </g>
    <g id="xtick_3">
     <g id="line2d_9">
      <path clip-path="url(#pa2deef7b72)" d="M 214.433143 294.88 
L 214.433143 24.84 
" style="fill:none;stroke:#b0b0b0;stroke-linecap:square;stroke-width:0.8;"/>
     </g>
     <g id="line2d_10">
      <g>
       <use style="stroke:#000000;stroke-width:0.8;" x="214.433143" xlink:href="#m1cc5d45365" y="294.88"/>
      </g>
     </g>
     <g id="text_3">
      <!-- 4 -->
      <defs>
       <path d="M 37.796875 64.3125 
L 12.890625 25.390625 
L 37.796875 25.390625 
z
M 35.203125 72.90625 
L 47.609375 72.90625 
L 47.609375 25.390625 
L 58.015625 25.390625 
L 58.015625 17.1875 
L 47.609375 17.1875 
L 47.609375 0 
L 37.796875 0 
L 37.796875 17.1875 
L 4.890625 17.1875 
L 4.890625 26.703125 
z
" id="DejaVuSans-34"/>
      </defs>
      <g transform="translate(208.070643 317.076875)scale(0.2 -0.2)">
       <use xlink:href="#DejaVuSans-34"/>
      </g>
     </g>
    </g>
    <g id="xtick_4">
     <g id="line2d_11">
      <path clip-path="url(#pa2deef7b72)" d="M 293.589714 294.88 
L 293.589714 24.84 
" style="fill:none;stroke:#b0b0b0;stroke-linecap:square;stroke-width:0.8;"/>
     </g>
     <g id="line2d_12">
      <g>
       <use style="stroke:#000000;stroke-width:0.8;" x="293.589714" xlink:href="#m1cc5d45365" y="294.88"/>
      </g>
     </g>
     <g id="text_4">
      <!-- 6 -->
      <defs>
       <path d="M 33.015625 40.375 
Q 26.375 40.375 22.484375 35.828125 
Q 18.609375 31.296875 18.609375 23.390625 
Q 18.609375 15.53125 22.484375 10.953125 
Q 26.375 6.390625 33.015625 6.390625 
Q 39.65625 6.390625 43.53125 10.953125 
Q 47.40625 15.53125 47.40625 23.390625 
Q 47.40625 31.296875 43.53125 35.828125 
Q 39.65625 40.375 33.015625 40.375 
z
M 52.59375 71.296875 
L 52.59375 62.3125 
Q 48.875 64.0625 45.09375 64.984375 
Q 41.3125 65.921875 37.59375 65.921875 
Q 27.828125 65.921875 22.671875 59.328125 
Q 17.53125 52.734375 16.796875 39.40625 
Q 19.671875 43.65625 24.015625 45.921875 
Q 28.375 48.1875 33.59375 48.1875 
Q 44.578125 48.1875 50.953125 41.515625 
Q 57.328125 34.859375 57.328125 23.390625 
Q 57.328125 12.15625 50.6875 5.359375 
Q 44.046875 -1.421875 33.015625 -1.421875 
Q 20.359375 -1.421875 13.671875 8.265625 
Q 6.984375 17.96875 6.984375 36.375 
Q 6.984375 53.65625 15.1875 63.9375 
Q 23.390625 74.21875 37.203125 74.21875 
Q 40.921875 74.21875 44.703125 73.484375 
Q 48.484375 72.75 52.59375 71.296875 
z
" id="DejaVuSans-36"/>
      </defs>
      <g transform="translate(287.227214 317.076875)scale(0.2 -0.2)">
       <use xlink:href="#DejaVuSans-36"/>
      </g>
     </g>
    </g>
    <g id="xtick_5">
     <g id="line2d_13">
      <path clip-path="url(#pa2deef7b72)" d="M 56.12 294.88 
L 56.12 24.84 
" style="fill:none;stroke:#b0b0b0;stroke-linecap:square;stroke-width:0.8;"/>
     </g>
     <g id="line2d_14">
      <defs>
       <path d="M 0 0 
L 0 2 
" id="mbcfde26c3a" style="stroke:#000000;stroke-width:0.6;"/>
      </defs>
      <g>
       <use style="stroke:#000000;stroke-width:0.6;" x="56.12" xlink:href="#mbcfde26c3a" y="294.88"/>
      </g>
     </g>
    </g>
    <g id="xtick_6">
     <g id="line2d_15">
      <path clip-path="url(#pa2deef7b72)" d="M 95.698286 294.88 
L 95.698286 24.84 
" style="fill:none;stroke:#b0b0b0;stroke-linecap:square;stroke-width:0.8;"/>
     </g>
     <g id="line2d_16">
      <g>
       <use style="stroke:#000000;stroke-width:0.6;" x="95.698286" xlink:href="#mbcfde26c3a" y="294.88"/>
      </g>
     </g>
    </g>
    <g id="xtick_7">
     <g id="line2d_17">
      <path clip-path="url(#pa2deef7b72)" d="M 135.276571 294.88 
L 135.276571 24.84 
" style="fill:none;stroke:#b0b0b0;stroke-linecap:square;stroke-width:0.8;"/>
     </g>
     <g id="line2d_18">
      <g>
       <use style="stroke:#000000;stroke-width:0.6;" x="135.276571" xlink:href="#mbcfde26c3a" y="294.88"/>
      </g>
     </g>
    </g>
    <g id="xtick_8">
     <g id="line2d_19">
      <path clip-path="url(#pa2deef7b72)" d="M 174.854857 294.88 
L 174.854857 24.84 
" style="fill:none;stroke:#b0b0b0;stroke-linecap:square;stroke-width:0.8;"/>
     </g>
     <g id="line2d_20">
      <g>
       <use style="stroke:#000000;stroke-width:0.6;" x="174.854857" xlink:href="#mbcfde26c3a" y="294.88"/>
      </g>
     </g>
    </g>
    <g id="xtick_9">
     <g id="line2d_21">
      <path clip-path="url(#pa2deef7b72)" d="M 214.433143 294.88 
L 214.433143 24.84 
" style="fill:none;stroke:#b0b0b0;stroke-linecap:square;stroke-width:0.8;"/>
     </g>
     <g id="line2d_22">
      <g>
       <use style="stroke:#000000;stroke-width:0.6;" x="214.433143" xlink:href="#mbcfde26c3a" y="294.88"/>
      </g>
     </g>
    </g>
    <g id="xtick_10">
     <g id="line2d_23">
      <path clip-path="url(#pa2deef7b72)" d="M 254.011429 294.88 
L 254.011429 24.84 
" style="fill:none;stroke:#b0b0b0;stroke-linecap:square;stroke-width:0.8;"/>
     </g>
     <g id="line2d_24">
      <g>
       <use style="stroke:#000000;stroke-width:0.6;" x="254.011429" xlink:href="#mbcfde26c3a" y="294.88"/>
      </g>
     </g>
    </g>
    <g id="xtick_11">
     <g id="line2d_25">
      <path clip-path="url(#pa2deef7b72)" d="M 293.589714 294.88 
L 293.589714 24.84 
" style="fill:none;stroke:#b0b0b0;stroke-linecap:square;stroke-width:0.8;"/>
     </g>
     <g id="line2d_26">
      <g>
       <use style="stroke:#000000;stroke-width:0.6;" x="293.589714" xlink:href="#mbcfde26c3a" y="294.88"/>
      </g>
     </g>
    </g>
    <g id="xtick_12">
     <g id="line2d_27">
      <path clip-path="url(#pa2deef7b72)" d="M 333.168 294.88 
L 333.168 24.84 
" style="fill:none;stroke:#b0b0b0;stroke-linecap:square;stroke-width:0.8;"/>
     </g>
     <g id="line2d_28">
      <g>
       <use style="stroke:#000000;stroke-width:0.6;" x="333.168" xlink:href="#mbcfde26c3a" y="294.88"/>
      </g>
     </g>
    </g>
    <g id="text_5">
     <!-- log10(# f-evals / dimension) -->
     <defs>
      <path d="M 9.421875 75.984375 
L 18.40625 75.984375 
L 18.40625 0 
L 9.421875 0 
z
" id="DejaVuSans-6c"/>
      <path d="M 30.609375 48.390625 
Q 23.390625 48.390625 19.1875 42.75 
Q 14.984375 37.109375 14.984375 27.296875 
Q 14.984375 17.484375 19.15625 11.84375 
Q 23.34375 6.203125 30.609375 6.203125 
Q 37.796875 6.203125 41.984375 11.859375 
Q 46.1875 17.53125 46.1875 27.296875 
Q 46.1875 37.015625 41.984375 42.703125 
Q 37.796875 48.390625 30.609375 48.390625 
z
M 30.609375 56 
Q 42.328125 56 49.015625 48.375 
Q 55.71875 40.765625 55.71875 27.296875 
Q 55.71875 13.875 49.015625 6.21875 
Q 42.328125 -1.421875 30.609375 -1.421875 
Q 18.84375 -1.421875 12.171875 6.21875 
Q 5.515625 13.875 5.515625 27.296875 
Q 5.515625 40.765625 12.171875 48.375 
Q 18.84375 56 30.609375 56 
z
" id="DejaVuSans-6f"/>
      <path d="M 45.40625 27.984375 
Q 45.40625 37.75 41.375 43.109375 
Q 37.359375 48.484375 30.078125 48.484375 
Q 22.859375 48.484375 18.828125 43.109375 
Q 14.796875 37.75 14.796875 27.984375 
Q 14.796875 18.265625 18.828125 12.890625 
Q 22.859375 7.515625 30.078125 7.515625 
Q 37.359375 7.515625 41.375 12.890625 
Q 45.40625 18.265625 45.40625 27.984375 
z
M 54.390625 6.78125 
Q 54.390625 -7.171875 48.1875 -13.984375 
Q 42 -20.796875 29.203125 -20.796875 
Q 24.46875 -20.796875 20.265625 -20.09375 
Q 16.0625 -19.390625 12.109375 -17.921875 
L 12.109375 -9.1875 
Q 16.0625 -11.328125 19.921875 -12.34375 
Q 23.78125 -13.375 27.78125 -13.375 
Q 36.625 -13.375 41.015625 -8.765625 
Q 45.40625 -4.15625 45.40625 5.171875 
L 45.40625 9.625 
Q 42.625 4.78125 38.28125 2.390625 
Q 33.9375 0 27.875 0 
Q 17.828125 0 11.671875 7.65625 
Q 5.515625 15.328125 5.515625 27.984375 
Q 5.515625 40.671875 11.671875 48.328125 
Q 17.828125 56 27.875 56 
Q 33.9375 56 38.28125 53.609375 
Q 42.625 51.21875 45.40625 46.390625 
L 45.40625 54.6875 
L 54.390625 54.6875 
z
" id="DejaVuSans-67"/>
      <path d="M 12.40625 8.296875 
L 28.515625 8.296875 
L 28.515625 63.921875 
L 10.984375 60.40625 
L 10.984375 69.390625 
L 28.421875 72.90625 
L 38.28125 72.90625 
L 38.28125 8.296875 
L 54.390625 8.296875 
L 54.390625 0 
L 12.40625 0 
z
" id="DejaVuSans-31"/>
      <path d="M 31 75.875 
Q 24.46875 64.65625 21.28125 53.65625 
Q 18.109375 42.671875 18.109375 31.390625 
Q 18.109375 20.125 21.3125 9.0625 
Q 24.515625 -2 31 -13.1875 
L 23.1875 -13.1875 
Q 15.875 -1.703125 12.234375 9.375 
Q 8.59375 20.453125 8.59375 31.390625 
Q 8.59375 42.28125 12.203125 53.3125 
Q 15.828125 64.359375 23.1875 75.875 
z
" id="DejaVuSans-28"/>
      <path d="M 51.125 44 
L 36.921875 44 
L 32.8125 27.6875 
L 47.125 27.6875 
z
M 43.796875 71.78125 
L 38.71875 51.515625 
L 52.984375 51.515625 
L 58.109375 71.78125 
L 65.921875 71.78125 
L 60.890625 51.515625 
L 76.125 51.515625 
L 76.125 44 
L 58.984375 44 
L 54.984375 27.6875 
L 70.515625 27.6875 
L 70.515625 20.21875 
L 53.078125 20.21875 
L 48 0 
L 40.1875 0 
L 45.21875 20.21875 
L 30.90625 20.21875 
L 25.875 0 
L 18.015625 0 
L 23.09375 20.21875 
L 7.71875 20.21875 
L 7.71875 27.6875 
L 24.90625 27.6875 
L 29 44 
L 13.28125 44 
L 13.28125 51.515625 
L 30.90625 51.515625 
L 35.890625 71.78125 
z
" id="DejaVuSans-23"/>
      <path id="DejaVuSans-20"/>
      <path d="M 37.109375 75.984375 
L 37.109375 68.5 
L 28.515625 68.5 
Q 23.6875 68.5 21.796875 66.546875 
Q 19.921875 64.59375 19.921875 59.515625 
L 19.921875 54.6875 
L 34.71875 54.6875 
L 34.71875 47.703125 
L 19.921875 47.703125 
L 19.921875 0 
L 10.890625 0 
L 10.890625 47.703125 
L 2.296875 47.703125 
L 2.296875 54.6875 
L 10.890625 54.6875 
L 10.890625 58.5 
Q 10.890625 67.625 15.140625 71.796875 
Q 19.390625 75.984375 28.609375 75.984375 
z
" id="DejaVuSans-66"/>
      <path d="M 4.890625 31.390625 
L 31.203125 31.390625 
L 31.203125 23.390625 
L 4.890625 23.390625 
z
" id="DejaVuSans-2d"/>
      <path d="M 56.203125 29.59375 
L 56.203125 25.203125 
L 14.890625 25.203125 
Q 15.484375 15.921875 20.484375 11.0625 
Q 25.484375 6.203125 34.421875 6.203125 
Q 39.59375 6.203125 44.453125 7.46875 
Q 49.3125 8.734375 54.109375 11.28125 
L 54.109375 2.78125 
Q 49.265625 0.734375 44.1875 -0.34375 
Q 39.109375 -1.421875 33.890625 -1.421875 
Q 20.796875 -1.421875 13.15625 6.1875 
Q 5.515625 13.8125 5.515625 26.8125 
Q 5.515625 40.234375 12.765625 48.109375 
Q 20.015625 56 32.328125 56 
Q 43.359375 56 49.78125 48.890625 
Q 56.203125 41.796875 56.203125 29.59375 
z
M 47.21875 32.234375 
Q 47.125 39.59375 43.09375 43.984375 
Q 39.0625 48.390625 32.421875 48.390625 
Q 24.90625 48.390625 20.390625 44.140625 
Q 15.875 39.890625 15.1875 32.171875 
z
" id="DejaVuSans-65"/>
      <path d="M 2.984375 54.6875 
L 12.5 54.6875 
L 29.59375 8.796875 
L 46.6875 54.6875 
L 56.203125 54.6875 
L 35.6875 0 
L 23.484375 0 
z
" id="DejaVuSans-76"/>
      <path d="M 34.28125 27.484375 
Q 23.390625 27.484375 19.1875 25 
Q 14.984375 22.515625 14.984375 16.5 
Q 14.984375 11.71875 18.140625 8.90625 
Q 21.296875 6.109375 26.703125 6.109375 
Q 34.1875 6.109375 38.703125 11.40625 
Q 43.21875 16.703125 43.21875 25.484375 
L 43.21875 27.484375 
z
M 52.203125 31.203125 
L 52.203125 0 
L 43.21875 0 
L 43.21875 8.296875 
Q 40.140625 3.328125 35.546875 0.953125 
Q 30.953125 -1.421875 24.3125 -1.421875 
Q 15.921875 -1.421875 10.953125 3.296875 
Q 6 8.015625 6 15.921875 
Q 6 25.140625 12.171875 29.828125 
Q 18.359375 34.515625 30.609375 34.515625 
L 43.21875 34.515625 
L 43.21875 35.40625 
Q 43.21875 41.609375 39.140625 45 
Q 35.0625 48.390625 27.6875 48.390625 
Q 23 48.390625 18.546875 47.265625 
Q 14.109375 46.140625 10.015625 43.890625 
L 10.015625 52.203125 
Q 14.9375 54.109375 19.578125 55.046875 
Q 24.21875 56 28.609375 56 
Q 40.484375 56 46.34375 49.84375 
Q 52.203125 43.703125 52.203125 31.203125 
z
" id="DejaVuSans-61"/>
      <path d="M 44.28125 53.078125 
L 44.28125 44.578125 
Q 40.484375 46.53125 36.375 47.5 
Q 32.28125 48.484375 27.875 48.484375 
Q 21.1875 48.484375 17.84375 46.4375 
Q 14.5 44.390625 14.5 40.28125 
Q 14.5 37.15625 16.890625 35.375 
Q 19.28125 33.59375 26.515625 31.984375 
L 29.59375 31.296875 
Q 39.15625 29.25 43.1875 25.515625 
Q 47.21875 21.78125 47.21875 15.09375 
Q 47.21875 7.46875 41.1875 3.015625 
Q 35.15625 -1.421875 24.609375 -1.421875 
Q 20.21875 -1.421875 15.453125 -0.5625 
Q 10.6875 0.296875 5.421875 2 
L 5.421875 11.28125 
Q 10.40625 8.6875 15.234375 7.390625 
Q 20.0625 6.109375 24.8125 6.109375 
Q 31.15625 6.109375 34.5625 8.28125 
Q 37.984375 10.453125 37.984375 14.40625 
Q 37.984375 18.0625 35.515625 20.015625 
Q 33.0625 21.96875 24.703125 23.78125 
L 21.578125 24.515625 
Q 13.234375 26.265625 9.515625 29.90625 
Q 5.8125 33.546875 5.8125 39.890625 
Q 5.8125 47.609375 11.28125 51.796875 
Q 16.75 56 26.8125 56 
Q 31.78125 56 36.171875 55.265625 
Q 40.578125 54.546875 44.28125 53.078125 
z
" id="DejaVuSans-73"/>
      <path d="M 25.390625 72.90625 
L 33.6875 72.90625 
L 8.296875 -9.28125 
L 0 -9.28125 
z
" id="DejaVuSans-2f"/>
      <path d="M 45.40625 46.390625 
L 45.40625 75.984375 
L 54.390625 75.984375 
L 54.390625 0 
L 45.40625 0 
L 45.40625 8.203125 
Q 42.578125 3.328125 38.25 0.953125 
Q 33.9375 -1.421875 27.875 -1.421875 
Q 17.96875 -1.421875 11.734375 6.484375 
Q 5.515625 14.40625 5.515625 27.296875 
Q 5.515625 40.1875 11.734375 48.09375 
Q 17.96875 56 27.875 56 
Q 33.9375 56 38.25 53.625 
Q 42.578125 51.265625 45.40625 46.390625 
z
M 14.796875 27.296875 
Q 14.796875 17.390625 18.875 11.75 
Q 22.953125 6.109375 30.078125 6.109375 
Q 37.203125 6.109375 41.296875 11.75 
Q 45.40625 17.390625 45.40625 27.296875 
Q 45.40625 37.203125 41.296875 42.84375 
Q 37.203125 48.484375 30.078125 48.484375 
Q 22.953125 48.484375 18.875 42.84375 
Q 14.796875 37.203125 14.796875 27.296875 
z
" id="DejaVuSans-64"/>
      <path d="M 9.421875 54.6875 
L 18.40625 54.6875 
L 18.40625 0 
L 9.421875 0 
z
M 9.421875 75.984375 
L 18.40625 75.984375 
L 18.40625 64.59375 
L 9.421875 64.59375 
z
" id="DejaVuSans-69"/>
      <path d="M 52 44.1875 
Q 55.375 50.25 60.0625 53.125 
Q 64.75 56 71.09375 56 
Q 79.640625 56 84.28125 50.015625 
Q 88.921875 44.046875 88.921875 33.015625 
L 88.921875 0 
L 79.890625 0 
L 79.890625 32.71875 
Q 79.890625 40.578125 77.09375 44.375 
Q 74.3125 48.1875 68.609375 48.1875 
Q 61.625 48.1875 57.5625 43.546875 
Q 53.515625 38.921875 53.515625 30.90625 
L 53.515625 0 
L 44.484375 0 
L 44.484375 32.71875 
Q 44.484375 40.625 41.703125 44.40625 
Q 38.921875 48.1875 33.109375 48.1875 
Q 26.21875 48.1875 22.15625 43.53125 
Q 18.109375 38.875 18.109375 30.90625 
L 18.109375 0 
L 9.078125 0 
L 9.078125 54.6875 
L 18.109375 54.6875 
L 18.109375 46.1875 
Q 21.1875 51.21875 25.484375 53.609375 
Q 29.78125 56 35.6875 56 
Q 41.65625 56 45.828125 52.96875 
Q 50 49.953125 52 44.1875 
z
" id="DejaVuSans-6d"/>
      <path d="M 54.890625 33.015625 
L 54.890625 0 
L 45.90625 0 
L 45.90625 32.71875 
Q 45.90625 40.484375 42.875 44.328125 
Q 39.84375 48.1875 33.796875 48.1875 
Q 26.515625 48.1875 22.3125 43.546875 
Q 18.109375 38.921875 18.109375 30.90625 
L 18.109375 0 
L 9.078125 0 
L 9.078125 54.6875 
L 18.109375 54.6875 
L 18.109375 46.1875 
Q 21.34375 51.125 25.703125 53.5625 
Q 30.078125 56 35.796875 56 
Q 45.21875 56 50.046875 50.171875 
Q 54.890625 44.34375 54.890625 33.015625 
z
" id="DejaVuSans-6e"/>
      <path d="M 8.015625 75.875 
L 15.828125 75.875 
Q 23.140625 64.359375 26.78125 53.3125 
Q 30.421875 42.28125 30.421875 31.390625 
Q 30.421875 20.453125 26.78125 9.375 
Q 23.140625 -1.703125 15.828125 -13.1875 
L 8.015625 -13.1875 
Q 14.5 -2 17.703125 9.0625 
Q 20.90625 20.125 20.90625 31.390625 
Q 20.90625 42.671875 17.703125 53.65625 
Q 14.5 64.65625 8.015625 75.875 
z
" id="DejaVuSans-29"/>
     </defs>
     <g transform="translate(73.803219 338.153594)scale(0.17 -0.17)">
      <use xlink:href="#DejaVuSans-6c"/>
      <use x="27.783203" xlink:href="#DejaVuSans-6f"/>
      <use x="88.964844" xlink:href="#DejaVuSans-67"/>
      <use x="152.441406" xlink:href="#DejaVuSans-31"/>
      <use x="216.064453" xlink:href="#DejaVuSans-30"/>
      <use x="279.6875" xlink:href="#DejaVuSans-28"/>
      <use x="318.701172" xlink:href="#DejaVuSans-23"/>
      <use x="402.490234" xlink:href="#DejaVuSans-20"/>
      <use x="434.277344" xlink:href="#DejaVuSans-66"/>
      <use x="469.404297" xlink:href="#DejaVuSans-2d"/>
      <use x="505.488281" xlink:href="#DejaVuSans-65"/>
      <use x="567.011719" xlink:href="#DejaVuSans-76"/>
      <use x="626.191406" xlink:href="#DejaVuSans-61"/>
      <use x="687.470703" xlink:href="#DejaVuSans-6c"/>
      <use x="715.253906" xlink:href="#DejaVuSans-73"/>
      <use x="767.353516" xlink:href="#DejaVuSans-20"/>
      <use x="799.140625" xlink:href="#DejaVuSans-2f"/>
      <use x="832.832031" xlink:href="#DejaVuSans-20"/>
      <use x="864.619141" xlink:href="#DejaVuSans-64"/>
      <use x="928.095703" xlink:href="#DejaVuSans-69"/>
      <use x="955.878906" xlink:href="#DejaVuSans-6d"/>
      <use x="1053.291016" xlink:href="#DejaVuSans-65"/>
      <use x="1114.814453" xlink:href="#DejaVuSans-6e"/>
      <use x="1178.193359" xlink:href="#DejaVuSans-73"/>
      <use x="1230.292969" xlink:href="#DejaVuSans-69"/>
      <use x="1258.076172" xlink:href="#DejaVuSans-6f"/>
      <use x="1319.257812" xlink:href="#DejaVuSans-6e"/>
      <use x="1382.636719" xlink:href="#DejaVuSans-29"/>
     </g>
    </g>
   </g>
   <g id="matplotlib.axis_2">
    <g id="ytick_1">
     <g id="line2d_29">
      <path clip-path="url(#pa2deef7b72)" d="M 56.12 294.88 
L 333.168 294.88 
" style="fill:none;stroke:#b0b0b0;stroke-linecap:square;stroke-width:0.8;"/>
     </g>
     <g id="line2d_30">
      <defs>
       <path d="M 0 0 
L -3.5 0 
" id="m594bc0c5d4" style="stroke:#000000;stroke-width:0.8;"/>
      </defs>
      <g>
       <use style="stroke:#000000;stroke-width:0.8;" x="56.12" xlink:href="#m594bc0c5d4" y="294.88"/>
      </g>
     </g>
     <g id="text_6">
      <!-- 0.0 -->
      <defs>
       <path d="M 10.6875 12.40625 
L 21 12.40625 
L 21 0 
L 10.6875 0 
z
" id="DejaVuSans-2e"/>
      </defs>
      <g transform="translate(23.675 300.95875)scale(0.16 -0.16)">
       <use xlink:href="#DejaVuSans-30"/>
       <use x="63.623047" xlink:href="#DejaVuSans-2e"/>
       <use x="95.410156" xlink:href="#DejaVuSans-30"/>
      </g>
     </g>
    </g>
    <g id="ytick_2">
     <g id="line2d_31">
      <path clip-path="url(#pa2deef7b72)" d="M 56.12 241.406733 
L 333.168 241.406733 
" style="fill:none;stroke:#b0b0b0;stroke-linecap:square;stroke-width:0.8;"/>
     </g>
     <g id="line2d_32">
      <g>
       <use style="stroke:#000000;stroke-width:0.8;" x="56.12" xlink:href="#m594bc0c5d4" y="241.406733"/>
      </g>
     </g>
     <g id="text_7">
      <!-- 0.2 -->
      <g transform="translate(23.675 247.485483)scale(0.16 -0.16)">
       <use xlink:href="#DejaVuSans-30"/>
       <use x="63.623047" xlink:href="#DejaVuSans-2e"/>
       <use x="95.410156" xlink:href="#DejaVuSans-32"/>
      </g>
     </g>
    </g>
    <g id="ytick_3">
     <g id="line2d_33">
      <path clip-path="url(#pa2deef7b72)" d="M 56.12 187.933465 
L 333.168 187.933465 
" style="fill:none;stroke:#b0b0b0;stroke-linecap:square;stroke-width:0.8;"/>
     </g>
     <g id="line2d_34">
      <g>
       <use style="stroke:#000000;stroke-width:0.8;" x="56.12" xlink:href="#m594bc0c5d4" y="187.933465"/>
      </g>
     </g>
     <g id="text_8">
      <!-- 0.4 -->
      <g transform="translate(23.675 194.012215)scale(0.16 -0.16)">
       <use xlink:href="#DejaVuSans-30"/>
       <use x="63.623047" xlink:href="#DejaVuSans-2e"/>
       <use x="95.410156" xlink:href="#DejaVuSans-34"/>
      </g>
     </g>
    </g>
    <g id="ytick_4">
     <g id="line2d_35">
      <path clip-path="url(#pa2deef7b72)" d="M 56.12 134.460198 
L 333.168 134.460198 
" style="fill:none;stroke:#b0b0b0;stroke-linecap:square;stroke-width:0.8;"/>
     </g>
     <g id="line2d_36">
      <g>
       <use style="stroke:#000000;stroke-width:0.8;" x="56.12" xlink:href="#m594bc0c5d4" y="134.460198"/>
      </g>
     </g>
     <g id="text_9">
      <!-- 0.6 -->
      <g transform="translate(23.675 140.538948)scale(0.16 -0.16)">
       <use xlink:href="#DejaVuSans-30"/>
       <use x="63.623047" xlink:href="#DejaVuSans-2e"/>
       <use x="95.410156" xlink:href="#DejaVuSans-36"/>
      </g>
     </g>
    </g>
    <g id="ytick_5">
     <g id="line2d_37">
      <path clip-path="url(#pa2deef7b72)" d="M 56.12 80.986931 
L 333.168 80.986931 
" style="fill:none;stroke:#b0b0b0;stroke-linecap:square;stroke-width:0.8;"/>
     </g>
     <g id="line2d_38">
      <g>
       <use style="stroke:#000000;stroke-width:0.8;" x="56.12" xlink:href="#m594bc0c5d4" y="80.986931"/>
      </g>
     </g>
     <g id="text_10">
      <!-- 0.8 -->
      <defs>
       <path d="M 31.78125 34.625 
Q 24.75 34.625 20.71875 30.859375 
Q 16.703125 27.09375 16.703125 20.515625 
Q 16.703125 13.921875 20.71875 10.15625 
Q 24.75 6.390625 31.78125 6.390625 
Q 38.8125 6.390625 42.859375 10.171875 
Q 46.921875 13.96875 46.921875 20.515625 
Q 46.921875 27.09375 42.890625 30.859375 
Q 38.875 34.625 31.78125 34.625 
z
M 21.921875 38.8125 
Q 15.578125 40.375 12.03125 44.71875 
Q 8.5 49.078125 8.5 55.328125 
Q 8.5 64.0625 14.71875 69.140625 
Q 20.953125 74.21875 31.78125 74.21875 
Q 42.671875 74.21875 48.875 69.140625 
Q 55.078125 64.0625 55.078125 55.328125 
Q 55.078125 49.078125 51.53125 44.71875 
Q 48 40.375 41.703125 38.8125 
Q 48.828125 37.15625 52.796875 32.3125 
Q 56.78125 27.484375 56.78125 20.515625 
Q 56.78125 9.90625 50.3125 4.234375 
Q 43.84375 -1.421875 31.78125 -1.421875 
Q 19.734375 -1.421875 13.25 4.234375 
Q 6.78125 9.90625 6.78125 20.515625 
Q 6.78125 27.484375 10.78125 32.3125 
Q 14.796875 37.15625 21.921875 38.8125 
z
M 18.3125 54.390625 
Q 18.3125 48.734375 21.84375 45.5625 
Q 25.390625 42.390625 31.78125 42.390625 
Q 38.140625 42.390625 41.71875 45.5625 
Q 45.3125 48.734375 45.3125 54.390625 
Q 45.3125 60.0625 41.71875 63.234375 
Q 38.140625 66.40625 31.78125 66.40625 
Q 25.390625 66.40625 21.84375 63.234375 
Q 18.3125 60.0625 18.3125 54.390625 
z
" id="DejaVuSans-38"/>
      </defs>
      <g transform="translate(23.675 87.065681)scale(0.16 -0.16)">
       <use xlink:href="#DejaVuSans-30"/>
       <use x="63.623047" xlink:href="#DejaVuSans-2e"/>
       <use x="95.410156" xlink:href="#DejaVuSans-38"/>
      </g>
     </g>
    </g>
    <g id="ytick_6">
     <g id="line2d_39">
      <path clip-path="url(#pa2deef7b72)" d="M 56.12 27.513663 
L 333.168 27.513663 
" style="fill:none;stroke:#b0b0b0;stroke-linecap:square;stroke-width:0.8;"/>
     </g>
     <g id="line2d_40">
      <g>
       <use style="stroke:#000000;stroke-width:0.8;" x="56.12" xlink:href="#m594bc0c5d4" y="27.513663"/>
      </g>
     </g>
     <g id="text_11">
      <!-- 1.0 -->
      <g transform="translate(23.675 33.592413)scale(0.16 -0.16)">
       <use xlink:href="#DejaVuSans-31"/>
       <use x="63.623047" xlink:href="#DejaVuSans-2e"/>
       <use x="95.410156" xlink:href="#DejaVuSans-30"/>
      </g>
     </g>
    </g>
    <g id="text_12">
     <!-- Fraction of function,target pairs -->
     <defs>
      <path d="M 9.8125 72.90625 
L 51.703125 72.90625 
L 51.703125 64.59375 
L 19.671875 64.59375 
L 19.671875 43.109375 
L 48.578125 43.109375 
L 48.578125 34.8125 
L 19.671875 34.8125 
L 19.671875 0 
L 9.8125 0 
z
" id="DejaVuSans-46"/>
      <path d="M 41.109375 46.296875 
Q 39.59375 47.171875 37.8125 47.578125 
Q 36.03125 48 33.890625 48 
Q 26.265625 48 22.1875 43.046875 
Q 18.109375 38.09375 18.109375 28.8125 
L 18.109375 0 
L 9.078125 0 
L 9.078125 54.6875 
L 18.109375 54.6875 
L 18.109375 46.1875 
Q 20.953125 51.171875 25.484375 53.578125 
Q 30.03125 56 36.53125 56 
Q 37.453125 56 38.578125 55.875 
Q 39.703125 55.765625 41.0625 55.515625 
z
" id="DejaVuSans-72"/>
      <path d="M 48.78125 52.59375 
L 48.78125 44.1875 
Q 44.96875 46.296875 41.140625 47.34375 
Q 37.3125 48.390625 33.40625 48.390625 
Q 24.65625 48.390625 19.8125 42.84375 
Q 14.984375 37.3125 14.984375 27.296875 
Q 14.984375 17.28125 19.8125 11.734375 
Q 24.65625 6.203125 33.40625 6.203125 
Q 37.3125 6.203125 41.140625 7.25 
Q 44.96875 8.296875 48.78125 10.40625 
L 48.78125 2.09375 
Q 45.015625 0.34375 40.984375 -0.53125 
Q 36.96875 -1.421875 32.421875 -1.421875 
Q 20.0625 -1.421875 12.78125 6.34375 
Q 5.515625 14.109375 5.515625 27.296875 
Q 5.515625 40.671875 12.859375 48.328125 
Q 20.21875 56 33.015625 56 
Q 37.15625 56 41.109375 55.140625 
Q 45.0625 54.296875 48.78125 52.59375 
z
" id="DejaVuSans-63"/>
      <path d="M 18.3125 70.21875 
L 18.3125 54.6875 
L 36.8125 54.6875 
L 36.8125 47.703125 
L 18.3125 47.703125 
L 18.3125 18.015625 
Q 18.3125 11.328125 20.140625 9.421875 
Q 21.96875 7.515625 27.59375 7.515625 
L 36.8125 7.515625 
L 36.8125 0 
L 27.59375 0 
Q 17.1875 0 13.234375 3.875 
Q 9.28125 7.765625 9.28125 18.015625 
L 9.28125 47.703125 
L 2.6875 47.703125 
L 2.6875 54.6875 
L 9.28125 54.6875 
L 9.28125 70.21875 
z
" id="DejaVuSans-74"/>
      <path d="M 8.5 21.578125 
L 8.5 54.6875 
L 17.484375 54.6875 
L 17.484375 21.921875 
Q 17.484375 14.15625 20.5 10.265625 
Q 23.53125 6.390625 29.59375 6.390625 
Q 36.859375 6.390625 41.078125 11.03125 
Q 45.3125 15.671875 45.3125 23.6875 
L 45.3125 54.6875 
L 54.296875 54.6875 
L 54.296875 0 
L 45.3125 0 
L 45.3125 8.40625 
Q 42.046875 3.421875 37.71875 1 
Q 33.40625 -1.421875 27.6875 -1.421875 
Q 18.265625 -1.421875 13.375 4.4375 
Q 8.5 10.296875 8.5 21.578125 
z
M 31.109375 56 
z
" id="DejaVuSans-75"/>
      <path d="M 11.71875 12.40625 
L 22.015625 12.40625 
L 22.015625 4 
L 14.015625 -11.625 
L 7.71875 -11.625 
L 11.71875 4 
z
" id="DejaVuSans-2c"/>
      <path d="M 18.109375 8.203125 
L 18.109375 -20.796875 
L 9.078125 -20.796875 
L 9.078125 54.6875 
L 18.109375 54.6875 
L 18.109375 46.390625 
Q 20.953125 51.265625 25.265625 53.625 
Q 29.59375 56 35.59375 56 
Q 45.5625 56 51.78125 48.09375 
Q 58.015625 40.1875 58.015625 27.296875 
Q 58.015625 14.40625 51.78125 6.484375 
Q 45.5625 -1.421875 35.59375 -1.421875 
Q 29.59375 -1.421875 25.265625 0.953125 
Q 20.953125 3.328125 18.109375 8.203125 
z
M 48.6875 27.296875 
Q 48.6875 37.203125 44.609375 42.84375 
Q 40.53125 48.484375 33.40625 48.484375 
Q 26.265625 48.484375 22.1875 42.84375 
Q 18.109375 37.203125 18.109375 27.296875 
Q 18.109375 17.390625 22.1875 11.75 
Q 26.265625 6.109375 33.40625 6.109375 
Q 40.53125 6.109375 44.609375 11.75 
Q 48.6875 17.390625 48.6875 27.296875 
z
" id="DejaVuSans-70"/>
     </defs>
     <g transform="translate(16.139531 294.999375)rotate(-90)scale(0.17 -0.17)">
      <use xlink:href="#DejaVuSans-46"/>
      <use x="57.410156" xlink:href="#DejaVuSans-72"/>
      <use x="98.523438" xlink:href="#DejaVuSans-61"/>
      <use x="159.802734" xlink:href="#DejaVuSans-63"/>
      <use x="214.783203" xlink:href="#DejaVuSans-74"/>
      <use x="253.992188" xlink:href="#DejaVuSans-69"/>
      <use x="281.775391" xlink:href="#DejaVuSans-6f"/>
      <use x="342.957031" xlink:href="#DejaVuSans-6e"/>
      <use x="406.335938" xlink:href="#DejaVuSans-20"/>
      <use x="438.123047" xlink:href="#DejaVuSans-6f"/>
      <use x="499.304688" xlink:href="#DejaVuSans-66"/>
      <use x="534.509766" xlink:href="#DejaVuSans-20"/>
      <use x="566.296875" xlink:href="#DejaVuSans-66"/>
      <use x="601.501953" xlink:href="#DejaVuSans-75"/>
      <use x="664.880859" xlink:href="#DejaVuSans-6e"/>
      <use x="728.259766" xlink:href="#DejaVuSans-63"/>
      <use x="783.240234" xlink:href="#DejaVuSans-74"/>
      <use x="822.449219" xlink:href="#DejaVuSans-69"/>
      <use x="850.232422" xlink:href="#DejaVuSans-6f"/>
      <use x="911.414062" xlink:href="#DejaVuSans-6e"/>
      <use x="974.792969" xlink:href="#DejaVuSans-2c"/>
      <use x="1006.580078" xlink:href="#DejaVuSans-74"/>
      <use x="1045.789062" xlink:href="#DejaVuSans-61"/>
      <use x="1107.068359" xlink:href="#DejaVuSans-72"/>
      <use x="1148.166016" xlink:href="#DejaVuSans-67"/>
      <use x="1211.642578" xlink:href="#DejaVuSans-65"/>
      <use x="1273.166016" xlink:href="#DejaVuSans-74"/>
      <use x="1312.375" xlink:href="#DejaVuSans-20"/>
      <use x="1344.162109" xlink:href="#DejaVuSans-70"/>
      <use x="1407.638672" xlink:href="#DejaVuSans-61"/>
      <use x="1468.917969" xlink:href="#DejaVuSans-69"/>
      <use x="1496.701172" xlink:href="#DejaVuSans-72"/>
      <use x="1537.814453" xlink:href="#DejaVuSans-73"/>
     </g>
    </g>
   </g>
   <g id="line2d_41">
    <defs>
     <path d="M 0 1.5 
C 0.397805 1.5 0.77937 1.341951 1.06066 1.06066 
C 1.341951 0.77937 1.5 0.397805 1.5 0 
C 1.5 -0.397805 1.341951 -0.77937 1.06066 -1.06066 
C 0.77937 -1.341951 0.397805 -1.5 0 -1.5 
C -0.397805 -1.5 -0.77937 -1.341951 -1.06066 -1.06066 
C -1.341951 -0.77937 -1.5 -0.397805 -1.5 0 
C -1.5 0.397805 -1.341951 0.77937 -1.06066 1.06066 
C -0.77937 1.341951 -0.397805 1.5 0 1.5 
z
" id="m87dbececd2" style="stroke:#f5deb3;"/>
    </defs>
    <g>
     <use style="fill:#f5deb3;stroke:#f5deb3;" x="132.415555" xlink:href="#m87dbececd2" y="27.513663"/>
     <use style="fill:#f5deb3;stroke:#f5deb3;" x="132.415555" xlink:href="#m87dbececd2" y="27.513663"/>
    </g>
   </g>
   <g id="line2d_42">
    <defs>
     <path d="M 0 1.5 
C 0.397805 1.5 0.77937 1.341951 1.06066 1.06066 
C 1.341951 0.77937 1.5 0.397805 1.5 0 
C 1.5 -0.397805 1.341951 -0.77937 1.06066 -1.06066 
C 0.77937 -1.341951 0.397805 -1.5 0 -1.5 
C -0.397805 -1.5 -0.77937 -1.341951 -1.06066 -1.06066 
C -1.341951 -0.77937 -1.5 -0.397805 -1.5 0 
C -1.5 0.397805 -1.341951 0.77937 -1.06066 1.06066 
C -0.77937 1.341951 -0.397805 1.5 0 1.5 
z
" id="m3d48931eaa" style="stroke:#000080;"/>
    </defs>
    <g>
     <use style="fill:#000080;stroke:#000080;" x="163.66976" xlink:href="#m3d48931eaa" y="27.513663"/>
     <use style="fill:#000080;stroke:#000080;" x="163.66976" xlink:href="#m3d48931eaa" y="27.513663"/>
    </g>
   </g>
   <g id="line2d_43">
    <path d="M 106.730875 294.88 
L 106.730875 294.355752 
L 124.896081 294.355752 
L 124.896081 293.831505 
L 128.478214 293.831505 
L 128.478214 291.210266 
L 129.945433 291.210266 
L 129.945433 289.637523 
L 130.634602 289.637523 
L 130.634602 287.016284 
L 131.005861 287.016284 
L 131.07916 282.822302 
L 131.51251 282.822302 
L 131.51251 281.773807 
L 132.073821 281.773807 
L 132.073821 279.676816 
L 132.483094 279.676816 
L 132.550368 277.055578 
L 132.684132 277.055578 
L 132.684132 276.53133 
L 133.273515 276.53133 
L 133.273515 274.958587 
L 134.87075 274.958587 
L 134.87075 273.385844 
L 135.161597 273.385844 
L 135.21918 271.8131 
L 135.447604 271.8131 
L 135.447604 271.288853 
L 136.115208 271.288853 
L 136.115208 270.764605 
L 136.492995 270.764605 
L 136.599426 269.716109 
L 136.705203 269.716109 
L 136.810332 267.619119 
L 136.914823 267.619119 
L 136.914823 266.570623 
L 137.427955 266.570623 
L 137.427955 263.425137 
L 137.678888 263.425137 
L 137.728638 261.852394 
L 138.170025 261.852394 
L 138.170025 259.755403 
L 139.203533 259.755403 
L 139.203533 258.706907 
L 140.092032 258.706907 
L 140.092032 256.609917 
L 140.561812 256.609917 
L 140.561812 253.988678 
L 141.141725 253.988678 
L 141.141725 253.46443 
L 141.424506 253.46443 
L 141.424506 252.940182 
L 141.781376 252.940182 
L 141.820574 251.891687 
L 142.015238 251.891687 
L 142.015238 251.367439 
L 142.130987 251.367439 
L 142.130987 248.746201 
L 142.586342 248.746201 
L 142.661075 247.173458 
L 142.993411 247.173458 
L 143.029944 242.979476 
L 143.283522 242.979476 
L 143.283522 241.93098 
L 143.497935 241.93098 
L 143.497935 241.406733 
L 143.639406 241.406733 
L 143.639406 240.882485 
L 143.849453 240.882485 
L 143.953522 237.212751 
L 144.125582 237.212751 
L 144.193927 234.067265 
L 144.262 234.067265 
L 144.295937 232.494521 
L 144.531632 232.494521 
L 144.631663 230.921778 
L 144.829995 230.921778 
L 144.829995 229.873283 
L 144.960957 229.873283 
L 145.058527 226.727797 
L 145.155547 226.727797 
L 145.155547 224.106558 
L 145.31604 224.106558 
L 145.31604 222.009567 
L 145.475048 222.009567 
L 145.538241 218.864081 
L 145.819772 218.864081 
L 145.9126 215.718594 
L 145.974208 215.718594 
L 146.066208 212.04886 
L 146.218456 212.04886 
L 146.278979 207.854879 
L 146.459281 207.854879 
L 146.489148 203.136649 
L 146.726237 203.136649 
L 146.726237 202.612401 
L 146.901931 202.612401 
L 146.901931 199.991163 
L 147.018071 199.991163 
L 147.018071 197.894172 
L 147.190823 197.894172 
L 147.190823 196.321429 
L 147.390196 196.321429 
L 147.390196 195.272933 
L 147.559266 195.272933 
L 147.643181 193.70019 
L 147.837405 193.70019 
L 147.837405 193.175943 
L 148.029459 193.175943 
L 148.029459 191.603199 
L 148.326988 191.603199 
L 148.326988 190.030456 
L 148.487131 190.030456 
L 148.487131 188.981961 
L 148.645797 188.981961 
L 148.724584 187.409218 
L 148.881082 187.409218 
L 148.984628 183.739484 
L 149.266206 183.739484 
L 149.266206 182.690988 
L 149.46813 182.690988 
L 149.543245 177.448511 
L 149.717245 177.448511 
L 149.815889 175.875768 
L 149.864999 175.875768 
L 149.864999 174.827272 
L 149.987165 174.827272 
L 150.084276 171.681786 
L 150.108469 171.681786 
L 150.204899 170.109043 
L 150.348537 170.109043 
L 150.396151 166.963557 
L 150.608797 166.963557 
L 150.679098 162.769575 
L 150.772388 162.769575 
L 150.772388 160.672584 
L 151.208729 160.672584 
L 151.208729 160.148336 
L 151.411614 160.148336 
L 151.456376 156.478602 
L 151.545552 156.478602 
L 151.545552 155.430107 
L 151.854074 155.430107 
L 151.854074 152.808868 
L 152.071105 152.808868 
L 152.178602 149.663382 
L 152.221413 149.663382 
L 152.28543 144.420905 
L 152.433883 144.420905 
L 152.433883 142.848162 
L 152.560116 142.848162 
L 152.664606 139.178427 
L 152.789162 139.178427 
L 152.851103 137.605684 
L 152.97432 137.605684 
L 153.055976 133.93595 
L 153.218134 133.93595 
L 153.238297 129.741969 
L 153.656339 129.741969 
L 153.754391 126.596482 
L 153.910122 126.596482 
L 153.910122 126.072235 
L 154.083649 126.072235 
L 154.083649 125.547987 
L 154.38788 125.547987 
L 154.38788 121.878253 
L 154.538 121.878253 
L 154.538 121.354005 
L 154.649736 121.354005 
L 154.723825 119.257014 
L 154.889367 119.257014 
L 154.889367 118.732766 
L 155.017028 118.732766 
L 155.107638 113.490289 
L 155.215743 113.490289 
L 155.215743 112.966042 
L 155.358833 112.966042 
L 155.394421 106.675069 
L 155.606411 106.675069 
L 155.606411 105.626573 
L 155.746298 105.626573 
L 155.798464 104.578078 
L 156.005559 104.578078 
L 156.005559 103.005335 
L 156.125221 103.005335 
L 156.159258 101.956839 
L 156.244057 101.956839 
L 156.311596 97.23861 
L 156.628831 97.23861 
L 156.711349 91.471885 
L 156.744246 91.471885 
L 156.77708 90.42339 
L 156.956555 90.42339 
L 157.037519 85.180912 
L 157.069798 85.180912 
L 157.134175 81.511178 
L 157.357615 81.511178 
L 157.405119 79.938435 
L 157.531159 79.938435 
L 157.531159 76.792949 
L 157.702969 76.792949 
L 157.795964 74.17171 
L 157.857683 74.17171 
L 157.857683 73.123215 
L 157.980459 73.123215 
L 158.087174 68.404985 
L 158.313642 68.404985 
L 158.343613 66.832242 
L 158.537164 66.832242 
L 158.61103 63.162508 
L 158.655198 63.162508 
L 158.669895 58.444279 
L 158.787024 58.444279 
L 158.87435 56.871536 
L 158.932322 56.871536 
L 159.018915 54.250297 
L 159.062048 54.250297 
L 159.133698 50.580563 
L 159.445454 50.580563 
L 159.445454 47.435077 
L 159.765446 47.435077 
L 159.792992 45.862334 
L 159.902736 45.862334 
L 159.902736 45.338086 
L 160.079589 45.338086 
L 160.187524 43.765343 
L 160.334837 43.765343 
L 160.441186 37.47437 
L 160.546882 37.47437 
L 160.546882 36.950122 
L 160.665017 36.950122 
L 160.730299 33.804636 
L 160.88597 33.804636 
L 160.988974 31.707645 
L 161.180457 31.707645 
L 161.269091 30.65915 
L 161.606747 30.65915 
L 161.606747 30.134902 
L 161.877052 30.134902 
L 161.877052 29.610654 
L 162.274704 29.610654 
L 162.274704 29.086407 
L 162.640057 29.086407 
L 162.640057 28.562159 
L 163.66976 28.562159 
L 163.66976 27.513663 
L 333.168 27.513663 
L 333.168 27.513663 
" style="fill:none;stroke:#000080;stroke-linecap:square;stroke-width:1.5;"/>
   </g>
   <g id="line2d_44">
    <defs>
     <path d="M 0 6 
C 1.591219 6 3.117479 5.367802 4.242641 4.242641 
C 5.367802 3.117479 6 1.591219 6 0 
C 6 -1.591219 5.367802 -3.117479 4.242641 -4.242641 
C 3.117479 -5.367802 1.591219 -6 0 -6 
C -1.591219 -6 -3.117479 -5.367802 -4.242641 -4.242641 
C -5.367802 -3.117479 -6 -1.591219 -6 0 
C -6 1.591219 -5.367802 3.117479 -4.242641 4.242641 
C -3.117479 5.367802 -1.591219 6 0 6 
z
" id="mb03acc3d32" style="stroke:#000080;stroke-width:1.5;"/>
    </defs>
    <g>
     <use style="fill-opacity:0;stroke:#000080;stroke-width:1.5;" x="146.066208" xlink:href="#mb03acc3d32" y="212.04886"/>
     <use style="fill-opacity:0;stroke:#000080;stroke-width:1.5;" x="159.133698" xlink:href="#mb03acc3d32" y="52.677554"/>
     <use style="fill-opacity:0;stroke:#000080;stroke-width:1.5;" x="163.66976" xlink:href="#mb03acc3d32" y="27.513663"/>
     <use style="fill-opacity:0;stroke:#000080;stroke-width:1.5;" x="163.66976" xlink:href="#mb03acc3d32" y="27.513663"/>
     <use style="fill-opacity:0;stroke:#000080;stroke-width:1.5;" x="333.168" xlink:href="#mb03acc3d32" y="27.513663"/>
    </g>
   </g>
   <g id="line2d_45">
    <path style="fill:none;stroke:#000080;stroke-linecap:square;stroke-width:1.5;"/>
    <g/>
   </g>
   <g id="line2d_46">
    <defs>
     <path d="M 0 1.5 
C 0.397805 1.5 0.77937 1.341951 1.06066 1.06066 
C 1.341951 0.77937 1.5 0.397805 1.5 0 
C 1.5 -0.397805 1.341951 -0.77937 1.06066 -1.06066 
C 0.77937 -1.341951 0.397805 -1.5 0 -1.5 
C -0.397805 -1.5 -0.77937 -1.341951 -1.06066 -1.06066 
C -1.341951 -0.77937 -1.5 -0.397805 -1.5 0 
C -1.5 0.397805 -1.341951 0.77937 -1.06066 1.06066 
C -0.77937 1.341951 -0.397805 1.5 0 1.5 
z
" id="m6fca3bc41b" style="stroke:#ff00ff;"/>
    </defs>
    <g>
     <use style="fill:#ff00ff;stroke:#ff00ff;" x="167.608225" xlink:href="#m6fca3bc41b" y="27.513663"/>
     <use style="fill:#ff00ff;stroke:#ff00ff;" x="167.608225" xlink:href="#m6fca3bc41b" y="27.513663"/>
    </g>
   </g>
   <g id="line2d_47">
    <path d="M 112.557398 294.88 
L 112.557398 293.831505 
L 113.19018 293.831505 
L 113.19018 293.307257 
L 114.959714 293.307257 
L 114.959714 291.734514 
L 117.874207 291.734514 
L 117.874207 290.161771 
L 118.645127 290.161771 
L 118.645127 288.06478 
L 118.795247 288.06478 
L 118.795247 287.540532 
L 119.810904 287.540532 
L 119.810904 286.492036 
L 120.501303 286.492036 
L 120.501303 285.967789 
L 121.16504 285.967789 
L 121.16504 285.443541 
L 121.42352 285.443541 
L 121.42352 284.919293 
L 121.929105 284.919293 
L 121.929105 283.34655 
L 122.176427 283.34655 
L 122.176427 280.201064 
L 122.298767 280.201064 
L 122.298767 279.676816 
L 122.420242 279.676816 
L 122.420242 279.152568 
L 122.540864 279.152568 
L 122.540864 276.53133 
L 123.36232 276.53133 
L 123.36232 274.434339 
L 123.814679 274.434339 
L 123.814679 272.861596 
L 123.925932 272.861596 
L 124.036471 271.288853 
L 124.146303 271.288853 
L 124.146303 269.716109 
L 124.471649 269.716109 
L 124.471649 269.191862 
L 124.685175 269.191862 
L 124.685175 268.667614 
L 125.310285 268.667614 
L 125.310285 268.143366 
L 125.913457 268.143366 
L 126.011959 266.046375 
L 126.207287 266.046375 
L 126.207287 264.99788 
L 126.40042 264.99788 
L 126.40042 261.852394 
L 126.873966 261.852394 
L 126.873966 261.328146 
L 127.243628 261.328146 
L 127.243628 260.803898 
L 127.515749 260.803898 
L 127.605507 259.755403 
L 127.694799 259.755403 
L 127.694799 257.134164 
L 128.898495 257.134164 
L 128.898495 254.512926 
L 129.063771 254.512926 
L 129.145817 252.415935 
L 129.70943 252.415935 
L 129.70943 251.891687 
L 130.33171 251.891687 
L 130.33171 250.318944 
L 131.224827 250.318944 
L 131.224827 248.746201 
L 131.36927 248.746201 
L 131.36927 248.221953 
L 131.583684 248.221953 
L 131.583684 247.697705 
L 131.795457 247.697705 
L 131.795457 246.64921 
L 132.073821 246.64921 
L 132.073821 245.600714 
L 132.279675 245.600714 
L 132.279675 245.076467 
L 132.415555 245.076467 
L 132.415555 244.552219 
L 132.750626 244.552219 
L 132.816864 243.503724 
L 133.014059 243.503724 
L 133.014059 242.979476 
L 133.337771 242.979476 
L 133.337771 242.455228 
L 133.465568 242.455228 
L 133.529112 239.83399 
L 133.592422 239.83399 
L 133.6555 238.261246 
L 134.029181 238.261246 
L 134.029181 237.736999 
L 134.151957 237.736999 
L 134.151957 235.11576 
L 134.273863 235.11576 
L 134.273863 229.873283 
L 134.39491 229.873283 
L 134.455115 227.252044 
L 134.515111 227.252044 
L 134.515111 226.203549 
L 134.87075 226.203549 
L 134.929315 225.155053 
L 135.10382 225.155053 
L 135.10382 223.58231 
L 135.447604 223.58231 
L 135.504239 221.485319 
L 135.784647 221.485319 
L 135.784647 218.339833 
L 136.005725 218.339833 
L 136.005725 217.815585 
L 136.169688 217.815585 
L 136.169688 217.291338 
L 136.439531 217.291338 
L 136.439531 216.76709 
L 136.705203 216.76709 
L 136.705203 216.242842 
L 136.966831 216.242842 
L 137.070377 214.145851 
L 137.326546 214.145851 
L 137.326546 212.573108 
L 137.728638 212.573108 
L 137.778244 211.524613 
L 137.926211 211.524613 
L 137.975251 209.95187 
L 138.121538 209.95187 
L 138.218376 206.806383 
L 138.505658 206.806383 
L 138.600361 202.088154 
L 139.112104 202.088154 
L 139.157879 198.942667 
L 139.60905 198.942667 
L 139.653523 197.369924 
L 139.742124 197.369924 
L 139.742124 196.845677 
L 139.917968 196.845677 
L 139.917968 194.748686 
L 140.178407 194.748686 
L 140.26435 189.506209 
L 140.307161 189.506209 
L 140.392465 184.787979 
L 140.477347 184.787979 
L 140.477347 184.263731 
L 140.729508 184.263731 
L 140.812746 181.642493 
L 140.854214 181.642493 
L 140.936852 178.497006 
L 140.978022 178.497006 
L 140.978022 177.972759 
L 141.100945 177.972759 
L 141.100945 176.400016 
L 141.263487 176.400016 
L 141.263487 173.254529 
L 141.464526 173.254529 
L 141.544287 170.633291 
L 141.623681 170.633291 
L 141.623681 169.584795 
L 141.937637 169.584795 
L 141.937637 162.245327 
L 142.130987 162.245327 
L 142.130987 161.721079 
L 142.435893 161.721079 
L 142.511282 158.051345 
L 142.548853 158.051345 
L 142.586342 157.00285 
L 142.772569 157.00285 
L 142.772569 156.478602 
L 142.920112 156.478602 
L 143.029944 152.808868 
L 143.102777 152.808868 
L 143.102777 150.18763 
L 143.319443 150.18763 
L 143.426761 149.139134 
L 143.639406 149.139134 
L 143.744751 142.323914 
L 143.779723 142.323914 
L 143.779723 138.65418 
L 144.056965 138.65418 
L 144.091308 135.508693 
L 144.227997 135.508693 
L 144.227997 134.984446 
L 144.363608 134.984446 
L 144.431015 132.363207 
L 144.960957 132.363207 
L 145.026065 131.314712 
L 145.123268 131.314712 
L 145.219924 129.741969 
L 145.252022 129.741969 
L 145.252022 128.169225 
L 145.411621 128.169225 
L 145.411621 125.023739 
L 145.72644 125.023739 
L 145.72644 123.975244 
L 145.881713 123.975244 
L 145.9126 122.4025 
L 146.127269 122.4025 
L 146.218456 119.257014 
L 146.278979 119.257014 
L 146.278979 117.684271 
L 146.429362 117.684271 
L 146.459281 115.58728 
L 146.608101 115.58728 
L 146.667271 114.538785 
L 146.843566 114.538785 
L 146.843566 113.490289 
L 146.960099 113.490289 
L 147.046984 111.917546 
L 147.075848 111.917546 
L 147.075848 110.869051 
L 147.219446 110.869051 
L 147.305033 108.247812 
L 147.446737 108.247812 
L 147.446737 107.723564 
L 147.559266 107.723564 
L 147.559266 105.626573 
L 147.671062 105.626573 
L 147.671062 105.102326 
L 147.892497 105.102326 
L 147.974805 101.432592 
L 148.029459 101.432592 
L 148.056721 100.384096 
L 148.192385 100.384096 
L 148.192385 99.859849 
L 148.540183 99.859849 
L 148.619454 97.762858 
L 148.724584 97.762858 
L 148.776908 94.617371 
L 149.036169 94.617371 
L 149.087555 91.996133 
L 149.493205 91.996133 
L 149.493205 89.899142 
L 149.618032 89.899142 
L 149.618032 89.374894 
L 150.108469 89.374894 
L 150.108469 85.180912 
L 150.300791 85.180912 
L 150.300791 84.656665 
L 150.585299 84.656665 
L 150.655696 78.88994 
L 150.772388 78.88994 
L 150.772388 75.744454 
L 150.980457 75.744454 
L 150.980457 74.17171 
L 151.117784 74.17171 
L 151.208729 72.598967 
L 151.523301 72.598967 
L 151.523301 70.501976 
L 152.157156 70.501976 
L 152.178602 69.453481 
L 152.34921 69.453481 
L 152.34921 68.929233 
L 152.706225 68.929233 
L 152.789162 64.735251 
L 153.035598 64.735251 
L 153.035598 63.686756 
L 153.438633 63.686756 
L 153.438633 63.162508 
L 154.121973 63.162508 
L 154.121973 62.114013 
L 154.481859 62.114013 
L 154.481859 61.065517 
L 155.197773 61.065517 
L 155.197773 60.54127 
L 155.536037 60.54127 
L 155.536037 60.017022 
L 155.798464 60.017022 
L 155.798464 57.395783 
L 157.468255 57.395783 
L 157.468255 56.871536 
L 159.668686 56.871536 
L 159.668686 56.347288 
L 159.861664 56.347288 
L 159.861664 55.82304 
L 160.308147 55.82304 
L 160.388094 54.774545 
L 160.847184 54.774545 
L 160.924669 49.532068 
L 161.519841 49.532068 
L 161.519841 47.959324 
L 161.779251 47.959324 
L 161.779251 46.386581 
L 162.143173 46.386581 
L 162.143173 45.338086 
L 162.298511 45.338086 
L 162.298511 43.765343 
L 163.134315 43.765343 
L 163.134315 43.241095 
L 163.325865 43.241095 
L 163.325865 42.716847 
L 164.400844 42.716847 
L 164.453392 41.668352 
L 164.744732 41.668352 
L 164.744732 41.144104 
L 164.939652 41.144104 
L 164.939652 40.619856 
L 165.442279 40.619856 
L 165.442279 40.095609 
L 165.901712 40.095609 
L 165.988305 37.998618 
L 166.026651 37.998618 
L 166.093552 33.804636 
L 166.498896 33.804636 
L 166.498896 33.280388 
L 166.894901 33.280388 
L 166.894901 31.183397 
L 167.138972 31.183397 
L 167.228497 30.134902 
L 167.388475 30.134902 
L 167.388475 29.610654 
L 167.503095 29.610654 
L 167.608225 27.513663 
L 333.168 27.513663 
L 333.168 27.513663 
" style="fill:none;stroke:#ff00ff;stroke-linecap:square;stroke-width:1.5;"/>
   </g>
   <g id="line2d_48">
    <defs>
     <path d="M -0 8.485281 
L 5.091169 0 
L 0 -8.485281 
L -5.091169 -0 
z
" id="mfe6391a264" style="stroke:#ff00ff;stroke-linejoin:miter;stroke-width:1.5;"/>
    </defs>
    <g>
     <use style="fill-opacity:0;stroke:#ff00ff;stroke-linejoin:miter;stroke-width:1.5;" x="145.411621" xlink:href="#mfe6391a264" y="125.023739"/>
     <use style="fill-opacity:0;stroke:#ff00ff;stroke-linejoin:miter;stroke-width:1.5;" x="167.608225" xlink:href="#mfe6391a264" y="28.562159"/>
     <use style="fill-opacity:0;stroke:#ff00ff;stroke-linejoin:miter;stroke-width:1.5;" x="167.608225" xlink:href="#mfe6391a264" y="27.513663"/>
     <use style="fill-opacity:0;stroke:#ff00ff;stroke-linejoin:miter;stroke-width:1.5;" x="167.608225" xlink:href="#mfe6391a264" y="27.513663"/>
     <use style="fill-opacity:0;stroke:#ff00ff;stroke-linejoin:miter;stroke-width:1.5;" x="333.168" xlink:href="#mfe6391a264" y="27.513663"/>
    </g>
   </g>
   <g id="line2d_49">
    <path style="fill:none;stroke:#ff00ff;stroke-linecap:square;stroke-width:1.5;"/>
    <g/>
   </g>
   <g id="line2d_50">
    <defs>
     <path d="M 0 1.5 
C 0.397805 1.5 0.77937 1.341951 1.06066 1.06066 
C 1.341951 0.77937 1.5 0.397805 1.5 0 
C 1.5 -0.397805 1.341951 -0.77937 1.06066 -1.06066 
C 0.77937 -1.341951 0.397805 -1.5 0 -1.5 
C -0.397805 -1.5 -0.77937 -1.341951 -1.06066 -1.06066 
C -1.341951 -0.77937 -1.5 -0.397805 -1.5 0 
C -1.5 0.397805 -1.341951 0.77937 -1.06066 1.06066 
C -0.77937 1.341951 -0.397805 1.5 0 1.5 
z
" id="m9ce916a9f1" style="stroke:#ff7500;"/>
    </defs>
    <g>
     <use style="fill:#ff7500;stroke:#ff7500;" x="169.687014" xlink:href="#m9ce916a9f1" y="27.513663"/>
     <use style="fill:#ff7500;stroke:#ff7500;" x="169.687014" xlink:href="#m9ce916a9f1" y="27.513663"/>
    </g>
   </g>
   <g id="line2d_51">
    <path d="M 93.238578 294.88 
L 93.238578 293.831505 
L 108.176149 293.831505 
L 108.176149 293.307257 
L 109.76392 293.307257 
L 109.76392 290.686018 
L 119.09161 290.686018 
L 119.09161 290.161771 
L 119.237897 290.161771 
L 119.237897 288.589027 
L 120.365424 288.589027 
L 120.365424 285.967789 
L 120.769881 285.967789 
L 120.769881 284.919293 
L 124.036471 284.919293 
L 124.036471 283.34655 
L 124.471649 283.34655 
L 124.471649 282.298055 
L 124.896081 282.298055 
L 124.896081 281.773807 
L 125.513703 281.773807 
L 125.614517 278.628321 
L 125.913457 278.628321 
L 125.913457 277.579825 
L 126.304124 277.579825 
L 126.304124 275.482834 
L 126.496178 275.482834 
L 126.496178 274.434339 
L 126.68611 274.434339 
L 126.780294 272.861596 
L 127.05979 272.861596 
L 127.05979 272.337348 
L 127.959924 272.337348 
L 127.959924 270.764605 
L 128.39291 270.764605 
L 128.39291 269.716109 
L 128.815257 269.716109 
L 128.815257 268.667614 
L 129.389632 268.667614 
L 129.470141 266.046375 
L 129.70943 266.046375 
L 129.788458 263.949385 
L 129.945433 263.949385 
L 129.945433 263.425137 
L 130.407935 263.425137 
L 130.483823 258.18266 
L 130.858318 258.18266 
L 130.932248 256.085669 
L 131.005861 256.085669 
L 131.005861 255.561421 
L 131.583684 255.561421 
L 131.583684 255.037173 
L 131.795457 255.037173 
L 131.865471 253.46443 
L 132.211331 253.46443 
L 132.211331 252.940182 
L 132.483094 252.940182 
L 132.550368 250.843192 
L 132.882847 250.843192 
L 132.882847 250.318944 
L 133.144276 250.318944 
L 133.144276 249.794696 
L 133.273515 249.794696 
L 133.337771 248.746201 
L 133.401789 248.746201 
L 133.401789 247.697705 
L 133.592422 247.697705 
L 133.592422 246.64921 
L 133.718347 246.64921 
L 133.780965 245.600714 
L 133.905521 245.600714 
L 133.905521 245.076467 
L 134.151957 245.076467 
L 134.151957 244.027971 
L 134.273863 244.027971 
L 134.334493 242.979476 
L 134.39491 242.979476 
L 134.39491 242.455228 
L 134.811986 242.455228 
L 134.811986 240.882485 
L 134.98768 240.882485 
L 134.98768 237.212751 
L 135.504239 237.212751 
L 135.560688 235.11576 
L 135.616951 235.11576 
L 135.673032 234.067265 
L 135.72893 234.067265 
L 135.72893 233.018769 
L 135.895542 233.018769 
L 135.895542 231.970274 
L 136.862657 231.970274 
L 136.966831 228.30054 
L 137.275617 228.30054 
L 137.275617 227.776292 
L 137.528768 227.776292 
L 137.578954 224.106558 
L 137.926211 224.106558 
L 137.926211 223.58231 
L 138.362617 223.58231 
L 138.458109 222.533815 
L 138.647518 222.533815 
L 138.647518 221.485319 
L 139.384945 221.485319 
L 139.474938 217.815585 
L 139.519758 217.815585 
L 139.519758 217.291338 
L 139.653523 217.291338 
L 139.742124 216.242842 
L 139.786254 216.242842 
L 139.786254 211.524613 
L 140.048681 211.524613 
L 140.048681 211.000365 
L 140.307161 211.000365 
L 140.392465 209.95187 
L 140.434959 209.95187 
L 140.477347 208.903374 
L 140.60389 208.903374 
L 140.645865 207.330631 
L 140.729508 207.330631 
L 140.771177 206.282136 
L 140.854214 206.282136 
L 140.936852 204.709392 
L 141.100945 204.709392 
L 141.182408 202.612401 
L 141.263487 202.612401 
L 141.263487 201.039658 
L 141.464526 201.039658 
L 141.464526 199.991163 
L 141.742087 199.991163 
L 141.742087 199.466915 
L 141.859684 199.466915 
L 141.898705 198.41842 
L 142.015238 198.41842 
L 142.092491 197.369924 
L 142.169397 197.369924 
L 142.169397 196.845677 
L 142.284116 196.845677 
L 142.284116 195.272933 
L 142.435893 195.272933 
L 142.511282 193.175943 
L 142.586342 193.175943 
L 142.586342 192.127447 
L 142.69832 192.127447 
L 142.69832 191.603199 
L 142.809574 191.603199 
L 142.846499 188.457713 
L 142.993411 188.457713 
L 143.066399 186.360722 
L 143.139078 186.360722 
L 143.139078 185.312227 
L 143.391063 185.312227 
L 143.391063 184.263731 
L 143.533413 184.263731 
L 143.604148 181.118245 
L 143.674593 181.118245 
L 143.779723 179.021254 
L 143.918903 179.021254 
L 143.953522 177.448511 
L 144.091308 177.448511 
L 144.091308 176.924263 
L 144.262 176.924263 
L 144.262 175.875768 
L 144.431015 175.875768 
L 144.431015 174.827272 
L 144.598384 174.827272 
L 144.698028 170.633291 
L 144.731115 170.633291 
L 144.829995 165.915061 
L 144.862829 165.915061 
L 144.862829 165.390813 
L 145.026065 165.390813 
L 145.026065 164.866566 
L 145.252022 164.866566 
L 145.252022 164.342318 
L 145.475048 164.342318 
L 145.506674 163.293823 
L 145.819772 163.293823 
L 145.819772 161.721079 
L 146.39939 161.721079 
L 146.489148 160.672584 
L 146.548728 160.672584 
L 146.548728 160.148336 
L 146.93104 160.148336 
L 146.93104 158.051345 
L 147.162151 158.051345 
L 147.248023 152.28462 
L 147.474939 152.28462 
L 147.559266 149.139134 
L 147.615255 149.139134 
L 147.615255 148.614886 
L 147.947413 148.614886 
L 147.974805 147.566391 
L 148.165338 147.566391 
L 148.273273 144.420905 
L 148.407246 144.420905 
L 148.513678 142.848162 
L 148.540183 142.848162 
L 148.540183 142.323914 
L 148.672099 142.323914 
L 148.698361 140.751171 
L 148.855098 140.751171 
L 148.855098 139.178427 
L 148.984628 139.178427 
L 148.984628 138.129932 
L 149.138788 138.129932 
L 149.138788 137.605684 
L 149.31691 137.605684 
L 149.417871 134.460198 
L 149.56821 134.460198 
L 149.593139 133.411703 
L 149.791281 133.411703 
L 149.889502 129.741969 
L 149.91397 129.741969 
L 150.011494 128.693473 
L 150.035789 128.693473 
L 150.132627 127.644978 
L 150.156751 127.644978 
L 150.228922 126.596482 
L 150.419909 126.596482 
L 150.419909 126.072235 
L 150.679098 126.072235 
L 150.772388 122.926748 
L 150.795631 122.926748 
L 150.795631 121.354005 
L 150.91138 121.354005 
L 151.003421 119.781262 
L 151.049258 119.781262 
L 151.07213 118.732766 
L 151.163317 118.732766 
L 151.254022 114.538785 
L 151.321738 114.538785 
L 151.344251 113.490289 
L 151.478713 113.490289 
L 151.545552 112.441794 
L 151.678454 112.441794 
L 151.744522 109.820555 
L 151.810337 109.820555 
L 151.854074 107.723564 
L 151.984621 107.723564 
L 152.092658 105.626573 
L 152.20002 105.626573 
L 152.264117 100.908344 
L 152.370417 100.908344 
L 152.370417 100.384096 
L 152.539141 100.384096 
L 152.622886 98.287105 
L 152.664606 98.287105 
L 152.747744 96.190115 
L 152.851103 96.190115 
L 152.953845 94.093124 
L 153.015196 94.093124 
L 153.055976 90.42339 
L 153.218134 90.42339 
L 153.258436 87.277903 
L 153.378777 87.277903 
L 153.438633 85.70516 
L 153.498281 85.70516 
L 153.537932 83.083922 
L 153.61696 83.083922 
L 153.715237 81.511178 
L 153.754391 81.511178 
L 153.793457 78.88994 
L 153.948835 78.88994 
L 153.948835 78.365692 
L 154.274423 78.365692 
L 154.369023 76.792949 
L 154.425533 76.792949 
L 154.444329 74.695958 
L 154.705333 74.695958 
L 154.723825 72.598967 
L 154.871052 72.598967 
L 154.962432 71.550472 
L 154.998849 71.550472 
L 154.998849 71.026224 
L 155.233695 71.026224 
L 155.233695 70.501976 
L 155.376636 70.501976 
L 155.483068 68.929233 
L 155.971216 68.929233 
L 155.988396 67.880738 
L 156.091117 67.880738 
L 156.142248 65.783747 
L 156.429154 65.783747 
L 156.529282 64.735251 
L 156.793474 64.735251 
L 156.793474 64.211004 
L 156.988987 64.211004 
L 156.988987 63.686756 
L 157.749529 63.686756 
L 157.811415 62.638261 
L 158.04152 62.638261 
L 158.04152 62.114013 
L 158.298636 62.114013 
L 158.373532 61.065517 
L 158.477842 61.065517 
L 158.477842 60.54127 
L 158.772427 60.54127 
L 158.772427 60.017022 
L 158.888862 60.017022 
L 158.888862 59.492774 
L 159.018915 59.492774 
L 159.018915 58.968526 
L 159.190803 58.968526 
L 159.190803 57.395783 
L 159.360989 57.395783 
L 159.360989 56.871536 
L 159.875365 56.871536 
L 159.875365 56.347288 
L 160.052499 56.347288 
L 160.147128 55.298792 
L 160.187524 55.298792 
L 160.281415 53.726049 
L 160.599487 53.726049 
L 160.599487 53.201802 
L 160.756342 53.201802 
L 160.834236 51.629058 
L 160.937549 51.629058 
L 161.040245 50.580563 
L 161.142331 50.580563 
L 161.155049 49.532068 
L 161.382381 49.532068 
L 161.482461 47.959324 
L 161.50739 47.959324 
L 161.581961 46.386581 
L 161.643858 46.386581 
L 161.742431 42.716847 
L 161.986418 42.716847 
L 161.986418 42.192599 
L 162.11915 42.192599 
L 162.167163 41.144104 
L 162.250864 41.144104 
L 162.286612 40.095609 
L 162.440665 40.095609 
L 162.440665 38.522865 
L 162.894708 38.522865 
L 162.963509 35.901627 
L 163.020633 35.901627 
L 163.020633 34.853131 
L 163.348261 34.853131 
L 163.359447 32.756141 
L 164.199681 32.756141 
L 164.199681 32.231893 
L 164.980407 32.231893 
L 164.980407 31.707645 
L 167.450289 31.707645 
L 167.450289 31.183397 
L 168.368492 31.183397 
L 168.368492 30.65915 
L 168.870806 30.65915 
L 168.870806 30.134902 
L 168.99211 30.134902 
L 168.99211 29.610654 
L 169.160509 29.610654 
L 169.160509 28.562159 
L 169.295634 28.562159 
L 169.295634 28.037911 
L 169.687014 28.037911 
L 169.687014 27.513663 
L 333.168 27.513663 
L 333.168 27.513663 
" style="fill:none;stroke:#ff7500;stroke-linecap:square;stroke-width:1.5;"/>
   </g>
   <g id="line2d_52">
    <defs>
     <path d="M 0 -6 
L -1.347084 -1.854102 
L -5.706339 -1.854102 
L -2.179628 0.708204 
L -3.526712 4.854102 
L -0 2.291796 
L 3.526712 4.854102 
L 2.179628 0.708204 
L 5.706339 -1.854102 
L 1.347084 -1.854102 
z
" id="m1397ee203d" style="stroke:#ff7500;stroke-linejoin:bevel;stroke-width:1.5;"/>
    </defs>
    <g>
     <use style="fill-opacity:0;stroke:#ff7500;stroke-linejoin:bevel;stroke-width:1.5;" x="133.144276" xlink:href="#m1397ee203d" y="250.318944"/>
     <use style="fill-opacity:0;stroke:#ff7500;stroke-linejoin:bevel;stroke-width:1.5;" x="153.218134" xlink:href="#m1397ee203d" y="89.899142"/>
     <use style="fill-opacity:0;stroke:#ff7500;stroke-linejoin:bevel;stroke-width:1.5;" x="169.687014" xlink:href="#m1397ee203d" y="28.037911"/>
     <use style="fill-opacity:0;stroke:#ff7500;stroke-linejoin:bevel;stroke-width:1.5;" x="169.687014" xlink:href="#m1397ee203d" y="27.513663"/>
     <use style="fill-opacity:0;stroke:#ff7500;stroke-linejoin:bevel;stroke-width:1.5;" x="333.168" xlink:href="#m1397ee203d" y="27.513663"/>
    </g>
   </g>
   <g id="line2d_53">
    <path style="fill:none;stroke:#ff7500;stroke-linecap:square;stroke-width:1.5;"/>
    <g/>
   </g>
   <g id="line2d_54">
    <defs>
     <path d="M 0 1.5 
C 0.397805 1.5 0.77937 1.341951 1.06066 1.06066 
C 1.341951 0.77937 1.5 0.397805 1.5 0 
C 1.5 -0.397805 1.341951 -0.77937 1.06066 -1.06066 
C 0.77937 -1.341951 0.397805 -1.5 0 -1.5 
C -0.397805 -1.5 -0.77937 -1.341951 -1.06066 -1.06066 
C -1.341951 -0.77937 -1.5 -0.397805 -1.5 0 
C -1.5 0.397805 -1.341951 0.77937 -1.06066 1.06066 
C -0.77937 1.341951 -0.397805 1.5 0 1.5 
z
" id="m6f8f1a17f2" style="stroke:#6495ed;"/>
    </defs>
    <g>
     <use style="fill:#6495ed;stroke:#6495ed;" x="160.281415" xlink:href="#m6f8f1a17f2" y="27.513663"/>
     <use style="fill:#6495ed;stroke:#6495ed;" x="160.281415" xlink:href="#m6f8f1a17f2" y="27.513663"/>
    </g>
   </g>
   <g id="line2d_55">
    <path d="M 122.176427 294.88 
L 122.176427 294.355752 
L 122.298767 294.355752 
L 122.298767 293.307257 
L 124.578744 293.307257 
L 124.578744 292.783009 
L 125.310285 292.783009 
L 125.310285 290.686018 
L 128.39291 290.686018 
L 128.39291 289.113275 
L 128.815257 289.113275 
L 128.815257 288.06478 
L 130.100987 288.06478 
L 130.100987 287.540532 
L 131.725155 287.540532 
L 131.725155 287.016284 
L 132.483094 287.016284 
L 132.483094 285.967789 
L 132.948578 285.967789 
L 132.948578 285.443541 
L 133.529112 285.443541 
L 133.529112 284.395046 
L 134.334493 284.395046 
L 134.334493 283.34655 
L 134.98768 283.34655 
L 134.98768 281.773807 
L 135.390782 281.773807 
L 135.390782 281.249559 
L 135.616951 281.249559 
L 135.616951 280.201064 
L 136.223997 280.201064 
L 136.223997 279.676816 
L 136.546293 279.676816 
L 136.546293 279.152568 
L 136.914823 279.152568 
L 136.966831 278.104073 
L 137.478435 278.104073 
L 137.578954 277.055578 
L 137.827708 277.055578 
L 137.926211 274.958587 
L 138.694545 274.958587 
L 138.788217 272.861596 
L 138.834862 272.861596 
L 138.834862 272.337348 
L 139.294478 272.337348 
L 139.294478 271.8131 
L 139.43 271.8131 
L 139.519758 269.191862 
L 140.477347 269.191862 
L 140.477347 268.667614 
L 140.687737 268.667614 
L 140.687737 268.143366 
L 141.141725 268.143366 
L 141.141725 267.619119 
L 141.702709 267.619119 
L 141.702709 267.094871 
L 142.993411 267.094871 
L 142.993411 266.570623 
L 143.247524 266.570623 
L 143.247524 266.046375 
L 143.988072 266.046375 
L 143.988072 265.522128 
L 144.125582 265.522128 
L 144.125582 264.99788 
L 144.295937 264.99788 
L 144.295937 264.473632 
L 144.698028 264.473632 
L 144.698028 263.949385 
L 145.252022 263.949385 
L 145.347959 262.900889 
L 145.974208 262.900889 
L 145.974208 262.376641 
L 146.096766 262.376641 
L 146.096766 261.852394 
L 146.218456 261.852394 
L 146.309161 258.18266 
L 146.33929 258.18266 
L 146.33929 257.134164 
L 146.459281 257.134164 
L 146.459281 256.609917 
L 146.667271 256.609917 
L 146.755644 255.561421 
L 146.901931 255.561421 
L 146.901931 255.037173 
L 147.390196 255.037173 
L 147.474939 253.988678 
L 147.698898 253.988678 
L 147.698898 253.46443 
L 147.892497 253.46443 
L 147.919977 252.415935 
L 148.056721 252.415935 
L 148.056721 251.891687 
L 148.273273 251.891687 
L 148.353782 250.318944 
L 148.407246 250.318944 
L 148.407246 249.794696 
L 148.619454 249.794696 
L 148.698361 247.173458 
L 148.881082 247.173458 
L 148.984628 243.503724 
L 149.036169 243.503724 
L 149.138788 242.455228 
L 149.164347 242.455228 
L 149.266206 239.83399 
L 149.31691 239.83399 
L 149.367465 237.736999 
L 149.443019 237.736999 
L 149.518243 235.11576 
L 149.618032 235.11576 
L 149.692496 232.494521 
L 149.766638 232.494521 
L 149.864999 230.921778 
L 149.889502 230.921778 
L 149.962801 228.30054 
L 150.06005 228.30054 
L 150.06005 227.776292 
L 150.228922 227.776292 
L 150.324681 224.630806 
L 150.372361 224.630806 
L 150.419909 223.058063 
L 150.514612 223.058063 
L 150.585299 220.961072 
L 150.632262 220.961072 
L 150.702468 217.291338 
L 150.772388 217.291338 
L 150.818844 215.718594 
L 151.049258 215.718594 
L 151.117784 209.95187 
L 151.299196 209.95187 
L 151.366735 208.379126 
L 151.411614 208.379126 
L 151.501022 203.136649 
L 151.545552 203.136649 
L 151.567774 201.563906 
L 151.678454 201.563906 
L 151.788427 195.272933 
L 151.832219 195.272933 
L 151.941216 193.175943 
L 151.962932 193.175943 
L 152.006283 187.933465 
L 152.092658 187.933465 
L 152.20002 185.312227 
L 152.264117 185.312227 
L 152.370417 182.16674 
L 152.433883 182.16674 
L 152.539141 178.497006 
L 152.601988 178.497006 
L 152.706225 172.730281 
L 152.747744 172.730281 
L 152.851103 170.109043 
L 152.892274 170.109043 
L 152.99477 164.342318 
L 153.116965 164.342318 
L 153.157504 162.245327 
L 153.278551 162.245327 
L 153.358778 158.575593 
L 153.398752 158.575593 
L 153.438633 157.527098 
L 153.537932 157.527098 
L 153.61696 151.236125 
L 153.656339 151.236125 
L 153.715237 146.517896 
L 153.773935 146.517896 
L 153.793457 145.4694 
L 153.910122 145.4694 
L 154.006742 141.275418 
L 154.026001 141.275418 
L 154.121973 138.65418 
L 154.198367 138.65418 
L 154.293385 130.790464 
L 154.369023 130.790464 
L 154.444329 126.072235 
L 154.481859 126.072235 
L 154.538 122.4025 
L 154.834363 122.4025 
L 154.944195 114.538785 
L 155.05333 114.538785 
L 155.161776 110.869051 
L 155.197773 110.869051 
L 155.233695 109.296308 
L 155.323172 109.296308 
L 155.394421 101.432592 
L 155.465375 101.432592 
L 155.518399 96.714362 
L 155.623959 96.714362 
L 155.711433 90.947637 
L 155.763705 90.947637 
L 155.867773 87.802151 
L 155.885057 87.802151 
L 155.954019 84.656665 
L 156.074039 84.656665 
L 156.176252 79.938435 
L 156.227131 79.938435 
L 156.328439 78.365692 
L 156.362076 78.365692 
L 156.429154 76.268701 
L 156.479291 76.268701 
L 156.579129 70.501976 
L 156.612279 70.501976 
L 156.711349 65.259499 
L 156.77708 65.259499 
L 156.875208 61.065517 
L 156.891508 61.065517 
L 156.988987 58.444279 
L 157.021357 58.444279 
L 157.069798 56.347288 
L 157.166274 56.347288 
L 157.246258 53.726049 
L 157.278148 53.726049 
L 157.309979 51.629058 
L 157.420925 51.629058 
L 157.531159 48.483572 
L 157.562525 48.483572 
L 157.640691 45.862334 
L 157.68742 45.862334 
L 157.795964 40.095609 
L 157.811415 40.095609 
L 157.811415 39.571361 
L 157.949847 39.571361 
L 157.980459 37.47437 
L 158.253541 37.47437 
L 158.358579 35.901627 
L 158.507528 35.901627 
L 158.507528 35.377379 
L 158.68458 35.377379 
L 158.757817 33.804636 
L 158.859827 33.804636 
L 158.859827 31.183397 
L 159.047683 31.183397 
L 159.047683 30.65915 
L 159.431405 30.65915 
L 159.501534 28.037911 
L 160.281415 28.037911 
L 160.281415 27.513663 
L 333.168 27.513663 
L 333.168 27.513663 
" style="fill:none;stroke:#6495ed;stroke-linecap:square;stroke-width:1.5;"/>
   </g>
   <g id="line2d_56">
    <defs>
     <path d="M -0 6 
L 6 -6 
L -6 -6 
z
" id="m5a0fcbebbd" style="stroke:#6495ed;stroke-linejoin:miter;stroke-width:1.5;"/>
    </defs>
    <g>
     <use style="fill-opacity:0;stroke:#6495ed;stroke-linejoin:miter;stroke-width:1.5;" x="154.121973" xlink:href="#m5a0fcbebbd" y="138.65418"/>
     <use style="fill-opacity:0;stroke:#6495ed;stroke-linejoin:miter;stroke-width:1.5;" x="160.281415" xlink:href="#m5a0fcbebbd" y="28.037911"/>
     <use style="fill-opacity:0;stroke:#6495ed;stroke-linejoin:miter;stroke-width:1.5;" x="160.281415" xlink:href="#m5a0fcbebbd" y="27.513663"/>
     <use style="fill-opacity:0;stroke:#6495ed;stroke-linejoin:miter;stroke-width:1.5;" x="160.281415" xlink:href="#m5a0fcbebbd" y="27.513663"/>
     <use style="fill-opacity:0;stroke:#6495ed;stroke-linejoin:miter;stroke-width:1.5;" x="333.168" xlink:href="#m5a0fcbebbd" y="27.513663"/>
    </g>
   </g>
   <g id="line2d_57">
    <path style="fill:none;stroke:#6495ed;stroke-linecap:square;stroke-width:1.5;"/>
    <g/>
   </g>
   <g id="line2d_58">
    <path d="M 333.168 27.513663 
L 363.64328 289.532673 
" style="fill:none;stroke:#ff7500;stroke-linecap:square;stroke-width:1.5;"/>
    <g>
     <use style="fill-opacity:0;stroke:#ff7500;stroke-linejoin:bevel;stroke-width:1.5;" x="333.168" xlink:href="#m1397ee203d" y="27.513663"/>
     <use style="fill-opacity:0;stroke:#ff7500;stroke-linejoin:bevel;stroke-width:1.5;" x="363.64328" xlink:href="#m1397ee203d" y="289.532673"/>
    </g>
   </g>
   <g id="line2d_59">
    <path d="M 333.168 27.513663 
L 363.64328 225.364752 
" style="fill:none;stroke:#ff00ff;stroke-linecap:square;stroke-width:1.5;"/>
    <g>
     <use style="fill-opacity:0;stroke:#ff00ff;stroke-linejoin:miter;stroke-width:1.5;" x="333.168" xlink:href="#mfe6391a264" y="27.513663"/>
     <use style="fill-opacity:0;stroke:#ff00ff;stroke-linejoin:miter;stroke-width:1.5;" x="363.64328" xlink:href="#mfe6391a264" y="225.364752"/>
    </g>
   </g>
   <g id="line2d_60">
    <path d="M 333.168 27.513663 
L 363.64328 161.196832 
" style="fill:none;stroke:#000080;stroke-linecap:square;stroke-width:1.5;"/>
    <g>
     <use style="fill-opacity:0;stroke:#000080;stroke-width:1.5;" x="333.168" xlink:href="#mb03acc3d32" y="27.513663"/>
     <use style="fill-opacity:0;stroke:#000080;stroke-width:1.5;" x="363.64328" xlink:href="#mb03acc3d32" y="161.196832"/>
    </g>
   </g>
   <g id="line2d_61">
    <path d="M 333.168 27.513663 
L 363.64328 97.028911 
" style="fill:none;stroke:#6495ed;stroke-linecap:square;stroke-width:1.5;"/>
    <g>
     <use style="fill-opacity:0;stroke:#6495ed;stroke-linejoin:miter;stroke-width:1.5;" x="333.168" xlink:href="#m5a0fcbebbd" y="27.513663"/>
     <use style="fill-opacity:0;stroke:#6495ed;stroke-linejoin:miter;stroke-width:1.5;" x="363.64328" xlink:href="#m5a0fcbebbd" y="97.028911"/>
    </g>
   </g>
   <g id="line2d_62">
    <path d="M 333.168 294.88 
L 333.168 27.513663 
" style="fill:none;stroke:#000000;stroke-linecap:square;stroke-width:1.5;"/>
   </g>
   <g id="patch_3">
    <path d="M 56.12 294.88 
L 56.12 24.84 
" style="fill:none;stroke:#000000;stroke-linecap:square;stroke-linejoin:miter;stroke-width:0.8;"/>
   </g>
   <g id="patch_4">
    <path d="M 333.168 294.88 
L 333.168 24.84 
" style="fill:none;stroke:#000000;stroke-linecap:square;stroke-linejoin:miter;stroke-width:0.8;"/>
   </g>
   <g id="patch_5">
    <path d="M 56.12 294.88 
L 333.168 294.88 
" style="fill:none;stroke:#000000;stroke-linecap:square;stroke-linejoin:miter;stroke-width:0.8;"/>
   </g>
   <g id="patch_6">
    <path d="M 56.12 24.84 
L 333.168 24.84 
" style="fill:none;stroke:#000000;stroke-linecap:square;stroke-linejoin:miter;stroke-width:0.8;"/>
   </g>
   <g id="text_13">
    <!-- R-SHADE-Tan -->
    <defs>
     <path d="M 44.390625 34.1875 
Q 47.5625 33.109375 50.5625 29.59375 
Q 53.5625 26.078125 56.59375 19.921875 
L 66.609375 0 
L 56 0 
L 46.6875 18.703125 
Q 43.0625 26.03125 39.671875 28.421875 
Q 36.28125 30.8125 30.421875 30.8125 
L 19.671875 30.8125 
L 19.671875 0 
L 9.8125 0 
L 9.8125 72.90625 
L 32.078125 72.90625 
Q 44.578125 72.90625 50.734375 67.671875 
Q 56.890625 62.453125 56.890625 51.90625 
Q 56.890625 45.015625 53.6875 40.46875 
Q 50.484375 35.9375 44.390625 34.1875 
z
M 19.671875 64.796875 
L 19.671875 38.921875 
L 32.078125 38.921875 
Q 39.203125 38.921875 42.84375 42.21875 
Q 46.484375 45.515625 46.484375 51.90625 
Q 46.484375 58.296875 42.84375 61.546875 
Q 39.203125 64.796875 32.078125 64.796875 
z
" id="DejaVuSans-52"/>
     <path d="M 53.515625 70.515625 
L 53.515625 60.890625 
Q 47.90625 63.578125 42.921875 64.890625 
Q 37.9375 66.21875 33.296875 66.21875 
Q 25.25 66.21875 20.875 63.09375 
Q 16.5 59.96875 16.5 54.203125 
Q 16.5 49.359375 19.40625 46.890625 
Q 22.3125 44.4375 30.421875 42.921875 
L 36.375 41.703125 
Q 47.40625 39.59375 52.65625 34.296875 
Q 57.90625 29 57.90625 20.125 
Q 57.90625 9.515625 50.796875 4.046875 
Q 43.703125 -1.421875 29.984375 -1.421875 
Q 24.8125 -1.421875 18.96875 -0.25 
Q 13.140625 0.921875 6.890625 3.21875 
L 6.890625 13.375 
Q 12.890625 10.015625 18.65625 8.296875 
Q 24.421875 6.59375 29.984375 6.59375 
Q 38.421875 6.59375 43.015625 9.90625 
Q 47.609375 13.234375 47.609375 19.390625 
Q 47.609375 24.75 44.3125 27.78125 
Q 41.015625 30.8125 33.5 32.328125 
L 27.484375 33.5 
Q 16.453125 35.6875 11.515625 40.375 
Q 6.59375 45.0625 6.59375 53.421875 
Q 6.59375 63.09375 13.40625 68.65625 
Q 20.21875 74.21875 32.171875 74.21875 
Q 37.3125 74.21875 42.625 73.28125 
Q 47.953125 72.359375 53.515625 70.515625 
z
" id="DejaVuSans-53"/>
     <path d="M 9.8125 72.90625 
L 19.671875 72.90625 
L 19.671875 43.015625 
L 55.515625 43.015625 
L 55.515625 72.90625 
L 65.375 72.90625 
L 65.375 0 
L 55.515625 0 
L 55.515625 34.71875 
L 19.671875 34.71875 
L 19.671875 0 
L 9.8125 0 
z
" id="DejaVuSans-48"/>
     <path d="M 34.1875 63.1875 
L 20.796875 26.90625 
L 47.609375 26.90625 
z
M 28.609375 72.90625 
L 39.796875 72.90625 
L 67.578125 0 
L 57.328125 0 
L 50.6875 18.703125 
L 17.828125 18.703125 
L 11.1875 0 
L 0.78125 0 
z
" id="DejaVuSans-41"/>
     <path d="M 19.671875 64.796875 
L 19.671875 8.109375 
L 31.59375 8.109375 
Q 46.6875 8.109375 53.6875 14.9375 
Q 60.6875 21.78125 60.6875 36.53125 
Q 60.6875 51.171875 53.6875 57.984375 
Q 46.6875 64.796875 31.59375 64.796875 
z
M 9.8125 72.90625 
L 30.078125 72.90625 
Q 51.265625 72.90625 61.171875 64.09375 
Q 71.09375 55.28125 71.09375 36.53125 
Q 71.09375 17.671875 61.125 8.828125 
Q 51.171875 0 30.078125 0 
L 9.8125 0 
z
" id="DejaVuSans-44"/>
     <path d="M 9.8125 72.90625 
L 55.90625 72.90625 
L 55.90625 64.59375 
L 19.671875 64.59375 
L 19.671875 43.015625 
L 54.390625 43.015625 
L 54.390625 34.71875 
L 19.671875 34.71875 
L 19.671875 8.296875 
L 56.78125 8.296875 
L 56.78125 0 
L 9.8125 0 
z
" id="DejaVuSans-45"/>
     <path d="M -0.296875 72.90625 
L 61.375 72.90625 
L 61.375 64.59375 
L 35.5 64.59375 
L 35.5 0 
L 25.59375 0 
L 25.59375 64.59375 
L -0.296875 64.59375 
z
" id="DejaVuSans-54"/>
    </defs>
    <g transform="translate(369.18424 294.223611)scale(0.17 -0.17)">
     <use xlink:href="#DejaVuSans-52"/>
     <use x="69.419922" xlink:href="#DejaVuSans-2d"/>
     <use x="105.503906" xlink:href="#DejaVuSans-53"/>
     <use x="168.980469" xlink:href="#DejaVuSans-48"/>
     <use x="244.175781" xlink:href="#DejaVuSans-41"/>
     <use x="312.583984" xlink:href="#DejaVuSans-44"/>
     <use x="389.585938" xlink:href="#DejaVuSans-45"/>
     <use x="452.769531" xlink:href="#DejaVuSans-2d"/>
     <use x="488.712891" xlink:href="#DejaVuSans-54"/>
     <use x="549.546875" xlink:href="#DejaVuSans-61"/>
     <use x="610.826172" xlink:href="#DejaVuSans-6e"/>
    </g>
   </g>
   <g id="text_14">
    <!-- SHADE-LM-PO -->
    <defs>
     <path d="M 9.8125 72.90625 
L 19.671875 72.90625 
L 19.671875 8.296875 
L 55.171875 8.296875 
L 55.171875 0 
L 9.8125 0 
z
" id="DejaVuSans-4c"/>
     <path d="M 9.8125 72.90625 
L 24.515625 72.90625 
L 43.109375 23.296875 
L 61.8125 72.90625 
L 76.515625 72.90625 
L 76.515625 0 
L 66.890625 0 
L 66.890625 64.015625 
L 48.09375 14.015625 
L 38.1875 14.015625 
L 19.390625 64.015625 
L 19.390625 0 
L 9.8125 0 
z
" id="DejaVuSans-4d"/>
     <path d="M 19.671875 64.796875 
L 19.671875 37.40625 
L 32.078125 37.40625 
Q 38.96875 37.40625 42.71875 40.96875 
Q 46.484375 44.53125 46.484375 51.125 
Q 46.484375 57.671875 42.71875 61.234375 
Q 38.96875 64.796875 32.078125 64.796875 
z
M 9.8125 72.90625 
L 32.078125 72.90625 
Q 44.34375 72.90625 50.609375 67.359375 
Q 56.890625 61.8125 56.890625 51.125 
Q 56.890625 40.328125 50.609375 34.8125 
Q 44.34375 29.296875 32.078125 29.296875 
L 19.671875 29.296875 
L 19.671875 0 
L 9.8125 0 
z
" id="DejaVuSans-50"/>
     <path d="M 39.40625 66.21875 
Q 28.65625 66.21875 22.328125 58.203125 
Q 16.015625 50.203125 16.015625 36.375 
Q 16.015625 22.609375 22.328125 14.59375 
Q 28.65625 6.59375 39.40625 6.59375 
Q 50.140625 6.59375 56.421875 14.59375 
Q 62.703125 22.609375 62.703125 36.375 
Q 62.703125 50.203125 56.421875 58.203125 
Q 50.140625 66.21875 39.40625 66.21875 
z
M 39.40625 74.21875 
Q 54.734375 74.21875 63.90625 63.9375 
Q 73.09375 53.65625 73.09375 36.375 
Q 73.09375 19.140625 63.90625 8.859375 
Q 54.734375 -1.421875 39.40625 -1.421875 
Q 24.03125 -1.421875 14.8125 8.828125 
Q 5.609375 19.09375 5.609375 36.375 
Q 5.609375 53.65625 14.8125 63.9375 
Q 24.03125 74.21875 39.40625 74.21875 
z
" id="DejaVuSans-4f"/>
    </defs>
    <g transform="translate(369.18424 230.05569)scale(0.17 -0.17)">
     <use xlink:href="#DejaVuSans-53"/>
     <use x="63.476562" xlink:href="#DejaVuSans-48"/>
     <use x="138.671875" xlink:href="#DejaVuSans-41"/>
     <use x="207.080078" xlink:href="#DejaVuSans-44"/>
     <use x="284.082031" xlink:href="#DejaVuSans-45"/>
     <use x="347.265625" xlink:href="#DejaVuSans-2d"/>
     <use x="383.349609" xlink:href="#DejaVuSans-4c"/>
     <use x="439.0625" xlink:href="#DejaVuSans-4d"/>
     <use x="525.341797" xlink:href="#DejaVuSans-2d"/>
     <use x="561.425781" xlink:href="#DejaVuSans-50"/>
     <use x="621.728516" xlink:href="#DejaVuSans-4f"/>
    </g>
   </g>
   <g id="text_15">
    <!-- SHADE-LM -->
    <g transform="translate(369.18424 165.887769)scale(0.17 -0.17)">
     <use xlink:href="#DejaVuSans-53"/>
     <use x="63.476562" xlink:href="#DejaVuSans-48"/>
     <use x="138.671875" xlink:href="#DejaVuSans-41"/>
     <use x="207.080078" xlink:href="#DejaVuSans-44"/>
     <use x="284.082031" xlink:href="#DejaVuSans-45"/>
     <use x="347.265625" xlink:href="#DejaVuSans-2d"/>
     <use x="383.349609" xlink:href="#DejaVuSans-4c"/>
     <use x="439.0625" xlink:href="#DejaVuSans-4d"/>
    </g>
   </g>
   <g id="text_16">
    <!-- KL-BIPOP-CM -->
    <defs>
     <path d="M 9.8125 72.90625 
L 19.671875 72.90625 
L 19.671875 42.09375 
L 52.390625 72.90625 
L 65.09375 72.90625 
L 28.90625 38.921875 
L 67.671875 0 
L 54.6875 0 
L 19.671875 35.109375 
L 19.671875 0 
L 9.8125 0 
z
" id="DejaVuSans-4b"/>
     <path d="M 19.671875 34.8125 
L 19.671875 8.109375 
L 35.5 8.109375 
Q 43.453125 8.109375 47.28125 11.40625 
Q 51.125 14.703125 51.125 21.484375 
Q 51.125 28.328125 47.28125 31.5625 
Q 43.453125 34.8125 35.5 34.8125 
z
M 19.671875 64.796875 
L 19.671875 42.828125 
L 34.28125 42.828125 
Q 41.5 42.828125 45.03125 45.53125 
Q 48.578125 48.25 48.578125 53.8125 
Q 48.578125 59.328125 45.03125 62.0625 
Q 41.5 64.796875 34.28125 64.796875 
z
M 9.8125 72.90625 
L 35.015625 72.90625 
Q 46.296875 72.90625 52.390625 68.21875 
Q 58.5 63.53125 58.5 54.890625 
Q 58.5 48.1875 55.375 44.234375 
Q 52.25 40.28125 46.1875 39.3125 
Q 53.46875 37.75 57.5 32.78125 
Q 61.53125 27.828125 61.53125 20.40625 
Q 61.53125 10.640625 54.890625 5.3125 
Q 48.25 0 35.984375 0 
L 9.8125 0 
z
" id="DejaVuSans-42"/>
     <path d="M 9.8125 72.90625 
L 19.671875 72.90625 
L 19.671875 0 
L 9.8125 0 
z
" id="DejaVuSans-49"/>
     <path d="M 64.40625 67.28125 
L 64.40625 56.890625 
Q 59.421875 61.53125 53.78125 63.8125 
Q 48.140625 66.109375 41.796875 66.109375 
Q 29.296875 66.109375 22.65625 58.46875 
Q 16.015625 50.828125 16.015625 36.375 
Q 16.015625 21.96875 22.65625 14.328125 
Q 29.296875 6.6875 41.796875 6.6875 
Q 48.140625 6.6875 53.78125 8.984375 
Q 59.421875 11.28125 64.40625 15.921875 
L 64.40625 5.609375 
Q 59.234375 2.09375 53.4375 0.328125 
Q 47.65625 -1.421875 41.21875 -1.421875 
Q 24.65625 -1.421875 15.125 8.703125 
Q 5.609375 18.84375 5.609375 36.375 
Q 5.609375 53.953125 15.125 64.078125 
Q 24.65625 74.21875 41.21875 74.21875 
Q 47.75 74.21875 53.53125 72.484375 
Q 59.328125 70.75 64.40625 67.28125 
z
" id="DejaVuSans-43"/>
    </defs>
    <g transform="translate(369.18424 101.719848)scale(0.17 -0.17)">
     <use xlink:href="#DejaVuSans-4b"/>
     <use x="65.576172" xlink:href="#DejaVuSans-4c"/>
     <use x="121.273438" xlink:href="#DejaVuSans-2d"/>
     <use x="157.310547" xlink:href="#DejaVuSans-42"/>
     <use x="225.914062" xlink:href="#DejaVuSans-49"/>
     <use x="255.40625" xlink:href="#DejaVuSans-50"/>
     <use x="315.708984" xlink:href="#DejaVuSans-4f"/>
     <use x="394.419922" xlink:href="#DejaVuSans-50"/>
     <use x="454.691406" xlink:href="#DejaVuSans-2d"/>
     <use x="490.775391" xlink:href="#DejaVuSans-43"/>
     <use x="560.599609" xlink:href="#DejaVuSans-4d"/>
    </g>
   </g>
   <g id="text_17">
    <!-- best 2009 -->
    <defs>
     <path d="M 48.6875 27.296875 
Q 48.6875 37.203125 44.609375 42.84375 
Q 40.53125 48.484375 33.40625 48.484375 
Q 26.265625 48.484375 22.1875 42.84375 
Q 18.109375 37.203125 18.109375 27.296875 
Q 18.109375 17.390625 22.1875 11.75 
Q 26.265625 6.109375 33.40625 6.109375 
Q 40.53125 6.109375 44.609375 11.75 
Q 48.6875 17.390625 48.6875 27.296875 
z
M 18.109375 46.390625 
Q 20.953125 51.265625 25.265625 53.625 
Q 29.59375 56 35.59375 56 
Q 45.5625 56 51.78125 48.09375 
Q 58.015625 40.1875 58.015625 27.296875 
Q 58.015625 14.40625 51.78125 6.484375 
Q 45.5625 -1.421875 35.59375 -1.421875 
Q 29.59375 -1.421875 25.265625 0.953125 
Q 20.953125 3.328125 18.109375 8.203125 
L 18.109375 0 
L 9.078125 0 
L 9.078125 75.984375 
L 18.109375 75.984375 
z
" id="DejaVuSans-62"/>
     <path d="M 10.984375 1.515625 
L 10.984375 10.5 
Q 14.703125 8.734375 18.5 7.8125 
Q 22.3125 6.890625 25.984375 6.890625 
Q 35.75 6.890625 40.890625 13.453125 
Q 46.046875 20.015625 46.78125 33.40625 
Q 43.953125 29.203125 39.59375 26.953125 
Q 35.25 24.703125 29.984375 24.703125 
Q 19.046875 24.703125 12.671875 31.3125 
Q 6.296875 37.9375 6.296875 49.421875 
Q 6.296875 60.640625 12.9375 67.421875 
Q 19.578125 74.21875 30.609375 74.21875 
Q 43.265625 74.21875 49.921875 64.515625 
Q 56.59375 54.828125 56.59375 36.375 
Q 56.59375 19.140625 48.40625 8.859375 
Q 40.234375 -1.421875 26.421875 -1.421875 
Q 22.703125 -1.421875 18.890625 -0.6875 
Q 15.09375 0.046875 10.984375 1.515625 
z
M 30.609375 32.421875 
Q 37.25 32.421875 41.125 36.953125 
Q 45.015625 41.5 45.015625 49.421875 
Q 45.015625 57.28125 41.125 61.84375 
Q 37.25 66.40625 30.609375 66.40625 
Q 23.96875 66.40625 20.09375 61.84375 
Q 16.21875 57.28125 16.21875 49.421875 
Q 16.21875 41.5 20.09375 36.953125 
Q 23.96875 32.421875 30.609375 32.421875 
z
" id="DejaVuSans-39"/>
    </defs>
    <g transform="translate(369.18424 37.551928)scale(0.17 -0.17)">
     <use xlink:href="#DejaVuSans-62"/>
     <use x="63.476562" xlink:href="#DejaVuSans-65"/>
     <use x="125" xlink:href="#DejaVuSans-73"/>
     <use x="177.099609" xlink:href="#DejaVuSans-74"/>
     <use x="216.308594" xlink:href="#DejaVuSans-20"/>
     <use x="248.095703" xlink:href="#DejaVuSans-32"/>
     <use x="311.71875" xlink:href="#DejaVuSans-30"/>
     <use x="375.341797" xlink:href="#DejaVuSans-30"/>
     <use x="438.964844" xlink:href="#DejaVuSans-39"/>
    </g>
   </g>
   <g id="text_18">
    <!-- bbob f10, 3-D -->
    <defs>
     <path d="M 40.578125 39.3125 
Q 47.65625 37.796875 51.625 33 
Q 55.609375 28.21875 55.609375 21.1875 
Q 55.609375 10.40625 48.1875 4.484375 
Q 40.765625 -1.421875 27.09375 -1.421875 
Q 22.515625 -1.421875 17.65625 -0.515625 
Q 12.796875 0.390625 7.625 2.203125 
L 7.625 11.71875 
Q 11.71875 9.328125 16.59375 8.109375 
Q 21.484375 6.890625 26.8125 6.890625 
Q 36.078125 6.890625 40.9375 10.546875 
Q 45.796875 14.203125 45.796875 21.1875 
Q 45.796875 27.640625 41.28125 31.265625 
Q 36.765625 34.90625 28.71875 34.90625 
L 20.21875 34.90625 
L 20.21875 43.015625 
L 29.109375 43.015625 
Q 36.375 43.015625 40.234375 45.921875 
Q 44.09375 48.828125 44.09375 54.296875 
Q 44.09375 59.90625 40.109375 62.90625 
Q 36.140625 65.921875 28.71875 65.921875 
Q 24.65625 65.921875 20.015625 65.03125 
Q 15.375 64.15625 9.8125 62.3125 
L 9.8125 71.09375 
Q 15.4375 72.65625 20.34375 73.4375 
Q 25.25 74.21875 29.59375 74.21875 
Q 40.828125 74.21875 47.359375 69.109375 
Q 53.90625 64.015625 53.90625 55.328125 
Q 53.90625 49.265625 50.4375 45.09375 
Q 46.96875 40.921875 40.578125 39.3125 
z
" id="DejaVuSans-33"/>
    </defs>
    <g transform="translate(58.89048 35.290806)scale(0.102 -0.102)">
     <use xlink:href="#DejaVuSans-62"/>
     <use x="63.476562" xlink:href="#DejaVuSans-62"/>
     <use x="126.953125" xlink:href="#DejaVuSans-6f"/>
     <use x="188.134766" xlink:href="#DejaVuSans-62"/>
     <use x="251.611328" xlink:href="#DejaVuSans-20"/>
     <use x="283.398438" xlink:href="#DejaVuSans-66"/>
     <use x="318.603516" xlink:href="#DejaVuSans-31"/>
     <use x="382.226562" xlink:href="#DejaVuSans-30"/>
     <use x="445.849609" xlink:href="#DejaVuSans-2c"/>
     <use x="477.636719" xlink:href="#DejaVuSans-20"/>
     <use x="509.423828" xlink:href="#DejaVuSans-33"/>
     <use x="573.046875" xlink:href="#DejaVuSans-2d"/>
     <use x="609.130859" xlink:href="#DejaVuSans-44"/>
    </g>
    <!-- 51 targets: 100..1e-08 -->
    <defs>
     <path d="M 10.796875 72.90625 
L 49.515625 72.90625 
L 49.515625 64.59375 
L 19.828125 64.59375 
L 19.828125 46.734375 
Q 21.96875 47.46875 24.109375 47.828125 
Q 26.265625 48.1875 28.421875 48.1875 
Q 40.625 48.1875 47.75 41.5 
Q 54.890625 34.8125 54.890625 23.390625 
Q 54.890625 11.625 47.5625 5.09375 
Q 40.234375 -1.421875 26.90625 -1.421875 
Q 22.3125 -1.421875 17.546875 -0.640625 
Q 12.796875 0.140625 7.71875 1.703125 
L 7.71875 11.625 
Q 12.109375 9.234375 16.796875 8.0625 
Q 21.484375 6.890625 26.703125 6.890625 
Q 35.15625 6.890625 40.078125 11.328125 
Q 45.015625 15.765625 45.015625 23.390625 
Q 45.015625 31 40.078125 35.4375 
Q 35.15625 39.890625 26.703125 39.890625 
Q 22.75 39.890625 18.8125 39.015625 
Q 14.890625 38.140625 10.796875 36.28125 
z
" id="DejaVuSans-35"/>
     <path d="M 11.71875 12.40625 
L 22.015625 12.40625 
L 22.015625 0 
L 11.71875 0 
z
M 11.71875 51.703125 
L 22.015625 51.703125 
L 22.015625 39.3125 
L 11.71875 39.3125 
z
" id="DejaVuSans-3a"/>
    </defs>
    <g transform="translate(58.89048 46.712575)scale(0.102 -0.102)">
     <use xlink:href="#DejaVuSans-35"/>
     <use x="63.623047" xlink:href="#DejaVuSans-31"/>
     <use x="127.246094" xlink:href="#DejaVuSans-20"/>
     <use x="159.033203" xlink:href="#DejaVuSans-74"/>
     <use x="198.242188" xlink:href="#DejaVuSans-61"/>
     <use x="259.521484" xlink:href="#DejaVuSans-72"/>
     <use x="300.619141" xlink:href="#DejaVuSans-67"/>
     <use x="364.095703" xlink:href="#DejaVuSans-65"/>
     <use x="425.619141" xlink:href="#DejaVuSans-74"/>
     <use x="464.828125" xlink:href="#DejaVuSans-73"/>
     <use x="516.927734" xlink:href="#DejaVuSans-3a"/>
     <use x="550.619141" xlink:href="#DejaVuSans-20"/>
     <use x="582.40625" xlink:href="#DejaVuSans-31"/>
     <use x="646.029297" xlink:href="#DejaVuSans-30"/>
     <use x="709.652344" xlink:href="#DejaVuSans-30"/>
     <use x="773.275391" xlink:href="#DejaVuSans-2e"/>
     <use x="805.0625" xlink:href="#DejaVuSans-2e"/>
     <use x="836.849609" xlink:href="#DejaVuSans-31"/>
     <use x="900.472656" xlink:href="#DejaVuSans-65"/>
     <use x="961.996094" xlink:href="#DejaVuSans-2d"/>
     <use x="998.080078" xlink:href="#DejaVuSans-30"/>
     <use x="1061.703125" xlink:href="#DejaVuSans-38"/>
    </g>
    <!-- 15 instances -->
    <g transform="translate(58.89048 58.134344)scale(0.102 -0.102)">
     <use xlink:href="#DejaVuSans-31"/>
     <use x="63.623047" xlink:href="#DejaVuSans-35"/>
     <use x="127.246094" xlink:href="#DejaVuSans-20"/>
     <use x="159.033203" xlink:href="#DejaVuSans-69"/>
     <use x="186.816406" xlink:href="#DejaVuSans-6e"/>
     <use x="250.195312" xlink:href="#DejaVuSans-73"/>
     <use x="302.294922" xlink:href="#DejaVuSans-74"/>
     <use x="341.503906" xlink:href="#DejaVuSans-61"/>
     <use x="402.783203" xlink:href="#DejaVuSans-6e"/>
     <use x="466.162109" xlink:href="#DejaVuSans-63"/>
     <use x="521.142578" xlink:href="#DejaVuSans-65"/>
     <use x="582.666016" xlink:href="#DejaVuSans-73"/>
    </g>
   </g>
   <g id="text_19">
    <!-- v2.4 -->
    <g style="fill:#808080;" transform="translate(183.733063 290.099912)scale(0.1 -0.1)">
     <use xlink:href="#DejaVuSans-76"/>
     <use x="59.179688" xlink:href="#DejaVuSans-32"/>
     <use x="122.802734" xlink:href="#DejaVuSans-2e"/>
     <use x="154.589844" xlink:href="#DejaVuSans-34"/>
    </g>
   </g>
   <g id="text_20">
    <!-- 10 Ellipsoid -->
    <g transform="translate(137.284625 18.84)scale(0.2 -0.2)">
     <use xlink:href="#DejaVuSans-31"/>
     <use x="63.623047" xlink:href="#DejaVuSans-30"/>
     <use x="127.246094" xlink:href="#DejaVuSans-20"/>
     <use x="159.033203" xlink:href="#DejaVuSans-45"/>
     <use x="222.216797" xlink:href="#DejaVuSans-6c"/>
     <use x="250" xlink:href="#DejaVuSans-6c"/>
     <use x="277.783203" xlink:href="#DejaVuSans-69"/>
     <use x="305.566406" xlink:href="#DejaVuSans-70"/>
     <use x="369.042969" xlink:href="#DejaVuSans-73"/>
     <use x="421.142578" xlink:href="#DejaVuSans-6f"/>
     <use x="482.324219" xlink:href="#DejaVuSans-69"/>
     <use x="510.107422" xlink:href="#DejaVuSans-64"/>
    </g>
   </g>
  </g>
 </g>
 <defs>
  <clipPath id="pa2deef7b72">
   <rect height="270.04" width="277.048" x="56.12" y="24.84"/>
  </clipPath>
 </defs>
</svg>
