<?xml version="1.0" encoding="utf-8" standalone="no"?>
<!DOCTYPE svg PUBLIC "-//W3C//DTD SVG 1.1//EN"
  "http://www.w3.org/Graphics/SVG/1.1/DTD/svg11.dtd">
<!-- Created with matplotlib (http://matplotlib.org/) -->
<svg height="345.6pt" version="1.1" viewBox="0 0 460.8 345.6" width="460.8pt" xmlns="http://www.w3.org/2000/svg" xmlns:xlink="http://www.w3.org/1999/xlink">
 <defs>
  <style type="text/css">
*{stroke-linecap:butt;stroke-linejoin:round;}
  </style>
 </defs>
 <g id="figure_1">
  <g id="patch_1">
   <path d="M 0 345.6 
L 460.8 345.6 
L 460.8 0 
L 0 0 
z
" style="fill:#ffffff;"/>
  </g>
  <g id="axes_1">
   <g id="patch_2">
    <path d="M 56.12 294.88 
L 333.168 294.88 
L 333.168 24.84 
L 56.12 24.84 
z
" style="fill:#ffffff;"/>
   </g>
   <g id="line2d_1">
    <path d="M 76.641893 294.88 
L 76.641893 289.637523 
L 85.732 289.637523 
L 85.732 284.395046 
L 90.05175 284.395046 
L 90.05175 279.152568 
L 90.753425 279.152568 
L 90.753425 273.910091 
L 92.287186 273.910091 
L 92.287186 268.667614 
L 105.020098 268.667614 
L 105.020098 263.425137 
L 118.279397 263.425137 
L 118.279397 258.18266 
L 128.596932 258.18266 
L 128.596932 252.940182 
L 131.093782 252.940182 
L 131.093782 247.697705 
L 134.322384 247.697705 
L 134.322384 242.455228 
L 143.473058 242.455228 
L 143.473058 237.212751 
L 152.714537 237.212751 
L 152.714537 231.970274 
L 155.102215 231.970274 
L 155.102215 226.727797 
L 155.514869 226.727797 
L 155.514869 221.485319 
L 159.558827 221.485319 
L 159.558827 216.242842 
L 159.923235 216.242842 
L 159.923235 211.000365 
L 160.71987 211.000365 
L 160.71987 205.757888 
L 161.432494 205.757888 
L 161.432494 200.515411 
L 161.763305 200.515411 
L 161.763305 195.272933 
L 162.231768 195.272933 
L 162.231768 190.030456 
L 163.277615 190.030456 
L 163.277615 184.787979 
L 163.361684 184.787979 
L 163.361684 179.545502 
L 163.418617 179.545502 
L 163.418617 69.453481 
L 164.032738 69.453481 
L 164.032738 64.211004 
L 164.081061 64.211004 
L 164.081061 58.968526 
L 164.228411 58.968526 
L 164.228411 53.726049 
L 165.168661 53.726049 
L 165.168661 48.483572 
L 165.399626 48.483572 
L 165.399626 43.241095 
L 165.527269 43.241095 
L 165.527269 37.998618 
L 165.609878 37.998618 
L 165.609878 32.756141 
L 165.765167 32.756141 
L 165.765167 27.513663 
L 333.168 27.513663 
" style="fill:none;stroke:#f5deb3;stroke-linecap:square;stroke-width:4;"/>
   </g>
   <g id="line2d_2">
    <defs>
     <path d="M -0 7.778175 
L 7.778175 0 
L 0 -7.778175 
L -7.778175 -0 
z
" id="m1aa8028033" style="stroke:#f5deb3;stroke-linejoin:miter;stroke-width:1.5;"/>
    </defs>
    <g>
     <use style="fill:#f5deb3;stroke:#f5deb3;stroke-linejoin:miter;stroke-width:1.5;" x="128.596932" xlink:href="#m1aa8028033" y="258.18266"/>
     <use style="fill:#f5deb3;stroke:#f5deb3;stroke-linejoin:miter;stroke-width:1.5;" x="163.361684" xlink:href="#m1aa8028033" y="179.545502"/>
     <use style="fill:#f5deb3;stroke:#f5deb3;stroke-linejoin:miter;stroke-width:1.5;" x="165.765167" xlink:href="#m1aa8028033" y="32.756141"/>
     <use style="fill:#f5deb3;stroke:#f5deb3;stroke-linejoin:miter;stroke-width:1.5;" x="165.765167" xlink:href="#m1aa8028033" y="27.513663"/>
     <use style="fill:#f5deb3;stroke:#f5deb3;stroke-linejoin:miter;stroke-width:1.5;" x="333.168" xlink:href="#m1aa8028033" y="27.513663"/>
    </g>
   </g>
   <g id="line2d_3">
    <path style="fill:none;stroke:#f5deb3;stroke-linecap:square;stroke-width:4;"/>
    <g/>
   </g>
   <g id="line2d_4">
    <path d="M 333.168 27.513663 
L 363.64328 32.86099 
" style="fill:none;stroke:#f5deb3;stroke-linecap:square;stroke-width:4;"/>
    <g>
     <use style="fill:#f5deb3;stroke:#f5deb3;stroke-linejoin:miter;stroke-width:1.5;" x="333.168" xlink:href="#m1aa8028033" y="27.513663"/>
     <use style="fill:#f5deb3;stroke:#f5deb3;stroke-linejoin:miter;stroke-width:1.5;" x="363.64328" xlink:href="#m1aa8028033" y="32.86099"/>
    </g>
   </g>
   <g id="matplotlib.axis_1">
    <g id="xtick_1">
     <g id="line2d_5">
      <path clip-path="url(#pafb2acc126)" d="M 56.12 294.88 
L 56.12 24.84 
" style="fill:none;stroke:#b0b0b0;stroke-linecap:square;stroke-width:0.8;"/>
     </g>
     <g id="line2d_6">
      <defs>
       <path d="M 0 0 
L 0 3.5 
" id="m785ae1eedb" style="stroke:#000000;stroke-width:0.8;"/>
      </defs>
      <g>
       <use style="stroke:#000000;stroke-width:0.8;" x="56.12" xlink:href="#m785ae1eedb" y="294.88"/>
      </g>
     </g>
     <g id="text_1">
      <!-- 0 -->
      <defs>
       <path d="M 31.78125 66.40625 
Q 24.171875 66.40625 20.328125 58.90625 
Q 16.5 51.421875 16.5 36.375 
Q 16.5 21.390625 20.328125 13.890625 
Q 24.171875 6.390625 31.78125 6.390625 
Q 39.453125 6.390625 43.28125 13.890625 
Q 47.125 21.390625 47.125 36.375 
Q 47.125 51.421875 43.28125 58.90625 
Q 39.453125 66.40625 31.78125 66.40625 
z
M 31.78125 74.21875 
Q 44.046875 74.21875 50.515625 64.515625 
Q 56.984375 54.828125 56.984375 36.375 
Q 56.984375 17.96875 50.515625 8.265625 
Q 44.046875 -1.421875 31.78125 -1.421875 
Q 19.53125 -1.421875 13.0625 8.265625 
Q 6.59375 17.96875 6.59375 36.375 
Q 6.59375 54.828125 13.0625 64.515625 
Q 19.53125 74.21875 31.78125 74.21875 
z
" id="DejaVuSans-30"/>
      </defs>
      <g transform="translate(49.7575 317.076875)scale(0.2 -0.2)">
       <use xlink:href="#DejaVuSans-30"/>
      </g>
     </g>
    </g>
    <g id="xtick_2">
     <g id="line2d_7">
      <path clip-path="url(#pafb2acc126)" d="M 135.276571 294.88 
L 135.276571 24.84 
" style="fill:none;stroke:#b0b0b0;stroke-linecap:square;stroke-width:0.8;"/>
     </g>
     <g id="line2d_8">
      <g>
       <use style="stroke:#000000;stroke-width:0.8;" x="135.276571" xlink:href="#m785ae1eedb" y="294.88"/>
      </g>
     </g>
     <g id="text_2">
      <!-- 2 -->
      <defs>
       <path d="M 19.1875 8.296875 
L 53.609375 8.296875 
L 53.609375 0 
L 7.328125 0 
L 7.328125 8.296875 
Q 12.9375 14.109375 22.625 23.890625 
Q 32.328125 33.6875 34.8125 36.53125 
Q 39.546875 41.84375 41.421875 45.53125 
Q 43.3125 49.21875 43.3125 52.78125 
Q 43.3125 58.59375 39.234375 62.25 
Q 35.15625 65.921875 28.609375 65.921875 
Q 23.96875 65.921875 18.8125 64.3125 
Q 13.671875 62.703125 7.8125 59.421875 
L 7.8125 69.390625 
Q 13.765625 71.78125 18.9375 73 
Q 24.125 74.21875 28.421875 74.21875 
Q 39.75 74.21875 46.484375 68.546875 
Q 53.21875 62.890625 53.21875 53.421875 
Q 53.21875 48.921875 51.53125 44.890625 
Q 49.859375 40.875 45.40625 35.40625 
Q 44.1875 33.984375 37.640625 27.21875 
Q 31.109375 20.453125 19.1875 8.296875 
z
" id="DejaVuSans-32"/>
      </defs>
      <g transform="translate(128.914071 317.076875)scale(0.2 -0.2)">
       <use xlink:href="#DejaVuSans-32"/>
      </g>
     </g>
    </g>
    <g id="xtick_3">
     <g id="line2d_9">
      <path clip-path="url(#pafb2acc126)" d="M 214.433143 294.88 
L 214.433143 24.84 
" style="fill:none;stroke:#b0b0b0;stroke-linecap:square;stroke-width:0.8;"/>
     </g>
     <g id="line2d_10">
      <g>
       <use style="stroke:#000000;stroke-width:0.8;" x="214.433143" xlink:href="#m785ae1eedb" y="294.88"/>
      </g>
     </g>
     <g id="text_3">
      <!-- 4 -->
      <defs>
       <path d="M 37.796875 64.3125 
L 12.890625 25.390625 
L 37.796875 25.390625 
z
M 35.203125 72.90625 
L 47.609375 72.90625 
L 47.609375 25.390625 
L 58.015625 25.390625 
L 58.015625 17.1875 
L 47.609375 17.1875 
L 47.609375 0 
L 37.796875 0 
L 37.796875 17.1875 
L 4.890625 17.1875 
L 4.890625 26.703125 
z
" id="DejaVuSans-34"/>
      </defs>
      <g transform="translate(208.070643 317.076875)scale(0.2 -0.2)">
       <use xlink:href="#DejaVuSans-34"/>
      </g>
     </g>
    </g>
    <g id="xtick_4">
     <g id="line2d_11">
      <path clip-path="url(#pafb2acc126)" d="M 293.589714 294.88 
L 293.589714 24.84 
" style="fill:none;stroke:#b0b0b0;stroke-linecap:square;stroke-width:0.8;"/>
     </g>
     <g id="line2d_12">
      <g>
       <use style="stroke:#000000;stroke-width:0.8;" x="293.589714" xlink:href="#m785ae1eedb" y="294.88"/>
      </g>
     </g>
     <g id="text_4">
      <!-- 6 -->
      <defs>
       <path d="M 33.015625 40.375 
Q 26.375 40.375 22.484375 35.828125 
Q 18.609375 31.296875 18.609375 23.390625 
Q 18.609375 15.53125 22.484375 10.953125 
Q 26.375 6.390625 33.015625 6.390625 
Q 39.65625 6.390625 43.53125 10.953125 
Q 47.40625 15.53125 47.40625 23.390625 
Q 47.40625 31.296875 43.53125 35.828125 
Q 39.65625 40.375 33.015625 40.375 
z
M 52.59375 71.296875 
L 52.59375 62.3125 
Q 48.875 64.0625 45.09375 64.984375 
Q 41.3125 65.921875 37.59375 65.921875 
Q 27.828125 65.921875 22.671875 59.328125 
Q 17.53125 52.734375 16.796875 39.40625 
Q 19.671875 43.65625 24.015625 45.921875 
Q 28.375 48.1875 33.59375 48.1875 
Q 44.578125 48.1875 50.953125 41.515625 
Q 57.328125 34.859375 57.328125 23.390625 
Q 57.328125 12.15625 50.6875 5.359375 
Q 44.046875 -1.421875 33.015625 -1.421875 
Q 20.359375 -1.421875 13.671875 8.265625 
Q 6.984375 17.96875 6.984375 36.375 
Q 6.984375 53.65625 15.1875 63.9375 
Q 23.390625 74.21875 37.203125 74.21875 
Q 40.921875 74.21875 44.703125 73.484375 
Q 48.484375 72.75 52.59375 71.296875 
z
" id="DejaVuSans-36"/>
      </defs>
      <g transform="translate(287.227214 317.076875)scale(0.2 -0.2)">
       <use xlink:href="#DejaVuSans-36"/>
      </g>
     </g>
    </g>
    <g id="xtick_5">
     <g id="line2d_13">
      <path clip-path="url(#pafb2acc126)" d="M 56.12 294.88 
L 56.12 24.84 
" style="fill:none;stroke:#b0b0b0;stroke-linecap:square;stroke-width:0.8;"/>
     </g>
     <g id="line2d_14">
      <defs>
       <path d="M 0 0 
L 0 2 
" id="mfb7374b6b4" style="stroke:#000000;stroke-width:0.6;"/>
      </defs>
      <g>
       <use style="stroke:#000000;stroke-width:0.6;" x="56.12" xlink:href="#mfb7374b6b4" y="294.88"/>
      </g>
     </g>
    </g>
    <g id="xtick_6">
     <g id="line2d_15">
      <path clip-path="url(#pafb2acc126)" d="M 95.698286 294.88 
L 95.698286 24.84 
" style="fill:none;stroke:#b0b0b0;stroke-linecap:square;stroke-width:0.8;"/>
     </g>
     <g id="line2d_16">
      <g>
       <use style="stroke:#000000;stroke-width:0.6;" x="95.698286" xlink:href="#mfb7374b6b4" y="294.88"/>
      </g>
     </g>
    </g>
    <g id="xtick_7">
     <g id="line2d_17">
      <path clip-path="url(#pafb2acc126)" d="M 135.276571 294.88 
L 135.276571 24.84 
" style="fill:none;stroke:#b0b0b0;stroke-linecap:square;stroke-width:0.8;"/>
     </g>
     <g id="line2d_18">
      <g>
       <use style="stroke:#000000;stroke-width:0.6;" x="135.276571" xlink:href="#mfb7374b6b4" y="294.88"/>
      </g>
     </g>
    </g>
    <g id="xtick_8">
     <g id="line2d_19">
      <path clip-path="url(#pafb2acc126)" d="M 174.854857 294.88 
L 174.854857 24.84 
" style="fill:none;stroke:#b0b0b0;stroke-linecap:square;stroke-width:0.8;"/>
     </g>
     <g id="line2d_20">
      <g>
       <use style="stroke:#000000;stroke-width:0.6;" x="174.854857" xlink:href="#mfb7374b6b4" y="294.88"/>
      </g>
     </g>
    </g>
    <g id="xtick_9">
     <g id="line2d_21">
      <path clip-path="url(#pafb2acc126)" d="M 214.433143 294.88 
L 214.433143 24.84 
" style="fill:none;stroke:#b0b0b0;stroke-linecap:square;stroke-width:0.8;"/>
     </g>
     <g id="line2d_22">
      <g>
       <use style="stroke:#000000;stroke-width:0.6;" x="214.433143" xlink:href="#mfb7374b6b4" y="294.88"/>
      </g>
     </g>
    </g>
    <g id="xtick_10">
     <g id="line2d_23">
      <path clip-path="url(#pafb2acc126)" d="M 254.011429 294.88 
L 254.011429 24.84 
" style="fill:none;stroke:#b0b0b0;stroke-linecap:square;stroke-width:0.8;"/>
     </g>
     <g id="line2d_24">
      <g>
       <use style="stroke:#000000;stroke-width:0.6;" x="254.011429" xlink:href="#mfb7374b6b4" y="294.88"/>
      </g>
     </g>
    </g>
    <g id="xtick_11">
     <g id="line2d_25">
      <path clip-path="url(#pafb2acc126)" d="M 293.589714 294.88 
L 293.589714 24.84 
" style="fill:none;stroke:#b0b0b0;stroke-linecap:square;stroke-width:0.8;"/>
     </g>
     <g id="line2d_26">
      <g>
       <use style="stroke:#000000;stroke-width:0.6;" x="293.589714" xlink:href="#mfb7374b6b4" y="294.88"/>
      </g>
     </g>
    </g>
    <g id="xtick_12">
     <g id="line2d_27">
      <path clip-path="url(#pafb2acc126)" d="M 333.168 294.88 
L 333.168 24.84 
" style="fill:none;stroke:#b0b0b0;stroke-linecap:square;stroke-width:0.8;"/>
     </g>
     <g id="line2d_28">
      <g>
       <use style="stroke:#000000;stroke-width:0.6;" x="333.168" xlink:href="#mfb7374b6b4" y="294.88"/>
      </g>
     </g>
    </g>
    <g id="text_5">
     <!-- log10(# f-evals / dimension) -->
     <defs>
      <path d="M 9.421875 75.984375 
L 18.40625 75.984375 
L 18.40625 0 
L 9.421875 0 
z
" id="DejaVuSans-6c"/>
      <path d="M 30.609375 48.390625 
Q 23.390625 48.390625 19.1875 42.75 
Q 14.984375 37.109375 14.984375 27.296875 
Q 14.984375 17.484375 19.15625 11.84375 
Q 23.34375 6.203125 30.609375 6.203125 
Q 37.796875 6.203125 41.984375 11.859375 
Q 46.1875 17.53125 46.1875 27.296875 
Q 46.1875 37.015625 41.984375 42.703125 
Q 37.796875 48.390625 30.609375 48.390625 
z
M 30.609375 56 
Q 42.328125 56 49.015625 48.375 
Q 55.71875 40.765625 55.71875 27.296875 
Q 55.71875 13.875 49.015625 6.21875 
Q 42.328125 -1.421875 30.609375 -1.421875 
Q 18.84375 -1.421875 12.171875 6.21875 
Q 5.515625 13.875 5.515625 27.296875 
Q 5.515625 40.765625 12.171875 48.375 
Q 18.84375 56 30.609375 56 
z
" id="DejaVuSans-6f"/>
      <path d="M 45.40625 27.984375 
Q 45.40625 37.75 41.375 43.109375 
Q 37.359375 48.484375 30.078125 48.484375 
Q 22.859375 48.484375 18.828125 43.109375 
Q 14.796875 37.75 14.796875 27.984375 
Q 14.796875 18.265625 18.828125 12.890625 
Q 22.859375 7.515625 30.078125 7.515625 
Q 37.359375 7.515625 41.375 12.890625 
Q 45.40625 18.265625 45.40625 27.984375 
z
M 54.390625 6.78125 
Q 54.390625 -7.171875 48.1875 -13.984375 
Q 42 -20.796875 29.203125 -20.796875 
Q 24.46875 -20.796875 20.265625 -20.09375 
Q 16.0625 -19.390625 12.109375 -17.921875 
L 12.109375 -9.1875 
Q 16.0625 -11.328125 19.921875 -12.34375 
Q 23.78125 -13.375 27.78125 -13.375 
Q 36.625 -13.375 41.015625 -8.765625 
Q 45.40625 -4.15625 45.40625 5.171875 
L 45.40625 9.625 
Q 42.625 4.78125 38.28125 2.390625 
Q 33.9375 0 27.875 0 
Q 17.828125 0 11.671875 7.65625 
Q 5.515625 15.328125 5.515625 27.984375 
Q 5.515625 40.671875 11.671875 48.328125 
Q 17.828125 56 27.875 56 
Q 33.9375 56 38.28125 53.609375 
Q 42.625 51.21875 45.40625 46.390625 
L 45.40625 54.6875 
L 54.390625 54.6875 
z
" id="DejaVuSans-67"/>
      <path d="M 12.40625 8.296875 
L 28.515625 8.296875 
L 28.515625 63.921875 
L 10.984375 60.40625 
L 10.984375 69.390625 
L 28.421875 72.90625 
L 38.28125 72.90625 
L 38.28125 8.296875 
L 54.390625 8.296875 
L 54.390625 0 
L 12.40625 0 
z
" id="DejaVuSans-31"/>
      <path d="M 31 75.875 
Q 24.46875 64.65625 21.28125 53.65625 
Q 18.109375 42.671875 18.109375 31.390625 
Q 18.109375 20.125 21.3125 9.0625 
Q 24.515625 -2 31 -13.1875 
L 23.1875 -13.1875 
Q 15.875 -1.703125 12.234375 9.375 
Q 8.59375 20.453125 8.59375 31.390625 
Q 8.59375 42.28125 12.203125 53.3125 
Q 15.828125 64.359375 23.1875 75.875 
z
" id="DejaVuSans-28"/>
      <path d="M 51.125 44 
L 36.921875 44 
L 32.8125 27.6875 
L 47.125 27.6875 
z
M 43.796875 71.78125 
L 38.71875 51.515625 
L 52.984375 51.515625 
L 58.109375 71.78125 
L 65.921875 71.78125 
L 60.890625 51.515625 
L 76.125 51.515625 
L 76.125 44 
L 58.984375 44 
L 54.984375 27.6875 
L 70.515625 27.6875 
L 70.515625 20.21875 
L 53.078125 20.21875 
L 48 0 
L 40.1875 0 
L 45.21875 20.21875 
L 30.90625 20.21875 
L 25.875 0 
L 18.015625 0 
L 23.09375 20.21875 
L 7.71875 20.21875 
L 7.71875 27.6875 
L 24.90625 27.6875 
L 29 44 
L 13.28125 44 
L 13.28125 51.515625 
L 30.90625 51.515625 
L 35.890625 71.78125 
z
" id="DejaVuSans-23"/>
      <path id="DejaVuSans-20"/>
      <path d="M 37.109375 75.984375 
L 37.109375 68.5 
L 28.515625 68.5 
Q 23.6875 68.5 21.796875 66.546875 
Q 19.921875 64.59375 19.921875 59.515625 
L 19.921875 54.6875 
L 34.71875 54.6875 
L 34.71875 47.703125 
L 19.921875 47.703125 
L 19.921875 0 
L 10.890625 0 
L 10.890625 47.703125 
L 2.296875 47.703125 
L 2.296875 54.6875 
L 10.890625 54.6875 
L 10.890625 58.5 
Q 10.890625 67.625 15.140625 71.796875 
Q 19.390625 75.984375 28.609375 75.984375 
z
" id="DejaVuSans-66"/>
      <path d="M 4.890625 31.390625 
L 31.203125 31.390625 
L 31.203125 23.390625 
L 4.890625 23.390625 
z
" id="DejaVuSans-2d"/>
      <path d="M 56.203125 29.59375 
L 56.203125 25.203125 
L 14.890625 25.203125 
Q 15.484375 15.921875 20.484375 11.0625 
Q 25.484375 6.203125 34.421875 6.203125 
Q 39.59375 6.203125 44.453125 7.46875 
Q 49.3125 8.734375 54.109375 11.28125 
L 54.109375 2.78125 
Q 49.265625 0.734375 44.1875 -0.34375 
Q 39.109375 -1.421875 33.890625 -1.421875 
Q 20.796875 -1.421875 13.15625 6.1875 
Q 5.515625 13.8125 5.515625 26.8125 
Q 5.515625 40.234375 12.765625 48.109375 
Q 20.015625 56 32.328125 56 
Q 43.359375 56 49.78125 48.890625 
Q 56.203125 41.796875 56.203125 29.59375 
z
M 47.21875 32.234375 
Q 47.125 39.59375 43.09375 43.984375 
Q 39.0625 48.390625 32.421875 48.390625 
Q 24.90625 48.390625 20.390625 44.140625 
Q 15.875 39.890625 15.1875 32.171875 
z
" id="DejaVuSans-65"/>
      <path d="M 2.984375 54.6875 
L 12.5 54.6875 
L 29.59375 8.796875 
L 46.6875 54.6875 
L 56.203125 54.6875 
L 35.6875 0 
L 23.484375 0 
z
" id="DejaVuSans-76"/>
      <path d="M 34.28125 27.484375 
Q 23.390625 27.484375 19.1875 25 
Q 14.984375 22.515625 14.984375 16.5 
Q 14.984375 11.71875 18.140625 8.90625 
Q 21.296875 6.109375 26.703125 6.109375 
Q 34.1875 6.109375 38.703125 11.40625 
Q 43.21875 16.703125 43.21875 25.484375 
L 43.21875 27.484375 
z
M 52.203125 31.203125 
L 52.203125 0 
L 43.21875 0 
L 43.21875 8.296875 
Q 40.140625 3.328125 35.546875 0.953125 
Q 30.953125 -1.421875 24.3125 -1.421875 
Q 15.921875 -1.421875 10.953125 3.296875 
Q 6 8.015625 6 15.921875 
Q 6 25.140625 12.171875 29.828125 
Q 18.359375 34.515625 30.609375 34.515625 
L 43.21875 34.515625 
L 43.21875 35.40625 
Q 43.21875 41.609375 39.140625 45 
Q 35.0625 48.390625 27.6875 48.390625 
Q 23 48.390625 18.546875 47.265625 
Q 14.109375 46.140625 10.015625 43.890625 
L 10.015625 52.203125 
Q 14.9375 54.109375 19.578125 55.046875 
Q 24.21875 56 28.609375 56 
Q 40.484375 56 46.34375 49.84375 
Q 52.203125 43.703125 52.203125 31.203125 
z
" id="DejaVuSans-61"/>
      <path d="M 44.28125 53.078125 
L 44.28125 44.578125 
Q 40.484375 46.53125 36.375 47.5 
Q 32.28125 48.484375 27.875 48.484375 
Q 21.1875 48.484375 17.84375 46.4375 
Q 14.5 44.390625 14.5 40.28125 
Q 14.5 37.15625 16.890625 35.375 
Q 19.28125 33.59375 26.515625 31.984375 
L 29.59375 31.296875 
Q 39.15625 29.25 43.1875 25.515625 
Q 47.21875 21.78125 47.21875 15.09375 
Q 47.21875 7.46875 41.1875 3.015625 
Q 35.15625 -1.421875 24.609375 -1.421875 
Q 20.21875 -1.421875 15.453125 -0.5625 
Q 10.6875 0.296875 5.421875 2 
L 5.421875 11.28125 
Q 10.40625 8.6875 15.234375 7.390625 
Q 20.0625 6.109375 24.8125 6.109375 
Q 31.15625 6.109375 34.5625 8.28125 
Q 37.984375 10.453125 37.984375 14.40625 
Q 37.984375 18.0625 35.515625 20.015625 
Q 33.0625 21.96875 24.703125 23.78125 
L 21.578125 24.515625 
Q 13.234375 26.265625 9.515625 29.90625 
Q 5.8125 33.546875 5.8125 39.890625 
Q 5.8125 47.609375 11.28125 51.796875 
Q 16.75 56 26.8125 56 
Q 31.78125 56 36.171875 55.265625 
Q 40.578125 54.546875 44.28125 53.078125 
z
" id="DejaVuSans-73"/>
      <path d="M 25.390625 72.90625 
L 33.6875 72.90625 
L 8.296875 -9.28125 
L 0 -9.28125 
z
" id="DejaVuSans-2f"/>
      <path d="M 45.40625 46.390625 
L 45.40625 75.984375 
L 54.390625 75.984375 
L 54.390625 0 
L 45.40625 0 
L 45.40625 8.203125 
Q 42.578125 3.328125 38.25 0.953125 
Q 33.9375 -1.421875 27.875 -1.421875 
Q 17.96875 -1.421875 11.734375 6.484375 
Q 5.515625 14.40625 5.515625 27.296875 
Q 5.515625 40.1875 11.734375 48.09375 
Q 17.96875 56 27.875 56 
Q 33.9375 56 38.25 53.625 
Q 42.578125 51.265625 45.40625 46.390625 
z
M 14.796875 27.296875 
Q 14.796875 17.390625 18.875 11.75 
Q 22.953125 6.109375 30.078125 6.109375 
Q 37.203125 6.109375 41.296875 11.75 
Q 45.40625 17.390625 45.40625 27.296875 
Q 45.40625 37.203125 41.296875 42.84375 
Q 37.203125 48.484375 30.078125 48.484375 
Q 22.953125 48.484375 18.875 42.84375 
Q 14.796875 37.203125 14.796875 27.296875 
z
" id="DejaVuSans-64"/>
      <path d="M 9.421875 54.6875 
L 18.40625 54.6875 
L 18.40625 0 
L 9.421875 0 
z
M 9.421875 75.984375 
L 18.40625 75.984375 
L 18.40625 64.59375 
L 9.421875 64.59375 
z
" id="DejaVuSans-69"/>
      <path d="M 52 44.1875 
Q 55.375 50.25 60.0625 53.125 
Q 64.75 56 71.09375 56 
Q 79.640625 56 84.28125 50.015625 
Q 88.921875 44.046875 88.921875 33.015625 
L 88.921875 0 
L 79.890625 0 
L 79.890625 32.71875 
Q 79.890625 40.578125 77.09375 44.375 
Q 74.3125 48.1875 68.609375 48.1875 
Q 61.625 48.1875 57.5625 43.546875 
Q 53.515625 38.921875 53.515625 30.90625 
L 53.515625 0 
L 44.484375 0 
L 44.484375 32.71875 
Q 44.484375 40.625 41.703125 44.40625 
Q 38.921875 48.1875 33.109375 48.1875 
Q 26.21875 48.1875 22.15625 43.53125 
Q 18.109375 38.875 18.109375 30.90625 
L 18.109375 0 
L 9.078125 0 
L 9.078125 54.6875 
L 18.109375 54.6875 
L 18.109375 46.1875 
Q 21.1875 51.21875 25.484375 53.609375 
Q 29.78125 56 35.6875 56 
Q 41.65625 56 45.828125 52.96875 
Q 50 49.953125 52 44.1875 
z
" id="DejaVuSans-6d"/>
      <path d="M 54.890625 33.015625 
L 54.890625 0 
L 45.90625 0 
L 45.90625 32.71875 
Q 45.90625 40.484375 42.875 44.328125 
Q 39.84375 48.1875 33.796875 48.1875 
Q 26.515625 48.1875 22.3125 43.546875 
Q 18.109375 38.921875 18.109375 30.90625 
L 18.109375 0 
L 9.078125 0 
L 9.078125 54.6875 
L 18.109375 54.6875 
L 18.109375 46.1875 
Q 21.34375 51.125 25.703125 53.5625 
Q 30.078125 56 35.796875 56 
Q 45.21875 56 50.046875 50.171875 
Q 54.890625 44.34375 54.890625 33.015625 
z
" id="DejaVuSans-6e"/>
      <path d="M 8.015625 75.875 
L 15.828125 75.875 
Q 23.140625 64.359375 26.78125 53.3125 
Q 30.421875 42.28125 30.421875 31.390625 
Q 30.421875 20.453125 26.78125 9.375 
Q 23.140625 -1.703125 15.828125 -13.1875 
L 8.015625 -13.1875 
Q 14.5 -2 17.703125 9.0625 
Q 20.90625 20.125 20.90625 31.390625 
Q 20.90625 42.671875 17.703125 53.65625 
Q 14.5 64.65625 8.015625 75.875 
z
" id="DejaVuSans-29"/>
     </defs>
     <g transform="translate(73.803219 338.153594)scale(0.17 -0.17)">
      <use xlink:href="#DejaVuSans-6c"/>
      <use x="27.783203" xlink:href="#DejaVuSans-6f"/>
      <use x="88.964844" xlink:href="#DejaVuSans-67"/>
      <use x="152.441406" xlink:href="#DejaVuSans-31"/>
      <use x="216.064453" xlink:href="#DejaVuSans-30"/>
      <use x="279.6875" xlink:href="#DejaVuSans-28"/>
      <use x="318.701172" xlink:href="#DejaVuSans-23"/>
      <use x="402.490234" xlink:href="#DejaVuSans-20"/>
      <use x="434.277344" xlink:href="#DejaVuSans-66"/>
      <use x="469.404297" xlink:href="#DejaVuSans-2d"/>
      <use x="505.488281" xlink:href="#DejaVuSans-65"/>
      <use x="567.011719" xlink:href="#DejaVuSans-76"/>
      <use x="626.191406" xlink:href="#DejaVuSans-61"/>
      <use x="687.470703" xlink:href="#DejaVuSans-6c"/>
      <use x="715.253906" xlink:href="#DejaVuSans-73"/>
      <use x="767.353516" xlink:href="#DejaVuSans-20"/>
      <use x="799.140625" xlink:href="#DejaVuSans-2f"/>
      <use x="832.832031" xlink:href="#DejaVuSans-20"/>
      <use x="864.619141" xlink:href="#DejaVuSans-64"/>
      <use x="928.095703" xlink:href="#DejaVuSans-69"/>
      <use x="955.878906" xlink:href="#DejaVuSans-6d"/>
      <use x="1053.291016" xlink:href="#DejaVuSans-65"/>
      <use x="1114.814453" xlink:href="#DejaVuSans-6e"/>
      <use x="1178.193359" xlink:href="#DejaVuSans-73"/>
      <use x="1230.292969" xlink:href="#DejaVuSans-69"/>
      <use x="1258.076172" xlink:href="#DejaVuSans-6f"/>
      <use x="1319.257812" xlink:href="#DejaVuSans-6e"/>
      <use x="1382.636719" xlink:href="#DejaVuSans-29"/>
     </g>
    </g>
   </g>
   <g id="matplotlib.axis_2">
    <g id="ytick_1">
     <g id="line2d_29">
      <path clip-path="url(#pafb2acc126)" d="M 56.12 294.88 
L 333.168 294.88 
" style="fill:none;stroke:#b0b0b0;stroke-linecap:square;stroke-width:0.8;"/>
     </g>
     <g id="line2d_30">
      <defs>
       <path d="M 0 0 
L -3.5 0 
" id="mf492b1d8a1" style="stroke:#000000;stroke-width:0.8;"/>
      </defs>
      <g>
       <use style="stroke:#000000;stroke-width:0.8;" x="56.12" xlink:href="#mf492b1d8a1" y="294.88"/>
      </g>
     </g>
     <g id="text_6">
      <!-- 0.0 -->
      <defs>
       <path d="M 10.6875 12.40625 
L 21 12.40625 
L 21 0 
L 10.6875 0 
z
" id="DejaVuSans-2e"/>
      </defs>
      <g transform="translate(23.675 300.95875)scale(0.16 -0.16)">
       <use xlink:href="#DejaVuSans-30"/>
       <use x="63.623047" xlink:href="#DejaVuSans-2e"/>
       <use x="95.410156" xlink:href="#DejaVuSans-30"/>
      </g>
     </g>
    </g>
    <g id="ytick_2">
     <g id="line2d_31">
      <path clip-path="url(#pafb2acc126)" d="M 56.12 241.406733 
L 333.168 241.406733 
" style="fill:none;stroke:#b0b0b0;stroke-linecap:square;stroke-width:0.8;"/>
     </g>
     <g id="line2d_32">
      <g>
       <use style="stroke:#000000;stroke-width:0.8;" x="56.12" xlink:href="#mf492b1d8a1" y="241.406733"/>
      </g>
     </g>
     <g id="text_7">
      <!-- 0.2 -->
      <g transform="translate(23.675 247.485483)scale(0.16 -0.16)">
       <use xlink:href="#DejaVuSans-30"/>
       <use x="63.623047" xlink:href="#DejaVuSans-2e"/>
       <use x="95.410156" xlink:href="#DejaVuSans-32"/>
      </g>
     </g>
    </g>
    <g id="ytick_3">
     <g id="line2d_33">
      <path clip-path="url(#pafb2acc126)" d="M 56.12 187.933465 
L 333.168 187.933465 
" style="fill:none;stroke:#b0b0b0;stroke-linecap:square;stroke-width:0.8;"/>
     </g>
     <g id="line2d_34">
      <g>
       <use style="stroke:#000000;stroke-width:0.8;" x="56.12" xlink:href="#mf492b1d8a1" y="187.933465"/>
      </g>
     </g>
     <g id="text_8">
      <!-- 0.4 -->
      <g transform="translate(23.675 194.012215)scale(0.16 -0.16)">
       <use xlink:href="#DejaVuSans-30"/>
       <use x="63.623047" xlink:href="#DejaVuSans-2e"/>
       <use x="95.410156" xlink:href="#DejaVuSans-34"/>
      </g>
     </g>
    </g>
    <g id="ytick_4">
     <g id="line2d_35">
      <path clip-path="url(#pafb2acc126)" d="M 56.12 134.460198 
L 333.168 134.460198 
" style="fill:none;stroke:#b0b0b0;stroke-linecap:square;stroke-width:0.8;"/>
     </g>
     <g id="line2d_36">
      <g>
       <use style="stroke:#000000;stroke-width:0.8;" x="56.12" xlink:href="#mf492b1d8a1" y="134.460198"/>
      </g>
     </g>
     <g id="text_9">
      <!-- 0.6 -->
      <g transform="translate(23.675 140.538948)scale(0.16 -0.16)">
       <use xlink:href="#DejaVuSans-30"/>
       <use x="63.623047" xlink:href="#DejaVuSans-2e"/>
       <use x="95.410156" xlink:href="#DejaVuSans-36"/>
      </g>
     </g>
    </g>
    <g id="ytick_5">
     <g id="line2d_37">
      <path clip-path="url(#pafb2acc126)" d="M 56.12 80.986931 
L 333.168 80.986931 
" style="fill:none;stroke:#b0b0b0;stroke-linecap:square;stroke-width:0.8;"/>
     </g>
     <g id="line2d_38">
      <g>
       <use style="stroke:#000000;stroke-width:0.8;" x="56.12" xlink:href="#mf492b1d8a1" y="80.986931"/>
      </g>
     </g>
     <g id="text_10">
      <!-- 0.8 -->
      <defs>
       <path d="M 31.78125 34.625 
Q 24.75 34.625 20.71875 30.859375 
Q 16.703125 27.09375 16.703125 20.515625 
Q 16.703125 13.921875 20.71875 10.15625 
Q 24.75 6.390625 31.78125 6.390625 
Q 38.8125 6.390625 42.859375 10.171875 
Q 46.921875 13.96875 46.921875 20.515625 
Q 46.921875 27.09375 42.890625 30.859375 
Q 38.875 34.625 31.78125 34.625 
z
M 21.921875 38.8125 
Q 15.578125 40.375 12.03125 44.71875 
Q 8.5 49.078125 8.5 55.328125 
Q 8.5 64.0625 14.71875 69.140625 
Q 20.953125 74.21875 31.78125 74.21875 
Q 42.671875 74.21875 48.875 69.140625 
Q 55.078125 64.0625 55.078125 55.328125 
Q 55.078125 49.078125 51.53125 44.71875 
Q 48 40.375 41.703125 38.8125 
Q 48.828125 37.15625 52.796875 32.3125 
Q 56.78125 27.484375 56.78125 20.515625 
Q 56.78125 9.90625 50.3125 4.234375 
Q 43.84375 -1.421875 31.78125 -1.421875 
Q 19.734375 -1.421875 13.25 4.234375 
Q 6.78125 9.90625 6.78125 20.515625 
Q 6.78125 27.484375 10.78125 32.3125 
Q 14.796875 37.15625 21.921875 38.8125 
z
M 18.3125 54.390625 
Q 18.3125 48.734375 21.84375 45.5625 
Q 25.390625 42.390625 31.78125 42.390625 
Q 38.140625 42.390625 41.71875 45.5625 
Q 45.3125 48.734375 45.3125 54.390625 
Q 45.3125 60.0625 41.71875 63.234375 
Q 38.140625 66.40625 31.78125 66.40625 
Q 25.390625 66.40625 21.84375 63.234375 
Q 18.3125 60.0625 18.3125 54.390625 
z
" id="DejaVuSans-38"/>
      </defs>
      <g transform="translate(23.675 87.065681)scale(0.16 -0.16)">
       <use xlink:href="#DejaVuSans-30"/>
       <use x="63.623047" xlink:href="#DejaVuSans-2e"/>
       <use x="95.410156" xlink:href="#DejaVuSans-38"/>
      </g>
     </g>
    </g>
    <g id="ytick_6">
     <g id="line2d_39">
      <path clip-path="url(#pafb2acc126)" d="M 56.12 27.513663 
L 333.168 27.513663 
" style="fill:none;stroke:#b0b0b0;stroke-linecap:square;stroke-width:0.8;"/>
     </g>
     <g id="line2d_40">
      <g>
       <use style="stroke:#000000;stroke-width:0.8;" x="56.12" xlink:href="#mf492b1d8a1" y="27.513663"/>
      </g>
     </g>
     <g id="text_11">
      <!-- 1.0 -->
      <g transform="translate(23.675 33.592413)scale(0.16 -0.16)">
       <use xlink:href="#DejaVuSans-31"/>
       <use x="63.623047" xlink:href="#DejaVuSans-2e"/>
       <use x="95.410156" xlink:href="#DejaVuSans-30"/>
      </g>
     </g>
    </g>
    <g id="text_12">
     <!-- Fraction of function,target pairs -->
     <defs>
      <path d="M 9.8125 72.90625 
L 51.703125 72.90625 
L 51.703125 64.59375 
L 19.671875 64.59375 
L 19.671875 43.109375 
L 48.578125 43.109375 
L 48.578125 34.8125 
L 19.671875 34.8125 
L 19.671875 0 
L 9.8125 0 
z
" id="DejaVuSans-46"/>
      <path d="M 41.109375 46.296875 
Q 39.59375 47.171875 37.8125 47.578125 
Q 36.03125 48 33.890625 48 
Q 26.265625 48 22.1875 43.046875 
Q 18.109375 38.09375 18.109375 28.8125 
L 18.109375 0 
L 9.078125 0 
L 9.078125 54.6875 
L 18.109375 54.6875 
L 18.109375 46.1875 
Q 20.953125 51.171875 25.484375 53.578125 
Q 30.03125 56 36.53125 56 
Q 37.453125 56 38.578125 55.875 
Q 39.703125 55.765625 41.0625 55.515625 
z
" id="DejaVuSans-72"/>
      <path d="M 48.78125 52.59375 
L 48.78125 44.1875 
Q 44.96875 46.296875 41.140625 47.34375 
Q 37.3125 48.390625 33.40625 48.390625 
Q 24.65625 48.390625 19.8125 42.84375 
Q 14.984375 37.3125 14.984375 27.296875 
Q 14.984375 17.28125 19.8125 11.734375 
Q 24.65625 6.203125 33.40625 6.203125 
Q 37.3125 6.203125 41.140625 7.25 
Q 44.96875 8.296875 48.78125 10.40625 
L 48.78125 2.09375 
Q 45.015625 0.34375 40.984375 -0.53125 
Q 36.96875 -1.421875 32.421875 -1.421875 
Q 20.0625 -1.421875 12.78125 6.34375 
Q 5.515625 14.109375 5.515625 27.296875 
Q 5.515625 40.671875 12.859375 48.328125 
Q 20.21875 56 33.015625 56 
Q 37.15625 56 41.109375 55.140625 
Q 45.0625 54.296875 48.78125 52.59375 
z
" id="DejaVuSans-63"/>
      <path d="M 18.3125 70.21875 
L 18.3125 54.6875 
L 36.8125 54.6875 
L 36.8125 47.703125 
L 18.3125 47.703125 
L 18.3125 18.015625 
Q 18.3125 11.328125 20.140625 9.421875 
Q 21.96875 7.515625 27.59375 7.515625 
L 36.8125 7.515625 
L 36.8125 0 
L 27.59375 0 
Q 17.1875 0 13.234375 3.875 
Q 9.28125 7.765625 9.28125 18.015625 
L 9.28125 47.703125 
L 2.6875 47.703125 
L 2.6875 54.6875 
L 9.28125 54.6875 
L 9.28125 70.21875 
z
" id="DejaVuSans-74"/>
      <path d="M 8.5 21.578125 
L 8.5 54.6875 
L 17.484375 54.6875 
L 17.484375 21.921875 
Q 17.484375 14.15625 20.5 10.265625 
Q 23.53125 6.390625 29.59375 6.390625 
Q 36.859375 6.390625 41.078125 11.03125 
Q 45.3125 15.671875 45.3125 23.6875 
L 45.3125 54.6875 
L 54.296875 54.6875 
L 54.296875 0 
L 45.3125 0 
L 45.3125 8.40625 
Q 42.046875 3.421875 37.71875 1 
Q 33.40625 -1.421875 27.6875 -1.421875 
Q 18.265625 -1.421875 13.375 4.4375 
Q 8.5 10.296875 8.5 21.578125 
z
M 31.109375 56 
z
" id="DejaVuSans-75"/>
      <path d="M 11.71875 12.40625 
L 22.015625 12.40625 
L 22.015625 4 
L 14.015625 -11.625 
L 7.71875 -11.625 
L 11.71875 4 
z
" id="DejaVuSans-2c"/>
      <path d="M 18.109375 8.203125 
L 18.109375 -20.796875 
L 9.078125 -20.796875 
L 9.078125 54.6875 
L 18.109375 54.6875 
L 18.109375 46.390625 
Q 20.953125 51.265625 25.265625 53.625 
Q 29.59375 56 35.59375 56 
Q 45.5625 56 51.78125 48.09375 
Q 58.015625 40.1875 58.015625 27.296875 
Q 58.015625 14.40625 51.78125 6.484375 
Q 45.5625 -1.421875 35.59375 -1.421875 
Q 29.59375 -1.421875 25.265625 0.953125 
Q 20.953125 3.328125 18.109375 8.203125 
z
M 48.6875 27.296875 
Q 48.6875 37.203125 44.609375 42.84375 
Q 40.53125 48.484375 33.40625 48.484375 
Q 26.265625 48.484375 22.1875 42.84375 
Q 18.109375 37.203125 18.109375 27.296875 
Q 18.109375 17.390625 22.1875 11.75 
Q 26.265625 6.109375 33.40625 6.109375 
Q 40.53125 6.109375 44.609375 11.75 
Q 48.6875 17.390625 48.6875 27.296875 
z
" id="DejaVuSans-70"/>
     </defs>
     <g transform="translate(16.139531 294.999375)rotate(-90)scale(0.17 -0.17)">
      <use xlink:href="#DejaVuSans-46"/>
      <use x="57.410156" xlink:href="#DejaVuSans-72"/>
      <use x="98.523438" xlink:href="#DejaVuSans-61"/>
      <use x="159.802734" xlink:href="#DejaVuSans-63"/>
      <use x="214.783203" xlink:href="#DejaVuSans-74"/>
      <use x="253.992188" xlink:href="#DejaVuSans-69"/>
      <use x="281.775391" xlink:href="#DejaVuSans-6f"/>
      <use x="342.957031" xlink:href="#DejaVuSans-6e"/>
      <use x="406.335938" xlink:href="#DejaVuSans-20"/>
      <use x="438.123047" xlink:href="#DejaVuSans-6f"/>
      <use x="499.304688" xlink:href="#DejaVuSans-66"/>
      <use x="534.509766" xlink:href="#DejaVuSans-20"/>
      <use x="566.296875" xlink:href="#DejaVuSans-66"/>
      <use x="601.501953" xlink:href="#DejaVuSans-75"/>
      <use x="664.880859" xlink:href="#DejaVuSans-6e"/>
      <use x="728.259766" xlink:href="#DejaVuSans-63"/>
      <use x="783.240234" xlink:href="#DejaVuSans-74"/>
      <use x="822.449219" xlink:href="#DejaVuSans-69"/>
      <use x="850.232422" xlink:href="#DejaVuSans-6f"/>
      <use x="911.414062" xlink:href="#DejaVuSans-6e"/>
      <use x="974.792969" xlink:href="#DejaVuSans-2c"/>
      <use x="1006.580078" xlink:href="#DejaVuSans-74"/>
      <use x="1045.789062" xlink:href="#DejaVuSans-61"/>
      <use x="1107.068359" xlink:href="#DejaVuSans-72"/>
      <use x="1148.166016" xlink:href="#DejaVuSans-67"/>
      <use x="1211.642578" xlink:href="#DejaVuSans-65"/>
      <use x="1273.166016" xlink:href="#DejaVuSans-74"/>
      <use x="1312.375" xlink:href="#DejaVuSans-20"/>
      <use x="1344.162109" xlink:href="#DejaVuSans-70"/>
      <use x="1407.638672" xlink:href="#DejaVuSans-61"/>
      <use x="1468.917969" xlink:href="#DejaVuSans-69"/>
      <use x="1496.701172" xlink:href="#DejaVuSans-72"/>
      <use x="1537.814453" xlink:href="#DejaVuSans-73"/>
     </g>
    </g>
   </g>
   <g id="line2d_41">
    <defs>
     <path d="M 0 1.5 
C 0.397805 1.5 0.77937 1.341951 1.06066 1.06066 
C 1.341951 0.77937 1.5 0.397805 1.5 0 
C 1.5 -0.397805 1.341951 -0.77937 1.06066 -1.06066 
C 0.77937 -1.341951 0.397805 -1.5 0 -1.5 
C -0.397805 -1.5 -0.77937 -1.341951 -1.06066 -1.06066 
C -1.341951 -0.77937 -1.5 -0.397805 -1.5 0 
C -1.5 0.397805 -1.341951 0.77937 -1.06066 1.06066 
C -0.77937 1.341951 -0.397805 1.5 0 1.5 
z
" id="m1c95c30799" style="stroke:#f5deb3;"/>
    </defs>
    <g>
     <use style="fill:#f5deb3;stroke:#f5deb3;" x="165.765167" xlink:href="#m1c95c30799" y="27.513663"/>
     <use style="fill:#f5deb3;stroke:#f5deb3;" x="165.765167" xlink:href="#m1c95c30799" y="27.513663"/>
    </g>
   </g>
   <g id="line2d_42">
    <defs>
     <path d="M 0 1.5 
C 0.397805 1.5 0.77937 1.341951 1.06066 1.06066 
C 1.341951 0.77937 1.5 0.397805 1.5 0 
C 1.5 -0.397805 1.341951 -0.77937 1.06066 -1.06066 
C 0.77937 -1.341951 0.397805 -1.5 0 -1.5 
C -0.397805 -1.5 -0.77937 -1.341951 -1.06066 -1.06066 
C -1.341951 -0.77937 -1.5 -0.397805 -1.5 0 
C -1.5 0.397805 -1.341951 0.77937 -1.06066 1.06066 
C -0.77937 1.341951 -0.397805 1.5 0 1.5 
z
" id="mbbfb3a0836" style="stroke:#000080;"/>
    </defs>
    <g>
     <use style="fill:#000080;stroke:#000080;" x="169.824989" xlink:href="#mbbfb3a0836" y="27.513663"/>
     <use style="fill:#000080;stroke:#000080;" x="169.824989" xlink:href="#mbbfb3a0836" y="27.513663"/>
    </g>
   </g>
   <g id="line2d_43">
    <path d="M 88.814625 294.88 
L 88.814625 293.307257 
L 89.069276 293.307257 
L 89.069276 292.258761 
L 96.206361 292.258761 
L 96.206361 290.686018 
L 97.021141 290.686018 
L 97.021141 290.161771 
L 97.179562 290.161771 
L 97.179562 288.589027 
L 98.249422 288.589027 
L 98.249422 287.016284 
L 98.396965 287.016284 
L 98.396965 286.492036 
L 99.11626 286.492036 
L 99.11626 285.967789 
L 99.806659 285.967789 
L 99.806659 285.443541 
L 101.725597 285.443541 
L 101.725597 284.395046 
L 101.966002 284.395046 
L 101.966002 283.870798 
L 102.084955 283.870798 
L 102.084955 283.34655 
L 102.436953 283.34655 
L 102.436953 282.822302 
L 103.008056 282.822302 
L 103.008056 282.298055 
L 104.513022 282.298055 
L 104.513022 281.773807 
L 105.896762 281.773807 
L 105.896762 280.725312 
L 106.821105 280.725312 
L 106.821105 280.201064 
L 107.612537 280.201064 
L 107.612537 279.676816 
L 108.286687 279.676816 
L 108.286687 279.152568 
L 109.328742 279.152568 
L 109.328742 278.628321 
L 109.713291 278.628321 
L 109.713291 278.104073 
L 110.384516 278.104073 
L 110.384516 277.579825 
L 111.72091 277.579825 
L 111.72091 277.055578 
L 111.922736 277.055578 
L 111.922736 276.007082 
L 112.514373 276.007082 
L 112.514373 274.434339 
L 113.700266 274.434339 
L 113.700266 273.910091 
L 115.200897 273.910091 
L 115.200897 273.385844 
L 115.529352 273.385844 
L 115.529352 272.861596 
L 116.884309 272.861596 
L 116.984244 271.288853 
L 117.329507 271.288853 
L 117.329507 270.764605 
L 117.811013 270.764605 
L 117.811013 270.240357 
L 119.135627 270.240357 
L 119.179531 269.191862 
L 119.354037 269.191862 
L 119.354037 268.143366 
L 120.242208 268.143366 
L 120.242208 267.619119 
L 122.114929 267.619119 
L 122.225468 266.046375 
L 122.262156 266.046375 
L 122.262156 265.522128 
L 125.371564 265.522128 
L 125.371564 264.99788 
L 125.972626 264.99788 
L 125.972626 264.473632 
L 126.610389 264.473632 
L 126.610389 263.949385 
L 127.115148 263.949385 
L 127.225332 262.900889 
L 127.551708 262.900889 
L 127.551708 262.376641 
L 128.108367 262.376641 
L 128.108367 261.852394 
L 128.67282 261.852394 
L 128.67282 261.328146 
L 128.798561 261.328146 
L 128.798561 260.803898 
L 130.124199 260.803898 
L 130.216736 259.231155 
L 130.42314 259.231155 
L 130.42314 258.18266 
L 132.156459 258.18266 
L 132.156459 257.658412 
L 133.176677 257.658412 
L 133.176677 257.134164 
L 133.636601 257.134164 
L 133.636601 256.609917 
L 134.158073 256.609917 
L 134.158073 256.085669 
L 134.841393 256.085669 
L 134.876616 254.512926 
L 135.155828 254.512926 
L 135.155828 253.988678 
L 135.32806 253.988678 
L 135.32806 252.940182 
L 136.147917 252.940182 
L 136.147917 252.415935 
L 136.471629 252.415935 
L 136.471629 251.891687 
L 136.883542 251.891687 
L 136.883542 251.367439 
L 137.255203 251.367439 
L 137.255203 250.843192 
L 139.613502 250.843192 
L 139.613502 248.746201 
L 140.750355 248.746201 
L 140.850072 247.697705 
L 141.047787 247.697705 
L 141.047787 247.173458 
L 141.96872 247.173458 
L 141.96872 246.64921 
L 142.450997 246.64921 
L 142.462317 245.600714 
L 142.920112 245.600714 
L 142.920112 245.076467 
L 143.204228 245.076467 
L 143.204228 244.552219 
L 143.408921 244.552219 
L 143.408921 244.027971 
L 143.558203 244.027971 
L 143.632361 242.455228 
L 143.915437 242.455228 
L 143.915437 241.93098 
L 144.101597 241.93098 
L 144.101597 241.406733 
L 144.366985 241.406733 
L 144.366985 240.882485 
L 144.698028 240.882485 
L 144.757539 239.83399 
L 145.351148 239.83399 
L 145.351148 239.309742 
L 145.616908 239.309742 
L 145.616908 238.785494 
L 145.766946 238.785494 
L 145.766946 238.261246 
L 145.897164 238.261246 
L 145.897164 237.736999 
L 146.145545 237.736999 
L 146.145545 237.212751 
L 146.939763 237.212751 
L 146.939763 236.688503 
L 147.598477 236.688503 
L 147.598477 235.640008 
L 147.972068 235.640008 
L 147.972068 235.11576 
L 148.805619 235.11576 
L 148.805619 234.591512 
L 149.000107 234.591512 
L 149.000107 234.067265 
L 149.261127 234.067265 
L 149.261127 233.543017 
L 149.45809 233.543017 
L 149.45809 233.018769 
L 149.719718 233.018769 
L 149.719718 232.494521 
L 149.838006 232.494521 
L 149.838006 231.446026 
L 151.176953 231.446026 
L 151.176953 230.921778 
L 151.346501 230.921778 
L 151.353248 229.873283 
L 151.825658 229.873283 
L 151.845336 228.30054 
L 152.247048 228.30054 
L 152.317349 226.727797 
L 152.488698 226.727797 
L 152.507631 225.679301 
L 152.670856 225.679301 
L 152.670856 224.630806 
L 153.127109 224.630806 
L 153.127109 224.106558 
L 153.38677 224.106558 
L 153.428671 221.485319 
L 153.535952 221.485319 
L 153.535952 220.961072 
L 154.24024 220.961072 
L 154.24024 220.436824 
L 154.590234 220.436824 
L 154.590234 219.912576 
L 154.867386 219.912576 
L 154.922285 218.339833 
L 155.031558 218.339833 
L 155.031558 217.815585 
L 155.588844 217.815585 
L 155.588844 217.291338 
L 155.891966 217.291338 
L 155.891966 216.76709 
L 156.067204 216.76709 
L 156.067204 216.242842 
L 156.321704 216.242842 
L 156.321704 215.718594 
L 156.462595 215.718594 
L 156.462595 215.194347 
L 156.656932 215.194347 
L 156.711349 214.145851 
L 156.951685 214.145851 
L 157.04398 212.573108 
L 157.303617 212.573108 
L 157.403538 211.524613 
L 157.648488 211.524613 
L 157.741778 210.476117 
L 157.92225 210.476117 
L 157.954443 209.427622 
L 158.036948 209.427622 
L 158.036948 208.903374 
L 158.209837 208.903374 
L 158.209837 208.379126 
L 158.398923 208.379126 
L 158.452567 206.806383 
L 158.528279 206.806383 
L 158.625765 194.224438 
L 158.647844 194.224438 
L 158.647844 193.70019 
L 158.770966 193.70019 
L 158.770966 181.642493 
L 158.971343 181.642493 
L 158.971343 181.118245 
L 159.156562 181.118245 
L 159.156562 180.593997 
L 159.28036 180.593997 
L 159.322843 179.021254 
L 159.642328 179.021254 
L 159.65898 172.206034 
L 159.910938 172.206034 
L 160.004989 170.109043 
L 160.163298 170.109043 
L 160.163298 169.584795 
L 160.511282 169.584795 
L 160.527113 166.963557 
L 160.676786 166.963557 
L 160.676786 166.439309 
L 160.864002 166.439309 
L 160.91049 156.478602 
L 161.026161 156.478602 
L 161.106669 155.430107 
L 161.417476 155.430107 
L 161.469983 153.333116 
L 161.552172 153.333116 
L 161.552172 152.808868 
L 161.796406 152.808868 
L 161.851433 142.323914 
L 161.953682 142.323914 
L 162.008208 140.751171 
L 162.328224 140.751171 
L 162.417054 130.266216 
L 162.501901 130.266216 
L 162.501901 129.741969 
L 162.740052 129.741969 
L 162.799078 113.490289 
L 162.89241 113.490289 
L 162.89241 106.675069 
L 163.108235 106.675069 
L 163.199907 98.287105 
L 163.230357 98.287105 
L 163.338186 96.714362 
L 163.375097 96.714362 
L 163.478693 94.617371 
L 163.571731 94.617371 
L 163.571731 94.093124 
L 163.893453 94.093124 
L 163.958377 91.996133 
L 164.431342 91.996133 
L 164.431342 84.132417 
L 164.578857 84.132417 
L 164.66925 83.083922 
L 164.715819 83.083922 
L 164.715819 75.220206 
L 164.946791 75.220206 
L 164.968191 56.347288 
L 165.141461 56.347288 
L 165.141461 55.82304 
L 165.304017 55.82304 
L 165.399626 51.629058 
L 165.473952 51.629058 
L 165.556818 48.483572 
L 165.73013 48.483572 
L 165.791398 40.095609 
L 165.976785 40.095609 
L 166.028566 38.522865 
L 166.333201 38.522865 
L 166.333201 37.998618 
L 166.498896 37.998618 
L 166.498896 37.47437 
L 166.685142 37.47437 
L 166.751369 33.280388 
L 167.996832 33.280388 
L 167.996832 30.134902 
L 168.359298 30.134902 
L 168.359298 29.610654 
L 169.100556 29.610654 
L 169.100556 28.037911 
L 169.824989 28.037911 
L 169.824989 27.513663 
L 333.168 27.513663 
L 333.168 27.513663 
" style="fill:none;stroke:#000080;stroke-linecap:square;stroke-width:1.5;"/>
   </g>
   <g id="line2d_44">
    <defs>
     <path d="M 0 6 
C 1.591219 6 3.117479 5.367802 4.242641 4.242641 
C 5.367802 3.117479 6 1.591219 6 0 
C 6 -1.591219 5.367802 -3.117479 4.242641 -4.242641 
C 3.117479 -5.367802 1.591219 -6 0 -6 
C -1.591219 -6 -3.117479 -5.367802 -4.242641 -4.242641 
C -5.367802 -3.117479 -6 -1.591219 -6 0 
C -6 1.591219 -5.367802 3.117479 -4.242641 4.242641 
C -3.117479 5.367802 -1.591219 6 0 6 
z
" id="me3dd8d9ca8" style="stroke:#000080;stroke-width:1.5;"/>
    </defs>
    <g>
     <use style="fill-opacity:0;stroke:#000080;stroke-width:1.5;" x="162.89241" xlink:href="#me3dd8d9ca8" y="113.490289"/>
     <use style="fill-opacity:0;stroke:#000080;stroke-width:1.5;" x="169.824989" xlink:href="#me3dd8d9ca8" y="28.037911"/>
     <use style="fill-opacity:0;stroke:#000080;stroke-width:1.5;" x="169.824989" xlink:href="#me3dd8d9ca8" y="27.513663"/>
     <use style="fill-opacity:0;stroke:#000080;stroke-width:1.5;" x="169.824989" xlink:href="#me3dd8d9ca8" y="27.513663"/>
     <use style="fill-opacity:0;stroke:#000080;stroke-width:1.5;" x="333.168" xlink:href="#me3dd8d9ca8" y="27.513663"/>
    </g>
   </g>
   <g id="line2d_45">
    <path style="fill:none;stroke:#000080;stroke-linecap:square;stroke-width:1.5;"/>
    <g/>
   </g>
   <g id="line2d_46">
    <defs>
     <path d="M 0 1.5 
C 0.397805 1.5 0.77937 1.341951 1.06066 1.06066 
C 1.341951 0.77937 1.5 0.397805 1.5 0 
C 1.5 -0.397805 1.341951 -0.77937 1.06066 -1.06066 
C 0.77937 -1.341951 0.397805 -1.5 0 -1.5 
C -0.397805 -1.5 -0.77937 -1.341951 -1.06066 -1.06066 
C -1.341951 -0.77937 -1.5 -0.397805 -1.5 0 
C -1.5 0.397805 -1.341951 0.77937 -1.06066 1.06066 
C -0.77937 1.341951 -0.397805 1.5 0 1.5 
z
" id="mbd62ebd9db" style="stroke:#ff00ff;"/>
    </defs>
    <g>
     <use style="fill:#ff00ff;stroke:#ff00ff;" x="188.640167" xlink:href="#mbd62ebd9db" y="27.513663"/>
     <use style="fill:#ff00ff;stroke:#ff00ff;" x="188.640167" xlink:href="#mbd62ebd9db" y="27.513663"/>
    </g>
   </g>
   <g id="line2d_47">
    <path d="M 56.12 294.88 
L 56.12 294.355752 
L 70.436568 294.355752 
L 70.436568 293.831505 
L 86.335171 293.831505 
L 86.335171 293.307257 
L 90.05175 293.307257 
L 90.05175 292.783009 
L 95.174734 292.783009 
L 95.174734 292.258761 
L 95.698286 292.258761 
L 95.698286 291.734514 
L 97.021141 291.734514 
L 97.021141 291.210266 
L 100.207968 291.210266 
L 100.207968 290.686018 
L 100.600121 290.686018 
L 100.600121 290.161771 
L 102.895343 290.161771 
L 102.895343 289.113275 
L 103.884099 289.113275 
L 103.884099 288.589027 
L 104.717651 288.589027 
L 104.717651 288.06478 
L 105.119742 288.06478 
L 105.119742 287.540532 
L 106.910863 287.540532 
L 106.910863 287.016284 
L 108.036969 287.016284 
L 108.036969 286.492036 
L 108.775496 286.492036 
L 108.775496 285.967789 
L 109.17248 285.967789 
L 109.17248 285.443541 
L 110.384516 285.443541 
L 110.384516 284.919293 
L 111.653105 284.919293 
L 111.653105 284.395046 
L 112.055982 284.395046 
L 112.055982 283.34655 
L 112.188203 283.34655 
L 112.188203 282.822302 
L 113.023703 282.822302 
L 113.023703 282.298055 
L 113.210876 282.298055 
L 113.210876 281.773807 
L 113.639848 281.773807 
L 113.639848 281.249559 
L 113.820466 281.249559 
L 113.820466 280.725312 
L 113.999206 280.725312 
L 113.999206 280.201064 
L 115.145539 280.201064 
L 115.145539 279.676816 
L 115.475044 279.676816 
L 115.475044 279.152568 
L 115.744887 279.152568 
L 115.744887 278.628321 
L 116.220179 278.628321 
L 116.324038 276.53133 
L 117.37827 276.53133 
L 117.37827 276.007082 
L 117.811013 276.007082 
L 117.811013 275.482834 
L 118.325541 275.482834 
L 118.325541 274.958587 
L 118.869818 274.958587 
L 118.869818 274.434339 
L 119.09161 274.434339 
L 119.09161 273.910091 
L 119.740314 273.910091 
L 119.740314 273.385844 
L 120.528351 273.385844 
L 120.528351 272.861596 
L 121.16504 272.861596 
L 121.16504 272.337348 
L 121.436343 272.337348 
L 121.513078 270.240357 
L 121.816638 270.240357 
L 121.816638 269.716109 
L 121.929105 269.716109 
L 121.929105 269.191862 
L 122.335299 269.191862 
L 122.335299 268.667614 
L 122.480659 268.667614 
L 122.480659 268.143366 
L 122.624799 268.143366 
L 122.624799 267.619119 
L 123.396663 267.619119 
L 123.396663 267.094871 
L 123.567356 267.094871 
L 123.601292 266.046375 
L 123.970233 266.046375 
L 123.970233 265.522128 
L 125.248787 265.522128 
L 125.248787 264.99788 
L 125.883796 264.99788 
L 125.883796 264.473632 
L 126.236395 264.473632 
L 126.236395 263.949385 
L 126.553378 263.949385 
L 126.553378 263.425137 
L 126.723846 263.425137 
L 126.723846 262.900889 
L 127.032044 262.900889 
L 127.115148 261.328146 
L 127.252768 261.328146 
L 127.252768 260.279651 
L 127.685891 260.279651 
L 127.685891 259.755403 
L 127.845538 259.755403 
L 127.845538 259.231155 
L 128.108367 259.231155 
L 128.108367 258.706907 
L 128.469703 258.706907 
L 128.469703 257.658412 
L 128.698042 257.658412 
L 128.723227 256.609917 
L 129.121245 256.609917 
L 129.121245 256.085669 
L 129.243759 256.085669 
L 129.243759 255.561421 
L 129.462107 255.561421 
L 129.462107 255.037173 
L 130.077743 255.037173 
L 130.077743 254.512926 
L 130.739365 254.512926 
L 130.761732 253.46443 
L 130.98381 253.46443 
L 130.98381 252.940182 
L 132.156459 252.940182 
L 132.156459 252.415935 
L 133.36981 252.415935 
L 133.446459 251.367439 
L 133.936519 251.367439 
L 133.936519 250.843192 
L 134.176407 250.843192 
L 134.213018 249.794696 
L 135.03423 249.794696 
L 135.03423 249.270448 
L 135.379395 249.270448 
L 135.379395 248.746201 
L 135.667432 248.746201 
L 135.667432 247.697705 
L 136.310535 247.697705 
L 136.310535 247.173458 
L 136.599426 247.173458 
L 136.694654 245.600714 
L 136.72628 245.600714 
L 136.742071 244.552219 
L 136.930442 244.552219 
L 136.930442 244.027971 
L 137.163039 244.027971 
L 137.163039 243.503724 
L 138.4819 243.503724 
L 138.4819 242.979476 
L 139.371405 242.979476 
L 139.371405 241.93098 
L 139.600142 241.93098 
L 139.600142 241.406733 
L 139.733284 241.406733 
L 139.733284 240.882485 
L 139.917968 240.882485 
L 139.917968 240.358237 
L 140.307161 240.358237 
L 140.307161 239.83399 
L 140.862496 239.83399 
L 140.862496 239.309742 
L 141.851869 239.309742 
L 141.851869 238.785494 
L 141.991995 238.785494 
L 141.991995 238.261246 
L 142.563858 238.261246 
L 142.563858 237.736999 
L 142.776273 237.736999 
L 142.831738 236.688503 
L 142.964129 236.688503 
L 142.975116 234.591512 
L 143.095508 234.591512 
L 143.095508 234.067265 
L 143.727238 234.067265 
L 143.832047 233.018769 
L 143.884213 233.018769 
L 143.884213 231.970274 
L 144.07071 231.970274 
L 144.07071 231.446026 
L 144.234803 231.446026 
L 144.234803 230.921778 
L 144.538318 230.921778 
L 144.548344 229.349035 
L 144.698028 229.349035 
L 144.698028 228.824787 
L 146.57844 228.824787 
L 146.57844 227.776292 
L 147.02675 227.776292 
L 147.02675 226.203549 
L 148.078499 226.203549 
L 148.078499 225.679301 
L 148.257126 225.679301 
L 148.257126 225.155053 
L 148.377861 225.155053 
L 148.433916 223.58231 
L 149.023298 223.58231 
L 149.023298 223.058063 
L 149.276358 223.058063 
L 149.276358 222.533815 
L 149.397726 222.533815 
L 149.397726 222.009567 
L 149.630465 222.009567 
L 149.645373 220.961072 
L 149.756771 220.961072 
L 149.838006 219.912576 
L 150.310351 219.912576 
L 150.310351 219.388328 
L 151.163317 219.388328 
L 151.163317 218.864081 
L 151.687278 218.864081 
L 151.687278 211.000365 
L 152.001953 211.000365 
L 152.001953 210.476117 
L 152.272646 210.476117 
L 152.304589 202.088154 
L 152.96818 202.088154 
L 152.96818 201.563906 
L 153.181782 201.563906 
L 153.181782 201.039658 
L 153.577492 201.039658 
L 153.577492 200.515411 
L 153.847999 200.515411 
L 153.847999 191.603199 
L 154.120059 191.603199 
L 154.120059 191.078952 
L 154.416128 191.078952 
L 154.416128 189.506209 
L 154.971544 189.506209 
L 154.971544 188.981961 
L 155.456522 188.981961 
L 155.541325 186.88497 
L 155.636232 186.88497 
L 155.636232 180.593997 
L 156.2863 180.593997 
L 156.2863 180.06975 
L 156.990607 180.06975 
L 157.02944 177.972759 
L 157.322695 177.972759 
L 157.417765 175.875768 
L 158.41235 175.875768 
L 158.41235 168.5363 
L 160.507322 168.5363 
L 160.507322 165.915061 
L 160.665017 165.915061 
L 160.665017 165.390813 
L 162.363811 165.390813 
L 162.363811 155.430107 
L 163.594912 155.430107 
L 163.594912 154.905859 
L 163.730061 154.905859 
L 163.730061 153.857364 
L 164.323833 153.857364 
L 164.323833 152.808868 
L 164.771536 152.808868 
L 164.771536 151.760373 
L 166.696197 151.760373 
L 166.787135 150.18763 
L 166.994756 150.18763 
L 166.994756 149.663382 
L 167.274866 149.663382 
L 167.32555 148.614886 
L 167.48727 148.614886 
L 167.48727 148.090639 
L 168.07606 148.090639 
L 168.07606 147.566391 
L 168.356789 147.566391 
L 168.356789 147.042143 
L 168.504161 147.042143 
L 168.504161 146.517896 
L 168.692152 146.517896 
L 168.692152 145.993648 
L 169.081327 145.993648 
L 169.081327 145.4694 
L 169.232178 145.4694 
L 169.265522 143.896657 
L 169.461885 143.896657 
L 169.461885 143.372409 
L 169.681595 143.372409 
L 169.725666 134.984446 
L 169.824989 134.984446 
L 169.824989 134.460198 
L 170.037861 134.460198 
L 170.087835 132.887455 
L 170.418071 132.887455 
L 170.418071 132.363207 
L 170.581943 132.363207 
L 170.581943 131.838959 
L 170.855252 131.838959 
L 170.907234 130.266216 
L 171.256178 130.266216 
L 171.256178 129.741969 
L 171.437467 129.741969 
L 171.437467 129.217721 
L 172.541946 129.217721 
L 172.541946 118.208519 
L 173.434715 118.208519 
L 173.434715 117.684271 
L 175.490952 117.684271 
L 175.490952 109.296308 
L 176.030663 109.296308 
L 176.030663 108.247812 
L 176.739784 108.247812 
L 176.739784 107.199317 
L 177.252689 107.199317 
L 177.252689 98.811353 
L 177.401548 98.811353 
L 177.442998 87.802151 
L 177.691082 87.802151 
L 177.691082 86.753656 
L 177.965782 86.753656 
L 177.965782 86.229408 
L 178.243219 86.229408 
L 178.243219 85.180912 
L 178.481486 85.180912 
L 178.481486 84.656665 
L 179.187781 84.656665 
L 179.187781 84.132417 
L 179.587857 84.132417 
L 179.587857 83.608169 
L 179.752815 83.608169 
L 179.752815 83.083922 
L 181.140469 83.083922 
L 181.140469 82.559674 
L 182.111744 82.559674 
L 182.111744 82.035426 
L 182.272141 82.035426 
L 182.367887 73.123215 
L 182.572063 73.123215 
L 182.572063 72.598967 
L 182.958267 72.598967 
L 183.034264 70.501976 
L 183.249715 70.501976 
L 183.249715 69.977729 
L 183.611858 69.977729 
L 183.675768 57.395783 
L 184.17567 57.395783 
L 184.17567 56.871536 
L 184.348691 56.871536 
L 184.348691 56.347288 
L 184.899756 56.347288 
L 184.899756 55.298792 
L 185.099803 55.298792 
L 185.099803 54.774545 
L 185.463399 54.774545 
L 185.481008 52.677554 
L 186.249986 52.677554 
L 186.249986 44.28959 
L 186.643171 44.28959 
L 186.643171 43.241095 
L 186.946096 43.241095 
L 186.994514 41.668352 
L 187.271342 41.668352 
L 187.280521 40.619856 
L 187.428377 40.619856 
L 187.428377 39.571361 
L 188.180859 39.571361 
L 188.180859 29.086407 
L 188.34631 29.086407 
L 188.34631 28.562159 
L 188.608535 28.562159 
L 188.640167 27.513663 
L 333.168 27.513663 
L 333.168 27.513663 
" style="fill:none;stroke:#ff00ff;stroke-linecap:square;stroke-width:1.5;"/>
   </g>
   <g id="line2d_48">
    <defs>
     <path d="M -0 8.485281 
L 5.091169 0 
L 0 -8.485281 
L -5.091169 -0 
z
" id="m7ed9e26e65" style="stroke:#ff00ff;stroke-linejoin:miter;stroke-width:1.5;"/>
    </defs>
    <g>
     <use style="fill-opacity:0;stroke:#ff00ff;stroke-linejoin:miter;stroke-width:1.5;" x="153.577492" xlink:href="#m7ed9e26e65" y="200.515411"/>
     <use style="fill-opacity:0;stroke:#ff00ff;stroke-linejoin:miter;stroke-width:1.5;" x="188.640167" xlink:href="#m7ed9e26e65" y="28.037911"/>
     <use style="fill-opacity:0;stroke:#ff00ff;stroke-linejoin:miter;stroke-width:1.5;" x="188.640167" xlink:href="#m7ed9e26e65" y="27.513663"/>
     <use style="fill-opacity:0;stroke:#ff00ff;stroke-linejoin:miter;stroke-width:1.5;" x="188.640167" xlink:href="#m7ed9e26e65" y="27.513663"/>
     <use style="fill-opacity:0;stroke:#ff00ff;stroke-linejoin:miter;stroke-width:1.5;" x="333.168" xlink:href="#m7ed9e26e65" y="27.513663"/>
    </g>
   </g>
   <g id="line2d_49">
    <path style="fill:none;stroke:#ff00ff;stroke-linecap:square;stroke-width:1.5;"/>
    <g/>
   </g>
   <g id="line2d_50">
    <defs>
     <path d="M 0 1.5 
C 0.397805 1.5 0.77937 1.341951 1.06066 1.06066 
C 1.341951 0.77937 1.5 0.397805 1.5 0 
C 1.5 -0.397805 1.341951 -0.77937 1.06066 -1.06066 
C 0.77937 -1.341951 0.397805 -1.5 0 -1.5 
C -0.397805 -1.5 -0.77937 -1.341951 -1.06066 -1.06066 
C -1.341951 -0.77937 -1.5 -0.397805 -1.5 0 
C -1.5 0.397805 -1.341951 0.77937 -1.06066 1.06066 
C -0.77937 1.341951 -0.397805 1.5 0 1.5 
z
" id="m0eb832712b" style="stroke:#ff7500;"/>
    </defs>
    <g>
     <use style="fill:#ff7500;stroke:#ff7500;" x="187.348793" xlink:href="#m0eb832712b" y="27.513663"/>
     <use style="fill:#ff7500;stroke:#ff7500;" x="187.348793" xlink:href="#m0eb832712b" y="27.513663"/>
    </g>
   </g>
   <g id="line2d_51">
    <path d="M 77.653281 294.88 
L 77.653281 294.355752 
L 93.105847 294.355752 
L 93.105847 293.831505 
L 95.351029 293.831505 
L 95.351029 293.307257 
L 98.249422 293.307257 
L 98.249422 292.783009 
L 98.974789 292.783009 
L 98.974789 292.258761 
L 99.806659 292.258761 
L 99.806659 291.734514 
L 100.075237 291.734514 
L 100.075237 291.210266 
L 100.339683 291.210266 
L 100.339683 290.686018 
L 101.481783 290.686018 
L 101.481783 290.161771 
L 102.552701 290.161771 
L 102.552701 289.637523 
L 104.096307 289.637523 
L 104.096307 289.113275 
L 105.020098 289.113275 
L 105.020098 288.589027 
L 106.08565 288.589027 
L 106.08565 288.06478 
L 106.730875 288.06478 
L 106.730875 287.540532 
L 107.868452 287.540532 
L 107.868452 287.016284 
L 108.036969 287.016284 
L 108.120612 285.967789 
L 108.532829 285.967789 
L 108.532829 284.919293 
L 109.483595 284.919293 
L 109.483595 284.395046 
L 110.530183 284.395046 
L 110.530183 283.34655 
L 112.055982 283.34655 
L 112.055982 282.822302 
L 112.188203 282.822302 
L 112.188203 282.298055 
L 113.880253 282.298055 
L 113.939832 280.725312 
L 117.133064 280.725312 
L 117.231566 279.676816 
L 117.620026 279.676816 
L 117.620026 279.152568 
L 117.763465 279.152568 
L 117.763465 278.628321 
L 118.093572 278.628321 
L 118.186736 277.579825 
L 118.325541 277.579825 
L 118.325541 277.055578 
L 118.508888 277.055578 
L 118.508888 276.53133 
L 118.780293 276.53133 
L 118.780293 276.007082 
L 120.528351 276.007082 
L 120.528351 275.482834 
L 120.769881 275.482834 
L 120.769881 274.958587 
L 121.281837 274.958587 
L 121.281837 274.434339 
L 121.816638 274.434339 
L 121.816638 273.910091 
L 122.408133 273.910091 
L 122.408133 273.385844 
L 122.767741 273.385844 
L 122.838768 272.337348 
L 123.430938 272.337348 
L 123.430938 271.8131 
L 123.870396 271.8131 
L 123.870396 271.288853 
L 124.200956 271.288853 
L 124.200956 270.764605 
L 125.125128 270.764605 
L 125.125128 270.240357 
L 125.463074 270.240357 
L 125.463074 269.191862 
L 125.82432 269.191862 
L 125.82432 268.667614 
L 126.438787 268.667614 
L 126.524802 267.094871 
L 126.92061 267.094871 
L 126.92061 266.570623 
L 127.334814 266.570623 
L 127.334814 266.046375 
L 128.186438 266.046375 
L 128.212383 264.99788 
L 128.873566 264.99788 
L 128.873566 264.473632 
L 129.582224 264.473632 
L 129.582224 263.949385 
L 129.937618 263.949385 
L 129.937618 263.425137 
L 130.514085 263.425137 
L 130.514085 262.900889 
L 130.98381 262.900889 
L 130.98381 262.376641 
L 131.354881 262.376641 
L 131.354881 261.852394 
L 131.675773 261.852394 
L 131.675773 261.328146 
L 131.802471 261.328146 
L 131.802471 260.803898 
L 132.11519 260.803898 
L 132.11519 260.279651 
L 132.340954 260.279651 
L 132.42232 259.231155 
L 132.624067 259.231155 
L 132.624067 258.706907 
L 133.098812 258.706907 
L 133.098812 258.18266 
L 134.066106 258.18266 
L 134.102952 257.134164 
L 134.39491 257.134164 
L 134.39491 256.609917 
L 134.717542 256.609917 
L 134.717542 256.085669 
L 134.911766 256.085669 
L 134.981852 255.037173 
L 135.293751 255.037173 
L 135.3623 253.46443 
L 135.515543 253.46443 
L 135.515543 252.940182 
L 136.082436 252.940182 
L 136.082436 252.415935 
L 136.647106 252.415935 
L 136.647106 251.891687 
L 137.407721 251.891687 
L 137.407721 251.367439 
L 137.945844 251.367439 
L 138.04855 249.794696 
L 138.652226 249.794696 
L 138.652226 249.270448 
L 138.834862 249.270448 
L 138.834862 248.746201 
L 138.987898 248.746201 
L 138.987898 248.221953 
L 139.249066 248.221953 
L 139.357855 247.173458 
L 139.586771 247.173458 
L 139.69345 245.600714 
L 139.706738 245.600714 
L 139.706738 244.552219 
L 140.113666 244.552219 
L 140.113666 244.027971 
L 140.762851 244.027971 
L 140.762851 243.503724 
L 140.949214 243.503724 
L 140.949214 242.979476 
L 141.95707 242.979476 
L 142.026848 241.406733 
L 142.154044 241.406733 
L 142.154044 240.882485 
L 142.84281 240.882485 
L 142.84281 240.358237 
L 143.873793 240.358237 
L 143.873793 239.83399 
L 144.204155 239.83399 
L 144.204155 238.785494 
L 144.478043 238.785494 
L 144.488103 237.736999 
L 144.68809 237.736999 
L 144.747635 236.688503 
L 144.993542 236.688503 
L 145.100637 235.640008 
L 145.129729 235.640008 
L 145.129729 235.11576 
L 145.43702 235.11576 
L 145.43702 234.591512 
L 146.209359 234.591512 
L 146.209359 234.067265 
L 146.560619 234.067265 
L 146.560619 233.543017 
L 147.996687 233.543017 
L 147.996687 233.018769 
L 148.537534 233.018769 
L 148.577222 231.970274 
L 148.703609 231.970274 
L 148.703609 231.446026 
L 148.922576 231.446026 
L 148.922576 230.921778 
L 149.192418 230.921778 
L 149.192418 230.397531 
L 149.359891 230.397531 
L 149.465621 229.349035 
L 149.510735 229.349035 
L 149.510735 228.824787 
L 149.962801 228.824787 
L 149.962801 228.30054 
L 150.396151 228.30054 
L 150.396151 227.776292 
L 150.714141 227.776292 
L 150.714141 227.252044 
L 151.115504 227.252044 
L 151.204193 226.203549 
L 151.581093 226.203549 
L 151.581093 225.155053 
L 152.01494 225.155053 
L 152.01494 224.630806 
L 152.323726 224.630806 
L 152.425434 223.58231 
L 152.677103 223.58231 
L 152.677103 223.058063 
L 152.925139 223.058063 
L 152.925139 222.009567 
L 153.434649 222.009567 
L 153.434649 221.485319 
L 153.946902 221.485319 
L 154.033698 220.436824 
L 154.09132 220.436824 
L 154.09132 219.912576 
L 154.444329 219.912576 
L 154.461227 214.145851 
L 154.696079 214.145851 
L 154.696079 203.136649 
L 154.905834 203.136649 
L 154.905834 202.088154 
L 155.339229 202.088154 
L 155.339229 201.563906 
L 155.625713 201.563906 
L 155.646745 185.836474 
L 155.876417 185.836474 
L 155.917848 184.787979 
L 156.149054 184.787979 
L 156.194925 182.16674 
L 156.517631 182.16674 
L 156.542589 179.545502 
L 156.77544 179.545502 
L 156.77544 179.021254 
L 157.255831 179.021254 
L 157.279741 176.924263 
L 157.671858 176.924263 
L 157.671858 176.400016 
L 157.889997 176.400016 
L 157.889997 163.293823 
L 158.01407 163.293823 
L 158.01407 162.769575 
L 158.585951 162.769575 
L 158.585951 162.245327 
L 159.445454 162.245327 
L 159.445454 153.333116 
L 160.033511 153.333116 
L 160.033511 152.808868 
L 160.770649 152.808868 
L 160.770649 152.28462 
L 161.228629 152.28462 
L 161.228629 151.760373 
L 161.436247 151.760373 
L 161.466238 150.711877 
L 161.873395 150.711877 
L 161.873395 150.18763 
L 164.45654 150.18763 
L 164.544446 148.614886 
L 166.296476 148.614886 
L 166.321909 147.566391 
L 167.978891 147.566391 
L 167.978891 146.517896 
L 168.853755 146.517896 
L 168.853755 140.751171 
L 169.093347 140.751171 
L 169.093347 140.226923 
L 169.358068 140.226923 
L 169.358068 139.178427 
L 169.600116 139.178427 
L 169.600116 137.605684 
L 170.065137 137.605684 
L 170.065137 137.081437 
L 170.200874 137.081437 
L 170.200874 136.557189 
L 170.455856 136.557189 
L 170.546643 135.508693 
L 171.053668 135.508693 
L 171.053668 134.984446 
L 171.200991 134.984446 
L 171.200991 133.93595 
L 171.420684 133.93595 
L 171.420684 133.411703 
L 171.823139 133.411703 
L 171.823139 131.838959 
L 172.11186 131.838959 
L 172.158171 124.499491 
L 172.344169 124.499491 
L 172.447297 121.878253 
L 172.506514 121.878253 
L 172.506514 121.354005 
L 172.712181 121.354005 
L 172.822806 118.732766 
L 172.900015 118.732766 
L 172.900015 118.208519 
L 173.524094 118.208519 
L 173.57972 117.160023 
L 173.776669 117.160023 
L 173.776669 116.635776 
L 173.915199 116.635776 
L 173.915199 116.111528 
L 174.285171 116.111528 
L 174.285171 115.58728 
L 174.654304 115.58728 
L 174.671685 113.490289 
L 175.112465 113.490289 
L 175.112465 104.05383 
L 175.238996 104.05383 
L 175.238996 103.529583 
L 175.424567 103.529583 
L 175.456132 102.481087 
L 175.703313 102.481087 
L 175.770261 99.335601 
L 175.833703 99.335601 
L 175.833703 98.811353 
L 176.33298 98.811353 
L 176.35032 97.762858 
L 176.600592 97.762858 
L 176.600592 97.23861 
L 176.727457 97.23861 
L 176.747484 96.190115 
L 177.200282 96.190115 
L 177.266139 95.141619 
L 177.437083 95.141619 
L 177.454823 77.841444 
L 177.610737 77.841444 
L 177.70128 74.695958 
L 178.436888 74.695958 
L 178.436888 68.929233 
L 178.741193 68.929233 
L 178.741193 67.35649 
L 178.86006 67.35649 
L 178.895425 66.307995 
L 179.271735 66.307995 
L 179.371149 65.259499 
L 179.649089 65.259499 
L 179.649089 64.735251 
L 180.064098 64.735251 
L 180.064098 64.211004 
L 180.432086 64.211004 
L 180.432086 56.347288 
L 180.671472 56.347288 
L 180.691067 54.774545 
L 180.857942 54.774545 
L 180.94741 52.677554 
L 181.268769 52.677554 
L 181.268769 52.153306 
L 181.519034 52.153306 
L 181.519034 51.629058 
L 181.809344 51.629058 
L 181.809344 51.104811 
L 182.171367 51.104811 
L 182.171367 50.056315 
L 182.55999 50.056315 
L 182.55999 41.668352 
L 182.955049 41.668352 
L 182.955049 41.144104 
L 183.189491 41.144104 
L 183.203245 39.047113 
L 186.617179 39.047113 
L 186.617179 38.522865 
L 187.031796 38.522865 
L 187.031796 30.134902 
L 187.216164 30.134902 
L 187.318853 29.086407 
L 187.348793 29.086407 
L 187.348793 27.513663 
L 333.168 27.513663 
L 333.168 27.513663 
" style="fill:none;stroke:#ff7500;stroke-linecap:square;stroke-width:1.5;"/>
   </g>
   <g id="line2d_52">
    <defs>
     <path d="M 0 -6 
L -1.347084 -1.854102 
L -5.706339 -1.854102 
L -2.179628 0.708204 
L -3.526712 4.854102 
L -0 2.291796 
L 3.526712 4.854102 
L 2.179628 0.708204 
L 5.706339 -1.854102 
L 1.347084 -1.854102 
z
" id="md572b9ad21" style="stroke:#ff7500;stroke-linejoin:bevel;stroke-width:1.5;"/>
    </defs>
    <g>
     <use style="fill-opacity:0;stroke:#ff7500;stroke-linejoin:bevel;stroke-width:1.5;" x="155.339229" xlink:href="#md572b9ad21" y="201.563906"/>
     <use style="fill-opacity:0;stroke:#ff7500;stroke-linejoin:bevel;stroke-width:1.5;" x="178.436888" xlink:href="#md572b9ad21" y="74.695958"/>
     <use style="fill-opacity:0;stroke:#ff7500;stroke-linejoin:bevel;stroke-width:1.5;" x="187.348793" xlink:href="#md572b9ad21" y="27.513663"/>
     <use style="fill-opacity:0;stroke:#ff7500;stroke-linejoin:bevel;stroke-width:1.5;" x="187.348793" xlink:href="#md572b9ad21" y="27.513663"/>
     <use style="fill-opacity:0;stroke:#ff7500;stroke-linejoin:bevel;stroke-width:1.5;" x="333.168" xlink:href="#md572b9ad21" y="27.513663"/>
    </g>
   </g>
   <g id="line2d_53">
    <path style="fill:none;stroke:#ff7500;stroke-linecap:square;stroke-width:1.5;"/>
    <g/>
   </g>
   <g id="line2d_54">
    <defs>
     <path d="M 0 1.5 
C 0.397805 1.5 0.77937 1.341951 1.06066 1.06066 
C 1.341951 0.77937 1.5 0.397805 1.5 0 
C 1.5 -0.397805 1.341951 -0.77937 1.06066 -1.06066 
C 0.77937 -1.341951 0.397805 -1.5 0 -1.5 
C -0.397805 -1.5 -0.77937 -1.341951 -1.06066 -1.06066 
C -1.341951 -0.77937 -1.5 -0.397805 -1.5 0 
C -1.5 0.397805 -1.341951 0.77937 -1.06066 1.06066 
C -0.77937 1.341951 -0.397805 1.5 0 1.5 
z
" id="mb40a7c1dbf" style="stroke:#6495ed;"/>
    </defs>
    <g>
     <use style="fill:#6495ed;stroke:#6495ed;" x="186.023511" xlink:href="#mb40a7c1dbf" y="27.513663"/>
     <use style="fill:#6495ed;stroke:#6495ed;" x="186.023511" xlink:href="#mb40a7c1dbf" y="27.513663"/>
    </g>
   </g>
   <g id="line2d_55">
    <path d="M 78.137499 294.88 
L 78.137499 293.831505 
L 78.60845 293.831505 
L 78.60845 293.307257 
L 79.066841 293.307257 
L 79.066841 292.783009 
L 79.513324 292.783009 
L 79.513324 292.258761 
L 81.586754 292.258761 
L 81.586754 291.734514 
L 85.106889 291.734514 
L 85.106889 290.686018 
L 86.335171 290.686018 
L 86.335171 290.161771 
L 88.027221 290.161771 
L 88.027221 289.637523 
L 89.069276 289.637523 
L 89.069276 289.113275 
L 90.05175 289.113275 
L 90.05175 288.589027 
L 91.427575 288.589027 
L 91.427575 288.06478 
L 91.862754 288.06478 
L 91.862754 287.016284 
L 93.105847 287.016284 
L 93.105847 285.967789 
L 94.077214 285.967789 
L 94.077214 285.443541 
L 94.816624 285.443541 
L 94.816624 284.919293 
L 95.351029 284.919293 
L 95.351029 284.395046 
L 97.79904 284.395046 
L 97.79904 283.34655 
L 98.100602 283.34655 
L 98.100602 282.822302 
L 98.974789 282.822302 
L 98.974789 282.298055 
L 99.67078 282.298055 
L 99.67078 281.773807 
L 100.339683 281.773807 
L 100.339683 280.725312 
L 100.600121 280.725312 
L 100.600121 280.201064 
L 100.728876 280.201064 
L 100.728876 279.676816 
L 104.819059 279.676816 
L 104.819059 279.152568 
L 106.08565 279.152568 
L 106.08565 278.628321 
L 106.821105 278.628321 
L 106.821105 278.104073 
L 107.783569 278.104073 
L 107.783569 277.579825 
L 108.286687 277.579825 
L 108.286687 277.055578 
L 108.532829 277.055578 
L 108.532829 276.007082 
L 108.935392 276.007082 
L 108.935392 275.482834 
L 111.240558 275.482834 
L 111.240558 274.958587 
L 111.922736 274.958587 
L 111.922736 274.434339 
L 112.57887 274.434339 
L 112.57887 273.910091 
L 113.023703 273.910091 
L 113.023703 273.385844 
L 113.148711 273.385844 
L 113.148711 272.861596 
L 113.334536 272.861596 
L 113.334536 272.337348 
L 114.293036 272.337348 
L 114.293036 271.8131 
L 116.220179 271.8131 
L 116.220179 271.288853 
L 116.834124 271.288853 
L 116.834124 270.764605 
L 117.37827 270.764605 
L 117.426894 269.716109 
L 117.571946 269.716109 
L 117.620026 268.667614 
L 118.417459 268.667614 
L 118.508888 267.619119 
L 118.599834 267.619119 
L 118.645127 266.570623 
L 118.914406 266.570623 
L 118.914406 266.046375 
L 119.179531 266.046375 
L 119.223324 264.99788 
L 119.310576 264.99788 
L 119.310576 264.473632 
L 119.655222 264.473632 
L 119.655222 263.949385 
L 119.824987 263.949385 
L 119.909246 262.900889 
L 119.95122 262.900889 
L 119.95122 262.376641 
L 120.15957 262.376641 
L 120.15957 261.852394 
L 120.406301 261.852394 
L 120.406301 261.328146 
L 121.20406 261.328146 
L 121.20406 260.803898 
L 121.589472 260.803898 
L 121.589472 260.279651 
L 122.077925 260.279651 
L 122.077925 259.755403 
L 122.335299 259.755403 
L 122.335299 259.231155 
L 122.55288 259.231155 
L 122.55288 258.706907 
L 123.189569 258.706907 
L 123.189569 257.658412 
L 123.635161 257.658412 
L 123.635161 257.134164 
L 123.870396 257.134164 
L 123.870396 256.609917 
L 124.396284 256.609917 
L 124.396284 256.085669 
L 125.49347 256.085669 
L 125.5541 255.037173 
L 125.704746 255.037173 
L 125.704746 254.512926 
L 125.913457 254.512926 
L 125.913457 253.988678 
L 126.265455 253.988678 
L 126.265455 253.46443 
L 127.712602 253.46443 
L 127.712602 252.940182 
L 128.13443 252.940182 
L 128.13443 252.415935 
L 128.418546 252.415935 
L 128.418546 251.891687 
L 129.534278 251.891687 
L 129.534278 251.367439 
L 130.604552 251.367439 
L 130.694545 250.318944 
L 130.961731 250.318944 
L 130.961731 249.270448 
L 132.032353 249.270448 
L 132.032353 248.746201 
L 132.177056 248.746201 
L 132.177056 248.221953 
L 133.955092 248.221953 
L 133.955092 247.697705 
L 136.033161 247.697705 
L 136.033161 247.173458 
L 136.261911 247.173458 
L 136.261911 246.64921 
L 141.568144 246.64921 
L 141.568144 246.124962 
L 142.119447 246.124962 
L 142.119447 245.600714 
L 143.483724 245.600714 
L 143.483724 245.076467 
L 143.988072 245.076467 
L 143.988072 244.552219 
L 144.993542 244.552219 
L 144.993542 244.027971 
L 145.943432 244.027971 
L 145.99879 242.979476 
L 146.922312 242.979476 
L 146.922312 242.455228 
L 147.044095 242.455228 
L 147.044095 241.406733 
L 147.988485 241.406733 
L 147.988485 240.882485 
L 148.1274 240.882485 
L 148.1274 227.776292 
L 148.836885 227.776292 
L 148.836885 227.252044 
L 149.054171 227.252044 
L 149.054171 226.727797 
L 149.321972 226.727797 
L 149.321972 226.203549 
L 149.473148 226.203549 
L 149.473148 225.679301 
L 149.645373 225.679301 
L 149.645373 225.155053 
L 149.867451 225.155053 
L 149.867451 224.630806 
L 150.043071 224.630806 
L 150.130213 223.58231 
L 150.260102 223.58231 
L 150.324681 222.009567 
L 150.474427 222.009567 
L 150.474427 221.485319 
L 150.61584 221.485319 
L 150.61584 220.961072 
L 150.929828 220.961072 
L 150.929828 220.436824 
L 151.339751 220.436824 
L 151.400405 218.339833 
L 151.48764 218.339833 
L 151.48764 217.291338 
L 151.891163 217.291338 
L 151.891163 216.76709 
L 152.189314 216.76709 
L 152.221413 215.718594 
L 152.342842 215.718594 
L 152.342842 215.194347 
L 152.532844 215.194347 
L 152.583158 214.145851 
L 152.795366 214.145851 
L 152.795366 213.097356 
L 153.072261 213.097356 
L 153.072261 212.573108 
L 153.230235 212.573108 
L 153.230235 212.04886 
L 153.356777 212.04886 
L 153.458539 210.476117 
L 153.642566 210.476117 
L 153.642566 209.95187 
L 153.783699 209.95187 
L 153.859664 198.41842 
L 154.251642 198.41842 
L 154.251642 187.409218 
L 154.38788 187.409218 
L 154.38788 186.88497 
L 154.623729 186.88497 
L 154.623729 186.360722 
L 154.922285 186.360722 
L 154.922285 185.836474 
L 155.242663 185.836474 
L 155.280281 173.254529 
L 157.3798 173.254529 
L 157.3798 172.730281 
L 158.6346 172.730281 
L 158.6346 162.769575 
L 159.399049 162.769575 
L 159.399049 162.245327 
L 160.56268 162.245327 
L 160.56268 161.721079 
L 162.712205 161.721079 
L 162.712205 161.196832 
L 165.527269 161.196832 
L 165.527269 160.672584 
L 166.262507 160.672584 
L 166.262507 160.148336 
L 166.512865 160.148336 
L 166.543556 158.575593 
L 166.624209 158.575593 
L 166.624209 158.051345 
L 166.967581 158.051345 
L 167.062508 155.954354 
L 167.197216 155.954354 
L 167.197216 155.430107 
L 167.320222 155.430107 
L 167.320222 154.905859 
L 167.489909 154.905859 
L 167.489909 154.381611 
L 170.961215 154.381611 
L 170.961215 153.857364 
L 171.196738 153.857364 
L 171.196738 153.333116 
L 171.468893 153.333116 
L 171.51488 152.28462 
L 171.68521 152.28462 
L 171.68521 151.760373 
L 171.868189 151.760373 
L 171.868189 151.236125 
L 172.041145 151.236125 
L 172.041145 140.751171 
L 172.304339 140.751171 
L 172.304339 140.226923 
L 172.538013 140.226923 
L 172.638033 139.178427 
L 172.751078 139.178427 
L 172.751078 138.65418 
L 172.942333 138.65418 
L 172.942333 138.129932 
L 173.112471 138.129932 
L 173.195967 137.081437 
L 173.241339 137.081437 
L 173.241339 136.557189 
L 173.378616 136.557189 
L 173.378616 136.032941 
L 173.559345 136.032941 
L 173.559345 135.508693 
L 173.681237 135.508693 
L 173.771178 134.460198 
L 173.936971 134.460198 
L 173.971386 112.966042 
L 174.050821 112.966042 
L 174.050821 105.102326 
L 174.187168 105.102326 
L 174.194315 94.093124 
L 174.40204 94.093124 
L 174.40204 93.568876 
L 175.087047 93.568876 
L 175.119237 82.035426 
L 175.205345 82.035426 
L 175.205345 81.511178 
L 175.439526 81.511178 
L 175.439526 80.986931 
L 175.871008 80.986931 
L 175.927621 79.938435 
L 176.298246 79.938435 
L 176.298246 67.35649 
L 176.611458 67.35649 
L 176.611458 66.832242 
L 176.943438 66.832242 
L 177.016348 56.871536 
L 179.063094 56.871536 
L 179.136943 55.82304 
L 179.433157 55.82304 
L 179.522476 54.250297 
L 179.739884 54.250297 
L 179.739884 53.726049 
L 180.03869 53.726049 
L 180.070444 42.192599 
L 185.172575 42.192599 
L 185.172575 41.144104 
L 185.376015 41.144104 
L 185.376015 40.619856 
L 185.52449 40.619856 
L 185.578918 39.571361 
L 185.898299 39.571361 
L 185.992968 38.522865 
L 186.023511 38.522865 
L 186.023511 27.513663 
L 333.168 27.513663 
L 333.168 27.513663 
" style="fill:none;stroke:#6495ed;stroke-linecap:square;stroke-width:1.5;"/>
   </g>
   <g id="line2d_56">
    <defs>
     <path d="M -0 6 
L 6 -6 
L -6 -6 
z
" id="m5b1bf0d122" style="stroke:#6495ed;stroke-linejoin:miter;stroke-width:1.5;"/>
    </defs>
    <g>
     <use style="fill-opacity:0;stroke:#6495ed;stroke-linejoin:miter;stroke-width:1.5;" x="172.538013" xlink:href="#m5b1bf0d122" y="140.226923"/>
     <use style="fill-opacity:0;stroke:#6495ed;stroke-linejoin:miter;stroke-width:1.5;" x="186.023511" xlink:href="#m5b1bf0d122" y="38.522865"/>
     <use style="fill-opacity:0;stroke:#6495ed;stroke-linejoin:miter;stroke-width:1.5;" x="186.023511" xlink:href="#m5b1bf0d122" y="27.513663"/>
     <use style="fill-opacity:0;stroke:#6495ed;stroke-linejoin:miter;stroke-width:1.5;" x="186.023511" xlink:href="#m5b1bf0d122" y="27.513663"/>
     <use style="fill-opacity:0;stroke:#6495ed;stroke-linejoin:miter;stroke-width:1.5;" x="333.168" xlink:href="#m5b1bf0d122" y="27.513663"/>
    </g>
   </g>
   <g id="line2d_57">
    <path style="fill:none;stroke:#6495ed;stroke-linecap:square;stroke-width:1.5;"/>
    <g/>
   </g>
   <g id="line2d_58">
    <path d="M 333.168 27.513663 
L 363.64328 289.532673 
" style="fill:none;stroke:#ff00ff;stroke-linecap:square;stroke-width:1.5;"/>
    <g>
     <use style="fill-opacity:0;stroke:#ff00ff;stroke-linejoin:miter;stroke-width:1.5;" x="333.168" xlink:href="#m7ed9e26e65" y="27.513663"/>
     <use style="fill-opacity:0;stroke:#ff00ff;stroke-linejoin:miter;stroke-width:1.5;" x="363.64328" xlink:href="#m7ed9e26e65" y="289.532673"/>
    </g>
   </g>
   <g id="line2d_59">
    <path d="M 333.168 27.513663 
L 363.64328 225.364752 
" style="fill:none;stroke:#ff7500;stroke-linecap:square;stroke-width:1.5;"/>
    <g>
     <use style="fill-opacity:0;stroke:#ff7500;stroke-linejoin:bevel;stroke-width:1.5;" x="333.168" xlink:href="#md572b9ad21" y="27.513663"/>
     <use style="fill-opacity:0;stroke:#ff7500;stroke-linejoin:bevel;stroke-width:1.5;" x="363.64328" xlink:href="#md572b9ad21" y="225.364752"/>
    </g>
   </g>
   <g id="line2d_60">
    <path d="M 333.168 27.513663 
L 363.64328 161.196832 
" style="fill:none;stroke:#6495ed;stroke-linecap:square;stroke-width:1.5;"/>
    <g>
     <use style="fill-opacity:0;stroke:#6495ed;stroke-linejoin:miter;stroke-width:1.5;" x="333.168" xlink:href="#m5b1bf0d122" y="27.513663"/>
     <use style="fill-opacity:0;stroke:#6495ed;stroke-linejoin:miter;stroke-width:1.5;" x="363.64328" xlink:href="#m5b1bf0d122" y="161.196832"/>
    </g>
   </g>
   <g id="line2d_61">
    <path d="M 333.168 27.513663 
L 363.64328 97.028911 
" style="fill:none;stroke:#000080;stroke-linecap:square;stroke-width:1.5;"/>
    <g>
     <use style="fill-opacity:0;stroke:#000080;stroke-width:1.5;" x="333.168" xlink:href="#me3dd8d9ca8" y="27.513663"/>
     <use style="fill-opacity:0;stroke:#000080;stroke-width:1.5;" x="363.64328" xlink:href="#me3dd8d9ca8" y="97.028911"/>
    </g>
   </g>
   <g id="line2d_62">
    <path d="M 333.168 294.88 
L 333.168 27.513663 
" style="fill:none;stroke:#000000;stroke-linecap:square;stroke-width:1.5;"/>
   </g>
   <g id="patch_3">
    <path d="M 56.12 294.88 
L 56.12 24.84 
" style="fill:none;stroke:#000000;stroke-linecap:square;stroke-linejoin:miter;stroke-width:0.8;"/>
   </g>
   <g id="patch_4">
    <path d="M 333.168 294.88 
L 333.168 24.84 
" style="fill:none;stroke:#000000;stroke-linecap:square;stroke-linejoin:miter;stroke-width:0.8;"/>
   </g>
   <g id="patch_5">
    <path d="M 56.12 294.88 
L 333.168 294.88 
" style="fill:none;stroke:#000000;stroke-linecap:square;stroke-linejoin:miter;stroke-width:0.8;"/>
   </g>
   <g id="patch_6">
    <path d="M 56.12 24.84 
L 333.168 24.84 
" style="fill:none;stroke:#000000;stroke-linecap:square;stroke-linejoin:miter;stroke-width:0.8;"/>
   </g>
   <g id="text_13">
    <!-- SHADE-LM-PO -->
    <defs>
     <path d="M 53.515625 70.515625 
L 53.515625 60.890625 
Q 47.90625 63.578125 42.921875 64.890625 
Q 37.9375 66.21875 33.296875 66.21875 
Q 25.25 66.21875 20.875 63.09375 
Q 16.5 59.96875 16.5 54.203125 
Q 16.5 49.359375 19.40625 46.890625 
Q 22.3125 44.4375 30.421875 42.921875 
L 36.375 41.703125 
Q 47.40625 39.59375 52.65625 34.296875 
Q 57.90625 29 57.90625 20.125 
Q 57.90625 9.515625 50.796875 4.046875 
Q 43.703125 -1.421875 29.984375 -1.421875 
Q 24.8125 -1.421875 18.96875 -0.25 
Q 13.140625 0.921875 6.890625 3.21875 
L 6.890625 13.375 
Q 12.890625 10.015625 18.65625 8.296875 
Q 24.421875 6.59375 29.984375 6.59375 
Q 38.421875 6.59375 43.015625 9.90625 
Q 47.609375 13.234375 47.609375 19.390625 
Q 47.609375 24.75 44.3125 27.78125 
Q 41.015625 30.8125 33.5 32.328125 
L 27.484375 33.5 
Q 16.453125 35.6875 11.515625 40.375 
Q 6.59375 45.0625 6.59375 53.421875 
Q 6.59375 63.09375 13.40625 68.65625 
Q 20.21875 74.21875 32.171875 74.21875 
Q 37.3125 74.21875 42.625 73.28125 
Q 47.953125 72.359375 53.515625 70.515625 
z
" id="DejaVuSans-53"/>
     <path d="M 9.8125 72.90625 
L 19.671875 72.90625 
L 19.671875 43.015625 
L 55.515625 43.015625 
L 55.515625 72.90625 
L 65.375 72.90625 
L 65.375 0 
L 55.515625 0 
L 55.515625 34.71875 
L 19.671875 34.71875 
L 19.671875 0 
L 9.8125 0 
z
" id="DejaVuSans-48"/>
     <path d="M 34.1875 63.1875 
L 20.796875 26.90625 
L 47.609375 26.90625 
z
M 28.609375 72.90625 
L 39.796875 72.90625 
L 67.578125 0 
L 57.328125 0 
L 50.6875 18.703125 
L 17.828125 18.703125 
L 11.1875 0 
L 0.78125 0 
z
" id="DejaVuSans-41"/>
     <path d="M 19.671875 64.796875 
L 19.671875 8.109375 
L 31.59375 8.109375 
Q 46.6875 8.109375 53.6875 14.9375 
Q 60.6875 21.78125 60.6875 36.53125 
Q 60.6875 51.171875 53.6875 57.984375 
Q 46.6875 64.796875 31.59375 64.796875 
z
M 9.8125 72.90625 
L 30.078125 72.90625 
Q 51.265625 72.90625 61.171875 64.09375 
Q 71.09375 55.28125 71.09375 36.53125 
Q 71.09375 17.671875 61.125 8.828125 
Q 51.171875 0 30.078125 0 
L 9.8125 0 
z
" id="DejaVuSans-44"/>
     <path d="M 9.8125 72.90625 
L 55.90625 72.90625 
L 55.90625 64.59375 
L 19.671875 64.59375 
L 19.671875 43.015625 
L 54.390625 43.015625 
L 54.390625 34.71875 
L 19.671875 34.71875 
L 19.671875 8.296875 
L 56.78125 8.296875 
L 56.78125 0 
L 9.8125 0 
z
" id="DejaVuSans-45"/>
     <path d="M 9.8125 72.90625 
L 19.671875 72.90625 
L 19.671875 8.296875 
L 55.171875 8.296875 
L 55.171875 0 
L 9.8125 0 
z
" id="DejaVuSans-4c"/>
     <path d="M 9.8125 72.90625 
L 24.515625 72.90625 
L 43.109375 23.296875 
L 61.8125 72.90625 
L 76.515625 72.90625 
L 76.515625 0 
L 66.890625 0 
L 66.890625 64.015625 
L 48.09375 14.015625 
L 38.1875 14.015625 
L 19.390625 64.015625 
L 19.390625 0 
L 9.8125 0 
z
" id="DejaVuSans-4d"/>
     <path d="M 19.671875 64.796875 
L 19.671875 37.40625 
L 32.078125 37.40625 
Q 38.96875 37.40625 42.71875 40.96875 
Q 46.484375 44.53125 46.484375 51.125 
Q 46.484375 57.671875 42.71875 61.234375 
Q 38.96875 64.796875 32.078125 64.796875 
z
M 9.8125 72.90625 
L 32.078125 72.90625 
Q 44.34375 72.90625 50.609375 67.359375 
Q 56.890625 61.8125 56.890625 51.125 
Q 56.890625 40.328125 50.609375 34.8125 
Q 44.34375 29.296875 32.078125 29.296875 
L 19.671875 29.296875 
L 19.671875 0 
L 9.8125 0 
z
" id="DejaVuSans-50"/>
     <path d="M 39.40625 66.21875 
Q 28.65625 66.21875 22.328125 58.203125 
Q 16.015625 50.203125 16.015625 36.375 
Q 16.015625 22.609375 22.328125 14.59375 
Q 28.65625 6.59375 39.40625 6.59375 
Q 50.140625 6.59375 56.421875 14.59375 
Q 62.703125 22.609375 62.703125 36.375 
Q 62.703125 50.203125 56.421875 58.203125 
Q 50.140625 66.21875 39.40625 66.21875 
z
M 39.40625 74.21875 
Q 54.734375 74.21875 63.90625 63.9375 
Q 73.09375 53.65625 73.09375 36.375 
Q 73.09375 19.140625 63.90625 8.859375 
Q 54.734375 -1.421875 39.40625 -1.421875 
Q 24.03125 -1.421875 14.8125 8.828125 
Q 5.609375 19.09375 5.609375 36.375 
Q 5.609375 53.65625 14.8125 63.9375 
Q 24.03125 74.21875 39.40625 74.21875 
z
" id="DejaVuSans-4f"/>
    </defs>
    <g transform="translate(369.18424 294.223611)scale(0.17 -0.17)">
     <use xlink:href="#DejaVuSans-53"/>
     <use x="63.476562" xlink:href="#DejaVuSans-48"/>
     <use x="138.671875" xlink:href="#DejaVuSans-41"/>
     <use x="207.080078" xlink:href="#DejaVuSans-44"/>
     <use x="284.082031" xlink:href="#DejaVuSans-45"/>
     <use x="347.265625" xlink:href="#DejaVuSans-2d"/>
     <use x="383.349609" xlink:href="#DejaVuSans-4c"/>
     <use x="439.0625" xlink:href="#DejaVuSans-4d"/>
     <use x="525.341797" xlink:href="#DejaVuSans-2d"/>
     <use x="561.425781" xlink:href="#DejaVuSans-50"/>
     <use x="621.728516" xlink:href="#DejaVuSans-4f"/>
    </g>
   </g>
   <g id="text_14">
    <!-- R-SHADE-Tan -->
    <defs>
     <path d="M 44.390625 34.1875 
Q 47.5625 33.109375 50.5625 29.59375 
Q 53.5625 26.078125 56.59375 19.921875 
L 66.609375 0 
L 56 0 
L 46.6875 18.703125 
Q 43.0625 26.03125 39.671875 28.421875 
Q 36.28125 30.8125 30.421875 30.8125 
L 19.671875 30.8125 
L 19.671875 0 
L 9.8125 0 
L 9.8125 72.90625 
L 32.078125 72.90625 
Q 44.578125 72.90625 50.734375 67.671875 
Q 56.890625 62.453125 56.890625 51.90625 
Q 56.890625 45.015625 53.6875 40.46875 
Q 50.484375 35.9375 44.390625 34.1875 
z
M 19.671875 64.796875 
L 19.671875 38.921875 
L 32.078125 38.921875 
Q 39.203125 38.921875 42.84375 42.21875 
Q 46.484375 45.515625 46.484375 51.90625 
Q 46.484375 58.296875 42.84375 61.546875 
Q 39.203125 64.796875 32.078125 64.796875 
z
" id="DejaVuSans-52"/>
     <path d="M -0.296875 72.90625 
L 61.375 72.90625 
L 61.375 64.59375 
L 35.5 64.59375 
L 35.5 0 
L 25.59375 0 
L 25.59375 64.59375 
L -0.296875 64.59375 
z
" id="DejaVuSans-54"/>
    </defs>
    <g transform="translate(369.18424 230.05569)scale(0.17 -0.17)">
     <use xlink:href="#DejaVuSans-52"/>
     <use x="69.419922" xlink:href="#DejaVuSans-2d"/>
     <use x="105.503906" xlink:href="#DejaVuSans-53"/>
     <use x="168.980469" xlink:href="#DejaVuSans-48"/>
     <use x="244.175781" xlink:href="#DejaVuSans-41"/>
     <use x="312.583984" xlink:href="#DejaVuSans-44"/>
     <use x="389.585938" xlink:href="#DejaVuSans-45"/>
     <use x="452.769531" xlink:href="#DejaVuSans-2d"/>
     <use x="488.712891" xlink:href="#DejaVuSans-54"/>
     <use x="549.546875" xlink:href="#DejaVuSans-61"/>
     <use x="610.826172" xlink:href="#DejaVuSans-6e"/>
    </g>
   </g>
   <g id="text_15">
    <!-- KL-BIPOP-CM -->
    <defs>
     <path d="M 9.8125 72.90625 
L 19.671875 72.90625 
L 19.671875 42.09375 
L 52.390625 72.90625 
L 65.09375 72.90625 
L 28.90625 38.921875 
L 67.671875 0 
L 54.6875 0 
L 19.671875 35.109375 
L 19.671875 0 
L 9.8125 0 
z
" id="DejaVuSans-4b"/>
     <path d="M 19.671875 34.8125 
L 19.671875 8.109375 
L 35.5 8.109375 
Q 43.453125 8.109375 47.28125 11.40625 
Q 51.125 14.703125 51.125 21.484375 
Q 51.125 28.328125 47.28125 31.5625 
Q 43.453125 34.8125 35.5 34.8125 
z
M 19.671875 64.796875 
L 19.671875 42.828125 
L 34.28125 42.828125 
Q 41.5 42.828125 45.03125 45.53125 
Q 48.578125 48.25 48.578125 53.8125 
Q 48.578125 59.328125 45.03125 62.0625 
Q 41.5 64.796875 34.28125 64.796875 
z
M 9.8125 72.90625 
L 35.015625 72.90625 
Q 46.296875 72.90625 52.390625 68.21875 
Q 58.5 63.53125 58.5 54.890625 
Q 58.5 48.1875 55.375 44.234375 
Q 52.25 40.28125 46.1875 39.3125 
Q 53.46875 37.75 57.5 32.78125 
Q 61.53125 27.828125 61.53125 20.40625 
Q 61.53125 10.640625 54.890625 5.3125 
Q 48.25 0 35.984375 0 
L 9.8125 0 
z
" id="DejaVuSans-42"/>
     <path d="M 9.8125 72.90625 
L 19.671875 72.90625 
L 19.671875 0 
L 9.8125 0 
z
" id="DejaVuSans-49"/>
     <path d="M 64.40625 67.28125 
L 64.40625 56.890625 
Q 59.421875 61.53125 53.78125 63.8125 
Q 48.140625 66.109375 41.796875 66.109375 
Q 29.296875 66.109375 22.65625 58.46875 
Q 16.015625 50.828125 16.015625 36.375 
Q 16.015625 21.96875 22.65625 14.328125 
Q 29.296875 6.6875 41.796875 6.6875 
Q 48.140625 6.6875 53.78125 8.984375 
Q 59.421875 11.28125 64.40625 15.921875 
L 64.40625 5.609375 
Q 59.234375 2.09375 53.4375 0.328125 
Q 47.65625 -1.421875 41.21875 -1.421875 
Q 24.65625 -1.421875 15.125 8.703125 
Q 5.609375 18.84375 5.609375 36.375 
Q 5.609375 53.953125 15.125 64.078125 
Q 24.65625 74.21875 41.21875 74.21875 
Q 47.75 74.21875 53.53125 72.484375 
Q 59.328125 70.75 64.40625 67.28125 
z
" id="DejaVuSans-43"/>
    </defs>
    <g transform="translate(369.18424 165.887769)scale(0.17 -0.17)">
     <use xlink:href="#DejaVuSans-4b"/>
     <use x="65.576172" xlink:href="#DejaVuSans-4c"/>
     <use x="121.273438" xlink:href="#DejaVuSans-2d"/>
     <use x="157.310547" xlink:href="#DejaVuSans-42"/>
     <use x="225.914062" xlink:href="#DejaVuSans-49"/>
     <use x="255.40625" xlink:href="#DejaVuSans-50"/>
     <use x="315.708984" xlink:href="#DejaVuSans-4f"/>
     <use x="394.419922" xlink:href="#DejaVuSans-50"/>
     <use x="454.691406" xlink:href="#DejaVuSans-2d"/>
     <use x="490.775391" xlink:href="#DejaVuSans-43"/>
     <use x="560.599609" xlink:href="#DejaVuSans-4d"/>
    </g>
   </g>
   <g id="text_16">
    <!-- SHADE-LM -->
    <g transform="translate(369.18424 101.719848)scale(0.17 -0.17)">
     <use xlink:href="#DejaVuSans-53"/>
     <use x="63.476562" xlink:href="#DejaVuSans-48"/>
     <use x="138.671875" xlink:href="#DejaVuSans-41"/>
     <use x="207.080078" xlink:href="#DejaVuSans-44"/>
     <use x="284.082031" xlink:href="#DejaVuSans-45"/>
     <use x="347.265625" xlink:href="#DejaVuSans-2d"/>
     <use x="383.349609" xlink:href="#DejaVuSans-4c"/>
     <use x="439.0625" xlink:href="#DejaVuSans-4d"/>
    </g>
   </g>
   <g id="text_17">
    <!-- best 2009 -->
    <defs>
     <path d="M 48.6875 27.296875 
Q 48.6875 37.203125 44.609375 42.84375 
Q 40.53125 48.484375 33.40625 48.484375 
Q 26.265625 48.484375 22.1875 42.84375 
Q 18.109375 37.203125 18.109375 27.296875 
Q 18.109375 17.390625 22.1875 11.75 
Q 26.265625 6.109375 33.40625 6.109375 
Q 40.53125 6.109375 44.609375 11.75 
Q 48.6875 17.390625 48.6875 27.296875 
z
M 18.109375 46.390625 
Q 20.953125 51.265625 25.265625 53.625 
Q 29.59375 56 35.59375 56 
Q 45.5625 56 51.78125 48.09375 
Q 58.015625 40.1875 58.015625 27.296875 
Q 58.015625 14.40625 51.78125 6.484375 
Q 45.5625 -1.421875 35.59375 -1.421875 
Q 29.59375 -1.421875 25.265625 0.953125 
Q 20.953125 3.328125 18.109375 8.203125 
L 18.109375 0 
L 9.078125 0 
L 9.078125 75.984375 
L 18.109375 75.984375 
z
" id="DejaVuSans-62"/>
     <path d="M 10.984375 1.515625 
L 10.984375 10.5 
Q 14.703125 8.734375 18.5 7.8125 
Q 22.3125 6.890625 25.984375 6.890625 
Q 35.75 6.890625 40.890625 13.453125 
Q 46.046875 20.015625 46.78125 33.40625 
Q 43.953125 29.203125 39.59375 26.953125 
Q 35.25 24.703125 29.984375 24.703125 
Q 19.046875 24.703125 12.671875 31.3125 
Q 6.296875 37.9375 6.296875 49.421875 
Q 6.296875 60.640625 12.9375 67.421875 
Q 19.578125 74.21875 30.609375 74.21875 
Q 43.265625 74.21875 49.921875 64.515625 
Q 56.59375 54.828125 56.59375 36.375 
Q 56.59375 19.140625 48.40625 8.859375 
Q 40.234375 -1.421875 26.421875 -1.421875 
Q 22.703125 -1.421875 18.890625 -0.6875 
Q 15.09375 0.046875 10.984375 1.515625 
z
M 30.609375 32.421875 
Q 37.25 32.421875 41.125 36.953125 
Q 45.015625 41.5 45.015625 49.421875 
Q 45.015625 57.28125 41.125 61.84375 
Q 37.25 66.40625 30.609375 66.40625 
Q 23.96875 66.40625 20.09375 61.84375 
Q 16.21875 57.28125 16.21875 49.421875 
Q 16.21875 41.5 20.09375 36.953125 
Q 23.96875 32.421875 30.609375 32.421875 
z
" id="DejaVuSans-39"/>
    </defs>
    <g transform="translate(369.18424 37.551928)scale(0.17 -0.17)">
     <use xlink:href="#DejaVuSans-62"/>
     <use x="63.476562" xlink:href="#DejaVuSans-65"/>
     <use x="125" xlink:href="#DejaVuSans-73"/>
     <use x="177.099609" xlink:href="#DejaVuSans-74"/>
     <use x="216.308594" xlink:href="#DejaVuSans-20"/>
     <use x="248.095703" xlink:href="#DejaVuSans-32"/>
     <use x="311.71875" xlink:href="#DejaVuSans-30"/>
     <use x="375.341797" xlink:href="#DejaVuSans-30"/>
     <use x="438.964844" xlink:href="#DejaVuSans-39"/>
    </g>
   </g>
   <g id="text_18">
    <!-- bbob f7, 10-D -->
    <defs>
     <path d="M 8.203125 72.90625 
L 55.078125 72.90625 
L 55.078125 68.703125 
L 28.609375 0 
L 18.3125 0 
L 43.21875 64.59375 
L 8.203125 64.59375 
z
" id="DejaVuSans-37"/>
    </defs>
    <g transform="translate(58.89048 35.290806)scale(0.102 -0.102)">
     <use xlink:href="#DejaVuSans-62"/>
     <use x="63.476562" xlink:href="#DejaVuSans-62"/>
     <use x="126.953125" xlink:href="#DejaVuSans-6f"/>
     <use x="188.134766" xlink:href="#DejaVuSans-62"/>
     <use x="251.611328" xlink:href="#DejaVuSans-20"/>
     <use x="283.398438" xlink:href="#DejaVuSans-66"/>
     <use x="318.603516" xlink:href="#DejaVuSans-37"/>
     <use x="382.226562" xlink:href="#DejaVuSans-2c"/>
     <use x="414.013672" xlink:href="#DejaVuSans-20"/>
     <use x="445.800781" xlink:href="#DejaVuSans-31"/>
     <use x="509.423828" xlink:href="#DejaVuSans-30"/>
     <use x="573.046875" xlink:href="#DejaVuSans-2d"/>
     <use x="609.130859" xlink:href="#DejaVuSans-44"/>
    </g>
    <!-- 51 targets: 100..1e-08 -->
    <defs>
     <path d="M 10.796875 72.90625 
L 49.515625 72.90625 
L 49.515625 64.59375 
L 19.828125 64.59375 
L 19.828125 46.734375 
Q 21.96875 47.46875 24.109375 47.828125 
Q 26.265625 48.1875 28.421875 48.1875 
Q 40.625 48.1875 47.75 41.5 
Q 54.890625 34.8125 54.890625 23.390625 
Q 54.890625 11.625 47.5625 5.09375 
Q 40.234375 -1.421875 26.90625 -1.421875 
Q 22.3125 -1.421875 17.546875 -0.640625 
Q 12.796875 0.140625 7.71875 1.703125 
L 7.71875 11.625 
Q 12.109375 9.234375 16.796875 8.0625 
Q 21.484375 6.890625 26.703125 6.890625 
Q 35.15625 6.890625 40.078125 11.328125 
Q 45.015625 15.765625 45.015625 23.390625 
Q 45.015625 31 40.078125 35.4375 
Q 35.15625 39.890625 26.703125 39.890625 
Q 22.75 39.890625 18.8125 39.015625 
Q 14.890625 38.140625 10.796875 36.28125 
z
" id="DejaVuSans-35"/>
     <path d="M 11.71875 12.40625 
L 22.015625 12.40625 
L 22.015625 0 
L 11.71875 0 
z
M 11.71875 51.703125 
L 22.015625 51.703125 
L 22.015625 39.3125 
L 11.71875 39.3125 
z
" id="DejaVuSans-3a"/>
    </defs>
    <g transform="translate(58.89048 46.712575)scale(0.102 -0.102)">
     <use xlink:href="#DejaVuSans-35"/>
     <use x="63.623047" xlink:href="#DejaVuSans-31"/>
     <use x="127.246094" xlink:href="#DejaVuSans-20"/>
     <use x="159.033203" xlink:href="#DejaVuSans-74"/>
     <use x="198.242188" xlink:href="#DejaVuSans-61"/>
     <use x="259.521484" xlink:href="#DejaVuSans-72"/>
     <use x="300.619141" xlink:href="#DejaVuSans-67"/>
     <use x="364.095703" xlink:href="#DejaVuSans-65"/>
     <use x="425.619141" xlink:href="#DejaVuSans-74"/>
     <use x="464.828125" xlink:href="#DejaVuSans-73"/>
     <use x="516.927734" xlink:href="#DejaVuSans-3a"/>
     <use x="550.619141" xlink:href="#DejaVuSans-20"/>
     <use x="582.40625" xlink:href="#DejaVuSans-31"/>
     <use x="646.029297" xlink:href="#DejaVuSans-30"/>
     <use x="709.652344" xlink:href="#DejaVuSans-30"/>
     <use x="773.275391" xlink:href="#DejaVuSans-2e"/>
     <use x="805.0625" xlink:href="#DejaVuSans-2e"/>
     <use x="836.849609" xlink:href="#DejaVuSans-31"/>
     <use x="900.472656" xlink:href="#DejaVuSans-65"/>
     <use x="961.996094" xlink:href="#DejaVuSans-2d"/>
     <use x="998.080078" xlink:href="#DejaVuSans-30"/>
     <use x="1061.703125" xlink:href="#DejaVuSans-38"/>
    </g>
    <!-- 15 instances -->
    <g transform="translate(58.89048 58.134344)scale(0.102 -0.102)">
     <use xlink:href="#DejaVuSans-31"/>
     <use x="63.623047" xlink:href="#DejaVuSans-35"/>
     <use x="127.246094" xlink:href="#DejaVuSans-20"/>
     <use x="159.033203" xlink:href="#DejaVuSans-69"/>
     <use x="186.816406" xlink:href="#DejaVuSans-6e"/>
     <use x="250.195312" xlink:href="#DejaVuSans-73"/>
     <use x="302.294922" xlink:href="#DejaVuSans-74"/>
     <use x="341.503906" xlink:href="#DejaVuSans-61"/>
     <use x="402.783203" xlink:href="#DejaVuSans-6e"/>
     <use x="466.162109" xlink:href="#DejaVuSans-63"/>
     <use x="521.142578" xlink:href="#DejaVuSans-65"/>
     <use x="582.666016" xlink:href="#DejaVuSans-73"/>
    </g>
   </g>
   <g id="text_19">
    <!-- v2.4 -->
    <g style="fill:#808080;" transform="translate(183.733063 290.099912)scale(0.1 -0.1)">
     <use xlink:href="#DejaVuSans-76"/>
     <use x="59.179688" xlink:href="#DejaVuSans-32"/>
     <use x="122.802734" xlink:href="#DejaVuSans-2e"/>
     <use x="154.589844" xlink:href="#DejaVuSans-34"/>
    </g>
   </g>
   <g id="text_20">
    <!-- 7 Step-ellipsoid -->
    <g transform="translate(117.434625 18.84)scale(0.2 -0.2)">
     <use xlink:href="#DejaVuSans-37"/>
     <use x="63.623047" xlink:href="#DejaVuSans-20"/>
     <use x="95.410156" xlink:href="#DejaVuSans-53"/>
     <use x="158.886719" xlink:href="#DejaVuSans-74"/>
     <use x="198.095703" xlink:href="#DejaVuSans-65"/>
     <use x="259.619141" xlink:href="#DejaVuSans-70"/>
     <use x="323.095703" xlink:href="#DejaVuSans-2d"/>
     <use x="359.179688" xlink:href="#DejaVuSans-65"/>
     <use x="420.703125" xlink:href="#DejaVuSans-6c"/>
     <use x="448.486328" xlink:href="#DejaVuSans-6c"/>
     <use x="476.269531" xlink:href="#DejaVuSans-69"/>
     <use x="504.052734" xlink:href="#DejaVuSans-70"/>
     <use x="567.529297" xlink:href="#DejaVuSans-73"/>
     <use x="619.628906" xlink:href="#DejaVuSans-6f"/>
     <use x="680.810547" xlink:href="#DejaVuSans-69"/>
     <use x="708.59375" xlink:href="#DejaVuSans-64"/>
    </g>
   </g>
  </g>
 </g>
 <defs>
  <clipPath id="pafb2acc126">
   <rect height="270.04" width="277.048" x="56.12" y="24.84"/>
  </clipPath>
 </defs>
</svg>
