<?xml version="1.0" encoding="utf-8" standalone="no"?>
<!DOCTYPE svg PUBLIC "-//W3C//DTD SVG 1.1//EN"
  "http://www.w3.org/Graphics/SVG/1.1/DTD/svg11.dtd">
<!-- Created with matplotlib (http://matplotlib.org/) -->
<svg height="345.6pt" version="1.1" viewBox="0 0 460.8 345.6" width="460.8pt" xmlns="http://www.w3.org/2000/svg" xmlns:xlink="http://www.w3.org/1999/xlink">
 <defs>
  <style type="text/css">
*{stroke-linecap:butt;stroke-linejoin:round;}
  </style>
 </defs>
 <g id="figure_1">
  <g id="patch_1">
   <path d="M 0 345.6 
L 460.8 345.6 
L 460.8 0 
L 0 0 
z
" style="fill:#ffffff;"/>
  </g>
  <g id="axes_1">
   <g id="patch_2">
    <path d="M 56.12 294.88 
L 333.168 294.88 
L 333.168 24.84 
L 56.12 24.84 
z
" style="fill:#ffffff;"/>
   </g>
   <g id="line2d_1">
    <path d="M 106.365146 294.88 
L 106.365146 289.637523 
L 121.551317 289.637523 
L 121.551317 284.395046 
L 132.922316 284.395046 
L 132.922316 279.152568 
L 136.551614 279.152568 
L 136.551614 273.910091 
L 155.317817 273.910091 
L 155.317817 268.667614 
L 162.145574 268.667614 
L 162.145574 263.425137 
L 173.705145 263.425137 
L 173.705145 258.18266 
L 182.144394 258.18266 
L 182.144394 252.940182 
L 192.790367 252.940182 
L 192.790367 247.697705 
L 197.958841 247.697705 
L 197.958841 242.455228 
L 198.356261 242.455228 
L 198.356261 237.212751 
L 208.958586 237.212751 
L 208.958586 231.970274 
L 209.015688 231.970274 
L 209.015688 226.727797 
L 209.050988 226.727797 
L 209.050988 221.485319 
L 209.125115 221.485319 
L 209.125115 216.242842 
L 209.174434 216.242842 
L 209.174434 211.000365 
L 209.232221 211.000365 
L 209.232221 205.757888 
L 209.269401 205.757888 
L 209.269401 200.515411 
L 209.321085 200.515411 
L 209.321085 195.272933 
L 209.369846 195.272933 
L 209.369846 190.030456 
L 209.412255 190.030456 
L 209.412255 184.787979 
L 209.46443 184.787979 
L 209.46443 179.545502 
L 209.530628 179.545502 
L 209.530628 174.303025 
L 209.565115 174.303025 
L 209.565115 169.060547 
L 209.621378 169.060547 
L 209.621378 163.81807 
L 209.668389 163.81807 
L 209.668389 158.575593 
L 209.696488 158.575593 
L 209.696488 153.333116 
L 209.757288 153.333116 
L 209.757288 148.090639 
L 209.789296 148.090639 
L 209.789296 142.848162 
L 209.829561 142.848162 
L 209.829561 137.605684 
L 209.881607 137.605684 
L 209.881607 132.363207 
L 209.939078 132.363207 
L 209.939078 127.12073 
L 209.987455 127.12073 
L 209.987455 121.878253 
L 210.031921 121.878253 
L 210.031921 116.635776 
L 210.080481 116.635776 
L 210.080481 111.393298 
L 210.121395 111.393298 
L 210.121395 106.150821 
L 210.173447 106.150821 
L 210.173447 100.908344 
L 210.232366 100.908344 
L 210.232366 95.665867 
L 210.265037 95.665867 
L 210.265037 90.42339 
L 210.297864 90.42339 
L 210.297864 85.180912 
L 210.333901 85.180912 
L 210.333901 79.938435 
L 210.364637 79.938435 
L 210.364637 74.695958 
L 210.412918 74.695958 
L 210.412918 69.453481 
L 210.470375 69.453481 
L 210.470375 64.211004 
L 210.493952 64.211004 
L 210.493952 58.968526 
L 210.561907 58.968526 
L 210.561907 53.726049 
L 210.597611 53.726049 
L 210.597611 48.483572 
L 210.633883 48.483572 
L 210.633883 43.241095 
L 210.686332 43.241095 
L 210.686332 37.998618 
L 210.721139 37.998618 
L 210.721139 32.756141 
L 210.768431 32.756141 
L 210.768431 27.513663 
L 333.168 27.513663 
" style="fill:none;stroke:#f5deb3;stroke-linecap:square;stroke-width:4;"/>
   </g>
   <g id="line2d_2">
    <defs>
     <path d="M -0 7.778175 
L 7.778175 0 
L 0 -7.778175 
L -7.778175 -0 
z
" id="m371e6f538b" style="stroke:#f5deb3;stroke-linejoin:miter;stroke-width:1.5;"/>
    </defs>
    <g>
     <use style="fill:#f5deb3;stroke:#f5deb3;stroke-linejoin:miter;stroke-width:1.5;" x="182.144394" xlink:href="#m371e6f538b" y="258.18266"/>
     <use style="fill:#f5deb3;stroke:#f5deb3;stroke-linejoin:miter;stroke-width:1.5;" x="209.881607" xlink:href="#m371e6f538b" y="132.363207"/>
     <use style="fill:#f5deb3;stroke:#f5deb3;stroke-linejoin:miter;stroke-width:1.5;" x="210.768431" xlink:href="#m371e6f538b" y="32.756141"/>
     <use style="fill:#f5deb3;stroke:#f5deb3;stroke-linejoin:miter;stroke-width:1.5;" x="210.768431" xlink:href="#m371e6f538b" y="27.513663"/>
     <use style="fill:#f5deb3;stroke:#f5deb3;stroke-linejoin:miter;stroke-width:1.5;" x="333.168" xlink:href="#m371e6f538b" y="27.513663"/>
    </g>
   </g>
   <g id="line2d_3">
    <path style="fill:none;stroke:#f5deb3;stroke-linecap:square;stroke-width:4;"/>
    <g/>
   </g>
   <g id="line2d_4">
    <path d="M 333.168 27.513663 
L 363.64328 32.86099 
" style="fill:none;stroke:#f5deb3;stroke-linecap:square;stroke-width:4;"/>
    <g>
     <use style="fill:#f5deb3;stroke:#f5deb3;stroke-linejoin:miter;stroke-width:1.5;" x="333.168" xlink:href="#m371e6f538b" y="27.513663"/>
     <use style="fill:#f5deb3;stroke:#f5deb3;stroke-linejoin:miter;stroke-width:1.5;" x="363.64328" xlink:href="#m371e6f538b" y="32.86099"/>
    </g>
   </g>
   <g id="matplotlib.axis_1">
    <g id="xtick_1">
     <g id="line2d_5">
      <path clip-path="url(#p06acadbdbe)" d="M 56.12 294.88 
L 56.12 24.84 
" style="fill:none;stroke:#b0b0b0;stroke-linecap:square;stroke-width:0.8;"/>
     </g>
     <g id="line2d_6">
      <defs>
       <path d="M 0 0 
L 0 3.5 
" id="m0cf628251a" style="stroke:#000000;stroke-width:0.8;"/>
      </defs>
      <g>
       <use style="stroke:#000000;stroke-width:0.8;" x="56.12" xlink:href="#m0cf628251a" y="294.88"/>
      </g>
     </g>
     <g id="text_1">
      <!-- 0 -->
      <defs>
       <path d="M 31.78125 66.40625 
Q 24.171875 66.40625 20.328125 58.90625 
Q 16.5 51.421875 16.5 36.375 
Q 16.5 21.390625 20.328125 13.890625 
Q 24.171875 6.390625 31.78125 6.390625 
Q 39.453125 6.390625 43.28125 13.890625 
Q 47.125 21.390625 47.125 36.375 
Q 47.125 51.421875 43.28125 58.90625 
Q 39.453125 66.40625 31.78125 66.40625 
z
M 31.78125 74.21875 
Q 44.046875 74.21875 50.515625 64.515625 
Q 56.984375 54.828125 56.984375 36.375 
Q 56.984375 17.96875 50.515625 8.265625 
Q 44.046875 -1.421875 31.78125 -1.421875 
Q 19.53125 -1.421875 13.0625 8.265625 
Q 6.59375 17.96875 6.59375 36.375 
Q 6.59375 54.828125 13.0625 64.515625 
Q 19.53125 74.21875 31.78125 74.21875 
z
" id="DejaVuSans-30"/>
      </defs>
      <g transform="translate(49.7575 317.076875)scale(0.2 -0.2)">
       <use xlink:href="#DejaVuSans-30"/>
      </g>
     </g>
    </g>
    <g id="xtick_2">
     <g id="line2d_7">
      <path clip-path="url(#p06acadbdbe)" d="M 135.276571 294.88 
L 135.276571 24.84 
" style="fill:none;stroke:#b0b0b0;stroke-linecap:square;stroke-width:0.8;"/>
     </g>
     <g id="line2d_8">
      <g>
       <use style="stroke:#000000;stroke-width:0.8;" x="135.276571" xlink:href="#m0cf628251a" y="294.88"/>
      </g>
     </g>
     <g id="text_2">
      <!-- 2 -->
      <defs>
       <path d="M 19.1875 8.296875 
L 53.609375 8.296875 
L 53.609375 0 
L 7.328125 0 
L 7.328125 8.296875 
Q 12.9375 14.109375 22.625 23.890625 
Q 32.328125 33.6875 34.8125 36.53125 
Q 39.546875 41.84375 41.421875 45.53125 
Q 43.3125 49.21875 43.3125 52.78125 
Q 43.3125 58.59375 39.234375 62.25 
Q 35.15625 65.921875 28.609375 65.921875 
Q 23.96875 65.921875 18.8125 64.3125 
Q 13.671875 62.703125 7.8125 59.421875 
L 7.8125 69.390625 
Q 13.765625 71.78125 18.9375 73 
Q 24.125 74.21875 28.421875 74.21875 
Q 39.75 74.21875 46.484375 68.546875 
Q 53.21875 62.890625 53.21875 53.421875 
Q 53.21875 48.921875 51.53125 44.890625 
Q 49.859375 40.875 45.40625 35.40625 
Q 44.1875 33.984375 37.640625 27.21875 
Q 31.109375 20.453125 19.1875 8.296875 
z
" id="DejaVuSans-32"/>
      </defs>
      <g transform="translate(128.914071 317.076875)scale(0.2 -0.2)">
       <use xlink:href="#DejaVuSans-32"/>
      </g>
     </g>
    </g>
    <g id="xtick_3">
     <g id="line2d_9">
      <path clip-path="url(#p06acadbdbe)" d="M 214.433143 294.88 
L 214.433143 24.84 
" style="fill:none;stroke:#b0b0b0;stroke-linecap:square;stroke-width:0.8;"/>
     </g>
     <g id="line2d_10">
      <g>
       <use style="stroke:#000000;stroke-width:0.8;" x="214.433143" xlink:href="#m0cf628251a" y="294.88"/>
      </g>
     </g>
     <g id="text_3">
      <!-- 4 -->
      <defs>
       <path d="M 37.796875 64.3125 
L 12.890625 25.390625 
L 37.796875 25.390625 
z
M 35.203125 72.90625 
L 47.609375 72.90625 
L 47.609375 25.390625 
L 58.015625 25.390625 
L 58.015625 17.1875 
L 47.609375 17.1875 
L 47.609375 0 
L 37.796875 0 
L 37.796875 17.1875 
L 4.890625 17.1875 
L 4.890625 26.703125 
z
" id="DejaVuSans-34"/>
      </defs>
      <g transform="translate(208.070643 317.076875)scale(0.2 -0.2)">
       <use xlink:href="#DejaVuSans-34"/>
      </g>
     </g>
    </g>
    <g id="xtick_4">
     <g id="line2d_11">
      <path clip-path="url(#p06acadbdbe)" d="M 293.589714 294.88 
L 293.589714 24.84 
" style="fill:none;stroke:#b0b0b0;stroke-linecap:square;stroke-width:0.8;"/>
     </g>
     <g id="line2d_12">
      <g>
       <use style="stroke:#000000;stroke-width:0.8;" x="293.589714" xlink:href="#m0cf628251a" y="294.88"/>
      </g>
     </g>
     <g id="text_4">
      <!-- 6 -->
      <defs>
       <path d="M 33.015625 40.375 
Q 26.375 40.375 22.484375 35.828125 
Q 18.609375 31.296875 18.609375 23.390625 
Q 18.609375 15.53125 22.484375 10.953125 
Q 26.375 6.390625 33.015625 6.390625 
Q 39.65625 6.390625 43.53125 10.953125 
Q 47.40625 15.53125 47.40625 23.390625 
Q 47.40625 31.296875 43.53125 35.828125 
Q 39.65625 40.375 33.015625 40.375 
z
M 52.59375 71.296875 
L 52.59375 62.3125 
Q 48.875 64.0625 45.09375 64.984375 
Q 41.3125 65.921875 37.59375 65.921875 
Q 27.828125 65.921875 22.671875 59.328125 
Q 17.53125 52.734375 16.796875 39.40625 
Q 19.671875 43.65625 24.015625 45.921875 
Q 28.375 48.1875 33.59375 48.1875 
Q 44.578125 48.1875 50.953125 41.515625 
Q 57.328125 34.859375 57.328125 23.390625 
Q 57.328125 12.15625 50.6875 5.359375 
Q 44.046875 -1.421875 33.015625 -1.421875 
Q 20.359375 -1.421875 13.671875 8.265625 
Q 6.984375 17.96875 6.984375 36.375 
Q 6.984375 53.65625 15.1875 63.9375 
Q 23.390625 74.21875 37.203125 74.21875 
Q 40.921875 74.21875 44.703125 73.484375 
Q 48.484375 72.75 52.59375 71.296875 
z
" id="DejaVuSans-36"/>
      </defs>
      <g transform="translate(287.227214 317.076875)scale(0.2 -0.2)">
       <use xlink:href="#DejaVuSans-36"/>
      </g>
     </g>
    </g>
    <g id="xtick_5">
     <g id="line2d_13">
      <path clip-path="url(#p06acadbdbe)" d="M 56.12 294.88 
L 56.12 24.84 
" style="fill:none;stroke:#b0b0b0;stroke-linecap:square;stroke-width:0.8;"/>
     </g>
     <g id="line2d_14">
      <defs>
       <path d="M 0 0 
L 0 2 
" id="m86756d824e" style="stroke:#000000;stroke-width:0.6;"/>
      </defs>
      <g>
       <use style="stroke:#000000;stroke-width:0.6;" x="56.12" xlink:href="#m86756d824e" y="294.88"/>
      </g>
     </g>
    </g>
    <g id="xtick_6">
     <g id="line2d_15">
      <path clip-path="url(#p06acadbdbe)" d="M 95.698286 294.88 
L 95.698286 24.84 
" style="fill:none;stroke:#b0b0b0;stroke-linecap:square;stroke-width:0.8;"/>
     </g>
     <g id="line2d_16">
      <g>
       <use style="stroke:#000000;stroke-width:0.6;" x="95.698286" xlink:href="#m86756d824e" y="294.88"/>
      </g>
     </g>
    </g>
    <g id="xtick_7">
     <g id="line2d_17">
      <path clip-path="url(#p06acadbdbe)" d="M 135.276571 294.88 
L 135.276571 24.84 
" style="fill:none;stroke:#b0b0b0;stroke-linecap:square;stroke-width:0.8;"/>
     </g>
     <g id="line2d_18">
      <g>
       <use style="stroke:#000000;stroke-width:0.6;" x="135.276571" xlink:href="#m86756d824e" y="294.88"/>
      </g>
     </g>
    </g>
    <g id="xtick_8">
     <g id="line2d_19">
      <path clip-path="url(#p06acadbdbe)" d="M 174.854857 294.88 
L 174.854857 24.84 
" style="fill:none;stroke:#b0b0b0;stroke-linecap:square;stroke-width:0.8;"/>
     </g>
     <g id="line2d_20">
      <g>
       <use style="stroke:#000000;stroke-width:0.6;" x="174.854857" xlink:href="#m86756d824e" y="294.88"/>
      </g>
     </g>
    </g>
    <g id="xtick_9">
     <g id="line2d_21">
      <path clip-path="url(#p06acadbdbe)" d="M 214.433143 294.88 
L 214.433143 24.84 
" style="fill:none;stroke:#b0b0b0;stroke-linecap:square;stroke-width:0.8;"/>
     </g>
     <g id="line2d_22">
      <g>
       <use style="stroke:#000000;stroke-width:0.6;" x="214.433143" xlink:href="#m86756d824e" y="294.88"/>
      </g>
     </g>
    </g>
    <g id="xtick_10">
     <g id="line2d_23">
      <path clip-path="url(#p06acadbdbe)" d="M 254.011429 294.88 
L 254.011429 24.84 
" style="fill:none;stroke:#b0b0b0;stroke-linecap:square;stroke-width:0.8;"/>
     </g>
     <g id="line2d_24">
      <g>
       <use style="stroke:#000000;stroke-width:0.6;" x="254.011429" xlink:href="#m86756d824e" y="294.88"/>
      </g>
     </g>
    </g>
    <g id="xtick_11">
     <g id="line2d_25">
      <path clip-path="url(#p06acadbdbe)" d="M 293.589714 294.88 
L 293.589714 24.84 
" style="fill:none;stroke:#b0b0b0;stroke-linecap:square;stroke-width:0.8;"/>
     </g>
     <g id="line2d_26">
      <g>
       <use style="stroke:#000000;stroke-width:0.6;" x="293.589714" xlink:href="#m86756d824e" y="294.88"/>
      </g>
     </g>
    </g>
    <g id="xtick_12">
     <g id="line2d_27">
      <path clip-path="url(#p06acadbdbe)" d="M 333.168 294.88 
L 333.168 24.84 
" style="fill:none;stroke:#b0b0b0;stroke-linecap:square;stroke-width:0.8;"/>
     </g>
     <g id="line2d_28">
      <g>
       <use style="stroke:#000000;stroke-width:0.6;" x="333.168" xlink:href="#m86756d824e" y="294.88"/>
      </g>
     </g>
    </g>
    <g id="text_5">
     <!-- log10(# f-evals / dimension) -->
     <defs>
      <path d="M 9.421875 75.984375 
L 18.40625 75.984375 
L 18.40625 0 
L 9.421875 0 
z
" id="DejaVuSans-6c"/>
      <path d="M 30.609375 48.390625 
Q 23.390625 48.390625 19.1875 42.75 
Q 14.984375 37.109375 14.984375 27.296875 
Q 14.984375 17.484375 19.15625 11.84375 
Q 23.34375 6.203125 30.609375 6.203125 
Q 37.796875 6.203125 41.984375 11.859375 
Q 46.1875 17.53125 46.1875 27.296875 
Q 46.1875 37.015625 41.984375 42.703125 
Q 37.796875 48.390625 30.609375 48.390625 
z
M 30.609375 56 
Q 42.328125 56 49.015625 48.375 
Q 55.71875 40.765625 55.71875 27.296875 
Q 55.71875 13.875 49.015625 6.21875 
Q 42.328125 -1.421875 30.609375 -1.421875 
Q 18.84375 -1.421875 12.171875 6.21875 
Q 5.515625 13.875 5.515625 27.296875 
Q 5.515625 40.765625 12.171875 48.375 
Q 18.84375 56 30.609375 56 
z
" id="DejaVuSans-6f"/>
      <path d="M 45.40625 27.984375 
Q 45.40625 37.75 41.375 43.109375 
Q 37.359375 48.484375 30.078125 48.484375 
Q 22.859375 48.484375 18.828125 43.109375 
Q 14.796875 37.75 14.796875 27.984375 
Q 14.796875 18.265625 18.828125 12.890625 
Q 22.859375 7.515625 30.078125 7.515625 
Q 37.359375 7.515625 41.375 12.890625 
Q 45.40625 18.265625 45.40625 27.984375 
z
M 54.390625 6.78125 
Q 54.390625 -7.171875 48.1875 -13.984375 
Q 42 -20.796875 29.203125 -20.796875 
Q 24.46875 -20.796875 20.265625 -20.09375 
Q 16.0625 -19.390625 12.109375 -17.921875 
L 12.109375 -9.1875 
Q 16.0625 -11.328125 19.921875 -12.34375 
Q 23.78125 -13.375 27.78125 -13.375 
Q 36.625 -13.375 41.015625 -8.765625 
Q 45.40625 -4.15625 45.40625 5.171875 
L 45.40625 9.625 
Q 42.625 4.78125 38.28125 2.390625 
Q 33.9375 0 27.875 0 
Q 17.828125 0 11.671875 7.65625 
Q 5.515625 15.328125 5.515625 27.984375 
Q 5.515625 40.671875 11.671875 48.328125 
Q 17.828125 56 27.875 56 
Q 33.9375 56 38.28125 53.609375 
Q 42.625 51.21875 45.40625 46.390625 
L 45.40625 54.6875 
L 54.390625 54.6875 
z
" id="DejaVuSans-67"/>
      <path d="M 12.40625 8.296875 
L 28.515625 8.296875 
L 28.515625 63.921875 
L 10.984375 60.40625 
L 10.984375 69.390625 
L 28.421875 72.90625 
L 38.28125 72.90625 
L 38.28125 8.296875 
L 54.390625 8.296875 
L 54.390625 0 
L 12.40625 0 
z
" id="DejaVuSans-31"/>
      <path d="M 31 75.875 
Q 24.46875 64.65625 21.28125 53.65625 
Q 18.109375 42.671875 18.109375 31.390625 
Q 18.109375 20.125 21.3125 9.0625 
Q 24.515625 -2 31 -13.1875 
L 23.1875 -13.1875 
Q 15.875 -1.703125 12.234375 9.375 
Q 8.59375 20.453125 8.59375 31.390625 
Q 8.59375 42.28125 12.203125 53.3125 
Q 15.828125 64.359375 23.1875 75.875 
z
" id="DejaVuSans-28"/>
      <path d="M 51.125 44 
L 36.921875 44 
L 32.8125 27.6875 
L 47.125 27.6875 
z
M 43.796875 71.78125 
L 38.71875 51.515625 
L 52.984375 51.515625 
L 58.109375 71.78125 
L 65.921875 71.78125 
L 60.890625 51.515625 
L 76.125 51.515625 
L 76.125 44 
L 58.984375 44 
L 54.984375 27.6875 
L 70.515625 27.6875 
L 70.515625 20.21875 
L 53.078125 20.21875 
L 48 0 
L 40.1875 0 
L 45.21875 20.21875 
L 30.90625 20.21875 
L 25.875 0 
L 18.015625 0 
L 23.09375 20.21875 
L 7.71875 20.21875 
L 7.71875 27.6875 
L 24.90625 27.6875 
L 29 44 
L 13.28125 44 
L 13.28125 51.515625 
L 30.90625 51.515625 
L 35.890625 71.78125 
z
" id="DejaVuSans-23"/>
      <path id="DejaVuSans-20"/>
      <path d="M 37.109375 75.984375 
L 37.109375 68.5 
L 28.515625 68.5 
Q 23.6875 68.5 21.796875 66.546875 
Q 19.921875 64.59375 19.921875 59.515625 
L 19.921875 54.6875 
L 34.71875 54.6875 
L 34.71875 47.703125 
L 19.921875 47.703125 
L 19.921875 0 
L 10.890625 0 
L 10.890625 47.703125 
L 2.296875 47.703125 
L 2.296875 54.6875 
L 10.890625 54.6875 
L 10.890625 58.5 
Q 10.890625 67.625 15.140625 71.796875 
Q 19.390625 75.984375 28.609375 75.984375 
z
" id="DejaVuSans-66"/>
      <path d="M 4.890625 31.390625 
L 31.203125 31.390625 
L 31.203125 23.390625 
L 4.890625 23.390625 
z
" id="DejaVuSans-2d"/>
      <path d="M 56.203125 29.59375 
L 56.203125 25.203125 
L 14.890625 25.203125 
Q 15.484375 15.921875 20.484375 11.0625 
Q 25.484375 6.203125 34.421875 6.203125 
Q 39.59375 6.203125 44.453125 7.46875 
Q 49.3125 8.734375 54.109375 11.28125 
L 54.109375 2.78125 
Q 49.265625 0.734375 44.1875 -0.34375 
Q 39.109375 -1.421875 33.890625 -1.421875 
Q 20.796875 -1.421875 13.15625 6.1875 
Q 5.515625 13.8125 5.515625 26.8125 
Q 5.515625 40.234375 12.765625 48.109375 
Q 20.015625 56 32.328125 56 
Q 43.359375 56 49.78125 48.890625 
Q 56.203125 41.796875 56.203125 29.59375 
z
M 47.21875 32.234375 
Q 47.125 39.59375 43.09375 43.984375 
Q 39.0625 48.390625 32.421875 48.390625 
Q 24.90625 48.390625 20.390625 44.140625 
Q 15.875 39.890625 15.1875 32.171875 
z
" id="DejaVuSans-65"/>
      <path d="M 2.984375 54.6875 
L 12.5 54.6875 
L 29.59375 8.796875 
L 46.6875 54.6875 
L 56.203125 54.6875 
L 35.6875 0 
L 23.484375 0 
z
" id="DejaVuSans-76"/>
      <path d="M 34.28125 27.484375 
Q 23.390625 27.484375 19.1875 25 
Q 14.984375 22.515625 14.984375 16.5 
Q 14.984375 11.71875 18.140625 8.90625 
Q 21.296875 6.109375 26.703125 6.109375 
Q 34.1875 6.109375 38.703125 11.40625 
Q 43.21875 16.703125 43.21875 25.484375 
L 43.21875 27.484375 
z
M 52.203125 31.203125 
L 52.203125 0 
L 43.21875 0 
L 43.21875 8.296875 
Q 40.140625 3.328125 35.546875 0.953125 
Q 30.953125 -1.421875 24.3125 -1.421875 
Q 15.921875 -1.421875 10.953125 3.296875 
Q 6 8.015625 6 15.921875 
Q 6 25.140625 12.171875 29.828125 
Q 18.359375 34.515625 30.609375 34.515625 
L 43.21875 34.515625 
L 43.21875 35.40625 
Q 43.21875 41.609375 39.140625 45 
Q 35.0625 48.390625 27.6875 48.390625 
Q 23 48.390625 18.546875 47.265625 
Q 14.109375 46.140625 10.015625 43.890625 
L 10.015625 52.203125 
Q 14.9375 54.109375 19.578125 55.046875 
Q 24.21875 56 28.609375 56 
Q 40.484375 56 46.34375 49.84375 
Q 52.203125 43.703125 52.203125 31.203125 
z
" id="DejaVuSans-61"/>
      <path d="M 44.28125 53.078125 
L 44.28125 44.578125 
Q 40.484375 46.53125 36.375 47.5 
Q 32.28125 48.484375 27.875 48.484375 
Q 21.1875 48.484375 17.84375 46.4375 
Q 14.5 44.390625 14.5 40.28125 
Q 14.5 37.15625 16.890625 35.375 
Q 19.28125 33.59375 26.515625 31.984375 
L 29.59375 31.296875 
Q 39.15625 29.25 43.1875 25.515625 
Q 47.21875 21.78125 47.21875 15.09375 
Q 47.21875 7.46875 41.1875 3.015625 
Q 35.15625 -1.421875 24.609375 -1.421875 
Q 20.21875 -1.421875 15.453125 -0.5625 
Q 10.6875 0.296875 5.421875 2 
L 5.421875 11.28125 
Q 10.40625 8.6875 15.234375 7.390625 
Q 20.0625 6.109375 24.8125 6.109375 
Q 31.15625 6.109375 34.5625 8.28125 
Q 37.984375 10.453125 37.984375 14.40625 
Q 37.984375 18.0625 35.515625 20.015625 
Q 33.0625 21.96875 24.703125 23.78125 
L 21.578125 24.515625 
Q 13.234375 26.265625 9.515625 29.90625 
Q 5.8125 33.546875 5.8125 39.890625 
Q 5.8125 47.609375 11.28125 51.796875 
Q 16.75 56 26.8125 56 
Q 31.78125 56 36.171875 55.265625 
Q 40.578125 54.546875 44.28125 53.078125 
z
" id="DejaVuSans-73"/>
      <path d="M 25.390625 72.90625 
L 33.6875 72.90625 
L 8.296875 -9.28125 
L 0 -9.28125 
z
" id="DejaVuSans-2f"/>
      <path d="M 45.40625 46.390625 
L 45.40625 75.984375 
L 54.390625 75.984375 
L 54.390625 0 
L 45.40625 0 
L 45.40625 8.203125 
Q 42.578125 3.328125 38.25 0.953125 
Q 33.9375 -1.421875 27.875 -1.421875 
Q 17.96875 -1.421875 11.734375 6.484375 
Q 5.515625 14.40625 5.515625 27.296875 
Q 5.515625 40.1875 11.734375 48.09375 
Q 17.96875 56 27.875 56 
Q 33.9375 56 38.25 53.625 
Q 42.578125 51.265625 45.40625 46.390625 
z
M 14.796875 27.296875 
Q 14.796875 17.390625 18.875 11.75 
Q 22.953125 6.109375 30.078125 6.109375 
Q 37.203125 6.109375 41.296875 11.75 
Q 45.40625 17.390625 45.40625 27.296875 
Q 45.40625 37.203125 41.296875 42.84375 
Q 37.203125 48.484375 30.078125 48.484375 
Q 22.953125 48.484375 18.875 42.84375 
Q 14.796875 37.203125 14.796875 27.296875 
z
" id="DejaVuSans-64"/>
      <path d="M 9.421875 54.6875 
L 18.40625 54.6875 
L 18.40625 0 
L 9.421875 0 
z
M 9.421875 75.984375 
L 18.40625 75.984375 
L 18.40625 64.59375 
L 9.421875 64.59375 
z
" id="DejaVuSans-69"/>
      <path d="M 52 44.1875 
Q 55.375 50.25 60.0625 53.125 
Q 64.75 56 71.09375 56 
Q 79.640625 56 84.28125 50.015625 
Q 88.921875 44.046875 88.921875 33.015625 
L 88.921875 0 
L 79.890625 0 
L 79.890625 32.71875 
Q 79.890625 40.578125 77.09375 44.375 
Q 74.3125 48.1875 68.609375 48.1875 
Q 61.625 48.1875 57.5625 43.546875 
Q 53.515625 38.921875 53.515625 30.90625 
L 53.515625 0 
L 44.484375 0 
L 44.484375 32.71875 
Q 44.484375 40.625 41.703125 44.40625 
Q 38.921875 48.1875 33.109375 48.1875 
Q 26.21875 48.1875 22.15625 43.53125 
Q 18.109375 38.875 18.109375 30.90625 
L 18.109375 0 
L 9.078125 0 
L 9.078125 54.6875 
L 18.109375 54.6875 
L 18.109375 46.1875 
Q 21.1875 51.21875 25.484375 53.609375 
Q 29.78125 56 35.6875 56 
Q 41.65625 56 45.828125 52.96875 
Q 50 49.953125 52 44.1875 
z
" id="DejaVuSans-6d"/>
      <path d="M 54.890625 33.015625 
L 54.890625 0 
L 45.90625 0 
L 45.90625 32.71875 
Q 45.90625 40.484375 42.875 44.328125 
Q 39.84375 48.1875 33.796875 48.1875 
Q 26.515625 48.1875 22.3125 43.546875 
Q 18.109375 38.921875 18.109375 30.90625 
L 18.109375 0 
L 9.078125 0 
L 9.078125 54.6875 
L 18.109375 54.6875 
L 18.109375 46.1875 
Q 21.34375 51.125 25.703125 53.5625 
Q 30.078125 56 35.796875 56 
Q 45.21875 56 50.046875 50.171875 
Q 54.890625 44.34375 54.890625 33.015625 
z
" id="DejaVuSans-6e"/>
      <path d="M 8.015625 75.875 
L 15.828125 75.875 
Q 23.140625 64.359375 26.78125 53.3125 
Q 30.421875 42.28125 30.421875 31.390625 
Q 30.421875 20.453125 26.78125 9.375 
Q 23.140625 -1.703125 15.828125 -13.1875 
L 8.015625 -13.1875 
Q 14.5 -2 17.703125 9.0625 
Q 20.90625 20.125 20.90625 31.390625 
Q 20.90625 42.671875 17.703125 53.65625 
Q 14.5 64.65625 8.015625 75.875 
z
" id="DejaVuSans-29"/>
     </defs>
     <g transform="translate(73.803219 338.153594)scale(0.17 -0.17)">
      <use xlink:href="#DejaVuSans-6c"/>
      <use x="27.783203" xlink:href="#DejaVuSans-6f"/>
      <use x="88.964844" xlink:href="#DejaVuSans-67"/>
      <use x="152.441406" xlink:href="#DejaVuSans-31"/>
      <use x="216.064453" xlink:href="#DejaVuSans-30"/>
      <use x="279.6875" xlink:href="#DejaVuSans-28"/>
      <use x="318.701172" xlink:href="#DejaVuSans-23"/>
      <use x="402.490234" xlink:href="#DejaVuSans-20"/>
      <use x="434.277344" xlink:href="#DejaVuSans-66"/>
      <use x="469.404297" xlink:href="#DejaVuSans-2d"/>
      <use x="505.488281" xlink:href="#DejaVuSans-65"/>
      <use x="567.011719" xlink:href="#DejaVuSans-76"/>
      <use x="626.191406" xlink:href="#DejaVuSans-61"/>
      <use x="687.470703" xlink:href="#DejaVuSans-6c"/>
      <use x="715.253906" xlink:href="#DejaVuSans-73"/>
      <use x="767.353516" xlink:href="#DejaVuSans-20"/>
      <use x="799.140625" xlink:href="#DejaVuSans-2f"/>
      <use x="832.832031" xlink:href="#DejaVuSans-20"/>
      <use x="864.619141" xlink:href="#DejaVuSans-64"/>
      <use x="928.095703" xlink:href="#DejaVuSans-69"/>
      <use x="955.878906" xlink:href="#DejaVuSans-6d"/>
      <use x="1053.291016" xlink:href="#DejaVuSans-65"/>
      <use x="1114.814453" xlink:href="#DejaVuSans-6e"/>
      <use x="1178.193359" xlink:href="#DejaVuSans-73"/>
      <use x="1230.292969" xlink:href="#DejaVuSans-69"/>
      <use x="1258.076172" xlink:href="#DejaVuSans-6f"/>
      <use x="1319.257812" xlink:href="#DejaVuSans-6e"/>
      <use x="1382.636719" xlink:href="#DejaVuSans-29"/>
     </g>
    </g>
   </g>
   <g id="matplotlib.axis_2">
    <g id="ytick_1">
     <g id="line2d_29">
      <path clip-path="url(#p06acadbdbe)" d="M 56.12 294.88 
L 333.168 294.88 
" style="fill:none;stroke:#b0b0b0;stroke-linecap:square;stroke-width:0.8;"/>
     </g>
     <g id="line2d_30">
      <defs>
       <path d="M 0 0 
L -3.5 0 
" id="m4fcc054c8f" style="stroke:#000000;stroke-width:0.8;"/>
      </defs>
      <g>
       <use style="stroke:#000000;stroke-width:0.8;" x="56.12" xlink:href="#m4fcc054c8f" y="294.88"/>
      </g>
     </g>
     <g id="text_6">
      <!-- 0.0 -->
      <defs>
       <path d="M 10.6875 12.40625 
L 21 12.40625 
L 21 0 
L 10.6875 0 
z
" id="DejaVuSans-2e"/>
      </defs>
      <g transform="translate(23.675 300.95875)scale(0.16 -0.16)">
       <use xlink:href="#DejaVuSans-30"/>
       <use x="63.623047" xlink:href="#DejaVuSans-2e"/>
       <use x="95.410156" xlink:href="#DejaVuSans-30"/>
      </g>
     </g>
    </g>
    <g id="ytick_2">
     <g id="line2d_31">
      <path clip-path="url(#p06acadbdbe)" d="M 56.12 241.406733 
L 333.168 241.406733 
" style="fill:none;stroke:#b0b0b0;stroke-linecap:square;stroke-width:0.8;"/>
     </g>
     <g id="line2d_32">
      <g>
       <use style="stroke:#000000;stroke-width:0.8;" x="56.12" xlink:href="#m4fcc054c8f" y="241.406733"/>
      </g>
     </g>
     <g id="text_7">
      <!-- 0.2 -->
      <g transform="translate(23.675 247.485483)scale(0.16 -0.16)">
       <use xlink:href="#DejaVuSans-30"/>
       <use x="63.623047" xlink:href="#DejaVuSans-2e"/>
       <use x="95.410156" xlink:href="#DejaVuSans-32"/>
      </g>
     </g>
    </g>
    <g id="ytick_3">
     <g id="line2d_33">
      <path clip-path="url(#p06acadbdbe)" d="M 56.12 187.933465 
L 333.168 187.933465 
" style="fill:none;stroke:#b0b0b0;stroke-linecap:square;stroke-width:0.8;"/>
     </g>
     <g id="line2d_34">
      <g>
       <use style="stroke:#000000;stroke-width:0.8;" x="56.12" xlink:href="#m4fcc054c8f" y="187.933465"/>
      </g>
     </g>
     <g id="text_8">
      <!-- 0.4 -->
      <g transform="translate(23.675 194.012215)scale(0.16 -0.16)">
       <use xlink:href="#DejaVuSans-30"/>
       <use x="63.623047" xlink:href="#DejaVuSans-2e"/>
       <use x="95.410156" xlink:href="#DejaVuSans-34"/>
      </g>
     </g>
    </g>
    <g id="ytick_4">
     <g id="line2d_35">
      <path clip-path="url(#p06acadbdbe)" d="M 56.12 134.460198 
L 333.168 134.460198 
" style="fill:none;stroke:#b0b0b0;stroke-linecap:square;stroke-width:0.8;"/>
     </g>
     <g id="line2d_36">
      <g>
       <use style="stroke:#000000;stroke-width:0.8;" x="56.12" xlink:href="#m4fcc054c8f" y="134.460198"/>
      </g>
     </g>
     <g id="text_9">
      <!-- 0.6 -->
      <g transform="translate(23.675 140.538948)scale(0.16 -0.16)">
       <use xlink:href="#DejaVuSans-30"/>
       <use x="63.623047" xlink:href="#DejaVuSans-2e"/>
       <use x="95.410156" xlink:href="#DejaVuSans-36"/>
      </g>
     </g>
    </g>
    <g id="ytick_5">
     <g id="line2d_37">
      <path clip-path="url(#p06acadbdbe)" d="M 56.12 80.986931 
L 333.168 80.986931 
" style="fill:none;stroke:#b0b0b0;stroke-linecap:square;stroke-width:0.8;"/>
     </g>
     <g id="line2d_38">
      <g>
       <use style="stroke:#000000;stroke-width:0.8;" x="56.12" xlink:href="#m4fcc054c8f" y="80.986931"/>
      </g>
     </g>
     <g id="text_10">
      <!-- 0.8 -->
      <defs>
       <path d="M 31.78125 34.625 
Q 24.75 34.625 20.71875 30.859375 
Q 16.703125 27.09375 16.703125 20.515625 
Q 16.703125 13.921875 20.71875 10.15625 
Q 24.75 6.390625 31.78125 6.390625 
Q 38.8125 6.390625 42.859375 10.171875 
Q 46.921875 13.96875 46.921875 20.515625 
Q 46.921875 27.09375 42.890625 30.859375 
Q 38.875 34.625 31.78125 34.625 
z
M 21.921875 38.8125 
Q 15.578125 40.375 12.03125 44.71875 
Q 8.5 49.078125 8.5 55.328125 
Q 8.5 64.0625 14.71875 69.140625 
Q 20.953125 74.21875 31.78125 74.21875 
Q 42.671875 74.21875 48.875 69.140625 
Q 55.078125 64.0625 55.078125 55.328125 
Q 55.078125 49.078125 51.53125 44.71875 
Q 48 40.375 41.703125 38.8125 
Q 48.828125 37.15625 52.796875 32.3125 
Q 56.78125 27.484375 56.78125 20.515625 
Q 56.78125 9.90625 50.3125 4.234375 
Q 43.84375 -1.421875 31.78125 -1.421875 
Q 19.734375 -1.421875 13.25 4.234375 
Q 6.78125 9.90625 6.78125 20.515625 
Q 6.78125 27.484375 10.78125 32.3125 
Q 14.796875 37.15625 21.921875 38.8125 
z
M 18.3125 54.390625 
Q 18.3125 48.734375 21.84375 45.5625 
Q 25.390625 42.390625 31.78125 42.390625 
Q 38.140625 42.390625 41.71875 45.5625 
Q 45.3125 48.734375 45.3125 54.390625 
Q 45.3125 60.0625 41.71875 63.234375 
Q 38.140625 66.40625 31.78125 66.40625 
Q 25.390625 66.40625 21.84375 63.234375 
Q 18.3125 60.0625 18.3125 54.390625 
z
" id="DejaVuSans-38"/>
      </defs>
      <g transform="translate(23.675 87.065681)scale(0.16 -0.16)">
       <use xlink:href="#DejaVuSans-30"/>
       <use x="63.623047" xlink:href="#DejaVuSans-2e"/>
       <use x="95.410156" xlink:href="#DejaVuSans-38"/>
      </g>
     </g>
    </g>
    <g id="ytick_6">
     <g id="line2d_39">
      <path clip-path="url(#p06acadbdbe)" d="M 56.12 27.513663 
L 333.168 27.513663 
" style="fill:none;stroke:#b0b0b0;stroke-linecap:square;stroke-width:0.8;"/>
     </g>
     <g id="line2d_40">
      <g>
       <use style="stroke:#000000;stroke-width:0.8;" x="56.12" xlink:href="#m4fcc054c8f" y="27.513663"/>
      </g>
     </g>
     <g id="text_11">
      <!-- 1.0 -->
      <g transform="translate(23.675 33.592413)scale(0.16 -0.16)">
       <use xlink:href="#DejaVuSans-31"/>
       <use x="63.623047" xlink:href="#DejaVuSans-2e"/>
       <use x="95.410156" xlink:href="#DejaVuSans-30"/>
      </g>
     </g>
    </g>
    <g id="text_12">
     <!-- Fraction of function,target pairs -->
     <defs>
      <path d="M 9.8125 72.90625 
L 51.703125 72.90625 
L 51.703125 64.59375 
L 19.671875 64.59375 
L 19.671875 43.109375 
L 48.578125 43.109375 
L 48.578125 34.8125 
L 19.671875 34.8125 
L 19.671875 0 
L 9.8125 0 
z
" id="DejaVuSans-46"/>
      <path d="M 41.109375 46.296875 
Q 39.59375 47.171875 37.8125 47.578125 
Q 36.03125 48 33.890625 48 
Q 26.265625 48 22.1875 43.046875 
Q 18.109375 38.09375 18.109375 28.8125 
L 18.109375 0 
L 9.078125 0 
L 9.078125 54.6875 
L 18.109375 54.6875 
L 18.109375 46.1875 
Q 20.953125 51.171875 25.484375 53.578125 
Q 30.03125 56 36.53125 56 
Q 37.453125 56 38.578125 55.875 
Q 39.703125 55.765625 41.0625 55.515625 
z
" id="DejaVuSans-72"/>
      <path d="M 48.78125 52.59375 
L 48.78125 44.1875 
Q 44.96875 46.296875 41.140625 47.34375 
Q 37.3125 48.390625 33.40625 48.390625 
Q 24.65625 48.390625 19.8125 42.84375 
Q 14.984375 37.3125 14.984375 27.296875 
Q 14.984375 17.28125 19.8125 11.734375 
Q 24.65625 6.203125 33.40625 6.203125 
Q 37.3125 6.203125 41.140625 7.25 
Q 44.96875 8.296875 48.78125 10.40625 
L 48.78125 2.09375 
Q 45.015625 0.34375 40.984375 -0.53125 
Q 36.96875 -1.421875 32.421875 -1.421875 
Q 20.0625 -1.421875 12.78125 6.34375 
Q 5.515625 14.109375 5.515625 27.296875 
Q 5.515625 40.671875 12.859375 48.328125 
Q 20.21875 56 33.015625 56 
Q 37.15625 56 41.109375 55.140625 
Q 45.0625 54.296875 48.78125 52.59375 
z
" id="DejaVuSans-63"/>
      <path d="M 18.3125 70.21875 
L 18.3125 54.6875 
L 36.8125 54.6875 
L 36.8125 47.703125 
L 18.3125 47.703125 
L 18.3125 18.015625 
Q 18.3125 11.328125 20.140625 9.421875 
Q 21.96875 7.515625 27.59375 7.515625 
L 36.8125 7.515625 
L 36.8125 0 
L 27.59375 0 
Q 17.1875 0 13.234375 3.875 
Q 9.28125 7.765625 9.28125 18.015625 
L 9.28125 47.703125 
L 2.6875 47.703125 
L 2.6875 54.6875 
L 9.28125 54.6875 
L 9.28125 70.21875 
z
" id="DejaVuSans-74"/>
      <path d="M 8.5 21.578125 
L 8.5 54.6875 
L 17.484375 54.6875 
L 17.484375 21.921875 
Q 17.484375 14.15625 20.5 10.265625 
Q 23.53125 6.390625 29.59375 6.390625 
Q 36.859375 6.390625 41.078125 11.03125 
Q 45.3125 15.671875 45.3125 23.6875 
L 45.3125 54.6875 
L 54.296875 54.6875 
L 54.296875 0 
L 45.3125 0 
L 45.3125 8.40625 
Q 42.046875 3.421875 37.71875 1 
Q 33.40625 -1.421875 27.6875 -1.421875 
Q 18.265625 -1.421875 13.375 4.4375 
Q 8.5 10.296875 8.5 21.578125 
z
M 31.109375 56 
z
" id="DejaVuSans-75"/>
      <path d="M 11.71875 12.40625 
L 22.015625 12.40625 
L 22.015625 4 
L 14.015625 -11.625 
L 7.71875 -11.625 
L 11.71875 4 
z
" id="DejaVuSans-2c"/>
      <path d="M 18.109375 8.203125 
L 18.109375 -20.796875 
L 9.078125 -20.796875 
L 9.078125 54.6875 
L 18.109375 54.6875 
L 18.109375 46.390625 
Q 20.953125 51.265625 25.265625 53.625 
Q 29.59375 56 35.59375 56 
Q 45.5625 56 51.78125 48.09375 
Q 58.015625 40.1875 58.015625 27.296875 
Q 58.015625 14.40625 51.78125 6.484375 
Q 45.5625 -1.421875 35.59375 -1.421875 
Q 29.59375 -1.421875 25.265625 0.953125 
Q 20.953125 3.328125 18.109375 8.203125 
z
M 48.6875 27.296875 
Q 48.6875 37.203125 44.609375 42.84375 
Q 40.53125 48.484375 33.40625 48.484375 
Q 26.265625 48.484375 22.1875 42.84375 
Q 18.109375 37.203125 18.109375 27.296875 
Q 18.109375 17.390625 22.1875 11.75 
Q 26.265625 6.109375 33.40625 6.109375 
Q 40.53125 6.109375 44.609375 11.75 
Q 48.6875 17.390625 48.6875 27.296875 
z
" id="DejaVuSans-70"/>
     </defs>
     <g transform="translate(16.139531 294.999375)rotate(-90)scale(0.17 -0.17)">
      <use xlink:href="#DejaVuSans-46"/>
      <use x="57.410156" xlink:href="#DejaVuSans-72"/>
      <use x="98.523438" xlink:href="#DejaVuSans-61"/>
      <use x="159.802734" xlink:href="#DejaVuSans-63"/>
      <use x="214.783203" xlink:href="#DejaVuSans-74"/>
      <use x="253.992188" xlink:href="#DejaVuSans-69"/>
      <use x="281.775391" xlink:href="#DejaVuSans-6f"/>
      <use x="342.957031" xlink:href="#DejaVuSans-6e"/>
      <use x="406.335938" xlink:href="#DejaVuSans-20"/>
      <use x="438.123047" xlink:href="#DejaVuSans-6f"/>
      <use x="499.304688" xlink:href="#DejaVuSans-66"/>
      <use x="534.509766" xlink:href="#DejaVuSans-20"/>
      <use x="566.296875" xlink:href="#DejaVuSans-66"/>
      <use x="601.501953" xlink:href="#DejaVuSans-75"/>
      <use x="664.880859" xlink:href="#DejaVuSans-6e"/>
      <use x="728.259766" xlink:href="#DejaVuSans-63"/>
      <use x="783.240234" xlink:href="#DejaVuSans-74"/>
      <use x="822.449219" xlink:href="#DejaVuSans-69"/>
      <use x="850.232422" xlink:href="#DejaVuSans-6f"/>
      <use x="911.414062" xlink:href="#DejaVuSans-6e"/>
      <use x="974.792969" xlink:href="#DejaVuSans-2c"/>
      <use x="1006.580078" xlink:href="#DejaVuSans-74"/>
      <use x="1045.789062" xlink:href="#DejaVuSans-61"/>
      <use x="1107.068359" xlink:href="#DejaVuSans-72"/>
      <use x="1148.166016" xlink:href="#DejaVuSans-67"/>
      <use x="1211.642578" xlink:href="#DejaVuSans-65"/>
      <use x="1273.166016" xlink:href="#DejaVuSans-74"/>
      <use x="1312.375" xlink:href="#DejaVuSans-20"/>
      <use x="1344.162109" xlink:href="#DejaVuSans-70"/>
      <use x="1407.638672" xlink:href="#DejaVuSans-61"/>
      <use x="1468.917969" xlink:href="#DejaVuSans-69"/>
      <use x="1496.701172" xlink:href="#DejaVuSans-72"/>
      <use x="1537.814453" xlink:href="#DejaVuSans-73"/>
     </g>
    </g>
   </g>
   <g id="line2d_41">
    <defs>
     <path d="M 0 1.5 
C 0.397805 1.5 0.77937 1.341951 1.06066 1.06066 
C 1.341951 0.77937 1.5 0.397805 1.5 0 
C 1.5 -0.397805 1.341951 -0.77937 1.06066 -1.06066 
C 0.77937 -1.341951 0.397805 -1.5 0 -1.5 
C -0.397805 -1.5 -0.77937 -1.341951 -1.06066 -1.06066 
C -1.341951 -0.77937 -1.5 -0.397805 -1.5 0 
C -1.5 0.397805 -1.341951 0.77937 -1.06066 1.06066 
C -0.77937 1.341951 -0.397805 1.5 0 1.5 
z
" id="m8718264f1e" style="stroke:#f5deb3;"/>
    </defs>
    <g>
     <use style="fill:#f5deb3;stroke:#f5deb3;" x="210.768431" xlink:href="#m8718264f1e" y="27.513663"/>
     <use style="fill:#f5deb3;stroke:#f5deb3;" x="210.768431" xlink:href="#m8718264f1e" y="27.513663"/>
    </g>
   </g>
   <g id="line2d_42">
    <defs>
     <path d="M 0 1.5 
C 0.397805 1.5 0.77937 1.341951 1.06066 1.06066 
C 1.341951 0.77937 1.5 0.397805 1.5 0 
C 1.5 -0.397805 1.341951 -0.77937 1.06066 -1.06066 
C 0.77937 -1.341951 0.397805 -1.5 0 -1.5 
C -0.397805 -1.5 -0.77937 -1.341951 -1.06066 -1.06066 
C -1.341951 -0.77937 -1.5 -0.397805 -1.5 0 
C -1.5 0.397805 -1.341951 0.77937 -1.06066 1.06066 
C -0.77937 1.341951 -0.397805 1.5 0 1.5 
z
" id="mfddceaaad6" style="stroke:#000080;"/>
    </defs>
    <g>
     <use style="fill:#000080;stroke:#000080;" x="283.194837" xlink:href="#mfddceaaad6" y="27.513663"/>
     <use style="fill:#000080;stroke:#000080;" x="283.194837" xlink:href="#mfddceaaad6" y="27.513663"/>
    </g>
   </g>
   <g id="line2d_43">
    <path d="M 121.047443 294.88 
L 121.047443 294.355752 
L 122.262156 294.355752 
L 122.262156 293.831505 
L 123.258878 293.831505 
L 123.258878 293.307257 
L 124.460903 293.307257 
L 124.460903 292.783009 
L 126.178129 292.783009 
L 126.178129 292.258761 
L 128.029939 292.258761 
L 128.029939 291.734514 
L 128.823599 291.734514 
L 128.823599 291.210266 
L 129.748989 291.210266 
L 129.748989 290.686018 
L 131.928242 290.686018 
L 131.928242 290.161771 
L 134.592793 290.161771 
L 134.592793 289.637523 
L 135.566322 289.637523 
L 135.566322 289.113275 
L 136.310535 289.113275 
L 136.310535 288.589027 
L 138.932406 288.589027 
L 138.932406 288.06478 
L 139.46596 288.06478 
L 139.46596 287.540532 
L 140.511183 287.540532 
L 140.511183 287.016284 
L 141.96872 287.016284 
L 141.96872 286.492036 
L 142.496231 286.492036 
L 142.496231 285.967789 
L 143.821595 285.967789 
L 143.821595 285.443541 
L 144.77733 285.443541 
L 144.77733 284.919293 
L 151.521075 284.919293 
L 151.521075 284.395046 
L 153.842163 284.395046 
L 153.842163 283.870798 
L 155.488372 283.870798 
L 155.488372 283.34655 
L 157.19351 283.34655 
L 157.19351 282.822302 
L 157.811415 282.822302 
L 157.811415 282.298055 
L 162.596857 282.298055 
L 162.596857 281.773807 
L 167.183793 281.773807 
L 167.183793 281.249559 
L 167.845026 281.249559 
L 167.845026 280.725312 
L 170.164782 280.725312 
L 170.218891 279.676816 
L 170.989219 279.676816 
L 170.989219 279.152568 
L 171.742987 279.152568 
L 171.742987 278.628321 
L 172.896163 278.628321 
L 172.896163 278.104073 
L 178.830079 278.104073 
L 178.830079 277.579825 
L 179.174417 277.579825 
L 179.174417 277.055578 
L 179.676378 277.055578 
L 179.676378 276.53133 
L 180.140098 276.53133 
L 180.140098 276.007082 
L 180.304873 276.007082 
L 180.304873 275.482834 
L 180.873693 275.482834 
L 180.873693 274.958587 
L 181.638759 274.958587 
L 181.638759 274.434339 
L 181.901993 274.434339 
L 181.901993 273.910091 
L 182.033812 273.910091 
L 182.033812 273.385844 
L 182.632299 273.385844 
L 182.72389 272.337348 
L 182.765165 272.337348 
L 182.765165 271.8131 
L 183.341231 271.8131 
L 183.341231 271.288853 
L 186.175418 271.288853 
L 186.175418 270.764605 
L 187.01147 270.764605 
L 187.01147 270.240357 
L 187.739021 270.240357 
L 187.739021 269.716109 
L 187.937689 269.716109 
L 187.937689 269.191862 
L 188.058508 269.191862 
L 188.058508 268.667614 
L 189.416292 268.667614 
L 189.416292 268.143366 
L 192.20848 268.143366 
L 192.20848 267.619119 
L 192.784311 267.619119 
L 192.784311 267.094871 
L 193.610252 267.094871 
L 193.610252 266.570623 
L 193.742509 266.570623 
L 193.818526 264.99788 
L 194.572223 264.99788 
L 194.622366 263.949385 
L 195.179253 263.949385 
L 195.22398 262.900889 
L 195.624966 262.900889 
L 195.624966 262.376641 
L 197.610661 262.376641 
L 197.71963 261.328146 
L 198.353633 261.328146 
L 198.353633 260.803898 
L 200.31575 260.803898 
L 200.31575 260.279651 
L 201.040777 260.279651 
L 201.040777 259.755403 
L 201.819724 259.755403 
L 201.861207 258.706907 
L 202.168127 258.706907 
L 202.168127 258.18266 
L 202.706254 258.18266 
L 202.706254 257.658412 
L 203.563534 257.658412 
L 203.563534 257.134164 
L 205.219628 257.134164 
L 205.219628 256.609917 
L 208.067268 256.609917 
L 208.067268 256.085669 
L 208.849755 256.085669 
L 208.849755 255.561421 
L 209.942872 255.561421 
L 209.942872 255.037173 
L 210.86326 255.037173 
L 210.86326 254.512926 
L 211.022672 254.512926 
L 211.022672 253.988678 
L 211.41905 253.988678 
L 211.41905 253.46443 
L 212.329558 253.46443 
L 212.329558 252.940182 
L 213.412325 252.940182 
L 213.412325 252.415935 
L 215.613282 252.415935 
L 215.613282 251.891687 
L 216.642465 251.891687 
L 216.642465 251.367439 
L 217.167778 251.367439 
L 217.167778 250.843192 
L 217.990874 250.843192 
L 218.086893 245.600714 
L 218.130474 245.600714 
L 218.237845 241.406733 
L 218.339347 241.406733 
L 218.43535 237.212751 
L 218.621723 237.212751 
L 218.621723 236.688503 
L 221.029298 236.688503 
L 221.029298 236.164255 
L 222.312178 236.164255 
L 222.312178 235.640008 
L 223.917179 235.640008 
L 223.917179 235.11576 
L 225.813738 235.11576 
L 225.813738 234.591512 
L 225.984608 234.591512 
L 225.984608 234.067265 
L 227.92781 234.067265 
L 227.92781 233.543017 
L 228.173379 233.543017 
L 228.173379 233.018769 
L 230.082734 233.018769 
L 230.082734 232.494521 
L 231.359824 232.494521 
L 231.359824 231.970274 
L 231.813863 231.970274 
L 231.813863 231.446026 
L 232.540164 231.446026 
L 232.540164 230.921778 
L 232.68343 230.921778 
L 232.68343 230.397531 
L 233.738254 230.397531 
L 233.738254 229.873283 
L 234.498315 229.873283 
L 234.498315 229.349035 
L 235.389476 229.349035 
L 235.389476 228.824787 
L 235.778337 228.824787 
L 235.888111 219.912576 
L 235.89615 219.912576 
L 235.896545 218.864081 
L 237.216094 218.864081 
L 237.216094 218.339833 
L 239.671219 218.339833 
L 239.751908 216.76709 
L 239.796769 216.76709 
L 239.796769 216.242842 
L 240.574611 216.242842 
L 240.680768 210.476117 
L 240.697559 210.476117 
L 240.765188 199.466915 
L 241.664996 199.466915 
L 241.664996 198.942667 
L 241.779537 198.942667 
L 241.779537 198.41842 
L 247.083456 198.41842 
L 247.174242 184.787979 
L 247.339393 184.787979 
L 247.339393 184.263731 
L 250.518151 184.263731 
L 250.584055 183.215236 
L 250.644606 183.215236 
L 250.705902 182.16674 
L 257.212149 182.16674 
L 257.28992 168.012052 
L 259.267348 168.012052 
L 259.314973 154.905859 
L 260.726584 154.905859 
L 260.770918 140.226923 
L 262.183817 140.226923 
L 262.216491 123.975244 
L 265.914908 123.975244 
L 265.940052 109.820555 
L 269.86545 109.820555 
L 269.900581 97.23861 
L 271.127245 97.23861 
L 271.152646 81.511178 
L 271.356708 81.511178 
L 271.387659 66.832242 
L 274.33202 66.832242 
L 274.359923 51.629058 
L 275.89665 51.629058 
L 275.912266 38.522865 
L 283.183133 38.522865 
L 283.194837 27.513663 
L 333.168 27.513663 
L 333.168 27.513663 
" style="fill:none;stroke:#000080;stroke-linecap:square;stroke-width:1.5;"/>
   </g>
   <g id="line2d_44">
    <defs>
     <path d="M 0 6 
C 1.591219 6 3.117479 5.367802 4.242641 4.242641 
C 5.367802 3.117479 6 1.591219 6 0 
C 6 -1.591219 5.367802 -3.117479 4.242641 -4.242641 
C 3.117479 -5.367802 1.591219 -6 0 -6 
C -1.591219 -6 -3.117479 -5.367802 -4.242641 -4.242641 
C -5.367802 -3.117479 -6 -1.591219 -6 0 
C -6 1.591219 -5.367802 3.117479 -4.242641 4.242641 
C -3.117479 5.367802 -1.591219 6 0 6 
z
" id="m5a7869ec7f" style="stroke:#000080;stroke-width:1.5;"/>
    </defs>
    <g>
     <use style="fill-opacity:0;stroke:#000080;stroke-width:1.5;" x="205.219628" xlink:href="#m5a7869ec7f" y="256.609917"/>
     <use style="fill-opacity:0;stroke:#000080;stroke-width:1.5;" x="257.240576" xlink:href="#m5a7869ec7f" y="181.118245"/>
     <use style="fill-opacity:0;stroke:#000080;stroke-width:1.5;" x="283.194837" xlink:href="#m5a7869ec7f" y="28.037911"/>
     <use style="fill-opacity:0;stroke:#000080;stroke-width:1.5;" x="283.194837" xlink:href="#m5a7869ec7f" y="27.513663"/>
     <use style="fill-opacity:0;stroke:#000080;stroke-width:1.5;" x="333.168" xlink:href="#m5a7869ec7f" y="27.513663"/>
    </g>
   </g>
   <g id="line2d_45">
    <path style="fill:none;stroke:#000080;stroke-linecap:square;stroke-width:1.5;"/>
    <g/>
   </g>
   <g id="line2d_46">
    <defs>
     <path d="M 0 1.5 
C 0.397805 1.5 0.77937 1.341951 1.06066 1.06066 
C 1.341951 0.77937 1.5 0.397805 1.5 0 
C 1.5 -0.397805 1.341951 -0.77937 1.06066 -1.06066 
C 0.77937 -1.341951 0.397805 -1.5 0 -1.5 
C -0.397805 -1.5 -0.77937 -1.341951 -1.06066 -1.06066 
C -1.341951 -0.77937 -1.5 -0.397805 -1.5 0 
C -1.5 0.397805 -1.341951 0.77937 -1.06066 1.06066 
C -0.77937 1.341951 -0.397805 1.5 0 1.5 
z
" id="m10d77a149b" style="stroke:#ff00ff;"/>
    </defs>
    <g>
     <use style="fill:#ff00ff;stroke:#ff00ff;" x="276.673225" xlink:href="#m10d77a149b" y="27.513663"/>
     <use style="fill:#ff00ff;stroke:#ff00ff;" x="276.673225" xlink:href="#m10d77a149b" y="27.513663"/>
    </g>
   </g>
   <g id="line2d_47">
    <path d="M 111.100812 294.88 
L 111.100812 294.355752 
L 111.922736 294.355752 
L 111.922736 293.831505 
L 113.700266 293.831505 
L 113.700266 293.307257 
L 113.820466 293.307257 
L 113.820466 292.783009 
L 115.034286 292.783009 
L 115.034286 292.258761 
L 115.475044 292.258761 
L 115.475044 291.734514 
L 116.063204 291.734514 
L 116.168013 290.686018 
L 116.73331 290.686018 
L 116.73331 290.161771 
L 118.825114 290.161771 
L 118.825114 289.637523 
L 118.958878 289.637523 
L 118.958878 289.113275 
L 120.200938 289.113275 
L 120.200938 288.589027 
L 123.224258 288.589027 
L 123.224258 288.06478 
L 126.667211 288.06478 
L 126.667211 287.540532 
L 127.307509 287.540532 
L 127.307509 287.016284 
L 127.7659 287.016284 
L 127.7659 286.492036 
L 128.029939 286.492036 
L 128.029939 285.967789 
L 128.571561 285.967789 
L 128.571561 285.443541 
L 130.739365 285.443541 
L 130.739365 284.919293 
L 131.289977 284.919293 
L 131.289977 284.395046 
L 136.261911 284.395046 
L 136.261911 283.870798 
L 148.93811 283.870798 
L 148.93811 283.34655 
L 149.253506 283.34655 
L 149.253506 282.822302 
L 150.353304 282.822302 
L 150.353304 282.298055 
L 154.922285 282.298055 
L 155.004305 281.249559 
L 155.995263 281.249559 
L 155.995263 280.725312 
L 156.422458 280.725312 
L 156.422458 280.201064 
L 157.709184 280.201064 
L 157.709184 279.676816 
L 157.899218 279.676816 
L 157.899218 278.628321 
L 158.059796 278.628321 
L 158.059796 278.104073 
L 159.186526 278.104073 
L 159.186526 277.579825 
L 159.869886 277.579825 
L 159.869886 277.055578 
L 160.219773 277.055578 
L 160.219773 276.53133 
L 160.879512 276.53133 
L 160.879512 276.007082 
L 161.439998 276.007082 
L 161.439998 275.482834 
L 163.243872 275.482834 
L 163.243872 274.958587 
L 163.693906 274.958587 
L 163.693906 274.434339 
L 165.441288 274.434339 
L 165.441288 273.910091 
L 165.692092 273.910091 
L 165.692092 273.385844 
L 167.008328 273.385844 
L 167.008328 272.861596 
L 168.486742 272.861596 
L 168.568705 271.8131 
L 170.984913 271.8131 
L 170.984913 271.288853 
L 171.468893 271.288853 
L 171.475171 270.240357 
L 171.581551 270.240357 
L 171.581551 269.716109 
L 172.38986 269.716109 
L 172.38986 269.191862 
L 173.984048 269.191862 
L 173.984048 268.667614 
L 174.866885 268.667614 
L 174.866885 268.143366 
L 175.215447 268.143366 
L 175.215447 267.619119 
L 176.027452 267.619119 
L 176.133091 266.570623 
L 176.784396 266.570623 
L 176.784396 266.046375 
L 177.105546 266.046375 
L 177.105546 265.522128 
L 177.682335 265.522128 
L 177.778304 264.473632 
L 179.746351 264.473632 
L 179.746351 263.949385 
L 181.073563 263.949385 
L 181.073563 263.425137 
L 182.287764 263.425137 
L 182.287764 262.900889 
L 183.332836 262.900889 
L 183.332836 262.376641 
L 183.57464 262.376641 
L 183.57464 261.852394 
L 185.227186 261.852394 
L 185.227186 261.328146 
L 185.551264 261.328146 
L 185.551264 260.803898 
L 192.244767 260.803898 
L 192.244767 260.279651 
L 194.781631 260.279651 
L 194.781631 259.755403 
L 195.19821 259.755403 
L 195.19821 259.231155 
L 195.743664 259.231155 
L 195.743664 258.706907 
L 195.933808 258.706907 
L 195.933808 258.18266 
L 197.587776 258.18266 
L 197.587776 257.658412 
L 200.304023 257.658412 
L 200.381666 256.609917 
L 200.665055 256.609917 
L 200.665055 256.085669 
L 201.013407 256.085669 
L 201.013407 255.561421 
L 202.289446 255.561421 
L 202.289446 255.037173 
L 203.922724 255.037173 
L 203.922724 254.512926 
L 210.744801 254.512926 
L 210.744801 253.988678 
L 213.819514 253.988678 
L 213.819514 253.46443 
L 214.576583 253.46443 
L 214.576583 252.940182 
L 214.699215 252.940182 
L 214.699215 252.415935 
L 214.830723 252.415935 
L 214.830723 251.891687 
L 217.031483 251.891687 
L 217.031483 251.367439 
L 217.296017 251.367439 
L 217.350934 250.318944 
L 222.717535 250.318944 
L 222.811856 249.270448 
L 222.862139 249.270448 
L 222.862139 248.746201 
L 223.003032 248.746201 
L 223.003032 248.221953 
L 225.274787 248.221953 
L 225.274787 247.697705 
L 226.05591 247.697705 
L 226.05591 247.173458 
L 228.545452 247.173458 
L 228.642132 246.124962 
L 228.678267 246.124962 
L 228.781816 241.406733 
L 228.816169 241.406733 
L 228.920003 234.591512 
L 228.937975 234.591512 
L 228.937975 234.067265 
L 233.969932 234.067265 
L 233.969932 233.543017 
L 234.086857 233.543017 
L 234.086857 233.018769 
L 234.314293 233.018769 
L 234.314293 232.494521 
L 235.037136 232.494521 
L 235.137874 231.446026 
L 235.265107 231.446026 
L 235.265107 230.921778 
L 236.907325 230.921778 
L 236.907325 230.397531 
L 237.451124 230.397531 
L 237.552225 225.679301 
L 237.562433 225.679301 
L 237.66711 216.242842 
L 240.028369 216.242842 
L 240.028369 215.718594 
L 242.361727 215.718594 
L 242.472203 202.612401 
L 243.683597 202.612401 
L 243.734554 201.563906 
L 244.301813 201.563906 
L 244.405462 189.506209 
L 251.598905 189.506209 
L 251.6661 187.409218 
L 251.858839 187.409218 
L 251.858839 186.88497 
L 253.598907 186.88497 
L 253.647062 171.681786 
L 253.898196 171.681786 
L 253.961957 155.954354 
L 259.256698 155.954354 
L 259.308369 142.323914 
L 262.14109 142.323914 
L 262.251796 118.208519 
L 262.253307 118.208519 
L 262.260776 113.490289 
L 262.714416 113.490289 
L 262.74831 100.384096 
L 263.579721 100.384096 
L 263.612936 85.70516 
L 266.043567 85.70516 
L 266.078374 73.123215 
L 271.761804 73.123215 
L 271.784335 58.968526 
L 274.651071 58.968526 
L 274.672696 43.241095 
L 276.65754 43.241095 
L 276.673225 27.513663 
L 333.168 27.513663 
L 333.168 27.513663 
" style="fill:none;stroke:#ff00ff;stroke-linecap:square;stroke-width:1.5;"/>
   </g>
   <g id="line2d_48">
    <defs>
     <path d="M -0 8.485281 
L 5.091169 0 
L 0 -8.485281 
L -5.091169 -0 
z
" id="m4acbc7dc89" style="stroke:#ff00ff;stroke-linejoin:miter;stroke-width:1.5;"/>
    </defs>
    <g>
     <use style="fill-opacity:0;stroke:#ff00ff;stroke-linejoin:miter;stroke-width:1.5;" x="177.778304" xlink:href="#m4acbc7dc89" y="264.473632"/>
     <use style="fill-opacity:0;stroke:#ff00ff;stroke-linejoin:miter;stroke-width:1.5;" x="242.427713" xlink:href="#m4acbc7dc89" y="208.903374"/>
     <use style="fill-opacity:0;stroke:#ff00ff;stroke-linejoin:miter;stroke-width:1.5;" x="274.671074" xlink:href="#m4acbc7dc89" y="46.386581"/>
     <use style="fill-opacity:0;stroke:#ff00ff;stroke-linejoin:miter;stroke-width:1.5;" x="276.673225" xlink:href="#m4acbc7dc89" y="27.513663"/>
     <use style="fill-opacity:0;stroke:#ff00ff;stroke-linejoin:miter;stroke-width:1.5;" x="333.168" xlink:href="#m4acbc7dc89" y="27.513663"/>
    </g>
   </g>
   <g id="line2d_49">
    <path style="fill:none;stroke:#ff00ff;stroke-linecap:square;stroke-width:1.5;"/>
    <g/>
   </g>
   <g id="line2d_50">
    <defs>
     <path d="M 0 1.5 
C 0.397805 1.5 0.77937 1.341951 1.06066 1.06066 
C 1.341951 0.77937 1.5 0.397805 1.5 0 
C 1.5 -0.397805 1.341951 -0.77937 1.06066 -1.06066 
C 0.77937 -1.341951 0.397805 -1.5 0 -1.5 
C -0.397805 -1.5 -0.77937 -1.341951 -1.06066 -1.06066 
C -1.341951 -0.77937 -1.5 -0.397805 -1.5 0 
C -1.5 0.397805 -1.341951 0.77937 -1.06066 1.06066 
C -0.77937 1.341951 -0.397805 1.5 0 1.5 
z
" id="m694e2d4f23" style="stroke:#ff7500;"/>
    </defs>
    <g>
     <use style="fill:#ff7500;stroke:#ff7500;" x="326.571671" xlink:href="#m694e2d4f23" y="195.272933"/>
     <use style="fill:#ff7500;stroke:#ff7500;" x="326.571671" xlink:href="#m694e2d4f23" y="195.272933"/>
    </g>
   </g>
   <g id="line2d_51">
    <path d="M 109.17248 294.88 
L 109.17248 294.355752 
L 110.237603 294.355752 
L 110.237603 293.831505 
L 113.820466 293.831505 
L 113.820466 293.307257 
L 114.581927 293.307257 
L 114.639127 292.258761 
L 115.529352 292.258761 
L 115.529352 291.734514 
L 118.279397 291.734514 
L 118.279397 291.210266 
L 119.354037 291.210266 
L 119.354037 290.686018 
L 122.262156 290.686018 
L 122.262156 290.161771 
L 123.224258 290.161771 
L 123.224258 289.637523 
L 126.061 289.637523 
L 126.061 289.113275 
L 126.553378 289.113275 
L 126.553378 288.589027 
L 127.92481 288.589027 
L 127.92481 288.06478 
L 130.559378 288.06478 
L 130.559378 287.540532 
L 136.213149 287.540532 
L 136.213149 287.016284 
L 136.615334 287.016284 
L 136.615334 286.492036 
L 137.453213 286.492036 
L 137.453213 285.967789 
L 137.633989 285.967789 
L 137.633989 285.443541 
L 140.998571 285.443541 
L 140.998571 284.919293 
L 141.710592 284.919293 
L 141.710592 284.395046 
L 141.84014 284.395046 
L 141.84014 283.870798 
L 144.142694 283.870798 
L 144.142694 283.34655 
L 152.137832 283.34655 
L 152.137832 282.822302 
L 153.929489 282.822302 
L 153.929489 282.298055 
L 154.690524 282.298055 
L 154.690524 281.773807 
L 155.767184 281.773807 
L 155.767184 281.249559 
L 156.666839 281.249559 
L 156.666839 280.725312 
L 157.727817 280.725312 
L 157.727817 280.201064 
L 160.057921 280.201064 
L 160.134991 279.152568 
L 160.34017 279.152568 
L 160.34017 278.628321 
L 160.7003 278.628321 
L 160.7003 278.104073 
L 161.243814 278.104073 
L 161.243814 277.579825 
L 161.711688 277.579825 
L 161.711688 277.055578 
L 162.940606 277.055578 
L 162.940606 276.53133 
L 163.958377 276.53133 
L 163.958377 276.007082 
L 164.581982 276.007082 
L 164.581982 275.482834 
L 164.894709 275.482834 
L 164.894709 274.958587 
L 165.295027 274.958587 
L 165.295027 274.434339 
L 165.817589 274.434339 
L 165.817589 273.910091 
L 166.626983 273.910091 
L 166.626983 273.385844 
L 166.781638 273.385844 
L 166.781638 272.861596 
L 167.452933 272.861596 
L 167.452933 272.337348 
L 168.496698 272.337348 
L 168.496698 271.8131 
L 168.812275 271.8131 
L 168.812275 271.288853 
L 169.541679 271.288853 
L 169.541679 270.764605 
L 170.225643 270.764605 
L 170.225643 270.240357 
L 171.11574 270.240357 
L 171.11574 269.716109 
L 171.616865 269.716109 
L 171.616865 269.191862 
L 172.733585 269.191862 
L 172.733585 268.667614 
L 173.826012 268.667614 
L 173.826012 268.143366 
L 175.093829 268.143366 
L 175.093829 267.619119 
L 175.218813 267.619119 
L 175.218813 267.094871 
L 175.505853 267.094871 
L 175.505853 266.570623 
L 177.475497 266.570623 
L 177.475497 266.046375 
L 178.326286 266.046375 
L 178.326286 265.522128 
L 179.445005 265.522128 
L 179.445005 264.99788 
L 179.788972 264.99788 
L 179.788972 264.473632 
L 183.084387 264.473632 
L 183.084387 263.949385 
L 185.514323 263.949385 
L 185.514323 263.425137 
L 185.930816 263.425137 
L 185.930816 262.900889 
L 187.007233 262.900889 
L 187.007233 262.376641 
L 187.280521 262.376641 
L 187.280521 261.852394 
L 190.149706 261.852394 
L 190.149706 261.328146 
L 197.815263 261.328146 
L 197.815263 260.803898 
L 198.392574 260.803898 
L 198.392574 260.279651 
L 209.962726 260.279651 
L 209.962726 259.755403 
L 211.727406 259.755403 
L 211.727406 259.231155 
L 212.946785 259.231155 
L 212.946785 258.706907 
L 213.078404 258.706907 
L 213.078404 258.18266 
L 214.878524 258.18266 
L 214.914497 257.134164 
L 215.808756 257.134164 
L 215.808756 256.609917 
L 216.278283 256.609917 
L 216.278283 256.085669 
L 217.476811 256.085669 
L 217.476811 255.561421 
L 217.616347 255.561421 
L 217.616347 255.037173 
L 218.04334 255.037173 
L 218.04334 254.512926 
L 218.165509 254.512926 
L 218.20972 253.46443 
L 218.864904 253.46443 
L 218.864904 252.940182 
L 219.204471 252.940182 
L 219.204471 252.415935 
L 221.761777 252.415935 
L 221.761777 251.891687 
L 222.210803 251.891687 
L 222.210803 251.367439 
L 222.363184 251.367439 
L 222.363184 250.843192 
L 222.983707 250.843192 
L 222.983707 250.318944 
L 223.879718 250.318944 
L 223.879718 249.794696 
L 224.859161 249.794696 
L 224.859161 249.270448 
L 228.317521 249.270448 
L 228.317521 248.746201 
L 228.798666 248.746201 
L 228.798666 248.221953 
L 228.996714 248.221953 
L 228.996714 247.697705 
L 229.909457 247.697705 
L 229.909457 247.173458 
L 230.789113 247.173458 
L 230.789113 246.64921 
L 242.633666 246.64921 
L 242.633666 246.124962 
L 246.13163 246.124962 
L 246.13163 245.600714 
L 246.962788 245.600714 
L 246.962788 245.076467 
L 248.268919 245.076467 
L 248.268919 244.552219 
L 248.803294 244.552219 
L 248.803294 244.027971 
L 251.411593 244.027971 
L 251.411593 243.503724 
L 255.779386 243.503724 
L 255.779386 242.979476 
L 255.949753 242.979476 
L 256.029417 239.309742 
L 256.073381 239.309742 
L 256.092275 238.261246 
L 256.600191 238.261246 
L 256.600191 237.736999 
L 261.161515 237.736999 
L 261.161515 237.212751 
L 262.455282 237.212751 
L 262.455282 236.688503 
L 266.85682 236.688503 
L 266.85682 235.640008 
L 266.997572 235.640008 
L 267.003385 233.543017 
L 270.647419 233.543017 
L 270.647419 232.494521 
L 273.5214 232.494521 
L 273.620995 230.397531 
L 276.192168 230.397531 
L 276.192168 229.873283 
L 278.36707 229.873283 
L 278.387228 227.776292 
L 282.097386 227.776292 
L 282.114686 225.679301 
L 285.15067 225.679301 
L 285.176115 221.485319 
L 286.536805 221.485319 
L 286.536805 220.961072 
L 287.761387 220.961072 
L 287.761387 220.436824 
L 290.008768 220.436824 
L 290.030009 218.339833 
L 291.990034 218.339833 
L 292.024108 217.291338 
L 293.793683 217.291338 
L 293.810729 216.242842 
L 295.419674 216.242842 
L 295.419674 215.718594 
L 296.893714 215.718594 
L 296.893714 214.670099 
L 298.245974 214.670099 
L 298.267093 213.621604 
L 299.531368 213.621604 
L 299.531368 212.573108 
L 300.68621 212.573108 
L 300.68621 212.04886 
L 301.801741 212.04886 
L 301.801741 211.524613 
L 302.838873 211.524613 
L 302.84084 210.476117 
L 303.810371 210.476117 
L 303.810371 209.95187 
L 304.73722 209.95187 
L 304.73722 209.427622 
L 305.606253 209.427622 
L 305.610695 207.854879 
L 306.447615 207.854879 
L 306.447615 207.330631 
L 307.23523 207.330631 
L 307.23523 206.806383 
L 307.998235 206.806383 
L 308.002189 204.709392 
L 308.72681 204.709392 
L 308.730258 203.136649 
L 311.964123 203.136649 
L 311.967168 202.088154 
L 312.546225 202.088154 
L 312.546225 201.563906 
L 313.107491 201.563906 
L 313.107491 201.039658 
L 313.646685 201.039658 
L 313.649297 199.991163 
L 314.689051 199.991163 
L 314.690038 198.942667 
L 316.594668 198.942667 
L 316.594668 198.41842 
L 317.037713 198.41842 
L 317.037713 197.894172 
L 318.30944 197.894172 
L 318.30944 197.369924 
L 319.490263 197.369924 
L 319.490263 196.845677 
L 322.932397 196.845677 
L 322.932397 196.321429 
L 324.423165 196.321429 
L 324.423165 195.797181 
L 326.571671 195.797181 
L 326.571671 195.272933 
L 333.168 195.272933 
L 333.168 195.272933 
" style="fill:none;stroke:#ff7500;stroke-linecap:square;stroke-width:1.5;"/>
   </g>
   <g id="line2d_52">
    <defs>
     <path d="M 0 -6 
L -1.347084 -1.854102 
L -5.706339 -1.854102 
L -2.179628 0.708204 
L -3.526712 4.854102 
L -0 2.291796 
L 3.526712 4.854102 
L 2.179628 0.708204 
L 5.706339 -1.854102 
L 1.347084 -1.854102 
z
" id="m389ba9a070" style="stroke:#ff7500;stroke-linejoin:bevel;stroke-width:1.5;"/>
    </defs>
    <g>
     <use style="fill-opacity:0;stroke:#ff7500;stroke-linejoin:bevel;stroke-width:1.5;" x="198.392574" xlink:href="#m389ba9a070" y="260.279651"/>
     <use style="fill-opacity:0;stroke:#ff7500;stroke-linejoin:bevel;stroke-width:1.5;" x="273.620995" xlink:href="#m389ba9a070" y="230.397531"/>
     <use style="fill-opacity:0;stroke:#ff7500;stroke-linejoin:bevel;stroke-width:1.5;" x="326.571671" xlink:href="#m389ba9a070" y="195.272933"/>
     <use style="fill-opacity:0;stroke:#ff7500;stroke-linejoin:bevel;stroke-width:1.5;" x="326.571671" xlink:href="#m389ba9a070" y="195.272933"/>
     <use style="fill-opacity:0;stroke:#ff7500;stroke-linejoin:bevel;stroke-width:1.5;" x="333.168" xlink:href="#m389ba9a070" y="195.272933"/>
    </g>
   </g>
   <g id="line2d_53">
    <path style="fill:none;stroke:#ff7500;stroke-linecap:square;stroke-width:1.5;"/>
    <g/>
   </g>
   <g id="line2d_54">
    <path clip-path="url(#p06acadbdbe)" d="M 254.011429 243.503724 
" style="fill:none;stroke:#ff7500;stroke-linecap:square;stroke-width:1.5;"/>
    <defs>
     <path d="M -12 12 
L 12 -12 
M -12 -12 
L 12 12 
" id="m396e12361d" style="stroke:#ff7500;"/>
    </defs>
    <g clip-path="url(#p06acadbdbe)">
     <use style="fill:#ff7500;stroke:#ff7500;" x="254.011429" xlink:href="#m396e12361d" y="243.503724"/>
    </g>
   </g>
   <g id="line2d_55">
    <defs>
     <path d="M 0 1.5 
C 0.397805 1.5 0.77937 1.341951 1.06066 1.06066 
C 1.341951 0.77937 1.5 0.397805 1.5 0 
C 1.5 -0.397805 1.341951 -0.77937 1.06066 -1.06066 
C 0.77937 -1.341951 0.397805 -1.5 0 -1.5 
C -0.397805 -1.5 -0.77937 -1.341951 -1.06066 -1.06066 
C -1.341951 -0.77937 -1.5 -0.397805 -1.5 0 
C -1.5 0.397805 -1.341951 0.77937 -1.06066 1.06066 
C -0.77937 1.341951 -0.397805 1.5 0 1.5 
z
" id="m7ae2cd64a1" style="stroke:#6495ed;"/>
    </defs>
    <g>
     <use style="fill:#6495ed;stroke:#6495ed;" x="221.203371" xlink:href="#m7ae2cd64a1" y="27.513663"/>
     <use style="fill:#6495ed;stroke:#6495ed;" x="221.203371" xlink:href="#m7ae2cd64a1" y="27.513663"/>
    </g>
   </g>
   <g id="line2d_56">
    <path d="M 89.320209 294.88 
L 89.320209 294.355752 
L 98.832144 294.355752 
L 98.832144 293.831505 
L 103.669239 293.831505 
L 103.669239 293.307257 
L 103.884099 293.307257 
L 103.884099 292.783009 
L 105.415256 292.783009 
L 105.415256 292.258761 
L 106.64017 292.258761 
L 106.64017 291.734514 
L 107.26528 291.734514 
L 107.352754 290.686018 
L 109.406343 290.686018 
L 109.406343 290.161771 
L 111.170827 290.161771 
L 111.170827 289.637523 
L 111.310007 289.637523 
L 111.310007 289.113275 
L 112.319414 289.113275 
L 112.319414 288.589027 
L 113.023703 288.589027 
L 113.023703 288.06478 
L 117.231566 288.06478 
L 117.231566 287.540532 
L 121.778985 287.540532 
L 121.778985 287.016284 
L 122.660646 287.016284 
L 122.660646 286.492036 
L 123.119979 286.492036 
L 123.154809 285.443541 
L 123.499282 285.443541 
L 123.499282 284.919293 
L 123.803514 284.919293 
L 123.803514 284.395046 
L 126.031592 284.395046 
L 126.031592 283.870798 
L 127.605507 283.870798 
L 127.605507 282.822302 
L 130.604552 282.822302 
L 130.604552 282.298055 
L 132.11519 282.298055 
L 132.11519 281.773807 
L 133.389004 281.773807 
L 133.389004 281.249559 
L 133.712073 281.249559 
L 133.712073 280.725312 
L 134.194722 280.725312 
L 134.194722 280.201064 
L 135.016789 280.201064 
L 135.016789 279.676816 
L 135.498584 279.676816 
L 135.583215 278.628321 
L 135.834638 278.628321 
L 135.934186 277.579825 
L 135.950722 277.579825 
L 135.950722 277.055578 
L 136.310535 277.055578 
L 136.391271 276.007082 
L 136.535647 276.007082 
L 136.535647 275.482834 
L 136.836515 275.482834 
L 136.836515 274.958587 
L 137.648969 274.958587 
L 137.648969 274.434339 
L 138.439053 274.434339 
L 138.439053 273.910091 
L 139.262702 273.910091 
L 139.262702 273.385844 
L 139.411992 273.385844 
L 139.411992 272.861596 
L 140.178407 272.861596 
L 140.178407 272.337348 
L 140.662626 272.337348 
L 140.662626 271.8131 
L 141.133577 271.8131 
L 141.133577 271.288853 
L 142.142519 271.288853 
L 142.142519 270.764605 
L 142.462317 270.764605 
L 142.462317 270.240357 
L 143.408921 270.240357 
L 143.408921 269.716109 
L 144.678145 269.716109 
L 144.678145 269.191862 
L 145.804252 269.191862 
L 145.804252 268.667614 
L 146.533852 268.667614 
L 146.542779 267.619119 
L 160.074175 267.619119 
L 160.074175 267.094871 
L 160.376126 267.094871 
L 160.376126 266.570623 
L 160.680707 266.570623 
L 160.747231 264.99788 
L 161.626549 264.99788 
L 161.626549 264.473632 
L 162.105923 264.473632 
L 162.105923 263.949385 
L 164.190094 263.949385 
L 164.190094 263.425137 
L 164.799327 263.425137 
L 164.799327 262.900889 
L 165.159599 262.900889 
L 165.159599 262.376641 
L 165.298024 262.376641 
L 165.298024 261.852394 
L 165.595155 261.852394 
L 165.595155 261.328146 
L 165.942177 261.328146 
L 165.942177 260.803898 
L 167.824339 260.803898 
L 167.824339 260.279651 
L 175.003751 260.279651 
L 175.003751 259.755403 
L 185.384401 259.755403 
L 185.384401 259.231155 
L 185.561409 259.231155 
L 185.561409 258.706907 
L 185.761236 258.706907 
L 185.871155 257.134164 
L 185.997463 257.134164 
L 185.997463 256.609917 
L 187.190186 256.609917 
L 187.190186 256.085669 
L 187.97138 256.085669 
L 187.97138 255.561421 
L 188.274023 255.561421 
L 188.274023 255.037173 
L 192.88516 255.037173 
L 192.974043 253.988678 
L 196.089921 253.988678 
L 196.089921 253.46443 
L 196.951908 253.46443 
L 196.951908 252.940182 
L 197.082581 252.940182 
L 197.151776 251.367439 
L 197.248275 251.367439 
L 197.333084 249.270448 
L 197.531809 249.270448 
L 197.552474 248.221953 
L 197.665916 248.221953 
L 197.750055 246.124962 
L 197.804412 246.124962 
L 197.836492 245.076467 
L 197.921599 245.076467 
L 197.921599 244.552219 
L 198.039332 244.552219 
L 198.094117 242.455228 
L 198.238923 242.455228 
L 198.347061 241.406733 
L 198.354071 241.406733 
L 198.354071 240.882485 
L 198.508872 240.882485 
L 198.508872 240.358237 
L 198.660139 240.358237 
L 198.660139 239.83399 
L 198.773791 239.83399 
L 198.869702 237.736999 
L 198.910885 237.736999 
L 199.000975 236.688503 
L 199.104437 236.688503 
L 199.189349 235.640008 
L 199.226444 235.640008 
L 199.331045 232.494521 
L 199.612611 232.494521 
L 199.723391 231.446026 
L 199.754105 231.446026 
L 199.754105 230.921778 
L 199.87521 230.921778 
L 199.87521 230.397531 
L 200.083627 230.397531 
L 200.083627 229.873283 
L 203.615862 229.873283 
L 203.615862 229.349035 
L 203.822 229.349035 
L 203.918605 227.776292 
L 204.144638 227.776292 
L 204.236652 225.679301 
L 204.28294 225.679301 
L 204.389025 224.106558 
L 204.424139 224.106558 
L 204.500893 221.485319 
L 204.574561 221.485319 
L 204.654899 219.912576 
L 204.777118 219.912576 
L 204.800916 218.864081 
L 204.907452 218.864081 
L 205.013926 217.815585 
L 205.039477 217.815585 
L 205.132151 216.242842 
L 207.518154 216.242842 
L 207.518154 215.718594 
L 208.37663 215.718594 
L 208.460774 214.670099 
L 208.560723 214.670099 
L 208.634582 212.573108 
L 208.681244 212.573108 
L 208.735922 211.000365 
L 208.822142 211.000365 
L 208.894888 209.95187 
L 208.934697 209.95187 
L 208.986217 208.903374 
L 209.170232 208.903374 
L 209.247335 206.282136 
L 209.34375 206.282136 
L 209.448358 203.136649 
L 209.455248 203.136649 
L 209.563518 199.466915 
L 209.569449 199.466915 
L 209.679724 193.70019 
L 209.692638 193.70019 
L 209.788396 187.409218 
L 209.847974 187.409218 
L 209.937738 182.690988 
L 209.962503 182.690988 
L 210.057881 176.400016 
L 210.090885 176.400016 
L 210.196115 171.681786 
L 210.215239 171.681786 
L 210.323644 166.439309 
L 210.340009 166.439309 
L 210.449799 161.721079 
L 210.506701 161.721079 
L 210.610283 158.051345 
L 210.626378 158.051345 
L 210.70257 155.954354 
L 210.744588 155.954354 
L 210.834675 151.760373 
L 210.869817 151.760373 
L 210.952519 149.663382 
L 210.990151 149.663382 
L 211.094 145.4694 
L 211.105269 145.4694 
L 211.1307 144.420905 
L 211.219206 144.420905 
L 211.297566 142.323914 
L 211.38214 142.323914 
L 211.449747 141.275418 
L 214.404242 141.275418 
L 214.50467 139.702675 
L 214.525883 139.702675 
L 214.56857 137.605684 
L 214.679741 137.605684 
L 214.775376 136.032941 
L 214.843315 136.032941 
L 214.890412 134.460198 
L 214.98605 134.460198 
L 215.087945 132.363207 
L 215.178709 132.363207 
L 215.228507 130.266216 
L 215.302037 130.266216 
L 215.375254 128.693473 
L 215.444918 128.693473 
L 215.525274 127.644978 
L 215.591282 127.644978 
L 215.591282 127.12073 
L 215.765703 127.12073 
L 215.860878 124.499491 
L 215.927188 124.499491 
L 215.968738 123.450996 
L 216.056387 123.450996 
L 216.081861 122.4025 
L 216.175305 122.4025 
L 216.277357 120.30551 
L 216.309442 120.30551 
L 216.351001 118.208519 
L 216.450489 118.208519 
L 216.489118 116.635776 
L 216.590389 116.635776 
L 216.690164 114.014537 
L 216.702369 114.014537 
L 216.805091 111.393298 
L 216.813623 111.393298 
L 216.921188 107.723564 
L 216.924906 107.723564 
L 216.989909 106.150821 
L 217.036655 106.150821 
L 217.111242 104.05383 
L 217.197806 104.05383 
L 217.304019 103.005335 
L 217.34339 103.005335 
L 217.39613 101.956839 
L 217.502279 101.956839 
L 217.591906 100.384096 
L 217.635618 100.384096 
L 217.650307 98.811353 
L 217.759152 98.811353 
L 217.808798 97.23861 
L 217.897548 97.23861 
L 217.897548 96.714362 
L 218.024242 96.714362 
L 218.095229 94.617371 
L 218.155961 94.617371 
L 218.238672 93.044628 
L 218.294095 93.044628 
L 218.355225 91.471885 
L 218.438755 91.471885 
L 218.531092 87.802151 
L 218.558967 87.802151 
L 218.63963 85.70516 
L 218.675255 85.70516 
L 218.78209 82.035426 
L 218.856932 82.035426 
L 218.956703 79.938435 
L 218.978356 79.938435 
L 219.077951 75.220206 
L 219.118047 75.220206 
L 219.173189 73.123215 
L 219.24817 73.123215 
L 219.343248 69.453481 
L 219.363 69.453481 
L 219.458729 65.783747 
L 219.495131 65.783747 
L 219.563879 63.686756 
L 219.628541 63.686756 
L 219.734933 60.017022 
L 219.749447 60.017022 
L 219.853089 55.82304 
L 219.883159 55.82304 
L 219.986871 52.153306 
L 220.00627 52.153306 
L 220.109368 48.483572 
L 220.135786 48.483572 
L 220.226827 46.910829 
L 220.260048 46.910829 
L 220.367482 43.765343 
L 220.396909 43.765343 
L 220.499629 41.668352 
L 220.541245 41.668352 
L 220.648976 37.998618 
L 220.671709 37.998618 
L 220.747825 35.377379 
L 220.798698 35.377379 
L 220.875555 32.231893 
L 220.971585 32.231893 
L 221.064394 29.610654 
L 221.123195 29.610654 
L 221.203371 27.513663 
L 333.168 27.513663 
L 333.168 27.513663 
" style="fill:none;stroke:#6495ed;stroke-linecap:square;stroke-width:1.5;"/>
   </g>
   <g id="line2d_57">
    <defs>
     <path d="M -0 6 
L 6 -6 
L -6 -6 
z
" id="mc8bf8b8d86" style="stroke:#6495ed;stroke-linejoin:miter;stroke-width:1.5;"/>
    </defs>
    <g>
     <use style="fill-opacity:0;stroke:#6495ed;stroke-linejoin:miter;stroke-width:1.5;" x="127.605507" xlink:href="#mc8bf8b8d86" y="282.822302"/>
     <use style="fill-opacity:0;stroke:#6495ed;stroke-linejoin:miter;stroke-width:1.5;" x="209.977434" xlink:href="#mc8bf8b8d86" y="181.642493"/>
     <use style="fill-opacity:0;stroke:#6495ed;stroke-linejoin:miter;stroke-width:1.5;" x="221.203371" xlink:href="#mc8bf8b8d86" y="28.037911"/>
     <use style="fill-opacity:0;stroke:#6495ed;stroke-linejoin:miter;stroke-width:1.5;" x="221.203371" xlink:href="#mc8bf8b8d86" y="27.513663"/>
     <use style="fill-opacity:0;stroke:#6495ed;stroke-linejoin:miter;stroke-width:1.5;" x="333.168" xlink:href="#mc8bf8b8d86" y="27.513663"/>
    </g>
   </g>
   <g id="line2d_58">
    <path style="fill:none;stroke:#6495ed;stroke-linecap:square;stroke-width:1.5;"/>
    <g/>
   </g>
   <g id="line2d_59">
    <path d="M 333.168 195.272933 
L 363.64328 289.532673 
" style="fill:none;stroke:#ff7500;stroke-linecap:square;stroke-width:1.5;"/>
    <g>
     <use style="fill-opacity:0;stroke:#ff7500;stroke-linejoin:bevel;stroke-width:1.5;" x="333.168" xlink:href="#m389ba9a070" y="195.272933"/>
     <use style="fill-opacity:0;stroke:#ff7500;stroke-linejoin:bevel;stroke-width:1.5;" x="363.64328" xlink:href="#m389ba9a070" y="289.532673"/>
    </g>
   </g>
   <g id="line2d_60">
    <path d="M 333.168 27.513663 
L 363.64328 225.364752 
" style="fill:none;stroke:#000080;stroke-linecap:square;stroke-width:1.5;"/>
    <g>
     <use style="fill-opacity:0;stroke:#000080;stroke-width:1.5;" x="333.168" xlink:href="#m5a7869ec7f" y="27.513663"/>
     <use style="fill-opacity:0;stroke:#000080;stroke-width:1.5;" x="363.64328" xlink:href="#m5a7869ec7f" y="225.364752"/>
    </g>
   </g>
   <g id="line2d_61">
    <path d="M 333.168 27.513663 
L 363.64328 161.196832 
" style="fill:none;stroke:#ff00ff;stroke-linecap:square;stroke-width:1.5;"/>
    <g>
     <use style="fill-opacity:0;stroke:#ff00ff;stroke-linejoin:miter;stroke-width:1.5;" x="333.168" xlink:href="#m4acbc7dc89" y="27.513663"/>
     <use style="fill-opacity:0;stroke:#ff00ff;stroke-linejoin:miter;stroke-width:1.5;" x="363.64328" xlink:href="#m4acbc7dc89" y="161.196832"/>
    </g>
   </g>
   <g id="line2d_62">
    <path d="M 333.168 27.513663 
L 363.64328 97.028911 
" style="fill:none;stroke:#6495ed;stroke-linecap:square;stroke-width:1.5;"/>
    <g>
     <use style="fill-opacity:0;stroke:#6495ed;stroke-linejoin:miter;stroke-width:1.5;" x="333.168" xlink:href="#mc8bf8b8d86" y="27.513663"/>
     <use style="fill-opacity:0;stroke:#6495ed;stroke-linejoin:miter;stroke-width:1.5;" x="363.64328" xlink:href="#mc8bf8b8d86" y="97.028911"/>
    </g>
   </g>
   <g id="line2d_63">
    <path d="M 333.168 294.88 
L 333.168 27.513663 
" style="fill:none;stroke:#000000;stroke-linecap:square;stroke-width:1.5;"/>
   </g>
   <g id="patch_3">
    <path d="M 56.12 294.88 
L 56.12 24.84 
" style="fill:none;stroke:#000000;stroke-linecap:square;stroke-linejoin:miter;stroke-width:0.8;"/>
   </g>
   <g id="patch_4">
    <path d="M 333.168 294.88 
L 333.168 24.84 
" style="fill:none;stroke:#000000;stroke-linecap:square;stroke-linejoin:miter;stroke-width:0.8;"/>
   </g>
   <g id="patch_5">
    <path d="M 56.12 294.88 
L 333.168 294.88 
" style="fill:none;stroke:#000000;stroke-linecap:square;stroke-linejoin:miter;stroke-width:0.8;"/>
   </g>
   <g id="patch_6">
    <path d="M 56.12 24.84 
L 333.168 24.84 
" style="fill:none;stroke:#000000;stroke-linecap:square;stroke-linejoin:miter;stroke-width:0.8;"/>
   </g>
   <g id="text_13">
    <!-- R-SHADE-Tan -->
    <defs>
     <path d="M 44.390625 34.1875 
Q 47.5625 33.109375 50.5625 29.59375 
Q 53.5625 26.078125 56.59375 19.921875 
L 66.609375 0 
L 56 0 
L 46.6875 18.703125 
Q 43.0625 26.03125 39.671875 28.421875 
Q 36.28125 30.8125 30.421875 30.8125 
L 19.671875 30.8125 
L 19.671875 0 
L 9.8125 0 
L 9.8125 72.90625 
L 32.078125 72.90625 
Q 44.578125 72.90625 50.734375 67.671875 
Q 56.890625 62.453125 56.890625 51.90625 
Q 56.890625 45.015625 53.6875 40.46875 
Q 50.484375 35.9375 44.390625 34.1875 
z
M 19.671875 64.796875 
L 19.671875 38.921875 
L 32.078125 38.921875 
Q 39.203125 38.921875 42.84375 42.21875 
Q 46.484375 45.515625 46.484375 51.90625 
Q 46.484375 58.296875 42.84375 61.546875 
Q 39.203125 64.796875 32.078125 64.796875 
z
" id="DejaVuSans-52"/>
     <path d="M 53.515625 70.515625 
L 53.515625 60.890625 
Q 47.90625 63.578125 42.921875 64.890625 
Q 37.9375 66.21875 33.296875 66.21875 
Q 25.25 66.21875 20.875 63.09375 
Q 16.5 59.96875 16.5 54.203125 
Q 16.5 49.359375 19.40625 46.890625 
Q 22.3125 44.4375 30.421875 42.921875 
L 36.375 41.703125 
Q 47.40625 39.59375 52.65625 34.296875 
Q 57.90625 29 57.90625 20.125 
Q 57.90625 9.515625 50.796875 4.046875 
Q 43.703125 -1.421875 29.984375 -1.421875 
Q 24.8125 -1.421875 18.96875 -0.25 
Q 13.140625 0.921875 6.890625 3.21875 
L 6.890625 13.375 
Q 12.890625 10.015625 18.65625 8.296875 
Q 24.421875 6.59375 29.984375 6.59375 
Q 38.421875 6.59375 43.015625 9.90625 
Q 47.609375 13.234375 47.609375 19.390625 
Q 47.609375 24.75 44.3125 27.78125 
Q 41.015625 30.8125 33.5 32.328125 
L 27.484375 33.5 
Q 16.453125 35.6875 11.515625 40.375 
Q 6.59375 45.0625 6.59375 53.421875 
Q 6.59375 63.09375 13.40625 68.65625 
Q 20.21875 74.21875 32.171875 74.21875 
Q 37.3125 74.21875 42.625 73.28125 
Q 47.953125 72.359375 53.515625 70.515625 
z
" id="DejaVuSans-53"/>
     <path d="M 9.8125 72.90625 
L 19.671875 72.90625 
L 19.671875 43.015625 
L 55.515625 43.015625 
L 55.515625 72.90625 
L 65.375 72.90625 
L 65.375 0 
L 55.515625 0 
L 55.515625 34.71875 
L 19.671875 34.71875 
L 19.671875 0 
L 9.8125 0 
z
" id="DejaVuSans-48"/>
     <path d="M 34.1875 63.1875 
L 20.796875 26.90625 
L 47.609375 26.90625 
z
M 28.609375 72.90625 
L 39.796875 72.90625 
L 67.578125 0 
L 57.328125 0 
L 50.6875 18.703125 
L 17.828125 18.703125 
L 11.1875 0 
L 0.78125 0 
z
" id="DejaVuSans-41"/>
     <path d="M 19.671875 64.796875 
L 19.671875 8.109375 
L 31.59375 8.109375 
Q 46.6875 8.109375 53.6875 14.9375 
Q 60.6875 21.78125 60.6875 36.53125 
Q 60.6875 51.171875 53.6875 57.984375 
Q 46.6875 64.796875 31.59375 64.796875 
z
M 9.8125 72.90625 
L 30.078125 72.90625 
Q 51.265625 72.90625 61.171875 64.09375 
Q 71.09375 55.28125 71.09375 36.53125 
Q 71.09375 17.671875 61.125 8.828125 
Q 51.171875 0 30.078125 0 
L 9.8125 0 
z
" id="DejaVuSans-44"/>
     <path d="M 9.8125 72.90625 
L 55.90625 72.90625 
L 55.90625 64.59375 
L 19.671875 64.59375 
L 19.671875 43.015625 
L 54.390625 43.015625 
L 54.390625 34.71875 
L 19.671875 34.71875 
L 19.671875 8.296875 
L 56.78125 8.296875 
L 56.78125 0 
L 9.8125 0 
z
" id="DejaVuSans-45"/>
     <path d="M -0.296875 72.90625 
L 61.375 72.90625 
L 61.375 64.59375 
L 35.5 64.59375 
L 35.5 0 
L 25.59375 0 
L 25.59375 64.59375 
L -0.296875 64.59375 
z
" id="DejaVuSans-54"/>
    </defs>
    <g transform="translate(369.18424 294.223611)scale(0.17 -0.17)">
     <use xlink:href="#DejaVuSans-52"/>
     <use x="69.419922" xlink:href="#DejaVuSans-2d"/>
     <use x="105.503906" xlink:href="#DejaVuSans-53"/>
     <use x="168.980469" xlink:href="#DejaVuSans-48"/>
     <use x="244.175781" xlink:href="#DejaVuSans-41"/>
     <use x="312.583984" xlink:href="#DejaVuSans-44"/>
     <use x="389.585938" xlink:href="#DejaVuSans-45"/>
     <use x="452.769531" xlink:href="#DejaVuSans-2d"/>
     <use x="488.712891" xlink:href="#DejaVuSans-54"/>
     <use x="549.546875" xlink:href="#DejaVuSans-61"/>
     <use x="610.826172" xlink:href="#DejaVuSans-6e"/>
    </g>
   </g>
   <g id="text_14">
    <!-- SHADE-LM -->
    <defs>
     <path d="M 9.8125 72.90625 
L 19.671875 72.90625 
L 19.671875 8.296875 
L 55.171875 8.296875 
L 55.171875 0 
L 9.8125 0 
z
" id="DejaVuSans-4c"/>
     <path d="M 9.8125 72.90625 
L 24.515625 72.90625 
L 43.109375 23.296875 
L 61.8125 72.90625 
L 76.515625 72.90625 
L 76.515625 0 
L 66.890625 0 
L 66.890625 64.015625 
L 48.09375 14.015625 
L 38.1875 14.015625 
L 19.390625 64.015625 
L 19.390625 0 
L 9.8125 0 
z
" id="DejaVuSans-4d"/>
    </defs>
    <g transform="translate(369.18424 230.05569)scale(0.17 -0.17)">
     <use xlink:href="#DejaVuSans-53"/>
     <use x="63.476562" xlink:href="#DejaVuSans-48"/>
     <use x="138.671875" xlink:href="#DejaVuSans-41"/>
     <use x="207.080078" xlink:href="#DejaVuSans-44"/>
     <use x="284.082031" xlink:href="#DejaVuSans-45"/>
     <use x="347.265625" xlink:href="#DejaVuSans-2d"/>
     <use x="383.349609" xlink:href="#DejaVuSans-4c"/>
     <use x="439.0625" xlink:href="#DejaVuSans-4d"/>
    </g>
   </g>
   <g id="text_15">
    <!-- SHADE-LM-PO -->
    <defs>
     <path d="M 19.671875 64.796875 
L 19.671875 37.40625 
L 32.078125 37.40625 
Q 38.96875 37.40625 42.71875 40.96875 
Q 46.484375 44.53125 46.484375 51.125 
Q 46.484375 57.671875 42.71875 61.234375 
Q 38.96875 64.796875 32.078125 64.796875 
z
M 9.8125 72.90625 
L 32.078125 72.90625 
Q 44.34375 72.90625 50.609375 67.359375 
Q 56.890625 61.8125 56.890625 51.125 
Q 56.890625 40.328125 50.609375 34.8125 
Q 44.34375 29.296875 32.078125 29.296875 
L 19.671875 29.296875 
L 19.671875 0 
L 9.8125 0 
z
" id="DejaVuSans-50"/>
     <path d="M 39.40625 66.21875 
Q 28.65625 66.21875 22.328125 58.203125 
Q 16.015625 50.203125 16.015625 36.375 
Q 16.015625 22.609375 22.328125 14.59375 
Q 28.65625 6.59375 39.40625 6.59375 
Q 50.140625 6.59375 56.421875 14.59375 
Q 62.703125 22.609375 62.703125 36.375 
Q 62.703125 50.203125 56.421875 58.203125 
Q 50.140625 66.21875 39.40625 66.21875 
z
M 39.40625 74.21875 
Q 54.734375 74.21875 63.90625 63.9375 
Q 73.09375 53.65625 73.09375 36.375 
Q 73.09375 19.140625 63.90625 8.859375 
Q 54.734375 -1.421875 39.40625 -1.421875 
Q 24.03125 -1.421875 14.8125 8.828125 
Q 5.609375 19.09375 5.609375 36.375 
Q 5.609375 53.65625 14.8125 63.9375 
Q 24.03125 74.21875 39.40625 74.21875 
z
" id="DejaVuSans-4f"/>
    </defs>
    <g transform="translate(369.18424 165.887769)scale(0.17 -0.17)">
     <use xlink:href="#DejaVuSans-53"/>
     <use x="63.476562" xlink:href="#DejaVuSans-48"/>
     <use x="138.671875" xlink:href="#DejaVuSans-41"/>
     <use x="207.080078" xlink:href="#DejaVuSans-44"/>
     <use x="284.082031" xlink:href="#DejaVuSans-45"/>
     <use x="347.265625" xlink:href="#DejaVuSans-2d"/>
     <use x="383.349609" xlink:href="#DejaVuSans-4c"/>
     <use x="439.0625" xlink:href="#DejaVuSans-4d"/>
     <use x="525.341797" xlink:href="#DejaVuSans-2d"/>
     <use x="561.425781" xlink:href="#DejaVuSans-50"/>
     <use x="621.728516" xlink:href="#DejaVuSans-4f"/>
    </g>
   </g>
   <g id="text_16">
    <!-- KL-BIPOP-CM -->
    <defs>
     <path d="M 9.8125 72.90625 
L 19.671875 72.90625 
L 19.671875 42.09375 
L 52.390625 72.90625 
L 65.09375 72.90625 
L 28.90625 38.921875 
L 67.671875 0 
L 54.6875 0 
L 19.671875 35.109375 
L 19.671875 0 
L 9.8125 0 
z
" id="DejaVuSans-4b"/>
     <path d="M 19.671875 34.8125 
L 19.671875 8.109375 
L 35.5 8.109375 
Q 43.453125 8.109375 47.28125 11.40625 
Q 51.125 14.703125 51.125 21.484375 
Q 51.125 28.328125 47.28125 31.5625 
Q 43.453125 34.8125 35.5 34.8125 
z
M 19.671875 64.796875 
L 19.671875 42.828125 
L 34.28125 42.828125 
Q 41.5 42.828125 45.03125 45.53125 
Q 48.578125 48.25 48.578125 53.8125 
Q 48.578125 59.328125 45.03125 62.0625 
Q 41.5 64.796875 34.28125 64.796875 
z
M 9.8125 72.90625 
L 35.015625 72.90625 
Q 46.296875 72.90625 52.390625 68.21875 
Q 58.5 63.53125 58.5 54.890625 
Q 58.5 48.1875 55.375 44.234375 
Q 52.25 40.28125 46.1875 39.3125 
Q 53.46875 37.75 57.5 32.78125 
Q 61.53125 27.828125 61.53125 20.40625 
Q 61.53125 10.640625 54.890625 5.3125 
Q 48.25 0 35.984375 0 
L 9.8125 0 
z
" id="DejaVuSans-42"/>
     <path d="M 9.8125 72.90625 
L 19.671875 72.90625 
L 19.671875 0 
L 9.8125 0 
z
" id="DejaVuSans-49"/>
     <path d="M 64.40625 67.28125 
L 64.40625 56.890625 
Q 59.421875 61.53125 53.78125 63.8125 
Q 48.140625 66.109375 41.796875 66.109375 
Q 29.296875 66.109375 22.65625 58.46875 
Q 16.015625 50.828125 16.015625 36.375 
Q 16.015625 21.96875 22.65625 14.328125 
Q 29.296875 6.6875 41.796875 6.6875 
Q 48.140625 6.6875 53.78125 8.984375 
Q 59.421875 11.28125 64.40625 15.921875 
L 64.40625 5.609375 
Q 59.234375 2.09375 53.4375 0.328125 
Q 47.65625 -1.421875 41.21875 -1.421875 
Q 24.65625 -1.421875 15.125 8.703125 
Q 5.609375 18.84375 5.609375 36.375 
Q 5.609375 53.953125 15.125 64.078125 
Q 24.65625 74.21875 41.21875 74.21875 
Q 47.75 74.21875 53.53125 72.484375 
Q 59.328125 70.75 64.40625 67.28125 
z
" id="DejaVuSans-43"/>
    </defs>
    <g transform="translate(369.18424 101.719848)scale(0.17 -0.17)">
     <use xlink:href="#DejaVuSans-4b"/>
     <use x="65.576172" xlink:href="#DejaVuSans-4c"/>
     <use x="121.273438" xlink:href="#DejaVuSans-2d"/>
     <use x="157.310547" xlink:href="#DejaVuSans-42"/>
     <use x="225.914062" xlink:href="#DejaVuSans-49"/>
     <use x="255.40625" xlink:href="#DejaVuSans-50"/>
     <use x="315.708984" xlink:href="#DejaVuSans-4f"/>
     <use x="394.419922" xlink:href="#DejaVuSans-50"/>
     <use x="454.691406" xlink:href="#DejaVuSans-2d"/>
     <use x="490.775391" xlink:href="#DejaVuSans-43"/>
     <use x="560.599609" xlink:href="#DejaVuSans-4d"/>
    </g>
   </g>
   <g id="text_17">
    <!-- best 2009 -->
    <defs>
     <path d="M 48.6875 27.296875 
Q 48.6875 37.203125 44.609375 42.84375 
Q 40.53125 48.484375 33.40625 48.484375 
Q 26.265625 48.484375 22.1875 42.84375 
Q 18.109375 37.203125 18.109375 27.296875 
Q 18.109375 17.390625 22.1875 11.75 
Q 26.265625 6.109375 33.40625 6.109375 
Q 40.53125 6.109375 44.609375 11.75 
Q 48.6875 17.390625 48.6875 27.296875 
z
M 18.109375 46.390625 
Q 20.953125 51.265625 25.265625 53.625 
Q 29.59375 56 35.59375 56 
Q 45.5625 56 51.78125 48.09375 
Q 58.015625 40.1875 58.015625 27.296875 
Q 58.015625 14.40625 51.78125 6.484375 
Q 45.5625 -1.421875 35.59375 -1.421875 
Q 29.59375 -1.421875 25.265625 0.953125 
Q 20.953125 3.328125 18.109375 8.203125 
L 18.109375 0 
L 9.078125 0 
L 9.078125 75.984375 
L 18.109375 75.984375 
z
" id="DejaVuSans-62"/>
     <path d="M 10.984375 1.515625 
L 10.984375 10.5 
Q 14.703125 8.734375 18.5 7.8125 
Q 22.3125 6.890625 25.984375 6.890625 
Q 35.75 6.890625 40.890625 13.453125 
Q 46.046875 20.015625 46.78125 33.40625 
Q 43.953125 29.203125 39.59375 26.953125 
Q 35.25 24.703125 29.984375 24.703125 
Q 19.046875 24.703125 12.671875 31.3125 
Q 6.296875 37.9375 6.296875 49.421875 
Q 6.296875 60.640625 12.9375 67.421875 
Q 19.578125 74.21875 30.609375 74.21875 
Q 43.265625 74.21875 49.921875 64.515625 
Q 56.59375 54.828125 56.59375 36.375 
Q 56.59375 19.140625 48.40625 8.859375 
Q 40.234375 -1.421875 26.421875 -1.421875 
Q 22.703125 -1.421875 18.890625 -0.6875 
Q 15.09375 0.046875 10.984375 1.515625 
z
M 30.609375 32.421875 
Q 37.25 32.421875 41.125 36.953125 
Q 45.015625 41.5 45.015625 49.421875 
Q 45.015625 57.28125 41.125 61.84375 
Q 37.25 66.40625 30.609375 66.40625 
Q 23.96875 66.40625 20.09375 61.84375 
Q 16.21875 57.28125 16.21875 49.421875 
Q 16.21875 41.5 20.09375 36.953125 
Q 23.96875 32.421875 30.609375 32.421875 
z
" id="DejaVuSans-39"/>
    </defs>
    <g transform="translate(369.18424 37.551928)scale(0.17 -0.17)">
     <use xlink:href="#DejaVuSans-62"/>
     <use x="63.476562" xlink:href="#DejaVuSans-65"/>
     <use x="125" xlink:href="#DejaVuSans-73"/>
     <use x="177.099609" xlink:href="#DejaVuSans-74"/>
     <use x="216.308594" xlink:href="#DejaVuSans-20"/>
     <use x="248.095703" xlink:href="#DejaVuSans-32"/>
     <use x="311.71875" xlink:href="#DejaVuSans-30"/>
     <use x="375.341797" xlink:href="#DejaVuSans-30"/>
     <use x="438.964844" xlink:href="#DejaVuSans-39"/>
    </g>
   </g>
   <g id="text_18">
    <!-- bbob f15, 10-D -->
    <defs>
     <path d="M 10.796875 72.90625 
L 49.515625 72.90625 
L 49.515625 64.59375 
L 19.828125 64.59375 
L 19.828125 46.734375 
Q 21.96875 47.46875 24.109375 47.828125 
Q 26.265625 48.1875 28.421875 48.1875 
Q 40.625 48.1875 47.75 41.5 
Q 54.890625 34.8125 54.890625 23.390625 
Q 54.890625 11.625 47.5625 5.09375 
Q 40.234375 -1.421875 26.90625 -1.421875 
Q 22.3125 -1.421875 17.546875 -0.640625 
Q 12.796875 0.140625 7.71875 1.703125 
L 7.71875 11.625 
Q 12.109375 9.234375 16.796875 8.0625 
Q 21.484375 6.890625 26.703125 6.890625 
Q 35.15625 6.890625 40.078125 11.328125 
Q 45.015625 15.765625 45.015625 23.390625 
Q 45.015625 31 40.078125 35.4375 
Q 35.15625 39.890625 26.703125 39.890625 
Q 22.75 39.890625 18.8125 39.015625 
Q 14.890625 38.140625 10.796875 36.28125 
z
" id="DejaVuSans-35"/>
    </defs>
    <g transform="translate(58.89048 35.290806)scale(0.102 -0.102)">
     <use xlink:href="#DejaVuSans-62"/>
     <use x="63.476562" xlink:href="#DejaVuSans-62"/>
     <use x="126.953125" xlink:href="#DejaVuSans-6f"/>
     <use x="188.134766" xlink:href="#DejaVuSans-62"/>
     <use x="251.611328" xlink:href="#DejaVuSans-20"/>
     <use x="283.398438" xlink:href="#DejaVuSans-66"/>
     <use x="318.603516" xlink:href="#DejaVuSans-31"/>
     <use x="382.226562" xlink:href="#DejaVuSans-35"/>
     <use x="445.849609" xlink:href="#DejaVuSans-2c"/>
     <use x="477.636719" xlink:href="#DejaVuSans-20"/>
     <use x="509.423828" xlink:href="#DejaVuSans-31"/>
     <use x="573.046875" xlink:href="#DejaVuSans-30"/>
     <use x="636.669922" xlink:href="#DejaVuSans-2d"/>
     <use x="672.753906" xlink:href="#DejaVuSans-44"/>
    </g>
    <!-- 51 targets: 100..1e-08 -->
    <defs>
     <path d="M 11.71875 12.40625 
L 22.015625 12.40625 
L 22.015625 0 
L 11.71875 0 
z
M 11.71875 51.703125 
L 22.015625 51.703125 
L 22.015625 39.3125 
L 11.71875 39.3125 
z
" id="DejaVuSans-3a"/>
    </defs>
    <g transform="translate(58.89048 46.712575)scale(0.102 -0.102)">
     <use xlink:href="#DejaVuSans-35"/>
     <use x="63.623047" xlink:href="#DejaVuSans-31"/>
     <use x="127.246094" xlink:href="#DejaVuSans-20"/>
     <use x="159.033203" xlink:href="#DejaVuSans-74"/>
     <use x="198.242188" xlink:href="#DejaVuSans-61"/>
     <use x="259.521484" xlink:href="#DejaVuSans-72"/>
     <use x="300.619141" xlink:href="#DejaVuSans-67"/>
     <use x="364.095703" xlink:href="#DejaVuSans-65"/>
     <use x="425.619141" xlink:href="#DejaVuSans-74"/>
     <use x="464.828125" xlink:href="#DejaVuSans-73"/>
     <use x="516.927734" xlink:href="#DejaVuSans-3a"/>
     <use x="550.619141" xlink:href="#DejaVuSans-20"/>
     <use x="582.40625" xlink:href="#DejaVuSans-31"/>
     <use x="646.029297" xlink:href="#DejaVuSans-30"/>
     <use x="709.652344" xlink:href="#DejaVuSans-30"/>
     <use x="773.275391" xlink:href="#DejaVuSans-2e"/>
     <use x="805.0625" xlink:href="#DejaVuSans-2e"/>
     <use x="836.849609" xlink:href="#DejaVuSans-31"/>
     <use x="900.472656" xlink:href="#DejaVuSans-65"/>
     <use x="961.996094" xlink:href="#DejaVuSans-2d"/>
     <use x="998.080078" xlink:href="#DejaVuSans-30"/>
     <use x="1061.703125" xlink:href="#DejaVuSans-38"/>
    </g>
    <!-- 15 instances -->
    <g transform="translate(58.89048 58.134344)scale(0.102 -0.102)">
     <use xlink:href="#DejaVuSans-31"/>
     <use x="63.623047" xlink:href="#DejaVuSans-35"/>
     <use x="127.246094" xlink:href="#DejaVuSans-20"/>
     <use x="159.033203" xlink:href="#DejaVuSans-69"/>
     <use x="186.816406" xlink:href="#DejaVuSans-6e"/>
     <use x="250.195312" xlink:href="#DejaVuSans-73"/>
     <use x="302.294922" xlink:href="#DejaVuSans-74"/>
     <use x="341.503906" xlink:href="#DejaVuSans-61"/>
     <use x="402.783203" xlink:href="#DejaVuSans-6e"/>
     <use x="466.162109" xlink:href="#DejaVuSans-63"/>
     <use x="521.142578" xlink:href="#DejaVuSans-65"/>
     <use x="582.666016" xlink:href="#DejaVuSans-73"/>
    </g>
   </g>
   <g id="text_19">
    <!-- v2.4 -->
    <g style="fill:#808080;" transform="translate(183.733063 290.099912)scale(0.1 -0.1)">
     <use xlink:href="#DejaVuSans-76"/>
     <use x="59.179688" xlink:href="#DejaVuSans-32"/>
     <use x="122.802734" xlink:href="#DejaVuSans-2e"/>
     <use x="154.589844" xlink:href="#DejaVuSans-34"/>
    </g>
   </g>
   <g id="text_20">
    <!-- 15 Rastrigin -->
    <g transform="translate(134.184625 18.84)scale(0.2 -0.2)">
     <use xlink:href="#DejaVuSans-31"/>
     <use x="63.623047" xlink:href="#DejaVuSans-35"/>
     <use x="127.246094" xlink:href="#DejaVuSans-20"/>
     <use x="159.033203" xlink:href="#DejaVuSans-52"/>
     <use x="228.484375" xlink:href="#DejaVuSans-61"/>
     <use x="289.763672" xlink:href="#DejaVuSans-73"/>
     <use x="341.863281" xlink:href="#DejaVuSans-74"/>
     <use x="381.072266" xlink:href="#DejaVuSans-72"/>
     <use x="422.185547" xlink:href="#DejaVuSans-69"/>
     <use x="449.96875" xlink:href="#DejaVuSans-67"/>
     <use x="513.445312" xlink:href="#DejaVuSans-69"/>
     <use x="541.228516" xlink:href="#DejaVuSans-6e"/>
    </g>
   </g>
  </g>
 </g>
 <defs>
  <clipPath id="p06acadbdbe">
   <rect height="270.04" width="277.048" x="56.12" y="24.84"/>
  </clipPath>
 </defs>
</svg>
