<?xml version="1.0" encoding="utf-8" standalone="no"?>
<!DOCTYPE svg PUBLIC "-//W3C//DTD SVG 1.1//EN"
  "http://www.w3.org/Graphics/SVG/1.1/DTD/svg11.dtd">
<!-- Created with matplotlib (http://matplotlib.org/) -->
<svg height="345.6pt" version="1.1" viewBox="0 0 460.8 345.6" width="460.8pt" xmlns="http://www.w3.org/2000/svg" xmlns:xlink="http://www.w3.org/1999/xlink">
 <defs>
  <style type="text/css">
*{stroke-linecap:butt;stroke-linejoin:round;}
  </style>
 </defs>
 <g id="figure_1">
  <g id="patch_1">
   <path d="M 0 345.6 
L 460.8 345.6 
L 460.8 0 
L 0 0 
z
" style="fill:#ffffff;"/>
  </g>
  <g id="axes_1">
   <g id="patch_2">
    <path d="M 56.12 294.88 
L 333.168 294.88 
L 333.168 24.84 
L 56.12 24.84 
z
" style="fill:#ffffff;"/>
   </g>
   <g id="line2d_1">
    <path d="M 59.253858 294.88 
L 59.253858 289.637523 
L 69.672503 289.637523 
L 69.672503 284.395046 
L 75.003641 284.395046 
L 75.003641 279.152568 
L 79.948502 279.152568 
L 79.948502 273.910091 
L 83.08236 273.910091 
L 83.08236 263.425137 
L 84.458185 263.425137 
L 84.458185 258.18266 
L 97.021141 258.18266 
L 97.021141 252.940182 
L 112.514373 252.940182 
L 112.514373 247.697705 
L 119.526788 247.697705 
L 119.526788 242.455228 
L 127.819033 242.455228 
L 127.819033 237.212751 
L 130.604552 237.212751 
L 130.604552 231.970274 
L 132.197629 231.970274 
L 132.197629 226.727797 
L 147.947413 226.727797 
L 147.947413 221.485319 
L 148.401907 221.485319 
L 148.401907 216.242842 
L 149.904187 216.242842 
L 149.904187 211.000365 
L 150.267289 211.000365 
L 150.267289 205.757888 
L 150.665061 205.757888 
L 150.665061 200.515411 
L 151.258545 200.515411 
L 151.258545 195.272933 
L 152.564308 195.272933 
L 152.564308 190.030456 
L 153.589342 190.030456 
L 153.589342 184.787979 
L 154.579054 184.787979 
L 154.579054 179.545502 
L 154.867386 179.545502 
L 154.867386 174.303025 
L 154.966077 174.303025 
L 154.966077 74.695958 
L 154.987932 74.695958 
L 154.987932 69.453481 
L 155.107638 69.453481 
L 155.107638 64.211004 
L 155.150962 64.211004 
L 155.150962 58.968526 
L 155.237283 58.968526 
L 155.237283 53.726049 
L 155.599386 53.726049 
L 155.599386 48.483572 
L 156.138844 48.483572 
L 156.138844 43.241095 
L 156.311596 43.241095 
L 156.311596 37.998618 
L 156.432501 37.998618 
L 156.432501 32.756141 
L 156.691581 32.756141 
L 156.691581 27.513663 
L 333.168 27.513663 
" style="fill:none;stroke:#f5deb3;stroke-linecap:square;stroke-width:4;"/>
   </g>
   <g id="line2d_2">
    <defs>
     <path d="M -0 7.778175 
L 7.778175 0 
L 0 -7.778175 
L -7.778175 -0 
z
" id="meba68ca10d" style="stroke:#f5deb3;stroke-linejoin:miter;stroke-width:1.5;"/>
    </defs>
    <g>
     <use style="fill:#f5deb3;stroke:#f5deb3;stroke-linejoin:miter;stroke-width:1.5;" x="154.867386" xlink:href="#meba68ca10d" y="174.303025"/>
     <use style="fill:#f5deb3;stroke:#f5deb3;stroke-linejoin:miter;stroke-width:1.5;" x="156.691581" xlink:href="#meba68ca10d" y="32.756141"/>
     <use style="fill:#f5deb3;stroke:#f5deb3;stroke-linejoin:miter;stroke-width:1.5;" x="156.691581" xlink:href="#meba68ca10d" y="27.513663"/>
     <use style="fill:#f5deb3;stroke:#f5deb3;stroke-linejoin:miter;stroke-width:1.5;" x="156.691581" xlink:href="#meba68ca10d" y="27.513663"/>
     <use style="fill:#f5deb3;stroke:#f5deb3;stroke-linejoin:miter;stroke-width:1.5;" x="333.168" xlink:href="#meba68ca10d" y="27.513663"/>
    </g>
   </g>
   <g id="line2d_3">
    <path style="fill:none;stroke:#f5deb3;stroke-linecap:square;stroke-width:4;"/>
    <g/>
   </g>
   <g id="line2d_4">
    <path d="M 333.168 27.513663 
L 363.64328 32.86099 
" style="fill:none;stroke:#f5deb3;stroke-linecap:square;stroke-width:4;"/>
    <g>
     <use style="fill:#f5deb3;stroke:#f5deb3;stroke-linejoin:miter;stroke-width:1.5;" x="333.168" xlink:href="#meba68ca10d" y="27.513663"/>
     <use style="fill:#f5deb3;stroke:#f5deb3;stroke-linejoin:miter;stroke-width:1.5;" x="363.64328" xlink:href="#meba68ca10d" y="32.86099"/>
    </g>
   </g>
   <g id="matplotlib.axis_1">
    <g id="xtick_1">
     <g id="line2d_5">
      <path clip-path="url(#p40bfd5c110)" d="M 56.12 294.88 
L 56.12 24.84 
" style="fill:none;stroke:#b0b0b0;stroke-linecap:square;stroke-width:0.8;"/>
     </g>
     <g id="line2d_6">
      <defs>
       <path d="M 0 0 
L 0 3.5 
" id="m5bff6a1c0e" style="stroke:#000000;stroke-width:0.8;"/>
      </defs>
      <g>
       <use style="stroke:#000000;stroke-width:0.8;" x="56.12" xlink:href="#m5bff6a1c0e" y="294.88"/>
      </g>
     </g>
     <g id="text_1">
      <!-- 0 -->
      <defs>
       <path d="M 31.78125 66.40625 
Q 24.171875 66.40625 20.328125 58.90625 
Q 16.5 51.421875 16.5 36.375 
Q 16.5 21.390625 20.328125 13.890625 
Q 24.171875 6.390625 31.78125 6.390625 
Q 39.453125 6.390625 43.28125 13.890625 
Q 47.125 21.390625 47.125 36.375 
Q 47.125 51.421875 43.28125 58.90625 
Q 39.453125 66.40625 31.78125 66.40625 
z
M 31.78125 74.21875 
Q 44.046875 74.21875 50.515625 64.515625 
Q 56.984375 54.828125 56.984375 36.375 
Q 56.984375 17.96875 50.515625 8.265625 
Q 44.046875 -1.421875 31.78125 -1.421875 
Q 19.53125 -1.421875 13.0625 8.265625 
Q 6.59375 17.96875 6.59375 36.375 
Q 6.59375 54.828125 13.0625 64.515625 
Q 19.53125 74.21875 31.78125 74.21875 
z
" id="DejaVuSans-30"/>
      </defs>
      <g transform="translate(49.7575 317.076875)scale(0.2 -0.2)">
       <use xlink:href="#DejaVuSans-30"/>
      </g>
     </g>
    </g>
    <g id="xtick_2">
     <g id="line2d_7">
      <path clip-path="url(#p40bfd5c110)" d="M 135.276571 294.88 
L 135.276571 24.84 
" style="fill:none;stroke:#b0b0b0;stroke-linecap:square;stroke-width:0.8;"/>
     </g>
     <g id="line2d_8">
      <g>
       <use style="stroke:#000000;stroke-width:0.8;" x="135.276571" xlink:href="#m5bff6a1c0e" y="294.88"/>
      </g>
     </g>
     <g id="text_2">
      <!-- 2 -->
      <defs>
       <path d="M 19.1875 8.296875 
L 53.609375 8.296875 
L 53.609375 0 
L 7.328125 0 
L 7.328125 8.296875 
Q 12.9375 14.109375 22.625 23.890625 
Q 32.328125 33.6875 34.8125 36.53125 
Q 39.546875 41.84375 41.421875 45.53125 
Q 43.3125 49.21875 43.3125 52.78125 
Q 43.3125 58.59375 39.234375 62.25 
Q 35.15625 65.921875 28.609375 65.921875 
Q 23.96875 65.921875 18.8125 64.3125 
Q 13.671875 62.703125 7.8125 59.421875 
L 7.8125 69.390625 
Q 13.765625 71.78125 18.9375 73 
Q 24.125 74.21875 28.421875 74.21875 
Q 39.75 74.21875 46.484375 68.546875 
Q 53.21875 62.890625 53.21875 53.421875 
Q 53.21875 48.921875 51.53125 44.890625 
Q 49.859375 40.875 45.40625 35.40625 
Q 44.1875 33.984375 37.640625 27.21875 
Q 31.109375 20.453125 19.1875 8.296875 
z
" id="DejaVuSans-32"/>
      </defs>
      <g transform="translate(128.914071 317.076875)scale(0.2 -0.2)">
       <use xlink:href="#DejaVuSans-32"/>
      </g>
     </g>
    </g>
    <g id="xtick_3">
     <g id="line2d_9">
      <path clip-path="url(#p40bfd5c110)" d="M 214.433143 294.88 
L 214.433143 24.84 
" style="fill:none;stroke:#b0b0b0;stroke-linecap:square;stroke-width:0.8;"/>
     </g>
     <g id="line2d_10">
      <g>
       <use style="stroke:#000000;stroke-width:0.8;" x="214.433143" xlink:href="#m5bff6a1c0e" y="294.88"/>
      </g>
     </g>
     <g id="text_3">
      <!-- 4 -->
      <defs>
       <path d="M 37.796875 64.3125 
L 12.890625 25.390625 
L 37.796875 25.390625 
z
M 35.203125 72.90625 
L 47.609375 72.90625 
L 47.609375 25.390625 
L 58.015625 25.390625 
L 58.015625 17.1875 
L 47.609375 17.1875 
L 47.609375 0 
L 37.796875 0 
L 37.796875 17.1875 
L 4.890625 17.1875 
L 4.890625 26.703125 
z
" id="DejaVuSans-34"/>
      </defs>
      <g transform="translate(208.070643 317.076875)scale(0.2 -0.2)">
       <use xlink:href="#DejaVuSans-34"/>
      </g>
     </g>
    </g>
    <g id="xtick_4">
     <g id="line2d_11">
      <path clip-path="url(#p40bfd5c110)" d="M 293.589714 294.88 
L 293.589714 24.84 
" style="fill:none;stroke:#b0b0b0;stroke-linecap:square;stroke-width:0.8;"/>
     </g>
     <g id="line2d_12">
      <g>
       <use style="stroke:#000000;stroke-width:0.8;" x="293.589714" xlink:href="#m5bff6a1c0e" y="294.88"/>
      </g>
     </g>
     <g id="text_4">
      <!-- 6 -->
      <defs>
       <path d="M 33.015625 40.375 
Q 26.375 40.375 22.484375 35.828125 
Q 18.609375 31.296875 18.609375 23.390625 
Q 18.609375 15.53125 22.484375 10.953125 
Q 26.375 6.390625 33.015625 6.390625 
Q 39.65625 6.390625 43.53125 10.953125 
Q 47.40625 15.53125 47.40625 23.390625 
Q 47.40625 31.296875 43.53125 35.828125 
Q 39.65625 40.375 33.015625 40.375 
z
M 52.59375 71.296875 
L 52.59375 62.3125 
Q 48.875 64.0625 45.09375 64.984375 
Q 41.3125 65.921875 37.59375 65.921875 
Q 27.828125 65.921875 22.671875 59.328125 
Q 17.53125 52.734375 16.796875 39.40625 
Q 19.671875 43.65625 24.015625 45.921875 
Q 28.375 48.1875 33.59375 48.1875 
Q 44.578125 48.1875 50.953125 41.515625 
Q 57.328125 34.859375 57.328125 23.390625 
Q 57.328125 12.15625 50.6875 5.359375 
Q 44.046875 -1.421875 33.015625 -1.421875 
Q 20.359375 -1.421875 13.671875 8.265625 
Q 6.984375 17.96875 6.984375 36.375 
Q 6.984375 53.65625 15.1875 63.9375 
Q 23.390625 74.21875 37.203125 74.21875 
Q 40.921875 74.21875 44.703125 73.484375 
Q 48.484375 72.75 52.59375 71.296875 
z
" id="DejaVuSans-36"/>
      </defs>
      <g transform="translate(287.227214 317.076875)scale(0.2 -0.2)">
       <use xlink:href="#DejaVuSans-36"/>
      </g>
     </g>
    </g>
    <g id="xtick_5">
     <g id="line2d_13">
      <path clip-path="url(#p40bfd5c110)" d="M 56.12 294.88 
L 56.12 24.84 
" style="fill:none;stroke:#b0b0b0;stroke-linecap:square;stroke-width:0.8;"/>
     </g>
     <g id="line2d_14">
      <defs>
       <path d="M 0 0 
L 0 2 
" id="m69d0ec99d9" style="stroke:#000000;stroke-width:0.6;"/>
      </defs>
      <g>
       <use style="stroke:#000000;stroke-width:0.6;" x="56.12" xlink:href="#m69d0ec99d9" y="294.88"/>
      </g>
     </g>
    </g>
    <g id="xtick_6">
     <g id="line2d_15">
      <path clip-path="url(#p40bfd5c110)" d="M 95.698286 294.88 
L 95.698286 24.84 
" style="fill:none;stroke:#b0b0b0;stroke-linecap:square;stroke-width:0.8;"/>
     </g>
     <g id="line2d_16">
      <g>
       <use style="stroke:#000000;stroke-width:0.6;" x="95.698286" xlink:href="#m69d0ec99d9" y="294.88"/>
      </g>
     </g>
    </g>
    <g id="xtick_7">
     <g id="line2d_17">
      <path clip-path="url(#p40bfd5c110)" d="M 135.276571 294.88 
L 135.276571 24.84 
" style="fill:none;stroke:#b0b0b0;stroke-linecap:square;stroke-width:0.8;"/>
     </g>
     <g id="line2d_18">
      <g>
       <use style="stroke:#000000;stroke-width:0.6;" x="135.276571" xlink:href="#m69d0ec99d9" y="294.88"/>
      </g>
     </g>
    </g>
    <g id="xtick_8">
     <g id="line2d_19">
      <path clip-path="url(#p40bfd5c110)" d="M 174.854857 294.88 
L 174.854857 24.84 
" style="fill:none;stroke:#b0b0b0;stroke-linecap:square;stroke-width:0.8;"/>
     </g>
     <g id="line2d_20">
      <g>
       <use style="stroke:#000000;stroke-width:0.6;" x="174.854857" xlink:href="#m69d0ec99d9" y="294.88"/>
      </g>
     </g>
    </g>
    <g id="xtick_9">
     <g id="line2d_21">
      <path clip-path="url(#p40bfd5c110)" d="M 214.433143 294.88 
L 214.433143 24.84 
" style="fill:none;stroke:#b0b0b0;stroke-linecap:square;stroke-width:0.8;"/>
     </g>
     <g id="line2d_22">
      <g>
       <use style="stroke:#000000;stroke-width:0.6;" x="214.433143" xlink:href="#m69d0ec99d9" y="294.88"/>
      </g>
     </g>
    </g>
    <g id="xtick_10">
     <g id="line2d_23">
      <path clip-path="url(#p40bfd5c110)" d="M 254.011429 294.88 
L 254.011429 24.84 
" style="fill:none;stroke:#b0b0b0;stroke-linecap:square;stroke-width:0.8;"/>
     </g>
     <g id="line2d_24">
      <g>
       <use style="stroke:#000000;stroke-width:0.6;" x="254.011429" xlink:href="#m69d0ec99d9" y="294.88"/>
      </g>
     </g>
    </g>
    <g id="xtick_11">
     <g id="line2d_25">
      <path clip-path="url(#p40bfd5c110)" d="M 293.589714 294.88 
L 293.589714 24.84 
" style="fill:none;stroke:#b0b0b0;stroke-linecap:square;stroke-width:0.8;"/>
     </g>
     <g id="line2d_26">
      <g>
       <use style="stroke:#000000;stroke-width:0.6;" x="293.589714" xlink:href="#m69d0ec99d9" y="294.88"/>
      </g>
     </g>
    </g>
    <g id="xtick_12">
     <g id="line2d_27">
      <path clip-path="url(#p40bfd5c110)" d="M 333.168 294.88 
L 333.168 24.84 
" style="fill:none;stroke:#b0b0b0;stroke-linecap:square;stroke-width:0.8;"/>
     </g>
     <g id="line2d_28">
      <g>
       <use style="stroke:#000000;stroke-width:0.6;" x="333.168" xlink:href="#m69d0ec99d9" y="294.88"/>
      </g>
     </g>
    </g>
    <g id="text_5">
     <!-- log10(# f-evals / dimension) -->
     <defs>
      <path d="M 9.421875 75.984375 
L 18.40625 75.984375 
L 18.40625 0 
L 9.421875 0 
z
" id="DejaVuSans-6c"/>
      <path d="M 30.609375 48.390625 
Q 23.390625 48.390625 19.1875 42.75 
Q 14.984375 37.109375 14.984375 27.296875 
Q 14.984375 17.484375 19.15625 11.84375 
Q 23.34375 6.203125 30.609375 6.203125 
Q 37.796875 6.203125 41.984375 11.859375 
Q 46.1875 17.53125 46.1875 27.296875 
Q 46.1875 37.015625 41.984375 42.703125 
Q 37.796875 48.390625 30.609375 48.390625 
z
M 30.609375 56 
Q 42.328125 56 49.015625 48.375 
Q 55.71875 40.765625 55.71875 27.296875 
Q 55.71875 13.875 49.015625 6.21875 
Q 42.328125 -1.421875 30.609375 -1.421875 
Q 18.84375 -1.421875 12.171875 6.21875 
Q 5.515625 13.875 5.515625 27.296875 
Q 5.515625 40.765625 12.171875 48.375 
Q 18.84375 56 30.609375 56 
z
" id="DejaVuSans-6f"/>
      <path d="M 45.40625 27.984375 
Q 45.40625 37.75 41.375 43.109375 
Q 37.359375 48.484375 30.078125 48.484375 
Q 22.859375 48.484375 18.828125 43.109375 
Q 14.796875 37.75 14.796875 27.984375 
Q 14.796875 18.265625 18.828125 12.890625 
Q 22.859375 7.515625 30.078125 7.515625 
Q 37.359375 7.515625 41.375 12.890625 
Q 45.40625 18.265625 45.40625 27.984375 
z
M 54.390625 6.78125 
Q 54.390625 -7.171875 48.1875 -13.984375 
Q 42 -20.796875 29.203125 -20.796875 
Q 24.46875 -20.796875 20.265625 -20.09375 
Q 16.0625 -19.390625 12.109375 -17.921875 
L 12.109375 -9.1875 
Q 16.0625 -11.328125 19.921875 -12.34375 
Q 23.78125 -13.375 27.78125 -13.375 
Q 36.625 -13.375 41.015625 -8.765625 
Q 45.40625 -4.15625 45.40625 5.171875 
L 45.40625 9.625 
Q 42.625 4.78125 38.28125 2.390625 
Q 33.9375 0 27.875 0 
Q 17.828125 0 11.671875 7.65625 
Q 5.515625 15.328125 5.515625 27.984375 
Q 5.515625 40.671875 11.671875 48.328125 
Q 17.828125 56 27.875 56 
Q 33.9375 56 38.28125 53.609375 
Q 42.625 51.21875 45.40625 46.390625 
L 45.40625 54.6875 
L 54.390625 54.6875 
z
" id="DejaVuSans-67"/>
      <path d="M 12.40625 8.296875 
L 28.515625 8.296875 
L 28.515625 63.921875 
L 10.984375 60.40625 
L 10.984375 69.390625 
L 28.421875 72.90625 
L 38.28125 72.90625 
L 38.28125 8.296875 
L 54.390625 8.296875 
L 54.390625 0 
L 12.40625 0 
z
" id="DejaVuSans-31"/>
      <path d="M 31 75.875 
Q 24.46875 64.65625 21.28125 53.65625 
Q 18.109375 42.671875 18.109375 31.390625 
Q 18.109375 20.125 21.3125 9.0625 
Q 24.515625 -2 31 -13.1875 
L 23.1875 -13.1875 
Q 15.875 -1.703125 12.234375 9.375 
Q 8.59375 20.453125 8.59375 31.390625 
Q 8.59375 42.28125 12.203125 53.3125 
Q 15.828125 64.359375 23.1875 75.875 
z
" id="DejaVuSans-28"/>
      <path d="M 51.125 44 
L 36.921875 44 
L 32.8125 27.6875 
L 47.125 27.6875 
z
M 43.796875 71.78125 
L 38.71875 51.515625 
L 52.984375 51.515625 
L 58.109375 71.78125 
L 65.921875 71.78125 
L 60.890625 51.515625 
L 76.125 51.515625 
L 76.125 44 
L 58.984375 44 
L 54.984375 27.6875 
L 70.515625 27.6875 
L 70.515625 20.21875 
L 53.078125 20.21875 
L 48 0 
L 40.1875 0 
L 45.21875 20.21875 
L 30.90625 20.21875 
L 25.875 0 
L 18.015625 0 
L 23.09375 20.21875 
L 7.71875 20.21875 
L 7.71875 27.6875 
L 24.90625 27.6875 
L 29 44 
L 13.28125 44 
L 13.28125 51.515625 
L 30.90625 51.515625 
L 35.890625 71.78125 
z
" id="DejaVuSans-23"/>
      <path id="DejaVuSans-20"/>
      <path d="M 37.109375 75.984375 
L 37.109375 68.5 
L 28.515625 68.5 
Q 23.6875 68.5 21.796875 66.546875 
Q 19.921875 64.59375 19.921875 59.515625 
L 19.921875 54.6875 
L 34.71875 54.6875 
L 34.71875 47.703125 
L 19.921875 47.703125 
L 19.921875 0 
L 10.890625 0 
L 10.890625 47.703125 
L 2.296875 47.703125 
L 2.296875 54.6875 
L 10.890625 54.6875 
L 10.890625 58.5 
Q 10.890625 67.625 15.140625 71.796875 
Q 19.390625 75.984375 28.609375 75.984375 
z
" id="DejaVuSans-66"/>
      <path d="M 4.890625 31.390625 
L 31.203125 31.390625 
L 31.203125 23.390625 
L 4.890625 23.390625 
z
" id="DejaVuSans-2d"/>
      <path d="M 56.203125 29.59375 
L 56.203125 25.203125 
L 14.890625 25.203125 
Q 15.484375 15.921875 20.484375 11.0625 
Q 25.484375 6.203125 34.421875 6.203125 
Q 39.59375 6.203125 44.453125 7.46875 
Q 49.3125 8.734375 54.109375 11.28125 
L 54.109375 2.78125 
Q 49.265625 0.734375 44.1875 -0.34375 
Q 39.109375 -1.421875 33.890625 -1.421875 
Q 20.796875 -1.421875 13.15625 6.1875 
Q 5.515625 13.8125 5.515625 26.8125 
Q 5.515625 40.234375 12.765625 48.109375 
Q 20.015625 56 32.328125 56 
Q 43.359375 56 49.78125 48.890625 
Q 56.203125 41.796875 56.203125 29.59375 
z
M 47.21875 32.234375 
Q 47.125 39.59375 43.09375 43.984375 
Q 39.0625 48.390625 32.421875 48.390625 
Q 24.90625 48.390625 20.390625 44.140625 
Q 15.875 39.890625 15.1875 32.171875 
z
" id="DejaVuSans-65"/>
      <path d="M 2.984375 54.6875 
L 12.5 54.6875 
L 29.59375 8.796875 
L 46.6875 54.6875 
L 56.203125 54.6875 
L 35.6875 0 
L 23.484375 0 
z
" id="DejaVuSans-76"/>
      <path d="M 34.28125 27.484375 
Q 23.390625 27.484375 19.1875 25 
Q 14.984375 22.515625 14.984375 16.5 
Q 14.984375 11.71875 18.140625 8.90625 
Q 21.296875 6.109375 26.703125 6.109375 
Q 34.1875 6.109375 38.703125 11.40625 
Q 43.21875 16.703125 43.21875 25.484375 
L 43.21875 27.484375 
z
M 52.203125 31.203125 
L 52.203125 0 
L 43.21875 0 
L 43.21875 8.296875 
Q 40.140625 3.328125 35.546875 0.953125 
Q 30.953125 -1.421875 24.3125 -1.421875 
Q 15.921875 -1.421875 10.953125 3.296875 
Q 6 8.015625 6 15.921875 
Q 6 25.140625 12.171875 29.828125 
Q 18.359375 34.515625 30.609375 34.515625 
L 43.21875 34.515625 
L 43.21875 35.40625 
Q 43.21875 41.609375 39.140625 45 
Q 35.0625 48.390625 27.6875 48.390625 
Q 23 48.390625 18.546875 47.265625 
Q 14.109375 46.140625 10.015625 43.890625 
L 10.015625 52.203125 
Q 14.9375 54.109375 19.578125 55.046875 
Q 24.21875 56 28.609375 56 
Q 40.484375 56 46.34375 49.84375 
Q 52.203125 43.703125 52.203125 31.203125 
z
" id="DejaVuSans-61"/>
      <path d="M 44.28125 53.078125 
L 44.28125 44.578125 
Q 40.484375 46.53125 36.375 47.5 
Q 32.28125 48.484375 27.875 48.484375 
Q 21.1875 48.484375 17.84375 46.4375 
Q 14.5 44.390625 14.5 40.28125 
Q 14.5 37.15625 16.890625 35.375 
Q 19.28125 33.59375 26.515625 31.984375 
L 29.59375 31.296875 
Q 39.15625 29.25 43.1875 25.515625 
Q 47.21875 21.78125 47.21875 15.09375 
Q 47.21875 7.46875 41.1875 3.015625 
Q 35.15625 -1.421875 24.609375 -1.421875 
Q 20.21875 -1.421875 15.453125 -0.5625 
Q 10.6875 0.296875 5.421875 2 
L 5.421875 11.28125 
Q 10.40625 8.6875 15.234375 7.390625 
Q 20.0625 6.109375 24.8125 6.109375 
Q 31.15625 6.109375 34.5625 8.28125 
Q 37.984375 10.453125 37.984375 14.40625 
Q 37.984375 18.0625 35.515625 20.015625 
Q 33.0625 21.96875 24.703125 23.78125 
L 21.578125 24.515625 
Q 13.234375 26.265625 9.515625 29.90625 
Q 5.8125 33.546875 5.8125 39.890625 
Q 5.8125 47.609375 11.28125 51.796875 
Q 16.75 56 26.8125 56 
Q 31.78125 56 36.171875 55.265625 
Q 40.578125 54.546875 44.28125 53.078125 
z
" id="DejaVuSans-73"/>
      <path d="M 25.390625 72.90625 
L 33.6875 72.90625 
L 8.296875 -9.28125 
L 0 -9.28125 
z
" id="DejaVuSans-2f"/>
      <path d="M 45.40625 46.390625 
L 45.40625 75.984375 
L 54.390625 75.984375 
L 54.390625 0 
L 45.40625 0 
L 45.40625 8.203125 
Q 42.578125 3.328125 38.25 0.953125 
Q 33.9375 -1.421875 27.875 -1.421875 
Q 17.96875 -1.421875 11.734375 6.484375 
Q 5.515625 14.40625 5.515625 27.296875 
Q 5.515625 40.1875 11.734375 48.09375 
Q 17.96875 56 27.875 56 
Q 33.9375 56 38.25 53.625 
Q 42.578125 51.265625 45.40625 46.390625 
z
M 14.796875 27.296875 
Q 14.796875 17.390625 18.875 11.75 
Q 22.953125 6.109375 30.078125 6.109375 
Q 37.203125 6.109375 41.296875 11.75 
Q 45.40625 17.390625 45.40625 27.296875 
Q 45.40625 37.203125 41.296875 42.84375 
Q 37.203125 48.484375 30.078125 48.484375 
Q 22.953125 48.484375 18.875 42.84375 
Q 14.796875 37.203125 14.796875 27.296875 
z
" id="DejaVuSans-64"/>
      <path d="M 9.421875 54.6875 
L 18.40625 54.6875 
L 18.40625 0 
L 9.421875 0 
z
M 9.421875 75.984375 
L 18.40625 75.984375 
L 18.40625 64.59375 
L 9.421875 64.59375 
z
" id="DejaVuSans-69"/>
      <path d="M 52 44.1875 
Q 55.375 50.25 60.0625 53.125 
Q 64.75 56 71.09375 56 
Q 79.640625 56 84.28125 50.015625 
Q 88.921875 44.046875 88.921875 33.015625 
L 88.921875 0 
L 79.890625 0 
L 79.890625 32.71875 
Q 79.890625 40.578125 77.09375 44.375 
Q 74.3125 48.1875 68.609375 48.1875 
Q 61.625 48.1875 57.5625 43.546875 
Q 53.515625 38.921875 53.515625 30.90625 
L 53.515625 0 
L 44.484375 0 
L 44.484375 32.71875 
Q 44.484375 40.625 41.703125 44.40625 
Q 38.921875 48.1875 33.109375 48.1875 
Q 26.21875 48.1875 22.15625 43.53125 
Q 18.109375 38.875 18.109375 30.90625 
L 18.109375 0 
L 9.078125 0 
L 9.078125 54.6875 
L 18.109375 54.6875 
L 18.109375 46.1875 
Q 21.1875 51.21875 25.484375 53.609375 
Q 29.78125 56 35.6875 56 
Q 41.65625 56 45.828125 52.96875 
Q 50 49.953125 52 44.1875 
z
" id="DejaVuSans-6d"/>
      <path d="M 54.890625 33.015625 
L 54.890625 0 
L 45.90625 0 
L 45.90625 32.71875 
Q 45.90625 40.484375 42.875 44.328125 
Q 39.84375 48.1875 33.796875 48.1875 
Q 26.515625 48.1875 22.3125 43.546875 
Q 18.109375 38.921875 18.109375 30.90625 
L 18.109375 0 
L 9.078125 0 
L 9.078125 54.6875 
L 18.109375 54.6875 
L 18.109375 46.1875 
Q 21.34375 51.125 25.703125 53.5625 
Q 30.078125 56 35.796875 56 
Q 45.21875 56 50.046875 50.171875 
Q 54.890625 44.34375 54.890625 33.015625 
z
" id="DejaVuSans-6e"/>
      <path d="M 8.015625 75.875 
L 15.828125 75.875 
Q 23.140625 64.359375 26.78125 53.3125 
Q 30.421875 42.28125 30.421875 31.390625 
Q 30.421875 20.453125 26.78125 9.375 
Q 23.140625 -1.703125 15.828125 -13.1875 
L 8.015625 -13.1875 
Q 14.5 -2 17.703125 9.0625 
Q 20.90625 20.125 20.90625 31.390625 
Q 20.90625 42.671875 17.703125 53.65625 
Q 14.5 64.65625 8.015625 75.875 
z
" id="DejaVuSans-29"/>
     </defs>
     <g transform="translate(73.803219 338.153594)scale(0.17 -0.17)">
      <use xlink:href="#DejaVuSans-6c"/>
      <use x="27.783203" xlink:href="#DejaVuSans-6f"/>
      <use x="88.964844" xlink:href="#DejaVuSans-67"/>
      <use x="152.441406" xlink:href="#DejaVuSans-31"/>
      <use x="216.064453" xlink:href="#DejaVuSans-30"/>
      <use x="279.6875" xlink:href="#DejaVuSans-28"/>
      <use x="318.701172" xlink:href="#DejaVuSans-23"/>
      <use x="402.490234" xlink:href="#DejaVuSans-20"/>
      <use x="434.277344" xlink:href="#DejaVuSans-66"/>
      <use x="469.404297" xlink:href="#DejaVuSans-2d"/>
      <use x="505.488281" xlink:href="#DejaVuSans-65"/>
      <use x="567.011719" xlink:href="#DejaVuSans-76"/>
      <use x="626.191406" xlink:href="#DejaVuSans-61"/>
      <use x="687.470703" xlink:href="#DejaVuSans-6c"/>
      <use x="715.253906" xlink:href="#DejaVuSans-73"/>
      <use x="767.353516" xlink:href="#DejaVuSans-20"/>
      <use x="799.140625" xlink:href="#DejaVuSans-2f"/>
      <use x="832.832031" xlink:href="#DejaVuSans-20"/>
      <use x="864.619141" xlink:href="#DejaVuSans-64"/>
      <use x="928.095703" xlink:href="#DejaVuSans-69"/>
      <use x="955.878906" xlink:href="#DejaVuSans-6d"/>
      <use x="1053.291016" xlink:href="#DejaVuSans-65"/>
      <use x="1114.814453" xlink:href="#DejaVuSans-6e"/>
      <use x="1178.193359" xlink:href="#DejaVuSans-73"/>
      <use x="1230.292969" xlink:href="#DejaVuSans-69"/>
      <use x="1258.076172" xlink:href="#DejaVuSans-6f"/>
      <use x="1319.257812" xlink:href="#DejaVuSans-6e"/>
      <use x="1382.636719" xlink:href="#DejaVuSans-29"/>
     </g>
    </g>
   </g>
   <g id="matplotlib.axis_2">
    <g id="ytick_1">
     <g id="line2d_29">
      <path clip-path="url(#p40bfd5c110)" d="M 56.12 294.88 
L 333.168 294.88 
" style="fill:none;stroke:#b0b0b0;stroke-linecap:square;stroke-width:0.8;"/>
     </g>
     <g id="line2d_30">
      <defs>
       <path d="M 0 0 
L -3.5 0 
" id="ma12d79f9af" style="stroke:#000000;stroke-width:0.8;"/>
      </defs>
      <g>
       <use style="stroke:#000000;stroke-width:0.8;" x="56.12" xlink:href="#ma12d79f9af" y="294.88"/>
      </g>
     </g>
     <g id="text_6">
      <!-- 0.0 -->
      <defs>
       <path d="M 10.6875 12.40625 
L 21 12.40625 
L 21 0 
L 10.6875 0 
z
" id="DejaVuSans-2e"/>
      </defs>
      <g transform="translate(23.675 300.95875)scale(0.16 -0.16)">
       <use xlink:href="#DejaVuSans-30"/>
       <use x="63.623047" xlink:href="#DejaVuSans-2e"/>
       <use x="95.410156" xlink:href="#DejaVuSans-30"/>
      </g>
     </g>
    </g>
    <g id="ytick_2">
     <g id="line2d_31">
      <path clip-path="url(#p40bfd5c110)" d="M 56.12 241.406733 
L 333.168 241.406733 
" style="fill:none;stroke:#b0b0b0;stroke-linecap:square;stroke-width:0.8;"/>
     </g>
     <g id="line2d_32">
      <g>
       <use style="stroke:#000000;stroke-width:0.8;" x="56.12" xlink:href="#ma12d79f9af" y="241.406733"/>
      </g>
     </g>
     <g id="text_7">
      <!-- 0.2 -->
      <g transform="translate(23.675 247.485483)scale(0.16 -0.16)">
       <use xlink:href="#DejaVuSans-30"/>
       <use x="63.623047" xlink:href="#DejaVuSans-2e"/>
       <use x="95.410156" xlink:href="#DejaVuSans-32"/>
      </g>
     </g>
    </g>
    <g id="ytick_3">
     <g id="line2d_33">
      <path clip-path="url(#p40bfd5c110)" d="M 56.12 187.933465 
L 333.168 187.933465 
" style="fill:none;stroke:#b0b0b0;stroke-linecap:square;stroke-width:0.8;"/>
     </g>
     <g id="line2d_34">
      <g>
       <use style="stroke:#000000;stroke-width:0.8;" x="56.12" xlink:href="#ma12d79f9af" y="187.933465"/>
      </g>
     </g>
     <g id="text_8">
      <!-- 0.4 -->
      <g transform="translate(23.675 194.012215)scale(0.16 -0.16)">
       <use xlink:href="#DejaVuSans-30"/>
       <use x="63.623047" xlink:href="#DejaVuSans-2e"/>
       <use x="95.410156" xlink:href="#DejaVuSans-34"/>
      </g>
     </g>
    </g>
    <g id="ytick_4">
     <g id="line2d_35">
      <path clip-path="url(#p40bfd5c110)" d="M 56.12 134.460198 
L 333.168 134.460198 
" style="fill:none;stroke:#b0b0b0;stroke-linecap:square;stroke-width:0.8;"/>
     </g>
     <g id="line2d_36">
      <g>
       <use style="stroke:#000000;stroke-width:0.8;" x="56.12" xlink:href="#ma12d79f9af" y="134.460198"/>
      </g>
     </g>
     <g id="text_9">
      <!-- 0.6 -->
      <g transform="translate(23.675 140.538948)scale(0.16 -0.16)">
       <use xlink:href="#DejaVuSans-30"/>
       <use x="63.623047" xlink:href="#DejaVuSans-2e"/>
       <use x="95.410156" xlink:href="#DejaVuSans-36"/>
      </g>
     </g>
    </g>
    <g id="ytick_5">
     <g id="line2d_37">
      <path clip-path="url(#p40bfd5c110)" d="M 56.12 80.986931 
L 333.168 80.986931 
" style="fill:none;stroke:#b0b0b0;stroke-linecap:square;stroke-width:0.8;"/>
     </g>
     <g id="line2d_38">
      <g>
       <use style="stroke:#000000;stroke-width:0.8;" x="56.12" xlink:href="#ma12d79f9af" y="80.986931"/>
      </g>
     </g>
     <g id="text_10">
      <!-- 0.8 -->
      <defs>
       <path d="M 31.78125 34.625 
Q 24.75 34.625 20.71875 30.859375 
Q 16.703125 27.09375 16.703125 20.515625 
Q 16.703125 13.921875 20.71875 10.15625 
Q 24.75 6.390625 31.78125 6.390625 
Q 38.8125 6.390625 42.859375 10.171875 
Q 46.921875 13.96875 46.921875 20.515625 
Q 46.921875 27.09375 42.890625 30.859375 
Q 38.875 34.625 31.78125 34.625 
z
M 21.921875 38.8125 
Q 15.578125 40.375 12.03125 44.71875 
Q 8.5 49.078125 8.5 55.328125 
Q 8.5 64.0625 14.71875 69.140625 
Q 20.953125 74.21875 31.78125 74.21875 
Q 42.671875 74.21875 48.875 69.140625 
Q 55.078125 64.0625 55.078125 55.328125 
Q 55.078125 49.078125 51.53125 44.71875 
Q 48 40.375 41.703125 38.8125 
Q 48.828125 37.15625 52.796875 32.3125 
Q 56.78125 27.484375 56.78125 20.515625 
Q 56.78125 9.90625 50.3125 4.234375 
Q 43.84375 -1.421875 31.78125 -1.421875 
Q 19.734375 -1.421875 13.25 4.234375 
Q 6.78125 9.90625 6.78125 20.515625 
Q 6.78125 27.484375 10.78125 32.3125 
Q 14.796875 37.15625 21.921875 38.8125 
z
M 18.3125 54.390625 
Q 18.3125 48.734375 21.84375 45.5625 
Q 25.390625 42.390625 31.78125 42.390625 
Q 38.140625 42.390625 41.71875 45.5625 
Q 45.3125 48.734375 45.3125 54.390625 
Q 45.3125 60.0625 41.71875 63.234375 
Q 38.140625 66.40625 31.78125 66.40625 
Q 25.390625 66.40625 21.84375 63.234375 
Q 18.3125 60.0625 18.3125 54.390625 
z
" id="DejaVuSans-38"/>
      </defs>
      <g transform="translate(23.675 87.065681)scale(0.16 -0.16)">
       <use xlink:href="#DejaVuSans-30"/>
       <use x="63.623047" xlink:href="#DejaVuSans-2e"/>
       <use x="95.410156" xlink:href="#DejaVuSans-38"/>
      </g>
     </g>
    </g>
    <g id="ytick_6">
     <g id="line2d_39">
      <path clip-path="url(#p40bfd5c110)" d="M 56.12 27.513663 
L 333.168 27.513663 
" style="fill:none;stroke:#b0b0b0;stroke-linecap:square;stroke-width:0.8;"/>
     </g>
     <g id="line2d_40">
      <g>
       <use style="stroke:#000000;stroke-width:0.8;" x="56.12" xlink:href="#ma12d79f9af" y="27.513663"/>
      </g>
     </g>
     <g id="text_11">
      <!-- 1.0 -->
      <g transform="translate(23.675 33.592413)scale(0.16 -0.16)">
       <use xlink:href="#DejaVuSans-31"/>
       <use x="63.623047" xlink:href="#DejaVuSans-2e"/>
       <use x="95.410156" xlink:href="#DejaVuSans-30"/>
      </g>
     </g>
    </g>
    <g id="text_12">
     <!-- Fraction of function,target pairs -->
     <defs>
      <path d="M 9.8125 72.90625 
L 51.703125 72.90625 
L 51.703125 64.59375 
L 19.671875 64.59375 
L 19.671875 43.109375 
L 48.578125 43.109375 
L 48.578125 34.8125 
L 19.671875 34.8125 
L 19.671875 0 
L 9.8125 0 
z
" id="DejaVuSans-46"/>
      <path d="M 41.109375 46.296875 
Q 39.59375 47.171875 37.8125 47.578125 
Q 36.03125 48 33.890625 48 
Q 26.265625 48 22.1875 43.046875 
Q 18.109375 38.09375 18.109375 28.8125 
L 18.109375 0 
L 9.078125 0 
L 9.078125 54.6875 
L 18.109375 54.6875 
L 18.109375 46.1875 
Q 20.953125 51.171875 25.484375 53.578125 
Q 30.03125 56 36.53125 56 
Q 37.453125 56 38.578125 55.875 
Q 39.703125 55.765625 41.0625 55.515625 
z
" id="DejaVuSans-72"/>
      <path d="M 48.78125 52.59375 
L 48.78125 44.1875 
Q 44.96875 46.296875 41.140625 47.34375 
Q 37.3125 48.390625 33.40625 48.390625 
Q 24.65625 48.390625 19.8125 42.84375 
Q 14.984375 37.3125 14.984375 27.296875 
Q 14.984375 17.28125 19.8125 11.734375 
Q 24.65625 6.203125 33.40625 6.203125 
Q 37.3125 6.203125 41.140625 7.25 
Q 44.96875 8.296875 48.78125 10.40625 
L 48.78125 2.09375 
Q 45.015625 0.34375 40.984375 -0.53125 
Q 36.96875 -1.421875 32.421875 -1.421875 
Q 20.0625 -1.421875 12.78125 6.34375 
Q 5.515625 14.109375 5.515625 27.296875 
Q 5.515625 40.671875 12.859375 48.328125 
Q 20.21875 56 33.015625 56 
Q 37.15625 56 41.109375 55.140625 
Q 45.0625 54.296875 48.78125 52.59375 
z
" id="DejaVuSans-63"/>
      <path d="M 18.3125 70.21875 
L 18.3125 54.6875 
L 36.8125 54.6875 
L 36.8125 47.703125 
L 18.3125 47.703125 
L 18.3125 18.015625 
Q 18.3125 11.328125 20.140625 9.421875 
Q 21.96875 7.515625 27.59375 7.515625 
L 36.8125 7.515625 
L 36.8125 0 
L 27.59375 0 
Q 17.1875 0 13.234375 3.875 
Q 9.28125 7.765625 9.28125 18.015625 
L 9.28125 47.703125 
L 2.6875 47.703125 
L 2.6875 54.6875 
L 9.28125 54.6875 
L 9.28125 70.21875 
z
" id="DejaVuSans-74"/>
      <path d="M 8.5 21.578125 
L 8.5 54.6875 
L 17.484375 54.6875 
L 17.484375 21.921875 
Q 17.484375 14.15625 20.5 10.265625 
Q 23.53125 6.390625 29.59375 6.390625 
Q 36.859375 6.390625 41.078125 11.03125 
Q 45.3125 15.671875 45.3125 23.6875 
L 45.3125 54.6875 
L 54.296875 54.6875 
L 54.296875 0 
L 45.3125 0 
L 45.3125 8.40625 
Q 42.046875 3.421875 37.71875 1 
Q 33.40625 -1.421875 27.6875 -1.421875 
Q 18.265625 -1.421875 13.375 4.4375 
Q 8.5 10.296875 8.5 21.578125 
z
M 31.109375 56 
z
" id="DejaVuSans-75"/>
      <path d="M 11.71875 12.40625 
L 22.015625 12.40625 
L 22.015625 4 
L 14.015625 -11.625 
L 7.71875 -11.625 
L 11.71875 4 
z
" id="DejaVuSans-2c"/>
      <path d="M 18.109375 8.203125 
L 18.109375 -20.796875 
L 9.078125 -20.796875 
L 9.078125 54.6875 
L 18.109375 54.6875 
L 18.109375 46.390625 
Q 20.953125 51.265625 25.265625 53.625 
Q 29.59375 56 35.59375 56 
Q 45.5625 56 51.78125 48.09375 
Q 58.015625 40.1875 58.015625 27.296875 
Q 58.015625 14.40625 51.78125 6.484375 
Q 45.5625 -1.421875 35.59375 -1.421875 
Q 29.59375 -1.421875 25.265625 0.953125 
Q 20.953125 3.328125 18.109375 8.203125 
z
M 48.6875 27.296875 
Q 48.6875 37.203125 44.609375 42.84375 
Q 40.53125 48.484375 33.40625 48.484375 
Q 26.265625 48.484375 22.1875 42.84375 
Q 18.109375 37.203125 18.109375 27.296875 
Q 18.109375 17.390625 22.1875 11.75 
Q 26.265625 6.109375 33.40625 6.109375 
Q 40.53125 6.109375 44.609375 11.75 
Q 48.6875 17.390625 48.6875 27.296875 
z
" id="DejaVuSans-70"/>
     </defs>
     <g transform="translate(16.139531 294.999375)rotate(-90)scale(0.17 -0.17)">
      <use xlink:href="#DejaVuSans-46"/>
      <use x="57.410156" xlink:href="#DejaVuSans-72"/>
      <use x="98.523438" xlink:href="#DejaVuSans-61"/>
      <use x="159.802734" xlink:href="#DejaVuSans-63"/>
      <use x="214.783203" xlink:href="#DejaVuSans-74"/>
      <use x="253.992188" xlink:href="#DejaVuSans-69"/>
      <use x="281.775391" xlink:href="#DejaVuSans-6f"/>
      <use x="342.957031" xlink:href="#DejaVuSans-6e"/>
      <use x="406.335938" xlink:href="#DejaVuSans-20"/>
      <use x="438.123047" xlink:href="#DejaVuSans-6f"/>
      <use x="499.304688" xlink:href="#DejaVuSans-66"/>
      <use x="534.509766" xlink:href="#DejaVuSans-20"/>
      <use x="566.296875" xlink:href="#DejaVuSans-66"/>
      <use x="601.501953" xlink:href="#DejaVuSans-75"/>
      <use x="664.880859" xlink:href="#DejaVuSans-6e"/>
      <use x="728.259766" xlink:href="#DejaVuSans-63"/>
      <use x="783.240234" xlink:href="#DejaVuSans-74"/>
      <use x="822.449219" xlink:href="#DejaVuSans-69"/>
      <use x="850.232422" xlink:href="#DejaVuSans-6f"/>
      <use x="911.414062" xlink:href="#DejaVuSans-6e"/>
      <use x="974.792969" xlink:href="#DejaVuSans-2c"/>
      <use x="1006.580078" xlink:href="#DejaVuSans-74"/>
      <use x="1045.789062" xlink:href="#DejaVuSans-61"/>
      <use x="1107.068359" xlink:href="#DejaVuSans-72"/>
      <use x="1148.166016" xlink:href="#DejaVuSans-67"/>
      <use x="1211.642578" xlink:href="#DejaVuSans-65"/>
      <use x="1273.166016" xlink:href="#DejaVuSans-74"/>
      <use x="1312.375" xlink:href="#DejaVuSans-20"/>
      <use x="1344.162109" xlink:href="#DejaVuSans-70"/>
      <use x="1407.638672" xlink:href="#DejaVuSans-61"/>
      <use x="1468.917969" xlink:href="#DejaVuSans-69"/>
      <use x="1496.701172" xlink:href="#DejaVuSans-72"/>
      <use x="1537.814453" xlink:href="#DejaVuSans-73"/>
     </g>
    </g>
   </g>
   <g id="line2d_41">
    <defs>
     <path d="M 0 1.5 
C 0.397805 1.5 0.77937 1.341951 1.06066 1.06066 
C 1.341951 0.77937 1.5 0.397805 1.5 0 
C 1.5 -0.397805 1.341951 -0.77937 1.06066 -1.06066 
C 0.77937 -1.341951 0.397805 -1.5 0 -1.5 
C -0.397805 -1.5 -0.77937 -1.341951 -1.06066 -1.06066 
C -1.341951 -0.77937 -1.5 -0.397805 -1.5 0 
C -1.5 0.397805 -1.341951 0.77937 -1.06066 1.06066 
C -0.77937 1.341951 -0.397805 1.5 0 1.5 
z
" id="mb065f6aefd" style="stroke:#f5deb3;"/>
    </defs>
    <g>
     <use style="fill:#f5deb3;stroke:#f5deb3;" x="156.691581" xlink:href="#mb065f6aefd" y="27.513663"/>
     <use style="fill:#f5deb3;stroke:#f5deb3;" x="156.691581" xlink:href="#mb065f6aefd" y="27.513663"/>
    </g>
   </g>
   <g id="line2d_42">
    <defs>
     <path d="M 0 1.5 
C 0.397805 1.5 0.77937 1.341951 1.06066 1.06066 
C 1.341951 0.77937 1.5 0.397805 1.5 0 
C 1.5 -0.397805 1.341951 -0.77937 1.06066 -1.06066 
C 0.77937 -1.341951 0.397805 -1.5 0 -1.5 
C -0.397805 -1.5 -0.77937 -1.341951 -1.06066 -1.06066 
C -1.341951 -0.77937 -1.5 -0.397805 -1.5 0 
C -1.5 0.397805 -1.341951 0.77937 -1.06066 1.06066 
C -0.77937 1.341951 -0.397805 1.5 0 1.5 
z
" id="m5f780dd1a5" style="stroke:#000080;"/>
    </defs>
    <g>
     <use style="fill:#000080;stroke:#000080;" x="160.844596" xlink:href="#m5f780dd1a5" y="27.513663"/>
     <use style="fill:#000080;stroke:#000080;" x="160.844596" xlink:href="#m5f780dd1a5" y="27.513663"/>
    </g>
   </g>
   <g id="line2d_43">
    <path d="M 28.455965 294.88 
L 28.455965 292.783009 
L 40.370217 292.783009 
L 40.370217 289.637523 
L 47.339607 289.637523 
L 47.339607 287.016284 
L 52.284468 287.016284 
L 52.284468 286.492036 
L 72.543934 286.492036 
L 72.543934 285.443541 
L 81.586754 285.443541 
L 81.586754 281.249559 
L 82.350819 281.249559 
L 82.350819 279.152568 
L 84.458185 279.152568 
L 84.458185 278.628321 
L 85.106889 278.628321 
L 85.106889 278.104073 
L 86.335171 278.104073 
L 86.335171 277.579825 
L 87.481505 277.579825 
L 87.481505 277.055578 
L 88.556144 277.055578 
L 88.556144 276.53133 
L 95.351029 276.53133 
L 95.351029 276.007082 
L 96.372436 276.007082 
L 96.372436 275.482834 
L 97.336537 275.482834 
L 97.336537 273.910091 
L 98.543252 273.910091 
L 98.543252 272.337348 
L 98.832144 272.337348 
L 98.832144 270.764605 
L 100.728876 270.764605 
L 100.728876 270.240357 
L 101.481783 270.240357 
L 101.481783 269.716109 
L 102.20309 269.716109 
L 102.20309 268.667614 
L 102.436953 268.667614 
L 102.436953 268.143366 
L 103.560793 268.143366 
L 103.560793 267.094871 
L 103.990531 267.094871 
L 103.990531 264.99788 
L 104.615641 264.99788 
L 104.615641 263.949385 
L 105.801534 263.949385 
L 105.801534 263.425137 
L 106.730875 263.425137 
L 106.730875 261.328146 
L 107.26528 261.328146 
L 107.26528 259.755403 
L 107.612537 259.755403 
L 107.612537 258.706907 
L 108.775496 258.706907 
L 108.775496 257.658412 
L 110.014853 257.658412 
L 110.014853 256.609917 
L 110.457504 256.609917 
L 110.457504 255.037173 
L 110.602556 255.037173 
L 110.602556 253.46443 
L 113.518374 253.46443 
L 113.518374 251.891687 
L 113.639848 251.891687 
L 113.639848 251.367439 
L 113.880253 251.367439 
L 113.880253 250.843192 
L 114.351204 250.843192 
L 114.351204 249.794696 
L 114.466953 249.794696 
L 114.466953 248.746201 
L 114.581927 248.746201 
L 114.581927 248.221953 
L 114.696138 248.221953 
L 114.696138 246.64921 
L 116.834124 246.64921 
L 116.834124 245.600714 
L 120.609239 245.600714 
L 120.609239 244.552219 
L 123.499282 244.552219 
L 123.567356 243.503724 
L 124.557378 243.503724 
L 124.557378 242.979476 
L 125.49347 242.979476 
L 125.49347 242.455228 
L 126.553378 242.455228 
L 126.553378 241.406733 
L 127.225332 241.406733 
L 127.225332 240.882485 
L 127.7659 240.882485 
L 127.7659 239.83399 
L 128.444143 239.83399 
L 128.444143 239.309742 
L 129.486197 239.309742 
L 129.486197 237.736999 
L 129.677716 237.736999 
L 129.677716 237.212751 
L 130.239792 237.212751 
L 130.239792 233.543017 
L 130.873129 233.543017 
L 130.873129 232.494521 
L 131.311639 232.494521 
L 131.311639 231.446026 
L 131.483957 231.446026 
L 131.483957 230.921778 
L 132.922316 230.921778 
L 132.922316 230.397531 
L 133.465568 230.397531 
L 133.465568 229.349035 
L 133.843356 229.349035 
L 133.917927 228.30054 
L 134.066106 228.30054 
L 134.066106 227.252044 
L 134.39491 227.252044 
L 134.39491 226.203549 
L 135.276571 226.203549 
L 135.276571 224.630806 
L 135.717765 224.630806 
L 135.717765 223.58231 
L 135.851269 223.58231 
L 135.851269 223.058063 
L 136.082436 223.058063 
L 136.082436 222.533815 
L 136.278134 222.533815 
L 136.278134 221.485319 
L 136.503668 221.485319 
L 136.503668 220.436824 
L 136.631228 220.436824 
L 136.631228 219.912576 
L 137.528768 219.912576 
L 137.528768 218.339833 
L 137.708755 218.339833 
L 137.708755 217.291338 
L 139.411992 217.291338 
L 139.411992 216.76709 
L 140.307161 216.76709 
L 140.307161 216.242842 
L 140.73785 216.242842 
L 140.73785 215.718594 
L 141.352234 215.718594 
L 141.352234 215.194347 
L 141.781376 215.194347 
L 141.781376 214.670099 
L 142.130987 214.670099 
L 142.177069 213.621604 
L 142.245962 213.621604 
L 142.245962 212.573108 
L 142.405645 212.573108 
L 142.405645 212.04886 
L 142.563858 212.04886 
L 142.563858 211.524613 
L 142.986095 211.524613 
L 142.986095 211.000365 
L 143.269132 211.000365 
L 143.269132 210.476117 
L 143.462385 210.476117 
L 143.462385 209.95187 
L 143.674593 209.95187 
L 143.716722 208.903374 
L 143.842493 208.903374 
L 143.842493 208.379126 
L 144.029441 208.379126 
L 144.029441 207.854879 
L 144.214377 207.854879 
L 144.214377 206.806383 
L 144.377111 206.806383 
L 144.377111 206.282136 
L 145.264845 206.282136 
L 145.264845 205.757888 
L 145.550852 205.757888 
L 145.550852 205.23364 
L 146.090659 205.23364 
L 146.108974 204.185145 
L 146.236635 204.185145 
L 146.291058 203.136649 
L 146.471234 203.136649 
L 146.471234 202.612401 
L 147.0007 202.612401 
L 147.0007 202.088154 
L 147.25944 202.088154 
L 147.25944 201.039658 
L 147.378865 201.039658 
L 147.463664 198.942667 
L 147.581683 198.942667 
L 147.632016 195.272933 
L 147.748889 195.272933 
L 147.848437 180.06975 
L 147.980278 180.06975 
L 148.062168 169.584795 
L 148.143669 169.584795 
L 148.208593 168.5363 
L 148.337711 168.5363 
L 148.337711 159.099841 
L 148.545479 159.099841 
L 148.545479 158.051345 
L 148.829074 158.051345 
L 148.891465 149.139134 
L 149.061881 149.139134 
L 149.061881 148.614886 
L 149.503224 148.614886 
L 149.56322 147.566391 
L 149.741959 147.566391 
L 149.741959 138.129932 
L 150.166392 138.129932 
L 150.166392 137.081437 
L 150.41041 137.081437 
L 150.495713 115.58728 
L 150.693124 115.58728 
L 150.749113 100.908344 
L 151.14967 100.908344 
L 151.176953 91.996133 
L 151.272106 91.996133 
L 151.380211 90.947637 
L 151.554444 90.947637 
L 151.554444 89.899142 
L 151.726929 89.899142 
L 151.726929 89.374894 
L 152.68959 89.374894 
L 152.789162 88.326399 
L 152.998857 88.326399 
L 152.998857 86.753656 
L 153.133192 86.753656 
L 153.157504 84.132417 
L 153.38677 84.132417 
L 153.494311 82.559674 
L 153.987461 82.559674 
L 154.045238 74.17171 
L 154.217413 74.17171 
L 154.251642 72.074719 
L 154.399185 72.074719 
L 154.421772 71.026224 
L 154.534263 71.026224 
L 154.534263 62.114013 
L 154.657159 62.114013 
L 154.668288 52.677554 
L 154.856386 52.677554 
L 154.87838 51.104811 
L 154.998849 51.104811 
L 154.998849 49.532068 
L 155.641489 49.532068 
L 155.714923 46.386581 
L 155.943692 46.386581 
L 155.943692 39.047113 
L 156.138844 39.047113 
L 156.138844 38.522865 
L 156.362076 38.522865 
L 156.362076 37.47437 
L 156.849095 37.47437 
L 156.849095 36.425875 
L 157.217507 36.425875 
L 157.23668 35.377379 
L 157.417765 35.377379 
L 157.465103 32.756141 
L 157.829937 32.756141 
L 157.829937 31.183397 
L 158.169046 31.183397 
L 158.169046 29.610654 
L 159.010275 29.610654 
L 159.010275 29.086407 
L 160.774549 29.086407 
L 160.844596 27.513663 
L 333.168 27.513663 
L 333.168 27.513663 
" style="fill:none;stroke:#000080;stroke-linecap:square;stroke-width:1.5;"/>
   </g>
   <g id="line2d_44">
    <defs>
     <path d="M 0 6 
C 1.591219 6 3.117479 5.367802 4.242641 4.242641 
C 5.367802 3.117479 6 1.591219 6 0 
C 6 -1.591219 5.367802 -3.117479 4.242641 -4.242641 
C 3.117479 -5.367802 1.591219 -6 0 -6 
C -1.591219 -6 -3.117479 -5.367802 -4.242641 -4.242641 
C -5.367802 -3.117479 -6 -1.591219 -6 0 
C -6 1.591219 -5.367802 3.117479 -4.242641 4.242641 
C -3.117479 5.367802 -1.591219 6 0 6 
z
" id="mc5e60ddeba" style="stroke:#000080;stroke-width:1.5;"/>
    </defs>
    <g>
     <use style="fill-opacity:0;stroke:#000080;stroke-width:1.5;" x="120.609239" xlink:href="#mc5e60ddeba" y="245.600714"/>
     <use style="fill-opacity:0;stroke:#000080;stroke-width:1.5;" x="150.749113" xlink:href="#mc5e60ddeba" y="100.908344"/>
     <use style="fill-opacity:0;stroke:#000080;stroke-width:1.5;" x="160.844596" xlink:href="#mc5e60ddeba" y="28.562159"/>
     <use style="fill-opacity:0;stroke:#000080;stroke-width:1.5;" x="160.844596" xlink:href="#mc5e60ddeba" y="27.513663"/>
     <use style="fill-opacity:0;stroke:#000080;stroke-width:1.5;" x="160.844596" xlink:href="#mc5e60ddeba" y="27.513663"/>
     <use style="fill-opacity:0;stroke:#000080;stroke-width:1.5;" x="333.168" xlink:href="#mc5e60ddeba" y="27.513663"/>
    </g>
   </g>
   <g id="line2d_45">
    <path style="fill:none;stroke:#000080;stroke-linecap:square;stroke-width:1.5;"/>
    <g/>
   </g>
   <g id="line2d_46">
    <defs>
     <path d="M 0 1.5 
C 0.397805 1.5 0.77937 1.341951 1.06066 1.06066 
C 1.341951 0.77937 1.5 0.397805 1.5 0 
C 1.5 -0.397805 1.341951 -0.77937 1.06066 -1.06066 
C 0.77937 -1.341951 0.397805 -1.5 0 -1.5 
C -0.397805 -1.5 -0.77937 -1.341951 -1.06066 -1.06066 
C -1.341951 -0.77937 -1.5 -0.397805 -1.5 0 
C -1.5 0.397805 -1.341951 0.77937 -1.06066 1.06066 
C -0.77937 1.341951 -0.397805 1.5 0 1.5 
z
" id="md91abc1b04" style="stroke:#ff00ff;"/>
    </defs>
    <g>
     <use style="fill:#ff00ff;stroke:#ff00ff;" x="163.588292" xlink:href="#md91abc1b04" y="27.513663"/>
     <use style="fill:#ff00ff;stroke:#ff00ff;" x="163.588292" xlink:href="#md91abc1b04" y="27.513663"/>
    </g>
   </g>
   <g id="line2d_47">
    <path d="M 28.455965 294.88 
L 28.455965 293.307257 
L 56.12 293.307257 
L 56.12 292.258761 
L 68.034251 292.258761 
L 68.034251 289.113275 
L 69.672503 289.113275 
L 69.672503 288.589027 
L 73.817748 288.589027 
L 73.817748 288.06478 
L 76.11297 288.06478 
L 76.11297 287.540532 
L 77.155024 287.540532 
L 77.155024 286.492036 
L 78.137499 286.492036 
L 78.137499 285.443541 
L 79.948502 285.443541 
L 79.948502 284.919293 
L 80.787138 284.919293 
L 80.787138 283.870798 
L 82.350819 283.870798 
L 82.350819 283.34655 
L 83.08236 283.34655 
L 83.08236 282.822302 
L 85.732 282.822302 
L 85.732 281.773807 
L 86.917893 281.773807 
L 86.917893 280.201064 
L 87.481505 280.201064 
L 87.481505 279.676816 
L 88.027221 279.676816 
L 88.027221 278.628321 
L 90.522701 278.628321 
L 90.522701 278.104073 
L 90.981092 278.104073 
L 90.981092 277.579825 
L 93.105847 277.579825 
L 93.105847 276.53133 
L 96.372436 276.53133 
L 96.372436 276.007082 
L 97.021141 276.007082 
L 97.021141 275.482834 
L 97.646251 275.482834 
L 97.646251 274.958587 
L 98.249422 274.958587 
L 98.249422 274.434339 
L 99.67078 274.434339 
L 99.67078 273.910091 
L 99.941473 273.910091 
L 99.941473 273.385844 
L 100.207968 273.385844 
L 100.207968 272.861596 
L 100.983527 272.861596 
L 100.983527 271.8131 
L 101.481783 271.8131 
L 101.481783 271.288853 
L 101.725597 271.288853 
L 101.725597 269.716109 
L 101.966002 269.716109 
L 101.966002 268.667614 
L 102.436953 268.667614 
L 102.436953 266.570623 
L 102.895343 266.570623 
L 102.895343 266.046375 
L 103.341826 266.046375 
L 103.341826 265.522128 
L 103.990531 265.522128 
L 103.990531 264.99788 
L 106.179321 264.99788 
L 106.179321 264.473632 
L 106.730875 264.473632 
L 106.730875 263.949385 
L 106.910863 263.949385 
L 106.910863 263.425137 
L 107.952917 263.425137 
L 107.952917 262.376641 
L 108.286687 262.376641 
L 108.286687 261.852394 
L 108.935392 261.852394 
L 108.935392 261.328146 
L 112.122219 261.328146 
L 112.122219 260.803898 
L 112.514373 260.803898 
L 112.514373 260.279651 
L 113.148711 260.279651 
L 113.148711 259.231155 
L 113.518374 259.231155 
L 113.518374 258.706907 
L 113.760471 258.706907 
L 113.760471 257.658412 
L 113.880253 257.658412 
L 113.880253 257.134164 
L 113.999206 257.134164 
L 113.999206 256.609917 
L 114.351204 256.609917 
L 114.351204 256.085669 
L 115.475044 256.085669 
L 115.58349 253.988678 
L 115.691256 253.988678 
L 115.691256 253.46443 
L 117.329507 253.46443 
L 117.329507 252.940182 
L 117.905717 252.940182 
L 117.905717 251.891687 
L 118.371562 251.891687 
L 118.371562 251.367439 
L 118.914406 251.367439 
L 118.914406 250.843192 
L 119.267005 250.843192 
L 119.267005 250.318944 
L 119.697821 250.318944 
L 119.782703 247.173458 
L 120.034863 247.173458 
L 120.034863 246.124962 
L 120.283378 246.124962 
L 120.283378 245.600714 
L 120.447081 245.600714 
L 120.447081 244.552219 
L 120.609239 244.552219 
L 120.689748 242.979476 
L 121.008065 242.979476 
L 121.008065 242.455228 
L 121.242993 242.455228 
L 121.242993 241.406733 
L 121.397846 241.406733 
L 121.397846 240.882485 
L 121.627542 240.882485 
L 121.627542 240.358237 
L 122.588877 240.358237 
L 122.660646 239.309742 
L 123.430938 239.309742 
L 123.430938 238.785494 
L 123.903739 238.785494 
L 123.970233 237.212751 
L 124.557378 237.212751 
L 124.557378 236.688503 
L 124.685175 236.688503 
L 124.685175 236.164255 
L 125.310285 236.164255 
L 125.310285 235.640008 
L 126.090357 235.640008 
L 126.090357 235.11576 
L 126.207287 235.11576 
L 126.207287 234.591512 
L 126.381204 234.591512 
L 126.381204 232.494521 
L 126.496178 232.494521 
L 126.496178 231.970274 
L 126.667211 231.970274 
L 126.667211 231.446026 
L 126.780294 231.446026 
L 126.780294 230.921778 
L 128.997851 230.921778 
L 128.997851 229.873283 
L 129.534278 229.873283 
L 129.534278 228.30054 
L 129.677716 228.30054 
L 129.772681 227.252044 
L 129.819968 227.252044 
L 129.819968 226.203549 
L 129.961052 226.203549 
L 129.961052 225.155053 
L 130.377486 225.155053 
L 130.468672 224.106558 
L 131.224827 224.106558 
L 131.224827 223.58231 
L 131.907344 223.58231 
L 131.990784 222.009567 
L 132.156459 222.009567 
L 132.156459 221.485319 
L 132.442602 221.485319 
L 132.442602 220.961072 
L 132.644112 220.961072 
L 132.644112 220.436824 
L 132.843288 220.436824 
L 132.882847 219.388328 
L 133.000983 219.388328 
L 133.000983 218.339833 
L 133.118312 218.339833 
L 133.118312 217.815585 
L 133.427329 217.815585 
L 133.427329 217.291338 
L 133.76846 217.291338 
L 133.76846 216.76709 
L 133.880682 216.76709 
L 133.880682 216.242842 
L 134.39491 216.242842 
L 134.467131 214.670099 
L 134.61067 214.670099 
L 134.61067 213.621604 
L 135.276571 213.621604 
L 135.379395 210.476117 
L 135.447604 210.476117 
L 135.447604 209.427622 
L 135.717765 209.427622 
L 135.717765 208.379126 
L 135.917635 208.379126 
L 135.983745 206.806383 
L 136.631228 206.806383 
L 136.631228 205.757888 
L 136.789358 205.757888 
L 136.789358 204.185145 
L 137.10132 204.185145 
L 137.163039 195.797181 
L 137.916386 195.797181 
L 137.975251 193.70019 
L 138.353038 193.70019 
L 138.410429 192.651695 
L 138.609803 192.651695 
L 138.666344 183.739484 
L 138.80689 183.739484 
L 138.80689 173.254529 
L 139.46596 173.254529 
L 139.546595 172.206034 
L 139.733284 172.206034 
L 139.733284 171.157538 
L 139.865404 171.157538 
L 139.865404 170.633291 
L 140.074705 170.633291 
L 140.074705 170.109043 
L 140.307161 170.109043 
L 140.307161 163.293823 
L 140.637478 163.293823 
L 140.637478 162.769575 
L 140.862496 162.769575 
L 140.961566 160.672584 
L 141.206772 160.672584 
L 141.206772 159.624089 
L 141.376358 159.624089 
L 141.472518 148.614886 
L 142.177069 148.614886 
L 142.223028 147.042143 
L 142.337391 147.042143 
L 142.428336 144.420905 
L 142.942135 144.420905 
L 143.029944 142.323914 
L 143.22589 142.323914 
L 143.22589 141.799666 
L 143.568817 141.799666 
L 143.65349 140.751171 
L 143.884213 140.751171 
L 143.884213 139.702675 
L 144.029441 139.702675 
L 144.050088 125.547987 
L 144.737725 125.547987 
L 144.797098 123.975244 
L 145.149096 123.975244 
L 145.226349 113.490289 
L 145.475048 113.490289 
L 145.475048 112.441794 
L 145.626324 112.441794 
L 145.626324 111.917546 
L 146.163802 111.917546 
L 146.218456 101.432592 
L 146.381382 101.432592 
L 146.381382 100.908344 
L 146.542779 100.908344 
L 146.596243 99.335601 
L 147.018071 99.335601 
L 147.12193 90.42339 
L 147.598477 90.42339 
L 147.648761 88.850646 
L 148.273273 88.850646 
L 148.273273 88.326399 
L 148.561358 88.326399 
L 148.561358 86.753656 
L 148.922576 86.753656 
L 148.969136 77.841444 
L 149.230624 77.841444 
L 149.291576 76.268701 
L 149.427935 76.268701 
L 149.427935 75.744454 
L 149.741959 75.744454 
L 149.741959 67.35649 
L 150.006631 67.35649 
L 150.006631 66.307995 
L 150.267289 66.307995 
L 150.324681 65.259499 
L 150.915994 65.259499 
L 150.915994 64.735251 
L 151.366735 64.735251 
L 151.407131 63.686756 
L 152.949747 63.686756 
L 152.949747 63.162508 
L 153.398752 63.162508 
L 153.398752 61.589765 
L 157.014888 61.589765 
L 157.014888 59.492774 
L 158.169046 59.492774 
L 158.169046 58.968526 
L 159.902736 58.968526 
L 160.009066 42.192599 
L 160.396068 42.192599 
L 160.396068 41.668352 
L 161.319534 41.668352 
L 161.34973 39.047113 
L 161.469983 39.047113 
L 161.469983 29.610654 
L 163.152434 29.610654 
L 163.152434 28.037911 
L 163.588292 28.037911 
L 163.588292 27.513663 
L 333.168 27.513663 
L 333.168 27.513663 
" style="fill:none;stroke:#ff00ff;stroke-linecap:square;stroke-width:1.5;"/>
   </g>
   <g id="line2d_48">
    <defs>
     <path d="M -0 8.485281 
L 5.091169 0 
L 0 -8.485281 
L -5.091169 -0 
z
" id="me8ea42b067" style="stroke:#ff00ff;stroke-linejoin:miter;stroke-width:1.5;"/>
    </defs>
    <g>
     <use style="fill-opacity:0;stroke:#ff00ff;stroke-linejoin:miter;stroke-width:1.5;" x="88.027221" xlink:href="#me8ea42b067" y="279.676816"/>
     <use style="fill-opacity:0;stroke:#ff00ff;stroke-linejoin:miter;stroke-width:1.5;" x="138.666344" xlink:href="#me8ea42b067" y="191.603199"/>
     <use style="fill-opacity:0;stroke:#ff00ff;stroke-linejoin:miter;stroke-width:1.5;" x="163.588292" xlink:href="#me8ea42b067" y="28.037911"/>
     <use style="fill-opacity:0;stroke:#ff00ff;stroke-linejoin:miter;stroke-width:1.5;" x="163.588292" xlink:href="#me8ea42b067" y="27.513663"/>
     <use style="fill-opacity:0;stroke:#ff00ff;stroke-linejoin:miter;stroke-width:1.5;" x="163.588292" xlink:href="#me8ea42b067" y="27.513663"/>
     <use style="fill-opacity:0;stroke:#ff00ff;stroke-linejoin:miter;stroke-width:1.5;" x="333.168" xlink:href="#me8ea42b067" y="27.513663"/>
    </g>
   </g>
   <g id="line2d_49">
    <path style="fill:none;stroke:#ff00ff;stroke-linecap:square;stroke-width:1.5;"/>
    <g/>
   </g>
   <g id="line2d_50">
    <defs>
     <path d="M 0 1.5 
C 0.397805 1.5 0.77937 1.341951 1.06066 1.06066 
C 1.341951 0.77937 1.5 0.397805 1.5 0 
C 1.5 -0.397805 1.341951 -0.77937 1.06066 -1.06066 
C 0.77937 -1.341951 0.397805 -1.5 0 -1.5 
C -0.397805 -1.5 -0.77937 -1.341951 -1.06066 -1.06066 
C -1.341951 -0.77937 -1.5 -0.397805 -1.5 0 
C -1.5 0.397805 -1.341951 0.77937 -1.06066 1.06066 
C -0.77937 1.341951 -0.397805 1.5 0 1.5 
z
" id="mf546802174" style="stroke:#ff7500;"/>
    </defs>
    <g>
     <use style="fill:#ff7500;stroke:#ff7500;" x="167.996832" xlink:href="#mf546802174" y="27.513663"/>
     <use style="fill:#ff7500;stroke:#ff7500;" x="167.996832" xlink:href="#mf546802174" y="27.513663"/>
    </g>
   </g>
   <g id="line2d_51">
    <path d="M 28.455965 294.88 
L 28.455965 294.355752 
L 40.370217 294.355752 
L 40.370217 293.307257 
L 56.12 293.307257 
L 56.12 291.734514 
L 59.253858 291.734514 
L 59.253858 290.686018 
L 66.223248 290.686018 
L 66.223248 289.637523 
L 68.034251 289.637523 
L 68.034251 289.113275 
L 71.168109 289.113275 
L 71.168109 288.589027 
L 72.543934 288.589027 
L 72.543934 287.016284 
L 73.817748 287.016284 
L 73.817748 285.967789 
L 76.11297 285.967789 
L 76.11297 284.919293 
L 79.066841 284.919293 
L 79.066841 284.395046 
L 79.948502 284.395046 
L 79.948502 283.870798 
L 80.787138 283.870798 
L 80.787138 282.298055 
L 84.458185 282.298055 
L 84.458185 281.249559 
L 86.335171 281.249559 
L 86.335171 279.676816 
L 87.481505 279.676816 
L 87.481505 279.152568 
L 89.069276 279.152568 
L 89.069276 278.628321 
L 94.26507 278.628321 
L 94.26507 277.055578 
L 95.351029 277.055578 
L 95.351029 276.53133 
L 97.646251 276.53133 
L 97.646251 274.434339 
L 98.249422 274.434339 
L 98.249422 273.910091 
L 99.67078 273.910091 
L 99.67078 273.385844 
L 100.728876 273.385844 
L 100.728876 272.861596 
L 100.983527 272.861596 
L 100.983527 270.764605 
L 102.20309 270.764605 
L 102.20309 269.716109 
L 103.560793 269.716109 
L 103.560793 269.191862 
L 103.777005 269.191862 
L 103.777005 268.667614 
L 104.409787 268.667614 
L 104.409787 267.094871 
L 104.819059 267.094871 
L 104.819059 266.046375 
L 105.218813 266.046375 
L 105.218813 265.522128 
L 106.910863 265.522128 
L 106.910863 264.99788 
L 107.088985 264.99788 
L 107.088985 264.473632 
L 107.952917 264.473632 
L 107.952917 263.949385 
L 111.170827 263.949385 
L 111.170827 262.376641 
L 111.585031 262.376641 
L 111.585031 261.852394 
L 111.989488 261.852394 
L 111.989488 260.803898 
L 112.514373 260.803898 
L 112.514373 260.279651 
L 112.770924 260.279651 
L 112.770924 257.134164 
L 113.396034 257.134164 
L 113.396034 255.561421 
L 113.880253 255.561421 
L 113.880253 255.037173 
L 114.466953 255.037173 
L 114.466953 254.512926 
L 115.365909 254.512926 
L 115.365909 252.415935 
L 115.58349 252.415935 
L 115.58349 251.891687 
L 116.010559 251.891687 
L 116.010559 251.367439 
L 116.631902 251.367439 
L 116.73331 250.318944 
L 117.811013 250.318944 
L 117.905717 248.746201 
L 118.186736 248.746201 
L 118.186736 248.221953 
L 119.09161 248.221953 
L 119.09161 247.697705 
L 119.612517 247.697705 
L 119.697821 246.64921 
L 120.034863 246.64921 
L 120.034863 245.600714 
L 120.447081 245.600714 
L 120.447081 245.076467 
L 120.929036 245.076467 
L 120.929036 244.552219 
L 121.397846 244.552219 
L 121.397846 244.027971 
L 122.874172 244.027971 
L 122.874172 243.503724 
L 123.015063 243.503724 
L 123.015063 242.979476 
L 123.224258 242.979476 
L 123.293428 241.93098 
L 123.430938 241.93098 
L 123.430938 241.406733 
L 123.635161 241.406733 
L 123.7027 240.358237 
L 124.621395 240.358237 
L 124.621395 239.83399 
L 125.125128 239.83399 
L 125.125128 238.261246 
L 125.371564 238.261246 
L 125.371564 237.212751 
L 125.734717 237.212751 
L 125.734717 236.688503 
L 125.972626 236.688503 
L 125.972626 236.164255 
L 126.610389 236.164255 
L 126.667211 234.591512 
L 126.780294 234.591512 
L 126.780294 234.067265 
L 126.892639 234.067265 
L 126.892639 233.543017 
L 127.05979 233.543017 
L 127.05979 231.970274 
L 128.341524 231.970274 
L 128.341524 231.446026 
L 130.054468 231.446026 
L 130.054468 230.921778 
L 130.33171 230.921778 
L 130.33171 230.397531 
L 130.694545 230.397531 
L 130.694545 229.349035 
L 131.049878 229.349035 
L 131.049878 228.30054 
L 131.224827 228.30054 
L 131.224827 227.252044 
L 131.354881 227.252044 
L 131.354881 226.727797 
L 131.865471 226.727797 
L 131.907344 224.106558 
L 133.157244 224.106558 
L 133.196088 222.009567 
L 133.503723 222.009567 
L 133.503723 221.485319 
L 133.617681 221.485319 
L 133.693236 219.912576 
L 134.61067 219.912576 
L 134.61067 219.388328 
L 134.999329 219.388328 
L 134.999329 218.864081 
L 135.173129 218.864081 
L 135.276571 215.194347 
L 135.310914 215.194347 
L 135.413533 214.145851 
L 136.213149 214.145851 
L 136.213149 213.621604 
L 136.407373 213.621604 
L 136.503668 212.04886 
L 136.946047 212.04886 
L 136.946047 211.524613 
L 137.132207 211.524613 
L 137.132207 210.476117 
L 137.285815 210.476117 
L 137.285815 209.95187 
L 137.438063 209.95187 
L 137.438063 208.379126 
L 137.886877 208.379126 
L 137.886877 207.330631 
L 138.09238 207.330631 
L 138.09238 206.806383 
L 138.381758 206.806383 
L 138.381758 205.757888 
L 138.946296 205.757888 
L 139.057012 198.942667 
L 139.08458 198.942667 
L 139.167019 197.369924 
L 139.276327 197.369924 
L 139.276327 191.078952 
L 139.626853 191.078952 
L 139.626853 190.554704 
L 139.786254 190.554704 
L 139.891706 189.506209 
L 140.178407 189.506209 
L 140.230025 180.593997 
L 141.182408 180.593997 
L 141.182408 173.778777 
L 141.352234 173.778777 
L 141.352234 164.866566 
L 141.568144 164.866566 
L 141.639516 163.293823 
L 141.710592 163.293823 
L 141.757814 151.760373 
L 141.875303 151.760373 
L 141.875303 150.711877 
L 142.742908 150.711877 
L 142.742908 150.18763 
L 143.008034 150.18763 
L 143.029944 140.751171 
L 143.22589 140.751171 
L 143.312265 132.363207 
L 143.505037 132.363207 
L 143.505037 131.314712 
L 143.905035 131.314712 
L 143.905035 130.790464 
L 144.029441 130.790464 
L 144.029441 130.266216 
L 144.214377 130.266216 
L 144.295937 122.926748 
L 144.377111 122.926748 
L 144.377111 120.829757 
L 144.498158 120.829757 
L 144.498158 119.781262 
L 144.836567 119.781262 
L 144.934844 118.732766 
L 145.110339 118.732766 
L 145.187766 108.77206 
L 145.417974 108.77206 
L 145.417974 107.723564 
L 146.417379 107.723564 
L 146.489148 106.675069 
L 146.596243 106.675069 
L 146.614027 105.626573 
L 146.790867 105.626573 
L 146.878609 104.05383 
L 146.965905 104.05383 
L 146.965905 103.529583 
L 147.173625 103.529583 
L 147.173625 102.481087 
L 147.831886 102.481087 
L 147.881493 93.044628 
L 148.143669 93.044628 
L 148.143669 91.996133 
L 148.289405 91.996133 
L 148.289405 91.471885 
L 148.449898 91.471885 
L 148.465865 90.42339 
L 148.577222 90.42339 
L 148.656323 88.850646 
L 149.261127 88.850646 
L 149.261127 88.326399 
L 150.122968 88.326399 
L 150.137454 86.229408 
L 150.353304 86.229408 
L 150.353304 84.656665 
L 152.677103 84.656665 
L 152.75189 83.608169 
L 152.962038 83.608169 
L 152.962038 82.559674 
L 153.290609 82.559674 
L 153.290609 82.035426 
L 154.455596 82.035426 
L 154.455596 72.598967 
L 155.107638 72.598967 
L 155.107638 72.074719 
L 155.30174 72.074719 
L 155.30174 71.550472 
L 156.159258 71.550472 
L 156.159258 69.977729 
L 156.422458 69.977729 
L 156.512635 62.114013 
L 156.572491 62.114013 
L 156.622212 59.492774 
L 156.770519 59.492774 
L 156.770519 58.968526 
L 157.159859 58.968526 
L 157.159859 57.395783 
L 160.412006 57.395783 
L 160.412006 56.871536 
L 160.712045 56.871536 
L 160.712045 55.82304 
L 160.867881 55.82304 
L 160.867881 55.298792 
L 162.94748 55.298792 
L 162.94748 44.813838 
L 163.428644 44.813838 
L 163.428644 44.28959 
L 164.103566 44.28959 
L 164.174103 41.144104 
L 165.277031 41.144104 
L 165.277031 40.095609 
L 166.448514 40.095609 
L 166.482119 29.086407 
L 167.852778 29.086407 
L 167.852778 28.037911 
L 167.996832 28.037911 
L 167.996832 27.513663 
L 333.168 27.513663 
L 333.168 27.513663 
" style="fill:none;stroke:#ff7500;stroke-linecap:square;stroke-width:1.5;"/>
   </g>
   <g id="line2d_52">
    <defs>
     <path d="M 0 -6 
L -1.347084 -1.854102 
L -5.706339 -1.854102 
L -2.179628 0.708204 
L -3.526712 4.854102 
L -0 2.291796 
L 3.526712 4.854102 
L 2.179628 0.708204 
L 5.706339 -1.854102 
L 1.347084 -1.854102 
z
" id="m95914b5e19" style="stroke:#ff7500;stroke-linejoin:bevel;stroke-width:1.5;"/>
    </defs>
    <g>
     <use style="fill-opacity:0;stroke:#ff7500;stroke-linejoin:bevel;stroke-width:1.5;" x="118.186736" xlink:href="#m95914b5e19" y="248.746201"/>
     <use style="fill-opacity:0;stroke:#ff7500;stroke-linejoin:bevel;stroke-width:1.5;" x="141.710592" xlink:href="#m95914b5e19" y="163.293823"/>
     <use style="fill-opacity:0;stroke:#ff7500;stroke-linejoin:bevel;stroke-width:1.5;" x="167.996832" xlink:href="#m95914b5e19" y="28.037911"/>
     <use style="fill-opacity:0;stroke:#ff7500;stroke-linejoin:bevel;stroke-width:1.5;" x="167.996832" xlink:href="#m95914b5e19" y="27.513663"/>
     <use style="fill-opacity:0;stroke:#ff7500;stroke-linejoin:bevel;stroke-width:1.5;" x="167.996832" xlink:href="#m95914b5e19" y="27.513663"/>
     <use style="fill-opacity:0;stroke:#ff7500;stroke-linejoin:bevel;stroke-width:1.5;" x="333.168" xlink:href="#m95914b5e19" y="27.513663"/>
    </g>
   </g>
   <g id="line2d_53">
    <path style="fill:none;stroke:#ff7500;stroke-linecap:square;stroke-width:1.5;"/>
    <g/>
   </g>
   <g id="line2d_54">
    <defs>
     <path d="M 0 1.5 
C 0.397805 1.5 0.77937 1.341951 1.06066 1.06066 
C 1.341951 0.77937 1.5 0.397805 1.5 0 
C 1.5 -0.397805 1.341951 -0.77937 1.06066 -1.06066 
C 0.77937 -1.341951 0.397805 -1.5 0 -1.5 
C -0.397805 -1.5 -0.77937 -1.341951 -1.06066 -1.06066 
C -1.341951 -0.77937 -1.5 -0.397805 -1.5 0 
C -1.5 0.397805 -1.341951 0.77937 -1.06066 1.06066 
C -0.77937 1.341951 -0.397805 1.5 0 1.5 
z
" id="mb52668aa5b" style="stroke:#6495ed;"/>
    </defs>
    <g>
     <use style="fill:#6495ed;stroke:#6495ed;" x="171.935544" xlink:href="#mb52668aa5b" y="27.513663"/>
     <use style="fill:#6495ed;stroke:#6495ed;" x="171.935544" xlink:href="#mb52668aa5b" y="27.513663"/>
    </g>
   </g>
   <g id="line2d_55">
    <path d="M 47.339607 294.88 
L 47.339607 293.831505 
L 52.284468 293.831505 
L 52.284468 292.258761 
L 61.903497 292.258761 
L 61.903497 291.734514 
L 66.223248 291.734514 
L 66.223248 290.686018 
L 73.817748 290.686018 
L 73.817748 289.637523 
L 75.003641 289.637523 
L 75.003641 289.113275 
L 76.11297 289.113275 
L 76.11297 288.589027 
L 77.155024 288.589027 
L 77.155024 287.540532 
L 78.137499 287.540532 
L 78.137499 287.016284 
L 79.948502 287.016284 
L 79.948502 286.492036 
L 80.787138 286.492036 
L 80.787138 285.967789 
L 84.458185 285.967789 
L 84.458185 284.919293 
L 86.917893 284.919293 
L 86.917893 283.34655 
L 87.481505 283.34655 
L 87.481505 282.822302 
L 89.567532 282.822302 
L 89.567532 281.249559 
L 90.981092 281.249559 
L 90.981092 280.201064 
L 92.287186 280.201064 
L 92.287186 279.152568 
L 93.501005 279.152568 
L 93.501005 278.104073 
L 93.887283 278.104073 
L 93.887283 277.579825 
L 94.634732 277.579825 
L 94.634732 277.055578 
L 96.372436 277.055578 
L 96.372436 276.53133 
L 96.699848 276.53133 
L 96.699848 276.007082 
L 97.950482 276.007082 
L 97.950482 275.482834 
L 98.832144 275.482834 
L 98.832144 274.958587 
L 99.941473 274.958587 
L 99.941473 273.385844 
L 101.481783 273.385844 
L 101.481783 272.861596 
L 102.20309 272.861596 
L 102.20309 271.8131 
L 102.436953 271.8131 
L 102.436953 271.288853 
L 104.409787 271.288853 
L 104.409787 270.240357 
L 105.415256 270.240357 
L 105.415256 269.716109 
L 105.60948 269.716109 
L 105.60948 266.570623 
L 107.783569 266.570623 
L 107.783569 266.046375 
L 108.286687 266.046375 
L 108.286687 265.522128 
L 108.451173 265.522128 
L 108.451173 264.473632 
L 108.6141 264.473632 
L 108.6141 263.949385 
L 110.457504 263.949385 
L 110.457504 263.425137 
L 111.030511 263.425137 
L 111.030511 262.900889 
L 112.770924 262.900889 
L 112.770924 262.376641 
L 113.272818 262.376641 
L 113.272818 261.852394 
L 113.880253 261.852394 
L 113.880253 261.328146 
L 114.117341 261.328146 
L 114.117341 260.803898 
L 115.691256 260.803898 
L 115.691256 260.279651 
L 116.010559 260.279651 
L 116.010559 259.755403 
L 117.715785 259.755403 
L 117.715785 258.706907 
L 118.463235 258.706907 
L 118.554421 257.134164 
L 119.09161 257.134164 
L 119.09161 255.561421 
L 119.267005 255.561421 
L 119.354037 254.512926 
L 119.440629 254.512926 
L 119.440629 253.46443 
L 119.697821 253.46443 
L 119.697821 252.940182 
L 119.95122 252.940182 
L 120.034863 251.367439 
L 120.118102 251.367439 
L 120.118102 250.843192 
L 120.283378 250.843192 
L 120.283378 250.318944 
L 121.086731 250.318944 
L 121.086731 249.794696 
L 121.397846 249.794696 
L 121.397846 249.270448 
L 122.151854 249.270448 
L 122.151854 248.746201 
L 122.444434 248.746201 
L 122.444434 248.221953 
L 122.588877 248.221953 
L 122.588877 247.697705 
L 123.293428 247.697705 
L 123.293428 246.64921 
L 123.567356 246.64921 
L 123.567356 246.124962 
L 123.903739 246.124962 
L 123.970233 245.076467 
L 124.493121 245.076467 
L 124.493121 244.552219 
L 124.875107 244.552219 
L 124.875107 244.027971 
L 125.49347 244.027971 
L 125.49347 243.503724 
L 125.913457 243.503724 
L 125.913457 242.979476 
L 126.148921 242.979476 
L 126.148921 241.93098 
L 126.381204 241.93098 
L 126.381204 241.406733 
L 128.186438 241.406733 
L 128.238289 240.358237 
L 128.341524 240.358237 
L 128.341524 239.83399 
L 129.534278 239.83399 
L 129.534278 239.309742 
L 129.725264 239.309742 
L 129.819968 238.261246 
L 130.468672 238.261246 
L 130.468672 237.736999 
L 131.268288 237.736999 
L 131.268288 237.212751 
L 131.483957 237.212751 
L 131.483957 236.688503 
L 131.865471 236.688503 
L 131.949115 235.11576 
L 132.563791 235.11576 
L 132.644112 234.067265 
L 133.350594 234.067265 
L 133.389004 231.970274 
L 133.6555 231.970274 
L 133.6555 231.446026 
L 133.76846 231.446026 
L 133.76846 230.921778 
L 134.61067 230.921778 
L 134.681992 229.873283 
L 135.447604 229.873283 
L 135.447604 229.349035 
L 135.583215 229.349035 
L 135.583215 228.824787 
L 136.631228 228.824787 
L 136.631228 228.30054 
L 136.883542 228.30054 
L 136.977214 226.203549 
L 137.438063 226.203549 
L 137.438063 225.679301 
L 137.945844 225.679301 
L 137.975251 218.339833 
L 139.519758 218.339833 
L 139.519758 217.815585 
L 140.887317 217.815585 
L 140.887317 217.291338 
L 142.428336 217.291338 
L 142.428336 216.76709 
L 144.457904 216.76709 
L 144.457904 215.718594 
L 145.187766 215.718594 
L 145.187766 215.194347 
L 146.127269 215.194347 
L 146.127269 214.670099 
L 146.790867 214.670099 
L 146.790867 214.145851 
L 147.815319 214.145851 
L 147.815319 213.621604 
L 148.577222 213.621604 
L 148.577222 213.097356 
L 148.719342 213.097356 
L 148.719342 211.524613 
L 148.891465 211.524613 
L 148.891465 210.476117 
L 149.771569 210.476117 
L 149.874805 209.427622 
L 149.977424 209.427622 
L 149.977424 208.903374 
L 150.424656 208.903374 
L 150.424656 208.379126 
L 150.721141 208.379126 
L 150.721141 207.854879 
L 151.217797 207.854879 
L 151.258545 206.806383 
L 151.527754 206.806383 
L 151.554444 204.709392 
L 151.988956 204.709392 
L 151.988956 193.70019 
L 152.144276 193.70019 
L 152.144276 193.175943 
L 152.31097 193.175943 
L 152.387364 191.603199 
L 152.75189 191.603199 
L 152.851103 177.972759 
L 153.035598 177.972759 
L 153.084464 176.924263 
L 153.278551 176.924263 
L 153.36278 175.875768 
L 153.73091 175.875768 
L 153.801259 174.303025 
L 153.894612 174.303025 
L 153.987461 161.721079 
L 154.171668 161.721079 
L 154.205988 151.236125 
L 154.410482 151.236125 
L 154.410482 150.711877 
L 154.779183 150.711877 
L 154.779183 149.663382 
L 155.118479 149.663382 
L 155.215743 137.081437 
L 155.291014 137.081437 
L 155.291014 136.557189 
L 155.514869 136.557189 
L 155.55718 127.12073 
L 156.087703 127.12073 
L 156.087703 126.596482 
L 156.351992 126.596482 
L 156.402354 125.547987 
L 156.492636 125.547987 
L 156.552562 114.014537 
L 156.78036 114.014537 
L 156.888249 93.568876 
L 157.284519 93.568876 
L 157.284519 92.520381 
L 157.521738 92.520381 
L 157.540575 79.938435 
L 157.765022 79.938435 
L 157.765022 79.414188 
L 158.59038 79.414188 
L 158.59038 78.365692 
L 158.722702 78.365692 
L 158.766584 65.783747 
L 159.130837 65.783747 
L 159.130837 64.735251 
L 159.267595 64.735251 
L 159.276106 63.686756 
L 159.445454 63.686756 
L 159.445454 63.162508 
L 160.033511 63.162508 
L 160.033511 49.532068 
L 165.686233 49.532068 
L 165.686233 49.00782 
L 165.872751 49.00782 
L 165.872751 36.950122 
L 171.935544 36.950122 
L 171.935544 27.513663 
L 333.168 27.513663 
L 333.168 27.513663 
" style="fill:none;stroke:#6495ed;stroke-linecap:square;stroke-width:1.5;"/>
   </g>
   <g id="line2d_56">
    <defs>
     <path d="M -0 6 
L 6 -6 
L -6 -6 
z
" id="m10356342e9" style="stroke:#6495ed;stroke-linejoin:miter;stroke-width:1.5;"/>
    </defs>
    <g>
     <use style="fill-opacity:0;stroke:#6495ed;stroke-linejoin:miter;stroke-width:1.5;" x="137.975251" xlink:href="#m10356342e9" y="225.155053"/>
     <use style="fill-opacity:0;stroke:#6495ed;stroke-linejoin:miter;stroke-width:1.5;" x="159.276106" xlink:href="#m10356342e9" y="64.211004"/>
     <use style="fill-opacity:0;stroke:#6495ed;stroke-linejoin:miter;stroke-width:1.5;" x="171.935544" xlink:href="#m10356342e9" y="36.950122"/>
     <use style="fill-opacity:0;stroke:#6495ed;stroke-linejoin:miter;stroke-width:1.5;" x="171.935544" xlink:href="#m10356342e9" y="27.513663"/>
     <use style="fill-opacity:0;stroke:#6495ed;stroke-linejoin:miter;stroke-width:1.5;" x="171.935544" xlink:href="#m10356342e9" y="27.513663"/>
     <use style="fill-opacity:0;stroke:#6495ed;stroke-linejoin:miter;stroke-width:1.5;" x="333.168" xlink:href="#m10356342e9" y="27.513663"/>
    </g>
   </g>
   <g id="line2d_57">
    <path style="fill:none;stroke:#6495ed;stroke-linecap:square;stroke-width:1.5;"/>
    <g/>
   </g>
   <g id="line2d_58">
    <path d="M 333.168 27.513663 
L 363.64328 289.532673 
" style="fill:none;stroke:#6495ed;stroke-linecap:square;stroke-width:1.5;"/>
    <g>
     <use style="fill-opacity:0;stroke:#6495ed;stroke-linejoin:miter;stroke-width:1.5;" x="333.168" xlink:href="#m10356342e9" y="27.513663"/>
     <use style="fill-opacity:0;stroke:#6495ed;stroke-linejoin:miter;stroke-width:1.5;" x="363.64328" xlink:href="#m10356342e9" y="289.532673"/>
    </g>
   </g>
   <g id="line2d_59">
    <path d="M 333.168 27.513663 
L 363.64328 225.364752 
" style="fill:none;stroke:#ff7500;stroke-linecap:square;stroke-width:1.5;"/>
    <g>
     <use style="fill-opacity:0;stroke:#ff7500;stroke-linejoin:bevel;stroke-width:1.5;" x="333.168" xlink:href="#m95914b5e19" y="27.513663"/>
     <use style="fill-opacity:0;stroke:#ff7500;stroke-linejoin:bevel;stroke-width:1.5;" x="363.64328" xlink:href="#m95914b5e19" y="225.364752"/>
    </g>
   </g>
   <g id="line2d_60">
    <path d="M 333.168 27.513663 
L 363.64328 161.196832 
" style="fill:none;stroke:#ff00ff;stroke-linecap:square;stroke-width:1.5;"/>
    <g>
     <use style="fill-opacity:0;stroke:#ff00ff;stroke-linejoin:miter;stroke-width:1.5;" x="333.168" xlink:href="#me8ea42b067" y="27.513663"/>
     <use style="fill-opacity:0;stroke:#ff00ff;stroke-linejoin:miter;stroke-width:1.5;" x="363.64328" xlink:href="#me8ea42b067" y="161.196832"/>
    </g>
   </g>
   <g id="line2d_61">
    <path d="M 333.168 27.513663 
L 363.64328 97.028911 
" style="fill:none;stroke:#000080;stroke-linecap:square;stroke-width:1.5;"/>
    <g>
     <use style="fill-opacity:0;stroke:#000080;stroke-width:1.5;" x="333.168" xlink:href="#mc5e60ddeba" y="27.513663"/>
     <use style="fill-opacity:0;stroke:#000080;stroke-width:1.5;" x="363.64328" xlink:href="#mc5e60ddeba" y="97.028911"/>
    </g>
   </g>
   <g id="line2d_62">
    <path d="M 333.168 294.88 
L 333.168 27.513663 
" style="fill:none;stroke:#000000;stroke-linecap:square;stroke-width:1.5;"/>
   </g>
   <g id="patch_3">
    <path d="M 56.12 294.88 
L 56.12 24.84 
" style="fill:none;stroke:#000000;stroke-linecap:square;stroke-linejoin:miter;stroke-width:0.8;"/>
   </g>
   <g id="patch_4">
    <path d="M 333.168 294.88 
L 333.168 24.84 
" style="fill:none;stroke:#000000;stroke-linecap:square;stroke-linejoin:miter;stroke-width:0.8;"/>
   </g>
   <g id="patch_5">
    <path d="M 56.12 294.88 
L 333.168 294.88 
" style="fill:none;stroke:#000000;stroke-linecap:square;stroke-linejoin:miter;stroke-width:0.8;"/>
   </g>
   <g id="patch_6">
    <path d="M 56.12 24.84 
L 333.168 24.84 
" style="fill:none;stroke:#000000;stroke-linecap:square;stroke-linejoin:miter;stroke-width:0.8;"/>
   </g>
   <g id="text_13">
    <!-- KL-BIPOP-CM -->
    <defs>
     <path d="M 9.8125 72.90625 
L 19.671875 72.90625 
L 19.671875 42.09375 
L 52.390625 72.90625 
L 65.09375 72.90625 
L 28.90625 38.921875 
L 67.671875 0 
L 54.6875 0 
L 19.671875 35.109375 
L 19.671875 0 
L 9.8125 0 
z
" id="DejaVuSans-4b"/>
     <path d="M 9.8125 72.90625 
L 19.671875 72.90625 
L 19.671875 8.296875 
L 55.171875 8.296875 
L 55.171875 0 
L 9.8125 0 
z
" id="DejaVuSans-4c"/>
     <path d="M 19.671875 34.8125 
L 19.671875 8.109375 
L 35.5 8.109375 
Q 43.453125 8.109375 47.28125 11.40625 
Q 51.125 14.703125 51.125 21.484375 
Q 51.125 28.328125 47.28125 31.5625 
Q 43.453125 34.8125 35.5 34.8125 
z
M 19.671875 64.796875 
L 19.671875 42.828125 
L 34.28125 42.828125 
Q 41.5 42.828125 45.03125 45.53125 
Q 48.578125 48.25 48.578125 53.8125 
Q 48.578125 59.328125 45.03125 62.0625 
Q 41.5 64.796875 34.28125 64.796875 
z
M 9.8125 72.90625 
L 35.015625 72.90625 
Q 46.296875 72.90625 52.390625 68.21875 
Q 58.5 63.53125 58.5 54.890625 
Q 58.5 48.1875 55.375 44.234375 
Q 52.25 40.28125 46.1875 39.3125 
Q 53.46875 37.75 57.5 32.78125 
Q 61.53125 27.828125 61.53125 20.40625 
Q 61.53125 10.640625 54.890625 5.3125 
Q 48.25 0 35.984375 0 
L 9.8125 0 
z
" id="DejaVuSans-42"/>
     <path d="M 9.8125 72.90625 
L 19.671875 72.90625 
L 19.671875 0 
L 9.8125 0 
z
" id="DejaVuSans-49"/>
     <path d="M 19.671875 64.796875 
L 19.671875 37.40625 
L 32.078125 37.40625 
Q 38.96875 37.40625 42.71875 40.96875 
Q 46.484375 44.53125 46.484375 51.125 
Q 46.484375 57.671875 42.71875 61.234375 
Q 38.96875 64.796875 32.078125 64.796875 
z
M 9.8125 72.90625 
L 32.078125 72.90625 
Q 44.34375 72.90625 50.609375 67.359375 
Q 56.890625 61.8125 56.890625 51.125 
Q 56.890625 40.328125 50.609375 34.8125 
Q 44.34375 29.296875 32.078125 29.296875 
L 19.671875 29.296875 
L 19.671875 0 
L 9.8125 0 
z
" id="DejaVuSans-50"/>
     <path d="M 39.40625 66.21875 
Q 28.65625 66.21875 22.328125 58.203125 
Q 16.015625 50.203125 16.015625 36.375 
Q 16.015625 22.609375 22.328125 14.59375 
Q 28.65625 6.59375 39.40625 6.59375 
Q 50.140625 6.59375 56.421875 14.59375 
Q 62.703125 22.609375 62.703125 36.375 
Q 62.703125 50.203125 56.421875 58.203125 
Q 50.140625 66.21875 39.40625 66.21875 
z
M 39.40625 74.21875 
Q 54.734375 74.21875 63.90625 63.9375 
Q 73.09375 53.65625 73.09375 36.375 
Q 73.09375 19.140625 63.90625 8.859375 
Q 54.734375 -1.421875 39.40625 -1.421875 
Q 24.03125 -1.421875 14.8125 8.828125 
Q 5.609375 19.09375 5.609375 36.375 
Q 5.609375 53.65625 14.8125 63.9375 
Q 24.03125 74.21875 39.40625 74.21875 
z
" id="DejaVuSans-4f"/>
     <path d="M 64.40625 67.28125 
L 64.40625 56.890625 
Q 59.421875 61.53125 53.78125 63.8125 
Q 48.140625 66.109375 41.796875 66.109375 
Q 29.296875 66.109375 22.65625 58.46875 
Q 16.015625 50.828125 16.015625 36.375 
Q 16.015625 21.96875 22.65625 14.328125 
Q 29.296875 6.6875 41.796875 6.6875 
Q 48.140625 6.6875 53.78125 8.984375 
Q 59.421875 11.28125 64.40625 15.921875 
L 64.40625 5.609375 
Q 59.234375 2.09375 53.4375 0.328125 
Q 47.65625 -1.421875 41.21875 -1.421875 
Q 24.65625 -1.421875 15.125 8.703125 
Q 5.609375 18.84375 5.609375 36.375 
Q 5.609375 53.953125 15.125 64.078125 
Q 24.65625 74.21875 41.21875 74.21875 
Q 47.75 74.21875 53.53125 72.484375 
Q 59.328125 70.75 64.40625 67.28125 
z
" id="DejaVuSans-43"/>
     <path d="M 9.8125 72.90625 
L 24.515625 72.90625 
L 43.109375 23.296875 
L 61.8125 72.90625 
L 76.515625 72.90625 
L 76.515625 0 
L 66.890625 0 
L 66.890625 64.015625 
L 48.09375 14.015625 
L 38.1875 14.015625 
L 19.390625 64.015625 
L 19.390625 0 
L 9.8125 0 
z
" id="DejaVuSans-4d"/>
    </defs>
    <g transform="translate(369.18424 294.223611)scale(0.17 -0.17)">
     <use xlink:href="#DejaVuSans-4b"/>
     <use x="65.576172" xlink:href="#DejaVuSans-4c"/>
     <use x="121.273438" xlink:href="#DejaVuSans-2d"/>
     <use x="157.310547" xlink:href="#DejaVuSans-42"/>
     <use x="225.914062" xlink:href="#DejaVuSans-49"/>
     <use x="255.40625" xlink:href="#DejaVuSans-50"/>
     <use x="315.708984" xlink:href="#DejaVuSans-4f"/>
     <use x="394.419922" xlink:href="#DejaVuSans-50"/>
     <use x="454.691406" xlink:href="#DejaVuSans-2d"/>
     <use x="490.775391" xlink:href="#DejaVuSans-43"/>
     <use x="560.599609" xlink:href="#DejaVuSans-4d"/>
    </g>
   </g>
   <g id="text_14">
    <!-- R-SHADE-Tan -->
    <defs>
     <path d="M 44.390625 34.1875 
Q 47.5625 33.109375 50.5625 29.59375 
Q 53.5625 26.078125 56.59375 19.921875 
L 66.609375 0 
L 56 0 
L 46.6875 18.703125 
Q 43.0625 26.03125 39.671875 28.421875 
Q 36.28125 30.8125 30.421875 30.8125 
L 19.671875 30.8125 
L 19.671875 0 
L 9.8125 0 
L 9.8125 72.90625 
L 32.078125 72.90625 
Q 44.578125 72.90625 50.734375 67.671875 
Q 56.890625 62.453125 56.890625 51.90625 
Q 56.890625 45.015625 53.6875 40.46875 
Q 50.484375 35.9375 44.390625 34.1875 
z
M 19.671875 64.796875 
L 19.671875 38.921875 
L 32.078125 38.921875 
Q 39.203125 38.921875 42.84375 42.21875 
Q 46.484375 45.515625 46.484375 51.90625 
Q 46.484375 58.296875 42.84375 61.546875 
Q 39.203125 64.796875 32.078125 64.796875 
z
" id="DejaVuSans-52"/>
     <path d="M 53.515625 70.515625 
L 53.515625 60.890625 
Q 47.90625 63.578125 42.921875 64.890625 
Q 37.9375 66.21875 33.296875 66.21875 
Q 25.25 66.21875 20.875 63.09375 
Q 16.5 59.96875 16.5 54.203125 
Q 16.5 49.359375 19.40625 46.890625 
Q 22.3125 44.4375 30.421875 42.921875 
L 36.375 41.703125 
Q 47.40625 39.59375 52.65625 34.296875 
Q 57.90625 29 57.90625 20.125 
Q 57.90625 9.515625 50.796875 4.046875 
Q 43.703125 -1.421875 29.984375 -1.421875 
Q 24.8125 -1.421875 18.96875 -0.25 
Q 13.140625 0.921875 6.890625 3.21875 
L 6.890625 13.375 
Q 12.890625 10.015625 18.65625 8.296875 
Q 24.421875 6.59375 29.984375 6.59375 
Q 38.421875 6.59375 43.015625 9.90625 
Q 47.609375 13.234375 47.609375 19.390625 
Q 47.609375 24.75 44.3125 27.78125 
Q 41.015625 30.8125 33.5 32.328125 
L 27.484375 33.5 
Q 16.453125 35.6875 11.515625 40.375 
Q 6.59375 45.0625 6.59375 53.421875 
Q 6.59375 63.09375 13.40625 68.65625 
Q 20.21875 74.21875 32.171875 74.21875 
Q 37.3125 74.21875 42.625 73.28125 
Q 47.953125 72.359375 53.515625 70.515625 
z
" id="DejaVuSans-53"/>
     <path d="M 9.8125 72.90625 
L 19.671875 72.90625 
L 19.671875 43.015625 
L 55.515625 43.015625 
L 55.515625 72.90625 
L 65.375 72.90625 
L 65.375 0 
L 55.515625 0 
L 55.515625 34.71875 
L 19.671875 34.71875 
L 19.671875 0 
L 9.8125 0 
z
" id="DejaVuSans-48"/>
     <path d="M 34.1875 63.1875 
L 20.796875 26.90625 
L 47.609375 26.90625 
z
M 28.609375 72.90625 
L 39.796875 72.90625 
L 67.578125 0 
L 57.328125 0 
L 50.6875 18.703125 
L 17.828125 18.703125 
L 11.1875 0 
L 0.78125 0 
z
" id="DejaVuSans-41"/>
     <path d="M 19.671875 64.796875 
L 19.671875 8.109375 
L 31.59375 8.109375 
Q 46.6875 8.109375 53.6875 14.9375 
Q 60.6875 21.78125 60.6875 36.53125 
Q 60.6875 51.171875 53.6875 57.984375 
Q 46.6875 64.796875 31.59375 64.796875 
z
M 9.8125 72.90625 
L 30.078125 72.90625 
Q 51.265625 72.90625 61.171875 64.09375 
Q 71.09375 55.28125 71.09375 36.53125 
Q 71.09375 17.671875 61.125 8.828125 
Q 51.171875 0 30.078125 0 
L 9.8125 0 
z
" id="DejaVuSans-44"/>
     <path d="M 9.8125 72.90625 
L 55.90625 72.90625 
L 55.90625 64.59375 
L 19.671875 64.59375 
L 19.671875 43.015625 
L 54.390625 43.015625 
L 54.390625 34.71875 
L 19.671875 34.71875 
L 19.671875 8.296875 
L 56.78125 8.296875 
L 56.78125 0 
L 9.8125 0 
z
" id="DejaVuSans-45"/>
     <path d="M -0.296875 72.90625 
L 61.375 72.90625 
L 61.375 64.59375 
L 35.5 64.59375 
L 35.5 0 
L 25.59375 0 
L 25.59375 64.59375 
L -0.296875 64.59375 
z
" id="DejaVuSans-54"/>
    </defs>
    <g transform="translate(369.18424 230.05569)scale(0.17 -0.17)">
     <use xlink:href="#DejaVuSans-52"/>
     <use x="69.419922" xlink:href="#DejaVuSans-2d"/>
     <use x="105.503906" xlink:href="#DejaVuSans-53"/>
     <use x="168.980469" xlink:href="#DejaVuSans-48"/>
     <use x="244.175781" xlink:href="#DejaVuSans-41"/>
     <use x="312.583984" xlink:href="#DejaVuSans-44"/>
     <use x="389.585938" xlink:href="#DejaVuSans-45"/>
     <use x="452.769531" xlink:href="#DejaVuSans-2d"/>
     <use x="488.712891" xlink:href="#DejaVuSans-54"/>
     <use x="549.546875" xlink:href="#DejaVuSans-61"/>
     <use x="610.826172" xlink:href="#DejaVuSans-6e"/>
    </g>
   </g>
   <g id="text_15">
    <!-- SHADE-LM-PO -->
    <g transform="translate(369.18424 165.887769)scale(0.17 -0.17)">
     <use xlink:href="#DejaVuSans-53"/>
     <use x="63.476562" xlink:href="#DejaVuSans-48"/>
     <use x="138.671875" xlink:href="#DejaVuSans-41"/>
     <use x="207.080078" xlink:href="#DejaVuSans-44"/>
     <use x="284.082031" xlink:href="#DejaVuSans-45"/>
     <use x="347.265625" xlink:href="#DejaVuSans-2d"/>
     <use x="383.349609" xlink:href="#DejaVuSans-4c"/>
     <use x="439.0625" xlink:href="#DejaVuSans-4d"/>
     <use x="525.341797" xlink:href="#DejaVuSans-2d"/>
     <use x="561.425781" xlink:href="#DejaVuSans-50"/>
     <use x="621.728516" xlink:href="#DejaVuSans-4f"/>
    </g>
   </g>
   <g id="text_16">
    <!-- SHADE-LM -->
    <g transform="translate(369.18424 101.719848)scale(0.17 -0.17)">
     <use xlink:href="#DejaVuSans-53"/>
     <use x="63.476562" xlink:href="#DejaVuSans-48"/>
     <use x="138.671875" xlink:href="#DejaVuSans-41"/>
     <use x="207.080078" xlink:href="#DejaVuSans-44"/>
     <use x="284.082031" xlink:href="#DejaVuSans-45"/>
     <use x="347.265625" xlink:href="#DejaVuSans-2d"/>
     <use x="383.349609" xlink:href="#DejaVuSans-4c"/>
     <use x="439.0625" xlink:href="#DejaVuSans-4d"/>
    </g>
   </g>
   <g id="text_17">
    <!-- best 2009 -->
    <defs>
     <path d="M 48.6875 27.296875 
Q 48.6875 37.203125 44.609375 42.84375 
Q 40.53125 48.484375 33.40625 48.484375 
Q 26.265625 48.484375 22.1875 42.84375 
Q 18.109375 37.203125 18.109375 27.296875 
Q 18.109375 17.390625 22.1875 11.75 
Q 26.265625 6.109375 33.40625 6.109375 
Q 40.53125 6.109375 44.609375 11.75 
Q 48.6875 17.390625 48.6875 27.296875 
z
M 18.109375 46.390625 
Q 20.953125 51.265625 25.265625 53.625 
Q 29.59375 56 35.59375 56 
Q 45.5625 56 51.78125 48.09375 
Q 58.015625 40.1875 58.015625 27.296875 
Q 58.015625 14.40625 51.78125 6.484375 
Q 45.5625 -1.421875 35.59375 -1.421875 
Q 29.59375 -1.421875 25.265625 0.953125 
Q 20.953125 3.328125 18.109375 8.203125 
L 18.109375 0 
L 9.078125 0 
L 9.078125 75.984375 
L 18.109375 75.984375 
z
" id="DejaVuSans-62"/>
     <path d="M 10.984375 1.515625 
L 10.984375 10.5 
Q 14.703125 8.734375 18.5 7.8125 
Q 22.3125 6.890625 25.984375 6.890625 
Q 35.75 6.890625 40.890625 13.453125 
Q 46.046875 20.015625 46.78125 33.40625 
Q 43.953125 29.203125 39.59375 26.953125 
Q 35.25 24.703125 29.984375 24.703125 
Q 19.046875 24.703125 12.671875 31.3125 
Q 6.296875 37.9375 6.296875 49.421875 
Q 6.296875 60.640625 12.9375 67.421875 
Q 19.578125 74.21875 30.609375 74.21875 
Q 43.265625 74.21875 49.921875 64.515625 
Q 56.59375 54.828125 56.59375 36.375 
Q 56.59375 19.140625 48.40625 8.859375 
Q 40.234375 -1.421875 26.421875 -1.421875 
Q 22.703125 -1.421875 18.890625 -0.6875 
Q 15.09375 0.046875 10.984375 1.515625 
z
M 30.609375 32.421875 
Q 37.25 32.421875 41.125 36.953125 
Q 45.015625 41.5 45.015625 49.421875 
Q 45.015625 57.28125 41.125 61.84375 
Q 37.25 66.40625 30.609375 66.40625 
Q 23.96875 66.40625 20.09375 61.84375 
Q 16.21875 57.28125 16.21875 49.421875 
Q 16.21875 41.5 20.09375 36.953125 
Q 23.96875 32.421875 30.609375 32.421875 
z
" id="DejaVuSans-39"/>
    </defs>
    <g transform="translate(369.18424 37.551928)scale(0.17 -0.17)">
     <use xlink:href="#DejaVuSans-62"/>
     <use x="63.476562" xlink:href="#DejaVuSans-65"/>
     <use x="125" xlink:href="#DejaVuSans-73"/>
     <use x="177.099609" xlink:href="#DejaVuSans-74"/>
     <use x="216.308594" xlink:href="#DejaVuSans-20"/>
     <use x="248.095703" xlink:href="#DejaVuSans-32"/>
     <use x="311.71875" xlink:href="#DejaVuSans-30"/>
     <use x="375.341797" xlink:href="#DejaVuSans-30"/>
     <use x="438.964844" xlink:href="#DejaVuSans-39"/>
    </g>
   </g>
   <g id="text_18">
    <!-- bbob f7, 5-D -->
    <defs>
     <path d="M 8.203125 72.90625 
L 55.078125 72.90625 
L 55.078125 68.703125 
L 28.609375 0 
L 18.3125 0 
L 43.21875 64.59375 
L 8.203125 64.59375 
z
" id="DejaVuSans-37"/>
     <path d="M 10.796875 72.90625 
L 49.515625 72.90625 
L 49.515625 64.59375 
L 19.828125 64.59375 
L 19.828125 46.734375 
Q 21.96875 47.46875 24.109375 47.828125 
Q 26.265625 48.1875 28.421875 48.1875 
Q 40.625 48.1875 47.75 41.5 
Q 54.890625 34.8125 54.890625 23.390625 
Q 54.890625 11.625 47.5625 5.09375 
Q 40.234375 -1.421875 26.90625 -1.421875 
Q 22.3125 -1.421875 17.546875 -0.640625 
Q 12.796875 0.140625 7.71875 1.703125 
L 7.71875 11.625 
Q 12.109375 9.234375 16.796875 8.0625 
Q 21.484375 6.890625 26.703125 6.890625 
Q 35.15625 6.890625 40.078125 11.328125 
Q 45.015625 15.765625 45.015625 23.390625 
Q 45.015625 31 40.078125 35.4375 
Q 35.15625 39.890625 26.703125 39.890625 
Q 22.75 39.890625 18.8125 39.015625 
Q 14.890625 38.140625 10.796875 36.28125 
z
" id="DejaVuSans-35"/>
    </defs>
    <g transform="translate(58.89048 35.290806)scale(0.102 -0.102)">
     <use xlink:href="#DejaVuSans-62"/>
     <use x="63.476562" xlink:href="#DejaVuSans-62"/>
     <use x="126.953125" xlink:href="#DejaVuSans-6f"/>
     <use x="188.134766" xlink:href="#DejaVuSans-62"/>
     <use x="251.611328" xlink:href="#DejaVuSans-20"/>
     <use x="283.398438" xlink:href="#DejaVuSans-66"/>
     <use x="318.603516" xlink:href="#DejaVuSans-37"/>
     <use x="382.226562" xlink:href="#DejaVuSans-2c"/>
     <use x="414.013672" xlink:href="#DejaVuSans-20"/>
     <use x="445.800781" xlink:href="#DejaVuSans-35"/>
     <use x="509.423828" xlink:href="#DejaVuSans-2d"/>
     <use x="545.507812" xlink:href="#DejaVuSans-44"/>
    </g>
    <!-- 51 targets: 100..1e-08 -->
    <defs>
     <path d="M 11.71875 12.40625 
L 22.015625 12.40625 
L 22.015625 0 
L 11.71875 0 
z
M 11.71875 51.703125 
L 22.015625 51.703125 
L 22.015625 39.3125 
L 11.71875 39.3125 
z
" id="DejaVuSans-3a"/>
    </defs>
    <g transform="translate(58.89048 46.712575)scale(0.102 -0.102)">
     <use xlink:href="#DejaVuSans-35"/>
     <use x="63.623047" xlink:href="#DejaVuSans-31"/>
     <use x="127.246094" xlink:href="#DejaVuSans-20"/>
     <use x="159.033203" xlink:href="#DejaVuSans-74"/>
     <use x="198.242188" xlink:href="#DejaVuSans-61"/>
     <use x="259.521484" xlink:href="#DejaVuSans-72"/>
     <use x="300.619141" xlink:href="#DejaVuSans-67"/>
     <use x="364.095703" xlink:href="#DejaVuSans-65"/>
     <use x="425.619141" xlink:href="#DejaVuSans-74"/>
     <use x="464.828125" xlink:href="#DejaVuSans-73"/>
     <use x="516.927734" xlink:href="#DejaVuSans-3a"/>
     <use x="550.619141" xlink:href="#DejaVuSans-20"/>
     <use x="582.40625" xlink:href="#DejaVuSans-31"/>
     <use x="646.029297" xlink:href="#DejaVuSans-30"/>
     <use x="709.652344" xlink:href="#DejaVuSans-30"/>
     <use x="773.275391" xlink:href="#DejaVuSans-2e"/>
     <use x="805.0625" xlink:href="#DejaVuSans-2e"/>
     <use x="836.849609" xlink:href="#DejaVuSans-31"/>
     <use x="900.472656" xlink:href="#DejaVuSans-65"/>
     <use x="961.996094" xlink:href="#DejaVuSans-2d"/>
     <use x="998.080078" xlink:href="#DejaVuSans-30"/>
     <use x="1061.703125" xlink:href="#DejaVuSans-38"/>
    </g>
    <!-- 15 instances -->
    <g transform="translate(58.89048 58.134344)scale(0.102 -0.102)">
     <use xlink:href="#DejaVuSans-31"/>
     <use x="63.623047" xlink:href="#DejaVuSans-35"/>
     <use x="127.246094" xlink:href="#DejaVuSans-20"/>
     <use x="159.033203" xlink:href="#DejaVuSans-69"/>
     <use x="186.816406" xlink:href="#DejaVuSans-6e"/>
     <use x="250.195312" xlink:href="#DejaVuSans-73"/>
     <use x="302.294922" xlink:href="#DejaVuSans-74"/>
     <use x="341.503906" xlink:href="#DejaVuSans-61"/>
     <use x="402.783203" xlink:href="#DejaVuSans-6e"/>
     <use x="466.162109" xlink:href="#DejaVuSans-63"/>
     <use x="521.142578" xlink:href="#DejaVuSans-65"/>
     <use x="582.666016" xlink:href="#DejaVuSans-73"/>
    </g>
   </g>
   <g id="text_19">
    <!-- v2.4 -->
    <g style="fill:#808080;" transform="translate(183.733063 290.099912)scale(0.1 -0.1)">
     <use xlink:href="#DejaVuSans-76"/>
     <use x="59.179688" xlink:href="#DejaVuSans-32"/>
     <use x="122.802734" xlink:href="#DejaVuSans-2e"/>
     <use x="154.589844" xlink:href="#DejaVuSans-34"/>
    </g>
   </g>
   <g id="text_20">
    <!-- 7 Step-ellipsoid -->
    <g transform="translate(117.434625 18.84)scale(0.2 -0.2)">
     <use xlink:href="#DejaVuSans-37"/>
     <use x="63.623047" xlink:href="#DejaVuSans-20"/>
     <use x="95.410156" xlink:href="#DejaVuSans-53"/>
     <use x="158.886719" xlink:href="#DejaVuSans-74"/>
     <use x="198.095703" xlink:href="#DejaVuSans-65"/>
     <use x="259.619141" xlink:href="#DejaVuSans-70"/>
     <use x="323.095703" xlink:href="#DejaVuSans-2d"/>
     <use x="359.179688" xlink:href="#DejaVuSans-65"/>
     <use x="420.703125" xlink:href="#DejaVuSans-6c"/>
     <use x="448.486328" xlink:href="#DejaVuSans-6c"/>
     <use x="476.269531" xlink:href="#DejaVuSans-69"/>
     <use x="504.052734" xlink:href="#DejaVuSans-70"/>
     <use x="567.529297" xlink:href="#DejaVuSans-73"/>
     <use x="619.628906" xlink:href="#DejaVuSans-6f"/>
     <use x="680.810547" xlink:href="#DejaVuSans-69"/>
     <use x="708.59375" xlink:href="#DejaVuSans-64"/>
    </g>
   </g>
  </g>
 </g>
 <defs>
  <clipPath id="p40bfd5c110">
   <rect height="270.04" width="277.048" x="56.12" y="24.84"/>
  </clipPath>
 </defs>
</svg>
