<?xml version="1.0" encoding="utf-8" standalone="no"?>
<!DOCTYPE svg PUBLIC "-//W3C//DTD SVG 1.1//EN"
  "http://www.w3.org/Graphics/SVG/1.1/DTD/svg11.dtd">
<!-- Created with matplotlib (http://matplotlib.org/) -->
<svg height="345.6pt" version="1.1" viewBox="0 0 460.8 345.6" width="460.8pt" xmlns="http://www.w3.org/2000/svg" xmlns:xlink="http://www.w3.org/1999/xlink">
 <defs>
  <style type="text/css">
*{stroke-linecap:butt;stroke-linejoin:round;}
  </style>
 </defs>
 <g id="figure_1">
  <g id="patch_1">
   <path d="M 0 345.6 
L 460.8 345.6 
L 460.8 0 
L 0 0 
z
" style="fill:#ffffff;"/>
  </g>
  <g id="axes_1">
   <g id="patch_2">
    <path d="M 56.12 294.88 
L 333.168 294.88 
L 333.168 24.84 
L 56.12 24.84 
z
" style="fill:#ffffff;"/>
   </g>
   <g id="line2d_1">
    <path d="M 118.325541 294.88 
L 118.325541 289.637523 
L 134.63745 289.637523 
L 134.63745 284.395046 
L 139.08458 284.395046 
L 139.08458 279.152568 
L 142.675983 279.152568 
L 142.675983 273.910091 
L 145.989576 273.910091 
L 145.989576 268.667614 
L 150.043071 268.667614 
L 150.043071 263.425137 
L 157.014888 263.425137 
L 157.014888 258.18266 
L 158.261818 258.18266 
L 158.261818 252.940182 
L 158.273097 252.940182 
L 158.273097 242.455228 
L 158.286622 242.455228 
L 158.286622 237.212751 
L 158.34511 237.212751 
L 158.34511 231.970274 
L 158.347356 231.970274 
L 158.347356 226.727797 
L 158.349601 226.727797 
L 158.349601 221.485319 
L 158.36531 221.485319 
L 158.36531 216.242842 
L 158.372038 216.242842 
L 158.372038 211.000365 
L 158.381004 211.000365 
L 158.381004 205.757888 
L 158.389966 205.757888 
L 158.389966 200.515411 
L 158.392205 200.515411 
L 158.392205 195.272933 
L 158.394445 195.272933 
L 158.394445 190.030456 
L 158.416823 190.030456 
L 158.416823 184.787979 
L 158.423531 184.787979 
L 158.423531 174.303025 
L 158.425766 174.303025 
L 158.425766 169.060547 
L 158.448103 169.060547 
L 158.448103 153.333116 
L 158.483783 153.333116 
L 158.483783 148.090639 
L 158.49937 148.090639 
L 158.49937 142.848162 
L 158.501595 142.848162 
L 158.501595 132.363207 
L 158.521612 132.363207 
L 158.521612 121.878253 
L 158.523834 121.878253 
L 158.523834 111.393298 
L 158.577091 111.393298 
L 158.577091 106.150821 
L 158.583737 106.150821 
L 158.583737 100.908344 
L 158.588166 100.908344 
L 158.588166 95.665867 
L 158.592593 95.665867 
L 158.592593 90.42339 
L 158.594807 90.42339 
L 158.594807 85.180912 
L 158.59702 85.180912 
L 158.59702 79.938435 
L 193.07617 79.938435 
L 193.07617 74.695958 
L 193.077063 74.695958 
L 193.077063 69.453481 
L 208.432163 69.453481 
L 208.432163 53.726049 
L 208.432285 53.726049 
L 208.432285 37.998618 
L 208.432529 37.998618 
L 208.432529 32.756141 
L 208.43265 32.756141 
L 208.43265 27.513663 
L 333.168 27.513663 
" style="fill:none;stroke:#f5deb3;stroke-linecap:square;stroke-width:4;"/>
   </g>
   <g id="line2d_2">
    <defs>
     <path d="M -0 7.778175 
L 7.778175 0 
L 0 -7.778175 
L -7.778175 -0 
z
" id="mebfdc5deef" style="stroke:#f5deb3;stroke-linejoin:miter;stroke-width:1.5;"/>
    </defs>
    <g>
     <use style="fill:#f5deb3;stroke:#f5deb3;stroke-linejoin:miter;stroke-width:1.5;" x="150.043071" xlink:href="#mebfdc5deef" y="263.425137"/>
     <use style="fill:#f5deb3;stroke:#f5deb3;stroke-linejoin:miter;stroke-width:1.5;" x="158.577091" xlink:href="#mebfdc5deef" y="106.150821"/>
     <use style="fill:#f5deb3;stroke:#f5deb3;stroke-linejoin:miter;stroke-width:1.5;" x="208.43265" xlink:href="#mebfdc5deef" y="32.756141"/>
     <use style="fill:#f5deb3;stroke:#f5deb3;stroke-linejoin:miter;stroke-width:1.5;" x="208.43265" xlink:href="#mebfdc5deef" y="27.513663"/>
     <use style="fill:#f5deb3;stroke:#f5deb3;stroke-linejoin:miter;stroke-width:1.5;" x="333.168" xlink:href="#mebfdc5deef" y="27.513663"/>
    </g>
   </g>
   <g id="line2d_3">
    <path style="fill:none;stroke:#f5deb3;stroke-linecap:square;stroke-width:4;"/>
    <g/>
   </g>
   <g id="line2d_4">
    <path d="M 333.168 27.513663 
L 363.64328 32.86099 
" style="fill:none;stroke:#f5deb3;stroke-linecap:square;stroke-width:4;"/>
    <g>
     <use style="fill:#f5deb3;stroke:#f5deb3;stroke-linejoin:miter;stroke-width:1.5;" x="333.168" xlink:href="#mebfdc5deef" y="27.513663"/>
     <use style="fill:#f5deb3;stroke:#f5deb3;stroke-linejoin:miter;stroke-width:1.5;" x="363.64328" xlink:href="#mebfdc5deef" y="32.86099"/>
    </g>
   </g>
   <g id="matplotlib.axis_1">
    <g id="xtick_1">
     <g id="line2d_5">
      <path clip-path="url(#p9aa652411a)" d="M 56.12 294.88 
L 56.12 24.84 
" style="fill:none;stroke:#b0b0b0;stroke-linecap:square;stroke-width:0.8;"/>
     </g>
     <g id="line2d_6">
      <defs>
       <path d="M 0 0 
L 0 3.5 
" id="m6f137e6b04" style="stroke:#000000;stroke-width:0.8;"/>
      </defs>
      <g>
       <use style="stroke:#000000;stroke-width:0.8;" x="56.12" xlink:href="#m6f137e6b04" y="294.88"/>
      </g>
     </g>
     <g id="text_1">
      <!-- 0 -->
      <defs>
       <path d="M 31.78125 66.40625 
Q 24.171875 66.40625 20.328125 58.90625 
Q 16.5 51.421875 16.5 36.375 
Q 16.5 21.390625 20.328125 13.890625 
Q 24.171875 6.390625 31.78125 6.390625 
Q 39.453125 6.390625 43.28125 13.890625 
Q 47.125 21.390625 47.125 36.375 
Q 47.125 51.421875 43.28125 58.90625 
Q 39.453125 66.40625 31.78125 66.40625 
z
M 31.78125 74.21875 
Q 44.046875 74.21875 50.515625 64.515625 
Q 56.984375 54.828125 56.984375 36.375 
Q 56.984375 17.96875 50.515625 8.265625 
Q 44.046875 -1.421875 31.78125 -1.421875 
Q 19.53125 -1.421875 13.0625 8.265625 
Q 6.59375 17.96875 6.59375 36.375 
Q 6.59375 54.828125 13.0625 64.515625 
Q 19.53125 74.21875 31.78125 74.21875 
z
" id="DejaVuSans-30"/>
      </defs>
      <g transform="translate(49.7575 317.076875)scale(0.2 -0.2)">
       <use xlink:href="#DejaVuSans-30"/>
      </g>
     </g>
    </g>
    <g id="xtick_2">
     <g id="line2d_7">
      <path clip-path="url(#p9aa652411a)" d="M 135.276571 294.88 
L 135.276571 24.84 
" style="fill:none;stroke:#b0b0b0;stroke-linecap:square;stroke-width:0.8;"/>
     </g>
     <g id="line2d_8">
      <g>
       <use style="stroke:#000000;stroke-width:0.8;" x="135.276571" xlink:href="#m6f137e6b04" y="294.88"/>
      </g>
     </g>
     <g id="text_2">
      <!-- 2 -->
      <defs>
       <path d="M 19.1875 8.296875 
L 53.609375 8.296875 
L 53.609375 0 
L 7.328125 0 
L 7.328125 8.296875 
Q 12.9375 14.109375 22.625 23.890625 
Q 32.328125 33.6875 34.8125 36.53125 
Q 39.546875 41.84375 41.421875 45.53125 
Q 43.3125 49.21875 43.3125 52.78125 
Q 43.3125 58.59375 39.234375 62.25 
Q 35.15625 65.921875 28.609375 65.921875 
Q 23.96875 65.921875 18.8125 64.3125 
Q 13.671875 62.703125 7.8125 59.421875 
L 7.8125 69.390625 
Q 13.765625 71.78125 18.9375 73 
Q 24.125 74.21875 28.421875 74.21875 
Q 39.75 74.21875 46.484375 68.546875 
Q 53.21875 62.890625 53.21875 53.421875 
Q 53.21875 48.921875 51.53125 44.890625 
Q 49.859375 40.875 45.40625 35.40625 
Q 44.1875 33.984375 37.640625 27.21875 
Q 31.109375 20.453125 19.1875 8.296875 
z
" id="DejaVuSans-32"/>
      </defs>
      <g transform="translate(128.914071 317.076875)scale(0.2 -0.2)">
       <use xlink:href="#DejaVuSans-32"/>
      </g>
     </g>
    </g>
    <g id="xtick_3">
     <g id="line2d_9">
      <path clip-path="url(#p9aa652411a)" d="M 214.433143 294.88 
L 214.433143 24.84 
" style="fill:none;stroke:#b0b0b0;stroke-linecap:square;stroke-width:0.8;"/>
     </g>
     <g id="line2d_10">
      <g>
       <use style="stroke:#000000;stroke-width:0.8;" x="214.433143" xlink:href="#m6f137e6b04" y="294.88"/>
      </g>
     </g>
     <g id="text_3">
      <!-- 4 -->
      <defs>
       <path d="M 37.796875 64.3125 
L 12.890625 25.390625 
L 37.796875 25.390625 
z
M 35.203125 72.90625 
L 47.609375 72.90625 
L 47.609375 25.390625 
L 58.015625 25.390625 
L 58.015625 17.1875 
L 47.609375 17.1875 
L 47.609375 0 
L 37.796875 0 
L 37.796875 17.1875 
L 4.890625 17.1875 
L 4.890625 26.703125 
z
" id="DejaVuSans-34"/>
      </defs>
      <g transform="translate(208.070643 317.076875)scale(0.2 -0.2)">
       <use xlink:href="#DejaVuSans-34"/>
      </g>
     </g>
    </g>
    <g id="xtick_4">
     <g id="line2d_11">
      <path clip-path="url(#p9aa652411a)" d="M 293.589714 294.88 
L 293.589714 24.84 
" style="fill:none;stroke:#b0b0b0;stroke-linecap:square;stroke-width:0.8;"/>
     </g>
     <g id="line2d_12">
      <g>
       <use style="stroke:#000000;stroke-width:0.8;" x="293.589714" xlink:href="#m6f137e6b04" y="294.88"/>
      </g>
     </g>
     <g id="text_4">
      <!-- 6 -->
      <defs>
       <path d="M 33.015625 40.375 
Q 26.375 40.375 22.484375 35.828125 
Q 18.609375 31.296875 18.609375 23.390625 
Q 18.609375 15.53125 22.484375 10.953125 
Q 26.375 6.390625 33.015625 6.390625 
Q 39.65625 6.390625 43.53125 10.953125 
Q 47.40625 15.53125 47.40625 23.390625 
Q 47.40625 31.296875 43.53125 35.828125 
Q 39.65625 40.375 33.015625 40.375 
z
M 52.59375 71.296875 
L 52.59375 62.3125 
Q 48.875 64.0625 45.09375 64.984375 
Q 41.3125 65.921875 37.59375 65.921875 
Q 27.828125 65.921875 22.671875 59.328125 
Q 17.53125 52.734375 16.796875 39.40625 
Q 19.671875 43.65625 24.015625 45.921875 
Q 28.375 48.1875 33.59375 48.1875 
Q 44.578125 48.1875 50.953125 41.515625 
Q 57.328125 34.859375 57.328125 23.390625 
Q 57.328125 12.15625 50.6875 5.359375 
Q 44.046875 -1.421875 33.015625 -1.421875 
Q 20.359375 -1.421875 13.671875 8.265625 
Q 6.984375 17.96875 6.984375 36.375 
Q 6.984375 53.65625 15.1875 63.9375 
Q 23.390625 74.21875 37.203125 74.21875 
Q 40.921875 74.21875 44.703125 73.484375 
Q 48.484375 72.75 52.59375 71.296875 
z
" id="DejaVuSans-36"/>
      </defs>
      <g transform="translate(287.227214 317.076875)scale(0.2 -0.2)">
       <use xlink:href="#DejaVuSans-36"/>
      </g>
     </g>
    </g>
    <g id="xtick_5">
     <g id="line2d_13">
      <path clip-path="url(#p9aa652411a)" d="M 56.12 294.88 
L 56.12 24.84 
" style="fill:none;stroke:#b0b0b0;stroke-linecap:square;stroke-width:0.8;"/>
     </g>
     <g id="line2d_14">
      <defs>
       <path d="M 0 0 
L 0 2 
" id="m43cf2bec62" style="stroke:#000000;stroke-width:0.6;"/>
      </defs>
      <g>
       <use style="stroke:#000000;stroke-width:0.6;" x="56.12" xlink:href="#m43cf2bec62" y="294.88"/>
      </g>
     </g>
    </g>
    <g id="xtick_6">
     <g id="line2d_15">
      <path clip-path="url(#p9aa652411a)" d="M 95.698286 294.88 
L 95.698286 24.84 
" style="fill:none;stroke:#b0b0b0;stroke-linecap:square;stroke-width:0.8;"/>
     </g>
     <g id="line2d_16">
      <g>
       <use style="stroke:#000000;stroke-width:0.6;" x="95.698286" xlink:href="#m43cf2bec62" y="294.88"/>
      </g>
     </g>
    </g>
    <g id="xtick_7">
     <g id="line2d_17">
      <path clip-path="url(#p9aa652411a)" d="M 135.276571 294.88 
L 135.276571 24.84 
" style="fill:none;stroke:#b0b0b0;stroke-linecap:square;stroke-width:0.8;"/>
     </g>
     <g id="line2d_18">
      <g>
       <use style="stroke:#000000;stroke-width:0.6;" x="135.276571" xlink:href="#m43cf2bec62" y="294.88"/>
      </g>
     </g>
    </g>
    <g id="xtick_8">
     <g id="line2d_19">
      <path clip-path="url(#p9aa652411a)" d="M 174.854857 294.88 
L 174.854857 24.84 
" style="fill:none;stroke:#b0b0b0;stroke-linecap:square;stroke-width:0.8;"/>
     </g>
     <g id="line2d_20">
      <g>
       <use style="stroke:#000000;stroke-width:0.6;" x="174.854857" xlink:href="#m43cf2bec62" y="294.88"/>
      </g>
     </g>
    </g>
    <g id="xtick_9">
     <g id="line2d_21">
      <path clip-path="url(#p9aa652411a)" d="M 214.433143 294.88 
L 214.433143 24.84 
" style="fill:none;stroke:#b0b0b0;stroke-linecap:square;stroke-width:0.8;"/>
     </g>
     <g id="line2d_22">
      <g>
       <use style="stroke:#000000;stroke-width:0.6;" x="214.433143" xlink:href="#m43cf2bec62" y="294.88"/>
      </g>
     </g>
    </g>
    <g id="xtick_10">
     <g id="line2d_23">
      <path clip-path="url(#p9aa652411a)" d="M 254.011429 294.88 
L 254.011429 24.84 
" style="fill:none;stroke:#b0b0b0;stroke-linecap:square;stroke-width:0.8;"/>
     </g>
     <g id="line2d_24">
      <g>
       <use style="stroke:#000000;stroke-width:0.6;" x="254.011429" xlink:href="#m43cf2bec62" y="294.88"/>
      </g>
     </g>
    </g>
    <g id="xtick_11">
     <g id="line2d_25">
      <path clip-path="url(#p9aa652411a)" d="M 293.589714 294.88 
L 293.589714 24.84 
" style="fill:none;stroke:#b0b0b0;stroke-linecap:square;stroke-width:0.8;"/>
     </g>
     <g id="line2d_26">
      <g>
       <use style="stroke:#000000;stroke-width:0.6;" x="293.589714" xlink:href="#m43cf2bec62" y="294.88"/>
      </g>
     </g>
    </g>
    <g id="xtick_12">
     <g id="line2d_27">
      <path clip-path="url(#p9aa652411a)" d="M 333.168 294.88 
L 333.168 24.84 
" style="fill:none;stroke:#b0b0b0;stroke-linecap:square;stroke-width:0.8;"/>
     </g>
     <g id="line2d_28">
      <g>
       <use style="stroke:#000000;stroke-width:0.6;" x="333.168" xlink:href="#m43cf2bec62" y="294.88"/>
      </g>
     </g>
    </g>
    <g id="text_5">
     <!-- log10(# f-evals / dimension) -->
     <defs>
      <path d="M 9.421875 75.984375 
L 18.40625 75.984375 
L 18.40625 0 
L 9.421875 0 
z
" id="DejaVuSans-6c"/>
      <path d="M 30.609375 48.390625 
Q 23.390625 48.390625 19.1875 42.75 
Q 14.984375 37.109375 14.984375 27.296875 
Q 14.984375 17.484375 19.15625 11.84375 
Q 23.34375 6.203125 30.609375 6.203125 
Q 37.796875 6.203125 41.984375 11.859375 
Q 46.1875 17.53125 46.1875 27.296875 
Q 46.1875 37.015625 41.984375 42.703125 
Q 37.796875 48.390625 30.609375 48.390625 
z
M 30.609375 56 
Q 42.328125 56 49.015625 48.375 
Q 55.71875 40.765625 55.71875 27.296875 
Q 55.71875 13.875 49.015625 6.21875 
Q 42.328125 -1.421875 30.609375 -1.421875 
Q 18.84375 -1.421875 12.171875 6.21875 
Q 5.515625 13.875 5.515625 27.296875 
Q 5.515625 40.765625 12.171875 48.375 
Q 18.84375 56 30.609375 56 
z
" id="DejaVuSans-6f"/>
      <path d="M 45.40625 27.984375 
Q 45.40625 37.75 41.375 43.109375 
Q 37.359375 48.484375 30.078125 48.484375 
Q 22.859375 48.484375 18.828125 43.109375 
Q 14.796875 37.75 14.796875 27.984375 
Q 14.796875 18.265625 18.828125 12.890625 
Q 22.859375 7.515625 30.078125 7.515625 
Q 37.359375 7.515625 41.375 12.890625 
Q 45.40625 18.265625 45.40625 27.984375 
z
M 54.390625 6.78125 
Q 54.390625 -7.171875 48.1875 -13.984375 
Q 42 -20.796875 29.203125 -20.796875 
Q 24.46875 -20.796875 20.265625 -20.09375 
Q 16.0625 -19.390625 12.109375 -17.921875 
L 12.109375 -9.1875 
Q 16.0625 -11.328125 19.921875 -12.34375 
Q 23.78125 -13.375 27.78125 -13.375 
Q 36.625 -13.375 41.015625 -8.765625 
Q 45.40625 -4.15625 45.40625 5.171875 
L 45.40625 9.625 
Q 42.625 4.78125 38.28125 2.390625 
Q 33.9375 0 27.875 0 
Q 17.828125 0 11.671875 7.65625 
Q 5.515625 15.328125 5.515625 27.984375 
Q 5.515625 40.671875 11.671875 48.328125 
Q 17.828125 56 27.875 56 
Q 33.9375 56 38.28125 53.609375 
Q 42.625 51.21875 45.40625 46.390625 
L 45.40625 54.6875 
L 54.390625 54.6875 
z
" id="DejaVuSans-67"/>
      <path d="M 12.40625 8.296875 
L 28.515625 8.296875 
L 28.515625 63.921875 
L 10.984375 60.40625 
L 10.984375 69.390625 
L 28.421875 72.90625 
L 38.28125 72.90625 
L 38.28125 8.296875 
L 54.390625 8.296875 
L 54.390625 0 
L 12.40625 0 
z
" id="DejaVuSans-31"/>
      <path d="M 31 75.875 
Q 24.46875 64.65625 21.28125 53.65625 
Q 18.109375 42.671875 18.109375 31.390625 
Q 18.109375 20.125 21.3125 9.0625 
Q 24.515625 -2 31 -13.1875 
L 23.1875 -13.1875 
Q 15.875 -1.703125 12.234375 9.375 
Q 8.59375 20.453125 8.59375 31.390625 
Q 8.59375 42.28125 12.203125 53.3125 
Q 15.828125 64.359375 23.1875 75.875 
z
" id="DejaVuSans-28"/>
      <path d="M 51.125 44 
L 36.921875 44 
L 32.8125 27.6875 
L 47.125 27.6875 
z
M 43.796875 71.78125 
L 38.71875 51.515625 
L 52.984375 51.515625 
L 58.109375 71.78125 
L 65.921875 71.78125 
L 60.890625 51.515625 
L 76.125 51.515625 
L 76.125 44 
L 58.984375 44 
L 54.984375 27.6875 
L 70.515625 27.6875 
L 70.515625 20.21875 
L 53.078125 20.21875 
L 48 0 
L 40.1875 0 
L 45.21875 20.21875 
L 30.90625 20.21875 
L 25.875 0 
L 18.015625 0 
L 23.09375 20.21875 
L 7.71875 20.21875 
L 7.71875 27.6875 
L 24.90625 27.6875 
L 29 44 
L 13.28125 44 
L 13.28125 51.515625 
L 30.90625 51.515625 
L 35.890625 71.78125 
z
" id="DejaVuSans-23"/>
      <path id="DejaVuSans-20"/>
      <path d="M 37.109375 75.984375 
L 37.109375 68.5 
L 28.515625 68.5 
Q 23.6875 68.5 21.796875 66.546875 
Q 19.921875 64.59375 19.921875 59.515625 
L 19.921875 54.6875 
L 34.71875 54.6875 
L 34.71875 47.703125 
L 19.921875 47.703125 
L 19.921875 0 
L 10.890625 0 
L 10.890625 47.703125 
L 2.296875 47.703125 
L 2.296875 54.6875 
L 10.890625 54.6875 
L 10.890625 58.5 
Q 10.890625 67.625 15.140625 71.796875 
Q 19.390625 75.984375 28.609375 75.984375 
z
" id="DejaVuSans-66"/>
      <path d="M 4.890625 31.390625 
L 31.203125 31.390625 
L 31.203125 23.390625 
L 4.890625 23.390625 
z
" id="DejaVuSans-2d"/>
      <path d="M 56.203125 29.59375 
L 56.203125 25.203125 
L 14.890625 25.203125 
Q 15.484375 15.921875 20.484375 11.0625 
Q 25.484375 6.203125 34.421875 6.203125 
Q 39.59375 6.203125 44.453125 7.46875 
Q 49.3125 8.734375 54.109375 11.28125 
L 54.109375 2.78125 
Q 49.265625 0.734375 44.1875 -0.34375 
Q 39.109375 -1.421875 33.890625 -1.421875 
Q 20.796875 -1.421875 13.15625 6.1875 
Q 5.515625 13.8125 5.515625 26.8125 
Q 5.515625 40.234375 12.765625 48.109375 
Q 20.015625 56 32.328125 56 
Q 43.359375 56 49.78125 48.890625 
Q 56.203125 41.796875 56.203125 29.59375 
z
M 47.21875 32.234375 
Q 47.125 39.59375 43.09375 43.984375 
Q 39.0625 48.390625 32.421875 48.390625 
Q 24.90625 48.390625 20.390625 44.140625 
Q 15.875 39.890625 15.1875 32.171875 
z
" id="DejaVuSans-65"/>
      <path d="M 2.984375 54.6875 
L 12.5 54.6875 
L 29.59375 8.796875 
L 46.6875 54.6875 
L 56.203125 54.6875 
L 35.6875 0 
L 23.484375 0 
z
" id="DejaVuSans-76"/>
      <path d="M 34.28125 27.484375 
Q 23.390625 27.484375 19.1875 25 
Q 14.984375 22.515625 14.984375 16.5 
Q 14.984375 11.71875 18.140625 8.90625 
Q 21.296875 6.109375 26.703125 6.109375 
Q 34.1875 6.109375 38.703125 11.40625 
Q 43.21875 16.703125 43.21875 25.484375 
L 43.21875 27.484375 
z
M 52.203125 31.203125 
L 52.203125 0 
L 43.21875 0 
L 43.21875 8.296875 
Q 40.140625 3.328125 35.546875 0.953125 
Q 30.953125 -1.421875 24.3125 -1.421875 
Q 15.921875 -1.421875 10.953125 3.296875 
Q 6 8.015625 6 15.921875 
Q 6 25.140625 12.171875 29.828125 
Q 18.359375 34.515625 30.609375 34.515625 
L 43.21875 34.515625 
L 43.21875 35.40625 
Q 43.21875 41.609375 39.140625 45 
Q 35.0625 48.390625 27.6875 48.390625 
Q 23 48.390625 18.546875 47.265625 
Q 14.109375 46.140625 10.015625 43.890625 
L 10.015625 52.203125 
Q 14.9375 54.109375 19.578125 55.046875 
Q 24.21875 56 28.609375 56 
Q 40.484375 56 46.34375 49.84375 
Q 52.203125 43.703125 52.203125 31.203125 
z
" id="DejaVuSans-61"/>
      <path d="M 44.28125 53.078125 
L 44.28125 44.578125 
Q 40.484375 46.53125 36.375 47.5 
Q 32.28125 48.484375 27.875 48.484375 
Q 21.1875 48.484375 17.84375 46.4375 
Q 14.5 44.390625 14.5 40.28125 
Q 14.5 37.15625 16.890625 35.375 
Q 19.28125 33.59375 26.515625 31.984375 
L 29.59375 31.296875 
Q 39.15625 29.25 43.1875 25.515625 
Q 47.21875 21.78125 47.21875 15.09375 
Q 47.21875 7.46875 41.1875 3.015625 
Q 35.15625 -1.421875 24.609375 -1.421875 
Q 20.21875 -1.421875 15.453125 -0.5625 
Q 10.6875 0.296875 5.421875 2 
L 5.421875 11.28125 
Q 10.40625 8.6875 15.234375 7.390625 
Q 20.0625 6.109375 24.8125 6.109375 
Q 31.15625 6.109375 34.5625 8.28125 
Q 37.984375 10.453125 37.984375 14.40625 
Q 37.984375 18.0625 35.515625 20.015625 
Q 33.0625 21.96875 24.703125 23.78125 
L 21.578125 24.515625 
Q 13.234375 26.265625 9.515625 29.90625 
Q 5.8125 33.546875 5.8125 39.890625 
Q 5.8125 47.609375 11.28125 51.796875 
Q 16.75 56 26.8125 56 
Q 31.78125 56 36.171875 55.265625 
Q 40.578125 54.546875 44.28125 53.078125 
z
" id="DejaVuSans-73"/>
      <path d="M 25.390625 72.90625 
L 33.6875 72.90625 
L 8.296875 -9.28125 
L 0 -9.28125 
z
" id="DejaVuSans-2f"/>
      <path d="M 45.40625 46.390625 
L 45.40625 75.984375 
L 54.390625 75.984375 
L 54.390625 0 
L 45.40625 0 
L 45.40625 8.203125 
Q 42.578125 3.328125 38.25 0.953125 
Q 33.9375 -1.421875 27.875 -1.421875 
Q 17.96875 -1.421875 11.734375 6.484375 
Q 5.515625 14.40625 5.515625 27.296875 
Q 5.515625 40.1875 11.734375 48.09375 
Q 17.96875 56 27.875 56 
Q 33.9375 56 38.25 53.625 
Q 42.578125 51.265625 45.40625 46.390625 
z
M 14.796875 27.296875 
Q 14.796875 17.390625 18.875 11.75 
Q 22.953125 6.109375 30.078125 6.109375 
Q 37.203125 6.109375 41.296875 11.75 
Q 45.40625 17.390625 45.40625 27.296875 
Q 45.40625 37.203125 41.296875 42.84375 
Q 37.203125 48.484375 30.078125 48.484375 
Q 22.953125 48.484375 18.875 42.84375 
Q 14.796875 37.203125 14.796875 27.296875 
z
" id="DejaVuSans-64"/>
      <path d="M 9.421875 54.6875 
L 18.40625 54.6875 
L 18.40625 0 
L 9.421875 0 
z
M 9.421875 75.984375 
L 18.40625 75.984375 
L 18.40625 64.59375 
L 9.421875 64.59375 
z
" id="DejaVuSans-69"/>
      <path d="M 52 44.1875 
Q 55.375 50.25 60.0625 53.125 
Q 64.75 56 71.09375 56 
Q 79.640625 56 84.28125 50.015625 
Q 88.921875 44.046875 88.921875 33.015625 
L 88.921875 0 
L 79.890625 0 
L 79.890625 32.71875 
Q 79.890625 40.578125 77.09375 44.375 
Q 74.3125 48.1875 68.609375 48.1875 
Q 61.625 48.1875 57.5625 43.546875 
Q 53.515625 38.921875 53.515625 30.90625 
L 53.515625 0 
L 44.484375 0 
L 44.484375 32.71875 
Q 44.484375 40.625 41.703125 44.40625 
Q 38.921875 48.1875 33.109375 48.1875 
Q 26.21875 48.1875 22.15625 43.53125 
Q 18.109375 38.875 18.109375 30.90625 
L 18.109375 0 
L 9.078125 0 
L 9.078125 54.6875 
L 18.109375 54.6875 
L 18.109375 46.1875 
Q 21.1875 51.21875 25.484375 53.609375 
Q 29.78125 56 35.6875 56 
Q 41.65625 56 45.828125 52.96875 
Q 50 49.953125 52 44.1875 
z
" id="DejaVuSans-6d"/>
      <path d="M 54.890625 33.015625 
L 54.890625 0 
L 45.90625 0 
L 45.90625 32.71875 
Q 45.90625 40.484375 42.875 44.328125 
Q 39.84375 48.1875 33.796875 48.1875 
Q 26.515625 48.1875 22.3125 43.546875 
Q 18.109375 38.921875 18.109375 30.90625 
L 18.109375 0 
L 9.078125 0 
L 9.078125 54.6875 
L 18.109375 54.6875 
L 18.109375 46.1875 
Q 21.34375 51.125 25.703125 53.5625 
Q 30.078125 56 35.796875 56 
Q 45.21875 56 50.046875 50.171875 
Q 54.890625 44.34375 54.890625 33.015625 
z
" id="DejaVuSans-6e"/>
      <path d="M 8.015625 75.875 
L 15.828125 75.875 
Q 23.140625 64.359375 26.78125 53.3125 
Q 30.421875 42.28125 30.421875 31.390625 
Q 30.421875 20.453125 26.78125 9.375 
Q 23.140625 -1.703125 15.828125 -13.1875 
L 8.015625 -13.1875 
Q 14.5 -2 17.703125 9.0625 
Q 20.90625 20.125 20.90625 31.390625 
Q 20.90625 42.671875 17.703125 53.65625 
Q 14.5 64.65625 8.015625 75.875 
z
" id="DejaVuSans-29"/>
     </defs>
     <g transform="translate(73.803219 338.153594)scale(0.17 -0.17)">
      <use xlink:href="#DejaVuSans-6c"/>
      <use x="27.783203" xlink:href="#DejaVuSans-6f"/>
      <use x="88.964844" xlink:href="#DejaVuSans-67"/>
      <use x="152.441406" xlink:href="#DejaVuSans-31"/>
      <use x="216.064453" xlink:href="#DejaVuSans-30"/>
      <use x="279.6875" xlink:href="#DejaVuSans-28"/>
      <use x="318.701172" xlink:href="#DejaVuSans-23"/>
      <use x="402.490234" xlink:href="#DejaVuSans-20"/>
      <use x="434.277344" xlink:href="#DejaVuSans-66"/>
      <use x="469.404297" xlink:href="#DejaVuSans-2d"/>
      <use x="505.488281" xlink:href="#DejaVuSans-65"/>
      <use x="567.011719" xlink:href="#DejaVuSans-76"/>
      <use x="626.191406" xlink:href="#DejaVuSans-61"/>
      <use x="687.470703" xlink:href="#DejaVuSans-6c"/>
      <use x="715.253906" xlink:href="#DejaVuSans-73"/>
      <use x="767.353516" xlink:href="#DejaVuSans-20"/>
      <use x="799.140625" xlink:href="#DejaVuSans-2f"/>
      <use x="832.832031" xlink:href="#DejaVuSans-20"/>
      <use x="864.619141" xlink:href="#DejaVuSans-64"/>
      <use x="928.095703" xlink:href="#DejaVuSans-69"/>
      <use x="955.878906" xlink:href="#DejaVuSans-6d"/>
      <use x="1053.291016" xlink:href="#DejaVuSans-65"/>
      <use x="1114.814453" xlink:href="#DejaVuSans-6e"/>
      <use x="1178.193359" xlink:href="#DejaVuSans-73"/>
      <use x="1230.292969" xlink:href="#DejaVuSans-69"/>
      <use x="1258.076172" xlink:href="#DejaVuSans-6f"/>
      <use x="1319.257812" xlink:href="#DejaVuSans-6e"/>
      <use x="1382.636719" xlink:href="#DejaVuSans-29"/>
     </g>
    </g>
   </g>
   <g id="matplotlib.axis_2">
    <g id="ytick_1">
     <g id="line2d_29">
      <path clip-path="url(#p9aa652411a)" d="M 56.12 294.88 
L 333.168 294.88 
" style="fill:none;stroke:#b0b0b0;stroke-linecap:square;stroke-width:0.8;"/>
     </g>
     <g id="line2d_30">
      <defs>
       <path d="M 0 0 
L -3.5 0 
" id="m02d99c0b7b" style="stroke:#000000;stroke-width:0.8;"/>
      </defs>
      <g>
       <use style="stroke:#000000;stroke-width:0.8;" x="56.12" xlink:href="#m02d99c0b7b" y="294.88"/>
      </g>
     </g>
     <g id="text_6">
      <!-- 0.0 -->
      <defs>
       <path d="M 10.6875 12.40625 
L 21 12.40625 
L 21 0 
L 10.6875 0 
z
" id="DejaVuSans-2e"/>
      </defs>
      <g transform="translate(23.675 300.95875)scale(0.16 -0.16)">
       <use xlink:href="#DejaVuSans-30"/>
       <use x="63.623047" xlink:href="#DejaVuSans-2e"/>
       <use x="95.410156" xlink:href="#DejaVuSans-30"/>
      </g>
     </g>
    </g>
    <g id="ytick_2">
     <g id="line2d_31">
      <path clip-path="url(#p9aa652411a)" d="M 56.12 241.406733 
L 333.168 241.406733 
" style="fill:none;stroke:#b0b0b0;stroke-linecap:square;stroke-width:0.8;"/>
     </g>
     <g id="line2d_32">
      <g>
       <use style="stroke:#000000;stroke-width:0.8;" x="56.12" xlink:href="#m02d99c0b7b" y="241.406733"/>
      </g>
     </g>
     <g id="text_7">
      <!-- 0.2 -->
      <g transform="translate(23.675 247.485483)scale(0.16 -0.16)">
       <use xlink:href="#DejaVuSans-30"/>
       <use x="63.623047" xlink:href="#DejaVuSans-2e"/>
       <use x="95.410156" xlink:href="#DejaVuSans-32"/>
      </g>
     </g>
    </g>
    <g id="ytick_3">
     <g id="line2d_33">
      <path clip-path="url(#p9aa652411a)" d="M 56.12 187.933465 
L 333.168 187.933465 
" style="fill:none;stroke:#b0b0b0;stroke-linecap:square;stroke-width:0.8;"/>
     </g>
     <g id="line2d_34">
      <g>
       <use style="stroke:#000000;stroke-width:0.8;" x="56.12" xlink:href="#m02d99c0b7b" y="187.933465"/>
      </g>
     </g>
     <g id="text_8">
      <!-- 0.4 -->
      <g transform="translate(23.675 194.012215)scale(0.16 -0.16)">
       <use xlink:href="#DejaVuSans-30"/>
       <use x="63.623047" xlink:href="#DejaVuSans-2e"/>
       <use x="95.410156" xlink:href="#DejaVuSans-34"/>
      </g>
     </g>
    </g>
    <g id="ytick_4">
     <g id="line2d_35">
      <path clip-path="url(#p9aa652411a)" d="M 56.12 134.460198 
L 333.168 134.460198 
" style="fill:none;stroke:#b0b0b0;stroke-linecap:square;stroke-width:0.8;"/>
     </g>
     <g id="line2d_36">
      <g>
       <use style="stroke:#000000;stroke-width:0.8;" x="56.12" xlink:href="#m02d99c0b7b" y="134.460198"/>
      </g>
     </g>
     <g id="text_9">
      <!-- 0.6 -->
      <g transform="translate(23.675 140.538948)scale(0.16 -0.16)">
       <use xlink:href="#DejaVuSans-30"/>
       <use x="63.623047" xlink:href="#DejaVuSans-2e"/>
       <use x="95.410156" xlink:href="#DejaVuSans-36"/>
      </g>
     </g>
    </g>
    <g id="ytick_5">
     <g id="line2d_37">
      <path clip-path="url(#p9aa652411a)" d="M 56.12 80.986931 
L 333.168 80.986931 
" style="fill:none;stroke:#b0b0b0;stroke-linecap:square;stroke-width:0.8;"/>
     </g>
     <g id="line2d_38">
      <g>
       <use style="stroke:#000000;stroke-width:0.8;" x="56.12" xlink:href="#m02d99c0b7b" y="80.986931"/>
      </g>
     </g>
     <g id="text_10">
      <!-- 0.8 -->
      <defs>
       <path d="M 31.78125 34.625 
Q 24.75 34.625 20.71875 30.859375 
Q 16.703125 27.09375 16.703125 20.515625 
Q 16.703125 13.921875 20.71875 10.15625 
Q 24.75 6.390625 31.78125 6.390625 
Q 38.8125 6.390625 42.859375 10.171875 
Q 46.921875 13.96875 46.921875 20.515625 
Q 46.921875 27.09375 42.890625 30.859375 
Q 38.875 34.625 31.78125 34.625 
z
M 21.921875 38.8125 
Q 15.578125 40.375 12.03125 44.71875 
Q 8.5 49.078125 8.5 55.328125 
Q 8.5 64.0625 14.71875 69.140625 
Q 20.953125 74.21875 31.78125 74.21875 
Q 42.671875 74.21875 48.875 69.140625 
Q 55.078125 64.0625 55.078125 55.328125 
Q 55.078125 49.078125 51.53125 44.71875 
Q 48 40.375 41.703125 38.8125 
Q 48.828125 37.15625 52.796875 32.3125 
Q 56.78125 27.484375 56.78125 20.515625 
Q 56.78125 9.90625 50.3125 4.234375 
Q 43.84375 -1.421875 31.78125 -1.421875 
Q 19.734375 -1.421875 13.25 4.234375 
Q 6.78125 9.90625 6.78125 20.515625 
Q 6.78125 27.484375 10.78125 32.3125 
Q 14.796875 37.15625 21.921875 38.8125 
z
M 18.3125 54.390625 
Q 18.3125 48.734375 21.84375 45.5625 
Q 25.390625 42.390625 31.78125 42.390625 
Q 38.140625 42.390625 41.71875 45.5625 
Q 45.3125 48.734375 45.3125 54.390625 
Q 45.3125 60.0625 41.71875 63.234375 
Q 38.140625 66.40625 31.78125 66.40625 
Q 25.390625 66.40625 21.84375 63.234375 
Q 18.3125 60.0625 18.3125 54.390625 
z
" id="DejaVuSans-38"/>
      </defs>
      <g transform="translate(23.675 87.065681)scale(0.16 -0.16)">
       <use xlink:href="#DejaVuSans-30"/>
       <use x="63.623047" xlink:href="#DejaVuSans-2e"/>
       <use x="95.410156" xlink:href="#DejaVuSans-38"/>
      </g>
     </g>
    </g>
    <g id="ytick_6">
     <g id="line2d_39">
      <path clip-path="url(#p9aa652411a)" d="M 56.12 27.513663 
L 333.168 27.513663 
" style="fill:none;stroke:#b0b0b0;stroke-linecap:square;stroke-width:0.8;"/>
     </g>
     <g id="line2d_40">
      <g>
       <use style="stroke:#000000;stroke-width:0.8;" x="56.12" xlink:href="#m02d99c0b7b" y="27.513663"/>
      </g>
     </g>
     <g id="text_11">
      <!-- 1.0 -->
      <g transform="translate(23.675 33.592413)scale(0.16 -0.16)">
       <use xlink:href="#DejaVuSans-31"/>
       <use x="63.623047" xlink:href="#DejaVuSans-2e"/>
       <use x="95.410156" xlink:href="#DejaVuSans-30"/>
      </g>
     </g>
    </g>
    <g id="text_12">
     <!-- Fraction of function,target pairs -->
     <defs>
      <path d="M 9.8125 72.90625 
L 51.703125 72.90625 
L 51.703125 64.59375 
L 19.671875 64.59375 
L 19.671875 43.109375 
L 48.578125 43.109375 
L 48.578125 34.8125 
L 19.671875 34.8125 
L 19.671875 0 
L 9.8125 0 
z
" id="DejaVuSans-46"/>
      <path d="M 41.109375 46.296875 
Q 39.59375 47.171875 37.8125 47.578125 
Q 36.03125 48 33.890625 48 
Q 26.265625 48 22.1875 43.046875 
Q 18.109375 38.09375 18.109375 28.8125 
L 18.109375 0 
L 9.078125 0 
L 9.078125 54.6875 
L 18.109375 54.6875 
L 18.109375 46.1875 
Q 20.953125 51.171875 25.484375 53.578125 
Q 30.03125 56 36.53125 56 
Q 37.453125 56 38.578125 55.875 
Q 39.703125 55.765625 41.0625 55.515625 
z
" id="DejaVuSans-72"/>
      <path d="M 48.78125 52.59375 
L 48.78125 44.1875 
Q 44.96875 46.296875 41.140625 47.34375 
Q 37.3125 48.390625 33.40625 48.390625 
Q 24.65625 48.390625 19.8125 42.84375 
Q 14.984375 37.3125 14.984375 27.296875 
Q 14.984375 17.28125 19.8125 11.734375 
Q 24.65625 6.203125 33.40625 6.203125 
Q 37.3125 6.203125 41.140625 7.25 
Q 44.96875 8.296875 48.78125 10.40625 
L 48.78125 2.09375 
Q 45.015625 0.34375 40.984375 -0.53125 
Q 36.96875 -1.421875 32.421875 -1.421875 
Q 20.0625 -1.421875 12.78125 6.34375 
Q 5.515625 14.109375 5.515625 27.296875 
Q 5.515625 40.671875 12.859375 48.328125 
Q 20.21875 56 33.015625 56 
Q 37.15625 56 41.109375 55.140625 
Q 45.0625 54.296875 48.78125 52.59375 
z
" id="DejaVuSans-63"/>
      <path d="M 18.3125 70.21875 
L 18.3125 54.6875 
L 36.8125 54.6875 
L 36.8125 47.703125 
L 18.3125 47.703125 
L 18.3125 18.015625 
Q 18.3125 11.328125 20.140625 9.421875 
Q 21.96875 7.515625 27.59375 7.515625 
L 36.8125 7.515625 
L 36.8125 0 
L 27.59375 0 
Q 17.1875 0 13.234375 3.875 
Q 9.28125 7.765625 9.28125 18.015625 
L 9.28125 47.703125 
L 2.6875 47.703125 
L 2.6875 54.6875 
L 9.28125 54.6875 
L 9.28125 70.21875 
z
" id="DejaVuSans-74"/>
      <path d="M 8.5 21.578125 
L 8.5 54.6875 
L 17.484375 54.6875 
L 17.484375 21.921875 
Q 17.484375 14.15625 20.5 10.265625 
Q 23.53125 6.390625 29.59375 6.390625 
Q 36.859375 6.390625 41.078125 11.03125 
Q 45.3125 15.671875 45.3125 23.6875 
L 45.3125 54.6875 
L 54.296875 54.6875 
L 54.296875 0 
L 45.3125 0 
L 45.3125 8.40625 
Q 42.046875 3.421875 37.71875 1 
Q 33.40625 -1.421875 27.6875 -1.421875 
Q 18.265625 -1.421875 13.375 4.4375 
Q 8.5 10.296875 8.5 21.578125 
z
M 31.109375 56 
z
" id="DejaVuSans-75"/>
      <path d="M 11.71875 12.40625 
L 22.015625 12.40625 
L 22.015625 4 
L 14.015625 -11.625 
L 7.71875 -11.625 
L 11.71875 4 
z
" id="DejaVuSans-2c"/>
      <path d="M 18.109375 8.203125 
L 18.109375 -20.796875 
L 9.078125 -20.796875 
L 9.078125 54.6875 
L 18.109375 54.6875 
L 18.109375 46.390625 
Q 20.953125 51.265625 25.265625 53.625 
Q 29.59375 56 35.59375 56 
Q 45.5625 56 51.78125 48.09375 
Q 58.015625 40.1875 58.015625 27.296875 
Q 58.015625 14.40625 51.78125 6.484375 
Q 45.5625 -1.421875 35.59375 -1.421875 
Q 29.59375 -1.421875 25.265625 0.953125 
Q 20.953125 3.328125 18.109375 8.203125 
z
M 48.6875 27.296875 
Q 48.6875 37.203125 44.609375 42.84375 
Q 40.53125 48.484375 33.40625 48.484375 
Q 26.265625 48.484375 22.1875 42.84375 
Q 18.109375 37.203125 18.109375 27.296875 
Q 18.109375 17.390625 22.1875 11.75 
Q 26.265625 6.109375 33.40625 6.109375 
Q 40.53125 6.109375 44.609375 11.75 
Q 48.6875 17.390625 48.6875 27.296875 
z
" id="DejaVuSans-70"/>
     </defs>
     <g transform="translate(16.139531 294.999375)rotate(-90)scale(0.17 -0.17)">
      <use xlink:href="#DejaVuSans-46"/>
      <use x="57.410156" xlink:href="#DejaVuSans-72"/>
      <use x="98.523438" xlink:href="#DejaVuSans-61"/>
      <use x="159.802734" xlink:href="#DejaVuSans-63"/>
      <use x="214.783203" xlink:href="#DejaVuSans-74"/>
      <use x="253.992188" xlink:href="#DejaVuSans-69"/>
      <use x="281.775391" xlink:href="#DejaVuSans-6f"/>
      <use x="342.957031" xlink:href="#DejaVuSans-6e"/>
      <use x="406.335938" xlink:href="#DejaVuSans-20"/>
      <use x="438.123047" xlink:href="#DejaVuSans-6f"/>
      <use x="499.304688" xlink:href="#DejaVuSans-66"/>
      <use x="534.509766" xlink:href="#DejaVuSans-20"/>
      <use x="566.296875" xlink:href="#DejaVuSans-66"/>
      <use x="601.501953" xlink:href="#DejaVuSans-75"/>
      <use x="664.880859" xlink:href="#DejaVuSans-6e"/>
      <use x="728.259766" xlink:href="#DejaVuSans-63"/>
      <use x="783.240234" xlink:href="#DejaVuSans-74"/>
      <use x="822.449219" xlink:href="#DejaVuSans-69"/>
      <use x="850.232422" xlink:href="#DejaVuSans-6f"/>
      <use x="911.414062" xlink:href="#DejaVuSans-6e"/>
      <use x="974.792969" xlink:href="#DejaVuSans-2c"/>
      <use x="1006.580078" xlink:href="#DejaVuSans-74"/>
      <use x="1045.789062" xlink:href="#DejaVuSans-61"/>
      <use x="1107.068359" xlink:href="#DejaVuSans-72"/>
      <use x="1148.166016" xlink:href="#DejaVuSans-67"/>
      <use x="1211.642578" xlink:href="#DejaVuSans-65"/>
      <use x="1273.166016" xlink:href="#DejaVuSans-74"/>
      <use x="1312.375" xlink:href="#DejaVuSans-20"/>
      <use x="1344.162109" xlink:href="#DejaVuSans-70"/>
      <use x="1407.638672" xlink:href="#DejaVuSans-61"/>
      <use x="1468.917969" xlink:href="#DejaVuSans-69"/>
      <use x="1496.701172" xlink:href="#DejaVuSans-72"/>
      <use x="1537.814453" xlink:href="#DejaVuSans-73"/>
     </g>
    </g>
   </g>
   <g id="line2d_41">
    <defs>
     <path d="M 0 1.5 
C 0.397805 1.5 0.77937 1.341951 1.06066 1.06066 
C 1.341951 0.77937 1.5 0.397805 1.5 0 
C 1.5 -0.397805 1.341951 -0.77937 1.06066 -1.06066 
C 0.77937 -1.341951 0.397805 -1.5 0 -1.5 
C -0.397805 -1.5 -0.77937 -1.341951 -1.06066 -1.06066 
C -1.341951 -0.77937 -1.5 -0.397805 -1.5 0 
C -1.5 0.397805 -1.341951 0.77937 -1.06066 1.06066 
C -0.77937 1.341951 -0.397805 1.5 0 1.5 
z
" id="med610737e9" style="stroke:#f5deb3;"/>
    </defs>
    <g>
     <use style="fill:#f5deb3;stroke:#f5deb3;" x="208.43265" xlink:href="#med610737e9" y="27.513663"/>
     <use style="fill:#f5deb3;stroke:#f5deb3;" x="208.43265" xlink:href="#med610737e9" y="27.513663"/>
    </g>
   </g>
   <g id="line2d_42">
    <defs>
     <path d="M 0 1.5 
C 0.397805 1.5 0.77937 1.341951 1.06066 1.06066 
C 1.341951 0.77937 1.5 0.397805 1.5 0 
C 1.5 -0.397805 1.341951 -0.77937 1.06066 -1.06066 
C 0.77937 -1.341951 0.397805 -1.5 0 -1.5 
C -0.397805 -1.5 -0.77937 -1.341951 -1.06066 -1.06066 
C -1.341951 -0.77937 -1.5 -0.397805 -1.5 0 
C -1.5 0.397805 -1.341951 0.77937 -1.06066 1.06066 
C -0.77937 1.341951 -0.397805 1.5 0 1.5 
z
" id="m5a29ed42e8" style="stroke:#000080;"/>
    </defs>
    <g>
     <use style="fill:#000080;stroke:#000080;" x="217.048543" xlink:href="#m5a29ed42e8" y="27.513663"/>
     <use style="fill:#000080;stroke:#000080;" x="217.048543" xlink:href="#m5a29ed42e8" y="27.513663"/>
    </g>
   </g>
   <g id="line2d_43">
    <path d="M 166.61033 294.88 
L 166.61033 294.355752 
L 171.173331 294.355752 
L 171.173331 293.831505 
L 172.845039 293.831505 
L 172.845039 293.307257 
L 173.277175 293.307257 
L 173.277175 292.783009 
L 175.339553 292.783009 
L 175.339553 292.258761 
L 175.785737 292.258761 
L 175.785737 291.734514 
L 176.282434 291.734514 
L 176.282434 291.210266 
L 176.399096 291.210266 
L 176.399096 290.686018 
L 177.62903 290.686018 
L 177.62903 290.161771 
L 179.788327 290.161771 
L 179.788327 289.637523 
L 184.009973 289.637523 
L 184.009973 289.113275 
L 185.346632 289.113275 
L 185.346632 288.589027 
L 186.379705 288.589027 
L 186.379705 288.06478 
L 186.687268 288.06478 
L 186.761372 287.016284 
L 188.345134 287.016284 
L 188.355716 285.967789 
L 188.761905 285.967789 
L 188.761905 285.443541 
L 191.588032 285.443541 
L 191.636662 284.395046 
L 192.259448 284.395046 
L 192.259448 283.870798 
L 192.382954 283.870798 
L 192.467064 282.822302 
L 192.553833 282.822302 
L 192.553833 282.298055 
L 192.694439 282.298055 
L 192.694439 281.773807 
L 194.360784 281.773807 
L 194.360784 281.249559 
L 195.180833 281.249559 
L 195.240526 280.201064 
L 195.619831 280.201064 
L 195.619831 279.676816 
L 197.997345 279.676816 
L 197.997345 279.152568 
L 198.314384 279.152568 
L 198.314384 278.628321 
L 198.626543 278.628321 
L 198.626543 278.104073 
L 199.163669 278.104073 
L 199.163669 277.579825 
L 199.33208 277.579825 
L 199.351518 276.007082 
L 199.68553 276.007082 
L 199.68553 275.482834 
L 199.831855 275.482834 
L 199.840897 274.434339 
L 201.627819 274.434339 
L 201.627819 273.910091 
L 201.770422 273.910091 
L 201.770422 273.385844 
L 202.292755 273.385844 
L 202.292755 272.861596 
L 202.45207 272.861596 
L 202.513734 271.8131 
L 202.586311 271.8131 
L 202.586311 271.288853 
L 202.749725 271.288853 
L 202.749725 270.764605 
L 202.883016 270.764605 
L 202.892269 269.716109 
L 203.336233 269.716109 
L 203.336233 269.191862 
L 203.6955 269.191862 
L 203.6955 268.667614 
L 205.186692 268.667614 
L 205.186692 268.143366 
L 205.490412 268.143366 
L 205.492003 267.094871 
L 205.649455 267.094871 
L 205.649455 266.570623 
L 206.223846 266.570623 
L 206.223846 266.046375 
L 206.571005 266.046375 
L 206.571005 265.522128 
L 206.777514 265.522128 
L 206.777514 264.99788 
L 207.318065 264.99788 
L 207.318065 264.473632 
L 207.4361 264.473632 
L 207.4361 263.949385 
L 207.622059 263.949385 
L 207.622059 263.425137 
L 208.180656 263.425137 
L 208.227825 262.376641 
L 208.344082 262.376641 
L 208.344082 261.852394 
L 208.489824 261.852394 
L 208.489824 261.328146 
L 208.770008 261.328146 
L 208.770008 260.803898 
L 208.91362 260.803898 
L 208.91362 260.279651 
L 209.26824 260.279651 
L 209.284134 259.231155 
L 209.586663 259.231155 
L 209.681198 257.134164 
L 209.748261 257.134164 
L 209.799765 256.085669 
L 209.949009 256.085669 
L 209.949009 255.037173 
L 210.365508 255.037173 
L 210.46821 253.46443 
L 210.638921 253.46443 
L 210.713137 252.415935 
L 210.844844 252.415935 
L 210.844844 251.891687 
L 211.137468 251.891687 
L 211.242296 250.318944 
L 211.266905 250.318944 
L 211.368587 249.270448 
L 211.618824 249.270448 
L 211.714324 247.697705 
L 211.747413 247.697705 
L 211.842103 246.124962 
L 211.961498 246.124962 
L 212.021529 244.552219 
L 212.111676 244.552219 
L 212.220131 242.455228 
L 212.247187 242.455228 
L 212.32334 241.406733 
L 212.372243 241.406733 
L 212.46308 239.83399 
L 212.588207 239.83399 
L 212.588207 239.309742 
L 212.784566 239.309742 
L 212.880124 236.688503 
L 212.936568 236.688503 
L 213.043125 233.018769 
L 213.118066 233.018769 
L 213.213453 229.873283 
L 213.239175 229.873283 
L 213.343238 227.252044 
L 213.361725 227.252044 
L 213.458775 222.533815 
L 213.486676 222.533815 
L 213.580135 217.815585 
L 213.601888 217.815585 
L 213.709073 211.000365 
L 213.733349 211.000365 
L 213.825569 207.330631 
L 213.851814 207.330631 
L 213.956397 200.515411 
L 213.973177 200.515411 
L 214.083167 193.175943 
L 214.084307 193.175943 
L 214.17589 188.981961 
L 214.197425 188.981961 
L 214.303915 179.021254 
L 214.313438 179.021254 
L 214.402606 171.157538 
L 214.424976 171.157538 
L 214.534429 160.672584 
L 214.539213 160.672584 
L 214.642 150.711877 
L 214.653713 150.711877 
L 214.749239 140.226923 
L 214.782199 140.226923 
L 214.887064 129.217721 
L 214.896854 129.217721 
L 215.006428 122.4025 
L 215.012162 122.4025 
L 215.113407 112.966042 
L 215.125794 112.966042 
L 215.229656 103.005335 
L 215.24196 103.005335 
L 215.341456 93.044628 
L 215.365081 93.044628 
L 215.44978 86.229408 
L 215.479322 86.229408 
L 215.563622 80.462683 
L 215.601001 80.462683 
L 215.707228 73.123215 
L 215.747959 73.123215 
L 215.829529 67.35649 
L 215.874002 67.35649 
L 215.952775 59.492774 
L 215.985314 59.492774 
L 216.060218 53.726049 
L 216.109636 53.726049 
L 216.201689 50.056315 
L 216.238636 50.056315 
L 216.329618 45.338086 
L 216.352231 45.338086 
L 216.458665 37.47437 
L 216.469051 37.47437 
L 216.56786 34.853131 
L 216.606983 34.853131 
L 216.678704 32.231893 
L 216.74006 32.231893 
L 216.820581 29.610654 
L 216.911519 29.610654 
L 217.020545 28.037911 
L 217.048543 28.037911 
L 217.048543 27.513663 
L 333.168 27.513663 
L 333.168 27.513663 
" style="fill:none;stroke:#000080;stroke-linecap:square;stroke-width:1.5;"/>
   </g>
   <g id="line2d_44">
    <defs>
     <path d="M 0 6 
C 1.591219 6 3.117479 5.367802 4.242641 4.242641 
C 5.367802 3.117479 6 1.591219 6 0 
C 6 -1.591219 5.367802 -3.117479 4.242641 -4.242641 
C 3.117479 -5.367802 1.591219 -6 0 -6 
C -1.591219 -6 -3.117479 -5.367802 -4.242641 -4.242641 
C -5.367802 -3.117479 -6 -1.591219 -6 0 
C -6 1.591219 -5.367802 3.117479 -4.242641 4.242641 
C -3.117479 5.367802 -1.591219 6 0 6 
z
" id="md05d28d7b3" style="stroke:#000080;stroke-width:1.5;"/>
    </defs>
    <g>
     <use style="fill-opacity:0;stroke:#000080;stroke-width:1.5;" x="215.125794" xlink:href="#md05d28d7b3" y="112.441794"/>
     <use style="fill-opacity:0;stroke:#000080;stroke-width:1.5;" x="217.048543" xlink:href="#md05d28d7b3" y="27.513663"/>
     <use style="fill-opacity:0;stroke:#000080;stroke-width:1.5;" x="217.048543" xlink:href="#md05d28d7b3" y="27.513663"/>
     <use style="fill-opacity:0;stroke:#000080;stroke-width:1.5;" x="333.168" xlink:href="#md05d28d7b3" y="27.513663"/>
    </g>
   </g>
   <g id="line2d_45">
    <path style="fill:none;stroke:#000080;stroke-linecap:square;stroke-width:1.5;"/>
    <g/>
   </g>
   <g id="line2d_46">
    <defs>
     <path d="M 0 1.5 
C 0.397805 1.5 0.77937 1.341951 1.06066 1.06066 
C 1.341951 0.77937 1.5 0.397805 1.5 0 
C 1.5 -0.397805 1.341951 -0.77937 1.06066 -1.06066 
C 0.77937 -1.341951 0.397805 -1.5 0 -1.5 
C -0.397805 -1.5 -0.77937 -1.341951 -1.06066 -1.06066 
C -1.341951 -0.77937 -1.5 -0.397805 -1.5 0 
C -1.5 0.397805 -1.341951 0.77937 -1.06066 1.06066 
C -0.77937 1.341951 -0.397805 1.5 0 1.5 
z
" id="md66b3bff37" style="stroke:#ff00ff;"/>
    </defs>
    <g>
     <use style="fill:#ff00ff;stroke:#ff00ff;" x="213.043125" xlink:href="#md66b3bff37" y="27.513663"/>
     <use style="fill:#ff00ff;stroke:#ff00ff;" x="213.043125" xlink:href="#md66b3bff37" y="27.513663"/>
    </g>
   </g>
   <g id="line2d_47">
    <path d="M 152.98966 294.88 
L 152.98966 294.355752 
L 157.697528 294.355752 
L 157.762699 293.307257 
L 158.318141 293.307257 
L 158.318141 292.783009 
L 159.096477 292.783009 
L 159.169411 291.734514 
L 161.097105 291.734514 
L 161.097105 291.210266 
L 162.764382 291.210266 
L 162.764382 290.686018 
L 164.916173 290.686018 
L 164.916173 290.161771 
L 166.207162 290.161771 
L 166.207162 289.637523 
L 169.283358 289.637523 
L 169.283358 289.113275 
L 170.248129 289.113275 
L 170.248129 288.589027 
L 170.386892 288.589027 
L 170.39692 287.540532 
L 170.963371 287.540532 
L 171.021473 286.492036 
L 171.371287 286.492036 
L 171.371287 285.967789 
L 171.716186 285.967789 
L 171.716186 285.443541 
L 173.42351 285.443541 
L 173.42351 284.919293 
L 173.606542 284.919293 
L 173.606542 284.395046 
L 174.738441 284.395046 
L 174.749685 283.34655 
L 175.12516 283.34655 
L 175.12516 282.822302 
L 175.524875 282.822302 
L 175.524875 282.298055 
L 175.986463 282.298055 
L 175.986463 281.773807 
L 176.718977 281.773807 
L 176.718977 281.249559 
L 176.952568 281.249559 
L 176.952568 280.725312 
L 177.569689 280.725312 
L 177.569689 280.201064 
L 177.986566 280.201064 
L 178.09581 279.152568 
L 179.014584 279.152568 
L 179.014584 278.628321 
L 179.473277 278.628321 
L 179.473277 278.104073 
L 179.954576 278.104073 
L 179.954576 277.579825 
L 180.533677 277.579825 
L 180.533677 277.055578 
L 181.245082 277.055578 
L 181.245082 276.53133 
L 181.561556 276.53133 
L 181.634125 275.482834 
L 182.50005 275.482834 
L 182.50005 274.958587 
L 182.798763 274.958587 
L 182.798763 274.434339 
L 183.429131 274.434339 
L 183.460415 273.385844 
L 184.00846 273.385844 
L 184.00846 272.861596 
L 184.213605 272.861596 
L 184.213605 272.337348 
L 184.568898 272.337348 
L 184.568898 271.8131 
L 184.827743 271.8131 
L 184.827743 271.288853 
L 185.104065 271.288853 
L 185.104065 270.764605 
L 185.582601 270.764605 
L 185.582601 270.240357 
L 186.592016 270.240357 
L 186.592016 269.716109 
L 187.252133 269.716109 
L 187.252133 269.191862 
L 187.587679 269.191862 
L 187.602423 268.143366 
L 187.852366 268.143366 
L 187.852366 267.619119 
L 188.946129 267.619119 
L 189.014896 266.570623 
L 189.412608 266.570623 
L 189.412608 266.046375 
L 189.553882 266.046375 
L 189.650453 264.473632 
L 189.69763 264.473632 
L 189.69763 263.949385 
L 189.941597 263.949385 
L 189.941597 263.425137 
L 190.181093 263.425137 
L 190.181093 262.900889 
L 190.389125 262.900889 
L 190.389125 262.376641 
L 190.559547 262.376641 
L 190.589508 261.328146 
L 190.698919 261.328146 
L 190.737168 260.279651 
L 191.386871 260.279651 
L 191.47043 258.706907 
L 191.618199 258.706907 
L 191.618199 258.18266 
L 191.742843 258.18266 
L 191.742843 257.658412 
L 191.862118 257.658412 
L 191.910617 256.609917 
L 192.480323 256.609917 
L 192.583885 255.561421 
L 192.605012 255.561421 
L 192.679211 254.512926 
L 192.724246 254.512926 
L 192.724246 253.988678 
L 193.046371 253.988678 
L 193.144809 252.415935 
L 193.166443 252.415935 
L 193.201947 251.367439 
L 193.40147 251.367439 
L 193.486857 249.270448 
L 193.516193 249.270448 
L 193.597548 247.697705 
L 193.66673 247.697705 
L 193.705809 246.64921 
L 193.854416 246.64921 
L 193.854416 246.124962 
L 194.026841 246.124962 
L 194.109465 244.027971 
L 194.146992 244.027971 
L 194.18695 242.455228 
L 194.263532 242.455228 
L 194.305992 240.882485 
L 194.376802 240.882485 
L 194.483296 239.309742 
L 194.496733 239.309742 
L 194.572496 237.736999 
L 194.620733 237.736999 
L 194.700016 235.640008 
L 194.78271 235.640008 
L 194.876272 233.018769 
L 194.907882 233.018769 
L 195.008486 231.970274 
L 195.027367 231.970274 
L 195.098185 229.873283 
L 195.138898 229.873283 
L 195.248924 226.203549 
L 195.275142 226.203549 
L 195.335291 224.106558 
L 195.399653 224.106558 
L 195.441735 221.485319 
L 195.546235 221.485319 
L 195.653436 216.76709 
L 195.66394 216.76709 
L 195.769138 213.097356 
L 195.775755 213.097356 
L 195.866358 211.524613 
L 195.917917 211.524613 
L 196.008026 208.379126 
L 196.064918 208.379126 
L 196.174661 204.185145 
L 196.224809 204.185145 
L 196.333785 197.369924 
L 196.343881 197.369924 
L 196.442319 192.651695 
L 196.461401 192.651695 
L 196.569135 185.836474 
L 196.597783 185.836474 
L 196.69864 177.448511 
L 196.728277 177.448511 
L 196.837945 171.157538 
L 196.843924 171.157538 
L 196.94763 163.293823 
L 196.963548 163.293823 
L 197.052841 155.954354 
L 197.091305 155.954354 
L 197.195174 147.566391 
L 197.227943 147.566391 
L 197.33564 143.372409 
L 197.339126 143.372409 
L 197.442667 137.081437 
L 197.455133 137.081437 
L 197.560045 127.12073 
L 197.582966 127.12073 
L 197.680271 118.208519 
L 197.698483 118.208519 
L 197.802603 108.247812 
L 197.810742 108.247812 
L 197.917331 98.811353 
L 197.939333 98.811353 
L 198.038216 92.520381 
L 198.055162 92.520381 
L 198.150723 86.229408 
L 198.178846 86.229408 
L 198.285823 75.744454 
L 198.293517 75.744454 
L 198.397381 69.977729 
L 198.411575 69.977729 
L 198.508003 63.686756 
L 198.528395 63.686756 
L 198.587265 60.017022 
L 198.670248 60.017022 
L 198.780202 56.347288 
L 198.787892 56.347288 
L 198.798993 55.298792 
L 210.936832 55.298792 
L 211.030845 54.250297 
L 211.281365 54.250297 
L 211.368895 52.677554 
L 211.425398 52.677554 
L 211.513524 51.104811 
L 211.560516 51.104811 
L 211.622468 48.483572 
L 211.716639 48.483572 
L 211.781742 46.910829 
L 211.832607 46.910829 
L 211.886911 44.813838 
L 211.957032 44.813838 
L 212.020738 42.716847 
L 212.071592 42.716847 
L 212.14617 40.095609 
L 212.2215 40.095609 
L 212.310996 36.950122 
L 212.361388 36.950122 
L 212.383769 35.901627 
L 212.535021 35.901627 
L 212.616123 33.804636 
L 212.731227 33.804636 
L 212.836892 31.707645 
L 212.852163 31.707645 
L 212.938818 29.086407 
L 212.9672 29.086407 
L 213.043125 27.513663 
L 333.168 27.513663 
L 333.168 27.513663 
" style="fill:none;stroke:#ff00ff;stroke-linecap:square;stroke-width:1.5;"/>
   </g>
   <g id="line2d_48">
    <defs>
     <path d="M -0 8.485281 
L 5.091169 0 
L 0 -8.485281 
L -5.091169 -0 
z
" id="m763721793b" style="stroke:#ff00ff;stroke-linejoin:miter;stroke-width:1.5;"/>
    </defs>
    <g>
     <use style="fill-opacity:0;stroke:#ff00ff;stroke-linejoin:miter;stroke-width:1.5;" x="211.281365" xlink:href="#m763721793b" y="53.726049"/>
     <use style="fill-opacity:0;stroke:#ff00ff;stroke-linejoin:miter;stroke-width:1.5;" x="213.043125" xlink:href="#m763721793b" y="27.513663"/>
     <use style="fill-opacity:0;stroke:#ff00ff;stroke-linejoin:miter;stroke-width:1.5;" x="213.043125" xlink:href="#m763721793b" y="27.513663"/>
     <use style="fill-opacity:0;stroke:#ff00ff;stroke-linejoin:miter;stroke-width:1.5;" x="333.168" xlink:href="#m763721793b" y="27.513663"/>
    </g>
   </g>
   <g id="line2d_49">
    <path style="fill:none;stroke:#ff00ff;stroke-linecap:square;stroke-width:1.5;"/>
    <g/>
   </g>
   <g id="line2d_50">
    <defs>
     <path d="M 0 1.5 
C 0.397805 1.5 0.77937 1.341951 1.06066 1.06066 
C 1.341951 0.77937 1.5 0.397805 1.5 0 
C 1.5 -0.397805 1.341951 -0.77937 1.06066 -1.06066 
C 0.77937 -1.341951 0.397805 -1.5 0 -1.5 
C -0.397805 -1.5 -0.77937 -1.341951 -1.06066 -1.06066 
C -1.341951 -0.77937 -1.5 -0.397805 -1.5 0 
C -1.5 0.397805 -1.341951 0.77937 -1.06066 1.06066 
C -0.77937 1.341951 -0.397805 1.5 0 1.5 
z
" id="mdd557914ff" style="stroke:#ff7500;"/>
    </defs>
    <g>
     <use style="fill:#ff7500;stroke:#ff7500;" x="218.162881" xlink:href="#mdd557914ff" y="27.513663"/>
     <use style="fill:#ff7500;stroke:#ff7500;" x="218.162881" xlink:href="#mdd557914ff" y="27.513663"/>
    </g>
   </g>
   <g id="line2d_51">
    <path d="M 164.113201 294.88 
L 164.113201 294.355752 
L 165.048964 294.355752 
L 165.048964 293.831505 
L 165.359356 293.831505 
L 165.359356 293.307257 
L 165.473952 293.307257 
L 165.473952 292.783009 
L 165.79431 292.783009 
L 165.79431 292.258761 
L 165.916175 292.258761 
L 165.916175 291.734514 
L 166.347305 291.734514 
L 166.347305 291.210266 
L 166.915828 291.210266 
L 166.915828 290.686018 
L 167.171703 290.686018 
L 167.171703 290.161771 
L 167.373429 290.161771 
L 167.373429 289.637523 
L 169.075313 289.637523 
L 169.075313 289.113275 
L 170.680836 289.113275 
L 170.680836 288.589027 
L 170.945039 288.589027 
L 170.992447 287.540532 
L 171.121081 287.540532 
L 171.121081 287.016284 
L 172.251422 287.016284 
L 172.251422 286.492036 
L 173.210159 286.492036 
L 173.210159 285.967789 
L 173.418839 285.967789 
L 173.418839 285.443541 
L 173.965052 285.443541 
L 173.965052 284.919293 
L 174.864308 284.919293 
L 174.864308 284.395046 
L 176.138675 284.395046 
L 176.138675 283.870798 
L 176.550828 283.870798 
L 176.550828 283.34655 
L 177.182277 283.34655 
L 177.182277 282.822302 
L 177.316112 282.822302 
L 177.316112 282.298055 
L 177.752184 282.298055 
L 177.752184 281.773807 
L 178.772697 281.773807 
L 178.772697 281.249559 
L 179.372471 281.249559 
L 179.446321 280.201064 
L 179.503469 280.201064 
L 179.562388 279.152568 
L 179.8038 279.152568 
L 179.8038 278.628321 
L 181.398469 278.628321 
L 181.398469 278.104073 
L 182.089192 278.104073 
L 182.089192 277.579825 
L 182.344 277.579825 
L 182.403932 276.53133 
L 182.599469 276.53133 
L 182.610966 275.482834 
L 183.032128 275.482834 
L 183.032128 274.958587 
L 183.209061 274.958587 
L 183.209061 274.434339 
L 184.360065 274.434339 
L 184.360065 273.910091 
L 184.819562 273.910091 
L 184.819562 273.385844 
L 185.16031 273.385844 
L 185.16031 272.861596 
L 185.569244 272.861596 
L 185.617558 271.8131 
L 185.774901 271.8131 
L 185.774901 271.288853 
L 185.992518 271.288853 
L 185.992518 270.764605 
L 186.433248 270.764605 
L 186.474389 269.716109 
L 186.83002 269.716109 
L 186.83002 269.191862 
L 187.041949 269.191862 
L 187.053788 268.143366 
L 187.491122 268.143366 
L 187.491122 267.619119 
L 188.03577 267.619119 
L 188.03577 267.094871 
L 188.178088 267.094871 
L 188.178088 266.570623 
L 189.026581 266.570623 
L 189.086393 264.99788 
L 189.299488 264.99788 
L 189.299488 264.473632 
L 189.512904 264.473632 
L 189.512904 263.949385 
L 189.668613 263.949385 
L 189.668613 263.425137 
L 189.971227 263.425137 
L 190.018244 262.376641 
L 190.757624 262.376641 
L 190.801522 261.328146 
L 190.891011 261.328146 
L 190.891011 260.803898 
L 191.160045 260.803898 
L 191.230131 258.706907 
L 191.420999 258.706907 
L 191.420999 258.18266 
L 191.564641 258.18266 
L 191.564641 257.658412 
L 191.774988 257.658412 
L 191.774988 257.134164 
L 192.021774 257.134164 
L 192.021774 256.609917 
L 192.163328 256.609917 
L 192.163328 256.085669 
L 192.467372 256.085669 
L 192.505272 255.037173 
L 192.583885 255.037173 
L 192.629781 253.46443 
L 192.740041 253.46443 
L 192.832092 252.415935 
L 192.897198 252.415935 
L 192.897198 251.891687 
L 193.03951 251.891687 
L 193.150146 250.318944 
L 193.246813 250.318944 
L 193.312426 249.270448 
L 193.445528 249.270448 
L 193.513291 247.173458 
L 193.610252 247.173458 
L 193.715852 245.600714 
L 193.891936 245.600714 
L 193.959097 244.027971 
L 194.072137 244.027971 
L 194.072137 243.503724 
L 194.183321 243.503724 
L 194.183321 242.979476 
L 194.304051 242.979476 
L 194.363547 241.93098 
L 194.462709 241.93098 
L 194.488782 240.882485 
L 194.582318 240.882485 
L 194.628351 238.785494 
L 194.693784 238.785494 
L 194.779205 236.164255 
L 194.854003 236.164255 
L 194.922061 233.543017 
L 194.974662 233.543017 
L 195.014605 231.970274 
L 195.09236 231.970274 
L 195.197947 230.397531 
L 195.218987 230.397531 
L 195.23685 229.349035 
L 195.333986 229.349035 
L 195.421227 227.252044 
L 195.471805 227.252044 
L 195.528949 225.155053 
L 195.59542 225.155053 
L 195.68544 222.533815 
L 195.710746 222.533815 
L 195.807279 218.339833 
L 195.879009 218.339833 
L 195.984914 214.145851 
L 196.020071 214.145851 
L 196.130598 210.476117 
L 196.135583 210.476117 
L 196.233483 207.330631 
L 196.27135 207.330631 
L 196.373398 203.660897 
L 196.39133 203.660897 
L 196.491694 198.41842 
L 196.50877 198.41842 
L 196.613301 194.224438 
L 196.625172 194.224438 
L 196.733332 188.457713 
L 196.743437 188.457713 
L 196.851813 182.690988 
L 196.855637 182.690988 
L 196.963786 177.972759 
L 196.968297 177.972759 
L 197.068898 171.157538 
L 197.090126 171.157538 
L 197.184159 166.439309 
L 197.207587 166.439309 
L 197.313085 161.721079 
L 197.323785 161.721079 
L 197.422101 156.478602 
L 197.436893 156.478602 
L 197.539619 150.711877 
L 197.550179 150.711877 
L 197.657935 145.4694 
L 197.664548 145.4694 
L 197.769552 137.081437 
L 197.803281 137.081437 
L 197.877072 131.838959 
L 197.915309 131.838959 
L 198.024603 123.975244 
L 198.029514 123.975244 
L 198.137421 118.732766 
L 198.156706 118.732766 
L 198.250385 113.490289 
L 198.270864 113.490289 
L 198.35429 109.296308 
L 198.382738 109.296308 
L 198.492802 104.05383 
L 198.493889 104.05383 
L 198.591801 98.811353 
L 198.625896 98.811353 
L 198.731849 94.617371 
L 198.743629 94.617371 
L 198.85269 89.899142 
L 198.86375 89.899142 
L 198.964023 83.083922 
L 199.014258 83.083922 
L 199.120364 78.88994 
L 199.135439 78.88994 
L 199.230399 76.268701 
L 199.264498 76.268701 
L 199.345316 73.647463 
L 199.407021 73.647463 
L 199.494144 72.074719 
L 199.533042 72.074719 
L 199.63458 70.501976 
L 199.682895 70.501976 
L 199.742392 69.453481 
L 199.861974 69.453481 
L 199.869997 68.404985 
L 208.483508 68.404985 
L 208.567736 67.35649 
L 208.72155 67.35649 
L 208.80343 66.307995 
L 208.894533 66.307995 
L 208.966147 65.259499 
L 209.059449 65.259499 
L 209.147922 64.211004 
L 209.309163 64.211004 
L 209.378959 62.114013 
L 209.460988 62.114013 
L 209.552105 58.968526 
L 209.579711 58.968526 
L 209.66578 56.871536 
L 209.698752 56.871536 
L 209.797177 54.774545 
L 209.835177 54.774545 
L 209.879815 53.726049 
L 209.991461 53.726049 
L 210.09354 51.104811 
L 210.110457 51.104811 
L 210.184565 49.00782 
L 210.252546 49.00782 
L 210.320805 47.435077 
L 210.385206 47.435077 
L 210.474487 44.28959 
L 210.506809 44.28959 
L 210.604163 41.144104 
L 216.914346 41.144104 
L 217.009673 40.095609 
L 217.063741 40.095609 
L 217.11661 39.047113 
L 217.186167 39.047113 
L 217.219671 37.998618 
L 217.329889 37.998618 
L 217.395045 36.425875 
L 217.457145 36.425875 
L 217.517441 34.853131 
L 217.585397 34.853131 
L 217.680358 32.231893 
L 217.714901 32.231893 
L 217.75901 31.183397 
L 217.866045 31.183397 
L 217.925557 29.610654 
L 217.979481 29.610654 
L 218.06186 28.037911 
L 218.162881 28.037911 
L 218.162881 27.513663 
L 333.168 27.513663 
L 333.168 27.513663 
" style="fill:none;stroke:#ff7500;stroke-linecap:square;stroke-width:1.5;"/>
   </g>
   <g id="line2d_52">
    <defs>
     <path d="M 0 -6 
L -1.347084 -1.854102 
L -5.706339 -1.854102 
L -2.179628 0.708204 
L -3.526712 4.854102 
L -0 2.291796 
L 3.526712 4.854102 
L 2.179628 0.708204 
L 5.706339 -1.854102 
L 1.347084 -1.854102 
z
" id="me6a6d126b0" style="stroke:#ff7500;stroke-linejoin:bevel;stroke-width:1.5;"/>
    </defs>
    <g>
     <use style="fill-opacity:0;stroke:#ff7500;stroke-linejoin:bevel;stroke-width:1.5;" x="195.768884" xlink:href="#me6a6d126b0" y="219.912576"/>
     <use style="fill-opacity:0;stroke:#ff7500;stroke-linejoin:bevel;stroke-width:1.5;" x="210.110457" xlink:href="#me6a6d126b0" y="51.104811"/>
     <use style="fill-opacity:0;stroke:#ff7500;stroke-linejoin:bevel;stroke-width:1.5;" x="218.162881" xlink:href="#me6a6d126b0" y="27.513663"/>
     <use style="fill-opacity:0;stroke:#ff7500;stroke-linejoin:bevel;stroke-width:1.5;" x="333.168" xlink:href="#me6a6d126b0" y="27.513663"/>
    </g>
   </g>
   <g id="line2d_53">
    <path style="fill:none;stroke:#ff7500;stroke-linecap:square;stroke-width:1.5;"/>
    <g/>
   </g>
   <g id="line2d_54">
    <defs>
     <path d="M 0 1.5 
C 0.397805 1.5 0.77937 1.341951 1.06066 1.06066 
C 1.341951 0.77937 1.5 0.397805 1.5 0 
C 1.5 -0.397805 1.341951 -0.77937 1.06066 -1.06066 
C 0.77937 -1.341951 0.397805 -1.5 0 -1.5 
C -0.397805 -1.5 -0.77937 -1.341951 -1.06066 -1.06066 
C -1.341951 -0.77937 -1.5 -0.397805 -1.5 0 
C -1.5 0.397805 -1.341951 0.77937 -1.06066 1.06066 
C -0.77937 1.341951 -0.397805 1.5 0 1.5 
z
" id="m09daba1529" style="stroke:#6495ed;"/>
    </defs>
    <g>
     <use style="fill:#6495ed;stroke:#6495ed;" x="342.10352" xlink:href="#m09daba1529" y="263.425137"/>
     <use style="fill:#6495ed;stroke:#6495ed;" x="342.10352" xlink:href="#m09daba1529" y="263.425137"/>
    </g>
   </g>
   <g id="line2d_55">
    <path d="M 125.898633 294.88 
L 125.898633 294.355752 
L 130.400328 294.355752 
L 130.400328 293.831505 
L 131.235703 293.831505 
L 131.235703 293.307257 
L 131.834 293.307257 
L 131.834 292.783009 
L 132.330756 292.783009 
L 132.330756 292.258761 
L 132.412171 292.258761 
L 132.412171 291.734514 
L 132.634093 291.734514 
L 132.634093 291.210266 
L 132.961694 291.210266 
L 132.961694 290.686018 
L 133.010791 290.686018 
L 133.010791 290.161771 
L 133.157244 290.161771 
L 133.157244 289.637523 
L 133.484656 289.637523 
L 133.484656 289.113275 
L 133.589262 289.113275 
L 133.589262 288.589027 
L 133.608213 288.589027 
L 133.608213 288.06478 
L 133.805948 288.06478 
L 133.805948 287.540532 
L 134.476138 287.540532 
L 134.476138 287.016284 
L 135.32806 287.016284 
L 135.32806 286.492036 
L 136.09883 286.492036 
L 136.09883 285.967789 
L 137.062633 285.967789 
L 137.062633 285.443541 
L 138.553074 285.443541 
L 138.553074 284.919293 
L 139.008661 284.919293 
L 139.008661 284.395046 
L 140.498503 284.395046 
L 140.498503 283.870798 
L 160.538977 283.870798 
L 160.538977 283.34655 
L 160.846537 283.34655 
L 160.846537 282.822302 
L 161.34973 282.822302 
L 161.34973 282.298055 
L 162.192316 282.298055 
L 162.192316 281.773807 
L 162.828515 281.773807 
L 162.828515 281.249559 
L 163.257378 281.249559 
L 163.257378 280.725312 
L 163.684032 280.725312 
L 163.684032 280.201064 
L 163.785789 280.201064 
L 163.785789 279.676816 
L 164.185298 279.676816 
L 164.185298 279.152568 
L 164.266644 279.152568 
L 164.266644 278.628321 
L 164.837851 278.628321 
L 164.837851 278.104073 
L 181.790984 278.104073 
L 181.790984 277.579825 
L 184.121618 277.579825 
L 184.121618 277.055578 
L 184.854183 277.055578 
L 184.854183 276.53133 
L 184.869547 276.53133 
L 184.869547 276.007082 
L 195.047289 276.007082 
L 195.047289 275.482834 
L 195.998735 275.482834 
L 195.998735 274.958587 
L 196.027596 274.958587 
L 196.027596 274.434339 
L 196.819755 274.434339 
L 196.819755 273.910091 
L 197.806221 273.910091 
L 197.806221 273.385844 
L 207.842133 273.385844 
L 207.842133 272.861596 
L 207.964525 272.861596 
L 207.964525 272.337348 
L 209.891124 272.337348 
L 209.891124 271.8131 
L 211.718753 271.8131 
L 211.718753 271.288853 
L 214.5387 271.288853 
L 214.5387 270.764605 
L 219.319722 270.764605 
L 219.319722 270.240357 
L 221.399897 270.240357 
L 221.399897 269.716109 
L 223.810727 269.716109 
L 223.810727 269.191862 
L 223.991561 269.191862 
L 223.991561 268.667614 
L 281.55778 268.667614 
L 281.55778 268.143366 
L 290.111218 268.143366 
L 290.111218 267.619119 
L 300.521043 267.619119 
L 300.521043 267.094871 
L 302.864383 267.094871 
L 302.864383 266.570623 
L 309.316248 266.570623 
L 309.316248 266.046375 
L 310.759808 266.046375 
L 310.759808 265.522128 
L 316.149868 265.522128 
L 316.149868 264.99788 
L 316.613233 264.99788 
L 316.613233 264.473632 
L 333.168 264.473632 
" style="fill:none;stroke:#6495ed;stroke-linecap:square;stroke-width:1.5;"/>
   </g>
   <g id="line2d_56">
    <defs>
     <path d="M -0 6 
L 6 -6 
L -6 -6 
z
" id="m9c6c8a8cb3" style="stroke:#6495ed;stroke-linejoin:miter;stroke-width:1.5;"/>
    </defs>
    <g>
     <use style="fill-opacity:0;stroke:#6495ed;stroke-linejoin:miter;stroke-width:1.5;" x="164.837851" xlink:href="#m9c6c8a8cb3" y="278.628321"/>
     <use style="fill-opacity:0;stroke:#6495ed;stroke-linejoin:miter;stroke-width:1.5;" x="223.991561" xlink:href="#m9c6c8a8cb3" y="269.191862"/>
     <use style="fill-opacity:0;stroke:#6495ed;stroke-linejoin:miter;stroke-width:1.5;" x="290.111218" xlink:href="#m9c6c8a8cb3" y="267.619119"/>
     <use style="fill-opacity:0;stroke:#6495ed;stroke-linejoin:miter;stroke-width:1.5;" x="316.613233" xlink:href="#m9c6c8a8cb3" y="264.473632"/>
     <use style="fill-opacity:0;stroke:#6495ed;stroke-linejoin:miter;stroke-width:1.5;" x="333.168" xlink:href="#m9c6c8a8cb3" y="264.473632"/>
    </g>
   </g>
   <g id="line2d_57">
    <path style="fill:none;stroke:#6495ed;stroke-linecap:square;stroke-width:1.5;"/>
    <g/>
   </g>
   <g id="line2d_58">
    <path clip-path="url(#p9aa652411a)" d="M 293.590324 267.619119 
" style="fill:none;stroke:#6495ed;stroke-linecap:square;stroke-width:1.5;"/>
    <defs>
     <path d="M -12 12 
L 12 -12 
M -12 -12 
L 12 12 
" id="md331851fd3" style="stroke:#6495ed;"/>
    </defs>
    <g clip-path="url(#p9aa652411a)">
     <use style="fill:#6495ed;stroke:#6495ed;" x="293.590324" xlink:href="#md331851fd3" y="267.619119"/>
    </g>
   </g>
   <g id="line2d_59">
    <path d="M 333.168 264.473632 
L 363.64328 289.532673 
" style="fill:none;stroke:#6495ed;stroke-linecap:square;stroke-width:1.5;"/>
    <g>
     <use style="fill-opacity:0;stroke:#6495ed;stroke-linejoin:miter;stroke-width:1.5;" x="333.168" xlink:href="#m9c6c8a8cb3" y="264.473632"/>
     <use style="fill-opacity:0;stroke:#6495ed;stroke-linejoin:miter;stroke-width:1.5;" x="363.64328" xlink:href="#m9c6c8a8cb3" y="289.532673"/>
    </g>
   </g>
   <g id="line2d_60">
    <path d="M 333.168 27.513663 
L 363.64328 225.364752 
" style="fill:none;stroke:#ff7500;stroke-linecap:square;stroke-width:1.5;"/>
    <g>
     <use style="fill-opacity:0;stroke:#ff7500;stroke-linejoin:bevel;stroke-width:1.5;" x="333.168" xlink:href="#me6a6d126b0" y="27.513663"/>
     <use style="fill-opacity:0;stroke:#ff7500;stroke-linejoin:bevel;stroke-width:1.5;" x="363.64328" xlink:href="#me6a6d126b0" y="225.364752"/>
    </g>
   </g>
   <g id="line2d_61">
    <path d="M 333.168 27.513663 
L 363.64328 161.196832 
" style="fill:none;stroke:#000080;stroke-linecap:square;stroke-width:1.5;"/>
    <g>
     <use style="fill-opacity:0;stroke:#000080;stroke-width:1.5;" x="333.168" xlink:href="#md05d28d7b3" y="27.513663"/>
     <use style="fill-opacity:0;stroke:#000080;stroke-width:1.5;" x="363.64328" xlink:href="#md05d28d7b3" y="161.196832"/>
    </g>
   </g>
   <g id="line2d_62">
    <path d="M 333.168 27.513663 
L 363.64328 97.028911 
" style="fill:none;stroke:#ff00ff;stroke-linecap:square;stroke-width:1.5;"/>
    <g>
     <use style="fill-opacity:0;stroke:#ff00ff;stroke-linejoin:miter;stroke-width:1.5;" x="333.168" xlink:href="#m763721793b" y="27.513663"/>
     <use style="fill-opacity:0;stroke:#ff00ff;stroke-linejoin:miter;stroke-width:1.5;" x="363.64328" xlink:href="#m763721793b" y="97.028911"/>
    </g>
   </g>
   <g id="line2d_63">
    <path d="M 333.168 294.88 
L 333.168 27.513663 
" style="fill:none;stroke:#000000;stroke-linecap:square;stroke-width:1.5;"/>
   </g>
   <g id="patch_3">
    <path d="M 56.12 294.88 
L 56.12 24.84 
" style="fill:none;stroke:#000000;stroke-linecap:square;stroke-linejoin:miter;stroke-width:0.8;"/>
   </g>
   <g id="patch_4">
    <path d="M 333.168 294.88 
L 333.168 24.84 
" style="fill:none;stroke:#000000;stroke-linecap:square;stroke-linejoin:miter;stroke-width:0.8;"/>
   </g>
   <g id="patch_5">
    <path d="M 56.12 294.88 
L 333.168 294.88 
" style="fill:none;stroke:#000000;stroke-linecap:square;stroke-linejoin:miter;stroke-width:0.8;"/>
   </g>
   <g id="patch_6">
    <path d="M 56.12 24.84 
L 333.168 24.84 
" style="fill:none;stroke:#000000;stroke-linecap:square;stroke-linejoin:miter;stroke-width:0.8;"/>
   </g>
   <g id="text_13">
    <!-- KL-BIPOP-CM -->
    <defs>
     <path d="M 9.8125 72.90625 
L 19.671875 72.90625 
L 19.671875 42.09375 
L 52.390625 72.90625 
L 65.09375 72.90625 
L 28.90625 38.921875 
L 67.671875 0 
L 54.6875 0 
L 19.671875 35.109375 
L 19.671875 0 
L 9.8125 0 
z
" id="DejaVuSans-4b"/>
     <path d="M 9.8125 72.90625 
L 19.671875 72.90625 
L 19.671875 8.296875 
L 55.171875 8.296875 
L 55.171875 0 
L 9.8125 0 
z
" id="DejaVuSans-4c"/>
     <path d="M 19.671875 34.8125 
L 19.671875 8.109375 
L 35.5 8.109375 
Q 43.453125 8.109375 47.28125 11.40625 
Q 51.125 14.703125 51.125 21.484375 
Q 51.125 28.328125 47.28125 31.5625 
Q 43.453125 34.8125 35.5 34.8125 
z
M 19.671875 64.796875 
L 19.671875 42.828125 
L 34.28125 42.828125 
Q 41.5 42.828125 45.03125 45.53125 
Q 48.578125 48.25 48.578125 53.8125 
Q 48.578125 59.328125 45.03125 62.0625 
Q 41.5 64.796875 34.28125 64.796875 
z
M 9.8125 72.90625 
L 35.015625 72.90625 
Q 46.296875 72.90625 52.390625 68.21875 
Q 58.5 63.53125 58.5 54.890625 
Q 58.5 48.1875 55.375 44.234375 
Q 52.25 40.28125 46.1875 39.3125 
Q 53.46875 37.75 57.5 32.78125 
Q 61.53125 27.828125 61.53125 20.40625 
Q 61.53125 10.640625 54.890625 5.3125 
Q 48.25 0 35.984375 0 
L 9.8125 0 
z
" id="DejaVuSans-42"/>
     <path d="M 9.8125 72.90625 
L 19.671875 72.90625 
L 19.671875 0 
L 9.8125 0 
z
" id="DejaVuSans-49"/>
     <path d="M 19.671875 64.796875 
L 19.671875 37.40625 
L 32.078125 37.40625 
Q 38.96875 37.40625 42.71875 40.96875 
Q 46.484375 44.53125 46.484375 51.125 
Q 46.484375 57.671875 42.71875 61.234375 
Q 38.96875 64.796875 32.078125 64.796875 
z
M 9.8125 72.90625 
L 32.078125 72.90625 
Q 44.34375 72.90625 50.609375 67.359375 
Q 56.890625 61.8125 56.890625 51.125 
Q 56.890625 40.328125 50.609375 34.8125 
Q 44.34375 29.296875 32.078125 29.296875 
L 19.671875 29.296875 
L 19.671875 0 
L 9.8125 0 
z
" id="DejaVuSans-50"/>
     <path d="M 39.40625 66.21875 
Q 28.65625 66.21875 22.328125 58.203125 
Q 16.015625 50.203125 16.015625 36.375 
Q 16.015625 22.609375 22.328125 14.59375 
Q 28.65625 6.59375 39.40625 6.59375 
Q 50.140625 6.59375 56.421875 14.59375 
Q 62.703125 22.609375 62.703125 36.375 
Q 62.703125 50.203125 56.421875 58.203125 
Q 50.140625 66.21875 39.40625 66.21875 
z
M 39.40625 74.21875 
Q 54.734375 74.21875 63.90625 63.9375 
Q 73.09375 53.65625 73.09375 36.375 
Q 73.09375 19.140625 63.90625 8.859375 
Q 54.734375 -1.421875 39.40625 -1.421875 
Q 24.03125 -1.421875 14.8125 8.828125 
Q 5.609375 19.09375 5.609375 36.375 
Q 5.609375 53.65625 14.8125 63.9375 
Q 24.03125 74.21875 39.40625 74.21875 
z
" id="DejaVuSans-4f"/>
     <path d="M 64.40625 67.28125 
L 64.40625 56.890625 
Q 59.421875 61.53125 53.78125 63.8125 
Q 48.140625 66.109375 41.796875 66.109375 
Q 29.296875 66.109375 22.65625 58.46875 
Q 16.015625 50.828125 16.015625 36.375 
Q 16.015625 21.96875 22.65625 14.328125 
Q 29.296875 6.6875 41.796875 6.6875 
Q 48.140625 6.6875 53.78125 8.984375 
Q 59.421875 11.28125 64.40625 15.921875 
L 64.40625 5.609375 
Q 59.234375 2.09375 53.4375 0.328125 
Q 47.65625 -1.421875 41.21875 -1.421875 
Q 24.65625 -1.421875 15.125 8.703125 
Q 5.609375 18.84375 5.609375 36.375 
Q 5.609375 53.953125 15.125 64.078125 
Q 24.65625 74.21875 41.21875 74.21875 
Q 47.75 74.21875 53.53125 72.484375 
Q 59.328125 70.75 64.40625 67.28125 
z
" id="DejaVuSans-43"/>
     <path d="M 9.8125 72.90625 
L 24.515625 72.90625 
L 43.109375 23.296875 
L 61.8125 72.90625 
L 76.515625 72.90625 
L 76.515625 0 
L 66.890625 0 
L 66.890625 64.015625 
L 48.09375 14.015625 
L 38.1875 14.015625 
L 19.390625 64.015625 
L 19.390625 0 
L 9.8125 0 
z
" id="DejaVuSans-4d"/>
    </defs>
    <g transform="translate(369.18424 294.223611)scale(0.17 -0.17)">
     <use xlink:href="#DejaVuSans-4b"/>
     <use x="65.576172" xlink:href="#DejaVuSans-4c"/>
     <use x="121.273438" xlink:href="#DejaVuSans-2d"/>
     <use x="157.310547" xlink:href="#DejaVuSans-42"/>
     <use x="225.914062" xlink:href="#DejaVuSans-49"/>
     <use x="255.40625" xlink:href="#DejaVuSans-50"/>
     <use x="315.708984" xlink:href="#DejaVuSans-4f"/>
     <use x="394.419922" xlink:href="#DejaVuSans-50"/>
     <use x="454.691406" xlink:href="#DejaVuSans-2d"/>
     <use x="490.775391" xlink:href="#DejaVuSans-43"/>
     <use x="560.599609" xlink:href="#DejaVuSans-4d"/>
    </g>
   </g>
   <g id="text_14">
    <!-- R-SHADE-Tan -->
    <defs>
     <path d="M 44.390625 34.1875 
Q 47.5625 33.109375 50.5625 29.59375 
Q 53.5625 26.078125 56.59375 19.921875 
L 66.609375 0 
L 56 0 
L 46.6875 18.703125 
Q 43.0625 26.03125 39.671875 28.421875 
Q 36.28125 30.8125 30.421875 30.8125 
L 19.671875 30.8125 
L 19.671875 0 
L 9.8125 0 
L 9.8125 72.90625 
L 32.078125 72.90625 
Q 44.578125 72.90625 50.734375 67.671875 
Q 56.890625 62.453125 56.890625 51.90625 
Q 56.890625 45.015625 53.6875 40.46875 
Q 50.484375 35.9375 44.390625 34.1875 
z
M 19.671875 64.796875 
L 19.671875 38.921875 
L 32.078125 38.921875 
Q 39.203125 38.921875 42.84375 42.21875 
Q 46.484375 45.515625 46.484375 51.90625 
Q 46.484375 58.296875 42.84375 61.546875 
Q 39.203125 64.796875 32.078125 64.796875 
z
" id="DejaVuSans-52"/>
     <path d="M 53.515625 70.515625 
L 53.515625 60.890625 
Q 47.90625 63.578125 42.921875 64.890625 
Q 37.9375 66.21875 33.296875 66.21875 
Q 25.25 66.21875 20.875 63.09375 
Q 16.5 59.96875 16.5 54.203125 
Q 16.5 49.359375 19.40625 46.890625 
Q 22.3125 44.4375 30.421875 42.921875 
L 36.375 41.703125 
Q 47.40625 39.59375 52.65625 34.296875 
Q 57.90625 29 57.90625 20.125 
Q 57.90625 9.515625 50.796875 4.046875 
Q 43.703125 -1.421875 29.984375 -1.421875 
Q 24.8125 -1.421875 18.96875 -0.25 
Q 13.140625 0.921875 6.890625 3.21875 
L 6.890625 13.375 
Q 12.890625 10.015625 18.65625 8.296875 
Q 24.421875 6.59375 29.984375 6.59375 
Q 38.421875 6.59375 43.015625 9.90625 
Q 47.609375 13.234375 47.609375 19.390625 
Q 47.609375 24.75 44.3125 27.78125 
Q 41.015625 30.8125 33.5 32.328125 
L 27.484375 33.5 
Q 16.453125 35.6875 11.515625 40.375 
Q 6.59375 45.0625 6.59375 53.421875 
Q 6.59375 63.09375 13.40625 68.65625 
Q 20.21875 74.21875 32.171875 74.21875 
Q 37.3125 74.21875 42.625 73.28125 
Q 47.953125 72.359375 53.515625 70.515625 
z
" id="DejaVuSans-53"/>
     <path d="M 9.8125 72.90625 
L 19.671875 72.90625 
L 19.671875 43.015625 
L 55.515625 43.015625 
L 55.515625 72.90625 
L 65.375 72.90625 
L 65.375 0 
L 55.515625 0 
L 55.515625 34.71875 
L 19.671875 34.71875 
L 19.671875 0 
L 9.8125 0 
z
" id="DejaVuSans-48"/>
     <path d="M 34.1875 63.1875 
L 20.796875 26.90625 
L 47.609375 26.90625 
z
M 28.609375 72.90625 
L 39.796875 72.90625 
L 67.578125 0 
L 57.328125 0 
L 50.6875 18.703125 
L 17.828125 18.703125 
L 11.1875 0 
L 0.78125 0 
z
" id="DejaVuSans-41"/>
     <path d="M 19.671875 64.796875 
L 19.671875 8.109375 
L 31.59375 8.109375 
Q 46.6875 8.109375 53.6875 14.9375 
Q 60.6875 21.78125 60.6875 36.53125 
Q 60.6875 51.171875 53.6875 57.984375 
Q 46.6875 64.796875 31.59375 64.796875 
z
M 9.8125 72.90625 
L 30.078125 72.90625 
Q 51.265625 72.90625 61.171875 64.09375 
Q 71.09375 55.28125 71.09375 36.53125 
Q 71.09375 17.671875 61.125 8.828125 
Q 51.171875 0 30.078125 0 
L 9.8125 0 
z
" id="DejaVuSans-44"/>
     <path d="M 9.8125 72.90625 
L 55.90625 72.90625 
L 55.90625 64.59375 
L 19.671875 64.59375 
L 19.671875 43.015625 
L 54.390625 43.015625 
L 54.390625 34.71875 
L 19.671875 34.71875 
L 19.671875 8.296875 
L 56.78125 8.296875 
L 56.78125 0 
L 9.8125 0 
z
" id="DejaVuSans-45"/>
     <path d="M -0.296875 72.90625 
L 61.375 72.90625 
L 61.375 64.59375 
L 35.5 64.59375 
L 35.5 0 
L 25.59375 0 
L 25.59375 64.59375 
L -0.296875 64.59375 
z
" id="DejaVuSans-54"/>
    </defs>
    <g transform="translate(369.18424 230.05569)scale(0.17 -0.17)">
     <use xlink:href="#DejaVuSans-52"/>
     <use x="69.419922" xlink:href="#DejaVuSans-2d"/>
     <use x="105.503906" xlink:href="#DejaVuSans-53"/>
     <use x="168.980469" xlink:href="#DejaVuSans-48"/>
     <use x="244.175781" xlink:href="#DejaVuSans-41"/>
     <use x="312.583984" xlink:href="#DejaVuSans-44"/>
     <use x="389.585938" xlink:href="#DejaVuSans-45"/>
     <use x="452.769531" xlink:href="#DejaVuSans-2d"/>
     <use x="488.712891" xlink:href="#DejaVuSans-54"/>
     <use x="549.546875" xlink:href="#DejaVuSans-61"/>
     <use x="610.826172" xlink:href="#DejaVuSans-6e"/>
    </g>
   </g>
   <g id="text_15">
    <!-- SHADE-LM -->
    <g transform="translate(369.18424 165.887769)scale(0.17 -0.17)">
     <use xlink:href="#DejaVuSans-53"/>
     <use x="63.476562" xlink:href="#DejaVuSans-48"/>
     <use x="138.671875" xlink:href="#DejaVuSans-41"/>
     <use x="207.080078" xlink:href="#DejaVuSans-44"/>
     <use x="284.082031" xlink:href="#DejaVuSans-45"/>
     <use x="347.265625" xlink:href="#DejaVuSans-2d"/>
     <use x="383.349609" xlink:href="#DejaVuSans-4c"/>
     <use x="439.0625" xlink:href="#DejaVuSans-4d"/>
    </g>
   </g>
   <g id="text_16">
    <!-- SHADE-LM-PO -->
    <g transform="translate(369.18424 101.719848)scale(0.17 -0.17)">
     <use xlink:href="#DejaVuSans-53"/>
     <use x="63.476562" xlink:href="#DejaVuSans-48"/>
     <use x="138.671875" xlink:href="#DejaVuSans-41"/>
     <use x="207.080078" xlink:href="#DejaVuSans-44"/>
     <use x="284.082031" xlink:href="#DejaVuSans-45"/>
     <use x="347.265625" xlink:href="#DejaVuSans-2d"/>
     <use x="383.349609" xlink:href="#DejaVuSans-4c"/>
     <use x="439.0625" xlink:href="#DejaVuSans-4d"/>
     <use x="525.341797" xlink:href="#DejaVuSans-2d"/>
     <use x="561.425781" xlink:href="#DejaVuSans-50"/>
     <use x="621.728516" xlink:href="#DejaVuSans-4f"/>
    </g>
   </g>
   <g id="text_17">
    <!-- best 2009 -->
    <defs>
     <path d="M 48.6875 27.296875 
Q 48.6875 37.203125 44.609375 42.84375 
Q 40.53125 48.484375 33.40625 48.484375 
Q 26.265625 48.484375 22.1875 42.84375 
Q 18.109375 37.203125 18.109375 27.296875 
Q 18.109375 17.390625 22.1875 11.75 
Q 26.265625 6.109375 33.40625 6.109375 
Q 40.53125 6.109375 44.609375 11.75 
Q 48.6875 17.390625 48.6875 27.296875 
z
M 18.109375 46.390625 
Q 20.953125 51.265625 25.265625 53.625 
Q 29.59375 56 35.59375 56 
Q 45.5625 56 51.78125 48.09375 
Q 58.015625 40.1875 58.015625 27.296875 
Q 58.015625 14.40625 51.78125 6.484375 
Q 45.5625 -1.421875 35.59375 -1.421875 
Q 29.59375 -1.421875 25.265625 0.953125 
Q 20.953125 3.328125 18.109375 8.203125 
L 18.109375 0 
L 9.078125 0 
L 9.078125 75.984375 
L 18.109375 75.984375 
z
" id="DejaVuSans-62"/>
     <path d="M 10.984375 1.515625 
L 10.984375 10.5 
Q 14.703125 8.734375 18.5 7.8125 
Q 22.3125 6.890625 25.984375 6.890625 
Q 35.75 6.890625 40.890625 13.453125 
Q 46.046875 20.015625 46.78125 33.40625 
Q 43.953125 29.203125 39.59375 26.953125 
Q 35.25 24.703125 29.984375 24.703125 
Q 19.046875 24.703125 12.671875 31.3125 
Q 6.296875 37.9375 6.296875 49.421875 
Q 6.296875 60.640625 12.9375 67.421875 
Q 19.578125 74.21875 30.609375 74.21875 
Q 43.265625 74.21875 49.921875 64.515625 
Q 56.59375 54.828125 56.59375 36.375 
Q 56.59375 19.140625 48.40625 8.859375 
Q 40.234375 -1.421875 26.421875 -1.421875 
Q 22.703125 -1.421875 18.890625 -0.6875 
Q 15.09375 0.046875 10.984375 1.515625 
z
M 30.609375 32.421875 
Q 37.25 32.421875 41.125 36.953125 
Q 45.015625 41.5 45.015625 49.421875 
Q 45.015625 57.28125 41.125 61.84375 
Q 37.25 66.40625 30.609375 66.40625 
Q 23.96875 66.40625 20.09375 61.84375 
Q 16.21875 57.28125 16.21875 49.421875 
Q 16.21875 41.5 20.09375 36.953125 
Q 23.96875 32.421875 30.609375 32.421875 
z
" id="DejaVuSans-39"/>
    </defs>
    <g transform="translate(369.18424 37.551928)scale(0.17 -0.17)">
     <use xlink:href="#DejaVuSans-62"/>
     <use x="63.476562" xlink:href="#DejaVuSans-65"/>
     <use x="125" xlink:href="#DejaVuSans-73"/>
     <use x="177.099609" xlink:href="#DejaVuSans-74"/>
     <use x="216.308594" xlink:href="#DejaVuSans-20"/>
     <use x="248.095703" xlink:href="#DejaVuSans-32"/>
     <use x="311.71875" xlink:href="#DejaVuSans-30"/>
     <use x="375.341797" xlink:href="#DejaVuSans-30"/>
     <use x="438.964844" xlink:href="#DejaVuSans-39"/>
    </g>
   </g>
   <g id="text_18">
    <!-- bbob f4, 20-D -->
    <g transform="translate(58.89048 35.290806)scale(0.102 -0.102)">
     <use xlink:href="#DejaVuSans-62"/>
     <use x="63.476562" xlink:href="#DejaVuSans-62"/>
     <use x="126.953125" xlink:href="#DejaVuSans-6f"/>
     <use x="188.134766" xlink:href="#DejaVuSans-62"/>
     <use x="251.611328" xlink:href="#DejaVuSans-20"/>
     <use x="283.398438" xlink:href="#DejaVuSans-66"/>
     <use x="318.603516" xlink:href="#DejaVuSans-34"/>
     <use x="382.226562" xlink:href="#DejaVuSans-2c"/>
     <use x="414.013672" xlink:href="#DejaVuSans-20"/>
     <use x="445.800781" xlink:href="#DejaVuSans-32"/>
     <use x="509.423828" xlink:href="#DejaVuSans-30"/>
     <use x="573.046875" xlink:href="#DejaVuSans-2d"/>
     <use x="609.130859" xlink:href="#DejaVuSans-44"/>
    </g>
    <!-- 51 targets: 100..1e-08 -->
    <defs>
     <path d="M 10.796875 72.90625 
L 49.515625 72.90625 
L 49.515625 64.59375 
L 19.828125 64.59375 
L 19.828125 46.734375 
Q 21.96875 47.46875 24.109375 47.828125 
Q 26.265625 48.1875 28.421875 48.1875 
Q 40.625 48.1875 47.75 41.5 
Q 54.890625 34.8125 54.890625 23.390625 
Q 54.890625 11.625 47.5625 5.09375 
Q 40.234375 -1.421875 26.90625 -1.421875 
Q 22.3125 -1.421875 17.546875 -0.640625 
Q 12.796875 0.140625 7.71875 1.703125 
L 7.71875 11.625 
Q 12.109375 9.234375 16.796875 8.0625 
Q 21.484375 6.890625 26.703125 6.890625 
Q 35.15625 6.890625 40.078125 11.328125 
Q 45.015625 15.765625 45.015625 23.390625 
Q 45.015625 31 40.078125 35.4375 
Q 35.15625 39.890625 26.703125 39.890625 
Q 22.75 39.890625 18.8125 39.015625 
Q 14.890625 38.140625 10.796875 36.28125 
z
" id="DejaVuSans-35"/>
     <path d="M 11.71875 12.40625 
L 22.015625 12.40625 
L 22.015625 0 
L 11.71875 0 
z
M 11.71875 51.703125 
L 22.015625 51.703125 
L 22.015625 39.3125 
L 11.71875 39.3125 
z
" id="DejaVuSans-3a"/>
    </defs>
    <g transform="translate(58.89048 46.712575)scale(0.102 -0.102)">
     <use xlink:href="#DejaVuSans-35"/>
     <use x="63.623047" xlink:href="#DejaVuSans-31"/>
     <use x="127.246094" xlink:href="#DejaVuSans-20"/>
     <use x="159.033203" xlink:href="#DejaVuSans-74"/>
     <use x="198.242188" xlink:href="#DejaVuSans-61"/>
     <use x="259.521484" xlink:href="#DejaVuSans-72"/>
     <use x="300.619141" xlink:href="#DejaVuSans-67"/>
     <use x="364.095703" xlink:href="#DejaVuSans-65"/>
     <use x="425.619141" xlink:href="#DejaVuSans-74"/>
     <use x="464.828125" xlink:href="#DejaVuSans-73"/>
     <use x="516.927734" xlink:href="#DejaVuSans-3a"/>
     <use x="550.619141" xlink:href="#DejaVuSans-20"/>
     <use x="582.40625" xlink:href="#DejaVuSans-31"/>
     <use x="646.029297" xlink:href="#DejaVuSans-30"/>
     <use x="709.652344" xlink:href="#DejaVuSans-30"/>
     <use x="773.275391" xlink:href="#DejaVuSans-2e"/>
     <use x="805.0625" xlink:href="#DejaVuSans-2e"/>
     <use x="836.849609" xlink:href="#DejaVuSans-31"/>
     <use x="900.472656" xlink:href="#DejaVuSans-65"/>
     <use x="961.996094" xlink:href="#DejaVuSans-2d"/>
     <use x="998.080078" xlink:href="#DejaVuSans-30"/>
     <use x="1061.703125" xlink:href="#DejaVuSans-38"/>
    </g>
    <!-- 15 instances -->
    <g transform="translate(58.89048 58.134344)scale(0.102 -0.102)">
     <use xlink:href="#DejaVuSans-31"/>
     <use x="63.623047" xlink:href="#DejaVuSans-35"/>
     <use x="127.246094" xlink:href="#DejaVuSans-20"/>
     <use x="159.033203" xlink:href="#DejaVuSans-69"/>
     <use x="186.816406" xlink:href="#DejaVuSans-6e"/>
     <use x="250.195312" xlink:href="#DejaVuSans-73"/>
     <use x="302.294922" xlink:href="#DejaVuSans-74"/>
     <use x="341.503906" xlink:href="#DejaVuSans-61"/>
     <use x="402.783203" xlink:href="#DejaVuSans-6e"/>
     <use x="466.162109" xlink:href="#DejaVuSans-63"/>
     <use x="521.142578" xlink:href="#DejaVuSans-65"/>
     <use x="582.666016" xlink:href="#DejaVuSans-73"/>
    </g>
   </g>
   <g id="text_19">
    <!-- v2.4 -->
    <g style="fill:#808080;" transform="translate(183.733063 290.099912)scale(0.1 -0.1)">
     <use xlink:href="#DejaVuSans-76"/>
     <use x="59.179688" xlink:href="#DejaVuSans-32"/>
     <use x="122.802734" xlink:href="#DejaVuSans-2e"/>
     <use x="154.589844" xlink:href="#DejaVuSans-34"/>
    </g>
   </g>
   <g id="text_20">
    <!-- 4 Skew Rastrigin-Bueche separ -->
    <defs>
     <path d="M 9.078125 75.984375 
L 18.109375 75.984375 
L 18.109375 31.109375 
L 44.921875 54.6875 
L 56.390625 54.6875 
L 27.390625 29.109375 
L 57.625 0 
L 45.90625 0 
L 18.109375 26.703125 
L 18.109375 0 
L 9.078125 0 
z
" id="DejaVuSans-6b"/>
     <path d="M 4.203125 54.6875 
L 13.1875 54.6875 
L 24.421875 12.015625 
L 35.59375 54.6875 
L 46.1875 54.6875 
L 57.421875 12.015625 
L 68.609375 54.6875 
L 77.59375 54.6875 
L 63.28125 0 
L 52.6875 0 
L 40.921875 44.828125 
L 29.109375 0 
L 18.5 0 
z
" id="DejaVuSans-77"/>
     <path d="M 54.890625 33.015625 
L 54.890625 0 
L 45.90625 0 
L 45.90625 32.71875 
Q 45.90625 40.484375 42.875 44.328125 
Q 39.84375 48.1875 33.796875 48.1875 
Q 26.515625 48.1875 22.3125 43.546875 
Q 18.109375 38.921875 18.109375 30.90625 
L 18.109375 0 
L 9.078125 0 
L 9.078125 75.984375 
L 18.109375 75.984375 
L 18.109375 46.1875 
Q 21.34375 51.125 25.703125 53.5625 
Q 30.078125 56 35.796875 56 
Q 45.21875 56 50.046875 50.171875 
Q 54.890625 44.34375 54.890625 33.015625 
z
" id="DejaVuSans-68"/>
    </defs>
    <g transform="translate(38.8315 18.84)scale(0.2 -0.2)">
     <use xlink:href="#DejaVuSans-34"/>
     <use x="63.623047" xlink:href="#DejaVuSans-20"/>
     <use x="95.410156" xlink:href="#DejaVuSans-53"/>
     <use x="158.886719" xlink:href="#DejaVuSans-6b"/>
     <use x="216.75" xlink:href="#DejaVuSans-65"/>
     <use x="278.273438" xlink:href="#DejaVuSans-77"/>
     <use x="360.060547" xlink:href="#DejaVuSans-20"/>
     <use x="391.847656" xlink:href="#DejaVuSans-52"/>
     <use x="461.298828" xlink:href="#DejaVuSans-61"/>
     <use x="522.578125" xlink:href="#DejaVuSans-73"/>
     <use x="574.677734" xlink:href="#DejaVuSans-74"/>
     <use x="613.886719" xlink:href="#DejaVuSans-72"/>
     <use x="655" xlink:href="#DejaVuSans-69"/>
     <use x="682.783203" xlink:href="#DejaVuSans-67"/>
     <use x="746.259766" xlink:href="#DejaVuSans-69"/>
     <use x="774.042969" xlink:href="#DejaVuSans-6e"/>
     <use x="837.421875" xlink:href="#DejaVuSans-2d"/>
     <use x="873.458984" xlink:href="#DejaVuSans-42"/>
     <use x="942.0625" xlink:href="#DejaVuSans-75"/>
     <use x="1005.441406" xlink:href="#DejaVuSans-65"/>
     <use x="1066.964844" xlink:href="#DejaVuSans-63"/>
     <use x="1121.945312" xlink:href="#DejaVuSans-68"/>
     <use x="1185.324219" xlink:href="#DejaVuSans-65"/>
     <use x="1246.847656" xlink:href="#DejaVuSans-20"/>
     <use x="1278.634766" xlink:href="#DejaVuSans-73"/>
     <use x="1330.734375" xlink:href="#DejaVuSans-65"/>
     <use x="1392.257812" xlink:href="#DejaVuSans-70"/>
     <use x="1455.734375" xlink:href="#DejaVuSans-61"/>
     <use x="1517.013672" xlink:href="#DejaVuSans-72"/>
    </g>
   </g>
  </g>
 </g>
 <defs>
  <clipPath id="p9aa652411a">
   <rect height="270.04" width="277.048" x="56.12" y="24.84"/>
  </clipPath>
 </defs>
</svg>
