<?xml version="1.0" encoding="utf-8" standalone="no"?>
<!DOCTYPE svg PUBLIC "-//W3C//DTD SVG 1.1//EN"
  "http://www.w3.org/Graphics/SVG/1.1/DTD/svg11.dtd">
<!-- Created with matplotlib (http://matplotlib.org/) -->
<svg height="345.6pt" version="1.1" viewBox="0 0 460.8 345.6" width="460.8pt" xmlns="http://www.w3.org/2000/svg" xmlns:xlink="http://www.w3.org/1999/xlink">
 <defs>
  <style type="text/css">
*{stroke-linecap:butt;stroke-linejoin:round;}
  </style>
 </defs>
 <g id="figure_1">
  <g id="patch_1">
   <path d="M 0 345.6 
L 460.8 345.6 
L 460.8 0 
L 0 0 
z
" style="fill:#ffffff;"/>
  </g>
  <g id="axes_1">
   <g id="patch_2">
    <path d="M 56.12 294.88 
L 333.168 294.88 
L 333.168 24.84 
L 56.12 24.84 
z
" style="fill:#ffffff;"/>
   </g>
   <g id="line2d_1">
    <path d="M 95.351029 294.88 
L 95.351029 289.637523 
L 101.358566 289.637523 
L 101.358566 284.395046 
L 132.563791 284.395046 
L 132.563791 279.152568 
L 141.55622 279.152568 
L 141.55622 273.910091 
L 144.983773 273.910091 
L 144.983773 268.667614 
L 149.092685 268.667614 
L 149.092685 263.425137 
L 151.995456 263.425137 
L 151.995456 258.18266 
L 154.696079 258.18266 
L 154.696079 252.940182 
L 157.365541 252.940182 
L 157.365541 247.697705 
L 157.370295 247.697705 
L 157.370295 242.455228 
L 157.417765 242.455228 
L 157.417765 237.212751 
L 157.549986 237.212751 
L 157.549986 231.970274 
L 157.559391 231.970274 
L 157.559391 226.727797 
L 157.568792 226.727797 
L 157.568792 221.485319 
L 157.578187 221.485319 
L 157.578187 211.000365 
L 157.59227 211.000365 
L 157.59227 205.757888 
L 157.653165 205.757888 
L 157.653165 200.515411 
L 157.709184 200.515411 
L 157.709184 195.272933 
L 157.732472 195.272933 
L 157.732472 190.030456 
L 157.741778 190.030456 
L 157.741778 184.787979 
L 157.77431 184.787979 
L 157.77431 174.303025 
L 157.778953 174.303025 
L 157.778953 169.060547 
L 157.79751 169.060547 
L 157.79751 158.575593 
L 157.92225 158.575593 
L 157.92225 142.848162 
L 157.926853 142.848162 
L 157.926853 127.12073 
L 157.936054 127.12073 
L 157.936054 116.635776 
L 157.940653 116.635776 
L 157.940653 111.393298 
L 157.968221 111.393298 
L 157.968221 106.150821 
L 158.0278 106.150821 
L 158.0278 100.908344 
L 158.032375 100.908344 
L 158.032375 95.665867 
L 158.078053 95.665867 
L 158.078053 90.42339 
L 158.091733 90.42339 
L 158.091733 79.938435 
L 158.100847 79.938435 
L 158.100847 74.695958 
L 158.105402 74.695958 
L 158.105402 69.453481 
L 193.01652 69.453481 
L 193.01652 58.968526 
L 193.017118 58.968526 
L 193.017118 53.726049 
L 193.017715 53.726049 
L 193.017715 43.241095 
L 193.018313 43.241095 
L 193.018313 37.998618 
L 193.01891 37.998618 
L 193.01891 27.513663 
L 333.168 27.513663 
" style="fill:none;stroke:#f5deb3;stroke-linecap:square;stroke-width:4;"/>
   </g>
   <g id="line2d_2">
    <defs>
     <path d="M -0 7.778175 
L 7.778175 0 
L 0 -7.778175 
L -7.778175 -0 
z
" id="m4c1dc57fad" style="stroke:#f5deb3;stroke-linejoin:miter;stroke-width:1.5;"/>
    </defs>
    <g>
     <use style="fill:#f5deb3;stroke:#f5deb3;stroke-linejoin:miter;stroke-width:1.5;" x="157.79751" xlink:href="#m4c1dc57fad" y="169.060547"/>
     <use style="fill:#f5deb3;stroke:#f5deb3;stroke-linejoin:miter;stroke-width:1.5;" x="158.105402" xlink:href="#m4c1dc57fad" y="69.453481"/>
     <use style="fill:#f5deb3;stroke:#f5deb3;stroke-linejoin:miter;stroke-width:1.5;" x="193.01891" xlink:href="#m4c1dc57fad" y="27.513663"/>
     <use style="fill:#f5deb3;stroke:#f5deb3;stroke-linejoin:miter;stroke-width:1.5;" x="193.01891" xlink:href="#m4c1dc57fad" y="27.513663"/>
     <use style="fill:#f5deb3;stroke:#f5deb3;stroke-linejoin:miter;stroke-width:1.5;" x="333.168" xlink:href="#m4c1dc57fad" y="27.513663"/>
    </g>
   </g>
   <g id="line2d_3">
    <path style="fill:none;stroke:#f5deb3;stroke-linecap:square;stroke-width:4;"/>
    <g/>
   </g>
   <g id="line2d_4">
    <path d="M 333.168 27.513663 
L 363.64328 32.86099 
" style="fill:none;stroke:#f5deb3;stroke-linecap:square;stroke-width:4;"/>
    <g>
     <use style="fill:#f5deb3;stroke:#f5deb3;stroke-linejoin:miter;stroke-width:1.5;" x="333.168" xlink:href="#m4c1dc57fad" y="27.513663"/>
     <use style="fill:#f5deb3;stroke:#f5deb3;stroke-linejoin:miter;stroke-width:1.5;" x="363.64328" xlink:href="#m4c1dc57fad" y="32.86099"/>
    </g>
   </g>
   <g id="matplotlib.axis_1">
    <g id="xtick_1">
     <g id="line2d_5">
      <path clip-path="url(#pd72df616e1)" d="M 56.12 294.88 
L 56.12 24.84 
" style="fill:none;stroke:#b0b0b0;stroke-linecap:square;stroke-width:0.8;"/>
     </g>
     <g id="line2d_6">
      <defs>
       <path d="M 0 0 
L 0 3.5 
" id="m114d53d776" style="stroke:#000000;stroke-width:0.8;"/>
      </defs>
      <g>
       <use style="stroke:#000000;stroke-width:0.8;" x="56.12" xlink:href="#m114d53d776" y="294.88"/>
      </g>
     </g>
     <g id="text_1">
      <!-- 0 -->
      <defs>
       <path d="M 31.78125 66.40625 
Q 24.171875 66.40625 20.328125 58.90625 
Q 16.5 51.421875 16.5 36.375 
Q 16.5 21.390625 20.328125 13.890625 
Q 24.171875 6.390625 31.78125 6.390625 
Q 39.453125 6.390625 43.28125 13.890625 
Q 47.125 21.390625 47.125 36.375 
Q 47.125 51.421875 43.28125 58.90625 
Q 39.453125 66.40625 31.78125 66.40625 
z
M 31.78125 74.21875 
Q 44.046875 74.21875 50.515625 64.515625 
Q 56.984375 54.828125 56.984375 36.375 
Q 56.984375 17.96875 50.515625 8.265625 
Q 44.046875 -1.421875 31.78125 -1.421875 
Q 19.53125 -1.421875 13.0625 8.265625 
Q 6.59375 17.96875 6.59375 36.375 
Q 6.59375 54.828125 13.0625 64.515625 
Q 19.53125 74.21875 31.78125 74.21875 
z
" id="DejaVuSans-30"/>
      </defs>
      <g transform="translate(49.7575 317.076875)scale(0.2 -0.2)">
       <use xlink:href="#DejaVuSans-30"/>
      </g>
     </g>
    </g>
    <g id="xtick_2">
     <g id="line2d_7">
      <path clip-path="url(#pd72df616e1)" d="M 135.276571 294.88 
L 135.276571 24.84 
" style="fill:none;stroke:#b0b0b0;stroke-linecap:square;stroke-width:0.8;"/>
     </g>
     <g id="line2d_8">
      <g>
       <use style="stroke:#000000;stroke-width:0.8;" x="135.276571" xlink:href="#m114d53d776" y="294.88"/>
      </g>
     </g>
     <g id="text_2">
      <!-- 2 -->
      <defs>
       <path d="M 19.1875 8.296875 
L 53.609375 8.296875 
L 53.609375 0 
L 7.328125 0 
L 7.328125 8.296875 
Q 12.9375 14.109375 22.625 23.890625 
Q 32.328125 33.6875 34.8125 36.53125 
Q 39.546875 41.84375 41.421875 45.53125 
Q 43.3125 49.21875 43.3125 52.78125 
Q 43.3125 58.59375 39.234375 62.25 
Q 35.15625 65.921875 28.609375 65.921875 
Q 23.96875 65.921875 18.8125 64.3125 
Q 13.671875 62.703125 7.8125 59.421875 
L 7.8125 69.390625 
Q 13.765625 71.78125 18.9375 73 
Q 24.125 74.21875 28.421875 74.21875 
Q 39.75 74.21875 46.484375 68.546875 
Q 53.21875 62.890625 53.21875 53.421875 
Q 53.21875 48.921875 51.53125 44.890625 
Q 49.859375 40.875 45.40625 35.40625 
Q 44.1875 33.984375 37.640625 27.21875 
Q 31.109375 20.453125 19.1875 8.296875 
z
" id="DejaVuSans-32"/>
      </defs>
      <g transform="translate(128.914071 317.076875)scale(0.2 -0.2)">
       <use xlink:href="#DejaVuSans-32"/>
      </g>
     </g>
    </g>
    <g id="xtick_3">
     <g id="line2d_9">
      <path clip-path="url(#pd72df616e1)" d="M 214.433143 294.88 
L 214.433143 24.84 
" style="fill:none;stroke:#b0b0b0;stroke-linecap:square;stroke-width:0.8;"/>
     </g>
     <g id="line2d_10">
      <g>
       <use style="stroke:#000000;stroke-width:0.8;" x="214.433143" xlink:href="#m114d53d776" y="294.88"/>
      </g>
     </g>
     <g id="text_3">
      <!-- 4 -->
      <defs>
       <path d="M 37.796875 64.3125 
L 12.890625 25.390625 
L 37.796875 25.390625 
z
M 35.203125 72.90625 
L 47.609375 72.90625 
L 47.609375 25.390625 
L 58.015625 25.390625 
L 58.015625 17.1875 
L 47.609375 17.1875 
L 47.609375 0 
L 37.796875 0 
L 37.796875 17.1875 
L 4.890625 17.1875 
L 4.890625 26.703125 
z
" id="DejaVuSans-34"/>
      </defs>
      <g transform="translate(208.070643 317.076875)scale(0.2 -0.2)">
       <use xlink:href="#DejaVuSans-34"/>
      </g>
     </g>
    </g>
    <g id="xtick_4">
     <g id="line2d_11">
      <path clip-path="url(#pd72df616e1)" d="M 293.589714 294.88 
L 293.589714 24.84 
" style="fill:none;stroke:#b0b0b0;stroke-linecap:square;stroke-width:0.8;"/>
     </g>
     <g id="line2d_12">
      <g>
       <use style="stroke:#000000;stroke-width:0.8;" x="293.589714" xlink:href="#m114d53d776" y="294.88"/>
      </g>
     </g>
     <g id="text_4">
      <!-- 6 -->
      <defs>
       <path d="M 33.015625 40.375 
Q 26.375 40.375 22.484375 35.828125 
Q 18.609375 31.296875 18.609375 23.390625 
Q 18.609375 15.53125 22.484375 10.953125 
Q 26.375 6.390625 33.015625 6.390625 
Q 39.65625 6.390625 43.53125 10.953125 
Q 47.40625 15.53125 47.40625 23.390625 
Q 47.40625 31.296875 43.53125 35.828125 
Q 39.65625 40.375 33.015625 40.375 
z
M 52.59375 71.296875 
L 52.59375 62.3125 
Q 48.875 64.0625 45.09375 64.984375 
Q 41.3125 65.921875 37.59375 65.921875 
Q 27.828125 65.921875 22.671875 59.328125 
Q 17.53125 52.734375 16.796875 39.40625 
Q 19.671875 43.65625 24.015625 45.921875 
Q 28.375 48.1875 33.59375 48.1875 
Q 44.578125 48.1875 50.953125 41.515625 
Q 57.328125 34.859375 57.328125 23.390625 
Q 57.328125 12.15625 50.6875 5.359375 
Q 44.046875 -1.421875 33.015625 -1.421875 
Q 20.359375 -1.421875 13.671875 8.265625 
Q 6.984375 17.96875 6.984375 36.375 
Q 6.984375 53.65625 15.1875 63.9375 
Q 23.390625 74.21875 37.203125 74.21875 
Q 40.921875 74.21875 44.703125 73.484375 
Q 48.484375 72.75 52.59375 71.296875 
z
" id="DejaVuSans-36"/>
      </defs>
      <g transform="translate(287.227214 317.076875)scale(0.2 -0.2)">
       <use xlink:href="#DejaVuSans-36"/>
      </g>
     </g>
    </g>
    <g id="xtick_5">
     <g id="line2d_13">
      <path clip-path="url(#pd72df616e1)" d="M 56.12 294.88 
L 56.12 24.84 
" style="fill:none;stroke:#b0b0b0;stroke-linecap:square;stroke-width:0.8;"/>
     </g>
     <g id="line2d_14">
      <defs>
       <path d="M 0 0 
L 0 2 
" id="m9f03e3eed2" style="stroke:#000000;stroke-width:0.6;"/>
      </defs>
      <g>
       <use style="stroke:#000000;stroke-width:0.6;" x="56.12" xlink:href="#m9f03e3eed2" y="294.88"/>
      </g>
     </g>
    </g>
    <g id="xtick_6">
     <g id="line2d_15">
      <path clip-path="url(#pd72df616e1)" d="M 95.698286 294.88 
L 95.698286 24.84 
" style="fill:none;stroke:#b0b0b0;stroke-linecap:square;stroke-width:0.8;"/>
     </g>
     <g id="line2d_16">
      <g>
       <use style="stroke:#000000;stroke-width:0.6;" x="95.698286" xlink:href="#m9f03e3eed2" y="294.88"/>
      </g>
     </g>
    </g>
    <g id="xtick_7">
     <g id="line2d_17">
      <path clip-path="url(#pd72df616e1)" d="M 135.276571 294.88 
L 135.276571 24.84 
" style="fill:none;stroke:#b0b0b0;stroke-linecap:square;stroke-width:0.8;"/>
     </g>
     <g id="line2d_18">
      <g>
       <use style="stroke:#000000;stroke-width:0.6;" x="135.276571" xlink:href="#m9f03e3eed2" y="294.88"/>
      </g>
     </g>
    </g>
    <g id="xtick_8">
     <g id="line2d_19">
      <path clip-path="url(#pd72df616e1)" d="M 174.854857 294.88 
L 174.854857 24.84 
" style="fill:none;stroke:#b0b0b0;stroke-linecap:square;stroke-width:0.8;"/>
     </g>
     <g id="line2d_20">
      <g>
       <use style="stroke:#000000;stroke-width:0.6;" x="174.854857" xlink:href="#m9f03e3eed2" y="294.88"/>
      </g>
     </g>
    </g>
    <g id="xtick_9">
     <g id="line2d_21">
      <path clip-path="url(#pd72df616e1)" d="M 214.433143 294.88 
L 214.433143 24.84 
" style="fill:none;stroke:#b0b0b0;stroke-linecap:square;stroke-width:0.8;"/>
     </g>
     <g id="line2d_22">
      <g>
       <use style="stroke:#000000;stroke-width:0.6;" x="214.433143" xlink:href="#m9f03e3eed2" y="294.88"/>
      </g>
     </g>
    </g>
    <g id="xtick_10">
     <g id="line2d_23">
      <path clip-path="url(#pd72df616e1)" d="M 254.011429 294.88 
L 254.011429 24.84 
" style="fill:none;stroke:#b0b0b0;stroke-linecap:square;stroke-width:0.8;"/>
     </g>
     <g id="line2d_24">
      <g>
       <use style="stroke:#000000;stroke-width:0.6;" x="254.011429" xlink:href="#m9f03e3eed2" y="294.88"/>
      </g>
     </g>
    </g>
    <g id="xtick_11">
     <g id="line2d_25">
      <path clip-path="url(#pd72df616e1)" d="M 293.589714 294.88 
L 293.589714 24.84 
" style="fill:none;stroke:#b0b0b0;stroke-linecap:square;stroke-width:0.8;"/>
     </g>
     <g id="line2d_26">
      <g>
       <use style="stroke:#000000;stroke-width:0.6;" x="293.589714" xlink:href="#m9f03e3eed2" y="294.88"/>
      </g>
     </g>
    </g>
    <g id="xtick_12">
     <g id="line2d_27">
      <path clip-path="url(#pd72df616e1)" d="M 333.168 294.88 
L 333.168 24.84 
" style="fill:none;stroke:#b0b0b0;stroke-linecap:square;stroke-width:0.8;"/>
     </g>
     <g id="line2d_28">
      <g>
       <use style="stroke:#000000;stroke-width:0.6;" x="333.168" xlink:href="#m9f03e3eed2" y="294.88"/>
      </g>
     </g>
    </g>
    <g id="text_5">
     <!-- log10(# f-evals / dimension) -->
     <defs>
      <path d="M 9.421875 75.984375 
L 18.40625 75.984375 
L 18.40625 0 
L 9.421875 0 
z
" id="DejaVuSans-6c"/>
      <path d="M 30.609375 48.390625 
Q 23.390625 48.390625 19.1875 42.75 
Q 14.984375 37.109375 14.984375 27.296875 
Q 14.984375 17.484375 19.15625 11.84375 
Q 23.34375 6.203125 30.609375 6.203125 
Q 37.796875 6.203125 41.984375 11.859375 
Q 46.1875 17.53125 46.1875 27.296875 
Q 46.1875 37.015625 41.984375 42.703125 
Q 37.796875 48.390625 30.609375 48.390625 
z
M 30.609375 56 
Q 42.328125 56 49.015625 48.375 
Q 55.71875 40.765625 55.71875 27.296875 
Q 55.71875 13.875 49.015625 6.21875 
Q 42.328125 -1.421875 30.609375 -1.421875 
Q 18.84375 -1.421875 12.171875 6.21875 
Q 5.515625 13.875 5.515625 27.296875 
Q 5.515625 40.765625 12.171875 48.375 
Q 18.84375 56 30.609375 56 
z
" id="DejaVuSans-6f"/>
      <path d="M 45.40625 27.984375 
Q 45.40625 37.75 41.375 43.109375 
Q 37.359375 48.484375 30.078125 48.484375 
Q 22.859375 48.484375 18.828125 43.109375 
Q 14.796875 37.75 14.796875 27.984375 
Q 14.796875 18.265625 18.828125 12.890625 
Q 22.859375 7.515625 30.078125 7.515625 
Q 37.359375 7.515625 41.375 12.890625 
Q 45.40625 18.265625 45.40625 27.984375 
z
M 54.390625 6.78125 
Q 54.390625 -7.171875 48.1875 -13.984375 
Q 42 -20.796875 29.203125 -20.796875 
Q 24.46875 -20.796875 20.265625 -20.09375 
Q 16.0625 -19.390625 12.109375 -17.921875 
L 12.109375 -9.1875 
Q 16.0625 -11.328125 19.921875 -12.34375 
Q 23.78125 -13.375 27.78125 -13.375 
Q 36.625 -13.375 41.015625 -8.765625 
Q 45.40625 -4.15625 45.40625 5.171875 
L 45.40625 9.625 
Q 42.625 4.78125 38.28125 2.390625 
Q 33.9375 0 27.875 0 
Q 17.828125 0 11.671875 7.65625 
Q 5.515625 15.328125 5.515625 27.984375 
Q 5.515625 40.671875 11.671875 48.328125 
Q 17.828125 56 27.875 56 
Q 33.9375 56 38.28125 53.609375 
Q 42.625 51.21875 45.40625 46.390625 
L 45.40625 54.6875 
L 54.390625 54.6875 
z
" id="DejaVuSans-67"/>
      <path d="M 12.40625 8.296875 
L 28.515625 8.296875 
L 28.515625 63.921875 
L 10.984375 60.40625 
L 10.984375 69.390625 
L 28.421875 72.90625 
L 38.28125 72.90625 
L 38.28125 8.296875 
L 54.390625 8.296875 
L 54.390625 0 
L 12.40625 0 
z
" id="DejaVuSans-31"/>
      <path d="M 31 75.875 
Q 24.46875 64.65625 21.28125 53.65625 
Q 18.109375 42.671875 18.109375 31.390625 
Q 18.109375 20.125 21.3125 9.0625 
Q 24.515625 -2 31 -13.1875 
L 23.1875 -13.1875 
Q 15.875 -1.703125 12.234375 9.375 
Q 8.59375 20.453125 8.59375 31.390625 
Q 8.59375 42.28125 12.203125 53.3125 
Q 15.828125 64.359375 23.1875 75.875 
z
" id="DejaVuSans-28"/>
      <path d="M 51.125 44 
L 36.921875 44 
L 32.8125 27.6875 
L 47.125 27.6875 
z
M 43.796875 71.78125 
L 38.71875 51.515625 
L 52.984375 51.515625 
L 58.109375 71.78125 
L 65.921875 71.78125 
L 60.890625 51.515625 
L 76.125 51.515625 
L 76.125 44 
L 58.984375 44 
L 54.984375 27.6875 
L 70.515625 27.6875 
L 70.515625 20.21875 
L 53.078125 20.21875 
L 48 0 
L 40.1875 0 
L 45.21875 20.21875 
L 30.90625 20.21875 
L 25.875 0 
L 18.015625 0 
L 23.09375 20.21875 
L 7.71875 20.21875 
L 7.71875 27.6875 
L 24.90625 27.6875 
L 29 44 
L 13.28125 44 
L 13.28125 51.515625 
L 30.90625 51.515625 
L 35.890625 71.78125 
z
" id="DejaVuSans-23"/>
      <path id="DejaVuSans-20"/>
      <path d="M 37.109375 75.984375 
L 37.109375 68.5 
L 28.515625 68.5 
Q 23.6875 68.5 21.796875 66.546875 
Q 19.921875 64.59375 19.921875 59.515625 
L 19.921875 54.6875 
L 34.71875 54.6875 
L 34.71875 47.703125 
L 19.921875 47.703125 
L 19.921875 0 
L 10.890625 0 
L 10.890625 47.703125 
L 2.296875 47.703125 
L 2.296875 54.6875 
L 10.890625 54.6875 
L 10.890625 58.5 
Q 10.890625 67.625 15.140625 71.796875 
Q 19.390625 75.984375 28.609375 75.984375 
z
" id="DejaVuSans-66"/>
      <path d="M 4.890625 31.390625 
L 31.203125 31.390625 
L 31.203125 23.390625 
L 4.890625 23.390625 
z
" id="DejaVuSans-2d"/>
      <path d="M 56.203125 29.59375 
L 56.203125 25.203125 
L 14.890625 25.203125 
Q 15.484375 15.921875 20.484375 11.0625 
Q 25.484375 6.203125 34.421875 6.203125 
Q 39.59375 6.203125 44.453125 7.46875 
Q 49.3125 8.734375 54.109375 11.28125 
L 54.109375 2.78125 
Q 49.265625 0.734375 44.1875 -0.34375 
Q 39.109375 -1.421875 33.890625 -1.421875 
Q 20.796875 -1.421875 13.15625 6.1875 
Q 5.515625 13.8125 5.515625 26.8125 
Q 5.515625 40.234375 12.765625 48.109375 
Q 20.015625 56 32.328125 56 
Q 43.359375 56 49.78125 48.890625 
Q 56.203125 41.796875 56.203125 29.59375 
z
M 47.21875 32.234375 
Q 47.125 39.59375 43.09375 43.984375 
Q 39.0625 48.390625 32.421875 48.390625 
Q 24.90625 48.390625 20.390625 44.140625 
Q 15.875 39.890625 15.1875 32.171875 
z
" id="DejaVuSans-65"/>
      <path d="M 2.984375 54.6875 
L 12.5 54.6875 
L 29.59375 8.796875 
L 46.6875 54.6875 
L 56.203125 54.6875 
L 35.6875 0 
L 23.484375 0 
z
" id="DejaVuSans-76"/>
      <path d="M 34.28125 27.484375 
Q 23.390625 27.484375 19.1875 25 
Q 14.984375 22.515625 14.984375 16.5 
Q 14.984375 11.71875 18.140625 8.90625 
Q 21.296875 6.109375 26.703125 6.109375 
Q 34.1875 6.109375 38.703125 11.40625 
Q 43.21875 16.703125 43.21875 25.484375 
L 43.21875 27.484375 
z
M 52.203125 31.203125 
L 52.203125 0 
L 43.21875 0 
L 43.21875 8.296875 
Q 40.140625 3.328125 35.546875 0.953125 
Q 30.953125 -1.421875 24.3125 -1.421875 
Q 15.921875 -1.421875 10.953125 3.296875 
Q 6 8.015625 6 15.921875 
Q 6 25.140625 12.171875 29.828125 
Q 18.359375 34.515625 30.609375 34.515625 
L 43.21875 34.515625 
L 43.21875 35.40625 
Q 43.21875 41.609375 39.140625 45 
Q 35.0625 48.390625 27.6875 48.390625 
Q 23 48.390625 18.546875 47.265625 
Q 14.109375 46.140625 10.015625 43.890625 
L 10.015625 52.203125 
Q 14.9375 54.109375 19.578125 55.046875 
Q 24.21875 56 28.609375 56 
Q 40.484375 56 46.34375 49.84375 
Q 52.203125 43.703125 52.203125 31.203125 
z
" id="DejaVuSans-61"/>
      <path d="M 44.28125 53.078125 
L 44.28125 44.578125 
Q 40.484375 46.53125 36.375 47.5 
Q 32.28125 48.484375 27.875 48.484375 
Q 21.1875 48.484375 17.84375 46.4375 
Q 14.5 44.390625 14.5 40.28125 
Q 14.5 37.15625 16.890625 35.375 
Q 19.28125 33.59375 26.515625 31.984375 
L 29.59375 31.296875 
Q 39.15625 29.25 43.1875 25.515625 
Q 47.21875 21.78125 47.21875 15.09375 
Q 47.21875 7.46875 41.1875 3.015625 
Q 35.15625 -1.421875 24.609375 -1.421875 
Q 20.21875 -1.421875 15.453125 -0.5625 
Q 10.6875 0.296875 5.421875 2 
L 5.421875 11.28125 
Q 10.40625 8.6875 15.234375 7.390625 
Q 20.0625 6.109375 24.8125 6.109375 
Q 31.15625 6.109375 34.5625 8.28125 
Q 37.984375 10.453125 37.984375 14.40625 
Q 37.984375 18.0625 35.515625 20.015625 
Q 33.0625 21.96875 24.703125 23.78125 
L 21.578125 24.515625 
Q 13.234375 26.265625 9.515625 29.90625 
Q 5.8125 33.546875 5.8125 39.890625 
Q 5.8125 47.609375 11.28125 51.796875 
Q 16.75 56 26.8125 56 
Q 31.78125 56 36.171875 55.265625 
Q 40.578125 54.546875 44.28125 53.078125 
z
" id="DejaVuSans-73"/>
      <path d="M 25.390625 72.90625 
L 33.6875 72.90625 
L 8.296875 -9.28125 
L 0 -9.28125 
z
" id="DejaVuSans-2f"/>
      <path d="M 45.40625 46.390625 
L 45.40625 75.984375 
L 54.390625 75.984375 
L 54.390625 0 
L 45.40625 0 
L 45.40625 8.203125 
Q 42.578125 3.328125 38.25 0.953125 
Q 33.9375 -1.421875 27.875 -1.421875 
Q 17.96875 -1.421875 11.734375 6.484375 
Q 5.515625 14.40625 5.515625 27.296875 
Q 5.515625 40.1875 11.734375 48.09375 
Q 17.96875 56 27.875 56 
Q 33.9375 56 38.25 53.625 
Q 42.578125 51.265625 45.40625 46.390625 
z
M 14.796875 27.296875 
Q 14.796875 17.390625 18.875 11.75 
Q 22.953125 6.109375 30.078125 6.109375 
Q 37.203125 6.109375 41.296875 11.75 
Q 45.40625 17.390625 45.40625 27.296875 
Q 45.40625 37.203125 41.296875 42.84375 
Q 37.203125 48.484375 30.078125 48.484375 
Q 22.953125 48.484375 18.875 42.84375 
Q 14.796875 37.203125 14.796875 27.296875 
z
" id="DejaVuSans-64"/>
      <path d="M 9.421875 54.6875 
L 18.40625 54.6875 
L 18.40625 0 
L 9.421875 0 
z
M 9.421875 75.984375 
L 18.40625 75.984375 
L 18.40625 64.59375 
L 9.421875 64.59375 
z
" id="DejaVuSans-69"/>
      <path d="M 52 44.1875 
Q 55.375 50.25 60.0625 53.125 
Q 64.75 56 71.09375 56 
Q 79.640625 56 84.28125 50.015625 
Q 88.921875 44.046875 88.921875 33.015625 
L 88.921875 0 
L 79.890625 0 
L 79.890625 32.71875 
Q 79.890625 40.578125 77.09375 44.375 
Q 74.3125 48.1875 68.609375 48.1875 
Q 61.625 48.1875 57.5625 43.546875 
Q 53.515625 38.921875 53.515625 30.90625 
L 53.515625 0 
L 44.484375 0 
L 44.484375 32.71875 
Q 44.484375 40.625 41.703125 44.40625 
Q 38.921875 48.1875 33.109375 48.1875 
Q 26.21875 48.1875 22.15625 43.53125 
Q 18.109375 38.875 18.109375 30.90625 
L 18.109375 0 
L 9.078125 0 
L 9.078125 54.6875 
L 18.109375 54.6875 
L 18.109375 46.1875 
Q 21.1875 51.21875 25.484375 53.609375 
Q 29.78125 56 35.6875 56 
Q 41.65625 56 45.828125 52.96875 
Q 50 49.953125 52 44.1875 
z
" id="DejaVuSans-6d"/>
      <path d="M 54.890625 33.015625 
L 54.890625 0 
L 45.90625 0 
L 45.90625 32.71875 
Q 45.90625 40.484375 42.875 44.328125 
Q 39.84375 48.1875 33.796875 48.1875 
Q 26.515625 48.1875 22.3125 43.546875 
Q 18.109375 38.921875 18.109375 30.90625 
L 18.109375 0 
L 9.078125 0 
L 9.078125 54.6875 
L 18.109375 54.6875 
L 18.109375 46.1875 
Q 21.34375 51.125 25.703125 53.5625 
Q 30.078125 56 35.796875 56 
Q 45.21875 56 50.046875 50.171875 
Q 54.890625 44.34375 54.890625 33.015625 
z
" id="DejaVuSans-6e"/>
      <path d="M 8.015625 75.875 
L 15.828125 75.875 
Q 23.140625 64.359375 26.78125 53.3125 
Q 30.421875 42.28125 30.421875 31.390625 
Q 30.421875 20.453125 26.78125 9.375 
Q 23.140625 -1.703125 15.828125 -13.1875 
L 8.015625 -13.1875 
Q 14.5 -2 17.703125 9.0625 
Q 20.90625 20.125 20.90625 31.390625 
Q 20.90625 42.671875 17.703125 53.65625 
Q 14.5 64.65625 8.015625 75.875 
z
" id="DejaVuSans-29"/>
     </defs>
     <g transform="translate(73.803219 338.153594)scale(0.17 -0.17)">
      <use xlink:href="#DejaVuSans-6c"/>
      <use x="27.783203" xlink:href="#DejaVuSans-6f"/>
      <use x="88.964844" xlink:href="#DejaVuSans-67"/>
      <use x="152.441406" xlink:href="#DejaVuSans-31"/>
      <use x="216.064453" xlink:href="#DejaVuSans-30"/>
      <use x="279.6875" xlink:href="#DejaVuSans-28"/>
      <use x="318.701172" xlink:href="#DejaVuSans-23"/>
      <use x="402.490234" xlink:href="#DejaVuSans-20"/>
      <use x="434.277344" xlink:href="#DejaVuSans-66"/>
      <use x="469.404297" xlink:href="#DejaVuSans-2d"/>
      <use x="505.488281" xlink:href="#DejaVuSans-65"/>
      <use x="567.011719" xlink:href="#DejaVuSans-76"/>
      <use x="626.191406" xlink:href="#DejaVuSans-61"/>
      <use x="687.470703" xlink:href="#DejaVuSans-6c"/>
      <use x="715.253906" xlink:href="#DejaVuSans-73"/>
      <use x="767.353516" xlink:href="#DejaVuSans-20"/>
      <use x="799.140625" xlink:href="#DejaVuSans-2f"/>
      <use x="832.832031" xlink:href="#DejaVuSans-20"/>
      <use x="864.619141" xlink:href="#DejaVuSans-64"/>
      <use x="928.095703" xlink:href="#DejaVuSans-69"/>
      <use x="955.878906" xlink:href="#DejaVuSans-6d"/>
      <use x="1053.291016" xlink:href="#DejaVuSans-65"/>
      <use x="1114.814453" xlink:href="#DejaVuSans-6e"/>
      <use x="1178.193359" xlink:href="#DejaVuSans-73"/>
      <use x="1230.292969" xlink:href="#DejaVuSans-69"/>
      <use x="1258.076172" xlink:href="#DejaVuSans-6f"/>
      <use x="1319.257812" xlink:href="#DejaVuSans-6e"/>
      <use x="1382.636719" xlink:href="#DejaVuSans-29"/>
     </g>
    </g>
   </g>
   <g id="matplotlib.axis_2">
    <g id="ytick_1">
     <g id="line2d_29">
      <path clip-path="url(#pd72df616e1)" d="M 56.12 294.88 
L 333.168 294.88 
" style="fill:none;stroke:#b0b0b0;stroke-linecap:square;stroke-width:0.8;"/>
     </g>
     <g id="line2d_30">
      <defs>
       <path d="M 0 0 
L -3.5 0 
" id="mc5afaa7705" style="stroke:#000000;stroke-width:0.8;"/>
      </defs>
      <g>
       <use style="stroke:#000000;stroke-width:0.8;" x="56.12" xlink:href="#mc5afaa7705" y="294.88"/>
      </g>
     </g>
     <g id="text_6">
      <!-- 0.0 -->
      <defs>
       <path d="M 10.6875 12.40625 
L 21 12.40625 
L 21 0 
L 10.6875 0 
z
" id="DejaVuSans-2e"/>
      </defs>
      <g transform="translate(23.675 300.95875)scale(0.16 -0.16)">
       <use xlink:href="#DejaVuSans-30"/>
       <use x="63.623047" xlink:href="#DejaVuSans-2e"/>
       <use x="95.410156" xlink:href="#DejaVuSans-30"/>
      </g>
     </g>
    </g>
    <g id="ytick_2">
     <g id="line2d_31">
      <path clip-path="url(#pd72df616e1)" d="M 56.12 241.406733 
L 333.168 241.406733 
" style="fill:none;stroke:#b0b0b0;stroke-linecap:square;stroke-width:0.8;"/>
     </g>
     <g id="line2d_32">
      <g>
       <use style="stroke:#000000;stroke-width:0.8;" x="56.12" xlink:href="#mc5afaa7705" y="241.406733"/>
      </g>
     </g>
     <g id="text_7">
      <!-- 0.2 -->
      <g transform="translate(23.675 247.485483)scale(0.16 -0.16)">
       <use xlink:href="#DejaVuSans-30"/>
       <use x="63.623047" xlink:href="#DejaVuSans-2e"/>
       <use x="95.410156" xlink:href="#DejaVuSans-32"/>
      </g>
     </g>
    </g>
    <g id="ytick_3">
     <g id="line2d_33">
      <path clip-path="url(#pd72df616e1)" d="M 56.12 187.933465 
L 333.168 187.933465 
" style="fill:none;stroke:#b0b0b0;stroke-linecap:square;stroke-width:0.8;"/>
     </g>
     <g id="line2d_34">
      <g>
       <use style="stroke:#000000;stroke-width:0.8;" x="56.12" xlink:href="#mc5afaa7705" y="187.933465"/>
      </g>
     </g>
     <g id="text_8">
      <!-- 0.4 -->
      <g transform="translate(23.675 194.012215)scale(0.16 -0.16)">
       <use xlink:href="#DejaVuSans-30"/>
       <use x="63.623047" xlink:href="#DejaVuSans-2e"/>
       <use x="95.410156" xlink:href="#DejaVuSans-34"/>
      </g>
     </g>
    </g>
    <g id="ytick_4">
     <g id="line2d_35">
      <path clip-path="url(#pd72df616e1)" d="M 56.12 134.460198 
L 333.168 134.460198 
" style="fill:none;stroke:#b0b0b0;stroke-linecap:square;stroke-width:0.8;"/>
     </g>
     <g id="line2d_36">
      <g>
       <use style="stroke:#000000;stroke-width:0.8;" x="56.12" xlink:href="#mc5afaa7705" y="134.460198"/>
      </g>
     </g>
     <g id="text_9">
      <!-- 0.6 -->
      <g transform="translate(23.675 140.538948)scale(0.16 -0.16)">
       <use xlink:href="#DejaVuSans-30"/>
       <use x="63.623047" xlink:href="#DejaVuSans-2e"/>
       <use x="95.410156" xlink:href="#DejaVuSans-36"/>
      </g>
     </g>
    </g>
    <g id="ytick_5">
     <g id="line2d_37">
      <path clip-path="url(#pd72df616e1)" d="M 56.12 80.986931 
L 333.168 80.986931 
" style="fill:none;stroke:#b0b0b0;stroke-linecap:square;stroke-width:0.8;"/>
     </g>
     <g id="line2d_38">
      <g>
       <use style="stroke:#000000;stroke-width:0.8;" x="56.12" xlink:href="#mc5afaa7705" y="80.986931"/>
      </g>
     </g>
     <g id="text_10">
      <!-- 0.8 -->
      <defs>
       <path d="M 31.78125 34.625 
Q 24.75 34.625 20.71875 30.859375 
Q 16.703125 27.09375 16.703125 20.515625 
Q 16.703125 13.921875 20.71875 10.15625 
Q 24.75 6.390625 31.78125 6.390625 
Q 38.8125 6.390625 42.859375 10.171875 
Q 46.921875 13.96875 46.921875 20.515625 
Q 46.921875 27.09375 42.890625 30.859375 
Q 38.875 34.625 31.78125 34.625 
z
M 21.921875 38.8125 
Q 15.578125 40.375 12.03125 44.71875 
Q 8.5 49.078125 8.5 55.328125 
Q 8.5 64.0625 14.71875 69.140625 
Q 20.953125 74.21875 31.78125 74.21875 
Q 42.671875 74.21875 48.875 69.140625 
Q 55.078125 64.0625 55.078125 55.328125 
Q 55.078125 49.078125 51.53125 44.71875 
Q 48 40.375 41.703125 38.8125 
Q 48.828125 37.15625 52.796875 32.3125 
Q 56.78125 27.484375 56.78125 20.515625 
Q 56.78125 9.90625 50.3125 4.234375 
Q 43.84375 -1.421875 31.78125 -1.421875 
Q 19.734375 -1.421875 13.25 4.234375 
Q 6.78125 9.90625 6.78125 20.515625 
Q 6.78125 27.484375 10.78125 32.3125 
Q 14.796875 37.15625 21.921875 38.8125 
z
M 18.3125 54.390625 
Q 18.3125 48.734375 21.84375 45.5625 
Q 25.390625 42.390625 31.78125 42.390625 
Q 38.140625 42.390625 41.71875 45.5625 
Q 45.3125 48.734375 45.3125 54.390625 
Q 45.3125 60.0625 41.71875 63.234375 
Q 38.140625 66.40625 31.78125 66.40625 
Q 25.390625 66.40625 21.84375 63.234375 
Q 18.3125 60.0625 18.3125 54.390625 
z
" id="DejaVuSans-38"/>
      </defs>
      <g transform="translate(23.675 87.065681)scale(0.16 -0.16)">
       <use xlink:href="#DejaVuSans-30"/>
       <use x="63.623047" xlink:href="#DejaVuSans-2e"/>
       <use x="95.410156" xlink:href="#DejaVuSans-38"/>
      </g>
     </g>
    </g>
    <g id="ytick_6">
     <g id="line2d_39">
      <path clip-path="url(#pd72df616e1)" d="M 56.12 27.513663 
L 333.168 27.513663 
" style="fill:none;stroke:#b0b0b0;stroke-linecap:square;stroke-width:0.8;"/>
     </g>
     <g id="line2d_40">
      <g>
       <use style="stroke:#000000;stroke-width:0.8;" x="56.12" xlink:href="#mc5afaa7705" y="27.513663"/>
      </g>
     </g>
     <g id="text_11">
      <!-- 1.0 -->
      <g transform="translate(23.675 33.592413)scale(0.16 -0.16)">
       <use xlink:href="#DejaVuSans-31"/>
       <use x="63.623047" xlink:href="#DejaVuSans-2e"/>
       <use x="95.410156" xlink:href="#DejaVuSans-30"/>
      </g>
     </g>
    </g>
    <g id="text_12">
     <!-- Fraction of function,target pairs -->
     <defs>
      <path d="M 9.8125 72.90625 
L 51.703125 72.90625 
L 51.703125 64.59375 
L 19.671875 64.59375 
L 19.671875 43.109375 
L 48.578125 43.109375 
L 48.578125 34.8125 
L 19.671875 34.8125 
L 19.671875 0 
L 9.8125 0 
z
" id="DejaVuSans-46"/>
      <path d="M 41.109375 46.296875 
Q 39.59375 47.171875 37.8125 47.578125 
Q 36.03125 48 33.890625 48 
Q 26.265625 48 22.1875 43.046875 
Q 18.109375 38.09375 18.109375 28.8125 
L 18.109375 0 
L 9.078125 0 
L 9.078125 54.6875 
L 18.109375 54.6875 
L 18.109375 46.1875 
Q 20.953125 51.171875 25.484375 53.578125 
Q 30.03125 56 36.53125 56 
Q 37.453125 56 38.578125 55.875 
Q 39.703125 55.765625 41.0625 55.515625 
z
" id="DejaVuSans-72"/>
      <path d="M 48.78125 52.59375 
L 48.78125 44.1875 
Q 44.96875 46.296875 41.140625 47.34375 
Q 37.3125 48.390625 33.40625 48.390625 
Q 24.65625 48.390625 19.8125 42.84375 
Q 14.984375 37.3125 14.984375 27.296875 
Q 14.984375 17.28125 19.8125 11.734375 
Q 24.65625 6.203125 33.40625 6.203125 
Q 37.3125 6.203125 41.140625 7.25 
Q 44.96875 8.296875 48.78125 10.40625 
L 48.78125 2.09375 
Q 45.015625 0.34375 40.984375 -0.53125 
Q 36.96875 -1.421875 32.421875 -1.421875 
Q 20.0625 -1.421875 12.78125 6.34375 
Q 5.515625 14.109375 5.515625 27.296875 
Q 5.515625 40.671875 12.859375 48.328125 
Q 20.21875 56 33.015625 56 
Q 37.15625 56 41.109375 55.140625 
Q 45.0625 54.296875 48.78125 52.59375 
z
" id="DejaVuSans-63"/>
      <path d="M 18.3125 70.21875 
L 18.3125 54.6875 
L 36.8125 54.6875 
L 36.8125 47.703125 
L 18.3125 47.703125 
L 18.3125 18.015625 
Q 18.3125 11.328125 20.140625 9.421875 
Q 21.96875 7.515625 27.59375 7.515625 
L 36.8125 7.515625 
L 36.8125 0 
L 27.59375 0 
Q 17.1875 0 13.234375 3.875 
Q 9.28125 7.765625 9.28125 18.015625 
L 9.28125 47.703125 
L 2.6875 47.703125 
L 2.6875 54.6875 
L 9.28125 54.6875 
L 9.28125 70.21875 
z
" id="DejaVuSans-74"/>
      <path d="M 8.5 21.578125 
L 8.5 54.6875 
L 17.484375 54.6875 
L 17.484375 21.921875 
Q 17.484375 14.15625 20.5 10.265625 
Q 23.53125 6.390625 29.59375 6.390625 
Q 36.859375 6.390625 41.078125 11.03125 
Q 45.3125 15.671875 45.3125 23.6875 
L 45.3125 54.6875 
L 54.296875 54.6875 
L 54.296875 0 
L 45.3125 0 
L 45.3125 8.40625 
Q 42.046875 3.421875 37.71875 1 
Q 33.40625 -1.421875 27.6875 -1.421875 
Q 18.265625 -1.421875 13.375 4.4375 
Q 8.5 10.296875 8.5 21.578125 
z
M 31.109375 56 
z
" id="DejaVuSans-75"/>
      <path d="M 11.71875 12.40625 
L 22.015625 12.40625 
L 22.015625 4 
L 14.015625 -11.625 
L 7.71875 -11.625 
L 11.71875 4 
z
" id="DejaVuSans-2c"/>
      <path d="M 18.109375 8.203125 
L 18.109375 -20.796875 
L 9.078125 -20.796875 
L 9.078125 54.6875 
L 18.109375 54.6875 
L 18.109375 46.390625 
Q 20.953125 51.265625 25.265625 53.625 
Q 29.59375 56 35.59375 56 
Q 45.5625 56 51.78125 48.09375 
Q 58.015625 40.1875 58.015625 27.296875 
Q 58.015625 14.40625 51.78125 6.484375 
Q 45.5625 -1.421875 35.59375 -1.421875 
Q 29.59375 -1.421875 25.265625 0.953125 
Q 20.953125 3.328125 18.109375 8.203125 
z
M 48.6875 27.296875 
Q 48.6875 37.203125 44.609375 42.84375 
Q 40.53125 48.484375 33.40625 48.484375 
Q 26.265625 48.484375 22.1875 42.84375 
Q 18.109375 37.203125 18.109375 27.296875 
Q 18.109375 17.390625 22.1875 11.75 
Q 26.265625 6.109375 33.40625 6.109375 
Q 40.53125 6.109375 44.609375 11.75 
Q 48.6875 17.390625 48.6875 27.296875 
z
" id="DejaVuSans-70"/>
     </defs>
     <g transform="translate(16.139531 294.999375)rotate(-90)scale(0.17 -0.17)">
      <use xlink:href="#DejaVuSans-46"/>
      <use x="57.410156" xlink:href="#DejaVuSans-72"/>
      <use x="98.523438" xlink:href="#DejaVuSans-61"/>
      <use x="159.802734" xlink:href="#DejaVuSans-63"/>
      <use x="214.783203" xlink:href="#DejaVuSans-74"/>
      <use x="253.992188" xlink:href="#DejaVuSans-69"/>
      <use x="281.775391" xlink:href="#DejaVuSans-6f"/>
      <use x="342.957031" xlink:href="#DejaVuSans-6e"/>
      <use x="406.335938" xlink:href="#DejaVuSans-20"/>
      <use x="438.123047" xlink:href="#DejaVuSans-6f"/>
      <use x="499.304688" xlink:href="#DejaVuSans-66"/>
      <use x="534.509766" xlink:href="#DejaVuSans-20"/>
      <use x="566.296875" xlink:href="#DejaVuSans-66"/>
      <use x="601.501953" xlink:href="#DejaVuSans-75"/>
      <use x="664.880859" xlink:href="#DejaVuSans-6e"/>
      <use x="728.259766" xlink:href="#DejaVuSans-63"/>
      <use x="783.240234" xlink:href="#DejaVuSans-74"/>
      <use x="822.449219" xlink:href="#DejaVuSans-69"/>
      <use x="850.232422" xlink:href="#DejaVuSans-6f"/>
      <use x="911.414062" xlink:href="#DejaVuSans-6e"/>
      <use x="974.792969" xlink:href="#DejaVuSans-2c"/>
      <use x="1006.580078" xlink:href="#DejaVuSans-74"/>
      <use x="1045.789062" xlink:href="#DejaVuSans-61"/>
      <use x="1107.068359" xlink:href="#DejaVuSans-72"/>
      <use x="1148.166016" xlink:href="#DejaVuSans-67"/>
      <use x="1211.642578" xlink:href="#DejaVuSans-65"/>
      <use x="1273.166016" xlink:href="#DejaVuSans-74"/>
      <use x="1312.375" xlink:href="#DejaVuSans-20"/>
      <use x="1344.162109" xlink:href="#DejaVuSans-70"/>
      <use x="1407.638672" xlink:href="#DejaVuSans-61"/>
      <use x="1468.917969" xlink:href="#DejaVuSans-69"/>
      <use x="1496.701172" xlink:href="#DejaVuSans-72"/>
      <use x="1537.814453" xlink:href="#DejaVuSans-73"/>
     </g>
    </g>
   </g>
   <g id="line2d_41">
    <defs>
     <path d="M 0 1.5 
C 0.397805 1.5 0.77937 1.341951 1.06066 1.06066 
C 1.341951 0.77937 1.5 0.397805 1.5 0 
C 1.5 -0.397805 1.341951 -0.77937 1.06066 -1.06066 
C 0.77937 -1.341951 0.397805 -1.5 0 -1.5 
C -0.397805 -1.5 -0.77937 -1.341951 -1.06066 -1.06066 
C -1.341951 -0.77937 -1.5 -0.397805 -1.5 0 
C -1.5 0.397805 -1.341951 0.77937 -1.06066 1.06066 
C -0.77937 1.341951 -0.397805 1.5 0 1.5 
z
" id="m91347bcf0a" style="stroke:#f5deb3;"/>
    </defs>
    <g>
     <use style="fill:#f5deb3;stroke:#f5deb3;" x="193.01891" xlink:href="#m91347bcf0a" y="27.513663"/>
     <use style="fill:#f5deb3;stroke:#f5deb3;" x="193.01891" xlink:href="#m91347bcf0a" y="27.513663"/>
    </g>
   </g>
   <g id="line2d_42">
    <defs>
     <path d="M 0 1.5 
C 0.397805 1.5 0.77937 1.341951 1.06066 1.06066 
C 1.341951 0.77937 1.5 0.397805 1.5 0 
C 1.5 -0.397805 1.341951 -0.77937 1.06066 -1.06066 
C 0.77937 -1.341951 0.397805 -1.5 0 -1.5 
C -0.397805 -1.5 -0.77937 -1.341951 -1.06066 -1.06066 
C -1.341951 -0.77937 -1.5 -0.397805 -1.5 0 
C -1.5 0.397805 -1.341951 0.77937 -1.06066 1.06066 
C -0.77937 1.341951 -0.397805 1.5 0 1.5 
z
" id="m0b0b013727" style="stroke:#000080;"/>
    </defs>
    <g>
     <use style="fill:#000080;stroke:#000080;" x="206.524095" xlink:href="#m0b0b013727" y="27.513663"/>
     <use style="fill:#000080;stroke:#000080;" x="206.524095" xlink:href="#m0b0b013727" y="27.513663"/>
    </g>
   </g>
   <g id="line2d_43">
    <path d="M 123.154809 294.88 
L 123.154809 294.355752 
L 131.823497 294.355752 
L 131.823497 293.831505 
L 132.402015 293.831505 
L 132.402015 293.307257 
L 133.215478 293.307257 
L 133.215478 292.783009 
L 134.521099 292.783009 
L 134.521099 292.258761 
L 135.03423 292.258761 
L 135.03423 291.734514 
L 135.667432 291.734514 
L 135.667432 291.210266 
L 136.535647 291.210266 
L 136.567566 290.161771 
L 136.836515 290.161771 
L 136.836515 289.637523 
L 137.39253 289.637523 
L 137.39253 289.113275 
L 141.55622 289.113275 
L 141.55622 288.589027 
L 144.387231 288.589027 
L 144.387231 288.06478 
L 144.678145 288.06478 
L 144.678145 287.540532 
L 145.7202 287.540532 
L 145.7202 287.016284 
L 146.245718 287.016284 
L 146.245718 286.492036 
L 147.361855 286.492036 
L 147.361855 285.967789 
L 148.821259 285.967789 
L 148.821259 285.443541 
L 153.38677 285.443541 
L 153.38677 284.919293 
L 153.695627 284.919293 
L 153.695627 284.395046 
L 157.313159 284.395046 
L 157.313159 283.870798 
L 158.439172 283.870798 
L 158.439172 283.34655 
L 161.982784 283.34655 
L 161.982784 282.822302 
L 164.687893 282.822302 
L 164.687893 282.298055 
L 165.589263 282.298055 
L 165.618706 281.249559 
L 168.746189 281.249559 
L 168.746189 280.725312 
L 170.001425 280.725312 
L 170.001425 280.201064 
L 170.27283 280.201064 
L 170.27283 279.676816 
L 171.714122 279.676816 
L 171.714122 279.152568 
L 173.875213 279.152568 
L 173.875213 278.628321 
L 174.162133 278.628321 
L 174.162133 278.104073 
L 174.640386 278.104073 
L 174.640386 277.579825 
L 175.178377 277.579825 
L 175.178377 277.055578 
L 175.467747 277.055578 
L 175.467747 276.53133 
L 177.328768 276.53133 
L 177.328768 276.007082 
L 177.45039 276.007082 
L 177.45039 275.482834 
L 177.922699 275.482834 
L 177.922699 274.958587 
L 178.173924 274.958587 
L 178.195166 273.910091 
L 178.539847 273.910091 
L 178.539847 273.385844 
L 181.098683 273.385844 
L 181.098683 272.861596 
L 182.396729 272.861596 
L 182.396729 272.337348 
L 183.842664 272.337348 
L 183.939192 271.288853 
L 184.363526 271.288853 
L 184.363526 270.764605 
L 184.715764 270.764605 
L 184.715764 270.240357 
L 184.844092 270.240357 
L 184.867147 269.191862 
L 185.364827 269.191862 
L 185.364827 268.667614 
L 185.497674 268.667614 
L 185.497674 268.143366 
L 187.498537 268.143366 
L 187.498537 267.619119 
L 188.005005 267.619119 
L 188.005005 267.094871 
L 189.366119 267.094871 
L 189.366119 266.570623 
L 189.695455 266.570623 
L 189.695455 266.046375 
L 190.121443 266.046375 
L 190.182151 264.99788 
L 190.480435 264.99788 
L 190.480435 264.473632 
L 190.70473 264.473632 
L 190.70473 263.949385 
L 191.016995 263.949385 
L 191.016995 263.425137 
L 191.171357 263.425137 
L 191.223832 262.376641 
L 192.333907 262.376641 
L 192.333907 261.852394 
L 193.457763 261.852394 
L 193.546638 260.279651 
L 193.6604 260.279651 
L 193.6604 259.755403 
L 193.799696 259.755403 
L 193.799696 259.231155 
L 193.933907 259.231155 
L 193.953156 258.18266 
L 194.240454 258.18266 
L 194.240454 257.658412 
L 194.598948 257.658412 
L 194.598948 257.134164 
L 195.148666 257.134164 
L 195.224505 256.085669 
L 195.513195 256.085669 
L 195.513195 255.561421 
L 195.834688 255.561421 
L 195.834688 255.037173 
L 196.069922 255.037173 
L 196.069922 254.512926 
L 196.320724 254.512926 
L 196.320724 253.988678 
L 196.524125 253.988678 
L 196.524125 253.46443 
L 196.950958 253.46443 
L 196.950958 252.940182 
L 197.091069 252.940182 
L 197.163516 250.843192 
L 197.282342 250.843192 
L 197.282342 250.318944 
L 197.506059 250.318944 
L 197.61249 248.746201 
L 197.629403 248.746201 
L 197.69507 247.173458 
L 197.912613 247.173458 
L 197.956152 245.600714 
L 198.173535 245.600714 
L 198.265801 244.552219 
L 198.331717 244.552219 
L 198.34969 243.503724 
L 198.51625 243.503724 
L 198.548763 241.406733 
L 198.649809 241.406733 
L 198.649809 240.358237 
L 198.805821 240.358237 
L 198.859922 237.736999 
L 198.922755 237.736999 
L 199.01489 236.688503 
L 199.143808 236.688503 
L 199.188097 235.11576 
L 199.334769 235.11576 
L 199.437071 233.018769 
L 199.517903 233.018769 
L 199.561239 230.921778 
L 199.722987 230.921778 
L 199.831855 227.776292 
L 199.857159 227.776292 
L 199.934845 225.155053 
L 199.989097 225.155053 
L 200.052704 223.058063 
L 200.103817 223.058063 
L 200.172125 221.485319 
L 200.258209 221.485319 
L 200.364919 218.864081 
L 200.371152 218.864081 
L 200.473681 214.670099 
L 200.499604 214.670099 
L 200.610594 210.476117 
L 200.611362 210.476117 
L 200.697955 208.903374 
L 200.730029 208.903374 
L 200.824755 206.282136 
L 200.849018 206.282136 
L 200.898576 204.185145 
L 200.966061 204.185145 
L 201.064364 198.942667 
L 201.096135 198.942667 
L 201.178468 194.748686 
L 201.211884 194.748686 
L 201.317645 189.506209 
L 201.332753 189.506209 
L 201.442167 185.312227 
L 201.450583 185.312227 
L 201.51266 182.690988 
L 201.595928 182.690988 
L 201.70008 176.924263 
L 201.709451 176.924263 
L 201.810771 169.584795 
L 201.841551 169.584795 
L 201.939608 163.293823 
L 201.958442 163.293823 
L 202.051951 161.721079 
L 202.075955 161.721079 
L 202.164618 156.478602 
L 202.189165 156.478602 
L 202.261901 153.333116 
L 202.324945 153.333116 
L 202.428586 146.517896 
L 202.462765 146.517896 
L 202.570723 138.65418 
L 202.603937 138.65418 
L 202.712374 132.363207 
L 202.72121 132.363207 
L 202.814726 128.169225 
L 202.837013 128.169225 
L 202.927889 120.829757 
L 202.984862 120.829757 
L 203.084278 116.111528 
L 203.098244 116.111528 
L 203.208901 110.344803 
L 203.209562 110.344803 
L 203.30572 105.102326 
L 203.325412 105.102326 
L 203.428102 98.287105 
L 203.449283 98.287105 
L 203.553826 91.996133 
L 203.597145 91.996133 
L 203.676067 85.180912 
L 203.726452 85.180912 
L 203.818176 80.986931 
L 203.842702 80.986931 
L 203.951846 76.792949 
L 203.955957 76.792949 
L 204.062502 71.550472 
L 204.079463 71.550472 
L 204.181503 67.35649 
L 204.193357 67.35649 
L 204.301544 62.638261 
L 204.311149 62.638261 
L 204.418599 56.871536 
L 204.428754 56.871536 
L 204.50365 53.201802 
L 204.544949 53.201802 
L 204.645181 48.483572 
L 204.666736 48.483572 
L 204.762643 44.28959 
L 204.788871 44.28959 
L 204.897576 40.095609 
L 204.914331 40.095609 
L 204.983572 39.047113 
L 205.043929 39.047113 
L 205.074769 37.998618 
L 205.156052 37.998618 
L 205.170495 36.950122 
L 205.298768 36.950122 
L 205.396457 35.377379 
L 205.435667 35.377379 
L 205.435667 34.853131 
L 205.560256 34.853131 
L 205.648739 33.280388 
L 205.903866 33.280388 
L 205.931793 31.707645 
L 206.074107 31.707645 
L 206.074107 31.183397 
L 206.203049 31.183397 
L 206.242125 29.086407 
L 206.417836 29.086407 
L 206.524095 27.513663 
L 333.168 27.513663 
L 333.168 27.513663 
" style="fill:none;stroke:#000080;stroke-linecap:square;stroke-width:1.5;"/>
   </g>
   <g id="line2d_44">
    <defs>
     <path d="M 0 6 
C 1.591219 6 3.117479 5.367802 4.242641 4.242641 
C 5.367802 3.117479 6 1.591219 6 0 
C 6 -1.591219 5.367802 -3.117479 4.242641 -4.242641 
C 3.117479 -5.367802 1.591219 -6 0 -6 
C -1.591219 -6 -3.117479 -5.367802 -4.242641 -4.242641 
C -5.367802 -3.117479 -6 -1.591219 -6 0 
C -6 1.591219 -5.367802 3.117479 -4.242641 4.242641 
C -3.117479 5.367802 -1.591219 6 0 6 
z
" id="m6f5950cac7" style="stroke:#000080;stroke-width:1.5;"/>
    </defs>
    <g>
     <use style="fill-opacity:0;stroke:#000080;stroke-width:1.5;" x="200.824755" xlink:href="#m6f5950cac7" y="206.806383"/>
     <use style="fill-opacity:0;stroke:#000080;stroke-width:1.5;" x="206.524095" xlink:href="#m6f5950cac7" y="28.037911"/>
     <use style="fill-opacity:0;stroke:#000080;stroke-width:1.5;" x="206.524095" xlink:href="#m6f5950cac7" y="27.513663"/>
     <use style="fill-opacity:0;stroke:#000080;stroke-width:1.5;" x="206.524095" xlink:href="#m6f5950cac7" y="27.513663"/>
     <use style="fill-opacity:0;stroke:#000080;stroke-width:1.5;" x="333.168" xlink:href="#m6f5950cac7" y="27.513663"/>
    </g>
   </g>
   <g id="line2d_45">
    <path style="fill:none;stroke:#000080;stroke-linecap:square;stroke-width:1.5;"/>
    <g/>
   </g>
   <g id="line2d_46">
    <defs>
     <path d="M 0 1.5 
C 0.397805 1.5 0.77937 1.341951 1.06066 1.06066 
C 1.341951 0.77937 1.5 0.397805 1.5 0 
C 1.5 -0.397805 1.341951 -0.77937 1.06066 -1.06066 
C 0.77937 -1.341951 0.397805 -1.5 0 -1.5 
C -0.397805 -1.5 -0.77937 -1.341951 -1.06066 -1.06066 
C -1.341951 -0.77937 -1.5 -0.397805 -1.5 0 
C -1.5 0.397805 -1.341951 0.77937 -1.06066 1.06066 
C -0.77937 1.341951 -0.397805 1.5 0 1.5 
z
" id="m1420a1c902" style="stroke:#ff00ff;"/>
    </defs>
    <g>
     <use style="fill:#ff00ff;stroke:#ff00ff;" x="305.541249" xlink:href="#m1420a1c902" y="27.513663"/>
     <use style="fill:#ff00ff;stroke:#ff00ff;" x="305.541249" xlink:href="#m1420a1c902" y="27.513663"/>
    </g>
   </g>
   <g id="line2d_47">
    <path d="M 117.475381 294.88 
L 117.475381 294.355752 
L 118.046801 294.355752 
L 118.046801 293.831505 
L 118.914406 293.831505 
L 118.958878 292.783009 
L 119.782703 292.783009 
L 119.782703 292.258761 
L 120.64954 292.258761 
L 120.64954 291.734514 
L 123.430938 291.734514 
L 123.430938 291.210266 
L 123.601292 291.210266 
L 123.601292 290.686018 
L 123.769975 290.686018 
L 123.769975 290.161771 
L 124.396284 290.161771 
L 124.396284 289.637523 
L 128.264156 289.637523 
L 128.264156 289.113275 
L 130.031162 289.113275 
L 130.031162 288.589027 
L 131.333273 288.589027 
L 131.333273 288.06478 
L 131.739239 288.06478 
L 131.739239 287.540532 
L 131.949115 287.540532 
L 131.949115 287.016284 
L 135.155828 287.016284 
L 135.155828 286.492036 
L 135.967241 286.492036 
L 135.967241 285.967789 
L 137.84252 285.967789 
L 137.84252 285.443541 
L 139.773027 285.443541 
L 139.773027 284.919293 
L 141.023196 284.919293 
L 141.023196 284.395046 
L 142.875982 284.395046 
L 142.875982 283.870798 
L 144.875945 283.870798 
L 144.875945 283.34655 
L 147.823604 283.34655 
L 147.823604 282.822302 
L 148.004886 282.822302 
L 148.004886 282.298055 
L 149.261127 282.298055 
L 149.261127 281.773807 
L 149.823265 281.773807 
L 149.823265 281.249559 
L 150.403282 281.249559 
L 150.403282 280.725312 
L 151.019478 280.725312 
L 151.019478 280.201064 
L 153.777841 280.201064 
L 153.777841 279.676816 
L 154.629305 279.676816 
L 154.629305 279.152568 
L 155.504275 279.152568 
L 155.504275 278.628321 
L 157.01974 278.628321 
L 157.01974 278.104073 
L 158.735879 278.104073 
L 158.735879 277.579825 
L 159.596453 277.579825 
L 159.617321 276.53133 
L 161.014628 276.53133 
L 161.014628 276.007082 
L 161.141058 276.007082 
L 161.141058 275.482834 
L 161.814768 275.482834 
L 161.814768 274.958587 
L 162.044464 274.958587 
L 162.044464 274.434339 
L 163.223595 274.434339 
L 163.223595 273.910091 
L 164.323833 273.910091 
L 164.409262 272.861596 
L 165.321984 272.861596 
L 165.321984 272.337348 
L 165.621647 272.337348 
L 165.645161 271.288853 
L 165.94795 271.288853 
L 165.94795 270.764605 
L 168.063306 270.764605 
L 168.063306 270.240357 
L 168.588516 270.240357 
L 168.588516 269.716109 
L 168.909717 269.716109 
L 168.909717 269.191862 
L 169.22264 269.191862 
L 169.308298 268.143366 
L 169.96948 268.143366 
L 170.024207 267.094871 
L 171.147759 267.094871 
L 171.147759 266.570623 
L 171.27524 266.570623 
L 171.353385 265.522128 
L 171.550331 265.522128 
L 171.550331 264.99788 
L 171.90292 264.99788 
L 171.978269 263.425137 
L 172.692699 263.425137 
L 172.692699 262.900889 
L 172.822806 262.900889 
L 172.822806 262.376641 
L 173.581571 262.376641 
L 173.581571 261.852394 
L 173.884309 261.852394 
L 173.884309 261.328146 
L 174.279839 261.328146 
L 174.279839 260.803898 
L 175.235634 260.803898 
L 175.301076 259.755403 
L 175.361264 259.755403 
L 175.361264 259.231155 
L 175.883964 259.231155 
L 175.883964 258.706907 
L 176.030663 258.706907 
L 176.030663 258.18266 
L 176.543039 258.18266 
L 176.644017 257.134164 
L 176.877858 257.134164 
L 176.877858 256.609917 
L 177.101021 256.609917 
L 177.101021 256.085669 
L 177.212275 256.085669 
L 177.279579 254.512926 
L 177.364454 254.512926 
L 177.364454 253.988678 
L 177.577026 253.988678 
L 177.577026 253.46443 
L 177.772503 253.46443 
L 177.880949 251.367439 
L 177.912631 251.367439 
L 178.003033 250.318944 
L 178.094386 250.318944 
L 178.094386 249.794696 
L 178.241807 249.794696 
L 178.241807 249.270448 
L 178.429909 249.270448 
L 178.524581 247.697705 
L 178.805511 247.697705 
L 178.883192 246.124962 
L 179.071166 246.124962 
L 179.076545 245.076467 
L 179.380399 245.076467 
L 179.388323 244.027971 
L 179.590467 244.027971 
L 179.590467 243.503724 
L 179.716582 243.503724 
L 179.716582 242.979476 
L 179.863627 242.979476 
L 179.864911 241.93098 
L 180.033604 241.93098 
L 180.136306 239.83399 
L 180.150206 239.83399 
L 180.150206 239.309742 
L 180.311131 239.309742 
L 180.410949 236.688503 
L 180.512664 236.688503 
L 180.546025 234.591512 
L 180.822753 234.591512 
L 180.822753 234.067265 
L 181.023213 234.067265 
L 181.108243 232.494521 
L 181.139276 232.494521 
L 181.224922 230.921778 
L 181.308963 230.921778 
L 181.419599 227.776292 
L 181.431327 227.776292 
L 181.527197 224.630806 
L 181.557483 224.630806 
L 181.563301 223.058063 
L 181.679253 223.058063 
L 181.772604 219.388328 
L 181.92821 219.388328 
L 181.964619 217.291338 
L 182.058698 217.291338 
L 182.148892 214.145851 
L 182.245325 214.145851 
L 182.32342 211.524613 
L 182.368997 211.524613 
L 182.478553 208.379126 
L 182.540217 208.379126 
L 182.590704 207.330631 
L 182.663975 207.330631 
L 182.773841 203.136649 
L 182.807422 203.136649 
L 182.88301 199.466915 
L 182.940021 199.466915 
L 183.035332 197.894172 
L 183.053477 197.894172 
L 183.153467 194.748686 
L 183.16513 194.748686 
L 183.267636 193.70019 
L 183.277116 193.70019 
L 183.335984 191.603199 
L 183.431218 191.603199 
L 183.514507 188.457713 
L 183.553928 188.457713 
L 183.662387 183.739484 
L 183.682968 183.739484 
L 183.793685 180.06975 
L 183.800836 180.06975 
L 183.88439 177.972759 
L 183.91993 177.972759 
L 184.010982 175.35152 
L 184.10858 175.35152 
L 184.10858 174.827272 
L 184.249467 174.827272 
L 184.354627 172.730281 
L 184.388221 172.730281 
L 184.483706 171.681786 
L 184.51509 171.681786 
L 184.605976 168.012052 
L 184.63811 168.012052 
L 184.734155 166.439309 
L 184.905504 166.439309 
L 184.905504 165.915061 
L 185.042884 165.915061 
L 185.126301 164.866566 
L 185.163141 164.866566 
L 185.254428 162.245327 
L 185.327483 162.245327 
L 185.327483 161.721079 
L 185.621234 161.721079 
L 185.624909 160.148336 
L 185.77399 160.148336 
L 185.878398 159.099841 
L 185.926303 159.099841 
L 185.926303 158.575593 
L 186.104993 158.575593 
L 186.104993 158.051345 
L 186.238467 158.051345 
L 186.337455 154.905859 
L 186.490993 154.905859 
L 186.581593 153.333116 
L 186.63711 153.333116 
L 186.714017 152.28462 
L 186.800878 152.28462 
L 186.854837 150.18763 
L 187.025023 150.18763 
L 187.025023 149.663382 
L 187.202761 149.663382 
L 187.29303 148.090639 
L 187.498537 148.090639 
L 187.498537 147.566391 
L 195.351209 147.566391 
L 195.351209 147.042143 
L 196.335509 147.042143 
L 196.335509 146.517896 
L 196.455777 146.517896 
L 196.455777 145.993648 
L 196.665812 145.993648 
L 196.665812 145.4694 
L 196.780438 145.4694 
L 196.780438 144.945152 
L 196.906223 144.945152 
L 196.968534 143.372409 
L 197.027309 143.372409 
L 197.031567 141.799666 
L 197.171025 141.799666 
L 197.268817 140.751171 
L 197.347488 140.751171 
L 197.432272 139.178427 
L 197.574031 139.178427 
L 197.574031 138.65418 
L 197.699621 138.65418 
L 197.76094 137.605684 
L 197.813003 137.605684 
L 197.813003 137.081437 
L 197.953014 137.081437 
L 198.059395 134.984446 
L 198.195653 134.984446 
L 198.287801 131.314712 
L 198.424449 131.314712 
L 198.467583 129.217721 
L 198.563481 129.217721 
L 198.563481 128.693473 
L 198.692381 128.693473 
L 198.754117 127.644978 
L 198.876502 127.644978 
L 198.962121 125.547987 
L 199.021212 125.547987 
L 199.063295 124.499491 
L 199.143808 124.499491 
L 199.188097 122.4025 
L 199.281315 122.4025 
L 199.367424 120.829757 
L 199.423082 120.829757 
L 199.50316 119.257014 
L 199.560014 119.257014 
L 199.607725 116.635776 
L 199.704775 116.635776 
L 199.811746 113.490289 
L 199.876413 113.490289 
L 199.937642 111.393298 
L 199.993477 111.393298 
L 200.038413 108.77206 
L 200.197326 108.77206 
L 200.242518 106.675069 
L 200.36375 106.675069 
L 200.422105 104.05383 
L 200.50463 104.05383 
L 200.541309 100.908344 
L 200.863409 100.908344 
L 200.924244 99.859849 
L 205.452776 99.859849 
L 205.452776 99.335601 
L 205.699096 99.335601 
L 205.699096 98.811353 
L 205.874196 98.811353 
L 205.874196 98.287105 
L 206.056767 98.287105 
L 206.144964 96.714362 
L 206.239357 96.714362 
L 206.299056 95.141619 
L 206.351949 95.141619 
L 206.381629 94.093124 
L 206.498751 94.093124 
L 206.607764 92.520381 
L 206.6121 92.520381 
L 206.6121 91.996133 
L 206.819725 91.996133 
L 206.87451 90.947637 
L 206.958354 90.947637 
L 207.039677 89.899142 
L 207.100352 89.899142 
L 207.148475 88.326399 
L 208.28937 88.326399 
L 208.360486 87.277903 
L 208.44544 87.277903 
L 208.52125 85.180912 
L 208.585378 85.180912 
L 208.681964 83.083922 
L 208.750282 83.083922 
L 208.824048 80.986931 
L 208.871149 80.986931 
L 208.93943 79.414188 
L 209.01828 79.414188 
L 209.094424 77.841444 
L 209.132604 77.841444 
L 209.241059 74.695958 
L 209.264061 74.695958 
L 209.367769 71.550472 
L 209.391985 71.550472 
L 209.499966 67.35649 
L 209.510498 67.35649 
L 209.606818 65.783747 
L 209.628199 65.783747 
L 209.734711 60.54127 
L 209.74239 60.54127 
L 209.852238 54.250297 
L 209.862556 54.250297 
L 209.948228 51.104811 
L 209.984783 51.104811 
L 210.092212 49.00782 
L 210.099734 49.00782 
L 210.196995 46.386581 
L 210.232805 46.386581 
L 210.301143 44.28959 
L 210.346551 44.28959 
L 210.346551 43.765343 
L 293.611842 43.765343 
L 293.717421 29.610654 
L 293.7237 29.610654 
L 293.723978 28.562159 
L 305.518169 28.562159 
L 305.541249 27.513663 
L 333.168 27.513663 
L 333.168 27.513663 
" style="fill:none;stroke:#ff00ff;stroke-linecap:square;stroke-width:1.5;"/>
   </g>
   <g id="line2d_48">
    <defs>
     <path d="M -0 8.485281 
L 5.091169 0 
L 0 -8.485281 
L -5.091169 -0 
z
" id="mab9bfbbb03" style="stroke:#ff00ff;stroke-linejoin:miter;stroke-width:1.5;"/>
    </defs>
    <g>
     <use style="fill-opacity:0;stroke:#ff00ff;stroke-linejoin:miter;stroke-width:1.5;" x="184.63811" xlink:href="#mab9bfbbb03" y="167.487804"/>
     <use style="fill-opacity:0;stroke:#ff00ff;stroke-linejoin:miter;stroke-width:1.5;" x="210.346551" xlink:href="#mab9bfbbb03" y="44.28959"/>
     <use style="fill-opacity:0;stroke:#ff00ff;stroke-linejoin:miter;stroke-width:1.5;" x="305.541249" xlink:href="#mab9bfbbb03" y="28.037911"/>
     <use style="fill-opacity:0;stroke:#ff00ff;stroke-linejoin:miter;stroke-width:1.5;" x="305.541249" xlink:href="#mab9bfbbb03" y="27.513663"/>
     <use style="fill-opacity:0;stroke:#ff00ff;stroke-linejoin:miter;stroke-width:1.5;" x="333.168" xlink:href="#mab9bfbbb03" y="27.513663"/>
    </g>
   </g>
   <g id="line2d_49">
    <path style="fill:none;stroke:#ff00ff;stroke-linecap:square;stroke-width:1.5;"/>
    <g/>
   </g>
   <g id="line2d_50">
    <path clip-path="url(#pd72df616e1)" d="M 293.589883 43.765343 
" style="fill:none;stroke:#ff00ff;stroke-linecap:square;stroke-width:1.5;"/>
    <defs>
     <path d="M -12 12 
L 12 -12 
M -12 -12 
L 12 12 
" id="m67a9dd9bbd" style="stroke:#ff00ff;"/>
    </defs>
    <g clip-path="url(#pd72df616e1)">
     <use style="fill:#ff00ff;stroke:#ff00ff;" x="293.589883" xlink:href="#m67a9dd9bbd" y="43.765343"/>
    </g>
   </g>
   <g id="line2d_51">
    <defs>
     <path d="M 0 1.5 
C 0.397805 1.5 0.77937 1.341951 1.06066 1.06066 
C 1.341951 0.77937 1.5 0.397805 1.5 0 
C 1.5 -0.397805 1.341951 -0.77937 1.06066 -1.06066 
C 0.77937 -1.341951 0.397805 -1.5 0 -1.5 
C -0.397805 -1.5 -0.77937 -1.341951 -1.06066 -1.06066 
C -1.341951 -0.77937 -1.5 -0.397805 -1.5 0 
C -1.5 0.397805 -1.341951 0.77937 -1.06066 1.06066 
C -0.77937 1.341951 -0.397805 1.5 0 1.5 
z
" id="mc44d4388a1" style="stroke:#ff7500;"/>
    </defs>
    <g>
     <use style="fill:#ff7500;stroke:#ff7500;" x="209.919421" xlink:href="#mc44d4388a1" y="27.513663"/>
     <use style="fill:#ff7500;stroke:#ff7500;" x="209.919421" xlink:href="#mc44d4388a1" y="27.513663"/>
    </g>
   </g>
   <g id="line2d_52">
    <path d="M 116.580973 294.88 
L 116.580973 294.355752 
L 117.85843 294.355752 
L 117.85843 293.831505 
L 119.95122 293.831505 
L 119.95122 293.307257 
L 121.16504 293.307257 
L 121.16504 292.783009 
L 123.499282 292.783009 
L 123.499282 292.258761 
L 126.148921 292.258761 
L 126.148921 291.734514 
L 127.170329 291.734514 
L 127.170329 291.210266 
L 128.003717 291.210266 
L 128.003717 290.686018 
L 128.367236 290.686018 
L 128.367236 290.161771 
L 129.843562 290.161771 
L 129.843562 289.637523 
L 130.514085 289.637523 
L 130.514085 289.113275 
L 134.322384 289.113275 
L 134.322384 288.589027 
L 136.535647 288.589027 
L 136.535647 288.06478 
L 137.558897 288.06478 
L 137.558897 287.540532 
L 138.33866 287.540532 
L 138.381758 286.492036 
L 138.987898 286.492036 
L 138.987898 285.967789 
L 139.398474 285.967789 
L 139.398474 285.443541 
L 142.268865 285.443541 
L 142.268865 284.919293 
L 144.488103 284.919293 
L 144.488103 284.395046 
L 149.962801 284.395046 
L 149.962801 283.870798 
L 150.374741 283.870798 
L 150.374741 283.34655 
L 150.936741 283.34655 
L 150.936741 282.822302 
L 152.645845 282.822302 
L 152.645845 282.298055 
L 153.842163 282.298055 
L 153.842163 281.773807 
L 154.097072 281.773807 
L 154.097072 281.249559 
L 155.09679 281.249559 
L 155.09679 280.725312 
L 156.351992 280.725312 
L 156.351992 280.201064 
L 156.547576 280.201064 
L 156.547576 279.676816 
L 157.671858 279.676816 
L 157.671858 279.152568 
L 158.178119 279.152568 
L 158.178119 278.628321 
L 158.295634 278.628321 
L 158.295634 278.104073 
L 158.488238 278.104073 
L 158.488238 277.579825 
L 159.014596 277.579825 
L 159.014596 277.055578 
L 160.380116 277.055578 
L 160.380116 276.53133 
L 160.929822 276.53133 
L 160.929822 276.007082 
L 162.94748 276.007082 
L 162.94748 275.482834 
L 164.244352 275.482834 
L 164.244352 274.958587 
L 164.644362 274.958587 
L 164.706516 273.910091 
L 165.096033 273.910091 
L 165.096033 273.385844 
L 165.378757 273.385844 
L 165.378757 272.861596 
L 166.05153 272.861596 
L 166.05153 272.337348 
L 166.679611 272.337348 
L 166.679611 271.8131 
L 167.592496 271.8131 
L 167.592496 271.288853 
L 168.119353 271.288853 
L 168.119353 270.764605 
L 168.887841 270.764605 
L 168.909717 269.716109 
L 169.10536 269.716109 
L 169.10536 269.191862 
L 169.990023 269.191862 
L 169.990023 268.667614 
L 170.270586 268.667614 
L 170.279561 267.619119 
L 171.032212 267.619119 
L 171.042943 266.570623 
L 171.372339 266.570623 
L 171.372339 266.046375 
L 171.672803 266.046375 
L 171.672803 265.522128 
L 172.117908 265.522128 
L 172.117908 264.99788 
L 172.563564 264.99788 
L 172.628253 263.425137 
L 173.040034 263.425137 
L 173.040034 262.900889 
L 173.551929 262.900889 
L 173.609314 261.852394 
L 173.956904 261.852394 
L 173.956904 261.328146 
L 174.102976 261.328146 
L 174.138853 260.279651 
L 174.313576 260.279651 
L 174.343705 259.231155 
L 175.163189 259.231155 
L 175.267547 258.18266 
L 175.419578 258.18266 
L 175.419578 257.658412 
L 175.538921 257.658412 
L 175.614737 256.085669 
L 175.956664 256.085669 
L 175.956664 255.561421 
L 176.096351 255.561421 
L 176.096351 255.037173 
L 176.873274 255.037173 
L 176.951047 253.988678 
L 177.017864 253.988678 
L 177.017864 253.46443 
L 177.137183 253.46443 
L 177.137183 252.415935 
L 177.288533 252.415935 
L 177.380785 250.843192 
L 177.82175 250.843192 
L 177.82175 250.318944 
L 178.288322 250.318944 
L 178.354354 249.270448 
L 178.459201 249.270448 
L 178.563413 248.221953 
L 178.57726 248.221953 
L 178.675257 246.64921 
L 178.810973 246.64921 
L 178.906292 245.076467 
L 178.980816 245.076467 
L 179.057711 242.979476 
L 179.134263 242.979476 
L 179.239801 241.93098 
L 179.282367 241.93098 
L 179.330128 240.358237 
L 179.587857 240.358237 
L 179.621757 238.785494 
L 179.708808 238.785494 
L 179.708808 238.261246 
L 179.920046 238.261246 
L 179.920046 237.736999 
L 180.238398 237.736999 
L 180.294855 236.164255 
L 180.430843 236.164255 
L 180.430843 235.640008 
L 180.553429 235.640008 
L 180.621157 233.543017 
L 180.677598 233.543017 
L 180.722862 232.494521 
L 180.809387 232.494521 
L 180.909987 230.397531 
L 180.92569 230.397531 
L 180.938967 229.349035 
L 181.043611 229.349035 
L 181.043611 228.824787 
L 181.159537 228.824787 
L 181.269953 226.727797 
L 181.340814 226.727797 
L 181.420772 224.106558 
L 181.573769 224.106558 
L 181.573769 223.58231 
L 181.749601 223.58231 
L 181.749601 223.058063 
L 181.930488 223.058063 
L 181.994145 218.864081 
L 182.112871 218.864081 
L 182.112871 218.339833 
L 182.258738 218.339833 
L 182.345668 215.194347 
L 182.384532 215.194347 
L 182.489581 213.621604 
L 182.564381 213.621604 
L 182.638857 212.04886 
L 182.695593 212.04886 
L 182.795514 208.903374 
L 182.824729 208.903374 
L 182.929278 207.330631 
L 182.965775 207.330631 
L 183.074801 205.23364 
L 183.108863 205.23364 
L 183.213817 203.136649 
L 183.223327 203.136649 
L 183.269743 201.039658 
L 183.368486 201.039658 
L 183.441651 198.942667 
L 183.497881 198.942667 
L 183.579814 196.845677 
L 183.62115 196.845677 
L 183.728161 193.70019 
L 183.767096 193.70019 
L 183.855905 192.127447 
L 183.906738 192.127447 
L 184.013 188.457713 
L 184.038204 188.457713 
L 184.146663 185.312227 
L 184.189656 185.312227 
L 184.289225 182.690988 
L 184.302127 182.690988 
L 184.38131 179.021254 
L 184.436522 179.021254 
L 184.547395 175.875768 
L 184.550328 175.875768 
L 184.617668 173.254529 
L 184.668243 173.254529 
L 184.773775 171.157538 
L 184.789212 171.157538 
L 184.863307 166.963557 
L 184.919866 166.963557 
L 184.95906 164.866566 
L 185.139535 164.866566 
L 185.235645 161.721079 
L 185.367625 161.721079 
L 185.45134 158.575593 
L 185.490269 158.575593 
L 185.57339 155.954354 
L 185.611124 155.954354 
L 185.642353 154.381611 
L 185.740263 154.381611 
L 185.800379 151.760373 
L 185.860285 151.760373 
L 185.931718 149.663382 
L 186.060271 149.663382 
L 186.155835 147.042143 
L 186.184312 147.042143 
L 186.281844 144.420905 
L 186.310114 144.420905 
L 186.406936 142.323914 
L 186.429742 142.323914 
L 186.521537 140.226923 
L 186.541579 140.226923 
L 186.636244 138.129932 
L 186.741584 138.129932 
L 186.842005 136.557189 
L 186.862532 136.557189 
L 186.961401 134.984446 
L 186.97839 134.984446 
L 187.072375 131.838959 
L 187.120438 131.838959 
L 187.195217 130.790464 
L 187.287194 130.790464 
L 187.287194 130.266216 
L 187.398576 130.266216 
L 187.486177 128.693473 
L 187.577433 128.693473 
L 187.594643 127.12073 
L 187.717889 127.12073 
L 187.8055 126.072235 
L 193.841892 126.072235 
L 193.841892 125.547987 
L 194.662049 125.547987 
L 194.766526 124.499491 
L 194.812877 124.499491 
L 194.812877 123.975244 
L 194.956523 123.975244 
L 195.056578 122.926748 
L 195.294255 122.926748 
L 195.356946 121.354005 
L 195.537465 121.354005 
L 195.550361 120.30551 
L 195.764046 120.30551 
L 195.799149 119.257014 
L 195.876226 119.257014 
L 195.954974 117.160023 
L 196.132343 117.160023 
L 196.227288 114.538785 
L 196.245619 114.538785 
L 196.257995 112.966042 
L 196.37389 112.966042 
L 196.441585 109.820555 
L 196.531919 109.820555 
L 196.560143 108.77206 
L 196.722739 108.77206 
L 196.776598 107.199317 
L 196.842728 107.199317 
L 196.948106 105.626573 
L 197.00695 105.626573 
L 197.089655 103.529583 
L 197.119331 103.529583 
L 197.222096 101.432592 
L 197.2408 101.432592 
L 197.345165 99.335601 
L 197.352132 99.335601 
L 197.460902 95.665867 
L 197.488102 95.665867 
L 197.574947 92.520381 
L 197.615234 92.520381 
L 197.710083 90.42339 
L 197.726901 90.42339 
L 197.825655 84.656665 
L 197.850481 84.656665 
L 197.942249 81.511178 
L 197.965563 81.511178 
L 198.054493 77.841444 
L 198.127438 77.841444 
L 198.218185 73.647463 
L 198.253469 73.647463 
L 198.357575 68.929233 
L 198.409611 68.929233 
L 198.50149 65.783747 
L 198.623525 65.783747 
L 198.712126 63.162508 
L 198.82501 63.162508 
L 198.890094 60.54127 
L 198.955778 60.54127 
L 199.066237 57.920031 
L 199.147991 57.920031 
L 199.171815 56.871536 
L 199.30827 56.871536 
L 199.348004 55.82304 
L 202.368349 55.82304 
L 202.368349 55.298792 
L 202.868706 55.298792 
L 202.868706 54.774545 
L 203.066972 54.774545 
L 203.066972 54.250297 
L 203.315569 54.250297 
L 203.425167 53.201802 
L 203.446351 53.201802 
L 203.53731 52.153306 
L 203.601665 52.153306 
L 203.704968 51.104811 
L 203.729335 51.104811 
L 203.729335 50.580563 
L 203.871959 50.580563 
L 203.978393 49.00782 
L 204.047411 49.00782 
L 204.152767 46.910829 
L 204.179006 46.910829 
L 204.179006 46.386581 
L 204.294105 46.386581 
L 204.388717 44.813838 
L 204.468698 44.813838 
L 204.527218 42.716847 
L 204.611125 42.716847 
L 204.685839 40.619856 
L 204.77953 40.619856 
L 204.809343 39.571361 
L 208.619643 39.571361 
L 208.619643 39.047113 
L 208.733527 39.047113 
L 208.794961 37.998618 
L 208.911724 37.998618 
L 208.977011 36.950122 
L 209.044639 36.950122 
L 209.070959 35.901627 
L 209.182135 35.901627 
L 209.245941 34.853131 
L 209.346523 34.853131 
L 209.379766 33.804636 
L 209.487823 33.804636 
L 209.595889 31.183397 
L 209.62729 31.183397 
L 209.676778 30.134902 
L 209.752549 30.134902 
L 209.838545 28.562159 
L 209.881159 28.562159 
L 209.919421 27.513663 
L 333.168 27.513663 
L 333.168 27.513663 
" style="fill:none;stroke:#ff7500;stroke-linecap:square;stroke-width:1.5;"/>
   </g>
   <g id="line2d_53">
    <defs>
     <path d="M 0 -6 
L -1.347084 -1.854102 
L -5.706339 -1.854102 
L -2.179628 0.708204 
L -3.526712 4.854102 
L -0 2.291796 
L 3.526712 4.854102 
L 2.179628 0.708204 
L 5.706339 -1.854102 
L 1.347084 -1.854102 
z
" id="m417c051301" style="stroke:#ff7500;stroke-linejoin:bevel;stroke-width:1.5;"/>
    </defs>
    <g>
     <use style="fill-opacity:0;stroke:#ff7500;stroke-linejoin:bevel;stroke-width:1.5;" x="166.05153" xlink:href="#m417c051301" y="272.337348"/>
     <use style="fill-opacity:0;stroke:#ff7500;stroke-linejoin:bevel;stroke-width:1.5;" x="185.398368" xlink:href="#m417c051301" y="160.672584"/>
     <use style="fill-opacity:0;stroke:#ff7500;stroke-linejoin:bevel;stroke-width:1.5;" x="209.919421" xlink:href="#m417c051301" y="28.037911"/>
     <use style="fill-opacity:0;stroke:#ff7500;stroke-linejoin:bevel;stroke-width:1.5;" x="209.919421" xlink:href="#m417c051301" y="27.513663"/>
     <use style="fill-opacity:0;stroke:#ff7500;stroke-linejoin:bevel;stroke-width:1.5;" x="333.168" xlink:href="#m417c051301" y="27.513663"/>
    </g>
   </g>
   <g id="line2d_54">
    <path style="fill:none;stroke:#ff7500;stroke-linecap:square;stroke-width:1.5;"/>
    <g/>
   </g>
   <g id="line2d_55">
    <defs>
     <path d="M 0 1.5 
C 0.397805 1.5 0.77937 1.341951 1.06066 1.06066 
C 1.341951 0.77937 1.5 0.397805 1.5 0 
C 1.5 -0.397805 1.341951 -0.77937 1.06066 -1.06066 
C 0.77937 -1.341951 0.397805 -1.5 0 -1.5 
C -0.397805 -1.5 -0.77937 -1.341951 -1.06066 -1.06066 
C -1.341951 -0.77937 -1.5 -0.397805 -1.5 0 
C -1.5 0.397805 -1.341951 0.77937 -1.06066 1.06066 
C -0.77937 1.341951 -0.397805 1.5 0 1.5 
z
" id="m82b36c1f0d" style="stroke:#6495ed;"/>
    </defs>
    <g>
     <use style="fill:#6495ed;stroke:#6495ed;" x="313.110155" xlink:href="#m82b36c1f0d" y="252.940182"/>
     <use style="fill:#6495ed;stroke:#6495ed;" x="313.110155" xlink:href="#m82b36c1f0d" y="252.940182"/>
    </g>
   </g>
   <g id="line2d_56">
    <path d="M 106.179321 294.88 
L 106.179321 294.355752 
L 109.250788 294.355752 
L 109.250788 293.831505 
L 110.674626 293.831505 
L 110.674626 293.307257 
L 113.760471 293.307257 
L 113.760471 292.783009 
L 115.034286 292.783009 
L 115.034286 292.258761 
L 115.637457 292.258761 
L 115.637457 291.734514 
L 118.599834 291.734514 
L 118.599834 291.210266 
L 119.003236 291.210266 
L 119.09161 290.161771 
L 123.533353 290.161771 
L 123.533353 289.637523 
L 123.668964 289.637523 
L 123.7027 288.589027 
L 123.903739 288.589027 
L 123.903739 288.06478 
L 124.331421 288.06478 
L 124.331421 287.540532 
L 125.310285 287.540532 
L 125.310285 287.016284 
L 125.674722 287.016284 
L 125.674722 286.492036 
L 126.836558 286.492036 
L 126.836558 285.967789 
L 127.659138 285.967789 
L 127.659138 285.443541 
L 127.898427 285.443541 
L 127.898427 284.919293 
L 128.948245 284.919293 
L 128.948245 284.395046 
L 130.694545 284.395046 
L 130.694545 283.870798 
L 131.071844 283.870798 
L 131.071844 283.34655 
L 131.907344 283.34655 
L 131.907344 282.822302 
L 132.238701 282.822302 
L 132.238701 282.298055 
L 132.46286 282.298055 
L 132.46286 281.773807 
L 133.560797 281.773807 
L 133.560797 281.249559 
L 133.693236 281.249559 
L 133.693236 280.725312 
L 133.992176 280.725312 
L 134.066106 279.676816 
L 134.304205 279.676816 
L 134.304205 279.152568 
L 134.823755 279.152568 
L 134.823755 278.628321 
L 134.946845 278.628321 
L 134.946845 278.104073 
L 135.345189 278.104073 
L 135.345189 277.055578 
L 135.684226 277.055578 
L 135.73451 276.007082 
L 137.633989 276.007082 
L 137.633989 275.482834 
L 137.812884 275.482834 
L 137.812884 274.958587 
L 138.581462 274.958587 
L 138.581462 274.434339 
L 141.096862 274.434339 
L 141.096862 273.910091 
L 144.060402 273.910091 
L 144.060402 273.385844 
L 160.207687 273.385844 
L 160.207687 272.861596 
L 161.083705 272.861596 
L 161.083705 272.337348 
L 161.35727 272.337348 
L 161.428741 271.288853 
L 161.473727 271.288853 
L 161.581961 270.240357 
L 161.659915 270.240357 
L 161.659915 269.716109 
L 161.792731 269.716109 
L 161.792731 269.191862 
L 161.982784 269.191862 
L 161.982784 268.667614 
L 162.288992 268.667614 
L 162.288992 268.143366 
L 163.594912 268.143366 
L 163.594912 267.619119 
L 163.922699 267.619119 
L 163.922699 267.094871 
L 164.119622 267.094871 
L 164.119622 266.570623 
L 164.591354 266.570623 
L 164.690998 265.522128 
L 176.141068 265.522128 
L 176.141068 264.99788 
L 180.21073 264.99788 
L 180.21073 264.473632 
L 184.091515 264.473632 
L 184.091515 263.949385 
L 184.631299 263.949385 
L 184.631299 263.425137 
L 185.443916 263.425137 
L 185.443916 262.900889 
L 186.692448 262.900889 
L 186.692448 262.376641 
L 189.126526 262.376641 
L 189.126526 261.852394 
L 196.46458 261.852394 
L 196.46458 261.328146 
L 196.924321 261.328146 
L 196.924321 260.803898 
L 198.595473 260.803898 
L 198.595473 260.279651 
L 202.43826 260.279651 
L 202.43826 259.755403 
L 209.724541 259.755403 
L 209.724541 259.231155 
L 216.09591 259.231155 
L 216.09591 258.706907 
L 228.561175 258.706907 
L 228.561175 258.18266 
L 228.907123 258.18266 
L 228.907123 257.658412 
L 256.125761 257.658412 
L 256.125761 257.134164 
L 281.484718 257.134164 
L 281.484718 256.609917 
L 284.485317 256.609917 
L 284.485317 256.085669 
L 292.294463 256.085669 
L 292.294463 255.561421 
L 293.59938 255.561421 
L 293.59938 255.037173 
L 301.547711 255.037173 
L 301.547711 254.512926 
L 309.939931 254.512926 
L 309.939931 253.988678 
L 310.824499 253.988678 
L 310.824499 253.46443 
L 313.110155 253.46443 
L 313.110155 252.940182 
L 333.168 252.940182 
L 333.168 252.940182 
" style="fill:none;stroke:#6495ed;stroke-linecap:square;stroke-width:1.5;"/>
   </g>
   <g id="line2d_57">
    <defs>
     <path d="M -0 6 
L 6 -6 
L -6 -6 
z
" id="mf385338ce4" style="stroke:#6495ed;stroke-linejoin:miter;stroke-width:1.5;"/>
    </defs>
    <g>
     <use style="fill-opacity:0;stroke:#6495ed;stroke-linejoin:miter;stroke-width:1.5;" x="162.288992" xlink:href="#mf385338ce4" y="268.143366"/>
     <use style="fill-opacity:0;stroke:#6495ed;stroke-linejoin:miter;stroke-width:1.5;" x="216.09591" xlink:href="#mf385338ce4" y="259.231155"/>
     <use style="fill-opacity:0;stroke:#6495ed;stroke-linejoin:miter;stroke-width:1.5;" x="284.485317" xlink:href="#mf385338ce4" y="256.085669"/>
     <use style="fill-opacity:0;stroke:#6495ed;stroke-linejoin:miter;stroke-width:1.5;" x="313.110155" xlink:href="#mf385338ce4" y="252.940182"/>
     <use style="fill-opacity:0;stroke:#6495ed;stroke-linejoin:miter;stroke-width:1.5;" x="333.168" xlink:href="#mf385338ce4" y="252.940182"/>
    </g>
   </g>
   <g id="line2d_58">
    <path style="fill:none;stroke:#6495ed;stroke-linecap:square;stroke-width:1.5;"/>
    <g/>
   </g>
   <g id="line2d_59">
    <path clip-path="url(#pd72df616e1)" d="M 293.590051 255.561421 
" style="fill:none;stroke:#6495ed;stroke-linecap:square;stroke-width:1.5;"/>
    <defs>
     <path d="M -12 12 
L 12 -12 
M -12 -12 
L 12 12 
" id="mbc1c9a1563" style="stroke:#6495ed;"/>
    </defs>
    <g clip-path="url(#pd72df616e1)">
     <use style="fill:#6495ed;stroke:#6495ed;" x="293.590051" xlink:href="#mbc1c9a1563" y="255.561421"/>
    </g>
   </g>
   <g id="line2d_60">
    <path d="M 333.168 252.940182 
L 363.64328 289.532673 
" style="fill:none;stroke:#6495ed;stroke-linecap:square;stroke-width:1.5;"/>
    <g>
     <use style="fill-opacity:0;stroke:#6495ed;stroke-linejoin:miter;stroke-width:1.5;" x="333.168" xlink:href="#mf385338ce4" y="252.940182"/>
     <use style="fill-opacity:0;stroke:#6495ed;stroke-linejoin:miter;stroke-width:1.5;" x="363.64328" xlink:href="#mf385338ce4" y="289.532673"/>
    </g>
   </g>
   <g id="line2d_61">
    <path d="M 333.168 27.513663 
L 363.64328 225.364752 
" style="fill:none;stroke:#ff00ff;stroke-linecap:square;stroke-width:1.5;"/>
    <g>
     <use style="fill-opacity:0;stroke:#ff00ff;stroke-linejoin:miter;stroke-width:1.5;" x="333.168" xlink:href="#mab9bfbbb03" y="27.513663"/>
     <use style="fill-opacity:0;stroke:#ff00ff;stroke-linejoin:miter;stroke-width:1.5;" x="363.64328" xlink:href="#mab9bfbbb03" y="225.364752"/>
    </g>
   </g>
   <g id="line2d_62">
    <path d="M 333.168 27.513663 
L 363.64328 161.196832 
" style="fill:none;stroke:#ff7500;stroke-linecap:square;stroke-width:1.5;"/>
    <g>
     <use style="fill-opacity:0;stroke:#ff7500;stroke-linejoin:bevel;stroke-width:1.5;" x="333.168" xlink:href="#m417c051301" y="27.513663"/>
     <use style="fill-opacity:0;stroke:#ff7500;stroke-linejoin:bevel;stroke-width:1.5;" x="363.64328" xlink:href="#m417c051301" y="161.196832"/>
    </g>
   </g>
   <g id="line2d_63">
    <path d="M 333.168 27.513663 
L 363.64328 97.028911 
" style="fill:none;stroke:#000080;stroke-linecap:square;stroke-width:1.5;"/>
    <g>
     <use style="fill-opacity:0;stroke:#000080;stroke-width:1.5;" x="333.168" xlink:href="#m6f5950cac7" y="27.513663"/>
     <use style="fill-opacity:0;stroke:#000080;stroke-width:1.5;" x="363.64328" xlink:href="#m6f5950cac7" y="97.028911"/>
    </g>
   </g>
   <g id="line2d_64">
    <path d="M 333.168 294.88 
L 333.168 27.513663 
" style="fill:none;stroke:#000000;stroke-linecap:square;stroke-width:1.5;"/>
   </g>
   <g id="patch_3">
    <path d="M 56.12 294.88 
L 56.12 24.84 
" style="fill:none;stroke:#000000;stroke-linecap:square;stroke-linejoin:miter;stroke-width:0.8;"/>
   </g>
   <g id="patch_4">
    <path d="M 333.168 294.88 
L 333.168 24.84 
" style="fill:none;stroke:#000000;stroke-linecap:square;stroke-linejoin:miter;stroke-width:0.8;"/>
   </g>
   <g id="patch_5">
    <path d="M 56.12 294.88 
L 333.168 294.88 
" style="fill:none;stroke:#000000;stroke-linecap:square;stroke-linejoin:miter;stroke-width:0.8;"/>
   </g>
   <g id="patch_6">
    <path d="M 56.12 24.84 
L 333.168 24.84 
" style="fill:none;stroke:#000000;stroke-linecap:square;stroke-linejoin:miter;stroke-width:0.8;"/>
   </g>
   <g id="text_13">
    <!-- KL-BIPOP-CM -->
    <defs>
     <path d="M 9.8125 72.90625 
L 19.671875 72.90625 
L 19.671875 42.09375 
L 52.390625 72.90625 
L 65.09375 72.90625 
L 28.90625 38.921875 
L 67.671875 0 
L 54.6875 0 
L 19.671875 35.109375 
L 19.671875 0 
L 9.8125 0 
z
" id="DejaVuSans-4b"/>
     <path d="M 9.8125 72.90625 
L 19.671875 72.90625 
L 19.671875 8.296875 
L 55.171875 8.296875 
L 55.171875 0 
L 9.8125 0 
z
" id="DejaVuSans-4c"/>
     <path d="M 19.671875 34.8125 
L 19.671875 8.109375 
L 35.5 8.109375 
Q 43.453125 8.109375 47.28125 11.40625 
Q 51.125 14.703125 51.125 21.484375 
Q 51.125 28.328125 47.28125 31.5625 
Q 43.453125 34.8125 35.5 34.8125 
z
M 19.671875 64.796875 
L 19.671875 42.828125 
L 34.28125 42.828125 
Q 41.5 42.828125 45.03125 45.53125 
Q 48.578125 48.25 48.578125 53.8125 
Q 48.578125 59.328125 45.03125 62.0625 
Q 41.5 64.796875 34.28125 64.796875 
z
M 9.8125 72.90625 
L 35.015625 72.90625 
Q 46.296875 72.90625 52.390625 68.21875 
Q 58.5 63.53125 58.5 54.890625 
Q 58.5 48.1875 55.375 44.234375 
Q 52.25 40.28125 46.1875 39.3125 
Q 53.46875 37.75 57.5 32.78125 
Q 61.53125 27.828125 61.53125 20.40625 
Q 61.53125 10.640625 54.890625 5.3125 
Q 48.25 0 35.984375 0 
L 9.8125 0 
z
" id="DejaVuSans-42"/>
     <path d="M 9.8125 72.90625 
L 19.671875 72.90625 
L 19.671875 0 
L 9.8125 0 
z
" id="DejaVuSans-49"/>
     <path d="M 19.671875 64.796875 
L 19.671875 37.40625 
L 32.078125 37.40625 
Q 38.96875 37.40625 42.71875 40.96875 
Q 46.484375 44.53125 46.484375 51.125 
Q 46.484375 57.671875 42.71875 61.234375 
Q 38.96875 64.796875 32.078125 64.796875 
z
M 9.8125 72.90625 
L 32.078125 72.90625 
Q 44.34375 72.90625 50.609375 67.359375 
Q 56.890625 61.8125 56.890625 51.125 
Q 56.890625 40.328125 50.609375 34.8125 
Q 44.34375 29.296875 32.078125 29.296875 
L 19.671875 29.296875 
L 19.671875 0 
L 9.8125 0 
z
" id="DejaVuSans-50"/>
     <path d="M 39.40625 66.21875 
Q 28.65625 66.21875 22.328125 58.203125 
Q 16.015625 50.203125 16.015625 36.375 
Q 16.015625 22.609375 22.328125 14.59375 
Q 28.65625 6.59375 39.40625 6.59375 
Q 50.140625 6.59375 56.421875 14.59375 
Q 62.703125 22.609375 62.703125 36.375 
Q 62.703125 50.203125 56.421875 58.203125 
Q 50.140625 66.21875 39.40625 66.21875 
z
M 39.40625 74.21875 
Q 54.734375 74.21875 63.90625 63.9375 
Q 73.09375 53.65625 73.09375 36.375 
Q 73.09375 19.140625 63.90625 8.859375 
Q 54.734375 -1.421875 39.40625 -1.421875 
Q 24.03125 -1.421875 14.8125 8.828125 
Q 5.609375 19.09375 5.609375 36.375 
Q 5.609375 53.65625 14.8125 63.9375 
Q 24.03125 74.21875 39.40625 74.21875 
z
" id="DejaVuSans-4f"/>
     <path d="M 64.40625 67.28125 
L 64.40625 56.890625 
Q 59.421875 61.53125 53.78125 63.8125 
Q 48.140625 66.109375 41.796875 66.109375 
Q 29.296875 66.109375 22.65625 58.46875 
Q 16.015625 50.828125 16.015625 36.375 
Q 16.015625 21.96875 22.65625 14.328125 
Q 29.296875 6.6875 41.796875 6.6875 
Q 48.140625 6.6875 53.78125 8.984375 
Q 59.421875 11.28125 64.40625 15.921875 
L 64.40625 5.609375 
Q 59.234375 2.09375 53.4375 0.328125 
Q 47.65625 -1.421875 41.21875 -1.421875 
Q 24.65625 -1.421875 15.125 8.703125 
Q 5.609375 18.84375 5.609375 36.375 
Q 5.609375 53.953125 15.125 64.078125 
Q 24.65625 74.21875 41.21875 74.21875 
Q 47.75 74.21875 53.53125 72.484375 
Q 59.328125 70.75 64.40625 67.28125 
z
" id="DejaVuSans-43"/>
     <path d="M 9.8125 72.90625 
L 24.515625 72.90625 
L 43.109375 23.296875 
L 61.8125 72.90625 
L 76.515625 72.90625 
L 76.515625 0 
L 66.890625 0 
L 66.890625 64.015625 
L 48.09375 14.015625 
L 38.1875 14.015625 
L 19.390625 64.015625 
L 19.390625 0 
L 9.8125 0 
z
" id="DejaVuSans-4d"/>
    </defs>
    <g transform="translate(369.18424 294.223611)scale(0.17 -0.17)">
     <use xlink:href="#DejaVuSans-4b"/>
     <use x="65.576172" xlink:href="#DejaVuSans-4c"/>
     <use x="121.273438" xlink:href="#DejaVuSans-2d"/>
     <use x="157.310547" xlink:href="#DejaVuSans-42"/>
     <use x="225.914062" xlink:href="#DejaVuSans-49"/>
     <use x="255.40625" xlink:href="#DejaVuSans-50"/>
     <use x="315.708984" xlink:href="#DejaVuSans-4f"/>
     <use x="394.419922" xlink:href="#DejaVuSans-50"/>
     <use x="454.691406" xlink:href="#DejaVuSans-2d"/>
     <use x="490.775391" xlink:href="#DejaVuSans-43"/>
     <use x="560.599609" xlink:href="#DejaVuSans-4d"/>
    </g>
   </g>
   <g id="text_14">
    <!-- SHADE-LM-PO -->
    <defs>
     <path d="M 53.515625 70.515625 
L 53.515625 60.890625 
Q 47.90625 63.578125 42.921875 64.890625 
Q 37.9375 66.21875 33.296875 66.21875 
Q 25.25 66.21875 20.875 63.09375 
Q 16.5 59.96875 16.5 54.203125 
Q 16.5 49.359375 19.40625 46.890625 
Q 22.3125 44.4375 30.421875 42.921875 
L 36.375 41.703125 
Q 47.40625 39.59375 52.65625 34.296875 
Q 57.90625 29 57.90625 20.125 
Q 57.90625 9.515625 50.796875 4.046875 
Q 43.703125 -1.421875 29.984375 -1.421875 
Q 24.8125 -1.421875 18.96875 -0.25 
Q 13.140625 0.921875 6.890625 3.21875 
L 6.890625 13.375 
Q 12.890625 10.015625 18.65625 8.296875 
Q 24.421875 6.59375 29.984375 6.59375 
Q 38.421875 6.59375 43.015625 9.90625 
Q 47.609375 13.234375 47.609375 19.390625 
Q 47.609375 24.75 44.3125 27.78125 
Q 41.015625 30.8125 33.5 32.328125 
L 27.484375 33.5 
Q 16.453125 35.6875 11.515625 40.375 
Q 6.59375 45.0625 6.59375 53.421875 
Q 6.59375 63.09375 13.40625 68.65625 
Q 20.21875 74.21875 32.171875 74.21875 
Q 37.3125 74.21875 42.625 73.28125 
Q 47.953125 72.359375 53.515625 70.515625 
z
" id="DejaVuSans-53"/>
     <path d="M 9.8125 72.90625 
L 19.671875 72.90625 
L 19.671875 43.015625 
L 55.515625 43.015625 
L 55.515625 72.90625 
L 65.375 72.90625 
L 65.375 0 
L 55.515625 0 
L 55.515625 34.71875 
L 19.671875 34.71875 
L 19.671875 0 
L 9.8125 0 
z
" id="DejaVuSans-48"/>
     <path d="M 34.1875 63.1875 
L 20.796875 26.90625 
L 47.609375 26.90625 
z
M 28.609375 72.90625 
L 39.796875 72.90625 
L 67.578125 0 
L 57.328125 0 
L 50.6875 18.703125 
L 17.828125 18.703125 
L 11.1875 0 
L 0.78125 0 
z
" id="DejaVuSans-41"/>
     <path d="M 19.671875 64.796875 
L 19.671875 8.109375 
L 31.59375 8.109375 
Q 46.6875 8.109375 53.6875 14.9375 
Q 60.6875 21.78125 60.6875 36.53125 
Q 60.6875 51.171875 53.6875 57.984375 
Q 46.6875 64.796875 31.59375 64.796875 
z
M 9.8125 72.90625 
L 30.078125 72.90625 
Q 51.265625 72.90625 61.171875 64.09375 
Q 71.09375 55.28125 71.09375 36.53125 
Q 71.09375 17.671875 61.125 8.828125 
Q 51.171875 0 30.078125 0 
L 9.8125 0 
z
" id="DejaVuSans-44"/>
     <path d="M 9.8125 72.90625 
L 55.90625 72.90625 
L 55.90625 64.59375 
L 19.671875 64.59375 
L 19.671875 43.015625 
L 54.390625 43.015625 
L 54.390625 34.71875 
L 19.671875 34.71875 
L 19.671875 8.296875 
L 56.78125 8.296875 
L 56.78125 0 
L 9.8125 0 
z
" id="DejaVuSans-45"/>
    </defs>
    <g transform="translate(369.18424 230.05569)scale(0.17 -0.17)">
     <use xlink:href="#DejaVuSans-53"/>
     <use x="63.476562" xlink:href="#DejaVuSans-48"/>
     <use x="138.671875" xlink:href="#DejaVuSans-41"/>
     <use x="207.080078" xlink:href="#DejaVuSans-44"/>
     <use x="284.082031" xlink:href="#DejaVuSans-45"/>
     <use x="347.265625" xlink:href="#DejaVuSans-2d"/>
     <use x="383.349609" xlink:href="#DejaVuSans-4c"/>
     <use x="439.0625" xlink:href="#DejaVuSans-4d"/>
     <use x="525.341797" xlink:href="#DejaVuSans-2d"/>
     <use x="561.425781" xlink:href="#DejaVuSans-50"/>
     <use x="621.728516" xlink:href="#DejaVuSans-4f"/>
    </g>
   </g>
   <g id="text_15">
    <!-- R-SHADE-Tan -->
    <defs>
     <path d="M 44.390625 34.1875 
Q 47.5625 33.109375 50.5625 29.59375 
Q 53.5625 26.078125 56.59375 19.921875 
L 66.609375 0 
L 56 0 
L 46.6875 18.703125 
Q 43.0625 26.03125 39.671875 28.421875 
Q 36.28125 30.8125 30.421875 30.8125 
L 19.671875 30.8125 
L 19.671875 0 
L 9.8125 0 
L 9.8125 72.90625 
L 32.078125 72.90625 
Q 44.578125 72.90625 50.734375 67.671875 
Q 56.890625 62.453125 56.890625 51.90625 
Q 56.890625 45.015625 53.6875 40.46875 
Q 50.484375 35.9375 44.390625 34.1875 
z
M 19.671875 64.796875 
L 19.671875 38.921875 
L 32.078125 38.921875 
Q 39.203125 38.921875 42.84375 42.21875 
Q 46.484375 45.515625 46.484375 51.90625 
Q 46.484375 58.296875 42.84375 61.546875 
Q 39.203125 64.796875 32.078125 64.796875 
z
" id="DejaVuSans-52"/>
     <path d="M -0.296875 72.90625 
L 61.375 72.90625 
L 61.375 64.59375 
L 35.5 64.59375 
L 35.5 0 
L 25.59375 0 
L 25.59375 64.59375 
L -0.296875 64.59375 
z
" id="DejaVuSans-54"/>
    </defs>
    <g transform="translate(369.18424 165.887769)scale(0.17 -0.17)">
     <use xlink:href="#DejaVuSans-52"/>
     <use x="69.419922" xlink:href="#DejaVuSans-2d"/>
     <use x="105.503906" xlink:href="#DejaVuSans-53"/>
     <use x="168.980469" xlink:href="#DejaVuSans-48"/>
     <use x="244.175781" xlink:href="#DejaVuSans-41"/>
     <use x="312.583984" xlink:href="#DejaVuSans-44"/>
     <use x="389.585938" xlink:href="#DejaVuSans-45"/>
     <use x="452.769531" xlink:href="#DejaVuSans-2d"/>
     <use x="488.712891" xlink:href="#DejaVuSans-54"/>
     <use x="549.546875" xlink:href="#DejaVuSans-61"/>
     <use x="610.826172" xlink:href="#DejaVuSans-6e"/>
    </g>
   </g>
   <g id="text_16">
    <!-- SHADE-LM -->
    <g transform="translate(369.18424 101.719848)scale(0.17 -0.17)">
     <use xlink:href="#DejaVuSans-53"/>
     <use x="63.476562" xlink:href="#DejaVuSans-48"/>
     <use x="138.671875" xlink:href="#DejaVuSans-41"/>
     <use x="207.080078" xlink:href="#DejaVuSans-44"/>
     <use x="284.082031" xlink:href="#DejaVuSans-45"/>
     <use x="347.265625" xlink:href="#DejaVuSans-2d"/>
     <use x="383.349609" xlink:href="#DejaVuSans-4c"/>
     <use x="439.0625" xlink:href="#DejaVuSans-4d"/>
    </g>
   </g>
   <g id="text_17">
    <!-- best 2009 -->
    <defs>
     <path d="M 48.6875 27.296875 
Q 48.6875 37.203125 44.609375 42.84375 
Q 40.53125 48.484375 33.40625 48.484375 
Q 26.265625 48.484375 22.1875 42.84375 
Q 18.109375 37.203125 18.109375 27.296875 
Q 18.109375 17.390625 22.1875 11.75 
Q 26.265625 6.109375 33.40625 6.109375 
Q 40.53125 6.109375 44.609375 11.75 
Q 48.6875 17.390625 48.6875 27.296875 
z
M 18.109375 46.390625 
Q 20.953125 51.265625 25.265625 53.625 
Q 29.59375 56 35.59375 56 
Q 45.5625 56 51.78125 48.09375 
Q 58.015625 40.1875 58.015625 27.296875 
Q 58.015625 14.40625 51.78125 6.484375 
Q 45.5625 -1.421875 35.59375 -1.421875 
Q 29.59375 -1.421875 25.265625 0.953125 
Q 20.953125 3.328125 18.109375 8.203125 
L 18.109375 0 
L 9.078125 0 
L 9.078125 75.984375 
L 18.109375 75.984375 
z
" id="DejaVuSans-62"/>
     <path d="M 10.984375 1.515625 
L 10.984375 10.5 
Q 14.703125 8.734375 18.5 7.8125 
Q 22.3125 6.890625 25.984375 6.890625 
Q 35.75 6.890625 40.890625 13.453125 
Q 46.046875 20.015625 46.78125 33.40625 
Q 43.953125 29.203125 39.59375 26.953125 
Q 35.25 24.703125 29.984375 24.703125 
Q 19.046875 24.703125 12.671875 31.3125 
Q 6.296875 37.9375 6.296875 49.421875 
Q 6.296875 60.640625 12.9375 67.421875 
Q 19.578125 74.21875 30.609375 74.21875 
Q 43.265625 74.21875 49.921875 64.515625 
Q 56.59375 54.828125 56.59375 36.375 
Q 56.59375 19.140625 48.40625 8.859375 
Q 40.234375 -1.421875 26.421875 -1.421875 
Q 22.703125 -1.421875 18.890625 -0.6875 
Q 15.09375 0.046875 10.984375 1.515625 
z
M 30.609375 32.421875 
Q 37.25 32.421875 41.125 36.953125 
Q 45.015625 41.5 45.015625 49.421875 
Q 45.015625 57.28125 41.125 61.84375 
Q 37.25 66.40625 30.609375 66.40625 
Q 23.96875 66.40625 20.09375 61.84375 
Q 16.21875 57.28125 16.21875 49.421875 
Q 16.21875 41.5 20.09375 36.953125 
Q 23.96875 32.421875 30.609375 32.421875 
z
" id="DejaVuSans-39"/>
    </defs>
    <g transform="translate(369.18424 37.551928)scale(0.17 -0.17)">
     <use xlink:href="#DejaVuSans-62"/>
     <use x="63.476562" xlink:href="#DejaVuSans-65"/>
     <use x="125" xlink:href="#DejaVuSans-73"/>
     <use x="177.099609" xlink:href="#DejaVuSans-74"/>
     <use x="216.308594" xlink:href="#DejaVuSans-20"/>
     <use x="248.095703" xlink:href="#DejaVuSans-32"/>
     <use x="311.71875" xlink:href="#DejaVuSans-30"/>
     <use x="375.341797" xlink:href="#DejaVuSans-30"/>
     <use x="438.964844" xlink:href="#DejaVuSans-39"/>
    </g>
   </g>
   <g id="text_18">
    <!-- bbob f4, 10-D -->
    <g transform="translate(58.89048 35.290806)scale(0.102 -0.102)">
     <use xlink:href="#DejaVuSans-62"/>
     <use x="63.476562" xlink:href="#DejaVuSans-62"/>
     <use x="126.953125" xlink:href="#DejaVuSans-6f"/>
     <use x="188.134766" xlink:href="#DejaVuSans-62"/>
     <use x="251.611328" xlink:href="#DejaVuSans-20"/>
     <use x="283.398438" xlink:href="#DejaVuSans-66"/>
     <use x="318.603516" xlink:href="#DejaVuSans-34"/>
     <use x="382.226562" xlink:href="#DejaVuSans-2c"/>
     <use x="414.013672" xlink:href="#DejaVuSans-20"/>
     <use x="445.800781" xlink:href="#DejaVuSans-31"/>
     <use x="509.423828" xlink:href="#DejaVuSans-30"/>
     <use x="573.046875" xlink:href="#DejaVuSans-2d"/>
     <use x="609.130859" xlink:href="#DejaVuSans-44"/>
    </g>
    <!-- 51 targets: 100..1e-08 -->
    <defs>
     <path d="M 10.796875 72.90625 
L 49.515625 72.90625 
L 49.515625 64.59375 
L 19.828125 64.59375 
L 19.828125 46.734375 
Q 21.96875 47.46875 24.109375 47.828125 
Q 26.265625 48.1875 28.421875 48.1875 
Q 40.625 48.1875 47.75 41.5 
Q 54.890625 34.8125 54.890625 23.390625 
Q 54.890625 11.625 47.5625 5.09375 
Q 40.234375 -1.421875 26.90625 -1.421875 
Q 22.3125 -1.421875 17.546875 -0.640625 
Q 12.796875 0.140625 7.71875 1.703125 
L 7.71875 11.625 
Q 12.109375 9.234375 16.796875 8.0625 
Q 21.484375 6.890625 26.703125 6.890625 
Q 35.15625 6.890625 40.078125 11.328125 
Q 45.015625 15.765625 45.015625 23.390625 
Q 45.015625 31 40.078125 35.4375 
Q 35.15625 39.890625 26.703125 39.890625 
Q 22.75 39.890625 18.8125 39.015625 
Q 14.890625 38.140625 10.796875 36.28125 
z
" id="DejaVuSans-35"/>
     <path d="M 11.71875 12.40625 
L 22.015625 12.40625 
L 22.015625 0 
L 11.71875 0 
z
M 11.71875 51.703125 
L 22.015625 51.703125 
L 22.015625 39.3125 
L 11.71875 39.3125 
z
" id="DejaVuSans-3a"/>
    </defs>
    <g transform="translate(58.89048 46.712575)scale(0.102 -0.102)">
     <use xlink:href="#DejaVuSans-35"/>
     <use x="63.623047" xlink:href="#DejaVuSans-31"/>
     <use x="127.246094" xlink:href="#DejaVuSans-20"/>
     <use x="159.033203" xlink:href="#DejaVuSans-74"/>
     <use x="198.242188" xlink:href="#DejaVuSans-61"/>
     <use x="259.521484" xlink:href="#DejaVuSans-72"/>
     <use x="300.619141" xlink:href="#DejaVuSans-67"/>
     <use x="364.095703" xlink:href="#DejaVuSans-65"/>
     <use x="425.619141" xlink:href="#DejaVuSans-74"/>
     <use x="464.828125" xlink:href="#DejaVuSans-73"/>
     <use x="516.927734" xlink:href="#DejaVuSans-3a"/>
     <use x="550.619141" xlink:href="#DejaVuSans-20"/>
     <use x="582.40625" xlink:href="#DejaVuSans-31"/>
     <use x="646.029297" xlink:href="#DejaVuSans-30"/>
     <use x="709.652344" xlink:href="#DejaVuSans-30"/>
     <use x="773.275391" xlink:href="#DejaVuSans-2e"/>
     <use x="805.0625" xlink:href="#DejaVuSans-2e"/>
     <use x="836.849609" xlink:href="#DejaVuSans-31"/>
     <use x="900.472656" xlink:href="#DejaVuSans-65"/>
     <use x="961.996094" xlink:href="#DejaVuSans-2d"/>
     <use x="998.080078" xlink:href="#DejaVuSans-30"/>
     <use x="1061.703125" xlink:href="#DejaVuSans-38"/>
    </g>
    <!-- 15 instances -->
    <g transform="translate(58.89048 58.134344)scale(0.102 -0.102)">
     <use xlink:href="#DejaVuSans-31"/>
     <use x="63.623047" xlink:href="#DejaVuSans-35"/>
     <use x="127.246094" xlink:href="#DejaVuSans-20"/>
     <use x="159.033203" xlink:href="#DejaVuSans-69"/>
     <use x="186.816406" xlink:href="#DejaVuSans-6e"/>
     <use x="250.195312" xlink:href="#DejaVuSans-73"/>
     <use x="302.294922" xlink:href="#DejaVuSans-74"/>
     <use x="341.503906" xlink:href="#DejaVuSans-61"/>
     <use x="402.783203" xlink:href="#DejaVuSans-6e"/>
     <use x="466.162109" xlink:href="#DejaVuSans-63"/>
     <use x="521.142578" xlink:href="#DejaVuSans-65"/>
     <use x="582.666016" xlink:href="#DejaVuSans-73"/>
    </g>
   </g>
   <g id="text_19">
    <!-- v2.4 -->
    <g style="fill:#808080;" transform="translate(183.733063 290.099912)scale(0.1 -0.1)">
     <use xlink:href="#DejaVuSans-76"/>
     <use x="59.179688" xlink:href="#DejaVuSans-32"/>
     <use x="122.802734" xlink:href="#DejaVuSans-2e"/>
     <use x="154.589844" xlink:href="#DejaVuSans-34"/>
    </g>
   </g>
   <g id="text_20">
    <!-- 4 Skew Rastrigin-Bueche separ -->
    <defs>
     <path d="M 9.078125 75.984375 
L 18.109375 75.984375 
L 18.109375 31.109375 
L 44.921875 54.6875 
L 56.390625 54.6875 
L 27.390625 29.109375 
L 57.625 0 
L 45.90625 0 
L 18.109375 26.703125 
L 18.109375 0 
L 9.078125 0 
z
" id="DejaVuSans-6b"/>
     <path d="M 4.203125 54.6875 
L 13.1875 54.6875 
L 24.421875 12.015625 
L 35.59375 54.6875 
L 46.1875 54.6875 
L 57.421875 12.015625 
L 68.609375 54.6875 
L 77.59375 54.6875 
L 63.28125 0 
L 52.6875 0 
L 40.921875 44.828125 
L 29.109375 0 
L 18.5 0 
z
" id="DejaVuSans-77"/>
     <path d="M 54.890625 33.015625 
L 54.890625 0 
L 45.90625 0 
L 45.90625 32.71875 
Q 45.90625 40.484375 42.875 44.328125 
Q 39.84375 48.1875 33.796875 48.1875 
Q 26.515625 48.1875 22.3125 43.546875 
Q 18.109375 38.921875 18.109375 30.90625 
L 18.109375 0 
L 9.078125 0 
L 9.078125 75.984375 
L 18.109375 75.984375 
L 18.109375 46.1875 
Q 21.34375 51.125 25.703125 53.5625 
Q 30.078125 56 35.796875 56 
Q 45.21875 56 50.046875 50.171875 
Q 54.890625 44.34375 54.890625 33.015625 
z
" id="DejaVuSans-68"/>
    </defs>
    <g transform="translate(38.8315 18.84)scale(0.2 -0.2)">
     <use xlink:href="#DejaVuSans-34"/>
     <use x="63.623047" xlink:href="#DejaVuSans-20"/>
     <use x="95.410156" xlink:href="#DejaVuSans-53"/>
     <use x="158.886719" xlink:href="#DejaVuSans-6b"/>
     <use x="216.75" xlink:href="#DejaVuSans-65"/>
     <use x="278.273438" xlink:href="#DejaVuSans-77"/>
     <use x="360.060547" xlink:href="#DejaVuSans-20"/>
     <use x="391.847656" xlink:href="#DejaVuSans-52"/>
     <use x="461.298828" xlink:href="#DejaVuSans-61"/>
     <use x="522.578125" xlink:href="#DejaVuSans-73"/>
     <use x="574.677734" xlink:href="#DejaVuSans-74"/>
     <use x="613.886719" xlink:href="#DejaVuSans-72"/>
     <use x="655" xlink:href="#DejaVuSans-69"/>
     <use x="682.783203" xlink:href="#DejaVuSans-67"/>
     <use x="746.259766" xlink:href="#DejaVuSans-69"/>
     <use x="774.042969" xlink:href="#DejaVuSans-6e"/>
     <use x="837.421875" xlink:href="#DejaVuSans-2d"/>
     <use x="873.458984" xlink:href="#DejaVuSans-42"/>
     <use x="942.0625" xlink:href="#DejaVuSans-75"/>
     <use x="1005.441406" xlink:href="#DejaVuSans-65"/>
     <use x="1066.964844" xlink:href="#DejaVuSans-63"/>
     <use x="1121.945312" xlink:href="#DejaVuSans-68"/>
     <use x="1185.324219" xlink:href="#DejaVuSans-65"/>
     <use x="1246.847656" xlink:href="#DejaVuSans-20"/>
     <use x="1278.634766" xlink:href="#DejaVuSans-73"/>
     <use x="1330.734375" xlink:href="#DejaVuSans-65"/>
     <use x="1392.257812" xlink:href="#DejaVuSans-70"/>
     <use x="1455.734375" xlink:href="#DejaVuSans-61"/>
     <use x="1517.013672" xlink:href="#DejaVuSans-72"/>
    </g>
   </g>
  </g>
 </g>
 <defs>
  <clipPath id="pd72df616e1">
   <rect height="270.04" width="277.048" x="56.12" y="24.84"/>
  </clipPath>
 </defs>
</svg>
