<?xml version="1.0" encoding="utf-8" standalone="no"?>
<!DOCTYPE svg PUBLIC "-//W3C//DTD SVG 1.1//EN"
  "http://www.w3.org/Graphics/SVG/1.1/DTD/svg11.dtd">
<!-- Created with matplotlib (http://matplotlib.org/) -->
<svg height="345.6pt" version="1.1" viewBox="0 0 460.8 345.6" width="460.8pt" xmlns="http://www.w3.org/2000/svg" xmlns:xlink="http://www.w3.org/1999/xlink">
 <defs>
  <style type="text/css">
*{stroke-linecap:butt;stroke-linejoin:round;}
  </style>
 </defs>
 <g id="figure_1">
  <g id="patch_1">
   <path d="M 0 345.6 
L 460.8 345.6 
L 460.8 0 
L 0 0 
z
" style="fill:#ffffff;"/>
  </g>
  <g id="axes_1">
   <g id="patch_2">
    <path d="M 56.12 294.88 
L 333.168 294.88 
L 333.168 24.84 
L 56.12 24.84 
z
" style="fill:#ffffff;"/>
   </g>
   <g id="line2d_1">
    <path d="M 28.455965 294.88 
L 28.455965 289.637523 
L 75.003641 289.637523 
L 75.003641 284.395046 
L 90.522701 284.395046 
L 90.522701 279.152568 
L 110.457504 279.152568 
L 110.457504 273.910091 
L 140.862496 273.910091 
L 140.862496 268.667614 
L 155.504275 268.667614 
L 155.504275 263.425137 
L 175.956664 263.425137 
L 175.956664 258.18266 
L 190.566095 258.18266 
L 190.566095 252.940182 
L 205.42551 252.940182 
L 205.42551 247.697705 
L 225.718082 247.697705 
L 225.718082 242.455228 
L 239.617731 242.455228 
L 239.617731 237.212751 
L 247.372203 237.212751 
L 247.372203 231.970274 
L 247.381104 231.970274 
L 247.381104 226.727797 
L 254.542418 226.727797 
L 254.542418 221.485319 
L 254.542685 221.485319 
L 254.542685 216.242842 
L 297.718212 216.242842 
L 297.718212 211.000365 
L 297.754042 211.000365 
L 297.754042 205.757888 
L 297.765316 205.757888 
L 297.765316 200.515411 
L 300.913621 200.515411 
L 300.913621 195.272933 
L 304.753236 195.272933 
L 304.753236 190.030456 
L 304.770739 190.030456 
L 304.770739 184.787979 
L 304.782922 184.787979 
L 304.782922 179.545502 
L 304.798525 179.545502 
L 304.798525 174.303025 
L 304.802137 174.303025 
L 304.802137 169.060547 
L 304.803555 169.060547 
L 304.803555 163.81807 
L 304.835319 163.81807 
L 304.835319 158.575593 
L 304.836563 158.575593 
L 304.836563 153.333116 
L 304.840109 153.333116 
L 304.840109 148.090639 
L 304.841485 148.090639 
L 304.841485 142.848162 
L 304.841749 142.848162 
L 304.841749 137.605684 
L 304.842451 137.605684 
L 304.842451 132.363207 
L 304.842834 132.363207 
L 304.842834 127.12073 
L 309.788001 127.12073 
L 309.788001 121.878253 
L 309.788672 121.878253 
L 309.788672 116.635776 
L 309.788699 116.635776 
L 309.788699 111.393298 
L 309.789344 111.393298 
L 309.789344 106.150821 
L 309.789477 106.150821 
L 309.789477 100.908344 
L 309.789856 100.908344 
L 309.789856 95.665867 
L 309.790625 95.665867 
L 309.790625 90.42339 
L 309.790832 90.42339 
L 309.790832 85.180912 
L 309.791055 85.180912 
L 309.791055 79.938435 
L 309.791569 79.938435 
L 309.791569 74.695958 
L 309.791919 74.695958 
L 309.791919 69.453481 
L 309.791971 69.453481 
L 309.791971 64.211004 
L 309.793289 64.211004 
L 309.793289 58.968526 
L 309.793629 58.968526 
L 309.793629 53.726049 
L 309.793839 53.726049 
L 309.793839 48.483572 
L 309.794343 48.483572 
L 309.794343 43.241095 
L 309.794728 43.241095 
L 309.794728 37.998618 
L 309.795042 37.998618 
L 309.795042 32.756141 
L 309.795296 32.756141 
L 309.795296 27.513663 
L 333.168 27.513663 
" style="fill:none;stroke:#f5deb3;stroke-linecap:square;stroke-width:4;"/>
   </g>
   <g id="line2d_2">
    <defs>
     <path d="M -0 7.778175 
L 7.778175 0 
L 0 -7.778175 
L -7.778175 -0 
z
" id="m856bdce563" style="stroke:#f5deb3;stroke-linejoin:miter;stroke-width:1.5;"/>
    </defs>
    <g>
     <use style="fill:#f5deb3;stroke:#f5deb3;stroke-linejoin:miter;stroke-width:1.5;" x="155.504275" xlink:href="#m856bdce563" y="268.667614"/>
     <use style="fill:#f5deb3;stroke:#f5deb3;stroke-linejoin:miter;stroke-width:1.5;" x="247.381104" xlink:href="#m856bdce563" y="226.727797"/>
     <use style="fill:#f5deb3;stroke:#f5deb3;stroke-linejoin:miter;stroke-width:1.5;" x="304.842834" xlink:href="#m856bdce563" y="127.12073"/>
     <use style="fill:#f5deb3;stroke:#f5deb3;stroke-linejoin:miter;stroke-width:1.5;" x="309.795042" xlink:href="#m856bdce563" y="37.998618"/>
     <use style="fill:#f5deb3;stroke:#f5deb3;stroke-linejoin:miter;stroke-width:1.5;" x="309.795296" xlink:href="#m856bdce563" y="27.513663"/>
     <use style="fill:#f5deb3;stroke:#f5deb3;stroke-linejoin:miter;stroke-width:1.5;" x="333.168" xlink:href="#m856bdce563" y="27.513663"/>
    </g>
   </g>
   <g id="line2d_3">
    <path style="fill:none;stroke:#f5deb3;stroke-linecap:square;stroke-width:4;"/>
    <g/>
   </g>
   <g id="line2d_4">
    <path d="M 333.168 27.513663 
L 363.64328 32.86099 
" style="fill:none;stroke:#f5deb3;stroke-linecap:square;stroke-width:4;"/>
    <g>
     <use style="fill:#f5deb3;stroke:#f5deb3;stroke-linejoin:miter;stroke-width:1.5;" x="333.168" xlink:href="#m856bdce563" y="27.513663"/>
     <use style="fill:#f5deb3;stroke:#f5deb3;stroke-linejoin:miter;stroke-width:1.5;" x="363.64328" xlink:href="#m856bdce563" y="32.86099"/>
    </g>
   </g>
   <g id="matplotlib.axis_1">
    <g id="xtick_1">
     <g id="line2d_5">
      <path clip-path="url(#pac9686bb41)" d="M 56.12 294.88 
L 56.12 24.84 
" style="fill:none;stroke:#b0b0b0;stroke-linecap:square;stroke-width:0.8;"/>
     </g>
     <g id="line2d_6">
      <defs>
       <path d="M 0 0 
L 0 3.5 
" id="me3a87ee145" style="stroke:#000000;stroke-width:0.8;"/>
      </defs>
      <g>
       <use style="stroke:#000000;stroke-width:0.8;" x="56.12" xlink:href="#me3a87ee145" y="294.88"/>
      </g>
     </g>
     <g id="text_1">
      <!-- 0 -->
      <defs>
       <path d="M 31.78125 66.40625 
Q 24.171875 66.40625 20.328125 58.90625 
Q 16.5 51.421875 16.5 36.375 
Q 16.5 21.390625 20.328125 13.890625 
Q 24.171875 6.390625 31.78125 6.390625 
Q 39.453125 6.390625 43.28125 13.890625 
Q 47.125 21.390625 47.125 36.375 
Q 47.125 51.421875 43.28125 58.90625 
Q 39.453125 66.40625 31.78125 66.40625 
z
M 31.78125 74.21875 
Q 44.046875 74.21875 50.515625 64.515625 
Q 56.984375 54.828125 56.984375 36.375 
Q 56.984375 17.96875 50.515625 8.265625 
Q 44.046875 -1.421875 31.78125 -1.421875 
Q 19.53125 -1.421875 13.0625 8.265625 
Q 6.59375 17.96875 6.59375 36.375 
Q 6.59375 54.828125 13.0625 64.515625 
Q 19.53125 74.21875 31.78125 74.21875 
z
" id="DejaVuSans-30"/>
      </defs>
      <g transform="translate(49.7575 317.076875)scale(0.2 -0.2)">
       <use xlink:href="#DejaVuSans-30"/>
      </g>
     </g>
    </g>
    <g id="xtick_2">
     <g id="line2d_7">
      <path clip-path="url(#pac9686bb41)" d="M 135.276571 294.88 
L 135.276571 24.84 
" style="fill:none;stroke:#b0b0b0;stroke-linecap:square;stroke-width:0.8;"/>
     </g>
     <g id="line2d_8">
      <g>
       <use style="stroke:#000000;stroke-width:0.8;" x="135.276571" xlink:href="#me3a87ee145" y="294.88"/>
      </g>
     </g>
     <g id="text_2">
      <!-- 2 -->
      <defs>
       <path d="M 19.1875 8.296875 
L 53.609375 8.296875 
L 53.609375 0 
L 7.328125 0 
L 7.328125 8.296875 
Q 12.9375 14.109375 22.625 23.890625 
Q 32.328125 33.6875 34.8125 36.53125 
Q 39.546875 41.84375 41.421875 45.53125 
Q 43.3125 49.21875 43.3125 52.78125 
Q 43.3125 58.59375 39.234375 62.25 
Q 35.15625 65.921875 28.609375 65.921875 
Q 23.96875 65.921875 18.8125 64.3125 
Q 13.671875 62.703125 7.8125 59.421875 
L 7.8125 69.390625 
Q 13.765625 71.78125 18.9375 73 
Q 24.125 74.21875 28.421875 74.21875 
Q 39.75 74.21875 46.484375 68.546875 
Q 53.21875 62.890625 53.21875 53.421875 
Q 53.21875 48.921875 51.53125 44.890625 
Q 49.859375 40.875 45.40625 35.40625 
Q 44.1875 33.984375 37.640625 27.21875 
Q 31.109375 20.453125 19.1875 8.296875 
z
" id="DejaVuSans-32"/>
      </defs>
      <g transform="translate(128.914071 317.076875)scale(0.2 -0.2)">
       <use xlink:href="#DejaVuSans-32"/>
      </g>
     </g>
    </g>
    <g id="xtick_3">
     <g id="line2d_9">
      <path clip-path="url(#pac9686bb41)" d="M 214.433143 294.88 
L 214.433143 24.84 
" style="fill:none;stroke:#b0b0b0;stroke-linecap:square;stroke-width:0.8;"/>
     </g>
     <g id="line2d_10">
      <g>
       <use style="stroke:#000000;stroke-width:0.8;" x="214.433143" xlink:href="#me3a87ee145" y="294.88"/>
      </g>
     </g>
     <g id="text_3">
      <!-- 4 -->
      <defs>
       <path d="M 37.796875 64.3125 
L 12.890625 25.390625 
L 37.796875 25.390625 
z
M 35.203125 72.90625 
L 47.609375 72.90625 
L 47.609375 25.390625 
L 58.015625 25.390625 
L 58.015625 17.1875 
L 47.609375 17.1875 
L 47.609375 0 
L 37.796875 0 
L 37.796875 17.1875 
L 4.890625 17.1875 
L 4.890625 26.703125 
z
" id="DejaVuSans-34"/>
      </defs>
      <g transform="translate(208.070643 317.076875)scale(0.2 -0.2)">
       <use xlink:href="#DejaVuSans-34"/>
      </g>
     </g>
    </g>
    <g id="xtick_4">
     <g id="line2d_11">
      <path clip-path="url(#pac9686bb41)" d="M 293.589714 294.88 
L 293.589714 24.84 
" style="fill:none;stroke:#b0b0b0;stroke-linecap:square;stroke-width:0.8;"/>
     </g>
     <g id="line2d_12">
      <g>
       <use style="stroke:#000000;stroke-width:0.8;" x="293.589714" xlink:href="#me3a87ee145" y="294.88"/>
      </g>
     </g>
     <g id="text_4">
      <!-- 6 -->
      <defs>
       <path d="M 33.015625 40.375 
Q 26.375 40.375 22.484375 35.828125 
Q 18.609375 31.296875 18.609375 23.390625 
Q 18.609375 15.53125 22.484375 10.953125 
Q 26.375 6.390625 33.015625 6.390625 
Q 39.65625 6.390625 43.53125 10.953125 
Q 47.40625 15.53125 47.40625 23.390625 
Q 47.40625 31.296875 43.53125 35.828125 
Q 39.65625 40.375 33.015625 40.375 
z
M 52.59375 71.296875 
L 52.59375 62.3125 
Q 48.875 64.0625 45.09375 64.984375 
Q 41.3125 65.921875 37.59375 65.921875 
Q 27.828125 65.921875 22.671875 59.328125 
Q 17.53125 52.734375 16.796875 39.40625 
Q 19.671875 43.65625 24.015625 45.921875 
Q 28.375 48.1875 33.59375 48.1875 
Q 44.578125 48.1875 50.953125 41.515625 
Q 57.328125 34.859375 57.328125 23.390625 
Q 57.328125 12.15625 50.6875 5.359375 
Q 44.046875 -1.421875 33.015625 -1.421875 
Q 20.359375 -1.421875 13.671875 8.265625 
Q 6.984375 17.96875 6.984375 36.375 
Q 6.984375 53.65625 15.1875 63.9375 
Q 23.390625 74.21875 37.203125 74.21875 
Q 40.921875 74.21875 44.703125 73.484375 
Q 48.484375 72.75 52.59375 71.296875 
z
" id="DejaVuSans-36"/>
      </defs>
      <g transform="translate(287.227214 317.076875)scale(0.2 -0.2)">
       <use xlink:href="#DejaVuSans-36"/>
      </g>
     </g>
    </g>
    <g id="xtick_5">
     <g id="line2d_13">
      <path clip-path="url(#pac9686bb41)" d="M 56.12 294.88 
L 56.12 24.84 
" style="fill:none;stroke:#b0b0b0;stroke-linecap:square;stroke-width:0.8;"/>
     </g>
     <g id="line2d_14">
      <defs>
       <path d="M 0 0 
L 0 2 
" id="mf0f162fc8a" style="stroke:#000000;stroke-width:0.6;"/>
      </defs>
      <g>
       <use style="stroke:#000000;stroke-width:0.6;" x="56.12" xlink:href="#mf0f162fc8a" y="294.88"/>
      </g>
     </g>
    </g>
    <g id="xtick_6">
     <g id="line2d_15">
      <path clip-path="url(#pac9686bb41)" d="M 95.698286 294.88 
L 95.698286 24.84 
" style="fill:none;stroke:#b0b0b0;stroke-linecap:square;stroke-width:0.8;"/>
     </g>
     <g id="line2d_16">
      <g>
       <use style="stroke:#000000;stroke-width:0.6;" x="95.698286" xlink:href="#mf0f162fc8a" y="294.88"/>
      </g>
     </g>
    </g>
    <g id="xtick_7">
     <g id="line2d_17">
      <path clip-path="url(#pac9686bb41)" d="M 135.276571 294.88 
L 135.276571 24.84 
" style="fill:none;stroke:#b0b0b0;stroke-linecap:square;stroke-width:0.8;"/>
     </g>
     <g id="line2d_18">
      <g>
       <use style="stroke:#000000;stroke-width:0.6;" x="135.276571" xlink:href="#mf0f162fc8a" y="294.88"/>
      </g>
     </g>
    </g>
    <g id="xtick_8">
     <g id="line2d_19">
      <path clip-path="url(#pac9686bb41)" d="M 174.854857 294.88 
L 174.854857 24.84 
" style="fill:none;stroke:#b0b0b0;stroke-linecap:square;stroke-width:0.8;"/>
     </g>
     <g id="line2d_20">
      <g>
       <use style="stroke:#000000;stroke-width:0.6;" x="174.854857" xlink:href="#mf0f162fc8a" y="294.88"/>
      </g>
     </g>
    </g>
    <g id="xtick_9">
     <g id="line2d_21">
      <path clip-path="url(#pac9686bb41)" d="M 214.433143 294.88 
L 214.433143 24.84 
" style="fill:none;stroke:#b0b0b0;stroke-linecap:square;stroke-width:0.8;"/>
     </g>
     <g id="line2d_22">
      <g>
       <use style="stroke:#000000;stroke-width:0.6;" x="214.433143" xlink:href="#mf0f162fc8a" y="294.88"/>
      </g>
     </g>
    </g>
    <g id="xtick_10">
     <g id="line2d_23">
      <path clip-path="url(#pac9686bb41)" d="M 254.011429 294.88 
L 254.011429 24.84 
" style="fill:none;stroke:#b0b0b0;stroke-linecap:square;stroke-width:0.8;"/>
     </g>
     <g id="line2d_24">
      <g>
       <use style="stroke:#000000;stroke-width:0.6;" x="254.011429" xlink:href="#mf0f162fc8a" y="294.88"/>
      </g>
     </g>
    </g>
    <g id="xtick_11">
     <g id="line2d_25">
      <path clip-path="url(#pac9686bb41)" d="M 293.589714 294.88 
L 293.589714 24.84 
" style="fill:none;stroke:#b0b0b0;stroke-linecap:square;stroke-width:0.8;"/>
     </g>
     <g id="line2d_26">
      <g>
       <use style="stroke:#000000;stroke-width:0.6;" x="293.589714" xlink:href="#mf0f162fc8a" y="294.88"/>
      </g>
     </g>
    </g>
    <g id="xtick_12">
     <g id="line2d_27">
      <path clip-path="url(#pac9686bb41)" d="M 333.168 294.88 
L 333.168 24.84 
" style="fill:none;stroke:#b0b0b0;stroke-linecap:square;stroke-width:0.8;"/>
     </g>
     <g id="line2d_28">
      <g>
       <use style="stroke:#000000;stroke-width:0.6;" x="333.168" xlink:href="#mf0f162fc8a" y="294.88"/>
      </g>
     </g>
    </g>
    <g id="text_5">
     <!-- log10(# f-evals / dimension) -->
     <defs>
      <path d="M 9.421875 75.984375 
L 18.40625 75.984375 
L 18.40625 0 
L 9.421875 0 
z
" id="DejaVuSans-6c"/>
      <path d="M 30.609375 48.390625 
Q 23.390625 48.390625 19.1875 42.75 
Q 14.984375 37.109375 14.984375 27.296875 
Q 14.984375 17.484375 19.15625 11.84375 
Q 23.34375 6.203125 30.609375 6.203125 
Q 37.796875 6.203125 41.984375 11.859375 
Q 46.1875 17.53125 46.1875 27.296875 
Q 46.1875 37.015625 41.984375 42.703125 
Q 37.796875 48.390625 30.609375 48.390625 
z
M 30.609375 56 
Q 42.328125 56 49.015625 48.375 
Q 55.71875 40.765625 55.71875 27.296875 
Q 55.71875 13.875 49.015625 6.21875 
Q 42.328125 -1.421875 30.609375 -1.421875 
Q 18.84375 -1.421875 12.171875 6.21875 
Q 5.515625 13.875 5.515625 27.296875 
Q 5.515625 40.765625 12.171875 48.375 
Q 18.84375 56 30.609375 56 
z
" id="DejaVuSans-6f"/>
      <path d="M 45.40625 27.984375 
Q 45.40625 37.75 41.375 43.109375 
Q 37.359375 48.484375 30.078125 48.484375 
Q 22.859375 48.484375 18.828125 43.109375 
Q 14.796875 37.75 14.796875 27.984375 
Q 14.796875 18.265625 18.828125 12.890625 
Q 22.859375 7.515625 30.078125 7.515625 
Q 37.359375 7.515625 41.375 12.890625 
Q 45.40625 18.265625 45.40625 27.984375 
z
M 54.390625 6.78125 
Q 54.390625 -7.171875 48.1875 -13.984375 
Q 42 -20.796875 29.203125 -20.796875 
Q 24.46875 -20.796875 20.265625 -20.09375 
Q 16.0625 -19.390625 12.109375 -17.921875 
L 12.109375 -9.1875 
Q 16.0625 -11.328125 19.921875 -12.34375 
Q 23.78125 -13.375 27.78125 -13.375 
Q 36.625 -13.375 41.015625 -8.765625 
Q 45.40625 -4.15625 45.40625 5.171875 
L 45.40625 9.625 
Q 42.625 4.78125 38.28125 2.390625 
Q 33.9375 0 27.875 0 
Q 17.828125 0 11.671875 7.65625 
Q 5.515625 15.328125 5.515625 27.984375 
Q 5.515625 40.671875 11.671875 48.328125 
Q 17.828125 56 27.875 56 
Q 33.9375 56 38.28125 53.609375 
Q 42.625 51.21875 45.40625 46.390625 
L 45.40625 54.6875 
L 54.390625 54.6875 
z
" id="DejaVuSans-67"/>
      <path d="M 12.40625 8.296875 
L 28.515625 8.296875 
L 28.515625 63.921875 
L 10.984375 60.40625 
L 10.984375 69.390625 
L 28.421875 72.90625 
L 38.28125 72.90625 
L 38.28125 8.296875 
L 54.390625 8.296875 
L 54.390625 0 
L 12.40625 0 
z
" id="DejaVuSans-31"/>
      <path d="M 31 75.875 
Q 24.46875 64.65625 21.28125 53.65625 
Q 18.109375 42.671875 18.109375 31.390625 
Q 18.109375 20.125 21.3125 9.0625 
Q 24.515625 -2 31 -13.1875 
L 23.1875 -13.1875 
Q 15.875 -1.703125 12.234375 9.375 
Q 8.59375 20.453125 8.59375 31.390625 
Q 8.59375 42.28125 12.203125 53.3125 
Q 15.828125 64.359375 23.1875 75.875 
z
" id="DejaVuSans-28"/>
      <path d="M 51.125 44 
L 36.921875 44 
L 32.8125 27.6875 
L 47.125 27.6875 
z
M 43.796875 71.78125 
L 38.71875 51.515625 
L 52.984375 51.515625 
L 58.109375 71.78125 
L 65.921875 71.78125 
L 60.890625 51.515625 
L 76.125 51.515625 
L 76.125 44 
L 58.984375 44 
L 54.984375 27.6875 
L 70.515625 27.6875 
L 70.515625 20.21875 
L 53.078125 20.21875 
L 48 0 
L 40.1875 0 
L 45.21875 20.21875 
L 30.90625 20.21875 
L 25.875 0 
L 18.015625 0 
L 23.09375 20.21875 
L 7.71875 20.21875 
L 7.71875 27.6875 
L 24.90625 27.6875 
L 29 44 
L 13.28125 44 
L 13.28125 51.515625 
L 30.90625 51.515625 
L 35.890625 71.78125 
z
" id="DejaVuSans-23"/>
      <path id="DejaVuSans-20"/>
      <path d="M 37.109375 75.984375 
L 37.109375 68.5 
L 28.515625 68.5 
Q 23.6875 68.5 21.796875 66.546875 
Q 19.921875 64.59375 19.921875 59.515625 
L 19.921875 54.6875 
L 34.71875 54.6875 
L 34.71875 47.703125 
L 19.921875 47.703125 
L 19.921875 0 
L 10.890625 0 
L 10.890625 47.703125 
L 2.296875 47.703125 
L 2.296875 54.6875 
L 10.890625 54.6875 
L 10.890625 58.5 
Q 10.890625 67.625 15.140625 71.796875 
Q 19.390625 75.984375 28.609375 75.984375 
z
" id="DejaVuSans-66"/>
      <path d="M 4.890625 31.390625 
L 31.203125 31.390625 
L 31.203125 23.390625 
L 4.890625 23.390625 
z
" id="DejaVuSans-2d"/>
      <path d="M 56.203125 29.59375 
L 56.203125 25.203125 
L 14.890625 25.203125 
Q 15.484375 15.921875 20.484375 11.0625 
Q 25.484375 6.203125 34.421875 6.203125 
Q 39.59375 6.203125 44.453125 7.46875 
Q 49.3125 8.734375 54.109375 11.28125 
L 54.109375 2.78125 
Q 49.265625 0.734375 44.1875 -0.34375 
Q 39.109375 -1.421875 33.890625 -1.421875 
Q 20.796875 -1.421875 13.15625 6.1875 
Q 5.515625 13.8125 5.515625 26.8125 
Q 5.515625 40.234375 12.765625 48.109375 
Q 20.015625 56 32.328125 56 
Q 43.359375 56 49.78125 48.890625 
Q 56.203125 41.796875 56.203125 29.59375 
z
M 47.21875 32.234375 
Q 47.125 39.59375 43.09375 43.984375 
Q 39.0625 48.390625 32.421875 48.390625 
Q 24.90625 48.390625 20.390625 44.140625 
Q 15.875 39.890625 15.1875 32.171875 
z
" id="DejaVuSans-65"/>
      <path d="M 2.984375 54.6875 
L 12.5 54.6875 
L 29.59375 8.796875 
L 46.6875 54.6875 
L 56.203125 54.6875 
L 35.6875 0 
L 23.484375 0 
z
" id="DejaVuSans-76"/>
      <path d="M 34.28125 27.484375 
Q 23.390625 27.484375 19.1875 25 
Q 14.984375 22.515625 14.984375 16.5 
Q 14.984375 11.71875 18.140625 8.90625 
Q 21.296875 6.109375 26.703125 6.109375 
Q 34.1875 6.109375 38.703125 11.40625 
Q 43.21875 16.703125 43.21875 25.484375 
L 43.21875 27.484375 
z
M 52.203125 31.203125 
L 52.203125 0 
L 43.21875 0 
L 43.21875 8.296875 
Q 40.140625 3.328125 35.546875 0.953125 
Q 30.953125 -1.421875 24.3125 -1.421875 
Q 15.921875 -1.421875 10.953125 3.296875 
Q 6 8.015625 6 15.921875 
Q 6 25.140625 12.171875 29.828125 
Q 18.359375 34.515625 30.609375 34.515625 
L 43.21875 34.515625 
L 43.21875 35.40625 
Q 43.21875 41.609375 39.140625 45 
Q 35.0625 48.390625 27.6875 48.390625 
Q 23 48.390625 18.546875 47.265625 
Q 14.109375 46.140625 10.015625 43.890625 
L 10.015625 52.203125 
Q 14.9375 54.109375 19.578125 55.046875 
Q 24.21875 56 28.609375 56 
Q 40.484375 56 46.34375 49.84375 
Q 52.203125 43.703125 52.203125 31.203125 
z
" id="DejaVuSans-61"/>
      <path d="M 44.28125 53.078125 
L 44.28125 44.578125 
Q 40.484375 46.53125 36.375 47.5 
Q 32.28125 48.484375 27.875 48.484375 
Q 21.1875 48.484375 17.84375 46.4375 
Q 14.5 44.390625 14.5 40.28125 
Q 14.5 37.15625 16.890625 35.375 
Q 19.28125 33.59375 26.515625 31.984375 
L 29.59375 31.296875 
Q 39.15625 29.25 43.1875 25.515625 
Q 47.21875 21.78125 47.21875 15.09375 
Q 47.21875 7.46875 41.1875 3.015625 
Q 35.15625 -1.421875 24.609375 -1.421875 
Q 20.21875 -1.421875 15.453125 -0.5625 
Q 10.6875 0.296875 5.421875 2 
L 5.421875 11.28125 
Q 10.40625 8.6875 15.234375 7.390625 
Q 20.0625 6.109375 24.8125 6.109375 
Q 31.15625 6.109375 34.5625 8.28125 
Q 37.984375 10.453125 37.984375 14.40625 
Q 37.984375 18.0625 35.515625 20.015625 
Q 33.0625 21.96875 24.703125 23.78125 
L 21.578125 24.515625 
Q 13.234375 26.265625 9.515625 29.90625 
Q 5.8125 33.546875 5.8125 39.890625 
Q 5.8125 47.609375 11.28125 51.796875 
Q 16.75 56 26.8125 56 
Q 31.78125 56 36.171875 55.265625 
Q 40.578125 54.546875 44.28125 53.078125 
z
" id="DejaVuSans-73"/>
      <path d="M 25.390625 72.90625 
L 33.6875 72.90625 
L 8.296875 -9.28125 
L 0 -9.28125 
z
" id="DejaVuSans-2f"/>
      <path d="M 45.40625 46.390625 
L 45.40625 75.984375 
L 54.390625 75.984375 
L 54.390625 0 
L 45.40625 0 
L 45.40625 8.203125 
Q 42.578125 3.328125 38.25 0.953125 
Q 33.9375 -1.421875 27.875 -1.421875 
Q 17.96875 -1.421875 11.734375 6.484375 
Q 5.515625 14.40625 5.515625 27.296875 
Q 5.515625 40.1875 11.734375 48.09375 
Q 17.96875 56 27.875 56 
Q 33.9375 56 38.25 53.625 
Q 42.578125 51.265625 45.40625 46.390625 
z
M 14.796875 27.296875 
Q 14.796875 17.390625 18.875 11.75 
Q 22.953125 6.109375 30.078125 6.109375 
Q 37.203125 6.109375 41.296875 11.75 
Q 45.40625 17.390625 45.40625 27.296875 
Q 45.40625 37.203125 41.296875 42.84375 
Q 37.203125 48.484375 30.078125 48.484375 
Q 22.953125 48.484375 18.875 42.84375 
Q 14.796875 37.203125 14.796875 27.296875 
z
" id="DejaVuSans-64"/>
      <path d="M 9.421875 54.6875 
L 18.40625 54.6875 
L 18.40625 0 
L 9.421875 0 
z
M 9.421875 75.984375 
L 18.40625 75.984375 
L 18.40625 64.59375 
L 9.421875 64.59375 
z
" id="DejaVuSans-69"/>
      <path d="M 52 44.1875 
Q 55.375 50.25 60.0625 53.125 
Q 64.75 56 71.09375 56 
Q 79.640625 56 84.28125 50.015625 
Q 88.921875 44.046875 88.921875 33.015625 
L 88.921875 0 
L 79.890625 0 
L 79.890625 32.71875 
Q 79.890625 40.578125 77.09375 44.375 
Q 74.3125 48.1875 68.609375 48.1875 
Q 61.625 48.1875 57.5625 43.546875 
Q 53.515625 38.921875 53.515625 30.90625 
L 53.515625 0 
L 44.484375 0 
L 44.484375 32.71875 
Q 44.484375 40.625 41.703125 44.40625 
Q 38.921875 48.1875 33.109375 48.1875 
Q 26.21875 48.1875 22.15625 43.53125 
Q 18.109375 38.875 18.109375 30.90625 
L 18.109375 0 
L 9.078125 0 
L 9.078125 54.6875 
L 18.109375 54.6875 
L 18.109375 46.1875 
Q 21.1875 51.21875 25.484375 53.609375 
Q 29.78125 56 35.6875 56 
Q 41.65625 56 45.828125 52.96875 
Q 50 49.953125 52 44.1875 
z
" id="DejaVuSans-6d"/>
      <path d="M 54.890625 33.015625 
L 54.890625 0 
L 45.90625 0 
L 45.90625 32.71875 
Q 45.90625 40.484375 42.875 44.328125 
Q 39.84375 48.1875 33.796875 48.1875 
Q 26.515625 48.1875 22.3125 43.546875 
Q 18.109375 38.921875 18.109375 30.90625 
L 18.109375 0 
L 9.078125 0 
L 9.078125 54.6875 
L 18.109375 54.6875 
L 18.109375 46.1875 
Q 21.34375 51.125 25.703125 53.5625 
Q 30.078125 56 35.796875 56 
Q 45.21875 56 50.046875 50.171875 
Q 54.890625 44.34375 54.890625 33.015625 
z
" id="DejaVuSans-6e"/>
      <path d="M 8.015625 75.875 
L 15.828125 75.875 
Q 23.140625 64.359375 26.78125 53.3125 
Q 30.421875 42.28125 30.421875 31.390625 
Q 30.421875 20.453125 26.78125 9.375 
Q 23.140625 -1.703125 15.828125 -13.1875 
L 8.015625 -13.1875 
Q 14.5 -2 17.703125 9.0625 
Q 20.90625 20.125 20.90625 31.390625 
Q 20.90625 42.671875 17.703125 53.65625 
Q 14.5 64.65625 8.015625 75.875 
z
" id="DejaVuSans-29"/>
     </defs>
     <g transform="translate(73.803219 338.153594)scale(0.17 -0.17)">
      <use xlink:href="#DejaVuSans-6c"/>
      <use x="27.783203" xlink:href="#DejaVuSans-6f"/>
      <use x="88.964844" xlink:href="#DejaVuSans-67"/>
      <use x="152.441406" xlink:href="#DejaVuSans-31"/>
      <use x="216.064453" xlink:href="#DejaVuSans-30"/>
      <use x="279.6875" xlink:href="#DejaVuSans-28"/>
      <use x="318.701172" xlink:href="#DejaVuSans-23"/>
      <use x="402.490234" xlink:href="#DejaVuSans-20"/>
      <use x="434.277344" xlink:href="#DejaVuSans-66"/>
      <use x="469.404297" xlink:href="#DejaVuSans-2d"/>
      <use x="505.488281" xlink:href="#DejaVuSans-65"/>
      <use x="567.011719" xlink:href="#DejaVuSans-76"/>
      <use x="626.191406" xlink:href="#DejaVuSans-61"/>
      <use x="687.470703" xlink:href="#DejaVuSans-6c"/>
      <use x="715.253906" xlink:href="#DejaVuSans-73"/>
      <use x="767.353516" xlink:href="#DejaVuSans-20"/>
      <use x="799.140625" xlink:href="#DejaVuSans-2f"/>
      <use x="832.832031" xlink:href="#DejaVuSans-20"/>
      <use x="864.619141" xlink:href="#DejaVuSans-64"/>
      <use x="928.095703" xlink:href="#DejaVuSans-69"/>
      <use x="955.878906" xlink:href="#DejaVuSans-6d"/>
      <use x="1053.291016" xlink:href="#DejaVuSans-65"/>
      <use x="1114.814453" xlink:href="#DejaVuSans-6e"/>
      <use x="1178.193359" xlink:href="#DejaVuSans-73"/>
      <use x="1230.292969" xlink:href="#DejaVuSans-69"/>
      <use x="1258.076172" xlink:href="#DejaVuSans-6f"/>
      <use x="1319.257812" xlink:href="#DejaVuSans-6e"/>
      <use x="1382.636719" xlink:href="#DejaVuSans-29"/>
     </g>
    </g>
   </g>
   <g id="matplotlib.axis_2">
    <g id="ytick_1">
     <g id="line2d_29">
      <path clip-path="url(#pac9686bb41)" d="M 56.12 294.88 
L 333.168 294.88 
" style="fill:none;stroke:#b0b0b0;stroke-linecap:square;stroke-width:0.8;"/>
     </g>
     <g id="line2d_30">
      <defs>
       <path d="M 0 0 
L -3.5 0 
" id="m895c4090a9" style="stroke:#000000;stroke-width:0.8;"/>
      </defs>
      <g>
       <use style="stroke:#000000;stroke-width:0.8;" x="56.12" xlink:href="#m895c4090a9" y="294.88"/>
      </g>
     </g>
     <g id="text_6">
      <!-- 0.0 -->
      <defs>
       <path d="M 10.6875 12.40625 
L 21 12.40625 
L 21 0 
L 10.6875 0 
z
" id="DejaVuSans-2e"/>
      </defs>
      <g transform="translate(23.675 300.95875)scale(0.16 -0.16)">
       <use xlink:href="#DejaVuSans-30"/>
       <use x="63.623047" xlink:href="#DejaVuSans-2e"/>
       <use x="95.410156" xlink:href="#DejaVuSans-30"/>
      </g>
     </g>
    </g>
    <g id="ytick_2">
     <g id="line2d_31">
      <path clip-path="url(#pac9686bb41)" d="M 56.12 241.406733 
L 333.168 241.406733 
" style="fill:none;stroke:#b0b0b0;stroke-linecap:square;stroke-width:0.8;"/>
     </g>
     <g id="line2d_32">
      <g>
       <use style="stroke:#000000;stroke-width:0.8;" x="56.12" xlink:href="#m895c4090a9" y="241.406733"/>
      </g>
     </g>
     <g id="text_7">
      <!-- 0.2 -->
      <g transform="translate(23.675 247.485483)scale(0.16 -0.16)">
       <use xlink:href="#DejaVuSans-30"/>
       <use x="63.623047" xlink:href="#DejaVuSans-2e"/>
       <use x="95.410156" xlink:href="#DejaVuSans-32"/>
      </g>
     </g>
    </g>
    <g id="ytick_3">
     <g id="line2d_33">
      <path clip-path="url(#pac9686bb41)" d="M 56.12 187.933465 
L 333.168 187.933465 
" style="fill:none;stroke:#b0b0b0;stroke-linecap:square;stroke-width:0.8;"/>
     </g>
     <g id="line2d_34">
      <g>
       <use style="stroke:#000000;stroke-width:0.8;" x="56.12" xlink:href="#m895c4090a9" y="187.933465"/>
      </g>
     </g>
     <g id="text_8">
      <!-- 0.4 -->
      <g transform="translate(23.675 194.012215)scale(0.16 -0.16)">
       <use xlink:href="#DejaVuSans-30"/>
       <use x="63.623047" xlink:href="#DejaVuSans-2e"/>
       <use x="95.410156" xlink:href="#DejaVuSans-34"/>
      </g>
     </g>
    </g>
    <g id="ytick_4">
     <g id="line2d_35">
      <path clip-path="url(#pac9686bb41)" d="M 56.12 134.460198 
L 333.168 134.460198 
" style="fill:none;stroke:#b0b0b0;stroke-linecap:square;stroke-width:0.8;"/>
     </g>
     <g id="line2d_36">
      <g>
       <use style="stroke:#000000;stroke-width:0.8;" x="56.12" xlink:href="#m895c4090a9" y="134.460198"/>
      </g>
     </g>
     <g id="text_9">
      <!-- 0.6 -->
      <g transform="translate(23.675 140.538948)scale(0.16 -0.16)">
       <use xlink:href="#DejaVuSans-30"/>
       <use x="63.623047" xlink:href="#DejaVuSans-2e"/>
       <use x="95.410156" xlink:href="#DejaVuSans-36"/>
      </g>
     </g>
    </g>
    <g id="ytick_5">
     <g id="line2d_37">
      <path clip-path="url(#pac9686bb41)" d="M 56.12 80.986931 
L 333.168 80.986931 
" style="fill:none;stroke:#b0b0b0;stroke-linecap:square;stroke-width:0.8;"/>
     </g>
     <g id="line2d_38">
      <g>
       <use style="stroke:#000000;stroke-width:0.8;" x="56.12" xlink:href="#m895c4090a9" y="80.986931"/>
      </g>
     </g>
     <g id="text_10">
      <!-- 0.8 -->
      <defs>
       <path d="M 31.78125 34.625 
Q 24.75 34.625 20.71875 30.859375 
Q 16.703125 27.09375 16.703125 20.515625 
Q 16.703125 13.921875 20.71875 10.15625 
Q 24.75 6.390625 31.78125 6.390625 
Q 38.8125 6.390625 42.859375 10.171875 
Q 46.921875 13.96875 46.921875 20.515625 
Q 46.921875 27.09375 42.890625 30.859375 
Q 38.875 34.625 31.78125 34.625 
z
M 21.921875 38.8125 
Q 15.578125 40.375 12.03125 44.71875 
Q 8.5 49.078125 8.5 55.328125 
Q 8.5 64.0625 14.71875 69.140625 
Q 20.953125 74.21875 31.78125 74.21875 
Q 42.671875 74.21875 48.875 69.140625 
Q 55.078125 64.0625 55.078125 55.328125 
Q 55.078125 49.078125 51.53125 44.71875 
Q 48 40.375 41.703125 38.8125 
Q 48.828125 37.15625 52.796875 32.3125 
Q 56.78125 27.484375 56.78125 20.515625 
Q 56.78125 9.90625 50.3125 4.234375 
Q 43.84375 -1.421875 31.78125 -1.421875 
Q 19.734375 -1.421875 13.25 4.234375 
Q 6.78125 9.90625 6.78125 20.515625 
Q 6.78125 27.484375 10.78125 32.3125 
Q 14.796875 37.15625 21.921875 38.8125 
z
M 18.3125 54.390625 
Q 18.3125 48.734375 21.84375 45.5625 
Q 25.390625 42.390625 31.78125 42.390625 
Q 38.140625 42.390625 41.71875 45.5625 
Q 45.3125 48.734375 45.3125 54.390625 
Q 45.3125 60.0625 41.71875 63.234375 
Q 38.140625 66.40625 31.78125 66.40625 
Q 25.390625 66.40625 21.84375 63.234375 
Q 18.3125 60.0625 18.3125 54.390625 
z
" id="DejaVuSans-38"/>
      </defs>
      <g transform="translate(23.675 87.065681)scale(0.16 -0.16)">
       <use xlink:href="#DejaVuSans-30"/>
       <use x="63.623047" xlink:href="#DejaVuSans-2e"/>
       <use x="95.410156" xlink:href="#DejaVuSans-38"/>
      </g>
     </g>
    </g>
    <g id="ytick_6">
     <g id="line2d_39">
      <path clip-path="url(#pac9686bb41)" d="M 56.12 27.513663 
L 333.168 27.513663 
" style="fill:none;stroke:#b0b0b0;stroke-linecap:square;stroke-width:0.8;"/>
     </g>
     <g id="line2d_40">
      <g>
       <use style="stroke:#000000;stroke-width:0.8;" x="56.12" xlink:href="#m895c4090a9" y="27.513663"/>
      </g>
     </g>
     <g id="text_11">
      <!-- 1.0 -->
      <g transform="translate(23.675 33.592413)scale(0.16 -0.16)">
       <use xlink:href="#DejaVuSans-31"/>
       <use x="63.623047" xlink:href="#DejaVuSans-2e"/>
       <use x="95.410156" xlink:href="#DejaVuSans-30"/>
      </g>
     </g>
    </g>
    <g id="text_12">
     <!-- Fraction of function,target pairs -->
     <defs>
      <path d="M 9.8125 72.90625 
L 51.703125 72.90625 
L 51.703125 64.59375 
L 19.671875 64.59375 
L 19.671875 43.109375 
L 48.578125 43.109375 
L 48.578125 34.8125 
L 19.671875 34.8125 
L 19.671875 0 
L 9.8125 0 
z
" id="DejaVuSans-46"/>
      <path d="M 41.109375 46.296875 
Q 39.59375 47.171875 37.8125 47.578125 
Q 36.03125 48 33.890625 48 
Q 26.265625 48 22.1875 43.046875 
Q 18.109375 38.09375 18.109375 28.8125 
L 18.109375 0 
L 9.078125 0 
L 9.078125 54.6875 
L 18.109375 54.6875 
L 18.109375 46.1875 
Q 20.953125 51.171875 25.484375 53.578125 
Q 30.03125 56 36.53125 56 
Q 37.453125 56 38.578125 55.875 
Q 39.703125 55.765625 41.0625 55.515625 
z
" id="DejaVuSans-72"/>
      <path d="M 48.78125 52.59375 
L 48.78125 44.1875 
Q 44.96875 46.296875 41.140625 47.34375 
Q 37.3125 48.390625 33.40625 48.390625 
Q 24.65625 48.390625 19.8125 42.84375 
Q 14.984375 37.3125 14.984375 27.296875 
Q 14.984375 17.28125 19.8125 11.734375 
Q 24.65625 6.203125 33.40625 6.203125 
Q 37.3125 6.203125 41.140625 7.25 
Q 44.96875 8.296875 48.78125 10.40625 
L 48.78125 2.09375 
Q 45.015625 0.34375 40.984375 -0.53125 
Q 36.96875 -1.421875 32.421875 -1.421875 
Q 20.0625 -1.421875 12.78125 6.34375 
Q 5.515625 14.109375 5.515625 27.296875 
Q 5.515625 40.671875 12.859375 48.328125 
Q 20.21875 56 33.015625 56 
Q 37.15625 56 41.109375 55.140625 
Q 45.0625 54.296875 48.78125 52.59375 
z
" id="DejaVuSans-63"/>
      <path d="M 18.3125 70.21875 
L 18.3125 54.6875 
L 36.8125 54.6875 
L 36.8125 47.703125 
L 18.3125 47.703125 
L 18.3125 18.015625 
Q 18.3125 11.328125 20.140625 9.421875 
Q 21.96875 7.515625 27.59375 7.515625 
L 36.8125 7.515625 
L 36.8125 0 
L 27.59375 0 
Q 17.1875 0 13.234375 3.875 
Q 9.28125 7.765625 9.28125 18.015625 
L 9.28125 47.703125 
L 2.6875 47.703125 
L 2.6875 54.6875 
L 9.28125 54.6875 
L 9.28125 70.21875 
z
" id="DejaVuSans-74"/>
      <path d="M 8.5 21.578125 
L 8.5 54.6875 
L 17.484375 54.6875 
L 17.484375 21.921875 
Q 17.484375 14.15625 20.5 10.265625 
Q 23.53125 6.390625 29.59375 6.390625 
Q 36.859375 6.390625 41.078125 11.03125 
Q 45.3125 15.671875 45.3125 23.6875 
L 45.3125 54.6875 
L 54.296875 54.6875 
L 54.296875 0 
L 45.3125 0 
L 45.3125 8.40625 
Q 42.046875 3.421875 37.71875 1 
Q 33.40625 -1.421875 27.6875 -1.421875 
Q 18.265625 -1.421875 13.375 4.4375 
Q 8.5 10.296875 8.5 21.578125 
z
M 31.109375 56 
z
" id="DejaVuSans-75"/>
      <path d="M 11.71875 12.40625 
L 22.015625 12.40625 
L 22.015625 4 
L 14.015625 -11.625 
L 7.71875 -11.625 
L 11.71875 4 
z
" id="DejaVuSans-2c"/>
      <path d="M 18.109375 8.203125 
L 18.109375 -20.796875 
L 9.078125 -20.796875 
L 9.078125 54.6875 
L 18.109375 54.6875 
L 18.109375 46.390625 
Q 20.953125 51.265625 25.265625 53.625 
Q 29.59375 56 35.59375 56 
Q 45.5625 56 51.78125 48.09375 
Q 58.015625 40.1875 58.015625 27.296875 
Q 58.015625 14.40625 51.78125 6.484375 
Q 45.5625 -1.421875 35.59375 -1.421875 
Q 29.59375 -1.421875 25.265625 0.953125 
Q 20.953125 3.328125 18.109375 8.203125 
z
M 48.6875 27.296875 
Q 48.6875 37.203125 44.609375 42.84375 
Q 40.53125 48.484375 33.40625 48.484375 
Q 26.265625 48.484375 22.1875 42.84375 
Q 18.109375 37.203125 18.109375 27.296875 
Q 18.109375 17.390625 22.1875 11.75 
Q 26.265625 6.109375 33.40625 6.109375 
Q 40.53125 6.109375 44.609375 11.75 
Q 48.6875 17.390625 48.6875 27.296875 
z
" id="DejaVuSans-70"/>
     </defs>
     <g transform="translate(16.139531 294.999375)rotate(-90)scale(0.17 -0.17)">
      <use xlink:href="#DejaVuSans-46"/>
      <use x="57.410156" xlink:href="#DejaVuSans-72"/>
      <use x="98.523438" xlink:href="#DejaVuSans-61"/>
      <use x="159.802734" xlink:href="#DejaVuSans-63"/>
      <use x="214.783203" xlink:href="#DejaVuSans-74"/>
      <use x="253.992188" xlink:href="#DejaVuSans-69"/>
      <use x="281.775391" xlink:href="#DejaVuSans-6f"/>
      <use x="342.957031" xlink:href="#DejaVuSans-6e"/>
      <use x="406.335938" xlink:href="#DejaVuSans-20"/>
      <use x="438.123047" xlink:href="#DejaVuSans-6f"/>
      <use x="499.304688" xlink:href="#DejaVuSans-66"/>
      <use x="534.509766" xlink:href="#DejaVuSans-20"/>
      <use x="566.296875" xlink:href="#DejaVuSans-66"/>
      <use x="601.501953" xlink:href="#DejaVuSans-75"/>
      <use x="664.880859" xlink:href="#DejaVuSans-6e"/>
      <use x="728.259766" xlink:href="#DejaVuSans-63"/>
      <use x="783.240234" xlink:href="#DejaVuSans-74"/>
      <use x="822.449219" xlink:href="#DejaVuSans-69"/>
      <use x="850.232422" xlink:href="#DejaVuSans-6f"/>
      <use x="911.414062" xlink:href="#DejaVuSans-6e"/>
      <use x="974.792969" xlink:href="#DejaVuSans-2c"/>
      <use x="1006.580078" xlink:href="#DejaVuSans-74"/>
      <use x="1045.789062" xlink:href="#DejaVuSans-61"/>
      <use x="1107.068359" xlink:href="#DejaVuSans-72"/>
      <use x="1148.166016" xlink:href="#DejaVuSans-67"/>
      <use x="1211.642578" xlink:href="#DejaVuSans-65"/>
      <use x="1273.166016" xlink:href="#DejaVuSans-74"/>
      <use x="1312.375" xlink:href="#DejaVuSans-20"/>
      <use x="1344.162109" xlink:href="#DejaVuSans-70"/>
      <use x="1407.638672" xlink:href="#DejaVuSans-61"/>
      <use x="1468.917969" xlink:href="#DejaVuSans-69"/>
      <use x="1496.701172" xlink:href="#DejaVuSans-72"/>
      <use x="1537.814453" xlink:href="#DejaVuSans-73"/>
     </g>
    </g>
   </g>
   <g id="line2d_41">
    <defs>
     <path d="M 0 1.5 
C 0.397805 1.5 0.77937 1.341951 1.06066 1.06066 
C 1.341951 0.77937 1.5 0.397805 1.5 0 
C 1.5 -0.397805 1.341951 -0.77937 1.06066 -1.06066 
C 0.77937 -1.341951 0.397805 -1.5 0 -1.5 
C -0.397805 -1.5 -0.77937 -1.341951 -1.06066 -1.06066 
C -1.341951 -0.77937 -1.5 -0.397805 -1.5 0 
C -1.5 0.397805 -1.341951 0.77937 -1.06066 1.06066 
C -0.77937 1.341951 -0.397805 1.5 0 1.5 
z
" id="m3421d83aef" style="stroke:#f5deb3;"/>
    </defs>
    <g>
     <use style="fill:#f5deb3;stroke:#f5deb3;" x="309.795296" xlink:href="#m3421d83aef" y="27.513663"/>
     <use style="fill:#f5deb3;stroke:#f5deb3;" x="309.795296" xlink:href="#m3421d83aef" y="27.513663"/>
    </g>
   </g>
   <g id="line2d_42">
    <defs>
     <path d="M 0 1.5 
C 0.397805 1.5 0.77937 1.341951 1.06066 1.06066 
C 1.341951 0.77937 1.5 0.397805 1.5 0 
C 1.5 -0.397805 1.341951 -0.77937 1.06066 -1.06066 
C 0.77937 -1.341951 0.397805 -1.5 0 -1.5 
C -0.397805 -1.5 -0.77937 -1.341951 -1.06066 -1.06066 
C -1.341951 -0.77937 -1.5 -0.397805 -1.5 0 
C -1.5 0.397805 -1.341951 0.77937 -1.06066 1.06066 
C -0.77937 1.341951 -0.397805 1.5 0 1.5 
z
" id="m22a2e87352" style="stroke:#000080;"/>
    </defs>
    <g>
     <use style="fill:#000080;stroke:#000080;" x="352.625636" xlink:href="#m22a2e87352" y="27.513663"/>
     <use style="fill:#000080;stroke:#000080;" x="352.625636" xlink:href="#m22a2e87352" y="27.513663"/>
    </g>
   </g>
   <g id="line2d_43">
    <path d="M 40.370217 294.88 
L 40.370217 293.831505 
L 52.284468 293.831505 
L 52.284468 293.307257 
L 56.12 293.307257 
L 56.12 292.258761 
L 59.253858 292.258761 
L 59.253858 291.734514 
L 64.198719 291.734514 
L 64.198719 290.686018 
L 66.223248 290.686018 
L 66.223248 289.113275 
L 68.034251 289.113275 
L 68.034251 288.589027 
L 72.543934 288.589027 
L 72.543934 287.016284 
L 73.817748 287.016284 
L 73.817748 286.492036 
L 81.586754 286.492036 
L 81.586754 285.967789 
L 83.08236 285.967789 
L 83.08236 285.443541 
L 84.458185 285.443541 
L 84.458185 284.919293 
L 85.732 284.919293 
L 85.732 284.395046 
L 86.335171 284.395046 
L 86.335171 283.870798 
L 90.522701 283.870798 
L 90.522701 283.34655 
L 105.60948 283.34655 
L 105.60948 282.822302 
L 110.163674 282.822302 
L 110.163674 282.298055 
L 111.448069 282.298055 
L 111.448069 281.773807 
L 116.834124 281.773807 
L 116.834124 281.249559 
L 117.133064 281.249559 
L 117.133064 280.201064 
L 118.825114 280.201064 
L 118.825114 279.676816 
L 119.95122 279.676816 
L 119.95122 279.152568 
L 120.365424 279.152568 
L 120.365424 278.628321 
L 121.16504 278.628321 
L 121.16504 278.104073 
L 124.298898 278.104073 
L 124.298898 277.055578 
L 125.248787 277.055578 
L 125.248787 276.53133 
L 128.238289 276.53133 
L 128.238289 276.007082 
L 129.145817 276.007082 
L 129.145817 275.482834 
L 132.032353 275.482834 
L 132.032353 274.958587 
L 133.040181 274.958587 
L 133.040181 274.434339 
L 134.322384 274.434339 
L 134.322384 273.910091 
L 134.859013 273.910091 
L 134.859013 273.385844 
L 141.448529 273.385844 
L 141.448529 272.861596 
L 149.860095 272.861596 
L 149.860095 272.337348 
L 154.67941 272.337348 
L 154.67941 271.8131 
L 159.130837 271.8131 
L 159.130837 271.288853 
L 159.886319 271.288853 
L 159.886319 270.764605 
L 160.074175 270.764605 
L 160.074175 270.240357 
L 161.236223 270.240357 
L 161.236223 269.716109 
L 170.024207 269.716109 
L 170.024207 269.191862 
L 170.946118 269.191862 
L 170.946118 268.667614 
L 171.610638 268.667614 
L 171.610638 268.143366 
L 173.592674 268.143366 
L 173.592674 267.619119 
L 176.155416 267.619119 
L 176.155416 266.570623 
L 177.600484 266.570623 
L 177.600484 266.046375 
L 178.494009 266.046375 
L 178.494009 265.522128 
L 178.889989 265.522128 
L 178.889989 264.99788 
L 180.180495 264.99788 
L 180.180495 264.473632 
L 180.455679 264.473632 
L 180.455679 263.949385 
L 181.034015 263.949385 
L 181.034015 263.425137 
L 182.033812 263.425137 
L 182.033812 262.900889 
L 185.182003 262.900889 
L 185.219664 261.852394 
L 187.633917 261.852394 
L 187.633917 261.328146 
L 188.147577 261.328146 
L 188.147577 260.279651 
L 190.76614 260.279651 
L 190.76614 259.755403 
L 191.902012 259.755403 
L 191.902012 259.231155 
L 192.1878 259.231155 
L 192.1878 258.706907 
L 193.115426 258.706907 
L 193.115426 258.18266 
L 193.462421 258.18266 
L 193.462421 257.658412 
L 193.797983 257.658412 
L 193.797983 257.134164 
L 194.890745 257.134164 
L 194.892888 256.085669 
L 195.546751 256.085669 
L 195.546751 255.037173 
L 196.439137 255.037173 
L 196.439137 254.512926 
L 197.39248 254.512926 
L 197.39248 253.988678 
L 198.796432 253.988678 
L 198.796432 253.46443 
L 206.789451 253.46443 
L 206.789451 252.940182 
L 207.672695 252.940182 
L 207.716958 251.891687 
L 214.856904 251.891687 
L 214.939549 250.843192 
L 215.021467 250.843192 
L 215.021467 250.318944 
L 215.854708 250.318944 
L 215.854708 249.794696 
L 216.134097 249.794696 
L 216.134097 249.270448 
L 216.247377 249.270448 
L 216.247377 248.746201 
L 217.515932 248.746201 
L 217.515932 248.221953 
L 218.525809 248.221953 
L 218.525809 247.697705 
L 222.617035 247.697705 
L 222.617035 246.64921 
L 223.717539 246.64921 
L 223.717539 246.124962 
L 224.319405 246.124962 
L 224.319405 245.600714 
L 224.610524 245.600714 
L 224.633138 244.552219 
L 225.096861 244.552219 
L 225.203929 242.979476 
L 225.220271 242.979476 
L 225.27872 232.494521 
L 227.543414 232.494521 
L 227.543414 231.970274 
L 231.439317 231.970274 
L 231.521308 230.921778 
L 231.583527 230.921778 
L 231.583527 230.397531 
L 234.580758 230.397531 
L 234.580758 229.873283 
L 236.856245 229.873283 
L 236.904861 228.824787 
L 237.019613 228.824787 
L 237.041956 227.252044 
L 242.975318 227.252044 
L 242.975318 226.727797 
L 243.942503 226.727797 
L 243.975634 225.679301 
L 247.099164 225.679301 
L 247.100038 224.630806 
L 248.125699 224.630806 
L 248.125699 224.106558 
L 251.420029 224.106558 
L 251.420029 223.58231 
L 254.776241 223.58231 
L 254.776241 223.058063 
L 260.489558 223.058063 
L 260.499342 222.009567 
L 265.697906 222.009567 
L 265.697906 221.485319 
L 270.650338 221.485319 
L 270.650338 220.961072 
L 272.017485 220.961072 
L 272.017485 220.436824 
L 274.267975 220.436824 
L 274.268377 219.388328 
L 281.959778 219.388328 
L 281.959778 218.864081 
L 284.629293 218.864081 
L 284.63367 217.291338 
L 285.098565 217.291338 
L 285.098565 216.76709 
L 285.213204 216.76709 
L 285.213204 215.718594 
L 286.077265 215.718594 
L 286.077265 215.194347 
L 288.846895 215.194347 
L 288.849205 199.991163 
L 290.675973 199.991163 
L 290.676177 198.942667 
L 293.651294 198.942667 
L 293.653376 197.369924 
L 293.906678 197.369924 
L 293.909766 187.409218 
L 296.121212 187.409218 
L 296.121212 186.88497 
L 301.602505 186.88497 
L 301.602505 186.360722 
L 303.296019 186.360722 
L 303.296621 173.254529 
L 304.108855 173.254529 
L 304.108855 172.730281 
L 305.534109 172.730281 
L 305.534109 172.206034 
L 305.66366 172.206034 
L 305.664304 162.245327 
L 309.973272 162.245327 
L 309.973272 161.721079 
L 311.033536 161.721079 
L 311.033723 151.236125 
L 312.58034 151.236125 
L 312.580536 145.993648 
L 313.359266 145.993648 
L 313.359266 145.4694 
L 316.349671 145.4694 
L 316.349953 137.081437 
L 317.434154 137.081437 
L 317.498664 130.266216 
L 320.404293 130.266216 
L 320.404515 124.499491 
L 321.31806 124.499491 
L 321.318238 121.878253 
L 323.682769 121.878253 
L 323.682858 112.441794 
L 324.398234 112.441794 
L 324.441364 103.005335 
L 326.434886 103.005335 
L 326.434962 97.23861 
L 326.650062 97.23861 
L 326.650062 96.714362 
L 327.083025 96.714362 
L 327.083207 93.568876 
L 328.806567 93.568876 
L 328.806567 91.996133 
L 329.372445 91.996133 
L 329.372802 87.802151 
L 330.890331 87.802151 
L 330.89039 82.035426 
L 331.392613 82.035426 
L 331.392854 78.365692 
L 332.748519 78.365692 
L 332.7486 74.17171 
L 333.168 74.17171 
L 333.168 74.17171 
" style="fill:none;stroke:#000080;stroke-linecap:square;stroke-width:1.5;"/>
   </g>
   <g id="line2d_44">
    <defs>
     <path d="M 0 6 
C 1.591219 6 3.117479 5.367802 4.242641 4.242641 
C 5.367802 3.117479 6 1.591219 6 0 
C 6 -1.591219 5.367802 -3.117479 4.242641 -4.242641 
C 3.117479 -5.367802 1.591219 -6 0 -6 
C -1.591219 -6 -3.117479 -5.367802 -4.242641 -4.242641 
C -5.367802 -3.117479 -6 -1.591219 -6 0 
C -6 1.591219 -5.367802 3.117479 -4.242641 4.242641 
C -3.117479 5.367802 -1.591219 6 0 6 
z
" id="m7e6004a46c" style="stroke:#000080;stroke-width:1.5;"/>
    </defs>
    <g>
     <use style="fill-opacity:0;stroke:#000080;stroke-width:1.5;" x="117.133064" xlink:href="#m7e6004a46c" y="281.249559"/>
     <use style="fill-opacity:0;stroke:#000080;stroke-width:1.5;" x="182.033812" xlink:href="#m7e6004a46c" y="263.425137"/>
     <use style="fill-opacity:0;stroke:#000080;stroke-width:1.5;" x="260.499342" xlink:href="#m7e6004a46c" y="222.009567"/>
     <use style="fill-opacity:0;stroke:#000080;stroke-width:1.5;" x="317.498568" xlink:href="#m7e6004a46c" y="134.984446"/>
     <use style="fill-opacity:0;stroke:#000080;stroke-width:1.5;" x="332.7486" xlink:href="#m7e6004a46c" y="74.17171"/>
     <use style="fill-opacity:0;stroke:#000080;stroke-width:1.5;" x="333.168" xlink:href="#m7e6004a46c" y="74.17171"/>
    </g>
   </g>
   <g id="line2d_45">
    <path style="fill:none;stroke:#000080;stroke-linecap:square;stroke-width:1.5;"/>
    <g/>
   </g>
   <g id="line2d_46">
    <path clip-path="url(#pac9686bb41)" d="M 293.589714 198.942667 
" style="fill:none;stroke:#000080;stroke-linecap:square;stroke-width:1.5;"/>
    <defs>
     <path d="M -12 12 
L 12 -12 
M -12 -12 
L 12 12 
" id="m2f16ec0116" style="stroke:#000080;"/>
    </defs>
    <g clip-path="url(#pac9686bb41)">
     <use style="fill:#000080;stroke:#000080;" x="293.589714" xlink:href="#m2f16ec0116" y="198.942667"/>
    </g>
   </g>
   <g id="line2d_47">
    <defs>
     <path d="M 0 1.5 
C 0.397805 1.5 0.77937 1.341951 1.06066 1.06066 
C 1.341951 0.77937 1.5 0.397805 1.5 0 
C 1.5 -0.397805 1.341951 -0.77937 1.06066 -1.06066 
C 0.77937 -1.341951 0.397805 -1.5 0 -1.5 
C -0.397805 -1.5 -0.77937 -1.341951 -1.06066 -1.06066 
C -1.341951 -0.77937 -1.5 -0.397805 -1.5 0 
C -1.5 0.397805 -1.341951 0.77937 -1.06066 1.06066 
C -0.77937 1.341951 -0.397805 1.5 0 1.5 
z
" id="m30570cc15b" style="stroke:#ff00ff;"/>
    </defs>
    <g>
     <use style="fill:#ff00ff;stroke:#ff00ff;" x="345.325762" xlink:href="#m30570cc15b" y="200.515411"/>
     <use style="fill:#ff00ff;stroke:#ff00ff;" x="345.325762" xlink:href="#m30570cc15b" y="200.515411"/>
    </g>
   </g>
   <g id="line2d_48">
    <path d="M 40.370217 294.88 
L 40.370217 293.307257 
L 47.339607 293.307257 
L 47.339607 292.258761 
L 52.284468 292.258761 
L 52.284468 291.734514 
L 59.253858 291.734514 
L 59.253858 290.686018 
L 71.168109 290.686018 
L 71.168109 290.161771 
L 72.543934 290.161771 
L 72.543934 289.637523 
L 73.817748 289.637523 
L 73.817748 289.113275 
L 75.003641 289.113275 
L 75.003641 288.589027 
L 78.137499 288.589027 
L 78.137499 288.06478 
L 82.350819 288.06478 
L 82.350819 287.540532 
L 85.106889 287.540532 
L 85.106889 287.016284 
L 86.335171 287.016284 
L 86.335171 285.967789 
L 90.981092 285.967789 
L 90.981092 285.443541 
L 93.501005 285.443541 
L 93.501005 284.919293 
L 95.351029 284.919293 
L 95.351029 284.395046 
L 97.646251 284.395046 
L 97.646251 283.870798 
L 98.543252 283.870798 
L 98.543252 283.34655 
L 98.832144 283.34655 
L 98.832144 282.822302 
L 99.941473 282.822302 
L 99.941473 282.298055 
L 104.201437 282.298055 
L 104.201437 281.773807 
L 105.801534 281.773807 
L 105.801534 281.249559 
L 107.612537 281.249559 
L 107.612537 280.725312 
L 109.713291 280.725312 
L 109.713291 280.201064 
L 115.034286 280.201064 
L 115.034286 279.676816 
L 116.010559 279.676816 
L 116.010559 279.152568 
L 120.200938 279.152568 
L 120.200938 278.628321 
L 121.008065 278.628321 
L 121.008065 278.104073 
L 123.430938 278.104073 
L 123.430938 277.579825 
L 125.614517 277.579825 
L 125.614517 277.055578 
L 129.534278 277.055578 
L 129.534278 276.53133 
L 135.481607 276.53133 
L 135.481607 276.007082 
L 137.132207 276.007082 
L 137.132207 275.482834 
L 137.377325 275.482834 
L 137.377325 274.434339 
L 137.886877 274.434339 
L 137.886877 273.910091 
L 138.862788 273.910091 
L 138.862788 273.385844 
L 139.626853 273.385844 
L 139.626853 272.861596 
L 145.090928 272.861596 
L 145.090928 272.337348 
L 146.878609 272.337348 
L 146.878609 271.8131 
L 150.636952 271.8131 
L 150.636952 270.764605 
L 151.420576 270.764605 
L 151.420576 270.240357 
L 151.634268 270.240357 
L 151.634268 269.716109 
L 152.28543 269.716109 
L 152.28543 269.191862 
L 156.731095 269.191862 
L 156.731095 268.667614 
L 156.868684 268.667614 
L 156.868684 268.143366 
L 160.782346 268.143366 
L 160.782346 267.619119 
L 162.516002 267.619119 
L 162.516002 267.094871 
L 162.753959 267.094871 
L 162.753959 266.570623 
L 164.314315 266.570623 
L 164.314315 266.046375 
L 164.771536 266.046375 
L 164.771536 265.522128 
L 165.603991 265.522128 
L 165.603991 264.99788 
L 165.878547 264.99788 
L 165.878547 264.473632 
L 166.96214 264.473632 
L 166.96214 263.949385 
L 167.981455 263.949385 
L 167.981455 263.425137 
L 168.291443 263.425137 
L 168.291443 262.900889 
L 170.557682 262.900889 
L 170.636953 261.852394 
L 171.43537 261.852394 
L 171.43537 261.328146 
L 171.771802 261.328146 
L 171.771802 260.803898 
L 172.206364 260.803898 
L 172.206364 260.279651 
L 172.859524 260.279651 
L 172.859524 259.755403 
L 173.395465 259.755403 
L 173.395465 259.231155 
L 185.19331 259.231155 
L 185.19331 258.706907 
L 186.632779 258.706907 
L 186.632779 258.18266 
L 187.203599 258.18266 
L 187.203599 257.658412 
L 187.60447 257.658412 
L 187.60447 257.134164 
L 189.885769 257.134164 
L 189.885769 256.609917 
L 194.125998 256.609917 
L 194.125998 256.085669 
L 194.506051 256.085669 
L 194.506051 255.561421 
L 195.549845 255.561421 
L 195.549845 255.037173 
L 195.94137 255.037173 
L 195.94137 254.512926 
L 197.208991 254.512926 
L 197.208991 253.988678 
L 197.609746 253.988678 
L 197.609746 253.46443 
L 199.141298 253.46443 
L 199.141298 252.940182 
L 202.759898 252.940182 
L 202.759898 252.415935 
L 205.099638 252.415935 
L 205.099638 251.891687 
L 206.002676 251.891687 
L 206.002676 251.367439 
L 207.234133 251.367439 
L 207.234133 250.843192 
L 211.22915 250.843192 
L 211.22915 250.318944 
L 222.122679 250.318944 
L 222.122679 249.794696 
L 222.686936 249.794696 
L 222.730268 248.746201 
L 227.623713 248.746201 
L 227.623713 248.221953 
L 227.860495 248.221953 
L 227.860495 247.697705 
L 230.119555 247.697705 
L 230.119555 247.173458 
L 230.324117 247.173458 
L 230.324117 246.64921 
L 230.638722 246.64921 
L 230.638722 246.124962 
L 230.929776 246.124962 
L 231.032298 245.076467 
L 231.334058 245.076467 
L 231.432925 244.027971 
L 231.447496 244.027971 
L 231.533134 242.979476 
L 231.724399 242.979476 
L 231.724399 242.455228 
L 233.460338 242.455228 
L 233.528952 240.882485 
L 234.916344 240.882485 
L 235.011924 238.261246 
L 239.58076 238.261246 
L 239.58076 237.736999 
L 239.84065 237.736999 
L 239.84065 237.212751 
L 240.020962 237.212751 
L 240.020962 236.688503 
L 240.45002 236.688503 
L 240.45002 236.164255 
L 240.57953 236.164255 
L 240.57953 235.640008 
L 241.420123 235.640008 
L 241.420123 235.11576 
L 248.387749 235.11576 
L 248.387749 234.591512 
L 249.466924 234.591512 
L 249.466924 234.067265 
L 250.940791 234.067265 
L 250.940791 233.543017 
L 256.090874 233.543017 
L 256.093584 232.494521 
L 256.2821 232.494521 
L 256.290894 231.446026 
L 256.650152 231.446026 
L 256.650152 230.921778 
L 260.711471 230.921778 
L 260.711471 230.397531 
L 263.083641 230.397531 
L 263.083641 229.873283 
L 265.356189 229.873283 
L 265.418405 226.727797 
L 270.152046 226.727797 
L 270.152046 226.203549 
L 272.66178 226.203549 
L 272.66178 225.679301 
L 272.82459 225.679301 
L 272.82459 225.155053 
L 279.534477 225.155053 
L 279.535629 224.106558 
L 285.896806 224.106558 
L 285.896806 223.58231 
L 287.223556 223.58231 
L 287.223556 223.058063 
L 288.153649 223.058063 
L 288.157342 222.009567 
L 289.978362 222.009567 
L 289.983726 220.436824 
L 290.578914 220.436824 
L 290.578914 219.912576 
L 294.10409 219.912576 
L 294.10409 219.388328 
L 296.63887 219.388328 
L 296.63887 218.864081 
L 297.902752 218.864081 
L 297.903249 217.291338 
L 304.064419 217.291338 
L 304.064492 216.242842 
L 305.536279 216.242842 
L 305.536279 215.718594 
L 305.762776 215.718594 
L 305.762776 215.194347 
L 307.095406 215.194347 
L 307.09614 214.145851 
L 311.527236 214.145851 
L 311.527236 213.621604 
L 318.232748 213.621604 
L 318.233144 212.573108 
L 321.908468 212.573108 
L 321.90877 211.524613 
L 324.47449 211.524613 
L 324.47449 211.000365 
L 324.934948 211.000365 
L 324.934948 210.476117 
L 325.18604 210.476117 
L 325.18604 209.95187 
L 327.507453 209.95187 
L 327.507453 209.427622 
L 327.72386 209.427622 
L 327.72386 208.903374 
L 329.934771 208.903374 
L 329.934771 208.379126 
L 330.991812 208.379126 
L 330.991812 207.854879 
L 331.893337 207.854879 
L 331.893429 206.282136 
L 333.168 206.282136 
L 333.168 206.282136 
" style="fill:none;stroke:#ff00ff;stroke-linecap:square;stroke-width:1.5;"/>
   </g>
   <g id="line2d_49">
    <defs>
     <path d="M -0 8.485281 
L 5.091169 0 
L 0 -8.485281 
L -5.091169 -0 
z
" id="m0d76be2bad" style="stroke:#ff00ff;stroke-linejoin:miter;stroke-width:1.5;"/>
    </defs>
    <g>
     <use style="fill-opacity:0;stroke:#ff00ff;stroke-linejoin:miter;stroke-width:1.5;" x="99.941473" xlink:href="#m0d76be2bad" y="282.822302"/>
     <use style="fill-opacity:0;stroke:#ff00ff;stroke-linejoin:miter;stroke-width:1.5;" x="173.395465" xlink:href="#m0d76be2bad" y="259.755403"/>
     <use style="fill-opacity:0;stroke:#ff00ff;stroke-linejoin:miter;stroke-width:1.5;" x="241.420123" xlink:href="#m0d76be2bad" y="235.11576"/>
     <use style="fill-opacity:0;stroke:#ff00ff;stroke-linejoin:miter;stroke-width:1.5;" x="297.903249" xlink:href="#m0d76be2bad" y="217.815585"/>
     <use style="fill-opacity:0;stroke:#ff00ff;stroke-linejoin:miter;stroke-width:1.5;" x="331.893429" xlink:href="#m0d76be2bad" y="206.282136"/>
     <use style="fill-opacity:0;stroke:#ff00ff;stroke-linejoin:miter;stroke-width:1.5;" x="333.168" xlink:href="#m0d76be2bad" y="206.282136"/>
    </g>
   </g>
   <g id="line2d_50">
    <path style="fill:none;stroke:#ff00ff;stroke-linecap:square;stroke-width:1.5;"/>
    <g/>
   </g>
   <g id="line2d_51">
    <path clip-path="url(#pac9686bb41)" d="M 293.589811 219.912576 
" style="fill:none;stroke:#ff00ff;stroke-linecap:square;stroke-width:1.5;"/>
    <defs>
     <path d="M -12 12 
L 12 -12 
M -12 -12 
L 12 12 
" id="md233e61972" style="stroke:#ff00ff;"/>
    </defs>
    <g clip-path="url(#pac9686bb41)">
     <use style="fill:#ff00ff;stroke:#ff00ff;" x="293.589811" xlink:href="#md233e61972" y="219.912576"/>
    </g>
   </g>
   <g id="line2d_52">
    <defs>
     <path d="M 0 1.5 
C 0.397805 1.5 0.77937 1.341951 1.06066 1.06066 
C 1.341951 0.77937 1.5 0.397805 1.5 0 
C 1.5 -0.397805 1.341951 -0.77937 1.06066 -1.06066 
C 0.77937 -1.341951 0.397805 -1.5 0 -1.5 
C -0.397805 -1.5 -0.77937 -1.341951 -1.06066 -1.06066 
C -1.341951 -0.77937 -1.5 -0.397805 -1.5 0 
C -1.5 0.397805 -1.341951 0.77937 -1.06066 1.06066 
C -0.77937 1.341951 -0.397805 1.5 0 1.5 
z
" id="mfc5298fab1" style="stroke:#ff7500;"/>
    </defs>
    <g>
     <use style="fill:#ff7500;stroke:#ff7500;" x="290.413195" xlink:href="#mfc5298fab1" y="221.485319"/>
     <use style="fill:#ff7500;stroke:#ff7500;" x="290.413195" xlink:href="#mfc5298fab1" y="221.485319"/>
    </g>
   </g>
   <g id="line2d_53">
    <path d="M 28.455965 294.88 
L 28.455965 293.831505 
L 40.370217 293.831505 
L 40.370217 292.783009 
L 47.339607 292.783009 
L 47.339607 291.734514 
L 56.12 291.734514 
L 56.12 291.210266 
L 59.253858 291.210266 
L 59.253858 290.686018 
L 66.223248 290.686018 
L 66.223248 289.637523 
L 68.034251 289.637523 
L 68.034251 289.113275 
L 72.543934 289.113275 
L 72.543934 288.06478 
L 76.11297 288.06478 
L 76.11297 287.540532 
L 82.350819 287.540532 
L 82.350819 287.016284 
L 83.784035 287.016284 
L 83.784035 285.967789 
L 84.458185 285.967789 
L 84.458185 285.443541 
L 86.917893 285.443541 
L 86.917893 284.919293 
L 89.069276 284.919293 
L 89.069276 284.395046 
L 92.287186 284.395046 
L 92.287186 283.870798 
L 99.11626 283.870798 
L 99.11626 283.34655 
L 104.409787 283.34655 
L 104.409787 282.822302 
L 105.60948 282.822302 
L 105.60948 282.298055 
L 112.122219 282.298055 
L 112.122219 281.773807 
L 113.272818 281.773807 
L 113.272818 281.249559 
L 113.518374 281.249559 
L 113.518374 280.725312 
L 114.809594 280.725312 
L 114.809594 280.201064 
L 117.523731 280.201064 
L 117.523731 279.676816 
L 117.811013 279.676816 
L 117.811013 279.152568 
L 117.999901 279.152568 
L 117.999901 278.628321 
L 120.365424 278.628321 
L 120.365424 277.579825 
L 122.371755 277.579825 
L 122.371755 277.055578 
L 122.660646 277.055578 
L 122.660646 276.53133 
L 123.970233 276.53133 
L 123.970233 276.007082 
L 129.194858 276.007082 
L 129.194858 275.482834 
L 129.772681 275.482834 
L 129.772681 274.434339 
L 129.961052 274.434339 
L 129.961052 273.910091 
L 133.465568 273.910091 
L 133.465568 273.385844 
L 142.223028 273.385844 
L 142.223028 272.861596 
L 142.405645 272.861596 
L 142.405645 272.337348 
L 142.541345 272.337348 
L 142.541345 271.8131 
L 144.07071 271.8131 
L 144.07071 271.288853 
L 149.061881 271.288853 
L 149.061881 270.764605 
L 153.242327 270.764605 
L 153.242327 270.240357 
L 153.506219 270.240357 
L 153.506219 269.716109 
L 154.478109 269.716109 
L 154.478109 269.191862 
L 157.783594 269.191862 
L 157.783594 268.667614 
L 158.713912 268.667614 
L 158.713912 268.143366 
L 158.880156 268.143366 
L 158.906259 267.094871 
L 159.546267 267.094871 
L 159.546267 266.570623 
L 159.820493 266.570623 
L 159.820493 266.046375 
L 160.380116 266.046375 
L 160.380116 265.522128 
L 160.633594 265.522128 
L 160.633594 264.99788 
L 161.544716 264.99788 
L 161.544716 264.473632 
L 162.28185 264.473632 
L 162.28185 263.949385 
L 164.116412 263.949385 
L 164.116412 263.425137 
L 164.269826 263.425137 
L 164.269826 262.900889 
L 164.925364 262.900889 
L 164.925364 262.376641 
L 166.35858 262.376641 
L 166.35858 261.852394 
L 167.173047 261.852394 
L 167.173047 261.328146 
L 167.676216 261.328146 
L 167.676216 260.803898 
L 168.022429 260.803898 
L 168.022429 260.279651 
L 168.481762 260.279651 
L 168.481762 259.755403 
L 170.794408 259.755403 
L 170.794408 259.231155 
L 170.920205 259.231155 
L 170.920205 258.706907 
L 172.282393 258.706907 
L 172.282393 258.18266 
L 172.696597 258.18266 
L 172.696597 257.658412 
L 176.867159 257.658412 
L 176.867159 257.134164 
L 177.088951 257.134164 
L 177.088951 256.609917 
L 177.728932 256.609917 
L 177.728932 256.085669 
L 181.762257 256.085669 
L 181.762257 255.561421 
L 182.103854 255.561421 
L 182.103854 255.037173 
L 185.742088 255.037173 
L 185.742088 254.512926 
L 186.047728 254.512926 
L 186.156726 253.46443 
L 193.991026 253.46443 
L 193.991026 252.940182 
L 196.404827 252.940182 
L 196.404827 252.415935 
L 197.929683 252.415935 
L 198.011203 251.367439 
L 204.798207 251.367439 
L 204.872713 250.318944 
L 207.226815 250.318944 
L 207.226815 249.794696 
L 207.458423 249.794696 
L 207.458423 249.270448 
L 208.681244 249.270448 
L 208.681244 248.746201 
L 214.811229 248.746201 
L 214.811229 248.221953 
L 215.103326 248.221953 
L 215.103326 247.697705 
L 215.371348 247.697705 
L 215.416859 246.64921 
L 216.023199 246.64921 
L 216.023199 246.124962 
L 217.640183 246.124962 
L 217.640183 245.600714 
L 218.359739 245.600714 
L 218.359739 245.076467 
L 221.101285 245.076467 
L 221.101285 244.552219 
L 222.521313 244.552219 
L 222.594598 243.503724 
L 223.291054 243.503724 
L 223.291054 242.979476 
L 223.568268 242.979476 
L 223.630588 241.93098 
L 226.45483 241.93098 
L 226.46849 240.882485 
L 226.85597 240.882485 
L 226.85597 240.358237 
L 230.548902 240.358237 
L 230.625326 238.785494 
L 231.176574 238.785494 
L 231.176574 238.261246 
L 233.995782 238.261246 
L 234.006684 236.688503 
L 240.193565 236.688503 
L 240.193565 236.164255 
L 243.7886 236.164255 
L 243.794269 235.11576 
L 245.390264 235.11576 
L 245.390264 234.591512 
L 254.660207 234.591512 
L 254.660207 233.543017 
L 256.0461 233.543017 
L 256.0461 233.018769 
L 256.574001 233.018769 
L 256.574001 232.494521 
L 257.936356 232.494521 
L 257.936356 231.970274 
L 258.637441 231.970274 
L 258.687902 230.397531 
L 266.25313 230.397531 
L 266.25313 229.873283 
L 267.573726 229.873283 
L 267.573726 229.349035 
L 267.994277 229.349035 
L 267.994277 228.824787 
L 268.396405 228.824787 
L 268.422468 226.727797 
L 270.113074 226.727797 
L 270.113074 225.679301 
L 278.37162 225.679301 
L 278.37162 225.155053 
L 278.942052 225.155053 
L 278.942052 224.630806 
L 281.807193 224.630806 
L 281.807193 224.106558 
L 283.475109 224.106558 
L 283.475109 223.58231 
L 285.165074 223.58231 
L 285.165074 223.058063 
L 285.376853 223.058063 
L 285.376853 222.533815 
L 286.321809 222.533815 
L 286.321809 222.009567 
L 290.413195 222.009567 
L 290.413195 221.485319 
L 333.168 221.485319 
L 333.168 221.485319 
" style="fill:none;stroke:#ff7500;stroke-linecap:square;stroke-width:1.5;"/>
   </g>
   <g id="line2d_54">
    <defs>
     <path d="M 0 -6 
L -1.347084 -1.854102 
L -5.706339 -1.854102 
L -2.179628 0.708204 
L -3.526712 4.854102 
L -0 2.291796 
L 3.526712 4.854102 
L 2.179628 0.708204 
L 5.706339 -1.854102 
L 1.347084 -1.854102 
z
" id="mb0f343d7d0" style="stroke:#ff7500;stroke-linejoin:bevel;stroke-width:1.5;"/>
    </defs>
    <g>
     <use style="fill-opacity:0;stroke:#ff7500;stroke-linejoin:bevel;stroke-width:1.5;" x="82.350819" xlink:href="#mb0f343d7d0" y="287.016284"/>
     <use style="fill-opacity:0;stroke:#ff7500;stroke-linejoin:bevel;stroke-width:1.5;" x="168.481762" xlink:href="#mb0f343d7d0" y="259.755403"/>
     <use style="fill-opacity:0;stroke:#ff7500;stroke-linejoin:bevel;stroke-width:1.5;" x="234.006684" xlink:href="#mb0f343d7d0" y="237.212751"/>
     <use style="fill-opacity:0;stroke:#ff7500;stroke-linejoin:bevel;stroke-width:1.5;" x="290.413195" xlink:href="#mb0f343d7d0" y="222.009567"/>
     <use style="fill-opacity:0;stroke:#ff7500;stroke-linejoin:bevel;stroke-width:1.5;" x="290.413195" xlink:href="#mb0f343d7d0" y="221.485319"/>
     <use style="fill-opacity:0;stroke:#ff7500;stroke-linejoin:bevel;stroke-width:1.5;" x="333.168" xlink:href="#mb0f343d7d0" y="221.485319"/>
    </g>
   </g>
   <g id="line2d_55">
    <path style="fill:none;stroke:#ff7500;stroke-linecap:square;stroke-width:1.5;"/>
    <g/>
   </g>
   <g id="line2d_56">
    <path clip-path="url(#pac9686bb41)" d="M 254.011429 234.591512 
" style="fill:none;stroke:#ff7500;stroke-linecap:square;stroke-width:1.5;"/>
    <defs>
     <path d="M -12 12 
L 12 -12 
M -12 -12 
L 12 12 
" id="m83299ea16b" style="stroke:#ff7500;"/>
    </defs>
    <g clip-path="url(#pac9686bb41)">
     <use style="fill:#ff7500;stroke:#ff7500;" x="254.011429" xlink:href="#m83299ea16b" y="234.591512"/>
    </g>
   </g>
   <g id="line2d_57">
    <defs>
     <path d="M 0 1.5 
C 0.397805 1.5 0.77937 1.341951 1.06066 1.06066 
C 1.341951 0.77937 1.5 0.397805 1.5 0 
C 1.5 -0.397805 1.341951 -0.77937 1.06066 -1.06066 
C 0.77937 -1.341951 0.397805 -1.5 0 -1.5 
C -0.397805 -1.5 -0.77937 -1.341951 -1.06066 -1.06066 
C -1.341951 -0.77937 -1.5 -0.397805 -1.5 0 
C -1.5 0.397805 -1.341951 0.77937 -1.06066 1.06066 
C -0.77937 1.341951 -0.397805 1.5 0 1.5 
z
" id="m09cefd0c02" style="stroke:#6495ed;"/>
    </defs>
    <g>
     <use style="fill:#6495ed;stroke:#6495ed;" x="346.741224" xlink:href="#m09cefd0c02" y="205.757888"/>
     <use style="fill:#6495ed;stroke:#6495ed;" x="346.741224" xlink:href="#m09cefd0c02" y="205.757888"/>
    </g>
   </g>
   <g id="line2d_58">
    <path d="M 28.455965 294.88 
L 28.455965 294.355752 
L 47.339607 294.355752 
L 47.339607 292.783009 
L 56.12 292.783009 
L 56.12 292.258761 
L 61.903497 292.258761 
L 61.903497 291.734514 
L 66.223248 291.734514 
L 66.223248 291.210266 
L 68.034251 291.210266 
L 68.034251 290.161771 
L 69.672503 290.161771 
L 69.672503 289.637523 
L 75.003641 289.637523 
L 75.003641 289.113275 
L 76.11297 289.113275 
L 76.11297 288.589027 
L 78.137499 288.589027 
L 78.137499 288.06478 
L 80.787138 288.06478 
L 80.787138 287.016284 
L 81.586754 287.016284 
L 81.586754 285.967789 
L 84.458185 285.967789 
L 84.458185 284.919293 
L 90.05175 284.919293 
L 90.05175 284.395046 
L 91.427575 284.395046 
L 91.427575 283.870798 
L 93.887283 283.870798 
L 93.887283 283.34655 
L 97.021141 283.34655 
L 97.021141 282.822302 
L 99.941473 282.822302 
L 99.941473 282.298055 
L 102.436953 282.298055 
L 102.436953 281.773807 
L 103.341826 281.773807 
L 103.341826 281.249559 
L 104.409787 281.249559 
L 104.409787 280.725312 
L 105.218813 280.725312 
L 105.218813 280.201064 
L 107.088985 280.201064 
L 107.088985 279.676816 
L 111.030511 279.676816 
L 111.030511 279.152568 
L 115.256077 279.152568 
L 115.256077 278.628321 
L 115.798351 278.628321 
L 115.798351 278.104073 
L 116.010559 278.104073 
L 116.010559 277.579825 
L 118.463235 277.579825 
L 118.463235 277.055578 
L 125.248787 277.055578 
L 125.310285 276.007082 
L 126.553378 276.007082 
L 126.553378 275.482834 
L 130.007824 275.482834 
L 130.007824 274.958587 
L 131.181257 274.958587 
L 131.181257 274.434339 
L 131.949115 274.434339 
L 131.949115 273.910091 
L 133.312097 273.910091 
L 133.312097 273.385844 
L 135.207679 273.385844 
L 135.207679 272.861596 
L 141.303883 272.861596 
L 141.303883 272.337348 
L 141.591967 272.337348 
L 141.591967 271.8131 
L 145.43702 271.8131 
L 145.43702 271.288853 
L 146.072324 271.288853 
L 146.072324 270.764605 
L 151.14967 270.764605 
L 151.14967 270.240357 
L 155.630973 270.240357 
L 155.630973 269.716109 
L 155.891966 269.716109 
L 155.891966 269.191862 
L 156.995466 269.191862 
L 156.995466 268.667614 
L 157.23668 268.667614 
L 157.23668 268.143366 
L 157.690531 268.143366 
L 157.690531 267.619119 
L 162.095093 267.619119 
L 162.095093 267.094871 
L 163.64778 267.094871 
L 163.64778 266.570623 
L 167.686652 266.570623 
L 167.686652 266.046375 
L 170.933166 266.046375 
L 170.933166 265.522128 
L 171.598178 265.522128 
L 171.598178 264.99788 
L 172.492715 264.99788 
L 172.492715 263.949385 
L 172.797639 263.949385 
L 172.797639 263.425137 
L 172.971126 263.425137 
L 172.971126 262.900889 
L 176.053122 262.900889 
L 176.053122 262.376641 
L 176.486857 262.376641 
L 176.486857 261.852394 
L 178.53846 261.852394 
L 178.53846 261.328146 
L 181.255745 261.328146 
L 181.255745 260.803898 
L 181.690805 260.803898 
L 181.690805 260.279651 
L 183.712768 260.279651 
L 183.75993 259.231155 
L 185.334024 259.231155 
L 185.334024 258.706907 
L 186.129987 258.706907 
L 186.129987 258.18266 
L 186.353311 258.18266 
L 186.353311 257.658412 
L 189.640275 257.658412 
L 189.702703 256.609917 
L 189.78078 256.609917 
L 189.849886 255.561421 
L 197.080223 255.561421 
L 197.094369 254.512926 
L 198.929111 254.512926 
L 198.929111 253.988678 
L 201.090159 253.988678 
L 201.090159 253.46443 
L 201.500627 253.46443 
L 201.500627 252.940182 
L 202.034987 252.940182 
L 202.034987 252.415935 
L 208.112763 252.415935 
L 208.112763 251.891687 
L 210.364419 251.891687 
L 210.364419 251.367439 
L 215.620823 251.367439 
L 215.66728 250.318944 
L 225.104069 250.318944 
L 225.179478 248.221953 
L 229.48426 248.221953 
L 229.48426 247.697705 
L 229.645618 247.697705 
L 229.727568 246.124962 
L 229.785504 246.124962 
L 229.887927 245.076467 
L 230.069797 245.076467 
L 230.131559 244.027971 
L 230.2056 244.027971 
L 230.261813 242.979476 
L 231.29827 242.979476 
L 231.349998 241.93098 
L 231.425891 241.93098 
L 231.507691 240.882485 
L 231.61354 240.882485 
L 231.723268 239.83399 
L 231.770725 239.83399 
L 231.770725 239.309742 
L 244.187463 239.309742 
L 244.187463 238.785494 
L 244.300392 238.785494 
L 244.337488 237.736999 
L 244.468197 237.736999 
L 244.468197 237.212751 
L 245.482208 237.212751 
L 245.53205 236.164255 
L 246.484998 236.164255 
L 246.484998 235.640008 
L 259.640023 235.640008 
L 259.645424 234.591512 
L 260.164218 234.591512 
L 260.164218 234.067265 
L 263.375062 234.067265 
L 263.447921 233.018769 
L 263.506588 233.018769 
L 263.506588 232.494521 
L 274.386804 232.494521 
L 274.386804 231.970274 
L 277.526614 231.970274 
L 277.526614 231.446026 
L 279.752669 231.446026 
L 279.763815 228.824787 
L 281.283 228.824787 
L 281.308165 226.727797 
L 282.221125 226.727797 
L 282.221125 226.203549 
L 285.312256 226.203549 
L 285.360381 224.630806 
L 286.880631 224.630806 
L 286.880631 224.106558 
L 289.113709 224.106558 
L 289.113709 223.58231 
L 292.457081 223.58231 
L 292.457584 221.485319 
L 294.011262 221.485319 
L 294.057792 218.864081 
L 294.610479 218.864081 
L 294.610479 218.339833 
L 295.888164 218.339833 
L 295.888164 217.815585 
L 296.343623 217.815585 
L 296.343623 217.291338 
L 299.284427 217.291338 
L 299.284427 216.76709 
L 300.438633 216.76709 
L 300.445648 215.718594 
L 304.947367 215.718594 
L 304.94902 213.621604 
L 305.717086 213.621604 
L 305.717228 212.573108 
L 308.973934 212.573108 
L 308.973934 212.04886 
L 312.617285 212.04886 
L 312.617653 211.000365 
L 315.075587 211.000365 
L 315.075587 210.476117 
L 321.034052 210.476117 
L 321.034052 209.95187 
L 326.881021 209.95187 
L 326.881995 208.379126 
L 329.195438 208.379126 
L 329.19578 207.330631 
L 331.235398 207.330631 
L 331.235398 206.806383 
L 333.168 206.806383 
L 333.168 206.806383 
" style="fill:none;stroke:#6495ed;stroke-linecap:square;stroke-width:1.5;"/>
   </g>
   <g id="line2d_59">
    <defs>
     <path d="M -0 6 
L 6 -6 
L -6 -6 
z
" id="m4463b29eba" style="stroke:#6495ed;stroke-linejoin:miter;stroke-width:1.5;"/>
    </defs>
    <g>
     <use style="fill-opacity:0;stroke:#6495ed;stroke-linejoin:miter;stroke-width:1.5;" x="93.887283" xlink:href="#m4463b29eba" y="283.870798"/>
     <use style="fill-opacity:0;stroke:#6495ed;stroke-linejoin:miter;stroke-width:1.5;" x="151.14967" xlink:href="#m4463b29eba" y="270.240357"/>
     <use style="fill-opacity:0;stroke:#6495ed;stroke-linejoin:miter;stroke-width:1.5;" x="215.66728" xlink:href="#m4463b29eba" y="250.318944"/>
     <use style="fill-opacity:0;stroke:#6495ed;stroke-linejoin:miter;stroke-width:1.5;" x="295.888164" xlink:href="#m4463b29eba" y="217.815585"/>
     <use style="fill-opacity:0;stroke:#6495ed;stroke-linejoin:miter;stroke-width:1.5;" x="331.235398" xlink:href="#m4463b29eba" y="206.806383"/>
     <use style="fill-opacity:0;stroke:#6495ed;stroke-linejoin:miter;stroke-width:1.5;" x="333.168" xlink:href="#m4463b29eba" y="206.806383"/>
    </g>
   </g>
   <g id="line2d_60">
    <path style="fill:none;stroke:#6495ed;stroke-linecap:square;stroke-width:1.5;"/>
    <g/>
   </g>
   <g id="line2d_61">
    <path clip-path="url(#pac9686bb41)" d="M 293.590254 221.485319 
" style="fill:none;stroke:#6495ed;stroke-linecap:square;stroke-width:1.5;"/>
    <defs>
     <path d="M -12 12 
L 12 -12 
M -12 -12 
L 12 12 
" id="medc11f2bdd" style="stroke:#6495ed;"/>
    </defs>
    <g clip-path="url(#pac9686bb41)">
     <use style="fill:#6495ed;stroke:#6495ed;" x="293.590254" xlink:href="#medc11f2bdd" y="221.485319"/>
    </g>
   </g>
   <g id="line2d_62">
    <path d="M 333.168 221.485319 
L 363.64328 289.532673 
" style="fill:none;stroke:#ff7500;stroke-linecap:square;stroke-width:1.5;"/>
    <g>
     <use style="fill-opacity:0;stroke:#ff7500;stroke-linejoin:bevel;stroke-width:1.5;" x="333.168" xlink:href="#mb0f343d7d0" y="221.485319"/>
     <use style="fill-opacity:0;stroke:#ff7500;stroke-linejoin:bevel;stroke-width:1.5;" x="363.64328" xlink:href="#mb0f343d7d0" y="289.532673"/>
    </g>
   </g>
   <g id="line2d_63">
    <path d="M 333.168 206.806383 
L 363.64328 225.364752 
" style="fill:none;stroke:#6495ed;stroke-linecap:square;stroke-width:1.5;"/>
    <g>
     <use style="fill-opacity:0;stroke:#6495ed;stroke-linejoin:miter;stroke-width:1.5;" x="333.168" xlink:href="#m4463b29eba" y="206.806383"/>
     <use style="fill-opacity:0;stroke:#6495ed;stroke-linejoin:miter;stroke-width:1.5;" x="363.64328" xlink:href="#m4463b29eba" y="225.364752"/>
    </g>
   </g>
   <g id="line2d_64">
    <path d="M 333.168 206.282136 
L 363.64328 161.196832 
" style="fill:none;stroke:#ff00ff;stroke-linecap:square;stroke-width:1.5;"/>
    <g>
     <use style="fill-opacity:0;stroke:#ff00ff;stroke-linejoin:miter;stroke-width:1.5;" x="333.168" xlink:href="#m0d76be2bad" y="206.282136"/>
     <use style="fill-opacity:0;stroke:#ff00ff;stroke-linejoin:miter;stroke-width:1.5;" x="363.64328" xlink:href="#m0d76be2bad" y="161.196832"/>
    </g>
   </g>
   <g id="line2d_65">
    <path d="M 333.168 74.17171 
L 363.64328 97.028911 
" style="fill:none;stroke:#000080;stroke-linecap:square;stroke-width:1.5;"/>
    <g>
     <use style="fill-opacity:0;stroke:#000080;stroke-width:1.5;" x="333.168" xlink:href="#m7e6004a46c" y="74.17171"/>
     <use style="fill-opacity:0;stroke:#000080;stroke-width:1.5;" x="363.64328" xlink:href="#m7e6004a46c" y="97.028911"/>
    </g>
   </g>
   <g id="line2d_66">
    <path d="M 333.168 294.88 
L 333.168 27.513663 
" style="fill:none;stroke:#000000;stroke-linecap:square;stroke-width:1.5;"/>
   </g>
   <g id="patch_3">
    <path d="M 56.12 294.88 
L 56.12 24.84 
" style="fill:none;stroke:#000000;stroke-linecap:square;stroke-linejoin:miter;stroke-width:0.8;"/>
   </g>
   <g id="patch_4">
    <path d="M 333.168 294.88 
L 333.168 24.84 
" style="fill:none;stroke:#000000;stroke-linecap:square;stroke-linejoin:miter;stroke-width:0.8;"/>
   </g>
   <g id="patch_5">
    <path d="M 56.12 294.88 
L 333.168 294.88 
" style="fill:none;stroke:#000000;stroke-linecap:square;stroke-linejoin:miter;stroke-width:0.8;"/>
   </g>
   <g id="patch_6">
    <path d="M 56.12 24.84 
L 333.168 24.84 
" style="fill:none;stroke:#000000;stroke-linecap:square;stroke-linejoin:miter;stroke-width:0.8;"/>
   </g>
   <g id="text_13">
    <!-- R-SHADE-Tan -->
    <defs>
     <path d="M 44.390625 34.1875 
Q 47.5625 33.109375 50.5625 29.59375 
Q 53.5625 26.078125 56.59375 19.921875 
L 66.609375 0 
L 56 0 
L 46.6875 18.703125 
Q 43.0625 26.03125 39.671875 28.421875 
Q 36.28125 30.8125 30.421875 30.8125 
L 19.671875 30.8125 
L 19.671875 0 
L 9.8125 0 
L 9.8125 72.90625 
L 32.078125 72.90625 
Q 44.578125 72.90625 50.734375 67.671875 
Q 56.890625 62.453125 56.890625 51.90625 
Q 56.890625 45.015625 53.6875 40.46875 
Q 50.484375 35.9375 44.390625 34.1875 
z
M 19.671875 64.796875 
L 19.671875 38.921875 
L 32.078125 38.921875 
Q 39.203125 38.921875 42.84375 42.21875 
Q 46.484375 45.515625 46.484375 51.90625 
Q 46.484375 58.296875 42.84375 61.546875 
Q 39.203125 64.796875 32.078125 64.796875 
z
" id="DejaVuSans-52"/>
     <path d="M 53.515625 70.515625 
L 53.515625 60.890625 
Q 47.90625 63.578125 42.921875 64.890625 
Q 37.9375 66.21875 33.296875 66.21875 
Q 25.25 66.21875 20.875 63.09375 
Q 16.5 59.96875 16.5 54.203125 
Q 16.5 49.359375 19.40625 46.890625 
Q 22.3125 44.4375 30.421875 42.921875 
L 36.375 41.703125 
Q 47.40625 39.59375 52.65625 34.296875 
Q 57.90625 29 57.90625 20.125 
Q 57.90625 9.515625 50.796875 4.046875 
Q 43.703125 -1.421875 29.984375 -1.421875 
Q 24.8125 -1.421875 18.96875 -0.25 
Q 13.140625 0.921875 6.890625 3.21875 
L 6.890625 13.375 
Q 12.890625 10.015625 18.65625 8.296875 
Q 24.421875 6.59375 29.984375 6.59375 
Q 38.421875 6.59375 43.015625 9.90625 
Q 47.609375 13.234375 47.609375 19.390625 
Q 47.609375 24.75 44.3125 27.78125 
Q 41.015625 30.8125 33.5 32.328125 
L 27.484375 33.5 
Q 16.453125 35.6875 11.515625 40.375 
Q 6.59375 45.0625 6.59375 53.421875 
Q 6.59375 63.09375 13.40625 68.65625 
Q 20.21875 74.21875 32.171875 74.21875 
Q 37.3125 74.21875 42.625 73.28125 
Q 47.953125 72.359375 53.515625 70.515625 
z
" id="DejaVuSans-53"/>
     <path d="M 9.8125 72.90625 
L 19.671875 72.90625 
L 19.671875 43.015625 
L 55.515625 43.015625 
L 55.515625 72.90625 
L 65.375 72.90625 
L 65.375 0 
L 55.515625 0 
L 55.515625 34.71875 
L 19.671875 34.71875 
L 19.671875 0 
L 9.8125 0 
z
" id="DejaVuSans-48"/>
     <path d="M 34.1875 63.1875 
L 20.796875 26.90625 
L 47.609375 26.90625 
z
M 28.609375 72.90625 
L 39.796875 72.90625 
L 67.578125 0 
L 57.328125 0 
L 50.6875 18.703125 
L 17.828125 18.703125 
L 11.1875 0 
L 0.78125 0 
z
" id="DejaVuSans-41"/>
     <path d="M 19.671875 64.796875 
L 19.671875 8.109375 
L 31.59375 8.109375 
Q 46.6875 8.109375 53.6875 14.9375 
Q 60.6875 21.78125 60.6875 36.53125 
Q 60.6875 51.171875 53.6875 57.984375 
Q 46.6875 64.796875 31.59375 64.796875 
z
M 9.8125 72.90625 
L 30.078125 72.90625 
Q 51.265625 72.90625 61.171875 64.09375 
Q 71.09375 55.28125 71.09375 36.53125 
Q 71.09375 17.671875 61.125 8.828125 
Q 51.171875 0 30.078125 0 
L 9.8125 0 
z
" id="DejaVuSans-44"/>
     <path d="M 9.8125 72.90625 
L 55.90625 72.90625 
L 55.90625 64.59375 
L 19.671875 64.59375 
L 19.671875 43.015625 
L 54.390625 43.015625 
L 54.390625 34.71875 
L 19.671875 34.71875 
L 19.671875 8.296875 
L 56.78125 8.296875 
L 56.78125 0 
L 9.8125 0 
z
" id="DejaVuSans-45"/>
     <path d="M -0.296875 72.90625 
L 61.375 72.90625 
L 61.375 64.59375 
L 35.5 64.59375 
L 35.5 0 
L 25.59375 0 
L 25.59375 64.59375 
L -0.296875 64.59375 
z
" id="DejaVuSans-54"/>
    </defs>
    <g transform="translate(369.18424 294.223611)scale(0.17 -0.17)">
     <use xlink:href="#DejaVuSans-52"/>
     <use x="69.419922" xlink:href="#DejaVuSans-2d"/>
     <use x="105.503906" xlink:href="#DejaVuSans-53"/>
     <use x="168.980469" xlink:href="#DejaVuSans-48"/>
     <use x="244.175781" xlink:href="#DejaVuSans-41"/>
     <use x="312.583984" xlink:href="#DejaVuSans-44"/>
     <use x="389.585938" xlink:href="#DejaVuSans-45"/>
     <use x="452.769531" xlink:href="#DejaVuSans-2d"/>
     <use x="488.712891" xlink:href="#DejaVuSans-54"/>
     <use x="549.546875" xlink:href="#DejaVuSans-61"/>
     <use x="610.826172" xlink:href="#DejaVuSans-6e"/>
    </g>
   </g>
   <g id="text_14">
    <!-- KL-BIPOP-CM -->
    <defs>
     <path d="M 9.8125 72.90625 
L 19.671875 72.90625 
L 19.671875 42.09375 
L 52.390625 72.90625 
L 65.09375 72.90625 
L 28.90625 38.921875 
L 67.671875 0 
L 54.6875 0 
L 19.671875 35.109375 
L 19.671875 0 
L 9.8125 0 
z
" id="DejaVuSans-4b"/>
     <path d="M 9.8125 72.90625 
L 19.671875 72.90625 
L 19.671875 8.296875 
L 55.171875 8.296875 
L 55.171875 0 
L 9.8125 0 
z
" id="DejaVuSans-4c"/>
     <path d="M 19.671875 34.8125 
L 19.671875 8.109375 
L 35.5 8.109375 
Q 43.453125 8.109375 47.28125 11.40625 
Q 51.125 14.703125 51.125 21.484375 
Q 51.125 28.328125 47.28125 31.5625 
Q 43.453125 34.8125 35.5 34.8125 
z
M 19.671875 64.796875 
L 19.671875 42.828125 
L 34.28125 42.828125 
Q 41.5 42.828125 45.03125 45.53125 
Q 48.578125 48.25 48.578125 53.8125 
Q 48.578125 59.328125 45.03125 62.0625 
Q 41.5 64.796875 34.28125 64.796875 
z
M 9.8125 72.90625 
L 35.015625 72.90625 
Q 46.296875 72.90625 52.390625 68.21875 
Q 58.5 63.53125 58.5 54.890625 
Q 58.5 48.1875 55.375 44.234375 
Q 52.25 40.28125 46.1875 39.3125 
Q 53.46875 37.75 57.5 32.78125 
Q 61.53125 27.828125 61.53125 20.40625 
Q 61.53125 10.640625 54.890625 5.3125 
Q 48.25 0 35.984375 0 
L 9.8125 0 
z
" id="DejaVuSans-42"/>
     <path d="M 9.8125 72.90625 
L 19.671875 72.90625 
L 19.671875 0 
L 9.8125 0 
z
" id="DejaVuSans-49"/>
     <path d="M 19.671875 64.796875 
L 19.671875 37.40625 
L 32.078125 37.40625 
Q 38.96875 37.40625 42.71875 40.96875 
Q 46.484375 44.53125 46.484375 51.125 
Q 46.484375 57.671875 42.71875 61.234375 
Q 38.96875 64.796875 32.078125 64.796875 
z
M 9.8125 72.90625 
L 32.078125 72.90625 
Q 44.34375 72.90625 50.609375 67.359375 
Q 56.890625 61.8125 56.890625 51.125 
Q 56.890625 40.328125 50.609375 34.8125 
Q 44.34375 29.296875 32.078125 29.296875 
L 19.671875 29.296875 
L 19.671875 0 
L 9.8125 0 
z
" id="DejaVuSans-50"/>
     <path d="M 39.40625 66.21875 
Q 28.65625 66.21875 22.328125 58.203125 
Q 16.015625 50.203125 16.015625 36.375 
Q 16.015625 22.609375 22.328125 14.59375 
Q 28.65625 6.59375 39.40625 6.59375 
Q 50.140625 6.59375 56.421875 14.59375 
Q 62.703125 22.609375 62.703125 36.375 
Q 62.703125 50.203125 56.421875 58.203125 
Q 50.140625 66.21875 39.40625 66.21875 
z
M 39.40625 74.21875 
Q 54.734375 74.21875 63.90625 63.9375 
Q 73.09375 53.65625 73.09375 36.375 
Q 73.09375 19.140625 63.90625 8.859375 
Q 54.734375 -1.421875 39.40625 -1.421875 
Q 24.03125 -1.421875 14.8125 8.828125 
Q 5.609375 19.09375 5.609375 36.375 
Q 5.609375 53.65625 14.8125 63.9375 
Q 24.03125 74.21875 39.40625 74.21875 
z
" id="DejaVuSans-4f"/>
     <path d="M 64.40625 67.28125 
L 64.40625 56.890625 
Q 59.421875 61.53125 53.78125 63.8125 
Q 48.140625 66.109375 41.796875 66.109375 
Q 29.296875 66.109375 22.65625 58.46875 
Q 16.015625 50.828125 16.015625 36.375 
Q 16.015625 21.96875 22.65625 14.328125 
Q 29.296875 6.6875 41.796875 6.6875 
Q 48.140625 6.6875 53.78125 8.984375 
Q 59.421875 11.28125 64.40625 15.921875 
L 64.40625 5.609375 
Q 59.234375 2.09375 53.4375 0.328125 
Q 47.65625 -1.421875 41.21875 -1.421875 
Q 24.65625 -1.421875 15.125 8.703125 
Q 5.609375 18.84375 5.609375 36.375 
Q 5.609375 53.953125 15.125 64.078125 
Q 24.65625 74.21875 41.21875 74.21875 
Q 47.75 74.21875 53.53125 72.484375 
Q 59.328125 70.75 64.40625 67.28125 
z
" id="DejaVuSans-43"/>
     <path d="M 9.8125 72.90625 
L 24.515625 72.90625 
L 43.109375 23.296875 
L 61.8125 72.90625 
L 76.515625 72.90625 
L 76.515625 0 
L 66.890625 0 
L 66.890625 64.015625 
L 48.09375 14.015625 
L 38.1875 14.015625 
L 19.390625 64.015625 
L 19.390625 0 
L 9.8125 0 
z
" id="DejaVuSans-4d"/>
    </defs>
    <g transform="translate(369.18424 230.05569)scale(0.17 -0.17)">
     <use xlink:href="#DejaVuSans-4b"/>
     <use x="65.576172" xlink:href="#DejaVuSans-4c"/>
     <use x="121.273438" xlink:href="#DejaVuSans-2d"/>
     <use x="157.310547" xlink:href="#DejaVuSans-42"/>
     <use x="225.914062" xlink:href="#DejaVuSans-49"/>
     <use x="255.40625" xlink:href="#DejaVuSans-50"/>
     <use x="315.708984" xlink:href="#DejaVuSans-4f"/>
     <use x="394.419922" xlink:href="#DejaVuSans-50"/>
     <use x="454.691406" xlink:href="#DejaVuSans-2d"/>
     <use x="490.775391" xlink:href="#DejaVuSans-43"/>
     <use x="560.599609" xlink:href="#DejaVuSans-4d"/>
    </g>
   </g>
   <g id="text_15">
    <!-- SHADE-LM-PO -->
    <g transform="translate(369.18424 165.887769)scale(0.17 -0.17)">
     <use xlink:href="#DejaVuSans-53"/>
     <use x="63.476562" xlink:href="#DejaVuSans-48"/>
     <use x="138.671875" xlink:href="#DejaVuSans-41"/>
     <use x="207.080078" xlink:href="#DejaVuSans-44"/>
     <use x="284.082031" xlink:href="#DejaVuSans-45"/>
     <use x="347.265625" xlink:href="#DejaVuSans-2d"/>
     <use x="383.349609" xlink:href="#DejaVuSans-4c"/>
     <use x="439.0625" xlink:href="#DejaVuSans-4d"/>
     <use x="525.341797" xlink:href="#DejaVuSans-2d"/>
     <use x="561.425781" xlink:href="#DejaVuSans-50"/>
     <use x="621.728516" xlink:href="#DejaVuSans-4f"/>
    </g>
   </g>
   <g id="text_16">
    <!-- SHADE-LM -->
    <g transform="translate(369.18424 101.719848)scale(0.17 -0.17)">
     <use xlink:href="#DejaVuSans-53"/>
     <use x="63.476562" xlink:href="#DejaVuSans-48"/>
     <use x="138.671875" xlink:href="#DejaVuSans-41"/>
     <use x="207.080078" xlink:href="#DejaVuSans-44"/>
     <use x="284.082031" xlink:href="#DejaVuSans-45"/>
     <use x="347.265625" xlink:href="#DejaVuSans-2d"/>
     <use x="383.349609" xlink:href="#DejaVuSans-4c"/>
     <use x="439.0625" xlink:href="#DejaVuSans-4d"/>
    </g>
   </g>
   <g id="text_17">
    <!-- best 2009 -->
    <defs>
     <path d="M 48.6875 27.296875 
Q 48.6875 37.203125 44.609375 42.84375 
Q 40.53125 48.484375 33.40625 48.484375 
Q 26.265625 48.484375 22.1875 42.84375 
Q 18.109375 37.203125 18.109375 27.296875 
Q 18.109375 17.390625 22.1875 11.75 
Q 26.265625 6.109375 33.40625 6.109375 
Q 40.53125 6.109375 44.609375 11.75 
Q 48.6875 17.390625 48.6875 27.296875 
z
M 18.109375 46.390625 
Q 20.953125 51.265625 25.265625 53.625 
Q 29.59375 56 35.59375 56 
Q 45.5625 56 51.78125 48.09375 
Q 58.015625 40.1875 58.015625 27.296875 
Q 58.015625 14.40625 51.78125 6.484375 
Q 45.5625 -1.421875 35.59375 -1.421875 
Q 29.59375 -1.421875 25.265625 0.953125 
Q 20.953125 3.328125 18.109375 8.203125 
L 18.109375 0 
L 9.078125 0 
L 9.078125 75.984375 
L 18.109375 75.984375 
z
" id="DejaVuSans-62"/>
     <path d="M 10.984375 1.515625 
L 10.984375 10.5 
Q 14.703125 8.734375 18.5 7.8125 
Q 22.3125 6.890625 25.984375 6.890625 
Q 35.75 6.890625 40.890625 13.453125 
Q 46.046875 20.015625 46.78125 33.40625 
Q 43.953125 29.203125 39.59375 26.953125 
Q 35.25 24.703125 29.984375 24.703125 
Q 19.046875 24.703125 12.671875 31.3125 
Q 6.296875 37.9375 6.296875 49.421875 
Q 6.296875 60.640625 12.9375 67.421875 
Q 19.578125 74.21875 30.609375 74.21875 
Q 43.265625 74.21875 49.921875 64.515625 
Q 56.59375 54.828125 56.59375 36.375 
Q 56.59375 19.140625 48.40625 8.859375 
Q 40.234375 -1.421875 26.421875 -1.421875 
Q 22.703125 -1.421875 18.890625 -0.6875 
Q 15.09375 0.046875 10.984375 1.515625 
z
M 30.609375 32.421875 
Q 37.25 32.421875 41.125 36.953125 
Q 45.015625 41.5 45.015625 49.421875 
Q 45.015625 57.28125 41.125 61.84375 
Q 37.25 66.40625 30.609375 66.40625 
Q 23.96875 66.40625 20.09375 61.84375 
Q 16.21875 57.28125 16.21875 49.421875 
Q 16.21875 41.5 20.09375 36.953125 
Q 23.96875 32.421875 30.609375 32.421875 
z
" id="DejaVuSans-39"/>
    </defs>
    <g transform="translate(369.18424 37.551928)scale(0.17 -0.17)">
     <use xlink:href="#DejaVuSans-62"/>
     <use x="63.476562" xlink:href="#DejaVuSans-65"/>
     <use x="125" xlink:href="#DejaVuSans-73"/>
     <use x="177.099609" xlink:href="#DejaVuSans-74"/>
     <use x="216.308594" xlink:href="#DejaVuSans-20"/>
     <use x="248.095703" xlink:href="#DejaVuSans-32"/>
     <use x="311.71875" xlink:href="#DejaVuSans-30"/>
     <use x="375.341797" xlink:href="#DejaVuSans-30"/>
     <use x="438.964844" xlink:href="#DejaVuSans-39"/>
    </g>
   </g>
   <g id="text_18">
    <!-- bbob f24, 5-D -->
    <defs>
     <path d="M 10.796875 72.90625 
L 49.515625 72.90625 
L 49.515625 64.59375 
L 19.828125 64.59375 
L 19.828125 46.734375 
Q 21.96875 47.46875 24.109375 47.828125 
Q 26.265625 48.1875 28.421875 48.1875 
Q 40.625 48.1875 47.75 41.5 
Q 54.890625 34.8125 54.890625 23.390625 
Q 54.890625 11.625 47.5625 5.09375 
Q 40.234375 -1.421875 26.90625 -1.421875 
Q 22.3125 -1.421875 17.546875 -0.640625 
Q 12.796875 0.140625 7.71875 1.703125 
L 7.71875 11.625 
Q 12.109375 9.234375 16.796875 8.0625 
Q 21.484375 6.890625 26.703125 6.890625 
Q 35.15625 6.890625 40.078125 11.328125 
Q 45.015625 15.765625 45.015625 23.390625 
Q 45.015625 31 40.078125 35.4375 
Q 35.15625 39.890625 26.703125 39.890625 
Q 22.75 39.890625 18.8125 39.015625 
Q 14.890625 38.140625 10.796875 36.28125 
z
" id="DejaVuSans-35"/>
    </defs>
    <g transform="translate(58.89048 35.290806)scale(0.102 -0.102)">
     <use xlink:href="#DejaVuSans-62"/>
     <use x="63.476562" xlink:href="#DejaVuSans-62"/>
     <use x="126.953125" xlink:href="#DejaVuSans-6f"/>
     <use x="188.134766" xlink:href="#DejaVuSans-62"/>
     <use x="251.611328" xlink:href="#DejaVuSans-20"/>
     <use x="283.398438" xlink:href="#DejaVuSans-66"/>
     <use x="318.603516" xlink:href="#DejaVuSans-32"/>
     <use x="382.226562" xlink:href="#DejaVuSans-34"/>
     <use x="445.849609" xlink:href="#DejaVuSans-2c"/>
     <use x="477.636719" xlink:href="#DejaVuSans-20"/>
     <use x="509.423828" xlink:href="#DejaVuSans-35"/>
     <use x="573.046875" xlink:href="#DejaVuSans-2d"/>
     <use x="609.130859" xlink:href="#DejaVuSans-44"/>
    </g>
    <!-- 51 targets: 100..1e-08 -->
    <defs>
     <path d="M 11.71875 12.40625 
L 22.015625 12.40625 
L 22.015625 0 
L 11.71875 0 
z
M 11.71875 51.703125 
L 22.015625 51.703125 
L 22.015625 39.3125 
L 11.71875 39.3125 
z
" id="DejaVuSans-3a"/>
    </defs>
    <g transform="translate(58.89048 46.712575)scale(0.102 -0.102)">
     <use xlink:href="#DejaVuSans-35"/>
     <use x="63.623047" xlink:href="#DejaVuSans-31"/>
     <use x="127.246094" xlink:href="#DejaVuSans-20"/>
     <use x="159.033203" xlink:href="#DejaVuSans-74"/>
     <use x="198.242188" xlink:href="#DejaVuSans-61"/>
     <use x="259.521484" xlink:href="#DejaVuSans-72"/>
     <use x="300.619141" xlink:href="#DejaVuSans-67"/>
     <use x="364.095703" xlink:href="#DejaVuSans-65"/>
     <use x="425.619141" xlink:href="#DejaVuSans-74"/>
     <use x="464.828125" xlink:href="#DejaVuSans-73"/>
     <use x="516.927734" xlink:href="#DejaVuSans-3a"/>
     <use x="550.619141" xlink:href="#DejaVuSans-20"/>
     <use x="582.40625" xlink:href="#DejaVuSans-31"/>
     <use x="646.029297" xlink:href="#DejaVuSans-30"/>
     <use x="709.652344" xlink:href="#DejaVuSans-30"/>
     <use x="773.275391" xlink:href="#DejaVuSans-2e"/>
     <use x="805.0625" xlink:href="#DejaVuSans-2e"/>
     <use x="836.849609" xlink:href="#DejaVuSans-31"/>
     <use x="900.472656" xlink:href="#DejaVuSans-65"/>
     <use x="961.996094" xlink:href="#DejaVuSans-2d"/>
     <use x="998.080078" xlink:href="#DejaVuSans-30"/>
     <use x="1061.703125" xlink:href="#DejaVuSans-38"/>
    </g>
    <!-- 15 instances -->
    <g transform="translate(58.89048 58.134344)scale(0.102 -0.102)">
     <use xlink:href="#DejaVuSans-31"/>
     <use x="63.623047" xlink:href="#DejaVuSans-35"/>
     <use x="127.246094" xlink:href="#DejaVuSans-20"/>
     <use x="159.033203" xlink:href="#DejaVuSans-69"/>
     <use x="186.816406" xlink:href="#DejaVuSans-6e"/>
     <use x="250.195312" xlink:href="#DejaVuSans-73"/>
     <use x="302.294922" xlink:href="#DejaVuSans-74"/>
     <use x="341.503906" xlink:href="#DejaVuSans-61"/>
     <use x="402.783203" xlink:href="#DejaVuSans-6e"/>
     <use x="466.162109" xlink:href="#DejaVuSans-63"/>
     <use x="521.142578" xlink:href="#DejaVuSans-65"/>
     <use x="582.666016" xlink:href="#DejaVuSans-73"/>
    </g>
   </g>
   <g id="text_19">
    <!-- v2.4 -->
    <g style="fill:#808080;" transform="translate(183.733063 290.099912)scale(0.1 -0.1)">
     <use xlink:href="#DejaVuSans-76"/>
     <use x="59.179688" xlink:href="#DejaVuSans-32"/>
     <use x="122.802734" xlink:href="#DejaVuSans-2e"/>
     <use x="154.589844" xlink:href="#DejaVuSans-34"/>
    </g>
   </g>
   <g id="text_20">
    <!-- 24 Lunacek bi-Rastrigin -->
    <defs>
     <path d="M 9.078125 75.984375 
L 18.109375 75.984375 
L 18.109375 31.109375 
L 44.921875 54.6875 
L 56.390625 54.6875 
L 27.390625 29.109375 
L 57.625 0 
L 45.90625 0 
L 18.109375 26.703125 
L 18.109375 0 
L 9.078125 0 
z
" id="DejaVuSans-6b"/>
    </defs>
    <g transform="translate(76.4565 18.84)scale(0.2 -0.2)">
     <use xlink:href="#DejaVuSans-32"/>
     <use x="63.623047" xlink:href="#DejaVuSans-34"/>
     <use x="127.246094" xlink:href="#DejaVuSans-20"/>
     <use x="159.033203" xlink:href="#DejaVuSans-4c"/>
     <use x="214.730469" xlink:href="#DejaVuSans-75"/>
     <use x="278.109375" xlink:href="#DejaVuSans-6e"/>
     <use x="341.488281" xlink:href="#DejaVuSans-61"/>
     <use x="402.767578" xlink:href="#DejaVuSans-63"/>
     <use x="457.748047" xlink:href="#DejaVuSans-65"/>
     <use x="519.271484" xlink:href="#DejaVuSans-6b"/>
     <use x="577.181641" xlink:href="#DejaVuSans-20"/>
     <use x="608.96875" xlink:href="#DejaVuSans-62"/>
     <use x="672.445312" xlink:href="#DejaVuSans-69"/>
     <use x="700.228516" xlink:href="#DejaVuSans-2d"/>
     <use x="736.3125" xlink:href="#DejaVuSans-52"/>
     <use x="805.763672" xlink:href="#DejaVuSans-61"/>
     <use x="867.042969" xlink:href="#DejaVuSans-73"/>
     <use x="919.142578" xlink:href="#DejaVuSans-74"/>
     <use x="958.351562" xlink:href="#DejaVuSans-72"/>
     <use x="999.464844" xlink:href="#DejaVuSans-69"/>
     <use x="1027.248047" xlink:href="#DejaVuSans-67"/>
     <use x="1090.724609" xlink:href="#DejaVuSans-69"/>
     <use x="1118.507812" xlink:href="#DejaVuSans-6e"/>
    </g>
   </g>
  </g>
 </g>
 <defs>
  <clipPath id="pac9686bb41">
   <rect height="270.04" width="277.048" x="56.12" y="24.84"/>
  </clipPath>
 </defs>
</svg>
