<?xml version="1.0" encoding="utf-8" standalone="no"?>
<!DOCTYPE svg PUBLIC "-//W3C//DTD SVG 1.1//EN"
  "http://www.w3.org/Graphics/SVG/1.1/DTD/svg11.dtd">
<!-- Created with matplotlib (http://matplotlib.org/) -->
<svg height="345.6pt" version="1.1" viewBox="0 0 460.8 345.6" width="460.8pt" xmlns="http://www.w3.org/2000/svg" xmlns:xlink="http://www.w3.org/1999/xlink">
 <defs>
  <style type="text/css">
*{stroke-linecap:butt;stroke-linejoin:round;}
  </style>
 </defs>
 <g id="figure_1">
  <g id="patch_1">
   <path d="M 0 345.6 
L 460.8 345.6 
L 460.8 0 
L 0 0 
z
" style="fill:#ffffff;"/>
  </g>
  <g id="axes_1">
   <g id="patch_2">
    <path d="M 80.9907 289.912 
L 413.232 289.912 
L 413.232 5.52 
L 80.9907 5.52 
z
" style="fill:#ffffff;"/>
   </g>
   <g id="matplotlib.axis_1">
    <g id="xtick_1">
     <g id="line2d_1">
      <path clip-path="url(#p2d7f5410ac)" d="M 168.77655 289.912 
L 168.77655 5.52 
" style="fill:none;stroke:#b0b0b0;stroke-linecap:square;stroke-width:0.8;"/>
     </g>
     <g id="line2d_2">
      <defs>
       <path d="M 0 0 
L 0 3.5 
" id="m82412d63a8" style="stroke:#000000;stroke-width:0.8;"/>
      </defs>
      <g>
       <use style="stroke:#000000;stroke-width:0.8;" x="168.77655" xlink:href="#m82412d63a8" y="289.912"/>
      </g>
     </g>
     <g id="text_1">
      <!-- $\mathdefault{10^{0}}$ -->
      <defs>
       <path d="M 12.40625 8.296875 
L 28.515625 8.296875 
L 28.515625 63.921875 
L 10.984375 60.40625 
L 10.984375 69.390625 
L 28.421875 72.90625 
L 38.28125 72.90625 
L 38.28125 8.296875 
L 54.390625 8.296875 
L 54.390625 0 
L 12.40625 0 
z
" id="DejaVuSans-31"/>
       <path d="M 31.78125 66.40625 
Q 24.171875 66.40625 20.328125 58.90625 
Q 16.5 51.421875 16.5 36.375 
Q 16.5 21.390625 20.328125 13.890625 
Q 24.171875 6.390625 31.78125 6.390625 
Q 39.453125 6.390625 43.28125 13.890625 
Q 47.125 21.390625 47.125 36.375 
Q 47.125 51.421875 43.28125 58.90625 
Q 39.453125 66.40625 31.78125 66.40625 
z
M 31.78125 74.21875 
Q 44.046875 74.21875 50.515625 64.515625 
Q 56.984375 54.828125 56.984375 36.375 
Q 56.984375 17.96875 50.515625 8.265625 
Q 44.046875 -1.421875 31.78125 -1.421875 
Q 19.53125 -1.421875 13.0625 8.265625 
Q 6.59375 17.96875 6.59375 36.375 
Q 6.59375 54.828125 13.0625 64.515625 
Q 19.53125 74.21875 31.78125 74.21875 
z
" id="DejaVuSans-30"/>
      </defs>
      <g transform="translate(151.17655 312.108875)scale(0.2 -0.2)">
       <use transform="translate(0 0.765625)" xlink:href="#DejaVuSans-31"/>
       <use transform="translate(63.623047 0.765625)" xlink:href="#DejaVuSans-30"/>
       <use transform="translate(128.203125 39.046875)scale(0.7)" xlink:href="#DejaVuSans-30"/>
      </g>
     </g>
    </g>
    <g id="xtick_2">
     <g id="line2d_3">
      <path clip-path="url(#p2d7f5410ac)" d="M 280.509521 289.912 
L 280.509521 5.52 
" style="fill:none;stroke:#b0b0b0;stroke-linecap:square;stroke-width:0.8;"/>
     </g>
     <g id="line2d_4">
      <g>
       <use style="stroke:#000000;stroke-width:0.8;" x="280.509521" xlink:href="#m82412d63a8" y="289.912"/>
      </g>
     </g>
     <g id="text_2">
      <!-- $\mathdefault{10^{2}}$ -->
      <defs>
       <path d="M 19.1875 8.296875 
L 53.609375 8.296875 
L 53.609375 0 
L 7.328125 0 
L 7.328125 8.296875 
Q 12.9375 14.109375 22.625 23.890625 
Q 32.328125 33.6875 34.8125 36.53125 
Q 39.546875 41.84375 41.421875 45.53125 
Q 43.3125 49.21875 43.3125 52.78125 
Q 43.3125 58.59375 39.234375 62.25 
Q 35.15625 65.921875 28.609375 65.921875 
Q 23.96875 65.921875 18.8125 64.3125 
Q 13.671875 62.703125 7.8125 59.421875 
L 7.8125 69.390625 
Q 13.765625 71.78125 18.9375 73 
Q 24.125 74.21875 28.421875 74.21875 
Q 39.75 74.21875 46.484375 68.546875 
Q 53.21875 62.890625 53.21875 53.421875 
Q 53.21875 48.921875 51.53125 44.890625 
Q 49.859375 40.875 45.40625 35.40625 
Q 44.1875 33.984375 37.640625 27.21875 
Q 31.109375 20.453125 19.1875 8.296875 
z
" id="DejaVuSans-32"/>
      </defs>
      <g transform="translate(262.909521 312.108875)scale(0.2 -0.2)">
       <use transform="translate(0 0.765625)" xlink:href="#DejaVuSans-31"/>
       <use transform="translate(63.623047 0.765625)" xlink:href="#DejaVuSans-30"/>
       <use transform="translate(128.203125 39.046875)scale(0.7)" xlink:href="#DejaVuSans-32"/>
      </g>
     </g>
    </g>
    <g id="xtick_3">
     <g id="line2d_5">
      <path clip-path="url(#p2d7f5410ac)" d="M 392.242491 289.912 
L 392.242491 5.52 
" style="fill:none;stroke:#b0b0b0;stroke-linecap:square;stroke-width:0.8;"/>
     </g>
     <g id="line2d_6">
      <g>
       <use style="stroke:#000000;stroke-width:0.8;" x="392.242491" xlink:href="#m82412d63a8" y="289.912"/>
      </g>
     </g>
     <g id="text_3">
      <!-- $\mathdefault{10^{4}}$ -->
      <defs>
       <path d="M 37.796875 64.3125 
L 12.890625 25.390625 
L 37.796875 25.390625 
z
M 35.203125 72.90625 
L 47.609375 72.90625 
L 47.609375 25.390625 
L 58.015625 25.390625 
L 58.015625 17.1875 
L 47.609375 17.1875 
L 47.609375 0 
L 37.796875 0 
L 37.796875 17.1875 
L 4.890625 17.1875 
L 4.890625 26.703125 
z
" id="DejaVuSans-34"/>
      </defs>
      <g transform="translate(374.642491 312.108875)scale(0.2 -0.2)">
       <use transform="translate(0 0.684375)" xlink:href="#DejaVuSans-31"/>
       <use transform="translate(63.623047 0.684375)" xlink:href="#DejaVuSans-30"/>
       <use transform="translate(128.203125 38.965625)scale(0.7)" xlink:href="#DejaVuSans-34"/>
      </g>
     </g>
    </g>
    <g id="text_4">
     <!-- number of function evaluations / dimension -->
     <defs>
      <path d="M 54.890625 33.015625 
L 54.890625 0 
L 45.90625 0 
L 45.90625 32.71875 
Q 45.90625 40.484375 42.875 44.328125 
Q 39.84375 48.1875 33.796875 48.1875 
Q 26.515625 48.1875 22.3125 43.546875 
Q 18.109375 38.921875 18.109375 30.90625 
L 18.109375 0 
L 9.078125 0 
L 9.078125 54.6875 
L 18.109375 54.6875 
L 18.109375 46.1875 
Q 21.34375 51.125 25.703125 53.5625 
Q 30.078125 56 35.796875 56 
Q 45.21875 56 50.046875 50.171875 
Q 54.890625 44.34375 54.890625 33.015625 
z
" id="DejaVuSans-6e"/>
      <path d="M 8.5 21.578125 
L 8.5 54.6875 
L 17.484375 54.6875 
L 17.484375 21.921875 
Q 17.484375 14.15625 20.5 10.265625 
Q 23.53125 6.390625 29.59375 6.390625 
Q 36.859375 6.390625 41.078125 11.03125 
Q 45.3125 15.671875 45.3125 23.6875 
L 45.3125 54.6875 
L 54.296875 54.6875 
L 54.296875 0 
L 45.3125 0 
L 45.3125 8.40625 
Q 42.046875 3.421875 37.71875 1 
Q 33.40625 -1.421875 27.6875 -1.421875 
Q 18.265625 -1.421875 13.375 4.4375 
Q 8.5 10.296875 8.5 21.578125 
z
M 31.109375 56 
z
" id="DejaVuSans-75"/>
      <path d="M 52 44.1875 
Q 55.375 50.25 60.0625 53.125 
Q 64.75 56 71.09375 56 
Q 79.640625 56 84.28125 50.015625 
Q 88.921875 44.046875 88.921875 33.015625 
L 88.921875 0 
L 79.890625 0 
L 79.890625 32.71875 
Q 79.890625 40.578125 77.09375 44.375 
Q 74.3125 48.1875 68.609375 48.1875 
Q 61.625 48.1875 57.5625 43.546875 
Q 53.515625 38.921875 53.515625 30.90625 
L 53.515625 0 
L 44.484375 0 
L 44.484375 32.71875 
Q 44.484375 40.625 41.703125 44.40625 
Q 38.921875 48.1875 33.109375 48.1875 
Q 26.21875 48.1875 22.15625 43.53125 
Q 18.109375 38.875 18.109375 30.90625 
L 18.109375 0 
L 9.078125 0 
L 9.078125 54.6875 
L 18.109375 54.6875 
L 18.109375 46.1875 
Q 21.1875 51.21875 25.484375 53.609375 
Q 29.78125 56 35.6875 56 
Q 41.65625 56 45.828125 52.96875 
Q 50 49.953125 52 44.1875 
z
" id="DejaVuSans-6d"/>
      <path d="M 48.6875 27.296875 
Q 48.6875 37.203125 44.609375 42.84375 
Q 40.53125 48.484375 33.40625 48.484375 
Q 26.265625 48.484375 22.1875 42.84375 
Q 18.109375 37.203125 18.109375 27.296875 
Q 18.109375 17.390625 22.1875 11.75 
Q 26.265625 6.109375 33.40625 6.109375 
Q 40.53125 6.109375 44.609375 11.75 
Q 48.6875 17.390625 48.6875 27.296875 
z
M 18.109375 46.390625 
Q 20.953125 51.265625 25.265625 53.625 
Q 29.59375 56 35.59375 56 
Q 45.5625 56 51.78125 48.09375 
Q 58.015625 40.1875 58.015625 27.296875 
Q 58.015625 14.40625 51.78125 6.484375 
Q 45.5625 -1.421875 35.59375 -1.421875 
Q 29.59375 -1.421875 25.265625 0.953125 
Q 20.953125 3.328125 18.109375 8.203125 
L 18.109375 0 
L 9.078125 0 
L 9.078125 75.984375 
L 18.109375 75.984375 
z
" id="DejaVuSans-62"/>
      <path d="M 56.203125 29.59375 
L 56.203125 25.203125 
L 14.890625 25.203125 
Q 15.484375 15.921875 20.484375 11.0625 
Q 25.484375 6.203125 34.421875 6.203125 
Q 39.59375 6.203125 44.453125 7.46875 
Q 49.3125 8.734375 54.109375 11.28125 
L 54.109375 2.78125 
Q 49.265625 0.734375 44.1875 -0.34375 
Q 39.109375 -1.421875 33.890625 -1.421875 
Q 20.796875 -1.421875 13.15625 6.1875 
Q 5.515625 13.8125 5.515625 26.8125 
Q 5.515625 40.234375 12.765625 48.109375 
Q 20.015625 56 32.328125 56 
Q 43.359375 56 49.78125 48.890625 
Q 56.203125 41.796875 56.203125 29.59375 
z
M 47.21875 32.234375 
Q 47.125 39.59375 43.09375 43.984375 
Q 39.0625 48.390625 32.421875 48.390625 
Q 24.90625 48.390625 20.390625 44.140625 
Q 15.875 39.890625 15.1875 32.171875 
z
" id="DejaVuSans-65"/>
      <path d="M 41.109375 46.296875 
Q 39.59375 47.171875 37.8125 47.578125 
Q 36.03125 48 33.890625 48 
Q 26.265625 48 22.1875 43.046875 
Q 18.109375 38.09375 18.109375 28.8125 
L 18.109375 0 
L 9.078125 0 
L 9.078125 54.6875 
L 18.109375 54.6875 
L 18.109375 46.1875 
Q 20.953125 51.171875 25.484375 53.578125 
Q 30.03125 56 36.53125 56 
Q 37.453125 56 38.578125 55.875 
Q 39.703125 55.765625 41.0625 55.515625 
z
" id="DejaVuSans-72"/>
      <path id="DejaVuSans-20"/>
      <path d="M 30.609375 48.390625 
Q 23.390625 48.390625 19.1875 42.75 
Q 14.984375 37.109375 14.984375 27.296875 
Q 14.984375 17.484375 19.15625 11.84375 
Q 23.34375 6.203125 30.609375 6.203125 
Q 37.796875 6.203125 41.984375 11.859375 
Q 46.1875 17.53125 46.1875 27.296875 
Q 46.1875 37.015625 41.984375 42.703125 
Q 37.796875 48.390625 30.609375 48.390625 
z
M 30.609375 56 
Q 42.328125 56 49.015625 48.375 
Q 55.71875 40.765625 55.71875 27.296875 
Q 55.71875 13.875 49.015625 6.21875 
Q 42.328125 -1.421875 30.609375 -1.421875 
Q 18.84375 -1.421875 12.171875 6.21875 
Q 5.515625 13.875 5.515625 27.296875 
Q 5.515625 40.765625 12.171875 48.375 
Q 18.84375 56 30.609375 56 
z
" id="DejaVuSans-6f"/>
      <path d="M 37.109375 75.984375 
L 37.109375 68.5 
L 28.515625 68.5 
Q 23.6875 68.5 21.796875 66.546875 
Q 19.921875 64.59375 19.921875 59.515625 
L 19.921875 54.6875 
L 34.71875 54.6875 
L 34.71875 47.703125 
L 19.921875 47.703125 
L 19.921875 0 
L 10.890625 0 
L 10.890625 47.703125 
L 2.296875 47.703125 
L 2.296875 54.6875 
L 10.890625 54.6875 
L 10.890625 58.5 
Q 10.890625 67.625 15.140625 71.796875 
Q 19.390625 75.984375 28.609375 75.984375 
z
" id="DejaVuSans-66"/>
      <path d="M 48.78125 52.59375 
L 48.78125 44.1875 
Q 44.96875 46.296875 41.140625 47.34375 
Q 37.3125 48.390625 33.40625 48.390625 
Q 24.65625 48.390625 19.8125 42.84375 
Q 14.984375 37.3125 14.984375 27.296875 
Q 14.984375 17.28125 19.8125 11.734375 
Q 24.65625 6.203125 33.40625 6.203125 
Q 37.3125 6.203125 41.140625 7.25 
Q 44.96875 8.296875 48.78125 10.40625 
L 48.78125 2.09375 
Q 45.015625 0.34375 40.984375 -0.53125 
Q 36.96875 -1.421875 32.421875 -1.421875 
Q 20.0625 -1.421875 12.78125 6.34375 
Q 5.515625 14.109375 5.515625 27.296875 
Q 5.515625 40.671875 12.859375 48.328125 
Q 20.21875 56 33.015625 56 
Q 37.15625 56 41.109375 55.140625 
Q 45.0625 54.296875 48.78125 52.59375 
z
" id="DejaVuSans-63"/>
      <path d="M 18.3125 70.21875 
L 18.3125 54.6875 
L 36.8125 54.6875 
L 36.8125 47.703125 
L 18.3125 47.703125 
L 18.3125 18.015625 
Q 18.3125 11.328125 20.140625 9.421875 
Q 21.96875 7.515625 27.59375 7.515625 
L 36.8125 7.515625 
L 36.8125 0 
L 27.59375 0 
Q 17.1875 0 13.234375 3.875 
Q 9.28125 7.765625 9.28125 18.015625 
L 9.28125 47.703125 
L 2.6875 47.703125 
L 2.6875 54.6875 
L 9.28125 54.6875 
L 9.28125 70.21875 
z
" id="DejaVuSans-74"/>
      <path d="M 9.421875 54.6875 
L 18.40625 54.6875 
L 18.40625 0 
L 9.421875 0 
z
M 9.421875 75.984375 
L 18.40625 75.984375 
L 18.40625 64.59375 
L 9.421875 64.59375 
z
" id="DejaVuSans-69"/>
      <path d="M 2.984375 54.6875 
L 12.5 54.6875 
L 29.59375 8.796875 
L 46.6875 54.6875 
L 56.203125 54.6875 
L 35.6875 0 
L 23.484375 0 
z
" id="DejaVuSans-76"/>
      <path d="M 34.28125 27.484375 
Q 23.390625 27.484375 19.1875 25 
Q 14.984375 22.515625 14.984375 16.5 
Q 14.984375 11.71875 18.140625 8.90625 
Q 21.296875 6.109375 26.703125 6.109375 
Q 34.1875 6.109375 38.703125 11.40625 
Q 43.21875 16.703125 43.21875 25.484375 
L 43.21875 27.484375 
z
M 52.203125 31.203125 
L 52.203125 0 
L 43.21875 0 
L 43.21875 8.296875 
Q 40.140625 3.328125 35.546875 0.953125 
Q 30.953125 -1.421875 24.3125 -1.421875 
Q 15.921875 -1.421875 10.953125 3.296875 
Q 6 8.015625 6 15.921875 
Q 6 25.140625 12.171875 29.828125 
Q 18.359375 34.515625 30.609375 34.515625 
L 43.21875 34.515625 
L 43.21875 35.40625 
Q 43.21875 41.609375 39.140625 45 
Q 35.0625 48.390625 27.6875 48.390625 
Q 23 48.390625 18.546875 47.265625 
Q 14.109375 46.140625 10.015625 43.890625 
L 10.015625 52.203125 
Q 14.9375 54.109375 19.578125 55.046875 
Q 24.21875 56 28.609375 56 
Q 40.484375 56 46.34375 49.84375 
Q 52.203125 43.703125 52.203125 31.203125 
z
" id="DejaVuSans-61"/>
      <path d="M 9.421875 75.984375 
L 18.40625 75.984375 
L 18.40625 0 
L 9.421875 0 
z
" id="DejaVuSans-6c"/>
      <path d="M 44.28125 53.078125 
L 44.28125 44.578125 
Q 40.484375 46.53125 36.375 47.5 
Q 32.28125 48.484375 27.875 48.484375 
Q 21.1875 48.484375 17.84375 46.4375 
Q 14.5 44.390625 14.5 40.28125 
Q 14.5 37.15625 16.890625 35.375 
Q 19.28125 33.59375 26.515625 31.984375 
L 29.59375 31.296875 
Q 39.15625 29.25 43.1875 25.515625 
Q 47.21875 21.78125 47.21875 15.09375 
Q 47.21875 7.46875 41.1875 3.015625 
Q 35.15625 -1.421875 24.609375 -1.421875 
Q 20.21875 -1.421875 15.453125 -0.5625 
Q 10.6875 0.296875 5.421875 2 
L 5.421875 11.28125 
Q 10.40625 8.6875 15.234375 7.390625 
Q 20.0625 6.109375 24.8125 6.109375 
Q 31.15625 6.109375 34.5625 8.28125 
Q 37.984375 10.453125 37.984375 14.40625 
Q 37.984375 18.0625 35.515625 20.015625 
Q 33.0625 21.96875 24.703125 23.78125 
L 21.578125 24.515625 
Q 13.234375 26.265625 9.515625 29.90625 
Q 5.8125 33.546875 5.8125 39.890625 
Q 5.8125 47.609375 11.28125 51.796875 
Q 16.75 56 26.8125 56 
Q 31.78125 56 36.171875 55.265625 
Q 40.578125 54.546875 44.28125 53.078125 
z
" id="DejaVuSans-73"/>
      <path d="M 25.390625 72.90625 
L 33.6875 72.90625 
L 8.296875 -9.28125 
L 0 -9.28125 
z
" id="DejaVuSans-2f"/>
      <path d="M 45.40625 46.390625 
L 45.40625 75.984375 
L 54.390625 75.984375 
L 54.390625 0 
L 45.40625 0 
L 45.40625 8.203125 
Q 42.578125 3.328125 38.25 0.953125 
Q 33.9375 -1.421875 27.875 -1.421875 
Q 17.96875 -1.421875 11.734375 6.484375 
Q 5.515625 14.40625 5.515625 27.296875 
Q 5.515625 40.1875 11.734375 48.09375 
Q 17.96875 56 27.875 56 
Q 33.9375 56 38.25 53.625 
Q 42.578125 51.265625 45.40625 46.390625 
z
M 14.796875 27.296875 
Q 14.796875 17.390625 18.875 11.75 
Q 22.953125 6.109375 30.078125 6.109375 
Q 37.203125 6.109375 41.296875 11.75 
Q 45.40625 17.390625 45.40625 27.296875 
Q 45.40625 37.203125 41.296875 42.84375 
Q 37.203125 48.484375 30.078125 48.484375 
Q 22.953125 48.484375 18.875 42.84375 
Q 14.796875 37.203125 14.796875 27.296875 
z
" id="DejaVuSans-64"/>
     </defs>
     <g transform="translate(28.726975 335.465125)scale(0.2 -0.2)">
      <use xlink:href="#DejaVuSans-6e"/>
      <use x="63.378906" xlink:href="#DejaVuSans-75"/>
      <use x="126.757812" xlink:href="#DejaVuSans-6d"/>
      <use x="224.169922" xlink:href="#DejaVuSans-62"/>
      <use x="287.646484" xlink:href="#DejaVuSans-65"/>
      <use x="349.169922" xlink:href="#DejaVuSans-72"/>
      <use x="390.283203" xlink:href="#DejaVuSans-20"/>
      <use x="422.070312" xlink:href="#DejaVuSans-6f"/>
      <use x="483.251953" xlink:href="#DejaVuSans-66"/>
      <use x="518.457031" xlink:href="#DejaVuSans-20"/>
      <use x="550.244141" xlink:href="#DejaVuSans-66"/>
      <use x="585.449219" xlink:href="#DejaVuSans-75"/>
      <use x="648.828125" xlink:href="#DejaVuSans-6e"/>
      <use x="712.207031" xlink:href="#DejaVuSans-63"/>
      <use x="767.1875" xlink:href="#DejaVuSans-74"/>
      <use x="806.396484" xlink:href="#DejaVuSans-69"/>
      <use x="834.179688" xlink:href="#DejaVuSans-6f"/>
      <use x="895.361328" xlink:href="#DejaVuSans-6e"/>
      <use x="958.740234" xlink:href="#DejaVuSans-20"/>
      <use x="990.527344" xlink:href="#DejaVuSans-65"/>
      <use x="1052.050781" xlink:href="#DejaVuSans-76"/>
      <use x="1111.230469" xlink:href="#DejaVuSans-61"/>
      <use x="1172.509766" xlink:href="#DejaVuSans-6c"/>
      <use x="1200.292969" xlink:href="#DejaVuSans-75"/>
      <use x="1263.671875" xlink:href="#DejaVuSans-61"/>
      <use x="1324.951172" xlink:href="#DejaVuSans-74"/>
      <use x="1364.160156" xlink:href="#DejaVuSans-69"/>
      <use x="1391.943359" xlink:href="#DejaVuSans-6f"/>
      <use x="1453.125" xlink:href="#DejaVuSans-6e"/>
      <use x="1516.503906" xlink:href="#DejaVuSans-73"/>
      <use x="1568.603516" xlink:href="#DejaVuSans-20"/>
      <use x="1600.390625" xlink:href="#DejaVuSans-2f"/>
      <use x="1634.082031" xlink:href="#DejaVuSans-20"/>
      <use x="1665.869141" xlink:href="#DejaVuSans-64"/>
      <use x="1729.345703" xlink:href="#DejaVuSans-69"/>
      <use x="1757.128906" xlink:href="#DejaVuSans-6d"/>
      <use x="1854.541016" xlink:href="#DejaVuSans-65"/>
      <use x="1916.064453" xlink:href="#DejaVuSans-6e"/>
      <use x="1979.443359" xlink:href="#DejaVuSans-73"/>
      <use x="2031.542969" xlink:href="#DejaVuSans-69"/>
      <use x="2059.326172" xlink:href="#DejaVuSans-6f"/>
      <use x="2120.507812" xlink:href="#DejaVuSans-6e"/>
     </g>
    </g>
   </g>
   <g id="matplotlib.axis_2">
    <g id="ytick_1">
     <g id="line2d_7">
      <path clip-path="url(#p2d7f5410ac)" d="M 80.9907 289.912 
L 413.232 289.912 
" style="fill:none;stroke:#b0b0b0;stroke-linecap:square;stroke-width:0.8;"/>
     </g>
     <g id="line2d_8">
      <defs>
       <path d="M 0 0 
L -3.5 0 
" id="m770ab48f70" style="stroke:#000000;stroke-width:0.8;"/>
      </defs>
      <g>
       <use style="stroke:#000000;stroke-width:0.8;" x="80.9907" xlink:href="#m770ab48f70" y="289.912"/>
      </g>
     </g>
     <g id="text_5">
      <!-- $\mathdefault{10^{-8}}$ -->
      <defs>
       <path d="M 10.59375 35.5 
L 73.1875 35.5 
L 73.1875 27.203125 
L 10.59375 27.203125 
z
" id="DejaVuSans-2212"/>
       <path d="M 31.78125 34.625 
Q 24.75 34.625 20.71875 30.859375 
Q 16.703125 27.09375 16.703125 20.515625 
Q 16.703125 13.921875 20.71875 10.15625 
Q 24.75 6.390625 31.78125 6.390625 
Q 38.8125 6.390625 42.859375 10.171875 
Q 46.921875 13.96875 46.921875 20.515625 
Q 46.921875 27.09375 42.890625 30.859375 
Q 38.875 34.625 31.78125 34.625 
z
M 21.921875 38.8125 
Q 15.578125 40.375 12.03125 44.71875 
Q 8.5 49.078125 8.5 55.328125 
Q 8.5 64.0625 14.71875 69.140625 
Q 20.953125 74.21875 31.78125 74.21875 
Q 42.671875 74.21875 48.875 69.140625 
Q 55.078125 64.0625 55.078125 55.328125 
Q 55.078125 49.078125 51.53125 44.71875 
Q 48 40.375 41.703125 38.8125 
Q 48.828125 37.15625 52.796875 32.3125 
Q 56.78125 27.484375 56.78125 20.515625 
Q 56.78125 9.90625 50.3125 4.234375 
Q 43.84375 -1.421875 31.78125 -1.421875 
Q 19.734375 -1.421875 13.25 4.234375 
Q 6.78125 9.90625 6.78125 20.515625 
Q 6.78125 27.484375 10.78125 32.3125 
Q 14.796875 37.15625 21.921875 38.8125 
z
M 18.3125 54.390625 
Q 18.3125 48.734375 21.84375 45.5625 
Q 25.390625 42.390625 31.78125 42.390625 
Q 38.140625 42.390625 41.71875 45.5625 
Q 45.3125 48.734375 45.3125 54.390625 
Q 45.3125 60.0625 41.71875 63.234375 
Q 38.140625 66.40625 31.78125 66.40625 
Q 25.390625 66.40625 21.84375 63.234375 
Q 18.3125 60.0625 18.3125 54.390625 
z
" id="DejaVuSans-38"/>
      </defs>
      <g transform="translate(26.9907 297.510438)scale(0.2 -0.2)">
       <use transform="translate(0 0.765625)" xlink:href="#DejaVuSans-31"/>
       <use transform="translate(63.623047 0.765625)" xlink:href="#DejaVuSans-30"/>
       <use transform="translate(128.203125 39.046875)scale(0.7)" xlink:href="#DejaVuSans-2212"/>
       <use transform="translate(186.855469 39.046875)scale(0.7)" xlink:href="#DejaVuSans-38"/>
      </g>
     </g>
    </g>
    <g id="ytick_2">
     <g id="line2d_9">
      <path clip-path="url(#p2d7f5410ac)" d="M 80.9907 236.436521 
L 413.232 236.436521 
" style="fill:none;stroke:#b0b0b0;stroke-linecap:square;stroke-width:0.8;"/>
     </g>
     <g id="line2d_10">
      <g>
       <use style="stroke:#000000;stroke-width:0.8;" x="80.9907" xlink:href="#m770ab48f70" y="236.436521"/>
      </g>
     </g>
     <g id="text_6">
      <!-- $\mathdefault{10^{-5}}$ -->
      <defs>
       <path d="M 10.796875 72.90625 
L 49.515625 72.90625 
L 49.515625 64.59375 
L 19.828125 64.59375 
L 19.828125 46.734375 
Q 21.96875 47.46875 24.109375 47.828125 
Q 26.265625 48.1875 28.421875 48.1875 
Q 40.625 48.1875 47.75 41.5 
Q 54.890625 34.8125 54.890625 23.390625 
Q 54.890625 11.625 47.5625 5.09375 
Q 40.234375 -1.421875 26.90625 -1.421875 
Q 22.3125 -1.421875 17.546875 -0.640625 
Q 12.796875 0.140625 7.71875 1.703125 
L 7.71875 11.625 
Q 12.109375 9.234375 16.796875 8.0625 
Q 21.484375 6.890625 26.703125 6.890625 
Q 35.15625 6.890625 40.078125 11.328125 
Q 45.015625 15.765625 45.015625 23.390625 
Q 45.015625 31 40.078125 35.4375 
Q 35.15625 39.890625 26.703125 39.890625 
Q 22.75 39.890625 18.8125 39.015625 
Q 14.890625 38.140625 10.796875 36.28125 
z
" id="DejaVuSans-35"/>
      </defs>
      <g transform="translate(26.9907 244.034958)scale(0.2 -0.2)">
       <use transform="translate(0 0.684375)" xlink:href="#DejaVuSans-31"/>
       <use transform="translate(63.623047 0.684375)" xlink:href="#DejaVuSans-30"/>
       <use transform="translate(128.203125 38.965625)scale(0.7)" xlink:href="#DejaVuSans-2212"/>
       <use transform="translate(186.855469 38.965625)scale(0.7)" xlink:href="#DejaVuSans-35"/>
      </g>
     </g>
    </g>
    <g id="ytick_3">
     <g id="line2d_11">
      <path clip-path="url(#p2d7f5410ac)" d="M 80.9907 182.961041 
L 413.232 182.961041 
" style="fill:none;stroke:#b0b0b0;stroke-linecap:square;stroke-width:0.8;"/>
     </g>
     <g id="line2d_12">
      <g>
       <use style="stroke:#000000;stroke-width:0.8;" x="80.9907" xlink:href="#m770ab48f70" y="182.961041"/>
      </g>
     </g>
     <g id="text_7">
      <!-- $\mathdefault{10^{-2}}$ -->
      <g transform="translate(26.9907 190.559479)scale(0.2 -0.2)">
       <use transform="translate(0 0.765625)" xlink:href="#DejaVuSans-31"/>
       <use transform="translate(63.623047 0.765625)" xlink:href="#DejaVuSans-30"/>
       <use transform="translate(128.203125 39.046875)scale(0.7)" xlink:href="#DejaVuSans-2212"/>
       <use transform="translate(186.855469 39.046875)scale(0.7)" xlink:href="#DejaVuSans-32"/>
      </g>
     </g>
    </g>
    <g id="ytick_4">
     <g id="line2d_13">
      <path clip-path="url(#p2d7f5410ac)" d="M 80.9907 129.485562 
L 413.232 129.485562 
" style="fill:none;stroke:#b0b0b0;stroke-linecap:square;stroke-width:0.8;"/>
     </g>
     <g id="line2d_14">
      <g>
       <use style="stroke:#000000;stroke-width:0.8;" x="80.9907" xlink:href="#m770ab48f70" y="129.485562"/>
      </g>
     </g>
     <g id="text_8">
      <!-- $\mathdefault{10^{1}}$ -->
      <g transform="translate(38.7907 137.083999)scale(0.2 -0.2)">
       <use transform="translate(0 0.684375)" xlink:href="#DejaVuSans-31"/>
       <use transform="translate(63.623047 0.684375)" xlink:href="#DejaVuSans-30"/>
       <use transform="translate(128.203125 38.965625)scale(0.7)" xlink:href="#DejaVuSans-31"/>
      </g>
     </g>
    </g>
    <g id="ytick_5">
     <g id="line2d_15">
      <path clip-path="url(#p2d7f5410ac)" d="M 80.9907 76.010082 
L 413.232 76.010082 
" style="fill:none;stroke:#b0b0b0;stroke-linecap:square;stroke-width:0.8;"/>
     </g>
     <g id="line2d_16">
      <g>
       <use style="stroke:#000000;stroke-width:0.8;" x="80.9907" xlink:href="#m770ab48f70" y="76.010082"/>
      </g>
     </g>
     <g id="text_9">
      <!-- $\mathdefault{10^{4}}$ -->
      <g transform="translate(38.7907 83.60852)scale(0.2 -0.2)">
       <use transform="translate(0 0.684375)" xlink:href="#DejaVuSans-31"/>
       <use transform="translate(63.623047 0.684375)" xlink:href="#DejaVuSans-30"/>
       <use transform="translate(128.203125 38.965625)scale(0.7)" xlink:href="#DejaVuSans-34"/>
      </g>
     </g>
    </g>
    <g id="ytick_6">
     <g id="line2d_17">
      <path clip-path="url(#p2d7f5410ac)" d="M 80.9907 22.534603 
L 413.232 22.534603 
" style="fill:none;stroke:#b0b0b0;stroke-linecap:square;stroke-width:0.8;"/>
     </g>
     <g id="line2d_18">
      <g>
       <use style="stroke:#000000;stroke-width:0.8;" x="80.9907" xlink:href="#m770ab48f70" y="22.534603"/>
      </g>
     </g>
     <g id="text_10">
      <!-- $\mathdefault{10^{7}}$ -->
      <defs>
       <path d="M 8.203125 72.90625 
L 55.078125 72.90625 
L 55.078125 68.703125 
L 28.609375 0 
L 18.3125 0 
L 43.21875 64.59375 
L 8.203125 64.59375 
z
" id="DejaVuSans-37"/>
      </defs>
      <g transform="translate(38.7907 30.13304)scale(0.2 -0.2)">
       <use transform="translate(0 0.684375)" xlink:href="#DejaVuSans-31"/>
       <use transform="translate(63.623047 0.684375)" xlink:href="#DejaVuSans-30"/>
       <use transform="translate(128.203125 38.965625)scale(0.7)" xlink:href="#DejaVuSans-37"/>
      </g>
     </g>
    </g>
    <g id="text_11">
     <!-- Median of fitness -->
     <defs>
      <path d="M 9.8125 72.90625 
L 24.515625 72.90625 
L 43.109375 23.296875 
L 61.8125 72.90625 
L 76.515625 72.90625 
L 76.515625 0 
L 66.890625 0 
L 66.890625 64.015625 
L 48.09375 14.015625 
L 38.1875 14.015625 
L 19.390625 64.015625 
L 19.390625 0 
L 9.8125 0 
z
" id="DejaVuSans-4d"/>
     </defs>
     <g transform="translate(18.831325 233.212875)rotate(-90)scale(0.2 -0.2)">
      <use xlink:href="#DejaVuSans-4d"/>
      <use x="86.279297" xlink:href="#DejaVuSans-65"/>
      <use x="147.802734" xlink:href="#DejaVuSans-64"/>
      <use x="211.279297" xlink:href="#DejaVuSans-69"/>
      <use x="239.0625" xlink:href="#DejaVuSans-61"/>
      <use x="300.341797" xlink:href="#DejaVuSans-6e"/>
      <use x="363.720703" xlink:href="#DejaVuSans-20"/>
      <use x="395.507812" xlink:href="#DejaVuSans-6f"/>
      <use x="456.689453" xlink:href="#DejaVuSans-66"/>
      <use x="491.894531" xlink:href="#DejaVuSans-20"/>
      <use x="523.681641" xlink:href="#DejaVuSans-66"/>
      <use x="558.886719" xlink:href="#DejaVuSans-69"/>
      <use x="586.669922" xlink:href="#DejaVuSans-74"/>
      <use x="625.878906" xlink:href="#DejaVuSans-6e"/>
      <use x="689.257812" xlink:href="#DejaVuSans-65"/>
      <use x="750.78125" xlink:href="#DejaVuSans-73"/>
      <use x="802.880859" xlink:href="#DejaVuSans-73"/>
     </g>
    </g>
   </g>
   <g id="line2d_19">
    <path clip-path="url(#p2d7f5410ac)" d="M 151.959062 20.607789 
L 168.77655 46.0168 
L 178.61415 46.0168 
L 185.594038 46.0168 
L 191.00806 46.0168 
L 195.431638 53.228399 
L 199.17172 81.939098 
L 202.411526 83.789489 
L 207.825548 84.542329 
L 210.138012 84.636024 
L 212.249126 84.636024 
L 215.989207 84.636024 
L 217.663147 84.636024 
L 220.699919 94.956223 
L 223.398532 94.956223 
L 224.643035 94.956223 
L 226.955499 94.956223 
L 230.057057 94.956223 
L 232.806695 96.02782 
L 235.276198 99.394199 
L 238.220717 108.959437 
L 240.84625 114.14223 
L 241.460523 114.665797 
L 243.772987 116.285002 
L 246.874545 120.674729 
L 249.624183 123.79297 
L 252.481895 125.435464 
L 255.038205 130.135222 
L 257.972818 131.665946 
L 260.86463 133.510363 
L 263.692033 136.649956 
L 266.441671 140.515313 
L 269.106055 151.073754 
L 272.02838 151.073754 
L 274.790306 152.591712 
L 277.545428 154.347162 
L 278.486474 154.347162 
L 280.387904 156.115244 
L 280.509521 156.115244 
L 281.461113 156.115244 
L 283.150601 163.632112 
L 283.259159 163.632112 
L 284.110562 163.632112 
L 285.728662 163.632112 
L 286.020399 205.066844 
L 286.498965 205.066844 
L 288.759678 238.667539 
L 291.607794 292.954199 
L 291.912987 292.954199 
L 294.225451 294.363567 
L 294.362916 294.363567 
L 297.205392 294.363567 
L 297.327008 294.363567 
L 299.968089 294.363567 
L 301.342804 294.974243 
L 302.789507 294.974243 
L 305.577166 294.974243 
L 305.834823 294.974243 
L 308.34838 295.382098 
L 308.425282 295.382098 
L 311.14611 295.382098 
L 313.961842 295.382098 
L 316.758362 295.382098 
L 319.558518 295.382098 
L 319.751846 296.541294 
L 322.351443 296.541294 
L 323.982096 302.112153 
L 325.127325 302.112153 
L 327.929256 302.112153 
L 330.718138 302.112153 
L 331.708582 303.187849 
" style="fill:none;stroke:#1f77b4;stroke-linecap:square;stroke-width:1.5;"/>
   </g>
   <g id="line2d_20">
    <path clip-path="url(#p2d7f5410ac)" d="M 142.121463 21.599907 
L 158.938951 34.802726 
L 168.77655 41.924871 
L 175.756438 42.818109 
L 181.17046 42.818109 
L 185.594038 43.02859 
L 189.33412 47.962503 
L 192.573926 52.583561 
L 197.987948 57.047707 
L 200.300412 74.750607 
L 202.411526 83.404272 
L 206.151608 83.404272 
L 207.825548 83.404272 
L 210.862319 83.404272 
L 213.560932 83.404272 
L 217.1179 85.305072 
L 220.219458 95.112568 
L 222.969095 95.112568 
L 224.643035 95.112568 
L 225.438599 95.112568 
L 228.383117 104.443431 
L 231.00865 109.553097 
L 233.935387 109.553097 
L 237.036945 111.478224 
L 239.786583 111.515079 
L 241.460523 112.354401 
L 242.644295 112.354401 
L 245.200605 116.133591 
L 248.135219 117.991703 
L 251.027031 122.060781 
L 253.854433 124.462488 
L 256.604071 126.347834 
L 259.268455 128.331435 
L 262.190781 129.092353 
L 263.692033 129.688901 
L 264.952706 130.809992 
L 267.707828 131.481104 
L 270.550304 132.425657 
L 273.313002 140.939945 
L 276.182799 141.783588 
L 278.922078 145.009059 
L 280.509521 151.044992 
L 281.770194 152.333685 
L 284.525316 165.818464 
L 287.367792 168.536898 
L 290.130489 194.29944 
L 291.298713 194.29944 
L 292.512091 194.29944 
L 292.951907 240.219412 
L 294.770698 240.219412 
L 295.303962 240.219412 
L 295.739566 266.226601 
L 296.83684 289.36812 
L 297.327008 289.36812 
L 297.80747 291.668009 
L 298.51078 291.668009 
L 299.194276 291.877805 
L 300.506083 291.877805 
L 300.92805 295.938063 
L 301.30851 295.938063 
L 302.151629 298.533228 
L 304.124242 298.533228 
L 306.920762 298.533228 
L 309.720918 298.533228 
L 309.914246 298.533228 
L 312.513844 298.533228 
L 315.289725 298.533228 
L 316.235383 299.211468 
L 318.091656 299.211468 
L 319.558518 299.211468 
L 320.880538 299.211468 
L 323.683727 299.211468 
L 326.477674 299.211468 
L 329.266371 299.211468 
L 330.097579 299.211468 
" style="fill:none;stroke:#ff7f0e;stroke-linecap:square;stroke-width:1.5;"/>
   </g>
   <g id="line2d_21">
    <path clip-path="url(#p2d7f5410ac)" d="M 129.727553 20.750577 
L 146.545041 34.361025 
L 156.38264 35.946361 
L 163.362528 46.380263 
L 168.77655 49.15014 
L 173.200128 49.50626 
L 176.94021 49.50626 
L 180.180016 51.145746 
L 185.594038 56.121682 
L 187.906502 57.623838 
L 190.017616 58.150946 
L 193.757698 61.320158 
L 195.431638 61.320158 
L 198.468409 65.350542 
L 201.167022 65.790151 
L 204.72399 65.790151 
L 207.825548 65.790151 
L 210.575186 65.790151 
L 213.044689 65.790151 
L 215.989207 73.866071 
L 218.61474 73.866071 
L 221.541477 73.866071 
L 224.643035 73.866071 
L 227.392673 74.638008 
L 230.250385 91.75381 
L 232.806695 94.357123 
L 235.741309 94.357123 
L 238.633121 97.116106 
L 241.460523 101.986562 
L 244.210161 101.986562 
L 246.874545 101.986562 
L 249.796871 110.824045 
L 252.558796 111.35803 
L 255.313918 112.784738 
L 258.156394 118.861817 
L 260.919092 118.861817 
L 263.692033 120.703388 
L 263.788889 120.703388 
L 266.528168 124.630594 
L 269.376284 125.683853 
L 272.131406 127.430572 
L 274.973882 127.907306 
L 277.73658 131.813857 
L 280.509521 135.471461 
L 280.557997 135.471461 
L 283.345656 137.89408 
L 286.11687 141.530096 
L 288.9146 146.940584 
L 291.730332 151.853103 
L 294.526852 156.29108 
L 297.327008 160.788802 
L 300.119934 172.565094 
L 302.895816 179.155373 
L 305.697746 193.34479 
L 308.486628 207.471532 
L 311.289817 214.038325 
L 314.083764 233.521575 
L 315.328268 233.521575 
L 316.45696 233.521575 
L 316.676532 233.521575 
L 316.872462 249.546951 
L 319.558518 273.528523 
L 319.665039 273.528523 
L 319.751846 273.528523 
L 321.604846 274.38814 
L 321.959049 277.36241 
L 322.134231 290.059094 
L 322.46363 290.059094 
L 323.65642 291.415532 
L 323.982096 291.415532 
L 325.258121 291.415532 
L 326.29456 291.415532 
L 326.441162 291.796267 
L 328.05266 291.796267 
L 330.222967 293.603682 
L 330.846463 293.603682 
L 333.635683 293.603682 
L 336.376006 293.603682 
" style="fill:none;stroke:#2ca02c;stroke-linecap:square;stroke-width:1.5;"/>
   </g>
   <g id="line2d_22">
    <path clip-path="url(#p2d7f5410ac)" d="M 112.910065 19.694659 
L 129.727553 32.542506 
L 139.565153 36.110367 
L 146.545041 44.691481 
L 151.959062 45.166943 
L 156.38264 50.173372 
L 160.122722 65.605688 
L 163.362528 66.816459 
L 168.77655 66.816459 
L 171.089014 66.816459 
L 173.200128 66.816459 
L 176.94021 69.875939 
L 178.61415 70.329546 
L 181.650922 73.165198 
L 184.349534 73.165198 
L 185.594038 73.165198 
L 187.906502 73.165198 
L 191.00806 74.790613 
L 193.757698 74.790613 
L 196.227201 75.977552 
L 199.17172 75.977552 
L 201.797252 75.977552 
L 204.72399 75.977552 
L 207.825548 75.977552 
L 210.575186 75.977552 
L 213.432897 77.698298 
L 215.989207 77.698298 
L 218.923821 84.729047 
L 221.815633 84.729047 
L 224.643035 91.232453 
L 227.392673 91.232453 
L 230.057057 91.232453 
L 232.979383 93.910452 
L 235.741309 103.027717 
L 238.49643 104.689957 
L 241.338906 105.258674 
L 241.460523 105.258674 
L 244.101604 108.348492 
L 246.971402 109.350969 
L 249.71068 111.567616 
L 252.558796 111.781553 
L 255.313918 112.575272 
L 258.156394 114.042216 
L 260.919092 114.042216 
L 263.692033 115.170772 
L 263.740509 115.170772 
L 266.528168 115.170772 
L 269.299382 117.295265 
L 272.097113 117.762661 
L 274.912844 118.881867 
L 277.709364 119.935884 
L 280.509521 121.270852 
L 283.302446 124.658895 
L 286.078328 128.038718 
L 288.880259 130.04691 
L 291.66914 133.425002 
L 294.472329 137.472022 
L 297.266276 139.463765 
L 297.327008 139.463765 
L 300.054974 144.292484 
L 302.847551 145.530458 
L 305.646142 146.71487 
L 308.440633 150.239586 
L 311.235172 154.3933 
L 314.028975 161.164521 
L 316.818195 162.477737 
L 319.558518 162.995407 
L 319.611837 162.995407 
L 322.407602 163.220686 
L 325.200504 169.56825 
L 327.994464 177.513608 
L 330.788495 177.785772 
L 333.581295 177.908875 
L 336.376006 177.963478 
L 339.168931 178.139393 
L 341.962165 179.09344 
L 344.755334 179.296331 
L 347.547876 180.267743 
L 350.341544 186.581163 
L 353.135194 204.262687 
L 353.193494 204.262687 
L 355.929047 213.951212 
L 358.721765 228.289438 
L 361.51521 234.224796 
L 364.308653 237.290331 
L 364.59696 237.290331 
L 366.43613 237.290331 
L 367.102341 249.404181 
L 367.156302 249.404181 
L 368.638443 249.404181 
L 369.89546 261.839621 
L 372.499261 265.789456 
L 372.689026 274.884334 
L 373.232584 274.884334 
L 375.292655 274.884334 
L 375.425003 283.904841 
L 375.482195 283.913595 
L 376.417621 289.929594 
L 377.878222 289.931069 
L 378.275813 289.931069 
L 380.153976 289.976154 
L 381.068912 289.976154 
L 381.625821 290.054491 
L 381.998753 290.309903 
L 382.260831 290.52656 
L 383.86232 290.52656 
L 386.655591 290.52656 
L 388.879257 290.52656 
L 389.449141 290.52656 
L 390.322604 290.554624 
" style="fill:none;stroke:#d62728;stroke-linecap:square;stroke-width:1.5;"/>
   </g>
   <g id="line2d_23">
    <path clip-path="url(#p2d7f5410ac)" d="M 96.092577 20.590677 
L 112.910065 33.120561 
L 122.747665 44.501378 
L 129.727553 54.768987 
L 135.141575 54.768987 
L 139.565153 55.953391 
L 143.305234 55.953391 
L 146.545041 55.953391 
L 151.959062 55.953391 
L 154.271526 55.953391 
L 156.38264 59.539502 
L 160.122722 59.539502 
L 161.796662 60.272506 
L 164.833434 60.272506 
L 167.532046 63.553791 
L 168.77655 66.181893 
L 171.089014 66.181893 
L 174.190572 66.181893 
L 176.94021 72.455955 
L 179.409713 72.455955 
L 182.354232 80.552312 
L 184.979765 83.373647 
L 185.594038 83.373647 
L 187.906502 85.001342 
L 191.00806 85.001342 
L 193.757698 89.262762 
L 196.615409 90.567435 
L 199.17172 90.567435 
L 202.106333 90.567435 
L 204.998145 91.54311 
L 207.825548 91.54311 
L 210.575186 91.54311 
L 213.239569 91.655608 
L 216.161895 91.655608 
L 218.923821 91.655608 
L 221.678942 91.655608 
L 224.521419 99.68993 
L 224.643035 99.68993 
L 227.284116 99.68993 
L 230.153914 101.602638 
L 232.893193 101.602638 
L 235.741309 105.166375 
L 238.49643 105.962697 
L 241.338906 106.046566 
L 241.460523 106.046566 
L 244.101604 106.061501 
L 246.923022 106.297878 
L 249.71068 106.756596 
L 252.481895 107.003998 
L 255.279625 107.969052 
L 258.095356 109.780312 
L 260.891876 109.780312 
L 263.692033 109.780312 
L 266.484958 109.940874 
L 269.26084 109.940874 
L 272.062771 110.41893 
L 274.851653 111.703918 
L 277.654842 111.832838 
L 280.448788 112.43037 
L 280.509521 112.43037 
L 283.237486 112.862486 
L 286.030063 114.502177 
L 288.828654 116.15977 
L 291.623145 117.504241 
L 294.417684 119.201413 
L 297.211487 120.969683 
L 297.327008 120.969683 
L 300.000707 121.946374 
L 302.794349 123.427924 
L 305.590114 123.958931 
L 308.383016 124.179662 
L 311.176976 124.912346 
L 313.971007 127.908072 
L 316.763807 128.482227 
L 319.558518 129.289953 
L 322.351443 131.36493 
L 325.144677 132.590259 
L 327.937846 133.630509 
L 330.730388 135.778894 
L 333.524056 137.045023 
L 336.317706 138.623647 
L 336.376006 138.623647 
L 339.111559 140.208603 
L 341.904277 142.157231 
L 344.697723 143.038121 
L 347.491165 146.054854 
L 350.284853 147.229446 
L 353.077972 149.466763 
L 353.193494 149.556012 
L 355.871538 153.853975 
L 358.664708 158.105518 
L 361.458325 162.549045 
L 364.251424 164.502376 
L 367.044832 174.480195 
L 369.838103 179.705247 
L 372.631654 186.790051 
L 375.425003 197.98282 
L 378.218145 206.885749 
L 381.011548 214.803163 
L 383.804846 227.238959 
L 386.598251 238.59477 
L 387.0939 238.59477 
L 389.391496 248.952889 
L 392.037825 248.952889 
L 392.184921 272.724087 
L 392.242491 272.754856 
L 392.836861 272.754856 
L 393.091217 272.754856 
L 393.500093 272.754856 
L 393.701976 277.353588 
L 394.29952 277.353588 
L 394.774527 289.927675 
L 394.957444 289.974873 
L 394.978261 289.974873 
L 396.051796 289.996294 
L 396.795125 289.996294 
L 397.406784 289.99965 
L 397.703052 289.99965 
L 397.771535 289.99965 
L 397.903698 289.99965 
L 398.130123 290.000641 
" style="fill:none;stroke:#9467bd;stroke-linecap:square;stroke-width:1.5;"/>
   </g>
   <g id="patch_3">
    <path d="M 80.9907 289.912 
L 80.9907 5.52 
" style="fill:none;stroke:#000000;stroke-linecap:square;stroke-linejoin:miter;stroke-width:0.8;"/>
   </g>
   <g id="patch_4">
    <path d="M 413.232 289.912 
L 413.232 5.52 
" style="fill:none;stroke:#000000;stroke-linecap:square;stroke-linejoin:miter;stroke-width:0.8;"/>
   </g>
   <g id="patch_5">
    <path d="M 80.9907 289.912 
L 413.232 289.912 
" style="fill:none;stroke:#000000;stroke-linecap:square;stroke-linejoin:miter;stroke-width:0.8;"/>
   </g>
   <g id="patch_6">
    <path d="M 80.9907 5.52 
L 413.232 5.52 
" style="fill:none;stroke:#000000;stroke-linecap:square;stroke-linejoin:miter;stroke-width:0.8;"/>
   </g>
   <g id="text_12">
    <!-- bbob - f11 -->
    <defs>
     <path d="M 4.890625 31.390625 
L 31.203125 31.390625 
L 31.203125 23.390625 
L 4.890625 23.390625 
z
" id="DejaVuSans-2d"/>
    </defs>
    <g transform="translate(84.313113 26.404715)scale(0.2 -0.2)">
     <use xlink:href="#DejaVuSans-62"/>
     <use x="63.476562" xlink:href="#DejaVuSans-62"/>
     <use x="126.953125" xlink:href="#DejaVuSans-6f"/>
     <use x="188.134766" xlink:href="#DejaVuSans-62"/>
     <use x="251.611328" xlink:href="#DejaVuSans-20"/>
     <use x="283.398438" xlink:href="#DejaVuSans-2d"/>
     <use x="319.482422" xlink:href="#DejaVuSans-20"/>
     <use x="351.269531" xlink:href="#DejaVuSans-66"/>
     <use x="386.474609" xlink:href="#DejaVuSans-31"/>
     <use x="450.097656" xlink:href="#DejaVuSans-31"/>
    </g>
    <!-- 15 instances -->
    <g transform="translate(84.313113 48.80034)scale(0.2 -0.2)">
     <use xlink:href="#DejaVuSans-31"/>
     <use x="63.623047" xlink:href="#DejaVuSans-35"/>
     <use x="127.246094" xlink:href="#DejaVuSans-20"/>
     <use x="159.033203" xlink:href="#DejaVuSans-69"/>
     <use x="186.816406" xlink:href="#DejaVuSans-6e"/>
     <use x="250.195312" xlink:href="#DejaVuSans-73"/>
     <use x="302.294922" xlink:href="#DejaVuSans-74"/>
     <use x="341.503906" xlink:href="#DejaVuSans-61"/>
     <use x="402.783203" xlink:href="#DejaVuSans-6e"/>
     <use x="466.162109" xlink:href="#DejaVuSans-63"/>
     <use x="521.142578" xlink:href="#DejaVuSans-65"/>
     <use x="582.666016" xlink:href="#DejaVuSans-73"/>
    </g>
   </g>
   <g id="text_13">
    <!-- v2.4 -->
    <defs>
     <path d="M 10.6875 12.40625 
L 21 12.40625 
L 21 0 
L 10.6875 0 
z
" id="DejaVuSans-2e"/>
    </defs>
    <g style="fill:#808080;" transform="translate(236.200412 284.988393)scale(0.1 -0.1)">
     <use xlink:href="#DejaVuSans-76"/>
     <use x="59.179688" xlink:href="#DejaVuSans-32"/>
     <use x="122.802734" xlink:href="#DejaVuSans-2e"/>
     <use x="154.589844" xlink:href="#DejaVuSans-34"/>
    </g>
   </g>
   <g id="legend_1">
    <g id="patch_7">
     <path d="M 94.9907 279.912 
L 199.8407 279.912 
Q 203.8407 279.912 203.8407 275.912 
L 203.8407 131.13075 
Q 203.8407 127.13075 199.8407 127.13075 
L 94.9907 127.13075 
Q 90.9907 127.13075 90.9907 131.13075 
L 90.9907 275.912 
Q 90.9907 279.912 94.9907 279.912 
z
" style="fill:#ffffff;opacity:0.2;stroke:#cccccc;stroke-linejoin:miter;"/>
    </g>
    <g id="line2d_24">
     <path d="M 98.9907 143.327625 
L 138.9907 143.327625 
" style="fill:none;stroke:#1f77b4;stroke-linecap:square;stroke-width:1.5;"/>
    </g>
    <g id="line2d_25"/>
    <g id="text_14">
     <!-- 2D -->
     <defs>
      <path d="M 19.671875 64.796875 
L 19.671875 8.109375 
L 31.59375 8.109375 
Q 46.6875 8.109375 53.6875 14.9375 
Q 60.6875 21.78125 60.6875 36.53125 
Q 60.6875 51.171875 53.6875 57.984375 
Q 46.6875 64.796875 31.59375 64.796875 
z
M 9.8125 72.90625 
L 30.078125 72.90625 
Q 51.265625 72.90625 61.171875 64.09375 
Q 71.09375 55.28125 71.09375 36.53125 
Q 71.09375 17.671875 61.125 8.828125 
Q 51.171875 0 30.078125 0 
L 9.8125 0 
z
" id="DejaVuSans-44"/>
     </defs>
     <g transform="translate(154.9907 150.327625)scale(0.2 -0.2)">
      <use xlink:href="#DejaVuSans-32"/>
      <use x="63.623047" xlink:href="#DejaVuSans-44"/>
     </g>
    </g>
    <g id="line2d_26">
     <path d="M 98.9907 172.683875 
L 138.9907 172.683875 
" style="fill:none;stroke:#ff7f0e;stroke-linecap:square;stroke-width:1.5;"/>
    </g>
    <g id="line2d_27"/>
    <g id="text_15">
     <!-- 3D -->
     <defs>
      <path d="M 40.578125 39.3125 
Q 47.65625 37.796875 51.625 33 
Q 55.609375 28.21875 55.609375 21.1875 
Q 55.609375 10.40625 48.1875 4.484375 
Q 40.765625 -1.421875 27.09375 -1.421875 
Q 22.515625 -1.421875 17.65625 -0.515625 
Q 12.796875 0.390625 7.625 2.203125 
L 7.625 11.71875 
Q 11.71875 9.328125 16.59375 8.109375 
Q 21.484375 6.890625 26.8125 6.890625 
Q 36.078125 6.890625 40.9375 10.546875 
Q 45.796875 14.203125 45.796875 21.1875 
Q 45.796875 27.640625 41.28125 31.265625 
Q 36.765625 34.90625 28.71875 34.90625 
L 20.21875 34.90625 
L 20.21875 43.015625 
L 29.109375 43.015625 
Q 36.375 43.015625 40.234375 45.921875 
Q 44.09375 48.828125 44.09375 54.296875 
Q 44.09375 59.90625 40.109375 62.90625 
Q 36.140625 65.921875 28.71875 65.921875 
Q 24.65625 65.921875 20.015625 65.03125 
Q 15.375 64.15625 9.8125 62.3125 
L 9.8125 71.09375 
Q 15.4375 72.65625 20.34375 73.4375 
Q 25.25 74.21875 29.59375 74.21875 
Q 40.828125 74.21875 47.359375 69.109375 
Q 53.90625 64.015625 53.90625 55.328125 
Q 53.90625 49.265625 50.4375 45.09375 
Q 46.96875 40.921875 40.578125 39.3125 
z
" id="DejaVuSans-33"/>
     </defs>
     <g transform="translate(154.9907 179.683875)scale(0.2 -0.2)">
      <use xlink:href="#DejaVuSans-33"/>
      <use x="63.623047" xlink:href="#DejaVuSans-44"/>
     </g>
    </g>
    <g id="line2d_28">
     <path d="M 98.9907 202.040125 
L 138.9907 202.040125 
" style="fill:none;stroke:#2ca02c;stroke-linecap:square;stroke-width:1.5;"/>
    </g>
    <g id="line2d_29"/>
    <g id="text_16">
     <!-- 5D -->
     <g transform="translate(154.9907 209.040125)scale(0.2 -0.2)">
      <use xlink:href="#DejaVuSans-35"/>
      <use x="63.623047" xlink:href="#DejaVuSans-44"/>
     </g>
    </g>
    <g id="line2d_30">
     <path d="M 98.9907 231.396375 
L 138.9907 231.396375 
" style="fill:none;stroke:#d62728;stroke-linecap:square;stroke-width:1.5;"/>
    </g>
    <g id="line2d_31"/>
    <g id="text_17">
     <!-- 10D -->
     <g transform="translate(154.9907 238.396375)scale(0.2 -0.2)">
      <use xlink:href="#DejaVuSans-31"/>
      <use x="63.623047" xlink:href="#DejaVuSans-30"/>
      <use x="127.246094" xlink:href="#DejaVuSans-44"/>
     </g>
    </g>
    <g id="line2d_32">
     <path d="M 98.9907 260.752625 
L 138.9907 260.752625 
" style="fill:none;stroke:#9467bd;stroke-linecap:square;stroke-width:1.5;"/>
    </g>
    <g id="line2d_33"/>
    <g id="text_18">
     <!-- 20D -->
     <g transform="translate(154.9907 267.752625)scale(0.2 -0.2)">
      <use xlink:href="#DejaVuSans-32"/>
      <use x="63.623047" xlink:href="#DejaVuSans-30"/>
      <use x="127.246094" xlink:href="#DejaVuSans-44"/>
     </g>
    </g>
   </g>
  </g>
 </g>
 <defs>
  <clipPath id="p2d7f5410ac">
   <rect height="284.392" width="332.2413" x="80.9907" y="5.52"/>
  </clipPath>
 </defs>
</svg>
