<?xml version="1.0" encoding="utf-8" standalone="no"?>
<!DOCTYPE svg PUBLIC "-//W3C//DTD SVG 1.1//EN"
  "http://www.w3.org/Graphics/SVG/1.1/DTD/svg11.dtd">
<!-- Created with matplotlib (http://matplotlib.org/) -->
<svg height="345.6pt" version="1.1" viewBox="0 0 460.8 345.6" width="460.8pt" xmlns="http://www.w3.org/2000/svg" xmlns:xlink="http://www.w3.org/1999/xlink">
 <defs>
  <style type="text/css">
*{stroke-linecap:butt;stroke-linejoin:round;}
  </style>
 </defs>
 <g id="figure_1">
  <g id="patch_1">
   <path d="M 0 345.6 
L 460.8 345.6 
L 460.8 0 
L 0 0 
z
" style="fill:#ffffff;"/>
  </g>
  <g id="axes_1">
   <g id="patch_2">
    <path d="M 80.9907 289.912 
L 413.232 289.912 
L 413.232 5.52 
L 80.9907 5.52 
z
" style="fill:#ffffff;"/>
   </g>
   <g id="matplotlib.axis_1">
    <g id="xtick_1">
     <g id="line2d_1">
      <path clip-path="url(#p6bfc95eaec)" d="M 114.616895 289.912 
L 114.616895 5.52 
" style="fill:none;stroke:#b0b0b0;stroke-linecap:square;stroke-width:0.8;"/>
     </g>
     <g id="line2d_2">
      <defs>
       <path d="M 0 0 
L 0 3.5 
" id="m2c3d3deed0" style="stroke:#000000;stroke-width:0.8;"/>
      </defs>
      <g>
       <use style="stroke:#000000;stroke-width:0.8;" x="114.616895" xlink:href="#m2c3d3deed0" y="289.912"/>
      </g>
     </g>
     <g id="text_1">
      <!-- $\mathdefault{10^{-1}}$ -->
      <defs>
       <path d="M 12.40625 8.296875 
L 28.515625 8.296875 
L 28.515625 63.921875 
L 10.984375 60.40625 
L 10.984375 69.390625 
L 28.421875 72.90625 
L 38.28125 72.90625 
L 38.28125 8.296875 
L 54.390625 8.296875 
L 54.390625 0 
L 12.40625 0 
z
" id="DejaVuSans-31"/>
       <path d="M 31.78125 66.40625 
Q 24.171875 66.40625 20.328125 58.90625 
Q 16.5 51.421875 16.5 36.375 
Q 16.5 21.390625 20.328125 13.890625 
Q 24.171875 6.390625 31.78125 6.390625 
Q 39.453125 6.390625 43.28125 13.890625 
Q 47.125 21.390625 47.125 36.375 
Q 47.125 51.421875 43.28125 58.90625 
Q 39.453125 66.40625 31.78125 66.40625 
z
M 31.78125 74.21875 
Q 44.046875 74.21875 50.515625 64.515625 
Q 56.984375 54.828125 56.984375 36.375 
Q 56.984375 17.96875 50.515625 8.265625 
Q 44.046875 -1.421875 31.78125 -1.421875 
Q 19.53125 -1.421875 13.0625 8.265625 
Q 6.59375 17.96875 6.59375 36.375 
Q 6.59375 54.828125 13.0625 64.515625 
Q 19.53125 74.21875 31.78125 74.21875 
z
" id="DejaVuSans-30"/>
       <path d="M 10.59375 35.5 
L 73.1875 35.5 
L 73.1875 27.203125 
L 10.59375 27.203125 
z
" id="DejaVuSans-2212"/>
      </defs>
      <g transform="translate(91.116895 312.108875)scale(0.2 -0.2)">
       <use transform="translate(0 0.684375)" xlink:href="#DejaVuSans-31"/>
       <use transform="translate(63.623047 0.684375)" xlink:href="#DejaVuSans-30"/>
       <use transform="translate(128.203125 38.965625)scale(0.7)" xlink:href="#DejaVuSans-2212"/>
       <use transform="translate(186.855469 38.965625)scale(0.7)" xlink:href="#DejaVuSans-31"/>
      </g>
     </g>
    </g>
    <g id="xtick_2">
     <g id="line2d_3">
      <path clip-path="url(#p6bfc95eaec)" d="M 176.153345 289.912 
L 176.153345 5.52 
" style="fill:none;stroke:#b0b0b0;stroke-linecap:square;stroke-width:0.8;"/>
     </g>
     <g id="line2d_4">
      <g>
       <use style="stroke:#000000;stroke-width:0.8;" x="176.153345" xlink:href="#m2c3d3deed0" y="289.912"/>
      </g>
     </g>
     <g id="text_2">
      <!-- $\mathdefault{10^{0}}$ -->
      <g transform="translate(158.553345 312.108875)scale(0.2 -0.2)">
       <use transform="translate(0 0.765625)" xlink:href="#DejaVuSans-31"/>
       <use transform="translate(63.623047 0.765625)" xlink:href="#DejaVuSans-30"/>
       <use transform="translate(128.203125 39.046875)scale(0.7)" xlink:href="#DejaVuSans-30"/>
      </g>
     </g>
    </g>
    <g id="xtick_3">
     <g id="line2d_5">
      <path clip-path="url(#p6bfc95eaec)" d="M 237.689796 289.912 
L 237.689796 5.52 
" style="fill:none;stroke:#b0b0b0;stroke-linecap:square;stroke-width:0.8;"/>
     </g>
     <g id="line2d_6">
      <g>
       <use style="stroke:#000000;stroke-width:0.8;" x="237.689796" xlink:href="#m2c3d3deed0" y="289.912"/>
      </g>
     </g>
     <g id="text_3">
      <!-- $\mathdefault{10^{1}}$ -->
      <g transform="translate(220.089796 312.108875)scale(0.2 -0.2)">
       <use transform="translate(0 0.684375)" xlink:href="#DejaVuSans-31"/>
       <use transform="translate(63.623047 0.684375)" xlink:href="#DejaVuSans-30"/>
       <use transform="translate(128.203125 38.965625)scale(0.7)" xlink:href="#DejaVuSans-31"/>
      </g>
     </g>
    </g>
    <g id="xtick_4">
     <g id="line2d_7">
      <path clip-path="url(#p6bfc95eaec)" d="M 299.226247 289.912 
L 299.226247 5.52 
" style="fill:none;stroke:#b0b0b0;stroke-linecap:square;stroke-width:0.8;"/>
     </g>
     <g id="line2d_8">
      <g>
       <use style="stroke:#000000;stroke-width:0.8;" x="299.226247" xlink:href="#m2c3d3deed0" y="289.912"/>
      </g>
     </g>
     <g id="text_4">
      <!-- $\mathdefault{10^{2}}$ -->
      <defs>
       <path d="M 19.1875 8.296875 
L 53.609375 8.296875 
L 53.609375 0 
L 7.328125 0 
L 7.328125 8.296875 
Q 12.9375 14.109375 22.625 23.890625 
Q 32.328125 33.6875 34.8125 36.53125 
Q 39.546875 41.84375 41.421875 45.53125 
Q 43.3125 49.21875 43.3125 52.78125 
Q 43.3125 58.59375 39.234375 62.25 
Q 35.15625 65.921875 28.609375 65.921875 
Q 23.96875 65.921875 18.8125 64.3125 
Q 13.671875 62.703125 7.8125 59.421875 
L 7.8125 69.390625 
Q 13.765625 71.78125 18.9375 73 
Q 24.125 74.21875 28.421875 74.21875 
Q 39.75 74.21875 46.484375 68.546875 
Q 53.21875 62.890625 53.21875 53.421875 
Q 53.21875 48.921875 51.53125 44.890625 
Q 49.859375 40.875 45.40625 35.40625 
Q 44.1875 33.984375 37.640625 27.21875 
Q 31.109375 20.453125 19.1875 8.296875 
z
" id="DejaVuSans-32"/>
      </defs>
      <g transform="translate(281.626247 312.108875)scale(0.2 -0.2)">
       <use transform="translate(0 0.765625)" xlink:href="#DejaVuSans-31"/>
       <use transform="translate(63.623047 0.765625)" xlink:href="#DejaVuSans-30"/>
       <use transform="translate(128.203125 39.046875)scale(0.7)" xlink:href="#DejaVuSans-32"/>
      </g>
     </g>
    </g>
    <g id="xtick_5">
     <g id="line2d_9">
      <path clip-path="url(#p6bfc95eaec)" d="M 360.762697 289.912 
L 360.762697 5.52 
" style="fill:none;stroke:#b0b0b0;stroke-linecap:square;stroke-width:0.8;"/>
     </g>
     <g id="line2d_10">
      <g>
       <use style="stroke:#000000;stroke-width:0.8;" x="360.762697" xlink:href="#m2c3d3deed0" y="289.912"/>
      </g>
     </g>
     <g id="text_5">
      <!-- $\mathdefault{10^{3}}$ -->
      <defs>
       <path d="M 40.578125 39.3125 
Q 47.65625 37.796875 51.625 33 
Q 55.609375 28.21875 55.609375 21.1875 
Q 55.609375 10.40625 48.1875 4.484375 
Q 40.765625 -1.421875 27.09375 -1.421875 
Q 22.515625 -1.421875 17.65625 -0.515625 
Q 12.796875 0.390625 7.625 2.203125 
L 7.625 11.71875 
Q 11.71875 9.328125 16.59375 8.109375 
Q 21.484375 6.890625 26.8125 6.890625 
Q 36.078125 6.890625 40.9375 10.546875 
Q 45.796875 14.203125 45.796875 21.1875 
Q 45.796875 27.640625 41.28125 31.265625 
Q 36.765625 34.90625 28.71875 34.90625 
L 20.21875 34.90625 
L 20.21875 43.015625 
L 29.109375 43.015625 
Q 36.375 43.015625 40.234375 45.921875 
Q 44.09375 48.828125 44.09375 54.296875 
Q 44.09375 59.90625 40.109375 62.90625 
Q 36.140625 65.921875 28.71875 65.921875 
Q 24.65625 65.921875 20.015625 65.03125 
Q 15.375 64.15625 9.8125 62.3125 
L 9.8125 71.09375 
Q 15.4375 72.65625 20.34375 73.4375 
Q 25.25 74.21875 29.59375 74.21875 
Q 40.828125 74.21875 47.359375 69.109375 
Q 53.90625 64.015625 53.90625 55.328125 
Q 53.90625 49.265625 50.4375 45.09375 
Q 46.96875 40.921875 40.578125 39.3125 
z
" id="DejaVuSans-33"/>
      </defs>
      <g transform="translate(343.162697 312.108875)scale(0.2 -0.2)">
       <use transform="translate(0 0.765625)" xlink:href="#DejaVuSans-31"/>
       <use transform="translate(63.623047 0.765625)" xlink:href="#DejaVuSans-30"/>
       <use transform="translate(128.203125 39.046875)scale(0.7)" xlink:href="#DejaVuSans-33"/>
      </g>
     </g>
    </g>
    <g id="xtick_6">
     <g id="line2d_11">
      <defs>
       <path d="M 0 0 
L 0 2 
" id="m34e140d643" style="stroke:#000000;stroke-width:0.6;"/>
      </defs>
      <g>
       <use style="stroke:#000000;stroke-width:0.6;" x="82.440793" xlink:href="#m34e140d643" y="289.912"/>
      </g>
     </g>
    </g>
    <g id="xtick_7">
     <g id="line2d_12">
      <g>
       <use style="stroke:#000000;stroke-width:0.6;" x="90.129079" xlink:href="#m34e140d643" y="289.912"/>
      </g>
     </g>
    </g>
    <g id="xtick_8">
     <g id="line2d_13">
      <g>
       <use style="stroke:#000000;stroke-width:0.6;" x="96.092577" xlink:href="#m34e140d643" y="289.912"/>
      </g>
     </g>
    </g>
    <g id="xtick_9">
     <g id="line2d_14">
      <g>
       <use style="stroke:#000000;stroke-width:0.6;" x="100.96511" xlink:href="#m34e140d643" y="289.912"/>
      </g>
     </g>
    </g>
    <g id="xtick_10">
     <g id="line2d_15">
      <g>
       <use style="stroke:#000000;stroke-width:0.6;" x="105.084778" xlink:href="#m34e140d643" y="289.912"/>
      </g>
     </g>
    </g>
    <g id="xtick_11">
     <g id="line2d_16">
      <g>
       <use style="stroke:#000000;stroke-width:0.6;" x="108.653396" xlink:href="#m34e140d643" y="289.912"/>
      </g>
     </g>
    </g>
    <g id="xtick_12">
     <g id="line2d_17">
      <g>
       <use style="stroke:#000000;stroke-width:0.6;" x="111.801141" xlink:href="#m34e140d643" y="289.912"/>
      </g>
     </g>
    </g>
    <g id="xtick_13">
     <g id="line2d_18">
      <g>
       <use style="stroke:#000000;stroke-width:0.6;" x="133.141212" xlink:href="#m34e140d643" y="289.912"/>
      </g>
     </g>
    </g>
    <g id="xtick_14">
     <g id="line2d_19">
      <g>
       <use style="stroke:#000000;stroke-width:0.6;" x="143.977243" xlink:href="#m34e140d643" y="289.912"/>
      </g>
     </g>
    </g>
    <g id="xtick_15">
     <g id="line2d_20">
      <g>
       <use style="stroke:#000000;stroke-width:0.6;" x="151.66553" xlink:href="#m34e140d643" y="289.912"/>
      </g>
     </g>
    </g>
    <g id="xtick_16">
     <g id="line2d_21">
      <g>
       <use style="stroke:#000000;stroke-width:0.6;" x="157.629028" xlink:href="#m34e140d643" y="289.912"/>
      </g>
     </g>
    </g>
    <g id="xtick_17">
     <g id="line2d_22">
      <g>
       <use style="stroke:#000000;stroke-width:0.6;" x="162.501561" xlink:href="#m34e140d643" y="289.912"/>
      </g>
     </g>
    </g>
    <g id="xtick_18">
     <g id="line2d_23">
      <g>
       <use style="stroke:#000000;stroke-width:0.6;" x="166.621229" xlink:href="#m34e140d643" y="289.912"/>
      </g>
     </g>
    </g>
    <g id="xtick_19">
     <g id="line2d_24">
      <g>
       <use style="stroke:#000000;stroke-width:0.6;" x="170.189847" xlink:href="#m34e140d643" y="289.912"/>
      </g>
     </g>
    </g>
    <g id="xtick_20">
     <g id="line2d_25">
      <g>
       <use style="stroke:#000000;stroke-width:0.6;" x="173.337592" xlink:href="#m34e140d643" y="289.912"/>
      </g>
     </g>
    </g>
    <g id="xtick_21">
     <g id="line2d_26">
      <g>
       <use style="stroke:#000000;stroke-width:0.6;" x="194.677663" xlink:href="#m34e140d643" y="289.912"/>
      </g>
     </g>
    </g>
    <g id="xtick_22">
     <g id="line2d_27">
      <g>
       <use style="stroke:#000000;stroke-width:0.6;" x="205.513694" xlink:href="#m34e140d643" y="289.912"/>
      </g>
     </g>
    </g>
    <g id="xtick_23">
     <g id="line2d_28">
      <g>
       <use style="stroke:#000000;stroke-width:0.6;" x="213.20198" xlink:href="#m34e140d643" y="289.912"/>
      </g>
     </g>
    </g>
    <g id="xtick_24">
     <g id="line2d_29">
      <g>
       <use style="stroke:#000000;stroke-width:0.6;" x="219.165479" xlink:href="#m34e140d643" y="289.912"/>
      </g>
     </g>
    </g>
    <g id="xtick_25">
     <g id="line2d_30">
      <g>
       <use style="stroke:#000000;stroke-width:0.6;" x="224.038011" xlink:href="#m34e140d643" y="289.912"/>
      </g>
     </g>
    </g>
    <g id="xtick_26">
     <g id="line2d_31">
      <g>
       <use style="stroke:#000000;stroke-width:0.6;" x="228.157679" xlink:href="#m34e140d643" y="289.912"/>
      </g>
     </g>
    </g>
    <g id="xtick_27">
     <g id="line2d_32">
      <g>
       <use style="stroke:#000000;stroke-width:0.6;" x="231.726298" xlink:href="#m34e140d643" y="289.912"/>
      </g>
     </g>
    </g>
    <g id="xtick_28">
     <g id="line2d_33">
      <g>
       <use style="stroke:#000000;stroke-width:0.6;" x="234.874043" xlink:href="#m34e140d643" y="289.912"/>
      </g>
     </g>
    </g>
    <g id="xtick_29">
     <g id="line2d_34">
      <g>
       <use style="stroke:#000000;stroke-width:0.6;" x="256.214114" xlink:href="#m34e140d643" y="289.912"/>
      </g>
     </g>
    </g>
    <g id="xtick_30">
     <g id="line2d_35">
      <g>
       <use style="stroke:#000000;stroke-width:0.6;" x="267.050145" xlink:href="#m34e140d643" y="289.912"/>
      </g>
     </g>
    </g>
    <g id="xtick_31">
     <g id="line2d_36">
      <g>
       <use style="stroke:#000000;stroke-width:0.6;" x="274.738431" xlink:href="#m34e140d643" y="289.912"/>
      </g>
     </g>
    </g>
    <g id="xtick_32">
     <g id="line2d_37">
      <g>
       <use style="stroke:#000000;stroke-width:0.6;" x="280.701929" xlink:href="#m34e140d643" y="289.912"/>
      </g>
     </g>
    </g>
    <g id="xtick_33">
     <g id="line2d_38">
      <g>
       <use style="stroke:#000000;stroke-width:0.6;" x="285.574462" xlink:href="#m34e140d643" y="289.912"/>
      </g>
     </g>
    </g>
    <g id="xtick_34">
     <g id="line2d_39">
      <g>
       <use style="stroke:#000000;stroke-width:0.6;" x="289.69413" xlink:href="#m34e140d643" y="289.912"/>
      </g>
     </g>
    </g>
    <g id="xtick_35">
     <g id="line2d_40">
      <g>
       <use style="stroke:#000000;stroke-width:0.6;" x="293.262749" xlink:href="#m34e140d643" y="289.912"/>
      </g>
     </g>
    </g>
    <g id="xtick_36">
     <g id="line2d_41">
      <g>
       <use style="stroke:#000000;stroke-width:0.6;" x="296.410493" xlink:href="#m34e140d643" y="289.912"/>
      </g>
     </g>
    </g>
    <g id="xtick_37">
     <g id="line2d_42">
      <g>
       <use style="stroke:#000000;stroke-width:0.6;" x="317.750564" xlink:href="#m34e140d643" y="289.912"/>
      </g>
     </g>
    </g>
    <g id="xtick_38">
     <g id="line2d_43">
      <g>
       <use style="stroke:#000000;stroke-width:0.6;" x="328.586595" xlink:href="#m34e140d643" y="289.912"/>
      </g>
     </g>
    </g>
    <g id="xtick_39">
     <g id="line2d_44">
      <g>
       <use style="stroke:#000000;stroke-width:0.6;" x="336.274882" xlink:href="#m34e140d643" y="289.912"/>
      </g>
     </g>
    </g>
    <g id="xtick_40">
     <g id="line2d_45">
      <g>
       <use style="stroke:#000000;stroke-width:0.6;" x="342.23838" xlink:href="#m34e140d643" y="289.912"/>
      </g>
     </g>
    </g>
    <g id="xtick_41">
     <g id="line2d_46">
      <g>
       <use style="stroke:#000000;stroke-width:0.6;" x="347.110913" xlink:href="#m34e140d643" y="289.912"/>
      </g>
     </g>
    </g>
    <g id="xtick_42">
     <g id="line2d_47">
      <g>
       <use style="stroke:#000000;stroke-width:0.6;" x="351.230581" xlink:href="#m34e140d643" y="289.912"/>
      </g>
     </g>
    </g>
    <g id="xtick_43">
     <g id="line2d_48">
      <g>
       <use style="stroke:#000000;stroke-width:0.6;" x="354.799199" xlink:href="#m34e140d643" y="289.912"/>
      </g>
     </g>
    </g>
    <g id="xtick_44">
     <g id="line2d_49">
      <g>
       <use style="stroke:#000000;stroke-width:0.6;" x="357.946944" xlink:href="#m34e140d643" y="289.912"/>
      </g>
     </g>
    </g>
    <g id="xtick_45">
     <g id="line2d_50">
      <g>
       <use style="stroke:#000000;stroke-width:0.6;" x="379.287015" xlink:href="#m34e140d643" y="289.912"/>
      </g>
     </g>
    </g>
    <g id="xtick_46">
     <g id="line2d_51">
      <g>
       <use style="stroke:#000000;stroke-width:0.6;" x="390.123046" xlink:href="#m34e140d643" y="289.912"/>
      </g>
     </g>
    </g>
    <g id="xtick_47">
     <g id="line2d_52">
      <g>
       <use style="stroke:#000000;stroke-width:0.6;" x="397.811332" xlink:href="#m34e140d643" y="289.912"/>
      </g>
     </g>
    </g>
    <g id="xtick_48">
     <g id="line2d_53">
      <g>
       <use style="stroke:#000000;stroke-width:0.6;" x="403.774831" xlink:href="#m34e140d643" y="289.912"/>
      </g>
     </g>
    </g>
    <g id="xtick_49">
     <g id="line2d_54">
      <g>
       <use style="stroke:#000000;stroke-width:0.6;" x="408.647363" xlink:href="#m34e140d643" y="289.912"/>
      </g>
     </g>
    </g>
    <g id="xtick_50">
     <g id="line2d_55">
      <g>
       <use style="stroke:#000000;stroke-width:0.6;" x="412.767031" xlink:href="#m34e140d643" y="289.912"/>
      </g>
     </g>
    </g>
    <g id="text_6">
     <!-- number of function evaluations / dimension -->
     <defs>
      <path d="M 54.890625 33.015625 
L 54.890625 0 
L 45.90625 0 
L 45.90625 32.71875 
Q 45.90625 40.484375 42.875 44.328125 
Q 39.84375 48.1875 33.796875 48.1875 
Q 26.515625 48.1875 22.3125 43.546875 
Q 18.109375 38.921875 18.109375 30.90625 
L 18.109375 0 
L 9.078125 0 
L 9.078125 54.6875 
L 18.109375 54.6875 
L 18.109375 46.1875 
Q 21.34375 51.125 25.703125 53.5625 
Q 30.078125 56 35.796875 56 
Q 45.21875 56 50.046875 50.171875 
Q 54.890625 44.34375 54.890625 33.015625 
z
" id="DejaVuSans-6e"/>
      <path d="M 8.5 21.578125 
L 8.5 54.6875 
L 17.484375 54.6875 
L 17.484375 21.921875 
Q 17.484375 14.15625 20.5 10.265625 
Q 23.53125 6.390625 29.59375 6.390625 
Q 36.859375 6.390625 41.078125 11.03125 
Q 45.3125 15.671875 45.3125 23.6875 
L 45.3125 54.6875 
L 54.296875 54.6875 
L 54.296875 0 
L 45.3125 0 
L 45.3125 8.40625 
Q 42.046875 3.421875 37.71875 1 
Q 33.40625 -1.421875 27.6875 -1.421875 
Q 18.265625 -1.421875 13.375 4.4375 
Q 8.5 10.296875 8.5 21.578125 
z
M 31.109375 56 
z
" id="DejaVuSans-75"/>
      <path d="M 52 44.1875 
Q 55.375 50.25 60.0625 53.125 
Q 64.75 56 71.09375 56 
Q 79.640625 56 84.28125 50.015625 
Q 88.921875 44.046875 88.921875 33.015625 
L 88.921875 0 
L 79.890625 0 
L 79.890625 32.71875 
Q 79.890625 40.578125 77.09375 44.375 
Q 74.3125 48.1875 68.609375 48.1875 
Q 61.625 48.1875 57.5625 43.546875 
Q 53.515625 38.921875 53.515625 30.90625 
L 53.515625 0 
L 44.484375 0 
L 44.484375 32.71875 
Q 44.484375 40.625 41.703125 44.40625 
Q 38.921875 48.1875 33.109375 48.1875 
Q 26.21875 48.1875 22.15625 43.53125 
Q 18.109375 38.875 18.109375 30.90625 
L 18.109375 0 
L 9.078125 0 
L 9.078125 54.6875 
L 18.109375 54.6875 
L 18.109375 46.1875 
Q 21.1875 51.21875 25.484375 53.609375 
Q 29.78125 56 35.6875 56 
Q 41.65625 56 45.828125 52.96875 
Q 50 49.953125 52 44.1875 
z
" id="DejaVuSans-6d"/>
      <path d="M 48.6875 27.296875 
Q 48.6875 37.203125 44.609375 42.84375 
Q 40.53125 48.484375 33.40625 48.484375 
Q 26.265625 48.484375 22.1875 42.84375 
Q 18.109375 37.203125 18.109375 27.296875 
Q 18.109375 17.390625 22.1875 11.75 
Q 26.265625 6.109375 33.40625 6.109375 
Q 40.53125 6.109375 44.609375 11.75 
Q 48.6875 17.390625 48.6875 27.296875 
z
M 18.109375 46.390625 
Q 20.953125 51.265625 25.265625 53.625 
Q 29.59375 56 35.59375 56 
Q 45.5625 56 51.78125 48.09375 
Q 58.015625 40.1875 58.015625 27.296875 
Q 58.015625 14.40625 51.78125 6.484375 
Q 45.5625 -1.421875 35.59375 -1.421875 
Q 29.59375 -1.421875 25.265625 0.953125 
Q 20.953125 3.328125 18.109375 8.203125 
L 18.109375 0 
L 9.078125 0 
L 9.078125 75.984375 
L 18.109375 75.984375 
z
" id="DejaVuSans-62"/>
      <path d="M 56.203125 29.59375 
L 56.203125 25.203125 
L 14.890625 25.203125 
Q 15.484375 15.921875 20.484375 11.0625 
Q 25.484375 6.203125 34.421875 6.203125 
Q 39.59375 6.203125 44.453125 7.46875 
Q 49.3125 8.734375 54.109375 11.28125 
L 54.109375 2.78125 
Q 49.265625 0.734375 44.1875 -0.34375 
Q 39.109375 -1.421875 33.890625 -1.421875 
Q 20.796875 -1.421875 13.15625 6.1875 
Q 5.515625 13.8125 5.515625 26.8125 
Q 5.515625 40.234375 12.765625 48.109375 
Q 20.015625 56 32.328125 56 
Q 43.359375 56 49.78125 48.890625 
Q 56.203125 41.796875 56.203125 29.59375 
z
M 47.21875 32.234375 
Q 47.125 39.59375 43.09375 43.984375 
Q 39.0625 48.390625 32.421875 48.390625 
Q 24.90625 48.390625 20.390625 44.140625 
Q 15.875 39.890625 15.1875 32.171875 
z
" id="DejaVuSans-65"/>
      <path d="M 41.109375 46.296875 
Q 39.59375 47.171875 37.8125 47.578125 
Q 36.03125 48 33.890625 48 
Q 26.265625 48 22.1875 43.046875 
Q 18.109375 38.09375 18.109375 28.8125 
L 18.109375 0 
L 9.078125 0 
L 9.078125 54.6875 
L 18.109375 54.6875 
L 18.109375 46.1875 
Q 20.953125 51.171875 25.484375 53.578125 
Q 30.03125 56 36.53125 56 
Q 37.453125 56 38.578125 55.875 
Q 39.703125 55.765625 41.0625 55.515625 
z
" id="DejaVuSans-72"/>
      <path id="DejaVuSans-20"/>
      <path d="M 30.609375 48.390625 
Q 23.390625 48.390625 19.1875 42.75 
Q 14.984375 37.109375 14.984375 27.296875 
Q 14.984375 17.484375 19.15625 11.84375 
Q 23.34375 6.203125 30.609375 6.203125 
Q 37.796875 6.203125 41.984375 11.859375 
Q 46.1875 17.53125 46.1875 27.296875 
Q 46.1875 37.015625 41.984375 42.703125 
Q 37.796875 48.390625 30.609375 48.390625 
z
M 30.609375 56 
Q 42.328125 56 49.015625 48.375 
Q 55.71875 40.765625 55.71875 27.296875 
Q 55.71875 13.875 49.015625 6.21875 
Q 42.328125 -1.421875 30.609375 -1.421875 
Q 18.84375 -1.421875 12.171875 6.21875 
Q 5.515625 13.875 5.515625 27.296875 
Q 5.515625 40.765625 12.171875 48.375 
Q 18.84375 56 30.609375 56 
z
" id="DejaVuSans-6f"/>
      <path d="M 37.109375 75.984375 
L 37.109375 68.5 
L 28.515625 68.5 
Q 23.6875 68.5 21.796875 66.546875 
Q 19.921875 64.59375 19.921875 59.515625 
L 19.921875 54.6875 
L 34.71875 54.6875 
L 34.71875 47.703125 
L 19.921875 47.703125 
L 19.921875 0 
L 10.890625 0 
L 10.890625 47.703125 
L 2.296875 47.703125 
L 2.296875 54.6875 
L 10.890625 54.6875 
L 10.890625 58.5 
Q 10.890625 67.625 15.140625 71.796875 
Q 19.390625 75.984375 28.609375 75.984375 
z
" id="DejaVuSans-66"/>
      <path d="M 48.78125 52.59375 
L 48.78125 44.1875 
Q 44.96875 46.296875 41.140625 47.34375 
Q 37.3125 48.390625 33.40625 48.390625 
Q 24.65625 48.390625 19.8125 42.84375 
Q 14.984375 37.3125 14.984375 27.296875 
Q 14.984375 17.28125 19.8125 11.734375 
Q 24.65625 6.203125 33.40625 6.203125 
Q 37.3125 6.203125 41.140625 7.25 
Q 44.96875 8.296875 48.78125 10.40625 
L 48.78125 2.09375 
Q 45.015625 0.34375 40.984375 -0.53125 
Q 36.96875 -1.421875 32.421875 -1.421875 
Q 20.0625 -1.421875 12.78125 6.34375 
Q 5.515625 14.109375 5.515625 27.296875 
Q 5.515625 40.671875 12.859375 48.328125 
Q 20.21875 56 33.015625 56 
Q 37.15625 56 41.109375 55.140625 
Q 45.0625 54.296875 48.78125 52.59375 
z
" id="DejaVuSans-63"/>
      <path d="M 18.3125 70.21875 
L 18.3125 54.6875 
L 36.8125 54.6875 
L 36.8125 47.703125 
L 18.3125 47.703125 
L 18.3125 18.015625 
Q 18.3125 11.328125 20.140625 9.421875 
Q 21.96875 7.515625 27.59375 7.515625 
L 36.8125 7.515625 
L 36.8125 0 
L 27.59375 0 
Q 17.1875 0 13.234375 3.875 
Q 9.28125 7.765625 9.28125 18.015625 
L 9.28125 47.703125 
L 2.6875 47.703125 
L 2.6875 54.6875 
L 9.28125 54.6875 
L 9.28125 70.21875 
z
" id="DejaVuSans-74"/>
      <path d="M 9.421875 54.6875 
L 18.40625 54.6875 
L 18.40625 0 
L 9.421875 0 
z
M 9.421875 75.984375 
L 18.40625 75.984375 
L 18.40625 64.59375 
L 9.421875 64.59375 
z
" id="DejaVuSans-69"/>
      <path d="M 2.984375 54.6875 
L 12.5 54.6875 
L 29.59375 8.796875 
L 46.6875 54.6875 
L 56.203125 54.6875 
L 35.6875 0 
L 23.484375 0 
z
" id="DejaVuSans-76"/>
      <path d="M 34.28125 27.484375 
Q 23.390625 27.484375 19.1875 25 
Q 14.984375 22.515625 14.984375 16.5 
Q 14.984375 11.71875 18.140625 8.90625 
Q 21.296875 6.109375 26.703125 6.109375 
Q 34.1875 6.109375 38.703125 11.40625 
Q 43.21875 16.703125 43.21875 25.484375 
L 43.21875 27.484375 
z
M 52.203125 31.203125 
L 52.203125 0 
L 43.21875 0 
L 43.21875 8.296875 
Q 40.140625 3.328125 35.546875 0.953125 
Q 30.953125 -1.421875 24.3125 -1.421875 
Q 15.921875 -1.421875 10.953125 3.296875 
Q 6 8.015625 6 15.921875 
Q 6 25.140625 12.171875 29.828125 
Q 18.359375 34.515625 30.609375 34.515625 
L 43.21875 34.515625 
L 43.21875 35.40625 
Q 43.21875 41.609375 39.140625 45 
Q 35.0625 48.390625 27.6875 48.390625 
Q 23 48.390625 18.546875 47.265625 
Q 14.109375 46.140625 10.015625 43.890625 
L 10.015625 52.203125 
Q 14.9375 54.109375 19.578125 55.046875 
Q 24.21875 56 28.609375 56 
Q 40.484375 56 46.34375 49.84375 
Q 52.203125 43.703125 52.203125 31.203125 
z
" id="DejaVuSans-61"/>
      <path d="M 9.421875 75.984375 
L 18.40625 75.984375 
L 18.40625 0 
L 9.421875 0 
z
" id="DejaVuSans-6c"/>
      <path d="M 44.28125 53.078125 
L 44.28125 44.578125 
Q 40.484375 46.53125 36.375 47.5 
Q 32.28125 48.484375 27.875 48.484375 
Q 21.1875 48.484375 17.84375 46.4375 
Q 14.5 44.390625 14.5 40.28125 
Q 14.5 37.15625 16.890625 35.375 
Q 19.28125 33.59375 26.515625 31.984375 
L 29.59375 31.296875 
Q 39.15625 29.25 43.1875 25.515625 
Q 47.21875 21.78125 47.21875 15.09375 
Q 47.21875 7.46875 41.1875 3.015625 
Q 35.15625 -1.421875 24.609375 -1.421875 
Q 20.21875 -1.421875 15.453125 -0.5625 
Q 10.6875 0.296875 5.421875 2 
L 5.421875 11.28125 
Q 10.40625 8.6875 15.234375 7.390625 
Q 20.0625 6.109375 24.8125 6.109375 
Q 31.15625 6.109375 34.5625 8.28125 
Q 37.984375 10.453125 37.984375 14.40625 
Q 37.984375 18.0625 35.515625 20.015625 
Q 33.0625 21.96875 24.703125 23.78125 
L 21.578125 24.515625 
Q 13.234375 26.265625 9.515625 29.90625 
Q 5.8125 33.546875 5.8125 39.890625 
Q 5.8125 47.609375 11.28125 51.796875 
Q 16.75 56 26.8125 56 
Q 31.78125 56 36.171875 55.265625 
Q 40.578125 54.546875 44.28125 53.078125 
z
" id="DejaVuSans-73"/>
      <path d="M 25.390625 72.90625 
L 33.6875 72.90625 
L 8.296875 -9.28125 
L 0 -9.28125 
z
" id="DejaVuSans-2f"/>
      <path d="M 45.40625 46.390625 
L 45.40625 75.984375 
L 54.390625 75.984375 
L 54.390625 0 
L 45.40625 0 
L 45.40625 8.203125 
Q 42.578125 3.328125 38.25 0.953125 
Q 33.9375 -1.421875 27.875 -1.421875 
Q 17.96875 -1.421875 11.734375 6.484375 
Q 5.515625 14.40625 5.515625 27.296875 
Q 5.515625 40.1875 11.734375 48.09375 
Q 17.96875 56 27.875 56 
Q 33.9375 56 38.25 53.625 
Q 42.578125 51.265625 45.40625 46.390625 
z
M 14.796875 27.296875 
Q 14.796875 17.390625 18.875 11.75 
Q 22.953125 6.109375 30.078125 6.109375 
Q 37.203125 6.109375 41.296875 11.75 
Q 45.40625 17.390625 45.40625 27.296875 
Q 45.40625 37.203125 41.296875 42.84375 
Q 37.203125 48.484375 30.078125 48.484375 
Q 22.953125 48.484375 18.875 42.84375 
Q 14.796875 37.203125 14.796875 27.296875 
z
" id="DejaVuSans-64"/>
     </defs>
     <g transform="translate(28.726975 335.465125)scale(0.2 -0.2)">
      <use xlink:href="#DejaVuSans-6e"/>
      <use x="63.378906" xlink:href="#DejaVuSans-75"/>
      <use x="126.757812" xlink:href="#DejaVuSans-6d"/>
      <use x="224.169922" xlink:href="#DejaVuSans-62"/>
      <use x="287.646484" xlink:href="#DejaVuSans-65"/>
      <use x="349.169922" xlink:href="#DejaVuSans-72"/>
      <use x="390.283203" xlink:href="#DejaVuSans-20"/>
      <use x="422.070312" xlink:href="#DejaVuSans-6f"/>
      <use x="483.251953" xlink:href="#DejaVuSans-66"/>
      <use x="518.457031" xlink:href="#DejaVuSans-20"/>
      <use x="550.244141" xlink:href="#DejaVuSans-66"/>
      <use x="585.449219" xlink:href="#DejaVuSans-75"/>
      <use x="648.828125" xlink:href="#DejaVuSans-6e"/>
      <use x="712.207031" xlink:href="#DejaVuSans-63"/>
      <use x="767.1875" xlink:href="#DejaVuSans-74"/>
      <use x="806.396484" xlink:href="#DejaVuSans-69"/>
      <use x="834.179688" xlink:href="#DejaVuSans-6f"/>
      <use x="895.361328" xlink:href="#DejaVuSans-6e"/>
      <use x="958.740234" xlink:href="#DejaVuSans-20"/>
      <use x="990.527344" xlink:href="#DejaVuSans-65"/>
      <use x="1052.050781" xlink:href="#DejaVuSans-76"/>
      <use x="1111.230469" xlink:href="#DejaVuSans-61"/>
      <use x="1172.509766" xlink:href="#DejaVuSans-6c"/>
      <use x="1200.292969" xlink:href="#DejaVuSans-75"/>
      <use x="1263.671875" xlink:href="#DejaVuSans-61"/>
      <use x="1324.951172" xlink:href="#DejaVuSans-74"/>
      <use x="1364.160156" xlink:href="#DejaVuSans-69"/>
      <use x="1391.943359" xlink:href="#DejaVuSans-6f"/>
      <use x="1453.125" xlink:href="#DejaVuSans-6e"/>
      <use x="1516.503906" xlink:href="#DejaVuSans-73"/>
      <use x="1568.603516" xlink:href="#DejaVuSans-20"/>
      <use x="1600.390625" xlink:href="#DejaVuSans-2f"/>
      <use x="1634.082031" xlink:href="#DejaVuSans-20"/>
      <use x="1665.869141" xlink:href="#DejaVuSans-64"/>
      <use x="1729.345703" xlink:href="#DejaVuSans-69"/>
      <use x="1757.128906" xlink:href="#DejaVuSans-6d"/>
      <use x="1854.541016" xlink:href="#DejaVuSans-65"/>
      <use x="1916.064453" xlink:href="#DejaVuSans-6e"/>
      <use x="1979.443359" xlink:href="#DejaVuSans-73"/>
      <use x="2031.542969" xlink:href="#DejaVuSans-69"/>
      <use x="2059.326172" xlink:href="#DejaVuSans-6f"/>
      <use x="2120.507812" xlink:href="#DejaVuSans-6e"/>
     </g>
    </g>
   </g>
   <g id="matplotlib.axis_2">
    <g id="ytick_1">
     <g id="line2d_56">
      <path clip-path="url(#p6bfc95eaec)" d="M 80.9907 289.912 
L 413.232 289.912 
" style="fill:none;stroke:#b0b0b0;stroke-linecap:square;stroke-width:0.8;"/>
     </g>
     <g id="line2d_57">
      <defs>
       <path d="M 0 0 
L -3.5 0 
" id="ma27daad612" style="stroke:#000000;stroke-width:0.8;"/>
      </defs>
      <g>
       <use style="stroke:#000000;stroke-width:0.8;" x="80.9907" xlink:href="#ma27daad612" y="289.912"/>
      </g>
     </g>
     <g id="text_7">
      <!-- $\mathdefault{10^{-8}}$ -->
      <defs>
       <path d="M 31.78125 34.625 
Q 24.75 34.625 20.71875 30.859375 
Q 16.703125 27.09375 16.703125 20.515625 
Q 16.703125 13.921875 20.71875 10.15625 
Q 24.75 6.390625 31.78125 6.390625 
Q 38.8125 6.390625 42.859375 10.171875 
Q 46.921875 13.96875 46.921875 20.515625 
Q 46.921875 27.09375 42.890625 30.859375 
Q 38.875 34.625 31.78125 34.625 
z
M 21.921875 38.8125 
Q 15.578125 40.375 12.03125 44.71875 
Q 8.5 49.078125 8.5 55.328125 
Q 8.5 64.0625 14.71875 69.140625 
Q 20.953125 74.21875 31.78125 74.21875 
Q 42.671875 74.21875 48.875 69.140625 
Q 55.078125 64.0625 55.078125 55.328125 
Q 55.078125 49.078125 51.53125 44.71875 
Q 48 40.375 41.703125 38.8125 
Q 48.828125 37.15625 52.796875 32.3125 
Q 56.78125 27.484375 56.78125 20.515625 
Q 56.78125 9.90625 50.3125 4.234375 
Q 43.84375 -1.421875 31.78125 -1.421875 
Q 19.734375 -1.421875 13.25 4.234375 
Q 6.78125 9.90625 6.78125 20.515625 
Q 6.78125 27.484375 10.78125 32.3125 
Q 14.796875 37.15625 21.921875 38.8125 
z
M 18.3125 54.390625 
Q 18.3125 48.734375 21.84375 45.5625 
Q 25.390625 42.390625 31.78125 42.390625 
Q 38.140625 42.390625 41.71875 45.5625 
Q 45.3125 48.734375 45.3125 54.390625 
Q 45.3125 60.0625 41.71875 63.234375 
Q 38.140625 66.40625 31.78125 66.40625 
Q 25.390625 66.40625 21.84375 63.234375 
Q 18.3125 60.0625 18.3125 54.390625 
z
" id="DejaVuSans-38"/>
      </defs>
      <g transform="translate(26.9907 297.510438)scale(0.2 -0.2)">
       <use transform="translate(0 0.765625)" xlink:href="#DejaVuSans-31"/>
       <use transform="translate(63.623047 0.765625)" xlink:href="#DejaVuSans-30"/>
       <use transform="translate(128.203125 39.046875)scale(0.7)" xlink:href="#DejaVuSans-2212"/>
       <use transform="translate(186.855469 39.046875)scale(0.7)" xlink:href="#DejaVuSans-38"/>
      </g>
     </g>
    </g>
    <g id="ytick_2">
     <g id="line2d_58">
      <path clip-path="url(#p6bfc95eaec)" d="M 80.9907 230.103172 
L 413.232 230.103172 
" style="fill:none;stroke:#b0b0b0;stroke-linecap:square;stroke-width:0.8;"/>
     </g>
     <g id="line2d_59">
      <g>
       <use style="stroke:#000000;stroke-width:0.8;" x="80.9907" xlink:href="#ma27daad612" y="230.103172"/>
      </g>
     </g>
     <g id="text_8">
      <!-- $\mathdefault{10^{-5}}$ -->
      <defs>
       <path d="M 10.796875 72.90625 
L 49.515625 72.90625 
L 49.515625 64.59375 
L 19.828125 64.59375 
L 19.828125 46.734375 
Q 21.96875 47.46875 24.109375 47.828125 
Q 26.265625 48.1875 28.421875 48.1875 
Q 40.625 48.1875 47.75 41.5 
Q 54.890625 34.8125 54.890625 23.390625 
Q 54.890625 11.625 47.5625 5.09375 
Q 40.234375 -1.421875 26.90625 -1.421875 
Q 22.3125 -1.421875 17.546875 -0.640625 
Q 12.796875 0.140625 7.71875 1.703125 
L 7.71875 11.625 
Q 12.109375 9.234375 16.796875 8.0625 
Q 21.484375 6.890625 26.703125 6.890625 
Q 35.15625 6.890625 40.078125 11.328125 
Q 45.015625 15.765625 45.015625 23.390625 
Q 45.015625 31 40.078125 35.4375 
Q 35.15625 39.890625 26.703125 39.890625 
Q 22.75 39.890625 18.8125 39.015625 
Q 14.890625 38.140625 10.796875 36.28125 
z
" id="DejaVuSans-35"/>
      </defs>
      <g transform="translate(26.9907 237.701609)scale(0.2 -0.2)">
       <use transform="translate(0 0.684375)" xlink:href="#DejaVuSans-31"/>
       <use transform="translate(63.623047 0.684375)" xlink:href="#DejaVuSans-30"/>
       <use transform="translate(128.203125 38.965625)scale(0.7)" xlink:href="#DejaVuSans-2212"/>
       <use transform="translate(186.855469 38.965625)scale(0.7)" xlink:href="#DejaVuSans-35"/>
      </g>
     </g>
    </g>
    <g id="ytick_3">
     <g id="line2d_60">
      <path clip-path="url(#p6bfc95eaec)" d="M 80.9907 170.294344 
L 413.232 170.294344 
" style="fill:none;stroke:#b0b0b0;stroke-linecap:square;stroke-width:0.8;"/>
     </g>
     <g id="line2d_61">
      <g>
       <use style="stroke:#000000;stroke-width:0.8;" x="80.9907" xlink:href="#ma27daad612" y="170.294344"/>
      </g>
     </g>
     <g id="text_9">
      <!-- $\mathdefault{10^{-2}}$ -->
      <g transform="translate(26.9907 177.892781)scale(0.2 -0.2)">
       <use transform="translate(0 0.765625)" xlink:href="#DejaVuSans-31"/>
       <use transform="translate(63.623047 0.765625)" xlink:href="#DejaVuSans-30"/>
       <use transform="translate(128.203125 39.046875)scale(0.7)" xlink:href="#DejaVuSans-2212"/>
       <use transform="translate(186.855469 39.046875)scale(0.7)" xlink:href="#DejaVuSans-32"/>
      </g>
     </g>
    </g>
    <g id="ytick_4">
     <g id="line2d_62">
      <path clip-path="url(#p6bfc95eaec)" d="M 80.9907 110.485516 
L 413.232 110.485516 
" style="fill:none;stroke:#b0b0b0;stroke-linecap:square;stroke-width:0.8;"/>
     </g>
     <g id="line2d_63">
      <g>
       <use style="stroke:#000000;stroke-width:0.8;" x="80.9907" xlink:href="#ma27daad612" y="110.485516"/>
      </g>
     </g>
     <g id="text_10">
      <!-- $\mathdefault{10^{1}}$ -->
      <g transform="translate(38.7907 118.083953)scale(0.2 -0.2)">
       <use transform="translate(0 0.684375)" xlink:href="#DejaVuSans-31"/>
       <use transform="translate(63.623047 0.684375)" xlink:href="#DejaVuSans-30"/>
       <use transform="translate(128.203125 38.965625)scale(0.7)" xlink:href="#DejaVuSans-31"/>
      </g>
     </g>
    </g>
    <g id="ytick_5">
     <g id="line2d_64">
      <path clip-path="url(#p6bfc95eaec)" d="M 80.9907 50.676687 
L 413.232 50.676687 
" style="fill:none;stroke:#b0b0b0;stroke-linecap:square;stroke-width:0.8;"/>
     </g>
     <g id="line2d_65">
      <g>
       <use style="stroke:#000000;stroke-width:0.8;" x="80.9907" xlink:href="#ma27daad612" y="50.676687"/>
      </g>
     </g>
     <g id="text_11">
      <!-- $\mathdefault{10^{4}}$ -->
      <defs>
       <path d="M 37.796875 64.3125 
L 12.890625 25.390625 
L 37.796875 25.390625 
z
M 35.203125 72.90625 
L 47.609375 72.90625 
L 47.609375 25.390625 
L 58.015625 25.390625 
L 58.015625 17.1875 
L 47.609375 17.1875 
L 47.609375 0 
L 37.796875 0 
L 37.796875 17.1875 
L 4.890625 17.1875 
L 4.890625 26.703125 
z
" id="DejaVuSans-34"/>
      </defs>
      <g transform="translate(38.7907 58.275125)scale(0.2 -0.2)">
       <use transform="translate(0 0.684375)" xlink:href="#DejaVuSans-31"/>
       <use transform="translate(63.623047 0.684375)" xlink:href="#DejaVuSans-30"/>
       <use transform="translate(128.203125 38.965625)scale(0.7)" xlink:href="#DejaVuSans-34"/>
      </g>
     </g>
    </g>
    <g id="text_12">
     <!-- Median of fitness -->
     <defs>
      <path d="M 9.8125 72.90625 
L 24.515625 72.90625 
L 43.109375 23.296875 
L 61.8125 72.90625 
L 76.515625 72.90625 
L 76.515625 0 
L 66.890625 0 
L 66.890625 64.015625 
L 48.09375 14.015625 
L 38.1875 14.015625 
L 19.390625 64.015625 
L 19.390625 0 
L 9.8125 0 
z
" id="DejaVuSans-4d"/>
     </defs>
     <g transform="translate(18.831325 233.212875)rotate(-90)scale(0.2 -0.2)">
      <use xlink:href="#DejaVuSans-4d"/>
      <use x="86.279297" xlink:href="#DejaVuSans-65"/>
      <use x="147.802734" xlink:href="#DejaVuSans-64"/>
      <use x="211.279297" xlink:href="#DejaVuSans-69"/>
      <use x="239.0625" xlink:href="#DejaVuSans-61"/>
      <use x="300.341797" xlink:href="#DejaVuSans-6e"/>
      <use x="363.720703" xlink:href="#DejaVuSans-20"/>
      <use x="395.507812" xlink:href="#DejaVuSans-6f"/>
      <use x="456.689453" xlink:href="#DejaVuSans-66"/>
      <use x="491.894531" xlink:href="#DejaVuSans-20"/>
      <use x="523.681641" xlink:href="#DejaVuSans-66"/>
      <use x="558.886719" xlink:href="#DejaVuSans-69"/>
      <use x="586.669922" xlink:href="#DejaVuSans-74"/>
      <use x="625.878906" xlink:href="#DejaVuSans-6e"/>
      <use x="689.257812" xlink:href="#DejaVuSans-65"/>
      <use x="750.78125" xlink:href="#DejaVuSans-73"/>
      <use x="802.880859" xlink:href="#DejaVuSans-73"/>
     </g>
    </g>
   </g>
   <g id="line2d_66">
    <path clip-path="url(#p6bfc95eaec)" d="M 157.629028 52.835715 
L 176.153345 64.249993 
L 186.989376 76.958295 
L 194.677663 76.958295 
L 200.641161 83.708869 
L 205.513694 87.520462 
L 209.633362 91.226975 
L 213.20198 96.709598 
L 219.165479 96.709598 
L 221.712638 102.299533 
L 224.038011 102.299533 
L 228.157679 102.299533 
L 230.00151 102.299533 
L 233.346487 108.077679 
L 236.318986 114.523347 
L 237.689796 114.523347 
L 240.236955 114.523347 
L 243.653294 119.337034 
L 246.681997 120.03504 
L 249.402133 123.103363 
L 252.645495 126.28026 
L 255.537497 126.28026 
L 256.214114 126.28026 
L 258.761272 127.713109 
L 262.177612 129.693591 
L 265.206314 134.271141 
L 268.354059 140.008443 
L 271.169812 140.236685 
L 274.402264 148.295663 
L 277.58757 148.649768 
L 280.701929 151.752287 
L 283.730632 154.375557 
L 286.665428 154.920034 
L 289.884344 155.308333 
L 292.926581 164.63643 
L 295.961324 172.431599 
L 299.092287 179.596349 
L 299.226247 179.596349 
L 302.135374 184.421566 
L 304.09878 184.421566 
L 305.296432 190.518556 
L 306.645939 190.518556 
L 307.443757 190.518556 
L 308.313724 207.219696 
L 308.971312 207.219696 
L 309.703548 207.219696 
L 310.416256 207.219696 
L 311.450899 278.076942 
L 312.446975 292.026841 
L 314.485641 292.026841 
L 314.934811 302.705577 
L 317.616604 302.705577 
L 317.750564 302.705577 
L 319.807344 312.201732 
L 320.659692 312.201732 
L 323.767459 312.201732 
L 326.838041 312.201732 
L 328.227866 312.201732 
L 328.940573 312.201732 
L 329.89051 312.201732 
L 332.972185 312.201732 
L 336.073689 312.201732 
L 337.323053 312.201732 
L 337.578796 312.201732 
L 339.154032 312.201732 
L 341.3692 312.201732 
" style="fill:none;stroke:#1f77b4;stroke-linecap:square;stroke-width:1.5;"/>
   </g>
   <g id="line2d_67">
    <path clip-path="url(#p6bfc95eaec)" d="M 146.792997 46.585666 
L 165.317314 48.680305 
L 176.153345 53.320492 
L 183.841632 66.933849 
L 189.80513 66.933849 
L 194.677663 68.618901 
L 198.797331 71.791741 
L 202.365949 71.791741 
L 208.329448 72.667596 
L 210.876606 86.738114 
L 213.20198 87.568733 
L 217.321648 87.572081 
L 219.165479 87.572081 
L 222.510456 88.066691 
L 225.482955 88.066691 
L 229.400924 88.066691 
L 232.817263 93.171234 
L 235.845966 93.171234 
L 237.689796 93.171234 
L 238.566102 93.171234 
L 241.809464 94.310622 
L 244.701466 96.383425 
L 247.925241 98.037077 
L 251.341581 98.408078 
L 254.370283 102.836816 
L 256.214114 104.943791 
L 257.518028 104.957873 
L 260.333781 108.912181 
L 263.566233 112.674455 
L 266.751539 115.324424 
L 269.865898 118.356321 
L 272.894601 119.983094 
L 275.829396 121.095203 
L 279.048313 123.897363 
L 280.701929 124.57572 
L 282.09055 124.835076 
L 285.125293 125.312404 
L 288.256256 126.96942 
L 291.299343 127.725383 
L 294.4604 129.256626 
L 297.477693 132.539557 
L 299.226247 134.059377 
L 300.614868 134.497465 
L 303.64961 135.792921 
L 304.975086 135.792921 
L 306.780573 139.135691 
L 309.823661 145.929077 
L 312.931428 152.264193 
L 316.00201 160.781479 
L 317.750564 164.609929 
L 318.279788 164.609929 
L 319.054478 174.362076 
L 319.307797 174.362076 
L 320.779267 174.362076 
L 322.136154 185.097894 
L 322.173928 185.097894 
L 325.237658 213.223151 
L 326.358227 213.223151 
L 328.318001 255.246195 
L 329.634767 292.121742 
L 330.643375 300.234899 
L 331.402349 300.234899 
L 333.754434 301.344886 
L 334.046513 301.368604 
L 334.478732 301.368604 
L 335.734966 301.559709 
L 337.536342 301.559709 
L 337.578796 301.559709 
L 338.083055 303.225517 
" style="fill:none;stroke:#ff7f0e;stroke-linecap:square;stroke-width:1.5;"/>
   </g>
   <g id="line2d_68">
    <path clip-path="url(#p6bfc95eaec)" d="M 133.141212 37.827193 
L 151.66553 44.190253 
L 162.501561 45.427845 
L 170.189847 45.867415 
L 176.153345 45.867415 
L 181.025878 46.419594 
L 185.145546 46.419594 
L 188.714165 46.419594 
L 194.677663 51.995076 
L 197.224822 51.995076 
L 199.550196 52.399428 
L 203.669864 52.399428 
L 205.513694 53.335294 
L 208.858672 53.335294 
L 211.83117 55.10461 
L 215.749139 59.643971 
L 219.165479 62.273517 
L 222.194181 64.87262 
L 224.914318 68.155306 
L 228.157679 69.451532 
L 231.049681 73.159324 
L 234.273457 75.703953 
L 237.689796 77.990648 
L 240.718498 80.042059 
L 243.866243 81.459441 
L 246.681997 84.643367 
L 249.914448 87.152892 
L 253.099754 90.809994 
L 256.214114 91.857199 
L 259.242816 92.39505 
L 262.177612 93.949315 
L 265.396528 97.848103 
L 268.438766 98.787388 
L 271.473508 99.891961 
L 274.604471 101.509566 
L 277.647559 104.000493 
L 280.701929 106.491723 
L 280.808616 107.068434 
L 283.825908 112.033976 
L 286.963083 116.443441 
L 289.997826 116.510229 
L 293.128789 117.714867 
L 296.171876 119.176 
L 299.226247 120.299835 
L 299.279643 120.299835 
L 302.350225 121.517941 
L 305.402694 122.005289 
L 308.484369 123.480085 
L 311.585874 125.679948 
L 314.666216 127.052337 
L 317.750564 130.264683 
L 320.826947 135.745049 
L 323.884557 138.312522 
L 326.97086 141.395676 
L 330.042789 148.367953 
L 333.130477 157.172255 
L 336.207986 168.475634 
L 339.279712 187.239629 
L 341.589159 187.239629 
L 342.23838 212.181575 
L 342.355712 212.181575 
L 343.286551 212.181575 
L 345.438336 250.827725 
L 345.457296 250.827725 
L 346.204896 250.827725 
L 346.388573 250.827725 
L 346.752183 250.827725 
L 348.516443 281.168182 
L 349.819552 290.530777 
L 350.298221 290.73781 
L 351.077429 290.745481 
L 351.230581 291.033754 
L 351.534276 291.785891 
L 351.594604 291.785891 
L 351.68484 291.785891 
L 353.985179 291.785891 
L 354.259283 291.785891 
" style="fill:none;stroke:#2ca02c;stroke-linecap:square;stroke-width:1.5;"/>
   </g>
   <g id="line2d_69">
    <path clip-path="url(#p6bfc95eaec)" d="M 114.616895 30.59257 
L 133.141212 33.466645 
L 143.977243 34.350376 
L 151.66553 34.350376 
L 157.629028 34.748528 
L 162.501561 35.054639 
L 166.621229 35.242516 
L 170.189847 35.242516 
L 176.153345 35.615539 
L 178.700504 35.615539 
L 181.025878 35.615539 
L 185.145546 35.615539 
L 186.989376 36.278253 
L 190.334354 36.278253 
L 193.306853 36.773567 
L 194.677663 36.773567 
L 197.224822 36.773567 
L 200.641161 39.660714 
L 203.669864 39.660714 
L 206.39 39.660714 
L 209.633362 41.634984 
L 212.525363 42.328641 
L 215.749139 46.717235 
L 219.165479 51.600536 
L 222.194181 51.677419 
L 225.341926 55.014211 
L 228.157679 67.486068 
L 231.390131 67.486068 
L 234.575437 70.164813 
L 237.689796 70.164813 
L 240.718498 70.861546 
L 243.653294 70.886931 
L 246.872211 70.886931 
L 249.914448 70.886931 
L 252.949191 76.209438 
L 256.080154 79.182599 
L 256.214114 79.182599 
L 259.123241 79.182599 
L 262.284298 83.049639 
L 265.30159 83.682385 
L 268.438766 85.298632 
L 271.473508 88.563231 
L 274.604471 90.335747 
L 277.647559 91.353391 
L 280.701929 91.999121 
L 280.755326 91.999121 
L 283.825908 94.76836 
L 286.878376 99.023855 
L 289.960052 101.844197 
L 293.061556 105.889116 
L 296.141899 108.402215 
L 299.226247 110.085827 
L 302.30263 111.284045 
L 305.36024 111.860784 
L 308.446542 112.072559 
L 311.518471 112.390091 
L 314.60616 112.777626 
L 317.683668 113.04256 
L 317.750564 113.127464 
L 320.755394 113.522152 
L 323.831394 114.122841 
L 326.914018 114.47151 
L 329.992125 115.447989 
L 333.070286 116.378195 
L 336.147636 118.305813 
L 339.219938 120.129357 
L 342.23838 122.981891 
L 342.29711 122.981891 
L 345.376621 129.500203 
L 348.452978 133.690061 
L 351.530501 142.456443 
L 354.608102 155.110163 
L 357.684347 166.194572 
L 360.762697 191.216499 
L 363.83908 239.499434 
L 364.358028 239.499434 
L 364.636899 239.499434 
L 364.82121 239.499434 
L 365.004258 239.499434 
L 366.338559 239.499434 
L 366.854168 239.499434 
L 366.915803 276.137267 
L 367.938324 290.126656 
L 368.263251 290.625654 
L 369.214982 290.812262 
L 369.678432 290.985275 
L 369.754898 291.484767 
L 369.992455 291.484767 
L 370.803069 291.484767 
L 372.162864 291.484767 
L 373.068416 291.484767 
L 376.145617 291.484767 
L 379.222798 291.484767 
L 379.287015 291.484767 
L 382.300203 291.484767 
L 385.376358 291.484767 
L 388.453314 291.484767 
L 390.505141 291.484767 
" style="fill:none;stroke:#d62728;stroke-linecap:square;stroke-width:1.5;"/>
   </g>
   <g id="line2d_70">
    <path clip-path="url(#p6bfc95eaec)" d="M 96.092577 20.123892 
L 114.616895 21.319776 
L 125.452926 22.649942 
L 133.141212 22.880368 
L 139.10471 23.854026 
L 143.977243 25.746912 
L 148.096911 26.259924 
L 151.66553 26.259924 
L 157.629028 27.256408 
L 160.176187 27.256408 
L 162.501561 27.256408 
L 166.621229 27.256408 
L 168.465059 27.256408 
L 171.810037 27.367396 
L 174.782535 27.370579 
L 176.153345 29.097975 
L 178.700504 29.339752 
L 182.116844 29.339752 
L 185.145546 29.339752 
L 187.865683 29.339752 
L 191.109044 29.339752 
L 194.001046 29.339752 
L 194.677663 29.339752 
L 197.224822 29.339752 
L 200.641161 30.004239 
L 203.669864 30.561744 
L 206.817608 30.561744 
L 209.633362 31.219593 
L 212.865813 31.3391 
L 216.051119 33.678713 
L 219.165479 41.710038 
L 222.194181 45.633936 
L 225.128977 45.633936 
L 228.347893 57.385629 
L 231.390131 57.385629 
L 234.424873 59.198407 
L 237.555836 61.681669 
L 237.689796 61.681669 
L 240.598924 61.681669 
L 243.759981 61.944373 
L 246.777273 63.62846 
L 249.914448 63.866436 
L 252.949191 64.695398 
L 256.080154 64.695398 
L 256.214114 65.720955 
L 259.123241 67.815001 
L 262.231008 68.133476 
L 265.30159 71.720046 
L 268.354059 73.47351 
L 271.435734 76.370724 
L 274.537239 78.246189 
L 277.617581 82.069946 
L 280.701929 84.184753 
L 283.778312 88.531636 
L 286.835922 88.533948 
L 289.922225 92.519116 
L 292.994154 95.078725 
L 296.081842 98.528872 
L 299.159351 102.046499 
L 299.226247 102.046499 
L 302.231077 104.205209 
L 305.307077 104.734047 
L 308.389701 104.951482 
L 311.467808 105.002943 
L 314.545969 105.014131 
L 317.623318 105.087089 
L 317.750564 105.087089 
L 320.69562 105.180345 
L 323.772793 105.29145 
L 326.852303 105.425416 
L 329.928661 105.558289 
L 333.006184 105.751577 
L 336.083785 105.931182 
L 339.16003 106.148788 
L 342.23838 106.40547 
L 345.314763 106.817983 
L 348.391486 107.210888 
L 351.468137 107.619894 
L 354.544099 108.153794 
L 357.621299 108.841944 
L 360.69848 109.529082 
L 360.762697 109.5547 
L 363.775885 110.488085 
L 366.852041 111.665193 
L 369.928996 113.010281 
L 373.005949 115.095397 
L 376.083173 117.165893 
L 379.159769 121.610299 
L 379.287015 122.318947 
L 382.236858 129.917639 
L 385.31351 140.048349 
L 388.390655 159.055941 
L 391.467229 208.6025 
L 393.530832 208.6025 
L 393.997248 208.6025 
L 394.242714 208.6025 
L 394.485946 208.6025 
L 394.544145 273.325103 
L 394.636849 273.325103 
L 394.876537 273.325103 
L 395.084514 289.983075 
L 395.4081 290.010193 
L 395.698907 290.0481 
L 395.756691 290.155195 
L 396.355994 290.223469 
L 397.162112 290.307019 
L 397.21682 290.3129 
L 397.620908 290.3129 
L 398.130123 290.3992 
" style="fill:none;stroke:#9467bd;stroke-linecap:square;stroke-width:1.5;"/>
   </g>
   <g id="patch_3">
    <path d="M 80.9907 289.912 
L 80.9907 5.52 
" style="fill:none;stroke:#000000;stroke-linecap:square;stroke-linejoin:miter;stroke-width:0.8;"/>
   </g>
   <g id="patch_4">
    <path d="M 413.232 289.912 
L 413.232 5.52 
" style="fill:none;stroke:#000000;stroke-linecap:square;stroke-linejoin:miter;stroke-width:0.8;"/>
   </g>
   <g id="patch_5">
    <path d="M 80.9907 289.912 
L 413.232 289.912 
" style="fill:none;stroke:#000000;stroke-linecap:square;stroke-linejoin:miter;stroke-width:0.8;"/>
   </g>
   <g id="patch_6">
    <path d="M 80.9907 5.52 
L 413.232 5.52 
" style="fill:none;stroke:#000000;stroke-linecap:square;stroke-linejoin:miter;stroke-width:0.8;"/>
   </g>
   <g id="text_13">
    <!-- bbob - f9 -->
    <defs>
     <path d="M 4.890625 31.390625 
L 31.203125 31.390625 
L 31.203125 23.390625 
L 4.890625 23.390625 
z
" id="DejaVuSans-2d"/>
     <path d="M 10.984375 1.515625 
L 10.984375 10.5 
Q 14.703125 8.734375 18.5 7.8125 
Q 22.3125 6.890625 25.984375 6.890625 
Q 35.75 6.890625 40.890625 13.453125 
Q 46.046875 20.015625 46.78125 33.40625 
Q 43.953125 29.203125 39.59375 26.953125 
Q 35.25 24.703125 29.984375 24.703125 
Q 19.046875 24.703125 12.671875 31.3125 
Q 6.296875 37.9375 6.296875 49.421875 
Q 6.296875 60.640625 12.9375 67.421875 
Q 19.578125 74.21875 30.609375 74.21875 
Q 43.265625 74.21875 49.921875 64.515625 
Q 56.59375 54.828125 56.59375 36.375 
Q 56.59375 19.140625 48.40625 8.859375 
Q 40.234375 -1.421875 26.421875 -1.421875 
Q 22.703125 -1.421875 18.890625 -0.6875 
Q 15.09375 0.046875 10.984375 1.515625 
z
M 30.609375 32.421875 
Q 37.25 32.421875 41.125 36.953125 
Q 45.015625 41.5 45.015625 49.421875 
Q 45.015625 57.28125 41.125 61.84375 
Q 37.25 66.40625 30.609375 66.40625 
Q 23.96875 66.40625 20.09375 61.84375 
Q 16.21875 57.28125 16.21875 49.421875 
Q 16.21875 41.5 20.09375 36.953125 
Q 23.96875 32.421875 30.609375 32.421875 
z
" id="DejaVuSans-39"/>
    </defs>
    <g transform="translate(84.313113 26.404715)scale(0.2 -0.2)">
     <use xlink:href="#DejaVuSans-62"/>
     <use x="63.476562" xlink:href="#DejaVuSans-62"/>
     <use x="126.953125" xlink:href="#DejaVuSans-6f"/>
     <use x="188.134766" xlink:href="#DejaVuSans-62"/>
     <use x="251.611328" xlink:href="#DejaVuSans-20"/>
     <use x="283.398438" xlink:href="#DejaVuSans-2d"/>
     <use x="319.482422" xlink:href="#DejaVuSans-20"/>
     <use x="351.269531" xlink:href="#DejaVuSans-66"/>
     <use x="386.474609" xlink:href="#DejaVuSans-39"/>
    </g>
    <!-- 15 instances -->
    <g transform="translate(84.313113 48.80034)scale(0.2 -0.2)">
     <use xlink:href="#DejaVuSans-31"/>
     <use x="63.623047" xlink:href="#DejaVuSans-35"/>
     <use x="127.246094" xlink:href="#DejaVuSans-20"/>
     <use x="159.033203" xlink:href="#DejaVuSans-69"/>
     <use x="186.816406" xlink:href="#DejaVuSans-6e"/>
     <use x="250.195312" xlink:href="#DejaVuSans-73"/>
     <use x="302.294922" xlink:href="#DejaVuSans-74"/>
     <use x="341.503906" xlink:href="#DejaVuSans-61"/>
     <use x="402.783203" xlink:href="#DejaVuSans-6e"/>
     <use x="466.162109" xlink:href="#DejaVuSans-63"/>
     <use x="521.142578" xlink:href="#DejaVuSans-65"/>
     <use x="582.666016" xlink:href="#DejaVuSans-73"/>
    </g>
   </g>
   <g id="text_14">
    <!-- v2.4 -->
    <defs>
     <path d="M 10.6875 12.40625 
L 21 12.40625 
L 21 0 
L 10.6875 0 
z
" id="DejaVuSans-2e"/>
    </defs>
    <g style="fill:#808080;" transform="translate(236.200412 284.988393)scale(0.1 -0.1)">
     <use xlink:href="#DejaVuSans-76"/>
     <use x="59.179688" xlink:href="#DejaVuSans-32"/>
     <use x="122.802734" xlink:href="#DejaVuSans-2e"/>
     <use x="154.589844" xlink:href="#DejaVuSans-34"/>
    </g>
   </g>
   <g id="legend_1">
    <g id="patch_7">
     <path d="M 94.9907 279.912 
L 199.8407 279.912 
Q 203.8407 279.912 203.8407 275.912 
L 203.8407 131.13075 
Q 203.8407 127.13075 199.8407 127.13075 
L 94.9907 127.13075 
Q 90.9907 127.13075 90.9907 131.13075 
L 90.9907 275.912 
Q 90.9907 279.912 94.9907 279.912 
z
" style="fill:#ffffff;opacity:0.2;stroke:#cccccc;stroke-linejoin:miter;"/>
    </g>
    <g id="line2d_71">
     <path d="M 98.9907 143.327625 
L 138.9907 143.327625 
" style="fill:none;stroke:#1f77b4;stroke-linecap:square;stroke-width:1.5;"/>
    </g>
    <g id="line2d_72"/>
    <g id="text_15">
     <!-- 2D -->
     <defs>
      <path d="M 19.671875 64.796875 
L 19.671875 8.109375 
L 31.59375 8.109375 
Q 46.6875 8.109375 53.6875 14.9375 
Q 60.6875 21.78125 60.6875 36.53125 
Q 60.6875 51.171875 53.6875 57.984375 
Q 46.6875 64.796875 31.59375 64.796875 
z
M 9.8125 72.90625 
L 30.078125 72.90625 
Q 51.265625 72.90625 61.171875 64.09375 
Q 71.09375 55.28125 71.09375 36.53125 
Q 71.09375 17.671875 61.125 8.828125 
Q 51.171875 0 30.078125 0 
L 9.8125 0 
z
" id="DejaVuSans-44"/>
     </defs>
     <g transform="translate(154.9907 150.327625)scale(0.2 -0.2)">
      <use xlink:href="#DejaVuSans-32"/>
      <use x="63.623047" xlink:href="#DejaVuSans-44"/>
     </g>
    </g>
    <g id="line2d_73">
     <path d="M 98.9907 172.683875 
L 138.9907 172.683875 
" style="fill:none;stroke:#ff7f0e;stroke-linecap:square;stroke-width:1.5;"/>
    </g>
    <g id="line2d_74"/>
    <g id="text_16">
     <!-- 3D -->
     <g transform="translate(154.9907 179.683875)scale(0.2 -0.2)">
      <use xlink:href="#DejaVuSans-33"/>
      <use x="63.623047" xlink:href="#DejaVuSans-44"/>
     </g>
    </g>
    <g id="line2d_75">
     <path d="M 98.9907 202.040125 
L 138.9907 202.040125 
" style="fill:none;stroke:#2ca02c;stroke-linecap:square;stroke-width:1.5;"/>
    </g>
    <g id="line2d_76"/>
    <g id="text_17">
     <!-- 5D -->
     <g transform="translate(154.9907 209.040125)scale(0.2 -0.2)">
      <use xlink:href="#DejaVuSans-35"/>
      <use x="63.623047" xlink:href="#DejaVuSans-44"/>
     </g>
    </g>
    <g id="line2d_77">
     <path d="M 98.9907 231.396375 
L 138.9907 231.396375 
" style="fill:none;stroke:#d62728;stroke-linecap:square;stroke-width:1.5;"/>
    </g>
    <g id="line2d_78"/>
    <g id="text_18">
     <!-- 10D -->
     <g transform="translate(154.9907 238.396375)scale(0.2 -0.2)">
      <use xlink:href="#DejaVuSans-31"/>
      <use x="63.623047" xlink:href="#DejaVuSans-30"/>
      <use x="127.246094" xlink:href="#DejaVuSans-44"/>
     </g>
    </g>
    <g id="line2d_79">
     <path d="M 98.9907 260.752625 
L 138.9907 260.752625 
" style="fill:none;stroke:#9467bd;stroke-linecap:square;stroke-width:1.5;"/>
    </g>
    <g id="line2d_80"/>
    <g id="text_19">
     <!-- 20D -->
     <g transform="translate(154.9907 267.752625)scale(0.2 -0.2)">
      <use xlink:href="#DejaVuSans-32"/>
      <use x="63.623047" xlink:href="#DejaVuSans-30"/>
      <use x="127.246094" xlink:href="#DejaVuSans-44"/>
     </g>
    </g>
   </g>
  </g>
 </g>
 <defs>
  <clipPath id="p6bfc95eaec">
   <rect height="284.392" width="332.2413" x="80.9907" y="5.52"/>
  </clipPath>
 </defs>
</svg>
