<?xml version="1.0" encoding="utf-8" standalone="no"?>
<!DOCTYPE svg PUBLIC "-//W3C//DTD SVG 1.1//EN"
  "http://www.w3.org/Graphics/SVG/1.1/DTD/svg11.dtd">
<!-- Created with matplotlib (http://matplotlib.org/) -->
<svg height="345.6pt" version="1.1" viewBox="0 0 460.8 345.6" width="460.8pt" xmlns="http://www.w3.org/2000/svg" xmlns:xlink="http://www.w3.org/1999/xlink">
 <defs>
  <style type="text/css">
*{stroke-linecap:butt;stroke-linejoin:round;}
  </style>
 </defs>
 <g id="figure_1">
  <g id="patch_1">
   <path d="M 0 345.6 
L 460.8 345.6 
L 460.8 0 
L 0 0 
z
" style="fill:#ffffff;"/>
  </g>
  <g id="axes_1">
   <g id="patch_2">
    <path d="M 59.72 291.28 
L 446.802248 291.28 
L 446.802248 6.845228 
L 59.72 6.845228 
z
" style="fill:#ffffff;"/>
   </g>
   <g id="line2d_1">
    <path clip-path="url(#p8420a5c630)" d="M 182.495306 291.28 
L 182.495306 287.525086 
L 185.101951 287.525086 
L 185.101951 283.770171 
L 185.919591 283.770171 
L 185.919591 280.015257 
L 186.894226 280.015257 
L 186.894226 276.260342 
L 187.013706 276.260342 
L 187.013706 272.505428 
L 187.251147 272.505428 
L 187.251147 268.750513 
L 190.48543 268.750513 
L 190.48543 264.995599 
L 191.922561 264.995599 
L 191.922561 261.240684 
L 193.855599 261.240684 
L 193.855599 257.48577 
L 196.695286 257.48577 
L 196.695286 253.730855 
L 197.485747 253.730855 
L 197.485747 249.975941 
L 202.263907 249.975941 
L 202.263907 246.221026 
L 207.744421 246.221026 
L 207.744421 242.466112 
L 211.592159 242.466112 
L 211.592159 238.711197 
L 212.156709 238.711197 
L 212.156709 234.956283 
L 212.686273 234.956283 
L 212.686273 231.201368 
L 213.229411 231.201368 
L 213.229411 227.446454 
L 213.439109 227.446454 
L 213.439109 223.691539 
L 215.47564 223.691539 
L 215.47564 219.936625 
L 216.136923 219.936625 
L 216.136923 216.18171 
L 225.735322 216.18171 
L 225.735322 212.426796 
L 226.459263 212.426796 
L 226.459263 208.671881 
L 227.349252 208.671881 
L 227.349252 204.916967 
L 229.234209 204.916967 
L 229.234209 201.162052 
L 235.986352 201.162052 
L 235.986352 197.407138 
L 238.986046 197.407138 
L 238.986046 193.652223 
L 241.277422 193.652223 
L 241.277422 189.897309 
L 249.68573 189.897309 
L 249.68573 186.142394 
L 249.68573 186.142394 
L 249.68573 186.142394 
L 446.802248 186.142394 
" style="fill:none;stroke:#f5deb3;stroke-linecap:square;stroke-width:1.5;"/>
   </g>
   <g id="line2d_2">
    <path clip-path="url(#p8420a5c630)" d="M 237.225027 291.28 
L 237.225027 280.015257 
L 250.371199 280.015257 
L 250.371199 268.750513 
L 260.186252 268.750513 
L 260.186252 257.48577 
L 291.635933 257.48577 
L 291.635933 246.221026 
L 314.469923 246.221026 
L 314.469923 234.956283 
L 314.469923 234.956283 
L 314.469923 234.956283 
L 446.802248 234.956283 
" style="fill:none;stroke:#f5deb3;stroke-linecap:square;stroke-width:1.5;"/>
   </g>
   <g id="line2d_3">
    <path clip-path="url(#p8420a5c630)" d="M 154.827092 291.28 
L 154.827092 287.525086 
L 158.189738 287.525086 
L 158.189738 283.770171 
L 184.651595 283.770171 
L 184.651595 280.015257 
L 185.733012 280.015257 
L 185.733012 276.260342 
L 187.369118 276.260342 
L 187.369118 272.505428 
L 192.121978 272.505428 
L 192.121978 268.750513 
L 194.999346 268.750513 
L 194.999346 264.995599 
L 197.485747 264.995599 
L 197.485747 261.240684 
L 199.579674 261.240684 
L 199.579674 257.48577 
L 199.920207 257.48577 
L 199.920207 253.730855 
L 203.082007 253.730855 
L 203.082007 249.975941 
L 204.649853 249.975941 
L 204.649853 246.221026 
L 209.266757 246.221026 
L 209.266757 242.466112 
L 210.608087 242.466112 
L 210.608087 238.711197 
L 215.518777 238.711197 
L 215.518777 234.956283 
L 221.388886 234.956283 
L 221.388886 231.201368 
L 227.71422 231.201368 
L 227.71422 227.446454 
L 235.536381 227.446454 
L 235.536381 223.691539 
L 236.007106 223.691539 
L 236.007106 219.936625 
L 237.491914 219.936625 
L 237.491914 216.18171 
L 240.280112 216.18171 
L 240.280112 212.426796 
L 243.33965 212.426796 
L 243.33965 208.671881 
L 243.986854 208.671881 
L 243.986854 204.916967 
L 253.500914 204.916967 
L 253.500914 201.162052 
L 255.951753 201.162052 
L 255.951753 197.407138 
L 277.477544 197.407138 
L 277.477544 193.652223 
L 279.187923 193.652223 
L 279.187923 189.897309 
L 279.600234 189.897309 
L 279.600234 186.142394 
L 287.198713 186.142394 
L 287.198713 182.38748 
L 299.074354 182.38748 
L 299.074354 178.632565 
L 299.074354 178.632565 
L 299.074354 178.632565 
L 446.802248 178.632565 
" style="fill:none;stroke:#f5deb3;stroke-linecap:square;stroke-width:1.5;"/>
   </g>
   <g id="line2d_4">
    <path clip-path="url(#p8420a5c630)" d="M 176.504731 291.28 
L 176.504731 287.525086 
L 191.05884 287.525086 
L 191.05884 283.770171 
L 191.110391 283.770171 
L 191.110391 280.015257 
L 193.098311 280.015257 
L 193.098311 276.260342 
L 215.258949 276.260342 
L 215.258949 272.505428 
L 216.073606 272.505428 
L 216.073606 268.750513 
L 219.09523 268.750513 
L 219.09523 264.995599 
L 219.284286 264.995599 
L 219.284286 261.240684 
L 222.096491 261.240684 
L 222.096491 257.48577 
L 230.041473 257.48577 
L 230.041473 253.730855 
L 231.086992 253.730855 
L 231.086992 249.975941 
L 233.297266 249.975941 
L 233.297266 246.221026 
L 233.377138 246.221026 
L 233.377138 242.466112 
L 236.193203 242.466112 
L 236.193203 238.711197 
L 236.723978 238.711197 
L 236.723978 234.956283 
L 237.766026 234.956283 
L 237.766026 231.201368 
L 241.208581 231.201368 
L 241.208581 227.446454 
L 251.947453 227.446454 
L 251.947453 223.691539 
L 259.459163 223.691539 
L 259.459163 219.936625 
L 259.785139 219.936625 
L 259.785139 216.18171 
L 263.594033 216.18171 
L 263.594033 212.426796 
L 264.866761 212.426796 
L 264.866761 208.671881 
L 272.029599 208.671881 
L 272.029599 204.916967 
L 274.393295 204.916967 
L 274.393295 201.162052 
L 277.12831 201.162052 
L 277.12831 197.407138 
L 279.831284 197.407138 
L 279.831284 193.652223 
L 288.762971 193.652223 
L 288.762971 189.897309 
L 292.220909 189.897309 
L 292.220909 186.142394 
L 303.473582 186.142394 
L 303.473582 182.38748 
L 304.117743 182.38748 
L 304.117743 178.632565 
L 305.356287 178.632565 
L 305.356287 174.877651 
L 307.626434 174.877651 
L 307.626434 171.122736 
L 312.012836 171.122736 
L 312.012836 167.367822 
L 312.012836 167.367822 
L 312.012836 167.367822 
L 446.802248 167.367822 
" style="fill:none;stroke:#f5deb3;stroke-linecap:square;stroke-width:1.5;"/>
   </g>
   <g id="line2d_5">
    <path clip-path="url(#p8420a5c630)" d="M 183.459163 291.28 
L 183.459163 287.525086 
L 190.060907 287.525086 
L 190.060907 283.770171 
L 215.280694 283.770171 
L 215.280694 280.015257 
L 224.574107 280.015257 
L 224.574107 276.260342 
L 242.032073 276.260342 
L 242.032073 272.505428 
L 253.12618 272.505428 
L 253.12618 268.750513 
L 256.858301 268.750513 
L 256.858301 264.995599 
L 257.559151 264.995599 
L 257.559151 261.240684 
L 257.850833 261.240684 
L 257.850833 257.48577 
L 263.929166 257.48577 
L 263.929166 253.730855 
L 265.838452 253.730855 
L 265.838452 249.975941 
L 265.845605 249.975941 
L 265.845605 246.221026 
L 267.966111 246.221026 
L 267.966111 242.466112 
L 270.217157 242.466112 
L 270.217157 238.711197 
L 272.018125 238.711197 
L 272.018125 234.956283 
L 273.989771 234.956283 
L 273.989771 231.201368 
L 274.072542 231.201368 
L 274.072542 227.446454 
L 275.18588 227.446454 
L 275.18588 223.691539 
L 277.69626 223.691539 
L 277.69626 219.936625 
L 280.843872 219.936625 
L 280.843872 216.18171 
L 284.536162 216.18171 
L 284.536162 212.426796 
L 287.007818 212.426796 
L 287.007818 208.671881 
L 287.293675 208.671881 
L 287.293675 204.916967 
L 295.998428 204.916967 
L 295.998428 201.162052 
L 296.316004 201.162052 
L 296.316004 197.407138 
L 297.147246 197.407138 
L 297.147246 193.652223 
L 299.133275 193.652223 
L 299.133275 189.897309 
L 300.883546 189.897309 
L 300.883546 186.142394 
L 301.655138 186.142394 
L 301.655138 182.38748 
L 305.177649 182.38748 
L 305.177649 178.632565 
L 353.354647 178.632565 
L 353.354647 174.877651 
L 353.354647 174.877651 
L 353.354647 174.877651 
L 446.802248 174.877651 
" style="fill:none;stroke:#f5deb3;stroke-linecap:square;stroke-width:1.5;"/>
   </g>
   <g id="line2d_6"/>
   <g id="line2d_7">
    <path clip-path="url(#p8420a5c630)" d="M 193.479513 291.28 
L 193.479513 287.525086 
L 198.373998 287.525086 
L 198.373998 283.770171 
L 199.807155 283.770171 
L 199.807155 280.015257 
L 202.778012 280.015257 
L 202.778012 276.260342 
L 208.968835 276.260342 
L 208.968835 272.505428 
L 249.365595 272.505428 
L 249.365595 268.750513 
L 259.731813 268.750513 
L 259.731813 264.995599 
L 262.289162 264.995599 
L 262.289162 261.240684 
L 262.903553 261.240684 
L 262.903553 257.48577 
L 265.988281 257.48577 
L 265.988281 253.730855 
L 273.742679 253.730855 
L 273.742679 249.975941 
L 275.491672 249.975941 
L 275.491672 246.221026 
L 276.396882 246.221026 
L 276.396882 242.466112 
L 276.558369 242.466112 
L 276.558369 238.711197 
L 277.63059 238.711197 
L 277.63059 234.956283 
L 278.944762 234.956283 
L 278.944762 231.201368 
L 282.399466 231.201368 
L 282.399466 227.446454 
L 283.284542 227.446454 
L 283.284542 223.691539 
L 284.203864 223.691539 
L 284.203864 219.936625 
L 288.7535 219.936625 
L 288.7535 216.18171 
L 289.899585 216.18171 
L 289.899585 212.426796 
L 291.031206 212.426796 
L 291.031206 208.671881 
L 294.172633 208.671881 
L 294.172633 204.916967 
L 296.769121 204.916967 
L 296.769121 201.162052 
L 299.462685 201.162052 
L 299.462685 197.407138 
L 307.927472 197.407138 
L 307.927472 193.652223 
L 308.027633 193.652223 
L 308.027633 189.897309 
L 311.804888 189.897309 
L 311.804888 186.142394 
L 323.458347 186.142394 
L 323.458347 182.38748 
L 325.090188 182.38748 
L 325.090188 178.632565 
L 326.358405 178.632565 
L 326.358405 174.877651 
L 331.713834 174.877651 
L 331.713834 171.122736 
L 333.522368 171.122736 
L 333.522368 167.367822 
L 334.029781 167.367822 
L 334.029781 163.612907 
L 340.858721 163.612907 
L 340.858721 159.857993 
L 342.660979 159.857993 
L 342.660979 156.103079 
L 347.182581 156.103079 
L 347.182581 152.348164 
L 351.003751 152.348164 
L 351.003751 148.59325 
L 353.627786 148.59325 
L 353.627786 144.838335 
L 354.559261 144.838335 
L 354.559261 141.083421 
L 356.103693 141.083421 
L 356.103693 137.328506 
L 358.154862 137.328506 
L 358.154862 133.573592 
L 364.087407 133.573592 
L 364.087407 129.818677 
L 366.246195 129.818677 
L 366.246195 126.063763 
L 368.505495 126.063763 
L 368.505495 122.308848 
L 368.661498 122.308848 
L 368.661498 118.553934 
L 371.441454 118.553934 
L 371.441454 114.799019 
L 371.570231 114.799019 
L 371.570231 111.044105 
L 374.162908 111.044105 
L 374.162908 107.28919 
L 381.014216 107.28919 
L 381.014216 103.534276 
L 397.039979 103.534276 
L 397.039979 99.779361 
L 398.193479 99.779361 
L 398.193479 96.024447 
L 405.144329 96.024447 
L 405.144329 92.269532 
L 405.690627 92.269532 
L 405.690627 88.514618 
L 405.783831 88.514618 
L 405.783831 84.759703 
L 412.783679 84.759703 
L 412.783679 81.004789 
L 413.632736 81.004789 
L 413.632736 77.249874 
L 429.41247 77.249874 
L 429.41247 73.49496 
L 429.504151 73.49496 
L 429.504151 69.740045 
L 432.16871 69.740045 
L 432.16871 65.985131 
L 432.16871 65.985131 
L 432.16871 65.985131 
L 446.802248 65.985131 
" style="fill:none;stroke:#f5deb3;stroke-linecap:square;stroke-width:1.5;"/>
   </g>
   <g id="line2d_8">
    <path clip-path="url(#p8420a5c630)" d="M 287.141916 291.28 
L 287.141916 287.525086 
L 292.033357 287.525086 
L 292.033357 283.770171 
L 294.053981 283.770171 
L 294.053981 280.015257 
L 295.807612 280.015257 
L 295.807612 276.260342 
L 296.255675 276.260342 
L 296.255675 272.505428 
L 296.934663 272.505428 
L 296.934663 268.750513 
L 299.918931 268.750513 
L 299.918931 264.995599 
L 317.375083 264.995599 
L 317.375083 261.240684 
L 317.508342 261.240684 
L 317.508342 257.48577 
L 317.522481 257.48577 
L 317.522481 253.730855 
L 318.203944 253.730855 
L 318.203944 249.975941 
L 318.813664 249.975941 
L 318.813664 246.221026 
L 319.315623 246.221026 
L 319.315623 242.466112 
L 339.016129 242.466112 
L 339.016129 238.711197 
L 339.313328 238.711197 
L 339.313328 234.956283 
L 339.349414 234.956283 
L 339.349414 231.201368 
L 340.004575 231.201368 
L 340.004575 227.446454 
L 340.219181 227.446454 
L 340.219181 223.691539 
L 346.78827 223.691539 
L 346.78827 219.936625 
L 347.38235 219.936625 
L 347.38235 216.18171 
L 364.049612 216.18171 
L 364.049612 212.426796 
L 364.100816 212.426796 
L 364.100816 208.671881 
L 364.344383 208.671881 
L 364.344383 204.916967 
L 366.925434 204.916967 
L 366.925434 201.162052 
L 376.703657 201.162052 
L 376.703657 197.407138 
L 382.279797 197.407138 
L 382.279797 193.652223 
L 382.279797 193.652223 
L 382.279797 193.652223 
L 446.802248 193.652223 
" style="fill:none;stroke:#f5deb3;stroke-linecap:square;stroke-width:1.5;"/>
   </g>
   <g id="line2d_9">
    <path clip-path="url(#p8420a5c630)" d="M 186.834295 291.28 
L 186.834295 287.525086 
L 190.220858 287.525086 
L 190.220858 283.770171 
L 199.273464 283.770171 
L 199.273464 280.015257 
L 199.995322 280.015257 
L 199.995322 276.260342 
L 227.306832 276.260342 
L 227.306832 272.505428 
L 230.613157 272.505428 
L 230.613157 268.750513 
L 233.95229 268.750513 
L 233.95229 264.995599 
L 236.510836 264.995599 
L 236.510836 261.240684 
L 240.800694 261.240684 
L 240.800694 257.48577 
L 251.425844 257.48577 
L 251.425844 253.730855 
L 252.372903 253.730855 
L 252.39603 246.221026 
L 260.60327 246.221026 
L 260.60327 242.466112 
L 262.756206 242.466112 
L 262.756206 238.711197 
L 270.482068 238.711197 
L 270.482068 234.956283 
L 273.569494 234.956283 
L 273.569494 231.201368 
L 275.420618 231.201368 
L 275.420618 227.446454 
L 276.548608 227.446454 
L 276.548608 223.691539 
L 279.481793 223.691539 
L 279.481793 219.936625 
L 281.300741 219.936625 
L 281.300741 216.18171 
L 283.764013 216.18171 
L 283.7659 208.671881 
L 285.855318 208.671881 
L 285.855318 204.916967 
L 289.73391 204.916967 
L 289.73391 201.162052 
L 291.621685 201.162052 
L 291.621685 197.407138 
L 293.54503 197.407138 
L 293.54503 193.652223 
L 296.079983 193.652223 
L 296.079983 189.897309 
L 302.195782 189.897309 
L 302.195782 186.142394 
L 303.260859 186.142394 
L 303.260859 182.38748 
L 304.302339 182.38748 
L 304.302339 178.632565 
L 310.102454 178.632565 
L 310.102454 174.877651 
L 311.538739 174.877651 
L 311.538739 171.122736 
L 315.210972 171.122736 
L 315.210972 167.367822 
L 323.271535 167.367822 
L 323.271535 163.612907 
L 323.391477 163.612907 
L 323.391477 159.857993 
L 324.54676 159.857993 
L 324.54676 156.103079 
L 327.301793 156.103079 
L 327.301793 152.348164 
L 329.376721 152.348164 
L 329.376721 148.59325 
L 330.208672 148.59325 
L 330.208672 144.838335 
L 330.336373 144.838335 
L 330.336373 141.083421 
L 333.518215 141.083421 
L 333.518215 137.328506 
L 333.694328 137.328506 
L 333.694328 133.573592 
L 335.735941 133.573592 
L 335.735941 129.818677 
L 336.42774 129.818677 
L 336.42774 126.063763 
L 342.655677 126.063763 
L 342.655677 122.308848 
L 344.369683 122.308848 
L 344.410427 114.799019 
L 344.609826 114.799019 
L 344.633469 107.28919 
L 345.318146 107.28919 
L 345.318146 103.534276 
L 346.245086 103.534276 
L 346.245086 99.779361 
L 346.866149 99.779361 
L 346.916298 92.269532 
L 348.028119 92.269532 
L 348.028119 88.514618 
L 348.787637 88.514618 
L 348.787637 84.759703 
L 348.958283 84.759703 
L 348.958283 81.004789 
L 353.379188 81.004789 
L 353.379188 77.249874 
L 356.486006 77.249874 
L 356.486006 73.49496 
L 366.872151 73.49496 
L 366.872151 69.740045 
L 370.588896 69.740045 
L 370.588896 65.985131 
L 378.446961 65.985131 
L 378.446961 62.230216 
L 410.863665 62.230216 
L 410.863665 58.475302 
L 424.071178 58.475302 
L 424.071178 54.720387 
L 424.071178 54.720387 
L 446.802248 54.720387 
L 446.802248 54.720387 
" style="fill:none;stroke:#f5deb3;stroke-linecap:square;stroke-width:1.5;"/>
   </g>
   <g id="line2d_10">
    <path clip-path="url(#p8420a5c630)" d="M 275.0549 291.28 
L 275.0549 287.525086 
L 287.210393 287.525086 
L 287.210393 283.770171 
L 290.539329 283.770171 
L 290.539329 280.015257 
L 293.129485 280.015257 
L 293.129485 276.260342 
L 301.326478 276.260342 
L 301.326478 272.505428 
L 303.07209 272.505428 
L 303.07209 268.750513 
L 304.001636 268.750513 
L 304.001636 264.995599 
L 304.701894 264.995599 
L 304.701894 261.240684 
L 307.278149 261.240684 
L 307.278149 257.48577 
L 328.513197 257.48577 
L 328.513197 253.730855 
L 334.748864 253.730855 
L 334.748864 249.975941 
L 337.302862 249.975941 
L 337.302862 246.221026 
L 340.512167 246.221026 
L 340.512167 242.466112 
L 343.230309 242.466112 
L 343.230309 238.711197 
L 344.694421 238.711197 
L 344.694421 234.956283 
L 344.827238 234.956283 
L 344.827238 231.201368 
L 359.813114 231.201368 
L 359.813114 227.446454 
L 365.890391 227.446454 
L 365.890391 223.691539 
L 368.503937 223.691539 
L 368.503937 219.936625 
L 368.503937 219.936625 
L 368.503937 219.936625 
L 446.802248 219.936625 
" style="fill:none;stroke:#f5deb3;stroke-linecap:square;stroke-width:1.5;"/>
   </g>
   <g id="line2d_11">
    <path clip-path="url(#p8420a5c630)" d="M 234.939325 291.28 
L 234.939325 287.525086 
L 258.527582 287.525086 
L 258.527582 283.770171 
L 269.169869 283.770171 
L 269.169869 280.015257 
L 274.216142 280.015257 
L 274.216142 276.260342 
L 276.638765 276.260342 
L 276.638765 272.505428 
L 279.179037 272.505428 
L 279.179037 268.750513 
L 280.135701 268.750513 
L 280.135701 264.995599 
L 281.050386 264.995599 
L 281.050386 261.240684 
L 288.156741 261.240684 
L 288.156741 257.48577 
L 289.394964 257.48577 
L 289.394964 253.730855 
L 289.438135 253.730855 
L 289.438135 249.975941 
L 291.158996 249.975941 
L 291.158996 246.221026 
L 295.816203 246.221026 
L 295.816203 242.466112 
L 296.139478 242.466112 
L 296.139478 238.711197 
L 298.348501 238.711197 
L 298.348501 234.956283 
L 298.860547 234.956283 
L 298.860547 231.201368 
L 299.270277 231.201368 
L 299.270277 227.446454 
L 299.598089 227.446454 
L 299.598089 223.691539 
L 300.201538 223.691539 
L 300.201538 219.936625 
L 303.543512 219.936625 
L 303.543512 216.18171 
L 312.145364 216.18171 
L 312.145364 212.426796 
L 312.62421 212.426796 
L 312.62421 208.671881 
L 314.16372 208.671881 
L 314.16372 204.916967 
L 317.237761 204.916967 
L 317.237761 201.162052 
L 318.223803 201.162052 
L 318.223803 197.407138 
L 319.650924 197.407138 
L 319.650924 193.652223 
L 326.821901 193.652223 
L 326.821901 189.897309 
L 327.688374 189.897309 
L 327.688374 186.142394 
L 327.772428 186.142394 
L 327.772428 182.38748 
L 329.749043 182.38748 
L 329.749043 178.632565 
L 332.857813 178.632565 
L 332.857813 174.877651 
L 348.069962 174.877651 
L 348.069962 171.122736 
L 381.160149 171.122736 
L 381.160149 167.367822 
L 388.846939 167.367822 
L 388.846939 163.612907 
L 390.334209 163.612907 
L 390.334209 159.857993 
L 390.767431 159.857993 
L 390.767431 156.103079 
L 391.000799 156.103079 
L 391.000799 152.348164 
L 405.501079 152.348164 
L 405.501079 148.59325 
L 414.97291 148.59325 
L 414.97291 144.838335 
L 417.908634 144.838335 
L 417.908634 141.083421 
L 419.486122 141.083421 
L 419.486122 137.328506 
L 430.118906 137.328506 
L 430.118906 133.573592 
L 430.913198 133.573592 
L 430.913198 129.818677 
L 444.837977 129.818677 
L 444.837977 126.063763 
L 445.700635 126.063763 
L 445.700635 122.308848 
L 445.700635 122.308848 
L 445.700635 122.308848 
L 446.802248 122.308848 
" style="fill:none;stroke:#f5deb3;stroke-linecap:square;stroke-width:1.5;"/>
   </g>
   <g id="line2d_12">
    <path clip-path="url(#p8420a5c630)" d="M 189.357038 291.28 
L 189.357038 287.525086 
L 191.872485 287.525086 
L 191.872485 283.770171 
L 193.050294 283.770171 
L 193.050294 280.015257 
L 203.316188 280.015257 
L 203.316188 276.260342 
L 203.515369 276.260342 
L 203.515369 272.505428 
L 214.262553 272.505428 
L 214.262553 268.750513 
L 215.712079 268.750513 
L 215.712079 264.995599 
L 216.721086 264.995599 
L 216.721086 261.240684 
L 217.333747 261.240684 
L 217.333747 257.48577 
L 220.859565 257.48577 
L 220.859565 253.730855 
L 225.750285 253.730855 
L 225.750285 249.975941 
L 227.23599 249.975941 
L 227.23599 246.221026 
L 228.32123 246.221026 
L 228.32123 242.466112 
L 229.679779 242.466112 
L 229.679779 238.711197 
L 229.757679 238.711197 
L 229.757679 234.956283 
L 229.912832 234.956283 
L 229.912832 231.201368 
L 231.271848 231.201368 
L 231.271848 227.446454 
L 234.406256 227.446454 
L 234.406256 223.691539 
L 240.377906 223.691539 
L 240.377906 219.936625 
L 246.521443 219.936625 
L 246.521443 216.18171 
L 252.883011 216.18171 
L 252.883011 212.426796 
L 256.129355 212.426796 
L 256.129355 208.671881 
L 258.873686 208.671881 
L 258.873686 204.916967 
L 260.736618 204.916967 
L 260.736618 201.162052 
L 269.601625 201.162052 
L 269.601625 197.407138 
L 273.452531 197.407138 
L 273.452531 193.652223 
L 277.806149 193.652223 
L 277.806149 189.897309 
L 278.305697 189.897309 
L 278.305697 186.142394 
L 287.128535 186.142394 
L 287.128535 182.38748 
L 287.487595 182.38748 
L 287.487595 178.632565 
L 287.487595 178.632565 
L 287.487595 178.632565 
L 446.802248 178.632565 
" style="fill:none;stroke:#f5deb3;stroke-linecap:square;stroke-width:1.5;"/>
   </g>
   <g id="line2d_13">
    <path clip-path="url(#p8420a5c630)" d="M 235.057612 291.28 
L 235.057612 287.525086 
L 244.748822 287.525086 
L 244.748822 283.770171 
L 248.422627 283.770171 
L 248.422627 280.015257 
L 249.255911 280.015257 
L 249.255911 276.260342 
L 253.04724 276.260342 
L 253.04724 272.505428 
L 256.098989 272.505428 
L 256.098989 268.750513 
L 258.611038 268.750513 
L 258.611038 264.995599 
L 258.809404 264.995599 
L 258.809404 261.240684 
L 258.809404 261.240684 
L 258.809404 257.48577 
L 260.590332 257.48577 
L 260.590332 253.730855 
L 270.765506 253.730855 
L 270.765506 249.975941 
L 270.765506 249.975941 
L 270.765506 249.975941 
L 446.802248 249.975941 
" style="fill:none;stroke:#f5deb3;stroke-linecap:square;stroke-width:1.5;"/>
   </g>
   <g id="line2d_14">
    <path clip-path="url(#p8420a5c630)" d="M 163.902935 291.28 
L 163.902935 287.525086 
L 171.792661 287.525086 
L 171.792661 283.770171 
L 213.716288 283.770171 
L 213.716288 280.015257 
L 240.466515 280.015257 
L 240.466515 276.260342 
L 247.00897 276.260342 
L 247.00897 272.505428 
L 250.309006 272.505428 
L 250.309006 268.750513 
L 251.191534 268.750513 
L 251.191534 264.995599 
L 256.526138 264.995599 
L 256.526138 261.240684 
L 257.167083 261.240684 
L 257.167083 257.48577 
L 260.637743 257.48577 
L 260.637743 253.730855 
L 262.575948 253.730855 
L 262.575948 249.975941 
L 262.963069 249.975941 
L 262.963069 246.221026 
L 263.180217 246.221026 
L 263.180217 242.466112 
L 264.617546 242.466112 
L 264.617546 238.711197 
L 266.76027 238.711197 
L 266.76027 234.956283 
L 269.532739 234.956283 
L 269.532739 231.201368 
L 272.209687 231.201368 
L 272.209687 227.446454 
L 285.677928 227.446454 
L 285.677928 223.691539 
L 286.075054 223.691539 
L 286.075054 219.936625 
L 287.068242 219.936625 
L 287.068242 216.18171 
L 287.706415 216.18171 
L 287.706415 212.426796 
L 295.37222 212.426796 
L 295.37222 208.671881 
L 297.968174 208.671881 
L 297.968174 204.916967 
L 301.171842 204.916967 
L 301.171842 201.162052 
L 302.997175 201.162052 
L 302.997175 197.407138 
L 305.427772 197.407138 
L 305.427772 193.652223 
L 312.890299 193.652223 
L 312.890299 189.897309 
L 312.890299 189.897309 
L 312.890299 189.897309 
L 446.802248 189.897309 
" style="fill:none;stroke:#f5deb3;stroke-linecap:square;stroke-width:1.5;"/>
   </g>
   <g id="line2d_15">
    <path clip-path="url(#p8420a5c630)" d="M 326.222367 291.28 
L 326.222367 287.525086 
L 327.490601 287.525086 
L 327.490601 283.770171 
L 329.48429 283.770171 
L 329.48429 280.015257 
L 331.776457 280.015257 
L 331.776457 276.260342 
L 333.605932 276.260342 
L 333.605932 272.505428 
L 336.463425 272.505428 
L 336.463425 268.750513 
L 338.435969 268.750513 
L 338.435969 264.995599 
L 341.724566 264.995599 
L 341.724566 261.240684 
L 346.224591 261.240684 
L 346.224591 257.48577 
L 348.460819 257.48577 
L 348.460819 253.730855 
L 348.686311 253.730855 
L 348.686311 249.975941 
L 352.167422 249.975941 
L 352.167422 246.221026 
L 352.75205 246.221026 
L 352.75205 242.466112 
L 352.790135 242.466112 
L 352.790135 238.711197 
L 353.287995 238.711197 
L 353.287995 234.956283 
L 354.029338 234.956283 
L 354.029338 231.201368 
L 355.525068 231.201368 
L 355.525068 227.446454 
L 358.100176 227.446454 
L 358.100176 223.691539 
L 362.045427 223.691539 
L 362.045427 219.936625 
L 362.045427 219.936625 
L 362.045427 219.936625 
L 446.802248 219.936625 
" style="fill:none;stroke:#f5deb3;stroke-linecap:square;stroke-width:1.5;"/>
   </g>
   <g id="line2d_16">
    <path clip-path="url(#p8420a5c630)" d="M 239.236747 291.28 
L 239.236747 287.525086 
L 296.343712 287.525086 
L 296.343712 283.770171 
L 314.8071 283.770171 
L 314.8071 280.015257 
L 315.4403 280.015257 
L 315.4403 276.260342 
L 321.139367 276.260342 
L 321.139367 272.505428 
L 326.314234 272.505428 
L 326.314234 268.750513 
L 338.553927 268.750513 
L 338.553927 264.995599 
L 345.15455 264.995599 
L 345.15455 261.240684 
L 346.016977 261.240684 
L 346.016977 257.48577 
L 347.571032 257.48577 
L 347.571032 253.730855 
L 352.813249 253.730855 
L 352.813249 249.975941 
L 356.08157 249.975941 
L 356.08157 246.221026 
L 358.08476 246.221026 
L 358.08476 242.466112 
L 359.038493 242.466112 
L 359.038493 238.711197 
L 360.215524 238.711197 
L 360.215524 234.956283 
L 360.361871 234.956283 
L 360.361871 231.201368 
L 363.572284 231.201368 
L 363.572284 227.446454 
L 363.757354 227.446454 
L 363.757354 223.691539 
L 365.380411 223.691539 
L 365.380411 219.936625 
L 369.008752 219.936625 
L 369.008752 216.18171 
L 369.202152 216.18171 
L 369.202152 212.426796 
L 374.42558 212.426796 
L 374.42558 208.671881 
L 376.842294 208.671881 
L 376.842294 204.916967 
L 377.815645 204.916967 
L 377.815645 201.162052 
L 382.45698 201.162052 
L 382.45698 197.407138 
L 384.823132 197.407138 
L 384.823132 193.652223 
L 385.721525 193.652223 
L 385.721525 189.897309 
L 386.572198 189.897309 
L 386.572198 186.142394 
L 387.369398 186.142394 
L 387.369398 182.38748 
L 387.573429 182.38748 
L 387.573429 178.632565 
L 388.209482 178.632565 
L 388.209482 174.877651 
L 393.27612 174.877651 
L 393.27612 171.122736 
L 396.120442 171.122736 
L 396.120442 167.367822 
L 399.680433 167.367822 
L 399.680433 163.612907 
L 403.965888 163.612907 
L 403.965888 159.857993 
L 410.118708 159.857993 
L 410.118708 156.103079 
L 410.583106 156.103079 
L 410.583106 152.348164 
L 411.554469 152.348164 
L 411.554469 148.59325 
L 413.225433 148.59325 
L 413.225433 144.838335 
L 414.597429 144.838335 
L 414.597429 141.083421 
L 416.774127 141.083421 
L 416.774127 137.328506 
L 430.941302 137.328506 
L 430.941302 133.573592 
L 433.924123 133.573592 
L 433.924123 129.818677 
L 438.732928 129.818677 
L 438.732928 126.063763 
L 438.732928 126.063763 
L 438.732928 126.063763 
L 446.802248 126.063763 
" style="fill:none;stroke:#f5deb3;stroke-linecap:square;stroke-width:1.5;"/>
   </g>
   <g id="line2d_17">
    <path clip-path="url(#p8420a5c630)" d="M 245.923532 291.28 
L 245.923532 287.525086 
L 247.598113 287.525086 
L 247.598113 283.770171 
L 260.899215 283.770171 
L 260.899215 280.015257 
L 311.677702 280.015257 
L 311.677702 276.260342 
L 338.503434 276.260342 
L 338.503434 272.505428 
L 338.503434 272.505428 
L 338.503434 272.505428 
L 446.802248 272.505428 
" style="fill:none;stroke:#f5deb3;stroke-linecap:square;stroke-width:1.5;"/>
   </g>
   <g id="line2d_18">
    <path clip-path="url(#p8420a5c630)" d="M 171.064882 291.28 
L 171.064882 287.525086 
L 184.325423 287.525086 
L 184.325423 283.770171 
L 189.84621 283.770171 
L 189.84621 280.015257 
L 191.007194 280.015257 
L 191.007194 276.260342 
L 191.264477 276.260342 
L 191.264477 272.505428 
L 199.807155 272.505428 
L 199.807155 268.750513 
L 205.059802 268.750513 
L 205.059802 264.995599 
L 206.074275 264.995599 
L 206.074275 261.240684 
L 208.111782 261.240684 
L 208.111782 257.48577 
L 210.965334 257.48577 
L 210.965334 253.730855 
L 217.029091 253.730855 
L 217.029091 249.975941 
L 217.655103 249.975941 
L 217.655103 246.221026 
L 218.847535 246.221026 
L 218.847535 242.466112 
L 219.265438 242.466112 
L 219.265438 238.711197 
L 227.462057 238.711197 
L 227.462057 234.956283 
L 228.700772 234.956283 
L 228.700772 231.201368 
L 228.995418 231.201368 
L 228.995418 227.446454 
L 229.339688 227.446454 
L 229.339688 223.691539 
L 230.041473 223.691539 
L 230.041473 219.936625 
L 238.229781 219.936625 
L 238.229781 216.18171 
L 238.742492 216.18171 
L 238.742492 212.426796 
L 242.791368 212.426796 
L 242.791368 208.671881 
L 244.900271 208.671881 
L 244.900271 204.916967 
L 249.577294 204.916967 
L 249.577294 201.162052 
L 256.789219 201.162052 
L 256.789219 197.407138 
L 259.463655 197.407138 
L 259.463655 193.652223 
L 261.764605 193.652223 
L 261.764605 189.897309 
L 264.992386 189.897309 
L 264.992386 186.142394 
L 276.423861 186.142394 
L 276.423861 182.38748 
L 280.902435 182.38748 
L 280.902435 178.632565 
L 280.902435 178.632565 
L 280.902435 178.632565 
L 446.802248 178.632565 
" style="fill:none;stroke:#f5deb3;stroke-linecap:square;stroke-width:1.5;"/>
   </g>
   <g id="line2d_19">
    <path clip-path="url(#p8420a5c630)" d="M 273.715689 291.28 
L 273.715689 287.158752 
L 276.271456 287.158752 
L 276.271456 283.037505 
L 278.717549 283.037505 
L 278.717549 278.916257 
L 281.75028 278.916257 
L 281.75028 274.79501 
L 282.492401 274.79501 
L 282.492401 270.673762 
L 282.724378 270.673762 
L 282.724378 266.552514 
L 285.007491 266.552514 
L 285.113759 258.310019 
L 285.63208 258.310019 
L 285.63208 254.188772 
L 286.783451 254.188772 
L 286.783451 250.067524 
L 288.232437 250.067524 
L 288.232437 245.946276 
L 288.726649 245.946276 
L 288.726649 241.825029 
L 288.848065 241.825029 
L 288.848065 237.703781 
L 289.148545 237.703781 
L 289.148545 233.582534 
L 290.635445 233.582534 
L 290.635445 229.461286 
L 295.51397 229.461286 
L 295.51397 225.340038 
L 296.5835 225.340038 
L 296.5835 221.218791 
L 300.559123 221.218791 
L 300.559123 217.097543 
L 303.412835 217.097543 
L 303.412835 212.976295 
L 304.305058 212.976295 
L 304.305058 208.855048 
L 304.840048 208.855048 
L 304.840048 204.7338 
L 305.103761 204.7338 
L 305.105522 196.491305 
L 307.015298 196.491305 
L 307.068723 188.24881 
L 308.080747 188.24881 
L 308.080747 184.127562 
L 310.23111 184.127562 
L 310.23111 180.006315 
L 312.431618 180.006315 
L 312.431618 175.885067 
L 313.346843 175.885067 
L 313.346843 171.763819 
L 313.465381 171.763819 
L 313.465381 167.642572 
L 320.22411 167.642572 
L 320.22411 163.521324 
L 321.411856 163.521324 
L 321.434485 155.278829 
L 322.358311 155.278829 
L 322.358311 151.157581 
L 323.421726 151.157581 
L 323.421726 147.036334 
L 324.481557 147.036334 
L 324.481557 142.915086 
L 324.731408 142.915086 
L 324.731408 138.793839 
L 326.624431 138.793839 
L 326.624431 134.672591 
L 326.92719 134.672591 
L 326.92719 130.551343 
L 327.758698 130.551343 
L 327.758698 126.430096 
L 327.91092 126.430096 
L 327.91092 122.308848 
L 335.496432 122.308848 
L 335.496432 118.187601 
L 336.487859 118.187601 
L 336.487859 114.066353 
L 340.51167 114.066353 
L 340.51167 109.945105 
L 364.262718 109.945105 
L 364.262718 105.823858 
L 364.262718 105.823858 
L 446.802248 105.823858 
L 446.802248 105.823858 
" style="fill:none;stroke:#f5deb3;stroke-linecap:square;stroke-width:1.5;"/>
   </g>
   <g id="line2d_20">
    <path clip-path="url(#p8420a5c630)" d="M 167.71213 291.28 
L 167.71213 287.525086 
L 167.71213 287.525086 
L 167.71213 283.770171 
L 170.64036 283.770171 
L 170.64036 280.015257 
L 172.200202 280.015257 
L 172.200202 276.260342 
L 181.424427 276.260342 
L 181.424427 272.505428 
L 194.226702 272.505428 
L 194.226702 268.750513 
L 197.444695 268.750513 
L 197.444695 264.995599 
L 202.367486 264.995599 
L 202.367486 261.240684 
L 208.418908 261.240684 
L 208.418908 257.48577 
L 215.324132 257.48577 
L 215.324132 253.730855 
L 216.26313 253.730855 
L 216.26313 249.975941 
L 217.714949 249.975941 
L 217.714949 246.221026 
L 218.847535 246.221026 
L 218.847535 242.466112 
L 221.248709 242.466112 
L 221.248709 238.711197 
L 221.318885 238.711197 
L 221.318885 234.956283 
L 226.047876 234.956283 
L 226.047876 231.201368 
L 228.280258 231.201368 
L 228.280258 227.446454 
L 228.781438 227.446454 
L 228.781438 223.691539 
L 229.286998 223.691539 
L 229.286998 219.936625 
L 230.002942 219.936625 
L 230.002942 216.18171 
L 232.249527 216.18171 
L 232.249527 212.426796 
L 234.874593 212.426796 
L 234.874593 208.671881 
L 239.292155 208.671881 
L 239.292155 204.916967 
L 239.301379 204.916967 
L 239.301379 201.162052 
L 240.439962 201.162052 
L 240.439962 197.407138 
L 248.188557 197.407138 
L 248.188557 193.652223 
L 248.996123 193.652223 
L 248.996123 189.897309 
L 250.071406 189.897309 
L 250.071406 186.142394 
L 263.887013 186.142394 
L 263.887013 182.38748 
L 265.091747 182.38748 
L 265.091747 178.632565 
L 335.049624 178.632565 
L 335.049624 174.877651 
L 335.049624 174.877651 
L 335.049624 174.877651 
L 446.802248 174.877651 
" style="fill:none;stroke:#f5deb3;stroke-linecap:square;stroke-width:1.5;"/>
   </g>
   <g id="line2d_21">
    <path clip-path="url(#p8420a5c630)" d="M 289.895038 291.28 
L 289.895038 287.525086 
L 304.575625 287.525086 
L 304.575625 283.770171 
L 309.500648 283.770171 
L 309.500648 280.015257 
L 309.500648 280.015257 
L 309.500648 280.015257 
L 446.802248 280.015257 
" style="fill:none;stroke:#f5deb3;stroke-linecap:square;stroke-width:1.5;"/>
   </g>
   <g id="line2d_22">
    <path clip-path="url(#p8420a5c630)" d="M 157.343211 291.28 
L 157.343211 287.525086 
L 161.637627 287.525086 
L 161.637627 283.770171 
L 167.23318 283.770171 
L 167.23318 280.015257 
L 167.94857 280.015257 
L 167.94857 276.260342 
L 172.200202 276.260342 
L 172.200202 272.505428 
L 174.528289 272.505428 
L 174.528289 268.750513 
L 209.747534 268.750513 
L 209.747534 264.995599 
L 227.349252 264.995599 
L 227.349252 261.240684 
L 228.781438 261.240684 
L 228.781438 257.48577 
L 231.431076 257.48577 
L 231.431076 253.730855 
L 233.102338 253.730855 
L 233.102338 249.975941 
L 238.373145 249.975941 
L 238.373145 246.221026 
L 240.774455 246.221026 
L 240.774455 242.466112 
L 246.191648 242.466112 
L 246.191648 238.711197 
L 249.268837 238.711197 
L 249.268837 234.956283 
L 252.563129 234.956283 
L 252.563129 231.201368 
L 266.429517 231.201368 
L 266.429517 227.446454 
L 266.836312 227.446454 
L 266.836312 223.691539 
L 269.166692 223.691539 
L 269.166692 219.936625 
L 270.082219 219.936625 
L 270.082219 216.18171 
L 272.312077 216.18171 
L 272.312077 212.426796 
L 278.837009 212.426796 
L 278.837009 208.671881 
L 285.920023 208.671881 
L 285.920023 204.916967 
L 290.469623 204.916967 
L 290.469623 201.162052 
L 291.061754 201.162052 
L 291.061754 197.407138 
L 291.58318 197.407138 
L 291.58318 193.652223 
L 301.284114 193.652223 
L 301.284114 189.897309 
L 308.633619 189.897309 
L 308.633619 186.142394 
L 313.26666 186.142394 
L 313.26666 182.38748 
L 320.361888 182.38748 
L 320.361888 178.632565 
L 322.589541 178.632565 
L 322.589541 174.877651 
L 325.708684 174.877651 
L 325.708684 171.122736 
L 329.939536 171.122736 
L 329.939536 167.367822 
L 332.373149 167.367822 
L 332.373149 163.612907 
L 334.242283 163.612907 
L 334.242283 159.857993 
L 342.912728 159.857993 
L 342.912728 156.103079 
L 343.73089 156.103079 
L 343.73089 152.348164 
L 346.439744 152.348164 
L 346.439744 148.59325 
L 354.339347 148.59325 
L 354.339347 144.838335 
L 365.716095 144.838335 
L 365.716095 141.083421 
L 367.408096 141.083421 
L 367.408096 137.328506 
L 368.785623 137.328506 
L 368.785623 133.573592 
L 373.534336 133.573592 
L 373.534336 129.818677 
L 373.631586 129.818677 
L 373.631586 126.063763 
L 373.631586 126.063763 
L 373.631586 126.063763 
L 446.802248 126.063763 
" style="fill:none;stroke:#f5deb3;stroke-linecap:square;stroke-width:1.5;"/>
   </g>
   <g id="line2d_23">
    <path clip-path="url(#p8420a5c630)" d="M 240.887977 291.28 
L 240.887977 287.525086 
L 245.2828 287.525086 
L 245.2828 283.770171 
L 247.294692 283.770171 
L 247.294692 280.015257 
L 247.837146 280.015257 
L 247.837146 276.260342 
L 248.86532 276.260342 
L 248.86532 272.505428 
L 250.918718 272.505428 
L 250.918718 268.750513 
L 261.469348 268.750513 
L 261.469348 264.995599 
L 264.176962 264.995599 
L 264.176962 261.240684 
L 264.332144 261.240684 
L 264.332144 257.48577 
L 265.478458 257.48577 
L 265.478458 253.730855 
L 270.663316 253.730855 
L 270.663316 249.975941 
L 272.633866 249.975941 
L 272.633866 246.221026 
L 277.049309 246.221026 
L 277.049309 242.466112 
L 281.479377 242.466112 
L 281.479377 238.711197 
L 283.303726 238.711197 
L 283.303726 234.956283 
L 286.761424 234.956283 
L 286.761424 231.201368 
L 296.071473 231.201368 
L 296.071473 227.446454 
L 296.096995 227.446454 
L 296.096995 223.691539 
L 298.018125 223.691539 
L 298.018125 219.936625 
L 301.414029 219.936625 
L 301.414029 216.18171 
L 313.089711 216.18171 
L 313.089711 212.426796 
L 313.089711 212.426796 
L 313.089711 212.426796 
L 446.802248 212.426796 
" style="fill:none;stroke:#f5deb3;stroke-linecap:square;stroke-width:1.5;"/>
   </g>
   <g id="line2d_24">
    <path clip-path="url(#p8420a5c630)" d="M 211.066573 291.28 
L 211.066573 287.525086 
L 212.010528 287.525086 
L 212.010528 283.770171 
L 216.47222 283.770171 
L 216.47222 280.015257 
L 217.232563 280.015257 
L 217.232563 276.260342 
L 221.493561 276.260342 
L 221.493561 272.505428 
L 222.130555 272.505428 
L 222.130555 268.750513 
L 228.525195 268.750513 
L 228.525195 264.995599 
L 245.275349 264.995599 
L 245.275349 261.240684 
L 263.756322 261.240684 
L 263.756322 257.48577 
L 264.400003 257.48577 
L 264.400003 253.730855 
L 265.354999 253.730855 
L 265.354999 249.975941 
L 266.303152 249.975941 
L 266.303152 246.221026 
L 267.568782 246.221026 
L 267.568782 242.466112 
L 268.164329 242.466112 
L 268.164329 238.711197 
L 268.325173 238.711197 
L 268.325173 234.956283 
L 270.174292 234.956283 
L 270.174292 231.201368 
L 276.345304 231.201368 
L 276.345304 227.446454 
L 276.852032 227.446454 
L 276.852032 223.691539 
L 277.625893 223.691539 
L 277.625893 219.936625 
L 284.331711 219.936625 
L 284.331711 216.18171 
L 288.17931 216.18171 
L 288.17931 212.426796 
L 288.961123 212.426796 
L 288.961123 208.671881 
L 289.860155 208.671881 
L 289.860155 204.916967 
L 289.984322 204.916967 
L 289.984322 201.162052 
L 291.778012 201.162052 
L 291.778012 197.407138 
L 296.328054 197.407138 
L 296.328054 193.652223 
L 297.527262 193.652223 
L 297.527262 189.897309 
L 297.976127 189.897309 
L 297.976127 186.142394 
L 302.107703 186.142394 
L 302.107703 182.38748 
L 304.706362 182.38748 
L 304.706362 178.632565 
L 305.939376 178.632565 
L 305.939376 174.877651 
L 309.003129 174.877651 
L 309.003129 171.122736 
L 310.12087 171.122736 
L 310.12087 167.367822 
L 313.264027 167.367822 
L 313.264027 163.612907 
L 317.57558 163.612907 
L 317.57558 159.857993 
L 318.591946 159.857993 
L 318.591946 156.103079 
L 322.312598 156.103079 
L 322.312598 152.348164 
L 333.419004 152.348164 
L 333.419004 148.59325 
L 335.142331 148.59325 
L 335.142331 144.838335 
L 336.855534 144.838335 
L 336.855534 141.083421 
L 344.233148 141.083421 
L 344.233148 137.328506 
L 346.921645 137.328506 
L 346.921645 133.573592 
L 360.03123 133.573592 
L 360.03123 129.818677 
L 362.103188 129.818677 
L 362.103188 126.063763 
L 362.991111 126.063763 
L 362.991111 122.308848 
L 363.211504 122.308848 
L 363.211504 118.553934 
L 363.576546 118.553934 
L 363.576546 114.799019 
L 365.01482 114.799019 
L 365.01482 111.044105 
L 365.374365 111.044105 
L 365.374365 107.28919 
L 367.150641 107.28919 
L 367.150641 103.534276 
L 378.067262 103.534276 
L 378.067262 99.779361 
L 378.468804 99.779361 
L 378.468804 96.024447 
L 381.406938 96.024447 
L 381.406938 92.269532 
L 389.663132 92.269532 
L 389.663132 88.514618 
L 390.890624 88.514618 
L 390.890624 84.759703 
L 417.162787 84.759703 
L 417.162787 81.004789 
L 417.364241 81.004789 
L 417.364241 77.249874 
L 417.431045 77.249874 
L 417.431045 73.49496 
L 421.893331 73.49496 
L 421.893331 69.740045 
L 432.003745 69.740045 
L 432.003745 65.985131 
L 432.876987 65.985131 
L 432.876987 62.230216 
L 432.876987 62.230216 
L 432.876987 62.230216 
L 446.802248 62.230216 
" style="fill:none;stroke:#f5deb3;stroke-linecap:square;stroke-width:1.5;"/>
   </g>
   <g id="line2d_25">
    <path clip-path="url(#p8420a5c630)" d="M 303.737466 291.28 
L 303.737466 287.525086 
L 305.646325 287.525086 
L 305.646325 283.770171 
L 308.457572 283.770171 
L 308.457572 280.015257 
L 309.191021 280.015257 
L 309.191021 276.260342 
L 309.213848 276.260342 
L 309.213848 272.505428 
L 309.810613 272.505428 
L 309.810613 268.750513 
L 309.923562 268.750513 
L 309.923562 264.995599 
L 310.354797 264.995599 
L 310.354797 261.240684 
L 311.148204 261.240684 
L 311.148204 257.48577 
L 311.983223 257.48577 
L 311.983223 253.730855 
L 312.303847 253.730855 
L 312.303847 249.975941 
L 312.347409 249.975941 
L 312.347409 246.221026 
L 312.387508 246.221026 
L 312.387508 242.466112 
L 312.43433 242.466112 
L 312.43433 238.711197 
L 312.707593 238.711197 
L 312.707593 234.956283 
L 313.083087 234.956283 
L 313.083087 231.201368 
L 313.265344 231.201368 
L 313.265344 227.446454 
L 313.703556 227.446454 
L 313.703556 223.691539 
L 314.473075 223.691539 
L 314.473075 219.936625 
L 314.75597 219.936625 
L 314.75597 216.18171 
L 315.621815 216.18171 
L 315.621815 212.426796 
L 315.692524 212.426796 
L 315.692524 208.671881 
L 317.015254 208.671881 
L 317.015254 204.916967 
L 317.156533 204.916967 
L 317.156533 201.162052 
L 325.077669 201.162052 
L 325.077669 197.407138 
L 325.864872 197.407138 
L 325.864872 193.652223 
L 326.571264 193.652223 
L 326.571264 189.897309 
L 326.806885 189.897309 
L 326.806885 186.142394 
L 327.164258 186.142394 
L 327.164258 182.38748 
L 327.548775 182.38748 
L 327.548775 178.632565 
L 327.565769 178.632565 
L 327.565769 174.877651 
L 327.77282 174.877651 
L 327.77282 171.122736 
L 328.272682 171.122736 
L 328.272682 167.367822 
L 328.278845 167.367822 
L 328.278845 163.612907 
L 328.346552 163.612907 
L 328.346552 159.857993 
L 329.384127 159.857993 
L 329.384127 156.103079 
L 329.614592 156.103079 
L 329.614592 152.348164 
L 329.614592 152.348164 
L 329.614592 152.348164 
L 446.802248 152.348164 
" style="fill:none;stroke:#f5deb3;stroke-linecap:square;stroke-width:1.5;"/>
   </g>
   <g id="line2d_26">
    <path clip-path="url(#p8420a5c630)" d="M 222.096491 291.28 
L 222.096491 287.525086 
L 223.117263 287.525086 
L 223.117263 283.770171 
L 223.362677 283.770171 
L 223.362677 280.015257 
L 223.686587 280.015257 
L 223.686587 276.260342 
L 223.81511 276.260342 
L 223.81511 272.505428 
L 224.542889 272.505428 
L 224.542889 268.750513 
L 225.068918 268.750513 
L 225.068918 264.995599 
L 225.252242 264.995599 
L 225.252242 261.240684 
L 227.504242 261.240684 
L 227.504242 257.48577 
L 234.152498 257.48577 
L 234.152498 253.730855 
L 234.798884 253.730855 
L 234.798884 249.975941 
L 235.589076 249.975941 
L 235.589076 246.221026 
L 235.88235 246.221026 
L 235.88235 242.466112 
L 237.969864 242.466112 
L 237.969864 238.711197 
L 243.506827 238.711197 
L 243.506827 234.956283 
L 244.025838 234.956283 
L 244.025838 231.201368 
L 244.041416 231.201368 
L 244.041416 227.446454 
L 244.435769 227.446454 
L 244.435769 223.691539 
L 245.652825 223.691539 
L 245.652825 219.936625 
L 245.836021 219.936625 
L 245.836021 216.18171 
L 246.485783 216.18171 
L 246.485783 212.426796 
L 254.343704 212.426796 
L 254.343704 208.671881 
L 256.245455 208.671881 
L 256.245455 204.916967 
L 256.31589 204.916967 
L 256.31589 201.162052 
L 256.981241 201.162052 
L 256.981241 197.407138 
L 258.092389 197.407138 
L 258.092389 193.652223 
L 261.880194 193.652223 
L 261.880194 189.897309 
L 262.024013 189.897309 
L 262.024013 186.142394 
L 264.35101 186.142394 
L 264.35101 182.38748 
L 265.069697 182.38748 
L 265.069697 178.632565 
L 272.086895 178.632565 
L 272.086895 174.877651 
L 272.932571 174.877651 
L 272.932571 171.122736 
L 275.726386 171.122736 
L 275.726386 167.367822 
L 277.661099 167.367822 
L 277.661099 163.612907 
L 291.016647 163.612907 
L 291.016647 159.857993 
L 292.581273 159.857993 
L 292.581273 156.103079 
L 311.220518 156.103079 
L 311.220518 152.348164 
L 311.473559 152.348164 
L 311.473559 148.59325 
L 322.608881 148.59325 
L 322.608881 144.838335 
L 325.80898 144.838335 
L 325.80898 141.083421 
L 327.971344 141.083421 
L 327.971344 137.328506 
L 328.31772 137.328506 
L 328.31772 133.573592 
L 330.506213 133.573592 
L 330.506213 129.818677 
L 330.81189 129.818677 
L 330.81189 126.063763 
L 331.099643 126.063763 
L 331.099643 122.308848 
L 332.790352 122.308848 
L 332.790352 118.553934 
L 334.003733 118.553934 
L 334.003733 114.799019 
L 334.056746 114.799019 
L 334.056746 111.044105 
L 334.10434 111.044105 
L 334.10434 107.28919 
L 338.302165 107.28919 
L 338.302165 103.534276 
L 338.302165 103.534276 
L 338.302165 103.534276 
L 446.802248 103.534276 
" style="fill:none;stroke:#f5deb3;stroke-linecap:square;stroke-width:1.5;"/>
   </g>
   <g id="line2d_27">
    <path clip-path="url(#p8420a5c630)" d="M 255.067474 291.28 
L 255.067474 287.525086 
L 255.067474 287.525086 
L 255.067474 287.525086 
L 446.802248 287.525086 
" style="fill:none;stroke:#f5deb3;stroke-linecap:square;stroke-width:1.5;"/>
   </g>
   <g id="line2d_28">
    <path clip-path="url(#p8420a5c630)" d="M 194.909545 291.28 
L 194.909545 287.525086 
L 195.3557 287.525086 
L 195.3557 283.770171 
L 201.206502 283.770171 
L 201.206502 280.015257 
L 207.886285 280.015257 
L 207.886285 276.260342 
L 221.423821 276.260342 
L 221.423821 272.505428 
L 238.315887 272.505428 
L 238.315887 268.750513 
L 248.375969 268.750513 
L 248.375969 264.995599 
L 264.703347 264.995599 
L 264.703347 261.240684 
L 266.345337 261.240684 
L 266.345337 257.48577 
L 267.783172 257.48577 
L 267.783172 253.730855 
L 267.806521 253.730855 
L 267.806521 249.975941 
L 269.096727 249.975941 
L 269.096727 246.221026 
L 269.362933 246.221026 
L 269.362933 242.466112 
L 271.143951 242.466112 
L 271.143951 238.711197 
L 274.733864 238.711197 
L 274.733864 234.956283 
L 275.711302 234.956283 
L 275.711302 231.201368 
L 287.910527 231.201368 
L 287.910527 227.446454 
L 288.7535 227.446454 
L 288.7535 223.691539 
L 289.174996 223.691539 
L 289.174996 219.936625 
L 289.413474 219.936625 
L 289.413474 216.18171 
L 289.89049 216.18171 
L 289.89049 212.426796 
L 290.639873 212.426796 
L 290.639873 208.671881 
L 291.395606 208.671881 
L 291.395606 204.916967 
L 291.751072 204.916967 
L 291.751072 201.162052 
L 292.211142 201.162052 
L 292.211142 197.407138 
L 295.51521 197.407138 
L 295.51521 193.652223 
L 295.577153 193.652223 
L 295.577153 189.897309 
L 298.665053 189.897309 
L 298.665053 186.142394 
L 299.436819 186.142394 
L 299.436819 182.38748 
L 299.535842 182.38748 
L 299.535842 178.632565 
L 302.045883 178.632565 
L 302.045883 174.877651 
L 302.246546 174.877651 
L 302.246546 171.122736 
L 311.075703 171.122736 
L 311.075703 167.367822 
L 313.957709 167.367822 
L 313.957709 163.612907 
L 316.399387 163.612907 
L 316.399387 159.857993 
L 317.744377 159.857993 
L 317.744377 156.103079 
L 318.279444 156.103079 
L 318.279444 152.348164 
L 320.131536 152.348164 
L 320.131536 148.59325 
L 326.136434 148.59325 
L 326.136434 144.838335 
L 330.546382 144.838335 
L 330.546382 141.083421 
L 332.712207 141.083421 
L 332.712207 137.328506 
L 333.697185 137.328506 
L 333.697185 133.573592 
L 335.529753 133.573592 
L 335.529753 129.818677 
L 350.106184 129.818677 
L 350.106184 126.063763 
L 358.723872 126.063763 
L 358.723872 122.308848 
L 367.48015 122.308848 
L 367.48015 118.553934 
L 370.900581 118.553934 
L 370.900581 114.799019 
L 382.576978 114.799019 
L 382.576978 111.044105 
L 383.253797 111.044105 
L 383.253797 107.28919 
L 391.04929 107.28919 
L 391.04929 103.534276 
L 391.567687 103.534276 
L 391.567687 99.779361 
L 392.087293 99.779361 
L 392.087293 96.024447 
L 392.160388 96.024447 
L 392.160388 92.269532 
L 394.044401 92.269532 
L 394.044401 88.514618 
L 408.136576 88.514618 
L 408.136576 84.759703 
L 416.5989 84.759703 
L 416.5989 81.004789 
L 416.744982 81.004789 
L 416.744982 77.249874 
L 417.721925 77.249874 
L 417.721925 73.49496 
L 417.972837 73.49496 
L 417.972837 69.740045 
L 419.488232 69.740045 
L 419.488232 65.985131 
L 419.922786 65.985131 
L 419.922786 62.230216 
L 419.922786 62.230216 
L 419.922786 62.230216 
L 446.802248 62.230216 
" style="fill:none;stroke:#f5deb3;stroke-linecap:square;stroke-width:1.5;"/>
   </g>
   <g id="line2d_29">
    <path clip-path="url(#p8420a5c630)" d="M 192.072257 291.28 
L 192.072257 287.525086 
L 192.072257 287.525086 
L 192.072257 283.770171 
L 192.072257 283.770171 
L 192.072257 280.015257 
L 211.715859 280.015257 
L 211.715859 276.260342 
L 211.715859 276.260342 
L 211.715859 272.505428 
L 211.715859 272.505428 
L 211.715859 268.750513 
L 215.84021 268.750513 
L 215.84021 264.995599 
L 215.84021 264.995599 
L 215.84021 261.240684 
L 215.84021 261.240684 
L 215.84021 257.48577 
L 240.413383 257.48577 
L 240.413383 253.730855 
L 240.413383 253.730855 
L 240.413383 249.975941 
L 240.413383 249.975941 
L 240.413383 246.221026 
L 267.073477 246.221026 
L 267.073477 242.466112 
L 267.073477 242.466112 
L 267.073477 238.711197 
L 267.073477 238.711197 
L 267.073477 234.956283 
L 277.731378 234.956283 
L 277.731378 231.201368 
L 277.731378 231.201368 
L 277.731378 227.446454 
L 277.731378 227.446454 
L 277.731378 223.691539 
L 283.307561 223.691539 
L 283.307561 219.936625 
L 283.307561 219.936625 
L 283.307561 216.18171 
L 283.307561 216.18171 
L 283.307561 212.426796 
L 285.08858 212.426796 
L 285.08858 208.671881 
L 285.677928 208.671881 
L 285.677928 204.916967 
L 293.31389 204.916967 
L 293.31389 201.162052 
L 294.078796 201.162052 
L 294.078796 197.407138 
L 294.260968 197.407138 
L 294.260968 193.652223 
L 300.080619 193.652223 
L 300.080619 189.897309 
L 302.165475 189.897309 
L 302.165475 186.142394 
L 304.832934 186.142394 
L 304.832934 182.38748 
L 315.303541 182.38748 
L 315.303541 178.632565 
L 315.303541 178.632565 
L 315.303541 178.632565 
L 446.802248 178.632565 
" style="fill:none;stroke:#f5deb3;stroke-linecap:square;stroke-width:1.5;"/>
   </g>
   <g id="line2d_30">
    <path clip-path="url(#p8420a5c630)" d="M 260.89068 291.28 
L 260.89068 287.525086 
L 262.640173 287.525086 
L 262.640173 283.770171 
L 292.165055 283.770171 
L 292.165055 280.015257 
L 300.35013 280.015257 
L 300.35013 276.260342 
L 311.849232 276.260342 
L 311.849232 272.505428 
L 315.859221 272.505428 
L 315.859221 268.750513 
L 316.72996 268.750513 
L 316.72996 264.995599 
L 316.956466 264.995599 
L 316.956466 261.240684 
L 317.18745 261.240684 
L 317.18745 257.48577 
L 317.42903 257.48577 
L 317.42903 253.730855 
L 317.42903 253.730855 
L 317.42903 253.730855 
L 446.802248 253.730855 
" style="fill:none;stroke:#f5deb3;stroke-linecap:square;stroke-width:1.5;"/>
   </g>
   <g id="matplotlib.axis_1">
    <g id="xtick_1">
     <g id="line2d_31">
      <path clip-path="url(#p8420a5c630)" d="M 59.72 291.28 
L 59.72 6.845228 
" style="fill:none;stroke:#b0b0b0;stroke-linecap:square;stroke-width:0.8;"/>
     </g>
     <g id="line2d_32">
      <defs>
       <path d="M 0 0 
L 0 3.5 
" id="mff85949503" style="stroke:#000000;stroke-width:0.8;"/>
      </defs>
      <g>
       <use style="stroke:#000000;stroke-width:0.8;" x="59.72" xlink:href="#mff85949503" y="291.28"/>
      </g>
     </g>
     <g id="text_1">
      <!-- 0 -->
      <defs>
       <path d="M 31.78125 66.40625 
Q 24.171875 66.40625 20.328125 58.90625 
Q 16.5 51.421875 16.5 36.375 
Q 16.5 21.390625 20.328125 13.890625 
Q 24.171875 6.390625 31.78125 6.390625 
Q 39.453125 6.390625 43.28125 13.890625 
Q 47.125 21.390625 47.125 36.375 
Q 47.125 51.421875 43.28125 58.90625 
Q 39.453125 66.40625 31.78125 66.40625 
z
M 31.78125 74.21875 
Q 44.046875 74.21875 50.515625 64.515625 
Q 56.984375 54.828125 56.984375 36.375 
Q 56.984375 17.96875 50.515625 8.265625 
Q 44.046875 -1.421875 31.78125 -1.421875 
Q 19.53125 -1.421875 13.0625 8.265625 
Q 6.59375 17.96875 6.59375 36.375 
Q 6.59375 54.828125 13.0625 64.515625 
Q 19.53125 74.21875 31.78125 74.21875 
z
" id="DejaVuSans-30"/>
      </defs>
      <g transform="translate(53.3575 313.476875)scale(0.2 -0.2)">
       <use xlink:href="#DejaVuSans-30"/>
      </g>
     </g>
    </g>
    <g id="xtick_2">
     <g id="line2d_33">
      <path clip-path="url(#p8420a5c630)" d="M 188.747326 291.28 
L 188.747326 6.845228 
" style="fill:none;stroke:#b0b0b0;stroke-linecap:square;stroke-width:0.8;"/>
     </g>
     <g id="line2d_34">
      <g>
       <use style="stroke:#000000;stroke-width:0.8;" x="188.747326" xlink:href="#mff85949503" y="291.28"/>
      </g>
     </g>
     <g id="text_2">
      <!-- 2 -->
      <defs>
       <path d="M 19.1875 8.296875 
L 53.609375 8.296875 
L 53.609375 0 
L 7.328125 0 
L 7.328125 8.296875 
Q 12.9375 14.109375 22.625 23.890625 
Q 32.328125 33.6875 34.8125 36.53125 
Q 39.546875 41.84375 41.421875 45.53125 
Q 43.3125 49.21875 43.3125 52.78125 
Q 43.3125 58.59375 39.234375 62.25 
Q 35.15625 65.921875 28.609375 65.921875 
Q 23.96875 65.921875 18.8125 64.3125 
Q 13.671875 62.703125 7.8125 59.421875 
L 7.8125 69.390625 
Q 13.765625 71.78125 18.9375 73 
Q 24.125 74.21875 28.421875 74.21875 
Q 39.75 74.21875 46.484375 68.546875 
Q 53.21875 62.890625 53.21875 53.421875 
Q 53.21875 48.921875 51.53125 44.890625 
Q 49.859375 40.875 45.40625 35.40625 
Q 44.1875 33.984375 37.640625 27.21875 
Q 31.109375 20.453125 19.1875 8.296875 
z
" id="DejaVuSans-32"/>
      </defs>
      <g transform="translate(182.384826 313.476875)scale(0.2 -0.2)">
       <use xlink:href="#DejaVuSans-32"/>
      </g>
     </g>
    </g>
    <g id="xtick_3">
     <g id="line2d_35">
      <path clip-path="url(#p8420a5c630)" d="M 317.774653 291.28 
L 317.774653 6.845228 
" style="fill:none;stroke:#b0b0b0;stroke-linecap:square;stroke-width:0.8;"/>
     </g>
     <g id="line2d_36">
      <g>
       <use style="stroke:#000000;stroke-width:0.8;" x="317.774653" xlink:href="#mff85949503" y="291.28"/>
      </g>
     </g>
     <g id="text_3">
      <!-- 4 -->
      <defs>
       <path d="M 37.796875 64.3125 
L 12.890625 25.390625 
L 37.796875 25.390625 
z
M 35.203125 72.90625 
L 47.609375 72.90625 
L 47.609375 25.390625 
L 58.015625 25.390625 
L 58.015625 17.1875 
L 47.609375 17.1875 
L 47.609375 0 
L 37.796875 0 
L 37.796875 17.1875 
L 4.890625 17.1875 
L 4.890625 26.703125 
z
" id="DejaVuSans-34"/>
      </defs>
      <g transform="translate(311.412153 313.476875)scale(0.2 -0.2)">
       <use xlink:href="#DejaVuSans-34"/>
      </g>
     </g>
    </g>
    <g id="xtick_4">
     <g id="line2d_37">
      <path clip-path="url(#p8420a5c630)" d="M 446.801979 291.28 
L 446.801979 6.845228 
" style="fill:none;stroke:#b0b0b0;stroke-linecap:square;stroke-width:0.8;"/>
     </g>
     <g id="line2d_38">
      <g>
       <use style="stroke:#000000;stroke-width:0.8;" x="446.801979" xlink:href="#mff85949503" y="291.28"/>
      </g>
     </g>
     <g id="text_4">
      <!-- 6 -->
      <defs>
       <path d="M 33.015625 40.375 
Q 26.375 40.375 22.484375 35.828125 
Q 18.609375 31.296875 18.609375 23.390625 
Q 18.609375 15.53125 22.484375 10.953125 
Q 26.375 6.390625 33.015625 6.390625 
Q 39.65625 6.390625 43.53125 10.953125 
Q 47.40625 15.53125 47.40625 23.390625 
Q 47.40625 31.296875 43.53125 35.828125 
Q 39.65625 40.375 33.015625 40.375 
z
M 52.59375 71.296875 
L 52.59375 62.3125 
Q 48.875 64.0625 45.09375 64.984375 
Q 41.3125 65.921875 37.59375 65.921875 
Q 27.828125 65.921875 22.671875 59.328125 
Q 17.53125 52.734375 16.796875 39.40625 
Q 19.671875 43.65625 24.015625 45.921875 
Q 28.375 48.1875 33.59375 48.1875 
Q 44.578125 48.1875 50.953125 41.515625 
Q 57.328125 34.859375 57.328125 23.390625 
Q 57.328125 12.15625 50.6875 5.359375 
Q 44.046875 -1.421875 33.015625 -1.421875 
Q 20.359375 -1.421875 13.671875 8.265625 
Q 6.984375 17.96875 6.984375 36.375 
Q 6.984375 53.65625 15.1875 63.9375 
Q 23.390625 74.21875 37.203125 74.21875 
Q 40.921875 74.21875 44.703125 73.484375 
Q 48.484375 72.75 52.59375 71.296875 
z
" id="DejaVuSans-36"/>
      </defs>
      <g transform="translate(440.439479 313.476875)scale(0.2 -0.2)">
       <use xlink:href="#DejaVuSans-36"/>
      </g>
     </g>
    </g>
    <g id="text_5">
     <!-- log10 of FEvals / DIM -->
     <defs>
      <path d="M 9.421875 75.984375 
L 18.40625 75.984375 
L 18.40625 0 
L 9.421875 0 
z
" id="DejaVuSans-6c"/>
      <path d="M 30.609375 48.390625 
Q 23.390625 48.390625 19.1875 42.75 
Q 14.984375 37.109375 14.984375 27.296875 
Q 14.984375 17.484375 19.15625 11.84375 
Q 23.34375 6.203125 30.609375 6.203125 
Q 37.796875 6.203125 41.984375 11.859375 
Q 46.1875 17.53125 46.1875 27.296875 
Q 46.1875 37.015625 41.984375 42.703125 
Q 37.796875 48.390625 30.609375 48.390625 
z
M 30.609375 56 
Q 42.328125 56 49.015625 48.375 
Q 55.71875 40.765625 55.71875 27.296875 
Q 55.71875 13.875 49.015625 6.21875 
Q 42.328125 -1.421875 30.609375 -1.421875 
Q 18.84375 -1.421875 12.171875 6.21875 
Q 5.515625 13.875 5.515625 27.296875 
Q 5.515625 40.765625 12.171875 48.375 
Q 18.84375 56 30.609375 56 
z
" id="DejaVuSans-6f"/>
      <path d="M 45.40625 27.984375 
Q 45.40625 37.75 41.375 43.109375 
Q 37.359375 48.484375 30.078125 48.484375 
Q 22.859375 48.484375 18.828125 43.109375 
Q 14.796875 37.75 14.796875 27.984375 
Q 14.796875 18.265625 18.828125 12.890625 
Q 22.859375 7.515625 30.078125 7.515625 
Q 37.359375 7.515625 41.375 12.890625 
Q 45.40625 18.265625 45.40625 27.984375 
z
M 54.390625 6.78125 
Q 54.390625 -7.171875 48.1875 -13.984375 
Q 42 -20.796875 29.203125 -20.796875 
Q 24.46875 -20.796875 20.265625 -20.09375 
Q 16.0625 -19.390625 12.109375 -17.921875 
L 12.109375 -9.1875 
Q 16.0625 -11.328125 19.921875 -12.34375 
Q 23.78125 -13.375 27.78125 -13.375 
Q 36.625 -13.375 41.015625 -8.765625 
Q 45.40625 -4.15625 45.40625 5.171875 
L 45.40625 9.625 
Q 42.625 4.78125 38.28125 2.390625 
Q 33.9375 0 27.875 0 
Q 17.828125 0 11.671875 7.65625 
Q 5.515625 15.328125 5.515625 27.984375 
Q 5.515625 40.671875 11.671875 48.328125 
Q 17.828125 56 27.875 56 
Q 33.9375 56 38.28125 53.609375 
Q 42.625 51.21875 45.40625 46.390625 
L 45.40625 54.6875 
L 54.390625 54.6875 
z
" id="DejaVuSans-67"/>
      <path d="M 12.40625 8.296875 
L 28.515625 8.296875 
L 28.515625 63.921875 
L 10.984375 60.40625 
L 10.984375 69.390625 
L 28.421875 72.90625 
L 38.28125 72.90625 
L 38.28125 8.296875 
L 54.390625 8.296875 
L 54.390625 0 
L 12.40625 0 
z
" id="DejaVuSans-31"/>
      <path id="DejaVuSans-20"/>
      <path d="M 37.109375 75.984375 
L 37.109375 68.5 
L 28.515625 68.5 
Q 23.6875 68.5 21.796875 66.546875 
Q 19.921875 64.59375 19.921875 59.515625 
L 19.921875 54.6875 
L 34.71875 54.6875 
L 34.71875 47.703125 
L 19.921875 47.703125 
L 19.921875 0 
L 10.890625 0 
L 10.890625 47.703125 
L 2.296875 47.703125 
L 2.296875 54.6875 
L 10.890625 54.6875 
L 10.890625 58.5 
Q 10.890625 67.625 15.140625 71.796875 
Q 19.390625 75.984375 28.609375 75.984375 
z
" id="DejaVuSans-66"/>
      <path d="M 9.8125 72.90625 
L 51.703125 72.90625 
L 51.703125 64.59375 
L 19.671875 64.59375 
L 19.671875 43.109375 
L 48.578125 43.109375 
L 48.578125 34.8125 
L 19.671875 34.8125 
L 19.671875 0 
L 9.8125 0 
z
" id="DejaVuSans-46"/>
      <path d="M 9.8125 72.90625 
L 55.90625 72.90625 
L 55.90625 64.59375 
L 19.671875 64.59375 
L 19.671875 43.015625 
L 54.390625 43.015625 
L 54.390625 34.71875 
L 19.671875 34.71875 
L 19.671875 8.296875 
L 56.78125 8.296875 
L 56.78125 0 
L 9.8125 0 
z
" id="DejaVuSans-45"/>
      <path d="M 2.984375 54.6875 
L 12.5 54.6875 
L 29.59375 8.796875 
L 46.6875 54.6875 
L 56.203125 54.6875 
L 35.6875 0 
L 23.484375 0 
z
" id="DejaVuSans-76"/>
      <path d="M 34.28125 27.484375 
Q 23.390625 27.484375 19.1875 25 
Q 14.984375 22.515625 14.984375 16.5 
Q 14.984375 11.71875 18.140625 8.90625 
Q 21.296875 6.109375 26.703125 6.109375 
Q 34.1875 6.109375 38.703125 11.40625 
Q 43.21875 16.703125 43.21875 25.484375 
L 43.21875 27.484375 
z
M 52.203125 31.203125 
L 52.203125 0 
L 43.21875 0 
L 43.21875 8.296875 
Q 40.140625 3.328125 35.546875 0.953125 
Q 30.953125 -1.421875 24.3125 -1.421875 
Q 15.921875 -1.421875 10.953125 3.296875 
Q 6 8.015625 6 15.921875 
Q 6 25.140625 12.171875 29.828125 
Q 18.359375 34.515625 30.609375 34.515625 
L 43.21875 34.515625 
L 43.21875 35.40625 
Q 43.21875 41.609375 39.140625 45 
Q 35.0625 48.390625 27.6875 48.390625 
Q 23 48.390625 18.546875 47.265625 
Q 14.109375 46.140625 10.015625 43.890625 
L 10.015625 52.203125 
Q 14.9375 54.109375 19.578125 55.046875 
Q 24.21875 56 28.609375 56 
Q 40.484375 56 46.34375 49.84375 
Q 52.203125 43.703125 52.203125 31.203125 
z
" id="DejaVuSans-61"/>
      <path d="M 44.28125 53.078125 
L 44.28125 44.578125 
Q 40.484375 46.53125 36.375 47.5 
Q 32.28125 48.484375 27.875 48.484375 
Q 21.1875 48.484375 17.84375 46.4375 
Q 14.5 44.390625 14.5 40.28125 
Q 14.5 37.15625 16.890625 35.375 
Q 19.28125 33.59375 26.515625 31.984375 
L 29.59375 31.296875 
Q 39.15625 29.25 43.1875 25.515625 
Q 47.21875 21.78125 47.21875 15.09375 
Q 47.21875 7.46875 41.1875 3.015625 
Q 35.15625 -1.421875 24.609375 -1.421875 
Q 20.21875 -1.421875 15.453125 -0.5625 
Q 10.6875 0.296875 5.421875 2 
L 5.421875 11.28125 
Q 10.40625 8.6875 15.234375 7.390625 
Q 20.0625 6.109375 24.8125 6.109375 
Q 31.15625 6.109375 34.5625 8.28125 
Q 37.984375 10.453125 37.984375 14.40625 
Q 37.984375 18.0625 35.515625 20.015625 
Q 33.0625 21.96875 24.703125 23.78125 
L 21.578125 24.515625 
Q 13.234375 26.265625 9.515625 29.90625 
Q 5.8125 33.546875 5.8125 39.890625 
Q 5.8125 47.609375 11.28125 51.796875 
Q 16.75 56 26.8125 56 
Q 31.78125 56 36.171875 55.265625 
Q 40.578125 54.546875 44.28125 53.078125 
z
" id="DejaVuSans-73"/>
      <path d="M 25.390625 72.90625 
L 33.6875 72.90625 
L 8.296875 -9.28125 
L 0 -9.28125 
z
" id="DejaVuSans-2f"/>
      <path d="M 19.671875 64.796875 
L 19.671875 8.109375 
L 31.59375 8.109375 
Q 46.6875 8.109375 53.6875 14.9375 
Q 60.6875 21.78125 60.6875 36.53125 
Q 60.6875 51.171875 53.6875 57.984375 
Q 46.6875 64.796875 31.59375 64.796875 
z
M 9.8125 72.90625 
L 30.078125 72.90625 
Q 51.265625 72.90625 61.171875 64.09375 
Q 71.09375 55.28125 71.09375 36.53125 
Q 71.09375 17.671875 61.125 8.828125 
Q 51.171875 0 30.078125 0 
L 9.8125 0 
z
" id="DejaVuSans-44"/>
      <path d="M 9.8125 72.90625 
L 19.671875 72.90625 
L 19.671875 0 
L 9.8125 0 
z
" id="DejaVuSans-49"/>
      <path d="M 9.8125 72.90625 
L 24.515625 72.90625 
L 43.109375 23.296875 
L 61.8125 72.90625 
L 76.515625 72.90625 
L 76.515625 0 
L 66.890625 0 
L 66.890625 64.015625 
L 48.09375 14.015625 
L 38.1875 14.015625 
L 19.390625 64.015625 
L 19.390625 0 
L 9.8125 0 
z
" id="DejaVuSans-4d"/>
     </defs>
     <g transform="translate(148.187687 336.833125)scale(0.2 -0.2)">
      <use xlink:href="#DejaVuSans-6c"/>
      <use x="27.783203" xlink:href="#DejaVuSans-6f"/>
      <use x="88.964844" xlink:href="#DejaVuSans-67"/>
      <use x="152.441406" xlink:href="#DejaVuSans-31"/>
      <use x="216.064453" xlink:href="#DejaVuSans-30"/>
      <use x="279.6875" xlink:href="#DejaVuSans-20"/>
      <use x="311.474609" xlink:href="#DejaVuSans-6f"/>
      <use x="372.65625" xlink:href="#DejaVuSans-66"/>
      <use x="407.861328" xlink:href="#DejaVuSans-20"/>
      <use x="439.648438" xlink:href="#DejaVuSans-46"/>
      <use x="497.167969" xlink:href="#DejaVuSans-45"/>
      <use x="560.351562" xlink:href="#DejaVuSans-76"/>
      <use x="619.53125" xlink:href="#DejaVuSans-61"/>
      <use x="680.810547" xlink:href="#DejaVuSans-6c"/>
      <use x="708.59375" xlink:href="#DejaVuSans-73"/>
      <use x="760.693359" xlink:href="#DejaVuSans-20"/>
      <use x="792.480469" xlink:href="#DejaVuSans-2f"/>
      <use x="826.171875" xlink:href="#DejaVuSans-20"/>
      <use x="857.958984" xlink:href="#DejaVuSans-44"/>
      <use x="934.960938" xlink:href="#DejaVuSans-49"/>
      <use x="964.453125" xlink:href="#DejaVuSans-4d"/>
     </g>
    </g>
   </g>
   <g id="matplotlib.axis_2">
    <g id="ytick_1">
     <g id="line2d_39">
      <path clip-path="url(#p8420a5c630)" d="M 59.72 291.28 
L 446.802248 291.28 
" style="fill:none;stroke:#b0b0b0;stroke-linecap:square;stroke-width:0.8;"/>
     </g>
     <g id="line2d_40">
      <defs>
       <path d="M 0 0 
L -3.5 0 
" id="mb9b4a69c1a" style="stroke:#000000;stroke-width:0.8;"/>
      </defs>
      <g>
       <use style="stroke:#000000;stroke-width:0.8;" x="59.72" xlink:href="#mb9b4a69c1a" y="291.28"/>
      </g>
     </g>
     <g id="text_6">
      <!-- 0.0 -->
      <defs>
       <path d="M 10.6875 12.40625 
L 21 12.40625 
L 21 0 
L 10.6875 0 
z
" id="DejaVuSans-2e"/>
      </defs>
      <g transform="translate(27.275 297.35875)scale(0.16 -0.16)">
       <use xlink:href="#DejaVuSans-30"/>
       <use x="63.623047" xlink:href="#DejaVuSans-2e"/>
       <use x="95.410156" xlink:href="#DejaVuSans-30"/>
      </g>
     </g>
    </g>
    <g id="ytick_2">
     <g id="line2d_41">
      <path clip-path="url(#p8420a5c630)" d="M 59.72 234.956283 
L 446.802248 234.956283 
" style="fill:none;stroke:#b0b0b0;stroke-linecap:square;stroke-width:0.8;"/>
     </g>
     <g id="line2d_42">
      <g>
       <use style="stroke:#000000;stroke-width:0.8;" x="59.72" xlink:href="#mb9b4a69c1a" y="234.956283"/>
      </g>
     </g>
     <g id="text_7">
      <!-- 0.2 -->
      <g transform="translate(27.275 241.035033)scale(0.16 -0.16)">
       <use xlink:href="#DejaVuSans-30"/>
       <use x="63.623047" xlink:href="#DejaVuSans-2e"/>
       <use x="95.410156" xlink:href="#DejaVuSans-32"/>
      </g>
     </g>
    </g>
    <g id="ytick_3">
     <g id="line2d_43">
      <path clip-path="url(#p8420a5c630)" d="M 59.72 178.632565 
L 446.802248 178.632565 
" style="fill:none;stroke:#b0b0b0;stroke-linecap:square;stroke-width:0.8;"/>
     </g>
     <g id="line2d_44">
      <g>
       <use style="stroke:#000000;stroke-width:0.8;" x="59.72" xlink:href="#mb9b4a69c1a" y="178.632565"/>
      </g>
     </g>
     <g id="text_8">
      <!-- 0.4 -->
      <g transform="translate(27.275 184.711315)scale(0.16 -0.16)">
       <use xlink:href="#DejaVuSans-30"/>
       <use x="63.623047" xlink:href="#DejaVuSans-2e"/>
       <use x="95.410156" xlink:href="#DejaVuSans-34"/>
      </g>
     </g>
    </g>
    <g id="ytick_4">
     <g id="line2d_45">
      <path clip-path="url(#p8420a5c630)" d="M 59.72 122.308848 
L 446.802248 122.308848 
" style="fill:none;stroke:#b0b0b0;stroke-linecap:square;stroke-width:0.8;"/>
     </g>
     <g id="line2d_46">
      <g>
       <use style="stroke:#000000;stroke-width:0.8;" x="59.72" xlink:href="#mb9b4a69c1a" y="122.308848"/>
      </g>
     </g>
     <g id="text_9">
      <!-- 0.6 -->
      <g transform="translate(27.275 128.387598)scale(0.16 -0.16)">
       <use xlink:href="#DejaVuSans-30"/>
       <use x="63.623047" xlink:href="#DejaVuSans-2e"/>
       <use x="95.410156" xlink:href="#DejaVuSans-36"/>
      </g>
     </g>
    </g>
    <g id="ytick_5">
     <g id="line2d_47">
      <path clip-path="url(#p8420a5c630)" d="M 59.72 65.985131 
L 446.802248 65.985131 
" style="fill:none;stroke:#b0b0b0;stroke-linecap:square;stroke-width:0.8;"/>
     </g>
     <g id="line2d_48">
      <g>
       <use style="stroke:#000000;stroke-width:0.8;" x="59.72" xlink:href="#mb9b4a69c1a" y="65.985131"/>
      </g>
     </g>
     <g id="text_10">
      <!-- 0.8 -->
      <defs>
       <path d="M 31.78125 34.625 
Q 24.75 34.625 20.71875 30.859375 
Q 16.703125 27.09375 16.703125 20.515625 
Q 16.703125 13.921875 20.71875 10.15625 
Q 24.75 6.390625 31.78125 6.390625 
Q 38.8125 6.390625 42.859375 10.171875 
Q 46.921875 13.96875 46.921875 20.515625 
Q 46.921875 27.09375 42.890625 30.859375 
Q 38.875 34.625 31.78125 34.625 
z
M 21.921875 38.8125 
Q 15.578125 40.375 12.03125 44.71875 
Q 8.5 49.078125 8.5 55.328125 
Q 8.5 64.0625 14.71875 69.140625 
Q 20.953125 74.21875 31.78125 74.21875 
Q 42.671875 74.21875 48.875 69.140625 
Q 55.078125 64.0625 55.078125 55.328125 
Q 55.078125 49.078125 51.53125 44.71875 
Q 48 40.375 41.703125 38.8125 
Q 48.828125 37.15625 52.796875 32.3125 
Q 56.78125 27.484375 56.78125 20.515625 
Q 56.78125 9.90625 50.3125 4.234375 
Q 43.84375 -1.421875 31.78125 -1.421875 
Q 19.734375 -1.421875 13.25 4.234375 
Q 6.78125 9.90625 6.78125 20.515625 
Q 6.78125 27.484375 10.78125 32.3125 
Q 14.796875 37.15625 21.921875 38.8125 
z
M 18.3125 54.390625 
Q 18.3125 48.734375 21.84375 45.5625 
Q 25.390625 42.390625 31.78125 42.390625 
Q 38.140625 42.390625 41.71875 45.5625 
Q 45.3125 48.734375 45.3125 54.390625 
Q 45.3125 60.0625 41.71875 63.234375 
Q 38.140625 66.40625 31.78125 66.40625 
Q 25.390625 66.40625 21.84375 63.234375 
Q 18.3125 60.0625 18.3125 54.390625 
z
" id="DejaVuSans-38"/>
      </defs>
      <g transform="translate(27.275 72.063881)scale(0.16 -0.16)">
       <use xlink:href="#DejaVuSans-30"/>
       <use x="63.623047" xlink:href="#DejaVuSans-2e"/>
       <use x="95.410156" xlink:href="#DejaVuSans-38"/>
      </g>
     </g>
    </g>
    <g id="ytick_6">
     <g id="line2d_49">
      <path clip-path="url(#p8420a5c630)" d="M 59.72 9.661414 
L 446.802248 9.661414 
" style="fill:none;stroke:#b0b0b0;stroke-linecap:square;stroke-width:0.8;"/>
     </g>
     <g id="line2d_50">
      <g>
       <use style="stroke:#000000;stroke-width:0.8;" x="59.72" xlink:href="#mb9b4a69c1a" y="9.661414"/>
      </g>
     </g>
     <g id="text_11">
      <!-- 1.0 -->
      <g transform="translate(27.275 15.740164)scale(0.16 -0.16)">
       <use xlink:href="#DejaVuSans-31"/>
       <use x="63.623047" xlink:href="#DejaVuSans-2e"/>
       <use x="95.410156" xlink:href="#DejaVuSans-30"/>
      </g>
     </g>
    </g>
    <g id="text_12">
     <!-- proportion of trials -->
     <defs>
      <path d="M 18.109375 8.203125 
L 18.109375 -20.796875 
L 9.078125 -20.796875 
L 9.078125 54.6875 
L 18.109375 54.6875 
L 18.109375 46.390625 
Q 20.953125 51.265625 25.265625 53.625 
Q 29.59375 56 35.59375 56 
Q 45.5625 56 51.78125 48.09375 
Q 58.015625 40.1875 58.015625 27.296875 
Q 58.015625 14.40625 51.78125 6.484375 
Q 45.5625 -1.421875 35.59375 -1.421875 
Q 29.59375 -1.421875 25.265625 0.953125 
Q 20.953125 3.328125 18.109375 8.203125 
z
M 48.6875 27.296875 
Q 48.6875 37.203125 44.609375 42.84375 
Q 40.53125 48.484375 33.40625 48.484375 
Q 26.265625 48.484375 22.1875 42.84375 
Q 18.109375 37.203125 18.109375 27.296875 
Q 18.109375 17.390625 22.1875 11.75 
Q 26.265625 6.109375 33.40625 6.109375 
Q 40.53125 6.109375 44.609375 11.75 
Q 48.6875 17.390625 48.6875 27.296875 
z
" id="DejaVuSans-70"/>
      <path d="M 41.109375 46.296875 
Q 39.59375 47.171875 37.8125 47.578125 
Q 36.03125 48 33.890625 48 
Q 26.265625 48 22.1875 43.046875 
Q 18.109375 38.09375 18.109375 28.8125 
L 18.109375 0 
L 9.078125 0 
L 9.078125 54.6875 
L 18.109375 54.6875 
L 18.109375 46.1875 
Q 20.953125 51.171875 25.484375 53.578125 
Q 30.03125 56 36.53125 56 
Q 37.453125 56 38.578125 55.875 
Q 39.703125 55.765625 41.0625 55.515625 
z
" id="DejaVuSans-72"/>
      <path d="M 18.3125 70.21875 
L 18.3125 54.6875 
L 36.8125 54.6875 
L 36.8125 47.703125 
L 18.3125 47.703125 
L 18.3125 18.015625 
Q 18.3125 11.328125 20.140625 9.421875 
Q 21.96875 7.515625 27.59375 7.515625 
L 36.8125 7.515625 
L 36.8125 0 
L 27.59375 0 
Q 17.1875 0 13.234375 3.875 
Q 9.28125 7.765625 9.28125 18.015625 
L 9.28125 47.703125 
L 2.6875 47.703125 
L 2.6875 54.6875 
L 9.28125 54.6875 
L 9.28125 70.21875 
z
" id="DejaVuSans-74"/>
      <path d="M 9.421875 54.6875 
L 18.40625 54.6875 
L 18.40625 0 
L 9.421875 0 
z
M 9.421875 75.984375 
L 18.40625 75.984375 
L 18.40625 64.59375 
L 9.421875 64.59375 
z
" id="DejaVuSans-69"/>
      <path d="M 54.890625 33.015625 
L 54.890625 0 
L 45.90625 0 
L 45.90625 32.71875 
Q 45.90625 40.484375 42.875 44.328125 
Q 39.84375 48.1875 33.796875 48.1875 
Q 26.515625 48.1875 22.3125 43.546875 
Q 18.109375 38.921875 18.109375 30.90625 
L 18.109375 0 
L 9.078125 0 
L 9.078125 54.6875 
L 18.109375 54.6875 
L 18.109375 46.1875 
Q 21.34375 51.125 25.703125 53.5625 
Q 30.078125 56 35.796875 56 
Q 45.21875 56 50.046875 50.171875 
Q 54.890625 44.34375 54.890625 33.015625 
z
" id="DejaVuSans-6e"/>
     </defs>
     <g transform="translate(19.115625 242.290739)rotate(-90)scale(0.2 -0.2)">
      <use xlink:href="#DejaVuSans-70"/>
      <use x="63.476562" xlink:href="#DejaVuSans-72"/>
      <use x="104.558594" xlink:href="#DejaVuSans-6f"/>
      <use x="165.740234" xlink:href="#DejaVuSans-70"/>
      <use x="229.216797" xlink:href="#DejaVuSans-6f"/>
      <use x="290.398438" xlink:href="#DejaVuSans-72"/>
      <use x="331.511719" xlink:href="#DejaVuSans-74"/>
      <use x="370.720703" xlink:href="#DejaVuSans-69"/>
      <use x="398.503906" xlink:href="#DejaVuSans-6f"/>
      <use x="459.685547" xlink:href="#DejaVuSans-6e"/>
      <use x="523.064453" xlink:href="#DejaVuSans-20"/>
      <use x="554.851562" xlink:href="#DejaVuSans-6f"/>
      <use x="616.033203" xlink:href="#DejaVuSans-66"/>
      <use x="651.238281" xlink:href="#DejaVuSans-20"/>
      <use x="683.025391" xlink:href="#DejaVuSans-74"/>
      <use x="722.234375" xlink:href="#DejaVuSans-72"/>
      <use x="763.347656" xlink:href="#DejaVuSans-69"/>
      <use x="791.130859" xlink:href="#DejaVuSans-61"/>
      <use x="852.410156" xlink:href="#DejaVuSans-6c"/>
      <use x="880.193359" xlink:href="#DejaVuSans-73"/>
     </g>
    </g>
   </g>
   <g id="line2d_51">
    <path clip-path="url(#p8420a5c630)" d="M 14.626885 291.28 
L 14.626885 283.770171 
L 34.047432 283.770171 
L 34.047432 280.015257 
L 45.407724 280.015257 
L 45.407724 272.505428 
L 59.72 272.505428 
L 59.72 268.750513 
L 69.147255 268.750513 
L 69.147255 264.995599 
L 76.188564 264.995599 
L 76.188564 261.240684 
L 79.140548 261.240684 
L 79.140548 253.730855 
L 86.491451 253.730855 
L 86.491451 246.221026 
L 88.567803 246.221026 
L 88.567803 238.711197 
L 94.007652 238.711197 
L 94.007652 234.956283 
L 97.123964 234.956283 
L 97.123964 223.691539 
L 98.561096 223.691539 
L 98.561096 219.936625 
L 103.669368 219.936625 
L 103.669368 212.426796 
L 105.911999 212.426796 
L 105.911999 208.671881 
L 107.98835 208.671881 
L 107.98835 204.916967 
L 113.4282 204.916967 
L 113.4282 201.162052 
L 116.544511 201.162052 
L 116.544511 197.407138 
L 119.348643 197.407138 
L 119.348643 193.652223 
L 120.007918 193.652223 
L 120.007918 189.897309 
L 121.28168 189.897309 
L 121.28168 174.877651 
L 123.089915 174.877651 
L 123.089915 171.122736 
L 123.667625 171.122736 
L 123.667625 167.367822 
L 124.233663 167.367822 
L 124.233663 163.612907 
L 124.788492 163.612907 
L 124.788492 156.103079 
L 129.341935 156.103079 
L 129.341935 152.348164 
L 131.150171 152.348164 
L 131.150171 148.59325 
L 131.584566 148.59325 
L 131.584566 144.838335 
L 133.257775 144.838335 
L 133.257775 141.083421 
L 135.965059 141.083421 
L 135.965059 137.328506 
L 138.76919 137.328506 
L 138.76919 133.573592 
L 139.100767 133.573592 
L 139.100767 129.818677 
L 139.428466 129.818677 
L 139.428466 126.063763 
L 140.389175 126.063763 
L 140.389175 122.308848 
L 144.482387 122.308848 
L 144.482387 118.553934 
L 144.753094 118.553934 
L 144.753094 114.799019 
L 146.578162 114.799019 
L 146.578162 111.044105 
L 146.829446 111.044105 
L 146.829446 107.28919 
L 149.681186 107.28919 
L 149.681186 103.534276 
L 150.129482 103.534276 
L 150.129482 99.779361 
L 150.570719 99.779361 
L 150.570719 96.024447 
L 151.854207 96.024447 
L 151.854207 92.269532 
L 152.88062 92.269532 
L 152.88062 88.514618 
L 153.870755 88.514618 
L 153.870755 84.759703 
L 154.257216 84.759703 
L 154.257216 81.004789 
L 154.638418 81.004789 
L 154.638418 77.249874 
L 159.493133 77.249874 
L 159.493133 73.49496 
L 160.278 73.49496 
L 160.278 69.740045 
L 180.310986 69.740045 
L 180.310986 65.985131 
L 211.740533 65.985131 
L 211.740533 62.230216 
L 213.785157 62.230216 
L 213.785157 58.475302 
L 227.490187 58.475302 
L 227.490187 54.720387 
L 230.322421 54.720387 
L 230.322421 50.965473 
L 232.88286 50.965473 
L 232.88286 47.210558 
L 233.148326 47.210558 
L 233.148326 43.455644 
L 234.417237 43.455644 
L 234.417237 39.700729 
L 236.824907 39.700729 
L 236.824907 35.945815 
L 238.629364 35.945815 
L 238.629364 32.1909 
L 240.39565 32.1909 
L 240.39565 28.435986 
L 242.05716 28.435986 
L 242.05716 24.681072 
L 242.562449 24.681072 
L 242.562449 20.926157 
L 244.435769 20.926157 
L 244.435769 17.171243 
L 246.256479 17.171243 
L 246.256479 13.416328 
L 248.235528 13.416328 
L 248.235528 9.661414 
L 248.235528 9.661414 
L 446.802248 9.661414 
L 446.802248 9.661414 
" style="fill:none;stroke:#000000;stroke-linecap:square;stroke-width:1.5;"/>
   </g>
   <g id="line2d_52">
    <path clip-path="url(#p8420a5c630)" style="fill:none;stroke:#000000;stroke-linecap:square;stroke-width:1.5;"/>
   </g>
   <g id="line2d_53">
    <path clip-path="url(#p8420a5c630)" d="M 159.966686 291.28 
L 159.966686 287.525086 
L 176.067625 287.525086 
L 176.067625 283.770171 
L 176.59134 283.770171 
L 176.59134 280.015257 
L 179.621043 280.015257 
L 179.621043 276.260342 
L 180.687071 276.260342 
L 180.687071 272.505428 
L 188.578712 272.505428 
L 188.578712 268.750513 
L 192.171611 268.750513 
L 192.171611 264.995599 
L 196.483509 264.995599 
L 196.483509 261.240684 
L 197.852533 261.240684 
L 197.852533 257.48577 
L 207.601836 257.48577 
L 207.601836 253.730855 
L 230.246077 253.730855 
L 230.246077 249.975941 
L 231.637941 249.975941 
L 231.637941 246.221026 
L 234.548674 246.221026 
L 234.548674 242.466112 
L 234.679497 242.466112 
L 234.679497 238.711197 
L 234.960869 238.711197 
L 234.960869 234.956283 
L 236.388308 234.956283 
L 236.388308 231.201368 
L 238.268083 231.201368 
L 238.268083 227.446454 
L 238.525261 227.446454 
L 238.525261 223.691539 
L 239.503543 223.691539 
L 239.503543 219.936625 
L 240.992359 219.936625 
L 240.992359 216.18171 
L 241.939895 216.18171 
L 241.939895 212.426796 
L 246.670721 212.426796 
L 246.670721 208.671881 
L 251.203597 208.671881 
L 251.203597 204.916967 
L 251.658211 204.916967 
L 251.658211 201.162052 
L 252.877331 201.162052 
L 252.877331 197.407138 
L 257.988443 197.407138 
L 257.988443 193.652223 
L 258.322526 193.652223 
L 258.322526 189.897309 
L 261.665147 189.897309 
L 261.665147 186.142394 
L 262.434942 186.142394 
L 262.434942 182.38748 
L 263.936823 182.38748 
L 263.936823 178.632565 
L 265.63022 178.632565 
L 265.63022 174.877651 
L 265.698604 174.877651 
L 265.698604 171.122736 
L 266.101901 171.122736 
L 266.101901 167.367822 
L 270.363624 167.367822 
L 270.363624 163.612907 
L 274.639966 163.612907 
L 274.639966 159.857993 
L 274.650415 159.857993 
L 274.650415 156.103079 
L 274.783294 156.103079 
L 274.783294 152.348164 
L 277.885374 152.348164 
L 277.885374 148.59325 
L 278.782977 148.59325 
L 278.782977 144.838335 
L 278.79199 144.838335 
L 278.79199 141.083421 
L 279.530107 141.083421 
L 279.530107 137.328506 
L 284.298416 137.328506 
L 284.298416 133.573592 
L 284.470017 133.573592 
L 284.470017 129.818677 
L 291.07193 129.818677 
L 291.07193 126.063763 
L 291.224119 126.063763 
L 291.224119 122.308848 
L 292.744675 122.308848 
L 292.744675 118.553934 
L 292.947937 118.553934 
L 292.947937 114.799019 
L 296.151604 114.799019 
L 296.151604 111.044105 
L 300.331338 111.044105 
L 300.331338 107.28919 
L 303.180788 107.28919 
L 303.180788 103.534276 
L 303.607693 103.534276 
L 303.607693 99.779361 
L 304.305058 99.779361 
L 304.305058 96.024447 
L 305.18292 96.024447 
L 305.18292 92.269532 
L 305.907726 92.269532 
L 305.907726 88.514618 
L 312.399051 88.514618 
L 312.399051 84.759703 
L 313.253494 84.759703 
L 313.253494 81.004789 
L 313.82705 81.004789 
L 313.82705 77.249874 
L 313.988515 77.249874 
L 313.988515 73.49496 
L 327.903895 73.49496 
L 327.903895 69.740045 
L 340.178658 69.740045 
L 340.178658 65.985131 
L 400.86935 65.985131 
L 400.86935 62.230216 
L 411.652229 62.230216 
L 411.652229 58.475302 
L 411.652229 58.475302 
L 411.652229 58.475302 
L 446.802248 58.475302 
" style="fill:none;stroke:#00bfbf;stroke-linecap:square;stroke-width:1.5;"/>
   </g>
   <g id="line2d_54">
    <path clip-path="url(#p8420a5c630)" style="fill:none;stroke:#00bfbf;stroke-linecap:square;stroke-width:1.5;"/>
   </g>
   <g id="line2d_55">
    <path clip-path="url(#p8420a5c630)" d="M 193.33717 291.28 
L 193.33717 287.525086 
L 195.3557 287.525086 
L 195.3557 283.770171 
L 196.77955 283.770171 
L 196.77955 280.015257 
L 199.503435 280.015257 
L 199.503435 276.260342 
L 199.541581 276.260342 
L 199.541581 272.505428 
L 200.881338 272.505428 
L 200.881338 268.750513 
L 201.563423 268.750513 
L 201.563423 264.995599 
L 205.922908 264.995599 
L 205.922908 261.240684 
L 209.158788 261.240684 
L 209.158788 257.48577 
L 216.988219 257.48577 
L 216.988219 253.730855 
L 236.865177 253.730855 
L 236.865177 249.975941 
L 237.005669 249.975941 
L 237.005669 246.221026 
L 238.449306 246.221026 
L 238.449306 242.466112 
L 238.798885 242.466112 
L 238.798885 238.711197 
L 238.920682 238.711197 
L 238.920682 234.956283 
L 239.939628 234.956283 
L 239.939628 231.201368 
L 240.853096 231.201368 
L 240.853096 227.446454 
L 240.931517 227.446454 
L 240.931517 223.691539 
L 241.148207 223.691539 
L 241.148207 219.936625 
L 243.483006 219.936625 
L 243.483006 216.18171 
L 250.979574 216.18171 
L 250.979574 212.426796 
L 251.197566 212.426796 
L 251.197566 208.671881 
L 253.909056 208.671881 
L 253.909056 204.916967 
L 254.051057 204.916967 
L 254.051057 201.162052 
L 259.35116 201.162052 
L 259.35116 197.407138 
L 259.820632 197.407138 
L 259.820632 193.652223 
L 263.652101 193.652223 
L 263.652101 189.897309 
L 266.271472 189.897309 
L 266.271472 186.142394 
L 266.502968 186.142394 
L 266.502968 182.38748 
L 267.073477 182.38748 
L 267.073477 178.632565 
L 267.43395 178.632565 
L 267.43395 174.877651 
L 268.370959 174.877651 
L 268.370959 171.122736 
L 269.570334 171.122736 
L 269.570334 167.367822 
L 276.374788 167.367822 
L 276.374788 163.612907 
L 277.427919 163.612907 
L 277.427919 159.857993 
L 277.663444 159.857993 
L 277.663444 156.103079 
L 279.061029 156.103079 
L 279.061029 152.348164 
L 280.266381 152.348164 
L 280.266381 148.59325 
L 281.887782 148.59325 
L 281.887782 144.838335 
L 283.865698 144.838335 
L 283.865698 141.083421 
L 284.90444 141.083421 
L 284.90444 137.328506 
L 286.160044 137.328506 
L 286.160044 133.573592 
L 286.927051 133.573592 
L 286.927051 129.818677 
L 291.697115 129.818677 
L 291.697115 126.063763 
L 293.594218 126.063763 
L 293.594218 122.308848 
L 293.87703 122.308848 
L 293.87703 118.553934 
L 297.369838 118.553934 
L 297.369838 114.799019 
L 298.37875 114.799019 
L 298.37875 111.044105 
L 302.165475 111.044105 
L 302.165475 107.28919 
L 305.246963 107.28919 
L 305.246963 103.534276 
L 306.025589 103.534276 
L 306.025589 99.779361 
L 307.752527 99.779361 
L 307.752527 96.024447 
L 307.968852 96.024447 
L 307.968852 92.269532 
L 313.65816 92.269532 
L 313.65816 88.514618 
L 314.626481 88.514618 
L 314.626481 84.759703 
L 315.147038 84.759703 
L 315.147038 81.004789 
L 321.685132 81.004789 
L 321.685132 77.249874 
L 328.977228 77.249874 
L 328.977228 73.49496 
L 336.601703 73.49496 
L 336.601703 69.740045 
L 340.735038 69.740045 
L 340.735038 65.985131 
L 340.735038 65.985131 
L 340.735038 65.985131 
L 446.802248 65.985131 
" style="fill:none;stroke:#bf00bf;stroke-linecap:square;stroke-width:1.5;"/>
   </g>
   <g id="line2d_56">
    <path clip-path="url(#p8420a5c630)" style="fill:none;stroke:#bf00bf;stroke-linecap:square;stroke-width:1.5;"/>
   </g>
   <g id="line2d_57">
    <path clip-path="url(#p8420a5c630)" d="M 204.997122 291.28 
L 204.997122 287.525086 
L 208.667712 287.525086 
L 208.667712 283.770171 
L 209.401136 283.770171 
L 209.401136 280.015257 
L 211.26796 280.015257 
L 211.26796 276.260342 
L 211.442995 276.260342 
L 211.442995 272.505428 
L 212.398662 272.505428 
L 212.398662 268.750513 
L 215.967758 268.750513 
L 215.967758 264.995599 
L 219.246577 264.995599 
L 219.246577 261.240684 
L 222.753389 261.240684 
L 222.753389 257.48577 
L 223.378962 257.48577 
L 223.378962 253.730855 
L 241.191345 253.730855 
L 241.191345 249.975941 
L 241.225807 249.975941 
L 241.225807 246.221026 
L 241.644567 246.221026 
L 241.644567 242.466112 
L 241.771518 242.466112 
L 241.771518 238.711197 
L 243.395487 238.711197 
L 243.395487 234.956283 
L 244.862485 234.956283 
L 244.862485 231.201368 
L 245.013322 231.201368 
L 245.013322 227.446454 
L 245.028362 227.446454 
L 245.028362 223.691539 
L 245.54233 223.691539 
L 245.54233 219.936625 
L 247.529441 219.936625 
L 247.529441 216.18171 
L 253.007687 216.18171 
L 253.007687 212.426796 
L 256.043232 212.426796 
L 256.043232 208.671881 
L 256.600846 208.671881 
L 256.600846 204.916967 
L 260.067838 204.916967 
L 260.067838 201.162052 
L 261.644383 201.162052 
L 261.644383 197.407138 
L 262.628142 197.407138 
L 262.628142 193.652223 
L 266.387459 193.652223 
L 266.387459 189.897309 
L 268.098412 189.897309 
L 268.098412 186.142394 
L 268.605256 186.142394 
L 268.605256 182.38748 
L 268.64088 182.38748 
L 268.64088 178.632565 
L 268.692615 178.632565 
L 268.692615 174.877651 
L 269.299779 174.877651 
L 269.299779 171.122736 
L 273.460708 171.122736 
L 273.460708 167.367822 
L 277.147428 167.367822 
L 277.147428 163.612907 
L 278.415509 163.612907 
L 278.415509 159.857993 
L 279.276629 159.857993 
L 279.276629 156.103079 
L 281.546838 156.103079 
L 281.546838 152.348164 
L 281.616174 152.348164 
L 281.616174 148.59325 
L 284.38158 148.59325 
L 284.38158 144.838335 
L 286.175626 144.838335 
L 286.175626 141.083421 
L 286.344742 141.083421 
L 286.344742 137.328506 
L 286.547026 137.328506 
L 286.547026 133.573592 
L 286.984285 133.573592 
L 286.984285 129.818677 
L 292.012284 129.818677 
L 292.012284 126.063763 
L 294.068351 126.063763 
L 294.068351 122.308848 
L 297.338479 122.308848 
L 297.338479 118.553934 
L 297.454448 118.553934 
L 297.454448 114.799019 
L 301.532342 114.799019 
L 301.532342 111.044105 
L 304.887132 111.044105 
L 304.887132 107.28919 
L 306.199764 107.28919 
L 306.199764 103.534276 
L 307.968852 103.534276 
L 307.968852 99.779361 
L 308.0062 99.779361 
L 308.0062 96.024447 
L 308.686373 96.024447 
L 308.686373 92.269532 
L 315.781713 92.269532 
L 315.781713 88.514618 
L 316.63324 88.514618 
L 316.63324 84.759703 
L 317.359163 84.759703 
L 317.359163 81.004789 
L 323.614368 81.004789 
L 323.614368 77.249874 
L 330.355334 77.249874 
L 330.355334 73.49496 
L 337.68678 73.49496 
L 337.68678 69.740045 
L 341.646037 69.740045 
L 341.646037 65.985131 
L 341.646037 65.985131 
L 341.646037 65.985131 
L 446.802248 65.985131 
" style="fill:none;stroke:#ff0000;stroke-linecap:square;stroke-width:3;"/>
   </g>
   <g id="line2d_58">
    <path clip-path="url(#p8420a5c630)" style="fill:none;stroke:#ff0000;stroke-linecap:square;stroke-width:3;"/>
   </g>
   <g id="line2d_59">
    <path clip-path="url(#p8420a5c630)" d="M 446.802248 291.28 
L 446.802248 6.845228 
" style="fill:none;stroke:#000000;stroke-linecap:square;stroke-width:1.5;"/>
   </g>
   <g id="patch_3">
    <path d="M 59.72 291.28 
L 59.72 6.845228 
" style="fill:none;stroke:#000000;stroke-linecap:square;stroke-linejoin:miter;stroke-width:0.8;"/>
   </g>
   <g id="patch_4">
    <path d="M 446.802248 291.28 
L 446.802248 6.845228 
" style="fill:none;stroke:#000000;stroke-linecap:square;stroke-linejoin:miter;stroke-width:0.8;"/>
   </g>
   <g id="patch_5">
    <path d="M 59.72 291.28 
L 446.802248 291.28 
" style="fill:none;stroke:#000000;stroke-linecap:square;stroke-linejoin:miter;stroke-width:0.8;"/>
   </g>
   <g id="patch_6">
    <path d="M 59.72 6.845228 
L 446.802248 6.845228 
" style="fill:none;stroke:#000000;stroke-linecap:square;stroke-linejoin:miter;stroke-width:0.8;"/>
   </g>
   <g id="text_13">
    <!-- {f20-f24}, 5-D -->
    <defs>
     <path d="M 51.125 -9.28125 
L 51.125 -16.3125 
L 48.09375 -16.3125 
Q 35.9375 -16.3125 31.8125 -12.6875 
Q 27.6875 -9.078125 27.6875 1.703125 
L 27.6875 13.375 
Q 27.6875 20.75 25.046875 23.578125 
Q 22.40625 26.421875 15.484375 26.421875 
L 12.5 26.421875 
L 12.5 33.40625 
L 15.484375 33.40625 
Q 22.46875 33.40625 25.078125 36.203125 
Q 27.6875 39.015625 27.6875 46.296875 
L 27.6875 58.015625 
Q 27.6875 68.796875 31.8125 72.390625 
Q 35.9375 75.984375 48.09375 75.984375 
L 51.125 75.984375 
L 51.125 69 
L 47.796875 69 
Q 40.921875 69 38.8125 66.84375 
Q 36.71875 64.703125 36.71875 57.8125 
L 36.71875 45.703125 
Q 36.71875 38.03125 34.5 34.5625 
Q 32.28125 31.109375 26.90625 29.890625 
Q 32.328125 28.5625 34.515625 25.09375 
Q 36.71875 21.625 36.71875 14.015625 
L 36.71875 1.90625 
Q 36.71875 -4.984375 38.8125 -7.125 
Q 40.921875 -9.28125 47.796875 -9.28125 
z
" id="DejaVuSans-7b"/>
     <path d="M 4.890625 31.390625 
L 31.203125 31.390625 
L 31.203125 23.390625 
L 4.890625 23.390625 
z
" id="DejaVuSans-2d"/>
     <path d="M 12.5 -9.28125 
L 15.921875 -9.28125 
Q 22.75 -9.28125 24.828125 -7.171875 
Q 26.90625 -5.078125 26.90625 1.90625 
L 26.90625 14.015625 
Q 26.90625 21.625 29.09375 25.09375 
Q 31.296875 28.5625 36.71875 29.890625 
Q 31.296875 31.109375 29.09375 34.5625 
Q 26.90625 38.03125 26.90625 45.703125 
L 26.90625 57.8125 
Q 26.90625 64.75 24.828125 66.875 
Q 22.75 69 15.921875 69 
L 12.5 69 
L 12.5 75.984375 
L 15.578125 75.984375 
Q 27.734375 75.984375 31.8125 72.390625 
Q 35.890625 68.796875 35.890625 58.015625 
L 35.890625 46.296875 
Q 35.890625 39.015625 38.515625 36.203125 
Q 41.15625 33.40625 48.09375 33.40625 
L 51.125 33.40625 
L 51.125 26.421875 
L 48.09375 26.421875 
Q 41.15625 26.421875 38.515625 23.578125 
Q 35.890625 20.75 35.890625 13.375 
L 35.890625 1.703125 
Q 35.890625 -9.078125 31.8125 -12.6875 
Q 27.734375 -16.3125 15.578125 -16.3125 
L 12.5 -16.3125 
z
" id="DejaVuSans-7d"/>
     <path d="M 11.71875 12.40625 
L 22.015625 12.40625 
L 22.015625 4 
L 14.015625 -11.625 
L 7.71875 -11.625 
L 11.71875 4 
z
" id="DejaVuSans-2c"/>
     <path d="M 10.796875 72.90625 
L 49.515625 72.90625 
L 49.515625 64.59375 
L 19.828125 64.59375 
L 19.828125 46.734375 
Q 21.96875 47.46875 24.109375 47.828125 
Q 26.265625 48.1875 28.421875 48.1875 
Q 40.625 48.1875 47.75 41.5 
Q 54.890625 34.8125 54.890625 23.390625 
Q 54.890625 11.625 47.5625 5.09375 
Q 40.234375 -1.421875 26.90625 -1.421875 
Q 22.3125 -1.421875 17.546875 -0.640625 
Q 12.796875 0.140625 7.71875 1.703125 
L 7.71875 11.625 
Q 12.109375 9.234375 16.796875 8.0625 
Q 21.484375 6.890625 26.703125 6.890625 
Q 35.15625 6.890625 40.078125 11.328125 
Q 45.015625 15.765625 45.015625 23.390625 
Q 45.015625 31 40.078125 35.4375 
Q 35.15625 39.890625 26.703125 39.890625 
Q 22.75 39.890625 18.8125 39.015625 
Q 14.890625 38.140625 10.796875 36.28125 
z
" id="DejaVuSans-35"/>
    </defs>
    <g transform="translate(180.411124 27.730798)scale(0.2 -0.2)">
     <use xlink:href="#DejaVuSans-7b"/>
     <use x="63.623047" xlink:href="#DejaVuSans-66"/>
     <use x="98.828125" xlink:href="#DejaVuSans-32"/>
     <use x="162.451172" xlink:href="#DejaVuSans-30"/>
     <use x="226.074219" xlink:href="#DejaVuSans-2d"/>
     <use x="262.158203" xlink:href="#DejaVuSans-66"/>
     <use x="297.363281" xlink:href="#DejaVuSans-32"/>
     <use x="360.986328" xlink:href="#DejaVuSans-34"/>
     <use x="424.609375" xlink:href="#DejaVuSans-7d"/>
     <use x="488.232422" xlink:href="#DejaVuSans-2c"/>
     <use x="520.019531" xlink:href="#DejaVuSans-20"/>
     <use x="551.806641" xlink:href="#DejaVuSans-35"/>
     <use x="615.429688" xlink:href="#DejaVuSans-2d"/>
     <use x="651.513672" xlink:href="#DejaVuSans-44"/>
    </g>
   </g>
   <g id="text_14">
    <!-- absolute targets -->
    <defs>
     <path d="M 48.6875 27.296875 
Q 48.6875 37.203125 44.609375 42.84375 
Q 40.53125 48.484375 33.40625 48.484375 
Q 26.265625 48.484375 22.1875 42.84375 
Q 18.109375 37.203125 18.109375 27.296875 
Q 18.109375 17.390625 22.1875 11.75 
Q 26.265625 6.109375 33.40625 6.109375 
Q 40.53125 6.109375 44.609375 11.75 
Q 48.6875 17.390625 48.6875 27.296875 
z
M 18.109375 46.390625 
Q 20.953125 51.265625 25.265625 53.625 
Q 29.59375 56 35.59375 56 
Q 45.5625 56 51.78125 48.09375 
Q 58.015625 40.1875 58.015625 27.296875 
Q 58.015625 14.40625 51.78125 6.484375 
Q 45.5625 -1.421875 35.59375 -1.421875 
Q 29.59375 -1.421875 25.265625 0.953125 
Q 20.953125 3.328125 18.109375 8.203125 
L 18.109375 0 
L 9.078125 0 
L 9.078125 75.984375 
L 18.109375 75.984375 
z
" id="DejaVuSans-62"/>
     <path d="M 8.5 21.578125 
L 8.5 54.6875 
L 17.484375 54.6875 
L 17.484375 21.921875 
Q 17.484375 14.15625 20.5 10.265625 
Q 23.53125 6.390625 29.59375 6.390625 
Q 36.859375 6.390625 41.078125 11.03125 
Q 45.3125 15.671875 45.3125 23.6875 
L 45.3125 54.6875 
L 54.296875 54.6875 
L 54.296875 0 
L 45.3125 0 
L 45.3125 8.40625 
Q 42.046875 3.421875 37.71875 1 
Q 33.40625 -1.421875 27.6875 -1.421875 
Q 18.265625 -1.421875 13.375 4.4375 
Q 8.5 10.296875 8.5 21.578125 
z
M 31.109375 56 
z
" id="DejaVuSans-75"/>
     <path d="M 56.203125 29.59375 
L 56.203125 25.203125 
L 14.890625 25.203125 
Q 15.484375 15.921875 20.484375 11.0625 
Q 25.484375 6.203125 34.421875 6.203125 
Q 39.59375 6.203125 44.453125 7.46875 
Q 49.3125 8.734375 54.109375 11.28125 
L 54.109375 2.78125 
Q 49.265625 0.734375 44.1875 -0.34375 
Q 39.109375 -1.421875 33.890625 -1.421875 
Q 20.796875 -1.421875 13.15625 6.1875 
Q 5.515625 13.8125 5.515625 26.8125 
Q 5.515625 40.234375 12.765625 48.109375 
Q 20.015625 56 32.328125 56 
Q 43.359375 56 49.78125 48.890625 
Q 56.203125 41.796875 56.203125 29.59375 
z
M 47.21875 32.234375 
Q 47.125 39.59375 43.09375 43.984375 
Q 39.0625 48.390625 32.421875 48.390625 
Q 24.90625 48.390625 20.390625 44.140625 
Q 15.875 39.890625 15.1875 32.171875 
z
" id="DejaVuSans-65"/>
    </defs>
    <g transform="translate(59.72 601.060445)scale(0.14 -0.14)">
     <use xlink:href="#DejaVuSans-61"/>
     <use x="61.279297" xlink:href="#DejaVuSans-62"/>
     <use x="124.755859" xlink:href="#DejaVuSans-73"/>
     <use x="176.855469" xlink:href="#DejaVuSans-6f"/>
     <use x="238.037109" xlink:href="#DejaVuSans-6c"/>
     <use x="265.820312" xlink:href="#DejaVuSans-75"/>
     <use x="329.199219" xlink:href="#DejaVuSans-74"/>
     <use x="368.408203" xlink:href="#DejaVuSans-65"/>
     <use x="429.931641" xlink:href="#DejaVuSans-20"/>
     <use x="461.71875" xlink:href="#DejaVuSans-74"/>
     <use x="500.927734" xlink:href="#DejaVuSans-61"/>
     <use x="562.207031" xlink:href="#DejaVuSans-72"/>
     <use x="603.304688" xlink:href="#DejaVuSans-67"/>
     <use x="666.78125" xlink:href="#DejaVuSans-65"/>
     <use x="728.304688" xlink:href="#DejaVuSans-74"/>
     <use x="767.513672" xlink:href="#DejaVuSans-73"/>
    </g>
   </g>
   <g id="text_15">
    <!-- v2.4 -->
    <g style="fill:#808080;" transform="translate(242.350187 286.355965)scale(0.1 -0.1)">
     <use xlink:href="#DejaVuSans-76"/>
     <use x="59.179688" xlink:href="#DejaVuSans-32"/>
     <use x="122.802734" xlink:href="#DejaVuSans-2e"/>
     <use x="154.589844" xlink:href="#DejaVuSans-34"/>
    </g>
   </g>
   <g id="legend_1">
    <g id="patch_7">
     <path d="M 73.72 140.270228 
L 202.941875 140.270228 
Q 206.941875 140.270228 206.941875 136.270228 
L 206.941875 20.845228 
Q 206.941875 16.845228 202.941875 16.845228 
L 73.72 16.845228 
Q 69.72 16.845228 69.72 20.845228 
L 69.72 136.270228 
Q 69.72 140.270228 73.72 140.270228 
z
" style="fill:#ffffff;opacity:0.2;stroke:#cccccc;stroke-linejoin:miter;"/>
    </g>
    <g id="line2d_60">
     <path d="M 77.72 33.042103 
L 117.72 33.042103 
" style="fill:none;stroke:#000000;stroke-linecap:square;stroke-width:1.5;"/>
    </g>
    <g id="line2d_61"/>
    <g id="text_16">
     <!-- 1: 5/5 -->
     <defs>
      <path d="M 11.71875 12.40625 
L 22.015625 12.40625 
L 22.015625 0 
L 11.71875 0 
z
M 11.71875 51.703125 
L 22.015625 51.703125 
L 22.015625 39.3125 
L 11.71875 39.3125 
z
" id="DejaVuSans-3a"/>
     </defs>
     <g transform="translate(133.72 40.042103)scale(0.2 -0.2)">
      <use xlink:href="#DejaVuSans-31"/>
      <use x="63.623047" xlink:href="#DejaVuSans-3a"/>
      <use x="97.314453" xlink:href="#DejaVuSans-20"/>
      <use x="129.101562" xlink:href="#DejaVuSans-35"/>
      <use x="192.724609" xlink:href="#DejaVuSans-2f"/>
      <use x="226.416016" xlink:href="#DejaVuSans-35"/>
     </g>
    </g>
    <g id="line2d_62">
     <path d="M 77.72 62.398353 
L 117.72 62.398353 
" style="fill:none;stroke:#00bfbf;stroke-linecap:square;stroke-width:1.5;"/>
    </g>
    <g id="line2d_63"/>
    <g id="text_17">
     <!-- -1: 5/5 -->
     <g transform="translate(133.72 69.398353)scale(0.2 -0.2)">
      <use xlink:href="#DejaVuSans-2d"/>
      <use x="36.083984" xlink:href="#DejaVuSans-31"/>
      <use x="99.707031" xlink:href="#DejaVuSans-3a"/>
      <use x="133.398438" xlink:href="#DejaVuSans-20"/>
      <use x="165.185547" xlink:href="#DejaVuSans-35"/>
      <use x="228.808594" xlink:href="#DejaVuSans-2f"/>
      <use x="262.5" xlink:href="#DejaVuSans-35"/>
     </g>
    </g>
    <g id="line2d_64">
     <path d="M 77.72 91.754603 
L 117.72 91.754603 
" style="fill:none;stroke:#bf00bf;stroke-linecap:square;stroke-width:1.5;"/>
    </g>
    <g id="line2d_65"/>
    <g id="text_18">
     <!-- -4: 4/5 -->
     <g transform="translate(133.72 98.754603)scale(0.2 -0.2)">
      <use xlink:href="#DejaVuSans-2d"/>
      <use x="36.083984" xlink:href="#DejaVuSans-34"/>
      <use x="99.707031" xlink:href="#DejaVuSans-3a"/>
      <use x="133.398438" xlink:href="#DejaVuSans-20"/>
      <use x="165.185547" xlink:href="#DejaVuSans-34"/>
      <use x="228.808594" xlink:href="#DejaVuSans-2f"/>
      <use x="262.5" xlink:href="#DejaVuSans-35"/>
     </g>
    </g>
    <g id="line2d_66">
     <path d="M 77.72 121.110853 
L 117.72 121.110853 
" style="fill:none;stroke:#ff0000;stroke-linecap:square;stroke-width:3;"/>
    </g>
    <g id="line2d_67"/>
    <g id="text_19">
     <!-- -8: 4/5 -->
     <g transform="translate(133.72 128.110853)scale(0.2 -0.2)">
      <use xlink:href="#DejaVuSans-2d"/>
      <use x="36.083984" xlink:href="#DejaVuSans-38"/>
      <use x="99.707031" xlink:href="#DejaVuSans-3a"/>
      <use x="133.398438" xlink:href="#DejaVuSans-20"/>
      <use x="165.185547" xlink:href="#DejaVuSans-34"/>
      <use x="228.808594" xlink:href="#DejaVuSans-2f"/>
      <use x="262.5" xlink:href="#DejaVuSans-35"/>
     </g>
    </g>
   </g>
  </g>
 </g>
 <defs>
  <clipPath id="p8420a5c630">
   <rect height="284.434772" width="387.082248" x="59.72" y="6.845228"/>
  </clipPath>
 </defs>
</svg>
